<svg width="48" height="48" viewBox="0 0 48 48" fill="none" xmlns="http://www.w3.org/2000/svg">
<path d="M44 0H4C1.79086 0 0 1.79086 0 4V44C0 46.2091 1.79086 48 4 48H44C46.2091 48 48 46.2091 48 44V4C48 1.79086 46.2091 0 44 0Z" fill="#F29111"/>
<path fill-rule="evenodd" clip-rule="evenodd" d="M25.4131 24.4999L32.8378 31.9245C33.2283 32.315 33.2283 32.9482 32.8378 33.3387C32.4472 33.7293 31.8141 33.7293 31.4235 33.3387L23.9989 25.9141L16.5743 33.3387C16.1838 33.7293 15.5506 33.7293 15.1601 33.3387C14.7696 32.9482 14.7696 32.315 15.1601 31.9245L22.5847 24.4999L15.1601 17.0753C14.7696 16.6847 14.7696 16.0516 15.1601 15.6611C15.5506 15.2705 16.1838 15.2705 16.5743 15.6611L23.9989 23.0857L31.4235 15.6611C31.8141 15.2705 32.4472 15.2705 32.8378 15.6611C33.2283 16.0516 33.2283 16.6847 32.8378 17.0753L25.4131 24.4999Z" fill="white"/>
</svg>
