<svg width="112" height="112" viewBox="0 0 112 112" fill="none" xmlns="http://www.w3.org/2000/svg">
<g clip-path="url(#clip0)">
<path d="M66.8395 63.7227C65.9851 62.8685 64.6004 62.8685 63.7459 63.7227L63.7212 63.7474C62.867 64.6016 62.867 65.9868 63.7212 66.8412C64.1484 67.2682 64.7082 67.4819 65.268 67.4819C65.8278 67.4819 66.3875 67.2682 66.8148 66.8412L66.8395 66.8165C67.6937 65.9623 67.6937 64.5771 66.8395 63.7227Z" fill="#003C4A"/>
<path d="M66.8272 45.1727C60.8564 39.2024 51.1415 39.2026 45.1708 45.1727C39.2002 51.1435 39.2002 60.8581 45.1708 66.8289C48.0578 69.7159 51.985 71.3108 56.0177 71.3106C56.8168 71.3106 57.6207 71.2481 58.4208 71.1203C59.6139 70.93 60.4266 69.8085 60.2362 68.6154C60.0459 67.4224 58.9209 66.6101 57.7314 66.8C54.2729 67.3519 50.7353 66.2059 48.2645 63.7351C46.1987 61.6692 45.0607 58.9224 45.0607 56.0008C45.0607 53.0792 46.1985 50.3324 48.2645 48.2665C52.5291 44.0018 59.4687 44.0013 63.7336 48.2665C66.3254 50.858 67.4425 54.5551 66.7224 58.1561C66.4855 59.3409 67.2537 60.4933 68.4385 60.7302C69.6226 60.9677 70.7756 60.1988 71.0125 59.0141C72.0198 53.9752 70.4553 48.8011 66.8272 45.1727Z" fill="#003C4A"/>
<path d="M56.0009 0C51.538 0 47.9072 3.6308 47.9072 8.09372C47.9072 11.7987 50.4102 14.9277 53.8135 15.8847V32.372C53.8135 33.58 54.793 34.5595 56.0009 34.5595C57.2089 34.5595 58.1884 33.58 58.1884 32.372V15.8847C61.5917 14.9279 64.0947 11.7987 64.0947 8.09372C64.0947 3.6308 60.4639 0 56.0009 0ZM56.0305 11.8109C56.0206 11.8109 56.0108 11.8094 56.0009 11.8094C55.9911 11.8094 55.9813 11.8107 55.9714 11.8109C53.9346 11.7947 52.2822 10.1342 52.2822 8.09372C52.2822 6.04316 53.9504 4.37498 56.0009 4.37498C58.0515 4.37498 59.7197 6.04316 59.7197 8.09372C59.7197 10.1342 58.0672 11.7947 56.0305 11.8109Z" fill="#003C4A"/>
<path d="M58.1884 96.1153V79.6251C58.1884 78.4172 57.2089 77.4376 56.0009 77.4376C54.793 77.4376 53.8135 78.4172 53.8135 79.6251V96.1153C50.4102 97.0721 47.9072 100.201 47.9072 103.906C47.9072 108.369 51.538 112 56.0009 112C60.4639 112 64.0947 108.369 64.0947 103.906C64.0947 100.201 61.5917 97.0721 58.1884 96.1153ZM56.0009 107.625C53.9504 107.625 52.2822 105.957 52.2822 103.906C52.2822 101.856 53.9504 100.188 56.0009 100.188C58.0515 100.188 59.7197 101.856 59.7197 103.906C59.7197 105.957 58.0515 107.625 56.0009 107.625Z" fill="#003C4A"/>
<path d="M32.3749 53.8125H15.8847C14.9277 50.4092 11.7987 47.9062 8.09372 47.9062C3.6308 47.9062 0 51.537 0 56C0 60.4629 3.6308 64.0937 8.09372 64.0937C11.7987 64.0937 14.9277 61.5908 15.8847 58.1875H32.3749C33.5828 58.1875 34.5624 57.2079 34.5624 56C34.5624 54.792 33.5828 53.8125 32.3749 53.8125ZM8.09372 59.7187C6.04316 59.7187 4.37498 58.0505 4.37498 56C4.37498 53.9494 6.04316 52.2812 8.09372 52.2812C10.1443 52.2812 11.8125 53.9494 11.8125 56C11.8125 58.0505 10.1443 59.7187 8.09372 59.7187Z" fill="#003C4A"/>
<path d="M103.903 47.9062C100.198 47.9062 97.0694 50.4092 96.1123 53.8125H79.625C78.4171 53.8125 77.4375 54.792 77.4375 56C77.4375 57.2079 78.4171 58.1875 79.625 58.1875H96.1123C97.0694 61.5908 100.198 64.0937 103.903 64.0937C108.366 64.0937 111.997 60.4629 111.997 56C111.997 51.537 108.366 47.9062 103.903 47.9062ZM103.903 59.7187C101.863 59.7187 100.202 58.0665 100.186 56.0295C100.186 56.0194 100.188 56.0098 100.188 56C100.188 55.9901 100.186 55.9803 100.186 55.9704C100.202 53.9337 101.863 52.2812 103.903 52.2812C105.954 52.2812 107.622 53.9494 107.622 56C107.622 58.0505 105.954 59.7187 103.903 59.7187Z" fill="#003C4A"/>
<path d="M40.8409 71.1588C39.9863 70.3048 38.6016 70.3048 37.7472 71.1588L26.0887 82.8173C24.8917 82.1424 23.5363 81.7815 22.1245 81.7815C19.9626 81.7815 17.9302 82.6235 16.4014 84.1521C13.2457 87.3077 13.2457 92.4422 16.4016 95.5983C17.9795 97.1762 20.0521 97.965 22.1245 97.965C24.1974 97.965 26.2698 97.1762 27.8477 95.5983C29.3763 94.0695 30.2185 92.0371 30.2185 89.8752C30.2185 88.4634 29.8573 87.108 29.1825 85.911L40.8409 74.2526C41.6951 73.3984 41.6951 72.0132 40.8409 71.1588ZM24.7539 92.5046C23.3038 93.9547 20.9446 93.954 19.4949 92.5048C18.0451 91.0547 18.0451 88.6955 19.4949 87.2456C20.1973 86.543 21.1312 86.1565 22.1245 86.1565C23.1174 86.1565 24.0506 86.5428 24.753 87.2447C24.7532 87.245 24.7537 87.2454 24.7539 87.2458C24.7543 87.2463 24.7548 87.2465 24.755 87.2469C25.4567 87.9491 25.8433 88.8825 25.8433 89.8754C25.8435 90.8681 25.4565 91.8022 24.7539 92.5046Z" fill="#003C4A"/>
<path d="M95.5948 16.4015C92.4392 13.2458 87.3043 13.246 84.149 16.4015C82.6202 17.9301 81.778 19.9627 81.778 22.1246C81.778 23.5362 82.1392 24.8918 82.814 26.0888L71.1578 37.745C70.3035 38.5992 70.3035 39.9844 71.1578 40.8388C71.5852 41.2658 72.1447 41.4795 72.7047 41.4795C73.2647 41.4795 73.8243 41.2658 74.2515 40.8388L85.9078 29.1825C87.1048 29.8574 88.4601 30.2183 89.8719 30.2183C92.0338 30.2183 94.0662 29.3763 95.5951 27.8477C97.1237 26.3191 97.9657 24.2865 97.9657 22.1246C97.9657 19.9627 97.1237 17.9301 95.5948 16.4015ZM92.5015 24.7542C91.7991 25.4568 90.8653 25.8433 89.8719 25.8433C88.8893 25.8433 87.966 25.4638 87.266 24.7756C87.2585 24.768 87.2522 24.7594 87.2445 24.752C87.2369 24.7443 87.2286 24.738 87.2209 24.7306C86.5327 24.0308 86.153 23.1074 86.153 22.1246C86.153 21.1315 86.54 20.1976 87.2424 19.4952C87.9673 18.7703 88.9197 18.4078 89.8719 18.4078C90.8242 18.4078 91.7764 18.7701 92.5015 19.4952C93.9516 20.9451 93.9516 23.3043 92.5015 24.7542Z" fill="#003C4A"/>
<path d="M95.5951 84.1523C94.0662 82.6237 92.0339 81.7817 89.872 81.7817C88.4601 81.7817 87.1048 82.1429 85.9078 82.8175L74.2515 71.1612C73.3971 70.3073 72.0124 70.3073 71.1578 71.1612C70.3035 72.0155 70.3035 73.4006 71.1578 74.255L82.814 85.9113C82.1392 87.1083 81.778 88.4636 81.778 89.8755C81.778 92.0374 82.6202 94.0697 84.1488 95.5986C85.7267 97.1764 87.7993 97.9652 89.8717 97.9652C91.9446 97.9652 94.017 97.1764 95.5951 95.5984C98.7508 92.4425 98.7508 87.308 95.5951 84.1523ZM92.5018 92.505C91.0512 93.9551 88.6922 93.9547 87.2426 92.505C86.54 91.8026 86.1532 90.8688 86.1532 89.8755C86.1532 88.8928 86.533 87.9695 87.2212 87.2695C87.2288 87.2621 87.2373 87.2557 87.2448 87.2481C87.2524 87.2404 87.2588 87.2321 87.2662 87.2242C87.966 86.5363 88.8893 86.1567 89.8722 86.1567C90.8653 86.1567 91.7994 86.5435 92.5018 87.2459C93.9514 88.696 93.9514 91.0552 92.5018 92.505Z" fill="#003C4A"/>
<path d="M40.8399 37.7483L29.1814 26.0898C29.8563 24.8928 30.2174 23.5372 30.2174 22.1257C30.2174 19.9638 29.3753 17.9311 27.8466 16.4025C24.691 13.2471 19.5565 13.2466 16.4004 16.4025C14.8718 17.9311 14.0298 19.9638 14.0298 22.1257C14.0298 24.2876 14.8718 26.3202 16.4004 27.8488C17.9294 29.3774 19.9618 30.2194 22.1237 30.2194C23.5355 30.2194 24.8909 29.8582 26.0879 29.1836L37.7463 40.8421C38.1736 41.269 38.7333 41.4828 39.2931 41.4828C39.8529 41.4828 40.4127 41.269 40.8399 40.8421C41.6941 39.9878 41.6941 38.6027 40.8399 37.7483ZM24.754 24.7541C24.7537 24.7544 24.7533 24.7548 24.7529 24.755C24.7524 24.7555 24.7522 24.7559 24.7518 24.7561C24.0496 25.4579 23.1162 25.8442 22.1233 25.8442C21.1302 25.8442 20.1961 25.4574 19.4937 24.755C18.0441 23.3052 18.0441 20.9459 19.4939 19.4961C20.2191 18.7711 21.1713 18.4087 22.1235 18.4087C23.0757 18.4087 24.0282 18.7711 24.7531 19.4961C24.7531 19.4961 24.7531 19.4961 24.7533 19.4961C25.4557 20.1985 25.8425 21.1321 25.8425 22.1257C25.8425 23.1186 25.4559 24.0517 24.754 24.7541Z" fill="#003C4A"/>
</g>
<defs>
<clipPath id="clip0">
<rect width="112" height="112" fill="white"/>
</clipPath>
</defs>
</svg>
