<svg width="881" height="443" viewBox="0 0 881 443" fill="none" xmlns="http://www.w3.org/2000/svg">
<path d="M670 0L782 51.0938V109H723.813H670V0Z" fill="url(#paint0_linear_1423_4255)"/>
<path d="M398 226L510 277.094V335H451.813H398V226Z" fill="url(#paint1_linear_1423_4255)"/>
<path d="M51.168 250H878.999" stroke="white" stroke-opacity="0.3" stroke-width="2" stroke-linecap="round" stroke-linejoin="round" stroke-dasharray="0.1 10"/>
<path d="M29 250H51" stroke="white" stroke-opacity="0.3" stroke-width="2" stroke-linecap="round" stroke-linejoin="round"/>
<path d="M51.168 310H878.999" stroke="white" stroke-opacity="0.3" stroke-width="2" stroke-linecap="round" stroke-linejoin="round" stroke-dasharray="0.1 10"/>
<path d="M29 310H51" stroke="white" stroke-opacity="0.3" stroke-width="2" stroke-linecap="round" stroke-linejoin="round"/>
<path d="M51.168 130H878.999" stroke="white" stroke-opacity="0.3" stroke-width="2" stroke-linecap="round" stroke-linejoin="round" stroke-dasharray="0.1 10"/>
<path d="M29 130H51" stroke="white" stroke-opacity="0.3" stroke-width="2" stroke-linecap="round" stroke-linejoin="round"/>
<path d="M51.168 190H878.999" stroke="white" stroke-opacity="0.3" stroke-width="2" stroke-linecap="round" stroke-linejoin="round" stroke-dasharray="0.1 10"/>
<path d="M29 190H51" stroke="white" stroke-opacity="0.3" stroke-width="2" stroke-linecap="round" stroke-linejoin="round"/>
<path d="M126 216L238 267.094V325H179.813H126V216Z" fill="url(#paint2_linear_1423_4255)"/>
<path d="M670 110.735C670 109.777 670.895 109 672 109H780C781.105 109 782 109.777 782 110.735V369.265C782 370.224 781.105 371 780 371H723.813H672C670.895 371 670 370.224 670 369.265V110.735Z" fill="#8EC9E6"/>
<path d="M398 318.929C398 317.863 398.895 317 400 317H508C509.105 317 510 317.863 510 318.929V369.071C510 370.137 509.105 371 508 371H451.813H400C398.895 371 398 370.137 398 369.071V318.929Z" fill="#8EC9E6"/>
<path d="M126 312.364C126 311.61 126.895 311 128 311H236C237.105 311 238 311.61 238 312.364V369.636C238 370.39 237.105 371 236 371H179.813H128C126.895 371 126 370.39 126 369.636V312.364Z" fill="#8EC9E6"/>
<path d="M30 370H880" stroke="#C0DBE9" stroke-width="2" stroke-linecap="round" stroke-linejoin="round"/>
<path d="M4.20134 317.001V304.571L0.527344 306.023V304.395L4.97134 301.227H6.92934V317.001H4.20134Z" fill="white"/>
<path d="M0.375 257.999V256.151L4.577 251.575C5.38367 250.695 6.02167 249.954 6.491 249.353C6.975 248.752 7.31967 248.238 7.525 247.813C7.73033 247.373 7.833 246.962 7.833 246.581C7.833 245.026 6.90167 244.249 5.039 244.249C3.74833 244.249 2.355 244.66 0.859 245.481V243.127C1.48967 242.76 2.20833 242.474 3.015 242.269C3.82167 242.049 4.60633 241.939 5.369 241.939C6.997 241.939 8.25833 242.328 9.153 243.105C10.0623 243.868 10.517 244.953 10.517 246.361C10.517 246.933 10.385 247.52 10.121 248.121C9.87167 248.722 9.46833 249.397 8.911 250.145C8.35367 250.893 7.613 251.773 6.689 252.785L3.961 255.755H10.561V257.999H0.375Z" fill="white"/>
<path d="M0.570312 197.297V194.965C1.18631 195.288 1.86831 195.537 2.61631 195.713C3.36431 195.889 4.11231 195.977 4.86031 195.977C6.01898 195.977 6.91364 195.713 7.54431 195.185C8.17498 194.657 8.49031 193.924 8.49031 192.985C8.49031 192.164 8.24098 191.511 7.74231 191.027C7.24364 190.543 6.53231 190.301 5.60831 190.301C5.18298 190.301 4.77964 190.338 4.39831 190.411C4.01698 190.484 3.62831 190.594 3.23231 190.741L2.33031 189.245L6.86231 184.471H0.790312V182.227H10.3383V183.987L6.07031 188.431C7.62498 188.475 8.83498 188.915 9.70031 189.751C10.5656 190.572 10.9983 191.658 10.9983 193.007C10.9983 194.65 10.463 195.94 9.39231 196.879C8.33631 197.818 6.86964 198.287 4.99231 198.287C4.15631 198.287 3.35698 198.199 2.59431 198.023C1.83164 197.862 1.15698 197.62 0.570312 197.297Z" fill="white"/>
<path d="M0.617188 134.679V132.611L8.51519 122.227H10.9352V132.391H13.0912V134.679H10.9352V138.001H8.31719V134.679H0.617188ZM8.38319 132.127V125.967L3.54319 132.391H8.36119L8.38319 132.127Z" fill="white"/>
<path d="M710.992 91.008V88.368L718.56 78.226H721.618V88.148H723.818V91.008H721.618V94H718.362V91.008H710.992ZM718.45 87.312V82.78L714.534 88.148H718.384L718.45 87.312ZM725.551 94V90.788H729.203V94H725.551ZM731.357 93.296V90.37C731.958 90.6927 732.655 90.9493 733.447 91.14C734.239 91.316 734.994 91.404 735.713 91.404C736.754 91.404 737.553 91.1913 738.111 90.766C738.668 90.3407 738.947 89.732 738.947 88.94C738.947 88.192 738.727 87.6127 738.287 87.202C737.861 86.7913 737.231 86.586 736.395 86.586C735.632 86.586 734.884 86.7253 734.151 87.004L733.073 85.2L737.033 81.02H731.643V78.226H741.389V80.492L737.605 84.364C739.027 84.5253 740.12 85.024 740.883 85.86C741.66 86.6813 742.049 87.7153 742.049 88.962C742.049 90.062 741.799 91.0153 741.301 91.822C740.802 92.614 740.083 93.2227 739.145 93.648C738.221 94.0733 737.121 94.286 735.845 94.286C735.009 94.286 734.202 94.198 733.425 94.022C732.647 93.8607 731.958 93.6187 731.357 93.296Z" fill="white"/>
<path d="M439.444 306.286C437.435 306.286 435.909 305.582 434.868 304.174C433.827 302.766 433.306 300.713 433.306 298.014C433.306 292.631 435.352 289.94 439.444 289.94C443.536 289.94 445.582 292.631 445.582 298.014C445.582 300.713 445.061 302.766 444.02 304.174C442.979 305.582 441.453 306.286 439.444 306.286ZM439.444 303.492C440.368 303.492 441.05 303.045 441.49 302.15C441.93 301.255 442.15 299.877 442.15 298.014C442.15 296.181 441.93 294.846 441.49 294.01C441.065 293.159 440.383 292.734 439.444 292.734C438.505 292.734 437.816 293.159 437.376 294.01C436.951 294.846 436.738 296.181 436.738 298.014C436.738 299.877 436.958 301.255 437.398 302.15C437.838 303.045 438.52 303.492 439.444 303.492ZM447.341 306V302.788H450.993V306H447.341ZM464.861 301.556C464.861 303.037 464.333 304.196 463.277 305.032C462.236 305.868 460.776 306.286 458.899 306.286C457.036 306.286 455.577 305.868 454.521 305.032C453.465 304.196 452.937 303.037 452.937 301.556C452.937 300.676 453.179 299.891 453.663 299.202C454.162 298.513 454.829 297.992 455.665 297.64C454.125 296.819 453.355 295.675 453.355 294.208C453.355 292.859 453.839 291.81 454.807 291.062C455.775 290.314 457.139 289.94 458.899 289.94C460.659 289.94 462.023 290.314 462.991 291.062C463.959 291.81 464.443 292.859 464.443 294.208C464.443 295.675 463.673 296.819 462.133 297.64C462.969 297.992 463.629 298.513 464.113 299.202C464.612 299.891 464.861 300.676 464.861 301.556ZM458.899 296.584C460.454 296.247 461.231 295.521 461.231 294.406C461.231 293.189 460.454 292.58 458.899 292.58C457.344 292.58 456.567 293.189 456.567 294.406C456.567 295.521 457.344 296.247 458.899 296.584ZM458.899 298.718C457.08 299.055 456.171 299.928 456.171 301.336C456.171 302.055 456.413 302.619 456.897 303.03C457.381 303.441 458.048 303.646 458.899 303.646C459.764 303.646 460.432 303.441 460.901 303.03C461.385 302.619 461.627 302.055 461.627 301.336C461.627 299.928 460.718 299.055 458.899 298.718ZM469.666 306V294.34L466.014 295.572V293.548L470.678 290.226H473.12V306H469.666Z" fill="white"/>
<path d="M181.537 296V284.34L177.885 285.572V283.548L182.549 280.226H184.991V296H181.537Z" fill="white"/>
<path d="M148.622 401.964V404.296C148.006 404.619 147.317 404.861 146.554 405.022C145.792 405.198 144.978 405.286 144.112 405.286C141.648 405.286 139.756 404.56 138.436 403.108C137.131 401.656 136.478 399.559 136.478 396.816C136.478 395.129 136.786 393.685 137.402 392.482C138.033 391.279 138.928 390.355 140.086 389.71C141.26 389.05 142.646 388.72 144.244 388.72C144.948 388.72 145.645 388.801 146.334 388.962C147.024 389.123 147.618 389.351 148.116 389.644V391.954C147.354 391.646 146.686 391.426 146.114 391.294C145.542 391.162 144.978 391.096 144.42 391.096C142.778 391.096 141.509 391.602 140.614 392.614C139.72 393.611 139.272 395.012 139.272 396.816C139.272 398.767 139.712 400.27 140.592 401.326C141.487 402.367 142.763 402.888 144.42 402.888C145.066 402.888 145.718 402.815 146.378 402.668C147.053 402.521 147.801 402.287 148.622 401.964ZM151.016 405V389.006H156.494C160.336 389.006 162.258 390.759 162.258 394.264C162.258 397.769 160.336 399.522 156.494 399.522H153.744V405H151.016ZM155.922 391.228H153.744V397.3H155.922C157.183 397.3 158.092 397.065 158.65 396.596C159.222 396.112 159.508 395.335 159.508 394.264C159.508 393.179 159.222 392.401 158.65 391.932C158.092 391.463 157.183 391.228 155.922 391.228ZM167.191 404.89L163.143 393.428H165.915L169.193 403.196L171.899 393.428H174.561L171.283 404.406C170.931 405.565 170.52 406.511 170.051 407.244C169.582 407.977 169.002 408.542 168.313 408.938C167.624 409.349 166.758 409.657 165.717 409.862L165.145 407.662C166.142 407.413 166.89 407.09 167.389 406.694C167.888 406.298 168.276 405.697 168.555 404.89H167.191ZM177.148 401.238V395.518H175.146V394.176L177.214 393.384L178.116 390.172H179.832V393.428H182.318V395.518H179.832V401.216C179.832 401.832 179.972 402.279 180.25 402.558C180.529 402.822 180.94 402.954 181.482 402.954C181.644 402.954 181.812 402.954 181.988 402.954C182.179 402.939 182.333 402.925 182.45 402.91V405.022C182.157 405.066 181.886 405.095 181.636 405.11C181.402 405.125 181.138 405.132 180.844 405.132C179.598 405.132 178.666 404.817 178.05 404.186C177.449 403.555 177.148 402.573 177.148 401.238ZM184.829 405V388.478H187.513V394.88C187.968 394.337 188.496 393.919 189.097 393.626C189.713 393.333 190.402 393.186 191.165 393.186C192.5 393.186 193.519 393.589 194.223 394.396C194.927 395.188 195.279 396.347 195.279 397.872V405H192.595V397.96C192.595 396.259 191.869 395.408 190.417 395.408C189.786 395.408 189.207 395.599 188.679 395.98C188.166 396.361 187.777 396.875 187.513 397.52V405H184.829ZM203.25 405.242C201.476 405.242 200.09 404.714 199.092 403.658C198.11 402.602 197.618 401.121 197.618 399.214C197.618 397.307 198.11 395.826 199.092 394.77C200.09 393.714 201.476 393.186 203.25 393.186C205.04 393.186 206.426 393.714 207.408 394.77C208.391 395.826 208.882 397.307 208.882 399.214C208.882 401.121 208.391 402.602 207.408 403.658C206.426 404.714 205.04 405.242 203.25 405.242ZM203.25 403.152C205.201 403.152 206.176 401.839 206.176 399.214C206.176 396.589 205.201 395.276 203.25 395.276C201.3 395.276 200.324 396.589 200.324 399.214C200.324 401.839 201.3 403.152 203.25 403.152ZM211.298 405V393.428H213.08L213.476 395.298C213.989 394.623 214.59 394.103 215.28 393.736C215.984 393.369 216.768 393.186 217.634 393.186C218.968 393.186 219.988 393.589 220.692 394.396C221.396 395.188 221.748 396.347 221.748 397.872V405H219.064V397.96C219.064 396.259 218.338 395.408 216.886 395.408C216.255 395.408 215.676 395.599 215.148 395.98C214.634 396.361 214.246 396.875 213.982 397.52V405H211.298ZM159.467 427.424V425.516C159.971 425.78 160.529 425.984 161.141 426.128C161.753 426.272 162.365 426.344 162.977 426.344C163.925 426.344 164.657 426.128 165.173 425.696C165.689 425.264 165.947 424.664 165.947 423.896C165.947 423.224 165.743 422.69 165.335 422.294C164.927 421.898 164.345 421.7 163.589 421.7C163.241 421.7 162.911 421.73 162.599 421.79C162.287 421.85 161.969 421.94 161.645 422.06L160.907 420.836L164.615 416.93H159.647V415.094H167.459V416.534L163.967 420.17C165.239 420.206 166.229 420.566 166.937 421.25C167.645 421.922 167.999 422.81 167.999 423.914C167.999 425.258 167.561 426.314 166.685 427.082C165.821 427.85 164.621 428.234 163.085 428.234C162.401 428.234 161.747 428.162 161.123 428.018C160.499 427.886 159.947 427.688 159.467 427.424ZM169.57 428V425.732H172.144V428H169.57ZM174.83 428V417.83L171.824 419.018V417.686L175.46 415.094H177.062V428H174.83ZM184.183 428.234C182.575 428.234 181.351 427.664 180.511 426.524C179.683 425.384 179.269 423.71 179.269 421.502C179.269 417.074 180.907 414.86 184.183 414.86C187.459 414.86 189.097 417.074 189.097 421.502C189.097 423.71 188.677 425.384 187.837 426.524C187.009 427.664 185.791 428.234 184.183 428.234ZM184.183 426.38C185.095 426.38 185.767 425.978 186.199 425.174C186.643 424.37 186.865 423.146 186.865 421.502C186.865 419.858 186.649 418.652 186.217 417.884C185.785 417.104 185.107 416.714 184.183 416.714C183.271 416.714 182.593 417.104 182.149 417.884C181.717 418.652 181.501 419.858 181.501 421.502C181.501 423.146 181.717 424.37 182.149 425.174C182.593 425.978 183.271 426.38 184.183 426.38ZM190.629 428V425.732H193.203V428H190.629ZM204.359 424.4C204.359 425.6 203.939 426.542 203.099 427.226C202.271 427.898 201.113 428.234 199.625 428.234C198.137 428.234 196.973 427.898 196.133 427.226C195.305 426.542 194.891 425.6 194.891 424.4C194.891 423.644 195.107 422.978 195.539 422.402C195.971 421.826 196.553 421.4 197.285 421.124C195.917 420.476 195.233 419.522 195.233 418.262C195.233 417.182 195.617 416.348 196.385 415.76C197.153 415.16 198.233 414.86 199.625 414.86C201.017 414.86 202.097 415.16 202.865 415.76C203.633 416.348 204.017 417.182 204.017 418.262C204.017 419.522 203.333 420.476 201.965 421.124C202.697 421.4 203.279 421.826 203.711 422.402C204.143 422.978 204.359 423.644 204.359 424.4ZM199.625 420.404C201.149 420.068 201.911 419.396 201.911 418.388C201.911 417.212 201.149 416.624 199.625 416.624C198.101 416.624 197.339 417.212 197.339 418.388C197.339 419.396 198.101 420.068 199.625 420.404ZM199.625 421.862C197.885 422.15 197.015 422.954 197.015 424.274C197.015 424.97 197.243 425.51 197.699 425.894C198.155 426.278 198.797 426.47 199.625 426.47C200.453 426.47 201.095 426.278 201.551 425.894C202.007 425.51 202.235 424.97 202.235 424.274C202.235 422.954 201.365 422.15 199.625 421.862Z" fill="white"/>
<path d="M415.929 404.45V402.008C416.53 402.272 417.109 402.477 417.667 402.624C418.239 402.771 418.752 402.844 419.207 402.844C420.937 402.844 421.803 401.993 421.803 400.292V391.382L418.745 390.568V389.006H424.553V400.49C424.553 402.001 424.113 403.181 423.233 404.032C422.367 404.868 421.15 405.286 419.581 405.286C418.906 405.286 418.246 405.213 417.601 405.066C416.955 404.919 416.398 404.714 415.929 404.45ZM430.323 404.89L426.275 393.428H429.047L432.325 403.196L435.031 393.428H437.693L434.415 404.406C434.063 405.565 433.652 406.511 433.183 407.244C432.713 407.977 432.134 408.542 431.445 408.938C430.755 409.349 429.89 409.657 428.849 409.862L428.277 407.662C429.274 407.413 430.022 407.09 430.521 406.694C431.019 406.298 431.408 405.697 431.687 404.89H430.323ZM440.28 401.238V395.518H438.278V394.176L440.346 393.384L441.248 390.172H442.964V393.428H445.45V395.518H442.964V401.216C442.964 401.832 443.104 402.279 443.382 402.558C443.661 402.822 444.072 402.954 444.614 402.954C444.776 402.954 444.944 402.954 445.12 402.954C445.311 402.939 445.465 402.925 445.582 402.91V405.022C445.289 405.066 445.018 405.095 444.768 405.11C444.534 405.125 444.27 405.132 443.976 405.132C442.73 405.132 441.798 404.817 441.182 404.186C440.581 403.555 440.28 402.573 440.28 401.238ZM447.961 405V388.478H450.645V394.88C451.1 394.337 451.628 393.919 452.229 393.626C452.845 393.333 453.534 393.186 454.297 393.186C455.632 393.186 456.651 393.589 457.355 394.396C458.059 395.188 458.411 396.347 458.411 397.872V405H455.727V397.96C455.727 396.259 455.001 395.408 453.549 395.408C452.918 395.408 452.339 395.599 451.811 395.98C451.298 396.361 450.909 396.875 450.645 397.52V405H447.961ZM466.382 405.242C464.607 405.242 463.221 404.714 462.224 403.658C461.241 402.602 460.75 401.121 460.75 399.214C460.75 397.307 461.241 395.826 462.224 394.77C463.221 393.714 464.607 393.186 466.382 393.186C468.171 393.186 469.557 393.714 470.54 394.77C471.523 395.826 472.014 397.307 472.014 399.214C472.014 401.121 471.523 402.602 470.54 403.658C469.557 404.714 468.171 405.242 466.382 405.242ZM466.382 403.152C468.333 403.152 469.308 401.839 469.308 399.214C469.308 396.589 468.333 395.276 466.382 395.276C464.431 395.276 463.456 396.589 463.456 399.214C463.456 401.839 464.431 403.152 466.382 403.152ZM474.43 405V393.428H476.212L476.608 395.298C477.121 394.623 477.722 394.103 478.412 393.736C479.116 393.369 479.9 393.186 480.766 393.186C482.1 393.186 483.12 393.589 483.824 394.396C484.528 395.188 484.88 396.347 484.88 397.872V405H482.196V397.96C482.196 396.259 481.47 395.408 480.018 395.408C479.387 395.408 478.808 395.599 478.28 395.98C477.766 396.361 477.378 396.875 477.114 397.52V405H474.43ZM436.114 428V426.488L439.552 422.744C440.212 422.024 440.734 421.418 441.118 420.926C441.514 420.434 441.796 420.014 441.964 419.666C442.132 419.306 442.216 418.97 442.216 418.658C442.216 417.386 441.454 416.75 439.93 416.75C438.874 416.75 437.734 417.086 436.51 417.758V415.832C437.026 415.532 437.614 415.298 438.274 415.13C438.934 414.95 439.576 414.86 440.2 414.86C441.532 414.86 442.564 415.178 443.296 415.814C444.04 416.438 444.412 417.326 444.412 418.478C444.412 418.946 444.304 419.426 444.088 419.918C443.884 420.41 443.554 420.962 443.098 421.574C442.642 422.186 442.036 422.906 441.28 423.734L439.048 426.164H444.448V428H436.114ZM446.256 428V425.732H448.83V428H446.256ZM451.088 428L455.858 416.948H451.16L450.512 418.982H449.198V415.094H458.162V416.57L453.5 428H451.088ZM457.822 428V425.732H460.396V428H457.822ZM462.094 428V426.488L465.532 422.744C466.192 422.024 466.714 421.418 467.098 420.926C467.494 420.434 467.776 420.014 467.944 419.666C468.112 419.306 468.196 418.97 468.196 418.658C468.196 417.386 467.434 416.75 465.91 416.75C464.854 416.75 463.714 417.086 462.49 417.758V415.832C463.006 415.532 463.594 415.298 464.254 415.13C464.914 414.95 465.556 414.86 466.18 414.86C467.512 414.86 468.544 415.178 469.276 415.814C470.02 416.438 470.392 417.326 470.392 418.478C470.392 418.946 470.284 419.426 470.068 419.918C469.864 420.41 469.534 420.962 469.078 421.574C468.622 422.186 468.016 422.906 467.26 423.734L465.028 426.164H470.428V428H462.094Z" fill="white"/>
<path d="M656.866 405.286C654.52 405.286 652.716 404.567 651.454 403.13C650.193 401.693 649.562 399.647 649.562 396.992C649.562 394.352 650.193 392.313 651.454 390.876C652.73 389.439 654.534 388.72 656.866 388.72C659.198 388.72 660.995 389.439 662.256 390.876C663.532 392.313 664.17 394.352 664.17 396.992C664.17 399.647 663.54 401.693 662.278 403.13C661.017 404.567 659.213 405.286 656.866 405.286ZM656.866 402.932C659.873 402.932 661.376 400.952 661.376 396.992C661.376 395.041 660.995 393.567 660.232 392.57C659.47 391.573 658.348 391.074 656.866 391.074C655.385 391.074 654.263 391.573 653.5 392.57C652.738 393.567 652.356 395.041 652.356 396.992C652.356 400.952 653.86 402.932 656.866 402.932ZM666.782 405V393.428H668.564L668.982 395.342C669.349 394.726 669.811 394.249 670.368 393.912C670.926 393.56 671.578 393.384 672.326 393.384C672.605 393.384 672.862 393.406 673.096 393.45V395.848H672.458C671.652 395.848 670.992 396.075 670.478 396.53C669.965 396.97 669.628 397.557 669.466 398.29V405H666.782ZM682.163 405L681.789 403.284C681.363 403.915 680.828 404.406 680.183 404.758C679.537 405.095 678.826 405.264 678.049 405.264C676.861 405.264 675.915 404.934 675.211 404.274C674.521 403.614 674.177 402.719 674.177 401.59C674.177 400.387 674.617 399.441 675.497 398.752C676.377 398.063 677.579 397.718 679.105 397.718H681.283V397.168C681.283 396.435 681.129 395.936 680.821 395.672C680.513 395.408 679.97 395.276 679.193 395.276C678.034 395.276 676.714 395.547 675.233 396.09V394C675.819 393.751 676.487 393.553 677.235 393.406C677.983 393.259 678.716 393.186 679.435 393.186C682.441 393.186 683.945 394.506 683.945 397.146V405H682.163ZM678.599 403.24C679.141 403.24 679.655 403.101 680.139 402.822C680.623 402.529 681.019 402.125 681.327 401.612V399.434H679.413C677.638 399.434 676.751 400.079 676.751 401.37C676.751 401.957 676.912 402.419 677.235 402.756C677.557 403.079 678.012 403.24 678.599 403.24ZM695.339 402.382V404.56C694.884 404.78 694.349 404.949 693.733 405.066C693.117 405.198 692.471 405.264 691.797 405.264C688.115 405.264 686.275 403.203 686.275 399.082C686.275 397.205 686.766 395.753 687.749 394.726C688.746 393.699 690.147 393.186 691.951 393.186C693.109 393.186 694.129 393.384 695.009 393.78V395.936C694.173 395.511 693.322 395.298 692.457 395.298C690.139 395.298 688.981 396.559 688.981 399.082C688.981 400.461 689.245 401.48 689.773 402.14C690.315 402.8 691.137 403.13 692.237 403.13C693.117 403.13 694.151 402.881 695.339 402.382ZM697.634 405V390.436L696.468 389.578V388.478H700.318V405H697.634ZM712.566 404.45C712.082 404.699 711.495 404.897 710.806 405.044C710.116 405.191 709.383 405.264 708.606 405.264C706.699 405.264 705.24 404.743 704.228 403.702C703.23 402.661 702.732 401.143 702.732 399.148C702.732 397.241 703.208 395.775 704.162 394.748C705.13 393.707 706.486 393.186 708.232 393.186C709.845 393.186 711.062 393.648 711.884 394.572C712.705 395.481 713.116 396.787 713.116 398.488V399.984H705.394C705.496 401.084 705.826 401.883 706.384 402.382C706.956 402.881 707.784 403.13 708.87 403.13C709.515 403.13 710.124 403.071 710.696 402.954C711.268 402.822 711.891 402.617 712.566 402.338V404.45ZM708.21 395.21C706.45 395.21 705.504 396.171 705.372 398.092H710.652C710.637 396.171 709.823 395.21 708.21 395.21ZM728.008 398.136V396.552H733.64V404.208C732.922 404.56 732.108 404.824 731.198 405C730.289 405.191 729.358 405.286 728.404 405.286C725.779 405.286 723.784 404.575 722.42 403.152C721.071 401.715 720.396 399.603 720.396 396.816C720.396 395.115 720.726 393.663 721.386 392.46C722.046 391.257 722.992 390.333 724.224 389.688C725.471 389.043 726.967 388.72 728.712 388.72C729.431 388.72 730.12 388.786 730.78 388.918C731.455 389.035 732.071 389.219 732.628 389.468V391.8C731.895 391.551 731.228 391.375 730.626 391.272C730.025 391.155 729.424 391.096 728.822 391.096C727.018 391.096 725.625 391.595 724.642 392.592C723.674 393.575 723.19 394.983 723.19 396.816C723.19 400.864 724.95 402.888 728.47 402.888C729.321 402.888 730.179 402.8 731.044 402.624V398.95L728.008 398.136ZM736.263 405V393.428H738.045L738.463 395.342C738.829 394.726 739.291 394.249 739.849 393.912C740.406 393.56 741.059 393.384 741.807 393.384C742.085 393.384 742.342 393.406 742.577 393.45V395.848H741.939C741.132 395.848 740.472 396.075 739.959 396.53C739.445 396.97 739.108 397.557 738.947 398.29V405H736.263ZM751.643 405L751.269 403.284C750.844 403.915 750.309 404.406 749.663 404.758C749.018 405.095 748.307 405.264 747.529 405.264C746.341 405.264 745.395 404.934 744.691 404.274C744.002 403.614 743.657 402.719 743.657 401.59C743.657 400.387 744.097 399.441 744.977 398.752C745.857 398.063 747.06 397.718 748.585 397.718H750.763V397.168C750.763 396.435 750.609 395.936 750.301 395.672C749.993 395.408 749.451 395.276 748.673 395.276C747.515 395.276 746.195 395.547 744.713 396.09V394C745.3 393.751 745.967 393.553 746.715 393.406C747.463 393.259 748.197 393.186 748.915 393.186C751.922 393.186 753.425 394.506 753.425 397.146V405H751.643ZM748.079 403.24C748.622 403.24 749.135 403.101 749.619 402.822C750.103 402.529 750.499 402.125 750.807 401.612V399.434H748.893C747.119 399.434 746.231 400.079 746.231 401.37C746.231 401.957 746.393 402.419 746.715 402.756C747.038 403.079 747.493 403.24 748.079 403.24ZM763.653 405L763.279 403.284C762.854 403.915 762.318 404.406 761.673 404.758C761.028 405.095 760.316 405.264 759.539 405.264C758.351 405.264 757.405 404.934 756.701 404.274C756.012 403.614 755.667 402.719 755.667 401.59C755.667 400.387 756.107 399.441 756.987 398.752C757.867 398.063 759.07 397.718 760.595 397.718H762.773V397.168C762.773 396.435 762.619 395.936 762.311 395.672C762.003 395.408 761.46 395.276 760.683 395.276C759.524 395.276 758.204 395.547 756.723 396.09V394C757.31 393.751 757.977 393.553 758.725 393.406C759.473 393.259 760.206 393.186 760.925 393.186C763.932 393.186 765.435 394.506 765.435 397.146V405H763.653ZM760.089 403.24C760.632 403.24 761.145 403.101 761.629 402.822C762.113 402.529 762.509 402.125 762.817 401.612V399.434H760.903C759.128 399.434 758.241 400.079 758.241 401.37C758.241 401.957 758.402 402.419 758.725 402.756C759.048 403.079 759.502 403.24 760.089 403.24ZM768.425 405V390.436L767.259 389.578V388.478H771.109V405H768.425ZM774.315 405V389.006H779.793C783.635 389.006 785.557 390.759 785.557 394.264C785.557 397.769 783.635 399.522 779.793 399.522H777.043V405H774.315ZM779.221 391.228H777.043V397.3H779.221C780.482 397.3 781.391 397.065 781.949 396.596C782.521 396.112 782.807 395.335 782.807 394.264C782.807 393.179 782.521 392.401 781.949 391.932C781.391 391.463 780.482 391.228 779.221 391.228ZM790.49 404.89L786.442 393.428H789.214L792.492 403.196L795.198 393.428H797.86L794.582 404.406C794.23 405.565 793.819 406.511 793.35 407.244C792.88 407.977 792.301 408.542 791.612 408.938C790.922 409.349 790.057 409.657 789.016 409.862L788.444 407.662C789.441 407.413 790.189 407.09 790.688 406.694C791.186 406.298 791.575 405.697 791.854 404.89H790.49ZM711.716 428V426.488L715.154 422.744C715.814 422.024 716.336 421.418 716.72 420.926C717.116 420.434 717.398 420.014 717.566 419.666C717.734 419.306 717.818 418.97 717.818 418.658C717.818 417.386 717.056 416.75 715.532 416.75C714.476 416.75 713.336 417.086 712.112 417.758V415.832C712.628 415.532 713.216 415.298 713.876 415.13C714.536 414.95 715.178 414.86 715.802 414.86C717.134 414.86 718.166 415.178 718.898 415.814C719.642 416.438 720.014 417.326 720.014 418.478C720.014 418.946 719.906 419.426 719.69 419.918C719.486 420.41 719.156 420.962 718.7 421.574C718.244 422.186 717.638 422.906 716.882 423.734L714.65 426.164H720.05V428H711.716ZM721.634 427.424V425.516C722.138 425.78 722.696 425.984 723.308 426.128C723.92 426.272 724.532 426.344 725.144 426.344C726.092 426.344 726.824 426.128 727.34 425.696C727.856 425.264 728.114 424.664 728.114 423.896C728.114 423.224 727.91 422.69 727.502 422.294C727.094 421.898 726.512 421.7 725.756 421.7C725.408 421.7 725.078 421.73 724.766 421.79C724.454 421.85 724.136 421.94 723.812 422.06L723.074 420.836L726.782 416.93H721.814V415.094H729.626V416.534L726.134 420.17C727.406 420.206 728.396 420.566 729.104 421.25C729.812 421.922 730.166 422.81 730.166 423.914C730.166 425.258 729.728 426.314 728.852 427.082C727.988 427.85 726.788 428.234 725.252 428.234C724.568 428.234 723.914 428.162 723.29 428.018C722.666 427.886 722.114 427.688 721.634 427.424ZM731.737 428V425.732H734.311V428H731.737ZM736.997 428V417.83L733.991 419.018V417.686L737.627 415.094H739.229V428H736.997Z" fill="white"/>
<defs>
<linearGradient id="paint0_linear_1423_4255" x1="757.5" y1="-7.38983" x2="725.282" y2="108.961" gradientUnits="userSpaceOnUse">
<stop offset="0.393507" stop-color="#2A4662" stop-opacity="0"/>
<stop offset="0.947917" stop-color="#2A4662"/>
</linearGradient>
<linearGradient id="paint1_linear_1423_4255" x1="485.5" y1="218.61" x2="453.282" y2="334.961" gradientUnits="userSpaceOnUse">
<stop offset="0.389959" stop-color="#2A4662" stop-opacity="0"/>
<stop offset="0.947917" stop-color="#2A4662"/>
</linearGradient>
<linearGradient id="paint2_linear_1423_4255" x1="213.5" y1="208.61" x2="181.282" y2="324.961" gradientUnits="userSpaceOnUse">
<stop offset="0.393306" stop-color="#2A4662" stop-opacity="0"/>
<stop offset="0.947917" stop-color="#2A4662"/>
</linearGradient>
</defs>
</svg>
