<svg width="415" height="415" viewBox="0 0 415 415" fill="none" xmlns="http://www.w3.org/2000/svg">
<path opacity="0.9" d="M206.168 0.00273255C192.466 0.066042 179.381 1.22805 167.868 3.25392C133.951 9.21233 127.793 21.6838 127.793 44.6833V75.0587H207.943V85.1838H127.793H97.713C74.4191 85.1838 54.0223 99.1062 47.6424 125.591C40.2833 155.95 39.9569 174.894 47.6424 206.592C53.3398 230.188 66.9459 247 90.2398 247H117.797V210.587C117.797 184.28 140.687 161.076 167.868 161.076H247.925C270.21 161.076 288 142.83 288 120.575V44.6833C288 23.084 269.676 6.85875 247.925 3.25392C234.156 0.974818 219.87 -0.0605769 206.168 0.00273255ZM162.823 24.4331C171.102 24.4331 177.863 31.2658 177.863 39.6672C177.863 48.0388 171.102 54.8084 162.823 54.8084C154.515 54.8084 147.784 48.0388 147.784 39.6672C147.784 31.2658 154.515 24.4331 162.823 24.4331Z" fill="url(#paint0_linear)"/>
<path opacity="0.9" d="M297.547 85V120.407C297.547 147.857 274.106 170.961 247.375 170.961H167.156C145.183 170.961 127 189.632 127 211.479V287.403C127 309.011 145.926 321.721 167.156 327.921C192.579 335.342 216.958 336.683 247.375 327.921C267.594 322.109 287.532 310.412 287.532 287.403V257.015H207.313V246.885H287.532H327.688C351.029 246.885 359.727 230.721 367.844 206.46C376.229 181.484 375.873 157.465 367.844 125.425C362.076 102.356 351.059 85 327.688 85H297.547ZM252.43 277.273C260.756 277.273 267.5 284.046 267.5 292.421C267.5 300.826 260.755 307.662 252.43 307.662C244.134 307.662 237.36 300.826 237.36 292.421C237.36 284.046 244.134 277.273 252.43 277.273Z" fill="url(#paint1_linear)"/>
<path opacity="0.9" fill-rule="evenodd" clip-rule="evenodd" d="M167.868 3.25392C179.381 1.22806 192.466 0.066042 206.168 0.00273255C219.87 -0.0605769 234.156 0.974818 247.925 3.25392C269.676 6.85875 288 23.084 288 44.6833V120.575C288 142.83 270.21 161.076 247.925 161.076H167.868C140.687 161.076 117.797 184.28 117.797 210.587V247H90.2398C66.9459 247 53.3398 230.188 47.6424 206.592C39.9569 174.894 40.2833 155.95 47.6424 125.591C54.0223 99.1062 74.4191 85.1838 97.713 85.1838H127.793H207.943V75.0587H127.793V44.6833C127.793 21.6838 133.951 9.21233 167.868 3.25392ZM177.863 39.6672C177.863 31.2658 171.102 24.4331 162.823 24.4331C154.515 24.4331 147.784 31.2658 147.784 39.6672C147.784 48.0388 154.515 54.8084 162.823 54.8084C171.102 54.8084 177.863 48.0388 177.863 39.6672ZM297.547 120.407V85H327.688C351.059 85 362.076 102.356 367.844 125.425C375.873 157.465 376.229 181.484 367.844 206.46C359.727 230.721 351.029 246.885 327.688 246.885H287.532H207.313V257.015H287.532V287.403C287.532 310.412 267.594 322.109 247.375 327.921C216.958 336.683 192.579 335.342 167.156 327.921C145.926 321.721 127 309.011 127 287.403V211.479C127 189.632 145.183 170.961 167.156 170.961H247.375C274.106 170.961 297.547 147.857 297.547 120.407ZM267.5 292.421C267.5 284.046 260.756 277.273 252.43 277.273C244.134 277.273 237.36 284.046 237.36 292.421C237.36 300.826 244.134 307.662 252.43 307.662C260.756 307.662 267.5 300.826 267.5 292.421Z" fill="#D3EFF5" fill-opacity="0.6"/>
<path opacity="0.44382" d="M315 394.5C315 397.192 312.219 399.858 306.817 402.345C301.415 404.832 293.496 407.092 283.514 408.996C273.532 410.899 261.681 412.409 248.638 413.44C235.596 414.47 221.617 415 207.5 415C193.383 415 179.404 414.47 166.362 413.44C153.319 412.409 141.468 410.899 131.486 408.996C121.504 407.092 113.585 404.832 108.183 402.345C102.781 399.858 100 397.192 100 394.5C100 391.808 102.781 389.142 108.183 386.655C113.585 384.168 121.504 381.908 131.486 380.004C141.468 378.101 153.319 376.591 166.362 375.56C179.404 374.53 193.383 374 207.5 374C221.617 374 235.596 374.53 248.638 375.56C261.681 376.591 273.532 378.101 283.514 380.004C293.496 381.908 301.415 384.168 306.817 386.655C312.219 389.142 315 391.808 315 394.5V394.5Z" fill="url(#paint2_radial)" fill-opacity="0.5"/>
<defs>
<linearGradient id="paint0_linear" x1="42" y1="2.25969e-07" x2="225.942" y2="157.629" gradientUnits="userSpaceOnUse">
<stop stop-color="white"/>
<stop offset="1" stop-color="#94CFDC"/>
</linearGradient>
<linearGradient id="paint1_linear" x1="250.5" y1="289.866" x2="184.695" y2="196.985" gradientUnits="userSpaceOnUse">
<stop stop-color="#D1EDF3"/>
<stop offset="1" stop-color="#94CFDC"/>
</linearGradient>
<radialGradient id="paint2_radial" cx="0" cy="0" r="1" gradientUnits="userSpaceOnUse" gradientTransform="translate(207.5 394.5) rotate(-90) scale(20.5 91.6232)">
<stop stop-color="#08677D"/>
<stop offset="1" stop-color="#81A7B0" stop-opacity="0"/>
</radialGradient>
</defs>
</svg>
