<svg width="112" height="112" viewBox="0 0 112 112" fill="none" xmlns="http://www.w3.org/2000/svg">
<path d="M112 3.28125C112 1.46912 110.531 0 108.719 0H3.28125C1.46912 0 0 1.46912 0 3.28125V108.719C0 110.531 1.46912 112 3.28125 112H108.719C110.531 112 112 110.531 112 108.719V3.28125ZM6.5625 6.5625H105.438V26.25H6.5625V6.5625ZM6.5625 105.438V32.8125H105.438V105.438H6.5625Z" fill="#003C4A"/>
<path d="M16.625 19.6875C18.4372 19.6875 19.9062 18.2184 19.9062 16.4062C19.9062 14.5941 18.4372 13.125 16.625 13.125C14.8128 13.125 13.3438 14.5941 13.3438 16.4062C13.3438 18.2184 14.8128 19.6875 16.625 19.6875Z" fill="#003C4A"/>
<path d="M29.75 19.6875C31.5622 19.6875 33.0312 18.2184 33.0312 16.4062C33.0312 14.5941 31.5622 13.125 29.75 13.125C27.9378 13.125 26.4688 14.5941 26.4688 16.4062C26.4688 18.2184 27.9378 19.6875 29.75 19.6875Z" fill="#003C4A"/>
<path d="M42.875 19.6875C44.6872 19.6875 46.1562 18.2184 46.1562 16.4062C46.1562 14.5941 44.6872 13.125 42.875 13.125C41.0628 13.125 39.5938 14.5941 39.5938 16.4062C39.5938 18.2184 41.0628 19.6875 42.875 19.6875Z" fill="#003C4A"/>
<path d="M65.8438 16.4062C65.8438 18.2184 67.3129 19.6875 69.125 19.6875H95.375C97.1871 19.6875 98.6562 18.2184 98.6562 16.4062C98.6562 14.5941 97.1871 13.125 95.375 13.125H69.125C67.3129 13.125 65.8438 14.5941 65.8438 16.4062Z" fill="#003C4A"/>
<path d="M95.375 46.1562H85.5312V42.875C85.5312 41.0629 84.0621 39.5938 82.25 39.5938C80.4379 39.5938 78.9688 41.0629 78.9688 42.875V46.1562H36.3125C34.5004 46.1562 33.0312 47.6254 33.0312 49.4375C33.0312 51.2496 34.5004 52.7188 36.3125 52.7188H78.9688V56C78.9688 57.8121 80.4379 59.2812 82.25 59.2812C84.0621 59.2812 85.5312 57.8121 85.5312 56V52.7188H95.375C97.1871 52.7188 98.6562 51.2496 98.6562 49.4375C98.6562 47.6254 97.1871 46.1562 95.375 46.1562Z" fill="#003C4A"/>
<path d="M98.6562 88.8125C98.6562 87.0004 97.1871 85.5312 95.375 85.5312H85.5312V82.25C85.5312 80.4379 84.0621 78.9688 82.25 78.9688C80.4379 78.9688 78.9688 80.4379 78.9688 82.25V85.5312H36.3125C34.5004 85.5312 33.0312 87.0004 33.0312 88.8125C33.0312 90.6246 34.5004 92.0938 36.3125 92.0938H78.9688V95.375C78.9688 97.1871 80.4379 98.6562 82.25 98.6562C84.0621 98.6562 85.5312 97.1871 85.5312 95.375V92.0938H95.375C97.1871 92.0938 98.6562 90.6246 98.6562 88.8125Z" fill="#003C4A"/>
<path d="M98.6562 69.125C98.6562 67.3129 97.1871 65.8438 95.375 65.8438H59.2812V62.5625C59.2812 60.7504 57.8121 59.2812 56 59.2812C54.1879 59.2812 52.7188 60.7504 52.7188 62.5625V65.8438H36.3125C34.5004 65.8438 33.0312 67.3129 33.0312 69.125C33.0312 70.9371 34.5004 72.4062 36.3125 72.4062H52.7188V75.6875C52.7188 77.4996 54.1879 78.9688 56 78.9688C57.8121 78.9688 59.2812 77.4996 59.2812 75.6875V72.4062H95.375C97.1871 72.4062 98.6562 70.9371 98.6562 69.125Z" fill="#003C4A"/>
<path d="M23.1875 46.1562H16.625C14.8129 46.1562 13.3438 47.6254 13.3438 49.4375C13.3438 51.2496 14.8129 52.7188 16.625 52.7188H23.1875C24.9996 52.7188 26.4688 51.2496 26.4688 49.4375C26.4688 47.6254 24.9996 46.1562 23.1875 46.1562Z" fill="#003C4A"/>
<path d="M26.4688 69.125C26.4688 67.3129 24.9996 65.8438 23.1875 65.8438H16.625C14.8129 65.8438 13.3438 67.3129 13.3438 69.125C13.3438 70.9371 14.8129 72.4062 16.625 72.4062H23.1875C24.9996 72.4062 26.4688 70.9371 26.4688 69.125Z" fill="#003C4A"/>
<path d="M23.1875 85.5312H16.625C14.8129 85.5312 13.3438 87.0004 13.3438 88.8125C13.3438 90.6246 14.8129 92.0938 16.625 92.0938H23.1875C24.9996 92.0938 26.4688 90.6246 26.4688 88.8125C26.4688 87.0004 24.9996 85.5312 23.1875 85.5312Z" fill="#003C4A"/>
</svg>
