<svg width="190" height="53" viewBox="0 0 190 53" fill="none" xmlns="http://www.w3.org/2000/svg">
<g clip-path="url(#clip0_2202_3660)">
<path d="M102.389 38.0725V49.5331C101.003 50.566 99.4492 51.3525 97.7962 51.858C96.1001 52.3581 94.3394 52.6045 92.5712 52.5892C90.4305 52.6215 88.3023 52.2566 86.2946 51.513C84.5125 50.8394 82.8858 49.8109 81.5132 48.4897C80.1818 47.1932 79.1378 45.6314 78.4489 43.9055C77.7183 42.0542 77.3529 40.0791 77.3727 38.089C77.3495 36.0863 77.7006 34.0969 78.4078 32.2232C79.7119 28.7298 82.4658 25.9729 85.9578 24.665C87.914 23.9332 89.9899 23.5738 92.0783 23.6052C93.1577 23.5992 94.2355 23.6899 95.2987 23.8763C96.247 24.0478 97.1788 24.3007 98.0837 24.6321C98.903 24.9377 99.6878 25.3287 100.425 25.7987C101.123 26.2523 101.78 26.7664 102.389 27.335L100.877 29.7257C100.682 30.0758 100.348 30.3266 99.9569 30.4158C99.5253 30.4906 99.0817 30.3901 98.7246 30.1364L97.4594 29.3888C97.001 29.129 96.5197 28.9117 96.0217 28.7398C95.4399 28.5457 94.8438 28.3974 94.2389 28.2962C93.4847 28.1665 92.7203 28.106 91.955 28.1154C90.6583 28.0976 89.3709 28.3378 88.1677 28.822C87.0644 29.2701 86.076 29.9609 85.2759 30.843C84.4523 31.7569 83.8258 32.8309 83.4356 33.9977C82.9863 35.3198 82.7668 36.7091 82.7866 38.1054C82.7617 39.5812 82.9981 41.0497 83.4849 42.4431C83.9025 43.6473 84.5687 44.7501 85.4402 45.68C86.2903 46.556 87.3224 47.2347 88.4635 47.6682C90.6378 48.4538 92.9957 48.5796 95.2412 48.0296C96.072 47.8057 96.8806 47.506 97.6565 47.1342V42.0324H94.0828C93.7806 42.0575 93.4819 41.953 93.2613 41.7448C93.0725 41.5622 92.9684 41.3091 92.9737 41.0465V38.0725H102.389ZM110.99 35.6654C111.527 34.574 112.289 33.6082 113.225 32.8311C114.092 32.1422 115.174 31.7789 116.281 31.8042C117.072 31.7623 117.855 31.9754 118.516 32.4121L118.203 36.0351C118.163 36.2265 118.066 36.4012 117.924 36.5363C117.777 36.6388 117.602 36.6907 117.423 36.6841C117.13 36.6743 116.839 36.6413 116.552 36.5855C116.178 36.5208 115.798 36.4879 115.418 36.487C114.932 36.4784 114.448 36.5563 113.989 36.717C113.575 36.873 113.193 37.1042 112.863 37.3989C112.518 37.7081 112.221 38.0682 111.984 38.4669C111.709 38.9237 111.47 39.4017 111.269 39.8964V52.277H106.496V32.1739H109.331C109.698 32.1379 110.067 32.2308 110.374 32.4368C110.61 32.7006 110.749 33.0366 110.768 33.3897L110.99 35.6654ZM135.645 36.487C135.336 35.5719 134.837 34.7322 134.182 34.0223C133.529 33.3096 132.727 32.7488 131.833 32.3793C130.83 31.9805 129.757 31.785 128.678 31.8042C125.587 31.736 122.59 32.8733 120.323 34.9753L121.276 36.5198C121.422 36.7634 121.614 36.9757 121.843 37.1442C122.093 37.3248 122.397 37.4172 122.705 37.4071C123.08 37.4124 123.449 37.3158 123.773 37.1278L124.841 36.5116C125.272 36.263 125.726 36.0567 126.197 35.8954C126.829 35.6977 127.49 35.6061 128.152 35.6243C129.076 35.5692 129.978 35.9238 130.617 36.5938C131.259 37.452 131.566 38.5155 131.479 39.5842V40.7672C130.104 40.7858 128.732 40.8984 127.372 41.104C126.309 41.2622 125.262 41.5095 124.242 41.8434C123.444 42.0922 122.684 42.4487 121.982 42.9032C121.421 43.2572 120.914 43.6918 120.479 44.193C120.116 44.6153 119.837 45.1034 119.657 45.6307C119.489 46.1198 119.403 46.6334 119.403 47.1506C119.385 47.9626 119.53 48.77 119.83 49.5248C120.099 50.1775 120.515 50.7594 121.046 51.2254C121.589 51.6966 122.224 52.0492 122.911 52.2606C123.673 52.4903 124.465 52.6038 125.26 52.5974C125.922 52.6035 126.583 52.5429 127.232 52.4167C127.797 52.2922 128.347 52.1105 128.875 51.8745C129.403 51.6338 129.907 51.3421 130.379 51.0036C130.9 50.6302 131.399 50.227 131.874 49.796L132.301 51.2501C132.39 51.5876 132.601 51.8802 132.893 52.0716C133.22 52.227 133.582 52.2976 133.944 52.277H136.146V39.6252C136.155 38.5585 135.986 37.4978 135.645 36.487ZM131.414 47.0766C130.805 47.743 130.085 48.2989 129.286 48.7197C128.48 49.0977 127.597 49.2834 126.706 49.2619C126.01 49.2954 125.321 49.1023 124.743 48.7115C123.903 47.9314 123.741 46.663 124.357 45.6964C124.673 45.2705 125.099 44.9383 125.589 44.7353C126.32 44.4103 127.091 44.1837 127.881 44.0616C129.049 43.858 130.229 43.7345 131.414 43.6919V47.0766ZM153.3 23.1615V33.7676C152.677 33.1701 151.954 32.6863 151.164 32.3382C150.25 31.964 149.267 31.7849 148.28 31.8124C147.044 31.8042 145.823 32.0855 144.715 32.6339C143.658 33.1638 142.73 33.918 141.995 34.8439C141.212 35.8205 140.618 36.935 140.245 38.13C139.831 39.4765 139.626 40.8785 139.637 42.287C139.617 43.7673 139.799 45.2434 140.18 46.6741C140.487 47.8197 141.005 48.8979 141.708 49.8534C142.96 51.5676 144.966 52.5664 147.089 52.5317C148.363 52.5729 149.626 52.2902 150.761 51.7102C151.818 51.1309 152.764 50.3688 153.554 49.4591L153.965 51.398C154.094 51.9535 154.613 52.3287 155.181 52.277H158.139V23.1533L153.3 23.1615ZM153.324 46.3208C152.765 47.0307 152.084 47.6345 151.312 48.1036C150.527 48.5422 149.638 48.7581 148.74 48.728C148.156 48.7379 147.576 48.6231 147.039 48.3911C146.511 48.1473 146.061 47.7602 145.741 47.2738C145.346 46.6624 145.067 45.9826 144.92 45.2692C144.716 44.2887 144.622 43.2884 144.641 42.287C144.623 41.2668 144.733 40.2483 144.969 39.2556C145.147 38.4951 145.474 37.7775 145.93 37.1442C146.33 36.6058 146.858 36.1764 147.467 35.8954C148.089 35.6155 148.765 35.4752 149.447 35.4847C150.163 35.4812 150.872 35.6209 151.533 35.8954C152.234 36.2184 152.847 36.7026 153.324 37.3085V46.3208ZM167.841 23.1615V52.277H163.002V23.1615H167.841ZM187.443 47.0684C187.115 47.0771 186.795 47.1705 186.515 47.3395C186.219 47.5203 185.824 47.7257 185.397 47.9475C184.92 48.1919 184.422 48.3953 183.91 48.5554C183.252 48.7485 182.567 48.8399 181.881 48.8265C181.15 48.8384 180.423 48.7159 179.737 48.4651C179.114 48.2291 178.552 47.8556 178.094 47.3724C177.592 46.8349 177.206 46.2001 176.96 45.5075C176.646 44.6466 176.461 43.7442 176.41 42.8293L188.848 42.8211C189.195 42.866 189.54 42.7218 189.751 42.4432C189.949 41.9767 190.031 41.4693 189.99 40.9644C190.012 39.645 189.789 38.3331 189.332 37.0949C188.936 36.0244 188.317 35.05 187.517 34.2359C186.737 33.4504 185.795 32.8448 184.756 32.4614C183.634 32.045 182.445 31.8389 181.248 31.8535C179.856 31.8456 178.477 32.1253 177.198 32.675C176.052 33.1674 175.02 33.8919 174.167 34.8028C173.325 35.7162 172.674 36.7889 172.253 37.9575C171.803 39.1977 171.578 40.5079 171.587 41.827C171.557 43.4132 171.816 44.9917 172.351 46.4851C172.81 47.7403 173.523 48.8871 174.446 49.8535C175.331 50.7569 176.402 51.4576 177.584 51.9073C178.83 52.3829 180.154 52.6198 181.487 52.6056C182.215 52.6051 182.943 52.5529 183.664 52.4495C184.419 52.3428 185.162 52.1612 185.882 51.9073C186.615 51.6499 187.315 51.308 187.969 50.8886C188.646 50.4589 189.253 49.9268 189.768 49.3112L188.347 47.5203C188.15 47.2164 187.804 47.0433 187.443 47.0684ZM178.028 36.5198C178.917 35.6947 180.103 35.265 181.314 35.3286C181.962 35.3165 182.606 35.4396 183.204 35.6901C183.721 35.9136 184.179 36.2538 184.543 36.6841C184.91 37.1096 185.19 37.6039 185.364 38.1383C185.544 38.7128 185.635 39.311 185.636 39.9128H176.492C176.621 38.6448 177.16 37.4536 178.028 36.5198Z" fill="white"/>
<path d="M67.2759 3.3045C62.9774 -0.997401 56.0412 -1.11373 51.6009 3.04164C51.3871 3.23833 51.2651 3.5152 51.264 3.80565C51.258 4.09738 51.3707 4.37903 51.5762 4.58613L52.9975 6.00739C53.3763 6.3846 53.9745 6.4266 54.4023 6.10597C55.5167 5.26499 56.8757 4.81198 58.2718 4.81615C61.8426 4.81609 64.7374 7.71076 64.7375 11.2816C64.7375 12.9944 64.0579 14.6372 62.8478 15.8495C53.9176 24.8289 41.9313 -0.260969 14.8122 12.6455C12.9687 13.5018 12.1684 15.6904 13.0247 17.5339C13.0689 17.6289 13.117 17.7221 13.1691 17.813L17.819 25.8559C18.8286 27.5971 21.0476 28.2076 22.8058 27.2279L22.9208 27.1621L22.8305 27.2279L24.8925 26.0695C27.1927 24.6449 29.3668 23.026 31.3909 21.2306C31.8023 20.8469 32.4337 20.8259 32.8697 21.1813C33.3234 21.551 33.3915 22.2186 33.0218 22.6723C32.9764 22.728 32.9254 22.779 32.8697 22.8244C30.7576 24.7265 28.4843 26.4418 26.0755 27.9508L26.0016 27.9919L23.9395 29.142C23.0703 29.6346 22.0878 29.8923 21.0888 29.8896C18.9817 29.8948 17.0314 28.7773 15.9706 26.9567L11.5671 19.3657C3.12166 25.3301 -2.00478 36.8234 0.747396 51.3648C0.845936 51.8717 1.29073 52.2372 1.80719 52.2356H6.81036C7.36494 52.2568 7.84335 51.8498 7.91125 51.299C8.43555 47.2767 12.1213 44.4411 16.1436 44.9654C19.4468 45.396 22.0466 47.9958 22.4772 51.299C22.5427 51.8277 22.9878 52.2273 23.5205 52.2356H28.4005C28.9412 52.236 29.3983 51.8352 29.4685 51.299C29.9748 47.279 33.6441 44.4306 37.6642 44.9369C40.989 45.3557 43.6075 47.9742 44.0263 51.299C44.0926 51.8339 44.5471 52.2356 45.0861 52.2356H49.9085C50.492 52.2357 50.9675 51.7675 50.9765 51.184C51.0915 44.3817 52.9236 36.5688 58.1568 32.6582C76.2225 19.1192 71.4658 7.51082 67.2759 3.3045ZM48.8158 23.7856V23.7774L45.3654 22.0439C45.3609 20.8461 46.3283 19.8714 47.5262 19.867C48.724 19.8626 49.6986 20.83 49.7031 22.0278C49.7056 22.722 49.3758 23.3754 48.8158 23.7856Z" fill="url(#paint0_linear_2202_3660)"/>
</g>
<defs>
<linearGradient id="paint0_linear_2202_3660" x1="14.0489" y1="4.49504" x2="52.9773" y2="49.21" gradientUnits="userSpaceOnUse">
<stop stop-color="#34A8D5"/>
<stop offset="1" stop-color="#7BCBB6"/>
</linearGradient>
<clipPath id="clip0_2202_3660">
<rect width="190" height="52.6059" fill="white"/>
</clipPath>
</defs>
</svg>
