<svg width="98" height="98" viewBox="0 0 98 98" fill="none" xmlns="http://www.w3.org/2000/svg">
<rect width="98" height="98" rx="4" fill="#F29111"/>
<path d="M30.612 84.514V83.002C31.068 83.218 31.548 83.392 32.052 83.524C32.556 83.656 33.006 83.722 33.402 83.722C34.926 83.722 35.688 82.954 35.688 81.418V73.444L33.078 72.904V71.914H37.362V81.508C37.362 82.66 37.026 83.566 36.354 84.226C35.694 84.886 34.764 85.216 33.564 85.216C33.024 85.216 32.484 85.15 31.944 85.018C31.404 84.886 30.96 84.718 30.612 84.514ZM45.8664 85L45.5964 83.488C44.8284 84.628 43.7844 85.198 42.4644 85.198C41.5164 85.198 40.7544 84.934 40.1784 84.406C39.6144 83.866 39.3324 83.152 39.3324 82.264C39.3324 81.28 39.6684 80.518 40.3404 79.978C41.0244 79.426 41.9724 79.15 43.1844 79.15H45.3444V78.556C45.3444 77.884 45.1944 77.41 44.8944 77.134C44.6064 76.858 44.1084 76.72 43.4004 76.72C42.9444 76.72 42.4584 76.774 41.9424 76.882C41.4264 76.978 40.8444 77.14 40.1964 77.368V76.054C40.6524 75.85 41.1744 75.694 41.7624 75.586C42.3504 75.466 42.9024 75.406 43.4184 75.406C45.7824 75.406 46.9644 76.456 46.9644 78.556V85H45.8664ZM42.6624 83.902C43.2144 83.902 43.7304 83.746 44.2104 83.434C44.6904 83.11 45.0744 82.672 45.3624 82.12V80.338H43.3464C42.5304 80.338 41.9244 80.488 41.5284 80.788C41.1444 81.076 40.9524 81.526 40.9524 82.138C40.9524 82.678 41.1024 83.11 41.4024 83.434C41.7144 83.746 42.1344 83.902 42.6624 83.902ZM51.819 85L48.129 75.604H49.821L52.539 83.056L55.239 75.604H56.895L53.187 85H51.819ZM64.1828 85L63.9128 83.488C63.1448 84.628 62.1008 85.198 60.7808 85.198C59.8328 85.198 59.0708 84.934 58.4948 84.406C57.9308 83.866 57.6488 83.152 57.6488 82.264C57.6488 81.28 57.9848 80.518 58.6568 79.978C59.3408 79.426 60.2888 79.15 61.5008 79.15H63.6608V78.556C63.6608 77.884 63.5108 77.41 63.2108 77.134C62.9228 76.858 62.4248 76.72 61.7168 76.72C61.2608 76.72 60.7748 76.774 60.2588 76.882C59.7428 76.978 59.1608 77.14 58.5128 77.368V76.054C58.9688 75.85 59.4908 75.694 60.0788 75.586C60.6668 75.466 61.2188 75.406 61.7348 75.406C64.0988 75.406 65.2808 76.456 65.2808 78.556V85H64.1828ZM60.9788 83.902C61.5308 83.902 62.0468 83.746 62.5268 83.434C63.0068 83.11 63.3908 82.672 63.6788 82.12V80.338H61.6628C60.8468 80.338 60.2408 80.488 59.8448 80.788C59.4608 81.076 59.2688 81.526 59.2688 82.138C59.2688 82.678 59.4188 83.11 59.7188 83.434C60.0308 83.746 60.4508 83.902 60.9788 83.902Z" fill="white"/>
<g filter="url(#filter0_i)">
<path d="M43.8165 62.8425C52.897 63.4194 66.8402 62.5229 67.17 58.2627C67.17 58.2627 66.5355 59.8759 59.6659 61.1594C51.9174 62.6053 42.3584 62.438 36.6875 61.5115C36.6875 61.5115 37.8484 62.4629 43.8165 62.8425" fill="white"/>
<path d="M41.9606 51.6675C41.9606 51.6675 40.0342 52.7787 43.333 53.1533C47.3269 53.6053 49.3767 53.5429 53.7734 52.7163C54.6564 53.2409 55.5832 53.6895 56.5434 54.0573C46.6747 58.2525 34.2072 53.8076 41.9581 51.6675" fill="white"/>
<path d="M40.7522 46.191C40.7522 46.191 38.5941 47.7867 41.8929 48.1164C46.1587 48.5509 49.5306 48.5883 55.3627 47.4746C55.9604 48.0278 56.6668 48.4528 57.4377 48.7232C45.504 52.1843 32.2131 48.9954 40.7522 46.186" fill="white"/>
<path d="M50.935 36.9052C53.3676 39.6821 50.2954 42.1818 50.2954 42.1818C50.2954 42.1818 56.4574 39.0203 53.6219 35.0523C50.9728 31.359 48.9431 29.526 59.9375 23.2007C59.9375 23.2007 42.6779 27.4759 50.9224 36.8952" fill="white"/>
<path d="M63.9779 55.7146C63.9779 55.7146 65.4032 56.8807 62.4066 57.7822C56.7104 59.4928 38.6954 60.0097 33.6993 57.8497C31.9014 57.073 35.2757 55.9967 36.3359 55.7695C36.9052 55.6318 37.49 55.5672 38.0759 55.5772C36.0614 54.1788 25.1451 58.3241 32.5359 59.5078C52.6587 62.7541 69.2207 58.0494 64.0131 55.7146" fill="white"/>
<path d="M42.8767 40.5215C42.8767 40.5215 33.7131 42.6791 39.6308 43.4632C42.1313 43.7953 47.1123 43.7129 51.7533 43.3334C55.5457 43.0162 59.3531 42.3345 59.3531 42.3345C58.5526 42.679 57.7819 43.0883 57.049 43.5581C47.7318 45.9854 29.7671 44.8541 34.9419 42.3719C39.3286 40.2818 42.8767 40.5215 42.8767 40.5215Z" fill="white"/>
<path d="M59.3242 49.6331C68.7825 44.7586 64.4109 40.0739 61.3564 40.7057C60.989 40.7732 60.6277 40.8701 60.2761 40.9953C60.4761 40.7125 60.7579 40.4965 61.0844 40.376C67.128 38.2709 71.7665 46.5865 59.1328 49.8803C59.2127 49.8105 59.2778 49.7256 59.3242 49.6306" fill="white"/>
<path d="M53.6247 13C53.6247 13 58.865 18.1966 48.6563 26.1876C40.4697 32.5979 46.7903 36.2538 48.6563 40.4216C43.8869 36.1539 40.3614 32.3906 42.721 28.8871C46.1734 23.7479 55.7399 21.2532 53.6247 13" fill="white"/>
</g>
<defs>
<filter id="filter0_i" x="30" y="13" width="38.17" height="51.9999" filterUnits="userSpaceOnUse" color-interpolation-filters="sRGB">
<feFlood flood-opacity="0" result="BackgroundImageFix"/>
<feBlend mode="normal" in="SourceGraphic" in2="BackgroundImageFix" result="shape"/>
<feColorMatrix in="SourceAlpha" type="matrix" values="0 0 0 0 0 0 0 0 0 0 0 0 0 0 0 0 0 0 127 0" result="hardAlpha"/>
<feOffset dx="1" dy="2"/>
<feGaussianBlur stdDeviation="2"/>
<feComposite in2="hardAlpha" operator="arithmetic" k2="-1" k3="1"/>
<feColorMatrix type="matrix" values="0 0 0 0 0 0 0 0 0 0 0 0 0 0 0 0 0 0 0.1 0"/>
<feBlend mode="normal" in2="shape" result="effect1_innerShadow"/>
</filter>
</defs>
</svg>
