<svg width="98" height="98" viewBox="0 0 98 98" fill="none" xmlns="http://www.w3.org/2000/svg">
<rect width="98" height="98" rx="4" fill="#F29111"/>
<g filter="url(#filter0_i)">
<path fill-rule="evenodd" clip-rule="evenodd" d="M26 15H71V60H26V15ZM60.4004 52.7235C58.3147 52.7235 57.1354 51.6356 56.229 50.1556L52.7925 52.1521C54.034 54.6049 56.5711 56.4763 60.4982 56.4763C64.5147 56.4763 67.5054 54.3906 67.5054 50.5835C67.5054 47.0521 65.4768 45.4813 61.884 43.9406L60.8268 43.4878C59.0125 42.7021 58.2268 42.1885 58.2268 40.9199C58.2268 39.8935 59.0118 39.1078 60.2504 39.1078C61.4647 39.1078 62.2468 39.6199 62.9718 40.9199L66.2647 38.8056C64.8718 36.3556 62.939 35.4199 60.2504 35.4199C56.474 35.4199 54.0575 37.8342 54.0575 41.0056C54.0575 44.4485 56.0847 46.0771 59.1361 47.3771L60.1932 47.8306C62.1218 48.6742 63.2718 49.1878 63.2718 50.6378C63.2718 51.8478 62.1525 52.7235 60.4004 52.7235ZM44.0125 52.6971C42.5597 52.6971 41.9554 51.7006 41.2911 50.5221L37.849 52.606C38.8461 54.7163 40.8068 56.4685 44.1925 56.4685C47.9397 56.4685 50.5068 54.4756 50.5068 50.0971V35.6613H46.2782V50.0399C46.2782 52.1535 45.4018 52.6971 44.0125 52.6971Z" fill="white"/>
</g>
<path d="M7.612 84.514V83.002C8.068 83.218 8.548 83.392 9.052 83.524C9.556 83.656 10.006 83.722 10.402 83.722C11.926 83.722 12.688 82.954 12.688 81.418V73.444L10.078 72.904V71.914H14.362V81.508C14.362 82.66 14.026 83.566 13.354 84.226C12.694 84.886 11.764 85.216 10.564 85.216C10.024 85.216 9.484 85.15 8.944 85.018C8.404 84.886 7.96 84.718 7.612 84.514ZM22.8664 85L22.5964 83.488C21.8284 84.628 20.7844 85.198 19.4644 85.198C18.5164 85.198 17.7544 84.934 17.1784 84.406C16.6144 83.866 16.3324 83.152 16.3324 82.264C16.3324 81.28 16.6684 80.518 17.3404 79.978C18.0244 79.426 18.9724 79.15 20.1844 79.15H22.3444V78.556C22.3444 77.884 22.1944 77.41 21.8944 77.134C21.6064 76.858 21.1084 76.72 20.4004 76.72C19.9444 76.72 19.4584 76.774 18.9424 76.882C18.4264 76.978 17.8444 77.14 17.1964 77.368V76.054C17.6524 75.85 18.1744 75.694 18.7624 75.586C19.3504 75.466 19.9024 75.406 20.4184 75.406C22.7824 75.406 23.9644 76.456 23.9644 78.556V85H22.8664ZM19.6624 83.902C20.2144 83.902 20.7304 83.746 21.2104 83.434C21.6904 83.11 22.0744 82.672 22.3624 82.12V80.338H20.3464C19.5304 80.338 18.9244 80.488 18.5284 80.788C18.1444 81.076 17.9524 81.526 17.9524 82.138C17.9524 82.678 18.1024 83.11 18.4024 83.434C18.7144 83.746 19.1344 83.902 19.6624 83.902ZM28.819 85L25.129 75.604H26.821L29.539 83.056L32.239 75.604H33.895L30.187 85H28.819ZM41.1828 85L40.9128 83.488C40.1448 84.628 39.1008 85.198 37.7808 85.198C36.8328 85.198 36.0708 84.934 35.4948 84.406C34.9308 83.866 34.6488 83.152 34.6488 82.264C34.6488 81.28 34.9848 80.518 35.6568 79.978C36.3408 79.426 37.2888 79.15 38.5008 79.15H40.6608V78.556C40.6608 77.884 40.5108 77.41 40.2108 77.134C39.9228 76.858 39.4248 76.72 38.7168 76.72C38.2608 76.72 37.7748 76.774 37.2588 76.882C36.7428 76.978 36.1608 77.14 35.5128 77.368V76.054C35.9688 75.85 36.4908 75.694 37.0788 75.586C37.6668 75.466 38.2188 75.406 38.7348 75.406C41.0988 75.406 42.2808 76.456 42.2808 78.556V85H41.1828ZM37.9788 83.902C38.5308 83.902 39.0468 83.746 39.5268 83.434C40.0068 83.11 40.3908 82.672 40.6788 82.12V80.338H38.6628C37.8468 80.338 37.2408 80.488 36.8448 80.788C36.4608 81.076 36.2688 81.526 36.2688 82.138C36.2688 82.678 36.4188 83.11 36.7188 83.434C37.0308 83.746 37.4508 83.902 37.9788 83.902ZM44.4449 84.424V82.948C45.7649 83.488 47.0249 83.758 48.2249 83.758C49.2329 83.758 50.0189 83.56 50.5829 83.164C51.1589 82.768 51.4469 82.222 51.4469 81.526C51.4469 81.01 51.2729 80.584 50.9249 80.248C50.5769 79.912 49.9469 79.57 49.0349 79.222L47.6489 78.682C46.4849 78.226 45.6449 77.722 45.1289 77.17C44.6249 76.606 44.3729 75.946 44.3729 75.19C44.3729 74.11 44.7809 73.258 45.5969 72.634C46.4129 72.01 47.5289 71.698 48.9449 71.698C49.5329 71.698 50.1389 71.77 50.7629 71.914C51.3869 72.046 51.9209 72.232 52.3649 72.472V73.948C51.1409 73.42 50.0129 73.156 48.9809 73.156C47.0249 73.156 46.0469 73.822 46.0469 75.154C46.0469 75.598 46.2209 75.976 46.5689 76.288C46.9169 76.6 47.5289 76.93 48.4049 77.278L49.7909 77.818C50.9909 78.286 51.8429 78.814 52.3469 79.402C52.8629 79.978 53.1209 80.674 53.1209 81.49C53.1209 82.666 52.7009 83.584 51.8609 84.244C51.0329 84.892 49.8689 85.216 48.3689 85.216C47.9129 85.216 47.4329 85.18 46.9289 85.108C46.4369 85.036 45.9749 84.94 45.5429 84.82C45.1109 84.7 44.7449 84.568 44.4449 84.424ZM61.7845 83.2V84.532C61.0405 84.976 60.0985 85.198 58.9585 85.198C57.5065 85.198 56.4085 84.778 55.6645 83.938C54.9325 83.086 54.5665 81.838 54.5665 80.194C54.5665 78.67 54.9565 77.494 55.7365 76.666C56.5165 75.826 57.6205 75.406 59.0485 75.406C59.9365 75.406 60.7585 75.604 61.5145 76V77.332C60.7225 76.936 59.9845 76.738 59.3005 76.738C57.2485 76.738 56.2225 77.89 56.2225 80.194C56.2225 81.442 56.4565 82.366 56.9245 82.966C57.4045 83.566 58.1545 83.866 59.1745 83.866C59.5825 83.866 59.9965 83.812 60.4165 83.704C60.8365 83.596 61.2925 83.428 61.7845 83.2ZM63.7563 85V75.604H64.8543L65.1783 77.368C65.7903 76.18 66.6663 75.586 67.8063 75.586C68.0463 75.586 68.2563 75.604 68.4363 75.64V77.062H68.0223C67.3383 77.062 66.7683 77.254 66.3123 77.638C65.8563 78.022 65.5443 78.58 65.3763 79.312V85H63.7563ZM70.3601 73.426V71.968H72.3401V73.426H70.3601ZM70.7381 85V76.864L69.8021 76.27V75.604H72.3581V85H70.7381ZM75.059 88.618V75.604H76.157L76.427 77.116C76.787 76.576 77.243 76.156 77.795 75.856C78.359 75.556 78.965 75.406 79.613 75.406C80.861 75.406 81.833 75.838 82.529 76.702C83.225 77.554 83.573 78.748 83.573 80.284C83.573 81.832 83.219 83.038 82.511 83.902C81.815 84.766 80.837 85.198 79.577 85.198C79.049 85.198 78.533 85.096 78.029 84.892C77.525 84.688 77.075 84.4 76.679 84.028V88.618H75.059ZM79.361 76.72C78.797 76.72 78.275 76.876 77.795 77.188C77.327 77.488 76.955 77.902 76.679 78.43V82.606C77.411 83.458 78.281 83.884 79.289 83.884C80.141 83.884 80.789 83.578 81.233 82.966C81.689 82.354 81.917 81.466 81.917 80.302C81.917 79.162 81.695 78.28 81.251 77.656C80.807 77.032 80.177 76.72 79.361 76.72ZM85.9822 82.138V76.936H84.3622V76.108L85.9822 75.568L86.6302 73.012H87.6022V75.604H89.6362V76.936H87.6022V82.12C87.6022 83.152 88.0462 83.668 88.9342 83.668C89.0782 83.668 89.2162 83.662 89.3482 83.65C89.4922 83.626 89.6242 83.608 89.7442 83.596V85C89.5762 85.036 89.4022 85.06 89.2222 85.072C89.0542 85.084 88.8742 85.09 88.6822 85.09C87.7582 85.09 87.0742 84.85 86.6302 84.37C86.1982 83.89 85.9822 83.146 85.9822 82.138Z" fill="white"/>
<defs>
<filter id="filter0_i" x="19" y="8" width="61" height="62" filterUnits="userSpaceOnUse" color-interpolation-filters="sRGB">
<feFlood flood-opacity="0" result="BackgroundImageFix"/>
<feBlend mode="normal" in="SourceGraphic" in2="BackgroundImageFix" result="shape"/>
<feColorMatrix in="SourceAlpha" type="matrix" values="0 0 0 0 0 0 0 0 0 0 0 0 0 0 0 0 0 0 127 0" result="hardAlpha"/>
<feOffset dx="1" dy="2"/>
<feGaussianBlur stdDeviation="2"/>
<feComposite in2="hardAlpha" operator="arithmetic" k2="-1" k3="1"/>
<feColorMatrix type="matrix" values="0 0 0 0 0.370833 0 0 0 0 0.210963 0 0 0 0 0 0 0 0 0.15 0"/>
<feBlend mode="normal" in2="shape" result="effect1_innerShadow"/>
</filter>
</defs>
</svg>
