<svg width="98" height="98" viewBox="0 0 98 98" fill="none" xmlns="http://www.w3.org/2000/svg">
<rect width="98" height="98" rx="4" fill="#F29111"/>
<path d="M26.458 85V71.914H28.132V83.506H34.54V85H26.458ZM36.5654 85V71.914H38.2394V83.506H44.6474V85H36.5654ZM48.6737 85L43.7597 71.914H45.5957L49.5377 82.84L53.4617 71.914H55.2437L50.3477 85H48.6737ZM56.8682 85V71.914H58.5782L63.5102 81.994L68.3342 71.914H70.0442V85H68.4242V74.956L64.1582 83.74H62.7542L58.4882 75.064V85H56.8682Z" fill="white"/>
<g filter="url(#filter0_i)">
<path fill-rule="evenodd" clip-rule="evenodd" d="M72.5515 15.4277C71.2453 16.1934 69.428 17.8742 67.7463 19.8716C66.9758 20.7867 66.8203 20.9239 66.726 20.7712C66.6715 20.683 66.3899 20.6884 66.2171 20.7809C65.7863 21.0114 65.6946 21.6457 66.036 22.0345C66.3356 22.3757 66.3626 22.6379 66.4047 25.6151C66.4475 28.6533 66.3729 30.0881 66.11 31.2772C66.0702 31.4572 66.0216 31.6928 66.002 31.8009C65.8026 32.896 65.4466 34.0132 65.2366 34.2014C65.1293 34.2976 65.008 34.4337 64.9673 34.5041C64.3213 35.6207 64.3388 35.5781 64.3378 36.0401C64.3373 36.2836 64.3108 36.534 64.2789 36.5965C64.247 36.659 64.0169 37.1218 63.7677 37.6248C63.3504 38.4664 63.2977 38.5427 63.1063 38.5818C62.9919 38.6052 62.8022 38.7194 62.6849 38.8355C62.2743 39.2415 61.5079 39.6894 61.0518 39.7895L60.8484 39.8342L60.898 39.5813C60.9252 39.4422 60.9713 39.1665 61.0003 38.9685C61.0292 38.7705 61.086 38.4023 61.1264 38.1503C61.9053 33.2856 61.2806 29.5625 59.2824 27.1623C58.7056 26.4695 58.4597 26.3053 58.6955 26.7706C58.883 27.1404 59.2315 28.1897 59.2315 28.3841C59.2315 28.4766 59.2589 28.624 59.2922 28.7119C59.5881 29.49 59.4693 32.7173 59.0749 34.6155C58.9301 35.3128 58.65 36.3521 58.5104 36.7102C58.4822 36.7822 58.4219 36.9442 58.3762 37.0702C58.2666 37.3728 58.1923 37.463 58.0524 37.463C57.9035 37.463 57.8274 37.6521 57.9563 37.7016C58.1787 37.787 57.8774 38.4448 57.6158 38.4448C57.4373 38.4448 57.4266 38.491 57.569 38.6484C57.7446 38.8425 57.4628 39.2735 57.1228 39.331C56.9326 39.363 56.8758 39.3994 56.9033 39.4714C56.9239 39.5247 56.9406 39.5807 56.9406 39.5957C56.9406 39.6108 56.9848 39.6231 57.0388 39.6231C57.3698 39.6231 56.9578 40.1917 56.5865 40.2475C56.1779 40.3087 56.0851 40.4344 56.3479 40.5704C56.5281 40.6635 56.5419 40.6907 56.4751 40.82C56.3128 41.134 56.2126 41.1941 55.8505 41.1941C55.4576 41.1941 55.4223 41.2527 55.6675 41.498C55.8333 41.6637 55.8515 41.7863 55.7168 41.8311C55.6783 41.8439 55.6065 41.8149 55.5573 41.7667C54.9803 41.1996 54.4958 41.063 53.9672 41.3178C53.1227 41.7253 51.3232 41.7059 49.6588 41.2718C49.5111 41.2333 49.3157 41.2306 49.1679 41.2649C49.0329 41.2962 48.8881 41.3225 48.8461 41.3233C48.784 41.3247 48.0858 40.874 47.2287 40.2795C46.1521 39.5326 44.4343 37.965 44.5575 37.8418C44.7951 37.6042 44.4421 37.162 43.4117 36.4063C42.7845 35.9463 42.4142 35.4066 41.6216 33.7973C40.5502 31.622 40.0367 29.8641 39.9456 28.0599C39.9099 27.3525 39.914 27.3226 40.0793 27.0794C40.7355 26.1135 39.7828 25.0546 38.7324 25.5822L38.4069 25.7457L37.9141 25.3695C35.2334 23.3227 32.1556 21.4389 30.3989 20.7697C30.3269 20.7422 30.1095 20.6578 29.9157 20.5819C29.7218 20.5059 29.4912 20.4439 29.403 20.4439H29.2428L29.379 20.6643C29.5574 20.9528 29.5538 21.096 29.368 21.1078C29.287 21.1129 29.1177 21.1247 28.9917 21.1338C28.8657 21.1432 28.4386 21.1695 28.0426 21.1926C26.5882 21.2775 25.2688 21.6166 23.9772 22.2378C22.378 23.0067 20.3571 24.6177 19.3632 25.9155C18.9461 26.4605 19.0714 26.4223 19.6481 25.829C20.4268 25.0278 22.1908 23.6513 22.4389 23.6513C22.479 23.6513 22.5117 23.6219 22.5117 23.5859C22.5117 23.5499 22.5398 23.5204 22.5742 23.5204C22.6086 23.5204 22.8221 23.4353 23.0487 23.3314C23.2754 23.2273 23.5639 23.1066 23.6899 23.0629C23.8159 23.0193 23.9779 22.9604 24.0499 22.9321C24.9564 22.5759 26.9446 22.6495 28.2389 23.0871C29.3412 23.4597 30.997 24.3432 30.9366 24.5264C30.9209 24.5736 30.5945 24.616 30.0337 24.6435C27.4811 24.7685 26.03 25.5437 24.6897 27.4985C24.4833 27.7992 23.9317 28.9695 23.7568 29.4771C23.5038 30.2114 23.3037 30.9402 23.3392 30.9975C23.3579 31.028 23.3988 31.2211 23.43 31.4268C23.4614 31.6325 23.5208 31.9776 23.5622 32.1936C23.6036 32.4096 23.6601 32.7189 23.6874 32.8809C23.7665 33.3463 23.9517 34.2071 24.0117 34.3864C24.0417 34.4764 24.1017 34.7121 24.1449 34.9101C24.3681 35.9339 25.3958 39.3446 25.6535 39.9176C25.6859 39.9896 25.7553 40.1811 25.8076 40.3431C25.9024 40.6357 26.0744 41.1072 26.178 41.3577C26.2077 41.4297 26.4134 41.9599 26.6351 42.536C26.8569 43.112 27.0899 43.7011 27.1529 43.8451C27.2161 43.9891 27.3648 44.3573 27.4833 44.6633C27.7382 45.321 27.8521 45.5969 27.9966 45.907L28.1035 46.1361L28.1473 45.7434C28.253 44.7993 28.3754 43.9732 28.5305 43.1578C28.5682 42.9598 28.6281 42.6358 28.6637 42.4378C28.6992 42.2398 28.759 41.9452 28.7966 41.7832C28.8342 41.6212 28.8827 41.3628 28.9043 41.209C28.9259 41.0551 28.9691 40.9134 29.0003 40.8941C29.0316 40.8748 29.0571 40.7886 29.0571 40.7025C29.0571 40.6164 29.1041 40.375 29.1617 40.1664C29.3252 39.5722 29.3677 39.3899 29.5714 38.4121C30.3032 34.897 31.3969 32.4787 32.9834 30.8681C33.6278 30.214 33.6712 30.2052 33.4651 30.7699C33.3764 31.0129 33.2884 31.2706 33.2696 31.3426C33.2508 31.4147 33.2117 31.5325 33.1829 31.6045C33.0727 31.8789 32.7229 33.068 32.5952 33.6009C31.6237 37.6587 32.7422 39.7897 38.188 44.2573C38.3919 44.4246 39.9026 45.6267 40.5597 46.1445C41.2616 46.6976 41.2694 46.6953 41.3198 45.9398C41.4627 43.7981 42.0647 42.2232 43.028 41.4719C43.3474 41.2229 43.3626 41.2312 43.4165 41.6894C43.4981 42.3852 43.9111 43.0307 44.5996 43.5386C44.952 43.7985 45.7206 44.2051 45.8596 44.2051C45.9072 44.2051 45.9972 44.2323 46.0597 44.2655C46.1222 44.2987 46.5156 44.4905 46.9338 44.6918C48.2452 45.3228 49.1645 46.1152 49.6988 47.0748C49.8611 47.3666 49.8122 47.3954 49.0861 47.436C48.7441 47.4551 48.3584 47.4898 48.2288 47.513C47.9961 47.5549 47.7181 47.2123 47.7095 46.8732C47.7065 46.7563 47.5877 46.6238 47.2861 46.4008C47.1421 46.2942 46.9463 46.1248 46.8509 46.0244C46.4652 45.6182 44.8512 45.9856 44.4233 46.577C43.9892 47.1769 43.9321 47.8812 44.2916 48.2025C44.4475 48.3417 44.5043 48.4484 44.5043 48.6016C44.5043 48.7165 44.5313 48.9011 44.5642 49.0117C44.8216 49.8739 44.9312 50.185 45.1135 50.5703C45.347 51.0632 45.4521 51.1358 45.3991 50.7673C45.2703 49.8736 45.2111 49.2434 45.2471 49.1497C45.307 48.9935 45.4205 49.0906 45.4213 49.2984C45.4228 49.6499 46.4482 51.4323 46.5218 51.2113C46.5493 51.1286 46.4488 50.7332 46.3217 50.4236C46.197 50.1202 46.1759 48.5862 46.2994 48.8111C46.3562 48.9142 46.4025 49.0359 46.4025 49.0816C46.4025 49.2348 46.9173 50.1919 47.1243 50.4236C47.257 50.5722 47.313 50.6068 47.2837 50.5218C47.1328 50.0859 47.0976 49.8509 47.0747 49.1241C47.0457 48.2015 47.0703 48.1735 47.4586 48.6851C47.7451 49.0628 47.913 49.5237 47.9726 50.0963C47.997 50.3304 48.0389 50.5711 48.0657 50.6315C48.1374 50.7925 45.833 52.4679 44.6352 53.1256C44.4732 53.2146 44.1491 53.4047 43.9149 53.5484C41.4888 55.0356 37.9995 56.2494 36.1501 56.2494C33.7445 56.2494 32.5759 54.4005 34.0118 52.8664C34.8163 52.0069 37.052 51.9306 38.4326 52.7155C38.4951 52.751 38.5765 52.7801 38.6133 52.7801C38.6769 52.7801 38.8409 52.8488 39.6537 53.2167C40.0925 53.4152 42.279 53.655 42.5839 53.538C42.7263 53.4833 41.653 52.8583 40.1516 52.1218C37.1263 50.6374 34.9804 50.4269 33.2945 51.449C32.6744 51.8251 31.8717 52.733 31.8717 53.0585C31.8717 53.1069 31.8483 53.1747 31.8196 53.2089C31.4426 53.6589 31.509 55.0675 31.9502 55.9764C32.6654 57.4505 35.201 58.4403 37.3698 58.092C37.6038 58.0544 38.0014 57.9912 38.2534 57.9515C38.5054 57.9119 38.8 57.8534 38.908 57.8215C39.016 57.7898 39.2369 57.7284 39.3989 57.6852C40.4146 57.414 42.0986 56.7835 43.228 56.2512C44.4575 55.6717 46.6615 54.5413 47.3382 54.1429C47.5106 54.0415 47.6602 53.9584 47.6703 53.9584C47.6851 53.9584 48.8313 53.3349 49.2087 53.1218C49.2671 53.0886 49.3697 53.1416 49.5032 53.2738C49.6158 53.3853 49.8586 53.5254 50.0427 53.5849L50.3775 53.6934L50.9591 53.4601C51.6513 53.1822 51.7254 53.1496 52.6534 52.7155C53.0494 52.5301 53.5184 52.3509 53.6954 52.317C53.9026 52.2776 54.1873 52.1403 54.4938 51.9323C54.7559 51.7546 55.0768 51.5891 55.2071 51.5647L55.4437 51.5202L55.3413 51.7654C55.2269 52.0393 55.2033 52.5183 55.3043 52.5183C55.3403 52.5183 55.3697 52.4584 55.3697 52.3852C55.3697 52.1385 55.6873 51.6227 56.0277 51.3166C56.4903 50.9007 56.8123 50.8887 57.247 51.2713C57.4086 51.4135 57.6448 51.5642 57.7717 51.6061C58.1578 51.7334 58.0041 52.4779 57.4184 53.3195C57.0195 53.8926 57.1735 53.8769 57.8347 53.2766C58.0565 53.0755 58.3216 52.7783 58.4238 52.6165C58.5261 52.4546 58.6318 52.3221 58.6588 52.3221C58.7704 52.3217 58.6812 52.9714 58.5107 53.402C58.4822 53.474 58.3922 53.7096 58.3109 53.9256C58.2294 54.1416 58.134 54.3559 58.0988 54.4018C58.0635 54.4477 58.054 54.5044 58.0774 54.528C58.1419 54.5923 58.44 54.2812 58.8061 53.7679C58.9861 53.5154 59.1581 53.3077 59.1883 53.3062C59.2487 53.3036 59.2101 54.5463 59.1417 54.8093C59.1183 54.8993 59.1186 54.9288 59.1425 54.8748C59.1662 54.8208 59.2071 54.7619 59.2333 54.7439C59.6051 54.4881 59.9353 52.5275 59.7244 51.8269C59.6398 51.5457 59.6398 51.4896 59.7244 51.3605C59.9977 50.9435 59.6449 50.268 59.0352 50.04C58.9092 49.9931 58.7549 49.9275 58.6924 49.8946C58.6298 49.8615 58.4945 49.8345 58.3916 49.8345C58.2877 49.8345 58.1519 49.7764 58.0861 49.7036C58.021 49.6316 57.9133 49.5727 57.8468 49.5727C57.6523 49.5727 57.704 49.4488 58.0758 49.0235C58.7578 48.2431 59.2926 47.3121 59.3975 46.7225C59.4369 46.5006 59.754 45.8766 59.8782 45.7761C59.9006 45.7581 59.9911 45.6403 60.0795 45.5143C60.7321 44.5841 61.3118 44.068 62.1971 43.6296C63.2426 43.1117 63.4597 43.0187 64.2388 42.7564C64.9203 42.5268 64.9265 42.5222 65.417 41.8729C65.777 41.3963 66.3497 40.2549 66.5622 39.5903C66.6084 39.4463 66.6689 39.2696 66.6971 39.1976C66.8227 38.8752 67.0207 37.8557 67.0207 37.5317C67.0206 37.317 67.0441 37.1997 67.0797 37.2371C67.2997 37.4685 67.2991 42.7382 67.0788 43.8793C67.0404 44.0781 67.019 44.3228 67.0312 44.4229L67.0533 44.6051L67.3983 44.2989C68.2642 43.5301 69.902 40.7894 70.6227 38.903C70.7395 38.597 70.8585 38.2877 70.8868 38.2157C71.0033 37.9202 71.2799 36.9458 71.3978 36.4156C71.4338 36.2536 71.4811 36.0474 71.5027 35.9574C71.6205 35.4665 71.694 34.4738 71.6943 33.3718C71.6947 31.6955 71.6503 31.3587 71.2116 29.7062C70.9272 28.635 70.0346 26.8879 69.335 26.0338C68.9878 25.6097 69.0932 25.5552 69.6388 25.8769C69.8219 25.9849 69.9875 26.0733 70.0064 26.0733C70.1684 26.0733 71.5517 27.1275 72.0624 27.6402C73.1684 28.7504 74.0644 30.4418 74.5612 32.3572C74.594 32.4833 74.6485 32.6821 74.6825 32.7991C74.7164 32.9161 74.7717 33.1076 74.8051 33.2246C74.8988 33.5517 75.1407 34.4576 75.2027 34.7137C75.4753 35.8388 75.5458 36.1582 75.5748 36.3993C75.6285 36.845 75.7915 36.7678 75.7915 36.2967C75.7915 36.0872 75.8314 35.7706 75.8803 35.593C75.9291 35.4154 76.0196 34.9756 76.0813 34.6155C76.1431 34.2555 76.2226 33.8489 76.258 33.7121C76.3293 33.4365 76.4863 32.604 76.5812 31.9972C76.615 31.7812 76.6725 31.4277 76.7088 31.2117C76.9549 29.7491 77.1346 28.0666 77.2434 26.2042C77.3342 24.6519 77.3498 23.0698 77.2778 22.7246C77.1406 22.0678 75.6237 20.879 74.4496 20.5084C74.3056 20.4629 74.1289 20.4023 74.0569 20.3739C73.5542 20.1745 72.4319 20.0505 71.1115 20.0482L69.7369 20.0458L70.0082 19.8001C70.47 19.3822 72.1259 18.6212 73.1406 18.3607C75.4948 17.7564 77.0091 18.1966 78.2787 19.8541C78.9994 20.7949 79.0815 20.8008 78.4914 19.8694C78.0342 19.1477 77.923 19.0001 77.2969 18.2843C75.9425 16.7359 74.9023 16.1628 73.2878 16.0752C72.6351 16.0399 72.4803 15.9384 72.7077 15.6949C72.9349 15.4519 72.8264 15.2665 72.5515 15.4277ZM50.1498 24.1148C50.0688 24.2976 50.0025 24.499 50.0025 24.5627C50.0025 25.0073 49.6117 24.9294 49.5911 24.4809C49.5829 24.3051 49.5454 24.1757 49.5026 24.1755C49.427 24.175 49.1265 24.8466 49.0572 25.1713C48.9986 25.4455 48.7589 25.5477 48.7589 25.2983C48.7589 25.1935 48.7399 25.0129 48.7166 24.8967L48.6744 24.6857L48.5867 24.9376C48.5386 25.0762 48.4799 25.3316 48.4563 25.5051C48.4259 25.7298 48.3476 25.8995 48.1848 26.0942C47.4818 26.9354 47.0799 27.7443 46.8618 28.7571C46.7581 29.2385 46.7841 30.8797 46.9052 31.5063C47.0287 32.1443 47.0304 32.2808 46.9225 32.9235C46.7285 34.0801 46.9006 34.4329 48.0004 35.1341C48.7458 35.6092 48.8212 35.7079 48.9616 36.3926C49.0367 36.7591 49.0308 36.8454 48.8937 37.3641C48.6641 38.2334 48.8497 38.4448 49.8429 38.4448C50.7102 38.4448 50.8441 38.2512 50.5152 37.4725C50.4446 37.3052 50.3625 37.1095 50.333 37.0375C49.9797 36.1774 50.0319 35.041 50.4248 35.041C50.5179 35.041 50.9417 35.4791 51.047 35.6841C51.09 35.7679 51.2849 36.0249 51.4801 36.2549C51.8938 36.7426 51.8948 36.7467 51.6424 36.9589C51.3512 37.2041 51.6163 37.2322 52.0453 37.0017C52.125 36.9588 52.1734 36.9706 52.214 37.0429C52.4053 37.3847 53.0381 37.1674 53.715 36.5271C54.1647 36.1019 54.1559 36.0334 53.581 35.4745C52.9856 34.8955 52.8064 34.4558 52.9451 33.9145C53.2276 32.8127 51.7581 30.8588 49.6827 29.5761L49.3956 29.3987L49.4399 28.8107C49.4644 28.4874 49.5093 28.1737 49.5399 28.1136C49.5705 28.0534 49.662 27.8647 49.7434 27.694C50.0377 27.0774 50.6035 26.6398 51.4953 26.3394C52.1435 26.1211 54.2287 26.1685 54.4828 26.4076C54.517 26.4397 54.5934 26.466 54.6528 26.466C54.7586 26.466 54.9219 26.5343 55.4905 26.8161C56.435 27.2839 57.7798 28.9181 58.0489 29.925C58.1134 30.166 58.2662 30.1962 58.2167 29.9581C57.5188 26.6064 55.0678 24.5486 51.6776 24.4676C50.6127 24.4421 50.5752 24.429 50.4788 24.0485C50.3964 23.7232 50.3162 23.7394 50.1498 24.1148ZM46.179 56.4734C46.4177 56.6405 48.6999 57.7268 49.217 57.9192C49.5108 58.0287 49.6746 58.093 49.9534 58.2089C50.0344 58.2424 50.2774 58.328 50.4934 58.3989C51.4115 58.7003 51.7738 58.8022 51.9268 58.8022C52.0162 58.8022 52.1052 58.8279 52.1245 58.8592C52.1438 58.8906 52.3003 58.9325 52.4721 58.9523C52.6437 58.9721 52.9757 59.0274 53.2097 59.0754C54.5012 59.3393 57.0652 59.1515 58.7406 58.6703C58.8846 58.6289 59.0834 58.5795 59.1824 58.5604C59.2814 58.5412 59.3624 58.4995 59.3624 58.4676C59.3624 58.4357 59.4343 58.4095 59.5221 58.4095C59.61 58.4095 59.7002 58.38 59.7224 58.344C59.7447 58.308 59.8218 58.2786 59.8938 58.2786C59.9658 58.2786 60.009 58.2532 59.9898 58.2223C59.9707 58.1912 59.7997 58.2095 59.6097 58.263C59.4197 58.3164 59.1612 58.373 59.0352 58.3889C58.9092 58.4046 58.7472 58.4424 58.6752 58.4727C58.6032 58.5031 58.2939 58.5596 57.9879 58.5983C57.6819 58.6371 57.2021 58.699 56.9216 58.7356C56.2828 58.8191 55.2364 58.8214 54.6623 58.7405C54.4215 58.7067 53.9739 58.6465 53.6679 58.6067C53.3619 58.5669 53.0085 58.5082 52.8825 58.4761C52.7565 58.444 52.5061 58.383 52.3261 58.3406C51.9756 58.2581 51.6217 58.1585 51.4097 58.0827C51.3377 58.057 51.1316 57.9843 50.9516 57.9213C50.7716 57.8583 50.4679 57.75 50.2766 57.6806C49.8691 57.5329 48.4067 56.83 47.9541 56.5644C47.5874 56.3492 45.8764 56.2615 46.179 56.4734Z" fill="white"/>
</g>
<defs>
<filter id="filter0_i" x="19.1172" y="15.3672" width="60.7656" height="45.8281" filterUnits="userSpaceOnUse" color-interpolation-filters="sRGB">
<feFlood flood-opacity="0" result="BackgroundImageFix"/>
<feBlend mode="normal" in="SourceGraphic" in2="BackgroundImageFix" result="shape"/>
<feColorMatrix in="SourceAlpha" type="matrix" values="0 0 0 0 0 0 0 0 0 0 0 0 0 0 0 0 0 0 127 0" result="hardAlpha"/>
<feOffset dx="1" dy="2"/>
<feGaussianBlur stdDeviation="2"/>
<feComposite in2="hardAlpha" operator="arithmetic" k2="-1" k3="1"/>
<feColorMatrix type="matrix" values="0 0 0 0 0.370833 0 0 0 0 0.210963 0 0 0 0 0 0 0 0 0.15 0"/>
<feBlend mode="normal" in2="shape" result="effect1_innerShadow"/>
</filter>
</defs>
</svg>
