<svg width="98" height="98" viewBox="0 0 98 98" fill="none" xmlns="http://www.w3.org/2000/svg">
<rect width="98" height="98" rx="4" fill="#F29111"/>
<path d="M20.457 84.9999V71.9139H24.741C27.777 71.9139 29.295 73.2999 29.295 76.0719C29.295 78.8439 27.777 80.2299 24.741 80.2299H22.113V84.9999H20.457ZM24.399 73.2459H22.113V78.8979H24.399C25.527 78.8979 26.343 78.6699 26.847 78.2139C27.363 77.7579 27.621 77.0439 27.621 76.0719C27.621 75.0999 27.363 74.3859 26.847 73.9299C26.343 73.4739 25.527 73.2459 24.399 73.2459ZM33.4987 84.9099L30.0967 75.6039H31.7887L34.7407 84.0099L37.3147 75.6039H38.9527L35.9467 84.8019C35.6587 85.6899 35.3407 86.4099 34.9927 86.9619C34.6567 87.5139 34.2487 87.9399 33.7687 88.2399C33.2887 88.5399 32.6887 88.7739 31.9687 88.9419L31.5727 87.5919C32.0527 87.4599 32.4607 87.2919 32.7967 87.0879C33.1327 86.8959 33.4207 86.6379 33.6607 86.3139C33.9127 85.9899 34.1347 85.5639 34.3267 85.0359L34.3807 84.9099H33.4987ZM41.2038 82.1379V76.9359H39.5838V76.1079L41.2038 75.5679L41.8518 73.0119H42.8238V75.6039H44.8578V76.9359H42.8238V82.1199C42.8238 83.1519 43.2678 83.6679 44.1558 83.6679C44.2998 83.6679 44.4378 83.6619 44.5698 83.6499C44.7138 83.6259 44.8458 83.6079 44.9658 83.5959V84.9999C44.7978 85.0359 44.6238 85.0599 44.4438 85.0719C44.2758 85.0839 44.0958 85.0899 43.9038 85.0899C42.9798 85.0899 42.2958 84.8499 41.8518 84.3699C41.4198 83.8899 41.2038 83.1459 41.2038 82.1379ZM46.9799 84.9999V71.4819H48.5999V76.9719C48.9719 76.4799 49.4219 76.0959 49.9499 75.8199C50.4899 75.5439 51.0959 75.4059 51.7679 75.4059C52.8479 75.4059 53.6759 75.7299 54.2519 76.3779C54.8279 77.0259 55.1159 77.9619 55.1159 79.1859V84.9999H53.4959V79.2399C53.4959 77.6079 52.7879 76.7919 51.3719 76.7919C50.7719 76.7919 50.2199 76.9779 49.7159 77.3499C49.2239 77.7099 48.8519 78.2019 48.5999 78.8259V84.9999H46.9799ZM61.5901 85.1979C60.1741 85.1979 59.0761 84.7659 58.2961 83.9019C57.5161 83.0259 57.1261 81.8259 57.1261 80.3019C57.1261 78.7659 57.5161 77.5659 58.2961 76.7019C59.0761 75.8379 60.1741 75.4059 61.5901 75.4059C63.0181 75.4059 64.1221 75.8379 64.9021 76.7019C65.6821 77.5659 66.0721 78.7659 66.0721 80.3019C66.0721 81.8259 65.6821 83.0259 64.9021 83.9019C64.1221 84.7659 63.0181 85.1979 61.5901 85.1979ZM61.5901 83.8659C62.5141 83.8659 63.2161 83.5659 63.6961 82.9659C64.1761 82.3539 64.4161 81.4659 64.4161 80.3019C64.4161 79.1379 64.1761 78.2559 63.6961 77.6559C63.2161 77.0439 62.5141 76.7379 61.5901 76.7379C60.6781 76.7379 59.9821 77.0439 59.5021 77.6559C59.0221 78.2559 58.7821 79.1379 58.7821 80.3019C58.7821 81.4659 59.0221 82.3539 59.5021 82.9659C59.9821 83.5659 60.6781 83.8659 61.5901 83.8659ZM68.1791 84.9999V75.6039H69.2771L69.5651 77.2059C69.9611 76.6299 70.4471 76.1859 71.0231 75.8739C71.5991 75.5619 72.2471 75.4059 72.9671 75.4059C74.0471 75.4059 74.8751 75.7299 75.4511 76.3779C76.0271 77.0259 76.3151 77.9619 76.3151 79.1859V84.9999H74.6951V79.2399C74.6951 77.6079 73.9871 76.7919 72.5711 76.7919C71.9711 76.7919 71.4191 76.9779 70.9151 77.3499C70.4231 77.7099 70.0511 78.2019 69.7991 78.8259V84.9999H68.1791Z" fill="white"/>
<g filter="url(#filter0_i)">
<path d="M49.0226 15.0004C47.1845 15.0088 45.4292 15.1641 43.8847 15.4347C39.3349 16.2308 38.5088 17.897 38.5088 20.9698V25.0281H49.2607V26.3808H38.5088H34.4737C31.3489 26.3808 28.6127 28.2409 27.7569 31.7794C26.7697 35.8354 26.7259 38.3663 27.7569 42.6014C28.5212 45.7538 30.3464 48 33.4712 48H37.1679V43.1351C37.1679 39.6204 40.2385 36.5202 43.8847 36.5202H54.6241C57.6135 36.5202 60 34.0825 60 31.1092V20.9698C60 18.0841 57.5419 15.9163 54.6241 15.4347C52.777 15.1302 50.8606 14.9919 49.0226 15.0004ZM43.208 18.2643C44.3186 18.2643 45.2256 19.1772 45.2256 20.2997C45.2256 21.4181 44.3186 22.3226 43.208 22.3226C42.0934 22.3226 41.1905 21.4181 41.1905 20.2997C41.1905 19.1772 42.0934 18.2643 43.208 18.2643Z" fill="white"/>
<path d="M61.7857 26V30.8346C61.7857 34.5829 58.6539 37.7376 55.0825 37.7376H44.365C41.4293 37.7376 39 40.2871 39 43.2702V53.6373C39 56.5879 41.5286 58.3234 44.365 59.1699C47.7615 60.1832 51.0186 60.3664 55.0825 59.1699C57.7839 58.3763 60.4476 56.7792 60.4476 53.6373V49.4879H49.73V48.1048H60.4476H65.8126C68.931 48.1048 70.0931 45.8977 71.1776 42.5849C72.2978 39.1745 72.2502 35.8948 71.1776 31.5199C70.4069 28.3699 68.935 26 65.8126 26H61.7857ZM55.7579 52.2542C56.8702 52.2542 57.7713 53.179 57.7713 54.3226C57.7713 55.4702 56.8702 56.4036 55.7579 56.4036C54.6495 56.4036 53.7444 55.4702 53.7444 54.3226C53.7444 53.179 54.6495 52.2542 55.7579 52.2542Z" fill="white"/>
</g>
<defs>
<filter id="filter0_i" x="27" y="15" width="46" height="47" filterUnits="userSpaceOnUse" color-interpolation-filters="sRGB">
<feFlood flood-opacity="0" result="BackgroundImageFix"/>
<feBlend mode="normal" in="SourceGraphic" in2="BackgroundImageFix" result="shape"/>
<feColorMatrix in="SourceAlpha" type="matrix" values="0 0 0 0 0 0 0 0 0 0 0 0 0 0 0 0 0 0 127 0" result="hardAlpha"/>
<feOffset dx="1" dy="2"/>
<feGaussianBlur stdDeviation="2"/>
<feComposite in2="hardAlpha" operator="arithmetic" k2="-1" k3="1"/>
<feColorMatrix type="matrix" values="0 0 0 0 0 0 0 0 0 0 0 0 0 0 0 0 0 0 0.15 0"/>
<feBlend mode="normal" in2="shape" result="effect1_innerShadow"/>
</filter>
</defs>
</svg>
