<svg width="98" height="98" viewBox="0 0 98 98" fill="none" xmlns="http://www.w3.org/2000/svg">
<rect width="98" height="98" rx="4" fill="#F29111"/>
<path d="M44.458 85V71.914H48.904C51.94 71.914 53.458 73.198 53.458 75.766C53.458 77.77 52.438 79.006 50.398 79.474L54.034 85H52.126L48.814 79.816L46.114 79.384V85H44.458ZM46.114 78.268H48.112C49.456 78.268 50.404 78.082 50.956 77.71C51.508 77.326 51.784 76.678 51.784 75.766C51.784 75.142 51.67 74.65 51.442 74.29C51.214 73.918 50.83 73.654 50.29 73.498C49.762 73.33 49.036 73.246 48.112 73.246H46.114V78.268Z" fill="white"/>
<g filter="url(#filter0_i)">
<path fill-rule="evenodd" clip-rule="evenodd" d="M47.1993 16.1838C47.1993 16.2121 46.91 16.2289 46.4213 16.2289C45.9903 16.2289 45.6242 16.2479 45.6004 16.2715C45.577 16.295 45.3301 16.3177 45.0517 16.3219C44.7734 16.3259 44.5458 16.3473 44.5458 16.3692C44.5458 16.3909 44.3649 16.4089 44.1437 16.4089C43.9226 16.4089 43.7291 16.4292 43.7137 16.4539C43.6985 16.4787 43.5607 16.499 43.4076 16.4991C43.2486 16.4994 43.0738 16.5283 43.0002 16.5667C42.9253 16.6059 42.7515 16.6339 42.5842 16.6339C42.4228 16.6339 42.297 16.6536 42.297 16.679C42.297 16.7044 42.1696 16.724 42.0047 16.724C41.8399 16.724 41.7123 16.7435 41.7123 16.7689C41.7123 16.7937 41.6112 16.814 41.4875 16.814C41.3638 16.814 41.2626 16.8342 41.2626 16.859C41.2626 16.884 41.1436 16.904 40.9955 16.904C40.8485 16.904 40.7158 16.9243 40.7004 16.9491C40.6852 16.9737 40.5839 16.994 40.4756 16.994C40.3672 16.994 40.2659 17.0144 40.2507 17.039C40.2353 17.0638 40.1443 17.0841 40.0484 17.0841C39.9523 17.0841 39.8613 17.1043 39.8459 17.1291C39.8307 17.1539 39.7294 17.1741 39.6211 17.1741C39.5127 17.1741 39.4114 17.1944 39.3962 17.2192C39.3808 17.2438 39.2886 17.2641 39.1911 17.2641C39.0937 17.2641 39.0138 17.2844 39.0138 17.3091C39.0138 17.3339 38.943 17.3542 38.8564 17.3542C38.7699 17.3542 38.6991 17.3744 38.6991 17.3992C38.6991 17.424 38.618 17.4441 38.5192 17.4441C38.4202 17.4441 38.3392 17.4644 38.3392 17.4891C38.3392 17.5139 38.2583 17.5342 38.1593 17.5342C38.0603 17.5342 37.9795 17.5544 37.9795 17.5792C37.9795 17.604 37.9202 17.6241 37.8477 17.6241C37.7753 17.6241 37.6857 17.6546 37.6486 17.6917C37.6115 17.7289 37.5189 17.7592 37.4429 17.7592C37.367 17.7592 37.3048 17.7773 37.3048 17.7994C37.3048 17.8214 37.2289 17.8523 37.1361 17.8681C36.7257 17.9382 36.6752 17.9514 36.6752 17.9892C36.6752 18.0113 36.6157 18.0293 36.5429 18.0293C36.4701 18.0293 36.3981 18.0496 36.3829 18.0744C36.3675 18.099 36.2955 18.1193 36.2227 18.1193C36.15 18.1193 36.0906 18.1396 36.0906 18.1643C36.0906 18.1891 36.0298 18.2094 35.9556 18.2094C35.8814 18.2094 35.8207 18.2296 35.8207 18.2544C35.8207 18.2792 35.76 18.2993 35.6858 18.2993C35.6116 18.2993 35.5508 18.3197 35.5508 18.3445C35.5508 18.3691 35.4901 18.3894 35.4159 18.3894C35.3417 18.3894 35.281 18.4097 35.281 18.4344C35.281 18.4592 35.2315 18.4794 35.1711 18.4794C35.1108 18.4794 35.0489 18.4997 35.0336 18.5245C35.0184 18.5491 34.9563 18.5694 34.896 18.5694C34.8356 18.5694 34.7862 18.5852 34.7862 18.6047C34.7862 18.624 34.6934 18.6672 34.5801 18.7007C34.4667 18.7342 34.3634 18.7893 34.3504 18.8231C34.3367 18.8585 34.2612 18.8845 34.1717 18.8845C34.0795 18.8845 34.0276 18.9029 34.0441 18.9296C34.0599 18.9551 34.0221 18.9746 33.9569 18.9746C33.8935 18.9746 33.8418 18.9949 33.8418 19.0195C33.8418 19.0443 33.7924 19.0646 33.7319 19.0646C33.6716 19.0646 33.6096 19.0848 33.5944 19.1096C33.579 19.1344 33.5273 19.1546 33.4793 19.1546C33.4313 19.1546 33.3919 19.1749 33.3919 19.1997C33.3919 19.2243 33.3526 19.2446 33.3047 19.2446C33.2567 19.2446 33.205 19.2649 33.1896 19.2896C33.1744 19.3144 33.1137 19.3347 33.0547 19.3347C32.9958 19.3347 32.9351 19.3549 32.9197 19.3797C32.9045 19.4045 32.8526 19.4246 32.8047 19.4246C32.7567 19.4246 32.7174 19.445 32.7174 19.4696C32.7174 19.4944 32.6768 19.5147 32.6274 19.5147C32.578 19.5147 32.5374 19.5349 32.5374 19.5597C32.5374 19.5845 32.497 19.6047 32.4475 19.6047C32.398 19.6047 32.3575 19.625 32.3575 19.6498C32.3575 19.6744 32.3171 19.6947 32.2677 19.6947C32.2181 19.6947 32.1777 19.715 32.1777 19.7397C32.1777 19.7645 32.1504 19.7848 32.1171 19.7848C32.0542 19.7848 31.7672 19.9154 31.728 19.9619C31.7155 19.9766 31.6042 20.0389 31.4806 20.1004C31.3569 20.1621 31.249 20.2275 31.2407 20.2461C31.2324 20.2646 31.1869 20.2799 31.1395 20.2799C31.0921 20.2799 31.0533 20.3002 31.0533 20.325C31.0533 20.3496 31.0129 20.3699 30.9633 20.3699C30.9139 20.3699 30.8734 20.3901 30.8734 20.4149C30.8734 20.4397 30.8459 20.4599 30.8123 20.4599C30.726 20.4599 30.1988 20.7372 30.1988 20.7826C30.1988 20.8032 30.1583 20.82 30.1088 20.82C30.0594 20.82 30.0189 20.8403 30.0189 20.865C30.0189 20.8898 29.9907 20.9101 29.9562 20.9101C29.9217 20.9101 29.8457 20.9603 29.7875 21.0218C29.7292 21.0833 29.6461 21.1339 29.6028 21.1344C29.5595 21.1348 29.5241 21.1554 29.5241 21.1802C29.5241 21.2048 29.4882 21.2252 29.4441 21.2252C29.4001 21.2252 29.335 21.2656 29.2993 21.3152C29.2635 21.3647 29.1985 21.4052 29.1544 21.4052C29.1103 21.4052 29.0744 21.424 29.0744 21.4472C29.0744 21.4703 29.034 21.5019 28.9847 21.5176C28.9354 21.5332 28.8667 21.5744 28.8321 21.6091C28.7976 21.6438 28.7425 21.6779 28.7099 21.685C28.6773 21.6919 28.6141 21.7299 28.5694 21.7694C28.5248 21.8087 28.4332 21.8695 28.3658 21.9044C28.2362 21.9716 28.0933 22.083 27.9229 22.2492C27.8658 22.3049 27.7954 22.3505 27.7662 22.3505C27.7371 22.3505 27.6804 22.386 27.6404 22.4295C27.6004 22.473 27.5107 22.5379 27.4411 22.5737C27.3714 22.6095 27.2553 22.6955 27.1829 22.7647C27.1106 22.8339 27.0308 22.8906 27.0059 22.8906C26.981 22.8906 26.9606 22.9108 26.9606 22.9356C26.9606 22.9604 26.9397 22.9805 26.914 22.9805C26.8885 22.9805 26.7975 23.0464 26.712 23.1269C26.2979 23.5159 26.2415 23.5657 26.2153 23.5657C26.1998 23.5657 26.1304 23.6265 26.0611 23.7007C25.9917 23.775 25.9166 23.8358 25.894 23.8358C25.8473 23.8358 25.2515 24.3993 25.2515 24.4435C25.2515 24.4796 25.1322 24.601 25.0967 24.601C25.0635 24.601 24.2171 25.4464 24.2171 25.4796C24.2171 25.4933 24.1513 25.5714 24.0709 25.6535C23.8631 25.8656 23.5274 26.2596 23.4786 26.3486C23.4558 26.3901 23.4001 26.4567 23.3549 26.4969C23.3096 26.5369 23.2726 26.585 23.2726 26.604C23.2726 26.623 23.2307 26.6748 23.1797 26.7191C23.1285 26.7635 23.0932 26.8134 23.101 26.83C23.1148 26.8596 23.0454 26.9488 22.7442 27.2893C22.6637 27.3801 22.5979 27.4807 22.5979 27.5131C22.5979 27.5454 22.5816 27.5718 22.5614 27.5718C22.5413 27.5718 22.4971 27.6426 22.463 27.7293C22.4291 27.8159 22.3872 27.8869 22.3701 27.8869C22.353 27.8869 22.3139 27.9476 22.2832 28.0219C22.2524 28.0962 22.2095 28.157 22.1878 28.157C22.1661 28.157 22.1482 28.1974 22.1482 28.247C22.1482 28.2965 22.1279 28.337 22.1033 28.337C22.0785 28.337 22.0582 28.3674 22.0582 28.4045C22.0582 28.4417 22.0381 28.472 22.0133 28.472C21.9885 28.472 21.9684 28.5025 21.9684 28.5396C21.9684 28.5767 21.9481 28.607 21.9233 28.607C21.8987 28.607 21.8784 28.6475 21.8784 28.6971C21.8784 28.7466 21.8581 28.787 21.8334 28.787C21.8086 28.787 21.7884 28.8377 21.7884 28.8996C21.7884 28.9697 21.763 29.0122 21.721 29.0122C21.6834 29.0122 21.6534 29.0522 21.6534 29.1022C21.6534 29.1517 21.6333 29.1922 21.6085 29.1922C21.5837 29.1922 21.5636 29.2326 21.5636 29.2822C21.5636 29.3317 21.5433 29.3722 21.5185 29.3722C21.4939 29.3722 21.4736 29.4128 21.4736 29.4623C21.4736 29.5117 21.4534 29.5523 21.4286 29.5523C21.4039 29.5523 21.3837 29.5928 21.3837 29.6423C21.3837 29.6919 21.3634 29.7323 21.3386 29.7323C21.314 29.7323 21.2937 29.7716 21.2937 29.8197C21.2937 29.8678 21.2734 29.9196 21.2488 29.9348C21.224 29.9502 21.2037 30.002 21.2037 30.0501C21.2037 30.0982 21.1872 30.1375 21.1669 30.1375C21.1466 30.1375 21.1025 30.2387 21.0688 30.3624C21.0351 30.4863 20.9909 30.5876 20.9708 30.5876C20.9505 30.5876 20.9338 30.6382 20.9338 30.7001C20.9338 30.762 20.9137 30.8127 20.8889 30.8127C20.8641 30.8127 20.844 30.8734 20.844 30.9477C20.844 31.022 20.8237 31.0828 20.7989 31.0828C20.7743 31.0828 20.754 31.1434 20.754 31.2178C20.754 31.2921 20.7337 31.3527 20.709 31.3527C20.6843 31.3527 20.664 31.4248 20.664 31.513C20.664 31.6062 20.6456 31.6618 20.6199 31.6458C20.5953 31.6306 20.563 31.6994 20.5466 31.8018C20.5305 31.9024 20.4998 31.9958 20.4782 32.009C20.4567 32.0224 20.4392 32.113 20.4392 32.2107C20.4392 32.3081 20.4189 32.3881 20.3943 32.3881C20.3695 32.3881 20.3492 32.469 20.3492 32.5681C20.3492 32.6671 20.329 32.7481 20.3043 32.7481C20.2795 32.7481 20.2593 32.8482 20.2593 32.9706C20.2593 33.0929 20.239 33.2054 20.2142 33.2208C20.1896 33.236 20.1693 33.3779 20.1693 33.5358C20.1693 33.6938 20.1513 33.8342 20.1293 33.8478C19.9841 33.9376 20.0709 37.9694 20.2182 37.9694C20.2408 37.9694 20.2593 38.0808 20.2593 38.217C20.2593 38.3532 20.2774 38.4646 20.2998 38.4646C20.3219 38.4646 20.3514 38.5507 20.3651 38.656C20.413 39.0226 20.4493 39.1858 20.489 39.2103C20.5111 39.224 20.529 39.2922 20.529 39.3619C20.529 39.4317 20.5595 39.5141 20.5966 39.5448C20.6337 39.5757 20.664 39.6591 20.664 39.7305C20.664 39.8017 20.6843 39.86 20.709 39.86C20.7337 39.86 20.754 39.9208 20.754 39.9951C20.754 40.0693 20.7743 40.13 20.7989 40.13C20.8237 40.13 20.844 40.1907 20.844 40.265C20.844 40.3393 20.8641 40.4 20.8889 40.4C20.9137 40.4 20.9338 40.4508 20.9338 40.5126C20.9338 40.5745 20.9541 40.6252 20.9789 40.6252C21.0035 40.6252 21.0238 40.6746 21.0238 40.735C21.0238 40.7955 21.0441 40.8574 21.0688 40.8728C21.0936 40.888 21.1138 40.9399 21.1138 40.9879C21.1138 41.0359 21.134 41.0753 21.1588 41.0753C21.1836 41.0753 21.2037 41.1146 21.2037 41.1626C21.2037 41.2107 21.224 41.2625 21.2488 41.2779C21.2734 41.2931 21.2937 41.3551 21.2937 41.4155C21.2937 41.4759 21.314 41.5253 21.3386 41.5253C21.3634 41.5253 21.3837 41.5474 21.3837 41.5742C21.3837 41.6472 21.6657 42.2005 21.7028 42.2005C21.7205 42.2005 21.8304 42.393 21.9471 42.6282C22.0636 42.8634 22.1768 43.0558 22.1987 43.0558C22.2204 43.0558 22.2382 43.0962 22.2382 43.1458C22.2382 43.1953 22.255 43.2358 22.2755 43.2358C22.2961 43.2358 22.3416 43.2915 22.3766 43.3596C22.4117 43.4277 22.4519 43.4935 22.4659 43.5059C22.48 43.5183 22.571 43.6499 22.6684 43.7984C22.7656 43.947 22.9009 44.1272 22.969 44.199C23.0369 44.2707 23.0927 44.3495 23.0927 44.3738C23.0927 44.3982 23.1327 44.4529 23.1819 44.4955C23.2309 44.538 23.297 44.623 23.3287 44.6842C23.4019 44.8254 23.7645 45.2537 24.0709 45.5608C24.2008 45.691 24.307 45.8101 24.307 45.8256C24.307 45.841 24.3841 45.9279 24.4782 46.0188C24.5724 46.1098 24.6628 46.2196 24.6792 46.2628C24.6956 46.3062 24.7412 46.3416 24.7805 46.3416C24.8199 46.3416 24.8403 46.3606 24.826 46.3838C24.8116 46.407 24.8915 46.4892 25.0035 46.5663C25.2048 46.7049 25.4314 46.9099 25.4314 46.9533C25.4314 46.9918 25.932 47.4669 25.9726 47.4669C25.9937 47.4669 26.0392 47.5074 26.0737 47.5567C26.1084 47.606 26.1462 47.6369 26.1578 47.6251C26.1695 47.6135 26.2826 47.6997 26.4092 47.8167C26.5359 47.9338 26.7061 48.0802 26.7872 48.1421C26.8685 48.204 26.9711 48.29 27.0152 48.3334C27.0594 48.3768 27.1113 48.4122 27.1306 48.4122C27.1498 48.4122 27.1948 48.4526 27.2304 48.5023C27.2661 48.5517 27.3211 48.5922 27.3527 48.5922C27.3845 48.5922 27.4103 48.6112 27.4103 48.6342C27.4103 48.6573 27.4483 48.6882 27.4948 48.703C27.5412 48.7178 27.6374 48.7799 27.7084 48.8411C27.7794 48.9022 27.8584 48.9522 27.8839 48.9522C27.9093 48.9523 27.9593 48.9928 27.9949 49.0423C28.0306 49.0919 28.0822 49.1323 28.1096 49.1323C28.1368 49.1323 28.2061 49.1824 28.2635 49.2435C28.3209 49.3047 28.3831 49.3453 28.4016 49.3338C28.4202 49.3224 28.447 49.3432 28.461 49.3802C28.4752 49.4172 28.5179 49.4474 28.5558 49.4474C28.5937 49.4474 28.6247 49.4652 28.6247 49.487C28.6247 49.5088 28.6854 49.5517 28.7596 49.5824C28.8338 49.6132 28.8945 49.6563 28.8945 49.678C28.8945 49.6998 28.9305 49.7175 28.9745 49.7175C29.0184 49.7175 29.0837 49.7581 29.1193 49.8076C29.155 49.857 29.2202 49.8976 29.2643 49.8976C29.3082 49.8976 29.3443 49.914 29.3443 49.9342C29.3443 49.9739 29.6853 50.1676 29.7553 50.1676C29.7788 50.1676 29.8486 50.2183 29.9105 50.2801C29.9724 50.3421 30.0486 50.3927 30.0799 50.3927C30.1112 50.3927 30.1769 50.4281 30.2257 50.4715C30.2747 50.5148 30.3443 50.5569 30.3804 50.5649C30.4166 50.5728 30.4528 50.5982 30.4611 50.6211C30.4694 50.6441 30.5039 50.6628 30.5378 50.6628C30.5718 50.6628 30.6966 50.7198 30.8152 50.7895C30.9337 50.8592 31.0966 50.9452 31.1769 50.9806C31.2574 51.0158 31.3232 51.0602 31.3232 51.0789C31.3232 51.0976 31.3494 51.1129 31.3816 51.1129C31.4643 51.1129 31.6822 51.2187 31.6826 51.2592C31.6827 51.2778 31.7222 51.2929 31.7703 51.2929C31.8182 51.2929 31.87 51.3132 31.8854 51.338C31.9006 51.3626 31.9414 51.3829 31.9759 51.3829C32.0104 51.3829 32.1133 51.4336 32.2045 51.4955C32.2955 51.5573 32.3991 51.6081 32.4345 51.6081C32.4699 51.6081 32.5294 51.6385 32.5668 51.6759C32.6041 51.7134 32.6532 51.7324 32.676 51.7183C32.6987 51.7042 32.7174 51.7141 32.7174 51.7403C32.7174 51.7666 32.7567 51.7881 32.8047 51.7881C32.8526 51.7881 32.9045 51.8084 32.9197 51.833C32.9351 51.8578 32.9868 51.8781 33.0348 51.8781C33.0829 51.8781 33.1222 51.8983 33.1222 51.9231C33.1222 51.9478 33.1615 51.9681 33.2095 51.9681C33.2574 51.9681 33.3093 51.9884 33.3245 52.013C33.3397 52.0378 33.4018 52.0581 33.4621 52.0581C33.5225 52.0581 33.5719 52.0783 33.5719 52.1031C33.5719 52.1279 33.6112 52.1481 33.6592 52.1481C33.7072 52.1481 33.759 52.1684 33.7743 52.1932C33.7896 52.2178 33.8503 52.2382 33.9092 52.2382C33.9682 52.2382 34.0289 52.2585 34.0441 52.2831C34.0595 52.3079 34.1112 52.3282 34.1592 52.3282C34.2072 52.3282 34.2466 52.3484 34.2466 52.3732C34.2466 52.398 34.3072 52.4182 34.3814 52.4182C34.4556 52.4182 34.5163 52.4385 34.5163 52.4633C34.5163 52.4879 34.5551 52.5082 34.6025 52.5082C34.6499 52.5082 34.6959 52.5296 34.7046 52.5557C34.7133 52.5818 34.7504 52.6076 34.787 52.613C34.8497 52.6222 35.054 52.6946 35.2585 52.7799C35.4711 52.8685 35.9001 53.0033 35.9698 53.0033C36.0114 53.0033 36.0455 53.0236 36.0455 53.0484C36.0455 53.0731 36.0949 53.0934 36.1553 53.0934C36.2156 53.0934 36.2762 53.1114 36.2898 53.1334C36.3035 53.1555 36.3855 53.1858 36.4723 53.201C36.5591 53.2161 36.701 53.2407 36.7875 53.2558C36.8742 53.2709 36.9451 53.3014 36.9451 53.3234C36.9451 53.3455 37.0058 53.3635 37.08 53.3635C37.1542 53.3635 37.2149 53.3838 37.2149 53.4084C37.2149 53.4332 37.2857 53.4535 37.3723 53.4535C37.4589 53.4535 37.5297 53.4737 37.5297 53.4985C37.5297 53.5233 37.609 53.5435 37.7058 53.5435C37.8028 53.5435 37.8887 53.5629 37.897 53.5865C37.9053 53.6102 37.9873 53.6346 38.0793 53.6406C38.1714 53.6467 38.2558 53.6756 38.267 53.7048C38.2782 53.7341 38.3547 53.769 38.437 53.7825C38.5193 53.796 38.6777 53.8304 38.7891 53.8589C38.9004 53.8875 39.0724 53.9215 39.1712 53.9344C39.2702 53.9473 39.3704 53.976 39.3939 53.9982C39.4175 54.0204 39.5136 54.0387 39.6075 54.0387C39.7015 54.0387 39.7785 54.0588 39.7785 54.0836C39.7785 54.1084 39.8594 54.1286 39.9584 54.1286C40.0574 54.1286 40.1382 54.1451 40.1382 54.1653C40.1382 54.1855 40.2327 54.2068 40.3482 54.2127C40.4637 54.2187 40.5939 54.2427 40.6375 54.2661C40.6813 54.2896 40.8196 54.3087 40.9449 54.3087C41.0701 54.3087 41.1726 54.3289 41.1726 54.3537C41.1726 54.3785 41.2726 54.3987 41.3949 54.3987C41.5171 54.3987 41.6296 54.419 41.6449 54.4438C41.6602 54.4684 41.7929 54.4888 41.9399 54.4888C42.088 54.4888 42.2071 54.5088 42.2071 54.5337C42.2071 54.5588 42.327 54.5788 42.477 54.5788C42.6254 54.5788 42.7469 54.5962 42.7469 54.6174C42.7469 54.6387 42.9131 54.6601 43.1163 54.665C43.3196 54.6699 43.5107 54.6944 43.5409 54.7197C43.5711 54.7448 43.6528 54.7588 43.7223 54.7509L43.8486 54.7364L43.8712 51.9006C43.8946 48.9531 43.8898 48.8623 43.7127 48.8623C43.6762 48.8623 43.6463 48.8421 43.6463 48.8173C43.6463 48.7925 43.5856 48.7723 43.5114 48.7723C43.4372 48.7723 43.3764 48.7554 43.3764 48.7348C43.3764 48.7142 43.3464 48.6972 43.3099 48.6972C43.2275 48.6972 42.8867 48.5977 42.7812 48.5429C42.7382 48.5205 42.6624 48.5023 42.6125 48.5023C42.5627 48.5023 42.5219 48.4819 42.5219 48.4571C42.5219 48.4325 42.4612 48.4122 42.387 48.4122C42.3128 48.4122 42.2521 48.3919 42.2521 48.3672C42.2521 48.3424 42.1913 48.3221 42.1171 48.3221C42.0429 48.3221 41.9822 48.3019 41.9822 48.2771C41.9822 48.2523 41.9415 48.2322 41.8916 48.2322C41.8012 48.2322 41.769 48.2195 41.5031 48.081C41.4251 48.0404 41.3288 48.007 41.2894 48.007C41.25 48.007 41.2177 47.9869 41.2177 47.9621C41.2177 47.9373 41.1772 47.9171 41.1277 47.9171C41.0783 47.9171 41.0378 47.8956 41.0378 47.8694C41.0378 47.8431 41.0212 47.832 41.0009 47.8446C40.9804 47.8572 40.9074 47.8381 40.8383 47.8022C40.7691 47.7664 40.6846 47.737 40.6503 47.737C40.6161 47.737 40.588 47.7168 40.588 47.692C40.588 47.6672 40.5574 47.647 40.52 47.647C40.4824 47.647 40.4168 47.627 40.3737 47.6026C40.199 47.5036 39.6818 47.2869 39.6199 47.2869C39.5834 47.2869 39.5536 47.2666 39.5536 47.2419C39.5536 47.2171 39.5131 47.1968 39.4636 47.1968C39.4141 47.1968 39.3737 47.1766 39.3737 47.1518C39.3737 47.127 39.3424 47.1069 39.3043 47.1069C39.2662 47.1069 39.1963 47.0713 39.1492 47.0281C39.102 46.9847 38.946 46.8893 38.8025 46.8159C38.6591 46.7426 38.5315 46.6713 38.5192 46.6574C38.5067 46.6434 38.4005 46.5819 38.2831 46.5207C38.1656 46.4594 38.0695 46.3941 38.0695 46.3755C38.0695 46.3568 38.0413 46.3416 38.0071 46.3416C37.9138 46.3416 37.7066 46.2247 37.7403 46.1909C37.7564 46.1748 37.7257 46.1616 37.6721 46.1616C37.6186 46.1616 37.5747 46.1413 37.5747 46.1166C37.5747 46.0918 37.5387 46.0715 37.4947 46.0715C37.4506 46.0715 37.3854 46.031 37.3497 45.9816C37.3141 45.932 37.257 45.8915 37.2226 45.8915C37.1884 45.8915 37.1206 45.8409 37.0719 45.7789C37.0232 45.7171 36.9596 45.6657 36.9304 45.6646C36.9015 45.6636 36.8075 45.6028 36.7219 45.5296C36.6362 45.4563 36.5474 45.3964 36.5243 45.3964C36.5013 45.3964 36.4245 45.3357 36.3536 45.2614C36.2826 45.1871 36.2035 45.1264 36.1777 45.1264C36.1517 45.1264 36.0659 45.0657 35.9869 44.9915C35.9078 44.9173 35.8297 44.8566 35.8133 44.8564C35.7968 44.8564 35.6301 44.7044 35.4427 44.5187C35.2555 44.3329 35.0865 44.1811 35.0675 44.1811C35.0484 44.1811 35.0075 44.1406 34.9766 44.091C34.9456 44.0415 34.9008 44.0011 34.877 44.0011C34.8212 44.0011 34.4264 43.6071 34.4264 43.5517C34.4264 43.5286 34.3556 43.4532 34.2691 43.384C34.1824 43.315 34.1117 43.2426 34.1117 43.2234C34.1117 43.2042 34.0205 43.0972 33.9092 42.9859C33.7979 42.8745 33.7069 42.7645 33.7069 42.7416C33.7069 42.7185 33.6563 42.6492 33.5944 42.5873C33.5325 42.5253 33.4819 42.4524 33.4819 42.4251C33.4819 42.3977 33.4616 42.3878 33.437 42.4032C33.4122 42.4184 33.3919 42.3985 33.3919 42.3588C33.3919 42.3191 33.3413 42.232 33.2796 42.1653C33.2177 42.0986 33.1671 42.0229 33.1671 41.9972C33.1671 41.9714 33.1267 41.9212 33.0771 41.8855C33.0277 41.8498 32.9873 41.7938 32.9873 41.7612C32.9873 41.7284 32.9467 41.6582 32.8973 41.605C32.8478 41.5519 32.8073 41.4818 32.8073 41.4493C32.8073 41.417 32.7871 41.3903 32.7623 41.3903C32.7376 41.3903 32.7174 41.3606 32.7174 41.3242C32.7174 41.2879 32.6789 41.1893 32.6316 41.1053C32.5502 40.9602 32.5049 40.8742 32.4025 40.6709C32.3778 40.6215 32.3575 40.5508 32.3575 40.5132C32.3575 40.4758 32.3374 40.4452 32.3126 40.4452C32.2878 40.4452 32.2677 40.4045 32.2677 40.3551C32.2677 40.3056 32.2474 40.265 32.2226 40.265C32.198 40.265 32.1777 40.2238 32.1777 40.1732C32.1777 40.1227 32.1372 40.002 32.0877 39.905C32.0383 39.808 31.9978 39.6865 31.9978 39.6353C31.9978 39.584 31.9674 39.5303 31.9303 39.5161C31.8864 39.4993 31.8629 39.4292 31.8629 39.3151C31.8629 39.2186 31.8426 39.1397 31.8178 39.1397C31.7932 39.1397 31.7729 39.0486 31.7729 38.9372C31.7729 38.8258 31.7526 38.7347 31.728 38.7347C31.7032 38.7347 31.6829 38.6333 31.6829 38.5096C31.6829 38.3859 31.6627 38.2845 31.638 38.2845C31.6111 38.2845 31.593 38.112 31.593 37.8569C31.593 37.6019 31.5749 37.4293 31.5479 37.4293C31.4888 37.4293 31.4888 36.7683 31.5479 36.7316C31.5732 36.7161 31.593 36.5062 31.593 36.2564C31.593 35.9881 31.611 35.8089 31.638 35.8089C31.6627 35.8089 31.6829 35.7077 31.6829 35.5838C31.6829 35.4601 31.7032 35.3588 31.728 35.3588C31.7526 35.3588 31.7729 35.2777 31.7729 35.1788C31.7729 35.0798 31.7932 34.9987 31.8178 34.9987C31.8426 34.9987 31.8629 34.9364 31.8629 34.8604C31.8629 34.7844 31.8932 34.6919 31.9303 34.6548C31.9674 34.6175 31.9978 34.5278 31.9978 34.4553C31.9978 34.3828 32.018 34.3235 32.0427 34.3235C32.0675 34.3235 32.0877 34.2842 32.0877 34.2361C32.0877 34.1881 32.108 34.1363 32.1328 34.121C32.1574 34.1057 32.1777 34.045 32.1777 33.9859C32.1777 33.927 32.198 33.8663 32.2226 33.8509C32.2474 33.8357 32.2677 33.7837 32.2677 33.7357C32.2677 33.6877 32.2878 33.6484 32.3126 33.6484C32.3374 33.6484 32.3575 33.6078 32.3575 33.5583C32.3575 33.5089 32.3778 33.4682 32.4025 33.4682C32.4273 33.4682 32.4475 33.4398 32.4475 33.405C32.4475 33.33 32.6351 32.9572 32.6836 32.9356C32.7022 32.9274 32.7174 32.8818 32.7174 32.8344C32.7174 32.7869 32.7376 32.7481 32.7623 32.7481C32.7871 32.7481 32.8073 32.7178 32.8073 32.6806C32.8073 32.6435 32.8225 32.6129 32.841 32.6127C32.8787 32.6123 32.9873 32.3966 32.9873 32.3222C32.9873 32.296 33.0379 32.2363 33.0996 32.1899C33.1615 32.1434 33.2121 32.0878 33.2121 32.0662C33.2121 32.0447 33.2728 31.9635 33.347 31.8858C33.4212 31.8081 33.4819 31.7263 33.4819 31.7041C33.4819 31.682 33.5274 31.6165 33.5831 31.559C33.7514 31.3846 33.8418 31.2642 33.8418 31.2145C33.8418 31.1392 35.6013 29.4099 35.722 29.3664C35.7746 29.3475 36.1104 29.0631 36.3397 28.8433C36.4236 28.763 36.5233 28.6971 36.5613 28.6971C36.5991 28.6971 36.6301 28.6768 36.6301 28.652C36.6301 28.6273 36.6606 28.607 36.6977 28.607C36.7348 28.607 36.7651 28.5867 36.7651 28.5621C36.7651 28.5373 36.7955 28.517 36.8326 28.517C36.8697 28.517 36.9 28.4968 36.9 28.472C36.9 28.4472 36.9212 28.427 36.947 28.427C36.9726 28.427 37.0373 28.3866 37.0903 28.337C37.1433 28.2875 37.2134 28.247 37.2458 28.247C37.2783 28.247 37.3048 28.2267 37.3048 28.2019C37.3048 28.1773 37.3313 28.157 37.3638 28.157C37.3963 28.157 37.4663 28.1165 37.5193 28.0669C37.5725 28.0174 37.6341 27.9769 37.6561 27.9769C37.6783 27.9769 37.751 27.9263 37.8177 27.8644C37.8845 27.8024 37.9684 27.7518 38.0042 27.7518C38.04 27.7518 38.0695 27.7315 38.0695 27.7069C38.0695 27.6821 38.1054 27.6617 38.1495 27.6617C38.1934 27.6617 38.2586 27.6213 38.2943 27.5718C38.3299 27.5222 38.3951 27.4817 38.4392 27.4817C38.4831 27.4817 38.5192 27.4614 38.5192 27.4368C38.5192 27.412 38.5596 27.3917 38.609 27.3917C38.6586 27.3917 38.6991 27.3715 38.6991 27.3467C38.6991 27.3219 38.7395 27.3017 38.7891 27.3017C38.8385 27.3017 38.8789 27.2814 38.8789 27.2568C38.8789 27.232 38.9053 27.2117 38.9375 27.2117C39.0202 27.2117 39.2379 27.1058 39.2383 27.0654C39.2386 27.0469 39.2592 27.0317 39.2843 27.0317C39.366 27.0317 40.0033 26.7085 40.0033 26.667C40.0033 26.6447 40.0426 26.6265 40.0907 26.6265C40.1387 26.6265 40.1904 26.6062 40.2058 26.5816C40.221 26.5568 40.2727 26.5365 40.3208 26.5365C40.3688 26.5365 40.4081 26.5163 40.4081 26.4915C40.4081 26.4667 40.4485 26.4465 40.4981 26.4465C40.5475 26.4465 40.588 26.4262 40.588 26.4014C40.588 26.3768 40.6374 26.3564 40.6978 26.3564C40.7581 26.3564 40.8201 26.3363 40.8354 26.3115C40.8507 26.2867 40.9025 26.2665 40.9504 26.2665C40.9984 26.2665 41.0378 26.2462 41.0378 26.2214C41.0378 26.1967 41.0984 26.1764 41.1726 26.1764C41.247 26.1764 41.3075 26.1561 41.3075 26.1315C41.3075 26.1067 41.3468 26.0864 41.3949 26.0864C41.4429 26.0864 41.4946 26.0662 41.51 26.0414C41.5252 26.0166 41.5973 25.9964 41.67 25.9964C41.7428 25.9964 41.8023 25.9761 41.8023 25.9513C41.8023 25.9267 41.8428 25.9064 41.8923 25.9064C41.9418 25.9064 41.9822 25.886 41.9822 25.8614C41.9822 25.8366 42.0177 25.8158 42.0609 25.8151C42.1771 25.8135 42.7419 25.6141 42.8025 25.5534C42.8312 25.5247 42.9114 25.5012 42.9806 25.5012C43.0499 25.5012 43.1066 25.4809 43.1066 25.4563C43.1066 25.4315 43.1662 25.4112 43.2389 25.4112C43.3117 25.4112 43.3837 25.391 43.3989 25.3662C43.4143 25.3414 43.475 25.3212 43.5338 25.3212C43.5928 25.3212 43.6536 25.3009 43.6688 25.2763C43.6841 25.2515 43.7776 25.2311 43.8765 25.2311C43.985 25.2311 44.0453 25.2133 44.0286 25.1862C44.0121 25.1595 44.0647 25.1412 44.1582 25.1412C44.2447 25.1412 44.3281 25.1209 44.3434 25.0961C44.3587 25.0714 44.4397 25.0511 44.5233 25.0511C44.6069 25.0511 44.6879 25.0308 44.7032 25.0062C44.7185 24.9814 44.8108 24.9611 44.9082 24.9611C45.0058 24.9611 45.0855 24.9409 45.0855 24.9161C45.0855 24.8913 45.1665 24.8711 45.2653 24.8711C45.3643 24.8711 45.4454 24.8508 45.4454 24.826C45.4454 24.8014 45.5262 24.7811 45.6252 24.7811C45.7242 24.7811 45.8051 24.7607 45.8051 24.7361C45.8051 24.7113 45.9023 24.691 46.021 24.691C46.1397 24.691 46.2561 24.6718 46.2796 24.6485C46.3031 24.625 46.4096 24.6008 46.5164 24.5945C46.6231 24.5881 46.7205 24.5668 46.7326 24.5471C46.7448 24.5272 46.8499 24.5104 46.9658 24.5095C47.0819 24.5088 47.2161 24.4783 47.2641 24.4421C47.3128 24.4052 47.4472 24.3759 47.5677 24.3759C47.6867 24.3759 47.784 24.3558 47.784 24.331C47.784 24.305 47.9256 24.286 48.1186 24.286C48.3027 24.286 48.4659 24.2657 48.4811 24.2409C48.4965 24.2162 48.6584 24.1959 48.841 24.1959C49.0236 24.1959 49.1855 24.1756 49.2007 24.151C49.2161 24.1262 49.4095 24.1058 49.6307 24.1058C49.8687 24.1058 50.0327 24.0876 50.0327 24.0609C50.0327 24.0329 50.2801 24.0159 50.6849 24.0159C51.0973 24.0159 51.337 23.9991 51.337 23.9701C51.337 23.8803 57.2025 23.972 57.294 24.0632C57.3175 24.0867 57.5553 24.1058 57.8224 24.1058C58.1163 24.1058 58.3082 24.1237 58.3082 24.151C58.3082 24.1774 58.4656 24.1959 58.6904 24.1959C58.9154 24.1959 59.0728 24.2145 59.0728 24.2409C59.0728 24.2674 59.2301 24.286 59.4551 24.286C59.6799 24.286 59.8373 24.3044 59.8373 24.331C59.8373 24.3558 59.9502 24.3759 60.0879 24.3759C60.2506 24.3759 60.3621 24.3996 60.406 24.4435C60.4492 24.4867 60.5602 24.511 60.715 24.511C60.8477 24.511 60.9689 24.5313 60.9843 24.5559C60.9995 24.5807 61.1221 24.601 61.2567 24.601C61.3912 24.601 61.5014 24.6212 61.5014 24.646C61.5014 24.6708 61.6025 24.691 61.7263 24.691C61.8499 24.691 61.9511 24.7093 61.9511 24.7314C61.9511 24.7538 62.0372 24.7835 62.1423 24.7976C62.6501 24.8656 62.7413 24.8832 62.781 24.9207C62.8045 24.9429 62.8791 24.9611 62.9469 24.9611C63.0148 24.9611 63.0827 24.9814 63.0981 25.0062C63.1133 25.0308 63.1943 25.0511 63.278 25.0511C63.3616 25.0511 63.4426 25.0714 63.4578 25.0961C63.4732 25.1209 63.5541 25.1412 63.6377 25.1412C63.7215 25.1412 63.8023 25.1614 63.8177 25.1862C63.8329 25.211 63.9049 25.2311 63.9777 25.2311C64.0505 25.2311 64.11 25.2515 64.11 25.2763C64.11 25.3009 64.1807 25.3212 64.2674 25.3212C64.3539 25.3212 64.4248 25.3414 64.4248 25.3662C64.4248 25.391 64.4844 25.4112 64.5571 25.4112C64.6299 25.4112 64.7019 25.4315 64.7171 25.4563C64.7324 25.4809 64.8124 25.5012 64.8948 25.5012C64.9867 25.5012 65.0548 25.5275 65.0708 25.5688C65.085 25.606 65.134 25.6363 65.1795 25.6363C65.2251 25.6363 65.3461 25.6767 65.4486 25.7263C65.5509 25.7758 65.6763 25.8163 65.7269 25.8163C65.7776 25.8163 65.8191 25.8366 65.8191 25.8614C65.8191 25.886 65.8583 25.9064 65.9063 25.9064C65.9543 25.9064 66.0062 25.9267 66.0214 25.9513C66.0367 25.9761 66.0986 25.9964 66.1591 25.9964C66.2194 25.9964 66.2688 26.0166 66.2688 26.0414C66.2688 26.0662 66.3092 26.0864 66.3588 26.0864C66.4082 26.0864 66.4486 26.1067 66.4486 26.1315C66.4486 26.1561 66.5094 26.1764 66.5836 26.1764C66.6578 26.1764 66.7185 26.1967 66.7185 26.2214C66.7185 26.2462 66.7482 26.2665 66.7846 26.2665C66.821 26.2665 66.9227 26.307 67.0108 26.3564C67.099 26.4061 67.2007 26.4465 67.2371 26.4465C67.2735 26.4465 67.3032 26.4667 67.3032 26.4915C67.3032 26.5163 67.3437 26.5365 67.3932 26.5365C67.4426 26.5365 67.4832 26.5568 67.4832 26.5816C67.4832 26.6062 67.5219 26.6265 67.5693 26.6265C67.6167 26.6265 67.6623 26.6435 67.6706 26.6641C67.6787 26.6848 67.8372 26.7806 68.0228 26.8769C68.2083 26.9732 68.3668 27.0676 68.3751 27.0868C68.3833 27.1061 68.4187 27.1217 68.4538 27.1217C68.4889 27.1217 68.5175 27.1419 68.5175 27.1667C68.5175 27.1915 68.558 27.2117 68.6076 27.2117C68.657 27.2117 68.6974 27.232 68.6974 27.2568C68.6974 27.2814 68.7239 27.3017 68.7564 27.3017C68.7889 27.3017 68.8589 27.3422 68.9119 27.3917C68.9651 27.4413 69.0397 27.4817 69.0779 27.4817C69.116 27.4817 69.1471 27.502 69.1471 27.5267C69.1471 27.5515 69.1787 27.5718 69.2173 27.5718C69.2558 27.5718 69.277 27.5886 69.2644 27.6092C69.2516 27.6298 69.3112 27.6741 69.3966 27.7076C69.4821 27.7412 69.5519 27.7849 69.5519 27.8046C69.5519 27.8368 69.7828 28.006 70.0079 28.1384C70.0537 28.1654 70.0777 28.2009 70.0614 28.2171C70.0451 28.2335 70.055 28.247 70.0834 28.247C70.1315 28.247 70.2618 28.3496 70.5266 28.5957C70.5865 28.6516 70.6598 28.6978 70.6897 28.6987C70.7194 28.6996 70.8247 28.792 70.9237 28.904C71.0227 29.0159 71.2604 29.2664 71.4521 29.4607C71.6439 29.6549 71.8007 29.8268 71.8007 29.8426C71.8007 29.8585 71.8462 29.9177 71.9019 29.9741C71.9575 30.0306 72.0538 30.1443 72.1155 30.2268C72.1774 30.3093 72.2533 30.4025 72.2842 30.4339C72.3151 30.4654 72.3404 30.5129 72.3404 30.5394C72.3404 30.5658 72.3607 30.5876 72.3854 30.5876C72.4101 30.5876 72.4304 30.618 72.4304 30.6551C72.4304 30.6923 72.4506 30.7226 72.4754 30.7226C72.5001 30.7226 72.5203 30.7529 72.5203 30.79C72.5203 30.8273 72.5406 30.8576 72.5654 30.8576C72.59 30.8576 72.6103 30.8849 72.6103 30.9181C72.6103 30.9515 72.6507 31.0153 72.7001 31.0601C72.7497 31.1049 72.7901 31.1675 72.7901 31.1989C72.7901 31.2306 72.8155 31.2836 72.8464 31.3172C72.9235 31.4007 73.0603 31.6286 73.0905 31.7242C73.1042 31.7674 73.1334 31.8029 73.1552 31.8029C73.1771 31.8029 73.1949 31.8434 73.1949 31.8929C73.1949 31.9425 73.2152 31.9829 73.2399 31.9829C73.2647 31.9829 73.2849 32.0222 73.2849 32.0703C73.2849 32.1184 73.3051 32.1702 73.3299 32.1854C73.3547 32.2008 73.3748 32.2526 73.3748 32.3006C73.3748 32.3487 73.3951 32.3881 73.4199 32.3881C73.4445 32.3881 73.4648 32.4387 73.4648 32.5006C73.4648 32.5624 73.4851 32.613 73.5097 32.613C73.5345 32.613 73.5548 32.6523 73.5548 32.7005C73.5548 32.7485 73.575 32.8003 73.5997 32.8157C73.6245 32.8309 73.6447 32.8889 73.6447 32.9443C73.6447 32.9997 73.6648 33.0653 73.6895 33.09C73.714 33.1146 73.7386 33.1895 73.7442 33.2565C73.7497 33.3235 73.77 33.3783 73.7895 33.3783C73.8087 33.3783 73.8245 33.4278 73.8245 33.4881C73.8245 33.5486 73.8448 33.6105 73.8696 33.6259C73.8942 33.6411 73.9145 33.7118 73.9145 33.7829C73.9145 33.8539 73.945 33.9424 73.9821 33.9795C74.0199 34.0174 74.0495 34.1274 74.0495 34.2303C74.0495 34.3311 74.0698 34.4135 74.0944 34.4135C74.1192 34.4135 74.1395 34.5035 74.1395 34.6134C74.1395 34.7234 74.1596 34.8259 74.1844 34.8411C74.2092 34.8565 74.2293 34.9881 74.2293 35.1337C74.2293 35.2793 74.2496 35.411 74.2744 35.4263C74.3005 35.4425 74.3193 35.6959 74.3193 36.034C74.3193 36.372 74.338 36.6254 74.3643 36.6417C74.4183 36.6752 74.4254 37.3843 74.3717 37.3843C74.3509 37.3843 74.3295 37.6615 74.3238 38.0002C74.3182 38.339 74.2947 38.6516 74.2715 38.695C74.2483 38.7384 74.2293 38.8751 74.2293 38.9992C74.2293 39.123 74.2092 39.237 74.1844 39.2523C74.1596 39.2676 74.1395 39.37 74.1395 39.48C74.1395 39.5899 74.1231 39.6799 74.1032 39.6799C74.0834 39.6799 74.0621 39.7655 74.0558 39.87C74.0496 39.9746 74.0234 40.0734 73.9973 40.0895C73.9713 40.1056 73.9334 40.2074 73.9131 40.3156C73.8928 40.424 73.8513 40.5734 73.8211 40.6476C73.7906 40.7219 73.7602 40.811 73.7532 40.8456C73.7151 41.0365 73.6203 41.3004 73.5899 41.3004C73.5706 41.3004 73.5548 41.3408 73.5548 41.3903C73.5548 41.4399 73.5389 41.4804 73.5196 41.4804C73.5002 41.4804 73.4799 41.5361 73.4742 41.6041C73.4686 41.6723 73.4439 41.7346 73.4194 41.7429C73.395 41.7512 73.3748 41.7847 73.3748 41.8175C73.3748 41.8897 73.186 42.2621 73.1387 42.2831C73.1202 42.2914 73.1049 42.3426 73.1049 42.3969C73.1049 42.4513 73.0645 42.525 73.0151 42.5607C72.9655 42.5964 72.9248 42.6566 72.9244 42.6944C72.9239 42.7323 72.8632 42.8318 72.7894 42.9156C72.7157 42.9995 72.6552 43.0962 72.6552 43.1308C72.6552 43.1654 72.6249 43.2053 72.5878 43.2195C72.5507 43.2337 72.5203 43.2796 72.5203 43.3212C72.5203 43.3628 72.4394 43.4866 72.3404 43.5959C72.2414 43.7053 72.1606 43.821 72.1606 43.853C72.1606 43.8849 72.1438 43.911 72.1232 43.911C72.1026 43.911 72.0571 43.9662 72.022 44.0338C71.9468 44.1786 70.6444 45.4936 70.3837 45.6878C70.285 45.7615 70.1576 45.8679 70.1008 45.9241C70.0441 45.9804 69.9792 46.0265 69.9567 46.0265C69.9343 46.0265 69.8653 46.0772 69.8034 46.1391C69.7415 46.201 69.669 46.2517 69.6421 46.2517C69.6151 46.2517 69.5532 46.2889 69.5044 46.3345C69.4556 46.38 69.3602 46.4459 69.2926 46.4807C69.225 46.5156 69.1429 46.58 69.1103 46.6237C69.0777 46.6675 69.0322 46.6916 69.0092 46.6774C68.9861 46.663 68.9673 46.6708 68.9673 46.6946C68.9673 46.7184 68.9116 46.7577 68.8436 46.7821C68.7755 46.8063 68.6693 46.8687 68.6076 46.9206C68.5457 46.9727 68.4706 47.0358 68.4407 47.061C68.4109 47.0863 68.3451 47.1069 68.2945 47.1069C68.2441 47.1069 68.2028 47.1257 68.2028 47.1489C68.2028 47.1721 68.1319 47.2167 68.0454 47.248C67.9587 47.2793 67.8878 47.3211 67.8878 47.341C67.8878 47.3607 67.8372 47.377 67.7755 47.377C67.7136 47.377 67.663 47.3948 67.663 47.4167C67.663 47.4386 67.6226 47.467 67.573 47.4799C67.4106 47.5226 67.4782 47.6383 67.8135 47.8909C68.1323 48.1309 68.5531 48.5861 68.6986 48.8482C69.1415 49.646 69.1844 49.6619 69.7143 49.225C69.9656 49.0178 70.0238 48.9757 70.1485 48.911C70.2162 48.8758 70.2715 48.8302 70.2715 48.8096C70.2715 48.7892 70.2976 48.7723 70.3293 48.7723C70.3612 48.7723 70.4776 48.6918 70.5881 48.5935C70.6985 48.4951 70.8018 48.4142 70.8178 48.4135C70.8439 48.4123 71.0317 48.2542 71.2198 48.0749C71.2589 48.0377 71.3065 48.007 71.3255 48.007C71.3443 48.007 71.4134 47.9499 71.4791 47.8798C71.5446 47.8099 71.6995 47.6765 71.8232 47.5831C72.0978 47.3761 72.7901 46.71 72.7901 46.653C72.7901 46.6302 72.8164 46.6117 72.8484 46.6117C72.8804 46.6117 73.0474 46.4579 73.2194 46.2701C73.3915 46.0821 73.6537 45.803 73.8021 45.6497C73.9505 45.4965 74.1524 45.2705 74.2506 45.1474C74.3489 45.0244 74.4653 44.8973 74.5092 44.865C74.5533 44.8326 74.5892 44.7769 74.5892 44.7412C74.5892 44.7056 74.6701 44.5904 74.7691 44.4852C74.868 44.3801 74.9489 44.2732 74.9489 44.2475C74.9489 44.222 74.9895 44.1718 75.0389 44.1361C75.0883 44.1004 75.1289 44.044 75.1289 44.0108C75.1289 43.9774 75.1804 43.8959 75.2433 43.8293C75.3759 43.6892 75.7136 43.1701 75.7136 43.1065C75.7136 43.0827 75.7294 43.0565 75.7488 43.0482C75.8024 43.0254 75.9834 42.6994 75.9834 42.6255C75.9834 42.5899 76.0036 42.5607 76.0284 42.5607C76.0532 42.5607 76.0733 42.5276 76.0733 42.4872C76.0733 42.4467 76.1088 42.381 76.152 42.3408C76.1953 42.3008 76.2366 42.2328 76.2439 42.1895C76.2511 42.1464 76.3068 42.0574 76.3677 41.9917C76.4284 41.9261 76.4782 41.8398 76.4782 41.8002C76.4784 41.7605 76.5188 41.6617 76.5682 41.5806C76.6177 41.4995 76.658 41.3932 76.658 41.3443C76.658 41.2953 76.6782 41.2553 76.703 41.2553C76.7277 41.2553 76.748 41.2148 76.748 41.1653C76.748 41.1157 76.7683 41.0753 76.7929 41.0753C76.8177 41.0753 76.838 41.0235 76.838 40.9601C76.838 40.8967 76.8539 40.8548 76.8736 40.867C76.8932 40.8791 76.912 40.8519 76.9154 40.8063C76.9188 40.7609 76.9635 40.6371 77.0146 40.531C77.0659 40.425 77.1078 40.2926 77.1078 40.2367C77.1078 40.181 77.128 40.1229 77.1528 40.1075C77.1775 40.0922 77.1977 40.0303 77.1977 39.9698C77.1977 39.9093 77.218 39.86 77.2428 39.86C77.2674 39.86 77.2877 39.7992 77.2877 39.725C77.2877 39.6507 77.308 39.5899 77.3326 39.5899C77.3574 39.5899 77.3777 39.5083 77.3777 39.4085C77.3777 39.3048 77.4018 39.2176 77.4338 39.2053C77.4648 39.1934 77.4955 39.1085 77.502 39.0168C77.5086 38.9252 77.5339 38.8303 77.5583 38.8059C77.5826 38.7816 77.6025 38.696 77.6025 38.6158C77.6025 38.5356 77.6228 38.4574 77.6474 38.4422C77.6722 38.4268 77.6925 38.3142 77.6925 38.1918C77.6925 38.0695 77.7126 37.9694 77.7374 37.9694C77.7628 37.9694 77.7823 37.8419 77.7823 37.6769C77.7823 37.516 77.8002 37.3843 77.8221 37.3843C77.8438 37.3843 77.8651 37.1672 77.8693 36.9017C77.8735 36.6361 77.8957 36.4074 77.9186 36.3933C77.991 36.3485 77.9015 33.9314 77.8245 33.8532C77.8013 33.8296 77.7823 33.7145 77.7823 33.5973C77.7823 33.48 77.7632 33.3335 77.7396 33.2716C77.7161 33.2098 77.6921 33.0666 77.6863 32.9536C77.6805 32.8406 77.6592 32.7481 77.639 32.7481C77.619 32.7481 77.6025 32.6985 77.6025 32.6378C77.6025 32.472 77.4731 32.0076 77.4222 31.9905C77.3977 31.9822 77.3777 31.9074 77.3777 31.8243C77.3777 31.7411 77.3574 31.6606 77.3326 31.6454C77.308 31.63 77.2877 31.5579 77.2877 31.4851C77.2877 31.4123 77.2674 31.3527 77.2428 31.3527C77.218 31.3527 77.1977 31.3119 77.1977 31.2622C77.1977 31.2123 77.1788 31.1363 77.1558 31.0933C77.1326 31.0504 77.0877 30.919 77.0559 30.8014C77.0242 30.6837 76.9823 30.5876 76.963 30.5876C76.9438 30.5876 76.9278 30.5482 76.9278 30.5002C76.9278 30.4521 76.9077 30.4003 76.8829 30.3851C76.8581 30.3697 76.838 30.3078 76.838 30.2473C76.838 30.1869 76.8177 30.1375 76.7929 30.1375C76.7683 30.1375 76.748 30.1092 76.748 30.0745C76.748 30.0398 76.6872 29.8961 76.613 29.7548C76.5388 29.6137 76.4781 29.4785 76.4781 29.4544C76.4781 29.4305 76.4475 29.3803 76.4103 29.3429C76.3729 29.3056 76.3539 29.2563 76.368 29.2335C76.382 29.2109 76.3619 29.1922 76.3233 29.1922C76.2832 29.1922 76.2533 29.1537 76.2533 29.1022C76.2533 29.0526 76.233 29.0122 76.2082 29.0122C76.1836 29.0122 76.1633 28.9615 76.1633 28.8996C76.1633 28.8377 76.143 28.787 76.1184 28.787C76.0936 28.787 76.0733 28.7466 76.0733 28.6971C76.0733 28.6475 76.0532 28.607 76.0284 28.607C76.0036 28.607 75.9834 28.574 75.9834 28.5335C75.9834 28.4932 75.9465 28.4273 75.9013 28.3873C75.8562 28.3473 75.7905 28.2486 75.7553 28.1681C75.7202 28.0878 75.6763 28.0219 75.6576 28.0219C75.6389 28.0219 75.6236 27.9932 75.6236 27.9581C75.6236 27.9231 75.6072 27.8876 75.5872 27.8793C75.5672 27.8711 75.4849 27.7482 75.4043 27.606C75.3237 27.464 75.2305 27.3325 75.197 27.3135C75.1636 27.2946 75.1295 27.2491 75.1212 27.2121C75.1131 27.1753 75.0507 27.0911 74.9827 27.0253C74.9147 26.9594 74.8591 26.8833 74.8591 26.856C74.8591 26.8289 74.8388 26.8065 74.814 26.8065C74.7893 26.8065 74.7691 26.7762 74.7691 26.7391C74.7691 26.702 74.7488 26.6715 74.7241 26.6715C74.6993 26.6715 74.6791 26.6412 74.6791 26.604C74.6791 26.5669 74.6608 26.5365 74.6383 26.5365C74.616 26.5365 74.5272 26.4403 74.4411 26.3226C74.2196 26.0204 74.1425 25.9277 73.9258 25.7033C73.8206 25.5945 73.7347 25.4935 73.7347 25.479C73.7347 25.447 72.8836 24.601 72.8515 24.601C72.818 24.601 72.7001 24.4773 72.7001 24.4422C72.7001 24.4257 72.6345 24.3513 72.5541 24.2769C72.4736 24.2025 72.3132 24.0526 72.1975 23.9437C72.0817 23.8349 71.9698 23.7458 71.9488 23.7458C71.9278 23.7458 71.8813 23.7052 71.8456 23.6558C71.81 23.6063 71.7658 23.5657 71.7474 23.5657C71.7288 23.5657 71.6474 23.5059 71.5661 23.433C71.4849 23.3599 71.3273 23.2181 71.216 23.1179C71.1047 23.0177 71.0015 22.9356 70.9868 22.9356C70.972 22.9356 70.9181 22.9002 70.8669 22.8568C70.6204 22.6481 70.5823 22.6205 70.5409 22.6205C70.5165 22.6205 70.4965 22.6002 70.4965 22.5754C70.4965 22.5508 70.4705 22.5305 70.4389 22.5305C70.4073 22.5305 70.3522 22.49 70.3166 22.4404C70.2809 22.3909 70.2249 22.3505 70.1921 22.3505C70.1593 22.3505 70.0831 22.3008 70.0225 22.2404C69.893 22.1105 69.5299 21.8553 69.4751 21.8553C69.4541 21.8553 69.4077 21.8148 69.3721 21.7653C69.3364 21.7157 69.2712 21.6752 69.2271 21.6752C69.1832 21.6752 69.1471 21.6549 69.1471 21.6303C69.1471 21.6055 69.1141 21.5852 69.0738 21.5852C69.0334 21.5852 68.9676 21.5483 68.9276 21.5031C68.8876 21.4578 68.7906 21.3928 68.7119 21.3585C68.6334 21.3241 68.5789 21.2801 68.5909 21.2605C68.6029 21.2411 68.5599 21.2252 68.4951 21.2252C68.428 21.2252 68.3893 21.2057 68.4051 21.1802C68.4204 21.1554 68.4045 21.1351 68.3697 21.1351C68.3351 21.1351 68.2478 21.0845 68.1759 21.0227C68.1041 20.9607 68.02 20.9101 67.9891 20.9101C67.9581 20.9101 67.9329 20.8886 67.9329 20.8624C67.9329 20.8361 67.9142 20.8263 67.8914 20.8403C67.8688 20.8544 67.8196 20.8353 67.7823 20.798C67.7449 20.7606 67.6945 20.73 67.67 20.73C67.6455 20.73 67.6188 20.7149 67.6106 20.6963C67.589 20.6476 67.2165 20.4599 67.1416 20.4599C67.1068 20.4599 67.0784 20.4397 67.0784 20.4149C67.0784 20.3901 67.0378 20.3699 66.9884 20.3699C66.9389 20.3699 66.8984 20.3496 66.8984 20.325C66.8984 20.3002 66.8579 20.2799 66.8085 20.2799C66.7589 20.2799 66.7184 20.2646 66.7182 20.2461C66.7178 20.2057 66.4999 20.0999 66.4172 20.0999C66.385 20.0999 66.3588 20.082 66.3588 20.0601C66.3588 20.0382 66.3233 20.008 66.2801 19.9931C66.2368 19.9782 66.1407 19.9267 66.0665 19.8787C65.9922 19.8306 65.896 19.7899 65.8528 19.788C65.8095 19.7863 65.774 19.7645 65.774 19.7397C65.774 19.715 65.7477 19.6947 65.7156 19.6947C65.6328 19.6947 65.415 19.5888 65.4146 19.5485C65.4144 19.53 65.3738 19.5147 65.3243 19.5147C65.2748 19.5147 65.2344 19.4944 65.2344 19.4696C65.2344 19.445 65.1838 19.4246 65.1219 19.4246C65.06 19.4246 65.0095 19.4045 65.0095 19.3797C65.0095 19.3549 64.96 19.3347 64.8998 19.3347C64.8393 19.3347 64.7774 19.3144 64.7621 19.2896C64.7468 19.2649 64.695 19.2446 64.647 19.2446C64.599 19.2446 64.5597 19.2243 64.5597 19.1997C64.5597 19.1749 64.5205 19.1546 64.4725 19.1546C64.4244 19.1546 64.3726 19.1344 64.3573 19.1096C64.3421 19.0848 64.2802 19.0646 64.2197 19.0646C64.1594 19.0646 64.11 19.0443 64.11 19.0195C64.11 18.9949 64.0594 18.9746 63.9975 18.9746C63.9357 18.9746 63.8851 18.9543 63.8851 18.9296C63.8851 18.9048 63.837 18.8845 63.7781 18.8845C63.7194 18.8845 63.6477 18.8562 63.619 18.8214C63.5901 18.7867 63.4764 18.7317 63.3661 18.6991C63.2558 18.6665 63.1655 18.624 63.1655 18.6047C63.1655 18.5852 63.1048 18.5694 63.0306 18.5694C62.9564 18.5694 62.8956 18.5491 62.8956 18.5245C62.8956 18.4997 62.845 18.4794 62.7832 18.4794C62.7214 18.4794 62.6708 18.4592 62.6708 18.4344C62.6708 18.4097 62.6101 18.3894 62.5359 18.3894C62.4617 18.3894 62.401 18.3691 62.401 18.3445C62.401 18.3197 62.3402 18.2993 62.266 18.2993C62.1918 18.2993 62.1311 18.2792 62.1311 18.2544C62.1311 18.2296 62.0704 18.2094 61.9962 18.2094C61.922 18.2094 61.8612 18.1891 61.8612 18.1643C61.8612 18.1396 61.7904 18.1193 61.7039 18.1193C61.6172 18.1193 61.5465 18.099 61.5465 18.0744C61.5465 18.0496 61.4869 18.0293 61.4141 18.0293C61.3414 18.0293 61.2693 18.0091 61.2541 17.9843C61.2388 17.9595 61.1566 17.9393 61.0715 17.9393C60.9864 17.9393 60.9167 17.919 60.9167 17.8942C60.9167 17.8696 60.8572 17.8493 60.7844 17.8493C60.7118 17.8493 60.6398 17.829 60.6244 17.8043C60.6092 17.7795 60.5457 17.7592 60.4837 17.7592C60.4215 17.7592 60.3403 17.7289 60.3032 17.6917C60.266 17.6546 60.1764 17.6241 60.1039 17.6241C60.0315 17.6241 59.9722 17.606 59.9722 17.584C59.9722 17.5618 59.8913 17.5315 59.7923 17.5164C59.6934 17.5014 59.5313 17.4769 59.4323 17.462C59.3332 17.4469 59.2409 17.4166 59.2272 17.3944C59.2136 17.3722 59.1429 17.3542 59.0701 17.3542C58.9974 17.3542 58.9378 17.3339 58.9378 17.3091C58.9378 17.2844 58.8468 17.2641 58.7355 17.2641C58.6242 17.2641 58.533 17.2438 58.533 17.2192C58.533 17.1944 58.4319 17.1741 58.3082 17.1741C58.1845 17.1741 58.0833 17.1559 58.0833 17.1336C58.0833 17.1114 57.9974 17.0817 57.8921 17.0676C57.3843 16.9996 57.2931 16.9819 57.2536 16.9444C57.2301 16.9222 57.0934 16.904 56.9499 16.904C56.806 16.904 56.6891 16.8838 56.6891 16.859C56.6891 16.8342 56.5879 16.814 56.4643 16.814C56.3405 16.814 56.2393 16.7937 56.2393 16.7689C56.2393 16.7435 56.1119 16.724 55.947 16.724C55.7821 16.724 55.6547 16.7044 55.6547 16.679C55.6547 16.6533 55.5228 16.6339 55.3489 16.6339C55.1744 16.6339 55.0203 16.6113 54.9902 16.5809C54.9345 16.5254 54.4614 16.4636 53.7994 16.4253C53.583 16.4127 53.4059 16.386 53.4059 16.366C53.4059 16.3458 53.1782 16.3259 52.8999 16.3219C52.6217 16.3177 52.3747 16.295 52.3512 16.2715C52.3278 16.2481 51.9708 16.2289 51.5556 16.2289C51.1022 16.2289 50.7916 16.2109 50.7748 16.1838C50.7367 16.122 47.1993 16.122 47.1993 16.1838ZM58.0159 49.9841C57.7437 49.9984 57.5007 50.0235 57.4756 50.0399C57.4504 50.0563 57.1621 50.0766 56.8346 50.0849C56.5072 50.0933 56.2393 50.1154 56.2393 50.1339C56.2393 50.1525 55.6953 50.1676 55.0303 50.1676H53.8211L53.794 50.269C53.7791 50.3247 53.7666 51.3576 53.7663 52.5645L53.7658 54.7588H54.0778C54.2496 54.7588 54.4026 54.7385 54.4178 54.7139C54.4332 54.6891 54.6064 54.6688 54.8028 54.6688C55.0109 54.6688 55.1599 54.65 55.1599 54.6238C55.1599 54.5988 55.2799 54.5788 55.4297 54.5788C55.5797 54.5788 55.6996 54.5588 55.6996 54.5337C55.6996 54.508 55.8345 54.4888 56.0144 54.4888C56.1944 54.4888 56.3293 54.4695 56.3293 54.4438C56.3293 54.419 56.4305 54.3987 56.5541 54.3987C56.6779 54.3987 56.7791 54.3803 56.7791 54.3578C56.7791 54.3351 56.8954 54.3063 57.0376 54.2937C57.1799 54.281 57.4076 54.2478 57.5436 54.2198C57.6797 54.192 57.8671 54.1579 57.96 54.1441C58.0529 54.1303 58.14 54.101 58.1537 54.0788C58.1674 54.0568 58.2571 54.0387 58.3532 54.0387C58.4493 54.0387 58.5403 54.0184 58.5555 53.9935C58.5708 53.9689 58.648 53.9482 58.7268 53.9476C58.8058 53.9468 58.9919 53.9054 59.1403 53.855C59.2887 53.8048 59.4675 53.7616 59.5378 53.7591C59.6081 53.7567 59.6761 53.7274 59.6889 53.694C59.7028 53.6578 59.7819 53.6335 59.8871 53.6335C59.9834 53.6335 60.0622 53.6132 60.0622 53.5886C60.0622 53.5638 60.1319 53.5435 60.217 53.5435C60.3021 53.5435 60.3842 53.5233 60.3995 53.4985C60.4148 53.4737 60.4666 53.4535 60.5147 53.4535C60.6471 53.4535 60.6228 53.3508 60.3829 52.8987C60.2626 52.6716 60.0574 52.2831 59.927 52.0357C59.4845 51.196 59.3001 50.8718 59.0642 50.5189C58.97 50.3779 58.8929 50.243 58.8929 50.2191C58.8929 50.1579 58.6269 49.941 58.5633 49.9503C58.5343 49.9546 58.2879 49.9699 58.0159 49.9841Z" fill="white"/>
<path fill-rule="evenodd" clip-rule="evenodd" d="M43.7988 38.4936C43.7988 45.8976 43.8129 48.8915 43.8477 48.9264C43.9111 48.99 43.9056 54.6679 43.842 54.7317C43.8152 54.7586 43.7988 55.9562 43.7988 57.8771V60.9791H48.8198H53.8407L53.8101 56.1987C53.7933 53.5694 53.7933 50.6985 53.8099 49.8188L53.8404 48.2192H55.295C56.1112 48.2192 56.784 48.2376 56.8279 48.2613C56.8708 48.2844 56.9717 48.3301 57.052 48.3625C57.1324 48.395 57.1982 48.4368 57.1982 48.4556C57.1982 48.4743 57.2276 48.4897 57.2637 48.4897C57.3379 48.4897 58.2324 49.3622 58.2324 49.4346C58.2324 49.4605 58.2526 49.4817 58.2773 49.4817C58.302 49.4817 58.3223 49.5046 58.3223 49.5327C58.3223 49.5607 58.3652 49.6212 58.4177 49.6668C58.4814 49.7223 58.5064 49.7855 58.4926 49.8576C58.4767 49.9413 58.4888 49.9609 58.5471 49.9456C58.6247 49.9253 58.9069 50.1323 58.9069 50.2095C58.9069 50.2334 58.9839 50.3686 59.0781 50.5098C59.3131 50.862 59.4991 51.1893 59.9348 52.0178C60.0618 52.2596 60.2651 52.6451 60.3865 52.8745C60.5078 53.1039 60.6214 53.3676 60.6388 53.4606C60.6562 53.5536 60.6884 53.6297 60.7104 53.6297C60.7324 53.6297 60.7504 53.6805 60.7504 53.7425C60.7504 53.8044 60.7707 53.8552 60.7953 53.8552C60.8201 53.8552 60.8402 53.8958 60.8402 53.9453C60.8402 53.9949 60.8605 54.0356 60.8853 54.0356C60.9099 54.0356 60.9302 54.0761 60.9302 54.1256C60.9302 54.1753 60.9505 54.2159 60.9751 54.2159C60.9999 54.2159 61.0202 54.2564 61.0202 54.3061C61.0202 54.3556 61.0357 54.3962 61.0547 54.3962C61.0736 54.3962 61.1891 54.589 61.3113 54.8245C61.4334 55.0602 61.5493 55.2529 61.5691 55.2529C61.5886 55.2529 61.6047 55.2935 61.6047 55.3431C61.6047 55.3926 61.625 55.4333 61.6496 55.4333C61.6744 55.4333 61.6947 55.4739 61.6947 55.5234C61.6947 55.5731 61.7148 55.6136 61.7396 55.6136C61.7644 55.6136 61.7845 55.6542 61.7845 55.7039C61.7845 55.7534 61.8048 55.7939 61.8294 55.7939C61.8542 55.7939 61.8745 55.8345 61.8745 55.8842C61.8745 55.9337 61.8909 55.9743 61.911 55.9743C61.9312 55.9743 61.9753 56.0453 62.0094 56.1322C62.0433 56.2189 62.0876 56.29 62.1076 56.29C62.1278 56.29 62.1443 56.3305 62.1443 56.3801C62.1443 56.4298 62.1644 56.4703 62.1892 56.4703C62.214 56.4703 62.2341 56.5108 62.2341 56.5605C62.2341 56.6101 62.2544 56.6506 62.2792 56.6506C62.3038 56.6506 62.3241 56.6913 62.3241 56.7408C62.3241 56.7904 62.3444 56.8309 62.369 56.8309C62.3938 56.8309 62.4141 56.8716 62.4141 56.9212C62.4141 56.9707 62.4292 57.0115 62.4477 57.0117C62.4663 57.012 62.5032 57.0576 62.5297 57.1131C62.6591 57.3842 62.8402 57.6877 62.8725 57.6877C62.8924 57.6877 62.9086 57.7283 62.9086 57.7778C62.9086 57.8275 62.9289 57.868 62.9535 57.868C62.9783 57.868 62.9986 57.9086 62.9986 57.9581C62.9986 58.0078 63.0188 58.0484 63.0435 58.0484C63.0683 58.0484 63.0884 58.0877 63.0884 58.1358C63.0884 58.1841 63.1087 58.2359 63.1335 58.2513C63.1581 58.2666 63.1784 58.3185 63.1784 58.3667C63.1784 58.4148 63.1987 58.4542 63.2233 58.4542C63.2481 58.4542 63.2684 58.4931 63.2684 58.5406C63.2684 58.5881 63.2835 58.6338 63.302 58.642C63.3345 58.6564 63.5065 58.954 63.6037 59.164C63.6295 59.2196 63.6657 59.2652 63.6843 59.2654C63.7028 59.2657 63.718 59.3069 63.718 59.3573C63.718 59.4078 63.7483 59.4606 63.7854 59.4749C63.8225 59.4891 63.8529 59.5392 63.8529 59.5862C63.8529 59.6331 63.8731 59.6716 63.8978 59.6716C63.9226 59.6716 63.9428 59.7122 63.9428 59.7617C63.9428 59.8114 63.963 59.8519 63.9878 59.8519C64.0125 59.8519 64.0327 59.8925 64.0327 59.942C64.0327 59.9917 64.053 60.0322 64.0777 60.0322C64.1024 60.0322 64.1227 60.0728 64.1227 60.1225C64.1227 60.172 64.1429 60.2126 64.1676 60.2126C64.1924 60.2126 64.2126 60.2532 64.2126 60.3028C64.2126 60.3523 64.2291 60.393 64.2492 60.393C64.2694 60.393 64.3136 60.4639 64.3475 60.5508C64.3815 60.6375 64.4257 60.7086 64.4458 60.7086C64.466 60.7086 64.4824 60.7404 64.4824 60.7794C64.4824 60.9877 64.2517 60.9802 70.2235 60.968L75.8359 60.9566L75.8203 60.7987C75.8117 60.7119 75.7899 60.6309 75.7717 60.6184C75.7536 60.606 75.7102 60.5299 75.6751 60.4494C75.6402 60.3687 75.5963 60.3028 75.5776 60.3028C75.5589 60.3028 75.5437 60.2622 75.5437 60.2126C75.5437 60.163 75.5234 60.1225 75.4986 60.1225C75.474 60.1225 75.4537 60.0959 75.4537 60.0633C75.4537 60.0308 75.4172 59.9648 75.3727 59.9167C75.3282 59.8686 75.2782 59.7938 75.2617 59.7505C75.2452 59.7071 75.2108 59.6716 75.1853 59.6716C75.1598 59.6716 75.139 59.6354 75.139 59.5913C75.139 59.5472 75.0984 59.4819 75.049 59.4461C74.9996 59.4104 74.959 59.3348 74.959 59.2783C74.959 59.2218 74.9389 59.1756 74.9141 59.1756C74.8893 59.1756 74.8692 59.1443 74.8692 59.1061C74.8692 59.0678 74.8286 58.9929 74.7792 58.9398C74.7298 58.8866 74.6892 58.8164 74.6892 58.7838C74.6892 58.7513 74.6691 58.7247 74.6443 58.7247C74.6195 58.7247 74.5994 58.6842 74.5994 58.6345C74.5994 58.5849 74.5816 58.5444 74.5598 58.5444C74.5381 58.5444 74.4952 58.4835 74.4645 58.4091C74.4338 58.3347 74.3909 58.2739 74.3691 58.2739C74.3474 58.2739 74.3296 58.2429 74.3296 58.2053C74.3296 58.1213 74.1079 57.7778 74.0538 57.7778C74.0324 57.7778 74.0149 57.7373 74.0149 57.6877C74.0149 57.638 73.9946 57.5975 73.9698 57.5975C73.9452 57.5975 73.9249 57.5613 73.9249 57.5173C73.9249 57.4731 73.8845 57.4078 73.8349 57.372C73.7855 57.3363 73.7451 57.271 73.7451 57.2269C73.7451 57.1827 73.7248 57.1467 73.7 57.1467C73.6754 57.1467 73.6551 57.106 73.6551 57.0564C73.6551 57.0069 73.6349 56.9662 73.6102 56.9662C73.5854 56.9662 73.5652 56.9358 73.5652 56.8986C73.5652 56.8614 73.545 56.8309 73.5202 56.8309C73.4956 56.8309 73.4753 56.7904 73.4753 56.7408C73.4753 56.6913 73.455 56.6506 73.4303 56.6506C73.4056 56.6506 73.3853 56.6194 73.3853 56.5812C73.3853 56.5429 73.3449 56.4681 73.2954 56.4148C73.2459 56.3616 73.2055 56.2914 73.2055 56.2589C73.2055 56.2263 73.1852 56.1998 73.1605 56.1998C73.1358 56.1998 73.1155 56.1592 73.1155 56.1095C73.1155 56.06 73.0991 56.0194 73.0788 56.0194C73.0587 56.0194 73.0086 55.9484 72.9673 55.8616C72.926 55.7748 72.8716 55.7039 72.8464 55.7039C72.8213 55.7039 72.8008 55.6632 72.8008 55.6136C72.8008 55.5641 72.7805 55.5234 72.7558 55.5234C72.7311 55.5234 72.7108 55.4968 72.7108 55.4643C72.7108 55.4317 72.6704 55.3617 72.621 55.3084C72.5714 55.2552 72.531 55.1804 72.531 55.1421C72.531 55.1038 72.5108 55.0725 72.4861 55.0725C72.4613 55.0725 72.4411 55.0413 72.4411 55.0031C72.4411 54.9647 72.4006 54.8899 72.3512 54.8367C72.3017 54.7835 72.2612 54.7032 72.2612 54.6583C72.2612 54.6134 72.241 54.5766 72.2163 54.5766C72.1915 54.5766 72.1713 54.5499 72.1713 54.5175C72.1713 54.485 72.1308 54.4148 72.0814 54.3615C72.0319 54.3083 71.9914 54.2335 71.9914 54.1952C71.9914 54.157 71.9712 54.1256 71.9465 54.1256C71.9217 54.1256 71.9015 54.0991 71.9015 54.0665C71.9015 54.0341 71.856 53.9586 71.8004 53.8988C71.6926 53.7833 71.5868 53.6017 71.5868 53.5325C71.5868 53.5096 71.5462 53.4471 71.4968 53.3939C71.4474 53.3406 71.4069 53.2706 71.4069 53.238C71.4069 53.2055 71.3867 53.1789 71.3619 53.1789C71.3372 53.1789 71.317 53.1382 71.317 53.0887C71.317 53.0391 71.2967 52.9984 71.272 52.9984C71.2473 52.9984 71.227 52.9718 71.227 52.9393C71.227 52.9069 71.1866 52.8367 71.1371 52.7834C71.0876 52.7302 71.0472 52.6554 71.0472 52.6172C71.0472 52.579 71.0307 52.5476 71.0106 52.5476C70.9904 52.5476 70.9462 52.4767 70.9123 52.3898C70.8783 52.303 70.839 52.232 70.8249 52.232C70.8109 52.232 70.7719 52.1698 70.7383 52.0937C70.7047 52.0175 70.6289 51.9068 70.5699 51.8477C70.511 51.7886 70.4627 51.7088 70.4627 51.6704C70.4627 51.6321 70.4424 51.6008 70.4176 51.6008C70.393 51.6008 70.3727 51.5601 70.3727 51.5106C70.3727 51.4611 70.3524 51.4204 70.3278 51.4204C70.303 51.4204 70.2827 51.39 70.2827 51.3528C70.2827 51.3156 70.2626 51.2851 70.2378 51.2851C70.213 51.2851 70.1929 51.2446 70.1929 51.195C70.1929 51.1453 70.1726 51.1048 70.1478 51.1048C70.1232 51.1048 70.1029 51.0735 70.1029 51.0353C70.1029 50.997 70.0625 50.9221 70.0129 50.869C69.9635 50.8158 69.9231 50.7456 69.9231 50.7131C69.9231 50.6805 69.9028 50.6539 69.878 50.6539C69.8534 50.6539 69.8331 50.6134 69.8331 50.5637C69.8331 50.5142 69.8179 50.4735 69.7994 50.4735C69.7808 50.4733 69.7058 50.3617 69.6324 50.2255C69.5591 50.0892 69.4832 49.9776 69.4638 49.9776C69.4444 49.9776 69.4284 49.9415 69.4284 49.8974C69.4284 49.8532 69.388 49.788 69.3386 49.7522C69.289 49.7165 69.2486 49.6524 69.2486 49.61C69.2486 49.5675 69.2095 49.5203 69.1618 49.5052C69.0857 49.4809 68.9836 49.3296 68.7102 48.8363C68.5641 48.5727 68.1435 48.1173 67.8215 47.8744C67.5679 47.6831 67.4927 47.6017 67.5094 47.5375C67.5265 47.4718 67.5071 47.4526 67.4233 47.4526C67.3638 47.4526 67.3151 47.4324 67.3151 47.4076C67.3151 47.3827 67.2848 47.3625 67.2477 47.3625C67.2106 47.3625 67.1802 47.3422 67.1802 47.3173C67.1802 47.2926 67.1398 47.2723 67.0904 47.2723C67.0408 47.2723 67.0004 47.252 67.0004 47.2273C67.0004 47.2024 66.96 47.1821 66.9104 47.1821C66.861 47.1821 66.8206 47.1619 66.8206 47.137C66.8206 47.1122 66.7712 47.092 66.7107 47.092C66.6505 47.092 66.5886 47.0716 66.5732 47.0468C66.558 47.0221 66.5083 47.0018 66.463 47.0018C66.4176 47.0018 66.3689 46.9714 66.3546 46.9342C66.3404 46.897 66.2888 46.8665 66.2401 46.8665C66.1913 46.8665 66.1388 46.8463 66.1236 46.8214C66.1082 46.7966 66.0464 46.7764 65.9861 46.7764C65.9257 46.7764 65.8763 46.7597 65.8763 46.7394C65.8763 46.7192 65.7738 46.6745 65.6486 46.6403C65.5234 46.6061 65.4109 46.5618 65.3987 46.542C65.3864 46.5221 65.327 46.5059 65.2667 46.5059C65.2063 46.5059 65.1569 46.4855 65.1569 46.4607C65.1569 46.436 65.086 46.4156 64.9995 46.4156C64.913 46.4156 64.8421 46.3953 64.8421 46.3706C64.8421 46.3457 64.7814 46.3254 64.7072 46.3254C64.6331 46.3254 64.5723 46.3052 64.5723 46.2804C64.5723 46.2555 64.6723 46.2353 64.7945 46.2353C64.9166 46.2353 65.0292 46.215 65.0444 46.1901C65.0598 46.1654 65.1722 46.1451 65.2944 46.1451C65.4167 46.1451 65.5166 46.1271 65.5166 46.105C65.5166 46.0829 65.5873 46.0524 65.674 46.0373C65.7605 46.0222 65.9024 45.9975 65.9891 45.9824C66.0759 45.9672 66.1581 45.9367 66.1716 45.9146C66.1852 45.8926 66.2463 45.8745 66.3075 45.8745C66.3686 45.8745 66.4304 45.8442 66.4446 45.807C66.4593 45.7683 66.5264 45.7393 66.6005 45.7393C66.672 45.7393 66.7306 45.7191 66.7306 45.6942C66.7306 45.6694 66.7913 45.6492 66.8655 45.6492C66.9397 45.6492 67.0004 45.6288 67.0004 45.604C67.0004 45.5793 67.0498 45.559 67.1102 45.559C67.1705 45.559 67.2324 45.5386 67.2477 45.5139C67.2629 45.4891 67.3248 45.4687 67.3852 45.4687C67.4457 45.4687 67.4951 45.4485 67.4951 45.4237C67.4951 45.3988 67.5355 45.3786 67.5849 45.3786C67.6345 45.3786 67.6749 45.3583 67.6749 45.3335C67.6749 45.3088 67.7153 45.2884 67.7647 45.2884C67.8143 45.2884 67.8547 45.2681 67.8547 45.2434C67.8547 45.2185 67.8951 45.1982 67.9447 45.1982C67.9941 45.1982 68.0345 45.178 68.0345 45.1531C68.0345 45.1283 68.0751 45.1081 68.1245 45.1081C68.1739 45.1081 68.2145 45.0878 68.2145 45.0629C68.2145 45.0382 68.2549 45.0179 68.3043 45.0179C68.3539 45.0179 68.3943 44.9977 68.3943 44.9728C68.3943 44.948 68.431 44.9278 68.4757 44.9278C68.5205 44.9278 68.6006 44.8871 68.6537 44.8376C68.7068 44.788 68.7684 44.7473 68.7907 44.7473C68.8131 44.7473 68.8693 44.6966 68.9158 44.6346C68.9621 44.5727 69.0314 44.522 69.0695 44.522C69.1076 44.522 69.168 44.4813 69.2037 44.4318C69.2393 44.3822 69.2941 44.3415 69.3254 44.3415C69.3842 44.3415 69.4971 44.2588 69.6794 44.0823C69.7369 44.0265 69.802 43.9809 69.824 43.9809C69.8724 43.9809 70.2827 43.597 70.2827 43.5517C70.2827 43.534 70.4143 43.3964 70.575 43.246C70.7358 43.0958 70.8673 42.9541 70.8673 42.9313C70.8673 42.9085 70.9229 42.8361 70.991 42.7703C71.059 42.7046 71.1449 42.59 71.1818 42.5156C71.2186 42.441 71.2844 42.3475 71.3279 42.3074C71.3714 42.2673 71.4069 42.2013 71.4069 42.1608C71.4069 42.1202 71.4271 42.0871 71.4519 42.0871C71.4766 42.0871 71.4968 42.0511 71.4968 42.0069C71.4968 41.9629 71.5373 41.8975 71.5868 41.8617C71.6362 41.826 71.6767 41.7606 71.6767 41.7164C71.6767 41.6724 71.6919 41.6361 71.7104 41.636C71.7556 41.6357 71.9015 41.375 71.9015 41.2945C71.9015 41.2593 71.9217 41.2304 71.9465 41.2304C71.9712 41.2304 71.9914 41.1911 71.9914 41.143C71.9914 41.0949 72.0117 41.0429 72.0364 41.0276C72.0611 41.0123 72.0814 40.9502 72.0814 40.8897C72.0814 40.8291 72.1016 40.7796 72.1263 40.7796C72.151 40.7796 72.1713 40.7402 72.1713 40.6921C72.1713 40.644 72.1915 40.592 72.2163 40.5767C72.241 40.5613 72.2612 40.4891 72.2612 40.4162C72.2612 40.3433 72.2815 40.2837 72.3062 40.2837C72.3309 40.2837 72.3512 40.224 72.3512 40.151C72.3512 40.0781 72.3714 40.0059 72.3961 39.9906C72.4208 39.9752 72.4411 39.8941 72.4411 39.8102C72.4411 39.7263 72.4613 39.6452 72.4861 39.6298C72.5108 39.6146 72.531 39.513 72.531 39.4045C72.531 39.2958 72.5513 39.1942 72.576 39.179C72.6007 39.1636 72.621 39.0306 72.621 38.8833C72.621 38.7347 72.6409 38.6154 72.6659 38.6154C72.6935 38.6154 72.7108 38.3909 72.7108 38.0319C72.7108 37.6916 72.7296 37.4367 72.7558 37.4206C72.7805 37.4052 72.8008 37.2112 72.8008 36.9895C72.8008 36.7508 72.7825 36.5865 72.7558 36.5865C72.728 36.5865 72.7108 36.3534 72.7108 35.9777C72.7108 35.6019 72.6937 35.369 72.6659 35.369C72.6411 35.369 72.621 35.2574 72.621 35.121C72.621 34.9847 72.6007 34.8731 72.576 34.8731C72.5513 34.8731 72.531 34.7716 72.531 34.6476C72.531 34.5237 72.5108 34.4221 72.4861 34.4221C72.4613 34.4221 72.4411 34.3524 72.4411 34.2671C72.4411 34.1817 72.4208 34.0994 72.3961 34.084C72.3714 34.0688 72.3512 34.0066 72.3512 33.9461C72.3512 33.8855 72.3309 33.836 72.3062 33.836C72.2815 33.836 72.2612 33.7751 72.2612 33.7007C72.2612 33.6263 72.241 33.5655 72.2163 33.5655C72.1915 33.5655 72.1713 33.5046 72.1713 33.4302C72.1713 33.3558 72.151 33.2949 72.1263 33.2949C72.1016 33.2949 72.0814 33.2442 72.0814 33.1823C72.0814 33.1203 72.0611 33.0696 72.0364 33.0696C72.0117 33.0696 71.9914 33.029 71.9914 32.9793C71.9914 32.9298 71.9712 32.8892 71.9465 32.8892C71.9217 32.8892 71.9015 32.8486 71.9015 32.799C71.9015 32.7495 71.8813 32.7088 71.8565 32.7088C71.8318 32.7088 71.8116 32.6777 71.8116 32.6398C71.8116 32.6019 71.7813 32.5591 71.7442 32.5447C71.7071 32.5305 71.6767 32.4804 71.6767 32.4335C71.6767 32.3865 71.6565 32.3482 71.6317 32.3482C71.607 32.3482 71.5868 32.3177 71.5868 32.2805C71.5868 32.2433 71.5665 32.2129 71.5418 32.2129C71.5171 32.2129 71.4968 32.1724 71.4968 32.1227C71.4968 32.0731 71.4766 32.0326 71.4519 32.0326C71.4271 32.0326 71.4069 32.0021 71.4069 31.9649C71.4069 31.9277 71.3867 31.8973 71.3619 31.8973C71.3372 31.8973 71.317 31.8713 71.317 31.8396C71.317 31.8078 71.2764 31.7526 71.227 31.7168C71.1776 31.6811 71.1371 31.6262 71.1371 31.5947C71.1371 31.5182 69.8986 30.2741 69.8226 30.2741C69.7898 30.2741 69.7339 30.2335 69.6982 30.184C69.6626 30.1343 69.6168 30.0937 69.5965 30.0937C69.5762 30.0937 69.5351 30.073 69.5052 30.0477C69.2567 29.8374 69.1741 29.7782 69.1286 29.7782C69.0998 29.7782 69.0695 29.7629 69.0613 29.7443C69.0424 29.702 68.8031 29.5556 68.6979 29.5221C68.6545 29.5083 68.6192 29.4791 68.6192 29.4572C68.6192 29.4353 68.5798 29.4174 68.5318 29.4174C68.4838 29.4174 68.4321 29.397 68.4168 29.3723C68.4015 29.3475 68.3497 29.3272 68.3017 29.3272C68.2537 29.3272 68.2145 29.307 68.2145 29.2821C68.2145 29.2573 68.1739 29.2371 68.1245 29.2371C68.0751 29.2371 68.0345 29.2167 68.0345 29.192C68.0345 29.1672 67.9941 29.1468 67.9447 29.1468C67.8951 29.1468 67.8547 29.1266 67.8547 29.1018C67.8547 29.077 67.794 29.0568 67.7198 29.0568C67.6456 29.0568 67.5849 29.0364 67.5849 29.0116C67.5849 28.9869 67.5495 28.9658 67.5062 28.9651C67.4629 28.9644 67.3883 28.9338 67.3403 28.8975C67.2922 28.861 67.2164 28.8313 67.1717 28.8313C67.1269 28.8313 67.0904 28.8109 67.0904 28.7862C67.0904 28.7614 67.0296 28.741 66.9555 28.741C66.8813 28.741 66.8206 28.7208 66.8206 28.696C66.8206 28.6711 66.761 28.6509 66.6883 28.6509C66.6155 28.6509 66.5435 28.6306 66.5283 28.6058C66.5129 28.5811 66.4321 28.5607 66.3483 28.5607C66.2647 28.5607 66.1852 28.5427 66.1716 28.5206C66.1445 28.4764 65.9352 28.433 65.5727 28.3961C65.4429 28.3829 65.3367 28.3537 65.3367 28.3311C65.3367 28.3086 65.2052 28.2902 65.0444 28.2902C64.8795 28.2902 64.7522 28.2706 64.7522 28.2451C64.7522 28.2184 64.5881 28.2001 64.3502 28.2001C64.1291 28.2001 63.9357 28.1798 63.9203 28.1549C63.9019 28.1251 60.4951 28.1099 53.8457 28.1099H43.7988V38.4936ZM60.4806 35.4593C60.4806 35.484 60.5616 35.5043 60.6604 35.5043C60.7594 35.5043 60.8402 35.5246 60.8402 35.5493C60.8402 35.5742 60.8791 35.5945 60.9264 35.5945C60.9738 35.5945 61.0195 35.6107 61.0276 35.6306C61.0358 35.6505 61.183 35.7448 61.3545 35.8404C61.6789 36.0211 61.9643 36.27 61.9643 36.372C61.9643 36.4046 62.0049 36.4605 62.0543 36.4962C62.1037 36.532 62.1443 36.5974 62.1443 36.6415C62.1443 36.6856 62.1644 36.7217 62.1892 36.7217C62.214 36.7217 62.2341 36.7611 62.2341 36.8092C62.2341 36.8573 62.2544 36.9093 62.2792 36.9246C62.3038 36.94 62.3241 37.0109 62.3241 37.0824C62.3241 37.1538 62.3444 37.2249 62.369 37.2402C62.3961 37.257 62.4141 37.5713 62.4141 38.0319C62.4141 38.5111 62.3973 38.7957 62.369 38.7957C62.3444 38.7957 62.3241 38.8667 62.3241 38.9535C62.3241 39.0404 62.3038 39.1113 62.2792 39.1113C62.2544 39.1113 62.2341 39.152 62.2341 39.2015C62.2341 39.2511 62.214 39.2917 62.1892 39.2917C62.1644 39.2917 62.1443 39.3323 62.1443 39.3818C62.1443 39.4315 62.124 39.4721 62.0992 39.4721C62.0746 39.4721 62.0543 39.5031 62.0543 39.5412C62.0543 39.6762 61.3292 40.331 61.0989 40.4044C61.0555 40.4182 61.0202 40.4473 61.0202 40.4692C61.0202 40.4912 60.9595 40.509 60.8853 40.509C60.8111 40.509 60.7504 40.5294 60.7504 40.5542C60.7504 40.5789 60.6897 40.5993 60.6155 40.5993C60.5413 40.5993 60.4806 40.6196 60.4806 40.6443C60.4806 40.6692 60.3806 40.6895 60.2585 40.6895C60.1362 40.6895 60.0237 40.7097 60.0085 40.7345C59.9904 40.7639 58.9213 40.7796 56.9483 40.7796H53.9159V38.0968V35.4141H57.1982C59.3565 35.4141 60.4806 35.4296 60.4806 35.4593ZM73.2279 46.2503C73.0341 46.4653 73.0168 46.5194 73.1963 46.3501C73.3002 46.252 73.3853 46.1659 73.3853 46.1585C73.3853 46.1173 73.3063 46.1635 73.2279 46.2503ZM25.0938 46.6298C25.0938 46.6488 25.1342 46.6898 25.1836 46.7208C25.2331 46.7517 25.2736 46.7616 25.2736 46.7425C25.2736 46.7234 25.2331 46.6825 25.1836 46.6516C25.1342 46.6205 25.0938 46.6108 25.0938 46.6298ZM72.7831 46.6673C72.7409 46.7776 72.7501 46.7886 72.8232 46.7151C72.8997 46.6385 72.9094 46.5959 72.8506 46.5959C72.8284 46.5959 72.7982 46.6281 72.7831 46.6673ZM72.5986 46.8662C72.5539 46.916 72.5317 46.9567 72.5497 46.9567C72.5972 46.9567 72.7253 46.8209 72.7009 46.7965C72.6896 46.7851 72.6436 46.8165 72.5986 46.8662Z" fill="white"/>
</g>
<defs>
<filter id="filter0_i" x="20.0547" y="16.1375" width="58.8906" height="46.8417" filterUnits="userSpaceOnUse" color-interpolation-filters="sRGB">
<feFlood flood-opacity="0" result="BackgroundImageFix"/>
<feBlend mode="normal" in="SourceGraphic" in2="BackgroundImageFix" result="shape"/>
<feColorMatrix in="SourceAlpha" type="matrix" values="0 0 0 0 0 0 0 0 0 0 0 0 0 0 0 0 0 0 127 0" result="hardAlpha"/>
<feOffset dx="1" dy="2"/>
<feGaussianBlur stdDeviation="2"/>
<feComposite in2="hardAlpha" operator="arithmetic" k2="-1" k3="1"/>
<feColorMatrix type="matrix" values="0 0 0 0 0.370833 0 0 0 0 0.210963 0 0 0 0 0 0 0 0 0.15 0"/>
<feBlend mode="normal" in2="shape" result="effect1_innerShadow"/>
</filter>
</defs>
</svg>
