<svg width="98" height="98" viewBox="0 0 98 98" fill="none" xmlns="http://www.w3.org/2000/svg">
<rect width="98" height="98" rx="4" fill="#F29111"/>
<path d="M29.458 85V71.914H33.904C36.94 71.914 38.458 73.198 38.458 75.766C38.458 77.77 37.438 79.006 35.398 79.474L39.034 85H37.126L33.814 79.816L31.114 79.384V85H29.458ZM31.114 78.268H33.112C34.456 78.268 35.404 78.082 35.956 77.71C36.508 77.326 36.784 76.678 36.784 75.766C36.784 75.142 36.67 74.65 36.442 74.29C36.214 73.918 35.83 73.654 35.29 73.498C34.762 73.33 34.036 73.246 33.112 73.246H31.114V78.268ZM40.3694 81.418V75.604H41.9894V81.364C41.9894 82.168 42.1634 82.786 42.5114 83.218C42.8594 83.65 43.3694 83.866 44.0414 83.866C44.6054 83.866 45.1334 83.674 45.6254 83.29C46.1294 82.894 46.5074 82.372 46.7594 81.724V75.604H48.3794V85H47.2814L46.9934 83.398C46.6094 83.974 46.1234 84.418 45.5354 84.73C44.9594 85.042 44.3294 85.198 43.6454 85.198C42.6014 85.198 41.7914 84.874 41.2154 84.226C40.6514 83.578 40.3694 82.642 40.3694 81.418ZM51.0226 84.568V71.482H52.6426V76.594C53.4346 75.802 54.3646 75.406 55.4326 75.406C56.6806 75.406 57.6406 75.82 58.3126 76.648C58.9846 77.476 59.3206 78.664 59.3206 80.212C59.3206 81.772 58.8946 82.996 58.0426 83.884C57.1906 84.76 56.0026 85.198 54.4786 85.198C53.8906 85.198 53.2726 85.138 52.6246 85.018C51.9766 84.91 51.4426 84.76 51.0226 84.568ZM55.1266 76.702C54.6946 76.702 54.2566 76.81 53.8126 77.026C53.3806 77.242 52.9906 77.548 52.6426 77.944V83.632C52.8826 83.704 53.1526 83.764 53.4526 83.812C53.7526 83.848 54.0826 83.866 54.4426 83.866C56.5906 83.866 57.6646 82.642 57.6646 80.194C57.6646 79.054 57.4486 78.19 57.0166 77.602C56.5966 77.002 55.9666 76.702 55.1266 76.702ZM63.5583 84.91L60.1563 75.604H61.8483L64.8003 84.01L67.3743 75.604H69.0123L66.0063 84.802C65.7183 85.69 65.4003 86.41 65.0523 86.962C64.7163 87.514 64.3083 87.94 63.8283 88.24C63.3483 88.54 62.7483 88.774 62.0283 88.942L61.6323 87.592C62.1123 87.46 62.5203 87.292 62.8563 87.088C63.1923 86.896 63.4803 86.638 63.7203 86.314C63.9723 85.99 64.1943 85.564 64.3863 85.036L64.4403 84.91H63.5583Z" fill="white"/>
<g filter="url(#filter0_i)">
<path fill-rule="evenodd" clip-rule="evenodd" d="M51.8415 15.0783C51.793 15.1366 51.8193 15.1694 51.9898 15.2629C52.331 15.45 52.3791 15.4812 52.4961 15.5909C52.5577 15.6489 52.6344 15.6962 52.6665 15.6962C52.6986 15.6962 52.7248 15.7189 52.7248 15.7467C52.7248 15.7743 52.7746 15.8162 52.8355 15.8395C52.8964 15.8629 53.0773 15.9842 53.2378 16.1089C53.398 16.2338 53.5466 16.3359 53.5679 16.3359C53.5892 16.3359 53.7289 16.4355 53.8785 16.5573C54.028 16.6791 54.1672 16.7802 54.1879 16.7821C54.2086 16.7838 54.3252 16.8615 54.447 16.9549C54.5687 17.0481 54.7661 17.185 54.8854 17.2591C55.0047 17.3331 55.1737 17.4547 55.2609 17.5291C55.3481 17.6035 55.4335 17.6644 55.4506 17.6644C55.4758 17.6644 56.0434 18.061 56.2429 18.218C56.6747 18.5576 56.8854 18.6095 57.1532 18.442C57.3352 18.3282 57.8728 18.0346 58.2234 17.8575C58.3384 17.7995 58.4325 17.734 58.4325 17.7121C58.4325 17.6901 58.4987 17.6577 58.5795 17.6399C58.6605 17.6222 58.7407 17.585 58.7578 17.5572C58.775 17.5295 58.8583 17.4739 58.9429 17.4336C59.0276 17.3935 59.2075 17.297 59.3428 17.2194C59.4781 17.1416 59.6616 17.0447 59.7505 17.004C59.8394 16.9632 59.9462 16.896 59.9878 16.8544C60.0294 16.8128 60.0973 16.7787 60.1388 16.7787C60.1803 16.7787 60.2801 16.7234 60.3605 16.6557C60.441 16.5881 60.542 16.5327 60.5851 16.5327C60.6283 16.5327 60.6999 16.4999 60.7442 16.4598C60.8415 16.3717 61.2103 16.1602 61.3971 16.0853C61.4716 16.0554 61.5324 16.0135 61.5324 15.9919C61.5324 15.9705 61.5933 15.9378 61.6678 15.9194C61.7422 15.9009 61.8474 15.8457 61.9015 15.7966C61.9556 15.7476 62.0552 15.6912 62.1229 15.6713C62.1906 15.6513 62.2765 15.61 62.3139 15.5795C62.3831 15.5233 62.656 15.3732 62.9471 15.2315C63.1347 15.1402 63.1501 15.0796 62.9963 15.0384C62.7273 14.9663 51.9023 15.005 51.8415 15.0783ZM48.8732 15.8693C48.7438 15.9042 48.5841 15.9681 48.5182 16.0113C48.4522 16.0546 48.3523 16.0899 48.2961 16.0899C48.24 16.0899 48.1119 16.1314 48.0115 16.1822C47.9111 16.2331 47.7514 16.2909 47.6567 16.3105C47.562 16.3304 47.4181 16.3861 47.3369 16.4344C47.2557 16.4828 47.0964 16.5375 46.983 16.556C46.8696 16.5744 46.7511 16.6205 46.7197 16.6583C46.6884 16.6961 46.582 16.7418 46.4832 16.76C46.3844 16.7782 46.2265 16.8342 46.1321 16.8844C46.0378 16.9345 45.916 16.9757 45.8615 16.9757C45.807 16.9758 45.6899 17.0201 45.6012 17.0741C45.5126 17.1282 45.3907 17.1724 45.3302 17.1724C45.2698 17.1724 45.1163 17.2277 44.9892 17.2954C44.8621 17.363 44.7073 17.4185 44.6451 17.4188C44.583 17.4189 44.4658 17.463 44.3846 17.5168C44.3034 17.5706 44.1923 17.6147 44.1378 17.6148C44.0833 17.6151 43.9616 17.6565 43.8672 17.7071C43.7729 17.7575 43.6182 17.8151 43.5235 17.8349C43.4288 17.8547 43.3028 17.9016 43.2437 17.939C43.1845 17.9764 43.0299 18.0309 42.9001 18.0599C42.7702 18.0891 42.6304 18.1429 42.5894 18.1797C42.5484 18.2165 42.4262 18.2621 42.318 18.2813C42.2097 18.3004 42.0548 18.355 41.9736 18.4025C41.8924 18.45 41.7429 18.5037 41.6414 18.5217C41.5399 18.5398 41.4569 18.572 41.4569 18.5933C41.4569 18.6144 41.396 18.6633 41.3216 18.7017C41.2472 18.7402 41.0945 18.8601 40.9823 18.9683C40.1195 19.8013 39.1514 20.705 38.2094 21.5569C37.9252 21.8137 37.5464 22.1668 37.3675 22.3413C36.9503 22.7486 35.9092 23.7284 35.7492 23.8646C35.5742 24.0134 34.7274 24.7985 34.2103 25.2912C33.9688 25.5212 33.666 25.809 33.5372 25.9308C33.166 26.2818 32.2947 27.0847 32.2558 27.1117C32.2362 27.1253 32.1833 27.2083 32.1383 27.2962C32.0931 27.3842 32.038 27.4562 32.0158 27.4562C31.9935 27.4562 31.9392 27.5392 31.8952 27.6407C31.851 27.7422 31.7482 27.9359 31.6667 28.0712C31.5851 28.2065 31.4944 28.3615 31.4653 28.4157C31.4003 28.5362 31.2195 28.849 30.9271 29.3467C30.8053 29.554 30.6699 29.7888 30.6261 29.8687C30.5823 29.9484 30.5213 30.044 30.4905 30.081C30.4598 30.1181 30.354 30.3011 30.2555 30.4875C30.1569 30.674 30.0617 30.8378 30.0438 30.8513C30.0259 30.8648 29.9821 30.9479 29.9466 31.0358C29.911 31.1238 29.8645 31.1957 29.8435 31.1957C29.8223 31.1957 29.7804 31.2662 29.7504 31.3524C29.7204 31.4387 29.6636 31.5446 29.6245 31.5879C29.5853 31.6312 29.4834 31.7987 29.3981 31.9601C29.3128 32.1215 29.2149 32.2868 29.1806 32.3274C29.1463 32.368 29.1039 32.4481 29.0865 32.5054C29.069 32.5627 29.0111 32.6492 28.9577 32.6976C28.9042 32.7459 28.8605 32.8196 28.8605 32.8613C28.8605 32.9031 28.8102 33.0159 28.7486 33.112C28.5639 33.4006 28.5182 33.478 28.4562 33.6068C28.4236 33.6744 28.3462 33.7924 28.2843 33.8689C28.2223 33.9454 28.1716 34.0321 28.1716 34.0618C28.1716 34.0914 28.1416 34.1506 28.105 34.1934C28.0682 34.2361 27.9607 34.4149 27.8658 34.5908C27.5494 35.178 27.5077 35.2502 27.4455 35.3183C27.2585 35.5227 27.1209 35.9169 27.2043 36.009C27.2492 36.0587 27.286 36.1305 27.286 36.1686C27.286 36.2066 27.3436 36.3599 27.4141 36.5091C27.4845 36.6583 27.5952 36.8934 27.6602 37.0314C27.725 37.1694 27.778 37.3272 27.778 37.3821C27.778 37.437 27.8097 37.5083 27.8486 37.5405C27.8875 37.5728 27.9346 37.6696 27.9532 37.7557C27.9719 37.8417 28.0278 37.9897 28.0775 38.0844C28.2496 38.4122 28.4177 38.8168 28.4188 38.9055C28.4194 38.9546 28.4632 39.05 28.5161 39.1177C28.569 39.1853 28.6128 39.274 28.6134 39.3149C28.614 39.3557 28.6671 39.4886 28.7315 39.6101C28.7958 39.7316 28.8636 39.9016 28.8823 39.9876C28.9009 40.0737 28.9478 40.1705 28.9867 40.2028C29.0256 40.235 29.0574 40.3086 29.0574 40.3661C29.0576 40.4237 29.0985 40.5377 29.1485 40.6197C29.1983 40.7015 29.2678 40.8565 29.3029 40.9641C29.3379 41.0716 29.3966 41.2033 29.4334 41.2567C29.4702 41.3101 29.5002 41.4013 29.5002 41.4592C29.5002 41.5172 29.5431 41.6193 29.5955 41.6859C29.648 41.7526 29.706 41.8718 29.7244 41.9509C29.7429 42.0299 29.7851 42.1389 29.8184 42.193C29.8516 42.2471 29.9076 42.38 29.9425 42.4882C29.9776 42.5965 30.0363 42.7287 30.073 42.7821C30.1098 42.8355 30.1398 42.9221 30.1398 42.9746C30.1398 43.0271 30.1921 43.1606 30.2558 43.2712C30.3197 43.3818 30.3865 43.5329 30.4043 43.607C30.4658 43.8632 30.6354 43.9192 30.9896 43.8C31.1582 43.7432 31.429 43.6819 31.5914 43.6638C31.7537 43.6457 31.9428 43.6026 32.0117 43.5679C32.0805 43.5333 32.3058 43.4815 32.5126 43.4527C32.7193 43.424 32.973 43.3686 33.0764 43.3297C33.1797 43.2909 33.375 43.2458 33.5104 43.2296C33.6457 43.2135 33.8967 43.1564 34.0683 43.1027C34.2398 43.0489 34.453 43.0049 34.5421 43.0049C34.631 43.0049 34.7834 42.9716 34.8807 42.9309C34.978 42.8903 35.2298 42.832 35.4403 42.8014C35.6508 42.7706 35.8783 42.7182 35.946 42.6847C36.0136 42.6512 36.2019 42.6085 36.3642 42.5901C36.5266 42.5715 36.7869 42.5133 36.9426 42.4608C37.0982 42.4082 37.2927 42.3652 37.3746 42.3652C37.4566 42.3652 37.653 42.3216 37.8111 42.2684C37.9693 42.2151 38.2509 42.1508 38.437 42.1254C38.623 42.1001 38.8749 42.0451 38.9967 42.0032C39.1185 41.9613 39.351 41.9056 39.5133 41.8794C39.9591 41.8072 40.3897 41.6756 40.4766 41.5851C40.5193 41.5405 40.7267 41.3491 40.9376 41.1597C41.3688 40.7722 41.3575 40.7824 42.0209 40.1756C42.2872 39.932 42.6097 39.6331 42.7373 39.5113C43.3626 38.9152 44.3096 38.0284 44.5034 37.8575C44.6229 37.7522 44.8023 37.5886 44.9024 37.4939C45.0024 37.3992 45.2982 37.1245 45.5599 36.8835C45.8214 36.6427 46.1955 36.2914 46.3909 36.103C46.5865 35.9147 46.9554 35.5693 47.2109 35.3356C47.4664 35.1018 47.8207 34.7759 47.9982 34.611C48.1757 34.4462 48.4408 34.2026 48.5873 34.0698C48.7337 33.9369 49.088 33.6047 49.3746 33.3315C49.9746 32.7593 50.2268 32.5261 51.2045 31.6386C52.1336 30.7951 52.4788 30.4434 52.4793 30.3392C52.4795 30.2826 52.5349 30.1178 52.6023 29.973C52.6697 29.8282 52.7248 29.6566 52.7248 29.5915C52.7248 29.5264 52.7691 29.3905 52.8232 29.2895C52.8773 29.1887 52.9221 29.0503 52.9227 28.9822C52.9233 28.9142 52.9676 28.7619 53.0211 28.644C53.0746 28.526 53.1184 28.387 53.1184 28.335C53.1184 28.283 53.1738 28.109 53.2414 27.9482C53.3091 27.7874 53.3645 27.5989 53.3645 27.529C53.3645 27.4592 53.4015 27.3312 53.4469 27.2446C53.4921 27.158 53.5572 26.9764 53.5914 26.8411C53.6578 26.5792 53.7624 26.2578 53.9121 25.856C53.9627 25.7202 54.0041 25.5644 54.0041 25.5097C54.0041 25.4551 54.0474 25.3253 54.1004 25.2214C54.1535 25.1175 54.2114 24.9301 54.2292 24.805C54.2472 24.68 54.3034 24.5087 54.3543 24.4243C54.4053 24.3399 54.447 24.2114 54.447 24.1387C54.447 24.066 54.492 23.9075 54.5471 23.7867C54.6021 23.6659 54.6668 23.4734 54.6909 23.3589C54.7335 23.157 54.8075 22.9232 54.9909 22.4127C55.0395 22.2774 55.0947 22.0892 55.1136 21.9944C55.1324 21.8997 55.1895 21.74 55.2403 21.6397C55.2911 21.5393 55.3326 21.3869 55.3326 21.301C55.3326 21.2152 55.3746 21.0759 55.4259 20.9915C55.6756 20.5808 55.6169 20.1976 55.2703 19.9741C55.1287 19.8828 54.8876 19.7132 54.7346 19.5973C54.5814 19.4814 54.4407 19.3866 54.4217 19.3866C54.4028 19.3866 54.3178 19.3302 54.2327 19.2615C53.9913 19.0664 53.8993 19 53.6353 18.8307C53.5001 18.7441 53.3562 18.6438 53.3155 18.6079C53.2748 18.5721 53.1307 18.4731 52.9954 18.388C52.8601 18.303 52.7205 18.1939 52.6851 18.1456C52.6498 18.0974 52.5922 18.0581 52.5574 18.0581C52.5224 18.0581 52.4427 18.0138 52.3804 17.9596C52.318 17.9055 52.2523 17.8612 52.2345 17.8612C52.2166 17.8612 52.1592 17.8221 52.1067 17.7743C52.0543 17.7264 51.8814 17.5991 51.7226 17.4913C51.5639 17.3836 51.3728 17.2511 51.2979 17.197C51.2229 17.1428 51.0318 17.0112 50.8731 16.9046C50.7143 16.7979 50.5512 16.6808 50.5106 16.6444C50.47 16.608 50.3261 16.5082 50.1908 16.4227C49.9784 16.2887 49.8154 16.1718 49.5972 15.9974C49.3906 15.8323 49.161 15.7917 48.8732 15.8693ZM65.5426 16.0699C65.3803 16.1637 65.181 16.2746 65.0998 16.3166C65.0186 16.3585 64.8415 16.4564 64.7062 16.5343C64.5708 16.6122 64.3826 16.7127 64.2879 16.7575C64.1932 16.8024 64.1046 16.8561 64.0911 16.8771C64.0776 16.8982 63.989 16.9508 63.8943 16.9941C63.7996 17.0375 63.6113 17.1396 63.476 17.221C63.3407 17.3023 63.1968 17.3815 63.1562 17.3971C63.1156 17.4127 63.0492 17.4466 63.0086 17.4724C62.968 17.4981 62.8462 17.5642 62.738 17.619C62.6297 17.6739 62.4415 17.7837 62.3197 17.8631C62.1979 17.9423 62.0651 18.0203 62.0245 18.0363C61.9839 18.0523 61.8953 18.0982 61.8277 18.1381C61.76 18.1782 61.6382 18.2448 61.557 18.286C61.4759 18.3272 61.2987 18.4246 61.1634 18.5025C61.0281 18.5804 60.8399 18.6809 60.7452 18.7256C60.6504 18.7705 60.5619 18.8243 60.5483 18.8453C60.5348 18.8664 60.4463 18.9191 60.3515 18.9628C60.2568 19.0065 60.0797 19.1002 59.9579 19.1711C59.7277 19.3051 59.067 19.6682 58.7893 19.8133C58.592 19.9164 58.5904 19.9484 58.777 20.0587C58.8582 20.1067 58.9246 20.1618 58.9246 20.1811C58.9246 20.2006 58.9696 20.2307 59.0246 20.2482C59.0796 20.2656 59.1764 20.328 59.2397 20.3868C59.3031 20.4456 59.4297 20.5446 59.5211 20.6069C59.7516 20.7639 60.5716 21.3613 60.8658 21.5865C60.9998 21.6891 61.2111 21.8394 61.3355 21.9206C61.4597 22.0018 61.5937 22.0955 61.6331 22.129C61.7824 22.2557 62.0076 22.4204 62.2213 22.5591C62.3431 22.6382 62.4649 22.7278 62.4919 22.7586C62.552 22.8265 63.1255 23.2303 63.2577 23.2977C63.3101 23.3244 63.353 23.3624 63.353 23.3821C63.353 23.4018 63.5106 23.5238 63.7031 23.6534C63.8958 23.7829 64.1024 23.922 64.1624 23.9626C64.2225 24.0032 64.3101 24.0752 64.357 24.1225C64.404 24.1699 64.4622 24.2086 64.4863 24.2086C64.5104 24.2086 64.6472 24.3028 64.7903 24.4178C64.9335 24.5328 65.1502 24.6926 65.272 24.7729C65.3938 24.8532 65.5266 24.9472 65.5672 24.9818C65.708 25.1016 65.9374 25.27 66.1577 25.4154C66.2795 25.4957 66.3925 25.5799 66.409 25.6024C66.4254 25.6248 66.4951 25.6802 66.5639 25.7255C66.9738 25.9951 67.2669 26.2044 67.2813 26.2375C67.2903 26.2584 67.4231 26.3573 67.5765 26.4573C67.8362 26.6268 68.0501 26.7825 68.2226 26.9279C68.2622 26.9614 68.3883 27.0483 68.5027 27.1211C68.6171 27.1939 68.8321 27.3525 68.9806 27.4734C69.129 27.5943 69.2944 27.7072 69.3479 27.7242C69.4015 27.7412 69.4577 27.7876 69.4729 27.827C69.4881 27.8666 69.5331 27.899 69.5731 27.899C69.613 27.899 69.6746 27.9384 69.7099 27.9865C69.7453 28.0346 69.896 28.1499 70.0449 28.2431C70.1937 28.3362 70.3553 28.4565 70.4042 28.5105C70.5872 28.7133 70.7395 28.4141 70.8355 27.6628C70.8607 27.4653 70.9256 27.1345 70.9798 26.9277C71.0339 26.721 71.0782 26.4368 71.0782 26.296C71.0782 26.1553 71.1162 25.8549 71.1627 25.6287C71.2787 25.0644 71.2776 23.5686 71.1606 22.9854C71.1153 22.7592 71.0782 22.468 71.0782 22.3386C71.0782 22.2091 71.0335 21.9588 70.979 21.7822C70.9245 21.6057 70.8591 21.3654 70.8336 21.2481C70.776 20.9827 70.5509 20.3244 70.493 20.2522C70.4693 20.2227 70.4349 20.1283 70.4166 20.0426C70.3983 19.9569 70.3403 19.8372 70.2878 19.7768C70.2354 19.7163 70.1925 19.6301 70.1925 19.5855C70.1925 19.5407 70.1371 19.429 70.0695 19.3374C70.0018 19.2457 69.9465 19.1505 69.9465 19.1258C69.9465 19.1012 69.8901 19.0114 69.8214 18.9263C69.7526 18.8411 69.6639 18.7272 69.6243 18.6731C69.4893 18.4886 69.0857 17.9767 68.9615 17.8327C68.7112 17.5423 68.1929 17.1298 67.5354 16.6974C67.3866 16.5995 67.2091 16.4813 67.1408 16.4345C67.0727 16.3879 66.9637 16.3328 66.8986 16.3121C66.8335 16.2915 66.7357 16.2331 66.6811 16.1822C66.6266 16.1314 66.5363 16.0897 66.4806 16.0895C66.4247 16.0894 66.3127 16.0452 66.2315 15.9915C66.0271 15.856 65.885 15.8723 65.5426 16.0699ZM57.3334 21.5906C57.3226 21.6098 57.2983 21.7114 57.2792 21.8166C57.2602 21.9217 57.2019 22.0874 57.1498 22.1849C57.0975 22.2823 57.0548 22.4241 57.0548 22.5C57.0548 22.5759 57.0132 22.7202 56.9623 22.8206C56.9114 22.921 56.8543 23.0959 56.8355 23.2094C56.8165 23.3228 56.7586 23.4991 56.7066 23.6011C56.6545 23.7032 56.6118 23.8428 56.6117 23.9116C56.6115 23.9802 56.5769 24.1024 56.535 24.1831C56.4929 24.2636 56.4354 24.4408 56.4073 24.5767C56.3792 24.7125 56.327 24.87 56.2913 24.9265C56.2556 24.9831 56.1996 25.1654 56.1669 25.3316C56.1342 25.4978 56.077 25.6591 56.0398 25.69C56.0027 25.7208 55.9723 25.8267 55.9723 25.9253C55.9723 26.0238 55.9284 26.1864 55.8748 26.2864C55.8211 26.3866 55.7632 26.5633 55.746 26.6793C55.7287 26.7953 55.6866 26.9355 55.6524 26.9907C55.618 27.0459 55.5638 27.2171 55.5318 27.3712C55.4998 27.5252 55.4544 27.6631 55.4311 27.6776C55.4077 27.6921 55.3629 27.8273 55.3315 27.9782C55.3002 28.129 55.2328 28.3446 55.1817 28.4571C55.1305 28.5695 55.0882 28.717 55.0874 28.7847C55.0866 28.8523 55.0501 28.9741 55.0062 29.0553C54.9623 29.1365 54.8947 29.3358 54.8561 29.4982C54.8174 29.6605 54.7727 29.8464 54.7568 29.9112L54.728 30.0291L55.0918 30.0008C55.2919 29.9853 56.9503 29.9485 58.777 29.9192C60.6037 29.8899 62.8511 29.8415 63.7713 29.8115C64.6914 29.7815 66.0863 29.7461 66.8712 29.733C68.6381 29.7033 68.6919 29.6859 68.1438 29.3216C67.9644 29.2022 67.7619 29.0675 67.694 29.0222C67.6261 28.977 67.5571 28.9194 67.5407 28.8943C67.5242 28.8692 67.4568 28.8201 67.3909 28.7854C67.3249 28.7506 67.2475 28.7031 67.2187 28.68C67.1899 28.6568 67.0667 28.5599 66.945 28.4649C66.8232 28.3698 66.6997 28.2727 66.6707 28.2491C66.6415 28.2256 66.562 28.1759 66.4941 28.1388C66.4261 28.1016 66.2618 27.987 66.1288 27.8839C65.8491 27.6671 65.1617 27.1675 64.8046 26.9213C64.6692 26.8281 64.5408 26.722 64.5192 26.6857C64.4975 26.6494 64.4564 26.6197 64.4279 26.6197C64.3994 26.6197 64.3134 26.5699 64.2369 26.509C64.1605 26.4481 64.0167 26.3429 63.9175 26.2752C63.8184 26.2076 63.6911 26.1024 63.6346 26.0415C63.5783 25.9806 63.5123 25.9308 63.4882 25.9308C63.4641 25.9308 63.2552 25.7924 63.0242 25.6233C62.7932 25.4541 62.4461 25.2007 62.2528 25.0603C62.0596 24.9197 61.878 24.7842 61.8492 24.7594C61.8204 24.7344 61.7429 24.6858 61.677 24.6515C61.6111 24.617 61.5199 24.5532 61.4745 24.5095C61.4292 24.4659 61.3114 24.3747 61.2129 24.3071C61.1142 24.2394 60.971 24.1342 60.8946 24.0733C60.8181 24.0124 60.7321 23.9626 60.7036 23.9626C60.6751 23.9626 60.634 23.9337 60.6123 23.8985C60.5907 23.8632 60.4622 23.7583 60.3269 23.6653C60.1916 23.5723 59.9813 23.4178 59.8595 23.322C59.7377 23.2262 59.5384 23.0824 59.4166 23.0024C59.2949 22.9226 59.0803 22.7682 58.94 22.6596C58.7996 22.5508 58.6114 22.4106 58.5217 22.3477C58.4321 22.285 58.1705 22.0951 57.9405 21.9255C57.5107 21.6089 57.3679 21.5301 57.3334 21.5906ZM69.2822 31.6744C69.0928 31.6805 68.4617 31.7097 67.8799 31.7392C67.298 31.7688 65.1945 31.8145 63.2054 31.8408C61.2163 31.867 59.1903 31.9084 58.7032 31.9329C58.216 31.9574 57.1693 31.9932 56.3771 32.0125C55.4531 32.035 54.9099 32.0673 54.862 32.1023C54.7727 32.1676 54.8688 32.6779 55.0077 32.8763C55.0511 32.9383 55.0866 33.0514 55.0866 33.1276C55.0866 33.2039 55.1291 33.3494 55.181 33.4511C55.2328 33.5527 55.2906 33.7235 55.3095 33.8305C55.3283 33.9374 55.3719 34.0701 55.4063 34.1254C55.4408 34.1806 55.4947 34.3493 55.526 34.5002C55.5573 34.6512 55.6145 34.8163 55.6531 34.8673C55.6916 34.9182 55.7238 35.0103 55.7247 35.0721C55.7255 35.1338 55.7816 35.3158 55.8493 35.4765C55.917 35.6373 55.9723 35.8146 55.9723 35.8707C55.9723 35.9266 56.0136 36.0547 56.0641 36.1551C56.1145 36.2554 56.1715 36.4262 56.1908 36.5344C56.21 36.6427 56.2556 36.7779 56.2921 36.8348C56.3288 36.8917 56.3744 37.0245 56.3936 37.1301C56.4128 37.2355 56.4698 37.4039 56.5202 37.5043C56.5706 37.6046 56.612 37.7383 56.612 37.8013C56.612 37.8644 56.6545 37.9994 56.7066 38.1015C56.7586 38.2035 56.816 38.3797 56.8343 38.4932C56.8525 38.6067 56.906 38.7666 56.9531 38.8487C57.0002 38.9306 57.054 39.0927 57.0725 39.2088C57.0911 39.3248 57.1374 39.4681 57.1754 39.5271C57.2133 39.5861 57.2605 39.7227 57.2803 39.8307C57.3001 39.9387 57.3566 40.1158 57.4059 40.2243C57.4552 40.3328 57.4959 40.4668 57.4965 40.5219C57.4972 40.5771 57.5389 40.7032 57.5893 40.8021C57.6397 40.9009 57.6962 41.0773 57.7148 41.1938C57.7335 41.3104 57.7814 41.4559 57.8215 41.5171C57.8618 41.5784 57.9149 41.7223 57.9398 41.837C57.9955 42.0933 58.1704 42.6336 58.2621 42.8326C58.2994 42.9138 58.3447 43.0688 58.3627 43.1771C58.3806 43.2853 58.4369 43.4429 58.4878 43.5273C58.5386 43.6117 58.5802 43.7582 58.5802 43.8528C58.5802 43.9476 58.6224 44.0785 58.674 44.1442C58.7256 44.2098 58.7836 44.3734 58.8031 44.5076C58.8224 44.6418 58.8706 44.7886 58.9102 44.8339C58.9498 44.8792 58.9941 45.012 59.0087 45.1291C59.0234 45.2463 59.0745 45.4085 59.1223 45.4897C59.1701 45.5709 59.2244 45.7148 59.2428 45.8095C59.2613 45.9042 59.3172 46.0925 59.3671 46.2278C59.417 46.3631 59.4829 46.5691 59.5138 46.6855C59.6261 47.1101 59.8487 47.0084 60.4843 46.2415C60.6778 46.0081 61.1426 45.4705 61.9619 44.5327C62.0222 44.4637 62.2436 44.1959 62.4539 43.9377C62.6643 43.6795 62.8647 43.4359 62.8992 43.3964C62.9338 43.3569 63.0623 43.1918 63.1847 43.0295C63.3071 42.8671 63.4994 42.6267 63.612 42.4953C63.7245 42.364 63.8395 42.2177 63.8677 42.1702C64.0263 41.9032 64.1969 41.6763 64.2393 41.6763C64.266 41.6763 64.2879 41.6521 64.2879 41.6226C64.2879 41.593 64.3329 41.51 64.388 41.4381C64.4432 41.3661 64.5824 41.1855 64.6974 41.0367C64.8126 40.8878 64.9827 40.6443 65.0754 40.4954C65.1683 40.3466 65.257 40.2137 65.2727 40.2002C65.3191 40.1603 65.5378 39.8417 65.6 39.7235C65.6316 39.6635 65.6818 39.5857 65.7116 39.5506C65.828 39.4135 66.0576 39.0409 66.0584 38.9877C66.0589 38.9567 66.0918 38.9189 66.1315 38.9036C66.1712 38.8884 66.2373 38.803 66.2782 38.7138C66.3866 38.478 66.541 38.2197 66.5933 38.1867C66.6182 38.171 66.6742 38.0807 66.7176 37.986C66.7612 37.8913 66.8523 37.7252 66.9204 37.6169C66.9883 37.5087 67.0878 37.3386 67.1414 37.2389C67.1949 37.1393 67.2595 37.0449 67.285 37.0293C67.3103 37.0136 67.3451 36.9364 67.3625 36.8578C67.3797 36.7792 67.4236 36.7035 67.46 36.6894C67.4964 36.6755 67.5406 36.5985 67.5582 36.5183C67.5758 36.438 67.6332 36.3334 67.6859 36.2858C67.7384 36.2383 67.7814 36.1615 67.7814 36.1152C67.7814 36.069 67.8227 35.9783 67.8731 35.9137C67.9235 35.8491 67.9817 35.741 68.0025 35.6733C68.0234 35.6057 68.0817 35.4915 68.1323 35.4197C68.183 35.3479 68.2243 35.269 68.2243 35.2445C68.2243 35.2201 68.335 34.9813 68.4703 34.7139C68.6056 34.4464 68.7163 34.2014 68.7163 34.1693C68.7163 34.1372 68.7495 34.0833 68.7901 34.0496C68.8307 34.0159 68.8639 33.9522 68.8639 33.9079C68.8639 33.8636 68.9193 33.7234 68.987 33.5963C69.0546 33.4692 69.1101 33.3365 69.1102 33.3014C69.1103 33.2664 69.1657 33.1287 69.2332 32.9956C69.3008 32.8625 69.356 32.7158 69.356 32.6695C69.356 32.6233 69.3875 32.5594 69.426 32.5274C69.4645 32.4955 69.5104 32.3841 69.528 32.2799C69.5456 32.1758 69.5908 32.0497 69.6286 31.9998C69.822 31.7447 69.7314 31.6597 69.2822 31.6744ZM52.429 33.2263C52.2527 33.3949 51.8784 33.7433 51.5971 34.0004C50.9353 34.6055 50.5117 35.0018 50.0574 35.4413C49.8555 35.6366 49.5178 35.9514 49.3068 36.1408C49.0958 36.3302 48.8622 36.5406 48.7878 36.6082C48.039 37.2879 47.7359 37.5688 47.4341 37.863C46.9826 38.3029 46.5839 38.6775 46.1806 39.0408C45.8732 39.3177 45.0801 40.0427 44.8047 40.2986C44.7319 40.3663 44.337 40.7401 43.9272 41.1294C43.5174 41.5187 43.137 41.8687 43.0819 41.9073C42.7571 42.1348 42.821 42.3028 43.2652 42.3907C43.3531 42.408 43.4251 42.4417 43.4251 42.4656C43.4251 42.4894 43.5192 42.5324 43.6342 42.5609C43.7492 42.5894 43.9098 42.6439 43.991 42.6821C44.0721 42.7202 44.2271 42.778 44.3354 42.8105C44.4436 42.8431 44.5654 42.8973 44.606 42.9313C44.6466 42.9651 44.7463 43.004 44.8274 43.0175C44.9715 43.0415 45.3109 43.1703 45.7185 43.3557C45.8297 43.4064 45.9519 43.4477 45.9899 43.4477C46.0279 43.4477 46.1417 43.492 46.2426 43.5461C46.3436 43.6002 46.454 43.6448 46.488 43.645C46.5218 43.6453 46.6603 43.6999 46.7956 43.7664C46.9309 43.833 47.0885 43.8882 47.1457 43.8889C47.2029 43.8898 47.3026 43.9316 47.3671 43.9818C47.4317 44.032 47.5691 44.0887 47.6726 44.1078C47.776 44.1267 47.931 44.1853 48.017 44.2377C48.103 44.2901 48.2151 44.3331 48.266 44.3333C48.3169 44.3333 48.4276 44.3753 48.512 44.4265C48.5964 44.4777 48.7429 44.5356 48.8376 44.5552C48.9323 44.5747 49.0343 44.6104 49.0643 44.6345C49.0943 44.6585 49.2383 44.7199 49.3842 44.7708C49.9333 44.9625 50.0001 44.9882 50.2449 45.1022C50.3829 45.1665 50.5421 45.2191 50.5987 45.2191C50.6552 45.2191 50.7152 45.241 50.7316 45.2677C50.7481 45.2944 50.8788 45.3502 51.0221 45.3919C51.1653 45.4335 51.3247 45.4995 51.3763 45.5387C51.4279 45.5776 51.5166 45.6102 51.5734 45.6111C51.6304 45.612 51.7809 45.6681 51.9082 45.7357C52.0354 45.8034 52.1856 45.8587 52.2419 45.8587C52.2981 45.8587 52.4132 45.9007 52.4976 45.9519C52.582 46.003 52.7285 46.0613 52.8232 46.0813C52.9179 46.1012 53.0482 46.159 53.1128 46.2096C53.1774 46.2601 53.2854 46.3016 53.353 46.3016C53.4206 46.3016 53.5449 46.3435 53.6293 46.3947C53.7137 46.4459 53.8602 46.5037 53.9549 46.5231C54.0496 46.5427 54.1603 46.5868 54.2009 46.6214C54.2415 46.656 54.3522 46.6999 54.447 46.7191C54.5417 46.7383 54.6924 46.7961 54.7819 46.8476C54.8714 46.899 54.9821 46.942 55.0279 46.9428C55.0737 46.9436 55.2219 46.9988 55.3573 47.0654C55.4926 47.1319 55.6504 47.1865 55.708 47.1868C55.7655 47.187 55.8397 47.2199 55.8728 47.2597C55.9059 47.2997 56.0138 47.3466 56.1125 47.3641C56.2113 47.3817 56.3586 47.435 56.4398 47.4825C56.5209 47.53 56.6682 47.5832 56.767 47.6008C56.8657 47.6184 56.9724 47.6639 57.004 47.7021C57.0357 47.7402 57.1321 47.7852 57.2182 47.8022C57.3042 47.8192 57.4376 47.8573 57.5145 47.8871C57.7427 47.9751 57.8072 47.6562 57.6214 47.3584C57.5872 47.3036 57.543 47.1597 57.5232 47.0385C57.5034 46.9174 57.4481 46.7518 57.4002 46.6706C57.3524 46.5894 57.3012 46.4272 57.2866 46.3101C57.2719 46.193 57.2269 46.0601 57.1863 46.0148C57.1458 45.9696 57.0965 45.8226 57.0766 45.6882C57.0568 45.5538 56.9995 45.3766 56.9494 45.2946C56.8993 45.2124 56.8581 45.0788 56.8579 44.9976C56.8576 44.9165 56.8138 44.784 56.7606 44.7032C56.7073 44.6225 56.6489 44.4564 56.6308 44.3341C56.6127 44.212 56.5569 44.0348 56.5066 43.9405C56.4562 43.8461 56.415 43.7133 56.4148 43.6453C56.4147 43.5772 56.3705 43.4551 56.3167 43.3739C56.263 43.2927 56.2186 43.1598 56.2182 43.0787C56.2178 42.9975 56.163 42.8203 56.0964 42.685C56.0299 42.5497 55.9746 42.3883 55.9739 42.3263C55.973 42.2643 55.928 42.1268 55.8739 42.0208C55.8198 41.9147 55.7755 41.7813 55.7755 41.7243C55.7755 41.6673 55.7323 41.517 55.6794 41.3902C55.6266 41.2634 55.5599 41.0674 55.5311 40.9546C55.5023 40.8419 55.4459 40.6869 55.406 40.6102C55.366 40.5335 55.3331 40.4201 55.3329 40.3581C55.3328 40.2961 55.2902 40.1623 55.2383 40.0606C55.1865 39.959 55.1277 39.7885 55.1077 39.6817C55.0876 39.575 55.0309 39.3989 54.9816 39.2904C54.9322 39.1819 54.8914 39.0488 54.8905 38.9947C54.8898 38.9405 54.8552 38.8312 54.8138 38.7517C54.7725 38.6723 54.7165 38.5089 54.6895 38.3888C54.6626 38.2687 54.597 38.0748 54.5438 37.9578C54.4905 37.8409 54.447 37.699 54.447 37.6423C54.447 37.5856 54.4056 37.457 54.3552 37.3566C54.3048 37.2563 54.2476 37.0865 54.2281 36.9796C54.2087 36.8726 54.1503 36.7019 54.0985 36.6002C54.0466 36.4985 54.0041 36.369 54.0041 36.3123C54.0041 36.2556 53.9618 36.1163 53.9101 36.0028C53.8585 35.8892 53.8007 35.7078 53.7816 35.5995C53.7626 35.4913 53.718 35.3561 53.6823 35.2991C53.6468 35.2423 53.602 35.1095 53.5828 35.0039C53.5636 34.8985 53.5067 34.7301 53.4562 34.6297C53.4058 34.5293 53.3645 34.3908 53.3645 34.3219C53.3645 34.2532 53.3202 34.1143 53.2662 34.0134C53.212 33.9126 53.155 33.752 53.1392 33.6568C53.1021 33.432 52.8659 32.9176 52.8003 32.9187C52.7723 32.9192 52.6052 33.0576 52.429 33.2263ZM70.2224 35.6036C70.2059 35.6464 70.1925 35.7208 70.1925 35.7692C70.1925 35.8174 70.1495 35.9115 70.0971 35.9782C70.0446 36.0448 69.9873 36.1569 69.9697 36.2271C69.952 36.2975 69.8953 36.3932 69.8436 36.4401C69.792 36.4868 69.7496 36.5737 69.7496 36.633C69.7496 36.6923 69.7038 36.7937 69.6477 36.8583C69.5916 36.923 69.5335 37.0372 69.5185 37.112C69.5035 37.1868 69.4711 37.2479 69.4465 37.2479C69.4218 37.2479 69.3585 37.342 69.3057 37.457C69.2528 37.572 69.1886 37.6994 69.1627 37.7399C69.1369 37.7805 68.991 38.0352 68.8384 38.3058C68.4364 39.0187 68.211 39.39 68.1174 39.4939C68.0721 39.544 68.0198 39.6466 68.001 39.7218C67.9823 39.7968 67.9252 39.8807 67.8742 39.908C67.8231 39.9353 67.7814 39.9855 67.7814 40.0197C67.7814 40.0538 67.7479 40.125 67.7069 40.1779C67.6659 40.2307 67.5122 40.4622 67.3653 40.6922C67.2184 40.9223 67.0227 41.2101 66.9306 41.3319C66.8383 41.4537 66.7341 41.6087 66.6991 41.6763C66.664 41.744 66.5555 41.8991 66.4581 42.021C66.3605 42.1429 66.2586 42.2781 66.2315 42.3216C66.1187 42.5027 65.9856 42.6903 65.9141 42.769C65.8722 42.8153 65.777 42.9371 65.7027 43.0397C65.6282 43.1423 65.4268 43.4054 65.2549 43.6243C65.0829 43.8433 64.8511 44.1459 64.7397 44.2967C64.6283 44.4475 64.4866 44.6262 64.4248 44.6937C64.3631 44.7612 64.2629 44.8794 64.2024 44.9563C63.8346 45.423 63.3089 46.0531 63.1764 46.1859C63.0913 46.2712 62.8602 46.5369 62.6629 46.7764C62.4656 47.0159 62.2578 47.2602 62.2013 47.3192C62.1447 47.3783 61.9101 47.6318 61.6801 47.8828C61.45 48.1337 61.1238 48.4839 60.9552 48.6611C60.6185 49.0146 60.564 49.1903 60.7503 49.3208C60.8542 49.3936 61.2947 49.7839 61.7539 50.2103C62.0604 50.4948 62.0967 50.5264 62.6396 50.9838C62.8831 51.189 63.2305 51.4981 63.4116 51.6708C63.5926 51.8434 63.8452 52.0733 63.9726 52.1815C64.1002 52.2898 64.2538 52.4226 64.314 52.4768C64.3743 52.5309 64.5529 52.6859 64.7109 52.8212C65.0398 53.1027 65.4354 53.4569 65.6193 53.6346C65.7562 53.7667 65.9464 53.9346 66.4788 54.3933C66.8841 54.7424 67.1259 54.9612 67.4059 55.2321C67.5177 55.3402 67.7421 55.5371 67.9045 55.6695C68.0668 55.802 68.3292 56.0424 68.4874 56.2038C68.8487 56.5721 68.8376 56.5905 68.9057 55.5029C68.9369 55.0022 68.9954 54.349 69.0358 54.0513C69.0761 53.7536 69.1099 53.2444 69.1106 52.9196C69.1114 52.5949 69.144 52.0967 69.183 51.8125C69.2222 51.5283 69.2776 50.8419 69.3063 50.2872C69.3351 49.7324 69.3906 49.0349 69.4297 48.7372C69.4688 48.4395 69.5248 47.6978 69.5539 47.0888C69.5831 46.4799 69.629 45.8981 69.6559 45.7959C69.6828 45.6936 69.7256 45.129 69.751 44.5411C69.7763 43.9533 69.8202 43.3062 69.8488 43.1033C69.9364 42.4782 69.9912 41.7735 69.9936 41.2454C69.9947 40.9678 70.0381 40.4253 70.0899 40.0399C70.1418 39.6545 70.1967 38.9627 70.212 38.5026C70.2274 38.0426 70.2716 37.4336 70.3103 37.1495C70.4257 36.3024 70.4568 35.6809 70.3879 35.5979C70.3107 35.5048 70.2596 35.5065 70.2224 35.6036ZM26.0376 38.6871C25.9676 38.9482 26.004 49.4776 26.0753 49.575C26.1405 49.6641 26.1481 49.6603 26.226 49.4983C26.4035 49.1291 26.5184 48.9324 26.5772 48.8969C26.611 48.8763 26.6528 48.7949 26.6702 48.7157C26.6876 48.6366 26.7349 48.5443 26.7753 48.5107C26.8157 48.4773 26.8815 48.3816 26.9215 48.2983C26.9614 48.2149 27.0483 48.0582 27.1145 47.9499C27.1807 47.8417 27.2617 47.6978 27.2944 47.6301C27.3273 47.5624 27.3841 47.4709 27.4208 47.4269C27.4574 47.3827 27.5271 47.272 27.5755 47.1809C27.8525 46.66 28.0453 46.323 28.0796 46.2998C28.101 46.2853 28.1523 46.1928 28.1935 46.0941C28.2349 45.9954 28.2913 45.9006 28.3193 45.8833C28.3472 45.8661 28.4024 45.7816 28.442 45.6955C28.5174 45.5316 28.5738 45.4346 28.7277 45.2027C28.8282 45.0515 28.7566 44.7455 28.5114 44.2775C28.4599 44.1791 28.4177 44.0608 28.4177 44.0147C28.4177 43.9684 28.3734 43.8744 28.3193 43.8055C28.2651 43.7368 28.2206 43.6446 28.2204 43.601C28.2201 43.5573 28.1655 43.4108 28.0989 43.2755C28.0324 43.1402 27.9772 42.9937 27.9764 42.95C27.9756 42.9063 27.9305 42.8142 27.8764 42.7454C27.8223 42.6765 27.778 42.5862 27.778 42.5445C27.778 42.5028 27.7226 42.3647 27.655 42.2375C27.5873 42.1102 27.532 41.9767 27.532 41.9408C27.532 41.9049 27.4878 41.803 27.4337 41.7145C27.3797 41.6258 27.3354 41.5064 27.3353 41.4492C27.3353 41.392 27.2909 41.2888 27.2367 41.2201C27.1826 41.1512 27.1383 41.063 27.1383 41.0239C27.1383 40.9849 27.083 40.8488 27.0153 40.7215C26.9477 40.5943 26.8922 40.4526 26.8919 40.4067C26.8918 40.3607 26.8477 40.2568 26.7939 40.1756C26.7401 40.0944 26.696 39.997 26.6959 39.9591C26.6955 39.893 26.542 39.5413 26.3457 39.1572C26.2945 39.057 26.2527 38.9282 26.2527 38.8709C26.2527 38.6296 26.0903 38.4907 26.0376 38.6871ZM39.35 43.9685C39.2872 44.0126 39.0731 44.0688 38.874 44.0935C38.6751 44.1181 38.4369 44.1699 38.3445 44.2085C38.2522 44.247 38.0567 44.2924 37.9101 44.3093C37.7635 44.3261 37.555 44.3709 37.4467 44.4087C37.3385 44.4464 37.1033 44.5003 36.9242 44.5282C36.7451 44.5563 36.5042 44.6125 36.3891 44.6531C36.2739 44.6938 36.0994 44.7271 36.0013 44.7274C35.9032 44.7275 35.6604 44.7829 35.4616 44.8504C35.2628 44.9178 35.024 44.973 34.931 44.973C34.838 44.973 34.6866 45.0045 34.5945 45.043C34.5024 45.0814 34.2581 45.1386 34.0516 45.1699C33.8451 45.2011 33.6056 45.2559 33.5195 45.2913C33.4332 45.3267 33.241 45.3709 33.0921 45.3893C32.9433 45.4078 32.694 45.4656 32.5383 45.5179C32.3827 45.57 32.1688 45.6127 32.063 45.6127C31.5489 45.6127 31.1756 45.8934 31.3665 46.1362C31.4226 46.2073 31.4685 46.3236 31.4686 46.3943C31.4688 46.4651 31.5046 46.5894 31.5482 46.6706C31.5919 46.7518 31.6574 46.9179 31.6938 47.0396C31.8295 47.4921 32.0144 47.999 32.0604 48.045C32.0866 48.0712 32.1083 48.1491 32.1085 48.2181C32.1088 48.2871 32.1634 48.4543 32.2299 48.5896C32.2965 48.7249 32.3518 48.891 32.3528 48.9586C32.3538 49.0263 32.3987 49.1481 32.4525 49.2293C32.5062 49.3104 32.5504 49.4323 32.5505 49.5003C32.5507 49.5682 32.6062 49.7277 32.6739 49.8548C32.7415 49.9818 32.7969 50.1484 32.7969 50.2248C32.7969 50.3012 32.8326 50.4146 32.8761 50.4768C32.9198 50.5391 32.9851 50.6935 33.0213 50.8199C33.0574 50.9464 33.1558 51.238 33.2398 51.4681C33.324 51.6981 33.4124 51.9527 33.4365 52.0339C33.5198 52.3143 33.7018 52.8218 33.7904 53.0212C33.8394 53.1313 33.8795 53.2642 33.8796 53.3164C33.8799 53.3688 33.9159 53.4781 33.9598 53.5593C34.0038 53.6405 34.059 53.8048 34.0826 53.9246C34.1063 54.0443 34.1607 54.181 34.2035 54.2282C34.2463 54.2756 34.2937 54.4101 34.3088 54.5273C34.324 54.6444 34.3744 54.7955 34.4209 54.8632C34.4674 54.9309 34.5211 55.0722 34.5403 55.1774C34.5595 55.2825 34.618 55.4482 34.6701 55.5457C34.7224 55.6431 34.7651 55.7632 34.7651 55.8124C34.7651 55.8616 34.8069 55.9948 34.8579 56.1083C34.909 56.2219 34.9664 56.3922 34.9858 56.487C35.0049 56.5817 35.0489 56.7038 35.0833 56.7583C35.1176 56.8128 35.1625 56.9346 35.1828 57.0289C35.2032 57.1233 35.2615 57.2826 35.3124 57.383C35.3632 57.4833 35.4047 57.6118 35.4047 57.6684C35.4047 57.7249 35.4419 57.8421 35.4874 57.9287C35.5328 58.0153 35.5954 58.1968 35.6264 58.3321C35.7284 58.7772 35.984 58.4773 36.0951 57.7819C36.1242 57.5995 36.171 57.4225 36.1991 57.3886C36.2273 57.3547 36.268 57.1837 36.2898 57.0085C36.3116 56.8334 36.3663 56.6166 36.4115 56.5269C36.4566 56.4373 36.5051 56.2532 36.5191 56.1179C36.5331 55.9826 36.5853 55.7612 36.6349 55.6259C36.6844 55.4906 36.7376 55.2743 36.7529 55.1453C36.7682 55.0162 36.8143 54.846 36.8553 54.7668C36.8961 54.6877 36.95 54.4832 36.975 54.3125C36.9998 54.1417 37.0525 53.9246 37.0918 53.8299C37.1312 53.7352 37.1786 53.538 37.197 53.3916C37.2156 53.2453 37.2627 53.0638 37.3018 52.9881C37.3409 52.9126 37.3729 52.7951 37.3729 52.7271C37.3729 52.6592 37.428 52.4311 37.4953 52.2203C37.5626 52.0096 37.618 51.7771 37.6183 51.7036C37.6187 51.6302 37.6605 51.4641 37.7115 51.3346C37.7623 51.2051 37.8202 50.9773 37.8401 50.8284C37.8602 50.6796 37.9043 50.5024 37.9383 50.4348C37.9722 50.3671 38.0254 50.1643 38.0563 49.9839C38.0871 49.8036 38.1452 49.5932 38.1852 49.5165C38.2253 49.4397 38.2581 49.3077 38.2584 49.2232C38.2585 49.1387 38.314 48.9001 38.3816 48.6928C38.4493 48.4855 38.5046 48.2527 38.5046 48.1752C38.5046 48.0978 38.5484 47.938 38.6019 47.82C38.6554 47.7021 38.6997 47.5364 38.7003 47.4519C38.701 47.3673 38.7568 47.1287 38.8245 46.9214C38.8921 46.7142 38.9476 46.4844 38.9477 46.4108C38.948 46.3371 38.9784 46.2189 39.0155 46.1478C39.0525 46.0768 39.1087 45.8699 39.1404 45.6881C39.1721 45.5063 39.2283 45.2765 39.2653 45.1776C39.3024 45.0786 39.3468 44.898 39.364 44.7762C39.3812 44.6544 39.4318 44.4518 39.4763 44.3261C39.5853 44.0188 39.5244 43.8464 39.35 43.9685ZM41.609 44.0534C41.5794 44.0829 41.5552 44.1746 41.5551 44.2571C41.5547 44.4351 41.4783 44.7401 41.3799 44.9558C41.341 45.0412 41.3093 45.1888 41.3093 45.2839C41.3093 45.3791 41.2685 45.5529 41.2184 45.6702C41.1685 45.7874 41.1119 46.003 41.0927 46.1494C41.0735 46.2957 41.026 46.477 40.987 46.5524C40.948 46.6278 40.8936 46.8479 40.8662 47.0414C40.8388 47.235 40.7833 47.4405 40.743 47.4981C40.7026 47.5557 40.6696 47.6859 40.6696 47.7876C40.6696 47.8892 40.6143 48.1193 40.5466 48.299C40.479 48.4789 40.4236 48.7021 40.4236 48.7954C40.4236 48.8886 40.3812 49.0687 40.3294 49.1955C40.2775 49.3224 40.2237 49.5368 40.2098 49.6721C40.1959 49.8074 40.1392 50.0178 40.0837 50.1395C40.0283 50.2613 39.9818 50.4495 39.9802 50.5578C39.9787 50.666 39.9346 50.8432 39.8824 50.9514C39.8301 51.0597 39.7858 51.2257 39.7841 51.3205C39.7822 51.4152 39.7379 51.6145 39.6855 51.7633C39.6331 51.9121 39.5891 52.0893 39.5878 52.1569C39.5863 52.2246 39.5303 52.4349 39.4633 52.6244C39.3963 52.8138 39.3415 53.0269 39.3414 53.098C39.3412 53.169 39.3067 53.324 39.2645 53.4424C39.2224 53.5607 39.1571 53.8016 39.1194 53.9775C39.0368 54.3641 38.921 54.8262 38.7989 55.2568C38.7489 55.4327 38.6867 55.6874 38.6605 55.8227C38.6344 55.958 38.5784 56.1573 38.5364 56.2655C38.4942 56.3738 38.4587 56.5462 38.4576 56.6488C38.4564 56.7514 38.4142 56.9175 38.3639 57.0179C38.3136 57.1182 38.2585 57.3238 38.2415 57.4746C38.2245 57.6254 38.1773 57.8155 38.1366 57.897C38.0959 57.9786 38.042 58.1763 38.0169 58.3363C37.9917 58.4965 37.9385 58.727 37.8988 58.8488C37.8259 59.0728 37.722 59.5293 37.7031 59.7099C37.6877 59.8564 38.1493 59.8706 38.5823 59.7369C38.7617 59.6814 39.0004 59.6351 39.1126 59.6338C39.2247 59.6327 39.4051 59.5994 39.5133 59.5599C39.6216 59.5203 39.8961 59.4547 40.1236 59.4143C40.3509 59.3737 40.5613 59.3205 40.591 59.2961C40.6207 59.2716 40.7557 59.236 40.8911 59.217C41.0264 59.1979 41.234 59.1404 41.3525 59.0894C41.4709 59.0382 41.621 58.9964 41.6861 58.9964C41.7512 58.9964 41.9358 58.941 42.0966 58.8734C42.2574 58.8057 42.4333 58.7504 42.4874 58.7504C42.5416 58.7504 42.6806 58.7092 42.7964 58.6587C43.05 58.5481 43.4126 58.4213 43.7417 58.3279C43.8753 58.2902 43.9971 58.2391 44.0124 58.2147C44.0276 58.1902 44.1287 58.1463 44.237 58.117C44.3452 58.0878 44.4781 58.033 44.5322 57.9952C44.5863 57.9574 44.7081 57.9098 44.8028 57.8894C44.8976 57.8691 45.0304 57.8136 45.0981 57.7663C45.1657 57.7189 45.2916 57.6649 45.3775 57.6462C45.4637 57.6276 45.5605 57.5805 45.5927 57.5417C45.6249 57.5028 45.6746 57.471 45.7029 57.471C45.7552 57.471 46.3399 57.2078 46.4758 57.1232C46.5164 57.0978 46.605 57.055 46.6726 57.0281C46.7403 57.001 46.8288 56.9603 46.8694 56.9374C47.005 56.8612 47.139 56.7933 47.2631 56.7378C47.3307 56.7075 47.5632 56.5824 47.7797 56.4599C47.9962 56.3374 48.2675 56.1944 48.3825 56.1424C48.4975 56.0902 48.5916 56.0271 48.5916 56.002C48.5916 55.9769 48.6525 55.9411 48.7269 55.9226C48.8013 55.904 48.8995 55.8553 48.9449 55.8143C49.0327 55.7352 49.2508 55.6072 49.5142 55.4802C49.6021 55.4378 49.6741 55.3854 49.6741 55.3637C49.6741 55.342 49.7461 55.286 49.834 55.2394C50.0351 55.1325 50.154 55.0615 50.3396 54.937C50.4203 54.8829 50.522 54.8165 50.5656 54.7894C50.7979 54.645 51.2827 54.3171 51.3452 54.2623C51.3848 54.2275 51.4537 54.1768 51.4981 54.1497C51.5427 54.1227 51.6743 54.0341 51.7908 53.9529C51.9071 53.8717 52.0504 53.7721 52.1091 53.7315C52.4278 53.5112 53.0578 53.0391 53.143 52.9568C53.1972 52.9045 53.4075 52.7427 53.6105 52.5972C53.8135 52.4518 53.9906 52.3177 54.0041 52.2993C54.0256 52.2699 54.8144 51.6222 55.0763 51.4189C55.1286 51.3783 55.335 51.1984 55.5349 51.0192C56.1706 50.4495 56.6367 50.0577 56.7521 49.996C56.8136 49.963 56.8558 49.9114 56.8457 49.8811C56.8178 49.7973 56.3577 49.5561 56.2183 49.552C56.1507 49.5501 56.0289 49.5044 55.9477 49.4507C55.8665 49.3969 55.7669 49.3525 55.7263 49.3521C55.6857 49.3518 55.5418 49.2969 55.4065 49.2304C55.2711 49.1638 55.1269 49.1086 55.0859 49.1078C55.0449 49.107 54.9287 49.062 54.8278 49.0078C54.7268 48.9537 54.6053 48.9093 54.5578 48.9093C54.5104 48.9092 54.4012 48.8661 54.3152 48.8137C54.2292 48.7613 54.0747 48.7026 53.9718 48.6833C53.8689 48.664 53.7179 48.6074 53.6361 48.5576C53.5544 48.5078 53.4539 48.4668 53.4129 48.4667C53.372 48.4667 53.2557 48.4223 53.1548 48.3682C53.0539 48.314 52.9323 48.2696 52.8848 48.2695C52.8375 48.2694 52.71 48.2147 52.6018 48.148C52.4935 48.0813 52.3522 48.0261 52.2877 48.0252C52.2233 48.0245 52.1015 47.9818 52.0171 47.9306C51.9327 47.8794 51.7866 47.8211 51.6922 47.8012C51.5979 47.7812 51.4711 47.7323 51.4104 47.6925C51.3498 47.6527 51.2276 47.6024 51.1391 47.5807C50.9775 47.5409 50.5178 47.3642 50.3439 47.2748C50.2927 47.2485 50.138 47.1935 50.0001 47.1526C49.8621 47.1116 49.7052 47.0473 49.6515 47.0096C49.5977 46.972 49.5083 46.9412 49.4527 46.9412C49.3971 46.9412 49.3077 46.9105 49.2539 46.8728C49.2001 46.8352 49.04 46.7699 48.8981 46.7277C48.7562 46.6856 48.5911 46.6167 48.5311 46.5748C48.4712 46.5327 48.3768 46.4984 48.3216 46.4984C48.2664 46.4984 48.1384 46.4541 48.0376 46.4C47.9366 46.3459 47.8261 46.3013 47.7921 46.3011C47.7583 46.3008 47.6198 46.2462 47.4845 46.1797C47.3492 46.1131 47.1968 46.0579 47.1458 46.0571C47.0949 46.0563 46.9842 46.0136 46.8998 45.9624C46.8154 45.9113 46.6708 45.8533 46.5783 45.8338C46.4859 45.8141 46.342 45.7565 46.2584 45.7056C46.175 45.6547 46.0651 45.613 46.0141 45.6128C45.9632 45.6128 45.8525 45.5708 45.7681 45.5196C45.6837 45.4684 45.5372 45.4101 45.4425 45.3901C45.3478 45.37 45.1932 45.3122 45.0988 45.2618C45.0045 45.2112 44.8937 45.1697 44.8528 45.1697C44.8118 45.1696 44.7058 45.1253 44.6171 45.0713C44.5285 45.0172 44.4178 44.9728 44.3711 44.9726C44.3244 44.9723 44.1755 44.9177 44.0402 44.8511C43.9049 44.7846 43.7457 44.7294 43.6864 44.7286C43.6271 44.7278 43.565 44.7051 43.5485 44.6784C43.532 44.6517 43.3934 44.5936 43.2405 44.5491C43.0876 44.5046 42.9348 44.4406 42.901 44.4067C42.8671 44.3729 42.7553 44.3298 42.6526 44.3111C42.5498 44.2923 42.4164 44.2452 42.3563 44.2064C42.1816 44.094 41.6726 43.9898 41.609 44.0534ZM29.5497 47.7347C29.5136 47.8259 29.455 47.935 29.4196 47.977C29.3842 48.0189 29.2738 48.2072 29.1746 48.3952C29.0752 48.5833 28.9782 48.7483 28.959 48.7618C28.94 48.7753 28.8852 48.8694 28.8376 48.9709C28.7899 49.0724 28.7331 49.1554 28.7112 49.1554C28.6894 49.1554 28.6573 49.2204 28.6398 49.2996C28.6224 49.379 28.5751 49.4713 28.5346 49.5049C28.4943 49.5384 28.43 49.6341 28.392 49.7174C28.3538 49.8008 28.2664 49.9575 28.1976 50.0657C28.1288 50.174 28.0408 50.3307 28.002 50.4141C27.9631 50.4974 27.8982 50.5931 27.8578 50.6265C27.8174 50.6601 27.7701 50.7523 27.7528 50.8312C27.7354 50.9102 27.7021 50.9867 27.6786 51.0012C27.6551 51.0158 27.5406 51.1956 27.4241 51.401C27.3075 51.6065 27.1631 51.8549 27.1032 51.9534C27.0433 52.0518 26.9594 52.1988 26.9168 52.2799C26.8742 52.3611 26.7739 52.5272 26.6938 52.649C26.3827 53.1221 26.3418 53.5285 26.562 53.9587C26.602 54.0367 26.651 54.1983 26.6708 54.3179C26.6907 54.4373 26.7485 54.6034 26.7994 54.6869C26.8504 54.7703 26.8921 54.8773 26.8922 54.9247C26.8923 54.9972 26.9784 55.1897 27.1949 55.6013C27.2162 55.6419 27.2792 55.7636 27.3348 55.8719C27.4599 56.1157 27.5259 56.2249 27.6673 56.4218C27.7282 56.5065 27.778 56.5916 27.778 56.6107C27.778 56.7728 29.1194 58.1151 29.6112 58.4451C30.0264 58.7237 30.7386 59.1156 30.9763 59.1964C31.071 59.2285 31.1817 59.2825 31.2223 59.3162C31.2629 59.3499 31.3847 59.3934 31.493 59.4125C31.6012 59.4317 31.7588 59.4899 31.8432 59.5418C31.9276 59.5936 32.0652 59.6361 32.1489 59.6361C32.2326 59.6361 32.4072 59.6775 32.5367 59.7281C32.6662 59.7787 32.9273 59.8362 33.1167 59.8556C33.3062 59.8752 33.5818 59.9223 33.7294 59.9603C34.0518 60.0435 34.1184 60.0013 34.0094 59.7829C33.9664 59.6967 33.9168 59.5454 33.8993 59.4466C33.8817 59.3478 33.8259 59.198 33.775 59.1136C33.7241 59.0292 33.6823 58.9075 33.6821 58.843C33.6818 58.7785 33.6272 58.6151 33.5607 58.4797C33.4941 58.3444 33.4383 58.1784 33.4365 58.1107C33.4348 58.0431 33.4027 57.9471 33.3651 57.8975C33.3276 57.8481 33.2697 57.6931 33.2367 57.5531C33.2036 57.4132 33.1465 57.2552 33.1097 57.2018C33.0729 57.1484 33.0429 57.059 33.0429 57.0031C33.0429 56.9471 32.9989 56.8149 32.945 56.7092C32.8911 56.6036 32.8333 56.4384 32.8164 56.342C32.7997 56.2458 32.7441 56.0939 32.6931 56.0044C32.6419 55.9149 32.5993 55.7932 32.5985 55.7338C32.5977 55.6745 32.5425 55.5152 32.4759 55.3798C32.4094 55.2445 32.3548 55.0779 32.3545 55.0095C32.3543 54.9411 32.3211 54.8381 32.2808 54.7807C32.2406 54.7232 32.1764 54.5578 32.138 54.413C32.0998 54.2682 32.0331 54.0833 31.99 54.0021C31.947 53.9209 31.9117 53.8146 31.9114 53.7659C31.9113 53.7172 31.876 53.6095 31.8331 53.5263C31.7902 53.4433 31.7257 53.2728 31.69 53.1474C31.6064 52.8543 31.4729 52.4678 31.3902 52.2799C31.3546 52.1988 31.3001 52.0333 31.2691 51.9124C31.2381 51.7913 31.1816 51.648 31.1437 51.5939C31.1057 51.5397 31.074 51.4394 31.0731 51.371C31.0724 51.3026 31.0171 51.1359 30.9506 51.0006C30.884 50.8653 30.8294 50.7018 30.8292 50.6374C30.8289 50.5729 30.7863 50.4511 30.7345 50.3667C30.6826 50.2824 30.6238 50.1253 30.6038 50.0175C30.5838 49.9099 30.5267 49.7549 30.4769 49.6731C30.4271 49.5914 30.3861 49.4691 30.3859 49.4015C30.3856 49.3338 30.3446 49.2115 30.2948 49.1299C30.245 49.0481 30.188 48.8931 30.1684 48.7854C30.1487 48.6777 30.1043 48.5453 30.0698 48.4912C30.0354 48.4371 29.9805 48.2821 29.9479 48.1467C29.9153 48.0114 29.8273 47.8259 29.7521 47.7347L29.6157 47.5686L29.5497 47.7347ZM59.0362 50.6242C58.9456 50.6507 58.3705 51.1513 57.9212 51.595C57.8641 51.6514 57.6071 51.8714 57.35 52.0842C57.0929 52.2969 56.8472 52.5054 56.8039 52.5476C56.4712 52.8715 56.124 53.168 55.8493 53.3625C55.7152 53.4575 55.4888 53.6493 55.3296 53.8027C55.2874 53.8434 55.0881 53.9984 54.8867 54.147C54.6855 54.2956 54.4278 54.4971 54.3141 54.5949C54.2006 54.6927 54.0013 54.8415 53.8713 54.9259C53.7414 55.0102 53.5354 55.159 53.4137 55.2567C53.2919 55.3545 53.0622 55.5218 52.9032 55.6286C52.7442 55.7353 52.4785 55.9172 52.3127 56.0325C51.8793 56.3343 51.6359 56.4972 51.4891 56.5835C51.2031 56.7518 50.8839 56.9618 50.7198 57.0897C50.6244 57.1641 50.5205 57.225 50.4892 57.225C50.4578 57.225 50.3889 57.2582 50.336 57.2988C50.145 57.4456 49.8923 57.599 49.7356 57.6633C49.6477 57.6995 49.5757 57.7451 49.5757 57.7648C49.5757 57.7845 49.4927 57.8377 49.3912 57.8834C49.2897 57.9289 49.096 58.029 48.9606 58.106C48.8253 58.1829 48.5596 58.3265 48.3702 58.4249C48.1807 58.5233 47.9704 58.6342 47.9027 58.6714C47.6859 58.7907 46.9498 59.1399 46.7464 59.22C46.3026 59.3951 47.3662 59.4507 48.1811 59.2951C48.3207 59.2685 48.8743 59.2325 49.4112 59.215C49.9482 59.1975 50.6865 59.1507 51.0518 59.1109C51.4172 59.0711 52.1811 59.019 52.7494 58.9954C53.3177 58.9718 54.0927 58.9174 54.4716 58.8747C54.8504 58.832 55.5479 58.7853 56.0215 58.7709C56.4951 58.7565 57.1483 58.7132 57.4731 58.6747C57.7978 58.6361 58.5728 58.5822 59.1952 58.5548C59.8177 58.5274 60.6369 58.4722 61.0158 58.4321C61.3947 58.3922 62.225 58.3361 62.861 58.3075C63.4969 58.279 64.1059 58.2346 64.2141 58.2087C64.3224 58.183 64.8316 58.1498 65.3458 58.1349C65.86 58.1201 66.5485 58.0838 66.8758 58.0541L67.471 58.0004L67.2669 57.7972C67.1546 57.6855 66.9099 57.4612 66.7232 57.2988C66.5363 57.1365 66.2797 56.904 66.1529 56.7822C66.0259 56.6604 65.8152 56.4722 65.6843 56.3639C65.5536 56.2557 65.4004 56.1228 65.3441 56.0687C65.2878 56.0146 65.0989 55.8489 64.9246 55.7005C64.7503 55.5521 64.5294 55.3528 64.4337 55.2577C64.338 55.1625 64.1166 54.963 63.9416 54.8142C63.7667 54.6656 63.6126 54.53 63.599 54.5127C63.5855 54.4955 63.4194 54.3509 63.23 54.1911C62.8169 53.8429 62.5215 53.5785 62.2491 53.3132C62.072 53.1407 61.66 52.7805 61.2926 52.4768C61.1425 52.3526 60.7678 52.0231 60.5936 51.8617C60.1417 51.4433 59.6138 50.9685 59.4658 50.8472C59.3711 50.7696 59.2644 50.6782 59.2286 50.6443C59.1929 50.6102 59.1597 50.5846 59.1548 50.5873C59.15 50.59 59.0966 50.6066 59.0362 50.6242Z" fill="white"/>
</g>
<defs>
<filter id="filter0_i" x="19" y="8" width="61" height="62" filterUnits="userSpaceOnUse" color-interpolation-filters="sRGB">
<feFlood flood-opacity="0" result="BackgroundImageFix"/>
<feBlend mode="normal" in="SourceGraphic" in2="BackgroundImageFix" result="shape"/>
<feColorMatrix in="SourceAlpha" type="matrix" values="0 0 0 0 0 0 0 0 0 0 0 0 0 0 0 0 0 0 127 0" result="hardAlpha"/>
<feOffset dx="1" dy="2"/>
<feGaussianBlur stdDeviation="2"/>
<feComposite in2="hardAlpha" operator="arithmetic" k2="-1" k3="1"/>
<feColorMatrix type="matrix" values="0 0 0 0 0.370833 0 0 0 0 0.210963 0 0 0 0 0 0 0 0 0.15 0"/>
<feBlend mode="normal" in2="shape" result="effect1_innerShadow"/>
</filter>
</defs>
</svg>
