<svg width="98" height="98" viewBox="0 0 98 98" fill="none" xmlns="http://www.w3.org/2000/svg">
<rect width="98" height="98" rx="4" fill="#F29111"/>
<g filter="url(#filter0_i)">
<path fill-rule="evenodd" clip-rule="evenodd" d="M53.6471 15.2426V15H71V60H26V15H43.3279V15.2426C43.3279 18.0919 45.6375 20.4022 48.4875 20.4022C51.3368 20.4022 53.6471 18.0926 53.6471 15.2426ZM39.4355 39.2509H36.4531L39.8737 55.1839H42.8884L45.2347 44.3406H45.2921L47.484 55.1839H50.4436L54.2443 39.2509H51.3193L48.9987 50.2273H48.9553L46.745 39.2509H43.9553L41.5083 50.0942H41.4715L39.4355 39.2509ZM62.3083 39.2509H57.6068L53.7495 55.1839H56.7458L57.5296 51.6384H62.8855L63.9009 55.1839H66.9774L62.3083 39.2509ZM58.0958 49.0237L59.3965 43.1781H60.6509L62.1443 49.0237H58.0958Z" fill="white"/>
</g>
<path d="M25.528 85L22.378 71.914H24.07L26.536 82.282L29.362 72.634H30.874L33.736 82.39L36.238 71.914H37.858L34.708 85H33.088L30.118 75.118L27.148 85H25.528ZM37.6835 85L42.7415 71.914H44.4155L49.4915 85H47.6375L46.4855 81.778H40.6355L39.4835 85H37.6835ZM41.1575 80.338H45.9635L43.5515 73.66L41.1575 80.338ZM50.5504 84.424V82.948C51.8704 83.488 53.1304 83.758 54.3304 83.758C55.3384 83.758 56.1244 83.56 56.6884 83.164C57.2644 82.768 57.5524 82.222 57.5524 81.526C57.5524 81.01 57.3784 80.584 57.0304 80.248C56.6824 79.912 56.0524 79.57 55.1404 79.222L53.7544 78.682C52.5904 78.226 51.7504 77.722 51.2344 77.17C50.7304 76.606 50.4784 75.946 50.4784 75.19C50.4784 74.11 50.8864 73.258 51.7024 72.634C52.5184 72.01 53.6344 71.698 55.0504 71.698C55.6384 71.698 56.2444 71.77 56.8684 71.914C57.4924 72.046 58.0264 72.232 58.4704 72.472V73.948C57.2464 73.42 56.1184 73.156 55.0864 73.156C53.1304 73.156 52.1524 73.822 52.1524 75.154C52.1524 75.598 52.3264 75.976 52.6744 76.288C53.0224 76.6 53.6344 76.93 54.5104 77.278L55.8964 77.818C57.0964 78.286 57.9484 78.814 58.4524 79.402C58.9684 79.978 59.2264 80.674 59.2264 81.49C59.2264 82.666 58.8064 83.584 57.9664 84.244C57.1384 84.892 55.9744 85.216 54.4744 85.216C54.0184 85.216 53.5384 85.18 53.0344 85.108C52.5424 85.036 52.0804 84.94 51.6484 84.82C51.2164 84.7 50.8504 84.568 50.5504 84.424ZM61.374 85V71.914H63.084L68.016 81.994L72.84 71.914H74.55V85H72.93V74.956L68.664 83.74H67.26L62.994 75.064V85H61.374Z" fill="white"/>
<defs>
<filter id="filter0_i" x="19" y="8" width="61" height="62" filterUnits="userSpaceOnUse" color-interpolation-filters="sRGB">
<feFlood flood-opacity="0" result="BackgroundImageFix"/>
<feBlend mode="normal" in="SourceGraphic" in2="BackgroundImageFix" result="shape"/>
<feColorMatrix in="SourceAlpha" type="matrix" values="0 0 0 0 0 0 0 0 0 0 0 0 0 0 0 0 0 0 127 0" result="hardAlpha"/>
<feOffset dx="1" dy="2"/>
<feGaussianBlur stdDeviation="2"/>
<feComposite in2="hardAlpha" operator="arithmetic" k2="-1" k3="1"/>
<feColorMatrix type="matrix" values="0 0 0 0 0 0 0 0 0 0.458824 0 0 0 0 0.560784 0 0 0 0.15 0"/>
<feBlend mode="normal" in2="shape" result="effect1_innerShadow"/>
</filter>
</defs>
</svg>
