<svg width="110" height="110" viewBox="0 0 110 110" fill="none" xmlns="http://www.w3.org/2000/svg">
<g opacity="0.1">
<path d="M34.4443 55.004C34.4443 66.3379 43.6652 75.5581 54.9996 75.5581C66.3332 75.5581 75.5533 66.3376 75.5533 55.004C75.5533 43.67 66.3332 34.4491 54.9996 34.4491C43.6652 34.4491 34.4443 43.67 34.4443 55.004Z" fill="white"/>
<path d="M102.331 27.8718C102.491 27.5902 102.488 27.2443 102.322 26.9655C97.5345 18.902 90.721 12.1476 82.6185 7.43276C74.2676 2.57292 64.717 0.0043335 55.0006 0.0043335C38.185 0.0043335 22.5138 7.55069 12.005 20.7085C11.7731 20.9985 11.7428 21.4006 11.9286 21.7219L27.4115 48.5385C27.5738 48.8198 27.8731 48.9893 28.192 48.9893C28.2324 48.9893 28.2735 48.9864 28.3142 48.981C28.6771 48.9316 28.9739 48.6676 29.0655 48.3131C32.1184 36.4839 42.7834 28.2224 55.0006 28.2224C55.7587 28.2224 56.5417 28.257 57.3286 28.3241C57.3542 28.3266 57.3802 28.3277 57.4058 28.3277H101.547C101.871 28.3277 102.17 28.1539 102.331 27.8718Z" fill="white"/>
<path d="M63.1274 81.1245C62.9034 80.8349 62.5276 80.7104 62.1731 80.8085C59.8443 81.457 57.4312 81.7855 55 81.7855C44.6705 81.7855 35.1502 75.7273 30.7455 66.3516C30.7347 66.3286 30.7228 66.3062 30.7102 66.2838L8.62364 28.0298C8.46279 27.7503 8.16489 27.579 7.84282 27.579C7.84138 27.579 7.83957 27.579 7.83813 27.579C7.51426 27.5808 7.216 27.7557 7.05731 28.0377C2.44056 36.23 0 45.5548 0 55.004C0 68.2599 4.7823 81.0642 13.4658 91.0584C22.0631 100.953 33.8991 107.465 46.7944 109.394C46.8391 109.401 46.8838 109.404 46.9282 109.404C47.2466 109.404 47.546 109.234 47.7086 108.953L63.1955 82.1282C63.3788 81.8108 63.3517 81.4141 63.1274 81.1245Z" fill="white"/>
<path d="M105.374 34.3438H74.3672C74.0008 34.3438 73.6708 34.5656 73.5326 34.9046C73.3941 35.2436 73.4746 35.6332 73.7361 35.8892C78.9241 40.9752 81.7812 47.7634 81.7812 55.004C81.7812 60.4852 80.1272 65.7602 76.9978 70.259C76.9834 70.2799 76.9701 70.3012 76.9574 70.3232L54.8326 108.644C54.6707 108.924 54.6718 109.27 54.8352 109.55C54.9971 109.827 55.2936 109.996 55.6135 109.996C55.6167 109.996 55.6203 109.996 55.6236 109.996C70.1832 109.834 83.8459 104.041 94.0943 93.6865C104.351 83.323 110 69.5853 110 55.004C110 48.0733 108.726 41.3149 106.213 34.9162C106.078 34.5707 105.745 34.3438 105.374 34.3438Z" fill="white"/>
</g>
</svg>
