<svg width="110" height="110" viewBox="0 0 110 110" fill="none" xmlns="http://www.w3.org/2000/svg">
<g opacity="0.1">
<path d="M55 68.75C62.5939 68.75 68.75 62.5939 68.75 55C68.75 47.4061 62.5939 41.25 55 41.25C47.4061 41.25 41.25 47.4061 41.25 55C41.25 62.5939 47.4061 68.75 55 68.75Z" fill="white"/>
<path d="M84.8246 30.3316C75.4316 23.8906 65.3791 20.625 54.9484 20.625C45.5619 20.625 36.4117 23.418 27.7514 28.8922C19.018 34.4244 10.4564 44.4727 3.4375 55C9.11367 64.4531 16.8781 74.1727 24.9648 79.7457C34.2418 86.1352 44.3287 89.375 54.9484 89.375C65.4758 89.375 75.5412 86.1373 84.8762 79.7521C93.0939 74.1211 100.914 64.4145 106.562 55C100.895 45.6693 93.0488 35.9734 84.8246 30.3316ZM55 75.625C50.9208 75.625 46.9331 74.4154 43.5414 72.1491C40.1496 69.8828 37.506 66.6616 35.945 62.8928C34.3839 59.1241 33.9755 54.9771 34.7713 50.9763C35.5671 46.9754 37.5315 43.3004 40.4159 40.4159C43.3004 37.5315 46.9754 35.5671 50.9763 34.7713C54.9771 33.9755 59.1241 34.3839 62.8928 35.945C66.6616 37.506 69.8828 40.1496 72.1491 43.5414C74.4154 46.9331 75.625 50.9208 75.625 55C75.6187 60.4682 73.4437 65.7106 69.5772 69.5772C65.7106 73.4438 60.4682 75.6187 55 75.625Z" fill="white"/>
</g>
</svg>
