<svg width="110" height="110" viewBox="0 0 110 110" fill="none" xmlns="http://www.w3.org/2000/svg">
<g opacity="0.1">
<path d="M41.7328 4.58331C37.053 4.58331 33.2807 8.39715 33.2807 13.1096C33.2807 16.3985 35.1431 19.2159 37.8448 20.6394L35.1224 40.0793C34.6953 40.0585 34.2742 40.017 33.8412 40.017C19.7988 40.017 8.44629 51.4703 8.44629 65.6076C8.44629 79.7449 19.8285 91.2101 33.8412 91.2101C40.2737 91.2101 46.122 88.7842 50.5912 84.8162L53.1743 95.0744C51.7241 96.1035 50.7751 97.8028 50.7751 99.7364C50.7751 102.874 53.284 105.419 56.4039 105.419C59.5268 105.419 62.0387 102.874 62.0387 99.7364C62.0387 96.5839 59.5238 94.0423 56.4039 94.0423C56.1281 94.0423 55.8642 94.0838 55.6002 94.1224L52.7146 82.6898C56.7509 78.1553 59.2242 72.1825 59.2242 65.6076C59.2242 65.4593 59.2035 65.314 59.2005 65.1687L76.0454 51.1975C78.6078 54.7504 82.7389 57.0754 87.4336 57.0754C95.2362 57.0754 101.538 50.7111 101.538 42.8492C101.538 35.005 95.2303 28.6407 87.4336 28.6407C79.6309 28.6407 73.3289 35.005 73.3289 42.8492C73.3289 44.9192 73.7886 46.8736 74.5745 48.647L58.8951 61.6514C58.1032 56.506 55.7989 51.8796 52.4418 48.2318L54.2657 43.2733C55.1494 43.6766 56.1222 43.9168 57.1513 43.9168C61.0422 43.9168 64.1947 40.7347 64.1947 36.8111C64.1947 32.8875 61.0303 29.7084 57.1513 29.7084C53.2455 29.7084 50.09 32.8846 50.09 36.8111C50.09 38.5668 50.7514 40.1593 51.8042 41.399L50.1197 45.9809C46.7092 43.1042 42.5335 41.141 37.9486 40.3847L40.5851 21.532C40.9617 21.5825 41.3354 21.6477 41.7269 21.6477C46.4067 21.6477 50.1938 17.8279 50.1938 13.1155C50.1938 8.40308 46.4067 4.58924 41.7269 4.58924" fill="white"/>
</g>
</svg>
