<svg width="88" height="88" viewBox="0 0 88 88" fill="none" xmlns="http://www.w3.org/2000/svg">
<g clip-path="url(#clip0)">
<path d="M63.8 71.8667V82.1333H50.6C49.79 82.1333 49.1333 82.79 49.1333 83.6C49.1333 84.41 49.79 85.0667 50.6 85.0667H65.2667C65.6556 85.0666 66.0286 84.912 66.3036 84.6369L83.9036 67.0369C84.1787 66.7619 84.3333 66.389 84.3333 66V7.33333C84.3285 3.28526 81.0481 0.00484898 77 0H18.3333C14.2853 0.00484898 11.0048 3.28526 11 7.33333V46.9333C11 47.7434 11.6566 48.4 12.4667 48.4C13.2767 48.4 13.9333 47.7434 13.9333 46.9333V7.33333C13.9333 4.90328 15.9033 2.93333 18.3333 2.93333H77C79.4301 2.93333 81.4 4.90328 81.4 7.33333V64.5333H71.1333C67.0853 64.5382 63.8049 67.8186 63.8 71.8667ZM71.1333 67.4667H79.3261L66.7333 80.0595V71.8667C66.7333 69.4366 68.7033 67.4667 71.1333 67.4667Z" fill="#003C4A"/>
<path d="M24.2008 8.80066H21.2674C20.4574 8.80066 19.8008 9.45731 19.8008 10.2673C19.8008 11.0773 20.4574 11.734 21.2674 11.734H24.2008C25.0108 11.734 25.6675 11.0773 25.6675 10.2673C25.6675 9.45731 25.0108 8.80066 24.2008 8.80066Z" fill="#003C4A"/>
<path d="M75.5349 10.2673C75.5349 9.45731 74.8782 8.80066 74.0682 8.80066H30.0682C29.2582 8.80066 28.6016 9.45731 28.6016 10.2673C28.6016 11.0773 29.2582 11.734 30.0682 11.734H74.0682C74.8782 11.734 75.5349 11.0773 75.5349 10.2673Z" fill="#003C4A"/>
<path d="M24.2008 17.5997H21.2674C20.4574 17.5997 19.8008 18.2564 19.8008 19.0664C19.8008 19.8764 20.4574 20.5331 21.2674 20.5331H24.2008C25.0108 20.5331 25.6675 19.8764 25.6675 19.0664C25.6675 18.2564 25.0108 17.5997 24.2008 17.5997Z" fill="#003C4A"/>
<path d="M65.2682 19.0664C65.2682 18.2564 64.6116 17.5997 63.8016 17.5997H30.0682C29.2582 17.5997 28.6016 18.2564 28.6016 19.0664C28.6016 19.8764 29.2582 20.5331 30.0682 20.5331H63.8016C64.6116 20.5331 65.2682 19.8764 65.2682 19.0664Z" fill="#003C4A"/>
<path d="M24.2008 26.4004H21.2674C20.4574 26.4004 19.8008 27.057 19.8008 27.8671C19.8008 28.6771 20.4574 29.3337 21.2674 29.3337H24.2008C25.0108 29.3337 25.6675 28.6771 25.6675 27.8671C25.6675 27.057 25.0108 26.4004 24.2008 26.4004Z" fill="#003C4A"/>
<path d="M30.0682 26.4004C29.2582 26.4004 28.6016 27.057 28.6016 27.8671C28.6016 28.6771 29.2582 29.3337 30.0682 29.3337H37.4016C38.2116 29.3337 38.8682 28.6771 38.8682 27.8671C38.8682 27.057 38.2116 26.4004 37.4016 26.4004H30.0682Z" fill="#003C4A"/>
<path d="M78.4685 30.8005C78.4685 29.9905 77.8118 29.3339 77.0018 29.3339C76.1918 29.3339 75.5352 29.9905 75.5352 30.8005V51.3339C75.5352 52.1439 76.1918 52.8005 77.0018 52.8005C77.8118 52.8005 78.4685 52.1439 78.4685 51.3339V30.8005Z" fill="#003C4A"/>
<path d="M77.0018 55.7327C76.1918 55.7327 75.5352 56.3893 75.5352 57.1993V60.1327C75.5352 60.9427 76.1918 61.5993 77.0018 61.5993C77.8118 61.5993 78.4685 60.9427 78.4685 60.1327V57.1993C78.4685 56.3893 77.8118 55.7327 77.0018 55.7327Z" fill="#003C4A"/>
<path d="M12.468 88.0006H35.9346C40.7927 87.9957 44.7298 84.0587 44.7346 79.2006V57.2006C44.7269 55.3426 43.553 53.6898 41.8013 53.0704V48.7584C41.7106 44.2482 44.9701 40.3663 49.428 39.6754C51.9436 39.3413 54.4811 40.1079 56.3911 41.7788C58.3011 43.4497 59.3981 45.8629 59.4013 48.4006V51.3339C59.4013 53.764 61.3713 55.7339 63.8013 55.7339C66.2314 55.7339 68.2013 53.764 68.2013 51.3339V48.8728C68.2658 39.6951 61.4103 31.9407 52.2938 30.8798C47.3475 30.3841 42.4249 32.024 38.7638 35.3868C35.1006 38.7229 33.0092 43.4459 33.0013 48.4006V52.8006H8.06797C5.63792 52.8006 3.66797 54.7705 3.66797 57.2006V79.2006C3.67282 84.0587 7.60987 87.9957 12.468 88.0006ZM35.9346 48.4006C35.9398 44.2655 37.688 40.3242 40.7498 37.5449C43.8116 34.7656 47.9033 33.4059 52.0196 33.7999C59.6339 34.7094 65.343 41.2047 65.268 48.8728V51.3339C65.268 52.1439 64.6113 52.8006 63.8013 52.8006C62.9913 52.8006 62.3346 52.1439 62.3346 51.3339V48.4006C62.3308 45.0214 60.8719 41.8075 58.3306 39.5801C55.7893 37.3528 52.4119 36.3277 49.0613 36.767C43.1382 37.6442 38.7798 42.7714 38.868 48.7584V52.8006H35.9346V48.4006ZM6.6013 57.2006C6.6013 56.3906 7.25795 55.7339 8.06797 55.7339H40.3346C41.1447 55.7339 41.8013 56.3906 41.8013 57.2006V79.2006C41.8013 82.4407 39.1747 85.0672 35.9346 85.0672H12.468C9.2279 85.0672 6.6013 82.4407 6.6013 79.2006V57.2006Z" fill="#003C4A"/>
<path d="M18.9223 75.544C18.7097 76.8202 19.0695 78.1253 19.9061 79.1123C20.7428 80.0992 21.9713 80.6679 23.2651 80.6671H25.1395C26.4333 80.6679 27.6619 80.0992 28.4985 79.1123C29.3351 78.1253 29.6949 76.8202 29.4823 75.544L28.749 71.1587C29.6062 70.1198 30.0731 68.8139 30.069 67.4671C30.0697 65.7282 29.2991 64.0787 27.9649 62.9634C26.6308 61.8482 24.8707 61.3823 23.1595 61.6914C21.1165 62.0562 19.4195 63.4755 18.699 65.4217C17.9786 67.368 18.3426 69.5501 19.6556 71.1572L18.9223 75.544ZM21.3144 66.9244C21.5474 65.7382 22.4748 64.8107 23.6611 64.5778C23.8399 64.5473 24.021 64.5326 24.2023 64.5338C25.4091 64.5298 26.4942 65.2682 26.9333 66.3923C27.3725 67.5164 27.0752 68.7948 26.1852 69.6099C25.8222 69.9458 25.6529 70.4421 25.735 70.9299L26.5842 76.0295C26.6539 76.4539 26.5338 76.8874 26.2557 77.2155C25.9776 77.5435 25.5696 77.733 25.1395 77.7338H23.2651C22.8342 77.7336 22.4252 77.5439 22.1467 77.2151C21.8681 76.8863 21.7483 76.4516 21.819 76.0266L22.6682 70.927C22.7503 70.4392 22.581 69.9429 22.2179 69.607C21.4732 68.9292 21.1324 67.9142 21.3174 66.9244H21.3144Z" fill="#003C4A"/>
</g>
<defs>
<clipPath id="clip0">
<rect width="88" height="88" fill="white"/>
</clipPath>
</defs>
</svg>
