<svg width="400" height="400" viewBox="0 0 400 400" fill="none" xmlns="http://www.w3.org/2000/svg">
<g filter="url(#filter0_i)">
<path fill-rule="evenodd" clip-rule="evenodd" d="M224.387 16.22C225.089 16.87 266.276 45.5 266.51 45.5C266.791 45.5 318.922 16.615 319.363 16.216C319.496 16.095 298.623 16 271.875 16C244.352 16 224.251 16.093 224.387 16.22ZM173 33.213C138.486 45.912 140.868 44.958 138.716 46.935C129.378 55.512 66.9284 113.77 66.3344 114.458C65.4244 115.513 25.0004 184.827 25.0004 185.334C25.0004 185.598 52.4154 251.023 52.5814 251.156C52.6054 251.175 70.7014 247.126 92.7954 242.158L132.965 233.125L182.05 187.504L231.135 141.882L244.217 100.326C251.412 77.47 257.259 58.659 257.212 58.523C257.072 58.126 205.176 21.921 204.625 21.837C204.35 21.795 190.119 26.914 173 33.213ZM339.5 22.965C339.156 23.213 325.741 30.708 309.688 39.622C293.634 48.536 280.504 55.896 280.51 55.977C280.521 56.152 378.818 127.515 378.915 127.419C379.275 127.058 382.001 112.312 382.851 106.125C387.912 69.288 374.902 39.511 347.796 25.898C341.676 22.824 340.348 22.355 339.5 22.965ZM270.622 68.797C270.145 70.058 248.802 138.136 248.865 138.198C248.95 138.284 362.385 135.782 362.994 135.682C363.267 135.636 272.884 69.741 271.061 68.655C270.882 68.549 270.693 68.61 270.622 68.797ZM308.259 152.669C275.745 153.414 249.111 154.055 249.072 154.094C248.955 154.211 289.344 277.5 289.499 277.5C289.668 277.5 300.208 265.778 303.977 261.399C335.242 225.068 356.285 191.696 369.807 157C370.906 154.181 371.861 151.734 371.929 151.563C372.085 151.17 378.634 151.057 308.259 152.669ZM193.048 198.675C170.322 219.796 151.817 237.154 151.926 237.248C152.036 237.342 179.631 248.025 213.25 260.987C246.869 273.95 274.516 284.611 274.688 284.68C274.859 284.748 275 284.656 275 284.476C275 284.141 234.814 161.119 234.527 160.574C234.429 160.388 218.585 174.941 193.048 198.675ZM377.25 179.529C377.25 180.005 369.723 194.875 367.027 199.727C350.954 228.642 330.722 255.798 301.541 287.623C298.769 290.647 296.505 293.235 296.512 293.373C296.519 293.512 311.18 306.619 329.093 322.5C364.284 353.7 363 354 364 355.5C364 355.5 364.556 351.394 370.857 268.736C374.499 220.963 377.541 181.284 377.617 180.563C377.701 179.756 377.657 179.25 377.502 179.25C377.363 179.25 377.25 179.376 377.25 179.529ZM16.0104 252.229C16.0044 278.274 16.0424 299.536 16.0944 299.479C16.4234 299.114 39.0804 260.076 39.0804 259.875C39.0794 259.685 18.3374 210.179 16.4024 205.75C16.0574 204.961 16.0194 209.515 16.0104 252.229ZM92.1514 258.397C73.6024 262.573 58.3844 266.033 58.3334 266.084C58.2404 266.176 95.4544 372.778 95.6494 372.979C95.8614 373.198 96.2694 371.611 108.375 323.5C115.208 296.344 122.128 268.866 123.753 262.438C126.231 252.635 126.64 250.754 126.291 250.776C126.062 250.791 110.699 254.22 92.1514 258.397ZM126.469 315.927C117.446 351.786 110.08 381.147 110.102 381.174C110.123 381.201 111.768 380.959 113.758 380.636C163.341 372.577 208.845 349.609 256.625 308.524C264.073 302.12 267.548 298.947 267.331 298.749C267.14 298.575 144.084 251.051 143.25 250.829C142.946 250.748 139.761 263.105 126.469 315.927ZM32.1894 303.029L18.5034 326.54L19.2654 329.56C26.5424 358.384 45.1574 375.658 74.8214 381.115C78.7194 381.832 82.0014 382.189 81.9934 381.894C81.9774 381.327 46.2944 279.64 46.0904 279.581C45.9724 279.547 39.7164 290.099 32.1894 303.029ZM279.5 309.195C245.219 340.357 215.01 361.206 182.774 375.952C181.206 376.669 179.968 377.299 180.024 377.352C180.138 377.46 353.061 365.747 355 365.5C354 365 354 365 352.914 364.125C352.572 363.849 341.687 354.661 318.724 334.25C300.702 318.231 285.713 304.941 285.416 304.717C284.888 304.319 284.741 304.431 279.5 309.195Z" fill="#A2CDD7"/>
</g>
<defs>
<filter id="filter0_i" x="0" y="0" width="402" height="404" filterUnits="userSpaceOnUse" color-interpolation-filters="sRGB">
<feFlood flood-opacity="0" result="BackgroundImageFix"/>
<feBlend mode="normal" in="SourceGraphic" in2="BackgroundImageFix" result="shape"/>
<feColorMatrix in="SourceAlpha" type="matrix" values="0 0 0 0 0 0 0 0 0 0 0 0 0 0 0 0 0 0 127 0" result="hardAlpha"/>
<feOffset dx="2" dy="4"/>
<feGaussianBlur stdDeviation="2"/>
<feComposite in2="hardAlpha" operator="arithmetic" k2="-1" k3="1"/>
<feColorMatrix type="matrix" values="0 0 0 0 0 0 0 0 0 0 0 0 0 0 0 0 0 0 0.25 0"/>
<feBlend mode="normal" in2="shape" result="effect1_innerShadow"/>
</filter>
</defs>
</svg>
