<svg width="570" height="236" viewBox="0 0 570 236" fill="none" xmlns="http://www.w3.org/2000/svg">
<path d="M570 228C570 232.418 566.418 236 562 236L8.00001 236C3.58173 236 4.24954e-07 232.418 9.49162e-07 228L2.70511e-05 7.99999C2.75753e-05 3.58171 3.58175 -5.96926e-06 8.00003 -5.68465e-06L562 3.00022e-05C566.418 3.02869e-05 570 3.58175 570 8.00003L570 228Z" fill="#00758F"/>
<path d="M39.248 32.584C40.784 32.584 42 32.976 42.896 33.76C43.792 34.528 44.24 35.584 44.24 36.928V46H42.128V43.48H42.104C42.04 44.312 41.624 44.984 40.856 45.496C40.088 45.992 39.128 46.24 37.976 46.24C36.632 46.24 35.56 45.888 34.76 45.184C33.96 44.48 33.56 43.528 33.56 42.328C33.56 41.064 33.952 40.072 34.736 39.352C35.536 38.632 36.624 38.272 38 38.272H42.08V37C42.08 36.2 41.824 35.584 41.312 35.152C40.816 34.704 40.12 34.48 39.224 34.48C38.44 34.48 37.792 34.64 37.28 34.96C36.768 35.28 36.472 35.72 36.392 36.28H34.232C34.376 35.16 34.904 34.264 35.816 33.592C36.728 32.92 37.872 32.584 39.248 32.584ZM38.48 44.536C39.536 44.536 40.4 44.288 41.072 43.792C41.744 43.28 42.08 42.616 42.08 41.8V39.928H38.048C37.328 39.928 36.76 40.128 36.344 40.528C35.928 40.928 35.72 41.48 35.72 42.184C35.72 42.92 35.968 43.496 36.464 43.912C36.96 44.328 37.632 44.536 38.48 44.536ZM54.6466 32.56C56.0386 32.56 57.1426 33 57.9586 33.88C58.7906 34.744 59.2066 35.92 59.2066 37.408V38.2H57.0466V37.6C57.0466 36.576 56.7906 35.784 56.2786 35.224C55.7826 34.664 55.0706 34.384 54.1426 34.384C53.2306 34.384 52.5106 34.672 51.9826 35.248C51.4706 35.808 51.2146 36.592 51.2146 37.6V46H49.0546V32.8H51.1666V35.152C51.5986 33.424 52.7586 32.56 54.6466 32.56ZM69.0373 32.56C70.4293 32.56 71.5333 33 72.3493 33.88C73.1813 34.744 73.5973 35.92 73.5973 37.408V38.2H71.4373V37.6C71.4373 36.576 71.1813 35.784 70.6693 35.224C70.1733 34.664 69.4613 34.384 68.5333 34.384C67.6213 34.384 66.9013 34.672 66.3733 35.248C65.8613 35.808 65.6053 36.592 65.6053 37.6V46H63.4453V32.8H65.5573V35.152C65.9893 33.424 67.1493 32.56 69.0373 32.56ZM82.4199 32.584C83.9559 32.584 85.1719 32.976 86.0679 33.76C86.9639 34.528 87.4119 35.584 87.4119 36.928V46H85.2999V43.48H85.2759C85.2119 44.312 84.7959 44.984 84.0279 45.496C83.2599 45.992 82.2999 46.24 81.1479 46.24C79.8039 46.24 78.7319 45.888 77.9319 45.184C77.1319 44.48 76.7319 43.528 76.7319 42.328C76.7319 41.064 77.1239 40.072 77.9079 39.352C78.7079 38.632 79.7959 38.272 81.1719 38.272H85.2519V37C85.2519 36.2 84.9959 35.584 84.4839 35.152C83.9879 34.704 83.2919 34.48 82.3959 34.48C81.6119 34.48 80.9639 34.64 80.4519 34.96C79.9399 35.28 79.6439 35.72 79.5639 36.28H77.4039C77.5479 35.16 78.0759 34.264 78.9879 33.592C79.8999 32.92 81.0439 32.584 82.4199 32.584ZM81.6519 44.536C82.7079 44.536 83.5719 44.288 84.2439 43.792C84.9159 43.28 85.2519 42.616 85.2519 41.8V39.928H81.2199C80.4999 39.928 79.9319 40.128 79.5159 40.528C79.0999 40.928 78.8919 41.48 78.8919 42.184C78.8919 42.92 79.1399 43.496 79.6359 43.912C80.1319 44.328 80.8039 44.536 81.6519 44.536ZM93.9065 50.32L95.8505 45.184L91.0025 32.8H93.4025L96.3545 40.96C96.5145 41.424 96.6985 42.064 96.9065 42.88C97.0985 42.064 97.2745 41.424 97.4345 40.96L100.195 32.8H102.523L96.2105 50.32H93.9065ZM130.704 36.16H120.384V34.24H130.704V36.16ZM130.704 41.92H120.384V40H130.704V41.92ZM153.605 46.24C151.925 46.24 150.605 45.768 149.645 44.824C148.685 43.88 148.205 42.592 148.205 40.96H150.365C150.365 42.032 150.645 42.864 151.205 43.456C151.781 44.032 152.581 44.32 153.605 44.32C154.629 44.32 155.421 44.032 155.981 43.456C156.557 42.864 156.845 42.032 156.845 40.96V30.448H152.645V28.48H159.005V40.96C159.005 42.592 158.517 43.88 157.541 44.824C156.581 45.768 155.269 46.24 153.605 46.24ZM168.764 32.584C170.3 32.584 171.516 32.976 172.412 33.76C173.308 34.528 173.756 35.584 173.756 36.928V46H171.644V43.48H171.62C171.556 44.312 171.14 44.984 170.372 45.496C169.604 45.992 168.644 46.24 167.492 46.24C166.148 46.24 165.076 45.888 164.276 45.184C163.476 44.48 163.076 43.528 163.076 42.328C163.076 41.064 163.468 40.072 164.252 39.352C165.052 38.632 166.14 38.272 167.516 38.272H171.596V37C171.596 36.2 171.34 35.584 170.828 35.152C170.332 34.704 169.636 34.48 168.74 34.48C167.956 34.48 167.308 34.64 166.796 34.96C166.284 35.28 165.988 35.72 165.908 36.28H163.748C163.892 35.16 164.42 34.264 165.332 33.592C166.244 32.92 167.388 32.584 168.764 32.584ZM167.996 44.536C169.052 44.536 169.916 44.288 170.588 43.792C171.26 43.28 171.596 42.616 171.596 41.8V39.928H167.564C166.844 39.928 166.276 40.128 165.86 40.528C165.444 40.928 165.236 41.48 165.236 42.184C165.236 42.92 165.484 43.496 165.98 43.912C166.476 44.328 167.148 44.536 167.996 44.536ZM181.642 46L177.346 32.8H179.554L182.362 41.68C182.65 42.592 182.914 43.48 183.154 44.344C183.394 43.48 183.658 42.592 183.946 41.68L186.682 32.8H188.866L184.57 46H181.642ZM197.545 32.584C199.081 32.584 200.297 32.976 201.193 33.76C202.089 34.528 202.537 35.584 202.537 36.928V46H200.425V43.48H200.401C200.337 44.312 199.921 44.984 199.153 45.496C198.385 45.992 197.425 46.24 196.273 46.24C194.929 46.24 193.857 45.888 193.057 45.184C192.257 44.48 191.857 43.528 191.857 42.328C191.857 41.064 192.249 40.072 193.033 39.352C193.833 38.632 194.921 38.272 196.297 38.272H200.377V37C200.377 36.2 200.121 35.584 199.609 35.152C199.113 34.704 198.417 34.48 197.521 34.48C196.737 34.48 196.089 34.64 195.577 34.96C195.065 35.28 194.769 35.72 194.689 36.28H192.529C192.673 35.16 193.201 34.264 194.113 33.592C195.025 32.92 196.169 32.584 197.545 32.584ZM196.777 44.536C197.833 44.536 198.697 44.288 199.369 43.792C200.041 43.28 200.377 42.616 200.377 41.8V39.928H196.345C195.625 39.928 195.057 40.128 194.641 40.528C194.225 40.928 194.017 41.48 194.017 42.184C194.017 42.92 194.265 43.496 194.761 43.912C195.257 44.328 195.929 44.536 196.777 44.536ZM211.648 46.24C211.136 46.24 210.704 46.056 210.352 45.688C210.016 45.32 209.848 44.864 209.848 44.32C209.848 43.776 210.016 43.32 210.352 42.952C210.704 42.584 211.136 42.4 211.648 42.4H212.128C212.64 42.4 213.064 42.584 213.4 42.952C213.752 43.32 213.928 43.776 213.928 44.32C213.928 44.864 213.752 45.32 213.4 45.688C213.064 46.056 212.64 46.24 212.128 46.24H211.648ZM227.718 46C226.582 46 225.694 45.696 225.054 45.088C224.43 44.48 224.118 43.624 224.118 42.52V34.768H220.398V32.8H224.118V29.2H226.278V32.8H231.558V34.768H226.278V42.52C226.278 43.032 226.39 43.416 226.614 43.672C226.854 43.912 227.222 44.032 227.718 44.032H231.318V46H227.718ZM237.813 50.32L239.757 45.184L234.909 32.8H237.309L240.261 40.96C240.421 41.424 240.605 42.064 240.813 42.88C241.005 42.064 241.181 41.424 241.341 40.96L244.101 32.8H246.429L240.117 50.32H237.813ZM255.851 32.56C257.179 32.56 258.227 33 258.995 33.88C259.763 34.76 260.147 35.952 260.147 37.456V41.32C260.147 42.84 259.763 44.04 258.995 44.92C258.227 45.8 257.179 46.24 255.851 46.24C254.859 46.24 254.035 45.992 253.379 45.496C252.739 45 252.363 44.328 252.251 43.48H252.179L252.227 46.48V50.32H250.067V32.8H252.227V35.32H252.251C252.363 34.456 252.739 33.784 253.379 33.304C254.035 32.808 254.859 32.56 255.851 32.56ZM257.987 37.6C257.987 36.576 257.739 35.792 257.243 35.248C256.747 34.704 256.043 34.432 255.131 34.432C254.235 34.432 253.523 34.712 252.995 35.272C252.483 35.832 252.227 36.608 252.227 37.6V41.2C252.227 42.192 252.483 42.968 252.995 43.528C253.523 44.088 254.235 44.368 255.131 44.368C256.043 44.368 256.747 44.096 257.243 43.552C257.739 43.008 257.987 42.224 257.987 41.2V37.6ZM274.538 39.928H266.474V41.2C266.474 42.256 266.722 43.056 267.218 43.6C267.73 44.144 268.474 44.416 269.45 44.416C271.13 44.416 272.09 43.824 272.33 42.64H274.49C274.346 43.744 273.818 44.624 272.906 45.28C271.994 45.92 270.842 46.24 269.45 46.24C267.898 46.24 266.658 45.784 265.73 44.872C264.818 43.96 264.362 42.736 264.362 41.2V37.6C264.362 36.064 264.818 34.84 265.73 33.928C266.658 33.016 267.898 32.56 269.45 32.56C271.002 32.56 272.234 33.016 273.146 33.928C274.074 34.84 274.538 36.064 274.538 37.6V39.928ZM266.474 38.296H272.426V37.6C272.426 36.544 272.17 35.744 271.658 35.2C271.162 34.64 270.426 34.36 269.45 34.36C268.474 34.36 267.73 34.64 267.218 35.2C266.722 35.744 266.474 36.544 266.474 37.6V38.296ZM288.281 49C286.009 48.44 284.241 47.336 282.977 45.688C281.713 44.04 281.081 42.024 281.081 39.64V35.08C281.081 33.528 281.369 32.112 281.945 30.832C282.537 29.552 283.369 28.472 284.441 27.592C285.529 26.712 286.809 26.088 288.281 25.72V27.76C286.745 28.128 285.521 28.968 284.609 30.28C283.697 31.592 283.241 33.192 283.241 35.08V39.64C283.241 41.496 283.689 43.072 284.585 44.368C285.497 45.664 286.729 46.496 288.281 46.864V49ZM298.999 35.68H297.223L296.935 32.08V28.48H299.263V32.08L298.999 35.68ZM312.622 30.52C312.142 30.52 311.758 30.392 311.47 30.136C311.198 29.88 311.062 29.536 311.062 29.104C311.062 28.672 311.206 28.32 311.494 28.048C311.782 27.776 312.158 27.64 312.622 27.64H313.102C313.566 27.64 313.942 27.776 314.23 28.048C314.518 28.32 314.662 28.672 314.662 29.104C314.662 29.536 314.518 29.88 314.23 30.136C313.942 30.392 313.566 30.52 313.102 30.52H312.622ZM318.622 46H307.342V44.032H312.022V34.768H307.942V32.8H314.182V44.032H318.622V46ZM327.709 32.56C329.037 32.56 330.093 32.976 330.877 33.808C331.661 34.624 332.053 35.728 332.053 37.12V46H329.893V37.36C329.893 36.432 329.637 35.704 329.125 35.176C328.629 34.648 327.949 34.384 327.085 34.384C326.173 34.384 325.461 34.672 324.949 35.248C324.437 35.808 324.181 36.592 324.181 37.6V46H322.021V32.8H324.181V35.32H324.205C324.317 34.44 324.677 33.76 325.285 33.28C325.893 32.8 326.701 32.56 327.709 32.56ZM342.843 46C341.707 46 340.819 45.696 340.179 45.088C339.555 44.48 339.243 43.624 339.243 42.52V34.768H335.523V32.8H339.243V29.2H341.403V32.8H346.683V34.768H341.403V42.52C341.403 43.032 341.515 43.416 341.739 43.672C341.979 43.912 342.347 44.032 342.843 44.032H346.443V46H342.843ZM359.514 48.64H353.634V26.08H359.514V28H355.794V46.72H359.514V48.64ZM372.464 48.64H366.584V46.72H370.304V28H366.584V26.08H372.464V48.64ZM385.343 35.68H383.567L383.279 32.08V28.48H385.607V32.08L385.343 35.68ZM394.526 46.864C396.078 46.496 397.302 45.664 398.198 44.368C399.11 43.072 399.566 41.496 399.566 39.64V35.08C399.566 33.192 399.11 31.592 398.198 30.28C397.286 28.968 396.062 28.128 394.526 27.76V25.72C395.998 26.088 397.27 26.712 398.342 27.592C399.43 28.472 400.262 29.552 400.838 30.832C401.43 32.112 401.726 33.528 401.726 35.08V39.64C401.726 42.024 401.094 44.04 399.83 45.688C398.566 47.336 396.798 48.44 394.526 49V46.864ZM475.359 49C473.087 48.44 471.319 47.336 470.055 45.688C468.791 44.04 468.159 42.024 468.159 39.64V35.08C468.159 33.528 468.447 32.112 469.023 30.832C469.615 29.552 470.447 28.472 471.519 27.592C472.607 26.712 473.887 26.088 475.359 25.72V27.76C473.823 28.128 472.599 28.968 471.687 30.28C470.775 31.592 470.319 33.192 470.319 35.08V39.64C470.319 41.496 470.767 43.072 471.663 44.368C472.575 45.664 473.807 46.496 475.359 46.864V49ZM495.26 46.864C496.812 46.496 498.036 45.664 498.932 44.368C499.844 43.072 500.3 41.496 500.3 39.64V35.08C500.3 33.192 499.844 31.592 498.932 30.28C498.02 28.968 496.796 28.128 495.26 27.76V25.72C496.732 26.088 498.004 26.712 499.076 27.592C500.164 28.472 500.996 29.552 501.572 30.832C502.164 32.112 502.46 33.528 502.46 35.08V39.64C502.46 42.024 501.828 44.04 500.564 45.688C499.3 47.336 497.532 48.44 495.26 49V46.864ZM39.248 64.584C40.784 64.584 42 64.976 42.896 65.76C43.792 66.528 44.24 67.584 44.24 68.928V78H42.128V75.48H42.104C42.04 76.312 41.624 76.984 40.856 77.496C40.088 77.992 39.128 78.24 37.976 78.24C36.632 78.24 35.56 77.888 34.76 77.184C33.96 76.48 33.56 75.528 33.56 74.328C33.56 73.064 33.952 72.072 34.736 71.352C35.536 70.632 36.624 70.272 38 70.272H42.08V69C42.08 68.2 41.824 67.584 41.312 67.152C40.816 66.704 40.12 66.48 39.224 66.48C38.44 66.48 37.792 66.64 37.28 66.96C36.768 67.28 36.472 67.72 36.392 68.28H34.232C34.376 67.16 34.904 66.264 35.816 65.592C36.728 64.92 37.872 64.584 39.248 64.584ZM38.48 76.536C39.536 76.536 40.4 76.288 41.072 75.792C41.744 75.28 42.08 74.616 42.08 73.8V71.928H38.048C37.328 71.928 36.76 72.128 36.344 72.528C35.928 72.928 35.72 73.48 35.72 74.184C35.72 74.92 35.968 75.496 36.464 75.912C36.96 76.328 37.632 76.536 38.48 76.536ZM54.6466 64.56C56.0386 64.56 57.1426 65 57.9586 65.88C58.7906 66.744 59.2066 67.92 59.2066 69.408V70.2H57.0466V69.6C57.0466 68.576 56.7906 67.784 56.2786 67.224C55.7826 66.664 55.0706 66.384 54.1426 66.384C53.2306 66.384 52.5106 66.672 51.9826 67.248C51.4706 67.808 51.2146 68.592 51.2146 69.6V78H49.0546V64.8H51.1666V67.152C51.5986 65.424 52.7586 64.56 54.6466 64.56ZM69.0373 64.56C70.4293 64.56 71.5333 65 72.3493 65.88C73.1813 66.744 73.5973 67.92 73.5973 69.408V70.2H71.4373V69.6C71.4373 68.576 71.1813 67.784 70.6693 67.224C70.1733 66.664 69.4613 66.384 68.5333 66.384C67.6213 66.384 66.9013 66.672 66.3733 67.248C65.8613 67.808 65.6053 68.592 65.6053 69.6V78H63.4453V64.8H65.5573V67.152C65.9893 65.424 67.1493 64.56 69.0373 64.56ZM82.4199 64.584C83.9559 64.584 85.1719 64.976 86.0679 65.76C86.9639 66.528 87.4119 67.584 87.4119 68.928V78H85.2999V75.48H85.2759C85.2119 76.312 84.7959 76.984 84.0279 77.496C83.2599 77.992 82.2999 78.24 81.1479 78.24C79.8039 78.24 78.7319 77.888 77.9319 77.184C77.1319 76.48 76.7319 75.528 76.7319 74.328C76.7319 73.064 77.1239 72.072 77.9079 71.352C78.7079 70.632 79.7959 70.272 81.1719 70.272H85.2519V69C85.2519 68.2 84.9959 67.584 84.4839 67.152C83.9879 66.704 83.2919 66.48 82.3959 66.48C81.6119 66.48 80.9639 66.64 80.4519 66.96C79.9399 67.28 79.6439 67.72 79.5639 68.28H77.4039C77.5479 67.16 78.0759 66.264 78.9879 65.592C79.8999 64.92 81.0439 64.584 82.4199 64.584ZM81.6519 76.536C82.7079 76.536 83.5719 76.288 84.2439 75.792C84.9159 75.28 85.2519 74.616 85.2519 73.8V71.928H81.2199C80.4999 71.928 79.9319 72.128 79.5159 72.528C79.0999 72.928 78.8919 73.48 78.8919 74.184C78.8919 74.92 79.1399 75.496 79.6359 75.912C80.1319 76.328 80.8039 76.536 81.6519 76.536ZM93.9065 82.32L95.8505 77.184L91.0025 64.8H93.4025L96.3545 72.96C96.5145 73.424 96.6985 74.064 96.9065 74.88C97.0985 74.064 97.2745 73.424 97.4345 72.96L100.195 64.8H102.523L96.2105 82.32H93.9065ZM114.873 80.64H108.993V58.08H114.873V60H111.153V78.72H114.873V80.64ZM142.214 80.64H136.334V78.72H140.054V60H136.334V58.08H142.214V80.64ZM173.876 68.16H163.556V66.24H173.876V68.16ZM173.876 73.92H163.556V72H173.876V73.92ZM39.992 96.56C41.32 96.56 42.368 97 43.136 97.88C43.904 98.76 44.288 99.952 44.288 101.456V105.32C44.288 106.84 43.904 108.04 43.136 108.92C42.368 109.8 41.32 110.24 39.992 110.24C39 110.24 38.176 109.992 37.52 109.496C36.88 109 36.504 108.328 36.392 107.48H36.32L36.368 110.48V114.32H34.208V96.8H36.368V99.32H36.392C36.504 98.456 36.88 97.784 37.52 97.304C38.176 96.808 39 96.56 39.992 96.56ZM42.128 101.6C42.128 100.576 41.88 99.792 41.384 99.248C40.888 98.704 40.184 98.432 39.272 98.432C38.376 98.432 37.664 98.712 37.136 99.272C36.624 99.832 36.368 100.608 36.368 101.6V105.2C36.368 106.192 36.624 106.968 37.136 107.528C37.664 108.088 38.376 108.368 39.272 108.368C40.184 108.368 40.888 108.096 41.384 107.552C41.88 107.008 42.128 106.224 42.128 105.2V101.6ZM68.0293 96.584C69.5653 96.584 70.7813 96.976 71.6773 97.76C72.5733 98.528 73.0213 99.584 73.0213 100.928V110H70.9093V107.48H70.8853C70.8213 108.312 70.4053 108.984 69.6373 109.496C68.8693 109.992 67.9093 110.24 66.7573 110.24C65.4133 110.24 64.3413 109.888 63.5413 109.184C62.7413 108.48 62.3413 107.528 62.3413 106.328C62.3413 105.064 62.7333 104.072 63.5173 103.352C64.3173 102.632 65.4053 102.272 66.7812 102.272H70.8613V101C70.8613 100.2 70.6053 99.584 70.0933 99.152C69.5973 98.704 68.9013 98.48 68.0053 98.48C67.2213 98.48 66.5733 98.64 66.0613 98.96C65.5493 99.28 65.2533 99.72 65.1733 100.28H63.0133C63.1573 99.16 63.6853 98.264 64.5973 97.592C65.5093 96.92 66.6533 96.584 68.0293 96.584ZM67.2613 108.536C68.3173 108.536 69.1813 108.288 69.8533 107.792C70.5253 107.28 70.8613 106.616 70.8613 105.8V103.928H66.8293C66.1093 103.928 65.5413 104.128 65.1253 104.528C64.7093 104.928 64.5013 105.48 64.5013 106.184C64.5013 106.92 64.7493 107.496 65.2453 107.912C65.7413 108.328 66.4133 108.536 67.2613 108.536ZM83.4279 96.56C84.8199 96.56 85.9239 97 86.7399 97.88C87.5719 98.744 87.9879 99.92 87.9879 101.408V102.2H85.8279V101.6C85.8279 100.576 85.5719 99.784 85.0599 99.224C84.5639 98.664 83.8519 98.384 82.9239 98.384C82.0119 98.384 81.2919 98.672 80.7639 99.248C80.2519 99.808 79.9959 100.592 79.9959 101.6V110H77.8359V96.8H79.9479V99.152C80.3799 97.424 81.5399 96.56 83.4279 96.56ZM97.8185 96.56C99.2105 96.56 100.315 97 101.131 97.88C101.963 98.744 102.379 99.92 102.379 101.408V102.2H100.219V101.6C100.219 100.576 99.9625 99.784 99.4505 99.224C98.9545 98.664 98.2425 98.384 97.3145 98.384C96.4025 98.384 95.6825 98.672 95.1545 99.248C94.6425 99.808 94.3865 100.592 94.3865 101.6V110H92.2265V96.8H94.3385V99.152C94.7705 97.424 95.9305 96.56 97.8185 96.56ZM111.201 96.584C112.737 96.584 113.953 96.976 114.849 97.76C115.745 98.528 116.193 99.584 116.193 100.928V110H114.081V107.48H114.057C113.993 108.312 113.577 108.984 112.809 109.496C112.041 109.992 111.081 110.24 109.929 110.24C108.585 110.24 107.513 109.888 106.713 109.184C105.913 108.48 105.513 107.528 105.513 106.328C105.513 105.064 105.905 104.072 106.689 103.352C107.489 102.632 108.577 102.272 109.953 102.272H114.033V101C114.033 100.2 113.777 99.584 113.265 99.152C112.769 98.704 112.073 98.48 111.177 98.48C110.393 98.48 109.745 98.64 109.233 98.96C108.721 99.28 108.425 99.72 108.345 100.28H106.185C106.329 99.16 106.857 98.264 107.769 97.592C108.681 96.92 109.825 96.584 111.201 96.584ZM110.433 108.536C111.489 108.536 112.353 108.288 113.025 107.792C113.697 107.28 114.033 106.616 114.033 105.8V103.928H110.001C109.281 103.928 108.713 104.128 108.297 104.528C107.881 104.928 107.673 105.48 107.673 106.184C107.673 106.92 107.921 107.496 108.417 107.912C108.913 108.328 109.585 108.536 110.433 108.536ZM122.688 114.32L124.632 109.184L119.784 96.8H122.184L125.136 104.96C125.296 105.424 125.48 106.064 125.688 106.88C125.88 106.064 126.056 105.424 126.216 104.96L128.976 96.8H131.304L124.992 114.32H122.688ZM143.654 112.64H137.774V90.08H143.654V92H139.934V110.72H143.654V112.64ZM170.996 112.64H165.116V110.72H168.836V92H165.116V90.08H170.996V112.64Z" fill="white"/>
<path d="M413.116 46.24C412.604 46.24 412.172 46.056 411.82 45.688C411.484 45.32 411.316 44.864 411.316 44.32C411.316 43.776 411.484 43.32 411.82 42.952C412.172 42.584 412.604 42.4 413.116 42.4H413.596C414.108 42.4 414.532 42.584 414.868 42.952C415.22 43.32 415.396 43.776 415.396 44.32C415.396 44.864 415.22 45.32 414.868 45.688C414.532 46.056 414.108 46.24 413.596 46.24H413.116ZM428.443 32.56C429.771 32.56 430.827 32.976 431.611 33.808C432.395 34.624 432.787 35.728 432.787 37.12V46H430.627V37.36C430.627 36.432 430.371 35.704 429.859 35.176C429.363 34.648 428.683 34.384 427.819 34.384C426.907 34.384 426.195 34.672 425.683 35.248C425.171 35.808 424.915 36.592 424.915 37.6V46H422.755V32.8H424.915V35.32H424.939C425.051 34.44 425.411 33.76 426.019 33.28C426.627 32.8 427.435 32.56 428.443 32.56ZM447.226 39.928H439.162V41.2C439.162 42.256 439.41 43.056 439.906 43.6C440.418 44.144 441.162 44.416 442.138 44.416C443.818 44.416 444.778 43.824 445.018 42.64H447.178C447.034 43.744 446.506 44.624 445.594 45.28C444.682 45.92 443.53 46.24 442.138 46.24C440.586 46.24 439.346 45.784 438.418 44.872C437.506 43.96 437.05 42.736 437.05 41.2V37.6C437.05 36.064 437.506 34.84 438.418 33.928C439.346 33.016 440.586 32.56 442.138 32.56C443.69 32.56 444.922 33.016 445.834 33.928C446.762 34.84 447.226 36.064 447.226 37.6V39.928ZM439.162 38.296H445.114V37.6C445.114 36.544 444.858 35.744 444.346 35.2C443.85 34.64 443.114 34.36 442.138 34.36C441.162 34.36 440.418 34.64 439.906 35.2C439.41 35.744 439.162 36.544 439.162 37.6V38.296ZM452.28 46L450.168 32.8H452.088L453.408 42.16L453.696 44.32L454.032 42.16L455.496 32.8H457.56L459.024 42.16L459.36 44.32L459.696 42.16L461.064 32.8H462.888L460.68 46H458.304L456.888 36.88L456.504 34.48L456.144 36.88L454.656 46H452.28Z" fill="#37BEDB"/>
<path d="M490.109 46H487.949V42.16H480.029V38.776L486.965 28.48H489.317L482.189 39.232V40.192H487.949V35.92H490.109V46ZM120.552 78V75.792L125.904 70.104C126.816 69.128 127.48 68.264 127.896 67.512C128.312 66.744 128.52 66.008 128.52 65.304C128.52 64.328 128.248 63.56 127.704 63C127.176 62.44 126.448 62.16 125.52 62.16C124.496 62.16 123.688 62.448 123.096 63.024C122.52 63.6 122.232 64.392 122.232 65.4H120.072C120.12 63.816 120.632 62.56 121.608 61.632C122.6 60.704 123.904 60.24 125.52 60.24C127.104 60.24 128.36 60.696 129.288 61.608C130.216 62.504 130.68 63.728 130.68 65.28C130.68 66.272 130.416 67.256 129.888 68.232C129.36 69.208 128.496 70.32 127.296 71.568L122.976 76.032H130.968V78H120.552ZM202.297 78H200.137V74.16H192.217V70.776L199.153 60.48H201.505L194.377 71.232V72.192H200.137V67.92H202.297V78ZM206.896 78V75.792L212.248 70.104C213.16 69.128 213.824 68.264 214.24 67.512C214.656 66.744 214.864 66.008 214.864 65.304C214.864 64.328 214.592 63.56 214.048 63C213.52 62.44 212.792 62.16 211.864 62.16C210.84 62.16 210.032 62.448 209.44 63.024C208.864 63.6 208.576 64.392 208.576 65.4H206.416C206.464 63.816 206.976 62.56 207.952 61.632C208.944 60.704 210.248 60.24 211.864 60.24C213.448 60.24 214.704 60.696 215.632 61.608C216.56 62.504 217.023 63.728 217.023 65.28C217.023 66.272 216.76 67.256 216.232 68.232C215.704 69.208 214.84 70.32 213.64 71.568L209.32 76.032H217.312V78H206.896ZM149.333 110V107.792L154.685 102.104C155.597 101.128 156.261 100.264 156.677 99.512C157.093 98.744 157.301 98.008 157.301 97.304C157.301 96.328 157.029 95.56 156.485 95C155.957 94.44 155.229 94.16 154.301 94.16C153.277 94.16 152.469 94.448 151.877 95.024C151.301 95.6 151.013 96.392 151.013 97.4H148.853C148.901 95.816 149.413 94.56 150.389 93.632C151.381 92.704 152.685 92.24 154.301 92.24C155.885 92.24 157.141 92.696 158.069 93.608C158.997 94.504 159.461 95.728 159.461 97.28C159.461 98.272 159.197 99.256 158.669 100.232C158.141 101.208 157.277 102.32 156.077 103.568L151.757 108.032H159.749V110H149.333Z" fill="#F29111"/>
</svg>
