<svg width="88" height="88" viewBox="0 0 88 88" fill="none" xmlns="http://www.w3.org/2000/svg">
<g clip-path="url(#clip0)">
<path d="M43.9987 60.4995C38.946 60.4995 34.832 56.3855 34.832 51.3328C34.832 46.2801 38.946 42.1661 43.9987 42.1661C49.0514 42.1661 53.1654 46.2801 53.1654 51.3328C53.1654 56.3855 49.0514 60.4995 43.9987 60.4995ZM43.9987 45.8328C40.9664 45.8328 38.4987 48.3005 38.4987 51.3328C38.4987 54.3651 40.9664 56.8328 43.9987 56.8328C47.031 56.8328 49.4987 54.3651 49.4987 51.3328C49.4987 48.3005 47.031 45.8328 43.9987 45.8328Z" fill="#003C4A"/>
<path d="M46.8437 75.1667H41.1603C39.2903 75.1667 37.743 73.744 37.567 71.8557L37.1123 67.188C36.049 66.6967 35.0333 66.0917 34.0727 65.373L29.9623 67.2833C28.2463 68.079 26.248 67.4263 25.313 65.758L22.475 60.698C21.5657 59.0737 22.002 57.0203 23.487 55.9203L27.1537 53.207C27.084 52.635 27.0327 52.0007 27.0327 51.3333C27.0327 50.666 27.084 50.0317 27.1537 49.4597L23.487 46.7463C22.002 45.6463 21.5657 43.593 22.4713 41.9687L25.313 36.905C26.2443 35.2477 28.2463 34.584 29.9623 35.3833L34.0727 37.2937C35.0297 36.575 36.049 35.97 37.1123 35.4787L37.567 30.8073C37.7467 28.9227 39.294 27.5 41.1603 27.5H46.8437C48.7137 27.5 50.261 28.9227 50.437 30.811L50.8917 35.4787C51.9587 35.97 52.9743 36.575 53.9313 37.2937L58.0417 35.3833C59.765 34.595 61.7597 35.2403 62.691 36.9087L65.529 41.9687C66.4383 43.593 66.002 45.6463 64.517 46.7463L60.8503 49.4597C60.92 50.0317 60.9713 50.6697 60.9713 51.3333C60.9713 51.997 60.92 52.635 60.8503 53.207L64.517 55.9203C66.002 57.0167 66.4383 59.07 65.529 60.6943L62.6873 65.758C61.7597 67.419 59.765 68.0717 58.0417 67.2797L53.9313 65.3693C52.9743 66.088 51.955 66.693 50.8917 67.1843L50.437 71.8557C50.261 73.744 48.7137 75.1667 46.8437 75.1667ZM34.333 61.3983C34.7657 61.3983 35.191 61.5523 35.5283 61.842C36.731 62.8797 38.0583 63.6753 39.4737 64.207C40.13 64.4527 40.5847 65.0467 40.6543 65.7433L41.2153 71.5037L46.8437 71.5L47.3497 65.7433C47.4193 65.0467 47.874 64.449 48.5303 64.207C49.9457 63.6717 51.273 62.8797 52.4757 61.842C53.022 61.3727 53.792 61.2663 54.4447 61.567L59.5853 63.9577L62.3317 58.905L57.785 55.5023C57.2313 55.0917 56.9527 54.406 57.0663 53.724C57.1983 52.9467 57.3047 52.1547 57.3047 51.337C57.3047 50.5193 57.1983 49.7273 57.0663 48.95C56.9527 48.268 57.2277 47.5787 57.785 47.1717L62.3353 43.7983L59.49 38.698L54.4447 41.0997C53.792 41.404 53.0183 41.294 52.472 40.8247C51.273 39.7907 49.9457 38.995 48.5267 38.4597C47.8703 38.214 47.4157 37.62 47.346 36.9233L46.7887 31.163L41.1603 31.1667L40.6543 36.9233C40.5847 37.62 40.13 38.2177 39.4737 38.4597C38.0583 38.995 36.731 39.787 35.5283 40.8247C34.982 41.294 34.212 41.4003 33.5593 41.0997L28.4187 38.709L25.6723 43.7617L30.219 47.1643C30.7727 47.575 31.0513 48.2607 30.9377 48.9427C30.802 49.7237 30.6993 50.512 30.6993 51.3333C30.6993 52.1547 30.8057 52.943 30.9377 53.7203C31.0513 54.4023 30.7763 55.0917 30.219 55.4987L25.6687 58.8683L28.514 63.9687L33.5593 61.567C33.805 61.4533 34.0727 61.3983 34.333 61.3983Z" fill="#003C4A"/>
<path d="M71.4987 88H16.4987C11.446 88 7.33203 83.886 7.33203 78.8333V9.16667C7.33203 4.114 11.446 0 16.4987 0H56.832C57.844 0 58.6654 0.821333 58.6654 1.83333V16.5C58.6654 19.5323 61.133 22 64.1654 22H78.832C79.844 22 80.6654 22.8213 80.6654 23.8333V78.8333C80.6654 83.886 76.5514 88 71.4987 88ZM16.4987 3.66667C13.4664 3.66667 10.9987 6.13433 10.9987 9.16667V78.8333C10.9987 81.8657 13.4664 84.3333 16.4987 84.3333H71.4987C74.531 84.3333 76.9987 81.8657 76.9987 78.8333V25.6667H64.1654C59.1127 25.6667 54.9987 21.5527 54.9987 16.5V3.66667H16.4987Z" fill="#003C4A"/>
<path d="M78.8333 25.6659H64.1667C59.114 25.6659 55 21.5519 55 16.4992V1.83257C55 1.09191 55.4473 0.420905 56.133 0.138572C56.8223 -0.147428 57.607 0.0139052 58.1313 0.534572L80.1313 22.5346C80.6557 23.0589 80.8133 23.8472 80.5273 24.5329C80.245 25.2186 79.574 25.6659 78.8333 25.6659ZM58.6667 6.25824V16.4992C58.6667 19.5316 61.1343 21.9992 64.1667 21.9992H74.4077L58.6667 6.25824Z" fill="#003C4A"/>
<path d="M21.3125 11.0625H26.4688V16.2188H21.3125V11.0625Z" fill="#003C4A"/>
<path d="M31.625 11.0625H36.7812V16.2188H31.625V11.0625Z" fill="#003C4A"/>
<path d="M41.9375 11.0625H47.0938V16.2188H41.9375V11.0625Z" fill="#003C4A"/>
</g>
<defs>
<clipPath id="clip0">
<rect width="88" height="88" fill="white"/>
</clipPath>
</defs>
</svg>
