<svg width="88" height="88" viewBox="0 0 88 88" fill="none" xmlns="http://www.w3.org/2000/svg">
<g clip-path="url(#clip0)">
<path d="M72.2109 65.6371C68.6639 65.6371 65.7783 68.5229 65.7783 72.0697C65.7783 75.6165 68.6639 78.5023 72.2109 78.5023C75.7579 78.5023 78.6435 75.6165 78.6435 72.0697C78.6435 68.5229 75.7579 65.6371 72.2109 65.6371ZM72.2109 74.9934C70.5986 74.9934 69.287 73.6819 69.287 72.0695C69.287 70.4571 70.5986 69.1456 72.2109 69.1456C73.8233 69.1456 75.1349 70.4571 75.1349 72.0695C75.1349 73.6819 73.8233 74.9934 72.2109 74.9934Z" fill="#003C4A"/>
<path d="M16.0722 9.49841C12.5253 9.49841 9.63965 12.3842 9.63965 15.931C9.63965 19.4778 12.5253 22.3636 16.0722 22.3636C19.6192 22.3636 22.5048 19.4778 22.5048 15.931C22.5048 12.3842 19.6192 9.49841 16.0722 9.49841ZM16.0722 18.8548C14.4599 18.8548 13.1483 17.5432 13.1483 15.9308C13.1483 14.3185 14.4599 13.0069 16.0722 13.0069C17.6846 13.0069 18.9962 14.3185 18.9962 15.9308C18.9962 17.5432 17.6846 18.8548 16.0722 18.8548Z" fill="#003C4A"/>
<path d="M72.2105 56.281C70.2539 56.281 68.3585 56.6307 66.5601 57.3223L53.2383 44.0007L66.5607 30.6785C68.3592 31.3701 70.2546 31.72 72.2107 31.72C72.2109 31.72 72.2109 31.72 72.2112 31.72C76.4282 31.72 80.3932 30.0774 83.3754 27.0956C86.3576 24.1133 87.9998 20.1485 88 15.9312C88 13.5501 87.4816 11.2595 86.4595 9.12344C86.2139 8.61005 85.7342 8.24774 85.1732 8.15149C84.6125 8.05541 84.0395 8.23777 83.6366 8.64013L75.5188 16.758L71.3836 12.6232L79.5015 4.5055C79.904 4.10263 80.0862 3.53011 79.9901 2.96894C79.894 2.40811 79.5317 1.92824 79.0182 1.68246C76.8823 0.660487 74.592 0.142456 72.2107 0.142456C63.5045 0.142456 56.4217 7.22525 56.4217 15.9314C56.4217 17.8879 56.7717 19.7833 57.4633 21.5818L44.1413 34.9038L30.8193 21.5818C31.5112 19.7833 31.8608 17.888 31.8608 15.9314C31.8608 7.22525 24.778 0.142456 16.0719 0.142456C7.3657 0.142456 0.283078 7.22508 0.283078 15.9312C0.283078 24.6374 7.36588 31.7202 16.072 31.7202C18.0287 31.7202 19.9241 31.3704 21.7224 30.6788L35.0441 44.001L21.7243 57.3206C19.8411 56.5525 17.8503 56.1639 15.7891 56.1639C7.08314 56.1641 0 63.2469 0 71.9529C0 74.334 0.518375 76.6246 1.54034 78.7607C1.78595 79.274 2.26566 79.6364 2.82683 79.7326C3.38766 79.8287 3.96086 79.6465 4.36339 79.244L12.4812 71.1261L16.6164 75.2613L8.49853 83.3789C8.096 83.7818 7.91381 84.3545 8.00989 84.9155C8.10597 85.4765 8.46828 85.9562 8.98184 86.202C11.1179 87.224 13.4083 87.7423 15.7896 87.7423C24.4958 87.7422 31.5786 80.659 31.5786 71.953C31.5786 70.1088 31.2642 68.3124 30.6427 66.5969L44.1418 53.0978L57.4638 66.4199C56.7722 68.2184 56.4223 70.1136 56.4223 72.0703C56.4223 80.7764 63.5051 87.8592 72.2112 87.8592C80.9174 87.8592 88.0002 80.7764 88.0002 72.0703C88 63.3639 80.9167 56.281 72.2105 56.281ZM23.3626 27.3571C22.8363 26.8314 22.0359 26.6947 21.3647 27.0151C19.7056 27.8092 17.9248 28.2115 16.0719 28.2115C9.30033 28.2115 3.79156 22.7024 3.79156 15.9312C3.79156 9.16005 9.3005 3.65094 16.0719 3.65094C22.8434 3.65094 28.3522 9.16005 28.3522 15.9312C28.3522 17.7842 27.9496 19.565 27.1557 21.2241C26.8345 21.8951 26.9717 22.6959 27.4978 23.222L41.6601 37.3848L37.5253 41.5196L23.3626 27.3571ZM27.3391 64.9376C26.8228 65.4539 26.6805 66.2358 26.9813 66.9013C27.7032 68.4977 28.0694 70.1975 28.0694 71.953C28.0694 78.7242 22.5607 84.2333 15.7891 84.2337C14.8163 84.2337 13.8631 84.1226 12.937 83.9023L20.3375 76.5019C21.0225 75.8164 21.0225 74.706 20.3375 74.0209L13.7215 67.4049C13.0364 66.7203 11.9255 66.7203 11.2406 67.4049L3.8402 74.8056C3.61969 73.8794 3.50848 72.9262 3.50848 71.953C3.50848 65.1818 9.01759 59.6729 15.7888 59.6729C17.7282 59.6729 19.587 60.1153 21.314 60.9871C21.9907 61.3287 22.8097 61.1971 23.3453 60.6617L60.785 23.2223C61.3111 22.6962 61.4481 21.8956 61.127 21.2245C60.3329 19.565 59.9302 17.7844 59.9302 15.9316C59.9302 9.16039 65.4393 3.65128 72.2105 3.65128C73.1833 3.65128 74.1366 3.76232 75.0625 3.98249L67.662 11.3829C66.9769 12.0683 66.9769 13.1788 67.662 13.8639L74.278 20.4799C74.9631 21.1648 76.0739 21.1648 76.7589 20.4799L84.1593 13.0791C84.3796 14.0052 84.4907 14.9584 84.4907 15.9312C84.4905 19.2113 83.2133 22.2953 80.8935 24.6147C78.574 26.9342 75.4901 28.2114 72.21 28.2114C70.3574 28.2114 68.5768 27.8085 66.9173 27.0146C66.2461 26.6939 65.4455 26.8305 64.9194 27.3566L27.3391 64.9376ZM72.2105 84.3504C65.439 84.3504 59.9302 78.8413 59.9302 72.0701C59.9302 70.2171 60.3328 68.4363 61.1267 66.7772C61.4479 66.106 61.3107 65.3054 60.7846 64.7793L46.6223 50.6166L50.7571 46.4818L64.9198 60.6442C65.446 61.1703 66.2468 61.3071 66.9176 60.9862C68.5768 60.1921 70.3575 59.7898 72.2105 59.7898C78.9821 59.7898 84.4908 65.2989 84.4908 72.0701C84.4908 78.8413 78.9821 84.3504 72.2105 84.3504Z" fill="#003C4A"/>
</g>
<defs>
<clipPath id="clip0">
<rect width="88" height="88" fill="white"/>
</clipPath>
</defs>
</svg>
