<svg width="481" height="391" viewBox="0 0 481 391" fill="none" xmlns="http://www.w3.org/2000/svg">
<g opacity="0.5" clip-path="url(#clip0)" filter="url(#filter0_d)">
<path fill-rule="evenodd" clip-rule="evenodd" d="M343.739 80.2969C294.533 84.6522 262.657 106.014 193.846 180.751C190.316 184.585 186.529 188.695 185.43 189.885C183.306 192.184 169.183 207.931 160.486 217.697C155.848 222.904 155.338 223.65 155.917 224.381C157.786 226.744 256.464 325.016 256.834 324.883C257.582 324.616 276.288 308.087 289.601 295.93C292.438 293.339 294.442 291.513 299.905 286.536C301.757 284.85 304.679 282.147 306.399 280.529C308.118 278.912 313.422 273.927 318.183 269.451C370.646 220.14 389.229 193.208 397.566 154.401C402.171 132.968 400.136 102.302 393.222 88.939C390.727 84.1174 360.407 78.8211 343.739 80.2969ZM332.195 110.047C376.567 117.879 385.038 177.212 344.638 197.212C317.172 210.81 283.604 193.749 278.731 163.715C273.514 131.572 300.525 104.458 332.195 110.047ZM263.277 197.123C274.949 199.28 283.954 209.822 284.608 222.093C285.937 247.033 256.21 260.343 238.52 242.728C219.511 223.8 236.662 192.206 263.277 197.123ZM125.219 280.884C121.206 282.787 117.805 284.464 117.663 284.607C117.521 284.751 135.028 302.48 156.567 324.006C178.107 345.531 195.821 363.043 195.931 362.923C196.043 362.802 197.806 359.266 199.85 355.065L203.567 347.425L168.525 312.401C149.251 293.137 133.265 277.385 133 277.399C132.734 277.411 129.233 278.979 125.219 280.884Z" fill="url(#paint0_linear)"/>
<path d="M133 277.399C133.265 277.385 149.251 293.137 168.525 312.401L203.567 347.425M133 277.399L133.014 277.598C133.014 277.598 133.002 277.601 132.971 277.61C132.968 277.611 132.965 277.612 132.962 277.613M133 277.399C132.734 277.411 129.233 278.979 125.219 280.884C121.206 282.788 117.805 284.464 117.663 284.607M133 277.399L117.954 284.663M203.567 347.425L203.387 347.337L203.325 347.466M203.567 347.425L203.426 347.566L203.325 347.466M203.567 347.425L199.85 355.065C197.806 359.266 196.043 362.802 195.931 362.923C195.821 363.043 178.107 345.531 156.567 324.006C135.028 302.48 117.521 284.751 117.663 284.607M203.325 347.466L168.384 312.542C158.747 302.911 149.933 294.157 143.494 287.813C140.275 284.641 137.65 282.072 135.813 280.297C134.895 279.409 134.174 278.721 133.675 278.255C133.426 278.022 133.233 277.846 133.099 277.728C133.041 277.678 132.995 277.639 132.962 277.613M203.325 347.466L199.67 354.977C198.648 357.078 197.697 359.011 196.987 360.435C196.632 361.147 196.338 361.73 196.125 362.144C196.021 362.347 195.936 362.509 195.874 362.623M132.962 277.613C132.927 277.624 132.881 277.64 132.823 277.661C132.698 277.708 132.526 277.776 132.313 277.865C131.887 278.043 131.301 278.298 130.597 278.614C129.188 279.245 127.311 280.113 125.305 281.065C123.299 282.016 121.446 282.911 120.078 283.585C119.393 283.922 118.831 284.204 118.431 284.41C118.231 284.514 118.072 284.597 117.961 284.659C117.958 284.66 117.956 284.662 117.954 284.663M132.962 277.613C132.957 277.609 132.952 277.605 132.948 277.601C132.936 277.592 132.928 277.586 132.922 277.582C132.92 277.581 132.918 277.579 132.917 277.579C132.916 277.578 132.916 277.578 132.917 277.579C132.918 277.579 132.921 277.581 132.926 277.583C132.93 277.585 132.938 277.589 132.949 277.592C132.959 277.594 132.98 277.6 133.009 277.598C133.009 277.598 133.009 277.598 133.01 277.598L117.954 284.663M117.954 284.663C117.911 284.613 117.88 284.576 117.859 284.55C117.847 284.534 117.842 284.526 117.842 284.525L117.842 284.525C117.842 284.526 117.843 284.528 117.845 284.532C117.847 284.535 117.85 284.543 117.853 284.553C117.856 284.562 117.863 284.583 117.862 284.613C117.862 284.642 117.853 284.699 117.806 284.747L117.663 284.607M117.954 284.663C117.965 284.676 117.977 284.69 117.99 284.705C118.114 284.845 118.303 285.052 118.556 285.322C119.062 285.861 119.818 286.648 120.797 287.658C122.754 289.676 125.602 292.577 129.127 296.148C136.178 303.288 145.939 313.102 156.709 323.864C167.478 334.627 177.291 344.386 184.426 351.439C187.993 354.966 190.89 357.816 192.903 359.777C193.909 360.757 194.693 361.515 195.229 362.023C195.497 362.278 195.702 362.469 195.841 362.594C195.853 362.604 195.864 362.614 195.874 362.623M117.954 284.663C117.901 284.692 117.86 284.716 117.831 284.733C117.807 284.748 117.798 284.755 117.798 284.754C117.798 284.754 117.801 284.752 117.805 284.748L117.663 284.607M195.874 362.623C195.874 362.625 195.873 362.627 195.872 362.628C195.858 362.654 195.845 362.677 195.834 362.698C195.82 362.723 195.808 362.744 195.798 362.761C195.794 362.768 195.791 362.774 195.788 362.779C195.784 362.785 195.781 362.79 195.778 362.794C195.772 362.804 195.775 362.798 195.784 362.788C195.843 362.724 195.916 362.722 195.943 362.724C195.955 362.725 195.966 362.727 195.975 362.729C195.987 362.732 195.996 362.736 196 362.737C196.009 362.741 196.015 362.744 196.018 362.746L196.022 362.748C196.022 362.748 196.02 362.747 196.015 362.743C196.01 362.739 196.004 362.734 195.996 362.728C195.968 362.705 195.928 362.671 195.874 362.623ZM299.771 286.388L299.893 286.522L299.771 286.388C294.308 291.365 292.303 293.191 289.466 295.783C282.811 301.86 274.807 309.031 268.373 314.715C265.157 317.558 262.333 320.028 260.267 321.804C259.234 322.692 258.391 323.406 257.784 323.906C257.48 324.156 257.236 324.352 257.058 324.488C256.971 324.555 256.901 324.606 256.848 324.642C256.8 324.6 256.735 324.541 256.653 324.466C256.457 324.285 256.17 324.014 255.799 323.658C255.056 322.945 253.977 321.896 252.608 320.557C249.871 317.878 245.979 314.041 241.313 309.426C231.981 300.195 219.553 287.85 207.079 275.426C194.604 263.003 182.083 250.502 172.563 240.959C167.803 236.188 163.794 232.156 160.917 229.243C159.478 227.787 158.322 226.61 157.498 225.762C156.667 224.907 156.182 224.395 156.074 224.257C155.954 224.105 155.904 223.976 155.932 223.791C155.964 223.584 156.096 223.29 156.411 222.83C157.037 221.915 158.313 220.438 160.636 217.83L160.486 217.697L160.636 217.83C169.333 208.064 183.455 192.318 185.577 190.021C186.676 188.831 190.463 184.721 193.993 180.887L193.846 180.751L193.993 180.887C228.397 143.52 253.556 119.51 276.256 104.297C298.947 89.0899 319.185 82.671 343.757 80.4961C352.067 79.7604 363.795 80.7128 373.761 82.4535C378.743 83.3236 383.277 84.3895 386.718 85.5368C388.439 86.1106 389.881 86.7028 390.967 87.2982C392.061 87.8983 392.761 88.4845 393.044 89.0309C396.482 95.6754 398.717 106.649 399.514 118.657C400.311 130.659 399.668 143.664 397.371 154.359C389.047 193.105 370.5 220.003 318.046 269.305C313.285 273.781 307.981 278.766 306.262 280.384C304.543 282 301.622 284.703 299.771 286.388ZM344.727 197.392C385.299 177.306 376.793 117.716 332.23 109.85C300.42 104.236 273.295 131.472 278.533 163.747C283.429 193.916 317.142 211.048 344.727 197.392ZM284.808 222.083C284.149 209.723 275.081 199.1 263.314 196.927C236.518 191.976 219.222 223.794 238.379 242.87C256.199 260.614 286.147 247.205 284.808 222.083Z" stroke="#35ADC8" stroke-opacity="0.5" stroke-width="0.4"/>
<path fill-rule="evenodd" clip-rule="evenodd" d="M145.865 44.9604C144.217 46.7198 144.189 62.7662 145.832 64.6542L146.88 65.8596H155.848C167.734 65.8596 166.909 66.6889 166.909 54.7382V45.8425L165.703 44.7946C163.754 43.1 147.48 43.237 145.865 44.9604ZM165.732 64.2829C165.549 64.76 163.301 64.873 155.741 64.7888L145.985 64.6795L155.726 64.5377L165.466 64.3971L165.575 54.6733L165.685 44.9484L165.827 54.308C165.905 59.4565 165.863 63.9452 165.732 64.2829ZM215.249 132.057C212.604 132.133 200.266 132.625 187.832 133.154C175.399 133.682 158.191 134.348 149.593 134.634C140.995 134.92 128.225 135.409 121.214 135.719L108.467 136.285L108.148 143.255C107.972 147.089 107.584 155.913 107.285 162.864L106.741 175.502L126.465 195.192C137.314 206.022 146.387 214.882 146.628 214.882C147.062 214.882 155.148 206.265 171.238 188.66C179.083 180.076 189.203 169.064 200.818 156.475C203.501 153.567 209.469 147.077 214.081 142.054C218.691 137.03 222.627 132.848 222.825 132.76C223.784 132.333 223.01 131.729 221.623 131.819C220.763 131.874 217.895 131.981 215.249 132.057ZM46.178 146.14C46.178 146.444 49.6255 146.62 55.5575 146.62C61.4894 146.62 64.937 146.444 64.937 146.14C64.937 145.836 61.4894 145.659 55.5575 145.659C49.6255 145.659 46.178 145.836 46.178 146.14ZM44.7097 147.317C43.512 148.517 44.1806 165.251 45.4781 166.549L46.7023 167.772H55.8485C61.8225 167.772 64.8901 167.605 64.6965 167.291C64.5329 167.027 64.6279 166.811 64.9081 166.811C65.2508 166.811 65.418 163.576 65.418 156.974V147.138L55.2917 146.999C49.3369 146.918 44.9779 147.049 44.7097 147.317ZM66.5808 156.956C66.5808 161.979 66.6517 163.969 66.7383 161.377C66.8261 158.786 66.8249 154.676 66.7383 152.244C66.6505 149.812 66.5796 151.932 66.5808 156.956ZM246.003 212.599L244.59 214.161L246.154 212.749C247.013 211.973 247.717 211.27 247.717 211.187C247.717 210.815 247.32 211.142 246.003 212.599ZM273.364 224.016C273.364 225.735 273.452 226.438 273.557 225.578C273.664 224.719 273.664 223.313 273.557 222.454C273.452 221.594 273.364 222.297 273.364 224.016ZM146.557 232.789C146.417 233.12 142.289 238.582 137.382 244.927L128.46 256.464L175.942 303.935C202.058 330.044 223.552 351.406 223.708 351.406C224.061 351.406 227.166 349.034 234.089 343.475C237.052 341.095 241.35 337.654 243.638 335.828L247.8 332.506L232.182 316.839C223.591 308.222 201.113 285.65 182.229 266.68C148.975 233.273 147.103 231.494 146.557 232.789ZM339.107 264.494C319.843 283.293 284.025 316.201 264.806 332.758C264.525 332.998 272.252 341.072 284.043 352.859L303.749 372.558L309.764 372.559C316.308 372.56 336.875 371.742 340.861 371.32L343.337 371.059L343.624 363.756C343.781 359.74 344.131 350.289 344.4 342.753C344.671 335.218 345.205 321.482 345.586 312.228C345.968 302.974 346.51 288.48 346.79 280.02C347.07 271.559 347.429 262.852 347.589 260.671C347.957 255.621 348.406 255.419 339.107 264.494ZM96.0949 289.265C97.2253 289.367 98.9569 289.366 99.9429 289.263C100.928 289.159 100.002 289.076 97.8855 289.078C95.7691 289.08 94.9634 289.164 96.0949 289.265ZM86.2212 289.739C86.9487 289.848 88.1392 289.848 88.8667 289.739C89.5942 289.628 88.999 289.538 87.544 289.538C86.0889 289.538 85.4937 289.628 86.2212 289.739ZM63.6479 297.085C63.6479 298.804 63.7357 299.507 63.8415 298.648C63.9485 297.788 63.9485 296.382 63.8415 295.523C63.7357 294.664 63.6479 295.367 63.6479 297.085ZM63.1837 308.863C63.1825 311.242 63.2631 312.276 63.3641 311.161C63.4651 310.045 63.4663 308.098 63.3677 306.834C63.2679 305.57 63.1849 306.483 63.1837 308.863ZM421.238 313.307C423.685 313.395 427.689 313.395 430.136 313.307C432.583 313.219 430.581 313.148 425.687 313.148C420.793 313.148 418.791 313.219 421.238 313.307ZM118.448 313.775C119.176 313.884 120.366 313.884 121.094 313.775C121.821 313.664 121.226 313.574 119.771 313.574C118.316 313.574 117.721 313.664 118.448 313.775ZM108.12 314.262C109.25 314.365 110.982 314.363 111.968 314.26C112.953 314.157 112.027 314.074 109.91 314.075C107.794 314.077 106.988 314.162 108.12 314.262ZM97.5139 314.738C98.3677 314.844 99.8828 314.847 100.881 314.742C101.879 314.637 101.18 314.551 99.3285 314.548C97.4766 314.546 96.6601 314.631 97.5139 314.738ZM415.586 324.037C415.586 329.767 415.788 334.061 416.084 334.612C416.868 336.077 434.582 336.049 434.965 334.581C435.104 334.052 435.562 333.62 435.984 333.62C437.281 333.62 437.124 315.586 435.819 314.889C435.267 314.593 430.971 314.391 425.237 314.391H415.586V324.037ZM414.343 324.486C414.343 329.377 414.414 331.378 414.501 328.933C414.589 326.487 414.589 322.485 414.501 320.039C414.414 317.594 414.343 319.595 414.343 324.486ZM62.7003 320.16C62.7003 322.407 62.7833 323.326 62.8843 322.203C62.9853 321.079 62.9853 319.24 62.8843 318.117C62.7833 316.993 62.7003 317.912 62.7003 320.16ZM121.695 324.55C116.007 324.767 108.228 325.113 104.41 325.317L97.4658 325.688L95.6344 330.495C94.6279 333.139 93.3845 336.384 92.8722 337.706C89.5016 346.4 77.0209 379.055 70.2737 396.834C67.063 405.295 64.106 412.947 63.7032 413.84C62.5308 416.437 62.6125 416.433 70.4685 413.518C72.5849 412.732 78.2126 410.669 82.9745 408.935C87.7364 407.2 96.719 403.92 102.936 401.646C109.153 399.372 118.136 396.113 122.897 394.402C127.659 392.692 131.988 391.093 132.517 390.852C133.047 390.61 134.778 389.953 136.365 389.389C146.327 385.858 152.398 383.643 153.471 383.149L154.704 382.581L155.295 371.44C155.62 365.312 156.019 355.601 156.181 349.856L156.478 339.414L148.827 331.721L141.175 324.027L136.606 324.09C134.093 324.124 127.383 324.331 121.695 324.55ZM62.1724 334.341C62.1772 335.398 62.2758 335.775 62.3913 335.176C62.5067 334.579 62.5019 333.714 62.3817 333.253C62.2614 332.794 62.1664 333.283 62.1724 334.341ZM61.6818 347.08C61.6818 348.005 61.7804 348.384 61.9019 347.921C62.0221 347.458 62.0221 346.701 61.9019 346.239C61.7804 345.776 61.6818 346.155 61.6818 347.08ZM166.593 355.492C166.595 357.608 166.679 358.413 166.78 357.282C166.882 356.152 166.881 354.422 166.778 353.436C166.674 352.452 166.591 353.377 166.593 355.492ZM61.2429 360.059C61.2429 361.778 61.3307 362.481 61.4365 361.622C61.5435 360.762 61.5435 359.356 61.4365 358.497C61.3307 357.638 61.2429 358.341 61.2429 360.059ZM166.108 365.828C166.108 367.811 166.193 368.622 166.297 367.631C166.402 366.639 166.402 365.017 166.297 364.025C166.193 363.034 166.108 363.845 166.108 365.828ZM60.7787 371.837C60.7775 374.216 60.8581 375.25 60.9591 374.135C61.0601 373.02 61.0613 371.073 60.9627 369.808C60.8629 368.544 60.7799 369.457 60.7787 371.837ZM191.103 377.846C191.103 379.3 191.193 379.895 191.304 379.168C191.414 378.441 191.414 377.251 191.304 376.524C191.193 375.797 191.103 376.392 191.103 377.846ZM165.587 378.567C165.592 379.625 165.691 380.001 165.806 379.402C165.922 378.805 165.917 377.94 165.797 377.479C165.676 377.02 165.581 377.509 165.587 378.567ZM60.2953 383.615C60.2953 385.862 60.3783 386.781 60.4793 385.658C60.5803 384.534 60.5803 382.695 60.4793 381.571C60.3783 380.448 60.2953 381.367 60.2953 383.615ZM190.59 389.864C190.59 390.789 190.688 391.168 190.81 390.705C190.93 390.242 190.93 389.485 190.81 389.023C190.688 388.56 190.59 388.938 190.59 389.864ZM190.118 401.161C190.123 402.218 190.222 402.594 190.337 401.996C190.453 401.399 190.448 400.533 190.328 400.073C190.207 399.614 190.112 400.103 190.118 401.161ZM189.665 413.179C189.667 414.765 189.758 415.356 189.865 414.492C189.972 413.628 189.969 412.33 189.86 411.608C189.75 410.886 189.663 411.592 189.665 413.179ZM315.141 415.974C314.144 417.033 314.095 417.51 314.095 425.983V434.878L315.301 435.926C317.276 437.641 333.299 437.534 335.04 435.794C336.781 434.054 336.888 418.04 335.172 416.067L334.124 414.861H325.156C316.403 414.861 316.162 414.888 315.141 415.974ZM325.278 416.183L315.538 416.324L315.428 426.048L315.319 435.772L315.177 426.413C315.099 421.264 315.141 416.776 315.272 416.438C315.455 415.961 317.702 415.848 325.263 415.932L335.018 416.041L325.278 416.183ZM184.351 416.648C185.084 416.759 186.166 416.756 186.756 416.642C187.348 416.528 186.75 416.437 185.427 416.44C184.105 416.444 183.62 416.538 184.351 416.648ZM165.346 417.136C166.47 417.237 168.31 417.237 169.434 417.136C170.559 417.035 169.639 416.952 167.39 416.952C165.141 416.952 164.221 417.035 165.346 417.136ZM149.713 417.621C151.234 417.715 153.724 417.715 155.245 417.621C156.766 417.524 155.521 417.446 152.479 417.446C149.437 417.446 148.192 417.524 149.713 417.621ZM134.081 418.1C135.47 418.197 137.742 418.197 139.131 418.1C140.52 418.003 139.384 417.923 136.606 417.923C133.828 417.923 132.692 418.003 134.081 418.1ZM115.811 418.575C116.676 418.682 117.974 418.679 118.697 418.57C119.42 418.461 118.713 418.373 117.125 418.375C115.538 418.378 114.947 418.468 115.811 418.575ZM98.7332 419.052C99.4656 419.162 100.548 419.16 101.138 419.046C101.73 418.932 101.132 418.84 99.8095 418.844C98.4867 418.848 98.0021 418.941 98.7332 419.052Z" fill="url(#paint1_linear)"/>
<path fill-rule="evenodd" clip-rule="evenodd" d="M85.3793 289.707C76.3846 290.066 67.9178 290.478 66.5626 290.624L64.1011 290.889L63.7728 299.395C63.5936 304.074 63.1367 315.364 62.7591 324.486C62.3815 333.608 61.8428 347.885 61.5614 356.214C61.2788 364.542 60.8495 375.781 60.6066 381.189C60.3637 386.599 60.2338 391.093 60.3192 391.177C60.4046 391.263 62.2252 386.73 64.3656 381.104C66.5061 375.478 69.5845 367.414 71.2067 363.184C72.8288 358.954 75.1448 352.897 76.3534 349.724C77.5619 346.551 79.1816 342.333 79.9524 340.35C80.7244 338.367 81.7586 335.663 82.2528 334.341C82.7471 333.019 83.8293 330.207 84.6578 328.092C85.4863 325.976 86.5602 323.145 87.0424 321.8C88.4469 317.882 89.3872 316.38 90.9325 315.582C92.3682 314.839 114.421 313.46 125.182 313.438C127.497 313.433 129.391 313.266 129.391 313.065C129.391 312.865 124.032 307.349 117.482 300.807C105.738 289.076 105.548 288.914 103.654 288.985C102.598 289.024 94.374 289.349 85.3793 289.707ZM166.915 352.248C166.918 352.975 166.571 361.357 166.143 370.875C165.322 389.128 165.26 389.513 162.885 391.068C161.875 391.729 110.579 410.701 94.9993 416.175C85.2458 419.602 84.344 419.408 106.784 418.717C115.117 418.459 133.515 417.926 147.669 417.529C179.038 416.651 189.184 416.314 189.351 416.148C189.527 415.973 190.913 384.968 191.007 379.114L191.083 374.373L179.361 362.649C166.934 350.221 166.905 350.199 166.915 352.248Z" fill="url(#paint2_linear)"/>
<path d="M66.5841 290.823L66.584 290.823L64.2943 291.069L63.9727 299.403C63.7935 304.082 63.3365 315.373 62.9589 324.494C62.5814 333.616 62.0427 347.892 61.7613 356.22L61.5614 356.214L61.7613 356.22C61.4787 364.549 61.0494 375.789 60.8064 381.198C60.685 383.902 60.5919 386.377 60.5397 388.186C60.5137 389.091 60.4979 389.828 60.4939 390.343C60.4939 390.353 60.4938 390.363 60.4937 390.372C60.4968 390.365 60.4998 390.358 60.5029 390.351C60.718 389.853 61.0197 389.12 61.3862 388.208C62.119 386.383 63.1088 383.845 64.1787 381.033C66.3192 375.407 69.3977 367.343 71.0199 363.112C72.6421 358.882 74.958 352.825 76.1665 349.653C77.3751 346.48 78.995 342.261 79.766 340.277L79.7661 340.277C80.5378 338.295 81.5717 335.592 82.0655 334.271C82.5602 332.947 83.6429 330.134 84.4716 328.019C85.2998 325.904 86.3729 323.075 86.8541 321.733C88.2571 317.819 89.2182 316.242 90.8406 315.404L66.5841 290.823ZM66.5841 290.823C67.9306 290.678 76.3879 290.266 85.3873 289.907C94.3823 289.549 102.606 289.223 103.661 289.185L103.661 289.185C104.131 289.167 104.461 289.167 104.887 289.338C105.323 289.514 105.871 289.876 106.744 290.623C108.489 292.114 111.465 295.079 117.341 300.949L117.468 300.822M66.5841 290.823L117.468 300.822M117.468 300.822L117.341 300.949C120.616 304.219 123.592 307.233 125.749 309.453C126.828 310.564 127.702 311.476 128.305 312.122C128.607 312.445 128.84 312.701 128.997 312.881C129.034 312.924 129.067 312.962 129.095 312.995C129.072 313 129.046 313.006 129.018 313.012C128.816 313.053 128.516 313.092 128.137 313.126C127.381 313.193 126.335 313.236 125.182 313.238C119.795 313.249 111.587 313.599 104.548 314.04M117.468 300.822L104.548 314.04M104.548 314.04C101.028 314.26 97.7978 314.503 95.3573 314.738M104.548 314.04L95.3573 314.738M95.3573 314.738C94.1373 314.855 93.1125 314.97 92.3467 315.08M95.3573 314.738L92.3467 315.08M92.3467 315.08C91.9639 315.134 91.6435 315.188 91.3945 315.24M92.3467 315.08L91.3945 315.24M91.3945 315.24C91.1531 315.291 90.9577 315.344 90.8407 315.404L91.3945 315.24ZM162.995 391.235L162.995 391.235C163.589 390.846 164.07 390.511 164.448 389.933C164.824 389.358 165.085 388.561 165.294 387.265C165.711 384.678 165.932 380.003 166.343 370.884C166.77 361.371 167.118 352.98 167.115 352.247C167.114 351.985 167.114 351.778 167.135 351.624C167.146 351.548 167.16 351.499 167.175 351.469C167.182 351.454 167.187 351.447 167.19 351.444C167.192 351.443 167.193 351.442 167.193 351.442L167.193 351.442C167.193 351.442 167.194 351.441 167.195 351.441C167.197 351.441 167.2 351.44 167.204 351.44C167.213 351.439 167.229 351.44 167.253 351.445C167.303 351.455 167.375 351.482 167.476 351.537C167.678 351.647 167.958 351.849 168.346 352.173C169.896 353.469 173.001 356.572 179.219 362.791L190.881 374.454L190.807 379.111C190.76 382.034 190.39 391.245 190.01 399.751C189.82 404.004 189.627 408.078 189.471 411.1C189.393 412.612 189.324 413.859 189.269 414.734C189.242 415.172 189.218 415.515 189.198 415.751C189.19 415.848 189.183 415.925 189.177 415.983C189.176 415.983 189.175 415.983 189.174 415.983C189.089 415.994 188.96 416.006 188.784 416.02C188.432 416.046 187.902 416.076 187.17 416.111C185.706 416.179 183.443 416.264 180.204 416.372C173.726 416.586 163.348 416.89 147.663 417.329C133.51 417.726 115.111 418.259 106.778 418.517C105.279 418.563 103.885 418.607 102.59 418.647C99.038 418.759 96.2381 418.848 94.0999 418.893C92.6412 418.924 91.4931 418.935 90.6256 418.92C89.7529 418.905 89.1797 418.863 88.8612 418.795C88.8044 418.782 88.7591 418.77 88.7236 418.758C88.7776 418.716 88.8618 418.663 88.9836 418.599C89.1511 418.512 89.3723 418.412 89.6461 418.3C90.4512 417.97 91.6728 417.546 93.2295 417.004C93.7982 416.807 94.4115 416.593 95.0656 416.363C102.857 413.626 119.578 407.514 134.475 402.004C141.924 399.249 148.918 396.644 154.113 394.687C156.711 393.709 158.859 392.892 160.39 392.299C161.155 392.002 161.766 391.761 162.203 391.584C162.421 391.496 162.596 391.422 162.726 391.366C162.848 391.313 162.946 391.267 162.995 391.235Z" stroke="#35ADC8" stroke-opacity="0.5" stroke-width="0.4"/>
<path fill-rule="evenodd" clip-rule="evenodd" d="M232.875 49.7947C231.314 50.7477 230.945 51.1816 231.432 51.4904C232.061 51.8882 231.985 51.9675 230.845 52.0997C229.638 52.2392 228.96 54.1103 228.96 57.2987V60.5724L225.953 60.5796C223.714 60.5856 223.131 60.7154 223.669 61.0916C224.23 61.4846 224.145 61.5278 223.285 61.2851C221.901 60.8957 220.405 61.9316 221.361 62.6179C221.801 62.9351 221.719 62.9808 221.082 62.7729C219.838 62.3679 218.773 63.363 219.12 64.6056C219.311 65.2919 219.262 65.418 218.968 64.9962C218.266 63.9879 217.197 65.6872 217.197 67.8132C217.197 71.6337 221.682 75.4747 226.145 75.4747H228.96V78.3902C228.96 82.5484 231.04 85.5169 234.649 86.5132C236.478 87.0179 238.743 86.703 238.31 86.0048C238.167 85.7717 238.385 85.7092 238.795 85.8666C239.206 86.024 239.542 85.9387 239.542 85.6767C239.542 85.4159 239.975 85.0878 240.504 84.9496C241.033 84.8114 241.466 84.4353 241.466 84.1132C241.466 83.6613 241.303 83.6637 240.744 84.1276C240.26 84.5302 240.023 84.5518 240.023 84.1961C240.023 83.9041 240.579 83.5255 241.26 83.3549C242.791 82.9703 243.39 81.4897 243.39 78.0874V75.4747L245.915 75.4639C250.026 75.447 255.02 72.3572 254.235 70.3142C254.097 69.9524 254.174 69.7746 254.407 69.9176C255.109 70.3514 255.42 68.0824 254.911 66.2389C254.317 64.0889 250.908 60.862 249.593 61.2057C249.091 61.3367 248.801 61.2478 248.949 61.0087C249.098 60.7659 247.951 60.5724 246.368 60.5724H243.518L243.284 57.2819C242.809 50.6588 237.598 46.9104 232.875 49.7947ZM237.137 49.219C237.137 49.3212 236.596 49.5075 235.934 49.6337C235.273 49.7598 234.732 49.6769 234.732 49.4498C234.732 49.2214 235.273 49.0352 235.934 49.0352C236.596 49.0352 237.137 49.1181 237.137 49.219ZM242.844 58.5294C242.775 61.892 242.573 61.5182 242.324 57.5679C242.245 56.312 242.345 55.2845 242.544 55.2845C242.745 55.2845 242.879 56.7447 242.844 58.5294ZM341.273 67.7832C338.628 67.9454 337.004 68.1353 337.666 68.205C338.774 68.3216 338.792 68.3612 337.906 68.7194C337.365 68.9369 336.688 68.9021 336.357 68.6377C335.709 68.1209 332.306 68.4394 327.805 69.4381C326.218 69.7902 323.34 70.355 321.41 70.6939C318.015 71.2912 315.709 72.4762 318.838 72.0171C319.669 71.8957 320.35 71.9606 320.35 72.1625C320.35 72.3644 318.907 72.4894 317.143 72.4401C314.931 72.3789 313.873 72.5387 313.735 72.9545C313.624 73.2862 313.325 73.4292 313.071 73.2718C312.816 73.1143 312.239 73.1468 311.789 73.3427C311.338 73.5386 310.754 73.7321 310.489 73.7717C309.11 73.9784 307.393 74.6538 307.559 74.9255C307.663 75.0949 306.994 75.2511 306.071 75.2716C305.149 75.2932 304.227 75.5816 304.021 75.9145C303.815 76.2462 303.51 76.4998 303.34 76.477C302.448 76.358 302.42 76.5527 303.274 76.9397C303.948 77.2437 303.673 77.2858 302.363 77.0791C301.035 76.87 300.587 76.9421 300.825 77.3254C301.033 77.6631 300.899 77.7677 300.469 77.6031C299.445 77.2101 295.91 78.7832 296.709 79.276C297.209 79.5848 297.178 79.7302 296.556 79.9694C296.095 80.1449 295.891 80.0739 296.063 79.7951C296.487 79.1101 295.644 79.2087 293.303 80.1196C290.717 81.1267 290.646 81.1916 291.504 81.7817C292.043 82.1518 291.957 82.1963 291.142 81.968C289.522 81.5125 285.128 83.5868 286.439 84.1877C287.297 84.5807 287.277 84.6035 286.256 84.4064C284.084 83.9858 280.392 85.994 281.99 86.7271C282.321 86.8785 282.127 86.8893 281.559 86.7511C280.489 86.4891 277.06 87.8556 277.06 88.543C277.06 88.7581 276.842 88.9348 276.578 88.9348C275.637 88.9348 271.754 91.6448 272.12 92.0462C272.323 92.271 272.224 92.301 271.899 92.1147C271.081 91.6448 269.235 92.7132 269.531 93.4836C269.686 93.8874 269.484 94.04 268.967 93.909C268.019 93.6675 261.374 98.1778 261.541 98.9493C261.605 99.239 261.374 99.3676 261.029 99.2354C260.488 99.0275 259.328 99.7738 255.896 102.536C255.499 102.855 254.562 103.51 253.813 103.993C253.028 104.499 252.56 105.149 252.707 105.53C252.881 105.983 252.715 106.098 252.185 105.895C251.691 105.705 251.528 105.789 251.736 106.125C251.917 106.417 251.81 106.811 251.501 107.003C251.148 107.22 251.066 107.142 251.281 106.796C251.997 105.636 250.844 106.332 247.773 108.915C241.041 114.575 239.555 115.968 239.81 116.38C239.954 116.613 239.758 116.685 239.375 116.538C238.425 116.173 237.813 117.289 238.639 117.876C239.139 118.233 239.08 118.277 238.398 118.056C237.902 117.893 237.252 117.959 236.955 118.202C236.658 118.445 233.601 118.743 230.162 118.867C216.896 119.343 209.123 119.664 199.619 120.13C194.195 120.395 186.403 120.662 182.303 120.721C177.045 120.797 175.768 120.91 177.974 121.106L181.1 121.383L178.023 121.744C175.96 121.985 174.733 121.928 174.298 121.567C173.669 121.046 164.345 121.303 137.089 122.596C132.459 122.816 125.1 123.05 120.735 123.115C115.025 123.202 113.743 123.313 116.165 123.512L119.532 123.787L116.455 124.147C114.4 124.388 113.164 124.33 112.733 123.974C110.541 122.156 99.2953 124.218 97.9281 126.689C97.6407 127.208 97.2162 127.771 96.9841 127.939C96.752 128.109 96.7304 128.52 96.9384 128.855C97.1645 129.221 97.12 129.344 96.8266 129.162C96.1941 128.772 95.7395 132.863 95.3968 142.054C95.2489 146.02 95.0192 151.507 94.8858 154.248C94.7174 157.72 94.7996 159.509 94.9984 159.24C94.9984 158.894 94.9832 158.451 94.721 160.442V161.478C94.3971 162.245 94.4144 162.291 94.3603 167.104C94.3158 171.099 94.1378 175.406 93.9634 176.674C93.7566 178.184 93.7959 177.868 93.9634 178.774C94.2264 179.165 94.1342 179.102 94.3891 179.592C95.0049 180.776 96.7568 183.412 115.826 202.509L137.496 224.211L136.087 225.99C135.177 227.138 134.78 228.082 134.966 228.657L134.755 228.838C134.48 228.449 134.173 228.233 134.073 228.358C133.973 228.481 133.373 229.341 132.74 230.266C132.107 231.191 131.295 232.251 130.936 232.62C128.081 235.554 125.083 239.866 125.343 240.664C125.578 241.389 125.539 241.426 125.135 240.856C124.86 240.467 124.561 240.25 124.471 240.375C124.381 240.499 122.95 242.385 121.289 244.566C119.551 246.848 118.417 248.766 118.615 249.086C118.819 249.418 118.749 249.514 118.443 249.324C117.768 248.908 115.813 251.396 116.142 252.252C116.281 252.613 116.2 252.79 115.963 252.643C115.725 252.496 115.056 253.356 114.477 254.553C112.846 257.917 113.711 259.861 119.24 265.273L121.854 267.832L120.569 268.674C119.862 269.138 119.442 269.674 119.634 269.866C119.827 270.059 119.631 270.081 119.2 269.916C118.037 269.47 115.101 271.084 115.975 271.688C116.449 272.015 116.311 272.056 115.504 271.828C114.654 271.587 114.458 271.659 114.737 272.111C114.981 272.507 114.917 272.598 114.553 272.373C114.246 272.183 113.238 272.301 112.315 272.635C110.684 273.224 110.25 273.717 110.994 274.133C111.193 274.243 111.057 274.258 110.691 274.164C109.925 273.968 106.786 275.017 106.786 275.47C106.786 275.637 106.515 275.804 106.184 275.842C103.692 276.12 86.9048 276.862 81.0522 276.951C75.8418 277.031 74.7054 277.138 76.9637 277.339L80.0902 277.617L76.9938 277.98C74.8629 278.228 73.7927 278.173 73.563 277.803C73.3309 277.428 71.6294 277.35 68.0015 277.548C65.1263 277.706 61.7016 277.826 60.3896 277.817C57.3762 277.796 55.0529 278.892 52.9269 281.336L51.2578 283.257L50.9079 296.061C50.7167 303.102 50.3151 312.649 50.0157 317.276C49.7162 321.903 49.4842 327.527 49.4986 329.775C49.513 332.022 49.3988 336.375 49.2449 339.448C49.0621 343.106 49.1475 345.374 49.4938 346.019C49.8341 346.655 49.8942 348.083 49.6633 350.047L49.3062 353.089L49.0284 349.965C48.8384 347.822 48.7194 349.257 48.6508 354.532C48.5955 358.762 48.3261 366.874 48.052 372.559C47.779 378.243 47.4375 386.463 47.2944 390.826C47.1513 395.188 46.9276 401.272 46.7978 404.345C46.6451 407.927 46.7497 410.284 47.0888 410.916C47.4291 411.552 47.4892 412.98 47.2583 414.944L46.9012 417.986L46.6234 414.862C46.4454 412.857 46.3156 414.709 46.2627 420.028L46.1797 428.32L47.9389 430.265C48.9635 431.399 49.9796 432.105 50.3692 431.955C50.7384 431.813 50.9223 431.888 50.7792 432.118C50.3175 432.866 52.4688 432.942 64.2172 432.593C70.5664 432.406 80.956 432.192 87.3052 432.117C95.3451 432.025 97.4627 431.902 94.2797 431.715L89.7102 431.447L93.9153 431.11C96.5777 430.896 98.6688 430.963 99.6152 431.294C100.575 431.628 103.719 431.721 108.397 431.551C112.405 431.406 120.554 431.171 126.507 431.03C132.459 430.889 143.606 430.556 151.278 430.29C158.95 430.025 169.881 429.757 175.569 429.694C183.171 429.61 184.699 429.509 181.341 429.311L176.771 429.043L181.291 428.682C184.357 428.439 186.016 428.491 186.445 428.847C186.843 429.178 188.938 429.311 192.102 429.208C200.706 428.926 202.605 426.494 202.924 415.343C203.034 411.509 203.221 406.018 203.342 403.141C203.491 399.543 203.387 397.803 203.012 397.572C202.62 397.33 202.591 396.36 202.906 394.15L203.348 391.066L203.484 394.191C203.557 395.909 203.784 392.179 203.987 385.901C204.341 374.962 204.408 374.376 205.62 371.817C206.412 370.143 206.772 368.753 206.587 368.089C206.371 367.319 206.416 367.214 206.756 367.705C207.37 368.593 209.337 364.867 209.078 363.306C208.979 362.71 208.991 362.496 209.105 362.83C209.218 363.164 209.515 363.311 209.764 363.157C210.013 363.003 210.091 362.676 209.94 362.43C209.787 362.185 209.875 361.983 210.135 361.983C210.765 361.983 211.741 358.952 211.4 358.06C211.25 357.673 212.962 359.16 215.202 361.363C219.651 365.74 221.934 367.032 224.319 366.521C226.561 366.04 226.929 365.673 225.588 365.258C224.528 364.928 224.557 364.908 225.833 365.083C227.916 365.371 243.363 354.399 243.017 352.878C242.945 352.558 243.1 352.43 243.363 352.593C243.627 352.755 246.397 350.736 249.52 348.106C254.756 343.696 258.318 341.858 257.501 343.986C257.233 344.685 259.08 346.289 259.708 345.9C260 345.721 260.107 345.867 259.961 346.244C259.652 347.05 261.413 348.737 262.113 348.304C262.405 348.125 262.512 348.27 262.366 348.648C262.057 349.454 263.818 351.14 264.518 350.708C264.81 350.528 264.917 350.674 264.771 351.051C264.462 351.858 266.223 353.544 266.923 353.111C267.215 352.932 267.322 353.078 267.176 353.455C266.867 354.261 268.628 355.947 269.328 355.515C269.62 355.336 269.727 355.481 269.581 355.858C269.272 356.665 271.033 358.351 271.733 357.918C272.025 357.739 272.132 357.885 271.986 358.262C271.677 359.068 273.438 360.755 274.138 360.322C274.43 360.143 274.537 360.288 274.391 360.666C274.082 361.472 275.843 363.158 276.543 362.725C276.835 362.546 276.942 362.692 276.796 363.069C276.487 363.876 278.248 365.562 278.948 365.129C279.24 364.95 279.347 365.095 279.201 365.473C278.892 366.279 280.653 367.965 281.353 367.533C281.645 367.354 281.752 367.499 281.606 367.876C281.297 368.683 283.058 370.369 283.758 369.936C284.05 369.757 284.157 369.903 284.011 370.28C283.702 371.086 285.463 372.773 286.163 372.34C286.455 372.161 286.562 372.306 286.416 372.684C286.107 373.49 287.868 375.176 288.568 374.743C288.86 374.564 288.967 374.71 288.821 375.087C288.512 375.894 290.273 377.58 290.973 377.147C291.265 376.968 291.372 377.113 291.226 377.491C290.917 378.297 292.678 379.983 293.378 379.551C293.67 379.372 293.777 379.517 293.631 379.894C293.334 380.668 295.071 382.395 295.735 381.984C295.986 381.829 296.161 382.058 296.125 382.49C296.086 382.963 297.019 383.848 298.452 384.698L300.845 386.117L313.084 385.585C327.155 384.974 329.78 384.438 317.6 384.663C313.053 384.748 309.484 384.675 309.67 384.502C309.857 384.329 313.836 384.109 318.514 384.014C323.191 383.918 326.763 384.002 326.45 384.2C325.781 384.625 331.885 384.614 342.917 384.17C348.584 383.942 350.87 383.682 351.015 383.25C351.125 382.919 351.389 382.755 351.6 382.884C352.785 383.616 355.944 378.816 355.937 376.295C355.932 374.884 355.762 374.024 355.552 374.354C355.345 374.68 355.262 370.353 355.368 364.74C355.475 359.125 355.702 354.38 355.873 354.194C356.045 354.009 356.117 358.329 356.035 363.796C355.953 369.265 356.007 373.616 356.157 373.468C356.739 372.885 357.503 343.152 356.966 341.973C356.633 341.242 356.57 339.723 356.794 337.822L357.146 334.822L357.422 338.187C357.653 340.992 357.711 340.545 357.782 335.5C357.829 332.172 357.994 324.817 358.148 319.156C358.31 313.178 358.249 309.112 358.004 309.457C357.756 309.803 357.661 305.798 357.773 299.843C357.88 294.228 358.107 289.483 358.278 289.297C358.45 289.112 358.522 293.432 358.44 298.899C358.358 304.368 358.412 308.719 358.562 308.571C359.144 307.989 359.908 278.255 359.371 277.076C359.038 276.345 358.975 274.826 359.199 272.925L359.551 269.925L359.792 273.29C359.924 275.141 360.208 269.519 360.422 260.798C360.715 248.881 360.969 244.758 361.442 244.213C361.788 243.813 361.974 243.161 361.856 242.765C361.703 242.245 361.76 242.209 362.061 242.632C362.355 243.047 363.713 241.83 366.633 238.534C372.419 232.005 372.824 231.445 372.494 230.429C372.262 229.712 372.301 229.678 372.708 230.252C372.982 230.641 373.281 230.857 373.372 230.732C373.462 230.608 374.893 228.723 376.553 226.542C378.291 224.259 379.425 222.341 379.228 222.022C379.021 221.688 379.093 221.594 379.408 221.789C379.698 221.968 380.286 221.623 380.715 221.022C384.953 215.103 386.728 212.521 386.728 212.279C386.728 212.12 387.388 211.079 388.196 209.965C389.267 208.487 389.588 207.611 389.384 206.724C389.178 205.833 389.229 205.698 389.573 206.216C389.831 206.605 390.137 206.821 390.252 206.696C390.62 206.3 395.124 197.827 395.1 197.577C395.086 197.445 395.375 197.039 395.739 196.673C396.105 196.309 396.271 195.667 396.11 195.247C395.949 194.826 395.97 194.636 396.159 194.825C396.624 195.29 397.923 193.372 397.55 192.769C397.387 192.506 397.461 192.289 397.715 192.289C397.97 192.289 398.415 191.608 398.706 190.775C399.353 188.921 399.356 188.791 398.759 189.161C398.488 189.328 398.404 189.139 398.564 188.724C398.718 188.322 399.08 188.041 399.367 188.099C400.196 188.264 401.354 185.504 401.341 183.396C401.335 182.338 401.415 181.854 401.52 182.32C401.626 182.787 401.915 183.041 402.164 182.888C402.413 182.734 402.491 182.407 402.34 182.16C402.187 181.915 402.307 181.713 402.604 181.713C402.945 181.713 403.023 181.31 402.814 180.632C402.631 180.037 402.657 179.717 402.873 179.922C403.335 180.361 405.603 174.6 405.215 173.971C405.068 173.735 405.203 173.541 405.514 173.541C405.856 173.541 405.991 173.073 405.852 172.354C405.728 171.701 405.787 171.267 405.986 171.389C406.313 171.591 407.078 169.676 407.144 168.494C407.158 168.229 407.33 167.894 407.525 167.747C408.114 167.307 408.824 162.712 408.607 160.732C408.429 159.094 408.45 159.046 408.792 160.321L409.178 161.764L409.593 160.321C409.822 159.528 409.991 158.045 409.972 157.026C409.948 155.745 410.074 155.374 410.383 155.824C410.68 156.257 410.781 155.726 410.684 154.238C410.603 153.007 410.676 152.087 410.846 152.191C411.19 152.404 411.442 151.072 412.44 143.737C413.119 138.737 413.399 116.679 412.739 120.181L412.42 121.864L412.141 120.181C411.981 119.213 412.078 118.362 412.371 118.176C412.727 117.949 412.708 116.577 412.31 113.609C411.427 107.039 411.179 105.753 410.837 105.964C410.662 106.071 410.603 105.284 410.706 104.214C410.808 103.144 410.703 102.383 410.474 102.525C410.244 102.665 410.042 102.075 410.023 101.212C409.988 99.5515 409.2 96.696 406.835 89.6559C404.858 83.7671 404.507 83.1229 403.961 84.3788C403.642 85.1119 403.607 85.0253 403.806 84.0038C404.104 82.4739 403.192 80.4609 401.576 79.0789C400.713 78.341 400.606 78.3169 401.114 78.9719C401.478 79.4406 401.633 79.967 401.458 80.1412C401.284 80.3155 400.884 79.7783 400.57 78.9455C400.05 77.5718 397.733 75.9975 396.708 76.3219C396.51 76.3844 396.348 76.2018 396.348 75.9157C396.348 75.6285 396.08 75.4843 395.751 75.5936C395.423 75.703 394.848 75.4867 394.474 75.1129C394.021 74.6599 393.22 74.5229 392.064 74.7031C390.857 74.8906 390.626 74.8449 391.297 74.5553C392.452 74.0554 390.002 72.8187 388.784 73.2862C388.42 73.4268 388.233 73.3595 388.369 73.1384C388.58 72.7983 384.141 71.4559 382.639 71.4054C382.375 71.3958 382.05 71.2552 381.918 71.0929C381.525 70.6086 370.939 68.6365 370.428 68.9513C370.171 69.1112 369.823 69.021 369.657 68.753C369.271 68.1281 366.658 68.1125 366.445 68.7326C366.357 68.9898 365.744 69.0559 365.083 68.8792L363.88 68.5583L365.083 68.2182C365.793 68.0175 364.466 67.8589 361.836 67.8313C359.389 67.8048 357.387 67.9562 357.387 68.1678C357.387 68.3793 356.575 68.443 355.583 68.3108L353.779 68.0692L355.463 67.7495C357.535 67.3553 347.888 67.3782 341.273 67.7832ZM349.17 67.9598C348.609 68.4538 345.293 68.7638 345.583 68.2951C345.757 68.0127 346.681 67.7832 347.634 67.7832C348.589 67.7832 349.28 67.8625 349.17 67.9598ZM332.375 69.9741C330.588 70.3634 328.135 70.4307 328.349 70.0858C328.477 69.8767 329.599 69.7313 330.84 69.7613C332.081 69.7926 332.772 69.8887 332.375 69.9741ZM374.4 70.0858C374.53 70.2949 373.839 70.3911 372.865 70.2985C369.89 70.0173 369.54 69.8202 371.908 69.7613C373.149 69.7313 374.271 69.8767 374.4 70.0858ZM384.804 72.5074C384.804 72.7262 384.154 72.8091 383.361 72.6925C382.567 72.5759 381.918 72.3981 381.918 72.2959C381.918 72.1938 382.567 72.1096 383.361 72.1096C384.154 72.1096 384.804 72.2887 384.804 72.5074ZM226.602 74.4111C224.643 74.4916 222.867 74.3858 222.655 74.1755C222.442 73.964 224.045 73.8979 226.216 74.0277L230.162 74.2645L226.602 74.4111ZM250.124 74.0325C250.124 74.3101 248.6 74.5132 246.516 74.5132H242.909V77.6091C242.909 79.312 242.746 80.807 242.548 80.9296C242.35 81.0534 242.187 79.6052 242.187 77.7136V74.2729L246.035 74.0025C248.152 73.8535 249.937 73.6912 250.003 73.6419C250.07 73.5927 250.124 73.7681 250.124 74.0325ZM368.047 81.2529C380.03 82.9126 391.996 86.566 393.224 88.9396C400.138 102.302 402.173 132.969 397.568 154.401C389.231 193.209 370.648 220.141 318.185 269.452C313.423 273.927 308.12 278.912 306.401 280.53C304.681 282.147 301.759 284.85 299.907 286.536C294.444 291.513 292.44 293.34 289.603 295.931C276.29 308.087 257.584 324.617 256.836 324.883C256.466 325.017 157.787 226.745 155.919 224.382C155.34 223.65 155.85 222.905 160.488 217.698C169.185 207.932 183.308 192.185 185.432 189.886C186.531 188.696 190.317 184.586 193.848 180.752C218.493 153.983 242.482 130.083 255.896 118.93C291.853 89.0357 330.498 76.0527 368.047 81.2529ZM411.16 111.341L411.003 113.692L410.771 110.95C410.642 109.442 410.713 108.385 410.927 108.6C411.142 108.815 411.247 110.049 411.16 111.341ZM316.021 110.073C275.965 117.593 264.272 168.711 297.021 193.127C325.199 214.134 366.623 195.829 370.439 160.682C373.789 129.807 346.432 104.365 316.021 110.073ZM224.366 120.133C223.891 120.584 204.767 121.127 205.214 120.678C205.353 120.537 209.617 120.303 214.688 120.156C219.761 120.011 224.115 119.849 224.366 119.796C224.655 119.736 224.655 119.861 224.366 120.133ZM333.324 121.63C354.806 127.713 365.688 151.184 356.181 170.937C343.488 197.31 305.839 197.709 292.687 171.609C279.061 144.566 304.375 113.433 333.324 121.63ZM196.252 120.848C196.252 120.951 195.614 121.127 194.834 121.241C194.055 121.356 193.526 121.273 193.66 121.056C193.898 120.671 196.252 120.482 196.252 120.848ZM223.188 132.16C223.188 132.401 223.025 132.672 222.827 132.761C222.629 132.848 218.693 137.031 214.082 142.054C209.471 147.078 203.503 153.567 200.82 156.476C189.205 169.065 179.085 180.077 171.24 188.661C155.15 206.266 147.063 214.883 146.629 214.883C146.389 214.883 137.316 206.022 126.467 195.193L106.742 175.503L107.287 162.864C107.585 155.913 107.974 147.09 108.149 143.256L108.469 136.286L121.216 135.719C128.226 135.409 140.997 134.92 149.595 134.634C158.193 134.348 175.4 133.682 187.834 133.155C200.268 132.626 212.606 132.133 215.251 132.058C217.897 131.982 220.765 131.875 221.624 131.82C222.484 131.764 223.188 131.917 223.188 132.16ZM412.495 139.777C411.977 140.295 411.854 139.648 412.151 137.968L412.448 136.286L412.609 137.894C412.697 138.779 412.646 139.627 412.495 139.777ZM411.334 146.741C411.244 148.129 411.027 149.418 410.852 149.603C410.525 149.95 410.678 145.898 411.032 144.818C411.409 143.667 411.498 144.233 411.334 146.741ZM251.567 197.138C241.106 199.153 231.713 209.829 230.668 220.892C228.281 246.166 258.847 260.758 276.579 242.81C295.855 223.3 278.667 191.918 251.567 197.138ZM264.247 209.036C273.873 213.292 276.582 226.466 269.496 234.562C258.285 247.37 237.693 235.973 242.172 219.441C244.682 210.172 255.395 205.122 264.247 209.036ZM66.6222 218.248C66.4418 218.539 67.108 218.729 68.3057 218.729C69.5034 218.729 70.1696 218.539 69.9892 218.248C69.8257 217.984 69.0681 217.767 68.3057 217.767C67.5433 217.767 66.7857 217.984 66.6222 218.248ZM63.1542 220.69C61.0871 222.915 60.7251 223.822 60.6578 226.954L60.6097 229.171L57.761 229.43C51.3721 230.008 47.3738 235.347 50.0674 239.704C50.6181 240.594 51.1713 241.322 51.2975 241.322C51.4238 241.322 51.3949 241.109 51.2338 240.848C51.0715 240.586 51.6823 240.856 52.5902 241.449C54.3603 242.602 54.6116 243.192 52.9546 242.306C51.3432 241.444 51.8014 242.112 53.5715 243.206C54.7114 243.91 55.9957 244.207 57.9005 244.207H60.6097V246.875C60.6097 249.918 61.8386 252.969 62.6143 251.848C62.951 251.36 62.9979 251.461 62.7862 252.219C62.5577 253.032 62.8872 253.56 64.2797 254.623C69.1186 258.311 75.5147 254.093 75.5195 247.211L75.5207 244.207H78.2143C83.6905 244.207 86.2265 241.952 86.3191 237.002C86.4117 231.992 83.3574 229.305 77.5685 229.305H75.5207V226.449C75.5207 222.274 74.6344 222.335 74.4228 226.525C74.2557 229.848 74.2472 229.813 74.2533 225.839C74.2641 219.976 73.0351 218.621 68.2179 219.177C66.7148 219.351 65.5904 219.321 65.7215 219.111C66.4394 217.949 64.7174 219.009 63.1542 220.69ZM61.5825 226.78C61.3588 229.456 61.3468 229.478 61.1905 227.447C61.0498 225.602 61.2735 224.018 61.6763 224.015C61.7509 224.015 61.7088 225.259 61.5825 226.78ZM409.33 226.06C406.582 227.928 405.753 229.493 405.487 233.304L405.246 236.756L402.022 236.897C398.984 237.031 398.672 237.156 396.614 239.061L394.429 241.082L394.823 243.823C395.041 245.33 395.039 246.453 394.821 246.318C394.603 246.184 394.424 245.177 394.424 244.082C394.424 242.607 394.283 242.232 393.883 242.632C392.971 243.543 393.848 246.347 395.668 248.343C396.607 249.373 397.24 249.945 397.074 249.615C396.716 248.901 397.266 248.846 398.272 249.495C398.796 249.834 398.821 249.962 398.363 249.968C398.017 249.972 397.87 250.195 398.036 250.465C398.202 250.733 398.54 250.827 398.786 250.676C399.032 250.523 399.234 250.628 399.234 250.908C399.234 251.214 400.481 251.418 402.36 251.418H405.487V254.588C405.487 259.211 408.797 263.448 412.393 263.426C414.825 263.412 419.622 260.066 418.008 259.509C417.711 259.407 417.709 259.087 418.001 258.628C418.38 258.032 418.463 258.073 418.482 258.869C418.55 261.741 419.917 257.761 419.917 254.691V251.418H422.867C425.014 251.418 426.255 251.146 427.436 250.416C428.92 249.501 429.84 248.498 428.454 249.308C428.124 249.502 428.266 249.191 428.77 248.616C429.718 247.535 430.298 247.211 429.777 248.053C429.614 248.317 429.584 248.533 429.71 248.533C429.836 248.533 430.389 247.805 430.94 246.914C433.756 242.361 429.51 236.996 423.089 236.996H419.917V233.683C419.917 227.223 413.944 222.922 409.33 226.06ZM413.79 226.278C413.2 226.393 412.117 226.395 411.385 226.284C410.654 226.174 411.139 226.08 412.461 226.077C413.784 226.073 414.382 226.164 413.79 226.278ZM55.7997 230.69C55.7997 230.925 55.2586 231.219 54.5972 231.345C52.8307 231.683 53.759 230.783 55.6794 230.296C55.7456 230.279 55.7997 230.457 55.7997 230.69ZM182.231 266.68C201.115 285.651 223.593 308.223 232.184 316.84L247.802 332.506L243.64 335.828C241.351 337.655 237.054 341.096 234.091 343.475C227.168 349.035 224.063 351.407 223.71 351.407C223.553 351.407 202.06 330.045 175.944 303.936L128.462 256.465L137.383 244.928C142.291 238.582 146.419 233.12 146.558 232.79C147.104 231.494 148.977 233.274 182.231 266.68ZM406.445 235.193L406.442 238.198L402.477 238.229C400.139 238.247 399.005 238.119 399.715 237.917C400.376 237.727 402.054 237.551 403.443 237.525L405.968 237.477V234.833C405.968 233.379 406.076 232.189 406.208 232.189C406.341 232.189 406.448 233.541 406.445 235.193ZM86.5837 236.756C86.5837 237.793 86.7773 238.374 87.0647 238.198C87.3292 238.034 87.5457 237.385 87.5457 236.756C87.5457 236.126 87.3292 235.477 87.0647 235.314C86.7773 235.137 86.5837 235.719 86.5837 236.756ZM427.327 238.445C427.71 238.831 427.634 238.892 427.052 238.671C426.612 238.504 424.772 238.177 422.964 237.945L419.676 237.524L423.238 237.718C425.197 237.826 427.037 238.153 427.327 238.445ZM74.43 249.134C74.329 250.258 74.246 249.338 74.246 247.091C74.246 244.844 74.329 243.924 74.43 245.048C74.531 246.172 74.531 248.01 74.43 249.134ZM61.6679 247.646C61.7473 248.877 61.6498 249.783 61.4514 249.661C61.253 249.538 61.1159 248.206 61.146 246.702C61.2073 243.709 61.443 244.136 61.6679 247.646ZM407.163 258.549C407.384 259.131 407.323 259.206 406.937 258.823C406.645 258.533 406.318 256.695 406.209 254.737L406.015 251.177L406.437 254.463C406.669 256.27 406.996 258.109 407.163 258.549ZM359.762 257.362C359.305 257.782 359.24 257.707 359.48 257.026C359.652 256.542 359.822 255.785 359.857 255.344C359.893 254.903 360.02 255.054 360.138 255.679C360.257 256.305 360.088 257.062 359.762 257.362ZM347.591 260.671C347.431 262.853 347.072 271.56 346.792 280.02C346.511 288.481 345.97 302.975 345.588 312.228C345.207 321.482 344.673 335.219 344.402 342.754C344.133 350.289 343.783 359.74 343.625 363.757L343.339 371.06L340.863 371.321C336.877 371.743 316.309 372.561 309.765 372.56L303.75 372.559L284.045 352.86C272.253 341.073 264.527 332.999 264.807 332.759C284.027 316.202 319.845 283.294 339.109 264.494C348.408 255.42 347.959 255.621 347.591 260.671ZM105.583 276.896C103.444 277.44 100.95 277.44 102.216 276.896C102.745 276.669 104.044 276.493 105.102 276.505C106.941 276.528 106.962 276.545 105.583 276.896ZM93.278 277.069C92.7104 277.557 90.38 277.849 90.6602 277.396C90.8309 277.12 91.5344 276.896 92.2234 276.896C92.9137 276.896 93.3874 276.974 93.278 277.069ZM168.527 312.401L203.569 347.425L199.852 355.065C197.808 359.267 196.045 362.802 195.933 362.924C195.822 363.044 178.108 345.531 156.569 324.006C135.03 302.481 117.523 284.752 117.665 284.608C118.081 284.188 132.471 277.423 133.001 277.399C133.267 277.386 149.253 293.138 168.527 312.401ZM63.2552 278.819C63.0916 279.083 61.5092 279.262 59.7391 279.216L56.5212 279.133L59.6477 278.819C61.3673 278.645 62.9498 278.466 63.1638 278.421C63.3778 278.375 63.4187 278.554 63.2552 278.819ZM51.9817 286.149C51.7881 287.816 51.7136 287.941 51.5717 286.83C51.4154 285.601 51.6895 284.106 52.0695 284.106C52.1513 284.106 52.1116 285.026 51.9817 286.149ZM129.799 312.989C129.875 313.273 115.01 314.142 100.533 314.699C90.107 315.101 89.6453 315.346 87.2643 321.737C86.6522 323.382 85.4762 326.458 84.6513 328.573C83.8276 330.688 82.7333 333.608 82.2222 335.063C81.71 336.517 81.0762 338.139 80.8117 338.668C80.5471 339.197 79.9134 340.819 79.4012 342.273C78.8901 343.728 77.7922 346.648 76.9637 348.763C76.1352 350.878 75.0529 353.69 74.5587 355.012C74.0645 356.334 73.0303 359.038 72.2583 361.021C71.4875 363.004 69.8629 367.223 68.6484 370.395C59.0068 395.591 60.0217 394.15 60.3584 382.173C60.5099 376.753 60.9464 365.288 61.3276 356.695C61.71 348.102 62.2535 333.717 62.5361 324.727C63.2143 303.144 63.8384 291.254 64.3122 290.836C64.525 290.65 70.9752 290.218 78.6472 289.875C86.3191 289.534 95.41 289.117 98.8492 288.951L105.102 288.648L117.413 300.679C124.185 307.295 129.758 312.835 129.799 312.989ZM51.5885 302.133C51.4623 302.794 51.2759 303.335 51.1737 303.335C51.0727 303.335 50.9897 302.794 50.9897 302.133C50.9897 301.472 51.1761 300.932 51.4045 300.932C51.6318 300.932 51.7148 301.472 51.5885 302.133ZM51.0823 323.405C50.9777 329.156 50.7516 334.012 50.5796 334.198C50.2141 334.595 50.386 316.805 50.7708 314.512C51.2386 311.726 51.2759 312.787 51.0823 323.405ZM357.357 322.259C356.9 322.679 356.835 322.604 357.075 321.923C357.247 321.439 357.417 320.682 357.452 320.241C357.488 319.8 357.615 319.951 357.733 320.576C357.852 321.202 357.683 321.959 357.357 322.259ZM148.829 331.722L156.48 339.414L156.183 349.857C156.021 355.601 155.622 365.313 155.297 371.441L154.705 382.582L153.473 383.15C152.4 383.644 146.329 385.859 136.367 389.39C134.78 389.953 133.048 390.611 132.519 390.852C131.99 391.094 127.661 392.692 122.899 394.402C118.137 396.114 109.155 399.373 102.938 401.647C96.7208 403.921 87.7381 407.2 82.9762 408.936C78.2143 410.67 72.5866 412.732 70.4702 413.518C62.6143 416.434 62.5325 416.437 63.7049 413.84C64.1078 412.947 67.0647 405.296 70.2754 396.835C77.0226 379.056 89.5034 346.4 92.874 337.707C93.3862 336.385 94.6296 333.14 95.6361 330.496L97.4675 325.689L104.412 325.317C113.564 324.829 130.872 324.17 136.608 324.09L141.177 324.028L148.829 331.722ZM179.524 362.524L191.575 374.602L191.284 378.988C191.123 381.4 190.747 390.513 190.445 399.238C190.144 407.964 189.824 415.357 189.735 415.669C189.454 416.656 182.051 416.976 130.355 418.232C120.434 418.472 106.689 418.812 99.8112 418.986C91.7256 419.191 87.4747 419.139 87.7862 418.837C88.0507 418.58 91.9468 417.054 96.4442 415.443C100.942 413.834 109.708 410.647 115.925 408.361C122.142 406.075 127.769 404.023 128.431 403.802C129.092 403.579 133.529 401.961 138.291 400.203C143.053 398.448 150.507 395.723 154.856 394.151C166.211 390.046 165.233 392.184 165.938 369.915C166.443 353.927 166.674 350.446 167.231 350.446C167.364 350.446 172.896 355.88 179.524 362.524ZM49.1835 367.03C49.0573 367.691 48.8709 368.232 48.7687 368.232C48.6677 368.232 48.5847 367.691 48.5847 367.03C48.5847 366.369 48.7711 365.829 48.9995 365.829C49.2268 365.829 49.3098 366.369 49.1835 367.03ZM48.6773 388.302C48.5727 394.053 48.3466 398.909 48.1746 399.095C47.8091 399.492 47.981 381.702 48.3658 379.409C48.8336 376.623 48.8709 377.684 48.6773 388.302ZM203.948 379.048C203.948 379.709 203.761 380.25 203.533 380.25C203.306 380.25 203.223 379.709 203.349 379.048C203.475 378.387 203.662 377.846 203.764 377.846C203.865 377.846 203.948 378.387 203.948 379.048ZM337.185 383.615C337.185 383.88 336.589 384.074 335.862 384.048L334.539 384L335.742 383.615C336.403 383.404 336.998 383.209 337.064 383.182C337.131 383.156 337.185 383.351 337.185 383.615ZM241.706 395.104C240.192 395.771 238.433 397.892 238.844 398.556C239.067 398.915 239.01 399.023 238.701 398.832C237.981 398.388 237.137 401.108 237.137 403.877V406.209H233.981C231.719 406.209 230.925 406.366 231.17 406.764C231.38 407.104 231.302 407.188 230.968 406.982C230.181 406.496 228.357 407.603 228.658 408.384C228.812 408.786 228.668 408.951 228.291 408.806C227.479 408.495 226.37 409.847 226.828 410.588C227.042 410.934 226.98 411.039 226.676 410.85C225.628 410.202 225.088 413.339 225.898 415.364C227.332 418.944 229.263 420.085 233.617 419.924C236.901 419.801 237.043 419.826 234.732 420.126L232.086 420.469L234.611 420.55L237.137 420.63V422.962C237.137 425.589 237.972 428.457 238.621 428.056C238.856 427.911 238.938 428.082 238.802 428.436C238.251 429.87 241.289 431.853 244.377 432.076L247.288 432.287L249.47 430.012C250.958 428.459 251.576 427.447 251.414 426.827C251.283 426.326 251.372 426.038 251.611 426.186C251.854 426.337 252.048 425.162 252.048 423.544V420.63H254.421C257.565 420.63 261.36 419.04 260.43 418.113C260.304 417.986 260.572 417.581 261.024 417.214C261.75 416.624 261.811 416.644 261.532 417.386C261.034 418.714 261.499 418.371 262.59 416.608C265.509 411.889 261.945 406.603 255.632 406.285L252.048 406.104V403.244C252.048 401.655 251.854 400.503 251.611 400.653C251.372 400.801 251.277 400.533 251.402 400.057C252.176 397.096 245.234 393.549 241.706 395.104ZM238.587 402.963L238.354 406.449L238.2 403.619C238.065 401.135 238.259 399.481 238.684 399.478C238.759 399.478 238.716 401.046 238.587 402.963ZM202.12 415.463C202.042 419.627 201.825 423.034 201.639 423.035C201.267 423.035 201.421 409.254 201.806 408.183C202.233 406.994 202.267 407.768 202.12 415.463ZM226.795 413.374C226.795 414.406 226.633 415.15 226.434 415.028C225.792 414.631 226.077 411.497 226.756 411.497C226.777 411.497 226.795 412.342 226.795 413.374ZM257.339 419.669C257.339 419.943 256.148 420.116 254.573 420.072L251.807 419.993L254.453 419.669C255.908 419.491 257.152 419.31 257.218 419.266C257.285 419.223 257.339 419.405 257.339 419.669ZM238.684 424.552C238.759 426.047 238.658 427.171 238.459 427.047C238.261 426.924 238.131 425.159 238.171 423.125C238.245 419.29 238.45 419.856 238.684 424.552ZM160.658 429.283C160.658 429.548 159.738 429.735 158.613 429.7L156.569 429.638L158.253 429.283C159.179 429.089 160.099 428.901 160.297 428.866C160.495 428.831 160.658 429.019 160.658 429.283ZM142.62 429.785C141.105 430.218 114.384 430.661 114.8 430.245C114.933 430.113 120.596 429.889 127.388 429.748C134.179 429.607 140.708 429.465 141.899 429.431C143.862 429.376 143.93 429.408 142.62 429.785ZM72.3942 431.687C72.2306 431.951 71.4057 432.142 70.5616 432.111L69.0272 432.054L70.4702 431.687C72.5625 431.155 72.7237 431.155 72.3942 431.687ZM55.3187 432.163C54.4673 432.718 52.4327 432.807 52.4339 432.288C52.4339 432.09 53.2456 431.874 54.2376 431.81C55.5568 431.723 55.8466 431.818 55.3187 432.163Z" fill="url(#paint3_linear)"/>
</g>
<defs>
<filter id="filter0_d" x="-14" y="-8" width="513" height="399" filterUnits="userSpaceOnUse" color-interpolation-filters="sRGB">
<feFlood flood-opacity="0" result="BackgroundImageFix"/>
<feColorMatrix in="SourceAlpha" type="matrix" values="0 0 0 0 0 0 0 0 0 0 0 0 0 0 0 0 0 0 127 0"/>
<feOffset dx="2" dy="8"/>
<feGaussianBlur stdDeviation="8"/>
<feColorMatrix type="matrix" values="0 0 0 0 0 0 0 0 0 0.235294 0 0 0 0 0.290196 0 0 0 0.25 0"/>
<feBlend mode="normal" in2="BackgroundImageFix" result="effect1_dropShadow"/>
<feBlend mode="normal" in="SourceGraphic" in2="effect1_dropShadow" result="shape"/>
</filter>
<linearGradient id="paint0_linear" x1="258.851" y1="80.0454" x2="258.851" y2="362.924" gradientUnits="userSpaceOnUse">
<stop stop-color="#022F39"/>
<stop offset="1" stop-color="#016E86"/>
</linearGradient>
<linearGradient id="paint1_linear" x1="4.86103" y1="152.958" x2="430.39" y2="182.126" gradientUnits="userSpaceOnUse">
<stop offset="0.129829" stop-color="#016C83"/>
<stop offset="1" stop-color="#022F39"/>
</linearGradient>
<linearGradient id="paint2_linear" x1="125.688" y1="288.977" x2="125.688" y2="419.126" gradientUnits="userSpaceOnUse">
<stop stop-color="#026378"/>
<stop offset="1" stop-color="#02323D"/>
</linearGradient>
<linearGradient id="paint3_linear" x1="101.63" y1="470.2" x2="333.012" y2="41.163" gradientUnits="userSpaceOnUse">
<stop stop-color="#022E39"/>
<stop offset="0.546875" stop-color="#025365"/>
</linearGradient>
<clipPath id="clip0">
<rect width="481" height="367" fill="white"/>
</clipPath>
</defs>
</svg>
