<svg width="32" height="32" viewBox="0 0 32 32" fill="none" xmlns="http://www.w3.org/2000/svg">
<path d="M16.0925 9.36889C16.0925 9.46184 15.9985 9.46184 15.9985 9.46184H15.9045C15.8106 9.46184 15.8106 9.36889 15.7166 9.27594C15.7166 9.27594 15.6226 9.18299 15.6226 9.09005C15.6226 8.9971 15.6226 8.9971 15.7166 8.9971L15.9045 9.09005C15.9985 9.18299 16.0925 9.27594 16.0925 9.36889ZM14.4008 8.43941C14.4008 7.97466 14.2128 7.69582 13.9309 7.69582C13.9309 7.69582 13.9309 7.78876 13.8369 7.78876V7.97466H14.1188C14.1188 8.16056 14.2128 8.25351 14.2128 8.43941H14.4008ZM17.6903 7.97466C17.8782 7.97466 17.9722 8.16056 18.0662 8.43941H18.2542C18.1602 8.34646 18.1602 8.25351 18.1602 8.16056C18.1602 8.06761 18.1602 7.97466 18.0662 7.88171C17.9722 7.78876 17.8782 7.69582 17.7842 7.69582C17.7842 7.69582 17.6903 7.78876 17.5963 7.78876C17.5963 7.88171 17.6903 7.88171 17.6903 7.97466ZM14.8707 9.46184C14.7767 9.46184 14.7767 9.46184 14.7767 9.36889C14.7767 9.27594 14.7767 9.18299 14.8707 9.09005C15.0587 9.09005 15.1527 8.9971 15.1527 8.9971C15.2467 8.9971 15.2467 9.09005 15.2467 9.09005C15.2467 9.18299 15.1527 9.27594 14.9647 9.46184H14.8707ZM13.8369 9.36889C13.4609 9.18299 13.367 8.90415 13.367 8.43941C13.367 8.16056 13.367 7.97466 13.5549 7.78876C13.6489 7.60287 13.8369 7.50992 14.0248 7.50992C14.2128 7.50992 14.3068 7.60287 14.4948 7.78876C14.5888 8.06761 14.6827 8.34646 14.6827 8.6253V8.71825V8.8112H14.7767V8.71825C14.8707 8.71825 14.8707 8.53235 14.8707 8.16056C14.8707 7.88171 14.8707 7.60287 14.6827 7.32402C14.4948 7.04517 14.3068 6.85928 13.9309 6.85928C13.6489 6.85928 13.367 7.04517 13.273 7.32402C13.085 7.69582 13.0474 7.97466 13.0474 8.43941C13.0474 8.8112 13.179 9.18299 13.5549 9.55479C13.6489 9.46184 13.7429 9.46184 13.8369 9.36889ZM25.585 22.4747C25.679 22.4747 25.679 22.4375 25.679 22.3538C25.679 22.1493 25.585 21.9077 25.303 21.6381C25.0211 21.3593 24.5512 21.1827 23.9872 21.1083C23.8933 21.099 23.7993 21.099 23.7993 21.099C23.7053 21.0804 23.7053 21.0804 23.6113 21.0804C23.5173 21.0711 23.3294 21.0525 23.2354 21.034C23.5173 20.1695 23.6113 19.4074 23.6113 18.7381C23.6113 17.8086 23.4233 17.158 23.0474 16.6003C22.6715 16.0426 22.2955 15.7638 21.8256 15.6708C21.7316 15.7638 21.7316 15.7638 21.7316 15.8567C22.2015 16.0426 22.6715 16.4144 22.9534 16.9721C23.2354 17.6227 23.3294 18.1804 23.3294 18.8311C23.3294 19.3516 23.2354 20.1231 22.8594 21.1083C22.4835 21.257 22.1076 21.6009 21.8256 22.14C21.8256 22.2237 21.8256 22.2702 21.9196 22.2702C21.9196 22.2702 22.0136 22.1865 22.1076 22.0285C22.2955 21.8705 22.3895 21.7125 22.5775 21.5545C22.8594 21.3965 23.0474 21.3128 23.3294 21.3128C23.7993 21.3128 24.2692 21.3779 24.5512 21.508C24.9271 21.6288 25.1151 21.759 25.2091 21.9077C25.303 22.0471 25.397 22.1772 25.491 22.2981C25.491 22.4189 25.585 22.4747 25.585 22.4747V22.4747ZM16.9384 8.9971C16.8444 8.90415 16.8444 8.71825 16.8444 8.53235C16.8444 8.16056 16.8444 7.97466 17.0324 7.69582C17.2203 7.50992 17.4083 7.41697 17.5963 7.41697C17.8782 7.41697 18.0662 7.60287 18.2542 7.78876C18.3482 8.06761 18.4421 8.25351 18.4421 8.53235C18.4421 8.9971 18.2542 9.27594 17.8782 9.36889C17.8782 9.36889 17.9722 9.46184 18.0662 9.46184C18.2542 9.46184 18.3482 9.55479 18.5361 9.64774C18.6301 9.09005 18.7241 8.71825 18.7241 8.25351C18.7241 7.69582 18.6301 7.32402 18.4421 7.04517C18.1602 6.76633 17.8782 6.67338 17.5023 6.67338C17.2203 6.67338 16.9384 6.76633 16.6564 6.95223C16.4685 7.23107 16.3745 7.41697 16.3745 7.69582C16.3745 8.16056 16.4685 8.53235 16.6564 8.90415C16.7504 8.90415 16.8444 8.9971 16.9384 8.9971ZM18.0662 10.4843C16.8444 11.3208 15.9045 11.6926 15.1527 11.6926C14.4948 11.6926 13.8369 11.4138 13.273 10.949C13.367 11.1349 13.4609 11.3208 13.5549 11.4138L14.1188 11.9715C14.4948 12.3433 14.9647 12.5291 15.4346 12.5291C16.0925 12.5291 16.8444 12.1574 17.7842 11.5067L18.6301 10.949C18.8181 10.7631 19.006 10.5772 19.006 10.2984C19.006 10.2054 19.006 10.1125 18.9121 10.1125C18.8181 9.92658 18.3482 9.64774 17.4083 9.36889C16.5624 8.9971 15.9045 8.8112 15.5286 8.8112C15.2467 8.8112 14.7767 8.9971 14.1188 9.36889C13.5549 9.74069 13.179 10.1125 13.179 10.4843C13.179 10.4843 13.273 10.5772 13.367 10.7631C13.9309 11.2279 14.4948 11.5067 15.0587 11.5067C15.8106 11.5067 16.7504 11.1349 17.9722 10.2054V10.3913C18.0662 10.3913 18.0662 10.4843 18.0662 10.4843ZM20.2279 29.2599C20.6038 29.9589 21.2617 30.3102 22.0136 30.3102C22.2015 30.3102 22.3895 30.2824 22.5775 30.2266C22.7654 30.1894 22.9534 30.1243 23.0474 30.05C23.1414 29.9849 23.2354 29.9199 23.3294 29.8455C23.5173 29.7804 23.5173 29.734 23.6113 29.6875L25.2091 28.3211C25.585 28.0246 25.9609 27.7653 26.4309 27.5404C26.8068 27.3173 27.1827 27.1686 27.3707 27.0849C27.6527 27.0106 27.8406 26.899 28.0286 26.7503C28.1226 26.6109 28.2166 26.4343 28.2166 26.2112C28.2166 25.9417 28.0286 25.7372 27.8406 25.5884C27.6527 25.4397 27.4647 25.3375 27.2767 25.2724C27.0888 25.2074 26.9008 25.0586 26.6188 24.8077C26.4309 24.566 26.2429 24.2314 26.1489 23.7945L26.0549 23.2554C25.9609 23.0045 25.9609 22.8186 25.8669 22.7163C25.8669 22.6884 25.8669 22.6791 25.773 22.6791C25.679 22.6791 25.491 22.7628 25.397 22.9208C25.2091 23.0788 25.0211 23.2554 24.8331 23.4413C24.7391 23.6272 24.4572 23.7945 24.2692 23.9525C23.9872 24.1106 23.7053 24.1942 23.5173 24.1942C22.7654 24.1942 22.3895 23.9897 22.1076 23.59C21.9196 23.2926 21.8256 22.9487 21.7316 22.5583C21.5436 22.4003 21.4497 22.3167 21.2617 22.3167C20.7918 22.3167 20.6038 22.8 20.6038 23.7759V24.0827V25.1609V25.9881V26.3878V26.6667C20.6038 26.7503 20.5098 26.9362 20.5098 27.2243C20.4158 27.5125 20.4158 27.8397 20.4158 28.2096L20.2279 29.2413V29.2571V29.2599ZM6.60003 28.7654C7.47409 28.8918 8.47973 29.1623 9.61695 29.575C10.7542 29.984 11.4497 30.1978 11.7034 30.1978C12.3613 30.1978 12.9064 29.9096 13.3576 29.3529C13.4515 29.1725 13.4515 28.9606 13.4515 28.7171C13.4515 27.8387 12.9158 26.728 11.8444 25.3802L11.2053 24.5344C11.0737 24.3578 10.9139 24.0883 10.7072 23.7258C10.5098 23.3633 10.3312 23.0844 10.1903 22.8892C10.0681 22.6754 9.87071 22.4616 9.61695 22.2479C9.37259 22.0341 9.09064 21.8947 8.78049 21.8203C8.38575 21.8947 8.11319 22.0248 7.98161 22.2014C7.85003 22.378 7.77485 22.5732 7.75605 22.7777C7.72785 22.9729 7.67146 23.103 7.57748 23.1681C7.48349 23.2238 7.32372 23.2703 7.10755 23.3168C7.06056 23.3168 6.97597 23.3168 6.85379 23.3261H6.60003C6.10191 23.3261 5.76357 23.3818 5.585 23.4748C5.35004 23.7443 5.22785 24.0511 5.22785 24.3764C5.22785 24.5251 5.26545 24.7761 5.34064 25.1293C5.41582 25.4732 5.45342 25.752 5.45342 25.9472C5.45342 26.3283 5.34064 26.7094 5.10567 27.0905C4.87071 27.4902 4.74853 27.7876 4.74853 27.9995C4.84252 28.3602 5.46282 28.6139 6.60003 28.7626V28.7654ZM9.72973 20.3136C9.72973 19.6723 9.89891 18.9658 10.2467 18.1293C10.585 17.2928 10.9233 16.7351 11.2523 16.3633C11.2335 16.2703 11.1865 16.2703 11.1113 16.2703L11.0173 16.1774C10.7448 16.4562 10.4158 17.1069 10.0211 18.0364C9.62635 18.8729 9.41958 19.6444 9.41958 20.2114C9.41958 20.6296 9.52297 20.9921 9.71094 21.3082C9.9177 21.6149 10.4158 22.061 11.2053 22.628L12.2015 23.2694C13.2636 24.1803 13.8275 24.8123 13.8275 25.1841C13.8275 25.3793 13.7335 25.5745 13.4515 25.7883C13.2636 26.0114 13.0098 26.1229 12.7936 26.1229C12.7748 26.1229 12.7654 26.1415 12.7654 26.188C12.7654 26.1973 12.8594 26.3832 13.0568 26.7457C13.4515 27.2755 14.2974 27.5357 15.4252 27.5357C17.4929 27.5357 19.0906 26.6992 20.3124 25.0261C20.3124 24.5614 20.3124 24.2732 20.2185 24.1524V23.8085C20.2185 23.2043 20.3124 22.7489 20.5004 22.4514C20.6884 22.154 20.8763 22.0146 21.1583 22.0146C21.3463 22.0146 21.5342 22.0796 21.7222 22.2191C21.8162 21.5033 21.8162 20.8806 21.8162 20.3229C21.8162 19.4771 21.8162 18.78 21.6282 18.1293C21.5342 17.5716 21.3463 17.1069 21.1583 16.7351C20.9703 16.4562 20.7824 16.1774 20.5944 15.8985C20.4064 15.6197 20.3124 15.3408 20.1245 15.062C20.0305 14.6902 19.9365 14.4114 19.9365 13.9466C19.6545 13.4819 19.4666 13.0171 19.1846 12.5524C18.9966 12.0876 18.8087 11.6229 18.6207 11.2511L17.7748 11.9017C16.835 12.5524 16.0831 12.8312 15.4252 12.8312C14.8613 12.8312 14.3914 12.7383 14.1094 12.3665L13.5455 11.9017C13.5455 12.1806 13.4515 12.5524 13.2636 12.9242L12.6715 14.0396C12.4083 14.6902 12.2673 15.062 12.2391 15.3408C12.2015 15.5267 12.1733 15.7126 12.1545 15.7126L11.4497 17.1069C10.6884 18.5011 10.303 19.7931 10.303 20.862C10.303 21.0758 10.3218 21.2989 10.3594 21.5219C9.9365 21.2338 9.72973 20.8341 9.72973 20.3136V20.3136ZM16.4591 29.1066C15.2373 29.1066 14.2974 29.2701 13.6395 29.5945V29.5666C13.1696 30.1243 12.6433 30.4125 11.9102 30.4125C11.4497 30.4125 10.726 30.2359 9.74853 29.8827C8.76169 29.5481 7.88763 29.2915 7.12635 29.1224C7.05116 29.101 6.88199 29.0694 6.60943 29.0266C6.34628 28.9848 6.10191 28.942 5.88575 28.8993C5.68838 28.8575 5.46282 28.7942 5.21846 28.7087C4.98349 28.6353 4.79552 28.5396 4.65455 28.4234C4.52485 28.3063 4.46094 28.1743 4.46094 28.0265C4.46094 27.8778 4.49289 27.7188 4.5568 27.5497C4.61695 27.4474 4.68274 27.3452 4.74853 27.2522C4.81432 27.15 4.87071 27.057 4.90831 26.9641C4.9647 26.8804 5.00229 26.7968 5.03988 26.7038C5.07748 26.6202 5.11507 26.5365 5.13387 26.4343C5.15267 26.3413 5.17146 26.2484 5.17146 26.1554C5.17146 26.0625 5.13387 25.7836 5.05868 25.291C4.98349 24.8077 4.9459 24.5009 4.9459 24.3708C4.9459 23.9618 5.03988 23.6365 5.24665 23.4042C5.45342 23.1718 5.65079 23.0509 5.85755 23.0509H6.93838C7.02297 23.0509 7.15455 23.0045 7.35191 22.8929C7.4177 22.7442 7.47409 22.6234 7.51169 22.5118C7.55868 22.4003 7.57748 22.3166 7.59628 22.2795C7.61507 22.2237 7.63387 22.1679 7.65267 22.1215C7.69026 22.0564 7.73725 21.982 7.80304 21.9077C7.72785 21.8147 7.69026 21.6939 7.69026 21.5452C7.69026 21.4429 7.69026 21.35 7.70906 21.2942C7.70906 20.9596 7.86883 20.4856 8.20718 19.8628L8.53612 19.2772C8.80868 18.7753 9.01545 18.4035 9.16582 18.0317C9.3256 17.6599 9.49477 17.1022 9.68274 16.3586C9.83312 15.708 10.1903 15.0574 10.7542 14.4067L11.4591 13.5702C11.9478 13.0125 12.2673 12.5477 12.4459 12.1759C12.6245 11.8041 12.7185 11.3394 12.7185 10.9676C12.7185 10.7817 12.6715 10.224 12.5681 9.29453C12.4741 8.36505 12.4271 7.43556 12.4271 6.59902C12.4271 5.94838 12.4835 5.48364 12.6057 5.01889C12.7279 4.55415 12.944 4.08941 13.2636 3.71761C13.5455 3.34582 13.9215 2.97402 14.4854 2.78812C15.0493 2.60223 15.7072 2.50928 16.4591 2.50928C16.741 2.50928 17.023 2.50928 17.3049 2.60223C17.5869 2.60223 17.9628 2.69517 18.4327 2.88107C18.8087 3.06697 19.1846 3.25287 19.4666 3.53171C19.8425 3.81056 20.1245 4.2753 20.4064 4.74005C20.5944 5.29774 20.7824 5.85543 20.8763 6.59902C20.9703 7.06376 20.9703 7.52851 21.0643 8.17915C21.0643 8.73684 21.1583 9.10864 21.1583 9.38748C21.2523 9.66633 21.2523 10.0381 21.3463 10.5029C21.4403 10.8747 21.5342 11.2465 21.7222 11.5253C21.9102 11.8971 22.0982 12.2689 22.3801 12.6407C22.6621 13.1054 23.038 13.5702 23.4139 14.1279C24.2598 15.0574 24.9177 16.0798 25.2936 17.1022C25.7636 18.0317 26.0455 19.24 26.0455 20.532C26.0455 21.1734 25.9515 21.7961 25.7636 22.4003C25.9515 22.4003 26.0455 22.4747 26.1395 22.6048C26.2335 22.7349 26.3275 23.0138 26.4215 23.4506L26.5154 24.1384C26.6094 24.3429 26.7034 24.5381 26.9854 24.7054C27.1733 24.8727 27.3613 25.0122 27.6433 25.1237C27.8312 25.2167 28.1132 25.3468 28.3012 25.5141C28.4891 25.7 28.5831 25.8952 28.5831 26.0997C28.5831 26.4157 28.4891 26.6481 28.3012 26.8154C28.1132 27.0013 27.9252 27.1314 27.6433 27.215C27.4553 27.308 27.0794 27.4939 26.5154 27.756C26.0455 28.0311 25.5756 28.3648 25.1057 28.7599L24.1658 29.5508C23.7899 29.9133 23.4139 30.1736 23.132 30.3316C22.85 30.4989 22.4741 30.5826 22.0982 30.5826L21.4403 30.5082C20.6884 30.313 20.2185 29.9412 19.9365 29.3742C18.4327 29.1939 17.2109 29.1047 16.4591 29.1047" fill="white"/>
</svg>
