<svg width="500" height="500" viewBox="0 0 500 500" fill="none" xmlns="http://www.w3.org/2000/svg">
<path d="M220.886 467.11C332.843 467.11 423.601 456.113 423.601 442.547C423.601 428.982 332.843 417.984 220.886 417.984C108.93 417.984 18.1719 428.982 18.1719 442.547C18.1719 456.113 108.93 467.11 220.886 467.11Z" fill="#A4AFBF" fill-opacity="0.7"/>
<path d="M197.678 352.831L209.499 356.577C211.032 356.994 212.126 358.035 212.564 359.492L216.724 369.692C217.599 371.773 216.724 374.271 214.535 375.52L181.916 394.671C179.727 395.92 176.881 395.503 175.349 393.63L173.816 391.756C171.627 389.259 171.408 385.928 173.16 383.222L191.549 354.704C192.862 352.831 195.489 351.998 197.678 352.831Z" fill="#35373A"/>
<path d="M193.299 397.169L183.229 383.431L172.502 368.443C172.064 367.819 171.845 367.61 171.407 368.027L170.751 366.986L168.562 363.655C169.218 362.823 169.218 361.366 168.343 360.117L167.248 358.451C175.348 344.921 173.815 323.064 162.651 306.411C149.954 287.469 129.595 282.057 117.117 294.546C104.857 307.036 105.076 332.64 117.992 351.582C129.157 368.235 146.451 374.48 158.71 367.194L159.805 368.859C160.462 369.9 161.775 370.316 162.432 369.692L164.621 373.023L164.183 373.439C163.745 373.855 163.964 374.48 164.402 375.104L185.856 405.287C186.731 406.744 188.045 406.953 189.139 405.912L194.174 401.332C195.05 400.292 195.926 400.916 195.05 399.459L193.299 397.169Z" fill="#2D6982"/>
<path d="M168.559 363.656L162.649 369.693L162.43 369.901L164.619 373.232L170.748 366.987L168.559 363.656Z" fill="#CCCCCC"/>
<path d="M195.708 399.874L172.503 366.361C172.284 365.944 171.628 365.944 171.19 366.152L170.752 366.361L164.184 372.189L163.747 372.397C163.309 372.605 163.09 373.23 163.528 373.646L186.076 405.703C186.733 406.744 188.265 406.952 189.36 406.327L195.051 402.997C196.146 402.164 196.365 400.915 195.708 399.874Z" fill="#4D3216"/>
<path d="M191.549 402.998C190.454 403.623 188.922 403.415 188.265 402.374L165.936 370.525L163.747 372.399C163.309 372.607 163.09 373.231 163.528 373.648L186.076 405.704C186.733 406.745 188.265 406.953 189.36 406.329L195.051 402.998C195.927 402.374 196.365 401.333 195.927 400.5L191.549 402.998Z" fill="#301F0D"/>
<path d="M167.032 348.668C172.286 331.599 164.624 309.118 149.957 298.502C135.29 287.677 118.871 292.673 113.617 309.742C108.363 326.811 116.025 349.293 130.693 359.909C145.36 370.525 161.779 365.529 167.032 348.668Z" fill="#383838"/>
<path d="M164.837 347.002C169.653 331.39 162.648 310.782 149.076 300.791C135.503 290.799 120.617 295.586 115.801 310.99C110.984 326.602 117.99 347.21 131.562 357.202C145.135 367.194 160.021 362.614 164.837 347.002Z" fill="#9ED3EF"/>
<path d="M158.491 347.003C148.421 357.203 132.003 352.832 121.495 337.428C117.554 331.599 115.146 325.146 114.052 318.693C113.395 328.061 116.022 338.469 121.933 347.419C132.222 362.823 148.859 367.195 158.929 356.995C165.278 350.75 167.467 340.134 165.715 329.518C165.278 336.387 162.87 342.84 158.491 347.003Z" fill="#59BEE9"/>
<path d="M157.181 317.443C157.181 309.95 149.957 301.623 140.981 298.917C132.006 296.211 124.563 300.166 124.344 307.66C124.344 315.154 131.568 323.48 140.543 326.186C149.519 328.892 156.962 324.937 157.181 317.443Z" fill="#C2E0F2"/>
<path d="M193.52 399.459C192.863 399.875 192.206 399.667 191.987 399.25L171.628 370.733C171.409 370.316 171.409 369.9 171.847 369.484L172.066 369.275C172.504 369.067 173.161 369.067 173.379 369.484L193.739 398.001C193.957 398.626 193.957 399.25 193.52 399.459Z" fill="#A07649"/>
<path d="M160.9 380.725C160.024 379.893 160.243 378.435 161.338 377.811L172.94 372.815C175.129 371.983 177.537 372.815 178.632 374.897L187.607 391.341C188.702 393.423 187.826 395.713 185.856 396.754L179.726 399.46L160.9 380.725Z" fill="#F29111"/>
<path d="M156.306 165.487C160.465 189.634 174.257 224.396 181.481 240.633L211.91 199.625C198.337 170.483 181.481 152.998 171.411 145.296C168.565 143.214 164.625 143.839 162.435 146.545L161.122 148.002C157.4 152.998 155.211 159.242 156.306 165.487Z" fill="url(#paint0_linear_2034_9293)"/>
<path d="M192.644 167.36C167.249 155.078 161.558 176.311 161.777 188.384C155.647 166.319 152.363 162.156 160.025 149.874C166.593 139.258 172.503 145.919 174.255 147.168C176.006 148.417 186.733 159.033 192.644 167.36Z" fill="#FF9100"/>
<path fill-rule="evenodd" clip-rule="evenodd" d="M372.589 184.014C391.635 149.667 418.123 89.3011 419.437 58.9098C419.656 55.9955 417.467 53.7058 414.84 52.8731L413.964 52.665C406.083 50.3752 397.326 52.4568 391.854 58.4935C369.743 82.2237 340.409 115.946 314.358 163.614C296.626 162.157 277.799 164.031 259.192 170.067C195.925 190.467 160.023 249.792 178.85 302.457C197.677 355.121 264.227 381.558 327.274 361.158C390.321 340.758 426.442 281.433 407.615 228.768C401.048 210.45 388.57 195.254 372.589 184.014Z" fill="white"/>
<path d="M353.331 343.047L351.799 326.603C351.58 324.521 352.456 322.647 353.988 321.19L365.591 310.366C367.999 308.284 371.501 307.868 374.128 309.533L430.827 342.839C433.892 344.712 434.986 348.459 433.454 351.582L432.14 354.08C429.951 358.035 425.354 360.324 420.757 359.492L359.023 349.292C355.958 348.667 353.55 346.17 353.331 343.047Z" fill="#35373A"/>
<path d="M420.974 359.492L382.227 353.039L408.934 329.934L431.044 342.839C434.109 344.713 435.204 348.46 433.671 351.582L432.358 354.08C430.169 358.035 425.572 360.117 420.974 359.492Z" fill="#F29111"/>
<path d="M419.222 59.1176C417.909 72.2316 414.406 93.8803 401.49 124.48C401.49 124.48 399.082 93.0476 389.669 89.3008C380.256 85.762 352.016 105.537 352.016 105.537C361.648 93.2558 379.161 69.3174 393.828 56.6197C398.863 52.2483 405.65 51.2075 412.217 51.832L413.53 52.0401C417.033 52.6646 419.66 55.5789 419.222 59.1176Z" fill="#FF9100"/>
<path d="M340.847 256.245C352.887 290.175 335.374 333.889 290.497 348.252C245.619 362.615 197.239 340.55 184.98 306.411C172.721 272.273 195.926 234.18 240.803 219.609C285.68 205.038 328.588 222.315 340.847 256.245Z" fill="#35373A"/>
<path d="M419.442 58.7019C418.566 90.7585 391.858 151.749 372.594 184.014L361.867 177.145L417.69 58.2855C418.128 57.2447 419.442 57.4529 419.442 58.7019Z" fill="#E9E6E6"/>
<g opacity="0.2">
<mask id="mask0_2034_9293" style="mask-type:luminance" maskUnits="userSpaceOnUse" x="262" y="256" width="46" height="37">
<path d="M307.353 278.517C307.353 278.517 293.999 271.232 282.397 274.979C270.576 278.725 265.541 294.129 264.665 292.256C258.973 276.644 264.008 260.824 275.83 257.077C287.651 253.122 301.661 262.697 307.353 278.517Z" fill="white"/>
</mask>
<g mask="url(#mask0_2034_9293)">
<path d="M262.268 273.179C263.184 272.884 263.612 271.762 263.223 270.673C262.835 269.584 261.778 268.941 260.862 269.237C259.946 269.532 259.518 270.654 259.906 271.743C260.295 272.831 261.352 273.475 262.268 273.179Z" fill="#F29111"/>
<path d="M264.034 278.179C264.95 277.884 265.377 276.762 264.989 275.673C264.601 274.584 263.543 273.941 262.627 274.237C261.711 274.532 261.284 275.654 261.672 276.743C262.06 277.831 263.118 278.475 264.034 278.179Z" fill="#F29111"/>
<path d="M265.799 283.179C266.715 282.884 267.143 281.762 266.755 280.673C266.366 279.584 265.309 278.941 264.393 279.237C263.477 279.532 263.049 280.654 263.438 281.743C263.826 282.831 264.883 283.475 265.799 283.179Z" fill="#F29111"/>
<path d="M262.963 261.982C263.879 261.686 264.307 260.564 263.919 259.476C263.53 258.387 262.473 257.744 261.557 258.039C260.641 258.335 260.213 259.457 260.602 260.545C260.99 261.634 262.047 262.277 262.963 261.982Z" fill="#F29111"/>
<path d="M264.729 266.982C265.645 266.686 266.073 265.564 265.684 264.476C265.296 263.387 264.239 262.744 263.323 263.039C262.407 263.335 261.979 264.457 262.367 265.545C262.756 266.634 263.813 267.277 264.729 266.982Z" fill="#F29111"/>
<path d="M266.698 271.915C267.614 271.62 268.041 270.498 267.653 269.409C267.265 268.321 266.207 267.678 265.291 267.973C264.375 268.268 263.948 269.39 264.336 270.479C264.724 271.568 265.782 272.211 266.698 271.915Z" fill="#F29111"/>
<path d="M268.463 276.915C269.379 276.62 269.807 275.498 269.419 274.409C269.03 273.321 267.973 272.678 267.057 272.973C266.141 273.268 265.713 274.39 266.102 275.479C266.49 276.568 267.547 277.211 268.463 276.915Z" fill="#F29111"/>
<path d="M270.159 281.718C271.075 281.423 271.502 280.301 271.114 279.212C270.726 278.123 269.668 277.48 268.752 277.776C267.836 278.071 267.409 279.193 267.797 280.282C268.185 281.371 269.243 282.014 270.159 281.718Z" fill="#F29111"/>
<path d="M261.44 284.64C262.356 284.345 262.783 283.223 262.395 282.134C262.007 281.045 260.949 280.402 260.033 280.698C259.118 280.993 258.69 282.115 259.078 283.204C259.466 284.292 260.524 284.935 261.44 284.64Z" fill="#F29111"/>
<path d="M267.323 260.521C268.239 260.226 268.666 259.103 268.278 258.015C267.89 256.926 266.832 256.283 265.916 256.578C265 256.874 264.573 257.996 264.961 259.085C265.349 260.173 266.407 260.816 267.323 260.521Z" fill="#F29111"/>
<path d="M269.088 265.521C270.004 265.226 270.432 264.103 270.044 263.015C269.655 261.926 268.598 261.283 267.682 261.578C266.766 261.874 266.338 262.996 266.727 264.085C267.115 265.173 268.172 265.816 269.088 265.521Z" fill="#F29111"/>
<path d="M270.854 270.521C271.77 270.226 272.198 269.103 271.809 268.015C271.421 266.926 270.364 266.283 269.448 266.578C268.532 266.874 268.104 267.996 268.492 269.085C268.881 270.173 269.938 270.816 270.854 270.521Z" fill="#F29111"/>
<path d="M272.823 275.455C273.739 275.159 274.166 274.037 273.778 272.948C273.39 271.86 272.332 271.217 271.416 271.512C270.5 271.807 270.073 272.929 270.461 274.018C270.849 275.107 271.907 275.75 272.823 275.455Z" fill="#F29111"/>
<path d="M274.588 280.455C275.504 280.159 275.932 279.037 275.544 277.948C275.155 276.86 274.098 276.217 273.182 276.512C272.266 276.807 271.838 277.929 272.227 279.018C272.615 280.107 273.672 280.75 274.588 280.455Z" fill="#F29111"/>
<path d="M276.112 257.794C277.028 257.499 277.455 256.377 277.067 255.288C276.679 254.2 275.621 253.556 274.705 253.852C273.789 254.147 273.362 255.269 273.75 256.358C274.138 257.447 275.196 258.09 276.112 257.794Z" fill="#F29111"/>
<path d="M277.877 262.794C278.793 262.499 279.221 261.377 278.833 260.288C278.444 259.2 277.387 258.556 276.471 258.852C275.555 259.147 275.127 260.269 275.516 261.358C275.904 262.447 276.961 263.09 277.877 262.794Z" fill="#F29111"/>
<path d="M279.573 267.597C280.489 267.302 280.916 266.18 280.528 265.091C280.14 264.002 279.082 263.359 278.166 263.655C277.25 263.95 276.823 265.072 277.211 266.161C277.599 267.249 278.657 267.893 279.573 267.597Z" fill="#F29111"/>
<path d="M281.33 272.597C282.246 272.302 282.674 271.18 282.286 270.091C281.897 269.002 280.84 268.359 279.924 268.655C279.008 268.95 278.58 270.072 278.969 271.161C279.357 272.249 280.414 272.893 281.33 272.597Z" fill="#F29111"/>
<path d="M283.096 277.597C284.012 277.302 284.44 276.18 284.051 275.091C283.663 274.002 282.606 273.359 281.69 273.655C280.774 273.95 280.346 275.072 280.734 276.161C281.123 277.249 282.18 277.893 283.096 277.597Z" fill="#F29111"/>
<path d="M290.955 258.41C291.871 258.114 292.299 256.992 291.911 255.903C291.522 254.815 290.465 254.172 289.549 254.467C288.633 254.762 288.205 255.885 288.594 256.973C288.982 258.062 290.039 258.705 290.955 258.41Z" fill="#F29111"/>
<path d="M292.721 263.41C293.637 263.114 294.065 261.992 293.676 260.903C293.288 259.815 292.231 259.172 291.315 259.467C290.399 259.762 289.971 260.885 290.359 261.973C290.748 263.062 291.805 263.705 292.721 263.41Z" fill="#F29111"/>
<path d="M294.479 268.41C295.395 268.114 295.823 266.992 295.434 265.903C295.046 264.815 293.989 264.172 293.073 264.467C292.157 264.762 291.729 265.885 292.117 266.973C292.506 268.062 293.563 268.705 294.479 268.41Z" fill="#F29111"/>
<path d="M296.244 273.41C297.16 273.114 297.588 271.992 297.2 270.903C296.812 269.815 295.754 269.172 294.838 269.467C293.922 269.762 293.494 270.885 293.883 271.973C294.271 273.062 295.329 273.705 296.244 273.41Z" fill="#F29111"/>
<path d="M280.471 256.333C281.387 256.038 281.815 254.916 281.426 253.827C281.038 252.739 279.981 252.095 279.065 252.391C278.149 252.686 277.721 253.808 278.109 254.897C278.498 255.986 279.555 256.629 280.471 256.333Z" fill="#F29111"/>
<path d="M282.237 261.333C283.153 261.038 283.58 259.916 283.192 258.827C282.804 257.739 281.746 257.095 280.83 257.391C279.914 257.686 279.487 258.808 279.875 259.897C280.263 260.986 281.321 261.629 282.237 261.333Z" fill="#F29111"/>
<path d="M284.002 266.333C284.918 266.038 285.346 264.916 284.958 263.827C284.569 262.739 283.512 262.095 282.596 262.391C281.68 262.686 281.252 263.808 281.641 264.897C282.029 265.986 283.086 266.629 284.002 266.333Z" fill="#F29111"/>
<path d="M285.76 271.333C286.676 271.038 287.104 269.916 286.715 268.827C286.327 267.739 285.27 267.095 284.354 267.391C283.438 267.686 283.01 268.808 283.398 269.897C283.787 270.986 284.844 271.629 285.76 271.333Z" fill="#F29111"/>
<path d="M287.455 276.136C288.371 275.841 288.799 274.719 288.411 273.63C288.022 272.541 286.965 271.898 286.049 272.194C285.133 272.489 284.705 273.611 285.094 274.7C285.482 275.788 286.539 276.432 287.455 276.136Z" fill="#F29111"/>
<path d="M295.385 257.146C296.301 256.851 296.729 255.728 296.34 254.64C295.952 253.551 294.895 252.908 293.979 253.203C293.063 253.499 292.635 254.621 293.023 255.71C293.412 256.798 294.469 257.441 295.385 257.146Z" fill="#F29111"/>
<path d="M297.08 261.949C297.996 261.653 298.424 260.531 298.036 259.443C297.647 258.354 296.59 257.711 295.674 258.006C294.758 258.302 294.33 259.424 294.719 260.512C295.107 261.601 296.164 262.244 297.08 261.949Z" fill="#F29111"/>
<path d="M298.838 266.949C299.754 266.653 300.182 265.531 299.794 264.443C299.405 263.354 298.348 262.711 297.432 263.006C296.516 263.302 296.088 264.424 296.477 265.512C296.865 266.601 297.922 267.244 298.838 266.949Z" fill="#F29111"/>
<path d="M300.604 271.949C301.52 271.653 301.948 270.531 301.559 269.443C301.171 268.354 300.114 267.711 299.198 268.006C298.282 268.302 297.854 269.424 298.242 270.512C298.631 271.601 299.688 272.244 300.604 271.949Z" fill="#F29111"/>
<path d="M271.682 259.06C272.598 258.765 273.026 257.643 272.637 256.554C272.249 255.465 271.192 254.822 270.276 255.117C269.36 255.413 268.932 256.535 269.32 257.624C269.709 258.712 270.766 259.355 271.682 259.06Z" fill="#F29111"/>
<path d="M273.448 264.06C274.364 263.765 274.791 262.643 274.403 261.554C274.015 260.465 272.957 259.822 272.041 260.117C271.125 260.413 270.698 261.535 271.086 262.624C271.474 263.712 272.532 264.355 273.448 264.06Z" fill="#F29111"/>
<path d="M275.213 269.06C276.129 268.765 276.557 267.643 276.169 266.554C275.78 265.465 274.723 264.822 273.807 265.117C272.891 265.413 272.463 266.535 272.852 267.624C273.24 268.712 274.297 269.355 275.213 269.06Z" fill="#F29111"/>
<path d="M276.971 274.06C277.887 273.765 278.315 272.643 277.926 271.554C277.538 270.465 276.481 269.822 275.565 270.117C274.649 270.413 274.221 271.535 274.609 272.624C274.998 273.712 276.055 274.355 276.971 274.06Z" fill="#F29111"/>
<path d="M278.948 278.992C279.864 278.696 280.291 277.574 279.903 276.485C279.515 275.397 278.457 274.754 277.541 275.049C276.625 275.345 276.198 276.467 276.586 277.555C276.974 278.644 278.032 279.287 278.948 278.992Z" fill="#F29111"/>
<path d="M286.596 259.873C287.512 259.577 287.94 258.455 287.551 257.366C287.163 256.278 286.106 255.635 285.19 255.93C284.274 256.225 283.846 257.347 284.234 258.436C284.623 259.525 285.68 260.168 286.596 259.873Z" fill="#F29111"/>
<path d="M288.362 264.873C289.278 264.577 289.705 263.455 289.317 262.366C288.929 261.278 287.871 260.635 286.955 260.93C286.039 261.225 285.612 262.347 286 263.436C286.388 264.525 287.446 265.168 288.362 264.873Z" fill="#F29111"/>
<path d="M290.119 269.873C291.035 269.577 291.463 268.455 291.075 267.366C290.687 266.278 289.629 265.635 288.713 265.93C287.797 266.225 287.369 267.347 287.758 268.436C288.146 269.525 289.204 270.168 290.119 269.873Z" fill="#F29111"/>
<path d="M291.885 274.873C292.801 274.577 293.229 273.455 292.84 272.366C292.452 271.278 291.395 270.635 290.479 270.93C289.563 271.225 289.135 272.347 289.523 273.436C289.912 274.525 290.969 275.168 291.885 274.873Z" fill="#F29111"/>
<path d="M299.744 255.685C300.66 255.39 301.088 254.268 300.7 253.179C300.311 252.09 299.254 251.447 298.338 251.742C297.422 252.038 296.994 253.16 297.383 254.249C297.771 255.337 298.829 255.98 299.744 255.685Z" fill="#F29111"/>
<path d="M301.51 260.685C302.426 260.39 302.854 259.268 302.465 258.179C302.077 257.09 301.02 256.447 300.104 256.742C299.188 257.038 298.76 258.16 299.148 259.249C299.537 260.337 300.594 260.98 301.51 260.685Z" fill="#F29111"/>
<path d="M303.268 265.685C304.184 265.39 304.612 264.268 304.223 263.179C303.835 262.09 302.778 261.447 301.862 261.742C300.946 262.038 300.518 263.16 300.906 264.249C301.295 265.337 302.352 265.98 303.268 265.685Z" fill="#F29111"/>
<path d="M304.963 270.488C305.879 270.192 306.307 269.07 305.919 267.982C305.53 266.893 304.473 266.25 303.557 266.545C302.641 266.841 302.213 267.963 302.602 269.051C302.99 270.14 304.047 270.783 304.963 270.488Z" fill="#F29111"/>
<path d="M267.557 288.179C268.473 287.884 268.901 286.762 268.512 285.673C268.124 284.584 267.067 283.941 266.151 284.237C265.235 284.532 264.807 285.654 265.195 286.743C265.584 287.831 266.641 288.475 267.557 288.179Z" fill="#F29111"/>
<path d="M269.323 293.179C270.239 292.884 270.666 291.762 270.278 290.673C269.89 289.584 268.832 288.941 267.916 289.237C267 289.532 266.573 290.654 266.961 291.743C267.349 292.831 268.407 293.475 269.323 293.179Z" fill="#F29111"/>
<path d="M271.916 286.718C272.832 286.423 273.26 285.301 272.872 284.212C272.483 283.123 271.426 282.48 270.51 282.776C269.594 283.071 269.166 284.193 269.555 285.282C269.943 286.371 271 287.014 271.916 286.718Z" fill="#F29111"/>
<path d="M273.682 291.718C274.598 291.423 275.026 290.301 274.637 289.212C274.249 288.123 273.192 287.48 272.276 287.776C271.36 288.071 270.932 289.193 271.32 290.282C271.709 291.371 272.766 292.014 273.682 291.718Z" fill="#F29111"/>
<path d="M263.198 289.64C264.114 289.345 264.541 288.223 264.153 287.134C263.765 286.045 262.707 285.402 261.791 285.698C260.875 285.993 260.448 287.115 260.836 288.204C261.224 289.292 262.282 289.935 263.198 289.64Z" fill="#F29111"/>
<path d="M264.963 294.64C265.879 294.345 266.307 293.223 265.919 292.134C265.53 291.045 264.473 290.402 263.557 290.698C262.641 290.993 262.213 292.115 262.602 293.204C262.99 294.292 264.047 294.935 264.963 294.64Z" fill="#F29111"/>
<path d="M276.276 285.257C277.192 284.962 277.619 283.84 277.231 282.751C276.843 281.662 275.785 281.019 274.869 281.315C273.953 281.61 273.526 282.732 273.914 283.821C274.302 284.91 275.36 285.553 276.276 285.257Z" fill="#F29111"/>
<path d="M278.041 290.257C278.957 289.962 279.385 288.84 278.997 287.751C278.608 286.662 277.551 286.019 276.635 286.315C275.719 286.61 275.291 287.732 275.68 288.821C276.068 289.91 277.125 290.553 278.041 290.257Z" fill="#F29111"/>
<path d="M285.065 282.531C285.981 282.235 286.408 281.113 286.02 280.025C285.632 278.936 284.574 278.293 283.658 278.588C282.743 278.884 282.315 280.006 282.703 281.094C283.091 282.183 284.149 282.826 285.065 282.531Z" fill="#F29111"/>
<path d="M286.83 287.531C287.746 287.235 288.174 286.113 287.786 285.025C287.397 283.936 286.34 283.293 285.424 283.588C284.508 283.884 284.08 285.006 284.469 286.094C284.857 287.183 285.914 287.826 286.83 287.531Z" fill="#F29111"/>
<path d="M298.01 278.41C298.926 278.114 299.354 276.992 298.965 275.903C298.577 274.815 297.52 274.172 296.604 274.467C295.688 274.762 295.26 275.885 295.648 276.973C296.037 278.062 297.094 278.705 298.01 278.41Z" fill="#F29111"/>
<path d="M299.768 283.41C300.684 283.114 301.112 281.992 300.723 280.903C300.335 279.815 299.278 279.172 298.362 279.467C297.446 279.762 297.018 280.885 297.406 281.973C297.795 283.062 298.852 283.705 299.768 283.41Z" fill="#F29111"/>
<path d="M289.221 281.136C290.137 280.841 290.565 279.719 290.176 278.63C289.788 277.541 288.731 276.898 287.815 277.194C286.899 277.489 286.471 278.611 286.859 279.7C287.248 280.788 288.305 281.432 289.221 281.136Z" fill="#F29111"/>
<path d="M290.979 286.136C291.895 285.841 292.323 284.719 291.934 283.63C291.546 282.541 290.489 281.898 289.573 282.194C288.657 282.489 288.229 283.611 288.617 284.7C289.006 285.788 290.063 286.432 290.979 286.136Z" fill="#F29111"/>
<path d="M302.369 276.949C303.285 276.653 303.713 275.531 303.325 274.443C302.937 273.354 301.879 272.711 300.963 273.006C300.047 273.302 299.619 274.424 300.008 275.512C300.396 276.601 301.454 277.244 302.369 276.949Z" fill="#F29111"/>
<path d="M304.127 281.949C305.043 281.653 305.471 280.531 305.083 279.443C304.694 278.354 303.637 277.711 302.721 278.006C301.805 278.302 301.377 279.424 301.766 280.512C302.154 281.601 303.211 282.244 304.127 281.949Z" fill="#F29111"/>
<path d="M280.705 283.992C281.621 283.696 282.049 282.574 281.661 281.485C281.272 280.397 280.215 279.754 279.299 280.049C278.383 280.345 277.955 281.467 278.344 282.555C278.732 283.644 279.789 284.287 280.705 283.992Z" fill="#F29111"/>
<path d="M282.471 288.992C283.387 288.696 283.815 287.574 283.426 286.485C283.038 285.397 281.981 284.754 281.065 285.049C280.149 285.345 279.721 286.467 280.109 287.555C280.498 288.644 281.555 289.287 282.471 288.992Z" fill="#F29111"/>
<path d="M293.58 279.675C294.496 279.38 294.924 278.258 294.536 277.169C294.147 276.08 293.09 275.437 292.174 275.733C291.258 276.028 290.83 277.15 291.219 278.239C291.607 279.328 292.664 279.971 293.58 279.675Z" fill="#F29111"/>
<path d="M295.338 284.675C296.254 284.38 296.682 283.258 296.294 282.169C295.905 281.08 294.848 280.437 293.932 280.733C293.016 281.028 292.588 282.15 292.977 283.239C293.365 284.328 294.422 284.971 295.338 284.675Z" fill="#F29111"/>
<path d="M306.729 275.488C307.645 275.192 308.073 274.07 307.684 272.982C307.296 271.893 306.239 271.25 305.323 271.545C304.407 271.841 303.979 272.963 304.367 274.051C304.756 275.14 305.813 275.783 306.729 275.488Z" fill="#F29111"/>
<path d="M308.487 280.488C309.403 280.192 309.83 279.07 309.442 277.982C309.054 276.893 307.996 276.25 307.08 276.545C306.164 276.841 305.737 277.963 306.125 279.051C306.513 280.14 307.571 280.783 308.487 280.488Z" fill="#F29111"/>
</g>
</g>
<mask id="mask1_2034_9293" style="mask-type:luminance" maskUnits="userSpaceOnUse" x="261" y="254" width="46" height="37">
<path d="M306.697 276.436C306.697 276.436 293.343 269.15 281.741 272.897C269.919 276.644 264.884 292.048 264.009 290.174C258.317 274.562 263.352 258.742 275.173 254.995C286.995 251.249 301.005 260.824 306.697 276.436Z" fill="white"/>
</mask>
<g mask="url(#mask1_2034_9293)">
<path d="M261.432 271.353C262.348 271.058 262.776 269.936 262.387 268.847C261.999 267.758 260.942 267.115 260.026 267.41C259.11 267.706 258.682 268.828 259.07 269.917C259.459 271.005 260.516 271.648 261.432 271.353Z" fill="#F29111"/>
<path d="M263.409 276.287C264.325 275.991 264.752 274.869 264.364 273.78C263.976 272.692 262.918 272.049 262.002 272.344C261.086 272.639 260.659 273.761 261.047 274.85C261.435 275.939 262.493 276.582 263.409 276.287Z" fill="#F29111"/>
<path d="M265.166 281.287C266.082 280.991 266.51 279.869 266.122 278.78C265.733 277.692 264.676 277.049 263.76 277.344C262.844 277.639 262.416 278.761 262.805 279.85C263.193 280.939 264.25 281.582 265.166 281.287Z" fill="#F29111"/>
<path d="M262.338 260.089C263.254 259.794 263.682 258.672 263.294 257.583C262.905 256.494 261.848 255.851 260.932 256.147C260.016 256.442 259.588 257.564 259.977 258.653C260.365 259.742 261.422 260.385 262.338 260.089Z" fill="#F29111"/>
<path d="M264.034 264.892C264.95 264.597 265.377 263.475 264.989 262.386C264.601 261.297 263.543 260.654 262.627 260.949C261.711 261.245 261.284 262.367 261.672 263.456C262.06 264.544 263.118 265.187 264.034 264.892Z" fill="#F29111"/>
<path d="M265.791 269.892C266.707 269.597 267.135 268.475 266.747 267.386C266.358 266.297 265.301 265.654 264.385 265.949C263.469 266.245 263.041 267.367 263.43 268.456C263.818 269.544 264.875 270.187 265.791 269.892Z" fill="#F29111"/>
<path d="M267.557 274.892C268.473 274.597 268.901 273.475 268.512 272.386C268.124 271.297 267.067 270.654 266.151 270.949C265.235 271.245 264.807 272.367 265.195 273.456C265.584 274.544 266.641 275.187 267.557 274.892Z" fill="#F29111"/>
<path d="M269.526 279.826C270.442 279.53 270.869 278.408 270.481 277.319C270.093 276.231 269.035 275.588 268.119 275.883C267.203 276.178 266.776 277.301 267.164 278.389C267.552 279.478 268.61 280.121 269.526 279.826Z" fill="#F29111"/>
<path d="M260.737 282.55C261.653 282.255 262.08 281.133 261.692 280.044C261.304 278.955 260.246 278.312 259.33 278.608C258.414 278.903 257.987 280.025 258.375 281.114C258.763 282.203 259.821 282.846 260.737 282.55Z" fill="#F29111"/>
<path d="M266.698 258.628C267.614 258.333 268.041 257.211 267.653 256.122C267.265 255.033 266.207 254.39 265.291 254.686C264.375 254.981 263.948 256.103 264.336 257.192C264.724 258.281 265.782 258.924 266.698 258.628Z" fill="#F29111"/>
<path d="M268.463 263.628C269.379 263.333 269.807 262.211 269.419 261.122C269.03 260.033 267.973 259.39 267.057 259.686C266.141 259.981 265.713 261.103 266.102 262.192C266.49 263.281 267.547 263.924 268.463 263.628Z" fill="#F29111"/>
<path d="M270.151 268.431C271.067 268.136 271.494 267.014 271.106 265.925C270.718 264.836 269.66 264.193 268.744 264.489C267.828 264.784 267.401 265.906 267.789 266.995C268.177 268.083 269.235 268.727 270.151 268.431Z" fill="#F29111"/>
<path d="M271.916 273.431C272.832 273.136 273.26 272.014 272.872 270.925C272.483 269.836 271.426 269.193 270.51 269.489C269.594 269.784 269.166 270.906 269.555 271.995C269.943 273.083 271 273.727 271.916 273.431Z" fill="#F29111"/>
<path d="M273.682 278.431C274.598 278.136 275.026 277.014 274.637 275.925C274.249 274.836 273.192 274.193 272.276 274.489C271.36 274.784 270.932 275.906 271.32 276.995C271.709 278.083 272.766 278.727 273.682 278.431Z" fill="#F29111"/>
<path d="M275.416 255.705C276.332 255.409 276.76 254.287 276.372 253.198C275.983 252.11 274.926 251.467 274.01 251.762C273.094 252.057 272.666 253.179 273.055 254.268C273.443 255.357 274.5 256 275.416 255.705Z" fill="#F29111"/>
<path d="M277.182 260.705C278.098 260.409 278.526 259.287 278.137 258.198C277.749 257.11 276.692 256.467 275.776 256.762C274.86 257.057 274.432 258.179 274.82 259.268C275.209 260.357 276.266 261 277.182 260.705Z" fill="#F29111"/>
<path d="M278.94 265.705C279.856 265.409 280.283 264.287 279.895 263.198C279.507 262.11 278.449 261.467 277.533 261.762C276.618 262.057 276.19 263.179 276.578 264.268C276.966 265.357 278.024 266 278.94 265.705Z" fill="#F29111"/>
<path d="M280.705 270.705C281.621 270.409 282.049 269.287 281.661 268.198C281.272 267.11 280.215 266.467 279.299 266.762C278.383 267.057 277.955 268.179 278.344 269.268C278.732 270.357 279.789 271 280.705 270.705Z" fill="#F29111"/>
<path d="M282.471 275.705C283.387 275.409 283.815 274.287 283.426 273.198C283.038 272.11 281.981 271.467 281.065 271.762C280.149 272.057 279.721 273.179 280.109 274.268C280.498 275.357 281.555 276 282.471 275.705Z" fill="#F29111"/>
<path d="M290.323 256.517C291.239 256.222 291.666 255.1 291.278 254.011C290.89 252.922 289.832 252.279 288.916 252.574C288 252.87 287.573 253.992 287.961 255.081C288.349 256.169 289.407 256.812 290.323 256.517Z" fill="#F29111"/>
<path d="M292.088 261.517C293.004 261.222 293.432 260.1 293.044 259.011C292.655 257.922 291.598 257.279 290.682 257.574C289.766 257.87 289.338 258.992 289.727 260.081C290.115 261.169 291.172 261.812 292.088 261.517Z" fill="#F29111"/>
<path d="M293.854 266.517C294.77 266.222 295.198 265.1 294.809 264.011C294.421 262.922 293.363 262.279 292.448 262.574C291.532 262.87 291.104 263.992 291.492 265.081C291.881 266.169 292.938 266.812 293.854 266.517Z" fill="#F29111"/>
<path d="M295.541 271.32C296.457 271.024 296.885 269.902 296.497 268.814C296.108 267.725 295.051 267.082 294.135 267.377C293.219 267.673 292.791 268.795 293.18 269.883C293.568 270.972 294.625 271.615 295.541 271.32Z" fill="#F29111"/>
<path d="M279.846 254.441C280.762 254.145 281.19 253.023 280.801 251.935C280.413 250.846 279.356 250.203 278.44 250.498C277.524 250.794 277.096 251.916 277.484 253.004C277.873 254.093 278.93 254.736 279.846 254.441Z" fill="#F29111"/>
<path d="M281.541 259.244C282.457 258.948 282.885 257.826 282.497 256.737C282.108 255.649 281.051 255.006 280.135 255.301C279.219 255.596 278.791 256.719 279.18 257.807C279.568 258.896 280.625 259.539 281.541 259.244Z" fill="#F29111"/>
<path d="M283.299 264.244C284.215 263.948 284.643 262.826 284.254 261.737C283.866 260.649 282.809 260.006 281.893 260.301C280.977 260.596 280.549 261.719 280.938 262.807C281.326 263.896 282.383 264.539 283.299 264.244Z" fill="#F29111"/>
<path d="M285.065 269.244C285.981 268.948 286.408 267.826 286.02 266.737C285.632 265.649 284.574 265.006 283.658 265.301C282.743 265.596 282.315 266.718 282.703 267.807C283.091 268.896 284.149 269.539 285.065 269.244Z" fill="#F29111"/>
<path d="M286.83 274.244C287.746 273.948 288.174 272.826 287.786 271.737C287.397 270.649 286.34 270.006 285.424 270.301C284.508 270.596 284.08 271.719 284.469 272.807C284.857 273.896 285.914 274.539 286.83 274.244Z" fill="#F29111"/>
<path d="M294.682 255.056C295.598 254.761 296.026 253.639 295.637 252.55C295.249 251.461 294.192 250.818 293.276 251.114C292.36 251.409 291.932 252.531 292.32 253.62C292.709 254.708 293.766 255.352 294.682 255.056Z" fill="#F29111"/>
<path d="M296.448 260.056C297.364 259.761 297.791 258.639 297.403 257.55C297.015 256.461 295.957 255.818 295.041 256.114C294.125 256.409 293.698 257.531 294.086 258.62C294.474 259.708 295.532 260.352 296.448 260.056Z" fill="#F29111"/>
<path d="M298.213 265.056C299.129 264.761 299.557 263.639 299.169 262.55C298.78 261.461 297.723 260.818 296.807 261.114C295.891 261.409 295.463 262.531 295.852 263.62C296.24 264.708 297.297 265.352 298.213 265.056Z" fill="#F29111"/>
<path d="M299.971 270.056C300.887 269.761 301.315 268.639 300.926 267.55C300.538 266.461 299.481 265.818 298.565 266.114C297.649 266.409 297.221 267.531 297.609 268.62C297.998 269.708 299.055 270.352 299.971 270.056Z" fill="#F29111"/>
<path d="M271.057 257.165C271.973 256.87 272.401 255.748 272.012 254.659C271.624 253.571 270.567 252.928 269.651 253.223C268.735 253.518 268.307 254.64 268.695 255.729C269.084 256.818 270.141 257.461 271.057 257.165Z" fill="#F29111"/>
<path d="M272.823 262.165C273.739 261.87 274.166 260.748 273.778 259.659C273.39 258.571 272.332 257.928 271.416 258.223C270.5 258.518 270.073 259.64 270.461 260.729C270.849 261.818 271.907 262.461 272.823 262.165Z" fill="#F29111"/>
<path d="M274.58 267.165C275.496 266.87 275.924 265.748 275.536 264.659C275.147 263.571 274.09 262.928 273.174 263.223C272.258 263.518 271.83 264.64 272.219 265.729C272.607 266.818 273.664 267.461 274.58 267.165Z" fill="#F29111"/>
<path d="M276.346 272.165C277.262 271.87 277.69 270.748 277.301 269.659C276.913 268.571 275.856 267.928 274.94 268.223C274.024 268.518 273.596 269.64 273.984 270.729C274.373 271.818 275.43 272.461 276.346 272.165Z" fill="#F29111"/>
<path d="M278.041 276.968C278.957 276.673 279.385 275.551 278.997 274.462C278.608 273.373 277.551 272.73 276.635 273.026C275.719 273.321 275.291 274.443 275.68 275.532C276.068 276.621 277.125 277.264 278.041 276.968Z" fill="#F29111"/>
<path d="M285.971 257.978C286.887 257.683 287.315 256.561 286.926 255.472C286.538 254.383 285.481 253.74 284.565 254.035C283.649 254.331 283.221 255.453 283.609 256.542C283.998 257.63 285.055 258.273 285.971 257.978Z" fill="#F29111"/>
<path d="M287.659 262.781C288.575 262.485 289.002 261.363 288.614 260.275C288.226 259.186 287.168 258.543 286.252 258.838C285.336 259.134 284.909 260.256 285.297 261.344C285.685 262.433 286.743 263.076 287.659 262.781Z" fill="#F29111"/>
<path d="M289.424 267.783C290.34 267.487 290.768 266.365 290.379 265.277C289.991 264.188 288.934 263.545 288.018 263.84C287.102 264.136 286.674 265.258 287.063 266.346C287.451 267.435 288.508 268.078 289.424 267.783Z" fill="#F29111"/>
<path d="M291.19 272.783C292.106 272.487 292.533 271.365 292.145 270.276C291.757 269.188 290.699 268.545 289.784 268.84C288.868 269.136 288.44 270.258 288.828 271.346C289.216 272.435 290.274 273.078 291.19 272.783Z" fill="#F29111"/>
<path d="M298.838 253.662C299.754 253.366 300.182 252.244 299.794 251.155C299.405 250.067 298.348 249.424 297.432 249.719C296.516 250.014 296.088 251.136 296.477 252.225C296.865 253.314 297.922 253.957 298.838 253.662Z" fill="#F29111"/>
<path d="M300.807 258.595C301.723 258.3 302.151 257.178 301.762 256.089C301.374 255 300.317 254.357 299.401 254.653C298.485 254.948 298.057 256.07 298.445 257.159C298.834 258.247 299.891 258.891 300.807 258.595Z" fill="#F29111"/>
<path d="M302.573 263.595C303.489 263.3 303.916 262.178 303.528 261.089C303.14 260 302.082 259.357 301.166 259.653C300.25 259.948 299.823 261.07 300.211 262.159C300.599 263.247 301.657 263.891 302.573 263.595Z" fill="#F29111"/>
<path d="M304.33 268.595C305.246 268.3 305.674 267.178 305.286 266.089C304.897 265 303.84 264.357 302.924 264.653C302.008 264.948 301.58 266.07 301.969 267.159C302.357 268.247 303.414 268.891 304.33 268.595Z" fill="#F29111"/>
<path d="M266.862 286.089C267.778 285.794 268.205 284.672 267.817 283.583C267.429 282.494 266.371 281.851 265.455 282.147C264.539 282.442 264.112 283.564 264.5 284.653C264.888 285.742 265.946 286.385 266.862 286.089Z" fill="#F29111"/>
<path d="M268.627 291.089C269.543 290.794 269.971 289.672 269.583 288.583C269.194 287.494 268.137 286.851 267.221 287.147C266.305 287.442 265.877 288.564 266.266 289.653C266.654 290.742 267.711 291.385 268.627 291.089Z" fill="#F29111"/>
<path d="M271.291 284.826C272.207 284.53 272.635 283.408 272.247 282.319C271.858 281.231 270.801 280.588 269.885 280.883C268.969 281.178 268.541 282.301 268.93 283.389C269.318 284.478 270.375 285.121 271.291 284.826Z" fill="#F29111"/>
<path d="M273.057 289.826C273.973 289.53 274.401 288.408 274.012 287.319C273.624 286.231 272.567 285.588 271.651 285.883C270.735 286.178 270.307 287.301 270.695 288.389C271.084 289.478 272.141 290.121 273.057 289.826Z" fill="#F29111"/>
<path d="M262.502 287.55C263.418 287.255 263.846 286.133 263.458 285.044C263.069 283.955 262.012 283.312 261.096 283.608C260.18 283.903 259.752 285.025 260.141 286.114C260.529 287.203 261.586 287.846 262.502 287.55Z" fill="#F29111"/>
<path d="M264.268 292.55C265.184 292.255 265.612 291.133 265.223 290.044C264.835 288.955 263.778 288.312 262.862 288.608C261.946 288.903 261.518 290.025 261.906 291.114C262.295 292.203 263.352 292.846 264.268 292.55Z" fill="#F29111"/>
<path d="M275.651 283.363C276.567 283.067 276.994 281.945 276.606 280.857C276.218 279.768 275.16 279.125 274.244 279.42C273.328 279.716 272.901 280.838 273.289 281.926C273.677 283.015 274.735 283.658 275.651 283.363Z" fill="#F29111"/>
<path d="M277.409 288.365C278.325 288.069 278.752 286.947 278.364 285.859C277.976 284.77 276.918 284.127 276.002 284.422C275.086 284.718 274.659 285.84 275.047 286.928C275.435 288.017 276.493 288.66 277.409 288.365Z" fill="#F29111"/>
<path d="M284.229 280.705C285.145 280.409 285.573 279.287 285.184 278.198C284.796 277.11 283.739 276.467 282.823 276.762C281.907 277.057 281.479 278.179 281.867 279.268C282.256 280.357 283.313 281 284.229 280.705Z" fill="#F29111"/>
<path d="M285.924 285.507C286.84 285.212 287.268 284.09 286.88 283.001C286.491 281.912 285.434 281.269 284.518 281.565C283.602 281.86 283.174 282.982 283.563 284.071C283.951 285.16 285.008 285.803 285.924 285.507Z" fill="#F29111"/>
<path d="M297.307 276.32C298.223 276.024 298.651 274.902 298.262 273.814C297.874 272.725 296.817 272.082 295.901 272.377C294.985 272.673 294.557 273.795 294.945 274.883C295.334 275.972 296.391 276.615 297.307 276.32Z" fill="#F29111"/>
<path d="M299.073 281.32C299.989 281.024 300.416 279.902 300.028 278.814C299.64 277.725 298.582 277.082 297.666 277.377C296.75 277.673 296.323 278.795 296.711 279.883C297.099 280.972 298.157 281.615 299.073 281.32Z" fill="#F29111"/>
<path d="M288.588 279.244C289.504 278.948 289.932 277.826 289.544 276.737C289.155 275.649 288.098 275.006 287.182 275.301C286.266 275.596 285.838 276.719 286.227 277.807C286.615 278.896 287.672 279.539 288.588 279.244Z" fill="#F29111"/>
<path d="M290.354 284.244C291.27 283.948 291.698 282.826 291.309 281.737C290.921 280.649 289.864 280.006 288.948 280.301C288.032 280.596 287.604 281.719 287.992 282.807C288.381 283.896 289.438 284.539 290.354 284.244Z" fill="#F29111"/>
<path d="M301.737 275.056C302.653 274.761 303.08 273.639 302.692 272.55C302.304 271.461 301.246 270.818 300.33 271.114C299.414 271.409 298.987 272.531 299.375 273.62C299.763 274.708 300.821 275.352 301.737 275.056Z" fill="#F29111"/>
<path d="M303.432 279.859C304.348 279.563 304.776 278.441 304.387 277.353C303.999 276.264 302.942 275.621 302.026 275.916C301.11 276.212 300.682 277.334 301.07 278.422C301.459 279.511 302.516 280.154 303.432 279.859Z" fill="#F29111"/>
<path d="M279.799 281.97C280.715 281.675 281.143 280.553 280.755 279.464C280.366 278.375 279.309 277.732 278.393 278.028C277.477 278.323 277.049 279.445 277.438 280.534C277.826 281.622 278.883 282.266 279.799 281.97Z" fill="#F29111"/>
<path d="M281.768 286.902C282.684 286.606 283.112 285.484 282.723 284.396C282.335 283.307 281.278 282.664 280.362 282.959C279.446 283.255 279.018 284.377 279.406 285.465C279.795 286.554 280.852 287.197 281.768 286.902Z" fill="#F29111"/>
<path d="M292.948 277.781C293.864 277.485 294.291 276.363 293.903 275.275C293.515 274.186 292.457 273.543 291.541 273.838C290.625 274.134 290.198 275.256 290.586 276.344C290.974 277.433 292.032 278.076 292.948 277.781Z" fill="#F29111"/>
<path d="M294.713 282.781C295.629 282.485 296.057 281.363 295.669 280.275C295.28 279.186 294.223 278.543 293.307 278.838C292.391 279.134 291.963 280.256 292.352 281.344C292.74 282.433 293.797 283.076 294.713 282.781Z" fill="#F29111"/>
<path d="M306.096 273.595C307.012 273.3 307.44 272.178 307.051 271.089C306.663 270 305.606 269.357 304.69 269.653C303.774 269.948 303.346 271.07 303.734 272.159C304.123 273.247 305.18 273.891 306.096 273.595Z" fill="#F29111"/>
<path d="M307.862 278.593C308.778 278.298 309.205 277.176 308.817 276.087C308.429 274.998 307.371 274.355 306.455 274.651C305.539 274.946 305.112 276.068 305.5 277.157C305.888 278.246 306.946 278.889 307.862 278.593Z" fill="#F29111"/>
</g>
<g opacity="0.2">
<mask id="mask2_2034_9293" style="mask-type:luminance" maskUnits="userSpaceOnUse" x="202" y="270" width="37" height="48">
<path d="M228.941 316.615C237.757 313.772 241.283 301.317 236.817 288.797C232.351 276.277 221.584 268.432 212.768 271.275C203.952 274.119 200.425 286.573 204.891 299.094C209.357 311.614 220.124 319.459 228.941 316.615Z" fill="white"/>
</mask>
<g mask="url(#mask2_2034_9293)">
<path d="M202.564 289.25C203.251 289.029 203.493 287.967 203.105 286.878C202.717 285.789 201.845 285.086 201.158 285.308C200.471 285.529 200.229 286.592 200.617 287.68C201.006 288.769 201.877 289.472 202.564 289.25Z" fill="#F29111"/>
<path d="M204.267 293.815C204.954 293.593 205.196 292.531 204.808 291.442C204.42 290.354 203.548 289.651 202.861 289.872C202.174 290.094 201.932 291.156 202.32 292.245C202.709 293.333 203.58 294.036 204.267 293.815Z" fill="#F29111"/>
<path d="M206.041 298.578C206.728 298.357 206.97 297.295 206.582 296.206C206.193 295.117 205.321 294.414 204.635 294.636C203.948 294.857 203.705 295.92 204.094 297.008C204.482 298.097 205.354 298.8 206.041 298.578Z" fill="#F29111"/>
<path d="M207.611 303.407C208.298 303.185 208.54 302.123 208.152 301.034C207.763 299.945 206.892 299.243 206.205 299.464C205.518 299.686 205.276 300.748 205.664 301.837C206.052 302.925 206.924 303.628 207.611 303.407Z" fill="#F29111"/>
<path d="M209.314 307.971C210.001 307.75 210.243 306.687 209.855 305.599C209.467 304.51 208.595 303.807 207.908 304.029C207.221 304.25 206.979 305.312 207.367 306.401C207.756 307.49 208.627 308.193 209.314 307.971Z" fill="#F29111"/>
<path d="M211.088 312.733C211.775 312.511 212.017 311.449 211.628 310.36C211.24 309.272 210.368 308.569 209.681 308.79C208.994 309.012 208.752 310.074 209.141 311.163C209.529 312.251 210.401 312.954 211.088 312.733Z" fill="#F29111"/>
<path d="M210.885 281.317C211.572 281.095 211.814 280.033 211.425 278.944C211.037 277.856 210.165 277.153 209.478 277.374C208.791 277.596 208.549 278.658 208.938 279.747C209.326 280.835 210.198 281.538 210.885 281.317Z" fill="#F29111"/>
<path d="M212.588 285.881C213.275 285.66 213.517 284.597 213.128 283.509C212.74 282.42 211.868 281.717 211.181 281.939C210.494 282.16 210.252 283.222 210.641 284.311C211.029 285.4 211.901 286.103 212.588 285.881Z" fill="#F29111"/>
<path d="M214.15 290.709C214.837 290.488 215.079 289.426 214.691 288.337C214.303 287.248 213.431 286.545 212.744 286.767C212.057 286.988 211.815 288.051 212.203 289.139C212.591 290.228 213.463 290.931 214.15 290.709Z" fill="#F29111"/>
<path d="M215.924 295.471C216.611 295.25 216.853 294.187 216.464 293.099C216.076 292.01 215.204 291.307 214.517 291.529C213.83 291.75 213.588 292.812 213.977 293.901C214.365 294.99 215.237 295.693 215.924 295.471Z" fill="#F29111"/>
<path d="M217.627 300.037C218.314 299.816 218.556 298.754 218.167 297.665C217.779 296.576 216.907 295.873 216.22 296.095C215.533 296.316 215.291 297.379 215.68 298.467C216.068 299.556 216.94 300.259 217.627 300.037Z" fill="#F29111"/>
<path d="M219.189 304.866C219.876 304.644 220.118 303.582 219.73 302.493C219.342 301.404 218.47 300.701 217.783 300.923C217.096 301.145 216.854 302.207 217.242 303.295C217.631 304.384 218.502 305.087 219.189 304.866Z" fill="#F29111"/>
<path d="M220.892 309.43C221.579 309.208 221.821 308.146 221.433 307.058C221.045 305.969 220.173 305.266 219.486 305.488C218.799 305.709 218.557 306.771 218.945 307.86C219.334 308.949 220.205 309.652 220.892 309.43Z" fill="#F29111"/>
<path d="M220.689 278.014C221.376 277.792 221.618 276.73 221.23 275.642C220.842 274.553 219.97 273.85 219.283 274.071C218.596 274.293 218.354 275.355 218.742 276.444C219.131 277.533 220.002 278.236 220.689 278.014Z" fill="#F29111"/>
<path d="M222.463 282.776C223.15 282.554 223.392 281.492 223.003 280.403C222.615 279.315 221.743 278.612 221.056 278.833C220.369 279.055 220.127 280.117 220.516 281.206C220.904 282.294 221.776 282.997 222.463 282.776Z" fill="#F29111"/>
<path d="M224.236 287.537C224.923 287.316 225.165 286.254 224.777 285.165C224.388 284.076 223.517 283.373 222.83 283.595C222.143 283.816 221.901 284.879 222.289 285.967C222.677 287.056 223.549 287.759 224.236 287.537Z" fill="#F29111"/>
<path d="M225.736 292.17C226.423 291.949 226.665 290.887 226.277 289.798C225.889 288.709 225.017 288.006 224.33 288.228C223.643 288.449 223.401 289.511 223.789 290.6C224.177 291.689 225.049 292.392 225.736 292.17Z" fill="#F29111"/>
<path d="M227.51 296.932C228.197 296.71 228.439 295.648 228.05 294.56C227.662 293.471 226.79 292.768 226.103 292.989C225.416 293.211 225.174 294.273 225.563 295.362C225.951 296.451 226.823 297.154 227.51 296.932Z" fill="#F29111"/>
<path d="M229.213 301.496C229.9 301.275 230.142 300.213 229.753 299.124C229.365 298.035 228.493 297.332 227.806 297.554C227.119 297.775 226.877 298.838 227.266 299.926C227.654 301.015 228.526 301.718 229.213 301.496Z" fill="#F29111"/>
<path d="M230.775 306.327C231.462 306.105 231.704 305.043 231.316 303.954C230.928 302.865 230.056 302.162 229.369 302.384C228.682 302.606 228.44 303.668 228.828 304.756C229.216 305.845 230.088 306.548 230.775 306.327Z" fill="#F29111"/>
<path d="M230.783 274.842C231.47 274.621 231.712 273.558 231.324 272.47C230.935 271.381 230.064 270.678 229.377 270.9C228.69 271.121 228.448 272.183 228.836 273.272C229.224 274.361 230.096 275.064 230.783 274.842Z" fill="#F29111"/>
<path d="M232.346 279.67C233.032 279.449 233.275 278.387 232.886 277.298C232.498 276.209 231.626 275.506 230.939 275.728C230.252 275.949 230.01 277.011 230.398 278.1C230.787 279.189 231.659 279.892 232.346 279.67Z" fill="#F29111"/>
<path d="M234.049 284.237C234.736 284.015 234.978 282.953 234.589 281.864C234.201 280.776 233.329 280.073 232.642 280.294C231.955 280.516 231.713 281.578 232.102 282.667C232.49 283.755 233.362 284.458 234.049 284.237Z" fill="#F29111"/>
<path d="M235.822 288.998C236.509 288.777 236.751 287.715 236.363 286.626C235.974 285.537 235.103 284.834 234.416 285.056C233.729 285.277 233.487 286.34 233.875 287.428C234.263 288.517 235.135 289.22 235.822 288.998Z" fill="#F29111"/>
<path d="M237.322 293.629C238.009 293.408 238.251 292.346 237.863 291.257C237.474 290.168 236.603 289.465 235.916 289.687C235.229 289.908 234.987 290.97 235.375 292.059C235.763 293.148 236.635 293.851 237.322 293.629Z" fill="#F29111"/>
<path d="M239.088 298.391C239.775 298.169 240.017 297.107 239.628 296.019C239.24 294.93 238.368 294.227 237.681 294.448C236.994 294.67 236.752 295.732 237.141 296.821C237.529 297.91 238.401 298.613 239.088 298.391Z" fill="#F29111"/>
<path d="M240.861 303.153C241.548 302.931 241.79 301.869 241.402 300.78C241.014 299.692 240.142 298.989 239.455 299.21C238.768 299.432 238.526 300.494 238.914 301.583C239.302 302.671 240.174 303.374 240.861 303.153Z" fill="#F29111"/>
<path d="M204.299 283.387C204.986 283.166 205.228 282.103 204.839 281.015C204.451 279.926 203.579 279.223 202.892 279.445C202.205 279.666 201.963 280.728 202.352 281.817C202.74 282.906 203.612 283.609 204.299 283.387Z" fill="#F29111"/>
<path d="M206.064 288.149C206.751 287.927 206.993 286.865 206.605 285.776C206.217 284.688 205.345 283.985 204.658 284.206C203.971 284.428 203.729 285.49 204.117 286.579C204.506 287.667 205.377 288.37 206.064 288.149Z" fill="#F29111"/>
<path d="M207.564 292.78C208.251 292.558 208.493 291.496 208.105 290.407C207.717 289.319 206.845 288.616 206.158 288.837C205.471 289.059 205.229 290.121 205.617 291.21C206.006 292.298 206.877 293.001 207.564 292.78Z" fill="#F29111"/>
<path d="M209.338 297.541C210.025 297.32 210.267 296.258 209.878 295.169C209.49 294.08 208.618 293.377 207.931 293.599C207.244 293.82 207.002 294.883 207.391 295.971C207.779 297.06 208.651 297.763 209.338 297.541Z" fill="#F29111"/>
<path d="M211.041 302.106C211.728 301.884 211.97 300.822 211.582 299.733C211.193 298.645 210.321 297.942 209.634 298.163C208.948 298.385 208.705 299.447 209.094 300.536C209.482 301.624 210.354 302.327 211.041 302.106Z" fill="#F29111"/>
<path d="M212.603 306.936C213.29 306.714 213.532 305.652 213.144 304.563C212.756 303.475 211.884 302.772 211.197 302.993C210.51 303.215 210.268 304.277 210.656 305.366C211.045 306.455 211.916 307.157 212.603 306.936Z" fill="#F29111"/>
<path d="M214.377 311.698C215.064 311.476 215.306 310.414 214.917 309.325C214.529 308.236 213.657 307.534 212.97 307.755C212.283 307.977 212.041 309.039 212.43 310.128C212.818 311.216 213.69 311.919 214.377 311.698Z" fill="#F29111"/>
<path d="M214.174 280.282C214.861 280.06 215.103 278.998 214.714 277.909C214.326 276.82 213.454 276.118 212.767 276.339C212.08 276.561 211.838 277.623 212.227 278.712C212.615 279.8 213.487 280.503 214.174 280.282Z" fill="#F29111"/>
<path d="M215.877 284.846C216.564 284.625 216.806 283.562 216.417 282.474C216.029 281.385 215.157 280.682 214.47 280.904C213.783 281.125 213.541 282.187 213.93 283.276C214.318 284.365 215.19 285.068 215.877 284.846Z" fill="#F29111"/>
<path d="M217.65 289.608C218.337 289.386 218.579 288.324 218.191 287.235C217.803 286.147 216.931 285.444 216.244 285.665C215.557 285.887 215.315 286.949 215.703 288.038C216.091 289.126 216.963 289.829 217.65 289.608Z" fill="#F29111"/>
<path d="M219.15 294.241C219.837 294.019 220.079 292.957 219.691 291.868C219.303 290.779 218.431 290.076 217.744 290.298C217.057 290.52 216.815 291.582 217.203 292.67C217.591 293.759 218.463 294.462 219.15 294.241Z" fill="#F29111"/>
<path d="M220.924 299.002C221.611 298.781 221.853 297.719 221.464 296.63C221.076 295.541 220.204 294.838 219.517 295.06C218.83 295.281 218.588 296.344 218.977 297.432C219.365 298.521 220.237 299.224 220.924 299.002Z" fill="#F29111"/>
<path d="M222.697 303.764C223.384 303.542 223.626 302.48 223.238 301.392C222.849 300.303 221.978 299.6 221.291 299.821C220.604 300.043 220.362 301.105 220.75 302.194C221.138 303.283 222.01 303.986 222.697 303.764Z" fill="#F29111"/>
<path d="M224.189 308.395C224.876 308.173 225.118 307.111 224.73 306.022C224.342 304.934 223.47 304.231 222.783 304.452C222.096 304.674 221.854 305.736 222.242 306.825C222.631 307.913 223.502 308.616 224.189 308.395Z" fill="#F29111"/>
<path d="M224.197 276.912C224.884 276.691 225.126 275.629 224.738 274.54C224.349 273.451 223.478 272.748 222.791 272.97C222.104 273.191 221.862 274.254 222.25 275.342C222.638 276.431 223.51 277.134 224.197 276.912Z" fill="#F29111"/>
<path d="M225.76 281.741C226.447 281.519 226.689 280.457 226.3 279.368C225.912 278.279 225.04 277.576 224.353 277.798C223.666 278.02 223.424 279.082 223.813 280.17C224.201 281.259 225.073 281.962 225.76 281.741Z" fill="#F29111"/>
<path d="M227.463 286.307C228.15 286.085 228.392 285.023 228.003 283.935C227.615 282.846 226.743 282.143 226.056 282.364C225.369 282.586 225.127 283.648 225.516 284.737C225.904 285.826 226.776 286.529 227.463 286.307Z" fill="#F29111"/>
<path d="M229.236 291.069C229.923 290.847 230.165 289.785 229.777 288.696C229.388 287.608 228.517 286.905 227.83 287.126C227.143 287.348 226.901 288.41 227.289 289.499C227.677 290.587 228.549 291.29 229.236 291.069Z" fill="#F29111"/>
<path d="M230.799 295.897C231.486 295.675 231.728 294.613 231.339 293.524C230.951 292.436 230.079 291.733 229.392 291.954C228.705 292.176 228.463 293.238 228.852 294.327C229.24 295.415 230.112 296.118 230.799 295.897Z" fill="#F29111"/>
<path d="M232.502 300.461C233.189 300.24 233.431 299.178 233.042 298.089C232.654 297 231.782 296.297 231.095 296.519C230.408 296.74 230.166 297.802 230.555 298.891C230.943 299.98 231.815 300.683 232.502 300.461Z" fill="#F29111"/>
<path d="M234.275 305.223C234.962 305.001 235.204 303.939 234.816 302.851C234.428 301.762 233.556 301.059 232.869 301.28C232.182 301.502 231.94 302.564 232.328 303.653C232.716 304.742 233.588 305.445 234.275 305.223Z" fill="#F29111"/>
<path d="M207.588 282.352C208.275 282.13 208.517 281.068 208.128 279.979C207.74 278.891 206.868 278.188 206.181 278.409C205.494 278.631 205.252 279.693 205.641 280.782C206.029 281.871 206.901 282.573 207.588 282.352Z" fill="#F29111"/>
<path d="M209.291 286.916C209.978 286.695 210.22 285.633 209.832 284.544C209.443 283.455 208.571 282.752 207.885 282.974C207.198 283.195 206.955 284.258 207.344 285.346C207.732 286.435 208.604 287.138 209.291 286.916Z" fill="#F29111"/>
<path d="M210.853 291.745C211.54 291.523 211.782 290.461 211.394 289.372C211.006 288.283 210.134 287.58 209.447 287.802C208.76 288.024 208.518 289.086 208.906 290.174C209.295 291.263 210.166 291.966 210.853 291.745Z" fill="#F29111"/>
<path d="M212.627 296.506C213.314 296.285 213.556 295.222 213.167 294.134C212.779 293.045 211.907 292.342 211.22 292.564C210.533 292.785 210.291 293.847 210.68 294.936C211.068 296.025 211.94 296.728 212.627 296.506Z" fill="#F29111"/>
<path d="M214.33 301.073C215.017 300.851 215.259 299.789 214.871 298.7C214.482 297.611 213.611 296.909 212.924 297.13C212.237 297.352 211.994 298.414 212.383 299.503C212.771 300.591 213.643 301.294 214.33 301.073Z" fill="#F29111"/>
<path d="M215.9 305.901C216.587 305.679 216.829 304.617 216.441 303.528C216.053 302.44 215.181 301.737 214.494 301.958C213.807 302.18 213.565 303.242 213.953 304.331C214.341 305.419 215.213 306.122 215.9 305.901Z" fill="#F29111"/>
<path d="M217.674 310.662C218.361 310.441 218.603 309.379 218.214 308.29C217.826 307.201 216.954 306.498 216.267 306.72C215.58 306.941 215.338 308.004 215.727 309.092C216.115 310.181 216.987 310.884 217.674 310.662Z" fill="#F29111"/>
<path d="M217.4 279.049C218.087 278.828 218.329 277.765 217.941 276.677C217.553 275.588 216.681 274.885 215.994 275.107C215.307 275.328 215.065 276.39 215.453 277.479C215.841 278.568 216.713 279.271 217.4 279.049Z" fill="#F29111"/>
<path d="M219.174 283.811C219.861 283.589 220.103 282.527 219.714 281.438C219.326 280.35 218.454 279.647 217.767 279.868C217.08 280.09 216.838 281.152 217.227 282.241C217.615 283.33 218.487 284.032 219.174 283.811Z" fill="#F29111"/>
<path d="M220.947 288.573C221.634 288.351 221.876 287.289 221.488 286.2C221.099 285.111 220.228 284.409 219.541 284.63C218.854 284.852 218.612 285.914 219 287.003C219.388 288.091 220.26 288.794 220.947 288.573Z" fill="#F29111"/>
<path d="M222.439 293.205C223.126 292.984 223.368 291.922 222.98 290.833C222.592 289.744 221.72 289.041 221.033 289.263C220.346 289.484 220.104 290.547 220.492 291.635C220.881 292.724 221.752 293.427 222.439 293.205Z" fill="#F29111"/>
<path d="M224.213 297.967C224.9 297.746 225.142 296.683 224.753 295.595C224.365 294.506 223.493 293.803 222.806 294.025C222.119 294.246 221.877 295.308 222.266 296.397C222.654 297.486 223.526 298.189 224.213 297.967Z" fill="#F29111"/>
<path d="M225.986 302.729C226.673 302.507 226.915 301.445 226.527 300.356C226.138 299.268 225.267 298.565 224.58 298.786C223.893 299.008 223.651 300.07 224.039 301.159C224.427 302.247 225.299 302.95 225.986 302.729Z" fill="#F29111"/>
<path d="M227.486 307.362C228.173 307.14 228.415 306.078 228.027 304.989C227.638 303.901 226.767 303.198 226.08 303.419C225.393 303.641 225.151 304.703 225.539 305.792C225.927 306.88 226.799 307.583 227.486 307.362Z" fill="#F29111"/>
<path d="M227.486 275.877C228.173 275.656 228.415 274.594 228.027 273.505C227.638 272.416 226.767 271.713 226.08 271.935C225.393 272.156 225.151 273.219 225.539 274.307C225.927 275.396 226.799 276.099 227.486 275.877Z" fill="#F29111"/>
<path d="M229.056 280.705C229.743 280.484 229.985 279.422 229.597 278.333C229.209 277.244 228.337 276.541 227.65 276.763C226.963 276.984 226.721 278.047 227.109 279.135C227.498 280.224 228.369 280.927 229.056 280.705Z" fill="#F29111"/>
<path d="M230.76 285.272C231.447 285.05 231.689 283.988 231.3 282.899C230.912 281.811 230.04 281.108 229.353 281.329C228.666 281.551 228.424 282.613 228.813 283.702C229.201 284.79 230.073 285.493 230.76 285.272Z" fill="#F29111"/>
<path d="M232.525 290.034C233.212 289.812 233.454 288.75 233.066 287.661C232.678 286.572 231.806 285.869 231.119 286.091C230.432 286.313 230.19 287.375 230.578 288.463C230.966 289.552 231.838 290.255 232.525 290.034Z" fill="#F29111"/>
<path d="M234.095 294.862C234.782 294.64 235.025 293.578 234.636 292.489C234.248 291.401 233.376 290.698 232.689 290.919C232.002 291.141 231.76 292.203 232.148 293.292C232.537 294.38 233.409 295.083 234.095 294.862Z" fill="#F29111"/>
<path d="M235.799 299.426C236.486 299.205 236.728 298.142 236.339 297.054C235.951 295.965 235.079 295.262 234.392 295.484C233.705 295.705 233.463 296.767 233.852 297.856C234.24 298.945 235.112 299.648 235.799 299.426Z" fill="#F29111"/>
<path d="M237.572 304.19C238.259 303.968 238.501 302.906 238.113 301.817C237.724 300.729 236.853 300.026 236.166 300.247C235.479 300.469 235.237 301.531 235.625 302.62C236.013 303.708 236.885 304.411 237.572 304.19Z" fill="#F29111"/>
<path d="M209.111 276.555C209.798 276.333 210.04 275.271 209.652 274.183C209.264 273.094 208.392 272.391 207.705 272.613C207.018 272.834 206.776 273.896 207.164 274.985C207.552 276.074 208.424 276.777 209.111 276.555Z" fill="#F29111"/>
<path d="M219.197 273.383C219.884 273.162 220.126 272.099 219.738 271.011C219.349 269.922 218.478 269.219 217.791 269.441C217.104 269.662 216.862 270.724 217.25 271.813C217.638 272.902 218.51 273.605 219.197 273.383Z" fill="#F29111"/>
<path d="M202.525 278.625C203.212 278.404 203.454 277.342 203.066 276.253C202.678 275.164 201.806 274.461 201.119 274.683C200.432 274.904 200.19 275.967 200.578 277.055C200.966 278.144 201.838 278.847 202.525 278.625Z" fill="#F29111"/>
<path d="M212.611 275.452C213.298 275.23 213.54 274.168 213.152 273.079C212.764 271.99 211.892 271.287 211.205 271.509C210.518 271.731 210.276 272.793 210.664 273.881C211.052 274.97 211.924 275.673 212.611 275.452Z" fill="#F29111"/>
<path d="M222.494 272.348C223.181 272.126 223.423 271.064 223.035 269.976C222.646 268.887 221.775 268.184 221.088 268.405C220.401 268.627 220.159 269.689 220.547 270.778C220.935 271.867 221.807 272.57 222.494 272.348Z" fill="#F29111"/>
<path d="M205.814 277.59C206.501 277.369 206.743 276.306 206.355 275.218C205.967 274.129 205.095 273.426 204.408 273.648C203.721 273.869 203.479 274.931 203.867 276.02C204.256 277.109 205.127 277.812 205.814 277.59Z" fill="#F29111"/>
<path d="M215.9 274.418C216.587 274.197 216.829 273.135 216.441 272.046C216.053 270.957 215.181 270.254 214.494 270.476C213.807 270.697 213.565 271.76 213.953 272.848C214.341 273.937 215.213 274.64 215.9 274.418Z" fill="#F29111"/>
<path d="M225.713 271.116C226.4 270.894 226.642 269.832 226.253 268.743C225.865 267.654 224.993 266.951 224.306 267.173C223.619 267.395 223.377 268.457 223.766 269.545C224.154 270.634 225.026 271.337 225.713 271.116Z" fill="#F29111"/>
<path d="M212.58 317.366C213.267 317.144 213.509 316.082 213.121 314.993C212.732 313.904 211.861 313.201 211.174 313.423C210.487 313.645 210.244 314.707 210.633 315.795C211.021 316.884 211.893 317.587 212.58 317.366Z" fill="#F29111"/>
<path d="M222.666 314.192C223.353 313.97 223.595 312.908 223.207 311.819C222.818 310.731 221.946 310.028 221.259 310.249C220.573 310.471 220.33 311.533 220.719 312.622C221.107 313.71 221.979 314.413 222.666 314.192Z" fill="#F29111"/>
<path d="M224.236 319.022C224.923 318.8 225.165 317.738 224.777 316.649C224.388 315.561 223.517 314.858 222.83 315.079C222.143 315.301 221.901 316.363 222.289 317.452C222.677 318.54 223.549 319.243 224.236 319.022Z" fill="#F29111"/>
<path d="M232.549 311.088C233.236 310.867 233.478 309.805 233.089 308.716C232.701 307.627 231.829 306.924 231.142 307.146C230.455 307.367 230.213 308.429 230.602 309.518C230.99 310.607 231.862 311.31 232.549 311.088Z" fill="#F29111"/>
<path d="M234.252 315.653C234.939 315.431 235.181 314.369 234.792 313.28C234.404 312.192 233.532 311.489 232.845 311.71C232.158 311.932 231.916 312.994 232.305 314.083C232.693 315.171 233.565 315.874 234.252 315.653Z" fill="#F29111"/>
<path d="M216.08 316.262C216.767 316.041 217.009 314.978 216.621 313.89C216.232 312.801 215.361 312.098 214.674 312.32C213.987 312.541 213.744 313.603 214.133 314.692C214.521 315.781 215.393 316.484 216.08 316.262Z" fill="#F29111"/>
<path d="M217.65 321.092C218.337 320.871 218.579 319.808 218.191 318.72C217.803 317.631 216.931 316.928 216.244 317.15C215.557 317.371 215.315 318.433 215.703 319.522C216.091 320.611 216.963 321.314 217.65 321.092Z" fill="#F29111"/>
<path d="M225.963 313.159C226.65 312.937 226.892 311.875 226.503 310.786C226.115 309.697 225.243 308.994 224.556 309.216C223.869 309.438 223.627 310.5 224.016 311.588C224.404 312.677 225.276 313.38 225.963 313.159Z" fill="#F29111"/>
<path d="M227.736 317.92C228.423 317.699 228.665 316.637 228.277 315.548C227.889 314.459 227.017 313.756 226.33 313.978C225.643 314.199 225.401 315.261 225.789 316.35C226.177 317.439 227.049 318.142 227.736 317.92Z" fill="#F29111"/>
<path d="M235.845 310.053C236.532 309.832 236.775 308.769 236.386 307.681C235.998 306.592 235.126 305.889 234.439 306.111C233.752 306.332 233.51 307.394 233.898 308.483C234.287 309.572 235.159 310.275 235.845 310.053Z" fill="#F29111"/>
<path d="M237.549 314.618C238.236 314.396 238.478 313.334 238.089 312.245C237.701 311.156 236.829 310.453 236.142 310.675C235.455 310.897 235.213 311.959 235.602 313.047C235.99 314.136 236.862 314.839 237.549 314.618Z" fill="#F29111"/>
<path d="M219.377 315.227C220.064 315.005 220.306 313.943 219.917 312.854C219.529 311.766 218.657 311.063 217.97 311.284C217.283 311.506 217.041 312.568 217.43 313.657C217.818 314.746 218.69 315.448 219.377 315.227Z" fill="#F29111"/>
<path d="M220.939 320.057C221.626 319.835 221.868 318.773 221.48 317.685C221.092 316.596 220.22 315.893 219.533 316.114C218.846 316.336 218.604 317.398 218.992 318.487C219.381 319.576 220.252 320.279 220.939 320.057Z" fill="#F29111"/>
<path d="M229.26 312.123C229.947 311.902 230.189 310.84 229.8 309.751C229.412 308.662 228.54 307.959 227.853 308.181C227.166 308.402 226.924 309.465 227.313 310.553C227.701 311.642 228.573 312.345 229.26 312.123Z" fill="#F29111"/>
<path d="M231.025 316.885C231.712 316.664 231.954 315.601 231.566 314.513C231.178 313.424 230.306 312.721 229.619 312.943C228.932 313.164 228.69 314.226 229.078 315.315C229.466 316.404 230.338 317.107 231.025 316.885Z" fill="#F29111"/>
<path d="M239.064 308.821C239.751 308.599 239.993 307.537 239.605 306.448C239.217 305.36 238.345 304.657 237.658 304.878C236.971 305.1 236.729 306.162 237.117 307.251C237.506 308.339 238.377 309.042 239.064 308.821Z" fill="#F29111"/>
<path d="M240.838 313.582C241.525 313.361 241.767 312.299 241.378 311.21C240.99 310.121 240.118 309.418 239.431 309.64C238.744 309.861 238.502 310.924 238.891 312.012C239.279 313.101 240.151 313.804 240.838 313.582Z" fill="#F29111"/>
</g>
</g>
<mask id="mask3_2034_9293" style="mask-type:luminance" maskUnits="userSpaceOnUse" x="202" y="268" width="37" height="48">
<path d="M228.316 314.723C237.132 311.879 240.658 299.425 236.192 286.904C231.726 274.384 220.959 266.54 212.143 269.383C203.327 272.226 199.8 284.681 204.266 297.201C208.732 309.721 219.499 317.566 228.316 314.723Z" fill="white"/>
</mask>
<g mask="url(#mask3_2034_9293)">
<path d="M201.869 287.161C202.556 286.939 202.798 285.877 202.41 284.788C202.021 283.699 201.15 282.996 200.463 283.218C199.776 283.44 199.534 284.502 199.922 285.59C200.31 286.679 201.182 287.382 201.869 287.161Z" fill="#F29111"/>
<path d="M203.642 291.922C204.329 291.701 204.571 290.639 204.183 289.55C203.795 288.461 202.923 287.758 202.236 287.98C201.549 288.201 201.307 289.263 201.695 290.352C202.084 291.441 202.955 292.144 203.642 291.922Z" fill="#F29111"/>
<path d="M205.345 296.489C206.032 296.267 206.275 295.205 205.886 294.116C205.498 293.028 204.626 292.325 203.939 292.546C203.252 292.768 203.01 293.83 203.398 294.919C203.787 296.007 204.659 296.71 205.345 296.489Z" fill="#F29111"/>
<path d="M206.916 301.317C207.603 301.095 207.845 300.033 207.457 298.944C207.068 297.856 206.196 297.153 205.509 297.374C204.823 297.596 204.58 298.658 204.969 299.747C205.357 300.835 206.229 301.538 206.916 301.317Z" fill="#F29111"/>
<path d="M208.689 306.078C209.376 305.857 209.618 304.795 209.23 303.706C208.842 302.617 207.97 301.914 207.283 302.136C206.596 302.358 206.354 303.42 206.742 304.508C207.131 305.597 208.002 306.3 208.689 306.078Z" fill="#F29111"/>
<path d="M210.392 310.643C211.079 310.421 211.321 309.359 210.933 308.271C210.545 307.182 209.673 306.479 208.986 306.7C208.299 306.922 208.057 307.984 208.445 309.073C208.834 310.162 209.705 310.864 210.392 310.643Z" fill="#F29111"/>
<path d="M210.189 279.227C210.876 279.005 211.118 277.943 210.73 276.854C210.342 275.766 209.47 275.063 208.783 275.284C208.096 275.506 207.854 276.568 208.242 277.657C208.631 278.746 209.502 279.448 210.189 279.227Z" fill="#F29111"/>
<path d="M211.963 283.989C212.65 283.767 212.892 282.705 212.503 281.616C212.115 280.528 211.243 279.825 210.556 280.046C209.869 280.268 209.627 281.33 210.016 282.419C210.404 283.507 211.276 284.21 211.963 283.989Z" fill="#F29111"/>
<path d="M213.455 288.62C214.142 288.398 214.384 287.336 213.996 286.247C213.607 285.158 212.736 284.455 212.049 284.677C211.362 284.899 211.119 285.961 211.508 287.049C211.896 288.138 212.768 288.841 213.455 288.62Z" fill="#F29111"/>
<path d="M215.228 293.383C215.915 293.162 216.157 292.099 215.769 291.011C215.381 289.922 214.509 289.219 213.822 289.441C213.135 289.662 212.893 290.724 213.281 291.813C213.67 292.902 214.541 293.605 215.228 293.383Z" fill="#F29111"/>
<path d="M217.002 298.145C217.689 297.923 217.931 296.861 217.542 295.772C217.154 294.684 216.282 293.981 215.595 294.202C214.908 294.424 214.666 295.486 215.055 296.575C215.443 297.663 216.315 298.366 217.002 298.145Z" fill="#F29111"/>
<path d="M218.494 302.776C219.181 302.554 219.423 301.492 219.035 300.403C218.646 299.315 217.775 298.612 217.088 298.833C216.401 299.055 216.159 300.117 216.547 301.206C216.935 302.294 217.807 302.997 218.494 302.776Z" fill="#F29111"/>
<path d="M220.267 307.537C220.954 307.316 221.196 306.254 220.808 305.165C220.42 304.076 219.548 303.373 218.861 303.595C218.174 303.816 217.932 304.879 218.32 305.967C218.709 307.056 219.58 307.759 220.267 307.537Z" fill="#F29111"/>
<path d="M220.064 276.121C220.751 275.9 220.993 274.838 220.605 273.749C220.217 272.66 219.345 271.957 218.658 272.179C217.971 272.4 217.729 273.463 218.117 274.551C218.506 275.64 219.377 276.343 220.064 276.121Z" fill="#F29111"/>
<path d="M221.767 280.686C222.454 280.464 222.696 279.402 222.308 278.313C221.92 277.225 221.048 276.522 220.361 276.743C219.674 276.965 219.432 278.027 219.82 279.116C220.209 280.205 221.08 280.907 221.767 280.686Z" fill="#F29111"/>
<path d="M223.541 285.448C224.228 285.226 224.47 284.164 224.082 283.075C223.693 281.986 222.821 281.284 222.135 281.505C221.448 281.727 221.205 282.789 221.594 283.878C221.982 284.966 222.854 285.669 223.541 285.448Z" fill="#F29111"/>
<path d="M225.111 290.278C225.798 290.056 226.04 288.994 225.652 287.905C225.263 286.817 224.392 286.114 223.705 286.335C223.018 286.557 222.776 287.619 223.164 288.708C223.552 289.796 224.424 290.499 225.111 290.278Z" fill="#F29111"/>
<path d="M226.814 294.842C227.501 294.621 227.743 293.558 227.355 292.47C226.967 291.381 226.095 290.678 225.408 290.9C224.721 291.121 224.479 292.183 224.867 293.272C225.256 294.361 226.127 295.064 226.814 294.842Z" fill="#F29111"/>
<path d="M228.588 299.604C229.275 299.382 229.517 298.32 229.128 297.231C228.74 296.143 227.868 295.44 227.181 295.661C226.494 295.883 226.252 296.945 226.641 298.034C227.029 299.122 227.901 299.825 228.588 299.604Z" fill="#F29111"/>
<path d="M230.15 304.434C230.837 304.212 231.079 303.15 230.691 302.062C230.303 300.973 229.431 300.27 228.744 300.491C228.057 300.713 227.815 301.775 228.203 302.864C228.591 303.953 229.463 304.656 230.15 304.434Z" fill="#F29111"/>
<path d="M229.877 272.819C230.564 272.597 230.806 271.535 230.417 270.446C230.029 269.358 229.157 268.655 228.47 268.876C227.783 269.098 227.541 270.16 227.93 271.249C228.318 272.337 229.19 273.04 229.877 272.819Z" fill="#F29111"/>
<path d="M231.65 277.58C232.337 277.359 232.579 276.297 232.191 275.208C231.803 274.119 230.931 273.416 230.244 273.638C229.557 273.859 229.315 274.922 229.703 276.01C230.091 277.099 230.963 277.802 231.65 277.58Z" fill="#F29111"/>
<path d="M233.424 282.344C234.111 282.123 234.353 281.06 233.964 279.972C233.576 278.883 232.704 278.18 232.017 278.402C231.33 278.623 231.088 279.685 231.477 280.774C231.865 281.863 232.737 282.566 233.424 282.344Z" fill="#F29111"/>
<path d="M235.127 286.909C235.814 286.687 236.056 285.625 235.667 284.536C235.279 283.447 234.407 282.744 233.72 282.966C233.033 283.188 232.791 284.25 233.18 285.338C233.568 286.427 234.44 287.13 235.127 286.909Z" fill="#F29111"/>
<path d="M236.689 291.737C237.376 291.515 237.618 290.453 237.23 289.364C236.842 288.276 235.97 287.573 235.283 287.794C234.596 288.016 234.354 289.078 234.742 290.167C235.131 291.255 236.002 291.958 236.689 291.737Z" fill="#F29111"/>
<path d="M238.463 296.498C239.15 296.277 239.392 295.215 239.003 294.126C238.615 293.037 237.743 292.334 237.056 292.556C236.369 292.777 236.127 293.84 236.516 294.928C236.904 296.017 237.776 296.72 238.463 296.498Z" fill="#F29111"/>
<path d="M240.166 301.065C240.853 300.843 241.095 299.781 240.707 298.692C240.318 297.604 239.446 296.901 238.759 297.122C238.073 297.344 237.83 298.406 238.219 299.495C238.607 300.583 239.479 301.286 240.166 301.065Z" fill="#F29111"/>
<path d="M203.603 281.297C204.29 281.076 204.532 280.014 204.144 278.925C203.756 277.836 202.884 277.133 202.197 277.355C201.51 277.576 201.268 278.638 201.656 279.727C202.045 280.816 202.916 281.519 203.603 281.297Z" fill="#F29111"/>
<path d="M205.166 286.125C205.853 285.904 206.095 284.842 205.707 283.753C205.318 282.664 204.446 281.961 203.759 282.183C203.073 282.404 202.83 283.467 203.219 284.555C203.607 285.644 204.479 286.347 205.166 286.125Z" fill="#F29111"/>
<path d="M206.939 290.887C207.626 290.666 207.868 289.603 207.48 288.515C207.092 287.426 206.22 286.723 205.533 286.945C204.846 287.166 204.604 288.228 204.992 289.317C205.381 290.406 206.252 291.109 206.939 290.887Z" fill="#F29111"/>
<path d="M208.642 295.452C209.329 295.23 209.571 294.168 209.183 293.079C208.795 291.99 207.923 291.287 207.236 291.509C206.549 291.731 206.307 292.793 206.695 293.881C207.084 294.97 207.955 295.673 208.642 295.452Z" fill="#F29111"/>
<path d="M210.205 300.282C210.892 300.06 211.134 298.998 210.746 297.909C210.357 296.82 209.486 296.118 208.799 296.339C208.112 296.561 207.869 297.623 208.258 298.712C208.646 299.8 209.518 300.503 210.205 300.282Z" fill="#F29111"/>
<path d="M211.978 305.043C212.665 304.822 212.907 303.76 212.519 302.671C212.131 301.582 211.259 300.879 210.572 301.101C209.885 301.322 209.643 302.385 210.031 303.473C210.42 304.562 211.291 305.265 211.978 305.043Z" fill="#F29111"/>
<path d="M213.681 309.608C214.368 309.386 214.61 308.324 214.222 307.235C213.834 306.147 212.962 305.444 212.275 305.665C211.588 305.887 211.346 306.949 211.734 308.038C212.123 309.126 212.994 309.829 213.681 309.608Z" fill="#F29111"/>
<path d="M213.478 278.192C214.165 277.97 214.407 276.908 214.019 275.819C213.631 274.731 212.759 274.028 212.072 274.249C211.385 274.471 211.143 275.533 211.531 276.622C211.92 277.71 212.791 278.413 213.478 278.192Z" fill="#F29111"/>
<path d="M215.252 282.953C215.939 282.732 216.181 281.67 215.792 280.581C215.404 279.492 214.532 278.789 213.845 279.011C213.158 279.233 212.916 280.295 213.305 281.383C213.693 282.472 214.565 283.175 215.252 282.953Z" fill="#F29111"/>
<path d="M216.752 287.586C217.439 287.365 217.681 286.303 217.292 285.214C216.904 284.125 216.032 283.422 215.345 283.644C214.658 283.865 214.416 284.927 214.805 286.016C215.193 287.105 216.065 287.808 216.752 287.586Z" fill="#F29111"/>
<path d="M218.525 292.348C219.212 292.126 219.454 291.064 219.066 289.976C218.678 288.887 217.806 288.184 217.119 288.405C216.432 288.627 216.19 289.689 216.578 290.778C216.966 291.867 217.838 292.57 218.525 292.348Z" fill="#F29111"/>
<path d="M220.299 297.11C220.986 296.888 221.228 295.826 220.839 294.737C220.451 293.649 219.579 292.946 218.892 293.167C218.205 293.389 217.963 294.451 218.352 295.54C218.74 296.628 219.612 297.331 220.299 297.11Z" fill="#F29111"/>
<path d="M221.791 301.741C222.478 301.519 222.72 300.457 222.332 299.368C221.943 298.279 221.071 297.576 220.384 297.798C219.698 298.02 219.455 299.082 219.844 300.17C220.232 301.259 221.104 301.962 221.791 301.741Z" fill="#F29111"/>
<path d="M223.564 306.504C224.251 306.283 224.493 305.221 224.105 304.132C223.717 303.043 222.845 302.34 222.158 302.562C221.471 302.783 221.229 303.845 221.617 304.934C222.006 306.023 222.877 306.726 223.564 306.504Z" fill="#F29111"/>
<path d="M223.361 275.086C224.048 274.865 224.29 273.803 223.902 272.714C223.514 271.625 222.642 270.922 221.955 271.144C221.268 271.365 221.026 272.427 221.414 273.516C221.802 274.605 222.674 275.308 223.361 275.086Z" fill="#F29111"/>
<path d="M225.064 279.651C225.751 279.429 225.993 278.367 225.605 277.278C225.217 276.19 224.345 275.487 223.658 275.708C222.971 275.93 222.729 276.992 223.117 278.081C223.506 279.169 224.377 279.872 225.064 279.651Z" fill="#F29111"/>
<path d="M226.838 284.414C227.525 284.193 227.767 283.131 227.378 282.042C226.99 280.953 226.118 280.25 225.431 280.472C224.744 280.693 224.502 281.756 224.891 282.844C225.279 283.933 226.151 284.636 226.838 284.414Z" fill="#F29111"/>
<path d="M228.4 289.243C229.087 289.021 229.329 287.959 228.941 286.87C228.553 285.781 227.681 285.078 226.994 285.3C226.307 285.522 226.065 286.584 226.453 287.672C226.841 288.761 227.713 289.464 228.4 289.243Z" fill="#F29111"/>
<path d="M230.103 293.807C230.79 293.585 231.032 292.523 230.644 291.435C230.256 290.346 229.384 289.643 228.697 289.864C228.01 290.086 227.768 291.148 228.156 292.237C228.545 293.326 229.416 294.029 230.103 293.807Z" fill="#F29111"/>
<path d="M231.877 298.569C232.564 298.347 232.806 297.285 232.417 296.196C232.029 295.108 231.157 294.405 230.47 294.626C229.783 294.848 229.541 295.91 229.93 296.999C230.318 298.087 231.19 298.79 231.877 298.569Z" fill="#F29111"/>
<path d="M233.447 303.399C234.134 303.177 234.376 302.115 233.988 301.026C233.599 299.938 232.728 299.235 232.041 299.456C231.354 299.678 231.112 300.74 231.5 301.829C231.888 302.917 232.76 303.62 233.447 303.399Z" fill="#F29111"/>
<path d="M206.892 280.262C207.579 280.041 207.821 278.978 207.433 277.89C207.045 276.801 206.173 276.098 205.486 276.32C204.799 276.541 204.557 277.603 204.945 278.692C205.334 279.781 206.205 280.484 206.892 280.262Z" fill="#F29111"/>
<path d="M208.463 285.09C209.15 284.869 209.392 283.806 209.003 282.718C208.615 281.629 207.743 280.926 207.056 281.148C206.369 281.369 206.127 282.431 206.516 283.52C206.904 284.609 207.776 285.312 208.463 285.09Z" fill="#F29111"/>
<path d="M210.228 289.852C210.915 289.63 211.157 288.568 210.769 287.479C210.381 286.391 209.509 285.688 208.822 285.909C208.135 286.131 207.893 287.193 208.281 288.282C208.67 289.371 209.541 290.073 210.228 289.852Z" fill="#F29111"/>
<path d="M211.931 294.418C212.618 294.197 212.86 293.135 212.472 292.046C212.084 290.957 211.212 290.254 210.525 290.476C209.838 290.697 209.596 291.76 209.984 292.848C210.373 293.937 211.244 294.64 211.931 294.418Z" fill="#F29111"/>
<path d="M213.502 299.246C214.189 299.025 214.431 297.963 214.042 296.874C213.654 295.785 212.782 295.082 212.095 295.304C211.408 295.525 211.166 296.588 211.555 297.676C211.943 298.765 212.815 299.468 213.502 299.246Z" fill="#F29111"/>
<path d="M215.205 303.811C215.892 303.589 216.134 302.527 215.746 301.438C215.357 300.35 214.486 299.647 213.799 299.868C213.112 300.09 212.869 301.152 213.258 302.241C213.646 303.33 214.518 304.032 215.205 303.811Z" fill="#F29111"/>
<path d="M216.978 308.573C217.665 308.351 217.907 307.289 217.519 306.2C217.131 305.111 216.259 304.409 215.572 304.63C214.885 304.852 214.643 305.914 215.031 307.003C215.42 308.091 216.291 308.794 216.978 308.573Z" fill="#F29111"/>
<path d="M216.775 277.157C217.462 276.935 217.704 275.873 217.316 274.784C216.928 273.695 216.056 272.993 215.369 273.214C214.682 273.436 214.44 274.498 214.828 275.587C215.216 276.675 216.088 277.378 216.775 277.157Z" fill="#F29111"/>
<path d="M218.549 281.918C219.236 281.697 219.478 280.635 219.089 279.546C218.701 278.457 217.829 277.754 217.142 277.976C216.455 278.197 216.213 279.26 216.602 280.348C216.99 281.437 217.862 282.14 218.549 281.918Z" fill="#F29111"/>
<path d="M220.041 286.551C220.728 286.33 220.97 285.267 220.582 284.179C220.193 283.09 219.321 282.387 218.634 282.609C217.948 282.83 217.705 283.892 218.094 284.981C218.482 286.07 219.354 286.773 220.041 286.551Z" fill="#F29111"/>
<path d="M221.814 291.313C222.501 291.091 222.743 290.029 222.355 288.94C221.967 287.852 221.095 287.149 220.408 287.37C219.721 287.592 219.479 288.654 219.867 289.743C220.256 290.831 221.127 291.534 221.814 291.313Z" fill="#F29111"/>
<path d="M223.517 295.877C224.204 295.656 224.446 294.594 224.058 293.505C223.67 292.416 222.798 291.713 222.111 291.935C221.424 292.156 221.182 293.219 221.57 294.307C221.959 295.396 222.83 296.099 223.517 295.877Z" fill="#F29111"/>
<path d="M225.088 300.705C225.775 300.484 226.017 299.422 225.628 298.333C225.24 297.244 224.368 296.541 223.681 296.763C222.994 296.984 222.752 298.047 223.141 299.135C223.529 300.224 224.401 300.927 225.088 300.705Z" fill="#F29111"/>
<path d="M226.861 305.469C227.548 305.248 227.79 304.185 227.402 303.097C227.014 302.008 226.142 301.305 225.455 301.527C224.768 301.748 224.526 302.81 224.914 303.899C225.302 304.988 226.174 305.691 226.861 305.469Z" fill="#F29111"/>
<path d="M226.658 274.051C227.345 273.83 227.587 272.767 227.199 271.679C226.81 270.59 225.939 269.887 225.252 270.109C224.565 270.33 224.323 271.392 224.711 272.481C225.099 273.57 225.971 274.273 226.658 274.051Z" fill="#F29111"/>
<path d="M228.361 278.618C229.048 278.396 229.29 277.334 228.902 276.245C228.513 275.156 227.642 274.453 226.955 274.675C226.268 274.897 226.026 275.959 226.414 277.047C226.802 278.136 227.674 278.839 228.361 278.618Z" fill="#F29111"/>
<path d="M230.135 283.379C230.822 283.158 231.064 282.096 230.675 281.007C230.287 279.918 229.415 279.215 228.728 279.437C228.041 279.658 227.799 280.72 228.188 281.809C228.576 282.898 229.448 283.601 230.135 283.379Z" fill="#F29111"/>
<path d="M231.627 288.01C232.314 287.789 232.556 286.726 232.167 285.638C231.779 284.549 230.907 283.846 230.22 284.068C229.533 284.289 229.291 285.351 229.68 286.44C230.068 287.529 230.94 288.232 231.627 288.01Z" fill="#F29111"/>
<path d="M233.4 292.772C234.087 292.55 234.329 291.488 233.941 290.399C233.553 289.311 232.681 288.608 231.994 288.829C231.307 289.051 231.065 290.113 231.453 291.202C231.841 292.29 232.713 292.993 233.4 292.772Z" fill="#F29111"/>
<path d="M235.174 297.534C235.861 297.312 236.103 296.25 235.714 295.161C235.326 294.072 234.454 293.369 233.767 293.591C233.08 293.813 232.838 294.875 233.227 295.963C233.615 297.052 234.487 297.755 235.174 297.534Z" fill="#F29111"/>
<path d="M236.666 302.166C237.353 301.945 237.595 300.883 237.207 299.794C236.818 298.705 235.946 298.002 235.26 298.224C234.573 298.445 234.33 299.508 234.719 300.596C235.107 301.685 235.979 302.388 236.666 302.166Z" fill="#F29111"/>
<path d="M208.486 274.662C209.173 274.441 209.415 273.379 209.027 272.29C208.638 271.201 207.767 270.498 207.08 270.72C206.393 270.941 206.151 272.004 206.539 273.092C206.927 274.181 207.799 274.884 208.486 274.662Z" fill="#F29111"/>
<path d="M218.502 271.293C219.189 271.072 219.431 270.01 219.042 268.921C218.654 267.832 217.782 267.129 217.095 267.351C216.408 267.572 216.166 268.635 216.555 269.723C216.943 270.812 217.815 271.515 218.502 271.293Z" fill="#F29111"/>
<path d="M201.9 276.733C202.587 276.511 202.829 275.449 202.441 274.36C202.053 273.272 201.181 272.569 200.494 272.79C199.807 273.012 199.565 274.074 199.953 275.163C200.341 276.251 201.213 276.954 201.9 276.733Z" fill="#F29111"/>
<path d="M211.705 273.43C212.392 273.208 212.634 272.146 212.246 271.058C211.857 269.969 210.986 269.266 210.299 269.488C209.612 269.709 209.369 270.771 209.758 271.86C210.146 272.949 211.018 273.652 211.705 273.43Z" fill="#F29111"/>
<path d="M221.799 270.258C222.486 270.037 222.728 268.974 222.339 267.886C221.951 266.797 221.079 266.094 220.392 266.316C219.705 266.537 219.463 267.599 219.852 268.688C220.24 269.777 221.112 270.48 221.799 270.258Z" fill="#F29111"/>
<path d="M205.189 275.698C205.876 275.476 206.118 274.414 205.73 273.325C205.342 272.236 204.47 271.534 203.783 271.755C203.096 271.977 202.854 273.039 203.242 274.128C203.631 275.216 204.502 275.919 205.189 275.698Z" fill="#F29111"/>
<path d="M215.002 272.395C215.689 272.173 215.931 271.111 215.542 270.022C215.154 268.934 214.282 268.231 213.595 268.452C212.908 268.674 212.666 269.736 213.055 270.825C213.443 271.913 214.315 272.616 215.002 272.395Z" fill="#F29111"/>
<path d="M225.088 269.223C225.775 269.001 226.017 267.939 225.628 266.851C225.24 265.762 224.368 265.059 223.681 265.28C222.994 265.502 222.752 266.564 223.141 267.653C223.529 268.742 224.401 269.445 225.088 269.223Z" fill="#F29111"/>
<path d="M211.955 315.473C212.642 315.251 212.884 314.189 212.496 313.101C212.107 312.012 211.236 311.309 210.549 311.53C209.862 311.752 209.619 312.814 210.008 313.903C210.396 314.992 211.268 315.695 211.955 315.473Z" fill="#F29111"/>
<path d="M222.041 312.301C222.728 312.08 222.97 311.017 222.582 309.929C222.193 308.84 221.321 308.137 220.634 308.359C219.948 308.58 219.705 309.642 220.094 310.731C220.482 311.82 221.354 312.523 222.041 312.301Z" fill="#F29111"/>
<path d="M223.541 316.932C224.228 316.71 224.47 315.648 224.082 314.56C223.693 313.471 222.821 312.768 222.135 312.989C221.448 313.211 221.205 314.273 221.594 315.362C221.982 316.451 222.854 317.154 223.541 316.932Z" fill="#F29111"/>
<path d="M231.853 308.998C232.54 308.777 232.782 307.715 232.394 306.626C232.006 305.537 231.134 304.834 230.447 305.056C229.76 305.277 229.518 306.34 229.906 307.428C230.295 308.517 231.166 309.22 231.853 308.998Z" fill="#F29111"/>
<path d="M233.627 313.76C234.314 313.539 234.556 312.476 234.167 311.388C233.779 310.299 232.907 309.596 232.22 309.818C231.533 310.039 231.291 311.101 231.68 312.19C232.068 313.279 232.94 313.982 233.627 313.76Z" fill="#F29111"/>
<path d="M215.252 314.438C215.939 314.216 216.181 313.154 215.792 312.065C215.404 310.977 214.532 310.274 213.845 310.495C213.158 310.717 212.916 311.779 213.305 312.868C213.693 313.956 214.565 314.659 215.252 314.438Z" fill="#F29111"/>
<path d="M217.025 319.2C217.712 318.978 217.954 317.916 217.566 316.827C217.178 315.738 216.306 315.035 215.619 315.257C214.932 315.479 214.69 316.541 215.078 317.629C215.466 318.718 216.338 319.421 217.025 319.2Z" fill="#F29111"/>
<path d="M225.338 311.266C226.025 311.044 226.267 309.982 225.878 308.894C225.49 307.805 224.618 307.102 223.931 307.323C223.244 307.545 223.002 308.607 223.391 309.696C223.779 310.785 224.651 311.488 225.338 311.266Z" fill="#F29111"/>
<path d="M226.83 315.897C227.517 315.675 227.759 314.613 227.371 313.524C226.982 312.436 226.111 311.733 225.424 311.954C224.737 312.176 224.494 313.238 224.883 314.327C225.271 315.415 226.143 316.118 226.83 315.897Z" fill="#F29111"/>
<path d="M235.15 307.963C235.837 307.742 236.079 306.68 235.691 305.591C235.303 304.502 234.431 303.799 233.744 304.021C233.057 304.242 232.815 305.304 233.203 306.393C233.591 307.482 234.463 308.185 235.15 307.963Z" fill="#F29111"/>
<path d="M236.924 312.725C237.611 312.503 237.853 311.441 237.464 310.353C237.076 309.264 236.204 308.561 235.517 308.782C234.83 309.004 234.588 310.066 234.977 311.155C235.365 312.244 236.237 312.947 236.924 312.725Z" fill="#F29111"/>
<path d="M218.541 313.403C219.228 313.181 219.47 312.119 219.082 311.03C218.693 309.942 217.821 309.239 217.134 309.46C216.448 309.682 216.205 310.744 216.594 311.833C216.982 312.921 217.854 313.624 218.541 313.403Z" fill="#F29111"/>
<path d="M220.244 317.967C220.931 317.746 221.173 316.683 220.785 315.595C220.396 314.506 219.525 313.803 218.838 314.025C218.151 314.246 217.909 315.308 218.297 316.397C218.685 317.486 219.557 318.189 220.244 317.967Z" fill="#F29111"/>
<path d="M228.564 310.034C229.251 309.812 229.493 308.75 229.105 307.661C228.717 306.572 227.845 305.869 227.158 306.091C226.471 306.313 226.229 307.375 226.617 308.463C227.006 309.552 227.877 310.255 228.564 310.034Z" fill="#F29111"/>
<path d="M230.127 314.862C230.814 314.64 231.056 313.578 230.667 312.489C230.279 311.401 229.407 310.698 228.72 310.919C228.033 311.141 227.791 312.203 228.18 313.292C228.568 314.38 229.44 315.083 230.127 314.862Z" fill="#F29111"/>
<path d="M238.439 306.928C239.126 306.707 239.368 305.644 238.98 304.556C238.592 303.467 237.72 302.764 237.033 302.986C236.346 303.207 236.104 304.269 236.492 305.358C236.881 306.447 237.752 307.15 238.439 306.928Z" fill="#F29111"/>
<path d="M240.213 311.69C240.9 311.468 241.142 310.406 240.753 309.317C240.365 308.229 239.493 307.526 238.806 307.747C238.119 307.969 237.877 309.031 238.266 310.12C238.654 311.208 239.526 311.911 240.213 311.69Z" fill="#F29111"/>
</g>
<path d="M81.6542 393.213C103.765 393.213 112.083 413.821 113.397 424.021C101.138 437.343 53.1953 437.343 51.0062 426.727C48.8171 416.11 54.071 393.213 81.6542 393.213Z" fill="white"/>
<path d="M53.4109 429.017L53.192 426.311C53.192 425.895 52.973 425.687 52.5352 425.687L49.9082 425.479C49.4704 425.479 48.5948 425.895 48.1569 426.519L37.6491 438.801C36.9923 439.425 36.9923 440.258 37.4301 440.466L37.868 440.674C38.5247 441.091 39.4004 440.882 40.276 440.05L52.5352 430.683C52.973 430.266 53.4109 429.642 53.4109 429.017Z" fill="white"/>
<path d="M39.1814 440.673L46.4056 435.261L41.1517 434.637L37.2112 439.216C36.7734 439.841 36.5545 440.673 36.7734 440.882L36.9923 441.09C37.4301 441.506 38.3058 441.506 39.1814 440.673Z" fill="#65CBFE"/>
<path d="M113.398 424.23C101.138 437.344 53.1962 437.552 51.0071 426.936C49.2558 418.61 52.1016 402.79 66.55 396.545C57.5745 422.357 77.2768 426.936 93.0386 426.936C108.363 426.936 108.363 415.696 108.363 409.867C111.208 414.863 112.741 420.275 113.398 424.23Z" fill="#EFEFEF"/>
<path d="M54.0702 393.63C39.403 400.916 37.6517 416.944 38.9652 426.311C39.1841 427.768 40.0597 429.017 41.3732 429.642C50.1298 434.429 60.4188 432.972 66.5484 431.099C68.5186 430.474 69.8321 428.809 69.8321 426.936C70.2699 419.025 68.5186 405.703 60.1998 394.879C58.6674 393.214 56.0405 392.589 54.0702 393.63Z" fill="#595959"/>
<path d="M104.855 427.769L105.512 425.063C105.512 424.646 105.731 424.646 106.169 424.646L108.796 424.855C109.233 424.855 110.109 425.479 110.547 426.104L119.303 439.634C119.741 440.467 119.741 441.091 119.303 441.299L118.866 441.507C118.209 441.716 117.333 441.507 116.458 440.675L105.512 429.85C105.074 429.018 104.636 428.185 104.855 427.769Z" fill="white"/>
<path d="M117.114 441.09L110.766 434.846L116.238 435.054L119.522 440.05C119.96 440.674 119.96 441.507 119.741 441.715L119.522 441.923C118.865 442.131 117.99 441.715 117.114 441.09Z" fill="#65CBFE"/>
<path d="M89.9723 431.099L90.629 428.393C90.629 427.977 90.848 427.977 91.2858 427.977L93.9128 428.185C94.3506 428.185 95.2262 428.809 95.6641 429.434L104.421 442.964C104.858 443.797 104.858 444.421 104.421 444.629L103.983 444.837C103.326 445.046 102.45 444.838 101.575 444.005L90.629 433.181C90.1912 432.348 89.7534 431.723 89.9723 431.099Z" fill="white"/>
<path d="M102.231 444.421L95.8828 438.176L101.356 438.384L104.639 443.38C105.077 444.004 105.077 444.837 104.858 445.045L104.639 445.253C103.983 445.461 103.107 445.253 102.231 444.421Z" fill="#65CBFE"/>
<path d="M70.7031 432.765L71.3599 430.059C71.3599 429.643 71.5788 429.643 72.0166 429.643L74.6436 429.851C75.0814 429.851 75.9571 430.475 76.3949 431.1L85.1515 444.63C85.5893 445.463 85.5893 446.087 85.1515 446.295L84.7136 446.504C84.0569 446.712 83.1812 446.504 82.3056 445.671L71.3599 434.847C70.922 434.014 70.7031 433.181 70.7031 432.765Z" fill="white"/>
<path d="M83.1845 445.88L76.8359 439.635L82.3088 439.843L85.5925 444.839C86.0303 445.463 86.0303 446.296 85.8114 446.504L85.5925 446.712C84.7168 447.129 83.8412 446.712 83.1845 445.88Z" fill="#65CBFE"/>
<path d="M60.8519 369.691H60.4141V405.287H60.8519V369.691Z" fill="#595959"/>
<path d="M60.6338 370.316C61.3592 370.316 61.9473 369.757 61.9473 369.067C61.9473 368.378 61.3592 367.818 60.6338 367.818C59.9084 367.818 59.3203 368.378 59.3203 369.067C59.3203 369.757 59.9084 370.316 60.6338 370.316Z" fill="#65CBFE"/>
<path d="M48.8128 369.691H48.375V405.287H48.8128V369.691Z" fill="#595959"/>
<path d="M48.5947 370.316C49.3202 370.316 49.9082 369.757 49.9082 369.067C49.9082 368.378 49.3202 367.818 48.5947 367.818C47.8693 367.818 47.2812 368.378 47.2812 369.067C47.2812 369.757 47.8693 370.316 48.5947 370.316Z" fill="#65CBFE"/>
<path d="M55.1597 397.793C41.806 403.621 40.4925 417.984 41.806 425.686C42.0249 426.311 42.4627 426.935 42.9005 427.352C50.7815 431.931 60.1948 430.266 65.0109 428.6C65.8865 428.184 66.5433 427.352 66.7622 426.519C67.2 420.066 66.1054 407.993 58.2245 398.625C57.3489 397.585 56.2543 397.377 55.1597 397.793Z" fill="#35373A"/>
<path d="M54.0703 415.07H68.2997V417.776H54.0703V415.07Z" fill="#65CBFE"/>
<path d="M35.8984 415.07H50.1279V417.776H35.8984V415.07Z" fill="#65CBFE"/>
<path d="M77.493 412.99C76.8363 412.782 76.3984 412.157 76.3984 411.533V411.117C76.3984 410.492 76.8363 409.868 77.493 409.659L82.7469 407.578C83.6226 407.162 84.4983 407.786 84.4983 408.619C84.4983 409.035 84.0604 409.659 83.6226 409.659L79.4632 411.117V411.325L83.6226 412.782C84.0604 412.99 84.4983 413.406 84.4983 413.823C84.4983 414.655 83.6226 415.28 82.7469 414.863L77.493 412.99Z" fill="#65CBFE"/>
<path d="M100.483 411.949C100.483 412.573 100.045 413.198 99.3881 413.406L94.1341 415.279C93.2585 415.487 92.3828 415.071 92.3828 414.238C92.3828 413.822 92.8206 413.406 93.2585 413.198L97.4178 411.949V411.74L93.2585 410.491C92.8206 410.283 92.3828 409.867 92.3828 409.451C92.3828 408.618 93.2585 407.994 94.1341 408.41L99.3881 410.283C100.045 410.491 100.483 411.116 100.483 411.74V411.949Z" fill="#65CBFE"/>
<path d="M90.1863 405.496C91.062 405.496 91.7187 406.329 91.4998 406.953L88.435 417.361C88.2161 417.778 87.7783 418.194 87.1215 418.194C86.2459 418.194 85.5891 417.361 85.8081 416.737L88.8728 406.329C89.0918 405.704 89.5296 405.496 90.1863 405.496Z" fill="#65CBFE"/>
<defs>
<linearGradient id="paint0_linear_2034_9293" x1="167.912" y1="141.217" x2="198.253" y2="235.295" gradientUnits="userSpaceOnUse">
<stop stop-color="white"/>
<stop offset="1" stop-color="#F4F4F4"/>
</linearGradient>
</defs>
</svg>
