<svg width="500" height="500" viewBox="0 0 500 500" fill="none" xmlns="http://www.w3.org/2000/svg">
<path d="M222 460C287.17 460 340 450.15 340 438C340 425.85 287.17 416 222 416C156.83 416 104 425.85 104 438C104 450.15 156.83 460 222 460Z" fill="#A4AFBF" fill-opacity="0.7"/>
<path d="M212.221 309.611C208.034 314.313 204.088 319.346 201.769 325.193C199.449 331.04 198.997 337.881 201.738 343.517C204.48 349.184 210.926 353.192 217.101 352.017C220.866 351.293 224.541 347.827 223.637 344.09C223.095 341.83 220.926 340.202 218.637 339.78C216.348 339.388 213.968 340.021 211.889 341.136C205.082 344.723 201.407 352.8 201.588 360.486C201.769 368.171 205.353 375.464 210.022 381.583C222.251 397.526 242.915 406.598 262.916 404.729C270.657 404.006 278.157 401.776 285.839 400.57C293.52 399.365 301.683 399.274 308.701 402.589C315.719 405.905 321.232 413.379 320.238 421.095C319.876 423.867 318.34 426.881 315.599 427.484C312.255 428.207 309.153 424.44 309.665 421.064C310.177 417.689 313.31 415.157 316.623 414.283C319.936 413.409 327.738 410.817 335.208 413.228" stroke="#6C747E" stroke-width="4.75" stroke-linecap="round" stroke-linejoin="round"/>
<path d="M431.025 343.969H347.317C340.569 343.969 335.117 349.424 335.117 356.175V447.194C335.117 453.945 340.599 459.4 347.317 459.4H431.025C437.772 459.4 443.224 453.945 443.224 447.194V356.175C443.254 349.424 437.772 343.969 431.025 343.969Z" fill="#35373A"/>
<path d="M425.304 363.561H353.042C346.295 363.561 340.812 369.016 340.812 375.767V442.675C340.812 449.426 346.295 454.881 353.042 454.881H425.304C432.051 454.881 437.534 449.426 437.534 442.675V375.767C437.534 369.016 432.051 363.561 425.304 363.561Z" fill="#AAC9D2"/>
<path opacity="0.3" d="M389.342 439.509C406.632 439.509 420.669 425.464 420.669 408.165C420.669 390.865 406.632 376.82 389.342 376.82C372.052 376.82 358.016 390.865 358.016 408.165C358.016 425.464 372.022 439.509 389.342 439.509Z" fill="#242020"/>
<path d="M389.191 414.193C392.927 414.193 395.969 411.149 395.969 407.412C395.969 403.675 392.927 400.631 389.191 400.631C385.456 400.631 382.414 403.675 382.414 407.412C382.414 411.149 385.426 414.193 389.191 414.193Z" fill="#35373A"/>
<path d="M378.494 348.793H350.18V354.519H378.494V348.793Z" fill="#AAC9D2"/>
<path d="M389.04 351.807C389.04 353.464 387.685 354.821 386.028 354.821C384.371 354.821 383.016 353.464 383.016 351.807C383.016 350.149 384.371 348.793 386.028 348.793C387.685 348.793 389.04 350.119 389.04 351.807Z" fill="#AAC9D2"/>
<path d="M398.97 351.807C398.97 353.464 397.614 354.821 395.957 354.821C394.301 354.821 392.945 353.464 392.945 351.807C392.945 350.149 394.301 348.793 395.957 348.793C397.614 348.793 398.97 350.119 398.97 351.807Z" fill="#AAC9D2"/>
<path d="M429.399 351.807C429.399 353.464 428.044 354.821 426.387 354.821C424.73 354.821 423.375 353.464 423.375 351.807C423.375 350.149 424.73 348.793 426.387 348.793C428.044 348.793 429.399 350.119 429.399 351.807Z" fill="#AAC9D2"/>
<path d="M418.85 378.328C397.705 399.636 375.475 419.859 352.281 438.907" stroke="#AAC9D2" stroke-miterlimit="10"/>
<path d="M423.972 383.451C402.736 404.759 380.386 424.982 357.102 444.03" stroke="#AAC9D2" stroke-miterlimit="10"/>
<path d="M428.796 388.273C407.65 409.672 385.42 430.016 362.227 449.154" stroke="#AAC9D2" stroke-miterlimit="10"/>
<path d="M433.917 393.396C412.681 414.705 390.331 434.928 367.047 453.975" stroke="#AAC9D2" stroke-miterlimit="10"/>
<path d="M435.427 401.535C414.281 422.904 401.359 434.869 378.195 453.977" stroke="#AAC9D2" stroke-miterlimit="10"/>
<path d="M436.322 410.576C415.206 431.945 415.477 434.868 392.344 453.976" stroke="#AAC9D2" stroke-miterlimit="10"/>
<path d="M413.738 373.203C392.502 394.511 370.151 414.734 346.867 433.782" stroke="#AAC9D2" stroke-miterlimit="10"/>
<path d="M408.319 367.779C387.174 389.178 364.944 409.521 341.75 428.66" stroke="#AAC9D2" stroke-miterlimit="10"/>
<path d="M399.884 365.67C378.678 387.038 365.606 399.606 342.352 418.714" stroke="#AAC9D2" stroke-miterlimit="10"/>
<path d="M389.035 365.67C367.95 386.978 366.384 390.022 343.25 409.07" stroke="#AAC9D2" stroke-miterlimit="10"/>
<path d="M354.938 379.201C374.818 400.57 393.584 422.872 411.175 446.049" stroke="#AAC9D2" stroke-miterlimit="10"/>
<path d="M360.125 374.74C380.005 396.109 398.771 418.411 416.362 441.558" stroke="#AAC9D2" stroke-miterlimit="10"/>
<path d="M365.297 370.25C385.177 391.618 403.943 413.921 421.534 437.098" stroke="#AAC9D2" stroke-miterlimit="10"/>
<path d="M370.484 365.791C390.365 387.159 409.131 409.462 426.722 432.609" stroke="#AAC9D2" stroke-miterlimit="10"/>
<path d="M378.766 364.645C398.646 386.013 409.731 398.942 427.322 422.119" stroke="#AAC9D2" stroke-miterlimit="10"/>
<path d="M349.609 383.812C369.49 405.181 388.256 427.484 405.847 450.66" stroke="#AAC9D2" stroke-miterlimit="10"/>
<path d="M344.062 388.605C363.943 409.974 381.504 429.775 399.065 452.952" stroke="#AAC9D2" stroke-miterlimit="10"/>
<path d="M341.469 396.621C361.349 417.989 373.036 431.13 390.597 454.307" stroke="#AAC9D2" stroke-miterlimit="10"/>
<path d="M342.289 408.164C362.169 429.532 363.736 429.804 381.297 452.98" stroke="#AAC9D2" stroke-miterlimit="10"/>
<path d="M400.18 371.696H380.57C379.094 371.696 377.859 370.491 377.859 368.984C377.859 367.477 379.064 366.271 380.57 366.271H400.18C401.656 366.271 402.891 367.477 402.891 368.984C402.891 370.491 401.656 371.696 400.18 371.696Z" fill="#FF9100"/>
<g filter="url(#filter0_d_2831_13500)">
<path d="M169.444 137.126C161.221 157.349 155.016 190.231 152.727 205.903L194.084 188.001C197.759 159.64 193.692 138.784 189.957 128.386C188.933 125.493 185.68 124.287 182.848 125.432L181.222 126.065C175.981 128.115 171.553 131.912 169.444 137.126Z" fill="white"/>
<path d="M195.053 154.668C182.281 133.902 168.214 147.736 162.883 157.019C168.636 137.459 168.305 132.757 179.54 126.79C189.33 121.576 190.414 129.231 191.077 131.069C191.709 132.787 194.601 145.747 195.053 154.668Z" fill="#FF9100"/>
</g>
<g filter="url(#filter1_d_2831_13500)">
<path d="M127.426 290.773L139.083 299.031C140.499 300.055 141.373 301.532 141.433 303.099L141.945 314.854C142.065 317.355 140.107 319.495 137.306 319.917L93.5994 326.819C90.7077 327.271 87.7558 325.794 86.6714 323.353L85.587 320.942C84.1412 317.717 85.1954 314.16 88.1775 312.141L119.956 290.562C122.125 289.115 125.197 289.175 127.426 290.773Z" fill="white"/>
</g>
<g filter="url(#filter2_d_2831_13500)">
<g filter="url(#filter3_d_2831_13500)">
<path fill-rule="evenodd" clip-rule="evenodd" d="M317.973 247.315C347.884 229.473 395.265 195.054 410.416 172.45C411.832 170.34 411.471 167.628 409.814 165.729L409.332 165.187C404.663 159.852 397.283 157.712 390.476 159.822C363.366 168.261 326.316 181.01 285.049 205.964C272.82 196.893 258.211 190.051 241.945 186.404C186.551 173.957 132.754 203.373 121.85 252.107C110.945 300.841 147.031 350.42 202.455 362.837C257.88 375.254 311.677 345.838 322.581 297.104C326.407 280.076 324.479 262.927 317.973 247.315Z" fill="white"/>
</g>
</g>
<path d="M409.89 172.27C402.857 181.553 390.309 196.478 366.913 214C366.913 214 379.699 189.016 374.632 182.24C369.566 175.434 340 177.971 340 177.971C352.607 172.986 376.212 162.449 392.574 159.285C398.088 158.211 403.572 160.27 407.983 163.822L408.907 164.569C411.231 166.419 411.708 169.852 409.89 172.27Z" fill="#FF9100"/>
<path d="M410.849 172.253C395.203 196.21 346.93 230.859 317.73 247L313 237.058L409.667 171.175C410.455 170.635 411.365 171.444 410.849 172.253Z" fill="#E9E6E6"/>
<path d="M261.74 288.225C254.648 319.581 221.397 345.045 181.78 336.236C142.164 327.428 117.127 289.007 124.19 257.65C131.283 226.294 166.17 207.354 205.787 216.163C245.403 225.002 268.833 256.869 261.74 288.225Z" fill="#35373A"/>
<mask id="mask0_2831_13500" style="mask-type:luminance" maskUnits="userSpaceOnUse" x="189" y="255" width="40" height="31">
<path d="M203.463 284.57C213.946 287.343 225.302 278.904 228.796 265.733L190.782 255.637C187.288 268.837 192.951 281.797 203.463 284.57Z" fill="white"/>
</mask>
<g mask="url(#mask0_2831_13500)">
<path d="M194.295 256.066C194.577 255.004 194.127 253.964 193.291 253.742C192.455 253.52 191.549 254.201 191.267 255.263C190.986 256.325 191.436 257.365 192.272 257.587C193.108 257.809 194.014 257.128 194.295 256.066Z" fill="#F29111"/>
<path d="M193.045 260.845C193.327 259.784 192.877 258.743 192.041 258.521C191.205 258.299 190.299 258.98 190.017 260.042C189.736 261.104 190.186 262.145 191.022 262.367C191.858 262.588 192.764 261.907 193.045 260.845Z" fill="#F29111"/>
<path d="M191.764 265.619C192.046 264.557 191.596 263.516 190.76 263.295C189.923 263.073 189.018 263.754 188.736 264.816C188.455 265.877 188.904 266.918 189.741 267.14C190.577 267.362 191.483 266.681 191.764 265.619Z" fill="#F29111"/>
<path d="M190.498 270.429C190.78 269.368 190.33 268.327 189.494 268.105C188.658 267.883 187.752 268.564 187.47 269.626C187.189 270.688 187.639 271.729 188.475 271.951C189.311 272.172 190.217 271.491 190.498 270.429Z" fill="#F29111"/>
<path d="M206.967 254.332C207.249 253.27 206.799 252.229 205.963 252.007C205.127 251.786 204.221 252.467 203.939 253.528C203.658 254.59 204.108 255.631 204.944 255.853C205.78 256.075 206.686 255.394 206.967 254.332Z" fill="#F29111"/>
<path d="M205.678 259.105C205.96 258.043 205.51 257.003 204.674 256.781C203.838 256.559 202.932 257.24 202.65 258.302C202.369 259.364 202.818 260.404 203.655 260.626C204.491 260.848 205.397 260.167 205.678 259.105Z" fill="#F29111"/>
<path d="M204.428 263.885C204.71 262.823 204.26 261.782 203.424 261.56C202.588 261.338 201.682 262.019 201.4 263.081C201.119 264.143 201.568 265.184 202.405 265.406C203.241 265.627 204.147 264.946 204.428 263.885Z" fill="#F29111"/>
<path d="M203.147 268.656C203.428 267.594 202.979 266.553 202.142 266.332C201.306 266.11 200.4 266.791 200.119 267.853C199.838 268.915 200.287 269.955 201.123 270.177C201.96 270.399 202.866 269.718 203.147 268.656Z" fill="#F29111"/>
<path d="M201.889 273.437C202.171 272.375 201.721 271.335 200.885 271.113C200.048 270.891 199.143 271.572 198.861 272.634C198.58 273.696 199.029 274.736 199.866 274.958C200.702 275.18 201.608 274.499 201.889 273.437Z" fill="#F29111"/>
<path d="M218.358 257.34C218.639 256.278 218.19 255.237 217.353 255.015C216.517 254.793 215.611 255.474 215.33 256.536C215.048 257.598 215.498 258.639 216.334 258.861C217.17 259.082 218.076 258.402 218.358 257.34Z" fill="#F29111"/>
<path d="M217.108 262.119C217.389 261.057 216.94 260.016 216.103 259.795C215.267 259.573 214.361 260.254 214.08 261.316C213.798 262.377 214.248 263.418 215.084 263.64C215.921 263.862 216.826 263.181 217.108 262.119Z" fill="#F29111"/>
<path d="M215.827 266.892C216.108 265.83 215.658 264.79 214.822 264.568C213.986 264.346 213.08 265.027 212.799 266.089C212.517 267.151 212.967 268.192 213.803 268.413C214.639 268.635 215.545 267.954 215.827 266.892Z" fill="#F29111"/>
<path d="M214.569 271.674C214.85 270.612 214.4 269.571 213.564 269.349C212.728 269.127 211.822 269.808 211.541 270.87C211.259 271.932 211.709 272.973 212.545 273.195C213.381 273.416 214.287 272.736 214.569 271.674Z" fill="#F29111"/>
<path d="M213.295 276.447C213.577 275.385 213.127 274.344 212.291 274.123C211.455 273.901 210.549 274.582 210.267 275.644C209.986 276.706 210.436 277.746 211.272 277.968C212.108 278.19 213.014 277.509 213.295 276.447Z" fill="#F29111"/>
<path d="M231.03 255.605C231.311 254.543 230.861 253.503 230.025 253.281C229.189 253.059 228.283 253.74 228.002 254.802C227.72 255.864 228.17 256.904 229.006 257.126C229.842 257.348 230.748 256.667 231.03 255.605Z" fill="#F29111"/>
<path d="M229.78 260.385C230.061 259.323 229.611 258.282 228.775 258.06C227.939 257.838 227.033 258.519 226.752 259.581C226.47 260.643 226.92 261.684 227.756 261.906C228.592 262.127 229.498 261.446 229.78 260.385Z" fill="#F29111"/>
<path d="M228.499 265.158C228.78 264.096 228.33 263.055 227.494 262.834C226.658 262.612 225.752 263.293 225.47 264.355C225.189 265.416 225.639 266.457 226.475 266.679C227.311 266.901 228.217 266.22 228.499 265.158Z" fill="#F29111"/>
<path d="M227.241 269.937C227.522 268.875 227.072 267.835 226.236 267.613C225.4 267.391 224.494 268.072 224.213 269.134C223.931 270.196 224.381 271.236 225.217 271.458C226.053 271.68 226.959 270.999 227.241 269.937Z" fill="#F29111"/>
<path d="M225.952 274.709C226.233 273.647 225.783 272.606 224.947 272.384C224.111 272.163 223.205 272.844 222.924 273.905C222.642 274.967 223.092 276.008 223.928 276.23C224.764 276.452 225.67 275.771 225.952 274.709Z" fill="#F29111"/>
<path d="M224.709 279.49C224.991 278.428 224.541 277.387 223.705 277.166C222.869 276.944 221.963 277.625 221.681 278.687C221.4 279.749 221.85 280.789 222.686 281.011C223.522 281.233 224.428 280.552 224.709 279.49Z" fill="#F29111"/>
<path d="M198.084 257.074C198.366 256.012 197.916 254.971 197.08 254.75C196.244 254.528 195.338 255.209 195.056 256.271C194.775 257.333 195.225 258.373 196.061 258.595C196.897 258.817 197.803 258.136 198.084 257.074Z" fill="#F29111"/>
<path d="M196.834 261.857C197.116 260.795 196.666 259.755 195.83 259.533C194.994 259.311 194.088 259.992 193.806 261.054C193.525 262.116 193.975 263.156 194.811 263.378C195.647 263.6 196.553 262.919 196.834 261.857Z" fill="#F29111"/>
<path d="M195.577 266.637C195.858 265.575 195.408 264.534 194.572 264.312C193.736 264.09 192.83 264.771 192.549 265.833C192.267 266.895 192.717 267.936 193.553 268.158C194.389 268.379 195.295 267.698 195.577 266.637Z" fill="#F29111"/>
<path d="M194.295 271.41C194.577 270.348 194.127 269.307 193.291 269.086C192.455 268.864 191.549 269.545 191.267 270.607C190.986 271.668 191.436 272.709 192.272 272.931C193.108 273.153 194.014 272.472 194.295 271.41Z" fill="#F29111"/>
<path d="M210.756 255.342C211.038 254.28 210.588 253.239 209.752 253.017C208.916 252.795 208.01 253.476 207.728 254.538C207.447 255.6 207.897 256.641 208.733 256.863C209.569 257.084 210.475 256.403 210.756 255.342Z" fill="#F29111"/>
<path d="M209.506 260.121C209.788 259.059 209.338 258.018 208.502 257.796C207.666 257.575 206.76 258.256 206.478 259.318C206.197 260.379 206.647 261.42 207.483 261.642C208.319 261.864 209.225 261.183 209.506 260.121Z" fill="#F29111"/>
<path d="M208.217 264.894C208.499 263.832 208.049 262.792 207.213 262.57C206.377 262.348 205.471 263.029 205.189 264.091C204.908 265.153 205.358 266.194 206.194 266.415C207.03 266.637 207.936 265.956 208.217 264.894Z" fill="#F29111"/>
<path d="M206.967 269.674C207.249 268.612 206.799 267.571 205.963 267.349C205.127 267.127 204.221 267.808 203.939 268.87C203.658 269.932 204.108 270.973 204.944 271.195C205.78 271.416 206.686 270.736 206.967 269.674Z" fill="#F29111"/>
<path d="M205.678 274.447C205.96 273.385 205.51 272.344 204.674 272.123C203.838 271.901 202.932 272.582 202.65 273.644C202.369 274.706 202.818 275.746 203.655 275.968C204.491 276.19 205.397 275.509 205.678 274.447Z" fill="#F29111"/>
<path d="M222.17 258.355C222.452 257.293 222.002 256.253 221.166 256.031C220.33 255.809 219.424 256.49 219.142 257.552C218.861 258.614 219.311 259.654 220.147 259.876C220.983 260.098 221.889 259.417 222.17 258.355Z" fill="#F29111"/>
<path d="M220.897 263.129C221.178 262.067 220.729 261.026 219.892 260.804C219.056 260.582 218.15 261.263 217.869 262.325C217.587 263.387 218.037 264.428 218.873 264.65C219.71 264.872 220.616 264.191 220.897 263.129Z" fill="#F29111"/>
<path d="M219.639 267.912C219.921 266.85 219.471 265.809 218.635 265.588C217.798 265.366 216.893 266.047 216.611 267.109C216.33 268.17 216.779 269.211 217.616 269.433C218.452 269.655 219.358 268.974 219.639 267.912Z" fill="#F29111"/>
<path d="M218.358 272.683C218.639 271.621 218.19 270.581 217.353 270.359C216.517 270.137 215.611 270.818 215.33 271.88C215.048 272.942 215.498 273.983 216.334 274.204C217.171 274.426 218.076 273.745 218.358 272.683Z" fill="#F29111"/>
<path d="M217.108 277.463C217.389 276.401 216.94 275.36 216.103 275.138C215.267 274.916 214.361 275.597 214.08 276.659C213.798 277.721 214.248 278.762 215.084 278.984C215.921 279.206 216.826 278.525 217.108 277.463Z" fill="#F29111"/>
<path d="M201.905 258.095C202.186 257.034 201.736 255.993 200.9 255.771C200.064 255.549 199.158 256.23 198.877 257.292C198.595 258.354 199.045 259.395 199.881 259.617C200.717 259.838 201.623 259.157 201.905 258.095Z" fill="#F29111"/>
<path d="M200.623 262.869C200.905 261.807 200.455 260.766 199.619 260.545C198.783 260.323 197.877 261.004 197.595 262.066C197.314 263.127 197.764 264.168 198.6 264.39C199.436 264.612 200.342 263.931 200.623 262.869Z" fill="#F29111"/>
<path d="M199.366 267.648C199.647 266.586 199.197 265.546 198.361 265.324C197.525 265.102 196.619 265.783 196.338 266.845C196.056 267.907 196.506 268.947 197.342 269.169C198.178 269.391 199.084 268.71 199.366 267.648Z" fill="#F29111"/>
<path d="M198.116 272.429C198.397 271.368 197.947 270.327 197.111 270.105C196.275 269.883 195.369 270.564 195.088 271.626C194.806 272.688 195.256 273.729 196.092 273.951C196.928 274.172 197.834 273.491 198.116 272.429Z" fill="#F29111"/>
<path d="M214.569 256.33C214.85 255.268 214.401 254.227 213.564 254.005C212.728 253.784 211.822 254.465 211.541 255.527C211.259 256.588 211.709 257.629 212.545 257.851C213.381 258.073 214.287 257.392 214.569 256.33Z" fill="#F29111"/>
<path d="M213.28 261.131C213.561 260.069 213.111 259.028 212.275 258.806C211.439 258.584 210.533 259.265 210.252 260.327C209.97 261.389 210.42 262.43 211.256 262.652C212.092 262.874 212.998 262.193 213.28 261.131Z" fill="#F29111"/>
<path d="M212.03 265.912C212.311 264.85 211.861 263.809 211.025 263.588C210.189 263.366 209.283 264.047 209.002 265.109C208.72 266.17 209.17 267.211 210.006 267.433C210.842 267.655 211.748 266.974 212.03 265.912Z" fill="#F29111"/>
<path d="M210.749 270.683C211.03 269.621 210.58 268.581 209.744 268.359C208.908 268.137 208.002 268.818 207.72 269.88C207.439 270.942 207.889 271.983 208.725 272.204C209.561 272.426 210.467 271.745 210.749 270.683Z" fill="#F29111"/>
<path d="M209.499 275.467C209.78 274.405 209.33 273.364 208.494 273.142C207.658 272.92 206.752 273.601 206.47 274.663C206.189 275.725 206.639 276.766 207.475 276.988C208.311 277.209 209.217 276.528 209.499 275.467Z" fill="#F29111"/>
<path d="M227.241 254.594C227.522 253.532 227.072 252.491 226.236 252.269C225.4 252.047 224.494 252.728 224.213 253.79C223.931 254.852 224.381 255.893 225.217 256.115C226.053 256.336 226.959 255.655 227.241 254.594Z" fill="#F29111"/>
<path d="M225.959 259.367C226.241 258.305 225.791 257.264 224.955 257.043C224.119 256.821 223.213 257.502 222.931 258.564C222.65 259.626 223.1 260.666 223.936 260.888C224.772 261.11 225.678 260.429 225.959 259.367Z" fill="#F29111"/>
<path d="M224.709 264.146C224.991 263.084 224.541 262.044 223.705 261.822C222.869 261.6 221.963 262.281 221.681 263.343C221.4 264.405 221.85 265.445 222.686 265.667C223.522 265.889 224.428 265.208 224.709 264.146Z" fill="#F29111"/>
<path d="M223.428 268.92C223.71 267.858 223.26 266.817 222.424 266.595C221.588 266.373 220.682 267.054 220.4 268.116C220.119 269.178 220.568 270.219 221.405 270.441C222.241 270.663 223.147 269.982 223.428 268.92Z" fill="#F29111"/>
<path d="M222.17 273.699C222.452 272.637 222.002 271.596 221.166 271.375C220.33 271.153 219.424 271.834 219.142 272.896C218.861 273.957 219.311 274.998 220.147 275.22C220.983 275.442 221.889 274.761 222.17 273.699Z" fill="#F29111"/>
<path d="M220.889 278.472C221.171 277.411 220.721 276.37 219.885 276.148C219.048 275.926 218.143 276.607 217.861 277.669C217.58 278.731 218.029 279.772 218.866 279.993C219.702 280.215 220.608 279.534 220.889 278.472Z" fill="#F29111"/>
<path d="M200.639 278.217C200.921 277.155 200.471 276.114 199.635 275.892C198.799 275.67 197.893 276.351 197.611 277.413C197.33 278.475 197.779 279.516 198.616 279.738C199.452 279.959 200.358 279.278 200.639 278.217Z" fill="#F29111"/>
<path d="M199.358 282.99C199.639 281.928 199.19 280.887 198.353 280.666C197.517 280.444 196.611 281.125 196.33 282.187C196.048 283.249 196.498 284.289 197.334 284.511C198.17 284.733 199.076 284.052 199.358 282.99Z" fill="#F29111"/>
<path d="M212.03 281.256C212.311 280.194 211.861 279.153 211.025 278.931C210.189 278.709 209.283 279.39 209.002 280.452C208.72 281.514 209.17 282.555 210.006 282.777C210.842 282.999 211.748 282.318 212.03 281.256Z" fill="#F29111"/>
<path d="M210.772 286.037C211.053 284.975 210.604 283.934 209.767 283.712C208.931 283.491 208.025 284.172 207.744 285.234C207.463 286.295 207.912 287.336 208.748 287.558C209.585 287.78 210.491 287.099 210.772 286.037Z" fill="#F29111"/>
<path d="M223.42 284.263C223.702 283.202 223.252 282.161 222.416 281.939C221.58 281.717 220.674 282.398 220.392 283.46C220.111 284.522 220.561 285.563 221.397 285.784C222.233 286.006 223.139 285.325 223.42 284.263Z" fill="#F29111"/>
<path d="M193.045 276.189C193.327 275.127 192.877 274.087 192.041 273.865C191.205 273.643 190.299 274.324 190.017 275.386C189.736 276.448 190.186 277.488 191.022 277.71C191.858 277.932 192.764 277.251 193.045 276.189Z" fill="#F29111"/>
<path d="M191.748 280.992C192.03 279.93 191.58 278.889 190.744 278.668C189.908 278.446 189.002 279.127 188.72 280.189C188.439 281.251 188.889 282.291 189.725 282.513C190.561 282.735 191.467 282.054 191.748 280.992Z" fill="#F29111"/>
<path d="M204.428 279.226C204.71 278.164 204.26 277.124 203.424 276.902C202.588 276.68 201.682 277.361 201.4 278.423C201.119 279.485 201.568 280.526 202.405 280.747C203.241 280.969 204.147 280.288 204.428 279.226Z" fill="#F29111"/>
<path d="M203.178 284.01C203.46 282.948 203.01 281.907 202.174 281.685C201.338 281.463 200.432 282.144 200.15 283.206C199.869 284.268 200.318 285.309 201.155 285.531C201.991 285.752 202.897 285.071 203.178 284.01Z" fill="#F29111"/>
<path d="M215.827 282.236C216.108 281.174 215.658 280.134 214.822 279.912C213.986 279.69 213.08 280.371 212.799 281.433C212.517 282.495 212.967 283.535 213.803 283.757C214.639 283.979 215.545 283.298 215.827 282.236Z" fill="#F29111"/>
<path d="M214.569 287.015C214.85 285.954 214.4 284.913 213.564 284.691C212.728 284.469 211.822 285.15 211.541 286.212C211.259 287.274 211.709 288.315 212.545 288.536C213.381 288.758 214.287 288.077 214.569 287.015Z" fill="#F29111"/>
<path d="M196.834 277.201C197.116 276.139 196.666 275.098 195.83 274.877C194.994 274.655 194.088 275.336 193.806 276.398C193.525 277.459 193.975 278.5 194.811 278.722C195.647 278.944 196.553 278.263 196.834 277.201Z" fill="#F29111"/>
<path d="M195.577 281.982C195.858 280.92 195.408 279.88 194.572 279.658C193.736 279.436 192.83 280.117 192.549 281.179C192.267 282.241 192.717 283.281 193.553 283.503C194.389 283.725 195.295 283.044 195.577 281.982Z" fill="#F29111"/>
<path d="M208.241 280.246C208.522 279.184 208.072 278.143 207.236 277.921C206.4 277.7 205.494 278.381 205.213 279.443C204.931 280.504 205.381 281.545 206.217 281.767C207.053 281.989 207.959 281.308 208.241 280.246Z" fill="#F29111"/>
<path d="M206.959 285.019C207.241 283.957 206.791 282.917 205.955 282.695C205.119 282.473 204.213 283.154 203.931 284.216C203.65 285.278 204.1 286.319 204.936 286.54C205.772 286.762 206.678 286.081 206.959 285.019Z" fill="#F29111"/>
<path d="M219.639 283.254C219.921 282.192 219.471 281.151 218.635 280.929C217.798 280.707 216.893 281.388 216.611 282.45C216.33 283.512 216.779 284.553 217.616 284.775C218.452 284.997 219.358 284.316 219.639 283.254Z" fill="#F29111"/>
</g>
<mask id="mask1_2831_13500" style="mask-type:luminance" maskUnits="userSpaceOnUse" x="140" y="242" width="34" height="29">
<path d="M151.019 270.614C159.844 272.964 169.815 264.164 173.309 250.963L141.41 242.494C137.886 255.695 142.193 268.263 151.019 270.614Z" fill="white"/>
</mask>
<g mask="url(#mask1_2831_13500)">
<path d="M144.353 242.775C144.634 241.713 144.289 240.7 143.581 240.512C142.874 240.324 142.072 241.033 141.791 242.095C141.509 243.157 141.855 244.17 142.562 244.357C143.27 244.545 144.072 243.837 144.353 242.775Z" fill="#F29111"/>
<path d="M143.095 247.583C143.377 246.521 143.031 245.508 142.324 245.321C141.616 245.133 140.814 245.842 140.533 246.903C140.252 247.965 140.597 248.978 141.305 249.166C142.012 249.354 142.814 248.645 143.095 247.583Z" fill="#F29111"/>
<path d="M141.814 252.357C142.095 251.295 141.75 250.282 141.042 250.094C140.335 249.906 139.533 250.615 139.252 251.677C138.97 252.739 139.316 253.752 140.023 253.939C140.731 254.127 141.532 253.419 141.814 252.357Z" fill="#F29111"/>
<path d="M140.556 257.138C140.837 256.076 140.492 255.063 139.785 254.875C139.077 254.688 138.275 255.396 137.994 256.458C137.712 257.52 138.058 258.533 138.765 258.721C139.473 258.908 140.275 258.2 140.556 257.138Z" fill="#F29111"/>
<path d="M153.915 245.337C154.197 244.275 153.851 243.262 153.144 243.075C152.436 242.887 151.635 243.595 151.353 244.657C151.072 245.719 151.417 246.732 152.125 246.92C152.832 247.108 153.634 246.399 153.915 245.337Z" fill="#F29111"/>
<path d="M152.658 250.116C152.939 249.055 152.594 248.042 151.886 247.854C151.179 247.666 150.377 248.375 150.095 249.437C149.814 250.499 150.159 251.512 150.867 251.699C151.575 251.887 152.376 251.178 152.658 250.116Z" fill="#F29111"/>
<path d="M151.384 254.888C151.666 253.826 151.32 252.813 150.613 252.625C149.905 252.438 149.103 253.146 148.822 254.208C148.541 255.27 148.886 256.283 149.594 256.471C150.301 256.658 151.103 255.95 151.384 254.888Z" fill="#F29111"/>
<path d="M150.126 259.669C150.408 258.607 150.062 257.594 149.355 257.407C148.647 257.219 147.846 257.927 147.564 258.989C147.283 260.051 147.628 261.064 148.336 261.252C149.043 261.44 149.845 260.731 150.126 259.669Z" fill="#F29111"/>
<path d="M164.759 243.095C165.041 242.033 164.695 241.02 163.988 240.832C163.28 240.645 162.478 241.353 162.197 242.415C161.916 243.477 162.261 244.49 162.969 244.678C163.676 244.865 164.478 244.157 164.759 243.095Z" fill="#F29111"/>
<path d="M163.509 247.876C163.791 246.814 163.445 245.801 162.738 245.614C162.03 245.426 161.228 246.135 160.947 247.196C160.666 248.258 161.011 249.271 161.719 249.459C162.426 249.647 163.228 248.938 163.509 247.876Z" fill="#F29111"/>
<path d="M162.228 252.65C162.509 251.588 162.164 250.575 161.456 250.387C160.749 250.199 159.947 250.908 159.666 251.97C159.384 253.032 159.73 254.045 160.437 254.232C161.145 254.42 161.947 253.712 162.228 252.65Z" fill="#F29111"/>
<path d="M160.978 257.431C161.259 256.369 160.914 255.356 160.206 255.168C159.499 254.981 158.697 255.689 158.416 256.751C158.134 257.813 158.48 258.826 159.187 259.014C159.895 259.201 160.697 258.493 160.978 257.431Z" fill="#F29111"/>
<path d="M159.697 262.202C159.978 261.14 159.633 260.127 158.925 259.94C158.218 259.752 157.416 260.461 157.135 261.523C156.853 262.584 157.199 263.597 157.906 263.785C158.614 263.973 159.415 263.264 159.697 262.202Z" fill="#F29111"/>
<path d="M175.611 240.853C175.892 239.791 175.547 238.778 174.839 238.59C174.132 238.402 173.33 239.111 173.049 240.173C172.767 241.235 173.113 242.248 173.82 242.436C174.528 242.623 175.329 241.915 175.611 240.853Z" fill="#F29111"/>
<path d="M174.33 245.626C174.611 244.564 174.266 243.551 173.558 243.364C172.85 243.176 172.049 243.885 171.767 244.946C171.486 246.008 171.831 247.021 172.539 247.209C173.246 247.397 174.048 246.688 174.33 245.626Z" fill="#F29111"/>
<path d="M173.08 250.407C173.361 249.346 173.015 248.333 172.308 248.145C171.6 247.957 170.799 248.666 170.517 249.728C170.236 250.79 170.581 251.803 171.289 251.99C171.996 252.178 172.798 251.469 173.08 250.407Z" fill="#F29111"/>
<path d="M171.79 255.181C172.072 254.119 171.726 253.106 171.019 252.918C170.311 252.731 169.51 253.439 169.228 254.501C168.947 255.563 169.292 256.576 170 256.764C170.707 256.951 171.509 256.243 171.79 255.181Z" fill="#F29111"/>
<path d="M170.54 259.96C170.822 258.898 170.476 257.885 169.769 257.698C169.061 257.51 168.26 258.219 167.978 259.28C167.697 260.342 168.042 261.355 168.75 261.543C169.457 261.731 170.259 261.022 170.54 259.96Z" fill="#F29111"/>
<path d="M169.29 264.739C169.572 263.678 169.226 262.665 168.519 262.477C167.811 262.289 167.01 262.998 166.728 264.06C166.447 265.122 166.792 266.135 167.5 266.322C168.207 266.51 169.009 265.801 169.29 264.739Z" fill="#F29111"/>
<path d="M147.533 243.648C147.814 242.586 147.469 241.573 146.761 241.385C146.054 241.197 145.252 241.906 144.97 242.968C144.689 244.03 145.034 245.043 145.742 245.231C146.45 245.418 147.251 244.71 147.533 243.648Z" fill="#F29111"/>
<path d="M146.29 248.427C146.572 247.365 146.226 246.352 145.519 246.164C144.811 245.977 144.01 246.685 143.728 247.747C143.447 248.809 143.792 249.822 144.5 250.01C145.207 250.198 146.009 249.489 146.29 248.427Z" fill="#F29111"/>
<path d="M145.001 253.2C145.283 252.139 144.937 251.126 144.23 250.938C143.522 250.75 142.721 251.459 142.439 252.521C142.158 253.583 142.503 254.596 143.211 254.783C143.918 254.971 144.72 254.262 145.001 253.2Z" fill="#F29111"/>
<path d="M143.744 257.98C144.025 256.918 143.68 255.905 142.972 255.717C142.265 255.529 141.463 256.238 141.181 257.3C140.9 258.362 141.245 259.375 141.953 259.563C142.661 259.75 143.462 259.042 143.744 257.98Z" fill="#F29111"/>
<path d="M158.384 241.407C158.666 240.346 158.32 239.333 157.613 239.145C156.905 238.957 156.103 239.666 155.822 240.728C155.541 241.79 155.886 242.803 156.594 242.99C157.301 243.178 158.103 242.469 158.384 241.407Z" fill="#F29111"/>
<path d="M157.103 246.179C157.384 245.117 157.039 244.104 156.331 243.916C155.624 243.729 154.822 244.437 154.541 245.499C154.259 246.561 154.605 247.574 155.312 247.762C156.02 247.949 156.822 247.241 157.103 246.179Z" fill="#F29111"/>
<path d="M155.845 250.96C156.127 249.898 155.781 248.885 155.074 248.698C154.366 248.51 153.564 249.219 153.283 250.28C153.002 251.342 153.347 252.355 154.055 252.543C154.762 252.731 155.564 252.022 155.845 250.96Z" fill="#F29111"/>
<path d="M154.595 255.741C154.877 254.68 154.531 253.667 153.824 253.479C153.116 253.291 152.314 254 152.033 255.062C151.752 256.124 152.097 257.137 152.805 257.324C153.512 257.512 154.314 256.803 154.595 255.741Z" fill="#F29111"/>
<path d="M153.314 260.515C153.595 259.453 153.25 258.44 152.542 258.252C151.835 258.065 151.033 258.773 150.752 259.835C150.47 260.897 150.816 261.91 151.523 262.098C152.231 262.285 153.032 261.577 153.314 260.515Z" fill="#F29111"/>
<path d="M167.947 243.941C168.228 242.879 167.883 241.866 167.175 241.678C166.468 241.49 165.666 242.199 165.385 243.261C165.103 244.323 165.449 245.336 166.156 245.523C166.864 245.711 167.665 245.003 167.947 243.941Z" fill="#F29111"/>
<path d="M166.697 248.72C166.978 247.658 166.633 246.645 165.925 246.457C165.218 246.27 164.416 246.978 164.135 248.04C163.853 249.102 164.199 250.115 164.906 250.303C165.614 250.49 166.415 249.782 166.697 248.72Z" fill="#F29111"/>
<path d="M165.415 253.493C165.697 252.431 165.351 251.418 164.644 251.231C163.936 251.043 163.135 251.752 162.853 252.814C162.572 253.875 162.917 254.888 163.625 255.076C164.332 255.264 165.134 254.555 165.415 253.493Z" fill="#F29111"/>
<path d="M164.158 258.273C164.439 257.211 164.094 256.198 163.386 256.01C162.679 255.822 161.877 256.531 161.595 257.593C161.314 258.655 161.66 259.668 162.367 259.856C163.075 260.043 163.876 259.335 164.158 258.273Z" fill="#F29111"/>
<path d="M162.884 263.046C163.166 261.984 162.82 260.971 162.113 260.784C161.405 260.596 160.603 261.304 160.322 262.366C160.041 263.428 160.386 264.441 161.094 264.629C161.801 264.817 162.603 264.108 162.884 263.046Z" fill="#F29111"/>
<path d="M150.728 244.493C151.009 243.431 150.664 242.418 149.956 242.231C149.249 242.043 148.447 242.752 148.166 243.814C147.884 244.875 148.23 245.888 148.937 246.076C149.645 246.264 150.447 245.555 150.728 244.493Z" fill="#F29111"/>
<path d="M149.478 249.273C149.759 248.211 149.414 247.198 148.706 247.01C147.999 246.822 147.197 247.531 146.916 248.593C146.634 249.655 146.98 250.668 147.687 250.856C148.395 251.043 149.197 250.335 149.478 249.273Z" fill="#F29111"/>
<path d="M148.197 254.046C148.478 252.984 148.133 251.971 147.425 251.784C146.718 251.596 145.916 252.304 145.635 253.366C145.353 254.428 145.699 255.441 146.406 255.629C147.114 255.817 147.915 255.108 148.197 254.046Z" fill="#F29111"/>
<path d="M146.939 258.827C147.22 257.765 146.875 256.752 146.167 256.565C145.46 256.377 144.658 257.086 144.377 258.148C144.095 259.209 144.441 260.222 145.148 260.41C145.856 260.598 146.657 259.889 146.939 258.827Z" fill="#F29111"/>
<path d="M161.58 242.253C161.861 241.191 161.516 240.178 160.808 239.991C160.1 239.803 159.299 240.511 159.017 241.573C158.736 242.635 159.081 243.648 159.789 243.836C160.496 244.024 161.298 243.315 161.58 242.253Z" fill="#F29111"/>
<path d="M160.322 247.032C160.603 245.971 160.258 244.958 159.55 244.77C158.843 244.582 158.041 245.291 157.76 246.353C157.478 247.415 157.824 248.428 158.531 248.615C159.239 248.803 160.04 248.094 160.322 247.032Z" fill="#F29111"/>
<path d="M159.04 251.806C159.322 250.744 158.976 249.731 158.269 249.543C157.561 249.356 156.76 250.064 156.478 251.126C156.197 252.188 156.542 253.201 157.25 253.389C157.957 253.576 158.759 252.868 159.04 251.806Z" fill="#F29111"/>
<path d="M157.79 256.585C158.072 255.523 157.726 254.51 157.019 254.323C156.311 254.135 155.51 254.844 155.228 255.905C154.947 256.967 155.292 257.98 156 258.168C156.707 258.356 157.509 257.647 157.79 256.585Z" fill="#F29111"/>
<path d="M156.501 261.357C156.783 260.295 156.437 259.282 155.73 259.094C155.022 258.906 154.221 259.615 153.939 260.677C153.658 261.739 154.003 262.752 154.711 262.939C155.418 263.127 156.22 262.419 156.501 261.357Z" fill="#F29111"/>
<path d="M171.134 244.782C171.416 243.721 171.07 242.708 170.363 242.52C169.655 242.332 168.853 243.041 168.572 244.103C168.291 245.165 168.636 246.178 169.344 246.365C170.051 246.553 170.853 245.844 171.134 244.782Z" fill="#F29111"/>
<path d="M169.892 249.562C170.173 248.5 169.828 247.487 169.12 247.299C168.413 247.111 167.611 247.82 167.33 248.882C167.048 249.944 167.394 250.957 168.101 251.145C168.809 251.332 169.611 250.624 169.892 249.562Z" fill="#F29111"/>
<path d="M168.603 254.335C168.884 253.273 168.539 252.26 167.831 252.073C167.124 251.885 166.322 252.594 166.041 253.655C165.759 254.717 166.105 255.73 166.812 255.918C167.52 256.106 168.322 255.397 168.603 254.335Z" fill="#F29111"/>
<path d="M167.345 259.114C167.627 258.053 167.281 257.04 166.574 256.852C165.866 256.664 165.064 257.373 164.783 258.435C164.502 259.497 164.847 260.51 165.555 260.697C166.262 260.885 167.064 260.176 167.345 259.114Z" fill="#F29111"/>
<path d="M166.064 263.888C166.345 262.826 166 261.813 165.292 261.625C164.585 261.438 163.783 262.146 163.502 263.208C163.22 264.27 163.566 265.283 164.273 265.471C164.981 265.658 165.783 264.95 166.064 263.888Z" fill="#F29111"/>
<path d="M148.869 264.448C149.15 263.387 148.805 262.374 148.097 262.186C147.39 261.998 146.588 262.707 146.306 263.769C146.025 264.831 146.37 265.844 147.078 266.031C147.786 266.219 148.587 265.51 148.869 264.448Z" fill="#F29111"/>
<path d="M147.595 269.222C147.877 268.16 147.531 267.147 146.824 266.959C146.116 266.772 145.314 267.48 145.033 268.542C144.752 269.604 145.097 270.617 145.805 270.805C146.512 270.992 147.314 270.284 147.595 269.222Z" fill="#F29111"/>
<path d="M158.439 266.984C158.72 265.922 158.375 264.909 157.667 264.721C156.96 264.533 156.158 265.242 155.877 266.304C155.595 267.366 155.941 268.379 156.648 268.566C157.356 268.754 158.157 268.045 158.439 266.984Z" fill="#F29111"/>
<path d="M157.158 271.755C157.439 270.693 157.094 269.68 156.386 269.492C155.679 269.305 154.877 270.013 154.595 271.075C154.314 272.137 154.659 273.15 155.367 273.338C156.075 273.526 156.876 272.817 157.158 271.755Z" fill="#F29111"/>
<path d="M168.001 269.513C168.283 268.451 167.937 267.438 167.23 267.25C166.522 267.063 165.721 267.771 165.439 268.833C165.158 269.895 165.503 270.908 166.211 271.096C166.918 271.283 167.72 270.575 168.001 269.513Z" fill="#F29111"/>
<path d="M142.462 262.753C142.744 261.691 142.398 260.678 141.691 260.491C140.983 260.303 140.182 261.011 139.9 262.073C139.619 263.135 139.964 264.148 140.672 264.336C141.379 264.524 142.181 263.815 142.462 262.753Z" fill="#F29111"/>
<path d="M141.212 267.532C141.494 266.471 141.148 265.458 140.441 265.27C139.733 265.082 138.932 265.791 138.65 266.853C138.369 267.915 138.714 268.928 139.422 269.115C140.129 269.303 140.931 268.594 141.212 267.532Z" fill="#F29111"/>
<path d="M152.056 265.294C152.337 264.232 151.992 263.219 151.285 263.032C150.577 262.844 149.775 263.553 149.494 264.614C149.212 265.676 149.558 266.689 150.265 266.877C150.973 267.065 151.775 266.356 152.056 265.294Z" fill="#F29111"/>
<path d="M150.783 270.068C151.064 269.006 150.719 267.993 150.011 267.805C149.304 267.617 148.502 268.326 148.22 269.388C147.939 270.45 148.285 271.463 148.992 271.65C149.7 271.838 150.501 271.129 150.783 270.068Z" fill="#F29111"/>
<path d="M161.626 267.825C161.908 266.764 161.562 265.751 160.855 265.563C160.147 265.375 159.346 266.084 159.064 267.146C158.783 268.208 159.128 269.221 159.836 269.408C160.543 269.596 161.345 268.887 161.626 267.825Z" fill="#F29111"/>
<path d="M160.369 272.605C160.65 271.543 160.305 270.53 159.597 270.342C158.89 270.154 158.088 270.863 157.806 271.925C157.525 272.987 157.87 274 158.578 274.188C159.286 274.375 160.087 273.667 160.369 272.605Z" fill="#F29111"/>
<path d="M145.65 263.601C145.931 262.539 145.586 261.526 144.878 261.338C144.171 261.15 143.369 261.859 143.088 262.921C142.806 263.983 143.152 264.996 143.859 265.184C144.567 265.371 145.368 264.663 145.65 263.601Z" fill="#F29111"/>
<path d="M144.408 268.38C144.689 267.318 144.344 266.305 143.636 266.117C142.929 265.93 142.127 266.638 141.845 267.7C141.564 268.762 141.91 269.775 142.617 269.963C143.325 270.151 144.126 269.442 144.408 268.38Z" fill="#F29111"/>
<path d="M155.244 266.138C155.525 265.076 155.18 264.063 154.472 263.875C153.765 263.688 152.963 264.396 152.681 265.458C152.4 266.52 152.745 267.533 153.453 267.721C154.161 267.908 154.962 267.2 155.244 266.138Z" fill="#F29111"/>
<path d="M153.962 270.909C154.244 269.847 153.898 268.834 153.191 268.647C152.483 268.459 151.682 269.168 151.4 270.23C151.119 271.292 151.464 272.305 152.172 272.492C152.879 272.68 153.681 271.971 153.962 270.909Z" fill="#F29111"/>
<path d="M164.814 268.669C165.095 267.607 164.75 266.594 164.042 266.407C163.335 266.219 162.533 266.927 162.252 267.989C161.97 269.051 162.316 270.064 163.023 270.252C163.731 270.44 164.532 269.731 164.814 268.669Z" fill="#F29111"/>
<path d="M163.556 273.45C163.837 272.389 163.492 271.376 162.785 271.188C162.077 271 161.275 271.709 160.994 272.771C160.712 273.833 161.058 274.846 161.765 275.033C162.473 275.221 163.275 274.512 163.556 273.45Z" fill="#F29111"/>
</g>
<path fill-rule="evenodd" clip-rule="evenodd" d="M154.069 288.37C153.159 291.814 155.581 295.68 159.836 296.785C164.093 297.891 168.089 295.697 168.973 292.254L171.301 292.852C170.017 297.849 164.493 300.477 159.232 299.111C153.969 297.745 150.426 292.75 151.746 287.756L154.069 288.37Z" fill="#FF9100"/>
<path fill-rule="evenodd" clip-rule="evenodd" d="M171.296 292.829C170.386 296.273 172.807 300.139 177.063 301.244C181.32 302.35 185.315 300.156 186.2 296.713L188.527 297.311C187.243 302.308 181.72 304.936 176.459 303.57C171.195 302.204 167.653 297.209 168.972 292.215L171.296 292.829Z" fill="#FF9100"/>
<path d="M54.6442 278.357L53.9514 282.426L52.4453 282.155L53.1381 278.086L54.6442 278.357Z" fill="#D83030"/>
<path d="M53.2333 276.158C52.3296 276.007 51.4862 276.61 51.3356 277.514C51.185 278.418 51.7874 279.262 52.661 279.413L54.649 279.744C55.5526 279.895 56.3961 279.292 56.5165 278.418C56.6672 277.514 56.0647 276.67 55.1912 276.519L53.2333 276.158Z" fill="white"/>
<path d="M47.7145 277.181L47.0217 281.25L45.5156 280.979L46.2084 276.91L47.7145 277.181Z" fill="#D83030"/>
<path d="M46.3348 274.953C45.4312 274.802 44.5878 275.405 44.4372 276.279C44.2866 277.183 44.889 278.027 45.7625 278.178L47.7506 278.509C48.6542 278.66 49.4976 278.057 49.6482 277.183C49.7988 276.279 49.1964 275.435 48.2928 275.284L46.3348 274.953Z" fill="white"/>
<path d="M40.7926 276.008L40.0998 280.076L38.5938 279.805L39.2866 275.736L40.7926 276.008Z" fill="#D83030"/>
<path d="M39.4375 273.777C38.5339 273.626 37.6905 274.229 37.57 275.103C37.4194 276.007 38.0218 276.851 38.8953 277.002L40.8834 277.333C41.787 277.484 42.6304 276.881 42.781 276.007C42.9317 275.103 42.3292 274.259 41.4557 274.139L39.4375 273.777Z" fill="white"/>
<path d="M33.8864 274.832L33.1936 278.901L31.6875 278.629L32.3803 274.561L33.8864 274.832Z" fill="#D83030"/>
<path d="M32.5391 272.601C31.6354 272.451 30.792 273.053 30.6715 273.927C30.5209 274.832 31.1234 275.675 31.9969 275.826L33.9849 276.158C34.8886 276.308 35.732 275.706 35.8525 274.832C36.0031 273.927 35.4007 273.083 34.5271 272.963L32.5391 272.601Z" fill="white"/>
<path d="M26.9958 273.654L26.303 277.723L24.7969 277.452L25.4897 273.383L26.9958 273.654Z" fill="#D83030"/>
<path d="M25.6083 271.427C24.7046 271.277 23.8612 271.879 23.7106 272.784C23.56 273.688 24.1624 274.532 25.036 274.652L27.024 274.984C27.9276 275.134 28.7711 274.532 28.8916 273.658C29.0422 272.753 28.4397 271.91 27.5361 271.759L25.6083 271.427Z" fill="white"/>
<path d="M20.1208 272.451L19.428 276.52L17.9219 276.248L18.6147 272.18L20.1208 272.451Z" fill="#D83030"/>
<path d="M18.7098 270.22C17.8062 270.07 16.9628 270.672 16.8122 271.546C16.6616 272.451 17.264 273.295 18.1375 273.445L20.1256 273.777C21.0292 273.927 21.8726 273.325 22.0232 272.451C22.1738 271.546 21.5714 270.703 20.6979 270.582L18.7098 270.22Z" fill="white"/>
<path d="M163.955 315.157C167.419 308.346 182.661 306.387 196.667 317.448C209.831 327.845 210.041 335.501 226.006 344.331C241.971 353.162 252.784 344.814 271.339 352.167C290.587 359.793 302.003 381.432 281.942 417.719C261.881 454.006 232.844 458.346 214.439 437.671C204.65 426.67 204.469 410.215 185.763 408.165C171.305 406.568 164.136 404.729 158.473 399.817C152.81 394.874 151.515 391.107 153.473 387.611C156.786 381.583 170.552 394.301 176.847 382.969C181.456 374.651 178.805 369.377 173.323 366.212L172.419 350.208L173.443 348.37C173.443 348.37 178.805 348.37 182.781 341.197C186.757 334.024 179.287 326.851 172.781 324.651C166.275 322.39 161.696 319.648 163.955 315.157Z" fill="#D83030"/>
<path d="M186.487 356.779C185.854 352.831 187.3 348.22 189.318 348.129C191.337 348.009 193.746 349.636 198.355 353.645C202.964 357.653 210.916 361.933 220.976 362.958C231.037 363.982 235.013 364.103 241.188 367.328C247.363 370.553 253.659 375.767 247.062 387.732C240.465 399.667 231.609 407.804 231.79 419.076C231.971 430.348 231.971 431.463 231.76 435.562C231.459 441.559 225.645 442.464 220.073 437.762C214.079 432.668 210.675 423.838 207.512 418.684C204.379 413.53 198.054 405.905 184.318 403.886C170.583 401.867 169.8 402.349 164.739 399.335C159.679 396.321 158.414 393.579 158.926 392.704C159.408 391.83 172.209 397.497 179.318 389.63C189.379 378.449 187.692 364.163 186.487 356.779Z" fill="white"/>
<path d="M197.003 391.047C198.388 391.378 199.804 390.565 200.135 389.148L206.431 363.892C206.762 362.505 205.949 361.089 204.533 360.757C203.147 360.426 201.732 361.24 201.4 362.656L195.105 387.942C194.774 389.299 195.587 390.715 197.003 391.047Z" fill="#2E2E2E"/>
<path d="M217.784 400.269C219.169 400.601 220.585 399.787 220.916 398.371L227.212 373.114C227.543 371.728 226.73 370.311 225.314 369.98C223.929 369.648 222.513 370.462 222.182 371.879L215.886 397.135C215.555 398.521 216.368 399.938 217.784 400.269Z" fill="#2E2E2E"/>
<path d="M186.221 375.494C191.944 371.907 195.348 365.759 195.348 359.008C148.147 334.144 102.995 310.424 59.9507 287.82C57.9928 291.377 56.0048 294.933 54.0469 298.489C96.0065 323.022 140.075 348.701 186.221 375.494Z" fill="#9D6240"/>
<path d="M59.917 287.822C59.1038 287.37 58.0495 286.074 57.8085 284.024C57.5675 281.975 57.4772 281.523 56.0916 281.071C54.706 280.618 20.6985 274.651 17.4453 274.229C14.162 273.777 11.933 275.435 10.3968 279.081C8.8907 282.728 9.94497 285.863 12.7764 286.887C15.6079 287.912 18.1983 284.235 23.1383 288.093C28.1084 291.951 38.0486 300.54 42.9886 301.505C44.6453 301.836 50.7901 296.743 53.983 298.521L59.917 287.822Z" fill="#2E2E2E"/>
<path d="M241.311 412.175C243.42 413.32 246.04 412.567 247.215 410.487L256.673 393.399C257.848 391.289 257.065 388.667 254.987 387.492L250.559 385.05C248.45 383.875 245.829 384.659 244.655 386.738L235.196 403.827C234.022 405.936 234.805 408.559 236.883 409.734L241.311 412.175Z" fill="#B22222"/>
<path d="M239.147 410.968C241.256 412.113 243.876 411.36 245.051 409.28L254.509 392.192C255.684 390.082 254.901 387.46 252.822 386.285L248.395 383.843C246.286 382.668 243.665 383.451 242.491 385.531L233.032 402.62C231.858 404.729 232.641 407.352 234.719 408.527L239.147 410.968Z" fill="#2E2E2E"/>
<path d="M62.2688 289.086L62.9014 289.448L56.9372 300.237L56.3047 299.876L62.2688 289.086Z" fill="#240909"/>
<path d="M72.2676 294.301L72.9002 294.662L66.6951 305.874L66.0625 305.512L72.2676 294.301Z" fill="#240909"/>
<path d="M82.2742 299.576L82.9067 299.938L76.4607 311.602L75.8281 311.24L82.2742 299.576Z" fill="#240909"/>
<path d="M86.2419 317.268L92.929 305.182L92.2964 304.82L85.6094 316.906L86.2419 317.268Z" fill="#240909"/>
<path d="M102.264 310.064L102.897 310.426L95.9685 322.934L95.3359 322.572L102.264 310.064Z" fill="#240909"/>
<path d="M112.263 315.309L112.895 315.67L105.726 328.6L105.094 328.238L112.263 315.309Z" fill="#240909"/>
<path d="M122.27 320.613L122.903 320.975L115.523 334.357L114.891 333.995L122.27 320.613Z" fill="#240909"/>
<path d="M132.269 325.855L132.902 326.217L125.281 340.021L124.648 339.659L132.269 325.855Z" fill="#240909"/>
<path d="M142.276 331.129L142.908 331.491L135.047 345.716L134.414 345.354L142.276 331.129Z" fill="#240909"/>
<path d="M152.275 336.375L152.907 336.737L144.804 351.384L144.172 351.022L152.275 336.375Z" fill="#240909"/>
<path d="M162.266 341.619L162.898 341.981L154.554 357.08L153.922 356.719L162.266 341.619Z" fill="#240909"/>
<path d="M164.358 362.746L172.913 347.225L172.28 346.863L163.695 362.385L164.358 362.746Z" fill="#240909"/>
<path d="M182.271 352.168L182.904 352.53L174.078 368.473L173.445 368.111L182.271 352.168Z" fill="#240909"/>
<path d="M183.867 374.139L192.934 357.774L192.301 357.412L183.234 373.777L183.867 374.139Z" fill="#240909"/>
<path d="M242.395 385.711L242.545 385.38L59.1338 289.207L58.9531 289.508L242.395 385.711Z" fill="white"/>
<path d="M58.1417 291.105L241.011 388.213L240.83 388.544L57.9609 291.437L58.1417 291.105Z" fill="white"/>
<path d="M238.966 391.861L239.147 391.53L57.3917 292.373L57.2109 292.674L238.966 391.861Z" fill="white"/>
<path d="M237.452 394.634L56.5401 293.971L56.3594 294.272L237.271 394.936L237.452 394.634Z" fill="white"/>
<path d="M235.74 397.707L55.6417 295.566L55.4609 295.898L235.559 398.068L235.74 397.707Z" fill="white"/>
<path d="M234.053 400.782L54.7979 297.135L54.6172 297.436L233.872 401.083L234.053 400.782Z" fill="white"/>
<path d="M77.2913 307.794C76.654 306.591 77.1092 304.894 78.2017 304.493L89.2481 300.204C91.251 299.433 93.345 300.914 93.9519 303.505L98.8378 324.639C99.4448 327.231 98.2916 329.977 96.319 330.748L90.5227 333L77.2913 307.794Z" fill="#F29111"/>
<g filter="url(#filter4_d_2831_13500)">
<path d="M287.281 336.192L298.727 345.776C300.113 346.952 300.896 348.73 300.866 350.659L300.595 365.457C300.535 368.41 298.577 371.093 295.866 371.937L239.779 389.327C236.707 390.291 233.604 388.633 232.61 385.559L231.827 383.118C230.532 379.14 231.947 374.559 235.291 371.876L279.841 336.252C282.1 334.444 285.173 334.414 287.281 336.192Z" fill="white"/>
<path d="M235.26 371.908L263.273 349.545L261.677 382.547L239.748 389.358C236.675 390.323 233.573 388.665 232.579 385.591L231.796 383.15C230.5 379.141 231.916 374.56 235.26 371.908Z" fill="#F29111"/>
</g>
<path d="M65.8272 205.333C65.1043 204.73 64.2007 204.429 63.297 204.429C62.2427 204.459 61.1885 204.007 60.4655 203.223L60.3451 202.861C60.3149 202.741 60.1643 202.65 60.0438 202.711C59.9233 202.741 59.833 202.891 59.8932 203.012L64.1404 217.177C63.8091 216.996 63.4476 216.876 63.0861 216.816C62.1524 216.725 61.2186 216.906 60.3752 217.298C58.4775 218.172 57.3931 219.89 57.9654 221.125C58.4474 222.18 60.0438 222.542 61.6704 222.06C61.9415 221.969 62.2126 221.879 62.4536 221.758C63.297 221.397 64.05 220.794 64.5621 220.04C65.0139 219.438 65.1344 218.684 64.8633 217.991L61.8813 208.045C62.6042 208.648 63.5078 208.979 64.4717 208.979C65.6164 208.979 66.6706 209.462 67.3936 210.336C67.4237 210.366 67.514 210.396 67.5743 210.366H67.6044C67.6948 210.336 67.7249 210.245 67.6948 210.155L66.6405 206.659C66.5502 206.146 66.2791 205.664 65.8272 205.333Z" fill="#263238"/>
<path d="M94.5028 260.666C94.0209 260.244 93.4185 260.003 92.816 260.003C92.0931 260.003 91.4003 259.671 90.9183 259.099L90.8581 258.828C90.828 258.737 90.7376 258.677 90.6473 258.707C90.5569 258.737 90.5268 258.828 90.5268 258.918L93.3582 269.376C93.1474 269.256 92.9064 269.165 92.6353 269.135C92.0027 269.075 91.4003 269.195 90.828 269.497C89.5629 270.16 88.8399 271.426 89.2315 272.33C89.5629 273.113 90.6171 273.385 91.7015 273.023C91.8822 272.963 92.063 272.902 92.2136 272.812C92.7859 272.541 93.2678 272.089 93.6293 271.546C93.9305 271.124 94.0209 270.552 93.8402 270.039L91.8521 262.716C92.3341 263.168 92.9365 263.409 93.5992 263.409C94.3522 263.409 95.0752 263.77 95.5571 264.403C95.5872 264.433 95.6475 264.433 95.6776 264.433H95.7077C95.7077 264.433 95.768 264.343 95.768 264.283L95.045 261.691C94.9547 261.299 94.7438 260.967 94.4727 260.696L94.5028 260.666Z" fill="#263238"/>
<path d="M91.1288 144.904L92.3336 134.898L92.7855 131.161V130.98L83.1465 130.92L83.1164 131.131L82.6646 134.868L81.5802 144C81.0681 143.337 79.9837 142.975 78.6885 143.156C76.9414 143.427 75.5859 144.573 75.5859 145.748C75.6161 146.743 76.6703 147.436 78.0559 147.466C78.2969 147.466 78.5078 147.466 78.7487 147.406C80.4657 147.165 81.8212 146.05 81.8212 144.844L83.026 134.838L91.8818 134.898L90.7974 144C90.2854 143.337 89.201 142.975 87.9057 143.156C87.1226 143.247 86.3695 143.578 85.737 144.06C84.9237 144.543 84.5924 145.597 84.9839 146.411C85.1346 146.773 85.4358 147.014 85.8273 147.135C86.2792 147.346 86.7912 147.436 87.3033 147.436C87.5443 147.436 87.7853 147.436 88.0262 147.406C89.7733 147.165 91.1288 146.019 91.1288 144.874V144.904Z" fill="#263238"/>
<path d="M111.256 206.538L111.828 201.625L112.039 199.787V199.696L107.461 199.666V199.756L107.25 201.595L106.738 206.116C106.497 205.784 105.985 205.603 105.382 205.694C104.569 205.814 103.906 206.387 103.906 206.96C103.906 207.472 104.418 207.803 105.081 207.803C105.201 207.803 105.292 207.803 105.412 207.773C106.226 207.653 106.858 207.11 106.858 206.508L107.431 201.595L111.617 201.625L111.105 206.116C110.864 205.784 110.352 205.603 109.75 205.694C109.388 205.724 109.027 205.905 108.726 206.146C108.334 206.387 108.184 206.899 108.364 207.291C108.455 207.472 108.575 207.593 108.756 207.653C108.967 207.773 109.208 207.803 109.449 207.803C109.569 207.803 109.66 207.803 109.78 207.773C110.623 207.653 111.256 207.08 111.256 206.538Z" fill="#263238"/>
<defs>
<filter id="filter0_d_2831_13500" x="148.727" y="125" width="50.8008" height="88.9033" filterUnits="userSpaceOnUse" color-interpolation-filters="sRGB">
<feFlood flood-opacity="0" result="BackgroundImageFix"/>
<feColorMatrix in="SourceAlpha" type="matrix" values="0 0 0 0 0 0 0 0 0 0 0 0 0 0 0 0 0 0 127 0" result="hardAlpha"/>
<feOffset dy="4"/>
<feGaussianBlur stdDeviation="2"/>
<feComposite in2="hardAlpha" operator="out"/>
<feColorMatrix type="matrix" values="0 0 0 0 0 0 0 0 0 0 0 0 0 0 0 0 0 0 0.45 0"/>
<feBlend mode="normal" in2="BackgroundImageFix" result="effect1_dropShadow_2831_13500"/>
<feBlend mode="normal" in="SourceGraphic" in2="effect1_dropShadow_2831_13500" result="shape"/>
</filter>
<filter id="filter1_d_2831_13500" x="76.9453" y="281.523" width="73.0039" height="53.376" filterUnits="userSpaceOnUse" color-interpolation-filters="sRGB">
<feFlood flood-opacity="0" result="BackgroundImageFix"/>
<feColorMatrix in="SourceAlpha" type="matrix" values="0 0 0 0 0 0 0 0 0 0 0 0 0 0 0 0 0 0 127 0" result="hardAlpha"/>
<feOffset/>
<feGaussianBlur stdDeviation="4"/>
<feComposite in2="hardAlpha" operator="out"/>
<feColorMatrix type="matrix" values="0 0 0 0 0 0 0 0 0 0 0 0 0 0 0 0 0 0 0.25 0"/>
<feBlend mode="normal" in2="BackgroundImageFix" result="effect1_dropShadow_2831_13500"/>
<feBlend mode="normal" in="SourceGraphic" in2="effect1_dropShadow_2831_13500" result="shape"/>
</filter>
<filter id="filter2_d_2831_13500" x="115.906" y="159.02" width="299.391" height="214.66" filterUnits="userSpaceOnUse" color-interpolation-filters="sRGB">
<feFlood flood-opacity="0" result="BackgroundImageFix"/>
<feColorMatrix in="SourceAlpha" type="matrix" values="0 0 0 0 0 0 0 0 0 0 0 0 0 0 0 0 0 0 127 0" result="hardAlpha"/>
<feOffset dy="4"/>
<feGaussianBlur stdDeviation="2"/>
<feComposite in2="hardAlpha" operator="out"/>
<feColorMatrix type="matrix" values="0 0 0 0 0 0 0 0 0 0 0 0 0 0 0 0 0 0 0.15 0"/>
<feBlend mode="normal" in2="BackgroundImageFix" result="effect1_dropShadow_2831_13500"/>
<feBlend mode="normal" in="SourceGraphic" in2="effect1_dropShadow_2831_13500" result="shape"/>
</filter>
<filter id="filter3_d_2831_13500" x="115.906" y="155.02" width="299.391" height="214.66" filterUnits="userSpaceOnUse" color-interpolation-filters="sRGB">
<feFlood flood-opacity="0" result="BackgroundImageFix"/>
<feColorMatrix in="SourceAlpha" type="matrix" values="0 0 0 0 0 0 0 0 0 0 0 0 0 0 0 0 0 0 127 0" result="hardAlpha"/>
<feOffset/>
<feGaussianBlur stdDeviation="2"/>
<feComposite in2="hardAlpha" operator="out"/>
<feColorMatrix type="matrix" values="0 0 0 0 0 0 0 0 0 0 0 0 0 0 0 0 0 0 0.2 0"/>
<feBlend mode="normal" in2="BackgroundImageFix" result="effect1_dropShadow_2831_13500"/>
<feBlend mode="normal" in="SourceGraphic" in2="effect1_dropShadow_2831_13500" result="shape"/>
</filter>
<filter id="filter4_d_2831_13500" x="223.32" y="326.877" width="85.5469" height="70.7549" filterUnits="userSpaceOnUse" color-interpolation-filters="sRGB">
<feFlood flood-opacity="0" result="BackgroundImageFix"/>
<feColorMatrix in="SourceAlpha" type="matrix" values="0 0 0 0 0 0 0 0 0 0 0 0 0 0 0 0 0 0 127 0" result="hardAlpha"/>
<feOffset/>
<feGaussianBlur stdDeviation="4"/>
<feComposite in2="hardAlpha" operator="out"/>
<feColorMatrix type="matrix" values="0 0 0 0 0 0 0 0 0 0 0 0 0 0 0 0 0 0 0.25 0"/>
<feBlend mode="normal" in2="BackgroundImageFix" result="effect1_dropShadow_2831_13500"/>
<feBlend mode="normal" in="SourceGraphic" in2="effect1_dropShadow_2831_13500" result="shape"/>
</filter>
</defs>
</svg>
