<svg width="500" height="500" viewBox="0 0 500 500" fill="none" xmlns="http://www.w3.org/2000/svg">
<path d="M275.5 452C348.678 452 408 440.807 408 427C408 413.193 348.678 402 275.5 402C202.322 402 143 413.193 143 427C143 440.807 202.322 452 275.5 452Z" fill="#A4AFBF" fill-opacity="0.7"/>
<g filter="url(#filter0_d_2831_11954)">
<path d="M214.949 87.2911C205.273 109.84 197.558 146.609 194.648 164.147L241.51 144.95C246.247 113.192 242.153 89.6611 238.194 77.9126C237.111 74.6623 233.491 73.2403 230.277 74.4253L228.449 75.1025C222.495 77.3032 217.453 81.4677 214.949 87.2911Z" fill="url(#paint0_linear_2831_11954)"/>
<path d="M243.341 107.537C229.469 83.9382 213.364 99.1402 207.172 109.467C214.074 87.6287 213.804 82.3469 226.525 75.8802C237.623 70.226 238.672 78.8596 239.383 80.9588C240.059 82.8886 243.003 97.515 243.341 107.537Z" fill="#FF9100"/>
</g>
<g filter="url(#filter1_d_2831_11954)">
<g filter="url(#filter2_d_2831_11954)">
<path fill-rule="evenodd" clip-rule="evenodd" d="M379.357 214.289C413.327 194.922 467.328 157.307 484.82 132.252C486.445 129.916 486.106 126.869 484.313 124.702L483.772 124.059C478.629 117.965 470.407 115.391 462.726 117.626C432.072 126.497 390.218 140.04 343.289 167.125C329.755 156.663 313.515 148.639 295.311 144.204C233.326 129.036 172.288 160.896 158.957 215.372C145.626 269.849 185.077 326.323 247.063 341.525C309.048 356.693 370.086 324.833 383.417 270.356C388.087 251.295 386.293 231.996 379.357 214.289Z" fill="white"/>
</g>
</g>
<g filter="url(#filter3_d_2831_11954)">
<path d="M277.953 339.491L285.735 324.73C286.682 322.935 288.374 321.682 290.336 321.242L305.528 318.094C308.573 317.45 311.652 318.974 313.006 321.784L340.784 379.104C342.307 382.253 341.19 386.045 338.213 387.84L335.844 389.262C331.987 391.598 327.081 391.124 323.731 388.077L279.374 347.651C277.107 345.586 276.532 342.234 277.953 339.491Z" fill="white"/>
<path d="M323.729 388.077L295.883 362.65L329.921 356.691L340.782 379.105C342.304 382.254 341.188 386.046 338.21 387.84L335.876 389.262C331.985 391.598 327.045 391.124 323.729 388.077Z" fill="#F29111"/>
</g>
<path d="M484.644 132.454C476.435 142.892 461.85 159.586 434.815 179C434.815 179 449.91 150.848 444.313 142.994C438.682 135.14 405 137.35 405 137.35C419.45 131.978 446.552 120.486 465.242 117.256C471.551 116.168 477.724 118.65 482.676 122.764L483.694 123.614C486.34 125.824 486.781 129.734 484.644 132.454Z" fill="#FF9100"/>
<path d="M484.815 131.415C466.786 158.208 412.091 196.364 379.083 214L374 202.638L483.493 130.194C484.408 129.583 485.425 130.533 484.815 131.415Z" fill="#E9E6E6"/>
<path d="M314.339 259.295C305.75 294.475 268.077 322.436 224.08 311.658C180.084 300.881 152.996 257.025 161.585 221.845C170.175 186.665 209.505 166.093 253.502 176.87C297.532 187.648 322.929 224.082 314.339 259.295Z" fill="#35373A"/>
<mask id="mask0_2831_11954" style="mask-type:luminance" maskUnits="userSpaceOnUse" x="174" y="209" width="44" height="36">
<path d="M216.231 244.18C216.231 244.18 209.464 231.179 197.892 228.369C186.321 225.525 173.836 235.953 174.343 233.956C178.302 217.772 190.888 206.937 202.46 209.781C214.031 212.558 220.189 227.997 216.231 244.18Z" fill="white"/>
</mask>
<g mask="url(#mask0_2831_11954)">
<path d="M186.135 209.864C186.411 208.738 185.869 207.638 184.925 207.407C183.981 207.176 182.993 207.901 182.717 209.028C182.442 210.154 182.984 211.254 183.928 211.485C184.871 211.716 185.86 210.991 186.135 209.864Z" fill="#F29111"/>
<path d="M184.893 214.995C185.168 213.869 184.627 212.769 183.683 212.538C182.739 212.307 181.751 213.032 181.475 214.158C181.2 215.284 181.742 216.385 182.685 216.616C183.629 216.847 184.618 216.121 184.893 214.995Z" fill="#F29111"/>
<path d="M183.635 220.113C183.911 218.986 183.369 217.886 182.425 217.655C181.481 217.424 180.493 218.149 180.217 219.276C179.942 220.402 180.484 221.502 181.428 221.733C182.371 221.964 183.36 221.239 183.635 220.113Z" fill="#F29111"/>
<path d="M182.354 225.236C182.629 224.11 182.088 223.009 181.144 222.778C180.2 222.547 179.212 223.273 178.936 224.399C178.661 225.525 179.203 226.625 180.146 226.856C181.09 227.087 182.079 226.362 182.354 225.236Z" fill="#F29111"/>
<path d="M190.409 210.923C190.684 209.797 190.142 208.697 189.198 208.466C188.255 208.235 187.266 208.96 186.991 210.086C186.715 211.212 187.257 212.312 188.201 212.543C189.145 212.775 190.133 212.049 190.409 210.923Z" fill="#F29111"/>
<path d="M189.166 216.05C189.442 214.924 188.9 213.824 187.956 213.593C187.012 213.361 186.024 214.087 185.749 215.213C185.473 216.339 186.015 217.439 186.959 217.67C187.903 217.902 188.891 217.176 189.166 216.05Z" fill="#F29111"/>
<path d="M187.901 221.175C188.176 220.049 187.634 218.949 186.691 218.718C185.747 218.486 184.758 219.212 184.483 220.338C184.208 221.464 184.749 222.564 185.693 222.795C186.637 223.027 187.625 222.301 187.901 221.175Z" fill="#F29111"/>
<path d="M186.643 226.29C186.918 225.164 186.377 224.064 185.433 223.833C184.489 223.602 183.501 224.327 183.225 225.453C182.95 226.579 183.492 227.68 184.435 227.911C185.379 228.142 186.368 227.416 186.643 226.29Z" fill="#F29111"/>
<path d="M181.862 208.808C182.137 207.682 181.595 206.582 180.652 206.35C179.708 206.119 178.719 206.845 178.444 207.971C178.169 209.097 178.71 210.197 179.654 210.428C180.598 210.659 181.586 209.934 181.862 208.808Z" fill="#F29111"/>
<path d="M180.627 213.937C180.903 212.811 180.361 211.71 179.417 211.479C178.473 211.248 177.485 211.974 177.21 213.1C176.934 214.226 177.476 215.326 178.42 215.557C179.364 215.788 180.352 215.063 180.627 213.937Z" fill="#F29111"/>
<path d="M179.37 219.054C179.645 217.928 179.103 216.828 178.159 216.597C177.216 216.365 176.227 217.091 175.952 218.217C175.676 219.343 176.218 220.443 177.162 220.674C178.106 220.905 179.094 220.18 179.37 219.054Z" fill="#F29111"/>
<path d="M178.127 224.218C178.403 223.092 177.861 221.992 176.917 221.761C175.973 221.529 174.985 222.255 174.71 223.381C174.434 224.507 174.976 225.607 175.92 225.838C176.864 226.07 177.852 225.344 178.127 224.218Z" fill="#F29111"/>
<path d="M194.682 211.947C194.957 210.82 194.416 209.72 193.472 209.489C192.528 209.258 191.54 209.983 191.264 211.11C190.989 212.236 191.531 213.336 192.475 213.567C193.418 213.798 194.407 213.073 194.682 211.947Z" fill="#F29111"/>
<path d="M193.416 217.07C193.692 215.943 193.15 214.843 192.206 214.612C191.262 214.381 190.274 215.107 189.999 216.233C189.723 217.359 190.265 218.459 191.209 218.69C192.153 218.921 193.141 218.196 193.416 217.07Z" fill="#F29111"/>
<path d="M192.182 222.232C192.457 221.106 191.916 220.005 190.972 219.774C190.028 219.543 189.04 220.269 188.764 221.395C188.489 222.521 189.031 223.621 189.975 223.852C190.918 224.083 191.907 223.358 192.182 222.232Z" fill="#F29111"/>
<path d="M190.916 227.349C191.192 226.223 190.65 225.123 189.706 224.891C188.762 224.66 187.774 225.386 187.499 226.512C187.223 227.638 187.765 228.738 188.709 228.969C189.653 229.2 190.641 228.475 190.916 227.349Z" fill="#F29111"/>
<path d="M204.456 208.931C204.731 207.805 204.189 206.705 203.245 206.473C202.301 206.242 201.313 206.968 201.038 208.094C200.762 209.22 201.304 210.32 202.248 210.551C203.192 210.782 204.18 210.057 204.456 208.931Z" fill="#F29111"/>
<path d="M203.245 214.06C203.52 212.934 202.978 211.834 202.034 211.602C201.091 211.371 200.102 212.097 199.827 213.223C199.551 214.349 200.093 215.449 201.037 215.68C201.981 215.911 202.969 215.186 203.245 214.06Z" fill="#F29111"/>
<path d="M201.963 219.183C202.239 218.057 201.697 216.957 200.753 216.725C199.809 216.494 198.821 217.22 198.546 218.346C198.27 219.472 198.812 220.572 199.756 220.803C200.7 221.034 201.688 220.309 201.963 219.183Z" fill="#F29111"/>
<path d="M200.737 224.312C201.012 223.186 200.47 222.085 199.527 221.854C198.583 221.623 197.594 222.349 197.319 223.475C197.044 224.601 197.585 225.701 198.529 225.932C199.473 226.163 200.461 225.438 200.737 224.312Z" fill="#F29111"/>
<path d="M199.463 229.433C199.739 228.307 199.197 227.207 198.253 226.975C197.309 226.744 196.321 227.47 196.046 228.596C195.77 229.722 196.312 230.822 197.256 231.053C198.2 231.284 199.188 230.559 199.463 229.433Z" fill="#F29111"/>
<path d="M217.291 212.073C217.567 210.947 217.025 209.847 216.081 209.616C215.137 209.385 214.149 210.11 213.874 211.236C213.598 212.363 214.14 213.463 215.084 213.694C216.028 213.925 217.016 213.2 217.291 212.073Z" fill="#F29111"/>
<path d="M216.049 217.202C216.325 216.076 215.783 214.976 214.839 214.745C213.895 214.514 212.907 215.239 212.631 216.365C212.356 217.491 212.898 218.592 213.842 218.823C214.786 219.054 215.774 218.328 216.049 217.202Z" fill="#F29111"/>
<path d="M214.799 222.32C215.075 221.193 214.533 220.093 213.589 219.862C212.645 219.631 211.657 220.357 211.381 221.483C211.106 222.609 211.648 223.709 212.592 223.94C213.536 224.171 214.524 223.446 214.799 222.32Z" fill="#F29111"/>
<path d="M213.541 227.441C213.817 226.315 213.275 225.214 212.331 224.983C211.387 224.752 210.399 225.478 210.124 226.604C209.848 227.73 210.39 228.83 211.334 229.061C212.278 229.292 213.266 228.567 213.541 227.441Z" fill="#F29111"/>
<path d="M212.299 232.572C212.575 231.445 212.033 230.345 211.089 230.114C210.145 229.883 209.157 230.608 208.881 231.735C208.606 232.861 209.148 233.961 210.092 234.192C211.036 234.423 212.024 233.698 212.299 232.572Z" fill="#F29111"/>
<path d="M208.76 209.954C209.036 208.828 208.494 207.728 207.55 207.497C206.606 207.266 205.618 207.991 205.342 209.117C205.067 210.243 205.609 211.344 206.553 211.575C207.496 211.806 208.485 211.08 208.76 209.954Z" fill="#F29111"/>
<path d="M207.518 215.114C207.793 213.988 207.252 212.888 206.308 212.657C205.364 212.426 204.376 213.151 204.1 214.277C203.825 215.404 204.367 216.504 205.31 216.735C206.254 216.966 207.243 216.241 207.518 215.114Z" fill="#F29111"/>
<path d="M206.229 220.239C206.504 219.113 205.962 218.013 205.019 217.782C204.075 217.551 203.087 218.276 202.811 219.402C202.536 220.529 203.078 221.629 204.021 221.86C204.965 222.091 205.954 221.366 206.229 220.239Z" fill="#F29111"/>
<path d="M205.018 225.368C205.293 224.242 204.752 223.142 203.808 222.911C202.864 222.68 201.876 223.405 201.6 224.531C201.325 225.657 201.867 226.758 202.81 226.989C203.754 227.22 204.743 226.494 205.018 225.368Z" fill="#F29111"/>
<path d="M203.729 230.491C204.004 229.365 203.463 228.265 202.519 228.034C201.575 227.803 200.587 228.528 200.311 229.654C200.036 230.781 200.578 231.881 201.521 232.112C202.465 232.343 203.454 231.618 203.729 230.491Z" fill="#F29111"/>
<path d="M220.331 218.257C220.606 217.131 220.064 216.031 219.12 215.8C218.176 215.569 217.188 216.294 216.913 217.42C216.637 218.546 217.179 219.646 218.123 219.877C219.067 220.109 220.055 219.383 220.331 218.257Z" fill="#F29111"/>
<path d="M219.065 223.382C219.34 222.256 218.798 221.156 217.855 220.925C216.911 220.694 215.922 221.419 215.647 222.545C215.372 223.671 215.914 224.771 216.857 225.002C217.801 225.234 218.79 224.508 219.065 223.382Z" fill="#F29111"/>
<path d="M217.807 228.499C218.082 227.373 217.541 226.273 216.597 226.042C215.653 225.811 214.665 226.536 214.389 227.662C214.114 228.788 214.656 229.889 215.6 230.12C216.543 230.351 217.532 229.625 217.807 228.499Z" fill="#F29111"/>
<path d="M216.565 233.63C216.84 232.504 216.298 231.404 215.355 231.173C214.411 230.942 213.422 231.667 213.147 232.793C212.872 233.919 213.414 235.019 214.357 235.251C215.301 235.482 216.29 234.756 216.565 233.63Z" fill="#F29111"/>
<path d="M200.237 207.884C200.512 206.758 199.97 205.658 199.027 205.427C198.083 205.195 197.094 205.921 196.819 207.047C196.544 208.173 197.085 209.273 198.029 209.504C198.973 209.736 199.961 209.01 200.237 207.884Z" fill="#F29111"/>
<path d="M198.948 213.003C199.223 211.877 198.681 210.777 197.737 210.546C196.794 210.315 195.805 211.04 195.53 212.166C195.254 213.292 195.796 214.392 196.74 214.624C197.684 214.855 198.672 214.129 198.948 213.003Z" fill="#F29111"/>
<path d="M197.69 218.124C197.965 216.998 197.423 215.898 196.48 215.667C195.536 215.436 194.547 216.161 194.272 217.287C193.997 218.413 194.539 219.514 195.482 219.745C196.426 219.976 197.415 219.25 197.69 218.124Z" fill="#F29111"/>
<path d="M196.456 223.255C196.731 222.129 196.189 221.029 195.245 220.798C194.301 220.567 193.313 221.292 193.038 222.418C192.762 223.544 193.304 224.644 194.248 224.876C195.192 225.107 196.18 224.381 196.456 223.255Z" fill="#F29111"/>
<path d="M195.19 228.378C195.465 227.252 194.923 226.152 193.98 225.921C193.036 225.69 192.047 226.415 191.772 227.541C191.497 228.667 192.039 229.767 192.982 229.999C193.926 230.23 194.915 229.504 195.19 228.378Z" fill="#F29111"/>
<path d="M213.026 211.017C213.301 209.891 212.759 208.791 211.816 208.559C210.872 208.328 209.883 209.054 209.608 210.18C209.333 211.306 209.874 212.406 210.818 212.637C211.762 212.868 212.75 212.143 213.026 211.017Z" fill="#F29111"/>
<path d="M211.784 216.146C212.059 215.02 211.517 213.919 210.573 213.688C209.63 213.457 208.641 214.183 208.366 215.309C208.09 216.435 208.632 217.535 209.576 217.766C210.52 217.997 211.508 217.272 211.784 216.146Z" fill="#F29111"/>
<path d="M210.526 221.263C210.801 220.137 210.259 219.037 209.316 218.806C208.372 218.574 207.383 219.3 207.108 220.426C206.833 221.552 207.374 222.652 208.318 222.883C209.262 223.114 210.25 222.389 210.526 221.263Z" fill="#F29111"/>
<path d="M209.291 226.392C209.567 225.266 209.025 224.166 208.081 223.934C207.137 223.703 206.149 224.429 205.874 225.555C205.598 226.681 206.14 227.781 207.084 228.012C208.028 228.243 209.016 227.518 209.291 226.392Z" fill="#F29111"/>
<path d="M208.026 231.513C208.301 230.387 207.759 229.287 206.816 229.056C205.872 228.824 204.883 229.55 204.608 230.676C204.333 231.802 204.874 232.902 205.818 233.133C206.762 233.364 207.75 232.639 208.026 231.513Z" fill="#F29111"/>
<path d="M220.831 234.685C221.106 233.559 220.564 232.459 219.62 232.227C218.676 231.996 217.688 232.722 217.413 233.848C217.137 234.974 217.679 236.074 218.623 236.305C219.567 236.536 220.555 235.811 220.831 234.685Z" fill="#F29111"/>
<path d="M181.143 230.363C181.418 229.236 180.877 228.136 179.933 227.905C178.989 227.674 178.001 228.399 177.725 229.526C177.45 230.652 177.992 231.752 178.935 231.983C179.879 232.214 180.868 231.489 181.143 230.363Z" fill="#F29111"/>
<path d="M179.846 235.488C180.122 234.361 179.58 233.261 178.636 233.03C177.692 232.799 176.704 233.525 176.428 234.651C176.153 235.777 176.695 236.877 177.639 237.108C178.582 237.339 179.571 236.614 179.846 235.488Z" fill="#F29111"/>
<path d="M185.409 231.421C185.684 230.295 185.142 229.195 184.198 228.964C183.255 228.733 182.266 229.458 181.991 230.584C181.715 231.71 182.257 232.81 183.201 233.042C184.145 233.273 185.133 232.547 185.409 231.421Z" fill="#F29111"/>
<path d="M184.151 236.544C184.426 235.418 183.884 234.318 182.941 234.087C181.997 233.856 181.008 234.581 180.733 235.707C180.458 236.833 180.999 237.933 181.943 238.165C182.887 238.396 183.875 237.67 184.151 236.544Z" fill="#F29111"/>
<path d="M176.838 229.341C177.114 228.215 176.572 227.115 175.628 226.884C174.684 226.653 173.696 227.378 173.421 228.504C173.145 229.63 173.687 230.73 174.631 230.961C175.575 231.193 176.563 230.467 176.838 229.341Z" fill="#F29111"/>
<path d="M175.581 234.456C175.856 233.33 175.314 232.23 174.37 231.999C173.426 231.768 172.438 232.493 172.163 233.619C171.887 234.745 172.429 235.846 173.373 236.077C174.317 236.308 175.305 235.582 175.581 234.456Z" fill="#F29111"/>
<path d="M189.674 232.478C189.95 231.352 189.408 230.251 188.464 230.02C187.52 229.789 186.532 230.515 186.256 231.641C185.981 232.767 186.523 233.867 187.467 234.098C188.411 234.329 189.399 233.604 189.674 232.478Z" fill="#F29111"/>
<path d="M188.416 237.599C188.692 236.473 188.15 235.373 187.206 235.141C186.262 234.91 185.274 235.636 184.999 236.762C184.723 237.888 185.265 238.988 186.209 239.219C187.153 239.45 188.141 238.725 188.416 237.599Z" fill="#F29111"/>
<path d="M198.245 234.564C198.52 233.438 197.978 232.337 197.034 232.106C196.091 231.875 195.102 232.601 194.827 233.727C194.551 234.853 195.093 235.953 196.037 236.184C196.981 236.415 197.969 235.69 198.245 234.564Z" fill="#F29111"/>
<path d="M196.956 239.679C197.231 238.553 196.689 237.453 195.745 237.222C194.801 236.99 193.813 237.716 193.538 238.842C193.262 239.968 193.804 241.068 194.748 241.299C195.692 241.53 196.68 240.805 196.956 239.679Z" fill="#F29111"/>
<path d="M211.034 237.695C211.309 236.568 210.767 235.468 209.823 235.237C208.88 235.006 207.891 235.732 207.616 236.858C207.34 237.984 207.882 239.084 208.826 239.315C209.77 239.546 210.758 238.821 211.034 237.695Z" fill="#F29111"/>
<path d="M209.791 242.822C210.067 241.695 209.525 240.595 208.581 240.364C207.637 240.133 206.649 240.858 206.374 241.985C206.098 243.111 206.64 244.211 207.584 244.442C208.528 244.673 209.516 243.948 209.791 242.822Z" fill="#F29111"/>
<path d="M202.471 235.609C202.747 234.483 202.205 233.382 201.261 233.151C200.317 232.92 199.329 233.646 199.053 234.772C198.778 235.898 199.32 236.998 200.264 237.229C201.207 237.46 202.196 236.735 202.471 235.609Z" fill="#F29111"/>
<path d="M201.237 240.738C201.512 239.611 200.97 238.511 200.027 238.28C199.083 238.049 198.094 238.774 197.819 239.901C197.544 241.027 198.085 242.127 199.029 242.358C199.973 242.589 200.961 241.864 201.237 240.738Z" fill="#F29111"/>
<path d="M215.307 238.751C215.582 237.625 215.041 236.525 214.097 236.294C213.153 236.063 212.165 236.788 211.889 237.914C211.614 239.04 212.156 240.14 213.1 240.372C214.043 240.603 215.032 239.877 215.307 238.751Z" fill="#F29111"/>
<path d="M214.073 243.88C214.348 242.754 213.806 241.654 212.862 241.423C211.919 241.192 210.93 241.917 210.655 243.043C210.379 244.169 210.921 245.269 211.865 245.501C212.809 245.732 213.797 245.006 214.073 243.88Z" fill="#F29111"/>
<path d="M193.948 233.505C194.223 232.379 193.681 231.279 192.737 231.048C191.794 230.817 190.805 231.542 190.53 232.668C190.254 233.794 190.796 234.894 191.74 235.126C192.684 235.357 193.672 234.631 193.948 233.505Z" fill="#F29111"/>
<path d="M192.682 238.624C192.957 237.498 192.416 236.398 191.472 236.167C190.528 235.936 189.54 236.661 189.264 237.787C188.989 238.913 189.531 240.014 190.475 240.245C191.418 240.476 192.407 239.75 192.682 238.624Z" fill="#F29111"/>
<path d="M206.76 236.632C207.036 235.506 206.494 234.406 205.55 234.175C204.606 233.944 203.618 234.669 203.342 235.795C203.067 236.921 203.609 238.021 204.553 238.252C205.496 238.484 206.485 237.758 206.76 236.632Z" fill="#F29111"/>
<path d="M205.518 241.796C205.793 240.67 205.252 239.57 204.308 239.339C203.364 239.108 202.376 239.833 202.1 240.959C201.825 242.085 202.367 243.185 203.31 243.417C204.254 243.648 205.243 242.922 205.518 241.796Z" fill="#F29111"/>
<path d="M219.573 239.808C219.848 238.682 219.306 237.582 218.362 237.35C217.419 237.119 216.43 237.845 216.155 238.971C215.879 240.097 216.421 241.197 217.365 241.428C218.309 241.659 219.297 240.934 219.573 239.808Z" fill="#F29111"/>
<path d="M218.338 244.939C218.614 243.813 218.072 242.712 217.128 242.481C216.184 242.25 215.196 242.976 214.921 244.102C214.645 245.228 215.187 246.328 216.131 246.559C217.075 246.79 218.063 246.065 218.338 244.939Z" fill="#F29111"/>
</g>
<mask id="mask1_2831_11954" style="mask-type:luminance" maskUnits="userSpaceOnUse" x="234" y="224" width="44" height="35">
<path d="M276.262 258.874C276.262 258.874 269.495 245.873 257.923 243.062C246.352 240.252 233.867 250.647 234.374 248.649C238.333 232.465 250.92 221.631 262.491 224.475C274.029 227.251 280.221 242.69 276.262 258.874Z" fill="white"/>
</mask>
<g mask="url(#mask1_2831_11954)">
<path d="M246.112 224.57C246.387 223.443 245.845 222.343 244.902 222.112C243.958 221.881 242.969 222.607 242.694 223.733C242.419 224.859 242.96 225.959 243.904 226.19C244.848 226.421 245.836 225.696 246.112 224.57Z" fill="#F29111"/>
<path d="M244.901 229.697C245.176 228.57 244.634 227.47 243.691 227.239C242.747 227.008 241.758 227.733 241.483 228.86C241.208 229.986 241.749 231.086 242.693 231.317C243.637 231.548 244.625 230.823 244.901 229.697Z" fill="#F29111"/>
<path d="M243.612 234.816C243.887 233.69 243.345 232.589 242.402 232.358C241.458 232.127 240.469 232.853 240.194 233.979C239.919 235.105 240.46 236.205 241.404 236.436C242.348 236.667 243.336 235.942 243.612 234.816Z" fill="#F29111"/>
<path d="M242.354 239.939C242.629 238.813 242.088 237.712 241.144 237.481C240.2 237.25 239.212 237.976 238.936 239.102C238.661 240.228 239.203 241.328 240.146 241.559C241.09 241.79 242.079 241.065 242.354 239.939Z" fill="#F29111"/>
<path d="M250.409 225.593C250.684 224.467 250.142 223.367 249.198 223.136C248.255 222.904 247.266 223.63 246.991 224.756C246.715 225.882 247.257 226.982 248.201 227.213C249.145 227.445 250.133 226.719 250.409 225.593Z" fill="#F29111"/>
<path d="M249.166 230.755C249.442 229.629 248.9 228.529 247.956 228.298C247.012 228.067 246.024 228.792 245.749 229.918C245.473 231.044 246.015 232.144 246.959 232.376C247.903 232.607 248.891 231.881 249.166 230.755Z" fill="#F29111"/>
<path d="M247.885 235.878C248.161 234.752 247.619 233.652 246.675 233.421C245.731 233.19 244.743 233.915 244.467 235.041C244.192 236.167 244.734 237.267 245.678 237.499C246.621 237.73 247.61 237.004 247.885 235.878Z" fill="#F29111"/>
<path d="M246.62 240.997C246.895 239.871 246.353 238.771 245.409 238.54C244.466 238.309 243.477 239.034 243.202 240.16C242.926 241.286 243.468 242.387 244.412 242.618C245.356 242.849 246.344 242.123 246.62 240.997Z" fill="#F29111"/>
<path d="M241.838 223.513C242.114 222.387 241.572 221.287 240.628 221.056C239.684 220.824 238.696 221.55 238.421 222.676C238.145 223.802 238.687 224.902 239.631 225.133C240.575 225.364 241.563 224.639 241.838 223.513Z" fill="#F29111"/>
<path d="M240.627 228.64C240.903 227.514 240.361 226.414 239.417 226.182C238.473 225.951 237.485 226.677 237.21 227.803C236.934 228.929 237.476 230.029 238.42 230.26C239.364 230.491 240.352 229.766 240.627 228.64Z" fill="#F29111"/>
<path d="M239.346 233.759C239.622 232.633 239.08 231.533 238.136 231.302C237.192 231.07 236.204 231.796 235.928 232.922C235.653 234.048 236.195 235.148 237.139 235.379C238.082 235.611 239.071 234.885 239.346 233.759Z" fill="#F29111"/>
<path d="M238.12 238.888C238.395 237.762 237.853 236.662 236.909 236.431C235.966 236.199 234.977 236.925 234.702 238.051C234.426 239.177 234.968 240.277 235.912 240.508C236.856 240.739 237.844 240.014 238.12 238.888Z" fill="#F29111"/>
<path d="M254.674 226.65C254.95 225.524 254.408 224.423 253.464 224.192C252.52 223.961 251.532 224.687 251.256 225.813C250.981 226.939 251.523 228.039 252.467 228.27C253.411 228.501 254.399 227.776 254.674 226.65Z" fill="#F29111"/>
<path d="M253.416 231.773C253.692 230.647 253.15 229.546 252.206 229.315C251.262 229.084 250.274 229.81 249.999 230.936C249.723 232.062 250.265 233.162 251.209 233.393C252.153 233.624 253.141 232.899 253.416 231.773Z" fill="#F29111"/>
<path d="M252.182 236.902C252.457 235.776 251.916 234.675 250.972 234.444C250.028 234.213 249.04 234.939 248.764 236.065C248.489 237.191 249.031 238.291 249.975 238.522C250.918 238.753 251.907 238.028 252.182 236.902Z" fill="#F29111"/>
<path d="M250.924 242.019C251.2 240.893 250.658 239.793 249.714 239.561C248.77 239.33 247.782 240.056 247.506 241.182C247.231 242.308 247.773 243.408 248.717 243.639C249.661 243.87 250.649 243.145 250.924 242.019Z" fill="#F29111"/>
<path d="M264.463 223.601C264.739 222.475 264.197 221.375 263.253 221.143C262.309 220.912 261.321 221.638 261.046 222.764C260.77 223.89 261.312 224.99 262.256 225.221C263.2 225.452 264.188 224.727 264.463 223.601Z" fill="#F29111"/>
<path d="M263.229 228.763C263.504 227.637 262.963 226.537 262.019 226.306C261.075 226.074 260.087 226.8 259.811 227.926C259.536 229.052 260.078 230.152 261.021 230.383C261.965 230.614 262.954 229.889 263.229 228.763Z" fill="#F29111"/>
<path d="M261.963 233.886C262.239 232.76 261.697 231.66 260.753 231.429C259.809 231.197 258.821 231.923 258.546 233.049C258.27 234.175 258.812 235.275 259.756 235.506C260.7 235.738 261.688 235.012 261.963 233.886Z" fill="#F29111"/>
<path d="M260.721 239.013C260.997 237.887 260.455 236.787 259.511 236.556C258.567 236.324 257.579 237.05 257.303 238.176C257.028 239.302 257.57 240.402 258.514 240.633C259.457 240.864 260.446 240.139 260.721 239.013Z" fill="#F29111"/>
<path d="M259.456 244.14C259.731 243.014 259.189 241.914 258.245 241.682C257.301 241.451 256.313 242.177 256.038 243.303C255.762 244.429 256.304 245.529 257.248 245.76C258.192 245.991 259.18 245.266 259.456 244.14Z" fill="#F29111"/>
<path d="M277.299 226.775C277.575 225.649 277.033 224.548 276.089 224.317C275.145 224.086 274.157 224.812 273.881 225.938C273.606 227.064 274.148 228.164 275.092 228.395C276.036 228.626 277.024 227.901 277.299 226.775Z" fill="#F29111"/>
<path d="M276.065 231.905C276.34 230.779 275.798 229.679 274.855 229.448C273.911 229.217 272.922 229.942 272.647 231.068C272.372 232.195 272.914 233.295 273.857 233.526C274.801 233.757 275.79 233.032 276.065 231.905Z" fill="#F29111"/>
<path d="M274.799 237.021C275.075 235.895 274.533 234.794 273.589 234.563C272.645 234.332 271.657 235.058 271.381 236.184C271.106 237.31 271.648 238.41 272.592 238.641C273.536 238.872 274.524 238.147 274.799 237.021Z" fill="#F29111"/>
<path d="M273.51 242.148C273.786 241.022 273.244 239.921 272.3 239.69C271.356 239.459 270.368 240.185 270.092 241.311C269.817 242.437 270.359 243.537 271.303 243.768C272.246 243.999 273.235 243.274 273.51 242.148Z" fill="#F29111"/>
<path d="M272.291 247.275C272.567 246.149 272.025 245.048 271.081 244.817C270.137 244.586 269.149 245.312 268.874 246.438C268.598 247.564 269.14 248.664 270.084 248.895C271.028 249.126 272.016 248.401 272.291 247.275Z" fill="#F29111"/>
<path d="M268.752 224.657C269.028 223.531 268.486 222.431 267.542 222.2C266.598 221.969 265.61 222.694 265.335 223.82C265.059 224.947 265.601 226.047 266.545 226.278C267.489 226.509 268.477 225.783 268.752 224.657Z" fill="#F29111"/>
<path d="M267.51 229.784C267.786 228.658 267.244 227.558 266.3 227.327C265.356 227.096 264.368 227.821 264.092 228.947C263.817 230.073 264.359 231.174 265.303 231.405C266.246 231.636 267.235 230.91 267.51 229.784Z" fill="#F29111"/>
<path d="M266.237 234.911C266.512 233.785 265.97 232.685 265.027 232.454C264.083 232.223 263.094 232.948 262.819 234.074C262.544 235.2 263.085 236.301 264.029 236.532C264.973 236.763 265.961 236.037 266.237 234.911Z" fill="#F29111"/>
<path d="M265.018 240.038C265.293 238.912 264.752 237.812 263.808 237.581C262.864 237.35 261.876 238.075 261.6 239.201C261.325 240.327 261.867 241.428 262.81 241.659C263.754 241.89 264.743 241.164 265.018 240.038Z" fill="#F29111"/>
<path d="M263.729 245.161C264.004 244.035 263.462 242.935 262.519 242.704C261.575 242.473 260.587 243.198 260.311 244.324C260.036 245.45 260.578 246.551 261.521 246.782C262.465 247.013 263.454 246.287 263.729 245.161Z" fill="#F29111"/>
<path d="M280.331 232.927C280.606 231.801 280.064 230.701 279.12 230.47C278.176 230.238 277.188 230.964 276.913 232.09C276.637 233.216 277.179 234.316 278.123 234.547C279.067 234.779 280.055 234.053 280.331 232.927Z" fill="#F29111"/>
<path d="M279.073 238.054C279.348 236.928 278.806 235.828 277.862 235.597C276.919 235.365 275.93 236.091 275.655 237.217C275.38 238.343 275.921 239.443 276.865 239.674C277.809 239.905 278.797 239.18 279.073 238.054Z" fill="#F29111"/>
<path d="M277.807 243.169C278.082 242.043 277.541 240.943 276.597 240.712C275.653 240.481 274.665 241.206 274.389 242.332C274.114 243.458 274.656 244.558 275.6 244.79C276.543 245.021 277.532 244.295 277.807 243.169Z" fill="#F29111"/>
<path d="M276.565 248.331C276.84 247.205 276.298 246.105 275.355 245.874C274.411 245.643 273.422 246.368 273.147 247.494C272.872 248.62 273.414 249.721 274.357 249.952C275.301 250.183 276.29 249.457 276.565 248.331Z" fill="#F29111"/>
<path d="M260.213 222.587C260.489 221.461 259.947 220.361 259.003 220.13C258.059 219.899 257.071 220.624 256.796 221.75C256.52 222.876 257.062 223.976 258.006 224.208C258.95 224.439 259.938 223.713 260.213 222.587Z" fill="#F29111"/>
<path d="M258.948 227.704C259.223 226.578 258.681 225.478 257.737 225.247C256.794 225.016 255.805 225.741 255.53 226.867C255.254 227.993 255.796 229.094 256.74 229.325C257.684 229.556 258.672 228.83 258.948 227.704Z" fill="#F29111"/>
<path d="M257.682 232.829C257.957 231.703 257.416 230.603 256.472 230.372C255.528 230.141 254.54 230.866 254.264 231.992C253.989 233.118 254.531 234.219 255.475 234.45C256.418 234.681 257.407 233.955 257.682 232.829Z" fill="#F29111"/>
<path d="M256.448 237.958C256.723 236.832 256.181 235.732 255.237 235.501C254.294 235.27 253.305 235.995 253.03 237.121C252.754 238.247 253.296 239.348 254.24 239.579C255.184 239.81 256.172 239.084 256.448 237.958Z" fill="#F29111"/>
<path d="M255.19 243.081C255.465 241.955 254.923 240.855 253.98 240.624C253.036 240.393 252.047 241.118 251.772 242.244C251.497 243.37 252.039 244.471 252.982 244.702C253.926 244.933 254.915 244.207 255.19 243.081Z" fill="#F29111"/>
<path d="M273.026 225.72C273.301 224.594 272.759 223.494 271.816 223.263C270.872 223.031 269.883 223.757 269.608 224.883C269.333 226.009 269.874 227.109 270.818 227.34C271.762 227.571 272.75 226.846 273.026 225.72Z" fill="#F29111"/>
<path d="M271.784 230.847C272.059 229.721 271.517 228.621 270.573 228.389C269.63 228.158 268.641 228.884 268.366 230.01C268.09 231.136 268.632 232.236 269.576 232.467C270.52 232.698 271.508 231.973 271.784 230.847Z" fill="#F29111"/>
<path d="M270.518 235.966C270.793 234.84 270.252 233.74 269.308 233.509C268.364 233.278 267.376 234.003 267.1 235.129C266.825 236.255 267.367 237.355 268.31 237.586C269.254 237.818 270.243 237.092 270.518 235.966Z" fill="#F29111"/>
<path d="M269.284 241.093C269.559 239.967 269.017 238.867 268.073 238.636C267.13 238.404 266.141 239.13 265.866 240.256C265.59 241.382 266.132 242.482 267.076 242.713C268.02 242.945 269.008 242.219 269.284 241.093Z" fill="#F29111"/>
<path d="M268.026 246.22C268.301 245.094 267.759 243.994 266.816 243.763C265.872 243.531 264.883 244.257 264.608 245.383C264.333 246.509 264.874 247.609 265.818 247.84C266.762 248.071 267.75 247.346 268.026 246.22Z" fill="#F29111"/>
<path d="M280.838 249.355C281.114 248.229 280.572 247.128 279.628 246.897C278.684 246.666 277.696 247.392 277.421 248.518C277.145 249.644 277.687 250.744 278.631 250.975C279.575 251.206 280.563 250.481 280.838 249.355Z" fill="#F29111"/>
<path d="M241.112 245.068C241.387 243.942 240.845 242.841 239.902 242.61C238.958 242.379 237.969 243.105 237.694 244.231C237.419 245.357 237.96 246.457 238.904 246.688C239.848 246.919 240.836 246.194 241.112 245.068Z" fill="#F29111"/>
<path d="M239.854 250.189C240.129 249.063 239.587 247.962 238.644 247.731C237.7 247.5 236.712 248.226 236.436 249.352C236.161 250.478 236.703 251.578 237.646 251.809C238.59 252.04 239.579 251.315 239.854 250.189Z" fill="#F29111"/>
<path d="M245.377 246.124C245.653 244.998 245.111 243.898 244.167 243.667C243.223 243.436 242.235 244.161 241.96 245.287C241.684 246.413 242.226 247.514 243.17 247.745C244.114 247.976 245.102 247.25 245.377 246.124Z" fill="#F29111"/>
<path d="M244.12 251.247C244.395 250.121 243.853 249.021 242.909 248.79C241.966 248.559 240.977 249.284 240.702 250.41C240.426 251.536 240.968 252.637 241.912 252.868C242.856 253.099 243.844 252.373 244.12 251.247Z" fill="#F29111"/>
<path d="M236.846 244.011C237.122 242.885 236.58 241.785 235.636 241.554C234.692 241.322 233.704 242.048 233.428 243.174C233.153 244.3 233.695 245.4 234.639 245.631C235.582 245.863 236.571 245.137 236.846 244.011Z" fill="#F29111"/>
<path d="M235.581 249.126C235.856 248 235.314 246.9 234.37 246.669C233.426 246.438 232.438 247.163 232.163 248.289C231.887 249.415 232.429 250.515 233.373 250.747C234.317 250.978 235.305 250.252 235.581 249.126Z" fill="#F29111"/>
<path d="M249.682 247.15C249.957 246.024 249.416 244.923 248.472 244.692C247.528 244.461 246.54 245.187 246.264 246.313C245.989 247.439 246.531 248.539 247.475 248.77C248.418 249.001 249.407 248.276 249.682 247.15Z" fill="#F29111"/>
<path d="M248.416 252.269C248.692 251.143 248.15 250.042 247.206 249.811C246.262 249.58 245.274 250.306 244.999 251.432C244.723 252.558 245.265 253.658 246.209 253.889C247.153 254.12 248.141 253.395 248.416 252.269Z" fill="#F29111"/>
<path d="M258.213 249.267C258.489 248.141 257.947 247.041 257.003 246.809C256.059 246.578 255.071 247.304 254.796 248.43C254.52 249.556 255.062 250.656 256.006 250.887C256.95 251.118 257.938 250.393 258.213 249.267Z" fill="#F29111"/>
<path d="M256.956 254.386C257.231 253.26 256.689 252.16 255.745 251.929C254.801 251.697 253.813 252.423 253.538 253.549C253.262 254.675 253.804 255.775 254.748 256.006C255.692 256.238 256.68 255.512 256.956 254.386Z" fill="#F29111"/>
<path d="M271.018 252.398C271.293 251.272 270.752 250.171 269.808 249.94C268.864 249.709 267.876 250.435 267.6 251.561C267.325 252.687 267.867 253.787 268.81 254.018C269.754 254.249 270.743 253.524 271.018 252.398Z" fill="#F29111"/>
<path d="M269.791 257.529C270.067 256.402 269.525 255.302 268.581 255.071C267.637 254.84 266.649 255.565 266.374 256.692C266.098 257.818 266.64 258.918 267.584 259.149C268.528 259.38 269.516 258.655 269.791 257.529Z" fill="#F29111"/>
<path d="M262.463 250.279C262.739 249.152 262.197 248.052 261.253 247.821C260.309 247.59 259.321 248.315 259.046 249.442C258.77 250.568 259.312 251.668 260.256 251.899C261.2 252.13 262.188 251.405 262.463 250.279Z" fill="#F29111"/>
<path d="M261.229 255.441C261.504 254.315 260.962 253.214 260.019 252.983C259.075 252.752 258.087 253.478 257.811 254.604C257.536 255.73 258.078 256.83 259.021 257.061C259.965 257.292 260.954 256.567 261.229 255.441Z" fill="#F29111"/>
<path d="M275.299 253.456C275.575 252.33 275.033 251.23 274.089 250.999C273.145 250.768 272.157 251.493 271.881 252.619C271.606 253.745 272.148 254.846 273.092 255.077C274.036 255.308 275.024 254.582 275.299 253.456Z" fill="#F29111"/>
<path d="M274.065 258.583C274.34 257.457 273.798 256.357 272.855 256.126C271.911 255.895 270.922 256.62 270.647 257.746C270.372 258.872 270.914 259.973 271.857 260.204C272.801 260.435 273.79 259.709 274.065 258.583Z" fill="#F29111"/>
<path d="M253.948 248.21C254.223 247.084 253.681 245.984 252.737 245.753C251.794 245.522 250.805 246.247 250.53 247.373C250.254 248.499 250.796 249.599 251.74 249.831C252.684 250.062 253.672 249.336 253.948 248.21Z" fill="#F29111"/>
<path d="M252.69 253.327C252.965 252.201 252.423 251.101 251.48 250.87C250.536 250.639 249.547 251.364 249.272 252.49C248.997 253.616 249.539 254.717 250.482 254.948C251.426 255.179 252.415 254.453 252.69 253.327Z" fill="#F29111"/>
<path d="M266.737 251.335C267.012 250.209 266.47 249.109 265.527 248.878C264.583 248.647 263.594 249.372 263.319 250.498C263.044 251.624 263.585 252.724 264.529 252.956C265.473 253.187 266.461 252.461 266.737 251.335Z" fill="#F29111"/>
<path d="M265.526 256.466C265.801 255.34 265.259 254.24 264.316 254.009C263.372 253.778 262.383 254.503 262.108 255.629C261.833 256.755 262.374 257.855 263.318 258.086C264.262 258.318 265.25 257.592 265.526 256.466Z" fill="#F29111"/>
<path d="M279.573 254.478C279.848 253.352 279.306 252.251 278.362 252.02C277.419 251.789 276.43 252.515 276.155 253.641C275.88 254.767 276.421 255.867 277.365 256.098C278.309 256.329 279.297 255.604 279.573 254.478Z" fill="#F29111"/>
<path d="M278.338 259.609C278.614 258.483 278.072 257.382 277.128 257.151C276.184 256.92 275.196 257.646 274.921 258.772C274.645 259.898 275.187 260.998 276.131 261.229C277.075 261.46 278.063 260.735 278.338 259.609Z" fill="#F29111"/>
</g>
<g filter="url(#filter4_d_2831_11954)">
<path d="M135.649 254.817L146.747 249.704C148.201 249.027 148.337 246.996 146.983 246.149L95.3852 213.342C94.1671 212.563 92.7122 212.326 91.325 212.631L80.8362 214.899C79.3474 215.238 78.7384 217.032 79.7196 218.217L104.825 247.3C105.603 248.181 106.618 248.79 107.735 249.061L134.329 254.952C134.769 255.054 135.243 255.02 135.649 254.817Z" fill="white"/>
</g>
<path d="M150.375 193.097C164.788 179.893 173.755 158.698 177.172 139.704C177.375 138.519 153.589 127.617 128.078 119.965C93.0585 109.469 73.4681 107.336 72.9944 108.454C65.4154 126.195 61.2537 148.812 66.0244 167.806C69.4079 181.349 77.6297 191.133 88.3554 199.936C88.1862 200.986 87.9494 201.968 87.6449 202.983C83.9569 204.202 80.7087 206.268 79.9644 210.432C79.1523 214.969 81.5208 219.032 83.923 222.655L82.4682 227.462C75.126 240.125 63.859 249.91 50.2235 255.225C48.1596 254.447 45.8588 254.413 44.6746 256.783C42.5768 261.015 48.9378 265.315 51.7461 267.143C59.7649 272.391 98.1337 283.902 107.709 283.936C111.059 283.936 118.739 283.835 119.314 279.162C119.619 276.555 117.69 275.303 115.525 274.829C107.066 262.877 103.04 248.522 103.886 233.895L105.341 229.087C109.333 227.395 113.562 225.295 115.356 221.063C117.014 217.17 115.423 213.649 113.021 210.601C113.292 209.586 113.664 208.604 114.104 207.656C127.875 206.2 140.123 202.543 150.375 193.097Z" fill="#79613E"/>
<path d="M157.415 173.557C152.272 166.65 142.528 165.194 135.625 170.34C130.889 173.861 118.979 191.84 112.009 202.809C110.622 205.01 110.858 206.906 112.888 207.82C113.159 207.888 113.497 207.786 114.073 207.685C127.877 206.229 140.126 202.572 150.411 193.126C154.133 189.741 157.449 185.779 160.426 181.513C160.19 178.703 159.208 175.961 157.415 173.557Z" fill="#FFA531"/>
<path d="M91.0237 156.967C88.08 148.875 79.1476 144.711 71.0611 147.657C68.1513 148.706 65.749 150.568 64.0234 152.871C64.1926 157.983 64.8016 163.028 66.0197 167.802C67.7453 174.709 70.7566 180.634 74.6814 185.949C76.001 187.574 77.3544 189.233 78.7078 190.825C81.6176 194.007 84.8319 197.021 88.3845 199.932C88.7906 200.339 89.3657 200.643 89.9409 200.745C92.174 201.253 92.9522 199.763 92.9861 197.088C93.1214 184.087 93.0537 162.52 91.0237 156.967Z" fill="#FFA531"/>
<path d="M128.08 119.965C93.0608 109.469 73.4704 107.336 72.9967 108.454C70.6283 114.04 68.6658 119.83 67.2109 125.721C78.9516 133.948 96.9518 142.074 117.794 148.338C138.636 154.601 158.159 157.716 172.471 157.31C174.535 151.588 176.092 145.663 177.14 139.704C177.377 138.519 153.591 127.617 128.08 119.965Z" fill="#FFCD34"/>
<path d="M127.501 170.309C125.809 175.964 112.952 193.298 105.068 203.625C102.869 206.469 98.335 205.115 98.0982 201.526C97.1846 188.558 95.9665 167.025 97.6583 161.371C100.128 153.11 108.824 148.437 117.046 150.909C125.268 153.381 129.937 162.082 127.501 170.309Z" fill="#FFCD34"/>
<path d="M95.4599 222.923C101.212 224.65 106.795 222.856 107.979 218.962C109.163 215.035 105.441 210.464 99.7231 208.771C93.9711 207.044 88.3884 208.839 87.2042 212.732C86.02 216.626 89.7418 221.197 95.4599 222.923Z" fill="#FFCD34"/>
<path d="M80.7043 215.2C82.6667 215.775 84.8321 214.421 85.5088 212.152C86.1855 209.884 85.1366 207.548 83.1742 206.972C81.2118 206.397 79.0464 207.751 78.3697 210.019C77.693 212.288 78.7419 214.624 80.7043 215.2Z" fill="#FFCD34"/>
<path d="M112.04 224.617C114.003 225.193 116.168 223.839 116.845 221.57C117.521 219.302 116.473 216.966 114.51 216.39C112.548 215.815 110.382 217.169 109.706 219.437C109.029 221.706 110.078 224.008 112.04 224.617Z" fill="#FFCD34"/>
<path d="M69.5047 177.45C69.2002 176.807 68.8957 176.163 68.625 175.486C68.8957 176.13 69.2002 176.807 69.5047 177.45Z" fill="#E9B126"/>
<path d="M68.4631 175.146C68.1924 174.537 67.9556 173.893 67.7188 173.25C67.9556 173.859 68.1924 174.503 68.4631 175.146Z" fill="#E9B126"/>
<path d="M113.703 208.467C113.805 208.196 113.906 207.925 114.041 207.654C113.94 207.925 113.838 208.196 113.703 208.467Z" fill="#E9B126"/>
<path d="M153.083 190.453C152.71 190.859 152.304 191.266 151.898 191.638C152.304 191.266 152.677 190.859 153.083 190.453Z" fill="#E9B126"/>
<path d="M115.85 274.896C107.865 275.505 95.3462 273.744 81.7446 269.648C68.143 265.585 56.5714 260.1 50.2781 255.191C50.2443 255.191 50.2105 255.224 50.1766 255.224C48.1127 254.446 45.8119 254.412 44.6277 256.782C42.53 261.014 48.8909 265.314 51.6992 267.142C59.7181 272.39 98.0868 283.902 107.662 283.935C111.012 283.935 118.692 283.834 119.267 279.162C119.572 276.69 117.846 275.437 115.85 274.896Z" fill="#E9B126"/>
<path d="M65.9867 167.804C65.8514 167.195 65.6822 166.619 65.5469 166.01C65.716 166.585 65.8514 167.195 65.9867 167.804Z" fill="#E9B126"/>
<path d="M74.6495 185.952C73.6683 184.632 72.7547 183.277 71.875 181.855C74.8863 186.832 78.7096 191.234 83.1082 195.365C81.5518 193.875 80.063 192.385 78.642 190.828C77.3562 189.236 76.0029 187.577 74.6495 185.952Z" fill="#E9B126"/>
<path d="M74.5021 185.748C74.1637 185.308 73.8592 184.868 73.5547 184.428C73.8592 184.868 74.1976 185.308 74.5021 185.748Z" fill="#FFCD34"/>
<path d="M73.1607 183.819C72.7209 183.176 72.3149 182.499 71.875 181.855C72.3149 182.533 72.7547 183.176 73.1607 183.819Z" fill="#FFCD34"/>
<path d="M78.654 190.792C77.3683 189.235 76.0826 187.677 74.7969 186.086C76.0149 187.711 77.3007 189.269 78.654 190.792Z" fill="#FFCD34"/>
<path d="M64.901 162.49C64.8671 162.219 64.8333 161.982 64.7656 161.711C64.8333 161.948 64.8671 162.219 64.901 162.49Z" fill="#FFCD34"/>
<path d="M155.114 188.251C156.975 186.118 158.769 183.849 160.426 181.479C160.19 178.703 159.208 175.961 157.415 173.557C152.272 166.65 142.528 165.194 135.625 170.34C130.889 173.861 118.979 191.84 112.009 202.809C110.622 205.01 110.858 206.906 112.888 207.82C113.159 207.888 113.497 207.786 114.073 207.685C127.877 206.229 140.126 202.572 150.411 193.126C150.885 192.686 151.325 192.28 151.765 191.84C151.832 191.772 151.866 191.738 151.934 191.67C152.34 191.264 152.712 190.892 153.118 190.485C153.727 189.842 154.336 189.165 154.945 188.488C154.979 188.386 155.047 188.319 155.114 188.251Z" fill="#FFCD34"/>
<path d="M89.9123 200.745C92.1454 201.253 92.9236 199.763 92.9575 197.088C93.1267 184.087 93.0928 162.52 91.0627 156.967C88.1191 148.875 79.1867 144.711 71.1002 147.657C68.1904 148.706 65.7881 150.568 64.0625 152.871C64.0625 152.905 64.0625 152.972 64.0625 153.006C64.0625 153.345 64.0963 153.683 64.0963 154.022C64.0963 154.259 64.1302 154.496 64.1302 154.733C64.1302 155.071 64.164 155.376 64.1978 155.715C64.1978 155.986 64.2317 156.223 64.2655 156.493C64.2993 156.798 64.3332 157.103 64.3332 157.441C64.367 157.712 64.367 157.983 64.4008 158.254C64.4347 158.559 64.4685 158.863 64.5024 159.168C64.5362 159.439 64.57 159.744 64.6039 160.015C64.6377 160.285 64.6715 160.59 64.7054 160.861C64.7392 161.166 64.773 161.47 64.8407 161.741C64.8745 162.012 64.9084 162.283 64.976 162.52C65.0437 162.859 65.0776 163.197 65.1452 163.536C65.1791 163.773 65.2129 163.976 65.2806 164.213C65.3821 164.755 65.4836 165.33 65.6189 165.872C65.6189 165.94 65.6527 165.973 65.6527 166.041C65.7881 166.651 65.9234 167.26 66.0926 167.836C66.2956 168.682 66.5324 169.528 66.8031 170.375C66.8708 170.544 66.9046 170.713 66.9723 170.883C67.1753 171.526 67.3783 172.169 67.6152 172.813C67.6828 172.982 67.7505 173.117 67.7843 173.287C68.0212 173.93 68.258 174.573 68.5287 175.183C68.5625 175.284 68.6302 175.42 68.664 175.521C68.9347 176.198 69.2392 176.842 69.5438 177.485C69.5776 177.553 69.6114 177.62 69.6453 177.688C69.9836 178.365 70.322 179.042 70.6941 179.72C70.728 179.753 70.728 179.787 70.7618 179.821C71.134 180.532 71.54 181.209 71.946 181.886C71.946 181.886 71.946 181.886 71.946 181.92C72.352 182.597 72.7919 183.241 73.2318 183.884C73.3671 184.087 73.5024 184.256 73.6378 184.46C73.9423 184.9 74.2468 185.34 74.5851 185.78C74.6867 185.882 74.7543 186.017 74.8558 186.119C76.1416 187.71 77.4273 189.267 78.713 190.825C78.7807 190.926 78.8822 190.994 78.9498 191.096C79.525 191.705 80.1002 192.314 80.6754 192.924C80.8108 193.093 80.9799 193.229 81.1491 193.398C81.8258 194.075 82.5025 194.752 83.213 195.429C83.3484 195.531 83.4499 195.666 83.5852 195.768C84.2281 196.343 84.871 196.919 85.5138 197.495C85.683 197.664 85.8522 197.799 86.0552 197.969C86.8334 198.646 87.6116 199.323 88.4236 199.966C88.762 200.339 89.3372 200.643 89.9123 200.745Z" fill="#FFCD34"/>
<path d="M78.6823 190.825C78.7499 190.893 78.8176 190.96 78.8853 191.062C78.8176 190.96 78.7161 190.893 78.6484 190.791C78.6484 190.825 78.6823 190.825 78.6823 190.825Z" fill="#FFCD34"/>
<path d="M81.0674 193.368C80.8983 193.199 80.7629 193.064 80.5938 192.895C80.7629 193.03 80.8983 193.199 81.0674 193.368Z" fill="#FFCD34"/>
<path d="M74.6431 185.949C74.677 186.017 74.7108 186.051 74.7785 186.084C74.677 185.983 74.6093 185.848 74.5078 185.746C74.5755 185.814 74.6093 185.881 74.6431 185.949Z" fill="#FFCD34"/>
<path d="M64.0963 154.736C64.0963 154.499 64.0625 154.262 64.0625 154.025C64.0963 154.262 64.0963 154.499 64.0963 154.736Z" fill="#FFCD34"/>
<path d="M64.3724 158.225C64.3385 157.954 64.3385 157.683 64.3047 157.412C64.3047 157.683 64.3385 157.954 64.3724 158.225Z" fill="#FFCD34"/>
<path d="M64.2161 156.458C64.1823 156.188 64.1823 155.951 64.1484 155.68C64.1484 155.951 64.1823 156.221 64.2161 156.458Z" fill="#FFCD34"/>
<path d="M64.5703 159.946C64.5364 159.675 64.5026 159.37 64.4688 159.1C64.5026 159.404 64.5364 159.675 64.5703 159.946Z" fill="#FFCD34"/>
<path d="M65.5493 165.805C65.4139 165.264 65.3124 164.688 65.2109 164.146C65.3124 164.722 65.4139 165.264 65.5493 165.805Z" fill="#FFCD34"/>
<path d="M58.9785 250.992C57.1515 252.042 55.2905 253.024 53.3281 253.904C53.8356 256.105 55.4936 258.001 57.8282 258.678C60.1628 259.389 62.768 258.644 64.3921 256.951C63.9184 260.1 65.847 263.215 68.9937 264.163C71.8358 265.009 74.8471 263.824 76.3697 261.454C76.1328 264.467 77.9937 267.345 81.005 268.259C84.0163 269.174 87.163 267.785 88.6179 265.145C88.5841 267.989 90.4111 270.629 93.2871 271.51C96.5691 272.492 100.02 270.765 101.238 267.65C101.374 270.359 103.167 272.762 105.908 273.609C108.648 274.421 111.524 273.372 113.081 271.171C112.065 269.512 111.118 267.785 110.272 266.025C102.829 266.397 93.1856 265.111 83.0013 262.064C73.3584 259.118 64.9673 255.157 58.9785 250.992Z" fill="#FFCD34"/>
<path d="M121.677 134.593C145.632 141.771 166.813 145.597 176.117 144.818C176.489 143.125 176.861 141.432 177.166 139.739C177.369 138.554 153.583 127.652 128.072 120C93.0525 109.505 73.4621 107.372 72.9885 108.489C72.2779 110.148 71.635 111.807 70.9922 113.5C78.6389 119.222 98.1277 127.517 121.677 134.593Z" fill="#F3BD27"/>
<path d="M172.27 141.128C171.762 142.855 149.33 139.537 122.837 131.614C96.3441 123.692 75.8064 114.076 76.3139 112.349C76.8214 110.623 98.9833 114.787 125.51 122.744C152.036 130.7 172.777 139.401 172.27 141.128Z" fill="#42340B"/>
<path d="M55.3371 58.4102L60.48 70.5311L73.0328 74.5262L60.9199 79.6726L56.8597 92.2336L51.7168 80.1127L39.1641 76.1175L51.2769 70.9712L55.3371 58.4102Z" fill="#FFDF7E"/>
<path d="M34.5227 185.104L40.7145 199.798L55.9064 204.639L41.222 210.835L36.3836 226.037L30.1919 211.343L15 206.501L29.6843 200.305L34.5227 185.104Z" fill="#FFDF7E"/>
<path d="M139.908 78.9258L143.393 87.187L151.919 89.8956L143.663 93.3829L140.957 101.915L137.472 93.6537L128.945 90.9451L137.201 87.4578L139.908 78.9258Z" fill="#FFDF7E"/>
<path d="M73.5131 196.167C73.895 194.391 75.874 193.468 77.5058 194.322L94.6223 203.034C97.6776 204.606 98.8928 208.296 97.2957 211.337L81.3249 241.676C79.7278 244.683 75.9781 245.879 72.8881 244.307L64 239.763L73.5131 196.167Z" fill="#F29111"/>
<defs>
<filter id="filter0_d_2831_11954" x="190.648" y="73.9902" width="56.9883" height="98.1572" filterUnits="userSpaceOnUse" color-interpolation-filters="sRGB">
<feFlood flood-opacity="0" result="BackgroundImageFix"/>
<feColorMatrix in="SourceAlpha" type="matrix" values="0 0 0 0 0 0 0 0 0 0 0 0 0 0 0 0 0 0 127 0" result="hardAlpha"/>
<feOffset dy="4"/>
<feGaussianBlur stdDeviation="2"/>
<feComposite in2="hardAlpha" operator="out"/>
<feColorMatrix type="matrix" values="0 0 0 0 0 0 0 0 0 0 0 0 0 0 0 0 0 0 0.45 0"/>
<feBlend mode="normal" in2="BackgroundImageFix" result="effect1_dropShadow_2831_11954"/>
<feBlend mode="normal" in="SourceGraphic" in2="effect1_dropShadow_2831_11954" result="shape"/>
</filter>
<filter id="filter1_d_2831_11954" x="149.367" y="113.83" width="343.5" height="242.473" filterUnits="userSpaceOnUse" color-interpolation-filters="sRGB">
<feFlood flood-opacity="0" result="BackgroundImageFix"/>
<feColorMatrix in="SourceAlpha" type="matrix" values="0 0 0 0 0 0 0 0 0 0 0 0 0 0 0 0 0 0 127 0" result="hardAlpha"/>
<feOffset dy="4"/>
<feGaussianBlur stdDeviation="3.5"/>
<feComposite in2="hardAlpha" operator="out"/>
<feColorMatrix type="matrix" values="0 0 0 0 0 0 0 0 0 0 0 0 0 0 0 0 0 0 0.25 0"/>
<feBlend mode="normal" in2="BackgroundImageFix" result="effect1_dropShadow_2831_11954"/>
<feBlend mode="normal" in="SourceGraphic" in2="effect1_dropShadow_2831_11954" result="shape"/>
</filter>
<filter id="filter2_d_2831_11954" x="155.367" y="114.83" width="331.5" height="230.473" filterUnits="userSpaceOnUse" color-interpolation-filters="sRGB">
<feFlood flood-opacity="0" result="BackgroundImageFix"/>
<feColorMatrix in="SourceAlpha" type="matrix" values="0 0 0 0 0 0 0 0 0 0 0 0 0 0 0 0 0 0 127 0" result="hardAlpha"/>
<feOffset dy="-1"/>
<feGaussianBlur stdDeviation="0.5"/>
<feComposite in2="hardAlpha" operator="out"/>
<feColorMatrix type="matrix" values="0 0 0 0 0 0 0 0 0 0 0 0 0 0 0 0 0 0 0.1 0"/>
<feBlend mode="normal" in2="BackgroundImageFix" result="effect1_dropShadow_2831_11954"/>
<feBlend mode="normal" in="SourceGraphic" in2="effect1_dropShadow_2831_11954" result="shape"/>
</filter>
<filter id="filter3_d_2831_11954" x="269.18" y="309.947" width="80.2812" height="88.7891" filterUnits="userSpaceOnUse" color-interpolation-filters="sRGB">
<feFlood flood-opacity="0" result="BackgroundImageFix"/>
<feColorMatrix in="SourceAlpha" type="matrix" values="0 0 0 0 0 0 0 0 0 0 0 0 0 0 0 0 0 0 127 0" result="hardAlpha"/>
<feOffset/>
<feGaussianBlur stdDeviation="4"/>
<feComposite in2="hardAlpha" operator="out"/>
<feColorMatrix type="matrix" values="0 0 0 0 0 0 0 0 0 0 0 0 0 0 0 0 0 0 0.25 0"/>
<feBlend mode="normal" in2="BackgroundImageFix" result="effect1_dropShadow_2831_11954"/>
<feBlend mode="normal" in="SourceGraphic" in2="effect1_dropShadow_2831_11954" result="shape"/>
</filter>
<filter id="filter4_d_2831_11954" x="71.2422" y="204.502" width="84.6797" height="58.5059" filterUnits="userSpaceOnUse" color-interpolation-filters="sRGB">
<feFlood flood-opacity="0" result="BackgroundImageFix"/>
<feColorMatrix in="SourceAlpha" type="matrix" values="0 0 0 0 0 0 0 0 0 0 0 0 0 0 0 0 0 0 127 0" result="hardAlpha"/>
<feOffset/>
<feGaussianBlur stdDeviation="4"/>
<feComposite in2="hardAlpha" operator="out"/>
<feColorMatrix type="matrix" values="0 0 0 0 0 0 0 0 0 0 0 0 0 0 0 0 0 0 0.25 0"/>
<feBlend mode="normal" in2="BackgroundImageFix" result="effect1_dropShadow_2831_11954"/>
<feBlend mode="normal" in="SourceGraphic" in2="effect1_dropShadow_2831_11954" result="shape"/>
</filter>
<linearGradient id="paint0_linear_2831_11954" x1="237.418" y1="72.6832" x2="213.865" y2="168.866" gradientUnits="userSpaceOnUse">
<stop stop-color="white"/>
<stop offset="1" stop-color="white"/>
</linearGradient>
</defs>
</svg>
