<svg width="500" height="500" viewBox="0 0 500 500" fill="none" xmlns="http://www.w3.org/2000/svg">
<path d="M220.886 467.11C332.843 467.11 423.601 456.113 423.601 442.547C423.601 428.982 332.843 417.984 220.886 417.984C108.93 417.984 18.1719 428.982 18.1719 442.547C18.1719 456.113 108.93 467.11 220.886 467.11Z" fill="#A4AFBF" fill-opacity="0.7"/>
<g filter="url(#filter0_d_2831_15055)">
<path d="M197.678 352.831L209.499 356.577C211.032 356.994 212.126 358.035 212.564 359.492L216.724 369.692C217.599 371.773 216.724 374.271 214.535 375.52L181.916 394.671C179.727 395.92 176.881 395.503 175.349 393.63L173.816 391.756C171.627 389.259 171.408 385.928 173.16 383.222L191.549 354.704C192.862 352.831 195.489 351.998 197.678 352.831Z" fill="white"/>
</g>
<path d="M193.299 397.169L183.229 383.431L172.502 368.443C172.064 367.819 171.845 367.61 171.407 368.027L170.751 366.986L168.562 363.655C169.218 362.823 169.218 361.366 168.343 360.117L167.248 358.451C175.348 344.921 173.815 323.064 162.651 306.411C149.954 287.469 129.595 282.057 117.117 294.546C104.857 307.036 105.076 332.64 117.992 351.582C129.157 368.235 146.451 374.48 158.71 367.194L159.805 368.859C160.462 369.9 161.775 370.316 162.432 369.692L164.621 373.023L164.183 373.439C163.745 373.855 163.964 374.48 164.402 375.104L185.856 405.287C186.731 406.744 188.045 406.953 189.139 405.912L194.174 401.332C195.05 400.292 195.926 400.916 195.05 399.459L193.299 397.169Z" fill="#2D6982"/>
<path d="M168.559 363.656L162.649 369.693L162.43 369.901L164.619 373.232L170.748 366.987L168.559 363.656Z" fill="#CCCCCC"/>
<path d="M195.708 399.874L172.503 366.361C172.284 365.944 171.628 365.944 171.19 366.152L170.752 366.361L164.184 372.189L163.747 372.397C163.309 372.605 163.09 373.23 163.528 373.646L186.076 405.703C186.733 406.744 188.265 406.952 189.36 406.327L195.051 402.997C196.146 402.164 196.365 400.915 195.708 399.874Z" fill="#4D3216"/>
<path d="M191.549 402.998C190.454 403.623 188.922 403.415 188.265 402.374L165.936 370.525L163.747 372.399C163.309 372.607 163.09 373.231 163.528 373.648L186.076 405.704C186.733 406.745 188.265 406.953 189.36 406.329L195.051 402.998C195.927 402.374 196.365 401.333 195.927 400.5L191.549 402.998Z" fill="#301F0D"/>
<path d="M167.032 348.668C172.286 331.599 164.624 309.118 149.957 298.502C135.29 287.677 118.871 292.673 113.617 309.742C108.363 326.811 116.025 349.293 130.693 359.909C145.36 370.525 161.779 365.529 167.032 348.668Z" fill="#383838"/>
<path d="M164.837 347.002C169.653 331.39 162.648 310.782 149.076 300.791C135.503 290.799 120.617 295.586 115.801 310.99C110.984 326.602 117.99 347.21 131.562 357.202C145.135 367.194 160.021 362.614 164.837 347.002Z" fill="#9ED3EF"/>
<path d="M158.491 347.003C148.421 357.203 132.003 352.832 121.495 337.428C117.554 331.599 115.146 325.146 114.052 318.693C113.395 328.061 116.022 338.469 121.933 347.419C132.222 362.823 148.859 367.195 158.929 356.995C165.278 350.75 167.467 340.134 165.715 329.518C165.278 336.387 162.87 342.84 158.491 347.003Z" fill="#59BEE9"/>
<path d="M157.181 317.443C157.181 309.95 149.957 301.623 140.981 298.917C132.006 296.211 124.563 300.166 124.344 307.66C124.344 315.154 131.568 323.48 140.543 326.186C149.519 328.892 156.962 324.937 157.181 317.443Z" fill="#C2E0F2"/>
<path d="M193.52 399.459C192.863 399.875 192.206 399.667 191.987 399.25L171.628 370.733C171.409 370.316 171.409 369.9 171.847 369.484L172.066 369.275C172.504 369.067 173.161 369.067 173.379 369.484L193.739 398.001C193.957 398.626 193.957 399.25 193.52 399.459Z" fill="#A07649"/>
<path d="M160.9 380.725C160.024 379.893 160.243 378.435 161.338 377.811L172.94 372.815C175.129 371.983 177.537 372.815 178.632 374.897L187.607 391.341C188.702 393.423 187.826 395.713 185.856 396.754L179.726 399.46L160.9 380.725Z" fill="#F29111"/>
<g filter="url(#filter1_d_2831_15055)">
<path d="M156.306 165.487C160.465 189.634 174.257 224.396 181.481 240.633L211.91 199.625C198.337 170.483 181.481 152.998 171.411 145.296C168.565 143.214 164.625 143.839 162.435 146.545L161.122 148.002C157.4 152.998 155.211 159.242 156.306 165.487Z" fill="white"/>
</g>
<path d="M192.644 167.36C167.249 155.078 161.558 176.311 161.777 188.384C155.647 166.319 152.363 162.156 160.025 149.874C166.593 139.258 172.503 145.919 174.255 147.168C176.006 148.417 186.733 159.033 192.644 167.36Z" fill="#FF9100"/>
<g filter="url(#filter2_d_2831_15055)">
<g filter="url(#filter3_d_2831_15055)">
<path fill-rule="evenodd" clip-rule="evenodd" d="M372.589 184.014C391.635 149.667 418.123 89.3011 419.437 58.9098C419.656 55.9955 417.467 53.7058 414.84 52.8731L413.964 52.665C406.083 50.3752 397.326 52.4568 391.854 58.4935C369.743 82.2237 340.409 115.946 314.358 163.614C296.626 162.157 277.799 164.031 259.192 170.067C195.925 190.467 160.023 249.792 178.85 302.457C197.677 355.121 264.227 381.558 327.274 361.158C390.321 340.758 426.442 281.433 407.615 228.768C401.048 210.45 388.57 195.254 372.589 184.014Z" fill="white"/>
</g>
</g>
<g filter="url(#filter4_d_2831_15055)">
<path d="M353.331 343.047L351.799 326.603C351.58 324.521 352.456 322.647 353.988 321.19L365.591 310.366C367.999 308.284 371.501 307.868 374.128 309.533L430.827 342.839C433.892 344.712 434.986 348.459 433.454 351.582L432.14 354.08C429.951 358.035 425.354 360.324 420.757 359.492L359.023 349.292C355.958 348.667 353.55 346.17 353.331 343.047Z" fill="white"/>
<path d="M420.974 359.492L382.227 353.039L408.934 329.934L431.044 342.839C434.109 344.713 435.204 348.46 433.671 351.582L432.358 354.08C430.169 358.035 425.572 360.117 420.974 359.492Z" fill="#F29111"/>
</g>
<path d="M419.222 59.1176C417.909 72.2316 414.406 93.8803 401.49 124.48C401.49 124.48 399.082 93.0476 389.669 89.3008C380.256 85.762 352.016 105.537 352.016 105.537C361.648 93.2558 379.161 69.3174 393.828 56.6197C398.863 52.2483 405.65 51.2075 412.217 51.832L413.53 52.0401C417.033 52.6646 419.66 55.5789 419.222 59.1176Z" fill="#FF9100"/>
<path d="M340.847 256.245C352.887 290.175 335.374 333.889 290.497 348.252C245.619 362.615 197.239 340.55 184.98 306.411C172.721 272.273 195.926 234.18 240.803 219.609C285.68 205.038 328.588 222.315 340.847 256.245Z" fill="#35373A"/>
<path d="M419.442 58.7019C418.566 90.7585 391.858 151.749 372.594 184.014L361.867 177.145L417.69 58.2855C418.128 57.2447 419.442 57.4529 419.442 58.7019Z" fill="#E9E6E6"/>
<mask id="mask0_2831_15055" style="mask-type:luminance" maskUnits="userSpaceOnUse" x="261" y="254" width="46" height="37">
<path d="M306.697 276.436C306.697 276.436 293.343 269.15 281.741 272.897C269.919 276.644 264.884 292.048 264.009 290.174C258.317 274.562 263.352 258.742 275.173 254.995C286.995 251.249 301.005 260.824 306.697 276.436Z" fill="white"/>
</mask>
<g mask="url(#mask0_2831_15055)">
<path d="M261.432 271.353C262.348 271.058 262.776 269.936 262.387 268.847C261.999 267.758 260.942 267.115 260.026 267.41C259.11 267.706 258.682 268.828 259.07 269.917C259.459 271.005 260.516 271.648 261.432 271.353Z" fill="#F29111"/>
<path d="M263.409 276.287C264.325 275.991 264.752 274.869 264.364 273.78C263.976 272.692 262.918 272.049 262.002 272.344C261.086 272.639 260.659 273.761 261.047 274.85C261.435 275.939 262.493 276.582 263.409 276.287Z" fill="#F29111"/>
<path d="M265.166 281.287C266.082 280.991 266.51 279.869 266.122 278.78C265.733 277.692 264.676 277.049 263.76 277.344C262.844 277.639 262.416 278.761 262.805 279.85C263.193 280.939 264.25 281.582 265.166 281.287Z" fill="#F29111"/>
<path d="M262.338 260.089C263.254 259.794 263.682 258.672 263.294 257.583C262.905 256.494 261.848 255.851 260.932 256.147C260.016 256.442 259.588 257.564 259.977 258.653C260.365 259.742 261.422 260.385 262.338 260.089Z" fill="#F29111"/>
<path d="M264.034 264.892C264.95 264.597 265.377 263.475 264.989 262.386C264.601 261.297 263.543 260.654 262.627 260.949C261.711 261.245 261.284 262.367 261.672 263.456C262.06 264.544 263.118 265.187 264.034 264.892Z" fill="#F29111"/>
<path d="M265.791 269.892C266.707 269.597 267.135 268.475 266.747 267.386C266.358 266.297 265.301 265.654 264.385 265.949C263.469 266.245 263.041 267.367 263.43 268.456C263.818 269.544 264.875 270.187 265.791 269.892Z" fill="#F29111"/>
<path d="M267.557 274.892C268.473 274.597 268.901 273.475 268.512 272.386C268.124 271.297 267.067 270.654 266.151 270.949C265.235 271.245 264.807 272.367 265.195 273.456C265.584 274.544 266.641 275.187 267.557 274.892Z" fill="#F29111"/>
<path d="M269.526 279.826C270.442 279.53 270.869 278.408 270.481 277.319C270.093 276.231 269.035 275.588 268.119 275.883C267.203 276.178 266.776 277.301 267.164 278.389C267.552 279.478 268.61 280.121 269.526 279.826Z" fill="#F29111"/>
<path d="M260.737 282.55C261.653 282.255 262.08 281.133 261.692 280.044C261.304 278.955 260.246 278.312 259.33 278.608C258.414 278.903 257.987 280.025 258.375 281.114C258.763 282.203 259.821 282.846 260.737 282.55Z" fill="#F29111"/>
<path d="M266.698 258.628C267.614 258.333 268.041 257.211 267.653 256.122C267.265 255.033 266.207 254.39 265.291 254.686C264.375 254.981 263.948 256.103 264.336 257.192C264.724 258.281 265.782 258.924 266.698 258.628Z" fill="#F29111"/>
<path d="M268.463 263.628C269.379 263.333 269.807 262.211 269.419 261.122C269.03 260.033 267.973 259.39 267.057 259.686C266.141 259.981 265.713 261.103 266.102 262.192C266.49 263.281 267.547 263.924 268.463 263.628Z" fill="#F29111"/>
<path d="M270.151 268.431C271.067 268.136 271.494 267.014 271.106 265.925C270.718 264.836 269.66 264.193 268.744 264.489C267.828 264.784 267.401 265.906 267.789 266.995C268.177 268.083 269.235 268.727 270.151 268.431Z" fill="#F29111"/>
<path d="M271.916 273.431C272.832 273.136 273.26 272.014 272.872 270.925C272.483 269.836 271.426 269.193 270.51 269.489C269.594 269.784 269.166 270.906 269.555 271.995C269.943 273.083 271 273.727 271.916 273.431Z" fill="#F29111"/>
<path d="M273.682 278.431C274.598 278.136 275.026 277.014 274.637 275.925C274.249 274.836 273.192 274.193 272.276 274.489C271.36 274.784 270.932 275.906 271.32 276.995C271.709 278.083 272.766 278.727 273.682 278.431Z" fill="#F29111"/>
<path d="M275.416 255.705C276.332 255.409 276.76 254.287 276.372 253.198C275.983 252.11 274.926 251.467 274.01 251.762C273.094 252.057 272.666 253.179 273.055 254.268C273.443 255.357 274.5 256 275.416 255.705Z" fill="#F29111"/>
<path d="M277.182 260.705C278.098 260.409 278.526 259.287 278.137 258.198C277.749 257.11 276.692 256.467 275.776 256.762C274.86 257.057 274.432 258.179 274.82 259.268C275.209 260.357 276.266 261 277.182 260.705Z" fill="#F29111"/>
<path d="M278.94 265.705C279.856 265.409 280.283 264.287 279.895 263.198C279.507 262.11 278.449 261.467 277.533 261.762C276.618 262.057 276.19 263.179 276.578 264.268C276.966 265.357 278.024 266 278.94 265.705Z" fill="#F29111"/>
<path d="M280.705 270.705C281.621 270.409 282.049 269.287 281.661 268.198C281.272 267.11 280.215 266.467 279.299 266.762C278.383 267.057 277.955 268.179 278.344 269.268C278.732 270.357 279.789 271 280.705 270.705Z" fill="#F29111"/>
<path d="M282.471 275.705C283.387 275.409 283.815 274.287 283.426 273.198C283.038 272.11 281.981 271.467 281.065 271.762C280.149 272.057 279.721 273.179 280.109 274.268C280.498 275.357 281.555 276 282.471 275.705Z" fill="#F29111"/>
<path d="M290.323 256.517C291.239 256.222 291.666 255.1 291.278 254.011C290.89 252.922 289.832 252.279 288.916 252.574C288 252.87 287.573 253.992 287.961 255.081C288.349 256.169 289.407 256.812 290.323 256.517Z" fill="#F29111"/>
<path d="M292.088 261.517C293.004 261.222 293.432 260.1 293.044 259.011C292.655 257.922 291.598 257.279 290.682 257.574C289.766 257.87 289.338 258.992 289.727 260.081C290.115 261.169 291.172 261.812 292.088 261.517Z" fill="#F29111"/>
<path d="M293.854 266.517C294.77 266.222 295.198 265.1 294.809 264.011C294.421 262.922 293.363 262.279 292.448 262.574C291.532 262.87 291.104 263.992 291.492 265.081C291.881 266.169 292.938 266.812 293.854 266.517Z" fill="#F29111"/>
<path d="M295.541 271.32C296.457 271.024 296.885 269.902 296.497 268.814C296.108 267.725 295.051 267.082 294.135 267.377C293.219 267.673 292.791 268.795 293.18 269.883C293.568 270.972 294.625 271.615 295.541 271.32Z" fill="#F29111"/>
<path d="M279.846 254.441C280.762 254.145 281.19 253.023 280.801 251.935C280.413 250.846 279.356 250.203 278.44 250.498C277.524 250.794 277.096 251.916 277.484 253.004C277.873 254.093 278.93 254.736 279.846 254.441Z" fill="#F29111"/>
<path d="M281.541 259.244C282.457 258.948 282.885 257.826 282.497 256.737C282.108 255.649 281.051 255.006 280.135 255.301C279.219 255.596 278.791 256.719 279.18 257.807C279.568 258.896 280.625 259.539 281.541 259.244Z" fill="#F29111"/>
<path d="M283.299 264.244C284.215 263.948 284.643 262.826 284.254 261.737C283.866 260.649 282.809 260.006 281.893 260.301C280.977 260.596 280.549 261.719 280.938 262.807C281.326 263.896 282.383 264.539 283.299 264.244Z" fill="#F29111"/>
<path d="M285.065 269.244C285.981 268.948 286.408 267.826 286.02 266.737C285.632 265.649 284.574 265.006 283.658 265.301C282.743 265.596 282.315 266.718 282.703 267.807C283.091 268.896 284.149 269.539 285.065 269.244Z" fill="#F29111"/>
<path d="M286.83 274.244C287.746 273.948 288.174 272.826 287.786 271.737C287.397 270.649 286.34 270.006 285.424 270.301C284.508 270.596 284.08 271.719 284.469 272.807C284.857 273.896 285.914 274.539 286.83 274.244Z" fill="#F29111"/>
<path d="M294.682 255.056C295.598 254.761 296.026 253.639 295.637 252.55C295.249 251.461 294.192 250.818 293.276 251.114C292.36 251.409 291.932 252.531 292.32 253.62C292.709 254.708 293.766 255.352 294.682 255.056Z" fill="#F29111"/>
<path d="M296.448 260.056C297.364 259.761 297.791 258.639 297.403 257.55C297.015 256.461 295.957 255.818 295.041 256.114C294.125 256.409 293.698 257.531 294.086 258.62C294.474 259.708 295.532 260.352 296.448 260.056Z" fill="#F29111"/>
<path d="M298.213 265.056C299.129 264.761 299.557 263.639 299.169 262.55C298.78 261.461 297.723 260.818 296.807 261.114C295.891 261.409 295.463 262.531 295.852 263.62C296.24 264.708 297.297 265.352 298.213 265.056Z" fill="#F29111"/>
<path d="M299.971 270.056C300.887 269.761 301.315 268.639 300.926 267.55C300.538 266.461 299.481 265.818 298.565 266.114C297.649 266.409 297.221 267.531 297.609 268.62C297.998 269.708 299.055 270.352 299.971 270.056Z" fill="#F29111"/>
<path d="M271.057 257.165C271.973 256.87 272.401 255.748 272.012 254.659C271.624 253.571 270.567 252.928 269.651 253.223C268.735 253.518 268.307 254.64 268.695 255.729C269.084 256.818 270.141 257.461 271.057 257.165Z" fill="#F29111"/>
<path d="M272.823 262.165C273.739 261.87 274.166 260.748 273.778 259.659C273.39 258.571 272.332 257.928 271.416 258.223C270.5 258.518 270.073 259.64 270.461 260.729C270.849 261.818 271.907 262.461 272.823 262.165Z" fill="#F29111"/>
<path d="M274.58 267.165C275.496 266.87 275.924 265.748 275.536 264.659C275.147 263.571 274.09 262.928 273.174 263.223C272.258 263.518 271.83 264.64 272.219 265.729C272.607 266.818 273.664 267.461 274.58 267.165Z" fill="#F29111"/>
<path d="M276.346 272.165C277.262 271.87 277.69 270.748 277.301 269.659C276.913 268.571 275.856 267.928 274.94 268.223C274.024 268.518 273.596 269.64 273.984 270.729C274.373 271.818 275.43 272.461 276.346 272.165Z" fill="#F29111"/>
<path d="M278.041 276.968C278.957 276.673 279.385 275.551 278.997 274.462C278.608 273.373 277.551 272.73 276.635 273.026C275.719 273.321 275.291 274.443 275.68 275.532C276.068 276.621 277.125 277.264 278.041 276.968Z" fill="#F29111"/>
<path d="M285.971 257.978C286.887 257.683 287.315 256.561 286.926 255.472C286.538 254.383 285.481 253.74 284.565 254.035C283.649 254.331 283.221 255.453 283.609 256.542C283.998 257.63 285.055 258.273 285.971 257.978Z" fill="#F29111"/>
<path d="M287.659 262.781C288.575 262.485 289.002 261.363 288.614 260.275C288.226 259.186 287.168 258.543 286.252 258.838C285.336 259.134 284.909 260.256 285.297 261.344C285.685 262.433 286.743 263.076 287.659 262.781Z" fill="#F29111"/>
<path d="M289.424 267.783C290.34 267.487 290.768 266.365 290.379 265.277C289.991 264.188 288.934 263.545 288.018 263.84C287.102 264.136 286.674 265.258 287.063 266.346C287.451 267.435 288.508 268.078 289.424 267.783Z" fill="#F29111"/>
<path d="M291.19 272.783C292.106 272.487 292.533 271.365 292.145 270.276C291.757 269.188 290.699 268.545 289.784 268.84C288.868 269.136 288.44 270.258 288.828 271.346C289.216 272.435 290.274 273.078 291.19 272.783Z" fill="#F29111"/>
<path d="M298.838 253.662C299.754 253.366 300.182 252.244 299.794 251.155C299.405 250.067 298.348 249.424 297.432 249.719C296.516 250.014 296.088 251.136 296.477 252.225C296.865 253.314 297.922 253.957 298.838 253.662Z" fill="#F29111"/>
<path d="M300.807 258.595C301.723 258.3 302.151 257.178 301.762 256.089C301.374 255 300.317 254.357 299.401 254.653C298.485 254.948 298.057 256.07 298.445 257.159C298.834 258.247 299.891 258.891 300.807 258.595Z" fill="#F29111"/>
<path d="M302.573 263.595C303.489 263.3 303.916 262.178 303.528 261.089C303.14 260 302.082 259.357 301.166 259.653C300.25 259.948 299.823 261.07 300.211 262.159C300.599 263.247 301.657 263.891 302.573 263.595Z" fill="#F29111"/>
<path d="M304.33 268.595C305.246 268.3 305.674 267.178 305.286 266.089C304.897 265 303.84 264.357 302.924 264.653C302.008 264.948 301.58 266.07 301.969 267.159C302.357 268.247 303.414 268.891 304.33 268.595Z" fill="#F29111"/>
<path d="M266.862 286.089C267.778 285.794 268.205 284.672 267.817 283.583C267.429 282.494 266.371 281.851 265.455 282.147C264.539 282.442 264.112 283.564 264.5 284.653C264.888 285.742 265.946 286.385 266.862 286.089Z" fill="#F29111"/>
<path d="M268.627 291.089C269.543 290.794 269.971 289.672 269.583 288.583C269.194 287.494 268.137 286.851 267.221 287.147C266.305 287.442 265.877 288.564 266.266 289.653C266.654 290.742 267.711 291.385 268.627 291.089Z" fill="#F29111"/>
<path d="M271.291 284.826C272.207 284.53 272.635 283.408 272.247 282.319C271.858 281.231 270.801 280.588 269.885 280.883C268.969 281.178 268.541 282.301 268.93 283.389C269.318 284.478 270.375 285.121 271.291 284.826Z" fill="#F29111"/>
<path d="M273.057 289.826C273.973 289.53 274.401 288.408 274.012 287.319C273.624 286.231 272.567 285.588 271.651 285.883C270.735 286.178 270.307 287.301 270.695 288.389C271.084 289.478 272.141 290.121 273.057 289.826Z" fill="#F29111"/>
<path d="M262.502 287.55C263.418 287.255 263.846 286.133 263.458 285.044C263.069 283.955 262.012 283.312 261.096 283.608C260.18 283.903 259.752 285.025 260.141 286.114C260.529 287.203 261.586 287.846 262.502 287.55Z" fill="#F29111"/>
<path d="M264.268 292.55C265.184 292.255 265.612 291.133 265.223 290.044C264.835 288.955 263.778 288.312 262.862 288.608C261.946 288.903 261.518 290.025 261.906 291.114C262.295 292.203 263.352 292.846 264.268 292.55Z" fill="#F29111"/>
<path d="M275.651 283.363C276.567 283.067 276.994 281.945 276.606 280.857C276.218 279.768 275.16 279.125 274.244 279.42C273.328 279.716 272.901 280.838 273.289 281.926C273.677 283.015 274.735 283.658 275.651 283.363Z" fill="#F29111"/>
<path d="M277.409 288.365C278.325 288.069 278.752 286.947 278.364 285.859C277.976 284.77 276.918 284.127 276.002 284.422C275.086 284.718 274.659 285.84 275.047 286.928C275.435 288.017 276.493 288.66 277.409 288.365Z" fill="#F29111"/>
<path d="M284.229 280.705C285.145 280.409 285.573 279.287 285.184 278.198C284.796 277.11 283.739 276.467 282.823 276.762C281.907 277.057 281.479 278.179 281.867 279.268C282.256 280.357 283.313 281 284.229 280.705Z" fill="#F29111"/>
<path d="M285.924 285.507C286.84 285.212 287.268 284.09 286.88 283.001C286.491 281.912 285.434 281.269 284.518 281.565C283.602 281.86 283.174 282.982 283.563 284.071C283.951 285.16 285.008 285.803 285.924 285.507Z" fill="#F29111"/>
<path d="M297.307 276.32C298.223 276.024 298.651 274.902 298.262 273.814C297.874 272.725 296.817 272.082 295.901 272.377C294.985 272.673 294.557 273.795 294.945 274.883C295.334 275.972 296.391 276.615 297.307 276.32Z" fill="#F29111"/>
<path d="M299.073 281.32C299.989 281.024 300.416 279.902 300.028 278.814C299.64 277.725 298.582 277.082 297.666 277.377C296.75 277.673 296.323 278.795 296.711 279.883C297.099 280.972 298.157 281.615 299.073 281.32Z" fill="#F29111"/>
<path d="M288.588 279.244C289.504 278.948 289.932 277.826 289.544 276.737C289.155 275.649 288.098 275.006 287.182 275.301C286.266 275.596 285.838 276.719 286.227 277.807C286.615 278.896 287.672 279.539 288.588 279.244Z" fill="#F29111"/>
<path d="M290.354 284.244C291.27 283.948 291.698 282.826 291.309 281.737C290.921 280.649 289.864 280.006 288.948 280.301C288.032 280.596 287.604 281.719 287.992 282.807C288.381 283.896 289.438 284.539 290.354 284.244Z" fill="#F29111"/>
<path d="M301.737 275.056C302.653 274.761 303.08 273.639 302.692 272.55C302.304 271.461 301.246 270.818 300.33 271.114C299.414 271.409 298.987 272.531 299.375 273.62C299.763 274.708 300.821 275.352 301.737 275.056Z" fill="#F29111"/>
<path d="M303.432 279.859C304.348 279.563 304.776 278.441 304.387 277.353C303.999 276.264 302.942 275.621 302.026 275.916C301.11 276.212 300.682 277.334 301.07 278.422C301.459 279.511 302.516 280.154 303.432 279.859Z" fill="#F29111"/>
<path d="M279.799 281.97C280.715 281.675 281.143 280.553 280.755 279.464C280.366 278.375 279.309 277.732 278.393 278.028C277.477 278.323 277.049 279.445 277.438 280.534C277.826 281.622 278.883 282.266 279.799 281.97Z" fill="#F29111"/>
<path d="M281.768 286.902C282.684 286.606 283.112 285.484 282.723 284.396C282.335 283.307 281.278 282.664 280.362 282.959C279.446 283.255 279.018 284.377 279.406 285.465C279.795 286.554 280.852 287.197 281.768 286.902Z" fill="#F29111"/>
<path d="M292.948 277.781C293.864 277.485 294.291 276.363 293.903 275.275C293.515 274.186 292.457 273.543 291.541 273.838C290.625 274.134 290.198 275.256 290.586 276.344C290.974 277.433 292.032 278.076 292.948 277.781Z" fill="#F29111"/>
<path d="M294.713 282.781C295.629 282.485 296.057 281.363 295.669 280.275C295.28 279.186 294.223 278.543 293.307 278.838C292.391 279.134 291.963 280.256 292.352 281.344C292.74 282.433 293.797 283.076 294.713 282.781Z" fill="#F29111"/>
<path d="M306.096 273.595C307.012 273.3 307.44 272.178 307.051 271.089C306.663 270 305.606 269.357 304.69 269.653C303.774 269.948 303.346 271.07 303.734 272.159C304.123 273.247 305.18 273.891 306.096 273.595Z" fill="#F29111"/>
<path d="M307.862 278.593C308.778 278.298 309.205 277.176 308.817 276.087C308.429 274.998 307.371 274.355 306.455 274.651C305.539 274.946 305.112 276.068 305.5 277.157C305.888 278.246 306.946 278.889 307.862 278.593Z" fill="#F29111"/>
</g>
<mask id="mask1_2831_15055" style="mask-type:luminance" maskUnits="userSpaceOnUse" x="202" y="268" width="37" height="48">
<path d="M228.316 314.723C237.132 311.879 240.658 299.425 236.192 286.904C231.726 274.384 220.959 266.54 212.143 269.383C203.327 272.226 199.8 284.681 204.266 297.201C208.732 309.721 219.499 317.566 228.316 314.723Z" fill="white"/>
</mask>
<g mask="url(#mask1_2831_15055)">
<path d="M201.869 287.161C202.556 286.939 202.798 285.877 202.41 284.788C202.021 283.699 201.15 282.996 200.463 283.218C199.776 283.44 199.534 284.502 199.922 285.59C200.31 286.679 201.182 287.382 201.869 287.161Z" fill="#F29111"/>
<path d="M203.642 291.922C204.329 291.701 204.571 290.639 204.183 289.55C203.795 288.461 202.923 287.758 202.236 287.98C201.549 288.201 201.307 289.263 201.695 290.352C202.084 291.441 202.955 292.144 203.642 291.922Z" fill="#F29111"/>
<path d="M205.345 296.489C206.032 296.267 206.275 295.205 205.886 294.116C205.498 293.028 204.626 292.325 203.939 292.546C203.252 292.768 203.01 293.83 203.398 294.919C203.787 296.007 204.659 296.71 205.345 296.489Z" fill="#F29111"/>
<path d="M206.916 301.317C207.603 301.095 207.845 300.033 207.457 298.944C207.068 297.856 206.196 297.153 205.509 297.374C204.823 297.596 204.58 298.658 204.969 299.747C205.357 300.835 206.229 301.538 206.916 301.317Z" fill="#F29111"/>
<path d="M208.689 306.078C209.376 305.857 209.618 304.795 209.23 303.706C208.842 302.617 207.97 301.914 207.283 302.136C206.596 302.358 206.354 303.42 206.742 304.508C207.131 305.597 208.002 306.3 208.689 306.078Z" fill="#F29111"/>
<path d="M210.392 310.643C211.079 310.421 211.321 309.359 210.933 308.271C210.545 307.182 209.673 306.479 208.986 306.7C208.299 306.922 208.057 307.984 208.445 309.073C208.834 310.162 209.705 310.864 210.392 310.643Z" fill="#F29111"/>
<path d="M210.189 279.227C210.876 279.005 211.118 277.943 210.73 276.854C210.342 275.766 209.47 275.063 208.783 275.284C208.096 275.506 207.854 276.568 208.242 277.657C208.631 278.746 209.502 279.448 210.189 279.227Z" fill="#F29111"/>
<path d="M211.963 283.989C212.65 283.767 212.892 282.705 212.503 281.616C212.115 280.528 211.243 279.825 210.556 280.046C209.869 280.268 209.627 281.33 210.016 282.419C210.404 283.507 211.276 284.21 211.963 283.989Z" fill="#F29111"/>
<path d="M213.455 288.62C214.142 288.398 214.384 287.336 213.996 286.247C213.607 285.158 212.736 284.455 212.049 284.677C211.362 284.899 211.119 285.961 211.508 287.049C211.896 288.138 212.768 288.841 213.455 288.62Z" fill="#F29111"/>
<path d="M215.228 293.383C215.915 293.162 216.157 292.099 215.769 291.011C215.381 289.922 214.509 289.219 213.822 289.441C213.135 289.662 212.893 290.724 213.281 291.813C213.67 292.902 214.541 293.605 215.228 293.383Z" fill="#F29111"/>
<path d="M217.002 298.145C217.689 297.923 217.931 296.861 217.542 295.772C217.154 294.684 216.282 293.981 215.595 294.202C214.908 294.424 214.666 295.486 215.055 296.575C215.443 297.663 216.315 298.366 217.002 298.145Z" fill="#F29111"/>
<path d="M218.494 302.776C219.181 302.554 219.423 301.492 219.035 300.403C218.646 299.315 217.775 298.612 217.088 298.833C216.401 299.055 216.159 300.117 216.547 301.206C216.935 302.294 217.807 302.997 218.494 302.776Z" fill="#F29111"/>
<path d="M220.267 307.537C220.954 307.316 221.196 306.254 220.808 305.165C220.42 304.076 219.548 303.373 218.861 303.595C218.174 303.816 217.932 304.879 218.32 305.967C218.709 307.056 219.58 307.759 220.267 307.537Z" fill="#F29111"/>
<path d="M220.064 276.121C220.751 275.9 220.993 274.838 220.605 273.749C220.217 272.66 219.345 271.957 218.658 272.179C217.971 272.4 217.729 273.463 218.117 274.551C218.506 275.64 219.377 276.343 220.064 276.121Z" fill="#F29111"/>
<path d="M221.767 280.686C222.454 280.464 222.696 279.402 222.308 278.313C221.92 277.225 221.048 276.522 220.361 276.743C219.674 276.965 219.432 278.027 219.82 279.116C220.209 280.205 221.08 280.907 221.767 280.686Z" fill="#F29111"/>
<path d="M223.541 285.448C224.228 285.226 224.47 284.164 224.082 283.075C223.693 281.986 222.821 281.284 222.135 281.505C221.448 281.727 221.205 282.789 221.594 283.878C221.982 284.966 222.854 285.669 223.541 285.448Z" fill="#F29111"/>
<path d="M225.111 290.278C225.798 290.056 226.04 288.994 225.652 287.905C225.263 286.817 224.392 286.114 223.705 286.335C223.018 286.557 222.776 287.619 223.164 288.708C223.552 289.796 224.424 290.499 225.111 290.278Z" fill="#F29111"/>
<path d="M226.814 294.842C227.501 294.621 227.743 293.558 227.355 292.47C226.967 291.381 226.095 290.678 225.408 290.9C224.721 291.121 224.479 292.183 224.867 293.272C225.256 294.361 226.127 295.064 226.814 294.842Z" fill="#F29111"/>
<path d="M228.588 299.604C229.275 299.382 229.517 298.32 229.128 297.231C228.74 296.143 227.868 295.44 227.181 295.661C226.494 295.883 226.252 296.945 226.641 298.034C227.029 299.122 227.901 299.825 228.588 299.604Z" fill="#F29111"/>
<path d="M230.15 304.434C230.837 304.212 231.079 303.15 230.691 302.062C230.303 300.973 229.431 300.27 228.744 300.491C228.057 300.713 227.815 301.775 228.203 302.864C228.591 303.953 229.463 304.656 230.15 304.434Z" fill="#F29111"/>
<path d="M229.877 272.819C230.564 272.597 230.806 271.535 230.417 270.446C230.029 269.358 229.157 268.655 228.47 268.876C227.783 269.098 227.541 270.16 227.93 271.249C228.318 272.337 229.19 273.04 229.877 272.819Z" fill="#F29111"/>
<path d="M231.65 277.58C232.337 277.359 232.579 276.297 232.191 275.208C231.803 274.119 230.931 273.416 230.244 273.638C229.557 273.859 229.315 274.922 229.703 276.01C230.091 277.099 230.963 277.802 231.65 277.58Z" fill="#F29111"/>
<path d="M233.424 282.344C234.111 282.123 234.353 281.06 233.964 279.972C233.576 278.883 232.704 278.18 232.017 278.402C231.33 278.623 231.088 279.685 231.477 280.774C231.865 281.863 232.737 282.566 233.424 282.344Z" fill="#F29111"/>
<path d="M235.127 286.909C235.814 286.687 236.056 285.625 235.667 284.536C235.279 283.447 234.407 282.744 233.72 282.966C233.033 283.188 232.791 284.25 233.18 285.338C233.568 286.427 234.44 287.13 235.127 286.909Z" fill="#F29111"/>
<path d="M236.689 291.737C237.376 291.515 237.618 290.453 237.23 289.364C236.842 288.276 235.97 287.573 235.283 287.794C234.596 288.016 234.354 289.078 234.742 290.167C235.131 291.255 236.002 291.958 236.689 291.737Z" fill="#F29111"/>
<path d="M238.463 296.498C239.15 296.277 239.392 295.215 239.003 294.126C238.615 293.037 237.743 292.334 237.056 292.556C236.369 292.777 236.127 293.84 236.516 294.928C236.904 296.017 237.776 296.72 238.463 296.498Z" fill="#F29111"/>
<path d="M240.166 301.065C240.853 300.843 241.095 299.781 240.707 298.692C240.318 297.604 239.446 296.901 238.759 297.122C238.073 297.344 237.83 298.406 238.219 299.495C238.607 300.583 239.479 301.286 240.166 301.065Z" fill="#F29111"/>
<path d="M203.603 281.297C204.29 281.076 204.532 280.014 204.144 278.925C203.756 277.836 202.884 277.133 202.197 277.355C201.51 277.576 201.268 278.638 201.656 279.727C202.045 280.816 202.916 281.519 203.603 281.297Z" fill="#F29111"/>
<path d="M205.166 286.125C205.853 285.904 206.095 284.842 205.707 283.753C205.318 282.664 204.446 281.961 203.759 282.183C203.073 282.404 202.83 283.467 203.219 284.555C203.607 285.644 204.479 286.347 205.166 286.125Z" fill="#F29111"/>
<path d="M206.939 290.887C207.626 290.666 207.868 289.603 207.48 288.515C207.092 287.426 206.22 286.723 205.533 286.945C204.846 287.166 204.604 288.228 204.992 289.317C205.381 290.406 206.252 291.109 206.939 290.887Z" fill="#F29111"/>
<path d="M208.642 295.452C209.329 295.23 209.571 294.168 209.183 293.079C208.795 291.99 207.923 291.287 207.236 291.509C206.549 291.731 206.307 292.793 206.695 293.881C207.084 294.97 207.955 295.673 208.642 295.452Z" fill="#F29111"/>
<path d="M210.205 300.282C210.892 300.06 211.134 298.998 210.746 297.909C210.357 296.82 209.486 296.118 208.799 296.339C208.112 296.561 207.869 297.623 208.258 298.712C208.646 299.8 209.518 300.503 210.205 300.282Z" fill="#F29111"/>
<path d="M211.978 305.043C212.665 304.822 212.907 303.76 212.519 302.671C212.131 301.582 211.259 300.879 210.572 301.101C209.885 301.322 209.643 302.385 210.031 303.473C210.42 304.562 211.291 305.265 211.978 305.043Z" fill="#F29111"/>
<path d="M213.681 309.608C214.368 309.386 214.61 308.324 214.222 307.235C213.834 306.147 212.962 305.444 212.275 305.665C211.588 305.887 211.346 306.949 211.734 308.038C212.123 309.126 212.994 309.829 213.681 309.608Z" fill="#F29111"/>
<path d="M213.478 278.192C214.165 277.97 214.407 276.908 214.019 275.819C213.631 274.731 212.759 274.028 212.072 274.249C211.385 274.471 211.143 275.533 211.531 276.622C211.92 277.71 212.791 278.413 213.478 278.192Z" fill="#F29111"/>
<path d="M215.252 282.953C215.939 282.732 216.181 281.67 215.792 280.581C215.404 279.492 214.532 278.789 213.845 279.011C213.158 279.233 212.916 280.295 213.305 281.383C213.693 282.472 214.565 283.175 215.252 282.953Z" fill="#F29111"/>
<path d="M216.752 287.586C217.439 287.365 217.681 286.303 217.292 285.214C216.904 284.125 216.032 283.422 215.345 283.644C214.658 283.865 214.416 284.927 214.805 286.016C215.193 287.105 216.065 287.808 216.752 287.586Z" fill="#F29111"/>
<path d="M218.525 292.348C219.212 292.126 219.454 291.064 219.066 289.976C218.678 288.887 217.806 288.184 217.119 288.405C216.432 288.627 216.19 289.689 216.578 290.778C216.966 291.867 217.838 292.57 218.525 292.348Z" fill="#F29111"/>
<path d="M220.299 297.11C220.986 296.888 221.228 295.826 220.839 294.737C220.451 293.649 219.579 292.946 218.892 293.167C218.205 293.389 217.963 294.451 218.352 295.54C218.74 296.628 219.612 297.331 220.299 297.11Z" fill="#F29111"/>
<path d="M221.791 301.741C222.478 301.519 222.72 300.457 222.332 299.368C221.943 298.279 221.071 297.576 220.384 297.798C219.698 298.02 219.455 299.082 219.844 300.17C220.232 301.259 221.104 301.962 221.791 301.741Z" fill="#F29111"/>
<path d="M223.564 306.504C224.251 306.283 224.493 305.221 224.105 304.132C223.717 303.043 222.845 302.34 222.158 302.562C221.471 302.783 221.229 303.845 221.617 304.934C222.006 306.023 222.877 306.726 223.564 306.504Z" fill="#F29111"/>
<path d="M223.361 275.086C224.048 274.865 224.29 273.803 223.902 272.714C223.514 271.625 222.642 270.922 221.955 271.144C221.268 271.365 221.026 272.427 221.414 273.516C221.802 274.605 222.674 275.308 223.361 275.086Z" fill="#F29111"/>
<path d="M225.064 279.651C225.751 279.429 225.993 278.367 225.605 277.278C225.217 276.19 224.345 275.487 223.658 275.708C222.971 275.93 222.729 276.992 223.117 278.081C223.506 279.169 224.377 279.872 225.064 279.651Z" fill="#F29111"/>
<path d="M226.838 284.414C227.525 284.193 227.767 283.131 227.378 282.042C226.99 280.953 226.118 280.25 225.431 280.472C224.744 280.693 224.502 281.756 224.891 282.844C225.279 283.933 226.151 284.636 226.838 284.414Z" fill="#F29111"/>
<path d="M228.4 289.243C229.087 289.021 229.329 287.959 228.941 286.87C228.553 285.781 227.681 285.078 226.994 285.3C226.307 285.522 226.065 286.584 226.453 287.672C226.841 288.761 227.713 289.464 228.4 289.243Z" fill="#F29111"/>
<path d="M230.103 293.807C230.79 293.585 231.032 292.523 230.644 291.435C230.256 290.346 229.384 289.643 228.697 289.864C228.01 290.086 227.768 291.148 228.156 292.237C228.545 293.326 229.416 294.029 230.103 293.807Z" fill="#F29111"/>
<path d="M231.877 298.569C232.564 298.347 232.806 297.285 232.417 296.196C232.029 295.108 231.157 294.405 230.47 294.626C229.783 294.848 229.541 295.91 229.93 296.999C230.318 298.087 231.19 298.79 231.877 298.569Z" fill="#F29111"/>
<path d="M233.447 303.399C234.134 303.177 234.376 302.115 233.988 301.026C233.599 299.938 232.728 299.235 232.041 299.456C231.354 299.678 231.112 300.74 231.5 301.829C231.888 302.917 232.76 303.62 233.447 303.399Z" fill="#F29111"/>
<path d="M206.892 280.262C207.579 280.041 207.821 278.978 207.433 277.89C207.045 276.801 206.173 276.098 205.486 276.32C204.799 276.541 204.557 277.603 204.945 278.692C205.334 279.781 206.205 280.484 206.892 280.262Z" fill="#F29111"/>
<path d="M208.463 285.09C209.15 284.869 209.392 283.806 209.003 282.718C208.615 281.629 207.743 280.926 207.056 281.148C206.369 281.369 206.127 282.431 206.516 283.52C206.904 284.609 207.776 285.312 208.463 285.09Z" fill="#F29111"/>
<path d="M210.228 289.852C210.915 289.63 211.157 288.568 210.769 287.479C210.381 286.391 209.509 285.688 208.822 285.909C208.135 286.131 207.893 287.193 208.281 288.282C208.67 289.371 209.541 290.073 210.228 289.852Z" fill="#F29111"/>
<path d="M211.931 294.418C212.618 294.197 212.86 293.135 212.472 292.046C212.084 290.957 211.212 290.254 210.525 290.476C209.838 290.697 209.596 291.76 209.984 292.848C210.373 293.937 211.244 294.64 211.931 294.418Z" fill="#F29111"/>
<path d="M213.502 299.246C214.189 299.025 214.431 297.963 214.042 296.874C213.654 295.785 212.782 295.082 212.095 295.304C211.408 295.525 211.166 296.588 211.555 297.676C211.943 298.765 212.815 299.468 213.502 299.246Z" fill="#F29111"/>
<path d="M215.205 303.811C215.892 303.589 216.134 302.527 215.746 301.438C215.357 300.35 214.486 299.647 213.799 299.868C213.112 300.09 212.869 301.152 213.258 302.241C213.646 303.33 214.518 304.032 215.205 303.811Z" fill="#F29111"/>
<path d="M216.978 308.573C217.665 308.351 217.907 307.289 217.519 306.2C217.131 305.111 216.259 304.409 215.572 304.63C214.885 304.852 214.643 305.914 215.031 307.003C215.42 308.091 216.291 308.794 216.978 308.573Z" fill="#F29111"/>
<path d="M216.775 277.157C217.462 276.935 217.704 275.873 217.316 274.784C216.928 273.695 216.056 272.993 215.369 273.214C214.682 273.436 214.44 274.498 214.828 275.587C215.216 276.675 216.088 277.378 216.775 277.157Z" fill="#F29111"/>
<path d="M218.549 281.918C219.236 281.697 219.478 280.635 219.089 279.546C218.701 278.457 217.829 277.754 217.142 277.976C216.455 278.197 216.213 279.26 216.602 280.348C216.99 281.437 217.862 282.14 218.549 281.918Z" fill="#F29111"/>
<path d="M220.041 286.551C220.728 286.33 220.97 285.267 220.582 284.179C220.193 283.09 219.321 282.387 218.634 282.609C217.948 282.83 217.705 283.892 218.094 284.981C218.482 286.07 219.354 286.773 220.041 286.551Z" fill="#F29111"/>
<path d="M221.814 291.313C222.501 291.091 222.743 290.029 222.355 288.94C221.967 287.852 221.095 287.149 220.408 287.37C219.721 287.592 219.479 288.654 219.867 289.743C220.256 290.831 221.127 291.534 221.814 291.313Z" fill="#F29111"/>
<path d="M223.517 295.877C224.204 295.656 224.446 294.594 224.058 293.505C223.67 292.416 222.798 291.713 222.111 291.935C221.424 292.156 221.182 293.219 221.57 294.307C221.959 295.396 222.83 296.099 223.517 295.877Z" fill="#F29111"/>
<path d="M225.088 300.705C225.775 300.484 226.017 299.422 225.628 298.333C225.24 297.244 224.368 296.541 223.681 296.763C222.994 296.984 222.752 298.047 223.141 299.135C223.529 300.224 224.401 300.927 225.088 300.705Z" fill="#F29111"/>
<path d="M226.861 305.469C227.548 305.248 227.79 304.185 227.402 303.097C227.014 302.008 226.142 301.305 225.455 301.527C224.768 301.748 224.526 302.81 224.914 303.899C225.302 304.988 226.174 305.691 226.861 305.469Z" fill="#F29111"/>
<path d="M226.658 274.051C227.345 273.83 227.587 272.767 227.199 271.679C226.81 270.59 225.939 269.887 225.252 270.109C224.565 270.33 224.323 271.392 224.711 272.481C225.099 273.57 225.971 274.273 226.658 274.051Z" fill="#F29111"/>
<path d="M228.361 278.618C229.048 278.396 229.29 277.334 228.902 276.245C228.513 275.156 227.642 274.453 226.955 274.675C226.268 274.897 226.026 275.959 226.414 277.047C226.802 278.136 227.674 278.839 228.361 278.618Z" fill="#F29111"/>
<path d="M230.135 283.379C230.822 283.158 231.064 282.096 230.675 281.007C230.287 279.918 229.415 279.215 228.728 279.437C228.041 279.658 227.799 280.72 228.188 281.809C228.576 282.898 229.448 283.601 230.135 283.379Z" fill="#F29111"/>
<path d="M231.627 288.01C232.314 287.789 232.556 286.726 232.167 285.638C231.779 284.549 230.907 283.846 230.22 284.068C229.533 284.289 229.291 285.351 229.68 286.44C230.068 287.529 230.94 288.232 231.627 288.01Z" fill="#F29111"/>
<path d="M233.4 292.772C234.087 292.55 234.329 291.488 233.941 290.399C233.553 289.311 232.681 288.608 231.994 288.829C231.307 289.051 231.065 290.113 231.453 291.202C231.841 292.29 232.713 292.993 233.4 292.772Z" fill="#F29111"/>
<path d="M235.174 297.534C235.861 297.312 236.103 296.25 235.714 295.161C235.326 294.072 234.454 293.369 233.767 293.591C233.08 293.813 232.838 294.875 233.227 295.963C233.615 297.052 234.487 297.755 235.174 297.534Z" fill="#F29111"/>
<path d="M236.666 302.166C237.353 301.945 237.595 300.883 237.207 299.794C236.818 298.705 235.946 298.002 235.26 298.224C234.573 298.445 234.33 299.508 234.719 300.596C235.107 301.685 235.979 302.388 236.666 302.166Z" fill="#F29111"/>
<path d="M208.486 274.662C209.173 274.441 209.415 273.379 209.027 272.29C208.638 271.201 207.767 270.498 207.08 270.72C206.393 270.941 206.151 272.004 206.539 273.092C206.927 274.181 207.799 274.884 208.486 274.662Z" fill="#F29111"/>
<path d="M218.502 271.293C219.189 271.072 219.431 270.01 219.042 268.921C218.654 267.832 217.782 267.129 217.095 267.351C216.408 267.572 216.166 268.635 216.555 269.723C216.943 270.812 217.815 271.515 218.502 271.293Z" fill="#F29111"/>
<path d="M201.9 276.733C202.587 276.511 202.829 275.449 202.441 274.36C202.053 273.272 201.181 272.569 200.494 272.79C199.807 273.012 199.565 274.074 199.953 275.163C200.341 276.251 201.213 276.954 201.9 276.733Z" fill="#F29111"/>
<path d="M211.705 273.43C212.392 273.208 212.634 272.146 212.246 271.058C211.857 269.969 210.986 269.266 210.299 269.488C209.612 269.709 209.369 270.771 209.758 271.86C210.146 272.949 211.018 273.652 211.705 273.43Z" fill="#F29111"/>
<path d="M221.799 270.258C222.486 270.037 222.728 268.974 222.339 267.886C221.951 266.797 221.079 266.094 220.392 266.316C219.705 266.537 219.463 267.599 219.852 268.688C220.24 269.777 221.112 270.48 221.799 270.258Z" fill="#F29111"/>
<path d="M205.189 275.698C205.876 275.476 206.118 274.414 205.73 273.325C205.342 272.236 204.47 271.534 203.783 271.755C203.096 271.977 202.854 273.039 203.242 274.128C203.631 275.216 204.502 275.919 205.189 275.698Z" fill="#F29111"/>
<path d="M215.002 272.395C215.689 272.173 215.931 271.111 215.542 270.022C215.154 268.934 214.282 268.231 213.595 268.452C212.908 268.674 212.666 269.736 213.055 270.825C213.443 271.913 214.315 272.616 215.002 272.395Z" fill="#F29111"/>
<path d="M225.088 269.223C225.775 269.001 226.017 267.939 225.628 266.851C225.24 265.762 224.368 265.059 223.681 265.28C222.994 265.502 222.752 266.564 223.141 267.653C223.529 268.742 224.401 269.445 225.088 269.223Z" fill="#F29111"/>
<path d="M211.955 315.473C212.642 315.251 212.884 314.189 212.496 313.101C212.107 312.012 211.236 311.309 210.549 311.53C209.862 311.752 209.619 312.814 210.008 313.903C210.396 314.992 211.268 315.695 211.955 315.473Z" fill="#F29111"/>
<path d="M222.041 312.301C222.728 312.08 222.97 311.017 222.582 309.929C222.193 308.84 221.321 308.137 220.634 308.359C219.948 308.58 219.705 309.642 220.094 310.731C220.482 311.82 221.354 312.523 222.041 312.301Z" fill="#F29111"/>
<path d="M223.541 316.932C224.228 316.71 224.47 315.648 224.082 314.56C223.693 313.471 222.821 312.768 222.135 312.989C221.448 313.211 221.205 314.273 221.594 315.362C221.982 316.451 222.854 317.154 223.541 316.932Z" fill="#F29111"/>
<path d="M231.853 308.998C232.54 308.777 232.782 307.715 232.394 306.626C232.006 305.537 231.134 304.834 230.447 305.056C229.76 305.277 229.518 306.34 229.906 307.428C230.295 308.517 231.166 309.22 231.853 308.998Z" fill="#F29111"/>
<path d="M233.627 313.76C234.314 313.539 234.556 312.476 234.167 311.388C233.779 310.299 232.907 309.596 232.22 309.818C231.533 310.039 231.291 311.101 231.68 312.19C232.068 313.279 232.94 313.982 233.627 313.76Z" fill="#F29111"/>
<path d="M215.252 314.438C215.939 314.216 216.181 313.154 215.792 312.065C215.404 310.977 214.532 310.274 213.845 310.495C213.158 310.717 212.916 311.779 213.305 312.868C213.693 313.956 214.565 314.659 215.252 314.438Z" fill="#F29111"/>
<path d="M217.025 319.2C217.712 318.978 217.954 317.916 217.566 316.827C217.178 315.738 216.306 315.035 215.619 315.257C214.932 315.479 214.69 316.541 215.078 317.629C215.466 318.718 216.338 319.421 217.025 319.2Z" fill="#F29111"/>
<path d="M225.338 311.266C226.025 311.044 226.267 309.982 225.878 308.894C225.49 307.805 224.618 307.102 223.931 307.323C223.244 307.545 223.002 308.607 223.391 309.696C223.779 310.785 224.651 311.488 225.338 311.266Z" fill="#F29111"/>
<path d="M226.83 315.897C227.517 315.675 227.759 314.613 227.371 313.524C226.982 312.436 226.111 311.733 225.424 311.954C224.737 312.176 224.494 313.238 224.883 314.327C225.271 315.415 226.143 316.118 226.83 315.897Z" fill="#F29111"/>
<path d="M235.15 307.963C235.837 307.742 236.079 306.68 235.691 305.591C235.303 304.502 234.431 303.799 233.744 304.021C233.057 304.242 232.815 305.304 233.203 306.393C233.591 307.482 234.463 308.185 235.15 307.963Z" fill="#F29111"/>
<path d="M236.924 312.725C237.611 312.503 237.853 311.441 237.464 310.353C237.076 309.264 236.204 308.561 235.517 308.782C234.83 309.004 234.588 310.066 234.977 311.155C235.365 312.244 236.237 312.947 236.924 312.725Z" fill="#F29111"/>
<path d="M218.541 313.403C219.228 313.181 219.47 312.119 219.082 311.03C218.693 309.942 217.821 309.239 217.134 309.46C216.448 309.682 216.205 310.744 216.594 311.833C216.982 312.921 217.854 313.624 218.541 313.403Z" fill="#F29111"/>
<path d="M220.244 317.967C220.931 317.746 221.173 316.683 220.785 315.595C220.396 314.506 219.525 313.803 218.838 314.025C218.151 314.246 217.909 315.308 218.297 316.397C218.685 317.486 219.557 318.189 220.244 317.967Z" fill="#F29111"/>
<path d="M228.564 310.034C229.251 309.812 229.493 308.75 229.105 307.661C228.717 306.572 227.845 305.869 227.158 306.091C226.471 306.313 226.229 307.375 226.617 308.463C227.006 309.552 227.877 310.255 228.564 310.034Z" fill="#F29111"/>
<path d="M230.127 314.862C230.814 314.64 231.056 313.578 230.667 312.489C230.279 311.401 229.407 310.698 228.72 310.919C228.033 311.141 227.791 312.203 228.18 313.292C228.568 314.38 229.44 315.083 230.127 314.862Z" fill="#F29111"/>
<path d="M238.439 306.928C239.126 306.707 239.368 305.644 238.98 304.556C238.592 303.467 237.72 302.764 237.033 302.986C236.346 303.207 236.104 304.269 236.492 305.358C236.881 306.447 237.752 307.15 238.439 306.928Z" fill="#F29111"/>
<path d="M240.213 311.69C240.9 311.468 241.142 310.406 240.753 309.317C240.365 308.229 239.493 307.526 238.806 307.747C238.119 307.969 237.877 309.031 238.266 310.12C238.654 311.208 239.526 311.911 240.213 311.69Z" fill="#F29111"/>
</g>
<g filter="url(#filter5_d_2831_15055)">
<path d="M81.6542 393.213C103.765 393.213 112.083 413.821 113.397 424.021C101.138 437.343 53.1953 437.343 51.0062 426.727C48.8171 416.11 54.071 393.213 81.6542 393.213Z" fill="white"/>
</g>
<path d="M53.4109 429.017L53.192 426.311C53.192 425.895 52.973 425.687 52.5352 425.687L49.9082 425.479C49.4704 425.479 48.5948 425.895 48.1569 426.519L37.6491 438.801C36.9923 439.425 36.9923 440.258 37.4301 440.466L37.868 440.674C38.5247 441.091 39.4004 440.882 40.276 440.05L52.5352 430.683C52.973 430.266 53.4109 429.642 53.4109 429.017Z" fill="white"/>
<path d="M39.1814 440.673L46.4056 435.261L41.1517 434.637L37.2112 439.216C36.7734 439.841 36.5545 440.673 36.7734 440.882L36.9923 441.09C37.4301 441.506 38.3058 441.506 39.1814 440.673Z" fill="#65CBFE"/>
<path d="M113.398 424.23C101.138 437.344 53.1962 437.552 51.0071 426.936C49.2558 418.61 52.1016 402.79 66.55 396.545C57.5745 422.357 77.2768 426.936 93.0386 426.936C108.363 426.936 108.363 415.696 108.363 409.867C111.208 414.863 112.741 420.275 113.398 424.23Z" fill="#EFEFEF"/>
<path d="M54.0702 393.63C39.403 400.916 37.6517 416.944 38.9652 426.311C39.1841 427.768 40.0597 429.017 41.3732 429.642C50.1298 434.429 60.4188 432.972 66.5484 431.099C68.5186 430.474 69.8321 428.809 69.8321 426.936C70.2699 419.025 68.5186 405.703 60.1998 394.879C58.6674 393.214 56.0405 392.589 54.0702 393.63Z" fill="#595959"/>
<path d="M104.855 427.769L105.512 425.063C105.512 424.646 105.731 424.646 106.169 424.646L108.796 424.855C109.233 424.855 110.109 425.479 110.547 426.104L119.303 439.634C119.741 440.467 119.741 441.091 119.303 441.299L118.866 441.507C118.209 441.716 117.333 441.507 116.458 440.675L105.512 429.85C105.074 429.018 104.636 428.185 104.855 427.769Z" fill="white"/>
<path d="M117.114 441.09L110.766 434.846L116.238 435.054L119.522 440.05C119.96 440.674 119.96 441.507 119.741 441.715L119.522 441.923C118.865 442.131 117.99 441.715 117.114 441.09Z" fill="#65CBFE"/>
<path d="M89.9723 431.099L90.629 428.393C90.629 427.977 90.848 427.977 91.2858 427.977L93.9128 428.185C94.3506 428.185 95.2262 428.809 95.6641 429.434L104.421 442.964C104.858 443.797 104.858 444.421 104.421 444.629L103.983 444.837C103.326 445.046 102.45 444.838 101.575 444.005L90.629 433.181C90.1912 432.348 89.7534 431.723 89.9723 431.099Z" fill="white"/>
<path d="M102.231 444.421L95.8828 438.176L101.356 438.384L104.639 443.38C105.077 444.004 105.077 444.837 104.858 445.045L104.639 445.253C103.983 445.461 103.107 445.253 102.231 444.421Z" fill="#65CBFE"/>
<path d="M70.7031 432.765L71.3599 430.059C71.3599 429.643 71.5788 429.643 72.0166 429.643L74.6436 429.851C75.0814 429.851 75.9571 430.475 76.3949 431.1L85.1515 444.63C85.5893 445.463 85.5893 446.087 85.1515 446.295L84.7136 446.504C84.0569 446.712 83.1812 446.504 82.3056 445.671L71.3599 434.847C70.922 434.014 70.7031 433.181 70.7031 432.765Z" fill="white"/>
<path d="M83.1845 445.88L76.8359 439.635L82.3088 439.843L85.5925 444.839C86.0303 445.463 86.0303 446.296 85.8114 446.504L85.5925 446.712C84.7168 447.129 83.8412 446.712 83.1845 445.88Z" fill="#65CBFE"/>
<path d="M60.8519 369.691H60.4141V405.287H60.8519V369.691Z" fill="#595959"/>
<path d="M60.6338 370.316C61.3592 370.316 61.9473 369.757 61.9473 369.067C61.9473 368.378 61.3592 367.818 60.6338 367.818C59.9084 367.818 59.3203 368.378 59.3203 369.067C59.3203 369.757 59.9084 370.316 60.6338 370.316Z" fill="#65CBFE"/>
<path d="M48.8128 369.691H48.375V405.287H48.8128V369.691Z" fill="#595959"/>
<path d="M48.5947 370.316C49.3202 370.316 49.9082 369.757 49.9082 369.067C49.9082 368.378 49.3202 367.818 48.5947 367.818C47.8693 367.818 47.2812 368.378 47.2812 369.067C47.2812 369.757 47.8693 370.316 48.5947 370.316Z" fill="#65CBFE"/>
<path d="M55.1597 397.793C41.806 403.621 40.4925 417.984 41.806 425.686C42.0249 426.311 42.4627 426.935 42.9005 427.352C50.7815 431.931 60.1948 430.266 65.0109 428.6C65.8865 428.184 66.5433 427.352 66.7622 426.519C67.2 420.066 66.1054 407.993 58.2245 398.625C57.3489 397.585 56.2543 397.377 55.1597 397.793Z" fill="#35373A"/>
<path d="M54.0703 415.07H68.2997V417.776H54.0703V415.07Z" fill="#65CBFE"/>
<path d="M35.8984 415.07H50.1279V417.776H35.8984V415.07Z" fill="#65CBFE"/>
<path d="M77.493 412.99C76.8363 412.782 76.3984 412.157 76.3984 411.533V411.117C76.3984 410.492 76.8363 409.868 77.493 409.659L82.7469 407.578C83.6226 407.162 84.4983 407.786 84.4983 408.619C84.4983 409.035 84.0604 409.659 83.6226 409.659L79.4632 411.117V411.325L83.6226 412.782C84.0604 412.99 84.4983 413.406 84.4983 413.823C84.4983 414.655 83.6226 415.28 82.7469 414.863L77.493 412.99Z" fill="#65CBFE"/>
<path d="M100.483 411.949C100.483 412.573 100.045 413.198 99.3881 413.406L94.1341 415.279C93.2585 415.487 92.3828 415.071 92.3828 414.238C92.3828 413.822 92.8206 413.406 93.2585 413.198L97.4178 411.949V411.74L93.2585 410.491C92.8206 410.283 92.3828 409.867 92.3828 409.451C92.3828 408.618 93.2585 407.994 94.1341 408.41L99.3881 410.283C100.045 410.491 100.483 411.116 100.483 411.74V411.949Z" fill="#65CBFE"/>
<path d="M90.1863 405.496C91.062 405.496 91.7187 406.329 91.4998 406.953L88.435 417.361C88.2161 417.778 87.7783 418.194 87.1215 418.194C86.2459 418.194 85.5891 417.361 85.8081 416.737L88.8728 406.329C89.0918 405.704 89.5296 405.496 90.1863 405.496Z" fill="#65CBFE"/>
<defs>
<filter id="filter0_d_2831_15055" x="163.992" y="344.508" width="61.0664" height="58.877" filterUnits="userSpaceOnUse" color-interpolation-filters="sRGB">
<feFlood flood-opacity="0" result="BackgroundImageFix"/>
<feColorMatrix in="SourceAlpha" type="matrix" values="0 0 0 0 0 0 0 0 0 0 0 0 0 0 0 0 0 0 127 0" result="hardAlpha"/>
<feOffset/>
<feGaussianBlur stdDeviation="4"/>
<feComposite in2="hardAlpha" operator="out"/>
<feColorMatrix type="matrix" values="0 0 0 0 0 0 0 0 0 0 0 0 0 0 0 0 0 0 0.25 0"/>
<feBlend mode="normal" in2="BackgroundImageFix" result="effect1_dropShadow_2831_15055"/>
<feBlend mode="normal" in="SourceGraphic" in2="effect1_dropShadow_2831_15055" result="shape"/>
</filter>
<filter id="filter1_d_2831_15055" x="148.023" y="136.057" width="71.8867" height="112.576" filterUnits="userSpaceOnUse" color-interpolation-filters="sRGB">
<feFlood flood-opacity="0" result="BackgroundImageFix"/>
<feColorMatrix in="SourceAlpha" type="matrix" values="0 0 0 0 0 0 0 0 0 0 0 0 0 0 0 0 0 0 127 0" result="hardAlpha"/>
<feOffset/>
<feGaussianBlur stdDeviation="4"/>
<feComposite in2="hardAlpha" operator="out"/>
<feColorMatrix type="matrix" values="0 0 0 0 0 0 0 0 0 0 0 0 0 0 0 0 0 0 0.25 0"/>
<feBlend mode="normal" in2="BackgroundImageFix" result="effect1_dropShadow_2831_15055"/>
<feBlend mode="normal" in="SourceGraphic" in2="effect1_dropShadow_2831_15055" result="shape"/>
</filter>
<filter id="filter2_d_2831_15055" x="169.844" y="51.7578" width="253.609" height="324.294" filterUnits="userSpaceOnUse" color-interpolation-filters="sRGB">
<feFlood flood-opacity="0" result="BackgroundImageFix"/>
<feColorMatrix in="SourceAlpha" type="matrix" values="0 0 0 0 0 0 0 0 0 0 0 0 0 0 0 0 0 0 127 0" result="hardAlpha"/>
<feOffset dy="4"/>
<feGaussianBlur stdDeviation="2"/>
<feComposite in2="hardAlpha" operator="out"/>
<feColorMatrix type="matrix" values="0 0 0 0 0 0 0 0 0 0 0 0 0 0 0 0 0 0 0.25 0"/>
<feBlend mode="normal" in2="BackgroundImageFix" result="effect1_dropShadow_2831_15055"/>
<feBlend mode="normal" in="SourceGraphic" in2="effect1_dropShadow_2831_15055" result="shape"/>
</filter>
<filter id="filter3_d_2831_15055" x="165.844" y="43.7578" width="261.609" height="332.294" filterUnits="userSpaceOnUse" color-interpolation-filters="sRGB">
<feFlood flood-opacity="0" result="BackgroundImageFix"/>
<feColorMatrix in="SourceAlpha" type="matrix" values="0 0 0 0 0 0 0 0 0 0 0 0 0 0 0 0 0 0 127 0" result="hardAlpha"/>
<feOffset/>
<feGaussianBlur stdDeviation="4"/>
<feComposite in2="hardAlpha" operator="out"/>
<feColorMatrix type="matrix" values="0 0 0 0 0 0 0 0 0 0 0 0 0 0 0 0 0 0 0.2 0"/>
<feBlend mode="normal" in2="BackgroundImageFix" result="effect1_dropShadow_2831_15055"/>
<feBlend mode="normal" in="SourceGraphic" in2="effect1_dropShadow_2831_15055" result="shape"/>
</filter>
<filter id="filter4_d_2831_15055" x="343.766" y="300.506" width="98.5938" height="67.1562" filterUnits="userSpaceOnUse" color-interpolation-filters="sRGB">
<feFlood flood-opacity="0" result="BackgroundImageFix"/>
<feColorMatrix in="SourceAlpha" type="matrix" values="0 0 0 0 0 0 0 0 0 0 0 0 0 0 0 0 0 0 127 0" result="hardAlpha"/>
<feOffset/>
<feGaussianBlur stdDeviation="4"/>
<feComposite in2="hardAlpha" operator="out"/>
<feColorMatrix type="matrix" values="0 0 0 0 0 0 0 0 0 0 0 0 0 0 0 0 0 0 0.25 0"/>
<feBlend mode="normal" in2="BackgroundImageFix" result="effect1_dropShadow_2831_15055"/>
<feBlend mode="normal" in="SourceGraphic" in2="effect1_dropShadow_2831_15055" result="shape"/>
</filter>
<filter id="filter5_d_2831_15055" x="46.5625" y="388.213" width="70.8359" height="49.166" filterUnits="userSpaceOnUse" color-interpolation-filters="sRGB">
<feFlood flood-opacity="0" result="BackgroundImageFix"/>
<feColorMatrix in="SourceAlpha" type="matrix" values="0 0 0 0 0 0 0 0 0 0 0 0 0 0 0 0 0 0 127 0" result="hardAlpha"/>
<feOffset dy="-1"/>
<feGaussianBlur stdDeviation="2"/>
<feComposite in2="hardAlpha" operator="out"/>
<feColorMatrix type="matrix" values="0 0 0 0 0 0 0 0 0 0 0 0 0 0 0 0 0 0 0.25 0"/>
<feBlend mode="normal" in2="BackgroundImageFix" result="effect1_dropShadow_2831_15055"/>
<feBlend mode="normal" in="SourceGraphic" in2="effect1_dropShadow_2831_15055" result="shape"/>
</filter>
</defs>
</svg>
