<svg width="500" height="500" viewBox="0 0 500 500" fill="none" xmlns="http://www.w3.org/2000/svg">
<mask id="mask0_2831_12619" style="mask-type:alpha" maskUnits="userSpaceOnUse" x="307" y="316" width="131" height="93">
<rect x="307.203" y="316.201" width="130.747" height="91.9659" fill="url(#paint0_linear_2831_12619)"/>
</mask>
<g mask="url(#mask0_2831_12619)">
<path d="M431.305 342.895C340.334 430.327 351.958 346.671 351.958 317.309H307.269C304.175 485.542 416.767 371.858 431.305 342.895Z" fill="#FFB600"/>
</g>
<g filter="url(#filter0_d_2831_12619)">
<path d="M110.302 111.567C106.869 135.315 108.888 171.998 110.578 189.3L149.983 159.307C146.419 128.111 136.597 106.921 129.884 96.8257C128.039 94.0296 124.259 93.6028 121.523 95.5356L119.969 96.6376C114.901 100.223 111.193 105.433 110.302 111.567Z" fill="url(#paint1_linear_2831_12619)"/>
<path d="M142.24 123.503C123.165 104.724 111.8 123.159 108.565 134.48C109.557 112.106 107.965 107.186 118.345 97.8576C127.396 89.7081 130.572 97.5976 131.775 99.4005C132.902 101.052 139.384 114.123 142.24 123.503Z" fill="#FF9100"/>
</g>
<path d="M318.876 319.714C319.115 319.953 319.354 320.192 319.594 320.455C321.963 312.822 325.624 306.456 330.123 302.148C334.598 306.432 338.26 312.75 340.629 320.36C340.844 320.144 341.036 319.929 341.251 319.714C346.252 324.476 349.627 333.378 349.627 343.596C349.627 353.815 346.252 362.693 341.251 367.479C340.485 366.761 339.791 365.924 339.097 365.038C336.8 370.734 333.737 375.52 330.123 378.966C326.486 375.496 323.399 370.662 321.101 364.919C320.407 365.852 319.665 366.737 318.876 367.479C313.874 362.717 310.5 353.815 310.5 343.596C310.5 333.378 313.874 324.5 318.876 319.714Z" fill="#E13017"/>
<path d="M321.46 324.554C321.651 324.721 321.819 324.912 322.01 325.104C323.829 319.241 326.653 314.335 330.099 311.057C333.545 314.335 336.345 319.193 338.163 325.032C338.331 324.865 338.475 324.697 338.642 324.554C342.471 328.215 345.055 335.059 345.055 342.884C345.055 350.71 342.471 357.554 338.642 361.215C338.068 360.665 337.517 360.019 336.991 359.325C335.22 363.704 332.875 367.389 330.099 370.022C327.323 367.365 324.954 363.656 323.183 359.229C322.656 359.947 322.082 360.617 321.484 361.191C317.655 357.53 315.07 350.686 315.07 342.86C315.07 335.035 317.655 328.191 321.484 324.53L321.46 324.554Z" fill="#F2B00A"/>
<path d="M323.684 321.052C323.827 321.171 323.947 321.315 324.09 321.459C325.431 317.103 327.536 313.49 330.073 311.049C332.61 313.49 334.692 317.079 336.056 321.411C336.175 321.291 336.295 321.171 336.415 321.052C339.262 323.756 341.177 328.829 341.177 334.621C341.177 340.412 339.262 345.485 336.415 348.189C335.984 347.782 335.577 347.304 335.194 346.801C333.878 350.056 332.131 352.76 330.097 354.722C328.039 352.76 326.268 350.008 324.976 346.729C324.569 347.256 324.162 347.758 323.707 348.189C320.86 345.485 318.945 340.412 318.945 334.621C318.945 328.829 320.86 323.756 323.707 321.052L323.684 321.052Z" fill="#FEDC7A"/>
<path d="M330.057 112.328C330.057 112.328 292.797 137.172 292.797 198.189L292.797 296.107L367.317 296.107L367.317 198.189C367.317 137.172 330.057 112.328 330.057 112.328Z" fill="#43719F"/>
<path d="M292.797 198.189L292.797 296.107L332.378 296.107C333.264 236.226 330.057 112.328 330.057 112.328C330.057 112.328 292.797 137.172 292.797 198.189Z" fill="#2C4D6D"/>
<path d="M330.057 112.328C330.057 112.328 292.797 137.172 292.797 198.189L292.797 296.107L304.93 296.107L304.93 198.189C304.93 137.172 330.057 112.328 330.057 112.328Z" fill="#002447"/>
<path d="M330.047 112.324C330.047 112.324 367.307 137.168 367.307 198.185C367.307 259.202 367.307 296.103 367.307 296.103L355.174 296.103C355.174 296.103 355.174 259.202 355.174 198.185C355.174 137.168 330.047 112.324 330.047 112.324Z" fill="#AED2E4"/>
<path d="M348.707 335.983L311.423 335.983L292.805 296.111L367.325 296.111L348.707 335.983Z" fill="#2C4D6D"/>
<path d="M292.805 296.111L311.423 335.983L323.436 335.983L304.818 296.111L292.805 296.111Z" fill="#002447"/>
<path d="M367.264 296.109L348.646 335.982L336.633 335.982L355.251 296.109L367.264 296.109Z" fill="#43719F"/>
<mask id="mask1_2831_12619" style="mask-type:alpha" maskUnits="userSpaceOnUse" x="228" y="290" width="231" height="178">
<rect x="228.531" y="290.715" width="230.469" height="177.284" fill="url(#paint2_linear_2831_12619)"/>
</mask>
<g mask="url(#mask1_2831_12619)">
<path d="M450.805 356.642C256.347 535.034 276.178 379.911 272.967 290.715H228.646C223.106 593.205 424.766 408.719 450.805 356.642Z" fill="#FFB600"/>
</g>
<path d="M241.313 319.714C241.553 319.953 241.792 320.192 242.031 320.455C244.4 312.822 248.062 306.456 252.561 302.148C257.036 306.432 260.697 312.75 263.066 320.36C263.282 320.144 263.473 319.929 263.688 319.714C268.69 324.476 272.064 333.378 272.064 343.596C272.064 353.815 268.69 362.693 263.688 367.479C262.923 366.761 262.229 365.924 261.535 365.038C259.237 370.734 256.174 375.52 252.561 378.966C248.923 375.496 245.836 370.662 243.539 364.919C242.845 365.852 242.103 366.737 241.313 367.479C236.312 362.717 232.938 353.815 232.938 343.596C232.938 333.378 236.312 324.5 241.313 319.714Z" fill="#E13017"/>
<path d="M243.897 324.554C244.089 324.721 244.256 324.912 244.448 325.104C246.266 319.241 249.09 314.335 252.536 311.057C255.982 314.335 258.782 319.193 260.601 325.032C260.768 324.865 260.912 324.697 261.08 324.554C264.908 328.215 267.493 335.059 267.493 342.884C267.493 350.71 264.908 357.554 261.08 361.215C260.505 360.665 259.955 360.019 259.428 359.325C257.657 363.704 255.312 367.389 252.536 370.022C249.76 367.365 247.391 363.656 245.62 359.229C245.094 359.947 244.519 360.617 243.921 361.191C240.092 357.53 237.508 350.686 237.508 342.86C237.508 335.035 240.092 328.191 243.921 324.53L243.897 324.554Z" fill="#F2B00A"/>
<path d="M246.121 321.052C246.265 321.171 246.384 321.315 246.528 321.459C247.868 317.103 249.974 313.49 252.511 311.049C255.047 313.49 257.129 317.079 258.493 321.411C258.613 321.291 258.733 321.171 258.852 321.052C261.7 323.756 263.614 328.829 263.614 334.621C263.614 340.412 261.7 345.485 258.852 348.189C258.421 347.782 258.015 347.304 257.632 346.801C256.316 350.056 254.569 352.76 252.535 354.722C250.476 352.76 248.706 350.008 247.413 346.729C247.006 347.256 246.6 347.758 246.145 348.189C243.297 345.485 241.383 340.412 241.383 334.621C241.383 328.829 243.297 323.756 246.145 321.052L246.121 321.052Z" fill="#FEDC7A"/>
<path d="M252.494 112.328C252.494 112.328 215.234 137.172 215.234 198.189L215.234 296.107L289.754 296.107L289.754 198.189C289.754 137.172 252.494 112.328 252.494 112.328Z" fill="#43719F"/>
<path d="M215.234 198.189L215.234 296.107L254.816 296.107C255.701 236.226 252.494 112.328 252.494 112.328C252.494 112.328 215.234 137.172 215.234 198.189Z" fill="#2C4D6D"/>
<path d="M252.494 112.328C252.494 112.328 215.234 137.172 215.234 198.189L215.234 296.107L227.367 296.107L227.367 198.189C227.367 137.172 252.494 112.328 252.494 112.328Z" fill="#002447"/>
<path d="M252.484 112.324C252.484 112.324 289.744 137.168 289.744 198.185C289.744 259.202 289.744 296.103 289.744 296.103L277.612 296.103C277.612 296.103 277.612 259.202 277.612 198.185C277.612 137.168 252.484 112.324 252.484 112.324Z" fill="#AED2E4"/>
<path d="M271.144 335.983L233.86 335.983L215.242 296.111L289.762 296.111L271.144 335.983Z" fill="#41608C"/>
<path d="M215.242 296.111L233.86 335.983L245.873 335.983L227.255 296.111L215.242 296.111Z" fill="#334F77"/>
<path d="M289.702 296.109L271.083 335.982L259.07 335.982L277.688 296.109L289.702 296.109Z" fill="#82A2D1"/>
<g filter="url(#filter1_d_2831_12619)">
<g filter="url(#filter2_d_2831_12619)">
<path fill-rule="evenodd" clip-rule="evenodd" d="M297.73 189.913C324.915 163.023 366.401 113.825 376.583 85.7329C377.526 83.1153 376.435 80.3227 374.193 78.7298L373.519 78.2592C367.119 73.8044 358.701 73.4548 352.012 77.5094C325.302 93.6466 289.197 117.032 251.725 154.493C236.294 148.036 218.923 144.568 200.606 144.985C138.219 146.346 88.6281 191.888 89.8239 246.718C91.0197 301.548 142.577 344.906 204.973 343.577C267.361 342.216 316.951 296.674 315.755 241.844C315.341 222.658 308.763 204.883 297.73 189.913Z" fill="white"/>
</g>
</g>
<g filter="url(#filter3_d_2831_12619)">
<path d="M291.498 322.491L293.864 338.637C294.15 340.6 293.537 342.565 292.24 344.044L282.058 355.291C280.024 357.555 276.713 358.127 274.024 356.688L219.034 327.435C216.015 325.826 214.711 322.187 216.028 319.053L217.078 316.564C218.778 312.495 222.926 310.041 227.328 310.516L285.671 316.866C288.652 317.19 291.039 319.506 291.498 322.491Z" fill="white"/>
<path d="M281.909 355.157C279.998 357.284 276.926 357.872 274.364 356.637L274.118 356.512L219.127 327.258C216.291 325.746 215.016 322.387 216.1 319.417L216.212 319.13L217.262 316.642L217.263 316.641C218.928 312.654 222.992 310.249 227.307 310.715L285.649 317.065C288.538 317.379 290.854 319.623 291.3 322.52L293.666 338.666C293.943 340.568 293.351 342.474 292.093 343.911L292.092 343.91L281.91 355.157L281.909 355.157Z" stroke="black" stroke-opacity="0.2" stroke-width="0.4"/>
<path d="M227.332 310.513L263.986 314.538L240.539 338.871L219.038 327.432C216.019 325.823 214.715 322.184 216.032 319.05L217.055 316.581C218.781 312.492 222.956 310.018 227.332 310.513Z" fill="#F29111"/>
</g>
<path d="M376.434 85.6752C371.331 97.5655 361.796 116.95 341.218 142.036C341.218 142.036 348.344 111.745 341.092 105.771C333.807 99.805 302.629 110.387 302.629 110.387C314.889 101.686 337.528 84.0349 354.324 76.2783C359.994 73.6622 366.436 74.4382 372.139 77.0576L373.312 77.6002C376.361 79.0109 377.762 82.5773 376.434 85.6752Z" fill="#FF9100"/>
<path d="M376.754 85.3103C366.521 115.13 324.58 164.929 297.908 189.9L290.243 180.471L375.199 84.4929C375.907 83.6861 377.106 84.3247 376.754 85.3103Z" fill="#E9E6E6"/>
<path d="M248.071 248.775C248.848 284.145 220.315 320.069 176.012 321.04C131.708 322.011 95.0207 287.488 94.2436 252.118C93.4665 216.747 125.433 187.376 169.737 186.405C214.072 185.425 247.285 213.373 248.071 248.775Z" fill="#35373A"/>
<mask id="mask2_2831_12619" style="mask-type:luminance" maskUnits="userSpaceOnUse" x="161" y="236" width="42" height="27">
<path d="M182.031 262.38C193.254 262.344 202.346 250.865 202.311 236.761L161.602 236.85C161.645 250.984 170.778 262.424 182.031 262.38Z" fill="white"/>
</mask>
<g mask="url(#mask2_2831_12619)">
<path d="M165.237 236.34C165.234 235.202 164.505 234.283 163.61 234.285C162.715 234.287 161.991 235.21 161.994 236.348C161.997 237.485 162.726 238.404 163.621 238.402C164.517 238.4 165.24 237.477 165.237 236.34Z" fill="#F29111"/>
<path d="M165.268 241.457C165.265 240.32 164.537 239.4 163.641 239.402C162.746 239.404 162.022 240.328 162.026 241.465C162.029 242.602 162.757 243.522 163.653 243.519C164.548 243.517 165.271 242.594 165.268 241.457Z" fill="#F29111"/>
<path d="M165.252 246.57C165.249 245.433 164.521 244.513 163.626 244.515C162.73 244.517 162.007 245.441 162.01 246.578C162.013 247.715 162.741 248.635 163.637 248.633C164.532 248.631 165.256 247.707 165.252 246.57Z" fill="#F29111"/>
<path d="M165.284 251.718C165.281 250.581 164.552 249.661 163.657 249.664C162.761 249.666 162.038 250.589 162.041 251.726C162.044 252.863 162.773 253.783 163.668 253.781C164.564 253.779 165.287 252.855 165.284 251.718Z" fill="#F29111"/>
<path d="M177.432 236.328C177.429 235.191 176.701 234.271 175.805 234.273C174.91 234.275 174.187 235.199 174.19 236.336C174.193 237.473 174.921 238.393 175.817 238.391C176.712 238.388 177.435 237.465 177.432 236.328Z" fill="#F29111"/>
<path d="M177.463 241.441C177.46 240.304 176.732 239.384 175.837 239.386C174.941 239.389 174.218 240.312 174.221 241.449C174.224 242.586 174.952 243.506 175.848 243.504C176.743 243.502 177.467 242.578 177.463 241.441Z" fill="#F29111"/>
<path d="M177.456 246.556C177.452 245.419 176.724 244.499 175.829 244.502C174.933 244.504 174.21 245.427 174.213 246.564C174.216 247.701 174.945 248.621 175.84 248.619C176.735 248.617 177.459 247.693 177.456 246.556Z" fill="#F29111"/>
<path d="M177.487 251.673C177.484 250.536 176.755 249.617 175.86 249.619C174.965 249.621 174.241 250.544 174.244 251.681C174.247 252.819 174.976 253.738 175.871 253.736C176.767 253.734 177.49 252.811 177.487 251.673Z" fill="#F29111"/>
<path d="M189.659 236.283C189.656 235.146 188.927 234.226 188.032 234.228C187.136 234.23 186.413 235.154 186.416 236.291C186.419 237.428 187.148 238.348 188.043 238.346C188.939 238.343 189.662 237.42 189.659 236.283Z" fill="#F29111"/>
<path d="M189.659 241.398C189.656 240.261 188.927 239.341 188.032 239.343C187.136 239.346 186.413 240.269 186.416 241.406C186.419 242.543 187.148 243.463 188.043 243.461C188.939 243.459 189.662 242.535 189.659 241.398Z" fill="#F29111"/>
<path d="M189.682 246.513C189.679 245.376 188.951 244.456 188.055 244.459C187.16 244.461 186.437 245.384 186.44 246.521C186.443 247.658 187.171 248.578 188.067 248.576C188.962 248.574 189.685 247.65 189.682 246.513Z" fill="#F29111"/>
<path d="M189.682 251.627C189.679 250.49 188.951 249.57 188.055 249.572C187.16 249.574 186.437 250.498 186.44 251.635C186.443 252.772 187.171 253.692 188.067 253.689C188.962 253.687 189.685 252.764 189.682 251.627Z" fill="#F29111"/>
<path d="M201.854 236.269C201.851 235.132 201.123 234.212 200.227 234.214C199.332 234.217 198.608 235.14 198.612 236.277C198.615 237.414 199.343 238.334 200.238 238.332C201.134 238.33 201.857 237.406 201.854 236.269Z" fill="#F29111"/>
<path d="M201.877 241.384C201.874 240.247 201.146 239.327 200.251 239.33C199.355 239.332 198.632 240.255 198.635 241.392C198.638 242.529 199.366 243.449 200.262 243.447C201.157 243.445 201.881 242.521 201.877 241.384Z" fill="#F29111"/>
<path d="M201.877 246.498C201.874 245.361 201.146 244.441 200.251 244.443C199.355 244.445 198.632 245.369 198.635 246.506C198.638 247.643 199.366 248.563 200.262 248.56C201.157 248.558 201.881 247.635 201.877 246.498Z" fill="#F29111"/>
<path d="M201.909 251.615C201.906 250.478 201.177 249.558 200.282 249.56C199.386 249.562 198.663 250.486 198.666 251.623C198.669 252.76 199.398 253.68 200.293 253.678C201.189 253.675 201.912 252.752 201.909 251.615Z" fill="#F29111"/>
<path d="M169.292 236.336C169.288 235.199 168.56 234.279 167.665 234.281C166.769 234.283 166.046 235.207 166.049 236.344C166.052 237.481 166.781 238.401 167.676 238.398C168.571 238.396 169.295 237.473 169.292 236.336Z" fill="#F29111"/>
<path d="M169.315 241.449C169.312 240.312 168.583 239.392 167.688 239.394C166.793 239.396 166.069 240.32 166.072 241.457C166.076 242.594 166.804 243.514 167.699 243.512C168.595 243.509 169.318 242.586 169.315 241.449Z" fill="#F29111"/>
<path d="M169.338 246.566C169.335 245.429 168.607 244.509 167.712 244.511C166.816 244.514 166.093 245.437 166.096 246.574C166.099 247.711 166.827 248.631 167.723 248.629C168.618 248.627 169.342 247.703 169.338 246.566Z" fill="#F29111"/>
<path d="M169.338 251.679C169.335 250.542 168.607 249.622 167.712 249.625C166.816 249.627 166.093 250.55 166.096 251.687C166.099 252.824 166.827 253.744 167.723 253.742C168.618 253.74 169.342 252.816 169.338 251.679Z" fill="#F29111"/>
<path d="M181.518 236.322C181.515 235.185 180.787 234.265 179.891 234.267C178.996 234.269 178.272 235.193 178.276 236.33C178.279 237.467 179.007 238.387 179.903 238.385C180.798 238.382 181.521 237.459 181.518 236.322Z" fill="#F29111"/>
<path d="M181.51 241.437C181.507 240.3 180.779 239.38 179.883 239.382C178.988 239.385 178.265 240.308 178.268 241.445C178.271 242.582 178.999 243.502 179.895 243.5C180.79 243.498 181.513 242.574 181.51 241.437Z" fill="#F29111"/>
<path d="M181.549 246.552C181.546 245.415 180.818 244.495 179.922 244.498C179.027 244.5 178.304 245.423 178.307 246.56C178.31 247.697 179.038 248.617 179.934 248.615C180.829 248.613 181.552 247.689 181.549 246.552Z" fill="#F29111"/>
<path d="M181.542 251.666C181.538 250.529 180.81 249.609 179.915 249.611C179.019 249.613 178.296 250.537 178.299 251.674C178.302 252.811 179.031 253.731 179.926 253.728C180.821 253.726 181.545 252.803 181.542 251.666Z" fill="#F29111"/>
<path d="M193.721 236.277C193.718 235.14 192.99 234.22 192.094 234.222C191.199 234.224 190.476 235.148 190.479 236.285C190.482 237.422 191.21 238.342 192.106 238.34C193.001 238.338 193.724 237.414 193.721 236.277Z" fill="#F29111"/>
<path d="M193.745 241.392C193.742 240.255 193.013 239.335 192.118 239.338C191.222 239.34 190.499 240.263 190.502 241.4C190.505 242.537 191.234 243.457 192.129 243.455C193.024 243.453 193.748 242.529 193.745 241.392Z" fill="#F29111"/>
<path d="M193.737 246.507C193.734 245.37 193.005 244.45 192.11 244.453C191.215 244.455 190.491 245.378 190.494 246.515C190.497 247.652 191.226 248.572 192.121 248.57C193.017 248.568 193.74 247.644 193.737 246.507Z" fill="#F29111"/>
<path d="M193.768 251.623C193.765 250.486 193.037 249.566 192.141 249.568C191.246 249.57 190.522 250.494 190.526 251.631C190.529 252.768 191.257 253.688 192.153 253.685C193.048 253.683 193.771 252.76 193.768 251.623Z" fill="#F29111"/>
<path d="M173.377 236.334C173.374 235.197 172.646 234.277 171.751 234.279C170.855 234.281 170.132 235.205 170.135 236.342C170.138 237.479 170.866 238.399 171.762 238.396C172.657 238.394 173.381 237.471 173.377 236.334Z" fill="#F29111"/>
<path d="M173.377 241.447C173.374 240.31 172.646 239.39 171.751 239.392C170.855 239.394 170.132 240.318 170.135 241.455C170.138 242.592 170.866 243.512 171.762 243.51C172.657 243.507 173.381 242.584 173.377 241.447Z" fill="#F29111"/>
<path d="M173.401 246.56C173.398 245.423 172.669 244.503 171.774 244.505C170.879 244.508 170.155 245.431 170.158 246.568C170.162 247.705 170.89 248.625 171.785 248.623C172.681 248.621 173.404 247.697 173.401 246.56Z" fill="#F29111"/>
<path d="M173.424 251.677C173.421 250.54 172.693 249.62 171.797 249.623C170.902 249.625 170.179 250.548 170.182 251.685C170.185 252.822 170.913 253.742 171.809 253.74C172.704 253.738 173.427 252.814 173.424 251.677Z" fill="#F29111"/>
<path d="M185.573 236.318C185.57 235.181 184.841 234.261 183.946 234.263C183.05 234.265 182.327 235.189 182.33 236.326C182.333 237.463 183.062 238.383 183.957 238.381C184.853 238.379 185.576 237.455 185.573 236.318Z" fill="#F29111"/>
<path d="M185.596 241.431C185.593 240.294 184.865 239.374 183.969 239.377C183.074 239.379 182.351 240.302 182.354 241.439C182.357 242.576 183.085 243.496 183.981 243.494C184.876 243.492 185.599 242.568 185.596 241.431Z" fill="#F29111"/>
<path d="M185.596 246.548C185.593 245.411 184.865 244.492 183.969 244.494C183.074 244.496 182.351 245.419 182.354 246.556C182.357 247.693 183.085 248.613 183.981 248.611C184.876 248.609 185.599 247.685 185.596 246.548Z" fill="#F29111"/>
<path d="M185.627 251.662C185.624 250.525 184.896 249.605 184.001 249.607C183.105 249.609 182.382 250.533 182.385 251.67C182.388 252.807 183.116 253.727 184.012 253.725C184.907 253.722 185.631 252.799 185.627 251.662Z" fill="#F29111"/>
<path d="M197.807 236.273C197.804 235.136 197.076 234.216 196.18 234.218C195.285 234.221 194.562 235.144 194.565 236.281C194.568 237.418 195.296 238.338 196.192 238.336C197.087 238.334 197.81 237.41 197.807 236.273Z" fill="#F29111"/>
<path d="M197.792 241.386C197.788 240.249 197.06 239.329 196.165 239.332C195.269 239.334 194.546 240.257 194.549 241.394C194.552 242.531 195.281 243.451 196.176 243.449C197.071 243.447 197.795 242.523 197.792 241.386Z" fill="#F29111"/>
<path d="M197.823 246.502C197.82 245.365 197.091 244.445 196.196 244.447C195.301 244.449 194.577 245.373 194.58 246.51C194.583 247.647 195.312 248.567 196.207 248.564C197.103 248.562 197.826 247.639 197.823 246.502Z" fill="#F29111"/>
<path d="M197.823 251.619C197.82 250.482 197.091 249.562 196.196 249.564C195.3 249.566 194.577 250.49 194.58 251.627C194.583 252.764 195.312 253.684 196.207 253.682C197.103 253.679 197.826 252.756 197.823 251.619Z" fill="#F29111"/>
<path d="M165.284 256.832C165.281 255.695 164.552 254.775 163.657 254.777C162.761 254.779 162.038 255.703 162.041 256.84C162.044 257.977 162.773 258.897 163.668 258.894C164.564 258.892 165.287 257.969 165.284 256.832Z" fill="#F29111"/>
<path d="M165.307 261.947C165.304 260.81 164.576 259.89 163.68 259.892C162.785 259.894 162.062 260.818 162.065 261.955C162.068 263.092 162.796 264.012 163.692 264.01C164.587 264.007 165.31 263.084 165.307 261.947Z" fill="#F29111"/>
<path d="M177.51 256.787C177.507 255.65 176.779 254.73 175.883 254.732C174.988 254.734 174.265 255.658 174.268 256.795C174.271 257.932 174.999 258.852 175.895 258.85C176.79 258.847 177.513 257.924 177.51 256.787Z" fill="#F29111"/>
<path d="M177.502 261.902C177.499 260.765 176.771 259.845 175.876 259.847C174.98 259.849 174.257 260.773 174.26 261.91C174.263 263.047 174.991 263.967 175.887 263.965C176.782 263.963 177.506 263.039 177.502 261.902Z" fill="#F29111"/>
<path d="M189.713 256.773C189.71 255.636 188.982 254.716 188.087 254.718C187.191 254.721 186.468 255.644 186.471 256.781C186.474 257.918 187.202 258.838 188.098 258.836C188.993 258.834 189.717 257.91 189.713 256.773Z" fill="#F29111"/>
<path d="M189.737 261.888C189.734 260.751 189.005 259.831 188.11 259.834C187.215 259.836 186.491 260.759 186.494 261.896C186.497 263.033 187.226 263.953 188.121 263.951C189.017 263.949 189.74 263.025 189.737 261.888Z" fill="#F29111"/>
<path d="M201.909 256.728C201.906 255.591 201.177 254.671 200.282 254.673C199.386 254.676 198.663 255.599 198.666 256.736C198.669 257.873 199.398 258.793 200.293 258.791C201.189 258.789 201.912 257.865 201.909 256.728Z" fill="#F29111"/>
<path d="M201.932 261.843C201.929 260.706 201.201 259.786 200.305 259.789C199.41 259.791 198.687 260.714 198.69 261.851C198.693 262.988 199.421 263.908 200.317 263.906C201.212 263.904 201.935 262.98 201.932 261.843Z" fill="#F29111"/>
<path d="M169.37 256.795C169.367 255.658 168.638 254.738 167.743 254.74C166.847 254.742 166.124 255.666 166.127 256.803C166.13 257.94 166.859 258.86 167.754 258.857C168.649 258.855 169.373 257.932 169.37 256.795Z" fill="#F29111"/>
<path d="M169.37 261.941C169.367 260.804 168.638 259.884 167.743 259.886C166.847 259.889 166.124 260.812 166.127 261.949C166.13 263.086 166.859 264.006 167.754 264.004C168.649 264.002 169.373 263.078 169.37 261.941Z" fill="#F29111"/>
<path d="M181.565 256.783C181.562 255.646 180.833 254.726 179.938 254.728C179.043 254.73 178.319 255.654 178.322 256.791C178.326 257.928 179.054 258.848 179.949 258.846C180.845 258.843 181.568 257.92 181.565 256.783Z" fill="#F29111"/>
<path d="M181.596 261.898C181.593 260.761 180.865 259.841 179.969 259.843C179.074 259.846 178.351 260.769 178.354 261.906C178.357 263.043 179.085 263.963 179.981 263.961C180.876 263.959 181.599 263.035 181.596 261.898Z" fill="#F29111"/>
<path d="M193.76 256.738C193.757 255.601 193.029 254.681 192.133 254.683C191.238 254.685 190.515 255.609 190.518 256.746C190.521 257.883 191.249 258.803 192.145 258.801C193.04 258.798 193.763 257.875 193.76 256.738Z" fill="#F29111"/>
<path d="M193.784 261.853C193.781 260.716 193.052 259.796 192.157 259.798C191.261 259.801 190.538 260.724 190.541 261.861C190.544 262.998 191.273 263.918 192.168 263.916C193.064 263.914 193.787 262.99 193.784 261.853Z" fill="#F29111"/>
<path d="M173.424 256.793C173.421 255.656 172.693 254.736 171.797 254.738C170.902 254.74 170.179 255.664 170.182 256.801C170.185 257.938 170.913 258.858 171.809 258.855C172.704 258.853 173.427 257.93 173.424 256.793Z" fill="#F29111"/>
<path d="M173.456 261.906C173.452 260.769 172.724 259.849 171.829 259.851C170.933 259.853 170.21 260.777 170.213 261.914C170.216 263.051 170.945 263.971 171.84 263.969C172.735 263.966 173.459 263.043 173.456 261.906Z" fill="#F29111"/>
<path d="M185.651 256.777C185.648 255.64 184.919 254.72 184.024 254.722C183.129 254.724 182.405 255.648 182.408 256.785C182.412 257.922 183.14 258.842 184.035 258.84C184.931 258.838 185.654 257.914 185.651 256.777Z" fill="#F29111"/>
<path d="M185.651 261.894C185.648 260.757 184.919 259.837 184.024 259.839C183.129 259.842 182.405 260.765 182.408 261.902C182.412 263.039 183.14 263.959 184.035 263.957C184.931 263.955 185.654 263.031 185.651 261.894Z" fill="#F29111"/>
<path d="M197.846 256.732C197.843 255.595 197.115 254.675 196.219 254.677C195.324 254.68 194.601 255.603 194.604 256.74C194.607 257.877 195.335 258.797 196.231 258.795C197.126 258.793 197.849 257.869 197.846 256.732Z" fill="#F29111"/>
<path d="M197.846 261.847C197.843 260.71 197.115 259.79 196.219 259.793C195.324 259.795 194.601 260.718 194.604 261.855C194.607 262.992 195.335 263.912 196.231 263.91C197.126 263.908 197.849 262.984 197.846 261.847Z" fill="#F29111"/>
</g>
<mask id="mask3_2831_12619" style="mask-type:luminance" maskUnits="userSpaceOnUse" x="108" y="236" width="35" height="27">
<path d="M125.861 262.477C135.315 262.463 142.925 250.993 142.882 236.86L108.722 236.938C108.735 251.08 116.408 262.491 125.861 262.477Z" fill="white"/>
</mask>
<g mask="url(#mask3_2831_12619)">
<path d="M111.754 236.431C111.751 235.294 111.134 234.373 110.376 234.375C109.619 234.377 109.007 235.3 109.01 236.437C109.013 237.574 109.63 238.495 110.387 238.493C111.145 238.491 111.757 237.568 111.754 236.431Z" fill="#F29111"/>
<path d="M111.785 241.577C111.782 240.44 111.165 239.52 110.407 239.522C109.65 239.524 109.038 240.447 109.041 241.584C109.044 242.721 109.661 243.641 110.419 243.639C111.176 243.637 111.788 242.714 111.785 241.577Z" fill="#F29111"/>
<path d="M111.769 246.692C111.766 245.555 111.149 244.635 110.392 244.637C109.634 244.639 109.022 245.562 109.026 246.699C109.029 247.836 109.645 248.756 110.403 248.754C111.161 248.753 111.772 247.829 111.769 246.692Z" fill="#F29111"/>
<path d="M111.8 251.809C111.797 250.672 111.181 249.752 110.423 249.754C109.665 249.756 109.054 250.679 109.057 251.816C109.06 252.953 109.677 253.873 110.434 253.872C111.192 253.87 111.804 252.947 111.8 251.809Z" fill="#F29111"/>
<path d="M121.996 236.431C121.993 235.294 121.376 234.373 120.618 234.375C119.861 234.377 119.249 235.3 119.252 236.437C119.255 237.574 119.872 238.495 120.63 238.493C121.387 238.491 121.999 237.568 121.996 236.431Z" fill="#F29111"/>
<path d="M122.019 241.548C122.016 240.411 121.399 239.491 120.642 239.492C119.884 239.494 119.272 240.418 119.276 241.555C119.279 242.692 119.895 243.612 120.653 243.61C121.411 243.608 122.022 242.685 122.019 241.548Z" fill="#F29111"/>
<path d="M122.019 246.661C122.016 245.524 121.399 244.604 120.642 244.606C119.884 244.608 119.272 245.531 119.276 246.668C119.279 247.805 119.895 248.725 120.653 248.723C121.411 248.721 122.022 247.798 122.019 246.661Z" fill="#F29111"/>
<path d="M122.051 251.776C122.047 250.639 121.431 249.719 120.673 249.721C119.915 249.723 119.304 250.646 119.307 251.783C119.31 252.92 119.927 253.84 120.684 253.838C121.442 253.837 122.054 252.913 122.051 251.776Z" fill="#F29111"/>
<path d="M132.261 236.401C132.258 235.264 131.642 234.344 130.884 234.346C130.126 234.348 129.515 235.271 129.518 236.408C129.521 237.545 130.138 238.465 130.895 238.463C131.653 238.462 132.265 237.538 132.261 236.401Z" fill="#F29111"/>
<path d="M132.261 241.517C132.258 240.38 131.642 239.459 130.884 239.461C130.126 239.463 129.515 240.386 129.518 241.523C129.521 242.66 130.138 243.581 130.895 243.579C131.653 243.577 132.265 242.654 132.261 241.517Z" fill="#F29111"/>
<path d="M132.285 246.63C132.282 245.493 131.665 244.573 130.907 244.574C130.15 244.576 129.538 245.5 129.541 246.637C129.544 247.774 130.161 248.694 130.919 248.692C131.676 248.69 132.288 247.767 132.285 246.63Z" fill="#F29111"/>
<path d="M132.285 251.747C132.282 250.61 131.665 249.69 130.907 249.692C130.15 249.693 129.538 250.617 129.541 251.754C129.544 252.891 130.161 253.811 130.919 253.809C131.676 253.807 132.288 252.884 132.285 251.747Z" fill="#F29111"/>
<path d="M142.504 236.368C142.501 235.231 141.884 234.311 141.126 234.313C140.368 234.315 139.757 235.238 139.76 236.375C139.763 237.512 140.38 238.432 141.137 238.43C141.895 238.428 142.507 237.505 142.504 236.368Z" fill="#F29111"/>
<path d="M142.504 241.483C142.501 240.346 141.884 239.426 141.126 239.428C140.368 239.43 139.757 240.353 139.76 241.49C139.763 242.627 140.38 243.547 141.137 243.545C141.895 243.544 142.507 242.62 142.504 241.483Z" fill="#F29111"/>
<path d="M142.527 246.599C142.524 245.462 141.907 244.541 141.15 244.543C140.392 244.545 139.78 245.468 139.783 246.605C139.787 247.742 140.403 248.663 141.161 248.661C141.919 248.659 142.53 247.736 142.527 246.599Z" fill="#F29111"/>
<path d="M142.558 251.714C142.555 250.577 141.938 249.657 141.181 249.658C140.423 249.66 139.812 250.584 139.815 251.721C139.818 252.858 140.435 253.778 141.192 253.776C141.95 253.774 142.561 252.851 142.558 251.714Z" fill="#F29111"/>
<path d="M115.168 236.45C115.165 235.313 114.548 234.393 113.79 234.395C113.033 234.397 112.421 235.32 112.424 236.457C112.427 237.594 113.044 238.514 113.802 238.512C114.559 238.51 115.171 237.587 115.168 236.45Z" fill="#F29111"/>
<path d="M115.191 241.565C115.188 240.428 114.571 239.508 113.814 239.51C113.056 239.512 112.444 240.435 112.447 241.572C112.451 242.709 113.067 243.629 113.825 243.627C114.583 243.626 115.194 242.702 115.191 241.565Z" fill="#F29111"/>
<path d="M115.191 246.681C115.188 245.544 114.571 244.623 113.814 244.625C113.056 244.627 112.444 245.55 112.447 246.687C112.451 247.824 113.067 248.745 113.825 248.743C114.583 248.741 115.194 247.818 115.191 246.681Z" fill="#F29111"/>
<path d="M115.215 251.796C115.211 250.659 114.595 249.739 113.837 249.74C113.079 249.742 112.468 250.666 112.471 251.803C112.474 252.94 113.091 253.86 113.848 253.858C114.606 253.856 115.218 252.933 115.215 251.796Z" fill="#F29111"/>
<path d="M125.41 236.421C125.407 235.284 124.79 234.364 124.032 234.365C123.275 234.367 122.663 235.291 122.666 236.428C122.669 237.565 123.286 238.485 124.044 238.483C124.801 238.481 125.413 237.558 125.41 236.421Z" fill="#F29111"/>
<path d="M125.433 241.536C125.43 240.399 124.813 239.479 124.056 239.481C123.298 239.483 122.687 240.406 122.69 241.543C122.693 242.68 123.309 243.6 124.067 243.598C124.825 243.596 125.436 242.673 125.433 241.536Z" fill="#F29111"/>
<path d="M125.457 246.649C125.454 245.512 124.837 244.592 124.079 244.594C123.322 244.596 122.71 245.519 122.713 246.656C122.716 247.793 123.333 248.713 124.091 248.711C124.848 248.71 125.46 247.786 125.457 246.649Z" fill="#F29111"/>
<path d="M125.457 251.767C125.454 250.63 124.837 249.709 124.079 249.711C123.322 249.713 122.71 250.636 122.713 251.773C122.716 252.91 123.333 253.831 124.091 253.829C124.848 253.827 125.46 252.904 125.457 251.767Z" fill="#F29111"/>
<path d="M135.683 236.39C135.68 235.253 135.063 234.332 134.306 234.334C133.548 234.336 132.937 235.259 132.94 236.396C132.943 237.533 133.56 238.454 134.317 238.452C135.075 238.45 135.686 237.527 135.683 236.39Z" fill="#F29111"/>
<path d="M135.676 241.505C135.672 240.368 135.056 239.448 134.298 239.449C133.54 239.451 132.929 240.375 132.932 241.512C132.935 242.649 133.552 243.569 134.309 243.567C135.067 243.565 135.679 242.642 135.676 241.505Z" fill="#F29111"/>
<path d="M135.707 246.62C135.704 245.483 135.087 244.563 134.329 244.565C133.572 244.567 132.96 245.49 132.963 246.627C132.966 247.764 133.583 248.684 134.341 248.682C135.098 248.68 135.71 247.757 135.707 246.62Z" fill="#F29111"/>
<path d="M135.699 251.735C135.696 250.598 135.079 249.678 134.321 249.68C133.564 249.682 132.952 250.605 132.955 251.742C132.958 252.879 133.575 253.799 134.333 253.797C135.09 253.796 135.702 252.872 135.699 251.735Z" fill="#F29111"/>
<path d="M118.574 236.442C118.571 235.305 117.954 234.385 117.196 234.387C116.439 234.389 115.827 235.312 115.83 236.449C115.833 237.586 116.45 238.506 117.208 238.504C117.965 238.503 118.577 237.579 118.574 236.442Z" fill="#F29111"/>
<path d="M118.613 241.558C118.61 240.42 117.993 239.5 117.236 239.502C116.478 239.504 115.866 240.427 115.869 241.564C115.872 242.701 116.489 243.622 117.247 243.62C118.004 243.618 118.616 242.695 118.613 241.558Z" fill="#F29111"/>
<path d="M118.605 246.671C118.602 245.534 117.985 244.614 117.228 244.615C116.47 244.617 115.858 245.541 115.862 246.678C115.865 247.815 116.481 248.735 117.239 248.733C117.997 248.731 118.608 247.808 118.605 246.671Z" fill="#F29111"/>
<path d="M118.629 251.788C118.626 250.651 118.009 249.731 117.251 249.733C116.494 249.734 115.882 250.658 115.885 251.795C115.888 252.932 116.505 253.852 117.262 253.85C118.02 253.848 118.632 252.925 118.629 251.788Z" fill="#F29111"/>
<path d="M128.855 236.411C128.852 235.274 128.235 234.354 127.478 234.356C126.72 234.358 126.108 235.281 126.112 236.418C126.115 237.555 126.731 238.475 127.489 238.473C128.247 238.471 128.858 237.548 128.855 236.411Z" fill="#F29111"/>
<path d="M128.855 241.524C128.852 240.387 128.235 239.467 127.478 239.469C126.72 239.471 126.108 240.394 126.112 241.531C126.115 242.668 126.731 243.588 127.489 243.586C128.247 243.585 128.858 242.661 128.855 241.524Z" fill="#F29111"/>
<path d="M128.879 246.642C128.876 245.505 128.259 244.584 127.501 244.586C126.743 244.588 126.132 245.511 126.135 246.648C126.138 247.785 126.755 248.706 127.512 248.704C128.27 248.702 128.882 247.779 128.879 246.642Z" fill="#F29111"/>
<path d="M128.871 251.755C128.868 250.618 128.251 249.698 127.493 249.699C126.736 249.701 126.124 250.625 126.127 251.762C126.13 252.899 126.747 253.819 127.505 253.817C128.262 253.815 128.874 252.892 128.871 251.755Z" fill="#F29111"/>
<path d="M139.09 236.38C139.086 235.243 138.47 234.323 137.712 234.324C136.954 234.326 136.343 235.25 136.346 236.387C136.349 237.524 136.966 238.444 137.723 238.442C138.481 238.44 139.093 237.517 139.09 236.38Z" fill="#F29111"/>
<path d="M139.09 241.495C139.086 240.358 138.47 239.438 137.712 239.44C136.954 239.442 136.343 240.365 136.346 241.502C136.349 242.639 136.966 243.559 137.723 243.557C138.481 243.555 139.093 242.632 139.09 241.495Z" fill="#F29111"/>
<path d="M139.121 246.608C139.118 245.471 138.501 244.551 137.743 244.553C136.986 244.555 136.374 245.478 136.377 246.615C136.38 247.752 136.997 248.672 137.755 248.67C138.512 248.669 139.124 247.745 139.121 246.608Z" fill="#F29111"/>
<path d="M139.121 251.725C139.118 250.588 138.501 249.668 137.743 249.67C136.986 249.672 136.374 250.595 136.377 251.732C136.38 252.869 136.997 253.789 137.755 253.788C138.512 253.786 139.124 252.862 139.121 251.725Z" fill="#F29111"/>
<path d="M111.8 256.923C111.797 255.786 111.181 254.866 110.423 254.867C109.665 254.869 109.054 255.793 109.057 256.93C109.06 258.067 109.677 258.987 110.434 258.985C111.192 258.983 111.804 258.06 111.8 256.923Z" fill="#F29111"/>
<path d="M111.824 262.038C111.821 260.901 111.204 259.981 110.446 259.983C109.689 259.984 109.077 260.908 109.08 262.045C109.083 263.182 109.7 264.102 110.458 264.1C111.215 264.098 111.827 263.175 111.824 262.038Z" fill="#F29111"/>
<path d="M122.074 256.89C122.071 255.753 121.454 254.832 120.696 254.834C119.939 254.836 119.327 255.759 119.33 256.896C119.333 258.033 119.95 258.954 120.708 258.952C121.465 258.95 122.077 258.027 122.074 256.89Z" fill="#F29111"/>
<path d="M122.074 262.007C122.071 260.87 121.454 259.95 120.696 259.951C119.939 259.953 119.327 260.877 119.33 262.014C119.333 263.151 119.95 264.071 120.708 264.069C121.465 264.067 122.077 263.144 122.074 262.007Z" fill="#F29111"/>
<path d="M132.316 256.86C132.313 255.723 131.696 254.803 130.939 254.805C130.181 254.807 129.569 255.73 129.572 256.867C129.576 258.004 130.192 258.924 130.95 258.922C131.708 258.921 132.319 257.997 132.316 256.86Z" fill="#F29111"/>
<path d="M132.316 261.976C132.313 260.838 131.696 259.918 130.939 259.92C130.181 259.922 129.569 260.845 129.572 261.982C129.576 263.119 130.192 264.039 130.95 264.038C131.708 264.036 132.319 263.113 132.316 261.976Z" fill="#F29111"/>
<path d="M142.558 256.827C142.555 255.69 141.938 254.77 141.181 254.772C140.423 254.774 139.812 255.697 139.815 256.834C139.818 257.971 140.435 258.891 141.192 258.889C141.95 258.887 142.561 257.964 142.558 256.827Z" fill="#F29111"/>
<path d="M142.582 261.944C142.579 260.807 141.962 259.887 141.204 259.889C140.447 259.891 139.835 260.814 139.838 261.951C139.841 263.088 140.458 264.008 141.216 264.006C141.973 264.005 142.585 263.081 142.582 261.944Z" fill="#F29111"/>
<path d="M115.207 256.911C115.204 255.774 114.587 254.854 113.829 254.856C113.072 254.858 112.46 255.781 112.463 256.918C112.466 258.055 113.083 258.975 113.841 258.973C114.598 258.971 115.21 258.048 115.207 256.911Z" fill="#F29111"/>
<path d="M115.246 262.026C115.243 260.889 114.626 259.969 113.868 259.971C113.111 259.973 112.499 260.896 112.502 262.033C112.505 263.17 113.122 264.09 113.88 264.088C114.637 264.087 115.249 263.163 115.246 262.026Z" fill="#F29111"/>
<path d="M125.488 256.88C125.485 255.743 124.868 254.823 124.111 254.824C123.353 254.826 122.741 255.75 122.744 256.887C122.747 258.024 123.364 258.944 124.122 258.942C124.879 258.94 125.491 258.017 125.488 256.88Z" fill="#F29111"/>
<path d="M125.488 261.995C125.485 260.858 124.868 259.938 124.111 259.94C123.353 259.942 122.741 260.865 122.744 262.002C122.747 263.139 123.364 264.059 124.122 264.057C124.879 264.055 125.491 263.132 125.488 261.995Z" fill="#F29111"/>
<path d="M135.722 256.849C135.719 255.712 135.103 254.791 134.345 254.793C133.587 254.795 132.976 255.718 132.979 256.855C132.982 257.992 133.599 258.913 134.356 258.911C135.114 258.909 135.725 257.986 135.722 256.849Z" fill="#F29111"/>
<path d="M135.761 261.966C135.758 260.829 135.142 259.908 134.384 259.91C133.626 259.912 133.015 260.835 133.018 261.972C133.021 263.11 133.638 264.03 134.395 264.028C135.153 264.026 135.765 263.103 135.761 261.966Z" fill="#F29111"/>
<path d="M118.629 256.903C118.626 255.766 118.009 254.846 117.251 254.848C116.494 254.85 115.882 255.773 115.885 256.91C115.888 258.047 116.505 258.967 117.262 258.965C118.02 258.963 118.632 258.04 118.629 256.903Z" fill="#F29111"/>
<path d="M118.652 262.016C118.649 260.879 118.032 259.959 117.275 259.961C116.517 259.963 115.905 260.886 115.908 262.023C115.912 263.16 116.528 264.081 117.286 264.079C118.044 264.077 118.655 263.154 118.652 262.016Z" fill="#F29111"/>
<path d="M128.894 256.87C128.891 255.733 128.274 254.813 127.517 254.815C126.759 254.817 126.147 255.74 126.151 256.877C126.154 258.014 126.77 258.934 127.528 258.932C128.286 258.93 128.897 258.007 128.894 256.87Z" fill="#F29111"/>
<path d="M128.894 261.985C128.891 260.848 128.274 259.928 127.517 259.93C126.759 259.932 126.147 260.855 126.151 261.992C126.154 263.129 126.77 264.049 127.528 264.047C128.286 264.046 128.897 263.122 128.894 261.985Z" fill="#F29111"/>
<path d="M139.144 256.839C139.141 255.702 138.524 254.782 137.767 254.783C137.009 254.785 136.397 255.709 136.401 256.846C136.404 257.983 137.02 258.903 137.778 258.901C138.536 258.899 139.147 257.976 139.144 256.839Z" fill="#F29111"/>
<path d="M139.168 261.954C139.165 260.817 138.548 259.897 137.79 259.899C137.033 259.901 136.421 260.824 136.424 261.961C136.427 263.098 137.044 264.018 137.802 264.016C138.559 264.014 139.171 263.091 139.168 261.954Z" fill="#F29111"/>
</g>
<path fill-rule="evenodd" clip-rule="evenodd" d="M134.787 282.737C134.801 286.425 138.257 289.641 142.808 289.606C147.36 289.571 150.766 286.307 150.729 282.628L153.216 282.603C153.27 287.942 148.453 292.049 142.827 292.093C137.199 292.137 132.319 288.093 132.3 282.746L134.787 282.737Z" fill="#FF9100"/>
<path fill-rule="evenodd" clip-rule="evenodd" d="M153.209 282.581C153.222 286.268 156.679 289.485 161.229 289.45C165.782 289.414 169.188 286.151 169.151 282.472L171.638 282.447C171.692 287.786 166.875 291.893 161.249 291.937C155.621 291.981 150.741 287.937 150.722 282.59L153.209 282.581Z" fill="#FF9100"/>
<g filter="url(#filter4_d_2831_12619)">
<path d="M85.3007 284.451L94.1554 276.998C95.2305 276.108 95.8282 274.774 95.8197 273.371L95.7059 262.588C95.6726 260.442 94.2139 258.575 92.1257 258.084L49.205 247.71C46.8664 247.133 44.4691 248.46 43.6851 250.746L43.0515 252.592C42.0419 255.535 43.0907 258.8 45.6381 260.604L79.5752 284.721C81.3328 285.921 83.6876 285.838 85.3007 284.451Z" fill="white"/>
<path d="M92.0798 258.278C94.0755 258.747 95.4741 260.533 95.5067 262.589L95.5058 262.59L95.6199 273.373C95.628 274.718 95.0546 275.994 94.028 276.844L94.0266 276.845L85.1716 284.298L85.1703 284.299C83.6289 285.625 81.3743 285.706 79.6881 284.555L45.7539 260.441L45.7534 260.441C43.2787 258.688 42.2599 255.515 43.2407 252.657L43.8743 250.81C44.6252 248.622 46.9209 247.353 49.1573 247.904L49.1582 247.904L92.0789 258.279L92.0798 258.278Z" stroke="black" stroke-opacity="0.2" stroke-width="0.4"/>
<path d="M45.677 260.615L67.1376 275.82L66.1369 251.765L49.2546 247.69C46.9161 247.113 44.5188 248.44 43.7348 250.725L43.0904 252.603C42.0808 255.546 43.1296 258.811 45.677 260.615Z" fill="#F29111"/>
<path d="M66.921 275.421L45.7922 260.452C43.3175 258.699 42.2987 255.526 43.2794 252.668L43.9239 250.79C44.6748 248.602 46.9704 247.332 49.2068 247.884L49.2077 247.884L65.9436 251.924L66.921 275.421Z" stroke="black" stroke-opacity="0.2" stroke-width="0.4"/>
</g>
<path d="M302 227.863C302 226.479 302.716 225.193 303.893 224.463L324 212V287L303.893 274.537C302.716 273.807 302 272.521 302 271.137V227.863Z" fill="#FF9100"/>
<path d="M305 234.141C305 232.803 305.668 231.554 306.781 230.813L320 222V277L306.781 268.187C305.668 267.446 305 266.197 305 264.859V234.141Z" fill="white"/>
<rect x="306" y="331" width="47" height="6" rx="2" fill="white"/>
<path d="M104 214.5L230 214.5C242.979 214.5 253.5 225.021 253.5 238V256.676C253.5 270.858 241.033 281.809 226.969 279.979L164.059 271.797C155.428 270.674 146.673 270.959 138.134 272.639L114.092 277.369L114.089 277.37C98.8003 280.48 84.5001 268.795 84.5 253.193V234C84.5 223.23 93.2304 214.5 104 214.5Z" fill="#8EC9E6" fill-opacity="0.48" stroke="#E9E6E6"/>
<circle cx="279" cy="248" r="15" fill="#35373A"/>
<path d="M282.398 243.491L284.254 244.703L262.734 288.694C261.076 292.085 257.649 294.253 253.874 294.299L196.482 295.004L194.712 292.687L252.156 291.982C255.904 291.936 259.311 289.799 260.983 286.445L282.398 243.491Z" fill="#727882"/>
<ellipse cx="193.5" cy="294.5" rx="7.5" ry="5.5" fill="white"/>
<circle cx="279" cy="248" r="12" fill="#727882"/>
<path d="M279 260C285.627 260 291 254.627 291 248C291 241.373 285.627 236 279 236V260Z" fill="#A9B5C9"/>
<path d="M347 286.552L341.24 286.552L341.24 285.392L345.448 281.856L341.24 281.856L341.24 280.792L347 280.792L347 281.952L342.784 285.496L347 285.496L347 286.552ZM347 279.88L342.352 279.88C342.149 279.88 341.965 279.829 341.8 279.728C341.629 279.626 341.493 279.493 341.392 279.328C341.291 279.157 341.24 278.97 341.24 278.768L341.24 275.24C341.24 275.037 341.291 274.85 341.392 274.68C341.493 274.509 341.629 274.373 341.8 274.272C341.965 274.17 342.149 274.12 342.352 274.12L347 274.12L347 275.184L345.064 275.184L345.064 278.824L347 278.824L347 279.88ZM344.008 278.824L344.008 275.184L342.4 275.184C342.373 275.184 342.352 275.194 342.336 275.216C342.315 275.237 342.304 275.261 342.304 275.288L342.304 278.728C342.304 278.754 342.315 278.778 342.336 278.8C342.352 278.816 342.373 278.824 342.4 278.824L344.008 278.824ZM347 271.144L342.304 271.144L342.304 273.496L341.24 273.496L341.24 267.736L342.304 267.736L342.304 270.08L347 270.08L347 271.144ZM347 267.25L341.24 267.25L341.24 266.202L347 266.202L347 267.25ZM347 262.259L341.24 265.595L341.24 264.363L345.72 261.787L341.24 259.203L341.24 257.979L347 261.315L347 262.259ZM347 257.388L341.24 257.388L341.24 252.084L342.304 252.084L342.304 256.324L343.584 256.324L343.584 252.916L344.656 252.916L344.656 256.324L345.936 256.324L345.936 252.084L347 252.084L347 257.388ZM347 248.945L341.24 248.945L341.24 247.897L347 247.897L347 248.945ZM347 247.122L341.24 247.122L341.24 245.962L343.728 243.874L341.24 241.794L341.24 240.626L347 240.626L347 241.69L342.776 241.69L345.376 243.874L342.784 246.066L347 246.066L347 247.122ZM347 239.684L342.352 239.684C342.149 239.684 341.965 239.634 341.8 239.532C341.629 239.431 341.493 239.298 341.392 239.132C341.291 238.962 341.24 238.775 341.24 238.572L341.24 235.044C341.24 234.842 341.291 234.655 341.392 234.484C341.493 234.314 341.629 234.178 341.8 234.076C341.965 233.975 342.149 233.924 342.352 233.924L347 233.924L347 234.988L345.064 234.988L345.064 238.628L347 238.628L347 239.684ZM344.008 238.628L344.008 234.988L342.4 234.988C342.373 234.988 342.352 234.999 342.336 235.02C342.315 235.042 342.304 235.066 342.304 235.092L342.304 238.532C342.304 238.559 342.315 238.583 342.336 238.604C342.352 238.62 342.373 238.628 342.4 238.628L344.008 238.628ZM347 231.901C347 232.104 346.949 232.29 346.848 232.461C346.747 232.626 346.613 232.76 346.448 232.861C346.277 232.962 346.091 233.013 345.888 233.013L342.352 233.013C342.149 233.013 341.965 232.962 341.8 232.861C341.629 232.76 341.493 232.626 341.392 232.461C341.291 232.29 341.24 232.104 341.24 231.901L341.24 228.373C341.24 228.17 341.291 227.984 341.392 227.813C341.493 227.642 341.629 227.506 341.8 227.405C341.965 227.304 342.149 227.253 342.352 227.253L342.8 227.253L342.8 228.317L342.4 228.317C342.373 228.317 342.352 228.328 342.336 228.349C342.315 228.37 342.304 228.394 342.304 228.421L342.304 231.861C342.304 231.888 342.315 231.912 342.336 231.933C342.352 231.949 342.373 231.957 342.4 231.957L345.84 231.957C345.867 231.957 345.891 231.949 345.912 231.933C345.928 231.912 345.936 231.888 345.936 231.861L345.936 228.421C345.936 228.394 345.928 228.37 345.912 228.349C345.891 228.328 345.867 228.317 345.84 228.317L344.8 228.317L344.8 229.621L343.736 229.621L343.736 227.253L345.888 227.253C346.091 227.253 346.277 227.304 346.448 227.405C346.613 227.506 346.747 227.642 346.848 227.813C346.949 227.984 347 228.17 347 228.373L347 231.901ZM347 226.356L341.24 226.356L341.24 221.052L342.304 221.052L342.304 225.292L343.584 225.292L343.584 221.884L344.656 221.884L344.656 225.292L345.936 225.292L345.936 221.052L347 221.052L347 226.356Z" fill="white"/>
<defs>
<filter id="filter0_d_2831_12619" x="102.43" y="92.2344" width="53.5547" height="107.065" filterUnits="userSpaceOnUse" color-interpolation-filters="sRGB">
<feFlood flood-opacity="0" result="BackgroundImageFix"/>
<feColorMatrix in="SourceAlpha" type="matrix" values="0 0 0 0 0 0 0 0 0 0 0 0 0 0 0 0 0 0 127 0" result="hardAlpha"/>
<feOffset dy="4"/>
<feGaussianBlur stdDeviation="3"/>
<feComposite in2="hardAlpha" operator="out"/>
<feColorMatrix type="matrix" values="0 0 0 0 0 0 0 0 0 0 0 0 0 0 0 0 0 0 0.35 0"/>
<feBlend mode="normal" in2="BackgroundImageFix" result="effect1_dropShadow_2831_12619"/>
<feBlend mode="normal" in="SourceGraphic" in2="effect1_dropShadow_2831_12619" result="shape"/>
</filter>
<filter id="filter1_d_2831_12619" x="81.8008" y="66.6797" width="303.121" height="284.927" filterUnits="userSpaceOnUse" color-interpolation-filters="sRGB">
<feFlood flood-opacity="0" result="BackgroundImageFix"/>
<feColorMatrix in="SourceAlpha" type="matrix" values="0 0 0 0 0 0 0 0 0 0 0 0 0 0 0 0 0 0 127 0" result="hardAlpha"/>
<feOffset/>
<feGaussianBlur stdDeviation="4"/>
<feComposite in2="hardAlpha" operator="out"/>
<feColorMatrix type="matrix" values="0 0 0 0 0 0 0 0 0 0 0 0 0 0 0 0 0 0 0.25 0"/>
<feBlend mode="normal" in2="BackgroundImageFix" result="effect1_dropShadow_2831_12619"/>
<feBlend mode="normal" in="SourceGraphic" in2="effect1_dropShadow_2831_12619" result="shape"/>
</filter>
<filter id="filter2_d_2831_12619" x="81.8008" y="66.6797" width="303.121" height="284.927" filterUnits="userSpaceOnUse" color-interpolation-filters="sRGB">
<feFlood flood-opacity="0" result="BackgroundImageFix"/>
<feColorMatrix in="SourceAlpha" type="matrix" values="0 0 0 0 0 0 0 0 0 0 0 0 0 0 0 0 0 0 127 0" result="hardAlpha"/>
<feOffset/>
<feGaussianBlur stdDeviation="4"/>
<feComposite in2="hardAlpha" operator="out"/>
<feColorMatrix type="matrix" values="0 0 0 0 0 0 0 0 0 0 0 0 0 0 0 0 0 0 0.25 0"/>
<feBlend mode="normal" in2="BackgroundImageFix" result="effect1_dropShadow_2831_12619"/>
<feBlend mode="normal" in="SourceGraphic" in2="effect1_dropShadow_2831_12619" result="shape"/>
</filter>
<filter id="filter3_d_2831_12619" x="213.516" y="310.45" width="82.418" height="54.0254" filterUnits="userSpaceOnUse" color-interpolation-filters="sRGB">
<feFlood flood-opacity="0" result="BackgroundImageFix"/>
<feColorMatrix in="SourceAlpha" type="matrix" values="0 0 0 0 0 0 0 0 0 0 0 0 0 0 0 0 0 0 127 0" result="hardAlpha"/>
<feOffset dy="5"/>
<feGaussianBlur stdDeviation="1"/>
<feComposite in2="hardAlpha" operator="out"/>
<feColorMatrix type="matrix" values="0 0 0 0 0 0 0 0 0 0 0 0 0 0 0 0 0 0 0.1 0"/>
<feBlend mode="normal" in2="BackgroundImageFix" result="effect1_dropShadow_2831_12619"/>
<feBlend mode="normal" in="SourceGraphic" in2="effect1_dropShadow_2831_12619" result="shape"/>
</filter>
<filter id="filter4_d_2831_12619" x="38.6719" y="247.555" width="61.1484" height="46.0059" filterUnits="userSpaceOnUse" color-interpolation-filters="sRGB">
<feFlood flood-opacity="0" result="BackgroundImageFix"/>
<feColorMatrix in="SourceAlpha" type="matrix" values="0 0 0 0 0 0 0 0 0 0 0 0 0 0 0 0 0 0 127 0" result="hardAlpha"/>
<feOffset dy="4"/>
<feGaussianBlur stdDeviation="2"/>
<feComposite in2="hardAlpha" operator="out"/>
<feColorMatrix type="matrix" values="0 0 0 0 0 0 0 0 0 0 0 0 0 0 0 0 0 0 0.25 0"/>
<feBlend mode="normal" in2="BackgroundImageFix" result="effect1_dropShadow_2831_12619"/>
<feBlend mode="normal" in="SourceGraphic" in2="effect1_dropShadow_2831_12619" result="shape"/>
</filter>
<linearGradient id="paint0_linear_2831_12619" x1="437.95" y1="316.201" x2="372.577" y2="373.264" gradientUnits="userSpaceOnUse">
<stop offset="0.239677" stop-color="white" stop-opacity="0"/>
<stop offset="1" stop-color="white"/>
</linearGradient>
<linearGradient id="paint1_linear_2831_12619" x1="127.828" y1="92.0825" x2="129.923" y2="188.894" gradientUnits="userSpaceOnUse">
<stop stop-color="white"/>
<stop offset="1" stop-color="#F4F4F4"/>
</linearGradient>
<linearGradient id="paint2_linear_2831_12619" x1="324.929" y1="444.176" x2="459" y2="355.534" gradientUnits="userSpaceOnUse">
<stop stop-color="white"/>
<stop offset="0.904829" stop-color="white" stop-opacity="0"/>
</linearGradient>
</defs>
</svg>
