<svg width="200" height="200" viewBox="0 0 200 200" fill="none" xmlns="http://www.w3.org/2000/svg">
<path d="M99.0345 174.704C124.666 174.704 145.444 170.825 145.444 166.04C145.444 161.254 124.666 157.375 99.0345 157.375C73.4032 157.375 52.625 161.254 52.625 166.04C52.625 170.825 73.4032 174.704 99.0345 174.704Z" fill="#A4AFBF" fill-opacity="0.7"/>
<path d="M78.2985 48.9011C75.0581 56.8655 72.613 69.815 71.7109 75.9871L88.0077 68.9367C89.4557 57.7675 87.8534 49.5539 86.3816 45.4589C85.978 44.3195 84.6961 43.8447 83.5804 44.2957L82.9394 44.545C80.8741 45.3521 79.1293 46.8477 78.2985 48.9011Z" fill="url(#paint0_linear_1993_2148)"/>
<path d="M88.3875 55.8091C83.3549 47.631 77.8118 53.0791 75.7109 56.7349C77.978 49.0316 77.8474 47.18 82.2747 44.8298C86.1323 42.7764 86.5596 45.7913 86.8207 46.5153C87.07 47.1919 88.2095 52.2957 88.3875 55.8091Z" fill="#FF9100"/>
<path d="M67.4681 110.397L69.391 115.239C69.6284 115.833 69.5809 116.498 69.2723 117.056L66.9577 121.257C66.4592 122.147 65.4028 122.575 64.4296 122.254L49.2129 117.34C48.204 117.02 47.5868 116.011 47.7649 114.966L47.931 113.934C48.1566 112.569 49.2367 111.501 50.6017 111.287L65.1417 109.067C66.1388 108.925 67.1002 109.471 67.4681 110.397Z" fill="white"/>
<path fill-rule="evenodd" clip-rule="evenodd" d="M136.829 92.2945C148.615 85.2678 167.286 71.7129 173.256 62.8108C173.814 61.98 173.672 60.9117 173.019 60.1639L172.829 59.9503C170.989 57.8494 168.081 57.0067 165.399 57.8375C154.716 61.161 140.117 66.1817 123.856 76.0096C119.037 72.4369 113.28 69.7426 106.87 68.3064C85.0426 63.4043 63.8437 74.9889 59.547 94.1817C55.2503 113.375 69.4699 132.9 91.3096 137.79C113.149 142.68 134.348 131.096 138.645 111.903C140.152 105.197 139.393 98.4429 136.829 92.2945Z" fill="white"/>
<path d="M173.224 62.7766C170.423 66.468 165.426 72.4027 156.109 79.3701C156.109 79.3701 161.201 69.4354 159.183 66.741C157.165 64.0348 145.391 65.0437 145.391 65.0437C150.411 63.0615 159.812 58.8716 166.328 57.6134C168.524 57.1861 170.708 58.0051 172.465 59.4176L172.833 59.7143C173.759 60.4502 173.948 61.8152 173.224 62.7766Z" fill="#FF9100"/>
<path d="M173.35 62.682C167.225 72.1776 148.329 85.9105 136.899 92.3081L135.047 88.3675L172.887 62.2547C173.195 62.0411 173.551 62.3615 173.35 62.682Z" fill="#E9E6E6"/>
<path d="M114.478 108.496C111.7 120.876 98.6796 130.93 83.1663 127.452C67.6529 123.974 57.8488 108.805 60.6144 96.4252C63.3918 84.0453 77.0535 76.5676 92.5669 80.0453C108.08 83.535 117.255 96.1166 114.478 108.496Z" fill="#35373A"/>
<path fill-rule="evenodd" clip-rule="evenodd" d="M77.0687 111.179C76.7049 111.164 76.2696 111.354 75.8728 111.863C75.4762 112.372 75.1732 113.141 75.1299 114.051L75.1298 114.053L75.1296 114.056C75.0755 114.965 75.2939 115.755 75.6391 116.303C75.9881 116.858 76.3978 117.088 76.753 117.103C77.1168 117.118 77.5521 116.927 77.949 116.419C78.3455 115.91 78.6485 115.14 78.6918 114.231C78.7352 113.32 78.517 112.527 78.181 111.976C77.8323 111.423 77.4233 111.194 77.0687 111.179ZM75.1241 111.279C75.653 110.601 76.3572 110.198 77.1091 110.23C77.8696 110.263 78.5281 110.745 78.9862 111.472L78.9879 111.475L78.9896 111.478C79.436 112.208 79.6918 113.195 79.6403 114.276C79.5887 115.361 79.227 116.324 78.6977 117.003C78.1687 117.681 77.4646 118.083 76.7126 118.051C75.9521 118.019 75.2936 117.537 74.8355 116.809C74.374 116.076 74.1176 115.087 74.1816 114.003C74.2337 112.919 74.5952 111.957 75.1241 111.279Z" fill="#FF9100"/>
<mask id="mask0_1993_2148" style="mask-type:luminance" maskUnits="userSpaceOnUse" x="68" y="88" width="13" height="17">
<path d="M79.8768 97.6504C80.8942 93.1088 79.2611 88.8765 76.2291 88.1972C73.197 87.518 69.9143 90.6491 68.8969 95.1907C67.8795 99.7323 69.5126 103.965 72.5447 104.644C75.5767 105.323 78.8594 102.192 79.8768 97.6504Z" fill="white"/>
</mask>
<g mask="url(#mask0_1993_2148)">
<path d="M71.0174 89.4175C71.102 89.0401 70.9683 88.6888 70.7188 88.6329C70.4693 88.577 70.1986 88.8377 70.114 89.2151C70.0295 89.5925 70.1632 89.9437 70.4126 89.9996C70.6621 90.0555 70.9329 89.7949 71.0174 89.4175Z" fill="#F29111"/>
<path d="M70.6268 91.1382C70.7114 90.7608 70.5777 90.4095 70.3282 90.3536C70.0787 90.2977 69.8079 90.5584 69.7234 90.9358C69.6389 91.3132 69.7726 91.6644 70.022 91.7203C70.2715 91.7762 70.5423 91.5156 70.6268 91.1382Z" fill="#F29111"/>
<path d="M70.2518 92.8491C70.3364 92.4717 70.2027 92.1205 69.9532 92.0646C69.7037 92.0087 69.4329 92.2693 69.3484 92.6467C69.2639 93.0241 69.3976 93.3754 69.647 93.4313C69.8965 93.4872 70.1673 93.2265 70.2518 92.8491Z" fill="#F29111"/>
<path d="M69.869 94.5581C69.9535 94.1807 69.8198 93.8294 69.5704 93.7736C69.3209 93.7177 69.0501 93.9783 68.9656 94.3557C68.881 94.7331 69.0147 95.0844 69.2642 95.1403C69.5137 95.1961 69.7844 94.9355 69.869 94.5581Z" fill="#F29111"/>
<path d="M69.4784 96.2768C69.5629 95.8994 69.4292 95.5482 69.1797 95.4923C68.9303 95.4364 68.6595 95.6971 68.575 96.0745C68.4904 96.4519 68.6241 96.8031 68.8736 96.859C69.123 96.9149 69.3938 96.6542 69.4784 96.2768Z" fill="#F29111"/>
<path d="M69.1034 97.9878C69.1879 97.6104 69.0542 97.2591 68.8047 97.2032C68.5553 97.1473 68.2845 97.408 68.2 97.7854C68.1154 98.1628 68.2491 98.5141 68.4986 98.5699C68.748 98.6258 69.0188 98.3652 69.1034 97.9878Z" fill="#F29111"/>
<path d="M68.7127 99.6968C68.7973 99.3194 68.6636 98.9681 68.4141 98.9122C68.1647 98.8563 67.8939 99.117 67.8093 99.4944C67.7248 99.8718 67.8585 100.223 68.108 100.279C68.3574 100.335 68.6282 100.074 68.7127 99.6968Z" fill="#F29111"/>
<path d="M74.4549 90.187C74.5395 89.8096 74.4058 89.4583 74.1563 89.4025C73.9068 89.3466 73.6361 89.6072 73.5515 89.9846C73.467 90.362 73.6007 90.7133 73.8501 90.7692C74.0996 90.825 74.3704 90.5644 74.4549 90.187Z" fill="#F29111"/>
<path d="M74.0643 91.9077C74.1489 91.5303 74.0152 91.1791 73.7657 91.1232C73.5162 91.0673 73.2454 91.3279 73.1609 91.7053C73.0763 92.0827 73.2101 92.434 73.4595 92.4899C73.709 92.5458 73.9798 92.2851 74.0643 91.9077Z" fill="#F29111"/>
<path d="M73.6737 93.6167C73.7582 93.2393 73.6245 92.888 73.3751 92.8322C73.1256 92.7763 72.8548 93.0369 72.7703 93.4143C72.6857 93.7917 72.8194 94.143 73.0689 94.1988C73.3184 94.2547 73.5891 93.9941 73.6737 93.6167Z" fill="#F29111"/>
<path d="M73.2987 95.3276C73.3832 94.9502 73.2495 94.599 73.0001 94.5431C72.7506 94.4872 72.4798 94.7478 72.3953 95.1252C72.3107 95.5026 72.4444 95.8539 72.6939 95.9098C72.9434 95.9657 73.2141 95.705 73.2987 95.3276Z" fill="#F29111"/>
<path d="M72.9081 97.0464C72.9926 96.669 72.8589 96.3177 72.6094 96.2618C72.36 96.206 72.0892 96.4666 72.0046 96.844C71.9201 97.2214 72.0538 97.5726 72.3033 97.6285C72.5527 97.6844 72.8235 97.4238 72.9081 97.0464Z" fill="#F29111"/>
<path d="M72.5252 98.7554C72.6098 98.378 72.4761 98.0267 72.2266 97.9708C71.9772 97.9149 71.7064 98.1756 71.6218 98.553C71.5373 98.9304 71.671 99.2816 71.9205 99.3375C72.1699 99.3934 72.4407 99.1328 72.5252 98.7554Z" fill="#F29111"/>
<path d="M72.1424 100.466C72.227 100.089 72.0933 99.7376 71.8438 99.6818C71.5943 99.6259 71.3236 99.8865 71.239 100.264C71.1545 100.641 71.2882 100.993 71.5376 101.048C71.7871 101.104 72.0579 100.844 72.1424 100.466Z" fill="#F29111"/>
<path d="M77.8768 90.9546C77.9614 90.5772 77.8277 90.2259 77.5782 90.17C77.3287 90.1141 77.0579 90.3748 76.9734 90.7522C76.8889 91.1296 77.0226 91.4809 77.272 91.5367C77.5215 91.5926 77.7923 91.332 77.8768 90.9546Z" fill="#F29111"/>
<path d="M77.494 92.6772C77.5785 92.2998 77.4448 91.9486 77.1954 91.8927C76.9459 91.8368 76.6751 92.0974 76.5906 92.4749C76.506 92.8523 76.6397 93.2035 76.8892 93.2594C77.1387 93.3153 77.4095 93.0546 77.494 92.6772Z" fill="#F29111"/>
<path d="M77.1112 94.3862C77.1957 94.0088 77.062 93.6576 76.8126 93.6017C76.5631 93.5458 76.2923 93.8064 76.2078 94.1838C76.1232 94.5612 76.2569 94.9125 76.5064 94.9684C76.7559 95.0243 77.0266 94.7636 77.1112 94.3862Z" fill="#F29111"/>
<path d="M76.7206 96.0952C76.8051 95.7178 76.6714 95.3666 76.4219 95.3107C76.1725 95.2548 75.9017 95.5154 75.8171 95.8928C75.7326 96.2702 75.8663 96.6215 76.1158 96.6774C76.3652 96.7332 76.636 96.4726 76.7206 96.0952Z" fill="#F29111"/>
<path d="M76.3456 97.8179C76.4301 97.4405 76.2964 97.0892 76.0469 97.0333C75.7975 96.9774 75.5267 97.2381 75.4421 97.6155C75.3576 97.9929 75.4913 98.3441 75.7408 98.4C75.9902 98.4559 76.261 98.1953 76.3456 97.8179Z" fill="#F29111"/>
<path d="M75.9549 99.5269C76.0395 99.1494 75.9058 98.7982 75.6563 98.7423C75.4068 98.6864 75.1361 98.9471 75.0515 99.3245C74.967 99.7019 75.1007 100.053 75.3501 100.109C75.5996 100.165 75.8704 99.9043 75.9549 99.5269Z" fill="#F29111"/>
<path d="M75.5799 101.238C75.6645 100.86 75.5308 100.509 75.2813 100.453C75.0318 100.397 74.7611 100.658 74.6765 101.035C74.592 101.413 74.7257 101.764 74.9751 101.82C75.2246 101.876 75.4954 101.615 75.5799 101.238Z" fill="#F29111"/>
<path d="M80.9159 93.4448C81.0004 93.0674 80.8667 92.7162 80.6173 92.6603C80.3678 92.6044 80.097 92.865 80.0125 93.2424C79.9279 93.6198 80.0616 93.9711 80.3111 94.027C80.5606 94.0829 80.8313 93.8222 80.9159 93.4448Z" fill="#F29111"/>
<path d="M80.5409 95.1557C80.6254 94.7783 80.4917 94.4271 80.2423 94.3712C79.9928 94.3153 79.722 94.576 79.6375 94.9534C79.5529 95.3308 79.6866 95.682 79.9361 95.7379C80.1856 95.7938 80.4563 95.5332 80.5409 95.1557Z" fill="#F29111"/>
<path d="M80.1581 96.8647C80.2426 96.4873 80.1089 96.1361 79.8594 96.0802C79.61 96.0243 79.3392 96.2849 79.2546 96.6624C79.1701 97.0398 79.3038 97.391 79.5533 97.4469C79.8027 97.5028 80.0735 97.2421 80.1581 96.8647Z" fill="#F29111"/>
<path d="M79.7752 98.5874C79.8598 98.21 79.7261 97.8587 79.4766 97.8029C79.2272 97.747 78.9564 98.0076 78.8718 98.385C78.7873 98.7624 78.921 99.1137 79.1705 99.1696C79.4199 99.2254 79.6907 98.9648 79.7752 98.5874Z" fill="#F29111"/>
<path d="M79.3924 100.296C79.477 99.919 79.3433 99.5677 79.0938 99.5118C78.8443 99.456 78.5736 99.7166 78.489 100.094C78.4045 100.471 78.5382 100.823 78.7876 100.879C79.0371 100.934 79.3079 100.674 79.3924 100.296Z" fill="#F29111"/>
<path d="M79.0018 102.005C79.0864 101.628 78.9527 101.277 78.7032 101.221C78.4537 101.165 78.1829 101.426 78.0984 101.803C78.0139 102.18 78.1475 102.532 78.397 102.588C78.6465 102.643 78.9173 102.383 79.0018 102.005Z" fill="#F29111"/>
<path d="M72.1581 89.6753C72.2426 89.2979 72.1089 88.9466 71.8594 88.8907C71.61 88.8349 71.3392 89.0955 71.2546 89.4729C71.1701 89.8503 71.3038 90.2016 71.5533 90.2574C71.8027 90.3133 72.0735 90.0527 72.1581 89.6753Z" fill="#F29111"/>
<path d="M71.7831 91.3862C71.8676 91.0088 71.7339 90.6576 71.4844 90.6017C71.235 90.5458 70.9642 90.8064 70.8796 91.1838C70.7951 91.5612 70.9288 91.9125 71.1783 91.9684C71.4277 92.0243 71.6985 91.7636 71.7831 91.3862Z" fill="#F29111"/>
<path d="M71.3924 93.1069C71.477 92.7295 71.3433 92.3783 71.0938 92.3224C70.8443 92.2665 70.5736 92.5271 70.489 92.9045C70.4045 93.2819 70.5382 93.6332 70.7876 93.6891C71.0371 93.745 71.3079 93.4843 71.3924 93.1069Z" fill="#F29111"/>
<path d="M71.0174 94.8179C71.102 94.4405 70.9683 94.0892 70.7188 94.0333C70.4693 93.9774 70.1986 94.2381 70.114 94.6155C70.0295 94.9929 70.1632 95.3441 70.4126 95.4C70.6621 95.4559 70.9329 95.1953 71.0174 94.8179Z" fill="#F29111"/>
<path d="M70.6268 96.5268C70.7114 96.1494 70.5777 95.7982 70.3282 95.7423C70.0787 95.6864 69.8079 95.9471 69.7234 96.3245C69.6389 96.7019 69.7726 97.0531 70.022 97.109C70.2715 97.1649 70.5423 96.9042 70.6268 96.5268Z" fill="#F29111"/>
<path d="M70.2362 98.2476C70.3207 97.8701 70.187 97.5189 69.9376 97.463C69.6881 97.4071 69.4173 97.6678 69.3328 98.0452C69.2482 98.4226 69.3819 98.7738 69.6314 98.8297C69.8809 98.8856 70.1516 98.625 70.2362 98.2476Z" fill="#F29111"/>
<path d="M69.8612 99.9585C69.9457 99.5811 69.812 99.2298 69.5626 99.1739C69.3131 99.1181 69.0423 99.3787 68.9578 99.7561C68.8732 100.134 69.0069 100.485 69.2564 100.541C69.5059 100.597 69.7766 100.336 69.8612 99.9585Z" fill="#F29111"/>
<path d="M75.5877 90.4468C75.6723 90.0694 75.5386 89.7181 75.2891 89.6622C75.0397 89.6063 74.7689 89.867 74.6843 90.2444C74.5998 90.6218 74.7335 90.973 74.983 91.0289C75.2324 91.0848 75.5032 90.8242 75.5877 90.4468Z" fill="#F29111"/>
<path d="M75.2127 92.1577C75.2973 91.7803 75.1636 91.429 74.9141 91.3732C74.6647 91.3173 74.3939 91.5779 74.3093 91.9553C74.2248 92.3327 74.3585 92.684 74.608 92.7399C74.8574 92.7958 75.1282 92.5351 75.2127 92.1577Z" fill="#F29111"/>
<path d="M74.8221 93.8784C74.9067 93.501 74.773 93.1498 74.5235 93.0939C74.274 93.038 74.0033 93.2986 73.9187 93.676C73.8342 94.0534 73.9679 94.4047 74.2173 94.4606C74.4668 94.5165 74.7376 94.2558 74.8221 93.8784Z" fill="#F29111"/>
<path d="M74.4393 95.5854C74.5239 95.208 74.3902 94.8568 74.1407 94.8009C73.8912 94.745 73.6204 95.0057 73.5359 95.3831C73.4514 95.7605 73.5851 96.1117 73.8345 96.1676C74.084 96.2235 74.3548 95.9628 74.4393 95.5854Z" fill="#F29111"/>
<path d="M74.0565 97.2964C74.141 96.919 74.0073 96.5677 73.7579 96.5118C73.5084 96.456 73.2376 96.7166 73.1531 97.094C73.0685 97.4714 73.2022 97.8226 73.4517 97.8785C73.7012 97.9344 73.972 97.6738 74.0565 97.2964Z" fill="#F29111"/>
<path d="M73.6659 99.0171C73.7504 98.6397 73.6167 98.2884 73.3673 98.2325C73.1178 98.1766 72.847 98.4373 72.7625 98.8147C72.6779 99.1921 72.8116 99.5434 73.0611 99.5992C73.3106 99.6551 73.5813 99.3945 73.6659 99.0171Z" fill="#F29111"/>
<path d="M73.2831 100.726C73.3676 100.349 73.2339 99.9974 72.9844 99.9415C72.735 99.8856 72.4642 100.146 72.3796 100.524C72.2951 100.901 72.4288 101.252 72.6783 101.308C72.9277 101.364 73.1985 101.103 73.2831 100.726Z" fill="#F29111"/>
<path d="M79.0252 91.2163C79.1098 90.8389 78.9761 90.4876 78.7266 90.4318C78.4772 90.3759 78.2064 90.6365 78.1218 91.0139C78.0373 91.3913 78.171 91.7426 78.4205 91.7985C78.6699 91.8543 78.9407 91.5937 79.0252 91.2163Z" fill="#F29111"/>
<path d="M78.6346 92.9253C78.7192 92.5479 78.5855 92.1966 78.336 92.1407C78.0865 92.0849 77.8158 92.3455 77.7312 92.7229C77.6467 93.1003 77.7804 93.4516 78.0298 93.5074C78.2793 93.5633 78.5501 93.3027 78.6346 92.9253Z" fill="#F29111"/>
<path d="M78.2596 94.6479C78.3442 94.2705 78.2105 93.9193 77.961 93.8634C77.7115 93.8075 77.4408 94.0682 77.3562 94.4456C77.2717 94.823 77.4054 95.1742 77.6548 95.2301C77.9043 95.286 78.1751 95.0253 78.2596 94.6479Z" fill="#F29111"/>
<path d="M77.869 96.3569C77.9535 95.9795 77.8198 95.6283 77.5704 95.5724C77.3209 95.5165 77.0501 95.7771 76.9656 96.1545C76.881 96.5319 77.0147 96.8832 77.2642 96.9391C77.5137 96.995 77.7845 96.7343 77.869 96.3569Z" fill="#F29111"/>
<path d="M77.4784 98.064C77.5629 97.6865 77.4292 97.3353 77.1798 97.2794C76.9303 97.2235 76.6595 97.4842 76.575 97.8616C76.4904 98.239 76.6241 98.5902 76.8736 98.6461C77.1231 98.702 77.3938 98.4414 77.4784 98.064Z" fill="#F29111"/>
<path d="M77.1034 99.7886C77.1879 99.4112 77.0542 99.0599 76.8048 99.004C76.5553 98.9481 76.2845 99.2088 76.2 99.5862C76.1154 99.9636 76.2491 100.315 76.4986 100.371C76.7481 100.427 77.0188 100.166 77.1034 99.7886Z" fill="#F29111"/>
<path d="M76.7127 101.496C76.7973 101.118 76.6636 100.767 76.4141 100.711C76.1647 100.655 75.8939 100.916 75.8093 101.293C75.7248 101.671 75.8585 102.022 76.108 102.078C76.3574 102.134 76.6282 101.873 76.7127 101.496Z" fill="#F29111"/>
<path d="M73.3065 89.937C73.391 89.5596 73.2573 89.2084 73.0079 89.1525C72.7584 89.0966 72.4876 89.3572 72.4031 89.7346C72.3185 90.112 72.4522 90.4633 72.7017 90.5192C72.9512 90.575 73.2219 90.3144 73.3065 89.937Z" fill="#F29111"/>
<path d="M72.9159 91.646C73.0004 91.2686 72.8667 90.9173 72.6172 90.8614C72.3678 90.8056 72.097 91.0662 72.0125 91.4436C71.9279 91.821 72.0616 92.1723 72.3111 92.2281C72.5605 92.284 72.8313 92.0234 72.9159 91.646Z" fill="#F29111"/>
<path d="M72.5409 93.3569C72.6254 92.9795 72.4917 92.6283 72.2422 92.5724C71.9928 92.5165 71.722 92.7771 71.6375 93.1545C71.5529 93.5319 71.6866 93.8832 71.9361 93.9391C72.1855 93.995 72.4563 93.7343 72.5409 93.3569Z" fill="#F29111"/>
<path d="M72.1502 95.0776C72.2348 94.7002 72.1011 94.349 71.8516 94.2931C71.6022 94.2372 71.3314 94.4978 71.2468 94.8752C71.1623 95.2526 71.296 95.6039 71.5455 95.6598C71.7949 95.7157 72.0657 95.455 72.1502 95.0776Z" fill="#F29111"/>
<path d="M71.7596 96.7847C71.8442 96.4073 71.7105 96.056 71.461 96.0001C71.2115 95.9442 70.9408 96.2049 70.8562 96.5823C70.7717 96.9597 70.9054 97.3109 71.1548 97.3668C71.4043 97.4227 71.6751 97.1621 71.7596 96.7847Z" fill="#F29111"/>
<path d="M71.3846 98.4976C71.4692 98.1201 71.3355 97.7689 71.086 97.713C70.8365 97.6571 70.5658 97.9178 70.4812 98.2952C70.3967 98.6726 70.5304 99.0238 70.7798 99.0797C71.0293 99.1356 71.3001 98.875 71.3846 98.4976Z" fill="#F29111"/>
<path d="M70.994 100.216C71.0785 99.8389 70.9448 99.4876 70.6954 99.4318C70.4459 99.3759 70.1751 99.6365 70.0906 100.014C70.006 100.391 70.1397 100.743 70.3892 100.798C70.6387 100.854 70.9095 100.594 70.994 100.216Z" fill="#F29111"/>
<path d="M76.7362 90.7065C76.8207 90.3291 76.687 89.9779 76.4376 89.922C76.1881 89.8661 75.9173 90.1268 75.8328 90.5042C75.7482 90.8816 75.8819 91.2328 76.1314 91.2887C76.3809 91.3446 76.6516 91.0839 76.7362 90.7065Z" fill="#F29111"/>
<path d="M76.3456 92.4155C76.4301 92.0381 76.2964 91.6869 76.0469 91.631C75.7975 91.5751 75.5267 91.8357 75.4421 92.2131C75.3576 92.5905 75.4913 92.9418 75.7408 92.9977C75.9902 93.0536 76.261 92.7929 76.3456 92.4155Z" fill="#F29111"/>
<path d="M75.9627 94.1245C76.0473 93.7471 75.9136 93.3959 75.6641 93.34C75.4147 93.2841 75.1439 93.5447 75.0593 93.9221C74.9748 94.2995 75.1085 94.6508 75.358 94.7067C75.6074 94.7625 75.8782 94.5019 75.9627 94.1245Z" fill="#F29111"/>
<path d="M75.5799 95.8472C75.6645 95.4698 75.5308 95.1185 75.2813 95.0626C75.0318 95.0067 74.7611 95.2674 74.6765 95.6448C74.592 96.0222 74.7257 96.3734 74.9751 96.4293C75.2246 96.4852 75.4954 96.2246 75.5799 95.8472Z" fill="#F29111"/>
<path d="M75.1971 97.5561C75.2817 97.1787 75.148 96.8275 74.8985 96.7716C74.649 96.7157 74.3783 96.9764 74.2937 97.3538C74.2092 97.7312 74.3429 98.0824 74.5923 98.1383C74.8418 98.1942 75.1126 97.9335 75.1971 97.5561Z" fill="#F29111"/>
<path d="M74.8221 99.2671C74.9067 98.8897 74.773 98.5384 74.5235 98.4825C74.274 98.4267 74.0033 98.6873 73.9187 99.0647C73.8342 99.4421 73.9679 99.7934 74.2173 99.8492C74.4668 99.9051 74.7376 99.6445 74.8221 99.2671Z" fill="#F29111"/>
<path d="M74.4315 100.988C74.516 100.61 74.3823 100.259 74.1329 100.203C73.8834 100.147 73.6126 100.408 73.5281 100.785C73.4435 101.163 73.5772 101.514 73.8267 101.57C74.0762 101.626 74.347 101.365 74.4315 100.988Z" fill="#F29111"/>
<path d="M80.1581 91.4644C80.2426 91.0869 80.1089 90.7357 79.8594 90.6798C79.61 90.6239 79.3392 90.8846 79.2546 91.262C79.1701 91.6394 79.3038 91.9906 79.5533 92.0465C79.8027 92.1024 80.0735 91.8418 80.1581 91.4644Z" fill="#F29111"/>
<path d="M79.7831 93.187C79.8676 92.8096 79.7339 92.4583 79.4844 92.4025C79.235 92.3466 78.9642 92.6072 78.8796 92.9846C78.7951 93.362 78.9288 93.7133 79.1783 93.7692C79.4277 93.825 79.6985 93.5644 79.7831 93.187Z" fill="#F29111"/>
<path d="M79.3924 94.896C79.477 94.5186 79.3433 94.1673 79.0938 94.1114C78.8443 94.0556 78.5736 94.3162 78.489 94.6936C78.4045 95.071 78.5382 95.4223 78.7876 95.4781C79.0371 95.534 79.3079 95.2734 79.3924 94.896Z" fill="#F29111"/>
<path d="M79.0174 96.6186C79.102 96.2412 78.9683 95.89 78.7188 95.8341C78.4693 95.7782 78.1986 96.0389 78.114 96.4163C78.0295 96.7937 78.1632 97.1449 78.4126 97.2008C78.6621 97.2567 78.9329 96.996 79.0174 96.6186Z" fill="#F29111"/>
<path d="M78.6268 98.3257C78.7114 97.9483 78.5777 97.597 78.3282 97.5411C78.0787 97.4852 77.8079 97.7459 77.7234 98.1233C77.6388 98.5007 77.7725 98.8519 78.022 98.9078C78.2715 98.9637 78.5423 98.7031 78.6268 98.3257Z" fill="#F29111"/>
<path d="M78.244 100.035C78.3285 99.6573 78.1948 99.306 77.9454 99.2501C77.6959 99.1942 77.4251 99.4549 77.3406 99.8323C77.256 100.21 77.3897 100.561 77.6392 100.617C77.8887 100.673 78.1595 100.412 78.244 100.035Z" fill="#F29111"/>
<path d="M77.8612 101.757C77.9457 101.38 77.812 101.029 77.5626 100.973C77.3131 100.917 77.0423 101.178 76.9578 101.555C76.8732 101.932 77.0069 102.284 77.2564 102.339C77.5059 102.395 77.7766 102.135 77.8612 101.757Z" fill="#F29111"/>
<path d="M71.3924 87.7065C71.477 87.3291 71.3433 86.9779 71.0938 86.922C70.8443 86.8661 70.5736 87.1267 70.489 87.5041C70.4045 87.8816 70.5382 88.2328 70.7876 88.2887C71.0371 88.3446 71.3079 88.0839 71.3924 87.7065Z" fill="#F29111"/>
<path d="M74.8299 88.4761C74.9145 88.0987 74.7808 87.7474 74.5313 87.6915C74.2818 87.6356 74.0111 87.8963 73.9265 88.2737C73.842 88.6511 73.9757 89.0023 74.2251 89.0582C74.4746 89.1141 74.7454 88.8535 74.8299 88.4761Z" fill="#F29111"/>
<path d="M78.2596 89.2456C78.3442 88.8682 78.2105 88.5169 77.961 88.4611C77.7115 88.4052 77.4408 88.6658 77.3562 89.0432C77.2717 89.4206 77.4054 89.7719 77.6548 89.8278C77.9043 89.8836 78.1751 89.623 78.2596 89.2456Z" fill="#F29111"/>
<path d="M72.5409 87.9682C72.6254 87.5908 72.4917 87.2396 72.2422 87.1837C71.9928 87.1278 71.722 87.3885 71.6375 87.7659C71.5529 88.1433 71.6866 88.4945 71.9361 88.5504C72.1855 88.6063 72.4563 88.3457 72.5409 87.9682Z" fill="#F29111"/>
<path d="M75.9784 88.7378C76.0629 88.3604 75.9292 88.0091 75.6797 87.9532C75.4303 87.8974 75.1595 88.158 75.075 88.5354C74.9904 88.9128 75.1241 89.2641 75.3736 89.3199C75.623 89.3758 75.8938 89.1152 75.9784 88.7378Z" fill="#F29111"/>
<path d="M79.4159 89.4956C79.5004 89.1182 79.3667 88.7669 79.1172 88.7111C78.8678 88.6552 78.597 88.9158 78.5125 89.2932C78.4279 89.6706 78.5616 90.0219 78.8111 90.0778C79.0605 90.1336 79.3313 89.873 79.4159 89.4956Z" fill="#F29111"/>
<path d="M73.6893 88.2163C73.7739 87.8389 73.6402 87.4876 73.3907 87.4318C73.1412 87.3759 72.8704 87.6365 72.7859 88.0139C72.7014 88.3913 72.8351 88.7426 73.0845 88.7985C73.334 88.8543 73.6048 88.5937 73.6893 88.2163Z" fill="#F29111"/>
<path d="M77.119 88.9839C77.2035 88.6065 77.0698 88.2552 76.8204 88.1993C76.5709 88.1435 76.3001 88.4041 76.2156 88.7815C76.131 89.1589 76.2647 89.5101 76.5142 89.566C76.7637 89.6219 77.0344 89.3613 77.119 88.9839Z" fill="#F29111"/>
<path d="M80.5487 89.7554C80.6332 89.378 80.4995 89.0267 80.2501 88.9708C80.0006 88.9149 79.7298 89.1756 79.6453 89.553C79.5607 89.9304 79.6944 90.2816 79.9439 90.3375C80.1934 90.3934 80.4641 90.1328 80.5487 89.7554Z" fill="#F29111"/>
<path d="M71.7518 102.187C71.8364 101.81 71.7027 101.458 71.4532 101.402C71.2037 101.347 70.9329 101.607 70.8484 101.985C70.7639 102.362 70.8975 102.713 71.147 102.769C71.3965 102.825 71.6673 102.564 71.7518 102.187Z" fill="#F29111"/>
<path d="M71.3768 103.898C71.4614 103.521 71.3277 103.169 71.0782 103.113C70.8287 103.058 70.5579 103.318 70.4734 103.696C70.3889 104.073 70.5226 104.424 70.772 104.48C71.0215 104.536 71.2923 104.275 71.3768 103.898Z" fill="#F29111"/>
<path d="M75.1893 102.958C75.2739 102.581 75.1402 102.23 74.8907 102.174C74.6412 102.118 74.3704 102.379 74.2859 102.756C74.2013 103.134 74.3351 103.485 74.5845 103.541C74.834 103.597 75.1048 103.336 75.1893 102.958Z" fill="#F29111"/>
<path d="M74.8065 104.666C74.891 104.288 74.7573 103.937 74.5079 103.881C74.2584 103.825 73.9876 104.086 73.9031 104.463C73.8185 104.841 73.9522 105.192 74.2017 105.248C74.4512 105.304 74.722 105.043 74.8065 104.666Z" fill="#F29111"/>
<path d="M78.6268 103.728C78.7114 103.351 78.5777 102.999 78.3282 102.943C78.0787 102.888 77.8079 103.148 77.7234 103.526C77.6389 103.903 77.7726 104.254 78.022 104.31C78.2715 104.366 78.5423 104.105 78.6268 103.728Z" fill="#F29111"/>
<path d="M78.2362 105.435C78.3207 105.058 78.187 104.706 77.9376 104.651C77.6881 104.595 77.4173 104.855 77.3328 105.233C77.2482 105.61 77.3819 105.961 77.6314 106.017C77.8809 106.073 78.1516 105.812 78.2362 105.435Z" fill="#F29111"/>
<path d="M69.4706 101.667C69.5551 101.29 69.4214 100.939 69.1719 100.883C68.9225 100.827 68.6517 101.088 68.5671 101.465C68.4826 101.842 68.6163 102.194 68.8658 102.25C69.1152 102.306 69.386 102.045 69.4706 101.667Z" fill="#F29111"/>
<path d="M69.0799 103.386C69.1645 103.009 69.0308 102.658 68.7813 102.602C68.5318 102.546 68.2611 102.806 68.1765 103.184C68.092 103.561 68.2257 103.912 68.4751 103.968C68.7246 104.024 68.9954 103.764 69.0799 103.386Z" fill="#F29111"/>
<path d="M72.908 102.437C72.9926 102.06 72.8589 101.708 72.6094 101.652C72.36 101.597 72.0892 101.857 72.0046 102.235C71.9201 102.612 72.0538 102.963 72.3033 103.019C72.5527 103.075 72.8235 102.814 72.908 102.437Z" fill="#F29111"/>
<path d="M72.5174 104.158C72.602 103.78 72.4683 103.429 72.2188 103.373C71.9693 103.317 71.6986 103.578 71.614 103.955C71.5295 104.333 71.6632 104.684 71.9126 104.74C72.1621 104.796 72.4329 104.535 72.5174 104.158Z" fill="#F29111"/>
<path d="M76.3377 103.207C76.4223 102.829 76.2886 102.478 76.0391 102.422C75.7897 102.366 75.5189 102.627 75.4343 103.004C75.3498 103.382 75.4835 103.733 75.733 103.789C75.9824 103.845 76.2532 103.584 76.3377 103.207Z" fill="#F29111"/>
<path d="M75.9471 104.927C76.0317 104.55 75.898 104.199 75.6485 104.143C75.399 104.087 75.1283 104.347 75.0437 104.725C74.9592 105.102 75.0928 105.454 75.3423 105.509C75.5918 105.565 75.8626 105.305 75.9471 104.927Z" fill="#F29111"/>
<path d="M70.619 101.929C70.7035 101.552 70.5698 101.201 70.3204 101.145C70.0709 101.089 69.8001 101.349 69.7156 101.727C69.631 102.104 69.7647 102.455 70.0142 102.511C70.2637 102.567 70.5345 102.307 70.619 101.929Z" fill="#F29111"/>
<path d="M70.2362 103.636C70.3207 103.259 70.187 102.908 69.9376 102.852C69.6881 102.796 69.4173 103.056 69.3328 103.434C69.2482 103.811 69.3819 104.162 69.6314 104.218C69.8809 104.274 70.1516 104.014 70.2362 103.636Z" fill="#F29111"/>
<path d="M74.0409 102.697C74.1254 102.319 73.9917 101.968 73.7423 101.912C73.4928 101.856 73.222 102.117 73.1375 102.494C73.0529 102.872 73.1866 103.223 73.4361 103.279C73.6856 103.335 73.9563 103.074 74.0409 102.697Z" fill="#F29111"/>
<path d="M73.6659 104.408C73.7504 104.03 73.6167 103.679 73.3673 103.623C73.1178 103.567 72.847 103.828 72.7625 104.205C72.6779 104.583 72.8116 104.934 73.0611 104.99C73.3106 105.046 73.5813 104.785 73.6659 104.408Z" fill="#F29111"/>
<path d="M77.4784 103.466C77.5629 103.089 77.4292 102.738 77.1798 102.682C76.9303 102.626 76.6595 102.887 76.575 103.264C76.4904 103.641 76.6241 103.993 76.8736 104.048C77.1231 104.104 77.3938 103.844 77.4784 103.466Z" fill="#F29111"/>
<path d="M77.1034 105.177C77.1879 104.8 77.0542 104.449 76.8048 104.393C76.5553 104.337 76.2845 104.597 76.2 104.975C76.1154 105.352 76.2491 105.704 76.4986 105.759C76.7481 105.815 77.0188 105.555 77.1034 105.177Z" fill="#F29111"/>
</g>
<mask id="mask1_1993_2148" style="mask-type:luminance" maskUnits="userSpaceOnUse" x="87" y="92" width="12" height="17">
<path d="M98.6581 101.857C99.6755 97.3158 98.0423 93.0835 95.0103 92.4042C91.9783 91.725 88.6956 94.8561 87.6781 99.3977C86.6607 103.939 88.2939 108.172 91.3259 108.851C94.3579 109.53 97.6406 106.399 98.6581 101.857Z" fill="white"/>
</mask>
<g mask="url(#mask1_1993_2148)">
<path d="M89.7987 93.6265C89.8832 93.2491 89.7495 92.8978 89.5001 92.8419C89.2506 92.786 88.9798 93.0467 88.8953 93.4241C88.8107 93.8015 88.9444 94.1527 89.1939 94.2086C89.4434 94.2645 89.7141 94.0039 89.7987 93.6265Z" fill="#F29111"/>
<path d="M89.4237 95.3491C89.5082 94.9717 89.3745 94.6205 89.1251 94.5646C88.8756 94.5087 88.6048 94.7693 88.5203 95.1467C88.4357 95.5241 88.5694 95.8754 88.8189 95.9313C89.0684 95.9872 89.3391 95.7265 89.4237 95.3491Z" fill="#F29111"/>
<path d="M89.0331 97.0561C89.1176 96.6787 88.9839 96.3275 88.7344 96.2716C88.485 96.2157 88.2142 96.4764 88.1296 96.8538C88.0451 97.2312 88.1788 97.5824 88.4283 97.6383C88.6777 97.6942 88.9485 97.4335 89.0331 97.0561Z" fill="#F29111"/>
<path d="M88.6581 98.769C88.7426 98.3916 88.6089 98.0404 88.3594 97.9845C88.11 97.9286 87.8392 98.1893 87.7546 98.5667C87.6701 98.9441 87.8038 99.2953 88.0533 99.3512C88.3027 99.4071 88.5735 99.1464 88.6581 98.769Z" fill="#F29111"/>
<path d="M88.2674 100.488C88.352 100.11 88.2183 99.7591 87.9688 99.7032C87.7193 99.6473 87.4486 99.908 87.364 100.285C87.2795 100.663 87.4132 101.014 87.6626 101.07C87.9121 101.126 88.1829 100.865 88.2674 100.488Z" fill="#F29111"/>
<path d="M87.8846 102.197C87.9692 101.819 87.8355 101.468 87.586 101.412C87.3365 101.356 87.0658 101.617 86.9812 101.994C86.8967 102.372 87.0304 102.723 87.2798 102.779C87.5293 102.835 87.8001 102.574 87.8846 102.197Z" fill="#F29111"/>
<path d="M87.5018 103.919C87.5863 103.542 87.4526 103.191 87.2032 103.135C86.9537 103.079 86.6829 103.34 86.5984 103.717C86.5139 104.094 86.6475 104.446 86.897 104.502C87.1465 104.557 87.4173 104.297 87.5018 103.919Z" fill="#F29111"/>
<path d="M93.2362 94.396C93.3207 94.0186 93.187 93.6673 92.9376 93.6114C92.6881 93.5556 92.4173 93.8162 92.3328 94.1936C92.2482 94.571 92.3819 94.9223 92.6314 94.9781C92.8809 95.034 93.1516 94.7734 93.2362 94.396Z" fill="#F29111"/>
<path d="M92.8534 96.1186C92.9379 95.7412 92.8042 95.39 92.5548 95.3341C92.3053 95.2782 92.0345 95.5389 91.95 95.9163C91.8654 96.2937 91.9991 96.6449 92.2486 96.7008C92.4981 96.7567 92.7688 96.4961 92.8534 96.1186Z" fill="#F29111"/>
<path d="M92.4706 97.8276C92.5551 97.4502 92.4214 97.099 92.1719 97.0431C91.9225 96.9872 91.6517 97.2478 91.5671 97.6252C91.4826 98.0026 91.6163 98.3539 91.8658 98.4098C92.1152 98.4657 92.386 98.205 92.4706 97.8276Z" fill="#F29111"/>
<path d="M92.0799 99.5347C92.1645 99.1573 92.0308 98.806 91.7813 98.7501C91.5318 98.6942 91.2611 98.9549 91.1765 99.3323C91.092 99.7097 91.2257 100.061 91.4751 100.117C91.7246 100.173 91.9954 99.9121 92.0799 99.5347Z" fill="#F29111"/>
<path d="M91.7049 101.257C91.7895 100.88 91.6558 100.529 91.4063 100.473C91.1568 100.417 90.8861 100.678 90.8015 101.055C90.717 101.432 90.8507 101.784 91.1001 101.839C91.3496 101.895 91.6204 101.635 91.7049 101.257Z" fill="#F29111"/>
<path d="M91.3143 102.966C91.3988 102.589 91.2651 102.238 91.0157 102.182C90.7662 102.126 90.4954 102.387 90.4109 102.764C90.3264 103.141 90.46 103.493 90.7095 103.548C90.959 103.604 91.2298 103.344 91.3143 102.966Z" fill="#F29111"/>
<path d="M90.9393 104.677C91.0238 104.3 90.8901 103.949 90.6407 103.893C90.3912 103.837 90.1204 104.097 90.0359 104.475C89.9514 104.852 90.085 105.204 90.3345 105.259C90.584 105.315 90.8548 105.055 90.9393 104.677Z" fill="#F29111"/>
<path d="M96.6659 95.1655C96.7504 94.7881 96.6167 94.4369 96.3673 94.381C96.1178 94.3251 95.847 94.5857 95.7625 94.9631C95.6779 95.3405 95.8116 95.6918 96.0611 95.7477C96.3106 95.8036 96.5813 95.5429 96.6659 95.1655Z" fill="#F29111"/>
<path d="M96.2752 96.8862C96.3598 96.5088 96.2261 96.1576 95.9766 96.1017C95.7272 96.0458 95.4564 96.3064 95.3718 96.6838C95.2873 97.0612 95.421 97.4125 95.6705 97.4684C95.9199 97.5243 96.1907 97.2636 96.2752 96.8862Z" fill="#F29111"/>
<path d="M95.9002 98.5972C95.9848 98.2198 95.8511 97.8685 95.6016 97.8126C95.3522 97.7567 95.0814 98.0174 94.9968 98.3948C94.9123 98.7722 95.046 99.1234 95.2955 99.1793C95.5449 99.2352 95.8157 98.9746 95.9002 98.5972Z" fill="#F29111"/>
<path d="M95.5174 100.306C95.602 99.9287 95.4683 99.5775 95.2188 99.5216C94.9693 99.4657 94.6986 99.7264 94.614 100.104C94.5295 100.481 94.6632 100.832 94.9126 100.888C95.1621 100.944 95.4329 100.684 95.5174 100.306Z" fill="#F29111"/>
<path d="M95.1346 102.029C95.2192 101.651 95.0855 101.3 94.836 101.244C94.5865 101.188 94.3158 101.449 94.2312 101.826C94.1467 102.204 94.2804 102.555 94.5298 102.611C94.7793 102.667 95.0501 102.406 95.1346 102.029Z" fill="#F29111"/>
<path d="M94.7518 103.738C94.8363 103.36 94.7026 103.009 94.4532 102.953C94.2037 102.897 93.9329 103.158 93.8484 103.535C93.7638 103.913 93.8975 104.264 94.147 104.32C94.3965 104.376 94.6673 104.115 94.7518 103.738Z" fill="#F29111"/>
<path d="M94.3612 105.447C94.4457 105.069 94.312 104.718 94.0626 104.662C93.8131 104.606 93.5423 104.867 93.4578 105.244C93.3732 105.622 93.5069 105.973 93.7564 106.029C94.0059 106.085 94.2766 105.824 94.3612 105.447Z" fill="#F29111"/>
<path d="M99.7127 97.6557C99.7973 97.2783 99.6636 96.9271 99.4141 96.8712C99.1647 96.8153 98.8939 97.076 98.8093 97.4534C98.7248 97.8308 98.8585 98.182 99.108 98.2379C99.3574 98.2938 99.6282 98.0332 99.7127 97.6557Z" fill="#F29111"/>
<path d="M99.3377 99.3667C99.4223 98.9893 99.2886 98.638 99.0391 98.5822C98.7897 98.5263 98.5189 98.7869 98.4343 99.1643C98.3498 99.5417 98.4835 99.893 98.733 99.9488C98.9824 100.005 99.2532 99.7441 99.3377 99.3667Z" fill="#F29111"/>
<path d="M98.9471 101.076C99.0317 100.698 98.898 100.347 98.6485 100.291C98.399 100.235 98.1283 100.496 98.0437 100.873C97.9592 101.251 98.0929 101.602 98.3423 101.658C98.5918 101.714 98.8626 101.453 98.9471 101.076Z" fill="#F29111"/>
<path d="M98.5565 102.796C98.641 102.419 98.5073 102.068 98.2579 102.012C98.0084 101.956 97.7376 102.217 97.6531 102.594C97.5685 102.971 97.7022 103.323 97.9517 103.379C98.2012 103.434 98.4719 103.174 98.5565 102.796Z" fill="#F29111"/>
<path d="M98.1815 104.507C98.266 104.13 98.1323 103.779 97.8829 103.723C97.6334 103.667 97.3626 103.928 97.2781 104.305C97.1935 104.682 97.3272 105.034 97.5767 105.089C97.8262 105.145 98.0969 104.885 98.1815 104.507Z" fill="#F29111"/>
<path d="M97.7909 106.216C97.8754 105.839 97.7417 105.488 97.4923 105.432C97.2428 105.376 96.972 105.637 96.8875 106.014C96.8029 106.391 96.9366 106.743 97.1861 106.798C97.4356 106.854 97.7063 106.594 97.7909 106.216Z" fill="#F29111"/>
<path d="M90.9471 93.8862C91.0317 93.5088 90.898 93.1576 90.6485 93.1017C90.399 93.0458 90.1283 93.3064 90.0437 93.6838C89.9592 94.0612 90.0929 94.4125 90.3423 94.4684C90.5918 94.5243 90.8626 94.2636 90.9471 93.8862Z" fill="#F29111"/>
<path d="M90.5643 95.5952C90.6489 95.2178 90.5152 94.8666 90.2657 94.8107C90.0162 94.7548 89.7454 95.0154 89.6609 95.3928C89.5764 95.7702 89.71 96.1215 89.9595 96.1774C90.209 96.2332 90.4798 95.9726 90.5643 95.5952Z" fill="#F29111"/>
<path d="M90.1815 97.3179C90.266 96.9405 90.1323 96.5892 89.8829 96.5333C89.6334 96.4774 89.3626 96.7381 89.2781 97.1155C89.1935 97.4929 89.3272 97.8441 89.5767 97.9C89.8262 97.9559 90.0969 97.6953 90.1815 97.3179Z" fill="#F29111"/>
<path d="M89.7987 99.0268C89.8832 98.6494 89.7495 98.2982 89.5001 98.2423C89.2506 98.1864 88.9798 98.4471 88.8953 98.8245C88.8107 99.2019 88.9444 99.5531 89.1939 99.609C89.4434 99.6649 89.7141 99.4042 89.7987 99.0268Z" fill="#F29111"/>
<path d="M89.4159 100.738C89.5004 100.36 89.3667 100.009 89.1173 99.9532C88.8678 99.8974 88.597 100.158 88.5125 100.535C88.4279 100.913 88.5616 101.264 88.8111 101.32C89.0606 101.376 89.3313 101.115 89.4159 100.738Z" fill="#F29111"/>
<path d="M89.0253 102.458C89.1098 102.081 88.9761 101.73 88.7266 101.674C88.4772 101.618 88.2064 101.879 88.1218 102.256C88.0373 102.634 88.171 102.985 88.4205 103.041C88.6699 103.097 88.9407 102.836 89.0253 102.458Z" fill="#F29111"/>
<path d="M88.6424 104.167C88.727 103.79 88.5933 103.439 88.3438 103.383C88.0943 103.327 87.8236 103.588 87.739 103.965C87.6545 104.342 87.7882 104.694 88.0376 104.75C88.2871 104.806 88.5579 104.545 88.6424 104.167Z" fill="#F29111"/>
<path d="M94.3846 94.6577C94.4692 94.2803 94.3355 93.929 94.086 93.8732C93.8365 93.8173 93.5658 94.0779 93.4812 94.4553C93.3967 94.8327 93.5304 95.184 93.7798 95.2399C94.0293 95.2958 94.3001 95.0351 94.3846 94.6577Z" fill="#F29111"/>
<path d="M93.994 96.3647C94.0785 95.9873 93.9448 95.6361 93.6954 95.5802C93.4459 95.5243 93.1751 95.785 93.0906 96.1624C93.006 96.5398 93.1397 96.891 93.3892 96.9469C93.6387 97.0028 93.9094 96.7421 93.994 96.3647Z" fill="#F29111"/>
<path d="M93.619 98.0893C93.7035 97.7119 93.5698 97.3607 93.3204 97.3048C93.0709 97.2489 92.8001 97.5096 92.7156 97.887C92.631 98.2644 92.7647 98.6156 93.0142 98.6715C93.2637 98.7274 93.5344 98.4667 93.619 98.0893Z" fill="#F29111"/>
<path d="M93.2284 99.7964C93.3129 99.419 93.1792 99.0677 92.9298 99.0118C92.6803 98.956 92.4095 99.2166 92.325 99.594C92.2404 99.9714 92.3741 100.323 92.6236 100.379C92.8731 100.434 93.1438 100.174 93.2284 99.7964Z" fill="#F29111"/>
<path d="M92.8378 101.505C92.9223 101.128 92.7886 100.777 92.5391 100.721C92.2897 100.665 92.0189 100.926 91.9343 101.303C91.8498 101.68 91.9835 102.032 92.233 102.088C92.4824 102.143 92.7532 101.883 92.8378 101.505Z" fill="#F29111"/>
<path d="M92.4628 103.228C92.5473 102.851 92.4136 102.499 92.1641 102.443C91.9147 102.388 91.6439 102.648 91.5593 103.026C91.4748 103.403 91.6085 103.754 91.858 103.81C92.1074 103.866 92.3782 103.605 92.4628 103.228Z" fill="#F29111"/>
<path d="M92.0721 104.937C92.1567 104.56 92.023 104.208 91.7735 104.152C91.524 104.097 91.2533 104.357 91.1687 104.735C91.0842 105.112 91.2179 105.463 91.4673 105.519C91.7168 105.575 91.9876 105.314 92.0721 104.937Z" fill="#F29111"/>
<path d="M97.8143 95.4272C97.8989 95.0498 97.7652 94.6986 97.5157 94.6427C97.2662 94.5868 96.9954 94.8474 96.9109 95.2249C96.8264 95.6023 96.9601 95.9535 97.2095 96.0094C97.459 96.0653 97.7298 95.8046 97.8143 95.4272Z" fill="#F29111"/>
<path d="M97.4237 97.1362C97.5082 96.7588 97.3745 96.4076 97.1251 96.3517C96.8756 96.2958 96.6048 96.5564 96.5203 96.9338C96.4357 97.3113 96.5694 97.6625 96.8189 97.7184C97.0684 97.7743 97.3391 97.5136 97.4237 97.1362Z" fill="#F29111"/>
<path d="M97.0409 98.8569C97.1254 98.4795 96.9917 98.1283 96.7423 98.0724C96.4928 98.0165 96.222 98.2771 96.1375 98.6545C96.0529 99.0319 96.1866 99.3832 96.4361 99.4391C96.6856 99.495 96.9563 99.2343 97.0409 98.8569Z" fill="#F29111"/>
<path d="M96.6581 100.568C96.7426 100.19 96.6089 99.8392 96.3594 99.7833C96.11 99.7274 95.8392 99.9881 95.7546 100.365C95.6701 100.743 95.8038 101.094 96.0533 101.15C96.3027 101.206 96.5735 100.945 96.6581 100.568Z" fill="#F29111"/>
<path d="M96.2753 102.275C96.3598 101.897 96.2261 101.546 95.9766 101.49C95.7272 101.434 95.4564 101.695 95.3718 102.073C95.2873 102.45 95.421 102.801 95.6705 102.857C95.9199 102.913 96.1907 102.652 96.2753 102.275Z" fill="#F29111"/>
<path d="M95.8846 103.996C95.9692 103.618 95.8355 103.267 95.586 103.211C95.3365 103.155 95.0658 103.416 94.9812 103.793C94.8967 104.171 95.0304 104.522 95.2798 104.578C95.5293 104.634 95.8001 104.373 95.8846 103.996Z" fill="#F29111"/>
<path d="M95.5096 105.707C95.5942 105.329 95.4605 104.978 95.211 104.922C94.9615 104.866 94.6908 105.127 94.6062 105.504C94.5217 105.882 94.6554 106.233 94.9048 106.289C95.1543 106.345 95.4251 106.084 95.5096 105.707Z" fill="#F29111"/>
<path d="M92.0956 94.1479C92.1801 93.7705 92.0464 93.4193 91.7969 93.3634C91.5475 93.3075 91.2767 93.5682 91.1921 93.9456C91.1076 94.323 91.2413 94.6742 91.4908 94.7301C91.7402 94.786 92.011 94.5253 92.0956 94.1479Z" fill="#F29111"/>
<path d="M91.7049 95.8569C91.7895 95.4795 91.6558 95.1283 91.4063 95.0724C91.1568 95.0165 90.8861 95.2771 90.8015 95.6545C90.717 96.0319 90.8507 96.3832 91.1001 96.4391C91.3496 96.495 91.6204 96.2343 91.7049 95.8569Z" fill="#F29111"/>
<path d="M91.3221 97.5659C91.4067 97.1885 91.273 96.8373 91.0235 96.7814C90.774 96.7255 90.5033 96.9861 90.4187 97.3635C90.3342 97.7409 90.4679 98.0922 90.7173 98.1481C90.9668 98.204 91.2376 97.9433 91.3221 97.5659Z" fill="#F29111"/>
<path d="M90.9393 99.2886C91.0239 98.9112 90.8902 98.5599 90.6407 98.504C90.3912 98.4481 90.1204 98.7088 90.0359 99.0862C89.9514 99.4636 90.0851 99.8148 90.3345 99.8707C90.584 99.9266 90.8548 99.666 90.9393 99.2886Z" fill="#F29111"/>
<path d="M90.5565 100.996C90.641 100.618 90.5073 100.267 90.2579 100.211C90.0084 100.155 89.7376 100.416 89.6531 100.793C89.5685 101.171 89.7022 101.522 89.9517 101.578C90.2012 101.634 90.4719 101.373 90.5565 100.996Z" fill="#F29111"/>
<path d="M90.1815 102.708C90.266 102.331 90.1323 101.98 89.8829 101.924C89.6334 101.868 89.3626 102.129 89.2781 102.506C89.1935 102.884 89.3272 103.235 89.5767 103.291C89.8262 103.347 90.097 103.086 90.1815 102.708Z" fill="#F29111"/>
<path d="M89.7909 104.427C89.8754 104.05 89.7417 103.699 89.4923 103.643C89.2428 103.587 88.972 103.847 88.8875 104.225C88.8029 104.602 88.9366 104.954 89.1861 105.009C89.4356 105.065 89.7063 104.805 89.7909 104.427Z" fill="#F29111"/>
<path d="M95.5174 94.9155C95.602 94.5381 95.4683 94.1869 95.2188 94.131C94.9693 94.0751 94.6986 94.3357 94.614 94.7131C94.5295 95.0905 94.6632 95.4418 94.9126 95.4977C95.1621 95.5536 95.4329 95.2929 95.5174 94.9155Z" fill="#F29111"/>
<path d="M95.1424 96.6265C95.227 96.249 95.0933 95.8978 94.8438 95.8419C94.5943 95.786 94.3236 96.0467 94.239 96.4241C94.1545 96.8015 94.2882 97.1527 94.5376 97.2086C94.7871 97.2645 95.0579 97.0039 95.1424 96.6265Z" fill="#F29111"/>
<path d="M94.7518 98.3354C94.8364 97.958 94.7027 97.6068 94.4532 97.5509C94.2037 97.495 93.9329 97.7557 93.8484 98.1331C93.7639 98.5105 93.8976 98.8617 94.147 98.9176C94.3965 98.9735 94.6673 98.7128 94.7518 98.3354Z" fill="#F29111"/>
<path d="M94.3768 100.058C94.4614 99.6807 94.3277 99.3294 94.0782 99.2736C93.8287 99.2177 93.5579 99.4783 93.4734 99.8557C93.3889 100.233 93.5226 100.584 93.772 100.64C94.0215 100.696 94.2923 100.435 94.3768 100.058Z" fill="#F29111"/>
<path d="M93.9862 101.767C94.0707 101.39 93.937 101.038 93.6876 100.983C93.4381 100.927 93.1673 101.187 93.0828 101.565C92.9982 101.942 93.1319 102.293 93.3814 102.349C93.6309 102.405 93.9016 102.144 93.9862 101.767Z" fill="#F29111"/>
<path d="M93.6034 103.476C93.6879 103.099 93.5542 102.747 93.3048 102.692C93.0553 102.636 92.7845 102.896 92.7 103.274C92.6154 103.651 92.7491 104.002 92.9986 104.058C93.2481 104.114 93.5188 103.853 93.6034 103.476Z" fill="#F29111"/>
<path d="M93.2206 105.199C93.3051 104.821 93.1714 104.47 92.9219 104.414C92.6725 104.358 92.4017 104.619 92.3171 104.996C92.2326 105.374 92.3663 105.725 92.6158 105.781C92.8652 105.837 93.136 105.576 93.2206 105.199Z" fill="#F29111"/>
<path d="M98.9549 95.687C99.0395 95.3096 98.9058 94.9583 98.6563 94.9025C98.4068 94.8466 98.1361 95.1072 98.0515 95.4846C97.967 95.862 98.1007 96.2133 98.3501 96.2692C98.5996 96.325 98.8704 96.0644 98.9549 95.687Z" fill="#F29111"/>
<path d="M98.5721 97.3979C98.6567 97.0205 98.523 96.6693 98.2735 96.6134C98.024 96.5575 97.7533 96.8182 97.6687 97.1956C97.5842 97.573 97.7179 97.9242 97.9673 97.9801C98.2168 98.036 98.4876 97.7753 98.5721 97.3979Z" fill="#F29111"/>
<path d="M98.1893 99.1069C98.2739 98.7295 98.1402 98.3783 97.8907 98.3224C97.6412 98.2665 97.3704 98.5271 97.2859 98.9045C97.2014 99.2819 97.3351 99.6332 97.5845 99.6891C97.834 99.745 98.1048 99.4843 98.1893 99.1069Z" fill="#F29111"/>
<path d="M97.7987 100.826C97.8832 100.448 97.7495 100.097 97.5001 100.041C97.2506 99.9853 96.9798 100.246 96.8953 100.623C96.8107 101.001 96.9444 101.352 97.1939 101.408C97.4434 101.464 97.7141 101.203 97.7987 100.826Z" fill="#F29111"/>
<path d="M97.4237 102.537C97.5082 102.159 97.3745 101.808 97.1251 101.752C96.8756 101.696 96.6048 101.957 96.5203 102.334C96.4357 102.712 96.5694 103.063 96.8189 103.119C97.0684 103.175 97.3391 102.914 97.4237 102.537Z" fill="#F29111"/>
<path d="M97.0331 104.246C97.1176 103.868 96.9839 103.517 96.7344 103.461C96.485 103.405 96.2142 103.666 96.1296 104.043C96.0451 104.421 96.1788 104.772 96.4283 104.828C96.6777 104.884 96.9485 104.623 97.0331 104.246Z" fill="#F29111"/>
<path d="M96.6424 105.966C96.727 105.589 96.5933 105.238 96.3438 105.182C96.0943 105.126 95.8236 105.387 95.739 105.764C95.6545 106.141 95.7882 106.493 96.0376 106.548C96.2871 106.604 96.5579 106.344 96.6424 105.966Z" fill="#F29111"/>
<path d="M90.1893 91.9175C90.2739 91.5401 90.1402 91.1888 89.8907 91.1329C89.6412 91.077 89.3704 91.3377 89.2859 91.7151C89.2014 92.0925 89.335 92.4437 89.5845 92.4996C89.834 92.5555 90.1048 92.2949 90.1893 91.9175Z" fill="#F29111"/>
<path d="M93.619 92.687C93.7035 92.3096 93.5698 91.9583 93.3204 91.9025C93.0709 91.8466 92.8001 92.1072 92.7156 92.4846C92.631 92.862 92.7647 93.2133 93.0142 93.2692C93.2637 93.325 93.5344 93.0644 93.619 92.687Z" fill="#F29111"/>
<path d="M97.0565 93.4565C97.141 93.0791 97.0073 92.7279 96.7579 92.672C96.5084 92.6161 96.2376 92.8767 96.1531 93.2541C96.0685 93.6316 96.2022 93.9828 96.4517 94.0387C96.7012 94.0946 96.9719 93.8339 97.0565 93.4565Z" fill="#F29111"/>
<path d="M91.3377 92.1792C91.4223 91.8018 91.2886 91.4505 91.0391 91.3946C90.7897 91.3388 90.5189 91.5994 90.4343 91.9768C90.3498 92.3542 90.4835 92.7055 90.733 92.7613C90.9824 92.8172 91.2532 92.5566 91.3377 92.1792Z" fill="#F29111"/>
<path d="M94.7596 92.9468C94.8442 92.5694 94.7105 92.2181 94.461 92.1622C94.2115 92.1063 93.9408 92.367 93.8562 92.7444C93.7717 93.1218 93.9054 93.473 94.1548 93.5289C94.4043 93.5848 94.6751 93.3242 94.7596 92.9468Z" fill="#F29111"/>
<path d="M98.1893 93.7163C98.2739 93.3389 98.1402 92.9876 97.8907 92.9318C97.6412 92.8759 97.3704 93.1365 97.2859 93.5139C97.2014 93.8913 97.3351 94.2426 97.5845 94.2985C97.834 94.3543 98.1048 94.0937 98.1893 93.7163Z" fill="#F29111"/>
<path d="M92.4706 92.4253C92.5551 92.0479 92.4214 91.6966 92.1719 91.6407C91.9225 91.5849 91.6517 91.8455 91.5671 92.2229C91.4826 92.6003 91.6163 92.9516 91.8658 93.0074C92.1152 93.0633 92.386 92.8027 92.4706 92.4253Z" fill="#F29111"/>
<path d="M95.9081 93.1948C95.9926 92.8174 95.8589 92.4662 95.6094 92.4103C95.36 92.3544 95.0892 92.615 95.0046 92.9924C94.9201 93.3698 95.0538 93.7211 95.3033 93.777C95.5527 93.8329 95.8235 93.5722 95.9081 93.1948Z" fill="#F29111"/>
<path d="M99.3377 93.9663C99.4223 93.5889 99.2886 93.2377 99.0391 93.1818C98.7897 93.1259 98.5189 93.3865 98.4343 93.7639C98.3498 94.1413 98.4835 94.4926 98.733 94.5485C98.9824 94.6043 99.2532 94.3437 99.3377 93.9663Z" fill="#F29111"/>
<path d="M90.5487 106.398C90.6332 106.021 90.4995 105.669 90.2501 105.613C90.0006 105.558 89.7298 105.818 89.6453 106.196C89.5607 106.573 89.6944 106.924 89.9439 106.98C90.1934 107.036 90.4641 106.775 90.5487 106.398Z" fill="#F29111"/>
<path d="M90.1581 108.107C90.2426 107.73 90.1089 107.378 89.8594 107.322C89.61 107.266 89.3392 107.527 89.2546 107.905C89.1701 108.282 89.3038 108.633 89.5533 108.689C89.8027 108.745 90.0735 108.484 90.1581 108.107Z" fill="#F29111"/>
<path d="M93.9862 107.169C94.0707 106.792 93.937 106.441 93.6876 106.385C93.4381 106.329 93.1673 106.59 93.0828 106.967C92.9982 107.344 93.1319 107.696 93.3814 107.752C93.6309 107.807 93.9016 107.547 93.9862 107.169Z" fill="#F29111"/>
<path d="M93.5956 108.876C93.6801 108.499 93.5464 108.148 93.2969 108.092C93.0475 108.036 92.7767 108.297 92.6921 108.674C92.6076 109.051 92.7413 109.403 92.9908 109.459C93.2402 109.515 93.511 109.254 93.5956 108.876Z" fill="#F29111"/>
<path d="M97.4003 107.935C97.4848 107.558 97.3511 107.206 97.1016 107.151C96.8522 107.095 96.5814 107.355 96.4968 107.733C96.4123 108.11 96.546 108.461 96.7955 108.517C97.0449 108.573 97.3157 108.312 97.4003 107.935Z" fill="#F29111"/>
<path d="M97.0253 109.646C97.1098 109.269 96.9761 108.917 96.7266 108.861C96.4772 108.806 96.2064 109.066 96.1218 109.444C96.0373 109.821 96.171 110.172 96.4205 110.228C96.6699 110.284 96.9407 110.023 97.0253 109.646Z" fill="#F29111"/>
<path d="M88.2596 105.89C88.3442 105.513 88.2105 105.161 87.961 105.106C87.7115 105.05 87.4408 105.31 87.3562 105.688C87.2717 106.065 87.4054 106.416 87.6548 106.472C87.9043 106.528 88.1751 106.268 88.2596 105.89Z" fill="#F29111"/>
<path d="M87.8768 107.597C87.9613 107.22 87.8276 106.869 87.5782 106.813C87.3287 106.757 87.0579 107.017 86.9734 107.395C86.8889 107.772 87.0225 108.123 87.272 108.179C87.5215 108.235 87.7923 107.975 87.8768 107.597Z" fill="#F29111"/>
<path d="M91.6893 106.646C91.7738 106.269 91.6401 105.917 91.3907 105.861C91.1412 105.806 90.8704 106.066 90.7859 106.444C90.7014 106.821 90.835 107.172 91.0845 107.228C91.334 107.284 91.6048 107.023 91.6893 106.646Z" fill="#F29111"/>
<path d="M91.3065 108.369C91.391 107.991 91.2573 107.64 91.0079 107.584C90.7584 107.528 90.4876 107.789 90.4031 108.166C90.3185 108.544 90.4522 108.895 90.7017 108.951C90.9512 109.007 91.2219 108.746 91.3065 108.369Z" fill="#F29111"/>
<path d="M95.119 107.416C95.2035 107.038 95.0698 106.687 94.8204 106.631C94.5709 106.575 94.3001 106.836 94.2156 107.213C94.131 107.591 94.2647 107.942 94.5142 107.998C94.7637 108.054 95.0344 107.793 95.119 107.416Z" fill="#F29111"/>
<path d="M94.744 109.138C94.8285 108.761 94.6948 108.41 94.4454 108.354C94.1959 108.298 93.9251 108.558 93.8406 108.936C93.756 109.313 93.8897 109.664 94.1392 109.72C94.3887 109.776 94.6594 109.516 94.744 109.138Z" fill="#F29111"/>
<path d="M89.4003 106.136C89.4848 105.759 89.3511 105.408 89.1016 105.352C88.8522 105.296 88.5814 105.556 88.4968 105.934C88.4123 106.311 88.546 106.662 88.7955 106.718C89.0449 106.774 89.3157 106.514 89.4003 106.136Z" fill="#F29111"/>
<path d="M89.0253 107.859C89.1098 107.481 88.9761 107.13 88.7266 107.074C88.4772 107.018 88.2064 107.279 88.1218 107.656C88.0373 108.034 88.171 108.385 88.4205 108.441C88.6699 108.497 88.9407 108.236 89.0253 107.859Z" fill="#F29111"/>
<path d="M92.8378 106.908C92.9223 106.53 92.7886 106.179 92.5391 106.123C92.2897 106.067 92.0189 106.328 91.9343 106.705C91.8498 107.083 91.9835 107.434 92.233 107.49C92.4824 107.546 92.7532 107.285 92.8378 106.908Z" fill="#F29111"/>
<path d="M92.4471 108.615C92.5317 108.237 92.398 107.886 92.1485 107.83C91.899 107.774 91.6283 108.035 91.5437 108.412C91.4592 108.79 91.5929 109.141 91.8423 109.197C92.0918 109.253 92.3626 108.992 92.4471 108.615Z" fill="#F29111"/>
<path d="M96.2674 107.677C96.352 107.3 96.2183 106.949 95.9688 106.893C95.7193 106.837 95.4486 107.097 95.364 107.475C95.2795 107.852 95.4132 108.204 95.6626 108.259C95.9121 108.315 96.1829 108.055 96.2674 107.677Z" fill="#F29111"/>
<path d="M95.8846 109.386C95.9692 109.009 95.8355 108.658 95.586 108.602C95.3365 108.546 95.0658 108.806 94.9812 109.184C94.8967 109.561 95.0304 109.912 95.2798 109.968C95.5293 110.024 95.8001 109.764 95.8846 109.386Z" fill="#F29111"/>
</g>
<path d="M109.096 171.75C113.292 171.75 116.693 168.348 116.693 164.153C116.693 159.958 113.292 156.557 109.096 156.557C104.901 156.557 101.5 159.958 101.5 164.153C101.5 168.348 104.901 171.75 109.096 171.75Z" fill="#D9D9D9" fill-opacity="0.5"/>
<path d="M103.22 173.411C105.482 173.411 107.315 171.577 107.315 169.316C107.315 167.054 105.482 165.221 103.22 165.221C100.958 165.221 99.125 167.054 99.125 169.316C99.125 171.577 100.958 173.411 103.22 173.411Z" fill="#D9D9D9" fill-opacity="0.5"/>
<path d="M102.866 168.069C104.668 168.069 106.13 166.608 106.13 164.805C106.13 163.002 104.668 161.541 102.866 161.541C101.063 161.541 99.6016 163.002 99.6016 164.805C99.6016 166.608 101.063 168.069 102.866 168.069Z" fill="#D9D9D9" fill-opacity="0.5"/>
<path d="M114.909 167.121C119.104 167.121 122.505 163.72 122.505 159.524C122.505 155.329 119.104 151.928 114.909 151.928C110.714 151.928 107.312 155.329 107.312 159.524C107.312 163.72 110.714 167.121 114.909 167.121Z" fill="#D9D9D9" fill-opacity="0.5"/>
<path d="M118.948 171.63C123.143 171.63 126.544 168.229 126.544 164.034C126.544 159.839 123.143 156.438 118.948 156.438C114.753 156.438 111.352 159.839 111.352 164.034C111.352 168.229 114.753 171.63 118.948 171.63Z" fill="#D9D9D9" fill-opacity="0.5"/>
<path d="M126.784 175.904C130.979 175.904 134.38 172.503 134.38 168.307C134.38 164.112 130.979 160.711 126.784 160.711C122.589 160.711 119.188 164.112 119.188 168.307C119.188 172.503 122.589 175.904 126.784 175.904Z" fill="#D9D9D9" fill-opacity="0.5"/>
<path d="M126.542 162.492C130.737 162.492 134.138 159.091 134.138 154.895C134.138 150.7 130.737 147.299 126.542 147.299C122.346 147.299 118.945 150.7 118.945 154.895C118.945 159.091 122.346 162.492 126.542 162.492Z" fill="#D9D9D9" fill-opacity="0.5"/>
<path d="M132.714 165.459C136.909 165.459 140.31 162.057 140.31 157.862C140.31 153.667 136.909 150.266 132.714 150.266C128.518 150.266 125.117 153.667 125.117 157.862C125.117 162.057 128.518 165.459 132.714 165.459Z" fill="#D9D9D9" fill-opacity="0.5"/>
<path d="M139.423 165.696C145.094 165.696 149.69 161.1 149.69 155.429C149.69 149.759 145.094 145.162 139.423 145.162C133.753 145.162 129.156 149.759 129.156 155.429C129.156 161.1 133.753 165.696 139.423 165.696Z" fill="#D9D9D9" fill-opacity="0.5"/>
<path d="M140.962 175.429C146.633 175.429 151.229 170.832 151.229 165.162C151.229 159.491 146.633 154.895 140.962 154.895C135.292 154.895 130.695 159.491 130.695 165.162C130.695 170.832 135.292 175.429 140.962 175.429Z" fill="#D9D9D9" fill-opacity="0.5"/>
<path d="M148.503 171.394C155.452 171.394 161.085 165.761 161.085 158.812C161.085 151.863 155.452 146.23 148.503 146.23C141.555 146.23 135.922 151.863 135.922 158.812C135.922 165.761 141.555 171.394 148.503 171.394Z" fill="#D9D9D9" fill-opacity="0.5"/>
<path d="M112.632 163.821C111.077 162.456 110.222 160.972 110.056 159.382C109.902 157.791 110.471 156.272 111.753 154.812C112.643 153.791 113.676 153.067 114.839 152.64C116.014 152.201 117.225 152.106 118.448 152.367C119.682 152.616 120.833 153.21 121.913 154.147C122.827 154.943 123.468 155.845 123.86 156.83C124.252 157.827 124.335 158.836 124.121 159.856C123.908 160.877 123.409 161.839 122.626 162.729C122.614 162.741 122.602 162.753 122.59 162.765C122.08 163.346 121.522 163.785 120.916 164.106C120.311 164.426 119.706 164.581 119.112 164.557C118.519 164.533 118.02 164.331 117.593 163.963C117.569 163.94 117.557 163.928 117.534 163.916C117.237 163.655 117.023 163.346 116.916 162.99C116.81 162.634 116.81 162.302 116.916 161.969L116.822 161.886C115.908 162.029 115.1 161.791 114.4 161.162C113.688 160.545 113.32 159.833 113.284 159.026C113.249 158.219 113.569 157.435 114.234 156.675C114.994 155.809 115.884 155.358 116.893 155.31C117.913 155.251 118.863 155.619 119.753 156.402C120.086 156.699 120.442 157.067 120.81 157.518C121.189 157.969 121.474 158.361 121.664 158.693L118.875 161.578C118.376 162.147 118.281 162.575 118.59 162.848C118.851 163.073 119.231 163.073 119.73 162.824C120.228 162.575 120.75 162.135 121.284 161.53C121.308 161.506 121.32 161.494 121.332 161.471C121.89 160.842 122.246 160.153 122.412 159.405C122.578 158.658 122.531 157.946 122.27 157.245C122.008 156.545 121.581 155.928 120.976 155.394C120.952 155.37 120.928 155.346 120.893 155.322C120.062 154.598 119.195 154.135 118.281 153.934C117.367 153.732 116.465 153.827 115.575 154.183C114.697 154.527 113.89 155.132 113.142 155.975C112.145 157.115 111.682 158.242 111.765 159.394C111.848 160.533 112.454 161.601 113.605 162.61C114.554 163.441 115.718 164.129 117.083 164.652L116.05 165.839C114.839 165.435 113.7 164.77 112.632 163.821ZM118.827 157.578C118.317 157.127 117.783 156.937 117.213 157.008C116.655 157.079 116.121 157.388 115.635 157.946C114.875 158.812 114.851 159.56 115.551 160.177C115.919 160.509 116.323 160.616 116.738 160.521C117.166 160.426 117.652 160.106 118.198 159.56L119.468 158.266C119.314 158.04 119.089 157.803 118.827 157.578Z" fill="#4181A1"/>
<path d="M148.491 149.222V150.943H146.2L145.821 152.842H147.933V154.54H145.512L144.883 157.875H143.079L143.72 154.54H142.129L141.512 157.875H139.755L140.361 154.54H138.414V152.842H140.681L141.061 150.943H138.996V149.222H141.358L141.987 145.875H143.779L143.15 149.222H144.776L145.417 145.875H147.174L146.533 149.222H148.491ZM142.83 150.931L142.45 152.83H144.052L144.432 150.931H142.83Z" fill="#4181A1"/>
<path d="M124.216 147.655C124.929 146.788 125.7 146.266 126.543 146.1C127.386 145.922 128.157 146.124 128.845 146.693C129.32 147.073 129.629 147.512 129.795 147.999C129.949 148.474 130.009 149.186 129.949 150.135C129.914 150.788 129.926 151.239 129.997 151.465C130.068 151.702 130.222 151.916 130.483 152.13L130.863 152.438L129.486 154.124L129.012 153.744C128.608 153.411 128.323 153.032 128.169 152.616C128.003 152.189 127.943 151.619 127.991 150.907C128.038 150.183 128.015 149.673 127.943 149.364C127.86 149.067 127.694 148.806 127.433 148.592C127.172 148.379 126.887 148.308 126.578 148.403C126.27 148.486 125.973 148.711 125.664 149.079C125.142 149.708 124.762 150.598 124.513 151.762L122.555 151.311C122.804 149.922 123.362 148.711 124.216 147.655ZM131.481 156.106C131.124 155.821 130.946 155.5 130.911 155.168C130.887 154.824 131.018 154.48 131.314 154.124C131.611 153.768 131.932 153.566 132.264 153.53C132.608 153.483 132.952 153.613 133.297 153.886C133.629 154.159 133.819 154.48 133.854 154.836C133.89 155.192 133.759 155.536 133.475 155.892C133.19 156.236 132.881 156.426 132.525 156.474C132.181 156.509 131.837 156.391 131.481 156.106Z" fill="#4181A1"/>
<path d="M128.564 166.801C128.042 165.649 127.899 164.415 128.137 163.109C128.374 161.803 128.873 160.818 129.608 160.166C130.356 159.513 131.246 159.287 132.267 159.477C133.003 159.608 133.597 159.893 134.059 160.308C134.522 160.735 134.902 161.376 135.211 162.255C135.757 161.934 136.255 161.72 136.706 161.614C137.169 161.519 137.644 161.507 138.131 161.602C138.95 161.756 139.543 162.183 139.935 162.907C140.315 163.631 140.421 164.498 140.232 165.519C140.042 166.539 139.662 167.311 139.08 167.821C138.511 168.344 137.834 168.522 137.051 168.379C136.41 168.26 135.852 167.964 135.389 167.489C134.926 167.014 134.546 166.326 134.226 165.424L131.567 167.299C132.125 167.798 132.873 168.272 133.81 168.735L133.335 171.299C132.635 170.967 131.982 170.575 131.341 170.112C130.712 169.649 130.178 169.151 129.727 168.617L126.914 170.611L127.472 167.572L128.564 166.801ZM137.181 166.029C137.49 166.088 137.739 166.029 137.941 165.863C138.143 165.709 138.273 165.459 138.332 165.115C138.392 164.783 138.356 164.498 138.226 164.249C138.095 164.011 137.87 163.869 137.549 163.809C137.086 163.726 136.516 163.881 135.84 164.284C136.018 164.818 136.208 165.234 136.41 165.507C136.623 165.803 136.873 165.982 137.181 166.029ZM132.03 162.088C131.567 162.005 131.163 162.112 130.831 162.397C130.487 162.694 130.273 163.121 130.178 163.655C130.048 164.344 130.107 164.985 130.332 165.578L133.49 163.394C133.288 163.014 133.086 162.717 132.861 162.492C132.623 162.29 132.35 162.148 132.03 162.088Z" fill="#4181A1"/>
<path d="M151.599 161.589L154.638 160.734L154.911 162.8L152.145 162.99L153.961 165.423L152.11 166.408L150.84 163.844L149.724 166.384L147.801 165.411L149.605 162.978L146.852 162.764L147.172 160.723L150.151 161.577L149.819 158.574H151.955L151.599 161.589Z" fill="#4181A1"/>
<path d="M29.6505 83.7012C29.6505 83.7012 29.5911 84.0098 29.5199 84.5676C29.4368 85.1136 29.3537 85.9089 29.2944 86.8584C29.235 87.808 29.2113 88.9237 29.2469 90.1225C29.2707 90.716 29.3063 91.3332 29.3656 91.9504C29.425 92.5676 29.508 93.2086 29.6267 93.8258C29.6742 94.1344 29.7336 94.443 29.8048 94.7635C29.8641 95.0721 29.9353 95.3807 30.0066 95.6774C30.149 96.2828 30.3389 96.8762 30.5288 97.4341C30.7306 97.992 30.9324 98.538 31.146 99.0365C31.3715 99.535 31.5971 99.9979 31.8345 100.413C32.0481 100.841 32.2974 101.197 32.4873 101.529C32.7009 101.85 32.8908 102.134 33.0451 102.36C33.3894 102.811 33.5793 103.06 33.5793 103.06C33.5793 103.06 33.3775 102.823 33.0095 102.396C32.8315 102.182 32.6416 101.909 32.3923 101.6C32.1787 101.28 31.9175 100.912 31.692 100.496C31.4428 100.081 31.2054 99.63 30.968 99.1314C30.8493 98.8822 30.7306 98.621 30.6119 98.3481C30.5051 98.0751 30.3983 97.8139 30.3033 97.5172C30.1015 96.9475 29.9235 96.354 29.7692 95.7368C29.6861 95.44 29.6149 95.1196 29.5555 94.811C29.4843 94.5024 29.4368 94.1938 29.3775 93.8614C29.2588 93.2323 29.1994 92.5914 29.1401 91.9623C29.0926 91.3332 29.0451 90.716 29.0333 90.1107C29.0095 89.5053 29.0333 88.9237 29.057 88.3896C29.0926 87.8436 29.1164 87.3213 29.1638 86.8466C29.33 84.9356 29.6505 83.7012 29.6505 83.7012Z" fill="#6B6B6B"/>
<path d="M26.8351 86.2406C26.8351 86.2406 26.7638 86.561 26.6926 87.1426C26.6095 87.7124 26.5264 88.5314 26.4908 89.5284C26.4671 90.0269 26.4552 90.561 26.4671 91.1308C26.479 91.7005 26.5027 92.294 26.5621 92.9112C26.6095 93.5284 26.6808 94.1575 26.7994 94.7984C26.8469 95.1189 26.9181 95.4394 26.9894 95.7598C27.0487 96.0803 27.1318 96.4008 27.2149 96.7094C27.2861 97.0299 27.3929 97.3385 27.4879 97.659C27.5947 97.9676 27.6897 98.2762 27.7965 98.5848C28.022 99.1901 28.2713 99.7836 28.5443 100.33C28.8173 100.876 29.1021 101.41 29.3989 101.884C29.5532 102.122 29.6956 102.347 29.8499 102.585C30.0042 102.798 30.1466 103.012 30.3009 103.202C30.4315 103.404 30.5977 103.582 30.7401 103.76C30.8707 103.938 31.0131 104.116 31.1437 104.258C31.4167 104.555 31.6303 104.828 31.844 105.042C32.2475 105.457 32.4849 105.683 32.4849 105.683C32.4849 105.683 32.2356 105.469 31.8084 105.065C31.5947 104.864 31.3573 104.614 31.0724 104.318C30.93 104.175 30.7876 104.009 30.6451 103.843C30.5027 103.665 30.3365 103.487 30.1941 103.297C30.0398 103.095 29.8855 102.893 29.7193 102.68C29.5769 102.466 29.4107 102.229 29.2564 101.991C28.9478 101.517 28.6392 100.994 28.3662 100.436C28.0813 99.8785 27.8321 99.2851 27.5828 98.6679C27.4641 98.3592 27.3692 98.0506 27.2624 97.7302C27.1674 97.4097 27.0606 97.1011 26.9775 96.7806C26.8944 96.4601 26.8113 96.1397 26.752 95.8073C26.6808 95.4868 26.6333 95.1545 26.5739 94.834C26.4671 94.1931 26.3959 93.5521 26.3484 92.9231C26.3009 92.3058 26.2891 91.7005 26.2891 91.1308C26.2891 90.561 26.3247 90.015 26.3484 89.5165C26.4196 88.5195 26.5502 87.7005 26.657 87.1308C26.7282 86.5492 26.8232 86.2287 26.8351 86.2406Z" fill="#6B6B6B"/>
<path d="M114.452 141.28C114.452 141.28 114.322 141.517 114.061 141.921C113.918 142.122 113.764 142.372 113.574 142.621C113.372 142.894 113.159 143.179 112.886 143.487C112.625 143.808 112.328 144.116 112.007 144.484C111.675 144.817 111.331 145.173 110.951 145.505C110.559 145.849 110.179 146.194 109.752 146.514C109.527 146.68 109.337 146.846 109.111 147.013C108.898 147.167 108.66 147.321 108.435 147.475C107.995 147.796 107.509 148.045 107.046 148.33C106.82 148.472 106.583 148.579 106.334 148.698C106.096 148.805 105.871 148.924 105.622 149.042C105.159 149.28 104.696 149.434 104.257 149.6C103.829 149.79 103.402 149.909 103.01 150.027C102.619 150.146 102.263 150.277 101.93 150.324C101.598 150.395 101.313 150.443 101.087 150.502C100.625 150.597 100.352 150.645 100.352 150.645C100.352 150.645 100.601 150.562 101.064 150.431C101.289 150.36 101.562 150.289 101.883 150.194C102.203 150.11 102.547 149.956 102.927 149.826C103.319 149.683 103.722 149.541 104.138 149.351C104.352 149.256 104.565 149.161 104.779 149.054C104.993 148.947 105.218 148.852 105.444 148.734C105.883 148.496 106.358 148.271 106.809 147.998C107.248 147.725 107.734 147.464 108.174 147.143C108.387 146.989 108.613 146.846 108.838 146.68C109.052 146.526 109.266 146.36 109.479 146.205C109.895 145.897 110.298 145.553 110.69 145.232C111.082 144.912 111.438 144.579 111.782 144.259C112.114 143.926 112.435 143.642 112.696 143.321C113.254 142.74 113.681 142.217 113.978 141.849C114.263 141.481 114.429 141.256 114.429 141.256L114.452 141.28Z" fill="#6B6B6B"/>
<path d="M116.607 141.66C116.607 141.66 116.595 141.744 116.548 141.886C116.488 142.04 116.429 142.266 116.31 142.539C116.203 142.824 116.037 143.144 115.847 143.524C115.634 143.88 115.408 144.307 115.099 144.723C114.957 144.936 114.815 145.162 114.625 145.376C114.447 145.577 114.28 145.815 114.091 146.052C113.912 146.301 113.687 146.503 113.485 146.729C113.283 146.954 113.058 147.203 112.82 147.405C112.346 147.833 111.871 148.295 111.337 148.711C111.076 148.925 110.803 149.126 110.542 149.34C110.269 149.542 109.984 149.732 109.711 149.933C109.426 150.123 109.141 150.325 108.856 150.503C108.571 150.669 108.263 150.847 107.978 151.014C107.693 151.18 107.408 151.358 107.123 151.524C106.838 151.69 106.542 151.833 106.257 151.975C105.687 152.26 105.141 152.568 104.607 152.794C104.061 153.02 103.562 153.245 103.076 153.447C102.613 153.66 102.162 153.815 101.77 153.945C101.378 154.088 101.034 154.206 100.761 154.301C100.203 154.491 99.8828 154.61 99.8828 154.61C99.8828 154.61 100.191 154.479 100.737 154.242C101.01 154.123 101.355 153.981 101.723 153.815C102.114 153.649 102.542 153.471 102.993 153.245C103.456 153.019 103.954 152.782 104.476 152.533C104.749 152.414 104.999 152.272 105.272 152.117C105.545 151.975 105.818 151.821 106.091 151.678C106.375 151.524 106.66 151.382 106.945 151.215C107.218 151.037 107.515 150.871 107.788 150.693C108.061 150.515 108.358 150.349 108.642 150.159C108.915 149.957 109.2 149.779 109.473 149.589C109.746 149.387 110.031 149.209 110.304 149.02C110.565 148.806 110.838 148.604 111.088 148.402C111.622 148.011 112.108 147.548 112.571 147.132C112.821 146.93 113.022 146.693 113.236 146.468C113.438 146.242 113.687 146.052 113.865 145.827C114.055 145.613 114.245 145.399 114.423 145.198C114.601 144.996 114.755 144.782 114.91 144.58C115.076 144.39 115.206 144.177 115.337 143.987C115.467 143.797 115.598 143.607 115.705 143.441C115.918 143.085 116.096 142.776 116.215 142.503C116.346 142.242 116.441 142.017 116.5 141.862C116.559 141.708 116.583 141.637 116.583 141.637L116.607 141.66Z" fill="#6B6B6B"/>
<path d="M34.9426 79.7262C37.5064 85.02 78.4797 163.928 78.4797 163.928L80.6399 162.884C80.6399 162.884 44.1888 81.9458 41.4233 76.2248C39.1325 71.4651 33.0078 75.7025 34.9426 79.7262Z" fill="#874435"/>
<path d="M75.3906 157.982C77.3253 161.697 78.4767 163.929 78.4767 163.929L80.6369 162.884C80.6369 162.884 79.6874 160.783 78.0969 157.246L75.3906 157.982Z" fill="#5C2C20"/>
<path d="M81.2349 161.554L76.6652 162.551L75.0391 160.296L79.7512 158.527L81.2349 161.554Z" fill="#9CB9CC"/>
<path d="M61.4103 171.073L58.0156 170.836L60.164 163.334L62.9652 163.311L61.4103 171.073Z" fill="#D69C6D"/>
<path d="M61.5774 163.287L61.3281 171.026L98.0166 167.904L96.9602 162.551L61.5774 163.287Z" fill="#EDB180"/>
<path d="M62.7266 164.746L63.7236 170.823L64.1153 170.788L62.7266 164.746Z" fill="#CF835D"/>
<path d="M72.2565 164.166L72.0547 170.113L72.4226 170.077L72.2565 164.166Z" fill="#CF835D"/>
<path d="M76.1783 164L75.9766 169.769L76.4869 169.721L76.1783 164Z" fill="#CF835D"/>
<path d="M67.8359 164.76L68.1445 170.433L69.284 170.338L67.8359 164.76Z" fill="#CF835D"/>
<path d="M78.7422 164.035L79.4781 169.483L80.1428 169.424L78.7422 164.035Z" fill="#CF835D"/>
<path d="M93.8262 163.229L93.6719 168.273L94.2772 168.226L93.8262 163.229Z" fill="#CF835D"/>
<path d="M91.3125 163.619L91.3481 168.462L91.6686 168.438L91.3125 163.619Z" fill="#CF835D"/>
<path d="M81.3203 164.059L82.3767 169.234L82.7328 169.198L81.3203 164.059Z" fill="#CF835D"/>
<path d="M86.7188 163.453L87.4784 168.794L88.1787 168.735L86.7188 163.453Z" fill="#CF835D"/>
<path d="M96.9618 162.551L61.579 163.287L61.5078 165.435L97.2229 163.928L96.9618 162.551Z" fill="#D4996A"/>
<path d="M97.3397 163.311L60.9718 164.356L60.1172 161.566L97.6602 161.626L97.3397 163.311Z" fill="#758EBA"/>
<path d="M48.1154 106.67C48.1629 106.124 48.7089 105.791 49.1837 106.005L54.0145 108.224C54.8929 108.628 55.2846 109.696 54.9047 110.622L51.8187 118.135C51.4389 119.061 50.43 119.477 49.5516 119.085L47.0234 117.922L48.1154 106.67Z" fill="#F29111"/>
<path d="M95.2533 131.749L98.8616 136.164C99.3008 136.698 99.4314 137.41 99.2177 138.099L97.5916 143.404C97.2711 144.461 96.2029 145.256 95.0278 145.339L70.7548 146.87C69.4254 146.953 68.3453 146.099 68.2622 144.912L68.2029 143.962C68.0961 142.419 69.1287 140.888 70.7429 140.211L92.2622 131.155C93.3542 130.692 94.5886 130.941 95.2533 131.749Z" fill="white"/>
<path d="M69.531 140.686L81.9939 135.428L79.0503 146.371L70.0532 146.894C68.7951 146.965 67.6912 146.17 67.525 145.054L67.3945 144.176C67.169 142.727 68.0473 141.315 69.531 140.686Z" fill="#F29111"/>
<defs>
<linearGradient id="paint0_linear_1993_2148" x1="86.0775" y1="43.6271" x2="78.4882" y2="77.505" gradientUnits="userSpaceOnUse">
<stop stop-color="white"/>
<stop offset="1" stop-color="#F4F4F4"/>
</linearGradient>
</defs>
</svg>
