<svg width="500" height="500" viewBox="0 0 500 500" fill="none" xmlns="http://www.w3.org/2000/svg">
<path d="M249.181 452.177C320.897 452.177 379.035 441.335 379.035 427.96C379.035 414.585 320.897 403.742 249.181 403.742C177.465 403.742 119.328 414.585 119.328 427.96C119.328 441.335 177.465 452.177 249.181 452.177Z" fill="#A4AFBF" fill-opacity="0.7"/>
<g filter="url(#filter0_d_3036_5185)">
<path d="M397.008 81.0209C393.489 113.2 360.121 178.056 340.067 208.544L283.656 190.63C313.439 138.114 346.74 102.916 371.077 78.7982C376.622 73.3244 384.889 71.6325 392.161 74.4524L392.991 74.7841C395.58 75.7794 397.307 78.2675 397.008 81.0209Z" fill="white"/>
<path d="M396.996 80.7236C395.07 94.3251 390.223 114.263 375.78 144.22C375.78 144.22 375.514 113.036 366.981 108.955C358.448 104.875 330.492 122.623 330.492 122.623C340.42 111.211 358.349 88.6191 372.924 77.0412C377.805 73.1598 384.28 72.3636 390.422 73.5579L392.049 73.8565C395.236 74.5531 397.428 77.5057 396.996 80.7236Z" fill="#FF9100"/>
</g>
<g filter="url(#filter1_d_3036_5185)">
<path d="M112.385 81.0209C115.905 113.2 149.273 178.056 169.327 208.544L225.737 190.63C195.955 138.114 162.653 102.916 138.316 78.7982C132.771 73.3244 124.504 71.6325 117.233 74.4524L116.403 74.7841C113.813 75.7794 112.086 78.2675 112.385 81.0209Z" fill="white"/>
<path d="M112.335 80.7217C114.227 93.9251 119.208 114.427 133.551 144.251C133.551 144.251 133.817 113.067 142.35 108.986C150.882 104.906 178.872 122.654 178.872 122.654C168.944 111.242 151.015 88.6504 136.44 77.0725C131.559 73.1911 125.084 72.3949 118.942 73.5891L117.315 73.9209C114.095 74.5512 111.87 77.5037 112.335 80.7217Z" fill="#FF9100"/>
</g>
<g filter="url(#filter2_d_3036_5185)">
<g filter="url(#filter3_d_3036_5185)">
<path d="M363.411 264.608C363.411 319.545 312.446 364.065 249.561 364.065C186.676 364.065 135.711 319.545 135.711 264.608C135.711 209.671 186.676 165.15 249.561 165.15C312.446 165.15 363.411 209.671 363.411 264.608Z" fill="white"/>
</g>
</g>
<path d="M249.349 344.363C300.692 344.363 342.314 312.355 342.314 272.872C342.314 233.389 300.692 201.381 249.349 201.381C198.005 201.381 156.383 233.389 156.383 272.872C156.383 312.355 198.005 344.363 249.349 344.363Z" fill="#35373A"/>
<mask id="mask0_3036_5185" style="mask-type:luminance" maskUnits="userSpaceOnUse" x="175" y="247" width="64" height="41">
<ellipse cx="183.238" cy="249.353" rx="2.35489" ry="2.3529" fill="white"/>
<ellipse cx="183.238" cy="255.234" rx="2.35489" ry="2.3529" fill="white"/>
<ellipse cx="183.238" cy="261.119" rx="2.35489" ry="2.3529" fill="white"/>
<ellipse cx="183.238" cy="266.999" rx="2.35489" ry="2.3529" fill="white"/>
<ellipse cx="183.238" cy="272.882" rx="2.35489" ry="2.3529" fill="white"/>
<ellipse cx="189.128" cy="249.353" rx="2.35489" ry="2.3529" fill="white"/>
<ellipse cx="189.128" cy="255.234" rx="2.35489" ry="2.3529" fill="white"/>
<ellipse cx="189.128" cy="261.119" rx="2.35489" ry="2.3529" fill="white"/>
<ellipse cx="189.128" cy="266.999" rx="2.35489" ry="2.3529" fill="white"/>
<ellipse cx="189.128" cy="272.882" rx="2.35489" ry="2.3529" fill="white"/>
<ellipse cx="177.355" cy="249.353" rx="2.35489" ry="2.3529" fill="white"/>
<ellipse cx="177.355" cy="255.234" rx="2.35489" ry="2.3529" fill="white"/>
<ellipse cx="177.355" cy="261.119" rx="2.35489" ry="2.3529" fill="white"/>
<ellipse cx="177.355" cy="266.999" rx="2.35489" ry="2.3529" fill="white"/>
<ellipse cx="177.355" cy="272.882" rx="2.35489" ry="2.3529" fill="white"/>
<ellipse cx="195.011" cy="249.353" rx="2.35489" ry="2.3529" fill="white"/>
<ellipse cx="195.011" cy="255.234" rx="2.35489" ry="2.3529" fill="white"/>
<ellipse cx="195.011" cy="261.119" rx="2.35489" ry="2.3529" fill="white"/>
<ellipse cx="195.011" cy="266.999" rx="2.35489" ry="2.3529" fill="white"/>
<ellipse cx="195.011" cy="272.882" rx="2.35489" ry="2.3529" fill="white"/>
<ellipse cx="206.792" cy="249.353" rx="2.35489" ry="2.3529" fill="white"/>
<ellipse cx="206.792" cy="255.234" rx="2.35489" ry="2.3529" fill="white"/>
<ellipse cx="206.792" cy="261.119" rx="2.35489" ry="2.3529" fill="white"/>
<ellipse cx="206.792" cy="266.999" rx="2.35489" ry="2.3529" fill="white"/>
<ellipse cx="206.792" cy="272.882" rx="2.35489" ry="2.3529" fill="white"/>
<ellipse cx="224.449" cy="249.353" rx="2.35489" ry="2.3529" fill="white"/>
<ellipse cx="224.449" cy="255.234" rx="2.35489" ry="2.3529" fill="white"/>
<ellipse cx="224.449" cy="261.119" rx="2.35489" ry="2.3529" fill="white"/>
<ellipse cx="224.449" cy="266.999" rx="2.35489" ry="2.3529" fill="white"/>
<ellipse cx="224.449" cy="272.882" rx="2.35489" ry="2.3529" fill="white"/>
<ellipse cx="212.683" cy="249.353" rx="2.35489" ry="2.3529" fill="white"/>
<ellipse cx="212.683" cy="255.234" rx="2.35489" ry="2.3529" fill="white"/>
<ellipse cx="212.683" cy="261.119" rx="2.35489" ry="2.3529" fill="white"/>
<ellipse cx="212.683" cy="266.999" rx="2.35489" ry="2.3529" fill="white"/>
<ellipse cx="212.683" cy="272.882" rx="2.35489" ry="2.3529" fill="white"/>
<ellipse cx="230.339" cy="249.353" rx="2.35489" ry="2.3529" fill="white"/>
<ellipse cx="230.339" cy="255.234" rx="2.35489" ry="2.3529" fill="white"/>
<ellipse cx="230.339" cy="261.119" rx="2.35489" ry="2.3529" fill="white"/>
<ellipse cx="230.339" cy="266.999" rx="2.35489" ry="2.3529" fill="white"/>
<ellipse cx="230.339" cy="272.882" rx="2.35489" ry="2.3529" fill="white"/>
<ellipse cx="200.902" cy="249.353" rx="2.35489" ry="2.3529" fill="white"/>
<ellipse cx="200.902" cy="255.234" rx="2.35489" ry="2.3529" fill="white"/>
<ellipse cx="200.902" cy="261.119" rx="2.35489" ry="2.3529" fill="white"/>
<ellipse cx="200.902" cy="266.999" rx="2.35489" ry="2.3529" fill="white"/>
<ellipse cx="200.902" cy="272.882" rx="2.35489" ry="2.3529" fill="white"/>
<ellipse cx="218.566" cy="249.353" rx="2.35489" ry="2.3529" fill="white"/>
<ellipse cx="218.566" cy="255.234" rx="2.35489" ry="2.3529" fill="white"/>
<ellipse cx="218.566" cy="261.119" rx="2.35489" ry="2.3529" fill="white"/>
<ellipse cx="218.566" cy="266.999" rx="2.35489" ry="2.3529" fill="white"/>
<ellipse cx="218.566" cy="272.882" rx="2.35489" ry="2.3529" fill="white"/>
<ellipse cx="236.222" cy="249.353" rx="2.35489" ry="2.3529" fill="white"/>
<ellipse cx="236.222" cy="255.234" rx="2.35489" ry="2.3529" fill="white"/>
<ellipse cx="236.222" cy="261.119" rx="2.35489" ry="2.3529" fill="white"/>
<ellipse cx="236.222" cy="266.999" rx="2.35489" ry="2.3529" fill="white"/>
<ellipse cx="236.222" cy="272.882" rx="2.35489" ry="2.3529" fill="white"/>
<ellipse cx="183.238" cy="278.765" rx="2.35489" ry="2.3529" fill="white"/>
<ellipse cx="183.238" cy="284.648" rx="2.35489" ry="2.3529" fill="white"/>
<ellipse cx="189.128" cy="278.765" rx="2.35489" ry="2.3529" fill="white"/>
<ellipse cx="189.128" cy="284.648" rx="2.35489" ry="2.3529" fill="white"/>
<ellipse cx="177.355" cy="278.765" rx="2.35489" ry="2.3529" fill="white"/>
<ellipse cx="177.355" cy="284.648" rx="2.35489" ry="2.3529" fill="white"/>
<ellipse cx="195.011" cy="278.765" rx="2.35489" ry="2.3529" fill="white"/>
<ellipse cx="195.011" cy="284.648" rx="2.35489" ry="2.3529" fill="white"/>
<ellipse cx="206.792" cy="278.765" rx="2.35489" ry="2.3529" fill="white"/>
<ellipse cx="206.792" cy="284.648" rx="2.35489" ry="2.3529" fill="white"/>
<ellipse cx="224.449" cy="278.765" rx="2.35489" ry="2.3529" fill="white"/>
<ellipse cx="224.449" cy="284.648" rx="2.35489" ry="2.3529" fill="white"/>
<ellipse cx="212.683" cy="278.765" rx="2.35489" ry="2.3529" fill="white"/>
<ellipse cx="212.683" cy="284.648" rx="2.35489" ry="2.3529" fill="white"/>
<ellipse cx="230.339" cy="278.765" rx="2.35489" ry="2.3529" fill="white"/>
<ellipse cx="230.339" cy="284.648" rx="2.35489" ry="2.3529" fill="white"/>
<ellipse cx="200.902" cy="278.765" rx="2.35489" ry="2.3529" fill="white"/>
<ellipse cx="200.902" cy="284.648" rx="2.35489" ry="2.3529" fill="white"/>
<ellipse cx="218.566" cy="278.765" rx="2.35489" ry="2.3529" fill="white"/>
<ellipse cx="218.566" cy="284.648" rx="2.35489" ry="2.3529" fill="white"/>
<ellipse cx="236.222" cy="278.765" rx="2.35489" ry="2.3529" fill="white"/>
<ellipse cx="236.222" cy="284.648" rx="2.35489" ry="2.3529" fill="white"/>
</mask>
<g mask="url(#mask0_3036_5185)">
<path d="M235.523 284.402C235.523 284.402 222.607 272.125 206.676 272.125C190.744 272.125 177.828 286.698 177.828 284.402C177.828 265.825 190.744 250.766 206.676 250.766C222.607 250.766 235.523 265.825 235.523 284.402Z" fill="#F29111"/>
</g>
<mask id="mask1_3036_5185" style="mask-type:luminance" maskUnits="userSpaceOnUse" x="257" y="247" width="65" height="41">
<ellipse cx="265.878" cy="249.353" rx="2.35489" ry="2.3529" fill="white"/>
<ellipse cx="265.878" cy="255.234" rx="2.35489" ry="2.3529" fill="white"/>
<ellipse cx="265.878" cy="261.119" rx="2.35489" ry="2.3529" fill="white"/>
<ellipse cx="265.878" cy="266.999" rx="2.35489" ry="2.3529" fill="white"/>
<ellipse cx="265.878" cy="272.882" rx="2.35489" ry="2.3529" fill="white"/>
<ellipse cx="271.769" cy="249.353" rx="2.35489" ry="2.3529" fill="white"/>
<ellipse cx="271.769" cy="255.234" rx="2.35489" ry="2.3529" fill="white"/>
<ellipse cx="271.769" cy="261.119" rx="2.35489" ry="2.3529" fill="white"/>
<ellipse cx="271.769" cy="266.999" rx="2.35489" ry="2.3529" fill="white"/>
<ellipse cx="271.769" cy="272.882" rx="2.35489" ry="2.3529" fill="white"/>
<ellipse cx="259.996" cy="249.353" rx="2.35489" ry="2.3529" fill="white"/>
<ellipse cx="259.996" cy="255.234" rx="2.35489" ry="2.3529" fill="white"/>
<ellipse cx="259.996" cy="261.119" rx="2.35489" ry="2.3529" fill="white"/>
<ellipse cx="259.996" cy="266.999" rx="2.35489" ry="2.3529" fill="white"/>
<ellipse cx="259.996" cy="272.882" rx="2.35489" ry="2.3529" fill="white"/>
<ellipse cx="277.652" cy="249.353" rx="2.35489" ry="2.3529" fill="white"/>
<ellipse cx="277.652" cy="255.234" rx="2.35489" ry="2.3529" fill="white"/>
<ellipse cx="277.652" cy="261.119" rx="2.35489" ry="2.3529" fill="white"/>
<ellipse cx="277.652" cy="266.999" rx="2.35489" ry="2.3529" fill="white"/>
<ellipse cx="277.652" cy="272.882" rx="2.35489" ry="2.3529" fill="white"/>
<ellipse cx="289.433" cy="249.353" rx="2.35489" ry="2.3529" fill="white"/>
<ellipse cx="289.433" cy="255.234" rx="2.35489" ry="2.3529" fill="white"/>
<ellipse cx="289.433" cy="261.119" rx="2.35489" ry="2.3529" fill="white"/>
<ellipse cx="289.433" cy="266.999" rx="2.35489" ry="2.3529" fill="white"/>
<ellipse cx="289.433" cy="272.882" rx="2.35489" ry="2.3529" fill="white"/>
<ellipse cx="307.089" cy="249.353" rx="2.35489" ry="2.3529" fill="white"/>
<ellipse cx="307.089" cy="255.234" rx="2.35489" ry="2.3529" fill="white"/>
<ellipse cx="307.089" cy="261.119" rx="2.35489" ry="2.3529" fill="white"/>
<ellipse cx="307.089" cy="266.999" rx="2.35489" ry="2.3529" fill="white"/>
<ellipse cx="307.089" cy="272.882" rx="2.35489" ry="2.3529" fill="white"/>
<ellipse cx="295.324" cy="249.353" rx="2.35489" ry="2.3529" fill="white"/>
<ellipse cx="295.324" cy="255.234" rx="2.35489" ry="2.3529" fill="white"/>
<ellipse cx="295.324" cy="261.119" rx="2.35489" ry="2.3529" fill="white"/>
<ellipse cx="295.324" cy="266.999" rx="2.35489" ry="2.3529" fill="white"/>
<ellipse cx="295.324" cy="272.882" rx="2.35489" ry="2.3529" fill="white"/>
<ellipse cx="312.98" cy="249.353" rx="2.35489" ry="2.3529" fill="white"/>
<ellipse cx="312.98" cy="255.234" rx="2.35489" ry="2.3529" fill="white"/>
<ellipse cx="312.98" cy="261.119" rx="2.35489" ry="2.3529" fill="white"/>
<ellipse cx="312.98" cy="266.999" rx="2.35489" ry="2.3529" fill="white"/>
<ellipse cx="312.98" cy="272.882" rx="2.35489" ry="2.3529" fill="white"/>
<ellipse cx="283.542" cy="249.353" rx="2.35489" ry="2.3529" fill="white"/>
<ellipse cx="283.542" cy="255.234" rx="2.35489" ry="2.3529" fill="white"/>
<ellipse cx="283.542" cy="261.119" rx="2.35489" ry="2.3529" fill="white"/>
<ellipse cx="283.542" cy="266.999" rx="2.35489" ry="2.3529" fill="white"/>
<ellipse cx="283.542" cy="272.882" rx="2.35489" ry="2.3529" fill="white"/>
<ellipse cx="301.206" cy="249.353" rx="2.35489" ry="2.3529" fill="white"/>
<ellipse cx="301.206" cy="255.234" rx="2.35489" ry="2.3529" fill="white"/>
<ellipse cx="301.206" cy="261.119" rx="2.35489" ry="2.3529" fill="white"/>
<ellipse cx="301.206" cy="266.999" rx="2.35489" ry="2.3529" fill="white"/>
<ellipse cx="301.206" cy="272.882" rx="2.35489" ry="2.3529" fill="white"/>
<ellipse cx="318.863" cy="249.353" rx="2.35489" ry="2.3529" fill="white"/>
<ellipse cx="318.863" cy="255.234" rx="2.35489" ry="2.3529" fill="white"/>
<ellipse cx="318.863" cy="261.119" rx="2.35489" ry="2.3529" fill="white"/>
<ellipse cx="318.863" cy="266.999" rx="2.35489" ry="2.3529" fill="white"/>
<ellipse cx="318.863" cy="272.882" rx="2.35489" ry="2.3529" fill="white"/>
<ellipse cx="265.878" cy="278.765" rx="2.35489" ry="2.3529" fill="white"/>
<ellipse cx="265.878" cy="284.648" rx="2.35489" ry="2.3529" fill="white"/>
<ellipse cx="271.769" cy="278.765" rx="2.35489" ry="2.3529" fill="white"/>
<ellipse cx="271.769" cy="284.648" rx="2.35489" ry="2.3529" fill="white"/>
<ellipse cx="259.996" cy="278.765" rx="2.35489" ry="2.3529" fill="white"/>
<ellipse cx="259.996" cy="284.648" rx="2.35489" ry="2.3529" fill="white"/>
<ellipse cx="277.652" cy="278.765" rx="2.35489" ry="2.3529" fill="white"/>
<ellipse cx="277.652" cy="284.648" rx="2.35489" ry="2.3529" fill="white"/>
<ellipse cx="289.433" cy="278.765" rx="2.35489" ry="2.3529" fill="white"/>
<ellipse cx="289.433" cy="284.648" rx="2.35489" ry="2.3529" fill="white"/>
<ellipse cx="307.089" cy="278.765" rx="2.35489" ry="2.3529" fill="white"/>
<ellipse cx="307.089" cy="284.648" rx="2.35489" ry="2.3529" fill="white"/>
<ellipse cx="295.324" cy="278.765" rx="2.35489" ry="2.3529" fill="white"/>
<ellipse cx="295.324" cy="284.648" rx="2.35489" ry="2.3529" fill="white"/>
<ellipse cx="312.98" cy="278.765" rx="2.35489" ry="2.3529" fill="white"/>
<ellipse cx="312.98" cy="284.648" rx="2.35489" ry="2.3529" fill="white"/>
<ellipse cx="283.542" cy="278.765" rx="2.35489" ry="2.3529" fill="white"/>
<ellipse cx="283.542" cy="284.648" rx="2.35489" ry="2.3529" fill="white"/>
<ellipse cx="301.206" cy="278.765" rx="2.35489" ry="2.3529" fill="white"/>
<ellipse cx="301.206" cy="284.648" rx="2.35489" ry="2.3529" fill="white"/>
<ellipse cx="318.863" cy="278.765" rx="2.35489" ry="2.3529" fill="white"/>
<ellipse cx="318.863" cy="284.648" rx="2.35489" ry="2.3529" fill="white"/>
</mask>
<g mask="url(#mask1_3036_5185)">
<path d="M318.156 284.402C318.156 284.402 305.24 272.125 289.308 272.125C273.376 272.125 260.461 286.698 260.461 284.402C260.461 265.825 273.376 250.766 289.308 250.766C305.24 250.766 318.156 265.825 318.156 284.402Z" fill="#F29111"/>
</g>
<g filter="url(#filter4_d_3036_5185)">
<path d="M331.141 359.184L335.126 343.26C335.591 341.336 336.919 339.744 338.712 338.881L352.524 332.313C355.279 331.019 358.566 331.715 360.492 334.071L400.434 382.307C402.626 384.927 402.426 388.809 400.003 391.231L398.044 393.188C394.923 396.306 390.108 397.003 386.224 394.88L334.362 366.648C331.772 365.188 330.411 362.136 331.141 359.184Z" fill="white"/>
<path d="M386.237 394.846L353.5 376.965L384.776 363.264L400.481 382.239C402.672 384.86 402.473 388.742 400.049 391.163L398.057 393.154C394.936 396.272 390.122 396.969 386.237 394.846Z" fill="#F29111"/>
<path d="M168.878 358.586L164.894 342.662C164.429 340.738 163.101 339.146 161.308 338.283L147.496 331.715C144.74 330.421 141.453 331.118 139.528 333.473L99.5854 381.709C97.3941 384.33 97.5933 388.211 100.017 390.633L101.976 392.59C105.097 395.709 109.911 396.405 113.796 394.282L165.658 366.051C168.281 364.558 169.642 361.506 168.878 358.586Z" fill="white"/>
<path d="M113.829 394.248L146.566 376.367L115.29 362.666L99.5854 381.642C97.3941 384.263 97.5933 388.144 100.017 390.566L102.009 392.556C105.13 395.675 109.944 396.371 113.829 394.248Z" fill="#F29111"/>
</g>
<defs>
<filter id="filter0_d_3036_5185" x="275.656" y="69.0469" width="129.395" height="151.497" filterUnits="userSpaceOnUse" color-interpolation-filters="sRGB">
<feFlood flood-opacity="0" result="BackgroundImageFix"/>
<feColorMatrix in="SourceAlpha" type="matrix" values="0 0 0 0 0 0 0 0 0 0 0 0 0 0 0 0 0 0 127 0" result="hardAlpha"/>
<feOffset dy="4"/>
<feGaussianBlur stdDeviation="4"/>
<feComposite in2="hardAlpha" operator="out"/>
<feColorMatrix type="matrix" values="0 0 0 0 0 0 0 0 0 0 0 0 0 0 0 0 0 0 0.25 0"/>
<feBlend mode="normal" in2="BackgroundImageFix" result="effect1_dropShadow_3036_5185"/>
<feBlend mode="normal" in="SourceGraphic" in2="effect1_dropShadow_3036_5185" result="shape"/>
</filter>
<filter id="filter1_d_3036_5185" x="104.273" y="69.0781" width="129.465" height="151.466" filterUnits="userSpaceOnUse" color-interpolation-filters="sRGB">
<feFlood flood-opacity="0" result="BackgroundImageFix"/>
<feColorMatrix in="SourceAlpha" type="matrix" values="0 0 0 0 0 0 0 0 0 0 0 0 0 0 0 0 0 0 127 0" result="hardAlpha"/>
<feOffset dy="4"/>
<feGaussianBlur stdDeviation="4"/>
<feComposite in2="hardAlpha" operator="out"/>
<feColorMatrix type="matrix" values="0 0 0 0 0 0 0 0 0 0 0 0 0 0 0 0 0 0 0.25 0"/>
<feBlend mode="normal" in2="BackgroundImageFix" result="effect1_dropShadow_3036_5185"/>
<feBlend mode="normal" in="SourceGraphic" in2="effect1_dropShadow_3036_5185" result="shape"/>
</filter>
<filter id="filter2_d_3036_5185" x="131.711" y="165.15" width="235.699" height="206.914" filterUnits="userSpaceOnUse" color-interpolation-filters="sRGB">
<feFlood flood-opacity="0" result="BackgroundImageFix"/>
<feColorMatrix in="SourceAlpha" type="matrix" values="0 0 0 0 0 0 0 0 0 0 0 0 0 0 0 0 0 0 127 0" result="hardAlpha"/>
<feOffset dy="4"/>
<feGaussianBlur stdDeviation="2"/>
<feComposite in2="hardAlpha" operator="out"/>
<feColorMatrix type="matrix" values="0 0 0 0 0 0 0 0 0 0 0 0 0 0 0 0 0 0 0.25 0"/>
<feBlend mode="normal" in2="BackgroundImageFix" result="effect1_dropShadow_3036_5185"/>
<feBlend mode="normal" in="SourceGraphic" in2="effect1_dropShadow_3036_5185" result="shape"/>
</filter>
<filter id="filter3_d_3036_5185" x="134.711" y="163.15" width="229.699" height="200.914" filterUnits="userSpaceOnUse" color-interpolation-filters="sRGB">
<feFlood flood-opacity="0" result="BackgroundImageFix"/>
<feColorMatrix in="SourceAlpha" type="matrix" values="0 0 0 0 0 0 0 0 0 0 0 0 0 0 0 0 0 0 127 0" result="hardAlpha"/>
<feOffset dy="-1"/>
<feGaussianBlur stdDeviation="0.5"/>
<feComposite in2="hardAlpha" operator="out"/>
<feColorMatrix type="matrix" values="0 0 0 0 0 0 0 0 0 0 0 0 0 0 0 0 0 0 0.1 0"/>
<feBlend mode="normal" in2="BackgroundImageFix" result="effect1_dropShadow_3036_5185"/>
<feBlend mode="normal" in="SourceGraphic" in2="effect1_dropShadow_3036_5185" result="shape"/>
</filter>
<filter id="filter4_d_3036_5185" x="90.0625" y="327.072" width="319.941" height="81.0283" filterUnits="userSpaceOnUse" color-interpolation-filters="sRGB">
<feFlood flood-opacity="0" result="BackgroundImageFix"/>
<feColorMatrix in="SourceAlpha" type="matrix" values="0 0 0 0 0 0 0 0 0 0 0 0 0 0 0 0 0 0 127 0" result="hardAlpha"/>
<feOffset dy="4"/>
<feGaussianBlur stdDeviation="4"/>
<feComposite in2="hardAlpha" operator="out"/>
<feColorMatrix type="matrix" values="0 0 0 0 0 0 0 0 0 0 0 0 0 0 0 0 0 0 0.25 0"/>
<feBlend mode="normal" in2="BackgroundImageFix" result="effect1_dropShadow_3036_5185"/>
<feBlend mode="normal" in="SourceGraphic" in2="effect1_dropShadow_3036_5185" result="shape"/>
</filter>
</defs>
</svg>
