<svg width="500" height="500" viewBox="0 0 500 500" fill="none" xmlns="http://www.w3.org/2000/svg">
<path d="M240.727 450.402C308.848 450.402 364.07 440.092 364.07 427.374C364.07 414.656 308.848 404.346 240.727 404.346C172.606 404.346 117.383 414.656 117.383 427.374C117.383 440.092 172.606 450.402 240.727 450.402Z" fill="#A4AFBF" fill-opacity="0.7"/>
<g filter="url(#filter0_d_2831_10629)">
<path d="M156.746 126.05C152.645 148.542 153.308 183.526 154.317 200.088L192.898 172.895C190.595 143.053 181.951 122.548 175.926 112.706C174.254 109.961 170.689 109.425 168.008 111.192L166.494 112.201C161.541 115.419 157.787 120.245 156.746 126.05Z" fill="white"/>
<path d="M186.742 138.508C169.234 119.959 157.751 137.152 154.281 147.814C156.016 126.552 154.66 121.789 164.881 113.271C173.808 105.827 176.553 113.429 177.625 115.196C178.635 116.805 184.344 129.486 186.742 138.508Z" fill="#FF9100"/>
</g>
<g filter="url(#filter1_d_2831_10629)">
<path fill-rule="evenodd" clip-rule="evenodd" d="M332.58 207.15C359.425 182.481 400.655 137.087 411.349 110.652C412.327 108.191 411.412 105.478 409.299 103.901L408.699 103.428C402.769 98.9481 394.725 98.3487 388.226 101.976C362.233 116.424 326.996 137.434 290.024 171.819C275.545 165.131 259.109 161.251 241.665 160.999C182.169 160.115 133.337 201.787 132.548 254.059C131.791 306.33 179.393 349.39 238.889 350.273C298.384 351.156 347.217 309.484 348.005 257.213C348.226 238.917 342.58 221.756 332.58 207.15Z" fill="white"/>
</g>
<path d="M411.214 110.59C405.946 121.725 396.167 139.864 375.694 163.05C375.694 163.05 383.549 134.438 376.829 128.508C370.11 122.577 340.016 131.599 340.016 131.599C352.003 123.744 374.18 107.719 390.457 100.905C395.946 98.6023 402.066 99.5487 407.397 102.262L408.501 102.829C411.341 104.281 412.571 107.719 411.214 110.59Z" fill="#FF9100"/>
<path d="M411.507 110.272C400.718 138.316 359.046 184.278 332.737 207.118L325.766 197.875L410.024 109.42C410.75 108.695 411.886 109.326 411.507 110.272Z" fill="#E9E6E6"/>
<path d="M283.209 261.44C282.704 295.162 254.281 328.38 212.041 327.749C169.802 327.118 136.048 292.986 136.552 259.295C137.057 225.572 168.54 198.727 210.78 199.326C253.019 199.957 283.713 227.749 283.209 261.44Z" fill="#35373A"/>
<mask id="mask0_2831_10629" style="mask-type:luminance" maskUnits="userSpaceOnUse" x="150" y="239" width="41" height="30">
<path d="M190.596 268.287C190.596 268.287 181.763 257.909 170.659 257.72C159.555 257.562 150.375 269.612 150.406 267.688C150.627 252.168 159.807 239.707 170.911 239.865C181.984 240.022 190.816 252.735 190.596 268.287Z" fill="white"/>
</mask>
<g mask="url(#mask0_2831_10629)">
<path d="M156.153 238.473C156.169 237.393 155.447 236.507 154.541 236.494C153.636 236.48 152.888 237.345 152.872 238.425C152.857 239.505 153.578 240.392 154.484 240.405C155.39 240.418 156.137 239.553 156.153 238.473Z" fill="#F29111"/>
<path d="M156.075 243.382C156.091 242.301 155.369 241.415 154.463 241.402C153.557 241.389 152.81 242.253 152.794 243.333C152.778 244.413 153.5 245.3 154.406 245.313C155.312 245.326 156.059 244.462 156.075 243.382Z" fill="#F29111"/>
<path d="M156.02 248.317C156.036 247.237 155.314 246.351 154.409 246.337C153.503 246.324 152.755 247.189 152.74 248.269C152.724 249.349 153.445 250.235 154.351 250.249C155.257 250.262 156.004 249.397 156.02 248.317Z" fill="#F29111"/>
<path d="M155.942 253.225C155.958 252.145 155.236 251.259 154.33 251.246C153.425 251.232 152.677 252.097 152.662 253.177C152.646 254.257 153.367 255.144 154.273 255.157C155.179 255.17 155.926 254.305 155.942 253.225Z" fill="#F29111"/>
<path d="M155.887 258.135C155.903 257.055 155.182 256.169 154.276 256.156C153.37 256.142 152.623 257.007 152.607 258.087C152.591 259.167 153.312 260.054 154.218 260.067C155.124 260.08 155.871 259.216 155.887 258.135Z" fill="#F29111"/>
<path d="M160.262 238.532C160.278 237.452 159.557 236.566 158.651 236.552C157.745 236.539 156.998 237.404 156.982 238.484C156.966 239.564 157.687 240.45 158.593 240.464C159.499 240.477 160.246 239.612 160.262 238.532Z" fill="#F29111"/>
<path d="M160.184 243.44C160.2 242.36 159.478 241.474 158.573 241.46C157.667 241.447 156.92 242.312 156.904 243.392C156.888 244.472 157.609 245.358 158.515 245.372C159.421 245.385 160.168 244.52 160.184 243.44Z" fill="#F29111"/>
<path d="M160.122 248.382C160.137 247.301 159.416 246.415 158.51 246.402C157.604 246.389 156.857 247.253 156.841 248.333C156.825 249.413 157.547 250.3 158.453 250.313C159.359 250.326 160.106 249.462 160.122 248.382Z" fill="#F29111"/>
<path d="M160.044 253.288C160.059 252.208 159.338 251.321 158.432 251.308C157.526 251.295 156.779 252.16 156.763 253.24C156.747 254.32 157.469 255.206 158.375 255.219C159.28 255.233 160.028 254.368 160.044 253.288Z" fill="#F29111"/>
<path d="M159.95 258.194C159.966 257.114 159.244 256.228 158.338 256.214C157.432 256.201 156.685 257.066 156.669 258.146C156.653 259.226 157.375 260.112 158.281 260.126C159.187 260.139 159.934 259.274 159.95 258.194Z" fill="#F29111"/>
<path d="M152.036 238.409C152.052 237.329 151.33 236.442 150.424 236.429C149.518 236.416 148.771 237.281 148.755 238.361C148.739 239.441 149.461 240.327 150.367 240.34C151.273 240.354 152.02 239.489 152.036 238.409Z" fill="#F29111"/>
<path d="M151.981 243.317C151.997 242.237 151.275 241.351 150.369 241.337C149.464 241.324 148.716 242.189 148.701 243.269C148.685 244.349 149.406 245.235 150.312 245.249C151.218 245.262 151.965 244.397 151.981 243.317Z" fill="#F29111"/>
<path d="M151.919 248.259C151.934 247.178 151.213 246.292 150.307 246.279C149.401 246.266 148.654 247.13 148.638 248.21C148.622 249.29 149.344 250.177 150.25 250.19C151.155 250.203 151.903 249.339 151.919 248.259Z" fill="#F29111"/>
<path d="M151.84 253.165C151.856 252.085 151.135 251.198 150.229 251.185C149.323 251.172 148.576 252.037 148.56 253.117C148.544 254.197 149.266 255.083 150.171 255.096C151.077 255.11 151.825 254.245 151.84 253.165Z" fill="#F29111"/>
<path d="M151.778 258.073C151.794 256.993 151.072 256.107 150.166 256.093C149.261 256.08 148.513 256.945 148.497 258.025C148.482 259.105 149.203 259.991 150.109 260.005C151.015 260.018 151.762 259.153 151.778 258.073Z" fill="#F29111"/>
<path d="M164.356 238.596C164.372 237.516 163.65 236.63 162.744 236.617C161.839 236.603 161.091 237.468 161.076 238.548C161.06 239.628 161.781 240.515 162.687 240.528C163.593 240.541 164.34 239.676 164.356 238.596Z" fill="#F29111"/>
<path d="M164.278 243.503C164.294 242.423 163.572 241.536 162.666 241.523C161.761 241.51 161.013 242.374 160.997 243.455C160.982 244.535 161.703 245.421 162.609 245.434C163.515 245.448 164.262 244.583 164.278 243.503Z" fill="#F29111"/>
<path d="M164.223 248.409C164.239 247.329 163.518 246.442 162.612 246.429C161.706 246.416 160.959 247.281 160.943 248.361C160.927 249.441 161.648 250.327 162.554 250.34C163.46 250.354 164.207 249.489 164.223 248.409Z" fill="#F29111"/>
<path d="M164.122 253.346C164.137 252.266 163.416 251.38 162.51 251.367C161.604 251.353 160.857 252.218 160.841 253.298C160.825 254.378 161.547 255.265 162.453 255.278C163.359 255.291 164.106 254.426 164.122 253.346Z" fill="#F29111"/>
<path d="M164.044 258.259C164.059 257.178 163.338 256.292 162.432 256.279C161.526 256.266 160.779 257.13 160.763 258.21C160.747 259.29 161.469 260.177 162.375 260.19C163.28 260.203 164.028 259.339 164.044 258.259Z" fill="#F29111"/>
<path d="M172.559 238.714C172.575 237.634 171.853 236.747 170.948 236.734C170.042 236.721 169.295 237.585 169.279 238.665C169.263 239.746 169.984 240.632 170.89 240.645C171.796 240.658 172.543 239.794 172.559 238.714Z" fill="#F29111"/>
<path d="M172.504 243.624C172.52 242.544 171.799 241.657 170.893 241.644C169.987 241.631 169.24 242.496 169.224 243.576C169.208 244.656 169.93 245.542 170.836 245.555C171.741 245.569 172.489 244.704 172.504 243.624Z" fill="#F29111"/>
<path d="M172.403 248.532C172.419 247.452 171.697 246.566 170.791 246.552C169.886 246.539 169.138 247.404 169.122 248.484C169.107 249.564 169.828 250.45 170.734 250.464C171.64 250.477 172.387 249.612 172.403 248.532Z" fill="#F29111"/>
<path d="M172.325 253.467C172.341 252.387 171.619 251.501 170.713 251.488C169.807 251.474 169.06 252.339 169.044 253.419C169.028 254.499 169.75 255.386 170.656 255.399C171.562 255.412 172.309 254.548 172.325 253.467Z" fill="#F29111"/>
<path d="M172.27 258.376C172.286 257.296 171.564 256.409 170.659 256.396C169.753 256.383 169.005 257.247 168.99 258.328C168.974 259.408 169.695 260.294 170.601 260.307C171.507 260.321 172.254 259.456 172.27 258.376Z" fill="#F29111"/>
<path d="M184.848 238.897C184.864 237.817 184.143 236.931 183.237 236.917C182.331 236.904 181.584 237.769 181.568 238.849C181.552 239.929 182.273 240.815 183.179 240.829C184.085 240.842 184.832 239.977 184.848 238.897Z" fill="#F29111"/>
<path d="M184.793 243.805C184.809 242.725 184.088 241.839 183.182 241.826C182.276 241.812 181.529 242.677 181.513 243.757C181.497 244.837 182.219 245.724 183.125 245.737C184.03 245.75 184.778 244.885 184.793 243.805Z" fill="#F29111"/>
<path d="M184.715 248.714C184.731 247.634 184.01 246.747 183.104 246.734C182.198 246.721 181.451 247.585 181.435 248.665C181.419 249.746 182.141 250.632 183.046 250.645C183.952 250.658 184.7 249.794 184.715 248.714Z" fill="#F29111"/>
<path d="M184.653 253.655C184.669 252.575 183.947 251.689 183.041 251.675C182.135 251.662 181.388 252.527 181.372 253.607C181.357 254.687 182.078 255.573 182.984 255.587C183.89 255.6 184.637 254.735 184.653 253.655Z" fill="#F29111"/>
<path d="M184.575 258.561C184.591 257.481 183.869 256.595 182.963 256.582C182.057 256.568 181.31 257.433 181.294 258.513C181.278 259.593 182 260.48 182.906 260.493C183.812 260.506 184.559 259.641 184.575 258.561Z" fill="#F29111"/>
<path d="M176.669 238.776C176.684 237.696 175.963 236.81 175.057 236.796C174.151 236.783 173.404 237.648 173.388 238.728C173.372 239.808 174.094 240.694 175 240.708C175.905 240.721 176.653 239.856 176.669 238.776Z" fill="#F29111"/>
<path d="M176.567 243.682C176.583 242.602 175.861 241.716 174.955 241.703C174.05 241.689 173.302 242.554 173.287 243.634C173.271 244.714 173.992 245.601 174.898 245.614C175.804 245.627 176.551 244.762 176.567 243.682Z" fill="#F29111"/>
<path d="M176.512 248.591C176.528 247.51 175.807 246.624 174.901 246.611C173.995 246.598 173.248 247.462 173.232 248.542C173.216 249.622 173.937 250.509 174.843 250.522C175.749 250.535 176.496 249.671 176.512 248.591Z" fill="#F29111"/>
<path d="M176.434 253.532C176.45 252.452 175.728 251.566 174.823 251.552C173.917 251.539 173.17 252.404 173.154 253.484C173.138 254.564 173.859 255.45 174.765 255.464C175.671 255.477 176.418 254.612 176.434 253.532Z" fill="#F29111"/>
<path d="M176.372 258.44C176.387 257.36 175.666 256.474 174.76 256.46C173.854 256.447 173.107 257.312 173.091 258.392C173.075 259.472 173.797 260.358 174.703 260.372C175.609 260.385 176.356 259.52 176.372 258.44Z" fill="#F29111"/>
<path d="M188.95 238.956C188.966 237.876 188.244 236.989 187.338 236.976C186.432 236.963 185.685 237.828 185.669 238.908C185.653 239.988 186.375 240.874 187.281 240.887C188.187 240.901 188.934 240.036 188.95 238.956Z" fill="#F29111"/>
<path d="M188.887 243.864C188.903 242.784 188.182 241.898 187.276 241.884C186.37 241.871 185.623 242.736 185.607 243.816C185.591 244.896 186.312 245.782 187.218 245.796C188.124 245.809 188.871 244.944 188.887 243.864Z" fill="#F29111"/>
<path d="M188.809 248.772C188.825 247.692 188.103 246.806 187.198 246.792C186.292 246.779 185.545 247.644 185.529 248.724C185.513 249.804 186.234 250.69 187.14 250.704C188.046 250.717 188.793 249.852 188.809 248.772Z" fill="#F29111"/>
<path d="M188.754 253.714C188.77 252.634 188.049 251.747 187.143 251.734C186.237 251.721 185.49 252.585 185.474 253.665C185.458 254.746 186.18 255.632 187.086 255.645C187.991 255.658 188.739 254.794 188.754 253.714Z" fill="#F29111"/>
<path d="M188.676 258.62C188.692 257.54 187.971 256.653 187.065 256.64C186.159 256.627 185.412 257.492 185.396 258.572C185.38 259.652 186.102 260.538 187.007 260.551C187.913 260.565 188.66 259.7 188.676 258.62Z" fill="#F29111"/>
<path d="M168.465 238.655C168.481 237.575 167.76 236.689 166.854 236.675C165.948 236.662 165.201 237.527 165.185 238.607C165.169 239.687 165.891 240.573 166.796 240.587C167.702 240.6 168.45 239.735 168.465 238.655Z" fill="#F29111"/>
<path d="M168.403 243.561C168.419 242.481 167.697 241.595 166.791 241.582C165.886 241.568 165.138 242.433 165.122 243.513C165.107 244.593 165.828 245.48 166.734 245.493C167.64 245.506 168.387 244.641 168.403 243.561Z" fill="#F29111"/>
<path d="M168.325 248.467C168.341 247.387 167.619 246.501 166.713 246.488C165.807 246.474 165.06 247.339 165.044 248.419C165.028 249.499 165.75 250.386 166.656 250.399C167.562 250.412 168.309 249.548 168.325 248.467Z" fill="#F29111"/>
<path d="M168.231 253.409C168.247 252.329 167.525 251.442 166.619 251.429C165.714 251.416 164.966 252.281 164.951 253.361C164.935 254.441 165.656 255.327 166.562 255.34C167.468 255.354 168.215 254.489 168.231 253.409Z" fill="#F29111"/>
<path d="M168.168 258.317C168.184 257.237 167.463 256.351 166.557 256.337C165.651 256.324 164.904 257.189 164.888 258.269C164.872 259.349 165.594 260.235 166.5 260.249C167.405 260.262 168.153 259.397 168.168 258.317Z" fill="#F29111"/>
<path d="M180.786 238.835C180.802 237.755 180.08 236.868 179.174 236.855C178.268 236.842 177.521 237.706 177.505 238.787C177.489 239.867 178.211 240.753 179.117 240.766C180.023 240.78 180.77 239.915 180.786 238.835Z" fill="#F29111"/>
<path d="M180.669 243.741C180.684 242.661 179.963 241.775 179.057 241.761C178.151 241.748 177.404 242.613 177.388 243.693C177.372 244.773 178.094 245.659 179 245.673C179.905 245.686 180.653 244.821 180.669 243.741Z" fill="#F29111"/>
<path d="M180.606 248.649C180.622 247.569 179.9 246.683 178.994 246.669C178.089 246.656 177.341 247.521 177.326 248.601C177.31 249.681 178.031 250.567 178.937 250.581C179.843 250.594 180.59 249.729 180.606 248.649Z" fill="#F29111"/>
<path d="M180.528 253.591C180.544 252.51 179.822 251.624 178.916 251.611C178.011 251.598 177.263 252.462 177.247 253.542C177.232 254.622 177.953 255.509 178.859 255.522C179.765 255.535 180.512 254.671 180.528 253.591Z" fill="#F29111"/>
<path d="M180.473 258.499C180.489 257.419 179.768 256.532 178.862 256.519C177.956 256.506 177.209 257.371 177.193 258.451C177.177 259.531 177.898 260.417 178.804 260.43C179.71 260.444 180.457 259.579 180.473 258.499Z" fill="#F29111"/>
<path d="M193.051 239.014C193.067 237.934 192.346 237.048 191.44 237.035C190.534 237.021 189.787 237.886 189.771 238.966C189.755 240.046 190.477 240.933 191.382 240.946C192.288 240.959 193.035 240.094 193.051 239.014Z" fill="#F29111"/>
<path d="M192.997 243.923C193.012 242.843 192.291 241.956 191.385 241.943C190.479 241.93 189.732 242.794 189.716 243.874C189.7 244.955 190.422 245.841 191.328 245.854C192.234 245.867 192.981 245.003 192.997 243.923Z" fill="#F29111"/>
<path d="M192.918 248.835C192.934 247.755 192.213 246.868 191.307 246.855C190.401 246.842 189.654 247.706 189.638 248.787C189.622 249.867 190.344 250.753 191.25 250.766C192.155 250.78 192.903 249.915 192.918 248.835Z" fill="#F29111"/>
<path d="M192.856 253.772C192.872 252.692 192.15 251.806 191.244 251.792C190.339 251.779 189.591 252.644 189.576 253.724C189.56 254.804 190.281 255.69 191.187 255.704C192.093 255.717 192.84 254.852 192.856 253.772Z" fill="#F29111"/>
<path d="M192.778 258.678C192.794 257.598 192.072 256.712 191.166 256.699C190.26 256.685 189.513 257.55 189.497 258.63C189.482 259.71 190.203 260.597 191.109 260.61C192.015 260.623 192.762 259.759 192.778 258.678Z" fill="#F29111"/>
<path d="M155.786 263.044C155.802 261.964 155.08 261.077 154.174 261.064C153.268 261.051 152.521 261.915 152.505 262.996C152.489 264.076 153.211 264.962 154.117 264.975C155.023 264.989 155.77 264.124 155.786 263.044Z" fill="#F29111"/>
<path d="M155.708 267.979C155.723 266.899 155.002 266.013 154.096 266C153.19 265.986 152.443 266.851 152.427 267.931C152.411 269.011 153.133 269.897 154.039 269.911C154.945 269.924 155.692 269.059 155.708 267.979Z" fill="#F29111"/>
<path d="M159.887 263.102C159.903 262.022 159.182 261.136 158.276 261.123C157.37 261.109 156.623 261.974 156.607 263.054C156.591 264.134 157.312 265.021 158.218 265.034C159.124 265.047 159.871 264.182 159.887 263.102Z" fill="#F29111"/>
<path d="M159.809 268.044C159.825 266.964 159.103 266.077 158.198 266.064C157.292 266.051 156.545 266.915 156.529 267.996C156.513 269.076 157.234 269.962 158.14 269.975C159.046 269.989 159.793 269.124 159.809 268.044Z" fill="#F29111"/>
<path d="M151.684 262.979C151.7 261.899 150.978 261.013 150.073 261C149.167 260.986 148.42 261.851 148.404 262.931C148.388 264.011 149.109 264.897 150.015 264.911C150.921 264.924 151.668 264.059 151.684 262.979Z" fill="#F29111"/>
<path d="M151.606 267.921C151.622 266.841 150.9 265.954 149.995 265.941C149.089 265.928 148.341 266.792 148.326 267.872C148.31 268.953 149.031 269.839 149.937 269.852C150.843 269.865 151.59 269.001 151.606 267.921Z" fill="#F29111"/>
<path d="M163.989 263.167C164.005 262.087 163.283 261.2 162.377 261.187C161.471 261.174 160.724 262.039 160.708 263.119C160.693 264.199 161.414 265.085 162.32 265.098C163.226 265.112 163.973 264.247 163.989 263.167Z" fill="#F29111"/>
<path d="M163.911 268.102C163.927 267.022 163.205 266.136 162.299 266.123C161.393 266.109 160.646 266.974 160.63 268.054C160.614 269.134 161.336 270.021 162.242 270.034C163.148 270.047 163.895 269.182 163.911 268.102Z" fill="#F29111"/>
<path d="M172.192 263.288C172.208 262.208 171.486 261.321 170.58 261.308C169.675 261.295 168.927 262.16 168.912 263.24C168.896 264.32 169.617 265.206 170.523 265.219C171.429 265.233 172.176 264.368 172.192 263.288Z" fill="#F29111"/>
<path d="M172.137 268.225C172.153 267.145 171.432 266.259 170.526 266.246C169.62 266.232 168.873 267.097 168.857 268.177C168.841 269.257 169.562 270.144 170.468 270.157C171.374 270.17 172.121 269.305 172.137 268.225Z" fill="#F29111"/>
<path d="M184.512 263.468C184.528 262.387 183.807 261.501 182.901 261.488C181.995 261.475 181.248 262.339 181.232 263.419C181.216 264.499 181.937 265.386 182.843 265.399C183.749 265.412 184.496 264.548 184.512 263.468Z" fill="#F29111"/>
<path d="M184.434 268.405C184.45 267.325 183.729 266.439 182.823 266.425C181.917 266.412 181.17 267.277 181.154 268.357C181.138 269.437 181.859 270.323 182.765 270.337C183.671 270.35 184.418 269.485 184.434 268.405Z" fill="#F29111"/>
<path d="M176.293 263.346C176.309 262.266 175.588 261.38 174.682 261.367C173.776 261.353 173.029 262.218 173.013 263.298C172.997 264.378 173.719 265.265 174.625 265.278C175.53 265.291 176.278 264.426 176.293 263.346Z" fill="#F29111"/>
<path d="M176.231 268.284C176.247 267.204 175.525 266.317 174.619 266.304C173.714 266.291 172.966 267.156 172.951 268.236C172.935 269.316 173.656 270.202 174.562 270.215C175.468 270.229 176.215 269.364 176.231 268.284Z" fill="#F29111"/>
<path d="M188.622 263.526C188.637 262.446 187.916 261.56 187.01 261.546C186.104 261.533 185.357 262.398 185.341 263.478C185.325 264.558 186.047 265.444 186.953 265.458C187.859 265.471 188.606 264.606 188.622 263.526Z" fill="#F29111"/>
<path d="M188.544 268.467C188.559 267.387 187.838 266.501 186.932 266.488C186.026 266.474 185.279 267.339 185.263 268.419C185.247 269.499 185.969 270.386 186.875 270.399C187.78 270.412 188.528 269.548 188.544 268.467Z" fill="#F29111"/>
<path d="M168.09 263.225C168.106 262.145 167.385 261.259 166.479 261.246C165.573 261.232 164.826 262.097 164.81 263.177C164.794 264.257 165.516 265.144 166.421 265.157C167.327 265.17 168.075 264.305 168.09 263.225Z" fill="#F29111"/>
<path d="M168.028 268.167C168.044 267.087 167.322 266.2 166.416 266.187C165.51 266.174 164.763 267.039 164.747 268.119C164.732 269.199 165.453 270.085 166.359 270.098C167.265 270.112 168.012 269.247 168.028 268.167Z" fill="#F29111"/>
<path d="M180.419 263.405C180.434 262.325 179.713 261.439 178.807 261.425C177.901 261.412 177.154 262.277 177.138 263.357C177.122 264.437 177.844 265.323 178.75 265.337C179.655 265.35 180.403 264.485 180.419 263.405Z" fill="#F29111"/>
<path d="M180.34 268.346C180.356 267.266 179.635 266.38 178.729 266.367C177.823 266.353 177.076 267.218 177.06 268.298C177.044 269.378 177.766 270.265 178.671 270.278C179.577 270.291 180.325 269.426 180.34 268.346Z" fill="#F29111"/>
<path d="M192.715 263.585C192.731 262.505 192.01 261.618 191.104 261.605C190.198 261.592 189.451 262.456 189.435 263.537C189.419 264.617 190.141 265.503 191.046 265.516C191.952 265.53 192.7 264.665 192.715 263.585Z" fill="#F29111"/>
<path d="M192.622 268.526C192.637 267.446 191.916 266.56 191.01 266.546C190.104 266.533 189.357 267.398 189.341 268.478C189.325 269.558 190.047 270.444 190.953 270.458C191.859 270.471 192.606 269.606 192.622 268.526Z" fill="#F29111"/>
</g>
<mask id="mask1_2831_10629" style="mask-type:luminance" maskUnits="userSpaceOnUse" x="207" y="240" width="42" height="30">
<path d="M248.174 269.137C248.174 269.137 239.341 258.759 228.237 258.569C217.133 258.412 207.953 270.462 207.984 268.538C208.205 253.017 217.385 240.557 228.489 240.714C239.593 240.872 248.395 253.585 248.174 269.137Z" fill="white"/>
</mask>
<g mask="url(#mask1_2831_10629)">
<path d="M213.747 239.329C213.762 238.249 213.041 237.362 212.135 237.349C211.229 237.336 210.482 238.201 210.466 239.281C210.45 240.361 211.172 241.247 212.078 241.26C212.984 241.274 213.731 240.409 213.747 239.329Z" fill="#F29111"/>
<path d="M213.669 244.237C213.684 243.157 212.963 242.271 212.057 242.257C211.151 242.244 210.404 243.109 210.388 244.189C210.372 245.269 211.094 246.155 212 246.169C212.905 246.182 213.653 245.317 213.669 244.237Z" fill="#F29111"/>
<path d="M213.614 249.143C213.63 248.063 212.908 247.177 212.002 247.164C211.096 247.15 210.349 248.015 210.333 249.095C210.318 250.175 211.039 251.062 211.945 251.075C212.851 251.088 213.598 250.223 213.614 249.143Z" fill="#F29111"/>
<path d="M213.512 254.05C213.528 252.969 212.807 252.083 211.901 252.07C210.995 252.057 210.248 252.921 210.232 254.001C210.216 255.081 210.937 255.968 211.843 255.981C212.749 255.994 213.496 255.13 213.512 254.05Z" fill="#F29111"/>
<path d="M213.434 258.991C213.45 257.911 212.728 257.025 211.823 257.011C210.917 256.998 210.17 257.863 210.154 258.943C210.138 260.023 210.859 260.909 211.765 260.923C212.671 260.936 213.418 260.071 213.434 258.991Z" fill="#F29111"/>
<path d="M217.856 239.387C217.872 238.307 217.15 237.421 216.244 237.408C215.339 237.394 214.591 238.259 214.576 239.339C214.56 240.419 215.281 241.306 216.187 241.319C217.093 241.332 217.84 240.467 217.856 239.387Z" fill="#F29111"/>
<path d="M217.778 244.296C217.794 243.216 217.072 242.329 216.166 242.316C215.261 242.303 214.513 243.167 214.497 244.247C214.482 245.328 215.203 246.214 216.109 246.227C217.015 246.24 217.762 245.376 217.778 244.296Z" fill="#F29111"/>
<path d="M217.676 249.202C217.692 248.122 216.971 247.235 216.065 247.222C215.159 247.209 214.412 248.074 214.396 249.154C214.38 250.234 215.102 251.12 216.007 251.133C216.913 251.147 217.66 250.282 217.676 249.202Z" fill="#F29111"/>
<path d="M217.622 254.108C217.637 253.028 216.916 252.142 216.01 252.128C215.104 252.115 214.357 252.98 214.341 254.06C214.325 255.14 215.047 256.026 215.953 256.04C216.859 256.053 217.606 255.188 217.622 254.108Z" fill="#F29111"/>
<path d="M217.544 259.05C217.559 257.969 216.838 257.083 215.932 257.07C215.026 257.057 214.279 257.921 214.263 259.001C214.247 260.081 214.969 260.968 215.875 260.981C216.78 260.994 217.528 260.13 217.544 259.05Z" fill="#F29111"/>
<path d="M209.629 239.264C209.645 238.184 208.924 237.298 208.018 237.285C207.112 237.271 206.365 238.136 206.349 239.216C206.333 240.296 207.055 241.183 207.961 241.196C208.866 241.209 209.614 240.344 209.629 239.264Z" fill="#F29111"/>
<path d="M209.575 244.173C209.591 243.093 208.869 242.206 207.963 242.193C207.057 242.18 206.31 243.044 206.294 244.124C206.278 245.205 207 246.091 207.906 246.104C208.812 246.117 209.559 245.253 209.575 244.173Z" fill="#F29111"/>
<path d="M209.512 249.081C209.528 248.001 208.807 247.114 207.901 247.101C206.995 247.088 206.248 247.953 206.232 249.033C206.216 250.113 206.937 250.999 207.843 251.012C208.749 251.026 209.496 250.161 209.512 249.081Z" fill="#F29111"/>
<path d="M209.434 253.991C209.45 252.911 208.728 252.025 207.823 252.011C206.917 251.998 206.17 252.863 206.154 253.943C206.138 255.023 206.859 255.909 207.765 255.923C208.671 255.936 209.418 255.071 209.434 253.991Z" fill="#F29111"/>
<path d="M209.34 258.928C209.356 257.848 208.635 256.962 207.729 256.949C206.823 256.935 206.076 257.8 206.06 258.88C206.044 259.96 206.766 260.847 207.671 260.86C208.577 260.873 209.325 260.009 209.34 258.928Z" fill="#F29111"/>
<path d="M221.95 239.417C221.966 238.337 221.244 237.45 220.338 237.437C219.432 237.424 218.685 238.289 218.669 239.369C218.653 240.449 219.375 241.335 220.281 241.348C221.187 241.362 221.934 240.497 221.95 239.417Z" fill="#F29111"/>
<path d="M221.872 244.358C221.887 243.278 221.166 242.392 220.26 242.378C219.354 242.365 218.607 243.23 218.591 244.31C218.575 245.39 219.297 246.276 220.203 246.29C221.109 246.303 221.856 245.438 221.872 244.358Z" fill="#F29111"/>
<path d="M221.778 249.264C221.794 248.184 221.072 247.298 220.166 247.285C219.261 247.271 218.513 248.136 218.497 249.216C218.482 250.296 219.203 251.183 220.109 251.196C221.015 251.209 221.762 250.344 221.778 249.264Z" fill="#F29111"/>
<path d="M221.715 254.173C221.731 253.093 221.01 252.206 220.104 252.193C219.198 252.18 218.451 253.044 218.435 254.124C218.419 255.205 219.141 256.091 220.046 256.104C220.952 256.117 221.7 255.253 221.715 254.173Z" fill="#F29111"/>
<path d="M221.637 259.114C221.653 258.034 220.932 257.148 220.026 257.134C219.12 257.121 218.373 257.986 218.357 259.066C218.341 260.146 219.062 261.032 219.968 261.046C220.874 261.059 221.621 260.194 221.637 259.114Z" fill="#F29111"/>
<path d="M230.137 239.538C230.153 238.458 229.432 237.571 228.526 237.558C227.62 237.545 226.873 238.41 226.857 239.49C226.841 240.57 227.562 241.456 228.468 241.469C229.374 241.483 230.121 240.618 230.137 239.538Z" fill="#F29111"/>
<path d="M230.059 244.479C230.075 243.399 229.353 242.513 228.448 242.5C227.542 242.486 226.795 243.351 226.779 244.431C226.763 245.511 227.484 246.397 228.39 246.411C229.296 246.424 230.043 245.559 230.059 244.479Z" fill="#F29111"/>
<path d="M229.997 249.387C230.012 248.307 229.291 247.421 228.385 247.408C227.479 247.394 226.732 248.259 226.716 249.339C226.7 250.419 227.422 251.306 228.328 251.319C229.234 251.332 229.981 250.467 229.997 249.387Z" fill="#F29111"/>
<path d="M229.919 254.296C229.934 253.216 229.213 252.329 228.307 252.316C227.401 252.303 226.654 253.167 226.638 254.248C226.622 255.328 227.344 256.214 228.25 256.227C229.155 256.24 229.903 255.376 229.919 254.296Z" fill="#F29111"/>
<path d="M229.864 259.231C229.88 258.151 229.158 257.265 228.252 257.251C227.346 257.238 226.599 258.103 226.583 259.183C226.568 260.263 227.289 261.149 228.195 261.163C229.101 261.176 229.848 260.311 229.864 259.231Z" fill="#F29111"/>
<path d="M242.442 239.719C242.458 238.639 241.736 237.753 240.83 237.74C239.925 237.726 239.177 238.591 239.162 239.671C239.146 240.751 239.867 241.638 240.773 241.651C241.679 241.664 242.426 240.8 242.442 239.719Z" fill="#F29111"/>
<path d="M242.387 244.661C242.403 243.581 241.682 242.694 240.776 242.681C239.87 242.668 239.123 243.533 239.107 244.613C239.091 245.693 239.812 246.579 240.718 246.592C241.624 246.606 242.371 245.741 242.387 244.661Z" fill="#F29111"/>
<path d="M242.309 249.569C242.325 248.489 241.603 247.603 240.698 247.589C239.792 247.576 239.045 248.441 239.029 249.521C239.013 250.601 239.734 251.487 240.64 251.501C241.546 251.514 242.293 250.649 242.309 249.569Z" fill="#F29111"/>
<path d="M242.247 254.475C242.262 253.395 241.541 252.509 240.635 252.496C239.729 252.482 238.982 253.347 238.966 254.427C238.95 255.507 239.672 256.394 240.578 256.407C241.484 256.42 242.231 255.555 242.247 254.475Z" fill="#F29111"/>
<path d="M242.168 259.417C242.184 258.337 241.463 257.45 240.557 257.437C239.651 257.424 238.904 258.288 238.888 259.369C238.872 260.449 239.594 261.335 240.5 261.348C241.405 261.362 242.153 260.497 242.168 259.417Z" fill="#F29111"/>
<path d="M234.239 239.596C234.255 238.516 233.533 237.63 232.627 237.617C231.721 237.603 230.974 238.468 230.958 239.548C230.943 240.628 231.664 241.515 232.57 241.528C233.476 241.541 234.223 240.676 234.239 239.596Z" fill="#F29111"/>
<path d="M234.161 244.538C234.177 243.458 233.455 242.571 232.549 242.558C231.643 242.545 230.896 243.41 230.88 244.49C230.864 245.57 231.586 246.456 232.492 246.469C233.398 246.483 234.145 245.618 234.161 244.538Z" fill="#F29111"/>
<path d="M234.106 249.446C234.122 248.366 233.4 247.48 232.494 247.466C231.589 247.453 230.841 248.318 230.826 249.398C230.81 250.478 231.531 251.364 232.437 251.378C233.343 251.391 234.09 250.526 234.106 249.446Z" fill="#F29111"/>
<path d="M234.028 254.354C234.044 253.274 233.322 252.388 232.416 252.375C231.511 252.361 230.763 253.226 230.747 254.306C230.732 255.386 231.453 256.272 232.359 256.286C233.265 256.299 234.012 255.434 234.028 254.354Z" fill="#F29111"/>
<path d="M233.965 259.296C233.981 258.216 233.26 257.329 232.354 257.316C231.448 257.303 230.701 258.167 230.685 259.247C230.669 260.328 231.391 261.214 232.296 261.227C233.202 261.24 233.95 260.376 233.965 259.296Z" fill="#F29111"/>
<path d="M246.544 239.784C246.559 238.704 245.838 237.817 244.932 237.804C244.026 237.791 243.279 238.656 243.263 239.736C243.247 240.816 243.969 241.702 244.875 241.715C245.78 241.729 246.528 240.864 246.544 239.784Z" fill="#F29111"/>
<path d="M246.481 244.719C246.497 243.639 245.775 242.753 244.869 242.74C243.964 242.726 243.216 243.591 243.201 244.671C243.185 245.751 243.906 246.638 244.812 246.651C245.718 246.664 246.465 245.8 246.481 244.719Z" fill="#F29111"/>
<path d="M246.403 249.628C246.419 248.548 245.697 247.661 244.791 247.648C243.886 247.635 243.138 248.499 243.122 249.579C243.107 250.66 243.828 251.546 244.734 251.559C245.64 251.573 246.387 250.708 246.403 249.628Z" fill="#F29111"/>
<path d="M246.348 254.538C246.364 253.458 245.643 252.571 244.737 252.558C243.831 252.545 243.084 253.41 243.068 254.49C243.052 255.57 243.773 256.456 244.679 256.469C245.585 256.483 246.332 255.618 246.348 254.538Z" fill="#F29111"/>
<path d="M246.27 259.475C246.286 258.395 245.564 257.509 244.659 257.496C243.753 257.482 243.005 258.347 242.99 259.427C242.974 260.507 243.695 261.394 244.601 261.407C245.507 261.42 246.254 260.555 246.27 259.475Z" fill="#F29111"/>
<path d="M226.059 239.479C226.075 238.399 225.353 237.513 224.448 237.5C223.542 237.486 222.795 238.351 222.779 239.431C222.763 240.511 223.484 241.397 224.39 241.411C225.296 241.424 226.043 240.559 226.059 239.479Z" fill="#F29111"/>
<path d="M225.958 244.417C225.973 243.337 225.252 242.45 224.346 242.437C223.44 242.424 222.693 243.289 222.677 244.369C222.661 245.449 223.383 246.335 224.289 246.348C225.195 246.362 225.942 245.497 225.958 244.417Z" fill="#F29111"/>
<path d="M225.903 249.323C225.919 248.243 225.197 247.357 224.291 247.343C223.386 247.33 222.638 248.195 222.622 249.275C222.607 250.355 223.328 251.241 224.234 251.255C225.14 251.268 225.887 250.403 225.903 249.323Z" fill="#F29111"/>
<path d="M225.825 254.231C225.841 253.151 225.119 252.265 224.213 252.251C223.307 252.238 222.56 253.103 222.544 254.183C222.528 255.263 223.25 256.149 224.156 256.163C225.062 256.176 225.809 255.311 225.825 254.231Z" fill="#F29111"/>
<path d="M225.762 259.173C225.778 258.093 225.057 257.206 224.151 257.193C223.245 257.18 222.498 258.044 222.482 259.124C222.466 260.205 223.187 261.091 224.093 261.104C224.999 261.117 225.746 260.253 225.762 259.173Z" fill="#F29111"/>
<path d="M238.34 239.661C238.356 238.581 237.635 237.694 236.729 237.681C235.823 237.668 235.076 238.533 235.06 239.613C235.044 240.693 235.766 241.579 236.671 241.592C237.577 241.606 238.325 240.741 238.34 239.661Z" fill="#F29111"/>
<path d="M238.262 244.596C238.278 243.516 237.557 242.63 236.651 242.617C235.745 242.603 234.998 243.468 234.982 244.548C234.966 245.628 235.687 246.515 236.593 246.528C237.499 246.541 238.246 245.676 238.262 244.596Z" fill="#F29111"/>
<path d="M238.2 249.505C238.216 248.425 237.494 247.538 236.588 247.525C235.682 247.512 234.935 248.376 234.919 249.456C234.903 250.537 235.625 251.423 236.531 251.436C237.437 251.449 238.184 250.585 238.2 249.505Z" fill="#F29111"/>
<path d="M238.122 254.417C238.137 253.337 237.416 252.45 236.51 252.437C235.604 252.424 234.857 253.289 234.841 254.369C234.825 255.449 235.547 256.335 236.453 256.348C237.359 256.362 238.106 255.497 238.122 254.417Z" fill="#F29111"/>
<path d="M238.067 259.354C238.083 258.274 237.361 257.388 236.455 257.375C235.55 257.361 234.802 258.226 234.787 259.306C234.771 260.386 235.492 261.272 236.398 261.286C237.304 261.299 238.051 260.434 238.067 259.354Z" fill="#F29111"/>
<path d="M250.645 239.842C250.661 238.762 249.939 237.876 249.034 237.863C248.128 237.849 247.38 238.714 247.365 239.794C247.349 240.874 248.07 241.761 248.976 241.774C249.882 241.787 250.629 240.923 250.645 239.842Z" fill="#F29111"/>
<path d="M250.59 244.778C250.606 243.698 249.885 242.812 248.979 242.798C248.073 242.785 247.326 243.65 247.31 244.73C247.294 245.81 248.016 246.696 248.921 246.71C249.827 246.723 250.575 245.858 250.59 244.778Z" fill="#F29111"/>
<path d="M250.512 249.69C250.528 248.61 249.807 247.724 248.901 247.71C247.995 247.697 247.248 248.562 247.232 249.642C247.216 250.722 247.937 251.608 248.843 251.622C249.749 251.635 250.496 250.77 250.512 249.69Z" fill="#F29111"/>
<path d="M250.45 254.596C250.466 253.516 249.744 252.63 248.838 252.617C247.932 252.603 247.185 253.468 247.169 254.548C247.153 255.628 247.875 256.515 248.781 256.528C249.687 256.541 250.434 255.676 250.45 254.596Z" fill="#F29111"/>
<path d="M250.356 259.534C250.372 258.454 249.65 257.567 248.744 257.554C247.839 257.541 247.091 258.406 247.076 259.486C247.06 260.566 247.781 261.452 248.687 261.465C249.593 261.479 250.34 260.614 250.356 259.534Z" fill="#F29111"/>
<path d="M213.379 263.899C213.395 262.819 212.674 261.933 211.768 261.919C210.862 261.906 210.115 262.771 210.099 263.851C210.083 264.931 210.805 265.817 211.711 265.831C212.616 265.844 213.364 264.979 213.379 263.899Z" fill="#F29111"/>
<path d="M213.301 268.807C213.317 267.727 212.596 266.841 211.69 266.828C210.784 266.814 210.037 267.679 210.021 268.759C210.005 269.839 210.727 270.726 211.632 270.739C212.538 270.752 213.285 269.887 213.301 268.807Z" fill="#F29111"/>
<path d="M217.481 263.958C217.497 262.878 216.775 261.991 215.87 261.978C214.964 261.965 214.216 262.83 214.201 263.91C214.185 264.99 214.906 265.876 215.812 265.889C216.718 265.903 217.465 265.038 217.481 263.958Z" fill="#F29111"/>
<path d="M217.403 268.866C217.419 267.786 216.697 266.9 215.791 266.886C214.886 266.873 214.138 267.738 214.122 268.818C214.107 269.898 214.828 270.784 215.734 270.798C216.64 270.811 217.387 269.946 217.403 268.866Z" fill="#F29111"/>
<path d="M209.262 263.835C209.278 262.755 208.557 261.868 207.651 261.855C206.745 261.842 205.998 262.706 205.982 263.787C205.966 264.867 206.687 265.753 207.593 265.766C208.499 265.78 209.246 264.915 209.262 263.835Z" fill="#F29111"/>
<path d="M209.2 268.743C209.216 267.663 208.494 266.776 207.588 266.763C206.682 266.75 205.935 267.615 205.919 268.695C205.903 269.775 206.625 270.661 207.531 270.674C208.437 270.688 209.184 269.823 209.2 268.743Z" fill="#F29111"/>
<path d="M221.583 264.022C221.598 262.942 220.877 262.056 219.971 262.042C219.065 262.029 218.318 262.894 218.302 263.974C218.286 265.054 219.008 265.94 219.914 265.954C220.82 265.967 221.567 265.102 221.583 264.022Z" fill="#F29111"/>
<path d="M221.504 268.928C221.52 267.848 220.799 266.962 219.893 266.949C218.987 266.935 218.24 267.8 218.224 268.88C218.208 269.96 218.93 270.847 219.836 270.86C220.741 270.873 221.489 270.009 221.504 268.928Z" fill="#F29111"/>
<path d="M229.786 264.143C229.802 263.063 229.08 262.177 228.174 262.164C227.268 262.15 226.521 263.015 226.505 264.095C226.489 265.175 227.211 266.062 228.117 266.075C229.023 266.088 229.77 265.223 229.786 264.143Z" fill="#F29111"/>
<path d="M229.731 269.05C229.747 267.969 229.025 267.083 228.119 267.07C227.214 267.057 226.466 267.921 226.451 269.001C226.435 270.081 227.156 270.968 228.062 270.981C228.968 270.994 229.715 270.13 229.731 269.05Z" fill="#F29111"/>
<path d="M242.106 264.323C242.122 263.243 241.4 262.357 240.494 262.343C239.589 262.33 238.841 263.195 238.826 264.275C238.81 265.355 239.531 266.241 240.437 266.255C241.343 266.268 242.09 265.403 242.106 264.323Z" fill="#F29111"/>
<path d="M242.012 269.231C242.028 268.151 241.307 267.265 240.401 267.251C239.495 267.238 238.748 268.103 238.732 269.183C238.716 270.263 239.437 271.149 240.343 271.163C241.249 271.176 241.996 270.311 242.012 269.231Z" fill="#F29111"/>
<path d="M233.887 264.202C233.903 263.122 233.182 262.235 232.276 262.222C231.37 262.209 230.623 263.074 230.607 264.154C230.591 265.234 231.312 266.12 232.218 266.133C233.124 266.147 233.871 265.282 233.887 264.202Z" fill="#F29111"/>
<path d="M233.825 269.108C233.841 268.028 233.119 267.142 232.213 267.128C231.307 267.115 230.56 267.98 230.544 269.06C230.528 270.14 231.25 271.026 232.156 271.04C233.062 271.053 233.809 270.188 233.825 269.108Z" fill="#F29111"/>
<path d="M246.169 264.382C246.184 263.302 245.463 262.415 244.557 262.402C243.651 262.389 242.904 263.253 242.888 264.333C242.872 265.414 243.594 266.3 244.5 266.313C245.405 266.326 246.153 265.462 246.169 264.382Z" fill="#F29111"/>
<path d="M246.114 269.29C246.13 268.21 245.408 267.323 244.502 267.31C243.596 267.297 242.849 268.162 242.833 269.242C242.818 270.322 243.539 271.208 244.445 271.221C245.351 271.235 246.098 270.37 246.114 269.29Z" fill="#F29111"/>
<path d="M225.684 264.081C225.7 263.001 224.978 262.114 224.073 262.101C223.167 262.088 222.42 262.953 222.404 264.033C222.388 265.113 223.109 265.999 224.015 266.012C224.921 266.026 225.668 265.161 225.684 264.081Z" fill="#F29111"/>
<path d="M225.622 268.987C225.637 267.907 224.916 267.021 224.01 267.007C223.104 266.994 222.357 267.859 222.341 268.939C222.325 270.019 223.047 270.905 223.953 270.919C224.859 270.932 225.606 270.067 225.622 268.987Z" fill="#F29111"/>
<path d="M237.989 264.26C238.005 263.18 237.283 262.294 236.377 262.281C235.471 262.267 234.724 263.132 234.708 264.212C234.693 265.292 235.414 266.179 236.32 266.192C237.226 266.205 237.973 265.341 237.989 264.26Z" fill="#F29111"/>
<path d="M237.887 269.167C237.903 268.087 237.182 267.2 236.276 267.187C235.37 267.174 234.623 268.038 234.607 269.119C234.591 270.199 235.312 271.085 236.218 271.098C237.124 271.112 237.871 270.247 237.887 269.167Z" fill="#F29111"/>
<path d="M250.278 264.44C250.294 263.36 249.572 262.474 248.666 262.46C247.761 262.447 247.013 263.312 246.997 264.392C246.982 265.472 247.703 266.358 248.609 266.372C249.515 266.385 250.262 265.52 250.278 264.44Z" fill="#F29111"/>
<path d="M250.215 269.354C250.231 268.274 249.51 267.388 248.604 267.375C247.698 267.361 246.951 268.226 246.935 269.306C246.919 270.386 247.641 271.272 248.546 271.286C249.452 271.299 250.2 270.434 250.215 269.354Z" fill="#F29111"/>
</g>
<g filter="url(#filter2_d_2831_10629)">
<path d="M267.596 338.791L273.558 324.438C274.284 322.703 275.735 321.378 277.533 320.842L291.382 316.615C294.158 315.763 297.123 316.93 298.637 319.391L329.237 370.242C330.909 373.018 330.183 376.646 327.565 378.57L325.483 380.085C322.107 382.577 317.502 382.545 314.158 380.022L269.584 346.236C267.312 344.501 266.492 341.441 267.596 338.791Z" fill="white"/>
<path d="M314.192 380.02L286.211 358.758L317.315 350.367L329.271 370.241C330.943 373.017 330.217 376.645 327.599 378.569L325.549 380.083C322.142 382.575 317.536 382.544 314.192 380.02Z" fill="#F29111"/>
</g>
<g filter="url(#filter3_d_2831_10629)">
<path d="M152.192 303.616L162.633 320.998C163.895 323.111 164.4 325.73 163.958 328.127L160.646 346.14C159.952 349.988 157.05 352.386 153.738 351.881L101.908 344.089C98.501 343.585 95.6303 340.115 95.2202 335.951L94.8101 331.818C94.2423 326.361 96.6082 321.408 100.678 319.578L143.832 300.209C146.734 298.884 150.204 300.304 152.192 303.616Z" fill="white"/>
<path d="M143.937 300.437C146.604 299.219 149.826 300.427 151.791 303.447L151.978 303.745L162.419 321.126C163.651 323.19 164.143 325.747 163.713 328.082L160.4 346.095V346.096C159.724 349.845 156.922 352.113 153.775 351.634H153.774L101.945 343.842H101.944C98.6797 343.358 95.8707 340.007 95.4688 335.926L95.0586 331.793V331.792C94.4986 326.409 96.8362 321.58 100.78 319.807L143.935 300.438L143.937 300.437Z" stroke="black" stroke-opacity="0.3" stroke-width="0.5"/>
</g>
<path d="M119.642 305.07C105.762 305.07 94.5312 316.332 94.5312 330.181C94.5312 344.061 105.793 355.291 119.642 355.291C133.522 355.291 144.752 344.029 144.752 330.181C144.752 316.301 133.522 305.07 119.642 305.07ZM119.642 348.509C109.515 348.509 101.282 340.307 101.282 330.149C101.282 320.023 109.484 311.79 119.642 311.79C129.768 311.79 138.001 319.991 138.001 330.149C138.001 340.307 129.768 348.509 119.642 348.509Z" fill="#2C4D6D"/>
<path d="M119.641 308.506C107.653 308.506 97.9688 318.222 97.9688 330.178C97.9688 342.134 107.685 351.85 119.641 351.85C131.628 351.85 141.313 342.134 141.313 330.178C141.313 318.222 131.628 308.506 119.641 308.506ZM119.641 348.537C109.514 348.537 101.281 340.336 101.281 330.178C101.281 320.052 109.483 311.818 119.641 311.818C129.798 311.818 138 320.02 138 330.178C138 340.304 129.767 348.537 119.641 348.537Z" fill="#253B4F"/>
<path d="M152.649 292.447C133.658 292.447 118.39 295.728 118.516 299.766L120.693 365.192C120.819 368.693 135.109 371.532 152.649 371.532C170.188 371.532 184.479 368.725 184.605 365.192L186.781 299.766C186.876 295.728 171.608 292.447 152.649 292.447Z" fill="#2C4D6D"/>
<path d="M180.562 295.543C180.846 295.638 181.13 295.701 181.383 295.795C181.099 295.701 180.846 295.606 180.562 295.543Z" fill="#253B4F"/>
<path d="M177.5 294.723C177.595 294.786 177.689 294.817 177.815 294.786C177.721 294.786 177.626 294.754 177.5 294.723Z" fill="#253B4F"/>
<path d="M178.578 294.973C178.894 295.067 179.241 295.13 179.556 295.225C179.241 295.13 178.925 295.067 178.578 294.973Z" fill="#253B4F"/>
<path d="M177.812 294.814C178.065 294.878 178.286 294.941 178.538 295.004C178.317 294.909 178.065 294.878 177.812 294.814Z" fill="#253B4F"/>
<path d="M182.944 296.362C182.723 296.267 182.502 296.204 182.281 296.109C182.502 296.172 182.723 296.267 182.944 296.362Z" fill="#253B4F"/>
<path d="M182.171 296.079C181.919 295.984 181.698 295.921 181.445 295.826C181.698 295.889 181.95 295.984 182.171 296.079Z" fill="#253B4F"/>
<path d="M183.654 296.674C183.464 296.58 183.275 296.517 183.086 296.422C183.275 296.485 183.464 296.58 183.654 296.674Z" fill="#253B4F"/>
<path d="M185.855 298.034C185.76 297.939 185.634 297.845 185.508 297.75C185.602 297.813 185.697 297.908 185.76 297.971C185.792 298.002 185.823 298.034 185.855 298.034Z" fill="#253B4F"/>
<path d="M185.442 297.718C185.315 297.623 185.158 297.497 185 297.402C185.126 297.465 185.221 297.56 185.347 297.623C185.379 297.655 185.41 297.686 185.442 297.718Z" fill="#253B4F"/>
<path d="M186.672 299.233C186.641 299.139 186.641 299.076 186.609 299.013C186.578 298.949 186.546 298.886 186.515 298.855C186.483 298.792 186.451 298.729 186.42 298.666C186.388 298.602 186.357 298.571 186.294 298.508L177.461 369.139C178.533 368.886 179.48 368.602 180.332 368.287C180.363 368.287 180.395 368.255 180.426 368.255H180.458C180.616 368.192 180.773 368.129 180.963 368.066C181.026 368.035 181.089 368.035 181.12 368.003C181.278 367.94 181.404 367.877 181.562 367.845C181.593 367.814 181.657 367.814 181.688 367.782C181.72 367.782 181.751 367.751 181.783 367.751C181.909 367.688 182.035 367.625 182.161 367.593C182.224 367.561 182.287 367.53 182.351 367.498C182.477 367.435 182.571 367.372 182.666 367.341C182.729 367.309 182.761 367.278 182.824 367.246C182.981 367.151 183.139 367.057 183.297 366.962C183.36 366.931 183.455 366.867 183.518 366.804C183.581 366.773 183.644 366.71 183.675 366.678C183.739 366.615 183.802 366.584 183.865 366.52C183.896 366.489 183.959 366.426 183.991 366.394C183.991 366.394 183.991 366.394 184.022 366.363C184.054 366.331 184.117 366.268 184.149 366.205C184.18 366.173 184.212 366.11 184.243 366.079C184.243 366.047 184.275 366.047 184.275 366.047C184.306 366.016 184.338 365.953 184.369 365.921C184.401 365.889 184.433 365.826 184.433 365.795C184.464 365.732 184.496 365.669 184.527 365.606C184.527 365.574 184.559 365.543 184.559 365.511C184.59 365.416 184.59 365.29 184.59 365.196L186.767 299.77C186.767 299.643 186.767 299.517 186.735 299.391C186.735 299.36 186.704 299.296 186.704 299.265L186.672 299.233Z" fill="#253B4F"/>
<path d="M184.439 297.054C184.376 297.022 184.344 296.991 184.281 296.959C184.344 296.991 184.376 297.085 184.439 297.054Z" fill="#253B4F"/>
<path d="M186.133 298.316C186.164 298.379 186.227 298.411 186.259 298.474C186.259 298.506 186.291 298.506 186.291 298.506C186.259 298.443 186.196 298.411 186.133 298.316Z" fill="#253B4F"/>
<path d="M186.742 299.737C186.616 303.743 171.348 306.961 152.61 306.961C133.903 306.961 118.635 303.743 118.477 299.737C118.351 295.699 133.619 292.418 152.61 292.418C171.6 292.45 186.869 295.73 186.742 299.737Z" fill="#35536F"/>
<path d="M182.817 299.733C182.722 302.856 169.22 305.38 152.627 305.38C136.034 305.38 122.501 302.856 122.438 299.733C122.343 296.579 135.876 294.023 152.627 294.023C169.378 294.023 182.911 296.61 182.817 299.733Z" fill="#253B4F"/>
<path d="M175.874 303.332C170.354 302.07 161.994 301.281 152.593 301.281C143.224 301.281 134.865 302.07 129.312 303.332C134.865 304.594 143.224 305.382 152.593 305.382C161.962 305.382 170.322 304.594 175.874 303.332Z" fill="#BB9777"/>
<path d="M131.53 331.88C129.48 331.88 128.281 330.366 128.281 327.148C128.281 323.836 129.859 322.132 131.909 322.132C132.382 322.132 132.855 322.259 133.297 322.479C133.739 322.7 134.117 323.016 134.401 323.426L133.77 324.057C133.265 323.615 132.635 323.363 132.004 323.331C130.679 323.331 129.827 324.53 129.827 326.864C129.827 329.577 130.616 330.65 131.814 330.65C132.256 330.65 132.698 330.524 133.045 330.24V327.558H131.846V326.423H134.527V330.744C133.676 331.502 132.635 331.88 131.53 331.88ZM139.543 326.044C139.354 325.981 139.165 325.95 138.975 325.95C138.565 325.95 138.218 326.265 137.524 327.117V331.722H136.136V324.719H137.303L137.43 325.918C138.155 324.94 138.628 324.593 139.133 324.593C139.354 324.593 139.543 324.656 139.732 324.751L139.543 326.044ZM144.496 331.722L144.37 330.965C143.802 331.533 143.045 331.849 142.256 331.849C140.9 331.849 140.206 331.155 140.206 329.924C140.206 328.505 141.278 327.527 143.676 327.527H144.18V326.927C144.18 326.076 143.739 325.666 142.761 325.666C142.067 325.697 141.404 325.823 140.773 326.076L140.553 325.192C141.373 324.814 142.224 324.625 143.108 324.625C144.811 324.625 145.537 325.476 145.537 326.738V331.754L144.496 331.722ZM144.212 328.473H143.612C142.067 328.473 141.625 329.009 141.625 329.735C141.625 329.893 141.625 330.019 141.688 330.177C141.751 330.334 141.814 330.429 141.909 330.555C142.004 330.65 142.13 330.744 142.256 330.776C142.382 330.808 142.54 330.839 142.666 330.839C143.234 330.808 143.77 330.555 144.18 330.145V328.473H144.212ZM151.152 331.722L151.057 330.965C150.489 331.533 149.732 331.849 148.944 331.849C147.587 331.849 146.893 331.155 146.893 329.924C146.893 328.505 147.966 327.527 150.363 327.527H150.868V326.927C150.868 326.076 150.426 325.666 149.448 325.666C148.754 325.697 148.092 325.823 147.461 326.076L147.24 325.192C148.06 324.814 148.912 324.625 149.795 324.625C151.499 324.625 152.224 325.476 152.224 326.738V331.754L151.152 331.722ZM150.836 328.473H150.237C148.66 328.473 148.25 329.009 148.25 329.735C148.25 329.893 148.25 330.019 148.313 330.177C148.376 330.303 148.439 330.429 148.534 330.555C148.628 330.65 148.754 330.744 148.881 330.776C149.007 330.839 149.165 330.839 149.291 330.839C149.859 330.808 150.395 330.555 150.805 330.145V328.473H150.836ZM155.127 331.817C154.275 331.817 153.896 331.565 153.896 330.429V321.754H155.316V329.861C155.316 330.681 155.411 330.808 155.821 330.808C155.947 330.808 156.105 330.808 156.199 330.808L156.262 331.691C155.884 331.785 155.505 331.849 155.127 331.817Z" fill="white"/>
<path d="M161.151 331.725H159.384C158.312 328.634 157.428 325.479 156.734 322.262H158.343C158.816 324.785 159.605 327.467 160.394 330.148C161.151 327.561 161.782 324.912 162.223 322.262H163.674C163.107 325.479 162.255 328.634 161.151 331.725ZM172.444 331.725C172.381 328.981 172.192 326.11 172.003 324.186L169.668 331.725H168.438L166.103 324.186C165.914 326.268 165.82 328.981 165.756 331.725H164.337C164.432 328.666 164.621 325.353 164.999 322.262H166.955L169.163 329.233L171.372 322.262H173.201C173.548 325.322 173.832 328.666 173.895 331.725H172.444ZM175.031 330.779H174.684V330.59H175.599V330.779H175.252V331.757H174.999V330.779H175.031ZM175.851 330.558H176.23L176.482 331.41L176.734 330.558H177.113V331.725H176.861V330.748L176.545 331.725H176.356L176.072 330.748V331.725H175.851V330.558Z" fill="#F29111"/>
<g filter="url(#filter4_d_2831_10629)">
<path d="M88.5951 318.163C88.0273 316.459 89.573 314.756 91.6551 314.756H104.936C108.879 314.756 112.065 317.469 112.065 320.844V342.453C112.065 345.797 108.879 348.541 104.936 348.541H98.3743L88.5951 318.163Z" fill="#F29111"/>
</g>
<defs>
<filter id="filter0_d_2831_10629" x="145.555" y="102.062" width="55.3438" height="106.025" filterUnits="userSpaceOnUse" color-interpolation-filters="sRGB">
<feFlood flood-opacity="0" result="BackgroundImageFix"/>
<feColorMatrix in="SourceAlpha" type="matrix" values="0 0 0 0 0 0 0 0 0 0 0 0 0 0 0 0 0 0 127 0" result="hardAlpha"/>
<feOffset/>
<feGaussianBlur stdDeviation="4"/>
<feComposite in2="hardAlpha" operator="out"/>
<feColorMatrix type="matrix" values="0 0 0 0 0 0 0 0 0 0 0 0 0 0 0 0 0 0 0.25 0"/>
<feBlend mode="normal" in2="BackgroundImageFix" result="effect1_dropShadow_2831_10629"/>
<feBlend mode="normal" in="SourceGraphic" in2="effect1_dropShadow_2831_10629" result="shape"/>
</filter>
<filter id="filter1_d_2831_10629" x="124.539" y="91.6133" width="295.203" height="266.674" filterUnits="userSpaceOnUse" color-interpolation-filters="sRGB">
<feFlood flood-opacity="0" result="BackgroundImageFix"/>
<feColorMatrix in="SourceAlpha" type="matrix" values="0 0 0 0 0 0 0 0 0 0 0 0 0 0 0 0 0 0 127 0" result="hardAlpha"/>
<feOffset/>
<feGaussianBlur stdDeviation="4"/>
<feComposite in2="hardAlpha" operator="out"/>
<feColorMatrix type="matrix" values="0 0 0 0 0 0 0 0 0 0 0 0 0 0 0 0 0 0 0.25 0"/>
<feBlend mode="normal" in2="BackgroundImageFix" result="effect1_dropShadow_2831_10629"/>
<feBlend mode="normal" in="SourceGraphic" in2="effect1_dropShadow_2831_10629" result="shape"/>
</filter>
<filter id="filter2_d_2831_10629" x="259.109" y="308.338" width="79.0586" height="81.5967" filterUnits="userSpaceOnUse" color-interpolation-filters="sRGB">
<feFlood flood-opacity="0" result="BackgroundImageFix"/>
<feColorMatrix in="SourceAlpha" type="matrix" values="0 0 0 0 0 0 0 0 0 0 0 0 0 0 0 0 0 0 127 0" result="hardAlpha"/>
<feOffset/>
<feGaussianBlur stdDeviation="4"/>
<feComposite in2="hardAlpha" operator="out"/>
<feColorMatrix type="matrix" values="0 0 0 0 0 0 0 0 0 0 0 0 0 0 0 0 0 0 0.25 0"/>
<feBlend mode="normal" in2="BackgroundImageFix" result="effect1_dropShadow_2831_10629"/>
<feBlend mode="normal" in="SourceGraphic" in2="effect1_dropShadow_2831_10629" result="shape"/>
</filter>
<filter id="filter3_d_2831_10629" x="90.7266" y="299.717" width="77.3906" height="60.2314" filterUnits="userSpaceOnUse" color-interpolation-filters="sRGB">
<feFlood flood-opacity="0" result="BackgroundImageFix"/>
<feColorMatrix in="SourceAlpha" type="matrix" values="0 0 0 0 0 0 0 0 0 0 0 0 0 0 0 0 0 0 127 0" result="hardAlpha"/>
<feOffset dy="4"/>
<feGaussianBlur stdDeviation="2"/>
<feComposite in2="hardAlpha" operator="out"/>
<feColorMatrix type="matrix" values="0 0 0 0 0 0 0 0 0 0 0 0 0 0 0 0 0 0 0.25 0"/>
<feBlend mode="normal" in2="BackgroundImageFix" result="effect1_dropShadow_2831_10629"/>
<feBlend mode="normal" in="SourceGraphic" in2="effect1_dropShadow_2831_10629" result="shape"/>
</filter>
<filter id="filter4_d_2831_10629" x="84.4766" y="314.756" width="31.5898" height="41.7852" filterUnits="userSpaceOnUse" color-interpolation-filters="sRGB">
<feFlood flood-opacity="0" result="BackgroundImageFix"/>
<feColorMatrix in="SourceAlpha" type="matrix" values="0 0 0 0 0 0 0 0 0 0 0 0 0 0 0 0 0 0 127 0" result="hardAlpha"/>
<feOffset dy="4"/>
<feGaussianBlur stdDeviation="2"/>
<feComposite in2="hardAlpha" operator="out"/>
<feColorMatrix type="matrix" values="0 0 0 0 0 0 0 0 0 0 0 0 0 0 0 0 0 0 0.25 0"/>
<feBlend mode="normal" in2="BackgroundImageFix" result="effect1_dropShadow_2831_10629"/>
<feBlend mode="normal" in="SourceGraphic" in2="effect1_dropShadow_2831_10629" result="shape"/>
</filter>
</defs>
</svg>
