<svg width="500" height="500" viewBox="0 0 500 500" fill="none" xmlns="http://www.w3.org/2000/svg">
<path d="M247 448C317.14 448 374 437.479 374 424.5C374 411.521 317.14 401 247 401C176.86 401 120 411.521 120 424.5C120 437.479 176.86 448 247 448Z" fill="#A4AFBF" fill-opacity="0.7"/>
<g filter="url(#filter0_d_2831_9967)">
<path d="M190.286 104.333C181.422 126.121 174.733 161.545 172.266 178.429L216.847 159.142C220.808 128.588 216.424 106.119 212.398 94.9172C211.294 91.8001 207.788 90.5013 204.735 91.7352L202.982 92.417C197.332 94.625 192.559 98.7162 190.286 104.333Z" fill="white"/>
</g>
<path d="M217.889 123.232C204.121 100.861 188.958 115.764 183.211 125.765C189.413 104.692 189.055 99.6267 201.167 93.1977C211.719 87.5804 212.888 95.8277 213.603 97.8084C214.284 99.6592 217.402 113.621 217.889 123.232Z" fill="#FF9100"/>
<g filter="url(#filter1_d_2831_9967)">
<path d="M160.655 272.561L165.915 285.809C166.565 287.432 166.435 289.251 165.59 290.777L159.259 302.271C157.895 304.706 155.005 305.875 152.343 304.999L110.717 291.556C107.957 290.679 106.268 287.919 106.755 285.062L107.21 282.237C107.827 278.503 110.782 275.581 114.516 274.997L154.291 268.925C157.018 268.535 159.648 270.029 160.655 272.561Z" fill="white"/>
</g>
<g filter="url(#filter2_d_2831_9967)">
<g filter="url(#filter3_d_2831_9967)">
<path fill-rule="evenodd" clip-rule="evenodd" d="M350.396 223.04C382.638 203.818 433.713 166.738 450.045 142.385C451.571 140.112 451.182 137.19 449.396 135.145L448.876 134.56C443.844 128.813 435.889 126.508 428.55 128.781C399.328 137.872 359.39 151.607 314.906 178.492C301.724 168.718 285.976 161.348 268.442 157.419C208.73 144.009 150.739 175.699 138.985 228.203C127.231 280.706 166.13 334.119 225.874 347.497C285.619 360.874 343.61 329.184 355.364 276.68C359.487 258.335 357.409 239.859 350.396 223.04Z" fill="white"/>
</g>
</g>
<path d="M449.797 142.476C442.168 152.604 428.561 168.885 403.187 188C403.187 188 417.054 160.744 411.559 153.352C406.064 145.928 371.5 149.5 371.5 149.5C385.172 144.062 413.272 131.763 431.017 128.311C436.997 127.139 442.944 129.386 447.728 133.261L448.73 134.075C451.251 136.094 451.768 139.839 449.797 142.476Z" fill="#FF9100"/>
<path d="M449.84 142.352C433.236 168.2 382.008 205.584 351.02 223L346 212.273L448.585 141.188C449.422 140.607 450.387 141.479 449.84 142.352Z" fill="#E9E6E6"/>
<path d="M289.65 267.211C282.051 301.096 246.425 328.613 203.979 319.094C161.533 309.575 134.708 268.056 142.275 234.171C149.874 200.286 187.254 179.818 229.7 189.337C272.146 198.889 297.25 233.326 289.65 267.211Z" fill="#35373A"/>
<path fill-rule="evenodd" clip-rule="evenodd" d="M186.917 274.698C185.922 274.655 184.731 275.177 183.645 276.569C182.56 277.96 181.731 280.066 181.613 282.553L181.613 282.561L181.612 282.569C181.464 285.055 182.061 287.216 183.006 288.716C183.961 290.232 185.081 290.861 186.053 290.902C187.048 290.945 188.239 290.423 189.325 289.031C190.41 287.64 191.238 285.534 191.357 283.047C191.476 280.555 190.879 278.385 189.959 276.877C189.006 275.366 187.887 274.739 186.917 274.698ZM181.597 274.972C183.044 273.117 184.97 272.015 187.027 272.103C189.108 272.191 190.909 273.51 192.162 275.501L192.167 275.508L192.171 275.515C193.393 277.514 194.092 280.212 193.951 283.17C193.81 286.138 192.821 288.772 191.373 290.629C189.926 292.484 188 293.585 185.943 293.498C183.862 293.409 182.061 292.09 180.808 290.1C179.545 288.094 178.844 285.387 179.019 282.422C179.161 279.458 180.15 276.826 181.597 274.972Z" fill="#FF9100"/>
<mask id="mask0_2831_9967" style="mask-type:luminance" maskUnits="userSpaceOnUse" x="163" y="211" width="33" height="47">
<path d="M194.615 237.69C197.398 225.266 192.931 213.688 184.636 211.83C176.342 209.972 167.362 218.537 164.579 230.961C161.795 243.385 166.263 254.963 174.557 256.821C182.852 258.68 191.832 250.114 194.615 237.69Z" fill="white"/>
</mask>
<g mask="url(#mask0_2831_9967)">
<path d="M170.382 215.167C170.614 214.134 170.248 213.173 169.565 213.021C168.883 212.868 168.142 213.581 167.911 214.613C167.68 215.645 168.045 216.606 168.728 216.759C169.41 216.912 170.151 216.199 170.382 215.167Z" fill="#F29111"/>
<path d="M169.32 219.874C169.551 218.841 169.185 217.88 168.503 217.728C167.82 217.575 167.08 218.288 166.848 219.32C166.617 220.353 166.983 221.313 167.665 221.466C168.348 221.619 169.089 220.906 169.32 219.874Z" fill="#F29111"/>
<path d="M168.296 224.555C168.528 223.523 168.162 222.562 167.479 222.409C166.797 222.256 166.056 222.969 165.825 224.002C165.594 225.034 165.959 225.995 166.642 226.148C167.324 226.301 168.065 225.588 168.296 224.555Z" fill="#F29111"/>
<path d="M167.242 229.229C167.473 228.197 167.107 227.236 166.425 227.083C165.742 226.93 165.002 227.643 164.77 228.676C164.539 229.708 164.905 230.669 165.587 230.822C166.27 230.975 167.01 230.262 167.242 229.229Z" fill="#F29111"/>
<path d="M166.171 233.93C166.403 232.898 166.037 231.937 165.354 231.784C164.672 231.631 163.931 232.344 163.7 233.377C163.469 234.409 163.834 235.37 164.517 235.523C165.199 235.676 165.94 234.963 166.171 233.93Z" fill="#F29111"/>
<path d="M165.148 238.61C165.379 237.578 165.013 236.617 164.331 236.464C163.649 236.311 162.908 237.024 162.677 238.056C162.445 239.089 162.811 240.05 163.493 240.203C164.176 240.355 164.917 239.642 165.148 238.61Z" fill="#F29111"/>
<path d="M164.078 243.286C164.309 242.253 163.943 241.293 163.261 241.14C162.578 240.987 161.838 241.7 161.606 242.732C161.375 243.765 161.741 244.725 162.423 244.878C163.106 245.031 163.846 244.318 164.078 243.286Z" fill="#F29111"/>
<path d="M179.781 217.27C180.012 216.238 179.646 215.277 178.964 215.124C178.281 214.971 177.541 215.684 177.309 216.717C177.078 217.749 177.444 218.71 178.126 218.863C178.809 219.016 179.549 218.303 179.781 217.27Z" fill="#F29111"/>
<path d="M178.726 221.979C178.957 220.947 178.592 219.986 177.909 219.833C177.227 219.68 176.486 220.393 176.255 221.426C176.023 222.458 176.389 223.419 177.072 223.572C177.754 223.725 178.495 223.012 178.726 221.979Z" fill="#F29111"/>
<path d="M177.648 226.653C177.879 225.621 177.513 224.66 176.831 224.507C176.149 224.354 175.408 225.067 175.177 226.099C174.945 227.132 175.311 228.093 175.993 228.246C176.676 228.398 177.417 227.685 177.648 226.653Z" fill="#F29111"/>
<path d="M176.617 231.333C176.848 230.3 176.482 229.339 175.8 229.187C175.117 229.034 174.377 229.747 174.145 230.779C173.914 231.811 174.28 232.772 174.962 232.925C175.645 233.078 176.385 232.365 176.617 231.333Z" fill="#F29111"/>
<path d="M175.562 236.036C175.793 235.003 175.428 234.043 174.745 233.89C174.063 233.737 173.322 234.45 173.091 235.482C172.859 236.515 173.225 237.475 173.908 237.628C174.59 237.781 175.331 237.068 175.562 236.036Z" fill="#F29111"/>
<path d="M174.507 240.712C174.739 239.679 174.373 238.718 173.69 238.565C173.008 238.413 172.267 239.126 172.036 240.158C171.805 241.19 172.17 242.151 172.853 242.304C173.535 242.457 174.276 241.744 174.507 240.712Z" fill="#F29111"/>
<path d="M173.453 245.391C173.684 244.359 173.318 243.398 172.636 243.245C171.953 243.092 171.213 243.805 170.981 244.838C170.75 245.87 171.116 246.831 171.798 246.984C172.481 247.137 173.221 246.424 173.453 245.391Z" fill="#F29111"/>
<path d="M189.148 219.372C189.379 218.339 189.013 217.378 188.331 217.226C187.649 217.073 186.908 217.786 186.677 218.818C186.445 219.851 186.811 220.811 187.493 220.964C188.176 221.117 188.917 220.404 189.148 219.372Z" fill="#F29111"/>
<path d="M188.101 224.085C188.332 223.052 187.967 222.091 187.284 221.939C186.602 221.786 185.861 222.499 185.63 223.531C185.398 224.563 185.764 225.524 186.447 225.677C187.129 225.83 187.87 225.117 188.101 224.085Z" fill="#F29111"/>
<path d="M187.046 228.758C187.278 227.726 186.912 226.765 186.229 226.612C185.547 226.459 184.806 227.172 184.575 228.205C184.344 229.237 184.709 230.198 185.392 230.351C186.074 230.504 186.815 229.791 187.046 228.758Z" fill="#F29111"/>
<path d="M185.992 233.434C186.223 232.402 185.857 231.441 185.175 231.288C184.492 231.135 183.752 231.848 183.52 232.881C183.289 233.913 183.655 234.874 184.337 235.027C185.02 235.18 185.76 234.467 185.992 233.434Z" fill="#F29111"/>
<path d="M184.96 238.147C185.192 237.115 184.826 236.154 184.144 236.001C183.461 235.848 182.72 236.561 182.489 237.594C182.258 238.626 182.624 239.587 183.306 239.74C183.988 239.893 184.729 239.18 184.96 238.147Z" fill="#F29111"/>
<path d="M183.882 242.821C184.114 241.789 183.748 240.828 183.065 240.675C182.383 240.522 181.642 241.235 181.411 242.267C181.18 243.3 181.545 244.261 182.228 244.414C182.91 244.566 183.651 243.853 183.882 242.821Z" fill="#F29111"/>
<path d="M182.859 247.501C183.09 246.468 182.724 245.507 182.042 245.355C181.36 245.202 180.619 245.915 180.388 246.947C180.156 247.979 180.522 248.94 181.204 249.093C181.887 249.246 182.628 248.533 182.859 247.501Z" fill="#F29111"/>
<path d="M197.46 226.182C197.692 225.15 197.326 224.189 196.644 224.036C195.961 223.883 195.22 224.596 194.989 225.629C194.758 226.661 195.124 227.622 195.806 227.775C196.488 227.928 197.229 227.215 197.46 226.182Z" fill="#F29111"/>
<path d="M196.437 230.864C196.668 229.832 196.303 228.871 195.62 228.718C194.938 228.565 194.197 229.278 193.966 230.31C193.734 231.343 194.1 232.304 194.783 232.457C195.465 232.609 196.206 231.896 196.437 230.864Z" fill="#F29111"/>
<path d="M195.39 235.54C195.621 234.507 195.256 233.546 194.573 233.394C193.891 233.241 193.15 233.954 192.919 234.986C192.687 236.019 193.053 236.979 193.736 237.132C194.418 237.285 195.159 236.572 195.39 235.54Z" fill="#F29111"/>
<path d="M194.343 240.253C194.575 239.22 194.209 238.259 193.526 238.106C192.844 237.954 192.103 238.667 191.872 239.699C191.641 240.731 192.006 241.692 192.689 241.845C193.371 241.998 194.112 241.285 194.343 240.253Z" fill="#F29111"/>
<path d="M193.289 244.926C193.52 243.894 193.154 242.933 192.472 242.78C191.789 242.627 191.048 243.34 190.817 244.373C190.586 245.405 190.952 246.366 191.634 246.519C192.317 246.672 193.057 245.959 193.289 244.926Z" fill="#F29111"/>
<path d="M192.226 249.602C192.457 248.57 192.092 247.609 191.409 247.456C190.727 247.303 189.986 248.016 189.755 249.049C189.523 250.081 189.889 251.042 190.572 251.195C191.254 251.348 191.995 250.635 192.226 249.602Z" fill="#F29111"/>
<path d="M173.507 215.872C173.739 214.839 173.373 213.878 172.69 213.726C172.008 213.573 171.267 214.286 171.036 215.318C170.805 216.351 171.17 217.311 171.853 217.464C172.535 217.617 173.276 216.904 173.507 215.872Z" fill="#F29111"/>
<path d="M172.484 220.551C172.715 219.519 172.349 218.558 171.667 218.405C170.985 218.252 170.244 218.965 170.013 219.998C169.781 221.03 170.147 221.991 170.829 222.144C171.512 222.297 172.253 221.584 172.484 220.551Z" fill="#F29111"/>
<path d="M171.406 225.26C171.637 224.228 171.271 223.267 170.589 223.114C169.906 222.961 169.166 223.674 168.934 224.707C168.703 225.739 169.069 226.7 169.751 226.853C170.434 227.006 171.174 226.293 171.406 225.26Z" fill="#F29111"/>
<path d="M170.382 229.94C170.614 228.908 170.248 227.947 169.565 227.794C168.883 227.641 168.142 228.354 167.911 229.387C167.68 230.419 168.045 231.38 168.728 231.533C169.41 231.686 170.151 230.973 170.382 229.94Z" fill="#F29111"/>
<path d="M169.32 234.614C169.551 233.582 169.185 232.621 168.503 232.468C167.82 232.315 167.08 233.028 166.848 234.06C166.617 235.093 166.983 236.054 167.665 236.207C168.348 236.359 169.089 235.646 169.32 234.614Z" fill="#F29111"/>
<path d="M168.242 239.323C168.473 238.291 168.107 237.33 167.425 237.177C166.742 237.024 166.002 237.737 165.77 238.769C165.539 239.802 165.905 240.763 166.587 240.915C167.27 241.068 168.01 240.355 168.242 239.323Z" fill="#F29111"/>
<path d="M167.218 244.003C167.45 242.97 167.084 242.009 166.401 241.856C165.719 241.704 164.978 242.417 164.747 243.449C164.516 244.481 164.881 245.442 165.564 245.595C166.246 245.748 166.987 245.035 167.218 244.003Z" fill="#F29111"/>
<path d="M182.882 217.983C183.114 216.951 182.748 215.99 182.065 215.837C181.383 215.684 180.642 216.397 180.411 217.429C180.18 218.462 180.545 219.423 181.228 219.576C181.91 219.729 182.651 219.016 182.882 217.983Z" fill="#F29111"/>
<path d="M181.859 222.663C182.09 221.63 181.724 220.669 181.042 220.517C180.36 220.364 179.619 221.077 179.388 222.109C179.156 223.142 179.522 224.102 180.204 224.255C180.887 224.408 181.628 223.695 181.859 222.663Z" fill="#F29111"/>
<path d="M180.789 227.37C181.02 226.337 180.654 225.377 179.972 225.224C179.289 225.071 178.548 225.784 178.317 226.816C178.086 227.849 178.452 228.809 179.134 228.962C179.817 229.115 180.557 228.402 180.789 227.37Z" fill="#F29111"/>
<path d="M179.75 232.04C179.981 231.007 179.615 230.046 178.933 229.894C178.25 229.741 177.509 230.454 177.278 231.486C177.047 232.519 177.413 233.479 178.095 233.632C178.778 233.785 179.518 233.072 179.75 232.04Z" fill="#F29111"/>
<path d="M178.695 236.719C178.926 235.687 178.56 234.726 177.878 234.573C177.195 234.42 176.455 235.133 176.223 236.166C175.992 237.198 176.358 238.159 177.04 238.312C177.723 238.465 178.464 237.752 178.695 236.719Z" fill="#F29111"/>
<path d="M177.624 241.426C177.856 240.394 177.49 239.433 176.808 239.28C176.125 239.127 175.384 239.84 175.153 240.873C174.922 241.905 175.288 242.866 175.97 243.019C176.653 243.172 177.393 242.459 177.624 241.426Z" fill="#F29111"/>
<path d="M176.585 246.102C176.817 245.07 176.451 244.109 175.769 243.956C175.086 243.803 174.345 244.516 174.114 245.549C173.883 246.581 174.249 247.542 174.931 247.695C175.613 247.848 176.354 247.135 176.585 246.102Z" fill="#F29111"/>
<path d="M192.289 220.089C192.52 219.056 192.154 218.095 191.472 217.942C190.789 217.79 190.048 218.503 189.817 219.535C189.586 220.567 189.952 221.528 190.634 221.681C191.317 221.834 192.057 221.121 192.289 220.089Z" fill="#F29111"/>
<path d="M191.218 224.762C191.45 223.73 191.084 222.769 190.401 222.616C189.719 222.463 188.978 223.176 188.747 224.209C188.516 225.241 188.881 226.202 189.564 226.355C190.246 226.508 190.987 225.795 191.218 224.762Z" fill="#F29111"/>
<path d="M190.195 229.473C190.426 228.441 190.06 227.48 189.378 227.327C188.695 227.174 187.955 227.887 187.723 228.92C187.492 229.952 187.858 230.913 188.54 231.066C189.223 231.219 189.964 230.506 190.195 229.473Z" fill="#F29111"/>
<path d="M189.125 234.151C189.356 233.119 188.99 232.158 188.308 232.005C187.625 231.852 186.884 232.565 186.653 233.597C186.422 234.63 186.788 235.591 187.47 235.744C188.153 235.896 188.893 235.183 189.125 234.151Z" fill="#F29111"/>
<path d="M188.054 238.821C188.285 237.789 187.92 236.828 187.237 236.675C186.555 236.522 185.814 237.235 185.583 238.267C185.352 239.3 185.717 240.261 186.4 240.414C187.082 240.566 187.823 239.853 188.054 238.821Z" fill="#F29111"/>
<path d="M187.031 243.536C187.262 242.503 186.896 241.543 186.214 241.39C185.531 241.237 184.791 241.95 184.559 242.982C184.328 244.015 184.694 244.975 185.376 245.128C186.059 245.281 186.799 244.568 187.031 243.536Z" fill="#F29111"/>
<path d="M185.96 248.206C186.192 247.173 185.826 246.212 185.144 246.06C184.461 245.907 183.72 246.62 183.489 247.652C183.258 248.685 183.624 249.645 184.306 249.798C184.988 249.951 185.729 249.238 185.96 248.206Z" fill="#F29111"/>
<path d="M176.648 216.587C176.879 215.554 176.513 214.593 175.831 214.44C175.149 214.288 174.408 215.001 174.177 216.033C173.945 217.065 174.311 218.026 174.993 218.179C175.676 218.332 176.417 217.619 176.648 216.587Z" fill="#F29111"/>
<path d="M175.578 221.262C175.809 220.23 175.443 219.269 174.761 219.116C174.078 218.963 173.338 219.676 173.106 220.709C172.875 221.741 173.241 222.702 173.923 222.855C174.606 223.008 175.346 222.295 175.578 221.262Z" fill="#F29111"/>
<path d="M174.554 225.944C174.785 224.912 174.42 223.951 173.737 223.798C173.055 223.645 172.314 224.358 172.083 225.39C171.852 226.423 172.217 227.384 172.9 227.537C173.582 227.689 174.323 226.976 174.554 225.944Z" fill="#F29111"/>
<path d="M173.484 230.649C173.715 229.617 173.349 228.656 172.667 228.503C171.985 228.35 171.244 229.063 171.013 230.095C170.781 231.128 171.147 232.089 171.829 232.242C172.512 232.395 173.253 231.682 173.484 230.649Z" fill="#F29111"/>
<path d="M172.414 235.319C172.645 234.287 172.279 233.326 171.597 233.173C170.914 233.02 170.173 233.733 169.942 234.765C169.711 235.798 170.077 236.759 170.759 236.912C171.442 237.064 172.182 236.351 172.414 235.319Z" fill="#F29111"/>
<path d="M171.39 240.007C171.621 238.974 171.256 238.013 170.573 237.86C169.891 237.707 169.15 238.421 168.919 239.453C168.687 240.485 169.053 241.446 169.736 241.599C170.418 241.752 171.159 241.039 171.39 240.007Z" fill="#F29111"/>
<path d="M170.32 244.708C170.551 243.675 170.185 242.714 169.503 242.562C168.82 242.409 168.08 243.122 167.848 244.154C167.617 245.186 167.983 246.147 168.665 246.3C169.348 246.453 170.089 245.74 170.32 244.708Z" fill="#F29111"/>
<path d="M186.023 218.692C186.254 217.66 185.888 216.699 185.206 216.546C184.524 216.393 183.783 217.106 183.552 218.138C183.32 219.171 183.686 220.132 184.368 220.285C185.051 220.438 185.792 219.725 186.023 218.692Z" fill="#F29111"/>
<path d="M184.96 223.368C185.192 222.335 184.826 221.375 184.144 221.222C183.461 221.069 182.72 221.782 182.489 222.814C182.258 223.847 182.624 224.808 183.306 224.96C183.988 225.113 184.729 224.4 184.96 223.368Z" fill="#F29111"/>
<path d="M183.914 228.042C184.145 227.009 183.779 226.048 183.097 225.896C182.414 225.743 181.673 226.456 181.442 227.488C181.211 228.52 181.577 229.481 182.259 229.634C182.942 229.787 183.682 229.074 183.914 228.042Z" fill="#F29111"/>
<path d="M182.859 232.755C183.09 231.722 182.724 230.761 182.042 230.608C181.36 230.456 180.619 231.169 180.388 232.201C180.156 233.233 180.522 234.194 181.204 234.347C181.887 234.5 182.628 233.787 182.859 232.755Z" fill="#F29111"/>
<path d="M181.82 237.43C182.051 236.398 181.685 235.437 181.003 235.284C180.32 235.131 179.58 235.844 179.348 236.877C179.117 237.909 179.483 238.87 180.165 239.023C180.848 239.176 181.589 238.463 181.82 237.43Z" fill="#F29111"/>
<path d="M180.789 242.112C181.02 241.08 180.654 240.119 179.972 239.966C179.289 239.813 178.548 240.526 178.317 241.558C178.086 242.591 178.452 243.552 179.134 243.705C179.817 243.857 180.557 243.144 180.789 242.112Z" fill="#F29111"/>
<path d="M179.726 246.817C179.957 245.785 179.592 244.824 178.909 244.671C178.227 244.518 177.486 245.231 177.255 246.263C177.023 247.296 177.389 248.257 178.072 248.41C178.754 248.563 179.495 247.85 179.726 246.817Z" fill="#F29111"/>
<path d="M195.39 220.764C195.621 219.732 195.256 218.771 194.573 218.618C193.891 218.465 193.15 219.178 192.919 220.211C192.687 221.243 193.053 222.204 193.736 222.357C194.418 222.51 195.159 221.797 195.39 220.764Z" fill="#F29111"/>
<path d="M194.367 225.477C194.598 224.445 194.232 223.484 193.55 223.331C192.867 223.178 192.127 223.891 191.895 224.924C191.664 225.956 192.03 226.917 192.712 227.07C193.395 227.223 194.135 226.51 194.367 225.477Z" fill="#F29111"/>
<path d="M193.289 230.153C193.52 229.121 193.154 228.16 192.472 228.007C191.789 227.854 191.048 228.567 190.817 229.599C190.586 230.632 190.952 231.593 191.634 231.746C192.317 231.898 193.057 231.185 193.289 230.153Z" fill="#F29111"/>
<path d="M192.265 234.866C192.496 233.833 192.131 232.873 191.448 232.72C190.766 232.567 190.025 233.28 189.794 234.312C189.562 235.345 189.928 236.306 190.611 236.458C191.293 236.611 192.034 235.898 192.265 234.866Z" fill="#F29111"/>
<path d="M191.203 239.536C191.434 238.503 191.068 237.543 190.386 237.39C189.703 237.237 188.963 237.95 188.731 238.982C188.5 240.015 188.866 240.975 189.548 241.128C190.231 241.281 190.971 240.568 191.203 239.536Z" fill="#F29111"/>
<path d="M190.148 244.21C190.379 243.177 190.013 242.216 189.331 242.064C188.649 241.911 187.908 242.624 187.677 243.656C187.445 244.688 187.811 245.649 188.493 245.802C189.176 245.955 189.917 245.242 190.148 244.21Z" fill="#F29111"/>
<path d="M189.101 248.923C189.332 247.89 188.967 246.929 188.284 246.776C187.602 246.624 186.861 247.337 186.63 248.369C186.398 249.401 186.764 250.362 187.447 250.515C188.129 250.668 188.87 249.955 189.101 248.923Z" fill="#F29111"/>
<path d="M171.406 210.485C171.637 209.453 171.271 208.492 170.589 208.339C169.906 208.186 169.166 208.899 168.934 209.931C168.703 210.964 169.069 211.925 169.751 212.078C170.434 212.23 171.174 211.517 171.406 210.485Z" fill="#F29111"/>
<path d="M180.804 212.591C181.035 211.558 180.67 210.597 179.987 210.444C179.305 210.291 178.564 211.004 178.333 212.037C178.102 213.069 178.467 214.03 179.15 214.183C179.832 214.336 180.573 213.623 180.804 212.591Z" fill="#F29111"/>
<path d="M190.195 214.696C190.426 213.664 190.06 212.703 189.378 212.55C188.695 212.397 187.955 213.11 187.723 214.142C187.492 215.175 187.858 216.136 188.54 216.289C189.223 216.441 189.964 215.728 190.195 214.696Z" fill="#F29111"/>
<path d="M174.554 211.202C174.785 210.169 174.42 209.209 173.737 209.056C173.055 208.903 172.314 209.616 172.083 210.648C171.852 211.681 172.217 212.642 172.9 212.794C173.582 212.947 174.323 212.234 174.554 211.202Z" fill="#F29111"/>
<path d="M183.953 213.307C184.184 212.275 183.818 211.314 183.136 211.161C182.453 211.008 181.713 211.721 181.481 212.754C181.25 213.786 181.616 214.747 182.298 214.9C182.981 215.053 183.721 214.34 183.953 213.307Z" fill="#F29111"/>
<path d="M193.359 215.38C193.59 214.347 193.224 213.386 192.542 213.233C191.86 213.081 191.119 213.794 190.888 214.826C190.656 215.858 191.022 216.819 191.704 216.972C192.387 217.125 193.128 216.412 193.359 215.38Z" fill="#F29111"/>
<path d="M177.695 211.882C177.926 210.849 177.56 209.888 176.878 209.735C176.195 209.582 175.455 210.295 175.223 211.328C174.992 212.36 175.358 213.321 176.04 213.474C176.723 213.627 177.464 212.914 177.695 211.882Z" fill="#F29111"/>
<path d="M187.078 213.979C187.309 212.947 186.943 211.986 186.261 211.833C185.578 211.68 184.838 212.393 184.606 213.426C184.375 214.458 184.741 215.419 185.423 215.572C186.106 215.725 186.846 215.012 187.078 213.979Z" fill="#F29111"/>
<path d="M196.453 216.091C196.684 215.058 196.318 214.097 195.636 213.944C194.953 213.791 194.213 214.504 193.981 215.537C193.75 216.569 194.116 217.53 194.798 217.683C195.481 217.836 196.221 217.123 196.453 216.091Z" fill="#F29111"/>
<path d="M172.398 250.098C172.629 249.066 172.263 248.105 171.581 247.952C170.899 247.799 170.158 248.512 169.927 249.545C169.695 250.577 170.061 251.538 170.743 251.691C171.426 251.844 172.167 251.131 172.398 250.098Z" fill="#F29111"/>
<path d="M171.367 254.778C171.598 253.746 171.232 252.785 170.55 252.632C169.867 252.479 169.127 253.192 168.895 254.224C168.664 255.257 169.03 256.218 169.712 256.371C170.395 256.523 171.135 255.81 171.367 254.778Z" fill="#F29111"/>
<path d="M181.796 252.21C182.028 251.177 181.662 250.216 180.979 250.064C180.297 249.911 179.556 250.624 179.325 251.656C179.094 252.688 179.459 253.649 180.142 253.802C180.824 253.955 181.565 253.242 181.796 252.21Z" fill="#F29111"/>
<path d="M180.75 256.88C180.981 255.847 180.615 254.886 179.933 254.733C179.25 254.581 178.509 255.294 178.278 256.326C178.047 257.358 178.413 258.319 179.095 258.472C179.778 258.625 180.518 257.912 180.75 256.88Z" fill="#F29111"/>
<path d="M191.203 254.315C191.434 253.283 191.068 252.322 190.386 252.169C189.703 252.016 188.963 252.729 188.731 253.761C188.5 254.794 188.866 255.755 189.548 255.908C190.231 256.061 190.971 255.348 191.203 254.315Z" fill="#F29111"/>
<path d="M190.125 258.985C190.356 257.953 189.99 256.992 189.308 256.839C188.625 256.686 187.884 257.399 187.653 258.431C187.422 259.464 187.788 260.425 188.47 260.578C189.153 260.73 189.893 260.017 190.125 258.985Z" fill="#F29111"/>
<path d="M166.156 248.676C166.387 247.644 166.021 246.683 165.339 246.53C164.656 246.377 163.916 247.09 163.684 248.123C163.453 249.155 163.819 250.116 164.501 250.269C165.184 250.422 165.924 249.709 166.156 248.676Z" fill="#F29111"/>
<path d="M165.078 253.378C165.309 252.345 164.943 251.384 164.261 251.231C163.578 251.079 162.838 251.792 162.606 252.824C162.375 253.856 162.741 254.817 163.423 254.97C164.106 255.123 164.846 254.41 165.078 253.378Z" fill="#F29111"/>
<path d="M175.562 250.782C175.793 249.75 175.428 248.789 174.745 248.636C174.063 248.483 173.322 249.196 173.091 250.228C172.859 251.261 173.225 252.222 173.908 252.374C174.59 252.527 175.331 251.814 175.562 250.782Z" fill="#F29111"/>
<path d="M174.484 255.491C174.715 254.459 174.349 253.498 173.667 253.345C172.984 253.192 172.244 253.905 172.013 254.937C171.781 255.97 172.147 256.931 172.829 257.083C173.512 257.236 174.253 256.523 174.484 255.491Z" fill="#F29111"/>
<path d="M184.937 252.887C185.168 251.855 184.803 250.894 184.12 250.741C183.438 250.588 182.697 251.301 182.466 252.334C182.234 253.366 182.6 254.327 183.283 254.48C183.965 254.633 184.706 253.92 184.937 252.887Z" fill="#F29111"/>
<path d="M183.867 257.594C184.098 256.562 183.732 255.601 183.05 255.448C182.367 255.295 181.627 256.008 181.395 257.041C181.164 258.073 181.53 259.034 182.212 259.187C182.895 259.34 183.635 258.627 183.867 257.594Z" fill="#F29111"/>
<path d="M169.296 249.393C169.528 248.361 169.162 247.4 168.479 247.247C167.797 247.094 167.056 247.807 166.825 248.84C166.594 249.872 166.959 250.833 167.642 250.986C168.324 251.139 169.065 250.426 169.296 249.393Z" fill="#F29111"/>
<path d="M168.242 254.063C168.473 253.031 168.107 252.07 167.425 251.917C166.742 251.764 166.002 252.477 165.77 253.51C165.539 254.542 165.905 255.503 166.587 255.656C167.27 255.809 168.01 255.096 168.242 254.063Z" fill="#F29111"/>
<path d="M178.656 251.493C178.887 250.46 178.521 249.5 177.839 249.347C177.156 249.194 176.416 249.907 176.184 250.939C175.953 251.972 176.319 252.933 177.001 253.085C177.684 253.238 178.424 252.525 178.656 251.493Z" fill="#F29111"/>
<path d="M177.625 256.175C177.856 255.142 177.49 254.181 176.808 254.028C176.125 253.875 175.384 254.588 175.153 255.621C174.922 256.653 175.288 257.614 175.97 257.767C176.653 257.92 177.393 257.207 177.625 256.175Z" fill="#F29111"/>
<path d="M188.054 253.598C188.285 252.566 187.92 251.605 187.237 251.452C186.555 251.299 185.814 252.012 185.583 253.045C185.352 254.077 185.717 255.038 186.4 255.191C187.082 255.344 187.823 254.631 188.054 253.598Z" fill="#F29111"/>
<path d="M187.031 258.278C187.262 257.246 186.896 256.285 186.214 256.132C185.531 255.979 184.791 256.692 184.559 257.724C184.328 258.757 184.694 259.718 185.376 259.871C186.059 260.023 186.799 259.31 187.031 258.278Z" fill="#F29111"/>
</g>
<mask id="mask1_2831_9967" style="mask-type:luminance" maskUnits="userSpaceOnUse" x="215" y="223" width="32" height="46">
<path d="M245.974 249.202C248.758 236.778 244.29 225.2 235.996 223.342C227.701 221.484 218.721 230.049 215.938 242.473C213.155 254.897 217.622 266.475 225.917 268.333C234.211 270.191 243.191 261.626 245.974 249.202Z" fill="white"/>
</mask>
<g mask="url(#mask1_2831_9967)">
<path d="M221.742 226.682C221.973 225.65 221.607 224.689 220.925 224.536C220.242 224.383 219.502 225.096 219.27 226.129C219.039 227.161 219.405 228.122 220.087 228.275C220.77 228.428 221.51 227.715 221.742 226.682Z" fill="#F29111"/>
<path d="M220.71 231.395C220.942 230.363 220.576 229.402 219.894 229.249C219.211 229.096 218.47 229.809 218.239 230.842C218.008 231.874 218.374 232.835 219.056 232.988C219.738 233.141 220.479 232.428 220.71 231.395Z" fill="#F29111"/>
<path d="M219.656 236.065C219.887 235.033 219.521 234.072 218.839 233.919C218.156 233.766 217.416 234.479 217.184 235.511C216.953 236.544 217.319 237.505 218.001 237.658C218.684 237.811 219.424 237.098 219.656 236.065Z" fill="#F29111"/>
<path d="M218.624 240.751C218.856 239.718 218.49 238.757 217.808 238.605C217.125 238.452 216.384 239.165 216.153 240.197C215.922 241.229 216.288 242.19 216.97 242.343C217.653 242.496 218.393 241.783 218.624 240.751Z" fill="#F29111"/>
<path d="M217.546 245.452C217.778 244.419 217.412 243.459 216.729 243.306C216.047 243.153 215.306 243.866 215.075 244.898C214.844 245.931 215.209 246.892 215.892 247.044C216.574 247.197 217.315 246.484 217.546 245.452Z" fill="#F29111"/>
<path d="M216.507 250.128C216.739 249.095 216.373 248.134 215.69 247.981C215.008 247.829 214.267 248.542 214.036 249.574C213.805 250.606 214.17 251.567 214.853 251.72C215.535 251.873 216.276 251.16 216.507 250.128Z" fill="#F29111"/>
<path d="M215.46 254.841C215.692 253.808 215.326 252.847 214.644 252.694C213.961 252.541 213.22 253.254 212.989 254.287C212.758 255.319 213.124 256.28 213.806 256.433C214.488 256.586 215.229 255.873 215.46 254.841Z" fill="#F29111"/>
<path d="M231.14 228.788C231.371 227.755 231.006 226.795 230.323 226.642C229.641 226.489 228.9 227.202 228.669 228.234C228.437 229.267 228.803 230.227 229.486 230.38C230.168 230.533 230.909 229.82 231.14 228.788Z" fill="#F29111"/>
<path d="M230.101 233.501C230.332 232.468 229.967 231.507 229.284 231.355C228.602 231.202 227.861 231.915 227.63 232.947C227.398 233.979 227.764 234.94 228.447 235.093C229.129 235.246 229.87 234.533 230.101 233.501Z" fill="#F29111"/>
<path d="M229.054 238.175C229.285 237.142 228.92 236.181 228.237 236.028C227.555 235.875 226.814 236.588 226.583 237.621C226.352 238.653 226.717 239.614 227.4 239.767C228.082 239.92 228.823 239.207 229.054 238.175Z" fill="#F29111"/>
<path d="M227.976 242.844C228.207 241.812 227.842 240.851 227.159 240.698C226.477 240.545 225.736 241.258 225.505 242.291C225.273 243.323 225.639 244.284 226.322 244.437C227.004 244.59 227.745 243.877 227.976 242.844Z" fill="#F29111"/>
<path d="M226.953 247.557C227.184 246.525 226.818 245.564 226.136 245.411C225.453 245.258 224.713 245.971 224.481 247.004C224.25 248.036 224.616 248.997 225.298 249.15C225.981 249.303 226.721 248.59 226.953 247.557Z" fill="#F29111"/>
<path d="M225.89 252.233C226.121 251.201 225.756 250.24 225.073 250.087C224.391 249.934 223.65 250.647 223.419 251.679C223.187 252.712 223.553 253.673 224.236 253.826C224.918 253.979 225.659 253.266 225.89 252.233Z" fill="#F29111"/>
<path d="M224.867 256.913C225.098 255.88 224.732 254.919 224.05 254.767C223.367 254.614 222.627 255.327 222.395 256.359C222.164 257.392 222.53 258.352 223.212 258.505C223.895 258.658 224.635 257.945 224.867 256.913Z" fill="#F29111"/>
<path d="M240.531 230.893C240.762 229.861 240.396 228.9 239.714 228.747C239.031 228.594 238.291 229.307 238.059 230.34C237.828 231.372 238.194 232.333 238.876 232.486C239.559 232.639 240.299 231.926 240.531 230.893Z" fill="#F29111"/>
<path d="M239.46 235.6C239.692 234.568 239.326 233.607 238.644 233.454C237.961 233.301 237.22 234.014 236.989 235.047C236.758 236.079 237.124 237.04 237.806 237.193C238.488 237.346 239.229 236.633 239.46 235.6Z" fill="#F29111"/>
<path d="M238.437 240.28C238.668 239.248 238.303 238.287 237.62 238.134C236.938 237.981 236.197 238.694 235.966 239.726C235.734 240.759 236.1 241.72 236.783 241.873C237.465 242.025 238.206 241.312 238.437 240.28Z" fill="#F29111"/>
<path d="M237.382 244.956C237.614 243.923 237.248 242.962 236.565 242.81C235.883 242.657 235.142 243.37 234.911 244.402C234.68 245.435 235.045 246.395 235.728 246.548C236.41 246.701 237.151 245.988 237.382 244.956Z" fill="#F29111"/>
<path d="M236.335 249.669C236.567 248.636 236.201 247.675 235.519 247.523C234.836 247.37 234.095 248.083 233.864 249.115C233.633 250.147 233.999 251.108 234.681 251.261C235.363 251.414 236.104 250.701 236.335 249.669Z" fill="#F29111"/>
<path d="M235.296 254.342C235.528 253.31 235.162 252.349 234.479 252.196C233.797 252.043 233.056 252.756 232.825 253.789C232.594 254.821 232.959 255.782 233.642 255.935C234.324 256.088 235.065 255.375 235.296 254.342Z" fill="#F29111"/>
<path d="M234.218 259.018C234.45 257.986 234.084 257.025 233.401 256.872C232.719 256.719 231.978 257.432 231.747 258.465C231.516 259.497 231.881 260.458 232.564 260.611C233.246 260.764 233.987 260.051 234.218 259.018Z" fill="#F29111"/>
<path d="M248.867 237.704C249.098 236.671 248.732 235.711 248.05 235.558C247.367 235.405 246.627 236.118 246.395 237.15C246.164 238.183 246.53 239.143 247.212 239.296C247.895 239.449 248.635 238.736 248.867 237.704Z" fill="#F29111"/>
<path d="M247.835 242.385C248.067 241.353 247.701 240.392 247.019 240.239C246.336 240.086 245.595 240.799 245.364 241.832C245.133 242.864 245.499 243.825 246.181 243.978C246.863 244.131 247.604 243.418 247.835 242.385Z" fill="#F29111"/>
<path d="M246.765 247.061C246.996 246.029 246.631 245.068 245.948 244.915C245.266 244.762 244.525 245.475 244.294 246.508C244.062 247.54 244.428 248.501 245.111 248.654C245.793 248.807 246.534 248.094 246.765 247.061Z" fill="#F29111"/>
<path d="M245.703 251.766C245.934 250.734 245.568 249.773 244.886 249.62C244.203 249.467 243.463 250.18 243.231 251.213C243 252.245 243.366 253.206 244.048 253.359C244.731 253.512 245.471 252.799 245.703 251.766Z" fill="#F29111"/>
<path d="M244.671 256.448C244.903 255.416 244.537 254.455 243.854 254.302C243.172 254.149 242.431 254.862 242.2 255.894C241.969 256.927 242.334 257.888 243.017 258.04C243.699 258.193 244.44 257.48 244.671 256.448Z" fill="#F29111"/>
<path d="M243.609 261.124C243.84 260.091 243.474 259.13 242.792 258.978C242.11 258.825 241.369 259.538 241.138 260.57C240.906 261.603 241.272 262.563 241.954 262.716C242.637 262.869 243.378 262.156 243.609 261.124Z" fill="#F29111"/>
<path d="M224.882 227.393C225.114 226.361 224.748 225.4 224.065 225.247C223.383 225.094 222.642 225.807 222.411 226.84C222.18 227.872 222.545 228.833 223.228 228.986C223.91 229.139 224.651 228.426 224.882 227.393Z" fill="#F29111"/>
<path d="M223.843 232.069C224.075 231.037 223.709 230.076 223.026 229.923C222.344 229.77 221.603 230.483 221.372 231.515C221.141 232.548 221.506 233.509 222.189 233.662C222.871 233.814 223.612 233.101 223.843 232.069Z" fill="#F29111"/>
<path d="M222.789 236.782C223.02 235.75 222.654 234.789 221.972 234.636C221.289 234.483 220.548 235.196 220.317 236.228C220.086 237.261 220.452 238.222 221.134 238.374C221.817 238.527 222.557 237.814 222.789 236.782Z" fill="#F29111"/>
<path d="M221.742 241.456C221.973 240.423 221.607 239.462 220.925 239.31C220.242 239.157 219.502 239.87 219.27 240.902C219.039 241.935 219.405 242.895 220.087 243.048C220.77 243.201 221.51 242.488 221.742 241.456Z" fill="#F29111"/>
<path d="M220.695 246.135C220.926 245.103 220.56 244.142 219.878 243.989C219.195 243.836 218.455 244.549 218.223 245.582C217.992 246.614 218.358 247.575 219.04 247.728C219.723 247.881 220.464 247.168 220.695 246.135Z" fill="#F29111"/>
<path d="M219.625 250.844C219.856 249.812 219.49 248.851 218.808 248.698C218.125 248.545 217.384 249.258 217.153 250.291C216.922 251.323 217.288 252.284 217.97 252.437C218.653 252.59 219.393 251.877 219.625 250.844Z" fill="#F29111"/>
<path d="M218.578 255.518C218.809 254.486 218.443 253.525 217.761 253.372C217.078 253.219 216.338 253.932 216.106 254.965C215.875 255.997 216.241 256.958 216.923 257.111C217.606 257.264 218.346 256.551 218.578 255.518Z" fill="#F29111"/>
<path d="M234.289 229.505C234.52 228.472 234.154 227.511 233.472 227.358C232.789 227.206 232.048 227.919 231.817 228.951C231.586 229.983 231.952 230.944 232.634 231.097C233.317 231.25 234.057 230.537 234.289 229.505Z" fill="#F29111"/>
<path d="M233.218 234.175C233.45 233.142 233.084 232.181 232.401 232.028C231.719 231.875 230.978 232.588 230.747 233.621C230.516 234.653 230.881 235.614 231.564 235.767C232.246 235.92 232.987 235.207 233.218 234.175Z" fill="#F29111"/>
<path d="M232.195 238.891C232.426 237.859 232.06 236.898 231.378 236.745C230.695 236.592 229.955 237.305 229.723 238.338C229.492 239.37 229.858 240.331 230.54 240.484C231.223 240.637 231.964 239.924 232.195 238.891Z" fill="#F29111"/>
<path d="M231.125 243.561C231.356 242.529 230.99 241.568 230.308 241.415C229.625 241.262 228.884 241.975 228.653 243.008C228.422 244.04 228.788 245.001 229.47 245.154C230.153 245.307 230.893 244.594 231.125 243.561Z" fill="#F29111"/>
<path d="M230.054 248.237C230.285 247.205 229.92 246.244 229.237 246.091C228.555 245.938 227.814 246.651 227.583 247.683C227.352 248.716 227.717 249.677 228.4 249.83C229.082 249.982 229.823 249.269 230.054 248.237Z" fill="#F29111"/>
<path d="M229.031 252.948C229.262 251.916 228.896 250.955 228.214 250.802C227.531 250.649 226.791 251.362 226.559 252.394C226.328 253.427 226.694 254.388 227.376 254.54C228.059 254.693 228.799 253.98 229.031 252.948Z" fill="#F29111"/>
<path d="M227.96 257.624C228.192 256.591 227.826 255.63 227.144 255.478C226.461 255.325 225.72 256.038 225.489 257.07C225.258 258.103 225.624 259.063 226.306 259.216C226.988 259.369 227.729 258.656 227.96 257.624Z" fill="#F29111"/>
<path d="M243.671 231.61C243.903 230.578 243.537 229.617 242.854 229.464C242.172 229.311 241.431 230.024 241.2 231.056C240.969 232.089 241.334 233.05 242.017 233.203C242.699 233.355 243.44 232.642 243.671 231.61Z" fill="#F29111"/>
<path d="M242.593 236.284C242.825 235.252 242.459 234.291 241.776 234.138C241.094 233.985 240.353 234.698 240.122 235.73C239.891 236.763 240.256 237.724 240.939 237.876C241.621 238.029 242.362 237.316 242.593 236.284Z" fill="#F29111"/>
<path d="M241.554 240.991C241.785 239.959 241.42 238.998 240.737 238.845C240.055 238.692 239.314 239.405 239.083 240.437C238.852 241.47 239.217 242.431 239.9 242.583C240.582 242.736 241.323 242.023 241.554 240.991Z" fill="#F29111"/>
<path d="M240.507 245.673C240.739 244.64 240.373 243.679 239.69 243.526C239.008 243.374 238.267 244.087 238.036 245.119C237.805 246.151 238.17 247.112 238.853 247.265C239.535 247.418 240.276 246.705 240.507 245.673Z" fill="#F29111"/>
<path d="M239.46 250.342C239.692 249.31 239.326 248.349 238.644 248.196C237.961 248.043 237.22 248.756 236.989 249.789C236.758 250.821 237.124 251.782 237.806 251.935C238.488 252.088 239.229 251.375 239.46 250.342Z" fill="#F29111"/>
<path d="M238.39 255.048C238.621 254.015 238.256 253.054 237.573 252.901C236.891 252.749 236.15 253.462 235.919 254.494C235.687 255.526 236.053 256.487 236.736 256.64C237.418 256.793 238.159 256.08 238.39 255.048Z" fill="#F29111"/>
<path d="M237.367 259.727C237.598 258.695 237.232 257.734 236.55 257.581C235.867 257.428 235.127 258.141 234.895 259.174C234.664 260.206 235.03 261.167 235.712 261.32C236.395 261.473 237.135 260.76 237.367 259.727Z" fill="#F29111"/>
<path d="M228.031 228.108C228.262 227.076 227.896 226.115 227.214 225.962C226.531 225.809 225.791 226.522 225.559 227.554C225.328 228.587 225.694 229.548 226.376 229.701C227.059 229.854 227.799 229.141 228.031 228.108Z" fill="#F29111"/>
<path d="M226.953 232.784C227.184 231.751 226.818 230.791 226.136 230.638C225.453 230.485 224.713 231.198 224.481 232.23C224.25 233.263 224.616 234.224 225.298 234.376C225.981 234.529 226.721 233.816 226.953 232.784Z" fill="#F29111"/>
<path d="M225.914 237.458C226.145 236.425 225.779 235.464 225.097 235.312C224.414 235.159 223.673 235.872 223.442 236.904C223.211 237.937 223.577 238.897 224.259 239.05C224.942 239.203 225.682 238.49 225.914 237.458Z" fill="#F29111"/>
<path d="M224.867 242.171C225.098 241.138 224.732 240.177 224.05 240.024C223.367 239.872 222.627 240.585 222.395 241.617C222.164 242.649 222.53 243.61 223.212 243.763C223.895 243.916 224.635 243.203 224.867 242.171Z" fill="#F29111"/>
<path d="M223.812 246.841C224.043 245.808 223.678 244.847 222.995 244.694C222.313 244.541 221.572 245.254 221.341 246.287C221.109 247.319 221.475 248.28 222.158 248.433C222.84 248.586 223.581 247.873 223.812 246.841Z" fill="#F29111"/>
<path d="M222.789 251.528C223.02 250.496 222.654 249.535 221.972 249.382C221.289 249.229 220.548 249.942 220.317 250.974C220.086 252.007 220.452 252.968 221.134 253.121C221.817 253.273 222.557 252.56 222.789 251.528Z" fill="#F29111"/>
<path d="M221.718 256.229C221.95 255.197 221.584 254.236 220.901 254.083C220.219 253.93 219.478 254.643 219.247 255.676C219.016 256.708 219.381 257.669 220.064 257.822C220.746 257.975 221.487 257.262 221.718 256.229Z" fill="#F29111"/>
<path d="M237.382 230.21C237.614 229.177 237.248 228.216 236.565 228.064C235.883 227.911 235.142 228.624 234.911 229.656C234.68 230.688 235.045 231.649 235.728 231.802C236.41 231.955 237.151 231.242 237.382 230.21Z" fill="#F29111"/>
<path d="M236.359 234.889C236.59 233.857 236.224 232.896 235.542 232.743C234.86 232.59 234.119 233.303 233.888 234.336C233.656 235.368 234.022 236.329 234.704 236.482C235.387 236.635 236.128 235.922 236.359 234.889Z" fill="#F29111"/>
<path d="M235.296 239.563C235.528 238.531 235.162 237.57 234.479 237.417C233.797 237.264 233.056 237.977 232.825 239.01C232.594 240.042 232.959 241.003 233.642 241.156C234.324 241.309 235.065 240.596 235.296 239.563Z" fill="#F29111"/>
<path d="M234.273 244.276C234.504 243.244 234.138 242.283 233.456 242.13C232.774 241.977 232.033 242.69 231.802 243.722C231.57 244.755 231.936 245.716 232.618 245.869C233.301 246.021 234.042 245.308 234.273 244.276Z" fill="#F29111"/>
<path d="M233.195 248.952C233.426 247.919 233.06 246.959 232.378 246.806C231.695 246.653 230.955 247.366 230.723 248.398C230.492 249.431 230.858 250.392 231.54 250.544C232.223 250.697 232.964 249.984 233.195 248.952Z" fill="#F29111"/>
<path d="M232.148 253.626C232.379 252.593 232.013 251.632 231.331 251.48C230.649 251.327 229.908 252.04 229.677 253.072C229.445 254.104 229.811 255.065 230.493 255.218C231.176 255.371 231.917 254.658 232.148 253.626Z" fill="#F29111"/>
<path d="M231.109 258.339C231.34 257.306 230.974 256.345 230.292 256.192C229.61 256.04 228.869 256.753 228.638 257.785C228.406 258.817 228.772 259.778 229.454 259.931C230.137 260.084 230.878 259.371 231.109 258.339Z" fill="#F29111"/>
<path d="M246.789 232.319C247.02 231.287 246.654 230.326 245.972 230.173C245.289 230.02 244.548 230.733 244.317 231.765C244.086 232.798 244.452 233.759 245.134 233.912C245.817 234.064 246.557 233.351 246.789 232.319Z" fill="#F29111"/>
<path d="M245.742 236.999C245.973 235.966 245.607 235.005 244.925 234.853C244.242 234.7 243.502 235.413 243.27 236.445C243.039 237.478 243.405 238.438 244.087 238.591C244.77 238.744 245.51 238.031 245.742 236.999Z" fill="#F29111"/>
<path d="M244.703 241.675C244.934 240.642 244.568 239.681 243.886 239.528C243.203 239.375 242.463 240.088 242.231 241.121C242 242.153 242.366 243.114 243.048 243.267C243.731 243.42 244.471 242.707 244.703 241.675Z" fill="#F29111"/>
<path d="M243.624 246.378C243.856 245.345 243.49 244.384 242.808 244.231C242.125 244.079 241.384 244.792 241.153 245.824C240.922 246.856 241.288 247.817 241.97 247.97C242.652 248.123 243.393 247.41 243.624 246.378Z" fill="#F29111"/>
<path d="M242.593 251.057C242.825 250.025 242.459 249.064 241.776 248.911C241.094 248.758 240.353 249.471 240.122 250.504C239.891 251.536 240.256 252.497 240.939 252.65C241.621 252.803 242.362 252.09 242.593 251.057Z" fill="#F29111"/>
<path d="M241.539 255.731C241.77 254.699 241.404 253.738 240.722 253.585C240.039 253.432 239.298 254.145 239.067 255.178C238.836 256.21 239.202 257.171 239.884 257.324C240.567 257.477 241.307 256.764 241.539 255.731Z" fill="#F29111"/>
<path d="M240.46 260.44C240.692 259.408 240.326 258.447 239.644 258.294C238.961 258.141 238.22 258.854 237.989 259.886C237.758 260.919 238.124 261.88 238.806 262.033C239.488 262.186 240.229 261.473 240.46 260.44Z" fill="#F29111"/>
<path d="M222.812 222.007C223.043 220.974 222.678 220.013 221.995 219.86C221.313 219.707 220.572 220.42 220.341 221.453C220.109 222.485 220.475 223.446 221.158 223.599C221.84 223.752 222.581 223.039 222.812 222.007Z" fill="#F29111"/>
<path d="M232.195 224.112C232.426 223.08 232.06 222.119 231.378 221.966C230.695 221.813 229.955 222.526 229.723 223.558C229.492 224.591 229.858 225.552 230.54 225.705C231.223 225.857 231.964 225.144 232.195 224.112Z" fill="#F29111"/>
<path d="M241.593 226.217C241.825 225.185 241.459 224.224 240.776 224.071C240.094 223.918 239.353 224.631 239.122 225.664C238.891 226.696 239.256 227.657 239.939 227.81C240.621 227.963 241.362 227.25 241.593 226.217Z" fill="#F29111"/>
<path d="M225.953 222.723C226.184 221.691 225.818 220.73 225.136 220.577C224.453 220.424 223.713 221.137 223.481 222.17C223.25 223.202 223.616 224.163 224.298 224.316C224.981 224.469 225.721 223.756 225.953 222.723Z" fill="#F29111"/>
<path d="M235.312 224.823C235.543 223.791 235.178 222.83 234.495 222.677C233.813 222.524 233.072 223.237 232.841 224.269C232.609 225.302 232.975 226.263 233.658 226.415C234.34 226.568 235.081 225.855 235.312 224.823Z" fill="#F29111"/>
<path d="M244.703 226.928C244.934 225.896 244.568 224.935 243.886 224.782C243.203 224.629 242.463 225.342 242.231 226.375C242 227.407 242.366 228.368 243.048 228.521C243.731 228.674 244.471 227.961 244.703 226.928Z" fill="#F29111"/>
<path d="M229.054 223.395C229.285 222.363 228.92 221.402 228.237 221.249C227.555 221.096 226.814 221.809 226.583 222.842C226.352 223.874 226.717 224.835 227.4 224.988C228.082 225.141 228.823 224.428 229.054 223.395Z" fill="#F29111"/>
<path d="M238.46 225.501C238.692 224.468 238.326 223.507 237.644 223.355C236.961 223.202 236.22 223.915 235.989 224.947C235.758 225.979 236.124 226.94 236.806 227.093C237.488 227.246 238.229 226.533 238.46 225.501Z" fill="#F29111"/>
<path d="M247.835 227.612C248.067 226.58 247.701 225.619 247.019 225.466C246.336 225.313 245.595 226.026 245.364 227.058C245.133 228.091 245.499 229.052 246.181 229.205C246.863 229.357 247.604 228.644 247.835 227.612Z" fill="#F29111"/>
<path d="M223.789 261.62C224.02 260.587 223.654 259.627 222.972 259.474C222.289 259.321 221.548 260.034 221.317 261.066C221.086 262.099 221.452 263.059 222.134 263.212C222.817 263.365 223.557 262.652 223.789 261.62Z" fill="#F29111"/>
<path d="M222.726 266.296C222.957 265.263 222.592 264.302 221.909 264.149C221.227 263.997 220.486 264.71 220.255 265.742C220.023 266.774 220.389 267.735 221.072 267.888C221.754 268.041 222.495 267.328 222.726 266.296Z" fill="#F29111"/>
<path d="M233.195 263.731C233.426 262.699 233.06 261.738 232.378 261.585C231.695 261.432 230.955 262.145 230.723 263.178C230.492 264.21 230.858 265.171 231.54 265.324C232.223 265.477 232.964 264.764 233.195 263.731Z" fill="#F29111"/>
<path d="M232.132 268.401C232.364 267.369 231.998 266.408 231.315 266.255C230.633 266.102 229.892 266.815 229.661 267.847C229.43 268.88 229.795 269.841 230.478 269.994C231.16 270.146 231.901 269.433 232.132 268.401Z" fill="#F29111"/>
<path d="M242.539 265.825C242.77 264.792 242.404 263.832 241.722 263.679C241.039 263.526 240.298 264.239 240.067 265.271C239.836 266.304 240.202 267.265 240.884 267.417C241.567 267.57 242.307 266.857 242.539 265.825Z" fill="#F29111"/>
<path d="M241.507 270.507C241.739 269.474 241.373 268.513 240.69 268.36C240.008 268.208 239.267 268.92 239.036 269.953C238.805 270.985 239.17 271.946 239.853 272.099C240.535 272.252 241.276 271.539 241.507 270.507Z" fill="#F29111"/>
<path d="M217.531 260.231C217.762 259.199 217.396 258.238 216.714 258.085C216.031 257.932 215.291 258.645 215.059 259.678C214.828 260.71 215.194 261.671 215.876 261.824C216.559 261.977 217.299 261.264 217.531 260.231Z" fill="#F29111"/>
<path d="M216.492 264.899C216.723 263.867 216.357 262.906 215.675 262.753C214.992 262.6 214.252 263.313 214.02 264.345C213.789 265.378 214.155 266.339 214.837 266.492C215.52 266.645 216.26 265.932 216.492 264.899Z" fill="#F29111"/>
<path d="M226.921 262.3C227.153 261.267 226.787 260.306 226.104 260.153C225.422 260 224.681 260.713 224.45 261.746C224.219 262.778 224.584 263.739 225.267 263.892C225.949 264.045 226.69 263.332 226.921 262.3Z" fill="#F29111"/>
<path d="M225.867 267.012C226.098 265.98 225.732 265.019 225.05 264.866C224.367 264.713 223.627 265.426 223.395 266.459C223.164 267.491 223.53 268.452 224.212 268.605C224.895 268.758 225.635 268.045 225.867 267.012Z" fill="#F29111"/>
<path d="M236.296 264.405C236.528 263.373 236.162 262.412 235.479 262.259C234.797 262.106 234.056 262.819 233.825 263.851C233.594 264.884 233.959 265.845 234.642 265.998C235.324 266.15 236.065 265.437 236.296 264.405Z" fill="#F29111"/>
<path d="M235.273 269.116C235.504 268.083 235.138 267.123 234.456 266.97C233.774 266.817 233.033 267.53 232.802 268.562C232.57 269.595 232.936 270.556 233.618 270.708C234.301 270.861 235.042 270.148 235.273 269.116Z" fill="#F29111"/>
<path d="M220.656 260.903C220.887 259.871 220.521 258.91 219.839 258.757C219.156 258.604 218.416 259.317 218.184 260.349C217.953 261.382 218.319 262.343 219.001 262.496C219.684 262.648 220.424 261.935 220.656 260.903Z" fill="#F29111"/>
<path d="M219.625 265.616C219.856 264.584 219.49 263.623 218.808 263.47C218.125 263.317 217.384 264.03 217.153 265.062C216.922 266.095 217.288 267.056 217.97 267.208C218.653 267.361 219.393 266.648 219.625 265.616Z" fill="#F29111"/>
<path d="M230.054 263.014C230.285 261.982 229.92 261.021 229.237 260.868C228.555 260.715 227.814 261.428 227.583 262.461C227.352 263.493 227.717 264.454 228.4 264.607C229.082 264.76 229.823 264.047 230.054 263.014Z" fill="#F29111"/>
<path d="M228.984 267.684C229.215 266.652 228.849 265.691 228.167 265.538C227.485 265.385 226.744 266.098 226.513 267.131C226.281 268.163 226.647 269.124 227.329 269.277C228.012 269.43 228.753 268.717 228.984 267.684Z" fill="#F29111"/>
<path d="M239.437 265.12C239.668 264.087 239.303 263.127 238.62 262.974C237.938 262.821 237.197 263.534 236.966 264.566C236.734 265.599 237.1 266.559 237.783 266.712C238.465 266.865 239.206 266.152 239.437 265.12Z" fill="#F29111"/>
<path d="M238.39 269.794C238.621 268.761 238.256 267.8 237.573 267.647C236.891 267.495 236.15 268.208 235.919 269.24C235.687 270.272 236.053 271.233 236.736 271.386C237.418 271.539 238.159 270.826 238.39 269.794Z" fill="#F29111"/>
</g>
<path d="M274.531 440.395C286.007 440.395 295.311 431.091 295.311 419.615C295.311 408.138 286.007 398.834 274.531 398.834C263.054 398.834 253.75 408.138 253.75 419.615C253.75 431.091 263.054 440.395 274.531 440.395Z" fill="#D9D9D9" fill-opacity="0.5"/>
<path d="M258.452 444.939C264.639 444.939 269.654 439.924 269.654 433.737C269.654 427.55 264.639 422.535 258.452 422.535C252.265 422.535 247.25 427.55 247.25 433.737C247.25 439.924 252.265 444.939 258.452 444.939Z" fill="#D9D9D9" fill-opacity="0.5"/>
<path d="M257.476 430.329C262.407 430.329 266.405 426.331 266.405 421.4C266.405 416.468 262.407 412.471 257.476 412.471C252.545 412.471 248.547 416.468 248.547 421.4C248.547 426.331 252.545 430.329 257.476 430.329Z" fill="#D9D9D9" fill-opacity="0.5"/>
<path d="M290.429 427.733C301.906 427.733 311.21 418.429 311.21 406.953C311.21 395.476 301.906 386.172 290.429 386.172C278.952 386.172 269.648 395.476 269.648 406.953C269.648 418.429 278.952 427.733 290.429 427.733Z" fill="#D9D9D9" fill-opacity="0.5"/>
<path d="M301.476 440.069C312.953 440.069 322.257 430.765 322.257 419.288C322.257 407.812 312.953 398.508 301.476 398.508C289.999 398.508 280.695 407.812 280.695 419.288C280.695 430.765 289.999 440.069 301.476 440.069Z" fill="#D9D9D9" fill-opacity="0.5"/>
<path d="M322.913 451.759C334.39 451.759 343.694 442.455 343.694 430.978C343.694 419.501 334.39 410.197 322.913 410.197C311.437 410.197 302.133 419.501 302.133 430.978C302.133 442.455 311.437 451.759 322.913 451.759Z" fill="#D9D9D9" fill-opacity="0.5"/>
<path d="M322.249 415.071C333.726 415.071 343.03 405.767 343.03 394.29C343.03 382.814 333.726 373.51 322.249 373.51C310.773 373.51 301.469 382.814 301.469 394.29C301.469 405.767 310.773 415.071 322.249 415.071Z" fill="#D9D9D9" fill-opacity="0.5"/>
<path d="M339.14 423.186C350.617 423.186 359.921 413.882 359.921 402.406C359.921 390.929 350.617 381.625 339.14 381.625C327.663 381.625 318.359 390.929 318.359 402.406C318.359 413.882 327.663 423.186 339.14 423.186Z" fill="#D9D9D9" fill-opacity="0.5"/>
<path d="M357.493 423.837C373.004 423.837 385.579 411.262 385.579 395.75C385.579 380.239 373.004 367.664 357.493 367.664C341.981 367.664 329.406 380.239 329.406 395.75C329.406 411.262 341.981 423.837 357.493 423.837Z" fill="#D9D9D9" fill-opacity="0.5"/>
<path d="M361.696 450.462C377.207 450.462 389.782 437.887 389.782 422.375C389.782 406.864 377.207 394.289 361.696 394.289C346.184 394.289 333.609 406.864 333.609 422.375C333.609 437.887 346.184 450.462 361.696 450.462Z" fill="#D9D9D9" fill-opacity="0.5"/>
<path d="M382.332 439.424C401.34 439.424 416.75 424.014 416.75 405.006C416.75 385.997 401.34 370.588 382.332 370.588C363.323 370.588 347.914 385.997 347.914 405.006C347.914 424.014 363.323 439.424 382.332 439.424Z" fill="#D9D9D9" fill-opacity="0.5"/>
<path d="M284.199 418.708C279.946 414.974 277.608 410.916 277.153 406.565C276.731 402.214 278.29 398.058 281.797 394.064C284.232 391.271 287.057 389.291 290.239 388.122C293.453 386.92 296.765 386.661 300.11 387.375C303.486 388.057 306.636 389.68 309.591 392.245C312.091 394.421 313.844 396.889 314.916 399.584C315.987 402.311 316.215 405.071 315.63 407.863C315.046 410.656 313.682 413.286 311.539 415.721C311.506 415.754 311.474 415.786 311.441 415.818C310.045 417.409 308.519 418.611 306.863 419.488C305.207 420.364 303.551 420.786 301.928 420.721C300.304 420.656 298.941 420.104 297.772 419.098C297.707 419.033 297.674 419 297.609 418.968C296.798 418.254 296.213 417.409 295.921 416.435C295.629 415.461 295.629 414.552 295.921 413.643L295.661 413.416C293.161 413.805 290.953 413.156 289.037 411.435C287.089 409.747 286.083 407.798 285.985 405.591C285.888 403.383 286.764 401.24 288.583 399.161C290.661 396.791 293.096 395.557 295.856 395.427C298.648 395.265 301.246 396.272 303.681 398.415C304.59 399.226 305.564 400.233 306.571 401.467C307.61 402.701 308.389 403.772 308.909 404.681L301.278 412.572C299.915 414.13 299.655 415.299 300.499 416.046C301.213 416.663 302.253 416.663 303.616 415.981C304.98 415.299 306.409 414.098 307.87 412.442C307.935 412.377 307.967 412.344 308 412.279C309.526 410.558 310.5 408.675 310.954 406.63C311.409 404.584 311.279 402.636 310.565 400.72C309.85 398.804 308.682 397.116 307.026 395.655C306.961 395.59 306.896 395.525 306.798 395.46C304.525 393.479 302.155 392.213 299.655 391.661C297.155 391.109 294.687 391.369 292.252 392.343C289.849 393.284 287.641 394.94 285.596 397.246C282.868 400.363 281.602 403.448 281.829 406.597C282.056 409.714 283.712 412.636 286.862 415.396C289.459 417.669 292.641 419.552 296.376 420.981L293.551 424.228C290.239 423.124 287.122 421.306 284.199 418.708ZM301.149 401.629C299.752 400.395 298.291 399.876 296.733 400.071C295.207 400.265 293.745 401.11 292.414 402.636C290.336 405.006 290.271 407.052 292.187 408.74C293.193 409.649 294.297 409.941 295.434 409.682C296.603 409.422 297.934 408.545 299.428 407.052L302.902 403.512C302.48 402.896 301.863 402.246 301.149 401.629Z" fill="#4181A1"/>
<path d="M382.293 378.77V383.478H376.027L374.988 388.673H380.767V393.316H374.143L372.423 402.44H367.487L369.241 393.316H364.89L363.201 402.44H358.396L360.052 393.316H354.727V388.673H360.928L361.967 383.478H356.318V378.77H362.779L364.5 369.613H369.403L367.682 378.77H372.13L373.884 369.613H378.689L376.936 378.77H382.293ZM366.805 383.445L365.766 388.641H370.15L371.189 383.445H366.805Z" fill="#4181A1"/>
<path d="M315.897 374.484C317.846 372.113 319.956 370.685 322.261 370.23C324.567 369.743 326.677 370.295 328.561 371.854C329.859 372.893 330.704 374.094 331.158 375.425C331.58 376.724 331.743 378.672 331.58 381.27C331.483 383.056 331.515 384.29 331.71 384.907C331.905 385.556 332.327 386.14 333.041 386.725L334.08 387.569L330.314 392.18L329.015 391.141C327.911 390.232 327.132 389.193 326.71 388.056C326.255 386.887 326.093 385.329 326.223 383.38C326.353 381.4 326.288 380.004 326.093 379.159C325.866 378.348 325.411 377.633 324.697 377.049C323.982 376.464 323.203 376.27 322.359 376.529C321.515 376.757 320.703 377.374 319.859 378.38C318.43 380.101 317.391 382.536 316.709 385.718L311.352 384.484C312.033 380.686 313.56 377.374 315.897 374.484ZM335.769 397.602C334.795 396.823 334.308 395.946 334.21 395.037C334.145 394.096 334.502 393.154 335.314 392.18C336.126 391.206 337.003 390.654 337.912 390.556C338.853 390.426 339.795 390.784 340.737 391.53C341.646 392.277 342.165 393.154 342.263 394.128C342.36 395.102 342.003 396.044 341.224 397.018C340.444 397.959 339.6 398.479 338.626 398.609C337.685 398.706 336.743 398.381 335.769 397.602Z" fill="#4181A1"/>
<path d="M327.779 426.858C326.35 423.708 325.961 420.332 326.61 416.76C327.259 413.188 328.623 410.493 330.636 408.707C332.682 406.922 335.117 406.305 337.909 406.824C339.923 407.181 341.546 407.961 342.812 409.097C344.079 410.266 345.118 412.019 345.962 414.422C347.456 413.545 348.819 412.961 350.053 412.669C351.319 412.409 352.618 412.377 353.95 412.636C356.19 413.058 357.813 414.227 358.885 416.208C359.924 418.189 360.216 420.559 359.697 423.351C359.177 426.144 358.138 428.254 356.547 429.65C354.989 431.079 353.138 431.566 350.995 431.177C349.241 430.852 347.715 430.04 346.449 428.741C345.183 427.442 344.144 425.559 343.267 423.092L335.994 428.222C337.52 429.586 339.565 430.884 342.131 432.151L340.832 439.164C338.916 438.255 337.13 437.183 335.377 435.917C333.656 434.651 332.195 433.287 330.961 431.826L323.266 437.281L324.792 428.969L327.779 426.858ZM351.352 424.748C352.196 424.91 352.878 424.748 353.43 424.293C353.982 423.871 354.339 423.189 354.501 422.247C354.664 421.338 354.566 420.559 354.209 419.877C353.852 419.228 353.235 418.838 352.358 418.676C351.092 418.448 349.534 418.87 347.683 419.974C348.17 421.436 348.689 422.572 349.241 423.319C349.826 424.131 350.508 424.618 351.352 424.748ZM337.26 413.968C335.994 413.74 334.89 414.032 333.981 414.812C333.039 415.624 332.455 416.792 332.195 418.254C331.838 420.137 332 421.89 332.617 423.514L341.254 417.539C340.702 416.5 340.15 415.688 339.533 415.072C338.884 414.52 338.137 414.13 337.26 413.968Z" fill="#4181A1"/>
<path d="M390.793 412.603L399.105 410.265L399.852 415.915L392.286 416.434L397.254 423.09L392.189 425.785L388.715 418.772L385.662 425.721L380.402 423.058L385.338 416.402L377.805 415.817L378.681 410.232L386.831 412.57L385.922 404.355H391.767L390.793 412.603Z" fill="#4181A1"/>
<path d="M57.1919 199.533C57.1919 199.533 57.0295 200.377 56.8347 201.903C56.6074 203.397 56.3801 205.573 56.2178 208.17C56.0554 210.768 55.9905 213.82 56.0879 217.099C56.1529 218.723 56.2503 220.411 56.4126 222.1C56.575 223.788 56.8023 225.541 57.1269 227.23C57.2568 228.074 57.4192 228.918 57.614 229.795C57.7763 230.639 57.9712 231.483 58.166 232.295C58.5556 233.951 59.0751 235.575 59.5946 237.101C60.1466 238.627 60.6986 240.12 61.2831 241.484C61.9 242.848 62.5169 244.114 63.1663 245.251C63.7508 246.419 64.4326 247.394 64.9521 248.303C65.5366 249.179 66.0561 249.959 66.4782 250.576C67.4198 251.809 67.9394 252.491 67.9394 252.491C67.9394 252.491 67.3874 251.842 66.3808 250.673C65.8938 250.089 65.3743 249.342 64.6924 248.498C64.1079 247.621 63.3936 246.614 62.7767 245.478C62.0948 244.341 61.4454 243.108 60.796 241.744C60.4713 241.062 60.1466 240.348 59.8219 239.601C59.5297 238.854 59.2375 238.14 58.9777 237.328C58.4257 235.769 57.9387 234.146 57.5166 232.457C57.2893 231.646 57.0945 230.769 56.9321 229.925C56.7373 229.081 56.6074 228.236 56.4451 227.327C56.1204 225.606 55.958 223.853 55.7957 222.132C55.6658 220.411 55.5359 218.723 55.5035 217.067C55.4385 215.411 55.5035 213.82 55.5684 212.359C55.6658 210.865 55.7307 209.436 55.8606 208.138C56.3152 202.91 57.1919 199.533 57.1919 199.533Z" fill="#6B6B6B"/>
<path d="M49.4936 206.479C49.4936 206.479 49.2988 207.356 49.104 208.947C48.8767 210.506 48.6494 212.746 48.552 215.474C48.487 216.837 48.4546 218.298 48.487 219.857C48.5195 221.415 48.5845 223.039 48.7468 224.727C48.8767 226.416 49.0715 228.137 49.3962 229.89C49.5261 230.767 49.7209 231.643 49.9157 232.52C50.0781 233.397 50.3053 234.273 50.5326 235.118C50.7275 235.994 51.0197 236.839 51.2794 237.715C51.5717 238.559 51.8314 239.404 52.1236 240.248C52.7406 241.904 53.4224 243.527 54.1692 245.021C54.9161 246.515 55.6953 247.976 56.5071 249.275C56.9292 249.924 57.3188 250.541 57.7409 251.19C58.163 251.775 58.5527 252.359 58.9748 252.879C59.3319 253.431 59.7865 253.918 60.1761 254.405C60.5333 254.892 60.9229 255.379 61.2801 255.768C62.0269 256.58 62.6114 257.327 63.1958 257.911C64.2998 259.048 64.9492 259.665 64.9492 259.665C64.9492 259.665 64.2673 259.08 63.0984 257.976C62.514 257.424 61.8646 256.743 61.0853 255.931C60.6957 255.541 60.306 255.087 59.9164 254.632C59.5267 254.145 59.0722 253.658 58.6825 253.138C58.2604 252.586 57.8383 252.034 57.3837 251.45C56.9941 250.866 56.5395 250.216 56.1174 249.567C55.2732 248.268 54.429 246.839 53.6822 245.313C52.9029 243.787 52.2211 242.164 51.5392 240.475C51.2145 239.631 50.9547 238.787 50.6625 237.91C50.4028 237.033 50.1105 236.189 49.8832 235.313C49.656 234.436 49.4287 233.559 49.2663 232.65C49.0715 231.773 48.9416 230.864 48.7793 229.987C48.487 228.234 48.2922 226.481 48.1623 224.76C48.0325 223.071 48 221.415 48 219.857C48 218.298 48.0974 216.805 48.1623 215.441C48.3572 212.714 48.7143 210.473 49.0066 208.915C49.2014 207.324 49.4611 206.447 49.4936 206.479Z" fill="#6B6B6B"/>
<path d="M289.176 357.043C289.176 357.043 288.818 357.693 288.104 358.797C287.714 359.349 287.292 360.031 286.773 360.713C286.221 361.459 285.636 362.239 284.89 363.083C284.175 363.96 283.364 364.804 282.487 365.81C281.578 366.719 280.636 367.694 279.597 368.603C278.526 369.544 277.487 370.486 276.318 371.363C275.701 371.817 275.181 372.272 274.564 372.726C273.98 373.148 273.33 373.571 272.713 373.993C271.512 374.869 270.181 375.551 268.914 376.33C268.298 376.72 267.648 377.012 266.966 377.337C266.317 377.629 265.7 377.954 265.018 378.279C263.752 378.928 262.485 379.35 261.284 379.805C260.115 380.324 258.946 380.649 257.875 380.974C256.803 381.298 255.829 381.656 254.92 381.785C254.011 381.98 253.232 382.11 252.615 382.272C251.348 382.532 250.602 382.662 250.602 382.662C250.602 382.662 251.283 382.435 252.55 382.078C253.167 381.883 253.913 381.688 254.79 381.428C255.667 381.201 256.608 380.779 257.648 380.422C258.719 380.032 259.823 379.642 260.959 379.123C261.544 378.863 262.128 378.603 262.713 378.311C263.297 378.019 263.914 377.759 264.531 377.434C265.732 376.785 267.031 376.168 268.265 375.421C269.466 374.675 270.798 373.96 271.999 373.083C272.584 372.661 273.2 372.272 273.817 371.817C274.402 371.395 274.986 370.941 275.571 370.518C276.707 369.674 277.811 368.733 278.883 367.856C279.954 366.979 280.928 366.07 281.87 365.193C282.779 364.284 283.656 363.505 284.37 362.628C285.896 361.037 287.065 359.609 287.877 358.602C288.656 357.595 289.111 356.979 289.111 356.979L289.176 357.043Z" fill="#6B6B6B"/>
<path d="M295.07 358.086C295.07 358.086 295.038 358.314 294.908 358.703C294.745 359.125 294.583 359.742 294.258 360.489C293.966 361.268 293.512 362.145 292.992 363.184C292.408 364.158 291.791 365.327 290.947 366.464C290.557 367.048 290.167 367.665 289.648 368.249C289.161 368.801 288.706 369.451 288.187 370.1C287.7 370.782 287.083 371.334 286.531 371.951C285.979 372.568 285.362 373.25 284.712 373.802C283.414 374.971 282.115 376.237 280.654 377.373C279.939 377.958 279.192 378.51 278.478 379.094C277.731 379.646 276.952 380.166 276.205 380.718C275.426 381.237 274.647 381.789 273.867 382.276C273.088 382.731 272.244 383.218 271.465 383.673C270.685 384.127 269.906 384.614 269.127 385.069C268.348 385.523 267.536 385.913 266.757 386.303C265.198 387.082 263.704 387.926 262.243 388.543C260.75 389.16 259.386 389.777 258.055 390.329C256.788 390.913 255.555 391.335 254.483 391.693C253.412 392.082 252.47 392.407 251.723 392.667C250.197 393.186 249.32 393.511 249.32 393.511C249.32 393.511 250.165 393.154 251.658 392.504C252.405 392.18 253.347 391.79 254.353 391.335C255.425 390.881 256.594 390.394 257.827 389.777C259.094 389.16 260.457 388.511 261.886 387.829C262.633 387.504 263.315 387.114 264.062 386.692C264.808 386.303 265.555 385.881 266.302 385.491C267.081 385.069 267.861 384.679 268.64 384.225C269.387 383.737 270.198 383.283 270.945 382.796C271.692 382.309 272.504 381.854 273.283 381.335C274.03 380.783 274.809 380.296 275.556 379.776C276.303 379.224 277.082 378.737 277.829 378.218C278.543 377.633 279.29 377.081 279.972 376.529C281.433 375.458 282.764 374.191 284.03 373.055C284.712 372.503 285.264 371.854 285.849 371.237C286.401 370.62 287.083 370.1 287.57 369.483C288.089 368.899 288.609 368.314 289.096 367.762C289.583 367.21 290.005 366.626 290.427 366.074C290.882 365.554 291.239 364.97 291.596 364.45C291.953 363.931 292.31 363.411 292.602 362.957C293.187 361.983 293.674 361.139 293.999 360.392C294.356 359.677 294.616 359.06 294.778 358.638C294.94 358.216 295.005 358.021 295.005 358.021L295.07 358.086Z" fill="#6B6B6B"/>
<path d="M71.6746 188.658C78.688 203.14 190.774 418.999 190.774 418.999L196.683 416.141C196.683 416.141 96.9685 194.73 89.403 179.08C83.1364 166.059 66.382 177.651 71.6746 188.658Z" fill="#874435"/>
<path d="M182.32 402.734C187.613 412.897 190.762 419.001 190.762 419.001L196.672 416.144C196.672 416.144 194.074 410.397 189.723 400.721L182.32 402.734Z" fill="#5C2C20"/>
<path d="M198.309 412.504L185.808 415.232L181.359 409.063L194.25 404.225L198.309 412.504Z" fill="#9CB9CC"/>
<path d="M144.075 438.546L134.789 437.896L140.666 417.375L148.329 417.311L144.075 438.546Z" fill="#D69C6D"/>
<path d="M144.533 417.244L143.852 438.414L244.216 429.874L241.326 415.23L144.533 417.244Z" fill="#EDB180"/>
<path d="M147.68 421.236L150.407 437.861L151.479 437.763L147.68 421.236Z" fill="#CF835D"/>
<path d="M173.747 419.648L173.195 435.916L174.202 435.818L173.747 419.648Z" fill="#CF835D"/>
<path d="M184.482 419.195L183.93 434.976L185.326 434.846L184.482 419.195Z" fill="#CF835D"/>
<path d="M161.656 421.273L162.5 436.794L165.618 436.534L161.656 421.273Z" fill="#CF835D"/>
<path d="M191.492 419.291L193.505 434.195L195.324 434.032L191.492 419.291Z" fill="#CF835D"/>
<path d="M232.75 417.084L232.328 430.884L233.984 430.754L232.75 417.084Z" fill="#CF835D"/>
<path d="M225.883 418.152L225.98 431.4L226.857 431.335L225.883 418.152Z" fill="#CF835D"/>
<path d="M198.547 419.355L201.437 433.512L202.411 433.415L198.547 419.355Z" fill="#CF835D"/>
<path d="M213.32 417.699L215.398 432.311L217.314 432.148L213.32 417.699Z" fill="#CF835D"/>
<path d="M241.331 415.23L144.539 417.244L144.344 423.121L242.045 418.997L241.331 415.23Z" fill="#D4996A"/>
<path d="M242.364 417.312L142.877 420.169L140.539 412.539L243.241 412.701L242.364 417.312Z" fill="#758EBA"/>
<path d="M107.714 262.363C107.844 260.869 109.337 259.96 110.636 260.544L123.851 266.616C126.254 267.72 127.326 270.642 126.286 273.175L117.844 293.728C116.805 296.261 114.045 297.397 111.643 296.326L104.727 293.144L107.714 262.363Z" fill="#F29111"/>
<g filter="url(#filter4_d_2831_9967)">
<path d="M236.652 330.967L246.523 343.046C247.724 344.507 248.081 346.455 247.497 348.338L243.049 362.852C242.172 365.742 239.25 367.918 236.035 368.145L169.635 372.334C165.998 372.561 163.043 370.223 162.816 366.976L162.654 364.378C162.361 360.157 165.186 355.969 169.602 354.118L228.47 329.344C231.457 328.077 234.834 328.759 236.652 330.967Z" fill="white"/>
<path d="M166.292 355.417L200.385 341.033L192.333 370.97L167.721 372.399C164.279 372.594 161.259 370.418 160.805 367.366L160.448 364.963C159.831 361.002 162.233 357.138 166.292 355.417Z" fill="#F29111"/>
</g>
<defs>
<filter id="filter0_d_2831_9967" x="164.266" y="83.2734" width="62.1367" height="103.156" filterUnits="userSpaceOnUse" color-interpolation-filters="sRGB">
<feFlood flood-opacity="0" result="BackgroundImageFix"/>
<feColorMatrix in="SourceAlpha" type="matrix" values="0 0 0 0 0 0 0 0 0 0 0 0 0 0 0 0 0 0 127 0" result="hardAlpha"/>
<feOffset/>
<feGaussianBlur stdDeviation="4"/>
<feComposite in2="hardAlpha" operator="out"/>
<feColorMatrix type="matrix" values="0 0 0 0 0 0 0 0 0 0 0 0 0 0 0 0 0 0 0.25 0"/>
<feBlend mode="normal" in2="BackgroundImageFix" result="effect1_dropShadow_2831_9967"/>
<feBlend mode="normal" in="SourceGraphic" in2="effect1_dropShadow_2831_9967" result="shape"/>
</filter>
<filter id="filter1_d_2831_9967" x="98.6719" y="260.863" width="75.6523" height="52.4248" filterUnits="userSpaceOnUse" color-interpolation-filters="sRGB">
<feFlood flood-opacity="0" result="BackgroundImageFix"/>
<feColorMatrix in="SourceAlpha" type="matrix" values="0 0 0 0 0 0 0 0 0 0 0 0 0 0 0 0 0 0 127 0" result="hardAlpha"/>
<feOffset/>
<feGaussianBlur stdDeviation="4"/>
<feComposite in2="hardAlpha" operator="out"/>
<feColorMatrix type="matrix" values="0 0 0 0 0 0 0 0 0 0 0 0 0 0 0 0 0 0 0.25 0"/>
<feBlend mode="normal" in2="BackgroundImageFix" result="effect1_dropShadow_2831_9967"/>
<feBlend mode="normal" in="SourceGraphic" in2="effect1_dropShadow_2831_9967" result="shape"/>
</filter>
<filter id="filter2_d_2831_9967" x="128.891" y="119.916" width="330.102" height="238.644" filterUnits="userSpaceOnUse" color-interpolation-filters="sRGB">
<feFlood flood-opacity="0" result="BackgroundImageFix"/>
<feColorMatrix in="SourceAlpha" type="matrix" values="0 0 0 0 0 0 0 0 0 0 0 0 0 0 0 0 0 0 127 0" result="hardAlpha"/>
<feOffset/>
<feGaussianBlur stdDeviation="4"/>
<feComposite in2="hardAlpha" operator="out"/>
<feColorMatrix type="matrix" values="0 0 0 0 0 0 0 0 0 0 0 0 0 0 0 0 0 0 0.25 0"/>
<feBlend mode="normal" in2="BackgroundImageFix" result="effect1_dropShadow_2831_9967"/>
<feBlend mode="normal" in="SourceGraphic" in2="effect1_dropShadow_2831_9967" result="shape"/>
</filter>
<filter id="filter3_d_2831_9967" x="132.891" y="123.916" width="322.102" height="230.644" filterUnits="userSpaceOnUse" color-interpolation-filters="sRGB">
<feFlood flood-opacity="0" result="BackgroundImageFix"/>
<feColorMatrix in="SourceAlpha" type="matrix" values="0 0 0 0 0 0 0 0 0 0 0 0 0 0 0 0 0 0 127 0" result="hardAlpha"/>
<feOffset/>
<feGaussianBlur stdDeviation="2"/>
<feComposite in2="hardAlpha" operator="out"/>
<feColorMatrix type="matrix" values="0 0 0 0 0 0 0 0 0 0 0 0 0 0 0 0 0 0 0.1 0"/>
<feBlend mode="normal" in2="BackgroundImageFix" result="effect1_dropShadow_2831_9967"/>
<feBlend mode="normal" in="SourceGraphic" in2="effect1_dropShadow_2831_9967" result="shape"/>
</filter>
<filter id="filter4_d_2831_9967" x="152.352" y="320.711" width="103.422" height="59.7002" filterUnits="userSpaceOnUse" color-interpolation-filters="sRGB">
<feFlood flood-opacity="0" result="BackgroundImageFix"/>
<feColorMatrix in="SourceAlpha" type="matrix" values="0 0 0 0 0 0 0 0 0 0 0 0 0 0 0 0 0 0 127 0" result="hardAlpha"/>
<feOffset/>
<feGaussianBlur stdDeviation="4"/>
<feComposite in2="hardAlpha" operator="out"/>
<feColorMatrix type="matrix" values="0 0 0 0 0 0 0 0 0 0 0 0 0 0 0 0 0 0 0.25 0"/>
<feBlend mode="normal" in2="BackgroundImageFix" result="effect1_dropShadow_2831_9967"/>
<feBlend mode="normal" in="SourceGraphic" in2="effect1_dropShadow_2831_9967" result="shape"/>
</filter>
</defs>
</svg>
