<svg width="500" height="500" viewBox="0 0 500 500" fill="none" xmlns="http://www.w3.org/2000/svg">
<g clip-path="url(#clip0_2015_1581)">
<path d="M0 0H500V500H0V0Z" fill="#6D90AA"/>
<path d="M229.782 414.401C291.315 414.401 341.197 405.088 341.197 393.6C341.197 382.112 291.315 372.799 229.782 372.799C168.249 372.799 118.367 382.112 118.367 393.6C118.367 405.088 168.249 414.401 229.782 414.401Z" fill="#35373A" fill-opacity="0.63"/>
<path d="M152.223 120.02C148.833 140.394 149.887 171.995 150.998 186.926L185.477 161.85C182.998 134.923 174.934 116.544 169.349 107.71C167.81 105.26 164.562 104.832 162.168 106.456L160.8 107.397C156.384 110.332 153.107 114.748 152.223 120.02Z" fill="url(#paint0_linear_2015_1581)"/>
<path d="M179.489 130.876C163.417 114.349 153.273 130.021 150.281 139.71C151.564 120.476 150.281 116.201 159.4 108.365C167.35 101.527 169.943 108.365 170.94 109.933C171.852 111.386 177.209 122.755 179.489 130.876Z" fill="#FF9100"/>
<path fill-rule="evenodd" clip-rule="evenodd" d="M312.106 190.916C336.013 168.291 372.658 126.717 381.976 102.724C382.83 100.501 381.947 98.0509 380.038 96.6546L379.468 96.2557C374.054 92.2949 366.788 91.8675 360.975 95.2014C337.695 108.594 306.151 128.028 273.182 159.571C260.017 153.73 245.115 150.425 229.357 150.425C175.616 150.425 132.047 188.693 132.047 235.909C132.047 283.125 175.616 321.394 229.357 321.394C283.098 321.394 326.667 283.125 326.667 235.909C326.667 219.411 321.339 203.995 312.106 190.916Z" fill="white"/>
<path d="M254.199 313.557L257.619 299.937C258.018 298.284 259.157 296.916 260.696 296.175L272.493 290.562C274.858 289.45 277.679 290.049 279.332 292.072L313.526 333.39C315.406 335.641 315.235 338.975 313.155 341.055L311.503 342.707C308.824 345.386 304.692 345.984 301.358 344.161L257.02 319.968C254.741 318.715 253.572 316.093 254.199 313.557Z" fill="#35373A"/>
<path d="M301.391 344.134L273.523 328.917L300.166 317.234L313.53 333.391C315.411 335.642 315.24 338.976 313.16 341.056L311.536 342.68C308.829 345.359 304.725 345.957 301.391 344.134Z" fill="#F29111"/>
<path d="M150.509 290.022L146.462 284.722C145.636 283.639 143.955 283.896 143.499 285.178L130.961 319.771C130.562 320.91 130.591 322.136 131.104 323.247L133.383 328.205C133.925 329.373 135.52 329.544 136.318 328.519L149.939 310.225C150.537 309.427 150.851 308.487 150.851 307.489V291.048C150.851 290.706 150.737 290.335 150.509 290.022Z" fill="#35373A"/>
<path d="M136.317 328.519L143.155 319.372L135.604 306.977L130.96 319.799C130.561 320.939 130.618 322.164 131.102 323.247L133.382 328.205C133.952 329.374 135.547 329.545 136.317 328.519Z" fill="#FF9100"/>
<path d="M381.864 102.695C377.248 112.81 368.671 129.337 350.463 150.538C350.463 150.538 357.187 124.607 351.032 119.336C344.878 114.064 317.836 122.613 317.836 122.613C328.579 115.346 348.382 100.586 363 94.2032C367.93 92.0376 373.486 92.8355 378.302 95.2006L379.299 95.685C381.892 96.9672 383.061 100.045 381.864 102.695Z" fill="#FF9100"/>
<path d="M268.251 240.64C268.251 271.101 243.005 301.476 204.85 301.476C166.695 301.476 135.75 271.072 135.75 240.64C135.75 210.207 163.846 185.502 202.001 185.502C240.155 185.502 268.251 210.179 268.251 240.64Z" fill="#35373A"/>
<path d="M382.12 102.382C372.745 127.857 335.701 169.915 312.279 190.916L305.867 182.652L380.809 101.641C381.407 100.957 382.433 101.527 382.12 102.382Z" fill="#E9E6E6"/>
<mask id="mask0_2015_1581" style="mask-type:luminance" maskUnits="userSpaceOnUse" x="148" y="222" width="37" height="27">
<path d="M184.677 248.02C184.677 248.02 176.556 238.759 166.526 238.759C156.496 238.759 148.375 249.758 148.375 248.02C148.375 234 156.496 222.631 166.526 222.631C176.556 222.631 184.677 234 184.677 248.02Z" fill="white"/>
</mask>
<g mask="url(#mask0_2015_1581)">
<path d="M151.677 223.315C152.495 223.315 153.159 222.524 153.159 221.548C153.159 220.572 152.495 219.781 151.677 219.781C150.859 219.781 150.195 220.572 150.195 221.548C150.195 222.524 150.859 223.315 151.677 223.315Z" fill="#F29111"/>
<path d="M151.677 227.76C152.495 227.76 153.159 226.969 153.159 225.993C153.159 225.018 152.495 224.227 151.677 224.227C150.859 224.227 150.195 225.018 150.195 225.993C150.195 226.969 150.859 227.76 151.677 227.76Z" fill="#F29111"/>
<path d="M151.677 232.205C152.495 232.205 153.159 231.414 153.159 230.439C153.159 229.463 152.495 228.672 151.677 228.672C150.859 228.672 150.195 229.463 150.195 230.439C150.195 231.414 150.859 232.205 151.677 232.205Z" fill="#F29111"/>
<path d="M151.677 236.651C152.495 236.651 153.159 235.86 153.159 234.884C153.159 233.908 152.495 233.117 151.677 233.117C150.859 233.117 150.195 233.908 150.195 234.884C150.195 235.86 150.859 236.651 151.677 236.651Z" fill="#F29111"/>
<path d="M151.677 241.096C152.495 241.096 153.159 240.305 153.159 239.329C153.159 238.353 152.495 237.562 151.677 237.562C150.859 237.562 150.195 238.353 150.195 239.329C150.195 240.305 150.859 241.096 151.677 241.096Z" fill="#F29111"/>
<path d="M155.38 223.315C156.199 223.315 156.862 222.524 156.862 221.548C156.862 220.572 156.199 219.781 155.38 219.781C154.562 219.781 153.898 220.572 153.898 221.548C153.898 222.524 154.562 223.315 155.38 223.315Z" fill="#F29111"/>
<path d="M155.38 227.76C156.199 227.76 156.862 226.969 156.862 225.993C156.862 225.018 156.199 224.227 155.38 224.227C154.562 224.227 153.898 225.018 153.898 225.993C153.898 226.969 154.562 227.76 155.38 227.76Z" fill="#F29111"/>
<path d="M155.38 232.205C156.199 232.205 156.862 231.414 156.862 230.439C156.862 229.463 156.199 228.672 155.38 228.672C154.562 228.672 153.898 229.463 153.898 230.439C153.898 231.414 154.562 232.205 155.38 232.205Z" fill="#F29111"/>
<path d="M155.38 236.651C156.199 236.651 156.862 235.86 156.862 234.884C156.862 233.908 156.199 233.117 155.38 233.117C154.562 233.117 153.898 233.908 153.898 234.884C153.898 235.86 154.562 236.651 155.38 236.651Z" fill="#F29111"/>
<path d="M155.38 241.096C156.199 241.096 156.862 240.305 156.862 239.329C156.862 238.353 156.199 237.562 155.38 237.562C154.562 237.562 153.898 238.353 153.898 239.329C153.898 240.305 154.562 241.096 155.38 241.096Z" fill="#F29111"/>
<path d="M147.974 223.315C148.792 223.315 149.456 222.524 149.456 221.548C149.456 220.572 148.792 219.781 147.974 219.781C147.156 219.781 146.492 220.572 146.492 221.548C146.492 222.524 147.156 223.315 147.974 223.315Z" fill="#F29111"/>
<path d="M147.974 227.76C148.792 227.76 149.456 226.969 149.456 225.993C149.456 225.018 148.792 224.227 147.974 224.227C147.156 224.227 146.492 225.018 146.492 225.993C146.492 226.969 147.156 227.76 147.974 227.76Z" fill="#F29111"/>
<path d="M147.974 232.205C148.792 232.205 149.456 231.414 149.456 230.439C149.456 229.463 148.792 228.672 147.974 228.672C147.156 228.672 146.492 229.463 146.492 230.439C146.492 231.414 147.156 232.205 147.974 232.205Z" fill="#F29111"/>
<path d="M147.974 236.651C148.792 236.651 149.456 235.86 149.456 234.884C149.456 233.908 148.792 233.117 147.974 233.117C147.156 233.117 146.492 233.908 146.492 234.884C146.492 235.86 147.156 236.651 147.974 236.651Z" fill="#F29111"/>
<path d="M147.974 241.096C148.792 241.096 149.456 240.305 149.456 239.329C149.456 238.353 148.792 237.562 147.974 237.562C147.156 237.562 146.492 238.353 146.492 239.329C146.492 240.305 147.156 241.096 147.974 241.096Z" fill="#F29111"/>
<path d="M159.083 223.315C159.902 223.315 160.565 222.524 160.565 221.548C160.565 220.572 159.902 219.781 159.083 219.781C158.265 219.781 157.602 220.572 157.602 221.548C157.602 222.524 158.265 223.315 159.083 223.315Z" fill="#F29111"/>
<path d="M159.083 227.76C159.902 227.76 160.565 226.969 160.565 225.993C160.565 225.018 159.902 224.227 159.083 224.227C158.265 224.227 157.602 225.018 157.602 225.993C157.602 226.969 158.265 227.76 159.083 227.76Z" fill="#F29111"/>
<path d="M159.083 232.205C159.902 232.205 160.565 231.414 160.565 230.439C160.565 229.463 159.902 228.672 159.083 228.672C158.265 228.672 157.602 229.463 157.602 230.439C157.602 231.414 158.265 232.205 159.083 232.205Z" fill="#F29111"/>
<path d="M159.083 236.651C159.902 236.651 160.565 235.86 160.565 234.884C160.565 233.908 159.902 233.117 159.083 233.117C158.265 233.117 157.602 233.908 157.602 234.884C157.602 235.86 158.265 236.651 159.083 236.651Z" fill="#F29111"/>
<path d="M159.083 241.096C159.902 241.096 160.565 240.305 160.565 239.329C160.565 238.353 159.902 237.562 159.083 237.562C158.265 237.562 157.602 238.353 157.602 239.329C157.602 240.305 158.265 241.096 159.083 241.096Z" fill="#F29111"/>
<path d="M166.497 223.315C167.316 223.315 167.979 222.524 167.979 221.548C167.979 220.572 167.316 219.781 166.497 219.781C165.679 219.781 165.016 220.572 165.016 221.548C165.016 222.524 165.679 223.315 166.497 223.315Z" fill="#F29111"/>
<path d="M166.497 227.76C167.316 227.76 167.979 226.969 167.979 225.993C167.979 225.018 167.316 224.227 166.497 224.227C165.679 224.227 165.016 225.018 165.016 225.993C165.016 226.969 165.679 227.76 166.497 227.76Z" fill="#F29111"/>
<path d="M166.497 232.205C167.316 232.205 167.979 231.414 167.979 230.439C167.979 229.463 167.316 228.672 166.497 228.672C165.679 228.672 165.016 229.463 165.016 230.439C165.016 231.414 165.679 232.205 166.497 232.205Z" fill="#F29111"/>
<path d="M166.497 236.651C167.316 236.651 167.979 235.86 167.979 234.884C167.979 233.908 167.316 233.117 166.497 233.117C165.679 233.117 165.016 233.908 165.016 234.884C165.016 235.86 165.679 236.651 166.497 236.651Z" fill="#F29111"/>
<path d="M166.497 241.096C167.316 241.096 167.979 240.305 167.979 239.329C167.979 238.353 167.316 237.562 166.497 237.562C165.679 237.562 165.016 238.353 165.016 239.329C165.016 240.305 165.679 241.096 166.497 241.096Z" fill="#F29111"/>
<path d="M177.607 223.315C178.425 223.315 179.088 222.524 179.088 221.548C179.088 220.572 178.425 219.781 177.607 219.781C176.788 219.781 176.125 220.572 176.125 221.548C176.125 222.524 176.788 223.315 177.607 223.315Z" fill="#F29111"/>
<path d="M177.607 227.76C178.425 227.76 179.088 226.969 179.088 225.993C179.088 225.018 178.425 224.227 177.607 224.227C176.788 224.227 176.125 225.018 176.125 225.993C176.125 226.969 176.788 227.76 177.607 227.76Z" fill="#F29111"/>
<path d="M177.607 232.205C178.425 232.205 179.088 231.414 179.088 230.439C179.088 229.463 178.425 228.672 177.607 228.672C176.788 228.672 176.125 229.463 176.125 230.439C176.125 231.414 176.788 232.205 177.607 232.205Z" fill="#F29111"/>
<path d="M177.607 236.651C178.425 236.651 179.088 235.86 179.088 234.884C179.088 233.908 178.425 233.117 177.607 233.117C176.788 233.117 176.125 233.908 176.125 234.884C176.125 235.86 176.788 236.651 177.607 236.651Z" fill="#F29111"/>
<path d="M177.607 241.096C178.425 241.096 179.088 240.305 179.088 239.329C179.088 238.353 178.425 237.562 177.607 237.562C176.788 237.562 176.125 238.353 176.125 239.329C176.125 240.305 176.788 241.096 177.607 241.096Z" fill="#F29111"/>
<path d="M170.2 223.315C171.019 223.315 171.682 222.524 171.682 221.548C171.682 220.572 171.019 219.781 170.2 219.781C169.382 219.781 168.719 220.572 168.719 221.548C168.719 222.524 169.382 223.315 170.2 223.315Z" fill="#F29111"/>
<path d="M170.2 227.76C171.019 227.76 171.682 226.969 171.682 225.993C171.682 225.018 171.019 224.227 170.2 224.227C169.382 224.227 168.719 225.018 168.719 225.993C168.719 226.969 169.382 227.76 170.2 227.76Z" fill="#F29111"/>
<path d="M170.2 232.205C171.019 232.205 171.682 231.414 171.682 230.439C171.682 229.463 171.019 228.672 170.2 228.672C169.382 228.672 168.719 229.463 168.719 230.439C168.719 231.414 169.382 232.205 170.2 232.205Z" fill="#F29111"/>
<path d="M170.2 236.651C171.019 236.651 171.682 235.86 171.682 234.884C171.682 233.908 171.019 233.117 170.2 233.117C169.382 233.117 168.719 233.908 168.719 234.884C168.719 235.86 169.382 236.651 170.2 236.651Z" fill="#F29111"/>
<path d="M170.2 241.096C171.019 241.096 171.682 240.305 171.682 239.329C171.682 238.353 171.019 237.562 170.2 237.562C169.382 237.562 168.719 238.353 168.719 239.329C168.719 240.305 169.382 241.096 170.2 241.096Z" fill="#F29111"/>
<path d="M181.341 223.315C182.159 223.315 182.823 222.524 182.823 221.548C182.823 220.572 182.159 219.781 181.341 219.781C180.523 219.781 179.859 220.572 179.859 221.548C179.859 222.524 180.523 223.315 181.341 223.315Z" fill="#F29111"/>
<path d="M181.341 227.76C182.159 227.76 182.823 226.969 182.823 225.993C182.823 225.018 182.159 224.227 181.341 224.227C180.523 224.227 179.859 225.018 179.859 225.993C179.859 226.969 180.523 227.76 181.341 227.76Z" fill="#F29111"/>
<path d="M181.341 232.205C182.159 232.205 182.823 231.414 182.823 230.439C182.823 229.463 182.159 228.672 181.341 228.672C180.523 228.672 179.859 229.463 179.859 230.439C179.859 231.414 180.523 232.205 181.341 232.205Z" fill="#F29111"/>
<path d="M181.341 236.651C182.159 236.651 182.823 235.86 182.823 234.884C182.823 233.908 182.159 233.117 181.341 233.117C180.523 233.117 179.859 233.908 179.859 234.884C179.859 235.86 180.523 236.651 181.341 236.651Z" fill="#F29111"/>
<path d="M181.341 241.096C182.159 241.096 182.823 240.305 182.823 239.329C182.823 238.353 182.159 237.562 181.341 237.562C180.523 237.562 179.859 238.353 179.859 239.329C179.859 240.305 180.523 241.096 181.341 241.096Z" fill="#F29111"/>
<path d="M162.794 223.315C163.613 223.315 164.276 222.524 164.276 221.548C164.276 220.572 163.613 219.781 162.794 219.781C161.976 219.781 161.312 220.572 161.312 221.548C161.312 222.524 161.976 223.315 162.794 223.315Z" fill="#F29111"/>
<path d="M162.794 227.76C163.613 227.76 164.276 226.969 164.276 225.993C164.276 225.018 163.613 224.227 162.794 224.227C161.976 224.227 161.312 225.018 161.312 225.993C161.312 226.969 161.976 227.76 162.794 227.76Z" fill="#F29111"/>
<path d="M162.794 232.205C163.613 232.205 164.276 231.414 164.276 230.439C164.276 229.463 163.613 228.672 162.794 228.672C161.976 228.672 161.312 229.463 161.312 230.439C161.312 231.414 161.976 232.205 162.794 232.205Z" fill="#F29111"/>
<path d="M162.794 236.651C163.613 236.651 164.276 235.86 164.276 234.884C164.276 233.908 163.613 233.117 162.794 233.117C161.976 233.117 161.312 233.908 161.312 234.884C161.312 235.86 161.976 236.651 162.794 236.651Z" fill="#F29111"/>
<path d="M162.794 241.096C163.613 241.096 164.276 240.305 164.276 239.329C164.276 238.353 163.613 237.562 162.794 237.562C161.976 237.562 161.312 238.353 161.312 239.329C161.312 240.305 161.976 241.096 162.794 241.096Z" fill="#F29111"/>
<path d="M173.904 223.315C174.722 223.315 175.385 222.524 175.385 221.548C175.385 220.572 174.722 219.781 173.904 219.781C173.085 219.781 172.422 220.572 172.422 221.548C172.422 222.524 173.085 223.315 173.904 223.315Z" fill="#F29111"/>
<path d="M173.904 227.76C174.722 227.76 175.385 226.969 175.385 225.993C175.385 225.018 174.722 224.227 173.904 224.227C173.085 224.227 172.422 225.018 172.422 225.993C172.422 226.969 173.085 227.76 173.904 227.76Z" fill="#F29111"/>
<path d="M173.904 232.205C174.722 232.205 175.385 231.414 175.385 230.439C175.385 229.463 174.722 228.672 173.904 228.672C173.085 228.672 172.422 229.463 172.422 230.439C172.422 231.414 173.085 232.205 173.904 232.205Z" fill="#F29111"/>
<path d="M173.904 236.651C174.722 236.651 175.385 235.86 175.385 234.884C175.385 233.908 174.722 233.117 173.904 233.117C173.085 233.117 172.422 233.908 172.422 234.884C172.422 235.86 173.085 236.651 173.904 236.651Z" fill="#F29111"/>
<path d="M173.904 241.096C174.722 241.096 175.385 240.305 175.385 239.329C175.385 238.353 174.722 237.562 173.904 237.562C173.085 237.562 172.422 238.353 172.422 239.329C172.422 240.305 173.085 241.096 173.904 241.096Z" fill="#F29111"/>
<path d="M185.044 223.315C185.863 223.315 186.526 222.524 186.526 221.548C186.526 220.572 185.863 219.781 185.044 219.781C184.226 219.781 183.562 220.572 183.562 221.548C183.562 222.524 184.226 223.315 185.044 223.315Z" fill="#F29111"/>
<path d="M185.044 227.76C185.863 227.76 186.526 226.969 186.526 225.993C186.526 225.018 185.863 224.227 185.044 224.227C184.226 224.227 183.562 225.018 183.562 225.993C183.562 226.969 184.226 227.76 185.044 227.76Z" fill="#F29111"/>
<path d="M185.044 232.205C185.863 232.205 186.526 231.414 186.526 230.439C186.526 229.463 185.863 228.672 185.044 228.672C184.226 228.672 183.562 229.463 183.562 230.439C183.562 231.414 184.226 232.205 185.044 232.205Z" fill="#F29111"/>
<path d="M185.044 236.651C185.863 236.651 186.526 235.86 186.526 234.884C186.526 233.908 185.863 233.117 185.044 233.117C184.226 233.117 183.562 233.908 183.562 234.884C183.562 235.86 184.226 236.651 185.044 236.651Z" fill="#F29111"/>
<path d="M185.044 241.096C185.863 241.096 186.526 240.305 186.526 239.329C186.526 238.353 185.863 237.562 185.044 237.562C184.226 237.562 183.562 238.353 183.562 239.329C183.562 240.305 184.226 241.096 185.044 241.096Z" fill="#F29111"/>
<path d="M151.677 245.541C152.495 245.541 153.159 244.75 153.159 243.774C153.159 242.799 152.495 242.008 151.677 242.008C150.859 242.008 150.195 242.799 150.195 243.774C150.195 244.75 150.859 245.541 151.677 245.541Z" fill="#F29111"/>
<path d="M151.677 249.957C152.495 249.957 153.159 249.166 153.159 248.191C153.159 247.215 152.495 246.424 151.677 246.424C150.859 246.424 150.195 247.215 150.195 248.191C150.195 249.166 150.859 249.957 151.677 249.957Z" fill="#F29111"/>
<path d="M155.38 245.541C156.199 245.541 156.862 244.75 156.862 243.774C156.862 242.799 156.199 242.008 155.38 242.008C154.562 242.008 153.898 242.799 153.898 243.774C153.898 244.75 154.562 245.541 155.38 245.541Z" fill="#F29111"/>
<path d="M155.38 249.957C156.199 249.957 156.862 249.166 156.862 248.191C156.862 247.215 156.199 246.424 155.38 246.424C154.562 246.424 153.898 247.215 153.898 248.191C153.898 249.166 154.562 249.957 155.38 249.957Z" fill="#F29111"/>
<path d="M147.974 245.541C148.792 245.541 149.456 244.75 149.456 243.774C149.456 242.799 148.792 242.008 147.974 242.008C147.156 242.008 146.492 242.799 146.492 243.774C146.492 244.75 147.156 245.541 147.974 245.541Z" fill="#F29111"/>
<path d="M147.974 249.957C148.792 249.957 149.456 249.166 149.456 248.191C149.456 247.215 148.792 246.424 147.974 246.424C147.156 246.424 146.492 247.215 146.492 248.191C146.492 249.166 147.156 249.957 147.974 249.957Z" fill="#F29111"/>
<path d="M159.083 245.541C159.902 245.541 160.565 244.75 160.565 243.774C160.565 242.799 159.902 242.008 159.083 242.008C158.265 242.008 157.602 242.799 157.602 243.774C157.602 244.75 158.265 245.541 159.083 245.541Z" fill="#F29111"/>
<path d="M159.083 249.957C159.902 249.957 160.565 249.166 160.565 248.191C160.565 247.215 159.902 246.424 159.083 246.424C158.265 246.424 157.602 247.215 157.602 248.191C157.602 249.166 158.265 249.957 159.083 249.957Z" fill="#F29111"/>
<path d="M166.497 245.541C167.316 245.541 167.979 244.75 167.979 243.774C167.979 242.799 167.316 242.008 166.497 242.008C165.679 242.008 165.016 242.799 165.016 243.774C165.016 244.75 165.679 245.541 166.497 245.541Z" fill="#F29111"/>
<path d="M166.497 249.957C167.316 249.957 167.979 249.166 167.979 248.191C167.979 247.215 167.316 246.424 166.497 246.424C165.679 246.424 165.016 247.215 165.016 248.191C165.016 249.166 165.679 249.957 166.497 249.957Z" fill="#F29111"/>
<path d="M177.607 245.541C178.425 245.541 179.088 244.75 179.088 243.774C179.088 242.799 178.425 242.008 177.607 242.008C176.788 242.008 176.125 242.799 176.125 243.774C176.125 244.75 176.788 245.541 177.607 245.541Z" fill="#F29111"/>
<path d="M177.607 249.957C178.425 249.957 179.088 249.166 179.088 248.191C179.088 247.215 178.425 246.424 177.607 246.424C176.788 246.424 176.125 247.215 176.125 248.191C176.125 249.166 176.788 249.957 177.607 249.957Z" fill="#F29111"/>
<path d="M170.2 245.541C171.019 245.541 171.682 244.75 171.682 243.774C171.682 242.799 171.019 242.008 170.2 242.008C169.382 242.008 168.719 242.799 168.719 243.774C168.719 244.75 169.382 245.541 170.2 245.541Z" fill="#F29111"/>
<path d="M170.2 249.957C171.019 249.957 171.682 249.166 171.682 248.191C171.682 247.215 171.019 246.424 170.2 246.424C169.382 246.424 168.719 247.215 168.719 248.191C168.719 249.166 169.382 249.957 170.2 249.957Z" fill="#F29111"/>
<path d="M181.341 245.541C182.159 245.541 182.823 244.75 182.823 243.774C182.823 242.799 182.159 242.008 181.341 242.008C180.523 242.008 179.859 242.799 179.859 243.774C179.859 244.75 180.523 245.541 181.341 245.541Z" fill="#F29111"/>
<path d="M181.341 249.957C182.159 249.957 182.823 249.166 182.823 248.191C182.823 247.215 182.159 246.424 181.341 246.424C180.523 246.424 179.859 247.215 179.859 248.191C179.859 249.166 180.523 249.957 181.341 249.957Z" fill="#F29111"/>
<path d="M162.794 245.541C163.613 245.541 164.276 244.75 164.276 243.774C164.276 242.799 163.613 242.008 162.794 242.008C161.976 242.008 161.312 242.799 161.312 243.774C161.312 244.75 161.976 245.541 162.794 245.541Z" fill="#F29111"/>
<path d="M162.794 249.957C163.613 249.957 164.276 249.166 164.276 248.191C164.276 247.215 163.613 246.424 162.794 246.424C161.976 246.424 161.312 247.215 161.312 248.191C161.312 249.166 161.976 249.957 162.794 249.957Z" fill="#F29111"/>
<path d="M173.904 245.541C174.722 245.541 175.385 244.75 175.385 243.774C175.385 242.799 174.722 242.008 173.904 242.008C173.085 242.008 172.422 242.799 172.422 243.774C172.422 244.75 173.085 245.541 173.904 245.541Z" fill="#F29111"/>
<path d="M173.904 249.957C174.722 249.957 175.385 249.166 175.385 248.191C175.385 247.215 174.722 246.424 173.904 246.424C173.085 246.424 172.422 247.215 172.422 248.191C172.422 249.166 173.085 249.957 173.904 249.957Z" fill="#F29111"/>
<path d="M185.044 245.541C185.863 245.541 186.526 244.75 186.526 243.774C186.526 242.799 185.863 242.008 185.044 242.008C184.226 242.008 183.562 242.799 183.562 243.774C183.562 244.75 184.226 245.541 185.044 245.541Z" fill="#F29111"/>
<path d="M185.044 249.957C185.863 249.957 186.526 249.166 186.526 248.191C186.526 247.215 185.863 246.424 185.044 246.424C184.226 246.424 183.562 247.215 183.562 248.191C183.562 249.166 184.226 249.957 185.044 249.957Z" fill="#F29111"/>
</g>
<mask id="mask1_2015_1581" style="mask-type:luminance" maskUnits="userSpaceOnUse" x="200" y="222" width="37" height="27">
<path d="M236.677 248.02C236.677 248.02 228.556 238.759 218.526 238.759C208.496 238.759 200.375 249.758 200.375 248.02C200.375 234 208.496 222.631 218.526 222.631C228.556 222.631 236.677 234 236.677 248.02Z" fill="white"/>
</mask>
<g mask="url(#mask1_2015_1581)">
<path d="M203.708 223.315C204.527 223.315 205.19 222.524 205.19 221.548C205.19 220.572 204.527 219.781 203.708 219.781C202.89 219.781 202.227 220.572 202.227 221.548C202.227 222.524 202.89 223.315 203.708 223.315Z" fill="#F29111"/>
<path d="M203.708 227.76C204.527 227.76 205.19 226.969 205.19 225.993C205.19 225.018 204.527 224.227 203.708 224.227C202.89 224.227 202.227 225.018 202.227 225.993C202.227 226.969 202.89 227.76 203.708 227.76Z" fill="#F29111"/>
<path d="M203.708 232.205C204.527 232.205 205.19 231.414 205.19 230.439C205.19 229.463 204.527 228.672 203.708 228.672C202.89 228.672 202.227 229.463 202.227 230.439C202.227 231.414 202.89 232.205 203.708 232.205Z" fill="#F29111"/>
<path d="M203.708 236.651C204.527 236.651 205.19 235.86 205.19 234.884C205.19 233.908 204.527 233.117 203.708 233.117C202.89 233.117 202.227 233.908 202.227 234.884C202.227 235.86 202.89 236.651 203.708 236.651Z" fill="#F29111"/>
<path d="M203.708 241.096C204.527 241.096 205.19 240.305 205.19 239.329C205.19 238.353 204.527 237.562 203.708 237.562C202.89 237.562 202.227 238.353 202.227 239.329C202.227 240.305 202.89 241.096 203.708 241.096Z" fill="#F29111"/>
<path d="M207.411 223.315C208.23 223.315 208.893 222.524 208.893 221.548C208.893 220.572 208.23 219.781 207.411 219.781C206.593 219.781 205.93 220.572 205.93 221.548C205.93 222.524 206.593 223.315 207.411 223.315Z" fill="#F29111"/>
<path d="M207.411 227.76C208.23 227.76 208.893 226.969 208.893 225.993C208.893 225.018 208.23 224.227 207.411 224.227C206.593 224.227 205.93 225.018 205.93 225.993C205.93 226.969 206.593 227.76 207.411 227.76Z" fill="#F29111"/>
<path d="M207.411 232.205C208.23 232.205 208.893 231.414 208.893 230.439C208.893 229.463 208.23 228.672 207.411 228.672C206.593 228.672 205.93 229.463 205.93 230.439C205.93 231.414 206.593 232.205 207.411 232.205Z" fill="#F29111"/>
<path d="M207.411 236.651C208.23 236.651 208.893 235.86 208.893 234.884C208.893 233.908 208.23 233.117 207.411 233.117C206.593 233.117 205.93 233.908 205.93 234.884C205.93 235.86 206.593 236.651 207.411 236.651Z" fill="#F29111"/>
<path d="M207.411 241.096C208.23 241.096 208.893 240.305 208.893 239.329C208.893 238.353 208.23 237.562 207.411 237.562C206.593 237.562 205.93 238.353 205.93 239.329C205.93 240.305 206.593 241.096 207.411 241.096Z" fill="#F29111"/>
<path d="M200.005 223.315C200.824 223.315 201.487 222.524 201.487 221.548C201.487 220.572 200.824 219.781 200.005 219.781C199.187 219.781 198.523 220.572 198.523 221.548C198.523 222.524 199.187 223.315 200.005 223.315Z" fill="#F29111"/>
<path d="M200.005 227.76C200.824 227.76 201.487 226.969 201.487 225.993C201.487 225.018 200.824 224.227 200.005 224.227C199.187 224.227 198.523 225.018 198.523 225.993C198.523 226.969 199.187 227.76 200.005 227.76Z" fill="#F29111"/>
<path d="M200.005 232.205C200.824 232.205 201.487 231.414 201.487 230.439C201.487 229.463 200.824 228.672 200.005 228.672C199.187 228.672 198.523 229.463 198.523 230.439C198.523 231.414 199.187 232.205 200.005 232.205Z" fill="#F29111"/>
<path d="M200.005 236.651C200.824 236.651 201.487 235.86 201.487 234.884C201.487 233.908 200.824 233.117 200.005 233.117C199.187 233.117 198.523 233.908 198.523 234.884C198.523 235.86 199.187 236.651 200.005 236.651Z" fill="#F29111"/>
<path d="M200.005 241.096C200.824 241.096 201.487 240.305 201.487 239.329C201.487 238.353 200.824 237.562 200.005 237.562C199.187 237.562 198.523 238.353 198.523 239.329C198.523 240.305 199.187 241.096 200.005 241.096Z" fill="#F29111"/>
<path d="M211.115 223.315C211.933 223.315 212.596 222.524 212.596 221.548C212.596 220.572 211.933 219.781 211.115 219.781C210.296 219.781 209.633 220.572 209.633 221.548C209.633 222.524 210.296 223.315 211.115 223.315Z" fill="#F29111"/>
<path d="M211.115 227.76C211.933 227.76 212.596 226.969 212.596 225.993C212.596 225.018 211.933 224.227 211.115 224.227C210.296 224.227 209.633 225.018 209.633 225.993C209.633 226.969 210.296 227.76 211.115 227.76Z" fill="#F29111"/>
<path d="M211.115 232.205C211.933 232.205 212.596 231.414 212.596 230.439C212.596 229.463 211.933 228.672 211.115 228.672C210.296 228.672 209.633 229.463 209.633 230.439C209.633 231.414 210.296 232.205 211.115 232.205Z" fill="#F29111"/>
<path d="M211.115 236.651C211.933 236.651 212.596 235.86 212.596 234.884C212.596 233.908 211.933 233.117 211.115 233.117C210.296 233.117 209.633 233.908 209.633 234.884C209.633 235.86 210.296 236.651 211.115 236.651Z" fill="#F29111"/>
<path d="M211.115 241.096C211.933 241.096 212.596 240.305 212.596 239.329C212.596 238.353 211.933 237.562 211.115 237.562C210.296 237.562 209.633 238.353 209.633 239.329C209.633 240.305 210.296 241.096 211.115 241.096Z" fill="#F29111"/>
<path d="M218.529 223.315C219.347 223.315 220.01 222.524 220.01 221.548C220.01 220.572 219.347 219.781 218.529 219.781C217.71 219.781 217.047 220.572 217.047 221.548C217.047 222.524 217.71 223.315 218.529 223.315Z" fill="#F29111"/>
<path d="M218.529 227.76C219.347 227.76 220.01 226.969 220.01 225.993C220.01 225.018 219.347 224.227 218.529 224.227C217.71 224.227 217.047 225.018 217.047 225.993C217.047 226.969 217.71 227.76 218.529 227.76Z" fill="#F29111"/>
<path d="M218.529 232.205C219.347 232.205 220.01 231.414 220.01 230.439C220.01 229.463 219.347 228.672 218.529 228.672C217.71 228.672 217.047 229.463 217.047 230.439C217.047 231.414 217.71 232.205 218.529 232.205Z" fill="#F29111"/>
<path d="M218.529 236.651C219.347 236.651 220.01 235.86 220.01 234.884C220.01 233.908 219.347 233.117 218.529 233.117C217.71 233.117 217.047 233.908 217.047 234.884C217.047 235.86 217.71 236.651 218.529 236.651Z" fill="#F29111"/>
<path d="M218.529 241.096C219.347 241.096 220.01 240.305 220.01 239.329C220.01 238.353 219.347 237.562 218.529 237.562C217.71 237.562 217.047 238.353 217.047 239.329C217.047 240.305 217.71 241.096 218.529 241.096Z" fill="#F29111"/>
<path d="M229.638 223.315C230.456 223.315 231.12 222.524 231.12 221.548C231.12 220.572 230.456 219.781 229.638 219.781C228.82 219.781 228.156 220.572 228.156 221.548C228.156 222.524 228.82 223.315 229.638 223.315Z" fill="#F29111"/>
<path d="M229.638 227.76C230.456 227.76 231.12 226.969 231.12 225.993C231.12 225.018 230.456 224.227 229.638 224.227C228.82 224.227 228.156 225.018 228.156 225.993C228.156 226.969 228.82 227.76 229.638 227.76Z" fill="#F29111"/>
<path d="M229.638 232.205C230.456 232.205 231.12 231.414 231.12 230.439C231.12 229.463 230.456 228.672 229.638 228.672C228.82 228.672 228.156 229.463 228.156 230.439C228.156 231.414 228.82 232.205 229.638 232.205Z" fill="#F29111"/>
<path d="M229.638 236.651C230.456 236.651 231.12 235.86 231.12 234.884C231.12 233.908 230.456 233.117 229.638 233.117C228.82 233.117 228.156 233.908 228.156 234.884C228.156 235.86 228.82 236.651 229.638 236.651Z" fill="#F29111"/>
<path d="M229.638 241.096C230.456 241.096 231.12 240.305 231.12 239.329C231.12 238.353 230.456 237.562 229.638 237.562C228.82 237.562 228.156 238.353 228.156 239.329C228.156 240.305 228.82 241.096 229.638 241.096Z" fill="#F29111"/>
<path d="M222.232 223.315C223.05 223.315 223.713 222.524 223.713 221.548C223.713 220.572 223.05 219.781 222.232 219.781C221.413 219.781 220.75 220.572 220.75 221.548C220.75 222.524 221.413 223.315 222.232 223.315Z" fill="#F29111"/>
<path d="M222.232 227.76C223.05 227.76 223.713 226.969 223.713 225.993C223.713 225.018 223.05 224.227 222.232 224.227C221.413 224.227 220.75 225.018 220.75 225.993C220.75 226.969 221.413 227.76 222.232 227.76Z" fill="#F29111"/>
<path d="M222.232 232.205C223.05 232.205 223.713 231.414 223.713 230.439C223.713 229.463 223.05 228.672 222.232 228.672C221.413 228.672 220.75 229.463 220.75 230.439C220.75 231.414 221.413 232.205 222.232 232.205Z" fill="#F29111"/>
<path d="M222.232 236.651C223.05 236.651 223.713 235.86 223.713 234.884C223.713 233.908 223.05 233.117 222.232 233.117C221.413 233.117 220.75 233.908 220.75 234.884C220.75 235.86 221.413 236.651 222.232 236.651Z" fill="#F29111"/>
<path d="M222.232 241.096C223.05 241.096 223.713 240.305 223.713 239.329C223.713 238.353 223.05 237.562 222.232 237.562C221.413 237.562 220.75 238.353 220.75 239.329C220.75 240.305 221.413 241.096 222.232 241.096Z" fill="#F29111"/>
<path d="M233.341 223.315C234.159 223.315 234.823 222.524 234.823 221.548C234.823 220.572 234.159 219.781 233.341 219.781C232.523 219.781 231.859 220.572 231.859 221.548C231.859 222.524 232.523 223.315 233.341 223.315Z" fill="#F29111"/>
<path d="M233.341 227.76C234.159 227.76 234.823 226.969 234.823 225.993C234.823 225.018 234.159 224.227 233.341 224.227C232.523 224.227 231.859 225.018 231.859 225.993C231.859 226.969 232.523 227.76 233.341 227.76Z" fill="#F29111"/>
<path d="M233.341 232.205C234.159 232.205 234.823 231.414 234.823 230.439C234.823 229.463 234.159 228.672 233.341 228.672C232.523 228.672 231.859 229.463 231.859 230.439C231.859 231.414 232.523 232.205 233.341 232.205Z" fill="#F29111"/>
<path d="M233.341 236.651C234.159 236.651 234.823 235.86 234.823 234.884C234.823 233.908 234.159 233.117 233.341 233.117C232.523 233.117 231.859 233.908 231.859 234.884C231.859 235.86 232.523 236.651 233.341 236.651Z" fill="#F29111"/>
<path d="M233.341 241.096C234.159 241.096 234.823 240.305 234.823 239.329C234.823 238.353 234.159 237.562 233.341 237.562C232.523 237.562 231.859 238.353 231.859 239.329C231.859 240.305 232.523 241.096 233.341 241.096Z" fill="#F29111"/>
<path d="M214.825 223.315C215.644 223.315 216.307 222.524 216.307 221.548C216.307 220.572 215.644 219.781 214.825 219.781C214.007 219.781 213.344 220.572 213.344 221.548C213.344 222.524 214.007 223.315 214.825 223.315Z" fill="#F29111"/>
<path d="M214.825 227.76C215.644 227.76 216.307 226.969 216.307 225.993C216.307 225.018 215.644 224.227 214.825 224.227C214.007 224.227 213.344 225.018 213.344 225.993C213.344 226.969 214.007 227.76 214.825 227.76Z" fill="#F29111"/>
<path d="M214.825 232.205C215.644 232.205 216.307 231.414 216.307 230.439C216.307 229.463 215.644 228.672 214.825 228.672C214.007 228.672 213.344 229.463 213.344 230.439C213.344 231.414 214.007 232.205 214.825 232.205Z" fill="#F29111"/>
<path d="M214.825 236.651C215.644 236.651 216.307 235.86 216.307 234.884C216.307 233.908 215.644 233.117 214.825 233.117C214.007 233.117 213.344 233.908 213.344 234.884C213.344 235.86 214.007 236.651 214.825 236.651Z" fill="#F29111"/>
<path d="M214.825 241.096C215.644 241.096 216.307 240.305 216.307 239.329C216.307 238.353 215.644 237.562 214.825 237.562C214.007 237.562 213.344 238.353 213.344 239.329C213.344 240.305 214.007 241.096 214.825 241.096Z" fill="#F29111"/>
<path d="M225.935 223.315C226.753 223.315 227.417 222.524 227.417 221.548C227.417 220.572 226.753 219.781 225.935 219.781C225.117 219.781 224.453 220.572 224.453 221.548C224.453 222.524 225.117 223.315 225.935 223.315Z" fill="#F29111"/>
<path d="M225.935 227.76C226.753 227.76 227.417 226.969 227.417 225.993C227.417 225.018 226.753 224.227 225.935 224.227C225.117 224.227 224.453 225.018 224.453 225.993C224.453 226.969 225.117 227.76 225.935 227.76Z" fill="#F29111"/>
<path d="M225.935 232.205C226.753 232.205 227.417 231.414 227.417 230.439C227.417 229.463 226.753 228.672 225.935 228.672C225.117 228.672 224.453 229.463 224.453 230.439C224.453 231.414 225.117 232.205 225.935 232.205Z" fill="#F29111"/>
<path d="M225.935 236.651C226.753 236.651 227.417 235.86 227.417 234.884C227.417 233.908 226.753 233.117 225.935 233.117C225.117 233.117 224.453 233.908 224.453 234.884C224.453 235.86 225.117 236.651 225.935 236.651Z" fill="#F29111"/>
<path d="M225.935 241.096C226.753 241.096 227.417 240.305 227.417 239.329C227.417 238.353 226.753 237.562 225.935 237.562C225.117 237.562 224.453 238.353 224.453 239.329C224.453 240.305 225.117 241.096 225.935 241.096Z" fill="#F29111"/>
<path d="M237.052 223.315C237.87 223.315 238.534 222.524 238.534 221.548C238.534 220.572 237.87 219.781 237.052 219.781C236.234 219.781 235.57 220.572 235.57 221.548C235.57 222.524 236.234 223.315 237.052 223.315Z" fill="#F29111"/>
<path d="M237.052 227.76C237.87 227.76 238.534 226.969 238.534 225.993C238.534 225.018 237.87 224.227 237.052 224.227C236.234 224.227 235.57 225.018 235.57 225.993C235.57 226.969 236.234 227.76 237.052 227.76Z" fill="#F29111"/>
<path d="M237.052 232.205C237.87 232.205 238.534 231.414 238.534 230.439C238.534 229.463 237.87 228.672 237.052 228.672C236.234 228.672 235.57 229.463 235.57 230.439C235.57 231.414 236.234 232.205 237.052 232.205Z" fill="#F29111"/>
<path d="M237.052 236.651C237.87 236.651 238.534 235.86 238.534 234.884C238.534 233.908 237.87 233.117 237.052 233.117C236.234 233.117 235.57 233.908 235.57 234.884C235.57 235.86 236.234 236.651 237.052 236.651Z" fill="#F29111"/>
<path d="M237.052 241.096C237.87 241.096 238.534 240.305 238.534 239.329C238.534 238.353 237.87 237.562 237.052 237.562C236.234 237.562 235.57 238.353 235.57 239.329C235.57 240.305 236.234 241.096 237.052 241.096Z" fill="#F29111"/>
<path d="M203.708 245.541C204.527 245.541 205.19 244.75 205.19 243.774C205.19 242.799 204.527 242.008 203.708 242.008C202.89 242.008 202.227 242.799 202.227 243.774C202.227 244.75 202.89 245.541 203.708 245.541Z" fill="#F29111"/>
<path d="M203.708 249.957C204.527 249.957 205.19 249.166 205.19 248.191C205.19 247.215 204.527 246.424 203.708 246.424C202.89 246.424 202.227 247.215 202.227 248.191C202.227 249.166 202.89 249.957 203.708 249.957Z" fill="#F29111"/>
<path d="M207.411 245.541C208.23 245.541 208.893 244.75 208.893 243.774C208.893 242.799 208.23 242.008 207.411 242.008C206.593 242.008 205.93 242.799 205.93 243.774C205.93 244.75 206.593 245.541 207.411 245.541Z" fill="#F29111"/>
<path d="M207.411 249.957C208.23 249.957 208.893 249.166 208.893 248.191C208.893 247.215 208.23 246.424 207.411 246.424C206.593 246.424 205.93 247.215 205.93 248.191C205.93 249.166 206.593 249.957 207.411 249.957Z" fill="#F29111"/>
<path d="M200.005 245.541C200.824 245.541 201.487 244.75 201.487 243.774C201.487 242.799 200.824 242.008 200.005 242.008C199.187 242.008 198.523 242.799 198.523 243.774C198.523 244.75 199.187 245.541 200.005 245.541Z" fill="#F29111"/>
<path d="M200.005 249.957C200.824 249.957 201.487 249.166 201.487 248.191C201.487 247.215 200.824 246.424 200.005 246.424C199.187 246.424 198.523 247.215 198.523 248.191C198.523 249.166 199.187 249.957 200.005 249.957Z" fill="#F29111"/>
<path d="M211.115 245.541C211.933 245.541 212.596 244.75 212.596 243.774C212.596 242.799 211.933 242.008 211.115 242.008C210.296 242.008 209.633 242.799 209.633 243.774C209.633 244.75 210.296 245.541 211.115 245.541Z" fill="#F29111"/>
<path d="M211.115 249.957C211.933 249.957 212.596 249.166 212.596 248.191C212.596 247.215 211.933 246.424 211.115 246.424C210.296 246.424 209.633 247.215 209.633 248.191C209.633 249.166 210.296 249.957 211.115 249.957Z" fill="#F29111"/>
<path d="M218.529 245.541C219.347 245.541 220.01 244.75 220.01 243.774C220.01 242.799 219.347 242.008 218.529 242.008C217.71 242.008 217.047 242.799 217.047 243.774C217.047 244.75 217.71 245.541 218.529 245.541Z" fill="#F29111"/>
<path d="M218.529 249.957C219.347 249.957 220.01 249.166 220.01 248.191C220.01 247.215 219.347 246.424 218.529 246.424C217.71 246.424 217.047 247.215 217.047 248.191C217.047 249.166 217.71 249.957 218.529 249.957Z" fill="#F29111"/>
<path d="M229.638 245.541C230.456 245.541 231.12 244.75 231.12 243.774C231.12 242.799 230.456 242.008 229.638 242.008C228.82 242.008 228.156 242.799 228.156 243.774C228.156 244.75 228.82 245.541 229.638 245.541Z" fill="#F29111"/>
<path d="M229.638 249.957C230.456 249.957 231.12 249.166 231.12 248.191C231.12 247.215 230.456 246.424 229.638 246.424C228.82 246.424 228.156 247.215 228.156 248.191C228.156 249.166 228.82 249.957 229.638 249.957Z" fill="#F29111"/>
<path d="M222.232 245.541C223.05 245.541 223.713 244.75 223.713 243.774C223.713 242.799 223.05 242.008 222.232 242.008C221.413 242.008 220.75 242.799 220.75 243.774C220.75 244.75 221.413 245.541 222.232 245.541Z" fill="#F29111"/>
<path d="M222.232 249.957C223.05 249.957 223.713 249.166 223.713 248.191C223.713 247.215 223.05 246.424 222.232 246.424C221.413 246.424 220.75 247.215 220.75 248.191C220.75 249.166 221.413 249.957 222.232 249.957Z" fill="#F29111"/>
<path d="M233.341 245.541C234.159 245.541 234.823 244.75 234.823 243.774C234.823 242.799 234.159 242.008 233.341 242.008C232.523 242.008 231.859 242.799 231.859 243.774C231.859 244.75 232.523 245.541 233.341 245.541Z" fill="#F29111"/>
<path d="M233.341 249.957C234.159 249.957 234.823 249.166 234.823 248.191C234.823 247.215 234.159 246.424 233.341 246.424C232.523 246.424 231.859 247.215 231.859 248.191C231.859 249.166 232.523 249.957 233.341 249.957Z" fill="#F29111"/>
<path d="M214.825 245.541C215.644 245.541 216.307 244.75 216.307 243.774C216.307 242.799 215.644 242.008 214.825 242.008C214.007 242.008 213.344 242.799 213.344 243.774C213.344 244.75 214.007 245.541 214.825 245.541Z" fill="#F29111"/>
<path d="M214.825 249.957C215.644 249.957 216.307 249.166 216.307 248.191C216.307 247.215 215.644 246.424 214.825 246.424C214.007 246.424 213.344 247.215 213.344 248.191C213.344 249.166 214.007 249.957 214.825 249.957Z" fill="#F29111"/>
<path d="M225.935 245.541C226.753 245.541 227.417 244.75 227.417 243.774C227.417 242.799 226.753 242.008 225.935 242.008C225.117 242.008 224.453 242.799 224.453 243.774C224.453 244.75 225.117 245.541 225.935 245.541Z" fill="#F29111"/>
<path d="M225.935 249.957C226.753 249.957 227.417 249.166 227.417 248.191C227.417 247.215 226.753 246.424 225.935 246.424C225.117 246.424 224.453 247.215 224.453 248.191C224.453 249.166 225.117 249.957 225.935 249.957Z" fill="#F29111"/>
<path d="M237.052 245.541C237.87 245.541 238.534 244.75 238.534 243.774C238.534 242.799 237.87 242.008 237.052 242.008C236.234 242.008 235.57 242.799 235.57 243.774C235.57 244.75 236.234 245.541 237.052 245.541Z" fill="#F29111"/>
<path d="M237.052 249.957C237.87 249.957 238.534 249.166 238.534 248.191C238.534 247.215 237.87 246.424 237.052 246.424C236.234 246.424 235.57 247.215 235.57 248.191C235.57 249.166 236.234 249.957 237.052 249.957Z" fill="#F29111"/>
</g>
</g>
<defs>
<linearGradient id="paint0_linear_2015_1581" x1="167.691" y1="103.566" x2="167.691" y2="186.914" gradientUnits="userSpaceOnUse">
<stop stop-color="white"/>
<stop offset="1" stop-color="#F4F4F4"/>
</linearGradient>
<clipPath id="clip0_2015_1581">
<rect width="500" height="500" fill="white"/>
</clipPath>
</defs>
</svg>
