<svg width="500" height="500" viewBox="0 0 500 500" fill="none" xmlns="http://www.w3.org/2000/svg">
<path d="M234.5 451C306.573 451 365 440.031 365 426.5C365 412.969 306.573 402 234.5 402C162.427 402 104 412.969 104 426.5C104 440.031 162.427 451 234.5 451Z" fill="#A4AFBF" fill-opacity="0.7"/>
<g filter="url(#filter0_d_2831_9340)">
<path d="M145.814 107.262C141.485 131.081 142.184 168.129 143.25 185.668L183.973 156.871C181.542 125.268 172.419 103.554 166.059 93.1309C164.294 90.2245 160.531 89.6566 157.701 91.5274L156.103 92.5964C150.875 96.0039 146.913 101.115 145.814 107.262Z" fill="white"/>
</g>
<path d="M177.482 120.456C159.002 100.813 146.881 119.019 143.219 130.311C145.05 107.795 143.618 102.75 154.407 93.7303C163.83 85.8463 166.727 93.8973 167.859 95.7681C168.924 97.4719 174.951 110.901 177.482 120.456Z" fill="#FF9100"/>
<g filter="url(#filter1_d_2831_9340)">
<g filter="url(#filter2_d_2831_9340)">
<path fill-rule="evenodd" clip-rule="evenodd" d="M331.406 193.148C359.742 167.024 403.262 118.952 414.55 90.9571C415.582 88.3513 414.616 85.4783 412.385 83.808L411.753 83.3069C405.493 78.5631 397.002 77.9284 390.143 81.7702C362.706 97.0705 325.512 119.319 286.488 155.733C271.204 148.65 253.856 144.541 235.443 144.274C172.644 143.339 121.1 187.469 120.267 242.824C119.468 298.179 169.714 343.779 232.513 344.715C295.312 345.65 346.856 301.52 347.688 246.165C347.922 226.789 341.961 208.616 331.406 193.148Z" fill="white"/>
</g>
</g>
<path d="M414.415 90.5997C408.835 102.359 398.476 121.515 376.791 146C376.791 146 385.111 115.785 377.994 109.522C370.877 103.259 339 112.786 339 112.786C351.697 104.491 375.187 87.5682 392.428 80.3725C398.242 77.9406 404.725 78.94 410.372 81.805L411.541 82.4046C414.548 83.937 415.851 87.5682 414.415 90.5997Z" fill="#FF9100"/>
<path d="M414.92 90.2379C403.48 119.995 359.291 168.766 331.393 193L324 183.192L413.348 89.3341C414.117 88.5642 415.322 89.2337 414.92 90.2379Z" fill="#E9E6E6"/>
<path d="M278.994 250.779C278.46 286.486 248.423 321.659 203.783 320.991C159.144 320.323 123.472 284.181 124.006 248.508C124.539 212.801 157.81 184.376 202.45 185.01C247.089 185.678 279.527 215.106 278.994 250.779Z" fill="#35373A"/>
<mask id="mask0_2831_9340" style="mask-type:luminance" maskUnits="userSpaceOnUse" x="144" y="222" width="33" height="48">
<path d="M176.309 246.229C176.502 233.131 169.592 222.409 160.876 222.281C152.16 222.153 144.939 232.668 144.746 245.766C144.554 258.864 151.464 269.586 160.18 269.714C168.896 269.842 176.117 259.327 176.309 246.229Z" fill="white"/>
</mask>
<g mask="url(#mask0_2831_9340)">
<path d="M147.305 228.667C147.321 227.579 146.753 226.688 146.036 226.677C145.319 226.667 144.724 227.54 144.709 228.629C144.693 229.717 145.261 230.608 145.978 230.619C146.695 230.629 147.29 229.755 147.305 228.667Z" fill="#F29111"/>
<path d="M147.235 233.605C147.251 232.516 146.683 231.625 145.966 231.615C145.248 231.604 144.654 232.478 144.638 233.566C144.622 234.655 145.191 235.546 145.908 235.556C146.625 235.567 147.219 234.693 147.235 233.605Z" fill="#F29111"/>
<path d="M147.165 238.536C147.181 237.448 146.612 236.557 145.895 236.546C145.178 236.536 144.584 237.409 144.568 238.498C144.552 239.586 145.12 240.477 145.838 240.488C146.555 240.498 147.149 239.625 147.165 238.536Z" fill="#F29111"/>
<path d="M147.055 243.476C147.071 242.387 146.503 241.496 145.786 241.486C145.069 241.475 144.474 242.349 144.459 243.437C144.443 244.526 145.011 245.417 145.728 245.427C146.445 245.438 147.04 244.564 147.055 243.476Z" fill="#F29111"/>
<path d="M146.985 248.444C147.001 247.356 146.433 246.465 145.716 246.454C144.998 246.444 144.404 247.318 144.388 248.406C144.372 249.495 144.941 250.386 145.658 250.396C146.375 250.407 146.969 249.533 146.985 248.444Z" fill="#F29111"/>
<path d="M146.915 253.382C146.931 252.293 146.362 251.403 145.645 251.392C144.928 251.381 144.334 252.255 144.318 253.344C144.302 254.432 144.87 255.323 145.588 255.334C146.305 255.344 146.899 254.47 146.915 253.382Z" fill="#F29111"/>
<path d="M146.844 258.321C146.86 257.233 146.292 256.342 145.575 256.331C144.858 256.321 144.264 257.195 144.248 258.283C144.232 259.372 144.8 260.262 145.517 260.273C146.234 260.284 146.829 259.41 146.844 258.321Z" fill="#F29111"/>
<path d="M157.157 228.819C157.173 227.731 156.605 226.84 155.887 226.829C155.17 226.819 154.576 227.693 154.56 228.781C154.544 229.87 155.113 230.761 155.83 230.771C156.547 230.782 157.141 229.908 157.157 228.819Z" fill="#F29111"/>
<path d="M157.087 233.753C157.103 232.665 156.534 231.774 155.817 231.763C155.1 231.753 154.506 232.626 154.49 233.715C154.474 234.803 155.042 235.694 155.759 235.705C156.477 235.715 157.071 234.841 157.087 233.753Z" fill="#F29111"/>
<path d="M157.016 238.69C157.032 237.602 156.464 236.711 155.747 236.701C155.03 236.69 154.435 237.564 154.419 238.652C154.404 239.741 154.972 240.632 155.689 240.642C156.406 240.653 157 239.779 157.016 238.69Z" fill="#F29111"/>
<path d="M156.954 243.63C156.97 242.541 156.401 241.651 155.684 241.64C154.967 241.629 154.373 242.503 154.357 243.592C154.341 244.68 154.909 245.571 155.627 245.582C156.344 245.592 156.938 244.718 156.954 243.63Z" fill="#F29111"/>
<path d="M156.884 248.562C156.899 247.473 156.331 246.582 155.614 246.572C154.897 246.561 154.303 247.435 154.287 248.523C154.271 249.612 154.839 250.503 155.556 250.513C156.273 250.524 156.868 249.65 156.884 248.562Z" fill="#F29111"/>
<path d="M156.813 253.534C156.829 252.446 156.261 251.555 155.544 251.544C154.827 251.534 154.232 252.408 154.216 253.496C154.2 254.584 154.769 255.475 155.486 255.486C156.203 255.496 156.797 254.623 156.813 253.534Z" fill="#F29111"/>
<path d="M156.719 258.474C156.735 257.385 156.167 256.494 155.45 256.484C154.733 256.473 154.139 257.347 154.123 258.435C154.107 259.524 154.675 260.415 155.392 260.425C156.109 260.436 156.704 259.562 156.719 258.474Z" fill="#F29111"/>
<path d="M167.009 228.966C167.024 227.877 166.456 226.987 165.739 226.976C165.022 226.965 164.428 227.839 164.412 228.928C164.396 230.016 164.964 230.907 165.681 230.918C166.398 230.928 166.993 230.054 167.009 228.966Z" fill="#F29111"/>
<path d="M166.946 233.905C166.962 232.817 166.394 231.926 165.676 231.915C164.959 231.905 164.365 232.779 164.349 233.867C164.333 234.956 164.902 235.846 165.619 235.857C166.336 235.868 166.93 234.994 166.946 233.905Z" fill="#F29111"/>
<path d="M166.876 238.843C166.892 237.754 166.323 236.863 165.606 236.853C164.889 236.842 164.295 237.716 164.279 238.805C164.263 239.893 164.831 240.784 165.548 240.795C166.266 240.805 166.86 239.931 166.876 238.843Z" fill="#F29111"/>
<path d="M166.805 243.776C166.821 242.688 166.253 241.797 165.536 241.786C164.819 241.776 164.224 242.65 164.209 243.738C164.193 244.827 164.761 245.718 165.478 245.728C166.195 245.739 166.79 244.865 166.805 243.776Z" fill="#F29111"/>
<path d="M166.735 248.716C166.751 247.627 166.183 246.737 165.465 246.726C164.748 246.715 164.154 247.589 164.138 248.678C164.122 249.766 164.691 250.657 165.408 250.668C166.125 250.678 166.719 249.804 166.735 248.716Z" fill="#F29111"/>
<path d="M166.649 253.655C166.665 252.567 166.097 251.676 165.38 251.665C164.662 251.655 164.068 252.529 164.052 253.617C164.036 254.706 164.605 255.596 165.322 255.607C166.039 255.618 166.633 254.744 166.649 253.655Z" fill="#F29111"/>
<path d="M166.587 258.62C166.603 257.532 166.034 256.641 165.317 256.63C164.6 256.62 164.006 257.494 163.99 258.582C163.974 259.67 164.542 260.561 165.259 260.572C165.976 260.582 166.571 259.709 166.587 258.62Z" fill="#F29111"/>
<path d="M176.884 229.087C176.899 227.999 176.331 227.108 175.614 227.097C174.897 227.086 174.303 227.96 174.287 229.049C174.271 230.137 174.839 231.028 175.556 231.039C176.273 231.049 176.868 230.175 176.884 229.087Z" fill="#F29111"/>
<path d="M176.821 234.024C176.837 232.936 176.269 232.045 175.551 232.035C174.834 232.024 174.24 232.898 174.224 233.986C174.208 235.075 174.777 235.966 175.494 235.976C176.211 235.987 176.805 235.113 176.821 234.024Z" fill="#F29111"/>
<path d="M176.759 238.991C176.775 237.903 176.206 237.012 175.489 237.001C174.772 236.991 174.178 237.865 174.162 238.953C174.146 240.041 174.714 240.932 175.431 240.943C176.148 240.954 176.743 240.08 176.759 238.991Z" fill="#F29111"/>
<path d="M176.68 243.929C176.696 242.84 176.128 241.949 175.411 241.939C174.694 241.928 174.099 242.802 174.084 243.891C174.068 244.979 174.636 245.87 175.353 245.88C176.07 245.891 176.665 245.017 176.68 243.929Z" fill="#F29111"/>
<path d="M176.571 248.868C176.587 247.78 176.019 246.889 175.301 246.878C174.584 246.868 173.99 247.742 173.974 248.83C173.958 249.918 174.527 250.809 175.244 250.82C175.961 250.83 176.555 249.957 176.571 248.868Z" fill="#F29111"/>
<path d="M176.501 253.802C176.517 252.713 175.948 251.822 175.231 251.812C174.514 251.801 173.92 252.675 173.904 253.764C173.888 254.852 174.456 255.743 175.173 255.753C175.891 255.764 176.485 254.89 176.501 253.802Z" fill="#F29111"/>
<path d="M176.43 258.741C176.446 257.653 175.878 256.762 175.161 256.751C174.444 256.741 173.849 257.615 173.834 258.703C173.818 259.791 174.386 260.682 175.103 260.693C175.82 260.704 176.415 259.83 176.43 258.741Z" fill="#F29111"/>
<path d="M150.571 228.704C150.587 227.616 150.019 226.725 149.301 226.714C148.584 226.704 147.99 227.577 147.974 228.666C147.958 229.754 148.527 230.645 149.244 230.656C149.961 230.666 150.555 229.793 150.571 228.704Z" fill="#F29111"/>
<path d="M150.509 233.64C150.525 232.551 149.956 231.66 149.239 231.65C148.522 231.639 147.928 232.513 147.912 233.601C147.896 234.69 148.464 235.581 149.181 235.591C149.898 235.602 150.493 234.728 150.509 233.64Z" fill="#F29111"/>
<path d="M150.438 238.612C150.454 237.524 149.886 236.633 149.169 236.622C148.451 236.612 147.857 237.486 147.841 238.574C147.825 239.663 148.394 240.553 149.111 240.564C149.828 240.575 150.422 239.701 150.438 238.612Z" fill="#F29111"/>
<path d="M150.36 243.55C150.376 242.461 149.808 241.571 149.09 241.56C148.373 241.549 147.779 242.423 147.763 243.512C147.747 244.6 148.316 245.491 149.033 245.502C149.75 245.512 150.344 244.638 150.36 243.55Z" fill="#F29111"/>
<path d="M150.298 248.481C150.314 247.393 149.745 246.502 149.028 246.492C148.311 246.481 147.717 247.355 147.701 248.443C147.685 249.532 148.253 250.423 148.97 250.433C149.687 250.444 150.282 249.57 150.298 248.481Z" fill="#F29111"/>
<path d="M150.235 253.421C150.251 252.333 149.683 251.442 148.965 251.431C148.248 251.42 147.654 252.294 147.638 253.383C147.622 254.471 148.191 255.362 148.908 255.373C149.625 255.383 150.219 254.509 150.235 253.421Z" fill="#F29111"/>
<path d="M150.165 258.358C150.181 257.27 149.612 256.379 148.895 256.369C148.178 256.358 147.584 257.232 147.568 258.32C147.552 259.409 148.12 260.3 148.838 260.31C149.555 260.321 150.149 259.447 150.165 258.358Z" fill="#F29111"/>
<path d="M160.423 228.853C160.439 227.764 159.87 226.873 159.153 226.863C158.436 226.852 157.842 227.726 157.826 228.814C157.81 229.903 158.378 230.794 159.095 230.804C159.812 230.815 160.407 229.941 160.423 228.853Z" fill="#F29111"/>
<path d="M160.352 233.792C160.368 232.704 159.8 231.813 159.083 231.802C158.366 231.792 157.771 232.665 157.755 233.754C157.739 234.842 158.308 235.733 159.025 235.744C159.742 235.754 160.336 234.88 160.352 233.792Z" fill="#F29111"/>
<path d="M160.29 238.73C160.306 237.641 159.737 236.75 159.02 236.74C158.303 236.729 157.709 237.603 157.693 238.691C157.677 239.78 158.245 240.671 158.963 240.681C159.68 240.692 160.274 239.818 160.29 238.73Z" fill="#F29111"/>
<path d="M160.227 243.669C160.243 242.581 159.675 241.69 158.958 241.679C158.241 241.669 157.646 242.542 157.63 243.631C157.614 244.719 158.183 245.61 158.9 245.621C159.617 245.631 160.211 244.757 160.227 243.669Z" fill="#F29111"/>
<path d="M160.157 248.636C160.173 247.547 159.604 246.656 158.887 246.646C158.17 246.635 157.576 247.509 157.56 248.598C157.544 249.686 158.113 250.577 158.83 250.587C159.547 250.598 160.141 249.724 160.157 248.636Z" fill="#F29111"/>
<path d="M160.079 253.575C160.095 252.487 159.526 251.596 158.809 251.585C158.092 251.575 157.498 252.449 157.482 253.537C157.466 254.625 158.034 255.516 158.752 255.527C159.469 255.537 160.063 254.664 160.079 253.575Z" fill="#F29111"/>
<path d="M160.016 258.507C160.032 257.418 159.464 256.528 158.747 256.517C158.03 256.506 157.435 257.38 157.419 258.469C157.404 259.557 157.972 260.448 158.689 260.459C159.406 260.469 160 259.595 160.016 258.507Z" fill="#F29111"/>
<path d="M170.329 229.007C170.345 227.918 169.776 227.028 169.059 227.017C168.342 227.006 167.748 227.88 167.732 228.969C167.716 230.057 168.284 230.948 169.002 230.959C169.719 230.969 170.313 230.095 170.329 229.007Z" fill="#F29111"/>
<path d="M170.235 233.946C170.251 232.858 169.683 231.967 168.966 231.956C168.248 231.946 167.654 232.82 167.638 233.908C167.622 234.997 168.191 235.887 168.908 235.898C169.625 235.909 170.219 235.035 170.235 233.946Z" fill="#F29111"/>
<path d="M170.165 238.884C170.181 237.795 169.612 236.904 168.895 236.894C168.178 236.883 167.584 237.757 167.568 238.846C167.552 239.934 168.12 240.825 168.838 240.836C169.555 240.846 170.149 239.972 170.165 238.884Z" fill="#F29111"/>
<path d="M170.102 243.823C170.118 242.735 169.55 241.844 168.833 241.833C168.116 241.823 167.521 242.697 167.505 243.785C167.489 244.873 168.058 245.764 168.775 245.775C169.492 245.786 170.086 244.912 170.102 243.823Z" fill="#F29111"/>
<path d="M170.032 248.755C170.048 247.666 169.479 246.776 168.762 246.765C168.045 246.754 167.451 247.628 167.435 248.717C167.419 249.805 167.988 250.696 168.705 250.707C169.422 250.717 170.016 249.843 170.032 248.755Z" fill="#F29111"/>
<path d="M169.946 253.728C169.962 252.639 169.394 251.748 168.676 251.738C167.959 251.727 167.365 252.601 167.349 253.689C167.333 254.778 167.902 255.669 168.619 255.679C169.336 255.69 169.93 254.816 169.946 253.728Z" fill="#F29111"/>
<path d="M169.852 258.661C169.868 257.573 169.3 256.682 168.583 256.671C167.866 256.661 167.271 257.534 167.255 258.623C167.239 259.711 167.808 260.602 168.525 260.613C169.242 260.623 169.836 259.75 169.852 258.661Z" fill="#F29111"/>
<path d="M153.884 228.745C153.899 227.657 153.331 226.766 152.614 226.755C151.897 226.745 151.303 227.618 151.287 228.707C151.271 229.795 151.839 230.686 152.556 230.697C153.273 230.707 153.868 229.834 153.884 228.745Z" fill="#F29111"/>
<path d="M153.774 233.712C153.79 232.624 153.222 231.733 152.505 231.722C151.787 231.711 151.193 232.585 151.177 233.674C151.161 234.762 151.73 235.653 152.447 235.664C153.164 235.674 153.758 234.8 153.774 233.712Z" fill="#F29111"/>
<path d="M153.704 238.649C153.72 237.561 153.151 236.67 152.434 236.66C151.717 236.649 151.123 237.523 151.107 238.611C151.091 239.7 151.659 240.591 152.377 240.601C153.094 240.612 153.688 239.738 153.704 238.649Z" fill="#F29111"/>
<path d="M153.634 243.589C153.649 242.5 153.081 241.61 152.364 241.599C151.647 241.588 151.053 242.462 151.037 243.551C151.021 244.639 151.589 245.53 152.306 245.541C153.023 245.551 153.618 244.677 153.634 243.589Z" fill="#F29111"/>
<path d="M153.571 248.523C153.587 247.434 153.019 246.543 152.301 246.533C151.584 246.522 150.99 247.396 150.974 248.484C150.958 249.573 151.527 250.464 152.244 250.474C152.961 250.485 153.555 249.611 153.571 248.523Z" fill="#F29111"/>
<path d="M153.509 253.462C153.524 252.374 152.956 251.483 152.239 251.472C151.522 251.461 150.928 252.335 150.912 253.424C150.896 254.512 151.464 255.403 152.181 255.414C152.898 255.424 153.493 254.55 153.509 253.462Z" fill="#F29111"/>
<path d="M153.43 258.399C153.446 257.311 152.878 256.42 152.161 256.41C151.444 256.399 150.849 257.273 150.834 258.361C150.818 259.45 151.386 260.341 152.103 260.351C152.82 260.362 153.415 259.488 153.43 258.399Z" fill="#F29111"/>
<path d="M163.743 228.898C163.759 227.809 163.19 226.918 162.473 226.908C161.756 226.897 161.162 227.771 161.146 228.859C161.13 229.948 161.699 230.839 162.416 230.849C163.133 230.86 163.727 229.986 163.743 228.898Z" fill="#F29111"/>
<path d="M163.68 233.831C163.696 232.743 163.128 231.852 162.411 231.841C161.694 231.831 161.099 232.704 161.084 233.793C161.068 234.881 161.636 235.772 162.353 235.783C163.07 235.793 163.665 234.92 163.68 233.831Z" fill="#F29111"/>
<path d="M163.602 238.804C163.618 237.715 163.05 236.824 162.333 236.814C161.616 236.803 161.021 237.677 161.005 238.766C160.989 239.854 161.558 240.745 162.275 240.755C162.992 240.766 163.586 239.892 163.602 238.804Z" fill="#F29111"/>
<path d="M163.516 243.743C163.532 242.655 162.964 241.764 162.247 241.753C161.53 241.743 160.935 242.617 160.919 243.705C160.904 244.793 161.472 245.684 162.189 245.695C162.906 245.705 163.5 244.832 163.516 243.743Z" fill="#F29111"/>
<path d="M163.438 248.675C163.454 247.586 162.886 246.696 162.169 246.685C161.452 246.674 160.857 247.548 160.841 248.637C160.825 249.725 161.394 250.616 162.111 250.627C162.828 250.637 163.422 249.763 163.438 248.675Z" fill="#F29111"/>
<path d="M163.376 253.614C163.392 252.526 162.823 251.635 162.106 251.624C161.389 251.614 160.795 252.488 160.779 253.576C160.763 254.665 161.331 255.555 162.048 255.566C162.766 255.577 163.36 254.703 163.376 253.614Z" fill="#F29111"/>
<path d="M163.313 258.552C163.329 257.463 162.761 256.572 162.044 256.562C161.327 256.551 160.732 257.425 160.716 258.514C160.7 259.602 161.269 260.493 161.986 260.503C162.703 260.514 163.297 259.64 163.313 258.552Z" fill="#F29111"/>
<path d="M173.595 229.046C173.61 227.958 173.042 227.067 172.325 227.056C171.608 227.045 171.014 227.919 170.998 229.008C170.982 230.096 171.55 230.987 172.267 230.998C172.984 231.008 173.579 230.134 173.595 229.046Z" fill="#F29111"/>
<path d="M173.524 233.983C173.54 232.895 172.972 232.004 172.255 231.994C171.537 231.983 170.943 232.857 170.927 233.945C170.911 235.034 171.48 235.925 172.197 235.935C172.914 235.946 173.508 235.072 173.524 233.983Z" fill="#F29111"/>
<path d="M173.462 238.923C173.478 237.834 172.909 236.944 172.192 236.933C171.475 236.922 170.881 237.796 170.865 238.885C170.849 239.973 171.417 240.864 172.134 240.875C172.852 240.885 173.446 240.011 173.462 238.923Z" fill="#F29111"/>
<path d="M173.368 243.892C173.384 242.803 172.815 241.912 172.098 241.902C171.381 241.891 170.787 242.765 170.771 243.853C170.755 244.942 171.324 245.833 172.041 245.843C172.758 245.854 173.352 244.98 173.368 243.892Z" fill="#F29111"/>
<path d="M173.305 248.829C173.321 247.741 172.753 246.85 172.036 246.839C171.319 246.829 170.724 247.702 170.709 248.791C170.693 249.879 171.261 250.77 171.978 250.781C172.695 250.791 173.29 249.918 173.305 248.829Z" fill="#F29111"/>
<path d="M173.235 253.769C173.251 252.68 172.683 251.789 171.965 251.779C171.248 251.768 170.654 252.642 170.638 253.73C170.622 254.819 171.191 255.71 171.908 255.72C172.625 255.731 173.219 254.857 173.235 253.769Z" fill="#F29111"/>
<path d="M173.157 258.7C173.173 257.612 172.605 256.721 171.887 256.71C171.17 256.7 170.576 257.574 170.56 258.662C170.544 259.75 171.113 260.641 171.83 260.652C172.547 260.662 173.141 259.789 173.157 258.7Z" fill="#F29111"/>
<path d="M147.368 223.728C147.384 222.639 146.815 221.748 146.098 221.738C145.381 221.727 144.787 222.601 144.771 223.689C144.755 224.778 145.324 225.669 146.041 225.679C146.758 225.69 147.352 224.816 147.368 223.728Z" fill="#F29111"/>
<path d="M157.227 223.88C157.243 222.791 156.675 221.901 155.958 221.89C155.241 221.879 154.646 222.753 154.63 223.842C154.614 224.93 155.183 225.821 155.9 225.832C156.617 225.842 157.211 224.968 157.227 223.88Z" fill="#F29111"/>
<path d="M167.071 224.001C167.087 222.913 166.519 222.022 165.801 222.011C165.084 222.001 164.49 222.874 164.474 223.963C164.458 225.051 165.027 225.942 165.744 225.953C166.461 225.963 167.055 225.089 167.071 224.001Z" fill="#F29111"/>
<path d="M176.954 224.151C176.97 223.063 176.401 222.172 175.684 222.161C174.967 222.151 174.373 223.025 174.357 224.113C174.341 225.202 174.909 226.093 175.627 226.103C176.344 226.114 176.938 225.24 176.954 224.151Z" fill="#F29111"/>
<path d="M150.634 223.767C150.649 222.678 150.081 221.787 149.364 221.777C148.647 221.766 148.053 222.64 148.037 223.728C148.021 224.817 148.589 225.708 149.306 225.718C150.023 225.729 150.618 224.855 150.634 223.767Z" fill="#F29111"/>
<path d="M160.501 223.921C160.517 222.833 159.948 221.942 159.231 221.931C158.514 221.92 157.92 222.794 157.904 223.883C157.888 224.971 158.456 225.862 159.173 225.873C159.891 225.883 160.485 225.009 160.501 223.921Z" fill="#F29111"/>
<path d="M170.399 224.073C170.415 222.985 169.847 222.094 169.13 222.083C168.412 222.073 167.818 222.947 167.802 224.035C167.786 225.123 168.355 226.014 169.072 226.025C169.789 226.036 170.383 225.162 170.399 224.073Z" fill="#F29111"/>
<path d="M153.962 223.808C153.978 222.719 153.409 221.828 152.692 221.818C151.975 221.807 151.381 222.681 151.365 223.769C151.349 224.858 151.917 225.749 152.634 225.759C153.352 225.77 153.946 224.896 153.962 223.808Z" fill="#F29111"/>
<path d="M163.805 223.96C163.821 222.872 163.253 221.981 162.536 221.97C161.819 221.96 161.224 222.833 161.209 223.922C161.193 225.01 161.761 225.901 162.478 225.912C163.195 225.922 163.79 225.048 163.805 223.96Z" fill="#F29111"/>
<path d="M173.665 224.114C173.681 223.026 173.112 222.135 172.395 222.124C171.678 222.114 171.084 222.988 171.068 224.076C171.052 225.165 171.62 226.055 172.338 226.066C173.055 226.077 173.649 225.203 173.665 224.114Z" fill="#F29111"/>
<path d="M146.782 263.253C146.798 262.165 146.23 261.274 145.512 261.263C144.795 261.253 144.201 262.126 144.185 263.215C144.169 264.303 144.738 265.194 145.455 265.205C146.172 265.215 146.766 264.341 146.782 263.253Z" fill="#F29111"/>
<path d="M146.712 268.19C146.728 267.102 146.159 266.211 145.442 266.201C144.725 266.19 144.131 267.064 144.115 268.152C144.099 269.241 144.667 270.132 145.384 270.142C146.102 270.153 146.696 269.279 146.712 268.19Z" fill="#F29111"/>
<path d="M156.657 263.407C156.673 262.319 156.105 261.428 155.387 261.417C154.67 261.407 154.076 262.281 154.06 263.369C154.044 264.457 154.613 265.348 155.33 265.359C156.047 265.37 156.641 264.496 156.657 263.407Z" fill="#F29111"/>
<path d="M156.595 268.345C156.61 267.256 156.042 266.365 155.325 266.355C154.608 266.344 154.014 267.218 153.998 268.307C153.982 269.395 154.55 270.286 155.267 270.296C155.984 270.307 156.579 269.433 156.595 268.345Z" fill="#F29111"/>
<path d="M166.509 263.56C166.525 262.471 165.956 261.58 165.239 261.57C164.522 261.559 163.928 262.433 163.912 263.521C163.896 264.61 164.464 265.501 165.181 265.511C165.898 265.522 166.493 264.648 166.509 263.56Z" fill="#F29111"/>
<path d="M166.438 268.497C166.454 267.409 165.886 266.518 165.169 266.507C164.452 266.497 163.857 267.37 163.841 268.459C163.825 269.547 164.394 270.438 165.111 270.449C165.828 270.459 166.422 269.586 166.438 268.497Z" fill="#F29111"/>
<path d="M176.368 263.714C176.384 262.625 175.815 261.735 175.098 261.724C174.381 261.713 173.787 262.587 173.771 263.676C173.755 264.764 174.324 265.655 175.041 265.666C175.758 265.676 176.352 264.802 176.368 263.714Z" fill="#F29111"/>
<path d="M176.305 268.646C176.321 267.557 175.753 266.666 175.036 266.656C174.319 266.645 173.724 267.519 173.709 268.607C173.693 269.696 174.261 270.587 174.978 270.597C175.695 270.608 176.29 269.734 176.305 268.646Z" fill="#F29111"/>
<path d="M150.087 263.294C150.103 262.206 149.534 261.315 148.817 261.304C148.1 261.294 147.506 262.167 147.49 263.256C147.474 264.344 148.042 265.235 148.759 265.246C149.477 265.256 150.071 264.382 150.087 263.294Z" fill="#F29111"/>
<path d="M150.001 268.267C150.017 267.178 149.448 266.287 148.731 266.277C148.014 266.266 147.42 267.14 147.404 268.228C147.388 269.317 147.956 270.208 148.673 270.218C149.391 270.229 149.985 269.355 150.001 268.267Z" fill="#F29111"/>
<path d="M159.93 263.446C159.946 262.358 159.378 261.467 158.661 261.456C157.944 261.446 157.349 262.32 157.334 263.408C157.318 264.497 157.886 265.387 158.603 265.398C159.32 265.409 159.915 264.535 159.93 263.446Z" fill="#F29111"/>
<path d="M159.86 268.384C159.876 267.295 159.308 266.404 158.591 266.394C157.873 266.383 157.279 267.257 157.263 268.346C157.247 269.434 157.816 270.325 158.533 270.336C159.25 270.346 159.844 269.472 159.86 268.384Z" fill="#F29111"/>
<path d="M169.782 263.601C169.798 262.512 169.23 261.621 168.512 261.611C167.795 261.6 167.201 262.474 167.185 263.562C167.169 264.651 167.738 265.542 168.455 265.552C169.172 265.563 169.766 264.689 169.782 263.601Z" fill="#F29111"/>
<path d="M169.712 268.532C169.728 267.444 169.159 266.553 168.442 266.542C167.725 266.532 167.131 267.406 167.115 268.494C167.099 269.582 167.667 270.473 168.384 270.484C169.102 270.495 169.696 269.621 169.712 268.532Z" fill="#F29111"/>
<path d="M153.36 263.366C153.376 262.278 152.808 261.387 152.091 261.376C151.373 261.366 150.779 262.24 150.763 263.328C150.747 264.416 151.316 265.307 152.033 265.318C152.75 265.329 153.344 264.455 153.36 263.366Z" fill="#F29111"/>
<path d="M153.298 268.304C153.314 267.215 152.745 266.324 152.028 266.314C151.311 266.303 150.717 267.177 150.701 268.266C150.685 269.354 151.253 270.245 151.97 270.255C152.687 270.266 153.282 269.392 153.298 268.304Z" fill="#F29111"/>
<path d="M163.243 263.485C163.259 262.397 162.69 261.506 161.973 261.495C161.256 261.485 160.662 262.359 160.646 263.447C160.63 264.536 161.199 265.427 161.916 265.437C162.633 265.448 163.227 264.574 163.243 263.485Z" fill="#F29111"/>
<path d="M163.149 268.458C163.165 267.37 162.597 266.479 161.88 266.468C161.162 266.458 160.568 267.331 160.552 268.42C160.536 269.508 161.105 270.399 161.822 270.41C162.539 270.42 163.133 269.546 163.149 268.458Z" fill="#F29111"/>
<path d="M173.094 263.638C173.11 262.549 172.542 261.658 171.825 261.648C171.108 261.637 170.514 262.511 170.498 263.6C170.482 264.688 171.05 265.579 171.767 265.589C172.484 265.6 173.079 264.726 173.094 263.638Z" fill="#F29111"/>
<path d="M173.032 268.577C173.048 267.489 172.48 266.598 171.762 266.587C171.045 266.577 170.451 267.451 170.435 268.539C170.419 269.627 170.988 270.518 171.705 270.529C172.422 270.539 173.016 269.666 173.032 268.577Z" fill="#F29111"/>
</g>
<mask id="mask1_2831_9340" style="mask-type:luminance" maskUnits="userSpaceOnUse" x="198" y="223" width="33" height="48">
<path d="M230.348 247.022C230.541 233.924 223.631 223.202 214.915 223.074C206.199 222.946 198.978 233.461 198.786 246.559C198.593 259.657 205.503 270.379 214.219 270.507C222.935 270.635 230.156 260.12 230.348 247.022Z" fill="white"/>
</mask>
<g mask="url(#mask1_2831_9340)">
<path d="M201.313 229.46C201.329 228.372 200.761 227.481 200.044 227.47C199.327 227.46 198.732 228.333 198.716 229.422C198.7 230.51 199.269 231.401 199.986 231.412C200.703 231.422 201.297 230.548 201.313 229.46Z" fill="#F29111"/>
<path d="M201.243 234.398C201.259 233.309 200.69 232.418 199.973 232.408C199.256 232.397 198.662 233.271 198.646 234.359C198.63 235.448 199.199 236.339 199.916 236.349C200.633 236.36 201.227 235.486 201.243 234.398Z" fill="#F29111"/>
<path d="M201.173 239.329C201.189 238.241 200.62 237.35 199.903 237.339C199.186 237.329 198.592 238.202 198.576 239.291C198.56 240.379 199.128 241.27 199.845 241.281C200.562 241.291 201.157 240.418 201.173 239.329Z" fill="#F29111"/>
<path d="M201.079 244.269C201.095 243.18 200.526 242.289 199.809 242.279C199.092 242.268 198.498 243.142 198.482 244.23C198.466 245.319 199.034 246.21 199.752 246.22C200.469 246.231 201.063 245.357 201.079 244.269Z" fill="#F29111"/>
<path d="M201.016 249.237C201.032 248.149 200.464 247.258 199.747 247.247C199.03 247.237 198.435 248.111 198.419 249.199C198.404 250.288 198.972 251.178 199.689 251.189C200.406 251.2 201 250.326 201.016 249.237Z" fill="#F29111"/>
<path d="M200.954 254.175C200.97 253.086 200.401 252.195 199.684 252.185C198.967 252.174 198.373 253.048 198.357 254.137C198.341 255.225 198.909 256.116 199.627 256.127C200.344 256.137 200.938 255.263 200.954 254.175Z" fill="#F29111"/>
<path d="M200.876 259.114C200.892 258.026 200.323 257.135 199.606 257.124C198.889 257.114 198.295 257.988 198.279 259.076C198.263 260.165 198.831 261.055 199.548 261.066C200.266 261.077 200.86 260.203 200.876 259.114Z" fill="#F29111"/>
<path d="M211.188 229.612C211.204 228.524 210.636 227.633 209.919 227.622C209.202 227.612 208.607 228.486 208.591 229.574C208.575 230.663 209.144 231.553 209.861 231.564C210.578 231.575 211.172 230.701 211.188 229.612Z" fill="#F29111"/>
<path d="M211.126 234.546C211.142 233.458 210.573 232.567 209.856 232.556C209.139 232.545 208.545 233.419 208.529 234.508C208.513 235.596 209.081 236.487 209.798 236.498C210.516 236.508 211.11 235.634 211.126 234.546Z" fill="#F29111"/>
<path d="M211.048 239.483C211.064 238.395 210.495 237.504 209.778 237.494C209.061 237.483 208.467 238.357 208.451 239.445C208.435 240.534 209.003 241.425 209.72 241.435C210.437 241.446 211.032 240.572 211.048 239.483Z" fill="#F29111"/>
<path d="M210.977 244.423C210.993 243.334 210.425 242.444 209.708 242.433C208.991 242.422 208.396 243.296 208.38 244.385C208.364 245.473 208.933 246.364 209.65 246.375C210.367 246.385 210.961 245.511 210.977 244.423Z" fill="#F29111"/>
<path d="M210.915 249.355C210.931 248.266 210.362 247.375 209.645 247.365C208.928 247.354 208.334 248.228 208.318 249.316C208.302 250.405 208.87 251.296 209.588 251.306C210.305 251.317 210.899 250.443 210.915 249.355Z" fill="#F29111"/>
<path d="M210.798 254.327C210.814 253.239 210.245 252.348 209.528 252.337C208.811 252.327 208.217 253.201 208.201 254.289C208.185 255.377 208.753 256.268 209.47 256.279C210.187 256.289 210.782 255.416 210.798 254.327Z" fill="#F29111"/>
<path d="M210.735 259.267C210.751 258.178 210.183 257.287 209.466 257.277C208.748 257.266 208.154 258.14 208.138 259.228C208.122 260.317 208.691 261.208 209.408 261.218C210.125 261.229 210.719 260.355 210.735 259.267Z" fill="#F29111"/>
<path d="M221.04 229.731C221.056 228.643 220.487 227.752 219.77 227.742C219.053 227.731 218.459 228.605 218.443 229.693C218.427 230.782 218.995 231.673 219.713 231.683C220.43 231.694 221.024 230.82 221.04 229.731Z" fill="#F29111"/>
<path d="M220.97 234.698C220.985 233.61 220.417 232.719 219.7 232.708C218.983 232.698 218.389 233.572 218.373 234.66C218.357 235.748 218.925 236.639 219.642 236.65C220.359 236.661 220.954 235.787 220.97 234.698Z" fill="#F29111"/>
<path d="M220.907 239.636C220.923 238.547 220.355 237.656 219.637 237.646C218.92 237.635 218.326 238.509 218.31 239.598C218.294 240.686 218.863 241.577 219.58 241.587C220.297 241.598 220.891 240.724 220.907 239.636Z" fill="#F29111"/>
<path d="M220.845 244.575C220.86 243.487 220.292 242.596 219.575 242.585C218.858 242.575 218.263 243.449 218.248 244.537C218.232 245.625 218.8 246.516 219.517 246.527C220.234 246.537 220.829 245.664 220.845 244.575Z" fill="#F29111"/>
<path d="M220.766 249.509C220.782 248.42 220.214 247.529 219.497 247.519C218.78 247.508 218.185 248.382 218.169 249.471C218.154 250.559 218.722 251.45 219.439 251.461C220.156 251.471 220.75 250.597 220.766 249.509Z" fill="#F29111"/>
<path d="M220.68 254.448C220.696 253.36 220.128 252.469 219.411 252.458C218.694 252.448 218.099 253.322 218.084 254.41C218.068 255.498 218.636 256.389 219.353 256.4C220.07 256.411 220.665 255.537 220.68 254.448Z" fill="#F29111"/>
<path d="M220.61 259.413C220.626 258.325 220.058 257.434 219.341 257.423C218.623 257.413 218.029 258.286 218.013 259.375C217.997 260.463 218.566 261.354 219.283 261.365C220 261.375 220.594 260.502 220.61 259.413Z" fill="#F29111"/>
<path d="M230.899 229.88C230.915 228.791 230.347 227.901 229.63 227.89C228.912 227.879 228.318 228.753 228.302 229.842C228.286 230.93 228.855 231.821 229.572 231.832C230.289 231.842 230.883 230.968 230.899 229.88Z" fill="#F29111"/>
<path d="M230.837 234.817C230.853 233.729 230.284 232.838 229.567 232.828C228.85 232.817 228.256 233.691 228.24 234.779C228.224 235.868 228.792 236.759 229.509 236.769C230.227 236.78 230.821 235.906 230.837 234.817Z" fill="#F29111"/>
<path d="M230.759 239.784C230.774 238.696 230.206 237.805 229.489 237.794C228.772 237.784 228.178 238.658 228.162 239.746C228.146 240.834 228.714 241.725 229.431 241.736C230.148 241.746 230.743 240.873 230.759 239.784Z" fill="#F29111"/>
<path d="M230.673 244.722C230.689 243.633 230.12 242.742 229.403 242.732C228.686 242.721 228.092 243.595 228.076 244.683C228.06 245.772 228.628 246.663 229.345 246.673C230.062 246.684 230.657 245.81 230.673 244.722Z" fill="#F29111"/>
<path d="M230.595 249.661C230.61 248.573 230.042 247.682 229.325 247.671C228.608 247.661 228.014 248.534 227.998 249.623C227.982 250.711 228.55 251.602 229.267 251.613C229.984 251.623 230.579 250.75 230.595 249.661Z" fill="#F29111"/>
<path d="M230.532 254.595C230.548 253.506 229.979 252.615 229.262 252.605C228.545 252.594 227.951 253.468 227.935 254.557C227.919 255.645 228.488 256.536 229.205 256.546C229.922 256.557 230.516 255.683 230.532 254.595Z" fill="#F29111"/>
<path d="M230.47 259.534C230.485 258.446 229.917 257.555 229.2 257.544C228.483 257.534 227.888 258.408 227.873 259.496C227.857 260.584 228.425 261.475 229.142 261.486C229.859 261.496 230.454 260.623 230.47 259.534Z" fill="#F29111"/>
<path d="M204.602 229.497C204.618 228.409 204.05 227.518 203.333 227.507C202.616 227.497 202.021 228.37 202.005 229.459C201.989 230.547 202.558 231.438 203.275 231.449C203.992 231.459 204.586 230.586 204.602 229.497Z" fill="#F29111"/>
<path d="M204.532 234.433C204.548 233.344 203.98 232.453 203.262 232.443C202.545 232.432 201.951 233.306 201.935 234.394C201.919 235.483 202.488 236.374 203.205 236.384C203.922 236.395 204.516 235.521 204.532 234.433Z" fill="#F29111"/>
<path d="M204.47 239.405C204.485 238.317 203.917 237.426 203.2 237.415C202.483 237.405 201.889 238.279 201.873 239.367C201.857 240.456 202.425 241.346 203.142 241.357C203.859 241.368 204.454 240.494 204.47 239.405Z" fill="#F29111"/>
<path d="M204.407 244.343C204.423 243.254 203.855 242.363 203.137 242.353C202.42 242.342 201.826 243.216 201.81 244.305C201.794 245.393 202.363 246.284 203.08 246.295C203.797 246.305 204.391 245.431 204.407 244.343Z" fill="#F29111"/>
<path d="M204.329 249.274C204.345 248.186 203.776 247.295 203.059 247.285C202.342 247.274 201.748 248.148 201.732 249.236C201.716 250.325 202.284 251.216 203.002 251.226C203.719 251.237 204.313 250.363 204.329 249.274Z" fill="#F29111"/>
<path d="M204.259 254.214C204.275 253.125 203.706 252.235 202.989 252.224C202.272 252.213 201.678 253.087 201.662 254.176C201.646 255.264 202.214 256.155 202.931 256.166C203.648 256.176 204.243 255.302 204.259 254.214Z" fill="#F29111"/>
<path d="M204.196 259.151C204.212 258.063 203.644 257.172 202.926 257.162C202.209 257.151 201.615 258.025 201.599 259.113C201.583 260.202 202.152 261.093 202.869 261.103C203.586 261.114 204.18 260.24 204.196 259.151Z" fill="#F29111"/>
<path d="M214.454 229.651C214.47 228.563 213.901 227.672 213.184 227.662C212.467 227.651 211.873 228.525 211.857 229.613C211.841 230.702 212.409 231.593 213.127 231.603C213.844 231.614 214.438 230.74 214.454 229.651Z" fill="#F29111"/>
<path d="M214.391 234.585C214.407 233.497 213.839 232.606 213.122 232.595C212.405 232.585 211.81 233.458 211.794 234.547C211.779 235.635 212.347 236.526 213.064 236.537C213.781 236.547 214.375 235.673 214.391 234.585Z" fill="#F29111"/>
<path d="M214.321 239.523C214.337 238.434 213.769 237.543 213.051 237.533C212.334 237.522 211.74 238.396 211.724 239.484C211.708 240.573 212.277 241.464 212.994 241.474C213.711 241.485 214.305 240.611 214.321 239.523Z" fill="#F29111"/>
<path d="M214.251 244.462C214.267 243.374 213.698 242.483 212.981 242.472C212.264 242.461 211.67 243.335 211.654 244.424C211.638 245.512 212.206 246.403 212.923 246.414C213.641 246.424 214.235 245.55 214.251 244.462Z" fill="#F29111"/>
<path d="M214.188 249.429C214.204 248.34 213.636 247.449 212.919 247.439C212.202 247.428 211.607 248.302 211.591 249.391C211.575 250.479 212.144 251.37 212.861 251.38C213.578 251.391 214.172 250.517 214.188 249.429Z" fill="#F29111"/>
<path d="M214.118 254.368C214.134 253.28 213.565 252.389 212.848 252.378C212.131 252.368 211.537 253.242 211.521 254.33C211.505 255.418 212.074 256.309 212.791 256.32C213.508 256.33 214.102 255.457 214.118 254.368Z" fill="#F29111"/>
<path d="M214.048 259.306C214.064 258.217 213.495 257.326 212.778 257.316C212.061 257.305 211.467 258.179 211.451 259.267C211.435 260.356 212.003 261.247 212.72 261.257C213.437 261.268 214.032 260.394 214.048 259.306Z" fill="#F29111"/>
<path d="M224.36 229.8C224.376 228.711 223.808 227.821 223.091 227.81C222.373 227.799 221.779 228.673 221.763 229.762C221.747 230.85 222.316 231.741 223.033 231.752C223.75 231.762 224.344 230.888 224.36 229.8Z" fill="#F29111"/>
<path d="M224.266 234.739C224.282 233.651 223.714 232.76 222.997 232.749C222.28 232.739 221.685 233.613 221.669 234.701C221.654 235.79 222.222 236.68 222.939 236.691C223.656 236.702 224.25 235.828 224.266 234.739Z" fill="#F29111"/>
<path d="M224.173 239.677C224.189 238.588 223.62 237.697 222.903 237.687C222.186 237.676 221.592 238.55 221.576 239.639C221.56 240.727 222.128 241.618 222.845 241.628C223.562 241.639 224.157 240.765 224.173 239.677Z" fill="#F29111"/>
<path d="M224.11 244.616C224.126 243.528 223.558 242.637 222.84 242.626C222.123 242.616 221.529 243.49 221.513 244.578C221.497 245.666 222.066 246.557 222.783 246.568C223.5 246.579 224.094 245.705 224.11 244.616Z" fill="#F29111"/>
<path d="M224.04 249.548C224.056 248.459 223.487 247.569 222.77 247.558C222.053 247.547 221.459 248.421 221.443 249.51C221.427 250.598 221.995 251.489 222.713 251.5C223.43 251.51 224.024 250.636 224.04 249.548Z" fill="#F29111"/>
<path d="M223.97 254.521C223.985 253.432 223.417 252.541 222.7 252.531C221.983 252.52 221.389 253.394 221.373 254.482C221.357 255.571 221.925 256.462 222.642 256.472C223.359 256.483 223.954 255.609 223.97 254.521Z" fill="#F29111"/>
<path d="M223.876 259.454C223.892 258.366 223.323 257.475 222.606 257.464C221.889 257.454 221.295 258.327 221.279 259.416C221.263 260.504 221.831 261.395 222.548 261.406C223.266 261.416 223.86 260.543 223.876 259.454Z" fill="#F29111"/>
<path d="M207.876 229.538C207.892 228.45 207.323 227.559 206.606 227.548C205.889 227.538 205.295 228.411 205.279 229.5C205.263 230.588 205.831 231.479 206.548 231.49C207.266 231.5 207.86 230.627 207.876 229.538Z" fill="#F29111"/>
<path d="M207.798 234.505C207.814 233.417 207.245 232.526 206.528 232.515C205.811 232.504 205.217 233.378 205.201 234.467C205.185 235.555 205.753 236.446 206.47 236.457C207.187 236.467 207.782 235.593 207.798 234.505Z" fill="#F29111"/>
<path d="M207.735 239.442C207.751 238.354 207.183 237.463 206.465 237.453C205.748 237.442 205.154 238.316 205.138 239.404C205.122 240.493 205.691 241.384 206.408 241.394C207.125 241.405 207.719 240.531 207.735 239.442Z" fill="#F29111"/>
<path d="M207.673 244.382C207.689 243.293 207.12 242.403 206.403 242.392C205.686 242.381 205.092 243.255 205.076 244.344C205.06 245.432 205.628 246.323 206.345 246.334C207.062 246.344 207.657 245.47 207.673 244.382Z" fill="#F29111"/>
<path d="M207.602 249.315C207.618 248.227 207.05 247.336 206.333 247.326C205.616 247.315 205.021 248.189 205.005 249.277C204.989 250.366 205.558 251.257 206.275 251.267C206.992 251.278 207.586 250.404 207.602 249.315Z" fill="#F29111"/>
<path d="M207.524 254.255C207.54 253.167 206.972 252.276 206.255 252.265C205.537 252.254 204.943 253.128 204.927 254.217C204.911 255.305 205.48 256.196 206.197 256.207C206.914 256.217 207.508 255.343 207.524 254.255Z" fill="#F29111"/>
<path d="M207.462 259.192C207.478 258.104 206.909 257.213 206.192 257.203C205.475 257.192 204.881 258.066 204.865 259.154C204.849 260.243 205.417 261.134 206.134 261.144C206.852 261.155 207.446 260.281 207.462 259.192Z" fill="#F29111"/>
<path d="M217.774 229.69C217.79 228.602 217.222 227.711 216.505 227.701C215.787 227.69 215.193 228.564 215.177 229.652C215.161 230.741 215.73 231.632 216.447 231.642C217.164 231.653 217.758 230.779 217.774 229.69Z" fill="#F29111"/>
<path d="M217.696 234.624C217.712 233.536 217.144 232.645 216.426 232.634C215.709 232.624 215.115 233.497 215.099 234.586C215.083 235.674 215.652 236.565 216.369 236.576C217.086 236.586 217.68 235.713 217.696 234.624Z" fill="#F29111"/>
<path d="M217.634 239.597C217.649 238.508 217.081 237.617 216.364 237.607C215.647 237.596 215.053 238.47 215.037 239.558C215.021 240.647 215.589 241.538 216.306 241.548C217.023 241.559 217.618 240.685 217.634 239.597Z" fill="#F29111"/>
<path d="M217.548 244.536C217.564 243.448 216.995 242.557 216.278 242.546C215.561 242.536 214.967 243.41 214.951 244.498C214.935 245.586 215.503 246.477 216.22 246.488C216.937 246.498 217.532 245.625 217.548 244.536Z" fill="#F29111"/>
<path d="M217.454 249.468C217.47 248.379 216.901 247.488 216.184 247.478C215.467 247.467 214.873 248.341 214.857 249.43C214.841 250.518 215.409 251.409 216.127 251.42C216.844 251.43 217.438 250.556 217.454 249.468Z" fill="#F29111"/>
<path d="M217.391 254.407C217.407 253.319 216.839 252.428 216.122 252.417C215.405 252.407 214.81 253.281 214.794 254.369C214.779 255.457 215.347 256.348 216.064 256.359C216.781 256.37 217.375 255.496 217.391 254.407Z" fill="#F29111"/>
<path d="M217.321 259.345C217.337 258.256 216.769 257.365 216.051 257.355C215.334 257.344 214.74 258.218 214.724 259.307C214.708 260.395 215.277 261.286 215.994 261.296C216.711 261.307 217.305 260.433 217.321 259.345Z" fill="#F29111"/>
<path d="M227.626 229.839C227.642 228.75 227.073 227.86 226.356 227.849C225.639 227.838 225.045 228.712 225.029 229.801C225.013 230.889 225.581 231.78 226.298 231.791C227.016 231.801 227.61 230.927 227.626 229.839Z" fill="#F29111"/>
<path d="M227.563 234.776C227.579 233.688 227.011 232.797 226.294 232.786C225.577 232.776 224.982 233.65 224.966 234.738C224.95 235.827 225.519 236.718 226.236 236.728C226.953 236.739 227.547 235.865 227.563 234.776Z" fill="#F29111"/>
<path d="M227.493 239.716C227.509 238.627 226.94 237.737 226.223 237.726C225.506 237.715 224.912 238.589 224.896 239.678C224.88 240.766 225.449 241.657 226.166 241.668C226.883 241.678 227.477 240.804 227.493 239.716Z" fill="#F29111"/>
<path d="M227.399 244.685C227.415 243.596 226.847 242.705 226.13 242.695C225.412 242.684 224.818 243.558 224.802 244.646C224.786 245.735 225.355 246.626 226.072 246.636C226.789 246.647 227.383 245.773 227.399 244.685Z" fill="#F29111"/>
<path d="M227.329 249.622C227.345 248.534 226.776 247.643 226.059 247.632C225.342 247.622 224.748 248.495 224.732 249.584C224.716 250.672 225.284 251.563 226.002 251.574C226.719 251.584 227.313 250.711 227.329 249.622Z" fill="#F29111"/>
<path d="M227.266 254.562C227.282 253.473 226.714 252.582 225.997 252.572C225.28 252.561 224.685 253.435 224.669 254.523C224.654 255.612 225.222 256.503 225.939 256.513C226.656 256.524 227.25 255.65 227.266 254.562Z" fill="#F29111"/>
<path d="M227.204 259.499C227.22 258.411 226.651 257.52 225.934 257.509C225.217 257.499 224.623 258.372 224.607 259.461C224.591 260.549 225.159 261.44 225.877 261.451C226.594 261.461 227.188 260.588 227.204 259.499Z" fill="#F29111"/>
<path d="M201.376 224.521C201.392 223.432 200.823 222.541 200.106 222.531C199.389 222.52 198.795 223.394 198.779 224.482C198.763 225.571 199.331 226.462 200.048 226.472C200.766 226.483 201.36 225.609 201.376 224.521Z" fill="#F29111"/>
<path d="M211.251 224.673C211.267 223.584 210.698 222.694 209.981 222.683C209.264 222.672 208.67 223.546 208.654 224.635C208.638 225.723 209.206 226.614 209.923 226.625C210.641 226.635 211.235 225.761 211.251 224.673Z" fill="#F29111"/>
<path d="M221.118 224.794C221.134 223.706 220.565 222.815 219.848 222.804C219.131 222.794 218.537 223.667 218.521 224.756C218.505 225.844 219.074 226.735 219.791 226.746C220.508 226.756 221.102 225.882 221.118 224.794Z" fill="#F29111"/>
<path d="M230.985 224.944C231.001 223.856 230.433 222.965 229.716 222.954C228.998 222.944 228.404 223.818 228.388 224.906C228.372 225.995 228.941 226.886 229.658 226.896C230.375 226.907 230.969 226.033 230.985 224.944Z" fill="#F29111"/>
<path d="M204.673 224.56C204.689 223.471 204.12 222.58 203.403 222.57C202.686 222.559 202.092 223.433 202.076 224.521C202.06 225.61 202.628 226.501 203.345 226.511C204.062 226.522 204.657 225.648 204.673 224.56Z" fill="#F29111"/>
<path d="M214.524 224.714C214.54 223.625 213.972 222.735 213.255 222.724C212.537 222.713 211.943 223.587 211.927 224.676C211.911 225.764 212.48 226.655 213.197 226.666C213.914 226.676 214.508 225.802 214.524 224.714Z" fill="#F29111"/>
<path d="M224.423 224.866C224.439 223.778 223.87 222.887 223.153 222.876C222.436 222.866 221.842 223.74 221.826 224.828C221.81 225.916 222.378 226.807 223.095 226.818C223.812 226.829 224.407 225.955 224.423 224.866Z" fill="#F29111"/>
<path d="M207.962 224.601C207.978 223.512 207.409 222.621 206.692 222.611C205.975 222.6 205.381 223.474 205.365 224.562C205.349 225.651 205.917 226.542 206.634 226.552C207.352 226.563 207.946 225.689 207.962 224.601Z" fill="#F29111"/>
<path d="M217.845 224.753C217.86 223.665 217.292 222.774 216.575 222.763C215.858 222.753 215.264 223.626 215.248 224.715C215.232 225.803 215.8 226.694 216.517 226.705C217.234 226.715 217.829 225.841 217.845 224.753Z" fill="#F29111"/>
<path d="M227.688 224.907C227.704 223.819 227.136 222.928 226.419 222.917C225.701 222.907 225.107 223.781 225.091 224.869C225.075 225.957 225.644 226.848 226.361 226.859C227.078 226.87 227.672 225.996 227.688 224.907Z" fill="#F29111"/>
<path d="M200.805 264.052C200.821 262.963 200.253 262.072 199.536 262.062C198.819 262.051 198.224 262.925 198.209 264.014C198.193 265.102 198.761 265.993 199.478 266.003C200.195 266.014 200.79 265.14 200.805 264.052Z" fill="#F29111"/>
<path d="M200.743 268.983C200.759 267.895 200.191 267.004 199.474 266.993C198.756 266.983 198.162 267.857 198.146 268.945C198.13 270.034 198.699 270.925 199.416 270.935C200.133 270.946 200.727 270.072 200.743 268.983Z" fill="#F29111"/>
<path d="M210.673 264.2C210.689 263.112 210.12 262.221 209.403 262.21C208.686 262.2 208.092 263.074 208.076 264.162C208.06 265.25 208.628 266.141 209.345 266.152C210.062 266.162 210.657 265.289 210.673 264.2Z" fill="#F29111"/>
<path d="M210.594 269.138C210.61 268.049 210.042 267.158 209.325 267.148C208.608 267.137 208.014 268.011 207.998 269.1C207.982 270.188 208.55 271.079 209.267 271.089C209.984 271.1 210.579 270.226 210.594 269.138Z" fill="#F29111"/>
<path d="M220.54 264.353C220.556 263.264 219.987 262.373 219.27 262.363C218.553 262.352 217.959 263.226 217.943 264.314C217.927 265.403 218.495 266.294 219.213 266.304C219.93 266.315 220.524 265.441 220.54 264.353Z" fill="#F29111"/>
<path d="M220.477 269.29C220.493 268.202 219.925 267.311 219.208 267.3C218.491 267.29 217.896 268.163 217.88 269.252C217.864 270.34 218.433 271.231 219.15 271.242C219.867 271.252 220.461 270.379 220.477 269.29Z" fill="#F29111"/>
<path d="M230.399 264.507C230.415 263.418 229.847 262.528 229.13 262.517C228.412 262.506 227.818 263.38 227.802 264.469C227.786 265.557 228.355 266.448 229.072 266.459C229.789 266.469 230.383 265.595 230.399 264.507Z" fill="#F29111"/>
<path d="M230.321 269.439C230.337 268.35 229.769 267.459 229.051 267.449C228.334 267.438 227.74 268.312 227.724 269.4C227.708 270.489 228.277 271.38 228.994 271.39C229.711 271.401 230.305 270.527 230.321 269.439Z" fill="#F29111"/>
<path d="M204.134 264.087C204.149 262.999 203.581 262.108 202.864 262.097C202.147 262.086 201.553 262.96 201.537 264.049C201.521 265.137 202.089 266.028 202.806 266.039C203.523 266.049 204.118 265.175 204.134 264.087Z" fill="#F29111"/>
<path d="M204.016 269.06C204.032 267.971 203.464 267.08 202.747 267.07C202.03 267.059 201.435 267.933 201.419 269.021C201.404 270.11 201.972 271.001 202.689 271.011C203.406 271.022 204 270.148 204.016 269.06Z" fill="#F29111"/>
<path d="M213.962 264.239C213.978 263.151 213.409 262.26 212.692 262.249C211.975 262.239 211.381 263.113 211.365 264.201C211.349 265.29 211.917 266.18 212.634 266.191C213.352 266.202 213.946 265.328 213.962 264.239Z" fill="#F29111"/>
<path d="M213.884 269.177C213.9 268.088 213.331 267.197 212.614 267.187C211.897 267.176 211.303 268.05 211.287 269.139C211.271 270.227 211.839 271.118 212.556 271.128C213.273 271.139 213.868 270.265 213.884 269.177Z" fill="#F29111"/>
<path d="M223.813 264.394C223.829 263.305 223.261 262.414 222.544 262.404C221.827 262.393 221.232 263.267 221.216 264.355C221.2 265.444 221.769 266.335 222.486 266.345C223.203 266.356 223.797 265.482 223.813 264.394Z" fill="#F29111"/>
<path d="M223.751 269.331C223.767 268.243 223.198 267.352 222.481 267.341C221.764 267.331 221.17 268.204 221.154 269.293C221.138 270.381 221.706 271.272 222.423 271.283C223.141 271.293 223.735 270.42 223.751 269.331Z" fill="#F29111"/>
<path d="M207.399 264.159C207.415 263.071 206.847 262.18 206.13 262.169C205.412 262.159 204.818 263.033 204.802 264.121C204.786 265.209 205.355 266.1 206.072 266.111C206.789 266.121 207.383 265.248 207.399 264.159Z" fill="#F29111"/>
<path d="M207.329 269.097C207.345 268.008 206.776 267.117 206.059 267.107C205.342 267.096 204.748 267.97 204.732 269.059C204.716 270.147 205.284 271.038 206.002 271.048C206.719 271.059 207.313 270.185 207.329 269.097Z" fill="#F29111"/>
<path d="M217.243 264.278C217.259 263.19 216.69 262.299 215.973 262.288C215.256 262.278 214.662 263.152 214.646 264.24C214.63 265.329 215.198 266.219 215.916 266.23C216.633 266.241 217.227 265.367 217.243 264.278Z" fill="#F29111"/>
<path d="M217.18 269.251C217.196 268.163 216.628 267.272 215.911 267.261C215.194 267.251 214.599 268.124 214.584 269.213C214.568 270.301 215.136 271.192 215.853 271.203C216.57 271.213 217.165 270.339 217.18 269.251Z" fill="#F29111"/>
<path d="M227.126 264.431C227.142 263.342 226.573 262.451 225.856 262.441C225.139 262.43 224.545 263.304 224.529 264.392C224.513 265.481 225.081 266.372 225.798 266.382C226.516 266.393 227.11 265.519 227.126 264.431Z" fill="#F29111"/>
<path d="M227.055 269.37C227.071 268.282 226.503 267.391 225.786 267.38C225.069 267.37 224.474 268.243 224.459 269.332C224.443 270.42 225.011 271.311 225.728 271.322C226.445 271.332 227.04 270.459 227.055 269.37Z" fill="#F29111"/>
</g>
<path d="M229.37 285.62L232 285.419L232.533 288.025L145.56 294.673L143.962 298.582C135.937 299.918 128.745 298.314 123.118 294.773L125.948 291.934L84.9922 266.945L86.6903 265.342L89.221 266.945L127.913 291.599L125.548 294.372C130.71 297.446 135.937 298.448 142.497 297.546L144.361 292.769L229.47 285.653L229.37 285.62Z" fill="#9BBBCA"/>
<path d="M232.551 288.025L225.725 390.417L158.964 395.829L145.578 294.707L232.551 288.025Z" fill="#8EC9E6"/>
<path d="M158.976 395.827L157.644 398.734L143.992 298.614L145.59 294.705L158.976 395.827Z" fill="#4D90DB"/>
<path d="M143.985 298.611L157.637 398.698C149.912 398.43 143.519 396.426 137.625 393.319L137.259 390.413L123.141 294.803C128.768 298.344 135.96 299.981 143.985 298.611Z" fill="#8EC9E6"/>
<path d="M123.135 294.803L137.253 390.413L111.348 376.582L84.9766 266.941L125.932 291.93L123.135 294.803Z" fill="#9BBBCA"/>
<path d="M227.617 277.433L229.381 285.651L144.273 292.767L142.409 297.544C135.882 298.479 130.655 297.443 125.46 294.37L127.824 291.597L89.1328 266.943L93.9276 264.104C109.777 275.562 128.49 272.088 135.749 287.021C156.394 274.226 189.158 287.021 227.617 277.433Z" fill="#FAF5E1"/>
<g filter="url(#filter3_d_2831_9340)">
<path d="M275.373 315.719L287.56 326.743C289.025 328.079 289.857 330.017 289.757 331.988L289.091 347.288C288.958 350.361 286.761 352.934 283.797 353.535L222.43 366.23C219.067 366.931 215.737 364.927 214.705 361.653L213.906 359.047C212.607 354.805 214.272 350.194 217.968 347.756L267.248 315.117C269.779 313.414 273.109 313.681 275.373 315.719Z" fill="white"/>
<path d="M217.968 347.758L248.935 327.279L246.404 361.287L222.43 366.232C219.067 366.933 215.737 364.929 214.705 361.655L213.906 359.049C212.607 354.806 214.272 350.196 217.968 347.758Z" fill="#F29111"/>
</g>
<path d="M94.0983 331.83C93.6277 330.415 94.9051 329 96.6869 329H107.949C111.277 329 114 331.27 114 334.034V351.966C114 354.763 111.277 357 107.949 357H102.368L94.0983 331.83Z" fill="#F29111"/>
<defs>
<filter id="filter0_d_2831_9340" x="134.445" y="82.4453" width="57.5273" height="111.223" filterUnits="userSpaceOnUse" color-interpolation-filters="sRGB">
<feFlood flood-opacity="0" result="BackgroundImageFix"/>
<feColorMatrix in="SourceAlpha" type="matrix" values="0 0 0 0 0 0 0 0 0 0 0 0 0 0 0 0 0 0 127 0" result="hardAlpha"/>
<feOffset/>
<feGaussianBlur stdDeviation="4"/>
<feComposite in2="hardAlpha" operator="out"/>
<feColorMatrix type="matrix" values="0 0 0 0 0 0 0 0 0 0 0 0 0 0 0 0 0 0 0.25 0"/>
<feBlend mode="normal" in2="BackgroundImageFix" result="effect1_dropShadow_2831_9340"/>
<feBlend mode="normal" in="SourceGraphic" in2="effect1_dropShadow_2831_9340" result="shape"/>
</filter>
<filter id="filter1_d_2831_9340" x="112.258" y="71.2676" width="310.707" height="281.462" filterUnits="userSpaceOnUse" color-interpolation-filters="sRGB">
<feFlood flood-opacity="0" result="BackgroundImageFix"/>
<feColorMatrix in="SourceAlpha" type="matrix" values="0 0 0 0 0 0 0 0 0 0 0 0 0 0 0 0 0 0 127 0" result="hardAlpha"/>
<feOffset/>
<feGaussianBlur stdDeviation="4"/>
<feComposite in2="hardAlpha" operator="out"/>
<feColorMatrix type="matrix" values="0 0 0 0 0 0 0 0 0 0 0 0 0 0 0 0 0 0 0.25 0"/>
<feBlend mode="normal" in2="BackgroundImageFix" result="effect1_dropShadow_2831_9340"/>
<feBlend mode="normal" in="SourceGraphic" in2="effect1_dropShadow_2831_9340" result="shape"/>
</filter>
<filter id="filter2_d_2831_9340" x="119.258" y="77.2676" width="296.707" height="267.462" filterUnits="userSpaceOnUse" color-interpolation-filters="sRGB">
<feFlood flood-opacity="0" result="BackgroundImageFix"/>
<feColorMatrix in="SourceAlpha" type="matrix" values="0 0 0 0 0 0 0 0 0 0 0 0 0 0 0 0 0 0 127 0" result="hardAlpha"/>
<feOffset dy="-1"/>
<feGaussianBlur stdDeviation="0.5"/>
<feComposite in2="hardAlpha" operator="out"/>
<feColorMatrix type="matrix" values="0 0 0 0 0 0 0 0 0 0 0 0 0 0 0 0 0 0 0.1 0"/>
<feBlend mode="normal" in2="BackgroundImageFix" result="effect1_dropShadow_2831_9340"/>
<feBlend mode="normal" in="SourceGraphic" in2="effect1_dropShadow_2831_9340" result="shape"/>
</filter>
<filter id="filter3_d_2831_9340" x="205.469" y="305.996" width="92.2969" height="68.375" filterUnits="userSpaceOnUse" color-interpolation-filters="sRGB">
<feFlood flood-opacity="0" result="BackgroundImageFix"/>
<feColorMatrix in="SourceAlpha" type="matrix" values="0 0 0 0 0 0 0 0 0 0 0 0 0 0 0 0 0 0 127 0" result="hardAlpha"/>
<feOffset/>
<feGaussianBlur stdDeviation="4"/>
<feComposite in2="hardAlpha" operator="out"/>
<feColorMatrix type="matrix" values="0 0 0 0 0 0 0 0 0 0 0 0 0 0 0 0 0 0 0.25 0"/>
<feBlend mode="normal" in2="BackgroundImageFix" result="effect1_dropShadow_2831_9340"/>
<feBlend mode="normal" in="SourceGraphic" in2="effect1_dropShadow_2831_9340" result="shape"/>
</filter>
</defs>
</svg>
