<svg width="200" height="200" viewBox="0 0 200 200" fill="none" xmlns="http://www.w3.org/2000/svg">
<path d="M94.647 173.911C119.387 173.911 139.442 170.154 139.442 165.52C139.442 160.886 119.387 157.129 94.647 157.129C69.9072 157.129 49.8516 160.886 49.8516 165.52C49.8516 170.154 69.9072 173.911 94.647 173.911Z" fill="#A4AFBF" fill-opacity="0.7"/>
<path d="M64.1512 55.7275C62.6619 63.9229 62.9024 76.67 63.2691 82.7045L77.2805 72.7965C76.4442 61.9229 73.3051 54.4516 71.1169 50.8654C70.5097 49.8654 69.2151 49.67 68.2412 50.3137L67.6913 50.6815C65.8926 51.8539 64.5293 53.6126 64.1512 55.7275Z" fill="url(#paint0_linear_1993_1502)"/>
<path d="M75.0467 60.267C68.6883 53.5084 64.518 59.7727 63.2578 63.6578C63.8879 55.9107 63.3953 54.175 67.1072 51.0716C70.3495 48.3589 71.3462 51.1291 71.7357 51.7727C72.1023 52.3589 74.176 56.9796 75.0467 60.267Z" fill="#FF9100"/>
<path fill-rule="evenodd" clip-rule="evenodd" d="M128.009 85.2786C137.759 76.2901 152.732 59.7499 156.616 50.1177C156.971 49.2211 156.639 48.2326 155.872 47.6579L155.654 47.4855C153.5 45.8533 150.579 45.6349 148.219 46.9568C138.778 52.2211 125.981 59.8763 112.554 72.405C107.296 69.9683 101.327 68.5545 94.9911 68.4625C73.3839 68.1407 55.649 83.3246 55.3626 102.371C55.0877 121.417 72.3757 137.106 93.9829 137.428C115.59 137.75 133.325 122.566 133.611 103.52C133.692 96.8533 131.641 90.6005 128.009 85.2786Z" fill="white"/>
<path d="M156.569 50.0941C154.655 54.1516 151.104 60.7608 143.668 69.209C143.668 69.209 146.521 58.7837 144.081 56.6228C141.641 54.4619 130.711 57.7493 130.711 57.7493C135.064 54.8872 143.118 49.0481 149.03 46.5654C151.024 45.7263 153.246 46.0711 155.182 47.0596L155.583 47.2665C156.614 47.7952 157.061 49.0481 156.569 50.0941Z" fill="#FF9100"/>
<path d="M156.67 49.9798C152.752 60.1982 137.618 76.9453 128.063 85.2671L125.531 81.8993L156.132 49.6694C156.395 49.4051 156.808 49.6349 156.67 49.9798Z" fill="#E9E6E6"/>
<path d="M110.076 105.06C109.893 117.347 99.5707 129.45 84.2302 129.221C68.8898 128.991 56.6312 116.554 56.8145 104.278C56.9978 91.9906 68.4316 82.209 83.772 82.4274C99.1124 82.6573 110.26 92.7837 110.076 105.06Z" fill="#35373A"/>
<mask id="mask0_1993_1502" style="mask-type:luminance" maskUnits="userSpaceOnUse" x="63" y="95" width="12" height="17">
<path d="M74.6514 103.542C74.7176 99.0356 72.3401 95.3465 69.3413 95.3025C66.3424 95.2585 63.8578 98.8762 63.7916 103.383C63.7255 107.89 66.1029 111.579 69.1018 111.623C72.1006 111.667 74.5853 108.049 74.6514 103.542Z" fill="white"/>
</mask>
<g mask="url(#mask0_1993_1502)">
<path d="M64.6691 97.4991C64.6745 97.1246 64.479 96.8181 64.2322 96.8145C63.9855 96.8108 63.781 97.1115 63.7755 97.486C63.7701 97.8605 63.9656 98.167 64.2124 98.1706C64.4591 98.1743 64.6636 97.8736 64.6691 97.4991Z" fill="#F29111"/>
<path d="M64.6456 99.1983C64.6511 98.8238 64.4555 98.5173 64.2088 98.5137C63.9621 98.51 63.7576 98.8107 63.7521 99.1852C63.7466 99.5597 63.9422 99.8662 64.189 99.8699C64.4357 99.8735 64.6402 99.5728 64.6456 99.1983Z" fill="#F29111"/>
<path d="M64.6222 100.896C64.6277 100.521 64.4321 100.215 64.1854 100.211C63.9386 100.207 63.7341 100.508 63.7287 100.882C63.7232 101.257 63.9188 101.563 64.1655 101.567C64.4123 101.571 64.6167 101.27 64.6222 100.896Z" fill="#F29111"/>
<path d="M64.5831 102.595C64.5886 102.22 64.393 101.914 64.1463 101.91C63.8996 101.907 63.6951 102.207 63.6896 102.582C63.6841 102.956 63.8797 103.263 64.1265 103.266C64.3732 103.27 64.5777 102.969 64.5831 102.595Z" fill="#F29111"/>
<path d="M64.5597 104.304C64.5652 103.929 64.3696 103.623 64.1229 103.619C63.8761 103.616 63.6716 103.916 63.6662 104.291C63.6607 104.665 63.8563 104.972 64.103 104.975C64.3498 104.979 64.5542 104.678 64.5597 104.304Z" fill="#F29111"/>
<path d="M64.5363 106.003C64.5417 105.629 64.3462 105.322 64.0994 105.318C63.8527 105.315 63.6482 105.615 63.6427 105.99C63.6373 106.364 63.8328 106.671 64.0796 106.675C64.3263 106.678 64.5308 106.378 64.5363 106.003Z" fill="#F29111"/>
<path d="M64.5128 107.702C64.5183 107.328 64.3227 107.021 64.076 107.018C63.8292 107.014 63.6248 107.315 63.6193 107.689C63.6138 108.064 63.8094 108.37 64.0561 108.374C64.3029 108.377 64.5073 108.077 64.5128 107.702Z" fill="#F29111"/>
<path d="M68.0597 97.5519C68.0652 97.1774 67.8696 96.8708 67.6229 96.8672C67.3761 96.8636 67.1716 97.1642 67.1662 97.5387C67.1607 97.9132 67.3563 98.2197 67.603 98.2234C67.8498 98.227 68.0542 97.9264 68.0597 97.5519Z" fill="#F29111"/>
<path d="M68.0363 99.2491C68.0417 98.8746 67.8462 98.5681 67.5994 98.5645C67.3527 98.5608 67.1482 98.8615 67.1427 99.236C67.1373 99.6105 67.3328 99.917 67.5796 99.9206C67.8263 99.9243 68.0308 99.6236 68.0363 99.2491Z" fill="#F29111"/>
<path d="M68.0128 100.948C68.0183 100.574 67.8227 100.267 67.576 100.264C67.3292 100.26 67.1248 100.561 67.1193 100.935C67.1138 101.31 67.3094 101.616 67.5561 101.62C67.8029 101.623 68.0073 101.323 68.0128 100.948Z" fill="#F29111"/>
<path d="M67.9894 102.648C67.9949 102.273 67.7993 101.967 67.5525 101.963C67.3058 101.959 67.1013 102.26 67.0959 102.634C67.0904 103.009 67.286 103.315 67.5327 103.319C67.7794 103.323 67.9839 103.022 67.9894 102.648Z" fill="#F29111"/>
<path d="M67.9659 104.345C67.9714 103.97 67.7758 103.664 67.5291 103.66C67.2824 103.657 67.0779 103.957 67.0724 104.332C67.0669 104.706 67.2625 105.013 67.5093 105.016C67.756 105.02 67.9605 104.719 67.9659 104.345Z" fill="#F29111"/>
<path d="M67.9425 106.056C67.948 105.681 67.7524 105.375 67.5057 105.371C67.2589 105.367 67.0545 105.668 67.049 106.043C67.0435 106.417 67.2391 106.724 67.4858 106.727C67.7326 106.731 67.937 106.43 67.9425 106.056Z" fill="#F29111"/>
<path d="M67.9113 107.755C67.9167 107.38 67.7212 107.074 67.4744 107.07C67.2277 107.067 67.0232 107.367 67.0177 107.742C67.0123 108.116 67.2078 108.423 67.4546 108.427C67.7013 108.43 67.9058 108.129 67.9113 107.755Z" fill="#F29111"/>
<path d="M71.4503 97.6026C71.4558 97.2281 71.2602 96.9216 71.0135 96.918C70.7667 96.9143 70.5623 97.215 70.5568 97.5895C70.5513 97.964 70.7469 98.2705 70.9936 98.2742C71.2404 98.2778 71.4448 97.9771 71.4503 97.6026Z" fill="#F29111"/>
<path d="M71.4269 99.3019C71.4324 98.9274 71.2368 98.6208 70.99 98.6172C70.7433 98.6136 70.5388 98.9142 70.5334 99.2887C70.5279 99.6632 70.7235 99.9697 70.9702 99.9734C71.2169 99.977 71.4214 99.6764 71.4269 99.3019Z" fill="#F29111"/>
<path d="M71.4035 101.001C71.4089 100.627 71.2133 100.32 70.9666 100.316C70.7199 100.313 70.5154 100.613 70.5099 100.988C70.5044 101.362 70.7 101.669 70.9468 101.673C71.1935 101.676 71.398 101.376 71.4035 101.001Z" fill="#F29111"/>
<path d="M71.38 102.698C71.3855 102.324 71.1899 102.017 70.9432 102.014C70.6964 102.01 70.492 102.311 70.4865 102.685C70.481 103.06 70.6766 103.366 70.9233 103.37C71.1701 103.373 71.3745 103.073 71.38 102.698Z" fill="#F29111"/>
<path d="M71.3566 104.398C71.362 104.023 71.1665 103.717 70.9197 103.713C70.673 103.709 70.4685 104.01 70.463 104.384C70.4576 104.759 70.6531 105.065 70.8999 105.069C71.1466 105.073 71.3511 104.772 71.3566 104.398Z" fill="#F29111"/>
<path d="M71.3253 106.097C71.3308 105.722 71.1352 105.416 70.8885 105.412C70.6417 105.408 70.4373 105.709 70.4318 106.084C70.4263 106.458 70.6219 106.765 70.8686 106.768C71.1154 106.772 71.3198 106.471 71.3253 106.097Z" fill="#F29111"/>
<path d="M71.3019 107.806C71.3074 107.431 71.1118 107.125 70.865 107.121C70.6183 107.117 70.4138 107.418 70.4084 107.793C70.4029 108.167 70.5984 108.474 70.8452 108.477C71.0919 108.481 71.2964 108.18 71.3019 107.806Z" fill="#F29111"/>
<path d="M74.8488 97.6437C74.8542 97.2692 74.6587 96.9626 74.4119 96.959C74.1652 96.9554 73.9607 97.256 73.9552 97.6305C73.9498 98.005 74.1453 98.3115 74.3921 98.3152C74.6388 98.3188 74.8433 98.0182 74.8488 97.6437Z" fill="#F29111"/>
<path d="M74.8253 99.3429C74.8308 98.9684 74.6352 98.6618 74.3885 98.6582C74.1417 98.6546 73.9373 98.9552 73.9318 99.3297C73.9263 99.7042 74.1219 100.011 74.3686 100.014C74.6154 100.018 74.8198 99.7174 74.8253 99.3429Z" fill="#F29111"/>
<path d="M74.8019 101.052C74.8074 100.677 74.6118 100.371 74.365 100.367C74.1183 100.364 73.9138 100.664 73.9084 101.039C73.9029 101.413 74.0985 101.72 74.3452 101.723C74.5919 101.727 74.7964 101.426 74.8019 101.052Z" fill="#F29111"/>
<path d="M74.7784 102.751C74.7839 102.377 74.5883 102.07 74.3416 102.066C74.0949 102.063 73.8904 102.363 73.8849 102.738C73.8794 103.112 74.075 103.419 74.3218 103.423C74.5685 103.426 74.773 103.126 74.7784 102.751Z" fill="#F29111"/>
<path d="M74.7394 104.45C74.7449 104.076 74.5493 103.769 74.3025 103.766C74.0558 103.762 73.8513 104.063 73.8459 104.437C73.8404 104.812 74.036 105.118 74.2827 105.122C74.5294 105.125 74.7339 104.825 74.7394 104.45Z" fill="#F29111"/>
<path d="M74.7159 106.148C74.7214 105.773 74.5258 105.467 74.2791 105.463C74.0324 105.459 73.8279 105.76 73.8224 106.134C73.8169 106.509 74.0125 106.815 74.2593 106.819C74.506 106.823 74.7105 106.522 74.7159 106.148Z" fill="#F29111"/>
<path d="M74.6925 107.847C74.698 107.472 74.5024 107.166 74.2557 107.162C74.0089 107.158 73.8045 107.459 73.799 107.834C73.7935 108.208 73.9891 108.515 74.2358 108.518C74.4826 108.522 74.687 108.221 74.6925 107.847Z" fill="#F29111"/>
<path d="M65.7941 97.5128C65.7995 97.1383 65.604 96.8318 65.3572 96.8281C65.1105 96.8245 64.906 97.1251 64.9005 97.4996C64.8951 97.8741 65.0907 98.1807 65.3374 98.1843C65.5841 98.1879 65.7886 97.8873 65.7941 97.5128Z" fill="#F29111"/>
<path d="M65.7706 99.2101C65.7761 98.8356 65.5805 98.529 65.3338 98.5254C65.0871 98.5218 64.8826 98.8224 64.8771 99.1969C64.8716 99.5714 65.0672 99.8779 65.314 99.8816C65.5607 99.8852 65.7652 99.5846 65.7706 99.2101Z" fill="#F29111"/>
<path d="M65.7472 100.921C65.7527 100.547 65.5571 100.24 65.3103 100.236C65.0636 100.233 64.8591 100.533 64.8537 100.908C64.8482 101.282 65.0438 101.589 65.2905 101.593C65.5373 101.596 65.7417 101.296 65.7472 100.921Z" fill="#F29111"/>
<path d="M65.7238 102.62C65.7292 102.246 65.5337 101.939 65.2869 101.936C65.0402 101.932 64.8357 102.233 64.8302 102.607C64.8248 102.982 65.0203 103.288 65.2671 103.292C65.5138 103.295 65.7183 102.995 65.7238 102.62Z" fill="#F29111"/>
<path d="M65.7003 104.317C65.7058 103.943 65.5102 103.636 65.2635 103.633C65.0167 103.629 64.8123 103.93 64.8068 104.304C64.8013 104.679 64.9969 104.985 65.2436 104.989C65.4904 104.993 65.6948 104.692 65.7003 104.317Z" fill="#F29111"/>
<path d="M65.6769 106.017C65.6824 105.642 65.4868 105.336 65.24 105.332C64.9933 105.328 64.7888 105.629 64.7834 106.004C64.7779 106.378 64.9734 106.685 65.2202 106.688C65.4669 106.692 65.6714 106.391 65.6769 106.017Z" fill="#F29111"/>
<path d="M65.6535 107.716C65.6589 107.341 65.4633 107.035 65.2166 107.031C64.9699 107.028 64.7654 107.328 64.7599 107.703C64.7544 108.077 64.95 108.384 65.1968 108.387C65.4435 108.391 65.648 108.09 65.6535 107.716Z" fill="#F29111"/>
<path d="M69.1847 97.5636C69.1902 97.1891 68.9946 96.8825 68.7478 96.8789C68.5011 96.8753 68.2966 97.1759 68.2912 97.5504C68.2857 97.9249 68.4813 98.2315 68.728 98.2351C68.9748 98.2387 69.1792 97.9381 69.1847 97.5636Z" fill="#F29111"/>
<path d="M69.1613 99.2628C69.1667 98.8883 68.9712 98.5818 68.7244 98.5781C68.4777 98.5745 68.2732 98.8751 68.2677 99.2496C68.2623 99.6241 68.4578 99.9307 68.7046 99.9343C68.9513 99.9379 69.1558 99.6373 69.1613 99.2628Z" fill="#F29111"/>
<path d="M69.1378 100.962C69.1433 100.588 68.9477 100.281 68.701 100.277C68.4542 100.274 68.2498 100.574 68.2443 100.949C68.2388 101.323 68.4344 101.63 68.6811 101.634C68.9279 101.637 69.1323 101.337 69.1378 100.962Z" fill="#F29111"/>
<path d="M69.1144 102.661C69.1199 102.287 68.9243 101.98 68.6775 101.977C68.4308 101.973 68.2263 102.274 68.2209 102.648C68.2154 103.023 68.411 103.329 68.6577 103.333C68.9044 103.336 69.1089 103.036 69.1144 102.661Z" fill="#F29111"/>
<path d="M69.0909 104.37C69.0964 103.996 68.9008 103.689 68.6541 103.686C68.4074 103.682 68.2029 103.983 68.1974 104.357C68.1919 104.732 68.3875 105.038 68.6343 105.042C68.881 105.045 69.0855 104.745 69.0909 104.37Z" fill="#F29111"/>
<path d="M69.0675 106.069C69.073 105.695 68.8774 105.388 68.6307 105.385C68.3839 105.381 68.1795 105.682 68.174 106.056C68.1685 106.431 68.3641 106.737 68.6108 106.741C68.8576 106.745 69.062 106.444 69.0675 106.069Z" fill="#F29111"/>
<path d="M69.0441 107.767C69.0496 107.392 68.854 107.086 68.6072 107.082C68.3605 107.078 68.156 107.379 68.1505 107.754C68.1451 108.128 68.3407 108.435 68.5874 108.438C68.8341 108.442 69.0386 108.141 69.0441 107.767Z" fill="#F29111"/>
<path d="M72.5909 97.6163C72.5964 97.2418 72.4008 96.9353 72.1541 96.9316C71.9074 96.928 71.7029 97.2287 71.6974 97.6032C71.6919 97.9777 71.8875 98.2842 72.1343 98.2878C72.381 98.2915 72.5855 97.9908 72.5909 97.6163Z" fill="#F29111"/>
<path d="M72.5597 99.3155C72.5652 98.941 72.3696 98.6345 72.1229 98.6309C71.8761 98.6272 71.6716 98.9279 71.6662 99.3024C71.6607 99.6769 71.8563 99.9834 72.103 99.987C72.3498 99.9907 72.5542 99.69 72.5597 99.3155Z" fill="#F29111"/>
<path d="M72.5363 101.015C72.5417 100.64 72.3462 100.334 72.0994 100.33C71.8527 100.326 71.6482 100.627 71.6427 101.002C71.6373 101.376 71.8328 101.683 72.0796 101.686C72.3263 101.69 72.5308 101.389 72.5363 101.015Z" fill="#F29111"/>
<path d="M72.5128 102.714C72.5183 102.339 72.3227 102.033 72.076 102.029C71.8292 102.026 71.6248 102.326 71.6193 102.701C71.6138 103.075 71.8094 103.382 72.0561 103.385C72.3029 103.389 72.5073 103.088 72.5128 102.714Z" fill="#F29111"/>
<path d="M72.4894 104.411C72.4949 104.037 72.2993 103.73 72.0525 103.727C71.8058 103.723 71.6013 104.024 71.5959 104.398C71.5904 104.773 71.786 105.079 72.0327 105.083C72.2794 105.086 72.4839 104.786 72.4894 104.411Z" fill="#F29111"/>
<path d="M72.4581 106.122C72.4636 105.748 72.268 105.441 72.0213 105.438C71.7746 105.434 71.5701 105.735 71.5646 106.109C71.5591 106.484 71.7547 106.79 72.0015 106.794C72.2482 106.797 72.4527 106.497 72.4581 106.122Z" fill="#F29111"/>
<path d="M72.4269 107.819C72.4324 107.445 72.2368 107.138 71.99 107.135C71.7433 107.131 71.5388 107.432 71.5334 107.806C71.5279 108.181 71.7235 108.487 71.9702 108.491C72.2169 108.495 72.4214 108.194 72.4269 107.819Z" fill="#F29111"/>
<path d="M66.9347 97.5265C66.9402 97.152 66.7446 96.8454 66.4979 96.8418C66.2511 96.8382 66.0466 97.1388 66.0412 97.5133C66.0357 97.8878 66.2313 98.1944 66.478 98.198C66.7248 98.2016 66.9292 97.901 66.9347 97.5265Z" fill="#F29111"/>
<path d="M66.8956 99.2355C66.9011 98.861 66.7055 98.5544 66.4588 98.5508C66.212 98.5472 66.0076 98.8478 66.0021 99.2223C65.9966 99.5968 66.1922 99.9033 66.4389 99.907C66.6857 99.9106 66.8902 99.61 66.8956 99.2355Z" fill="#F29111"/>
<path d="M66.8722 100.935C66.8777 100.56 66.6821 100.254 66.4354 100.25C66.1886 100.246 65.9841 100.547 65.9787 100.922C65.9732 101.296 66.1688 101.603 66.4155 101.606C66.6623 101.61 66.8667 101.309 66.8722 100.935Z" fill="#F29111"/>
<path d="M66.8488 102.634C66.8542 102.259 66.6587 101.953 66.4119 101.949C66.1652 101.946 65.9607 102.246 65.9552 102.621C65.9498 102.995 66.1453 103.302 66.3921 103.305C66.6388 103.309 66.8433 103.008 66.8488 102.634Z" fill="#F29111"/>
<path d="M66.8253 104.331C66.8308 103.957 66.6352 103.65 66.3885 103.646C66.1417 103.643 65.9373 103.944 65.9318 104.318C65.9263 104.693 66.1219 104.999 66.3686 105.003C66.6154 105.006 66.8198 104.706 66.8253 104.331Z" fill="#F29111"/>
<path d="M66.8019 106.03C66.8074 105.656 66.6118 105.349 66.365 105.346C66.1183 105.342 65.9138 105.643 65.9084 106.017C65.9029 106.392 66.0985 106.698 66.3452 106.702C66.5919 106.706 66.7964 106.405 66.8019 106.03Z" fill="#F29111"/>
<path d="M66.7785 107.73C66.7839 107.355 66.5883 107.049 66.3416 107.045C66.0949 107.041 65.8904 107.342 65.8849 107.716C65.8794 108.091 66.075 108.397 66.3218 108.401C66.5685 108.405 66.773 108.104 66.7785 107.73Z" fill="#F29111"/>
<path d="M70.3253 97.5792C70.3308 97.2047 70.1352 96.8982 69.8885 96.8945C69.6417 96.8909 69.4373 97.1916 69.4318 97.5661C69.4263 97.9406 69.6219 98.2471 69.8686 98.2507C70.1154 98.2544 70.3198 97.9537 70.3253 97.5792Z" fill="#F29111"/>
<path d="M70.3019 99.2765C70.3074 98.902 70.1118 98.5954 69.865 98.5918C69.6183 98.5882 69.4138 98.8888 69.4084 99.2633C69.4029 99.6378 69.5985 99.9444 69.8452 99.948C70.0919 99.9516 70.2964 99.651 70.3019 99.2765Z" fill="#F29111"/>
<path d="M70.2784 100.987C70.2839 100.613 70.0883 100.306 69.8416 100.303C69.5949 100.299 69.3904 100.6 69.3849 100.974C69.3794 101.349 69.575 101.655 69.8218 101.659C70.0685 101.663 70.273 101.362 70.2784 100.987Z" fill="#F29111"/>
<path d="M70.2472 102.687C70.2527 102.312 70.0571 102.006 69.8104 102.002C69.5636 101.998 69.3591 102.299 69.3537 102.673C69.3482 103.048 69.5438 103.355 69.7905 103.358C70.0373 103.362 70.2417 103.061 70.2472 102.687Z" fill="#F29111"/>
<path d="M70.2238 104.384C70.2292 104.009 70.0337 103.703 69.7869 103.699C69.5402 103.696 69.3357 103.996 69.3302 104.371C69.3248 104.745 69.5203 105.052 69.7671 105.055C70.0138 105.059 70.2183 104.758 70.2238 104.384Z" fill="#F29111"/>
<path d="M70.2003 106.083C70.2058 105.709 70.0102 105.402 69.7635 105.398C69.5167 105.395 69.3123 105.695 69.3068 106.07C69.3013 106.444 69.4969 106.751 69.7436 106.755C69.9904 106.758 70.1948 106.458 70.2003 106.083Z" fill="#F29111"/>
<path d="M70.1769 107.782C70.1824 107.408 69.9868 107.101 69.74 107.098C69.4933 107.094 69.2888 107.395 69.2834 107.769C69.2779 108.144 69.4735 108.45 69.7202 108.454C69.9669 108.457 70.1714 108.157 70.1769 107.782Z" fill="#F29111"/>
<path d="M73.7159 97.63C73.7214 97.2555 73.5258 96.9489 73.2791 96.9453C73.0324 96.9417 72.8279 97.2423 72.8224 97.6168C72.8169 97.9913 73.0125 98.2979 73.2593 98.3015C73.506 98.3051 73.7105 98.0045 73.7159 97.63Z" fill="#F29111"/>
<path d="M73.6925 99.3292C73.698 98.9547 73.5024 98.6482 73.2557 98.6445C73.0089 98.6409 72.8045 98.9415 72.799 99.316C72.7935 99.6905 72.9891 99.9971 73.2358 100.001C73.4826 100.004 73.687 99.7037 73.6925 99.3292Z" fill="#F29111"/>
<path d="M73.6691 101.028C73.6745 100.654 73.479 100.347 73.2322 100.344C72.9855 100.34 72.781 100.641 72.7755 101.015C72.7701 101.39 72.9656 101.696 73.2124 101.7C73.4591 101.704 73.6636 101.403 73.6691 101.028Z" fill="#F29111"/>
<path d="M73.6378 102.737C73.6433 102.363 73.4477 102.056 73.201 102.053C72.9542 102.049 72.7498 102.35 72.7443 102.724C72.7388 103.099 72.9344 103.405 73.1811 103.409C73.4279 103.413 73.6323 103.112 73.6378 102.737Z" fill="#F29111"/>
<path d="M73.6144 104.437C73.6199 104.062 73.4243 103.756 73.1775 103.752C72.9308 103.748 72.7263 104.049 72.7209 104.423C72.7154 104.798 72.911 105.105 73.1577 105.108C73.4044 105.112 73.6089 104.811 73.6144 104.437Z" fill="#F29111"/>
<path d="M73.5909 106.136C73.5964 105.761 73.4008 105.455 73.1541 105.451C72.9073 105.448 72.7029 105.748 72.6974 106.123C72.6919 106.497 72.8875 106.804 73.1343 106.807C73.381 106.811 73.5855 106.51 73.5909 106.136Z" fill="#F29111"/>
<path d="M73.5675 107.833C73.573 107.459 73.3774 107.152 73.1307 107.148C72.8839 107.145 72.6795 107.445 72.674 107.82C72.6685 108.194 72.8641 108.501 73.1108 108.505C73.3576 108.508 73.562 108.208 73.5675 107.833Z" fill="#F29111"/>
<path d="M64.6925 95.7999C64.698 95.4254 64.5024 95.1189 64.2557 95.1152C64.0089 95.1116 63.8045 95.4123 63.799 95.7868C63.7935 96.1613 63.9891 96.4678 64.2358 96.4714C64.4826 96.4751 64.687 96.1744 64.6925 95.7999Z" fill="#F29111"/>
<path d="M68.0831 95.8526C68.0886 95.4781 67.893 95.1716 67.6463 95.168C67.3996 95.1643 67.1951 95.465 67.1896 95.8395C67.1841 96.214 67.3797 96.5205 67.6265 96.5242C67.8732 96.5278 68.0777 96.2271 68.0831 95.8526Z" fill="#F29111"/>
<path d="M71.4738 95.8937C71.4792 95.5192 71.2837 95.2126 71.0369 95.209C70.7902 95.2054 70.5857 95.506 70.5802 95.8805C70.5748 96.255 70.7703 96.5615 71.0171 96.5652C71.2638 96.5688 71.4683 96.2682 71.4738 95.8937Z" fill="#F29111"/>
<path d="M74.8722 95.9464C74.8777 95.5719 74.6821 95.2653 74.4353 95.2617C74.1886 95.2581 73.9841 95.5587 73.9787 95.9332C73.9732 96.3077 74.1688 96.6143 74.4155 96.6179C74.6623 96.6215 74.8667 96.3209 74.8722 95.9464Z" fill="#F29111"/>
<path d="M65.8175 95.8136C65.823 95.4391 65.6274 95.1325 65.3807 95.1289C65.1339 95.1253 64.9295 95.4259 64.924 95.8004C64.9185 96.1749 65.1141 96.4815 65.3608 96.4851C65.6076 96.4887 65.812 96.1881 65.8175 95.8136Z" fill="#F29111"/>
<path d="M69.2081 95.8663C69.2136 95.4918 69.018 95.1853 68.7713 95.1816C68.5245 95.178 68.3201 95.4787 68.3146 95.8532C68.3091 96.2277 68.5047 96.5342 68.7514 96.5378C68.9982 96.5415 69.2027 96.2408 69.2081 95.8663Z" fill="#F29111"/>
<path d="M72.6144 95.919C72.6199 95.5445 72.4243 95.238 72.1775 95.2344C71.9308 95.2307 71.7263 95.5314 71.7209 95.9059C71.7154 96.2804 71.911 96.5869 72.1577 96.5906C72.4044 96.5942 72.6089 96.2935 72.6144 95.919Z" fill="#F29111"/>
<path d="M66.9581 95.8272C66.9636 95.4527 66.768 95.1462 66.5213 95.1426C66.2745 95.1389 66.0701 95.4396 66.0646 95.8141C66.0591 96.1886 66.2547 96.4951 66.5014 96.4988C66.7482 96.5024 66.9527 96.2017 66.9581 95.8272Z" fill="#F29111"/>
<path d="M70.3488 95.88C70.3542 95.5055 70.1587 95.1989 69.9119 95.1953C69.6652 95.1917 69.4607 95.4923 69.4552 95.8668C69.4498 96.2413 69.6453 96.5479 69.8921 96.5515C70.1388 96.5551 70.3433 96.2545 70.3488 95.88Z" fill="#F29111"/>
<path d="M73.7394 95.9327C73.7449 95.5582 73.5493 95.2517 73.3025 95.248C73.0558 95.2444 72.8513 95.5451 72.8459 95.9196C72.8404 96.2941 73.036 96.6006 73.2827 96.6042C73.5294 96.6079 73.7339 96.3072 73.7394 95.9327Z" fill="#F29111"/>
<path d="M64.4894 109.4C64.4949 109.025 64.2993 108.718 64.0525 108.715C63.8058 108.711 63.6013 109.012 63.5959 109.386C63.5904 109.761 63.786 110.067 64.0327 110.071C64.2794 110.075 64.4839 109.774 64.4894 109.4Z" fill="#F29111"/>
<path d="M64.466 111.099C64.4715 110.724 64.2759 110.418 64.0292 110.414C63.7824 110.41 63.5779 110.711 63.5725 111.086C63.567 111.46 63.7625 111.767 64.0093 111.77C64.256 111.774 64.4605 111.473 64.466 111.099Z" fill="#F29111"/>
<path d="M67.8878 109.452C67.8933 109.078 67.6977 108.771 67.451 108.768C67.2042 108.764 66.9998 109.065 66.9943 109.439C66.9888 109.814 67.1844 110.12 67.4311 110.124C67.6779 110.127 67.8823 109.827 67.8878 109.452Z" fill="#F29111"/>
<path d="M67.8644 111.151C67.8699 110.777 67.6743 110.47 67.4275 110.467C67.1808 110.463 66.9763 110.764 66.9709 111.138C66.9654 111.513 67.161 111.819 67.4077 111.823C67.6544 111.827 67.8589 111.526 67.8644 111.151Z" fill="#F29111"/>
<path d="M71.2785 109.505C71.2839 109.13 71.0883 108.824 70.8416 108.82C70.5949 108.817 70.3904 109.117 70.3849 109.492C70.3794 109.866 70.575 110.173 70.8218 110.177C71.0685 110.18 71.273 109.879 71.2785 109.505Z" fill="#F29111"/>
<path d="M71.255 111.204C71.2605 110.83 71.0649 110.523 70.8182 110.52C70.5714 110.516 70.367 110.817 70.3615 111.191C70.356 111.566 70.5516 111.872 70.7983 111.876C71.0451 111.879 71.2495 111.579 71.255 111.204Z" fill="#F29111"/>
<path d="M74.6691 109.558C74.6746 109.183 74.479 108.877 74.2322 108.873C73.9855 108.869 73.781 109.17 73.7755 109.545C73.7701 109.919 73.9657 110.226 74.2124 110.229C74.4591 110.233 74.6636 109.932 74.6691 109.558Z" fill="#F29111"/>
<path d="M74.6456 111.255C74.6511 110.88 74.4555 110.574 74.2088 110.57C73.962 110.567 73.7576 110.867 73.7521 111.242C73.7466 111.616 73.9422 111.923 74.1889 111.926C74.4357 111.93 74.6401 111.629 74.6456 111.255Z" fill="#F29111"/>
<path d="M65.63 109.413C65.6355 109.039 65.4399 108.732 65.1932 108.729C64.9464 108.725 64.742 109.026 64.7365 109.4C64.731 109.775 64.9266 110.081 65.1733 110.085C65.4201 110.088 65.6245 109.788 65.63 109.413Z" fill="#F29111"/>
<path d="M65.5988 111.124C65.6042 110.75 65.4087 110.443 65.1619 110.439C64.9152 110.436 64.7107 110.736 64.7052 111.111C64.6998 111.485 64.8953 111.792 65.1421 111.796C65.3888 111.799 65.5933 111.499 65.5988 111.124Z" fill="#F29111"/>
<path d="M69.0128 109.466C69.0183 109.091 68.8227 108.785 68.576 108.781C68.3292 108.778 68.1248 109.078 68.1193 109.453C68.1138 109.827 68.3094 110.134 68.5561 110.137C68.8029 110.141 69.0073 109.84 69.0128 109.466Z" fill="#F29111"/>
<path d="M68.9894 111.165C68.9949 110.791 68.7993 110.484 68.5525 110.48C68.3058 110.477 68.1013 110.777 68.0959 111.152C68.0904 111.526 68.286 111.833 68.5327 111.837C68.7794 111.84 68.9839 111.54 68.9894 111.165Z" fill="#F29111"/>
<path d="M72.4035 109.519C72.4089 109.144 72.2133 108.838 71.9666 108.834C71.7199 108.83 71.5154 109.131 71.5099 109.505C71.5044 109.88 71.7 110.187 71.9468 110.19C72.1935 110.194 72.398 109.893 72.4035 109.519Z" fill="#F29111"/>
<path d="M72.38 111.216C72.3855 110.841 72.1899 110.535 71.9432 110.531C71.6964 110.528 71.492 110.828 71.4865 111.203C71.481 111.577 71.6766 111.884 71.9233 111.887C72.1701 111.891 72.3745 111.59 72.38 111.216Z" fill="#F29111"/>
<path d="M66.755 109.439C66.7605 109.064 66.5649 108.758 66.3182 108.754C66.0714 108.75 65.867 109.051 65.8615 109.425C65.856 109.8 66.0516 110.106 66.2983 110.11C66.5451 110.114 66.7495 109.813 66.755 109.439Z" fill="#F29111"/>
<path d="M66.7316 111.138C66.737 110.763 66.5415 110.457 66.2947 110.453C66.048 110.449 65.8435 110.75 65.838 111.125C65.8326 111.499 66.0281 111.806 66.2749 111.809C66.5216 111.813 66.7261 111.512 66.7316 111.138Z" fill="#F29111"/>
<path d="M70.1535 109.48C70.1589 109.105 69.9633 108.799 69.7166 108.795C69.4699 108.791 69.2654 109.092 69.2599 109.466C69.2544 109.841 69.45 110.147 69.6968 110.151C69.9435 110.155 70.148 109.854 70.1535 109.48Z" fill="#F29111"/>
<path d="M70.1222 111.191C70.1277 110.816 69.9321 110.509 69.6854 110.506C69.4386 110.502 69.2341 110.803 69.2287 111.177C69.2232 111.552 69.4188 111.858 69.6655 111.862C69.9123 111.866 70.1167 111.565 70.1222 111.191Z" fill="#F29111"/>
<path d="M73.5441 109.532C73.5495 109.158 73.354 108.851 73.1072 108.848C72.8605 108.844 72.656 109.145 72.6505 109.519C72.6451 109.894 72.8407 110.2 73.0874 110.204C73.3341 110.207 73.5386 109.907 73.5441 109.532Z" fill="#F29111"/>
<path d="M73.5206 111.232C73.5261 110.857 73.3305 110.551 73.0838 110.547C72.8371 110.543 72.6326 110.844 72.6271 111.218C72.6216 111.593 72.8172 111.899 73.064 111.903C73.3107 111.907 73.5152 111.606 73.5206 111.232Z" fill="#F29111"/>
</g>
<mask id="mask1_1993_1502" style="mask-type:luminance" maskUnits="userSpaceOnUse" x="82" y="95" width="12" height="17">
<path d="M93.2374 103.816C93.3035 99.309 90.9261 95.6199 87.9272 95.5759C84.9284 95.5319 82.4437 99.1496 82.3776 103.656C82.3114 108.163 84.6889 111.852 87.6877 111.896C90.6866 111.94 93.1712 108.322 93.2374 103.816Z" fill="white"/>
</mask>
<g mask="url(#mask1_1993_1502)">
<path d="M83.2472 97.7726C83.2527 97.3981 83.0571 97.0915 82.8104 97.0879C82.5636 97.0843 82.3591 97.3849 82.3537 97.7594C82.3482 98.1339 82.5438 98.4404 82.7905 98.4441C83.0373 98.4477 83.2417 98.1471 83.2472 97.7726Z" fill="#F29111"/>
<path d="M83.2238 99.4718C83.2292 99.0973 83.0337 98.7907 82.7869 98.7871C82.5402 98.7835 82.3357 99.0841 82.3302 99.4586C82.3248 99.8331 82.5203 100.14 82.7671 100.143C83.0138 100.147 83.2183 99.8463 83.2238 99.4718Z" fill="#F29111"/>
<path d="M83.2003 101.169C83.2058 100.795 83.0102 100.488 82.7635 100.484C82.5167 100.481 82.3123 100.781 82.3068 101.156C82.3013 101.53 82.4969 101.837 82.7436 101.841C82.9904 101.844 83.1948 101.544 83.2003 101.169Z" fill="#F29111"/>
<path d="M83.1691 102.868C83.1745 102.494 82.979 102.187 82.7322 102.184C82.4855 102.18 82.281 102.481 82.2755 102.855C82.2701 103.23 82.4656 103.536 82.7124 103.54C82.9591 103.543 83.1636 103.243 83.1691 102.868Z" fill="#F29111"/>
<path d="M83.1456 104.577C83.1511 104.203 82.9555 103.896 82.7088 103.893C82.462 103.889 82.2576 104.19 82.2521 104.564C82.2466 104.939 82.4422 105.245 82.6889 105.249C82.9357 105.252 83.1402 104.952 83.1456 104.577Z" fill="#F29111"/>
<path d="M83.1222 106.276C83.1277 105.902 82.9321 105.595 82.6854 105.592C82.4386 105.588 82.2341 105.889 82.2287 106.263C82.2232 106.638 82.4188 106.944 82.6655 106.948C82.9123 106.952 83.1167 106.651 83.1222 106.276Z" fill="#F29111"/>
<path d="M83.0988 107.976C83.1042 107.601 82.9086 107.295 82.6619 107.291C82.4152 107.287 82.2107 107.588 82.2052 107.963C82.1998 108.337 82.3953 108.644 82.6421 108.647C82.8888 108.651 83.0933 108.35 83.0988 107.976Z" fill="#F29111"/>
<path d="M86.6456 97.8253C86.6511 97.4508 86.4555 97.1443 86.2088 97.1406C85.9621 97.137 85.7576 97.4376 85.7521 97.8121C85.7466 98.1866 85.9422 98.4932 86.189 98.4968C86.4357 98.5004 86.6402 98.1998 86.6456 97.8253Z" fill="#F29111"/>
<path d="M86.6222 99.5226C86.6277 99.1481 86.4321 98.8415 86.1854 98.8379C85.9386 98.8343 85.7341 99.1349 85.7287 99.5094C85.7232 99.8839 85.9188 100.19 86.1655 100.194C86.4123 100.198 86.6167 99.8971 86.6222 99.5226Z" fill="#F29111"/>
<path d="M86.5988 101.222C86.6042 100.847 86.4087 100.541 86.1619 100.537C85.9152 100.533 85.7107 100.834 85.7052 101.209C85.6998 101.583 85.8953 101.89 86.1421 101.893C86.3888 101.897 86.5933 101.596 86.5988 101.222Z" fill="#F29111"/>
<path d="M86.5753 102.921C86.5808 102.547 86.3852 102.24 86.1385 102.236C85.8917 102.233 85.6873 102.533 85.6818 102.908C85.6763 103.282 85.8719 103.589 86.1186 103.593C86.3654 103.596 86.5698 103.296 86.5753 102.921Z" fill="#F29111"/>
<path d="M86.5519 104.618C86.5574 104.244 86.3618 103.937 86.115 103.934C85.8683 103.93 85.6638 104.231 85.6584 104.605C85.6529 104.98 85.8485 105.286 86.0952 105.29C86.3419 105.293 86.5464 104.993 86.5519 104.618Z" fill="#F29111"/>
<path d="M86.5128 106.329C86.5183 105.955 86.3227 105.648 86.076 105.645C85.8292 105.641 85.6248 105.942 85.6193 106.316C85.6138 106.691 85.8094 106.997 86.0561 107.001C86.3029 107.004 86.5073 106.704 86.5128 106.329Z" fill="#F29111"/>
<path d="M86.4894 108.028C86.4949 107.654 86.2993 107.347 86.0525 107.344C85.8058 107.34 85.6013 107.641 85.5959 108.015C85.5904 108.39 85.786 108.696 86.0327 108.7C86.2794 108.704 86.4839 108.403 86.4894 108.028Z" fill="#F29111"/>
<path d="M90.0363 97.8663C90.0417 97.4918 89.8462 97.1853 89.5994 97.1816C89.3527 97.178 89.1482 97.4787 89.1427 97.8532C89.1373 98.2277 89.3328 98.5342 89.5796 98.5378C89.8263 98.5415 90.0308 98.2408 90.0363 97.8663Z" fill="#F29111"/>
<path d="M90.0128 99.5753C90.0183 99.2008 89.8227 98.8943 89.576 98.8906C89.3292 98.887 89.1248 99.1876 89.1193 99.5621C89.1138 99.9366 89.3094 100.243 89.5561 100.247C89.8029 100.25 90.0073 99.9498 90.0128 99.5753Z" fill="#F29111"/>
<path d="M89.9894 101.275C89.9949 100.9 89.7993 100.593 89.5525 100.59C89.3058 100.586 89.1013 100.887 89.0959 101.261C89.0904 101.636 89.286 101.942 89.5327 101.946C89.7794 101.95 89.9839 101.649 89.9894 101.275Z" fill="#F29111"/>
<path d="M89.9659 102.974C89.9714 102.599 89.7758 102.293 89.5291 102.289C89.2824 102.285 89.0779 102.586 89.0724 102.961C89.0669 103.335 89.2625 103.642 89.5093 103.645C89.756 103.649 89.9605 103.348 89.9659 102.974Z" fill="#F29111"/>
<path d="M89.9425 104.671C89.948 104.296 89.7524 103.99 89.5057 103.986C89.2589 103.983 89.0545 104.283 89.049 104.658C89.0435 105.032 89.2391 105.339 89.4858 105.343C89.7326 105.346 89.937 105.045 89.9425 104.671Z" fill="#F29111"/>
<path d="M89.9113 106.37C89.9167 105.996 89.7212 105.689 89.4744 105.686C89.2277 105.682 89.0232 105.983 89.0177 106.357C89.0123 106.732 89.2078 107.038 89.4546 107.042C89.7013 107.045 89.9058 106.745 89.9113 106.37Z" fill="#F29111"/>
<path d="M89.8878 108.079C89.8933 107.705 89.6977 107.398 89.451 107.395C89.2042 107.391 88.9998 107.692 88.9943 108.066C88.9888 108.441 89.1844 108.747 89.4311 108.751C89.6779 108.754 89.8823 108.454 89.8878 108.079Z" fill="#F29111"/>
<path d="M93.4269 97.9171C93.4324 97.5426 93.2368 97.2361 92.99 97.2324C92.7433 97.2288 92.5388 97.5294 92.5334 97.9039C92.5279 98.2784 92.7235 98.585 92.9702 98.5886C93.2169 98.5922 93.4214 98.2916 93.4269 97.9171Z" fill="#F29111"/>
<path d="M93.4035 99.6163C93.4089 99.2418 93.2133 98.9353 92.9666 98.9317C92.7199 98.928 92.5154 99.2287 92.5099 99.6032C92.5044 99.9777 92.7 100.284 92.9468 100.288C93.1935 100.291 93.398 99.9908 93.4035 99.6163Z" fill="#F29111"/>
<path d="M93.38 101.325C93.3855 100.951 93.1899 100.644 92.9432 100.641C92.6964 100.637 92.492 100.938 92.4865 101.312C92.481 101.687 92.6766 101.993 92.9233 101.997C93.1701 102 93.3745 101.7 93.38 101.325Z" fill="#F29111"/>
<path d="M93.3488 103.025C93.3542 102.65 93.1587 102.343 92.9119 102.34C92.6652 102.336 92.4607 102.637 92.4552 103.011C92.4498 103.386 92.6453 103.692 92.8921 103.696C93.1388 103.7 93.3433 103.399 93.3488 103.025Z" fill="#F29111"/>
<path d="M93.3253 104.724C93.3308 104.349 93.1352 104.043 92.8885 104.039C92.6417 104.035 92.4373 104.336 92.4318 104.711C92.4263 105.085 92.6219 105.392 92.8686 105.395C93.1154 105.399 93.3198 105.098 93.3253 104.724Z" fill="#F29111"/>
<path d="M93.3019 106.421C93.3074 106.046 93.1118 105.74 92.865 105.736C92.6183 105.733 92.4138 106.033 92.4084 106.408C92.4029 106.782 92.5984 107.089 92.8452 107.093C93.0919 107.096 93.2964 106.795 93.3019 106.421Z" fill="#F29111"/>
<path d="M93.2785 108.12C93.2839 107.746 93.0883 107.439 92.8416 107.436C92.5949 107.432 92.3904 107.733 92.3849 108.107C92.3794 108.482 92.575 108.788 92.8218 108.792C93.0685 108.795 93.273 108.495 93.2785 108.12Z" fill="#F29111"/>
<path d="M84.38 97.7862C84.3855 97.4117 84.1899 97.1052 83.9432 97.1016C83.6964 97.0979 83.492 97.3986 83.4865 97.7731C83.481 98.1476 83.6766 98.4541 83.9233 98.4578C84.1701 98.4614 84.3745 98.1607 84.38 97.7862Z" fill="#F29111"/>
<path d="M84.3566 99.4835C84.362 99.109 84.1665 98.8025 83.9197 98.7988C83.673 98.7952 83.4685 99.0958 83.463 99.4703C83.4576 99.8448 83.6532 100.151 83.8999 100.155C84.1466 100.159 84.3511 99.858 84.3566 99.4835Z" fill="#F29111"/>
<path d="M84.3331 101.194C84.3386 100.82 84.143 100.513 83.8963 100.51C83.6496 100.506 83.4451 100.807 83.4396 101.181C83.4341 101.556 83.6297 101.862 83.8765 101.866C84.1232 101.87 84.3277 101.569 84.3331 101.194Z" fill="#F29111"/>
<path d="M84.3097 102.894C84.3152 102.519 84.1196 102.213 83.8729 102.209C83.6261 102.205 83.4216 102.506 83.4162 102.881C83.4107 103.255 83.6063 103.562 83.853 103.565C84.0998 103.569 84.3042 103.268 84.3097 102.894Z" fill="#F29111"/>
<path d="M84.2863 104.591C84.2917 104.216 84.0962 103.91 83.8494 103.906C83.6027 103.903 83.3982 104.203 83.3927 104.578C83.3873 104.952 83.5828 105.259 83.8296 105.262C84.0763 105.266 84.2808 104.965 84.2863 104.591Z" fill="#F29111"/>
<path d="M84.2628 106.29C84.2683 105.916 84.0727 105.609 83.826 105.605C83.5792 105.602 83.3748 105.902 83.3693 106.277C83.3638 106.651 83.5594 106.958 83.8061 106.962C84.0529 106.965 84.2573 106.665 84.2628 106.29Z" fill="#F29111"/>
<path d="M84.2394 107.989C84.2449 107.615 84.0493 107.308 83.8025 107.305C83.5558 107.301 83.3513 107.602 83.3459 107.976C83.3404 108.351 83.536 108.657 83.7827 108.661C84.0294 108.665 84.2339 108.364 84.2394 107.989Z" fill="#F29111"/>
<path d="M87.7706 97.839C87.7761 97.4645 87.5805 97.1579 87.3338 97.1543C87.0871 97.1507 86.8826 97.4513 86.8771 97.8258C86.8716 98.2003 87.0672 98.5069 87.314 98.5105C87.5607 98.5141 87.7652 98.2135 87.7706 97.839Z" fill="#F29111"/>
<path d="M87.7472 99.5362C87.7527 99.1617 87.5571 98.8552 87.3103 98.8516C87.0636 98.8479 86.8591 99.1486 86.8537 99.5231C86.8482 99.8976 87.0438 100.204 87.2905 100.208C87.5373 100.211 87.7417 99.9107 87.7472 99.5362Z" fill="#F29111"/>
<path d="M87.7238 101.235C87.7292 100.861 87.5337 100.554 87.2869 100.551C87.0402 100.547 86.8357 100.848 86.8302 101.222C86.8248 101.597 87.0203 101.903 87.2671 101.907C87.5138 101.911 87.7183 101.61 87.7238 101.235Z" fill="#F29111"/>
<path d="M87.7003 102.935C87.7058 102.56 87.5102 102.254 87.2635 102.25C87.0167 102.246 86.8123 102.547 86.8068 102.922C86.8013 103.296 86.9969 103.603 87.2436 103.606C87.4904 103.61 87.6948 103.309 87.7003 102.935Z" fill="#F29111"/>
<path d="M87.6769 104.644C87.6824 104.269 87.4868 103.963 87.24 103.959C86.9933 103.955 86.7888 104.256 86.7834 104.63C86.7779 105.005 86.9735 105.312 87.2202 105.315C87.4669 105.319 87.6714 105.018 87.6769 104.644Z" fill="#F29111"/>
<path d="M87.6535 106.343C87.6589 105.968 87.4633 105.662 87.2166 105.658C86.9699 105.655 86.7654 105.955 86.7599 106.33C86.7544 106.704 86.95 107.011 87.1968 107.014C87.4435 107.018 87.648 106.717 87.6535 106.343Z" fill="#F29111"/>
<path d="M87.63 108.042C87.6355 107.668 87.4399 107.361 87.1932 107.357C86.9464 107.354 86.742 107.654 86.7365 108.029C86.731 108.403 86.9266 108.71 87.1733 108.714C87.4201 108.717 87.6245 108.417 87.63 108.042Z" fill="#F29111"/>
<path d="M91.1769 97.8898C91.1824 97.5153 90.9868 97.2087 90.74 97.2051C90.4933 97.2015 90.2888 97.5021 90.2834 97.8766C90.2779 98.2511 90.4735 98.5576 90.7202 98.5613C90.9669 98.5649 91.1714 98.2643 91.1769 97.8898Z" fill="#F29111"/>
<path d="M91.1456 99.589C91.1511 99.2145 90.9555 98.9079 90.7088 98.9043C90.462 98.9007 90.2576 99.2013 90.2521 99.5758C90.2466 99.9503 90.4422 100.257 90.6889 100.26C90.9357 100.264 91.1402 99.9635 91.1456 99.589Z" fill="#F29111"/>
<path d="M91.1144 101.288C91.1199 100.914 90.9243 100.607 90.6775 100.604C90.4308 100.6 90.2263 100.901 90.2209 101.275C90.2154 101.65 90.411 101.956 90.6577 101.96C90.9044 101.963 91.1089 101.663 91.1144 101.288Z" fill="#F29111"/>
<path d="M91.0909 102.987C91.0964 102.613 90.9008 102.306 90.6541 102.303C90.4074 102.299 90.2029 102.6 90.1974 102.974C90.1919 103.349 90.3875 103.655 90.6343 103.659C90.881 103.663 91.0855 103.362 91.0909 102.987Z" fill="#F29111"/>
<path d="M91.0675 104.685C91.073 104.31 90.8774 104.004 90.6307 104C90.3839 103.996 90.1795 104.297 90.174 104.672C90.1685 105.046 90.3641 105.353 90.6108 105.356C90.8576 105.36 91.062 105.059 91.0675 104.685Z" fill="#F29111"/>
<path d="M91.0441 106.396C91.0496 106.021 90.854 105.715 90.6072 105.711C90.3605 105.707 90.156 106.008 90.1505 106.382C90.1451 106.757 90.3407 107.063 90.5874 107.067C90.8341 107.071 91.0386 106.77 91.0441 106.396Z" fill="#F29111"/>
<path d="M91.0128 108.093C91.0183 107.718 90.8227 107.412 90.576 107.408C90.3292 107.405 90.1248 107.705 90.1193 108.08C90.1138 108.454 90.3094 108.761 90.5561 108.764C90.8029 108.768 91.0073 108.467 91.0128 108.093Z" fill="#F29111"/>
<path d="M85.505 97.7999C85.5105 97.4254 85.3149 97.1189 85.0682 97.1152C84.8214 97.1116 84.617 97.4122 84.6115 97.7867C84.606 98.1612 84.8016 98.4678 85.0483 98.4714C85.2951 98.4751 85.4995 98.1744 85.505 97.7999Z" fill="#F29111"/>
<path d="M85.4816 99.5089C85.4871 99.1344 85.2915 98.8279 85.0447 98.8242C84.798 98.8206 84.5935 99.1212 84.588 99.4957C84.5826 99.8702 84.7782 100.177 85.0249 100.18C85.2716 100.184 85.4761 99.8834 85.4816 99.5089Z" fill="#F29111"/>
<path d="M85.4581 101.208C85.4636 100.834 85.268 100.527 85.0213 100.523C84.7745 100.52 84.5701 100.82 84.5646 101.195C84.5591 101.569 84.7547 101.876 85.0014 101.88C85.2482 101.883 85.4527 101.583 85.4581 101.208Z" fill="#F29111"/>
<path d="M85.4347 102.907C85.4402 102.533 85.2446 102.226 84.9978 102.223C84.7511 102.219 84.5466 102.52 84.5412 102.894C84.5357 103.269 84.7313 103.575 84.978 103.579C85.2248 103.582 85.4292 103.282 85.4347 102.907Z" fill="#F29111"/>
<path d="M85.4113 104.605C85.4167 104.23 85.2212 103.924 84.9744 103.92C84.7277 103.916 84.5232 104.217 84.5177 104.591C84.5123 104.966 84.7078 105.272 84.9546 105.276C85.2013 105.28 85.4058 104.979 85.4113 104.605Z" fill="#F29111"/>
<path d="M85.3878 106.304C85.3933 105.929 85.1977 105.623 84.951 105.619C84.7042 105.616 84.4998 105.916 84.4943 106.291C84.4888 106.665 84.6844 106.972 84.9311 106.975C85.1779 106.979 85.3823 106.678 85.3878 106.304Z" fill="#F29111"/>
<path d="M85.3644 108.003C85.3699 107.629 85.1743 107.322 84.9275 107.318C84.6808 107.315 84.4763 107.615 84.4709 107.99C84.4654 108.364 84.661 108.671 84.9077 108.675C85.1544 108.678 85.3589 108.378 85.3644 108.003Z" fill="#F29111"/>
<path d="M88.9113 97.8526C88.9167 97.4781 88.7212 97.1716 88.4744 97.168C88.2277 97.1643 88.0232 97.465 88.0177 97.8395C88.0123 98.214 88.2078 98.5205 88.4546 98.5242C88.7013 98.5278 88.9058 98.2271 88.9113 97.8526Z" fill="#F29111"/>
<path d="M88.8878 99.5499C88.8933 99.1754 88.6977 98.8689 88.451 98.8652C88.2042 98.8616 87.9998 99.1623 87.9943 99.5368C87.9888 99.9113 88.1844 100.218 88.4311 100.221C88.6779 100.225 88.8823 99.9244 88.8878 99.5499Z" fill="#F29111"/>
<path d="M88.8644 101.261C88.8699 100.886 88.6743 100.58 88.4275 100.576C88.1808 100.573 87.9763 100.873 87.9709 101.248C87.9654 101.622 88.161 101.929 88.4077 101.932C88.6544 101.936 88.8589 101.635 88.8644 101.261Z" fill="#F29111"/>
<path d="M88.8331 102.96C88.8386 102.586 88.643 102.279 88.3963 102.275C88.1495 102.272 87.9451 102.572 87.9396 102.947C87.9341 103.321 88.1297 103.628 88.3764 103.632C88.6232 103.635 88.8277 103.335 88.8331 102.96Z" fill="#F29111"/>
<path d="M88.8019 104.657C88.8074 104.283 88.6118 103.976 88.365 103.973C88.1183 103.969 87.9138 104.27 87.9084 104.644C87.9029 105.019 88.0985 105.325 88.3452 105.329C88.5919 105.332 88.7964 105.032 88.8019 104.657Z" fill="#F29111"/>
<path d="M88.7785 106.357C88.7839 105.982 88.5883 105.676 88.3416 105.672C88.0949 105.668 87.8904 105.969 87.8849 106.343C87.8794 106.718 88.075 107.024 88.3218 107.028C88.5685 107.032 88.773 106.731 88.7785 106.357Z" fill="#F29111"/>
<path d="M88.755 108.056C88.7605 107.681 88.5649 107.375 88.3182 107.371C88.0714 107.367 87.867 107.668 87.8615 108.043C87.856 108.417 88.0516 108.724 88.2983 108.727C88.5451 108.731 88.7495 108.43 88.755 108.056Z" fill="#F29111"/>
<path d="M92.3019 97.9034C92.3074 97.5289 92.1118 97.2224 91.865 97.2187C91.6183 97.2151 91.4138 97.5158 91.4084 97.8903C91.4029 98.2648 91.5985 98.5713 91.8452 98.5749C92.0919 98.5786 92.2964 98.2779 92.3019 97.9034Z" fill="#F29111"/>
<path d="M92.2784 99.6026C92.2839 99.2281 92.0883 98.9216 91.8416 98.918C91.5949 98.9143 91.3904 99.215 91.3849 99.5895C91.3794 99.964 91.575 100.271 91.8218 100.274C92.0685 100.278 92.273 99.9771 92.2784 99.6026Z" fill="#F29111"/>
<path d="M92.255 101.302C92.2605 100.927 92.0649 100.621 91.8182 100.617C91.5714 100.614 91.367 100.914 91.3615 101.289C91.356 101.663 91.5516 101.97 91.7983 101.973C92.0451 101.977 92.2495 101.676 92.255 101.302Z" fill="#F29111"/>
<path d="M92.2238 103.011C92.2292 102.636 92.0337 102.33 91.7869 102.326C91.5402 102.323 91.3357 102.623 91.3302 102.998C91.3248 103.372 91.5203 103.679 91.7671 103.682C92.0138 103.686 92.2183 103.385 92.2238 103.011Z" fill="#F29111"/>
<path d="M92.2003 104.71C92.2058 104.336 92.0102 104.029 91.7635 104.025C91.5167 104.022 91.3123 104.322 91.3068 104.697C91.3013 105.071 91.4969 105.378 91.7436 105.382C91.9904 105.385 92.1948 105.085 92.2003 104.71Z" fill="#F29111"/>
<path d="M92.1769 106.409C92.1824 106.035 91.9868 105.728 91.74 105.725C91.4933 105.721 91.2888 106.022 91.2834 106.396C91.2779 106.771 91.4735 107.077 91.7202 107.081C91.9669 107.084 92.1714 106.784 92.1769 106.409Z" fill="#F29111"/>
<path d="M92.1535 108.108C92.1589 107.734 91.9633 107.427 91.7166 107.424C91.4699 107.42 91.2654 107.721 91.2599 108.095C91.2544 108.47 91.45 108.776 91.6968 108.78C91.9435 108.784 92.148 108.483 92.1535 108.108Z" fill="#F29111"/>
<path d="M83.2706 96.0733C83.2761 95.6988 83.0805 95.3923 82.8338 95.3887C82.587 95.385 82.3826 95.6857 82.3771 96.0602C82.3716 96.4347 82.5672 96.7412 82.8139 96.7449C83.0607 96.7485 83.2652 96.4478 83.2706 96.0733Z" fill="#F29111"/>
<path d="M86.6691 96.1261C86.6745 95.7516 86.479 95.445 86.2322 95.4414C85.9855 95.4378 85.781 95.7384 85.7755 96.1129C85.7701 96.4874 85.9656 96.794 86.2124 96.7976C86.4591 96.8012 86.6636 96.5006 86.6691 96.1261Z" fill="#F29111"/>
<path d="M90.0597 96.1671C90.0652 95.7926 89.8696 95.4861 89.6229 95.4824C89.3761 95.4788 89.1716 95.7794 89.1662 96.1539C89.1607 96.5284 89.3563 96.835 89.603 96.8386C89.8498 96.8422 90.0542 96.5416 90.0597 96.1671Z" fill="#F29111"/>
<path d="M93.4581 96.2198C93.4636 95.8453 93.268 95.5388 93.0213 95.5352C92.7746 95.5315 92.5701 95.8322 92.5646 96.2067C92.5591 96.5812 92.7547 96.8877 93.0015 96.8913C93.2482 96.895 93.4527 96.5943 93.4581 96.2198Z" fill="#F29111"/>
<path d="M84.4034 96.087C84.4089 95.7125 84.2133 95.406 83.9666 95.4023C83.7199 95.3987 83.5154 95.6994 83.5099 96.0739C83.5044 96.4484 83.7 96.7549 83.9468 96.7585C84.1935 96.7622 84.398 96.4615 84.4034 96.087Z" fill="#F29111"/>
<path d="M87.7941 96.1398C87.7995 95.7653 87.604 95.4587 87.3572 95.4551C87.1105 95.4514 86.906 95.7521 86.9005 96.1266C86.8951 96.5011 87.0907 96.8076 87.3374 96.8113C87.5841 96.8149 87.7886 96.5143 87.7941 96.1398Z" fill="#F29111"/>
<path d="M91.2003 96.1925C91.2058 95.818 91.0102 95.5114 90.7635 95.5078C90.5167 95.5042 90.3123 95.8048 90.3068 96.1793C90.3013 96.5538 90.4969 96.8604 90.7436 96.864C90.9904 96.8676 91.1948 96.567 91.2003 96.1925Z" fill="#F29111"/>
<path d="M85.5363 96.1007C85.5417 95.7262 85.3462 95.4197 85.0994 95.416C84.8527 95.4124 84.6482 95.713 84.6427 96.0875C84.6373 96.462 84.8328 96.7686 85.0796 96.7722C85.3263 96.7758 85.5308 96.4752 85.5363 96.1007Z" fill="#F29111"/>
<path d="M88.9347 96.1534C88.9402 95.7789 88.7446 95.4724 88.4979 95.4688C88.2511 95.4651 88.0466 95.7658 88.0412 96.1403C88.0357 96.5148 88.2313 96.8213 88.478 96.8249C88.7248 96.8286 88.9292 96.5279 88.9347 96.1534Z" fill="#F29111"/>
<path d="M92.3253 96.2062C92.3308 95.8317 92.1352 95.5251 91.8885 95.5215C91.6417 95.5179 91.4373 95.8185 91.4318 96.193C91.4263 96.5675 91.6219 96.874 91.8686 96.8777C92.1154 96.8813 92.3198 96.5807 92.3253 96.2062Z" fill="#F29111"/>
<path d="M83.0753 109.675C83.0808 109.3 82.8852 108.994 82.6385 108.99C82.3917 108.987 82.1873 109.287 82.1818 109.662C82.1763 110.036 82.3719 110.343 82.6186 110.346C82.8654 110.35 83.0698 110.049 83.0753 109.675Z" fill="#F29111"/>
<path d="M83.0519 111.372C83.0574 110.998 82.8618 110.691 82.6151 110.687C82.3684 110.684 82.1639 110.985 82.1584 111.359C82.1529 111.734 82.3485 112.04 82.5952 112.044C82.8419 112.047 83.0464 111.747 83.0519 111.372Z" fill="#F29111"/>
<path d="M86.466 109.726C86.4714 109.351 86.2758 109.045 86.0291 109.041C85.7824 109.037 85.5779 109.338 85.5724 109.713C85.5669 110.087 85.7625 110.394 86.0093 110.397C86.256 110.401 86.4605 110.1 86.466 109.726Z" fill="#F29111"/>
<path d="M86.4425 111.425C86.448 111.05 86.2524 110.744 86.0057 110.74C85.7589 110.737 85.5545 111.037 85.549 111.412C85.5435 111.786 85.7391 112.093 85.9858 112.096C86.2326 112.1 86.437 111.799 86.4425 111.425Z" fill="#F29111"/>
<path d="M89.8644 109.778C89.8699 109.404 89.6743 109.097 89.4275 109.094C89.1808 109.09 88.9763 109.391 88.9709 109.765C88.9654 110.14 89.161 110.446 89.4077 110.45C89.6544 110.454 89.8589 110.153 89.8644 109.778Z" fill="#F29111"/>
<path d="M89.8409 111.478C89.8464 111.103 89.6508 110.797 89.4041 110.793C89.1574 110.789 88.9529 111.09 88.9474 111.464C88.9419 111.839 89.1375 112.146 89.3843 112.149C89.631 112.153 89.8355 111.852 89.8409 111.478Z" fill="#F29111"/>
<path d="M93.255 109.831C93.2605 109.457 93.0649 109.15 92.8182 109.146C92.5714 109.143 92.367 109.443 92.3615 109.818C92.356 110.192 92.5516 110.499 92.7983 110.503C93.0451 110.506 93.2495 110.206 93.255 109.831Z" fill="#F29111"/>
<path d="M93.2316 111.528C93.2371 111.154 93.0415 110.847 92.7947 110.844C92.548 110.84 92.3435 111.141 92.338 111.515C92.3326 111.89 92.5282 112.196 92.7749 112.2C93.0216 112.204 93.2261 111.903 93.2316 111.528Z" fill="#F29111"/>
<path d="M84.2159 109.687C84.2214 109.312 84.0258 109.006 83.7791 109.002C83.5324 108.998 83.3279 109.299 83.3224 109.673C83.3169 110.048 83.5125 110.355 83.7593 110.358C84.006 110.362 84.2105 110.061 84.2159 109.687Z" fill="#F29111"/>
<path d="M84.1769 111.398C84.1824 111.023 83.9868 110.717 83.74 110.713C83.4933 110.709 83.2888 111.01 83.2834 111.384C83.2779 111.759 83.4735 112.065 83.7202 112.069C83.9669 112.073 84.1714 111.772 84.1769 111.398Z" fill="#F29111"/>
<path d="M87.5988 109.739C87.6042 109.365 87.4087 109.058 87.1619 109.055C86.9152 109.051 86.7107 109.352 86.7052 109.726C86.6998 110.101 86.8953 110.407 87.1421 110.411C87.3888 110.415 87.5933 110.114 87.5988 109.739Z" fill="#F29111"/>
<path d="M87.5753 111.439C87.5808 111.064 87.3852 110.758 87.1385 110.754C86.8917 110.75 86.6873 111.051 86.6818 111.425C86.6763 111.8 86.8719 112.106 87.1186 112.11C87.3654 112.114 87.5698 111.813 87.5753 111.439Z" fill="#F29111"/>
<path d="M90.9894 109.792C90.9949 109.418 90.7993 109.111 90.5525 109.107C90.3058 109.104 90.1013 109.404 90.0959 109.779C90.0904 110.153 90.286 110.46 90.5327 110.464C90.7794 110.467 90.9839 110.167 90.9894 109.792Z" fill="#F29111"/>
<path d="M90.9659 111.491C90.9714 111.117 90.7758 110.81 90.5291 110.807C90.2824 110.803 90.0779 111.104 90.0724 111.478C90.0669 111.853 90.2625 112.159 90.5093 112.163C90.756 112.166 90.9605 111.866 90.9659 111.491Z" fill="#F29111"/>
<path d="M85.3409 109.712C85.3464 109.338 85.1508 109.031 84.9041 109.027C84.6574 109.024 84.4529 109.324 84.4474 109.699C84.4419 110.073 84.6375 110.38 84.8843 110.384C85.131 110.387 85.3355 110.087 85.3409 109.712Z" fill="#F29111"/>
<path d="M85.3175 111.411C85.323 111.037 85.1274 110.73 84.8807 110.727C84.6339 110.723 84.4295 111.024 84.424 111.398C84.4185 111.773 84.6141 112.079 84.8608 112.083C85.1076 112.086 85.312 111.786 85.3175 111.411Z" fill="#F29111"/>
<path d="M88.7316 109.753C88.737 109.379 88.5415 109.072 88.2947 109.068C88.048 109.065 87.8435 109.365 87.838 109.74C87.8326 110.114 88.0281 110.421 88.2749 110.425C88.5216 110.428 88.7261 110.128 88.7316 109.753Z" fill="#F29111"/>
<path d="M88.7081 111.464C88.7136 111.089 88.518 110.783 88.2713 110.779C88.0246 110.776 87.8201 111.076 87.8146 111.451C87.8091 111.825 88.0047 112.132 88.2515 112.135C88.4982 112.139 88.7027 111.838 88.7081 111.464Z" fill="#F29111"/>
<path d="M92.13 109.806C92.1355 109.431 91.9399 109.125 91.6932 109.121C91.4464 109.117 91.242 109.418 91.2365 109.793C91.231 110.167 91.4266 110.474 91.6733 110.477C91.9201 110.481 92.1245 110.18 92.13 109.806Z" fill="#F29111"/>
<path d="M92.1066 111.505C92.1121 111.13 91.9165 110.824 91.6697 110.82C91.423 110.817 91.2185 111.117 91.213 111.492C91.2076 111.866 91.4032 112.173 91.6499 112.177C91.8966 112.18 92.1011 111.879 92.1066 111.505Z" fill="#F29111"/>
</g>
<path d="M92.9025 117.094L93.8076 117.025L93.9909 117.922L64.0662 120.209L63.5162 121.554C60.7552 122.014 58.2806 121.462 56.3444 120.244L57.3182 119.267L43.2266 110.669L43.8108 110.117L44.6816 110.669L57.9942 119.152L57.1807 120.106C58.9565 121.163 60.7552 121.508 63.0122 121.198L63.6537 119.554L92.9369 117.106L92.9025 117.094Z" fill="#9BBBCA"/>
<path d="M93.995 117.922L91.6464 153.152L68.6759 155.014L64.0703 120.221L93.995 117.922Z" fill="#8EC9E6"/>
<path d="M68.6789 155.014L68.2207 156.014L63.5234 121.566L64.0734 120.221L68.6789 155.014Z" fill="#4D90DB"/>
<path d="M63.5234 121.564L68.2206 156.001C65.5627 155.909 63.363 155.219 61.3352 154.15L61.2092 153.15L56.3516 120.254C58.2877 121.472 60.7624 122.036 63.5234 121.564Z" fill="#8EC9E6"/>
<path d="M56.3481 120.254L61.2057 153.151L52.2924 148.392L43.2188 110.668L57.3104 119.266L56.3481 120.254Z" fill="#9BBBCA"/>
<path d="M92.2966 114.278L92.9038 117.105L63.6206 119.553L62.979 121.197C60.7335 121.519 58.9349 121.163 57.1476 120.105L57.961 119.151L44.6484 110.668L46.2982 109.691C51.7516 113.634 58.1902 112.439 60.6877 117.576C67.7908 113.174 79.0642 117.576 92.2966 114.278Z" fill="#FAF5E1"/>
<path d="M108.729 127.45L112.922 131.243C113.426 131.703 113.713 132.37 113.678 133.048L113.449 138.312C113.403 139.37 112.647 140.255 111.628 140.462L90.513 144.829C89.3559 145.071 88.2102 144.381 87.8551 143.255L87.5801 142.358C87.1333 140.898 87.7061 139.312 88.9778 138.473L105.934 127.243C106.804 126.657 107.95 126.749 108.729 127.45Z" fill="white"/>
<path d="M88.9778 138.474L99.6325 131.428L98.7618 143.129L90.513 144.83C89.3559 145.071 88.2102 144.382 87.8551 143.255L87.5801 142.359C87.1333 140.899 87.7061 139.313 88.9778 138.474Z" fill="#F29111"/>
<path d="M46.4866 132.875C46.3262 132.381 46.7616 131.887 47.3688 131.887H51.2068C52.341 131.887 53.269 132.68 53.269 133.645V139.91C53.269 140.887 52.341 141.668 51.2068 141.668H49.305L46.4866 132.875Z" fill="#F29111"/>
<defs>
<linearGradient id="paint0_linear_1993_1502" x1="70.468" y1="49.188" x2="69.973" y2="82.8053" gradientUnits="userSpaceOnUse">
<stop stop-color="white"/>
<stop offset="1" stop-color="#F4F4F4"/>
</linearGradient>
</defs>
</svg>
