<svg width="500" height="500" viewBox="0 0 500 500" fill="none" xmlns="http://www.w3.org/2000/svg">
<g clip-path="url(#clip0_2014_124)">
<path d="M500 0H0V500H500V0Z" fill="#6D90AA"/>
<path d="M248.805 473.422C333.179 473.422 401.578 460.655 401.578 444.906C401.578 429.158 333.179 416.391 248.805 416.391C164.43 416.391 96.0312 429.158 96.0312 444.906C96.0312 460.655 164.43 473.422 248.805 473.422Z" fill="#35373A" fill-opacity="0.7"/>
<path d="M422.711 36.3903C418.57 74.2809 379.313 150.648 355.719 186.547L289.352 165.453C324.391 103.617 363.57 62.1716 392.203 33.7731C398.727 27.3278 408.453 25.3356 417.008 28.6559L417.984 29.0466C421.031 30.2184 423.062 33.1481 422.711 36.3903Z" fill="white"/>
<path d="M422.711 36.0392C420.445 52.0548 414.742 75.5314 397.75 110.805C397.75 110.805 397.438 74.0861 387.398 69.2814C377.359 64.4767 344.469 85.3751 344.469 85.3751C356.148 71.9376 377.242 45.3361 394.391 31.7033C400.133 27.133 407.75 26.1955 414.977 27.6017L416.891 27.9533C420.641 28.7736 423.219 32.2501 422.711 36.0392Z" fill="#FF9100"/>
<path d="M87.8285 36.3903C91.9692 74.2809 131.227 150.648 154.821 186.547L221.188 165.453C186.149 103.617 146.969 62.1716 118.336 33.7731C111.813 27.3278 102.086 25.3356 93.5316 28.6559L92.5551 29.0466C89.5082 30.2184 87.477 33.1481 87.8285 36.3903Z" fill="white"/>
<path d="M87.791 36.0392C90.0175 51.5861 95.8769 75.7267 112.752 110.844C112.752 110.844 113.064 74.1252 123.103 69.3205C133.143 64.5158 166.072 85.4142 166.072 85.4142C154.393 71.9767 133.299 45.3752 116.15 31.7423C110.408 27.172 102.791 26.2345 95.5644 27.6408L93.6504 28.0314C89.8613 28.7736 87.2441 32.2502 87.791 36.0392Z" fill="#FF9100"/>
<path d="M383.188 252.562C383.188 317.25 323.227 369.672 249.242 369.672C175.258 369.672 115.297 317.25 115.297 252.562C115.297 187.875 175.258 135.453 249.242 135.453C323.227 135.453 383.188 187.875 383.188 252.562Z" fill="white"/>
<path d="M249 346.469C309.406 346.469 358.375 308.78 358.375 262.289C358.375 215.798 309.406 178.109 249 178.109C188.594 178.109 139.625 215.798 139.625 262.289C139.625 308.78 188.594 346.469 249 346.469Z" fill="#35373A"/>
<path d="M345.215 363.93L349.903 345.18C350.45 342.915 352.012 341.04 354.121 340.024L370.371 332.29C373.614 330.766 377.481 331.587 379.746 334.36L426.739 391.157C429.317 394.243 429.082 398.813 426.231 401.665L423.926 403.97C420.254 407.641 414.59 408.462 410.02 405.962L349.004 372.72C345.957 371.001 344.356 367.407 345.215 363.93Z" fill="white"/>
<path d="M410.023 405.922L371.508 384.867L408.305 368.734L426.781 391.078C429.359 394.164 429.125 398.734 426.273 401.586L423.93 403.93C420.258 407.602 414.594 408.422 410.023 405.922Z" fill="#F29111"/>
<path d="M154.315 363.227L149.628 344.477C149.081 342.212 147.518 340.337 145.409 339.321L129.159 331.587C125.917 330.063 122.05 330.884 119.784 333.657L72.7917 390.454C70.2136 393.54 70.448 398.11 73.2995 400.962L75.6042 403.266C79.2761 406.938 84.9402 407.759 89.5105 405.259L150.526 372.016C153.612 370.259 155.214 366.665 154.315 363.227Z" fill="white"/>
<path d="M89.5495 405.219L128.065 384.164L91.2683 368.031L72.7917 390.375C70.2136 393.461 70.448 398.031 73.2995 400.883L75.6433 403.227C79.3152 406.898 84.9792 407.719 89.5495 405.219Z" fill="#F29111"/>
<mask id="mask0_2014_124" style="mask-type:luminance" maskUnits="userSpaceOnUse" x="259" y="228" width="72" height="42">
<path d="M330.18 269.047C330.18 269.047 314.477 254.086 295.062 254.086C275.648 254.086 259.945 271.82 259.945 269.047C259.945 246.43 275.648 228.07 295.062 228.07C314.477 228.07 330.18 246.391 330.18 269.047Z" fill="white"/>
</mask>
<g mask="url(#mask0_2014_124)">
<path d="M266.43 231.234C268.005 231.234 269.281 229.958 269.281 228.383C269.281 226.808 268.005 225.531 266.43 225.531C264.855 225.531 263.578 226.808 263.578 228.383C263.578 229.958 264.855 231.234 266.43 231.234Z" fill="#F29111"/>
<path d="M266.43 238.422C268.005 238.422 269.281 237.145 269.281 235.57C269.281 233.995 268.005 232.719 266.43 232.719C264.855 232.719 263.578 233.995 263.578 235.57C263.578 237.145 264.855 238.422 266.43 238.422Z" fill="#F29111"/>
<path d="M266.43 245.57C268.005 245.57 269.281 244.294 269.281 242.719C269.281 241.144 268.005 239.867 266.43 239.867C264.855 239.867 263.578 241.144 263.578 242.719C263.578 244.294 264.855 245.57 266.43 245.57Z" fill="#F29111"/>
<path d="M266.43 252.758C268.005 252.758 269.281 251.481 269.281 249.906C269.281 248.331 268.005 247.055 266.43 247.055C264.855 247.055 263.578 248.331 263.578 249.906C263.578 251.481 264.855 252.758 266.43 252.758Z" fill="#F29111"/>
<path d="M266.43 259.906C268.005 259.906 269.281 258.63 269.281 257.055C269.281 255.48 268.005 254.203 266.43 254.203C264.855 254.203 263.578 255.48 263.578 257.055C263.578 258.63 264.855 259.906 266.43 259.906Z" fill="#F29111"/>
<path d="M273.617 231.234C275.192 231.234 276.469 229.958 276.469 228.383C276.469 226.808 275.192 225.531 273.617 225.531C272.042 225.531 270.766 226.808 270.766 228.383C270.766 229.958 272.042 231.234 273.617 231.234Z" fill="#F29111"/>
<path d="M273.617 238.422C275.192 238.422 276.469 237.145 276.469 235.57C276.469 233.995 275.192 232.719 273.617 232.719C272.042 232.719 270.766 233.995 270.766 235.57C270.766 237.145 272.042 238.422 273.617 238.422Z" fill="#F29111"/>
<path d="M273.617 245.57C275.192 245.57 276.469 244.294 276.469 242.719C276.469 241.144 275.192 239.867 273.617 239.867C272.042 239.867 270.766 241.144 270.766 242.719C270.766 244.294 272.042 245.57 273.617 245.57Z" fill="#F29111"/>
<path d="M273.617 252.758C275.192 252.758 276.469 251.481 276.469 249.906C276.469 248.331 275.192 247.055 273.617 247.055C272.042 247.055 270.766 248.331 270.766 249.906C270.766 251.481 272.042 252.758 273.617 252.758Z" fill="#F29111"/>
<path d="M273.617 259.906C275.192 259.906 276.469 258.63 276.469 257.055C276.469 255.48 275.192 254.203 273.617 254.203C272.042 254.203 270.766 255.48 270.766 257.055C270.766 258.63 272.042 259.906 273.617 259.906Z" fill="#F29111"/>
<path d="M259.281 231.234C260.856 231.234 262.133 229.958 262.133 228.383C262.133 226.808 260.856 225.531 259.281 225.531C257.706 225.531 256.43 226.808 256.43 228.383C256.43 229.958 257.706 231.234 259.281 231.234Z" fill="#F29111"/>
<path d="M259.281 238.422C260.856 238.422 262.133 237.145 262.133 235.57C262.133 233.995 260.856 232.719 259.281 232.719C257.706 232.719 256.43 233.995 256.43 235.57C256.43 237.145 257.706 238.422 259.281 238.422Z" fill="#F29111"/>
<path d="M259.281 245.57C260.856 245.57 262.133 244.294 262.133 242.719C262.133 241.144 260.856 239.867 259.281 239.867C257.706 239.867 256.43 241.144 256.43 242.719C256.43 244.294 257.706 245.57 259.281 245.57Z" fill="#F29111"/>
<path d="M259.281 252.758C260.856 252.758 262.133 251.481 262.133 249.906C262.133 248.331 260.856 247.055 259.281 247.055C257.706 247.055 256.43 248.331 256.43 249.906C256.43 251.481 257.706 252.758 259.281 252.758Z" fill="#F29111"/>
<path d="M259.281 259.906C260.856 259.906 262.133 258.63 262.133 257.055C262.133 255.48 260.856 254.203 259.281 254.203C257.706 254.203 256.43 255.48 256.43 257.055C256.43 258.63 257.706 259.906 259.281 259.906Z" fill="#F29111"/>
<path d="M280.766 231.234C282.34 231.234 283.617 229.958 283.617 228.383C283.617 226.808 282.34 225.531 280.766 225.531C279.191 225.531 277.914 226.808 277.914 228.383C277.914 229.958 279.191 231.234 280.766 231.234Z" fill="#F29111"/>
<path d="M280.766 238.422C282.34 238.422 283.617 237.145 283.617 235.57C283.617 233.995 282.34 232.719 280.766 232.719C279.191 232.719 277.914 233.995 277.914 235.57C277.914 237.145 279.191 238.422 280.766 238.422Z" fill="#F29111"/>
<path d="M280.766 245.57C282.34 245.57 283.617 244.294 283.617 242.719C283.617 241.144 282.34 239.867 280.766 239.867C279.191 239.867 277.914 241.144 277.914 242.719C277.914 244.294 279.191 245.57 280.766 245.57Z" fill="#F29111"/>
<path d="M280.766 252.758C282.34 252.758 283.617 251.481 283.617 249.906C283.617 248.331 282.34 247.055 280.766 247.055C279.191 247.055 277.914 248.331 277.914 249.906C277.914 251.481 279.191 252.758 280.766 252.758Z" fill="#F29111"/>
<path d="M280.766 259.906C282.34 259.906 283.617 258.63 283.617 257.055C283.617 255.48 282.34 254.203 280.766 254.203C279.191 254.203 277.914 255.48 277.914 257.055C277.914 258.63 279.191 259.906 280.766 259.906Z" fill="#F29111"/>
<path d="M295.102 231.234C296.676 231.234 297.953 229.958 297.953 228.383C297.953 226.808 296.676 225.531 295.102 225.531C293.527 225.531 292.25 226.808 292.25 228.383C292.25 229.958 293.527 231.234 295.102 231.234Z" fill="#F29111"/>
<path d="M295.102 238.422C296.676 238.422 297.953 237.145 297.953 235.57C297.953 233.995 296.676 232.719 295.102 232.719C293.527 232.719 292.25 233.995 292.25 235.57C292.25 237.145 293.527 238.422 295.102 238.422Z" fill="#F29111"/>
<path d="M295.102 245.57C296.676 245.57 297.953 244.294 297.953 242.719C297.953 241.144 296.676 239.867 295.102 239.867C293.527 239.867 292.25 241.144 292.25 242.719C292.25 244.294 293.527 245.57 295.102 245.57Z" fill="#F29111"/>
<path d="M295.102 252.758C296.676 252.758 297.953 251.481 297.953 249.906C297.953 248.331 296.676 247.055 295.102 247.055C293.527 247.055 292.25 248.331 292.25 249.906C292.25 251.481 293.527 252.758 295.102 252.758Z" fill="#F29111"/>
<path d="M295.102 259.906C296.676 259.906 297.953 258.63 297.953 257.055C297.953 255.48 296.676 254.203 295.102 254.203C293.527 254.203 292.25 255.48 292.25 257.055C292.25 258.63 293.527 259.906 295.102 259.906Z" fill="#F29111"/>
<path d="M316.586 231.234C318.161 231.234 319.437 229.958 319.437 228.383C319.437 226.808 318.161 225.531 316.586 225.531C315.011 225.531 313.734 226.808 313.734 228.383C313.734 229.958 315.011 231.234 316.586 231.234Z" fill="#F29111"/>
<path d="M316.586 238.422C318.161 238.422 319.437 237.145 319.437 235.57C319.437 233.995 318.161 232.719 316.586 232.719C315.011 232.719 313.734 233.995 313.734 235.57C313.734 237.145 315.011 238.422 316.586 238.422Z" fill="#F29111"/>
<path d="M316.586 245.57C318.161 245.57 319.437 244.294 319.437 242.719C319.437 241.144 318.161 239.867 316.586 239.867C315.011 239.867 313.734 241.144 313.734 242.719C313.734 244.294 315.011 245.57 316.586 245.57Z" fill="#F29111"/>
<path d="M316.586 252.758C318.161 252.758 319.437 251.481 319.437 249.906C319.437 248.331 318.161 247.055 316.586 247.055C315.011 247.055 313.734 248.331 313.734 249.906C313.734 251.481 315.011 252.758 316.586 252.758Z" fill="#F29111"/>
<path d="M316.586 259.906C318.161 259.906 319.437 258.63 319.437 257.055C319.437 255.48 318.161 254.203 316.586 254.203C315.011 254.203 313.734 255.48 313.734 257.055C313.734 258.63 315.011 259.906 316.586 259.906Z" fill="#F29111"/>
<path d="M302.289 231.234C303.864 231.234 305.141 229.958 305.141 228.383C305.141 226.808 303.864 225.531 302.289 225.531C300.714 225.531 299.438 226.808 299.438 228.383C299.438 229.958 300.714 231.234 302.289 231.234Z" fill="#F29111"/>
<path d="M302.289 238.422C303.864 238.422 305.141 237.145 305.141 235.57C305.141 233.995 303.864 232.719 302.289 232.719C300.714 232.719 299.438 233.995 299.438 235.57C299.438 237.145 300.714 238.422 302.289 238.422Z" fill="#F29111"/>
<path d="M302.289 245.57C303.864 245.57 305.141 244.294 305.141 242.719C305.141 241.144 303.864 239.867 302.289 239.867C300.714 239.867 299.438 241.144 299.438 242.719C299.438 244.294 300.714 245.57 302.289 245.57Z" fill="#F29111"/>
<path d="M302.289 252.758C303.864 252.758 305.141 251.481 305.141 249.906C305.141 248.331 303.864 247.055 302.289 247.055C300.714 247.055 299.438 248.331 299.438 249.906C299.438 251.481 300.714 252.758 302.289 252.758Z" fill="#F29111"/>
<path d="M302.289 259.906C303.864 259.906 305.141 258.63 305.141 257.055C305.141 255.48 303.864 254.203 302.289 254.203C300.714 254.203 299.438 255.48 299.438 257.055C299.438 258.63 300.714 259.906 302.289 259.906Z" fill="#F29111"/>
<path d="M323.773 231.234C325.348 231.234 326.625 229.958 326.625 228.383C326.625 226.808 325.348 225.531 323.773 225.531C322.199 225.531 320.922 226.808 320.922 228.383C320.922 229.958 322.199 231.234 323.773 231.234Z" fill="#F29111"/>
<path d="M323.773 238.422C325.348 238.422 326.625 237.145 326.625 235.57C326.625 233.995 325.348 232.719 323.773 232.719C322.199 232.719 320.922 233.995 320.922 235.57C320.922 237.145 322.199 238.422 323.773 238.422Z" fill="#F29111"/>
<path d="M323.773 245.57C325.348 245.57 326.625 244.294 326.625 242.719C326.625 241.144 325.348 239.867 323.773 239.867C322.199 239.867 320.922 241.144 320.922 242.719C320.922 244.294 322.199 245.57 323.773 245.57Z" fill="#F29111"/>
<path d="M323.773 252.758C325.348 252.758 326.625 251.481 326.625 249.906C326.625 248.331 325.348 247.055 323.773 247.055C322.199 247.055 320.922 248.331 320.922 249.906C320.922 251.481 322.199 252.758 323.773 252.758Z" fill="#F29111"/>
<path d="M323.773 259.906C325.348 259.906 326.625 258.63 326.625 257.055C326.625 255.48 325.348 254.203 323.773 254.203C322.199 254.203 320.922 255.48 320.922 257.055C320.922 258.63 322.199 259.906 323.773 259.906Z" fill="#F29111"/>
<path d="M287.953 231.234C289.528 231.234 290.805 229.958 290.805 228.383C290.805 226.808 289.528 225.531 287.953 225.531C286.378 225.531 285.102 226.808 285.102 228.383C285.102 229.958 286.378 231.234 287.953 231.234Z" fill="#F29111"/>
<path d="M287.953 238.422C289.528 238.422 290.805 237.145 290.805 235.57C290.805 233.995 289.528 232.719 287.953 232.719C286.378 232.719 285.102 233.995 285.102 235.57C285.102 237.145 286.378 238.422 287.953 238.422Z" fill="#F29111"/>
<path d="M287.953 245.57C289.528 245.57 290.805 244.294 290.805 242.719C290.805 241.144 289.528 239.867 287.953 239.867C286.378 239.867 285.102 241.144 285.102 242.719C285.102 244.294 286.378 245.57 287.953 245.57Z" fill="#F29111"/>
<path d="M287.953 252.758C289.528 252.758 290.805 251.481 290.805 249.906C290.805 248.331 289.528 247.055 287.953 247.055C286.378 247.055 285.102 248.331 285.102 249.906C285.102 251.481 286.378 252.758 287.953 252.758Z" fill="#F29111"/>
<path d="M287.953 259.906C289.528 259.906 290.805 258.63 290.805 257.055C290.805 255.48 289.528 254.203 287.953 254.203C286.378 254.203 285.102 255.48 285.102 257.055C285.102 258.63 286.378 259.906 287.953 259.906Z" fill="#F29111"/>
<path d="M309.438 231.234C311.012 231.234 312.289 229.958 312.289 228.383C312.289 226.808 311.012 225.531 309.438 225.531C307.863 225.531 306.586 226.808 306.586 228.383C306.586 229.958 307.863 231.234 309.438 231.234Z" fill="#F29111"/>
<path d="M309.438 238.422C311.012 238.422 312.289 237.145 312.289 235.57C312.289 233.995 311.012 232.719 309.438 232.719C307.863 232.719 306.586 233.995 306.586 235.57C306.586 237.145 307.863 238.422 309.438 238.422Z" fill="#F29111"/>
<path d="M309.438 245.57C311.012 245.57 312.289 244.294 312.289 242.719C312.289 241.144 311.012 239.867 309.438 239.867C307.863 239.867 306.586 241.144 306.586 242.719C306.586 244.294 307.863 245.57 309.438 245.57Z" fill="#F29111"/>
<path d="M309.438 252.758C311.012 252.758 312.289 251.481 312.289 249.906C312.289 248.331 311.012 247.055 309.438 247.055C307.863 247.055 306.586 248.331 306.586 249.906C306.586 251.481 307.863 252.758 309.438 252.758Z" fill="#F29111"/>
<path d="M309.438 259.906C311.012 259.906 312.289 258.63 312.289 257.055C312.289 255.48 311.012 254.203 309.438 254.203C307.863 254.203 306.586 255.48 306.586 257.055C306.586 258.63 307.863 259.906 309.438 259.906Z" fill="#F29111"/>
<path d="M330.922 231.234C332.497 231.234 333.773 229.958 333.773 228.383C333.773 226.808 332.497 225.531 330.922 225.531C329.347 225.531 328.07 226.808 328.07 228.383C328.07 229.958 329.347 231.234 330.922 231.234Z" fill="#F29111"/>
<path d="M330.922 238.422C332.497 238.422 333.773 237.145 333.773 235.57C333.773 233.995 332.497 232.719 330.922 232.719C329.347 232.719 328.07 233.995 328.07 235.57C328.07 237.145 329.347 238.422 330.922 238.422Z" fill="#F29111"/>
<path d="M330.922 245.57C332.497 245.57 333.773 244.294 333.773 242.719C333.773 241.144 332.497 239.867 330.922 239.867C329.347 239.867 328.07 241.144 328.07 242.719C328.07 244.294 329.347 245.57 330.922 245.57Z" fill="#F29111"/>
<path d="M330.922 252.758C332.497 252.758 333.773 251.481 333.773 249.906C333.773 248.331 332.497 247.055 330.922 247.055C329.347 247.055 328.07 248.331 328.07 249.906C328.07 251.481 329.347 252.758 330.922 252.758Z" fill="#F29111"/>
<path d="M330.922 259.906C332.497 259.906 333.773 258.63 333.773 257.055C333.773 255.48 332.497 254.203 330.922 254.203C329.347 254.203 328.07 255.48 328.07 257.055C328.07 258.63 329.347 259.906 330.922 259.906Z" fill="#F29111"/>
<path d="M266.43 267.055C268.005 267.055 269.281 265.778 269.281 264.203C269.281 262.628 268.005 261.352 266.43 261.352C264.855 261.352 263.578 262.628 263.578 264.203C263.578 265.778 264.855 267.055 266.43 267.055Z" fill="#F29111"/>
<path d="M266.43 274.242C268.005 274.242 269.281 272.966 269.281 271.391C269.281 269.816 268.005 268.539 266.43 268.539C264.855 268.539 263.578 269.816 263.578 271.391C263.578 272.966 264.855 274.242 266.43 274.242Z" fill="#F29111"/>
<path d="M273.617 267.055C275.192 267.055 276.469 265.778 276.469 264.203C276.469 262.628 275.192 261.352 273.617 261.352C272.042 261.352 270.766 262.628 270.766 264.203C270.766 265.778 272.042 267.055 273.617 267.055Z" fill="#F29111"/>
<path d="M273.617 274.242C275.192 274.242 276.469 272.966 276.469 271.391C276.469 269.816 275.192 268.539 273.617 268.539C272.042 268.539 270.766 269.816 270.766 271.391C270.766 272.966 272.042 274.242 273.617 274.242Z" fill="#F29111"/>
<path d="M259.281 267.055C260.856 267.055 262.133 265.778 262.133 264.203C262.133 262.628 260.856 261.352 259.281 261.352C257.706 261.352 256.43 262.628 256.43 264.203C256.43 265.778 257.706 267.055 259.281 267.055Z" fill="#F29111"/>
<path d="M259.281 274.242C260.856 274.242 262.133 272.966 262.133 271.391C262.133 269.816 260.856 268.539 259.281 268.539C257.706 268.539 256.43 269.816 256.43 271.391C256.43 272.966 257.706 274.242 259.281 274.242Z" fill="#F29111"/>
<path d="M280.766 267.055C282.34 267.055 283.617 265.778 283.617 264.203C283.617 262.628 282.34 261.352 280.766 261.352C279.191 261.352 277.914 262.628 277.914 264.203C277.914 265.778 279.191 267.055 280.766 267.055Z" fill="#F29111"/>
<path d="M280.766 274.242C282.34 274.242 283.617 272.966 283.617 271.391C283.617 269.816 282.34 268.539 280.766 268.539C279.191 268.539 277.914 269.816 277.914 271.391C277.914 272.966 279.191 274.242 280.766 274.242Z" fill="#F29111"/>
<path d="M295.102 267.055C296.676 267.055 297.953 265.778 297.953 264.203C297.953 262.628 296.676 261.352 295.102 261.352C293.527 261.352 292.25 262.628 292.25 264.203C292.25 265.778 293.527 267.055 295.102 267.055Z" fill="#F29111"/>
<path d="M295.102 274.242C296.676 274.242 297.953 272.966 297.953 271.391C297.953 269.816 296.676 268.539 295.102 268.539C293.527 268.539 292.25 269.816 292.25 271.391C292.25 272.966 293.527 274.242 295.102 274.242Z" fill="#F29111"/>
<path d="M316.586 267.055C318.161 267.055 319.437 265.778 319.437 264.203C319.437 262.628 318.161 261.352 316.586 261.352C315.011 261.352 313.734 262.628 313.734 264.203C313.734 265.778 315.011 267.055 316.586 267.055Z" fill="#F29111"/>
<path d="M316.586 274.242C318.161 274.242 319.437 272.966 319.437 271.391C319.437 269.816 318.161 268.539 316.586 268.539C315.011 268.539 313.734 269.816 313.734 271.391C313.734 272.966 315.011 274.242 316.586 274.242Z" fill="#F29111"/>
<path d="M302.289 267.055C303.864 267.055 305.141 265.778 305.141 264.203C305.141 262.628 303.864 261.352 302.289 261.352C300.714 261.352 299.438 262.628 299.438 264.203C299.438 265.778 300.714 267.055 302.289 267.055Z" fill="#F29111"/>
<path d="M302.289 274.242C303.864 274.242 305.141 272.966 305.141 271.391C305.141 269.816 303.864 268.539 302.289 268.539C300.714 268.539 299.438 269.816 299.438 271.391C299.438 272.966 300.714 274.242 302.289 274.242Z" fill="#F29111"/>
<path d="M323.773 267.055C325.348 267.055 326.625 265.778 326.625 264.203C326.625 262.628 325.348 261.352 323.773 261.352C322.199 261.352 320.922 262.628 320.922 264.203C320.922 265.778 322.199 267.055 323.773 267.055Z" fill="#F29111"/>
<path d="M323.773 274.242C325.348 274.242 326.625 272.966 326.625 271.391C326.625 269.816 325.348 268.539 323.773 268.539C322.199 268.539 320.922 269.816 320.922 271.391C320.922 272.966 322.199 274.242 323.773 274.242Z" fill="#F29111"/>
<path d="M287.953 267.055C289.528 267.055 290.805 265.778 290.805 264.203C290.805 262.628 289.528 261.352 287.953 261.352C286.378 261.352 285.102 262.628 285.102 264.203C285.102 265.778 286.378 267.055 287.953 267.055Z" fill="#F29111"/>
<path d="M287.953 274.242C289.528 274.242 290.805 272.966 290.805 271.391C290.805 269.816 289.528 268.539 287.953 268.539C286.378 268.539 285.102 269.816 285.102 271.391C285.102 272.966 286.378 274.242 287.953 274.242Z" fill="#F29111"/>
<path d="M309.438 267.055C311.012 267.055 312.289 265.778 312.289 264.203C312.289 262.628 311.012 261.352 309.438 261.352C307.863 261.352 306.586 262.628 306.586 264.203C306.586 265.778 307.863 267.055 309.438 267.055Z" fill="#F29111"/>
<path d="M309.438 274.242C311.012 274.242 312.289 272.966 312.289 271.391C312.289 269.816 311.012 268.539 309.438 268.539C307.863 268.539 306.586 269.816 306.586 271.391C306.586 272.966 307.863 274.242 309.438 274.242Z" fill="#F29111"/>
<path d="M330.922 267.055C332.497 267.055 333.773 265.778 333.773 264.203C333.773 262.628 332.497 261.352 330.922 261.352C329.347 261.352 328.07 262.628 328.07 264.203C328.07 265.778 329.347 267.055 330.922 267.055Z" fill="#F29111"/>
<path d="M330.922 274.242C332.497 274.242 333.773 272.966 333.773 271.391C333.773 269.816 332.497 268.539 330.922 268.539C329.347 268.539 328.07 269.816 328.07 271.391C328.07 272.966 329.347 274.242 330.922 274.242Z" fill="#F29111"/>
</g>
<mask id="mask1_2014_124" style="mask-type:luminance" maskUnits="userSpaceOnUse" x="167" y="228" width="71" height="42">
<path d="M237.289 269.047C237.289 269.047 221.586 254.086 202.172 254.086C182.758 254.086 167.055 271.82 167.055 269.047C167.055 246.43 182.758 228.07 202.172 228.07C221.586 228.07 237.289 246.391 237.289 269.047Z" fill="white"/>
</mask>
<g mask="url(#mask1_2014_124)">
<path d="M173.539 231.234C175.114 231.234 176.391 229.958 176.391 228.383C176.391 226.808 175.114 225.531 173.539 225.531C171.964 225.531 170.688 226.808 170.688 228.383C170.688 229.958 171.964 231.234 173.539 231.234Z" fill="#F29111"/>
<path d="M173.539 238.422C175.114 238.422 176.391 237.145 176.391 235.57C176.391 233.995 175.114 232.719 173.539 232.719C171.964 232.719 170.688 233.995 170.688 235.57C170.688 237.145 171.964 238.422 173.539 238.422Z" fill="#F29111"/>
<path d="M173.539 245.57C175.114 245.57 176.391 244.294 176.391 242.719C176.391 241.144 175.114 239.867 173.539 239.867C171.964 239.867 170.688 241.144 170.688 242.719C170.688 244.294 171.964 245.57 173.539 245.57Z" fill="#F29111"/>
<path d="M173.539 252.758C175.114 252.758 176.391 251.481 176.391 249.906C176.391 248.331 175.114 247.055 173.539 247.055C171.964 247.055 170.688 248.331 170.688 249.906C170.688 251.481 171.964 252.758 173.539 252.758Z" fill="#F29111"/>
<path d="M173.539 259.906C175.114 259.906 176.391 258.63 176.391 257.055C176.391 255.48 175.114 254.203 173.539 254.203C171.964 254.203 170.688 255.48 170.688 257.055C170.688 258.63 171.964 259.906 173.539 259.906Z" fill="#F29111"/>
<path d="M180.727 231.234C182.301 231.234 183.578 229.958 183.578 228.383C183.578 226.808 182.301 225.531 180.727 225.531C179.152 225.531 177.875 226.808 177.875 228.383C177.875 229.958 179.152 231.234 180.727 231.234Z" fill="#F29111"/>
<path d="M180.727 238.422C182.301 238.422 183.578 237.145 183.578 235.57C183.578 233.995 182.301 232.719 180.727 232.719C179.152 232.719 177.875 233.995 177.875 235.57C177.875 237.145 179.152 238.422 180.727 238.422Z" fill="#F29111"/>
<path d="M180.727 245.57C182.301 245.57 183.578 244.294 183.578 242.719C183.578 241.144 182.301 239.867 180.727 239.867C179.152 239.867 177.875 241.144 177.875 242.719C177.875 244.294 179.152 245.57 180.727 245.57Z" fill="#F29111"/>
<path d="M180.727 252.758C182.301 252.758 183.578 251.481 183.578 249.906C183.578 248.331 182.301 247.055 180.727 247.055C179.152 247.055 177.875 248.331 177.875 249.906C177.875 251.481 179.152 252.758 180.727 252.758Z" fill="#F29111"/>
<path d="M180.727 259.906C182.301 259.906 183.578 258.63 183.578 257.055C183.578 255.48 182.301 254.203 180.727 254.203C179.152 254.203 177.875 255.48 177.875 257.055C177.875 258.63 179.152 259.906 180.727 259.906Z" fill="#F29111"/>
<path d="M166.391 231.234C167.965 231.234 169.242 229.958 169.242 228.383C169.242 226.808 167.965 225.531 166.391 225.531C164.816 225.531 163.539 226.808 163.539 228.383C163.539 229.958 164.816 231.234 166.391 231.234Z" fill="#F29111"/>
<path d="M166.391 238.422C167.965 238.422 169.242 237.145 169.242 235.57C169.242 233.995 167.965 232.719 166.391 232.719C164.816 232.719 163.539 233.995 163.539 235.57C163.539 237.145 164.816 238.422 166.391 238.422Z" fill="#F29111"/>
<path d="M166.391 245.57C167.965 245.57 169.242 244.294 169.242 242.719C169.242 241.144 167.965 239.867 166.391 239.867C164.816 239.867 163.539 241.144 163.539 242.719C163.539 244.294 164.816 245.57 166.391 245.57Z" fill="#F29111"/>
<path d="M166.391 252.758C167.965 252.758 169.242 251.481 169.242 249.906C169.242 248.331 167.965 247.055 166.391 247.055C164.816 247.055 163.539 248.331 163.539 249.906C163.539 251.481 164.816 252.758 166.391 252.758Z" fill="#F29111"/>
<path d="M166.391 259.906C167.965 259.906 169.242 258.63 169.242 257.055C169.242 255.48 167.965 254.203 166.391 254.203C164.816 254.203 163.539 255.48 163.539 257.055C163.539 258.63 164.816 259.906 166.391 259.906Z" fill="#F29111"/>
<path d="M187.875 231.234C189.45 231.234 190.727 229.958 190.727 228.383C190.727 226.808 189.45 225.531 187.875 225.531C186.3 225.531 185.023 226.808 185.023 228.383C185.023 229.958 186.3 231.234 187.875 231.234Z" fill="#F29111"/>
<path d="M187.875 238.422C189.45 238.422 190.727 237.145 190.727 235.57C190.727 233.995 189.45 232.719 187.875 232.719C186.3 232.719 185.023 233.995 185.023 235.57C185.023 237.145 186.3 238.422 187.875 238.422Z" fill="#F29111"/>
<path d="M187.875 245.57C189.45 245.57 190.727 244.294 190.727 242.719C190.727 241.144 189.45 239.867 187.875 239.867C186.3 239.867 185.023 241.144 185.023 242.719C185.023 244.294 186.3 245.57 187.875 245.57Z" fill="#F29111"/>
<path d="M187.875 252.758C189.45 252.758 190.727 251.481 190.727 249.906C190.727 248.331 189.45 247.055 187.875 247.055C186.3 247.055 185.023 248.331 185.023 249.906C185.023 251.481 186.3 252.758 187.875 252.758Z" fill="#F29111"/>
<path d="M187.875 259.906C189.45 259.906 190.727 258.63 190.727 257.055C190.727 255.48 189.45 254.203 187.875 254.203C186.3 254.203 185.023 255.48 185.023 257.055C185.023 258.63 186.3 259.906 187.875 259.906Z" fill="#F29111"/>
<path d="M202.211 231.234C203.786 231.234 205.063 229.958 205.063 228.383C205.063 226.808 203.786 225.531 202.211 225.531C200.636 225.531 199.359 226.808 199.359 228.383C199.359 229.958 200.636 231.234 202.211 231.234Z" fill="#F29111"/>
<path d="M202.211 238.422C203.786 238.422 205.063 237.145 205.063 235.57C205.063 233.995 203.786 232.719 202.211 232.719C200.636 232.719 199.359 233.995 199.359 235.57C199.359 237.145 200.636 238.422 202.211 238.422Z" fill="#F29111"/>
<path d="M202.211 245.57C203.786 245.57 205.063 244.294 205.063 242.719C205.063 241.144 203.786 239.867 202.211 239.867C200.636 239.867 199.359 241.144 199.359 242.719C199.359 244.294 200.636 245.57 202.211 245.57Z" fill="#F29111"/>
<path d="M202.211 252.758C203.786 252.758 205.063 251.481 205.063 249.906C205.063 248.331 203.786 247.055 202.211 247.055C200.636 247.055 199.359 248.331 199.359 249.906C199.359 251.481 200.636 252.758 202.211 252.758Z" fill="#F29111"/>
<path d="M202.211 259.906C203.786 259.906 205.063 258.63 205.063 257.055C205.063 255.48 203.786 254.203 202.211 254.203C200.636 254.203 199.359 255.48 199.359 257.055C199.359 258.63 200.636 259.906 202.211 259.906Z" fill="#F29111"/>
<path d="M223.695 231.234C225.27 231.234 226.547 229.958 226.547 228.383C226.547 226.808 225.27 225.531 223.695 225.531C222.12 225.531 220.844 226.808 220.844 228.383C220.844 229.958 222.12 231.234 223.695 231.234Z" fill="#F29111"/>
<path d="M223.695 238.422C225.27 238.422 226.547 237.145 226.547 235.57C226.547 233.995 225.27 232.719 223.695 232.719C222.12 232.719 220.844 233.995 220.844 235.57C220.844 237.145 222.12 238.422 223.695 238.422Z" fill="#F29111"/>
<path d="M223.695 245.57C225.27 245.57 226.547 244.294 226.547 242.719C226.547 241.144 225.27 239.867 223.695 239.867C222.12 239.867 220.844 241.144 220.844 242.719C220.844 244.294 222.12 245.57 223.695 245.57Z" fill="#F29111"/>
<path d="M223.695 252.758C225.27 252.758 226.547 251.481 226.547 249.906C226.547 248.331 225.27 247.055 223.695 247.055C222.12 247.055 220.844 248.331 220.844 249.906C220.844 251.481 222.12 252.758 223.695 252.758Z" fill="#F29111"/>
<path d="M223.695 259.906C225.27 259.906 226.547 258.63 226.547 257.055C226.547 255.48 225.27 254.203 223.695 254.203C222.12 254.203 220.844 255.48 220.844 257.055C220.844 258.63 222.12 259.906 223.695 259.906Z" fill="#F29111"/>
<path d="M209.398 231.234C210.973 231.234 212.25 229.958 212.25 228.383C212.25 226.808 210.973 225.531 209.398 225.531C207.824 225.531 206.547 226.808 206.547 228.383C206.547 229.958 207.824 231.234 209.398 231.234Z" fill="#F29111"/>
<path d="M209.398 238.422C210.973 238.422 212.25 237.145 212.25 235.57C212.25 233.995 210.973 232.719 209.398 232.719C207.824 232.719 206.547 233.995 206.547 235.57C206.547 237.145 207.824 238.422 209.398 238.422Z" fill="#F29111"/>
<path d="M209.398 245.57C210.973 245.57 212.25 244.294 212.25 242.719C212.25 241.144 210.973 239.867 209.398 239.867C207.824 239.867 206.547 241.144 206.547 242.719C206.547 244.294 207.824 245.57 209.398 245.57Z" fill="#F29111"/>
<path d="M209.398 252.758C210.973 252.758 212.25 251.481 212.25 249.906C212.25 248.331 210.973 247.055 209.398 247.055C207.824 247.055 206.547 248.331 206.547 249.906C206.547 251.481 207.824 252.758 209.398 252.758Z" fill="#F29111"/>
<path d="M209.398 259.906C210.973 259.906 212.25 258.63 212.25 257.055C212.25 255.48 210.973 254.203 209.398 254.203C207.824 254.203 206.547 255.48 206.547 257.055C206.547 258.63 207.824 259.906 209.398 259.906Z" fill="#F29111"/>
<path d="M230.883 231.234C232.458 231.234 233.734 229.958 233.734 228.383C233.734 226.808 232.458 225.531 230.883 225.531C229.308 225.531 228.031 226.808 228.031 228.383C228.031 229.958 229.308 231.234 230.883 231.234Z" fill="#F29111"/>
<path d="M230.883 238.422C232.458 238.422 233.734 237.145 233.734 235.57C233.734 233.995 232.458 232.719 230.883 232.719C229.308 232.719 228.031 233.995 228.031 235.57C228.031 237.145 229.308 238.422 230.883 238.422Z" fill="#F29111"/>
<path d="M230.883 245.57C232.458 245.57 233.734 244.294 233.734 242.719C233.734 241.144 232.458 239.867 230.883 239.867C229.308 239.867 228.031 241.144 228.031 242.719C228.031 244.294 229.308 245.57 230.883 245.57Z" fill="#F29111"/>
<path d="M230.883 252.758C232.458 252.758 233.734 251.481 233.734 249.906C233.734 248.331 232.458 247.055 230.883 247.055C229.308 247.055 228.031 248.331 228.031 249.906C228.031 251.481 229.308 252.758 230.883 252.758Z" fill="#F29111"/>
<path d="M230.883 259.906C232.458 259.906 233.734 258.63 233.734 257.055C233.734 255.48 232.458 254.203 230.883 254.203C229.308 254.203 228.031 255.48 228.031 257.055C228.031 258.63 229.308 259.906 230.883 259.906Z" fill="#F29111"/>
<path d="M195.062 231.234C196.637 231.234 197.914 229.958 197.914 228.383C197.914 226.808 196.637 225.531 195.062 225.531C193.488 225.531 192.211 226.808 192.211 228.383C192.211 229.958 193.488 231.234 195.062 231.234Z" fill="#F29111"/>
<path d="M195.062 238.422C196.637 238.422 197.914 237.145 197.914 235.57C197.914 233.995 196.637 232.719 195.062 232.719C193.488 232.719 192.211 233.995 192.211 235.57C192.211 237.145 193.488 238.422 195.062 238.422Z" fill="#F29111"/>
<path d="M195.062 245.57C196.637 245.57 197.914 244.294 197.914 242.719C197.914 241.144 196.637 239.867 195.062 239.867C193.488 239.867 192.211 241.144 192.211 242.719C192.211 244.294 193.488 245.57 195.062 245.57Z" fill="#F29111"/>
<path d="M195.062 252.758C196.637 252.758 197.914 251.481 197.914 249.906C197.914 248.331 196.637 247.055 195.062 247.055C193.488 247.055 192.211 248.331 192.211 249.906C192.211 251.481 193.488 252.758 195.062 252.758Z" fill="#F29111"/>
<path d="M195.062 259.906C196.637 259.906 197.914 258.63 197.914 257.055C197.914 255.48 196.637 254.203 195.062 254.203C193.488 254.203 192.211 255.48 192.211 257.055C192.211 258.63 193.488 259.906 195.062 259.906Z" fill="#F29111"/>
<path d="M216.547 231.234C218.122 231.234 219.398 229.958 219.398 228.383C219.398 226.808 218.122 225.531 216.547 225.531C214.972 225.531 213.695 226.808 213.695 228.383C213.695 229.958 214.972 231.234 216.547 231.234Z" fill="#F29111"/>
<path d="M216.547 238.422C218.122 238.422 219.398 237.145 219.398 235.57C219.398 233.995 218.122 232.719 216.547 232.719C214.972 232.719 213.695 233.995 213.695 235.57C213.695 237.145 214.972 238.422 216.547 238.422Z" fill="#F29111"/>
<path d="M216.547 245.57C218.122 245.57 219.398 244.294 219.398 242.719C219.398 241.144 218.122 239.867 216.547 239.867C214.972 239.867 213.695 241.144 213.695 242.719C213.695 244.294 214.972 245.57 216.547 245.57Z" fill="#F29111"/>
<path d="M216.547 252.758C218.122 252.758 219.398 251.481 219.398 249.906C219.398 248.331 218.122 247.055 216.547 247.055C214.972 247.055 213.695 248.331 213.695 249.906C213.695 251.481 214.972 252.758 216.547 252.758Z" fill="#F29111"/>
<path d="M216.547 259.906C218.122 259.906 219.398 258.63 219.398 257.055C219.398 255.48 218.122 254.203 216.547 254.203C214.972 254.203 213.695 255.48 213.695 257.055C213.695 258.63 214.972 259.906 216.547 259.906Z" fill="#F29111"/>
<path d="M238.031 231.234C239.606 231.234 240.883 229.958 240.883 228.383C240.883 226.808 239.606 225.531 238.031 225.531C236.456 225.531 235.18 226.808 235.18 228.383C235.18 229.958 236.456 231.234 238.031 231.234Z" fill="#F29111"/>
<path d="M238.031 238.422C239.606 238.422 240.883 237.145 240.883 235.57C240.883 233.995 239.606 232.719 238.031 232.719C236.456 232.719 235.18 233.995 235.18 235.57C235.18 237.145 236.456 238.422 238.031 238.422Z" fill="#F29111"/>
<path d="M238.031 245.57C239.606 245.57 240.883 244.294 240.883 242.719C240.883 241.144 239.606 239.867 238.031 239.867C236.456 239.867 235.18 241.144 235.18 242.719C235.18 244.294 236.456 245.57 238.031 245.57Z" fill="#F29111"/>
<path d="M238.031 252.758C239.606 252.758 240.883 251.481 240.883 249.906C240.883 248.331 239.606 247.055 238.031 247.055C236.456 247.055 235.18 248.331 235.18 249.906C235.18 251.481 236.456 252.758 238.031 252.758Z" fill="#F29111"/>
<path d="M238.031 259.906C239.606 259.906 240.883 258.63 240.883 257.055C240.883 255.48 239.606 254.203 238.031 254.203C236.456 254.203 235.18 255.48 235.18 257.055C235.18 258.63 236.456 259.906 238.031 259.906Z" fill="#F29111"/>
<path d="M173.539 267.055C175.114 267.055 176.391 265.778 176.391 264.203C176.391 262.628 175.114 261.352 173.539 261.352C171.964 261.352 170.688 262.628 170.688 264.203C170.688 265.778 171.964 267.055 173.539 267.055Z" fill="#F29111"/>
<path d="M173.539 274.242C175.114 274.242 176.391 272.966 176.391 271.391C176.391 269.816 175.114 268.539 173.539 268.539C171.964 268.539 170.688 269.816 170.688 271.391C170.688 272.966 171.964 274.242 173.539 274.242Z" fill="#F29111"/>
<path d="M180.727 267.055C182.301 267.055 183.578 265.778 183.578 264.203C183.578 262.628 182.301 261.352 180.727 261.352C179.152 261.352 177.875 262.628 177.875 264.203C177.875 265.778 179.152 267.055 180.727 267.055Z" fill="#F29111"/>
<path d="M180.727 274.242C182.301 274.242 183.578 272.966 183.578 271.391C183.578 269.816 182.301 268.539 180.727 268.539C179.152 268.539 177.875 269.816 177.875 271.391C177.875 272.966 179.152 274.242 180.727 274.242Z" fill="#F29111"/>
<path d="M166.391 267.055C167.965 267.055 169.242 265.778 169.242 264.203C169.242 262.628 167.965 261.352 166.391 261.352C164.816 261.352 163.539 262.628 163.539 264.203C163.539 265.778 164.816 267.055 166.391 267.055Z" fill="#F29111"/>
<path d="M166.391 274.242C167.965 274.242 169.242 272.966 169.242 271.391C169.242 269.816 167.965 268.539 166.391 268.539C164.816 268.539 163.539 269.816 163.539 271.391C163.539 272.966 164.816 274.242 166.391 274.242Z" fill="#F29111"/>
<path d="M187.875 267.055C189.45 267.055 190.727 265.778 190.727 264.203C190.727 262.628 189.45 261.352 187.875 261.352C186.3 261.352 185.023 262.628 185.023 264.203C185.023 265.778 186.3 267.055 187.875 267.055Z" fill="#F29111"/>
<path d="M187.875 274.242C189.45 274.242 190.727 272.966 190.727 271.391C190.727 269.816 189.45 268.539 187.875 268.539C186.3 268.539 185.023 269.816 185.023 271.391C185.023 272.966 186.3 274.242 187.875 274.242Z" fill="#F29111"/>
<path d="M202.211 267.055C203.786 267.055 205.063 265.778 205.063 264.203C205.063 262.628 203.786 261.352 202.211 261.352C200.636 261.352 199.359 262.628 199.359 264.203C199.359 265.778 200.636 267.055 202.211 267.055Z" fill="#F29111"/>
<path d="M202.211 274.242C203.786 274.242 205.063 272.966 205.063 271.391C205.063 269.816 203.786 268.539 202.211 268.539C200.636 268.539 199.359 269.816 199.359 271.391C199.359 272.966 200.636 274.242 202.211 274.242Z" fill="#F29111"/>
<path d="M223.695 267.055C225.27 267.055 226.547 265.778 226.547 264.203C226.547 262.628 225.27 261.352 223.695 261.352C222.12 261.352 220.844 262.628 220.844 264.203C220.844 265.778 222.12 267.055 223.695 267.055Z" fill="#F29111"/>
<path d="M223.695 274.242C225.27 274.242 226.547 272.966 226.547 271.391C226.547 269.816 225.27 268.539 223.695 268.539C222.12 268.539 220.844 269.816 220.844 271.391C220.844 272.966 222.12 274.242 223.695 274.242Z" fill="#F29111"/>
<path d="M209.398 267.055C210.973 267.055 212.25 265.778 212.25 264.203C212.25 262.628 210.973 261.352 209.398 261.352C207.824 261.352 206.547 262.628 206.547 264.203C206.547 265.778 207.824 267.055 209.398 267.055Z" fill="#F29111"/>
<path d="M209.398 274.242C210.973 274.242 212.25 272.966 212.25 271.391C212.25 269.816 210.973 268.539 209.398 268.539C207.824 268.539 206.547 269.816 206.547 271.391C206.547 272.966 207.824 274.242 209.398 274.242Z" fill="#F29111"/>
<path d="M230.883 267.055C232.458 267.055 233.734 265.778 233.734 264.203C233.734 262.628 232.458 261.352 230.883 261.352C229.308 261.352 228.031 262.628 228.031 264.203C228.031 265.778 229.308 267.055 230.883 267.055Z" fill="#F29111"/>
<path d="M230.883 274.242C232.458 274.242 233.734 272.966 233.734 271.391C233.734 269.816 232.458 268.539 230.883 268.539C229.308 268.539 228.031 269.816 228.031 271.391C228.031 272.966 229.308 274.242 230.883 274.242Z" fill="#F29111"/>
<path d="M195.062 267.055C196.637 267.055 197.914 265.778 197.914 264.203C197.914 262.628 196.637 261.352 195.062 261.352C193.488 261.352 192.211 262.628 192.211 264.203C192.211 265.778 193.488 267.055 195.062 267.055Z" fill="#F29111"/>
<path d="M195.062 274.242C196.637 274.242 197.914 272.966 197.914 271.391C197.914 269.816 196.637 268.539 195.062 268.539C193.488 268.539 192.211 269.816 192.211 271.391C192.211 272.966 193.488 274.242 195.062 274.242Z" fill="#F29111"/>
<path d="M216.547 267.055C218.122 267.055 219.398 265.778 219.398 264.203C219.398 262.628 218.122 261.352 216.547 261.352C214.972 261.352 213.695 262.628 213.695 264.203C213.695 265.778 214.972 267.055 216.547 267.055Z" fill="#F29111"/>
<path d="M216.547 274.242C218.122 274.242 219.398 272.966 219.398 271.391C219.398 269.816 218.122 268.539 216.547 268.539C214.972 268.539 213.695 269.816 213.695 271.391C213.695 272.966 214.972 274.242 216.547 274.242Z" fill="#F29111"/>
<path d="M238.031 267.055C239.606 267.055 240.883 265.778 240.883 264.203C240.883 262.628 239.606 261.352 238.031 261.352C236.456 261.352 235.18 262.628 235.18 264.203C235.18 265.778 236.456 267.055 238.031 267.055Z" fill="#F29111"/>
<path d="M238.031 274.242C239.606 274.242 240.883 272.966 240.883 271.391C240.883 269.816 239.606 268.539 238.031 268.539C236.456 268.539 235.18 269.816 235.18 271.391C235.18 272.966 236.456 274.242 238.031 274.242Z" fill="#F29111"/>
</g>
</g>
<defs>
<clipPath id="clip0_2014_124">
<rect width="500" height="500" fill="white"/>
</clipPath>
</defs>
</svg>
