<svg width="500" height="500" viewBox="0 0 500 500" fill="none" xmlns="http://www.w3.org/2000/svg">
<mask id="mask0_2035_10880" style="mask-type:alpha" maskUnits="userSpaceOnUse" x="308" y="309" width="118" height="83">
<rect x="308" y="309" width="118" height="83" fill="url(#paint0_linear_2035_10880)"/>
</mask>
<g mask="url(#mask0_2035_10880)">
<path d="M420 333.092C337.898 412 348.389 336.5 348.389 310H308.056C305.265 461.832 406.879 359.231 420 333.092Z" fill="#A4AFBF" fill-opacity="0.7"/>
</g>
<path d="M130.292 124.318C127.194 145.751 129.016 178.857 130.542 194.473L166.105 167.404C162.888 139.249 154.024 120.125 147.965 111.014C146.3 108.49 142.889 108.105 140.419 109.849L139.017 110.844C134.443 114.08 131.096 118.782 130.292 124.318Z" fill="url(#paint1_linear_2035_10880)"/>
<path d="M159.121 135.09C141.905 118.141 131.648 134.779 128.728 144.996C129.624 124.804 128.187 120.363 137.555 111.944C145.724 104.589 148.59 111.71 149.675 113.337C150.693 114.827 156.543 126.624 159.121 135.09Z" fill="#FF9100"/>
<path d="M318.536 312.171C318.752 312.387 318.968 312.603 319.184 312.841C321.322 305.951 324.626 300.206 328.687 296.318C332.725 300.184 336.03 305.886 338.168 312.754C338.362 312.56 338.535 312.365 338.73 312.171C343.243 316.469 346.289 324.503 346.289 333.725C346.289 342.948 343.243 350.96 338.73 355.28C338.038 354.632 337.412 353.876 336.786 353.077C334.712 358.217 331.948 362.537 328.687 365.647C325.404 362.515 322.618 358.152 320.544 352.969C319.918 353.811 319.248 354.61 318.536 355.28C314.022 350.982 310.977 342.948 310.977 333.725C310.977 324.503 314.022 316.491 318.536 312.171Z" fill="#E13017"/>
<path d="M320.868 316.538C321.041 316.69 321.192 316.862 321.365 317.035C323.006 311.744 325.555 307.316 328.665 304.357C331.775 307.316 334.302 311.701 335.943 316.97C336.094 316.819 336.224 316.668 336.375 316.538C339.831 319.843 342.163 326.02 342.163 333.082C342.163 340.145 339.831 346.322 336.375 349.626C335.857 349.129 335.36 348.546 334.885 347.92C333.287 351.872 331.17 355.198 328.665 357.574C326.16 355.177 324.021 351.829 322.423 347.833C321.948 348.481 321.43 349.086 320.89 349.604C317.434 346.3 315.102 340.123 315.102 333.061C315.102 325.998 317.434 319.821 320.89 316.517L320.868 316.538Z" fill="#F2B00A"/>
<path d="M322.878 313.379C323.007 313.487 323.115 313.617 323.245 313.747C324.455 309.816 326.355 306.555 328.644 304.352C330.934 306.555 332.813 309.794 334.044 313.703C334.152 313.595 334.26 313.487 334.368 313.379C336.938 315.82 338.666 320.399 338.666 325.625C338.666 330.852 336.938 335.431 334.368 337.871C333.979 337.504 333.612 337.072 333.266 336.618C332.078 339.556 330.502 341.996 328.666 343.767C326.809 341.996 325.21 339.512 324.044 336.554C323.677 337.029 323.31 337.482 322.899 337.871C320.329 335.431 318.602 330.852 318.602 325.625C318.602 320.399 320.329 315.82 322.899 313.379L322.878 313.379Z" fill="#FEDC7A"/>
<path d="M328.627 125.004C328.627 125.004 295 147.425 295 202.494L295 290.866L362.255 290.866L362.255 202.494C362.255 147.425 328.627 125.004 328.627 125.004Z" fill="#43719F"/>
<path d="M295 202.494L295 290.866L330.722 290.866C331.522 236.823 328.627 125.004 328.627 125.004C328.627 125.004 295 147.425 295 202.494Z" fill="#2C4D6D"/>
<path d="M328.627 125.004C328.627 125.004 295 147.425 295 202.494L295 290.866L305.95 290.866L305.95 202.494C305.95 147.425 328.627 125.004 328.627 125.004Z" fill="#002447"/>
<path d="M328.617 125C328.617 125 362.245 147.422 362.245 202.49C362.245 257.558 362.245 290.862 362.245 290.862L351.295 290.862C351.295 290.862 351.295 257.558 351.295 202.49C351.295 147.422 328.617 125 328.617 125Z" fill="#AED2E4"/>
<path d="M345.46 326.854L311.811 326.854L295.008 290.869L362.263 290.869L345.46 326.854Z" fill="#2C4D6D"/>
<path d="M295.008 290.869L311.811 326.854L322.653 326.854L305.85 290.869L295.008 290.869Z" fill="#002447"/>
<path d="M362.207 290.867L345.404 326.852L334.563 326.852L351.365 290.867L362.207 290.867Z" fill="#43719F"/>
<mask id="mask1_2035_10880" style="mask-type:alpha" maskUnits="userSpaceOnUse" x="237" y="286" width="208" height="160">
<rect x="237" y="286" width="208" height="160" fill="url(#paint2_linear_2035_10880)"/>
</mask>
<g mask="url(#mask1_2035_10880)">
<path d="M437.602 345.5C262.102 506.5 280 366.5 277.102 286H237.102C232.102 559 414.102 392.5 437.602 345.5Z" fill="#A4AFBF" fill-opacity="0.7"/>
</g>
<path d="M248.536 312.171C248.752 312.387 248.968 312.603 249.184 312.841C251.322 305.951 254.626 300.206 258.687 296.318C262.725 300.184 266.03 305.886 268.168 312.754C268.362 312.56 268.535 312.365 268.73 312.171C273.243 316.469 276.289 324.503 276.289 333.725C276.289 342.948 273.243 350.96 268.73 355.28C268.038 354.632 267.412 353.876 266.786 353.077C264.712 358.217 261.948 362.537 258.687 365.647C255.404 362.515 252.618 358.152 250.544 352.969C249.918 353.811 249.248 354.61 248.536 355.28C244.022 350.982 240.977 342.948 240.977 333.725C240.977 324.503 244.022 316.491 248.536 312.171Z" fill="#E13017"/>
<path d="M250.868 316.538C251.041 316.69 251.192 316.862 251.365 317.035C253.006 311.744 255.555 307.316 258.665 304.357C261.775 307.316 264.302 311.701 265.943 316.97C266.094 316.819 266.224 316.668 266.375 316.538C269.831 319.843 272.163 326.02 272.163 333.082C272.163 340.145 269.831 346.322 266.375 349.626C265.857 349.129 265.36 348.546 264.885 347.92C263.287 351.872 261.17 355.198 258.665 357.574C256.16 355.177 254.021 351.829 252.423 347.833C251.948 348.481 251.43 349.086 250.89 349.604C247.434 346.3 245.102 340.123 245.102 333.061C245.102 325.998 247.434 319.821 250.89 316.517L250.868 316.538Z" fill="#F2B00A"/>
<path d="M252.878 313.379C253.007 313.487 253.115 313.617 253.245 313.747C254.455 309.816 256.355 306.555 258.644 304.352C260.934 306.555 262.813 309.794 264.044 313.703C264.152 313.595 264.26 313.487 264.368 313.379C266.938 315.82 268.666 320.399 268.666 325.625C268.666 330.852 266.938 335.431 264.368 337.871C263.979 337.504 263.612 337.072 263.266 336.618C262.078 339.556 260.502 341.996 258.666 343.767C256.809 341.996 255.21 339.512 254.044 336.554C253.677 337.029 253.31 337.482 252.899 337.871C250.329 335.431 248.602 330.852 248.602 325.625C248.602 320.399 250.329 315.82 252.899 313.379L252.878 313.379Z" fill="#FEDC7A"/>
<path d="M258.627 125.004C258.627 125.004 225 147.425 225 202.494L225 290.866L292.255 290.866L292.255 202.494C292.255 147.425 258.627 125.004 258.627 125.004Z" fill="#43719F"/>
<path d="M225 202.494L225 290.866L260.722 290.866C261.522 236.823 258.627 125.004 258.627 125.004C258.627 125.004 225 147.425 225 202.494Z" fill="#2C4D6D"/>
<path d="M258.627 125.004C258.627 125.004 225 147.425 225 202.494L225 290.866L235.95 290.866L235.95 202.494C235.95 147.425 258.627 125.004 258.627 125.004Z" fill="#002447"/>
<path d="M258.617 125C258.617 125 292.245 147.422 292.245 202.49C292.245 257.558 292.245 290.862 292.245 290.862L281.295 290.862C281.295 290.862 281.295 257.558 281.295 202.49C281.295 147.422 258.617 125 258.617 125Z" fill="#AED2E4"/>
<path d="M275.46 326.854L241.811 326.854L225.008 290.869L292.263 290.869L275.46 326.854Z" fill="#41608C"/>
<path d="M225.008 290.869L241.811 326.854L252.653 326.854L235.85 290.869L225.008 290.869Z" fill="#334F77"/>
<path d="M292.207 290.867L275.404 326.852L264.563 326.852L281.365 290.867L292.207 290.867Z" fill="#82A2D1"/>
<path fill-rule="evenodd" clip-rule="evenodd" d="M299.455 195.024C323.99 170.756 361.432 126.355 370.621 101.001C371.471 98.6387 370.487 96.1184 368.463 94.6808L367.855 94.2561C362.079 90.2356 354.482 89.9201 348.445 93.5793C324.339 108.143 291.754 129.248 257.935 163.058C244.008 157.231 228.331 154.1 211.8 154.477C155.495 155.705 110.739 196.807 111.818 246.291C112.897 295.776 159.428 334.907 215.741 333.707C272.047 332.479 316.802 291.377 315.723 241.893C315.349 224.577 309.412 208.535 299.455 195.024Z" fill="white"/>
<g filter="url(#filter0_d_2035_10880)">
<path d="M293.823 314.677L295.959 329.249C296.217 331.021 295.663 332.794 294.493 334.129L285.303 344.279C283.468 346.322 280.48 346.839 278.053 345.54L228.424 319.138C225.7 317.686 224.522 314.402 225.711 311.574L226.659 309.328C228.192 305.655 231.936 303.44 235.909 303.869L288.564 309.6C291.255 309.893 293.409 311.983 293.823 314.677Z" fill="white"/>
<path d="M235.912 303.866L268.993 307.499L247.832 329.459L228.427 319.135C225.703 317.683 224.525 314.399 225.714 311.571L226.638 309.342C228.195 305.652 231.963 303.419 235.912 303.866Z" fill="#F29111"/>
</g>
<path d="M370.481 100.949C365.875 111.68 357.27 129.174 338.698 151.814C338.698 151.814 345.13 124.477 338.584 119.085C332.01 113.701 303.871 123.252 303.871 123.252C314.936 115.399 335.368 99.4684 350.526 92.4681C355.643 90.107 361.457 90.8073 366.604 93.1713L367.663 93.661C370.415 94.9342 371.68 98.1529 370.481 100.949Z" fill="#FF9100"/>
<path d="M370.773 100.619C361.538 127.532 323.685 172.476 299.613 195.012L292.696 186.502L369.369 99.8816C370.009 99.1534 371.091 99.7297 370.773 100.619Z" fill="#E9E6E6"/>
<path d="M254.631 248.147C255.333 280.069 229.582 312.49 189.597 313.366C149.613 314.243 116.502 283.086 115.801 251.164C115.1 219.242 143.95 192.734 183.934 191.857C223.947 190.973 253.922 216.196 254.631 248.147Z" fill="#35373A"/>
<mask id="mask2_2035_10880" style="mask-type:luminance" maskUnits="userSpaceOnUse" x="176" y="237" width="38" height="24">
<path d="M195.04 260.427C205.169 260.395 213.375 250.035 213.343 237.307L176.603 237.387C176.642 250.143 184.885 260.467 195.04 260.427Z" fill="white"/>
</mask>
<g mask="url(#mask2_2035_10880)">
<path d="M179.882 236.926C179.879 235.9 179.222 235.069 178.414 235.071C177.606 235.073 176.953 235.907 176.956 236.933C176.959 237.959 177.616 238.789 178.424 238.787C179.232 238.785 179.885 237.952 179.882 236.926Z" fill="#F29111"/>
<path d="M179.906 241.543C179.903 240.517 179.245 239.687 178.437 239.689C177.629 239.691 176.976 240.524 176.979 241.55C176.982 242.576 177.639 243.407 178.448 243.405C179.256 243.403 179.908 242.569 179.906 241.543Z" fill="#F29111"/>
<path d="M179.898 246.158C179.895 245.132 179.238 244.302 178.43 244.304C177.621 244.306 176.969 245.139 176.971 246.165C176.974 247.192 177.632 248.022 178.44 248.02C179.248 248.018 179.901 247.184 179.898 246.158Z" fill="#F29111"/>
<path d="M179.921 250.805C179.918 249.779 179.261 248.948 178.453 248.95C177.645 248.952 176.992 249.786 176.995 250.812C176.998 251.838 177.655 252.668 178.463 252.666C179.271 252.664 179.924 251.831 179.921 250.805Z" fill="#F29111"/>
<path d="M190.89 236.914C190.887 235.888 190.23 235.058 189.422 235.06C188.614 235.062 187.961 235.895 187.964 236.921C187.966 237.947 188.624 238.778 189.432 238.776C190.24 238.774 190.893 237.94 190.89 236.914Z" fill="#F29111"/>
<path d="M190.913 241.529C190.911 240.503 190.253 239.673 189.445 239.675C188.637 239.677 187.984 240.51 187.987 241.536C187.99 242.563 188.647 243.393 189.455 243.391C190.263 243.389 190.916 242.555 190.913 241.529Z" fill="#F29111"/>
<path d="M190.906 246.146C190.903 245.12 190.245 244.29 189.437 244.292C188.629 244.294 187.976 245.128 187.979 246.154C187.982 247.18 188.639 248.01 189.448 248.008C190.256 248.006 190.908 247.173 190.906 246.146Z" fill="#F29111"/>
<path d="M190.937 250.764C190.934 249.737 190.277 248.907 189.469 248.909C188.66 248.911 188.008 249.745 188.011 250.771C188.013 251.797 188.671 252.627 189.479 252.625C190.287 252.623 190.94 251.79 190.937 250.764Z" fill="#F29111"/>
<path d="M201.921 236.875C201.918 235.849 201.261 235.019 200.453 235.021C199.645 235.023 198.992 235.856 198.995 236.882C198.998 237.908 199.655 238.739 200.463 238.737C201.271 238.735 201.924 237.901 201.921 236.875Z" fill="#F29111"/>
<path d="M201.921 241.49C201.918 240.464 201.261 239.634 200.453 239.636C199.645 239.638 198.992 240.471 198.995 241.497C198.998 242.524 199.655 243.354 200.463 243.352C201.271 243.35 201.924 242.516 201.921 241.49Z" fill="#F29111"/>
<path d="M201.945 246.107C201.942 245.081 201.285 244.251 200.476 244.253C199.668 244.255 199.016 245.088 199.018 246.115C199.021 247.141 199.679 247.971 200.487 247.969C201.295 247.967 201.948 247.134 201.945 246.107Z" fill="#F29111"/>
<path d="M201.945 250.723C201.942 249.696 201.285 248.866 200.476 248.868C199.668 248.87 199.016 249.704 199.018 250.73C199.021 251.756 199.679 252.586 200.487 252.584C201.295 252.582 201.948 251.749 201.945 250.723Z" fill="#F29111"/>
<path d="M212.929 236.861C212.926 235.835 212.269 235.005 211.461 235.007C210.653 235.009 210 235.842 210.003 236.868C210.006 237.895 210.663 238.725 211.471 238.723C212.279 238.721 212.932 237.887 212.929 236.861Z" fill="#F29111"/>
<path d="M212.953 241.478C212.95 240.452 212.292 239.622 211.484 239.624C210.676 239.626 210.023 240.46 210.026 241.486C210.029 242.512 210.686 243.342 211.494 243.34C212.303 243.338 212.955 242.505 212.953 241.478Z" fill="#F29111"/>
<path d="M212.953 246.094C212.95 245.068 212.292 244.237 211.484 244.239C210.676 244.241 210.023 245.075 210.026 246.101C210.029 247.127 210.686 247.957 211.494 247.955C212.303 247.953 212.955 247.12 212.953 246.094Z" fill="#F29111"/>
<path d="M212.976 250.711C212.973 249.685 212.316 248.854 211.508 248.856C210.7 248.858 210.047 249.692 210.05 250.718C210.052 251.744 210.71 252.575 211.518 252.573C212.326 252.571 212.979 251.737 212.976 250.711Z" fill="#F29111"/>
<path d="M183.538 236.922C183.536 235.896 182.878 235.065 182.07 235.067C181.262 235.069 180.609 235.903 180.612 236.929C180.615 237.955 181.272 238.785 182.08 238.783C182.888 238.782 183.541 237.948 183.538 236.922Z" fill="#F29111"/>
<path d="M183.562 241.537C183.559 240.511 182.902 239.681 182.094 239.683C181.285 239.685 180.633 240.518 180.636 241.544C180.638 242.57 181.296 243.401 182.104 243.399C182.912 243.397 183.565 242.563 183.562 241.537Z" fill="#F29111"/>
<path d="M183.585 246.154C183.583 245.128 182.925 244.298 182.117 244.3C181.309 244.302 180.656 245.135 180.659 246.162C180.662 247.188 181.319 248.018 182.127 248.016C182.935 248.014 183.588 247.18 183.585 246.154Z" fill="#F29111"/>
<path d="M183.585 250.77C183.583 249.743 182.925 248.913 182.117 248.915C181.309 248.917 180.656 249.751 180.659 250.777C180.662 251.803 181.319 252.633 182.127 252.631C182.935 252.629 183.588 251.796 183.585 250.77Z" fill="#F29111"/>
<path d="M194.578 236.91C194.575 235.884 193.917 235.054 193.109 235.056C192.301 235.058 191.648 235.891 191.651 236.917C191.654 237.944 192.311 238.774 193.119 238.772C193.928 238.77 194.58 237.936 194.578 236.91Z" fill="#F29111"/>
<path d="M194.57 241.525C194.567 240.499 193.91 239.669 193.101 239.671C192.293 239.673 191.641 240.506 191.643 241.533C191.646 242.559 192.304 243.389 193.112 243.387C193.92 243.385 194.573 242.552 194.57 241.525Z" fill="#F29111"/>
<path d="M194.601 246.143C194.598 245.116 193.941 244.286 193.133 244.288C192.325 244.29 191.672 245.124 191.675 246.15C191.677 247.176 192.335 248.006 193.143 248.004C193.951 248.002 194.604 247.169 194.601 246.143Z" fill="#F29111"/>
<path d="M194.593 250.758C194.59 249.732 193.933 248.901 193.125 248.903C192.317 248.905 191.664 249.739 191.667 250.765C191.67 251.791 192.327 252.621 193.135 252.619C193.943 252.617 194.596 251.784 194.593 250.758Z" fill="#F29111"/>
<path d="M205.585 236.869C205.583 235.843 204.925 235.013 204.117 235.015C203.309 235.017 202.656 235.85 202.659 236.876C202.662 237.903 203.319 238.733 204.127 238.731C204.935 238.729 205.588 237.895 205.585 236.869Z" fill="#F29111"/>
<path d="M205.609 241.486C205.606 240.46 204.949 239.63 204.14 239.632C203.332 239.634 202.68 240.467 202.682 241.494C202.685 242.52 203.343 243.35 204.151 243.348C204.959 243.346 205.612 242.512 205.609 241.486Z" fill="#F29111"/>
<path d="M205.601 246.102C205.598 245.075 204.941 244.245 204.133 244.247C203.325 244.249 202.672 245.083 202.675 246.109C202.677 247.135 203.335 247.965 204.143 247.963C204.951 247.961 205.604 247.128 205.601 246.102Z" fill="#F29111"/>
<path d="M205.632 250.719C205.629 249.693 204.972 248.862 204.164 248.864C203.356 248.866 202.703 249.7 202.706 250.726C202.709 251.752 203.366 252.582 204.174 252.58C204.982 252.578 205.635 251.745 205.632 250.719Z" fill="#F29111"/>
<path d="M187.226 236.92C187.223 235.894 186.566 235.063 185.758 235.065C184.95 235.067 184.297 235.901 184.3 236.927C184.302 237.953 184.96 238.784 185.768 238.782C186.576 238.78 187.229 237.946 187.226 236.92Z" fill="#F29111"/>
<path d="M187.226 241.535C187.223 240.509 186.566 239.679 185.758 239.681C184.95 239.683 184.297 240.516 184.3 241.542C184.302 242.569 184.96 243.399 185.768 243.397C186.576 243.395 187.229 242.561 187.226 241.535Z" fill="#F29111"/>
<path d="M187.249 246.15C187.247 245.124 186.589 244.294 185.781 244.296C184.973 244.298 184.32 245.131 184.323 246.158C184.326 247.184 184.983 248.014 185.791 248.012C186.599 248.01 187.252 247.177 187.249 246.15Z" fill="#F29111"/>
<path d="M187.273 250.768C187.27 249.741 186.613 248.911 185.805 248.913C184.996 248.915 184.344 249.749 184.346 250.775C184.349 251.801 185.007 252.631 185.815 252.629C186.623 252.627 187.276 251.794 187.273 250.768Z" fill="#F29111"/>
<path d="M198.234 236.906C198.231 235.88 197.574 235.05 196.765 235.052C195.957 235.054 195.305 235.887 195.307 236.913C195.31 237.94 195.968 238.77 196.776 238.768C197.584 238.766 198.237 237.932 198.234 236.906Z" fill="#F29111"/>
<path d="M198.257 241.521C198.254 240.495 197.597 239.665 196.789 239.667C195.981 239.669 195.328 240.503 195.331 241.529C195.334 242.555 195.991 243.385 196.799 243.383C197.607 243.381 198.26 242.548 198.257 241.521Z" fill="#F29111"/>
<path d="M198.257 246.139C198.254 245.112 197.597 244.282 196.789 244.284C195.981 244.286 195.328 245.12 195.331 246.146C195.334 247.172 195.991 248.002 196.799 248C197.607 247.998 198.26 247.165 198.257 246.139Z" fill="#F29111"/>
<path d="M198.281 250.754C198.278 249.728 197.62 248.897 196.812 248.899C196.004 248.901 195.351 249.735 195.354 250.761C195.357 251.787 196.014 252.618 196.823 252.616C197.631 252.614 198.283 251.78 198.281 250.754Z" fill="#F29111"/>
<path d="M209.273 236.865C209.27 235.839 208.613 235.009 207.805 235.011C206.996 235.013 206.344 235.846 206.346 236.872C206.349 237.899 207.007 238.729 207.815 238.727C208.623 238.725 209.276 237.891 209.273 236.865Z" fill="#F29111"/>
<path d="M209.265 241.48C209.262 240.454 208.605 239.624 207.797 239.626C206.989 239.628 206.336 240.462 206.339 241.488C206.341 242.514 206.999 243.344 207.807 243.342C208.615 243.34 209.268 242.507 209.265 241.48Z" fill="#F29111"/>
<path d="M209.288 246.098C209.286 245.071 208.628 244.241 207.82 244.243C207.012 244.245 206.359 245.079 206.362 246.105C206.365 247.131 207.022 247.961 207.83 247.959C208.639 247.957 209.291 247.124 209.288 246.098Z" fill="#F29111"/>
<path d="M209.288 250.715C209.286 249.689 208.628 248.858 207.82 248.86C207.012 248.862 206.359 249.696 206.362 250.722C206.365 251.748 207.022 252.578 207.83 252.576C208.638 252.574 209.291 251.741 209.288 250.715Z" fill="#F29111"/>
<path d="M179.921 255.42C179.918 254.394 179.261 253.563 178.453 253.565C177.645 253.567 176.992 254.401 176.995 255.427C176.998 256.453 177.655 257.284 178.463 257.282C179.271 257.28 179.924 256.446 179.921 255.42Z" fill="#F29111"/>
<path d="M179.945 260.037C179.942 259.011 179.285 258.181 178.476 258.183C177.668 258.185 177.016 259.018 177.018 260.044C177.021 261.07 177.679 261.901 178.487 261.899C179.295 261.897 179.948 261.063 179.945 260.037Z" fill="#F29111"/>
<path d="M190.96 255.379C190.958 254.353 190.3 253.522 189.492 253.524C188.684 253.526 188.031 254.36 188.034 255.386C188.037 256.412 188.694 257.243 189.502 257.241C190.31 257.239 190.963 256.405 190.96 255.379Z" fill="#F29111"/>
<path d="M190.953 259.996C190.95 258.97 190.292 258.14 189.484 258.142C188.676 258.144 188.023 258.977 188.026 260.003C188.029 261.029 188.686 261.86 189.494 261.858C190.303 261.856 190.955 261.022 190.953 259.996Z" fill="#F29111"/>
<path d="M201.968 255.367C201.965 254.341 201.308 253.511 200.5 253.513C199.692 253.515 199.039 254.348 199.042 255.374C199.045 256.401 199.702 257.231 200.51 257.229C201.318 257.227 201.971 256.393 201.968 255.367Z" fill="#F29111"/>
<path d="M201.992 259.984C201.989 258.958 201.331 258.128 200.523 258.13C199.715 258.132 199.062 258.965 199.065 259.992C199.068 261.018 199.725 261.848 200.534 261.846C201.342 261.844 201.994 261.011 201.992 259.984Z" fill="#F29111"/>
<path d="M212.976 255.326C212.973 254.3 212.316 253.47 211.508 253.472C210.7 253.474 210.047 254.307 210.05 255.333C210.052 256.36 210.71 257.19 211.518 257.188C212.326 257.186 212.979 256.352 212.976 255.326Z" fill="#F29111"/>
<path d="M212.999 259.943C212.997 258.917 212.339 258.087 211.531 258.089C210.723 258.091 210.07 258.924 210.073 259.951C210.076 260.977 210.733 261.807 211.541 261.805C212.349 261.803 213.002 260.969 212.999 259.943Z" fill="#F29111"/>
<path d="M183.609 255.387C183.606 254.361 182.949 253.53 182.14 253.532C181.332 253.534 180.68 254.368 180.682 255.394C180.685 256.42 181.343 257.25 182.151 257.248C182.959 257.246 183.612 256.413 183.609 255.387Z" fill="#F29111"/>
<path d="M183.609 260.031C183.606 259.005 182.949 258.175 182.14 258.177C181.332 258.179 180.68 259.012 180.682 260.038C180.685 261.065 181.343 261.895 182.151 261.893C182.959 261.891 183.612 261.057 183.609 260.031Z" fill="#F29111"/>
<path d="M194.617 255.375C194.614 254.349 193.956 253.519 193.148 253.521C192.34 253.523 191.687 254.356 191.69 255.382C191.693 256.408 192.35 257.239 193.158 257.237C193.967 257.235 194.619 256.401 194.617 255.375Z" fill="#F29111"/>
<path d="M194.648 259.992C194.645 258.966 193.988 258.136 193.18 258.138C192.371 258.14 191.719 258.973 191.721 259.999C191.724 261.026 192.382 261.856 193.19 261.854C193.998 261.852 194.651 261.018 194.648 259.992Z" fill="#F29111"/>
<path d="M205.624 255.336C205.622 254.31 204.964 253.479 204.156 253.481C203.348 253.483 202.695 254.317 202.698 255.343C202.701 256.369 203.358 257.2 204.166 257.198C204.974 257.196 205.627 256.362 205.624 255.336Z" fill="#F29111"/>
<path d="M205.648 259.951C205.645 258.925 204.988 258.095 204.18 258.097C203.371 258.099 202.719 258.932 202.721 259.958C202.724 260.985 203.382 261.815 204.19 261.813C204.998 261.811 205.651 260.977 205.648 259.951Z" fill="#F29111"/>
<path d="M187.273 255.385C187.27 254.359 186.613 253.528 185.805 253.53C184.996 253.532 184.344 254.366 184.346 255.392C184.349 256.418 185.007 257.248 185.815 257.246C186.623 257.244 187.276 256.411 187.273 255.385Z" fill="#F29111"/>
<path d="M187.296 260C187.293 258.974 186.636 258.144 185.828 258.146C185.02 258.148 184.367 258.981 184.37 260.007C184.373 261.033 185.03 261.864 185.838 261.862C186.646 261.86 187.299 261.026 187.296 260Z" fill="#F29111"/>
<path d="M198.304 255.371C198.301 254.345 197.644 253.515 196.836 253.517C196.028 253.519 195.375 254.352 195.378 255.378C195.381 256.404 196.038 257.235 196.846 257.233C197.654 257.231 198.307 256.397 198.304 255.371Z" fill="#F29111"/>
<path d="M198.304 259.988C198.301 258.962 197.644 258.132 196.836 258.134C196.028 258.136 195.375 258.969 195.378 259.995C195.381 261.022 196.038 261.852 196.846 261.85C197.654 261.848 198.307 261.014 198.304 259.988Z" fill="#F29111"/>
<path d="M209.312 255.33C209.309 254.304 208.652 253.474 207.844 253.476C207.035 253.478 206.383 254.311 206.386 255.337C206.388 256.363 207.046 257.194 207.854 257.192C208.662 257.19 209.315 256.356 209.312 255.33Z" fill="#F29111"/>
<path d="M209.312 259.947C209.309 258.921 208.652 258.091 207.844 258.093C207.036 258.095 206.383 258.928 206.386 259.954C206.388 260.981 207.046 261.811 207.854 261.809C208.662 261.807 209.315 260.973 209.312 259.947Z" fill="#F29111"/>
</g>
<mask id="mask3_2035_10880" style="mask-type:luminance" maskUnits="userSpaceOnUse" x="128" y="237" width="32" height="24">
<path d="M144.352 260.515C152.883 260.502 159.752 250.151 159.713 237.396L128.883 237.466C128.895 250.229 135.82 260.528 144.352 260.515Z" fill="white"/>
</mask>
<g mask="url(#mask3_2035_10880)">
<path d="M131.62 237.007C131.617 235.981 131.06 235.15 130.376 235.152C129.693 235.154 129.141 235.987 129.143 237.013C129.146 238.039 129.703 238.87 130.387 238.868C131.07 238.866 131.622 238.033 131.62 237.007Z" fill="#F29111"/>
<path d="M131.643 241.651C131.64 240.625 131.084 239.795 130.4 239.797C129.716 239.798 129.164 240.631 129.167 241.658C129.17 242.684 129.726 243.514 130.41 243.513C131.094 243.511 131.646 242.678 131.643 241.651Z" fill="#F29111"/>
<path d="M131.635 246.269C131.632 245.243 131.076 244.412 130.392 244.414C129.708 244.415 129.156 245.249 129.159 246.275C129.162 247.301 129.718 248.131 130.402 248.13C131.086 248.128 131.638 247.295 131.635 246.269Z" fill="#F29111"/>
<path d="M131.659 250.886C131.656 249.86 131.099 249.029 130.415 249.031C129.732 249.033 129.18 249.866 129.182 250.892C129.185 251.918 129.742 252.749 130.426 252.747C131.109 252.745 131.661 251.912 131.659 250.886Z" fill="#F29111"/>
<path d="M140.862 237.007C140.859 235.981 140.302 235.15 139.619 235.152C138.935 235.154 138.383 235.987 138.386 237.013C138.388 238.039 138.945 238.87 139.629 238.868C140.312 238.866 140.865 238.033 140.862 237.007Z" fill="#F29111"/>
<path d="M140.885 241.624C140.882 240.598 140.326 239.767 139.642 239.769C138.958 239.771 138.406 240.604 138.409 241.63C138.412 242.656 138.968 243.487 139.652 243.485C140.336 243.484 140.888 242.65 140.885 241.624Z" fill="#F29111"/>
<path d="M140.885 246.239C140.882 245.213 140.326 244.383 139.642 244.384C138.958 244.386 138.406 245.219 138.409 246.245C138.412 247.272 138.968 248.102 139.652 248.1C140.336 248.099 140.888 247.266 140.885 246.239Z" fill="#F29111"/>
<path d="M140.909 250.857C140.906 249.83 140.349 249 139.665 249.002C138.982 249.003 138.43 249.836 138.432 250.863C138.435 251.889 138.992 252.719 139.676 252.718C140.359 252.716 140.911 251.883 140.909 250.857Z" fill="#F29111"/>
<path d="M150.127 236.98C150.124 235.953 149.568 235.123 148.884 235.125C148.2 235.126 147.648 235.96 147.651 236.986C147.654 238.012 148.211 238.842 148.894 238.841C149.578 238.839 150.13 238.006 150.127 236.98Z" fill="#F29111"/>
<path d="M150.127 241.597C150.124 240.571 149.568 239.74 148.884 239.742C148.2 239.743 147.648 240.577 147.651 241.603C147.654 242.629 148.211 243.46 148.894 243.458C149.578 243.456 150.13 242.623 150.127 241.597Z" fill="#F29111"/>
<path d="M150.151 246.212C150.148 245.186 149.591 244.355 148.908 244.357C148.224 244.359 147.672 245.192 147.675 246.218C147.677 247.244 148.234 248.075 148.918 248.073C149.602 248.071 150.154 247.238 150.151 246.212Z" fill="#F29111"/>
<path d="M150.151 250.829C150.148 249.803 149.591 248.973 148.908 248.974C148.224 248.976 147.672 249.809 147.675 250.835C147.677 251.861 148.234 252.692 148.918 252.69C149.602 252.689 150.154 251.855 150.151 250.829Z" fill="#F29111"/>
<path d="M159.37 236.95C159.367 235.924 158.81 235.094 158.126 235.095C157.443 235.097 156.891 235.93 156.893 236.956C156.896 237.983 157.453 238.813 158.137 238.811C158.82 238.81 159.372 237.976 159.37 236.95Z" fill="#F29111"/>
<path d="M159.37 241.567C159.367 240.541 158.81 239.711 158.126 239.713C157.443 239.714 156.891 240.547 156.893 241.574C156.896 242.6 157.453 243.43 158.137 243.429C158.82 243.427 159.372 242.594 159.37 241.567Z" fill="#F29111"/>
<path d="M159.393 246.183C159.39 245.157 158.834 244.326 158.15 244.328C157.466 244.329 156.914 245.163 156.917 246.189C156.92 247.215 157.476 248.046 158.16 248.044C158.844 248.042 159.396 247.209 159.393 246.183Z" fill="#F29111"/>
<path d="M159.416 250.8C159.414 249.774 158.857 248.943 158.173 248.945C157.489 248.947 156.937 249.78 156.94 250.806C156.943 251.832 157.5 252.663 158.183 252.661C158.867 252.659 159.419 251.826 159.416 250.8Z" fill="#F29111"/>
<path d="M134.698 237.025C134.695 235.998 134.138 235.168 133.454 235.17C132.771 235.171 132.219 236.004 132.221 237.031C132.224 238.057 132.781 238.887 133.465 238.886C134.148 238.884 134.7 238.051 134.698 237.025Z" fill="#F29111"/>
<path d="M134.721 241.642C134.718 240.616 134.162 239.785 133.478 239.787C132.794 239.788 132.242 240.622 132.245 241.648C132.248 242.674 132.804 243.504 133.488 243.503C134.172 243.501 134.724 242.668 134.721 241.642Z" fill="#F29111"/>
<path d="M134.721 246.257C134.718 245.231 134.162 244.4 133.478 244.402C132.794 244.404 132.242 245.237 132.245 246.263C132.248 247.289 132.804 248.12 133.488 248.118C134.172 248.116 134.724 247.283 134.721 246.257Z" fill="#F29111"/>
<path d="M134.745 250.874C134.742 249.848 134.185 249.017 133.501 249.019C132.818 249.021 132.266 249.854 132.268 250.88C132.271 251.906 132.828 252.737 133.512 252.735C134.195 252.734 134.747 251.9 134.745 250.874Z" fill="#F29111"/>
<path d="M143.94 236.997C143.937 235.971 143.38 235.141 142.697 235.142C142.013 235.144 141.461 235.977 141.464 237.003C141.466 238.029 142.023 238.86 142.707 238.858C143.391 238.857 143.943 238.023 143.94 236.997Z" fill="#F29111"/>
<path d="M143.963 241.614C143.96 240.588 143.404 239.758 142.72 239.759C142.036 239.761 141.484 240.594 141.487 241.62C141.49 242.647 142.046 243.477 142.73 243.475C143.414 243.474 143.966 242.641 143.963 241.614Z" fill="#F29111"/>
<path d="M143.987 246.23C143.984 245.203 143.427 244.373 142.744 244.375C142.06 244.376 141.508 245.21 141.511 246.236C141.513 247.262 142.07 248.092 142.754 248.091C143.437 248.089 143.99 247.256 143.987 246.23Z" fill="#F29111"/>
<path d="M143.987 250.847C143.984 249.821 143.427 248.99 142.743 248.992C142.06 248.994 141.508 249.827 141.511 250.853C141.513 251.879 142.07 252.71 142.754 252.708C143.437 252.706 143.99 251.873 143.987 250.847Z" fill="#F29111"/>
<path d="M153.213 236.97C153.21 235.944 152.654 235.113 151.97 235.115C151.286 235.117 150.734 235.95 150.737 236.976C150.74 238.002 151.297 238.833 151.98 238.831C152.664 238.829 153.216 237.996 153.213 236.97Z" fill="#F29111"/>
<path d="M153.205 241.587C153.203 240.561 152.646 239.73 151.962 239.732C151.278 239.734 150.726 240.567 150.729 241.593C150.732 242.619 151.289 243.45 151.972 243.448C152.656 243.446 153.208 242.613 153.205 241.587Z" fill="#F29111"/>
<path d="M153.237 246.202C153.234 245.176 152.677 244.346 151.994 244.347C151.31 244.349 150.758 245.182 150.761 246.208C150.763 247.235 151.32 248.065 152.004 248.063C152.687 248.062 153.24 247.228 153.237 246.202Z" fill="#F29111"/>
<path d="M153.229 250.819C153.226 249.793 152.669 248.963 151.986 248.964C151.302 248.966 150.75 249.799 150.753 250.826C150.756 251.852 151.312 252.682 151.996 252.681C152.68 252.679 153.232 251.846 153.229 250.819Z" fill="#F29111"/>
<path d="M137.776 237.017C137.773 235.991 137.216 235.16 136.533 235.162C135.849 235.163 135.297 235.997 135.3 237.023C135.302 238.049 135.859 238.879 136.543 238.878C137.227 238.876 137.779 238.043 137.776 237.017Z" fill="#F29111"/>
<path d="M137.807 241.634C137.804 240.608 137.248 239.777 136.564 239.779C135.88 239.781 135.328 240.614 135.331 241.64C135.334 242.666 135.89 243.497 136.574 243.495C137.258 243.493 137.81 242.66 137.807 241.634Z" fill="#F29111"/>
<path d="M137.799 246.249C137.796 245.223 137.24 244.392 136.556 244.394C135.872 244.396 135.32 245.229 135.323 246.255C135.326 247.281 135.882 248.112 136.566 248.11C137.25 248.109 137.802 247.275 137.799 246.249Z" fill="#F29111"/>
<path d="M137.823 250.866C137.82 249.84 137.263 249.01 136.579 249.011C135.896 249.013 135.344 249.846 135.346 250.872C135.349 251.899 135.906 252.729 136.59 252.727C137.273 252.726 137.825 251.892 137.823 250.866Z" fill="#F29111"/>
<path d="M147.049 236.989C147.046 235.963 146.49 235.133 145.806 235.134C145.122 235.136 144.57 235.969 144.573 236.995C144.576 238.022 145.132 238.852 145.816 238.85C146.5 238.849 147.052 238.016 147.049 236.989Z" fill="#F29111"/>
<path d="M147.049 241.605C147.046 240.578 146.49 239.748 145.806 239.75C145.122 239.751 144.57 240.585 144.573 241.611C144.576 242.637 145.132 243.467 145.816 243.466C146.5 243.464 147.052 242.631 147.049 241.605Z" fill="#F29111"/>
<path d="M147.073 246.222C147.07 245.196 146.513 244.365 145.829 244.367C145.146 244.368 144.594 245.202 144.596 246.228C144.599 247.254 145.156 248.085 145.84 248.083C146.523 248.081 147.075 247.248 147.073 246.222Z" fill="#F29111"/>
<path d="M147.065 250.837C147.062 249.811 146.505 248.98 145.822 248.982C145.138 248.984 144.586 249.817 144.589 250.843C144.591 251.869 145.148 252.7 145.832 252.698C146.516 252.696 147.068 251.863 147.065 250.837Z" fill="#F29111"/>
<path d="M156.291 236.96C156.289 235.934 155.732 235.103 155.048 235.105C154.364 235.107 153.812 235.94 153.815 236.966C153.818 237.992 154.375 238.823 155.058 238.821C155.742 238.819 156.294 237.986 156.291 236.96Z" fill="#F29111"/>
<path d="M156.291 241.577C156.289 240.551 155.732 239.721 155.048 239.722C154.364 239.724 153.812 240.557 153.815 241.583C153.818 242.61 154.375 243.44 155.058 243.438C155.742 243.437 156.294 242.603 156.291 241.577Z" fill="#F29111"/>
<path d="M156.315 246.192C156.312 245.166 155.755 244.336 155.072 244.338C154.388 244.339 153.836 245.172 153.839 246.199C153.841 247.225 154.398 248.055 155.082 248.054C155.766 248.052 156.318 247.219 156.315 246.192Z" fill="#F29111"/>
<path d="M156.315 250.81C156.312 249.784 155.755 248.953 155.072 248.955C154.388 248.956 153.836 249.79 153.839 250.816C153.841 251.842 154.398 252.672 155.082 252.671C155.766 252.669 156.318 251.836 156.315 250.81Z" fill="#F29111"/>
<path d="M131.659 255.501C131.656 254.475 131.099 253.644 130.415 253.646C129.732 253.648 129.18 254.481 129.182 255.507C129.185 256.533 129.742 257.364 130.426 257.362C131.109 257.36 131.661 256.527 131.659 255.501Z" fill="#F29111"/>
<path d="M131.682 260.118C131.679 259.092 131.123 258.262 130.439 258.263C129.755 258.265 129.203 259.098 129.206 260.124C129.209 261.151 129.765 261.981 130.449 261.979C131.133 261.978 131.685 261.144 131.682 260.118Z" fill="#F29111"/>
<path d="M140.932 255.472C140.929 254.446 140.373 253.615 139.689 253.617C139.005 253.618 138.453 254.452 138.456 255.478C138.459 256.504 139.015 257.335 139.699 257.333C140.383 257.331 140.935 256.498 140.932 255.472Z" fill="#F29111"/>
<path d="M140.932 260.089C140.929 259.063 140.373 258.232 139.689 258.234C139.005 258.236 138.453 259.069 138.456 260.095C138.459 261.121 139.015 261.952 139.699 261.95C140.383 261.948 140.935 261.115 140.932 260.089Z" fill="#F29111"/>
<path d="M150.174 255.444C150.171 254.418 149.615 253.588 148.931 253.589C148.247 253.591 147.695 254.424 147.698 255.451C147.701 256.477 148.257 257.307 148.941 257.306C149.625 257.304 150.177 256.471 150.174 255.444Z" fill="#F29111"/>
<path d="M150.174 260.062C150.171 259.035 149.615 258.205 148.931 258.207C148.247 258.208 147.695 259.042 147.698 260.068C147.701 261.094 148.257 261.924 148.941 261.923C149.625 261.921 150.177 261.088 150.174 260.062Z" fill="#F29111"/>
<path d="M159.416 255.415C159.414 254.389 158.857 253.558 158.173 253.56C157.489 253.562 156.937 254.395 156.94 255.421C156.943 256.447 157.5 257.278 158.183 257.276C158.867 257.275 159.419 256.441 159.416 255.415Z" fill="#F29111"/>
<path d="M159.44 260.032C159.437 259.006 158.88 258.176 158.197 258.177C157.513 258.179 156.961 259.012 156.964 260.038C156.966 261.065 157.523 261.895 158.207 261.893C158.891 261.892 159.443 261.059 159.44 260.032Z" fill="#F29111"/>
<path d="M134.737 255.491C134.734 254.465 134.177 253.635 133.494 253.636C132.81 253.638 132.258 254.471 132.261 255.497C132.263 256.524 132.82 257.354 133.504 257.352C134.187 257.351 134.74 256.517 134.737 255.491Z" fill="#F29111"/>
<path d="M134.768 260.107C134.765 259.08 134.209 258.25 133.525 258.252C132.841 258.253 132.289 259.087 132.292 260.113C132.295 261.139 132.851 261.969 133.535 261.968C134.219 261.966 134.771 261.133 134.768 260.107Z" fill="#F29111"/>
<path d="M144.01 255.462C144.007 254.436 143.451 253.605 142.767 253.607C142.083 253.609 141.531 254.442 141.534 255.468C141.537 256.494 142.093 257.325 142.777 257.323C143.461 257.321 144.013 256.488 144.01 255.462Z" fill="#F29111"/>
<path d="M144.01 260.079C144.007 259.053 143.451 258.223 142.767 258.224C142.083 258.226 141.531 259.059 141.534 260.085C141.537 261.111 142.093 261.942 142.777 261.94C143.461 261.939 144.013 261.105 144.01 260.079Z" fill="#F29111"/>
<path d="M153.252 255.435C153.249 254.409 152.693 253.578 152.009 253.58C151.325 253.581 150.773 254.415 150.776 255.441C150.779 256.467 151.336 257.297 152.019 257.296C152.703 257.294 153.255 256.461 153.252 255.435Z" fill="#F29111"/>
<path d="M153.284 260.052C153.281 259.026 152.724 258.195 152.04 258.197C151.357 258.199 150.805 259.032 150.807 260.058C150.81 261.084 151.367 261.915 152.051 261.913C152.734 261.911 153.286 261.078 153.284 260.052Z" fill="#F29111"/>
<path d="M137.823 255.484C137.82 254.457 137.263 253.627 136.579 253.629C135.896 253.63 135.344 254.463 135.346 255.49C135.349 256.516 135.906 257.346 136.59 257.345C137.273 257.343 137.825 256.51 137.823 255.484Z" fill="#F29111"/>
<path d="M137.846 260.099C137.843 259.073 137.287 258.242 136.603 258.244C135.919 258.245 135.367 259.079 135.37 260.105C135.373 261.131 135.929 261.962 136.613 261.96C137.297 261.958 137.849 261.125 137.846 260.099Z" fill="#F29111"/>
<path d="M147.088 255.454C147.085 254.428 146.529 253.598 145.845 253.599C145.161 253.601 144.609 254.434 144.612 255.46C144.615 256.486 145.172 257.317 145.855 257.315C146.539 257.314 147.091 256.48 147.088 255.454Z" fill="#F29111"/>
<path d="M147.088 260.069C147.085 259.043 146.529 258.213 145.845 258.214C145.161 258.216 144.609 259.049 144.612 260.076C144.615 261.102 145.171 261.932 145.855 261.931C146.539 261.929 147.091 261.096 147.088 260.069Z" fill="#F29111"/>
<path d="M156.338 255.425C156.335 254.399 155.779 253.568 155.095 253.57C154.411 253.572 153.859 254.405 153.862 255.431C153.865 256.457 154.422 257.288 155.105 257.286C155.789 257.284 156.341 256.451 156.338 255.425Z" fill="#F29111"/>
<path d="M156.362 260.042C156.359 259.016 155.802 258.185 155.119 258.187C154.435 258.189 153.883 259.022 153.886 260.048C153.888 261.074 154.445 261.905 155.129 261.903C155.812 261.902 156.364 261.068 156.362 260.042Z" fill="#F29111"/>
</g>
<path fill-rule="evenodd" clip-rule="evenodd" d="M152.401 278.8C152.413 282.128 155.533 285.031 159.639 284.999C163.747 284.967 166.822 282.022 166.788 278.702L169.033 278.679C169.082 283.497 164.734 287.204 159.656 287.244C154.577 287.283 150.173 283.633 150.156 278.808L152.401 278.8Z" fill="#FF9100"/>
<path fill-rule="evenodd" clip-rule="evenodd" d="M169.026 278.659C169.038 281.987 172.158 284.89 176.264 284.859C180.372 284.827 183.447 281.881 183.413 278.561L185.658 278.538C185.707 283.357 181.359 287.064 176.281 287.103C171.202 287.143 166.798 283.493 166.781 278.667L169.026 278.659Z" fill="#FF9100"/>
<path d="M107.738 280.345L115.73 273.618C116.7 272.815 117.239 271.611 117.232 270.345L117.129 260.613C117.099 258.676 115.782 256.991 113.898 256.548L75.1614 247.186C73.0509 246.665 70.8873 247.863 70.1797 249.925L69.6079 251.592C68.6967 254.247 69.6432 257.195 71.9423 258.823L102.571 280.588C104.157 281.671 106.282 281.597 107.738 280.345Z" fill="white"/>
<path d="M71.9722 258.833L91.3405 272.555L90.4374 250.846L75.201 247.168C73.0904 246.647 70.9268 247.845 70.2193 249.907L69.6377 251.602C68.7266 254.258 69.6731 257.205 71.9722 258.833Z" fill="#F29111"/>
<path d="M303 229.594C303 228.207 303.718 226.92 304.897 226.191L323 215V283L304.897 271.809C303.718 271.08 303 269.793 303 268.406V229.594Z" fill="#FF9100"/>
<path d="M306 235.263C306 233.908 306.686 232.646 307.822 231.908L320 224V274L307.822 266.092C306.686 265.354 306 264.092 306 262.737V235.263Z" fill="white"/>
<rect x="307" y="322" width="42" height="6" rx="2" fill="white"/>
<path d="M134.073 273.983L134.07 273.984C120.341 276.776 107.5 266.284 107.5 252.274V237C107.5 226.23 116.23 217.5 127 217.5L236 217.5C248.979 217.5 259.5 228.021 259.5 241V252.676C259.5 266.858 247.033 277.809 232.969 275.98L180.354 269.136C171.724 268.013 162.969 268.298 154.43 269.978L134.073 273.983Z" fill="#8EC9E6" fill-opacity="0.48" stroke="#E9E6E6"/>
<circle cx="282.5" cy="247.5" r="13.5" fill="#35373A"/>
<path d="M285.616 243.378L287.29 244.472L268.132 283.635C266.474 287.026 263.047 289.194 259.272 289.241L208.076 289.869L206.478 287.778L257.727 287.15C261.474 287.104 264.881 284.966 266.553 281.612L285.616 243.378Z" fill="#727882"/>
<ellipse cx="205.5" cy="289" rx="6.5" ry="5" fill="white"/>
<circle cx="282.5" cy="247.5" r="10.5" fill="#727882"/>
<path d="M282.5 258C288.299 258 293 253.299 293 247.5C293 241.701 288.299 237 282.5 237V258Z" fill="#A9B5C9"/>
<path d="M345 282.552L339.24 282.552L339.24 281.392L343.448 277.856L339.24 277.856L339.24 276.792L345 276.792L345 277.952L340.784 281.496L345 281.496L345 282.552ZM345 275.88L340.352 275.88C340.149 275.88 339.965 275.829 339.8 275.728C339.629 275.626 339.493 275.493 339.392 275.328C339.291 275.157 339.24 274.97 339.24 274.768L339.24 271.24C339.24 271.037 339.291 270.85 339.392 270.68C339.493 270.509 339.629 270.373 339.8 270.272C339.965 270.17 340.149 270.12 340.352 270.12L345 270.12L345 271.184L343.064 271.184L343.064 274.824L345 274.824L345 275.88ZM342.008 274.824L342.008 271.184L340.4 271.184C340.373 271.184 340.352 271.194 340.336 271.216C340.315 271.237 340.304 271.261 340.304 271.288L340.304 274.728C340.304 274.754 340.315 274.778 340.336 274.8C340.352 274.816 340.373 274.824 340.4 274.824L342.008 274.824ZM345 267.144L340.304 267.144L340.304 269.496L339.24 269.496L339.24 263.736L340.304 263.736L340.304 266.08L345 266.08L345 267.144ZM345 263.25L339.24 263.25L339.24 262.202L345 262.202L345 263.25ZM345 258.259L339.24 261.595L339.24 260.363L343.72 257.787L339.24 255.203L339.24 253.979L345 257.315L345 258.259ZM345 253.388L339.24 253.388L339.24 248.084L340.304 248.084L340.304 252.324L341.584 252.324L341.584 248.916L342.656 248.916L342.656 252.324L343.936 252.324L343.936 248.084L345 248.084L345 253.388ZM345 244.945L339.24 244.945L339.24 243.897L345 243.897L345 244.945ZM345 243.122L339.24 243.122L339.24 241.962L341.728 239.874L339.24 237.794L339.24 236.626L345 236.626L345 237.69L340.776 237.69L343.376 239.874L340.784 242.066L345 242.066L345 243.122ZM345 235.684L340.352 235.684C340.149 235.684 339.965 235.634 339.8 235.532C339.629 235.431 339.493 235.298 339.392 235.132C339.291 234.962 339.24 234.775 339.24 234.572L339.24 231.044C339.24 230.842 339.291 230.655 339.392 230.484C339.493 230.314 339.629 230.178 339.8 230.076C339.965 229.975 340.149 229.924 340.352 229.924L345 229.924L345 230.988L343.064 230.988L343.064 234.628L345 234.628L345 235.684ZM342.008 234.628L342.008 230.988L340.4 230.988C340.373 230.988 340.352 230.999 340.336 231.02C340.315 231.042 340.304 231.066 340.304 231.092L340.304 234.532C340.304 234.559 340.315 234.583 340.336 234.604C340.352 234.62 340.373 234.628 340.4 234.628L342.008 234.628ZM345 227.901C345 228.104 344.949 228.29 344.848 228.461C344.747 228.626 344.613 228.76 344.448 228.861C344.277 228.962 344.091 229.013 343.888 229.013L340.352 229.013C340.149 229.013 339.965 228.962 339.8 228.861C339.629 228.76 339.493 228.626 339.392 228.461C339.291 228.29 339.24 228.104 339.24 227.901L339.24 224.373C339.24 224.17 339.291 223.984 339.392 223.813C339.493 223.642 339.629 223.506 339.8 223.405C339.965 223.304 340.149 223.253 340.352 223.253L340.8 223.253L340.8 224.317L340.4 224.317C340.373 224.317 340.352 224.328 340.336 224.349C340.315 224.37 340.304 224.394 340.304 224.421L340.304 227.861C340.304 227.888 340.315 227.912 340.336 227.933C340.352 227.949 340.373 227.957 340.4 227.957L343.84 227.957C343.867 227.957 343.891 227.949 343.912 227.933C343.928 227.912 343.936 227.888 343.936 227.861L343.936 224.421C343.936 224.394 343.928 224.37 343.912 224.349C343.891 224.328 343.867 224.317 343.84 224.317L342.8 224.317L342.8 225.621L341.736 225.621L341.736 223.253L343.888 223.253C344.091 223.253 344.277 223.304 344.448 223.405C344.613 223.506 344.747 223.642 344.848 223.813C344.949 223.984 345 224.17 345 224.373L345 227.901ZM345 222.356L339.24 222.356L339.24 217.052L340.304 217.052L340.304 221.292L341.584 221.292L341.584 217.884L342.656 217.884L342.656 221.292L343.936 221.292L343.936 217.052L345 217.052L345 222.356Z" fill="white"/>
<defs>
<filter id="filter0_d_2035_10880" x="223.25" y="303.809" width="74.7734" height="49.4414" filterUnits="userSpaceOnUse" color-interpolation-filters="sRGB">
<feFlood flood-opacity="0" result="BackgroundImageFix"/>
<feColorMatrix in="SourceAlpha" type="matrix" values="0 0 0 0 0 0 0 0 0 0 0 0 0 0 0 0 0 0 127 0" result="hardAlpha"/>
<feOffset dy="5"/>
<feGaussianBlur stdDeviation="1"/>
<feComposite in2="hardAlpha" operator="out"/>
<feColorMatrix type="matrix" values="0 0 0 0 0 0 0 0 0 0 0 0 0 0 0 0 0 0 0.1 0"/>
<feBlend mode="normal" in2="BackgroundImageFix" result="effect1_dropShadow_2035_10880"/>
<feBlend mode="normal" in="SourceGraphic" in2="effect1_dropShadow_2035_10880" result="shape"/>
</filter>
<linearGradient id="paint0_linear_2035_10880" x1="426" y1="309" x2="367" y2="360.5" gradientUnits="userSpaceOnUse">
<stop offset="0.239677" stop-color="white" stop-opacity="0"/>
<stop offset="1" stop-color="white"/>
</linearGradient>
<linearGradient id="paint1_linear_2035_10880" x1="146.11" y1="106.733" x2="148.001" y2="194.106" gradientUnits="userSpaceOnUse">
<stop stop-color="white"/>
<stop offset="1" stop-color="#F4F4F4"/>
</linearGradient>
<linearGradient id="paint2_linear_2035_10880" x1="324" y1="424.5" x2="445" y2="344.5" gradientUnits="userSpaceOnUse">
<stop stop-color="white"/>
<stop offset="0.904829" stop-color="white" stop-opacity="0"/>
</linearGradient>
</defs>
</svg>
