<svg width="500" height="500" viewBox="0 0 500 500" fill="none" xmlns="http://www.w3.org/2000/svg">
<path d="M299.484 438.308C365.24 438.308 418.546 428.355 418.546 416.079C418.546 403.802 365.24 393.85 299.484 393.85C233.728 393.85 180.422 403.802 180.422 416.079C180.422 428.355 233.728 438.308 299.484 438.308Z" fill="#A4AFBF" fill-opacity="0.7"/>
<g filter="url(#filter0_d_2831_14413)">
<path d="M240.197 121.65C231.884 142.083 225.611 175.304 223.297 191.139L265.106 173.051C268.821 144.397 264.71 123.325 260.934 112.82C259.899 109.896 256.61 108.678 253.748 109.835L252.103 110.475C246.805 112.545 242.329 116.382 240.197 121.65Z" fill="white"/>
</g>
<path d="M266.084 139.374C253.173 118.393 238.952 132.37 233.562 141.749C239.379 121.986 239.044 117.236 250.402 111.207C260.298 105.939 261.394 113.673 262.064 115.531C262.704 117.266 265.627 130.36 266.084 139.374Z" fill="#FF9100"/>
<g filter="url(#filter1_d_2831_14413)">
<g filter="url(#filter2_d_2831_14413)">
<path fill-rule="evenodd" clip-rule="evenodd" d="M390.346 232.979C420.584 214.952 468.482 180.177 483.799 157.339C485.23 155.208 484.865 152.467 483.19 150.549L482.703 150.001C477.983 144.611 470.523 142.449 463.641 144.58C436.235 153.106 398.781 165.987 357.063 191.2C344.7 182.035 329.932 175.122 313.489 171.438C257.49 158.862 203.105 188.582 192.082 237.82C181.059 287.059 217.538 337.15 273.568 349.696C329.597 362.242 383.982 332.522 395.005 283.283C398.872 266.078 396.923 248.752 390.346 232.979Z" fill="white"/>
</g>
</g>
<path d="M483.712 157.248C476.525 166.718 463.705 181.943 439.802 199.818C439.802 199.818 452.865 174.331 447.688 167.418C442.512 160.476 412.305 163.064 412.305 163.064C425.185 157.979 449.302 147.23 466.02 144.002C471.653 142.906 477.256 145.007 481.763 148.63L482.707 149.392C485.082 151.28 485.569 154.781 483.712 157.248Z" fill="#FF9100"/>
<path d="M484.046 157.004C468.333 181.365 419.856 216.596 390.532 233.009L385.781 222.899L482.858 155.908C483.65 155.36 484.563 156.182 484.046 157.004Z" fill="#E9E6E6"/>
<path d="M333.005 274.542C325.88 306.302 292.476 332.094 252.677 323.172C212.878 314.25 187.725 275.334 194.82 243.574C201.946 211.814 236.995 192.63 276.794 201.552C316.593 210.505 340.131 242.782 333.005 274.542Z" fill="#35373A"/>
<path fill-rule="evenodd" clip-rule="evenodd" d="M237.033 281.425C236.1 281.385 234.983 281.875 233.965 283.18C232.948 284.484 232.17 286.459 232.059 288.792L232.059 288.799L232.059 288.806C231.92 291.138 232.48 293.165 233.366 294.571C234.261 295.993 235.312 296.583 236.223 296.622C237.157 296.662 238.273 296.172 239.292 294.867C240.309 293.562 241.086 291.588 241.197 289.255C241.309 286.917 240.749 284.883 239.887 283.469C238.992 282.052 237.943 281.463 237.033 281.425ZM232.044 281.682C233.401 279.942 235.208 278.909 237.137 278.991C239.088 279.074 240.777 280.311 241.953 282.178L241.957 282.185L241.961 282.191C243.107 284.066 243.763 286.596 243.631 289.37C243.498 292.153 242.57 294.624 241.212 296.365C239.855 298.105 238.049 299.138 236.12 299.056C234.169 298.973 232.479 297.736 231.304 295.869C230.12 293.988 229.462 291.45 229.626 288.669C229.76 285.889 230.688 283.421 232.044 281.682Z" fill="#FF9100"/>
<mask id="mask0_2831_14413" style="mask-type:luminance" maskUnits="userSpaceOnUse" x="215" y="222" width="31" height="43">
<path d="M244.231 246.714C246.841 235.062 242.651 224.204 234.873 222.462C227.094 220.719 218.672 228.752 216.062 240.403C213.452 252.055 217.642 262.913 225.42 264.655C233.199 266.398 241.621 258.365 244.231 246.714Z" fill="white"/>
</mask>
<g mask="url(#mask0_2831_14413)">
<path d="M221.515 225.596C221.732 224.628 221.389 223.727 220.749 223.583C220.109 223.44 219.414 224.109 219.197 225.077C218.981 226.045 219.324 226.946 219.964 227.09C220.604 227.233 221.298 226.564 221.515 225.596Z" fill="#F29111"/>
<path d="M220.515 230.008C220.732 229.04 220.389 228.139 219.749 227.996C219.109 227.852 218.414 228.521 218.197 229.489C217.981 230.457 218.324 231.358 218.964 231.502C219.604 231.645 220.298 230.976 220.515 230.008Z" fill="#F29111"/>
<path d="M219.554 234.399C219.771 233.431 219.428 232.53 218.788 232.386C218.148 232.243 217.453 232.911 217.236 233.88C217.02 234.848 217.363 235.749 218.003 235.892C218.643 236.036 219.337 235.367 219.554 234.399Z" fill="#F29111"/>
<path d="M218.554 238.784C218.771 237.815 218.428 236.914 217.788 236.771C217.148 236.628 216.453 237.296 216.236 238.264C216.02 239.233 216.363 240.134 217.003 240.277C217.643 240.421 218.337 239.752 218.554 238.784Z" fill="#F29111"/>
<path d="M217.554 243.196C217.771 242.228 217.428 241.326 216.788 241.183C216.148 241.04 215.453 241.708 215.236 242.677C215.02 243.645 215.363 244.546 216.003 244.689C216.643 244.833 217.337 244.164 217.554 243.196Z" fill="#F29111"/>
<path d="M216.593 247.584C216.81 246.616 216.467 245.715 215.827 245.572C215.187 245.428 214.492 246.097 214.276 247.065C214.059 248.033 214.402 248.935 215.042 249.078C215.682 249.221 216.376 248.553 216.593 247.584Z" fill="#F29111"/>
<path d="M215.601 251.969C215.818 251.001 215.475 250.1 214.835 249.957C214.195 249.813 213.5 250.482 213.283 251.45C213.066 252.418 213.409 253.319 214.049 253.463C214.689 253.606 215.384 252.937 215.601 251.969Z" fill="#F29111"/>
<path d="M230.32 227.571C230.537 226.603 230.194 225.701 229.554 225.558C228.914 225.415 228.219 226.083 228.002 227.052C227.785 228.02 228.128 228.921 228.768 229.064C229.408 229.208 230.103 228.539 230.32 227.571Z" fill="#F29111"/>
<path d="M229.32 231.983C229.537 231.015 229.194 230.114 228.554 229.97C227.914 229.827 227.219 230.495 227.002 231.464C226.785 232.432 227.128 233.333 227.768 233.476C228.408 233.62 229.103 232.951 229.32 231.983Z" fill="#F29111"/>
<path d="M228.328 236.368C228.544 235.399 228.202 234.498 227.561 234.355C226.921 234.212 226.227 234.88 226.01 235.848C225.793 236.817 226.136 237.718 226.776 237.861C227.416 238.005 228.111 237.336 228.328 236.368Z" fill="#F29111"/>
<path d="M227.367 240.758C227.584 239.79 227.241 238.889 226.601 238.746C225.961 238.602 225.266 239.271 225.049 240.239C224.832 241.207 225.175 242.108 225.815 242.252C226.455 242.395 227.15 241.726 227.367 240.758Z" fill="#F29111"/>
<path d="M226.367 245.17C226.584 244.202 226.241 243.301 225.601 243.158C224.961 243.014 224.266 243.683 224.049 244.651C223.832 245.619 224.175 246.521 224.815 246.664C225.455 246.807 226.15 246.139 226.367 245.17Z" fill="#F29111"/>
<path d="M225.367 249.553C225.584 248.585 225.241 247.684 224.601 247.54C223.961 247.397 223.266 248.066 223.049 249.034C222.832 250.002 223.175 250.903 223.815 251.047C224.455 251.19 225.15 250.521 225.367 249.553Z" fill="#F29111"/>
<path d="M224.406 253.944C224.623 252.976 224.28 252.074 223.64 251.931C223 251.788 222.305 252.456 222.088 253.425C221.871 254.393 222.214 255.294 222.854 255.437C223.494 255.581 224.189 254.912 224.406 253.944Z" fill="#F29111"/>
<path d="M239.101 229.541C239.318 228.573 238.975 227.672 238.335 227.529C237.695 227.385 237 228.054 236.783 229.022C236.566 229.99 236.909 230.892 237.549 231.035C238.189 231.178 238.884 230.51 239.101 229.541Z" fill="#F29111"/>
<path d="M238.132 233.959C238.349 232.991 238.006 232.09 237.366 231.947C236.726 231.803 236.032 232.472 235.815 233.44C235.598 234.408 235.941 235.31 236.581 235.453C237.221 235.596 237.915 234.928 238.132 233.959Z" fill="#F29111"/>
<path d="M237.14 238.344C237.357 237.376 237.014 236.475 236.374 236.331C235.734 236.188 235.039 236.857 234.822 237.825C234.606 238.793 234.949 239.694 235.589 239.838C236.229 239.981 236.923 239.312 237.14 238.344Z" fill="#F29111"/>
<path d="M236.14 242.727C236.357 241.759 236.014 240.858 235.374 240.714C234.734 240.571 234.039 241.24 233.822 242.208C233.606 243.176 233.949 244.077 234.589 244.221C235.229 244.364 235.923 243.695 236.14 242.727Z" fill="#F29111"/>
<path d="M235.171 247.147C235.388 246.179 235.045 245.278 234.405 245.134C233.765 244.991 233.071 245.66 232.854 246.628C232.637 247.596 232.98 248.497 233.62 248.64C234.26 248.784 234.954 248.115 235.171 247.147Z" fill="#F29111"/>
<path d="M234.179 251.53C234.396 250.562 234.053 249.66 233.413 249.517C232.773 249.374 232.078 250.042 231.861 251.011C231.645 251.979 231.988 252.88 232.628 253.023C233.268 253.167 233.962 252.498 234.179 251.53Z" fill="#F29111"/>
<path d="M233.21 255.92C233.427 254.952 233.084 254.051 232.444 253.908C231.804 253.764 231.11 254.433 230.893 255.401C230.676 256.369 231.019 257.271 231.659 257.414C232.299 257.557 232.994 256.889 233.21 255.92Z" fill="#F29111"/>
<path d="M246.906 235.928C247.123 234.96 246.78 234.059 246.14 233.915C245.5 233.772 244.805 234.441 244.588 235.409C244.371 236.377 244.714 237.278 245.354 237.422C245.994 237.565 246.689 236.896 246.906 235.928Z" fill="#F29111"/>
<path d="M245.945 240.319C246.162 239.351 245.819 238.449 245.179 238.306C244.539 238.163 243.844 238.831 243.627 239.8C243.41 240.768 243.753 241.669 244.393 241.812C245.033 241.956 245.728 241.287 245.945 240.319Z" fill="#F29111"/>
<path d="M244.953 244.702C245.169 243.733 244.826 242.832 244.186 242.689C243.546 242.546 242.852 243.214 242.635 244.182C242.418 245.151 242.761 246.052 243.401 246.195C244.041 246.339 244.736 245.67 244.953 244.702Z" fill="#F29111"/>
<path d="M243.984 249.122C244.201 248.153 243.858 247.252 243.218 247.109C242.578 246.965 241.883 247.634 241.666 248.602C241.449 249.571 241.792 250.472 242.432 250.615C243.072 250.758 243.767 250.09 243.984 249.122Z" fill="#F29111"/>
<path d="M242.984 253.504C243.201 252.536 242.858 251.635 242.218 251.492C241.578 251.348 240.883 252.017 240.666 252.985C240.449 253.953 240.792 254.855 241.432 254.998C242.072 255.141 242.767 254.473 242.984 253.504Z" fill="#F29111"/>
<path d="M241.992 257.889C242.209 256.921 241.866 256.02 241.226 255.876C240.586 255.733 239.891 256.402 239.674 257.37C239.457 258.338 239.8 259.239 240.44 259.383C241.08 259.526 241.775 258.857 241.992 257.889Z" fill="#F29111"/>
<path d="M224.429 226.258C224.646 225.29 224.303 224.389 223.663 224.246C223.023 224.102 222.328 224.771 222.111 225.739C221.895 226.707 222.238 227.608 222.878 227.752C223.518 227.895 224.212 227.227 224.429 226.258Z" fill="#F29111"/>
<path d="M223.468 230.649C223.685 229.681 223.342 228.78 222.702 228.636C222.062 228.493 221.367 229.161 221.151 230.13C220.934 231.098 221.277 231.999 221.917 232.142C222.557 232.286 223.251 231.617 223.468 230.649Z" fill="#F29111"/>
<path d="M222.46 235.063C222.677 234.095 222.334 233.194 221.694 233.05C221.054 232.907 220.36 233.576 220.143 234.544C219.926 235.512 220.269 236.413 220.909 236.556C221.549 236.7 222.244 236.031 222.46 235.063Z" fill="#F29111"/>
<path d="M221.499 239.452C221.716 238.483 221.373 237.582 220.733 237.439C220.093 237.296 219.399 237.964 219.182 238.932C218.965 239.901 219.308 240.802 219.948 240.945C220.588 241.089 221.283 240.42 221.499 239.452Z" fill="#F29111"/>
<path d="M220.507 243.834C220.724 242.866 220.381 241.965 219.741 241.822C219.101 241.678 218.407 242.347 218.19 243.315C217.973 244.283 218.316 245.185 218.956 245.328C219.596 245.471 220.29 244.803 220.507 243.834Z" fill="#F29111"/>
<path d="M219.507 248.249C219.724 247.28 219.381 246.379 218.741 246.236C218.101 246.092 217.407 246.761 217.19 247.729C216.973 248.698 217.316 249.599 217.956 249.742C218.596 249.885 219.29 249.217 219.507 248.249Z" fill="#F29111"/>
<path d="M218.539 252.639C218.755 251.671 218.412 250.77 217.772 250.626C217.132 250.483 216.438 251.152 216.221 252.12C216.004 253.088 216.347 253.989 216.987 254.133C217.627 254.276 218.322 253.607 218.539 252.639Z" fill="#F29111"/>
<path d="M233.234 228.235C233.451 227.267 233.108 226.366 232.468 226.222C231.828 226.079 231.133 226.747 230.916 227.716C230.699 228.684 231.042 229.585 231.682 229.728C232.322 229.872 233.017 229.203 233.234 228.235Z" fill="#F29111"/>
<path d="M232.273 232.625C232.49 231.657 232.147 230.756 231.507 230.613C230.867 230.469 230.172 231.138 229.955 232.106C229.738 233.074 230.081 233.976 230.721 234.119C231.361 234.262 232.056 233.594 232.273 232.625Z" fill="#F29111"/>
<path d="M231.273 237.038C231.49 236.069 231.147 235.168 230.507 235.025C229.867 234.881 229.172 235.55 228.955 236.518C228.738 237.487 229.081 238.388 229.721 238.531C230.361 238.674 231.056 238.006 231.273 237.038Z" fill="#F29111"/>
<path d="M230.281 241.422C230.498 240.454 230.155 239.553 229.515 239.41C228.875 239.266 228.18 239.935 227.963 240.903C227.746 241.871 228.089 242.772 228.729 242.916C229.369 243.059 230.064 242.391 230.281 241.422Z" fill="#F29111"/>
<path d="M229.312 245.811C229.529 244.843 229.186 243.942 228.546 243.798C227.906 243.655 227.211 244.324 226.994 245.292C226.777 246.26 227.12 247.161 227.76 247.305C228.4 247.448 229.095 246.779 229.312 245.811Z" fill="#F29111"/>
<path d="M228.312 250.225C228.529 249.257 228.186 248.356 227.546 248.212C226.906 248.069 226.211 248.738 225.994 249.706C225.777 250.674 226.12 251.575 226.76 251.719C227.4 251.862 228.095 251.193 228.312 250.225Z" fill="#F29111"/>
<path d="M227.32 254.608C227.537 253.64 227.194 252.739 226.554 252.595C225.914 252.452 225.219 253.12 225.002 254.089C224.785 255.057 225.128 255.958 225.768 256.101C226.408 256.245 227.103 255.576 227.32 254.608Z" fill="#F29111"/>
<path d="M242.046 230.211C242.263 229.243 241.92 228.342 241.28 228.199C240.64 228.055 239.946 228.724 239.729 229.692C239.512 230.66 239.855 231.562 240.495 231.705C241.135 231.848 241.829 231.18 242.046 230.211Z" fill="#F29111"/>
<path d="M241.054 234.594C241.271 233.626 240.928 232.725 240.288 232.582C239.648 232.438 238.953 233.107 238.736 234.075C238.52 235.043 238.863 235.944 239.503 236.088C240.143 236.231 240.837 235.562 241.054 234.594Z" fill="#F29111"/>
<path d="M240.085 239.014C240.302 238.046 239.959 237.145 239.319 237.001C238.679 236.858 237.985 237.527 237.768 238.495C237.551 239.463 237.894 240.364 238.534 240.508C239.174 240.651 239.869 239.982 240.085 239.014Z" fill="#F29111"/>
<path d="M239.085 243.399C239.302 242.431 238.959 241.53 238.319 241.386C237.679 241.243 236.985 241.911 236.768 242.88C236.551 243.848 236.894 244.749 237.534 244.892C238.174 245.036 238.869 244.367 239.085 243.399Z" fill="#F29111"/>
<path d="M238.093 247.78C238.31 246.812 237.967 245.91 237.327 245.767C236.687 245.624 235.992 246.292 235.776 247.261C235.559 248.229 235.902 249.13 236.542 249.273C237.182 249.417 237.876 248.748 238.093 247.78Z" fill="#F29111"/>
<path d="M237.124 252.202C237.341 251.233 236.998 250.332 236.358 250.189C235.718 250.046 235.024 250.714 234.807 251.682C234.59 252.651 234.933 253.552 235.573 253.695C236.213 253.839 236.908 253.17 237.124 252.202Z" fill="#F29111"/>
<path d="M236.124 256.584C236.341 255.616 235.998 254.715 235.358 254.572C234.718 254.428 234.024 255.097 233.807 256.065C233.59 257.033 233.933 257.935 234.573 258.078C235.213 258.221 235.908 257.553 236.124 256.584Z" fill="#F29111"/>
<path d="M227.374 226.93C227.591 225.962 227.248 225.061 226.608 224.917C225.968 224.774 225.274 225.443 225.057 226.411C224.84 227.379 225.183 228.28 225.823 228.424C226.463 228.567 227.158 227.898 227.374 226.93Z" fill="#F29111"/>
<path d="M226.382 231.313C226.599 230.345 226.256 229.444 225.616 229.3C224.976 229.157 224.282 229.826 224.065 230.794C223.848 231.762 224.191 232.663 224.831 232.806C225.471 232.95 226.165 232.281 226.382 231.313Z" fill="#F29111"/>
<path d="M225.414 235.704C225.63 234.735 225.287 233.834 224.647 233.691C224.007 233.547 223.313 234.216 223.096 235.184C222.879 236.153 223.222 237.054 223.862 237.197C224.502 237.34 225.197 236.672 225.414 235.704Z" fill="#F29111"/>
<path d="M224.414 240.116C224.63 239.147 224.287 238.246 223.647 238.103C223.007 237.96 222.313 238.628 222.096 239.596C221.879 240.565 222.222 241.466 222.862 241.609C223.502 241.753 224.197 241.084 224.414 240.116Z" fill="#F29111"/>
<path d="M223.421 244.499C223.638 243.53 223.295 242.629 222.655 242.486C222.015 242.342 221.321 243.011 221.104 243.979C220.887 244.948 221.23 245.849 221.87 245.992C222.51 246.135 223.204 245.467 223.421 244.499Z" fill="#F29111"/>
<path d="M222.453 248.889C222.669 247.921 222.326 247.02 221.686 246.876C221.046 246.733 220.352 247.402 220.135 248.37C219.918 249.338 220.261 250.239 220.901 250.383C221.541 250.526 222.236 249.857 222.453 248.889Z" fill="#F29111"/>
<path d="M221.453 253.303C221.67 252.335 221.327 251.434 220.687 251.29C220.046 251.147 219.352 251.816 219.135 252.784C218.918 253.752 219.261 254.653 219.901 254.797C220.541 254.94 221.236 254.271 221.453 253.303Z" fill="#F29111"/>
<path d="M236.179 228.907C236.396 227.939 236.053 227.037 235.413 226.894C234.773 226.751 234.078 227.419 233.861 228.388C233.645 229.356 233.988 230.257 234.628 230.4C235.268 230.544 235.962 229.875 236.179 228.907Z" fill="#F29111"/>
<path d="M235.187 233.29C235.404 232.321 235.061 231.42 234.421 231.277C233.781 231.133 233.086 231.802 232.869 232.77C232.652 233.739 232.995 234.64 233.635 234.783C234.275 234.926 234.97 234.258 235.187 233.29Z" fill="#F29111"/>
<path d="M234.195 237.672C234.412 236.704 234.069 235.803 233.429 235.66C232.789 235.516 232.094 236.185 231.877 237.153C231.66 238.121 232.003 239.022 232.643 239.166C233.283 239.309 233.978 238.641 234.195 237.672Z" fill="#F29111"/>
<path d="M233.218 242.092C233.435 241.124 233.092 240.223 232.452 240.08C231.812 239.936 231.117 240.605 230.901 241.573C230.684 242.541 231.027 243.442 231.667 243.586C232.307 243.729 233.001 243.06 233.218 242.092Z" fill="#F29111"/>
<path d="M232.226 246.475C232.443 245.507 232.1 244.606 231.46 244.462C230.82 244.319 230.125 244.988 229.908 245.956C229.691 246.924 230.034 247.825 230.674 247.969C231.314 248.112 232.009 247.443 232.226 246.475Z" fill="#F29111"/>
<path d="M231.265 250.866C231.482 249.897 231.139 248.996 230.499 248.853C229.859 248.71 229.164 249.378 228.947 250.346C228.731 251.315 229.074 252.216 229.714 252.359C230.354 252.503 231.048 251.834 231.265 250.866Z" fill="#F29111"/>
<path d="M230.265 255.28C230.482 254.312 230.139 253.41 229.499 253.267C228.859 253.124 228.164 253.792 227.947 254.761C227.731 255.729 228.074 256.63 228.714 256.773C229.354 256.917 230.048 256.248 230.265 255.28Z" fill="#F29111"/>
<path d="M244.968 230.846C245.185 229.878 244.842 228.977 244.202 228.833C243.562 228.69 242.867 229.359 242.651 230.327C242.434 231.295 242.777 232.196 243.417 232.34C244.057 232.483 244.751 231.814 244.968 230.846Z" fill="#F29111"/>
<path d="M243.992 235.266C244.209 234.298 243.866 233.397 243.226 233.253C242.586 233.11 241.891 233.779 241.674 234.747C241.457 235.715 241.8 236.616 242.44 236.76C243.08 236.903 243.775 236.234 243.992 235.266Z" fill="#F29111"/>
<path d="M242.999 239.649C243.216 238.681 242.873 237.78 242.233 237.636C241.593 237.493 240.899 238.161 240.682 239.13C240.465 240.098 240.808 240.999 241.448 241.142C242.088 241.286 242.783 240.617 242.999 239.649Z" fill="#F29111"/>
<path d="M242.031 244.069C242.248 243.101 241.905 242.199 241.265 242.056C240.625 241.913 239.93 242.581 239.713 243.55C239.496 244.518 239.839 245.419 240.479 245.562C241.119 245.706 241.814 245.037 242.031 244.069Z" fill="#F29111"/>
<path d="M241.039 248.452C241.255 247.483 240.912 246.582 240.272 246.439C239.632 246.296 238.938 246.964 238.721 247.932C238.504 248.901 238.847 249.802 239.487 249.945C240.127 250.089 240.822 249.42 241.039 248.452Z" fill="#F29111"/>
<path d="M240.046 252.834C240.263 251.866 239.92 250.965 239.28 250.822C238.64 250.678 237.946 251.347 237.729 252.315C237.512 253.283 237.855 254.185 238.495 254.328C239.135 254.471 239.829 253.803 240.046 252.834Z" fill="#F29111"/>
<path d="M239.07 257.256C239.287 256.288 238.944 255.387 238.304 255.244C237.664 255.1 236.969 255.769 236.752 256.737C236.535 257.705 236.878 258.606 237.518 258.75C238.158 258.893 238.853 258.225 239.07 257.256Z" fill="#F29111"/>
<path d="M222.476 221.206C222.693 220.237 222.35 219.336 221.71 219.193C221.07 219.049 220.375 219.718 220.158 220.686C219.941 221.655 220.284 222.556 220.924 222.699C221.564 222.842 222.259 222.174 222.476 221.206Z" fill="#F29111"/>
<path d="M231.289 223.18C231.505 222.212 231.162 221.311 230.522 221.167C229.882 221.024 229.188 221.693 228.971 222.661C228.754 223.629 229.097 224.53 229.737 224.674C230.377 224.817 231.072 224.148 231.289 223.18Z" fill="#F29111"/>
<path d="M240.093 225.157C240.31 224.188 239.967 223.287 239.327 223.144C238.687 223.001 237.992 223.669 237.776 224.638C237.559 225.606 237.902 226.507 238.542 226.65C239.182 226.794 239.876 226.125 240.093 225.157Z" fill="#F29111"/>
<path d="M225.421 221.877C225.638 220.909 225.295 220.008 224.655 219.865C224.015 219.721 223.321 220.39 223.104 221.358C222.887 222.326 223.23 223.228 223.87 223.371C224.51 223.514 225.204 222.846 225.421 221.877Z" fill="#F29111"/>
<path d="M234.234 223.852C234.451 222.884 234.108 221.983 233.468 221.839C232.828 221.696 232.133 222.365 231.916 223.333C231.699 224.301 232.042 225.202 232.682 225.346C233.322 225.489 234.017 224.82 234.234 223.852Z" fill="#F29111"/>
<path d="M243.046 225.799C243.263 224.831 242.92 223.93 242.28 223.787C241.64 223.643 240.946 224.312 240.729 225.28C240.512 226.248 240.855 227.149 241.495 227.293C242.135 227.436 242.829 226.768 243.046 225.799Z" fill="#F29111"/>
<path d="M228.374 222.516C228.591 221.548 228.248 220.647 227.608 220.503C226.968 220.36 226.274 221.029 226.057 221.997C225.84 222.965 226.183 223.866 226.823 224.01C227.463 224.153 228.158 223.484 228.374 222.516Z" fill="#F29111"/>
<path d="M237.156 224.487C237.373 223.519 237.03 222.617 236.39 222.474C235.75 222.331 235.055 222.999 234.838 223.968C234.621 224.936 234.964 225.837 235.604 225.98C236.244 226.124 236.939 225.455 237.156 224.487Z" fill="#F29111"/>
<path d="M245.96 226.463C246.177 225.495 245.834 224.594 245.194 224.451C244.554 224.307 243.86 224.976 243.643 225.944C243.426 226.912 243.769 227.813 244.409 227.957C245.049 228.1 245.744 227.432 245.96 226.463Z" fill="#F29111"/>
<path d="M223.406 258.358C223.623 257.39 223.28 256.489 222.64 256.345C222 256.202 221.305 256.87 221.088 257.839C220.871 258.807 221.214 259.708 221.854 259.851C222.494 259.995 223.189 259.326 223.406 258.358Z" fill="#F29111"/>
<path d="M222.437 262.747C222.654 261.778 222.311 260.877 221.671 260.734C221.031 260.59 220.336 261.259 220.119 262.227C219.902 263.196 220.245 264.097 220.885 264.24C221.525 264.383 222.22 263.715 222.437 262.747Z" fill="#F29111"/>
<path d="M232.21 260.333C232.427 259.364 232.084 258.463 231.444 258.32C230.804 258.176 230.11 258.845 229.893 259.813C229.676 260.782 230.019 261.683 230.659 261.826C231.299 261.969 231.994 261.301 232.21 260.333Z" fill="#F29111"/>
<path d="M231.218 264.715C231.435 263.747 231.092 262.846 230.452 262.703C229.812 262.559 229.117 263.228 228.901 264.196C228.684 265.164 229.027 266.065 229.667 266.209C230.307 266.352 231.001 265.684 231.218 264.715Z" fill="#F29111"/>
<path d="M241.023 262.309C241.24 261.341 240.897 260.44 240.257 260.296C239.617 260.153 238.922 260.822 238.705 261.79C238.488 262.758 238.831 263.659 239.471 263.803C240.111 263.946 240.806 263.277 241.023 262.309Z" fill="#F29111"/>
<path d="M240.031 266.692C240.248 265.724 239.905 264.823 239.265 264.679C238.625 264.536 237.93 265.204 237.713 266.173C237.496 267.141 237.839 268.042 238.479 268.185C239.119 268.329 239.814 267.66 240.031 266.692Z" fill="#F29111"/>
<path d="M217.546 257.022C217.763 256.054 217.42 255.153 216.78 255.009C216.14 254.866 215.446 255.535 215.229 256.503C215.012 257.471 215.355 258.372 215.995 258.515C216.635 258.659 217.329 257.99 217.546 257.022Z" fill="#F29111"/>
<path d="M216.546 261.434C216.763 260.466 216.42 259.565 215.78 259.421C215.14 259.278 214.446 259.947 214.229 260.915C214.012 261.883 214.355 262.784 214.995 262.928C215.635 263.071 216.329 262.402 216.546 261.434Z" fill="#F29111"/>
<path d="M226.359 258.999C226.576 258.03 226.233 257.129 225.593 256.986C224.953 256.842 224.258 257.511 224.041 258.479C223.824 259.448 224.167 260.349 224.807 260.492C225.447 260.635 226.142 259.967 226.359 258.999Z" fill="#F29111"/>
<path d="M225.351 263.411C225.568 262.442 225.225 261.541 224.585 261.398C223.945 261.255 223.25 261.923 223.033 262.891C222.816 263.86 223.159 264.761 223.799 264.904C224.439 265.048 225.134 264.379 225.351 263.411Z" fill="#F29111"/>
<path d="M235.164 260.975C235.38 260.007 235.037 259.106 234.397 258.962C233.757 258.819 233.063 259.488 232.846 260.456C232.629 261.424 232.972 262.325 233.612 262.469C234.252 262.612 234.947 261.943 235.164 260.975Z" fill="#F29111"/>
<path d="M234.164 265.387C234.38 264.419 234.037 263.518 233.397 263.374C232.757 263.231 232.063 263.9 231.846 264.868C231.629 265.836 231.972 266.737 232.612 266.881C233.252 267.024 233.947 266.355 234.164 265.387Z" fill="#F29111"/>
<path d="M220.492 257.692C220.709 256.724 220.366 255.823 219.726 255.679C219.086 255.536 218.391 256.204 218.174 257.173C217.957 258.141 218.3 259.042 218.94 259.185C219.58 259.329 220.275 258.66 220.492 257.692Z" fill="#F29111"/>
<path d="M219.499 262.077C219.716 261.108 219.373 260.207 218.733 260.064C218.093 259.921 217.399 260.589 217.182 261.557C216.965 262.526 217.308 263.427 217.948 263.57C218.588 263.714 219.283 263.045 219.499 262.077Z" fill="#F29111"/>
<path d="M229.273 259.663C229.49 258.694 229.147 257.793 228.507 257.65C227.867 257.506 227.172 258.175 226.955 259.143C226.738 260.112 227.081 261.013 227.721 261.156C228.361 261.299 229.056 260.631 229.273 259.663Z" fill="#F29111"/>
<path d="M228.304 264.051C228.521 263.083 228.178 262.182 227.538 262.039C226.898 261.895 226.203 262.564 225.986 263.532C225.77 264.5 226.113 265.401 226.753 265.545C227.393 265.688 228.087 265.019 228.304 264.051Z" fill="#F29111"/>
<path d="M238.078 261.639C238.295 260.671 237.952 259.77 237.311 259.626C236.671 259.483 235.977 260.152 235.76 261.12C235.543 262.088 235.886 262.989 236.526 263.133C237.166 263.276 237.861 262.607 238.078 261.639Z" fill="#F29111"/>
<path d="M237.109 266.028C237.326 265.06 236.983 264.158 236.343 264.015C235.703 263.872 235.008 264.54 234.791 265.509C234.574 266.477 234.917 267.378 235.557 267.521C236.197 267.665 236.892 266.996 237.109 266.028Z" fill="#F29111"/>
</g>
<mask id="mask1_2831_14413" style="mask-type:luminance" maskUnits="userSpaceOnUse" x="263" y="233" width="31" height="43">
<path d="M292.41 257.507C295.021 245.855 290.831 234.997 283.052 233.255C275.274 231.512 266.852 239.545 264.242 251.196C261.632 262.848 265.821 273.706 273.6 275.448C281.378 277.191 289.8 269.158 292.41 257.507Z" fill="white"/>
</mask>
<g mask="url(#mask1_2831_14413)">
<path d="M269.695 236.387C269.912 235.419 269.569 234.518 268.929 234.374C268.289 234.231 267.594 234.9 267.377 235.868C267.16 236.836 267.503 237.737 268.143 237.881C268.783 238.024 269.478 237.355 269.695 236.387Z" fill="#F29111"/>
<path d="M268.726 240.807C268.943 239.839 268.6 238.938 267.96 238.794C267.32 238.651 266.625 239.32 266.408 240.288C266.191 241.256 266.534 242.157 267.174 242.301C267.814 242.444 268.509 241.775 268.726 240.807Z" fill="#F29111"/>
<path d="M267.734 245.192C267.951 244.224 267.608 243.323 266.968 243.179C266.328 243.036 265.633 243.704 265.416 244.673C265.199 245.641 265.542 246.542 266.182 246.685C266.822 246.829 267.517 246.16 267.734 245.192Z" fill="#F29111"/>
<path d="M266.765 249.583C266.982 248.614 266.639 247.713 265.999 247.57C265.359 247.426 264.664 248.095 264.447 249.063C264.231 250.032 264.574 250.933 265.214 251.076C265.854 251.219 266.548 250.551 266.765 249.583Z" fill="#F29111"/>
<path d="M265.765 253.995C265.982 253.026 265.639 252.125 264.999 251.982C264.359 251.839 263.664 252.507 263.447 253.475C263.231 254.444 263.574 255.345 264.214 255.488C264.854 255.631 265.548 254.963 265.765 253.995Z" fill="#F29111"/>
<path d="M264.773 258.377C264.99 257.409 264.647 256.508 264.007 256.365C263.367 256.221 262.672 256.89 262.455 257.858C262.238 258.826 262.581 259.728 263.221 259.871C263.861 260.014 264.556 259.346 264.773 258.377Z" fill="#F29111"/>
<path d="M263.796 262.797C264.013 261.829 263.67 260.928 263.03 260.785C262.39 260.641 261.696 261.31 261.479 262.278C261.262 263.246 261.605 264.147 262.245 264.291C262.885 264.434 263.579 263.766 263.796 262.797Z" fill="#F29111"/>
<path d="M278.499 238.364C278.716 237.396 278.373 236.494 277.733 236.351C277.093 236.208 276.399 236.876 276.182 237.845C275.965 238.813 276.308 239.714 276.948 239.857C277.588 240.001 278.283 239.332 278.499 238.364Z" fill="#F29111"/>
<path d="M277.531 242.782C277.748 241.814 277.405 240.912 276.765 240.769C276.125 240.626 275.43 241.294 275.213 242.263C274.996 243.231 275.339 244.132 275.979 244.275C276.619 244.419 277.314 243.75 277.531 242.782Z" fill="#F29111"/>
<path d="M276.539 247.166C276.755 246.198 276.412 245.297 275.772 245.154C275.132 245.01 274.438 245.679 274.221 246.647C274.004 247.615 274.347 248.517 274.987 248.66C275.627 248.803 276.322 248.135 276.539 247.166Z" fill="#F29111"/>
<path d="M275.546 251.549C275.763 250.581 275.42 249.68 274.78 249.537C274.14 249.393 273.446 250.062 273.229 251.03C273.012 251.998 273.355 252.899 273.995 253.043C274.635 253.186 275.329 252.518 275.546 251.549Z" fill="#F29111"/>
<path d="M274.57 255.969C274.787 255.001 274.444 254.1 273.804 253.957C273.164 253.813 272.469 254.482 272.252 255.45C272.035 256.418 272.378 257.319 273.018 257.463C273.658 257.606 274.353 256.937 274.57 255.969Z" fill="#F29111"/>
<path d="M273.578 260.352C273.794 259.384 273.451 258.483 272.811 258.339C272.171 258.196 271.477 258.865 271.26 259.833C271.043 260.801 271.386 261.702 272.026 261.846C272.666 261.989 273.361 261.32 273.578 260.352Z" fill="#F29111"/>
<path d="M272.609 264.743C272.826 263.774 272.483 262.873 271.843 262.73C271.203 262.587 270.508 263.255 270.291 264.223C270.074 265.192 270.417 266.093 271.057 266.236C271.697 266.38 272.392 265.711 272.609 264.743Z" fill="#F29111"/>
<path d="M287.312 240.34C287.529 239.372 287.186 238.471 286.546 238.328C285.906 238.184 285.211 238.853 284.994 239.821C284.777 240.789 285.12 241.69 285.76 241.834C286.4 241.977 287.095 241.309 287.312 240.34Z" fill="#F29111"/>
<path d="M286.312 244.752C286.529 243.784 286.186 242.883 285.546 242.74C284.906 242.596 284.211 243.265 283.994 244.233C283.777 245.201 284.12 246.103 284.76 246.246C285.4 246.389 286.095 245.721 286.312 244.752Z" fill="#F29111"/>
<path d="M285.343 249.143C285.56 248.175 285.217 247.274 284.577 247.13C283.937 246.987 283.242 247.656 283.026 248.624C282.809 249.592 283.152 250.493 283.792 250.637C284.432 250.78 285.126 250.111 285.343 249.143Z" fill="#F29111"/>
<path d="M284.351 253.526C284.568 252.558 284.225 251.657 283.585 251.513C282.945 251.37 282.25 252.038 282.033 253.007C281.816 253.975 282.159 254.876 282.799 255.019C283.439 255.163 284.134 254.494 284.351 253.526Z" fill="#F29111"/>
<path d="M283.382 257.946C283.599 256.978 283.256 256.076 282.616 255.933C281.976 255.79 281.282 256.458 281.065 257.427C280.848 258.395 281.191 259.296 281.831 259.439C282.471 259.583 283.165 258.914 283.382 257.946Z" fill="#F29111"/>
<path d="M282.39 262.329C282.607 261.36 282.264 260.459 281.624 260.316C280.984 260.173 280.289 260.841 280.072 261.809C279.856 262.778 280.198 263.679 280.838 263.822C281.479 263.965 282.173 263.297 282.39 262.329Z" fill="#F29111"/>
<path d="M281.39 266.713C281.607 265.745 281.264 264.844 280.624 264.701C279.984 264.557 279.289 265.226 279.072 266.194C278.856 267.162 279.199 268.063 279.839 268.207C280.479 268.35 281.173 267.682 281.39 266.713Z" fill="#F29111"/>
<path d="M295.117 246.727C295.334 245.759 294.991 244.858 294.351 244.714C293.711 244.571 293.016 245.24 292.799 246.208C292.582 247.176 292.925 248.077 293.565 248.221C294.205 248.364 294.9 247.695 295.117 246.727Z" fill="#F29111"/>
<path d="M294.156 251.118C294.373 250.149 294.03 249.248 293.39 249.105C292.75 248.962 292.055 249.63 291.838 250.598C291.621 251.567 291.964 252.468 292.604 252.611C293.244 252.755 293.939 252.086 294.156 251.118Z" fill="#F29111"/>
<path d="M293.156 255.5C293.373 254.532 293.03 253.631 292.39 253.488C291.75 253.344 291.055 254.013 290.838 254.981C290.621 255.949 290.964 256.851 291.604 256.994C292.244 257.137 292.939 256.469 293.156 255.5Z" fill="#F29111"/>
<path d="M292.164 259.913C292.38 258.944 292.037 258.043 291.397 257.9C290.757 257.757 290.063 258.425 289.846 259.393C289.629 260.362 289.972 261.263 290.612 261.406C291.252 261.549 291.947 260.881 292.164 259.913Z" fill="#F29111"/>
<path d="M291.195 264.303C291.412 263.335 291.069 262.434 290.429 262.29C289.789 262.147 289.094 262.816 288.877 263.784C288.66 264.752 289.003 265.653 289.643 265.797C290.283 265.94 290.978 265.271 291.195 264.303Z" fill="#F29111"/>
<path d="M290.203 268.688C290.42 267.72 290.077 266.819 289.436 266.675C288.796 266.532 288.102 267.201 287.885 268.169C287.668 269.137 288.011 270.038 288.651 270.181C289.291 270.325 289.986 269.656 290.203 268.688Z" fill="#F29111"/>
<path d="M272.64 237.057C272.857 236.089 272.514 235.188 271.874 235.044C271.234 234.901 270.539 235.57 270.322 236.538C270.106 237.506 270.449 238.407 271.089 238.551C271.729 238.694 272.423 238.025 272.64 237.057Z" fill="#F29111"/>
<path d="M271.648 241.44C271.865 240.472 271.522 239.571 270.882 239.427C270.242 239.284 269.547 239.952 269.33 240.921C269.113 241.889 269.456 242.79 270.096 242.933C270.736 243.077 271.431 242.408 271.648 241.44Z" fill="#F29111"/>
<path d="M270.671 245.862C270.888 244.894 270.545 243.992 269.905 243.849C269.265 243.706 268.571 244.374 268.354 245.343C268.137 246.311 268.48 247.212 269.12 247.355C269.76 247.499 270.454 246.83 270.671 245.862Z" fill="#F29111"/>
<path d="M269.679 250.245C269.896 249.276 269.553 248.375 268.913 248.232C268.273 248.089 267.578 248.757 267.361 249.725C267.145 250.694 267.488 251.595 268.128 251.738C268.768 251.881 269.462 251.213 269.679 250.245Z" fill="#F29111"/>
<path d="M268.718 254.633C268.935 253.665 268.592 252.764 267.952 252.621C267.312 252.477 266.617 253.146 266.401 254.114C266.184 255.082 266.527 255.983 267.167 256.127C267.807 256.27 268.501 255.601 268.718 254.633Z" fill="#F29111"/>
<path d="M267.71 259.047C267.927 258.079 267.584 257.178 266.944 257.035C266.304 256.891 265.61 257.56 265.393 258.528C265.176 259.496 265.519 260.397 266.159 260.541C266.799 260.684 267.494 260.016 267.71 259.047Z" fill="#F29111"/>
<path d="M266.718 263.43C266.935 262.462 266.592 261.561 265.952 261.417C265.312 261.274 264.617 261.943 264.401 262.911C264.184 263.879 264.527 264.78 265.167 264.924C265.807 265.067 266.501 264.398 266.718 263.43Z" fill="#F29111"/>
<path d="M281.445 239.034C281.662 238.065 281.319 237.164 280.679 237.021C280.039 236.878 279.344 237.546 279.127 238.514C278.91 239.483 279.253 240.384 279.893 240.527C280.533 240.671 281.228 240.002 281.445 239.034Z" fill="#F29111"/>
<path d="M280.453 243.416C280.669 242.448 280.326 241.547 279.686 241.404C279.046 241.26 278.352 241.929 278.135 242.897C277.918 243.866 278.261 244.767 278.901 244.91C279.541 245.053 280.236 244.385 280.453 243.416Z" fill="#F29111"/>
<path d="M279.484 247.836C279.701 246.868 279.358 245.967 278.718 245.824C278.078 245.68 277.383 246.349 277.166 247.317C276.949 248.285 277.292 249.187 277.932 249.33C278.572 249.473 279.267 248.805 279.484 247.836Z" fill="#F29111"/>
<path d="M278.484 252.221C278.701 251.253 278.358 250.352 277.718 250.208C277.078 250.065 276.383 250.734 276.166 251.702C275.949 252.67 276.292 253.571 276.932 253.715C277.572 253.858 278.267 253.189 278.484 252.221Z" fill="#F29111"/>
<path d="M277.492 256.604C277.709 255.636 277.366 254.735 276.726 254.591C276.086 254.448 275.391 255.117 275.174 256.085C274.957 257.053 275.3 257.954 275.94 258.097C276.58 258.241 277.275 257.572 277.492 256.604Z" fill="#F29111"/>
<path d="M276.523 261.024C276.74 260.056 276.397 259.155 275.757 259.011C275.117 258.868 274.422 259.536 274.205 260.505C273.988 261.473 274.331 262.374 274.971 262.517C275.611 262.661 276.306 261.992 276.523 261.024Z" fill="#F29111"/>
<path d="M275.523 265.407C275.74 264.439 275.397 263.537 274.757 263.394C274.117 263.251 273.422 263.919 273.205 264.888C272.988 265.856 273.331 266.757 273.971 266.9C274.611 267.044 275.306 266.375 275.523 265.407Z" fill="#F29111"/>
<path d="M290.257 241.01C290.474 240.042 290.131 239.141 289.491 238.998C288.851 238.854 288.157 239.523 287.94 240.491C287.723 241.459 288.066 242.36 288.706 242.504C289.346 242.647 290.04 241.978 290.257 241.01Z" fill="#F29111"/>
<path d="M289.257 245.393C289.474 244.425 289.131 243.524 288.491 243.38C287.851 243.237 287.157 243.906 286.94 244.874C286.723 245.842 287.066 246.743 287.706 246.887C288.346 247.03 289.04 246.361 289.257 245.393Z" fill="#F29111"/>
<path d="M288.265 249.807C288.482 248.839 288.139 247.938 287.499 247.794C286.859 247.651 286.164 248.32 285.947 249.288C285.731 250.256 286.074 251.157 286.714 251.301C287.354 251.444 288.048 250.775 288.265 249.807Z" fill="#F29111"/>
<path d="M287.296 254.198C287.513 253.23 287.17 252.328 286.53 252.185C285.89 252.042 285.196 252.71 284.979 253.679C284.762 254.647 285.105 255.548 285.745 255.691C286.385 255.835 287.079 255.166 287.296 254.198Z" fill="#F29111"/>
<path d="M286.304 258.579C286.521 257.61 286.178 256.709 285.538 256.566C284.898 256.422 284.203 257.091 283.986 258.059C283.77 259.028 284.113 259.929 284.753 260.072C285.393 260.215 286.087 259.547 286.304 258.579Z" fill="#F29111"/>
<path d="M285.304 262.993C285.521 262.024 285.178 261.123 284.538 260.98C283.898 260.837 283.203 261.505 282.986 262.473C282.77 263.442 283.113 264.343 283.753 264.486C284.393 264.63 285.087 263.961 285.304 262.993Z" fill="#F29111"/>
<path d="M284.335 267.383C284.552 266.415 284.209 265.514 283.569 265.371C282.929 265.227 282.235 265.896 282.018 266.864C281.801 267.832 282.144 268.733 282.784 268.877C283.424 269.02 284.118 268.351 284.335 267.383Z" fill="#F29111"/>
<path d="M275.578 237.729C275.794 236.761 275.452 235.86 274.811 235.716C274.171 235.573 273.477 236.242 273.26 237.21C273.043 238.178 273.386 239.079 274.026 239.222C274.666 239.366 275.361 238.697 275.578 237.729Z" fill="#F29111"/>
<path d="M274.585 242.112C274.802 241.144 274.459 240.242 273.819 240.099C273.179 239.956 272.485 240.624 272.268 241.593C272.051 242.561 272.394 243.462 273.034 243.605C273.674 243.749 274.369 243.08 274.585 242.112Z" fill="#F29111"/>
<path d="M273.593 246.495C273.81 245.526 273.467 244.625 272.827 244.482C272.187 244.339 271.492 245.007 271.276 245.975C271.059 246.944 271.402 247.845 272.042 247.988C272.682 248.131 273.376 247.463 273.593 246.495Z" fill="#F29111"/>
<path d="M272.624 250.915C272.841 249.946 272.498 249.045 271.858 248.902C271.218 248.758 270.524 249.427 270.307 250.395C270.09 251.364 270.433 252.265 271.073 252.408C271.713 252.551 272.408 251.883 272.624 250.915Z" fill="#F29111"/>
<path d="M271.632 255.297C271.849 254.329 271.506 253.428 270.866 253.285C270.226 253.141 269.532 253.81 269.315 254.778C269.098 255.746 269.441 256.647 270.081 256.791C270.721 256.934 271.415 256.266 271.632 255.297Z" fill="#F29111"/>
<path d="M270.664 259.688C270.88 258.72 270.537 257.819 269.897 257.675C269.257 257.532 268.563 258.201 268.346 259.169C268.129 260.137 268.472 261.038 269.112 261.181C269.752 261.325 270.447 260.656 270.664 259.688Z" fill="#F29111"/>
<path d="M269.664 264.102C269.88 263.134 269.537 262.233 268.897 262.089C268.257 261.946 267.563 262.615 267.346 263.583C267.129 264.551 267.472 265.452 268.112 265.596C268.752 265.739 269.447 265.07 269.664 264.102Z" fill="#F29111"/>
<path d="M284.359 239.698C284.576 238.73 284.233 237.828 283.593 237.685C282.953 237.542 282.258 238.21 282.041 239.179C281.824 240.147 282.167 241.048 282.807 241.191C283.447 241.335 284.142 240.666 284.359 239.698Z" fill="#F29111"/>
<path d="M283.398 244.088C283.615 243.12 283.272 242.219 282.632 242.076C281.992 241.932 281.297 242.601 281.08 243.569C280.863 244.537 281.206 245.438 281.846 245.582C282.486 245.725 283.181 245.057 283.398 244.088Z" fill="#F29111"/>
<path d="M282.406 248.471C282.623 247.503 282.28 246.602 281.64 246.458C281 246.315 280.305 246.984 280.088 247.952C279.871 248.92 280.214 249.821 280.854 249.965C281.494 250.108 282.189 249.439 282.406 248.471Z" fill="#F29111"/>
<path d="M281.429 252.891C281.646 251.923 281.303 251.022 280.663 250.878C280.023 250.735 279.328 251.404 279.111 252.372C278.895 253.34 279.238 254.241 279.878 254.385C280.518 254.528 281.212 253.859 281.429 252.891Z" fill="#F29111"/>
<path d="M280.437 257.274C280.654 256.306 280.311 255.405 279.671 255.261C279.031 255.118 278.336 255.786 278.119 256.755C277.902 257.723 278.245 258.624 278.885 258.767C279.525 258.911 280.22 258.242 280.437 257.274Z" fill="#F29111"/>
<path d="M279.445 261.659C279.662 260.69 279.319 259.789 278.679 259.646C278.039 259.503 277.344 260.171 277.127 261.139C276.91 262.108 277.253 263.009 277.893 263.152C278.533 263.296 279.228 262.627 279.445 261.659Z" fill="#F29111"/>
<path d="M278.468 266.079C278.685 265.11 278.342 264.209 277.702 264.066C277.062 263.923 276.367 264.591 276.151 265.559C275.934 266.528 276.277 267.429 276.917 267.572C277.557 267.715 278.251 267.047 278.468 266.079Z" fill="#F29111"/>
<path d="M293.171 241.674C293.388 240.706 293.045 239.805 292.405 239.662C291.765 239.518 291.071 240.187 290.854 241.155C290.637 242.123 290.98 243.024 291.62 243.168C292.26 243.311 292.954 242.643 293.171 241.674Z" fill="#F29111"/>
<path d="M292.203 246.065C292.419 245.097 292.076 244.196 291.436 244.052C290.796 243.909 290.102 244.577 289.885 245.546C289.668 246.514 290.011 247.415 290.651 247.558C291.291 247.702 291.986 247.033 292.203 246.065Z" fill="#F29111"/>
<path d="M291.21 250.448C291.427 249.48 291.084 248.578 290.444 248.435C289.804 248.292 289.11 248.96 288.893 249.929C288.676 250.897 289.019 251.798 289.659 251.941C290.299 252.085 290.994 251.416 291.21 250.448Z" fill="#F29111"/>
<path d="M290.21 254.862C290.427 253.894 290.084 252.992 289.444 252.849C288.804 252.706 288.11 253.374 287.893 254.343C287.676 255.311 288.019 256.212 288.659 256.355C289.299 256.499 289.994 255.83 290.21 254.862Z" fill="#F29111"/>
<path d="M289.249 259.25C289.466 258.282 289.123 257.381 288.483 257.238C287.843 257.094 287.149 257.763 286.932 258.731C286.715 259.699 287.058 260.601 287.698 260.744C288.338 260.887 289.033 260.219 289.249 259.25Z" fill="#F29111"/>
<path d="M288.249 263.633C288.466 262.665 288.123 261.764 287.483 261.621C286.843 261.477 286.149 262.146 285.932 263.114C285.715 264.082 286.058 264.983 286.698 265.127C287.338 265.27 288.033 264.601 288.249 263.633Z" fill="#F29111"/>
<path d="M287.249 268.047C287.466 267.079 287.123 266.178 286.483 266.035C285.843 265.891 285.149 266.56 284.932 267.528C284.715 268.496 285.058 269.397 285.698 269.541C286.338 269.684 287.033 269.016 287.249 268.047Z" fill="#F29111"/>
<path d="M270.687 232.004C270.904 231.036 270.561 230.135 269.921 229.992C269.281 229.848 268.586 230.517 268.369 231.485C268.152 232.453 268.495 233.355 269.135 233.498C269.775 233.641 270.47 232.973 270.687 232.004Z" fill="#F29111"/>
<path d="M279.499 233.979C279.716 233.011 279.373 232.11 278.733 231.966C278.093 231.823 277.399 232.492 277.182 233.46C276.965 234.428 277.308 235.329 277.948 235.472C278.588 235.616 279.283 234.947 279.499 233.979Z" fill="#F29111"/>
<path d="M288.304 235.956C288.521 234.987 288.178 234.086 287.538 233.943C286.898 233.799 286.203 234.468 285.986 235.436C285.77 236.405 286.113 237.306 286.753 237.449C287.393 237.592 288.087 236.924 288.304 235.956Z" fill="#F29111"/>
<path d="M273.632 232.676C273.849 231.708 273.506 230.807 272.866 230.664C272.226 230.52 271.532 231.189 271.315 232.157C271.098 233.125 271.441 234.026 272.081 234.17C272.721 234.313 273.415 233.644 273.632 232.676Z" fill="#F29111"/>
<path d="M282.414 234.645C282.63 233.677 282.287 232.776 281.647 232.632C281.007 232.489 280.313 233.158 280.096 234.126C279.879 235.094 280.222 235.995 280.862 236.139C281.502 236.282 282.197 235.613 282.414 234.645Z" fill="#F29111"/>
<path d="M291.218 236.62C291.435 235.651 291.092 234.75 290.452 234.607C289.812 234.464 289.117 235.132 288.901 236.1C288.684 237.069 289.027 237.97 289.667 238.113C290.307 238.256 291.001 237.588 291.218 236.62Z" fill="#F29111"/>
<path d="M276.554 233.309C276.771 232.341 276.428 231.44 275.788 231.296C275.148 231.153 274.453 231.822 274.236 232.79C274.02 233.758 274.363 234.659 275.003 234.803C275.643 234.946 276.337 234.277 276.554 233.309Z" fill="#F29111"/>
<path d="M285.359 235.286C285.576 234.317 285.233 233.416 284.593 233.273C283.953 233.13 283.258 233.798 283.041 234.766C282.824 235.735 283.167 236.636 283.807 236.779C284.447 236.923 285.142 236.254 285.359 235.286Z" fill="#F29111"/>
<path d="M294.171 237.262C294.388 236.294 294.045 235.393 293.405 235.249C292.765 235.106 292.071 235.775 291.854 236.743C291.637 237.711 291.98 238.612 292.62 238.756C293.26 238.899 293.954 238.23 294.171 237.262Z" fill="#F29111"/>
<path d="M271.617 269.157C271.834 268.188 271.491 267.287 270.851 267.144C270.211 267.001 269.516 267.669 269.299 268.638C269.082 269.606 269.425 270.507 270.065 270.65C270.705 270.794 271.4 270.125 271.617 269.157Z" fill="#F29111"/>
<path d="M270.617 273.538C270.834 272.569 270.491 271.668 269.851 271.525C269.211 271.381 268.516 272.05 268.299 273.018C268.082 273.987 268.425 274.888 269.065 275.031C269.705 275.174 270.4 274.506 270.617 273.538Z" fill="#F29111"/>
<path d="M280.421 271.131C280.638 270.163 280.295 269.262 279.655 269.119C279.015 268.975 278.321 269.644 278.104 270.612C277.887 271.58 278.23 272.481 278.87 272.625C279.51 272.768 280.204 272.1 280.421 271.131Z" fill="#F29111"/>
<path d="M279.429 275.514C279.646 274.546 279.303 273.645 278.663 273.501C278.023 273.358 277.328 274.027 277.111 274.995C276.895 275.963 277.238 276.864 277.878 277.008C278.518 277.151 279.212 276.482 279.429 275.514Z" fill="#F29111"/>
<path d="M289.195 273.1C289.412 272.132 289.069 271.231 288.429 271.087C287.789 270.944 287.094 271.613 286.877 272.581C286.66 273.549 287.003 274.45 287.643 274.594C288.283 274.737 288.978 274.068 289.195 273.1Z" fill="#F29111"/>
<path d="M288.234 277.491C288.451 276.522 288.108 275.621 287.468 275.478C286.828 275.335 286.133 276.003 285.916 276.971C285.699 277.94 286.042 278.841 286.682 278.984C287.322 279.128 288.017 278.459 288.234 277.491Z" fill="#F29111"/>
<path d="M265.749 267.85C265.966 266.882 265.623 265.981 264.983 265.837C264.343 265.694 263.649 266.363 263.432 267.331C263.215 268.299 263.558 269.2 264.198 269.344C264.838 269.487 265.533 268.818 265.749 267.85Z" fill="#F29111"/>
<path d="M264.757 272.233C264.974 271.265 264.631 270.364 263.991 270.22C263.351 270.077 262.657 270.745 262.44 271.714C262.223 272.682 262.566 273.583 263.206 273.726C263.846 273.87 264.54 273.201 264.757 272.233Z" fill="#F29111"/>
<path d="M274.539 269.79C274.755 268.821 274.412 267.92 273.772 267.777C273.132 267.633 272.438 268.302 272.221 269.27C272.004 270.239 272.347 271.14 272.987 271.283C273.627 271.426 274.322 270.758 274.539 269.79Z" fill="#F29111"/>
<path d="M273.562 274.209C273.779 273.241 273.436 272.34 272.796 272.197C272.156 272.053 271.461 272.722 271.244 273.69C271.027 274.658 271.37 275.56 272.01 275.703C272.65 275.846 273.345 275.178 273.562 274.209Z" fill="#F29111"/>
<path d="M283.343 271.766C283.56 270.798 283.217 269.897 282.577 269.753C281.937 269.61 281.242 270.279 281.026 271.247C280.809 272.215 281.152 273.116 281.792 273.26C282.432 273.403 283.126 272.734 283.343 271.766Z" fill="#F29111"/>
<path d="M282.374 276.186C282.591 275.218 282.248 274.317 281.608 274.173C280.968 274.03 280.274 274.699 280.057 275.667C279.84 276.635 280.183 277.536 280.823 277.68C281.463 277.823 282.158 277.154 282.374 276.186Z" fill="#F29111"/>
<path d="M268.671 268.485C268.888 267.517 268.545 266.616 267.905 266.472C267.265 266.329 266.571 266.997 266.354 267.966C266.137 268.934 266.48 269.835 267.12 269.978C267.76 270.122 268.454 269.453 268.671 268.485Z" fill="#F29111"/>
<path d="M267.703 272.905C267.92 271.937 267.577 271.035 266.936 270.892C266.296 270.749 265.602 271.417 265.385 272.386C265.168 273.354 265.511 274.255 266.151 274.398C266.791 274.542 267.486 273.873 267.703 272.905Z" fill="#F29111"/>
<path d="M277.476 270.461C277.693 269.493 277.35 268.592 276.71 268.449C276.07 268.305 275.375 268.974 275.158 269.942C274.941 270.91 275.284 271.812 275.924 271.955C276.564 272.098 277.259 271.43 277.476 270.461Z" fill="#F29111"/>
<path d="M276.484 274.844C276.701 273.876 276.358 272.975 275.718 272.832C275.078 272.688 274.383 273.357 274.166 274.325C273.949 275.293 274.292 276.194 274.932 276.338C275.572 276.481 276.267 275.812 276.484 274.844Z" fill="#F29111"/>
<path d="M286.289 272.438C286.505 271.47 286.162 270.569 285.522 270.425C284.882 270.282 284.188 270.951 283.971 271.919C283.754 272.887 284.097 273.788 284.737 273.931C285.377 274.075 286.072 273.406 286.289 272.438Z" fill="#F29111"/>
<path d="M285.289 276.821C285.505 275.853 285.162 274.951 284.522 274.808C283.882 274.665 283.188 275.333 282.971 276.302C282.754 277.27 283.097 278.171 283.737 278.314C284.377 278.458 285.072 277.789 285.289 276.821Z" fill="#F29111"/>
</g>
<g filter="url(#filter3_d_2831_14413)">
<path d="M347.503 341.078L351.157 326.522C351.583 324.756 352.801 323.294 354.445 322.503L367.052 316.504C369.579 315.316 372.594 315.956 374.36 318.118L410.901 362.271C412.911 364.677 412.728 368.24 410.505 370.462L408.739 372.229C405.876 375.091 401.461 375.73 397.898 373.782L350.487 347.929C348.051 346.559 346.833 343.757 347.503 341.078Z" fill="white"/>
<path d="M397.898 373.72L368.117 357.459L396.589 344.975L410.87 362.24C412.88 364.646 412.697 368.208 410.474 370.431L408.738 372.167C405.876 375.029 401.461 375.669 397.898 373.72Z" fill="#F29111"/>
</g>
<g filter="url(#filter4_d_2831_14413)">
<path d="M200.181 309.896L205.114 322.32C205.723 323.842 205.601 325.547 204.81 326.979L198.872 337.758C197.593 340.042 194.883 341.138 192.386 340.316L153.348 327.709C150.76 326.887 149.176 324.299 149.633 321.619L150.059 318.97C150.638 315.468 153.409 312.728 156.911 312.18L194.213 306.485C196.801 306.12 199.237 307.521 200.181 309.896Z" fill="white"/>
</g>
<path d="M156.883 307.369L156.974 306.547C156.518 306.547 156.091 306.547 155.635 306.547L153.381 313.459C153.107 314.281 153.594 315.164 154.447 315.438L155.574 315.804L158.649 316.748C159.502 317.022 160.415 316.565 160.689 315.743L160.933 315.012C158.223 313.49 156.518 310.566 156.883 307.369Z" fill="#001133"/>
<path d="M183.615 291.961C183.615 291.961 170.917 332.887 164.096 336.449C164.096 336.449 157.275 340.56 148.109 335.779C148.109 335.779 162.726 298.173 163.274 289.951L183.615 291.961Z" fill="#2C4D6D"/>
<path d="M153.105 337.118C155.267 331.515 167.021 300.699 169.031 290.011L163.336 289.463C162.788 297.654 148.172 335.291 148.172 335.291C149.938 336.174 151.582 336.753 153.105 337.118Z" fill="#76B4CF"/>
<path d="M157.25 286.236L156.58 292.418C156.154 296.285 159.077 299.756 163.066 300.183L178.444 301.827C182.433 302.253 186.026 299.482 186.452 295.615L187.122 289.434L157.25 286.236Z" fill="#002C51"/>
<path d="M180.454 296.62L162.244 294.671C159.991 294.427 158.012 293.362 156.641 291.809L156.58 292.448C156.154 296.315 159.077 299.787 163.066 300.213L178.444 301.857C182.433 302.284 186.026 299.513 186.452 295.645L186.513 295.006C184.869 296.224 182.707 296.863 180.454 296.62Z" fill="#001537"/>
<path d="M187.425 256.363L183.375 294.061C193.88 294.701 203.077 287.332 204.142 277.222C205.269 267.112 197.839 257.947 187.425 256.363Z" fill="#2C4D6D"/>
<path d="M170.675 254.537L187.423 256.334L183.373 294.062L166.625 292.265L170.675 254.537Z" fill="#AED2E4"/>
<path d="M97.7771 214.434C99.4519 220.402 98.9647 241.169 96.346 265.682C93.7272 290.195 89.8295 310.566 86.9062 316.047C96.1633 307.46 126.492 287.972 166.626 292.266L170.676 254.507C130.512 250.244 104.994 224.756 97.7771 214.434Z" fill="#2C4D6D"/>
<path d="M97.6199 265.804C94.6053 293.879 89.8246 316.352 86.9013 316.047C83.978 315.743 84.0389 292.722 87.0535 264.677C90.0682 236.601 94.8794 214.098 97.7722 214.433C98.4117 214.494 100.635 237.759 97.6199 265.804Z" fill="#002447"/>
<path d="M80.6641 265.56C80.6945 265.469 80.6945 265.408 80.6945 265.316C80.6945 265.408 80.6641 265.469 80.6641 265.56Z" fill="#AED2E4"/>
<path d="M97.746 252.587C89.0067 252.1 81.3636 258.282 80.4805 266.777C79.567 275.273 85.718 282.916 94.366 284.317L97.746 252.587Z" fill="#2C4D6D"/>
<path d="M97.7771 214.434C99.4519 220.402 98.9647 241.169 96.346 265.682C93.7272 290.195 89.8295 310.566 86.9062 316.047C89.0073 314.099 92.2351 311.571 96.3764 308.892C101.035 295.463 104.172 281.638 105.755 267.6C107.4 252.954 107.339 238.124 105.512 223.417C102.04 219.915 99.4215 216.778 97.7771 214.434Z" fill="#AED2E4"/>
<path d="M90.8011 267.265C90.3748 271.346 88.0605 274.452 85.6245 274.208C83.2189 273.964 81.605 270.432 82.0618 266.321C82.4881 262.241 84.8023 259.135 87.2384 259.379C89.644 259.653 91.2579 263.154 90.8011 267.265Z" fill="#B9E5FB"/>
<path d="M150.551 300.334C150.673 298.933 152.074 298.081 153.292 298.629L165.685 304.323C167.939 305.358 168.944 308.099 167.969 310.474L160.052 329.749C159.078 332.125 156.489 333.19 154.236 332.185L147.75 329.201L150.551 300.334Z" fill="#F29111"/>
<path d="M31.6685 212.516L65.4079 229.325C66.0169 229.629 66.2605 230.36 65.956 230.969L64.8598 233.161C64.5552 233.77 63.8244 234.014 63.2154 233.71L29.4761 216.901C28.8671 216.596 28.6235 215.865 28.928 215.256L30.0242 213.064C30.3287 212.455 31.0595 212.211 31.6685 212.516Z" fill="white"/>
<path d="M24.2387 305.452L63.0633 294.033C63.7028 293.851 64.0682 293.181 63.8854 292.511L63.1851 290.166C63.0024 289.527 62.3325 289.161 61.6626 289.344L22.8379 300.763C22.1985 300.946 21.8331 301.616 22.0158 302.285L22.7161 304.63C22.9293 305.27 23.5992 305.635 24.2387 305.452Z" fill="white"/>
<path d="M20.9205 259.196L60.9632 264.221C61.6331 264.312 62.2421 263.825 62.3335 263.155L62.638 260.749C62.7293 260.08 62.2421 259.471 61.5722 259.379L21.5296 254.355C20.8596 254.263 20.2506 254.751 20.1593 255.421L19.8548 257.826C19.7634 258.496 20.2506 259.105 20.9205 259.196Z" fill="white"/>
<defs>
<filter id="filter0_d_2831_14413" x="215.297" y="101.402" width="59.2695" height="97.7363" filterUnits="userSpaceOnUse" color-interpolation-filters="sRGB">
<feFlood flood-opacity="0" result="BackgroundImageFix"/>
<feColorMatrix in="SourceAlpha" type="matrix" values="0 0 0 0 0 0 0 0 0 0 0 0 0 0 0 0 0 0 127 0" result="hardAlpha"/>
<feOffset/>
<feGaussianBlur stdDeviation="4"/>
<feComposite in2="hardAlpha" operator="out"/>
<feColorMatrix type="matrix" values="0 0 0 0 0 0 0 0 0 0 0 0 0 0 0 0 0 0 0.25 0"/>
<feBlend mode="normal" in2="BackgroundImageFix" result="effect1_dropShadow_2831_14413"/>
<feBlend mode="normal" in="SourceGraphic" in2="effect1_dropShadow_2831_14413" result="shape"/>
</filter>
<filter id="filter1_d_2831_14413" x="181.117" y="138.77" width="312.57" height="226.799" filterUnits="userSpaceOnUse" color-interpolation-filters="sRGB">
<feFlood flood-opacity="0" result="BackgroundImageFix"/>
<feColorMatrix in="SourceAlpha" type="matrix" values="0 0 0 0 0 0 0 0 0 0 0 0 0 0 0 0 0 0 127 0" result="hardAlpha"/>
<feOffset dy="4"/>
<feGaussianBlur stdDeviation="4.5"/>
<feComposite in2="hardAlpha" operator="out"/>
<feColorMatrix type="matrix" values="0 0 0 0 0 0 0 0 0 0 0 0 0 0 0 0 0 0 0.25 0"/>
<feBlend mode="normal" in2="BackgroundImageFix" result="effect1_dropShadow_2831_14413"/>
<feBlend mode="normal" in="SourceGraphic" in2="effect1_dropShadow_2831_14413" result="shape"/>
</filter>
<filter id="filter2_d_2831_14413" x="189.117" y="141.77" width="296.57" height="210.799" filterUnits="userSpaceOnUse" color-interpolation-filters="sRGB">
<feFlood flood-opacity="0" result="BackgroundImageFix"/>
<feColorMatrix in="SourceAlpha" type="matrix" values="0 0 0 0 0 0 0 0 0 0 0 0 0 0 0 0 0 0 127 0" result="hardAlpha"/>
<feOffset dy="-1"/>
<feGaussianBlur stdDeviation="0.5"/>
<feComposite in2="hardAlpha" operator="out"/>
<feColorMatrix type="matrix" values="0 0 0 0 0 0 0 0 0 0 0 0 0 0 0 0 0 0 0.1 0"/>
<feBlend mode="normal" in2="BackgroundImageFix" result="effect1_dropShadow_2831_14413"/>
<feBlend mode="normal" in="SourceGraphic" in2="effect1_dropShadow_2831_14413" result="shape"/>
</filter>
<filter id="filter3_d_2831_14413" x="339.32" y="307.914" width="80.9766" height="74.9883" filterUnits="userSpaceOnUse" color-interpolation-filters="sRGB">
<feFlood flood-opacity="0" result="BackgroundImageFix"/>
<feColorMatrix in="SourceAlpha" type="matrix" values="0 0 0 0 0 0 0 0 0 0 0 0 0 0 0 0 0 0 127 0" result="hardAlpha"/>
<feOffset/>
<feGaussianBlur stdDeviation="4"/>
<feComposite in2="hardAlpha" operator="out"/>
<feColorMatrix type="matrix" values="0 0 0 0 0 0 0 0 0 0 0 0 0 0 0 0 0 0 0.25 0"/>
<feBlend mode="normal" in2="BackgroundImageFix" result="effect1_dropShadow_2831_14413"/>
<feBlend mode="normal" in="SourceGraphic" in2="effect1_dropShadow_2831_14413" result="shape"/>
</filter>
<filter id="filter4_d_2831_14413" x="141.555" y="298.428" width="71.9453" height="50.1602" filterUnits="userSpaceOnUse" color-interpolation-filters="sRGB">
<feFlood flood-opacity="0" result="BackgroundImageFix"/>
<feColorMatrix in="SourceAlpha" type="matrix" values="0 0 0 0 0 0 0 0 0 0 0 0 0 0 0 0 0 0 127 0" result="hardAlpha"/>
<feOffset/>
<feGaussianBlur stdDeviation="4"/>
<feComposite in2="hardAlpha" operator="out"/>
<feColorMatrix type="matrix" values="0 0 0 0 0 0 0 0 0 0 0 0 0 0 0 0 0 0 0.25 0"/>
<feBlend mode="normal" in2="BackgroundImageFix" result="effect1_dropShadow_2831_14413"/>
<feBlend mode="normal" in="SourceGraphic" in2="effect1_dropShadow_2831_14413" result="shape"/>
</filter>
</defs>
</svg>
