<svg width="500" height="500" viewBox="0 0 500 500" fill="none" xmlns="http://www.w3.org/2000/svg">
<path d="M249.181 452.177C320.897 452.177 379.035 441.335 379.035 427.96C379.035 414.585 320.897 403.742 249.181 403.742C177.465 403.742 119.328 414.585 119.328 427.96C119.328 441.335 177.465 452.177 249.181 452.177Z" fill="#A4AFBF" fill-opacity="0.7"/>
<g filter="url(#filter0_d_2831_25096)">
<path d="M397.008 81.0229C393.489 113.202 360.121 178.058 340.067 208.546L283.656 190.632C313.439 138.116 346.74 102.918 371.077 78.8002C376.622 73.3264 384.889 71.6345 392.161 74.4543L392.991 74.7861C395.58 75.7813 397.307 78.2694 397.008 81.0229Z" fill="white"/>
<path d="M396.996 80.7236C395.07 94.3251 390.223 114.263 375.78 144.22C375.78 144.22 375.514 113.036 366.981 108.955C358.448 104.875 330.492 122.623 330.492 122.623C340.42 111.211 358.349 88.6191 372.924 77.0412C377.805 73.1598 384.28 72.3636 390.422 73.5579L392.049 73.8565C395.236 74.5531 397.428 77.5057 396.996 80.7236Z" fill="#FF9100"/>
</g>
<g filter="url(#filter1_d_2831_25096)">
<path d="M112.385 81.0229C115.905 113.202 149.273 178.058 169.327 208.546L225.737 190.632C195.955 138.116 162.653 102.918 138.316 78.8002C132.771 73.3264 124.504 71.6345 117.233 74.4543L116.403 74.7861C113.813 75.7813 112.086 78.2694 112.385 81.0229Z" fill="white"/>
<path d="M112.335 80.7217C114.227 93.9251 119.208 114.427 133.551 144.251C133.551 144.251 133.817 113.067 142.35 108.986C150.882 104.906 178.872 122.654 178.872 122.654C168.944 111.242 151.015 88.6504 136.44 77.0725C131.559 73.1911 125.084 72.3949 118.942 73.5891L117.315 73.9209C114.095 74.5512 111.87 77.5037 112.335 80.7217Z" fill="#FF9100"/>
</g>
<g filter="url(#filter2_d_2831_25096)">
<g filter="url(#filter3_d_2831_25096)">
<path d="M363.411 264.606C363.411 319.543 312.446 364.063 249.561 364.063C186.676 364.063 135.711 319.543 135.711 264.606C135.711 209.669 186.676 165.148 249.561 165.148C312.446 165.148 363.411 209.669 363.411 264.606Z" fill="white"/>
</g>
</g>
<path d="M249.349 344.365C300.692 344.365 342.314 312.357 342.314 272.874C342.314 233.39 300.692 201.383 249.349 201.383C198.005 201.383 156.383 233.39 156.383 272.874C156.383 312.357 198.005 344.365 249.349 344.365Z" fill="#35373A"/>
<g filter="url(#filter4_d_2831_25096)">
<path d="M133.212 348.917L137.196 364.84C137.661 366.765 138.989 368.357 140.782 369.22L154.594 375.788C157.35 377.082 160.637 376.385 162.562 374.03L202.504 325.794C204.696 323.173 204.497 319.292 202.073 316.87L200.114 314.913C196.993 311.794 192.179 311.098 188.294 313.221L136.432 341.452C133.809 342.945 132.448 345.997 133.212 348.917Z" fill="white"/>
<path d="M188.261 313.255L155.523 331.136L186.8 344.837L202.504 325.861C204.696 323.24 204.497 319.359 202.073 316.937L200.081 314.947C196.96 311.828 192.145 311.132 188.261 313.255Z" fill="#F29111"/>
</g>
<g filter="url(#filter5_d_2831_25096)">
<path d="M364.82 348.918L360.835 364.841C360.37 366.766 359.042 368.358 357.249 369.22L343.437 375.789C340.682 377.083 337.395 376.386 335.469 374.031L295.527 325.795C293.335 323.174 293.535 319.293 295.958 316.871L297.917 314.914C301.038 311.795 305.853 311.099 309.737 313.222L361.599 341.453C364.222 342.946 365.583 345.998 364.82 348.918Z" fill="white"/>
<path d="M309.771 313.256L342.508 331.137L311.231 344.838L295.527 325.862C293.335 323.241 293.535 319.36 295.958 316.938L297.951 314.948C301.072 311.829 305.886 311.133 309.771 313.256Z" fill="#F29111"/>
</g>
<path fill-rule="evenodd" clip-rule="evenodd" d="M266.027 314.257C266.008 314.661 265.815 315.045 265.499 315.298C252.709 325.499 239.813 319.787 234.44 315.255C234.152 315.013 233.99 314.658 233.977 314.282C233.936 313.059 235.453 312.299 236.501 312.93C242.363 316.462 253.389 319.471 263.548 312.93C264.6 312.253 266.085 313.007 266.027 314.257Z" fill="#F29111"/>
<mask id="mask0_2831_25096" style="mask-type:alpha" maskUnits="userSpaceOnUse" x="180" y="236" width="61" height="58">
<g clip-path="url(#clip0_2831_25096)">
<path d="M193.677 236.047C194.662 235.953 195.584 235.906 196.449 235.906C203.375 235.906 206.696 238.847 210.5 243.297C214.303 238.847 217.625 235.906 224.55 235.906C225.416 235.906 226.337 235.951 227.32 236.047C233.314 236.621 240.244 242.011 241.089 252.337V255.775C240.302 265.659 232.704 277.85 210.498 293.147C188.291 277.85 180.693 265.659 179.906 255.775V252.337C180.753 242.011 187.683 236.621 193.677 236.047Z" fill="#FF213D"/>
<path d="M224.55 236.518C225.399 236.518 226.31 236.564 227.26 236.654C230.281 236.943 233.35 238.51 235.682 240.951C238.433 243.833 240.087 247.777 240.466 252.36V255.748C240.045 260.973 237.645 266.462 233.331 272.059C228.366 278.504 220.685 285.345 210.5 292.397C200.314 285.345 192.633 278.504 187.668 272.059C183.355 266.46 180.952 260.973 180.531 255.748V252.36C180.91 247.777 182.566 243.833 185.317 240.951C187.65 238.51 190.718 236.943 193.739 236.654C194.689 236.562 195.602 236.518 196.449 236.518C203.346 236.518 206.549 239.627 210.022 243.69L210.5 244.248L210.977 243.69C214.45 239.627 217.654 236.518 224.55 236.518ZM224.55 235.906C217.625 235.906 214.303 238.847 210.5 243.297C206.696 238.847 203.377 235.906 196.449 235.906C195.584 235.906 194.662 235.951 193.677 236.047C187.685 236.621 180.753 242.011 179.906 252.337V255.775C180.693 265.659 188.293 277.85 210.498 293.147C232.704 277.85 240.302 265.659 241.089 255.775V252.337C240.244 242.011 233.314 236.621 227.32 236.047C226.335 235.953 225.413 235.906 224.55 235.906Z" fill="#FF213D"/>
</g>
</mask>
<g mask="url(#mask0_2831_25096)">
<path d="M204.044 263.268C204.044 265.25 202.437 266.856 200.455 266.856C198.474 266.856 196.867 265.25 196.867 263.268C196.867 261.286 198.474 259.68 200.455 259.68C202.437 259.68 204.044 261.286 204.044 263.268Z" fill="#F29111"/>
<path d="M204.044 272.241C204.044 274.222 202.437 275.829 200.455 275.829C198.474 275.829 196.867 274.222 196.867 272.241C196.867 270.259 198.474 268.652 200.455 268.652C202.437 268.652 204.044 270.259 204.044 272.241Z" fill="#F29111"/>
<path d="M204.044 281.209C204.044 283.191 202.437 284.798 200.455 284.798C198.474 284.798 196.867 283.191 196.867 281.209C196.867 279.228 198.474 277.621 200.455 277.621C202.437 277.621 204.044 279.228 204.044 281.209Z" fill="#F29111"/>
<path d="M204.044 290.182C204.044 292.164 202.437 293.77 200.455 293.77C198.474 293.77 196.867 292.164 196.867 290.182C196.867 288.2 198.474 286.594 200.455 286.594C202.437 286.594 204.044 288.2 204.044 290.182Z" fill="#F29111"/>
<path d="M230.95 263.268C230.95 265.25 229.343 266.856 227.362 266.856C225.38 266.856 223.773 265.25 223.773 263.268C223.773 261.286 225.38 259.68 227.362 259.68C229.343 259.68 230.95 261.286 230.95 263.268Z" fill="#F29111"/>
<path d="M230.95 272.241C230.95 274.222 229.343 275.829 227.362 275.829C225.38 275.829 223.773 274.222 223.773 272.241C223.773 270.259 225.38 268.652 227.362 268.652C229.343 268.652 230.95 270.259 230.95 272.241Z" fill="#F29111"/>
<path d="M230.95 281.209C230.95 283.191 229.343 284.798 227.362 284.798C225.38 284.798 223.773 283.191 223.773 281.209C223.773 279.228 225.38 277.621 227.362 277.621C229.343 277.621 230.95 279.228 230.95 281.209Z" fill="#F29111"/>
<path d="M230.95 290.182C230.95 292.164 229.343 293.77 227.362 293.77C225.38 293.77 223.773 292.164 223.773 290.182C223.773 288.2 225.38 286.594 227.362 286.594C229.343 286.594 230.95 288.2 230.95 290.182Z" fill="#F29111"/>
<path d="M186.098 263.268C186.098 265.25 184.492 266.856 182.51 266.856C180.528 266.856 178.922 265.25 178.922 263.268C178.922 261.286 180.528 259.68 182.51 259.68C184.492 259.68 186.098 261.286 186.098 263.268Z" fill="#F29111"/>
<path d="M186.098 272.241C186.098 274.222 184.492 275.829 182.51 275.829C180.528 275.829 178.922 274.222 178.922 272.241C178.922 270.259 180.528 268.652 182.51 268.652C184.492 268.652 186.098 270.259 186.098 272.241Z" fill="#F29111"/>
<path d="M186.098 281.209C186.098 283.191 184.492 284.798 182.51 284.798C180.528 284.798 178.922 283.191 178.922 281.209C178.922 279.228 180.528 277.621 182.51 277.621C184.492 277.621 186.098 279.228 186.098 281.209Z" fill="#F29111"/>
<path d="M186.098 290.182C186.098 292.164 184.492 293.77 182.51 293.77C180.528 293.77 178.922 292.164 178.922 290.182C178.922 288.2 180.528 286.594 182.51 286.594C184.492 286.594 186.098 288.2 186.098 290.182Z" fill="#F29111"/>
<path d="M213.012 263.268C213.012 265.25 211.406 266.856 209.424 266.856C207.442 266.856 205.836 265.25 205.836 263.268C205.836 261.286 207.442 259.68 209.424 259.68C211.406 259.68 213.012 261.286 213.012 263.268Z" fill="#F29111"/>
<path d="M213.012 272.241C213.012 274.222 211.406 275.829 209.424 275.829C207.442 275.829 205.836 274.222 205.836 272.241C205.836 270.259 207.442 268.652 209.424 268.652C211.406 268.652 213.012 270.259 213.012 272.241Z" fill="#F29111"/>
<path d="M213.012 281.209C213.012 283.191 211.406 284.798 209.424 284.798C207.442 284.798 205.836 283.191 205.836 281.209C205.836 279.228 207.442 277.621 209.424 277.621C211.406 277.621 213.012 279.228 213.012 281.209Z" fill="#F29111"/>
<path d="M213.012 290.182C213.012 292.164 211.406 293.77 209.424 293.77C207.442 293.77 205.836 292.164 205.836 290.182C205.836 288.2 207.442 286.594 209.424 286.594C211.406 286.594 213.012 288.2 213.012 290.182Z" fill="#F29111"/>
<path d="M239.926 263.268C239.926 265.25 238.32 266.856 236.338 266.856C234.357 266.856 232.75 265.25 232.75 263.268C232.75 261.286 234.357 259.68 236.338 259.68C238.32 259.68 239.926 261.286 239.926 263.268Z" fill="#F29111"/>
<path d="M239.926 272.241C239.926 274.222 238.32 275.829 236.338 275.829C234.357 275.829 232.75 274.222 232.75 272.241C232.75 270.259 234.357 268.652 236.338 268.652C238.32 268.652 239.926 270.259 239.926 272.241Z" fill="#F29111"/>
<path d="M239.926 281.209C239.926 283.191 238.32 284.798 236.338 284.798C234.357 284.798 232.75 283.191 232.75 281.209C232.75 279.228 234.357 277.621 236.338 277.621C238.32 277.621 239.926 279.228 239.926 281.209Z" fill="#F29111"/>
<path d="M239.926 290.182C239.926 292.164 238.32 293.77 236.338 293.77C234.357 293.77 232.75 292.164 232.75 290.182C232.75 288.2 234.357 286.594 236.338 286.594C238.32 286.594 239.926 288.2 239.926 290.182Z" fill="#F29111"/>
<path d="M195.067 263.268C195.067 265.25 193.461 266.856 191.479 266.856C189.497 266.856 187.891 265.25 187.891 263.268C187.891 261.286 189.497 259.68 191.479 259.68C193.461 259.68 195.067 261.286 195.067 263.268Z" fill="#F29111"/>
<path d="M195.067 272.241C195.067 274.222 193.461 275.829 191.479 275.829C189.497 275.829 187.891 274.222 187.891 272.241C187.891 270.259 189.497 268.652 191.479 268.652C193.461 268.652 195.067 270.259 195.067 272.241Z" fill="#F29111"/>
<path d="M195.067 281.209C195.067 283.191 193.461 284.798 191.479 284.798C189.497 284.798 187.891 283.191 187.891 281.209C187.891 279.228 189.497 277.621 191.479 277.621C193.461 277.621 195.067 279.228 195.067 281.209Z" fill="#F29111"/>
<path d="M195.067 290.182C195.067 292.164 193.461 293.77 191.479 293.77C189.497 293.77 187.891 292.164 187.891 290.182C187.891 288.2 189.497 286.594 191.479 286.594C193.461 286.594 195.067 288.2 195.067 290.182Z" fill="#F29111"/>
<path d="M221.981 263.268C221.981 265.25 220.375 266.856 218.393 266.856C216.411 266.856 214.805 265.25 214.805 263.268C214.805 261.286 216.411 259.68 218.393 259.68C220.375 259.68 221.981 261.286 221.981 263.268Z" fill="#F29111"/>
<path d="M221.981 272.241C221.981 274.222 220.375 275.829 218.393 275.829C216.411 275.829 214.805 274.222 214.805 272.241C214.805 270.259 216.411 268.652 218.393 268.652C220.375 268.652 221.981 270.259 221.981 272.241Z" fill="#F29111"/>
<path d="M221.981 281.209C221.981 283.191 220.375 284.798 218.393 284.798C216.411 284.798 214.805 283.191 214.805 281.209C214.805 279.228 216.411 277.621 218.393 277.621C220.375 277.621 221.981 279.228 221.981 281.209Z" fill="#F29111"/>
<path d="M221.981 290.182C221.981 292.164 220.375 293.77 218.393 293.77C216.411 293.77 214.805 292.164 214.805 290.182C214.805 288.2 216.411 286.594 218.393 286.594C220.375 286.594 221.981 288.2 221.981 290.182Z" fill="#F29111"/>
<path d="M204.044 236.358C204.044 238.339 202.437 239.946 200.455 239.946C198.474 239.946 196.867 238.339 196.867 236.358C196.867 234.376 198.474 232.77 200.455 232.77C202.437 232.77 204.044 234.376 204.044 236.358Z" fill="#F29111"/>
<path d="M204.044 245.327C204.044 247.308 202.437 248.915 200.455 248.915C198.474 248.915 196.867 247.308 196.867 245.327C196.867 243.345 198.474 241.738 200.455 241.738C202.437 241.738 204.044 243.345 204.044 245.327Z" fill="#F29111"/>
<path d="M204.044 254.299C204.044 256.281 202.437 257.887 200.455 257.887C198.474 257.887 196.867 256.281 196.867 254.299C196.867 252.317 198.474 250.711 200.455 250.711C202.437 250.711 204.044 252.317 204.044 254.299Z" fill="#F29111"/>
<path d="M230.95 236.358C230.95 238.339 229.343 239.946 227.362 239.946C225.38 239.946 223.773 238.339 223.773 236.358C223.773 234.376 225.38 232.77 227.362 232.77C229.343 232.77 230.95 234.376 230.95 236.358Z" fill="#F29111"/>
<path d="M230.95 245.327C230.95 247.308 229.343 248.915 227.362 248.915C225.38 248.915 223.773 247.308 223.773 245.327C223.773 243.345 225.38 241.738 227.362 241.738C229.343 241.738 230.95 243.345 230.95 245.327Z" fill="#F29111"/>
<path d="M230.95 254.299C230.95 256.281 229.343 257.887 227.362 257.887C225.38 257.887 223.773 256.281 223.773 254.299C223.773 252.317 225.38 250.711 227.362 250.711C229.343 250.711 230.95 252.317 230.95 254.299Z" fill="#F29111"/>
<path d="M186.098 236.358C186.098 238.339 184.492 239.946 182.51 239.946C180.528 239.946 178.922 238.339 178.922 236.358C178.922 234.376 180.528 232.77 182.51 232.77C184.492 232.77 186.098 234.376 186.098 236.358Z" fill="#F29111"/>
<path d="M186.098 245.327C186.098 247.308 184.492 248.915 182.51 248.915C180.528 248.915 178.922 247.308 178.922 245.327C178.922 243.345 180.528 241.738 182.51 241.738C184.492 241.738 186.098 243.345 186.098 245.327Z" fill="#F29111"/>
<path d="M186.098 254.299C186.098 256.281 184.492 257.887 182.51 257.887C180.528 257.887 178.922 256.281 178.922 254.299C178.922 252.317 180.528 250.711 182.51 250.711C184.492 250.711 186.098 252.317 186.098 254.299Z" fill="#F29111"/>
<path d="M213.012 236.358C213.012 238.339 211.406 239.946 209.424 239.946C207.442 239.946 205.836 238.339 205.836 236.358C205.836 234.376 207.442 232.77 209.424 232.77C211.406 232.77 213.012 234.376 213.012 236.358Z" fill="#F29111"/>
<path d="M213.012 245.327C213.012 247.308 211.406 248.915 209.424 248.915C207.442 248.915 205.836 247.308 205.836 245.327C205.836 243.345 207.442 241.738 209.424 241.738C211.406 241.738 213.012 243.345 213.012 245.327Z" fill="#F29111"/>
<path d="M213.012 254.299C213.012 256.281 211.406 257.887 209.424 257.887C207.442 257.887 205.836 256.281 205.836 254.299C205.836 252.317 207.442 250.711 209.424 250.711C211.406 250.711 213.012 252.317 213.012 254.299Z" fill="#F29111"/>
<path d="M239.926 236.358C239.926 238.339 238.32 239.946 236.338 239.946C234.357 239.946 232.75 238.339 232.75 236.358C232.75 234.376 234.357 232.77 236.338 232.77C238.32 232.77 239.926 234.376 239.926 236.358Z" fill="#F29111"/>
<path d="M239.926 245.327C239.926 247.308 238.32 248.915 236.338 248.915C234.357 248.915 232.75 247.308 232.75 245.327C232.75 243.345 234.357 241.738 236.338 241.738C238.32 241.738 239.926 243.345 239.926 245.327Z" fill="#F29111"/>
<path d="M239.926 254.299C239.926 256.281 238.32 257.887 236.338 257.887C234.357 257.887 232.75 256.281 232.75 254.299C232.75 252.317 234.357 250.711 236.338 250.711C238.32 250.711 239.926 252.317 239.926 254.299Z" fill="#F29111"/>
<path d="M195.067 236.358C195.067 238.339 193.461 239.946 191.479 239.946C189.497 239.946 187.891 238.339 187.891 236.358C187.891 234.376 189.497 232.77 191.479 232.77C193.461 232.77 195.067 234.376 195.067 236.358Z" fill="#F29111"/>
<path d="M195.067 245.327C195.067 247.308 193.461 248.915 191.479 248.915C189.497 248.915 187.891 247.308 187.891 245.327C187.891 243.345 189.497 241.738 191.479 241.738C193.461 241.738 195.067 243.345 195.067 245.327Z" fill="#F29111"/>
<path d="M195.067 254.299C195.067 256.281 193.461 257.887 191.479 257.887C189.497 257.887 187.891 256.281 187.891 254.299C187.891 252.317 189.497 250.711 191.479 250.711C193.461 250.711 195.067 252.317 195.067 254.299Z" fill="#F29111"/>
<path d="M221.981 236.358C221.981 238.339 220.375 239.946 218.393 239.946C216.411 239.946 214.805 238.339 214.805 236.358C214.805 234.376 216.411 232.77 218.393 232.77C220.375 232.77 221.981 234.376 221.981 236.358Z" fill="#F29111"/>
<path d="M221.981 245.327C221.981 247.308 220.375 248.915 218.393 248.915C216.411 248.915 214.805 247.308 214.805 245.327C214.805 243.345 216.411 241.738 218.393 241.738C220.375 241.738 221.981 243.345 221.981 245.327Z" fill="#F29111"/>
<path d="M221.981 254.299C221.981 256.281 220.375 257.887 218.393 257.887C216.411 257.887 214.805 256.281 214.805 254.299C214.805 252.317 216.411 250.711 218.393 250.711C220.375 250.711 221.981 252.317 221.981 254.299Z" fill="#F29111"/>
</g>
<mask id="mask1_2831_25096" style="mask-type:alpha" maskUnits="userSpaceOnUse" x="257" y="236" width="61" height="58">
<g clip-path="url(#clip1_2831_25096)">
<path d="M270.677 236.047C271.662 235.953 272.584 235.906 273.449 235.906C280.375 235.906 283.696 238.847 287.5 243.297C291.303 238.847 294.625 235.906 301.55 235.906C302.416 235.906 303.337 235.951 304.32 236.047C310.314 236.621 317.244 242.011 318.089 252.337V255.775C317.302 265.659 309.704 277.85 287.498 293.147C265.291 277.85 257.693 265.659 256.906 255.775V252.337C257.753 242.011 264.683 236.621 270.677 236.047Z" fill="#FF213D"/>
<path d="M301.55 236.518C302.399 236.518 303.31 236.564 304.26 236.654C307.281 236.943 310.35 238.51 312.682 240.951C315.433 243.833 317.087 247.777 317.466 252.36V255.748C317.045 260.973 314.645 266.462 310.331 272.059C305.366 278.504 297.685 285.345 287.5 292.397C277.314 285.345 269.633 278.504 264.668 272.059C260.355 266.46 257.952 260.973 257.531 255.748V252.36C257.91 247.777 259.566 243.833 262.317 240.951C264.65 238.51 267.718 236.943 270.739 236.654C271.689 236.562 272.602 236.518 273.449 236.518C280.346 236.518 283.549 239.627 287.022 243.69L287.5 244.248L287.977 243.69C291.45 239.627 294.654 236.518 301.55 236.518ZM301.55 235.906C294.625 235.906 291.303 238.847 287.5 243.297C283.696 238.847 280.377 235.906 273.449 235.906C272.584 235.906 271.662 235.951 270.677 236.047C264.685 236.621 257.753 242.011 256.906 252.337V255.775C257.693 265.659 265.293 277.85 287.498 293.147C309.704 277.85 317.302 265.659 318.089 255.775V252.337C317.244 242.011 310.314 236.621 304.32 236.047C303.335 235.953 302.413 235.906 301.55 235.906Z" fill="#FF213D"/>
</g>
</mask>
<g mask="url(#mask1_2831_25096)">
<path d="M281.044 263.268C281.044 265.25 279.437 266.856 277.455 266.856C275.474 266.856 273.867 265.25 273.867 263.268C273.867 261.286 275.474 259.68 277.455 259.68C279.437 259.68 281.044 261.286 281.044 263.268Z" fill="#F29111"/>
<path d="M281.044 272.241C281.044 274.222 279.437 275.829 277.455 275.829C275.474 275.829 273.867 274.222 273.867 272.241C273.867 270.259 275.474 268.652 277.455 268.652C279.437 268.652 281.044 270.259 281.044 272.241Z" fill="#F29111"/>
<path d="M281.044 281.209C281.044 283.191 279.437 284.798 277.455 284.798C275.474 284.798 273.867 283.191 273.867 281.209C273.867 279.228 275.474 277.621 277.455 277.621C279.437 277.621 281.044 279.228 281.044 281.209Z" fill="#F29111"/>
<path d="M281.044 290.182C281.044 292.164 279.437 293.77 277.455 293.77C275.474 293.77 273.867 292.164 273.867 290.182C273.867 288.2 275.474 286.594 277.455 286.594C279.437 286.594 281.044 288.2 281.044 290.182Z" fill="#F29111"/>
<path d="M307.95 263.268C307.95 265.25 306.343 266.856 304.362 266.856C302.38 266.856 300.773 265.25 300.773 263.268C300.773 261.286 302.38 259.68 304.362 259.68C306.343 259.68 307.95 261.286 307.95 263.268Z" fill="#F29111"/>
<path d="M307.95 272.241C307.95 274.222 306.343 275.829 304.362 275.829C302.38 275.829 300.773 274.222 300.773 272.241C300.773 270.259 302.38 268.652 304.362 268.652C306.343 268.652 307.95 270.259 307.95 272.241Z" fill="#F29111"/>
<path d="M307.95 281.209C307.95 283.191 306.343 284.798 304.362 284.798C302.38 284.798 300.773 283.191 300.773 281.209C300.773 279.228 302.38 277.621 304.362 277.621C306.343 277.621 307.95 279.228 307.95 281.209Z" fill="#F29111"/>
<path d="M307.95 290.182C307.95 292.164 306.343 293.77 304.362 293.77C302.38 293.77 300.773 292.164 300.773 290.182C300.773 288.2 302.38 286.594 304.362 286.594C306.343 286.594 307.95 288.2 307.95 290.182Z" fill="#F29111"/>
<path d="M263.098 263.268C263.098 265.25 261.492 266.856 259.51 266.856C257.528 266.856 255.922 265.25 255.922 263.268C255.922 261.286 257.528 259.68 259.51 259.68C261.492 259.68 263.098 261.286 263.098 263.268Z" fill="#F29111"/>
<path d="M263.098 272.241C263.098 274.222 261.492 275.829 259.51 275.829C257.528 275.829 255.922 274.222 255.922 272.241C255.922 270.259 257.528 268.652 259.51 268.652C261.492 268.652 263.098 270.259 263.098 272.241Z" fill="#F29111"/>
<path d="M263.098 281.209C263.098 283.191 261.492 284.798 259.51 284.798C257.528 284.798 255.922 283.191 255.922 281.209C255.922 279.228 257.528 277.621 259.51 277.621C261.492 277.621 263.098 279.228 263.098 281.209Z" fill="#F29111"/>
<path d="M263.098 290.182C263.098 292.164 261.492 293.77 259.51 293.77C257.528 293.77 255.922 292.164 255.922 290.182C255.922 288.2 257.528 286.594 259.51 286.594C261.492 286.594 263.098 288.2 263.098 290.182Z" fill="#F29111"/>
<path d="M290.012 263.268C290.012 265.25 288.406 266.856 286.424 266.856C284.442 266.856 282.836 265.25 282.836 263.268C282.836 261.286 284.442 259.68 286.424 259.68C288.406 259.68 290.012 261.286 290.012 263.268Z" fill="#F29111"/>
<path d="M290.012 272.241C290.012 274.222 288.406 275.829 286.424 275.829C284.442 275.829 282.836 274.222 282.836 272.241C282.836 270.259 284.442 268.652 286.424 268.652C288.406 268.652 290.012 270.259 290.012 272.241Z" fill="#F29111"/>
<path d="M290.012 281.209C290.012 283.191 288.406 284.798 286.424 284.798C284.442 284.798 282.836 283.191 282.836 281.209C282.836 279.228 284.442 277.621 286.424 277.621C288.406 277.621 290.012 279.228 290.012 281.209Z" fill="#F29111"/>
<path d="M290.012 290.182C290.012 292.164 288.406 293.77 286.424 293.77C284.442 293.77 282.836 292.164 282.836 290.182C282.836 288.2 284.442 286.594 286.424 286.594C288.406 286.594 290.012 288.2 290.012 290.182Z" fill="#F29111"/>
<path d="M316.926 263.268C316.926 265.25 315.32 266.856 313.338 266.856C311.357 266.856 309.75 265.25 309.75 263.268C309.75 261.286 311.357 259.68 313.338 259.68C315.32 259.68 316.926 261.286 316.926 263.268Z" fill="#F29111"/>
<path d="M316.926 272.241C316.926 274.222 315.32 275.829 313.338 275.829C311.357 275.829 309.75 274.222 309.75 272.241C309.75 270.259 311.357 268.652 313.338 268.652C315.32 268.652 316.926 270.259 316.926 272.241Z" fill="#F29111"/>
<path d="M316.926 281.209C316.926 283.191 315.32 284.798 313.338 284.798C311.357 284.798 309.75 283.191 309.75 281.209C309.75 279.228 311.357 277.621 313.338 277.621C315.32 277.621 316.926 279.228 316.926 281.209Z" fill="#F29111"/>
<path d="M316.926 290.182C316.926 292.164 315.32 293.77 313.338 293.77C311.357 293.77 309.75 292.164 309.75 290.182C309.75 288.2 311.357 286.594 313.338 286.594C315.32 286.594 316.926 288.2 316.926 290.182Z" fill="#F29111"/>
<path d="M272.067 263.268C272.067 265.25 270.461 266.856 268.479 266.856C266.497 266.856 264.891 265.25 264.891 263.268C264.891 261.286 266.497 259.68 268.479 259.68C270.461 259.68 272.067 261.286 272.067 263.268Z" fill="#F29111"/>
<path d="M272.067 272.241C272.067 274.222 270.461 275.829 268.479 275.829C266.497 275.829 264.891 274.222 264.891 272.241C264.891 270.259 266.497 268.652 268.479 268.652C270.461 268.652 272.067 270.259 272.067 272.241Z" fill="#F29111"/>
<path d="M272.067 281.209C272.067 283.191 270.461 284.798 268.479 284.798C266.497 284.798 264.891 283.191 264.891 281.209C264.891 279.228 266.497 277.621 268.479 277.621C270.461 277.621 272.067 279.228 272.067 281.209Z" fill="#F29111"/>
<path d="M272.067 290.182C272.067 292.164 270.461 293.77 268.479 293.77C266.497 293.77 264.891 292.164 264.891 290.182C264.891 288.2 266.497 286.594 268.479 286.594C270.461 286.594 272.067 288.2 272.067 290.182Z" fill="#F29111"/>
<path d="M298.981 263.268C298.981 265.25 297.375 266.856 295.393 266.856C293.411 266.856 291.805 265.25 291.805 263.268C291.805 261.286 293.411 259.68 295.393 259.68C297.375 259.68 298.981 261.286 298.981 263.268Z" fill="#F29111"/>
<path d="M298.981 272.241C298.981 274.222 297.375 275.829 295.393 275.829C293.411 275.829 291.805 274.222 291.805 272.241C291.805 270.259 293.411 268.652 295.393 268.652C297.375 268.652 298.981 270.259 298.981 272.241Z" fill="#F29111"/>
<path d="M298.981 281.209C298.981 283.191 297.375 284.798 295.393 284.798C293.411 284.798 291.805 283.191 291.805 281.209C291.805 279.228 293.411 277.621 295.393 277.621C297.375 277.621 298.981 279.228 298.981 281.209Z" fill="#F29111"/>
<path d="M298.981 290.182C298.981 292.164 297.375 293.77 295.393 293.77C293.411 293.77 291.805 292.164 291.805 290.182C291.805 288.2 293.411 286.594 295.393 286.594C297.375 286.594 298.981 288.2 298.981 290.182Z" fill="#F29111"/>
<path d="M281.044 236.358C281.044 238.339 279.437 239.946 277.455 239.946C275.474 239.946 273.867 238.339 273.867 236.358C273.867 234.376 275.474 232.77 277.455 232.77C279.437 232.77 281.044 234.376 281.044 236.358Z" fill="#F29111"/>
<path d="M281.044 245.327C281.044 247.308 279.437 248.915 277.455 248.915C275.474 248.915 273.867 247.308 273.867 245.327C273.867 243.345 275.474 241.738 277.455 241.738C279.437 241.738 281.044 243.345 281.044 245.327Z" fill="#F29111"/>
<path d="M281.044 254.299C281.044 256.281 279.437 257.887 277.455 257.887C275.474 257.887 273.867 256.281 273.867 254.299C273.867 252.317 275.474 250.711 277.455 250.711C279.437 250.711 281.044 252.317 281.044 254.299Z" fill="#F29111"/>
<path d="M307.95 236.358C307.95 238.339 306.343 239.946 304.362 239.946C302.38 239.946 300.773 238.339 300.773 236.358C300.773 234.376 302.38 232.77 304.362 232.77C306.343 232.77 307.95 234.376 307.95 236.358Z" fill="#F29111"/>
<path d="M307.95 245.327C307.95 247.308 306.343 248.915 304.362 248.915C302.38 248.915 300.773 247.308 300.773 245.327C300.773 243.345 302.38 241.738 304.362 241.738C306.343 241.738 307.95 243.345 307.95 245.327Z" fill="#F29111"/>
<path d="M307.95 254.299C307.95 256.281 306.343 257.887 304.362 257.887C302.38 257.887 300.773 256.281 300.773 254.299C300.773 252.317 302.38 250.711 304.362 250.711C306.343 250.711 307.95 252.317 307.95 254.299Z" fill="#F29111"/>
<path d="M263.098 236.358C263.098 238.339 261.492 239.946 259.51 239.946C257.528 239.946 255.922 238.339 255.922 236.358C255.922 234.376 257.528 232.77 259.51 232.77C261.492 232.77 263.098 234.376 263.098 236.358Z" fill="#F29111"/>
<path d="M263.098 245.327C263.098 247.308 261.492 248.915 259.51 248.915C257.528 248.915 255.922 247.308 255.922 245.327C255.922 243.345 257.528 241.738 259.51 241.738C261.492 241.738 263.098 243.345 263.098 245.327Z" fill="#F29111"/>
<path d="M263.098 254.299C263.098 256.281 261.492 257.887 259.51 257.887C257.528 257.887 255.922 256.281 255.922 254.299C255.922 252.317 257.528 250.711 259.51 250.711C261.492 250.711 263.098 252.317 263.098 254.299Z" fill="#F29111"/>
<path d="M290.012 236.358C290.012 238.339 288.406 239.946 286.424 239.946C284.442 239.946 282.836 238.339 282.836 236.358C282.836 234.376 284.442 232.77 286.424 232.77C288.406 232.77 290.012 234.376 290.012 236.358Z" fill="#F29111"/>
<path d="M290.012 245.327C290.012 247.308 288.406 248.915 286.424 248.915C284.442 248.915 282.836 247.308 282.836 245.327C282.836 243.345 284.442 241.738 286.424 241.738C288.406 241.738 290.012 243.345 290.012 245.327Z" fill="#F29111"/>
<path d="M290.012 254.299C290.012 256.281 288.406 257.887 286.424 257.887C284.442 257.887 282.836 256.281 282.836 254.299C282.836 252.317 284.442 250.711 286.424 250.711C288.406 250.711 290.012 252.317 290.012 254.299Z" fill="#F29111"/>
<path d="M316.926 236.358C316.926 238.339 315.32 239.946 313.338 239.946C311.357 239.946 309.75 238.339 309.75 236.358C309.75 234.376 311.357 232.77 313.338 232.77C315.32 232.77 316.926 234.376 316.926 236.358Z" fill="#F29111"/>
<path d="M316.926 245.327C316.926 247.308 315.32 248.915 313.338 248.915C311.357 248.915 309.75 247.308 309.75 245.327C309.75 243.345 311.357 241.738 313.338 241.738C315.32 241.738 316.926 243.345 316.926 245.327Z" fill="#F29111"/>
<path d="M316.926 254.299C316.926 256.281 315.32 257.887 313.338 257.887C311.357 257.887 309.75 256.281 309.75 254.299C309.75 252.317 311.357 250.711 313.338 250.711C315.32 250.711 316.926 252.317 316.926 254.299Z" fill="#F29111"/>
<path d="M272.067 236.358C272.067 238.339 270.461 239.946 268.479 239.946C266.497 239.946 264.891 238.339 264.891 236.358C264.891 234.376 266.497 232.77 268.479 232.77C270.461 232.77 272.067 234.376 272.067 236.358Z" fill="#F29111"/>
<path d="M272.067 245.327C272.067 247.308 270.461 248.915 268.479 248.915C266.497 248.915 264.891 247.308 264.891 245.327C264.891 243.345 266.497 241.738 268.479 241.738C270.461 241.738 272.067 243.345 272.067 245.327Z" fill="#F29111"/>
<path d="M272.067 254.299C272.067 256.281 270.461 257.887 268.479 257.887C266.497 257.887 264.891 256.281 264.891 254.299C264.891 252.317 266.497 250.711 268.479 250.711C270.461 250.711 272.067 252.317 272.067 254.299Z" fill="#F29111"/>
<path d="M298.981 236.358C298.981 238.339 297.375 239.946 295.393 239.946C293.411 239.946 291.805 238.339 291.805 236.358C291.805 234.376 293.411 232.77 295.393 232.77C297.375 232.77 298.981 234.376 298.981 236.358Z" fill="#F29111"/>
<path d="M298.981 245.327C298.981 247.308 297.375 248.915 295.393 248.915C293.411 248.915 291.805 247.308 291.805 245.327C291.805 243.345 293.411 241.738 295.393 241.738C297.375 241.738 298.981 243.345 298.981 245.327Z" fill="#F29111"/>
<path d="M298.981 254.299C298.981 256.281 297.375 257.887 295.393 257.887C293.411 257.887 291.805 256.281 291.805 254.299C291.805 252.317 293.411 250.711 295.393 250.711C297.375 250.711 298.981 252.317 298.981 254.299Z" fill="#F29111"/>
</g>
<defs>
<filter id="filter0_d_2831_25096" x="275.656" y="69.0469" width="129.395" height="151.499" filterUnits="userSpaceOnUse" color-interpolation-filters="sRGB">
<feFlood flood-opacity="0" result="BackgroundImageFix"/>
<feColorMatrix in="SourceAlpha" type="matrix" values="0 0 0 0 0 0 0 0 0 0 0 0 0 0 0 0 0 0 127 0" result="hardAlpha"/>
<feOffset dy="4"/>
<feGaussianBlur stdDeviation="4"/>
<feComposite in2="hardAlpha" operator="out"/>
<feColorMatrix type="matrix" values="0 0 0 0 0 0 0 0 0 0 0 0 0 0 0 0 0 0 0.25 0"/>
<feBlend mode="normal" in2="BackgroundImageFix" result="effect1_dropShadow_2831_25096"/>
<feBlend mode="normal" in="SourceGraphic" in2="effect1_dropShadow_2831_25096" result="shape"/>
</filter>
<filter id="filter1_d_2831_25096" x="104.273" y="69.0781" width="129.465" height="151.468" filterUnits="userSpaceOnUse" color-interpolation-filters="sRGB">
<feFlood flood-opacity="0" result="BackgroundImageFix"/>
<feColorMatrix in="SourceAlpha" type="matrix" values="0 0 0 0 0 0 0 0 0 0 0 0 0 0 0 0 0 0 127 0" result="hardAlpha"/>
<feOffset dy="4"/>
<feGaussianBlur stdDeviation="4"/>
<feComposite in2="hardAlpha" operator="out"/>
<feColorMatrix type="matrix" values="0 0 0 0 0 0 0 0 0 0 0 0 0 0 0 0 0 0 0.35 0"/>
<feBlend mode="normal" in2="BackgroundImageFix" result="effect1_dropShadow_2831_25096"/>
<feBlend mode="normal" in="SourceGraphic" in2="effect1_dropShadow_2831_25096" result="shape"/>
</filter>
<filter id="filter2_d_2831_25096" x="131.711" y="165.148" width="235.699" height="206.914" filterUnits="userSpaceOnUse" color-interpolation-filters="sRGB">
<feFlood flood-opacity="0" result="BackgroundImageFix"/>
<feColorMatrix in="SourceAlpha" type="matrix" values="0 0 0 0 0 0 0 0 0 0 0 0 0 0 0 0 0 0 127 0" result="hardAlpha"/>
<feOffset dy="4"/>
<feGaussianBlur stdDeviation="2"/>
<feComposite in2="hardAlpha" operator="out"/>
<feColorMatrix type="matrix" values="0 0 0 0 0 0 0 0 0 0 0 0 0 0 0 0 0 0 0.25 0"/>
<feBlend mode="normal" in2="BackgroundImageFix" result="effect1_dropShadow_2831_25096"/>
<feBlend mode="normal" in="SourceGraphic" in2="effect1_dropShadow_2831_25096" result="shape"/>
</filter>
<filter id="filter3_d_2831_25096" x="134.711" y="163.148" width="229.699" height="200.914" filterUnits="userSpaceOnUse" color-interpolation-filters="sRGB">
<feFlood flood-opacity="0" result="BackgroundImageFix"/>
<feColorMatrix in="SourceAlpha" type="matrix" values="0 0 0 0 0 0 0 0 0 0 0 0 0 0 0 0 0 0 127 0" result="hardAlpha"/>
<feOffset dy="-1"/>
<feGaussianBlur stdDeviation="0.5"/>
<feComposite in2="hardAlpha" operator="out"/>
<feColorMatrix type="matrix" values="0 0 0 0 0 0 0 0 0 0 0 0 0 0 0 0 0 0 0.1 0"/>
<feBlend mode="normal" in2="BackgroundImageFix" result="effect1_dropShadow_2831_25096"/>
<feBlend mode="normal" in="SourceGraphic" in2="effect1_dropShadow_2831_25096" result="shape"/>
</filter>
<filter id="filter4_d_2831_25096" x="125" y="308" width="87.0273" height="80.4307" filterUnits="userSpaceOnUse" color-interpolation-filters="sRGB">
<feFlood flood-opacity="0" result="BackgroundImageFix"/>
<feColorMatrix in="SourceAlpha" type="matrix" values="0 0 0 0 0 0 0 0 0 0 0 0 0 0 0 0 0 0 127 0" result="hardAlpha"/>
<feOffset dy="4"/>
<feGaussianBlur stdDeviation="4"/>
<feComposite in2="hardAlpha" operator="out"/>
<feColorMatrix type="matrix" values="0 0 0 0 0 0 0 0 0 0 0 0 0 0 0 0 0 0 0.25 0"/>
<feBlend mode="normal" in2="BackgroundImageFix" result="effect1_dropShadow_2831_25096"/>
<feBlend mode="normal" in="SourceGraphic" in2="effect1_dropShadow_2831_25096" result="shape"/>
</filter>
<filter id="filter5_d_2831_25096" x="286.004" y="308.001" width="87.0273" height="80.4307" filterUnits="userSpaceOnUse" color-interpolation-filters="sRGB">
<feFlood flood-opacity="0" result="BackgroundImageFix"/>
<feColorMatrix in="SourceAlpha" type="matrix" values="0 0 0 0 0 0 0 0 0 0 0 0 0 0 0 0 0 0 127 0" result="hardAlpha"/>
<feOffset dy="4"/>
<feGaussianBlur stdDeviation="4"/>
<feComposite in2="hardAlpha" operator="out"/>
<feColorMatrix type="matrix" values="0 0 0 0 0 0 0 0 0 0 0 0 0 0 0 0 0 0 0.25 0"/>
<feBlend mode="normal" in2="BackgroundImageFix" result="effect1_dropShadow_2831_25096"/>
<feBlend mode="normal" in="SourceGraphic" in2="effect1_dropShadow_2831_25096" result="shape"/>
</filter>
<clipPath id="clip0_2831_25096">
<rect width="61" height="57.0529" fill="white" transform="translate(180 236)"/>
</clipPath>
<clipPath id="clip1_2831_25096">
<rect width="61" height="57.0529" fill="white" transform="translate(257 236)"/>
</clipPath>
</defs>
</svg>
