<svg width="500" height="500" viewBox="0 0 500 500" fill="none" xmlns="http://www.w3.org/2000/svg">
<g clip-path="url(#clip0_2831_23758)">
<path d="M255 433C330.111 433 391 423.822 391 412.5C391 401.178 330.111 392 255 392C179.889 392 119 401.178 119 412.5C119 423.822 179.889 433 255 433Z" fill="#A4AFBF" fill-opacity="0.7"/>
<g filter="url(#filter0_d_2831_23758)">
<path d="M401.185 108.262C397.701 140.175 364.67 204.494 344.818 234.729L288.977 216.963C318.458 164.882 351.424 129.976 375.516 106.058C381.005 100.629 389.188 98.9514 396.386 101.748L397.208 102.077C399.772 103.064 401.481 105.531 401.185 108.262Z" fill="white"/>
<path d="M401.169 107.965C399.263 121.454 394.464 141.226 380.167 170.935C380.167 170.935 379.904 140.009 371.457 135.962C363.01 131.916 335.336 149.517 335.336 149.517C345.163 138.2 362.911 115.795 377.34 104.313C382.172 100.464 388.581 99.674 394.661 100.858L396.272 101.154C399.427 101.845 401.596 104.773 401.169 107.965Z" fill="#FF9100"/>
</g>
<g filter="url(#filter1_d_2831_23758)">
<path d="M119.432 108.262C122.916 140.175 155.947 204.494 175.799 234.729L231.64 216.963C202.158 164.882 169.192 129.976 145.101 106.058C139.612 100.629 131.428 98.9514 124.23 101.748L123.409 102.077C120.845 103.064 119.136 105.531 119.432 108.262Z" fill="white"/>
<path d="M119.381 107.963C121.255 121.057 126.185 141.389 140.383 170.966C140.383 170.966 140.646 140.04 149.093 135.994C157.54 131.947 185.247 149.548 185.247 149.548C175.42 138.231 157.671 115.826 143.243 104.344C138.411 100.495 132.002 99.7052 125.922 100.89L124.311 101.219C121.123 101.844 118.921 104.772 119.381 107.963Z" fill="#FF9100"/>
</g>
<g filter="url(#filter2_d_2831_23758)">
<g filter="url(#filter3_d_2831_23758)">
<path d="M367.926 263.032C367.926 317.514 317.475 361.665 255.225 361.665C192.974 361.665 142.523 317.514 142.523 263.032C142.523 208.55 192.974 164.398 255.225 164.398C317.475 164.398 367.926 208.55 367.926 263.032Z" fill="white"/>
</g>
</g>
<path d="M255.012 342.13C305.838 342.13 347.04 310.387 347.04 271.231C347.04 232.075 305.838 200.332 255.012 200.332C204.187 200.332 162.984 232.075 162.984 271.231C162.984 310.387 204.187 342.13 255.012 342.13Z" fill="#35373A"/>
<mask id="mask0_2831_23758" style="mask-type:luminance" maskUnits="userSpaceOnUse" x="181" y="245" width="64" height="41">
<ellipse cx="189.573" cy="247.904" rx="2.33113" ry="2.33341" fill="white"/>
<ellipse cx="189.573" cy="253.74" rx="2.33113" ry="2.33341" fill="white"/>
<ellipse cx="189.573" cy="259.572" rx="2.33113" ry="2.33341" fill="white"/>
<ellipse cx="189.573" cy="265.404" rx="2.33113" ry="2.33341" fill="white"/>
<ellipse cx="189.573" cy="271.24" rx="2.33113" ry="2.33341" fill="white"/>
<ellipse cx="195.401" cy="247.904" rx="2.33113" ry="2.33341" fill="white"/>
<ellipse cx="195.401" cy="253.74" rx="2.33113" ry="2.33341" fill="white"/>
<ellipse cx="195.401" cy="259.572" rx="2.33113" ry="2.33341" fill="white"/>
<ellipse cx="195.401" cy="265.404" rx="2.33113" ry="2.33341" fill="white"/>
<ellipse cx="195.401" cy="271.24" rx="2.33113" ry="2.33341" fill="white"/>
<ellipse cx="183.745" cy="247.904" rx="2.33113" ry="2.33341" fill="white"/>
<ellipse cx="183.745" cy="253.74" rx="2.33113" ry="2.33341" fill="white"/>
<ellipse cx="183.745" cy="259.572" rx="2.33113" ry="2.33341" fill="white"/>
<ellipse cx="183.745" cy="265.404" rx="2.33113" ry="2.33341" fill="white"/>
<ellipse cx="183.745" cy="271.24" rx="2.33113" ry="2.33341" fill="white"/>
<ellipse cx="201.222" cy="247.904" rx="2.33113" ry="2.33341" fill="white"/>
<ellipse cx="201.222" cy="253.74" rx="2.33113" ry="2.33341" fill="white"/>
<ellipse cx="201.222" cy="259.572" rx="2.33113" ry="2.33341" fill="white"/>
<ellipse cx="201.222" cy="265.404" rx="2.33113" ry="2.33341" fill="white"/>
<ellipse cx="201.222" cy="271.24" rx="2.33113" ry="2.33341" fill="white"/>
<ellipse cx="212.894" cy="247.904" rx="2.33113" ry="2.33341" fill="white"/>
<ellipse cx="212.894" cy="253.74" rx="2.33113" ry="2.33341" fill="white"/>
<ellipse cx="212.894" cy="259.572" rx="2.33113" ry="2.33341" fill="white"/>
<ellipse cx="212.894" cy="265.404" rx="2.33113" ry="2.33341" fill="white"/>
<ellipse cx="212.894" cy="271.24" rx="2.33113" ry="2.33341" fill="white"/>
<ellipse cx="230.362" cy="247.904" rx="2.33113" ry="2.33341" fill="white"/>
<ellipse cx="230.362" cy="253.74" rx="2.33113" ry="2.33341" fill="white"/>
<ellipse cx="230.362" cy="259.572" rx="2.33113" ry="2.33341" fill="white"/>
<ellipse cx="230.362" cy="265.404" rx="2.33113" ry="2.33341" fill="white"/>
<ellipse cx="230.362" cy="271.24" rx="2.33113" ry="2.33341" fill="white"/>
<ellipse cx="218.722" cy="247.904" rx="2.33113" ry="2.33341" fill="white"/>
<ellipse cx="218.722" cy="253.74" rx="2.33113" ry="2.33341" fill="white"/>
<ellipse cx="218.722" cy="259.572" rx="2.33113" ry="2.33341" fill="white"/>
<ellipse cx="218.722" cy="265.404" rx="2.33113" ry="2.33341" fill="white"/>
<ellipse cx="218.722" cy="271.24" rx="2.33113" ry="2.33341" fill="white"/>
<ellipse cx="236.198" cy="247.904" rx="2.33113" ry="2.33341" fill="white"/>
<ellipse cx="236.198" cy="253.74" rx="2.33113" ry="2.33341" fill="white"/>
<ellipse cx="236.198" cy="259.572" rx="2.33113" ry="2.33341" fill="white"/>
<ellipse cx="236.198" cy="265.404" rx="2.33113" ry="2.33341" fill="white"/>
<ellipse cx="236.198" cy="271.24" rx="2.33113" ry="2.33341" fill="white"/>
<ellipse cx="207.05" cy="247.904" rx="2.33113" ry="2.33341" fill="white"/>
<ellipse cx="207.05" cy="253.74" rx="2.33113" ry="2.33341" fill="white"/>
<ellipse cx="207.05" cy="259.572" rx="2.33113" ry="2.33341" fill="white"/>
<ellipse cx="207.05" cy="265.404" rx="2.33113" ry="2.33341" fill="white"/>
<ellipse cx="207.05" cy="271.24" rx="2.33113" ry="2.33341" fill="white"/>
<ellipse cx="224.542" cy="247.904" rx="2.33113" ry="2.33341" fill="white"/>
<ellipse cx="224.542" cy="253.74" rx="2.33113" ry="2.33341" fill="white"/>
<ellipse cx="224.542" cy="259.572" rx="2.33113" ry="2.33341" fill="white"/>
<ellipse cx="224.542" cy="265.404" rx="2.33113" ry="2.33341" fill="white"/>
<ellipse cx="224.542" cy="271.24" rx="2.33113" ry="2.33341" fill="white"/>
<ellipse cx="242.019" cy="247.904" rx="2.33113" ry="2.33341" fill="white"/>
<ellipse cx="242.019" cy="253.74" rx="2.33113" ry="2.33341" fill="white"/>
<ellipse cx="242.019" cy="259.572" rx="2.33113" ry="2.33341" fill="white"/>
<ellipse cx="242.019" cy="265.404" rx="2.33113" ry="2.33341" fill="white"/>
<ellipse cx="242.019" cy="271.24" rx="2.33113" ry="2.33341" fill="white"/>
<ellipse cx="189.573" cy="277.076" rx="2.33113" ry="2.33341" fill="white"/>
<ellipse cx="189.573" cy="282.908" rx="2.33113" ry="2.33341" fill="white"/>
<ellipse cx="195.401" cy="277.076" rx="2.33113" ry="2.33341" fill="white"/>
<ellipse cx="195.401" cy="282.908" rx="2.33113" ry="2.33341" fill="white"/>
<ellipse cx="183.745" cy="277.076" rx="2.33113" ry="2.33341" fill="white"/>
<ellipse cx="183.745" cy="282.908" rx="2.33113" ry="2.33341" fill="white"/>
<ellipse cx="201.222" cy="277.076" rx="2.33113" ry="2.33341" fill="white"/>
<ellipse cx="201.222" cy="282.908" rx="2.33113" ry="2.33341" fill="white"/>
<ellipse cx="212.894" cy="277.076" rx="2.33113" ry="2.33341" fill="white"/>
<ellipse cx="212.894" cy="282.908" rx="2.33113" ry="2.33341" fill="white"/>
<ellipse cx="230.362" cy="277.076" rx="2.33113" ry="2.33341" fill="white"/>
<ellipse cx="230.362" cy="282.908" rx="2.33113" ry="2.33341" fill="white"/>
<ellipse cx="218.722" cy="277.076" rx="2.33113" ry="2.33341" fill="white"/>
<ellipse cx="218.722" cy="282.908" rx="2.33113" ry="2.33341" fill="white"/>
<ellipse cx="236.198" cy="277.076" rx="2.33113" ry="2.33341" fill="white"/>
<ellipse cx="236.198" cy="282.908" rx="2.33113" ry="2.33341" fill="white"/>
<ellipse cx="207.05" cy="277.076" rx="2.33113" ry="2.33341" fill="white"/>
<ellipse cx="207.05" cy="282.908" rx="2.33113" ry="2.33341" fill="white"/>
<ellipse cx="224.542" cy="277.076" rx="2.33113" ry="2.33341" fill="white"/>
<ellipse cx="224.542" cy="282.908" rx="2.33113" ry="2.33341" fill="white"/>
<ellipse cx="242.019" cy="277.076" rx="2.33113" ry="2.33341" fill="white"/>
<ellipse cx="242.019" cy="282.908" rx="2.33113" ry="2.33341" fill="white"/>
</mask>
<g mask="url(#mask0_2831_23758)">
<path d="M241.331 282.663C241.331 282.663 228.546 270.487 212.775 270.487C197.004 270.487 184.219 284.939 184.219 282.663C184.219 264.239 197.004 249.305 212.775 249.305C228.546 249.305 241.331 264.239 241.331 282.663Z" fill="#F29111"/>
</g>
<mask id="mask1_2831_23758" style="mask-type:luminance" maskUnits="userSpaceOnUse" x="263" y="245" width="64" height="41">
<ellipse cx="271.378" cy="247.904" rx="2.33113" ry="2.33341" fill="white"/>
<ellipse cx="271.378" cy="253.74" rx="2.33113" ry="2.33341" fill="white"/>
<ellipse cx="271.378" cy="259.572" rx="2.33113" ry="2.33341" fill="white"/>
<ellipse cx="271.378" cy="265.404" rx="2.33113" ry="2.33341" fill="white"/>
<ellipse cx="271.378" cy="271.24" rx="2.33113" ry="2.33341" fill="white"/>
<ellipse cx="277.206" cy="247.904" rx="2.33113" ry="2.33341" fill="white"/>
<ellipse cx="277.206" cy="253.74" rx="2.33113" ry="2.33341" fill="white"/>
<ellipse cx="277.206" cy="259.572" rx="2.33113" ry="2.33341" fill="white"/>
<ellipse cx="277.206" cy="265.404" rx="2.33113" ry="2.33341" fill="white"/>
<ellipse cx="277.206" cy="271.24" rx="2.33113" ry="2.33341" fill="white"/>
<ellipse cx="265.55" cy="247.904" rx="2.33113" ry="2.33341" fill="white"/>
<ellipse cx="265.55" cy="253.74" rx="2.33113" ry="2.33341" fill="white"/>
<ellipse cx="265.55" cy="259.572" rx="2.33113" ry="2.33341" fill="white"/>
<ellipse cx="265.55" cy="265.404" rx="2.33113" ry="2.33341" fill="white"/>
<ellipse cx="265.55" cy="271.24" rx="2.33113" ry="2.33341" fill="white"/>
<ellipse cx="283.026" cy="247.904" rx="2.33113" ry="2.33341" fill="white"/>
<ellipse cx="283.026" cy="253.74" rx="2.33113" ry="2.33341" fill="white"/>
<ellipse cx="283.026" cy="259.572" rx="2.33113" ry="2.33341" fill="white"/>
<ellipse cx="283.026" cy="265.404" rx="2.33113" ry="2.33341" fill="white"/>
<ellipse cx="283.026" cy="271.24" rx="2.33113" ry="2.33341" fill="white"/>
<ellipse cx="294.698" cy="247.904" rx="2.33113" ry="2.33341" fill="white"/>
<ellipse cx="294.698" cy="253.74" rx="2.33113" ry="2.33341" fill="white"/>
<ellipse cx="294.698" cy="259.572" rx="2.33113" ry="2.33341" fill="white"/>
<ellipse cx="294.698" cy="265.404" rx="2.33113" ry="2.33341" fill="white"/>
<ellipse cx="294.698" cy="271.24" rx="2.33113" ry="2.33341" fill="white"/>
<ellipse cx="312.167" cy="247.904" rx="2.33113" ry="2.33341" fill="white"/>
<ellipse cx="312.167" cy="253.74" rx="2.33113" ry="2.33341" fill="white"/>
<ellipse cx="312.167" cy="259.572" rx="2.33113" ry="2.33341" fill="white"/>
<ellipse cx="312.167" cy="265.404" rx="2.33113" ry="2.33341" fill="white"/>
<ellipse cx="312.167" cy="271.24" rx="2.33113" ry="2.33341" fill="white"/>
<ellipse cx="300.526" cy="247.904" rx="2.33113" ry="2.33341" fill="white"/>
<ellipse cx="300.526" cy="253.74" rx="2.33113" ry="2.33341" fill="white"/>
<ellipse cx="300.526" cy="259.572" rx="2.33113" ry="2.33341" fill="white"/>
<ellipse cx="300.526" cy="265.404" rx="2.33113" ry="2.33341" fill="white"/>
<ellipse cx="300.526" cy="271.24" rx="2.33113" ry="2.33341" fill="white"/>
<ellipse cx="318.003" cy="247.904" rx="2.33113" ry="2.33341" fill="white"/>
<ellipse cx="318.003" cy="253.74" rx="2.33113" ry="2.33341" fill="white"/>
<ellipse cx="318.003" cy="259.572" rx="2.33113" ry="2.33341" fill="white"/>
<ellipse cx="318.003" cy="265.404" rx="2.33113" ry="2.33341" fill="white"/>
<ellipse cx="318.003" cy="271.24" rx="2.33113" ry="2.33341" fill="white"/>
<ellipse cx="288.855" cy="247.904" rx="2.33113" ry="2.33341" fill="white"/>
<ellipse cx="288.855" cy="253.74" rx="2.33113" ry="2.33341" fill="white"/>
<ellipse cx="288.855" cy="259.572" rx="2.33113" ry="2.33341" fill="white"/>
<ellipse cx="288.855" cy="265.404" rx="2.33113" ry="2.33341" fill="white"/>
<ellipse cx="288.855" cy="271.24" rx="2.33113" ry="2.33341" fill="white"/>
<ellipse cx="306.347" cy="247.904" rx="2.33113" ry="2.33341" fill="white"/>
<ellipse cx="306.347" cy="253.74" rx="2.33113" ry="2.33341" fill="white"/>
<ellipse cx="306.347" cy="259.572" rx="2.33113" ry="2.33341" fill="white"/>
<ellipse cx="306.347" cy="265.404" rx="2.33113" ry="2.33341" fill="white"/>
<ellipse cx="306.347" cy="271.24" rx="2.33113" ry="2.33341" fill="white"/>
<ellipse cx="323.823" cy="247.904" rx="2.33113" ry="2.33341" fill="white"/>
<ellipse cx="323.823" cy="253.74" rx="2.33113" ry="2.33341" fill="white"/>
<ellipse cx="323.823" cy="259.572" rx="2.33113" ry="2.33341" fill="white"/>
<ellipse cx="323.823" cy="265.404" rx="2.33113" ry="2.33341" fill="white"/>
<ellipse cx="323.823" cy="271.24" rx="2.33113" ry="2.33341" fill="white"/>
<ellipse cx="271.378" cy="277.076" rx="2.33113" ry="2.33341" fill="white"/>
<ellipse cx="271.378" cy="282.908" rx="2.33113" ry="2.33341" fill="white"/>
<ellipse cx="277.206" cy="277.076" rx="2.33113" ry="2.33341" fill="white"/>
<ellipse cx="277.206" cy="282.908" rx="2.33113" ry="2.33341" fill="white"/>
<ellipse cx="265.55" cy="277.076" rx="2.33113" ry="2.33341" fill="white"/>
<ellipse cx="265.55" cy="282.908" rx="2.33113" ry="2.33341" fill="white"/>
<ellipse cx="283.026" cy="277.076" rx="2.33113" ry="2.33341" fill="white"/>
<ellipse cx="283.026" cy="282.908" rx="2.33113" ry="2.33341" fill="white"/>
<ellipse cx="294.698" cy="277.076" rx="2.33113" ry="2.33341" fill="white"/>
<ellipse cx="294.698" cy="282.908" rx="2.33113" ry="2.33341" fill="white"/>
<ellipse cx="312.167" cy="277.076" rx="2.33113" ry="2.33341" fill="white"/>
<ellipse cx="312.167" cy="282.908" rx="2.33113" ry="2.33341" fill="white"/>
<ellipse cx="300.526" cy="277.076" rx="2.33113" ry="2.33341" fill="white"/>
<ellipse cx="300.526" cy="282.908" rx="2.33113" ry="2.33341" fill="white"/>
<ellipse cx="318.003" cy="277.076" rx="2.33113" ry="2.33341" fill="white"/>
<ellipse cx="318.003" cy="282.908" rx="2.33113" ry="2.33341" fill="white"/>
<ellipse cx="288.855" cy="277.076" rx="2.33113" ry="2.33341" fill="white"/>
<ellipse cx="288.855" cy="282.908" rx="2.33113" ry="2.33341" fill="white"/>
<ellipse cx="306.347" cy="277.076" rx="2.33113" ry="2.33341" fill="white"/>
<ellipse cx="306.347" cy="282.908" rx="2.33113" ry="2.33341" fill="white"/>
<ellipse cx="323.823" cy="277.076" rx="2.33113" ry="2.33341" fill="white"/>
<ellipse cx="323.823" cy="282.908" rx="2.33113" ry="2.33341" fill="white"/>
</mask>
<g mask="url(#mask1_2831_23758)">
<path d="M323.121 282.663C323.121 282.663 310.335 270.487 294.564 270.487C278.793 270.487 266.008 284.939 266.008 282.663C266.008 264.239 278.793 249.305 294.564 249.305C310.335 249.305 323.121 264.239 323.121 282.663Z" fill="#F29111"/>
</g>
<g filter="url(#filter4_d_2831_23758)">
<path d="M335.975 356.829L339.919 341.037C340.38 339.129 341.694 337.55 343.469 336.694L357.142 330.18C359.87 328.897 363.124 329.588 365.03 331.924L404.569 379.76C406.738 382.359 406.541 386.209 404.142 388.61L402.203 390.551C399.113 393.644 394.347 394.335 390.502 392.229L339.164 364.231C336.6 362.784 335.252 359.757 335.975 356.829Z" fill="white"/>
<path d="M390.516 392.192L358.109 374.459L389.07 360.871L404.616 379.69C406.786 382.289 406.588 386.138 404.189 388.54L402.217 390.514C399.128 393.606 394.362 394.297 390.516 392.192Z" fill="#F29111"/>
<path d="M175.35 356.239L171.406 340.447C170.946 338.539 169.631 336.96 167.856 336.105L154.184 329.59C151.456 328.307 148.202 328.998 146.296 331.334L133.484 355.369C131.315 357.968 131.512 361.817 133.911 364.219L135.851 366.16C138.94 369.253 143.706 369.944 147.551 367.838L172.162 363.642C174.759 362.161 176.106 359.134 175.35 356.239Z" fill="white"/>
</g>
<path d="M174.602 313.359C181.417 297.698 181.059 277.596 177.056 261.223C176.798 260.205 153.974 259.958 130.925 262.918C99.2894 266.987 82.9158 272.248 82.9339 273.308C83.175 290.161 87.8672 309.69 98.3976 323.153C105.892 332.759 115.912 337.646 127.58 340.859C127.817 341.757 127.976 342.625 128.093 343.544C125.585 345.827 123.726 348.63 124.608 352.218C125.567 356.127 128.895 358.528 132.093 360.566L132.636 364.92C131.267 377.635 125.75 389.449 116.762 398.537C114.841 398.649 112.994 399.44 112.89 401.752C112.716 405.875 119.31 407.046 122.196 407.507C130.448 408.846 165.114 404.396 172.76 401.02C175.43 399.83 181.517 397.019 180.321 393.085C179.641 390.897 177.66 390.582 175.765 390.973C164.789 384.441 156.495 374.415 151.989 362.442L151.446 358.088C154.029 355.318 156.658 352.139 156.588 348.124C156.531 344.428 154.016 342.183 151.022 340.604C150.878 339.698 150.827 338.782 150.842 337.869C161.305 331.813 169.775 324.541 174.602 313.359Z" fill="#79613E"/>
<path d="M173.28 295.273C166.734 291.589 158.451 293.89 154.771 300.45C152.242 304.943 149.115 323.522 147.443 334.752C147.117 337.001 147.977 338.43 149.919 338.438C150.159 338.396 150.393 338.195 150.815 337.909C161.304 331.842 169.772 324.571 174.627 313.378C176.394 309.354 177.635 305.014 178.498 300.552C177.314 298.394 175.56 296.554 173.28 295.273Z" fill="#FFA531"/>
<path d="M114.504 305.601C109.291 300.189 100.694 300.04 95.29 305.265C93.3417 307.137 92.0859 309.477 91.5255 311.928C93.4713 315.948 95.7437 319.758 98.4058 323.136C102.228 328.035 106.728 331.694 111.74 334.541C113.368 335.369 115.034 336.212 116.677 337.002C120.124 338.507 123.755 339.77 127.619 340.831C128.086 341.011 128.653 341.05 129.147 340.927C131.108 340.538 131.2 339.073 130.28 336.926C125.783 326.501 118.09 309.311 114.504 305.601Z" fill="#FFA531"/>
<path d="M130.92 262.911C99.2916 266.979 82.9221 272.238 82.9401 273.297C83.0304 278.596 83.5163 283.912 84.4426 289.13C96.7135 291.522 113.938 291.61 132.767 289.202C151.597 286.794 168.261 282.343 179.524 276.933C179.143 271.635 178.286 266.355 177.012 261.228C176.781 260.198 153.963 259.951 130.92 262.911Z" fill="#FFCD34"/>
<path d="M148.3 303.299C148.954 308.413 144.843 326.819 142.215 337.863C141.469 340.914 137.374 341.445 135.914 338.665C130.593 328.64 121.994 311.886 121.341 306.772C120.384 299.301 125.662 292.481 133.093 291.531C140.523 290.582 147.328 295.867 148.3 303.299Z" fill="#FFCD34"/>
<path d="M141.391 356.677C146.587 356.011 150.402 352.595 149.967 349.068C149.52 345.513 144.935 343.188 139.778 343.869C134.581 344.535 130.767 347.951 131.202 351.479C131.636 355.007 136.222 357.331 141.391 356.677Z" fill="#FFCD34"/>
<path d="M126.908 355.753C128.676 355.515 129.922 353.665 129.659 351.614C129.395 349.563 127.731 348.071 125.963 348.309C124.195 348.547 122.948 350.398 123.212 352.449C123.476 354.5 125.139 355.991 126.908 355.753Z" fill="#FFCD34"/>
<path d="M155.212 352.148C156.98 351.909 158.227 350.059 157.963 348.008C157.699 345.957 156.036 344.466 154.268 344.704C152.499 344.942 151.253 346.792 151.517 348.843C151.78 350.894 153.432 352.359 155.212 352.148Z" fill="#FFCD34"/>
<path d="M104.6 329.598C104.129 329.193 103.659 328.788 103.203 328.344C103.647 328.761 104.129 329.193 104.6 329.598Z" fill="#E9B126"/>
<path d="M102.945 328.128C102.513 327.737 102.096 327.308 101.68 326.879C102.084 327.281 102.501 327.71 102.945 328.128Z" fill="#E9B126"/>
<path d="M150.803 338.664C150.788 338.412 150.773 338.16 150.785 337.895C150.8 338.148 150.815 338.4 150.803 338.664Z" fill="#E9B126"/>
<path d="M175.811 310.302C175.658 310.758 175.479 311.227 175.287 311.668C175.479 311.227 175.631 310.77 175.811 310.302Z" fill="#E9B126"/>
<path d="M176.082 390.925C169.934 394.248 159.333 397.291 147.041 398.855C134.762 400.446 123.597 400.181 116.843 398.501C116.816 398.513 116.801 398.552 116.774 398.564C114.854 398.676 113.008 399.466 112.903 401.778C112.73 405.899 119.322 407.07 122.208 407.531C130.457 408.869 165.114 404.421 172.757 401.046C175.427 399.856 181.512 397.046 180.317 393.114C179.684 391.034 177.865 390.647 176.082 390.925Z" fill="#E9B126"/>
<path d="M98.3771 323.143C98.0533 322.705 97.7145 322.306 97.3906 321.867C97.7295 322.266 98.0533 322.705 98.3771 323.143Z" fill="#E9B126"/>
<path d="M111.717 334.561C110.468 333.856 109.26 333.1 108.055 332.277C112.218 335.179 116.825 337.333 121.794 339.066C120.026 338.43 118.311 337.771 116.627 337.033C115.038 336.22 113.372 335.377 111.717 334.561Z" fill="#E9B126"/>
<path d="M111.52 334.448C111.094 334.217 110.696 333.974 110.297 333.73C110.696 333.974 111.121 334.205 111.52 334.448Z" fill="#FFCD34"/>
<path d="M109.775 333.384C109.197 333.027 108.633 332.631 108.055 332.273C108.645 332.658 109.224 333.015 109.775 333.384Z" fill="#FFCD34"/>
<path d="M116.617 336.998C115.04 336.212 113.464 335.426 111.875 334.613C113.422 335.477 114.998 336.263 116.617 336.998Z" fill="#FFCD34"/>
<path d="M95.6339 319.284C95.5109 319.08 95.3999 318.903 95.25 318.711C95.3879 318.876 95.5109 319.08 95.6339 319.284Z" fill="#FFCD34"/>
<path d="M176.649 307.816C177.377 305.453 178.003 303.005 178.486 300.525C177.314 298.394 175.56 296.554 173.28 295.273C166.734 291.589 158.451 293.89 154.771 300.45C152.242 304.943 149.115 323.522 147.443 334.752C147.117 337.001 147.977 338.43 149.919 338.438C150.159 338.396 150.393 338.195 150.815 337.909C161.304 331.842 169.772 324.571 174.627 313.378C174.848 312.859 175.055 312.378 175.25 311.871C175.28 311.792 175.295 311.753 175.325 311.675C175.504 311.207 175.669 310.777 175.849 310.309C176.107 309.579 176.352 308.822 176.598 308.066C176.589 307.972 176.619 307.894 176.649 307.816Z" fill="#FFCD34"/>
<path d="M129.117 340.939C131.077 340.551 131.17 339.085 130.25 336.938C125.779 326.501 118.113 309.299 114.528 305.589C109.315 300.177 100.718 300.028 95.3134 305.253C93.3651 307.125 92.1093 309.465 91.549 311.916C91.561 311.943 91.585 311.997 91.597 312.024C91.7169 312.295 91.8638 312.553 91.9837 312.823C92.0676 313.012 92.1786 313.189 92.2625 313.379C92.3824 313.649 92.5174 313.88 92.6643 314.138C92.7602 314.354 92.8711 314.531 92.994 314.736C93.1289 314.967 93.2639 315.198 93.3838 315.468C93.5067 315.672 93.6026 315.889 93.7255 316.093C93.8605 316.324 93.9954 316.555 94.1303 316.786C94.2532 316.99 94.3881 317.222 94.511 317.426C94.6339 317.63 94.7688 317.861 94.8918 318.065C95.0267 318.296 95.1616 318.528 95.3115 318.72C95.4344 318.924 95.5573 319.128 95.6952 319.293C95.8691 319.539 96.016 319.798 96.1899 320.044C96.3008 320.221 96.3997 320.371 96.5376 320.536C96.8104 320.932 97.0952 321.356 97.395 321.74C97.419 321.794 97.458 321.809 97.482 321.863C97.8057 322.301 98.1295 322.74 98.4682 323.139C98.9299 323.742 99.4186 324.334 99.9342 324.913C100.048 325.024 100.135 325.147 100.249 325.258C100.639 325.7 101.028 326.141 101.445 326.57C101.559 326.681 101.661 326.765 101.748 326.888C102.165 327.318 102.581 327.747 103.013 328.137C103.076 328.206 103.178 328.29 103.241 328.359C103.696 328.803 104.167 329.209 104.638 329.614C104.689 329.656 104.74 329.698 104.791 329.74C105.3 330.16 105.81 330.58 106.346 330.988C106.385 331.003 106.397 331.03 106.436 331.045C106.985 331.481 107.549 331.877 108.112 332.273C108.112 332.273 108.112 332.273 108.124 332.3C108.688 332.696 109.266 333.053 109.845 333.41C110.025 333.524 110.193 333.611 110.372 333.725C110.771 333.968 111.17 334.212 111.595 334.443C111.712 334.488 111.814 334.572 111.931 334.617C113.52 335.43 115.097 336.216 116.674 337.002C116.764 337.059 116.868 337.077 116.958 337.134C117.633 337.416 118.307 337.698 118.982 337.98C119.15 338.067 119.333 338.115 119.527 338.19C120.307 338.49 121.086 338.79 121.893 339.077C122.036 339.11 122.165 339.182 122.309 339.215C123.026 339.446 123.742 339.677 124.458 339.908C124.653 339.983 124.836 340.031 125.058 340.094C125.918 340.358 126.779 340.622 127.654 340.847C128.056 341.024 128.622 341.062 129.117 340.939Z" fill="#FFCD34"/>
<path d="M116.656 337.019C116.735 337.049 116.813 337.079 116.903 337.136C116.813 337.079 116.707 337.061 116.617 337.004C116.629 337.031 116.656 337.019 116.656 337.019Z" fill="#FFCD34"/>
<path d="M119.453 338.194C119.258 338.119 119.101 338.059 118.906 337.984C119.089 338.032 119.258 338.119 119.453 338.194Z" fill="#FFCD34"/>
<path d="M111.712 334.56C111.763 334.602 111.802 334.617 111.868 334.62C111.751 334.575 111.649 334.49 111.531 334.445C111.609 334.475 111.661 334.518 111.712 334.56Z" fill="#FFCD34"/>
<path d="M92.2399 313.384C92.1559 313.195 92.0449 313.017 91.9609 312.828C92.0719 313.005 92.1559 313.195 92.2399 313.384Z" fill="#FFCD34"/>
<path d="M93.6935 316.07C93.5705 315.866 93.4745 315.65 93.3516 315.445C93.4475 315.662 93.5705 315.866 93.6935 316.07Z" fill="#FFCD34"/>
<path d="M92.9549 314.719C92.832 314.514 92.748 314.325 92.625 314.121C92.721 314.337 92.844 314.542 92.9549 314.719Z" fill="#FFCD34"/>
<path d="M94.459 317.374C94.3361 317.17 94.2011 316.939 94.0781 316.734C94.2131 316.966 94.3361 317.17 94.459 317.374Z" fill="#FFCD34"/>
<path d="M97.3186 321.704C97.0187 321.32 96.7338 320.896 96.4609 320.5C96.7458 320.923 97.0187 321.32 97.3186 321.704Z" fill="#FFCD34"/>
<path d="M122.277 392.055C121.192 393.541 120.057 394.986 118.804 396.385C119.988 397.961 121.981 398.885 124.081 398.595C126.194 398.333 128.006 396.813 128.702 394.886C129.439 397.566 132.079 399.366 134.922 399.004C137.487 398.67 139.468 396.655 139.842 394.223C140.72 396.711 143.223 398.346 145.946 398.005C148.67 397.665 150.686 395.439 150.911 392.815C151.891 395.096 154.282 396.554 156.886 396.235C159.85 395.852 161.989 393.248 161.857 390.33C162.924 392.443 165.204 393.724 167.688 393.426C170.16 393.1 172.081 391.241 172.542 388.932C171.146 387.969 169.779 386.928 168.482 385.824C162.681 388.766 154.54 391.166 145.344 392.353C136.615 393.429 128.525 393.25 122.277 392.055Z" fill="#FFCD34"/>
<path d="M130.983 276.855C152.617 274.071 170.852 269.598 177.992 265.671C177.69 264.188 177.387 262.705 177.03 261.247C176.772 260.229 153.955 259.982 130.913 262.941C99.2862 267.009 82.9173 272.268 82.9353 273.327C82.9564 274.903 83.0314 276.455 83.1185 278.034C91.2388 279.882 109.709 279.576 130.983 276.855Z" fill="#F3BD27"/>
<path d="M173.622 264.088C173.829 265.646 154.776 270.968 130.856 274.06C106.936 277.151 87.1635 276.777 86.9567 275.219C86.7498 273.661 105.887 269.11 129.846 266.034C153.804 262.957 173.415 262.53 173.622 264.088Z" fill="#42340B"/>
<path d="M58.5803 239.604L66.9726 247.449L78.3942 246.176L70.5606 254.588L71.7723 266.055L63.38 258.21L51.9584 259.483L59.792 251.071L58.5803 239.604Z" fill="#FFDF7E"/>
<path d="M86.899 191.55L97.0387 201.076L110.864 199.541L101.352 209.704L102.879 223.555L92.739 214.029L78.9138 215.564L88.4256 205.401L86.899 191.55Z" fill="#FFDF7E"/>
<path d="M125.786 225.944L131.49 231.298L139.246 230.429L133.9 236.146L134.763 243.917L129.06 238.563L121.303 239.432L126.65 233.715L125.786 225.944Z" fill="#FFDF7E"/>
<path d="M119.593 351.923C118.727 351.098 118.945 349.653 120.028 349.034L131.511 344.076C133.677 343.25 136.059 344.074 137.141 346.137L146.015 362.434C147.097 364.497 146.23 366.767 144.28 367.799L138.214 370.485L119.593 351.923Z" fill="#F29111"/>
</g>
<defs>
<filter id="filter0_d_2831_23758" x="280.977" y="92.3516" width="128.246" height="150.377" filterUnits="userSpaceOnUse" color-interpolation-filters="sRGB">
<feFlood flood-opacity="0" result="BackgroundImageFix"/>
<feColorMatrix in="SourceAlpha" type="matrix" values="0 0 0 0 0 0 0 0 0 0 0 0 0 0 0 0 0 0 127 0" result="hardAlpha"/>
<feOffset/>
<feGaussianBlur stdDeviation="4"/>
<feComposite in2="hardAlpha" operator="out"/>
<feColorMatrix type="matrix" values="0 0 0 0 0 0 0 0 0 0 0 0 0 0 0 0 0 0 0.25 0"/>
<feBlend mode="normal" in2="BackgroundImageFix" result="effect1_dropShadow_2831_23758"/>
<feBlend mode="normal" in="SourceGraphic" in2="effect1_dropShadow_2831_23758" result="shape"/>
</filter>
<filter id="filter1_d_2831_23758" x="111.32" y="92.3828" width="128.32" height="150.346" filterUnits="userSpaceOnUse" color-interpolation-filters="sRGB">
<feFlood flood-opacity="0" result="BackgroundImageFix"/>
<feColorMatrix in="SourceAlpha" type="matrix" values="0 0 0 0 0 0 0 0 0 0 0 0 0 0 0 0 0 0 127 0" result="hardAlpha"/>
<feOffset/>
<feGaussianBlur stdDeviation="4"/>
<feComposite in2="hardAlpha" operator="out"/>
<feColorMatrix type="matrix" values="0 0 0 0 0 0 0 0 0 0 0 0 0 0 0 0 0 0 0.25 0"/>
<feBlend mode="normal" in2="BackgroundImageFix" result="effect1_dropShadow_2831_23758"/>
<feBlend mode="normal" in="SourceGraphic" in2="effect1_dropShadow_2831_23758" result="shape"/>
</filter>
<filter id="filter2_d_2831_23758" x="134.523" y="156.398" width="241.402" height="213.267" filterUnits="userSpaceOnUse" color-interpolation-filters="sRGB">
<feFlood flood-opacity="0" result="BackgroundImageFix"/>
<feColorMatrix in="SourceAlpha" type="matrix" values="0 0 0 0 0 0 0 0 0 0 0 0 0 0 0 0 0 0 127 0" result="hardAlpha"/>
<feOffset/>
<feGaussianBlur stdDeviation="4"/>
<feComposite in2="hardAlpha" operator="out"/>
<feColorMatrix type="matrix" values="0 0 0 0 0 0 0 0 0 0 0 0 0 0 0 0 0 0 0.25 0"/>
<feBlend mode="normal" in2="BackgroundImageFix" result="effect1_dropShadow_2831_23758"/>
<feBlend mode="normal" in="SourceGraphic" in2="effect1_dropShadow_2831_23758" result="shape"/>
</filter>
<filter id="filter3_d_2831_23758" x="134.523" y="156.398" width="241.402" height="213.267" filterUnits="userSpaceOnUse" color-interpolation-filters="sRGB">
<feFlood flood-opacity="0" result="BackgroundImageFix"/>
<feColorMatrix in="SourceAlpha" type="matrix" values="0 0 0 0 0 0 0 0 0 0 0 0 0 0 0 0 0 0 127 0" result="hardAlpha"/>
<feOffset/>
<feGaussianBlur stdDeviation="4"/>
<feComposite in2="hardAlpha" operator="out"/>
<feColorMatrix type="matrix" values="0 0 0 0 0 0 0 0 0 0 0 0 0 0 0 0 0 0 0.1 0"/>
<feBlend mode="normal" in2="BackgroundImageFix" result="effect1_dropShadow_2831_23758"/>
<feBlend mode="normal" in="SourceGraphic" in2="effect1_dropShadow_2831_23758" result="shape"/>
</filter>
<filter id="filter4_d_2831_23758" x="123.977" y="320.953" width="290.148" height="80.4873" filterUnits="userSpaceOnUse" color-interpolation-filters="sRGB">
<feFlood flood-opacity="0" result="BackgroundImageFix"/>
<feColorMatrix in="SourceAlpha" type="matrix" values="0 0 0 0 0 0 0 0 0 0 0 0 0 0 0 0 0 0 127 0" result="hardAlpha"/>
<feOffset/>
<feGaussianBlur stdDeviation="4"/>
<feComposite in2="hardAlpha" operator="out"/>
<feColorMatrix type="matrix" values="0 0 0 0 0 0 0 0 0 0 0 0 0 0 0 0 0 0 0.25 0"/>
<feBlend mode="normal" in2="BackgroundImageFix" result="effect1_dropShadow_2831_23758"/>
<feBlend mode="normal" in="SourceGraphic" in2="effect1_dropShadow_2831_23758" result="shape"/>
</filter>
<clipPath id="clip0_2831_23758">
<rect width="407" height="407" fill="white" transform="translate(46 46)"/>
</clipPath>
</defs>
</svg>
