<svg width="200" height="200" viewBox="0 0 200 200" fill="none" xmlns="http://www.w3.org/2000/svg">
<path d="M96.2907 180.161C123.539 180.161 145.628 176.037 145.628 170.95C145.628 165.862 123.539 161.738 96.2907 161.738C69.0423 161.738 46.9531 165.862 46.9531 170.95C46.9531 176.037 69.0423 180.161 96.2907 180.161Z" fill="#A4AFBF" fill-opacity="0.7"/>
<path d="M62.6984 50.4203C61.0581 59.4171 61.323 73.4108 61.7268 80.0354L77.159 69.1585C76.2379 57.2216 72.7804 49.0197 70.3704 45.0828C69.7016 43.985 68.2757 43.7704 67.2032 44.4771L66.5975 44.8809C64.6164 46.1679 63.1148 48.0985 62.6984 50.4203Z" fill="url(#paint0_linear_1993_2829)"/>
<path d="M74.6952 55.4036C67.692 47.9841 63.099 54.861 61.7109 59.126C62.4049 50.6213 61.8624 48.7159 65.9507 45.309C69.5217 42.3311 70.6195 45.3721 71.0485 46.0787C71.4523 46.7222 73.7362 51.7948 74.6952 55.4036Z" fill="#FF9100"/>
<path fill-rule="evenodd" clip-rule="evenodd" d="M133.032 82.8604C143.77 72.9929 160.262 54.8351 164.54 44.261C164.931 43.2768 164.565 42.1916 163.72 41.5607L163.48 41.3714C161.108 39.5796 157.89 39.3399 155.29 40.791C144.893 46.5702 130.798 54.9739 116.01 68.7279C110.218 66.0528 103.644 64.5008 96.6659 64.3998C72.8678 64.0465 53.3346 80.7153 53.0192 101.624C52.7163 122.532 71.7574 139.756 95.5555 140.11C119.354 140.463 138.887 123.794 139.202 102.886C139.29 95.567 137.032 88.7027 133.032 82.8604Z" fill="white"/>
<path d="M164.487 44.2355C162.38 48.6897 158.468 55.9453 150.279 65.2197C150.279 65.2197 153.421 53.7749 150.733 51.4027C148.046 49.0304 136.008 52.6393 136.008 52.6393C140.803 49.4973 149.673 43.0872 156.184 40.3617C158.38 39.4405 160.828 39.8191 162.96 40.9042L163.402 41.1314C164.538 41.7118 165.03 43.0872 164.487 44.2355Z" fill="#FF9100"/>
<path d="M164.601 44.1092C160.286 55.3269 143.617 73.7117 133.093 82.8474L130.305 79.1502L164.008 43.7685C164.298 43.4783 164.753 43.7307 164.601 44.1092Z" fill="#E9E6E6"/>
<path d="M113.282 104.576C113.08 118.065 101.711 131.352 84.815 131.1C67.9191 130.847 54.4175 117.194 54.6194 103.718C54.8213 90.2289 67.4144 79.4908 84.3103 79.7305C101.206 79.9829 113.484 91.0996 113.282 104.576Z" fill="#35373A"/>
<mask id="mask0_1993_2829" style="mask-type:luminance" maskUnits="userSpaceOnUse" x="60" y="95" width="17" height="13">
<path d="M76.2398 107.315C76.2398 107.315 72.7067 103.164 68.265 103.088C63.8234 103.025 60.1515 107.845 60.1641 107.075C60.2524 100.867 63.9243 95.8828 68.366 95.9459C72.795 96.009 76.3281 101.094 76.2398 107.315Z" fill="white"/>
</mask>
<g mask="url(#mask0_1993_2829)">
<path d="M62.4643 95.3893C62.4706 94.9573 62.182 94.6028 61.8197 94.5975C61.4573 94.5921 61.1584 94.9381 61.1521 95.3701C61.1458 95.8021 61.4344 96.1567 61.7967 96.162C62.1591 96.1673 62.4579 95.8214 62.4643 95.3893Z" fill="#F29111"/>
<path d="M62.433 97.3522C62.4394 96.9202 62.1508 96.5657 61.7884 96.5603C61.4261 96.555 61.1272 96.9009 61.1209 97.333C61.1145 97.765 61.4031 98.1195 61.7655 98.1249C62.1278 98.1302 62.4267 97.7843 62.433 97.3522Z" fill="#F29111"/>
<path d="M62.4096 99.3268C62.4159 98.8948 62.1273 98.5403 61.765 98.535C61.4026 98.5296 61.1038 98.8756 61.0974 99.3076C61.0911 99.7396 61.3797 100.094 61.742 100.099C62.1044 100.105 62.4033 99.7589 62.4096 99.3268Z" fill="#F29111"/>
<path d="M62.3783 101.29C62.3847 100.858 62.0961 100.503 61.7337 100.498C61.3714 100.493 61.0725 100.838 61.0662 101.27C61.0598 101.703 61.3484 102.057 61.7108 102.062C62.0731 102.068 62.372 101.722 62.3783 101.29Z" fill="#F29111"/>
<path d="M62.3549 103.255C62.3612 102.823 62.0726 102.468 61.7103 102.463C61.348 102.457 61.0491 102.803 61.0427 103.235C61.0364 103.667 61.325 104.022 61.6873 104.027C62.0497 104.033 62.3486 103.687 62.3549 103.255Z" fill="#F29111"/>
<path d="M64.1049 95.4128C64.1112 94.9808 63.8226 94.6262 63.4603 94.6209C63.098 94.6156 62.7991 94.9615 62.7927 95.3935C62.7864 95.8256 63.075 96.1801 63.4373 96.1854C63.7997 96.1907 64.0986 95.8448 64.1049 95.4128Z" fill="#F29111"/>
<path d="M64.0737 97.3757C64.08 96.9436 63.7914 96.5891 63.429 96.5838C63.0667 96.5785 62.7678 96.9244 62.7615 97.3564C62.7551 97.7884 63.0437 98.143 63.4061 98.1483C63.7684 98.1536 64.0673 97.8077 64.0737 97.3757Z" fill="#F29111"/>
<path d="M64.0502 99.3522C64.0566 98.9202 63.768 98.5657 63.4056 98.5603C63.0433 98.555 62.7444 98.9009 62.738 99.333C62.7317 99.765 63.0203 100.12 63.3826 100.125C63.745 100.13 64.0439 99.7843 64.0502 99.3522Z" fill="#F29111"/>
<path d="M64.019 101.315C64.0253 100.883 63.7367 100.529 63.3744 100.523C63.012 100.518 62.7131 100.864 62.7068 101.296C62.7005 101.728 62.9891 102.082 63.3514 102.088C63.7137 102.093 64.0126 101.747 64.019 101.315Z" fill="#F29111"/>
<path d="M63.9799 103.278C63.9862 102.846 63.6976 102.491 63.3353 102.486C62.973 102.481 62.6741 102.827 62.6677 103.259C62.6614 103.691 62.95 104.045 63.3123 104.051C63.6747 104.056 63.9736 103.71 63.9799 103.278Z" fill="#F29111"/>
<path d="M60.8158 95.364C60.8222 94.9319 60.5336 94.5774 60.1712 94.5721C59.8089 94.5667 59.51 94.9127 59.5037 95.3447C59.4973 95.7767 59.7859 96.1313 60.1483 96.1366C60.5106 96.1419 60.8095 95.796 60.8158 95.364Z" fill="#F29111"/>
<path d="M60.7924 97.3268C60.7987 96.8948 60.5101 96.5403 60.1478 96.535C59.7855 96.5296 59.4866 96.8756 59.4802 97.3076C59.4739 97.7396 59.7625 98.0942 60.1248 98.0995C60.4872 98.1048 60.7861 97.7589 60.7924 97.3268Z" fill="#F29111"/>
<path d="M60.769 99.3034C60.7753 98.8714 60.4867 98.5168 60.1244 98.5115C59.762 98.5062 59.4631 98.8521 59.4568 99.2841C59.4505 99.7162 59.7391 100.071 60.1014 100.076C60.4637 100.081 60.7626 99.7354 60.769 99.3034Z" fill="#F29111"/>
<path d="M60.7377 101.266C60.7441 100.834 60.4554 100.48 60.0931 100.474C59.7308 100.469 59.4319 100.815 59.4255 101.247C59.4192 101.679 59.7078 102.034 60.0701 102.039C60.4325 102.044 60.7314 101.698 60.7377 101.266Z" fill="#F29111"/>
<path d="M60.7143 103.229C60.7206 102.797 60.432 102.443 60.0697 102.437C59.7073 102.432 59.4084 102.778 59.4021 103.21C59.3958 103.642 59.6844 103.996 60.0467 104.002C60.4091 104.007 60.7079 103.661 60.7143 103.229Z" fill="#F29111"/>
<path d="M65.7455 95.4382C65.7519 95.0061 65.4633 94.6516 65.1009 94.6463C64.7386 94.641 64.4397 94.9869 64.4334 95.4189C64.427 95.8509 64.7156 96.2055 65.078 96.2108C65.4403 96.2161 65.7392 95.8702 65.7455 95.4382Z" fill="#F29111"/>
<path d="M65.7143 97.4011C65.7206 96.969 65.432 96.6145 65.0697 96.6092C64.7073 96.6039 64.4084 96.9498 64.4021 97.3818C64.3958 97.8138 64.6844 98.1684 65.0467 98.1737C65.4091 98.179 65.7079 97.8331 65.7143 97.4011Z" fill="#F29111"/>
<path d="M65.6908 99.364C65.6972 98.9319 65.4086 98.5774 65.0462 98.5721C64.6839 98.5667 64.385 98.9127 64.3787 99.3447C64.3723 99.7767 64.6609 100.131 65.0233 100.137C65.3856 100.142 65.6845 99.796 65.6908 99.364Z" fill="#F29111"/>
<path d="M65.6518 101.339C65.6581 100.907 65.3695 100.552 65.0072 100.547C64.6448 100.541 64.3459 100.887 64.3396 101.319C64.3333 101.751 64.6219 102.106 64.9842 102.111C65.3466 102.117 65.6454 101.771 65.6518 101.339Z" fill="#F29111"/>
<path d="M65.6205 103.303C65.6269 102.871 65.3383 102.517 64.9759 102.512C64.6136 102.506 64.3147 102.852 64.3084 103.284C64.302 103.716 64.5906 104.071 64.953 104.076C65.3153 104.081 65.6142 103.735 65.6205 103.303Z" fill="#F29111"/>
<path d="M69.0268 95.485C69.0331 95.053 68.7445 94.6985 68.3822 94.6932C68.0198 94.6878 67.7209 95.0338 67.7146 95.4658C67.7083 95.8978 67.9969 96.2524 68.3592 96.2577C68.7216 96.263 69.0204 95.9171 69.0268 95.485Z" fill="#F29111"/>
<path d="M69.0033 97.4499C69.0097 97.0179 68.7211 96.6633 68.3587 96.658C67.9964 96.6527 67.6975 96.9986 67.6912 97.4306C67.6848 97.8627 67.9734 98.2172 68.3358 98.2225C68.6981 98.2278 68.997 97.8819 69.0033 97.4499Z" fill="#F29111"/>
<path d="M68.9643 99.4128C68.9706 98.9808 68.682 98.6262 68.3197 98.6209C67.9573 98.6156 67.6584 98.9615 67.6521 99.3935C67.6458 99.8256 67.9344 100.18 68.2967 100.185C68.6591 100.191 68.9579 99.8448 68.9643 99.4128Z" fill="#F29111"/>
<path d="M68.933 101.387C68.9394 100.955 68.6508 100.601 68.2884 100.596C67.9261 100.59 67.6272 100.936 67.6209 101.368C67.6145 101.8 67.9031 102.155 68.2655 102.16C68.6278 102.165 68.9267 101.819 68.933 101.387Z" fill="#F29111"/>
<path d="M68.9096 103.35C68.9159 102.918 68.6273 102.564 68.265 102.558C67.9026 102.553 67.6038 102.899 67.5974 103.331C67.5911 103.763 67.8797 104.118 68.242 104.123C68.6044 104.128 68.9032 103.782 68.9096 103.35Z" fill="#F29111"/>
<path d="M73.9408 95.5593C73.9472 95.1272 73.6586 94.7727 73.2962 94.7674C72.9339 94.7621 72.635 95.108 72.6287 95.54C72.6223 95.972 72.9109 96.3266 73.2733 96.3319C73.6356 96.3372 73.9345 95.9913 73.9408 95.5593Z" fill="#F29111"/>
<path d="M73.9174 97.5222C73.9237 97.0901 73.6351 96.7356 73.2728 96.7303C72.9105 96.725 72.6116 97.0709 72.6052 97.5029C72.5989 97.9349 72.8875 98.2895 73.2498 98.2948C73.6122 98.3001 73.9111 97.9542 73.9174 97.5222Z" fill="#F29111"/>
<path d="M73.8862 99.485C73.8925 99.053 73.6039 98.6985 73.2415 98.6932C72.8792 98.6878 72.5803 99.0338 72.574 99.4658C72.5676 99.8978 72.8562 100.252 73.2186 100.258C73.5809 100.263 73.8798 99.9171 73.8862 99.485Z" fill="#F29111"/>
<path d="M73.8627 101.462C73.8691 101.03 73.5804 100.675 73.2181 100.67C72.8558 100.664 72.5569 101.01 72.5505 101.442C72.5442 101.874 72.8328 102.229 73.1951 102.234C73.5575 102.24 73.8564 101.894 73.8627 101.462Z" fill="#F29111"/>
<path d="M73.8315 103.424C73.8378 102.992 73.5492 102.638 73.1869 102.633C72.8245 102.627 72.5256 102.973 72.5193 103.405C72.513 103.837 72.8016 104.192 73.1639 104.197C73.5262 104.202 73.8251 103.857 73.8315 103.424Z" fill="#F29111"/>
<path d="M70.6674 95.5104C70.6737 95.0784 70.3851 94.7239 70.0228 94.7186C69.6605 94.7132 69.3616 95.0592 69.3552 95.4912C69.3489 95.9232 69.6375 96.2777 69.9998 96.2831C70.3622 96.2884 70.6611 95.9425 70.6674 95.5104Z" fill="#F29111"/>
<path d="M70.6283 97.4733C70.6347 97.0413 70.3461 96.6868 69.9837 96.6814C69.6214 96.6761 69.3225 97.022 69.3162 97.4541C69.3098 97.8861 69.5984 98.2406 69.9608 98.246C70.3231 98.2513 70.622 97.9054 70.6283 97.4733Z" fill="#F29111"/>
<path d="M70.6049 99.4362C70.6112 99.0042 70.3226 98.6496 69.9603 98.6443C69.5979 98.639 69.2991 98.9849 69.2927 99.417C69.2864 99.849 69.575 100.204 69.9373 100.209C70.2997 100.214 70.5986 99.8682 70.6049 99.4362Z" fill="#F29111"/>
<path d="M70.5737 101.413C70.58 100.981 70.2914 100.626 69.929 100.621C69.5667 100.616 69.2678 100.961 69.2615 101.394C69.2551 101.826 69.5437 102.18 69.9061 102.185C70.2684 102.191 70.5673 101.845 70.5737 101.413Z" fill="#F29111"/>
<path d="M70.5502 103.376C70.5566 102.944 70.268 102.589 69.9056 102.584C69.5433 102.578 69.2444 102.924 69.238 103.356C69.2317 103.788 69.5203 104.143 69.8826 104.148C70.245 104.154 70.5439 103.808 70.5502 103.376Z" fill="#F29111"/>
<path d="M75.5815 95.5827C75.5878 95.1507 75.2992 94.7961 74.9369 94.7908C74.5745 94.7855 74.2756 95.1314 74.2693 95.5634C74.263 95.9955 74.5516 96.35 74.9139 96.3553C75.2762 96.3606 75.5751 96.0147 75.5815 95.5827Z" fill="#F29111"/>
<path d="M75.558 97.5456C75.5644 97.1136 75.2758 96.759 74.9134 96.7537C74.5511 96.7484 74.2522 97.0943 74.2459 97.5263C74.2395 97.9584 74.5281 98.3129 74.8905 98.3182C75.2528 98.3235 75.5517 97.9776 75.558 97.5456Z" fill="#F29111"/>
<path d="M75.5268 99.5085C75.5331 99.0765 75.2445 98.7219 74.8822 98.7166C74.5198 98.7113 74.2209 99.0572 74.2146 99.4892C74.2083 99.9213 74.4969 100.276 74.8592 100.281C75.2216 100.286 75.5204 99.9405 75.5268 99.5085Z" fill="#F29111"/>
<path d="M75.5033 101.485C75.5097 101.053 75.2211 100.698 74.8587 100.693C74.4964 100.688 74.1975 101.034 74.1912 101.466C74.1848 101.898 74.4734 102.252 74.8358 102.258C75.1981 102.263 75.497 101.917 75.5033 101.485Z" fill="#F29111"/>
<path d="M75.4721 103.448C75.4784 103.016 75.1898 102.661 74.8275 102.656C74.4651 102.651 74.1663 102.997 74.1599 103.429C74.1536 103.861 74.4422 104.215 74.8045 104.221C75.1669 104.226 75.4657 103.88 75.4721 103.448Z" fill="#F29111"/>
<path d="M67.3861 95.4616C67.3925 95.0296 67.1039 94.675 66.7415 94.6697C66.3792 94.6644 66.0803 95.0103 66.074 95.4424C66.0676 95.8744 66.3562 96.2289 66.7186 96.2342C67.0809 96.2396 67.3798 95.8936 67.3861 95.4616Z" fill="#F29111"/>
<path d="M67.3627 97.4245C67.3691 96.9925 67.0805 96.6379 66.7181 96.6326C66.3558 96.6273 66.0569 96.9732 66.0505 97.4052C66.0442 97.8373 66.3328 98.1918 66.6951 98.1971C67.0575 98.2024 67.3564 97.8565 67.3627 97.4245Z" fill="#F29111"/>
<path d="M67.3315 99.3874C67.3378 98.9554 67.0492 98.6008 66.6869 98.5955C66.3245 98.5902 66.0256 98.9361 66.0193 99.3681C66.013 99.8002 66.3016 100.155 66.6639 100.16C67.0262 100.165 67.3251 99.8194 67.3315 99.3874Z" fill="#F29111"/>
<path d="M67.2924 101.364C67.2987 100.932 67.0101 100.577 66.6478 100.572C66.2855 100.567 65.9866 100.913 65.9802 101.345C65.9739 101.777 66.2625 102.131 66.6248 102.137C66.9872 102.142 67.2861 101.796 67.2924 101.364Z" fill="#F29111"/>
<path d="M67.269 103.327C67.2753 102.895 66.9867 102.54 66.6244 102.535C66.262 102.53 65.9631 102.876 65.9568 103.308C65.9505 103.74 66.2391 104.094 66.6014 104.099C66.9637 104.105 67.2626 103.759 67.269 103.327Z" fill="#F29111"/>
<path d="M72.3158 95.5339C72.3222 95.1018 72.0336 94.7473 71.6712 94.742C71.3089 94.7367 71.01 95.0826 71.0037 95.5146C70.9973 95.9466 71.2859 96.3012 71.6483 96.3065C72.0106 96.3118 72.3095 95.9659 72.3158 95.5339Z" fill="#F29111"/>
<path d="M72.269 97.4968C72.2753 97.0647 71.9867 96.7102 71.6244 96.7049C71.262 96.6996 70.9631 97.0455 70.9568 97.4775C70.9505 97.9095 71.2391 98.2641 71.6014 98.2694C71.9637 98.2747 72.2626 97.9288 72.269 97.4968Z" fill="#F29111"/>
<path d="M72.2455 99.4597C72.2519 99.0276 71.9633 98.6731 71.6009 98.6678C71.2386 98.6625 70.9397 99.0084 70.9334 99.4404C70.927 99.8724 71.2156 100.227 71.578 100.232C71.9403 100.238 72.2392 99.8917 72.2455 99.4597Z" fill="#F29111"/>
<path d="M72.2143 101.436C72.2206 101.004 71.932 100.65 71.5697 100.644C71.2073 100.639 70.9084 100.985 70.9021 101.417C70.8958 101.849 71.1844 102.204 71.5467 102.209C71.9091 102.214 72.2079 101.868 72.2143 101.436Z" fill="#F29111"/>
<path d="M72.1908 103.399C72.1972 102.967 71.9086 102.613 71.5462 102.607C71.1839 102.602 70.885 102.948 70.8787 103.38C70.8723 103.812 71.1609 104.166 71.5233 104.172C71.8856 104.177 72.1845 103.831 72.1908 103.399Z" fill="#F29111"/>
<path d="M77.2221 95.6061C77.2284 95.1741 76.9398 94.8196 76.5775 94.8143C76.2151 94.8089 75.9163 95.1549 75.9099 95.5869C75.9036 96.0189 76.1922 96.3735 76.5545 96.3788C76.9169 96.3841 77.2158 96.0382 77.2221 95.6061Z" fill="#F29111"/>
<path d="M77.1987 97.569C77.205 97.137 76.9164 96.7825 76.554 96.7771C76.1917 96.7718 75.8928 97.1177 75.8865 97.5498C75.8801 97.9818 76.1687 98.3363 76.5311 98.3417C76.8934 98.347 77.1923 98.0011 77.1987 97.569Z" fill="#F29111"/>
<path d="M77.1674 99.5339C77.1737 99.1018 76.8851 98.7473 76.5228 98.742C76.1605 98.7367 75.8616 99.0826 75.8552 99.5146C75.8489 99.9466 76.1375 100.301 76.4998 100.307C76.8622 100.312 77.1611 99.9659 77.1674 99.5339Z" fill="#F29111"/>
<path d="M77.144 101.508C77.1503 101.076 76.8617 100.722 76.4994 100.717C76.137 100.711 75.8381 101.057 75.8318 101.489C75.8255 101.921 76.1141 102.276 76.4764 102.281C76.8387 102.286 77.1376 101.941 77.144 101.508Z" fill="#F29111"/>
<path d="M77.1127 103.471C77.1191 103.039 76.8304 102.685 76.4681 102.679C76.1058 102.674 75.8069 103.02 75.8005 103.452C75.7942 103.884 76.0828 104.239 76.4451 104.244C76.8075 104.249 77.1064 103.903 77.1127 103.471Z" fill="#F29111"/>
<path d="M62.3158 105.217C62.3222 104.785 62.0336 104.431 61.6712 104.426C61.3089 104.42 61.01 104.766 61.0037 105.198C60.9973 105.63 61.2859 105.985 61.6483 105.99C62.0106 105.995 62.3095 105.65 62.3158 105.217Z" fill="#F29111"/>
<path d="M62.2846 107.192C62.2909 106.76 62.0023 106.406 61.64 106.4C61.2776 106.395 60.9788 106.741 60.9724 107.173C60.9661 107.605 61.2547 107.959 61.617 107.965C61.9794 107.97 62.2782 107.624 62.2846 107.192Z" fill="#F29111"/>
<path d="M63.9565 105.241C63.9628 104.809 63.6742 104.454 63.3119 104.449C62.9495 104.444 62.6506 104.79 62.6443 105.222C62.638 105.654 62.9265 106.008 63.2889 106.014C63.6512 106.019 63.9501 105.673 63.9565 105.241Z" fill="#F29111"/>
<path d="M63.9252 107.217C63.9316 106.785 63.6429 106.431 63.2806 106.426C62.9183 106.42 62.6194 106.766 62.613 107.198C62.6067 107.63 62.8953 107.985 63.2576 107.99C63.62 107.995 63.9189 107.649 63.9252 107.217Z" fill="#F29111"/>
<path d="M60.6752 105.192C60.6816 104.76 60.3929 104.406 60.0306 104.4C59.6683 104.395 59.3694 104.741 59.363 105.173C59.3567 105.605 59.6453 105.959 60.0076 105.965C60.37 105.97 60.6689 105.624 60.6752 105.192Z" fill="#F29111"/>
<path d="M60.644 107.169C60.6503 106.737 60.3617 106.382 59.9994 106.377C59.637 106.371 59.3381 106.717 59.3318 107.149C59.3255 107.581 59.6141 107.936 59.9764 107.941C60.3388 107.947 60.6376 107.601 60.644 107.169Z" fill="#F29111"/>
<path d="M65.5971 105.266C65.6034 104.834 65.3148 104.48 64.9525 104.474C64.5901 104.469 64.2913 104.815 64.2849 105.247C64.2786 105.679 64.5672 106.034 64.9295 106.039C65.2919 106.044 65.5908 105.698 65.5971 105.266Z" fill="#F29111"/>
<path d="M65.5658 107.241C65.5722 106.809 65.2836 106.454 64.9212 106.449C64.5589 106.444 64.26 106.79 64.2537 107.222C64.2473 107.654 64.5359 108.008 64.8983 108.014C65.2606 108.019 65.5595 107.673 65.5658 107.241Z" fill="#F29111"/>
<path d="M68.8783 105.315C68.8847 104.883 68.5961 104.529 68.2337 104.523C67.8714 104.518 67.5725 104.864 67.5662 105.296C67.5598 105.728 67.8484 106.082 68.2108 106.088C68.5731 106.093 68.872 105.747 68.8783 105.315Z" fill="#F29111"/>
<path d="M68.8549 107.29C68.8612 106.858 68.5727 106.503 68.2103 106.498C67.848 106.493 67.5491 106.838 67.5427 107.27C67.5364 107.703 67.825 108.057 68.1873 108.062C68.5497 108.068 68.8486 107.722 68.8549 107.29Z" fill="#F29111"/>
<path d="M73.808 105.387C73.8144 104.955 73.5258 104.601 73.1634 104.596C72.8011 104.59 72.5022 104.936 72.4959 105.368C72.4895 105.8 72.7781 106.155 73.1405 106.16C73.5028 106.165 73.8017 105.819 73.808 105.387Z" fill="#F29111"/>
<path d="M73.7768 107.362C73.7831 106.93 73.4945 106.575 73.1322 106.57C72.7698 106.565 72.4709 106.911 72.4646 107.343C72.4583 107.775 72.7469 108.129 73.1092 108.135C73.4716 108.14 73.7704 107.794 73.7768 107.362Z" fill="#F29111"/>
<path d="M70.519 105.339C70.5253 104.907 70.2367 104.552 69.8744 104.547C69.512 104.541 69.2131 104.887 69.2068 105.319C69.2005 105.751 69.4891 106.106 69.8514 106.111C70.2137 106.117 70.5126 105.771 70.519 105.339Z" fill="#F29111"/>
<path d="M70.4955 107.313C70.5019 106.881 70.2133 106.527 69.8509 106.521C69.4886 106.516 69.1897 106.862 69.1834 107.294C69.177 107.726 69.4656 108.08 69.828 108.086C70.1903 108.091 70.4892 107.745 70.4955 107.313Z" fill="#F29111"/>
<path d="M75.4486 105.411C75.455 104.979 75.1664 104.624 74.804 104.619C74.4417 104.614 74.1428 104.96 74.1365 105.392C74.1301 105.824 74.4187 106.178 74.7811 106.183C75.1434 106.189 75.4423 105.843 75.4486 105.411Z" fill="#F29111"/>
<path d="M75.4174 107.387C75.4237 106.955 75.1351 106.601 74.7728 106.596C74.4104 106.59 74.1116 106.936 74.1052 107.368C74.0989 107.8 74.3875 108.155 74.7498 108.16C75.1122 108.165 75.4111 107.819 75.4174 107.387Z" fill="#F29111"/>
<path d="M67.2377 105.29C67.2441 104.858 66.9555 104.503 66.5931 104.498C66.2308 104.493 65.9319 104.838 65.9255 105.27C65.9192 105.703 66.2078 106.057 66.5701 106.062C66.9325 106.068 67.2314 105.722 67.2377 105.29Z" fill="#F29111"/>
<path d="M67.2143 107.266C67.2206 106.834 66.932 106.48 66.5697 106.474C66.2073 106.469 65.9084 106.815 65.9021 107.247C65.8958 107.679 66.1844 108.034 66.5467 108.039C66.9091 108.044 67.2079 107.698 67.2143 107.266Z" fill="#F29111"/>
<path d="M72.1674 105.362C72.1737 104.93 71.8851 104.575 71.5228 104.57C71.1604 104.565 70.8616 104.911 70.8552 105.343C70.8489 105.775 71.1375 106.129 71.4998 106.135C71.8622 106.14 72.1611 105.794 72.1674 105.362Z" fill="#F29111"/>
<path d="M72.1362 107.339C72.1425 106.907 71.8539 106.552 71.4915 106.547C71.1292 106.541 70.8303 106.887 70.824 107.319C70.8176 107.751 71.1062 108.106 71.4686 108.111C71.8309 108.117 72.1298 107.771 72.1362 107.339Z" fill="#F29111"/>
<path d="M77.0893 105.434C77.0956 105.002 76.807 104.648 76.4447 104.642C76.0823 104.637 75.7834 104.983 75.7771 105.415C75.7708 105.847 76.0594 106.202 76.4217 106.207C76.7841 106.212 77.0829 105.866 77.0893 105.434Z" fill="#F29111"/>
<path d="M77.0502 107.411C77.0566 106.979 76.7679 106.624 76.4056 106.619C76.0433 106.614 75.7444 106.96 75.738 107.392C75.7317 107.824 76.0203 108.178 76.3826 108.183C76.745 108.189 77.0439 107.843 77.0502 107.411Z" fill="#F29111"/>
</g>
<mask id="mask1_1993_2829" style="mask-type:luminance" maskUnits="userSpaceOnUse" x="83" y="96" width="17" height="12">
<path d="M99.271 107.655C99.271 107.655 95.7379 103.503 91.2963 103.428C86.8547 103.365 83.1827 108.185 83.1953 107.415C83.2837 101.207 86.9556 96.2227 91.3972 96.2857C95.8389 96.3488 99.3594 101.434 99.271 107.655Z" fill="white"/>
</mask>
<g mask="url(#mask1_1993_2829)">
<path d="M85.5033 95.7311C85.5097 95.2991 85.2211 94.9446 84.8587 94.9393C84.4964 94.9339 84.1975 95.2799 84.1912 95.7119C84.1848 96.1439 84.4734 96.4985 84.8358 96.5038C85.1981 96.5091 85.497 96.1632 85.5033 95.7311Z" fill="#F29111"/>
<path d="M85.4721 97.694C85.4784 97.262 85.1898 96.9075 84.8275 96.9021C84.4651 96.8968 84.1663 97.2427 84.1599 97.6748C84.1536 98.1068 84.4422 98.4613 84.8045 98.4667C85.1669 98.472 85.4658 98.1261 85.4721 97.694Z" fill="#F29111"/>
<path d="M85.4486 99.6569C85.455 99.2249 85.1664 98.8704 84.804 98.865C84.4417 98.8597 84.1428 99.2056 84.1365 99.6377C84.1301 100.07 84.4187 100.424 84.7811 100.43C85.1434 100.435 85.4423 100.089 85.4486 99.6569Z" fill="#F29111"/>
<path d="M85.4096 101.62C85.4159 101.188 85.1273 100.833 84.765 100.828C84.4026 100.823 84.1038 101.169 84.0974 101.601C84.0911 102.033 84.3797 102.387 84.742 102.392C85.1044 102.398 85.4032 102.052 85.4096 101.62Z" fill="#F29111"/>
<path d="M85.3783 103.596C85.3847 103.164 85.0961 102.81 84.7337 102.804C84.3714 102.799 84.0725 103.145 84.0662 103.577C84.0598 104.009 84.3484 104.364 84.7108 104.369C85.0731 104.374 85.372 104.028 85.3783 103.596Z" fill="#F29111"/>
<path d="M87.144 95.7546C87.1503 95.3225 86.8617 94.968 86.4994 94.9627C86.137 94.9574 85.8381 95.3033 85.8318 95.7353C85.8255 96.1673 86.1141 96.5219 86.4764 96.5272C86.8387 96.5325 87.1376 96.1866 87.144 95.7546Z" fill="#F29111"/>
<path d="M87.1127 97.7175C87.1191 97.2854 86.8305 96.9309 86.4681 96.9256C86.1058 96.9203 85.8069 97.2662 85.8005 97.6982C85.7942 98.1302 86.0828 98.4848 86.4451 98.4901C86.8075 98.4954 87.1064 98.1495 87.1127 97.7175Z" fill="#F29111"/>
<path d="M87.0737 99.6804C87.08 99.2483 86.7914 98.8938 86.429 98.8885C86.0667 98.8832 85.7678 99.2291 85.7615 99.6611C85.7551 100.093 86.0437 100.448 86.4061 100.453C86.7684 100.458 87.0673 100.112 87.0737 99.6804Z" fill="#F29111"/>
<path d="M87.0502 101.643C87.0566 101.211 86.7679 100.857 86.4056 100.851C86.0433 100.846 85.7444 101.192 85.738 101.624C85.7317 102.056 86.0203 102.411 86.3826 102.416C86.745 102.421 87.0439 102.075 87.0502 101.643Z" fill="#F29111"/>
<path d="M87.019 103.62C87.0253 103.188 86.7367 102.833 86.3744 102.828C86.012 102.823 85.7131 103.169 85.7068 103.601C85.7005 104.033 85.9891 104.387 86.3514 104.392C86.7137 104.398 87.0126 104.052 87.019 103.62Z" fill="#F29111"/>
<path d="M83.8549 95.7057C83.8612 95.2737 83.5726 94.9192 83.2103 94.9139C82.848 94.9085 82.5491 95.2545 82.5427 95.6865C82.5364 96.1185 82.825 96.4731 83.1873 96.4784C83.5497 96.4837 83.8486 96.1378 83.8549 95.7057Z" fill="#F29111"/>
<path d="M83.8315 97.6686C83.8378 97.2366 83.5492 96.8821 83.1869 96.8768C82.8245 96.8714 82.5256 97.2174 82.5193 97.6494C82.513 98.0814 82.8015 98.436 83.1639 98.4413C83.5262 98.4466 83.8251 98.1007 83.8315 97.6686Z" fill="#F29111"/>
<path d="M83.808 99.6315C83.8144 99.1995 83.5258 98.845 83.1634 98.8396C82.8011 98.8343 82.5022 99.1802 82.4959 99.6123C82.4895 100.044 82.7781 100.399 83.1405 100.404C83.5028 100.409 83.8017 100.064 83.808 99.6315Z" fill="#F29111"/>
<path d="M83.7768 101.596C83.7831 101.164 83.4945 100.81 83.1322 100.804C82.7698 100.799 82.4709 101.145 82.4646 101.577C82.4583 102.009 82.7469 102.364 83.1092 102.369C83.4716 102.374 83.7704 102.028 83.7768 101.596Z" fill="#F29111"/>
<path d="M83.7377 103.571C83.7441 103.139 83.4555 102.784 83.0931 102.779C82.7308 102.774 82.4319 103.12 82.4255 103.552C82.4192 103.984 82.7078 104.338 83.0701 104.344C83.4325 104.349 83.7314 104.003 83.7377 103.571Z" fill="#F29111"/>
<path d="M88.7846 95.7663C88.7909 95.3343 88.5023 94.9797 88.14 94.9744C87.7776 94.9691 87.4788 95.315 87.4724 95.747C87.4661 96.1791 87.7547 96.5336 88.117 96.5389C88.4794 96.5442 88.7782 96.1983 88.7846 95.7663Z" fill="#F29111"/>
<path d="M88.7533 97.7429C88.7597 97.3108 88.4711 96.9563 88.1087 96.951C87.7464 96.9457 87.4475 97.2916 87.4412 97.7236C87.4348 98.1556 87.7234 98.5102 88.0858 98.5155C88.4481 98.5208 88.747 98.1749 88.7533 97.7429Z" fill="#F29111"/>
<path d="M88.7143 99.7057C88.7206 99.2737 88.432 98.9192 88.0697 98.9139C87.7073 98.9085 87.4084 99.2545 87.4021 99.6865C87.3958 100.119 87.6844 100.473 88.0467 100.478C88.4091 100.484 88.7079 100.138 88.7143 99.7057Z" fill="#F29111"/>
<path d="M88.6908 101.669C88.6972 101.237 88.4086 100.882 88.0462 100.877C87.6839 100.871 87.385 101.217 87.3787 101.649C87.3723 102.081 87.6609 102.436 88.0233 102.441C88.3856 102.447 88.6845 102.101 88.6908 101.669Z" fill="#F29111"/>
<path d="M88.6596 103.645C88.6659 103.213 88.3773 102.859 88.015 102.853C87.6526 102.848 87.3538 103.194 87.3474 103.626C87.3411 104.058 87.6297 104.413 87.992 104.418C88.3544 104.423 88.6532 104.077 88.6596 103.645Z" fill="#F29111"/>
<path d="M92.058 95.8151C92.0644 95.3831 91.7758 95.0286 91.4134 95.0232C91.0511 95.0179 90.7522 95.3638 90.7459 95.7959C90.7395 96.2279 91.0281 96.5824 91.3905 96.5878C91.7528 96.5931 92.0517 96.2471 92.058 95.8151Z" fill="#F29111"/>
<path d="M92.0268 97.7917C92.0331 97.3597 91.7445 97.0051 91.3822 96.9998C91.0198 96.9945 90.7209 97.3404 90.7146 97.7724C90.7083 98.2045 90.9969 98.559 91.3592 98.5643C91.7216 98.5696 92.0204 98.2237 92.0268 97.7917Z" fill="#F29111"/>
<path d="M92.0033 99.7546C92.0097 99.3225 91.7211 98.968 91.3587 98.9627C90.9964 98.9574 90.6975 99.3033 90.6912 99.7353C90.6848 100.167 90.9734 100.522 91.3358 100.527C91.6981 100.533 91.997 100.187 92.0033 99.7546Z" fill="#F29111"/>
<path d="M91.9721 101.717C91.9784 101.285 91.6898 100.931 91.3275 100.926C90.9651 100.92 90.6663 101.266 90.6599 101.698C90.6536 102.13 90.9422 102.485 91.3045 102.49C91.6669 102.495 91.9658 102.15 91.9721 101.717Z" fill="#F29111"/>
<path d="M91.9487 103.692C91.955 103.26 91.6664 102.906 91.304 102.9C90.9417 102.895 90.6428 103.241 90.6365 103.673C90.6301 104.105 90.9187 104.459 91.2811 104.465C91.6434 104.47 91.9423 104.124 91.9487 103.692Z" fill="#F29111"/>
<path d="M96.9799 95.8874C96.9862 95.4554 96.6976 95.1008 96.3353 95.0955C95.973 95.0902 95.6741 95.4361 95.6677 95.8681C95.6614 96.3002 95.95 96.6547 96.3123 96.66C96.6747 96.6653 96.9736 96.3194 96.9799 95.8874Z" fill="#F29111"/>
<path d="M96.9565 97.864C96.9628 97.4319 96.6742 97.0774 96.3119 97.0721C95.9495 97.0668 95.6506 97.4127 95.6443 97.8447C95.638 98.2767 95.9265 98.6313 96.2889 98.6366C96.6512 98.6419 96.9501 98.296 96.9565 97.864Z" fill="#F29111"/>
<path d="M96.9252 99.8268C96.9316 99.3948 96.643 99.0403 96.2806 99.035C95.9183 99.0296 95.6194 99.3756 95.613 99.8076C95.6067 100.24 95.8953 100.594 96.2576 100.599C96.62 100.605 96.9189 100.259 96.9252 99.8268Z" fill="#F29111"/>
<path d="M96.9018 101.79C96.9081 101.358 96.6195 101.003 96.2572 100.998C95.8948 100.993 95.5959 101.338 95.5896 101.77C95.5833 102.203 95.8719 102.557 96.2342 102.562C96.5966 102.568 96.8954 102.222 96.9018 101.79Z" fill="#F29111"/>
<path d="M96.8705 103.766C96.8769 103.334 96.5883 102.98 96.2259 102.974C95.8636 102.969 95.5647 103.315 95.5584 103.747C95.552 104.179 95.8406 104.534 96.203 104.539C96.5653 104.544 96.8642 104.198 96.8705 103.766Z" fill="#F29111"/>
<path d="M93.6986 95.8386C93.705 95.4065 93.4164 95.052 93.054 95.0467C92.6917 95.0414 92.3928 95.3873 92.3865 95.8193C92.3801 96.2513 92.6687 96.6059 93.0311 96.6112C93.3934 96.6165 93.6923 96.2706 93.6986 95.8386Z" fill="#F29111"/>
<path d="M93.6674 97.8151C93.6737 97.3831 93.3851 97.0286 93.0228 97.0233C92.6605 97.0179 92.3616 97.3638 92.3552 97.7959C92.3489 98.2279 92.6375 98.5824 92.9998 98.5878C93.3622 98.5931 93.6611 98.2472 93.6674 97.8151Z" fill="#F29111"/>
<path d="M93.644 99.778C93.6503 99.346 93.3617 98.9914 92.9994 98.9861C92.637 98.9808 92.3381 99.3267 92.3318 99.7588C92.3255 100.191 92.6141 100.545 92.9764 100.551C93.3387 100.556 93.6376 100.21 93.644 99.778Z" fill="#F29111"/>
<path d="M93.6127 101.741C93.6191 101.309 93.3305 100.954 92.9681 100.949C92.6058 100.944 92.3069 101.29 92.3005 101.722C92.2942 102.154 92.5828 102.508 92.9451 102.514C93.3075 102.519 93.6064 102.173 93.6127 101.741Z" fill="#F29111"/>
<path d="M93.5893 103.717C93.5956 103.285 93.307 102.931 92.9447 102.926C92.5823 102.92 92.2834 103.266 92.2771 103.698C92.2708 104.13 92.5594 104.485 92.9217 104.49C93.2841 104.495 93.5829 104.149 93.5893 103.717Z" fill="#F29111"/>
<path d="M98.6205 95.9128C98.6269 95.4807 98.3383 95.1262 97.9759 95.1209C97.6136 95.1156 97.3147 95.4615 97.3084 95.8935C97.302 96.3255 97.5906 96.6801 97.953 96.6854C98.3153 96.6907 98.6142 96.3448 98.6205 95.9128Z" fill="#F29111"/>
<path d="M98.5971 97.8874C98.6034 97.4554 98.3148 97.1008 97.9525 97.0955C97.5901 97.0902 97.2913 97.4361 97.2849 97.8681C97.2786 98.3002 97.5672 98.6547 97.9295 98.66C98.2919 98.6653 98.5908 98.3194 98.5971 97.8874Z" fill="#F29111"/>
<path d="M98.5658 99.8503C98.5722 99.4182 98.2836 99.0637 97.9212 99.0584C97.5589 99.0531 97.26 99.399 97.2537 99.831C97.2473 100.263 97.5359 100.618 97.8983 100.623C98.2606 100.628 98.5595 100.282 98.5658 99.8503Z" fill="#F29111"/>
<path d="M98.5424 101.815C98.5487 101.383 98.2601 101.029 97.8978 101.023C97.5355 101.018 97.2366 101.364 97.2302 101.796C97.2239 102.228 97.5125 102.582 97.8748 102.588C98.2372 102.593 98.5361 102.247 98.5424 101.815Z" fill="#F29111"/>
<path d="M98.5111 103.79C98.5175 103.358 98.2289 103.003 97.8665 102.998C97.5042 102.993 97.2053 103.338 97.199 103.77C97.1926 104.202 97.4812 104.557 97.8436 104.562C98.2059 104.568 98.5048 104.222 98.5111 103.79Z" fill="#F29111"/>
<path d="M90.4252 95.7917C90.4316 95.3597 90.143 95.0051 89.7806 94.9998C89.4183 94.9945 89.1194 95.3404 89.113 95.7724C89.1067 96.2045 89.3953 96.559 89.7576 96.5643C90.12 96.5696 90.4189 96.2237 90.4252 95.7917Z" fill="#F29111"/>
<path d="M90.3862 97.7663C90.3925 97.3343 90.1039 96.9797 89.7415 96.9744C89.3792 96.9691 89.0803 97.315 89.074 97.747C89.0676 98.1791 89.3562 98.5336 89.7186 98.5389C90.0809 98.5442 90.3798 98.1983 90.3862 97.7663Z" fill="#F29111"/>
<path d="M90.3627 99.7292C90.3691 99.2972 90.0805 98.9426 89.7181 98.9373C89.3558 98.932 89.0569 99.2779 89.0505 99.7099C89.0442 100.142 89.3328 100.496 89.6951 100.502C90.0575 100.507 90.3564 100.161 90.3627 99.7292Z" fill="#F29111"/>
<path d="M90.3315 101.692C90.3378 101.26 90.0492 100.906 89.6869 100.9C89.3245 100.895 89.0256 101.241 89.0193 101.673C89.013 102.105 89.3016 102.459 89.6639 102.465C90.0262 102.47 90.3251 102.124 90.3315 101.692Z" fill="#F29111"/>
<path d="M90.308 103.669C90.3144 103.237 90.0258 102.882 89.6634 102.877C89.3011 102.871 89.0022 103.217 88.9959 103.649C88.9895 104.081 89.2781 104.436 89.6405 104.441C90.0028 104.447 90.3017 104.101 90.308 103.669Z" fill="#F29111"/>
<path d="M95.3393 95.8639C95.3456 95.4319 95.057 95.0774 94.6947 95.0721C94.3323 95.0667 94.0334 95.4127 94.0271 95.8447C94.0208 96.2767 94.3094 96.6313 94.6717 96.6366C95.0341 96.6419 95.3329 96.296 95.3393 95.8639Z" fill="#F29111"/>
<path d="M95.308 97.8386C95.3144 97.4065 95.0258 97.052 94.6634 97.0467C94.3011 97.0414 94.0022 97.3873 93.9959 97.8193C93.9895 98.2513 94.2781 98.6059 94.6405 98.6112C95.0028 98.6165 95.3017 98.2706 95.308 97.8386Z" fill="#F29111"/>
<path d="M95.2846 99.8014C95.2909 99.3694 95.0023 99.0149 94.64 99.0096C94.2776 99.0042 93.9788 99.3502 93.9724 99.7822C93.9661 100.214 94.2547 100.569 94.617 100.574C94.9794 100.579 95.2783 100.233 95.2846 99.8014Z" fill="#F29111"/>
<path d="M95.2533 101.766C95.2597 101.334 94.9711 100.98 94.6087 100.974C94.2464 100.969 93.9475 101.315 93.9412 101.747C93.9348 102.179 94.2234 102.534 94.5858 102.539C94.9481 102.544 95.247 102.198 95.2533 101.766Z" fill="#F29111"/>
<path d="M95.2299 103.741C95.2362 103.309 94.9476 102.954 94.5853 102.949C94.223 102.944 93.9241 103.29 93.9177 103.722C93.9114 104.154 94.2 104.508 94.5623 104.514C94.9247 104.519 95.2236 104.173 95.2299 103.741Z" fill="#F29111"/>
<path d="M100.261 95.9362C100.267 95.5042 99.9789 95.1496 99.6165 95.1443C99.2542 95.139 98.9553 95.4849 98.949 95.917C98.9426 96.349 99.2312 96.7035 99.5936 96.7088C99.9559 96.7142 100.255 96.3682 100.261 95.9362Z" fill="#F29111"/>
<path d="M100.238 97.9108C100.244 97.4788 99.9555 97.1243 99.5931 97.119C99.2308 97.1136 98.9319 97.4596 98.9255 97.8916C98.9192 98.3236 99.2078 98.6781 99.5701 98.6835C99.9325 98.6888 100.231 98.3429 100.238 97.9108Z" fill="#F29111"/>
<path d="M100.206 99.8757C100.213 99.4436 99.9242 99.0891 99.5619 99.0838C99.1995 99.0785 98.9006 99.4244 98.8943 99.8564C98.888 100.288 99.1765 100.643 99.5389 100.648C99.9012 100.654 100.2 100.308 100.206 99.8757Z" fill="#F29111"/>
<path d="M100.183 101.839C100.189 101.407 99.9008 101.052 99.5384 101.047C99.1761 101.041 98.8772 101.387 98.8709 101.819C98.8645 102.251 99.1531 102.606 99.5155 102.611C99.8778 102.617 100.177 102.271 100.183 101.839Z" fill="#F29111"/>
<path d="M100.144 103.813C100.15 103.381 99.8617 103.027 99.4994 103.021C99.137 103.016 98.8381 103.362 98.8318 103.794C98.8255 104.226 99.1141 104.58 99.4764 104.586C99.8387 104.591 100.138 104.245 100.144 103.813Z" fill="#F29111"/>
<path d="M85.3549 105.559C85.3612 105.127 85.0726 104.773 84.7103 104.767C84.3479 104.762 84.0491 105.108 84.0427 105.54C84.0364 105.972 84.325 106.327 84.6873 106.332C85.0497 106.337 85.3486 105.991 85.3549 105.559Z" fill="#F29111"/>
<path d="M85.3237 107.522C85.33 107.09 85.0414 106.736 84.679 106.73C84.3167 106.725 84.0178 107.071 84.0115 107.503C84.0051 107.935 84.2937 108.289 84.6561 108.295C85.0184 108.3 85.3173 107.954 85.3237 107.522Z" fill="#F29111"/>
<path d="M86.9955 105.583C87.0019 105.151 86.7133 104.796 86.3509 104.791C85.9886 104.786 85.6897 105.131 85.6834 105.563C85.677 105.995 85.9656 106.35 86.328 106.355C86.6903 106.361 86.9892 106.015 86.9955 105.583Z" fill="#F29111"/>
<path d="M86.9643 107.546C86.9706 107.114 86.682 106.759 86.3197 106.754C85.9573 106.748 85.6584 107.094 85.6521 107.526C85.6458 107.958 85.9344 108.313 86.2967 108.318C86.6591 108.324 86.9579 107.978 86.9643 107.546Z" fill="#F29111"/>
<path d="M83.7065 105.534C83.7128 105.102 83.4242 104.747 83.0619 104.742C82.6995 104.737 82.4006 105.083 82.3943 105.515C82.388 105.947 82.6766 106.301 83.0389 106.307C83.4012 106.312 83.7001 105.966 83.7065 105.534Z" fill="#F29111"/>
<path d="M83.683 107.497C83.6894 107.065 83.4008 106.71 83.0384 106.705C82.6761 106.7 82.3772 107.045 82.3709 107.478C82.3645 107.91 82.6531 108.264 83.0155 108.269C83.3778 108.275 83.6767 107.929 83.683 107.497Z" fill="#F29111"/>
<path d="M88.6361 105.608C88.6425 105.176 88.3539 104.822 87.9915 104.816C87.6292 104.811 87.3303 105.157 87.324 105.589C87.3176 106.021 87.6062 106.375 87.9686 106.381C88.3309 106.386 88.6298 106.04 88.6361 105.608Z" fill="#F29111"/>
<path d="M88.6049 107.571C88.6112 107.139 88.3226 106.784 87.9603 106.779C87.5979 106.774 87.2991 107.12 87.2927 107.552C87.2864 107.984 87.575 108.338 87.9373 108.344C88.2997 108.349 88.5986 108.003 88.6049 107.571Z" fill="#F29111"/>
<path d="M91.9174 105.657C91.9237 105.225 91.6351 104.87 91.2728 104.865C90.9105 104.86 90.6116 105.206 90.6052 105.638C90.5989 106.07 90.8875 106.424 91.2498 106.43C91.6122 106.435 91.9111 106.089 91.9174 105.657Z" fill="#F29111"/>
<path d="M91.894 107.62C91.9003 107.188 91.6117 106.833 91.2494 106.828C90.887 106.823 90.5881 107.169 90.5818 107.601C90.5755 108.033 90.864 108.387 91.2264 108.392C91.5887 108.398 91.8876 108.052 91.894 107.62Z" fill="#F29111"/>
<path d="M96.8471 105.729C96.8534 105.297 96.5648 104.943 96.2025 104.937C95.8401 104.932 95.5413 105.278 95.5349 105.71C95.5286 106.142 95.8172 106.496 96.1795 106.502C96.5419 106.507 96.8407 106.161 96.8471 105.729Z" fill="#F29111"/>
<path d="M96.808 107.692C96.8144 107.26 96.5258 106.906 96.1634 106.9C95.8011 106.895 95.5022 107.241 95.4959 107.673C95.4895 108.105 95.7781 108.459 96.1405 108.465C96.5028 108.47 96.8017 108.124 96.808 107.692Z" fill="#F29111"/>
<path d="M93.558 105.68C93.5644 105.248 93.2758 104.894 92.9134 104.888C92.5511 104.883 92.2522 105.229 92.2459 105.661C92.2395 106.093 92.5281 106.448 92.8905 106.453C93.2528 106.458 93.5517 106.112 93.558 105.68Z" fill="#F29111"/>
<path d="M93.5346 107.643C93.5409 107.211 93.2523 106.857 92.89 106.851C92.5276 106.846 92.2288 107.192 92.2224 107.624C92.2161 108.056 92.5047 108.411 92.867 108.416C93.2294 108.421 93.5283 108.075 93.5346 107.643Z" fill="#F29111"/>
<path d="M98.4721 105.753C98.4784 105.321 98.1898 104.966 97.8275 104.961C97.4651 104.955 97.1663 105.301 97.1599 105.733C97.1536 106.165 97.4422 106.52 97.8045 106.525C98.1669 106.531 98.4658 106.185 98.4721 105.753Z" fill="#F29111"/>
<path d="M98.4487 107.716C98.455 107.283 98.1664 106.929 97.804 106.924C97.4417 106.918 97.1428 107.264 97.1365 107.696C97.1301 108.128 97.4187 108.483 97.7811 108.488C98.1434 108.493 98.4423 108.148 98.4487 107.716Z" fill="#F29111"/>
<path d="M90.2768 105.632C90.2831 105.2 89.9945 104.845 89.6322 104.84C89.2698 104.834 88.9709 105.18 88.9646 105.612C88.9583 106.044 89.2469 106.399 89.6092 106.404C89.9716 106.409 90.2704 106.064 90.2768 105.632Z" fill="#F29111"/>
<path d="M90.2533 107.594C90.2597 107.162 89.9711 106.808 89.6087 106.803C89.2464 106.797 88.9475 107.143 88.9412 107.575C88.9348 108.007 89.2234 108.362 89.5858 108.367C89.9481 108.372 90.247 108.026 90.2533 107.594Z" fill="#F29111"/>
<path d="M95.1987 105.704C95.205 105.272 94.9164 104.917 94.5541 104.912C94.1917 104.907 93.8928 105.253 93.8865 105.685C93.8801 106.117 94.1687 106.471 94.5311 106.476C94.8934 106.482 95.1923 106.136 95.1987 105.704Z" fill="#F29111"/>
<path d="M95.1596 107.667C95.1659 107.235 94.8773 106.88 94.515 106.875C94.1526 106.869 93.8538 107.215 93.8474 107.647C93.8411 108.079 94.1297 108.434 94.492 108.439C94.8544 108.445 95.1533 108.099 95.1596 107.667Z" fill="#F29111"/>
<path d="M100.113 105.776C100.119 105.344 99.8305 104.989 99.4681 104.984C99.1058 104.979 98.8069 105.325 98.8005 105.757C98.7942 106.189 99.0828 106.543 99.4452 106.549C99.8075 106.554 100.106 106.208 100.113 105.776Z" fill="#F29111"/>
<path d="M100.089 107.741C100.096 107.309 99.807 106.954 99.4447 106.949C99.0823 106.944 98.7834 107.29 98.7771 107.722C98.7708 108.154 99.0594 108.508 99.4217 108.514C99.7841 108.519 100.083 108.173 100.089 107.741Z" fill="#F29111"/>
</g>
<path d="M107.039 135.516L109.423 129.775C109.714 129.081 110.294 128.551 111.013 128.337L116.553 126.646C117.663 126.305 118.849 126.772 119.455 127.756L131.695 148.097C132.363 149.207 132.073 150.658 131.026 151.428L130.193 152.034C128.843 153.031 127.001 153.018 125.663 152.009L107.833 138.494C106.925 137.8 106.597 136.576 107.039 135.516Z" fill="white"/>
<path d="M125.677 152.008L114.484 143.503L126.926 140.146L131.708 148.096C132.377 149.206 132.087 150.658 131.04 151.427L130.219 152.033C128.857 153.03 127.014 153.017 125.677 152.008Z" fill="#F29111"/>
<path d="M60.8767 121.446L65.0534 128.399C65.5581 129.245 65.76 130.292 65.5834 131.251L64.2584 138.456C63.9808 139.995 62.82 140.954 61.495 140.752L40.7632 137.636C39.4004 137.434 38.2521 136.046 38.0881 134.38L37.9241 132.727C37.6969 130.544 38.6433 128.563 40.2711 127.831L57.5329 120.084C58.6938 119.554 60.0818 120.122 60.8767 121.446Z" fill="white"/>
<path d="M47.8567 122.027C42.3046 122.027 37.8125 126.532 37.8125 132.072C37.8125 137.624 42.3172 142.116 47.8567 142.116C53.4087 142.116 57.9008 137.611 57.9008 132.072C57.9008 126.519 53.4087 122.027 47.8567 122.027ZM47.8567 139.403C43.8062 139.403 40.5128 136.122 40.5128 132.059C40.5128 128.008 43.7936 124.715 47.8567 124.715C51.9071 124.715 55.2005 127.996 55.2005 132.059C55.2005 136.122 51.9071 139.403 47.8567 139.403Z" fill="#2C4D6D"/>
<path d="M47.8563 123.402C43.0613 123.402 39.1875 127.289 39.1875 132.071C39.1875 136.853 43.0739 140.74 47.8563 140.74C52.6512 140.74 56.525 136.853 56.525 132.071C56.525 127.289 52.6512 123.402 47.8563 123.402ZM47.8563 139.415C43.8058 139.415 40.5124 136.134 40.5124 132.071C40.5124 128.021 43.7932 124.727 47.8563 124.727C51.9194 124.727 55.2001 128.008 55.2001 132.071C55.2001 136.122 51.9067 139.415 47.8563 139.415Z" fill="#253B4F"/>
<path d="M61.0596 116.979C53.4633 116.979 47.3561 118.291 47.4066 119.906L48.2772 146.076C48.3277 147.477 54.0438 148.613 61.0596 148.613C68.0753 148.613 73.7914 147.49 73.8419 146.076L74.7126 119.906C74.7504 118.291 68.6432 116.979 61.0596 116.979Z" fill="#2C4D6D"/>
<path d="M72.2266 118.217C72.3401 118.255 72.4537 118.28 72.5546 118.318C72.4411 118.28 72.3401 118.242 72.2266 118.217Z" fill="#253B4F"/>
<path d="M71 117.889C71.0379 117.914 71.0757 117.927 71.1262 117.914C71.0883 117.914 71.0505 117.901 71 117.889Z" fill="#253B4F"/>
<path d="M71.4297 117.988C71.5559 118.026 71.6947 118.051 71.8209 118.089C71.6947 118.051 71.5685 118.026 71.4297 117.988Z" fill="#253B4F"/>
<path d="M71.125 117.926C71.2259 117.951 71.3143 117.976 71.4152 118.002C71.3269 117.964 71.2259 117.951 71.125 117.926Z" fill="#253B4F"/>
<path d="M73.1791 118.544C73.0907 118.506 73.0024 118.481 72.9141 118.443C73.0024 118.469 73.0907 118.506 73.1791 118.544Z" fill="#253B4F"/>
<path d="M72.8684 118.431C72.7674 118.393 72.6791 118.368 72.5781 118.33C72.6791 118.355 72.78 118.393 72.8684 118.431Z" fill="#253B4F"/>
<path d="M73.4615 118.669C73.3858 118.631 73.3101 118.606 73.2344 118.568C73.3101 118.594 73.3858 118.631 73.4615 118.669Z" fill="#253B4F"/>
<path d="M74.3419 119.213C74.3041 119.175 74.2536 119.137 74.2031 119.1C74.241 119.125 74.2788 119.163 74.3041 119.188C74.3167 119.201 74.3293 119.213 74.3419 119.213Z" fill="#253B4F"/>
<path d="M74.1767 119.087C74.1262 119.049 74.0631 118.999 74 118.961C74.0505 118.986 74.0883 119.024 74.1388 119.049C74.1514 119.062 74.164 119.075 74.1767 119.087Z" fill="#253B4F"/>
<path d="M74.6689 119.693C74.6563 119.655 74.6563 119.629 74.6437 119.604C74.6311 119.579 74.6184 119.554 74.6058 119.541C74.5932 119.516 74.5806 119.491 74.568 119.465C74.5554 119.44 74.5427 119.428 74.5175 119.402L70.9844 147.655C71.4134 147.554 71.7919 147.44 72.1326 147.314C72.1453 147.314 72.1579 147.301 72.1705 147.301H72.1831C72.2462 147.276 72.3093 147.251 72.385 147.226C72.4102 147.213 72.4355 147.213 72.4481 147.2C72.5112 147.175 72.5617 147.15 72.6248 147.137C72.6374 147.125 72.6626 147.125 72.6752 147.112C72.6878 147.112 72.7005 147.1 72.7131 147.1C72.7636 147.074 72.814 147.049 72.8645 147.036C72.8897 147.024 72.915 147.011 72.9402 146.999C72.9907 146.973 73.0285 146.948 73.0664 146.935C73.0916 146.923 73.1042 146.91 73.1295 146.898C73.1926 146.86 73.2557 146.822 73.3188 146.784C73.344 146.771 73.3819 146.746 73.4071 146.721C73.4323 146.708 73.4576 146.683 73.4702 146.67C73.4954 146.645 73.5207 146.633 73.5459 146.607C73.5585 146.595 73.5837 146.57 73.5964 146.557C73.5964 146.557 73.5964 146.557 73.609 146.544C73.6216 146.532 73.6468 146.506 73.6595 146.481C73.6721 146.469 73.6847 146.443 73.6973 146.431C73.6973 146.418 73.7099 146.418 73.7099 146.418C73.7225 146.405 73.7352 146.38 73.7478 146.368C73.7604 146.355 73.773 146.33 73.773 146.317C73.7856 146.292 73.7983 146.267 73.8109 146.241C73.8109 146.229 73.8235 146.216 73.8235 146.204C73.8361 146.166 73.8361 146.115 73.8361 146.077L74.7068 119.907C74.7068 119.857 74.7068 119.806 74.6942 119.756C74.6942 119.743 74.6815 119.718 74.6815 119.705L74.6689 119.693Z" fill="#253B4F"/>
<path d="M73.774 118.821C73.7488 118.808 73.7362 118.796 73.7109 118.783C73.7362 118.796 73.7488 118.834 73.774 118.821Z" fill="#253B4F"/>
<path d="M74.4531 119.326C74.4657 119.351 74.491 119.364 74.5036 119.389C74.5036 119.402 74.5162 119.402 74.5162 119.402C74.5036 119.377 74.4784 119.364 74.4531 119.326Z" fill="#253B4F"/>
<path d="M74.6969 119.894C74.6465 121.497 68.5392 122.784 61.0439 122.784C53.5613 122.784 47.454 121.497 47.3909 119.894C47.3405 118.279 53.4477 116.967 61.0439 116.967C68.6402 116.979 74.7474 118.292 74.6969 119.894Z" fill="#35536F"/>
<path d="M73.1282 119.893C73.0903 121.143 67.6897 122.152 61.0525 122.152C54.4152 122.152 49.002 121.143 48.9768 119.893C48.9389 118.631 54.3522 117.609 61.0525 117.609C67.7528 117.609 73.166 118.644 73.1282 119.893Z" fill="#253B4F"/>
<path d="M70.3512 121.332C68.143 120.827 64.7991 120.512 61.0389 120.512C57.2912 120.512 53.9474 120.827 51.7266 121.332C53.9474 121.837 57.2912 122.152 61.0389 122.152C64.7865 122.152 68.1303 121.837 70.3512 121.332Z" fill="#BB9777"/>
<path d="M52.6122 132.752C51.792 132.752 51.3125 132.146 51.3125 130.859C51.3125 129.534 51.9434 128.853 52.7636 128.853C52.9529 128.853 53.1422 128.903 53.3188 128.991C53.4955 129.08 53.6469 129.206 53.7605 129.37L53.5081 129.622C53.3062 129.446 53.0538 129.345 52.8015 129.332C52.2715 129.332 51.9308 129.812 51.9308 130.745C51.9308 131.831 52.2463 132.26 52.7258 132.26C52.9024 132.26 53.0791 132.209 53.2179 132.095V131.023H52.7384V130.569H53.8109V132.297C53.4702 132.6 53.0538 132.752 52.6122 132.752ZM55.8172 130.417C55.7415 130.392 55.6658 130.379 55.5901 130.379C55.4261 130.379 55.2873 130.506 55.0097 130.846V132.689H54.4545V129.887H54.9213L54.9718 130.367C55.262 129.976 55.4513 129.837 55.6532 129.837C55.7415 129.837 55.8172 129.862 55.8929 129.9L55.8172 130.417ZM57.7983 132.689L57.7478 132.386C57.5207 132.613 57.2179 132.739 56.9024 132.739C56.3598 132.739 56.0822 132.461 56.0822 131.969C56.0822 131.401 56.5112 131.01 57.4702 131.01H57.6721V130.771C57.6721 130.43 57.4955 130.266 57.1043 130.266C56.8267 130.278 56.5617 130.329 56.3094 130.43L56.221 130.077C56.5491 129.925 56.8898 129.849 57.2431 129.849C57.9245 129.849 58.2147 130.19 58.2147 130.695V132.701L57.7983 132.689ZM57.6847 131.389H57.445C56.8267 131.389 56.65 131.603 56.65 131.894C56.65 131.957 56.65 132.007 56.6753 132.07C56.7005 132.133 56.7258 132.171 56.7636 132.222C56.8015 132.26 56.8519 132.297 56.9024 132.31C56.9529 132.323 57.016 132.335 57.0664 132.335C57.2936 132.323 57.5081 132.222 57.6721 132.058V131.389H57.6847ZM60.4608 132.689L60.4229 132.386C60.1958 132.613 59.8929 132.739 59.5775 132.739C59.0349 132.739 58.7573 132.461 58.7573 131.969C58.7573 131.401 59.1863 131.01 60.1453 131.01H60.3472V130.771C60.3472 130.43 60.1705 130.266 59.7794 130.266C59.5018 130.278 59.2368 130.329 58.9844 130.43L58.8961 130.077C59.2242 129.925 59.5649 129.849 59.9182 129.849C60.5996 129.849 60.8898 130.19 60.8898 130.695V132.701L60.4608 132.689ZM60.3346 131.389H60.0948C59.4639 131.389 59.2999 131.603 59.2999 131.894C59.2999 131.957 59.2999 132.007 59.3251 132.07C59.3504 132.121 59.3756 132.171 59.4134 132.222C59.4513 132.26 59.5018 132.297 59.5523 132.31C59.6027 132.335 59.6658 132.335 59.7163 132.335C59.9434 132.323 60.1579 132.222 60.322 132.058V131.389H60.3346ZM62.0507 132.726C61.71 132.726 61.5586 132.625 61.5586 132.171V128.701H62.1264V131.944C62.1264 132.272 62.1642 132.323 62.3283 132.323C62.3788 132.323 62.4418 132.323 62.4797 132.323L62.5049 132.676C62.3535 132.714 62.2021 132.739 62.0507 132.726Z" fill="white"/>
<path d="M64.4619 132.69H63.7553C63.3262 131.453 62.9729 130.191 62.6953 128.904H63.3389C63.5281 129.914 63.8436 130.986 64.159 132.059C64.4619 131.024 64.7142 129.964 64.8909 128.904H65.4713C65.2442 130.191 64.9035 131.453 64.4619 132.69ZM68.9792 132.69C68.954 131.592 68.8783 130.444 68.8026 129.674L67.8688 132.69H67.3767L66.4429 129.674C66.3672 130.507 66.3294 131.592 66.3042 132.69H65.7363C65.7742 131.466 65.8499 130.141 66.0013 128.904H66.7836L67.6669 131.693L68.5502 128.904H69.2821C69.4209 130.128 69.5344 131.466 69.5597 132.69H68.9792ZM70.0139 132.311H69.8751V132.236H70.2411V132.311H70.1023V132.702H70.0013V132.311H70.0139ZM70.342 132.223H70.4934L70.5944 132.564L70.6953 132.223H70.8467V132.69H70.7458V132.299L70.6196 132.69H70.5439L70.4303 132.299V132.69H70.342V132.223Z" fill="#F29111"/>
<path d="M35.438 127.265C35.2109 126.584 35.8292 125.902 36.662 125.902H41.9743C43.5516 125.902 44.8261 126.988 44.8261 128.338V136.981C44.8261 138.319 43.5516 139.417 41.9743 139.417H39.3497L35.438 127.265Z" fill="#F29111"/>
<defs>
<linearGradient id="paint0_linear_1993_2829" x1="69.6557" y1="43.2413" x2="69.1141" y2="80.1461" gradientUnits="userSpaceOnUse">
<stop stop-color="white"/>
<stop offset="1" stop-color="#F4F4F4"/>
</linearGradient>
</defs>
</svg>
