<svg width="500" height="500" viewBox="0 0 500 500" fill="none" xmlns="http://www.w3.org/2000/svg">
<path d="M224.5 452C300.439 452 362 440.359 362 426C362 411.641 300.439 400 224.5 400C148.561 400 87 411.641 87 426C87 440.359 148.561 452 224.5 452Z" fill="#A4AFBF" fill-opacity="0.7"/>
<g filter="url(#filter0_d_3036_5817)">
<path d="M127.848 95.0204C123.652 120.289 124.957 159.482 126.332 178L169 146.9C165.932 113.503 155.953 90.7088 149.041 79.7532C147.137 76.714 143.117 76.1838 140.155 78.1983L138.462 79.3645C132.997 83.0046 128.941 88.4824 127.848 95.0204Z" fill="url(#paint0_linear_3036_5817)"/>
</g>
<path d="M163 108.935C142.641 88.2337 129.79 107.865 126 120C127.624 95.9076 126 90.5537 137.551 80.7383C147.622 72.1721 150.907 80.7383 152.171 82.7014C153.326 84.5217 160.112 98.763 163 108.935Z" fill="#FF9100"/>
<g filter="url(#filter1_d_3036_5817)">
<g filter="url(#filter2_d_3036_5817)">
<path fill-rule="evenodd" clip-rule="evenodd" d="M325.914 183.378C355.395 155.432 400.583 104.082 412.073 74.4468C413.127 71.7015 412.038 68.6747 409.684 66.9501L408.981 66.4573C402.305 61.5651 393.344 61.0372 386.176 65.1551C357.468 81.6971 318.57 105.701 277.915 144.662C261.681 137.447 243.304 133.365 223.872 133.365C157.601 133.365 103.875 180.633 103.875 238.952C103.875 297.272 157.601 344.54 223.872 344.54C290.143 344.54 343.87 297.272 343.87 238.952C343.87 218.574 337.299 199.533 325.914 183.378Z" fill="white"/>
</g>
</g>
<g filter="url(#filter3_d_3036_5817)">
<path d="M254.21 334.434L258.484 317.409C258.983 315.343 260.408 313.633 262.331 312.707L277.077 305.69C280.033 304.301 283.559 305.049 285.625 307.578L328.366 359.225C330.717 362.039 330.503 366.206 327.903 368.806L325.837 370.872C322.489 374.221 317.325 374.969 313.157 372.689L257.736 342.449C254.887 340.881 253.426 337.604 254.21 334.434Z" fill="white"/>
</g>
<path d="M313.402 372.686L278 353.5L311.889 339L328.387 359.233C330.708 362.052 330.497 366.228 327.929 368.833L325.924 370.867C322.583 374.221 317.517 374.97 313.402 372.686Z" fill="#F29111"/>
<g filter="url(#filter4_d_3036_5817)">
<path d="M127.559 306.283L122.341 299.827C121.276 298.508 119.108 298.82 118.52 300.382L102.353 342.52C101.839 343.909 101.875 345.401 102.537 346.755L105.476 352.795C106.174 354.218 108.232 354.426 109.261 353.176L126.824 330.893C127.596 329.921 128 328.775 128 327.56V307.533C128 307.116 127.853 306.665 127.559 306.283Z" fill="white"/>
</g>
<path d="M109 353.5L118 342L107.91 327L102.318 342.582C101.838 343.968 101.906 345.456 102.49 346.772L105.234 352.798C105.92 354.217 108.074 354.747 109 353.5Z" fill="#FF9100"/>
<path d="M412.416 75.0271C406.691 87.496 396.052 107.868 373.468 134C373.468 134 381.809 102.037 374.175 95.5394C366.541 89.0415 333 99.5786 333 99.5786C346.324 90.6221 370.888 72.4279 389.019 64.5602C395.133 61.8908 402.025 62.8742 407.998 65.7895L409.235 66.3866C412.452 67.9672 413.901 71.7606 412.416 75.0271Z" fill="#FF9100"/>
<path d="M272 244.986C272 282.546 240.752 320 193.527 320C146.302 320 108 282.511 108 244.986C108 207.462 142.775 177 190 177C237.225 177 272 207.427 272 244.986Z" fill="#35373A"/>
<path d="M411.928 74.294C400.38 105.861 354.75 157.977 325.898 184L318 173.76L410.314 73.376C411.051 72.5285 412.314 73.2347 411.928 74.294Z" fill="#E9E6E6"/>
<mask id="mask0_3036_5817" style="mask-type:luminance" maskUnits="userSpaceOnUse" x="128" y="221" width="44" height="32">
<path d="M171.93 252.07C171.93 252.07 162.275 240.725 150.137 240.518C138 240.346 127.966 253.518 128 251.414C128.241 234.449 138.276 220.829 150.413 221.002C162.516 221.174 172.171 235.07 171.93 252.07Z" fill="white"/>
</mask>
<g mask="url(#mask0_3036_5817)">
<path d="M134.289 219.481C134.306 218.301 133.518 217.332 132.527 217.317C131.537 217.303 130.721 218.248 130.703 219.429C130.686 220.609 131.475 221.578 132.465 221.593C133.455 221.607 134.272 220.662 134.289 219.481Z" fill="#F29111"/>
<path d="M134.203 224.847C134.22 223.666 133.432 222.697 132.442 222.683C131.451 222.668 130.635 223.613 130.617 224.794C130.6 225.975 131.389 226.943 132.379 226.958C133.369 226.972 134.186 226.027 134.203 224.847Z" fill="#F29111"/>
<path d="M134.141 230.241C134.158 229.061 133.369 228.092 132.379 228.077C131.389 228.063 130.572 229.008 130.555 230.189C130.537 231.369 131.326 232.338 132.316 232.352C133.306 232.367 134.123 231.422 134.141 230.241Z" fill="#F29111"/>
<path d="M134.062 235.606C134.08 234.426 133.291 233.457 132.301 233.442C131.311 233.428 130.494 234.373 130.477 235.554C130.459 236.734 131.248 237.703 132.238 237.718C133.228 237.732 134.045 236.787 134.062 235.606Z" fill="#F29111"/>
<path d="M134 240.974C134.017 239.793 133.229 238.824 132.238 238.81C131.248 238.795 130.432 239.74 130.414 240.921C130.397 242.102 131.186 243.07 132.176 243.085C133.166 243.099 133.983 242.154 134 240.974Z" fill="#F29111"/>
<path d="M138.781 219.546C138.799 218.365 138.01 217.396 137.02 217.382C136.03 217.367 135.213 218.313 135.195 219.493C135.178 220.674 135.967 221.643 136.957 221.657C137.947 221.672 138.764 220.726 138.781 219.546Z" fill="#F29111"/>
<path d="M138.695 224.911C138.713 223.73 137.924 222.762 136.934 222.747C135.944 222.733 135.127 223.678 135.109 224.858C135.092 226.039 135.881 227.008 136.871 227.022C137.861 227.037 138.678 226.092 138.695 224.911Z" fill="#F29111"/>
<path d="M138.625 230.311C138.642 229.131 137.854 228.162 136.863 228.147C135.873 228.133 135.057 229.078 135.039 230.259C135.022 231.439 135.811 232.408 136.801 232.423C137.791 232.437 138.608 231.492 138.625 230.311Z" fill="#F29111"/>
<path d="M138.539 235.675C138.556 234.494 137.768 233.525 136.777 233.511C135.787 233.496 134.971 234.442 134.953 235.622C134.936 236.803 135.725 237.772 136.715 237.786C137.705 237.801 138.522 236.855 138.539 235.675Z" fill="#F29111"/>
<path d="M138.437 241.036C138.455 239.855 137.666 238.887 136.676 238.872C135.686 238.858 134.869 239.803 134.852 240.983C134.834 242.164 135.623 243.133 136.613 243.147C137.603 243.162 138.42 242.217 138.437 241.036Z" fill="#F29111"/>
<path d="M129.789 219.411C129.806 218.23 129.018 217.262 128.027 217.247C127.037 217.233 126.221 218.178 126.203 219.358C126.186 220.539 126.975 221.508 127.965 221.522C128.955 221.537 129.772 220.592 129.789 219.411Z" fill="#F29111"/>
<path d="M129.734 224.776C129.752 223.596 128.963 222.627 127.973 222.612C126.983 222.598 126.166 223.543 126.149 224.724C126.131 225.904 126.92 226.873 127.91 226.888C128.9 226.902 129.717 225.957 129.734 224.776Z" fill="#F29111"/>
<path d="M129.656 230.177C129.674 228.996 128.885 228.027 127.895 228.013C126.905 227.998 126.088 228.943 126.07 230.124C126.053 231.305 126.842 232.273 127.832 232.288C128.822 232.303 129.639 231.357 129.656 230.177Z" fill="#F29111"/>
<path d="M129.578 235.54C129.595 234.359 128.807 233.391 127.817 233.376C126.826 233.361 126.01 234.307 125.992 235.487C125.975 236.668 126.764 237.637 127.754 237.651C128.744 237.666 129.561 236.721 129.578 235.54Z" fill="#F29111"/>
<path d="M129.508 240.905C129.525 239.725 128.736 238.756 127.746 238.741C126.756 238.727 125.939 239.672 125.922 240.853C125.905 242.033 126.693 243.002 127.683 243.017C128.674 243.031 129.49 242.086 129.508 240.905Z" fill="#F29111"/>
<path d="M143.25 219.614C143.267 218.434 142.479 217.465 141.488 217.45C140.498 217.436 139.682 218.381 139.664 219.562C139.647 220.742 140.436 221.711 141.426 221.726C142.416 221.74 143.233 220.795 143.25 219.614Z" fill="#F29111"/>
<path d="M143.172 224.979C143.189 223.799 142.4 222.83 141.41 222.815C140.42 222.801 139.603 223.746 139.586 224.927C139.569 226.107 140.357 227.076 141.348 227.091C142.338 227.105 143.154 226.16 143.172 224.979Z" fill="#F29111"/>
<path d="M143.117 230.343C143.134 229.162 142.346 228.193 141.356 228.179C140.365 228.164 139.549 229.109 139.531 230.29C139.514 231.471 140.303 232.44 141.293 232.454C142.283 232.469 143.1 231.523 143.117 230.343Z" fill="#F29111"/>
<path d="M143 235.739C143.017 234.559 142.229 233.59 141.238 233.575C140.248 233.561 139.432 234.506 139.414 235.687C139.397 236.867 140.185 237.836 141.176 237.851C142.166 237.865 142.983 236.92 143 235.739Z" fill="#F29111"/>
<path d="M142.914 241.108C142.931 239.928 142.143 238.959 141.152 238.944C140.162 238.93 139.346 239.875 139.328 241.056C139.311 242.236 140.1 243.205 141.09 243.22C142.08 243.234 142.897 242.289 142.914 241.108Z" fill="#F29111"/>
<path d="M152.226 219.743C152.244 218.563 151.455 217.594 150.465 217.579C149.475 217.565 148.658 218.51 148.641 219.69C148.623 220.871 149.412 221.84 150.402 221.854C151.392 221.869 152.209 220.924 152.226 219.743Z" fill="#F29111"/>
<path d="M152.164 225.11C152.181 223.93 151.393 222.961 150.402 222.946C149.412 222.932 148.596 223.877 148.578 225.058C148.561 226.238 149.35 227.207 150.34 227.222C151.33 227.236 152.147 226.291 152.164 225.11Z" fill="#F29111"/>
<path d="M152.055 230.477C152.072 229.297 151.283 228.328 150.293 228.314C149.303 228.299 148.486 229.244 148.469 230.425C148.452 231.605 149.24 232.574 150.23 232.589C151.221 232.603 152.037 231.658 152.055 230.477Z" fill="#F29111"/>
<path d="M151.969 235.872C151.986 234.691 151.197 233.723 150.207 233.708C149.217 233.694 148.4 234.639 148.383 235.819C148.366 237 149.154 237.969 150.144 237.983C151.135 237.998 151.951 237.053 151.969 235.872Z" fill="#F29111"/>
<path d="M151.906 241.235C151.923 240.055 151.135 239.086 150.145 239.071C149.154 239.057 148.338 240.002 148.32 241.183C148.303 242.363 149.092 243.332 150.082 243.347C151.072 243.361 151.889 242.416 151.906 241.235Z" fill="#F29111"/>
<path d="M165.656 219.944C165.674 218.764 164.885 217.795 163.895 217.78C162.905 217.766 162.088 218.711 162.07 219.892C162.053 221.072 162.842 222.041 163.832 222.056C164.822 222.07 165.639 221.125 165.656 219.944Z" fill="#F29111"/>
<path d="M165.601 225.31C165.619 224.129 164.83 223.16 163.84 223.146C162.85 223.131 162.033 224.076 162.016 225.257C161.998 226.437 162.787 227.406 163.777 227.421C164.767 227.435 165.584 226.49 165.601 225.31Z" fill="#F29111"/>
<path d="M165.508 230.675C165.525 229.494 164.736 228.525 163.746 228.511C162.756 228.496 161.939 229.442 161.922 230.622C161.905 231.803 162.693 232.772 163.683 232.786C164.674 232.801 165.49 231.855 165.508 230.675Z" fill="#F29111"/>
<path d="M165.445 236.075C165.463 234.895 164.674 233.926 163.684 233.911C162.694 233.897 161.877 234.842 161.859 236.023C161.842 237.203 162.631 238.172 163.621 238.186C164.611 238.201 165.428 237.256 165.445 236.075Z" fill="#F29111"/>
<path d="M165.351 241.438C165.369 240.258 164.58 239.289 163.59 239.274C162.6 239.26 161.783 240.205 161.766 241.386C161.748 242.566 162.537 243.535 163.527 243.55C164.517 243.564 165.334 242.619 165.351 241.438Z" fill="#F29111"/>
<path d="M156.719 219.811C156.736 218.631 155.947 217.662 154.957 217.647C153.967 217.633 153.15 218.578 153.133 219.759C153.116 220.939 153.904 221.908 154.894 221.923C155.885 221.937 156.701 220.992 156.719 219.811Z" fill="#F29111"/>
<path d="M156.609 225.175C156.627 223.994 155.838 223.025 154.848 223.011C153.858 222.996 153.041 223.942 153.024 225.122C153.006 226.303 153.795 227.272 154.785 227.286C155.775 227.301 156.592 226.355 156.609 225.175Z" fill="#F29111"/>
<path d="M156.547 230.54C156.564 229.359 155.775 228.391 154.785 228.376C153.795 228.361 152.978 229.307 152.961 230.487C152.944 231.668 153.732 232.637 154.723 232.651C155.713 232.666 156.529 231.721 156.547 230.54Z" fill="#F29111"/>
<path d="M156.461 235.942C156.478 234.762 155.69 233.793 154.699 233.778C153.709 233.764 152.892 234.709 152.875 235.89C152.858 237.07 153.646 238.039 154.637 238.054C155.627 238.068 156.444 237.123 156.461 235.942Z" fill="#F29111"/>
<path d="M156.391 241.308C156.408 240.127 155.619 239.158 154.629 239.144C153.639 239.129 152.822 240.074 152.805 241.255C152.787 242.436 153.576 243.404 154.566 243.419C155.556 243.433 156.373 242.488 156.391 241.308Z" fill="#F29111"/>
<path d="M170.141 220.009C170.158 218.828 169.369 217.859 168.379 217.845C167.389 217.83 166.572 218.776 166.555 219.956C166.537 221.137 167.326 222.106 168.316 222.12C169.306 222.135 170.123 221.189 170.141 220.009Z" fill="#F29111"/>
<path d="M170.07 225.374C170.088 224.193 169.299 223.225 168.309 223.21C167.319 223.195 166.502 224.141 166.484 225.321C166.467 226.502 167.256 227.471 168.246 227.485C169.236 227.5 170.053 226.555 170.07 225.374Z" fill="#F29111"/>
<path d="M169.984 230.739C170.002 229.559 169.213 228.59 168.223 228.575C167.233 228.561 166.416 229.506 166.399 230.687C166.381 231.867 167.17 232.836 168.16 232.851C169.15 232.865 169.967 231.92 169.984 230.739Z" fill="#F29111"/>
<path d="M169.93 236.14C169.947 234.959 169.158 233.99 168.168 233.976C167.178 233.961 166.361 234.906 166.344 236.087C166.327 237.268 167.115 238.236 168.105 238.251C169.096 238.265 169.912 237.32 169.93 236.14Z" fill="#F29111"/>
<path d="M169.844 241.503C169.861 240.322 169.072 239.353 168.082 239.339C167.092 239.324 166.275 240.27 166.258 241.45C166.241 242.631 167.029 243.6 168.019 243.614C169.01 243.629 169.826 242.683 169.844 241.503Z" fill="#F29111"/>
<path d="M147.742 219.679C147.759 218.498 146.971 217.529 145.981 217.515C144.99 217.5 144.174 218.445 144.156 219.626C144.139 220.807 144.928 221.775 145.918 221.79C146.908 221.805 147.725 220.859 147.742 219.679Z" fill="#F29111"/>
<path d="M147.68 225.044C147.697 223.863 146.908 222.894 145.918 222.88C144.928 222.865 144.111 223.811 144.094 224.991C144.077 226.172 144.865 227.141 145.855 227.155C146.846 227.17 147.662 226.224 147.68 225.044Z" fill="#F29111"/>
<path d="M147.594 230.405C147.611 229.225 146.822 228.256 145.832 228.241C144.842 228.227 144.025 229.172 144.008 230.353C143.991 231.533 144.779 232.502 145.769 232.517C146.76 232.531 147.576 231.586 147.594 230.405Z" fill="#F29111"/>
<path d="M147.492 235.808C147.509 234.627 146.721 233.658 145.731 233.644C144.74 233.629 143.924 234.574 143.906 235.755C143.889 236.936 144.678 237.904 145.668 237.919C146.658 237.933 147.475 236.988 147.492 235.808Z" fill="#F29111"/>
<path d="M147.422 241.173C147.439 239.992 146.65 239.023 145.66 239.009C144.67 238.994 143.853 239.94 143.836 241.12C143.819 242.301 144.607 243.27 145.598 243.284C146.588 243.299 147.404 242.353 147.422 241.173Z" fill="#F29111"/>
<path d="M161.219 219.876C161.236 218.695 160.447 217.726 159.457 217.712C158.467 217.697 157.65 218.643 157.633 219.823C157.616 221.004 158.404 221.973 159.394 221.987C160.385 222.002 161.201 221.056 161.219 219.876Z" fill="#F29111"/>
<path d="M161.094 225.239C161.111 224.059 160.322 223.09 159.332 223.075C158.342 223.061 157.525 224.006 157.508 225.187C157.491 226.367 158.279 227.336 159.269 227.351C160.26 227.365 161.076 226.42 161.094 225.239Z" fill="#F29111"/>
<path d="M161.016 230.602C161.033 229.422 160.244 228.453 159.254 228.439C158.264 228.424 157.447 229.369 157.43 230.55C157.412 231.73 158.201 232.699 159.191 232.714C160.181 232.728 160.998 231.783 161.016 230.602Z" fill="#F29111"/>
<path d="M160.937 236.005C160.955 234.824 160.166 233.855 159.176 233.841C158.186 233.826 157.369 234.772 157.352 235.952C157.334 237.133 158.123 238.102 159.113 238.116C160.103 238.131 160.92 237.185 160.937 236.005Z" fill="#F29111"/>
<path d="M160.875 241.372C160.892 240.191 160.104 239.223 159.113 239.208C158.123 239.194 157.307 240.139 157.289 241.319C157.272 242.5 158.061 243.469 159.051 243.483C160.041 243.498 160.858 242.553 160.875 241.372Z" fill="#F29111"/>
<path d="M174.617 220.073C174.634 218.893 173.846 217.924 172.856 217.909C171.865 217.895 171.049 218.84 171.031 220.021C171.014 221.201 171.803 222.17 172.793 222.185C173.783 222.199 174.6 221.254 174.617 220.073Z" fill="#F29111"/>
<path d="M174.562 225.438C174.58 224.258 173.791 223.289 172.801 223.274C171.811 223.26 170.994 224.205 170.977 225.386C170.959 226.566 171.748 227.535 172.738 227.55C173.728 227.564 174.545 226.619 174.562 225.438Z" fill="#F29111"/>
<path d="M174.476 230.808C174.494 229.627 173.705 228.658 172.715 228.644C171.725 228.629 170.908 229.574 170.891 230.755C170.873 231.936 171.662 232.904 172.652 232.919C173.642 232.933 174.459 231.988 174.476 230.808Z" fill="#F29111"/>
<path d="M174.406 236.204C174.424 235.023 173.635 234.055 172.645 234.04C171.655 234.026 170.838 234.971 170.82 236.151C170.803 237.332 171.592 238.301 172.582 238.315C173.572 238.33 174.389 237.385 174.406 236.204Z" fill="#F29111"/>
<path d="M174.328 241.565C174.345 240.385 173.557 239.416 172.567 239.401C171.576 239.387 170.76 240.332 170.742 241.513C170.725 242.693 171.514 243.662 172.504 243.677C173.494 243.691 174.311 242.746 174.328 241.565Z" fill="#F29111"/>
<path d="M133.883 246.339C133.9 245.158 133.111 244.189 132.121 244.175C131.131 244.16 130.314 245.106 130.297 246.286C130.28 247.467 131.068 248.436 132.058 248.45C133.049 248.465 133.865 247.519 133.883 246.339Z" fill="#F29111"/>
<path d="M133.805 251.733C133.822 250.553 133.033 249.584 132.043 249.569C131.053 249.555 130.236 250.5 130.219 251.681C130.202 252.861 130.99 253.83 131.98 253.845C132.971 253.859 133.787 252.914 133.805 251.733Z" fill="#F29111"/>
<path d="M138.375 246.401C138.392 245.221 137.604 244.252 136.613 244.237C135.623 244.223 134.807 245.168 134.789 246.349C134.772 247.529 135.56 248.498 136.551 248.513C137.541 248.527 138.358 247.582 138.375 246.401Z" fill="#F29111"/>
<path d="M138.289 251.804C138.306 250.623 137.518 249.654 136.527 249.64C135.537 249.625 134.721 250.57 134.703 251.751C134.686 252.932 135.475 253.9 136.465 253.915C137.455 253.93 138.272 252.984 138.289 251.804Z" fill="#F29111"/>
<path d="M129.406 246.269C129.424 245.088 128.635 244.119 127.645 244.105C126.654 244.09 125.838 245.035 125.82 246.216C125.803 247.396 126.592 248.365 127.582 248.38C128.572 248.394 129.389 247.449 129.406 246.269Z" fill="#F29111"/>
<path d="M129.32 251.669C129.338 250.488 128.549 249.519 127.559 249.505C126.569 249.49 125.752 250.436 125.734 251.616C125.717 252.797 126.506 253.766 127.496 253.78C128.486 253.795 129.303 252.849 129.32 251.669Z" fill="#F29111"/>
<path d="M142.859 246.472C142.877 245.291 142.088 244.322 141.098 244.308C140.108 244.293 139.291 245.238 139.274 246.419C139.256 247.6 140.045 248.568 141.035 248.583C142.025 248.597 142.842 247.652 142.859 246.472Z" fill="#F29111"/>
<path d="M142.766 251.866C142.783 250.686 141.994 249.717 141.004 249.702C140.014 249.688 139.197 250.633 139.18 251.814C139.162 252.994 139.951 253.963 140.941 253.977C141.932 253.992 142.748 253.047 142.766 251.866Z" fill="#F29111"/>
<path d="M151.82 246.604C151.838 245.424 151.049 244.455 150.059 244.44C149.069 244.426 148.252 245.371 148.234 246.552C148.217 247.732 149.006 248.701 149.996 248.716C150.986 248.73 151.803 247.785 151.82 246.604Z" fill="#F29111"/>
<path d="M151.758 252.003C151.775 250.822 150.986 249.853 149.996 249.839C149.006 249.824 148.189 250.77 148.172 251.95C148.155 253.131 148.943 254.1 149.934 254.114C150.924 254.129 151.74 253.183 151.758 252.003Z" fill="#F29111"/>
<path d="M165.289 246.802C165.306 245.621 164.518 244.652 163.528 244.638C162.537 244.623 161.721 245.568 161.703 246.749C161.686 247.93 162.475 248.898 163.465 248.913C164.455 248.928 165.272 247.982 165.289 246.802Z" fill="#F29111"/>
<path d="M165.203 252.198C165.22 251.018 164.432 250.049 163.442 250.034C162.451 250.02 161.635 250.965 161.617 252.146C161.6 253.326 162.389 254.295 163.379 254.31C164.369 254.324 165.186 253.379 165.203 252.198Z" fill="#F29111"/>
<path d="M156.305 246.669C156.322 245.488 155.533 244.519 154.543 244.505C153.553 244.49 152.736 245.436 152.719 246.616C152.702 247.797 153.49 248.766 154.48 248.78C155.471 248.795 156.287 247.849 156.305 246.669Z" fill="#F29111"/>
<path d="M156.234 252.065C156.252 250.885 155.463 249.916 154.473 249.901C153.483 249.887 152.666 250.832 152.649 252.013C152.631 253.193 153.42 254.162 154.41 254.177C155.4 254.191 156.217 253.246 156.234 252.065Z" fill="#F29111"/>
<path d="M169.781 246.866C169.798 245.686 169.01 244.717 168.02 244.702C167.03 244.688 166.213 245.633 166.195 246.814C166.178 247.994 166.967 248.963 167.957 248.977C168.947 248.992 169.764 248.047 169.781 246.866Z" fill="#F29111"/>
<path d="M169.695 252.268C169.713 251.088 168.924 250.119 167.934 250.105C166.944 250.09 166.127 251.035 166.109 252.216C166.092 253.396 166.881 254.365 167.871 254.38C168.861 254.394 169.678 253.449 169.695 252.268Z" fill="#F29111"/>
<path d="M147.344 246.536C147.361 245.355 146.572 244.387 145.582 244.372C144.592 244.358 143.775 245.303 143.758 246.483C143.741 247.664 144.529 248.633 145.519 248.647C146.51 248.662 147.326 247.717 147.344 246.536Z" fill="#F29111"/>
<path d="M147.266 251.938C147.283 250.758 146.494 249.789 145.504 249.774C144.514 249.76 143.697 250.705 143.68 251.886C143.662 253.066 144.451 254.035 145.441 254.05C146.431 254.064 147.248 253.119 147.266 251.938Z" fill="#F29111"/>
<path d="M160.812 246.733C160.83 245.553 160.041 244.584 159.051 244.569C158.061 244.555 157.244 245.5 157.227 246.681C157.209 247.861 157.998 248.83 158.988 248.845C159.978 248.859 160.795 247.914 160.812 246.733Z" fill="#F29111"/>
<path d="M160.726 252.136C160.744 250.955 159.955 249.986 158.965 249.972C157.975 249.957 157.158 250.902 157.141 252.083C157.123 253.264 157.912 254.232 158.902 254.247C159.892 254.262 160.709 253.316 160.726 252.136Z" fill="#F29111"/>
<path d="M174.258 246.931C174.275 245.75 173.486 244.781 172.496 244.767C171.506 244.752 170.689 245.697 170.672 246.878C170.655 248.059 171.443 249.027 172.433 249.042C173.424 249.056 174.24 248.111 174.258 246.931Z" fill="#F29111"/>
<path d="M174.156 252.331C174.174 251.15 173.385 250.182 172.395 250.167C171.404 250.152 170.588 251.098 170.57 252.278C170.553 253.459 171.342 254.428 172.332 254.442C173.322 254.457 174.139 253.512 174.156 252.331Z" fill="#F29111"/>
</g>
<mask id="mask1_3036_5817" style="mask-type:luminance" maskUnits="userSpaceOnUse" x="192" y="221" width="45" height="33">
<path d="M236.234 253.001C236.234 253.001 226.58 241.657 214.442 241.45C202.304 241.277 192.27 254.449 192.305 252.346C192.546 235.381 202.58 221.761 214.718 221.933C226.855 222.106 236.476 236.002 236.234 253.001Z" fill="white"/>
</mask>
<g mask="url(#mask1_3036_5817)">
<path d="M198.609 220.419C198.627 219.238 197.838 218.269 196.848 218.255C195.858 218.24 195.041 219.186 195.024 220.366C195.006 221.547 195.795 222.516 196.785 222.53C197.775 222.545 198.592 221.599 198.609 220.419Z" fill="#F29111"/>
<path d="M198.523 225.784C198.541 224.604 197.752 223.635 196.762 223.62C195.772 223.606 194.955 224.551 194.938 225.731C194.92 226.912 195.709 227.881 196.699 227.895C197.689 227.91 198.506 226.965 198.523 225.784Z" fill="#F29111"/>
<path d="M198.461 231.145C198.478 229.965 197.69 228.996 196.699 228.981C195.709 228.967 194.892 229.912 194.875 231.093C194.858 232.273 195.646 233.242 196.637 233.257C197.627 233.271 198.444 232.326 198.461 231.145Z" fill="#F29111"/>
<path d="M198.351 236.509C198.369 235.328 197.58 234.359 196.59 234.345C195.6 234.33 194.783 235.276 194.766 236.456C194.748 237.637 195.537 238.606 196.527 238.62C197.517 238.635 198.334 237.689 198.351 236.509Z" fill="#F29111"/>
<path d="M198.273 241.911C198.291 240.73 197.502 239.762 196.512 239.747C195.522 239.733 194.705 240.678 194.688 241.858C194.67 243.039 195.459 244.008 196.449 244.022C197.439 244.037 198.256 243.092 198.273 241.911Z" fill="#F29111"/>
<path d="M203.101 220.483C203.119 219.303 202.33 218.334 201.34 218.319C200.35 218.305 199.533 219.25 199.516 220.431C199.498 221.611 200.287 222.58 201.277 222.595C202.267 222.609 203.084 221.664 203.101 220.483Z" fill="#F29111"/>
<path d="M203.016 225.849C203.033 224.668 202.244 223.699 201.254 223.685C200.264 223.67 199.447 224.615 199.43 225.796C199.412 226.977 200.201 227.945 201.191 227.96C202.181 227.974 202.998 227.029 203.016 225.849Z" fill="#F29111"/>
<path d="M202.906 231.21C202.924 230.029 202.135 229.06 201.145 229.046C200.155 229.031 199.338 229.977 199.32 231.157C199.303 232.338 200.092 233.307 201.082 233.321C202.072 233.336 202.889 232.39 202.906 231.21Z" fill="#F29111"/>
<path d="M202.844 236.573C202.861 235.393 202.072 234.424 201.082 234.409C200.092 234.395 199.275 235.34 199.258 236.521C199.241 237.701 200.029 238.67 201.019 238.685C202.01 238.699 202.826 237.754 202.844 236.573Z" fill="#F29111"/>
<path d="M202.758 241.974C202.775 240.793 201.986 239.824 200.996 239.81C200.006 239.795 199.189 240.74 199.172 241.921C199.155 243.102 199.943 244.07 200.933 244.085C201.924 244.099 202.74 243.154 202.758 241.974Z" fill="#F29111"/>
<path d="M194.109 220.349C194.127 219.168 193.338 218.199 192.348 218.185C191.358 218.17 190.541 219.115 190.524 220.296C190.506 221.477 191.295 222.445 192.285 222.46C193.275 222.474 194.092 221.529 194.109 220.349Z" fill="#F29111"/>
<path d="M194.055 225.714C194.072 224.533 193.283 223.564 192.293 223.55C191.303 223.535 190.486 224.481 190.469 225.661C190.452 226.842 191.24 227.811 192.23 227.825C193.221 227.84 194.037 226.894 194.055 225.714Z" fill="#F29111"/>
<path d="M193.976 231.077C193.994 229.896 193.205 228.928 192.215 228.913C191.225 228.899 190.408 229.844 190.391 231.024C190.373 232.205 191.162 233.174 192.152 233.188C193.142 233.203 193.959 232.258 193.976 231.077Z" fill="#F29111"/>
<path d="M193.898 236.444C193.916 235.264 193.127 234.295 192.137 234.28C191.147 234.266 190.33 235.211 190.313 236.392C190.295 237.572 191.084 238.541 192.074 238.556C193.064 238.57 193.881 237.625 193.898 236.444Z" fill="#F29111"/>
<path d="M193.797 241.843C193.814 240.662 193.025 239.693 192.035 239.679C191.045 239.664 190.228 240.609 190.211 241.79C190.194 242.971 190.982 243.94 191.973 243.954C192.963 243.969 193.779 243.023 193.797 241.843Z" fill="#F29111"/>
<path d="M207.57 220.515C207.588 219.334 206.799 218.365 205.809 218.351C204.819 218.336 204.002 219.281 203.984 220.462C203.967 221.643 204.756 222.611 205.746 222.626C206.736 222.64 207.553 221.695 207.57 220.515Z" fill="#F29111"/>
<path d="M207.492 225.917C207.509 224.736 206.721 223.767 205.731 223.753C204.74 223.738 203.924 224.684 203.906 225.864C203.889 227.045 204.678 228.014 205.668 228.028C206.658 228.043 207.475 227.098 207.492 225.917Z" fill="#F29111"/>
<path d="M207.391 231.28C207.408 230.1 206.619 229.131 205.629 229.116C204.639 229.102 203.822 230.047 203.805 231.228C203.787 232.408 204.576 233.377 205.566 233.392C206.556 233.406 207.373 232.461 207.391 231.28Z" fill="#F29111"/>
<path d="M207.32 236.644C207.338 235.463 206.549 234.494 205.559 234.48C204.569 234.465 203.752 235.41 203.734 236.591C203.717 237.771 204.506 238.74 205.496 238.755C206.486 238.769 207.303 237.824 207.32 236.644Z" fill="#F29111"/>
<path d="M207.234 242.046C207.252 240.865 206.463 239.896 205.473 239.882C204.483 239.867 203.666 240.813 203.649 241.993C203.631 243.174 204.42 244.143 205.41 244.157C206.4 244.172 207.217 243.226 207.234 242.046Z" fill="#F29111"/>
<path d="M216.531 220.645C216.548 219.465 215.76 218.496 214.77 218.481C213.78 218.467 212.963 219.412 212.945 220.593C212.928 221.773 213.717 222.742 214.707 222.757C215.697 222.771 216.514 221.826 216.531 220.645Z" fill="#F29111"/>
<path d="M216.437 226.048C216.455 224.867 215.666 223.898 214.676 223.884C213.686 223.869 212.869 224.815 212.852 225.995C212.834 227.176 213.623 228.145 214.613 228.159C215.603 228.174 216.42 227.228 216.437 226.048Z" fill="#F29111"/>
<path d="M216.375 231.415C216.392 230.234 215.604 229.266 214.613 229.251C213.623 229.236 212.807 230.182 212.789 231.362C212.772 232.543 213.56 233.512 214.551 233.526C215.541 233.541 216.358 232.596 216.375 231.415Z" fill="#F29111"/>
<path d="M216.289 236.778C216.306 235.598 215.518 234.629 214.527 234.614C213.537 234.6 212.721 235.545 212.703 236.726C212.686 237.906 213.475 238.875 214.465 238.89C215.455 238.904 216.272 237.959 216.289 236.778Z" fill="#F29111"/>
<path d="M216.226 242.173C216.244 240.992 215.455 240.023 214.465 240.009C213.475 239.994 212.658 240.94 212.641 242.12C212.623 243.301 213.412 244.27 214.402 244.284C215.392 244.299 216.209 243.353 216.226 242.173Z" fill="#F29111"/>
<path d="M229.976 220.847C229.994 219.666 229.205 218.697 228.215 218.683C227.225 218.668 226.408 219.613 226.391 220.794C226.373 221.975 227.162 222.943 228.152 222.958C229.142 222.972 229.959 222.027 229.976 220.847Z" fill="#F29111"/>
<path d="M229.922 226.247C229.939 225.066 229.15 224.098 228.16 224.083C227.17 224.069 226.353 225.014 226.336 226.194C226.319 227.375 227.107 228.344 228.098 228.358C229.088 228.373 229.904 227.428 229.922 226.247Z" fill="#F29111"/>
<path d="M229.828 231.612C229.845 230.432 229.057 229.463 228.067 229.448C227.076 229.434 226.26 230.379 226.242 231.56C226.225 232.74 227.014 233.709 228.004 233.724C228.994 233.738 229.811 232.793 229.828 231.612Z" fill="#F29111"/>
<path d="M229.766 236.974C229.783 235.793 228.994 234.824 228.004 234.81C227.014 234.795 226.197 235.74 226.18 236.921C226.162 238.102 226.951 239.07 227.941 239.085C228.931 239.099 229.748 238.154 229.766 236.974Z" fill="#F29111"/>
<path d="M229.672 242.376C229.689 241.195 228.9 240.226 227.91 240.212C226.92 240.197 226.103 241.143 226.086 242.323C226.069 243.504 226.857 244.473 227.848 244.487C228.838 244.502 229.654 243.556 229.672 242.376Z" fill="#F29111"/>
<path d="M221.008 220.71C221.025 219.529 220.236 218.56 219.246 218.546C218.256 218.531 217.439 219.477 217.422 220.657C217.405 221.838 218.193 222.807 219.183 222.821C220.174 222.836 220.99 221.89 221.008 220.71Z" fill="#F29111"/>
<path d="M220.93 226.112C220.947 224.932 220.158 223.963 219.168 223.948C218.178 223.934 217.361 224.879 217.344 226.06C217.327 227.24 218.115 228.209 219.105 228.224C220.096 228.238 220.912 227.293 220.93 226.112Z" fill="#F29111"/>
<path d="M220.867 231.477C220.884 230.297 220.096 229.328 219.106 229.314C218.115 229.299 217.299 230.244 217.281 231.425C217.264 232.605 218.053 233.574 219.043 233.589C220.033 233.603 220.85 232.658 220.867 231.477Z" fill="#F29111"/>
<path d="M220.781 236.843C220.798 235.662 220.01 234.693 219.02 234.679C218.03 234.664 217.213 235.61 217.195 236.79C217.178 237.971 217.967 238.94 218.957 238.954C219.947 238.969 220.764 238.023 220.781 236.843Z" fill="#F29111"/>
<path d="M220.711 242.245C220.728 241.064 219.94 240.096 218.949 240.081C217.959 240.067 217.142 241.012 217.125 242.192C217.108 243.373 217.896 244.342 218.887 244.356C219.877 244.371 220.694 243.426 220.711 242.245Z" fill="#F29111"/>
<path d="M234.461 220.917C234.478 219.736 233.69 218.767 232.699 218.753C231.709 218.738 230.892 219.684 230.875 220.864C230.858 222.045 231.646 223.014 232.637 223.028C233.627 223.043 234.444 222.097 234.461 220.917Z" fill="#F29111"/>
<path d="M234.391 226.311C234.408 225.131 233.619 224.162 232.629 224.148C231.639 224.133 230.822 225.078 230.805 226.259C230.787 227.439 231.576 228.408 232.566 228.423C233.556 228.437 234.373 227.492 234.391 226.311Z" fill="#F29111"/>
<path d="M234.305 231.677C234.322 230.496 233.533 229.527 232.543 229.513C231.553 229.498 230.736 230.443 230.719 231.624C230.702 232.805 231.49 233.773 232.48 233.788C233.471 233.803 234.287 232.857 234.305 231.677Z" fill="#F29111"/>
<path d="M234.25 237.042C234.267 235.861 233.479 234.892 232.488 234.878C231.498 234.863 230.682 235.809 230.664 236.989C230.647 238.17 231.436 239.139 232.426 239.153C233.416 239.168 234.233 238.223 234.25 237.042Z" fill="#F29111"/>
<path d="M234.164 242.44C234.181 241.26 233.393 240.291 232.402 240.276C231.412 240.262 230.596 241.207 230.578 242.388C230.561 243.568 231.35 244.537 232.34 244.552C233.33 244.566 234.147 243.621 234.164 242.44Z" fill="#F29111"/>
<path d="M212.062 220.583C212.08 219.402 211.291 218.434 210.301 218.419C209.311 218.404 208.494 219.35 208.477 220.53C208.459 221.711 209.248 222.68 210.238 222.694C211.228 222.709 212.045 221.764 212.062 220.583Z" fill="#F29111"/>
<path d="M211.953 225.981C211.97 224.801 211.182 223.832 210.192 223.817C209.201 223.803 208.385 224.748 208.367 225.929C208.35 227.109 209.139 228.078 210.129 228.093C211.119 228.107 211.936 227.162 211.953 225.981Z" fill="#F29111"/>
<path d="M211.898 231.343C211.916 230.162 211.127 229.193 210.137 229.179C209.147 229.164 208.33 230.109 208.313 231.29C208.295 232.471 209.084 233.44 210.074 233.454C211.064 233.469 211.881 232.523 211.898 231.343Z" fill="#F29111"/>
<path d="M211.812 236.708C211.83 235.527 211.041 234.559 210.051 234.544C209.061 234.529 208.244 235.475 208.227 236.655C208.209 237.836 208.998 238.805 209.988 238.819C210.978 238.834 211.795 237.889 211.812 236.708Z" fill="#F29111"/>
<path d="M211.742 242.11C211.759 240.93 210.971 239.961 209.981 239.946C208.99 239.932 208.174 240.877 208.156 242.058C208.139 243.238 208.928 244.207 209.918 244.222C210.908 244.236 211.725 243.291 211.742 242.11Z" fill="#F29111"/>
<path d="M225.492 220.782C225.509 219.602 224.721 218.633 223.731 218.618C222.74 218.604 221.924 219.549 221.906 220.73C221.889 221.91 222.678 222.879 223.668 222.893C224.658 222.908 225.475 221.963 225.492 220.782Z" fill="#F29111"/>
<path d="M225.414 226.177C225.431 224.996 224.643 224.027 223.652 224.013C222.662 223.998 221.846 224.943 221.828 226.124C221.811 227.305 222.6 228.273 223.59 228.288C224.58 228.303 225.397 227.357 225.414 226.177Z" fill="#F29111"/>
<path d="M225.336 231.54C225.353 230.359 224.565 229.391 223.574 229.376C222.584 229.361 221.767 230.307 221.75 231.487C221.733 232.668 222.521 233.637 223.512 233.651C224.502 233.666 225.319 232.721 225.336 231.54Z" fill="#F29111"/>
<path d="M225.258 236.911C225.275 235.73 224.486 234.762 223.496 234.747C222.506 234.733 221.689 235.678 221.672 236.858C221.655 238.039 222.443 239.008 223.433 239.022C224.424 239.037 225.24 238.092 225.258 236.911Z" fill="#F29111"/>
<path d="M225.195 242.309C225.213 241.129 224.424 240.16 223.434 240.146C222.444 240.131 221.627 241.076 221.609 242.257C221.592 243.437 222.381 244.406 223.371 244.421C224.361 244.435 225.178 243.49 225.195 242.309Z" fill="#F29111"/>
<path d="M238.937 220.981C238.955 219.801 238.166 218.832 237.176 218.817C236.186 218.803 235.369 219.748 235.352 220.929C235.334 222.109 236.123 223.078 237.113 223.093C238.103 223.107 238.92 222.162 238.937 220.981Z" fill="#F29111"/>
<path d="M238.883 226.376C238.9 225.195 238.111 224.227 237.121 224.212C236.131 224.197 235.314 225.143 235.297 226.323C235.28 227.504 236.068 228.473 237.058 228.487C238.049 228.502 238.865 227.557 238.883 226.376Z" fill="#F29111"/>
<path d="M238.797 231.745C238.814 230.564 238.025 229.596 237.035 229.581C236.045 229.567 235.228 230.512 235.211 231.692C235.194 232.873 235.982 233.842 236.973 233.856C237.963 233.871 238.779 232.926 238.797 231.745Z" fill="#F29111"/>
<path d="M238.726 237.106C238.744 235.926 237.955 234.957 236.965 234.942C235.975 234.928 235.158 235.873 235.141 237.054C235.123 238.234 235.912 239.203 236.902 239.218C237.892 239.232 238.709 238.287 238.726 237.106Z" fill="#F29111"/>
<path d="M238.633 242.503C238.65 241.322 237.861 240.353 236.871 240.339C235.881 240.324 235.064 241.27 235.047 242.45C235.03 243.631 235.818 244.6 236.808 244.614C237.799 244.629 238.615 243.683 238.633 242.503Z" fill="#F29111"/>
<path d="M198.203 247.276C198.22 246.096 197.432 245.127 196.442 245.112C195.451 245.098 194.635 246.043 194.617 247.224C194.6 248.404 195.389 249.373 196.379 249.388C197.369 249.402 198.186 248.457 198.203 247.276Z" fill="#F29111"/>
<path d="M198.125 252.642C198.142 251.461 197.354 250.492 196.363 250.478C195.373 250.463 194.557 251.408 194.539 252.589C194.522 253.769 195.31 254.738 196.301 254.753C197.291 254.767 198.108 253.822 198.125 252.642Z" fill="#F29111"/>
<path d="M202.695 247.339C202.713 246.158 201.924 245.189 200.934 245.175C199.944 245.16 199.127 246.106 199.109 247.286C199.092 248.467 199.881 249.436 200.871 249.45C201.861 249.465 202.678 248.519 202.695 247.339Z" fill="#F29111"/>
<path d="M202.609 252.706C202.627 251.525 201.838 250.557 200.848 250.542C199.858 250.528 199.041 251.473 199.024 252.653C199.006 253.834 199.795 254.803 200.785 254.817C201.775 254.832 202.592 253.887 202.609 252.706Z" fill="#F29111"/>
<path d="M193.703 247.206C193.72 246.025 192.932 245.057 191.942 245.042C190.951 245.028 190.135 245.973 190.117 247.153C190.1 248.334 190.889 249.303 191.879 249.317C192.869 249.332 193.686 248.387 193.703 247.206Z" fill="#F29111"/>
<path d="M193.641 252.571C193.658 251.391 192.869 250.422 191.879 250.407C190.889 250.393 190.072 251.338 190.055 252.519C190.037 253.699 190.826 254.668 191.816 254.683C192.806 254.697 193.623 253.752 193.641 252.571Z" fill="#F29111"/>
<path d="M207.18 247.409C207.197 246.229 206.408 245.26 205.418 245.245C204.428 245.231 203.611 246.176 203.594 247.357C203.577 248.537 204.365 249.506 205.355 249.52C206.346 249.535 207.162 248.59 207.18 247.409Z" fill="#F29111"/>
<path d="M207.086 252.772C207.103 251.592 206.315 250.623 205.324 250.608C204.334 250.594 203.517 251.539 203.5 252.72C203.483 253.9 204.271 254.869 205.262 254.884C206.252 254.898 207.069 253.953 207.086 252.772Z" fill="#F29111"/>
<path d="M216.141 247.542C216.158 246.361 215.369 245.392 214.379 245.378C213.389 245.363 212.572 246.309 212.555 247.489C212.537 248.67 213.326 249.639 214.316 249.653C215.306 249.668 216.123 248.723 216.141 247.542Z" fill="#F29111"/>
<path d="M216.078 252.905C216.095 251.725 215.307 250.756 214.317 250.741C213.326 250.727 212.51 251.672 212.492 252.853C212.475 254.033 213.264 255.002 214.254 255.017C215.244 255.031 216.061 254.086 216.078 252.905Z" fill="#F29111"/>
<path d="M229.609 247.739C229.627 246.559 228.838 245.59 227.848 245.575C226.858 245.561 226.041 246.506 226.024 247.687C226.006 248.867 226.795 249.836 227.785 249.851C228.775 249.865 229.592 248.92 229.609 247.739Z" fill="#F29111"/>
<path d="M229.508 253.104C229.525 251.924 228.736 250.955 227.746 250.94C226.756 250.926 225.939 251.871 225.922 253.052C225.905 254.232 226.693 255.201 227.683 255.216C228.674 255.23 229.49 254.285 229.508 253.104Z" fill="#F29111"/>
<path d="M220.625 247.606C220.642 246.426 219.854 245.457 218.863 245.442C217.873 245.428 217.057 246.373 217.039 247.554C217.022 248.734 217.81 249.703 218.801 249.718C219.791 249.732 220.608 248.787 220.625 247.606Z" fill="#F29111"/>
<path d="M220.555 252.97C220.572 251.789 219.783 250.82 218.793 250.806C217.803 250.791 216.986 251.736 216.969 252.917C216.952 254.098 217.74 255.066 218.73 255.081C219.721 255.096 220.537 254.15 220.555 252.97Z" fill="#F29111"/>
<path d="M234.047 247.804C234.064 246.623 233.275 245.654 232.285 245.64C231.295 245.625 230.478 246.57 230.461 247.751C230.444 248.932 231.232 249.9 232.223 249.915C233.213 249.93 234.029 248.984 234.047 247.804Z" fill="#F29111"/>
<path d="M233.992 253.169C234.009 251.988 233.221 251.019 232.231 251.005C231.24 250.99 230.424 251.936 230.406 253.116C230.389 254.297 231.178 255.266 232.168 255.28C233.158 255.295 233.975 254.349 233.992 253.169Z" fill="#F29111"/>
<path d="M211.664 247.474C211.681 246.293 210.893 245.324 209.902 245.31C208.912 245.295 208.096 246.24 208.078 247.421C208.061 248.602 208.85 249.57 209.84 249.585C210.83 249.599 211.647 248.654 211.664 247.474Z" fill="#F29111"/>
<path d="M211.586 252.837C211.603 251.656 210.815 250.687 209.824 250.673C208.834 250.658 208.017 251.604 208 252.784C207.983 253.965 208.771 254.934 209.762 254.948C210.752 254.963 211.569 254.017 211.586 252.837Z" fill="#F29111"/>
<path d="M225.109 247.671C225.127 246.49 224.338 245.521 223.348 245.507C222.358 245.492 221.541 246.438 221.524 247.618C221.506 248.799 222.295 249.768 223.285 249.782C224.275 249.797 225.092 248.851 225.109 247.671Z" fill="#F29111"/>
<path d="M225 253.034C225.017 251.853 224.229 250.885 223.238 250.87C222.248 250.856 221.432 251.801 221.414 252.981C221.397 254.162 222.186 255.131 223.176 255.145C224.166 255.16 224.983 254.215 225 253.034Z" fill="#F29111"/>
<path d="M238.539 247.868C238.556 246.688 237.768 245.719 236.778 245.704C235.787 245.69 234.971 246.635 234.953 247.815C234.936 248.996 235.725 249.965 236.715 249.979C237.705 249.994 238.522 249.049 238.539 247.868Z" fill="#F29111"/>
<path d="M238.476 253.239C238.494 252.059 237.705 251.09 236.715 251.075C235.725 251.061 234.908 252.006 234.891 253.187C234.873 254.367 235.662 255.336 236.652 255.351C237.642 255.365 238.459 254.42 238.476 253.239Z" fill="#F29111"/>
</g>
<defs>
<filter id="filter0_d_3036_5817" x="119" y="75" width="56" height="113" filterUnits="userSpaceOnUse" color-interpolation-filters="sRGB">
<feFlood flood-opacity="0" result="BackgroundImageFix"/>
<feColorMatrix in="SourceAlpha" type="matrix" values="0 0 0 0 0 0 0 0 0 0 0 0 0 0 0 0 0 0 127 0" result="hardAlpha"/>
<feOffset dy="4"/>
<feGaussianBlur stdDeviation="3"/>
<feComposite in2="hardAlpha" operator="out"/>
<feColorMatrix type="matrix" values="0 0 0 0 0 0 0 0 0 0 0 0 0 0 0 0 0 0 0.25 0"/>
<feBlend mode="normal" in2="BackgroundImageFix" result="effect1_dropShadow_3036_5817"/>
<feBlend mode="normal" in="SourceGraphic" in2="effect1_dropShadow_3036_5817" result="shape"/>
</filter>
<filter id="filter1_d_3036_5817" x="99.875" y="62.3926" width="316.602" height="290.147" filterUnits="userSpaceOnUse" color-interpolation-filters="sRGB">
<feFlood flood-opacity="0" result="BackgroundImageFix"/>
<feColorMatrix in="SourceAlpha" type="matrix" values="0 0 0 0 0 0 0 0 0 0 0 0 0 0 0 0 0 0 127 0" result="hardAlpha"/>
<feOffset dy="4"/>
<feGaussianBlur stdDeviation="2"/>
<feComposite in2="hardAlpha" operator="out"/>
<feColorMatrix type="matrix" values="0 0 0 0 0 0 0 0 0 0 0 0 0 0 0 0 0 0 0.25 0"/>
<feBlend mode="normal" in2="BackgroundImageFix" result="effect1_dropShadow_3036_5817"/>
<feBlend mode="normal" in="SourceGraphic" in2="effect1_dropShadow_3036_5817" result="shape"/>
</filter>
<filter id="filter2_d_3036_5817" x="102.875" y="60.3926" width="310.602" height="284.147" filterUnits="userSpaceOnUse" color-interpolation-filters="sRGB">
<feFlood flood-opacity="0" result="BackgroundImageFix"/>
<feColorMatrix in="SourceAlpha" type="matrix" values="0 0 0 0 0 0 0 0 0 0 0 0 0 0 0 0 0 0 127 0" result="hardAlpha"/>
<feOffset dy="-1"/>
<feGaussianBlur stdDeviation="0.5"/>
<feComposite in2="hardAlpha" operator="out"/>
<feColorMatrix type="matrix" values="0 0 0 0 0 0 0 0 0 0 0 0 0 0 0 0 0 0 0.1 0"/>
<feBlend mode="normal" in2="BackgroundImageFix" result="effect1_dropShadow_3036_5817"/>
<feBlend mode="normal" in="SourceGraphic" in2="effect1_dropShadow_3036_5817" result="shape"/>
</filter>
<filter id="filter3_d_3036_5817" x="250" y="305" width="84" height="77" filterUnits="userSpaceOnUse" color-interpolation-filters="sRGB">
<feFlood flood-opacity="0" result="BackgroundImageFix"/>
<feColorMatrix in="SourceAlpha" type="matrix" values="0 0 0 0 0 0 0 0 0 0 0 0 0 0 0 0 0 0 127 0" result="hardAlpha"/>
<feOffset dy="4"/>
<feGaussianBlur stdDeviation="2"/>
<feComposite in2="hardAlpha" operator="out"/>
<feColorMatrix type="matrix" values="0 0 0 0 0 0 0 0 0 0 0 0 0 0 0 0 0 0 0.25 0"/>
<feBlend mode="normal" in2="BackgroundImageFix" result="effect1_dropShadow_3036_5817"/>
<feBlend mode="normal" in="SourceGraphic" in2="effect1_dropShadow_3036_5817" result="shape"/>
</filter>
<filter id="filter4_d_3036_5817" x="96" y="297" width="38" height="67" filterUnits="userSpaceOnUse" color-interpolation-filters="sRGB">
<feFlood flood-opacity="0" result="BackgroundImageFix"/>
<feColorMatrix in="SourceAlpha" type="matrix" values="0 0 0 0 0 0 0 0 0 0 0 0 0 0 0 0 0 0 127 0" result="hardAlpha"/>
<feOffset dy="4"/>
<feGaussianBlur stdDeviation="3"/>
<feComposite in2="hardAlpha" operator="out"/>
<feColorMatrix type="matrix" values="0 0 0 0 0 0 0 0 0 0 0 0 0 0 0 0 0 0 0.25 0"/>
<feBlend mode="normal" in2="BackgroundImageFix" result="effect1_dropShadow_3036_5817"/>
<feBlend mode="normal" in="SourceGraphic" in2="effect1_dropShadow_3036_5817" result="shape"/>
</filter>
<linearGradient id="paint0_linear_3036_5817" x1="146.989" y1="74.6137" x2="146.989" y2="177.985" gradientUnits="userSpaceOnUse">
<stop stop-color="white"/>
<stop offset="1" stop-color="white"/>
</linearGradient>
</defs>
</svg>
