<svg width="500" height="500" viewBox="0 0 500 500" fill="none" xmlns="http://www.w3.org/2000/svg">
<g clip-path="url(#clip0_2831_16043)">
<mask id="mask0_2831_16043" style="mask-type:luminance" maskUnits="userSpaceOnUse" x="0" y="0" width="500" height="500">
<path d="M500 0H0V500H500V0Z" fill="white"/>
</mask>
<g mask="url(#mask0_2831_16043)">
<g filter="url(#filter0_d_2831_16043)">
<path d="M184.97 105.024C179.112 127.842 177.844 165.689 177.996 183.345L219.236 157.343C218.423 125.27 210.036 103.204 204.297 93.1828C203.023 90.9564 200.191 90.386 197.977 91.6823L193.373 94.3774C189.309 96.7569 186.142 100.462 184.97 105.024Z" fill="url(#paint0_linear_2831_16043)"/>
</g>
<g filter="url(#filter1_d_2831_16043)">
<g filter="url(#filter2_d_2831_16043)">
<path fill-rule="evenodd" clip-rule="evenodd" d="M361.537 200.126C390.874 175.832 436.545 130.423 448.345 103.861C449.202 101.934 448.574 99.7233 446.958 98.3693L443.373 95.3678C438.811 91.5496 432.435 90.747 427.089 93.3527C399.278 106.905 360.728 126.861 319.49 161.406C304.903 153.738 288.163 148.853 270.175 147.659C208.853 143.59 156.243 183.962 152.668 237.833C149.094 291.704 195.908 338.673 257.23 342.742C318.554 346.812 371.164 306.439 374.739 252.568C375.987 233.731 371.076 215.737 361.537 200.126Z" fill="white"/>
</g>
</g>
<path d="M448.423 103.533C442.541 114.618 431.512 133.282 408.348 156.936C408.348 156.936 417.977 127.853 411.361 121.377C404.745 114.901 373.234 122.594 373.234 122.594C386.542 114.815 411.669 98.5368 428.935 92.9097C433.466 91.4337 438.305 92.4561 442.435 94.8298L446.57 97.2052C448.789 98.4803 449.624 101.273 448.423 103.533Z" fill="#FF9100"/>
<path d="M448.488 103.551C436.408 131.839 390.334 177.717 361.721 200.107L355.031 190.192L447.348 102.791C447.926 102.244 448.801 102.82 448.488 103.551Z" fill="#E9E6E6"/>
<path d="M307.726 253.512C305.419 288.257 274.32 321.018 230.775 318.129C187.23 315.239 154.23 278.224 156.536 243.479C158.841 208.732 192.76 182.691 236.305 185.58C279.852 188.47 310.031 218.764 307.726 253.512Z" fill="#35373A"/>
<g opacity="0.19">
<path d="M219.313 275.075C218.593 280.175 213.796 283.729 208.59 282.994C203.385 282.26 199.757 277.518 200.477 272.418" stroke="#FF9100" stroke-width="1.36"/>
<path d="M238.149 277.733C237.429 282.833 232.632 286.387 227.426 285.652C222.221 284.918 218.593 280.176 219.312 275.076" stroke="#FF9100" stroke-width="1.36"/>
</g>
<g opacity="0.2">
<mask id="mask1_2831_16043" style="mask-type:luminance" maskUnits="userSpaceOnUse" x="237" y="232" width="47" height="31">
<path d="M257.127 262.52C269.744 264.401 281.744 254.131 283.917 239.551L238.219 232.74C236.049 247.298 244.511 260.64 257.147 262.523L257.127 262.52Z" fill="white"/>
</mask>
<g mask="url(#mask1_2831_16043)">
<path d="M240.236 234.678C241.244 234.829 242.202 234.008 242.375 232.845C242.548 231.682 241.872 230.617 240.864 230.467C239.856 230.317 238.899 231.138 238.725 232.301C238.552 233.464 239.228 234.528 240.236 234.678Z" fill="#F29111"/>
<path d="M239.455 239.96C240.463 240.11 241.42 239.289 241.594 238.126C241.767 236.963 241.09 235.899 240.083 235.749C239.075 235.598 238.117 236.419 237.944 237.582C237.771 238.745 238.447 239.809 239.455 239.96Z" fill="#F29111"/>
<path d="M238.666 245.233C239.674 245.383 240.631 244.562 240.805 243.4C240.978 242.237 240.301 241.172 239.294 241.022C238.286 240.872 237.328 241.693 237.155 242.856C236.982 244.018 237.658 245.083 238.666 245.233Z" fill="#F29111"/>
<path d="M237.877 250.509C238.885 250.659 239.842 249.838 240.015 248.675C240.189 247.512 239.512 246.448 238.504 246.297C237.497 246.147 236.539 246.968 236.366 248.131C236.193 249.294 236.869 250.358 237.877 250.509Z" fill="#F29111"/>
<path d="M256.114 234.947C256.296 233.786 255.628 232.714 254.621 232.554C253.615 232.394 252.652 233.206 252.47 234.368C252.288 235.529 252.956 236.601 253.963 236.761C254.969 236.921 255.932 236.109 256.114 234.947Z" fill="#F29111"/>
<path d="M255.325 240.225C255.507 239.063 254.839 237.992 253.832 237.832C252.826 237.672 251.863 238.483 251.681 239.645C251.499 240.806 252.167 241.878 253.174 242.038C254.18 242.198 255.143 241.386 255.325 240.225Z" fill="#F29111"/>
<path d="M254.536 245.498C254.718 244.337 254.05 243.265 253.043 243.105C252.037 242.945 251.074 243.757 250.892 244.918C250.71 246.08 251.378 247.151 252.385 247.311C253.391 247.472 254.354 246.66 254.536 245.498Z" fill="#F29111"/>
<path d="M251.603 252.553C252.611 252.704 253.569 251.883 253.742 250.72C253.915 249.557 253.239 248.492 252.231 248.342C251.223 248.192 250.266 249.013 250.092 250.176C249.919 251.339 250.596 252.403 251.603 252.553Z" fill="#F29111"/>
<path d="M268.447 233.516C269.455 233.667 270.412 232.846 270.586 231.683C270.759 230.52 270.083 229.455 269.075 229.305C268.067 229.155 267.11 229.976 266.936 231.139C266.763 232.302 267.439 233.366 268.447 233.516Z" fill="#F29111"/>
<path d="M267.666 238.766C268.674 238.917 269.631 238.096 269.805 236.933C269.978 235.77 269.301 234.705 268.294 234.555C267.286 234.405 266.328 235.226 266.155 236.389C265.982 237.552 266.658 238.616 267.666 238.766Z" fill="#F29111"/>
<path d="M266.877 244.046C267.885 244.196 268.842 243.375 269.015 242.212C269.189 241.049 268.512 239.985 267.504 239.834C266.497 239.684 265.539 240.505 265.366 241.668C265.193 242.831 265.869 243.895 266.877 244.046Z" fill="#F29111"/>
<path d="M266.088 249.319C267.096 249.469 268.053 248.648 268.226 247.485C268.4 246.323 267.723 245.258 266.715 245.108C265.708 244.958 264.75 245.779 264.577 246.942C264.404 248.104 265.08 249.169 266.088 249.319Z" fill="#F29111"/>
<path d="M265.307 254.596C266.314 254.747 267.272 253.926 267.445 252.763C267.618 251.6 266.942 250.535 265.934 250.385C264.926 250.235 263.969 251.056 263.796 252.219C263.622 253.382 264.299 254.446 265.307 254.596Z" fill="#F29111"/>
<path d="M282.174 235.561C283.182 235.711 284.139 234.89 284.312 233.728C284.486 232.565 283.809 231.5 282.801 231.35C281.794 231.2 280.836 232.021 280.663 233.184C280.489 234.347 281.166 235.411 282.174 235.561Z" fill="#F29111"/>
<path d="M281.393 240.813C282.4 240.963 283.358 240.142 283.531 238.98C283.704 237.817 283.028 236.752 282.02 236.602C281.012 236.452 280.055 237.273 279.882 238.436C279.708 239.599 280.385 240.663 281.393 240.813Z" fill="#F29111"/>
<path d="M280.603 246.093C281.611 246.243 282.569 245.422 282.742 244.259C282.915 243.096 282.239 242.032 281.231 241.881C280.223 241.731 279.266 242.552 279.092 243.715C278.919 244.878 279.596 245.942 280.603 246.093Z" fill="#F29111"/>
<path d="M279.814 251.366C280.822 251.516 281.78 250.695 281.953 249.532C282.126 248.369 281.45 247.305 280.442 247.155C279.434 247.005 278.477 247.826 278.303 248.988C278.13 250.151 278.807 251.216 279.814 251.366Z" fill="#F29111"/>
<path d="M279.033 256.641C280.041 256.792 280.998 255.971 281.172 254.808C281.345 253.645 280.669 252.58 279.661 252.43C278.653 252.28 277.695 253.101 277.522 254.264C277.349 255.427 278.025 256.491 279.033 256.641Z" fill="#F29111"/>
<path d="M244.799 235.36C245.807 235.51 246.764 234.689 246.937 233.526C247.111 232.364 246.434 231.299 245.426 231.149C244.419 230.999 243.461 231.82 243.288 232.983C243.114 234.145 243.791 235.21 244.799 235.36Z" fill="#F29111"/>
<path d="M244.018 240.639C245.025 240.79 245.983 239.969 246.156 238.806C246.329 237.643 245.653 236.578 244.645 236.428C243.637 236.278 242.68 237.099 242.507 238.262C242.333 239.425 243.01 240.489 244.018 240.639Z" fill="#F29111"/>
<path d="M243.228 245.913C244.236 246.063 245.194 245.242 245.367 244.079C245.54 242.916 244.864 241.852 243.856 241.702C242.848 241.551 241.891 242.372 241.717 243.535C241.544 244.698 242.221 245.763 243.228 245.913Z" fill="#F29111"/>
<path d="M242.439 251.188C243.447 251.338 244.405 250.517 244.578 249.355C244.751 248.192 244.075 247.127 243.067 246.977C242.059 246.827 241.102 247.648 240.928 248.811C240.755 249.974 241.432 251.038 242.439 251.188Z" fill="#F29111"/>
<path d="M258.517 237.403C259.525 237.553 260.483 236.732 260.656 235.569C260.829 234.407 260.153 233.342 259.145 233.192C258.137 233.042 257.18 233.863 257.007 235.026C256.833 236.188 257.51 237.253 258.517 237.403Z" fill="#F29111"/>
<path d="M257.728 242.682C258.736 242.833 259.694 242.012 259.867 240.849C260.04 239.686 259.364 238.621 258.356 238.471C257.348 238.321 256.391 239.142 256.217 240.305C256.044 241.468 256.721 242.532 257.728 242.682Z" fill="#F29111"/>
<path d="M256.947 247.958C257.955 248.108 258.912 247.287 259.086 246.124C259.259 244.961 258.583 243.897 257.575 243.747C256.567 243.596 255.61 244.417 255.436 245.58C255.263 246.743 255.939 247.808 256.947 247.958Z" fill="#F29111"/>
<path d="M256.158 253.233C257.166 253.383 258.123 252.562 258.297 251.4C258.47 250.237 257.794 249.172 256.786 249.022C255.778 248.872 254.82 249.693 254.647 250.856C254.474 252.018 255.15 253.083 256.158 253.233Z" fill="#F29111"/>
<path d="M273.025 234.198C274.033 234.348 274.991 233.527 275.164 232.364C275.337 231.201 274.661 230.137 273.653 229.987C272.645 229.837 271.688 230.658 271.514 231.82C271.341 232.983 272.018 234.048 273.025 234.198Z" fill="#F29111"/>
<path d="M272.244 239.45C273.252 239.6 274.209 238.779 274.383 237.616C274.556 236.453 273.879 235.389 272.872 235.239C271.864 235.089 270.906 235.91 270.733 237.072C270.56 238.235 271.236 239.3 272.244 239.45Z" fill="#F29111"/>
<path d="M271.455 244.729C272.463 244.879 273.42 244.058 273.594 242.896C273.767 241.733 273.09 240.668 272.083 240.518C271.075 240.368 270.117 241.189 269.944 242.352C269.771 243.515 270.447 244.579 271.455 244.729Z" fill="#F29111"/>
<path d="M270.674 250.003C271.682 250.153 272.639 249.332 272.812 248.169C272.986 247.006 272.309 245.942 271.301 245.791C270.294 245.641 269.336 246.462 269.163 247.625C268.989 248.788 269.666 249.852 270.674 250.003Z" fill="#F29111"/>
<path d="M269.885 255.278C270.893 255.428 271.85 254.607 272.023 253.444C272.197 252.282 271.52 251.217 270.512 251.067C269.505 250.917 268.547 251.738 268.374 252.901C268.2 254.063 268.877 255.128 269.885 255.278Z" fill="#F29111"/>
<path d="M249.377 236.042C250.385 236.192 251.342 235.371 251.515 234.208C251.689 233.045 251.012 231.981 250.004 231.831C248.997 231.68 248.039 232.501 247.866 233.664C247.693 234.827 248.369 235.892 249.377 236.042Z" fill="#F29111"/>
<path d="M248.588 241.321C249.596 241.471 250.553 240.65 250.726 239.487C250.9 238.325 250.223 237.26 249.215 237.11C248.208 236.96 247.25 237.781 247.077 238.943C246.904 240.106 247.58 241.171 248.588 241.321Z" fill="#F29111"/>
<path d="M247.799 246.594C248.807 246.745 249.764 245.924 249.937 244.761C250.111 243.598 249.434 242.533 248.426 242.383C247.419 242.233 246.461 243.054 246.288 244.217C246.114 245.38 246.791 246.444 247.799 246.594Z" fill="#F29111"/>
<path d="M247.017 251.87C248.025 252.02 248.983 251.199 249.156 250.036C249.329 248.873 248.653 247.809 247.645 247.659C246.637 247.508 245.68 248.329 245.507 249.492C245.333 250.655 246.01 251.72 247.017 251.87Z" fill="#F29111"/>
<path d="M263.877 232.835C264.885 232.985 265.842 232.164 266.015 231.001C266.189 229.838 265.512 228.774 264.504 228.624C263.497 228.473 262.539 229.294 262.366 230.457C262.193 231.62 262.869 232.684 263.877 232.835Z" fill="#F29111"/>
<path d="M263.088 238.085C264.096 238.235 265.053 237.414 265.226 236.251C265.4 235.088 264.723 234.024 263.715 233.874C262.708 233.723 261.75 234.544 261.577 235.707C261.404 236.87 262.08 237.934 263.088 238.085Z" fill="#F29111"/>
<path d="M262.307 243.364C263.314 243.514 264.272 242.693 264.445 241.53C264.618 240.367 263.942 239.303 262.934 239.153C261.926 239.003 260.969 239.824 260.796 240.986C260.622 242.149 261.299 243.214 262.307 243.364Z" fill="#F29111"/>
<path d="M261.517 248.639C262.525 248.79 263.483 247.969 263.656 246.806C263.829 245.643 263.153 244.578 262.145 244.428C261.137 244.278 260.18 245.099 260.007 246.262C259.833 247.425 260.51 248.489 261.517 248.639Z" fill="#F29111"/>
<path d="M260.728 253.915C261.736 254.065 262.694 253.244 262.867 252.081C263.04 250.918 262.364 249.854 261.356 249.704C260.348 249.553 259.391 250.374 259.217 251.537C259.044 252.7 259.721 253.765 260.728 253.915Z" fill="#F29111"/>
<path d="M277.603 234.88C278.611 235.03 279.569 234.209 279.742 233.046C279.915 231.883 279.239 230.819 278.231 230.668C277.223 230.518 276.266 231.339 276.092 232.502C275.919 233.665 276.596 234.729 277.603 234.88Z" fill="#F29111"/>
<path d="M276.814 240.132C277.822 240.282 278.78 239.461 278.953 238.298C279.126 237.135 278.45 236.071 277.442 235.92C276.434 235.77 275.477 236.591 275.303 237.754C275.13 238.917 275.807 239.981 276.814 240.132Z" fill="#F29111"/>
<path d="M276.033 245.411C277.041 245.561 277.998 244.74 278.172 243.577C278.345 242.414 277.669 241.35 276.661 241.2C275.653 241.049 274.695 241.87 274.522 243.033C274.349 244.196 275.025 245.261 276.033 245.411Z" fill="#F29111"/>
<path d="M275.244 250.684C276.252 250.834 277.209 250.014 277.383 248.851C277.556 247.688 276.879 246.623 275.872 246.473C274.864 246.323 273.906 247.144 273.733 248.307C273.56 249.47 274.236 250.534 275.244 250.684Z" fill="#F29111"/>
<path d="M274.455 255.96C275.463 256.11 276.42 255.289 276.594 254.126C276.767 252.963 276.09 251.899 275.083 251.749C274.075 251.598 273.117 252.419 272.944 253.582C272.771 254.745 273.447 255.809 274.455 255.96Z" fill="#F29111"/>
<path d="M237.096 255.782C238.103 255.932 239.061 255.111 239.234 253.948C239.408 252.785 238.731 251.721 237.723 251.571C236.715 251.421 235.758 252.242 235.585 253.404C235.411 254.567 236.088 255.632 237.096 255.782Z" fill="#F29111"/>
<path d="M236.307 261.057C237.314 261.208 238.272 260.387 238.445 259.224C238.618 258.061 237.942 256.996 236.934 256.846C235.926 256.696 234.969 257.517 234.796 258.68C234.622 259.843 235.299 260.907 236.307 261.057Z" fill="#F29111"/>
<path d="M252.966 256.047C253.148 254.886 252.479 253.814 251.473 253.654C250.467 253.494 249.504 254.306 249.322 255.467C249.14 256.629 249.808 257.7 250.814 257.86C251.821 258.02 252.784 257.209 252.966 256.047Z" fill="#F29111"/>
<path d="M252.177 261.32C252.359 260.159 251.69 259.087 250.684 258.927C249.678 258.767 248.714 259.579 248.533 260.741C248.351 261.902 249.019 262.974 250.025 263.134C251.031 263.294 251.995 262.482 252.177 261.32Z" fill="#F29111"/>
<path d="M264.518 259.87C265.525 260.02 266.483 259.199 266.656 258.036C266.829 256.873 266.153 255.809 265.145 255.659C264.137 255.508 263.18 256.329 263.007 257.492C262.833 258.655 263.51 259.72 264.518 259.87Z" fill="#F29111"/>
<path d="M263.728 265.145C264.736 265.295 265.694 264.474 265.867 263.312C266.04 262.149 265.364 261.084 264.356 260.934C263.348 260.784 262.391 261.605 262.217 262.768C262.044 263.931 262.721 264.995 263.728 265.145Z" fill="#F29111"/>
<path d="M278.244 261.915C279.252 262.065 280.209 261.244 280.383 260.081C280.556 258.918 279.879 257.854 278.872 257.704C277.864 257.553 276.906 258.374 276.733 259.537C276.56 260.7 277.236 261.765 278.244 261.915Z" fill="#F29111"/>
<path d="M277.455 267.19C278.463 267.34 279.42 266.519 279.594 265.357C279.767 264.194 279.09 263.129 278.083 262.979C277.075 262.829 276.117 263.65 275.944 264.813C275.771 265.975 276.447 267.04 277.455 267.19Z" fill="#F29111"/>
<path d="M241.658 256.462C242.666 256.612 243.623 255.791 243.797 254.628C243.97 253.465 243.294 252.401 242.286 252.25C241.278 252.1 240.32 252.921 240.147 254.084C239.974 255.247 240.65 256.311 241.658 256.462Z" fill="#F29111"/>
<path d="M240.869 261.737C241.877 261.887 242.834 261.066 243.008 259.903C243.181 258.741 242.504 257.676 241.497 257.526C240.489 257.376 239.531 258.197 239.358 259.359C239.185 260.522 239.861 261.587 240.869 261.737Z" fill="#F29111"/>
<path d="M255.377 258.507C256.385 258.657 257.342 257.836 257.515 256.673C257.689 255.51 257.012 254.446 256.004 254.295C254.997 254.145 254.039 254.966 253.866 256.129C253.693 257.292 254.369 258.356 255.377 258.507Z" fill="#F29111"/>
<path d="M254.588 263.782C255.596 263.932 256.553 263.111 256.726 261.948C256.9 260.785 256.223 259.721 255.215 259.571C254.208 259.421 253.25 260.242 253.077 261.404C252.904 262.567 253.58 263.632 254.588 263.782Z" fill="#F29111"/>
<path d="M269.103 260.551C270.111 260.702 271.069 259.881 271.242 258.718C271.415 257.555 270.739 256.491 269.731 256.34C268.723 256.19 267.766 257.011 267.592 258.174C267.419 259.337 268.096 260.401 269.103 260.551Z" fill="#F29111"/>
<path d="M268.314 265.829C269.322 265.979 270.28 265.158 270.453 263.995C270.626 262.832 269.95 261.768 268.942 261.618C267.934 261.467 266.977 262.288 266.803 263.451C266.63 264.614 267.307 265.679 268.314 265.829Z" fill="#F29111"/>
<path d="M246.228 257.143C247.236 257.293 248.194 256.473 248.367 255.31C248.54 254.147 247.864 253.082 246.856 252.932C245.848 252.782 244.891 253.603 244.717 254.766C244.544 255.929 245.221 256.993 246.228 257.143Z" fill="#F29111"/>
<path d="M245.439 262.419C246.447 262.569 247.405 261.748 247.578 260.585C247.751 259.422 247.075 258.358 246.067 258.208C245.059 258.057 244.102 258.878 243.928 260.041C243.755 261.204 244.432 262.268 245.439 262.419Z" fill="#F29111"/>
<path d="M259.947 259.188C260.955 259.338 261.912 258.517 262.086 257.355C262.259 256.192 261.583 255.127 260.575 254.977C259.567 254.827 258.61 255.648 258.436 256.811C258.263 257.974 258.939 259.038 259.947 259.188Z" fill="#F29111"/>
<path d="M259.158 264.464C260.166 264.614 261.123 263.793 261.297 262.63C261.47 261.467 260.794 260.403 259.786 260.252C258.778 260.102 257.82 260.923 257.647 262.086C257.474 263.249 258.15 264.313 259.158 264.464Z" fill="#F29111"/>
<path d="M273.674 261.233C274.682 261.383 275.639 260.562 275.812 259.399C275.986 258.237 275.309 257.172 274.301 257.022C273.294 256.872 272.336 257.693 272.163 258.856C271.989 260.018 272.666 261.083 273.674 261.233Z" fill="#F29111"/>
<path d="M272.885 266.509C273.893 266.659 274.85 265.838 275.023 264.675C275.197 263.512 274.52 262.448 273.512 262.297C272.505 262.147 271.547 262.968 271.374 264.131C271.2 265.294 271.877 266.358 272.885 266.509Z" fill="#F29111"/>
</g>
</g>
<mask id="mask2_2831_16043" style="mask-type:luminance" maskUnits="userSpaceOnUse" x="237" y="231" width="47" height="31">
<path d="M256.793 261.023C269.384 263.068 281.517 252.955 283.879 238.404L238.273 231C235.915 245.529 244.202 258.979 256.813 261.027L256.793 261.023Z" fill="white"/>
</mask>
<g mask="url(#mask2_2831_16043)">
<path d="M240.264 232.985C241.27 233.148 242.238 232.339 242.426 231.179C242.614 230.018 241.952 228.945 240.946 228.782C239.94 228.619 238.972 229.427 238.784 230.588C238.595 231.748 239.258 232.821 240.264 232.985Z" fill="#F29111"/>
<path d="M239.404 238.25C240.41 238.414 241.378 237.605 241.567 236.445C241.755 235.284 241.093 234.211 240.087 234.048C239.081 233.884 238.113 234.693 237.924 235.853C237.736 237.014 238.399 238.087 239.404 238.25Z" fill="#F29111"/>
<path d="M238.553 243.514C239.559 243.677 240.527 242.869 240.715 241.708C240.904 240.548 240.241 239.475 239.235 239.311C238.229 239.148 237.261 239.956 237.073 241.117C236.885 242.277 237.547 243.351 238.553 243.514Z" fill="#F29111"/>
<path d="M237.701 248.782C238.707 248.945 239.675 248.136 239.864 246.976C240.052 245.815 239.389 244.742 238.384 244.579C237.378 244.416 236.41 245.224 236.221 246.385C236.033 247.545 236.696 248.618 237.701 248.782Z" fill="#F29111"/>
<path d="M256.141 233.443C256.338 232.283 255.684 231.203 254.68 231.03C253.676 230.857 252.702 231.656 252.505 232.815C252.308 233.974 252.962 235.054 253.967 235.228C254.971 235.401 255.944 234.602 256.141 233.443Z" fill="#F29111"/>
<path d="M255.29 238.708C255.487 237.549 254.833 236.469 253.828 236.296C252.824 236.123 251.851 236.922 251.654 238.081C251.457 239.24 252.111 240.32 253.115 240.493C254.119 240.666 255.093 239.867 255.29 238.708Z" fill="#F29111"/>
<path d="M254.43 243.97C254.627 242.811 253.973 241.731 252.969 241.558C251.965 241.384 250.991 242.184 250.794 243.343C250.597 244.502 251.251 245.582 252.256 245.755C253.26 245.928 254.233 245.129 254.43 243.97Z" fill="#F29111"/>
<path d="M251.397 251.004C252.402 251.167 253.37 250.359 253.559 249.198C253.747 248.038 253.085 246.965 252.079 246.802C251.073 246.638 250.105 247.447 249.917 248.607C249.728 249.768 250.391 250.841 251.397 251.004Z" fill="#F29111"/>
<path d="M268.483 232.164C269.488 232.328 270.456 231.519 270.645 230.359C270.833 229.198 270.171 228.125 269.165 227.962C268.159 227.798 267.191 228.607 267.003 229.767C266.814 230.928 267.477 232.001 268.483 232.164Z" fill="#F29111"/>
<path d="M267.631 237.428C268.637 237.591 269.605 236.783 269.793 235.622C269.982 234.462 269.319 233.389 268.313 233.225C267.308 233.062 266.339 233.87 266.151 235.031C265.963 236.192 266.625 237.265 267.631 237.428Z" fill="#F29111"/>
<path d="M266.779 242.694C267.785 242.857 268.753 242.048 268.942 240.888C269.13 239.727 268.468 238.654 267.462 238.491C266.456 238.328 265.488 239.136 265.299 240.297C265.111 241.457 265.774 242.53 266.779 242.694Z" fill="#F29111"/>
<path d="M265.92 247.957C266.926 248.121 267.894 247.312 268.082 246.152C268.271 244.991 267.608 243.918 266.602 243.755C265.597 243.591 264.629 244.4 264.44 245.56C264.252 246.721 264.914 247.794 265.92 247.957Z" fill="#F29111"/>
<path d="M265.069 253.225C266.074 253.388 267.042 252.58 267.231 251.419C267.419 250.259 266.757 249.185 265.751 249.022C264.745 248.859 263.777 249.667 263.589 250.828C263.4 251.988 264.063 253.062 265.069 253.225Z" fill="#F29111"/>
<path d="M282.186 234.389C283.191 234.552 284.16 233.744 284.348 232.583C284.536 231.423 283.874 230.35 282.868 230.186C281.862 230.023 280.894 230.831 280.706 231.992C280.517 233.152 281.18 234.226 282.186 234.389Z" fill="#F29111"/>
<path d="M281.334 239.651C282.34 239.814 283.308 239.005 283.496 237.845C283.685 236.684 283.022 235.611 282.016 235.448C281.011 235.285 280.043 236.093 279.854 237.254C279.666 238.414 280.328 239.487 281.334 239.651Z" fill="#F29111"/>
<path d="M280.475 244.918C281.481 245.082 282.449 244.273 282.637 243.113C282.825 241.952 282.163 240.879 281.157 240.716C280.151 240.552 279.183 241.361 278.995 242.521C278.806 243.682 279.469 244.755 280.475 244.918Z" fill="#F29111"/>
<path d="M279.623 250.182C280.629 250.345 281.597 249.537 281.785 248.376C281.974 247.216 281.311 246.143 280.305 245.979C279.3 245.816 278.332 246.624 278.143 247.785C277.955 248.945 278.617 250.019 279.623 250.182Z" fill="#F29111"/>
<path d="M278.764 255.448C279.77 255.611 280.738 254.802 280.926 253.642C281.114 252.481 280.452 251.408 279.446 251.245C278.44 251.082 277.472 251.89 277.284 253.051C277.095 254.211 277.758 255.284 278.764 255.448Z" fill="#F29111"/>
<path d="M244.819 233.723C245.824 233.886 246.792 233.078 246.981 231.917C247.169 230.757 246.507 229.684 245.501 229.52C244.495 229.357 243.527 230.165 243.339 231.326C243.15 232.486 243.813 233.56 244.819 233.723Z" fill="#F29111"/>
<path d="M243.959 238.99C244.965 239.154 245.933 238.345 246.121 237.185C246.31 236.024 245.647 234.951 244.641 234.788C243.636 234.625 242.668 235.433 242.479 236.593C242.291 237.754 242.953 238.827 243.959 238.99Z" fill="#F29111"/>
<path d="M243.108 244.254C244.113 244.417 245.081 243.609 245.27 242.448C245.458 241.288 244.796 240.215 243.79 240.052C242.784 239.888 241.816 240.697 241.628 241.857C241.439 243.018 242.102 244.091 243.108 244.254Z" fill="#F29111"/>
<path d="M242.248 249.52C243.254 249.683 244.222 248.875 244.41 247.714C244.599 246.554 243.936 245.48 242.93 245.317C241.925 245.154 240.957 245.962 240.768 247.123C240.58 248.283 241.242 249.357 242.248 249.52Z" fill="#F29111"/>
<path d="M258.506 235.946C259.512 236.109 260.48 235.3 260.668 234.14C260.857 232.979 260.194 231.906 259.188 231.743C258.183 231.58 257.214 232.388 257.026 233.549C256.838 234.709 257.5 235.782 258.506 235.946Z" fill="#F29111"/>
<path d="M257.647 241.213C258.652 241.376 259.62 240.568 259.809 239.407C259.997 238.247 259.335 237.174 258.329 237.01C257.323 236.847 256.355 237.656 256.167 238.816C255.978 239.977 256.641 241.05 257.647 241.213Z" fill="#F29111"/>
<path d="M256.795 246.475C257.801 246.638 258.769 245.83 258.957 244.669C259.146 243.509 258.483 242.435 257.477 242.272C256.472 242.109 255.504 242.917 255.315 244.078C255.127 245.238 255.789 246.312 256.795 246.475Z" fill="#F29111"/>
<path d="M255.944 251.742C256.949 251.906 257.917 251.097 258.106 249.937C258.294 248.776 257.632 247.703 256.626 247.54C255.62 247.377 254.652 248.185 254.464 249.345C254.275 250.506 254.938 251.579 255.944 251.742Z" fill="#F29111"/>
<path d="M273.061 232.907C274.066 233.07 275.035 232.261 275.223 231.101C275.411 229.94 274.749 228.867 273.743 228.704C272.737 228.541 271.769 229.349 271.581 230.51C271.392 231.67 272.055 232.743 273.061 232.907Z" fill="#F29111"/>
<path d="M272.201 238.17C273.207 238.333 274.175 237.525 274.364 236.364C274.552 235.204 273.889 234.131 272.884 233.968C271.878 233.804 270.91 234.613 270.721 235.773C270.533 236.934 271.196 238.007 272.201 238.17Z" fill="#F29111"/>
<path d="M271.35 243.436C272.356 243.599 273.324 242.791 273.512 241.63C273.7 240.47 273.038 239.396 272.032 239.233C271.026 239.07 270.058 239.878 269.87 241.039C269.681 242.199 270.344 243.273 271.35 243.436Z" fill="#F29111"/>
<path d="M270.498 248.699C271.504 248.863 272.472 248.054 272.66 246.894C272.849 245.733 272.186 244.66 271.18 244.497C270.175 244.334 269.207 245.142 269.018 246.302C268.83 247.463 269.492 248.536 270.498 248.699Z" fill="#F29111"/>
<path d="M269.639 253.967C270.645 254.13 271.613 253.322 271.801 252.161C271.989 251.001 271.327 249.928 270.321 249.764C269.315 249.601 268.347 250.41 268.159 251.57C267.97 252.731 268.633 253.804 269.639 253.967Z" fill="#F29111"/>
<path d="M249.381 234.463C250.387 234.626 251.355 233.818 251.543 232.657C251.732 231.497 251.069 230.424 250.063 230.26C249.058 230.097 248.089 230.906 247.901 232.066C247.713 233.227 248.375 234.3 249.381 234.463Z" fill="#F29111"/>
<path d="M248.522 239.731C249.527 239.894 250.495 239.086 250.684 237.925C250.872 236.764 250.21 235.691 249.204 235.528C248.198 235.365 247.23 236.173 247.042 237.334C246.853 238.494 247.516 239.567 248.522 239.731Z" fill="#F29111"/>
<path d="M247.67 244.994C248.676 245.158 249.644 244.349 249.832 243.189C250.021 242.028 249.358 240.955 248.352 240.792C247.347 240.628 246.379 241.437 246.19 242.597C246.002 243.758 246.664 244.831 247.67 244.994Z" fill="#F29111"/>
<path d="M246.819 250.262C247.824 250.425 248.792 249.617 248.981 248.456C249.169 247.296 248.507 246.223 247.501 246.059C246.495 245.896 245.527 246.704 245.339 247.865C245.15 249.026 245.813 250.099 246.819 250.262Z" fill="#F29111"/>
<path d="M263.92 231.424C264.926 231.587 265.894 230.779 266.082 229.618C266.271 228.458 265.608 227.385 264.602 227.221C263.597 227.058 262.629 227.867 262.44 229.027C262.252 230.188 262.914 231.261 263.92 231.424Z" fill="#F29111"/>
<path d="M263.069 236.686C264.074 236.849 265.042 236.041 265.231 234.88C265.419 233.72 264.757 232.646 263.751 232.483C262.745 232.32 261.777 233.128 261.589 234.289C261.4 235.449 262.063 236.523 263.069 236.686Z" fill="#F29111"/>
<path d="M262.217 241.953C263.223 242.117 264.191 241.308 264.379 240.148C264.568 238.987 263.905 237.914 262.899 237.751C261.893 237.587 260.925 238.396 260.737 239.556C260.549 240.717 261.211 241.79 262.217 241.953Z" fill="#F29111"/>
<path d="M261.358 247.217C262.363 247.38 263.331 246.572 263.52 245.411C263.708 244.251 263.046 243.178 262.04 243.014C261.034 242.851 260.066 243.66 259.878 244.82C259.689 245.981 260.352 247.054 261.358 247.217Z" fill="#F29111"/>
<path d="M260.506 252.483C261.512 252.646 262.48 251.838 262.668 250.677C262.857 249.516 262.194 248.443 261.188 248.28C260.183 248.117 259.214 248.925 259.026 250.086C258.838 251.246 259.5 252.319 260.506 252.483Z" fill="#F29111"/>
<path d="M277.623 233.647C278.629 233.81 279.597 233.002 279.785 231.841C279.974 230.681 279.311 229.607 278.305 229.444C277.3 229.281 276.332 230.089 276.143 231.25C275.955 232.41 276.617 233.483 277.623 233.647Z" fill="#F29111"/>
<path d="M276.764 238.91C277.77 239.074 278.738 238.265 278.926 237.105C279.114 235.944 278.452 234.871 277.446 234.708C276.44 234.544 275.472 235.353 275.284 236.513C275.095 237.674 275.758 238.747 276.764 238.91Z" fill="#F29111"/>
<path d="M275.912 244.178C276.918 244.341 277.886 243.533 278.075 242.372C278.263 241.212 277.6 240.139 276.595 239.975C275.589 239.812 274.621 240.62 274.432 241.781C274.244 242.942 274.907 244.015 275.912 244.178Z" fill="#F29111"/>
<path d="M275.061 249.44C276.066 249.603 277.035 248.795 277.223 247.634C277.411 246.473 276.749 245.4 275.743 245.237C274.737 245.074 273.769 245.882 273.581 247.043C273.392 248.203 274.055 249.276 275.061 249.44Z" fill="#F29111"/>
<path d="M274.201 254.707C275.207 254.871 276.175 254.062 276.364 252.902C276.552 251.741 275.889 250.668 274.884 250.505C273.878 250.341 272.91 251.15 272.721 252.31C272.533 253.471 273.196 254.544 274.201 254.707Z" fill="#F29111"/>
<path d="M236.842 254.043C237.848 254.207 238.816 253.398 239.004 252.238C239.193 251.077 238.53 250.004 237.524 249.841C236.518 249.677 235.55 250.486 235.362 251.646C235.174 252.807 235.836 253.88 236.842 254.043Z" fill="#F29111"/>
<path d="M235.99 259.285C236.996 259.449 237.964 258.64 238.153 257.48C238.341 256.319 237.678 255.246 236.673 255.083C235.667 254.919 234.699 255.728 234.51 256.888C234.322 258.049 234.985 259.122 235.99 259.285Z" fill="#F29111"/>
<path d="M252.72 254.501C252.917 253.342 252.262 252.262 251.258 252.089C250.254 251.916 249.28 252.715 249.083 253.874C248.886 255.033 249.541 256.113 250.545 256.286C251.549 256.459 252.523 255.66 252.72 254.501Z" fill="#F29111"/>
<path d="M251.86 259.765C252.057 258.606 251.403 257.526 250.399 257.352C249.395 257.179 248.421 257.979 248.224 259.138C248.027 260.297 248.681 261.377 249.685 261.55C250.689 261.723 251.663 260.924 251.86 259.765Z" fill="#F29111"/>
<path d="M264.209 258.487C265.215 258.65 266.183 257.841 266.371 256.681C266.56 255.52 265.897 254.447 264.891 254.284C263.886 254.121 262.918 254.929 262.729 256.09C262.541 257.25 263.203 258.323 264.209 258.487Z" fill="#F29111"/>
<path d="M263.365 263.729C264.371 263.892 265.339 263.084 265.528 261.923C265.716 260.763 265.053 259.689 264.048 259.526C263.042 259.363 262.074 260.171 261.885 261.332C261.697 262.492 262.36 263.565 263.365 263.729Z" fill="#F29111"/>
<path d="M277.912 260.711C278.918 260.874 279.886 260.066 280.075 258.906C280.263 257.745 279.6 256.672 278.595 256.509C277.589 256.345 276.621 257.154 276.432 258.314C276.244 259.475 276.907 260.548 277.912 260.711Z" fill="#F29111"/>
<path d="M241.397 254.783C242.402 254.947 243.37 254.138 243.559 252.978C243.747 251.817 243.085 250.744 242.079 250.581C241.073 250.418 240.105 251.226 239.917 252.387C239.728 253.547 240.391 254.62 241.397 254.783Z" fill="#F29111"/>
<path d="M240.545 260.026C241.551 260.189 242.519 259.38 242.707 258.22C242.896 257.059 242.233 255.986 241.227 255.823C240.222 255.66 239.254 256.468 239.065 257.629C238.877 258.789 239.539 259.862 240.545 260.026Z" fill="#F29111"/>
<path d="M255.084 257.006C256.09 257.169 257.058 256.361 257.246 255.2C257.435 254.04 256.772 252.967 255.766 252.803C254.761 252.64 253.793 253.449 253.604 254.609C253.416 255.77 254.078 256.843 255.084 257.006Z" fill="#F29111"/>
<path d="M254.233 262.248C255.238 262.412 256.206 261.603 256.395 260.443C256.583 259.282 255.921 258.209 254.915 258.046C253.909 257.882 252.941 258.691 252.753 259.851C252.564 261.012 253.227 262.085 254.233 262.248Z" fill="#F29111"/>
<path d="M268.787 259.229C269.793 259.392 270.761 258.584 270.95 257.423C271.138 256.263 270.475 255.189 269.47 255.026C268.464 254.863 267.496 255.671 267.307 256.832C267.119 257.992 267.782 259.065 268.787 259.229Z" fill="#F29111"/>
<path d="M267.936 264.471C268.941 264.634 269.91 263.826 270.098 262.665C270.286 261.505 269.624 260.432 268.618 260.268C267.612 260.105 266.644 260.913 266.456 262.074C266.267 263.234 266.93 264.308 267.936 264.471Z" fill="#F29111"/>
<path d="M245.959 255.524C246.965 255.687 247.933 254.879 248.121 253.718C248.31 252.557 247.647 251.484 246.641 251.321C245.636 251.158 244.668 251.966 244.479 253.127C244.291 254.287 244.953 255.36 245.959 255.524Z" fill="#F29111"/>
<path d="M245.108 260.766C246.113 260.929 247.081 260.121 247.27 258.96C247.458 257.8 246.796 256.727 245.79 256.563C244.784 256.4 243.816 257.208 243.628 258.369C243.439 259.529 244.102 260.603 245.108 260.766Z" fill="#F29111"/>
<path d="M259.647 257.746C260.652 257.91 261.62 257.101 261.809 255.941C261.997 254.78 261.335 253.707 260.329 253.544C259.323 253.38 258.355 254.189 258.167 255.349C257.978 256.51 258.641 257.583 259.647 257.746Z" fill="#F29111"/>
<path d="M258.795 262.989C259.801 263.152 260.769 262.343 260.957 261.183C261.146 260.022 260.483 258.949 259.477 258.786C258.472 258.623 257.504 259.431 257.315 260.592C257.127 261.752 257.789 262.825 258.795 262.989Z" fill="#F29111"/>
<path d="M273.35 259.971C274.356 260.134 275.324 259.326 275.512 258.165C275.7 257.005 275.038 255.932 274.032 255.768C273.026 255.605 272.058 256.413 271.87 257.574C271.681 258.735 272.344 259.808 273.35 259.971Z" fill="#F29111"/>
<path d="M272.498 265.213C273.504 265.376 274.472 264.568 274.66 263.407C274.849 262.247 274.186 261.174 273.18 261.01C272.175 260.847 271.207 261.656 271.018 262.816C270.83 263.977 271.492 265.05 272.498 265.213Z" fill="#F29111"/>
</g>
<g opacity="0.2">
<mask id="mask3_2831_16043" style="mask-type:luminance" maskUnits="userSpaceOnUse" x="179" y="223" width="38" height="30">
<path d="M194.172 252.301C204.088 253.805 213.926 243.234 216.136 228.659L180.219 223.213C178.012 237.765 184.255 250.798 194.187 252.304L194.172 252.301Z" fill="white"/>
</mask>
<g mask="url(#mask3_2831_16043)">
<path d="M181.726 225.081C182.518 225.201 183.303 224.356 183.479 223.194C183.655 222.032 183.156 220.992 182.364 220.872C181.572 220.752 180.787 221.597 180.611 222.759C180.434 223.922 180.933 224.961 181.726 225.081Z" fill="#F29111"/>
<path d="M180.929 230.359C181.721 230.479 182.506 229.634 182.682 228.471C182.858 227.309 182.359 226.269 181.567 226.149C180.775 226.029 179.99 226.874 179.814 228.036C179.637 229.199 180.137 230.239 180.929 230.359Z" fill="#F29111"/>
<path d="M180.124 235.63C180.916 235.75 181.701 234.905 181.877 233.743C182.054 232.58 181.554 231.541 180.762 231.421C179.97 231.3 179.185 232.145 179.009 233.308C178.833 234.47 179.332 235.51 180.124 235.63Z" fill="#F29111"/>
<path d="M179.327 240.904C180.119 241.024 180.904 240.179 181.081 239.016C181.257 237.854 180.758 236.814 179.965 236.694C179.173 236.574 178.388 237.419 178.212 238.581C178.036 239.744 178.535 240.783 179.327 240.904Z" fill="#F29111"/>
<path d="M194.257 224.878C194.44 223.717 193.947 222.67 193.157 222.54C192.366 222.41 191.577 223.246 191.394 224.407C191.211 225.568 191.703 226.615 192.494 226.745C193.285 226.875 194.074 226.039 194.257 224.878Z" fill="#F29111"/>
<path d="M193.452 230.151C193.635 228.99 193.143 227.943 192.352 227.813C191.562 227.683 190.772 228.519 190.589 229.68C190.406 230.842 190.899 231.889 191.689 232.019C192.48 232.149 193.269 231.313 193.452 230.151Z" fill="#F29111"/>
<path d="M192.655 235.427C192.838 234.265 192.346 233.218 191.555 233.088C190.765 232.958 189.975 233.794 189.792 234.956C189.609 236.117 190.102 237.164 190.892 237.294C191.683 237.424 192.472 236.588 192.655 235.427Z" fill="#F29111"/>
<path d="M190.108 242.54C190.9 242.66 191.686 241.815 191.862 240.653C192.038 239.491 191.539 238.451 190.747 238.331C189.955 238.211 189.17 239.056 188.993 240.218C188.817 241.381 189.316 242.42 190.108 242.54Z" fill="#F29111"/>
<path d="M204.062 223.099C204.854 223.219 205.639 222.374 205.815 221.212C205.991 220.049 205.492 219.009 204.7 218.889C203.908 218.769 203.123 219.614 202.946 220.777C202.77 221.939 203.269 222.979 204.062 223.099Z" fill="#F29111"/>
<path d="M203.265 228.347C204.057 228.467 204.842 227.622 205.018 226.46C205.194 225.297 204.695 224.258 203.903 224.137C203.111 224.017 202.326 224.862 202.15 226.025C201.973 227.187 202.473 228.227 203.265 228.347Z" fill="#F29111"/>
<path d="M202.468 233.624C203.26 233.744 204.045 232.899 204.221 231.737C204.397 230.575 203.898 229.535 203.106 229.415C202.314 229.295 201.529 230.14 201.353 231.302C201.176 232.464 201.676 233.504 202.468 233.624Z" fill="#F29111"/>
<path d="M201.671 238.898C202.463 239.018 203.248 238.173 203.424 237.01C203.601 235.848 203.101 234.808 202.309 234.688C201.517 234.568 200.732 235.413 200.556 236.575C200.38 237.738 200.879 238.778 201.671 238.898Z" fill="#F29111"/>
<path d="M200.866 244.171C201.658 244.291 202.443 243.446 202.62 242.284C202.796 241.121 202.297 240.082 201.505 239.962C200.712 239.842 199.927 240.686 199.751 241.849C199.575 243.011 200.074 244.051 200.866 244.171Z" fill="#F29111"/>
<path d="M214.843 224.734C215.635 224.854 216.42 224.009 216.596 222.846C216.772 221.684 216.273 220.644 215.481 220.524C214.689 220.404 213.904 221.249 213.728 222.411C213.551 223.574 214.051 224.614 214.843 224.734Z" fill="#F29111"/>
<path d="M214.046 229.982C214.838 230.102 215.623 229.257 215.799 228.094C215.976 226.932 215.476 225.892 214.684 225.772C213.892 225.652 213.107 226.497 212.931 227.659C212.755 228.822 213.254 229.862 214.046 229.982Z" fill="#F29111"/>
<path d="M213.241 235.259C214.033 235.379 214.818 234.534 214.995 233.372C215.171 232.209 214.672 231.17 213.88 231.05C213.087 230.929 212.302 231.774 212.126 232.937C211.95 234.099 212.449 235.139 213.241 235.259Z" fill="#F29111"/>
<path d="M212.444 240.531C213.236 240.651 214.021 239.806 214.198 238.643C214.374 237.481 213.875 236.441 213.083 236.321C212.291 236.201 211.506 237.046 211.329 238.208C211.153 239.371 211.652 240.41 212.444 240.531Z" fill="#F29111"/>
<path d="M211.647 245.806C212.44 245.926 213.225 245.081 213.401 243.919C213.577 242.756 213.078 241.717 212.286 241.596C211.494 241.476 210.709 242.321 210.532 243.484C210.356 244.646 210.855 245.686 211.647 245.806Z" fill="#F29111"/>
<path d="M185.312 225.624C186.104 225.744 186.889 224.899 187.065 223.737C187.241 222.575 186.742 221.535 185.95 221.415C185.158 221.295 184.373 222.14 184.196 223.302C184.02 224.464 184.519 225.504 185.312 225.624Z" fill="#F29111"/>
<path d="M184.507 230.902C185.299 231.022 186.084 230.177 186.26 229.014C186.436 227.852 185.937 226.812 185.145 226.692C184.353 226.572 183.568 227.417 183.392 228.579C183.215 229.742 183.715 230.782 184.507 230.902Z" fill="#F29111"/>
<path d="M183.71 236.175C184.502 236.295 185.287 235.45 185.463 234.288C185.64 233.125 185.14 232.086 184.348 231.966C183.556 231.845 182.771 232.69 182.595 233.853C182.419 235.015 182.918 236.055 183.71 236.175Z" fill="#F29111"/>
<path d="M182.913 241.449C183.705 241.569 184.49 240.724 184.666 239.561C184.843 238.399 184.344 237.359 183.551 237.239C182.759 237.119 181.974 237.964 181.798 239.126C181.622 240.289 182.121 241.328 182.913 241.449Z" fill="#F29111"/>
<path d="M196.093 227.261C196.885 227.381 197.67 226.536 197.846 225.374C198.022 224.211 197.523 223.172 196.731 223.051C195.939 222.931 195.154 223.776 194.978 224.939C194.801 226.101 195.301 227.141 196.093 227.261Z" fill="#F29111"/>
<path d="M195.288 232.538C196.08 232.658 196.865 231.814 197.041 230.651C197.218 229.489 196.719 228.449 195.926 228.329C195.134 228.209 194.349 229.054 194.173 230.216C193.997 231.379 194.496 232.418 195.288 232.538Z" fill="#F29111"/>
<path d="M194.491 237.81C195.283 237.93 196.068 237.085 196.245 235.923C196.421 234.76 195.922 233.72 195.13 233.6C194.337 233.48 193.552 234.325 193.376 235.488C193.2 236.65 193.699 237.69 194.491 237.81Z" fill="#F29111"/>
<path d="M193.694 243.083C194.486 243.203 195.271 242.358 195.448 241.196C195.624 240.034 195.125 238.994 194.333 238.874C193.541 238.754 192.756 239.599 192.579 240.761C192.403 241.923 192.902 242.963 193.694 243.083Z" fill="#F29111"/>
<path d="M207.647 223.644C208.44 223.764 209.225 222.919 209.401 221.757C209.577 220.594 209.078 219.554 208.286 219.434C207.494 219.314 206.709 220.159 206.532 221.322C206.356 222.484 206.855 223.524 207.647 223.644Z" fill="#F29111"/>
<path d="M206.851 228.892C207.643 229.012 208.428 228.167 208.604 227.005C208.78 225.842 208.281 224.802 207.489 224.682C206.697 224.562 205.912 225.407 205.736 226.57C205.559 227.732 206.058 228.772 206.851 228.892Z" fill="#F29111"/>
<path d="M206.054 234.169C206.846 234.289 207.631 233.444 207.807 232.282C207.983 231.12 207.484 230.08 206.692 229.96C205.9 229.84 205.115 230.685 204.939 231.847C204.762 233.009 205.262 234.049 206.054 234.169Z" fill="#F29111"/>
<path d="M205.257 239.441C206.049 239.561 206.834 238.716 207.01 237.553C207.186 236.391 206.687 235.351 205.895 235.231C205.103 235.111 204.318 235.956 204.142 237.118C203.965 238.281 204.465 239.321 205.257 239.441Z" fill="#F29111"/>
<path d="M204.452 244.714C205.244 244.834 206.029 243.989 206.206 242.827C206.382 241.664 205.883 240.625 205.09 240.505C204.298 240.384 203.513 241.229 203.337 242.392C203.161 243.554 203.66 244.594 204.452 244.714Z" fill="#F29111"/>
<path d="M188.905 226.169C189.697 226.289 190.482 225.444 190.659 224.282C190.835 223.12 190.336 222.08 189.544 221.96C188.751 221.84 187.966 222.685 187.79 223.847C187.614 225.009 188.113 226.049 188.905 226.169Z" fill="#F29111"/>
<path d="M188.108 231.447C188.9 231.567 189.686 230.722 189.862 229.559C190.038 228.397 189.539 227.357 188.747 227.237C187.955 227.117 187.17 227.962 186.993 229.124C186.817 230.287 187.316 231.326 188.108 231.447Z" fill="#F29111"/>
<path d="M187.304 236.72C188.096 236.84 188.881 235.995 189.057 234.833C189.233 233.67 188.734 232.631 187.942 232.51C187.15 232.39 186.365 233.235 186.189 234.398C186.012 235.56 186.512 236.6 187.304 236.72Z" fill="#F29111"/>
<path d="M186.507 241.993C187.299 242.114 188.084 241.269 188.26 240.106C188.436 238.944 187.937 237.904 187.145 237.784C186.353 237.664 185.568 238.509 185.392 239.671C185.215 240.834 185.715 241.873 186.507 241.993Z" fill="#F29111"/>
<path d="M199.679 227.804C200.471 227.924 201.256 227.079 201.432 225.917C201.608 224.754 201.109 223.715 200.317 223.594C199.525 223.474 198.74 224.319 198.564 225.482C198.387 226.644 198.887 227.684 199.679 227.804Z" fill="#F29111"/>
<path d="M198.882 233.081C199.674 233.201 200.459 232.356 200.635 231.194C200.811 230.032 200.312 228.992 199.52 228.872C198.728 228.752 197.943 229.597 197.767 230.759C197.59 231.922 198.09 232.961 198.882 233.081Z" fill="#F29111"/>
<path d="M198.085 238.353C198.877 238.473 199.662 237.628 199.838 236.466C200.015 235.303 199.515 234.263 198.723 234.143C197.931 234.023 197.146 234.868 196.97 236.031C196.794 237.193 197.293 238.233 198.085 238.353Z" fill="#F29111"/>
<path d="M197.28 243.628C198.072 243.748 198.857 242.903 199.034 241.741C199.21 240.579 198.711 239.539 197.919 239.419C197.127 239.299 196.341 240.144 196.165 241.306C195.989 242.468 196.488 243.508 197.28 243.628Z" fill="#F29111"/>
<path d="M211.257 224.191C212.049 224.311 212.834 223.466 213.01 222.303C213.186 221.141 212.687 220.101 211.895 219.981C211.103 219.861 210.318 220.706 210.142 221.868C209.966 223.031 210.465 224.071 211.257 224.191Z" fill="#F29111"/>
<path d="M210.46 229.439C211.252 229.559 212.037 228.714 212.213 227.551C212.39 226.389 211.89 225.349 211.098 225.229C210.306 225.109 209.521 225.954 209.345 227.117C209.169 228.279 209.668 229.319 210.46 229.439Z" fill="#F29111"/>
<path d="M209.655 234.716C210.447 234.836 211.232 233.991 211.409 232.829C211.585 231.666 211.086 230.627 210.294 230.507C209.501 230.386 208.716 231.231 208.54 232.394C208.364 233.556 208.863 234.596 209.655 234.716Z" fill="#F29111"/>
<path d="M208.858 239.988C209.65 240.108 210.436 239.263 210.612 238.1C210.788 236.938 210.289 235.898 209.497 235.778C208.705 235.658 207.92 236.503 207.743 237.665C207.567 238.828 208.066 239.867 208.858 239.988Z" fill="#F29111"/>
<path d="M208.062 245.261C208.854 245.381 209.639 244.536 209.815 243.374C209.991 242.211 209.492 241.172 208.7 241.051C207.908 240.931 207.123 241.776 206.946 242.939C206.77 244.101 207.269 245.141 208.062 245.261Z" fill="#F29111"/>
<path d="M178.53 246.175C179.322 246.295 180.107 245.45 180.284 244.288C180.46 243.125 179.961 242.086 179.169 241.966C178.377 241.845 177.591 242.69 177.415 243.853C177.239 245.015 177.738 246.055 178.53 246.175Z" fill="#F29111"/>
<path d="M177.726 251.449C178.518 251.569 179.303 250.724 179.479 249.561C179.655 248.399 179.156 247.359 178.364 247.239C177.572 247.119 176.787 247.964 176.611 249.126C176.434 250.289 176.933 251.328 177.726 251.449Z" fill="#F29111"/>
<path d="M191.054 245.974C191.237 244.812 190.744 243.765 189.954 243.635C189.163 243.505 188.374 244.341 188.191 245.503C188.008 246.664 188.5 247.711 189.291 247.841C190.081 247.971 190.871 247.135 191.054 245.974Z" fill="#F29111"/>
<path d="M190.257 251.245C190.44 250.084 189.947 249.037 189.157 248.907C188.366 248.777 187.577 249.613 187.394 250.774C187.211 251.935 187.703 252.982 188.494 253.112C189.284 253.242 190.074 252.406 190.257 251.245Z" fill="#F29111"/>
<path d="M200.069 249.443C200.861 249.563 201.646 248.718 201.823 247.555C201.999 246.393 201.5 245.353 200.708 245.233C199.916 245.113 199.131 245.958 198.954 247.12C198.778 248.283 199.277 249.323 200.069 249.443Z" fill="#F29111"/>
<path d="M199.272 254.716C200.065 254.836 200.85 253.991 201.026 252.829C201.202 251.666 200.703 250.627 199.911 250.507C199.119 250.386 198.334 251.231 198.157 252.394C197.981 253.556 198.48 254.596 199.272 254.716Z" fill="#F29111"/>
<path d="M210.843 251.077C211.635 251.198 212.42 250.353 212.596 249.19C212.772 248.028 212.273 246.988 211.481 246.868C210.689 246.748 209.904 247.593 209.728 248.755C209.551 249.918 210.051 250.957 210.843 251.077Z" fill="#F29111"/>
<path d="M210.046 256.351C210.838 256.471 211.623 255.626 211.799 254.464C211.976 253.301 211.476 252.261 210.684 252.141C209.892 252.021 209.107 252.866 208.931 254.029C208.755 255.191 209.254 256.231 210.046 256.351Z" fill="#F29111"/>
<path d="M182.108 246.72C182.9 246.84 183.686 245.995 183.862 244.833C184.038 243.67 183.539 242.631 182.747 242.51C181.955 242.39 181.17 243.235 180.993 244.398C180.817 245.56 181.316 246.6 182.108 246.72Z" fill="#F29111"/>
<path d="M181.312 251.993C182.104 252.114 182.889 251.269 183.065 250.106C183.241 248.944 182.742 247.904 181.95 247.784C181.158 247.664 180.373 248.509 180.196 249.671C180.02 250.834 180.519 251.873 181.312 251.993Z" fill="#F29111"/>
<path d="M192.89 248.355C193.682 248.475 194.467 247.63 194.643 246.467C194.819 245.305 194.32 244.265 193.528 244.145C192.736 244.025 191.951 244.87 191.775 246.032C191.598 247.195 192.098 248.235 192.89 248.355Z" fill="#F29111"/>
<path d="M192.093 253.628C192.885 253.748 193.67 252.903 193.846 251.741C194.022 250.578 193.523 249.539 192.731 249.419C191.939 249.299 191.154 250.143 190.978 251.306C190.801 252.468 191.301 253.508 192.093 253.628Z" fill="#F29111"/>
<path d="M203.655 249.988C204.447 250.108 205.232 249.263 205.409 248.1C205.585 246.938 205.086 245.898 204.294 245.778C203.501 245.658 202.716 246.503 202.54 247.665C202.364 248.828 202.863 249.867 203.655 249.988Z" fill="#F29111"/>
<path d="M202.858 255.261C203.65 255.381 204.436 254.536 204.612 253.374C204.788 252.211 204.289 251.172 203.497 251.051C202.705 250.931 201.92 251.776 201.743 252.939C201.567 254.101 202.066 255.141 202.858 255.261Z" fill="#F29111"/>
<path d="M185.71 247.265C186.502 247.385 187.287 246.54 187.463 245.378C187.64 244.215 187.14 243.175 186.348 243.055C185.556 242.935 184.771 243.78 184.595 244.943C184.419 246.105 184.918 247.145 185.71 247.265Z" fill="#F29111"/>
<path d="M184.905 252.538C185.697 252.658 186.482 251.813 186.659 250.651C186.835 249.489 186.336 248.449 185.544 248.329C184.751 248.209 183.966 249.054 183.79 250.216C183.614 251.379 184.113 252.418 184.905 252.538Z" fill="#F29111"/>
<path d="M196.483 248.9C197.276 249.02 198.061 248.175 198.237 247.012C198.413 245.85 197.914 244.81 197.122 244.69C196.33 244.57 195.545 245.415 195.368 246.577C195.192 247.74 195.691 248.78 196.483 248.9Z" fill="#F29111"/>
<path d="M195.687 254.173C196.479 254.293 197.264 253.448 197.44 252.286C197.616 251.123 197.117 250.084 196.325 249.964C195.533 249.843 194.748 250.688 194.571 251.851C194.395 253.013 194.894 254.053 195.687 254.173Z" fill="#F29111"/>
<path d="M207.257 250.533C208.049 250.653 208.834 249.808 209.01 248.645C209.186 247.483 208.687 246.443 207.895 246.323C207.103 246.203 206.318 247.048 206.142 248.21C205.966 249.373 206.465 250.412 207.257 250.533Z" fill="#F29111"/>
<path d="M206.46 255.808C207.252 255.928 208.037 255.083 208.213 253.921C208.39 252.758 207.89 251.718 207.098 251.598C206.306 251.478 205.521 252.323 205.345 253.486C205.169 254.648 205.668 255.688 206.46 255.808Z" fill="#F29111"/>
</g>
</g>
<mask id="mask4_2831_16043" style="mask-type:luminance" maskUnits="userSpaceOnUse" x="178" y="222" width="39" height="30">
<path d="M193.52 251.239C203.749 252.835 213.892 242.348 216.165 227.783L179.117 222C176.847 236.543 183.292 249.642 193.536 251.241L193.52 251.239Z" fill="white"/>
</mask>
<g mask="url(#mask4_2831_16043)">
<path d="M180.674 223.903C181.491 224.03 182.301 223.192 182.482 222.03C182.663 220.868 182.148 219.823 181.331 219.696C180.514 219.568 179.705 220.407 179.523 221.568C179.342 222.73 179.857 223.775 180.674 223.903Z" fill="#F29111"/>
<path d="M179.854 229.176C180.671 229.303 181.48 228.465 181.662 227.303C181.843 226.142 181.328 225.097 180.511 224.969C179.694 224.842 178.884 225.68 178.703 226.842C178.522 228.003 179.037 229.048 179.854 229.176Z" fill="#F29111"/>
<path d="M179.026 234.444C179.843 234.571 180.652 233.733 180.834 232.571C181.015 231.409 180.5 230.364 179.683 230.237C178.865 230.109 178.056 230.948 177.875 232.109C177.693 233.271 178.209 234.316 179.026 234.444Z" fill="#F29111"/>
<path d="M178.206 239.715C179.023 239.843 179.832 239.004 180.013 237.843C180.195 236.681 179.679 235.636 178.862 235.508C178.045 235.381 177.236 236.219 177.054 237.381C176.873 238.542 177.389 239.587 178.206 239.715Z" fill="#F29111"/>
<path d="M193.614 223.801C193.803 222.64 193.294 221.588 192.479 221.451C191.663 221.313 190.85 222.142 190.661 223.303C190.473 224.464 190.981 225.516 191.797 225.653C192.612 225.791 193.426 224.961 193.614 223.801Z" fill="#F29111"/>
<path d="M192.786 229.072C192.974 227.912 192.466 226.86 191.651 226.722C190.835 226.585 190.021 227.414 189.833 228.574C189.645 229.735 190.153 230.787 190.969 230.925C191.784 231.062 192.598 230.233 192.786 229.072Z" fill="#F29111"/>
<path d="M191.966 234.34C192.154 233.179 191.646 232.127 190.83 231.99C190.015 231.852 189.201 232.682 189.013 233.842C188.825 235.003 189.333 236.055 190.148 236.192C190.964 236.33 191.778 235.5 191.966 234.34Z" fill="#F29111"/>
<path d="M189.331 241.453C190.148 241.581 190.957 240.743 191.138 239.581C191.32 238.419 190.804 237.374 189.987 237.247C189.17 237.119 188.361 237.957 188.179 239.119C187.998 240.281 188.513 241.326 189.331 241.453Z" fill="#F29111"/>
<path d="M203.713 222.102C204.53 222.229 205.34 221.391 205.521 220.229C205.702 219.068 205.187 218.023 204.37 217.895C203.553 217.767 202.744 218.606 202.562 219.767C202.381 220.929 202.896 221.974 203.713 222.102Z" fill="#F29111"/>
<path d="M202.893 227.371C203.71 227.499 204.519 226.66 204.701 225.499C204.882 224.337 204.367 223.292 203.55 223.165C202.733 223.037 201.923 223.875 201.742 225.037C201.561 226.199 202.076 227.244 202.893 227.371Z" fill="#F29111"/>
<path d="M202.073 232.643C202.89 232.77 203.699 231.932 203.88 230.77C204.062 229.609 203.546 228.564 202.729 228.436C201.912 228.308 201.103 229.147 200.922 230.308C200.74 231.47 201.256 232.515 202.073 232.643Z" fill="#F29111"/>
<path d="M201.252 237.91C202.069 238.038 202.879 237.2 203.06 236.038C203.241 234.876 202.726 233.831 201.909 233.704C201.092 233.576 200.283 234.414 200.101 235.576C199.92 236.738 200.435 237.783 201.252 237.91Z" fill="#F29111"/>
<path d="M200.424 243.184C201.241 243.311 202.051 242.473 202.232 241.311C202.413 240.15 201.898 239.105 201.081 238.977C200.264 238.849 199.455 239.688 199.273 240.849C199.092 242.011 199.607 243.056 200.424 243.184Z" fill="#F29111"/>
<path d="M214.831 223.838C215.648 223.966 216.457 223.127 216.638 221.966C216.82 220.804 216.304 219.759 215.487 219.631C214.67 219.504 213.861 220.342 213.679 221.504C213.498 222.665 214.013 223.711 214.831 223.838Z" fill="#F29111"/>
<path d="M214.01 229.106C214.827 229.233 215.637 228.395 215.818 227.233C215.999 226.072 215.484 225.026 214.667 224.899C213.85 224.771 213.041 225.61 212.859 226.771C212.678 227.933 213.193 228.978 214.01 229.106Z" fill="#F29111"/>
<path d="M213.182 234.379C213.999 234.507 214.808 233.668 214.99 232.507C215.171 231.345 214.656 230.3 213.839 230.172C213.022 230.045 212.212 230.883 212.031 232.045C211.85 233.206 212.365 234.252 213.182 234.379Z" fill="#F29111"/>
<path d="M212.362 239.647C213.179 239.774 213.988 238.936 214.169 237.774C214.351 236.613 213.835 235.567 213.018 235.44C212.201 235.312 211.392 236.151 211.211 237.312C211.029 238.474 211.545 239.519 212.362 239.647Z" fill="#F29111"/>
<path d="M211.541 244.918C212.359 245.046 213.168 244.207 213.349 243.046C213.531 241.884 213.015 240.839 212.198 240.711C211.381 240.584 210.572 241.422 210.39 242.584C210.209 243.746 210.724 244.791 211.541 244.918Z" fill="#F29111"/>
<path d="M184.37 224.481C185.187 224.608 185.996 223.77 186.177 222.608C186.359 221.447 185.843 220.401 185.026 220.274C184.209 220.146 183.4 220.985 183.219 222.146C183.037 223.308 183.553 224.353 184.37 224.481Z" fill="#F29111"/>
<path d="M183.549 229.752C184.366 229.88 185.176 229.041 185.357 227.88C185.538 226.718 185.023 225.673 184.206 225.545C183.389 225.418 182.58 226.256 182.398 227.418C182.217 228.579 182.732 229.625 183.549 229.752Z" fill="#F29111"/>
<path d="M182.729 235.02C183.546 235.147 184.355 234.309 184.537 233.147C184.718 231.986 184.203 230.94 183.386 230.813C182.569 230.685 181.759 231.524 181.578 232.685C181.397 233.847 181.912 234.892 182.729 235.02Z" fill="#F29111"/>
<path d="M181.901 240.293C182.718 240.421 183.527 239.582 183.709 238.421C183.89 237.259 183.375 236.214 182.557 236.086C181.74 235.959 180.931 236.797 180.75 237.959C180.568 239.121 181.084 240.166 181.901 240.293Z" fill="#F29111"/>
<path d="M195.495 226.217C196.312 226.344 197.121 225.506 197.302 224.344C197.484 223.183 196.968 222.138 196.151 222.01C195.334 221.883 194.525 222.721 194.344 223.883C194.162 225.044 194.678 226.089 195.495 226.217Z" fill="#F29111"/>
<path d="M194.674 231.488C195.491 231.616 196.301 230.778 196.482 229.616C196.663 228.454 196.148 227.409 195.331 227.282C194.514 227.154 193.705 227.992 193.523 229.154C193.342 230.316 193.857 231.361 194.674 231.488Z" fill="#F29111"/>
<path d="M193.854 236.756C194.671 236.884 195.48 236.045 195.662 234.884C195.843 233.722 195.328 232.677 194.511 232.549C193.694 232.422 192.884 233.26 192.703 234.422C192.522 235.583 193.037 236.628 193.854 236.756Z" fill="#F29111"/>
<path d="M193.026 242.029C193.843 242.157 194.652 241.319 194.834 240.157C195.015 238.995 194.5 237.95 193.682 237.823C192.865 237.695 192.056 238.534 191.875 239.695C191.693 240.857 192.209 241.902 193.026 242.029Z" fill="#F29111"/>
<path d="M207.416 222.682C208.234 222.809 209.043 221.971 209.224 220.809C209.406 219.648 208.89 218.603 208.073 218.475C207.256 218.348 206.447 219.186 206.265 220.347C206.084 221.509 206.599 222.554 207.416 222.682Z" fill="#F29111"/>
<path d="M206.588 227.949C207.405 228.077 208.215 227.239 208.396 226.077C208.577 224.915 208.062 223.87 207.245 223.743C206.428 223.615 205.619 224.453 205.437 225.615C205.256 226.777 205.771 227.822 206.588 227.949Z" fill="#F29111"/>
<path d="M205.768 233.221C206.585 233.348 207.394 232.51 207.576 231.348C207.757 230.187 207.242 229.142 206.425 229.014C205.608 228.887 204.798 229.725 204.617 230.887C204.436 232.048 204.951 233.093 205.768 233.221Z" fill="#F29111"/>
<path d="M204.948 238.49C205.765 238.618 206.574 237.78 206.755 236.618C206.937 235.456 206.421 234.411 205.604 234.284C204.787 234.156 203.978 234.994 203.797 236.156C203.615 237.318 204.131 238.363 204.948 238.49Z" fill="#F29111"/>
<path d="M204.127 243.762C204.944 243.889 205.754 243.051 205.935 241.889C206.116 240.728 205.601 239.683 204.784 239.555C203.967 239.428 203.158 240.266 202.976 241.428C202.795 242.589 203.31 243.634 204.127 243.762Z" fill="#F29111"/>
<path d="M188.081 225.059C188.898 225.186 189.707 224.348 189.888 223.186C190.07 222.025 189.554 220.98 188.737 220.852C187.92 220.724 187.111 221.563 186.929 222.724C186.748 223.886 187.263 224.931 188.081 225.059Z" fill="#F29111"/>
<path d="M187.26 230.332C188.077 230.46 188.887 229.621 189.068 228.46C189.249 227.298 188.734 226.253 187.917 226.125C187.1 225.998 186.291 226.836 186.109 227.998C185.928 229.16 186.443 230.205 187.26 230.332Z" fill="#F29111"/>
<path d="M186.44 235.6C187.257 235.727 188.066 234.889 188.248 233.727C188.429 232.566 187.914 231.521 187.097 231.393C186.28 231.265 185.47 232.104 185.289 233.265C185.108 234.427 185.623 235.472 186.44 235.6Z" fill="#F29111"/>
<path d="M185.612 240.871C186.429 240.999 187.238 240.16 187.419 238.999C187.601 237.837 187.085 236.792 186.268 236.665C185.451 236.537 184.642 237.375 184.461 238.537C184.279 239.699 184.795 240.744 185.612 240.871Z" fill="#F29111"/>
<path d="M199.198 226.795C200.015 226.923 200.824 226.084 201.005 224.923C201.187 223.761 200.671 222.716 199.854 222.588C199.037 222.461 198.228 223.299 198.047 224.461C197.865 225.622 198.381 226.668 199.198 226.795Z" fill="#F29111"/>
<path d="M198.37 232.067C199.187 232.194 199.996 231.356 200.177 230.194C200.359 229.032 199.843 227.987 199.026 227.86C198.209 227.732 197.4 228.571 197.219 229.732C197.037 230.894 197.553 231.939 198.37 232.067Z" fill="#F29111"/>
<path d="M197.549 237.336C198.366 237.464 199.176 236.625 199.357 235.464C199.538 234.302 199.023 233.257 198.206 233.129C197.389 233.002 196.58 233.84 196.398 235.002C196.217 236.163 196.732 237.209 197.549 237.336Z" fill="#F29111"/>
<path d="M196.729 242.608C197.546 242.735 198.355 241.897 198.537 240.735C198.718 239.573 198.203 238.528 197.386 238.401C196.569 238.273 195.759 239.112 195.578 240.273C195.397 241.435 195.912 242.48 196.729 242.608Z" fill="#F29111"/>
<path d="M211.135 223.26C211.952 223.387 212.762 222.549 212.943 221.387C213.124 220.226 212.609 219.181 211.792 219.053C210.975 218.926 210.166 219.764 209.984 220.926C209.803 222.087 210.318 223.132 211.135 223.26Z" fill="#F29111"/>
<path d="M210.315 228.529C211.132 228.657 211.941 227.819 212.123 226.657C212.304 225.495 211.789 224.45 210.972 224.323C210.155 224.195 209.345 225.033 209.164 226.195C208.983 227.357 209.498 228.402 210.315 228.529Z" fill="#F29111"/>
<path d="M209.495 233.801C210.312 233.928 211.121 233.09 211.302 231.928C211.484 230.767 210.968 229.722 210.151 229.594C209.334 229.467 208.525 230.305 208.344 231.467C208.162 232.628 208.678 233.673 209.495 233.801Z" fill="#F29111"/>
<path d="M208.666 239.069C209.484 239.196 210.293 238.358 210.474 237.196C210.656 236.034 210.14 234.989 209.323 234.862C208.506 234.734 207.697 235.573 207.515 236.734C207.334 237.896 207.849 238.941 208.666 239.069Z" fill="#F29111"/>
<path d="M207.846 244.342C208.663 244.469 209.473 243.631 209.654 242.47C209.835 241.308 209.32 240.263 208.503 240.135C207.686 240.008 206.876 240.846 206.695 242.008C206.514 243.169 207.029 244.214 207.846 244.342Z" fill="#F29111"/>
<path d="M177.385 244.985C178.202 245.112 179.012 244.274 179.193 243.112C179.374 241.95 178.859 240.905 178.042 240.778C177.225 240.65 176.416 241.489 176.234 242.65C176.053 243.812 176.568 244.857 177.385 244.985Z" fill="#F29111"/>
<path d="M176.565 250.231C177.382 250.358 178.191 249.52 178.373 248.358C178.554 247.197 178.039 246.151 177.222 246.024C176.405 245.896 175.595 246.735 175.414 247.896C175.233 249.058 175.748 250.103 176.565 250.231Z" fill="#F29111"/>
<path d="M190.325 244.881C190.514 243.72 190.005 242.668 189.19 242.531C188.374 242.393 187.561 243.223 187.372 244.383C187.184 245.544 187.692 246.596 188.508 246.733C189.323 246.871 190.137 246.041 190.325 244.881Z" fill="#F29111"/>
<path d="M189.481 250.15C189.67 248.99 189.161 247.938 188.346 247.8C187.53 247.663 186.717 248.492 186.528 249.653C186.34 250.813 186.849 251.865 187.664 252.003C188.479 252.14 189.293 251.311 189.481 250.15Z" fill="#F29111"/>
<path d="M199.604 248.451C200.421 248.579 201.23 247.741 201.412 246.579C201.593 245.417 201.078 244.372 200.261 244.245C199.444 244.117 198.634 244.955 198.453 246.117C198.272 247.279 198.787 248.324 199.604 248.451Z" fill="#F29111"/>
<path d="M198.784 253.699C199.601 253.827 200.41 252.989 200.591 251.827C200.773 250.665 200.257 249.62 199.44 249.493C198.623 249.365 197.814 250.203 197.633 251.365C197.451 252.527 197.967 253.572 198.784 253.699Z" fill="#F29111"/>
<path d="M210.713 250.188C211.53 250.315 212.34 249.477 212.521 248.315C212.702 247.154 212.187 246.108 211.37 245.981C210.553 245.853 209.744 246.692 209.562 247.853C209.381 249.015 209.896 250.06 210.713 250.188Z" fill="#F29111"/>
<path d="M209.901 255.434C210.718 255.561 211.527 254.723 211.709 253.561C211.89 252.4 211.375 251.355 210.557 251.227C209.74 251.099 208.931 251.938 208.75 253.099C208.568 254.261 209.084 255.306 209.901 255.434Z" fill="#F29111"/>
<path d="M181.081 245.561C181.898 245.688 182.707 244.85 182.888 243.688C183.07 242.527 182.554 241.482 181.737 241.354C180.92 241.226 180.111 242.065 179.929 243.226C179.748 244.388 180.263 245.433 181.081 245.561Z" fill="#F29111"/>
<path d="M180.26 250.807C181.077 250.934 181.887 250.096 182.068 248.934C182.249 247.773 181.734 246.728 180.917 246.6C180.1 246.473 179.291 247.311 179.109 248.472C178.928 249.634 179.443 250.679 180.26 250.807Z" fill="#F29111"/>
<path d="M192.206 247.297C193.023 247.425 193.832 246.586 194.013 245.425C194.195 244.263 193.679 243.218 192.862 243.09C192.045 242.963 191.236 243.801 191.054 244.963C190.873 246.124 191.388 247.169 192.206 247.297Z" fill="#F29111"/>
<path d="M191.385 252.543C192.202 252.671 193.012 251.832 193.193 250.671C193.374 249.509 192.859 248.464 192.042 248.336C191.225 248.209 190.416 249.047 190.234 250.209C190.053 251.37 190.568 252.416 191.385 252.543Z" fill="#F29111"/>
<path d="M203.299 249.029C204.116 249.157 204.926 248.319 205.107 247.157C205.288 245.995 204.773 244.95 203.956 244.823C203.139 244.695 202.33 245.534 202.148 246.695C201.967 247.857 202.482 248.902 203.299 249.029Z" fill="#F29111"/>
<path d="M202.479 254.278C203.296 254.405 204.105 253.567 204.287 252.405C204.468 251.243 203.953 250.198 203.136 250.071C202.319 249.943 201.509 250.782 201.328 251.943C201.147 253.105 201.662 254.15 202.479 254.278Z" fill="#F29111"/>
<path d="M184.791 246.141C185.609 246.268 186.418 245.43 186.599 244.268C186.781 243.107 186.265 242.062 185.448 241.934C184.631 241.807 183.822 242.645 183.64 243.807C183.459 244.968 183.974 246.013 184.791 246.141Z" fill="#F29111"/>
<path d="M183.971 251.387C184.788 251.514 185.598 250.676 185.779 249.514C185.96 248.353 185.445 247.308 184.628 247.18C183.811 247.053 183.001 247.891 182.82 249.053C182.639 250.214 183.154 251.259 183.971 251.387Z" fill="#F29111"/>
<path d="M195.901 247.875C196.718 248.003 197.527 247.164 197.709 246.003C197.89 244.841 197.375 243.796 196.558 243.668C195.74 243.541 194.931 244.379 194.75 245.541C194.568 246.703 195.084 247.748 195.901 247.875Z" fill="#F29111"/>
<path d="M195.088 253.123C195.905 253.251 196.715 252.412 196.896 251.251C197.077 250.089 196.562 249.044 195.745 248.916C194.928 248.789 194.119 249.627 193.937 250.789C193.756 251.951 194.271 252.996 195.088 253.123Z" fill="#F29111"/>
<path d="M207.026 249.61C207.843 249.737 208.652 248.899 208.834 247.737C209.015 246.575 208.5 245.53 207.682 245.403C206.865 245.275 206.056 246.114 205.875 247.275C205.693 248.437 206.209 249.482 207.026 249.61Z" fill="#F29111"/>
<path d="M206.206 254.856C207.023 254.983 207.832 254.145 208.013 252.983C208.195 251.822 207.679 250.776 206.862 250.649C206.045 250.521 205.236 251.36 205.054 252.521C204.873 253.683 205.388 254.728 206.206 254.856Z" fill="#F29111"/>
</g>
<path d="M214.753 121.557C197.667 101.482 184.905 118.597 180.758 129.425C183.677 107.575 182.538 102.601 193.535 94.3499C203.138 87.1459 205.566 95.1426 206.585 97.0077C207.529 98.7347 212.767 112.118 214.753 121.557Z" fill="#FF9100"/>
<g filter="url(#filter3_d_2831_16043)">
<path d="M393.663 296.268L384.399 280.946C383.62 279.657 383.459 278.089 383.955 276.667L389.515 260.82C390.279 258.639 392.43 257.257 394.729 257.469L458.272 263.255C460.861 263.49 462.848 265.658 462.858 268.26L462.876 273.911C462.886 277.267 460.687 280.227 457.473 281.185L399.417 298.492C397.215 299.148 394.85 298.235 393.663 296.268Z" fill="white"/>
</g>
<path d="M457.457 281.183L421.062 291.99L433.057 260.961L458.264 263.255C460.853 263.49 462.84 265.658 462.848 268.261L462.868 273.906C462.878 277.262 460.674 280.227 457.457 281.183Z" fill="#F29111"/>
<g filter="url(#filter4_d_2831_16043)">
<g filter="url(#filter5_d_2831_16043)">
<path d="M124.709 274.481L134.097 259.234C134.886 257.953 135.062 256.385 134.575 254.96L129.146 239.069C128.399 236.882 126.261 235.483 123.958 235.674L60.3713 240.94C57.7788 241.154 55.775 243.306 55.745 245.907L55.6802 251.559C55.6416 254.912 57.8169 257.893 61.0236 258.876L118.935 276.657C121.131 277.333 123.505 276.438 124.709 274.481Z" fill="white"/>
</g>
</g>
<path d="M61.039 258.87L97.3436 269.977L85.6038 238.85L60.3794 240.938C57.7866 241.153 55.7828 243.304 55.7531 245.906L55.688 251.551C55.6494 254.909 57.8284 257.889 61.039 258.87Z" fill="#F29111"/>
<path fill-rule="evenodd" clip-rule="evenodd" d="M203.605 272.675C203.16 275.92 205.906 279.329 210.255 279.924C214.604 280.522 218.166 277.978 218.611 274.733L221.312 275.101C220.61 280.219 215.315 283.371 209.885 282.625C204.455 281.881 200.203 277.423 200.904 272.305L203.605 272.675Z" fill="#FF9100"/>
<path fill-rule="evenodd" clip-rule="evenodd" d="M221.316 275.101C220.871 278.349 223.617 281.755 227.966 282.353C232.315 282.948 235.877 280.406 236.322 277.159L239.023 277.529C238.321 282.648 233.025 285.797 227.596 285.053C222.166 284.309 217.913 279.849 218.615 274.73L221.316 275.101Z" fill="#FF9100"/>
<g filter="url(#filter6_d_2831_16043)">
<path d="M429.284 353.04L436.593 337.181C439.41 331.069 434.969 324.762 428.371 325.504L331.634 336.348C320.436 337.604 309.268 337.206 298.502 335.168L150.074 307.067C136.421 304.483 121.721 308.431 110.291 317.753L38.2614 376.497C22.6026 389.268 30.5221 412.402 49.98 410.33C157.938 398.824 315.128 377.365 408.724 367.841C417.554 366.944 425.514 361.215 429.284 353.04Z" fill="#49494A"/>
</g>
<path d="M425.275 348.611L431.608 337.948C434.337 333.356 431.114 328.066 425.912 328.601L327.405 338.727C316.727 339.826 306.086 339.42 295.809 337.522L151.869 310.938C138.41 308.455 123.952 312.302 112.621 321.385L44.8797 375.689C30.6215 387.118 37.6923 408.051 55.2892 406.122C156.191 395.066 308.441 373.604 401.664 363.881C411.323 362.875 420.209 357.141 425.275 348.611Z" fill="white"/>
<path d="M424.111 352.564L432.729 337.735C435.422 333.103 432.106 327.839 426.887 328.461L327.59 340.302C316.887 341.578 306.196 341.343 295.848 339.606L150.52 315.224C137.926 313.111 124.497 316.822 113.973 325.325L48.1336 378.517C35.7232 388.545 41.9511 407.069 57.317 405.64C179.394 394.283 319.855 375.085 407.472 363.739C414.33 362.851 420.571 358.653 424.111 352.564Z" fill="#7896B2"/>
<path d="M415.779 351.437L423.013 341.301C425.015 338.499 423.144 335.093 419.798 335.441L322.075 345.655C311.296 346.78 300.605 346.432 290.325 344.619L153.725 320.526C142.287 318.509 129.822 321.878 119.995 329.639L56.3219 379.926C46.6786 387.541 50.9855 401.038 62.7525 399.803C148.227 390.832 333.646 368.819 399.13 361.396C405.728 360.65 411.835 356.961 415.779 351.437Z" fill="white" fill-opacity="0.4"/>
<g filter="url(#filter7_f_2831_16043)">
<path d="M96.9397 386.929C85.1119 375.64 94.0277 355.777 116.854 342.564C139.68 329.349 167.773 327.786 179.601 339.075C191.429 350.363 182.513 370.227 159.687 383.442C136.861 396.657 108.768 398.217 96.9397 386.929Z" fill="#B5E7FF"/>
</g>
<path d="M105.437 382.01C96.0851 373.086 103.205 357.34 121.339 346.841C139.474 336.341 161.757 335.068 171.109 343.992C180.461 352.917 173.342 368.664 155.207 379.163C137.072 389.662 114.79 390.936 105.437 382.01Z" fill="#8EC9E6"/>
<path fill-rule="evenodd" clip-rule="evenodd" d="M103.62 365.179C100.778 371.465 101.371 377.461 105.874 381.758C110.376 386.054 118.051 387.95 126.947 387.441C135.834 386.934 145.843 384.024 154.842 378.815C163.842 373.606 170.087 367.103 172.926 360.825C175.769 354.536 175.175 348.543 170.673 344.246C166.17 339.947 158.496 338.054 149.599 338.56C140.713 339.07 130.704 341.979 121.704 347.189C112.704 352.398 106.46 358.901 103.62 365.179ZM121.339 346.841C103.205 357.34 96.0851 373.086 105.437 382.01C114.79 390.936 137.072 389.662 155.207 379.163C173.342 368.664 180.461 352.917 171.109 343.992C161.757 335.068 139.474 336.341 121.339 346.841Z" fill="white" fill-opacity="0.6"/>
<g filter="url(#filter8_f_2831_16043)">
<path d="M108.376 380.307C99.8487 372.17 106.321 357.823 122.831 348.264C139.342 338.706 159.639 337.556 168.166 345.693C176.693 353.832 170.221 368.176 153.711 377.735C137.2 387.294 116.903 388.446 108.376 380.307Z" fill="#AFE5FF"/>
</g>
<path d="M115.563 376.147C109.099 369.98 114.025 359.092 126.566 351.833C139.107 344.572 154.514 343.689 160.978 349.856C167.442 356.026 162.516 366.914 149.975 374.173C137.434 381.432 122.027 382.317 115.563 376.147Z" fill="#E3F5FD" fill-opacity="0.8"/>
<g filter="url(#filter9_f_2831_16043)">
<path d="M234.054 376.341C226.244 368.888 232.131 355.774 247.202 347.049C262.274 338.325 280.822 337.294 288.631 344.747C296.439 352.201 290.552 365.315 275.481 374.039C260.411 382.763 241.863 383.794 234.054 376.341Z" fill="#B5E7FF"/>
</g>
<path d="M239.664 373.094C233.489 367.201 238.189 356.805 250.163 349.874C262.135 342.943 276.848 342.1 283.023 347.993C289.198 353.886 284.498 364.284 272.523 371.215C260.549 378.147 245.838 378.989 239.664 373.094Z" fill="#8EC9E6"/>
<path fill-rule="evenodd" clip-rule="evenodd" d="M238.647 362.037C236.782 366.162 237.186 370.06 240.1 372.842C243.014 375.623 248.001 376.868 253.837 376.536C259.664 376.203 266.24 374.294 272.158 370.867C278.078 367.441 282.178 363.167 284.039 359.052C285.905 354.927 285.501 351.026 282.586 348.245C279.672 345.466 274.684 344.218 268.85 344.554C263.023 344.887 256.447 346.795 250.528 350.222C244.609 353.649 240.509 357.92 238.647 362.037ZM250.163 349.874C238.189 356.805 233.489 367.201 239.664 373.094C245.838 378.989 260.549 378.147 272.523 371.215C284.498 364.284 289.198 353.886 283.023 347.993C276.848 342.1 262.135 342.943 250.163 349.874Z" fill="white" fill-opacity="0.6"/>
<g filter="url(#filter10_f_2831_16043)">
<path d="M241.607 371.972C235.977 366.599 240.25 357.126 251.151 350.817C262.052 344.506 275.453 343.744 281.084 349.118C286.712 354.491 282.44 363.964 271.538 370.272C260.638 376.583 247.236 377.345 241.607 371.972Z" fill="#AFE5FF"/>
</g>
<path d="M246.354 369.223C242.087 365.151 245.339 357.962 253.62 353.169C261.898 348.376 272.072 347.791 276.338 351.866C280.607 355.938 277.354 363.126 269.074 367.92C260.794 372.713 250.622 373.298 246.354 369.223Z" fill="#E3F5FD" fill-opacity="0.8"/>
<g filter="url(#filter11_f_2831_16043)">
<path d="M339.187 365.196C333.428 359.7 337.767 350.027 348.884 343.593C359.999 337.158 373.677 336.399 379.436 341.896C385.195 347.393 380.856 357.065 369.739 363.499C358.625 369.934 344.946 370.693 339.187 365.196Z" fill="#B5E7FF"/>
</g>
<path d="M343.325 362.801C338.771 358.457 342.238 350.789 351.068 345.676C359.898 340.565 370.75 339.944 375.304 344.289C379.858 348.636 376.391 356.303 367.561 361.414C358.731 366.528 347.879 367.148 343.325 362.801Z" fill="#8EC9E6"/>
<path fill-rule="evenodd" clip-rule="evenodd" d="M342.717 354.69C341.351 357.71 341.658 360.542 343.761 362.549C345.866 364.556 349.482 365.471 353.759 365.227C358.022 364.982 362.848 363.583 367.195 361.066C371.542 358.55 374.548 355.416 375.912 352.4C377.278 349.38 376.971 346.55 374.868 344.541C372.763 342.534 369.147 341.621 364.87 341.866C360.607 342.108 355.781 343.507 351.434 346.023C347.087 348.54 344.081 351.677 342.717 354.69ZM351.068 345.676C342.238 350.789 338.771 358.457 343.325 362.801C347.879 367.148 358.731 366.528 367.561 361.414C376.391 356.303 379.858 348.636 375.304 344.289C370.75 339.944 359.898 340.565 351.068 345.676Z" fill="white" fill-opacity="0.6"/>
<g filter="url(#filter12_f_2831_16043)">
<path d="M344.752 361.974C340.6 358.011 343.751 351.026 351.79 346.372C359.831 341.717 369.712 341.157 373.865 345.119C378.018 349.082 374.866 356.067 366.825 360.721C358.787 365.376 348.903 365.935 344.752 361.974Z" fill="#AFE5FF"/>
</g>
<path d="M348.261 359.948C345.112 356.945 347.512 351.642 353.616 348.107C359.723 344.572 367.227 344.141 370.374 347.147C373.521 350.15 371.123 355.452 365.016 358.987C358.909 362.522 351.408 362.951 348.261 359.948Z" fill="#E3F5FD" fill-opacity="0.8"/>
</g>
<path d="M234 467C353.294 467 450 456.031 450 442.5C450 428.969 353.294 418 234 418C114.706 418 18 428.969 18 442.5C18 456.031 114.706 467 234 467Z" fill="#A4AFBF" fill-opacity="0.7"/>
</g>
<defs>
<filter id="filter0_d_2831_16043" x="173.984" y="90.998" width="49.25" height="100.347" filterUnits="userSpaceOnUse" color-interpolation-filters="sRGB">
<feFlood flood-opacity="0" result="BackgroundImageFix"/>
<feColorMatrix in="SourceAlpha" type="matrix" values="0 0 0 0 0 0 0 0 0 0 0 0 0 0 0 0 0 0 127 0" result="hardAlpha"/>
<feOffset dy="4"/>
<feGaussianBlur stdDeviation="2"/>
<feComposite in2="hardAlpha" operator="out"/>
<feColorMatrix type="matrix" values="0 0 0 0 0 0 0 0 0 0 0 0 0 0 0 0 0 0 0.45 0"/>
<feBlend mode="normal" in2="BackgroundImageFix" result="effect1_dropShadow_2831_16043"/>
<feBlend mode="normal" in="SourceGraphic" in2="effect1_dropShadow_2831_16043" result="shape"/>
</filter>
<filter id="filter1_d_2831_16043" x="149.477" y="88.8359" width="302.254" height="257.189" filterUnits="userSpaceOnUse" color-interpolation-filters="sRGB">
<feFlood flood-opacity="0" result="BackgroundImageFix"/>
<feColorMatrix in="SourceAlpha" type="matrix" values="0 0 0 0 0 0 0 0 0 0 0 0 0 0 0 0 0 0 127 0" result="hardAlpha"/>
<feOffset/>
<feGaussianBlur stdDeviation="1.5"/>
<feComposite in2="hardAlpha" operator="out"/>
<feColorMatrix type="matrix" values="0 0 0 0 0 0 0 0 0 0 0 0 0 0 0 0 0 0 0.25 0"/>
<feBlend mode="normal" in2="BackgroundImageFix" result="effect1_dropShadow_2831_16043"/>
<feBlend mode="normal" in="SourceGraphic" in2="effect1_dropShadow_2831_16043" result="shape"/>
</filter>
<filter id="filter2_d_2831_16043" x="144.477" y="83.8359" width="312.254" height="267.189" filterUnits="userSpaceOnUse" color-interpolation-filters="sRGB">
<feFlood flood-opacity="0" result="BackgroundImageFix"/>
<feColorMatrix in="SourceAlpha" type="matrix" values="0 0 0 0 0 0 0 0 0 0 0 0 0 0 0 0 0 0 127 0" result="hardAlpha"/>
<feOffset/>
<feGaussianBlur stdDeviation="4"/>
<feComposite in2="hardAlpha" operator="out"/>
<feColorMatrix type="matrix" values="0 0 0 0 0 0 0 0 0 0 0 0 0 0 0 0 0 0 0.2 0"/>
<feBlend mode="normal" in2="BackgroundImageFix" result="effect1_dropShadow_2831_16043"/>
<feBlend mode="normal" in="SourceGraphic" in2="effect1_dropShadow_2831_16043" result="shape"/>
</filter>
<filter id="filter3_d_2831_16043" x="363.672" y="245.447" width="119.203" height="81.2559" filterUnits="userSpaceOnUse" color-interpolation-filters="sRGB">
<feFlood flood-opacity="0" result="BackgroundImageFix"/>
<feColorMatrix in="SourceAlpha" type="matrix" values="0 0 0 0 0 0 0 0 0 0 0 0 0 0 0 0 0 0 127 0" result="hardAlpha"/>
<feOffset dy="8"/>
<feGaussianBlur stdDeviation="10"/>
<feComposite in2="hardAlpha" operator="out"/>
<feColorMatrix type="matrix" values="0 0 0 0 0 0 0 0 0 0 0 0 0 0 0 0 0 0 0.25 0"/>
<feBlend mode="normal" in2="BackgroundImageFix" result="effect1_dropShadow_2831_16043"/>
<feBlend mode="normal" in="SourceGraphic" in2="effect1_dropShadow_2831_16043" result="shape"/>
</filter>
<filter id="filter4_d_2831_16043" x="35.6797" y="223.656" width="119.168" height="81.2246" filterUnits="userSpaceOnUse" color-interpolation-filters="sRGB">
<feFlood flood-opacity="0" result="BackgroundImageFix"/>
<feColorMatrix in="SourceAlpha" type="matrix" values="0 0 0 0 0 0 0 0 0 0 0 0 0 0 0 0 0 0 127 0" result="hardAlpha"/>
<feOffset dy="8"/>
<feGaussianBlur stdDeviation="10"/>
<feComposite in2="hardAlpha" operator="out"/>
<feColorMatrix type="matrix" values="0 0 0 0 0 0 0 0 0 0 0 0 0 0 0 0 0 0 0.25 0"/>
<feBlend mode="normal" in2="BackgroundImageFix" result="effect1_dropShadow_2831_16043"/>
<feBlend mode="normal" in="SourceGraphic" in2="effect1_dropShadow_2831_16043" result="shape"/>
</filter>
<filter id="filter5_d_2831_16043" x="45.6797" y="224.656" width="99.168" height="61.2246" filterUnits="userSpaceOnUse" color-interpolation-filters="sRGB">
<feFlood flood-opacity="0" result="BackgroundImageFix"/>
<feColorMatrix in="SourceAlpha" type="matrix" values="0 0 0 0 0 0 0 0 0 0 0 0 0 0 0 0 0 0 127 0" result="hardAlpha"/>
<feOffset dy="-1"/>
<feGaussianBlur stdDeviation="5"/>
<feComposite in2="hardAlpha" operator="out"/>
<feColorMatrix type="matrix" values="0 0 0 0 0 0 0 0 0 0 0 0 0 0 0 0 0 0 0.13 0"/>
<feBlend mode="normal" in2="BackgroundImageFix" result="effect1_dropShadow_2831_16043"/>
<feBlend mode="normal" in="SourceGraphic" in2="effect1_dropShadow_2831_16043" result="shape"/>
</filter>
<filter id="filter6_d_2831_16043" x="25.9531" y="306.291" width="415.5" height="112.169" filterUnits="userSpaceOnUse" color-interpolation-filters="sRGB">
<feFlood flood-opacity="0" result="BackgroundImageFix"/>
<feColorMatrix in="SourceAlpha" type="matrix" values="0 0 0 0 0 0 0 0 0 0 0 0 0 0 0 0 0 0 127 0" result="hardAlpha"/>
<feOffset dy="4"/>
<feGaussianBlur stdDeviation="2"/>
<feComposite in2="hardAlpha" operator="out"/>
<feColorMatrix type="matrix" values="0 0 0 0 0 0 0 0 0 0 0 0 0 0 0 0 0 0 0.25 0"/>
<feBlend mode="normal" in2="BackgroundImageFix" result="effect1_dropShadow_2831_16043"/>
<feBlend mode="normal" in="SourceGraphic" in2="effect1_dropShadow_2831_16043" result="shape"/>
</filter>
<filter id="filter7_f_2831_16043" x="57.7109" y="297.533" width="161.117" height="130.938" filterUnits="userSpaceOnUse" color-interpolation-filters="sRGB">
<feFlood flood-opacity="0" result="BackgroundImageFix"/>
<feBlend mode="normal" in="SourceGraphic" in2="BackgroundImageFix" result="shape"/>
<feGaussianBlur stdDeviation="17" result="effect1_foregroundBlur_2831_16043"/>
</filter>
<filter id="filter8_f_2831_16043" x="90.6172" y="326.27" width="95.3086" height="73.4619" filterUnits="userSpaceOnUse" color-interpolation-filters="sRGB">
<feFlood flood-opacity="0" result="BackgroundImageFix"/>
<feBlend mode="normal" in="SourceGraphic" in2="BackgroundImageFix" result="shape"/>
<feGaussianBlur stdDeviation="7" result="effect1_foregroundBlur_2831_16043"/>
</filter>
<filter id="filter9_f_2831_16043" x="196.602" y="305.768" width="129.48" height="109.553" filterUnits="userSpaceOnUse" color-interpolation-filters="sRGB">
<feFlood flood-opacity="0" result="BackgroundImageFix"/>
<feBlend mode="normal" in="SourceGraphic" in2="BackgroundImageFix" result="shape"/>
<feGaussianBlur stdDeviation="17" result="effect1_foregroundBlur_2831_16043"/>
</filter>
<filter id="filter10_f_2831_16043" x="225.125" y="331.537" width="72.4375" height="58.0146" filterUnits="userSpaceOnUse" color-interpolation-filters="sRGB">
<feFlood flood-opacity="0" result="BackgroundImageFix"/>
<feBlend mode="normal" in="SourceGraphic" in2="BackgroundImageFix" result="shape"/>
<feGaussianBlur stdDeviation="7" result="effect1_foregroundBlur_2831_16043"/>
</filter>
<filter id="filter11_f_2831_16043" x="302.641" y="304.223" width="113.344" height="98.6465" filterUnits="userSpaceOnUse" color-interpolation-filters="sRGB">
<feFlood flood-opacity="0" result="BackgroundImageFix"/>
<feBlend mode="normal" in="SourceGraphic" in2="BackgroundImageFix" result="shape"/>
<feGaussianBlur stdDeviation="17" result="effect1_foregroundBlur_2831_16043"/>
</filter>
<filter id="filter12_f_2831_16043" x="328.922" y="328.479" width="60.7734" height="50.1357" filterUnits="userSpaceOnUse" color-interpolation-filters="sRGB">
<feFlood flood-opacity="0" result="BackgroundImageFix"/>
<feBlend mode="normal" in="SourceGraphic" in2="BackgroundImageFix" result="shape"/>
<feGaussianBlur stdDeviation="7" result="effect1_foregroundBlur_2831_16043"/>
</filter>
<linearGradient id="paint0_linear_2831_16043" x1="203.359" y1="89.5058" x2="197.049" y2="184.609" gradientUnits="userSpaceOnUse">
<stop stop-color="white"/>
<stop offset="1" stop-color="#F4F4F4"/>
</linearGradient>
<clipPath id="clip0_2831_16043">
<rect width="500" height="500" fill="white"/>
</clipPath>
</defs>
</svg>
