<svg width="500" height="500" viewBox="0 0 500 500" fill="none" xmlns="http://www.w3.org/2000/svg">
<g clip-path="url(#clip0_2831_24437)">
<path d="M271 454C181.53 454 109 443.255 109 430C109 416.745 181.53 406 271 406C360.47 406 433 416.745 433 430C433 443.255 360.47 454 271 454Z" fill="#A4AFBF" fill-opacity="0.7"/>
<g filter="url(#filter0_d_2831_24437)">
<path d="M122.992 96.0229C126.511 128.202 159.879 193.058 179.933 223.546L236.344 205.632C206.561 153.116 173.26 117.918 148.923 93.8002C143.378 88.3264 135.111 86.6345 127.839 89.4543L127.009 89.7861C124.42 90.7813 122.693 93.2694 122.992 96.0229Z" fill="white"/>
<path d="M123.004 95.7236C124.93 109.325 129.777 129.263 144.22 159.22C144.22 159.22 144.486 128.036 153.019 123.955C161.552 119.875 189.508 137.623 189.508 137.623C179.58 126.211 161.651 103.619 147.076 92.0412C142.195 88.1598 135.72 87.3636 129.578 88.5579L127.951 88.8565C124.764 89.5531 122.572 92.5057 123.004 95.7236Z" fill="#FF9100"/>
</g>
<g filter="url(#filter1_d_2831_24437)">
<path d="M407.615 96.0229C404.095 128.202 370.727 193.058 350.673 223.546L294.263 205.632C324.045 153.116 357.347 117.918 381.684 93.8002C387.229 88.3264 395.496 86.6345 402.767 89.4543L403.597 89.7861C406.187 90.7813 407.914 93.2694 407.615 96.0229Z" fill="white"/>
<path d="M407.665 95.7217C405.773 108.925 400.792 129.427 386.449 159.251C386.449 159.251 386.183 128.067 377.65 123.986C369.118 119.906 341.128 137.654 341.128 137.654C351.056 126.242 368.985 103.65 383.56 92.0725C388.441 88.1911 394.916 87.3949 401.058 88.5891L402.685 88.9209C405.905 89.5512 408.13 92.5037 407.665 95.7217Z" fill="#FF9100"/>
</g>
<g filter="url(#filter2_d_2831_24437)">
<g filter="url(#filter3_d_2831_24437)">
<path d="M156.589 279.606C156.589 334.543 207.554 379.063 270.439 379.063C333.324 379.063 384.289 334.543 384.289 279.606C384.289 224.669 333.324 180.148 270.439 180.148C207.554 180.148 156.589 224.669 156.589 279.606Z" fill="white"/>
</g>
</g>
<path d="M270.651 359.365C219.308 359.365 177.686 327.357 177.686 287.874C177.686 248.39 219.308 216.383 270.651 216.383C321.995 216.383 363.617 248.39 363.617 287.874C363.617 327.357 321.995 359.365 270.651 359.365Z" fill="#35373A"/>
<mask id="mask0_2831_24437" style="mask-type:luminance" maskUnits="userSpaceOnUse" x="281" y="262" width="64" height="41">
<ellipse cx="2.35489" cy="2.3529" rx="2.35489" ry="2.3529" transform="matrix(-1 0 0 1 339.117 262)" fill="white"/>
<ellipse cx="2.35489" cy="2.3529" rx="2.35489" ry="2.3529" transform="matrix(-1 0 0 1 339.117 267.883)" fill="white"/>
<ellipse cx="2.35489" cy="2.3529" rx="2.35489" ry="2.3529" transform="matrix(-1 0 0 1 339.117 273.766)" fill="white"/>
<ellipse cx="2.35489" cy="2.3529" rx="2.35489" ry="2.3529" transform="matrix(-1 0 0 1 339.117 279.648)" fill="white"/>
<ellipse cx="2.35489" cy="2.3529" rx="2.35489" ry="2.3529" transform="matrix(-1 0 0 1 339.117 285.531)" fill="white"/>
<ellipse cx="2.35489" cy="2.3529" rx="2.35489" ry="2.3529" transform="matrix(-1 0 0 1 333.227 262)" fill="white"/>
<ellipse cx="2.35489" cy="2.3529" rx="2.35489" ry="2.3529" transform="matrix(-1 0 0 1 333.227 267.883)" fill="white"/>
<ellipse cx="2.35489" cy="2.3529" rx="2.35489" ry="2.3529" transform="matrix(-1 0 0 1 333.227 273.766)" fill="white"/>
<ellipse cx="2.35489" cy="2.3529" rx="2.35489" ry="2.3529" transform="matrix(-1 0 0 1 333.227 279.648)" fill="white"/>
<ellipse cx="2.35489" cy="2.3529" rx="2.35489" ry="2.3529" transform="matrix(-1 0 0 1 333.227 285.531)" fill="white"/>
<ellipse cx="2.35489" cy="2.3529" rx="2.35489" ry="2.3529" transform="matrix(-1 0 0 1 345 262)" fill="white"/>
<ellipse cx="2.35489" cy="2.3529" rx="2.35489" ry="2.3529" transform="matrix(-1 0 0 1 345 267.883)" fill="white"/>
<ellipse cx="2.35489" cy="2.3529" rx="2.35489" ry="2.3529" transform="matrix(-1 0 0 1 345 273.766)" fill="white"/>
<ellipse cx="2.35489" cy="2.3529" rx="2.35489" ry="2.3529" transform="matrix(-1 0 0 1 345 279.648)" fill="white"/>
<ellipse cx="2.35489" cy="2.3529" rx="2.35489" ry="2.3529" transform="matrix(-1 0 0 1 345 285.531)" fill="white"/>
<ellipse cx="2.35489" cy="2.3529" rx="2.35489" ry="2.3529" transform="matrix(-1 0 0 1 327.344 262)" fill="white"/>
<ellipse cx="2.35489" cy="2.3529" rx="2.35489" ry="2.3529" transform="matrix(-1 0 0 1 327.344 267.883)" fill="white"/>
<ellipse cx="2.35489" cy="2.3529" rx="2.35489" ry="2.3529" transform="matrix(-1 0 0 1 327.344 273.766)" fill="white"/>
<ellipse cx="2.35489" cy="2.3529" rx="2.35489" ry="2.3529" transform="matrix(-1 0 0 1 327.344 279.648)" fill="white"/>
<ellipse cx="2.35489" cy="2.3529" rx="2.35489" ry="2.3529" transform="matrix(-1 0 0 1 327.344 285.531)" fill="white"/>
<ellipse cx="2.35489" cy="2.3529" rx="2.35489" ry="2.3529" transform="matrix(-1 0 0 1 315.562 262)" fill="white"/>
<ellipse cx="2.35489" cy="2.3529" rx="2.35489" ry="2.3529" transform="matrix(-1 0 0 1 315.562 267.883)" fill="white"/>
<ellipse cx="2.35489" cy="2.3529" rx="2.35489" ry="2.3529" transform="matrix(-1 0 0 1 315.562 273.766)" fill="white"/>
<ellipse cx="2.35489" cy="2.3529" rx="2.35489" ry="2.3529" transform="matrix(-1 0 0 1 315.562 279.648)" fill="white"/>
<ellipse cx="2.35489" cy="2.3529" rx="2.35489" ry="2.3529" transform="matrix(-1 0 0 1 315.562 285.531)" fill="white"/>
<ellipse cx="2.35489" cy="2.3529" rx="2.35489" ry="2.3529" transform="matrix(-1 0 0 1 297.906 262)" fill="white"/>
<ellipse cx="2.35489" cy="2.3529" rx="2.35489" ry="2.3529" transform="matrix(-1 0 0 1 297.906 267.883)" fill="white"/>
<ellipse cx="2.35489" cy="2.3529" rx="2.35489" ry="2.3529" transform="matrix(-1 0 0 1 297.906 273.766)" fill="white"/>
<ellipse cx="2.35489" cy="2.3529" rx="2.35489" ry="2.3529" transform="matrix(-1 0 0 1 297.906 279.648)" fill="white"/>
<ellipse cx="2.35489" cy="2.3529" rx="2.35489" ry="2.3529" transform="matrix(-1 0 0 1 297.906 285.531)" fill="white"/>
<ellipse cx="2.35489" cy="2.3529" rx="2.35489" ry="2.3529" transform="matrix(-1 0 0 1 309.672 262)" fill="white"/>
<ellipse cx="2.35489" cy="2.3529" rx="2.35489" ry="2.3529" transform="matrix(-1 0 0 1 309.672 267.883)" fill="white"/>
<ellipse cx="2.35489" cy="2.3529" rx="2.35489" ry="2.3529" transform="matrix(-1 0 0 1 309.672 273.766)" fill="white"/>
<ellipse cx="2.35489" cy="2.3529" rx="2.35489" ry="2.3529" transform="matrix(-1 0 0 1 309.672 279.648)" fill="white"/>
<ellipse cx="2.35489" cy="2.3529" rx="2.35489" ry="2.3529" transform="matrix(-1 0 0 1 309.672 285.531)" fill="white"/>
<ellipse cx="2.35489" cy="2.3529" rx="2.35489" ry="2.3529" transform="matrix(-1 0 0 1 292.016 262)" fill="white"/>
<ellipse cx="2.35489" cy="2.3529" rx="2.35489" ry="2.3529" transform="matrix(-1 0 0 1 292.016 267.883)" fill="white"/>
<ellipse cx="2.35489" cy="2.3529" rx="2.35489" ry="2.3529" transform="matrix(-1 0 0 1 292.016 273.766)" fill="white"/>
<ellipse cx="2.35489" cy="2.3529" rx="2.35489" ry="2.3529" transform="matrix(-1 0 0 1 292.016 279.648)" fill="white"/>
<ellipse cx="2.35489" cy="2.3529" rx="2.35489" ry="2.3529" transform="matrix(-1 0 0 1 292.016 285.531)" fill="white"/>
<ellipse cx="2.35489" cy="2.3529" rx="2.35489" ry="2.3529" transform="matrix(-1 0 0 1 321.453 262)" fill="white"/>
<ellipse cx="2.35489" cy="2.3529" rx="2.35489" ry="2.3529" transform="matrix(-1 0 0 1 321.453 267.883)" fill="white"/>
<ellipse cx="2.35489" cy="2.3529" rx="2.35489" ry="2.3529" transform="matrix(-1 0 0 1 321.453 273.766)" fill="white"/>
<ellipse cx="2.35489" cy="2.3529" rx="2.35489" ry="2.3529" transform="matrix(-1 0 0 1 321.453 279.648)" fill="white"/>
<ellipse cx="2.35489" cy="2.3529" rx="2.35489" ry="2.3529" transform="matrix(-1 0 0 1 321.453 285.531)" fill="white"/>
<ellipse cx="2.35489" cy="2.3529" rx="2.35489" ry="2.3529" transform="matrix(-1 0 0 1 303.789 262)" fill="white"/>
<ellipse cx="2.35489" cy="2.3529" rx="2.35489" ry="2.3529" transform="matrix(-1 0 0 1 303.789 267.883)" fill="white"/>
<ellipse cx="2.35489" cy="2.3529" rx="2.35489" ry="2.3529" transform="matrix(-1 0 0 1 303.789 273.766)" fill="white"/>
<ellipse cx="2.35489" cy="2.3529" rx="2.35489" ry="2.3529" transform="matrix(-1 0 0 1 303.789 279.648)" fill="white"/>
<ellipse cx="2.35489" cy="2.3529" rx="2.35489" ry="2.3529" transform="matrix(-1 0 0 1 303.789 285.531)" fill="white"/>
<ellipse cx="2.35489" cy="2.3529" rx="2.35489" ry="2.3529" transform="matrix(-1 0 0 1 286.133 262)" fill="white"/>
<ellipse cx="2.35489" cy="2.3529" rx="2.35489" ry="2.3529" transform="matrix(-1 0 0 1 286.133 267.883)" fill="white"/>
<ellipse cx="2.35489" cy="2.3529" rx="2.35489" ry="2.3529" transform="matrix(-1 0 0 1 286.133 273.766)" fill="white"/>
<ellipse cx="2.35489" cy="2.3529" rx="2.35489" ry="2.3529" transform="matrix(-1 0 0 1 286.133 279.648)" fill="white"/>
<ellipse cx="2.35489" cy="2.3529" rx="2.35489" ry="2.3529" transform="matrix(-1 0 0 1 286.133 285.531)" fill="white"/>
<ellipse cx="2.35489" cy="2.3529" rx="2.35489" ry="2.3529" transform="matrix(-1 0 0 1 339.117 291.414)" fill="white"/>
<ellipse cx="2.35489" cy="2.3529" rx="2.35489" ry="2.3529" transform="matrix(-1 0 0 1 339.117 297.297)" fill="white"/>
<ellipse cx="2.35489" cy="2.3529" rx="2.35489" ry="2.3529" transform="matrix(-1 0 0 1 333.227 291.414)" fill="white"/>
<ellipse cx="2.35489" cy="2.3529" rx="2.35489" ry="2.3529" transform="matrix(-1 0 0 1 333.227 297.297)" fill="white"/>
<ellipse cx="2.35489" cy="2.3529" rx="2.35489" ry="2.3529" transform="matrix(-1 0 0 1 345 291.414)" fill="white"/>
<ellipse cx="2.35489" cy="2.3529" rx="2.35489" ry="2.3529" transform="matrix(-1 0 0 1 345 297.297)" fill="white"/>
<ellipse cx="2.35489" cy="2.3529" rx="2.35489" ry="2.3529" transform="matrix(-1 0 0 1 327.344 291.414)" fill="white"/>
<ellipse cx="2.35489" cy="2.3529" rx="2.35489" ry="2.3529" transform="matrix(-1 0 0 1 327.344 297.297)" fill="white"/>
<ellipse cx="2.35489" cy="2.3529" rx="2.35489" ry="2.3529" transform="matrix(-1 0 0 1 315.562 291.414)" fill="white"/>
<ellipse cx="2.35489" cy="2.3529" rx="2.35489" ry="2.3529" transform="matrix(-1 0 0 1 315.562 297.297)" fill="white"/>
<ellipse cx="2.35489" cy="2.3529" rx="2.35489" ry="2.3529" transform="matrix(-1 0 0 1 297.906 291.414)" fill="white"/>
<ellipse cx="2.35489" cy="2.3529" rx="2.35489" ry="2.3529" transform="matrix(-1 0 0 1 297.906 297.297)" fill="white"/>
<ellipse cx="2.35489" cy="2.3529" rx="2.35489" ry="2.3529" transform="matrix(-1 0 0 1 309.672 291.414)" fill="white"/>
<ellipse cx="2.35489" cy="2.3529" rx="2.35489" ry="2.3529" transform="matrix(-1 0 0 1 309.672 297.297)" fill="white"/>
<ellipse cx="2.35489" cy="2.3529" rx="2.35489" ry="2.3529" transform="matrix(-1 0 0 1 292.016 291.414)" fill="white"/>
<ellipse cx="2.35489" cy="2.3529" rx="2.35489" ry="2.3529" transform="matrix(-1 0 0 1 292.016 297.297)" fill="white"/>
<ellipse cx="2.35489" cy="2.3529" rx="2.35489" ry="2.3529" transform="matrix(-1 0 0 1 321.453 291.414)" fill="white"/>
<ellipse cx="2.35489" cy="2.3529" rx="2.35489" ry="2.3529" transform="matrix(-1 0 0 1 321.453 297.297)" fill="white"/>
<ellipse cx="2.35489" cy="2.3529" rx="2.35489" ry="2.3529" transform="matrix(-1 0 0 1 303.789 291.414)" fill="white"/>
<ellipse cx="2.35489" cy="2.3529" rx="2.35489" ry="2.3529" transform="matrix(-1 0 0 1 303.789 297.297)" fill="white"/>
<ellipse cx="2.35489" cy="2.3529" rx="2.35489" ry="2.3529" transform="matrix(-1 0 0 1 286.133 291.414)" fill="white"/>
<ellipse cx="2.35489" cy="2.3529" rx="2.35489" ry="2.3529" transform="matrix(-1 0 0 1 286.133 297.297)" fill="white"/>
</mask>
<g mask="url(#mask0_2831_24437)">
<path d="M284.477 299.402C284.477 299.402 297.393 287.125 313.324 287.125C329.256 287.125 342.172 301.698 342.172 299.402C342.172 280.825 329.256 265.766 313.324 265.766C297.393 265.766 284.477 280.825 284.477 299.402Z" fill="#F29111"/>
</g>
<mask id="mask1_2831_24437" style="mask-type:luminance" maskUnits="userSpaceOnUse" x="198" y="262" width="65" height="41">
<ellipse cx="2.35489" cy="2.3529" rx="2.35489" ry="2.3529" transform="matrix(-1 0 0 1 256.477 262)" fill="white"/>
<ellipse cx="2.35489" cy="2.3529" rx="2.35489" ry="2.3529" transform="matrix(-1 0 0 1 256.477 267.883)" fill="white"/>
<ellipse cx="2.35489" cy="2.3529" rx="2.35489" ry="2.3529" transform="matrix(-1 0 0 1 256.477 273.766)" fill="white"/>
<ellipse cx="2.35489" cy="2.3529" rx="2.35489" ry="2.3529" transform="matrix(-1 0 0 1 256.477 279.648)" fill="white"/>
<ellipse cx="2.35489" cy="2.3529" rx="2.35489" ry="2.3529" transform="matrix(-1 0 0 1 256.477 285.531)" fill="white"/>
<ellipse cx="2.35489" cy="2.3529" rx="2.35489" ry="2.3529" transform="matrix(-1 0 0 1 250.586 262)" fill="white"/>
<ellipse cx="2.35489" cy="2.3529" rx="2.35489" ry="2.3529" transform="matrix(-1 0 0 1 250.586 267.883)" fill="white"/>
<ellipse cx="2.35489" cy="2.3529" rx="2.35489" ry="2.3529" transform="matrix(-1 0 0 1 250.586 273.766)" fill="white"/>
<ellipse cx="2.35489" cy="2.3529" rx="2.35489" ry="2.3529" transform="matrix(-1 0 0 1 250.586 279.648)" fill="white"/>
<ellipse cx="2.35489" cy="2.3529" rx="2.35489" ry="2.3529" transform="matrix(-1 0 0 1 250.586 285.531)" fill="white"/>
<ellipse cx="2.35489" cy="2.3529" rx="2.35489" ry="2.3529" transform="matrix(-1 0 0 1 262.359 262)" fill="white"/>
<ellipse cx="2.35489" cy="2.3529" rx="2.35489" ry="2.3529" transform="matrix(-1 0 0 1 262.359 267.883)" fill="white"/>
<ellipse cx="2.35489" cy="2.3529" rx="2.35489" ry="2.3529" transform="matrix(-1 0 0 1 262.359 273.766)" fill="white"/>
<ellipse cx="2.35489" cy="2.3529" rx="2.35489" ry="2.3529" transform="matrix(-1 0 0 1 262.359 279.648)" fill="white"/>
<ellipse cx="2.35489" cy="2.3529" rx="2.35489" ry="2.3529" transform="matrix(-1 0 0 1 262.359 285.531)" fill="white"/>
<ellipse cx="2.35489" cy="2.3529" rx="2.35489" ry="2.3529" transform="matrix(-1 0 0 1 244.703 262)" fill="white"/>
<ellipse cx="2.35489" cy="2.3529" rx="2.35489" ry="2.3529" transform="matrix(-1 0 0 1 244.703 267.883)" fill="white"/>
<ellipse cx="2.35489" cy="2.3529" rx="2.35489" ry="2.3529" transform="matrix(-1 0 0 1 244.703 273.766)" fill="white"/>
<ellipse cx="2.35489" cy="2.3529" rx="2.35489" ry="2.3529" transform="matrix(-1 0 0 1 244.703 279.648)" fill="white"/>
<ellipse cx="2.35489" cy="2.3529" rx="2.35489" ry="2.3529" transform="matrix(-1 0 0 1 244.703 285.531)" fill="white"/>
<ellipse cx="2.35489" cy="2.3529" rx="2.35489" ry="2.3529" transform="matrix(-1 0 0 1 232.922 262)" fill="white"/>
<ellipse cx="2.35489" cy="2.3529" rx="2.35489" ry="2.3529" transform="matrix(-1 0 0 1 232.922 267.883)" fill="white"/>
<ellipse cx="2.35489" cy="2.3529" rx="2.35489" ry="2.3529" transform="matrix(-1 0 0 1 232.922 273.766)" fill="white"/>
<ellipse cx="2.35489" cy="2.3529" rx="2.35489" ry="2.3529" transform="matrix(-1 0 0 1 232.922 279.648)" fill="white"/>
<ellipse cx="2.35489" cy="2.3529" rx="2.35489" ry="2.3529" transform="matrix(-1 0 0 1 232.922 285.531)" fill="white"/>
<ellipse cx="2.35489" cy="2.3529" rx="2.35489" ry="2.3529" transform="matrix(-1 0 0 1 215.266 262)" fill="white"/>
<ellipse cx="2.35489" cy="2.3529" rx="2.35489" ry="2.3529" transform="matrix(-1 0 0 1 215.266 267.883)" fill="white"/>
<ellipse cx="2.35489" cy="2.3529" rx="2.35489" ry="2.3529" transform="matrix(-1 0 0 1 215.266 273.766)" fill="white"/>
<ellipse cx="2.35489" cy="2.3529" rx="2.35489" ry="2.3529" transform="matrix(-1 0 0 1 215.266 279.648)" fill="white"/>
<ellipse cx="2.35489" cy="2.3529" rx="2.35489" ry="2.3529" transform="matrix(-1 0 0 1 215.266 285.531)" fill="white"/>
<ellipse cx="2.35489" cy="2.3529" rx="2.35489" ry="2.3529" transform="matrix(-1 0 0 1 227.031 262)" fill="white"/>
<ellipse cx="2.35489" cy="2.3529" rx="2.35489" ry="2.3529" transform="matrix(-1 0 0 1 227.031 267.883)" fill="white"/>
<ellipse cx="2.35489" cy="2.3529" rx="2.35489" ry="2.3529" transform="matrix(-1 0 0 1 227.031 273.766)" fill="white"/>
<ellipse cx="2.35489" cy="2.3529" rx="2.35489" ry="2.3529" transform="matrix(-1 0 0 1 227.031 279.648)" fill="white"/>
<ellipse cx="2.35489" cy="2.3529" rx="2.35489" ry="2.3529" transform="matrix(-1 0 0 1 227.031 285.531)" fill="white"/>
<ellipse cx="2.35489" cy="2.3529" rx="2.35489" ry="2.3529" transform="matrix(-1 0 0 1 209.375 262)" fill="white"/>
<ellipse cx="2.35489" cy="2.3529" rx="2.35489" ry="2.3529" transform="matrix(-1 0 0 1 209.375 267.883)" fill="white"/>
<ellipse cx="2.35489" cy="2.3529" rx="2.35489" ry="2.3529" transform="matrix(-1 0 0 1 209.375 273.766)" fill="white"/>
<ellipse cx="2.35489" cy="2.3529" rx="2.35489" ry="2.3529" transform="matrix(-1 0 0 1 209.375 279.648)" fill="white"/>
<ellipse cx="2.35489" cy="2.3529" rx="2.35489" ry="2.3529" transform="matrix(-1 0 0 1 209.375 285.531)" fill="white"/>
<ellipse cx="2.35489" cy="2.3529" rx="2.35489" ry="2.3529" transform="matrix(-1 0 0 1 238.812 262)" fill="white"/>
<ellipse cx="2.35489" cy="2.3529" rx="2.35489" ry="2.3529" transform="matrix(-1 0 0 1 238.812 267.883)" fill="white"/>
<ellipse cx="2.35489" cy="2.3529" rx="2.35489" ry="2.3529" transform="matrix(-1 0 0 1 238.812 273.766)" fill="white"/>
<ellipse cx="2.35489" cy="2.3529" rx="2.35489" ry="2.3529" transform="matrix(-1 0 0 1 238.812 279.648)" fill="white"/>
<ellipse cx="2.35489" cy="2.3529" rx="2.35489" ry="2.3529" transform="matrix(-1 0 0 1 238.812 285.531)" fill="white"/>
<ellipse cx="2.35489" cy="2.3529" rx="2.35489" ry="2.3529" transform="matrix(-1 0 0 1 221.148 262)" fill="white"/>
<ellipse cx="2.35489" cy="2.3529" rx="2.35489" ry="2.3529" transform="matrix(-1 0 0 1 221.148 267.883)" fill="white"/>
<ellipse cx="2.35489" cy="2.3529" rx="2.35489" ry="2.3529" transform="matrix(-1 0 0 1 221.148 273.766)" fill="white"/>
<ellipse cx="2.35489" cy="2.3529" rx="2.35489" ry="2.3529" transform="matrix(-1 0 0 1 221.148 279.648)" fill="white"/>
<ellipse cx="2.35489" cy="2.3529" rx="2.35489" ry="2.3529" transform="matrix(-1 0 0 1 221.148 285.531)" fill="white"/>
<ellipse cx="2.35489" cy="2.3529" rx="2.35489" ry="2.3529" transform="matrix(-1 0 0 1 203.492 262)" fill="white"/>
<ellipse cx="2.35489" cy="2.3529" rx="2.35489" ry="2.3529" transform="matrix(-1 0 0 1 203.492 267.883)" fill="white"/>
<ellipse cx="2.35489" cy="2.3529" rx="2.35489" ry="2.3529" transform="matrix(-1 0 0 1 203.492 273.766)" fill="white"/>
<ellipse cx="2.35489" cy="2.3529" rx="2.35489" ry="2.3529" transform="matrix(-1 0 0 1 203.492 279.648)" fill="white"/>
<ellipse cx="2.35489" cy="2.3529" rx="2.35489" ry="2.3529" transform="matrix(-1 0 0 1 203.492 285.531)" fill="white"/>
<ellipse cx="2.35489" cy="2.3529" rx="2.35489" ry="2.3529" transform="matrix(-1 0 0 1 256.477 291.414)" fill="white"/>
<ellipse cx="2.35489" cy="2.3529" rx="2.35489" ry="2.3529" transform="matrix(-1 0 0 1 256.477 297.297)" fill="white"/>
<ellipse cx="2.35489" cy="2.3529" rx="2.35489" ry="2.3529" transform="matrix(-1 0 0 1 250.586 291.414)" fill="white"/>
<ellipse cx="2.35489" cy="2.3529" rx="2.35489" ry="2.3529" transform="matrix(-1 0 0 1 250.586 297.297)" fill="white"/>
<ellipse cx="2.35489" cy="2.3529" rx="2.35489" ry="2.3529" transform="matrix(-1 0 0 1 262.359 291.414)" fill="white"/>
<ellipse cx="2.35489" cy="2.3529" rx="2.35489" ry="2.3529" transform="matrix(-1 0 0 1 262.359 297.297)" fill="white"/>
<ellipse cx="2.35489" cy="2.3529" rx="2.35489" ry="2.3529" transform="matrix(-1 0 0 1 244.703 291.414)" fill="white"/>
<ellipse cx="2.35489" cy="2.3529" rx="2.35489" ry="2.3529" transform="matrix(-1 0 0 1 244.703 297.297)" fill="white"/>
<ellipse cx="2.35489" cy="2.3529" rx="2.35489" ry="2.3529" transform="matrix(-1 0 0 1 232.922 291.414)" fill="white"/>
<ellipse cx="2.35489" cy="2.3529" rx="2.35489" ry="2.3529" transform="matrix(-1 0 0 1 232.922 297.297)" fill="white"/>
<ellipse cx="2.35489" cy="2.3529" rx="2.35489" ry="2.3529" transform="matrix(-1 0 0 1 215.266 291.414)" fill="white"/>
<ellipse cx="2.35489" cy="2.3529" rx="2.35489" ry="2.3529" transform="matrix(-1 0 0 1 215.266 297.297)" fill="white"/>
<ellipse cx="2.35489" cy="2.3529" rx="2.35489" ry="2.3529" transform="matrix(-1 0 0 1 227.031 291.414)" fill="white"/>
<ellipse cx="2.35489" cy="2.3529" rx="2.35489" ry="2.3529" transform="matrix(-1 0 0 1 227.031 297.297)" fill="white"/>
<ellipse cx="2.35489" cy="2.3529" rx="2.35489" ry="2.3529" transform="matrix(-1 0 0 1 209.375 291.414)" fill="white"/>
<ellipse cx="2.35489" cy="2.3529" rx="2.35489" ry="2.3529" transform="matrix(-1 0 0 1 209.375 297.297)" fill="white"/>
<ellipse cx="2.35489" cy="2.3529" rx="2.35489" ry="2.3529" transform="matrix(-1 0 0 1 238.812 291.414)" fill="white"/>
<ellipse cx="2.35489" cy="2.3529" rx="2.35489" ry="2.3529" transform="matrix(-1 0 0 1 238.812 297.297)" fill="white"/>
<ellipse cx="2.35489" cy="2.3529" rx="2.35489" ry="2.3529" transform="matrix(-1 0 0 1 221.148 291.414)" fill="white"/>
<ellipse cx="2.35489" cy="2.3529" rx="2.35489" ry="2.3529" transform="matrix(-1 0 0 1 221.148 297.297)" fill="white"/>
<ellipse cx="2.35489" cy="2.3529" rx="2.35489" ry="2.3529" transform="matrix(-1 0 0 1 203.492 291.414)" fill="white"/>
<ellipse cx="2.35489" cy="2.3529" rx="2.35489" ry="2.3529" transform="matrix(-1 0 0 1 203.492 297.297)" fill="white"/>
</mask>
<g mask="url(#mask1_2831_24437)">
<path d="M201.844 299.402C201.844 299.402 214.76 287.125 230.692 287.125C246.624 287.125 259.539 301.698 259.539 299.402C259.539 280.825 246.624 265.766 230.692 265.766C214.76 265.766 201.844 280.825 201.844 299.402Z" fill="#F29111"/>
</g>
<g filter="url(#filter4_d_2831_24437)">
<path d="M113.486 254.862L129.41 250.878C131.334 250.413 132.926 249.085 133.789 247.292L140.357 233.48C141.651 230.725 140.955 227.438 138.599 225.512L90.3633 185.57C87.7425 183.378 83.8611 183.578 81.4394 186.001L79.4821 187.96C76.3637 191.081 75.667 195.896 77.7902 199.78L106.022 251.642C107.481 254.232 110.533 255.593 113.486 254.862Z" fill="white"/>
<path d="M77.8241 199.767L95.7051 232.504L109.406 201.228L90.4304 185.523C87.8096 183.332 83.9282 183.531 81.5065 185.955L79.516 187.947C76.3976 191.068 75.7009 195.882 77.8241 199.767Z" fill="#F29111"/>
<path d="M351.122 373.588L355.106 357.664C355.571 355.74 356.899 354.148 358.692 353.285L372.504 346.717C375.26 345.423 378.547 346.12 380.472 348.475L420.415 396.711C422.606 399.332 422.407 403.213 419.983 405.635L418.024 407.592C414.903 410.711 410.089 411.407 406.204 409.284L354.342 381.052C351.719 379.56 350.358 376.508 351.122 373.588Z" fill="white"/>
<path d="M406.171 409.25L373.434 391.369L404.71 377.668L420.415 396.644C422.606 399.265 422.407 403.146 419.983 405.568L417.991 407.558C414.87 410.677 410.056 411.373 406.171 409.25Z" fill="#F29111"/>
</g>
<path d="M114.372 132.206L114.36 132.236C100.762 168.231 92.2047 204.605 88.1243 242.991C77.2766 250.115 67.5471 248.039 60.4764 244.154C56.9117 242.195 54.0272 239.776 52.0322 237.844C51.0355 236.879 50.263 236.037 49.7407 235.437C49.4797 235.138 49.2811 234.899 49.1487 234.736C49.1419 234.728 49.1362 234.719 49.1297 234.711L50.5351 231.281C64.3836 197.499 71.8788 161.448 72.6494 124.936L72.9631 110.135L119.669 120.54L114.372 132.206Z" fill="#8EC9E6" stroke="white"/>
<path d="M381.516 145.047L273.839 78.0425L158.01 143.225L268.686 188.003L381.516 145.047Z" fill="#414D5E"/>
<path d="M334.665 143.956L327.587 192.031L271.162 204.207L219.471 188.717L209.132 137.683C209.132 137.683 238.511 117.96 272.772 116.489C294.194 115.566 319.394 122.289 334.721 143.977L334.665 143.956Z" fill="#353F4C"/>
<path d="M197.744 171.629C198.533 171.642 199.198 170.972 199.211 170.184C199.225 169.808 199.725 132.261 199.691 124.536C199.661 118.145 203.568 117.717 203.606 117.699C204.398 117.618 205.008 116.928 204.909 116.097C204.81 115.266 204.138 114.695 203.307 114.793C201.006 115.004 196.705 117.315 196.703 124.55C196.72 132.237 196.22 169.784 196.205 170.159C196.193 170.948 196.862 171.613 197.668 171.664L197.744 171.629Z" fill="#8EC9E6"/>
<path d="M197.035 189.414L196.258 196.261L192.24 196.648L195.061 169.848L199.93 169.814L202.939 195.547L198.58 195.996L197.035 189.414Z" fill="#8EC9E6"/>
<path d="M120.387 120.149C119.84 122.595 108.691 122.169 95.4928 119.205C82.2943 116.241 71.935 111.876 72.4817 109.431C73.0284 106.986 84.2809 107.382 97.4847 110.352C110.683 113.316 120.939 117.71 120.387 120.149Z" fill="#548FAC"/>
<path d="M120.372 120.234L120.38 120.183C120.38 120.183 91.4934 116.476 83.8919 111.003L82.961 115.691C86.556 116.936 90.8561 118.157 95.5103 119.205C108.557 122.135 119.597 122.584 120.384 120.234L120.372 120.234Z" fill="#8EC9E6"/>
<path d="M100.085 179.017C97.7201 181.234 86.5446 189.766 66.5167 176.515C66.0113 179.053 65.4718 181.589 64.8989 184.113C78.0618 192.055 88.1266 191.842 94.3912 190.146C95.3854 189.879 96.6696 189.476 97.6226 189.116C98.404 185.738 99.2249 182.369 100.079 179.012L100.085 179.017Z" fill="white"/>
<path d="M70.9854 175.267L48.7578 149.137L49.1496 159.789L39.3747 162.15L67.3721 180.516L70.9854 175.267Z" fill="white"/>
<path d="M67.2086 182.952L43.3336 188.281L51.5179 192.406L48.7695 199.386L69.1038 188.555L67.2086 182.952Z" fill="white"/>
<path d="M66.1047 190.264C61.7315 186.111 61.6544 179.084 65.9329 174.575C70.2115 170.065 77.2305 169.778 81.6091 173.937C85.9823 178.09 86.0595 185.117 81.7809 189.626C77.5024 194.136 70.4833 194.423 66.1047 190.264Z" fill="#F29111"/>
</g>
<defs>
<filter id="filter0_d_2831_24437" x="118.949" y="88.0469" width="121.395" height="143.499" filterUnits="userSpaceOnUse" color-interpolation-filters="sRGB">
<feFlood flood-opacity="0" result="BackgroundImageFix"/>
<feColorMatrix in="SourceAlpha" type="matrix" values="0 0 0 0 0 0 0 0 0 0 0 0 0 0 0 0 0 0 127 0" result="hardAlpha"/>
<feOffset dy="4"/>
<feGaussianBlur stdDeviation="2"/>
<feComposite in2="hardAlpha" operator="out"/>
<feColorMatrix type="matrix" values="0 0 0 0 0 0 0 0 0 0 0 0 0 0 0 0 0 0 0.25 0"/>
<feBlend mode="normal" in2="BackgroundImageFix" result="effect1_dropShadow_2831_24437"/>
<feBlend mode="normal" in="SourceGraphic" in2="effect1_dropShadow_2831_24437" result="shape"/>
</filter>
<filter id="filter1_d_2831_24437" x="290.262" y="88.0781" width="121.465" height="143.468" filterUnits="userSpaceOnUse" color-interpolation-filters="sRGB">
<feFlood flood-opacity="0" result="BackgroundImageFix"/>
<feColorMatrix in="SourceAlpha" type="matrix" values="0 0 0 0 0 0 0 0 0 0 0 0 0 0 0 0 0 0 127 0" result="hardAlpha"/>
<feOffset dy="4"/>
<feGaussianBlur stdDeviation="2"/>
<feComposite in2="hardAlpha" operator="out"/>
<feColorMatrix type="matrix" values="0 0 0 0 0 0 0 0 0 0 0 0 0 0 0 0 0 0 0.25 0"/>
<feBlend mode="normal" in2="BackgroundImageFix" result="effect1_dropShadow_2831_24437"/>
<feBlend mode="normal" in="SourceGraphic" in2="effect1_dropShadow_2831_24437" result="shape"/>
</filter>
<filter id="filter2_d_2831_24437" x="148.59" y="172.148" width="243.699" height="214.914" filterUnits="userSpaceOnUse" color-interpolation-filters="sRGB">
<feFlood flood-opacity="0" result="BackgroundImageFix"/>
<feColorMatrix in="SourceAlpha" type="matrix" values="0 0 0 0 0 0 0 0 0 0 0 0 0 0 0 0 0 0 127 0" result="hardAlpha"/>
<feOffset/>
<feGaussianBlur stdDeviation="4"/>
<feComposite in2="hardAlpha" operator="out"/>
<feColorMatrix type="matrix" values="0 0 0 0 0 0 0 0 0 0 0 0 0 0 0 0 0 0 0.25 0"/>
<feBlend mode="normal" in2="BackgroundImageFix" result="effect1_dropShadow_2831_24437"/>
<feBlend mode="normal" in="SourceGraphic" in2="effect1_dropShadow_2831_24437" result="shape"/>
</filter>
<filter id="filter3_d_2831_24437" x="155.59" y="178.148" width="229.699" height="200.914" filterUnits="userSpaceOnUse" color-interpolation-filters="sRGB">
<feFlood flood-opacity="0" result="BackgroundImageFix"/>
<feColorMatrix in="SourceAlpha" type="matrix" values="0 0 0 0 0 0 0 0 0 0 0 0 0 0 0 0 0 0 127 0" result="hardAlpha"/>
<feOffset dy="-1"/>
<feGaussianBlur stdDeviation="0.5"/>
<feComposite in2="hardAlpha" operator="out"/>
<feColorMatrix type="matrix" values="0 0 0 0 0 0 0 0 0 0 0 0 0 0 0 0 0 0 0.1 0"/>
<feBlend mode="normal" in2="BackgroundImageFix" result="effect1_dropShadow_2831_24437"/>
<feBlend mode="normal" in="SourceGraphic" in2="effect1_dropShadow_2831_24437" result="shape"/>
</filter>
<filter id="filter4_d_2831_24437" x="68.5703" y="176" width="361.367" height="242.505" filterUnits="userSpaceOnUse" color-interpolation-filters="sRGB">
<feFlood flood-opacity="0" result="BackgroundImageFix"/>
<feColorMatrix in="SourceAlpha" type="matrix" values="0 0 0 0 0 0 0 0 0 0 0 0 0 0 0 0 0 0 127 0" result="hardAlpha"/>
<feOffset/>
<feGaussianBlur stdDeviation="4"/>
<feComposite in2="hardAlpha" operator="out"/>
<feColorMatrix type="matrix" values="0 0 0 0 0 0 0 0 0 0 0 0 0 0 0 0 0 0 0.25 0"/>
<feBlend mode="normal" in2="BackgroundImageFix" result="effect1_dropShadow_2831_24437"/>
<feBlend mode="normal" in="SourceGraphic" in2="effect1_dropShadow_2831_24437" result="shape"/>
</filter>
<clipPath id="clip0_2831_24437">
<rect width="500" height="500" fill="white" transform="matrix(-1 0 0 1 500 0)"/>
</clipPath>
</defs>
</svg>
