<svg width="150" height="150" viewBox="0 0 150 150" fill="none" xmlns="http://www.w3.org/2000/svg">
<g filter="url(#filter0_i)">
<path d="M82.9901 71.9038C84.7182 71.0201 86.6433 70.5529 88.6405 70.5529C91.9503 70.5529 95.0621 71.8378 97.4078 74.1713L102.457 69.1221C114.954 73.5024 129.407 70.6982 139.396 60.7089C147.802 52.3034 151.117 40.7385 149.347 29.8374C149.152 28.6369 148.302 27.6467 147.145 27.2731C145.988 26.8991 144.718 27.203 143.859 28.0632L136.361 35.561C130.255 41.6668 120.355 41.6668 114.249 35.561C108.143 29.4551 108.143 19.5549 114.249 13.449L121.747 5.95129C122.607 5.09109 122.913 3.821 122.539 2.66349C122.165 1.50547 121.173 0.657549 119.972 0.462583C109.071 -1.30694 97.5061 2.00798 89.101 10.4135C78.9628 20.5517 76.2344 35.2851 80.8972 47.9067L69.9453 58.8585L82.9901 71.9038Z" fill="#94CFDC"/>
<path d="M63.034 91.7493L50.0439 78.7593L4.62111 124.182C-1.28516 130.088 -1.28516 139.664 4.62111 145.57C10.5274 151.476 20.1032 151.476 26.0095 145.57L65.1668 106.413C61.2174 102.443 60.5055 96.4484 63.034 91.7493Z" fill="#94CFDC"/>
<path d="M92.0051 79.622C91.0763 78.6933 89.8584 78.2286 88.641 78.2286C87.4236 78.2286 86.2057 78.6933 85.277 79.622L82.5654 82.3336L34.2631 34.0313L36.5208 31.7736C38.5779 29.717 38.3225 26.3054 35.9778 24.5789L16.2705 10.0649C14.3766 8.6705 11.7484 8.86854 10.0853 10.5316L1.71766 18.8998C0.0545735 20.5629 -0.143462 23.1916 1.25098 25.0849L15.7644 44.7923C17.4909 47.1365 20.9005 47.3944 22.9592 45.3352L25.2169 43.077L73.5192 91.3793L70.6167 94.2818C68.7586 96.1398 68.7586 99.1518 70.6167 101.01L115.177 145.57C121.083 151.476 130.659 151.476 136.565 145.57C142.471 139.664 142.471 130.088 136.565 124.182L92.0051 79.622Z" fill="#94CFDC"/>
</g>
<defs>
<filter id="filter0_i" x="0" y="0" width="152" height="154" filterUnits="userSpaceOnUse" color-interpolation-filters="sRGB">
<feFlood flood-opacity="0" result="BackgroundImageFix"/>
<feBlend mode="normal" in="SourceGraphic" in2="BackgroundImageFix" result="shape"/>
<feColorMatrix in="SourceAlpha" type="matrix" values="0 0 0 0 0 0 0 0 0 0 0 0 0 0 0 0 0 0 127 0" result="hardAlpha"/>
<feOffset dx="2" dy="4"/>
<feGaussianBlur stdDeviation="2"/>
<feComposite in2="hardAlpha" operator="arithmetic" k2="-1" k3="1"/>
<feColorMatrix type="matrix" values="0 0 0 0 0 0 0 0 0 0.235294 0 0 0 0 0.290196 0 0 0 0.3 0"/>
<feBlend mode="normal" in2="shape" result="effect1_innerShadow"/>
</filter>
</defs>
</svg>
