<svg width="150" height="150" viewBox="0 0 150 150" fill="none" xmlns="http://www.w3.org/2000/svg">
<g filter="url(#filter0_i)">
<path d="M143.567 112.609C130.142 99.1836 131.022 100.034 130.644 99.7551L95.108 73.5181L108.894 59.7336C119.977 63.6832 132.526 60.9527 140.971 52.5072C150.172 43.3062 152.587 29.2394 146.981 17.504C145.675 14.7696 142.051 14.1503 139.911 16.291L128.546 27.6556C126.834 29.3683 124.047 29.3686 122.333 27.6556C120.616 25.9384 120.616 23.16 122.333 21.4429L133.698 10.0781C135.841 7.93557 135.218 4.31272 132.485 3.00783C120.75 -2.59842 106.683 -0.183183 97.4819 9.0175C89.0344 17.465 86.3071 30.0143 90.2555 41.0949L74.3567 56.9923C71.1196 54.4746 75.3912 58.775 44.9033 26.4471L48.0994 23.251C50.1208 21.23 49.6996 17.8456 47.2532 16.3778L23.7237 2.25988C17.556 -1.4409 9.6964 -0.473516 4.61018 4.61272C-0.475759 9.69865 -1.44344 17.5587 2.25734 23.7263L16.3752 47.2562C17.8454 49.7071 21.2311 50.1196 23.2486 48.1021L26.2626 45.0881C56.5924 77.2488 52.6006 72.8802 54.9982 75.9633C55.0549 76.0362 55.1183 76.1006 55.1787 76.1692L41.0807 90.2659C30.0007 86.3177 17.4505 89.0448 9.00354 97.4923C-0.197437 106.693 -2.61266 120.76 2.99388 132.496C4.3008 135.23 7.92366 135.849 10.0644 133.708L21.4289 122.344C23.1424 120.631 25.9289 120.631 27.6419 122.344C29.3591 124.061 29.3591 126.839 27.6419 128.556L16.2768 139.921C14.134 142.064 14.7574 145.687 17.4897 146.992C21.7079 149.007 26.226 149.986 30.7125 149.986C38.7077 149.985 46.599 146.876 52.493 140.982C60.9404 132.535 63.6677 119.985 59.7194 108.904L71.7591 96.8654L99.7916 130.932C100.005 131.19 99.3012 130.47 111.839 143.008C116.403 147.572 122.471 149.938 128.438 149.938C132.816 149.938 137.14 148.663 140.772 146.048C151.855 138.065 153.162 122.203 143.567 112.609ZM29.5512 35.7691C27.8482 33.9634 24.9932 33.9319 23.2486 35.6768L21.0141 37.911L9.79133 19.2058C8.16888 16.5017 8.5928 13.0555 10.8229 10.8254C13.053 8.59505 16.4991 8.17141 19.2029 9.79387L37.9081 21.0169L35.6736 23.2509C33.9934 24.931 33.9537 27.6426 35.5841 29.3712C70.6149 66.5165 65.1044 60.9269 68.0951 63.253L61.4279 69.9196C59.1237 66.9564 64.4739 72.7998 29.5512 35.7691ZM51.4321 104.766C50.1155 106.082 49.7719 108.085 50.5747 109.766C54.5792 118.148 52.853 128.196 46.2803 134.769C42.0692 138.98 36.4324 141.202 30.7202 141.201C29.6927 141.201 28.6633 141.129 27.6387 140.984L33.8543 134.769C39.0049 129.618 39.006 121.281 33.8543 116.13C28.716 110.991 20.3543 110.992 15.2159 116.13L9.00032 122.346C8.04876 115.626 10.2478 108.673 15.2159 103.705C21.789 97.1313 31.8366 95.4062 40.2191 99.4101C41.8989 100.212 43.9019 99.8695 45.2192 98.5526L98.5423 45.2332C99.8591 43.9166 100.203 41.9133 99.4002 40.2331C95.3956 31.851 97.1218 21.8027 103.694 15.2299C108.664 10.2612 115.617 8.06243 122.336 9.01428L116.12 15.2299C113.631 17.7189 112.259 21.029 112.259 24.5492C112.259 28.0696 113.631 31.379 116.12 33.8687C121.258 39.0072 129.62 39.007 134.758 33.8687L140.974 27.653C141.926 34.3722 139.727 41.3259 134.758 46.2939C128.185 52.867 118.137 54.5929 109.755 50.5885C108.076 49.7862 106.072 50.1295 104.755 51.4461L51.4321 104.766ZM77.9828 90.6421L88.8252 79.8005L99.8756 87.9592L86.6731 101.162C77.6966 90.2533 78.2567 90.9108 77.9828 90.6421ZM135.637 138.918C130.513 142.608 122.952 141.696 118.051 136.795L106.44 125.185L92.2817 107.978L107.023 93.2366L125.161 106.628L137.354 118.821C142.927 124.394 142.569 133.925 135.637 138.918Z" fill="#94CFDC"/>
<path d="M131.068 124.277L113.496 106.705C111.78 104.989 108.998 104.989 107.283 106.705C105.567 108.42 105.567 111.202 107.283 112.917L124.855 130.49C126.571 132.205 129.352 132.206 131.068 130.49C132.784 128.774 132.784 125.993 131.068 124.277Z" fill="#94CFDC"/>
</g>
<defs>
<filter id="filter0_i" x="0" y="0" width="152" height="154" filterUnits="userSpaceOnUse" color-interpolation-filters="sRGB">
<feFlood flood-opacity="0" result="BackgroundImageFix"/>
<feBlend mode="normal" in="SourceGraphic" in2="BackgroundImageFix" result="shape"/>
<feColorMatrix in="SourceAlpha" type="matrix" values="0 0 0 0 0 0 0 0 0 0 0 0 0 0 0 0 0 0 127 0" result="hardAlpha"/>
<feOffset dx="2" dy="4"/>
<feGaussianBlur stdDeviation="2"/>
<feComposite in2="hardAlpha" operator="arithmetic" k2="-1" k3="1"/>
<feColorMatrix type="matrix" values="0 0 0 0 0 0 0 0 0 0.235294 0 0 0 0 0.290196 0 0 0 0.3 0"/>
<feBlend mode="normal" in2="shape" result="effect1_innerShadow"/>
</filter>
</defs>
</svg>
