<svg width="64" height="64" viewBox="0 0 64 64" fill="none" xmlns="http://www.w3.org/2000/svg">
<path fill-rule="evenodd" clip-rule="evenodd" d="M4 12C4 7.58203 7.58179 4 12 4H52C56.4185 4 60 7.58203 60 12V52C60 56.418 56.4185 60 52 60H12C7.58179 60 4 56.418 4 52V12ZM41.2808 30.167V14.5615L36.668 16.3838V14.3398L42.2476 10.3623H44.7056V30.167H41.2808ZM21.5415 27.8984C22.8303 29.6475 24.7087 30.5225 27.1763 30.5225C29.6436 30.5225 31.5127 29.6475 32.7832 27.8984C34.0723 26.1494 34.7168 23.5801 34.7168 20.1924C34.7168 13.3975 32.2031 10 27.1763 10C22.1492 10 19.6355 13.3975 19.6355 20.1924C19.6355 23.5801 20.2708 26.1494 21.5415 27.8984ZM30.2698 25.8271C29.6069 27.0605 28.5757 27.6777 27.1763 27.6777C25.7766 27.6777 24.7363 27.0605 24.0549 25.8271C23.3921 24.5928 23.0605 22.7148 23.0605 20.1924C23.0605 17.6699 23.3921 15.8193 24.0549 14.6406C24.7363 13.4434 25.7766 12.8447 27.1763 12.8447C28.594 12.8447 29.6345 13.4434 30.2974 14.6406C30.9602 15.8193 31.2917 17.6699 31.2917 20.1924C31.2917 22.7148 30.9512 24.5928 30.2698 25.8271ZM37.9653 53.999C35.4976 53.999 33.6194 53.125 32.3303 51.375C31.0598 49.626 30.4246 47.0576 30.4246 43.6689C30.4246 36.874 32.938 33.4766 37.9653 33.4766C42.9922 33.4766 45.5059 36.874 45.5059 43.6689C45.5059 47.0576 44.8613 49.626 43.5723 51.375C42.3018 53.125 40.4326 53.999 37.9653 53.999ZM37.9653 51.1543C39.3647 51.1543 40.396 50.5371 41.0586 49.3037C41.7402 48.0703 42.0806 46.1914 42.0806 43.6689C42.0806 41.1465 41.7495 39.2959 41.0864 38.1172C40.4233 36.9199 39.3833 36.3223 37.9653 36.3223C37.3408 36.3223 36.7878 36.4414 36.3064 36.6797C35.7087 36.9746 35.2214 37.4541 34.844 38.1172C34.1812 39.2959 33.8496 41.1465 33.8496 43.6689C33.8496 46.1914 34.1812 48.0703 34.844 49.3037C35.5254 50.5371 36.5657 51.1543 37.9653 51.1543ZM23.6128 38.0352V53.6406H27.0378V33.8369H24.5796L19 37.8145V39.8584L23.6128 38.0352Z" fill="#8EC9E6"/>
</svg>
