<svg width="64" height="64" viewBox="0 0 64 64" fill="none" xmlns="http://www.w3.org/2000/svg">
<path d="M4 16C4 9.37258 9.37258 4 16 4H48C54.6274 4 60 9.37258 60 16V48C60 54.6274 54.6274 60 48 60H16C9.37258 60 4 54.6274 4 48V16Z" fill="#8EC9E6"/>
<path d="M45.5455 44.2275C49.1102 44.2275 52 41.3376 52 37.7729C52 34.7107 49.8668 32.1483 47.0059 31.4863C46.9473 25.0071 41.6777 19.7725 35.1847 19.7725C30.7269 19.7725 26.846 22.24 24.8317 25.8835C24.2188 25.6182 23.5433 25.4706 22.833 25.4706C20.2745 25.4706 18.1628 27.3785 17.8395 29.8489C14.5102 30.509 12 33.4451 12 36.9682C12 40.9775 15.2501 44.2275 19.2591 44.2275C20.3759 44.2275 44.7804 44.2275 45.5455 44.2275Z" fill="#161D24"/>
</svg>
