<svg width="64" height="64" viewBox="0 0 64 64" fill="none" xmlns="http://www.w3.org/2000/svg">
<path fill-rule="evenodd" clip-rule="evenodd" d="M16 4C9.37258 4 4 9.37258 4 16V48C4 54.6274 9.37258 60 16 60H48C54.6274 60 60 54.6274 60 48V16C60 9.37258 54.6274 4 48 4H16ZM32 49.5H38.9641C41.3273 49.5 43.25 47.5508 43.25 45.1547V40.2141H44.3812C47.2039 40.2141 49.5 37.8867 49.5 35.0266C49.5 32.2422 47.175 29.9766 44.3172 29.9766H43.25V25.0359C43.2561 24.4714 43.1493 23.9114 42.9361 23.3886C42.7229 22.8659 42.4074 22.391 42.0082 21.9918C41.609 21.5926 41.1341 21.2771 40.6114 21.0639C40.0886 20.8507 39.5286 20.7439 38.9641 20.75H34.0234V19.682C34.0234 16.8734 31.768 14.5484 28.9953 14.5C28.3155 14.4881 27.6402 14.6117 27.0087 14.8635C26.3772 15.1154 25.8023 15.4906 25.3173 15.9671C24.8324 16.4436 24.4472 17.0119 24.1843 17.6389C23.9214 18.2658 23.7859 18.9389 23.7859 19.6187V20.75H18.8453C17.7068 20.744 16.6109 21.183 15.7914 21.9734C15.3811 22.3674 15.055 22.8406 14.833 23.3644C14.611 23.8881 14.4977 24.4515 14.5 25.0203V32H18.0086C19.5984 32 20.9609 33.3977 20.9844 35.0531C20.9874 35.4863 20.9048 35.9159 20.7412 36.3171C20.5777 36.7182 20.3364 37.0831 20.0312 37.3906C19.4828 37.9438 18.7867 38.25 18.0711 38.25H14.5V45.1547C14.5012 46.3068 14.9594 47.4113 15.7741 48.2259C16.5887 49.0406 17.6932 49.4988 18.8453 49.5H25.75V45.9914C25.75 45.0648 26.2336 44.443 26.6398 44.0836C27.2596 43.5529 28.0466 43.2577 28.8625 43.25C29.7797 43.2367 30.6516 43.5688 31.2508 44.1594C31.4887 44.3885 31.6777 44.6633 31.8065 44.9675C31.9353 45.2716 32.0011 45.5986 32 45.9289V49.5Z" fill="#8EC9E6"/>
</svg>
