<svg width="64" height="64" viewBox="0 0 64 64" fill="none" xmlns="http://www.w3.org/2000/svg">
<path fill-rule="evenodd" clip-rule="evenodd" d="M16 4C9.37258 4 4 9.37258 4 16V48C4 54.6274 9.37258 60 16 60H48C54.6274 60 60 54.6274 60 48V16C60 9.37258 54.6274 4 48 4H16ZM46.5 22C49.5371 22 52 19.5371 52 16.5C52 13.4629 49.5371 11 46.5 11C43.4629 11 41 13.4629 41 16.5C41 17.6631 41.3613 18.7412 41.9766 19.6299L35.0547 26.5518C34.4453 26.1377 33.7812 25.7969 33.0781 25.541L34.2988 20.9893C34.8555 20.9482 35.3828 20.792 35.8535 20.5449C36.2832 20.3193 36.668 20.0186 36.9883 19.6592C37.6172 18.9521 38 18.0205 38 17C38 14.791 36.209 13 34 13C31.791 13 30 14.791 30 17C30 18.4639 30.7871 19.7441 31.9609 20.4414L30.7305 25.0293C30.4902 25.0098 30.2461 25 30 25C28.6328 25 27.3359 25.3047 26.1758 25.8506L21.9453 20.7393C22.6094 19.8301 23 18.7109 23 17.5C23 14.4629 20.5371 12 17.5 12C14.4629 12 12 14.4629 12 17.5C12 20.5371 14.4629 23 17.5 23C18.457 23 19.3574 22.7549 20.1406 22.3252L24.1465 27.1631C23.9336 27.3457 23.7285 27.5381 23.5332 27.7402C23.3379 27.9424 23.1504 28.1543 22.9746 28.374C22.3828 29.1113 21.9062 29.9434 21.5684 30.8438C21.2012 31.8262 21 32.8896 21 34C21 35.0098 21.166 35.9805 21.4727 36.8867L18.9824 38.7461C18.2715 38.2744 17.418 38 16.5 38C14.0156 38 12 40.0146 12 42.5C12 44.9854 14.0156 47 16.5 47C18.9844 47 21 44.9854 21 42.5C21 42.1992 20.9707 41.9053 20.9141 41.6211C20.8418 41.249 20.7227 40.8936 20.5625 40.5615L22.5625 39.0684C24.1836 41.4414 26.9082 43 30 43C31.498 43 32.9082 42.6338 34.1504 41.9873L36.2363 44.4014C35.4707 45.208 35 46.2988 35 47.5C35 49.9854 37.0156 52 39.5 52C41.9844 52 44 49.9854 44 47.5C44 45.0146 41.9844 43 39.5 43C39.0957 43 38.7031 43.0537 38.3301 43.1533L36.1211 40.5967C37.3262 39.4775 38.2246 38.0322 38.6758 36.4004H41.0742C41.5039 39.0098 43.7695 41 46.5 41C49.5371 41 52 38.5371 52 35.5C52 32.4629 49.5371 30 46.5 30C43.9824 30 41.8594 31.6914 41.207 34H39C39 31.7695 38.1895 29.7285 36.8457 28.1562L43.7422 21.2588C44.5527 21.7305 45.4941 22 46.5 22Z" fill="#8EC9E6"/>
</svg>
