<svg width="64" height="64" viewBox="0 0 64 64" fill="none" xmlns="http://www.w3.org/2000/svg">
<path fill-rule="evenodd" clip-rule="evenodd" d="M4 16C4 9.37258 9.37258 4 16 4H48C54.6274 4 60 9.37258 60 16V48C60 54.6274 54.6274 60 48 60H16C9.37258 60 4 54.6274 4 48V16ZM23.6957 25.1562L40.3062 25.2107C40.0984 21.2679 36.5184 17.0564 32.0015 17.0564C27.5059 17.0564 23.9379 21.2297 23.6957 25.1562ZM44.4663 25.2244L44.5312 25.2246C46.891 25.5187 48.7343 27.4955 48.7346 29.8954V45.9741C48.7346 48.5776 46.5715 50.7077 43.9317 50.7077H20.07C17.4241 50.7077 15.2657 48.5776 15.2657 45.9741V29.8954C15.2657 27.6198 16.9289 25.7449 19.1072 25.3021C19.1054 25.2839 19.2694 25.267 19.5326 25.2517C19.7655 19.5464 25.0778 13.2923 32.0015 13.2923C38.9173 13.2923 44.2206 19.5254 44.4663 25.2244ZM33.1377 42.6795V38.3901C34.3013 37.9412 35.1254 36.8327 35.1254 35.5276C35.1254 33.8258 33.7281 32.4449 31.9985 32.4449C30.2719 32.4449 28.8729 33.8258 28.8729 35.5276C28.8729 36.8327 29.6957 37.9412 30.8626 38.3916V42.6795C30.8626 43.2989 31.3715 43.7987 31.9988 43.7987C32.6273 43.7987 33.1377 43.2989 33.1377 42.6795Z" fill="#8EC9E6"/>
</svg>
