<svg width="64" height="64" viewBox="0 0 64 64" fill="none" xmlns="http://www.w3.org/2000/svg">
<path fill-rule="evenodd" clip-rule="evenodd" d="M16 4C9.37258 4 4 9.37258 4 16V48C4 54.6274 9.37258 60 16 60H48C54.6274 60 60 54.6274 60 48V16C60 9.37258 54.6274 4 48 4H16ZM47.9845 26.7772L51.0588 27.4456C51.6082 27.5652 52 28.0513 52 28.6135V35.3865C52 35.9487 51.6082 36.4348 51.0588 36.5544L47.9845 37.2228C47.7172 38.0413 47.386 38.8396 46.9951 39.6086L48.6971 42.256C49.001 42.7291 48.9342 43.3501 48.5369 43.7474L43.7474 48.5369C43.3501 48.9345 42.7291 49.001 42.256 48.6971L39.6086 46.9951C38.8396 47.386 38.0413 47.7172 37.2228 47.9845L36.5544 51.0588C36.4351 51.6082 35.9487 52 35.3865 52H28.6135C28.0513 52 27.5649 51.6082 27.4456 51.0588L26.7772 47.9845C25.9587 47.7172 25.1604 47.386 24.3914 46.9951L21.744 48.6971C21.2709 49.001 20.6499 48.9342 20.2526 48.5369L15.4631 43.7474C15.0658 43.3501 14.999 42.7291 15.3029 42.256L17.0049 39.6086C16.614 38.8396 16.2828 38.0413 16.0155 37.2228L12.9412 36.5544C12.3918 36.4348 12 35.9487 12 35.3865V28.6135C12 28.0513 12.3918 27.5652 12.9412 27.4456L16.0155 26.7772C16.2828 25.9587 16.614 25.1604 17.0049 24.3914L15.3029 21.744C14.999 21.2709 15.0658 20.6499 15.4631 20.2526L20.2526 15.4631C20.6499 15.0658 21.2709 14.999 21.744 15.3029L24.3914 17.0049C25.1604 16.614 25.9587 16.2828 26.7772 16.0155L27.4456 12.9412C27.5649 12.3918 28.0513 12 28.6135 12H35.3865C35.9487 12 36.4351 12.3918 36.5544 12.9412L37.2228 16.0155C38.0413 16.2828 38.8396 16.614 39.6086 17.0049L42.256 15.3029C42.7291 14.999 43.3501 15.0658 43.7474 15.4631L48.5369 20.2526C48.9342 20.6499 49.001 21.2709 48.6971 21.744L46.9951 24.3914C47.386 25.1604 47.7172 25.9587 47.9845 26.7772ZM32 39.1713C35.9542 39.1713 39.1713 35.9542 39.1713 32C39.1713 28.0458 35.9542 24.8287 32 24.8287C28.0458 24.8287 24.8287 28.0458 24.8287 32C24.8287 35.9542 28.0458 39.1713 32 39.1713Z" fill="#8EC9E6"/>
</svg>
