<svg width="64" height="64" viewBox="0 0 64 64" fill="none" xmlns="http://www.w3.org/2000/svg">
<path fill-rule="evenodd" clip-rule="evenodd" d="M16 4C9.37305 4 4 9.37305 4 16V48C4 54.627 9.37305 60 16 60H48C54.627 60 60 54.627 60 48V16C60 9.37305 54.627 4 48 4H16ZM35.6367 30.8145C35.1055 30.8145 34.5918 30.9385 34.1309 31.1748L30.6523 27.6953L33.5723 24.7754C32.3301 21.4092 33.0566 17.4805 35.7598 14.7773C38.002 12.5352 41.0859 11.6514 43.9922 12.123C44.3125 12.1758 44.5781 12.4014 44.6777 12.71C44.7773 13.0186 44.6953 13.3574 44.4668 13.5869L42.4668 15.5859C40.8379 17.2148 40.8379 19.8545 42.4668 21.4834C43.2715 22.2891 44.3262 22.6963 45.3828 22.7041C45.8965 22.708 46.4102 22.6172 46.8984 22.4326C47.4316 22.2295 47.9336 21.9131 48.3633 21.4834L50.3633 19.4834C50.4199 19.4268 50.4824 19.3789 50.5508 19.3408C50.7578 19.2256 51.0059 19.1973 51.2383 19.2725C51.5469 19.3721 51.7734 19.6367 51.8262 19.957C52.2988 22.8633 51.4141 25.9473 49.1719 28.1895C46.5078 30.8525 42.6543 31.6006 39.3223 30.4326L37.9746 31.7793C37.3496 31.1572 36.5195 30.8145 35.6367 30.8145ZM28.8086 36.4668L25.3457 33.0029L13.2324 45.1152C11.6562 46.6904 11.6562 49.2441 13.2324 50.8184C14.8066 52.3936 17.3613 52.3936 18.9355 50.8184L29.377 40.377C28.3242 39.3184 28.1348 37.7197 28.8086 36.4668ZM35.6367 32.8613C35.9629 32.8613 36.2871 32.9854 36.5352 33.2324L48.418 45.1152C49.9922 46.6904 49.9922 49.2441 48.418 50.8184C46.8418 52.3936 44.2891 52.3936 42.7129 50.8184L30.8301 38.9355C30.3359 38.4404 30.3359 37.6377 30.8301 37.1416L31.6055 36.3682L18.7246 23.4873L18.123 24.0898C17.5742 24.6387 16.6641 24.5693 16.2031 23.9443L12.334 18.6895C11.9609 18.1846 12.0137 17.4834 12.457 17.04L14.6895 14.8086C15.1328 14.3652 15.834 14.3125 16.3379 14.6836L21.5938 18.5547C22.2188 19.0146 22.2871 19.9248 21.7383 20.4727L21.1367 21.0752L34.0176 33.9561L34.7402 33.2324C34.9883 32.9854 35.3125 32.8613 35.6367 32.8613Z" fill="#8EC9E6"/>
</svg>
