<svg width="64" height="64" viewBox="0 0 64 64" fill="none" xmlns="http://www.w3.org/2000/svg">
<path fill-rule="evenodd" clip-rule="evenodd" d="M4 16C4 9.37258 9.37258 4 16 4H48C54.6274 4 60 9.37258 60 16V48C60 54.6274 54.6274 60 48 60H16C9.37258 60 4 54.6274 4 48V16ZM23.6956 25.1558L40.3062 25.2104C40.0984 21.2676 36.5183 17.056 32.0014 17.056C27.5059 17.056 23.9378 21.2293 23.6956 25.1558ZM44.4663 25.2241L44.5312 25.2243C46.891 25.5183 48.7343 27.4952 48.7346 29.8951V45.9737C48.7346 48.5773 46.5715 50.7074 43.9317 50.7074H20.07C17.424 50.7074 15.2656 48.5773 15.2656 45.9737V29.8951C15.2656 27.6195 16.9289 25.7446 19.1071 25.3017C19.1053 25.2836 19.2694 25.2667 19.5326 25.2514C19.7655 19.5461 25.0777 13.292 32.0014 13.292C38.9172 13.292 44.2205 19.525 44.4663 25.2241ZM33.1376 42.6791V38.3898C34.3013 37.9408 35.1253 36.8324 35.1253 35.5273C35.1253 33.8254 33.7281 32.4446 31.9985 32.4446C30.2718 32.4446 28.8728 33.8254 28.8728 35.5273C28.8728 36.8324 29.6957 37.9408 30.8626 38.3913V42.6791C30.8626 43.2985 31.3715 43.7984 31.9988 43.7984C32.6272 43.7984 33.1376 43.2985 33.1376 42.6791Z" fill="#8EC9E6"/>
<path d="M36 24L47 14V25.5L36 25V24Z" fill="#8EC9E6"/>
</svg>
