<svg width="146" height="40" viewBox="0 0 146 40" fill="none" xmlns="http://www.w3.org/2000/svg">
<path d="M61.428 28.188V25.08C63.5187 25.9013 65.5347 26.312 67.476 26.312C68.8387 26.312 69.9027 26.06 70.668 25.556C71.452 25.052 71.844 24.3613 71.844 23.484C71.844 22.8307 71.6013 22.2987 71.116 21.888C70.6307 21.4587 69.7253 21.0107 68.4 20.544L66.272 19.76C64.4613 19.088 63.164 18.304 62.38 17.408C61.6147 16.4933 61.232 15.3827 61.232 14.076C61.232 12.284 61.904 10.8747 63.248 9.848C64.592 8.80267 66.4213 8.28 68.736 8.28C69.7067 8.28 70.6773 8.38267 71.648 8.588C72.6373 8.79333 73.496 9.07333 74.224 9.428V12.536C72.3013 11.7333 70.4813 11.332 68.764 11.332C66.0947 11.332 64.76 12.1907 64.76 13.908C64.76 14.524 65.0027 15.028 65.488 15.42C65.9733 15.812 66.86 16.2507 68.148 16.736L70.304 17.52C72.1893 18.2107 73.5053 19.004 74.252 19.9C75.0173 20.796 75.4 21.9533 75.4 23.372C75.4 25.2387 74.7373 26.704 73.412 27.768C72.0867 28.832 70.2293 29.364 67.84 29.364C67.0747 29.364 66.2813 29.308 65.46 29.196C64.6573 29.1027 63.9013 28.972 63.192 28.804C62.4827 28.6173 61.8947 28.412 61.428 28.188ZM78.3116 34.628V14.272H80.5796L81.0836 16.54C81.6622 15.7187 82.3622 15.084 83.1836 14.636C84.0236 14.188 84.9196 13.964 85.8716 13.964C87.8129 13.964 89.3342 14.6453 90.4356 16.008C91.5369 17.352 92.0876 19.2373 92.0876 21.664C92.0876 24.0907 91.5369 25.976 90.4356 27.32C89.3529 28.6453 87.8316 29.308 85.8716 29.308C84.2662 29.308 82.8849 28.7573 81.7276 27.656V34.628H78.3116ZM85.2276 16.708C84.5182 16.708 83.8462 16.904 83.2116 17.296C82.5956 17.6693 82.0916 18.1733 81.6996 18.808V24.94C82.6329 26.0413 83.8089 26.592 85.2276 26.592C86.3289 26.592 87.1689 26.172 87.7476 25.332C88.3449 24.4733 88.6436 23.2413 88.6436 21.636C88.6436 20.0307 88.3449 18.808 87.7476 17.968C87.1689 17.128 86.3289 16.708 85.2276 16.708ZM95.1553 29V14.272H97.4233L97.9553 16.708C98.422 15.924 99.01 15.3173 99.7193 14.888C100.429 14.44 101.259 14.216 102.211 14.216C102.566 14.216 102.893 14.244 103.191 14.3V17.352H102.379C101.353 17.352 100.513 17.6413 99.8593 18.22C99.206 18.78 98.7766 19.5267 98.5713 20.46V29H95.1553ZM106.059 11.304V8.504H109.951V11.304H106.059ZM106.563 29V16.764L105.079 15.672V14.272H109.979V29H106.563ZM113.886 29V14.272H116.154L116.658 16.652C117.311 15.7933 118.076 15.1307 118.954 14.664C119.85 14.1973 120.848 13.964 121.95 13.964C123.648 13.964 124.946 14.4773 125.842 15.504C126.738 16.512 127.186 17.9867 127.186 19.928V29H123.77V20.04C123.77 17.8747 122.846 16.792 120.998 16.792C120.195 16.792 119.458 17.0347 118.786 17.52C118.132 18.0053 117.638 18.6587 117.302 19.48V29H113.886ZM130.779 27.376L130.275 25.668L132.599 22.252C131.684 21.3933 131.227 20.2827 131.227 18.92C131.227 17.3707 131.768 16.1573 132.851 15.28C133.952 14.4027 135.483 13.964 137.443 13.964C138.432 13.964 139.347 14.104 140.187 14.384L145.115 14.356V16.064L143.379 16.68C143.976 17.3333 144.275 18.164 144.275 19.172C144.275 20.6467 143.696 21.804 142.539 22.644C141.382 23.484 139.786 23.904 137.751 23.904C136.631 23.904 135.632 23.764 134.755 23.484L133.607 25.192L140.495 26.088C142.082 26.2747 143.248 26.7133 143.995 27.404C144.76 28.076 145.143 29.0187 145.143 30.232C145.143 31.688 144.48 32.836 143.155 33.676C141.83 34.5347 140.028 34.964 137.751 34.964C135.418 34.964 133.626 34.6 132.375 33.872C131.143 33.1627 130.527 32.136 130.527 30.792C130.527 29.5787 131.087 28.5147 132.207 27.6L130.779 27.376ZM134.391 18.92C134.391 20.6373 135.511 21.496 137.751 21.496C139.991 21.496 141.111 20.6373 141.111 18.92C141.111 17.2213 139.991 16.372 137.751 16.372C135.511 16.372 134.391 17.2213 134.391 18.92ZM133.775 30.12C133.775 31.632 135.1 32.388 137.751 32.388C139.039 32.388 140.038 32.2107 140.747 31.856C141.475 31.5013 141.839 31.0067 141.839 30.372C141.839 29.8867 141.69 29.5227 141.391 29.28C141.111 29.056 140.598 28.888 139.851 28.776L134.727 27.992C134.092 28.608 133.775 29.3173 133.775 30.12Z" fill="#FFFFFF"/>
<g clip-path="url(#clip0_422_3343)">
<path d="M36.37 2.08C35.8067 3.42333 35.0933 4.69667 34.235 5.86667C30.4705 2.10919 25.3688 -0.000796751 20.05 2.25691e-07C9.05167 2.25691e-07 0 9.05 0 20.0517C0 25.54 2.25 30.7933 6.22833 34.58L6.96833 35.235C10.5841 38.2793 15.1583 39.9496 19.885 39.9517C30.3433 39.9517 39.135 31.7667 39.88 21.3317C40.4267 16.2233 38.9267 9.76333 36.37 2.08167V2.08ZM9.07833 34.695C8.755 35.095 8.26167 35.3283 7.745 35.3283C7.2907 35.3261 6.85567 35.1445 6.53474 34.8229C6.21381 34.5013 6.03298 34.066 6.03167 33.6117C6.03167 32.6717 6.80667 31.895 7.745 31.895C8.06914 31.896 8.3864 31.9886 8.66021 32.1621C8.93403 32.3355 9.15325 32.5829 9.2926 32.8755C9.43196 33.1682 9.48579 33.4942 9.44788 33.8162C9.40997 34.1381 9.28187 34.4427 9.07833 34.695V34.695ZM36.2867 28.6917C31.3383 35.2817 20.77 33.0617 13.995 33.3783C13.995 33.3783 12.7917 33.4517 11.5833 33.6483C11.5833 33.6483 12.0367 33.4567 12.625 33.2317C17.38 31.5783 19.63 31.2567 22.52 29.7733C27.9633 27.0067 33.3433 20.9517 34.4633 14.6533C32.39 20.7133 26.11 25.92 20.385 28.0367C16.4633 29.4817 9.38 30.8867 9.38 30.8867L9.09333 30.7367C4.27 28.39 4.125 17.95 12.89 14.58C16.7283 13.1033 20.4017 13.9133 24.5467 12.9267C28.9733 11.8767 34.0933 8.55667 36.1767 4.22833C38.51 11.1517 41.3183 21.9917 36.2867 28.6917V28.6917Z" fill="#FFFFFF"/>
</g>
<defs>
<clipPath id="clip0_422_3343">
<rect width="40" height="40" fill="white"/>
</clipPath>
</defs>
</svg>
