<svg width="170" height="40" viewBox="0 0 170 40" fill="none" xmlns="http://www.w3.org/2000/svg">
<path d="M68.456 30.876L68.792 29.224C66.4027 28.8507 64.564 27.7773 63.276 26.004C62.0067 24.212 61.372 21.8133 61.372 18.808C61.372 15.4667 62.1747 12.8813 63.78 11.052C65.404 9.204 67.7 8.28 70.668 8.28C73.6547 8.28 75.9507 9.204 77.556 11.052C79.1613 12.8813 79.964 15.4667 79.964 18.808C79.964 24.24 77.92 27.5813 73.832 28.832L80.412 30.288L79.992 32.444L68.456 30.876ZM70.668 26.62C72.5533 26.62 73.9813 25.976 74.952 24.688C75.9227 23.3813 76.408 21.4213 76.408 18.808C76.408 16.344 75.9227 14.4773 74.952 13.208C74 11.92 72.572 11.276 70.668 11.276C68.764 11.276 67.336 11.92 66.384 13.208C65.432 14.4773 64.956 16.344 64.956 18.808C64.956 24.016 66.86 26.62 70.668 26.62ZM83.1761 23.344V14.272H86.5921V23.232C86.5921 25.3973 87.4508 26.48 89.1681 26.48C89.9335 26.48 90.6428 26.2373 91.2961 25.752C91.9681 25.2667 92.4721 24.6133 92.8081 23.792V14.272H96.2241V29H93.9561L93.4241 26.62C92.8081 27.4787 92.0521 28.1413 91.1561 28.608C90.2788 29.0747 89.3175 29.308 88.2721 29.308C86.6295 29.308 85.3695 28.7947 84.4921 27.768C83.6148 26.7413 83.1761 25.2667 83.1761 23.344ZM109.344 29L108.868 26.816C108.327 27.6187 107.645 28.244 106.824 28.692C106.003 29.1213 105.097 29.336 104.108 29.336C102.596 29.336 101.392 28.916 100.496 28.076C99.6185 27.236 99.1799 26.0973 99.1799 24.66C99.1799 23.1293 99.7399 21.9253 100.86 21.048C101.98 20.1707 103.511 19.732 105.452 19.732H108.224V19.032C108.224 18.0987 108.028 17.464 107.636 17.128C107.244 16.792 106.553 16.624 105.564 16.624C104.089 16.624 102.409 16.9693 100.524 17.66V15C101.271 14.6827 102.12 14.4307 103.072 14.244C104.024 14.0573 104.957 13.964 105.872 13.964C109.699 13.964 111.612 15.644 111.612 19.004V29H109.344ZM104.808 26.76C105.499 26.76 106.152 26.5827 106.768 26.228C107.384 25.8547 107.888 25.3413 108.28 24.688V21.916H105.844C103.585 21.916 102.456 22.7373 102.456 24.38C102.456 25.1267 102.661 25.7147 103.072 26.144C103.483 26.5547 104.061 26.76 104.808 26.76ZM115.417 29V14.272H117.685L118.217 16.708C118.684 15.924 119.272 15.3173 119.981 14.888C120.69 14.44 121.521 14.216 122.473 14.216C122.828 14.216 123.154 14.244 123.453 14.3V17.352H122.641C121.614 17.352 120.774 17.6413 120.121 18.22C119.468 18.78 119.038 19.5267 118.833 20.46V29H115.417ZM126.355 29V7.972H129.771V20.292L135.567 14.272H139.431L133.523 20.432L139.655 29H135.735L131.003 22.28H129.771V29H126.355ZM141.664 23.344V14.272H145.08V23.232C145.08 25.3973 145.939 26.48 147.656 26.48C148.422 26.48 149.131 26.2373 149.784 25.752C150.456 25.2667 150.96 24.6133 151.296 23.792V14.272H154.712V29H152.444L151.912 26.62C151.296 27.4787 150.54 28.1413 149.644 28.608C148.767 29.0747 147.806 29.308 146.76 29.308C145.118 29.308 143.858 28.7947 142.98 27.768C142.103 26.7413 141.664 25.2667 141.664 23.344ZM157.948 28.328V25.556C158.881 25.9293 159.721 26.2 160.468 26.368C161.215 26.5173 161.999 26.592 162.82 26.592C164.817 26.592 165.816 26.0227 165.816 24.884C165.816 24.4547 165.648 24.1093 165.312 23.848C164.995 23.568 164.435 23.316 163.632 23.092L161.448 22.504C160.123 22.1307 159.152 21.6173 158.536 20.964C157.92 20.292 157.612 19.4333 157.612 18.388C157.612 17.0067 158.144 15.924 159.208 15.14C160.272 14.356 161.719 13.964 163.548 13.964C164.425 13.964 165.275 14.0387 166.096 14.188C166.917 14.3373 167.617 14.5427 168.196 14.804V17.52C166.684 16.9413 165.181 16.652 163.688 16.652C161.877 16.652 160.972 17.156 160.972 18.164C160.972 18.556 161.131 18.8827 161.448 19.144C161.765 19.3867 162.297 19.6107 163.044 19.816L165.228 20.432C166.665 20.8427 167.683 21.3747 168.28 22.028C168.877 22.6627 169.176 23.5587 169.176 24.716C169.176 26.1907 168.635 27.3293 167.552 28.132C166.469 28.9347 164.929 29.336 162.932 29.336C162.017 29.336 161.103 29.2427 160.188 29.056C159.273 28.8693 158.527 28.6267 157.948 28.328Z" fill="#003C4A"/>
<g clip-path="url(#clip0_422_3344)">
<path d="M21.3133 26.6063L27.7667 22.8796V15.4296L21.3133 19.1546V26.6063ZM21.93 26.9629L27.7667 30.3346V23.5963L21.93 26.9646V26.9629ZM27.415 14.1063V7.36794L21.5783 10.7346L27.415 14.1046V14.1063ZM20.9617 11.0929L14.5067 14.8196L20.9617 18.5463L27.415 14.8196L20.9617 11.0929ZM20.3433 10.7363L14.5067 7.36794V14.1063L20.3433 10.7363ZM28.385 15.7863V22.5229L34.22 19.1546L28.385 15.7846V15.7863ZM20.61 26.6063V19.1546L14.1567 15.4279V22.8796L20.61 26.6063ZM13.5383 15.7846L7.7 19.1546L13.5367 22.5229V15.7846H13.5383ZM14.155 23.5946V30.3329L19.9917 26.9629L14.1567 23.5946H14.155ZM33.345 0.224609H6.63167C2.98333 0.224609 0 3.17128 0 6.77461V33.1613C0 36.7629 2.98333 39.7113 6.63167 39.7113H24.925L19.9883 27.8646L16.405 35.3446H6.63333C5.43333 35.3446 4.42167 34.3446 4.42167 33.1613V6.77461C4.42167 5.59128 5.435 4.59128 6.63333 4.59128H33.3467C34.545 4.59128 35.5583 5.59128 35.5583 6.77461V33.1613C35.5583 34.3446 34.545 35.3446 33.3467 35.3446H27.55L29.37 39.7113H33.3467C36.9933 39.7113 39.9783 36.7629 39.9783 33.1613V6.77461C39.9783 3.17128 36.995 0.224609 33.3467 0.224609H33.345Z" fill="#003C4A"/>
</g>
<defs>
<clipPath id="clip0_422_3344">
<rect width="40" height="40" fill="white"/>
</clipPath>
</defs>
</svg>
