<svg width="162" height="40" viewBox="0 0 162 40" fill="none" xmlns="http://www.w3.org/2000/svg">
<g clip-path="url(#clip0_422_3345)">
<path fill-rule="evenodd" clip-rule="evenodd" d="M0.00630212 0.93862C-0.127334 1.28635 1.85312 3.4568 7.02039 8.62771L14.2204 15.8323L8.73857 19.7345C5.24767 22.2191 3.25358 23.8291 3.24903 24.1668C3.23585 25.0795 19.7858 24.9668 20.9568 24.0459L21.784 23.3954L30.2054 31.8127C35.1558 36.7609 38.7659 40.1441 38.9645 40.0213C39.2013 39.875 39.3018 36.8609 39.3018 29.9123V20.0113L36.5795 17.2777L33.8572 14.5436L34.7604 13.9386C35.6381 13.3504 35.664 13.2641 35.6645 10.8863C35.6654 8.66817 35.7363 8.37226 36.4231 7.72726C36.8399 7.33589 37.1809 6.7668 37.1809 6.46226C37.1809 5.56907 28.3913 5.62771 27.2468 6.52862L26.459 7.14771L23.1031 3.80135L19.7468 0.454529H9.96948C1.29221 0.454529 0.170848 0.509074 0.00630212 0.93862ZM18.999 10.3032C18.999 14.8863 18.964 18.6363 18.9208 18.6363C18.8781 18.6363 15.0949 14.8863 10.514 10.3032L2.18494 1.96953H10.5918H18.999V10.3032ZM25.0595 7.57589L29.749 12.2727H24.9799H20.2108V7.57589C20.2108 4.99226 20.2468 2.87862 20.2904 2.87862C20.334 2.87862 22.4804 4.99226 25.0595 7.57589ZM34.4536 7.35726C34.4536 7.48726 33.5968 8.44226 32.5504 9.47953L30.6472 11.3659L29.0368 9.73544L27.4263 8.10498L28.1286 7.61317C28.8686 7.09453 34.4536 6.86862 34.4536 7.35726ZM34.4536 11.0604V12.2727H33.1799H31.9063L33.0899 11.0604C33.7408 10.3941 34.314 9.84862 34.3636 9.84862C34.4131 9.84862 34.4536 10.3941 34.4536 11.0604ZM26.7858 18.0304C23.3672 20.5304 20.489 22.5759 20.3904 22.5759C20.2918 22.5759 20.2108 20.5304 20.2108 18.0304V13.485H26.6063H33.0022L26.7858 18.0304ZM34.614 19.7845C33.1922 19.8327 30.8718 19.8327 29.4572 19.7845L26.8854 19.6968L29.8359 17.5223L32.7868 15.3477L34.9927 17.5223L37.199 19.6968L34.614 19.7845ZM18.999 22.0368V23.485H12.5745C8.53994 23.485 6.25767 23.3782 6.43812 23.1986C6.59676 23.0409 8.63539 21.5491 10.9686 19.8832L15.2108 16.8541L17.1049 18.7213C18.9036 20.4945 18.999 20.6613 18.999 22.0368ZM38.0899 29.4673V37.8741L30.5018 30.3009L22.9136 22.7273L23.899 21.8941L24.8849 21.0604H31.4872H38.0899V29.4673Z" fill="#FFFFFF"/>
</g>
<path d="M62.3507 29V8.644H65.8507V17.128H75.3707V8.644H78.8707V29H75.3707V20.096H65.8507V29H62.3507ZM94.6399 28.3C94.0239 28.6173 93.2772 28.8693 92.3999 29.056C91.5226 29.2427 90.5892 29.336 89.5999 29.336C87.1732 29.336 85.3159 28.6733 84.0279 27.348C82.7586 26.0227 82.1239 24.0907 82.1239 21.552C82.1239 19.1253 82.7306 17.2587 83.9439 15.952C85.1759 14.6267 86.9026 13.964 89.1239 13.964C91.1772 13.964 92.7266 14.552 93.7719 15.728C94.8172 16.8853 95.3399 18.5467 95.3399 20.712V22.616H85.5119C85.6426 24.016 86.0626 25.0333 86.7719 25.668C87.4999 26.3027 88.5546 26.62 89.9359 26.62C90.7572 26.62 91.5319 26.5453 92.2599 26.396C92.9879 26.228 93.7812 25.9667 94.6399 25.612V28.3ZM89.0959 16.54C86.8559 16.54 85.6519 17.7627 85.4839 20.208H92.2039C92.1852 17.7627 91.1492 16.54 89.0959 16.54ZM98.3311 29V10.464L96.8471 9.372V7.972H101.747V29H98.3311ZM105.379 11.304V8.504H109.271V11.304H105.379ZM105.883 29V16.764L104.399 15.672V14.272H109.299V29H105.883ZM123.874 29L123.37 26.732C122.791 27.5533 122.082 28.188 121.242 28.636C120.421 29.084 119.534 29.308 118.582 29.308C116.641 29.308 115.119 28.636 114.018 27.292C112.917 25.9293 112.366 24.0347 112.366 21.608C112.366 19.1813 112.907 17.3053 113.99 15.98C115.091 14.636 116.622 13.964 118.582 13.964C120.187 13.964 121.569 14.5147 122.726 15.616V7.972H126.142V29H123.874ZM115.81 21.636C115.81 23.2227 116.099 24.4453 116.678 25.304C117.275 26.144 118.125 26.564 119.226 26.564C119.935 26.564 120.598 26.3773 121.214 26.004C121.849 25.612 122.362 25.0987 122.754 24.464V18.332C121.821 17.2307 120.645 16.68 119.226 16.68C118.125 16.68 117.275 17.1093 116.678 17.968C116.099 18.808 115.81 20.0307 115.81 21.636ZM136.378 29.308C134.119 29.308 132.355 28.636 131.086 27.292C129.835 25.948 129.21 24.0627 129.21 21.636C129.21 19.2093 129.835 17.324 131.086 15.98C132.355 14.636 134.119 13.964 136.378 13.964C138.655 13.964 140.419 14.636 141.67 15.98C142.921 17.324 143.546 19.2093 143.546 21.636C143.546 24.0627 142.921 25.948 141.67 27.292C140.419 28.636 138.655 29.308 136.378 29.308ZM136.378 26.648C138.861 26.648 140.102 24.9773 140.102 21.636C140.102 18.2947 138.861 16.624 136.378 16.624C133.895 16.624 132.654 18.2947 132.654 21.636C132.654 24.9773 133.895 26.648 136.378 26.648ZM146.62 29V14.272H148.888L149.392 16.652C150.045 15.7933 150.811 15.1307 151.688 14.664C152.584 14.1973 153.583 13.964 154.684 13.964C156.383 13.964 157.68 14.4773 158.576 15.504C159.472 16.512 159.92 17.9867 159.92 19.928V29H156.504V20.04C156.504 17.8747 155.58 16.792 153.732 16.792C152.929 16.792 152.192 17.0347 151.52 17.52C150.867 18.0053 150.372 18.6587 150.036 19.48V29H146.62Z" fill="#FFFFFF"/>
<defs>
<clipPath id="clip0_422_3345">
<rect width="40" height="40" fill="white"/>
</clipPath>
</defs>
</svg>
