<?xml version="1.0" standalone="no"?>
<!DOCTYPE svg PUBLIC "-//W3C//DTD SVG 20010904//EN"
 "http://www.w3.org/TR/2001/REC-SVG-20010904/DTD/svg10.dtd">
<svg version="1.0" xmlns="http://www.w3.org/2000/svg"
 width="260.000000pt" height="260.000000pt" viewBox="0 0 260.000000 260.000000"
 preserveAspectRatio="xMidYMid meet">
<metadata>
Created by potrace 1.11, written by Peter Selinger 2001-2013
</metadata>
<g transform="translate(0.000000,260.000000) scale(0.100000,-0.100000)"
fill="#000000" stroke="none">
<path d="M1300 2589 c-324 -40 -555 -198 -710 -484 -83 -154 -141 -362 -167
-604 -15 -137 -8 -504 12 -626 3 -16 8 -46 11 -65 3 -19 5 -35 5 -35 -3 0 43
-160 60 -205 88 -239 264 -427 476 -508 113 -44 230 -61 381 -56 138 5 139 5
227 23 181 38 409 154 553 283 l30 26 0 555 0 556 -384 -1 -384 0 -1 -41 c-1
-49 -1 -277 0 -292 1 -7 49 -10 129 -10 l127 0 0 -310 0 -309 -50 -19 c-104
-39 -206 -38 -324 4 -158 55 -251 193 -306 454 -23 104 -30 200 -29 395 0 204
5 253 38 384 77 300 248 450 506 441 47 -2 99 -6 115 -10 93 -18 224 -73 315
-130 34 -21 37 -22 51 -5 24 29 102 120 136 158 18 21 33 41 33 46 0 5 -21 34
-47 65 -132 156 -304 266 -470 302 -32 7 -65 14 -73 16 -33 7 -208 9 -260 2z"/>
</g>
</svg>
