<svg width="48" height="48" viewBox="0 0 48 48" fill="none" xmlns="http://www.w3.org/2000/svg">
<path fill-rule="evenodd" clip-rule="evenodd" d="M24 48C37.2539 48 48 37.2549 48 24C48 10.7451 37.2539 0 24 0C10.7461 0 0 10.7451 0 24C0 37.2549 10.7461 48 24 48ZM20.4375 20.6104V9.13965H17.6387L13.168 11.8604L14.5078 14.0303L17.3574 12.25V20.6104H14.0176V23H23.0273V20.6104H20.4375ZM31.0977 8.89551C30.7539 8.8252 30.3887 8.79004 30 8.79004C28.8828 8.79004 27.9512 9.07715 27.207 9.65234C26.8398 9.93555 26.5176 10.2881 26.2402 10.71C25.4062 11.9834 24.9902 13.7598 24.9902 16.04C24.9902 18.3271 25.4062 20.1162 26.2402 21.4102C27.0801 22.6963 28.334 23.3398 30 23.3398C31.1289 23.3398 32.0664 23.04 32.8145 22.4414C33.1641 22.1631 33.4727 21.8193 33.7402 21.4102C34.5859 20.1162 35.0098 18.3271 35.0098 16.04C35.0098 13.7598 34.5859 11.9834 33.7402 10.71C33.0977 9.72949 32.2168 9.12598 31.0977 8.89551ZM29.3691 11.2021C29.5586 11.1211 29.7695 11.0801 30 11.0801C30.5273 11.0801 30.9336 11.21 31.2207 11.4697C31.3066 11.5459 31.3848 11.6406 31.457 11.7559L28.0781 18.8262C28.0684 18.75 28.0586 18.6709 28.0508 18.5898C28.0098 18.1357 27.9824 17.5928 27.9707 16.96C27.9648 16.6719 27.9609 16.3652 27.9609 16.04C27.9609 14.2471 28.123 12.9736 28.4492 12.2197C28.6699 11.708 28.9766 11.3691 29.3691 11.2021ZM28.7734 20.6973C28.8438 20.7627 28.9199 20.8164 29 20.8604C29.2676 20.9932 29.5996 21.0596 30 21.0596C30.2363 21.0596 30.4512 21.0195 30.6445 20.9395C30.8359 20.8594 31.0039 20.7393 31.1504 20.5801C31.4492 20.2598 31.6699 19.7334 31.8105 19C31.9492 18.2598 32.0195 17.2734 32.0195 16.04C32.0195 15.4648 32.0098 14.9482 31.9883 14.4893C31.9824 14.3564 31.9746 14.2275 31.9668 14.1045L28.7734 20.6973ZM21.748 26.71C20.9082 25.4297 19.6621 24.79 18.0078 24.79C16.3418 24.79 15.0879 25.4297 14.248 26.71C13.4141 27.9834 12.998 29.7598 12.998 32.04C12.998 34.3271 13.4141 36.1162 14.248 37.4102C15.0879 38.6963 16.3418 39.3398 18.0078 39.3398C19.6621 39.3398 20.9082 38.6963 21.748 37.4102C22.3613 36.4707 22.752 35.2705 22.9219 33.8096C22.9863 33.2568 23.0176 32.667 23.0176 32.04C23.0176 29.7598 22.5938 27.9834 21.748 26.71ZM16.457 28.2197C16.7852 27.46 17.3008 27.0801 18.0078 27.0801C18.5352 27.0801 18.9414 27.21 19.2285 27.4697C19.3145 27.5459 19.3945 27.6426 19.4648 27.7578L16.0859 34.8262C16.0762 34.75 16.0664 34.6709 16.0586 34.5898C15.998 33.9297 15.9688 33.0801 15.9688 32.04C15.9688 30.2471 16.1309 28.9736 16.457 28.2197ZM16.7812 36.6973C16.8516 36.7627 16.9277 36.8164 17.0078 36.8604C17.1387 36.9248 17.2852 36.9736 17.4453 37.0068C17.6152 37.042 17.8027 37.0596 18.0078 37.0596C18.4805 37.0596 18.8652 36.9004 19.1582 36.5801C19.457 36.2598 19.6777 35.7334 19.8184 35C19.957 34.2598 20.0273 33.2734 20.0273 32.04C20.0273 31.2988 20.0098 30.6533 19.9746 30.1045L16.7812 36.6973ZM32.4297 36.6104V25.1396H29.6309L25.1602 27.8604L26.5 30.0303L29.3496 28.25V36.6104H26.0098V39H35.0195V36.6104H32.4297Z" fill="white" fill-opacity="0.9"/>
</svg>
