<svg width="2000" height="1050" viewBox="0 0 2000 1050" fill="none" xmlns="http://www.w3.org/2000/svg">
<g clip-path="url(#clip0_661_5563)">
<path opacity="0.3" d="M1913.14 1008.18C1904.76 906.828 1895.73 803.568 1855.18 711.219C1814.62 618.871 1735.49 537.856 1633.14 520.834C1615.99 517.973 1598.61 517.071 1581.49 520.575C1541.33 529.174 1510.59 561.965 1487.34 595.898C1466.03 626.885 1448.75 660.106 1435.98 694.825C1426.4 720.864 1411.03 753.44 1383.16 751.753C1355.84 750.21 1346.24 717.011 1343.43 690.831C1338.74 647.965 1333.7 605.297 1329.01 562.431C1322.55 507.824 1315.19 450.087 1280.15 408.336C1244.91 366.243 1182.79 347.866 1127.64 362.848C1037.18 387.729 986.991 485.525 904.453 530.443C837.153 567.02 757.243 564.39 681.883 560.956" stroke="#4A6D82" stroke-width="0.4747" stroke-miterlimit="10"/>
<path d="M53.6995 447.821C61.9381 428.936 82.9866 417.239 103.933 415.628C124.538 414.215 144.593 421.322 162.992 430.297C209.995 453.294 249.218 488.074 292.673 516.766C336.128 545.457 387.194 568.386 440.382 561.834C523.075 551.919 580.804 476.66 634.814 413.117C648.839 396.361 664.285 379.695 684.664 371.575C710.762 361.521 740.705 368.389 763.827 382.385C786.948 396.382 804.667 417.599 822.675 437.739C880.343 502.889 946.176 565.604 1030.41 593.085C1114.44 620.225 1257.58 606.859 1355.22 489.416" stroke="#4A6D82" stroke-width="0.7121" stroke-miterlimit="10"/>
<path d="M53.6995 447.821C61.9381 428.936 82.9866 417.239 103.933 415.628C124.538 414.215 144.593 421.322 162.992 430.297C209.995 453.294 249.218 488.074 292.673 516.766C336.128 545.457 387.194 568.386 440.382 561.834C523.075 551.919 580.804 476.66 634.814 413.117C648.839 396.361 664.285 379.695 684.664 371.575C710.762 361.521 740.705 368.389 763.827 382.385C786.948 396.382 804.667 417.599 822.675 437.739C880.343 502.889 946.176 565.604 1030.41 593.085C1114.44 620.225 1257.58 606.859 1355.22 489.416" stroke="#4A6D82" stroke-width="0.7121" stroke-miterlimit="10"/>
<path opacity="0.7829" d="M1355.73 495.046C1300.01 559.575 1229.11 589.118 1162.76 597.345C1115.54 603.185 1070.13 597.953 1034.93 585.919C1002.08 574.805 971.946 558.931 944.102 539.912C933.054 532.618 922.493 524.587 912.273 516.359C887.954 497.129 865.29 476.031 843.85 454.684C837.457 448.348 831.407 441.814 825.553 435.623C812.715 422.07 800.218 408.319 785.724 396.634C779.779 391.863 773.689 387.631 766.916 383.793C755.921 377.38 743.27 372.834 730.041 370.445C715.734 367.767 700.901 368.127 687.556 372.642C682.178 374.379 677.735 376.945 672.949 379.708C659.815 387.746 648.853 399.545 638.573 410.949C628.294 422.352 617.871 434.295 607.447 446.238C580.408 475.978 551.41 505.481 517.569 525.019C495.693 537.65 472.185 546.664 445.663 549.671C428.635 551.754 411.593 550.655 394.787 547.597C359.755 541.388 326.443 525.527 296.89 507.496C267.14 489.123 239.336 467.803 209.046 449.285C195.447 440.729 181.164 432.568 166.251 425.683C147.707 417.247 127.31 410.337 106.706 411.75C85.7591 413.361 64.3159 424.374 55.8799 442.917" stroke="#4A6D82" stroke-width="0.7063" stroke-miterlimit="10"/>
<path opacity="0.7659" d="M1357.36 498.661C1302.8 558.877 1233.44 584.79 1167.67 590.86C1120.89 595.083 1075.97 589.114 1040.37 576.397C1007.66 564.744 977.187 549.066 948.804 529.904C937.756 522.609 926.853 514.776 916.489 507.087C891.683 488.593 868.928 468.916 847.738 448.791C841.543 442.797 835.347 436.803 829.152 430.808C816.367 418.136 803.923 405.267 789.679 394.805C783.931 390.375 777.5 386.34 770.924 382.845C759.982 377.312 747.331 372.767 734.299 370.72C719.65 368.239 705.304 367.862 691.761 372.035C686.725 373.575 682.084 375.799 677.299 378.562C664.31 386.061 653.636 396.781 643.501 407.646C633.366 418.511 623.232 429.375 612.755 440.437C585.952 468.217 557.676 495.025 523.586 513.34C501.656 525.089 477.753 533.421 451.574 536.23C434.349 537.971 416.965 537.069 400.356 534.353C364.982 528.342 331.775 514.243 302.276 497.093C272.434 480.139 244.538 460.24 214.302 442.603C200.558 434.586 186.131 426.964 170.875 420.276C151.99 412.038 131.79 405.469 110.844 407.08C89.6999 408.349 68.2567 419.362 59.0842 437.419" stroke="#4A6D82" stroke-width="0.7005" stroke-miterlimit="10"/>
<path opacity="0.7488" d="M1360.16 501.144C1306.95 557.388 1239.15 579.672 1173.76 583.243C1127.4 585.848 1083.11 578.604 1047.32 565.545C1014.41 553.55 983.745 537.531 954.876 519.104C943.486 512.007 932.78 504.516 922.074 497.024C896.782 479.267 873.935 461.01 852.654 442.305C846.314 436.85 840.316 431.198 833.976 425.743C821.244 413.952 808.511 402.161 794.662 392.382C788.77 388.492 782.877 384.601 776.157 381.645C765.412 376.454 752.814 372.79 739.243 370.598C724.594 368.117 710.05 367.399 696.994 370.835C691.958 372.375 687.12 374.257 682.821 376.284C670.318 383.046 659.591 392.886 649.943 403.014C640.097 412.8 630.107 423.126 619.919 433.109C593.891 459.075 565.996 483.384 531.997 500.278C510.357 510.95 486.059 518.597 459.34 521.262C442.115 523.003 424.731 522.101 407.781 519.582C372.262 514.11 339.108 500.893 309.175 485.359C279.045 469.485 251.057 451.005 220.532 434.447C206.644 426.969 191.874 419.545 176.816 413.198C157.787 405.499 137.245 399.128 116.101 400.397C94.9574 401.666 72.9751 412.535 63.4079 429.908" stroke="#4A6D82" stroke-width="0.6947" stroke-miterlimit="10"/>
<path opacity="0.7317" d="M1364.14 502.498C1312.08 554.429 1245.83 573.083 1181.21 574.839C1135.64 575.629 1091.49 567.846 1055.3 554.103C1022.54 541.569 991.332 525.405 962.121 507.177C950.732 500.079 939.684 492.785 928.636 485.491C903.2 468.273 879.92 451.633 858.349 434.007C852.207 428.894 846.064 423.781 839.922 418.667C827.242 407.757 814.563 396.847 800.766 387.95C795.071 384.401 789.035 381.05 782.314 378.094C771.425 373.442 758.682 370.317 745.453 367.928C730.804 365.447 716.405 364.189 703.493 367.086C698.602 368.087 693.763 369.969 689.464 371.996C677.106 378.219 666.865 387.322 656.967 396.227C647.265 405.475 637.564 414.722 627.521 424.166C602.071 447.975 574.412 470.325 540.307 485.457C518.614 495.247 494.46 502.356 467.544 504.679C450.122 506.078 432.738 505.176 415.643 503.196C379.98 498.264 346.537 486.124 316.513 472.011C286.291 457.557 258.211 440.498 227.397 425.018C213.167 417.737 198.793 410.996 183.051 405.045C164.218 397.687 143.335 391.514 121.85 392.98C100.364 394.446 78.5259 404.776 68.564 421.466" stroke="#4A6D82" stroke-width="0.6889" stroke-miterlimit="10"/>
<path opacity="0.7146" d="M1369.08 502.379C1317.84 550.194 1253.33 565.56 1189.44 564.62C1144.49 564.135 1100.44 554.931 1064.05 540.847C1031.09 527.971 999.884 511.807 970.332 493.776C958.942 486.679 947.553 479.581 936.702 472.629C910.779 456.148 887.21 440.586 865.745 424.722C859.459 420.148 853.514 415.377 847.227 410.803C834.6 400.774 821.973 390.745 808.23 382.728C802.732 379.521 796.354 376.367 790.028 374.095C778.994 369.982 766.449 367.199 752.878 365.007C737.887 362.724 723.632 360.927 711.207 363.088C706.316 364.088 701.622 365.431 697.664 367.26C685.595 372.406 675.499 380.969 666.086 389.138C656.674 397.307 647.117 406.015 637.363 414.381C612.491 436.033 585.41 456.226 551.397 469.938C529.65 478.848 505.102 485.272 477.989 487.253C460.566 488.653 442.841 487.948 425.746 485.968C389.597 481.772 356.207 470.514 326.09 457.821C295.777 444.787 267.408 428.806 236.305 414.404C221.931 407.663 207.215 401.119 191.67 395.51C172.496 388.349 151.468 382.715 129.983 384.181C108.497 385.648 86.2643 395.294 75.9605 412.181" stroke="#4A6D82" stroke-width="0.6831" stroke-miterlimit="10"/>
<path opacity="0.6976" d="M1375.05 501.667C1325.16 545.51 1262.21 557.246 1198.69 553.808C1154.52 551.508 1110.61 541.766 1074.17 526.8C1041.36 513.385 1009.61 497.077 979.574 479.782C967.842 472.882 956.452 465.785 945.457 459.372C919.048 443.627 895.388 429.486 873.831 415.042C867.742 410.809 861.113 406.433 855.365 402.003C842.792 392.855 830.218 383.707 816.527 376.572C810.688 373.562 805.046 370.895 798.378 368.819C787.739 365.391 775.049 363.146 761.281 360.613C746.29 358.33 732.18 355.993 719.557 357.812C714.81 358.274 710.116 359.617 706.159 361.446C694.234 366.052 684.427 373.537 675.159 381.167C665.694 388.454 656.623 396.426 646.816 403.911C622.522 423.406 596.019 441.443 562.097 453.735C540.298 461.763 515.697 467.307 488.584 469.288C470.964 470.346 453.238 469.641 435.801 467.859C399.31 463.86 366.026 454.363 335.963 442.552C305.36 430.595 277.098 416.377 246.047 402.856C231.528 396.654 216.668 390.65 201.123 385.04C181.805 378.419 160.777 372.784 138.752 374.106C117.069 375.231 94.4946 385.074 83.7961 401.277" stroke="#4A6D82" stroke-width="0.6774" stroke-miterlimit="10"/>
<path opacity="0.6805" d="M1382.19 499.824C1333.46 539.354 1272.05 547.46 1209.31 542.208C1165.58 538.29 1121.96 527.469 1085.32 512.161C1052.31 498.404 1020.56 482.096 989.981 464.657C978.25 457.757 966.716 451.199 955.182 444.641C928.286 429.633 904.534 416.912 883.031 403.349C876.599 399.314 870.365 395.621 864.473 391.731C851.61 383.661 839.089 375.394 825.793 368.942C820.151 366.274 814.365 364.146 807.895 362.412C797.111 359.523 784.619 357.62 770.706 355.626C755.715 353.343 741.408 350.665 729.271 351.747C724.524 352.209 720.172 353.354 716.162 354.302C704.723 358.172 694.863 364.776 685.884 371.327C676.905 377.879 667.584 384.627 658.264 391.376C634.548 408.715 608.622 424.594 574.253 435.322C552.545 441.93 527.747 447.132 500.094 448.969C482.475 450.026 464.407 449.519 446.97 447.736C410.335 444.277 376.762 435.859 346.409 425.125C316.057 414.392 287.361 401.791 255.825 389.007C241.161 383.344 225.959 377.537 210.27 372.466C190.609 366.042 169.437 360.947 147.412 362.269C125.387 363.591 102.957 372.895 91.8642 388.415" stroke="#4A6D82" stroke-width="0.6716" stroke-miterlimit="10"/>
<path opacity="0.6634" d="M1390.35 497.387C1342.97 532.945 1283.12 537.422 1220.76 529.671C1178 524.28 1134.32 512.578 1097.29 496.587C1064.43 482.291 1032.14 465.838 1001.42 448.938C989.342 442.236 977.808 435.678 966.129 429.659C939.09 415.19 914.707 403.745 893.309 391.944C886.733 388.448 880.696 385.097 874.66 381.746C861.85 374.557 849.382 367.171 836.139 361.6C830.694 359.274 824.908 357.146 818.293 355.951C807.707 353.404 795.07 352.04 781.157 350.046C765.627 347.618 752.003 344.546 740.011 345.089C735.606 345.353 731.057 346.157 727.046 347.105C715.752 350.435 706.181 355.961 697.347 361.973C688.315 367.643 679.48 373.655 670.304 379.865C646.824 395.244 621.818 408.77 587.54 418.077C565.78 423.804 540.785 428.665 513.276 429.962C495.117 430.875 477.392 430.171 459.81 428.927C423.03 426.007 389.168 418.667 358.724 409.354C328.281 400.041 299.296 388.518 267.668 377.154C252.86 372.03 237.854 366.565 221.824 361.692C202.019 355.807 180.307 350.567 158.624 351.692C136.599 353.014 113.972 361.976 102.142 377.009" stroke="#4A6D82" stroke-width="0.6658" stroke-miterlimit="10"/>
<path opacity="0.6463" d="M1399 494.215C1352.78 525.459 1294.67 526.648 1232.89 516.74C1190.56 509.732 1147.72 497.096 1110.29 480.421C1077.23 465.784 1044.94 449.331 1013.34 432.483C1001.26 425.781 989.046 419.618 977.564 413.941C950.038 400.209 925.564 390.184 904.075 379.802C897.696 376.649 891.515 373.837 885.478 370.485C872.721 364.178 860.306 357.673 847.116 352.983C841.868 350.999 835.937 349.41 829.323 348.215C818.592 346.207 805.811 345.382 791.898 343.388C776.368 340.96 762.547 337.546 750.699 337.55C746.097 337.472 741.889 338.079 738.221 338.829C727.215 341.081 717.986 346.41 709.243 351.002C700.698 355.936 691.81 361.067 682.923 366.198C660.021 379.42 635.054 390.645 601.21 398.335C579.396 403.181 554.348 407.16 526.301 408.313C508.141 409.226 490.074 408.719 472.493 407.476C435.371 404.752 401.759 398.636 371.224 390.743C340.688 382.85 311.953 372.55 279.497 362.119C264.887 357.338 249.198 352.267 233.023 347.933C212.876 342.246 191.362 337.348 169.337 338.67C147.312 339.992 124.487 348.612 111.921 363.159" stroke="#4A6D82" stroke-width="0.66" stroke-miterlimit="10"/>
<path opacity="0.6293" d="M1408.54 490.991C1363.47 517.922 1307.11 515.823 1245.71 503.417C1204.35 494.935 1161.26 481.076 1123.83 464.402C1090.57 449.422 1058.08 432.628 1026.34 416.319C1013.92 409.814 1001.7 403.651 989.881 398.172C961.868 385.176 937.644 376.373 915.524 367.268C909.001 364.653 902.82 361.841 896.836 359.371C884.132 353.944 871.967 348.662 858.829 344.853C853.438 343.408 847.704 342.161 841.287 341.309C830.609 340.181 818.025 339.699 803.915 337.363C788.385 334.935 774.708 330.981 763.005 330.446C758.744 330.171 754.34 330.435 750.671 331.186C739.81 332.899 730.87 337.149 722.272 341.202C713.673 345.255 705.272 349.649 696.332 353.9C674.008 364.965 649.618 374.033 615.524 380.5C593.658 384.465 568.215 387.761 540.509 388.717C522.153 389.288 504.085 388.781 486.162 387.735C448.554 385.748 415.192 380.854 384.368 374.039C353.544 367.225 324.717 358.345 292.169 349.335C277.414 345.092 261.581 340.561 245.406 336.227C225.115 331.079 203.259 326.378 181.234 327.7C158.67 328.878 135.845 337.498 123.424 351.506" stroke="#4A6D82" stroke-width="0.6542" stroke-miterlimit="10"/>
<path opacity="0.6122" d="M1419.09 487.174C1375.04 510.331 1320.57 504.405 1259.89 489.302C1218.97 479.203 1176.36 464.608 1138.54 447.25C1105.42 431.731 1072.6 415.134 1040.31 398.681C1028.09 392.518 1015.34 386.21 1003.71 381.073C975.211 368.813 950.895 361.431 929.025 353.548C922.699 351.276 916.374 349.003 910.587 346.874C897.936 342.329 885.824 337.928 872.739 334.999C867.545 333.897 861.811 332.649 855.25 332.336C844.769 331.55 832.041 331.607 817.589 329.468C801.717 327.238 788.185 322.745 776.968 321.473C772.51 320.856 768.447 320.924 764.923 321.135C754.548 322.111 745.555 325.481 737.443 328.797C729.331 332.113 720.877 335.627 712.081 339.338C690.335 348.247 666.523 355.158 632.323 359.863C610.746 362.75 584.908 365.362 556.664 366.173C538.307 366.744 519.7 366.093 501.975 365.388C464.222 363.941 430.572 360.125 399.656 354.73C368.74 349.336 339.822 341.876 307.129 333.405C292.033 329.36 276.397 325.171 259.735 321.573C239.299 316.964 217.444 312.264 194.88 313.441C172.315 314.619 149.293 322.897 136.135 336.419" stroke="#4A6D82" stroke-width="0.6484" stroke-miterlimit="10"/>
<path opacity="0.5951" d="M1430.34 482.963C1387.43 501.807 1334.72 492.593 1274.62 475.334C1234.32 463.96 1191.81 447.944 1154.13 430.046C1120.82 414.186 1087.79 397.247 1055.02 381.531C1042.46 375.565 1029.9 369.599 1017.73 364.317C989.091 352.597 964.144 346.49 942.38 340.37C935.91 338.636 929.782 336.705 923.654 334.774C911.055 331.109 898.996 327.589 885.964 325.542C880.967 324.781 875.089 324.073 868.725 324.101C858.1 323.855 845.569 324.253 831.314 322.456C815.442 320.226 802.055 315.194 790.64 313.58C786.182 312.964 782.461 312.833 778.74 312.703C768.51 313.14 759.805 315.431 751.64 317.866C743.475 320.301 735.508 323.079 727.001 325.711C705.833 332.464 682.599 337.218 648.149 340.701C626.518 342.706 600.825 344.779 572.383 345.248C553.829 345.478 535.42 345.168 517.353 344.661C479.258 343.411 445.516 341.015 414.508 337.041C383.501 333.067 354.491 327.027 321.51 319.635C306.269 316.129 290.488 312.478 273.827 308.88C253.391 304.272 231.049 300.308 208.485 301.485C185.921 302.663 162.702 310.599 148.807 323.635" stroke="#4A6D82" stroke-width="0.6426" stroke-miterlimit="10"/>
<path opacity="0.578" d="M1442.85 479.383C1401.31 494.255 1350.14 481.411 1290.42 461.654C1250.9 448.464 1208.53 431.909 1170.46 413.328C1137.29 396.928 1103.92 380.187 1070.81 364.668C1058.25 358.702 1045.35 352.934 1033.04 348.191C1003.91 337.207 978.869 332.521 957.013 327.82C950.74 326.428 944.467 325.037 938.195 323.645C925.649 320.861 913.301 318.419 900.664 317.056C895.325 316.492 889.842 316.467 883.478 316.496C872.708 316.789 860.374 317.529 845.778 315.929C829.564 313.896 816.321 308.325 805.195 305.633C801.079 304.819 797.161 304.347 793.781 304.019C783.84 303.378 775.28 305.13 767.602 306.829C759.923 308.527 751.902 310.424 743.343 312.175C722.41 316.968 700.096 319.369 665.54 321.089C643.857 322.214 617.769 323.603 589.327 324.072C570.773 324.302 552.167 323.65 533.955 323.682C495.716 322.971 461.685 321.654 430.928 318.903C399.828 316.348 370.53 311.387 337.26 305.073C321.874 302.106 305.949 298.995 289.287 295.397C268.707 291.328 246.365 287.364 223.459 288.739C200.553 290.113 177.479 297.511 163.189 309.863" stroke="#4A6D82" stroke-width="0.6368" stroke-miterlimit="10"/>
<path opacity="0.561" d="M1455.57 476.143C1415.17 486.702 1365.41 470.767 1306.42 448.314C1267.53 433.849 1225.45 416.216 1186.98 396.951C1153.61 380.209 1120.05 363.126 1086.59 347.804C1073.69 342.036 1060.79 336.268 1048.33 332.064C1018.72 321.817 993.589 318.55 971.445 314.928C965.028 314.076 958.952 313.026 952.877 311.976C940.384 310.073 928.089 308.512 915.505 308.03C910.363 307.808 904.88 307.783 898.569 308.693C888.194 309.669 875.374 311.146 860.922 309.007C844.708 306.974 831.609 300.864 820.628 297.633C816.315 296.477 812.738 295.807 809.359 295.48C799.562 294.299 791.488 295.314 783.757 296.132C776.025 296.95 768.294 297.768 760.22 298.783C739.866 301.419 717.788 301.86 683.665 301.963C661.929 302.207 635.788 302.715 607.149 302.842C588.595 303.072 569.647 302.618 551.435 302.65C513.052 302.478 479.073 302.042 447.883 300.908C416.836 299.235 387.302 296.233 353.743 290.997C338.212 288.569 321.946 285.655 305.14 282.597C284.218 278.725 261.731 275.3 238.628 276.333C215.525 277.366 191.911 284.619 177.621 296.971" stroke="#4A6D82" stroke-width="0.631" stroke-miterlimit="10"/>
<path opacity="0.5439" d="M1469.16 472.852C1429.93 479.097 1381.91 459.875 1323.5 435.265C1285.58 419.327 1243.25 400.471 1204.92 380.667C1171.7 363.386 1137.8 346.5 1103.66 331.573C1090.75 325.805 1077.51 320.234 1064.72 316.227C1034.61 306.717 1009.2 304.529 987.498 302.471C981.081 301.619 974.861 301.108 968.838 300.939C956.057 300.115 944.156 299.237 931.625 299.636C926.681 299.756 921.053 300.27 915.084 300.982C904.565 302.498 891.942 304.317 877.148 302.375C860.934 300.342 847.638 293.89 836.802 290.12C832.83 288.767 829.056 287.755 825.821 286.888C816.51 284.972 808.384 285.106 800.941 284.845C793.499 284.585 785.912 284.863 777.983 285.339C758.206 285.819 736.706 284.103 702.136 282.641C680.689 281.807 654.153 281.631 625.172 281.956C606.421 281.844 587.473 281.389 568.919 281.619C529.852 281.842 496.321 282.97 464.644 282.573C433.506 282.32 403.683 280.396 369.835 276.239C354.16 274.35 338.091 271.778 320.943 268.917C299.876 265.584 277.39 262.159 253.945 263.39C230.841 264.423 207.03 271.334 192.004 283.199" stroke="#4A6D82" stroke-width="0.6252" stroke-miterlimit="10"/>
<path opacity="0.5268" d="M1483.69 470.388C1445.81 472.662 1399.35 449.81 1341.31 422.702C1303.83 405.146 1261.98 385.554 1223.26 365.066C1189.84 347.443 1155.74 330.215 1121.26 315.486C1108.01 309.915 1094.77 304.344 1081.83 300.876C1051.58 291.905 1025.73 291.335 1003.94 290.697C997.382 290.384 991.359 290.215 985.337 290.046C972.608 290.103 960.76 290.106 948.282 291.386C943.193 292.045 937.763 292.901 931.991 293.955C921.669 295.813 908.902 298.17 894.108 296.229C877.552 294.393 864.742 287.205 854.05 282.895C849.882 281.2 846.449 279.992 843.214 279.125C833.851 276.327 826.211 275.725 818.913 274.925C811.614 274.125 804.316 273.325 796.676 272.723C777.478 271.046 756.556 267.173 722.077 264.292C700.577 262.576 673.844 262.059 644.81 261.502C626.059 261.39 606.769 261.133 588.215 261.363C549.003 262.125 515.184 264.332 483.757 265.157C452.527 266.324 422.612 265.821 388.817 262.544C372.998 261.195 356.587 258.82 339.294 256.498C317.886 253.362 295.058 250.135 271.955 251.168C248.51 252.398 224.843 258.77 209.422 269.952" stroke="#4A6D82" stroke-width="0.6195" stroke-miterlimit="10"/>
<path opacity="0.5098" d="M1498.96 468.412C1462.23 466.372 1417.52 440.232 1360.06 410.967C1323.21 392.136 1281.79 370.926 1242.88 350.096C1209.6 331.935 1175.16 314.904 1140.33 300.372C1127.09 294.801 1113.7 289.769 1100.76 286.301C1070.03 278.067 1044.09 278.917 1022.01 279.358C1015.64 279.386 1009.48 279.756 1003.31 280.126C990.437 280.722 978.839 281.949 966.414 284.109C961.522 285.11 956.092 285.967 950.175 287.56C939.709 289.956 927.336 292.998 912.201 291.253C895.645 289.418 882.638 281.887 872.432 276.841C868.605 274.949 864.976 273.399 862.082 272.334C853.205 268.8 845.513 267.317 838.503 265.438C831.152 263.758 824.34 262.221 816.647 260.738C798.027 256.904 777.682 250.875 743.098 246.231C721.348 243.293 694.759 242.236 665.725 241.68C646.777 241.226 627.487 240.969 608.788 241.738C569.432 243.039 535.324 246.324 503.805 248.57C472.287 250.815 442.478 252.074 408.196 249.534C392.233 248.724 375.677 246.888 358.385 244.566C336.832 241.97 314.003 238.742 290.558 239.973C267.113 241.203 242.907 247.431 227.092 257.929" stroke="#4A6D82" stroke-width="0.6137" stroke-miterlimit="10"/>
<path opacity="0.4927" d="M1514.47 467.658C1478.76 461.844 1435.79 432.416 1378.86 400.113C1342.98 379.809 1301.51 357.718 1262.2 336.205C1228.73 317.701 1194.09 300.329 1158.92 285.994C1145.34 280.62 1131.95 275.588 1118.67 272.319C1087.45 264.82 1061.41 267.09 1039.24 268.951C1032.73 269.519 1026.42 270.428 1020.45 271.14C1007.63 272.617 996.088 274.725 983.913 278.108C979.219 279.451 973.644 280.846 967.925 282.781C957.511 286.059 945.139 289.1 930.003 287.356C913.447 285.521 900.243 277.648 890.182 272.063C886.355 270.171 883.067 268.423 879.976 267.017C871.244 262.943 863.84 260.382 856.975 257.964C850.11 255.547 843.245 253.13 835.841 250.568C817.799 244.578 797.691 236.589 763.198 230.525C741.395 226.706 714.411 224.965 685.18 224.068C666.232 223.613 646.599 223.554 627.901 224.323C588.401 226.163 554.003 230.527 522.393 234.192C490.783 237.858 460.685 240.195 426.312 239.075C410.007 238.462 393.648 236.969 376.211 235.186C354.514 233.128 331.344 230.098 307.899 231.329C284.257 232.217 260.05 238.445 243.498 248.457" stroke="#4A6D82" stroke-width="0.6079" stroke-miterlimit="10"/>
<path opacity="0.4756" d="M1530.92 467.731C1496.36 457.604 1455.14 424.888 1398.59 390.086C1363.34 368.506 1321.97 344.995 1282.46 323.14C1248.79 304.295 1214.15 286.922 1178.3 272.982C1164.71 267.609 1150.98 262.774 1137.56 260.043C1105.85 253.281 1079.53 256.63 1057.81 260.056C1051.15 261.162 1044.84 262.072 1039.07 263.125C1026.3 265.483 1014.47 268.669 1002.69 272.736C998.191 274.421 992.472 276.355 986.752 278.29C976.536 281.91 963.677 285.688 948.542 283.944C931.447 281.964 918.926 273.697 909.009 267.572C905.327 265.141 902.039 263.393 899.093 261.448C890.847 256.638 883.39 253.195 877.011 250.041C870.094 246.743 863.373 243.786 856.456 240.488C838.649 232.538 819.46 222.196 784.862 214.37C763.348 209.472 736.167 207.39 706.738 206.15C687.593 205.354 667.961 205.295 648.92 206.261C609.078 208.299 574.931 213.885 542.888 219.168C511.528 224.057 481.338 227.814 446.137 227.628C430.029 227.357 413.184 226.6 395.406 225.014C373.366 223.154 350.052 220.663 326.409 221.552C302.425 222.638 278.364 228.326 261.614 237.996" stroke="#4A6D82" stroke-width="0.6021" stroke-miterlimit="10"/>
<path opacity="0.4585" d="M1547.97 468.829C1514.56 454.388 1475.09 418.385 1419.11 381.426C1384.3 358.229 1343.41 333.981 1303.85 311.245C1270.33 291.861 1235.14 274.344 1199.15 260.943C1185.22 255.767 1171.49 250.932 1157.92 248.74C1126.07 242.518 1099.66 247.286 1077.31 251.988C1070.85 253.436 1064.39 254.885 1058.48 256.478C1045.76 259.717 1033.98 263.784 1022.25 268.731C1017.42 270.613 1012.43 273.035 1006.37 275.167C996.011 279.325 983.349 283.445 968.214 281.701C951.119 279.721 938.401 271.112 928.97 264.251C925.288 261.82 922.144 259.533 919.198 257.588C910.899 251.896 904.126 248.059 897.497 243.682C891.066 239.648 884.095 235.468 877.664 231.433C860.435 221.327 841.825 208.828 807.318 199.582C785.751 193.803 758.517 190.84 728.549 189.456C709.403 188.66 689.771 188.6 670.389 189.764C630.403 192.341 596.164 199.347 564.173 205.511C532.525 211.478 502.243 216.655 467.292 217.692C451.04 217.961 433.853 217.401 416.272 216.157C394.088 214.836 370.774 212.345 346.789 213.431C322.805 214.517 298.546 219.863 281.061 229.047" stroke="#4A6D82" stroke-width="0.5963" stroke-miterlimit="10"/>
<path opacity="0.4415" d="M1565.26 471.151C1533.21 452.739 1495.14 413.644 1439.69 373.649C1405.5 349.175 1364.9 323.849 1324.95 300.43C1291.23 280.703 1256.05 263.186 1219.51 249.641C1205.59 244.465 1191.71 240.169 1177.6 237.833C1145.27 232.347 1118.76 238.536 1096.32 244.657C1089.71 246.645 1083.46 248.435 1077.4 250.568C1064.73 254.687 1053.01 259.635 1041.33 265.464C1036.69 267.688 1031.37 270.307 1025.7 273.122C1015.39 278.162 1002.93 282.624 987.252 280.735C970.157 278.755 957.781 269.949 947.956 262.404C944.418 259.434 941.274 257.147 938.67 255.004C930.857 248.576 924.031 243.858 917.889 238.745C911.404 233.829 904.92 228.913 898.436 223.997C881.785 211.734 863.752 197.078 828.798 186.268C807.178 179.608 779.55 175.961 749.924 174.38C730.58 173.242 710.606 173.38 691.422 174.885C650.949 178.198 616.763 186.086 584.681 193.67C552.941 201.057 522.567 207.655 487.13 209.428C470.733 210.236 453.402 210.215 435.479 209.169C413.296 207.848 389.495 206.093 365.511 207.179C341.526 208.265 316.728 213.467 298.848 221.967" stroke="#4A6D82" stroke-width="0.5905" stroke-miterlimit="10"/>
<path opacity="0.4244" d="M1583.34 474.84C1552.44 452.115 1516.13 409.733 1461.06 367.238C1427.5 341.489 1386.99 314.743 1346.84 290.982C1313.26 270.716 1277.54 253.055 1240.53 240.246C1226.26 235.267 1212.04 231.169 1198.47 228.977C1165.65 224.228 1138.85 231.495 1116.51 239.378C1110.11 241.708 1103.71 244.037 1097.65 246.169C1085.04 251.17 1073.36 256.999 1061.74 263.709C1057.3 266.275 1051.83 269.432 1046.16 272.248C1036.05 277.629 1023.44 282.63 1007.96 281.084C990.527 279.301 978.295 269.956 968.957 261.674C965.419 258.704 962.42 255.878 959.815 253.735C952.147 246.768 945.952 240.774 939.612 235.319C933.417 229.325 927.077 223.87 921.079 218.218C905.006 203.798 887.551 186.985 852.688 174.755C831.015 167.214 803.334 162.686 773.169 160.96C753.484 160.019 733.654 159.618 714.325 161.663C673.511 165.173 639.233 174.481 607.059 183.486C575.227 192.293 544.763 200.31 509.037 203.162C492.495 204.509 475.164 204.488 457.097 203.981C434.769 203.199 410.968 201.445 386.444 202.386C362.118 203.67 337.465 208.332 319.189 216.149" stroke="#4A6D82" stroke-width="0.5847" stroke-miterlimit="10"/>
<path opacity="0.4073" d="M1601.33 479.949C1571.79 453.252 1536.68 407.438 1482.53 362.589C1449.6 335.564 1409.38 307.74 1369.18 283.098C1335.4 262.49 1299.49 244.487 1262.13 231.876C1247.86 226.896 1233.3 222.996 1219.58 221.343C1186.27 217.33 1159.39 226.018 1137.1 234.782C1130.36 237.309 1124.35 240.322 1118.14 242.994C1105.25 249.073 1093.97 255.585 1082.4 263.176C1077.81 266.281 1072.88 269.583 1067.07 272.938C1056.81 278.859 1044.4 284.201 1028.58 282.852C1011.15 281.069 999.057 271.185 989.863 262.364C986.667 259.196 983.471 256.028 981.011 253.347C973.631 245.302 967.58 238.768 961.53 232.235C955.479 225.702 949.428 219.168 943.377 212.635C927.882 196.058 910.663 177.287 875.694 163.294C854.311 154.674 826.432 149.805 796.07 147.737C776.187 146.455 756.213 146.593 736.884 148.637C695.925 152.687 661.701 162.876 629.238 172.959C597.117 182.844 566.561 192.282 530.546 196.212C513.86 198.098 496.384 198.616 478.317 198.109C455.647 197.525 431.504 195.968 407.178 197.251C382.655 198.192 357.804 202.513 338.989 210.186" stroke="#4A6D82" stroke-width="0.5789" stroke-miterlimit="10"/>
<path opacity="0.3902" d="M1620.31 486.768C1591.58 455.955 1558.42 407.195 1504.79 359.308C1472.84 330.811 1432.37 301.763 1391.97 276.779C1358 255.83 1322.08 237.827 1284.38 225.413C1269.76 220.631 1255.21 216.73 1241.15 215.275C1207.7 211.801 1180.38 222.106 1158 232.291C1151.45 235.16 1145.1 238.37 1139.29 241.725C1126.45 248.685 1115.22 256.079 1103.7 264.551C1099.31 267.997 1094.04 271.497 1088.43 275.194C1078.22 281.995 1065.67 287.877 1049.99 285.988C1032.56 284.206 1020.27 273.979 1011.22 264.62C1007.83 261.11 1005.17 258.086 1002.51 255.063C995.279 246.479 989.517 238.867 983.61 231.795C977.849 224.183 971.942 217.11 966.18 209.499C950.921 190.963 934.622 169.837 899.745 154.424C878.308 144.924 850.035 139.371 819.475 136.961C799.593 135.679 779.422 135.475 759.751 137.716C718.647 142.306 684.134 153.573 651.579 165.076C619.367 176.381 588.719 187.239 552.415 192.248C535.584 194.673 517.767 195.388 499.555 195.421C476.741 195.375 452.598 193.818 428.075 194.76C403.551 195.701 378.161 199.878 359.149 207.208" stroke="#4A6D82" stroke-width="0.5731" stroke-miterlimit="10"/>
<path opacity="0.3732" d="M1639.19 495.008C1611.62 459.881 1580.2 407.833 1527.15 357.79C1495.83 328.016 1455.65 297.891 1414.85 272.223C1381.03 250.734 1344.57 232.587 1306.38 220.909C1291.77 216.127 1276.87 212.424 1262.67 211.508C1228.93 209.113 1201.32 220.496 1178.85 232.101C1172.16 235.509 1166 239.061 1160.05 242.955C1147.26 250.796 1136.08 259.071 1124.82 268.765C1120.62 272.554 1115.21 276.593 1109.79 280.631C1099.79 287.774 1087.09 294.195 1071.07 292.504C1053.29 290.919 1041.49 279.956 1032.59 270.057C1029.54 266.35 1026.68 262.985 1024.37 259.764C1017.62 250.443 1011.8 241.951 1006.18 233.8C1000.57 225.649 994.95 217.498 989.135 209.005C974.453 188.313 958.732 165.03 923.749 147.855C902.26 137.474 873.934 131.04 843.374 128.63C823.294 127.006 802.978 127.341 783.308 129.583C741.862 134.37 707.454 147.399 674.611 159.98C642.649 172.508 611.37 184.642 575.119 190.532C558.144 193.496 540.524 194.553 521.97 194.783C499.012 195.277 474.527 193.917 450.004 194.858C425.138 195.997 399.893 199.635 380.486 206.281" stroke="#4A6D82" stroke-width="0.5674" stroke-miterlimit="10"/>
<path opacity="0.3561" d="M1658.58 505.69C1632.36 466.592 1602.15 411.111 1549.82 358.373C1518.94 326.982 1479.25 296.12 1438.39 269.571C1404.37 247.741 1367.91 229.593 1329.19 217.771C1314.23 213.186 1299.53 209.825 1284.99 209.106C1250.76 207.447 1222.86 219.909 1200.5 233.276C1194 237.025 1187.7 241.117 1181.41 245.208C1168.67 253.931 1157.21 263.283 1146.33 273.662C1141.8 277.648 1137.12 282.173 1131.36 286.408C1121.21 294.091 1108.71 300.854 1092.69 299.163C1074.91 297.577 1062.92 286.273 1054.5 275.637C1051.25 271.588 1048.74 268.026 1046.42 264.805C1039.62 254.603 1034.49 245.716 1028.82 236.684C1023.49 227.455 1018.02 218.765 1012.69 209.535C998.585 186.686 983.1 161.444 948.209 142.849C926.666 131.587 897.946 124.469 867.386 122.059C847.306 120.435 826.793 120.429 806.978 123.21C765.046 128.733 730.691 142.643 697.756 156.644C665.505 170.251 634.332 184.147 597.792 191.115C580.475 194.276 562.711 195.873 544.013 196.641C520.712 197.333 496.425 196.315 471.56 197.454C446.694 198.592 421.251 201.888 401.108 208.048" stroke="#4A6D82" stroke-width="0.5616" stroke-miterlimit="10"/>
<path opacity="0.339" d="M1677.73 518.334C1652.66 474.923 1624.06 416.693 1572.26 360.917C1542 328.25 1502.4 295.968 1461.35 269.077C1427.47 246.708 1390.48 228.416 1351.6 217.133C1336.65 212.549 1321.61 209.384 1306.72 208.863C1272.01 207.941 1244.02 221.822 1221.71 236.07C1215.07 240.359 1208.97 244.792 1202.87 249.226C1190.18 258.829 1178.77 269.063 1167.95 280.322C1163.62 284.65 1158.59 289.372 1153.23 294.292C1143.13 302.855 1130.63 309.618 1114.47 308.466C1096.69 306.881 1084.5 295.234 1076.22 284.06C1073.32 279.813 1070.61 275.909 1068.63 272.491C1062.32 261.552 1057.13 251.784 1051.95 242.016C1046.77 232.247 1041.38 222.137 1036.2 212.369C1022.68 187.363 1007.77 159.964 972.968 139.949C951.373 127.806 922.797 120.149 891.842 117.055C871.763 115.431 851.25 115.425 831.092 118.403C789.016 124.465 754.372 139.453 721.688 154.678C689.345 169.705 658.08 185.021 621.054 192.725C603.593 196.426 585.684 198.562 566.986 199.33C543.541 200.561 518.912 199.74 493.849 200.537C468.786 201.334 443.343 204.63 422.464 210.304" stroke="#4A6D82" stroke-width="0.5558" stroke-miterlimit="10"/>
<path opacity="0.322" d="M1695.81 533.872C1672.1 486.489 1644.7 424.827 1593.82 366.696C1564.2 332.754 1524.89 299.393 1483.44 271.819C1449.56 249.45 1412.37 230.816 1372.62 219.586C1357.86 215.343 1342.28 212.035 1327.59 211.855C1292.73 211.472 1264.31 226.971 1241.91 242.639C1235.46 247.27 1229.02 251.9 1222.97 257.215C1210.34 267.699 1198.98 278.814 1188.22 290.954C1184.08 295.623 1178.91 300.885 1173.55 305.805C1163.65 314.71 1151.2 322.354 1134.84 320.86C1116.72 319.472 1105.01 307.089 1096.69 295.034C1093.78 290.787 1091.21 286.343 1089.04 282.583C1083.21 270.909 1077.98 260.259 1072.74 249.61C1067.85 238.763 1062.61 228.114 1057.37 217.465C1044.42 190.302 1030.09 160.747 995.189 138.969C973.882 125.748 944.912 117.407 913.615 114.511C893.338 112.545 872.483 112.736 852.326 115.714C810.105 122.316 775.514 138.185 742.396 155.027C709.962 171.474 678.408 187.868 641.29 196.993C623.685 201.232 605.434 203.566 586.591 204.874C562.804 206.301 538.373 205.823 512.968 206.817C487.564 207.811 461.923 210.765 441.188 215.9" stroke="#4A6D82" stroke-width="0.55" stroke-miterlimit="10"/>
<path opacity="0.3049" d="M1713.72 552.249C1691.16 500.553 1665.51 435.603 1615.01 374.974C1586.02 339.756 1546.8 304.975 1505.5 276.862C1471.42 254.151 1434.03 235.175 1394.13 224.484C1379.03 220.439 1363.45 217.13 1348.62 217.49C1313.27 217.843 1284.56 234.421 1262.26 251.851C1255.68 257.021 1249.43 261.993 1243.39 267.307C1230.81 278.673 1219.5 290.668 1208.79 303.69C1204.85 308.701 1199.88 314.304 1194.17 319.421C1184.13 328.866 1171.53 337.049 1155.18 335.555C1137.06 334.167 1125.15 321.442 1117.31 308.65C1114.21 304.062 1111.98 299.421 1110.15 295.464C1104.27 282.908 1099.52 271.522 1094.77 260.136C1089.82 248.408 1085.07 237.022 1080.32 225.637C1067.95 196.317 1054.2 164.605 1019.04 141.605C997.685 127.503 968.319 118.478 937.167 115.043C916.89 113.077 896.035 113.268 875.536 116.443C832.974 123.242 798.291 140.532 765.081 158.794C732.358 176.319 701.252 194.278 663.648 204.139C646.24 208.721 627.844 211.593 608.66 213.098C585.07 214.868 559.955 214.784 534.551 215.778C509.146 216.773 483.308 219.385 461.837 224.033" stroke="#4A6D82" stroke-width="0.5442" stroke-miterlimit="10"/>
<path opacity="0.2878" d="M1731.24 573.125C1710.03 517.457 1685.79 449.416 1635.82 385.749C1607.26 348.914 1568.86 313.199 1526.83 284.6C1492.89 261.349 1455.16 242.571 1414.72 231.735C1399.63 227.69 1383.9 224.921 1368.53 225.136C1332.7 226.226 1303.89 244.223 1281.31 262.732C1274.58 268.441 1268.19 273.953 1262.34 279.609C1249.81 291.855 1238.56 304.732 1227.9 318.634C1223.81 324.184 1219.04 330.129 1213.53 335.588C1203.54 345.914 1190.95 354.097 1174.25 352.8C1155.59 351.268 1144.37 338.148 1136.33 325.015C1133.57 320.229 1131.34 315.588 1129.32 311.289C1123.92 297.996 1119.12 285.73 1114.51 273.804C1110.05 261.34 1105.24 249.073 1100.44 236.807C1088.31 205.528 1075.13 171.659 1040.21 146.7C1018.8 131.716 989.384 121.811 957.89 118.573C937.415 116.265 916.219 116.653 895.917 120.171C853.21 127.509 818.239 145.877 785.279 165.361C752.806 184.11 721.267 203.686 683.374 214.626C665.821 219.746 647.084 222.816 628.097 224.663C604.165 226.63 578.906 227.085 553.304 227.738C527.899 228.732 501.864 231.002 479.656 235.165" stroke="#4A6D82" stroke-width="0.5384" stroke-miterlimit="10"/>
<path opacity="0.2707" d="M1748.38 596.498C1727.99 536.714 1705.5 465.386 1656.44 399.365C1628.51 361.254 1590.41 324.461 1547.98 295.178C1513.85 271.585 1475.92 252.465 1434.99 242.366C1419.55 238.519 1403.83 235.749 1388.31 236.504C1351.99 238.33 1323.44 257.55 1300.42 277.676C1293.69 283.385 1287.35 289.778 1281.36 295.973C1268.88 309.1 1257.69 322.858 1247.08 337.642C1242.99 343.192 1238.42 349.479 1232.77 355.477C1222.97 366.144 1210.23 374.866 1193.73 373.912C1175.07 372.379 1163.65 358.918 1156.1 345.048C1153.34 340.262 1151.26 335.082 1149.57 330.585C1144.32 316.754 1140.01 303.75 1135.49 290.405C1130.98 277.06 1126.66 264.057 1122.14 250.711C1110.59 217.276 1097.99 181.251 1062.82 155.068C1041.16 138.862 1012.08 128.759 980.196 124.838C959.721 122.53 938.327 122.576 917.881 126.633C875.03 134.51 839.967 154.298 806.521 174.519C773.956 194.688 742.128 215.343 704.143 227.702C686.446 233.362 667.565 236.971 648.236 239.016C624.16 241.522 598.703 241.635 572.956 242.827C547.013 243.677 520.978 245.947 498.717 249.228" stroke="#4A6D82" stroke-width="0.5326" stroke-miterlimit="10"/>
<path opacity="0.2537" d="M1765.87 622.857C1746.64 558.759 1725.55 484.341 1677.22 415.624C1649.58 376.434 1611.91 338.024 1569.62 308.201C1535.64 284.07 1497.37 265.147 1456.1 255.245C1440.66 251.398 1424.59 248.826 1408.73 249.777C1371.93 252.34 1343.28 272.981 1320.52 294.33C1313.64 300.578 1307.3 306.97 1301.51 313.508C1288.74 327.713 1277.6 342.352 1267.39 357.819C1263.5 363.711 1258.78 370.537 1253.32 376.877C1243.38 388.083 1231.04 397.489 1214 396.39C1195.34 394.858 1184.07 380.857 1176.66 366.448C1174.04 361.123 1171.96 355.943 1170.08 351.104C1165.31 336.536 1160.94 322.652 1156.57 308.768C1152.54 294.686 1148.17 280.801 1143.61 266.575C1132.63 230.983 1120.41 192.459 1085.34 164.857C1063.62 147.77 1034.15 136.983 1002.26 133.062C981.589 130.412 960.05 130.998 939.604 135.054C896.069 143.326 861.256 164.337 827.719 185.978C794.865 207.225 763.143 229.642 724.672 242.738C706.83 248.937 687.949 252.546 668.475 255.13C644.058 257.833 618.456 258.486 592.854 259.138C566.911 259.988 540.481 261.575 517.681 264.711" stroke="#4A6D82" stroke-width="0.5268" stroke-miterlimit="10"/>
<path opacity="0.2366" d="M1783.19 652.056C1765.31 583.987 1745.43 506.136 1698.02 435.065C1671.01 394.6 1633.63 355.111 1590.95 324.605C1556.76 300.132 1518.29 280.867 1476.69 271.163C1460.91 267.512 1444.84 264.94 1428.83 266.431C1391.89 269.533 1362.61 291.449 1339.75 314.218C1333.07 320.808 1326.59 327.74 1320.65 334.816C1307.94 349.903 1296.85 365.423 1286.88 382.113C1282.85 388.544 1278.33 395.712 1272.87 402.052C1263.33 413.942 1250.64 423.545 1233.6 422.446C1214.6 421.111 1203.47 406.571 1196.21 391.622C1193.59 386.298 1191.66 380.578 1190.12 375.543C1185.3 360.094 1181.41 345.473 1177.53 330.852C1173.45 315.889 1169.57 301.268 1165.48 286.305C1155.08 248.557 1143.11 208.073 1108.46 178.853C1087.03 160.688 1057.17 149.218 1025.08 144.955C1004.41 142.305 982.674 142.549 961.887 146.803C918.207 155.614 883.447 177.505 849.476 200.764C816.531 223.431 784.717 247.268 745.957 261.443C727.971 268.181 708.945 272.329 689.13 275.11C664.568 278.353 638.966 279.005 613.022 279.855C587.079 280.705 560.452 281.949 537.112 284.942" stroke="#4A6D82" stroke-width="0.521" stroke-miterlimit="10"/>
<path opacity="0.2195" d="M1800.18 684.635C1783.45 612.253 1764.98 531.311 1718.29 457.544C1691.71 415.461 1654.81 375.236 1611.74 344.046C1577.36 319.231 1538.89 299.966 1496.6 290.657C1480.82 287.007 1464.41 284.632 1448.6 286.465C1411.17 290.303 1381.8 313.64 1358.85 337.829C1352.03 344.958 1345.74 352.232 1340 359.65C1327.34 375.617 1316.3 392.018 1306.39 409.589C1302.55 416.362 1298.03 423.53 1292.63 430.751C1282.94 443.18 1270.11 453.322 1253.07 452.223C1234.07 450.888 1222.74 436.007 1215.97 420.321C1213.49 414.458 1211.56 408.738 1210.02 403.702C1205.69 387.517 1201.75 372.015 1197.81 356.513C1194.22 340.814 1190.08 324.97 1186.15 309.468C1176.33 269.563 1164.92 226.923 1129.83 196.138C1108.35 177.092 1078.09 164.938 1046.01 160.675C1025.14 157.683 1003.26 158.466 982.469 162.72C938.645 172.07 903.596 195.04 869.875 219.522C836.839 243.609 804.736 268.525 766.029 283.58C747.898 290.858 728.53 295.203 708.912 298.326C684.206 302.108 658.262 302.957 632.318 303.807C606.033 304.854 579.55 305.56 555.816 307.869" stroke="#4A6D82" stroke-width="0.5153" stroke-miterlimit="10"/>
<path opacity="0.2024" d="M1817.18 720.397C1801.81 644.043 1784.74 560.01 1738.57 483.206C1712.63 439.847 1675.82 398.202 1632.89 366.473C1598.66 341.119 1559.65 321.709 1517.02 312.597C1500.89 309.144 1484.34 307.309 1468.34 308.8C1430.41 313.375 1400.95 338.131 1377.91 363.741C1371.29 371.212 1364.86 379.024 1358.97 386.982C1346.37 403.83 1335.38 421.112 1325.52 439.564C1321.88 446.679 1317.22 454.386 1311.81 461.607C1301.98 474.575 1289.55 485.401 1272.31 483.96C1253.31 482.625 1242.12 467.204 1235.49 450.98C1233.02 445.116 1231.23 438.858 1230.03 433.625C1225.84 416.9 1222.19 400.32 1218.74 384.081C1215.1 367.501 1211.45 350.921 1207.8 334.34C1198.56 292.278 1187.73 247.482 1152.73 215.277C1131.2 195.349 1101.08 182.657 1068.6 177.71C1047.73 174.718 1025.66 175.159 1004.72 179.952C960.558 189.5 925.418 213.89 891.606 239.792C858.28 264.958 826.283 291.635 787.287 307.769C768.814 315.243 749.499 320.47 729.684 323.251C704.636 327.23 678.889 328.422 652.407 329.127C625.924 329.832 599.099 330.735 574.971 332.36" stroke="#4A6D82" stroke-width="0.5095" stroke-miterlimit="10"/>
<path opacity="0.1854" d="M1833.65 759.197C1819.44 678.529 1803.78 591.406 1758.53 512.248C1733.22 467.614 1696.7 424.89 1653.37 392.477C1618.94 366.781 1579.93 347.372 1536.96 338.457C1520.84 335.004 1503.94 333.366 1487.79 335.396C1449.38 340.708 1419.63 366.543 1397.04 393.717C1390.27 401.727 1384.04 409.882 1377.81 418.036C1365.26 435.766 1354.32 453.929 1344.52 473.261C1340.74 480.916 1336.27 488.964 1331.06 496.527C1321.63 510.179 1308.85 521.202 1291.46 520.301C1272.12 519.163 1261.08 503.203 1254.6 486.44C1252.46 480.378 1250.67 474.12 1249.08 468.203C1245.38 450.742 1241.68 433.281 1238.18 416.161C1234.82 398.503 1231.31 381.383 1227.81 364.264C1218.8 320.242 1208.9 273.092 1173.79 239.125C1152.21 218.316 1122.04 204.742 1089.21 199.993C1068.15 196.66 1046.27 197.442 1024.99 202.433C980.684 212.52 945.254 237.988 911.35 265.31C878.275 291.699 845.647 319.652 806.362 336.864C787.745 344.878 768.43 350.104 748.129 353.622C722.936 358.14 696.848 359.529 670.365 360.234C643.882 360.94 616.86 361.501 591.995 362.64" stroke="#4A6D82" stroke-width="0.5037" stroke-miterlimit="10"/>
<path opacity="0.1683" d="M1850.34 801.518C1836.94 716.735 1823.02 626.324 1778.5 544.47C1753.62 498.218 1717.59 454.757 1674.21 421.464C1639.58 395.426 1600.38 375.675 1557.06 366.958C1540.59 363.702 1523.7 362.063 1507.41 364.633C1468.85 370.484 1438.67 397.936 1415.79 426.188C1409.22 434.54 1402.64 442.892 1396.81 451.731C1384.11 469.999 1373.09 489.582 1363.68 509.599C1359.89 517.253 1355.82 525.985 1350.27 533.745C1340.69 547.937 1328.11 559.302 1310.73 558.4C1291.38 557.262 1280.49 540.763 1274.15 523.461C1271.82 517.058 1270.37 510.602 1269.12 504.488C1265.36 486.145 1262.35 468.289 1259.13 450.092C1255.92 431.894 1252.7 413.696 1249.49 395.498C1241.06 349.32 1231.39 300.21 1196.38 264.823C1174.74 243.134 1144.18 228.876 1111.5 223.587C1090.09 220.452 1068.01 220.893 1046.93 226.225C1002.14 237.048 966.761 263.398 933.108 291.943C899.941 319.751 867.221 349.124 827.647 367.415C808.886 375.968 789.426 381.734 769.125 385.251C743.932 389.769 717.7 391.698 690.875 392.6C664.05 393.503 637.173 393.525 611.913 393.98" stroke="#4A6D82" stroke-width="0.4979" stroke-miterlimit="10"/>
<path opacity="0.1512" d="M1866.36 847.418C1854.31 758.663 1841.26 665.017 1797.8 580.27C1773.55 532.743 1737.61 487.862 1694.04 454.227C1659.55 427.65 1620.01 408.096 1576.01 399.773C1559.54 396.517 1542.3 395.077 1525.67 397.843C1486.63 404.43 1456.36 433.303 1433.38 462.976C1426.66 471.867 1420.29 480.561 1414.31 489.938C1401.67 509.088 1390.69 529.552 1381.34 550.449C1377.75 558.445 1373.33 567.375 1367.99 575.477C1358.26 590.207 1345.88 601.914 1328.15 601.21C1308.81 600.072 1297.72 583.231 1291.86 565.192C1289.53 558.789 1288.23 551.794 1286.98 545.68C1283.71 526.601 1280.64 507.864 1277.57 489.127C1274.3 470.048 1271.57 451.114 1268.31 432.035C1260.45 383.701 1251.36 332.434 1216.24 295.285C1194.55 272.714 1163.94 257.576 1130.92 252.485C1109.31 249.007 1087.43 249.79 1065.81 254.977C1020.87 266.34 985.746 293.912 951.462 323.733C918.006 352.62 885.392 383.755 845.332 402.782C826.426 411.874 806.625 417.837 786.179 421.894C760.841 426.951 734.07 428.735 707.245 429.638C680.421 430.541 653.346 430.221 627.547 430.531" stroke="#4A6D82" stroke-width="0.4921" stroke-miterlimit="10"/>
<path opacity="0.1341" d="M1882.44 897.381C1871.55 804.313 1859.91 707.576 1817.71 620.277C1793.89 571.132 1758.44 525.515 1714.47 491.196C1679.79 464.277 1639.7 444.579 1595.9 436.598C1579.09 433.54 1561.85 432.099 1545.42 435.208C1505.89 442.531 1475.53 472.824 1452.46 503.917C1445.74 512.808 1439.42 522.383 1433.1 531.958C1420.51 551.988 1409.59 573.333 1400.29 595.112C1396.55 603.647 1392.34 612.918 1387.18 621.362C1377.85 636.776 1364.98 649.22 1347.4 647.976C1327.72 647.036 1316.77 629.656 1311.06 611.077C1308.87 604.135 1307.57 597.14 1306.66 590.829C1303.88 571.013 1300.76 551.395 1297.98 531.58C1295.2 511.765 1292.41 491.949 1289.44 471.792C1282.16 421.301 1273.65 367.878 1238.28 329.506C1216.88 305.857 1186.06 290.376 1152.85 284.943C1131.24 281.466 1108.82 282.104 1087.4 287.634C1042.12 299.193 1006.9 328.186 972.328 359.085C938.78 389.392 906.219 421.408 866.067 441.855C847.359 451.289 827.413 457.792 806.625 462.046C780.946 467.3 754.372 469.426 727.547 470.329C700.525 470.89 673.109 470.767 646.915 470.394" stroke="#4A6D82" stroke-width="0.4863" stroke-miterlimit="10"/>
<path opacity="0.1171" d="M1897.85 950.92C1888.32 853.88 1877.88 753.711 1836.41 663.717C1812.88 613.493 1777.86 566.259 1734.04 531.4C1699.5 503.942 1659.07 484.442 1614.73 476.316C1597.92 473.258 1580.54 472.356 1563.76 475.662C1523.75 483.722 1493.09 515.093 1470.28 547.409C1463.42 556.839 1457.29 566.756 1451.17 576.672C1438.29 597.781 1427.76 619.81 1418.51 642.47C1414.98 651.347 1410.96 660.96 1405.46 669.601C1395.99 685.554 1383.32 698.34 1365.39 697.293C1345.71 696.353 1334.91 678.434 1329.34 659.316C1327.15 652.374 1325.99 644.84 1324.89 638.186C1322.05 617.49 1319.42 597.136 1316.78 576.781C1313.95 556.085 1311.45 535.191 1308.82 514.837C1302.12 462.189 1293.84 406.806 1258.71 366.475C1237.26 341.945 1206.05 325.781 1172.63 320.006C1151.03 316.528 1128.61 317.167 1106.85 322.894C1061.42 334.993 1025.91 365.064 991.247 397.383C957.608 429.11 924.956 462.546 884.318 483.73C865.464 493.703 845.177 500.403 824.586 504.999C798.763 510.793 771.847 513.116 745.022 514.018C717.658 514.777 690.189 513.773 663.798 513.058" stroke="#4A6D82" stroke-width="0.4805" stroke-miterlimit="10"/>
<path opacity="0.06" d="M1913.14 1008.18C1904.76 906.828 1895.73 803.569 1855.18 711.22C1814.62 618.871 1735.49 537.857 1633.14 520.835C1615.99 517.974 1598.61 517.072 1581.49 520.575C1541.33 529.175 1510.59 561.966 1487.34 595.899C1466.03 626.886 1448.75 660.107 1435.98 694.825C1426.4 720.864 1411.03 753.44 1383.16 751.753C1355.84 750.21 1346.24 717.011 1343.43 690.831C1338.74 647.966 1333.7 605.297 1329.01 562.432C1322.55 507.824 1315.19 450.088 1280.15 408.336C1244.91 366.243 1182.79 347.867 1127.64 362.849C1037.18 387.73 986.991 485.525 904.453 530.444C837.153 567.021 757.243 564.39 681.883 560.956" stroke="#4A6D82" stroke-width="0.4747" stroke-miterlimit="10"/>
</g>
<defs>
<clipPath id="clip0_661_5563">
<rect width="2000" height="1050" fill="white"/>
</clipPath>
</defs>
</svg>
