<svg width="110" height="110" viewBox="0 0 110 110" fill="none" xmlns="http://www.w3.org/2000/svg">
<g opacity="0.1">
<g filter="url(#filter0_i_1712_37475)">
<path d="M45.4975 100.545C62.1452 101.602 87.7076 99.9587 88.3124 92.1483C88.3124 92.1483 87.149 95.1058 74.5547 97.459C60.3493 100.11 42.8245 99.803 32.4277 98.1045C32.4277 98.1045 34.556 99.8488 45.4975 100.545Z" fill="white"/>
<path d="M42.0932 80.0571C42.0932 80.0571 38.5614 82.0943 44.6093 82.7811C51.9313 83.6097 55.6892 83.4953 63.7499 81.9799C65.3688 82.9416 67.0678 83.7641 68.8282 84.4384C50.7356 92.1297 27.8785 83.9806 42.0886 80.0571" fill="white"/>
<path d="M39.8794 70.0169C39.8794 70.0169 35.9229 72.9424 41.9707 73.5467C49.7913 74.3433 55.9731 74.4119 66.6652 72.3701C67.7611 73.3843 69.0561 74.1635 70.4694 74.6592C48.591 81.0045 24.2243 75.1582 39.8794 70.0078" fill="white"/>
<path d="M58.5468 52.9931C63.0065 58.084 57.3742 62.6668 57.3742 62.6668C57.3742 62.6668 68.6712 56.8708 63.4728 49.5961C58.6161 42.825 54.8951 39.4647 75.0514 27.8682C75.0514 27.8682 43.4088 35.706 58.5238 52.9748" fill="white"/>
<path d="M82.4598 87.4767C82.4598 87.4767 85.0728 89.6147 79.579 91.2674C69.1361 94.4035 36.1086 95.3512 26.9491 91.391C23.6528 89.9672 29.8391 87.994 31.7827 87.5774C32.8265 87.325 33.8987 87.2065 34.9729 87.2249C31.2795 84.6611 11.2663 92.2609 24.8162 94.4309C61.7079 100.383 92.0717 91.7573 82.5244 87.4767" fill="white"/>
<path d="M43.774 59.6231C43.774 59.6231 26.9739 63.5786 37.8231 65.0162C42.4074 65.6251 51.5392 65.474 60.0477 64.7781C67.0004 64.1967 73.9808 62.9468 73.9808 62.9468C72.513 63.5785 71.1002 64.3288 69.7565 65.1901C52.6749 69.6401 19.7396 67.5662 29.2269 63.0155C37.2691 59.1836 43.774 59.6231 43.774 59.6231Z" fill="white"/>
<path d="M73.93 76.327C91.2701 67.3904 83.2556 58.8018 77.6556 59.9601C76.9821 60.084 76.3198 60.2616 75.6751 60.4911C76.0417 59.9726 76.5585 59.5767 77.157 59.3558C88.237 55.4964 96.7409 70.7417 73.5791 76.7803C73.7256 76.6523 73.8449 76.4967 73.93 76.3224" fill="white"/>
<path d="M63.4795 9.16669C63.4795 9.16669 73.0868 18.6939 54.3709 33.344C39.3621 45.0961 50.9499 51.7986 54.3709 59.4395C45.6269 51.6154 39.1636 44.7161 43.4894 38.293C49.8188 28.8711 67.3575 24.2975 63.4795 9.16669Z" fill="white"/>
</g>
</g>
<defs>
<filter id="filter0_i_1712_37475" x="20.167" y="9.16669" width="69.1455" height="93.6664" filterUnits="userSpaceOnUse" color-interpolation-filters="sRGB">
<feFlood flood-opacity="0" result="BackgroundImageFix"/>
<feBlend mode="normal" in="SourceGraphic" in2="BackgroundImageFix" result="shape"/>
<feColorMatrix in="SourceAlpha" type="matrix" values="0 0 0 0 0 0 0 0 0 0 0 0 0 0 0 0 0 0 127 0" result="hardAlpha"/>
<feOffset dx="1" dy="2"/>
<feGaussianBlur stdDeviation="2"/>
<feComposite in2="hardAlpha" operator="arithmetic" k2="-1" k3="1"/>
<feColorMatrix type="matrix" values="0 0 0 0 0 0 0 0 0 0 0 0 0 0 0 0 0 0 0.1 0"/>
<feBlend mode="normal" in2="shape" result="effect1_innerShadow_1712_37475"/>
</filter>
</defs>
</svg>
