<svg width="110" height="110" viewBox="0 0 110 110" fill="none" xmlns="http://www.w3.org/2000/svg">
<g opacity="0.1" filter="url(#filter0_i_1712_37471)">
<path fill-rule="evenodd" clip-rule="evenodd" d="M12.833 12.8333H95.333V95.3333H12.833V12.8333ZM75.898 81.993C72.0742 81.993 69.9122 79.9986 68.2504 77.2853L61.9503 80.9454C64.2262 85.4423 68.8776 88.8733 76.0774 88.8733C83.4409 88.8733 88.9238 85.0495 88.9238 78.0697C88.9238 71.5954 85.2048 68.7158 78.6179 65.8911L76.6798 65.0609C73.3536 63.6204 71.9131 62.6789 71.9131 60.3532C71.9131 58.4714 73.3523 57.0309 75.623 57.0309C77.8492 57.0309 79.2831 57.9698 80.6123 60.3532L86.6492 56.477C84.0956 51.9853 80.552 50.2698 75.623 50.2698C68.6995 50.2698 64.2694 54.696 64.2694 60.5103C64.2694 66.8222 67.9859 69.8079 73.5801 72.1913L75.5182 73.0228C79.054 74.5694 81.1623 75.5109 81.1623 78.1692C81.1623 80.3876 79.1103 81.993 75.898 81.993ZM45.8536 81.9446C43.19 81.9446 42.0822 80.1178 40.8643 77.9571L34.5537 81.7776C36.3818 85.6466 39.9764 88.8589 46.1836 88.8589C53.0534 88.8589 57.7598 85.2053 57.7598 77.1779V50.7125H50.0074V77.0732C50.0074 80.948 48.4006 81.9446 45.8536 81.9446Z" fill="white"/>
</g>
<defs>
<filter id="filter0_i_1712_37471" x="0" y="0" width="111" height="112" filterUnits="userSpaceOnUse" color-interpolation-filters="sRGB">
<feFlood flood-opacity="0" result="BackgroundImageFix"/>
<feBlend mode="normal" in="SourceGraphic" in2="BackgroundImageFix" result="shape"/>
<feColorMatrix in="SourceAlpha" type="matrix" values="0 0 0 0 0 0 0 0 0 0 0 0 0 0 0 0 0 0 127 0" result="hardAlpha"/>
<feOffset dx="1" dy="2"/>
<feGaussianBlur stdDeviation="2"/>
<feComposite in2="hardAlpha" operator="arithmetic" k2="-1" k3="1"/>
<feColorMatrix type="matrix" values="0 0 0 0 0 0 0 0 0 0.235294 0 0 0 0 0.290196 0 0 0 0.15 0"/>
<feBlend mode="normal" in2="shape" result="effect1_innerShadow_1712_37471"/>
</filter>
</defs>
</svg>
