<svg width="110" height="110" viewBox="0 0 110 110" fill="none" xmlns="http://www.w3.org/2000/svg">
<g opacity="0.1">
<g filter="url(#filter0_i_1712_37492)">
<g filter="url(#filter1_b_1712_37492)">
<path d="M55.0427 12.8341C51.6729 12.8496 48.4548 13.1342 45.6233 13.6304C37.2819 15.0899 35.7674 18.1446 35.7674 23.7781V31.2183H55.4792V33.6983H35.7674H28.3697C22.641 33.6983 17.6247 37.1084 16.0556 43.5957C14.2458 51.0316 14.1655 55.6717 16.0556 63.436C17.4568 69.2154 20.803 73.3334 26.5318 73.3334H33.3092V64.4144C33.3092 57.9709 38.9385 52.2872 45.6233 52.2872H65.3121C70.7927 52.2872 75.168 47.8181 75.168 42.3671V23.7781C75.168 18.4876 70.6614 14.5134 65.3121 13.6304C61.9259 13.0722 58.4124 12.8186 55.0427 12.8341ZM44.3827 18.8181C46.4188 18.8181 48.0815 20.4917 48.0815 22.5495C48.0815 24.6 46.4188 26.2582 44.3827 26.2582C42.3393 26.2582 40.6839 24.6 40.6839 22.5495C40.6838 20.4917 42.3393 18.8181 44.3827 18.8181Z" fill="white"/>
</g>
<g filter="url(#filter2_b_1712_37492)">
<path d="M78.4417 33.0001V41.8636C78.4417 48.7354 72.7 54.5191 66.1526 54.5191H46.5038C41.1217 54.5191 36.668 59.193 36.668 64.6621V83.6686C36.668 89.0779 41.3038 92.2596 46.5038 93.8116C52.7308 95.6694 58.7021 96.0052 66.1526 93.8116C71.1051 92.3566 75.9885 89.4286 75.9885 83.6686V76.0613H56.3397V73.5256H75.9885H85.8244C91.5415 73.5256 93.6719 69.4792 95.6602 63.4058C97.714 57.1534 97.6266 51.1406 95.6602 43.1199C94.2473 37.3449 91.5488 33.0001 85.8244 33.0001H78.4417ZM67.3907 81.1328C69.4299 81.1328 71.082 82.8282 71.082 84.9248C71.082 87.0289 69.4299 88.7401 67.3907 88.7401C65.3588 88.7401 63.6994 87.0289 63.6994 84.9248C63.6994 82.8282 65.3587 81.1328 67.3907 81.1328Z" fill="white"/>
</g>
</g>
</g>
<defs>
<filter id="filter0_i_1712_37492" x="14.668" y="12.8334" width="83.5" height="84.5" filterUnits="userSpaceOnUse" color-interpolation-filters="sRGB">
<feFlood flood-opacity="0" result="BackgroundImageFix"/>
<feBlend mode="normal" in="SourceGraphic" in2="BackgroundImageFix" result="shape"/>
<feColorMatrix in="SourceAlpha" type="matrix" values="0 0 0 0 0 0 0 0 0 0 0 0 0 0 0 0 0 0 127 0" result="hardAlpha"/>
<feOffset dx="1" dy="2"/>
<feGaussianBlur stdDeviation="2"/>
<feComposite in2="hardAlpha" operator="arithmetic" k2="-1" k3="1"/>
<feColorMatrix type="matrix" values="0 0 0 0 0 0 0 0 0 0 0 0 0 0 0 0 0 0 0.15 0"/>
<feBlend mode="normal" in2="shape" result="effect1_innerShadow_1712_37492"/>
</filter>
<filter id="filter1_b_1712_37492" x="6.66797" y="4.83344" width="76.5" height="76.5" filterUnits="userSpaceOnUse" color-interpolation-filters="sRGB">
<feFlood flood-opacity="0" result="BackgroundImageFix"/>
<feGaussianBlur in="BackgroundImage" stdDeviation="4"/>
<feComposite in2="SourceAlpha" operator="in" result="effect1_backgroundBlur_1712_37492"/>
<feBlend mode="normal" in="SourceGraphic" in2="effect1_backgroundBlur_1712_37492" result="shape"/>
</filter>
<filter id="filter2_b_1712_37492" x="28.668" y="25.0001" width="76.5" height="78.3333" filterUnits="userSpaceOnUse" color-interpolation-filters="sRGB">
<feFlood flood-opacity="0" result="BackgroundImageFix"/>
<feGaussianBlur in="BackgroundImage" stdDeviation="4"/>
<feComposite in2="SourceAlpha" operator="in" result="effect1_backgroundBlur_1712_37492"/>
<feBlend mode="normal" in="SourceGraphic" in2="effect1_backgroundBlur_1712_37492" result="shape"/>
</filter>
</defs>
</svg>
