<svg width="110" height="110" viewBox="0 0 110 110" fill="none" xmlns="http://www.w3.org/2000/svg">
<g opacity="0.1">
<g filter="url(#filter0_i_1712_37501)">
<path fill-rule="evenodd" clip-rule="evenodd" d="M60.209 12.9769C60.1201 13.0838 60.1684 13.1438 60.481 13.3152C61.1066 13.6582 61.1948 13.7155 61.4092 13.9167C61.5222 14.0229 61.6627 14.1097 61.7216 14.1097C61.7804 14.1097 61.8285 14.1512 61.8285 14.2022C61.8285 14.2529 61.9198 14.3296 62.0314 14.3725C62.1431 14.4153 62.4748 14.6377 62.7689 14.8664C63.0627 15.0953 63.3352 15.2824 63.3742 15.2824C63.4132 15.2824 63.6694 15.4651 63.9436 15.6884C64.2176 15.9116 64.4729 16.097 64.5108 16.1004C64.5487 16.1036 64.7625 16.2461 64.9858 16.4173C65.209 16.5882 65.5708 16.8392 65.7895 16.975C66.0083 17.1107 66.3182 17.3336 66.4781 17.47C66.6379 17.6064 66.7945 17.7181 66.8258 17.7181C66.872 17.7181 67.9126 18.4452 68.2784 18.7329C69.07 19.3556 69.4563 19.4508 69.9473 19.1436C70.2808 18.935 71.2665 18.3967 71.9093 18.0721C72.1201 17.9657 72.2927 17.8457 72.2927 17.8056C72.2927 17.7652 72.414 17.7057 72.5622 17.6732C72.7106 17.6407 72.8576 17.5724 72.889 17.5214C72.9205 17.4707 73.0732 17.3687 73.2284 17.295C73.3835 17.2215 73.7135 17.0444 73.9615 16.9021C74.2096 16.7596 74.5459 16.5819 74.7089 16.5073C74.872 16.4326 75.0677 16.3092 75.1439 16.233C75.2202 16.1568 75.3447 16.0943 75.4209 16.0943C75.4969 16.0943 75.6798 15.9928 75.8273 15.8688C75.9748 15.7448 76.1599 15.6433 76.2391 15.6433C76.3182 15.6433 76.4495 15.5831 76.5307 15.5095C76.7091 15.3481 77.3852 14.9604 77.7278 14.8231C77.8642 14.7683 77.9758 14.6914 77.9758 14.6519C77.9758 14.6126 78.0874 14.5527 78.2239 14.5188C78.3603 14.485 78.5532 14.3837 78.6524 14.2938C78.7516 14.204 78.9343 14.1005 79.0583 14.0639C79.1824 14.0274 79.34 13.9516 79.4086 13.8957C79.5353 13.7926 80.0357 13.5175 80.5693 13.2577C80.9132 13.0904 80.9414 12.9792 80.6595 12.9036C80.1663 12.7715 60.3206 12.8425 60.209 12.9769ZM54.7672 14.427C54.5299 14.4911 54.2372 14.6081 54.1163 14.6873C53.9954 14.7667 53.8123 14.8314 53.7092 14.8314C53.6064 14.8314 53.3714 14.9076 53.1874 15.0008C53.0034 15.0939 52.7106 15.1999 52.537 15.236C52.3633 15.2723 52.0995 15.3745 51.9506 15.4631C51.8018 15.5517 51.5097 15.6521 51.3018 15.6859C51.0939 15.7197 50.8767 15.8043 50.8192 15.8735C50.7617 15.9428 50.5666 16.0267 50.3855 16.06C50.2044 16.0934 49.9148 16.196 49.7419 16.288C49.5689 16.3798 49.3456 16.4554 49.2457 16.4554C49.1458 16.4556 48.9311 16.5368 48.7685 16.6358C48.6061 16.735 48.3826 16.816 48.2717 16.816C48.161 16.816 47.8795 16.9175 47.6465 17.0415C47.4136 17.1655 47.1296 17.2673 47.0158 17.2677C46.9019 17.2679 46.6869 17.3489 46.5381 17.4475C46.3893 17.546 46.1856 17.627 46.0857 17.6272C45.9858 17.6276 45.7625 17.7036 45.5896 17.7963C45.4166 17.8888 45.1331 17.9943 44.9594 18.0307C44.7858 18.067 44.5549 18.1529 44.4464 18.2214C44.3379 18.29 44.0544 18.3899 43.8165 18.4431C43.5784 18.4966 43.3222 18.5954 43.2468 18.6628C43.1717 18.7302 42.9478 18.8139 42.7493 18.8491C42.5509 18.884 42.2667 18.9842 42.1179 19.0712C41.969 19.1583 41.695 19.2568 41.509 19.2897C41.3229 19.3229 41.1707 19.382 41.1707 19.421C41.1707 19.4598 41.0591 19.5493 40.9226 19.6197C40.7862 19.6903 40.5063 19.9101 40.3006 20.1086C38.7188 21.6356 36.944 23.2925 35.2169 24.8543C34.696 25.3251 34.0014 25.9724 33.6734 26.2924C32.9085 27.0391 30.9999 28.8354 30.7065 29.085C30.3858 29.3579 28.8333 30.7972 27.8852 31.7004C27.4425 32.1221 26.8873 32.6499 26.6511 32.8731C25.9707 33.5165 24.3734 34.9885 24.3019 35.0381C24.266 35.063 24.1691 35.2152 24.0865 35.3764C24.0037 35.5377 23.9027 35.6696 23.8619 35.6696C23.8211 35.6696 23.7216 35.8218 23.6409 36.0079C23.5599 36.1939 23.3714 36.5491 23.2219 36.7972C23.0723 37.0453 22.9061 37.3294 22.8527 37.4287C22.7336 37.6497 22.4021 38.2232 21.866 39.1356C21.6428 39.5156 21.3945 39.9462 21.3142 40.0925C21.2339 40.2387 21.122 40.4139 21.0657 40.4818C21.0093 40.5499 20.8153 40.8852 20.6347 41.2271C20.454 41.569 20.2795 41.8692 20.2466 41.894C20.2139 41.9188 20.1336 42.071 20.0684 42.2323C20.0032 42.3935 19.918 42.5255 19.8794 42.5255C19.8406 42.5255 19.7637 42.6547 19.7087 42.8128C19.6537 42.9709 19.5497 43.165 19.478 43.2444C19.406 43.3238 19.2193 43.631 19.0628 43.9269C18.9065 44.2227 18.727 44.5258 18.6641 44.6003C18.6012 44.6747 18.5236 44.8215 18.4915 44.9266C18.4595 45.0317 18.3533 45.1902 18.2554 45.2789C18.1573 45.3675 18.0773 45.5026 18.0773 45.579C18.0773 45.6557 17.985 45.8625 17.872 46.0386C17.5335 46.5677 17.4496 46.7096 17.336 46.9457C17.2762 47.0697 17.1344 47.286 17.0209 47.4263C16.9073 47.5665 16.8143 47.7255 16.8143 47.7799C16.8143 47.8342 16.7593 47.9427 16.6921 48.0212C16.6247 48.0995 16.4276 48.4274 16.2537 48.7499C15.6737 49.8263 15.5972 49.9587 15.4831 50.0836C15.1403 50.4582 14.8879 51.181 15.0408 51.3499C15.1232 51.441 15.1906 51.5725 15.1906 51.6424C15.1906 51.7121 15.2964 51.9931 15.4256 52.2666C15.5546 52.5402 15.7575 52.9712 15.8766 53.2242C15.9955 53.4772 16.0927 53.7666 16.0927 53.8672C16.0927 53.9678 16.1509 54.0986 16.2221 54.1576C16.2934 54.2167 16.3798 54.3942 16.4138 54.5521C16.4481 54.7097 16.5507 54.981 16.6418 55.1547C16.9573 55.7557 17.2654 56.4974 17.2674 56.66C17.2685 56.75 17.3488 56.925 17.4458 57.0491C17.5428 57.1731 17.6231 57.3357 17.6242 57.4106C17.6253 57.4854 17.7227 57.729 17.8407 57.9518C17.9586 58.1746 18.0829 58.4863 18.1172 58.644C18.1512 58.8018 18.2374 58.9793 18.3087 59.0384C18.3799 59.0975 18.4383 59.2323 18.4383 59.3379C18.4386 59.4434 18.5137 59.6525 18.6052 59.8027C18.6965 59.9527 18.824 60.2368 18.8882 60.4341C18.9525 60.6312 19.0601 60.8728 19.1275 60.9707C19.195 61.0685 19.25 61.2356 19.25 61.3419C19.25 61.4481 19.3287 61.6353 19.4248 61.7575C19.5211 61.8797 19.6273 62.0983 19.6611 62.2433C19.6949 62.3881 19.7723 62.5879 19.8334 62.6871C19.8943 62.7863 19.9969 63.0299 20.061 63.2284C20.1252 63.4268 20.2328 63.6693 20.3002 63.7671C20.3677 63.865 20.4227 64.0238 20.4227 64.1201C20.4227 64.2164 20.5185 64.4611 20.6354 64.6638C20.7524 64.8665 20.8749 65.1437 20.9076 65.2795C21.0203 65.7492 21.3313 65.8518 21.9806 65.6333C22.2898 65.5291 22.7862 65.4168 23.0838 65.3837C23.3815 65.3505 23.7282 65.2714 23.8545 65.2078C23.9805 65.1444 24.3937 65.0494 24.7728 64.9967C25.1517 64.9439 25.6169 64.8424 25.8063 64.7711C25.9958 64.6999 26.3539 64.6173 26.602 64.5876C26.8501 64.558 27.3103 64.4534 27.625 64.3548C27.9393 64.2563 28.3302 64.1755 28.4934 64.1755C28.6565 64.1755 28.9359 64.1147 29.1143 64.04C29.2927 63.9656 29.7543 63.8587 30.1402 63.8025C30.5261 63.7462 30.9433 63.6501 31.0673 63.5885C31.1914 63.5272 31.5364 63.4489 31.8341 63.4151C32.1318 63.381 32.609 63.2744 32.8945 63.1781C33.1798 63.0818 33.5363 63.0028 33.6865 63.0028C33.8367 63.0028 34.1969 62.923 34.4867 62.8253C34.7767 62.7277 35.2929 62.6097 35.6341 62.5633C35.9751 62.5168 36.437 62.416 36.6603 62.3391C36.8835 62.2624 37.3098 62.1603 37.6074 62.1122C38.4247 61.9799 39.2141 61.7386 39.3735 61.5726C39.4518 61.4909 39.832 61.14 40.2185 60.7927C41.0092 60.0823 40.9885 60.101 42.2047 58.9885C42.693 58.542 43.284 57.994 43.5181 57.7707C44.6645 56.6778 46.4005 55.0521 46.756 54.7388C46.9749 54.5458 47.304 54.2458 47.4873 54.0722C47.6707 53.8985 48.213 53.3949 48.6927 52.9531C49.1722 52.5116 49.858 51.8675 50.2164 51.5222C50.5749 51.1769 51.2513 50.5437 51.7197 50.1152C52.1881 49.6867 52.8376 49.089 53.163 48.7868C53.4885 48.4846 53.9745 48.0381 54.243 47.7946C54.5114 47.551 55.1609 46.9419 55.6864 46.441C56.7865 45.3921 57.2488 44.9645 59.0412 43.3373C60.7446 41.7909 61.3774 41.1462 61.3783 40.9552C61.3788 40.8514 61.4803 40.5492 61.6038 40.2838C61.7274 40.0183 61.8285 39.7037 61.8285 39.5844C61.8285 39.4651 61.9097 39.2159 62.0089 39.0308C62.1081 38.8459 62.1902 38.5921 62.1913 38.4674C62.1925 38.3427 62.2736 38.0635 62.3717 37.8472C62.4699 37.631 62.5501 37.3761 62.5501 37.2807C62.5501 37.1856 62.6516 36.8664 62.7757 36.5717C62.8997 36.2769 63.0012 35.9312 63.0012 35.8031C63.0012 35.6752 63.0691 35.4405 63.1523 35.2817C63.2353 35.1229 63.3546 34.7901 63.4173 34.542C63.5391 34.0619 63.7307 33.4726 64.0052 32.736C64.0979 32.487 64.1739 32.2013 64.1739 32.1012C64.1739 32.001 64.2533 31.7631 64.3505 31.5725C64.4477 31.382 64.5539 31.0385 64.5866 30.8092C64.6195 30.58 64.7226 30.2659 64.816 30.1112C64.9093 29.9565 64.9858 29.7208 64.9858 29.5875C64.9858 29.4542 65.0683 29.1638 65.1693 28.9423C65.2702 28.7208 65.3888 28.3679 65.433 28.1579C65.511 27.7878 65.6468 27.3591 65.983 26.4232C66.0721 26.1751 66.1734 25.8301 66.2079 25.6564C66.2424 25.4828 66.347 25.1901 66.4402 25.006C66.5333 24.822 66.6095 24.5426 66.6095 24.3852C66.6095 24.2278 66.6864 23.9725 66.7805 23.8178C67.2383 23.0647 67.1307 22.3622 66.4952 21.9525C66.2356 21.7851 65.7936 21.4741 65.513 21.2617C65.2323 21.0493 64.9743 20.8754 64.9395 20.8754C64.9048 20.8754 64.749 20.7721 64.5929 20.646C64.1504 20.2883 63.9818 20.1666 63.4978 19.8562C63.2499 19.6975 62.9861 19.5137 62.9114 19.4478C62.8368 19.3822 62.5727 19.2007 62.3246 19.0446C62.0765 18.8888 61.8206 18.6887 61.7556 18.6003C61.6909 18.5119 61.5854 18.4397 61.5215 18.4397C61.4575 18.4397 61.3113 18.3586 61.197 18.2593C61.0827 18.1601 60.9622 18.0789 60.9295 18.0789C60.8968 18.0789 60.7915 18.0072 60.6952 17.9195C60.5992 17.8317 60.2823 17.5983 59.9911 17.4008C59.7002 17.2032 59.3498 16.9603 59.2124 16.8611C59.0751 16.7619 58.7246 16.5206 58.4337 16.325C58.1425 16.1295 57.8435 15.9148 57.7691 15.8481C57.6947 15.7813 57.4308 15.5984 57.1827 15.4417C56.7935 15.1958 56.4947 14.9816 56.0946 14.6618C55.7157 14.3592 55.2949 14.2847 54.7672 14.427ZM85.3278 14.7949C85.0301 14.9667 84.6648 15.1701 84.5159 15.247C84.3671 15.3239 84.0424 15.5035 83.7943 15.6462C83.5462 15.789 83.2012 15.9732 83.0275 16.0553C82.8539 16.1376 82.6915 16.2362 82.6667 16.2747C82.6419 16.3133 82.4795 16.4098 82.3058 16.4892C82.1322 16.5688 81.7871 16.756 81.5391 16.9051C81.291 17.0541 81.0271 17.1994 80.9527 17.228C80.8783 17.2567 80.7565 17.3187 80.6821 17.366C80.6077 17.4132 80.3844 17.5343 80.1859 17.6349C79.9875 17.7354 79.6424 17.9368 79.4192 18.0823C79.1959 18.2275 78.9523 18.3705 78.8779 18.3998C78.8035 18.4291 78.6411 18.5133 78.5171 18.5866C78.393 18.6601 78.1698 18.7821 78.0209 18.8576C77.8721 18.9332 77.5473 19.1118 77.2993 19.2546C77.0512 19.3973 76.7061 19.5816 76.5325 19.6637C76.3588 19.746 76.1965 19.8445 76.1716 19.8831C76.1468 19.9216 75.9845 20.0184 75.8108 20.0985C75.6372 20.1785 75.3124 20.3504 75.0891 20.4803C74.6672 20.7261 73.4559 21.3916 72.9467 21.6577C72.5849 21.8467 72.582 21.9053 72.9241 22.1076C73.073 22.1956 73.1948 22.2966 73.1948 22.332C73.1948 22.3677 73.2773 22.4229 73.3781 22.4549C73.4789 22.487 73.6564 22.6013 73.7725 22.7091C73.8887 22.8169 74.1208 22.9984 74.2883 23.1126C74.7109 23.4005 76.2143 24.4957 76.7537 24.9086C76.9993 25.0967 77.3868 25.3723 77.6148 25.5211C77.8425 25.67 78.0881 25.8418 78.1603 25.9032C78.4341 26.1354 78.847 26.4374 79.2387 26.6916C79.462 26.8366 79.6853 27.001 79.7349 27.0574C79.8449 27.1819 80.8963 27.9223 81.1388 28.0458C81.2348 28.0948 81.3135 28.1645 81.3135 28.2006C81.3135 28.2366 81.6024 28.4604 81.9554 28.6978C82.3085 28.9353 82.6874 29.1904 82.7975 29.2648C82.9075 29.3392 83.0681 29.4711 83.1542 29.558C83.2404 29.6448 83.3471 29.7158 83.3913 29.7158C83.4355 29.7158 83.6863 29.8884 83.9485 30.0992C84.211 30.3101 84.6084 30.603 84.8317 30.7503C85.0549 30.8976 85.2985 31.0699 85.3729 31.1332C85.6309 31.3529 86.0515 31.6616 86.4554 31.9282C86.6787 32.0755 86.886 32.2297 86.9162 32.271C86.9462 32.312 87.074 32.4137 87.2001 32.4967C87.9515 32.9911 88.489 33.3747 88.5154 33.4354C88.5318 33.4737 88.7754 33.655 89.0566 33.8384C89.5327 34.1491 89.9249 34.4346 90.241 34.7012C90.3137 34.7626 90.5448 34.9218 90.7546 35.0553C90.9643 35.1888 91.3585 35.4795 91.6307 35.7012C91.9029 35.9229 92.206 36.1299 92.3041 36.161C92.4024 36.1921 92.5055 36.2772 92.5332 36.3496C92.5612 36.4222 92.6438 36.4815 92.717 36.4815C92.7901 36.4815 92.9031 36.5536 92.9678 36.6418C93.0328 36.73 93.309 36.9415 93.5819 37.1123C93.8548 37.283 94.1511 37.5035 94.2407 37.6026C94.5762 37.9744 94.8554 37.4257 95.0313 36.0485C95.0776 35.6863 95.1967 35.0799 95.2959 34.7008C95.3951 34.3219 95.4763 33.8007 95.4763 33.5427C95.4763 33.2847 95.546 32.734 95.6312 32.3193C95.8439 31.2848 95.8419 28.5424 95.6274 27.4732C95.5444 27.0585 95.4763 26.5247 95.4763 26.2874C95.4763 26.05 95.3944 25.591 95.2945 25.2674C95.1946 24.9438 95.0746 24.5031 95.028 24.2882C94.9224 23.8015 94.5097 22.5948 94.4035 22.4624C94.36 22.4083 94.2971 22.2353 94.2634 22.0781C94.2298 21.9209 94.1236 21.7015 94.0273 21.5907C93.9313 21.4798 93.8525 21.3219 93.8525 21.24C93.8525 21.158 93.7511 20.9532 93.627 20.7852C93.503 20.6172 93.4015 20.4426 93.4015 20.3973C93.4015 20.3522 93.2982 20.1875 93.1721 20.0315C93.0461 19.8754 92.8835 19.6666 92.8109 19.5674C92.5635 19.2291 91.8235 18.2907 91.5957 18.0266C91.1368 17.4941 90.1867 16.738 88.9813 15.9453C88.7084 15.7657 88.383 15.549 88.2578 15.4633C88.1329 15.3778 87.9331 15.2768 87.8138 15.2389C87.6945 15.201 87.5152 15.0939 87.415 15.0008C87.3151 14.9076 87.1496 14.8312 87.0474 14.8307C86.945 14.8305 86.7396 14.7495 86.5907 14.651C86.2159 14.4027 85.9555 14.4325 85.3278 14.7949ZM70.2776 24.9161C70.2578 24.9512 70.2131 25.1375 70.1782 25.3303C70.1435 25.5232 70.0366 25.8269 69.9409 26.0055C69.8451 26.1842 69.7668 26.4442 69.7668 26.5833C69.7668 26.7225 69.6906 26.987 69.5972 27.171C69.5039 27.3551 69.3992 27.6758 69.3647 27.8839C69.33 28.0919 69.2238 28.415 69.1284 28.602C69.033 28.7892 68.9547 29.0451 68.9545 29.1712C68.9541 29.297 68.8907 29.521 68.8138 29.6689C68.7367 29.8166 68.6313 30.1414 68.5797 30.3906C68.5283 30.6396 68.4324 30.9282 68.367 31.032C68.3016 31.1357 68.199 31.4699 68.139 31.7746C68.079 32.0793 67.9742 32.375 67.906 32.4316C67.8379 32.4882 67.7822 32.6823 67.7822 32.863C67.7822 33.0436 67.7017 33.3418 67.6034 33.5251C67.5051 33.7087 67.3989 34.0328 67.3673 34.2454C67.3357 34.4581 67.2584 34.715 67.1957 34.8162C67.1327 34.9175 67.0333 35.2314 66.9747 35.5138C66.916 35.7961 66.8328 36.0489 66.7899 36.0755C66.7471 36.1022 66.665 36.35 66.6075 36.6267C66.55 36.9032 66.4264 37.2983 66.3328 37.5047C66.239 37.7108 66.1614 37.9812 66.1598 38.1052C66.1585 38.2293 66.0915 38.4525 66.011 38.6014C65.9305 38.7502 65.8067 39.1156 65.7359 39.4133C65.6648 39.711 65.583 40.0517 65.5539 40.1706L65.5011 40.3866L66.168 40.3347C66.5349 40.3063 69.5751 40.2389 72.9241 40.1852C76.2731 40.1316 80.3934 40.0427 82.0803 39.9877C83.7672 39.9326 86.3246 39.8679 87.7635 39.8438C91.0029 39.7894 91.1014 39.7574 90.0967 39.0896C89.7677 38.8707 89.3965 38.6237 89.272 38.5407C89.1475 38.4577 89.021 38.3522 88.991 38.3062C88.9608 38.2602 88.8372 38.1702 88.7163 38.1066C88.5954 38.0428 88.4533 37.9557 88.4006 37.9133C88.3478 37.8707 88.122 37.6932 87.8988 37.5189C87.6755 37.3446 87.4491 37.1666 87.3959 37.1233C87.3424 37.0802 87.1967 36.9891 87.0722 36.921C86.9475 36.8529 86.6462 36.6427 86.4024 36.4537C85.8896 36.0564 84.6294 35.1403 83.9747 34.689C83.7266 34.5181 83.4912 34.3237 83.4515 34.2572C83.4118 34.1906 83.3365 34.1361 83.2841 34.1361C83.2318 34.1361 83.0742 34.0447 82.9339 33.9331C82.7939 33.8215 82.5302 33.6286 82.3485 33.5046C82.1667 33.3806 81.9333 33.1877 81.8298 33.0761C81.7265 32.9645 81.6056 32.8731 81.5614 32.8731C81.5172 32.8731 81.1343 32.6194 80.7107 32.3093C80.2872 31.9992 79.6508 31.5347 79.2965 31.2771C78.9422 31.0193 78.6093 30.771 78.5565 30.7255C78.5038 30.6797 78.3617 30.5906 78.2408 30.5277C78.1199 30.4646 77.9528 30.3475 77.8696 30.2675C77.7866 30.1874 77.5706 30.0203 77.3899 29.8962C77.209 29.7722 76.9465 29.5794 76.8065 29.4678C76.6662 29.3561 76.5086 29.2648 76.4563 29.2648C76.4039 29.2648 76.3286 29.2118 76.2889 29.1473C76.2492 29.0826 76.0138 28.8902 75.7657 28.7197C75.5176 28.5492 75.132 28.266 74.9087 28.0903C74.6855 27.9146 74.3201 27.651 74.0968 27.5044C73.8736 27.358 73.4803 27.075 73.223 26.8758C72.9656 26.6765 72.6206 26.4194 72.4562 26.3041C72.2918 26.1891 71.8123 25.8409 71.3906 25.5301C70.6026 24.9497 70.3408 24.8051 70.2776 24.9161ZM92.1837 43.403C91.8364 43.4142 90.6795 43.4677 89.6127 43.5218C88.546 43.5762 84.6896 43.6598 81.0429 43.7081C77.3962 43.7561 73.6819 43.8321 72.7888 43.877C71.8958 43.9219 69.9768 43.9875 68.5244 44.0229C66.8303 44.0642 65.8344 44.1233 65.7467 44.1876C65.583 44.3073 65.7591 45.2428 66.0137 45.6065C66.0933 45.7202 66.1585 45.9275 66.1585 46.0673C66.1585 46.2071 66.2363 46.4739 66.3315 46.6604C66.4264 46.8467 66.5324 47.1597 66.5671 47.3559C66.6016 47.5519 66.6815 47.7952 66.7446 47.8965C66.8078 47.9977 66.9065 48.3069 66.964 48.5837C67.0213 48.8606 67.1262 49.1632 67.197 49.2566C67.2676 49.35 67.3267 49.5189 67.3283 49.6321C67.3298 49.7453 67.4327 50.0789 67.5567 50.3736C67.6808 50.6684 67.7822 50.9934 67.7822 51.0962C67.7822 51.1988 67.858 51.4336 67.9505 51.6176C68.0429 51.8016 68.1474 52.1146 68.1828 52.3131C68.2179 52.5116 68.3016 52.7594 68.3686 52.8638C68.4358 52.968 68.5195 53.2116 68.5546 53.4051C68.5898 53.5984 68.6942 53.9071 68.7867 54.0911C68.8792 54.2751 68.955 54.5203 68.955 54.6357C68.955 54.7514 69.033 54.9988 69.1284 55.186C69.2238 55.373 69.3291 55.6962 69.3625 55.9041C69.3958 56.1122 69.4939 56.4054 69.5803 56.5558C69.6667 56.706 69.7653 57.0033 69.7993 57.2162C69.8334 57.4288 69.9182 57.6916 69.9878 57.7996C70.0573 57.9078 70.1439 58.1582 70.1802 58.3562C70.2165 58.5542 70.32 58.8789 70.4105 59.0779C70.5009 59.2768 70.5756 59.5224 70.5767 59.6234C70.5778 59.7246 70.6543 59.9558 70.7467 60.1371C70.8392 60.3182 70.9427 60.6416 70.9768 60.8552C71.011 61.069 71.099 61.3358 71.1725 61.4481C71.2463 61.5604 71.3437 61.8243 71.3892 62.0344C71.4914 62.5044 71.8121 63.4949 71.9801 63.8598C72.0487 64.0087 72.1317 64.2928 72.1646 64.4913C72.1975 64.6897 72.3006 64.9786 72.3939 65.1333C72.4871 65.288 72.5633 65.5566 72.5633 65.7301C72.5633 65.9039 72.6407 66.1439 72.7354 66.2643C72.8299 66.3845 72.9363 66.6845 72.9719 66.9305C73.0074 67.1766 73.0958 67.4458 73.1684 67.5288C73.241 67.6118 73.3222 67.8554 73.349 68.0701C73.3759 68.2848 73.4697 68.5822 73.5572 68.7311C73.6449 68.8799 73.7444 69.1438 73.7782 69.3174C73.812 69.4911 73.9146 69.8361 74.006 70.0842C74.0975 70.3323 74.2184 70.71 74.275 70.9234C74.4809 71.7019 74.8889 71.5154 76.0541 70.1095C76.4089 69.6814 77.2611 68.6959 78.7631 66.9765C78.8736 66.85 79.2796 66.359 79.6652 65.8857C80.0508 65.4123 80.4182 64.9658 80.4816 64.8934C80.545 64.821 80.7806 64.5183 81.005 64.2206C81.2294 63.923 81.5819 63.4823 81.7883 63.2414C81.9946 63.0006 82.2055 62.7324 82.2571 62.6454C82.5478 62.1558 82.8606 61.7399 82.9384 61.7399C82.9874 61.7399 83.0275 61.6955 83.0275 61.6414C83.0275 61.5872 83.11 61.435 83.2111 61.3031C83.3121 61.1711 83.5674 60.8401 83.7783 60.5672C83.9894 60.2943 84.3012 59.8478 84.4713 59.5749C84.6416 59.302 84.8042 59.0585 84.833 59.0336C84.9181 58.9606 85.319 58.3765 85.4329 58.1598C85.4909 58.0497 85.5829 57.9072 85.6377 57.8427C85.851 57.5914 86.2719 56.9083 86.2734 56.8107C86.2743 56.7538 86.3346 56.6846 86.4074 56.6567C86.4802 56.6287 86.6013 56.4722 86.6764 56.3087C86.8751 55.8763 87.1582 55.4028 87.254 55.3423C87.2998 55.3134 87.4024 55.1479 87.482 54.9743C87.5618 54.8006 87.729 54.4962 87.8537 54.2977C87.9782 54.0992 88.1606 53.7873 88.2589 53.6047C88.357 53.422 88.4754 53.249 88.5221 53.2204C88.5686 53.1915 88.6324 53.0501 88.6642 52.906C88.6958 52.7619 88.7763 52.623 88.843 52.5973C88.9098 52.5718 88.9908 52.4306 89.023 52.2836C89.0553 52.1363 89.1606 51.9446 89.2571 51.8573C89.3534 51.7703 89.4323 51.6293 89.4323 51.5445C89.4323 51.4597 89.5079 51.2935 89.6003 51.1751C89.6928 51.0567 89.7995 50.8585 89.8376 50.7345C89.8759 50.6104 89.9828 50.4011 90.0755 50.2694C90.1684 50.1377 90.2442 49.9932 90.2442 49.9483C90.2442 49.9034 90.4472 49.4657 90.6952 48.9754C90.9433 48.4851 91.1463 48.0359 91.1463 47.977C91.1463 47.9181 91.2072 47.8194 91.2816 47.7576C91.356 47.6958 91.4169 47.579 91.4169 47.4978C91.4169 47.4166 91.5184 47.1595 91.6424 46.9265C91.7665 46.6936 91.8682 46.4502 91.8684 46.3859C91.8686 46.3217 91.9701 46.0693 92.0939 45.8253C92.2177 45.5813 92.319 45.3122 92.319 45.2274C92.319 45.1426 92.3767 45.0256 92.4473 44.967C92.5179 44.9083 92.602 44.7042 92.6343 44.5132C92.6665 44.3222 92.7495 44.091 92.8188 43.9997C93.1733 43.532 93.0073 43.3761 92.1837 43.403ZM61.2861 46.2481C60.9629 46.5573 60.2767 47.196 59.7611 47.6674C58.5478 48.7767 57.7711 49.5033 56.9383 50.3091C56.5682 50.667 55.9489 51.2441 55.5621 51.5914C55.1754 51.9387 54.7471 52.3244 54.6106 52.4484C53.2379 53.6944 52.6822 54.2095 52.1288 54.7487C51.3011 55.5552 50.5702 56.2421 49.8307 56.9081C49.2671 57.4158 47.8132 58.745 47.3083 59.2141C47.1747 59.3381 46.4508 60.0235 45.6996 60.7372C44.9482 61.451 44.2509 62.0926 44.1498 62.1634C43.5544 62.5804 43.6715 62.8885 44.4859 63.0495C44.6471 63.0813 44.779 63.1431 44.779 63.1869C44.779 63.2306 44.9516 63.3093 45.1624 63.3616C45.3733 63.414 45.6676 63.5139 45.8164 63.5838C45.9653 63.6537 46.2494 63.7597 46.4479 63.8192C46.6464 63.879 46.8696 63.9784 46.944 64.0407C47.0185 64.1027 47.2011 64.174 47.35 64.1988C47.6141 64.2428 48.2363 64.4789 48.9837 64.8187C49.1875 64.9116 49.4115 64.9874 49.4812 64.9874C49.5508 64.9874 49.7594 65.0686 49.9444 65.1678C50.1295 65.2671 50.3321 65.3487 50.3943 65.3492C50.4563 65.3496 50.7103 65.4497 50.9583 65.5718C51.2064 65.6938 51.4953 65.795 51.6002 65.7964C51.705 65.7979 51.8877 65.8746 52.0061 65.9666C52.1245 66.0587 52.3764 66.1626 52.5661 66.1976C52.7557 66.2323 53.0399 66.3396 53.1975 66.4357C53.3552 66.5318 53.5606 66.6107 53.654 66.611C53.7474 66.611 53.9503 66.6881 54.105 66.7819C54.2597 66.8757 54.5283 66.9819 54.702 67.0178C54.8756 67.0537 55.0626 67.1191 55.1176 67.1633C55.1726 67.2072 55.4365 67.3198 55.704 67.4131C56.7107 67.7645 56.8332 67.8116 57.282 68.0207C57.535 68.1386 57.8268 68.2349 57.9306 68.2349C58.0343 68.2349 58.1441 68.2751 58.1743 68.324C58.2046 68.373 58.4441 68.4753 58.7068 68.5518C58.9693 68.628 59.2616 68.7491 59.3563 68.8208C59.4508 68.8923 59.6134 68.9521 59.7176 68.9537C59.822 68.9552 60.098 69.0581 60.3315 69.1821C60.5646 69.3062 60.84 69.4076 60.9431 69.4076C61.0461 69.4076 61.2572 69.4846 61.4119 69.5784C61.5666 69.6722 61.8352 69.7791 62.0089 69.8156C62.1825 69.8522 62.4214 69.9581 62.5398 70.0508C62.6582 70.1435 62.8562 70.2195 62.9802 70.2195C63.104 70.2195 63.332 70.2964 63.4867 70.3902C63.6414 70.4841 63.91 70.5901 64.0837 70.6257C64.2573 70.6615 64.4603 70.7425 64.5347 70.8059C64.6091 70.8693 64.8121 70.9498 64.9858 70.9849C65.1594 71.0201 65.4357 71.1261 65.5999 71.2206C65.7638 71.3149 65.9668 71.3936 66.0509 71.3952C66.1348 71.3965 66.4066 71.4978 66.6546 71.6198C66.9027 71.7418 67.192 71.8419 67.2976 71.8424C67.4031 71.8428 67.5391 71.903 67.5998 71.9761C67.6605 72.0494 67.8582 72.1353 68.0393 72.1676C68.2204 72.1998 68.4904 72.2975 68.6392 72.3845C68.7881 72.4716 69.058 72.5692 69.2391 72.6015C69.4202 72.6337 69.6157 72.7172 69.6737 72.7871C69.7319 72.857 69.9085 72.9395 70.0663 72.9707C70.224 73.0018 70.4687 73.0717 70.6096 73.1263C71.0279 73.2878 71.1461 72.703 70.8056 72.157C70.7429 72.0566 70.6619 71.7928 70.6256 71.5706C70.5893 71.3485 70.4878 71.0449 70.4001 70.8961C70.3124 70.7472 70.2186 70.4498 70.1917 70.2351C70.1649 70.0204 70.0823 69.7768 70.0079 69.6938C69.9337 69.6108 69.8433 69.3413 69.8067 69.0951C69.7704 68.8486 69.6653 68.5238 69.5736 68.3734C69.4818 68.2228 69.4062 67.9778 69.4058 67.829C69.4053 67.6801 69.325 67.4373 69.2274 67.2891C69.1297 67.1412 69.0226 66.8367 68.9895 66.6125C68.9563 66.3886 68.8539 66.0638 68.7617 65.8909C68.6694 65.7179 68.5939 65.4743 68.5934 65.3496C68.5932 65.2249 68.5123 65.001 68.4137 64.8521C68.3151 64.7033 68.2337 64.4597 68.2331 64.3109C68.2324 64.162 68.1318 63.8373 68.0098 63.5892C67.8878 63.3411 67.7865 63.0452 67.7852 62.9316C67.7836 62.8179 67.701 62.5658 67.6018 62.3714C67.5026 62.177 67.4214 61.9323 67.4214 61.8279C67.4214 61.7234 67.3422 61.4479 67.2453 61.2153C67.1485 60.9828 67.0261 60.6236 66.9733 60.4168C66.9205 60.2102 66.8172 59.926 66.7439 59.7853C66.6706 59.6448 66.6104 59.4369 66.61 59.3232C66.6098 59.2096 66.5317 58.9642 66.4366 58.7777C66.3416 58.5914 66.2338 58.2788 66.197 58.0831C66.1603 57.8876 66.0563 57.5646 65.9659 57.3657C65.8755 57.1668 65.8006 56.9228 65.799 56.8235C65.7976 56.7243 65.7343 56.5238 65.6583 56.3781C65.5825 56.2324 65.4799 55.933 65.4305 55.7128C65.3811 55.4925 65.2609 55.1371 65.1633 54.9226C65.0656 54.7084 64.9858 54.4481 64.9858 54.3442C64.9858 54.2402 64.91 54.0045 64.8175 53.8205C64.7251 53.6365 64.6202 53.3252 64.5846 53.1293C64.5489 52.9331 64.4418 52.62 64.3469 52.4338C64.2517 52.2473 64.1739 52.0098 64.1739 51.9058C64.1739 51.8018 64.0963 51.5466 64.0016 51.3384C63.9069 51.1302 63.8009 50.7976 63.7659 50.5991C63.7312 50.4007 63.6493 50.1528 63.5839 50.0484C63.5188 49.9442 63.4367 49.7007 63.4015 49.5072C63.3663 49.3139 63.2619 49.0052 63.1694 48.8211C63.077 48.6371 63.0012 48.3832 63.0012 48.2569C63.0012 48.1308 62.92 47.8762 62.821 47.6913C62.7218 47.5063 62.6171 47.212 62.5882 47.0375C62.5201 46.6252 62.0871 45.6823 61.9669 45.6843C61.9155 45.6852 61.6093 45.939 61.2861 46.2481ZM93.9073 50.6066C93.8771 50.6851 93.8525 50.8215 93.8525 50.9101C93.8525 50.9985 93.7738 51.1711 93.6778 51.2933C93.5815 51.4155 93.4764 51.621 93.4441 51.7498C93.4117 51.8787 93.3077 52.0542 93.213 52.1401C93.1182 52.2258 93.0407 52.385 93.0407 52.4937C93.0407 52.6024 92.9566 52.7885 92.8537 52.9069C92.7509 53.0255 92.6444 53.2348 92.6169 53.3719C92.5894 53.509 92.5301 53.6211 92.485 53.6211C92.4397 53.6211 92.3235 53.7937 92.2268 54.0045C92.1298 54.2154 92.0121 54.4488 91.9647 54.5232C91.9173 54.5976 91.6499 55.0645 91.37 55.5606C90.633 56.8675 90.2198 57.5484 90.0482 57.7387C89.9652 57.8307 89.8694 58.0188 89.8349 58.1566C89.8006 58.2942 89.696 58.448 89.6024 58.498C89.5088 58.5481 89.4323 58.6401 89.4323 58.7028C89.4323 58.7653 89.3708 58.8959 89.2957 58.9928C89.2206 59.0896 88.9387 59.514 88.6694 59.9357C88.4001 60.3575 88.0413 60.8852 87.8724 61.1084C87.7032 61.3317 87.5122 61.6159 87.448 61.7399C87.3837 61.8639 87.1848 62.1483 87.0062 62.3718C86.8273 62.5953 86.6404 62.8432 86.5907 62.923C86.3839 63.255 86.1399 63.5989 86.0089 63.7432C85.932 63.828 85.7574 64.0513 85.6212 64.2394C85.4848 64.4275 85.1154 64.9098 84.8003 65.3113C84.4851 65.7127 84.0599 66.2675 83.8558 66.544C83.6515 66.8205 83.3917 67.1479 83.2785 67.2717C83.1653 67.3955 82.9817 67.6123 82.8708 67.7532C82.1965 68.6088 81.2326 69.764 80.9897 70.0075C80.8336 70.1638 80.4101 70.651 80.0484 71.09C79.6866 71.5291 79.3057 71.977 79.202 72.0853C79.0982 72.1935 78.6682 72.6583 78.2464 73.1184C77.8247 73.5784 77.2266 74.2205 76.9174 74.5453C76.3002 75.1934 76.2003 75.5154 76.542 75.7547C76.7323 75.8882 77.5399 76.6038 78.3818 77.3855C78.9438 77.9071 79.0103 77.9651 80.0055 78.8036C80.452 79.1797 81.0889 79.7465 81.4209 80.0631C81.7529 80.3795 82.2159 80.801 82.4495 80.9995C82.6834 81.1979 82.965 81.4415 83.0753 81.5407C83.1858 81.6399 83.5133 81.9241 83.8031 82.1722C84.4059 82.6882 85.1312 83.3377 85.4683 83.6633C85.7193 83.9055 86.068 84.2134 87.0441 85.0543C87.7871 85.6944 88.2305 86.0956 88.7438 86.5922C88.9488 86.7904 89.3602 87.1512 89.6578 87.3941C89.9555 87.637 90.4366 88.0777 90.7266 88.3736C91.3889 89.0488 91.3687 89.0826 91.4934 87.0885C91.5507 86.1707 91.658 84.9732 91.732 84.4274C91.8059 83.8816 91.8677 82.948 91.8691 82.3526C91.8707 81.7572 91.9304 80.8439 92.0019 80.3229C92.0736 79.8019 92.1753 78.5435 92.2279 77.5264C92.2807 76.5093 92.3824 75.2306 92.4541 74.6849C92.5258 74.1391 92.6284 72.7792 92.6819 71.6629C92.7353 70.5465 92.8194 69.4798 92.8688 69.2924C92.9182 69.105 92.9967 68.0699 93.0431 66.9921C93.0896 65.9143 93.1701 64.7281 93.2224 64.356C93.383 63.2101 93.4836 61.9181 93.4879 60.9499C93.4899 60.4409 93.5695 59.4464 93.6645 58.7398C93.7596 58.0332 93.8602 56.7649 93.8884 55.9215C93.9166 55.078 93.9976 53.9617 94.0686 53.4407C94.2801 51.8878 94.3372 50.7482 94.2109 50.5962C94.0693 50.4255 93.9757 50.4286 93.9073 50.6066ZM12.902 56.2597C12.7737 56.7383 12.8404 76.0423 12.971 76.2209C13.0905 76.3842 13.1045 76.3772 13.2473 76.0802C13.5727 75.4034 13.7833 75.0428 13.8911 74.9776C13.9532 74.9399 14.0298 74.7906 14.0616 74.6454C14.0937 74.5004 14.1803 74.3312 14.2544 74.2697C14.3284 74.2083 14.4491 74.0329 14.5224 73.8802C14.5957 73.7273 14.7549 73.44 14.8762 73.2415C14.9975 73.0431 15.1462 72.7792 15.2061 72.6552C15.2664 72.5311 15.3706 72.3633 15.4378 72.2826C15.505 72.2016 15.6326 71.9987 15.7215 71.8316C16.2293 70.8767 16.5827 70.2588 16.6457 70.2164C16.6849 70.1898 16.7789 70.0202 16.8545 69.8391C16.9303 69.6582 17.0338 69.4843 17.085 69.4528C17.1362 69.4212 17.2374 69.2662 17.31 69.1084C17.4483 68.808 17.5516 68.6301 17.8337 68.2049C18.018 67.9278 17.8867 67.3667 17.4372 66.5088C17.3427 66.3284 17.2654 66.1114 17.2654 66.0269C17.2654 65.9421 17.1842 65.7698 17.085 65.6435C16.9857 65.5174 16.9041 65.3485 16.9037 65.2684C16.9032 65.1884 16.8031 64.9198 16.6811 64.6717C16.5591 64.4236 16.4578 64.155 16.4564 64.075C16.4549 63.9949 16.3723 63.826 16.2731 63.6999C16.1739 63.5736 16.0927 63.4081 16.0927 63.3316C16.0927 63.2552 15.9912 63.0019 15.8672 62.7687C15.7431 62.5353 15.6416 62.2906 15.6416 62.2248C15.6416 62.1589 15.5607 61.9722 15.4614 61.8098C15.3624 61.6472 15.2812 61.4285 15.281 61.3236C15.281 61.2187 15.1996 61.0295 15.1004 60.9035C15.0012 60.7772 14.92 60.6155 14.92 60.5437C14.92 60.4723 14.8185 60.2228 14.6944 59.9894C14.5704 59.7562 14.4687 59.4964 14.4682 59.4123C14.468 59.328 14.3871 59.1374 14.2885 58.9885C14.1899 58.8397 14.109 58.6611 14.1088 58.5916C14.1081 58.4705 13.8266 57.8258 13.4667 57.1215C13.3729 56.9379 13.2962 56.7018 13.2962 56.5967C13.2962 56.1542 12.9985 55.8996 12.902 56.2597ZM37.308 65.9423C37.1929 66.023 36.8003 66.1261 36.4354 66.1714C36.0707 66.2165 35.6339 66.3115 35.4645 66.3823C35.2954 66.4529 34.937 66.5361 34.6682 66.567C34.3994 66.5979 34.0171 66.68 33.8187 66.7492C33.6202 66.8184 33.189 66.9172 32.8607 66.9684C32.5323 67.0198 32.0907 67.1229 31.8796 67.1973C31.6686 67.272 31.3485 67.3331 31.1688 67.3335C30.9888 67.3337 30.5437 67.4352 30.1792 67.559C29.8148 67.6826 29.377 67.7839 29.2065 67.7839C29.036 67.7839 28.7584 67.8416 28.5895 67.9122C28.4208 67.9826 27.9729 68.0874 27.5943 68.1447C27.2156 68.202 26.7765 68.3024 26.6187 68.3673C26.4606 68.4323 26.1081 68.5132 25.8352 68.5471C25.5623 68.5809 25.1054 68.6869 24.8199 68.7827C24.5346 68.8783 24.1424 68.9566 23.9485 68.9566C23.006 68.9566 22.3216 69.4712 22.6716 69.9164C22.7744 70.0468 22.8586 70.2599 22.8588 70.3896C22.8592 70.5192 22.9249 70.7472 23.0047 70.8961C23.0847 71.0449 23.205 71.3494 23.2717 71.5727C23.5205 72.4021 23.8594 73.3315 23.9438 73.4158C23.9918 73.4639 24.0315 73.6066 24.0319 73.7332C24.0324 73.8597 24.1325 74.1662 24.2545 74.4142C24.3765 74.6623 24.478 74.9668 24.4798 75.0908C24.4816 75.2148 24.5639 75.4381 24.6625 75.5869C24.7611 75.7358 24.842 75.9593 24.8422 76.0838C24.8427 76.2083 24.9444 76.5008 25.0684 76.7337C25.1925 76.9667 25.294 77.272 25.294 77.4121C25.294 77.5521 25.3594 77.7601 25.4392 77.8742C25.5193 77.9883 25.639 78.2713 25.7053 78.5032C25.7716 78.735 25.952 79.2697 26.1061 79.6914C26.2603 80.1132 26.4225 80.58 26.4667 80.7288C26.6194 81.2428 26.9529 82.1733 27.1155 82.5389C27.2053 82.7407 27.2788 82.9843 27.279 83.0801C27.2795 83.1762 27.3455 83.3765 27.426 83.5253C27.5066 83.6741 27.6078 83.9754 27.6511 84.1951C27.6946 84.4145 27.7943 84.6651 27.8728 84.7517C27.9513 84.8385 28.0381 85.0852 28.0658 85.2999C28.0936 85.5146 28.186 85.7918 28.2713 85.9158C28.3565 86.0399 28.4551 86.299 28.4903 86.4918C28.5255 86.6846 28.6326 86.9884 28.7282 87.167C28.8241 87.3456 28.9023 87.5658 28.9023 87.656C28.9023 87.7462 28.979 87.9904 29.0726 88.1986C29.1662 88.4067 29.2715 88.7191 29.3069 88.8927C29.3421 89.0664 29.4226 89.2903 29.4857 89.3902C29.5487 89.4901 29.631 89.7134 29.6682 89.8864C29.7056 90.0593 29.8125 90.3514 29.9057 90.5354C29.9988 90.7195 30.075 90.9549 30.075 91.0586C30.075 91.1624 30.1431 91.3771 30.2266 91.5358C30.3098 91.6946 30.4246 92.0275 30.4814 92.2756C30.6684 93.0915 31.137 92.5417 31.3406 91.2668C31.3941 90.9323 31.4798 90.6078 31.5314 90.5458C31.5831 90.4836 31.6577 90.1701 31.6976 89.8489C31.7376 89.5278 31.8379 89.1304 31.9207 88.966C32.0035 88.8016 32.0923 88.4642 32.118 88.2162C32.1437 87.9681 32.2394 87.5621 32.3302 87.3141C32.4211 87.066 32.5185 86.6695 32.5467 86.433C32.5747 86.1964 32.6593 85.8843 32.7344 85.739C32.8092 85.594 32.908 85.2192 32.9538 84.9062C32.9994 84.5932 33.0959 84.1951 33.168 84.0215C33.2402 83.8478 33.327 83.4863 33.3609 83.2179C33.3949 82.9498 33.4813 82.6169 33.553 82.4782C33.6247 82.3397 33.6834 82.1244 33.6834 81.9997C33.6834 81.8752 33.7844 81.457 33.9078 81.0705C34.0311 80.6842 34.1326 80.2579 34.1333 80.1233C34.134 79.9887 34.2106 79.6842 34.304 79.4467C34.3971 79.2093 34.5034 78.7916 34.5399 78.5187C34.5767 78.2458 34.6576 77.9211 34.7199 77.7971C34.7821 77.673 34.8795 77.3011 34.9361 76.9705C34.9927 76.6399 35.0992 76.2543 35.1725 76.1135C35.246 75.9728 35.3062 75.7308 35.3067 75.5759C35.3069 75.421 35.4086 74.9834 35.5326 74.6034C35.6567 74.2234 35.7582 73.7965 35.7582 73.6544C35.7582 73.5126 35.8385 73.2196 35.9366 73.0034C36.0347 72.7871 36.1158 72.4833 36.117 72.3284C36.1181 72.1734 36.2205 71.7359 36.3445 71.3559C36.4686 70.9759 36.5703 70.5546 36.5705 70.4198C36.5709 70.2847 36.6266 70.068 36.6948 69.9376C36.7626 69.8075 36.8657 69.4282 36.9237 69.0948C36.9818 68.7615 37.0849 68.3403 37.1528 68.1589C37.2207 67.9774 37.3021 67.6463 37.3337 67.4231C37.3652 67.1998 37.4579 66.8284 37.5396 66.5979C37.7394 66.0345 37.6277 65.7183 37.308 65.9423ZM41.4494 66.0979C41.3953 66.152 41.3509 66.32 41.3507 66.4714C41.35 66.7977 41.2099 67.3568 41.0295 67.7523C40.9582 67.9088 40.9001 68.1795 40.9001 68.3538C40.9001 68.5283 40.8252 68.847 40.7334 69.0619C40.6418 69.2768 40.5381 69.6722 40.5029 69.9406C40.4677 70.2087 40.3807 70.5411 40.3092 70.6794C40.2377 70.8176 40.138 71.2211 40.0877 71.5758C40.0374 71.9308 39.9357 72.3076 39.8618 72.4132C39.7878 72.5187 39.7273 72.7575 39.7273 72.9438C39.7273 73.1301 39.6259 73.5521 39.5018 73.8815C39.3778 74.2113 39.2763 74.6206 39.2763 74.7915C39.2763 74.9625 39.1985 75.2926 39.1036 75.5251C39.0084 75.7577 38.9098 76.1507 38.8843 76.3988C38.8589 76.6469 38.7549 77.0325 38.6532 77.2558C38.5515 77.4791 38.4662 77.8241 38.4633 78.0226C38.4606 78.221 38.3799 78.5458 38.284 78.7442C38.1882 78.9427 38.107 79.2472 38.1038 79.4208C38.1004 79.5945 38.0192 79.9598 37.9232 80.2327C37.8271 80.5056 37.7464 80.8303 37.7439 80.9544C37.7412 81.0784 37.6386 81.464 37.5157 81.8113C37.393 82.1586 37.2924 82.5492 37.2922 82.6796C37.2919 82.8097 37.2286 83.0939 37.1512 83.3111C37.0741 83.528 36.9543 83.9696 36.8853 84.2921C36.7338 85.0009 36.5216 85.848 36.2976 86.6375C36.2061 86.96 36.0919 87.4268 36.0439 87.6749C35.9961 87.923 35.8935 88.2883 35.8164 88.4868C35.739 88.6852 35.674 89.0014 35.672 89.1895C35.6698 89.3776 35.5924 89.682 35.5002 89.8661C35.4079 90.0501 35.3069 90.4269 35.2758 90.7034C35.2447 90.9799 35.1581 91.3284 35.0834 91.4779C35.0088 91.6274 34.91 91.9898 34.864 92.2832C34.8177 92.5768 34.7203 92.9995 34.6475 93.2227C34.5137 93.6334 34.3234 94.4703 34.2887 94.8014C34.2605 95.07 35.1066 95.0961 35.9005 94.851C36.2295 94.7493 36.667 94.6643 36.8727 94.662C37.0784 94.66 37.409 94.5989 37.6074 94.5265C37.8059 94.4539 38.3093 94.3337 38.7263 94.2595C39.143 94.185 39.5287 94.0876 39.5832 94.0427C39.6376 93.9979 39.8852 93.9327 40.1333 93.8977C40.3814 93.8628 40.762 93.7574 40.9792 93.6639C41.1964 93.57 41.4715 93.4934 41.5908 93.4934C41.7101 93.4934 42.0486 93.3919 42.3434 93.2678C42.6382 93.1438 42.9606 93.0423 43.0599 93.0423C43.1593 93.0423 43.4142 92.9668 43.6264 92.8743C44.0914 92.6716 44.756 92.439 45.3595 92.2679C45.6044 92.1986 45.8277 92.105 45.8557 92.0602C45.8836 92.0153 46.069 91.9348 46.2675 91.8811C46.4659 91.8277 46.7095 91.7271 46.8087 91.6578C46.908 91.5886 47.1312 91.5013 47.3049 91.4639C47.4785 91.4267 47.7221 91.325 47.8461 91.2382C47.9702 91.1513 48.2009 91.0523 48.3585 91.018C48.5164 90.984 48.6939 90.8976 48.7529 90.8263C48.812 90.7551 48.9031 90.6969 48.955 90.6969C49.0509 90.6969 50.1228 90.2143 50.372 90.0591C50.4464 90.0127 50.6088 89.9342 50.7328 89.8848C50.8568 89.8352 51.0192 89.7605 51.0936 89.7186C51.3422 89.5788 51.5878 89.4543 51.8153 89.3526C51.9393 89.2971 52.3656 89.0677 52.7625 88.8431C53.1594 88.6185 53.6567 88.3564 53.8676 88.261C54.0784 88.1654 54.2509 88.0497 54.2509 88.0037C54.2509 87.9577 54.3626 87.8921 54.499 87.858C54.6355 87.824 54.8154 87.7347 54.8986 87.6596C55.0597 87.5146 55.4595 87.2798 55.9424 87.0471C56.1036 86.9692 56.2355 86.8732 56.2355 86.8335C56.2355 86.7936 56.3675 86.691 56.5287 86.6055C56.8974 86.4095 57.1153 86.2794 57.4556 86.0511C57.6035 85.9519 57.7901 85.8301 57.8699 85.7805C58.2959 85.5158 59.1847 84.9147 59.2992 84.8142C59.3719 84.7503 59.4982 84.6574 59.5796 84.6078C59.6612 84.5582 59.9025 84.3958 60.1161 84.247C60.3294 84.0981 60.5922 83.9155 60.6997 83.841C61.2841 83.4371 62.439 82.5716 62.5952 82.4207C62.6945 82.3249 63.0801 82.0283 63.4522 81.7615C63.8243 81.4949 64.1491 81.2491 64.1739 81.2153C64.2134 81.1614 65.6594 79.974 66.1395 79.6012C66.2354 79.5268 66.6138 79.1971 66.9803 78.8685C68.1458 77.8241 69.0003 77.1058 69.2118 76.9926C69.3246 76.9322 69.4019 76.8375 69.3834 76.782C69.3323 76.6284 68.4888 76.1862 68.2333 76.1787C68.1092 76.1751 67.886 76.0914 67.7371 75.9929C67.5883 75.8943 67.4056 75.8129 67.3312 75.8122C67.2568 75.8116 66.9929 75.711 66.7448 75.589C66.4968 75.467 66.2322 75.3657 66.1571 75.3644C66.082 75.3628 65.8689 75.2802 65.684 75.181C65.4988 75.0818 65.276 75.0004 65.189 75.0004C65.1021 75.0001 64.9019 74.9212 64.7442 74.8251C64.5866 74.7291 64.3033 74.6215 64.1146 74.5861C63.926 74.5507 63.6491 74.4469 63.4991 74.3556C63.3494 74.2643 63.1651 74.1892 63.09 74.1889C63.0149 74.1889 62.8018 74.1075 62.6169 74.0083C62.4317 73.9091 62.2089 73.8276 62.1219 73.8274C62.035 73.8272 61.8014 73.7268 61.6029 73.6046C61.4045 73.4824 61.1454 73.3811 61.0272 73.3795C60.909 73.3782 60.6858 73.2999 60.531 73.2061C60.3763 73.1123 60.1084 73.0054 59.9354 72.9689C59.7625 72.9321 59.53 72.8426 59.4188 72.7695C59.3076 72.6967 59.0836 72.6044 58.9213 72.5645C58.6252 72.4917 57.7824 72.1676 57.4635 72.0039C57.3697 71.9556 57.086 71.8548 56.8332 71.7797C56.5801 71.7046 56.2926 71.5866 56.194 71.5176C56.0955 71.4486 55.9315 71.3922 55.8296 71.3922C55.7277 71.3922 55.5637 71.3359 55.4651 71.2668C55.3666 71.1978 55.073 71.0781 54.8129 71.0007C54.5527 70.9236 54.25 70.7973 54.14 70.7204C54.0302 70.6433 53.8572 70.5804 53.7559 70.5804C53.6547 70.5804 53.4201 70.4992 53.2352 70.3999C53.05 70.3007 52.8475 70.2191 52.7853 70.2186C52.7233 70.2182 52.4693 70.118 52.2212 69.996C51.9732 69.874 51.6937 69.7728 51.6004 69.7714C51.507 69.7698 51.3041 69.6916 51.1493 69.5978C50.9946 69.5039 50.7294 69.3977 50.5598 69.3619C50.3905 69.3258 50.1266 69.2202 49.9735 69.1269C49.8206 69.0335 49.6189 68.9571 49.5256 68.9568C49.4322 68.9568 49.2293 68.8797 49.0745 68.7859C48.9198 68.6921 48.6512 68.5852 48.4776 68.5484C48.3039 68.5116 48.0205 68.4057 47.8475 68.3132C47.6745 68.2205 47.4715 68.1445 47.3964 68.1445C47.3213 68.1443 47.1269 68.0631 46.9643 67.9641C46.802 67.8648 46.599 67.7834 46.5133 67.783C46.4278 67.7825 46.1547 67.6824 45.9066 67.5604C45.6586 67.4384 45.3667 67.3371 45.258 67.3358C45.1493 67.3342 45.0354 67.2927 45.0052 67.2438C44.975 67.1948 44.7208 67.0882 44.4405 67.0067C44.1602 66.9251 43.8801 66.8078 43.8181 66.7456C43.7561 66.6836 43.5511 66.6046 43.3628 66.5704C43.1742 66.5359 42.9298 66.4495 42.8195 66.3784C42.4992 66.1723 41.566 65.9813 41.4494 66.0979ZM19.3409 72.8469C19.2746 73.0142 19.1672 73.2142 19.1023 73.2911C19.0373 73.368 18.835 73.7131 18.653 74.0579C18.4708 74.4027 18.2931 74.7052 18.2579 74.73C18.223 74.7548 18.1226 74.9273 18.0353 75.1133C17.9478 75.2994 17.8436 75.4516 17.8035 75.4516C17.7636 75.4516 17.7047 75.5707 17.6727 75.7159C17.6407 75.8614 17.5541 76.0308 17.4799 76.0923C17.4059 76.1537 17.2879 76.3291 17.2183 76.4818C17.1483 76.6347 16.988 76.922 16.8619 77.1205C16.7359 77.3189 16.5744 77.6063 16.5034 77.7592C16.4321 77.9118 16.313 78.0873 16.239 78.1486C16.1648 78.2102 16.0782 78.3791 16.0464 78.5239C16.0146 78.6687 15.9535 78.809 15.9105 78.8356C15.8674 78.8622 15.6574 79.1919 15.4438 79.5685C15.2301 79.9452 14.9653 80.4007 14.8555 80.5811C14.7456 80.7615 14.5918 81.031 14.5138 81.1799C14.4358 81.3287 14.2517 81.6332 14.1049 81.8564C13.5346 82.7238 13.4597 83.4689 13.8634 84.2576C13.9367 84.4006 14.0264 84.6969 14.0628 84.9161C14.0993 85.1351 14.2053 85.4395 14.2987 85.5927C14.392 85.7456 14.4685 85.9418 14.4687 86.0286C14.4689 86.1614 14.6268 86.5144 15.0237 87.269C15.0627 87.3434 15.1782 87.5667 15.2801 87.7651C15.5095 88.2121 15.6306 88.4124 15.8897 88.7732C16.0013 88.9286 16.0927 89.0846 16.0927 89.1196C16.0927 89.4168 18.552 91.8777 19.4536 92.4826C20.2148 92.9934 21.5205 93.7119 21.9562 93.8601C22.1299 93.9189 22.3329 94.0179 22.4073 94.0797C22.4817 94.1415 22.705 94.2211 22.9034 94.2563C23.1019 94.2915 23.3908 94.3982 23.5455 94.4933C23.7002 94.5883 23.9526 94.6661 24.1059 94.6661C24.2595 94.6661 24.5795 94.7421 24.817 94.8348C25.0545 94.9277 25.533 95.033 25.8803 95.0686C26.2276 95.1045 26.733 95.1909 27.0036 95.2606C27.5947 95.413 27.7167 95.3356 27.5169 94.9353C27.438 94.7773 27.3471 94.4999 27.3151 94.3188C27.2828 94.1377 27.1804 93.863 27.0871 93.7083C26.9939 93.5536 26.9173 93.3303 26.9168 93.2121C26.9164 93.094 26.8162 92.7942 26.6942 92.5462C26.5722 92.2981 26.4698 91.9936 26.4667 91.8696C26.4635 91.7456 26.4047 91.5697 26.3356 91.4788C26.2669 91.3881 26.1609 91.104 26.1002 90.8473C26.0395 90.5909 25.9349 90.3011 25.8675 90.2032C25.8 90.1053 25.745 89.9414 25.745 89.839C25.745 89.7364 25.6643 89.494 25.5655 89.3002C25.4667 89.1065 25.3607 88.8036 25.3298 88.6271C25.2991 88.4507 25.1972 88.1722 25.1036 88.008C25.0098 87.844 24.9318 87.6208 24.9302 87.5118C24.9288 87.4032 24.8276 87.1111 24.7056 86.863C24.5836 86.615 24.4834 86.3094 24.483 86.184C24.4825 86.0586 24.4216 85.8698 24.3479 85.7645C24.2741 85.6592 24.1564 85.3559 24.0861 85.0904C24.0159 84.825 23.8937 84.486 23.8148 84.3372C23.7358 84.1883 23.6711 83.9935 23.6707 83.9042C23.6704 83.8149 23.6057 83.6173 23.527 83.4649C23.4483 83.3126 23.3301 83.0001 23.2647 82.7703C23.1114 82.2328 22.8667 81.5243 22.7151 81.1799C22.6497 81.031 22.5498 80.7277 22.493 80.506C22.4361 80.2841 22.3326 80.0214 22.2632 79.9221C22.1935 79.8227 22.1353 79.6389 22.1337 79.5135C22.1324 79.3881 22.0311 79.0825 21.9091 78.8345C21.7871 78.5864 21.687 78.2867 21.6865 78.1685C21.6861 78.0503 21.6078 77.827 21.5129 77.6723C21.4177 77.5176 21.3099 77.2296 21.2734 77.0321C21.2366 76.8348 21.132 76.5506 21.0406 76.4006C20.9493 76.2509 20.8742 76.0267 20.8737 75.9027C20.8733 75.7786 20.7982 75.5545 20.7068 75.4047C20.6155 75.2547 20.5111 74.9706 20.475 74.7733C20.4389 74.5757 20.3575 74.333 20.2944 74.2338C20.2312 74.1346 20.1306 73.8504 20.0709 73.6023C20.0111 73.3543 19.8496 73.0142 19.7118 72.8469L19.4617 72.5424L19.3409 72.8469ZM73.3993 78.1444C73.2333 78.1928 72.179 79.1107 71.3552 79.9242C71.2505 80.0275 70.7794 80.4309 70.3081 80.8211C69.8367 81.211 69.3861 81.5933 69.3068 81.6706C68.697 82.2644 68.0603 82.8079 67.5567 83.1645C67.3109 83.3388 66.8957 83.6904 66.6039 83.9716C66.5265 84.0463 66.1612 84.3304 65.792 84.6029C65.4231 84.8753 64.9506 85.2447 64.7422 85.424C64.534 85.6033 64.1687 85.8761 63.9303 86.0309C63.6922 86.1853 63.3147 86.4582 63.0914 86.6373C62.8681 86.8166 62.4471 87.1233 62.1555 87.319C61.8641 87.5148 61.377 87.8481 61.073 88.0596C60.2785 88.6129 59.8321 88.9114 59.5631 89.0698C59.0388 89.3783 58.4535 89.7632 58.1527 89.9978C57.9777 90.1342 57.7873 90.2459 57.7298 90.2459C57.6723 90.2459 57.546 90.3067 57.4491 90.3812C57.0988 90.6502 56.6356 90.9314 56.3483 91.0494C56.187 91.1157 56.0551 91.1994 56.0551 91.2354C56.0551 91.2715 55.9029 91.3692 55.7168 91.4528C55.5308 91.5363 55.1756 91.7199 54.9275 91.861C54.6794 92.002 54.1923 92.2652 53.845 92.4456C53.4977 92.626 53.1121 92.8294 52.988 92.8975C52.5904 93.1163 51.2409 93.7565 50.8681 93.9034C50.0544 94.2243 52.0043 94.3262 53.4984 94.0409C53.7543 93.9922 54.7692 93.9261 55.7536 93.8941C56.738 93.8621 58.0916 93.7762 58.7614 93.7033C59.4312 93.6303 60.8317 93.5349 61.8736 93.4916C62.9155 93.4483 64.3363 93.3486 65.0309 93.2703C65.7255 93.1921 67.0042 93.1064 67.8724 93.08C68.7407 93.0536 69.9382 92.9742 70.5336 92.9036C71.129 92.8328 72.5498 92.734 73.6909 92.6837C74.832 92.6335 76.334 92.5324 77.0286 92.4589C77.7232 92.3856 79.2455 92.2828 80.4115 92.2304C81.5774 92.1781 82.6937 92.0967 82.8922 92.0493C83.0907 92.0022 84.0243 91.9413 84.967 91.914C85.9097 91.8867 87.1719 91.8202 87.772 91.7659L88.8631 91.6673L88.489 91.2948C88.2831 91.09 87.8345 90.6788 87.4922 90.3812C87.1496 90.0835 86.6792 89.6572 86.4466 89.434C86.2139 89.2107 85.8276 88.8657 85.5876 88.6672C85.3479 88.4687 85.0671 88.2252 84.9638 88.1259C84.8605 88.0267 84.5144 87.7229 84.1948 87.451C83.8752 87.1788 83.4702 86.8134 83.2948 86.6391C83.1193 86.4645 82.7134 86.0987 82.3927 85.8261C82.072 85.5536 81.7894 85.3049 81.7646 85.2733C81.7398 85.2418 81.4353 84.9765 81.088 84.6836C80.3307 84.0454 79.789 83.5605 79.2897 83.0743C78.965 82.7579 78.2097 82.0975 77.5361 81.5407C77.2609 81.3132 76.574 80.709 76.2546 80.4131C75.4261 79.6461 74.4584 78.7756 74.1871 78.5532C74.0134 78.4109 73.8177 78.2434 73.752 78.1811C73.6866 78.1187 73.6257 78.0717 73.6167 78.0767C73.6079 78.0817 73.51 78.1121 73.3993 78.1444Z" fill="white"/>
</g>
</g>
<defs>
<filter id="filter0_i_1712_37501" x="0" y="0" width="111" height="112" filterUnits="userSpaceOnUse" color-interpolation-filters="sRGB">
<feFlood flood-opacity="0" result="BackgroundImageFix"/>
<feBlend mode="normal" in="SourceGraphic" in2="BackgroundImageFix" result="shape"/>
<feColorMatrix in="SourceAlpha" type="matrix" values="0 0 0 0 0 0 0 0 0 0 0 0 0 0 0 0 0 0 127 0" result="hardAlpha"/>
<feOffset dx="1" dy="2"/>
<feGaussianBlur stdDeviation="2"/>
<feComposite in2="hardAlpha" operator="arithmetic" k2="-1" k3="1"/>
<feColorMatrix type="matrix" values="0 0 0 0 0 0 0 0 0 0 0 0 0 0 0 0 0 0 0.1 0"/>
<feBlend mode="normal" in2="shape" result="effect1_innerShadow_1712_37501"/>
</filter>
</defs>
</svg>
