<svg width="147" height="147" viewBox="0 0 147 147" fill="none" xmlns="http://www.w3.org/2000/svg">
<mask id="path-1-inside-1_1257_1160" fill="white">
<path d="M73.5 7C88.2324 7 102.458 12.3756 113.509 22.1183C124.56 31.861 131.676 45.3012 133.523 59.9173C135.369 74.5335 131.819 89.3212 123.538 101.506C115.258 113.691 102.815 122.436 88.5457 126.099L81.0229 96.7996C88.1576 94.9678 94.3788 90.5954 98.5192 84.503C102.66 78.4106 104.435 71.0168 103.511 63.7087C102.588 56.4006 99.0301 49.6805 93.5047 44.8091C87.9792 39.9378 80.8662 37.25 73.5 37.25L73.5 7Z"/>
</mask>
<path d="M73.5 7C88.2324 7 102.458 12.3756 113.509 22.1183C124.56 31.861 131.676 45.3012 133.523 59.9173C135.369 74.5335 131.819 89.3212 123.538 101.506C115.258 113.691 102.815 122.436 88.5457 126.099L81.0229 96.7996C88.1576 94.9678 94.3788 90.5954 98.5192 84.503C102.66 78.4106 104.435 71.0168 103.511 63.7087C102.588 56.4006 99.0301 49.6805 93.5047 44.8091C87.9792 39.9378 80.8662 37.25 73.5 37.25L73.5 7Z" stroke="#13A97C" stroke-width="64" mask="url(#path-1-inside-1_1257_1160)"/>
<mask id="path-2-inside-2_1257_1160" fill="white">
<path d="M65.6382 7.51298C68.1518 7.18356 70.6836 7.01245 73.2186 7.00065L73.3593 37.2503C72.0918 37.2562 70.8259 37.3418 69.5691 37.5065L65.6382 7.51298Z"/>
</mask>
<path d="M65.6382 7.51298C68.1518 7.18356 70.6836 7.01245 73.2186 7.00065L73.3593 37.2503C72.0918 37.2562 70.8259 37.3418 69.5691 37.5065L65.6382 7.51298Z" stroke="#D7D7D7" stroke-width="64" mask="url(#path-2-inside-2_1257_1160)"/>
<mask id="path-3-inside-3_1257_1160" fill="white">
<path d="M81.2897 127.496C73.0935 128.561 64.7662 127.934 56.8215 125.656C48.8769 123.377 41.4833 119.495 35.0969 114.249C28.7105 109.003 23.4668 102.503 19.6892 95.1522C15.9116 87.8011 13.6803 79.7539 13.1328 71.5071C12.5854 63.2603 13.7336 54.9888 16.5064 47.2028C19.2792 39.4169 23.6179 32.2816 29.2548 26.2373C34.8917 20.1929 41.7074 15.3676 49.2812 12.059C56.855 8.7505 65.0264 7.02887 73.2913 7.00036L73.3957 37.2502C69.2632 37.2644 65.1775 38.1252 61.3906 39.7795C57.6037 41.4338 54.1959 43.8464 51.3774 46.8686C48.5589 49.8908 46.3896 53.4584 45.0032 57.3514C43.6168 61.2444 43.0427 65.3801 43.3164 69.5035C43.5901 73.6269 44.7058 77.6505 46.5946 81.3261C48.4834 85.0017 51.1052 88.2513 54.2984 90.8744C57.4916 93.4975 61.1884 95.4386 65.1608 96.5778C69.1331 97.7171 73.2968 98.0303 77.3948 97.4982L81.2897 127.496Z"/>
</mask>
<path d="M81.2897 127.496C73.0935 128.561 64.7662 127.934 56.8215 125.656C48.8769 123.377 41.4833 119.495 35.0969 114.249C28.7105 109.003 23.4668 102.503 19.6892 95.1522C15.9116 87.8011 13.6803 79.7539 13.1328 71.5071C12.5854 63.2603 13.7336 54.9888 16.5064 47.2028C19.2792 39.4169 23.6179 32.2816 29.2548 26.2373C34.8917 20.1929 41.7074 15.3676 49.2812 12.059C56.855 8.7505 65.0264 7.02887 73.2913 7.00036L73.3957 37.2502C69.2632 37.2644 65.1775 38.1252 61.3906 39.7795C57.6037 41.4338 54.1959 43.8464 51.3774 46.8686C48.5589 49.8908 46.3896 53.4584 45.0032 57.3514C43.6168 61.2444 43.0427 65.3801 43.3164 69.5035C43.5901 73.6269 44.7058 77.6505 46.5946 81.3261C48.4834 85.0017 51.1052 88.2513 54.2984 90.8744C57.4916 93.4975 61.1884 95.4386 65.1608 96.5778C69.1331 97.7171 73.2968 98.0303 77.3948 97.4982L81.2897 127.496Z" stroke="#C24B4B" stroke-width="64" mask="url(#path-3-inside-3_1257_1160)"/>
<mask id="path-4-inside-4_1257_1160" fill="white">
<path d="M88.4136 126.133C86.0769 126.727 83.7068 127.182 81.3159 127.493L77.4079 97.4965C78.6034 97.3408 79.7884 97.1137 80.9568 96.8165L88.4136 126.133Z"/>
</mask>
<path d="M88.4136 126.133C86.0769 126.727 83.7068 127.182 81.3159 127.493L77.4079 97.4965C78.6034 97.3408 79.7884 97.1137 80.9568 96.8165L88.4136 126.133Z" stroke="#72C8F3" stroke-width="64" mask="url(#path-4-inside-4_1257_1160)"/>
<g filter="url(#filter0_d_1257_1160)">
<circle cx="73.5" cy="67.5" r="33.5" fill="#213242"/>
</g>
<defs>
<filter id="filter0_d_1257_1160" x="0" y="0" width="147" height="147" filterUnits="userSpaceOnUse" color-interpolation-filters="sRGB">
<feFlood flood-opacity="0" result="BackgroundImageFix"/>
<feColorMatrix in="SourceAlpha" type="matrix" values="0 0 0 0 0 0 0 0 0 0 0 0 0 0 0 0 0 0 127 0" result="hardAlpha"/>
<feOffset dy="6"/>
<feGaussianBlur stdDeviation="20"/>
<feComposite in2="hardAlpha" operator="out"/>
<feColorMatrix type="matrix" values="0 0 0 0 0 0 0 0 0 0 0 0 0 0 0 0 0 0 0.14 0"/>
<feBlend mode="normal" in2="BackgroundImageFix" result="effect1_dropShadow_1257_1160"/>
<feBlend mode="normal" in="SourceGraphic" in2="effect1_dropShadow_1257_1160" result="shape"/>
</filter>
</defs>
</svg>
