<svg width="147" height="147" viewBox="0 0 147 147" fill="none" xmlns="http://www.w3.org/2000/svg">
<mask id="path-1-inside-1_1256_1152" fill="white">
<path d="M73.5 7C87.9052 7 101.838 12.14 112.792 21.4954C123.745 30.8509 131.002 43.8078 133.255 58.0357C135.509 72.2635 132.611 86.8286 125.085 99.1111C117.558 111.394 105.896 120.587 92.1956 125.039L82.8478 96.2694C89.6979 94.0437 95.529 89.4468 99.2924 83.3055C103.056 77.1643 104.504 69.8818 103.378 62.7678C102.251 55.6539 98.6227 49.1754 93.1458 44.4977C87.6689 39.82 80.7026 37.25 73.5 37.25L73.5 7Z"/>
</mask>
<path d="M73.5 7C87.9052 7 101.838 12.14 112.792 21.4954C123.745 30.8509 131.002 43.8078 133.255 58.0357C135.509 72.2635 132.611 86.8286 125.085 99.1111C117.558 111.394 105.896 120.587 92.1956 125.039L82.8478 96.2694C89.6979 94.0437 95.529 89.4468 99.2924 83.3055C103.056 77.1643 104.504 69.8818 103.378 62.7678C102.251 55.6539 98.6227 49.1754 93.1458 44.4977C87.6689 39.82 80.7026 37.25 73.5 37.25L73.5 7Z" stroke="#13A97C" stroke-width="64" mask="url(#path-1-inside-1_1256_1152)"/>
<mask id="path-2-inside-2_1256_1152" fill="white">
<path d="M65.6382 7.51298C68.1518 7.18356 70.6836 7.01245 73.2186 7.00065L73.3593 37.2503C72.0918 37.2562 70.8259 37.3418 69.5691 37.5065L65.6382 7.51298Z"/>
</mask>
<path d="M65.6382 7.51298C68.1518 7.18356 70.6836 7.01245 73.2186 7.00065L73.3593 37.2503C72.0918 37.2562 70.8259 37.3418 69.5691 37.5065L65.6382 7.51298Z" stroke="#D7D7D7" stroke-width="64" mask="url(#path-2-inside-2_1256_1152)"/>
<mask id="path-3-inside-3_1256_1152" fill="white">
<path d="M44.4682 120.579C32.6858 114.135 23.3825 103.953 18.0242 91.6389C12.6659 79.3246 11.5572 65.5774 14.8728 52.5635C18.1883 39.5496 25.7397 28.0088 36.337 19.7594C46.9343 11.5101 59.9752 7.02121 73.4048 7.00007L73.4524 37.25C66.7376 37.2606 60.2172 39.505 54.9185 43.6297C49.6198 47.7544 45.8442 53.5248 44.1864 60.0318C42.5286 66.5387 43.083 73.4123 45.7621 79.5695C48.4413 85.7267 53.0929 90.8174 58.9841 94.0396L44.4682 120.579Z"/>
</mask>
<path d="M44.4682 120.579C32.6858 114.135 23.3825 103.953 18.0242 91.6389C12.6659 79.3246 11.5572 65.5774 14.8728 52.5635C18.1883 39.5496 25.7397 28.0088 36.337 19.7594C46.9343 11.5101 59.9752 7.02121 73.4048 7.00007L73.4524 37.25C66.7376 37.2606 60.2172 39.505 54.9185 43.6297C49.6198 47.7544 45.8442 53.5248 44.1864 60.0318C42.5286 66.5387 43.083 73.4123 45.7621 79.5695C48.4413 85.7267 53.0929 90.8174 58.9841 94.0396L44.4682 120.579Z" stroke="#C14B4B" stroke-width="64" mask="url(#path-3-inside-3_1256_1152)"/>
<mask id="path-4-inside-4_1256_1152" fill="white">
<path d="M92.0494 125.086C84.2133 127.61 75.9445 128.509 67.7492 127.726C59.5539 126.944 51.6045 124.497 44.3877 120.535L58.9439 94.0176C62.5523 95.9983 66.527 97.2218 70.6246 97.613C74.7223 98.0043 78.8567 97.5552 82.7747 96.2931L92.0494 125.086Z"/>
</mask>
<path d="M92.0494 125.086C84.2133 127.61 75.9445 128.509 67.7492 127.726C59.5539 126.944 51.6045 124.497 44.3877 120.535L58.9439 94.0176C62.5523 95.9983 66.527 97.2218 70.6246 97.613C74.7223 98.0043 78.8567 97.5552 82.7747 96.2931L92.0494 125.086Z" stroke="#73CBF7" stroke-width="64" mask="url(#path-4-inside-4_1256_1152)"/>
<g filter="url(#filter0_d_1256_1152)">
<circle cx="73.5" cy="67.5" r="33.5" fill="#213242"/>
</g>
<defs>
<filter id="filter0_d_1256_1152" x="0" y="0" width="147" height="147" filterUnits="userSpaceOnUse" color-interpolation-filters="sRGB">
<feFlood flood-opacity="0" result="BackgroundImageFix"/>
<feColorMatrix in="SourceAlpha" type="matrix" values="0 0 0 0 0 0 0 0 0 0 0 0 0 0 0 0 0 0 127 0" result="hardAlpha"/>
<feOffset dy="6"/>
<feGaussianBlur stdDeviation="20"/>
<feComposite in2="hardAlpha" operator="out"/>
<feColorMatrix type="matrix" values="0 0 0 0 0 0 0 0 0 0 0 0 0 0 0 0 0 0 0.14 0"/>
<feBlend mode="normal" in2="BackgroundImageFix" result="effect1_dropShadow_1256_1152"/>
<feBlend mode="normal" in="SourceGraphic" in2="effect1_dropShadow_1256_1152" result="shape"/>
</filter>
</defs>
</svg>
