<svg width="20" height="20" viewBox="0 0 20 20" fill="none" xmlns="http://www.w3.org/2000/svg">
<path d="M9.92541 19.1667H3.33374C2.9143 19.1738 2.4998 19.0752 2.12845 18.8801C1.75709 18.6849 1.44081 18.3995 1.20874 18.05C0.925657 17.6443 0.774357 17.1613 0.775409 16.6667V11.6667C0.763621 11.5008 0.80491 11.3355 0.8933 11.1947C0.981691 11.0539 1.1126 10.9448 1.26708 10.8833C1.4123 10.8091 1.57708 10.782 1.73842 10.8059C1.89976 10.8298 2.04961 10.9035 2.16708 11.0167C2.25659 11.0974 2.32753 11.1965 2.37501 11.3073C2.42248 11.4181 2.44537 11.5379 2.44208 11.6583V16.6083C2.43848 16.7398 2.46606 16.8702 2.52255 16.989C2.57903 17.1078 2.66283 17.2115 2.76708 17.2917C2.9047 17.4003 3.07508 17.459 3.25041 17.4583H16.5337C16.6538 17.4672 16.7744 17.4499 16.8872 17.4077C16.9999 17.3654 17.1022 17.2993 17.1869 17.2138C17.2717 17.1282 17.3369 17.0253 17.378 16.9122C17.4192 16.799 17.4354 16.6783 17.4254 16.5583V11.6667C17.4209 11.5364 17.447 11.4068 17.5017 11.2884C17.5564 11.1701 17.6381 11.0662 17.7402 10.9851C17.8423 10.9041 17.9621 10.8481 18.0897 10.8218C18.2174 10.7954 18.3495 10.7994 18.4754 10.8333C18.6409 10.8792 18.7881 10.9751 18.897 11.1079C19.0059 11.2406 19.0711 11.4038 19.0837 11.575C19.0875 11.611 19.0875 11.6473 19.0837 11.6833V16.5917C19.0837 17.2547 18.8204 17.8906 18.3515 18.3594C17.8827 18.8283 17.2468 19.0917 16.5837 19.0917L9.92541 19.1667Z" fill="white"/>
<path d="M9.28459 13.2417V2.575C9.27473 2.4016 9.31217 2.22877 9.39293 2.075C9.48422 1.91379 9.62664 1.78761 9.79766 1.71638C9.96869 1.64515 10.1586 1.63295 10.3373 1.68169C10.5161 1.73044 10.6734 1.83736 10.7846 1.98555C10.8958 2.13375 10.9544 2.31477 10.9513 2.5V13.2417L11.0763 13.1417L13.1179 11.475C13.2539 11.3702 13.419 11.3099 13.5905 11.3025C13.762 11.295 13.9317 11.3407 14.0763 11.4333C14.1951 11.5017 14.2952 11.5984 14.3678 11.7148C14.4403 11.8312 14.483 11.9637 14.4921 12.1005C14.5011 12.2373 14.4763 12.3743 14.4198 12.4992C14.3632 12.6241 14.2767 12.7332 14.1679 12.8167L10.7596 15.5417C10.5855 15.6838 10.3677 15.7615 10.1429 15.7615C9.91818 15.7615 9.70034 15.6838 9.52626 15.5417L6.08459 12.8083C5.92131 12.6704 5.81728 12.475 5.79402 12.2625C5.77075 12.05 5.83003 11.8367 5.95959 11.6667C6.02836 11.5811 6.11337 11.5099 6.20973 11.4572C6.3061 11.4046 6.41192 11.3715 6.52111 11.3599C6.6303 11.3483 6.74071 11.3584 6.84599 11.3896C6.95127 11.4208 7.04935 11.4724 7.13459 11.5417L8.60959 12.725L9.28459 13.2417Z" fill="white"/>
</svg>
