<svg width="147" height="147" viewBox="0 0 147 147" fill="none" xmlns="http://www.w3.org/2000/svg">
<mask id="path-1-inside-1_1257_1174" fill="white">
<path d="M66.1691 7.4458C76.4229 6.1941 86.8264 7.58869 96.3885 11.4967L84.9442 39.4984C80.1632 37.5443 74.9614 36.847 69.8345 37.4729L66.1691 7.4458Z"/>
</mask>
<path d="M66.1691 7.4458C76.4229 6.1941 86.8264 7.58869 96.3885 11.4967L84.9442 39.4984C80.1632 37.5443 74.9614 36.847 69.8345 37.4729L66.1691 7.4458Z" stroke="#13A97C" stroke-width="64" mask="url(#path-1-inside-1_1257_1174)"/>
<mask id="path-2-inside-2_1257_1174" fill="white">
<path d="M13.0742 70.4957C12.3174 55.2293 17.3671 40.2423 27.2084 28.547C37.0498 16.8516 50.9532 9.31473 66.1243 7.45128L69.8121 37.4756C62.2266 38.4074 55.2749 42.1758 50.3542 48.0235C45.4335 53.8712 42.9087 61.3647 43.2871 68.9978L13.0742 70.4957Z"/>
</mask>
<path d="M13.0742 70.4957C12.3174 55.2293 17.3671 40.2423 27.2084 28.547C37.0498 16.8516 50.9532 9.31473 66.1243 7.45128L69.8121 37.4756C62.2266 38.4074 55.2749 42.1758 50.3542 48.0235C45.4335 53.8712 42.9087 61.3647 43.2871 68.9978L13.0742 70.4957Z" stroke="#BF4A4A" stroke-width="64" mask="url(#path-2-inside-2_1257_1174)"/>
<mask id="path-3-inside-3_1257_1174" fill="white">
<path d="M96.6137 11.5893C106.627 15.7287 115.344 22.4811 121.856 31.1411C128.367 39.8011 132.434 50.0508 133.63 60.8194C134.826 71.588 133.109 82.4803 128.657 92.3584C124.205 102.236 117.182 110.738 108.322 116.974C99.4619 123.21 89.0895 126.953 78.2886 127.81C67.4877 128.668 56.6547 126.609 46.9214 121.849C37.1881 117.089 28.9116 109.803 22.9567 100.751C17.0019 91.6993 13.5871 81.2144 13.0692 70.392L43.2846 68.946C43.5435 74.3572 45.2509 79.5996 48.2284 84.1255C51.2058 88.6514 55.344 92.2946 60.2107 94.6746C65.0774 97.0545 70.4939 98.0839 75.8943 97.6551C81.2948 97.2263 86.481 95.3551 90.9111 92.237C95.3412 89.1188 98.8526 84.8682 101.079 79.9292C103.305 74.9902 104.163 69.544 103.565 64.1597C102.967 58.7754 100.934 53.6505 97.6779 49.3205C94.4221 44.9905 90.0633 41.6143 85.0568 39.5446L96.6137 11.5893Z"/>
</mask>
<path d="M96.6137 11.5893C106.627 15.7287 115.344 22.4811 121.856 31.1411C128.367 39.8011 132.434 50.0508 133.63 60.8194C134.826 71.588 133.109 82.4803 128.657 92.3584C124.205 102.236 117.182 110.738 108.322 116.974C99.4619 123.21 89.0895 126.953 78.2886 127.81C67.4877 128.668 56.6547 126.609 46.9214 121.849C37.1881 117.089 28.9116 109.803 22.9567 100.751C17.0019 91.6993 13.5871 81.2144 13.0692 70.392L43.2846 68.946C43.5435 74.3572 45.2509 79.5996 48.2284 84.1255C51.2058 88.6514 55.344 92.2946 60.2107 94.6746C65.0774 97.0545 70.4939 98.0839 75.8943 97.6551C81.2948 97.2263 86.481 95.3551 90.9111 92.237C95.3412 89.1188 98.8526 84.8682 101.079 79.9292C103.305 74.9902 104.163 69.544 103.565 64.1597C102.967 58.7754 100.934 53.6505 97.6779 49.3205C94.4221 44.9905 90.0633 41.6143 85.0568 39.5446L96.6137 11.5893Z" stroke="#6EBFE8" stroke-width="64" mask="url(#path-3-inside-3_1257_1174)"/>
<g filter="url(#filter0_d_1257_1174)">
<circle cx="73.5" cy="67.5" r="33.5" fill="#213242"/>
</g>
<defs>
<filter id="filter0_d_1257_1174" x="0" y="0" width="147" height="147" filterUnits="userSpaceOnUse" color-interpolation-filters="sRGB">
<feFlood flood-opacity="0" result="BackgroundImageFix"/>
<feColorMatrix in="SourceAlpha" type="matrix" values="0 0 0 0 0 0 0 0 0 0 0 0 0 0 0 0 0 0 127 0" result="hardAlpha"/>
<feOffset dy="6"/>
<feGaussianBlur stdDeviation="20"/>
<feComposite in2="hardAlpha" operator="out"/>
<feColorMatrix type="matrix" values="0 0 0 0 0 0 0 0 0 0 0 0 0 0 0 0 0 0 0.14 0"/>
<feBlend mode="normal" in2="BackgroundImageFix" result="effect1_dropShadow_1257_1174"/>
<feBlend mode="normal" in="SourceGraphic" in2="effect1_dropShadow_1257_1174" result="shape"/>
</filter>
</defs>
</svg>
