<svg width="147" height="147" viewBox="0 0 147 147" fill="none" xmlns="http://www.w3.org/2000/svg">
<mask id="path-1-inside-1_1257_1167" fill="white">
<path d="M66.4981 7.40655C75.2419 6.38775 84.1026 7.28932 92.462 10.0484C100.821 12.8074 108.478 17.3574 114.897 23.3809L94.1987 45.4404C90.989 42.4287 87.1607 40.1537 82.981 38.7742C78.8013 37.3947 74.3709 36.9439 69.999 37.4533L66.4981 7.40655Z"/>
</mask>
<path d="M66.4981 7.40655C75.2419 6.38775 84.1026 7.28932 92.462 10.0484C100.821 12.8074 108.478 17.3574 114.897 23.3809L94.1987 45.4404C90.989 42.4287 87.1607 40.1537 82.981 38.7742C78.8013 37.3947 74.3709 36.9439 69.999 37.4533L66.4981 7.40655Z" stroke="#13A97C" stroke-width="64" mask="url(#path-1-inside-1_1257_1167)"/>
<mask id="path-2-inside-2_1257_1167" fill="white">
<path d="M58.9524 8.77506C61.4131 8.16549 63.9097 7.71119 66.4273 7.41483L69.9637 37.4574C68.7048 37.6056 67.4566 37.8327 66.2262 38.1375L58.9524 8.77506Z"/>
</mask>
<path d="M58.9524 8.77506C61.4131 8.16549 63.9097 7.71119 66.4273 7.41483L69.9637 37.4574C68.7048 37.6056 67.4566 37.8327 66.2262 38.1375L58.9524 8.77506Z" stroke="#C04B4B" stroke-width="64" mask="url(#path-2-inside-2_1257_1167)"/>
<mask id="path-3-inside-3_1257_1167" fill="white">
<path d="M115.021 23.497C124.79 32.7154 131.214 44.9227 133.28 58.1948C135.346 71.467 132.936 85.0493 126.431 96.8009C119.926 108.552 109.695 117.805 97.3507 123.1C85.0066 128.396 71.2512 129.432 58.2528 126.047C45.2544 122.662 33.752 115.048 25.5588 104.404C17.3655 93.7601 12.9473 80.6924 13.0005 67.2605C13.0536 53.8287 17.5752 40.7964 25.8524 30.2179C34.1297 19.6393 45.6919 12.1161 58.7167 8.83396L66.1084 38.167C59.5959 39.808 53.8148 43.5697 49.6762 48.8589C45.5376 54.1482 43.2768 60.6643 43.2502 67.3803C43.2237 74.0962 45.4328 80.63 49.5294 85.9519C53.626 91.2738 59.3772 95.081 65.8764 96.7736C72.3756 98.4662 79.2533 97.9478 85.4254 95.3001C91.5975 92.6525 96.713 88.0262 99.9656 82.1504C103.218 76.2746 104.423 69.4835 103.39 62.8474C102.357 56.2113 99.1452 50.1077 94.2605 45.4985L115.021 23.497Z"/>
</mask>
<path d="M115.021 23.497C124.79 32.7154 131.214 44.9227 133.28 58.1948C135.346 71.467 132.936 85.0493 126.431 96.8009C119.926 108.552 109.695 117.805 97.3507 123.1C85.0066 128.396 71.2512 129.432 58.2528 126.047C45.2544 122.662 33.752 115.048 25.5588 104.404C17.3655 93.7601 12.9473 80.6924 13.0005 67.2605C13.0536 53.8287 17.5752 40.7964 25.8524 30.2179C34.1297 19.6393 45.6919 12.1161 58.7167 8.83396L66.1084 38.167C59.5959 39.808 53.8148 43.5697 49.6762 48.8589C45.5376 54.1482 43.2768 60.6643 43.2502 67.3803C43.2237 74.0962 45.4328 80.63 49.5294 85.9519C53.626 91.2738 59.3772 95.081 65.8764 96.7736C72.3756 98.4662 79.2533 97.9478 85.4254 95.3001C91.5975 92.6525 96.713 88.0262 99.9656 82.1504C103.218 76.2746 104.423 69.4835 103.39 62.8474C102.357 56.2113 99.1452 50.1077 94.2605 45.4985L115.021 23.497Z" stroke="#72C7F2" stroke-width="64" mask="url(#path-3-inside-3_1257_1167)"/>
<g filter="url(#filter0_d_1257_1167)">
<circle cx="73.5" cy="67.5" r="33.5" fill="#213242"/>
</g>
<defs>
<filter id="filter0_d_1257_1167" x="0" y="0" width="147" height="147" filterUnits="userSpaceOnUse" color-interpolation-filters="sRGB">
<feFlood flood-opacity="0" result="BackgroundImageFix"/>
<feColorMatrix in="SourceAlpha" type="matrix" values="0 0 0 0 0 0 0 0 0 0 0 0 0 0 0 0 0 0 127 0" result="hardAlpha"/>
<feOffset dy="6"/>
<feGaussianBlur stdDeviation="20"/>
<feComposite in2="hardAlpha" operator="out"/>
<feColorMatrix type="matrix" values="0 0 0 0 0 0 0 0 0 0 0 0 0 0 0 0 0 0 0.14 0"/>
<feBlend mode="normal" in2="BackgroundImageFix" result="effect1_dropShadow_1257_1167"/>
<feBlend mode="normal" in="SourceGraphic" in2="effect1_dropShadow_1257_1167" result="shape"/>
</filter>
</defs>
</svg>
