<svg width="116" height="48" viewBox="0 0 116 48" fill="none" xmlns="http://www.w3.org/2000/svg">
<path d="M9.07599 16.4463C7.71028 16.4463 7.31542 17.0399 7.31542 18.3491V20.5209H10.9583L10.5931 24.0295H7.31684V34.6776H2.94513V24.0295H0V20.5209H2.94513V18.4087C2.94513 14.8695 4.40142 13.0001 8.4646 13.0001C9.31602 12.9981 10.1669 13.0476 11.0121 13.1484V16.4505L9.07599 16.4463Z" fill="white"/>
<path d="M11.2617 27.1529C11.2617 23.1977 13.1737 20.2188 17.1803 20.2188C19.3654 20.2188 20.7 21.3199 21.3383 22.6873V20.5211H25.526V34.6779H21.3383V32.5366C20.7312 33.9054 19.3654 34.976 17.1803 34.976C13.1737 34.976 11.2617 32.0013 11.2617 28.0419V27.1529ZM15.632 28.1057C15.632 30.2164 16.4203 31.6144 18.454 31.6144C20.2457 31.6144 21.1557 30.3357 21.1557 28.3137V26.8922C21.1557 24.8702 20.2457 23.5915 18.454 23.5915C16.4203 23.5915 15.632 24.9895 15.632 27.1002V28.1057Z" fill="white"/>
<path d="M34.6309 20.2227C36.3292 20.2227 37.9383 20.5805 38.8186 21.174L37.8478 24.2084C36.9372 23.7835 35.9423 23.5599 34.9338 23.5538C32.5661 23.5538 31.5372 24.8921 31.5372 27.1832V28.0153C31.5372 30.3063 32.5689 31.6446 34.9338 31.6446C35.9423 31.6384 36.9372 31.415 37.8478 30.99L38.8186 34.023C37.9383 34.618 36.3306 34.9758 34.6309 34.9758C29.5006 34.9758 27.1641 32.2687 27.1641 27.9265V27.2719C27.1641 22.9298 29.5006 20.2227 34.6309 20.2227Z" fill="white"/>
<path d="M39.3945 28.1403V26.8922C39.3945 22.8773 41.7311 20.2354 46.4977 20.2354C50.9897 20.2354 52.9625 22.9119 52.9625 26.8381V29.0986H43.7634C43.8554 31.0318 44.7357 31.8945 47.16 31.8945C48.8003 31.8945 50.5297 31.5672 51.8048 31.0318L52.6045 33.965C51.451 34.5613 49.0833 35.0065 46.9902 35.0065C41.458 35.0051 39.3945 32.3008 39.3945 28.1403ZM43.7648 26.2958H49.0465V25.9394C49.0465 24.3931 48.4097 23.1657 46.4991 23.1657C44.5248 23.1671 43.7648 24.3875 43.7648 26.2903V26.2958Z" fill="white"/>
<path d="M69.1655 28.0461C69.1655 32.0014 67.2238 34.9803 63.2215 34.9803C61.0363 34.9803 59.5192 33.9096 58.912 32.5408V34.6821H54.7852V13.4122L59.1555 13.0239V22.4821C59.7923 21.234 61.1892 20.2216 63.2229 20.2216C67.2295 20.2216 69.1669 23.1963 69.1669 27.1558L69.1655 28.0461ZM64.7952 27.0642C64.7952 25.0713 64.0069 23.5847 61.9124 23.5847C60.1206 23.5847 59.1498 24.8328 59.1498 26.8562V28.3429C59.1498 30.3649 60.1206 31.6144 61.9124 31.6144C64.0069 31.6144 64.7952 30.1277 64.7952 28.1349V27.0642Z" fill="white"/>
<path d="M70.625 27.9556V27.2428C70.625 23.1669 72.9927 20.2227 77.8187 20.2227C82.6447 20.2227 85.0138 23.1669 85.0138 27.2428V27.9556C85.0138 32.0301 82.6461 34.9758 77.8201 34.9758C72.9941 34.9758 70.625 32.0301 70.625 27.9556ZM80.6421 26.9446C80.6421 25.071 79.8524 23.5843 77.8116 23.5843C75.7709 23.5843 74.9882 25.071 74.9882 26.9446V28.2538C74.9882 30.1274 75.7779 31.6141 77.8116 31.6141C79.8454 31.6141 80.6421 30.1274 80.6421 28.2538V26.9446Z" fill="white"/>
<path d="M86.4648 27.9556V27.2428C86.4648 23.1669 88.8326 20.2227 93.6585 20.2227C98.4845 20.2227 100.852 23.1669 100.852 27.2428V27.9556C100.852 32.0301 98.4845 34.9758 93.6585 34.9758C88.8326 34.9758 86.4648 32.0301 86.4648 27.9556ZM96.482 26.9446C96.482 25.071 95.6923 23.5843 93.6585 23.5843C91.6248 23.5843 90.8365 25.071 90.8365 26.9446V28.2538C90.8365 30.1274 91.6248 31.6141 93.6585 31.6141C95.6923 31.6141 96.482 30.1274 96.482 28.2538V26.9446Z" fill="white"/>
<path d="M106.864 27.2722L111.173 20.5211H115.817L111.295 27.5108L115.999 34.6779H111.356L106.864 27.7438V34.6779H102.492V13.4122L106.864 13.0239V27.2722Z" fill="white"/>
</svg>
