<svg width="48" height="48" viewBox="0 0 48 48" fill="none" xmlns="http://www.w3.org/2000/svg">
<g clip-path="url(#clip0_3008_3653)">
<path d="M47.999 48H0V0H47.999V48ZM4.44336 42.0029H22.4434V39.0029H4.44336V42.0029ZM29.5547 6.22363V19.002C29.5546 20.224 29.3321 21.0021 28.8877 21.5576C28.3322 22.113 27.6654 22.335 26.8877 22.335C26.2211 22.335 25.5545 22.1126 24.999 21.7793C24.4435 21.446 23.8876 21.0016 23.332 20.335L20.5547 23.4463C21.2213 24.224 22.1105 25.0021 23.1104 25.5576C24.1103 26.113 25.4437 26.4463 26.999 26.4463C28.11 26.4463 28.9989 26.2239 29.8877 25.8906C30.7763 25.6684 31.5539 25.113 32.1094 24.5576C32.776 23.8909 33.2214 23.2239 33.5547 22.335C33.888 21.4461 33.999 20.4458 33.999 19.2236V6.22363H29.5547ZM7.44434 9.89062H10.333V22.4463H7.44434V26.1123H17.4434V22.4463H14.666V9.89062H17.4434V6.22363H7.44434V9.89062Z" fill="white"/>
</g>
<defs>
<clipPath id="clip0_3008_3653">
<rect width="48" height="48" fill="white"/>
</clipPath>
</defs>
</svg>
