<svg width="86" height="48" viewBox="0 0 86 48" fill="none" xmlns="http://www.w3.org/2000/svg">
<path d="M5.31104 39.9198H7.77834V30.1333L11.5978 38.6648C12.0486 39.6973 12.6655 40.0628 13.8753 40.0628C15.0853 40.0628 15.6784 39.6974 16.1294 38.6648L19.9489 30.1333V39.9196H22.4162V30.1493C22.4162 29.196 22.0365 28.7353 21.2538 28.4972C19.3796 27.9094 18.1221 28.4177 17.5526 29.6887L13.8042 38.1086L10.1746 29.6887C9.62891 28.4177 8.3478 27.9094 6.4736 28.4972C5.69068 28.7353 5.31104 29.1962 5.31104 30.1491V39.9198ZM24.4677 31.9541H26.9342V37.3457C26.9112 37.6387 27.0278 38.3261 28.3794 38.3473C29.069 38.3583 33.7013 38.3473 33.7446 38.3473V31.9279H36.2169C36.2282 31.9279 36.2144 40.6824 36.2146 40.7197C36.228 42.8788 33.5475 43.3478 32.3119 43.384H24.5211V41.7166C24.5349 41.7166 32.3061 41.7184 32.3257 41.7165C33.9136 41.548 33.7261 40.7552 33.7259 40.4883V39.8383H28.4816C26.0416 39.8157 24.4881 38.746 24.4688 37.5158C24.4669 37.4017 24.5215 32.008 24.4675 31.9539L24.4677 31.9541Z" fill="white"/>
<path d="M38.1184 39.9191H45.2117C46.0421 39.9191 46.8486 39.7444 47.4894 39.4424C48.5568 38.9501 49.0789 38.2829 49.0789 37.4089V35.5979C49.0789 34.8829 48.4858 34.2156 47.3232 33.771C46.7063 33.5324 45.9472 33.4054 45.2117 33.4054H42.2222C41.2262 33.4054 40.7517 33.1036 40.6331 32.4365C40.6093 32.357 40.6093 32.2933 40.6093 32.214V31.0861C40.6093 31.0225 40.6093 30.9588 40.6331 30.8795C40.7517 30.3711 41.0128 30.2279 41.8904 30.1486C41.9615 30.1486 42.0564 30.1326 42.1277 30.1326H49.1738V28.4807H42.2462C41.2498 28.4807 40.7278 28.5442 40.2535 28.687C38.7825 29.1478 38.142 29.8786 38.142 31.1494V32.5953C38.142 33.7075 39.3995 34.6606 41.5108 34.8829C41.7482 34.8988 41.9853 34.9146 42.2224 34.9146H44.7846C44.8797 34.9146 44.9746 34.9146 45.0457 34.9306C45.8286 34.9943 46.1606 35.1371 46.3981 35.4231C46.5403 35.5659 46.5877 35.7091 46.5877 35.8679V37.3134C46.5877 37.4884 46.4692 37.7109 46.2321 37.9014C46.0185 38.0921 45.6626 38.2193 45.1881 38.2511C45.0932 38.2511 45.0221 38.2669 44.9272 38.2669H38.1182V39.9189L38.1184 39.9191ZM64.4706 37.0436C64.4706 38.7434 65.7279 39.6967 68.2664 39.8874C68.5035 39.9032 68.741 39.9191 68.9781 39.9191H75.4074V38.2669H68.9306C67.4835 38.2669 66.9379 37.9014 66.9379 37.0278V28.4805H64.4706V37.0436ZM50.6535 37.1302V31.2398C50.6535 29.7434 51.6997 28.8358 53.7677 28.5492C53.9882 28.5176 54.2107 28.5016 54.4334 28.5015H59.1168C59.3544 28.5015 59.5686 28.5175 59.8063 28.5492C61.8745 28.8358 62.9205 29.7434 62.9205 31.2398V37.13C62.9205 38.3439 62.4763 38.9939 61.4524 39.4173L63.8829 41.6208H61.018L59.0518 39.838L57.0723 39.964H54.4334C53.9818 39.964 53.5064 39.9002 52.9833 39.757C51.4144 39.3272 50.6535 38.4993 50.6535 37.13V37.1302ZM53.3164 36.987C53.3164 37.0667 53.3402 37.1463 53.3641 37.2418C53.5066 37.9263 54.1485 38.3084 55.1232 38.3084H57.3647L55.3057 36.4413H58.1703L59.9663 38.0697C60.2972 37.8925 60.5151 37.6216 60.5911 37.2736C60.6148 37.1941 60.6148 37.1144 60.6148 37.0349V31.3833C60.6148 31.3197 60.6148 31.24 60.5911 31.1603C60.4484 30.5234 59.8065 30.1575 58.8556 30.1575H55.1232C54.0298 30.1575 53.3166 30.6351 53.3166 31.3833V36.987H53.3164Z" fill="white"/>
<path d="M77.578 25.7403C76.0615 25.6991 74.903 25.8407 73.9125 26.2603C73.6311 26.3795 73.1823 26.3826 73.1364 26.7369C73.291 26.8998 73.315 27.143 73.438 27.3433C73.6743 27.7277 74.0737 28.2428 74.4299 28.513C74.8192 28.8082 75.2204 29.1238 75.6377 29.3795C76.3798 29.8339 77.2085 30.0935 77.9232 30.549C78.3444 30.8174 78.7628 31.1555 79.1738 31.4585C79.3769 31.6082 79.5135 31.8412 79.7774 31.9352V31.8917C79.6387 31.7144 79.603 31.4705 79.4756 31.2852L78.915 30.7221C78.3668 29.9912 77.6709 29.3494 76.9313 28.8161C76.3414 28.3908 75.0211 27.8165 74.775 27.1268L74.7318 27.0833C75.15 27.036 75.6398 26.884 76.0258 26.7803C76.6742 26.6055 77.2535 26.6507 77.9232 26.477C78.2249 26.3903 78.5269 26.3035 78.8289 26.217V26.0437C78.4904 25.6948 78.2491 25.2332 77.8798 24.9175C76.9143 24.0915 75.8603 23.2663 74.775 22.5783C74.1731 22.1966 73.4292 21.9486 72.7913 21.6251C72.5767 21.5165 72.1995 21.4599 72.0579 21.2785C71.7229 20.8495 71.5403 20.3055 71.2817 19.8057C70.7405 18.7587 70.2089 17.6151 69.7294 16.5134C69.4022 15.7623 69.1885 15.0216 68.7806 14.3475C66.8225 11.1136 64.7146 9.16199 61.4494 7.24333C60.7547 6.83536 59.9182 6.67403 59.0342 6.46368L57.6111 6.37683C57.3216 6.25525 57.0203 5.89958 56.7484 5.72705C55.6668 5.0408 52.8924 3.54768 52.0913 5.51052C51.5854 6.74949 52.8473 7.95854 53.2986 8.58632C53.6154 9.02671 54.021 9.52036 54.2473 10.0158C54.3962 10.3413 54.422 10.6677 54.5493 11.0121C54.8629 11.8607 55.1353 12.7837 55.5411 13.5678C55.7461 13.9646 55.9721 14.3826 56.2312 14.7373C56.3901 14.9552 56.6624 15.0511 56.7054 15.3873C56.4391 15.7617 56.4239 16.3426 56.2743 16.8167C55.6003 18.9515 55.8545 21.6047 56.8349 23.1847C57.1358 23.6696 57.8443 24.7098 58.8186 24.3109C59.6709 23.9622 59.4805 22.8817 59.7243 21.9285C59.7794 21.7124 59.7454 21.5534 59.8536 21.4086V21.452L60.6298 23.0114C61.2043 23.9406 62.2241 24.9119 63.0881 25.5672C63.5361 25.9071 63.8889 26.4947 64.4681 26.6935V26.6501H64.4249C64.3127 26.4745 64.1371 26.4015 63.9938 26.2603C63.6562 25.9279 63.281 25.5148 63.0018 25.134C62.216 24.0623 61.5215 22.8896 60.8888 21.6686C60.5866 21.0857 60.3239 20.4423 60.0692 19.8491C59.971 19.6204 59.9722 19.2746 59.7675 19.1559C59.4886 19.5907 59.0776 19.9423 58.8618 20.4557C58.5168 21.2762 58.4722 22.2769 58.3444 23.3145C58.2688 23.3417 58.3022 23.323 58.258 23.3578C57.6574 23.2122 57.4463 22.5912 57.2232 22.0584C56.6583 20.711 56.5536 18.5412 57.0503 16.9902C57.179 16.5888 57.76 15.3248 57.5248 14.9542C57.4126 14.5843 57.0422 14.3703 56.8349 14.0877C56.5784 13.7382 56.3223 13.2782 56.1448 12.8746C55.6827 11.824 55.467 10.6447 54.9805 9.5827C54.748 9.07495 54.3547 8.56123 54.0318 8.10984C53.6742 7.61001 53.2738 7.24141 52.9968 6.63678C52.8982 6.42199 52.7643 6.07809 52.9103 5.85712C52.957 5.70814 53.0225 5.64581 53.1693 5.59717C53.4194 5.40361 54.1161 5.66163 54.3766 5.77047C55.0683 6.05899 55.6454 6.3338 56.2312 6.72343C56.5125 6.91082 56.7969 7.27305 57.1367 7.37341H57.5248C58.132 7.51351 58.8121 7.41683 59.3792 7.58994C60.3818 7.89601 61.2802 8.37191 62.0959 8.8895C64.5819 10.466 66.6142 12.7102 68.0044 15.3873C68.2281 15.8182 68.3249 16.2297 68.5218 16.6869C68.9193 17.6089 69.42 18.5576 69.8154 19.4593C70.2101 20.3586 70.5947 21.2666 71.1524 22.0152C71.4458 22.4087 72.5784 22.6198 73.0929 22.8381C73.4539 22.9913 74.0451 23.1509 74.3869 23.3578C75.0398 23.7534 75.6722 24.2243 76.2846 24.6575C76.5906 24.874 77.5311 25.349 77.578 25.7403Z" fill="white"/>
<path fill-rule="evenodd" clip-rule="evenodd" d="M58.3013 9.2359C57.9851 9.23011 57.7614 9.27064 57.5249 9.32236V9.36578H57.5681C57.719 9.67707 57.985 9.87738 58.1718 10.1454C58.3155 10.4487 58.4592 10.752 58.6031 11.0552L58.6462 11.0119C58.9132 10.8228 59.0356 10.5204 59.0343 10.059C58.9272 9.94589 58.9113 9.80386 58.8187 9.66896C58.6953 9.4891 58.4567 9.3872 58.3013 9.2359Z" fill="white"/>
<path fill-rule="evenodd" clip-rule="evenodd" d="M76.5654 38.2198C76.5654 39.3109 77.4239 40.0462 78.3839 40.0462C79.344 40.0462 80.2022 39.3109 80.2022 38.2198C80.2022 37.1288 79.344 36.3936 78.3839 36.3936C77.4239 36.3936 76.5656 37.1288 76.5656 38.2198H76.5654ZM79.7949 38.2198C79.7949 39.0477 79.1647 39.6664 78.3839 39.6664C77.5937 39.6664 76.9729 39.0477 76.9729 38.2198C76.9729 37.3919 77.5935 36.7732 78.3839 36.7732C79.1647 36.7732 79.7949 37.3919 79.7949 38.2198ZM78.8738 39.2619H79.281L78.6848 38.3466C79.0047 38.3124 79.247 38.1565 79.247 37.7767C79.247 37.3529 78.9805 37.1777 78.4665 37.1777H77.6567V39.2619H78.0058V38.361H78.3305L78.8738 39.2619ZM78.0058 38.0689V37.4698H78.4081C78.6168 37.4698 78.8689 37.5088 78.8689 37.7524C78.8689 38.0443 78.641 38.0689 78.3789 38.0689H78.0058Z" fill="white"/>
</svg>
