<svg width="65" height="48" viewBox="0 0 65 48" fill="none" xmlns="http://www.w3.org/2000/svg">
<g clip-path="url(#clip0)">
<path d="M64.5477 46.4814C64.5477 47.1809 64.0355 47.6503 63.4293 47.6503V47.6461C62.8059 47.6503 62.3032 47.1809 62.3032 46.4816C62.3032 45.7825 62.8059 45.3144 63.4293 45.3144C64.0357 45.3142 64.5477 45.7823 64.5477 46.4814ZM65.0013 46.4814C65.0013 45.5215 64.2578 44.9644 63.4293 44.9644C62.595 44.9644 61.8516 45.5215 61.8516 46.4814C61.8516 47.4407 62.5952 48.0001 63.4293 48.0001C64.258 48.0001 65.0013 47.4407 65.0013 46.4814ZM63.1685 46.6098H63.3368L63.7269 47.2966H64.1552L63.7232 46.5808C63.9464 46.5649 64.1301 46.4582 64.1301 46.1568C64.1301 45.7823 63.8726 45.662 63.4365 45.662H62.8057V47.2966H63.1684V46.6098H63.1685ZM63.1685 46.333V45.9394H63.4208C63.558 45.9394 63.745 45.9506 63.745 46.1184C63.745 46.3011 63.6483 46.333 63.4865 46.333H63.1685" fill="white"/>
<path d="M54.4135 38.119L56.3735 43.4967H52.3928L54.4135 38.119ZM52.3144 36.0251L47.7975 47.5027H50.9871L51.7015 45.4747H57.0469L57.7231 47.5027H61.1856L56.635 36.0236L52.3144 36.0251ZM43.2461 47.507H46.482V36.0216L43.2455 36.0208L43.2461 47.507ZM20.7817 36.0208L18.0819 45.1239L15.4956 36.0216L12.0041 36.0208L15.6978 47.507H20.3596L24.0831 36.0208H20.7817V36.0208ZM33.8617 38.5219H35.2525C37.2702 38.5219 38.5752 39.4304 38.5752 41.788C38.5752 44.1463 37.2702 45.0549 35.2525 45.0549H33.8617V38.5219ZM30.653 36.0208V47.507H35.8991C38.6941 47.507 39.6068 47.0411 40.5937 45.9957C41.2907 45.2617 41.7416 43.651 41.7416 41.8902C41.7416 40.2752 41.3601 38.8357 40.6948 37.9387C39.4962 36.3345 37.7696 36.0208 35.1928 36.0208H30.653V36.0208ZM0 36.0049V47.507H3.26332V38.7734L5.79185 38.7741C6.62909 38.7741 7.2259 38.9834 7.62908 39.4153C8.14044 39.9616 8.34924 40.8434 8.34924 42.4563V47.507H11.5114V41.152C11.5114 36.6164 8.62888 36.0049 5.8085 36.0049H0V36.0049ZM25.445 36.0208L25.4463 47.507H28.6807V36.0208H25.445V36.0208Z" fill="white"/>
<path d="M8.69528 13.1511C8.69528 13.1511 12.8572 6.99249 21.1673 6.35536V4.12104C11.9629 4.86241 3.99219 12.6809 3.99219 12.6809C3.99219 12.6809 8.50664 25.7694 21.1673 26.9678V24.5929C11.8763 23.4206 8.69528 13.1511 8.69528 13.1511ZM21.1673 19.8698V22.0447C14.1454 20.7892 12.1963 13.4686 12.1963 13.4686C12.1963 13.4686 15.5678 9.72279 21.1673 9.11533V11.5019C21.163 11.5019 21.1601 11.5006 21.1565 11.5006C18.2176 11.1469 15.9217 13.9004 15.9217 13.9004C15.9217 13.9004 17.2086 18.5358 21.1673 19.8698ZM21.1673 0V4.12104C21.4375 4.10027 21.7077 4.08265 21.9794 4.07337C32.4438 3.71966 39.2621 12.6809 39.2621 12.6809C39.2621 12.6809 31.431 22.231 23.2725 22.231C22.5248 22.231 21.8247 22.1614 21.1673 22.0446V24.5929C21.7295 24.6645 22.3124 24.7066 22.9207 24.7066C30.5128 24.7066 36.0032 20.818 41.3196 16.2156C42.201 16.9236 45.8096 18.646 46.5514 19.4C41.4966 23.6443 29.7159 27.0657 23.037 27.0657C22.3933 27.0657 21.775 27.0266 21.1673 26.9678V30.5487H50.0243V0H21.1673ZM21.1673 9.11533V6.35555C21.4347 6.33681 21.7042 6.32235 21.9794 6.31363C29.5043 6.07658 34.4412 12.799 34.4412 12.799C34.4412 12.799 29.1089 20.2263 23.3916 20.2263C22.5688 20.2263 21.831 20.0937 21.1671 19.8698V11.5019C24.0966 11.8569 24.6862 13.1548 26.4474 16.0993L30.3645 12.7868C30.3645 12.7868 27.5051 9.02575 22.6849 9.02575C22.161 9.02556 21.6596 9.06247 21.1673 9.11533Z" fill="white"/>
</g>
<defs>
<clipPath id="clip0">
<rect width="65" height="48" fill="white"/>
</clipPath>
</defs>
</svg>
