<svg width="95" height="48" viewBox="0 0 95 48" fill="none" xmlns="http://www.w3.org/2000/svg">
<g clip-path="url(#clip0)">
<path d="M61.5579 23.5457C61.5579 25.775 59.7537 27.582 57.5282 27.582H37.9087C35.6831 27.582 33.8789 25.775 33.8789 23.5457V4.03623C33.8789 1.80706 35.6831 0 37.9087 0H57.5282C59.7538 0 61.5579 1.80706 61.5579 4.03623V23.5457V23.5457Z" fill="white"/>
<path d="M61.4142 23.4455C61.4142 25.6517 59.6286 27.4402 57.4258 27.4402H38.0079C35.8051 27.4402 34.0195 25.6517 34.0195 23.4455V4.13633C34.0195 1.93008 35.8052 0.141602 38.0079 0.141602H57.4258C59.6286 0.141602 61.4142 1.93015 61.4142 4.13633V23.4455Z" fill="white"/>
<path d="M47.7052 4.12256C44.962 4.12256 42.7383 6.34995 42.7383 9.09749C42.7383 11.8451 44.962 14.0726 47.7052 14.0726C50.4485 14.0726 52.6722 11.8451 52.6722 9.09749C52.6722 6.34995 50.4485 4.12256 47.7052 4.12256ZM47.7052 11.1542C46.5713 11.1542 45.652 10.2333 45.652 9.09756C45.652 7.9618 46.5713 7.04104 47.7052 7.04104C48.8392 7.04104 49.7585 7.9618 49.7585 9.09756C49.7585 10.2333 48.8392 11.1542 47.7052 11.1542Z" fill="#016D85"/>
<path d="M49.4567 18.0308C51.4452 17.625 52.6367 16.6819 52.6998 16.6312C53.2817 16.1639 53.3751 15.3125 52.9085 14.7296C52.4419 14.1468 51.592 14.0532 51.01 14.5205C50.9977 14.5305 49.7268 15.507 47.6357 15.5084C45.5446 15.507 44.2468 14.5305 44.2345 14.5205C43.6525 14.0532 42.8026 14.1468 42.336 14.7296C41.8694 15.3125 41.9629 16.1639 42.5447 16.6312C42.6086 16.6826 43.8494 17.6503 45.8936 18.0465L43.0446 21.0287C42.5269 21.5665 42.5425 22.4228 43.0794 22.9414C43.3415 23.1945 43.6793 23.3203 44.0167 23.3203C44.3706 23.3203 44.7241 23.1818 44.9891 22.9065L47.6357 20.0826L50.5498 22.9248C51.0777 23.4528 51.9327 23.452 52.4597 22.9233C52.9867 22.3947 52.986 21.5382 52.4582 21.0103L49.4567 18.0308Z" fill="#016D85"/>
</g>
<path d="M4.87603 48C3.30943 48 2.10511 47.5194 1.26307 46.5583C0.421022 45.5973 0 44.2292 0 42.4542C0 40.6889 0.421022 39.3257 1.26307 38.3647C2.1149 37.4036 3.31922 36.923 4.87603 36.923C6.43283 36.923 7.63225 37.4036 8.4743 38.3647C9.32613 39.3257 9.75205 40.6889 9.75205 42.4542C9.75205 44.2292 9.33103 45.5973 8.48898 46.5583C7.64694 47.5194 6.44262 48 4.87603 48ZM4.87603 46.426C6.88323 46.426 7.88682 45.102 7.88682 42.4542C7.88682 41.1498 7.63225 40.1642 7.12311 39.4974C6.61397 38.8305 5.86494 38.4971 4.87603 38.4971C3.88711 38.4971 3.13808 38.8305 2.62894 39.4974C2.1198 40.1642 1.86523 41.1498 1.86523 42.4542C1.86523 45.102 2.86883 46.426 4.87603 46.426Z" fill="white"/>
<path d="M17.0913 47.8087L16.827 46.6172C16.5234 47.0487 16.1514 47.3821 15.7108 47.6175C15.28 47.8529 14.8149 47.9705 14.3155 47.9705C13.2972 47.9705 12.4993 47.6175 11.9216 46.9114C11.3439 46.1955 11.055 45.2001 11.055 43.9252C11.055 42.6503 11.339 41.6647 11.9069 40.9684C12.4846 40.2623 13.2874 39.9093 14.3155 39.9093C15.1576 39.9093 15.8821 40.1986 16.4892 40.7772V36.7612H18.281V47.8087H17.0913ZM12.8615 43.9399C12.8615 44.7735 13.0133 45.4158 13.3168 45.867C13.6301 46.3083 14.0756 46.5289 14.6533 46.5289C15.0254 46.5289 15.373 46.4309 15.6961 46.2347C16.029 46.0288 16.2982 45.7591 16.5039 45.4257V42.2041C16.0143 41.6255 15.3975 41.3362 14.6533 41.3362C14.0756 41.3362 13.6301 41.5617 13.3168 42.0128C13.0133 42.4542 12.8615 43.0965 12.8615 43.9399Z" fill="white"/>
<path d="M20.3307 47.8087V40.0711H21.5203L21.7847 41.3215C22.1274 40.8703 22.5288 40.5222 22.989 40.277C23.459 40.0318 23.9828 39.9093 24.5605 39.9093C25.4515 39.9093 26.132 40.1789 26.602 40.7183C27.0719 41.2479 27.3069 42.0226 27.3069 43.0426V47.8087H25.5151V43.1014C25.5151 41.9638 25.0305 41.395 24.0611 41.395C23.6401 41.395 23.2534 41.5225 22.9009 41.7775C22.5582 42.0325 22.2987 42.3757 22.1225 42.8072V47.8087H20.3307Z" fill="white"/>
<path d="M32.6284 47.9705C31.4436 47.9705 30.5184 47.6175 29.8526 46.9114C29.1966 46.2053 28.8686 45.2148 28.8686 43.9399C28.8686 42.665 29.1966 41.6745 29.8526 40.9684C30.5184 40.2623 31.4436 39.9093 32.6284 39.9093C33.8229 39.9093 34.7482 40.2623 35.4042 40.9684C36.0602 41.6745 36.3882 42.665 36.3882 43.9399C36.3882 45.2148 36.0602 46.2053 35.4042 46.9114C34.7482 47.6175 33.8229 47.9705 32.6284 47.9705ZM32.6284 46.5731C33.9306 46.5731 34.5817 45.6953 34.5817 43.9399C34.5817 42.1845 33.9306 41.3067 32.6284 41.3067C31.3262 41.3067 30.675 42.1845 30.675 43.9399C30.675 45.6953 31.3262 46.5731 32.6284 46.5731Z" fill="white"/>
<path d="M38.0155 47.8087V36.7612H39.8073V43.2338L42.8474 40.0711H44.8742L41.7753 43.3074L44.9917 47.8087H42.9356L40.4535 44.2782H39.8073V47.8087H38.0155Z" fill="white"/>
<path d="M46.1043 47.8087V38.0705L45.3259 37.4968V36.7612H47.8961V47.8087H46.1043Z" fill="white"/>
<path d="M54.7801 47.8087L54.5305 46.6613C54.2465 47.083 53.8891 47.4116 53.4583 47.6469C53.0275 47.8725 52.5526 47.9853 52.0337 47.9853C51.2406 47.9853 50.6091 47.7646 50.1391 47.3233C49.6789 46.882 49.4488 46.2838 49.4488 45.5286C49.4488 44.7245 49.7426 44.0919 50.33 43.631C50.9175 43.1701 51.7204 42.9396 52.7387 42.9396H54.1927V42.5718C54.1927 42.0815 54.0899 41.7481 53.8842 41.5715C53.6786 41.395 53.3163 41.3067 52.7974 41.3067C52.0239 41.3067 51.1427 41.4882 50.1538 41.851V40.4535C50.5454 40.2868 50.9909 40.1544 51.4903 40.0564C51.9896 39.9583 52.4792 39.9093 52.959 39.9093C54.9662 39.9093 55.9698 40.7919 55.9698 42.5571V47.8087H54.7801ZM52.4009 46.6319C52.7631 46.6319 53.1058 46.5387 53.4289 46.3524C53.7521 46.1563 54.0164 45.8866 54.222 45.5433V44.087H52.9443C51.7595 44.087 51.1672 44.5185 51.1672 45.3815C51.1672 45.7738 51.2749 46.0827 51.4903 46.3083C51.7057 46.524 52.0092 46.6319 52.4009 46.6319Z" fill="white"/>
<path d="M57.6132 47.4557V45.9994C58.1028 46.1955 58.5434 46.3377 58.935 46.426C59.3267 46.5044 59.7379 46.5436 60.1687 46.5436C61.2164 46.5436 61.7402 46.2445 61.7402 45.6463C61.7402 45.4207 61.6521 45.2393 61.4758 45.102C61.3094 44.9549 61.0156 44.8225 60.5946 44.7048L59.4491 44.3959C58.7539 44.1998 58.2447 43.9301 57.9216 43.5869C57.5985 43.2338 57.437 42.7827 57.437 42.2335C57.437 41.5078 57.716 40.939 58.2741 40.5271C58.8322 40.1152 59.591 39.9093 60.5506 39.9093C61.0107 39.9093 61.4563 39.9485 61.8871 40.0269C62.3179 40.1054 62.6851 40.2133 62.9886 40.3506V41.7775C62.1955 41.4735 61.4073 41.3215 60.624 41.3215C59.6743 41.3215 59.1994 41.5862 59.1994 42.1158C59.1994 42.3218 59.2826 42.4934 59.4491 42.6307C59.6155 42.7582 59.8946 42.8758 60.2862 42.9837L61.4318 43.3074C62.1857 43.5231 62.7193 43.8026 63.0326 44.1458C63.346 44.4793 63.5026 44.95 63.5026 45.558C63.5026 46.3328 63.2187 46.931 62.6508 47.3527C62.0829 47.7744 61.2751 47.9853 60.2275 47.9853C59.7477 47.9853 59.2679 47.9362 58.7881 47.8382C58.3084 47.7401 57.9167 47.6126 57.6132 47.4557Z" fill="white"/>
<path d="M64.5837 47.4557V45.9994C65.0733 46.1955 65.5139 46.3377 65.9055 46.426C66.2972 46.5044 66.7084 46.5436 67.1392 46.5436C68.1869 46.5436 68.7107 46.2445 68.7107 45.6463C68.7107 45.4207 68.6226 45.2393 68.4463 45.102C68.2799 44.9549 67.9862 44.8225 67.5651 44.7048L66.4196 44.3959C65.7244 44.1998 65.2152 43.9301 64.8921 43.5869C64.569 43.2338 64.4075 42.7827 64.4075 42.2335C64.4075 41.5078 64.6865 40.939 65.2446 40.5271C65.8027 40.1152 66.5615 39.9093 67.5211 39.9093C67.9813 39.9093 68.4268 39.9485 68.8576 40.0269C69.2884 40.1054 69.6556 40.2133 69.9591 40.3506V41.7775C69.166 41.4735 68.3778 41.3215 67.5945 41.3215C66.6448 41.3215 66.1699 41.5862 66.1699 42.1158C66.1699 42.3218 66.2531 42.4934 66.4196 42.6307C66.586 42.7582 66.8651 42.8758 67.2567 42.9837L68.4023 43.3074C69.1562 43.5231 69.6898 43.8026 70.0031 44.1458C70.3165 44.4793 70.4731 44.95 70.4731 45.558C70.4731 46.3328 70.1892 46.931 69.6213 47.3527C69.0534 47.7744 68.2456 47.9853 67.198 47.9853C66.7182 47.9853 66.2384 47.9362 65.7586 47.8382C65.2789 47.7401 64.8872 47.6126 64.5837 47.4557Z" fill="white"/>
<path d="M71.9067 47.8087V40.0711H73.0963L73.3607 41.3215C73.7034 40.8703 74.1048 40.5222 74.565 40.277C75.035 40.0318 75.5588 39.9093 76.1365 39.9093C77.0275 39.9093 77.708 40.1789 78.178 40.7183C78.6479 41.2479 78.8829 42.0226 78.8829 43.0426V47.8087H77.0911V43.1014C77.0911 41.9638 76.6065 41.395 75.6371 41.395C75.2161 41.395 74.8294 41.5225 74.4769 41.7775C74.1342 42.0325 73.8747 42.3757 73.6985 42.8072V47.8087H71.9067Z" fill="white"/>
<path d="M80.7383 38.5118V37.0407H82.7798V38.5118H80.7383ZM81.0027 47.8087V41.3803L80.2243 40.8066V40.0711H82.7944V47.8087H81.0027Z" fill="white"/>
<path d="M84.8584 47.8087V36.7612H86.6502V43.2338L89.6904 40.0711H91.7172L88.6182 43.3074L91.8346 47.8087H89.7785L87.2964 44.2782H86.6502V47.8087H84.8584Z" fill="white"/>
<path d="M92.9438 38.5118V37.0407H94.9853V38.5118H92.9438ZM93.2082 47.8087V41.3803L92.4298 40.8066V40.0711H95V47.8087H93.2082Z" fill="white"/>
<defs>
<clipPath id="clip0">
<rect width="27.679" height="27.582" fill="white" transform="translate(33.8789)"/>
</clipPath>
</defs>
</svg>
