<svg width="87" height="48" viewBox="0 0 87 48" fill="none" xmlns="http://www.w3.org/2000/svg">
<g clip-path="url(#clip0_229_33847)">
<mask id="mask0_229_33847" style="mask-type:luminance" maskUnits="userSpaceOnUse" x="0" y="0" width="114" height="48">
<path d="M114 0H0V48H114V0Z" fill="white"/>
</mask>
<g mask="url(#mask0_229_33847)">
<path d="M85.7183 12.1796C85.8059 12.1796 85.8935 12.1796 85.9436 12.0908C85.9561 12.0528 85.9686 12.0147 85.9686 11.9767C85.9686 11.9006 85.931 11.8371 85.8685 11.7991C85.8059 11.7737 85.7434 11.7737 85.6057 11.7737H85.5432V12.1669H85.7183V12.1796ZM85.6057 11.5581C85.7934 11.5581 85.881 11.5581 85.9561 11.5961C86.2063 11.6723 86.2313 11.9006 86.2313 11.9767C86.2313 11.9894 86.2313 12.0401 86.2188 12.0908C86.2063 12.1416 86.1813 12.243 86.0437 12.3318C86.0186 12.3445 86.0186 12.3445 85.9811 12.3572L86.2939 12.9406H85.9936L85.7183 12.4079H85.5432V12.9406H85.2679V11.5581H85.6057ZM85.7183 13.5114C86.394 13.5114 86.932 12.9533 86.932 12.2811C86.932 11.5961 86.394 11.0507 85.7183 11.0507C85.0552 11.0507 84.5172 11.5961 84.5172 12.2811C84.5172 12.9533 85.0552 13.5114 85.7183 13.5114ZM84.7674 12.2811C84.7674 11.7484 85.1928 11.3044 85.7183 11.3044C86.2563 11.3044 86.6817 11.7484 86.6817 12.2811C86.6817 12.8011 86.2438 13.2451 85.7183 13.2451C85.2054 13.2451 84.7674 12.8011 84.7674 12.2811ZM76.3345 20.1071C74.733 20.1071 73.3942 19.0163 72.9813 17.5322H81.8397L83.0658 15.6043H72.9688C73.3692 14.1203 74.733 13.0168 76.322 13.0168H82.4277L83.6414 11.0888H76.1844C73.194 11.0888 70.7793 13.5368 70.7793 16.5556C70.7793 19.5744 73.194 22.0224 76.1844 22.0224H82.5904L83.804 20.0944H76.322L76.3345 20.1071ZM50.9481 22.0351C47.9702 22.0351 45.5555 19.587 45.5555 16.5683C45.5555 13.5495 47.9702 11.1015 50.9481 11.1015H58.4051L57.1789 13.0294H51.0732C49.1464 13.0294 47.5824 14.6149 47.5824 16.5683C47.5824 18.5216 49.1464 20.1071 51.0732 20.1071H58.5552L57.3291 22.0351H50.923H50.9481ZM11.5359 20.1071C13.4627 20.1071 15.0392 18.5216 15.0392 16.5683C15.0392 14.6149 13.4752 13.0294 11.5359 13.0294H5.54273C3.61591 13.0294 2.05194 14.6149 2.05194 16.5683C2.05194 18.5216 3.61591 20.1071 5.54273 20.1071H11.5359ZM5.4051 22.0351C2.41478 22.0351 0 19.587 0 16.5683C0 13.5495 2.41478 11.1015 5.4051 11.1015H11.6735C14.6513 11.1015 17.0661 13.5495 17.0661 16.5683C17.0661 19.587 14.6513 22.0351 11.6735 22.0351H5.4051ZM27.2507 18.4962C29.2776 18.4962 30.9041 16.8346 30.9041 14.7925C30.9041 12.7504 29.2776 11.0888 27.2507 11.0888H18.1671V22.0351H20.2441V13.0168H27.1131C28.064 13.0168 28.8522 13.8158 28.8522 14.7925C28.8522 15.7692 28.064 16.5556 27.1131 16.5556H21.2575L27.4384 22.0351H30.4537L26.2873 18.4962H27.2257H27.2507ZM61.5831 20.1071V11.1015H59.5186V20.995C59.5186 21.274 59.6187 21.5277 59.8189 21.7306C60.0191 21.9209 60.2944 22.0477 60.5821 22.0477H70.0536L71.2797 20.1198H61.5956L61.5831 20.1071ZM36.1841 18.1791H41.7268L38.7991 13.3973L33.419 22.0477H30.9792L37.5104 11.6723C37.7981 11.2537 38.2736 11 38.7991 11C39.2996 11 39.775 11.241 40.0628 11.6469L46.619 22.0477H44.1667L43.0156 20.1198H37.4103L36.1841 18.1918V18.1791Z" fill="#FEFEFE"/>
<path d="M0 38.012V29.288H2.616C4.024 29.288 5.084 29.656 5.796 30.392C6.516 31.128 6.876 32.216 6.876 33.656C6.876 35.096 6.516 36.184 5.796 36.92C5.084 37.648 4.024 38.012 2.616 38.012H0ZM2.592 30.236H1.116V37.064H2.592C3.648 37.064 4.436 36.784 4.956 36.224C5.476 35.664 5.736 34.808 5.736 33.656C5.736 31.376 4.688 30.236 2.592 30.236Z" fill="white"/>
<path d="M12.3741 38.012L12.1941 37.004C11.6821 37.764 10.9861 38.144 10.1061 38.144C9.47406 38.144 8.96606 37.968 8.58206 37.616C8.20606 37.256 8.01806 36.78 8.01806 36.188C8.01806 35.532 8.24206 35.024 8.69006 34.664C9.14606 34.296 9.77806 34.112 10.5861 34.112H12.0261V33.716C12.0261 33.268 11.9261 32.952 11.7261 32.768C11.5341 32.584 11.2021 32.492 10.7301 32.492C10.4261 32.492 10.1021 32.528 9.75806 32.6C9.41406 32.664 9.02606 32.772 8.59406 32.924V32.048C8.89806 31.912 9.24606 31.808 9.63806 31.736C10.0301 31.656 10.3981 31.616 10.7421 31.616C12.3181 31.616 13.1061 32.316 13.1061 33.716V38.012H12.3741ZM10.2381 37.28C10.6061 37.28 10.9501 37.176 11.2701 36.968C11.5901 36.752 11.8461 36.46 12.0381 36.092V34.904H10.6941C10.1501 34.904 9.74606 35.004 9.48206 35.204C9.22606 35.396 9.09806 35.696 9.09806 36.104C9.09806 36.464 9.19806 36.752 9.39806 36.968C9.60606 37.176 9.88606 37.28 10.2381 37.28Z" fill="white"/>
<path d="M15.1728 36.104V32.636H14.0928V32.084L15.1728 31.724L15.6048 30.02H16.2528V31.748H17.6088V32.636H16.2528V36.092C16.2528 36.78 16.5488 37.124 17.1408 37.124C17.2368 37.124 17.3288 37.12 17.4168 37.112C17.5128 37.096 17.6008 37.084 17.6808 37.076V38.012C17.5688 38.036 17.4528 38.052 17.3328 38.06C17.2208 38.068 17.1008 38.072 16.9728 38.072C16.3568 38.072 15.9008 37.912 15.6048 37.592C15.3168 37.272 15.1728 36.776 15.1728 36.104Z" fill="white"/>
<path d="M23.1727 38.012L22.9927 37.004C22.4807 37.764 21.7847 38.144 20.9047 38.144C20.2727 38.144 19.7647 37.968 19.3807 37.616C19.0047 37.256 18.8167 36.78 18.8167 36.188C18.8167 35.532 19.0407 35.024 19.4887 34.664C19.9447 34.296 20.5767 34.112 21.3847 34.112H22.8247V33.716C22.8247 33.268 22.7247 32.952 22.5247 32.768C22.3327 32.584 22.0007 32.492 21.5287 32.492C21.2247 32.492 20.9007 32.528 20.5567 32.6C20.2127 32.664 19.8247 32.772 19.3927 32.924V32.048C19.6967 31.912 20.0447 31.808 20.4367 31.736C20.8287 31.656 21.1967 31.616 21.5407 31.616C23.1167 31.616 23.9047 32.316 23.9047 33.716V38.012H23.1727ZM21.0367 37.28C21.4047 37.28 21.7487 37.176 22.0687 36.968C22.3887 36.752 22.6447 36.46 22.8367 36.092V34.904H21.4927C20.9487 34.904 20.5447 35.004 20.2807 35.204C20.0247 35.396 19.8967 35.696 19.8967 36.104C19.8967 36.464 19.9967 36.752 20.1967 36.968C20.4047 37.176 20.6847 37.28 21.0367 37.28Z" fill="white"/>
<path d="M25.7314 37.724V29H26.8114V32.408C27.3394 31.88 27.9594 31.616 28.6714 31.616C29.5034 31.616 30.1434 31.892 30.5914 32.444C31.0394 32.996 31.2634 33.788 31.2634 34.82C31.2634 35.86 30.9794 36.676 30.4114 37.268C29.8434 37.852 29.0514 38.144 28.0354 38.144C27.6434 38.144 27.2314 38.104 26.7994 38.024C26.3674 37.952 26.0114 37.852 25.7314 37.724ZM28.4674 32.48C28.1794 32.48 27.8874 32.552 27.5914 32.696C27.3034 32.84 27.0434 33.044 26.8114 33.308V37.1C26.9714 37.148 27.1514 37.188 27.3514 37.22C27.5514 37.244 27.7714 37.256 28.0114 37.256C29.4434 37.256 30.1594 36.44 30.1594 34.808C30.1594 34.048 30.0154 33.472 29.7274 33.08C29.4474 32.68 29.0274 32.48 28.4674 32.48Z" fill="white"/>
<path d="M36.7017 38.012L36.5217 37.004C36.0097 37.764 35.3137 38.144 34.4337 38.144C33.8017 38.144 33.2937 37.968 32.9097 37.616C32.5337 37.256 32.3457 36.78 32.3457 36.188C32.3457 35.532 32.5697 35.024 33.0177 34.664C33.4737 34.296 34.1057 34.112 34.9137 34.112H36.3537V33.716C36.3537 33.268 36.2537 32.952 36.0537 32.768C35.8617 32.584 35.5297 32.492 35.0577 32.492C34.7537 32.492 34.4297 32.528 34.0857 32.6C33.7417 32.664 33.3537 32.772 32.9217 32.924V32.048C33.2257 31.912 33.5737 31.808 33.9657 31.736C34.3577 31.656 34.7257 31.616 35.0697 31.616C36.6457 31.616 37.4337 32.316 37.4337 33.716V38.012H36.7017ZM34.5657 37.28C34.9337 37.28 35.2777 37.176 35.5977 36.968C35.9177 36.752 36.1737 36.46 36.3657 36.092V34.904H35.0217C34.4777 34.904 34.0737 35.004 33.8097 35.204C33.5537 35.396 33.4257 35.696 33.4257 36.104C33.4257 36.464 33.5257 36.752 33.7257 36.968C33.9337 37.176 34.2137 37.28 34.5657 37.28Z" fill="white"/>
<path d="M38.9604 37.7V36.788C39.3364 36.948 39.6764 37.064 39.9804 37.136C40.2924 37.208 40.6204 37.244 40.9644 37.244C42.0044 37.244 42.5244 36.932 42.5244 36.308C42.5244 36.06 42.4484 35.868 42.2964 35.732C42.1444 35.588 41.8764 35.464 41.4924 35.36L40.5084 35.096C39.9324 34.936 39.5124 34.72 39.2484 34.448C38.9844 34.168 38.8524 33.812 38.8524 33.38C38.8524 32.836 39.0644 32.408 39.4884 32.096C39.9204 31.776 40.5004 31.616 41.2284 31.616C41.6284 31.616 41.9924 31.648 42.3204 31.712C42.6484 31.776 42.9324 31.864 43.1724 31.976V32.888C42.5564 32.64 41.9324 32.516 41.3004 32.516C40.3884 32.516 39.9324 32.78 39.9324 33.308C39.9324 33.532 40.0004 33.712 40.1364 33.848C40.2804 33.976 40.5284 34.088 40.8804 34.184L41.8764 34.448C42.4844 34.608 42.9244 34.832 43.1964 35.12C43.4684 35.4 43.6044 35.78 43.6044 36.26C43.6044 36.844 43.3764 37.304 42.9204 37.64C42.4644 37.976 41.8324 38.144 41.0244 38.144C40.6404 38.144 40.2644 38.104 39.8964 38.024C39.5284 37.944 39.2164 37.836 38.9604 37.7Z" fill="white"/>
<path d="M49.7343 37.7C49.5103 37.836 49.2103 37.944 48.8343 38.024C48.4663 38.104 48.0623 38.144 47.6223 38.144C46.6303 38.144 45.8783 37.864 45.3663 37.304C44.8623 36.736 44.6103 35.908 44.6103 34.82C44.6103 33.772 44.8503 32.976 45.3303 32.432C45.8183 31.888 46.5143 31.616 47.4183 31.616C49.1623 31.616 50.0343 32.58 50.0343 34.508V35.204H45.7023C45.7503 35.908 45.9383 36.424 46.2663 36.752C46.5943 37.072 47.0823 37.232 47.7303 37.232C48.0903 37.232 48.4303 37.196 48.7503 37.124C49.0703 37.052 49.3983 36.94 49.7343 36.788V37.7ZM47.4183 32.504C46.8903 32.504 46.4783 32.664 46.1823 32.984C45.8943 33.296 45.7343 33.752 45.7023 34.352H48.9903C48.9903 33.696 48.8663 33.224 48.6183 32.936C48.3783 32.648 47.9783 32.504 47.4183 32.504Z" fill="white"/>
</g>
</g>
<defs>
<clipPath id="clip0_229_33847">
<rect width="87" height="48" fill="white"/>
</clipPath>
</defs>
</svg>
