<svg width="122" height="48" viewBox="0 0 122 48" fill="none" xmlns="http://www.w3.org/2000/svg">
<g clip-path="url(#clip0_229_33944)">
<mask id="mask0_229_33944" style="mask-type:luminance" maskUnits="userSpaceOnUse" x="0" y="0" width="122" height="48">
<path d="M122 0H0V48H122V0Z" fill="white"/>
</mask>
<g mask="url(#mask0_229_33944)">
<path d="M120.297 18.6016C120.42 18.6016 120.543 18.6016 120.613 18.481C120.63 18.4294 120.648 18.3777 120.648 18.3261C120.648 18.2228 120.595 18.1366 120.507 18.085C120.42 18.0505 120.332 18.0505 120.139 18.0505H120.051V18.5844H120.297V18.6016ZM120.139 17.7578C120.402 17.7578 120.525 17.7578 120.63 17.8094C120.982 17.9128 121.017 18.2228 121.017 18.3261C121.017 18.3434 121.017 18.4122 120.999 18.481C120.982 18.55 120.946 18.6877 120.753 18.8083C120.718 18.8255 120.718 18.8255 120.666 18.8427L121.104 19.6348H120.683L120.297 18.9116H120.051V19.6348H119.665V17.7578H120.139ZM120.297 20.4098C121.245 20.4098 122 19.6521 122 18.7394C122 17.8094 121.245 17.0688 120.297 17.0688C119.366 17.0688 118.611 17.8094 118.611 18.7394C118.611 19.6521 119.366 20.4098 120.297 20.4098ZM118.962 18.7394C118.962 18.0161 119.559 17.4133 120.297 17.4133C121.052 17.4133 121.649 18.0161 121.649 18.7394C121.649 19.4454 121.034 20.0483 120.297 20.0483C119.577 20.0483 118.962 19.4454 118.962 18.7394ZM107.128 29.3652C104.88 29.3652 103.001 27.8841 102.422 25.8691H114.853L116.574 23.2515H102.404C102.966 21.2366 104.88 19.7383 107.11 19.7383H115.679L117.382 17.1206H106.917C102.72 17.1206 99.3314 20.4443 99.3314 24.5431C99.3314 28.6419 102.72 31.9656 106.917 31.9656H115.907L117.61 29.3479H107.11L107.128 29.3652ZM71.5003 31.9829C67.3212 31.9829 63.9324 28.659 63.9324 24.5604C63.9324 20.4616 67.3212 17.1378 71.5003 17.1378H81.9655L80.2446 19.7554H71.6759C68.9719 19.7554 66.7769 21.9081 66.7769 24.5604C66.7769 27.2124 68.9719 29.3652 71.6759 29.3652H82.1761L80.4554 31.9829H71.4651H71.5003ZM16.1894 29.3652C18.8935 29.3652 21.1059 27.2124 21.1059 24.5604C21.1059 21.9081 18.911 19.7554 16.1894 19.7554H7.77864C5.07455 19.7554 2.87968 21.9081 2.87968 24.5604C2.87968 27.2124 5.07455 29.3652 7.77864 29.3652H16.1894ZM7.58549 31.9829C3.38889 31.9829 0 28.659 0 24.5604C0 20.4616 3.38889 17.1378 7.58549 17.1378H16.3825C20.5616 17.1378 23.9505 20.4616 23.9505 24.5604C23.9505 28.659 20.5616 31.9829 16.3825 31.9829H7.58549ZM38.2435 27.178C41.0881 27.178 43.3707 24.9219 43.3707 22.1493C43.3707 19.3766 41.0881 17.1206 38.2435 17.1206H25.4956V31.9829H28.4105V19.7383H38.0504C39.3849 19.7383 40.4911 20.8231 40.4911 22.1493C40.4911 23.4754 39.3849 24.5431 38.0504 24.5431H29.8327L38.5069 31.9829H42.7386L36.8915 27.178H38.2084H38.2435ZM86.4255 29.3652V17.1378H83.5282V30.5707C83.5282 30.9495 83.6686 31.294 83.9496 31.5695C84.2306 31.8278 84.6169 32 85.0207 32H98.3129L100.034 29.3824H86.443L86.4255 29.3652ZM50.7806 26.7474H58.5592L54.4505 20.2549L46.9001 32H43.4761L52.6419 17.9128C53.0457 17.3445 53.713 17 54.4505 17C55.1529 17 55.8201 17.3272 56.224 17.8783L65.4249 32H61.9834L60.3679 29.3824H52.5015L50.7806 26.7647V26.7474Z" fill="#FEFEFE"/>
</g>
</g>
<defs>
<clipPath id="clip0_229_33944">
<rect width="122" height="48" fill="white"/>
</clipPath>
</defs>
</svg>
