<svg width="48" height="48" viewBox="0 0 48 48" fill="none" xmlns="http://www.w3.org/2000/svg">
<g clip-path="url(#clip0_2952_2183)">
<path d="M0 0H48V48H0V0ZM36.1604 38.9638C37.5051 38.7225 38.8288 38.1692 39.8395 37.2359C40.048 36.7335 39.4753 36.322 39.3089 35.8786C38.9493 35.2959 38.582 34.6997 38.0544 34.2518C37.4355 34.2526 37.0098 34.8209 36.4128 34.9331C35.0491 35.4121 33.3193 35.1955 32.3702 34.0198C31.2454 32.6599 31.429 30.3552 32.8871 29.2996C33.9442 28.5318 35.3938 28.4937 36.5921 28.9228C37.0604 29.0691 37.6562 29.6936 38.0362 29.0894C38.6667 28.2861 39.2757 27.4319 39.6015 26.4538C39.3326 25.9756 38.7656 25.8072 38.3222 25.5361C35.4724 24.1558 31.7471 24.6329 29.4821 26.8968C28.1812 28.2243 27.5495 30.1103 27.5942 31.9513C27.5327 34.096 28.4951 36.2669 30.2186 37.569C31.7068 38.7278 33.6538 39.1664 35.5127 39.0199C35.7293 39.0105 35.9459 38.9957 36.1604 38.9638ZM11.9432 38.7241C12.3575 38.3011 12.1282 37.6535 12.2112 37.1265C12.2362 35.495 12.2462 33.8633 12.2643 32.2318C13.5662 34.353 14.8121 36.5119 16.1718 38.5957C16.6197 38.9441 17.2338 38.7324 17.7576 38.7907C18.3866 38.7929 19.0197 38.8302 19.6446 38.7383C20.2092 38.4197 19.8943 37.658 19.9971 37.1348C20.0244 33.4239 20.0225 29.7126 19.972 26.0019C20.1848 25.3461 19.5108 24.9118 18.9277 25.0779C18.0713 25.068 17.2042 25.0143 16.3559 25.1506C15.835 25.4694 16.1614 26.2086 16.0463 26.713C16.0159 28.4657 16.0093 30.2187 15.9908 31.9715C14.726 29.7476 13.4106 27.5524 12.1283 25.3392C11.7446 24.9391 11.1306 25.1271 10.6372 25.0738C9.95842 25.0704 9.27416 25.0356 8.60128 25.1469C8.0196 25.456 8.39864 26.2395 8.27508 26.7614C8.24739 30.6695 8.26438 34.5778 8.25965 38.4859C8.66207 38.9498 9.33488 38.7677 9.87339 38.8078C10.5638 38.8031 11.2572 38.8156 11.9432 38.7241ZM25.7618 38.7008C26.1324 38.2725 25.8996 37.667 25.9796 37.1574C26.0094 34.4193 26.0433 31.6806 25.9832 28.9427C25.8961 28.5151 26.1458 27.6818 25.5038 27.6432C24.5362 27.5727 23.5648 27.6454 22.5969 27.6166C21.9062 27.6015 22.0481 28.43 22.0225 28.8955C21.9556 31.7827 21.9638 34.6725 22.02 37.5602C22.0047 38.065 22.0055 38.9295 22.7457 38.787C23.7137 38.8082 24.6878 38.8376 25.6521 38.7467L25.7089 38.7284L25.7618 38.7008ZM24.8944 25.8097C25.9594 25.3472 26.3486 23.8755 25.6898 22.9292C25.3071 22.2992 24.5679 21.9118 23.8302 21.9996C22.7674 22.0439 21.8584 23.0888 21.9987 24.153C22.0257 25.2962 23.2169 26.2187 24.3309 25.9882C24.5277 25.964 24.7186 25.9005 24.8944 25.8097ZM36.3477 23.1106C37.6346 22.8242 38.9011 22.2918 39.8738 21.3819C39.9272 20.8298 39.4633 20.4167 39.2372 19.954C38.8893 19.416 38.5605 18.8478 38.0662 18.4278C37.5417 18.3949 37.1817 18.8732 36.6988 19.0035C35.393 19.5627 33.7129 19.4958 32.6482 18.4732C31.6064 17.5356 31.3718 15.8964 31.9412 14.6446C32.4775 13.4698 33.7743 12.7787 35.041 12.8071C35.9112 12.8031 36.7507 13.1043 37.502 13.5227C38.0998 13.5581 38.2949 12.8066 38.65 12.4427C39.0163 11.8981 39.3722 11.3355 39.5841 10.7101C39.4183 10.0699 38.6407 9.95093 38.1499 9.63602C37.1024 9.14413 35.9442 8.92069 34.7895 8.95888C32.4621 8.94128 30.0732 10.0076 28.7589 11.9711C27.632 13.6227 27.3788 15.7527 27.7392 17.6877C28.0998 19.6535 29.3698 21.4421 31.1622 22.3487C32.7419 23.1911 34.5948 23.3924 36.3477 23.1106ZM11.8953 22.8541C12.4343 22.4961 12.0676 21.755 12.2328 21.2302C12.2914 20.7863 13.0213 21.1444 13.3494 21.0201C15.2112 20.9717 17.189 20.6102 18.6523 19.378C19.7836 18.3859 20.4311 16.8742 20.3786 15.3716C20.4139 14.2836 20.3133 13.156 19.7865 12.182C19.0604 10.7497 17.5669 9.87912 16.0462 9.51898C14.7933 9.18071 13.4877 9.17129 12.1998 9.1944C10.9944 9.1944 9.78754 9.19112 8.58436 9.27517C8.07017 9.60241 8.38835 10.3311 8.27373 10.8356C8.24319 14.7684 8.26717 18.7014 8.25975 22.6343C8.62218 23.0432 9.22654 22.8951 9.71004 22.9423C10.439 22.945 11.1712 22.9505 11.8953 22.8541ZM12.3054 17.2001C12.1824 16.3764 12.2764 15.5398 12.2521 14.7107C12.2561 14.1177 12.2604 13.5247 12.2644 12.9316C13.3983 12.9593 14.6552 12.8011 15.6456 13.4755C16.1853 13.8664 16.4385 14.5524 16.3836 15.204C16.4021 16.0871 15.6996 16.8567 14.856 17.0421C14.0487 17.2627 13.1999 17.2284 12.3716 17.2126L12.3054 17.2001ZM25.8155 20.2628C26.0578 19.7952 25.932 19.2487 25.9907 18.7448C26.0342 15.9774 26.0391 13.2092 25.9823 10.442C25.9549 9.97829 26.0808 9.11311 25.3479 9.22202C24.3684 9.18007 23.3862 9.21586 22.4075 9.21442C21.8846 9.40437 22.0719 10.0891 22.0197 10.5245C21.9553 13.4886 21.9657 16.4546 22.025 19.4185C22.069 19.7755 21.9937 20.343 22.488 20.3831C22.9846 20.4076 23.4829 20.3764 23.9812 20.3909C24.5641 20.3804 25.158 20.4266 25.7328 20.3252L25.8155 20.2628Z" fill="white"/>
</g>
<defs>
<clipPath id="clip0_2952_2183">
<rect width="48" height="48" fill="white"/>
</clipPath>
</defs>
</svg>
