<svg width="49" height="49" viewBox="0 0 49 49" fill="none" xmlns="http://www.w3.org/2000/svg">
<g clip-path="url(#clip0_3008_3601)">
<path d="M21.4453 5.69336C23.5356 5.32836 25.6743 5.34309 27.7598 5.73242L32.04 0.841797C34.0492 1.528 35.9636 2.48151 37.7246 3.67871L36.5645 10.127H36.5596C38.1439 11.5675 39.4656 13.2808 40.4678 15.1885L46.8867 15.5537C47.6168 17.583 48.0755 19.7046 48.2568 21.8555L42.5869 24.9512C42.4676 27.107 41.9767 29.2342 41.1416 31.2197L44.8633 36.5674C43.7657 38.4166 42.4252 40.1056 40.8887 41.5898L34.9805 39.001C33.2529 40.2566 31.3198 41.1913 29.2725 41.7607L27.4971 48.0625C25.3972 48.335 23.2688 48.3252 21.1689 48.0234L19.4697 41.6973C17.4322 41.0987 15.509 40.1401 13.7959 38.8652L7.85449 41.376C6.33689 39.8722 5.01897 38.1638 3.94043 36.3047L7.73047 31.0049C6.91924 29.0048 6.45595 26.8784 6.36523 24.7178L0.733398 21.5488C0.938613 19.398 1.42577 17.2861 2.17969 15.2666L8.60352 14.9844C9.62955 13.0864 10.9755 11.3927 12.5742 9.97168L11.4951 3.50879C13.2752 2.33105 15.1991 1.40114 17.2178 0.744141L21.4453 5.69336ZM24.8623 8.39844C16.5626 8.39855 9.83496 15.2599 9.83496 23.7236C9.83498 32.1874 16.5627 39.0487 24.8623 39.0488C33.162 39.0488 39.8906 32.1875 39.8906 23.7236C39.8906 15.2598 33.1621 8.39844 24.8623 8.39844Z" fill="white"/>
<path d="M14.2393 30.9366C18.1622 37.857 26.0842 40.1687 24.1896 25.8412C24.0417 24.7267 23.4451 23.7242 22.5432 23.0769C10.7746 14.6284 9.95854 23.3884 14.2393 30.9366ZM21.5982 26.9216C21.9323 26.8389 22.19 26.9849 22.3093 27.3255C23.8699 31.7834 21.0685 33.404 19.1071 32.4063C17.3079 31.4914 17.3079 28.0215 21.5982 26.9216ZM20.577 24.2693C20.806 24.5467 20.8013 24.8484 20.5626 25.0966C17.4893 28.3427 14.54 26.6053 14.6593 24.5661C14.7881 22.3372 17.5656 20.6679 20.577 24.2693Z" fill="white"/>
<path d="M22.2789 33.1841C24.0228 32.1573 23.9376 28.6776 22.0887 25.4118C20.2398 22.1461 17.3272 20.331 15.5834 21.3577C13.8395 22.3845 13.9246 25.8642 15.7736 29.13C17.6225 32.3957 20.535 34.2108 22.2789 33.1841Z" fill="white"/>
<path d="M24.0466 10.7353C16.2104 10.7402 10.2832 16.5802 23.3976 22.0698C24.4188 22.4981 25.5642 22.4689 26.5664 21.9968C39.6282 15.8307 32.5938 10.7256 24.0418 10.7305L24.0466 10.7353ZM23.7793 19.2423C23.6839 19.5781 23.431 19.7338 23.0826 19.6706C18.5155 18.8189 18.5393 15.5339 20.3671 14.3026C22.0422 13.1735 24.9915 14.9061 23.7793 19.2472V19.2423ZM26.5425 19.6657C26.1941 19.729 25.9364 19.5781 25.8458 19.2374C24.624 14.9012 27.5733 13.1638 29.2484 14.288C31.0762 15.5193 31.1096 18.8043 26.5425 19.6608V19.6657Z" fill="white"/>
<path d="M24.8103 20.4304C28.5082 20.4304 31.5059 18.7658 31.5059 16.7123C31.5059 14.6588 28.5082 12.9941 24.8103 12.9941C21.1125 12.9941 18.1147 14.6588 18.1147 16.7123C18.1147 18.7658 21.1125 20.4304 24.8103 20.4304Z" fill="white"/>
<path d="M36.302 29.4996C40.2153 22.5743 38.2205 14.4226 26.996 23.2605C26.1226 23.9467 25.5691 24.9736 25.4736 26.0978C24.1803 40.7173 32.0308 37.0575 36.302 29.5044V29.4996ZM29.2103 25.0076C28.9717 24.7546 28.9669 24.4528 29.196 24.1803C32.2026 20.5741 34.9801 22.2385 35.1137 24.4674C35.2378 26.5114 32.2885 28.2488 29.2103 25.0076ZM27.4684 27.2366C27.5877 26.8959 27.8454 26.7499 28.1795 26.8326C32.4698 27.9228 32.4746 31.3976 30.6802 32.3125C28.7236 33.3102 25.9174 31.6993 27.4684 27.2366Z" fill="white"/>
<path d="M33.9974 29.0432C35.8463 25.7775 35.9315 22.2977 34.1876 21.271C32.4437 20.2443 29.5312 22.0594 27.6823 25.3251C25.8333 28.5909 25.7482 32.0706 27.492 33.0974C29.2359 34.1241 32.1485 32.309 33.9974 29.0432Z" fill="white"/>
</g>
<defs>
<clipPath id="clip0_3008_3601">
<rect width="48" height="48" fill="white" transform="translate(0.5 0.5)"/>
</clipPath>
</defs>
</svg>
