<svg width="59" height="48" viewBox="0 0 59 48" fill="none" xmlns="http://www.w3.org/2000/svg">
<path d="M48.8558 15.2559C48.8849 15.6682 48.8849 16.0804 48.8849 16.4965C48.8849 29.1744 39.0316 43.7959 21.0146 43.7959V43.7883C15.6923 43.7959 10.4805 42.3026 6 39.487C6.77391 39.5782 7.55169 39.6238 8.33142 39.6257C12.7421 39.6295 17.0267 38.1799 20.4967 35.5105C16.3052 35.4326 12.6296 32.7557 11.3456 28.8476C12.8139 29.125 14.3268 29.068 15.7679 28.6824C11.1982 27.778 7.91052 23.8453 7.91052 19.2779C7.91052 19.2361 7.91052 19.1963 7.91052 19.1564C9.27213 19.8992 10.7967 20.3115 12.3561 20.3571C8.05211 17.5396 6.72542 11.9311 9.3245 7.54619C14.2977 13.5403 21.6352 17.1843 29.512 17.57C28.7226 14.2376 29.801 10.7456 32.3458 8.40303C36.2909 4.77046 42.4958 4.95665 46.2043 8.81911C48.398 8.39543 50.5006 7.60698 52.4247 6.48985C51.6934 8.71081 50.1631 10.5974 48.1187 11.7962C50.0603 11.572 51.9572 11.0629 53.7436 10.2858C52.4285 12.2161 50.7721 13.8975 48.8558 15.2559Z" fill="white"/>
</svg>
