<svg width="335" height="175" viewBox="0 0 335 175" fill="none" xmlns="http://www.w3.org/2000/svg">
<g clip-path="url(#clip0_160_10483)">
<path d="M-0.322136 141.533C0.876351 141.533 1.84863 142.506 1.84863 143.707C1.84863 144.909 0.876351 145.882 -0.322136 145.882C-1.52062 145.882 -2.4929 144.908 -2.4929 143.707C-2.4929 142.507 -1.52062 141.533 -0.322136 141.533Z" fill="#0F2F3D"/>
<path d="M-0.0519843 133.358C-1.9956 133.358 -3.57174 131.779 -3.57174 129.832C-3.57174 127.886 -1.9956 126.307 -0.0519843 126.307C1.89163 126.307 3.46777 127.886 3.46777 129.832C3.46777 131.78 1.89163 133.358 -0.0519843 133.358Z" fill="#0F2F3D"/>
<path d="M-0.0437093 120.256C-2.4129 120.256 -4.33351 118.332 -4.33351 115.958C-4.33351 113.585 -2.4129 111.661 -0.0437093 111.661C2.32549 111.661 4.24609 113.585 4.24609 115.958C4.24609 118.332 2.32549 120.256 -0.0437093 120.256Z" fill="#0F2F3D"/>
<path d="M-0.298564 106.687C-2.83588 106.687 -4.89308 104.626 -4.89308 102.084C-4.89308 99.5427 -2.83588 97.4819 -0.298564 97.4819C2.23876 97.4819 4.2959 99.5427 4.2959 102.084C4.2959 104.626 2.23876 106.687 -0.298564 106.687Z" fill="#0F2F3D"/>
<path d="M-0.817273 92.6994C-3.28795 92.6994 -5.29085 90.693 -5.29085 88.2181C-5.29085 85.7432 -3.28795 83.7368 -0.817273 83.7368C1.6534 83.7368 3.65625 85.7432 3.65625 88.2181C3.65625 90.693 1.6534 92.6994 -0.817273 92.6994Z" fill="#0F2F3D"/>
<path d="M-1.60284 78.2797C-3.76142 78.2797 -5.51128 76.5268 -5.51128 74.3644C-5.51128 72.2021 -3.76142 70.4492 -1.60284 70.4492C0.555753 70.4492 2.30566 72.2021 2.30566 74.3644C2.30566 76.5268 0.555753 78.2797 -1.60284 78.2797Z" fill="#0F2F3D"/>
<path d="M12.9121 125.042C11.5179 125.042 10.3877 123.91 10.3877 122.513C10.3877 121.117 11.5179 119.984 12.9121 119.984C14.3063 119.984 15.4365 121.117 15.4365 122.513C15.4365 123.91 14.3063 125.042 12.9121 125.042Z" fill="#0F2F3D"/>
<path d="M8.85409 108.638C8.85409 106.465 10.6121 104.704 12.781 104.704C14.9499 104.704 16.708 106.465 16.708 108.638C16.708 110.81 14.9499 112.572 12.781 112.572C10.6121 112.572 8.85409 110.81 8.85409 108.638Z" fill="#0F2F3D"/>
<path d="M12.3882 90.2109C14.9006 90.2109 16.9375 92.2513 16.9375 94.7681C16.9375 97.2848 14.9006 99.3252 12.3882 99.3252C9.87584 99.3252 7.83897 97.2848 7.83897 94.7681C7.83897 92.2513 9.87492 90.2109 12.3882 90.2109Z" fill="#0F2F3D"/>
<path d="M11.7277 85.4245C9.23764 85.4245 7.21906 83.4024 7.21906 80.908C7.21906 78.4137 9.23764 76.3916 11.7277 76.3916C14.2177 76.3916 16.2363 78.4137 16.2363 80.908C16.2363 83.4024 14.2177 85.4245 11.7277 85.4245Z" fill="#0F2F3D"/>
<path d="M14.6094 67.0614C14.6094 69.1684 12.904 70.8768 10.8006 70.8768C8.69727 70.8768 6.99188 69.1684 6.99188 67.0614C6.99188 64.9544 8.69727 63.2461 10.8006 63.2461C12.9049 63.247 14.6094 64.9544 14.6094 67.0614Z" fill="#0F2F3D"/>
<path d="M9.60637 55.5457C8.33457 55.5457 7.30356 54.5129 7.30356 53.2389C7.30356 51.9649 8.33457 50.9321 9.60637 50.9321C10.8782 50.9321 11.9092 51.9649 11.9092 53.2389C11.9092 54.5129 10.8782 55.5457 9.60637 55.5457Z" fill="#0F2F3D"/>
<path d="M6.63691 31.6638C4.28709 31.6638 2.38216 29.7556 2.38216 27.4017C2.38216 25.0478 4.28709 23.1396 6.63691 23.1396C8.98673 23.1396 10.8916 25.0478 10.8916 27.4017C10.8916 29.7556 8.98673 31.6638 6.63691 31.6638Z" fill="#0F2F3D"/>
<path d="M24.6104 82.4865C23.3187 82.4865 22.2716 81.4375 22.2716 80.1436C22.2716 78.8497 23.3187 77.8008 24.6104 77.8008C25.9021 77.8008 26.9492 78.8497 26.9492 80.1436C26.9492 81.4375 25.9021 82.4865 24.6104 82.4865Z" fill="#0F2F3D"/>
<path d="M23.6689 70.0143C21.6201 70.0143 19.959 68.3503 19.959 66.2979C19.959 64.2455 21.6191 62.5815 23.6689 62.5815C25.7178 62.5815 27.3779 64.2455 27.3779 66.2979C27.3779 68.3503 25.7178 70.0143 23.6689 70.0143Z" fill="#0F2F3D"/>
<path d="M26.8936 52.4766C26.8936 54.9304 24.9084 56.919 22.4588 56.919C20.0101 56.919 18.0241 54.9304 18.0241 52.4766C18.0241 50.0237 20.0092 48.0342 22.4588 48.0342C24.9084 48.0342 26.8936 50.0237 26.8936 52.4766Z" fill="#0F2F3D"/>
<path d="M20.9779 43.2861C18.4389 43.2861 16.3806 41.2243 16.3806 38.6809C16.3806 36.1375 18.4389 34.0757 20.9779 34.0757C23.5169 34.0757 25.5752 36.1375 25.5752 38.6809C25.5752 41.2243 23.5169 43.2861 20.9779 43.2861Z" fill="#0F2F3D"/>
<path d="M19.2255 20.6582C21.5726 20.6582 23.4756 22.5645 23.4756 24.9156C23.4756 27.2668 21.5726 29.1722 19.2255 29.1722C16.8783 29.1722 14.9763 27.2659 14.9763 24.9156C14.9763 22.5645 16.8793 20.6582 19.2255 20.6582Z" fill="#0F2F3D"/>
<path d="M17.2006 14.5058C15.3724 14.5058 13.8895 13.0212 13.8895 11.1899C13.8895 9.35853 15.3714 7.87402 17.2006 7.87402C19.0288 7.87402 20.5107 9.35853 20.5107 11.1899C20.5107 13.0212 19.0288 14.5058 17.2006 14.5058Z" fill="#0F2F3D"/>
<path d="M37.5372 82.4865C36.2455 82.4865 35.1983 81.4375 35.1983 80.1436C35.1983 78.8497 36.2455 77.8008 37.5372 77.8008C38.8288 77.8008 39.876 78.8497 39.876 80.1436C39.876 81.4375 38.8288 82.4865 37.5372 82.4865Z" fill="#0F2F3D"/>
<path d="M36.5957 70.0143C34.5468 70.0143 32.8857 68.3503 32.8857 66.2979C32.8857 64.2455 34.5459 62.5815 36.5957 62.5815C38.6446 62.5815 40.3047 64.2455 40.3047 66.2979C40.3047 68.3503 38.6446 70.0143 36.5957 70.0143Z" fill="#0F2F3D"/>
<path d="M39.8203 52.4766C39.8203 54.9304 37.8352 56.919 35.3856 56.919C32.9369 56.919 30.9508 54.9304 30.9508 52.4766C30.9508 50.0237 32.936 48.0342 35.3856 48.0342C37.8352 48.0342 39.8203 50.0237 39.8203 52.4766Z" fill="#0F2F3D"/>
<path d="M33.9047 43.2861C31.3657 43.2861 29.3074 41.2243 29.3074 38.6809C29.3074 36.1375 31.3657 34.0757 33.9047 34.0757C36.4437 34.0757 38.502 36.1375 38.502 38.6809C38.502 41.2243 36.4437 43.2861 33.9047 43.2861Z" fill="#0F2F3D"/>
<path d="M32.1522 20.6582C34.4993 20.6582 36.4023 22.5645 36.4023 24.9156C36.4023 27.2668 34.4993 29.1722 32.1522 29.1722C29.8051 29.1722 27.903 27.2659 27.903 24.9156C27.903 22.5645 29.806 20.6582 32.1522 20.6582Z" fill="#0F2F3D"/>
<path d="M33.4375 11.1884C33.4375 13.0198 31.9555 14.5043 30.1273 14.5043C28.2991 14.5043 26.8163 13.0198 26.8163 11.1884C26.8163 9.35707 28.2982 7.87256 30.1273 7.87256C31.9555 7.87256 33.4375 9.35707 33.4375 11.1884Z" fill="#0F2F3D"/>
<path d="M47.0139 69.5661C47.0139 68.0419 48.2465 66.8062 49.7682 66.8062C51.2899 66.8062 52.5234 68.0419 52.5234 69.5661C52.5234 71.0904 51.2899 72.3261 49.7682 72.3261C48.2465 72.3261 47.0139 71.0904 47.0139 69.5661Z" fill="#0F2F3D"/>
<path d="M48.622 59.8929C46.3308 59.8929 44.4735 58.0324 44.4735 55.7372C44.4735 53.4421 46.3308 51.5815 48.622 51.5815C50.9132 51.5815 52.7705 53.4421 52.7705 55.7372C52.7705 58.0324 50.9132 59.8929 48.622 59.8929Z" fill="#0F2F3D"/>
<path d="M51.8125 41.9357C51.8125 44.4848 49.7498 46.5511 47.2051 46.5511C44.6604 46.5511 42.5977 44.4848 42.5977 41.9357C42.5977 39.3866 44.6604 37.3203 47.2051 37.3203C49.7498 37.3203 51.8125 39.3866 51.8125 41.9357Z" fill="#0F2F3D"/>
<path d="M45.5184 32.4183C43.1716 32.4183 41.2692 30.5126 41.2692 28.1618C41.2692 25.811 43.1716 23.9053 45.5184 23.9053C47.8652 23.9053 49.7676 25.811 49.7676 28.1618C49.7676 30.5126 47.8652 32.4183 45.5184 32.4183Z" fill="#0F2F3D"/>
<path d="M46.5273 14.4247C46.5273 16.0683 45.1968 17.4011 43.556 17.4011C41.9153 17.4011 40.5847 16.0692 40.5847 14.4247C40.5847 12.7811 41.9153 11.4492 43.556 11.4492C45.1968 11.4492 46.5273 12.782 46.5273 14.4247Z" fill="#0F2F3D"/>
<path d="M41.3209 1.14972C41.091 1.14972 40.9045 0.96288 40.9045 0.732573C40.9045 0.502265 41.091 0.31543 41.3209 0.31543C41.5508 0.31543 41.7373 0.502265 41.7373 0.732573C41.7373 0.96288 41.5508 1.14972 41.3209 1.14972Z" fill="#0F2F3D"/>
<path d="M59.668 41.6344C57.6191 41.6344 55.958 39.9714 55.958 37.9181C55.958 35.8657 57.6191 34.2026 59.668 34.2026C61.7168 34.2026 63.3779 35.8657 63.3779 37.9181C63.3779 39.9714 61.7168 41.6344 59.668 41.6344Z" fill="#0F2F3D"/>
<path d="M57.9013 19.541C60.4451 19.541 62.5078 21.6064 62.5078 24.1555C62.5078 26.7037 60.4451 28.77 57.9013 28.77C55.3566 28.77 53.2939 26.7037 53.2939 24.1555C53.2939 21.6064 55.3566 19.541 57.9013 19.541Z" fill="#0F2F3D"/>
<path d="M59.1709 10.432C59.1709 12.2634 57.689 13.7479 55.8608 13.7479C54.0326 13.7479 52.5497 12.2634 52.5497 10.432C52.5497 8.60067 54.0317 7.11523 55.8608 7.11523C57.6881 7.11523 59.1709 8.60067 59.1709 10.432Z" fill="#0F2F3D"/>
<path d="M69.7848 12.3491C72.2991 12.3491 74.3369 14.3914 74.3369 16.909C74.3369 19.4267 72.2991 21.4689 69.7848 21.4689C67.2706 21.4689 65.2328 19.4276 65.2328 16.909C65.2328 14.3904 67.2706 12.3491 69.7848 12.3491Z" fill="#0F2F3D"/>
<path d="M67.5995 5.51111C66.3282 5.51111 65.2976 4.47874 65.2976 3.20526C65.2976 1.93178 66.3282 0.899414 67.5995 0.899414C68.8708 0.899414 69.9014 1.93178 69.9014 3.20526C69.9014 4.47874 68.8708 5.51111 67.5995 5.51111Z" fill="#0F2F3D"/>
<path d="M86.9668 16.9085C86.9668 19.2624 85.0619 21.1706 82.712 21.1706C80.3622 21.1706 78.4574 19.2624 78.4574 16.9085C78.4574 14.5546 80.3622 12.6455 82.712 12.6455C85.0619 12.6455 86.9668 14.5546 86.9668 16.9085Z" fill="#0F2F3D"/>
<path d="M66.0996 59.0027C66.0996 61.3567 64.1947 63.2648 61.8449 63.2648C59.495 63.2648 57.5892 61.3567 57.5892 59.0027C57.5892 56.6488 59.4941 54.7397 61.8449 54.7397C64.1947 54.7397 66.0996 56.6479 66.0996 59.0027Z" fill="#0F2F3D"/>
<path d="M198.653 78.2135C198.653 80.2659 196.992 81.9298 194.943 81.9298C192.894 81.9298 191.233 80.2659 191.233 78.2135C191.233 76.1611 192.894 74.498 194.943 74.498C196.992 74.498 198.653 76.1611 198.653 78.2135Z" fill="#0F2F3D"/>
<path d="M185.55 79.0152C185.55 81.469 183.565 83.4576 181.115 83.4576C178.666 83.4576 176.681 81.469 176.681 79.0152C176.681 76.5623 178.666 74.5728 181.115 74.5728C183.565 74.5728 185.55 76.5623 185.55 79.0152Z" fill="#0F2F3D"/>
<path d="M171.903 80.0852C171.903 82.6286 169.844 84.6904 167.305 84.6904C164.766 84.6904 162.708 82.6286 162.708 80.0852C162.708 77.5418 164.766 75.48 167.305 75.48C169.844 75.48 171.903 77.5418 171.903 80.0852Z" fill="#0F2F3D"/>
<path d="M153.517 77.1689C155.864 77.1689 157.767 79.0752 157.767 81.4255C157.767 83.7766 155.864 85.6829 153.517 85.6829C151.17 85.6829 149.268 83.7766 149.268 81.4255C149.268 79.0743 151.17 77.1689 153.517 77.1689Z" fill="#0F2F3D"/>
<path d="M139.759 86.3534C137.931 86.3534 136.449 84.8689 136.449 83.0375C136.449 81.2061 137.931 79.7207 139.759 79.7207C141.588 79.7207 143.07 81.2052 143.07 83.0375C143.07 84.8679 141.588 86.3534 139.759 86.3534Z" fill="#0F2F3D"/>
<path d="M127.682 84.9216C127.682 85.8319 126.946 86.5699 126.037 86.5699C125.128 86.5699 124.392 85.8319 124.392 84.9216C124.392 84.0114 125.128 83.2734 126.037 83.2734C126.946 83.2734 127.682 84.0114 127.682 84.9216Z" fill="#0F2F3D"/>
<path d="M221.701 64.5006C221.701 65.7946 220.654 66.8434 219.362 66.8434C218.071 66.8434 217.023 65.7946 217.023 64.5006C217.023 63.2066 218.071 62.1577 219.362 62.1577C220.654 62.1577 221.701 63.2066 221.701 64.5006Z" fill="#0F2F3D"/>
<path d="M209.224 64.8326C209.224 66.8851 207.563 68.5489 205.514 68.5489C203.465 68.5489 201.804 66.8851 201.804 64.8326C201.804 62.7801 203.465 61.1162 205.514 61.1162C207.563 61.1162 209.224 62.7801 209.224 64.8326Z" fill="#0F2F3D"/>
<path d="M196.111 65.4297C196.111 67.8836 194.126 69.8722 191.676 69.8722C189.226 69.8722 187.241 67.8836 187.241 65.4297C187.241 62.9768 189.226 60.9873 191.676 60.9873C194.126 60.9873 196.111 62.9768 196.111 65.4297Z" fill="#0F2F3D"/>
<path d="M177.85 61.6899C180.389 61.6899 182.447 63.7516 182.447 66.2952C182.447 68.8387 180.389 70.9004 177.85 70.9004C175.311 70.9004 173.253 68.8387 173.253 66.2952C173.253 63.7516 175.311 61.6899 177.85 61.6899Z" fill="#0F2F3D"/>
<path d="M168.293 67.4289C168.293 69.7797 166.391 71.6854 164.044 71.6854C161.697 71.6854 159.795 69.7797 159.795 67.4289C159.795 65.0781 161.697 63.1724 164.044 63.1724C166.391 63.1724 168.293 65.0781 168.293 67.4289Z" fill="#0F2F3D"/>
<path d="M153.574 68.8325C153.574 70.6638 152.092 72.1483 150.264 72.1483C148.436 72.1483 146.954 70.6638 146.954 68.8325C146.954 67.0012 148.436 65.5166 150.264 65.5166C152.092 65.5166 153.574 67.0012 153.574 68.8325Z" fill="#0F2F3D"/>
<path d="M136.515 72.1554C135.606 72.1554 134.869 71.4182 134.869 70.5081C134.869 69.598 135.606 68.8599 136.515 68.8599C137.423 68.8599 138.159 69.598 138.159 70.5081C138.159 71.4182 137.423 72.1554 136.515 72.1554Z" fill="#0F2F3D"/>
<path d="M229.943 53.6498C228.745 53.6498 227.772 52.6768 227.772 51.4753C227.772 50.2747 228.745 49.3008 229.943 49.3008C231.142 49.3008 232.114 50.2738 232.114 51.4753C232.114 52.6759 231.143 53.6498 229.943 53.6498Z" fill="#0F2F3D"/>
<path d="M216.091 55.1317C214.147 55.1317 212.571 53.5529 212.571 51.6059C212.571 49.6589 214.147 48.0801 216.091 48.0801C218.035 48.0801 219.611 49.6589 219.611 51.6059C219.61 53.5529 218.035 55.1317 216.091 55.1317Z" fill="#0F2F3D"/>
<path d="M206.536 51.9998C206.536 54.3732 204.615 56.2971 202.246 56.2971C199.877 56.2971 197.956 54.3732 197.956 51.9999C197.956 49.6265 199.878 47.7026 202.246 47.7026C204.614 47.7026 206.536 49.6265 206.536 51.9998Z" fill="#0F2F3D"/>
<path d="M193.003 52.6615C193.003 55.2032 190.946 57.264 188.409 57.264C185.872 57.264 183.814 55.2032 183.814 52.6615C183.814 50.1198 185.872 48.0591 188.409 48.0591C190.946 48.0591 193.003 50.1198 193.003 52.6615Z" fill="#0F2F3D"/>
<path d="M174.588 49.1074C177.059 49.1074 179.062 51.1136 179.062 53.5896C179.062 56.0647 177.06 58.0709 174.588 58.0709C172.117 58.0709 170.114 56.0647 170.114 53.5896C170.114 51.1136 172.117 49.1074 174.588 49.1074Z" fill="#0F2F3D"/>
<path d="M164.697 54.7873C164.697 56.9496 162.947 58.7025 160.788 58.7025C158.63 58.7025 156.88 56.9496 156.88 54.7873C156.88 52.625 158.63 50.8721 160.788 50.8721C162.947 50.8721 164.697 52.625 164.697 54.7873Z" fill="#0F2F3D"/>
<path d="M149.818 56.2553C149.818 57.8067 148.563 59.0643 147.014 59.0643C145.465 59.0643 144.21 57.8067 144.21 56.2553C144.21 54.7039 145.465 53.4463 147.014 53.4463C148.563 53.4463 149.818 54.7039 149.818 56.2553Z" fill="#0F2F3D"/>
<path d="M133.271 59.0221C132.705 59.0221 132.246 58.5624 132.246 57.9954C132.246 57.4284 132.705 56.9687 133.271 56.9687C133.837 56.9687 134.296 57.4284 134.296 57.9954C134.296 58.5624 133.837 59.0221 133.271 59.0221Z" fill="#0F2F3D"/>
<path d="M229.944 40.4357C228.89 40.4357 228.037 39.5811 228.037 38.5257C228.037 37.4713 228.89 36.6167 229.944 36.6167C230.996 36.6167 231.85 37.4713 231.85 38.5257C231.85 39.5811 230.996 40.4357 229.944 40.4357Z" fill="#0F2F3D"/>
<path d="M212.918 38.6571C212.918 36.9025 214.339 35.479 216.091 35.479C217.843 35.479 219.264 36.9025 219.264 38.6571C219.264 40.4126 217.843 41.8361 216.091 41.8361C214.339 41.8351 212.918 40.4126 212.918 38.6571Z" fill="#0F2F3D"/>
<path d="M206.242 39.0505C206.242 41.2611 204.453 43.0527 202.246 43.0527C200.039 43.0527 198.251 41.2611 198.251 39.0505C198.251 36.8399 200.04 35.0483 202.246 35.0483C204.452 35.0483 206.242 36.8408 206.242 39.0505Z" fill="#0F2F3D"/>
<path d="M192.871 39.7114C192.871 42.1797 190.874 44.1807 188.41 44.1807C185.946 44.1807 183.948 42.1797 183.948 39.7114C183.948 37.2431 185.946 35.2422 188.41 35.2422C190.874 35.2422 192.871 37.2431 192.871 39.7114Z" fill="#0F2F3D"/>
<path d="M174.587 36.0171C177.137 36.0171 179.203 38.0871 179.203 40.6408C179.203 43.1936 177.137 45.2636 174.587 45.2636C172.039 45.2636 169.973 43.1936 169.973 40.6408C169.973 38.0871 172.039 36.0171 174.587 36.0171Z" fill="#0F2F3D"/>
<path d="M160.788 37.3804C163.246 37.3804 165.238 39.3764 165.238 41.8376C165.238 44.2988 163.245 46.2948 160.788 46.2948C158.331 46.2948 156.339 44.2998 156.339 41.8376C156.339 39.3754 158.33 37.3804 160.788 37.3804Z" fill="#0F2F3D"/>
<path d="M150.979 43.3052C150.979 45.4982 149.204 47.2759 147.015 47.2759C144.825 47.2759 143.051 45.4982 143.051 43.3052C143.051 41.1122 144.825 39.3345 147.015 39.3345C149.204 39.3345 150.979 41.1122 150.979 43.3052Z" fill="#0F2F3D"/>
<path d="M133.272 41.9282C134.99 41.9282 136.384 43.3239 136.384 45.0461C136.384 46.7683 134.991 48.1641 133.272 48.1641C131.552 48.1641 130.159 46.7683 130.159 45.0461C130.159 43.3239 131.552 41.9282 133.272 41.9282Z" fill="#0F2F3D"/>
<path d="M121.375 47.061C121.375 48.0609 120.565 48.872 119.567 48.872C118.569 48.872 117.759 48.0618 117.759 47.061C117.759 46.0602 118.569 45.25 119.567 45.25C120.565 45.25 121.375 46.0602 121.375 47.061Z" fill="#0F2F3D"/>
<path d="M242.217 25.6543C242.217 26.5913 241.459 27.3506 240.523 27.3506C239.588 27.3506 238.829 26.5913 238.829 25.6543C238.829 24.7174 239.588 23.958 240.523 23.958C241.459 23.958 242.217 24.7174 242.217 25.6543Z" fill="#0F2F3D"/>
<path d="M229.546 25.5838C229.546 27.175 228.259 28.465 226.67 28.465C225.082 28.465 223.794 27.175 223.794 25.5838C223.794 23.9926 225.082 22.7026 226.67 22.7026C228.259 22.7026 229.546 23.9926 229.546 25.5838Z" fill="#0F2F3D"/>
<path d="M209.111 25.7774C209.111 23.725 210.772 22.061 212.821 22.061C214.87 22.061 216.531 23.7241 216.531 25.7774C216.531 27.8298 214.871 29.4928 212.821 29.4928C210.772 29.4928 209.111 27.8298 209.111 25.7774Z" fill="#0F2F3D"/>
<path d="M203.232 26.2342C203.232 28.5882 201.327 30.4972 198.976 30.4972C196.627 30.4972 194.722 28.5891 194.722 26.2342C194.722 23.8803 196.627 21.9722 198.976 21.9722C201.326 21.9722 203.232 23.8803 203.232 26.2342Z" fill="#0F2F3D"/>
<path d="M189.691 26.9585C189.691 29.4752 187.654 31.5156 185.142 31.5156C182.63 31.5156 180.593 29.4752 180.593 26.9585C180.593 24.4417 182.63 22.4014 185.142 22.4014C187.654 22.4014 189.691 24.4408 189.691 26.9585Z" fill="#0F2F3D"/>
<path d="M175.924 27.9495C175.924 30.4929 173.866 32.5547 171.327 32.5547C168.788 32.5547 166.729 30.4929 166.729 27.9495C166.729 25.4061 168.788 23.3442 171.327 23.3442C173.866 23.3442 175.924 25.4061 175.924 27.9495Z" fill="#0F2F3D"/>
<path d="M157.532 24.771C159.979 24.771 161.964 26.7587 161.964 29.2107C161.964 31.6627 159.979 33.6503 157.532 33.6503C155.084 33.6503 153.1 31.6627 153.1 29.2107C153.1 26.7587 155.085 24.771 157.532 24.771Z" fill="#0F2F3D"/>
<path d="M139.759 30.7433C139.759 28.5272 141.552 26.731 143.764 26.731C145.977 26.731 147.77 28.5272 147.77 30.7433C147.77 32.9594 145.977 34.7556 143.764 34.7556C141.552 34.7556 139.759 32.9594 139.759 30.7433Z" fill="#0F2F3D"/>
<path d="M133.341 32.5488C133.341 34.3801 131.859 35.8647 130.031 35.8647C128.203 35.8647 126.721 34.3801 126.721 32.5488C126.721 30.7175 128.203 29.2329 130.031 29.2329C131.859 29.2329 133.341 30.7175 133.341 32.5488Z" fill="#0F2F3D"/>
<path d="M118.639 34.6271C118.639 35.9011 117.608 36.9338 116.336 36.9338C115.064 36.9338 114.033 35.9011 114.033 34.6271C114.033 33.3531 115.064 32.3203 116.336 32.3203C117.608 32.3203 118.639 33.3531 118.639 34.6271Z" fill="#0F2F3D"/>
<path d="M103.548 36.9815C103.548 37.4596 103.161 37.8472 102.684 37.8472C102.206 37.8472 101.819 37.4596 101.819 36.9815C101.819 36.5033 102.206 36.1157 102.684 36.1157C103.161 36.1157 103.548 36.5033 103.548 36.9815Z" fill="#0F2F3D"/>
<path d="M97.5045 25.8265C97.5045 28.1805 95.5997 30.0895 93.2489 30.0895C90.899 30.0895 88.9941 28.1814 88.9941 25.8265C88.9941 23.4726 90.899 21.5645 93.2489 21.5645C95.5997 21.5645 97.5045 23.4726 97.5045 25.8265Z" fill="#0F2F3D"/>
<path d="M243.048 12.7055C243.048 14.1021 241.918 15.2343 240.523 15.2343C239.129 15.2343 237.999 14.1021 237.999 12.7055C237.999 11.3089 239.129 10.1768 240.523 10.1768C241.918 10.1768 243.048 11.3089 243.048 12.7055Z" fill="#0F2F3D"/>
<path d="M230.597 12.6349C230.597 14.8074 228.839 16.5686 226.67 16.5686C224.501 16.5686 222.743 14.8074 222.743 12.6349C222.743 10.4623 224.501 8.70117 226.67 8.70117C228.839 8.70117 230.597 10.4623 230.597 12.6349Z" fill="#0F2F3D"/>
<path d="M217.37 12.8286C217.37 15.3453 215.333 17.3857 212.821 17.3857C210.308 17.3857 208.271 15.3453 208.271 12.8286C208.271 10.3119 210.308 8.27148 212.821 8.27148C215.333 8.27148 217.37 10.3119 217.37 12.8286Z" fill="#0F2F3D"/>
<path d="M194.468 13.2845C194.468 10.79 196.486 8.76807 198.976 8.76807C201.467 8.76807 203.485 10.79 203.485 13.2845C203.485 15.779 201.467 17.8009 198.976 17.8009C196.486 17.8009 194.468 15.779 194.468 13.2845Z" fill="#0F2F3D"/>
<path d="M188.951 14.0092C188.951 16.1163 187.246 17.8245 185.143 17.8245C183.039 17.8245 181.334 16.1163 181.334 14.0092C181.334 11.902 183.039 10.1938 185.143 10.1938C187.246 10.1938 188.951 11.902 188.951 14.0092Z" fill="#0F2F3D"/>
<path d="M173.629 15.0011C173.629 16.2751 172.598 17.3079 171.326 17.3079C170.054 17.3079 169.023 16.2751 169.023 15.0011C169.023 13.7271 170.054 12.6943 171.326 12.6943C172.598 12.6943 173.629 13.7271 173.629 15.0011Z" fill="#0F2F3D"/>
<path d="M97.8013 12.8773C97.8013 15.3959 95.7626 17.4372 93.2493 17.4372C90.736 17.4372 88.6973 15.3949 88.6973 12.8773C88.6973 10.3596 90.7351 8.31738 93.2493 8.31738C95.7635 8.31738 97.8013 10.3587 97.8013 12.8773Z" fill="#0F2F3D"/>
<path d="M81.2295 17.4023L81.2295 13.9995C81.693 14.4213 81.9894 15.0234 81.9894 15.7004C81.9894 16.3775 81.693 16.9805 81.2295 17.4023Z" fill="#0F2F3D"/>
<path d="M202.363 0.369417C202.363 2.66601 200.504 4.5279 198.212 4.5279C195.919 4.5279 194.061 2.66602 194.061 0.369418C194.061 -1.92718 195.919 -3.78906 198.212 -3.78906C200.504 -3.78906 202.363 -1.92718 202.363 0.369417Z" fill="#0F2F3D"/>
<path d="M184.38 -3.15479C186.73 -3.15479 188.635 -1.24668 188.635 1.10819C188.635 3.46306 186.731 5.37026 184.38 5.37026C182.029 5.37026 180.125 3.46213 180.125 1.10819C180.125 -1.24575 182.029 -3.15479 184.38 -3.15479Z" fill="#0F2F3D"/>
<path d="M171.138 2.10166C171.138 2.33255 170.952 2.51972 170.721 2.51972C170.491 2.51972 170.304 2.33255 170.304 2.10166C170.304 1.87077 170.491 1.68359 170.721 1.68359C170.952 1.68359 171.138 1.87077 171.138 2.10166Z" fill="#0F2F3D"/>
<path d="M309.481 99.4715C309.481 101.826 307.576 103.735 305.225 103.735C302.875 103.735 300.97 101.826 300.97 99.4715C300.97 97.1171 302.875 95.2085 305.225 95.2085C307.576 95.2085 309.481 97.1171 309.481 99.4715Z" fill="#0F2F3D"/>
<path d="M309.377 86.5222C309.377 88.8189 307.518 90.6807 305.226 90.6807C302.933 90.6807 301.074 88.8189 301.074 86.5222C301.074 84.2256 302.933 82.3638 305.226 82.3638C307.518 82.3638 309.377 84.2256 309.377 86.5222Z" fill="#0F2F3D"/>
<path d="M291.731 79.1177C294.081 79.1177 295.986 81.0258 295.986 83.3807C295.986 85.7346 294.081 87.6427 291.731 87.6427C289.381 87.6427 287.476 85.7346 287.476 83.3807C287.476 81.0267 289.381 79.1177 291.731 79.1177Z" fill="#0F2F3D"/>
<path d="M278.34 80.9304C278.109 80.9304 277.923 80.7436 277.923 80.5123C277.923 80.2811 278.109 80.0942 278.34 80.0942C278.571 80.0942 278.758 80.2811 278.758 80.5123C278.758 80.7436 278.57 80.9304 278.34 80.9304Z" fill="#0F2F3D"/>
<path d="M308.935 73.5733C308.935 75.6258 307.274 77.2897 305.225 77.2897C303.176 77.2897 301.515 75.6258 301.515 73.5733C301.515 71.5208 303.176 69.8569 305.225 69.8569C307.274 69.8569 308.935 71.5208 308.935 73.5733Z" fill="#0F2F3D"/>
<path d="M291.731 65.8174C294.275 65.8174 296.338 67.8837 296.338 70.4328C296.338 72.9809 294.275 75.0472 291.731 75.0472C289.187 75.0472 287.124 72.9809 287.124 70.4328C287.124 67.8837 289.187 65.8174 291.731 65.8174Z" fill="#0F2F3D"/>
<path d="M274.875 67.5321C274.875 65.7008 276.357 64.2153 278.186 64.2153C280.015 64.2153 281.497 65.6998 281.497 67.5321C281.497 69.3644 280.014 70.8489 278.186 70.8489C276.358 70.8489 274.875 69.3644 274.875 67.5321Z" fill="#0F2F3D"/>
<path d="M308.935 60.6251C308.935 62.6775 307.274 64.3414 305.225 64.3414C303.176 64.3414 301.515 62.6775 301.515 60.6251C301.515 58.5726 303.176 56.9087 305.225 56.9087C307.274 56.9087 308.935 58.5726 308.935 60.6251Z" fill="#0F2F3D"/>
<path d="M291.731 52.8682C294.275 52.8682 296.338 54.9344 296.338 57.4835C296.338 60.0317 294.275 62.098 291.731 62.098C289.187 62.098 287.124 60.0317 287.124 57.4835C287.124 54.9344 289.187 52.8682 291.731 52.8682Z" fill="#0F2F3D"/>
<path d="M278.186 51.2671C280.014 51.2671 281.497 52.7516 281.497 54.5839C281.497 56.4162 280.014 57.9007 278.186 57.9007C276.358 57.9007 274.875 56.4162 274.875 54.5839C274.875 52.7516 276.358 51.2671 278.186 51.2671Z" fill="#0F2F3D"/>
<path d="M308.935 47.6754C308.935 49.7278 307.274 51.3917 305.225 51.3917C303.176 51.3917 301.515 49.7278 301.515 47.6754C301.515 45.6229 303.176 43.959 305.225 43.959C307.274 43.959 308.935 45.6229 308.935 47.6754Z" fill="#0F2F3D"/>
<path d="M287.124 44.5348C287.124 41.9857 289.187 39.9194 291.731 39.9194C294.275 39.9194 296.338 41.9857 296.338 44.5348C296.338 47.083 294.275 49.1493 291.731 49.1493C289.187 49.1493 287.124 47.0839 287.124 44.5348Z" fill="#0F2F3D"/>
<path d="M274.875 41.6332C274.875 39.8018 276.357 38.3164 278.186 38.3164C280.015 38.3164 281.497 39.8009 281.497 41.6332C281.497 43.4655 280.014 44.95 278.186 44.95C276.358 44.95 274.875 43.4655 274.875 41.6332Z" fill="#0F2F3D"/>
<path d="M325.723 42.7442C324.201 42.7442 322.968 41.5084 322.968 39.9842C322.968 38.4608 324.201 37.2251 325.723 37.2251C327.245 37.2251 328.477 38.4608 328.477 39.9842C328.477 41.5084 327.245 42.7442 325.723 42.7442Z" fill="#0F2F3D"/>
<path d="M308.17 36.4799C308.17 34.1852 310.027 32.3242 312.318 32.3242C314.609 32.3242 316.467 34.1842 316.467 36.4799C316.467 38.7747 314.609 40.6347 312.318 40.6347C310.027 40.6347 308.17 38.7747 308.17 36.4799Z" fill="#0F2F3D"/>
<path d="M294.25 33.2121C294.25 30.663 296.313 28.5967 298.857 28.5967C301.402 28.5967 303.465 30.663 303.465 33.2121C303.465 35.7612 301.402 37.8274 298.857 37.8274C296.313 37.8274 294.25 35.7612 294.25 33.2121Z" fill="#0F2F3D"/>
<path d="M281.09 30.1847C281.09 27.8336 282.993 25.9282 285.339 25.9282C287.686 25.9282 289.589 27.8336 289.589 30.1847C289.589 32.5359 287.686 34.4413 285.339 34.4413C282.992 34.4413 281.09 32.5359 281.09 30.1847Z" fill="#0F2F3D"/>
<path d="M274.738 27.3983C274.738 29.0421 273.408 30.3747 271.767 30.3747C270.126 30.3747 268.796 29.0421 268.796 27.3983C268.796 25.7545 270.126 24.4219 271.767 24.4219C273.408 24.4219 274.738 25.7545 274.738 27.3983Z" fill="#0F2F3D"/>
<path d="M258.15 25.2742C257.92 25.2742 257.733 25.0874 257.733 24.8571C257.733 24.6268 257.92 24.4399 258.15 24.4399C258.381 24.4399 258.567 24.6268 258.567 24.8571C258.567 25.0874 258.381 25.2742 258.15 25.2742Z" fill="#0F2F3D"/>
<path d="M333.578 29.8717C333.578 28.5786 334.625 27.5288 335.917 27.5288C337.209 27.5288 338.256 28.5777 338.256 29.8717C338.256 31.1656 337.209 32.2145 335.917 32.2145C334.625 32.2145 333.578 31.1656 333.578 29.8717Z" fill="#0F2F3D"/>
<path d="M326.271 26.1871C326.271 28.2396 324.61 29.9034 322.562 29.9034C320.513 29.9034 318.852 28.2396 318.852 26.1871C318.852 24.1346 320.513 22.4707 322.562 22.4707C324.61 22.4707 326.271 24.1346 326.271 26.1871Z" fill="#0F2F3D"/>
<path d="M309.146 18.2954C311.595 18.2954 313.58 20.284 313.58 22.7378C313.58 25.1917 311.595 27.1803 309.146 27.1803C306.697 27.1803 304.711 25.1917 304.711 22.7378C304.711 20.284 306.696 18.2954 309.146 18.2954Z" fill="#0F2F3D"/>
<path d="M300.266 19.5276C300.266 22.071 298.208 24.1328 295.669 24.1328C293.13 24.1328 291.071 22.071 291.071 19.5276C291.071 16.9842 293.13 14.9224 295.669 14.9224C298.208 14.9224 300.266 16.9842 300.266 19.5276Z" fill="#0F2F3D"/>
<path d="M286.387 16.5563C286.387 18.9072 284.485 20.8129 282.138 20.8129C279.791 20.8129 277.889 18.9072 277.889 16.5563C277.889 14.2055 279.791 12.2998 282.138 12.2998C284.485 12.2998 286.387 14.2055 286.387 16.5563Z" fill="#0F2F3D"/>
<path d="M265.245 13.8266C265.245 11.9952 266.727 10.5107 268.555 10.5107C270.383 10.5107 271.866 11.9952 271.866 13.8266C271.866 15.658 270.384 17.1434 268.555 17.1434C266.728 17.1434 265.245 15.6589 265.245 13.8266Z" fill="#0F2F3D"/>
<path d="M256.573 11.3425C256.573 12.2527 255.836 12.9898 254.928 12.9898C254.019 12.9898 253.282 12.2527 253.282 11.3425C253.282 10.4324 254.019 9.69434 254.928 9.69434C255.836 9.69434 256.573 10.4324 256.573 11.3425Z" fill="#0F2F3D"/>
<path d="M335.918 19.9435C334.252 19.9435 332.902 18.5912 332.902 16.9227C332.902 15.2541 334.252 13.9019 335.918 13.9019C337.584 13.9019 338.934 15.2541 338.934 16.9227C338.934 18.5912 337.583 19.9435 335.918 19.9435Z" fill="#0F2F3D"/>
<path d="M318.197 13.2374C318.197 10.8233 320.151 8.86523 322.562 8.86523C324.973 8.86523 326.926 10.8224 326.926 13.2374C326.926 15.6523 324.973 17.6086 322.562 17.6086C320.151 17.6086 318.197 15.6514 318.197 13.2374Z" fill="#0F2F3D"/>
<path d="M304.581 9.78876C304.581 7.2637 306.624 5.21777 309.144 5.21777C311.665 5.21777 313.708 7.2637 313.708 9.78876C313.708 12.3138 311.665 14.3607 309.144 14.3607C306.624 14.3607 304.581 12.3138 304.581 9.78876Z" fill="#0F2F3D"/>
<path d="M292.023 6.5784C292.023 4.56113 293.656 2.92676 295.669 2.92676C297.682 2.92676 299.314 4.56206 299.314 6.5784C299.314 8.59474 297.682 10.2309 295.669 10.2309C293.656 10.2309 292.023 8.59475 292.023 6.5784Z" fill="#0F2F3D"/>
<path d="M283.468 3.60676C283.468 4.34285 282.872 4.93956 282.137 4.93956C281.402 4.93956 280.807 4.34285 280.807 3.60676C280.807 2.87066 281.402 2.27393 282.137 2.27393C282.872 2.27393 283.468 2.87066 283.468 3.60676Z" fill="#0F2F3D"/>
<path d="M321.571 1.13797C321.571 -1.15862 323.43 -3.02051 325.723 -3.02051C328.015 -3.02051 329.874 -1.15863 329.874 1.13797C329.874 3.43457 328.015 5.29645 325.723 5.29645C323.43 5.29645 321.571 3.43457 321.571 1.13797Z" fill="#0F2F3D"/>
<path d="M316.574 -2.36688C316.574 -0.0129383 314.669 1.89519 312.319 1.89519C309.969 1.89519 308.063 -0.0129379 308.063 -2.36688C308.063 -4.72082 309.968 -6.62988 312.319 -6.62988C314.668 -6.62988 316.574 -4.72175 316.574 -2.36688Z" fill="#0F2F3D"/>
</g>
<defs>
<clipPath id="clip0_160_10483">
<rect width="335" height="175" fill="white"/>
</clipPath>
</defs>
</svg>
