<svg width="140" height="140" viewBox="0 0 140 140" fill="none" xmlns="http://www.w3.org/2000/svg">
<path d="M61.7925 134.631C86.4919 134.631 106.515 130.887 106.515 126.268C106.515 121.649 86.4919 117.904 61.7925 117.904C37.0931 117.904 17.0703 121.649 17.0703 126.268C17.0703 130.887 37.0931 134.631 61.7925 134.631Z" fill="#A4AFBF" fill-opacity="0.7"/>
<path d="M30.6582 16.2734C29.2971 24.4649 29.7203 37.1703 30.1664 43.1736L44.0063 33.0918C43.0112 22.2653 39.7742 14.8757 37.5324 11.3242C36.9148 10.3389 35.6108 10.1671 34.6501 10.8201L34.101 11.1982C32.3282 12.3782 31.0128 14.154 30.6582 16.2734Z" fill="url(#paint0_linear_1992_1319)"/>
<path d="M41.6028 20.6374C35.1518 13.9925 31.0799 20.2937 29.8789 24.1889C30.3936 16.4557 29.8789 14.7372 33.539 11.5867C36.7302 8.83706 37.7711 11.5867 38.1714 12.2168C38.5374 12.8011 40.6877 17.3722 41.6028 20.6374Z" fill="#FF9100"/>
<path fill-rule="evenodd" clip-rule="evenodd" d="M94.8347 44.7766C104.431 35.68 119.14 18.9648 122.88 9.3183C123.224 8.42469 122.869 7.43942 122.103 6.87804L121.874 6.71765C119.701 5.12518 116.784 4.95333 114.451 6.29375C105.106 11.6784 92.4442 19.4918 79.2106 32.1743C73.9262 29.8257 67.9442 28.4967 61.6191 28.4967C40.0472 28.4967 22.5586 43.883 22.5586 62.8666C22.5586 81.8502 40.0472 97.2365 61.6191 97.2365C83.1909 97.2365 100.68 81.8502 100.68 62.8666C100.68 56.2332 98.5406 50.0352 94.8347 44.7766Z" fill="white"/>
<path d="M71.5948 94.0866L72.9673 88.6103C73.1275 87.9458 73.585 87.3959 74.2026 87.098L78.9379 84.8411C79.8873 84.3943 81.0196 84.6348 81.683 85.4483L95.4085 102.06C96.1634 102.965 96.0948 104.306 95.2598 105.142L94.5964 105.807C93.5213 106.884 91.8628 107.124 90.5245 106.391L72.7271 96.6643C71.8121 96.1602 71.3432 95.1062 71.5948 94.0866Z" fill="white"/>
<path d="M90.5378 106.379L79.3516 100.262L90.046 95.5645L95.4104 102.06C96.1653 102.965 96.0967 104.306 95.2617 105.142L94.6097 105.795C93.5231 106.872 91.8761 107.113 90.5378 106.379Z" fill="#F29111"/>
<path d="M29.9719 84.6227L28.3477 82.4917C28.016 82.0564 27.3412 82.1595 27.1582 82.675L22.1255 96.5834C21.9654 97.0416 21.9768 97.5343 22.1827 97.9811L23.0977 99.9745C23.315 100.444 23.9556 100.513 24.2758 100.101L29.7431 92.7454C29.9833 92.4246 30.1092 92.0465 30.1092 91.6456V85.0351C30.1092 84.8976 30.0634 84.7487 29.9719 84.6227Z" fill="white"/>
<path d="M24.2759 100.101L27.021 96.4231L23.99 91.4395L22.1256 96.5949C21.9655 97.0532 21.9883 97.5458 22.1828 97.9812L23.0978 99.9746C23.3266 100.444 23.9671 100.513 24.2759 100.101Z" fill="#FF9100"/>
<path d="M122.838 9.30774C120.985 13.3748 117.542 20.0197 110.233 28.5434C110.233 28.5434 112.932 18.1179 110.462 15.9984C107.991 13.8789 97.1367 17.3159 97.1367 17.3159C101.449 14.3945 109.398 8.45995 115.266 5.89366C117.245 5.02296 119.475 5.34375 121.408 6.29465L121.808 6.48941C122.849 7.00496 123.318 8.24227 122.838 9.30774Z" fill="#FF9100"/>
<path d="M77.2332 64.7682C77.2332 77.0153 67.0992 89.2281 51.7838 89.2281C36.4684 89.2281 24.0469 77.0039 24.0469 64.7682C24.0469 52.5325 35.3247 42.5996 50.64 42.5996C65.9554 42.5996 77.2332 52.521 77.2332 64.7682Z" fill="#35373A"/>
<path d="M122.94 9.18158C119.177 19.4238 104.308 36.3338 94.9056 44.7773L92.332 41.4549L122.414 8.88371C122.654 8.60875 123.066 8.83788 122.94 9.18158Z" fill="#E9E6E6"/>
<mask id="mask0_1992_1319" style="mask-type:luminance" maskUnits="userSpaceOnUse" x="29" y="57" width="15" height="11">
<path d="M43.6852 67.7372C43.6852 67.7372 40.4254 64.0138 36.3992 64.0138C32.3731 64.0138 29.1133 68.436 29.1133 67.7372C29.1133 62.1005 32.3731 57.5293 36.3992 57.5293C40.4254 57.5293 43.6852 62.1005 43.6852 67.7372Z" fill="white"/>
</mask>
<g mask="url(#mask0_1992_1319)">
<path d="M30.4424 57.8034C30.7709 57.8034 31.0372 57.4854 31.0372 57.0931C31.0372 56.7008 30.7709 56.3828 30.4424 56.3828C30.1139 56.3828 29.8477 56.7008 29.8477 57.0931C29.8477 57.4854 30.1139 57.8034 30.4424 57.8034Z" fill="#F29111"/>
<path d="M30.4424 59.5905C30.7709 59.5905 31.0372 59.2725 31.0372 58.8802C31.0372 58.4879 30.7709 58.1699 30.4424 58.1699C30.1139 58.1699 29.8477 58.4879 29.8477 58.8802C29.8477 59.2725 30.1139 59.5905 30.4424 59.5905Z" fill="#F29111"/>
<path d="M30.4424 61.3777C30.7709 61.3777 31.0372 61.0596 31.0372 60.6673C31.0372 60.275 30.7709 59.957 30.4424 59.957C30.1139 59.957 29.8477 60.275 29.8477 60.6673C29.8477 61.0596 30.1139 61.3777 30.4424 61.3777Z" fill="#F29111"/>
<path d="M30.4424 63.1648C30.7709 63.1648 31.0372 62.8467 31.0372 62.4545C31.0372 62.0622 30.7709 61.7441 30.4424 61.7441C30.1139 61.7441 29.8477 62.0622 29.8477 62.4545C29.8477 62.8467 30.1139 63.1648 30.4424 63.1648Z" fill="#F29111"/>
<path d="M30.4424 64.9519C30.7709 64.9519 31.0372 64.6339 31.0372 64.2416C31.0372 63.8493 30.7709 63.5312 30.4424 63.5312C30.1139 63.5312 29.8477 63.8493 29.8477 64.2416C29.8477 64.6339 30.1139 64.9519 30.4424 64.9519Z" fill="#F29111"/>
<path d="M31.9268 57.8034C32.2553 57.8034 32.5216 57.4854 32.5216 57.0931C32.5216 56.7008 32.2553 56.3828 31.9268 56.3828C31.5983 56.3828 31.332 56.7008 31.332 57.0931C31.332 57.4854 31.5983 57.8034 31.9268 57.8034Z" fill="#F29111"/>
<path d="M31.9268 59.5905C32.2553 59.5905 32.5216 59.2725 32.5216 58.8802C32.5216 58.4879 32.2553 58.1699 31.9268 58.1699C31.5983 58.1699 31.332 58.4879 31.332 58.8802C31.332 59.2725 31.5983 59.5905 31.9268 59.5905Z" fill="#F29111"/>
<path d="M31.9268 61.3777C32.2553 61.3777 32.5216 61.0596 32.5216 60.6673C32.5216 60.275 32.2553 59.957 31.9268 59.957C31.5983 59.957 31.332 60.275 31.332 60.6673C31.332 61.0596 31.5983 61.3777 31.9268 61.3777Z" fill="#F29111"/>
<path d="M31.9268 63.1648C32.2553 63.1648 32.5216 62.8467 32.5216 62.4545C32.5216 62.0622 32.2553 61.7441 31.9268 61.7441C31.5983 61.7441 31.332 62.0622 31.332 62.4545C31.332 62.8467 31.5983 63.1648 31.9268 63.1648Z" fill="#F29111"/>
<path d="M31.9268 64.9519C32.2553 64.9519 32.5216 64.6339 32.5216 64.2416C32.5216 63.8493 32.2553 63.5312 31.9268 63.5312C31.5983 63.5312 31.332 63.8493 31.332 64.2416C31.332 64.6339 31.5983 64.9519 31.9268 64.9519Z" fill="#F29111"/>
<path d="M28.9541 57.8034C29.2826 57.8034 29.5489 57.4854 29.5489 57.0931C29.5489 56.7008 29.2826 56.3828 28.9541 56.3828C28.6257 56.3828 28.3594 56.7008 28.3594 57.0931C28.3594 57.4854 28.6257 57.8034 28.9541 57.8034Z" fill="#F29111"/>
<path d="M28.9541 59.5905C29.2826 59.5905 29.5489 59.2725 29.5489 58.8802C29.5489 58.4879 29.2826 58.1699 28.9541 58.1699C28.6257 58.1699 28.3594 58.4879 28.3594 58.8802C28.3594 59.2725 28.6257 59.5905 28.9541 59.5905Z" fill="#F29111"/>
<path d="M28.9541 61.3777C29.2826 61.3777 29.5489 61.0596 29.5489 60.6673C29.5489 60.275 29.2826 59.957 28.9541 59.957C28.6257 59.957 28.3594 60.275 28.3594 60.6673C28.3594 61.0596 28.6257 61.3777 28.9541 61.3777Z" fill="#F29111"/>
<path d="M28.9541 63.1648C29.2826 63.1648 29.5489 62.8467 29.5489 62.4545C29.5489 62.0622 29.2826 61.7441 28.9541 61.7441C28.6257 61.7441 28.3594 62.0622 28.3594 62.4545C28.3594 62.8467 28.6257 63.1648 28.9541 63.1648Z" fill="#F29111"/>
<path d="M28.9541 64.9519C29.2826 64.9519 29.5489 64.6339 29.5489 64.2416C29.5489 63.8493 29.2826 63.5312 28.9541 63.5312C28.6257 63.5312 28.3594 63.8493 28.3594 64.2416C28.3594 64.6339 28.6257 64.9519 28.9541 64.9519Z" fill="#F29111"/>
<path d="M33.4151 57.8034C33.7436 57.8034 34.0099 57.4854 34.0099 57.0931C34.0099 56.7008 33.7436 56.3828 33.4151 56.3828C33.0866 56.3828 32.8203 56.7008 32.8203 57.0931C32.8203 57.4854 33.0866 57.8034 33.4151 57.8034Z" fill="#F29111"/>
<path d="M33.4151 59.5905C33.7436 59.5905 34.0099 59.2725 34.0099 58.8802C34.0099 58.4879 33.7436 58.1699 33.4151 58.1699C33.0866 58.1699 32.8203 58.4879 32.8203 58.8802C32.8203 59.2725 33.0866 59.5905 33.4151 59.5905Z" fill="#F29111"/>
<path d="M33.4151 61.3777C33.7436 61.3777 34.0099 61.0596 34.0099 60.6673C34.0099 60.275 33.7436 59.957 33.4151 59.957C33.0866 59.957 32.8203 60.275 32.8203 60.6673C32.8203 61.0596 33.0866 61.3777 33.4151 61.3777Z" fill="#F29111"/>
<path d="M33.4151 63.1648C33.7436 63.1648 34.0099 62.8467 34.0099 62.4545C34.0099 62.0622 33.7436 61.7441 33.4151 61.7441C33.0866 61.7441 32.8203 62.0622 32.8203 62.4545C32.8203 62.8467 33.0866 63.1648 33.4151 63.1648Z" fill="#F29111"/>
<path d="M33.4151 64.9519C33.7436 64.9519 34.0099 64.6339 34.0099 64.2416C34.0099 63.8493 33.7436 63.5312 33.4151 63.5312C33.0866 63.5312 32.8203 63.8493 32.8203 64.2416C32.8203 64.6339 33.0866 64.9519 33.4151 64.9519Z" fill="#F29111"/>
<path d="M36.3877 57.8034C36.7162 57.8034 36.9825 57.4854 36.9825 57.0931C36.9825 56.7008 36.7162 56.3828 36.3877 56.3828C36.0593 56.3828 35.793 56.7008 35.793 57.0931C35.793 57.4854 36.0593 57.8034 36.3877 57.8034Z" fill="#F29111"/>
<path d="M36.3877 59.5905C36.7162 59.5905 36.9825 59.2725 36.9825 58.8802C36.9825 58.4879 36.7162 58.1699 36.3877 58.1699C36.0593 58.1699 35.793 58.4879 35.793 58.8802C35.793 59.2725 36.0593 59.5905 36.3877 59.5905Z" fill="#F29111"/>
<path d="M36.3877 61.3777C36.7162 61.3777 36.9825 61.0596 36.9825 60.6673C36.9825 60.275 36.7162 59.957 36.3877 59.957C36.0593 59.957 35.793 60.275 35.793 60.6673C35.793 61.0596 36.0593 61.3777 36.3877 61.3777Z" fill="#F29111"/>
<path d="M36.3877 63.1648C36.7162 63.1648 36.9825 62.8467 36.9825 62.4545C36.9825 62.0622 36.7162 61.7441 36.3877 61.7441C36.0593 61.7441 35.793 62.0622 35.793 62.4545C35.793 62.8467 36.0593 63.1648 36.3877 63.1648Z" fill="#F29111"/>
<path d="M36.3877 64.9519C36.7162 64.9519 36.9825 64.6339 36.9825 64.2416C36.9825 63.8493 36.7162 63.5312 36.3877 63.5312C36.0593 63.5312 35.793 63.8493 35.793 64.2416C35.793 64.6339 36.0593 64.9519 36.3877 64.9519Z" fill="#F29111"/>
<path d="M40.8487 57.8034C41.1772 57.8034 41.4435 57.4854 41.4435 57.0931C41.4435 56.7008 41.1772 56.3828 40.8487 56.3828C40.5202 56.3828 40.2539 56.7008 40.2539 57.0931C40.2539 57.4854 40.5202 57.8034 40.8487 57.8034Z" fill="#F29111"/>
<path d="M40.8487 59.5905C41.1772 59.5905 41.4435 59.2725 41.4435 58.8802C41.4435 58.4879 41.1772 58.1699 40.8487 58.1699C40.5202 58.1699 40.2539 58.4879 40.2539 58.8802C40.2539 59.2725 40.5202 59.5905 40.8487 59.5905Z" fill="#F29111"/>
<path d="M40.8487 61.3777C41.1772 61.3777 41.4435 61.0596 41.4435 60.6673C41.4435 60.275 41.1772 59.957 40.8487 59.957C40.5202 59.957 40.2539 60.275 40.2539 60.6673C40.2539 61.0596 40.5202 61.3777 40.8487 61.3777Z" fill="#F29111"/>
<path d="M40.8487 63.1648C41.1772 63.1648 41.4435 62.8467 41.4435 62.4545C41.4435 62.0622 41.1772 61.7441 40.8487 61.7441C40.5202 61.7441 40.2539 62.0622 40.2539 62.4545C40.2539 62.8467 40.5202 63.1648 40.8487 63.1648Z" fill="#F29111"/>
<path d="M40.8487 64.9519C41.1772 64.9519 41.4435 64.6339 41.4435 64.2416C41.4435 63.8493 41.1772 63.5312 40.8487 63.5312C40.5202 63.5312 40.2539 63.8493 40.2539 64.2416C40.2539 64.6339 40.5202 64.9519 40.8487 64.9519Z" fill="#F29111"/>
<path d="M37.876 57.8034C38.2045 57.8034 38.4708 57.4854 38.4708 57.0931C38.4708 56.7008 38.2045 56.3828 37.876 56.3828C37.5475 56.3828 37.2812 56.7008 37.2812 57.0931C37.2812 57.4854 37.5475 57.8034 37.876 57.8034Z" fill="#F29111"/>
<path d="M37.876 59.5905C38.2045 59.5905 38.4708 59.2725 38.4708 58.8802C38.4708 58.4879 38.2045 58.1699 37.876 58.1699C37.5475 58.1699 37.2812 58.4879 37.2812 58.8802C37.2812 59.2725 37.5475 59.5905 37.876 59.5905Z" fill="#F29111"/>
<path d="M37.876 61.3777C38.2045 61.3777 38.4708 61.0596 38.4708 60.6673C38.4708 60.275 38.2045 59.957 37.876 59.957C37.5475 59.957 37.2812 60.275 37.2812 60.6673C37.2812 61.0596 37.5475 61.3777 37.876 61.3777Z" fill="#F29111"/>
<path d="M37.876 63.1648C38.2045 63.1648 38.4708 62.8467 38.4708 62.4545C38.4708 62.0622 38.2045 61.7441 37.876 61.7441C37.5475 61.7441 37.2812 62.0622 37.2812 62.4545C37.2812 62.8467 37.5475 63.1648 37.876 63.1648Z" fill="#F29111"/>
<path d="M37.876 64.9519C38.2045 64.9519 38.4708 64.6339 38.4708 64.2416C38.4708 63.8493 38.2045 63.5312 37.876 63.5312C37.5475 63.5312 37.2812 63.8493 37.2812 64.2416C37.2812 64.6339 37.5475 64.9519 37.876 64.9519Z" fill="#F29111"/>
<path d="M42.3487 57.8034C42.6772 57.8034 42.9434 57.4854 42.9434 57.0931C42.9434 56.7008 42.6772 56.3828 42.3487 56.3828C42.0202 56.3828 41.7539 56.7008 41.7539 57.0931C41.7539 57.4854 42.0202 57.8034 42.3487 57.8034Z" fill="#F29111"/>
<path d="M42.3487 59.5905C42.6772 59.5905 42.9434 59.2725 42.9434 58.8802C42.9434 58.4879 42.6772 58.1699 42.3487 58.1699C42.0202 58.1699 41.7539 58.4879 41.7539 58.8802C41.7539 59.2725 42.0202 59.5905 42.3487 59.5905Z" fill="#F29111"/>
<path d="M42.3487 61.3777C42.6772 61.3777 42.9434 61.0596 42.9434 60.6673C42.9434 60.275 42.6772 59.957 42.3487 59.957C42.0202 59.957 41.7539 60.275 41.7539 60.6673C41.7539 61.0596 42.0202 61.3777 42.3487 61.3777Z" fill="#F29111"/>
<path d="M42.3487 63.1648C42.6772 63.1648 42.9434 62.8467 42.9434 62.4545C42.9434 62.0622 42.6772 61.7441 42.3487 61.7441C42.0202 61.7441 41.7539 62.0622 41.7539 62.4545C41.7539 62.8467 42.0202 63.1648 42.3487 63.1648Z" fill="#F29111"/>
<path d="M42.3487 64.9519C42.6772 64.9519 42.9434 64.6339 42.9434 64.2416C42.9434 63.8493 42.6772 63.5312 42.3487 63.5312C42.0202 63.5312 41.7539 63.8493 41.7539 64.2416C41.7539 64.6339 42.0202 64.9519 42.3487 64.9519Z" fill="#F29111"/>
<path d="M34.9034 57.8034C35.2318 57.8034 35.4981 57.4854 35.4981 57.0931C35.4981 56.7008 35.2318 56.3828 34.9034 56.3828C34.5749 56.3828 34.3086 56.7008 34.3086 57.0931C34.3086 57.4854 34.5749 57.8034 34.9034 57.8034Z" fill="#F29111"/>
<path d="M34.9034 59.5905C35.2318 59.5905 35.4981 59.2725 35.4981 58.8802C35.4981 58.4879 35.2318 58.1699 34.9034 58.1699C34.5749 58.1699 34.3086 58.4879 34.3086 58.8802C34.3086 59.2725 34.5749 59.5905 34.9034 59.5905Z" fill="#F29111"/>
<path d="M34.9034 61.3777C35.2318 61.3777 35.4981 61.0596 35.4981 60.6673C35.4981 60.275 35.2318 59.957 34.9034 59.957C34.5749 59.957 34.3086 60.275 34.3086 60.6673C34.3086 61.0596 34.5749 61.3777 34.9034 61.3777Z" fill="#F29111"/>
<path d="M34.9034 63.1648C35.2318 63.1648 35.4981 62.8467 35.4981 62.4545C35.4981 62.0622 35.2318 61.7441 34.9034 61.7441C34.5749 61.7441 34.3086 62.0622 34.3086 62.4545C34.3086 62.8467 34.5749 63.1648 34.9034 63.1648Z" fill="#F29111"/>
<path d="M34.9034 64.9519C35.2318 64.9519 35.4981 64.6339 35.4981 64.2416C35.4981 63.8493 35.2318 63.5312 34.9034 63.5312C34.5749 63.5312 34.3086 63.8493 34.3086 64.2416C34.3086 64.6339 34.5749 64.9519 34.9034 64.9519Z" fill="#F29111"/>
<path d="M39.3643 57.8034C39.6928 57.8034 39.9591 57.4854 39.9591 57.0931C39.9591 56.7008 39.6928 56.3828 39.3643 56.3828C39.0358 56.3828 38.7695 56.7008 38.7695 57.0931C38.7695 57.4854 39.0358 57.8034 39.3643 57.8034Z" fill="#F29111"/>
<path d="M39.3643 59.5905C39.6928 59.5905 39.9591 59.2725 39.9591 58.8802C39.9591 58.4879 39.6928 58.1699 39.3643 58.1699C39.0358 58.1699 38.7695 58.4879 38.7695 58.8802C38.7695 59.2725 39.0358 59.5905 39.3643 59.5905Z" fill="#F29111"/>
<path d="M39.3643 61.3777C39.6928 61.3777 39.9591 61.0596 39.9591 60.6673C39.9591 60.275 39.6928 59.957 39.3643 59.957C39.0358 59.957 38.7695 60.275 38.7695 60.6673C38.7695 61.0596 39.0358 61.3777 39.3643 61.3777Z" fill="#F29111"/>
<path d="M39.3643 63.1648C39.6928 63.1648 39.9591 62.8467 39.9591 62.4545C39.9591 62.0622 39.6928 61.7441 39.3643 61.7441C39.0358 61.7441 38.7695 62.0622 38.7695 62.4545C38.7695 62.8467 39.0358 63.1648 39.3643 63.1648Z" fill="#F29111"/>
<path d="M39.3643 64.9519C39.6928 64.9519 39.9591 64.6339 39.9591 64.2416C39.9591 63.8493 39.6928 63.5312 39.3643 63.5312C39.0358 63.5312 38.7695 63.8493 38.7695 64.2416C38.7695 64.6339 39.0358 64.9519 39.3643 64.9519Z" fill="#F29111"/>
<path d="M43.837 57.8034C44.1654 57.8034 44.4317 57.4854 44.4317 57.0931C44.4317 56.7008 44.1654 56.3828 43.837 56.3828C43.5085 56.3828 43.2422 56.7008 43.2422 57.0931C43.2422 57.4854 43.5085 57.8034 43.837 57.8034Z" fill="#F29111"/>
<path d="M43.837 59.5905C44.1654 59.5905 44.4317 59.2725 44.4317 58.8802C44.4317 58.4879 44.1654 58.1699 43.837 58.1699C43.5085 58.1699 43.2422 58.4879 43.2422 58.8802C43.2422 59.2725 43.5085 59.5905 43.837 59.5905Z" fill="#F29111"/>
<path d="M43.837 61.3777C44.1654 61.3777 44.4317 61.0596 44.4317 60.6673C44.4317 60.275 44.1654 59.957 43.837 59.957C43.5085 59.957 43.2422 60.275 43.2422 60.6673C43.2422 61.0596 43.5085 61.3777 43.837 61.3777Z" fill="#F29111"/>
<path d="M43.837 63.1648C44.1654 63.1648 44.4317 62.8467 44.4317 62.4545C44.4317 62.0622 44.1654 61.7441 43.837 61.7441C43.5085 61.7441 43.2422 62.0622 43.2422 62.4545C43.2422 62.8467 43.5085 63.1648 43.837 63.1648Z" fill="#F29111"/>
<path d="M43.837 64.9519C44.1654 64.9519 44.4317 64.6339 44.4317 64.2416C44.4317 63.8493 44.1654 63.5312 43.837 63.5312C43.5085 63.5312 43.2422 63.8493 43.2422 64.2416C43.2422 64.6339 43.5085 64.9519 43.837 64.9519Z" fill="#F29111"/>
<path d="M30.4424 66.739C30.7709 66.739 31.0372 66.421 31.0372 66.0287C31.0372 65.6364 30.7709 65.3184 30.4424 65.3184C30.1139 65.3184 29.8477 65.6364 29.8477 66.0287C29.8477 66.421 30.1139 66.739 30.4424 66.739Z" fill="#F29111"/>
<path d="M30.4424 68.5163C30.7709 68.5163 31.0372 68.1983 31.0372 67.806C31.0372 67.4137 30.7709 67.0957 30.4424 67.0957C30.1139 67.0957 29.8477 67.4137 29.8477 67.806C29.8477 68.1983 30.1139 68.5163 30.4424 68.5163Z" fill="#F29111"/>
<path d="M31.9268 66.739C32.2553 66.739 32.5216 66.421 32.5216 66.0287C32.5216 65.6364 32.2553 65.3184 31.9268 65.3184C31.5983 65.3184 31.332 65.6364 31.332 66.0287C31.332 66.421 31.5983 66.739 31.9268 66.739Z" fill="#F29111"/>
<path d="M31.9268 68.5163C32.2553 68.5163 32.5216 68.1983 32.5216 67.806C32.5216 67.4137 32.2553 67.0957 31.9268 67.0957C31.5983 67.0957 31.332 67.4137 31.332 67.806C31.332 68.1983 31.5983 68.5163 31.9268 68.5163Z" fill="#F29111"/>
<path d="M28.9541 66.739C29.2826 66.739 29.5489 66.421 29.5489 66.0287C29.5489 65.6364 29.2826 65.3184 28.9541 65.3184C28.6257 65.3184 28.3594 65.6364 28.3594 66.0287C28.3594 66.421 28.6257 66.739 28.9541 66.739Z" fill="#F29111"/>
<path d="M28.9541 68.5163C29.2826 68.5163 29.5489 68.1983 29.5489 67.806C29.5489 67.4137 29.2826 67.0957 28.9541 67.0957C28.6257 67.0957 28.3594 67.4137 28.3594 67.806C28.3594 68.1983 28.6257 68.5163 28.9541 68.5163Z" fill="#F29111"/>
<path d="M33.4151 66.739C33.7436 66.739 34.0099 66.421 34.0099 66.0287C34.0099 65.6364 33.7436 65.3184 33.4151 65.3184C33.0866 65.3184 32.8203 65.6364 32.8203 66.0287C32.8203 66.421 33.0866 66.739 33.4151 66.739Z" fill="#F29111"/>
<path d="M33.4151 68.5163C33.7436 68.5163 34.0099 68.1983 34.0099 67.806C34.0099 67.4137 33.7436 67.0957 33.4151 67.0957C33.0866 67.0957 32.8203 67.4137 32.8203 67.806C32.8203 68.1983 33.0866 68.5163 33.4151 68.5163Z" fill="#F29111"/>
<path d="M36.3877 66.739C36.7162 66.739 36.9825 66.421 36.9825 66.0287C36.9825 65.6364 36.7162 65.3184 36.3877 65.3184C36.0593 65.3184 35.793 65.6364 35.793 66.0287C35.793 66.421 36.0593 66.739 36.3877 66.739Z" fill="#F29111"/>
<path d="M36.3877 68.5163C36.7162 68.5163 36.9825 68.1983 36.9825 67.806C36.9825 67.4137 36.7162 67.0957 36.3877 67.0957C36.0593 67.0957 35.793 67.4137 35.793 67.806C35.793 68.1983 36.0593 68.5163 36.3877 68.5163Z" fill="#F29111"/>
<path d="M40.8487 66.739C41.1772 66.739 41.4435 66.421 41.4435 66.0287C41.4435 65.6364 41.1772 65.3184 40.8487 65.3184C40.5202 65.3184 40.2539 65.6364 40.2539 66.0287C40.2539 66.421 40.5202 66.739 40.8487 66.739Z" fill="#F29111"/>
<path d="M40.8487 68.5163C41.1772 68.5163 41.4435 68.1983 41.4435 67.806C41.4435 67.4137 41.1772 67.0957 40.8487 67.0957C40.5202 67.0957 40.2539 67.4137 40.2539 67.806C40.2539 68.1983 40.5202 68.5163 40.8487 68.5163Z" fill="#F29111"/>
<path d="M37.876 66.739C38.2045 66.739 38.4708 66.421 38.4708 66.0287C38.4708 65.6364 38.2045 65.3184 37.876 65.3184C37.5475 65.3184 37.2812 65.6364 37.2812 66.0287C37.2812 66.421 37.5475 66.739 37.876 66.739Z" fill="#F29111"/>
<path d="M37.876 68.5163C38.2045 68.5163 38.4708 68.1983 38.4708 67.806C38.4708 67.4137 38.2045 67.0957 37.876 67.0957C37.5475 67.0957 37.2812 67.4137 37.2812 67.806C37.2812 68.1983 37.5475 68.5163 37.876 68.5163Z" fill="#F29111"/>
<path d="M42.3487 66.739C42.6772 66.739 42.9434 66.421 42.9434 66.0287C42.9434 65.6364 42.6772 65.3184 42.3487 65.3184C42.0202 65.3184 41.7539 65.6364 41.7539 66.0287C41.7539 66.421 42.0202 66.739 42.3487 66.739Z" fill="#F29111"/>
<path d="M42.3487 68.5163C42.6772 68.5163 42.9434 68.1983 42.9434 67.806C42.9434 67.4137 42.6772 67.0957 42.3487 67.0957C42.0202 67.0957 41.7539 67.4137 41.7539 67.806C41.7539 68.1983 42.0202 68.5163 42.3487 68.5163Z" fill="#F29111"/>
<path d="M34.9034 66.739C35.2318 66.739 35.4981 66.421 35.4981 66.0287C35.4981 65.6364 35.2318 65.3184 34.9034 65.3184C34.5749 65.3184 34.3086 65.6364 34.3086 66.0287C34.3086 66.421 34.5749 66.739 34.9034 66.739Z" fill="#F29111"/>
<path d="M34.9034 68.5163C35.2318 68.5163 35.4981 68.1983 35.4981 67.806C35.4981 67.4137 35.2318 67.0957 34.9034 67.0957C34.5749 67.0957 34.3086 67.4137 34.3086 67.806C34.3086 68.1983 34.5749 68.5163 34.9034 68.5163Z" fill="#F29111"/>
<path d="M39.3643 66.739C39.6928 66.739 39.9591 66.421 39.9591 66.0287C39.9591 65.6364 39.6928 65.3184 39.3643 65.3184C39.0358 65.3184 38.7695 65.6364 38.7695 66.0287C38.7695 66.421 39.0358 66.739 39.3643 66.739Z" fill="#F29111"/>
<path d="M39.3643 68.5163C39.6928 68.5163 39.9591 68.1983 39.9591 67.806C39.9591 67.4137 39.6928 67.0957 39.3643 67.0957C39.0358 67.0957 38.7695 67.4137 38.7695 67.806C38.7695 68.1983 39.0358 68.5163 39.3643 68.5163Z" fill="#F29111"/>
<path d="M43.837 66.739C44.1654 66.739 44.4317 66.421 44.4317 66.0287C44.4317 65.6364 44.1654 65.3184 43.837 65.3184C43.5085 65.3184 43.2422 65.6364 43.2422 66.0287C43.2422 66.421 43.5085 66.739 43.837 66.739Z" fill="#F29111"/>
<path d="M43.837 68.5163C44.1654 68.5163 44.4317 68.1983 44.4317 67.806C44.4317 67.4137 44.1654 67.0957 43.837 67.0957C43.5085 67.0957 43.2422 67.4137 43.2422 67.806C43.2422 68.1983 43.5085 68.5163 43.837 68.5163Z" fill="#F29111"/>
</g>
<mask id="mask1_1992_1319" style="mask-type:luminance" maskUnits="userSpaceOnUse" x="49" y="57" width="16" height="11">
<path d="M64.5602 67.7372C64.5602 67.7372 61.3004 64.0138 57.2742 64.0138C53.2481 64.0138 49.9883 68.436 49.9883 67.7372C49.9883 62.1005 53.2481 57.5293 57.2742 57.5293C61.3004 57.5293 64.5602 62.1005 64.5602 67.7372Z" fill="white"/>
</mask>
<g mask="url(#mask1_1992_1319)">
<path d="M51.3291 57.8034C51.6576 57.8034 51.9239 57.4854 51.9239 57.0931C51.9239 56.7008 51.6576 56.3828 51.3291 56.3828C51.0007 56.3828 50.7344 56.7008 50.7344 57.0931C50.7344 57.4854 51.0007 57.8034 51.3291 57.8034Z" fill="#F29111"/>
<path d="M51.3291 59.5905C51.6576 59.5905 51.9239 59.2725 51.9239 58.8802C51.9239 58.4879 51.6576 58.1699 51.3291 58.1699C51.0007 58.1699 50.7344 58.4879 50.7344 58.8802C50.7344 59.2725 51.0007 59.5905 51.3291 59.5905Z" fill="#F29111"/>
<path d="M51.3291 61.3777C51.6576 61.3777 51.9239 61.0596 51.9239 60.6673C51.9239 60.275 51.6576 59.957 51.3291 59.957C51.0007 59.957 50.7344 60.275 50.7344 60.6673C50.7344 61.0596 51.0007 61.3777 51.3291 61.3777Z" fill="#F29111"/>
<path d="M51.3291 63.1648C51.6576 63.1648 51.9239 62.8467 51.9239 62.4545C51.9239 62.0622 51.6576 61.7441 51.3291 61.7441C51.0007 61.7441 50.7344 62.0622 50.7344 62.4545C50.7344 62.8467 51.0007 63.1648 51.3291 63.1648Z" fill="#F29111"/>
<path d="M51.3291 64.9519C51.6576 64.9519 51.9239 64.6339 51.9239 64.2416C51.9239 63.8493 51.6576 63.5312 51.3291 63.5312C51.0007 63.5312 50.7344 63.8493 50.7344 64.2416C50.7344 64.6339 51.0007 64.9519 51.3291 64.9519Z" fill="#F29111"/>
<path d="M52.8135 57.8034C53.142 57.8034 53.4083 57.4854 53.4083 57.0931C53.4083 56.7008 53.142 56.3828 52.8135 56.3828C52.485 56.3828 52.2188 56.7008 52.2188 57.0931C52.2188 57.4854 52.485 57.8034 52.8135 57.8034Z" fill="#F29111"/>
<path d="M52.8135 59.5905C53.142 59.5905 53.4083 59.2725 53.4083 58.8802C53.4083 58.4879 53.142 58.1699 52.8135 58.1699C52.485 58.1699 52.2188 58.4879 52.2188 58.8802C52.2188 59.2725 52.485 59.5905 52.8135 59.5905Z" fill="#F29111"/>
<path d="M52.8135 61.3777C53.142 61.3777 53.4083 61.0596 53.4083 60.6673C53.4083 60.275 53.142 59.957 52.8135 59.957C52.485 59.957 52.2188 60.275 52.2188 60.6673C52.2188 61.0596 52.485 61.3777 52.8135 61.3777Z" fill="#F29111"/>
<path d="M52.8135 63.1648C53.142 63.1648 53.4083 62.8467 53.4083 62.4545C53.4083 62.0622 53.142 61.7441 52.8135 61.7441C52.485 61.7441 52.2188 62.0622 52.2188 62.4545C52.2188 62.8467 52.485 63.1648 52.8135 63.1648Z" fill="#F29111"/>
<path d="M52.8135 64.9519C53.142 64.9519 53.4083 64.6339 53.4083 64.2416C53.4083 63.8493 53.142 63.5312 52.8135 63.5312C52.485 63.5312 52.2188 63.8493 52.2188 64.2416C52.2188 64.6339 52.485 64.9519 52.8135 64.9519Z" fill="#F29111"/>
<path d="M49.8409 57.8034C50.1693 57.8034 50.4356 57.4854 50.4356 57.0931C50.4356 56.7008 50.1693 56.3828 49.8409 56.3828C49.5124 56.3828 49.2461 56.7008 49.2461 57.0931C49.2461 57.4854 49.5124 57.8034 49.8409 57.8034Z" fill="#F29111"/>
<path d="M49.8409 59.5905C50.1693 59.5905 50.4356 59.2725 50.4356 58.8802C50.4356 58.4879 50.1693 58.1699 49.8409 58.1699C49.5124 58.1699 49.2461 58.4879 49.2461 58.8802C49.2461 59.2725 49.5124 59.5905 49.8409 59.5905Z" fill="#F29111"/>
<path d="M49.8409 61.3777C50.1693 61.3777 50.4356 61.0596 50.4356 60.6673C50.4356 60.275 50.1693 59.957 49.8409 59.957C49.5124 59.957 49.2461 60.275 49.2461 60.6673C49.2461 61.0596 49.5124 61.3777 49.8409 61.3777Z" fill="#F29111"/>
<path d="M49.8409 63.1648C50.1693 63.1648 50.4356 62.8467 50.4356 62.4545C50.4356 62.0622 50.1693 61.7441 49.8409 61.7441C49.5124 61.7441 49.2461 62.0622 49.2461 62.4545C49.2461 62.8467 49.5124 63.1648 49.8409 63.1648Z" fill="#F29111"/>
<path d="M49.8409 64.9519C50.1693 64.9519 50.4356 64.6339 50.4356 64.2416C50.4356 63.8493 50.1693 63.5312 49.8409 63.5312C49.5124 63.5312 49.2461 63.8493 49.2461 64.2416C49.2461 64.6339 49.5124 64.9519 49.8409 64.9519Z" fill="#F29111"/>
<path d="M54.3018 57.8034C54.6303 57.8034 54.8966 57.4854 54.8966 57.0931C54.8966 56.7008 54.6303 56.3828 54.3018 56.3828C53.9733 56.3828 53.707 56.7008 53.707 57.0931C53.707 57.4854 53.9733 57.8034 54.3018 57.8034Z" fill="#F29111"/>
<path d="M54.3018 59.5905C54.6303 59.5905 54.8966 59.2725 54.8966 58.8802C54.8966 58.4879 54.6303 58.1699 54.3018 58.1699C53.9733 58.1699 53.707 58.4879 53.707 58.8802C53.707 59.2725 53.9733 59.5905 54.3018 59.5905Z" fill="#F29111"/>
<path d="M54.3018 61.3777C54.6303 61.3777 54.8966 61.0596 54.8966 60.6673C54.8966 60.275 54.6303 59.957 54.3018 59.957C53.9733 59.957 53.707 60.275 53.707 60.6673C53.707 61.0596 53.9733 61.3777 54.3018 61.3777Z" fill="#F29111"/>
<path d="M54.3018 63.1648C54.6303 63.1648 54.8966 62.8467 54.8966 62.4545C54.8966 62.0622 54.6303 61.7441 54.3018 61.7441C53.9733 61.7441 53.707 62.0622 53.707 62.4545C53.707 62.8467 53.9733 63.1648 54.3018 63.1648Z" fill="#F29111"/>
<path d="M54.3018 64.9519C54.6303 64.9519 54.8966 64.6339 54.8966 64.2416C54.8966 63.8493 54.6303 63.5312 54.3018 63.5312C53.9733 63.5312 53.707 63.8493 53.707 64.2416C53.707 64.6339 53.9733 64.9519 54.3018 64.9519Z" fill="#F29111"/>
<path d="M57.2745 57.8034C57.6029 57.8034 57.8692 57.4854 57.8692 57.0931C57.8692 56.7008 57.6029 56.3828 57.2745 56.3828C56.946 56.3828 56.6797 56.7008 56.6797 57.0931C56.6797 57.4854 56.946 57.8034 57.2745 57.8034Z" fill="#F29111"/>
<path d="M57.2745 59.5905C57.6029 59.5905 57.8692 59.2725 57.8692 58.8802C57.8692 58.4879 57.6029 58.1699 57.2745 58.1699C56.946 58.1699 56.6797 58.4879 56.6797 58.8802C56.6797 59.2725 56.946 59.5905 57.2745 59.5905Z" fill="#F29111"/>
<path d="M57.2745 61.3777C57.6029 61.3777 57.8692 61.0596 57.8692 60.6673C57.8692 60.275 57.6029 59.957 57.2745 59.957C56.946 59.957 56.6797 60.275 56.6797 60.6673C56.6797 61.0596 56.946 61.3777 57.2745 61.3777Z" fill="#F29111"/>
<path d="M57.2745 63.1648C57.6029 63.1648 57.8692 62.8467 57.8692 62.4545C57.8692 62.0622 57.6029 61.7441 57.2745 61.7441C56.946 61.7441 56.6797 62.0622 56.6797 62.4545C56.6797 62.8467 56.946 63.1648 57.2745 63.1648Z" fill="#F29111"/>
<path d="M57.2745 64.9519C57.6029 64.9519 57.8692 64.6339 57.8692 64.2416C57.8692 63.8493 57.6029 63.5312 57.2745 63.5312C56.946 63.5312 56.6797 63.8493 56.6797 64.2416C56.6797 64.6339 56.946 64.9519 57.2745 64.9519Z" fill="#F29111"/>
<path d="M61.7354 57.8034C62.0639 57.8034 62.3302 57.4854 62.3302 57.0931C62.3302 56.7008 62.0639 56.3828 61.7354 56.3828C61.4069 56.3828 61.1406 56.7008 61.1406 57.0931C61.1406 57.4854 61.4069 57.8034 61.7354 57.8034Z" fill="#F29111"/>
<path d="M61.7354 59.5905C62.0639 59.5905 62.3302 59.2725 62.3302 58.8802C62.3302 58.4879 62.0639 58.1699 61.7354 58.1699C61.4069 58.1699 61.1406 58.4879 61.1406 58.8802C61.1406 59.2725 61.4069 59.5905 61.7354 59.5905Z" fill="#F29111"/>
<path d="M61.7354 61.3777C62.0639 61.3777 62.3302 61.0596 62.3302 60.6673C62.3302 60.275 62.0639 59.957 61.7354 59.957C61.4069 59.957 61.1406 60.275 61.1406 60.6673C61.1406 61.0596 61.4069 61.3777 61.7354 61.3777Z" fill="#F29111"/>
<path d="M61.7354 63.1648C62.0639 63.1648 62.3302 62.8467 62.3302 62.4545C62.3302 62.0622 62.0639 61.7441 61.7354 61.7441C61.4069 61.7441 61.1406 62.0622 61.1406 62.4545C61.1406 62.8467 61.4069 63.1648 61.7354 63.1648Z" fill="#F29111"/>
<path d="M61.7354 64.9519C62.0639 64.9519 62.3302 64.6339 62.3302 64.2416C62.3302 63.8493 62.0639 63.5312 61.7354 63.5312C61.4069 63.5312 61.1406 63.8493 61.1406 64.2416C61.1406 64.6339 61.4069 64.9519 61.7354 64.9519Z" fill="#F29111"/>
<path d="M58.7627 57.8034C59.0912 57.8034 59.3575 57.4854 59.3575 57.0931C59.3575 56.7008 59.0912 56.3828 58.7627 56.3828C58.4343 56.3828 58.168 56.7008 58.168 57.0931C58.168 57.4854 58.4343 57.8034 58.7627 57.8034Z" fill="#F29111"/>
<path d="M58.7627 59.5905C59.0912 59.5905 59.3575 59.2725 59.3575 58.8802C59.3575 58.4879 59.0912 58.1699 58.7627 58.1699C58.4343 58.1699 58.168 58.4879 58.168 58.8802C58.168 59.2725 58.4343 59.5905 58.7627 59.5905Z" fill="#F29111"/>
<path d="M58.7627 61.3777C59.0912 61.3777 59.3575 61.0596 59.3575 60.6673C59.3575 60.275 59.0912 59.957 58.7627 59.957C58.4343 59.957 58.168 60.275 58.168 60.6673C58.168 61.0596 58.4343 61.3777 58.7627 61.3777Z" fill="#F29111"/>
<path d="M58.7627 63.1648C59.0912 63.1648 59.3575 62.8467 59.3575 62.4545C59.3575 62.0622 59.0912 61.7441 58.7627 61.7441C58.4343 61.7441 58.168 62.0622 58.168 62.4545C58.168 62.8467 58.4343 63.1648 58.7627 63.1648Z" fill="#F29111"/>
<path d="M58.7627 64.9519C59.0912 64.9519 59.3575 64.6339 59.3575 64.2416C59.3575 63.8493 59.0912 63.5312 58.7627 63.5312C58.4343 63.5312 58.168 63.8493 58.168 64.2416C58.168 64.6339 58.4343 64.9519 58.7627 64.9519Z" fill="#F29111"/>
<path d="M63.2237 57.8034C63.5522 57.8034 63.8184 57.4854 63.8184 57.0931C63.8184 56.7008 63.5522 56.3828 63.2237 56.3828C62.8952 56.3828 62.6289 56.7008 62.6289 57.0931C62.6289 57.4854 62.8952 57.8034 63.2237 57.8034Z" fill="#F29111"/>
<path d="M63.2237 59.5905C63.5522 59.5905 63.8184 59.2725 63.8184 58.8802C63.8184 58.4879 63.5522 58.1699 63.2237 58.1699C62.8952 58.1699 62.6289 58.4879 62.6289 58.8802C62.6289 59.2725 62.8952 59.5905 63.2237 59.5905Z" fill="#F29111"/>
<path d="M63.2237 61.3777C63.5522 61.3777 63.8184 61.0596 63.8184 60.6673C63.8184 60.275 63.5522 59.957 63.2237 59.957C62.8952 59.957 62.6289 60.275 62.6289 60.6673C62.6289 61.0596 62.8952 61.3777 63.2237 61.3777Z" fill="#F29111"/>
<path d="M63.2237 63.1648C63.5522 63.1648 63.8184 62.8467 63.8184 62.4545C63.8184 62.0622 63.5522 61.7441 63.2237 61.7441C62.8952 61.7441 62.6289 62.0622 62.6289 62.4545C62.6289 62.8467 62.8952 63.1648 63.2237 63.1648Z" fill="#F29111"/>
<path d="M63.2237 64.9519C63.5522 64.9519 63.8184 64.6339 63.8184 64.2416C63.8184 63.8493 63.5522 63.5312 63.2237 63.5312C62.8952 63.5312 62.6289 63.8493 62.6289 64.2416C62.6289 64.6339 62.8952 64.9519 63.2237 64.9519Z" fill="#F29111"/>
<path d="M55.7901 57.8034C56.1186 57.8034 56.3849 57.4854 56.3849 57.0931C56.3849 56.7008 56.1186 56.3828 55.7901 56.3828C55.4616 56.3828 55.1953 56.7008 55.1953 57.0931C55.1953 57.4854 55.4616 57.8034 55.7901 57.8034Z" fill="#F29111"/>
<path d="M55.7901 59.5905C56.1186 59.5905 56.3849 59.2725 56.3849 58.8802C56.3849 58.4879 56.1186 58.1699 55.7901 58.1699C55.4616 58.1699 55.1953 58.4879 55.1953 58.8802C55.1953 59.2725 55.4616 59.5905 55.7901 59.5905Z" fill="#F29111"/>
<path d="M55.7901 61.3777C56.1186 61.3777 56.3849 61.0596 56.3849 60.6673C56.3849 60.275 56.1186 59.957 55.7901 59.957C55.4616 59.957 55.1953 60.275 55.1953 60.6673C55.1953 61.0596 55.4616 61.3777 55.7901 61.3777Z" fill="#F29111"/>
<path d="M55.7901 63.1648C56.1186 63.1648 56.3849 62.8467 56.3849 62.4545C56.3849 62.0622 56.1186 61.7441 55.7901 61.7441C55.4616 61.7441 55.1953 62.0622 55.1953 62.4545C55.1953 62.8467 55.4616 63.1648 55.7901 63.1648Z" fill="#F29111"/>
<path d="M55.7901 64.9519C56.1186 64.9519 56.3849 64.6339 56.3849 64.2416C56.3849 63.8493 56.1186 63.5312 55.7901 63.5312C55.4616 63.5312 55.1953 63.8493 55.1953 64.2416C55.1953 64.6339 55.4616 64.9519 55.7901 64.9519Z" fill="#F29111"/>
<path d="M60.251 57.8034C60.5795 57.8034 60.8458 57.4854 60.8458 57.0931C60.8458 56.7008 60.5795 56.3828 60.251 56.3828C59.9225 56.3828 59.6562 56.7008 59.6562 57.0931C59.6562 57.4854 59.9225 57.8034 60.251 57.8034Z" fill="#F29111"/>
<path d="M60.251 59.5905C60.5795 59.5905 60.8458 59.2725 60.8458 58.8802C60.8458 58.4879 60.5795 58.1699 60.251 58.1699C59.9225 58.1699 59.6562 58.4879 59.6562 58.8802C59.6562 59.2725 59.9225 59.5905 60.251 59.5905Z" fill="#F29111"/>
<path d="M60.251 61.3777C60.5795 61.3777 60.8458 61.0596 60.8458 60.6673C60.8458 60.275 60.5795 59.957 60.251 59.957C59.9225 59.957 59.6562 60.275 59.6562 60.6673C59.6562 61.0596 59.9225 61.3777 60.251 61.3777Z" fill="#F29111"/>
<path d="M60.251 63.1648C60.5795 63.1648 60.8458 62.8467 60.8458 62.4545C60.8458 62.0622 60.5795 61.7441 60.251 61.7441C59.9225 61.7441 59.6562 62.0622 59.6562 62.4545C59.6562 62.8467 59.9225 63.1648 60.251 63.1648Z" fill="#F29111"/>
<path d="M60.251 64.9519C60.5795 64.9519 60.8458 64.6339 60.8458 64.2416C60.8458 63.8493 60.5795 63.5312 60.251 63.5312C59.9225 63.5312 59.6562 63.8493 59.6562 64.2416C59.6562 64.6339 59.9225 64.9519 60.251 64.9519Z" fill="#F29111"/>
<path d="M64.712 57.8034C65.0404 57.8034 65.3067 57.4854 65.3067 57.0931C65.3067 56.7008 65.0404 56.3828 64.712 56.3828C64.3835 56.3828 64.1172 56.7008 64.1172 57.0931C64.1172 57.4854 64.3835 57.8034 64.712 57.8034Z" fill="#F29111"/>
<path d="M64.712 59.5905C65.0404 59.5905 65.3067 59.2725 65.3067 58.8802C65.3067 58.4879 65.0404 58.1699 64.712 58.1699C64.3835 58.1699 64.1172 58.4879 64.1172 58.8802C64.1172 59.2725 64.3835 59.5905 64.712 59.5905Z" fill="#F29111"/>
<path d="M64.712 61.3777C65.0404 61.3777 65.3067 61.0596 65.3067 60.6673C65.3067 60.275 65.0404 59.957 64.712 59.957C64.3835 59.957 64.1172 60.275 64.1172 60.6673C64.1172 61.0596 64.3835 61.3777 64.712 61.3777Z" fill="#F29111"/>
<path d="M64.712 63.1648C65.0404 63.1648 65.3067 62.8467 65.3067 62.4545C65.3067 62.0622 65.0404 61.7441 64.712 61.7441C64.3835 61.7441 64.1172 62.0622 64.1172 62.4545C64.1172 62.8467 64.3835 63.1648 64.712 63.1648Z" fill="#F29111"/>
<path d="M64.712 64.9519C65.0404 64.9519 65.3067 64.6339 65.3067 64.2416C65.3067 63.8493 65.0404 63.5312 64.712 63.5312C64.3835 63.5312 64.1172 63.8493 64.1172 64.2416C64.1172 64.6339 64.3835 64.9519 64.712 64.9519Z" fill="#F29111"/>
<path d="M51.3291 66.739C51.6576 66.739 51.9239 66.421 51.9239 66.0287C51.9239 65.6364 51.6576 65.3184 51.3291 65.3184C51.0007 65.3184 50.7344 65.6364 50.7344 66.0287C50.7344 66.421 51.0007 66.739 51.3291 66.739Z" fill="#F29111"/>
<path d="M51.3291 68.5163C51.6576 68.5163 51.9239 68.1983 51.9239 67.806C51.9239 67.4137 51.6576 67.0957 51.3291 67.0957C51.0007 67.0957 50.7344 67.4137 50.7344 67.806C50.7344 68.1983 51.0007 68.5163 51.3291 68.5163Z" fill="#F29111"/>
<path d="M52.8135 66.739C53.142 66.739 53.4083 66.421 53.4083 66.0287C53.4083 65.6364 53.142 65.3184 52.8135 65.3184C52.485 65.3184 52.2188 65.6364 52.2188 66.0287C52.2188 66.421 52.485 66.739 52.8135 66.739Z" fill="#F29111"/>
<path d="M52.8135 68.5163C53.142 68.5163 53.4083 68.1983 53.4083 67.806C53.4083 67.4137 53.142 67.0957 52.8135 67.0957C52.485 67.0957 52.2188 67.4137 52.2188 67.806C52.2188 68.1983 52.485 68.5163 52.8135 68.5163Z" fill="#F29111"/>
<path d="M49.8409 66.739C50.1693 66.739 50.4356 66.421 50.4356 66.0287C50.4356 65.6364 50.1693 65.3184 49.8409 65.3184C49.5124 65.3184 49.2461 65.6364 49.2461 66.0287C49.2461 66.421 49.5124 66.739 49.8409 66.739Z" fill="#F29111"/>
<path d="M49.8409 68.5163C50.1693 68.5163 50.4356 68.1983 50.4356 67.806C50.4356 67.4137 50.1693 67.0957 49.8409 67.0957C49.5124 67.0957 49.2461 67.4137 49.2461 67.806C49.2461 68.1983 49.5124 68.5163 49.8409 68.5163Z" fill="#F29111"/>
<path d="M54.3018 66.739C54.6303 66.739 54.8966 66.421 54.8966 66.0287C54.8966 65.6364 54.6303 65.3184 54.3018 65.3184C53.9733 65.3184 53.707 65.6364 53.707 66.0287C53.707 66.421 53.9733 66.739 54.3018 66.739Z" fill="#F29111"/>
<path d="M54.3018 68.5163C54.6303 68.5163 54.8966 68.1983 54.8966 67.806C54.8966 67.4137 54.6303 67.0957 54.3018 67.0957C53.9733 67.0957 53.707 67.4137 53.707 67.806C53.707 68.1983 53.9733 68.5163 54.3018 68.5163Z" fill="#F29111"/>
<path d="M57.2745 66.739C57.6029 66.739 57.8692 66.421 57.8692 66.0287C57.8692 65.6364 57.6029 65.3184 57.2745 65.3184C56.946 65.3184 56.6797 65.6364 56.6797 66.0287C56.6797 66.421 56.946 66.739 57.2745 66.739Z" fill="#F29111"/>
<path d="M57.2745 68.5163C57.6029 68.5163 57.8692 68.1983 57.8692 67.806C57.8692 67.4137 57.6029 67.0957 57.2745 67.0957C56.946 67.0957 56.6797 67.4137 56.6797 67.806C56.6797 68.1983 56.946 68.5163 57.2745 68.5163Z" fill="#F29111"/>
<path d="M61.7354 66.739C62.0639 66.739 62.3302 66.421 62.3302 66.0287C62.3302 65.6364 62.0639 65.3184 61.7354 65.3184C61.4069 65.3184 61.1406 65.6364 61.1406 66.0287C61.1406 66.421 61.4069 66.739 61.7354 66.739Z" fill="#F29111"/>
<path d="M61.7354 68.5163C62.0639 68.5163 62.3302 68.1983 62.3302 67.806C62.3302 67.4137 62.0639 67.0957 61.7354 67.0957C61.4069 67.0957 61.1406 67.4137 61.1406 67.806C61.1406 68.1983 61.4069 68.5163 61.7354 68.5163Z" fill="#F29111"/>
<path d="M58.7627 66.739C59.0912 66.739 59.3575 66.421 59.3575 66.0287C59.3575 65.6364 59.0912 65.3184 58.7627 65.3184C58.4343 65.3184 58.168 65.6364 58.168 66.0287C58.168 66.421 58.4343 66.739 58.7627 66.739Z" fill="#F29111"/>
<path d="M58.7627 68.5163C59.0912 68.5163 59.3575 68.1983 59.3575 67.806C59.3575 67.4137 59.0912 67.0957 58.7627 67.0957C58.4343 67.0957 58.168 67.4137 58.168 67.806C58.168 68.1983 58.4343 68.5163 58.7627 68.5163Z" fill="#F29111"/>
<path d="M63.2237 66.739C63.5522 66.739 63.8184 66.421 63.8184 66.0287C63.8184 65.6364 63.5522 65.3184 63.2237 65.3184C62.8952 65.3184 62.6289 65.6364 62.6289 66.0287C62.6289 66.421 62.8952 66.739 63.2237 66.739Z" fill="#F29111"/>
<path d="M63.2237 68.5163C63.5522 68.5163 63.8184 68.1983 63.8184 67.806C63.8184 67.4137 63.5522 67.0957 63.2237 67.0957C62.8952 67.0957 62.6289 67.4137 62.6289 67.806C62.6289 68.1983 62.8952 68.5163 63.2237 68.5163Z" fill="#F29111"/>
<path d="M55.7901 66.739C56.1186 66.739 56.3849 66.421 56.3849 66.0287C56.3849 65.6364 56.1186 65.3184 55.7901 65.3184C55.4616 65.3184 55.1953 65.6364 55.1953 66.0287C55.1953 66.421 55.4616 66.739 55.7901 66.739Z" fill="#F29111"/>
<path d="M55.7901 68.5163C56.1186 68.5163 56.3849 68.1983 56.3849 67.806C56.3849 67.4137 56.1186 67.0957 55.7901 67.0957C55.4616 67.0957 55.1953 67.4137 55.1953 67.806C55.1953 68.1983 55.4616 68.5163 55.7901 68.5163Z" fill="#F29111"/>
<path d="M60.251 66.739C60.5795 66.739 60.8458 66.421 60.8458 66.0287C60.8458 65.6364 60.5795 65.3184 60.251 65.3184C59.9225 65.3184 59.6562 65.6364 59.6562 66.0287C59.6562 66.421 59.9225 66.739 60.251 66.739Z" fill="#F29111"/>
<path d="M60.251 68.5163C60.5795 68.5163 60.8458 68.1983 60.8458 67.806C60.8458 67.4137 60.5795 67.0957 60.251 67.0957C59.9225 67.0957 59.6562 67.4137 59.6562 67.806C59.6562 68.1983 59.9225 68.5163 60.251 68.5163Z" fill="#F29111"/>
<path d="M64.712 66.739C65.0404 66.739 65.3067 66.421 65.3067 66.0287C65.3067 65.6364 65.0404 65.3184 64.712 65.3184C64.3835 65.3184 64.1172 65.6364 64.1172 66.0287C64.1172 66.421 64.3835 66.739 64.712 66.739Z" fill="#F29111"/>
<path d="M64.712 68.5163C65.0404 68.5163 65.3067 68.1983 65.3067 67.806C65.3067 67.4137 65.0404 67.0957 64.712 67.0957C64.3835 67.0957 64.1172 67.4137 64.1172 67.806C64.1172 68.1983 64.3835 68.5163 64.712 68.5163Z" fill="#F29111"/>
</g>
<defs>
<linearGradient id="paint0_linear_1992_1319" x1="36.8669" y1="9.65807" x2="36.8669" y2="43.1687" gradientUnits="userSpaceOnUse">
<stop stop-color="white"/>
<stop offset="1" stop-color="#F4F4F4"/>
</linearGradient>
</defs>
</svg>
