<svg width="140" height="140" viewBox="0 0 140 140" fill="none" xmlns="http://www.w3.org/2000/svg">
<path d="M69.7164 136.382C94.8116 136.382 115.155 132.588 115.155 127.908C115.155 123.228 94.8116 119.434 69.7164 119.434C44.6211 119.434 24.2773 123.228 24.2773 127.908C24.2773 132.588 44.6211 136.382 69.7164 136.382Z" fill="#A4AFBF" fill-opacity="0.7"/>
<path d="M121.442 6.50547C120.211 17.7658 108.534 40.4607 101.517 51.129L81.7773 44.8604C92.1989 26.4839 103.852 14.1672 112.368 5.72769C114.308 3.81227 117.201 3.22023 119.746 4.20697L120.036 4.32305C120.942 4.67131 121.547 5.54196 121.442 6.50547Z" fill="white"/>
<path d="M121.443 6.40112C120.769 11.1607 119.073 18.1374 114.019 28.62C114.019 28.62 113.926 17.7079 110.94 16.2801C107.954 14.8522 98.1719 21.0628 98.1719 21.0628C101.646 17.0694 107.92 9.16398 113.02 5.11257C114.728 3.75436 116.993 3.47575 119.143 3.89366L119.712 3.99814C120.827 4.24192 121.594 5.27509 121.443 6.40112Z" fill="#FF9100"/>
<path d="M21.8399 6.50547C23.0714 17.7658 34.7477 40.4607 41.7652 51.129L61.5046 44.8604C51.083 26.4839 39.4299 14.1672 30.9137 5.72769C28.9735 3.81227 26.0805 3.22023 23.5361 4.20697L23.2457 4.32305C22.3394 4.67131 21.7353 5.54196 21.8399 6.50547Z" fill="white"/>
<path d="M21.8262 6.40124C22.4884 11.0215 24.2312 18.1956 29.2502 28.6317C29.2502 28.6317 29.3432 17.7196 32.3291 16.2918C35.315 14.8639 45.1092 21.0745 45.1092 21.0745C41.6353 17.0812 35.3614 9.1757 30.261 5.12429C28.5531 3.76608 26.2876 3.48747 24.1382 3.90538L23.5689 4.02147C22.4419 4.24203 21.6635 5.2752 21.8262 6.40124Z" fill="#FF9100"/>
<path d="M109.686 70.748C109.686 89.9718 91.8518 105.551 69.8468 105.551C47.8418 105.551 30.0078 89.9718 30.0078 70.748C30.0078 51.5241 47.8418 35.9453 69.8468 35.9453C91.8518 35.9453 109.686 51.5241 109.686 70.748Z" fill="white"/>
<path d="M69.7733 98.6543C87.7397 98.6543 102.304 87.454 102.304 73.6377C102.304 59.8214 87.7397 48.6211 69.7733 48.6211C51.8069 48.6211 37.2422 59.8214 37.2422 73.6377C37.2422 87.454 51.8069 98.6543 69.7733 98.6543Z" fill="#35373A"/>
<path d="M98.3929 103.845L99.7871 98.2725C99.9497 97.5992 100.414 97.042 101.042 96.7402L105.875 94.4417C106.839 93.9889 107.99 94.2327 108.663 95.0569L122.64 111.936C123.407 112.853 123.337 114.211 122.489 115.059L121.804 115.743C120.712 116.835 119.027 117.078 117.668 116.336L99.5198 106.457C98.6136 105.946 98.1373 104.878 98.3929 103.845Z" fill="white"/>
<path d="M117.667 116.323L106.211 110.066L117.155 105.271L122.651 111.912C123.418 112.829 123.348 114.187 122.5 115.034L121.803 115.731C120.711 116.822 119.026 117.066 117.667 116.323Z" fill="#F29111"/>
<path d="M41.6122 103.636L40.2181 98.0635C40.0554 97.3902 39.5907 96.833 38.9633 96.5312L34.1301 94.2327C33.1658 93.7799 32.0156 94.0237 31.3417 94.8479L17.3649 111.727C16.5981 112.644 16.6678 114.002 17.516 114.85L18.2015 115.535C19.2936 116.626 20.9782 116.869 22.3376 116.127L40.4853 106.248C41.4031 105.725 41.8795 104.657 41.6122 103.636Z" fill="white"/>
<path d="M22.3492 116.114L33.8048 109.857L22.8604 105.062L17.3649 111.703C16.5981 112.62 16.6678 113.978 17.516 114.825L18.2131 115.522C19.3052 116.613 20.9898 116.857 22.3492 116.114Z" fill="#F29111"/>
<mask id="mask0_1992_673" style="mask-type:luminance" maskUnits="userSpaceOnUse" x="73" y="63" width="21" height="13">
<path d="M93.917 75.6462C93.917 75.6462 89.2464 71.2001 83.4721 71.2001C77.6979 71.2001 73.0273 76.4704 73.0273 75.6462C73.0273 68.9248 77.6979 63.4688 83.4721 63.4688C89.2464 63.4688 93.917 68.9132 93.917 75.6462Z" fill="white"/>
</mask>
<g mask="url(#mask0_1992_673)">
<path d="M74.9536 64.4097C75.422 64.4097 75.8017 64.0303 75.8017 63.5623C75.8017 63.0942 75.422 62.7148 74.9536 62.7148C74.4852 62.7148 74.1055 63.0942 74.1055 63.5623C74.1055 64.0303 74.4852 64.4097 74.9536 64.4097Z" fill="#F29111"/>
<path d="M74.9536 66.5464C75.422 66.5464 75.8017 66.167 75.8017 65.699C75.8017 65.231 75.422 64.8516 74.9536 64.8516C74.4852 64.8516 74.1055 65.231 74.1055 65.699C74.1055 66.167 74.4852 66.5464 74.9536 66.5464Z" fill="#F29111"/>
<path d="M74.9536 68.6695C75.422 68.6695 75.8017 68.2901 75.8017 67.822C75.8017 67.354 75.422 66.9746 74.9536 66.9746C74.4852 66.9746 74.1055 67.354 74.1055 67.822C74.1055 68.2901 74.4852 68.6695 74.9536 68.6695Z" fill="#F29111"/>
<path d="M74.9536 70.8062C75.422 70.8062 75.8017 70.4268 75.8017 69.9588C75.8017 69.4907 75.422 69.1113 74.9536 69.1113C74.4852 69.1113 74.1055 69.4907 74.1055 69.9588C74.1055 70.4268 74.4852 70.8062 74.9536 70.8062Z" fill="#F29111"/>
<path d="M74.9536 72.9312C75.422 72.9312 75.8017 72.5518 75.8017 72.0837C75.8017 71.6157 75.422 71.2363 74.9536 71.2363C74.4852 71.2363 74.1055 71.6157 74.1055 72.0837C74.1055 72.5518 74.4852 72.9312 74.9536 72.9312Z" fill="#F29111"/>
<path d="M77.0942 64.4097C77.5626 64.4097 77.9424 64.0303 77.9424 63.5623C77.9424 63.0942 77.5626 62.7148 77.0942 62.7148C76.6258 62.7148 76.2461 63.0942 76.2461 63.5623C76.2461 64.0303 76.6258 64.4097 77.0942 64.4097Z" fill="#F29111"/>
<path d="M77.0942 66.5464C77.5626 66.5464 77.9424 66.167 77.9424 65.699C77.9424 65.231 77.5626 64.8516 77.0942 64.8516C76.6258 64.8516 76.2461 65.231 76.2461 65.699C76.2461 66.167 76.6258 66.5464 77.0942 66.5464Z" fill="#F29111"/>
<path d="M77.0942 68.6695C77.5626 68.6695 77.9424 68.2901 77.9424 67.822C77.9424 67.354 77.5626 66.9746 77.0942 66.9746C76.6258 66.9746 76.2461 67.354 76.2461 67.822C76.2461 68.2901 76.6258 68.6695 77.0942 68.6695Z" fill="#F29111"/>
<path d="M77.0942 70.8062C77.5626 70.8062 77.9424 70.4268 77.9424 69.9588C77.9424 69.4907 77.5626 69.1113 77.0942 69.1113C76.6258 69.1113 76.2461 69.4907 76.2461 69.9588C76.2461 70.4268 76.6258 70.8062 77.0942 70.8062Z" fill="#F29111"/>
<path d="M77.0942 72.9312C77.5626 72.9312 77.9424 72.5518 77.9424 72.0837C77.9424 71.6157 77.5626 71.2363 77.0942 71.2363C76.6258 71.2363 76.2461 71.6157 76.2461 72.0837C76.2461 72.5518 76.6258 72.9312 77.0942 72.9312Z" fill="#F29111"/>
<path d="M72.8286 64.4097C73.297 64.4097 73.6767 64.0303 73.6767 63.5623C73.6767 63.0942 73.297 62.7148 72.8286 62.7148C72.3602 62.7148 71.9805 63.0942 71.9805 63.5623C71.9805 64.0303 72.3602 64.4097 72.8286 64.4097Z" fill="#F29111"/>
<path d="M72.8286 66.5464C73.297 66.5464 73.6767 66.167 73.6767 65.699C73.6767 65.231 73.297 64.8516 72.8286 64.8516C72.3602 64.8516 71.9805 65.231 71.9805 65.699C71.9805 66.167 72.3602 66.5464 72.8286 66.5464Z" fill="#F29111"/>
<path d="M72.8286 68.6695C73.297 68.6695 73.6767 68.2901 73.6767 67.822C73.6767 67.354 73.297 66.9746 72.8286 66.9746C72.3602 66.9746 71.9805 67.354 71.9805 67.822C71.9805 68.2901 72.3602 68.6695 72.8286 68.6695Z" fill="#F29111"/>
<path d="M72.8286 70.8062C73.297 70.8062 73.6767 70.4268 73.6767 69.9588C73.6767 69.4907 73.297 69.1113 72.8286 69.1113C72.3602 69.1113 71.9805 69.4907 71.9805 69.9588C71.9805 70.4268 72.3602 70.8062 72.8286 70.8062Z" fill="#F29111"/>
<path d="M72.8286 72.9312C73.297 72.9312 73.6767 72.5518 73.6767 72.0837C73.6767 71.6157 73.297 71.2363 72.8286 71.2363C72.3602 71.2363 71.9805 71.6157 71.9805 72.0837C71.9805 72.5518 72.3602 72.9312 72.8286 72.9312Z" fill="#F29111"/>
<path d="M79.2192 64.4097C79.6876 64.4097 80.0674 64.0303 80.0674 63.5623C80.0674 63.0942 79.6876 62.7148 79.2192 62.7148C78.7508 62.7148 78.3711 63.0942 78.3711 63.5623C78.3711 64.0303 78.7508 64.4097 79.2192 64.4097Z" fill="#F29111"/>
<path d="M79.2192 66.5464C79.6876 66.5464 80.0674 66.167 80.0674 65.699C80.0674 65.231 79.6876 64.8516 79.2192 64.8516C78.7508 64.8516 78.3711 65.231 78.3711 65.699C78.3711 66.167 78.7508 66.5464 79.2192 66.5464Z" fill="#F29111"/>
<path d="M79.2192 68.6695C79.6876 68.6695 80.0674 68.2901 80.0674 67.822C80.0674 67.354 79.6876 66.9746 79.2192 66.9746C78.7508 66.9746 78.3711 67.354 78.3711 67.822C78.3711 68.2901 78.7508 68.6695 79.2192 68.6695Z" fill="#F29111"/>
<path d="M79.2192 70.8062C79.6876 70.8062 80.0674 70.4268 80.0674 69.9588C80.0674 69.4907 79.6876 69.1113 79.2192 69.1113C78.7508 69.1113 78.3711 69.4907 78.3711 69.9588C78.3711 70.4268 78.7508 70.8062 79.2192 70.8062Z" fill="#F29111"/>
<path d="M79.2192 72.9312C79.6876 72.9312 80.0674 72.5518 80.0674 72.0837C80.0674 71.6157 79.6876 71.2363 79.2192 71.2363C78.7508 71.2363 78.3711 71.6157 78.3711 72.0837C78.3711 72.5518 78.7508 72.9312 79.2192 72.9312Z" fill="#F29111"/>
<path d="M83.4849 64.4097C83.9533 64.4097 84.333 64.0303 84.333 63.5623C84.333 63.0942 83.9533 62.7148 83.4849 62.7148C83.0164 62.7148 82.6367 63.0942 82.6367 63.5623C82.6367 64.0303 83.0164 64.4097 83.4849 64.4097Z" fill="#F29111"/>
<path d="M83.4849 66.5464C83.9533 66.5464 84.333 66.167 84.333 65.699C84.333 65.231 83.9533 64.8516 83.4849 64.8516C83.0164 64.8516 82.6367 65.231 82.6367 65.699C82.6367 66.167 83.0164 66.5464 83.4849 66.5464Z" fill="#F29111"/>
<path d="M83.4849 68.6695C83.9533 68.6695 84.333 68.2901 84.333 67.822C84.333 67.354 83.9533 66.9746 83.4849 66.9746C83.0164 66.9746 82.6367 67.354 82.6367 67.822C82.6367 68.2901 83.0164 68.6695 83.4849 68.6695Z" fill="#F29111"/>
<path d="M83.4849 70.8062C83.9533 70.8062 84.333 70.4268 84.333 69.9588C84.333 69.4907 83.9533 69.1113 83.4849 69.1113C83.0164 69.1113 82.6367 69.4907 82.6367 69.9588C82.6367 70.4268 83.0164 70.8062 83.4849 70.8062Z" fill="#F29111"/>
<path d="M83.4849 72.9312C83.9533 72.9312 84.333 72.5518 84.333 72.0837C84.333 71.6157 83.9533 71.2363 83.4849 71.2363C83.0164 71.2363 82.6367 71.6157 82.6367 72.0837C82.6367 72.5518 83.0164 72.9312 83.4849 72.9312Z" fill="#F29111"/>
<path d="M89.8716 64.4097C90.34 64.4097 90.7197 64.0303 90.7197 63.5623C90.7197 63.0942 90.34 62.7148 89.8716 62.7148C89.4032 62.7148 89.0234 63.0942 89.0234 63.5623C89.0234 64.0303 89.4032 64.4097 89.8716 64.4097Z" fill="#F29111"/>
<path d="M89.8716 66.5464C90.34 66.5464 90.7197 66.167 90.7197 65.699C90.7197 65.231 90.34 64.8516 89.8716 64.8516C89.4032 64.8516 89.0234 65.231 89.0234 65.699C89.0234 66.167 89.4032 66.5464 89.8716 66.5464Z" fill="#F29111"/>
<path d="M89.8716 68.6695C90.34 68.6695 90.7197 68.2901 90.7197 67.822C90.7197 67.354 90.34 66.9746 89.8716 66.9746C89.4032 66.9746 89.0234 67.354 89.0234 67.822C89.0234 68.2901 89.4032 68.6695 89.8716 68.6695Z" fill="#F29111"/>
<path d="M89.8716 70.8062C90.34 70.8062 90.7197 70.4268 90.7197 69.9588C90.7197 69.4907 90.34 69.1113 89.8716 69.1113C89.4032 69.1113 89.0234 69.4907 89.0234 69.9588C89.0234 70.4268 89.4032 70.8062 89.8716 70.8062Z" fill="#F29111"/>
<path d="M89.8716 72.9312C90.34 72.9312 90.7197 72.5518 90.7197 72.0837C90.7197 71.6157 90.34 71.2363 89.8716 71.2363C89.4032 71.2363 89.0234 71.6157 89.0234 72.0837C89.0234 72.5518 89.4032 72.9312 89.8716 72.9312Z" fill="#F29111"/>
<path d="M85.6216 64.4097C86.09 64.4097 86.4697 64.0303 86.4697 63.5623C86.4697 63.0942 86.09 62.7148 85.6216 62.7148C85.1532 62.7148 84.7734 63.0942 84.7734 63.5623C84.7734 64.0303 85.1532 64.4097 85.6216 64.4097Z" fill="#F29111"/>
<path d="M85.6216 66.5464C86.09 66.5464 86.4697 66.167 86.4697 65.699C86.4697 65.231 86.09 64.8516 85.6216 64.8516C85.1532 64.8516 84.7734 65.231 84.7734 65.699C84.7734 66.167 85.1532 66.5464 85.6216 66.5464Z" fill="#F29111"/>
<path d="M85.6216 68.6695C86.09 68.6695 86.4697 68.2901 86.4697 67.822C86.4697 67.354 86.09 66.9746 85.6216 66.9746C85.1532 66.9746 84.7734 67.354 84.7734 67.822C84.7734 68.2901 85.1532 68.6695 85.6216 68.6695Z" fill="#F29111"/>
<path d="M85.6216 70.8062C86.09 70.8062 86.4697 70.4268 86.4697 69.9588C86.4697 69.4907 86.09 69.1113 85.6216 69.1113C85.1532 69.1113 84.7734 69.4907 84.7734 69.9588C84.7734 70.4268 85.1532 70.8062 85.6216 70.8062Z" fill="#F29111"/>
<path d="M85.6216 72.9312C86.09 72.9312 86.4697 72.5518 86.4697 72.0837C86.4697 71.6157 86.09 71.2363 85.6216 71.2363C85.1532 71.2363 84.7734 71.6157 84.7734 72.0837C84.7734 72.5518 85.1532 72.9312 85.6216 72.9312Z" fill="#F29111"/>
<path d="M92.0122 64.4097C92.4806 64.4097 92.8603 64.0303 92.8603 63.5623C92.8603 63.0942 92.4806 62.7148 92.0122 62.7148C91.5438 62.7148 91.1641 63.0942 91.1641 63.5623C91.1641 64.0303 91.5438 64.4097 92.0122 64.4097Z" fill="#F29111"/>
<path d="M92.0122 66.5464C92.4806 66.5464 92.8603 66.167 92.8603 65.699C92.8603 65.231 92.4806 64.8516 92.0122 64.8516C91.5438 64.8516 91.1641 65.231 91.1641 65.699C91.1641 66.167 91.5438 66.5464 92.0122 66.5464Z" fill="#F29111"/>
<path d="M92.0122 68.6695C92.4806 68.6695 92.8603 68.2901 92.8603 67.822C92.8603 67.354 92.4806 66.9746 92.0122 66.9746C91.5438 66.9746 91.1641 67.354 91.1641 67.822C91.1641 68.2901 91.5438 68.6695 92.0122 68.6695Z" fill="#F29111"/>
<path d="M92.0122 70.8062C92.4806 70.8062 92.8603 70.4268 92.8603 69.9588C92.8603 69.4907 92.4806 69.1113 92.0122 69.1113C91.5438 69.1113 91.1641 69.4907 91.1641 69.9588C91.1641 70.4268 91.5438 70.8062 92.0122 70.8062Z" fill="#F29111"/>
<path d="M92.0122 72.9312C92.4806 72.9312 92.8603 72.5518 92.8603 72.0837C92.8603 71.6157 92.4806 71.2363 92.0122 71.2363C91.5438 71.2363 91.1641 71.6157 91.1641 72.0837C91.1641 72.5518 91.5438 72.9312 92.0122 72.9312Z" fill="#F29111"/>
<path d="M81.356 64.4097C81.8244 64.4097 82.2041 64.0303 82.2041 63.5623C82.2041 63.0942 81.8244 62.7148 81.356 62.7148C80.8875 62.7148 80.5078 63.0942 80.5078 63.5623C80.5078 64.0303 80.8875 64.4097 81.356 64.4097Z" fill="#F29111"/>
<path d="M81.356 66.5464C81.8244 66.5464 82.2041 66.167 82.2041 65.699C82.2041 65.231 81.8244 64.8516 81.356 64.8516C80.8875 64.8516 80.5078 65.231 80.5078 65.699C80.5078 66.167 80.8875 66.5464 81.356 66.5464Z" fill="#F29111"/>
<path d="M81.356 68.6695C81.8244 68.6695 82.2041 68.2901 82.2041 67.822C82.2041 67.354 81.8244 66.9746 81.356 66.9746C80.8875 66.9746 80.5078 67.354 80.5078 67.822C80.5078 68.2901 80.8875 68.6695 81.356 68.6695Z" fill="#F29111"/>
<path d="M81.356 70.8062C81.8244 70.8062 82.2041 70.4268 82.2041 69.9588C82.2041 69.4907 81.8244 69.1113 81.356 69.1113C80.8875 69.1113 80.5078 69.4907 80.5078 69.9588C80.5078 70.4268 80.8875 70.8062 81.356 70.8062Z" fill="#F29111"/>
<path d="M81.356 72.9312C81.8244 72.9312 82.2041 72.5518 82.2041 72.0837C82.2041 71.6157 81.8244 71.2363 81.356 71.2363C80.8875 71.2363 80.5078 71.6157 80.5078 72.0837C80.5078 72.5518 80.8875 72.9312 81.356 72.9312Z" fill="#F29111"/>
<path d="M87.7466 64.4097C88.215 64.4097 88.5947 64.0303 88.5947 63.5623C88.5947 63.0942 88.215 62.7148 87.7466 62.7148C87.2782 62.7148 86.8984 63.0942 86.8984 63.5623C86.8984 64.0303 87.2782 64.4097 87.7466 64.4097Z" fill="#F29111"/>
<path d="M87.7466 66.5464C88.215 66.5464 88.5947 66.167 88.5947 65.699C88.5947 65.231 88.215 64.8516 87.7466 64.8516C87.2782 64.8516 86.8984 65.231 86.8984 65.699C86.8984 66.167 87.2782 66.5464 87.7466 66.5464Z" fill="#F29111"/>
<path d="M87.7466 68.6695C88.215 68.6695 88.5947 68.2901 88.5947 67.822C88.5947 67.354 88.215 66.9746 87.7466 66.9746C87.2782 66.9746 86.8984 67.354 86.8984 67.822C86.8984 68.2901 87.2782 68.6695 87.7466 68.6695Z" fill="#F29111"/>
<path d="M87.7466 70.8062C88.215 70.8062 88.5947 70.4268 88.5947 69.9588C88.5947 69.4907 88.215 69.1113 87.7466 69.1113C87.2782 69.1113 86.8984 69.4907 86.8984 69.9588C86.8984 70.4268 87.2782 70.8062 87.7466 70.8062Z" fill="#F29111"/>
<path d="M87.7466 72.9312C88.215 72.9312 88.5947 72.5518 88.5947 72.0837C88.5947 71.6157 88.215 71.2363 87.7466 71.2363C87.2782 71.2363 86.8984 71.6157 86.8984 72.0837C86.8984 72.5518 87.2782 72.9312 87.7466 72.9312Z" fill="#F29111"/>
<path d="M94.1372 64.4097C94.6056 64.4097 94.9853 64.0303 94.9853 63.5623C94.9853 63.0942 94.6056 62.7148 94.1372 62.7148C93.6688 62.7148 93.2891 63.0942 93.2891 63.5623C93.2891 64.0303 93.6688 64.4097 94.1372 64.4097Z" fill="#F29111"/>
<path d="M94.1372 66.5464C94.6056 66.5464 94.9853 66.167 94.9853 65.699C94.9853 65.231 94.6056 64.8516 94.1372 64.8516C93.6688 64.8516 93.2891 65.231 93.2891 65.699C93.2891 66.167 93.6688 66.5464 94.1372 66.5464Z" fill="#F29111"/>
<path d="M94.1372 68.6695C94.6056 68.6695 94.9853 68.2901 94.9853 67.822C94.9853 67.354 94.6056 66.9746 94.1372 66.9746C93.6688 66.9746 93.2891 67.354 93.2891 67.822C93.2891 68.2901 93.6688 68.6695 94.1372 68.6695Z" fill="#F29111"/>
<path d="M94.1372 70.8062C94.6056 70.8062 94.9853 70.4268 94.9853 69.9588C94.9853 69.4907 94.6056 69.1113 94.1372 69.1113C93.6688 69.1113 93.2891 69.4907 93.2891 69.9588C93.2891 70.4268 93.6688 70.8062 94.1372 70.8062Z" fill="#F29111"/>
<path d="M94.1372 72.9312C94.6056 72.9312 94.9853 72.5518 94.9853 72.0837C94.9853 71.6157 94.6056 71.2363 94.1372 71.2363C93.6688 71.2363 93.2891 71.6157 93.2891 72.0837C93.2891 72.5518 93.6688 72.9312 94.1372 72.9312Z" fill="#F29111"/>
<path d="M74.9536 75.0542C75.422 75.0542 75.8017 74.6748 75.8017 74.2068C75.8017 73.7388 75.422 73.3594 74.9536 73.3594C74.4852 73.3594 74.1055 73.7388 74.1055 74.2068C74.1055 74.6748 74.4852 75.0542 74.9536 75.0542Z" fill="#F29111"/>
<path d="M74.9536 77.1909C75.422 77.1909 75.8017 76.8116 75.8017 76.3435C75.8017 75.8755 75.422 75.4961 74.9536 75.4961C74.4852 75.4961 74.1055 75.8755 74.1055 76.3435C74.1055 76.8116 74.4852 77.1909 74.9536 77.1909Z" fill="#F29111"/>
<path d="M77.0942 75.0542C77.5626 75.0542 77.9424 74.6748 77.9424 74.2068C77.9424 73.7388 77.5626 73.3594 77.0942 73.3594C76.6258 73.3594 76.2461 73.7388 76.2461 74.2068C76.2461 74.6748 76.6258 75.0542 77.0942 75.0542Z" fill="#F29111"/>
<path d="M77.0942 77.1909C77.5626 77.1909 77.9424 76.8116 77.9424 76.3435C77.9424 75.8755 77.5626 75.4961 77.0942 75.4961C76.6258 75.4961 76.2461 75.8755 76.2461 76.3435C76.2461 76.8116 76.6258 77.1909 77.0942 77.1909Z" fill="#F29111"/>
<path d="M72.8286 75.0542C73.297 75.0542 73.6767 74.6748 73.6767 74.2068C73.6767 73.7388 73.297 73.3594 72.8286 73.3594C72.3602 73.3594 71.9805 73.7388 71.9805 74.2068C71.9805 74.6748 72.3602 75.0542 72.8286 75.0542Z" fill="#F29111"/>
<path d="M72.8286 77.1909C73.297 77.1909 73.6767 76.8116 73.6767 76.3435C73.6767 75.8755 73.297 75.4961 72.8286 75.4961C72.3602 75.4961 71.9805 75.8755 71.9805 76.3435C71.9805 76.8116 72.3602 77.1909 72.8286 77.1909Z" fill="#F29111"/>
<path d="M79.2192 75.0542C79.6876 75.0542 80.0674 74.6748 80.0674 74.2068C80.0674 73.7388 79.6876 73.3594 79.2192 73.3594C78.7508 73.3594 78.3711 73.7388 78.3711 74.2068C78.3711 74.6748 78.7508 75.0542 79.2192 75.0542Z" fill="#F29111"/>
<path d="M79.2192 77.1909C79.6876 77.1909 80.0674 76.8116 80.0674 76.3435C80.0674 75.8755 79.6876 75.4961 79.2192 75.4961C78.7508 75.4961 78.3711 75.8755 78.3711 76.3435C78.3711 76.8116 78.7508 77.1909 79.2192 77.1909Z" fill="#F29111"/>
<path d="M83.4849 75.0542C83.9533 75.0542 84.333 74.6748 84.333 74.2068C84.333 73.7388 83.9533 73.3594 83.4849 73.3594C83.0164 73.3594 82.6367 73.7388 82.6367 74.2068C82.6367 74.6748 83.0164 75.0542 83.4849 75.0542Z" fill="#F29111"/>
<path d="M83.4849 77.1909C83.9533 77.1909 84.333 76.8116 84.333 76.3435C84.333 75.8755 83.9533 75.4961 83.4849 75.4961C83.0164 75.4961 82.6367 75.8755 82.6367 76.3435C82.6367 76.8116 83.0164 77.1909 83.4849 77.1909Z" fill="#F29111"/>
<path d="M89.8716 75.0542C90.34 75.0542 90.7197 74.6748 90.7197 74.2068C90.7197 73.7388 90.34 73.3594 89.8716 73.3594C89.4032 73.3594 89.0234 73.7388 89.0234 74.2068C89.0234 74.6748 89.4032 75.0542 89.8716 75.0542Z" fill="#F29111"/>
<path d="M89.8716 77.1909C90.34 77.1909 90.7197 76.8116 90.7197 76.3435C90.7197 75.8755 90.34 75.4961 89.8716 75.4961C89.4032 75.4961 89.0234 75.8755 89.0234 76.3435C89.0234 76.8116 89.4032 77.1909 89.8716 77.1909Z" fill="#F29111"/>
<path d="M85.6216 75.0542C86.09 75.0542 86.4697 74.6748 86.4697 74.2068C86.4697 73.7388 86.09 73.3594 85.6216 73.3594C85.1532 73.3594 84.7734 73.7388 84.7734 74.2068C84.7734 74.6748 85.1532 75.0542 85.6216 75.0542Z" fill="#F29111"/>
<path d="M85.6216 77.1909C86.09 77.1909 86.4697 76.8116 86.4697 76.3435C86.4697 75.8755 86.09 75.4961 85.6216 75.4961C85.1532 75.4961 84.7734 75.8755 84.7734 76.3435C84.7734 76.8116 85.1532 77.1909 85.6216 77.1909Z" fill="#F29111"/>
<path d="M92.0122 75.0542C92.4806 75.0542 92.8603 74.6748 92.8603 74.2068C92.8603 73.7388 92.4806 73.3594 92.0122 73.3594C91.5438 73.3594 91.1641 73.7388 91.1641 74.2068C91.1641 74.6748 91.5438 75.0542 92.0122 75.0542Z" fill="#F29111"/>
<path d="M92.0122 77.1909C92.4806 77.1909 92.8603 76.8116 92.8603 76.3435C92.8603 75.8755 92.4806 75.4961 92.0122 75.4961C91.5438 75.4961 91.1641 75.8755 91.1641 76.3435C91.1641 76.8116 91.5438 77.1909 92.0122 77.1909Z" fill="#F29111"/>
<path d="M81.356 75.0542C81.8244 75.0542 82.2041 74.6748 82.2041 74.2068C82.2041 73.7388 81.8244 73.3594 81.356 73.3594C80.8875 73.3594 80.5078 73.7388 80.5078 74.2068C80.5078 74.6748 80.8875 75.0542 81.356 75.0542Z" fill="#F29111"/>
<path d="M81.356 77.1909C81.8244 77.1909 82.2041 76.8116 82.2041 76.3435C82.2041 75.8755 81.8244 75.4961 81.356 75.4961C80.8875 75.4961 80.5078 75.8755 80.5078 76.3435C80.5078 76.8116 80.8875 77.1909 81.356 77.1909Z" fill="#F29111"/>
<path d="M87.7466 75.0542C88.215 75.0542 88.5947 74.6748 88.5947 74.2068C88.5947 73.7388 88.215 73.3594 87.7466 73.3594C87.2782 73.3594 86.8984 73.7388 86.8984 74.2068C86.8984 74.6748 87.2782 75.0542 87.7466 75.0542Z" fill="#F29111"/>
<path d="M87.7466 77.1909C88.215 77.1909 88.5947 76.8116 88.5947 76.3435C88.5947 75.8755 88.215 75.4961 87.7466 75.4961C87.2782 75.4961 86.8984 75.8755 86.8984 76.3435C86.8984 76.8116 87.2782 77.1909 87.7466 77.1909Z" fill="#F29111"/>
<path d="M94.1372 75.0542C94.6056 75.0542 94.9853 74.6748 94.9853 74.2068C94.9853 73.7388 94.6056 73.3594 94.1372 73.3594C93.6688 73.3594 93.2891 73.7388 93.2891 74.2068C93.2891 74.6748 93.6688 75.0542 94.1372 75.0542Z" fill="#F29111"/>
<path d="M94.1372 77.1909C94.6056 77.1909 94.9853 76.8116 94.9853 76.3435C94.9853 75.8755 94.6056 75.4961 94.1372 75.4961C93.6688 75.4961 93.2891 75.8755 93.2891 76.3435C93.2891 76.8116 93.6688 77.1909 94.1372 77.1909Z" fill="#F29111"/>
</g>
<mask id="mask1_1992_673" style="mask-type:luminance" maskUnits="userSpaceOnUse" x="45" y="63" width="22" height="13">
<path d="M66.2881 75.6462C66.2881 75.6462 61.6175 71.2001 55.8433 71.2001C50.069 71.2001 45.3984 76.4704 45.3984 75.6462C45.3984 68.9248 50.069 63.4688 55.8433 63.4688C61.6175 63.4688 66.2881 68.9132 66.2881 75.6462Z" fill="white"/>
</mask>
<g mask="url(#mask1_1992_673)">
<path d="M47.3247 64.4097C47.7931 64.4097 48.1728 64.0303 48.1728 63.5623C48.1728 63.0942 47.7931 62.7148 47.3247 62.7148C46.8563 62.7148 46.4766 63.0942 46.4766 63.5623C46.4766 64.0303 46.8563 64.4097 47.3247 64.4097Z" fill="#F29111"/>
<path d="M47.3247 66.5464C47.7931 66.5464 48.1728 66.167 48.1728 65.699C48.1728 65.231 47.7931 64.8516 47.3247 64.8516C46.8563 64.8516 46.4766 65.231 46.4766 65.699C46.4766 66.167 46.8563 66.5464 47.3247 66.5464Z" fill="#F29111"/>
<path d="M47.3247 68.6695C47.7931 68.6695 48.1728 68.2901 48.1728 67.822C48.1728 67.354 47.7931 66.9746 47.3247 66.9746C46.8563 66.9746 46.4766 67.354 46.4766 67.822C46.4766 68.2901 46.8563 68.6695 47.3247 68.6695Z" fill="#F29111"/>
<path d="M47.3247 70.8062C47.7931 70.8062 48.1728 70.4268 48.1728 69.9588C48.1728 69.4907 47.7931 69.1113 47.3247 69.1113C46.8563 69.1113 46.4766 69.4907 46.4766 69.9588C46.4766 70.4268 46.8563 70.8062 47.3247 70.8062Z" fill="#F29111"/>
<path d="M47.3247 72.9312C47.7931 72.9312 48.1728 72.5518 48.1728 72.0837C48.1728 71.6157 47.7931 71.2363 47.3247 71.2363C46.8563 71.2363 46.4766 71.6157 46.4766 72.0837C46.4766 72.5518 46.8563 72.9312 47.3247 72.9312Z" fill="#F29111"/>
<path d="M49.4653 64.4097C49.9337 64.4097 50.3135 64.0303 50.3135 63.5623C50.3135 63.0942 49.9337 62.7148 49.4653 62.7148C48.9969 62.7148 48.6172 63.0942 48.6172 63.5623C48.6172 64.0303 48.9969 64.4097 49.4653 64.4097Z" fill="#F29111"/>
<path d="M49.4653 66.5464C49.9337 66.5464 50.3135 66.167 50.3135 65.699C50.3135 65.231 49.9337 64.8516 49.4653 64.8516C48.9969 64.8516 48.6172 65.231 48.6172 65.699C48.6172 66.167 48.9969 66.5464 49.4653 66.5464Z" fill="#F29111"/>
<path d="M49.4653 68.6695C49.9337 68.6695 50.3135 68.2901 50.3135 67.822C50.3135 67.354 49.9337 66.9746 49.4653 66.9746C48.9969 66.9746 48.6172 67.354 48.6172 67.822C48.6172 68.2901 48.9969 68.6695 49.4653 68.6695Z" fill="#F29111"/>
<path d="M49.4653 70.8062C49.9337 70.8062 50.3135 70.4268 50.3135 69.9588C50.3135 69.4907 49.9337 69.1113 49.4653 69.1113C48.9969 69.1113 48.6172 69.4907 48.6172 69.9588C48.6172 70.4268 48.9969 70.8062 49.4653 70.8062Z" fill="#F29111"/>
<path d="M49.4653 72.9312C49.9337 72.9312 50.3135 72.5518 50.3135 72.0837C50.3135 71.6157 49.9337 71.2363 49.4653 71.2363C48.9969 71.2363 48.6172 71.6157 48.6172 72.0837C48.6172 72.5518 48.9969 72.9312 49.4653 72.9312Z" fill="#F29111"/>
<path d="M45.1997 64.4097C45.6681 64.4097 46.0478 64.0303 46.0478 63.5623C46.0478 63.0942 45.6681 62.7148 45.1997 62.7148C44.7313 62.7148 44.3516 63.0942 44.3516 63.5623C44.3516 64.0303 44.7313 64.4097 45.1997 64.4097Z" fill="#F29111"/>
<path d="M45.1997 66.5464C45.6681 66.5464 46.0478 66.167 46.0478 65.699C46.0478 65.231 45.6681 64.8516 45.1997 64.8516C44.7313 64.8516 44.3516 65.231 44.3516 65.699C44.3516 66.167 44.7313 66.5464 45.1997 66.5464Z" fill="#F29111"/>
<path d="M45.1997 68.6695C45.6681 68.6695 46.0478 68.2901 46.0478 67.822C46.0478 67.354 45.6681 66.9746 45.1997 66.9746C44.7313 66.9746 44.3516 67.354 44.3516 67.822C44.3516 68.2901 44.7313 68.6695 45.1997 68.6695Z" fill="#F29111"/>
<path d="M45.1997 70.8062C45.6681 70.8062 46.0478 70.4268 46.0478 69.9588C46.0478 69.4907 45.6681 69.1113 45.1997 69.1113C44.7313 69.1113 44.3516 69.4907 44.3516 69.9588C44.3516 70.4268 44.7313 70.8062 45.1997 70.8062Z" fill="#F29111"/>
<path d="M45.1997 72.9312C45.6681 72.9312 46.0478 72.5518 46.0478 72.0837C46.0478 71.6157 45.6681 71.2363 45.1997 71.2363C44.7313 71.2363 44.3516 71.6157 44.3516 72.0837C44.3516 72.5518 44.7313 72.9312 45.1997 72.9312Z" fill="#F29111"/>
<path d="M51.5903 64.4097C52.0587 64.4097 52.4385 64.0303 52.4385 63.5623C52.4385 63.0942 52.0587 62.7148 51.5903 62.7148C51.1219 62.7148 50.7422 63.0942 50.7422 63.5623C50.7422 64.0303 51.1219 64.4097 51.5903 64.4097Z" fill="#F29111"/>
<path d="M51.5903 66.5464C52.0587 66.5464 52.4385 66.167 52.4385 65.699C52.4385 65.231 52.0587 64.8516 51.5903 64.8516C51.1219 64.8516 50.7422 65.231 50.7422 65.699C50.7422 66.167 51.1219 66.5464 51.5903 66.5464Z" fill="#F29111"/>
<path d="M51.5903 68.6695C52.0587 68.6695 52.4385 68.2901 52.4385 67.822C52.4385 67.354 52.0587 66.9746 51.5903 66.9746C51.1219 66.9746 50.7422 67.354 50.7422 67.822C50.7422 68.2901 51.1219 68.6695 51.5903 68.6695Z" fill="#F29111"/>
<path d="M51.5903 70.8062C52.0587 70.8062 52.4385 70.4268 52.4385 69.9588C52.4385 69.4907 52.0587 69.1113 51.5903 69.1113C51.1219 69.1113 50.7422 69.4907 50.7422 69.9588C50.7422 70.4268 51.1219 70.8062 51.5903 70.8062Z" fill="#F29111"/>
<path d="M51.5903 72.9312C52.0587 72.9312 52.4385 72.5518 52.4385 72.0837C52.4385 71.6157 52.0587 71.2363 51.5903 71.2363C51.1219 71.2363 50.7422 71.6157 50.7422 72.0837C50.7422 72.5518 51.1219 72.9312 51.5903 72.9312Z" fill="#F29111"/>
<path d="M55.8559 64.4097C56.3244 64.4097 56.7041 64.0303 56.7041 63.5623C56.7041 63.0942 56.3244 62.7148 55.8559 62.7148C55.3875 62.7148 55.0078 63.0942 55.0078 63.5623C55.0078 64.0303 55.3875 64.4097 55.8559 64.4097Z" fill="#F29111"/>
<path d="M55.8559 66.5464C56.3244 66.5464 56.7041 66.167 56.7041 65.699C56.7041 65.231 56.3244 64.8516 55.8559 64.8516C55.3875 64.8516 55.0078 65.231 55.0078 65.699C55.0078 66.167 55.3875 66.5464 55.8559 66.5464Z" fill="#F29111"/>
<path d="M55.8559 68.6695C56.3244 68.6695 56.7041 68.2901 56.7041 67.822C56.7041 67.354 56.3244 66.9746 55.8559 66.9746C55.3875 66.9746 55.0078 67.354 55.0078 67.822C55.0078 68.2901 55.3875 68.6695 55.8559 68.6695Z" fill="#F29111"/>
<path d="M55.8559 70.8062C56.3244 70.8062 56.7041 70.4268 56.7041 69.9588C56.7041 69.4907 56.3244 69.1113 55.8559 69.1113C55.3875 69.1113 55.0078 69.4907 55.0078 69.9588C55.0078 70.4268 55.3875 70.8062 55.8559 70.8062Z" fill="#F29111"/>
<path d="M55.8559 72.9312C56.3244 72.9312 56.7041 72.5518 56.7041 72.0837C56.7041 71.6157 56.3244 71.2363 55.8559 71.2363C55.3875 71.2363 55.0078 71.6157 55.0078 72.0837C55.0078 72.5518 55.3875 72.9312 55.8559 72.9312Z" fill="#F29111"/>
<path d="M62.2427 64.4097C62.7111 64.4097 63.0908 64.0303 63.0908 63.5623C63.0908 63.0942 62.7111 62.7148 62.2427 62.7148C61.7743 62.7148 61.3945 63.0942 61.3945 63.5623C61.3945 64.0303 61.7743 64.4097 62.2427 64.4097Z" fill="#F29111"/>
<path d="M62.2427 66.5464C62.7111 66.5464 63.0908 66.167 63.0908 65.699C63.0908 65.231 62.7111 64.8516 62.2427 64.8516C61.7743 64.8516 61.3945 65.231 61.3945 65.699C61.3945 66.167 61.7743 66.5464 62.2427 66.5464Z" fill="#F29111"/>
<path d="M62.2427 68.6695C62.7111 68.6695 63.0908 68.2901 63.0908 67.822C63.0908 67.354 62.7111 66.9746 62.2427 66.9746C61.7743 66.9746 61.3945 67.354 61.3945 67.822C61.3945 68.2901 61.7743 68.6695 62.2427 68.6695Z" fill="#F29111"/>
<path d="M62.2427 70.8062C62.7111 70.8062 63.0908 70.4268 63.0908 69.9588C63.0908 69.4907 62.7111 69.1113 62.2427 69.1113C61.7743 69.1113 61.3945 69.4907 61.3945 69.9588C61.3945 70.4268 61.7743 70.8062 62.2427 70.8062Z" fill="#F29111"/>
<path d="M62.2427 72.9312C62.7111 72.9312 63.0908 72.5518 63.0908 72.0837C63.0908 71.6157 62.7111 71.2363 62.2427 71.2363C61.7743 71.2363 61.3945 71.6157 61.3945 72.0837C61.3945 72.5518 61.7743 72.9312 62.2427 72.9312Z" fill="#F29111"/>
<path d="M57.9927 64.4097C58.4611 64.4097 58.8408 64.0303 58.8408 63.5623C58.8408 63.0942 58.4611 62.7148 57.9927 62.7148C57.5243 62.7148 57.1445 63.0942 57.1445 63.5623C57.1445 64.0303 57.5243 64.4097 57.9927 64.4097Z" fill="#F29111"/>
<path d="M57.9927 66.5464C58.4611 66.5464 58.8408 66.167 58.8408 65.699C58.8408 65.231 58.4611 64.8516 57.9927 64.8516C57.5243 64.8516 57.1445 65.231 57.1445 65.699C57.1445 66.167 57.5243 66.5464 57.9927 66.5464Z" fill="#F29111"/>
<path d="M57.9927 68.6695C58.4611 68.6695 58.8408 68.2901 58.8408 67.822C58.8408 67.354 58.4611 66.9746 57.9927 66.9746C57.5243 66.9746 57.1445 67.354 57.1445 67.822C57.1445 68.2901 57.5243 68.6695 57.9927 68.6695Z" fill="#F29111"/>
<path d="M57.9927 70.8062C58.4611 70.8062 58.8408 70.4268 58.8408 69.9588C58.8408 69.4907 58.4611 69.1113 57.9927 69.1113C57.5243 69.1113 57.1445 69.4907 57.1445 69.9588C57.1445 70.4268 57.5243 70.8062 57.9927 70.8062Z" fill="#F29111"/>
<path d="M57.9927 72.9312C58.4611 72.9312 58.8408 72.5518 58.8408 72.0837C58.8408 71.6157 58.4611 71.2363 57.9927 71.2363C57.5243 71.2363 57.1445 71.6157 57.1445 72.0837C57.1445 72.5518 57.5243 72.9312 57.9927 72.9312Z" fill="#F29111"/>
<path d="M64.3833 64.4097C64.8517 64.4097 65.2314 64.0303 65.2314 63.5623C65.2314 63.0942 64.8517 62.7148 64.3833 62.7148C63.9149 62.7148 63.5352 63.0942 63.5352 63.5623C63.5352 64.0303 63.9149 64.4097 64.3833 64.4097Z" fill="#F29111"/>
<path d="M64.3833 66.5464C64.8517 66.5464 65.2314 66.167 65.2314 65.699C65.2314 65.231 64.8517 64.8516 64.3833 64.8516C63.9149 64.8516 63.5352 65.231 63.5352 65.699C63.5352 66.167 63.9149 66.5464 64.3833 66.5464Z" fill="#F29111"/>
<path d="M64.3833 68.6695C64.8517 68.6695 65.2314 68.2901 65.2314 67.822C65.2314 67.354 64.8517 66.9746 64.3833 66.9746C63.9149 66.9746 63.5352 67.354 63.5352 67.822C63.5352 68.2901 63.9149 68.6695 64.3833 68.6695Z" fill="#F29111"/>
<path d="M64.3833 70.8062C64.8517 70.8062 65.2314 70.4268 65.2314 69.9588C65.2314 69.4907 64.8517 69.1113 64.3833 69.1113C63.9149 69.1113 63.5352 69.4907 63.5352 69.9588C63.5352 70.4268 63.9149 70.8062 64.3833 70.8062Z" fill="#F29111"/>
<path d="M64.3833 72.9312C64.8517 72.9312 65.2314 72.5518 65.2314 72.0837C65.2314 71.6157 64.8517 71.2363 64.3833 71.2363C63.9149 71.2363 63.5352 71.6157 63.5352 72.0837C63.5352 72.5518 63.9149 72.9312 64.3833 72.9312Z" fill="#F29111"/>
<path d="M53.727 64.4097C54.1954 64.4097 54.5752 64.0303 54.5752 63.5623C54.5752 63.0942 54.1954 62.7148 53.727 62.7148C53.2586 62.7148 52.8789 63.0942 52.8789 63.5623C52.8789 64.0303 53.2586 64.4097 53.727 64.4097Z" fill="#F29111"/>
<path d="M53.727 66.5464C54.1954 66.5464 54.5752 66.167 54.5752 65.699C54.5752 65.231 54.1954 64.8516 53.727 64.8516C53.2586 64.8516 52.8789 65.231 52.8789 65.699C52.8789 66.167 53.2586 66.5464 53.727 66.5464Z" fill="#F29111"/>
<path d="M53.727 68.6695C54.1954 68.6695 54.5752 68.2901 54.5752 67.822C54.5752 67.354 54.1954 66.9746 53.727 66.9746C53.2586 66.9746 52.8789 67.354 52.8789 67.822C52.8789 68.2901 53.2586 68.6695 53.727 68.6695Z" fill="#F29111"/>
<path d="M53.727 70.8062C54.1954 70.8062 54.5752 70.4268 54.5752 69.9588C54.5752 69.4907 54.1954 69.1113 53.727 69.1113C53.2586 69.1113 52.8789 69.4907 52.8789 69.9588C52.8789 70.4268 53.2586 70.8062 53.727 70.8062Z" fill="#F29111"/>
<path d="M53.727 72.9312C54.1954 72.9312 54.5752 72.5518 54.5752 72.0837C54.5752 71.6157 54.1954 71.2363 53.727 71.2363C53.2586 71.2363 52.8789 71.6157 52.8789 72.0837C52.8789 72.5518 53.2586 72.9312 53.727 72.9312Z" fill="#F29111"/>
<path d="M60.1177 64.4097C60.5861 64.4097 60.9658 64.0303 60.9658 63.5623C60.9658 63.0942 60.5861 62.7148 60.1177 62.7148C59.6492 62.7148 59.2695 63.0942 59.2695 63.5623C59.2695 64.0303 59.6492 64.4097 60.1177 64.4097Z" fill="#F29111"/>
<path d="M60.1177 66.5464C60.5861 66.5464 60.9658 66.167 60.9658 65.699C60.9658 65.231 60.5861 64.8516 60.1177 64.8516C59.6492 64.8516 59.2695 65.231 59.2695 65.699C59.2695 66.167 59.6492 66.5464 60.1177 66.5464Z" fill="#F29111"/>
<path d="M60.1177 68.6695C60.5861 68.6695 60.9658 68.2901 60.9658 67.822C60.9658 67.354 60.5861 66.9746 60.1177 66.9746C59.6492 66.9746 59.2695 67.354 59.2695 67.822C59.2695 68.2901 59.6492 68.6695 60.1177 68.6695Z" fill="#F29111"/>
<path d="M60.1177 70.8062C60.5861 70.8062 60.9658 70.4268 60.9658 69.9588C60.9658 69.4907 60.5861 69.1113 60.1177 69.1113C59.6492 69.1113 59.2695 69.4907 59.2695 69.9588C59.2695 70.4268 59.6492 70.8062 60.1177 70.8062Z" fill="#F29111"/>
<path d="M60.1177 72.9312C60.5861 72.9312 60.9658 72.5518 60.9658 72.0837C60.9658 71.6157 60.5861 71.2363 60.1177 71.2363C59.6492 71.2363 59.2695 71.6157 59.2695 72.0837C59.2695 72.5518 59.6492 72.9312 60.1177 72.9312Z" fill="#F29111"/>
<path d="M66.5083 64.4097C66.9767 64.4097 67.3564 64.0303 67.3564 63.5623C67.3564 63.0942 66.9767 62.7148 66.5083 62.7148C66.0399 62.7148 65.6602 63.0942 65.6602 63.5623C65.6602 64.0303 66.0399 64.4097 66.5083 64.4097Z" fill="#F29111"/>
<path d="M66.5083 66.5464C66.9767 66.5464 67.3564 66.167 67.3564 65.699C67.3564 65.231 66.9767 64.8516 66.5083 64.8516C66.0399 64.8516 65.6602 65.231 65.6602 65.699C65.6602 66.167 66.0399 66.5464 66.5083 66.5464Z" fill="#F29111"/>
<path d="M66.5083 68.6695C66.9767 68.6695 67.3564 68.2901 67.3564 67.822C67.3564 67.354 66.9767 66.9746 66.5083 66.9746C66.0399 66.9746 65.6602 67.354 65.6602 67.822C65.6602 68.2901 66.0399 68.6695 66.5083 68.6695Z" fill="#F29111"/>
<path d="M66.5083 70.8062C66.9767 70.8062 67.3564 70.4268 67.3564 69.9588C67.3564 69.4907 66.9767 69.1113 66.5083 69.1113C66.0399 69.1113 65.6602 69.4907 65.6602 69.9588C65.6602 70.4268 66.0399 70.8062 66.5083 70.8062Z" fill="#F29111"/>
<path d="M66.5083 72.9312C66.9767 72.9312 67.3564 72.5518 67.3564 72.0837C67.3564 71.6157 66.9767 71.2363 66.5083 71.2363C66.0399 71.2363 65.6602 71.6157 65.6602 72.0837C65.6602 72.5518 66.0399 72.9312 66.5083 72.9312Z" fill="#F29111"/>
<path d="M47.3247 75.0542C47.7931 75.0542 48.1728 74.6748 48.1728 74.2068C48.1728 73.7388 47.7931 73.3594 47.3247 73.3594C46.8563 73.3594 46.4766 73.7388 46.4766 74.2068C46.4766 74.6748 46.8563 75.0542 47.3247 75.0542Z" fill="#F29111"/>
<path d="M47.3247 77.1909C47.7931 77.1909 48.1728 76.8116 48.1728 76.3435C48.1728 75.8755 47.7931 75.4961 47.3247 75.4961C46.8563 75.4961 46.4766 75.8755 46.4766 76.3435C46.4766 76.8116 46.8563 77.1909 47.3247 77.1909Z" fill="#F29111"/>
<path d="M49.4653 75.0542C49.9337 75.0542 50.3135 74.6748 50.3135 74.2068C50.3135 73.7388 49.9337 73.3594 49.4653 73.3594C48.9969 73.3594 48.6172 73.7388 48.6172 74.2068C48.6172 74.6748 48.9969 75.0542 49.4653 75.0542Z" fill="#F29111"/>
<path d="M49.4653 77.1909C49.9337 77.1909 50.3135 76.8116 50.3135 76.3435C50.3135 75.8755 49.9337 75.4961 49.4653 75.4961C48.9969 75.4961 48.6172 75.8755 48.6172 76.3435C48.6172 76.8116 48.9969 77.1909 49.4653 77.1909Z" fill="#F29111"/>
<path d="M45.1997 75.0542C45.6681 75.0542 46.0478 74.6748 46.0478 74.2068C46.0478 73.7388 45.6681 73.3594 45.1997 73.3594C44.7313 73.3594 44.3516 73.7388 44.3516 74.2068C44.3516 74.6748 44.7313 75.0542 45.1997 75.0542Z" fill="#F29111"/>
<path d="M45.1997 77.1909C45.6681 77.1909 46.0478 76.8116 46.0478 76.3435C46.0478 75.8755 45.6681 75.4961 45.1997 75.4961C44.7313 75.4961 44.3516 75.8755 44.3516 76.3435C44.3516 76.8116 44.7313 77.1909 45.1997 77.1909Z" fill="#F29111"/>
<path d="M51.5903 75.0542C52.0587 75.0542 52.4385 74.6748 52.4385 74.2068C52.4385 73.7388 52.0587 73.3594 51.5903 73.3594C51.1219 73.3594 50.7422 73.7388 50.7422 74.2068C50.7422 74.6748 51.1219 75.0542 51.5903 75.0542Z" fill="#F29111"/>
<path d="M51.5903 77.1909C52.0587 77.1909 52.4385 76.8116 52.4385 76.3435C52.4385 75.8755 52.0587 75.4961 51.5903 75.4961C51.1219 75.4961 50.7422 75.8755 50.7422 76.3435C50.7422 76.8116 51.1219 77.1909 51.5903 77.1909Z" fill="#F29111"/>
<path d="M55.8559 75.0542C56.3244 75.0542 56.7041 74.6748 56.7041 74.2068C56.7041 73.7388 56.3244 73.3594 55.8559 73.3594C55.3875 73.3594 55.0078 73.7388 55.0078 74.2068C55.0078 74.6748 55.3875 75.0542 55.8559 75.0542Z" fill="#F29111"/>
<path d="M55.8559 77.1909C56.3244 77.1909 56.7041 76.8116 56.7041 76.3435C56.7041 75.8755 56.3244 75.4961 55.8559 75.4961C55.3875 75.4961 55.0078 75.8755 55.0078 76.3435C55.0078 76.8116 55.3875 77.1909 55.8559 77.1909Z" fill="#F29111"/>
<path d="M62.2427 75.0542C62.7111 75.0542 63.0908 74.6748 63.0908 74.2068C63.0908 73.7388 62.7111 73.3594 62.2427 73.3594C61.7743 73.3594 61.3945 73.7388 61.3945 74.2068C61.3945 74.6748 61.7743 75.0542 62.2427 75.0542Z" fill="#F29111"/>
<path d="M62.2427 77.1909C62.7111 77.1909 63.0908 76.8116 63.0908 76.3435C63.0908 75.8755 62.7111 75.4961 62.2427 75.4961C61.7743 75.4961 61.3945 75.8755 61.3945 76.3435C61.3945 76.8116 61.7743 77.1909 62.2427 77.1909Z" fill="#F29111"/>
<path d="M57.9927 75.0542C58.4611 75.0542 58.8408 74.6748 58.8408 74.2068C58.8408 73.7388 58.4611 73.3594 57.9927 73.3594C57.5243 73.3594 57.1445 73.7388 57.1445 74.2068C57.1445 74.6748 57.5243 75.0542 57.9927 75.0542Z" fill="#F29111"/>
<path d="M57.9927 77.1909C58.4611 77.1909 58.8408 76.8116 58.8408 76.3435C58.8408 75.8755 58.4611 75.4961 57.9927 75.4961C57.5243 75.4961 57.1445 75.8755 57.1445 76.3435C57.1445 76.8116 57.5243 77.1909 57.9927 77.1909Z" fill="#F29111"/>
<path d="M64.3833 75.0542C64.8517 75.0542 65.2314 74.6748 65.2314 74.2068C65.2314 73.7388 64.8517 73.3594 64.3833 73.3594C63.9149 73.3594 63.5352 73.7388 63.5352 74.2068C63.5352 74.6748 63.9149 75.0542 64.3833 75.0542Z" fill="#F29111"/>
<path d="M64.3833 77.1909C64.8517 77.1909 65.2314 76.8116 65.2314 76.3435C65.2314 75.8755 64.8517 75.4961 64.3833 75.4961C63.9149 75.4961 63.5352 75.8755 63.5352 76.3435C63.5352 76.8116 63.9149 77.1909 64.3833 77.1909Z" fill="#F29111"/>
<path d="M53.727 75.0542C54.1954 75.0542 54.5752 74.6748 54.5752 74.2068C54.5752 73.7388 54.1954 73.3594 53.727 73.3594C53.2586 73.3594 52.8789 73.7388 52.8789 74.2068C52.8789 74.6748 53.2586 75.0542 53.727 75.0542Z" fill="#F29111"/>
<path d="M53.727 77.1909C54.1954 77.1909 54.5752 76.8116 54.5752 76.3435C54.5752 75.8755 54.1954 75.4961 53.727 75.4961C53.2586 75.4961 52.8789 75.8755 52.8789 76.3435C52.8789 76.8116 53.2586 77.1909 53.727 77.1909Z" fill="#F29111"/>
<path d="M60.1177 75.0542C60.5861 75.0542 60.9658 74.6748 60.9658 74.2068C60.9658 73.7388 60.5861 73.3594 60.1177 73.3594C59.6492 73.3594 59.2695 73.7388 59.2695 74.2068C59.2695 74.6748 59.6492 75.0542 60.1177 75.0542Z" fill="#F29111"/>
<path d="M60.1177 77.1909C60.5861 77.1909 60.9658 76.8116 60.9658 76.3435C60.9658 75.8755 60.5861 75.4961 60.1177 75.4961C59.6492 75.4961 59.2695 75.8755 59.2695 76.3435C59.2695 76.8116 59.6492 77.1909 60.1177 77.1909Z" fill="#F29111"/>
<path d="M66.5083 75.0542C66.9767 75.0542 67.3564 74.6748 67.3564 74.2068C67.3564 73.7388 66.9767 73.3594 66.5083 73.3594C66.0399 73.3594 65.6602 73.7388 65.6602 74.2068C65.6602 74.6748 66.0399 75.0542 66.5083 75.0542Z" fill="#F29111"/>
<path d="M66.5083 77.1909C66.9767 77.1909 67.3564 76.8116 67.3564 76.3435C67.3564 75.8755 66.9767 75.4961 66.5083 75.4961C66.0399 75.4961 65.6602 75.8755 65.6602 76.3435C65.6602 76.8116 66.0399 77.1909 66.5083 77.1909Z" fill="#F29111"/>
</g>
</svg>
