<svg width="200" height="200" viewBox="0 0 200 200" fill="none" xmlns="http://www.w3.org/2000/svg">
<g clip-path="url(#clip0_3034_2137)">
<mask id="mask0_3034_2137" style="mask-type:luminance" maskUnits="userSpaceOnUse" x="0" y="0" width="200" height="200">
<path d="M200 0H0V200H200V0Z" fill="white"/>
</mask>
<g mask="url(#mask0_3034_2137)">
<g filter="url(#filter0_d_3034_2137)">
<path d="M73.9858 42.0098C71.6423 51.1371 71.1354 66.2759 71.1961 73.3381L87.6921 62.9373C87.3667 50.1082 84.0122 41.282 81.7166 37.2733C81.2067 36.3827 80.0741 36.1546 79.1883 36.6731L77.347 37.7512C75.7214 38.703 74.4543 40.1852 73.9858 42.0098Z" fill="url(#paint0_linear_3034_2137)"/>
</g>
<g filter="url(#filter1_d_3034_2137)">
<g filter="url(#filter2_d_3034_2137)">
<path fill-rule="evenodd" clip-rule="evenodd" d="M144.616 80.0503C156.351 70.3327 174.619 52.169 179.34 41.5444C179.682 40.7734 179.431 39.8893 178.785 39.3477L177.351 38.1471C175.526 36.6198 172.975 36.2988 170.837 37.3411C159.713 42.7621 144.293 50.7445 127.797 64.5623C121.963 61.4952 115.267 59.5411 108.072 59.0636C83.5428 57.436 62.4988 73.5848 61.0689 95.1331C59.639 116.681 78.3646 135.469 102.894 137.097C127.423 138.725 148.467 122.576 149.897 101.027C150.397 93.4924 148.432 86.2947 144.616 80.0503Z" fill="white"/>
</g>
</g>
<path d="M179.369 41.4139C177.016 45.8476 172.604 53.3134 163.338 62.7752C163.338 62.7752 167.19 51.1417 164.544 48.5513C161.897 45.961 149.293 49.0382 149.293 49.0382C154.616 45.9267 164.667 39.4153 171.573 37.1645C173.386 36.5741 175.321 36.983 176.973 37.9325L178.627 38.8827C179.515 39.3927 179.849 40.5098 179.369 41.4139Z" fill="#FF9100"/>
<path d="M179.394 41.421C174.562 52.7361 156.133 71.0874 144.687 80.0432L142.012 76.0774L178.939 41.1169C179.17 40.8982 179.52 41.1285 179.394 41.421Z" fill="#E9E6E6"/>
<path d="M123.088 101.405C122.165 115.303 109.726 128.407 92.3079 127.251C74.8896 126.096 61.6896 111.29 62.6119 97.3914C63.5342 83.4927 77.1015 73.0763 94.5198 74.2321C111.938 75.388 124.01 87.5058 123.088 101.405Z" fill="#35373A"/>
<g opacity="0.19">
<path d="M87.722 110.03C87.4342 112.069 85.5152 113.491 83.433 113.197C81.3507 112.904 79.8998 111.007 80.1875 108.967" stroke="#FF9100" stroke-width="1.36"/>
<path d="M95.2571 111.093C94.9694 113.133 93.0504 114.554 90.9681 114.261C88.8859 113.967 87.4349 112.07 87.7227 110.03" stroke="#FF9100" stroke-width="1.36"/>
</g>
<g opacity="0.2">
<mask id="mask1_3034_2137" style="mask-type:luminance" maskUnits="userSpaceOnUse" x="95" y="93" width="19" height="13">
<path d="M102.849 105.008C107.895 105.76 112.695 101.652 113.565 95.82L95.2852 93.0957C94.4173 98.9189 97.8019 104.256 102.856 105.009L102.849 105.008Z" fill="white"/>
</mask>
<g mask="url(#mask1_3034_2137)">
<path d="M96.0922 93.8714C96.4953 93.9315 96.8783 93.6031 96.9476 93.1379C97.0169 92.6728 96.7463 92.247 96.3432 92.1869C95.9401 92.1268 95.5571 92.4552 95.4878 92.9204C95.4184 93.3855 95.689 93.8113 96.0922 93.8714Z" fill="#F29111"/>
<path d="M95.7797 95.9837C96.1828 96.0438 96.5658 95.7154 96.6351 95.2502C96.7044 94.7851 96.4338 94.3593 96.0307 94.2992C95.6276 94.2391 95.2446 94.5675 95.1753 95.0327C95.1059 95.4978 95.3765 95.9236 95.7797 95.9837Z" fill="#F29111"/>
<path d="M95.4633 98.0931C95.8664 98.1531 96.2494 97.8248 96.3187 97.3596C96.388 96.8945 96.1174 96.4687 95.7143 96.4086C95.3112 96.3485 94.9282 96.6769 94.8589 97.142C94.7895 97.6072 95.0601 98.033 95.4633 98.0931Z" fill="#F29111"/>
<path d="M95.1468 100.203C95.55 100.263 95.933 99.9351 96.0023 99.47C96.0716 99.0048 95.801 98.579 95.3979 98.5189C94.9948 98.4589 94.6118 98.7872 94.5424 99.2524C94.4731 99.7175 94.7437 100.143 95.1468 100.203Z" fill="#F29111"/>
<path d="M102.445 93.9786C102.518 93.514 102.25 93.0854 101.848 93.0213C101.445 92.9573 101.06 93.282 100.987 93.7466C100.914 94.2112 101.182 94.6398 101.584 94.7039C101.987 94.7679 102.372 94.4432 102.445 93.9786Z" fill="#F29111"/>
<path d="M102.128 96.0899C102.201 95.6253 101.934 95.1967 101.531 95.1327C101.129 95.0686 100.744 95.3933 100.671 95.858C100.598 96.3226 100.865 96.7511 101.268 96.8152C101.67 96.8793 102.056 96.5545 102.128 96.0899Z" fill="#F29111"/>
<path d="M101.812 98.1993C101.885 97.7347 101.618 97.3061 101.215 97.242C100.812 97.178 100.427 97.5027 100.354 97.9673C100.282 98.432 100.549 98.8605 100.951 98.9246C101.354 98.9886 101.739 98.6639 101.812 98.1993Z" fill="#F29111"/>
<path d="M100.639 101.022C101.042 101.082 101.425 100.753 101.494 100.288C101.564 99.8232 101.293 99.3974 100.89 99.3373C100.487 99.2772 100.104 99.6056 100.035 100.071C99.9653 100.536 100.236 100.962 100.639 101.022Z" fill="#F29111"/>
<path d="M107.377 93.4065C107.78 93.4666 108.163 93.1382 108.233 92.6731C108.302 92.2079 108.031 91.7821 107.628 91.7221C107.225 91.662 106.842 91.9904 106.773 92.4555C106.704 92.9207 106.974 93.3465 107.377 93.4065Z" fill="#F29111"/>
<path d="M107.065 95.5061C107.468 95.5662 107.851 95.2379 107.92 94.7727C107.99 94.3075 107.719 93.8818 107.316 93.8217C106.913 93.7616 106.53 94.09 106.46 94.5551C106.391 95.0203 106.662 95.4461 107.065 95.5061Z" fill="#F29111"/>
<path d="M106.748 97.6184C107.152 97.6785 107.535 97.3502 107.604 96.885C107.673 96.4199 107.403 95.9941 106.999 95.934C106.596 95.8739 106.213 96.2023 106.144 96.6674C106.075 97.1326 106.345 97.5584 106.748 97.6184Z" fill="#F29111"/>
<path d="M106.432 99.7278C106.835 99.7879 107.218 99.4595 107.287 98.9944C107.357 98.5292 107.086 98.1034 106.683 98.0434C106.28 97.9833 105.897 98.3117 105.828 98.7768C105.758 99.242 106.029 99.6677 106.432 99.7278Z" fill="#F29111"/>
<path d="M106.12 101.838C106.523 101.898 106.906 101.57 106.975 101.105C107.044 100.64 106.774 100.214 106.371 100.154C105.967 100.094 105.584 100.422 105.515 100.887C105.446 101.352 105.716 101.778 106.12 101.838Z" fill="#F29111"/>
<path d="M112.866 94.2249C113.269 94.285 113.652 93.9566 113.721 93.4914C113.79 93.0263 113.52 92.6005 113.117 92.5404C112.714 92.4803 112.331 92.8087 112.261 93.2739C112.192 93.739 112.462 94.1648 112.866 94.2249Z" fill="#F29111"/>
<path d="M112.553 96.3255C112.956 96.3856 113.339 96.0572 113.409 95.592C113.478 95.1269 113.207 94.7011 112.804 94.641C112.401 94.5809 112.018 94.9093 111.949 95.3745C111.879 95.8396 112.15 96.2654 112.553 96.3255Z" fill="#F29111"/>
<path d="M112.241 98.4368C112.644 98.4969 113.027 98.1685 113.096 97.7034C113.165 97.2382 112.895 96.8124 112.492 96.7523C112.089 96.6923 111.706 97.0206 111.636 97.4858C111.567 97.9509 111.837 98.3767 112.241 98.4368Z" fill="#F29111"/>
<path d="M111.924 100.546C112.327 100.606 112.71 100.278 112.78 99.8127C112.849 99.3476 112.578 98.9218 112.175 98.8617C111.772 98.8016 111.389 99.13 111.32 99.5952C111.25 100.06 111.521 100.486 111.924 100.546Z" fill="#F29111"/>
<path d="M111.612 102.657C112.015 102.717 112.398 102.388 112.467 101.923C112.536 101.458 112.266 101.032 111.863 100.972C111.46 100.912 111.077 101.24 111.007 101.706C110.938 102.171 111.209 102.596 111.612 102.657Z" fill="#F29111"/>
<path d="M97.9164 94.1438C98.3195 94.2039 98.7025 93.8755 98.7718 93.4104C98.8411 92.9452 98.5705 92.5194 98.1674 92.4594C97.7643 92.3993 97.3813 92.7277 97.312 93.1928C97.2427 93.658 97.5133 94.0838 97.9164 94.1438Z" fill="#F29111"/>
<path d="M97.6039 96.2561C98.007 96.3162 98.39 95.9879 98.4593 95.5227C98.5286 95.0575 98.258 94.6318 97.8549 94.5717C97.4518 94.5116 97.0688 94.84 96.9995 95.3051C96.9302 95.7703 97.2008 96.1961 97.6039 96.2561Z" fill="#F29111"/>
<path d="M97.2875 98.3655C97.6906 98.4256 98.0736 98.0972 98.1429 97.6321C98.2122 97.1669 97.9416 96.7411 97.5385 96.6811C97.1354 96.621 96.7524 96.9494 96.6831 97.4145C96.6137 97.8797 96.8844 98.3054 97.2875 98.3655Z" fill="#F29111"/>
<path d="M96.975 100.475C97.3781 100.535 97.7611 100.207 97.8304 99.7414C97.8997 99.2763 97.6291 98.8505 97.226 98.7904C96.8229 98.7303 96.4399 99.0587 96.3706 99.5239C96.3012 99.989 96.5719 100.415 96.975 100.475Z" fill="#F29111"/>
<path d="M103.405 94.9612C103.808 95.0213 104.191 94.6929 104.26 94.2278C104.329 93.7626 104.059 93.3368 103.656 93.2768C103.253 93.2167 102.87 93.5451 102.8 94.0102C102.731 94.4754 103.002 94.9011 103.405 94.9612Z" fill="#F29111"/>
<path d="M103.088 97.0725C103.491 97.1326 103.874 96.8043 103.944 96.3391C104.013 95.874 103.742 95.4482 103.339 95.3881C102.936 95.328 102.553 95.6564 102.484 96.1215C102.415 96.5867 102.685 97.0125 103.088 97.0725Z" fill="#F29111"/>
<path d="M102.776 99.1829C103.179 99.243 103.562 98.9146 103.631 98.4495C103.701 97.9843 103.43 97.5585 103.027 97.4984C102.624 97.4384 102.241 97.7667 102.171 98.2319C102.102 98.697 102.373 99.1228 102.776 99.1829Z" fill="#F29111"/>
<path d="M102.459 101.293C102.862 101.353 103.245 101.025 103.315 100.56C103.384 100.095 103.114 99.6689 102.71 99.6088C102.307 99.5487 101.924 99.8771 101.855 100.342C101.786 100.807 102.056 101.233 102.459 101.293Z" fill="#F29111"/>
<path d="M109.209 93.679C109.612 93.7391 109.995 93.4107 110.065 92.9455C110.134 92.4804 109.864 92.0546 109.46 91.9945C109.057 91.9344 108.674 92.2628 108.605 92.728C108.536 93.1931 108.806 93.6189 109.209 93.679Z" fill="#F29111"/>
<path d="M108.897 95.7796C109.3 95.8397 109.683 95.5113 109.752 95.0461C109.822 94.581 109.551 94.1552 109.148 94.0951C108.745 94.035 108.362 94.3634 108.292 94.8286C108.223 95.2937 108.494 95.7195 108.897 95.7796Z" fill="#F29111"/>
<path d="M108.58 97.8919C108.984 97.952 109.367 97.6236 109.436 97.1584C109.505 96.6933 109.235 96.2675 108.831 96.2074C108.428 96.1473 108.045 96.4757 107.976 96.9409C107.907 97.406 108.177 97.8318 108.58 97.8919Z" fill="#F29111"/>
<path d="M108.268 100.001C108.671 100.061 109.054 99.733 109.123 99.2678C109.193 98.8027 108.922 98.3769 108.519 98.3168C108.116 98.2567 107.733 98.5851 107.664 99.0502C107.594 99.5154 107.865 99.9412 108.268 100.001Z" fill="#F29111"/>
<path d="M107.952 102.112C108.355 102.172 108.738 101.843 108.807 101.378C108.876 100.913 108.606 100.487 108.203 100.427C107.799 100.367 107.416 100.695 107.347 101.161C107.278 101.626 107.548 102.052 107.952 102.112Z" fill="#F29111"/>
<path d="M99.7484 94.4163C100.152 94.4764 100.535 94.148 100.604 93.6829C100.673 93.2177 100.403 92.7919 99.9994 92.7318C99.5963 92.6718 99.2133 93.0001 99.144 93.4653C99.0747 93.9304 99.3453 94.3562 99.7484 94.4163Z" fill="#F29111"/>
<path d="M99.432 96.5286C99.8351 96.5887 100.218 96.2603 100.287 95.7952C100.357 95.33 100.086 94.9042 99.683 94.8441C99.2799 94.7841 98.8969 95.1124 98.8276 95.5776C98.7583 96.0427 99.0289 96.4685 99.432 96.5286Z" fill="#F29111"/>
<path d="M99.1156 98.638C99.5187 98.6981 99.9017 98.3697 99.971 97.9045C100.04 97.4394 99.7698 97.0136 99.3666 96.9535C98.9635 96.8934 98.5805 97.2218 98.5112 97.687C98.4419 98.1521 98.7125 98.5779 99.1156 98.638Z" fill="#F29111"/>
<path d="M98.8031 100.748C99.2062 100.808 99.5892 100.48 99.6585 100.015C99.7279 99.5497 99.4573 99.1239 99.0541 99.0639C98.651 99.0038 98.268 99.3322 98.1987 99.7973C98.1294 100.262 98.4 100.688 98.8031 100.748Z" fill="#F29111"/>
<path d="M105.549 93.1341C105.952 93.1941 106.335 92.8658 106.405 92.4006C106.474 91.9355 106.203 91.5097 105.8 91.4496C105.397 91.3895 105.014 91.7179 104.945 92.183C104.875 92.6482 105.146 93.074 105.549 93.1341Z" fill="#F29111"/>
<path d="M105.233 95.2337C105.636 95.2938 106.019 94.9654 106.088 94.5002C106.158 94.0351 105.887 93.6093 105.484 93.5492C105.081 93.4891 104.698 93.8175 104.628 94.2827C104.559 94.7478 104.83 95.1736 105.233 95.2337Z" fill="#F29111"/>
<path d="M104.92 97.346C105.323 97.4061 105.706 97.0777 105.776 96.6125C105.845 96.1474 105.574 95.7216 105.171 95.6615C104.768 95.6014 104.385 95.9298 104.316 96.395C104.247 96.8601 104.517 97.2859 104.92 97.346Z" fill="#F29111"/>
<path d="M104.604 99.4554C105.007 99.5154 105.39 99.1871 105.459 98.7219C105.529 98.2568 105.258 97.831 104.855 97.7709C104.452 97.7108 104.069 98.0392 103.999 98.5043C103.93 98.9695 104.201 99.3953 104.604 99.4554Z" fill="#F29111"/>
<path d="M104.287 101.566C104.691 101.626 105.074 101.297 105.143 100.832C105.212 100.367 104.942 99.9413 104.539 99.8812C104.135 99.8212 103.752 100.15 103.683 100.615C103.614 101.08 103.884 101.506 104.287 101.566Z" fill="#F29111"/>
<path d="M111.037 93.9515C111.441 94.0115 111.824 93.6831 111.893 93.218C111.962 92.7528 111.692 92.3271 111.289 92.267C110.885 92.2069 110.502 92.5353 110.433 93.0004C110.364 93.4656 110.634 93.8914 111.037 93.9515Z" fill="#F29111"/>
<path d="M110.725 96.053C111.128 96.1131 111.511 95.7847 111.58 95.3196C111.65 94.8544 111.379 94.4286 110.976 94.3686C110.573 94.3085 110.19 94.6369 110.121 95.102C110.051 95.5672 110.322 95.9929 110.725 96.053Z" fill="#F29111"/>
<path d="M110.412 98.1643C110.816 98.2244 111.199 97.8961 111.268 97.4309C111.337 96.9657 111.067 96.54 110.664 96.4799C110.26 96.4198 109.877 96.7482 109.808 97.2133C109.739 97.6785 110.009 98.1043 110.412 98.1643Z" fill="#F29111"/>
<path d="M110.096 100.274C110.499 100.334 110.882 100.005 110.952 99.5403C111.021 99.0751 110.75 98.6493 110.347 98.5893C109.944 98.5292 109.561 98.8576 109.492 99.3227C109.422 99.7879 109.693 100.214 110.096 100.274Z" fill="#F29111"/>
<path d="M109.78 102.384C110.183 102.444 110.566 102.116 110.635 101.651C110.704 101.185 110.434 100.76 110.031 100.7C109.628 100.64 109.245 100.968 109.175 101.433C109.106 101.898 109.377 102.324 109.78 102.384Z" fill="#F29111"/>
<path d="M94.8343 102.313C95.2375 102.373 95.6205 102.044 95.6898 101.579C95.7591 101.114 95.4885 100.688 95.0854 100.628C94.6823 100.568 94.2993 100.897 94.2299 101.362C94.1606 101.827 94.4312 102.253 94.8343 102.313Z" fill="#F29111"/>
<path d="M94.5218 104.423C94.925 104.483 95.308 104.155 95.3773 103.69C95.4466 103.225 95.176 102.799 94.7729 102.739C94.3698 102.679 93.9868 103.007 93.9174 103.472C93.8481 103.937 94.1187 104.363 94.5218 104.423Z" fill="#F29111"/>
<path d="M101.183 102.419C101.256 101.954 100.989 101.526 100.586 101.462C100.184 101.398 99.7983 101.722 99.7255 102.187C99.6527 102.652 99.92 103.08 100.323 103.144C100.725 103.208 101.11 102.884 101.183 102.419Z" fill="#F29111"/>
<path d="M100.867 104.528C100.94 104.064 100.672 103.635 100.27 103.571C99.8672 103.507 99.4819 103.832 99.4091 104.296C99.3363 104.761 99.6036 105.19 100.006 105.254C100.409 105.318 100.794 104.993 100.867 104.528Z" fill="#F29111"/>
<path d="M105.803 103.948C106.206 104.008 106.589 103.679 106.659 103.214C106.728 102.749 106.457 102.323 106.054 102.263C105.651 102.203 105.268 102.531 105.199 102.997C105.129 103.462 105.4 103.887 105.803 103.948Z" fill="#F29111"/>
<path d="M105.491 106.058C105.894 106.118 106.277 105.79 106.346 105.324C106.415 104.859 106.145 104.434 105.742 104.373C105.339 104.313 104.956 104.642 104.886 105.107C104.817 105.572 105.087 105.998 105.491 106.058Z" fill="#F29111"/>
<path d="M111.295 104.766C111.698 104.826 112.081 104.498 112.151 104.032C112.22 103.567 111.949 103.142 111.546 103.081C111.143 103.021 110.76 103.35 110.691 103.815C110.622 104.28 110.892 104.706 111.295 104.766Z" fill="#F29111"/>
<path d="M110.979 106.876C111.382 106.936 111.765 106.608 111.834 106.143C111.904 105.678 111.633 105.252 111.23 105.192C110.827 105.132 110.444 105.46 110.374 105.925C110.305 106.39 110.576 106.816 110.979 106.876Z" fill="#F29111"/>
<path d="M96.6625 102.584C97.0656 102.644 97.4486 102.316 97.5179 101.851C97.5872 101.386 97.3166 100.96 96.9135 100.9C96.5104 100.84 96.1274 101.168 96.0581 101.633C95.9887 102.098 96.2594 102.524 96.6625 102.584Z" fill="#F29111"/>
<path d="M96.3461 104.695C96.7492 104.755 97.1322 104.426 97.2015 103.961C97.2708 103.496 97.0002 103.07 96.5971 103.01C96.194 102.95 95.811 103.278 95.7417 103.744C95.6723 104.209 95.9429 104.635 96.3461 104.695Z" fill="#F29111"/>
<path d="M102.147 103.403C102.55 103.463 102.933 103.134 103.002 102.669C103.072 102.204 102.801 101.778 102.398 101.718C101.995 101.658 101.612 101.986 101.542 102.452C101.473 102.917 101.744 103.343 102.147 103.403Z" fill="#F29111"/>
<path d="M101.834 105.513C102.237 105.573 102.62 105.245 102.69 104.78C102.759 104.314 102.489 103.889 102.085 103.829C101.682 103.768 101.299 104.097 101.23 104.562C101.161 105.027 101.431 105.453 101.834 105.513Z" fill="#F29111"/>
<path d="M107.639 104.221C108.042 104.281 108.425 103.953 108.494 103.488C108.564 103.022 108.293 102.597 107.89 102.537C107.487 102.476 107.104 102.805 107.035 103.27C106.965 103.735 107.236 104.161 107.639 104.221Z" fill="#F29111"/>
<path d="M107.323 106.331C107.726 106.391 108.109 106.063 108.178 105.598C108.247 105.133 107.977 104.707 107.574 104.647C107.171 104.587 106.788 104.915 106.718 105.38C106.649 105.845 106.92 106.271 107.323 106.331Z" fill="#F29111"/>
<path d="M98.4906 102.858C98.8937 102.918 99.2767 102.589 99.346 102.124C99.4154 101.659 99.1448 101.233 98.7416 101.173C98.3385 101.113 97.9555 101.442 97.8862 101.907C97.8169 102.372 98.0875 102.798 98.4906 102.858Z" fill="#F29111"/>
<path d="M98.1742 104.967C98.5773 105.027 98.9603 104.699 99.0296 104.234C99.099 103.768 98.8283 103.343 98.4252 103.283C98.0221 103.223 97.6391 103.551 97.5698 104.016C97.5005 104.481 97.7711 104.907 98.1742 104.967Z" fill="#F29111"/>
<path d="M103.975 103.675C104.378 103.735 104.761 103.407 104.83 102.942C104.9 102.476 104.629 102.051 104.226 101.991C103.823 101.931 103.44 102.259 103.371 102.724C103.301 103.189 103.572 103.615 103.975 103.675Z" fill="#F29111"/>
<path d="M103.662 105.785C104.066 105.846 104.449 105.517 104.518 105.052C104.587 104.587 104.317 104.161 103.914 104.101C103.51 104.041 103.127 104.369 103.058 104.834C102.989 105.3 103.259 105.725 103.662 105.785Z" fill="#F29111"/>
<path d="M109.467 104.493C109.87 104.554 110.253 104.225 110.323 103.76C110.392 103.295 110.121 102.869 109.718 102.809C109.315 102.749 108.932 103.077 108.863 103.542C108.793 104.008 109.064 104.433 109.467 104.493Z" fill="#F29111"/>
<path d="M109.151 106.604C109.554 106.664 109.937 106.335 110.006 105.87C110.076 105.405 109.805 104.979 109.402 104.919C108.999 104.859 108.616 105.188 108.546 105.653C108.477 106.118 108.748 106.544 109.151 106.604Z" fill="#F29111"/>
</g>
</g>
<mask id="mask2_3034_2137" style="mask-type:luminance" maskUnits="userSpaceOnUse" x="95" y="92" width="19" height="13">
<path d="M102.717 104.409C107.753 105.226 112.606 101.181 113.551 95.361L95.3086 92.3994C94.3651 98.2108 97.6801 103.591 102.724 104.41L102.717 104.409Z" fill="white"/>
</mask>
<g mask="url(#mask2_3034_2137)">
<path d="M96.1079 93.1939C96.5102 93.2592 96.8974 92.9358 96.9728 92.4716C97.0481 92.0074 96.7831 91.5781 96.3808 91.5128C95.9785 91.4475 95.5913 91.7708 95.5159 92.2351C95.4405 92.6993 95.7056 93.1285 96.1079 93.1939Z" fill="#F29111"/>
<path d="M95.7641 95.3003C96.1664 95.3656 96.5537 95.0422 96.629 94.578C96.7044 94.1138 96.4394 93.6845 96.037 93.6192C95.6347 93.5539 95.2475 93.8773 95.1721 94.3415C95.0968 94.8057 95.3618 95.235 95.7641 95.3003Z" fill="#F29111"/>
<path d="M95.4204 97.4058C95.8227 97.4711 96.2099 97.1477 96.2853 96.6835C96.3606 96.2193 96.0956 95.79 95.6933 95.7247C95.291 95.6594 94.9038 95.9828 94.8284 96.447C94.753 96.9112 95.0181 97.3405 95.4204 97.4058Z" fill="#F29111"/>
<path d="M95.0805 99.5132C95.4828 99.5785 95.8701 99.2551 95.9454 98.7909C96.0208 98.3267 95.7558 97.8974 95.3534 97.8321C94.9511 97.7668 94.5639 98.0902 94.4885 98.5544C94.4132 99.0186 94.6782 99.4479 95.0805 99.5132Z" fill="#F29111"/>
<path d="M102.457 93.3772C102.535 92.9136 102.274 92.4816 101.872 92.4123C101.47 92.343 101.081 92.6627 101.002 93.1263C100.923 93.59 101.185 94.022 101.587 94.0913C101.988 94.1605 102.378 93.8409 102.457 93.3772Z" fill="#F29111"/>
<path d="M102.117 95.4837C102.196 95.02 101.934 94.588 101.532 94.5187C101.13 94.4494 100.741 94.7691 100.662 95.2328C100.583 95.6964 100.845 96.1284 101.247 96.1977C101.648 96.267 102.038 95.9473 102.117 95.4837Z" fill="#F29111"/>
<path d="M101.773 97.5882C101.852 97.1245 101.59 96.6925 101.188 96.6232C100.787 96.5539 100.397 96.8736 100.318 97.3373C100.24 97.8009 100.501 98.2329 100.903 98.3022C101.305 98.3715 101.694 98.0518 101.773 97.5882Z" fill="#F29111"/>
<path d="M100.561 100.402C100.963 100.467 101.351 100.144 101.426 99.6796C101.501 99.2154 101.236 98.7861 100.834 98.7208C100.432 98.6555 100.044 98.9789 99.969 99.4431C99.8936 99.9073 100.159 100.337 100.561 100.402Z" fill="#F29111"/>
<path d="M107.393 92.8657C107.795 92.931 108.183 92.6077 108.258 92.1434C108.333 91.6792 108.068 91.25 107.666 91.1847C107.264 91.1194 106.876 91.4427 106.801 91.9069C106.726 92.3711 106.991 92.8004 107.393 92.8657Z" fill="#F29111"/>
<path d="M107.053 94.9712C107.456 95.0365 107.843 94.7131 107.918 94.2489C107.993 93.7847 107.728 93.3554 107.326 93.2901C106.924 93.2248 106.537 93.5482 106.461 94.0124C106.386 94.4766 106.651 94.9059 107.053 94.9712Z" fill="#F29111"/>
<path d="M106.713 97.0776C107.116 97.143 107.503 96.8196 107.578 96.3554C107.654 95.8911 107.389 95.4619 106.986 95.3966C106.584 95.3313 106.197 95.6546 106.121 96.1188C106.046 96.5831 106.311 97.0123 106.713 97.0776Z" fill="#F29111"/>
<path d="M106.37 99.1831C106.772 99.2484 107.159 98.925 107.234 98.4608C107.31 97.9966 107.045 97.5674 106.643 97.502C106.24 97.4367 105.853 97.7601 105.778 98.2243C105.702 98.6885 105.967 99.1178 106.37 99.1831Z" fill="#F29111"/>
<path d="M106.03 101.291C106.432 101.356 106.819 101.032 106.895 100.568C106.97 100.104 106.705 99.6748 106.303 99.6095C105.9 99.5442 105.513 99.8675 105.438 100.332C105.362 100.796 105.627 101.225 106.03 101.291Z" fill="#F29111"/>
<path d="M112.874 93.7554C113.276 93.8207 113.663 93.4973 113.738 93.0331C113.814 92.5689 113.549 92.1396 113.146 92.0743C112.744 92.009 112.357 92.3324 112.282 92.7966C112.206 93.2608 112.471 93.6901 112.874 93.7554Z" fill="#F29111"/>
<path d="M112.534 95.8608C112.936 95.9262 113.323 95.6028 113.399 95.1386C113.474 94.6744 113.209 94.2451 112.807 94.1798C112.404 94.1145 112.017 94.4378 111.942 94.902C111.866 95.3663 112.131 95.7955 112.534 95.8608Z" fill="#F29111"/>
<path d="M112.19 97.9673C112.592 98.0326 112.979 97.7092 113.055 97.245C113.13 96.7808 112.865 96.3515 112.463 96.2862C112.061 96.2209 111.673 96.5443 111.598 97.0085C111.523 97.4727 111.788 97.902 112.19 97.9673Z" fill="#F29111"/>
<path d="M111.85 100.073C112.252 100.138 112.64 99.8147 112.715 99.3505C112.79 98.8863 112.525 98.457 112.123 98.3917C111.721 98.3264 111.333 98.6497 111.258 99.114C111.183 99.5782 111.448 100.007 111.85 100.073Z" fill="#F29111"/>
<path d="M111.506 102.179C111.909 102.245 112.296 101.921 112.371 101.457C112.447 100.993 112.182 100.563 111.779 100.498C111.377 100.433 110.99 100.756 110.914 101.22C110.839 101.685 111.104 102.114 111.506 102.179Z" fill="#F29111"/>
<path d="M97.9282 93.4898C98.3305 93.5551 98.7177 93.2317 98.7931 92.7675C98.8685 92.3033 98.6034 91.874 98.2011 91.8087C97.7988 91.7434 97.4116 92.0667 97.3362 92.531C97.2608 92.9952 97.5259 93.4244 97.9282 93.4898Z" fill="#F29111"/>
<path d="M97.5844 95.5962C97.9868 95.6615 98.374 95.3381 98.4493 94.8739C98.5247 94.4097 98.2597 93.9804 97.8574 93.9151C97.455 93.8498 97.0678 94.1732 96.9925 94.6374C96.9171 95.1016 97.1821 95.5309 97.5844 95.5962Z" fill="#F29111"/>
<path d="M97.2446 97.7017C97.6469 97.767 98.0341 97.4436 98.1095 96.9794C98.1849 96.5152 97.9198 96.0859 97.5175 96.0206C97.1152 95.9553 96.728 96.2787 96.6526 96.7429C96.5772 97.2071 96.8423 97.6364 97.2446 97.7017Z" fill="#F29111"/>
<path d="M96.9009 99.8081C97.3032 99.8734 97.6904 99.5501 97.7657 99.0858C97.8411 98.6216 97.5761 98.1924 97.1738 98.127C96.7715 98.0617 96.3842 98.3851 96.3089 98.8493C96.2335 99.3135 96.4985 99.7428 96.9009 99.8081Z" fill="#F29111"/>
<path d="M103.405 94.3784C103.807 94.4437 104.194 94.1204 104.27 93.6561C104.345 93.1919 104.08 92.7627 103.678 92.6974C103.275 92.632 102.888 92.9554 102.813 93.4196C102.737 93.8838 103.002 94.3131 103.405 94.3784Z" fill="#F29111"/>
<path d="M103.061 96.4858C103.463 96.5512 103.851 96.2278 103.926 95.7636C104.001 95.2994 103.736 94.8701 103.334 94.8048C102.932 94.7395 102.544 95.0628 102.469 95.527C102.394 95.9913 102.659 96.4205 103.061 96.4858Z" fill="#F29111"/>
<path d="M102.717 98.5903C103.12 98.6556 103.507 98.3323 103.582 97.8681C103.658 97.4038 103.392 96.9746 102.99 96.9093C102.588 96.844 102.201 97.1673 102.125 97.6315C102.05 98.0958 102.315 98.525 102.717 98.5903Z" fill="#F29111"/>
<path d="M102.377 100.697C102.78 100.762 103.167 100.439 103.242 99.9745C103.318 99.5103 103.053 99.081 102.65 99.0157C102.248 98.9504 101.861 99.2738 101.785 99.738C101.71 100.202 101.975 100.631 102.377 100.697Z" fill="#F29111"/>
<path d="M109.225 93.1626C109.627 93.2279 110.015 92.9045 110.09 92.4403C110.165 91.9761 109.9 91.5469 109.498 91.4815C109.096 91.4162 108.708 91.7396 108.633 92.2038C108.558 92.668 108.823 93.0973 109.225 93.1626Z" fill="#F29111"/>
<path d="M108.881 95.2681C109.284 95.3334 109.671 95.01 109.746 94.5458C109.822 94.0816 109.557 93.6523 109.154 93.587C108.752 93.5217 108.365 93.8451 108.289 94.3093C108.214 94.7735 108.479 95.2028 108.881 95.2681Z" fill="#F29111"/>
<path d="M108.541 97.3745C108.944 97.4398 109.331 97.1164 109.406 96.6522C109.482 96.188 109.217 95.7588 108.814 95.6935C108.412 95.6281 108.025 95.9515 107.949 96.4157C107.874 96.8799 108.139 97.3092 108.541 97.3745Z" fill="#F29111"/>
<path d="M108.202 99.48C108.604 99.5453 108.991 99.2219 109.067 98.7577C109.142 98.2935 108.877 97.8642 108.475 97.7989C108.072 97.7336 107.685 98.057 107.61 98.5212C107.534 98.9854 107.799 99.4147 108.202 99.48Z" fill="#F29111"/>
<path d="M107.858 101.587C108.26 101.653 108.647 101.329 108.723 100.865C108.798 100.401 108.533 99.9717 108.131 99.9063C107.728 99.841 107.341 100.164 107.266 100.629C107.191 101.093 107.456 101.522 107.858 101.587Z" fill="#F29111"/>
<path d="M99.7524 93.7856C100.155 93.851 100.542 93.5276 100.617 93.0634C100.693 92.5992 100.428 92.1699 100.025 92.1046C99.623 92.0393 99.2358 92.3626 99.1604 92.8269C99.0851 93.2911 99.3501 93.7203 99.7524 93.7856Z" fill="#F29111"/>
<path d="M99.4087 95.8921C99.811 95.9574 100.198 95.634 100.274 95.1698C100.349 94.7056 100.084 94.2763 99.6816 94.211C99.2793 94.1457 98.892 94.4691 98.8167 94.9333C98.7413 95.3975 99.0063 95.8268 99.4087 95.8921Z" fill="#F29111"/>
<path d="M99.0688 97.9976C99.4711 98.0629 99.8584 97.7395 99.9337 97.2753C100.009 96.8111 99.744 96.3818 99.3417 96.3165C98.9394 96.2512 98.5522 96.5746 98.4768 97.0388C98.4015 97.503 98.6665 97.9323 99.0688 97.9976Z" fill="#F29111"/>
<path d="M98.729 100.105C99.1313 100.17 99.5185 99.8469 99.5939 99.3827C99.6692 98.9185 99.4042 98.4892 99.0019 98.4239C98.5996 98.3586 98.2123 98.682 98.137 99.1462C98.0616 99.6104 98.3267 100.04 98.729 100.105Z" fill="#F29111"/>
<path d="M105.569 92.5698C105.971 92.6351 106.358 92.3118 106.434 91.8475C106.509 91.3833 106.244 90.9541 105.842 90.8888C105.439 90.8235 105.052 91.1468 104.977 91.611C104.901 92.0752 105.166 92.5045 105.569 92.5698Z" fill="#F29111"/>
<path d="M105.229 94.6743C105.631 94.7396 106.019 94.4163 106.094 93.952C106.169 93.4878 105.904 93.0586 105.502 92.9933C105.1 92.9279 104.712 93.2513 104.637 93.7155C104.562 94.1797 104.827 94.609 105.229 94.6743Z" fill="#F29111"/>
<path d="M104.889 96.7817C105.291 96.8471 105.679 96.5237 105.754 96.0595C105.829 95.5953 105.564 95.166 105.162 95.1007C104.76 95.0354 104.373 95.3587 104.297 95.8229C104.222 96.2872 104.487 96.7164 104.889 96.7817Z" fill="#F29111"/>
<path d="M104.545 98.8872C104.948 98.9525 105.335 98.6291 105.41 98.1649C105.486 97.7007 105.221 97.2715 104.818 97.2061C104.416 97.1408 104.029 97.4642 103.953 97.9284C103.878 98.3926 104.143 98.8219 104.545 98.8872Z" fill="#F29111"/>
<path d="M104.202 100.994C104.604 101.059 104.991 100.736 105.067 100.271C105.142 99.8072 104.877 99.3779 104.475 99.3126C104.072 99.2473 103.685 99.5707 103.61 100.035C103.534 100.499 103.799 100.928 104.202 100.994Z" fill="#F29111"/>
<path d="M111.049 93.4585C111.452 93.5238 111.839 93.2004 111.914 92.7362C111.99 92.272 111.725 91.8428 111.322 91.7774C110.92 91.7121 110.533 92.0355 110.457 92.4997C110.382 92.9639 110.647 93.3932 111.049 93.4585Z" fill="#F29111"/>
<path d="M110.706 95.564C111.108 95.6293 111.495 95.3059 111.57 94.8417C111.646 94.3775 111.381 93.9482 110.978 93.8829C110.576 93.8176 110.189 94.141 110.114 94.6052C110.038 95.0694 110.303 95.4987 110.706 95.564Z" fill="#F29111"/>
<path d="M110.366 97.6714C110.768 97.7367 111.155 97.4133 111.231 96.9491C111.306 96.4849 111.041 96.0556 110.639 95.9903C110.236 95.925 109.849 96.2484 109.774 96.7126C109.698 97.1768 109.963 97.6061 110.366 97.6714Z" fill="#F29111"/>
<path d="M110.026 99.7759C110.428 99.8412 110.815 99.5178 110.891 99.0536C110.966 98.5894 110.701 98.1601 110.299 98.0948C109.896 98.0295 109.509 98.3529 109.434 98.8171C109.358 99.2813 109.624 99.7106 110.026 99.7759Z" fill="#F29111"/>
<path d="M109.682 101.883C110.084 101.949 110.472 101.625 110.547 101.161C110.622 100.697 110.357 100.268 109.955 100.202C109.553 100.137 109.165 100.46 109.09 100.925C109.015 101.389 109.28 101.818 109.682 101.883Z" fill="#F29111"/>
<path d="M94.7368 101.618C95.1391 101.683 95.5263 101.36 95.6017 100.895C95.677 100.431 95.412 100.002 95.0097 99.9366C94.6074 99.8713 94.2202 100.195 94.1448 100.659C94.0694 101.123 94.3345 101.552 94.7368 101.618Z" fill="#F29111"/>
<path d="M94.3969 103.714C94.7993 103.78 95.1865 103.456 95.2618 102.992C95.3372 102.528 95.0722 102.099 94.6699 102.033C94.2675 101.968 93.8803 102.291 93.805 102.756C93.7296 103.22 93.9946 103.649 94.3969 103.714Z" fill="#F29111"/>
<path d="M101.089 101.801C101.168 101.337 100.906 100.905 100.505 100.836C100.103 100.767 99.7137 101.087 99.6349 101.55C99.5561 102.014 99.8178 102.446 100.219 102.515C100.621 102.584 101.011 102.265 101.089 101.801Z" fill="#F29111"/>
<path d="M100.746 103.907C100.824 103.443 100.563 103.011 100.161 102.942C99.7594 102.872 99.3699 103.192 99.2911 103.656C99.2123 104.119 99.474 104.551 99.8757 104.621C100.277 104.69 100.667 104.37 100.746 103.907Z" fill="#F29111"/>
<path d="M105.686 103.395C106.088 103.46 106.476 103.137 106.551 102.673C106.626 102.209 106.361 101.779 105.959 101.714C105.557 101.649 105.169 101.972 105.094 102.436C105.019 102.9 105.284 103.33 105.686 103.395Z" fill="#F29111"/>
<path d="M105.346 105.492C105.748 105.557 106.136 105.234 106.211 104.769C106.286 104.305 106.021 103.876 105.619 103.811C105.217 103.745 104.83 104.069 104.754 104.533C104.679 104.997 104.944 105.426 105.346 105.492Z" fill="#F29111"/>
<path d="M111.166 104.285C111.569 104.35 111.956 104.027 112.031 103.562C112.107 103.098 111.842 102.669 111.439 102.604C111.037 102.538 110.65 102.862 110.574 103.326C110.499 103.79 110.764 104.219 111.166 104.285Z" fill="#F29111"/>
<path d="M96.561 101.914C96.9633 101.979 97.3505 101.656 97.4259 101.191C97.5013 100.727 97.2362 100.298 96.8339 100.233C96.4316 100.167 96.0444 100.491 95.969 100.955C95.8936 101.419 96.1587 101.848 96.561 101.914Z" fill="#F29111"/>
<path d="M96.2173 104.01C96.6196 104.076 97.0068 103.752 97.0822 103.288C97.1575 102.824 96.8925 102.395 96.4902 102.329C96.0879 102.264 95.7006 102.587 95.6253 103.051C95.5499 103.516 95.8149 103.945 96.2173 104.01Z" fill="#F29111"/>
<path d="M102.034 102.802C102.436 102.868 102.823 102.544 102.899 102.08C102.974 101.616 102.709 101.186 102.307 101.121C101.904 101.056 101.517 101.379 101.442 101.843C101.366 102.308 101.631 102.737 102.034 102.802Z" fill="#F29111"/>
<path d="M101.694 104.9C102.096 104.965 102.483 104.642 102.559 104.178C102.634 103.713 102.369 103.284 101.967 103.219C101.564 103.154 101.177 103.477 101.102 103.941C101.026 104.405 101.291 104.835 101.694 104.9Z" fill="#F29111"/>
<path d="M107.514 103.692C107.916 103.757 108.304 103.434 108.379 102.97C108.454 102.505 108.189 102.076 107.787 102.011C107.385 101.946 106.997 102.269 106.922 102.733C106.847 103.197 107.112 103.627 107.514 103.692Z" fill="#F29111"/>
<path d="M107.174 105.789C107.577 105.854 107.964 105.531 108.039 105.066C108.115 104.602 107.85 104.173 107.447 104.108C107.045 104.042 106.658 104.366 106.582 104.83C106.507 105.294 106.772 105.723 107.174 105.789Z" fill="#F29111"/>
<path d="M98.3852 102.209C98.7875 102.275 99.1748 101.951 99.2501 101.487C99.3255 101.023 99.0604 100.594 98.6581 100.528C98.2558 100.463 97.8686 100.786 97.7932 101.251C97.7179 101.715 97.9829 102.144 98.3852 102.209Z" fill="#F29111"/>
<path d="M98.0454 104.306C98.4477 104.371 98.8349 104.048 98.9103 103.584C98.9856 103.12 98.7206 102.69 98.3183 102.625C97.916 102.56 97.5288 102.883 97.4534 103.347C97.378 103.812 97.6431 104.241 98.0454 104.306Z" fill="#F29111"/>
<path d="M103.858 103.099C104.26 103.164 104.647 102.841 104.723 102.377C104.798 101.913 104.533 101.483 104.131 101.418C103.728 101.353 103.341 101.676 103.266 102.14C103.191 102.605 103.456 103.034 103.858 103.099Z" fill="#F29111"/>
<path d="M103.518 105.196C103.92 105.261 104.308 104.938 104.383 104.474C104.458 104.009 104.193 103.58 103.791 103.515C103.389 103.449 103.001 103.773 102.926 104.237C102.851 104.701 103.116 105.13 103.518 105.196Z" fill="#F29111"/>
<path d="M109.342 103.989C109.745 104.054 110.132 103.731 110.207 103.267C110.283 102.802 110.017 102.373 109.615 102.308C109.213 102.242 108.826 102.566 108.75 103.03C108.675 103.494 108.94 103.923 109.342 103.989Z" fill="#F29111"/>
<path d="M108.999 106.085C109.401 106.151 109.788 105.827 109.863 105.363C109.939 104.899 109.674 104.47 109.271 104.404C108.869 104.339 108.482 104.662 108.407 105.127C108.331 105.591 108.596 106.02 108.999 106.085Z" fill="#F29111"/>
</g>
<g opacity="0.2">
<mask id="mask3_3034_2137" style="mask-type:luminance" maskUnits="userSpaceOnUse" x="71" y="89" width="16" height="12">
<path d="M77.6671 100.92C81.6335 101.522 85.5688 97.2938 86.4529 91.4638L72.0859 89.2852C71.2033 95.1061 73.7006 100.319 77.6732 100.921L77.6671 100.92Z" fill="white"/>
</mask>
<g mask="url(#mask3_3034_2137)">
<path d="M72.6895 90.0325C73.0063 90.0806 73.3203 89.7426 73.3908 89.2776C73.4613 88.8127 73.2616 88.3968 72.9448 88.3487C72.6279 88.3007 72.3139 88.6387 72.2434 89.1036C72.1729 89.5686 72.3726 89.9845 72.6895 90.0325Z" fill="#F29111"/>
<path d="M72.373 92.1439C72.6899 92.1919 73.0039 91.8539 73.0744 91.389C73.1449 90.924 72.9452 90.5081 72.6284 90.46C72.3115 90.412 71.9975 90.75 71.927 91.215C71.8565 91.6799 72.0562 92.0958 72.373 92.1439Z" fill="#F29111"/>
<path d="M72.0488 94.2523C72.3657 94.3003 72.6797 93.9623 72.7502 93.4974C72.8207 93.0324 72.621 92.6165 72.3042 92.5684C71.9873 92.5204 71.6733 92.8584 71.6028 93.3234C71.5323 93.7883 71.732 94.2042 72.0488 94.2523Z" fill="#F29111"/>
<path d="M71.7324 96.3616C72.0493 96.4097 72.3633 96.0717 72.4338 95.6067C72.5043 95.1418 72.3046 94.7259 71.9878 94.6778C71.6709 94.6298 71.3569 94.9678 71.2864 95.4327C71.2159 95.8977 71.4156 96.3136 71.7324 96.3616Z" fill="#F29111"/>
<path d="M77.7035 89.9508C77.7767 89.4862 77.5797 89.0675 77.2635 89.0154C76.9473 88.9634 76.6316 89.2978 76.5583 89.7624C76.4851 90.2269 76.6821 90.6457 76.9984 90.6977C77.3146 90.7497 77.6303 90.4153 77.7035 89.9508Z" fill="#F29111"/>
<path d="M77.3793 92.0601C77.4525 91.5956 77.2555 91.1768 76.9393 91.1248C76.6231 91.0728 76.3073 91.4072 76.2341 91.8718C76.1609 92.3363 76.3579 92.7551 76.6741 92.8071C76.9904 92.8591 77.3061 92.5247 77.3793 92.0601Z" fill="#F29111"/>
<path d="M77.0629 94.1705C77.1361 93.7059 76.9391 93.2872 76.6229 93.2352C76.3067 93.1831 75.9909 93.5176 75.9177 93.9821C75.8445 94.4467 76.0415 94.8654 76.3577 94.9174C76.674 94.9695 76.9897 94.635 77.0629 94.1705Z" fill="#F29111"/>
<path d="M76.0449 97.0159C76.3618 97.064 76.6758 96.726 76.7463 96.261C76.8168 95.796 76.6171 95.3802 76.3002 95.3321C75.9834 95.2841 75.6694 95.6221 75.5989 96.087C75.5284 96.552 75.7281 96.9679 76.0449 97.0159Z" fill="#F29111"/>
<path d="M81.623 89.2396C81.9399 89.2876 82.2539 88.9496 82.3244 88.4846C82.3949 88.0197 82.1952 87.6038 81.8784 87.5557C81.5615 87.5077 81.2475 87.8457 81.177 88.3107C81.1065 88.7756 81.3062 89.1915 81.623 89.2396Z" fill="#F29111"/>
<path d="M81.3066 91.3392C81.6235 91.3872 81.9375 91.0492 82.008 90.5843C82.0785 90.1193 81.8788 89.7034 81.562 89.6554C81.2451 89.6073 80.9311 89.9453 80.8606 90.4103C80.7901 90.8753 80.9898 91.2911 81.3066 91.3392Z" fill="#F29111"/>
<path d="M80.9863 93.4495C81.3032 93.4976 81.6172 93.1596 81.6877 92.6946C81.7582 92.2296 81.5585 91.8138 81.2417 91.7657C80.9248 91.7177 80.6108 92.0557 80.5403 92.5206C80.4698 92.9856 80.6695 93.4015 80.9863 93.4495Z" fill="#F29111"/>
<path d="M80.6699 95.5589C80.9868 95.6069 81.3008 95.269 81.3713 94.804C81.4418 94.339 81.2421 93.9231 80.9252 93.8751C80.6084 93.827 80.2944 94.165 80.2239 94.63C80.1534 95.095 80.3531 95.5109 80.6699 95.5589Z" fill="#F29111"/>
<path d="M80.3457 97.6683C80.6625 97.7163 80.9765 97.3783 81.0471 96.9134C81.1176 96.4484 80.9179 96.0325 80.601 95.9845C80.2842 95.9364 79.9702 96.2744 79.8997 96.7394C79.8292 97.2044 80.0289 97.6202 80.3457 97.6683Z" fill="#F29111"/>
<path d="M85.9355 89.8939C86.2524 89.9419 86.5664 89.6039 86.6369 89.1389C86.7074 88.674 86.5077 88.2581 86.1909 88.21C85.874 88.162 85.56 88.5 85.4895 88.965C85.419 89.4299 85.6187 89.8458 85.9355 89.8939Z" fill="#F29111"/>
<path d="M85.6191 91.9925C85.936 92.0405 86.25 91.7026 86.3205 91.2376C86.391 90.7726 86.1913 90.3567 85.8745 90.3087C85.5576 90.2606 85.2436 90.5986 85.1731 91.0636C85.1026 91.5286 85.3023 91.9444 85.6191 91.9925Z" fill="#F29111"/>
<path d="M85.2949 94.1038C85.6118 94.1519 85.9258 93.8139 85.9963 93.3489C86.0668 92.8839 85.8671 92.468 85.5502 92.42C85.2334 92.372 84.9194 92.71 84.8489 93.1749C84.7784 93.6399 84.9781 94.0558 85.2949 94.1038Z" fill="#F29111"/>
<path d="M84.9785 96.2122C85.2953 96.2603 85.6094 95.9223 85.6799 95.4573C85.7504 94.9923 85.5507 94.5764 85.2338 94.5284C84.917 94.4804 84.603 94.8183 84.5325 95.2833C84.462 95.7483 84.6617 96.1642 84.9785 96.2122Z" fill="#F29111"/>
<path d="M84.6582 98.3226C84.975 98.3706 85.289 98.0326 85.3596 97.5677C85.4301 97.1027 85.2304 96.6868 84.9135 96.6388C84.5967 96.5907 84.2827 96.9287 84.2122 97.3937C84.1417 97.8587 84.3414 98.2745 84.6582 98.3226Z" fill="#F29111"/>
<path d="M74.123 90.2493C74.4399 90.2974 74.7539 89.9594 74.8244 89.4944C74.8949 89.0294 74.6952 88.6136 74.3784 88.5655C74.0615 88.5175 73.7475 88.8555 73.677 89.3204C73.6065 89.7854 73.8062 90.2013 74.123 90.2493Z" fill="#F29111"/>
<path d="M73.8027 92.3607C74.1196 92.4087 74.4336 92.0707 74.5041 91.6058C74.5746 91.1408 74.3749 90.7249 74.0581 90.6768C73.7412 90.6288 73.4272 90.9668 73.3567 91.4318C73.2862 91.8967 73.4859 92.3126 73.8027 92.3607Z" fill="#F29111"/>
<path d="M73.4824 94.47C73.7993 94.5181 74.1133 94.1801 74.1838 93.7151C74.2543 93.2502 74.0546 92.8343 73.7377 92.7862C73.4209 92.7382 73.1069 93.0762 73.0364 93.5411C72.9659 94.0061 73.1656 94.422 73.4824 94.47Z" fill="#F29111"/>
<path d="M73.166 96.5794C73.4828 96.6275 73.7969 96.2895 73.8674 95.8245C73.9379 95.3595 73.7382 94.9436 73.4213 94.8956C73.1045 94.8475 72.7905 95.1855 72.72 95.6505C72.6495 96.1155 72.8492 96.5314 73.166 96.5794Z" fill="#F29111"/>
<path d="M78.4355 90.9046C78.7524 90.9527 79.0664 90.6147 79.1369 90.1497C79.2074 89.6847 79.0077 89.2688 78.6909 89.2208C78.374 89.1727 78.06 89.5107 77.9895 89.9757C77.919 90.4407 78.1187 90.8566 78.4355 90.9046Z" fill="#F29111"/>
<path d="M78.1152 93.015C78.4321 93.063 78.7461 92.725 78.8166 92.26C78.8871 91.7951 78.6874 91.3792 78.3706 91.3311C78.0537 91.2831 77.7397 91.6211 77.6692 92.0861C77.5987 92.551 77.7984 92.9669 78.1152 93.015Z" fill="#F29111"/>
<path d="M77.7949 95.1243C78.1118 95.1724 78.4258 94.8344 78.4963 94.3694C78.5668 93.9044 78.3671 93.4886 78.0502 93.4405C77.7334 93.3925 77.4194 93.7305 77.3489 94.1954C77.2784 94.6604 77.4781 95.0763 77.7949 95.1243Z" fill="#F29111"/>
<path d="M77.4785 97.2337C77.7953 97.2818 78.1094 96.9438 78.1799 96.4788C78.2504 96.0138 78.0507 95.5979 77.7338 95.5499C77.417 95.5018 77.103 95.8398 77.0325 96.3048C76.962 96.7698 77.1617 97.1857 77.4785 97.2337Z" fill="#F29111"/>
<path d="M83.0605 89.4573C83.3774 89.5054 83.6914 89.1674 83.7619 88.7024C83.8324 88.2374 83.6327 87.8216 83.3159 87.7735C82.999 87.7255 82.685 88.0635 82.6145 88.5284C82.544 88.9934 82.7437 89.4093 83.0605 89.4573Z" fill="#F29111"/>
<path d="M82.7402 91.5569C83.0571 91.605 83.3711 91.267 83.4416 90.802C83.5121 90.3371 83.3124 89.9212 82.9956 89.8731C82.6787 89.8251 82.3647 90.1631 82.2942 90.6281C82.2237 91.093 82.4234 91.5089 82.7402 91.5569Z" fill="#F29111"/>
<path d="M82.4199 93.6673C82.7368 93.7153 83.0508 93.3774 83.1213 92.9124C83.1918 92.4474 82.9921 92.0315 82.6752 91.9835C82.3584 91.9354 82.0444 92.2734 81.9739 92.7384C81.9034 93.2034 82.1031 93.6193 82.4199 93.6673Z" fill="#F29111"/>
<path d="M82.1035 95.7767C82.4203 95.8247 82.7344 95.4867 82.8049 95.0218C82.8754 94.5568 82.6757 94.1409 82.3588 94.0929C82.042 94.0448 81.728 94.3828 81.6575 94.8478C81.587 95.3128 81.7867 95.7286 82.1035 95.7767Z" fill="#F29111"/>
<path d="M81.7793 97.886C82.0961 97.9341 82.4101 97.5961 82.4807 97.1311C82.5512 96.6662 82.3515 96.2503 82.0346 96.2022C81.7178 96.1542 81.4038 96.4922 81.3333 96.9572C81.2628 97.4221 81.4624 97.838 81.7793 97.886Z" fill="#F29111"/>
<path d="M75.5605 90.4681C75.8774 90.5161 76.1914 90.1781 76.2619 89.7132C76.3324 89.2482 76.1327 88.8323 75.8159 88.7843C75.499 88.7362 75.185 89.0742 75.1145 89.5392C75.044 90.0042 75.2437 90.42 75.5605 90.4681Z" fill="#F29111"/>
<path d="M75.2441 92.5784C75.561 92.6265 75.875 92.2885 75.9455 91.8235C76.016 91.3585 75.8163 90.9427 75.4995 90.8946C75.1826 90.8466 74.8686 91.1846 74.7981 91.6495C74.7276 92.1145 74.9273 92.5304 75.2441 92.5784Z" fill="#F29111"/>
<path d="M74.9199 94.6878C75.2368 94.7359 75.5508 94.3979 75.6213 93.9329C75.6918 93.4679 75.4921 93.052 75.1752 93.004C74.8584 92.9559 74.5444 93.2939 74.4739 93.7589C74.4034 94.2239 74.6031 94.6398 74.9199 94.6878Z" fill="#F29111"/>
<path d="M74.6035 96.7972C74.9203 96.8452 75.2344 96.5072 75.3049 96.0423C75.3754 95.5773 75.1757 95.1614 74.8588 95.1134C74.542 95.0653 74.228 95.4033 74.1575 95.8683C74.087 96.3333 74.2867 96.7491 74.6035 96.7972Z" fill="#F29111"/>
<path d="M79.873 91.1214C80.1899 91.1694 80.5039 90.8315 80.5744 90.3665C80.6449 89.9015 80.4452 89.4856 80.1284 89.4376C79.8115 89.3895 79.4975 89.7275 79.427 90.1925C79.3565 90.6575 79.5562 91.0734 79.873 91.1214Z" fill="#F29111"/>
<path d="M79.5527 93.2327C79.8696 93.2808 80.1836 92.9428 80.2541 92.4778C80.3246 92.0128 80.1249 91.597 79.8081 91.5489C79.4912 91.5009 79.1772 91.8389 79.1067 92.3038C79.0362 92.7688 79.2359 93.1847 79.5527 93.2327Z" fill="#F29111"/>
<path d="M79.2324 95.3411C79.5493 95.3892 79.8633 95.0512 79.9338 94.5862C80.0043 94.1212 79.8046 93.7054 79.4878 93.6573C79.1709 93.6093 78.8569 93.9473 78.7864 94.4122C78.7159 94.8772 78.9156 95.2931 79.2324 95.3411Z" fill="#F29111"/>
<path d="M78.9121 97.4515C79.229 97.4995 79.543 97.1615 79.6135 96.6966C79.684 96.2316 79.4843 95.8157 79.1674 95.7677C78.8506 95.7196 78.5366 96.0576 78.4661 96.5226C78.3956 96.9876 78.5953 97.4034 78.9121 97.4515Z" fill="#F29111"/>
<path d="M84.5019 89.6761C84.8188 89.7241 85.1328 89.3861 85.2033 88.9212C85.2738 88.4562 85.0741 88.0403 84.7573 87.9923C84.4404 87.9442 84.1264 88.2822 84.0559 88.7472C83.9854 89.2122 84.1851 89.628 84.5019 89.6761Z" fill="#F29111"/>
<path d="M84.1855 91.7757C84.5024 91.8237 84.8164 91.4858 84.8869 91.0208C84.9574 90.5558 84.7577 90.1399 84.4409 90.0919C84.124 90.0438 83.81 90.3818 83.7395 90.8468C83.669 91.3118 83.8687 91.7277 84.1855 91.7757Z" fill="#F29111"/>
<path d="M83.8613 93.886C84.1782 93.9341 84.4922 93.5961 84.5627 93.1311C84.6332 92.6662 84.4335 92.2503 84.1167 92.2022C83.7998 92.1542 83.4858 92.4922 83.4153 92.9572C83.3448 93.4221 83.5445 93.838 83.8613 93.886Z" fill="#F29111"/>
<path d="M83.5449 95.9954C83.8618 96.0435 84.1758 95.7055 84.2463 95.2405C84.3168 94.7755 84.1171 94.3596 83.8002 94.3116C83.4834 94.2636 83.1694 94.6016 83.0989 95.0665C83.0284 95.5315 83.2281 95.9474 83.5449 95.9954Z" fill="#F29111"/>
<path d="M83.2246 98.1048C83.5414 98.1528 83.8555 97.8149 83.926 97.3499C83.9965 96.8849 83.7968 96.469 83.4799 96.421C83.1631 96.3729 82.8491 96.7109 82.7786 97.1759C82.7081 97.6409 82.9078 98.0568 83.2246 98.1048Z" fill="#F29111"/>
<path d="M71.4121 98.47C71.729 98.5181 72.043 98.1801 72.1135 97.7151C72.184 97.2501 71.9843 96.8343 71.6674 96.7862C71.3506 96.7382 71.0366 97.0761 70.9661 97.5411C70.8956 98.0061 71.0953 98.422 71.4121 98.47Z" fill="#F29111"/>
<path d="M71.0918 100.579C71.4086 100.627 71.7226 100.289 71.7932 99.8245C71.8637 99.3595 71.664 98.9436 71.3471 98.8956C71.0303 98.8475 70.7163 99.1855 70.6458 99.6505C70.5753 100.115 70.775 100.531 71.0918 100.579Z" fill="#F29111"/>
<path d="M76.4223 98.3892C76.4955 97.9247 76.2985 97.5059 75.9822 97.4539C75.666 97.4019 75.3503 97.7363 75.2771 98.2009C75.2039 98.6654 75.4009 99.0842 75.7171 99.1362C76.0333 99.1882 76.349 98.8538 76.4223 98.3892Z" fill="#F29111"/>
<path d="M76.1019 100.498C76.1752 100.033 75.9782 99.6143 75.6619 99.5623C75.3457 99.5103 75.03 99.8447 74.9568 100.309C74.8836 100.774 75.0806 101.193 75.3968 101.245C75.713 101.297 76.0287 100.962 76.1019 100.498Z" fill="#F29111"/>
<path d="M80.0293 99.7767C80.3461 99.8247 80.6601 99.4867 80.7307 99.0218C80.8012 98.5568 80.6015 98.1409 80.2846 98.0929C79.9678 98.0448 79.6538 98.3828 79.5833 98.8478C79.5128 99.3127 79.7124 99.7286 80.0293 99.7767Z" fill="#F29111"/>
<path d="M79.709 101.886C80.0258 101.934 80.3398 101.596 80.4103 101.131C80.4808 100.666 80.2812 100.25 79.9643 100.202C79.6475 100.154 79.3335 100.492 79.263 100.957C79.1925 101.422 79.3921 101.838 79.709 101.886Z" fill="#F29111"/>
<path d="M84.3379 100.431C84.6547 100.479 84.9687 100.141 85.0392 99.676C85.1098 99.2111 84.9101 98.7952 84.5932 98.7471C84.2764 98.6991 83.9624 99.0371 83.8919 99.5021C83.8214 99.967 84.021 100.383 84.3379 100.431Z" fill="#F29111"/>
<path d="M84.0176 102.54C84.3344 102.588 84.6484 102.25 84.7189 101.785C84.7894 101.32 84.5897 100.905 84.2729 100.857C83.9561 100.808 83.6421 101.146 83.5716 101.611C83.501 102.076 83.7007 102.492 84.0176 102.54Z" fill="#F29111"/>
<path d="M72.8418 98.6878C73.1586 98.7359 73.4726 98.3979 73.5432 97.9329C73.6137 97.4679 73.414 97.052 73.0971 97.004C72.7803 96.9559 72.4663 97.2939 72.3958 97.7589C72.3253 98.2239 72.5249 98.6398 72.8418 98.6878Z" fill="#F29111"/>
<path d="M72.5254 100.797C72.8422 100.845 73.1562 100.507 73.2267 100.042C73.2973 99.5773 73.0976 99.1614 72.7807 99.1134C72.4639 99.0653 72.1499 99.4033 72.0794 99.8683C72.0089 100.333 72.2085 100.749 72.5254 100.797Z" fill="#F29111"/>
<path d="M77.1543 99.3421C77.4711 99.3902 77.7851 99.0522 77.8557 98.5872C77.9262 98.1222 77.7265 97.7063 77.4096 97.6583C77.0928 97.6102 76.7788 97.9482 76.7083 98.4132C76.6378 98.8782 76.8374 99.2941 77.1543 99.3421Z" fill="#F29111"/>
<path d="M76.8379 101.451C77.1547 101.5 77.4687 101.162 77.5392 100.697C77.6098 100.232 77.4101 99.8157 77.0932 99.7677C76.7764 99.7196 76.4624 100.058 76.3919 100.523C76.3214 100.988 76.521 101.403 76.8379 101.451Z" fill="#F29111"/>
<path d="M81.4629 99.9954C81.7797 100.043 82.0937 99.7055 82.1642 99.2405C82.2348 98.7755 82.0351 98.3596 81.7182 98.3116C81.4014 98.2636 81.0874 98.6015 81.0169 99.0665C80.9464 99.5315 81.146 99.9474 81.4629 99.9954Z" fill="#F29111"/>
<path d="M81.1426 102.105C81.4594 102.153 81.7734 101.815 81.8439 101.35C81.9144 100.885 81.7147 100.469 81.3979 100.421C81.0811 100.373 80.7671 100.711 80.6966 101.176C80.626 101.641 80.8257 102.057 81.1426 102.105Z" fill="#F29111"/>
<path d="M74.2832 98.9056C74.6 98.9536 74.9141 98.6156 74.9846 98.1507C75.0551 97.6857 74.8554 97.2698 74.5385 97.2218C74.2217 97.1737 73.9077 97.5117 73.8372 97.9767C73.7667 98.4416 73.9664 98.8575 74.2832 98.9056Z" fill="#F29111"/>
<path d="M73.9629 101.015C74.2797 101.063 74.5937 100.725 74.6642 100.26C74.7348 99.7951 74.5351 99.3792 74.2182 99.3311C73.9014 99.2831 73.5874 99.6211 73.5169 100.086C73.4464 100.551 73.646 100.967 73.9629 101.015Z" fill="#F29111"/>
<path d="M78.5918 99.5599C78.9086 99.6079 79.2226 99.2699 79.2932 98.805C79.3637 98.34 79.164 97.9241 78.8471 97.8761C78.5303 97.828 78.2163 98.166 78.1458 98.631C78.0753 99.0959 78.275 99.5118 78.5918 99.5599Z" fill="#F29111"/>
<path d="M78.2754 101.669C78.5922 101.717 78.9062 101.379 78.9767 100.914C79.0473 100.449 78.8476 100.033 78.5307 99.9854C78.2139 99.9374 77.8999 100.275 77.8294 100.74C77.7589 101.205 77.9586 101.621 78.2754 101.669Z" fill="#F29111"/>
<path d="M82.9043 100.213C83.2211 100.261 83.5351 99.9232 83.6057 99.4583C83.6762 98.9933 83.4765 98.5774 83.1596 98.5294C82.8428 98.4813 82.5288 98.8193 82.4583 99.2843C82.3878 99.7493 82.5874 100.165 82.9043 100.213Z" fill="#F29111"/>
<path d="M82.584 102.324C82.9008 102.372 83.2148 102.034 83.2853 101.569C83.3558 101.104 83.1562 100.688 82.8393 100.64C82.5225 100.592 82.2085 100.93 82.138 101.395C82.0675 101.86 82.2671 102.276 82.584 102.324Z" fill="#F29111"/>
</g>
</g>
<mask id="mask4_3034_2137" style="mask-type:luminance" maskUnits="userSpaceOnUse" x="71" y="88" width="16" height="13">
<path d="M77.4058 100.495C81.4971 101.134 85.5543 96.9391 86.4637 91.113L71.6445 88.7998C70.7365 94.6169 73.3145 99.8567 77.4122 100.496L77.4058 100.495Z" fill="white"/>
</mask>
<g mask="url(#mask4_3034_2137)">
<path d="M72.2705 89.5612C72.5973 89.6122 72.921 89.2769 72.9936 88.8122C73.0661 88.3475 72.86 87.9295 72.5332 87.8785C72.2063 87.8275 71.8826 88.1628 71.8101 88.6275C71.7375 89.0921 71.9437 89.5102 72.2705 89.5612Z" fill="#F29111"/>
<path d="M71.9424 91.6706C72.2692 91.7216 72.5929 91.3862 72.6655 90.9216C72.738 90.4569 72.5319 90.0389 72.205 89.9879C71.8782 89.9369 71.5545 90.2722 71.482 90.7368C71.4094 91.2015 71.6156 91.6196 71.9424 91.6706Z" fill="#F29111"/>
<path d="M71.6103 93.777C71.9372 93.828 72.2609 93.4927 72.3334 93.028C72.406 92.5634 72.1998 92.1453 71.873 92.0943C71.5462 92.0433 71.2225 92.3786 71.1499 92.8433C71.0774 93.308 71.2835 93.726 71.6103 93.777Z" fill="#F29111"/>
<path d="M71.2822 95.8864C71.609 95.9374 71.9328 95.6021 72.0053 95.1374C72.0778 94.6728 71.8717 94.2547 71.5449 94.2037C71.2181 94.1527 70.8943 94.488 70.8218 94.9527C70.7493 95.4173 70.9554 95.8354 71.2822 95.8864Z" fill="#F29111"/>
<path d="M77.4465 89.5207C77.5218 89.0565 77.3185 88.6356 76.9923 88.5806C76.6661 88.5256 76.3406 88.8574 76.2653 89.3216C76.19 89.7858 76.3933 90.2067 76.7195 90.2617C77.0457 90.3167 77.3712 89.9849 77.4465 89.5207Z" fill="#F29111"/>
<path d="M77.1145 91.6291C77.1898 91.1649 76.9864 90.744 76.6602 90.689C76.3341 90.634 76.0086 90.9658 75.9333 91.43C75.8579 91.8942 76.0613 92.3151 76.3875 92.3701C76.7137 92.4251 77.0391 92.0933 77.1145 91.6291Z" fill="#F29111"/>
<path d="M76.7863 93.7356C76.8617 93.2713 76.6583 92.8504 76.3321 92.7955C76.0059 92.7405 75.6805 93.0722 75.6051 93.5364C75.5298 94.0006 75.7332 94.4215 76.0594 94.4765C76.3855 94.5315 76.711 94.1998 76.7863 93.7356Z" fill="#F29111"/>
<path d="M75.7314 96.5817C76.0582 96.6327 76.382 96.2974 76.4545 95.8327C76.527 95.3681 76.3209 94.95 75.9941 94.899C75.6673 94.848 75.3435 95.1833 75.271 95.648C75.1985 96.1127 75.4046 96.5307 75.7314 96.5817Z" fill="#F29111"/>
<path d="M81.4853 88.8405C81.8122 88.8915 82.1359 88.5562 82.2084 88.0915C82.281 87.6268 82.0748 87.2088 81.748 87.1578C81.4212 87.1068 81.0975 87.4421 81.0249 87.9068C80.9524 88.3714 81.1585 88.7895 81.4853 88.8405Z" fill="#F29111"/>
<path d="M81.1572 90.9489C81.484 90.9999 81.8078 90.6646 81.8803 90.1999C81.9528 89.7352 81.7467 89.3172 81.4199 89.2662C81.0931 89.2152 80.7693 89.5505 80.6968 90.0152C80.6243 90.4798 80.8304 90.8979 81.1572 90.9489Z" fill="#F29111"/>
<path d="M80.8291 93.0573C81.1559 93.1083 81.4796 92.773 81.5522 92.3083C81.6247 91.8436 81.4186 91.4256 81.0917 91.3746C80.7649 91.3236 80.4412 91.6589 80.3687 92.1236C80.2961 92.5882 80.5023 93.0063 80.8291 93.0573Z" fill="#F29111"/>
<path d="M80.501 95.1637C80.8278 95.2147 81.1515 94.8794 81.224 94.4148C81.2966 93.9501 81.0904 93.5321 80.7636 93.481C80.4368 93.43 80.1131 93.7653 80.0405 94.23C79.968 94.6947 80.1741 95.1127 80.501 95.1637Z" fill="#F29111"/>
<path d="M80.1689 97.2731C80.4957 97.3241 80.8195 96.9888 80.892 96.5241C80.9645 96.0595 80.7584 95.6414 80.4316 95.5904C80.1048 95.5394 79.781 95.8747 79.7085 96.3394C79.636 96.8041 79.8421 97.2221 80.1689 97.2731Z" fill="#F29111"/>
<path d="M85.9346 89.5348C86.2614 89.5858 86.5851 89.2505 86.6576 88.7858C86.7302 88.3212 86.524 87.9031 86.1972 87.8521C85.8704 87.8011 85.5467 88.1364 85.4741 88.6011C85.4016 89.0658 85.6077 89.4838 85.9346 89.5348Z" fill="#F29111"/>
<path d="M85.6064 91.6423C85.9332 91.6933 86.257 91.3579 86.3295 90.8933C86.402 90.4286 86.1959 90.0106 85.8691 89.9596C85.5423 89.9085 85.2185 90.2439 85.146 90.7085C85.0735 91.1732 85.2796 91.5912 85.6064 91.6423Z" fill="#F29111"/>
<path d="M85.2744 93.7516C85.6012 93.8026 85.925 93.4673 85.9975 93.0026C86.07 92.538 85.8639 92.1199 85.5371 92.0689C85.2102 92.0179 84.8865 92.3532 84.814 92.8179C84.7415 93.2826 84.9476 93.7006 85.2744 93.7516Z" fill="#F29111"/>
<path d="M84.9463 95.859C85.2731 95.9101 85.5968 95.5747 85.6694 95.1101C85.7419 94.6454 85.5357 94.2274 85.2089 94.1764C84.8821 94.1253 84.5584 94.4607 84.4859 94.9253C84.4133 95.39 84.6195 95.808 84.9463 95.859Z" fill="#F29111"/>
<path d="M84.6181 97.9674C84.945 98.0185 85.2687 97.6831 85.3412 97.2185C85.4138 96.7538 85.2076 96.3358 84.8808 96.2848C84.554 96.2337 84.2303 96.5691 84.1577 97.0337C84.0852 97.4984 84.2913 97.9164 84.6181 97.9674Z" fill="#F29111"/>
<path d="M73.7471 89.7926C74.0739 89.8437 74.3976 89.5083 74.4701 89.0437C74.5427 88.579 74.3365 88.161 74.0097 88.1099C73.6829 88.0589 73.3592 88.3943 73.2866 88.8589C73.2141 89.3236 73.4202 89.7416 73.7471 89.7926Z" fill="#F29111"/>
<path d="M73.4189 91.901C73.7457 91.9521 74.0695 91.6167 74.142 91.1521C74.2145 90.6874 74.0084 90.2694 73.6816 90.2183C73.3548 90.1673 73.031 90.5027 72.9585 90.9673C72.886 91.432 73.0921 91.85 73.4189 91.901Z" fill="#F29111"/>
<path d="M73.0908 94.0075C73.4176 94.0585 73.7414 93.7232 73.8139 93.2585C73.8864 92.7938 73.6803 92.3758 73.3535 92.3248C73.0266 92.2738 72.7029 92.6091 72.6304 93.0738C72.5579 93.5384 72.764 93.9565 73.0908 94.0075Z" fill="#F29111"/>
<path d="M72.7627 96.1169C73.0895 96.1679 73.4132 95.8326 73.4858 95.3679C73.5583 94.9032 73.3522 94.4852 73.0253 94.4342C72.6985 94.3832 72.3748 94.7185 72.3023 95.1832C72.2297 95.6478 72.4359 96.0658 72.7627 96.1169Z" fill="#F29111"/>
<path d="M78.2002 90.487C78.527 90.538 78.8507 90.2027 78.9233 89.738C78.9958 89.2733 78.7897 88.8553 78.4628 88.8043C78.136 88.7533 77.8123 89.0886 77.7398 89.5533C77.6672 90.0179 77.8734 90.436 78.2002 90.487Z" fill="#F29111"/>
<path d="M77.8721 92.5954C78.1989 92.6464 78.5226 92.3111 78.5951 91.8464C78.6677 91.3817 78.4615 90.9637 78.1347 90.9127C77.8079 90.8617 77.4842 91.197 77.4116 91.6617C77.3391 92.1263 77.5452 92.5444 77.8721 92.5954Z" fill="#F29111"/>
<path d="M77.5439 94.7028C77.8707 94.7538 78.1945 94.4185 78.267 93.9538C78.3395 93.4891 78.1334 93.0711 77.8066 93.0201C77.4798 92.9691 77.156 93.3044 77.0835 93.7691C77.011 94.2337 77.2171 94.6518 77.5439 94.7028Z" fill="#F29111"/>
<path d="M77.2119 96.8122C77.5387 96.8632 77.8625 96.5279 77.935 96.0632C78.0075 95.5985 77.8014 95.1805 77.4746 95.1295C77.1477 95.0785 76.824 95.4138 76.7515 95.8785C76.679 96.3431 76.8851 96.7612 77.2119 96.8122Z" fill="#F29111"/>
<path d="M82.9658 89.0729C83.2926 89.1239 83.6164 88.7886 83.6889 88.3239C83.7614 87.8593 83.5553 87.4412 83.2285 87.3902C82.9016 87.3392 82.5779 87.6745 82.5054 88.1392C82.4329 88.6039 82.639 89.0219 82.9658 89.0729Z" fill="#F29111"/>
<path d="M82.6377 91.1794C82.9645 91.2304 83.2882 90.895 83.3608 90.4304C83.4333 89.9657 83.2272 89.5477 82.9003 89.4967C82.5735 89.4457 82.2498 89.781 82.1773 90.2456C82.1047 90.7103 82.3109 91.1283 82.6377 91.1794Z" fill="#F29111"/>
<path d="M82.3096 93.2887C82.6364 93.3397 82.9601 93.0044 83.0326 92.5398C83.1052 92.0751 82.899 91.6571 82.5722 91.606C82.2454 91.555 81.9217 91.8903 81.8491 92.355C81.7766 92.8197 81.9827 93.2377 82.3096 93.2887Z" fill="#F29111"/>
<path d="M81.9814 95.3962C82.3082 95.4472 82.632 95.1118 82.7045 94.6472C82.777 94.1825 82.5709 93.7645 82.2441 93.7135C81.9173 93.6624 81.5935 93.9978 81.521 94.4624C81.4485 94.9271 81.6546 95.3451 81.9814 95.3962Z" fill="#F29111"/>
<path d="M81.6533 97.5046C81.9801 97.5556 82.3039 97.2202 82.3764 96.7556C82.4489 96.2909 82.2428 95.8729 81.916 95.8219C81.5891 95.7708 81.2654 96.1062 81.1929 96.5708C81.1204 97.0355 81.3265 97.4535 81.6533 97.5046Z" fill="#F29111"/>
<path d="M75.2314 90.0231C75.5582 90.0741 75.882 89.7388 75.9545 89.2741C76.027 88.8095 75.8209 88.3914 75.4941 88.3404C75.1673 88.2894 74.8435 88.6247 74.771 89.0894C74.6985 89.5541 74.9046 89.9721 75.2314 90.0231Z" fill="#F29111"/>
<path d="M74.9033 92.1325C75.2301 92.1835 75.5539 91.8482 75.6264 91.3835C75.6989 90.9188 75.4928 90.5008 75.166 90.4498C74.8391 90.3988 74.5154 90.7341 74.4429 91.1988C74.3704 91.6634 74.5765 92.0815 74.9033 92.1325Z" fill="#F29111"/>
<path d="M74.5752 94.2399C74.902 94.2909 75.2257 93.9556 75.2983 93.4909C75.3708 93.0263 75.1647 92.6082 74.8378 92.5572C74.511 92.5062 74.1873 92.8415 74.1148 93.3062C74.0422 93.7708 74.2484 94.1889 74.5752 94.2399Z" fill="#F29111"/>
<path d="M74.2471 96.3483C74.5739 96.3993 74.8976 96.064 74.9701 95.5993C75.0427 95.1347 74.8365 94.7166 74.5097 94.6656C74.1829 94.6146 73.8592 94.9499 73.7866 95.4146C73.7141 95.8793 73.9202 96.2973 74.2471 96.3483Z" fill="#F29111"/>
<path d="M79.6807 90.7184C80.0075 90.7694 80.3312 90.4341 80.4037 89.9694C80.4763 89.5048 80.2701 89.0867 79.9433 89.0357C79.6165 88.9847 79.2928 89.32 79.2202 89.7847C79.1477 90.2494 79.3538 90.6674 79.6807 90.7184Z" fill="#F29111"/>
<path d="M79.3486 92.8268C79.6754 92.8778 79.9992 92.5425 80.0717 92.0778C80.1442 91.6132 79.9381 91.1951 79.6113 91.1441C79.2845 91.0931 78.9607 91.4284 78.8882 91.8931C78.8157 92.3578 79.0218 92.7758 79.3486 92.8268Z" fill="#F29111"/>
<path d="M79.0205 94.9342C79.3473 94.9853 79.671 94.6499 79.7436 94.1853C79.8161 93.7206 79.61 93.3026 79.2832 93.2515C78.9563 93.2005 78.6326 93.5359 78.5601 94.0005C78.4875 94.4652 78.6937 94.8832 79.0205 94.9342Z" fill="#F29111"/>
<path d="M78.6924 97.0426C79.0192 97.0937 79.3429 96.7583 79.4155 96.2937C79.488 95.829 79.2819 95.411 78.955 95.3599C78.6282 95.3089 78.3045 95.6443 78.232 96.1089C78.1594 96.5736 78.3656 96.9916 78.6924 97.0426Z" fill="#F29111"/>
<path d="M84.4541 89.3044C84.7809 89.3554 85.1046 89.02 85.1772 88.5554C85.2497 88.0907 85.0436 87.6727 84.7167 87.6217C84.3899 87.5707 84.0662 87.906 83.9937 88.3706C83.9211 88.8353 84.1273 89.2533 84.4541 89.3044Z" fill="#F29111"/>
<path d="M84.126 91.4118C84.4528 91.4628 84.7765 91.1275 84.849 90.6628C84.9216 90.1981 84.7154 89.7801 84.3886 89.7291C84.0618 89.6781 83.7381 90.0134 83.6655 90.4781C83.593 90.9427 83.7991 91.3608 84.126 91.4118Z" fill="#F29111"/>
<path d="M83.7978 93.5202C84.1247 93.5712 84.4484 93.2359 84.5209 92.7712C84.5935 92.3065 84.3873 91.8885 84.0605 91.8375C83.7337 91.7865 83.41 92.1218 83.3374 92.5865C83.2649 93.0511 83.471 93.4692 83.7978 93.5202Z" fill="#F29111"/>
<path d="M83.4658 95.6276C83.7926 95.6786 84.1164 95.3433 84.1889 94.8786C84.2614 94.414 84.0553 93.9959 83.7285 93.9449C83.4016 93.8939 83.0779 94.2292 83.0054 94.6939C82.9329 95.1585 83.139 95.5766 83.4658 95.6276Z" fill="#F29111"/>
<path d="M83.1377 97.737C83.4645 97.788 83.7882 97.4527 83.8608 96.988C83.9333 96.5233 83.7272 96.1053 83.4003 96.0543C83.0735 96.0033 82.7498 96.3386 82.6773 96.8033C82.6047 97.2679 82.8109 97.686 83.1377 97.737Z" fill="#F29111"/>
<path d="M70.9541 97.9938C71.2809 98.0448 71.6046 97.7095 71.6772 97.2448C71.7497 96.7802 71.5436 96.3621 71.2168 96.3111C70.8899 96.2601 70.5662 96.5954 70.4937 97.0601C70.4211 97.5248 70.6273 97.9428 70.9541 97.9938Z" fill="#F29111"/>
<path d="M70.626 100.092C70.9528 100.143 71.2765 99.8081 71.349 99.3435C71.4216 98.8788 71.2154 98.4608 70.8886 98.4098C70.5618 98.3587 70.2381 98.6941 70.1655 99.1587C70.093 99.6234 70.2992 100.041 70.626 100.092Z" fill="#F29111"/>
<path d="M76.1301 97.9524C76.2054 97.4881 76.0021 97.0672 75.6759 97.0123C75.3497 96.9573 75.0242 97.289 74.9489 97.7532C74.8736 98.2174 75.0769 98.6383 75.4031 98.6933C75.7293 98.7483 76.0548 98.4166 76.1301 97.9524Z" fill="#F29111"/>
<path d="M75.7942 100.06C75.8695 99.5956 75.6661 99.1747 75.3399 99.1197C75.0138 99.0647 74.6883 99.3964 74.6129 99.8607C74.5376 100.325 74.741 100.746 75.0672 100.801C75.3933 100.856 75.7188 100.524 75.7942 100.06Z" fill="#F29111"/>
<path d="M79.8408 99.3805C80.1676 99.4315 80.4914 99.0962 80.5639 98.6316C80.6364 98.1669 80.4303 97.7489 80.1035 97.6978C79.7766 97.6468 79.4529 97.9822 79.3804 98.4468C79.3079 98.9115 79.514 99.3295 79.8408 99.3805Z" fill="#F29111"/>
<path d="M79.5127 101.48C79.8395 101.531 80.1632 101.196 80.2358 100.731C80.3083 100.266 80.1022 99.8485 79.7753 99.7974C79.4485 99.7464 79.1248 100.082 79.0523 100.546C78.9797 101.011 79.1859 101.429 79.5127 101.48Z" fill="#F29111"/>
<path d="M84.2861 100.075C84.6129 100.126 84.9367 99.7906 85.0092 99.3259C85.0817 98.8612 84.8756 98.4432 84.5488 98.3922C84.222 98.3412 83.8982 98.6765 83.8257 99.1412C83.7532 99.6058 83.9593 100.024 84.2861 100.075Z" fill="#F29111"/>
<path d="M83.9619 102.174C84.2887 102.225 84.6125 101.889 84.685 101.425C84.7575 100.96 84.5514 100.542 84.2246 100.491C83.8977 100.44 83.574 100.775 83.5015 101.24C83.429 101.704 83.6351 102.122 83.9619 102.174Z" fill="#F29111"/>
<path d="M72.4346 98.2243C72.7614 98.2753 73.0851 97.94 73.1576 97.4753C73.2302 97.0106 73.024 96.5926 72.6972 96.5416C72.3704 96.4906 72.0467 96.8259 71.9741 97.2906C71.9016 97.7552 72.1077 98.1733 72.4346 98.2243Z" fill="#F29111"/>
<path d="M72.1064 100.323C72.4332 100.374 72.757 100.039 72.8295 99.5739C72.902 99.1093 72.6959 98.6912 72.3691 98.6402C72.0423 98.5892 71.7185 98.9245 71.646 99.3892C71.5735 99.8539 71.7796 100.272 72.1064 100.323Z" fill="#F29111"/>
<path d="M76.8838 98.9186C77.2106 98.9696 77.5343 98.6343 77.6069 98.1696C77.6794 97.705 77.4732 97.2869 77.1464 97.2359C76.8196 97.1849 76.4959 97.5202 76.4234 97.9849C76.3508 98.4496 76.557 98.8676 76.8838 98.9186Z" fill="#F29111"/>
<path d="M76.5556 101.017C76.8825 101.068 77.2062 100.733 77.2787 100.268C77.3513 99.8036 77.1451 99.3856 76.8183 99.3346C76.4915 99.2835 76.1678 99.6189 76.0952 100.084C76.0227 100.548 76.2288 100.966 76.5556 101.017Z" fill="#F29111"/>
<path d="M81.3213 99.612C81.6481 99.663 81.9718 99.3277 82.0444 98.863C82.1169 98.3983 81.9107 97.9803 81.5839 97.9293C81.2571 97.8783 80.9334 98.2136 80.8609 98.6783C80.7883 99.1429 80.9945 99.561 81.3213 99.612Z" fill="#F29111"/>
<path d="M80.9931 101.711C81.32 101.762 81.6437 101.426 81.7162 100.962C81.7888 100.497 81.5826 100.079 81.2558 100.028C80.929 99.9769 80.6053 100.312 80.5327 100.777C80.4602 101.242 80.6663 101.66 80.9931 101.711Z" fill="#F29111"/>
<path d="M73.9189 98.4567C74.2457 98.5077 74.5695 98.1724 74.642 97.7077C74.7145 97.2431 74.5084 96.825 74.1816 96.774C73.8548 96.723 73.531 97.0583 73.4585 97.523C73.386 97.9877 73.5921 98.4057 73.9189 98.4567Z" fill="#F29111"/>
<path d="M73.5908 100.554C73.9176 100.605 74.2414 100.27 74.3139 99.8054C74.3864 99.3407 74.1803 98.9227 73.8535 98.8717C73.5266 98.8207 73.2029 99.156 73.1304 99.6206C73.0579 100.085 73.264 100.503 73.5908 100.554Z" fill="#F29111"/>
<path d="M78.3603 99.1501C78.6872 99.2011 79.0109 98.8658 79.0834 98.4011C79.156 97.9364 78.9498 97.5184 78.623 97.4674C78.2962 97.4164 77.9725 97.7517 77.8999 98.2164C77.8274 98.681 78.0335 99.0991 78.3603 99.1501Z" fill="#F29111"/>
<path d="M78.0361 101.25C78.3629 101.301 78.6867 100.965 78.7592 100.501C78.8317 100.036 78.6256 99.618 78.2988 99.567C77.972 99.516 77.6482 99.8513 77.5757 100.316C77.5032 100.781 77.7093 101.199 78.0361 101.25Z" fill="#F29111"/>
<path d="M82.8096 99.8434C83.1364 99.8944 83.4601 99.5591 83.5326 99.0945C83.6052 98.6298 83.399 98.2117 83.0722 98.1607C82.7454 98.1097 82.4217 98.4451 82.3491 98.9097C82.2766 99.3744 82.4827 99.7924 82.8096 99.8434Z" fill="#F29111"/>
<path d="M82.4814 101.942C82.8082 101.993 83.132 101.658 83.2045 101.193C83.277 100.728 83.0709 100.31 82.7441 100.259C82.4173 100.208 82.0935 100.544 82.021 101.008C81.9485 101.473 82.1546 101.891 82.4814 101.942Z" fill="#F29111"/>
</g>
<path d="M85.899 48.6226C79.0644 40.5926 73.9598 47.4385 72.3008 51.7697C73.4685 43.0298 73.0127 41.0401 77.4118 37.7398C81.2527 34.8582 82.224 38.0569 82.6317 38.8029C83.0093 39.4937 85.1045 44.847 85.899 48.6226Z" fill="#FF9100"/>
<g filter="url(#filter3_d_3034_2137)">
<path d="M157.465 118.508L153.76 112.379C153.448 111.863 153.383 111.236 153.582 110.667L155.806 104.328C156.112 103.456 156.972 102.903 157.892 102.988L183.309 105.303C184.345 105.397 185.139 106.264 185.143 107.305L185.15 109.565C185.154 110.907 184.275 112.091 182.989 112.475L159.767 119.398C158.886 119.66 157.94 119.295 157.465 118.508Z" fill="white"/>
</g>
<path d="M182.984 112.474L168.426 116.796L173.224 104.385L183.306 105.303C184.342 105.396 185.137 106.264 185.14 107.305L185.148 109.563C185.152 110.905 184.27 112.091 182.984 112.474Z" fill="#F29111"/>
<g filter="url(#filter4_d_3034_2137)">
<g filter="url(#filter5_d_3034_2137)">
<path d="M49.8812 109.793L53.6365 103.694C53.9522 103.181 54.0223 102.554 53.8277 101.984L51.6561 95.6278C51.3573 94.753 50.5021 94.1934 49.5808 94.2696L24.1462 96.376C23.1092 96.462 22.3077 97.3226 22.2957 98.3631L22.2697 100.624C22.2543 101.965 23.1244 103.157 24.4071 103.551L47.5715 110.663C48.4499 110.933 49.3995 110.575 49.8812 109.793Z" fill="white"/>
</g>
</g>
<path d="M24.414 103.548L38.9359 107.991L34.24 95.54L24.1502 96.3754C23.1131 96.4613 22.3116 97.322 22.2997 98.3625L22.2736 100.621C22.2582 101.964 23.1298 103.156 24.414 103.548Z" fill="#F29111"/>
<path fill-rule="evenodd" clip-rule="evenodd" d="M81.4429 109.07C81.2648 110.368 82.363 111.732 84.1028 111.97C85.8426 112.209 87.2672 111.191 87.4452 109.893L88.5256 110.04C88.2449 112.088 86.1266 113.349 83.9546 113.05C81.7828 112.752 80.0818 110.969 80.3624 108.922L81.4429 109.07Z" fill="#FF9100"/>
<path fill-rule="evenodd" clip-rule="evenodd" d="M88.5288 110.041C88.3507 111.34 89.449 112.702 91.1887 112.942C92.9285 113.18 94.353 112.163 94.5312 110.864L95.6115 111.012C95.3307 113.06 93.2124 114.319 91.0406 114.022C88.8686 113.724 87.1677 111.94 87.4483 109.893L88.5288 110.041Z" fill="#FF9100"/>
<g filter="url(#filter6_d_3034_2137)">
<path d="M171.713 141.216L174.637 134.872C175.763 132.428 173.987 129.905 171.348 130.202L132.653 134.54C128.174 135.042 123.707 134.882 119.4 134.068L60.0288 122.827C54.5677 121.793 48.6876 123.373 44.1155 127.101L15.3038 150.599C9.04027 155.707 12.2081 164.961 19.9912 164.132C63.1743 159.53 126.051 150.946 163.489 147.137C167.021 146.778 170.205 144.486 171.713 141.216Z" fill="#49494A"/>
</g>
<path d="M170.11 139.445L172.643 135.18C173.735 133.343 172.446 131.227 170.365 131.441L130.962 135.491C126.691 135.931 122.435 135.769 118.324 135.009L60.7477 124.376C55.3642 123.382 49.5806 124.921 45.0484 128.554L17.9519 150.276C12.2486 154.848 15.0769 163.221 22.1157 162.449C62.4763 158.027 123.377 149.442 160.666 145.553C164.529 145.15 168.084 142.857 170.11 139.445Z" fill="white"/>
<path d="M169.645 141.026L173.092 135.094C174.17 133.242 172.843 131.136 170.756 131.385L131.037 136.121C126.756 136.632 122.479 136.538 118.34 135.843L60.2089 126.09C55.1712 125.245 49.7996 126.729 45.5901 130.13L19.2542 151.407C14.29 155.418 16.7812 162.828 22.9276 162.256C71.7582 157.714 127.943 150.034 162.989 145.496C165.733 145.141 168.229 143.462 169.645 141.026Z" fill="#7896B2"/>
<path d="M166.311 140.575L169.205 136.52C170.006 135.4 169.258 134.037 167.919 134.176L128.83 138.262C124.518 138.712 120.242 138.573 116.13 137.848L61.49 128.211C56.9148 127.404 51.9286 128.751 47.9978 131.856L22.5287 151.971C18.6715 155.017 20.3942 160.416 25.101 159.921C59.2906 156.333 133.458 147.528 159.652 144.559C162.291 144.26 164.734 142.785 166.311 140.575Z" fill="white" fill-opacity="0.4"/>
<g filter="url(#filter7_f_3034_2137)">
<path d="M38.7751 154.772C34.044 150.256 37.6103 142.311 46.7408 137.026C55.8713 131.74 67.1084 131.114 71.8396 135.63C76.5709 140.145 73.0044 148.091 63.8739 153.377C54.7434 158.663 43.5063 159.287 38.7751 154.772Z" fill="#B5E7FF"/>
</g>
<path d="M42.1742 152.804C38.4333 149.235 41.2811 142.936 48.5349 138.737C55.7888 134.537 64.7019 134.028 68.4428 137.597C72.1837 141.167 69.3359 147.466 62.082 151.666C54.8281 155.865 45.9151 156.375 42.1742 152.804Z" fill="#8EC9E6"/>
<path fill-rule="evenodd" clip-rule="evenodd" d="M41.4473 146.072C40.3103 148.586 40.5476 150.985 42.3487 152.703C44.1498 154.422 47.2194 155.18 50.7782 154.977C54.3327 154.774 58.3362 153.61 61.936 151.526C65.5359 149.443 68.0339 146.842 69.1696 144.33C70.3067 141.815 70.0693 139.417 68.2683 137.699C66.4672 135.979 63.3975 135.222 59.8388 135.425C56.2843 135.628 52.2808 136.792 48.6809 138.876C45.081 140.96 42.583 143.561 41.4473 146.072ZM48.5349 138.737C41.2811 142.936 38.4333 149.235 42.1742 152.804C45.9151 156.375 54.8281 155.865 62.082 151.666C69.3359 147.466 72.1837 141.167 68.4428 137.597C64.7019 134.028 55.7888 134.537 48.5349 138.737Z" fill="white" fill-opacity="0.6"/>
<g filter="url(#filter8_f_3034_2137)">
<path d="M43.3511 152.123C39.9403 148.869 42.5291 143.13 49.1333 139.306C55.7377 135.483 63.8565 135.023 67.2673 138.278C70.6781 141.533 68.0893 147.271 61.4851 151.095C54.8808 154.918 46.762 155.379 43.3511 152.123Z" fill="#AFE5FF"/>
</g>
<path d="M46.2236 150.459C43.6381 147.992 45.6085 143.637 50.6248 140.733C55.6413 137.829 61.8039 137.476 64.3895 139.943C66.9752 142.411 65.0047 146.766 59.9883 149.669C54.9719 152.573 48.8093 152.927 46.2236 150.459Z" fill="#E3F5FD" fill-opacity="0.8"/>
<g filter="url(#filter9_f_3034_2137)">
<path d="M93.6192 150.537C90.4954 147.555 92.8502 142.31 98.8785 138.82C104.907 135.33 112.326 134.918 115.45 137.899C118.573 140.88 116.218 146.126 110.19 149.616C104.162 153.105 96.743 153.518 93.6192 150.537Z" fill="#B5E7FF"/>
</g>
<path d="M95.8647 149.237C93.3948 146.88 95.2749 142.722 100.064 139.949C104.853 137.177 110.738 136.84 113.208 139.197C115.678 141.554 113.798 145.713 109.009 148.486C104.219 151.259 98.3345 151.595 95.8647 149.237Z" fill="#8EC9E6"/>
<path fill-rule="evenodd" clip-rule="evenodd" d="M95.4581 144.815C94.7122 146.465 94.8736 148.024 96.0392 149.136C97.2047 150.249 99.1997 150.747 101.534 150.614C103.865 150.481 106.495 149.717 108.862 148.347C111.23 146.976 112.87 145.267 113.615 143.621C114.361 141.971 114.2 140.41 113.034 139.298C111.868 138.186 109.873 137.687 107.539 137.821C105.208 137.954 102.578 138.718 100.21 140.089C97.8427 141.459 96.2027 143.168 95.4581 144.815ZM100.064 139.949C95.2749 142.722 93.3948 146.88 95.8647 149.237C98.3345 151.595 104.219 151.259 109.009 148.486C113.798 145.713 115.678 141.554 113.208 139.197C110.738 136.84 104.853 137.177 100.064 139.949Z" fill="white" fill-opacity="0.6"/>
<g filter="url(#filter10_f_3034_2137)">
<path d="M96.641 148.789C94.3891 146.639 96.0983 142.85 100.459 140.327C104.819 137.802 110.18 137.498 112.432 139.647C114.683 141.796 112.975 145.585 108.614 148.109C104.253 150.633 98.893 150.938 96.641 148.789Z" fill="#AFE5FF"/>
</g>
<path d="M98.5402 147.69C96.8331 146.061 98.1341 143.185 101.447 141.268C104.758 139.351 108.827 139.117 110.534 140.747C112.241 142.375 110.94 145.251 107.628 147.168C104.316 149.086 100.247 149.319 98.5402 147.69Z" fill="#E3F5FD" fill-opacity="0.8"/>
<g filter="url(#filter11_f_3034_2137)">
<path d="M135.675 146.079C133.371 143.88 135.107 140.011 139.554 137.437C143.999 134.863 149.471 134.56 151.775 136.758C154.078 138.957 152.342 142.826 147.896 145.4C143.45 147.974 137.978 148.277 135.675 146.079Z" fill="#B5E7FF"/>
</g>
<path d="M137.329 145.12C135.508 143.383 136.894 140.316 140.426 138.27C143.959 136.226 148.299 135.978 150.121 137.715C151.942 139.454 150.556 142.521 147.024 144.566C143.492 146.611 139.151 146.859 137.329 145.12Z" fill="#8EC9E6"/>
<path fill-rule="evenodd" clip-rule="evenodd" d="M137.086 141.876C136.539 143.084 136.662 144.217 137.504 145.02C138.346 145.822 139.792 146.189 141.503 146.091C143.208 145.993 145.139 145.433 146.877 144.427C148.616 143.42 149.818 142.166 150.364 140.96C150.911 139.752 150.788 138.62 149.946 137.816C149.104 137.014 147.658 136.648 145.947 136.746C144.242 136.843 142.312 137.403 140.573 138.409C138.834 139.416 137.632 140.671 137.086 141.876ZM140.426 138.27C136.894 140.316 135.508 143.383 137.329 145.12C139.151 146.859 143.492 146.611 147.024 144.566C150.556 142.521 151.942 139.454 150.121 137.715C148.299 135.978 143.959 136.226 140.426 138.27Z" fill="white" fill-opacity="0.6"/>
<g filter="url(#filter12_f_3034_2137)">
<path d="M137.9 144.79C136.239 143.204 137.5 140.41 140.715 138.548C143.931 136.687 147.884 136.463 149.545 138.047C151.206 139.633 149.946 142.426 146.729 144.288C143.514 146.15 139.56 146.374 137.9 144.79Z" fill="#AFE5FF"/>
</g>
<path d="M139.304 143.979C138.045 142.778 139.005 140.657 141.447 139.243C143.889 137.829 146.891 137.656 148.15 138.859C149.408 140.06 148.449 142.181 146.006 143.595C143.564 145.009 140.563 145.18 139.304 143.979Z" fill="#E3F5FD" fill-opacity="0.8"/>
</g>
<path d="M93.5992 186.8C141.317 186.8 179.999 182.413 179.999 177C179.999 171.588 141.317 167.2 93.5992 167.2C45.8818 167.2 7.19922 171.588 7.19922 177C7.19922 182.413 45.8818 186.8 93.5992 186.8Z" fill="#A4AFBF" fill-opacity="0.7"/>
</g>
<defs>
<filter id="filter0_d_3034_2137" x="67.1914" y="36.3994" width="24.5" height="44.9385" filterUnits="userSpaceOnUse" color-interpolation-filters="sRGB">
<feFlood flood-opacity="0" result="BackgroundImageFix"/>
<feColorMatrix in="SourceAlpha" type="matrix" values="0 0 0 0 0 0 0 0 0 0 0 0 0 0 0 0 0 0 127 0" result="hardAlpha"/>
<feOffset dy="4"/>
<feGaussianBlur stdDeviation="2"/>
<feComposite in2="hardAlpha" operator="out"/>
<feColorMatrix type="matrix" values="0 0 0 0 0 0 0 0 0 0 0 0 0 0 0 0 0 0 0.45 0"/>
<feBlend mode="normal" in2="BackgroundImageFix" result="effect1_dropShadow_3034_2137"/>
<feBlend mode="normal" in="SourceGraphic" in2="effect1_dropShadow_3034_2137" result="shape"/>
</filter>
<filter id="filter1_d_3034_2137" x="57.9922" y="33.7344" width="124.5" height="106.476" filterUnits="userSpaceOnUse" color-interpolation-filters="sRGB">
<feFlood flood-opacity="0" result="BackgroundImageFix"/>
<feColorMatrix in="SourceAlpha" type="matrix" values="0 0 0 0 0 0 0 0 0 0 0 0 0 0 0 0 0 0 127 0" result="hardAlpha"/>
<feOffset/>
<feGaussianBlur stdDeviation="1.5"/>
<feComposite in2="hardAlpha" operator="out"/>
<feColorMatrix type="matrix" values="0 0 0 0 0 0 0 0 0 0 0 0 0 0 0 0 0 0 0.25 0"/>
<feBlend mode="normal" in2="BackgroundImageFix" result="effect1_dropShadow_3034_2137"/>
<feBlend mode="normal" in="SourceGraphic" in2="effect1_dropShadow_3034_2137" result="shape"/>
</filter>
<filter id="filter2_d_3034_2137" x="52.9922" y="28.7344" width="134.5" height="116.476" filterUnits="userSpaceOnUse" color-interpolation-filters="sRGB">
<feFlood flood-opacity="0" result="BackgroundImageFix"/>
<feColorMatrix in="SourceAlpha" type="matrix" values="0 0 0 0 0 0 0 0 0 0 0 0 0 0 0 0 0 0 127 0" result="hardAlpha"/>
<feOffset/>
<feGaussianBlur stdDeviation="4"/>
<feComposite in2="hardAlpha" operator="out"/>
<feColorMatrix type="matrix" values="0 0 0 0 0 0 0 0 0 0 0 0 0 0 0 0 0 0 0.2 0"/>
<feBlend mode="normal" in2="BackgroundImageFix" result="effect1_dropShadow_3034_2137"/>
<feBlend mode="normal" in="SourceGraphic" in2="effect1_dropShadow_3034_2137" result="shape"/>
</filter>
<filter id="filter3_d_3034_2137" x="133.469" y="90.9795" width="71.6836" height="56.502" filterUnits="userSpaceOnUse" color-interpolation-filters="sRGB">
<feFlood flood-opacity="0" result="BackgroundImageFix"/>
<feColorMatrix in="SourceAlpha" type="matrix" values="0 0 0 0 0 0 0 0 0 0 0 0 0 0 0 0 0 0 127 0" result="hardAlpha"/>
<feOffset dy="8"/>
<feGaussianBlur stdDeviation="10"/>
<feComposite in2="hardAlpha" operator="out"/>
<feColorMatrix type="matrix" values="0 0 0 0 0 0 0 0 0 0 0 0 0 0 0 0 0 0 0.25 0"/>
<feBlend mode="normal" in2="BackgroundImageFix" result="effect1_dropShadow_3034_2137"/>
<feBlend mode="normal" in="SourceGraphic" in2="effect1_dropShadow_3034_2137" result="shape"/>
</filter>
<filter id="filter4_d_3034_2137" x="2.26953" y="82.2627" width="71.668" height="56.4893" filterUnits="userSpaceOnUse" color-interpolation-filters="sRGB">
<feFlood flood-opacity="0" result="BackgroundImageFix"/>
<feColorMatrix in="SourceAlpha" type="matrix" values="0 0 0 0 0 0 0 0 0 0 0 0 0 0 0 0 0 0 127 0" result="hardAlpha"/>
<feOffset dy="8"/>
<feGaussianBlur stdDeviation="10"/>
<feComposite in2="hardAlpha" operator="out"/>
<feColorMatrix type="matrix" values="0 0 0 0 0 0 0 0 0 0 0 0 0 0 0 0 0 0 0.25 0"/>
<feBlend mode="normal" in2="BackgroundImageFix" result="effect1_dropShadow_3034_2137"/>
<feBlend mode="normal" in="SourceGraphic" in2="effect1_dropShadow_3034_2137" result="shape"/>
</filter>
<filter id="filter5_d_3034_2137" x="12.2695" y="83.2627" width="51.668" height="36.4893" filterUnits="userSpaceOnUse" color-interpolation-filters="sRGB">
<feFlood flood-opacity="0" result="BackgroundImageFix"/>
<feColorMatrix in="SourceAlpha" type="matrix" values="0 0 0 0 0 0 0 0 0 0 0 0 0 0 0 0 0 0 127 0" result="hardAlpha"/>
<feOffset dy="-1"/>
<feGaussianBlur stdDeviation="5"/>
<feComposite in2="hardAlpha" operator="out"/>
<feColorMatrix type="matrix" values="0 0 0 0 0 0 0 0 0 0 0 0 0 0 0 0 0 0 0.13 0"/>
<feBlend mode="normal" in2="BackgroundImageFix" result="effect1_dropShadow_3034_2137"/>
<feBlend mode="normal" in="SourceGraphic" in2="effect1_dropShadow_3034_2137" result="shape"/>
</filter>
<filter id="filter6_d_3034_2137" x="7.98047" y="122.517" width="171" height="49.668" filterUnits="userSpaceOnUse" color-interpolation-filters="sRGB">
<feFlood flood-opacity="0" result="BackgroundImageFix"/>
<feColorMatrix in="SourceAlpha" type="matrix" values="0 0 0 0 0 0 0 0 0 0 0 0 0 0 0 0 0 0 127 0" result="hardAlpha"/>
<feOffset dy="4"/>
<feGaussianBlur stdDeviation="2"/>
<feComposite in2="hardAlpha" operator="out"/>
<feColorMatrix type="matrix" values="0 0 0 0 0 0 0 0 0 0 0 0 0 0 0 0 0 0 0.25 0"/>
<feBlend mode="normal" in2="BackgroundImageFix" result="effect1_dropShadow_3034_2137"/>
<feBlend mode="normal" in="SourceGraphic" in2="effect1_dropShadow_3034_2137" result="shape"/>
</filter>
<filter id="filter7_f_3034_2137" x="2.68359" y="98.6133" width="105.246" height="93.1748" filterUnits="userSpaceOnUse" color-interpolation-filters="sRGB">
<feFlood flood-opacity="0" result="BackgroundImageFix"/>
<feBlend mode="normal" in="SourceGraphic" in2="BackgroundImageFix" result="shape"/>
<feGaussianBlur stdDeviation="17" result="effect1_foregroundBlur_3034_2137"/>
</filter>
<filter id="filter8_f_3034_2137" x="27.8477" y="122.108" width="54.9219" height="46.1846" filterUnits="userSpaceOnUse" color-interpolation-filters="sRGB">
<feFlood flood-opacity="0" result="BackgroundImageFix"/>
<feBlend mode="normal" in="SourceGraphic" in2="BackgroundImageFix" result="shape"/>
<feGaussianBlur stdDeviation="7" result="effect1_foregroundBlur_3034_2137"/>
</filter>
<filter id="filter9_f_3034_2137" x="58.2383" y="101.907" width="92.5938" height="84.6211" filterUnits="userSpaceOnUse" color-interpolation-filters="sRGB">
<feFlood flood-opacity="0" result="BackgroundImageFix"/>
<feBlend mode="normal" in="SourceGraphic" in2="BackgroundImageFix" result="shape"/>
<feGaussianBlur stdDeviation="17" result="effect1_foregroundBlur_3034_2137"/>
</filter>
<filter id="filter10_f_3034_2137" x="81.6484" y="124.215" width="45.7773" height="40.0059" filterUnits="userSpaceOnUse" color-interpolation-filters="sRGB">
<feFlood flood-opacity="0" result="BackgroundImageFix"/>
<feBlend mode="normal" in="SourceGraphic" in2="BackgroundImageFix" result="shape"/>
<feGaussianBlur stdDeviation="7" result="effect1_foregroundBlur_3034_2137"/>
</filter>
<filter id="filter11_f_3034_2137" x="100.656" y="101.289" width="86.1367" height="80.2588" filterUnits="userSpaceOnUse" color-interpolation-filters="sRGB">
<feFlood flood-opacity="0" result="BackgroundImageFix"/>
<feBlend mode="normal" in="SourceGraphic" in2="BackgroundImageFix" result="shape"/>
<feGaussianBlur stdDeviation="17" result="effect1_foregroundBlur_3034_2137"/>
</filter>
<filter id="filter12_f_3034_2137" x="123.168" y="122.991" width="41.1094" height="36.8545" filterUnits="userSpaceOnUse" color-interpolation-filters="sRGB">
<feFlood flood-opacity="0" result="BackgroundImageFix"/>
<feBlend mode="normal" in="SourceGraphic" in2="BackgroundImageFix" result="shape"/>
<feGaussianBlur stdDeviation="7" result="effect1_foregroundBlur_3034_2137"/>
</filter>
<linearGradient id="paint0_linear_3034_2137" x1="81.3414" y1="35.8025" x2="78.8171" y2="73.8438" gradientUnits="userSpaceOnUse">
<stop stop-color="white"/>
<stop offset="1" stop-color="#F4F4F4"/>
</linearGradient>
<clipPath id="clip0_3034_2137">
<rect width="200" height="200" fill="white"/>
</clipPath>
</defs>
</svg>
