<svg width="200" height="200" viewBox="0 0 200 200" fill="none" xmlns="http://www.w3.org/2000/svg">
<g clip-path="url(#clip0_3035_3274)">
<path d="M108.399 181.6C72.6112 181.6 43.5992 177.302 43.5992 172C43.5992 166.698 72.6112 162.4 108.399 162.4C144.187 162.4 173.199 166.698 173.199 172C173.199 177.302 144.187 181.6 108.399 181.6Z" fill="#A4AFBF" fill-opacity="0.7"/>
<g filter="url(#filter0_d_3035_3274)">
<path d="M49.1944 34.4095C50.6022 47.2813 63.9494 73.2238 71.971 85.4187L94.5352 78.253C82.6223 57.2469 69.3016 43.1676 59.5667 33.5205C57.3488 31.3309 54.0419 30.6542 51.1334 31.7821L50.8014 31.9148C49.7655 32.3129 49.0749 33.3082 49.1944 34.4095Z" fill="white"/>
<path d="M49.1993 34.2894C49.9696 39.7301 51.9086 47.7052 57.6857 59.6879C57.6857 59.6879 57.792 47.2142 61.2051 45.5821C64.6183 43.9499 75.8008 51.0492 75.8008 51.0492C71.8298 46.4844 64.6582 37.4477 58.8279 32.8165C56.8756 31.2639 54.2858 30.9454 51.8289 31.4232L51.1781 31.5426C49.9032 31.8212 49.0266 33.0023 49.1993 34.2894Z" fill="#FF9100"/>
</g>
<g filter="url(#filter1_d_3035_3274)">
<path d="M163.045 34.4095C161.637 47.2813 148.29 73.2238 140.269 85.4187L117.704 78.253C129.617 57.2469 142.938 43.1676 152.673 33.5205C154.891 31.3309 158.198 30.6542 161.106 31.7821L161.438 31.9148C162.474 32.3129 163.165 33.3082 163.045 34.4095Z" fill="white"/>
<path d="M163.065 34.2889C162.308 39.5703 160.316 47.771 154.579 59.7006C154.579 59.7006 154.473 47.2269 151.059 45.5947C147.646 43.9626 136.451 51.0619 136.451 51.0619C140.421 46.4971 147.593 37.4603 153.423 32.8292C155.376 31.2766 157.965 30.9581 160.422 31.4359L161.073 31.5686C162.361 31.8207 163.251 33.0017 163.065 34.2889Z" fill="#FF9100"/>
</g>
<g filter="url(#filter2_d_3035_3274)">
<g filter="url(#filter3_d_3035_3274)">
<path d="M62.6349 107.842C62.6349 129.817 83.021 147.625 108.175 147.625C133.329 147.625 153.715 129.817 153.715 107.842C153.715 85.8677 133.329 68.0596 108.175 68.0596C83.021 68.0596 62.6349 85.8677 62.6349 107.842Z" fill="white"/>
</g>
</g>
<path d="M108.259 139.746C87.7216 139.746 71.0727 126.943 71.0727 111.149C71.0727 95.3558 87.7216 82.5527 108.259 82.5527C128.796 82.5527 145.445 95.3558 145.445 111.149C145.445 126.943 128.796 139.746 108.259 139.746Z" fill="#35373A"/>
<mask id="mask0_3035_3274" style="mask-type:luminance" maskUnits="userSpaceOnUse" x="112" y="100" width="26" height="17">
<ellipse cx="0.941955" cy="0.94116" rx="0.941955" ry="0.94116" transform="matrix(-1 0 0 1 135.648 100.8)" fill="white"/>
<ellipse cx="0.941955" cy="0.94116" rx="0.941955" ry="0.94116" transform="matrix(-1 0 0 1 135.648 103.153)" fill="white"/>
<ellipse cx="0.941955" cy="0.94116" rx="0.941955" ry="0.94116" transform="matrix(-1 0 0 1 135.648 105.506)" fill="white"/>
<ellipse cx="0.941955" cy="0.94116" rx="0.941955" ry="0.94116" transform="matrix(-1 0 0 1 135.648 107.859)" fill="white"/>
<ellipse cx="0.941955" cy="0.94116" rx="0.941955" ry="0.94116" transform="matrix(-1 0 0 1 135.648 110.212)" fill="white"/>
<ellipse cx="0.941955" cy="0.94116" rx="0.941955" ry="0.94116" transform="matrix(-1 0 0 1 133.289 100.8)" fill="white"/>
<ellipse cx="0.941955" cy="0.94116" rx="0.941955" ry="0.94116" transform="matrix(-1 0 0 1 133.289 103.153)" fill="white"/>
<ellipse cx="0.941955" cy="0.94116" rx="0.941955" ry="0.94116" transform="matrix(-1 0 0 1 133.289 105.506)" fill="white"/>
<ellipse cx="0.941955" cy="0.94116" rx="0.941955" ry="0.94116" transform="matrix(-1 0 0 1 133.289 107.859)" fill="white"/>
<ellipse cx="0.941955" cy="0.94116" rx="0.941955" ry="0.94116" transform="matrix(-1 0 0 1 133.289 110.212)" fill="white"/>
<ellipse cx="0.941955" cy="0.94116" rx="0.941955" ry="0.94116" transform="matrix(-1 0 0 1 138 100.8)" fill="white"/>
<ellipse cx="0.941955" cy="0.94116" rx="0.941955" ry="0.94116" transform="matrix(-1 0 0 1 138 103.153)" fill="white"/>
<ellipse cx="0.941955" cy="0.94116" rx="0.941955" ry="0.94116" transform="matrix(-1 0 0 1 138 105.506)" fill="white"/>
<ellipse cx="0.941955" cy="0.94116" rx="0.941955" ry="0.94116" transform="matrix(-1 0 0 1 138 107.859)" fill="white"/>
<ellipse cx="0.941955" cy="0.94116" rx="0.941955" ry="0.94116" transform="matrix(-1 0 0 1 138 110.212)" fill="white"/>
<ellipse cx="0.941955" cy="0.94116" rx="0.941955" ry="0.94116" transform="matrix(-1 0 0 1 130.938 100.8)" fill="white"/>
<ellipse cx="0.941955" cy="0.94116" rx="0.941955" ry="0.94116" transform="matrix(-1 0 0 1 130.938 103.153)" fill="white"/>
<ellipse cx="0.941955" cy="0.94116" rx="0.941955" ry="0.94116" transform="matrix(-1 0 0 1 130.938 105.506)" fill="white"/>
<ellipse cx="0.941955" cy="0.94116" rx="0.941955" ry="0.94116" transform="matrix(-1 0 0 1 130.938 107.859)" fill="white"/>
<ellipse cx="0.941955" cy="0.94116" rx="0.941955" ry="0.94116" transform="matrix(-1 0 0 1 130.938 110.212)" fill="white"/>
<ellipse cx="0.941955" cy="0.94116" rx="0.941955" ry="0.94116" transform="matrix(-1 0 0 1 126.227 100.8)" fill="white"/>
<ellipse cx="0.941955" cy="0.94116" rx="0.941955" ry="0.94116" transform="matrix(-1 0 0 1 126.227 103.153)" fill="white"/>
<ellipse cx="0.941955" cy="0.94116" rx="0.941955" ry="0.94116" transform="matrix(-1 0 0 1 126.227 105.506)" fill="white"/>
<ellipse cx="0.941955" cy="0.94116" rx="0.941955" ry="0.94116" transform="matrix(-1 0 0 1 126.227 107.859)" fill="white"/>
<ellipse cx="0.941955" cy="0.94116" rx="0.941955" ry="0.94116" transform="matrix(-1 0 0 1 126.227 110.212)" fill="white"/>
<ellipse cx="0.941955" cy="0.94116" rx="0.941955" ry="0.94116" transform="matrix(-1 0 0 1 119.164 100.8)" fill="white"/>
<ellipse cx="0.941955" cy="0.94116" rx="0.941955" ry="0.94116" transform="matrix(-1 0 0 1 119.164 103.153)" fill="white"/>
<ellipse cx="0.941955" cy="0.94116" rx="0.941955" ry="0.94116" transform="matrix(-1 0 0 1 119.164 105.506)" fill="white"/>
<ellipse cx="0.941955" cy="0.94116" rx="0.941955" ry="0.94116" transform="matrix(-1 0 0 1 119.164 107.859)" fill="white"/>
<ellipse cx="0.941955" cy="0.94116" rx="0.941955" ry="0.94116" transform="matrix(-1 0 0 1 119.164 110.212)" fill="white"/>
<ellipse cx="0.941955" cy="0.94116" rx="0.941955" ry="0.94116" transform="matrix(-1 0 0 1 123.867 100.8)" fill="white"/>
<ellipse cx="0.941955" cy="0.94116" rx="0.941955" ry="0.94116" transform="matrix(-1 0 0 1 123.867 103.153)" fill="white"/>
<ellipse cx="0.941955" cy="0.94116" rx="0.941955" ry="0.94116" transform="matrix(-1 0 0 1 123.867 105.506)" fill="white"/>
<ellipse cx="0.941955" cy="0.94116" rx="0.941955" ry="0.94116" transform="matrix(-1 0 0 1 123.867 107.859)" fill="white"/>
<ellipse cx="0.941955" cy="0.94116" rx="0.941955" ry="0.94116" transform="matrix(-1 0 0 1 123.867 110.212)" fill="white"/>
<ellipse cx="0.941955" cy="0.94116" rx="0.941955" ry="0.94116" transform="matrix(-1 0 0 1 116.805 100.8)" fill="white"/>
<ellipse cx="0.941955" cy="0.94116" rx="0.941955" ry="0.94116" transform="matrix(-1 0 0 1 116.805 103.153)" fill="white"/>
<ellipse cx="0.941955" cy="0.94116" rx="0.941955" ry="0.94116" transform="matrix(-1 0 0 1 116.805 105.506)" fill="white"/>
<ellipse cx="0.941955" cy="0.94116" rx="0.941955" ry="0.94116" transform="matrix(-1 0 0 1 116.805 107.859)" fill="white"/>
<ellipse cx="0.941955" cy="0.94116" rx="0.941955" ry="0.94116" transform="matrix(-1 0 0 1 116.805 110.212)" fill="white"/>
<ellipse cx="0.941955" cy="0.94116" rx="0.941955" ry="0.94116" transform="matrix(-1 0 0 1 128.582 100.8)" fill="white"/>
<ellipse cx="0.941955" cy="0.94116" rx="0.941955" ry="0.94116" transform="matrix(-1 0 0 1 128.582 103.153)" fill="white"/>
<ellipse cx="0.941955" cy="0.94116" rx="0.941955" ry="0.94116" transform="matrix(-1 0 0 1 128.582 105.506)" fill="white"/>
<ellipse cx="0.941955" cy="0.94116" rx="0.941955" ry="0.94116" transform="matrix(-1 0 0 1 128.582 107.859)" fill="white"/>
<ellipse cx="0.941955" cy="0.94116" rx="0.941955" ry="0.94116" transform="matrix(-1 0 0 1 128.582 110.212)" fill="white"/>
<ellipse cx="0.941955" cy="0.94116" rx="0.941955" ry="0.94116" transform="matrix(-1 0 0 1 121.516 100.8)" fill="white"/>
<ellipse cx="0.941955" cy="0.94116" rx="0.941955" ry="0.94116" transform="matrix(-1 0 0 1 121.516 103.153)" fill="white"/>
<ellipse cx="0.941955" cy="0.94116" rx="0.941955" ry="0.94116" transform="matrix(-1 0 0 1 121.516 105.506)" fill="white"/>
<ellipse cx="0.941955" cy="0.94116" rx="0.941955" ry="0.94116" transform="matrix(-1 0 0 1 121.516 107.859)" fill="white"/>
<ellipse cx="0.941955" cy="0.94116" rx="0.941955" ry="0.94116" transform="matrix(-1 0 0 1 121.516 110.212)" fill="white"/>
<ellipse cx="0.941955" cy="0.94116" rx="0.941955" ry="0.94116" transform="matrix(-1 0 0 1 114.453 100.8)" fill="white"/>
<ellipse cx="0.941955" cy="0.94116" rx="0.941955" ry="0.94116" transform="matrix(-1 0 0 1 114.453 103.153)" fill="white"/>
<ellipse cx="0.941955" cy="0.94116" rx="0.941955" ry="0.94116" transform="matrix(-1 0 0 1 114.453 105.506)" fill="white"/>
<ellipse cx="0.941955" cy="0.94116" rx="0.941955" ry="0.94116" transform="matrix(-1 0 0 1 114.453 107.859)" fill="white"/>
<ellipse cx="0.941955" cy="0.94116" rx="0.941955" ry="0.94116" transform="matrix(-1 0 0 1 114.453 110.212)" fill="white"/>
<ellipse cx="0.941955" cy="0.94116" rx="0.941955" ry="0.94116" transform="matrix(-1 0 0 1 135.648 112.565)" fill="white"/>
<ellipse cx="0.941955" cy="0.94116" rx="0.941955" ry="0.94116" transform="matrix(-1 0 0 1 135.648 114.919)" fill="white"/>
<ellipse cx="0.941955" cy="0.94116" rx="0.941955" ry="0.94116" transform="matrix(-1 0 0 1 133.289 112.565)" fill="white"/>
<ellipse cx="0.941955" cy="0.94116" rx="0.941955" ry="0.94116" transform="matrix(-1 0 0 1 133.289 114.919)" fill="white"/>
<ellipse cx="0.941955" cy="0.94116" rx="0.941955" ry="0.94116" transform="matrix(-1 0 0 1 138 112.565)" fill="white"/>
<ellipse cx="0.941955" cy="0.94116" rx="0.941955" ry="0.94116" transform="matrix(-1 0 0 1 138 114.919)" fill="white"/>
<ellipse cx="0.941955" cy="0.94116" rx="0.941955" ry="0.94116" transform="matrix(-1 0 0 1 130.938 112.565)" fill="white"/>
<ellipse cx="0.941955" cy="0.94116" rx="0.941955" ry="0.94116" transform="matrix(-1 0 0 1 130.938 114.919)" fill="white"/>
<ellipse cx="0.941955" cy="0.94116" rx="0.941955" ry="0.94116" transform="matrix(-1 0 0 1 126.227 112.565)" fill="white"/>
<ellipse cx="0.941955" cy="0.94116" rx="0.941955" ry="0.94116" transform="matrix(-1 0 0 1 126.227 114.919)" fill="white"/>
<ellipse cx="0.941955" cy="0.94116" rx="0.941955" ry="0.94116" transform="matrix(-1 0 0 1 119.164 112.565)" fill="white"/>
<ellipse cx="0.941955" cy="0.94116" rx="0.941955" ry="0.94116" transform="matrix(-1 0 0 1 119.164 114.919)" fill="white"/>
<ellipse cx="0.941955" cy="0.94116" rx="0.941955" ry="0.94116" transform="matrix(-1 0 0 1 123.867 112.565)" fill="white"/>
<ellipse cx="0.941955" cy="0.94116" rx="0.941955" ry="0.94116" transform="matrix(-1 0 0 1 123.867 114.919)" fill="white"/>
<ellipse cx="0.941955" cy="0.94116" rx="0.941955" ry="0.94116" transform="matrix(-1 0 0 1 116.805 112.565)" fill="white"/>
<ellipse cx="0.941955" cy="0.94116" rx="0.941955" ry="0.94116" transform="matrix(-1 0 0 1 116.805 114.919)" fill="white"/>
<ellipse cx="0.941955" cy="0.94116" rx="0.941955" ry="0.94116" transform="matrix(-1 0 0 1 128.582 112.565)" fill="white"/>
<ellipse cx="0.941955" cy="0.94116" rx="0.941955" ry="0.94116" transform="matrix(-1 0 0 1 128.582 114.919)" fill="white"/>
<ellipse cx="0.941955" cy="0.94116" rx="0.941955" ry="0.94116" transform="matrix(-1 0 0 1 121.516 112.565)" fill="white"/>
<ellipse cx="0.941955" cy="0.94116" rx="0.941955" ry="0.94116" transform="matrix(-1 0 0 1 121.516 114.919)" fill="white"/>
<ellipse cx="0.941955" cy="0.94116" rx="0.941955" ry="0.94116" transform="matrix(-1 0 0 1 114.453 112.565)" fill="white"/>
<ellipse cx="0.941955" cy="0.94116" rx="0.941955" ry="0.94116" transform="matrix(-1 0 0 1 114.453 114.919)" fill="white"/>
</mask>
<g mask="url(#mask0_3035_3274)">
<path d="M113.789 115.76C113.789 115.76 118.955 110.85 125.328 110.85C131.701 110.85 136.867 116.679 136.867 115.76C136.867 108.329 131.701 102.306 125.328 102.306C118.955 102.306 113.789 108.329 113.789 115.76Z" fill="#F29111"/>
</g>
<mask id="mask1_3035_3274" style="mask-type:luminance" maskUnits="userSpaceOnUse" x="79" y="100" width="26" height="17">
<ellipse cx="0.941955" cy="0.94116" rx="0.941955" ry="0.94116" transform="matrix(-1 0 0 1 102.59 100.8)" fill="white"/>
<ellipse cx="0.941955" cy="0.94116" rx="0.941955" ry="0.94116" transform="matrix(-1 0 0 1 102.59 103.153)" fill="white"/>
<ellipse cx="0.941955" cy="0.94116" rx="0.941955" ry="0.94116" transform="matrix(-1 0 0 1 102.59 105.506)" fill="white"/>
<ellipse cx="0.941955" cy="0.94116" rx="0.941955" ry="0.94116" transform="matrix(-1 0 0 1 102.59 107.859)" fill="white"/>
<ellipse cx="0.941955" cy="0.94116" rx="0.941955" ry="0.94116" transform="matrix(-1 0 0 1 102.59 110.212)" fill="white"/>
<ellipse cx="0.941955" cy="0.94116" rx="0.941955" ry="0.94116" transform="matrix(-1 0 0 1 100.23 100.8)" fill="white"/>
<ellipse cx="0.941955" cy="0.94116" rx="0.941955" ry="0.94116" transform="matrix(-1 0 0 1 100.23 103.153)" fill="white"/>
<ellipse cx="0.941955" cy="0.94116" rx="0.941955" ry="0.94116" transform="matrix(-1 0 0 1 100.23 105.506)" fill="white"/>
<ellipse cx="0.941955" cy="0.94116" rx="0.941955" ry="0.94116" transform="matrix(-1 0 0 1 100.23 107.859)" fill="white"/>
<ellipse cx="0.941955" cy="0.94116" rx="0.941955" ry="0.94116" transform="matrix(-1 0 0 1 100.23 110.212)" fill="white"/>
<ellipse cx="0.941955" cy="0.94116" rx="0.941955" ry="0.94116" transform="matrix(-1 0 0 1 104.941 100.8)" fill="white"/>
<ellipse cx="0.941955" cy="0.94116" rx="0.941955" ry="0.94116" transform="matrix(-1 0 0 1 104.941 103.153)" fill="white"/>
<ellipse cx="0.941955" cy="0.94116" rx="0.941955" ry="0.94116" transform="matrix(-1 0 0 1 104.941 105.506)" fill="white"/>
<ellipse cx="0.941955" cy="0.94116" rx="0.941955" ry="0.94116" transform="matrix(-1 0 0 1 104.941 107.859)" fill="white"/>
<ellipse cx="0.941955" cy="0.94116" rx="0.941955" ry="0.94116" transform="matrix(-1 0 0 1 104.941 110.212)" fill="white"/>
<ellipse cx="0.941955" cy="0.94116" rx="0.941955" ry="0.94116" transform="matrix(-1 0 0 1 97.8789 100.8)" fill="white"/>
<ellipse cx="0.941955" cy="0.94116" rx="0.941955" ry="0.94116" transform="matrix(-1 0 0 1 97.8789 103.153)" fill="white"/>
<ellipse cx="0.941955" cy="0.94116" rx="0.941955" ry="0.94116" transform="matrix(-1 0 0 1 97.8789 105.506)" fill="white"/>
<ellipse cx="0.941955" cy="0.94116" rx="0.941955" ry="0.94116" transform="matrix(-1 0 0 1 97.8789 107.859)" fill="white"/>
<ellipse cx="0.941955" cy="0.94116" rx="0.941955" ry="0.94116" transform="matrix(-1 0 0 1 97.8789 110.212)" fill="white"/>
<ellipse cx="0.941955" cy="0.94116" rx="0.941955" ry="0.94116" transform="matrix(-1 0 0 1 93.168 100.8)" fill="white"/>
<ellipse cx="0.941955" cy="0.94116" rx="0.941955" ry="0.94116" transform="matrix(-1 0 0 1 93.168 103.153)" fill="white"/>
<ellipse cx="0.941955" cy="0.94116" rx="0.941955" ry="0.94116" transform="matrix(-1 0 0 1 93.168 105.506)" fill="white"/>
<ellipse cx="0.941955" cy="0.94116" rx="0.941955" ry="0.94116" transform="matrix(-1 0 0 1 93.168 107.859)" fill="white"/>
<ellipse cx="0.941955" cy="0.94116" rx="0.941955" ry="0.94116" transform="matrix(-1 0 0 1 93.168 110.212)" fill="white"/>
<ellipse cx="0.941955" cy="0.94116" rx="0.941955" ry="0.94116" transform="matrix(-1 0 0 1 86.1055 100.8)" fill="white"/>
<ellipse cx="0.941955" cy="0.94116" rx="0.941955" ry="0.94116" transform="matrix(-1 0 0 1 86.1055 103.153)" fill="white"/>
<ellipse cx="0.941955" cy="0.94116" rx="0.941955" ry="0.94116" transform="matrix(-1 0 0 1 86.1055 105.506)" fill="white"/>
<ellipse cx="0.941955" cy="0.94116" rx="0.941955" ry="0.94116" transform="matrix(-1 0 0 1 86.1055 107.859)" fill="white"/>
<ellipse cx="0.941955" cy="0.94116" rx="0.941955" ry="0.94116" transform="matrix(-1 0 0 1 86.1055 110.212)" fill="white"/>
<ellipse cx="0.941955" cy="0.94116" rx="0.941955" ry="0.94116" transform="matrix(-1 0 0 1 90.8086 100.8)" fill="white"/>
<ellipse cx="0.941955" cy="0.94116" rx="0.941955" ry="0.94116" transform="matrix(-1 0 0 1 90.8086 103.153)" fill="white"/>
<ellipse cx="0.941955" cy="0.94116" rx="0.941955" ry="0.94116" transform="matrix(-1 0 0 1 90.8086 105.506)" fill="white"/>
<ellipse cx="0.941955" cy="0.94116" rx="0.941955" ry="0.94116" transform="matrix(-1 0 0 1 90.8086 107.859)" fill="white"/>
<ellipse cx="0.941955" cy="0.94116" rx="0.941955" ry="0.94116" transform="matrix(-1 0 0 1 90.8086 110.212)" fill="white"/>
<ellipse cx="0.941955" cy="0.94116" rx="0.941955" ry="0.94116" transform="matrix(-1 0 0 1 83.7461 100.8)" fill="white"/>
<ellipse cx="0.941955" cy="0.94116" rx="0.941955" ry="0.94116" transform="matrix(-1 0 0 1 83.7461 103.153)" fill="white"/>
<ellipse cx="0.941955" cy="0.94116" rx="0.941955" ry="0.94116" transform="matrix(-1 0 0 1 83.7461 105.506)" fill="white"/>
<ellipse cx="0.941955" cy="0.94116" rx="0.941955" ry="0.94116" transform="matrix(-1 0 0 1 83.7461 107.859)" fill="white"/>
<ellipse cx="0.941955" cy="0.94116" rx="0.941955" ry="0.94116" transform="matrix(-1 0 0 1 83.7461 110.212)" fill="white"/>
<ellipse cx="0.941955" cy="0.94116" rx="0.941955" ry="0.94116" transform="matrix(-1 0 0 1 95.5234 100.8)" fill="white"/>
<ellipse cx="0.941955" cy="0.94116" rx="0.941955" ry="0.94116" transform="matrix(-1 0 0 1 95.5234 103.153)" fill="white"/>
<ellipse cx="0.941955" cy="0.94116" rx="0.941955" ry="0.94116" transform="matrix(-1 0 0 1 95.5234 105.506)" fill="white"/>
<ellipse cx="0.941955" cy="0.94116" rx="0.941955" ry="0.94116" transform="matrix(-1 0 0 1 95.5234 107.859)" fill="white"/>
<ellipse cx="0.941955" cy="0.94116" rx="0.941955" ry="0.94116" transform="matrix(-1 0 0 1 95.5234 110.212)" fill="white"/>
<ellipse cx="0.941955" cy="0.94116" rx="0.941955" ry="0.94116" transform="matrix(-1 0 0 1 88.457 100.8)" fill="white"/>
<ellipse cx="0.941955" cy="0.94116" rx="0.941955" ry="0.94116" transform="matrix(-1 0 0 1 88.457 103.153)" fill="white"/>
<ellipse cx="0.941955" cy="0.94116" rx="0.941955" ry="0.94116" transform="matrix(-1 0 0 1 88.457 105.506)" fill="white"/>
<ellipse cx="0.941955" cy="0.94116" rx="0.941955" ry="0.94116" transform="matrix(-1 0 0 1 88.457 107.859)" fill="white"/>
<ellipse cx="0.941955" cy="0.94116" rx="0.941955" ry="0.94116" transform="matrix(-1 0 0 1 88.457 110.212)" fill="white"/>
<ellipse cx="0.941955" cy="0.94116" rx="0.941955" ry="0.94116" transform="matrix(-1 0 0 1 81.3945 100.8)" fill="white"/>
<ellipse cx="0.941955" cy="0.94116" rx="0.941955" ry="0.94116" transform="matrix(-1 0 0 1 81.3945 103.153)" fill="white"/>
<ellipse cx="0.941955" cy="0.94116" rx="0.941955" ry="0.94116" transform="matrix(-1 0 0 1 81.3945 105.506)" fill="white"/>
<ellipse cx="0.941955" cy="0.94116" rx="0.941955" ry="0.94116" transform="matrix(-1 0 0 1 81.3945 107.859)" fill="white"/>
<ellipse cx="0.941955" cy="0.94116" rx="0.941955" ry="0.94116" transform="matrix(-1 0 0 1 81.3945 110.212)" fill="white"/>
<ellipse cx="0.941955" cy="0.94116" rx="0.941955" ry="0.94116" transform="matrix(-1 0 0 1 102.59 112.565)" fill="white"/>
<ellipse cx="0.941955" cy="0.94116" rx="0.941955" ry="0.94116" transform="matrix(-1 0 0 1 102.59 114.919)" fill="white"/>
<ellipse cx="0.941955" cy="0.94116" rx="0.941955" ry="0.94116" transform="matrix(-1 0 0 1 100.23 112.565)" fill="white"/>
<ellipse cx="0.941955" cy="0.94116" rx="0.941955" ry="0.94116" transform="matrix(-1 0 0 1 100.23 114.919)" fill="white"/>
<ellipse cx="0.941955" cy="0.94116" rx="0.941955" ry="0.94116" transform="matrix(-1 0 0 1 104.941 112.565)" fill="white"/>
<ellipse cx="0.941955" cy="0.94116" rx="0.941955" ry="0.94116" transform="matrix(-1 0 0 1 104.941 114.919)" fill="white"/>
<ellipse cx="0.941955" cy="0.94116" rx="0.941955" ry="0.94116" transform="matrix(-1 0 0 1 97.8789 112.565)" fill="white"/>
<ellipse cx="0.941955" cy="0.94116" rx="0.941955" ry="0.94116" transform="matrix(-1 0 0 1 97.8789 114.919)" fill="white"/>
<ellipse cx="0.941955" cy="0.94116" rx="0.941955" ry="0.94116" transform="matrix(-1 0 0 1 93.168 112.565)" fill="white"/>
<ellipse cx="0.941955" cy="0.94116" rx="0.941955" ry="0.94116" transform="matrix(-1 0 0 1 93.168 114.919)" fill="white"/>
<ellipse cx="0.941955" cy="0.94116" rx="0.941955" ry="0.94116" transform="matrix(-1 0 0 1 86.1055 112.565)" fill="white"/>
<ellipse cx="0.941955" cy="0.94116" rx="0.941955" ry="0.94116" transform="matrix(-1 0 0 1 86.1055 114.919)" fill="white"/>
<ellipse cx="0.941955" cy="0.94116" rx="0.941955" ry="0.94116" transform="matrix(-1 0 0 1 90.8086 112.565)" fill="white"/>
<ellipse cx="0.941955" cy="0.94116" rx="0.941955" ry="0.94116" transform="matrix(-1 0 0 1 90.8086 114.919)" fill="white"/>
<ellipse cx="0.941955" cy="0.94116" rx="0.941955" ry="0.94116" transform="matrix(-1 0 0 1 83.7461 112.565)" fill="white"/>
<ellipse cx="0.941955" cy="0.94116" rx="0.941955" ry="0.94116" transform="matrix(-1 0 0 1 83.7461 114.919)" fill="white"/>
<ellipse cx="0.941955" cy="0.94116" rx="0.941955" ry="0.94116" transform="matrix(-1 0 0 1 95.5234 112.565)" fill="white"/>
<ellipse cx="0.941955" cy="0.94116" rx="0.941955" ry="0.94116" transform="matrix(-1 0 0 1 95.5234 114.919)" fill="white"/>
<ellipse cx="0.941955" cy="0.94116" rx="0.941955" ry="0.94116" transform="matrix(-1 0 0 1 88.457 112.565)" fill="white"/>
<ellipse cx="0.941955" cy="0.94116" rx="0.941955" ry="0.94116" transform="matrix(-1 0 0 1 88.457 114.919)" fill="white"/>
<ellipse cx="0.941955" cy="0.94116" rx="0.941955" ry="0.94116" transform="matrix(-1 0 0 1 81.3945 112.565)" fill="white"/>
<ellipse cx="0.941955" cy="0.94116" rx="0.941955" ry="0.94116" transform="matrix(-1 0 0 1 81.3945 114.919)" fill="white"/>
</mask>
<g mask="url(#mask1_3035_3274)">
<path d="M80.7346 115.76C80.7346 115.76 85.9008 110.85 92.2735 110.85C98.6463 110.85 103.812 116.679 103.812 115.76C103.812 108.329 98.6463 102.306 92.2735 102.306C85.9008 102.306 80.7346 108.329 80.7346 115.76Z" fill="#F29111"/>
</g>
<g filter="url(#filter4_d_3035_3274)">
<path d="M45.3928 97.945L51.7624 96.3513C52.532 96.1653 53.169 95.6341 53.514 94.9169L56.1414 89.3921C56.6589 88.2898 56.3802 86.975 55.4381 86.2047L36.1438 70.2279C35.0955 69.3513 33.5429 69.431 32.5742 70.4005L31.7913 71.1841C30.5439 72.4325 30.2652 74.3582 31.1145 75.9121L42.4071 96.6567C42.991 97.6926 44.2118 98.2371 45.3928 97.945Z" fill="white"/>
<path d="M31.1289 75.9071L38.2813 89.002L43.7617 76.4914L36.1714 70.2096C35.1231 69.333 33.5705 69.4127 32.6018 70.3822L31.8056 71.1791C30.5583 72.4275 30.2796 74.3532 31.1289 75.9071Z" fill="#F29111"/>
<path d="M140.447 145.435L142.041 139.066C142.227 138.296 142.758 137.659 143.475 137.314L149 134.687C150.102 134.169 151.417 134.448 152.187 135.39L168.164 154.684C169.041 155.733 168.961 157.285 167.992 158.254L167.208 159.037C165.96 160.284 164.034 160.563 162.48 159.714L141.735 148.421C140.686 147.824 140.142 146.603 140.447 145.435Z" fill="white"/>
<path d="M162.467 159.7L149.372 152.548L161.882 147.067L168.164 154.658C169.041 155.706 168.961 157.259 167.992 158.227L167.195 159.024C165.946 160.271 164.021 160.55 162.467 159.7Z" fill="#F29111"/>
</g>
<path d="M45.477 48.7586L45.4702 48.7729L45.4646 48.7885C40.0334 63.1657 36.6088 77.6941 34.9679 93.02C30.7924 95.7024 27.0684 94.9005 24.3358 93.3989C22.94 92.6319 21.8069 91.6822 21.0217 90.9218C20.6302 90.5426 20.3273 90.2122 20.1232 89.9781C20.0759 89.9238 20.0357 89.8728 19.9992 89.8295L20.492 88.626C26.0454 75.0792 29.0513 60.6226 29.3604 45.9812L29.4778 40.4262L47.4426 44.4277L45.477 48.7586Z" fill="#8EC9E6" stroke="white"/>
<path d="M152.606 54.0183L109.536 27.2166L63.2042 53.2897L107.474 71.2007L152.606 54.0183Z" fill="#414D5E"/>
<path d="M133.867 53.5823L131.036 72.8124L108.466 77.6825L87.7893 71.4868L83.6537 51.073C83.6537 51.073 95.4051 43.1839 109.109 42.5955C117.678 42.226 127.758 44.9153 133.889 53.5907L133.867 53.5823Z" fill="#353F4C"/>
<path d="M79.0977 64.6517C79.4133 64.6566 79.6794 64.389 79.6843 64.0734C79.6902 63.9233 79.8902 48.9045 79.8765 45.8145C79.8643 43.2582 81.4271 43.0866 81.4424 43.0797C81.7594 43.0471 82.0033 42.771 81.9637 42.4387C81.9242 42.1064 81.655 41.8778 81.3227 41.9174C80.4023 42.0015 78.6821 42.926 78.681 45.8201C78.6878 48.8948 78.4878 63.9136 78.4819 64.0637C78.477 64.3793 78.7447 64.6454 79.0671 64.6656L79.0977 64.6517Z" fill="#8EC9E6"/>
<path d="M78.8155 71.7653L78.5048 74.5044L76.8976 74.6591L78.026 63.939L79.9734 63.9255L81.1771 74.2186L79.4336 74.3981L78.8155 71.7653Z" fill="#8EC9E6"/>
<path d="M48.1556 44.0598C47.9369 45.0379 43.4773 44.8677 38.1979 43.682C32.9185 42.4962 28.7748 40.7505 28.9935 39.7724C29.2121 38.7942 33.7131 38.9526 38.9947 40.1407C44.2741 41.3264 48.3764 43.084 48.1556 44.0598Z" fill="#548FAC"/>
<path d="M48.1505 44.0935L48.1536 44.0732C48.1536 44.0732 36.5989 42.5905 33.5583 40.4013L33.186 42.2764C34.624 42.7746 36.344 43.2627 38.2057 43.6822C43.4244 44.8538 47.8404 45.0334 48.155 44.0937L48.1505 44.0935Z" fill="#8EC9E6"/>
<path d="M40.0339 67.607C39.088 68.4935 34.6178 71.9066 26.6067 66.606C26.4045 67.6212 26.1887 68.6357 25.9596 69.6452C31.2247 72.822 35.2506 72.7366 37.7565 72.0585C38.1542 71.9514 38.6678 71.7904 39.049 71.6463C39.3616 70.2953 39.69 68.9474 40.0317 67.6046L40.0339 67.607Z" fill="white"/>
<path d="M28.395 66.1075L19.5039 55.6553L19.6606 59.916L15.7507 60.8606L26.9496 68.2071L28.395 66.1075Z" fill="white"/>
<path d="M26.8842 69.1806L17.3342 71.3124L20.6079 72.9625L19.5086 75.7544L27.6423 71.4221L26.8842 69.1806Z" fill="white"/>
<path d="M26.4442 72.1059C24.6949 70.4446 24.6641 67.6339 26.3755 65.8301C28.0869 64.0263 30.8945 63.9112 32.646 65.5749C34.3953 67.2362 34.4261 70.0469 32.7147 71.8507C31.0033 73.6545 28.1957 73.7695 26.4442 72.1059Z" fill="#F29111"/>
</g>
<defs>
<filter id="filter0_d_3035_3274" x="45.1758" y="31.2188" width="53.3594" height="62.2002" filterUnits="userSpaceOnUse" color-interpolation-filters="sRGB">
<feFlood flood-opacity="0" result="BackgroundImageFix"/>
<feColorMatrix in="SourceAlpha" type="matrix" values="0 0 0 0 0 0 0 0 0 0 0 0 0 0 0 0 0 0 127 0" result="hardAlpha"/>
<feOffset dy="4"/>
<feGaussianBlur stdDeviation="2"/>
<feComposite in2="hardAlpha" operator="out"/>
<feColorMatrix type="matrix" values="0 0 0 0 0 0 0 0 0 0 0 0 0 0 0 0 0 0 0.25 0"/>
<feBlend mode="normal" in2="BackgroundImageFix" result="effect1_dropShadow_3035_3274"/>
<feBlend mode="normal" in="SourceGraphic" in2="effect1_dropShadow_3035_3274" result="shape"/>
</filter>
<filter id="filter1_d_3035_3274" x="113.703" y="31.2314" width="53.3867" height="62.1875" filterUnits="userSpaceOnUse" color-interpolation-filters="sRGB">
<feFlood flood-opacity="0" result="BackgroundImageFix"/>
<feColorMatrix in="SourceAlpha" type="matrix" values="0 0 0 0 0 0 0 0 0 0 0 0 0 0 0 0 0 0 127 0" result="hardAlpha"/>
<feOffset dy="4"/>
<feGaussianBlur stdDeviation="2"/>
<feComposite in2="hardAlpha" operator="out"/>
<feColorMatrix type="matrix" values="0 0 0 0 0 0 0 0 0 0 0 0 0 0 0 0 0 0 0.25 0"/>
<feBlend mode="normal" in2="BackgroundImageFix" result="effect1_dropShadow_3035_3274"/>
<feBlend mode="normal" in="SourceGraphic" in2="effect1_dropShadow_3035_3274" result="shape"/>
</filter>
<filter id="filter2_d_3035_3274" x="54.6367" y="60.0596" width="107.078" height="95.5654" filterUnits="userSpaceOnUse" color-interpolation-filters="sRGB">
<feFlood flood-opacity="0" result="BackgroundImageFix"/>
<feColorMatrix in="SourceAlpha" type="matrix" values="0 0 0 0 0 0 0 0 0 0 0 0 0 0 0 0 0 0 127 0" result="hardAlpha"/>
<feOffset/>
<feGaussianBlur stdDeviation="4"/>
<feComposite in2="hardAlpha" operator="out"/>
<feColorMatrix type="matrix" values="0 0 0 0 0 0 0 0 0 0 0 0 0 0 0 0 0 0 0.25 0"/>
<feBlend mode="normal" in2="BackgroundImageFix" result="effect1_dropShadow_3035_3274"/>
<feBlend mode="normal" in="SourceGraphic" in2="effect1_dropShadow_3035_3274" result="shape"/>
</filter>
<filter id="filter3_d_3035_3274" x="61.6367" y="66.0596" width="93.0781" height="81.5654" filterUnits="userSpaceOnUse" color-interpolation-filters="sRGB">
<feFlood flood-opacity="0" result="BackgroundImageFix"/>
<feColorMatrix in="SourceAlpha" type="matrix" values="0 0 0 0 0 0 0 0 0 0 0 0 0 0 0 0 0 0 127 0" result="hardAlpha"/>
<feOffset dy="-1"/>
<feGaussianBlur stdDeviation="0.5"/>
<feComposite in2="hardAlpha" operator="out"/>
<feColorMatrix type="matrix" values="0 0 0 0 0 0 0 0 0 0 0 0 0 0 0 0 0 0 0.1 0"/>
<feBlend mode="normal" in2="BackgroundImageFix" result="effect1_dropShadow_3035_3274"/>
<feBlend mode="normal" in="SourceGraphic" in2="effect1_dropShadow_3035_3274" result="shape"/>
</filter>
<filter id="filter4_d_3035_3274" x="22.625" y="61.6006" width="154.148" height="106.602" filterUnits="userSpaceOnUse" color-interpolation-filters="sRGB">
<feFlood flood-opacity="0" result="BackgroundImageFix"/>
<feColorMatrix in="SourceAlpha" type="matrix" values="0 0 0 0 0 0 0 0 0 0 0 0 0 0 0 0 0 0 127 0" result="hardAlpha"/>
<feOffset/>
<feGaussianBlur stdDeviation="4"/>
<feComposite in2="hardAlpha" operator="out"/>
<feColorMatrix type="matrix" values="0 0 0 0 0 0 0 0 0 0 0 0 0 0 0 0 0 0 0.25 0"/>
<feBlend mode="normal" in2="BackgroundImageFix" result="effect1_dropShadow_3035_3274"/>
<feBlend mode="normal" in="SourceGraphic" in2="effect1_dropShadow_3035_3274" result="shape"/>
</filter>
<clipPath id="clip0_3035_3274">
<rect width="200" height="200" fill="white" transform="matrix(-1 0 0 1 200 0)"/>
</clipPath>
</defs>
</svg>
