<svg width="200" height="200" viewBox="0 0 200 200" fill="none" xmlns="http://www.w3.org/2000/svg">
<g clip-path="url(#clip0_3034_645)">
<path d="M101.974 175.825C128.918 175.825 150.76 172.532 150.76 168.471C150.76 164.41 128.918 161.117 101.974 161.117C75.0298 161.117 53.1875 164.41 53.1875 168.471C53.1875 172.532 75.0298 175.825 101.974 175.825Z" fill="#A4AFBF" fill-opacity="0.7"/>
<g filter="url(#filter0_d_3034_645)">
<path d="M154.412 49.3333C153.162 60.7811 141.313 83.8538 134.192 94.6997L114.16 88.3267C124.736 69.6443 136.561 57.1225 145.204 48.5426C147.173 46.5953 150.108 45.9934 152.69 46.9965L152.985 47.1146C153.905 47.4686 154.518 48.3538 154.412 49.3333Z" fill="white"/>
<path d="M154.405 49.2276C153.721 54.0663 152 61.1593 146.871 71.8164C146.871 71.8164 146.777 60.7226 143.746 59.271C140.716 57.8193 130.789 64.1333 130.789 64.1333C134.314 60.0735 140.681 52.0364 145.857 47.9176C147.59 46.5368 149.889 46.2535 152.07 46.6784L152.648 46.7846C153.78 47.0324 154.558 48.0828 154.405 49.2276Z" fill="#FF9100"/>
</g>
<g filter="url(#filter1_d_3034_645)">
<path d="M53.34 49.3348C54.5898 60.7826 66.4389 83.8552 73.5602 94.7012L93.5917 88.3282C83.0159 69.6458 71.1904 57.124 62.5482 48.544C60.5792 46.5967 57.6434 45.9948 55.0614 46.998L54.7666 47.116C53.847 47.4701 53.2339 48.3552 53.34 49.3348Z" fill="white"/>
<path d="M53.3226 49.227C53.9946 53.9242 55.7632 61.2177 60.8565 71.8276C60.8565 71.8276 60.9508 60.7338 63.9809 59.2822C67.011 57.8306 76.9501 64.1446 76.9501 64.1446C73.4248 60.0847 67.0581 52.0477 61.8823 47.9288C60.1491 46.548 57.85 46.2647 55.6688 46.6896L55.0911 46.8076C53.9475 47.0319 53.1575 48.0822 53.3226 49.227Z" fill="#FF9100"/>
</g>
<g filter="url(#filter2_d_3034_645)">
<g filter="url(#filter3_d_3034_645)">
<path d="M142.482 104.854C142.482 124.398 124.384 140.236 102.053 140.236C79.7229 140.236 61.625 124.398 61.625 104.854C61.625 85.3103 79.7229 69.4722 102.053 69.4722C124.384 69.4722 142.482 85.3103 142.482 104.854Z" fill="white"/>
</g>
</g>
<path d="M101.977 133.228C120.21 133.228 134.99 121.842 134.99 107.795C134.99 93.7491 120.21 82.3623 101.977 82.3623C83.745 82.3623 68.9648 93.7491 68.9648 107.795C68.9648 121.842 83.745 133.228 101.977 133.228Z" fill="#35373A"/>
<mask id="mask0_3034_645" style="mask-type:luminance" maskUnits="userSpaceOnUse" x="75" y="98" width="24" height="15">
<path d="M79.3365 99.4269C79.3365 99.8892 78.9621 100.264 78.5003 100.264C78.0385 100.264 77.6641 99.8892 77.6641 99.4269C77.6641 98.9646 78.0385 98.5898 78.5003 98.5898C78.9621 98.5898 79.3365 98.9646 79.3365 99.4269Z" fill="white"/>
<path d="M79.3365 101.52C79.3365 101.982 78.9621 102.357 78.5003 102.357C78.0385 102.357 77.6641 101.982 77.6641 101.52C77.6641 101.058 78.0385 100.683 78.5003 100.683C78.9621 100.683 79.3365 101.058 79.3365 101.52Z" fill="white"/>
<path d="M79.3365 103.612C79.3365 104.074 78.9621 104.449 78.5003 104.449C78.0385 104.449 77.6641 104.074 77.6641 103.612C77.6641 103.15 78.0385 102.775 78.5003 102.775C78.9621 102.775 79.3365 103.15 79.3365 103.612Z" fill="white"/>
<path d="M79.3365 105.705C79.3365 106.167 78.9621 106.542 78.5003 106.542C78.0385 106.542 77.6641 106.167 77.6641 105.705C77.6641 105.242 78.0385 104.868 78.5003 104.868C78.9621 104.868 79.3365 105.242 79.3365 105.705Z" fill="white"/>
<path d="M79.3365 107.798C79.3365 108.26 78.9621 108.635 78.5003 108.635C78.0385 108.635 77.6641 108.26 77.6641 107.798C77.6641 107.336 78.0385 106.961 78.5003 106.961C78.9621 106.961 79.3365 107.336 79.3365 107.798Z" fill="white"/>
<path d="M81.4264 99.4269C81.4264 99.8892 81.052 100.264 80.5901 100.264C80.1283 100.264 79.7539 99.8892 79.7539 99.4269C79.7539 98.9646 80.1283 98.5898 80.5901 98.5898C81.052 98.5898 81.4264 98.9646 81.4264 99.4269Z" fill="white"/>
<path d="M81.4264 101.52C81.4264 101.982 81.052 102.357 80.5901 102.357C80.1283 102.357 79.7539 101.982 79.7539 101.52C79.7539 101.058 80.1283 100.683 80.5901 100.683C81.052 100.683 81.4264 101.058 81.4264 101.52Z" fill="white"/>
<path d="M81.4264 103.612C81.4264 104.074 81.052 104.449 80.5901 104.449C80.1283 104.449 79.7539 104.074 79.7539 103.612C79.7539 103.15 80.1283 102.775 80.5901 102.775C81.052 102.775 81.4264 103.15 81.4264 103.612Z" fill="white"/>
<path d="M81.4264 105.705C81.4264 106.167 81.052 106.542 80.5901 106.542C80.1283 106.542 79.7539 106.167 79.7539 105.705C79.7539 105.242 80.1283 104.868 80.5901 104.868C81.052 104.868 81.4264 105.242 81.4264 105.705Z" fill="white"/>
<path d="M81.4264 107.798C81.4264 108.26 81.052 108.635 80.5901 108.635C80.1283 108.635 79.7539 108.26 79.7539 107.798C79.7539 107.336 80.1283 106.961 80.5901 106.961C81.052 106.961 81.4264 107.336 81.4264 107.798Z" fill="white"/>
<path d="M77.2467 99.4269C77.2467 99.8892 76.8723 100.264 76.4104 100.264C75.9486 100.264 75.5742 99.8892 75.5742 99.4269C75.5742 98.9646 75.9486 98.5898 76.4104 98.5898C76.8723 98.5898 77.2467 98.9646 77.2467 99.4269Z" fill="white"/>
<path d="M77.2467 101.52C77.2467 101.982 76.8723 102.357 76.4104 102.357C75.9486 102.357 75.5742 101.982 75.5742 101.52C75.5742 101.058 75.9486 100.683 76.4104 100.683C76.8723 100.683 77.2467 101.058 77.2467 101.52Z" fill="white"/>
<path d="M77.2467 103.613C77.2467 104.075 76.8723 104.45 76.4104 104.45C75.9486 104.45 75.5742 104.075 75.5742 103.613C75.5742 103.151 75.9486 102.776 76.4104 102.776C76.8723 102.776 77.2467 103.151 77.2467 103.613Z" fill="white"/>
<path d="M77.2467 105.705C77.2467 106.167 76.8723 106.542 76.4104 106.542C75.9486 106.542 75.5742 106.167 75.5742 105.705C75.5742 105.242 75.9486 104.868 76.4104 104.868C76.8723 104.868 77.2467 105.242 77.2467 105.705Z" fill="white"/>
<path d="M77.2467 107.798C77.2467 108.26 76.8723 108.635 76.4104 108.635C75.9486 108.635 75.5742 108.26 75.5742 107.798C75.5742 107.336 75.9486 106.961 76.4104 106.961C76.8723 106.961 77.2467 107.336 77.2467 107.798Z" fill="white"/>
<path d="M83.5162 99.4269C83.5162 99.8892 83.1418 100.264 82.68 100.264C82.2181 100.264 81.8438 99.8892 81.8438 99.4269C81.8438 98.9646 82.2181 98.5898 82.68 98.5898C83.1418 98.5898 83.5162 98.9646 83.5162 99.4269Z" fill="white"/>
<path d="M83.5162 101.52C83.5162 101.982 83.1418 102.357 82.68 102.357C82.2181 102.357 81.8438 101.982 81.8438 101.52C81.8438 101.058 82.2181 100.683 82.68 100.683C83.1418 100.683 83.5162 101.058 83.5162 101.52Z" fill="white"/>
<path d="M83.5162 103.612C83.5162 104.074 83.1418 104.449 82.68 104.449C82.2181 104.449 81.8438 104.074 81.8438 103.612C81.8438 103.15 82.2181 102.775 82.68 102.775C83.1418 102.775 83.5162 103.15 83.5162 103.612Z" fill="white"/>
<path d="M83.5162 105.705C83.5162 106.167 83.1418 106.542 82.68 106.542C82.2181 106.542 81.8438 106.167 81.8438 105.705C81.8438 105.242 82.2181 104.868 82.68 104.868C83.1418 104.868 83.5162 105.242 83.5162 105.705Z" fill="white"/>
<path d="M83.5162 107.798C83.5162 108.26 83.1418 108.635 82.68 108.635C82.2181 108.635 81.8438 108.26 81.8438 107.798C81.8438 107.336 82.2181 106.961 82.68 106.961C83.1418 106.961 83.5162 107.336 83.5162 107.798Z" fill="white"/>
<path d="M87.6998 99.4269C87.6998 99.8892 87.3254 100.264 86.8636 100.264C86.4017 100.264 86.0273 99.8892 86.0273 99.4269C86.0273 98.9646 86.4017 98.5898 86.8636 98.5898C87.3254 98.5898 87.6998 98.9646 87.6998 99.4269Z" fill="white"/>
<path d="M87.6998 101.52C87.6998 101.982 87.3254 102.357 86.8636 102.357C86.4017 102.357 86.0273 101.982 86.0273 101.52C86.0273 101.058 86.4017 100.683 86.8636 100.683C87.3254 100.683 87.6998 101.058 87.6998 101.52Z" fill="white"/>
<path d="M87.6998 103.612C87.6998 104.074 87.3254 104.449 86.8636 104.449C86.4017 104.449 86.0273 104.074 86.0273 103.612C86.0273 103.15 86.4017 102.775 86.8636 102.775C87.3254 102.775 87.6998 103.15 87.6998 103.612Z" fill="white"/>
<path d="M87.6998 105.705C87.6998 106.167 87.3254 106.542 86.8636 106.542C86.4017 106.542 86.0273 106.167 86.0273 105.705C86.0273 105.242 86.4017 104.868 86.8636 104.868C87.3254 104.868 87.6998 105.242 87.6998 105.705Z" fill="white"/>
<path d="M87.6998 107.798C87.6998 108.26 87.3254 108.635 86.8636 108.635C86.4017 108.635 86.0273 108.26 86.0273 107.798C86.0273 107.336 86.4017 106.961 86.8636 106.961C87.3254 106.961 87.6998 107.336 87.6998 107.798Z" fill="white"/>
<path d="M93.9693 99.4269C93.9693 99.8892 93.5949 100.264 93.1331 100.264C92.6713 100.264 92.2969 99.8892 92.2969 99.4269C92.2969 98.9646 92.6713 98.5898 93.1331 98.5898C93.5949 98.5898 93.9693 98.9646 93.9693 99.4269Z" fill="white"/>
<path d="M93.9693 101.52C93.9693 101.982 93.5949 102.357 93.1331 102.357C92.6713 102.357 92.2969 101.982 92.2969 101.52C92.2969 101.058 92.6713 100.683 93.1331 100.683C93.5949 100.683 93.9693 101.058 93.9693 101.52Z" fill="white"/>
<path d="M93.9693 103.612C93.9693 104.074 93.5949 104.449 93.1331 104.449C92.6713 104.449 92.2969 104.074 92.2969 103.612C92.2969 103.15 92.6713 102.775 93.1331 102.775C93.5949 102.775 93.9693 103.15 93.9693 103.612Z" fill="white"/>
<path d="M93.9693 105.705C93.9693 106.167 93.5949 106.542 93.1331 106.542C92.6713 106.542 92.2969 106.167 92.2969 105.705C92.2969 105.242 92.6713 104.868 93.1331 104.868C93.5949 104.868 93.9693 105.242 93.9693 105.705Z" fill="white"/>
<path d="M93.9693 107.798C93.9693 108.26 93.5949 108.635 93.1331 108.635C92.6713 108.635 92.2969 108.26 92.2969 107.798C92.2969 107.336 92.6713 106.961 93.1331 106.961C93.5949 106.961 93.9693 107.336 93.9693 107.798Z" fill="white"/>
<path d="M89.7936 99.4269C89.7936 99.8892 89.4192 100.264 88.9573 100.264C88.4955 100.264 88.1211 99.8892 88.1211 99.4269C88.1211 98.9646 88.4955 98.5898 88.9573 98.5898C89.4192 98.5898 89.7936 98.9646 89.7936 99.4269Z" fill="white"/>
<path d="M89.7936 101.52C89.7936 101.982 89.4192 102.357 88.9573 102.357C88.4955 102.357 88.1211 101.982 88.1211 101.52C88.1211 101.058 88.4955 100.683 88.9573 100.683C89.4192 100.683 89.7936 101.058 89.7936 101.52Z" fill="white"/>
<path d="M89.7936 103.612C89.7936 104.074 89.4192 104.449 88.9573 104.449C88.4955 104.449 88.1211 104.074 88.1211 103.612C88.1211 103.15 88.4955 102.775 88.9573 102.775C89.4192 102.775 89.7936 103.15 89.7936 103.612Z" fill="white"/>
<path d="M89.7936 105.705C89.7936 106.167 89.4192 106.542 88.9573 106.542C88.4955 106.542 88.1211 106.167 88.1211 105.705C88.1211 105.242 88.4955 104.868 88.9573 104.868C89.4192 104.868 89.7936 105.242 89.7936 105.705Z" fill="white"/>
<path d="M89.7936 107.798C89.7936 108.26 89.4192 108.635 88.9573 108.635C88.4955 108.635 88.1211 108.26 88.1211 107.798C88.1211 107.336 88.4955 106.961 88.9573 106.961C89.4192 106.961 89.7936 107.336 89.7936 107.798Z" fill="white"/>
<path d="M96.0631 99.4269C96.0631 99.8892 95.6887 100.264 95.2269 100.264C94.765 100.264 94.3906 99.8892 94.3906 99.4269C94.3906 98.9646 94.765 98.5898 95.2269 98.5898C95.6887 98.5898 96.0631 98.9646 96.0631 99.4269Z" fill="white"/>
<path d="M96.0631 101.52C96.0631 101.982 95.6887 102.357 95.2269 102.357C94.765 102.357 94.3906 101.982 94.3906 101.52C94.3906 101.058 94.765 100.683 95.2269 100.683C95.6887 100.683 96.0631 101.058 96.0631 101.52Z" fill="white"/>
<path d="M96.0631 103.612C96.0631 104.074 95.6887 104.449 95.2269 104.449C94.765 104.449 94.3906 104.074 94.3906 103.612C94.3906 103.15 94.765 102.775 95.2269 102.775C95.6887 102.775 96.0631 103.15 96.0631 103.612Z" fill="white"/>
<path d="M96.0631 105.705C96.0631 106.167 95.6887 106.542 95.2269 106.542C94.765 106.542 94.3906 106.167 94.3906 105.705C94.3906 105.242 94.765 104.868 95.2269 104.868C95.6887 104.868 96.0631 105.242 96.0631 105.705Z" fill="white"/>
<path d="M96.0631 107.798C96.0631 108.26 95.6887 108.635 95.2269 108.635C94.765 108.635 94.3906 108.26 94.3906 107.798C94.3906 107.336 94.765 106.961 95.2269 106.961C95.6887 106.961 96.0631 107.336 96.0631 107.798Z" fill="white"/>
<path d="M85.6061 99.4269C85.6061 99.8892 85.2317 100.264 84.7698 100.264C84.308 100.264 83.9336 99.8892 83.9336 99.4269C83.9336 98.9646 84.308 98.5898 84.7698 98.5898C85.2317 98.5898 85.6061 98.9646 85.6061 99.4269Z" fill="white"/>
<path d="M85.6061 101.52C85.6061 101.982 85.2317 102.357 84.7698 102.357C84.308 102.357 83.9336 101.982 83.9336 101.52C83.9336 101.058 84.308 100.683 84.7698 100.683C85.2317 100.683 85.6061 101.058 85.6061 101.52Z" fill="white"/>
<path d="M85.6061 103.612C85.6061 104.074 85.2317 104.449 84.7698 104.449C84.308 104.449 83.9336 104.074 83.9336 103.612C83.9336 103.15 84.308 102.775 84.7698 102.775C85.2317 102.775 85.6061 103.15 85.6061 103.612Z" fill="white"/>
<path d="M85.6061 105.705C85.6061 106.167 85.2317 106.542 84.7698 106.542C84.308 106.542 83.9336 106.167 83.9336 105.705C83.9336 105.242 84.308 104.868 84.7698 104.868C85.2317 104.868 85.6061 105.242 85.6061 105.705Z" fill="white"/>
<path d="M85.6061 107.798C85.6061 108.26 85.2317 108.635 84.7698 108.635C84.308 108.635 83.9336 108.26 83.9336 107.798C83.9336 107.336 84.308 106.961 84.7698 106.961C85.2317 106.961 85.6061 107.336 85.6061 107.798Z" fill="white"/>
<path d="M91.8795 99.4269C91.8795 99.8892 91.5051 100.264 91.0433 100.264C90.5814 100.264 90.207 99.8892 90.207 99.4269C90.207 98.9646 90.5814 98.5898 91.0433 98.5898C91.5051 98.5898 91.8795 98.9646 91.8795 99.4269Z" fill="white"/>
<path d="M91.8795 101.52C91.8795 101.982 91.5051 102.357 91.0433 102.357C90.5814 102.357 90.207 101.982 90.207 101.52C90.207 101.058 90.5814 100.683 91.0433 100.683C91.5051 100.683 91.8795 101.058 91.8795 101.52Z" fill="white"/>
<path d="M91.8795 103.612C91.8795 104.074 91.5051 104.449 91.0433 104.449C90.5814 104.449 90.207 104.074 90.207 103.612C90.207 103.15 90.5814 102.775 91.0433 102.775C91.5051 102.775 91.8795 103.15 91.8795 103.612Z" fill="white"/>
<path d="M91.8795 105.705C91.8795 106.167 91.5051 106.542 91.0433 106.542C90.5814 106.542 90.207 106.167 90.207 105.705C90.207 105.242 90.5814 104.868 91.0433 104.868C91.5051 104.868 91.8795 105.242 91.8795 105.705Z" fill="white"/>
<path d="M91.8795 107.798C91.8795 108.26 91.5051 108.635 91.0433 108.635C90.5814 108.635 90.207 108.26 90.207 107.798C90.207 107.336 90.5814 106.961 91.0433 106.961C91.5051 106.961 91.8795 107.336 91.8795 107.798Z" fill="white"/>
<path d="M98.1529 99.4269C98.1529 99.8892 97.7785 100.264 97.3167 100.264C96.8549 100.264 96.4805 99.8892 96.4805 99.4269C96.4805 98.9646 96.8549 98.5898 97.3167 98.5898C97.7785 98.5898 98.1529 98.9646 98.1529 99.4269Z" fill="white"/>
<path d="M98.1529 101.52C98.1529 101.982 97.7785 102.357 97.3167 102.357C96.8549 102.357 96.4805 101.982 96.4805 101.52C96.4805 101.058 96.8549 100.683 97.3167 100.683C97.7785 100.683 98.1529 101.058 98.1529 101.52Z" fill="white"/>
<path d="M98.1529 103.612C98.1529 104.074 97.7785 104.449 97.3167 104.449C96.8549 104.449 96.4805 104.074 96.4805 103.612C96.4805 103.15 96.8549 102.775 97.3167 102.775C97.7785 102.775 98.1529 103.15 98.1529 103.612Z" fill="white"/>
<path d="M98.1529 105.705C98.1529 106.167 97.7785 106.542 97.3167 106.542C96.8549 106.542 96.4805 106.167 96.4805 105.705C96.4805 105.242 96.8549 104.868 97.3167 104.868C97.7785 104.868 98.1529 105.242 98.1529 105.705Z" fill="white"/>
<path d="M98.1529 107.798C98.1529 108.26 97.7785 108.635 97.3167 108.635C96.8549 108.635 96.4805 108.26 96.4805 107.798C96.4805 107.336 96.8549 106.961 97.3167 106.961C97.7785 106.961 98.1529 107.336 98.1529 107.798Z" fill="white"/>
<path d="M79.3365 109.891C79.3365 110.353 78.9621 110.728 78.5003 110.728C78.0385 110.728 77.6641 110.353 77.6641 109.891C77.6641 109.428 78.0385 109.054 78.5003 109.054C78.9621 109.054 79.3365 109.428 79.3365 109.891Z" fill="white"/>
<path d="M79.3365 111.983C79.3365 112.445 78.9621 112.82 78.5003 112.82C78.0385 112.82 77.6641 112.445 77.6641 111.983C77.6641 111.521 78.0385 111.146 78.5003 111.146C78.9621 111.146 79.3365 111.521 79.3365 111.983Z" fill="white"/>
<path d="M81.4264 109.891C81.4264 110.353 81.052 110.728 80.5901 110.728C80.1283 110.728 79.7539 110.353 79.7539 109.891C79.7539 109.428 80.1283 109.054 80.5901 109.054C81.052 109.054 81.4264 109.428 81.4264 109.891Z" fill="white"/>
<path d="M81.4264 111.983C81.4264 112.445 81.052 112.82 80.5901 112.82C80.1283 112.82 79.7539 112.445 79.7539 111.983C79.7539 111.521 80.1283 111.146 80.5901 111.146C81.052 111.146 81.4264 111.521 81.4264 111.983Z" fill="white"/>
<path d="M77.2467 109.891C77.2467 110.353 76.8723 110.728 76.4104 110.728C75.9486 110.728 75.5742 110.353 75.5742 109.891C75.5742 109.428 75.9486 109.054 76.4104 109.054C76.8723 109.054 77.2467 109.428 77.2467 109.891Z" fill="white"/>
<path d="M77.2467 111.983C77.2467 112.445 76.8723 112.82 76.4104 112.82C75.9486 112.82 75.5742 112.445 75.5742 111.983C75.5742 111.521 75.9486 111.146 76.4104 111.146C76.8723 111.146 77.2467 111.521 77.2467 111.983Z" fill="white"/>
<path d="M83.5162 109.891C83.5162 110.353 83.1418 110.728 82.68 110.728C82.2181 110.728 81.8438 110.353 81.8438 109.891C81.8438 109.428 82.2181 109.054 82.68 109.054C83.1418 109.054 83.5162 109.428 83.5162 109.891Z" fill="white"/>
<path d="M83.5162 111.983C83.5162 112.445 83.1418 112.82 82.68 112.82C82.2181 112.82 81.8438 112.445 81.8438 111.983C81.8438 111.521 82.2181 111.146 82.68 111.146C83.1418 111.146 83.5162 111.521 83.5162 111.983Z" fill="white"/>
<path d="M87.6998 109.891C87.6998 110.353 87.3254 110.728 86.8636 110.728C86.4017 110.728 86.0273 110.353 86.0273 109.891C86.0273 109.428 86.4017 109.054 86.8636 109.054C87.3254 109.054 87.6998 109.428 87.6998 109.891Z" fill="white"/>
<path d="M87.6998 111.983C87.6998 112.445 87.3254 112.82 86.8636 112.82C86.4017 112.82 86.0273 112.445 86.0273 111.983C86.0273 111.521 86.4017 111.146 86.8636 111.146C87.3254 111.146 87.6998 111.521 87.6998 111.983Z" fill="white"/>
<path d="M93.9693 109.891C93.9693 110.353 93.5949 110.728 93.1331 110.728C92.6713 110.728 92.2969 110.353 92.2969 109.891C92.2969 109.428 92.6713 109.054 93.1331 109.054C93.5949 109.054 93.9693 109.428 93.9693 109.891Z" fill="white"/>
<path d="M93.9693 111.983C93.9693 112.445 93.5949 112.82 93.1331 112.82C92.6713 112.82 92.2969 112.445 92.2969 111.983C92.2969 111.521 92.6713 111.146 93.1331 111.146C93.5949 111.146 93.9693 111.521 93.9693 111.983Z" fill="white"/>
<path d="M89.7936 109.891C89.7936 110.353 89.4192 110.728 88.9573 110.728C88.4955 110.728 88.1211 110.353 88.1211 109.891C88.1211 109.428 88.4955 109.054 88.9573 109.054C89.4192 109.054 89.7936 109.428 89.7936 109.891Z" fill="white"/>
<path d="M89.7936 111.983C89.7936 112.445 89.4192 112.82 88.9573 112.82C88.4955 112.82 88.1211 112.445 88.1211 111.983C88.1211 111.521 88.4955 111.146 88.9573 111.146C89.4192 111.146 89.7936 111.521 89.7936 111.983Z" fill="white"/>
<path d="M96.0631 109.891C96.0631 110.353 95.6887 110.728 95.2269 110.728C94.765 110.728 94.3906 110.353 94.3906 109.891C94.3906 109.428 94.765 109.054 95.2269 109.054C95.6887 109.054 96.0631 109.428 96.0631 109.891Z" fill="white"/>
<path d="M96.0631 111.983C96.0631 112.445 95.6887 112.82 95.2269 112.82C94.765 112.82 94.3906 112.445 94.3906 111.983C94.3906 111.521 94.765 111.146 95.2269 111.146C95.6887 111.146 96.0631 111.521 96.0631 111.983Z" fill="white"/>
<path d="M85.6061 109.891C85.6061 110.353 85.2317 110.728 84.7698 110.728C84.308 110.728 83.9336 110.353 83.9336 109.891C83.9336 109.428 84.308 109.054 84.7698 109.054C85.2317 109.054 85.6061 109.428 85.6061 109.891Z" fill="white"/>
<path d="M85.6061 111.983C85.6061 112.445 85.2317 112.82 84.7698 112.82C84.308 112.82 83.9336 112.445 83.9336 111.983C83.9336 111.521 84.308 111.146 84.7698 111.146C85.2317 111.146 85.6061 111.521 85.6061 111.983Z" fill="white"/>
<path d="M91.8795 109.891C91.8795 110.353 91.5051 110.728 91.0433 110.728C90.5814 110.728 90.207 110.353 90.207 109.891C90.207 109.428 90.5814 109.054 91.0433 109.054C91.5051 109.054 91.8795 109.428 91.8795 109.891Z" fill="white"/>
<path d="M91.8795 111.983C91.8795 112.445 91.5051 112.82 91.0433 112.82C90.5814 112.82 90.207 112.445 90.207 111.983C90.207 111.521 90.5814 111.146 91.0433 111.146C91.5051 111.146 91.8795 111.521 91.8795 111.983Z" fill="white"/>
<path d="M98.1529 109.891C98.1529 110.353 97.7785 110.728 97.3167 110.728C96.8549 110.728 96.4805 110.353 96.4805 109.891C96.4805 109.428 96.8549 109.054 97.3167 109.054C97.7785 109.054 98.1529 109.428 98.1529 109.891Z" fill="white"/>
<path d="M98.1529 111.983C98.1529 112.445 97.7785 112.82 97.3167 112.82C96.8549 112.82 96.4805 112.445 96.4805 111.983C96.4805 111.521 96.8549 111.146 97.3167 111.146C97.7785 111.146 98.1529 111.521 98.1529 111.983Z" fill="white"/>
</mask>
<g mask="url(#mask0_3034_645)">
<path d="M97.0696 111.895C97.0696 111.895 92.4833 107.527 86.8258 107.527C81.1683 107.527 76.582 112.712 76.582 111.895C76.582 105.286 81.1683 99.9287 86.8258 99.9287C92.4833 99.9287 97.0696 105.286 97.0696 111.895Z" fill="#F29111"/>
</g>
<mask id="mask1_3034_645" style="mask-type:luminance" maskUnits="userSpaceOnUse" x="104" y="98" width="24" height="15">
<path d="M108.684 99.4269C108.684 99.8892 108.31 100.264 107.848 100.264C107.386 100.264 107.012 99.8892 107.012 99.4269C107.012 98.9646 107.386 98.5898 107.848 98.5898C108.31 98.5898 108.684 98.9646 108.684 99.4269Z" fill="white"/>
<path d="M108.684 101.52C108.684 101.982 108.31 102.357 107.848 102.357C107.386 102.357 107.012 101.982 107.012 101.52C107.012 101.058 107.386 100.683 107.848 100.683C108.31 100.683 108.684 101.058 108.684 101.52Z" fill="white"/>
<path d="M108.684 103.612C108.684 104.074 108.31 104.449 107.848 104.449C107.386 104.449 107.012 104.074 107.012 103.612C107.012 103.15 107.386 102.775 107.848 102.775C108.31 102.775 108.684 103.15 108.684 103.612Z" fill="white"/>
<path d="M108.684 105.705C108.684 106.167 108.31 106.542 107.848 106.542C107.386 106.542 107.012 106.167 107.012 105.705C107.012 105.242 107.386 104.868 107.848 104.868C108.31 104.868 108.684 105.242 108.684 105.705Z" fill="white"/>
<path d="M108.684 107.798C108.684 108.26 108.31 108.635 107.848 108.635C107.386 108.635 107.012 108.26 107.012 107.798C107.012 107.336 107.386 106.961 107.848 106.961C108.31 106.961 108.684 107.336 108.684 107.798Z" fill="white"/>
<path d="M110.774 99.4269C110.774 99.8892 110.4 100.264 109.938 100.264C109.476 100.264 109.102 99.8892 109.102 99.4269C109.102 98.9646 109.476 98.5898 109.938 98.5898C110.4 98.5898 110.774 98.9646 110.774 99.4269Z" fill="white"/>
<path d="M110.774 101.52C110.774 101.982 110.4 102.357 109.938 102.357C109.476 102.357 109.102 101.982 109.102 101.52C109.102 101.058 109.476 100.683 109.938 100.683C110.4 100.683 110.774 101.058 110.774 101.52Z" fill="white"/>
<path d="M110.774 103.612C110.774 104.074 110.4 104.449 109.938 104.449C109.476 104.449 109.102 104.074 109.102 103.612C109.102 103.15 109.476 102.775 109.938 102.775C110.4 102.775 110.774 103.15 110.774 103.612Z" fill="white"/>
<path d="M110.774 105.705C110.774 106.167 110.4 106.542 109.938 106.542C109.476 106.542 109.102 106.167 109.102 105.705C109.102 105.242 109.476 104.868 109.938 104.868C110.4 104.868 110.774 105.242 110.774 105.705Z" fill="white"/>
<path d="M110.774 107.798C110.774 108.26 110.4 108.635 109.938 108.635C109.476 108.635 109.102 108.26 109.102 107.798C109.102 107.336 109.476 106.961 109.938 106.961C110.4 106.961 110.774 107.336 110.774 107.798Z" fill="white"/>
<path d="M106.594 99.4269C106.594 99.8892 106.22 100.264 105.758 100.264C105.296 100.264 104.922 99.8892 104.922 99.4269C104.922 98.9646 105.296 98.5898 105.758 98.5898C106.22 98.5898 106.594 98.9646 106.594 99.4269Z" fill="white"/>
<path d="M106.594 101.52C106.594 101.982 106.22 102.357 105.758 102.357C105.296 102.357 104.922 101.982 104.922 101.52C104.922 101.058 105.296 100.683 105.758 100.683C106.22 100.683 106.594 101.058 106.594 101.52Z" fill="white"/>
<path d="M106.594 103.613C106.594 104.075 106.22 104.45 105.758 104.45C105.296 104.45 104.922 104.075 104.922 103.613C104.922 103.151 105.296 102.776 105.758 102.776C106.22 102.776 106.594 103.151 106.594 103.613Z" fill="white"/>
<path d="M106.594 105.705C106.594 106.167 106.22 106.542 105.758 106.542C105.296 106.542 104.922 106.167 104.922 105.705C104.922 105.242 105.296 104.868 105.758 104.868C106.22 104.868 106.594 105.242 106.594 105.705Z" fill="white"/>
<path d="M106.594 107.798C106.594 108.26 106.22 108.635 105.758 108.635C105.296 108.635 104.922 108.26 104.922 107.798C104.922 107.336 105.296 106.961 105.758 106.961C106.22 106.961 106.594 107.336 106.594 107.798Z" fill="white"/>
<path d="M112.864 99.4269C112.864 99.8892 112.489 100.264 112.028 100.264C111.566 100.264 111.191 99.8892 111.191 99.4269C111.191 98.9646 111.566 98.5898 112.028 98.5898C112.489 98.5898 112.864 98.9646 112.864 99.4269Z" fill="white"/>
<path d="M112.864 101.52C112.864 101.982 112.489 102.357 112.028 102.357C111.566 102.357 111.191 101.982 111.191 101.52C111.191 101.058 111.566 100.683 112.028 100.683C112.489 100.683 112.864 101.058 112.864 101.52Z" fill="white"/>
<path d="M112.864 103.612C112.864 104.074 112.489 104.449 112.028 104.449C111.566 104.449 111.191 104.074 111.191 103.612C111.191 103.15 111.566 102.775 112.028 102.775C112.489 102.775 112.864 103.15 112.864 103.612Z" fill="white"/>
<path d="M112.864 105.705C112.864 106.167 112.489 106.542 112.028 106.542C111.566 106.542 111.191 106.167 111.191 105.705C111.191 105.242 111.566 104.868 112.028 104.868C112.489 104.868 112.864 105.242 112.864 105.705Z" fill="white"/>
<path d="M112.864 107.798C112.864 108.26 112.489 108.635 112.028 108.635C111.566 108.635 111.191 108.26 111.191 107.798C111.191 107.336 111.566 106.961 112.028 106.961C112.489 106.961 112.864 107.336 112.864 107.798Z" fill="white"/>
<path d="M117.047 99.4269C117.047 99.8892 116.673 100.264 116.211 100.264C115.749 100.264 115.375 99.8892 115.375 99.4269C115.375 98.9646 115.749 98.5898 116.211 98.5898C116.673 98.5898 117.047 98.9646 117.047 99.4269Z" fill="white"/>
<path d="M117.047 101.52C117.047 101.982 116.673 102.357 116.211 102.357C115.749 102.357 115.375 101.982 115.375 101.52C115.375 101.058 115.749 100.683 116.211 100.683C116.673 100.683 117.047 101.058 117.047 101.52Z" fill="white"/>
<path d="M117.047 103.612C117.047 104.074 116.673 104.449 116.211 104.449C115.749 104.449 115.375 104.074 115.375 103.612C115.375 103.15 115.749 102.775 116.211 102.775C116.673 102.775 117.047 103.15 117.047 103.612Z" fill="white"/>
<path d="M117.047 105.705C117.047 106.167 116.673 106.542 116.211 106.542C115.749 106.542 115.375 106.167 115.375 105.705C115.375 105.242 115.749 104.868 116.211 104.868C116.673 104.868 117.047 105.242 117.047 105.705Z" fill="white"/>
<path d="M117.047 107.798C117.047 108.26 116.673 108.635 116.211 108.635C115.749 108.635 115.375 108.26 115.375 107.798C115.375 107.336 115.749 106.961 116.211 106.961C116.673 106.961 117.047 107.336 117.047 107.798Z" fill="white"/>
<path d="M123.317 99.4269C123.317 99.8892 122.943 100.264 122.481 100.264C122.019 100.264 121.645 99.8892 121.645 99.4269C121.645 98.9646 122.019 98.5898 122.481 98.5898C122.943 98.5898 123.317 98.9646 123.317 99.4269Z" fill="white"/>
<path d="M123.317 101.52C123.317 101.982 122.943 102.357 122.481 102.357C122.019 102.357 121.645 101.982 121.645 101.52C121.645 101.058 122.019 100.683 122.481 100.683C122.943 100.683 123.317 101.058 123.317 101.52Z" fill="white"/>
<path d="M123.317 103.612C123.317 104.074 122.943 104.449 122.481 104.449C122.019 104.449 121.645 104.074 121.645 103.612C121.645 103.15 122.019 102.775 122.481 102.775C122.943 102.775 123.317 103.15 123.317 103.612Z" fill="white"/>
<path d="M123.317 105.705C123.317 106.167 122.943 106.542 122.481 106.542C122.019 106.542 121.645 106.167 121.645 105.705C121.645 105.242 122.019 104.868 122.481 104.868C122.943 104.868 123.317 105.242 123.317 105.705Z" fill="white"/>
<path d="M123.317 107.798C123.317 108.26 122.943 108.635 122.481 108.635C122.019 108.635 121.645 108.26 121.645 107.798C121.645 107.336 122.019 106.961 122.481 106.961C122.943 106.961 123.317 107.336 123.317 107.798Z" fill="white"/>
<path d="M119.141 99.4269C119.141 99.8892 118.767 100.264 118.305 100.264C117.843 100.264 117.469 99.8892 117.469 99.4269C117.469 98.9646 117.843 98.5898 118.305 98.5898C118.767 98.5898 119.141 98.9646 119.141 99.4269Z" fill="white"/>
<path d="M119.141 101.52C119.141 101.982 118.767 102.357 118.305 102.357C117.843 102.357 117.469 101.982 117.469 101.52C117.469 101.058 117.843 100.683 118.305 100.683C118.767 100.683 119.141 101.058 119.141 101.52Z" fill="white"/>
<path d="M119.141 103.612C119.141 104.074 118.767 104.449 118.305 104.449C117.843 104.449 117.469 104.074 117.469 103.612C117.469 103.15 117.843 102.775 118.305 102.775C118.767 102.775 119.141 103.15 119.141 103.612Z" fill="white"/>
<path d="M119.141 105.705C119.141 106.167 118.767 106.542 118.305 106.542C117.843 106.542 117.469 106.167 117.469 105.705C117.469 105.242 117.843 104.868 118.305 104.868C118.767 104.868 119.141 105.242 119.141 105.705Z" fill="white"/>
<path d="M119.141 107.798C119.141 108.26 118.767 108.635 118.305 108.635C117.843 108.635 117.469 108.26 117.469 107.798C117.469 107.336 117.843 106.961 118.305 106.961C118.767 106.961 119.141 107.336 119.141 107.798Z" fill="white"/>
<path d="M125.411 99.4269C125.411 99.8892 125.036 100.264 124.575 100.264C124.113 100.264 123.738 99.8892 123.738 99.4269C123.738 98.9646 124.113 98.5898 124.575 98.5898C125.036 98.5898 125.411 98.9646 125.411 99.4269Z" fill="white"/>
<path d="M125.411 101.52C125.411 101.982 125.036 102.357 124.575 102.357C124.113 102.357 123.738 101.982 123.738 101.52C123.738 101.058 124.113 100.683 124.575 100.683C125.036 100.683 125.411 101.058 125.411 101.52Z" fill="white"/>
<path d="M125.411 103.612C125.411 104.074 125.036 104.449 124.575 104.449C124.113 104.449 123.738 104.074 123.738 103.612C123.738 103.15 124.113 102.775 124.575 102.775C125.036 102.775 125.411 103.15 125.411 103.612Z" fill="white"/>
<path d="M125.411 105.705C125.411 106.167 125.036 106.542 124.575 106.542C124.113 106.542 123.738 106.167 123.738 105.705C123.738 105.242 124.113 104.868 124.575 104.868C125.036 104.868 125.411 105.242 125.411 105.705Z" fill="white"/>
<path d="M125.411 107.798C125.411 108.26 125.036 108.635 124.575 108.635C124.113 108.635 123.738 108.26 123.738 107.798C123.738 107.336 124.113 106.961 124.575 106.961C125.036 106.961 125.411 107.336 125.411 107.798Z" fill="white"/>
<path d="M114.954 99.4269C114.954 99.8892 114.579 100.264 114.117 100.264C113.656 100.264 113.281 99.8892 113.281 99.4269C113.281 98.9646 113.656 98.5898 114.117 98.5898C114.579 98.5898 114.954 98.9646 114.954 99.4269Z" fill="white"/>
<path d="M114.954 101.52C114.954 101.982 114.579 102.357 114.117 102.357C113.656 102.357 113.281 101.982 113.281 101.52C113.281 101.058 113.656 100.683 114.117 100.683C114.579 100.683 114.954 101.058 114.954 101.52Z" fill="white"/>
<path d="M114.954 103.612C114.954 104.074 114.579 104.449 114.117 104.449C113.656 104.449 113.281 104.074 113.281 103.612C113.281 103.15 113.656 102.775 114.117 102.775C114.579 102.775 114.954 103.15 114.954 103.612Z" fill="white"/>
<path d="M114.954 105.705C114.954 106.167 114.579 106.542 114.117 106.542C113.656 106.542 113.281 106.167 113.281 105.705C113.281 105.242 113.656 104.868 114.117 104.868C114.579 104.868 114.954 105.242 114.954 105.705Z" fill="white"/>
<path d="M114.954 107.798C114.954 108.26 114.579 108.635 114.117 108.635C113.656 108.635 113.281 108.26 113.281 107.798C113.281 107.336 113.656 106.961 114.117 106.961C114.579 106.961 114.954 107.336 114.954 107.798Z" fill="white"/>
<path d="M121.227 99.4269C121.227 99.8892 120.853 100.264 120.391 100.264C119.929 100.264 119.555 99.8892 119.555 99.4269C119.555 98.9646 119.929 98.5898 120.391 98.5898C120.853 98.5898 121.227 98.9646 121.227 99.4269Z" fill="white"/>
<path d="M121.227 101.52C121.227 101.982 120.853 102.357 120.391 102.357C119.929 102.357 119.555 101.982 119.555 101.52C119.555 101.058 119.929 100.683 120.391 100.683C120.853 100.683 121.227 101.058 121.227 101.52Z" fill="white"/>
<path d="M121.227 103.612C121.227 104.074 120.853 104.449 120.391 104.449C119.929 104.449 119.555 104.074 119.555 103.612C119.555 103.15 119.929 102.775 120.391 102.775C120.853 102.775 121.227 103.15 121.227 103.612Z" fill="white"/>
<path d="M121.227 105.705C121.227 106.167 120.853 106.542 120.391 106.542C119.929 106.542 119.555 106.167 119.555 105.705C119.555 105.242 119.929 104.868 120.391 104.868C120.853 104.868 121.227 105.242 121.227 105.705Z" fill="white"/>
<path d="M121.227 107.798C121.227 108.26 120.853 108.635 120.391 108.635C119.929 108.635 119.555 108.26 119.555 107.798C119.555 107.336 119.929 106.961 120.391 106.961C120.853 106.961 121.227 107.336 121.227 107.798Z" fill="white"/>
<path d="M127.501 99.4269C127.501 99.8892 127.126 100.264 126.664 100.264C126.203 100.264 125.828 99.8892 125.828 99.4269C125.828 98.9646 126.203 98.5898 126.664 98.5898C127.126 98.5898 127.501 98.9646 127.501 99.4269Z" fill="white"/>
<path d="M127.501 101.52C127.501 101.982 127.126 102.357 126.664 102.357C126.203 102.357 125.828 101.982 125.828 101.52C125.828 101.058 126.203 100.683 126.664 100.683C127.126 100.683 127.501 101.058 127.501 101.52Z" fill="white"/>
<path d="M127.501 103.612C127.501 104.074 127.126 104.449 126.664 104.449C126.203 104.449 125.828 104.074 125.828 103.612C125.828 103.15 126.203 102.775 126.664 102.775C127.126 102.775 127.501 103.15 127.501 103.612Z" fill="white"/>
<path d="M127.501 105.705C127.501 106.167 127.126 106.542 126.664 106.542C126.203 106.542 125.828 106.167 125.828 105.705C125.828 105.242 126.203 104.868 126.664 104.868C127.126 104.868 127.501 105.242 127.501 105.705Z" fill="white"/>
<path d="M127.501 107.798C127.501 108.26 127.126 108.635 126.664 108.635C126.203 108.635 125.828 108.26 125.828 107.798C125.828 107.336 126.203 106.961 126.664 106.961C127.126 106.961 127.501 107.336 127.501 107.798Z" fill="white"/>
<path d="M108.684 109.891C108.684 110.353 108.31 110.728 107.848 110.728C107.386 110.728 107.012 110.353 107.012 109.891C107.012 109.428 107.386 109.054 107.848 109.054C108.31 109.054 108.684 109.428 108.684 109.891Z" fill="white"/>
<path d="M108.684 111.983C108.684 112.445 108.31 112.82 107.848 112.82C107.386 112.82 107.012 112.445 107.012 111.983C107.012 111.521 107.386 111.146 107.848 111.146C108.31 111.146 108.684 111.521 108.684 111.983Z" fill="white"/>
<path d="M110.774 109.891C110.774 110.353 110.4 110.728 109.938 110.728C109.476 110.728 109.102 110.353 109.102 109.891C109.102 109.428 109.476 109.054 109.938 109.054C110.4 109.054 110.774 109.428 110.774 109.891Z" fill="white"/>
<path d="M110.774 111.983C110.774 112.445 110.4 112.82 109.938 112.82C109.476 112.82 109.102 112.445 109.102 111.983C109.102 111.521 109.476 111.146 109.938 111.146C110.4 111.146 110.774 111.521 110.774 111.983Z" fill="white"/>
<path d="M106.594 109.891C106.594 110.353 106.22 110.728 105.758 110.728C105.296 110.728 104.922 110.353 104.922 109.891C104.922 109.428 105.296 109.054 105.758 109.054C106.22 109.054 106.594 109.428 106.594 109.891Z" fill="white"/>
<path d="M106.594 111.983C106.594 112.445 106.22 112.82 105.758 112.82C105.296 112.82 104.922 112.445 104.922 111.983C104.922 111.521 105.296 111.146 105.758 111.146C106.22 111.146 106.594 111.521 106.594 111.983Z" fill="white"/>
<path d="M112.864 109.891C112.864 110.353 112.489 110.728 112.028 110.728C111.566 110.728 111.191 110.353 111.191 109.891C111.191 109.428 111.566 109.054 112.028 109.054C112.489 109.054 112.864 109.428 112.864 109.891Z" fill="white"/>
<path d="M112.864 111.983C112.864 112.445 112.489 112.82 112.028 112.82C111.566 112.82 111.191 112.445 111.191 111.983C111.191 111.521 111.566 111.146 112.028 111.146C112.489 111.146 112.864 111.521 112.864 111.983Z" fill="white"/>
<path d="M117.047 109.891C117.047 110.353 116.673 110.728 116.211 110.728C115.749 110.728 115.375 110.353 115.375 109.891C115.375 109.428 115.749 109.054 116.211 109.054C116.673 109.054 117.047 109.428 117.047 109.891Z" fill="white"/>
<path d="M117.047 111.983C117.047 112.445 116.673 112.82 116.211 112.82C115.749 112.82 115.375 112.445 115.375 111.983C115.375 111.521 115.749 111.146 116.211 111.146C116.673 111.146 117.047 111.521 117.047 111.983Z" fill="white"/>
<path d="M123.317 109.891C123.317 110.353 122.943 110.728 122.481 110.728C122.019 110.728 121.645 110.353 121.645 109.891C121.645 109.428 122.019 109.054 122.481 109.054C122.943 109.054 123.317 109.428 123.317 109.891Z" fill="white"/>
<path d="M123.317 111.983C123.317 112.445 122.943 112.82 122.481 112.82C122.019 112.82 121.645 112.445 121.645 111.983C121.645 111.521 122.019 111.146 122.481 111.146C122.943 111.146 123.317 111.521 123.317 111.983Z" fill="white"/>
<path d="M119.141 109.891C119.141 110.353 118.767 110.728 118.305 110.728C117.843 110.728 117.469 110.353 117.469 109.891C117.469 109.428 117.843 109.054 118.305 109.054C118.767 109.054 119.141 109.428 119.141 109.891Z" fill="white"/>
<path d="M119.141 111.983C119.141 112.445 118.767 112.82 118.305 112.82C117.843 112.82 117.469 112.445 117.469 111.983C117.469 111.521 117.843 111.146 118.305 111.146C118.767 111.146 119.141 111.521 119.141 111.983Z" fill="white"/>
<path d="M125.411 109.891C125.411 110.353 125.036 110.728 124.575 110.728C124.113 110.728 123.738 110.353 123.738 109.891C123.738 109.428 124.113 109.054 124.575 109.054C125.036 109.054 125.411 109.428 125.411 109.891Z" fill="white"/>
<path d="M125.411 111.983C125.411 112.445 125.036 112.82 124.575 112.82C124.113 112.82 123.738 112.445 123.738 111.983C123.738 111.521 124.113 111.146 124.575 111.146C125.036 111.146 125.411 111.521 125.411 111.983Z" fill="white"/>
<path d="M114.954 109.891C114.954 110.353 114.579 110.728 114.117 110.728C113.656 110.728 113.281 110.353 113.281 109.891C113.281 109.428 113.656 109.054 114.117 109.054C114.579 109.054 114.954 109.428 114.954 109.891Z" fill="white"/>
<path d="M114.954 111.983C114.954 112.445 114.579 112.82 114.117 112.82C113.656 112.82 113.281 112.445 113.281 111.983C113.281 111.521 113.656 111.146 114.117 111.146C114.579 111.146 114.954 111.521 114.954 111.983Z" fill="white"/>
<path d="M121.227 109.891C121.227 110.353 120.853 110.728 120.391 110.728C119.929 110.728 119.555 110.353 119.555 109.891C119.555 109.428 119.929 109.054 120.391 109.054C120.853 109.054 121.227 109.428 121.227 109.891Z" fill="white"/>
<path d="M121.227 111.983C121.227 112.445 120.853 112.82 120.391 112.82C119.929 112.82 119.555 112.445 119.555 111.983C119.555 111.521 119.929 111.146 120.391 111.146C120.853 111.146 121.227 111.521 121.227 111.983Z" fill="white"/>
<path d="M127.501 109.891C127.501 110.353 127.126 110.728 126.664 110.728C126.203 110.728 125.828 110.353 125.828 109.891C125.828 109.428 126.203 109.054 126.664 109.054C127.126 109.054 127.501 109.428 127.501 109.891Z" fill="white"/>
<path d="M127.501 111.983C127.501 112.445 127.126 112.82 126.664 112.82C126.203 112.82 125.828 112.445 125.828 111.983C125.828 111.521 126.203 111.146 126.664 111.146C127.126 111.146 127.501 111.521 127.501 111.983Z" fill="white"/>
</mask>
<g mask="url(#mask1_3034_645)">
<path d="M126.409 111.895C126.409 111.895 121.823 107.527 116.166 107.527C110.508 107.527 105.922 112.712 105.922 111.895C105.922 105.286 110.508 99.9287 116.166 99.9287C121.823 99.9287 126.409 105.286 126.409 111.895Z" fill="#F29111"/>
</g>
<g filter="url(#filter4_d_3034_645)">
<path d="M131.023 138.501L132.438 132.836C132.603 132.151 133.074 131.585 133.711 131.278L138.616 128.941C139.594 128.481 140.761 128.729 141.445 129.567L155.629 146.726C156.407 147.659 156.336 149.04 155.476 149.901L154.78 150.597C153.672 151.707 151.962 151.955 150.583 151.199L132.166 141.156C131.247 140.637 130.763 139.551 131.023 138.501Z" fill="white"/>
<path d="M150.586 151.187L138.961 144.825L150.067 139.951L155.644 146.702C156.422 147.634 156.351 149.015 155.491 149.877L154.783 150.585C153.675 151.694 151.965 151.942 150.586 151.187Z" fill="#F29111"/>
<path d="M73.4028 138.289L71.988 132.624C71.823 131.939 71.3513 131.373 70.7147 131.066L65.81 128.729C64.8314 128.269 63.6642 128.517 62.9803 129.355L58.3845 137.976C57.6064 138.909 57.6771 140.29 58.5378 141.151L59.2334 141.848C60.3417 142.957 62.0513 143.205 63.4307 142.449L72.2592 140.944C73.1906 140.413 73.674 139.327 73.4028 138.289Z" fill="white"/>
</g>
<path d="M73.1317 122.908C75.5763 117.29 75.4477 110.079 74.0119 104.205C73.9194 103.84 65.7319 103.751 57.4638 104.813C46.1153 106.273 40.2417 108.16 40.2482 108.54C40.3347 114.586 42.0179 121.591 45.7954 126.421C48.4836 129.867 52.0781 131.62 56.2639 132.773C56.3489 133.095 56.4059 133.406 56.4478 133.736C55.548 134.555 54.8814 135.56 55.1976 136.847C55.5418 138.25 56.7353 139.111 57.8826 139.842L58.0773 141.404C57.5863 145.965 55.6072 150.203 52.383 153.463C51.6938 153.503 51.0315 153.787 50.994 154.616C50.9317 156.095 53.2972 156.515 54.3326 156.681C57.2926 157.161 69.7281 155.565 72.4708 154.354C73.4287 153.927 75.6124 152.918 75.1832 151.507C74.9391 150.722 74.2284 150.609 73.5489 150.75C69.6114 148.407 66.6361 144.81 65.0197 140.515L64.825 138.953C65.7517 137.959 66.6946 136.819 66.6698 135.379C66.6492 134.053 65.7471 133.247 64.6729 132.681C64.6213 132.356 64.603 132.027 64.6083 131.7C68.3616 129.527 71.3999 126.919 73.1317 122.908Z" fill="#79613E"/>
<path d="M72.6555 116.42C70.3075 115.099 67.3361 115.924 66.0161 118.277C65.1089 119.889 63.9871 126.554 63.3875 130.582C63.2704 131.389 63.579 131.902 64.2756 131.905C64.3616 131.889 64.4455 131.817 64.597 131.715C68.3595 129.538 71.3974 126.93 73.1387 122.915C73.7729 121.471 74.2178 119.915 74.5273 118.314C74.1026 117.54 73.4737 116.88 72.6555 116.42Z" fill="#FFA531"/>
<path d="M51.5726 120.125C49.7025 118.184 46.6185 118.13 44.6799 120.005C43.981 120.676 43.5305 121.516 43.3295 122.395C44.0275 123.837 44.8427 125.204 45.7976 126.415C47.1688 128.173 48.7829 129.485 50.5809 130.507C51.1648 130.804 51.7627 131.106 52.352 131.389C53.5886 131.93 54.8908 132.382 56.2769 132.763C56.4446 132.828 56.6479 132.842 56.8253 132.797C57.5285 132.658 57.5618 132.132 57.2316 131.362C55.6184 127.623 52.8587 121.456 51.5726 120.125Z" fill="#FFA531"/>
<path d="M57.4618 104.811C46.1162 106.27 40.2441 108.156 40.2506 108.537C40.283 110.437 40.4572 112.344 40.7895 114.216C45.1914 115.074 51.37 115.106 58.1247 114.242C64.8794 113.378 70.8569 111.781 74.8974 109.841C74.7607 107.94 74.4532 106.046 73.9962 104.207C73.9134 103.838 65.7279 103.749 57.4618 104.811Z" fill="#FFCD34"/>
<path d="M63.6972 119.299C63.9317 121.134 62.457 127.736 61.5143 131.698C61.2466 132.793 59.7778 132.983 59.2541 131.986C57.3452 128.389 54.2608 122.38 54.0263 120.545C53.683 117.865 55.5764 115.418 58.242 115.078C60.9076 114.737 63.3486 116.633 63.6972 119.299Z" fill="#FFCD34"/>
<path d="M61.2189 138.448C63.0829 138.209 64.4514 136.983 64.2954 135.718C64.1351 134.443 62.4903 133.609 60.6402 133.853C58.7761 134.092 57.4077 135.317 57.5637 136.583C57.7196 137.848 59.3645 138.682 61.2189 138.448Z" fill="#FFCD34"/>
<path d="M56.0228 138.115C56.6572 138.03 57.1044 137.366 57.0097 136.63C56.915 135.895 56.3183 135.36 55.684 135.445C55.0496 135.53 54.6024 136.194 54.6971 136.93C54.7918 137.666 55.3885 138.201 56.0228 138.115Z" fill="#FFCD34"/>
<path d="M66.1752 136.822C66.8095 136.736 67.2567 136.073 67.162 135.337C67.0674 134.601 66.4706 134.066 65.8363 134.152C65.202 134.237 64.7548 134.901 64.8494 135.636C64.9441 136.372 65.5366 136.898 66.1752 136.822Z" fill="#FFCD34"/>
<path d="M48.0207 128.733C47.8518 128.587 47.683 128.442 47.5195 128.283C47.6787 128.432 47.8518 128.587 48.0207 128.733Z" fill="#E9B126"/>
<path d="M47.4265 128.206C47.2716 128.066 47.1221 127.912 46.9727 127.758C47.1178 127.902 47.2673 128.056 47.4265 128.206Z" fill="#E9B126"/>
<path d="M64.5954 131.985C64.5901 131.895 64.5847 131.804 64.589 131.709C64.5944 131.8 64.5997 131.89 64.5954 131.985Z" fill="#E9B126"/>
<path d="M73.5652 121.811C73.5104 121.975 73.4459 122.143 73.3771 122.302C73.4459 122.143 73.5007 121.98 73.5652 121.811Z" fill="#E9B126"/>
<path d="M73.6622 150.732C71.4566 151.924 67.6537 153.016 63.2445 153.577C58.8396 154.148 54.8346 154.053 52.4117 153.45C52.402 153.454 52.3967 153.468 52.387 153.473C51.698 153.513 51.0359 153.796 50.9983 154.626C50.9361 156.104 53.3009 156.524 54.336 156.689C57.2953 157.169 69.7273 155.574 72.4693 154.363C73.427 153.936 75.61 152.928 75.181 151.518C74.9542 150.771 74.3017 150.633 73.6622 150.732Z" fill="#E9B126"/>
<path d="M45.7875 126.417C45.6713 126.26 45.5498 126.117 45.4336 125.959C45.5551 126.103 45.6713 126.26 45.7875 126.417Z" fill="#E9B126"/>
<path d="M50.5717 130.513C50.1234 130.26 49.69 129.989 49.2578 129.694C50.7513 130.735 52.4039 131.507 54.1865 132.129C53.5522 131.901 52.9372 131.664 52.3329 131.4C51.763 131.108 51.1652 130.806 50.5717 130.513Z" fill="#E9B126"/>
<path d="M50.5012 130.472C50.3485 130.389 50.2055 130.302 50.0625 130.215C50.2055 130.302 50.3582 130.385 50.5012 130.472Z" fill="#FFCD34"/>
<path d="M49.875 130.091C49.6675 129.963 49.4653 129.82 49.2578 129.692C49.4696 129.83 49.6772 129.958 49.875 130.091Z" fill="#FFCD34"/>
<path d="M52.3299 131.388C51.7643 131.106 51.1988 130.824 50.6289 130.532C51.1837 130.842 51.7493 131.124 52.3299 131.388Z" fill="#FFCD34"/>
<path d="M44.8057 125.033C44.7616 124.96 44.7218 124.897 44.668 124.828C44.7175 124.887 44.7616 124.96 44.8057 125.033Z" fill="#FFCD34"/>
<path d="M73.8642 120.92C74.1254 120.072 74.35 119.194 74.523 118.304C74.1026 117.54 73.4737 116.88 72.6555 116.42C70.3075 115.099 67.3361 115.924 66.0161 118.277C65.1089 119.889 63.9871 126.554 63.3875 130.582C63.2704 131.389 63.579 131.902 64.2756 131.905C64.3616 131.889 64.4455 131.817 64.597 131.715C68.3595 129.538 71.3974 126.93 73.1387 122.915C73.2182 122.728 73.2924 122.556 73.3623 122.374C73.373 122.346 73.3784 122.332 73.3891 122.304C73.4536 122.136 73.5128 121.982 73.5772 121.814C73.6697 121.552 73.7578 121.281 73.8459 121.009C73.8427 120.976 73.8535 120.948 73.8642 120.92Z" fill="#FFCD34"/>
<path d="M56.8138 132.802C57.517 132.662 57.5503 132.137 57.2201 131.366C55.6166 127.622 52.8665 121.452 51.5804 120.121C49.7103 118.179 46.6263 118.126 44.6877 120C43.9888 120.672 43.5384 121.511 43.3373 122.391C43.3416 122.4 43.3503 122.42 43.3546 122.429C43.3976 122.526 43.4503 122.619 43.4933 122.716C43.5234 122.784 43.5632 122.847 43.5933 122.915C43.6363 123.012 43.6847 123.095 43.7374 123.188C43.7718 123.265 43.8116 123.329 43.8557 123.402C43.9041 123.485 43.9525 123.568 43.9955 123.665C44.0396 123.738 44.074 123.815 44.1181 123.889C44.1665 123.972 44.2149 124.055 44.2633 124.138C44.3074 124.211 44.3558 124.294 44.3999 124.367C44.444 124.44 44.4924 124.523 44.5365 124.596C44.5849 124.679 44.6333 124.762 44.687 124.831C44.7311 124.904 44.7752 124.978 44.8247 125.037C44.8871 125.125 44.9398 125.218 45.0021 125.306C45.0419 125.37 45.0774 125.423 45.1269 125.483C45.2247 125.625 45.3269 125.777 45.4344 125.915C45.4431 125.934 45.457 125.939 45.4656 125.959C45.5818 126.116 45.6979 126.273 45.8194 126.416C45.9851 126.633 46.1603 126.845 46.3453 127.053C46.3862 127.093 46.4174 127.137 46.4582 127.177C46.598 127.335 46.7378 127.493 46.8873 127.647C46.9282 127.687 46.9647 127.717 46.9959 127.761C47.1454 127.915 47.2949 128.069 47.4497 128.209C47.4723 128.234 47.5089 128.264 47.5315 128.289C47.6949 128.448 47.8637 128.594 48.0326 128.739C48.0509 128.754 48.0691 128.769 48.0874 128.784C48.2702 128.935 48.453 129.086 48.6455 129.232C48.6595 129.238 48.6638 129.247 48.6778 129.253C48.8746 129.409 49.0768 129.551 49.2789 129.693C49.2789 129.693 49.2789 129.693 49.2832 129.703C49.4854 129.845 49.6929 129.973 49.9005 130.101C49.965 130.142 50.0252 130.173 50.0897 130.214C50.2328 130.301 50.3758 130.388 50.5285 130.471C50.5704 130.487 50.607 130.518 50.6489 130.534C51.2188 130.825 51.7845 131.107 52.3501 131.389C52.3824 131.41 52.42 131.416 52.4523 131.437C52.6942 131.538 52.9362 131.639 53.1781 131.74C53.2383 131.771 53.3039 131.788 53.3738 131.815C53.6534 131.923 53.933 132.031 54.2222 132.134C54.2739 132.146 54.3201 132.172 54.3717 132.183C54.6287 132.266 54.8857 132.349 55.1427 132.432C55.2126 132.459 55.2782 132.476 55.3578 132.499C55.6664 132.593 55.975 132.688 56.289 132.768C56.4331 132.832 56.6363 132.846 56.8138 132.802Z" fill="#FFCD34"/>
<path d="M52.3461 131.395C52.3741 131.406 52.4022 131.417 52.4346 131.437C52.4022 131.417 52.3644 131.41 52.332 131.39C52.3363 131.399 52.3461 131.395 52.3461 131.395Z" fill="#FFCD34"/>
<path d="M53.3484 131.817C53.2784 131.79 53.2224 131.768 53.1523 131.741C53.218 131.758 53.2784 131.79 53.3484 131.817Z" fill="#FFCD34"/>
<path d="M50.5726 130.513C50.5909 130.528 50.605 130.533 50.6287 130.534C50.5866 130.518 50.5499 130.488 50.5078 130.472C50.5359 130.482 50.5542 130.498 50.5726 130.513Z" fill="#FFCD34"/>
<path d="M43.5884 122.917C43.5582 122.849 43.5184 122.786 43.4883 122.718C43.5281 122.781 43.5582 122.849 43.5884 122.917Z" fill="#FFCD34"/>
<path d="M44.1109 123.88C44.0668 123.807 44.0324 123.73 43.9883 123.656C44.0227 123.734 44.0668 123.807 44.1109 123.88Z" fill="#FFCD34"/>
<path d="M43.841 123.395C43.7969 123.322 43.7668 123.254 43.7227 123.181C43.7571 123.258 43.8012 123.331 43.841 123.395Z" fill="#FFCD34"/>
<path d="M44.3827 124.348C44.3386 124.274 44.2902 124.191 44.2461 124.118C44.2945 124.201 44.3386 124.274 44.3827 124.348Z" fill="#FFCD34"/>
<path d="M45.4092 125.902C45.3016 125.764 45.1995 125.612 45.1016 125.47C45.2038 125.622 45.3016 125.764 45.4092 125.902Z" fill="#FFCD34"/>
<path d="M54.3616 151.138C53.9725 151.671 53.5652 152.19 53.1159 152.692C53.5405 153.257 54.2554 153.588 55.0089 153.484C55.7667 153.39 56.4169 152.845 56.6662 152.154C56.9307 153.115 57.8778 153.761 58.8978 153.631C59.8179 153.511 60.5284 152.788 60.6627 151.916C60.9777 152.808 61.8753 153.395 62.8523 153.273C63.8294 153.151 64.5527 152.352 64.6333 151.411C64.9848 152.229 65.8426 152.752 66.7767 152.638C67.8398 152.5 68.6072 151.566 68.5598 150.52C68.9425 151.278 69.7605 151.737 70.6516 151.63C71.5384 151.513 72.2273 150.846 72.3928 150.018C71.8919 149.673 71.4017 149.299 70.9362 148.903C68.8553 149.958 65.9349 150.819 62.6361 151.245C59.505 151.631 56.6028 151.567 54.3616 151.138Z" fill="#FFCD34"/>
<path d="M57.4848 109.813C65.2453 108.814 71.7869 107.21 74.3482 105.801C74.2396 105.269 74.131 104.737 74.003 104.214C73.9106 103.849 65.7254 103.76 57.4597 104.822C46.1145 106.281 40.2426 108.167 40.2491 108.547C40.2567 109.113 40.2836 109.669 40.3148 110.236C43.2277 110.899 49.8533 110.789 57.4848 109.813Z" fill="#F3BD27"/>
<path d="M72.7812 105.233C72.8554 105.792 66.0206 107.701 57.4401 108.81C48.8595 109.919 41.7665 109.785 41.6923 109.226C41.6181 108.667 48.4831 107.035 57.0776 105.931C65.6721 104.827 72.707 104.674 72.7812 105.233Z" fill="#42340B"/>
<path d="M31.5117 96.4494L34.5222 99.2636L38.6193 98.8071L35.8093 101.825L36.2439 105.938L33.2334 103.124L29.1362 103.58L31.9463 100.563L31.5117 96.4494Z" fill="#FFDF7E"/>
<path d="M41.6688 79.2118L45.3061 82.629L50.2655 82.0783L46.8534 85.724L47.401 90.6927L43.7637 87.2756L38.8043 87.8263L42.2164 84.1805L41.6688 79.2118Z" fill="#FFDF7E"/>
<path d="M55.6193 91.5497L57.6653 93.4704L60.4477 93.1588L58.5299 95.2096L58.8397 97.9971L56.7936 96.0765L54.0113 96.3881L55.9291 94.3373L55.6193 91.5497Z" fill="#FFDF7E"/>
<path d="M53.4014 136.741C53.0907 136.445 53.1687 135.927 53.5573 135.705L57.6763 133.926C58.4535 133.63 59.3081 133.926 59.6963 134.666L62.8795 140.512C63.2676 141.252 62.9565 142.066 62.257 142.436L60.0808 143.4L53.4014 136.741Z" fill="#F29111"/>
</g>
<defs>
<filter id="filter0_d_3034_645" x="106.16" y="38.4966" width="56.2656" height="64.2031" filterUnits="userSpaceOnUse" color-interpolation-filters="sRGB">
<feFlood flood-opacity="0" result="BackgroundImageFix"/>
<feColorMatrix in="SourceAlpha" type="matrix" values="0 0 0 0 0 0 0 0 0 0 0 0 0 0 0 0 0 0 127 0" result="hardAlpha"/>
<feOffset/>
<feGaussianBlur stdDeviation="4"/>
<feComposite in2="hardAlpha" operator="out"/>
<feColorMatrix type="matrix" values="0 0 0 0 0 0 0 0 0 0 0 0 0 0 0 0 0 0 0.25 0"/>
<feBlend mode="normal" in2="BackgroundImageFix" result="effect1_dropShadow_3034_645"/>
<feBlend mode="normal" in="SourceGraphic" in2="effect1_dropShadow_3034_645" result="shape"/>
</filter>
<filter id="filter1_d_3034_645" x="45.3008" y="38.5078" width="56.2891" height="64.1934" filterUnits="userSpaceOnUse" color-interpolation-filters="sRGB">
<feFlood flood-opacity="0" result="BackgroundImageFix"/>
<feColorMatrix in="SourceAlpha" type="matrix" values="0 0 0 0 0 0 0 0 0 0 0 0 0 0 0 0 0 0 127 0" result="hardAlpha"/>
<feOffset/>
<feGaussianBlur stdDeviation="4"/>
<feComposite in2="hardAlpha" operator="out"/>
<feColorMatrix type="matrix" values="0 0 0 0 0 0 0 0 0 0 0 0 0 0 0 0 0 0 0.25 0"/>
<feBlend mode="normal" in2="BackgroundImageFix" result="effect1_dropShadow_3034_645"/>
<feBlend mode="normal" in="SourceGraphic" in2="effect1_dropShadow_3034_645" result="shape"/>
</filter>
<filter id="filter2_d_3034_645" x="53.625" y="61.4722" width="96.8555" height="86.7642" filterUnits="userSpaceOnUse" color-interpolation-filters="sRGB">
<feFlood flood-opacity="0" result="BackgroundImageFix"/>
<feColorMatrix in="SourceAlpha" type="matrix" values="0 0 0 0 0 0 0 0 0 0 0 0 0 0 0 0 0 0 127 0" result="hardAlpha"/>
<feOffset/>
<feGaussianBlur stdDeviation="4"/>
<feComposite in2="hardAlpha" operator="out"/>
<feColorMatrix type="matrix" values="0 0 0 0 0 0 0 0 0 0 0 0 0 0 0 0 0 0 0.25 0"/>
<feBlend mode="normal" in2="BackgroundImageFix" result="effect1_dropShadow_3034_645"/>
<feBlend mode="normal" in="SourceGraphic" in2="effect1_dropShadow_3034_645" result="shape"/>
</filter>
<filter id="filter3_d_3034_645" x="53.625" y="61.4722" width="96.8555" height="86.7642" filterUnits="userSpaceOnUse" color-interpolation-filters="sRGB">
<feFlood flood-opacity="0" result="BackgroundImageFix"/>
<feColorMatrix in="SourceAlpha" type="matrix" values="0 0 0 0 0 0 0 0 0 0 0 0 0 0 0 0 0 0 127 0" result="hardAlpha"/>
<feOffset/>
<feGaussianBlur stdDeviation="4"/>
<feComposite in2="hardAlpha" operator="out"/>
<feColorMatrix type="matrix" values="0 0 0 0 0 0 0 0 0 0 0 0 0 0 0 0 0 0 0.1 0"/>
<feBlend mode="normal" in2="BackgroundImageFix" result="effect1_dropShadow_3034_645"/>
<feBlend mode="normal" in="SourceGraphic" in2="effect1_dropShadow_3034_645" result="shape"/>
</filter>
<filter id="filter4_d_3034_645" x="49.8438" y="120.5" width="114.34" height="39.1333" filterUnits="userSpaceOnUse" color-interpolation-filters="sRGB">
<feFlood flood-opacity="0" result="BackgroundImageFix"/>
<feColorMatrix in="SourceAlpha" type="matrix" values="0 0 0 0 0 0 0 0 0 0 0 0 0 0 0 0 0 0 127 0" result="hardAlpha"/>
<feOffset/>
<feGaussianBlur stdDeviation="4"/>
<feComposite in2="hardAlpha" operator="out"/>
<feColorMatrix type="matrix" values="0 0 0 0 0 0 0 0 0 0 0 0 0 0 0 0 0 0 0.25 0"/>
<feBlend mode="normal" in2="BackgroundImageFix" result="effect1_dropShadow_3034_645"/>
<feBlend mode="normal" in="SourceGraphic" in2="effect1_dropShadow_3034_645" result="shape"/>
</filter>
<clipPath id="clip0_3034_645">
<rect width="146" height="149" fill="white" transform="translate(27 27)"/>
</clipPath>
</defs>
</svg>
