<svg width="200" height="200" viewBox="0 0 200 200" fill="none" xmlns="http://www.w3.org/2000/svg">
<mask id="mask0_2190_22766" style="mask-type:alpha" maskUnits="userSpaceOnUse" x="123" y="123" width="48" height="34">
<path d="M170.399 123.6H123.199V156.8H170.399V123.6Z" fill="url(#paint0_linear_2190_22766)"/>
</mask>
<g mask="url(#mask0_2190_22766)">
<path d="M167.999 133.237C135.159 164.8 139.355 134.6 139.355 124H123.222C122.105 184.733 162.751 143.692 167.999 133.237Z" fill="#A4AFBF" fill-opacity="0.7"/>
</g>
<path d="M52.1173 49.7276C50.8781 58.3008 51.6069 71.5432 52.2173 77.7896L66.4425 66.962C65.1557 55.7 61.6101 48.0504 59.1865 44.406C58.5205 43.3964 57.1561 43.2424 56.1681 43.94L55.6073 44.338C53.7777 45.6324 52.4389 47.5132 52.1173 49.7276Z" fill="url(#paint1_linear_2190_22766)"/>
<path d="M63.6494 54.0351C56.763 47.2555 52.6602 53.9107 51.4922 57.9975C51.8506 49.9207 51.2758 48.1443 55.023 44.7767C58.2906 41.8347 59.437 44.6831 59.871 45.3339C60.2782 45.9299 62.6182 50.6487 63.6494 54.0351Z" fill="#FF9100"/>
<path d="M127.414 124.869C127.501 124.955 127.587 125.041 127.673 125.137C128.529 122.381 129.85 120.083 131.475 118.527C133.09 120.074 134.412 122.355 135.267 125.102C135.345 125.024 135.414 124.946 135.492 124.869C137.297 126.588 138.515 129.801 138.515 133.49C138.515 137.179 137.297 140.384 135.492 142.112C135.215 141.853 134.965 141.551 134.714 141.231C133.885 143.287 132.779 145.015 131.475 146.259C130.161 145.006 129.047 143.261 128.217 141.188C127.967 141.525 127.699 141.844 127.414 142.112C125.609 140.393 124.391 137.179 124.391 133.49C124.391 129.801 125.609 126.597 127.414 124.869Z" fill="#E13017"/>
<path d="M128.345 126.615C128.415 126.675 128.475 126.744 128.544 126.813C129.201 124.697 130.22 122.926 131.464 121.742C132.708 122.926 133.719 124.68 134.375 126.787C134.436 126.727 134.488 126.667 134.548 126.615C135.931 127.937 136.863 130.407 136.863 133.232C136.863 136.057 135.931 138.528 134.548 139.85C134.341 139.651 134.142 139.418 133.952 139.167C133.313 140.748 132.466 142.079 131.464 143.029C130.462 142.07 129.607 140.731 128.967 139.133C128.777 139.392 128.57 139.634 128.354 139.841C126.972 138.519 126.039 136.049 126.039 133.224C126.039 130.399 126.972 127.928 128.354 126.606L128.345 126.615Z" fill="#F2B00A"/>
<path d="M129.152 125.351C129.203 125.394 129.247 125.446 129.299 125.498C129.783 123.926 130.543 122.621 131.458 121.74C132.374 122.621 133.126 123.917 133.618 125.481C133.661 125.437 133.705 125.394 133.748 125.351C134.776 126.327 135.467 128.159 135.467 130.249C135.467 132.34 134.776 134.172 133.748 135.148C133.592 135.001 133.445 134.828 133.307 134.647C132.832 135.822 132.201 136.798 131.467 137.506C130.724 136.798 130.085 135.804 129.618 134.621C129.471 134.811 129.325 134.992 129.16 135.148C128.132 134.172 127.441 132.34 127.441 130.249C127.441 128.159 128.132 126.327 129.16 125.351H129.152Z" fill="#FEDC7A"/>
<path d="M131.451 50.002C131.451 50.002 118 58.9704 118 80.998V116.347H144.902V80.998C144.902 58.9704 131.451 50.002 131.451 50.002Z" fill="#43719F"/>
<path d="M118 80.998V116.347H132.289C132.609 94.7296 131.451 50.002 131.451 50.002C131.451 50.002 118 58.9704 118 80.998Z" fill="#2C4D6D"/>
<path d="M131.451 50.002C131.451 50.002 118 58.9704 118 80.998V116.347H122.38V80.998C122.38 58.9704 131.451 50.002 131.451 50.002Z" fill="#002447"/>
<path d="M131.445 50C131.445 50 144.897 58.9688 144.897 80.996C144.897 103.023 144.897 116.345 144.897 116.345H140.517C140.517 116.345 140.517 103.023 140.517 80.996C140.517 58.9688 131.445 50 131.445 50Z" fill="#AED2E4"/>
<path d="M138.185 130.742H124.725L118.004 116.348H144.906L138.185 130.742Z" fill="#2C4D6D"/>
<path d="M118.004 116.348L124.725 130.742H129.062L122.341 116.348H118.004Z" fill="#002447"/>
<path d="M144.882 116.348L138.161 130.742H133.824L140.545 116.348H144.882Z" fill="#43719F"/>
<mask id="mask1_2190_22766" style="mask-type:alpha" maskUnits="userSpaceOnUse" x="94" y="114" width="84" height="65">
<path d="M178.001 114.4H94.8008V178.4H178.001V114.4Z" fill="url(#paint2_linear_2190_22766)"/>
</mask>
<g mask="url(#mask1_2190_22766)">
<path d="M175.041 138.2C104.841 202.6 112 146.6 110.841 114.4H94.8412C92.8412 223.6 165.641 157 175.041 138.2Z" fill="#A4AFBF" fill-opacity="0.7"/>
</g>
<path d="M99.4142 124.869C99.5006 124.955 99.587 125.041 99.6734 125.137C100.529 122.381 101.85 120.083 103.475 118.527C105.09 120.074 106.412 122.355 107.267 125.102C107.345 125.024 107.414 124.946 107.492 124.869C109.297 126.588 110.515 129.801 110.515 133.49C110.515 137.179 109.297 140.384 107.492 142.112C107.215 141.853 106.965 141.551 106.714 141.231C105.885 143.287 104.779 145.015 103.475 146.259C102.161 145.006 101.047 143.261 100.217 141.188C99.967 141.525 99.699 141.844 99.4142 142.112C97.6086 140.393 96.3906 137.179 96.3906 133.49C96.3906 129.801 97.6086 126.597 99.4142 124.869Z" fill="#E13017"/>
<path d="M100.345 126.615C100.415 126.675 100.475 126.744 100.544 126.813C101.201 124.697 102.22 122.926 103.464 121.742C104.708 122.926 105.719 124.68 106.375 126.787C106.436 126.727 106.488 126.667 106.548 126.615C107.931 127.937 108.863 130.407 108.863 133.232C108.863 136.057 107.931 138.528 106.548 139.85C106.341 139.651 106.142 139.418 105.952 139.167C105.313 140.748 104.466 142.079 103.464 143.029C102.462 142.07 101.607 140.731 100.967 139.133C100.777 139.392 100.57 139.634 100.354 139.841C98.9719 138.519 98.0391 136.049 98.0391 133.224C98.0391 130.399 98.9719 127.928 100.354 126.606L100.345 126.615Z" fill="#F2B00A"/>
<path d="M101.152 125.351C101.203 125.394 101.247 125.446 101.299 125.498C101.783 123.926 102.543 122.621 103.458 121.74C104.374 122.621 105.126 123.917 105.618 125.481C105.661 125.437 105.705 125.394 105.748 125.351C106.776 126.327 107.467 128.159 107.467 130.249C107.467 132.34 106.776 134.172 105.748 135.148C105.592 135.001 105.445 134.828 105.307 134.647C104.832 135.822 104.201 136.798 103.467 137.506C102.724 136.798 102.085 135.804 101.618 134.621C101.471 134.811 101.325 134.992 101.16 135.148C100.132 134.172 99.4414 132.34 99.4414 130.249C99.4414 128.159 100.132 126.327 101.16 125.351H101.152Z" fill="#FEDC7A"/>
<path d="M103.451 50.002C103.451 50.002 90 58.9704 90 80.998V116.347H116.902V80.998C116.902 58.9704 103.451 50.002 103.451 50.002Z" fill="#43719F"/>
<path d="M90 80.998V116.347H104.289C104.609 94.7296 103.451 50.002 103.451 50.002C103.451 50.002 90 58.9704 90 80.998Z" fill="#2C4D6D"/>
<path d="M103.451 50.002C103.451 50.002 90 58.9704 90 80.998V116.347H94.38V80.998C94.38 58.9704 103.451 50.002 103.451 50.002Z" fill="#002447"/>
<path d="M103.445 50C103.445 50 116.897 58.9688 116.897 80.996C116.897 103.023 116.897 116.345 116.897 116.345H112.517C112.517 116.345 112.517 103.023 112.517 80.996C112.517 58.9688 103.445 50 103.445 50Z" fill="#AED2E4"/>
<path d="M110.185 130.742H96.7251L90.0039 116.348H116.906L110.185 130.742Z" fill="#41608C"/>
<path d="M90.0039 116.348L96.7251 130.742H101.062L94.3407 116.348H90.0039Z" fill="#334F77"/>
<path d="M116.882 116.348L110.161 130.742H105.824L112.545 116.348H116.882Z" fill="#82A2D1"/>
<path fill-rule="evenodd" clip-rule="evenodd" d="M119.781 78.0094C129.595 68.3022 144.572 50.5418 148.248 40.4002C148.588 39.4553 148.194 38.4472 147.384 37.8722L147.141 37.7023C144.831 36.0941 141.792 35.9679 139.377 37.4316C129.735 43.257 116.701 51.699 103.173 65.223C97.6024 62.8922 91.3316 61.6398 84.7192 61.7906C62.1972 62.2818 44.2948 78.7226 44.7264 98.5162C45.158 118.31 63.7704 133.963 86.2956 133.483C108.818 132.991 126.72 116.551 126.288 96.757C126.139 89.8306 123.764 83.4138 119.781 78.0094Z" fill="white"/>
<g filter="url(#filter0_d_2190_22766)">
<path d="M117.531 125.87L118.386 131.699C118.489 132.407 118.267 133.117 117.799 133.651L114.123 137.711C113.389 138.528 112.194 138.735 111.223 138.215L91.3715 127.654C90.2819 127.073 89.8107 125.76 90.2863 124.629L90.6655 123.73C91.2787 122.261 92.7763 121.375 94.3655 121.547L115.428 123.839C116.504 123.956 117.366 124.792 117.531 125.87Z" fill="white"/>
<path d="M94.3655 121.546L107.598 122.999L99.1335 131.783L91.3715 127.654C90.2819 127.073 89.8107 125.759 90.2863 124.628L90.6559 123.737C91.2787 122.261 92.7859 121.367 94.3655 121.546Z" fill="#F29111"/>
</g>
<path d="M148.191 40.3802C146.348 44.6726 142.906 51.6702 135.478 60.7262C135.478 60.7262 138.05 49.7914 135.432 47.6346C132.802 45.481 121.547 49.3014 121.547 49.3014C125.973 46.1602 134.146 39.788 140.209 36.9878C142.256 36.0434 144.581 36.3235 146.64 37.2691L147.064 37.465C148.164 37.9743 148.67 39.2618 148.191 40.3802Z" fill="#FF9100"/>
<path d="M148.309 40.2476C144.615 51.0128 129.474 68.9904 119.845 78.0048L117.078 74.6008L147.747 39.9526C148.003 39.6614 148.436 39.8919 148.309 40.2476Z" fill="#E9E6E6"/>
<path d="M101.853 99.2594C102.134 112.028 91.8338 124.997 75.8398 125.347C59.8462 125.698 46.6018 113.235 46.3214 100.466C46.041 87.6974 57.581 77.0942 73.5746 76.7434C89.5798 76.3898 101.57 86.479 101.853 99.2594Z" fill="#35373A"/>
<mask id="mask2_2190_22766" style="mask-type:luminance" maskUnits="userSpaceOnUse" x="70" y="94" width="16" height="11">
<path d="M78.0154 104.17C82.067 104.157 85.3494 100.013 85.3366 94.9219L70.6406 94.9539C70.6562 100.056 73.9534 104.186 78.0154 104.17Z" fill="white"/>
</mask>
<g mask="url(#mask2_2190_22766)">
<path d="M71.9517 94.7693C71.9505 94.3589 71.6877 94.0265 71.3645 94.0273C71.0413 94.0281 70.7801 94.3617 70.7813 94.7721C70.7825 95.1825 71.0453 95.5145 71.3685 95.5137C71.6917 95.5129 71.9529 95.1797 71.9517 94.7693Z" fill="#F29111"/>
<path d="M71.9599 96.6166C71.9587 96.2062 71.6955 95.8742 71.3723 95.875C71.0491 95.8758 70.7879 96.209 70.7891 96.6194C70.7903 97.0298 71.0531 97.3622 71.3767 97.3614C71.6999 97.3606 71.9607 97.027 71.9599 96.6166Z" fill="#F29111"/>
<path d="M71.9599 98.4623C71.9587 98.0519 71.6959 97.7199 71.3727 97.7207C71.0491 97.7215 70.7883 98.0547 70.7891 98.4651C70.7903 98.8759 71.0535 99.2079 71.3767 99.2071C71.6999 99.2063 71.9611 98.8727 71.9599 98.4623Z" fill="#F29111"/>
<path d="M71.9673 100.322C71.9661 99.9117 71.7033 99.5793 71.3801 99.5801C71.0569 99.5809 70.7957 99.9145 70.7969 100.325C70.7981 100.735 71.0609 101.067 71.3841 101.066C71.7073 101.066 71.9685 100.732 71.9673 100.322Z" fill="#F29111"/>
<path d="M76.354 94.765C76.3528 94.3546 76.09 94.0226 75.7668 94.0234C75.4436 94.0242 75.1824 94.3574 75.1836 94.7678C75.1844 95.1782 75.4476 95.5106 75.7708 95.5098C76.094 95.509 76.3552 95.1754 76.354 94.765Z" fill="#F29111"/>
<path d="M76.3657 96.6107C76.3649 96.2003 76.1017 95.8683 75.7785 95.8691C75.4553 95.8699 75.1941 96.2031 75.1953 96.6135C75.1965 97.0243 75.4593 97.3563 75.7825 97.3555C76.1057 97.3547 76.3669 97.0211 76.3657 96.6107Z" fill="#F29111"/>
<path d="M76.3622 98.4584C76.361 98.048 76.0978 97.716 75.7746 97.7168C75.4514 97.7176 75.1902 98.0512 75.1914 98.4616C75.1926 98.872 75.4554 99.204 75.779 99.2032C76.1022 99.2024 76.363 98.8692 76.3622 98.4584Z" fill="#F29111"/>
<path d="M76.3735 100.305C76.3723 99.8937 76.1095 99.5617 75.7863 99.5625C75.4627 99.5633 75.2019 99.8969 75.2031 100.307C75.2039 100.718 75.4671 101.05 75.7903 101.049C76.1135 101.048 76.3747 100.715 76.3735 100.305Z" fill="#F29111"/>
<path d="M80.7681 94.7494C80.7669 94.339 80.5041 94.007 80.1809 94.0078C79.8577 94.0086 79.5965 94.3418 79.5977 94.7522C79.5989 95.1626 79.8617 95.495 80.1849 95.4942C80.5081 95.4934 80.7693 95.1598 80.7681 94.7494Z" fill="#F29111"/>
<path d="M80.7681 96.5951C80.7669 96.1847 80.5041 95.8527 80.1809 95.8535C79.8577 95.8543 79.5965 96.1875 79.5977 96.5979C79.5989 97.0087 79.8617 97.3407 80.1849 97.3399C80.5081 97.3391 80.7693 97.0055 80.7681 96.5951Z" fill="#F29111"/>
<path d="M80.7763 98.4428C80.7751 98.0324 80.5123 97.7004 80.1887 97.7012C79.8655 97.702 79.6047 98.0352 79.6055 98.446C79.6067 98.8564 79.8699 99.1884 80.1931 99.1876C80.5163 99.1868 80.7775 98.8536 80.7763 98.4428Z" fill="#F29111"/>
<path d="M80.7763 100.289C80.7751 99.8781 80.5123 99.5461 80.1887 99.5469C79.8655 99.5477 79.6047 99.8813 79.6055 100.292C79.6067 100.702 79.8699 101.034 80.1931 101.033C80.5163 101.032 80.7775 100.699 80.7763 100.289Z" fill="#F29111"/>
<path d="M85.1704 94.7435C85.1692 94.3331 84.9064 94.0012 84.5832 94.002C84.26 94.0028 83.9988 94.336 84 94.7464C84.0012 95.1572 84.264 95.4892 84.5872 95.4884C84.9104 95.4876 85.1716 95.1539 85.1704 94.7435Z" fill="#F29111"/>
<path d="M85.1786 96.5912C85.1774 96.1808 84.9142 95.8488 84.591 95.8496C84.2678 95.8504 84.0066 96.184 84.0078 96.5944C84.009 97.0048 84.2718 97.3368 84.595 97.336C84.9186 97.3352 85.1794 97.002 85.1786 96.5912Z" fill="#F29111"/>
<path d="M85.1786 98.4373C85.1774 98.0269 84.9142 97.6945 84.591 97.6953C84.2678 97.6961 84.0066 98.0297 84.0078 98.4401C84.009 98.8505 84.2718 99.1825 84.595 99.1817C84.9186 99.1809 85.1794 98.8477 85.1786 98.4373Z" fill="#F29111"/>
<path d="M85.1899 100.283C85.1887 99.8726 84.9259 99.5402 84.6027 99.541C84.2795 99.5418 84.0183 99.8754 84.0195 100.286C84.0203 100.696 84.2835 101.029 84.6067 101.028C84.9299 101.027 85.1911 100.693 85.1899 100.283Z" fill="#F29111"/>
<path d="M73.4126 94.7674C73.4118 94.357 73.1486 94.0246 72.8254 94.0254C72.5022 94.0262 72.241 94.3598 72.2422 94.7702C72.2434 95.1806 72.5062 95.5126 72.8294 95.5118C73.1526 95.5114 73.4138 95.1778 73.4126 94.7674Z" fill="#F29111"/>
<path d="M73.4243 96.6146C73.4231 96.2042 73.1603 95.8722 72.8371 95.873C72.5135 95.8738 72.2527 96.2071 72.2539 96.6175C72.2547 97.0279 72.5179 97.3602 72.8411 97.3594C73.1643 97.3586 73.4255 97.025 73.4243 96.6146Z" fill="#F29111"/>
<path d="M73.4321 98.4604C73.4313 98.05 73.1681 97.718 72.8449 97.7188C72.5217 97.7196 72.2605 98.0528 72.2617 98.4636C72.2629 98.874 72.5257 99.206 72.8489 99.2052C73.1721 99.2044 73.4333 98.8708 73.4321 98.4604Z" fill="#F29111"/>
<path d="M73.4321 100.306C73.4313 99.8957 73.1681 99.5637 72.8449 99.5645C72.5217 99.5653 72.2605 99.8989 72.2617 100.309C72.2629 100.72 72.5257 101.052 72.8489 101.051C73.1721 101.05 73.4333 100.717 73.4321 100.306Z" fill="#F29111"/>
<path d="M77.831 94.7631C77.8298 94.3527 77.5666 94.0207 77.2434 94.0215C76.9202 94.0223 76.659 94.3555 76.6602 94.7659C76.6614 95.1767 76.9242 95.5087 77.2474 95.5079C77.571 95.5071 77.8318 95.1735 77.831 94.7631Z" fill="#F29111"/>
<path d="M77.8271 96.6088C77.8259 96.1984 77.563 95.8664 77.2394 95.8672C76.9162 95.868 76.6555 96.2012 76.6563 96.612C76.6575 97.0224 76.9206 97.3544 77.2438 97.3536C77.567 97.3528 77.8283 97.0196 77.8271 96.6088Z" fill="#F29111"/>
<path d="M77.8384 98.4568C77.8372 98.046 77.5744 97.714 77.2512 97.7148C76.928 97.7156 76.6668 98.0492 76.668 98.4596C76.6688 98.87 76.932 99.202 77.2552 99.2012C77.5784 99.2004 77.8396 98.8672 77.8384 98.4568Z" fill="#F29111"/>
<path d="M77.8345 100.303C77.8333 99.8921 77.5705 99.5597 77.2473 99.5605C76.9241 99.5613 76.6629 99.8949 76.6641 100.305C76.6653 100.716 76.9281 101.048 77.2513 101.047C77.5745 101.046 77.8357 100.713 77.8345 100.303Z" fill="#F29111"/>
<path d="M82.2329 94.7475C82.2321 94.3371 81.9689 94.0051 81.6457 94.0059C81.3225 94.0067 81.0613 94.3399 81.0625 94.7503C81.0637 95.1611 81.3265 95.4931 81.6497 95.4923C81.9729 95.4915 82.2341 95.1579 82.2329 94.7475Z" fill="#F29111"/>
<path d="M82.2411 96.5932C82.2399 96.1828 81.9771 95.8508 81.6535 95.8516C81.3303 95.8524 81.0695 96.1856 81.0703 96.5964C81.0715 97.0068 81.3347 97.3388 81.6579 97.338C81.9811 97.3372 82.2423 97.0036 82.2411 96.5932Z" fill="#F29111"/>
<path d="M82.2407 98.4393C82.2395 98.0285 81.9767 97.6965 81.6535 97.6973C81.3303 97.6981 81.0691 98.0317 81.0703 98.4421C81.0711 98.8525 81.3343 99.1845 81.6575 99.1837C81.9807 99.1829 82.2419 98.8497 82.2407 98.4393Z" fill="#F29111"/>
<path d="M82.2524 100.287C82.2512 99.8765 81.9884 99.5441 81.6652 99.5449C81.342 99.5457 81.0808 99.8793 81.082 100.29C81.0832 100.7 81.346 101.032 81.6692 101.031C81.9924 101.031 82.2536 100.697 82.2524 100.287Z" fill="#F29111"/>
<path d="M74.8892 94.7674C74.888 94.357 74.6252 94.0246 74.302 94.0254C73.9788 94.0262 73.7176 94.3598 73.7188 94.7702C73.7196 95.1806 73.9828 95.513 74.306 95.5122C74.6292 95.5114 74.8904 95.1778 74.8892 94.7674Z" fill="#F29111"/>
<path d="M74.8892 96.6127C74.888 96.2023 74.6252 95.8703 74.302 95.8711C73.9788 95.8719 73.7176 96.2051 73.7188 96.6155C73.7196 97.0263 73.9828 97.3583 74.306 97.3575C74.6292 97.3567 74.8904 97.0231 74.8892 96.6127Z" fill="#F29111"/>
<path d="M74.897 98.4584C74.8962 98.048 74.633 97.716 74.3098 97.7168C73.9866 97.7176 73.7254 98.0508 73.7266 98.4616C73.7278 98.872 73.9906 99.204 74.3138 99.2032C74.637 99.2024 74.8982 98.8692 74.897 98.4584Z" fill="#F29111"/>
<path d="M74.9091 100.306C74.9079 99.8957 74.6451 99.5637 74.3219 99.5645C73.9983 99.5653 73.7375 99.8989 73.7383 100.309C73.7395 100.72 74.0027 101.052 74.3259 101.051C74.6491 101.05 74.9103 100.717 74.9091 100.306Z" fill="#F29111"/>
<path d="M79.2919 94.7611C79.2907 94.3507 79.0279 94.0187 78.7043 94.0195C78.3811 94.0203 78.1203 94.3535 78.1211 94.7639C78.1223 95.1747 78.3855 95.5067 78.7087 95.5059C79.0319 95.5051 79.2931 95.1715 79.2919 94.7611Z" fill="#F29111"/>
<path d="M79.3032 96.6068C79.302 96.1964 79.0392 95.8644 78.716 95.8652C78.3928 95.866 78.1316 96.1996 78.1328 96.61C78.134 97.0204 78.3968 97.3524 78.72 97.3516C79.0432 97.3508 79.3044 97.0176 79.3032 96.6068Z" fill="#F29111"/>
<path d="M79.3032 98.4549C79.302 98.0441 79.0392 97.7121 78.716 97.7129C78.3928 97.7137 78.1316 98.0473 78.1328 98.4577C78.134 98.8681 78.3968 99.2001 78.72 99.1993C79.0432 99.1985 79.3044 98.8653 79.3032 98.4549Z" fill="#F29111"/>
<path d="M79.3114 100.301C79.3102 99.8902 79.047 99.5578 78.7238 99.5586C78.4006 99.5594 78.1394 99.893 78.1406 100.303C78.1418 100.714 78.4046 101.046 78.7282 101.045C79.0514 101.045 79.3122 100.711 79.3114 100.301Z" fill="#F29111"/>
<path d="M83.7099 94.7455C83.7087 94.3351 83.4459 94.0031 83.1227 94.0039C82.7991 94.0047 82.5383 94.3379 82.5391 94.7483C82.5403 95.1591 82.8035 95.4911 83.1267 95.4903C83.4499 95.4895 83.7111 95.1559 83.7099 94.7455Z" fill="#F29111"/>
<path d="M83.7056 96.5912C83.7044 96.1808 83.4416 95.8488 83.1184 95.8496C82.7952 95.8504 82.534 96.184 82.5352 96.5944C82.536 97.0048 82.7992 97.3368 83.1224 97.336C83.4456 97.3352 83.7068 97.002 83.7056 96.5912Z" fill="#F29111"/>
<path d="M83.7134 98.4393C83.7126 98.0285 83.4494 97.6965 83.1262 97.6973C82.803 97.6981 82.5418 98.0317 82.543 98.4421C82.5442 98.8525 82.807 99.1845 83.1302 99.1837C83.4538 99.1829 83.7146 98.8497 83.7134 98.4393Z" fill="#F29111"/>
<path d="M83.7134 100.285C83.7126 99.8746 83.4494 99.5422 83.1262 99.543C82.803 99.5438 82.5418 99.8774 82.543 100.288C82.5442 100.698 82.807 101.03 83.1302 101.029C83.4534 101.029 83.7146 100.695 83.7134 100.285Z" fill="#F29111"/>
<path d="M71.9673 102.168C71.9661 101.757 71.7033 101.425 71.3801 101.426C71.0569 101.427 70.7957 101.76 70.7969 102.171C70.7981 102.581 71.0609 102.913 71.3841 102.913C71.7073 102.912 71.9685 102.578 71.9673 102.168Z" fill="#F29111"/>
<path d="M71.9755 104.013C71.9743 103.603 71.7115 103.271 71.3879 103.271C71.0647 103.272 70.8039 103.605 70.8047 104.016C70.8059 104.426 71.0691 104.759 71.3923 104.758C71.7155 104.757 71.9767 104.423 71.9755 104.013Z" fill="#F29111"/>
<path d="M76.3813 102.15C76.3805 101.74 76.1173 101.407 75.7941 101.408C75.4709 101.409 75.2097 101.743 75.2109 102.153C75.2121 102.563 75.4749 102.896 75.7981 102.895C76.1213 102.894 76.3825 102.561 76.3813 102.15Z" fill="#F29111"/>
<path d="M76.3817 103.997C76.3805 103.587 76.1173 103.255 75.7941 103.256C75.4709 103.257 75.2097 103.59 75.2109 104C75.2121 104.411 75.4749 104.743 75.7981 104.742C76.1217 104.741 76.3825 104.408 76.3817 103.997Z" fill="#F29111"/>
<path d="M80.7876 102.146C80.7864 101.735 80.5236 101.403 80.2004 101.404C79.8772 101.405 79.616 101.738 79.6172 102.149C79.6184 102.559 79.8812 102.891 80.2044 102.891C80.5276 102.89 80.7888 102.556 80.7876 102.146Z" fill="#F29111"/>
<path d="M80.7958 103.994C80.7946 103.583 80.5314 103.251 80.2082 103.252C79.885 103.253 79.6238 103.586 79.625 103.997C79.6262 104.407 79.889 104.739 80.2126 104.738C80.5358 104.738 80.7966 104.404 80.7958 103.994Z" fill="#F29111"/>
<path d="M85.1899 102.13C85.1887 101.72 84.9259 101.388 84.6027 101.389C84.2795 101.389 84.0183 101.723 84.0195 102.133C84.0203 102.544 84.2835 102.876 84.6067 102.875C84.9299 102.874 85.1911 102.541 85.1899 102.13Z" fill="#F29111"/>
<path d="M85.1977 103.976C85.1969 103.566 84.9338 103.234 84.6106 103.234C84.2874 103.235 84.0261 103.568 84.0273 103.979C84.0285 104.39 84.2913 104.722 84.6145 104.721C84.9377 104.72 85.1989 104.386 85.1977 103.976Z" fill="#F29111"/>
<path d="M73.4442 102.154C73.443 101.744 73.1802 101.411 72.8566 101.412C72.5334 101.413 72.2726 101.747 72.2734 102.157C72.2746 102.567 72.5378 102.899 72.861 102.899C73.1842 102.898 73.4454 102.565 73.4442 102.154Z" fill="#F29111"/>
<path d="M73.4442 104.011C73.443 103.601 73.1802 103.269 72.8566 103.27C72.5334 103.27 72.2726 103.604 72.2734 104.014C72.2746 104.425 72.5378 104.757 72.861 104.756C73.1842 104.755 73.4454 104.422 73.4442 104.011Z" fill="#F29111"/>
<path d="M77.8466 102.15C77.8454 101.739 77.5822 101.407 77.259 101.408C76.9358 101.409 76.6746 101.742 76.6758 102.153C76.677 102.563 76.9398 102.895 77.263 102.895C77.5866 102.894 77.8474 102.56 77.8466 102.15Z" fill="#F29111"/>
<path d="M77.8583 103.996C77.8571 103.585 77.5943 103.253 77.2711 103.254C76.9475 103.255 76.6867 103.588 76.6875 103.998C76.6887 104.409 76.9519 104.741 77.2751 104.74C77.5983 104.74 77.8595 104.406 77.8583 103.996Z" fill="#F29111"/>
<path d="M82.2485 102.133C82.2477 101.722 81.9845 101.39 81.6613 101.391C81.3381 101.391 81.0769 101.725 81.0781 102.135C81.0793 102.546 81.3421 102.878 81.6653 102.877C81.9885 102.877 82.2497 102.543 82.2485 102.133Z" fill="#F29111"/>
<path d="M82.2567 103.98C82.2555 103.569 81.9927 103.237 81.6695 103.238C81.3459 103.239 81.0851 103.572 81.0859 103.983C81.0871 104.393 81.3503 104.725 81.6735 104.725C81.9967 104.724 82.2579 104.39 82.2567 103.98Z" fill="#F29111"/>
<path d="M74.9091 102.154C74.9079 101.744 74.6451 101.411 74.3219 101.412C73.9983 101.413 73.7375 101.747 73.7383 102.157C73.7395 102.567 74.0027 102.899 74.3259 102.899C74.6491 102.898 74.9103 102.565 74.9091 102.154Z" fill="#F29111"/>
<path d="M74.9165 103.999C74.9153 103.589 74.6525 103.257 74.3293 103.258C74.0061 103.259 73.7449 103.592 73.7461 104.002C73.7473 104.413 74.0101 104.745 74.3333 104.744C74.6565 104.743 74.9177 104.41 74.9165 103.999Z" fill="#F29111"/>
<path d="M79.3188 102.148C79.3176 101.737 79.0548 101.405 78.7316 101.406C78.4084 101.407 78.1472 101.74 78.1484 102.151C78.1496 102.561 78.4124 102.893 78.7356 102.893C79.0588 102.892 79.32 102.558 79.3188 102.148Z" fill="#F29111"/>
<path d="M79.3188 103.994C79.3176 103.583 79.0548 103.251 78.7316 103.252C78.4084 103.253 78.1472 103.586 78.1484 103.996C78.1496 104.407 78.4124 104.739 78.7356 104.738C79.0588 104.738 79.32 104.404 79.3188 103.994Z" fill="#F29111"/>
<path d="M83.7251 102.13C83.7239 101.72 83.4611 101.388 83.1379 101.389C82.8143 101.389 82.5535 101.723 82.5547 102.133C82.5555 102.543 82.8187 102.876 83.1419 102.875C83.4651 102.874 83.7263 102.541 83.7251 102.13Z" fill="#F29111"/>
<path d="M83.7251 103.978C83.7239 103.568 83.4611 103.236 83.1379 103.236C82.8147 103.237 82.5535 103.57 82.5547 103.981C82.5555 104.392 82.8187 104.724 83.1419 104.723C83.4651 104.722 83.7263 104.388 83.7251 103.978Z" fill="#F29111"/>
</g>
<mask id="mask3_2190_22766" style="mask-type:luminance" maskUnits="userSpaceOnUse" x="51" y="94" width="13" height="11">
<path d="M57.7423 104.207C61.1547 104.201 63.9023 100.061 63.8867 94.959L51.5547 94.987C51.5595 100.092 54.3295 104.212 57.7423 104.207Z" fill="white"/>
</mask>
<g mask="url(#mask3_2190_22766)">
<path d="M52.651 94.8045C52.6498 94.3941 52.427 94.0617 52.1534 94.0625C51.8802 94.0633 51.6594 94.3965 51.6602 94.8069C51.6614 95.2173 51.8842 95.5497 52.1578 95.5489C52.431 95.5481 52.6518 95.2149 52.651 94.8045Z" fill="#F29111"/>
<path d="M52.6584 96.6615C52.6572 96.2511 52.4348 95.9191 52.1612 95.9199C51.8876 95.9203 51.6668 96.2535 51.668 96.6643C51.6692 97.0747 51.8916 97.4067 52.1652 97.4063C52.4388 97.4055 52.6596 97.0723 52.6584 96.6615Z" fill="#F29111"/>
<path d="M52.6584 98.5096C52.6572 98.0992 52.4348 97.7668 52.1612 97.7676C51.8876 97.768 51.6668 98.1016 51.668 98.512C51.6692 98.9224 51.8916 99.2544 52.1652 99.254C52.4388 99.2532 52.6596 98.92 52.6584 98.5096Z" fill="#F29111"/>
<path d="M52.6666 100.355C52.6654 99.9449 52.4426 99.6125 52.169 99.6133C51.8958 99.6141 51.675 99.9473 51.6758 100.358C51.677 100.768 51.8998 101.1 52.1734 101.1C52.4466 101.099 52.6674 100.766 52.6666 100.355Z" fill="#F29111"/>
<path d="M56.3459 94.8045C56.3447 94.3941 56.1219 94.0617 55.8487 94.0625C55.5751 94.0633 55.3543 94.3965 55.3555 94.8069C55.3563 95.2173 55.5791 95.5497 55.8527 95.5489C56.1259 95.5481 56.3471 95.2149 56.3459 94.8045Z" fill="#F29111"/>
<path d="M56.3576 96.6502C56.3564 96.2398 56.134 95.9074 55.8604 95.9082C55.5868 95.909 55.366 96.2422 55.3672 96.6526C55.3684 97.063 55.5908 97.3954 55.8644 97.3946C56.138 97.3942 56.3588 97.0606 56.3576 96.6502Z" fill="#F29111"/>
<path d="M56.3576 98.4959C56.3564 98.0855 56.134 97.7535 55.8604 97.7539C55.5868 97.7547 55.366 98.0879 55.3672 98.4983C55.3684 98.9091 55.5908 99.2411 55.8644 99.2403C56.138 99.2399 56.3588 98.9067 56.3576 98.4959Z" fill="#F29111"/>
<path d="M56.3658 100.344C56.3646 99.9328 56.1418 99.6008 55.8682 99.6016C55.595 99.602 55.3742 99.9352 55.375 100.346C55.3762 100.756 55.599 101.088 55.8726 101.088C56.1458 101.087 56.3666 100.754 56.3658 100.344Z" fill="#F29111"/>
<path d="M60.0529 94.7928C60.0517 94.382 59.8293 94.05 59.5557 94.0508C59.2821 94.0512 59.0613 94.3848 59.0625 94.7952C59.0637 95.2056 59.2865 95.5376 59.5597 95.5372C59.8333 95.5364 60.0541 95.2032 60.0529 94.7928Z" fill="#F29111"/>
<path d="M60.0529 96.6404C60.0517 96.23 59.8293 95.8976 59.5557 95.8984C59.2821 95.8988 59.0613 96.2324 59.0625 96.6428C59.0637 97.0532 59.2865 97.3856 59.5597 97.3848C59.8333 97.384 60.0541 97.0508 60.0529 96.6404Z" fill="#F29111"/>
<path d="M60.0646 98.4861C60.0634 98.0757 59.8406 97.7433 59.5674 97.7441C59.2938 97.7449 59.073 98.0781 59.0742 98.4885C59.075 98.8989 59.2978 99.2313 59.5714 99.2305C59.845 99.2297 60.0658 98.8965 60.0646 98.4861Z" fill="#F29111"/>
<path d="M60.0646 100.332C60.0634 99.9214 59.8406 99.5894 59.5674 99.5898C59.2938 99.5906 59.073 99.9238 59.0742 100.334C59.075 100.745 59.2978 101.077 59.5714 101.076C59.845 101.076 60.0658 100.742 60.0646 100.332Z" fill="#F29111"/>
<path d="M63.7525 94.7811C63.7513 94.3707 63.5285 94.0387 63.2549 94.0391C62.9817 94.0399 62.7609 94.3731 62.7617 94.7835C62.7629 95.1943 62.9857 95.5263 63.2593 95.5255C63.5325 95.5251 63.7533 95.1915 63.7525 94.7811Z" fill="#F29111"/>
<path d="M63.7525 96.6283C63.7513 96.2179 63.5285 95.8859 63.2549 95.8867C62.9817 95.8871 62.7609 96.2203 62.7617 96.6311C62.7629 97.0415 62.9857 97.3735 63.2593 97.3731C63.5325 97.3723 63.7533 97.0391 63.7525 96.6283Z" fill="#F29111"/>
<path d="M63.7599 98.4744C63.7587 98.064 63.5363 97.7316 63.2627 97.7324C62.9891 97.7328 62.7683 98.0664 62.7695 98.4768C62.7707 98.8872 62.9931 99.2196 63.2667 99.2188C63.5403 99.218 63.7611 98.8848 63.7599 98.4744Z" fill="#F29111"/>
<path d="M63.7677 100.32C63.7669 99.9097 63.5441 99.5773 63.2705 99.5781C62.9969 99.5789 62.7761 99.9121 62.7773 100.323C62.7785 100.733 63.0013 101.065 63.2745 101.065C63.5481 101.064 63.7689 100.731 63.7677 100.32Z" fill="#F29111"/>
<path d="M53.8814 94.8104C53.8802 94.3996 53.6574 94.0676 53.3838 94.0684C53.1106 94.0688 52.8898 94.402 52.8906 94.8128C52.8918 95.2232 53.1146 95.5552 53.3882 95.5548C53.6614 95.554 53.8822 95.2208 53.8814 94.8104Z" fill="#F29111"/>
<path d="M53.8927 96.658C53.8915 96.2476 53.6691 95.9152 53.3955 95.916C53.1219 95.9164 52.9011 96.25 52.9023 96.6604C52.9035 97.0708 53.126 97.4028 53.3996 97.4024C53.6732 97.4016 53.8939 97.0684 53.8927 96.658Z" fill="#F29111"/>
<path d="M53.8927 98.5037C53.8915 98.0933 53.6691 97.7609 53.3955 97.7617C53.1219 97.7625 52.9011 98.0957 52.9023 98.5061C52.9035 98.9165 53.126 99.2489 53.3996 99.2481C53.6732 99.2473 53.8939 98.9141 53.8927 98.5037Z" fill="#F29111"/>
<path d="M53.901 100.351C53.8998 99.941 53.677 99.6086 53.4034 99.6094C53.1302 99.6102 52.9094 99.9434 52.9102 100.354C52.9114 100.764 53.1342 101.097 53.4078 101.096C53.681 101.095 53.9018 100.762 53.901 100.351Z" fill="#F29111"/>
<path d="M57.5802 94.8006C57.579 94.3902 57.3562 94.0582 57.083 94.0586C56.8094 94.0594 56.5886 94.3926 56.5898 94.803C56.5906 95.2134 56.8134 95.5458 57.087 95.545C57.3606 95.5446 57.5814 95.211 57.5802 94.8006Z" fill="#F29111"/>
<path d="M57.5881 96.6463C57.5869 96.2359 57.3645 95.9039 57.0909 95.9043C56.8173 95.9051 56.5965 96.2383 56.5977 96.6487C56.5989 97.0595 56.8213 97.3915 57.0949 97.3907C57.3685 97.3903 57.5893 97.0571 57.5881 96.6463Z" fill="#F29111"/>
<path d="M57.5959 98.494C57.5947 98.0832 57.3719 97.7512 57.0987 97.752C56.8251 97.7524 56.6043 98.086 56.6055 98.4964C56.6063 98.9068 56.8291 99.2388 57.1027 99.2384C57.3759 99.2376 57.5971 98.9044 57.5959 98.494Z" fill="#F29111"/>
<path d="M57.5959 100.34C57.5947 99.9293 57.3719 99.5969 57.0983 99.5977C56.8251 99.5985 56.6043 99.9317 56.6055 100.342C56.6063 100.752 56.8291 101.085 57.1027 101.084C57.3759 101.083 57.5971 100.75 57.5959 100.34Z" fill="#F29111"/>
<path d="M61.2873 94.7889C61.2861 94.3785 61.0637 94.0461 60.7901 94.0469C60.5165 94.0477 60.2957 94.3809 60.2969 94.7913C60.2981 95.2017 60.5209 95.5341 60.7941 95.5333C61.0677 95.5325 61.2885 95.1993 61.2873 94.7889Z" fill="#F29111"/>
<path d="M61.2834 96.6365C61.2826 96.2261 61.0598 95.8937 60.7862 95.8945C60.5126 95.8953 60.2918 96.2285 60.293 96.6389C60.2942 97.0493 60.517 97.3817 60.7902 97.3809C61.0638 97.3801 61.2846 97.0469 61.2834 96.6365Z" fill="#F29111"/>
<path d="M61.299 98.4822C61.2978 98.0718 61.075 97.7398 60.8018 97.7402C60.5282 97.741 60.3074 98.0742 60.3086 98.4846C60.3094 98.8954 60.5322 99.2274 60.8058 99.2266C61.079 99.2262 61.3002 98.8926 61.299 98.4822Z" fill="#F29111"/>
<path d="M61.2951 100.328C61.2939 99.9175 61.0711 99.5855 60.7979 99.5859C60.5243 99.5867 60.3035 99.9199 60.3047 100.331C60.3059 100.741 60.5283 101.073 60.8019 101.073C61.0755 101.072 61.2963 100.739 61.2951 100.328Z" fill="#F29111"/>
<path d="M55.1115 94.8084C55.1103 94.398 54.8875 94.0656 54.6143 94.0664C54.3407 94.0668 54.1199 94.4004 54.1211 94.8108C54.1219 95.2212 54.3447 95.5532 54.6183 95.5528C54.8919 95.552 55.1127 95.2188 55.1115 94.8084Z" fill="#F29111"/>
<path d="M55.1271 96.6541C55.1259 96.2437 54.9035 95.9113 54.6299 95.9121C54.3563 95.9129 54.1355 96.2461 54.1367 96.6565C54.1379 97.0669 54.3603 97.3993 54.6339 97.3985C54.9075 97.3977 55.1283 97.0645 55.1271 96.6541Z" fill="#F29111"/>
<path d="M55.1232 98.4998C55.122 98.0894 54.8996 97.757 54.626 97.7578C54.3524 97.7586 54.1316 98.0918 54.1328 98.5022C54.134 98.9126 54.3564 99.245 54.63 99.2442C54.9036 99.2438 55.1244 98.9102 55.1232 98.4998Z" fill="#F29111"/>
<path d="M55.1314 100.347C55.1302 99.9371 54.9074 99.6051 54.6338 99.6055C54.3606 99.6063 54.1398 99.9395 54.1406 100.35C54.1418 100.761 54.3646 101.093 54.6382 101.092C54.9114 101.091 55.1322 100.758 55.1314 100.347Z" fill="#F29111"/>
<path d="M58.8224 94.7967C58.8212 94.3863 58.5988 94.0543 58.3252 94.0547C58.0516 94.0555 57.8308 94.3887 57.832 94.7991C57.8332 95.2099 58.0556 95.5419 58.3292 95.5411C58.6028 95.5407 58.8236 95.2075 58.8224 94.7967Z" fill="#F29111"/>
<path d="M58.8224 96.6424C58.8212 96.2316 58.5988 95.8996 58.3252 95.9004C58.0516 95.9008 57.8308 96.2344 57.832 96.6448C57.8332 97.0552 58.0556 97.3872 58.3292 97.3868C58.6028 97.386 58.8236 97.0528 58.8224 96.6424Z" fill="#F29111"/>
<path d="M58.8306 98.49C58.8294 98.0796 58.6066 97.7472 58.333 97.748C58.0598 97.7484 57.839 98.082 57.8398 98.4924C57.841 98.9028 58.0638 99.2352 58.3374 99.2344C58.6106 99.2336 58.8314 98.9004 58.8306 98.49Z" fill="#F29111"/>
<path d="M58.8302 100.336C58.829 99.9254 58.6062 99.593 58.333 99.5938C58.0594 99.5946 57.8386 99.9278 57.8398 100.338C57.8406 100.749 58.0634 101.081 58.337 101.08C58.6106 101.079 58.8314 100.746 58.8302 100.336Z" fill="#F29111"/>
<path d="M62.5177 94.785C62.5169 94.3746 62.2941 94.0422 62.0205 94.043C61.7469 94.0438 61.5261 94.377 61.5273 94.7874C61.5285 95.1978 61.7513 95.5302 62.0245 95.5294C62.2981 95.5286 62.5189 95.1954 62.5177 94.785Z" fill="#F29111"/>
<path d="M62.5177 96.6326C62.5169 96.2222 62.2941 95.8902 62.0205 95.8906C61.7469 95.8914 61.5261 96.2246 61.5273 96.635C61.5285 97.0458 61.7513 97.3778 62.0245 97.377C62.2981 97.3766 62.5189 97.043 62.5177 96.6326Z" fill="#F29111"/>
<path d="M62.5295 98.4779C62.5283 98.0675 62.3055 97.7355 62.0323 97.7363C61.7587 97.7367 61.5379 98.0699 61.5391 98.4807C61.5399 98.8911 61.7627 99.2231 62.0363 99.2227C62.3099 99.2219 62.5307 98.8887 62.5295 98.4779Z" fill="#F29111"/>
<path d="M62.5295 100.326C62.5283 99.9156 62.3055 99.5832 62.0323 99.584C61.7587 99.5844 61.5379 99.918 61.5391 100.328C61.5399 100.739 61.7627 101.071 62.0363 101.07C62.3099 101.07 62.5307 100.736 62.5295 100.326Z" fill="#F29111"/>
<path d="M52.6666 102.201C52.6654 101.791 52.4426 101.458 52.169 101.459C51.8958 101.46 51.675 101.793 51.6758 102.203C51.677 102.614 51.8998 102.946 52.1734 102.945C52.4466 102.945 52.6674 102.611 52.6666 102.201Z" fill="#F29111"/>
<path d="M52.674 104.049C52.6728 103.638 52.4504 103.306 52.1768 103.307C51.9032 103.307 51.6824 103.641 51.6836 104.051C51.6848 104.462 51.9072 104.794 52.1808 104.793C52.4544 104.793 52.6752 104.459 52.674 104.049Z" fill="#F29111"/>
<path d="M56.3771 102.189C56.3759 101.779 56.1535 101.446 55.8799 101.447C55.6063 101.448 55.3855 101.781 55.3867 102.192C55.3879 102.602 55.6103 102.934 55.8839 102.934C56.1575 102.933 56.3783 102.6 56.3771 102.189Z" fill="#F29111"/>
<path d="M56.3771 104.037C56.3759 103.627 56.1535 103.294 55.8799 103.295C55.6063 103.296 55.3855 103.629 55.3867 104.039C55.3879 104.45 55.6103 104.782 55.8839 104.781C56.1575 104.781 56.3783 104.447 56.3771 104.037Z" fill="#F29111"/>
<path d="M60.0724 102.179C60.0712 101.769 59.8488 101.437 59.5752 101.438C59.3016 101.438 59.0808 101.772 59.082 102.182C59.0832 102.593 59.3056 102.925 59.5792 102.924C59.8528 102.923 60.0736 102.59 60.0724 102.179Z" fill="#F29111"/>
<path d="M60.0724 104.025C60.0712 103.614 59.8488 103.282 59.5752 103.283C59.3016 103.284 59.0808 103.617 59.082 104.028C59.0832 104.438 59.3056 104.77 59.5792 104.77C59.8528 104.769 60.0736 104.436 60.0724 104.025Z" fill="#F29111"/>
<path d="M63.7677 102.168C63.7669 101.757 63.5441 101.425 63.2705 101.426C62.9969 101.427 62.7761 101.76 62.7773 102.17C62.7785 102.581 63.0013 102.913 63.2745 102.912C63.5481 102.912 63.7689 102.578 63.7677 102.168Z" fill="#F29111"/>
<path d="M63.7795 104.013C63.7783 103.603 63.5555 103.271 63.2823 103.271C63.0087 103.272 62.7879 103.605 62.7891 104.016C62.7899 104.427 63.0127 104.759 63.2863 104.758C63.5599 104.757 63.7807 104.424 63.7795 104.013Z" fill="#F29111"/>
<path d="M53.8967 102.197C53.8955 101.787 53.6727 101.455 53.3995 101.455C53.1259 101.456 52.9051 101.789 52.9063 102.199C52.9071 102.61 53.1299 102.942 53.4035 102.941C53.6767 102.941 53.8979 102.607 53.8967 102.197Z" fill="#F29111"/>
<path d="M53.9084 104.045C53.9072 103.634 53.6848 103.302 53.4112 103.303C53.1376 103.303 52.9168 103.637 52.918 104.047C52.9192 104.458 53.1416 104.79 53.4152 104.789C53.6888 104.788 53.9096 104.455 53.9084 104.045Z" fill="#F29111"/>
<path d="M57.6076 102.185C57.6064 101.775 57.384 101.443 57.1104 101.443C56.8368 101.444 56.616 101.777 56.6172 102.188C56.6184 102.598 56.8408 102.931 57.1144 102.93C57.388 102.929 57.6088 102.596 57.6076 102.185Z" fill="#F29111"/>
<path d="M57.6076 104.033C57.6064 103.623 57.384 103.291 57.1104 103.291C56.8368 103.292 56.616 103.625 56.6172 104.035C56.6184 104.446 56.8408 104.778 57.1144 104.777C57.388 104.777 57.6088 104.443 57.6076 104.033Z" fill="#F29111"/>
<path d="M61.3029 102.176C61.3017 101.765 61.0793 101.433 60.8057 101.434C60.5321 101.434 60.3113 101.768 60.3125 102.178C60.3137 102.588 60.5365 102.92 60.8097 102.92C61.0833 102.919 61.3041 102.586 61.3029 102.176Z" fill="#F29111"/>
<path d="M61.315 104.021C61.3138 103.611 61.091 103.278 60.8174 103.279C60.5442 103.28 60.3234 103.613 60.3242 104.024C60.3254 104.434 60.5482 104.766 60.8218 104.766C61.095 104.765 61.3158 104.432 61.315 104.021Z" fill="#F29111"/>
<path d="M55.1314 102.195C55.1302 101.784 54.9074 101.452 54.6338 101.453C54.3606 101.454 54.1398 101.787 54.1406 102.198C54.1418 102.608 54.3646 102.94 54.6382 102.94C54.9114 102.939 55.1322 102.606 55.1314 102.195Z" fill="#F29111"/>
<path d="M55.1427 104.041C55.1415 103.63 54.9191 103.298 54.6455 103.299C54.3719 103.299 54.1511 103.633 54.1523 104.043C54.1535 104.454 54.376 104.786 54.6496 104.785C54.9232 104.784 55.1439 104.451 55.1427 104.041Z" fill="#F29111"/>
<path d="M58.8381 102.183C58.8369 101.773 58.6145 101.441 58.3409 101.441C58.0673 101.442 57.8465 101.775 57.8477 102.186C57.8489 102.596 58.0717 102.929 58.3449 102.928C58.6185 102.927 58.8393 102.594 58.8381 102.183Z" fill="#F29111"/>
<path d="M58.8381 104.029C58.8369 103.619 58.6145 103.287 58.3409 103.287C58.0673 103.288 57.8465 103.621 57.8477 104.032C57.8489 104.442 58.0713 104.774 58.3449 104.774C58.6185 104.773 58.8393 104.44 58.8381 104.029Z" fill="#F29111"/>
<path d="M62.5373 102.172C62.5361 101.761 62.3137 101.429 62.0401 101.43C61.7665 101.43 61.5457 101.764 61.5469 102.174C61.5481 102.584 61.7709 102.917 62.0441 102.916C62.3177 102.915 62.5385 102.582 62.5373 102.172Z" fill="#F29111"/>
<path d="M62.549 104.017C62.5478 103.607 62.325 103.275 62.0518 103.275C61.7782 103.276 61.5574 103.609 61.5586 104.02C61.5594 104.43 61.7822 104.763 62.0558 104.762C62.329 104.761 62.5498 104.428 62.549 104.017Z" fill="#F29111"/>
</g>
<path fill-rule="evenodd" clip-rule="evenodd" d="M60.9605 111.519C60.9653 112.85 62.2133 114.012 63.8557 113.999C65.4989 113.986 66.7289 112.808 66.7153 111.48L67.6133 111.471C67.6329 113.398 65.8937 114.881 63.8625 114.897C61.8309 114.912 60.0693 113.452 60.0625 111.522L60.9605 111.519Z" fill="#FF9100"/>
<path fill-rule="evenodd" clip-rule="evenodd" d="M67.6089 111.464C67.6137 112.796 68.8617 113.957 70.5041 113.944C72.1473 113.932 73.3773 112.753 73.3637 111.425L74.2617 111.416C74.2813 113.344 72.5421 114.826 70.5109 114.842C68.4793 114.858 66.7177 113.398 66.7109 111.468L67.6089 111.464Z" fill="#FF9100"/>
<path d="M43.0963 112.138L46.2931 109.448C46.6811 109.126 46.8967 108.645 46.8939 108.138L46.8527 104.246C46.8407 103.471 46.3139 102.797 45.5603 102.62L30.0657 98.8748C29.2215 98.6664 28.356 99.1456 28.073 99.9704L27.8443 100.637C27.4798 101.699 27.8584 102.878 28.778 103.53L41.0295 112.236C41.6639 112.669 42.5139 112.639 43.0963 112.138Z" fill="white"/>
<path d="M28.7897 103.533L36.5371 109.022L36.1758 100.338L30.0813 98.867C29.237 98.6586 28.3716 99.1378 28.0886 99.9626L27.8559 100.641C27.4915 101.703 27.8701 102.882 28.7897 103.533Z" fill="#F29111"/>
<path d="M121.199 91.8376C121.199 91.2828 121.486 90.768 121.958 90.4764L129.199 86V113.2L121.958 108.724C121.486 108.432 121.199 107.917 121.199 107.362V91.8376Z" fill="#FF9100"/>
<path d="M122.398 94.1048C122.398 93.5628 122.673 93.058 123.127 92.7628L127.998 89.5996V109.6L123.127 106.436C122.673 106.141 122.398 105.636 122.398 105.094V94.1048Z" fill="white"/>
<path d="M138.801 128.801H123.601C123.159 128.801 122.801 129.159 122.801 129.601V130.401C122.801 130.843 123.159 131.201 123.601 131.201H138.801C139.243 131.201 139.601 130.843 139.601 130.401V129.601C139.601 129.159 139.243 128.801 138.801 128.801Z" fill="white"/>
<path d="M53.6292 109.593L53.628 109.594C48.1364 110.71 43 106.514 43 100.91V94.8C43 90.492 46.492 87 50.8 87H94.4C99.5916 87 103.8 91.2084 103.8 96.4V101.07C103.8 106.743 98.8132 111.124 93.1876 110.392L72.1416 107.654C68.6896 107.205 65.1876 107.319 61.772 107.991L53.6292 109.593Z" fill="#8EC9E6" fill-opacity="0.48" stroke="#E9E6E6"/>
<path d="M113.002 104.4C115.984 104.4 118.402 101.982 118.402 98.9996C118.402 96.0173 115.984 93.5996 113.002 93.5996C110.019 93.5996 107.602 96.0173 107.602 98.9996C107.602 101.982 110.019 104.4 113.002 104.4Z" fill="#35373A"/>
<path d="M114.245 97.3516L114.915 97.7892L107.251 113.454C106.588 114.811 105.217 115.678 103.707 115.697L83.229 115.948L82.5898 115.112L103.089 114.86C104.588 114.842 105.951 113.987 106.62 112.645L114.245 97.3516Z" fill="#727882"/>
<path d="M82.2016 117.6C83.6375 117.6 84.8016 116.704 84.8016 115.6C84.8016 114.495 83.6375 113.6 82.2016 113.6C80.7656 113.6 79.6016 114.495 79.6016 115.6C79.6016 116.704 80.7656 117.6 82.2016 117.6Z" fill="white"/>
<path d="M113.001 103.201C115.32 103.201 117.201 101.32 117.201 99.0008C117.201 96.6812 115.32 94.8008 113.001 94.8008C110.681 94.8008 108.801 96.6812 108.801 99.0008C108.801 101.32 110.681 103.201 113.001 103.201Z" fill="#727882"/>
<path d="M113 103.201C115.32 103.201 117.2 101.32 117.2 99.0008C117.2 96.6812 115.32 94.8008 113 94.8008V103.201Z" fill="#A9B5C9"/>
<path d="M137.999 113.02H135.695V112.556L137.379 111.142H135.695V110.716H137.999V111.18L136.313 112.598H137.999V113.02ZM137.999 110.352H136.14C136.059 110.352 135.985 110.331 135.919 110.291C135.851 110.25 135.797 110.197 135.756 110.131C135.716 110.062 135.695 109.988 135.695 109.907V108.496C135.695 108.414 135.716 108.34 135.756 108.272C135.797 108.203 135.851 108.149 135.919 108.108C135.985 108.068 136.059 108.048 136.14 108.048H137.999V108.473H137.225V109.929H137.999V110.352ZM136.803 109.929V108.473H136.159C136.149 108.473 136.14 108.477 136.134 108.486C136.125 108.494 136.121 108.504 136.121 108.515V109.891C136.121 109.901 136.125 109.911 136.134 109.92C136.14 109.926 136.149 109.929 136.159 109.929H136.803ZM137.999 106.857H136.121V107.798H135.695V105.494H136.121V106.432H137.999V106.857ZM137.999 105.3H135.695V104.88H137.999V105.3ZM137.999 103.303L135.695 104.638V104.145L137.487 103.114L135.695 102.081V101.591L137.999 102.926V103.303ZM137.999 101.355H135.695V99.2331H136.121V100.929H136.633V99.5659H137.062V100.929H137.574V99.2331H137.999V101.355ZM137.999 97.9775H135.695V97.5583H137.999V97.9775ZM137.999 97.2483H135.695V96.7843L136.691 95.9491L135.695 95.1171V94.6499H137.999V95.0755H136.31L137.35 95.9491L136.313 96.8259H137.999V97.2483ZM137.999 94.2731H136.14C136.059 94.2731 135.985 94.2531 135.919 94.2123C135.851 94.1719 135.797 94.1187 135.756 94.0523C135.716 93.9843 135.695 93.9095 135.695 93.8283V92.4171C135.695 92.3363 135.716 92.2615 135.756 92.1931C135.797 92.1251 135.851 92.0707 135.919 92.0299C135.985 91.9895 136.059 91.9691 136.14 91.9691H137.999V92.3947H137.225V93.8507H137.999V94.2731ZM136.803 93.8507V92.3947H136.159C136.149 92.3947 136.14 92.3991 136.134 92.4075C136.125 92.4163 136.121 92.4259 136.121 92.4363V93.8123C136.121 93.8231 136.125 93.8327 136.134 93.8411C136.14 93.8475 136.149 93.8507 136.159 93.8507H136.803ZM137.999 91.1599C137.999 91.2411 137.979 91.3155 137.939 91.3839C137.898 91.4499 137.845 91.5035 137.779 91.5439C137.71 91.5843 137.636 91.6047 137.555 91.6047H136.14C136.059 91.6047 135.985 91.5843 135.919 91.5439C135.851 91.5035 135.797 91.4499 135.756 91.3839C135.716 91.3155 135.695 91.2411 135.695 91.1599V89.7487C135.695 89.6675 135.716 89.5931 135.756 89.5247C135.797 89.4563 135.851 89.4019 135.919 89.3615C135.985 89.3211 136.059 89.3007 136.14 89.3007H136.319V89.7263H136.159C136.149 89.7263 136.14 89.7307 136.134 89.7391C136.125 89.7475 136.121 89.7571 136.121 89.7679V91.1439C136.121 91.1547 136.125 91.1643 136.134 91.1727C136.14 91.1791 136.149 91.1823 136.159 91.1823H137.535C137.546 91.1823 137.556 91.1791 137.564 91.1727C137.571 91.1643 137.574 91.1547 137.574 91.1439V89.7679C137.574 89.7571 137.571 89.7475 137.564 89.7391C137.556 89.7307 137.546 89.7263 137.535 89.7263H137.119V90.2479H136.694V89.3007H137.555C137.636 89.3007 137.71 89.3211 137.779 89.3615C137.845 89.4019 137.898 89.4563 137.939 89.5247C137.979 89.5931 137.999 89.6675 137.999 89.7487V91.1599ZM137.999 88.9419H135.695V86.8203H136.121V88.5163H136.633V87.1531H137.062V88.5163H137.574V86.8203H137.999V88.9419Z" fill="white"/>
<defs>
<filter id="filter0_d_2190_22766" x="88.1016" y="121.523" width="32.3086" height="23.9766" filterUnits="userSpaceOnUse" color-interpolation-filters="sRGB">
<feFlood flood-opacity="0" result="BackgroundImageFix"/>
<feColorMatrix in="SourceAlpha" type="matrix" values="0 0 0 0 0 0 0 0 0 0 0 0 0 0 0 0 0 0 127 0" result="hardAlpha"/>
<feOffset dy="5"/>
<feGaussianBlur stdDeviation="1"/>
<feComposite in2="hardAlpha" operator="out"/>
<feColorMatrix type="matrix" values="0 0 0 0 0 0 0 0 0 0 0 0 0 0 0 0 0 0 0.1 0"/>
<feBlend mode="normal" in2="BackgroundImageFix" result="effect1_dropShadow_2190_22766"/>
<feBlend mode="normal" in="SourceGraphic" in2="effect1_dropShadow_2190_22766" result="shape"/>
</filter>
<linearGradient id="paint0_linear_2190_22766" x1="170.399" y1="123.6" x2="146.799" y2="144.2" gradientUnits="userSpaceOnUse">
<stop offset="0.239677" stop-color="white" stop-opacity="0"/>
<stop offset="1" stop-color="white"/>
</linearGradient>
<linearGradient id="paint1_linear_2190_22766" x1="58.4445" y1="42.6936" x2="59.2009" y2="77.6428" gradientUnits="userSpaceOnUse">
<stop stop-color="white"/>
<stop offset="1" stop-color="#F4F4F4"/>
</linearGradient>
<linearGradient id="paint2_linear_2190_22766" x1="129.601" y1="169.8" x2="178.001" y2="137.8" gradientUnits="userSpaceOnUse">
<stop stop-color="white"/>
<stop offset="0.904829" stop-color="white" stop-opacity="0"/>
</linearGradient>
</defs>
</svg>
