<svg width="200" height="200" viewBox="0 0 200 200" fill="none" xmlns="http://www.w3.org/2000/svg">
<path d="M83.2333 175.844C107.538 175.844 127.24 172.163 127.24 167.623C127.24 163.083 107.538 159.402 83.2333 159.402C58.9291 159.402 39.2266 163.083 39.2266 167.623C39.2266 172.163 58.9291 175.844 83.2333 175.844Z" fill="#A4AFBF" fill-opacity="0.7"/>
<g opacity="0.7">
<path d="M148.344 31.6777H191C191.619 31.6777 192.126 32.1845 192.126 32.8039V93.5021C192.126 94.1214 191.619 94.6282 191 94.6282H148.344C147.725 94.6282 147.219 94.1214 147.219 93.5021V32.8039C147.219 32.1845 147.725 31.6777 148.344 31.6777Z" fill="#C1D6DC"/>
<path d="M190.226 49.3926H150.203V91.9264H190.226V49.3926Z" fill="#DBEEF4"/>
<path d="M153.771 45.5858V44.3809H157.124V48.7165C156.674 48.9079 156.202 49.0656 155.718 49.1669C155.245 49.2795 154.738 49.3358 154.209 49.3358C152.758 49.3358 151.643 48.9417 150.878 48.1647C150.101 47.3764 149.719 46.2503 149.719 44.7863C149.719 43.8854 149.91 43.1084 150.293 42.4552C150.675 41.8021 151.227 41.3066 151.947 40.9687C152.668 40.6196 153.523 40.4395 154.525 40.4395C155.357 40.4395 156.044 40.5633 156.596 40.7998V42.6579C156.213 42.5453 155.864 42.4777 155.538 42.4327C155.222 42.3876 154.919 42.3651 154.615 42.3651C153.838 42.3651 153.219 42.5791 152.758 43.0183C152.307 43.4462 152.082 44.0318 152.082 44.775C152.082 45.6422 152.274 46.2953 152.645 46.7345C153.028 47.1737 153.613 47.3876 154.412 47.3876C154.603 47.3876 154.828 47.3651 155.087 47.3313V46.1039L153.771 45.5858ZM158.306 49.1331V40.6196H161.818C162.853 40.6196 163.652 40.8674 164.238 41.3741C164.823 41.8696 165.115 42.5566 165.115 43.4349C165.115 44.0093 164.969 44.4935 164.654 44.8877C164.361 45.2818 163.934 45.5633 163.393 45.7322L165.453 49.1444H163.045L161.458 46.2953L160.602 46.025V49.1444H158.306V49.1331ZM160.602 44.5836H161.323C161.874 44.5836 162.257 44.4935 162.493 44.3246C162.729 44.1557 162.842 43.8741 162.842 43.48C162.842 43.0858 162.729 42.8043 162.493 42.6354C162.257 42.4665 161.874 42.3764 161.323 42.3764H160.602V44.5836ZM165.701 49.1331L168.852 40.6196H171.148L174.322 49.1331H171.722L171.294 47.6579H168.638L168.222 49.1331H165.701ZM169.145 45.8561H170.754L169.933 43.0521L169.145 45.8561ZM174.682 49.1331L177.834 40.6196H180.13L183.303 49.1331H180.704L180.276 47.6579H177.608L177.192 49.1331H174.682ZM178.126 45.8561H179.747L178.925 43.0521L178.126 45.8561ZM184.08 49.1331V40.6196H186.421V47.1399H189.865V49.1331H184.08Z" fill="#DBEEF4"/>
</g>
<path d="M154.329 28.0756L144.062 38.3477L146.45 40.7365L156.716 30.4644L154.329 28.0756Z" fill="#D4D3C1"/>
<path d="M194.173 84.8334L183.906 95.1055L186.294 97.4943L196.56 87.2223L194.173 84.8334Z" fill="#D4D3C1"/>
<path d="M185.169 28.076L182.781 30.4648L193.048 40.7369L195.435 38.3481L185.169 28.076Z" fill="#D4D3C1"/>
<path d="M179.984 132.635H148.707C146.186 132.635 144.148 134.673 144.148 137.196V171.205C144.148 173.727 146.197 175.765 148.707 175.765H179.984C182.505 175.765 184.542 173.727 184.542 171.205V137.196C184.554 134.673 182.505 132.635 179.984 132.635Z" fill="#35373A"/>
<path d="M177.851 139.955H150.851C148.33 139.955 146.281 141.993 146.281 144.516V169.516C146.281 172.038 148.33 174.077 150.851 174.077H177.851C180.372 174.077 182.421 172.038 182.421 169.516V144.516C182.421 141.993 180.372 139.955 177.851 139.955Z" fill="#AAC9D2"/>
<path opacity="0.3" d="M164.408 168.334C170.869 168.334 176.113 163.086 176.113 156.622C176.113 150.158 170.869 144.91 164.408 144.91C157.948 144.91 152.703 150.158 152.703 156.622C152.703 163.086 157.937 168.334 164.408 168.334Z" fill="#242020"/>
<path d="M164.353 158.874C165.748 158.874 166.885 157.737 166.885 156.34C166.885 154.944 165.748 153.807 164.353 153.807C162.957 153.807 161.82 154.944 161.82 156.34C161.82 157.737 162.946 158.874 164.353 158.874Z" fill="#35373A"/>
<path d="M160.361 134.436H149.781V136.575H160.361V134.436Z" fill="#AAC9D2"/>
<path d="M164.298 135.562C164.298 136.181 163.791 136.688 163.172 136.688C162.553 136.688 162.047 136.181 162.047 135.562C162.047 134.942 162.553 134.436 163.172 134.436C163.791 134.436 164.298 134.931 164.298 135.562Z" fill="#AAC9D2"/>
<path d="M168.009 135.562C168.009 136.181 167.502 136.688 166.883 136.688C166.264 136.688 165.758 136.181 165.758 135.562C165.758 134.942 166.264 134.436 166.883 134.436C167.502 134.436 168.009 134.931 168.009 135.562Z" fill="#AAC9D2"/>
<path d="M179.376 135.562C179.376 136.181 178.87 136.688 178.25 136.688C177.631 136.688 177.125 136.181 177.125 135.562C177.125 134.942 177.631 134.436 178.25 134.436C178.87 134.436 179.376 134.931 179.376 135.562Z" fill="#AAC9D2"/>
<path d="M175.436 145.473C167.535 153.434 159.229 160.991 150.562 168.108" stroke="#AAC9D2" stroke-miterlimit="10"/>
<path d="M177.353 147.387C169.418 155.348 161.067 162.905 152.367 170.022" stroke="#AAC9D2" stroke-miterlimit="10"/>
<path d="M179.155 149.189C171.254 157.185 162.948 164.786 154.281 171.937" stroke="#AAC9D2" stroke-miterlimit="10"/>
<path d="M181.064 151.104C173.129 159.065 164.778 166.622 156.078 173.739" stroke="#AAC9D2" stroke-miterlimit="10"/>
<path d="M181.627 154.145C173.726 162.129 168.897 166.599 160.242 173.739" stroke="#AAC9D2" stroke-miterlimit="10"/>
<path d="M181.971 157.521C174.082 165.506 174.183 166.598 165.539 173.738" stroke="#AAC9D2" stroke-miterlimit="10"/>
<path d="M173.525 143.559C165.59 151.52 157.239 159.077 148.539 166.194" stroke="#AAC9D2" stroke-miterlimit="10"/>
<path d="M171.498 141.531C163.597 149.527 155.291 157.128 146.625 164.279" stroke="#AAC9D2" stroke-miterlimit="10"/>
<path d="M168.348 140.742C160.425 148.726 155.54 153.422 146.852 160.562" stroke="#AAC9D2" stroke-miterlimit="10"/>
<path d="M164.295 140.742C156.417 148.704 155.831 149.841 147.188 156.958" stroke="#AAC9D2" stroke-miterlimit="10"/>
<path d="M151.555 145.799C158.983 153.783 165.995 162.116 172.568 170.776" stroke="#AAC9D2" stroke-miterlimit="10"/>
<path d="M153.492 144.133C160.92 152.117 167.932 160.45 174.505 169.099" stroke="#AAC9D2" stroke-miterlimit="10"/>
<path d="M155.43 142.455C162.858 150.439 169.87 158.773 176.443 167.433" stroke="#AAC9D2" stroke-miterlimit="10"/>
<path d="M157.367 140.787C164.795 148.771 171.807 157.105 178.38 165.753" stroke="#AAC9D2" stroke-miterlimit="10"/>
<path d="M160.461 140.359C167.889 148.344 172.031 153.175 178.604 161.835" stroke="#AAC9D2" stroke-miterlimit="10"/>
<path d="M149.562 147.521C156.991 155.506 164.003 163.839 170.575 172.499" stroke="#AAC9D2" stroke-miterlimit="10"/>
<path d="M147.492 149.312C154.92 157.297 161.482 164.695 168.044 173.355" stroke="#AAC9D2" stroke-miterlimit="10"/>
<path d="M146.523 152.309C153.952 160.293 158.319 165.203 164.88 173.863" stroke="#AAC9D2" stroke-miterlimit="10"/>
<path d="M146.828 156.621C154.256 164.605 154.842 164.707 161.403 173.367" stroke="#AAC9D2" stroke-miterlimit="10"/>
<path d="M168.465 142.996H161.138C160.586 142.996 160.125 142.545 160.125 141.982C160.125 141.419 160.575 140.969 161.138 140.969H168.465C169.016 140.969 169.478 141.419 169.478 141.982C169.478 142.545 169.016 142.996 168.465 142.996Z" fill="#FF9100"/>
<path d="M98.2311 119.797C96.6667 121.554 95.1923 123.434 94.3257 125.619C93.459 127.804 93.2902 130.36 94.3144 132.466C95.3386 134.583 97.7472 136.081 100.054 135.641C101.461 135.371 102.834 134.076 102.497 132.68C102.294 131.835 101.484 131.227 100.628 131.069C99.773 130.923 98.8839 131.159 98.1073 131.576C95.5637 132.916 94.1906 135.934 94.2581 138.806C94.3257 141.677 95.665 144.403 97.4095 146.689C101.979 152.646 109.7 156.036 117.173 155.337C120.066 155.067 122.868 154.234 125.738 153.783C128.608 153.333 131.658 153.299 134.281 154.538C136.903 155.777 138.963 158.569 138.591 161.452C138.456 162.488 137.882 163.614 136.858 163.84C135.609 164.11 134.449 162.702 134.641 161.441C134.832 160.18 136.003 159.234 137.241 158.907C138.479 158.581 141.394 157.612 144.185 158.513" stroke="#35373A" stroke-width="6.75" stroke-linecap="round" stroke-linejoin="round"/>
<path d="M63.5668 55.3498C60.4942 62.9061 58.1757 75.1922 57.3203 81.048L72.7733 74.3588C74.1464 63.762 72.627 55.9692 71.2314 52.0841C70.8487 51.003 69.6332 50.5525 68.5752 50.9805L67.9675 51.2169C66.0091 51.9827 64.3546 53.4016 63.5668 55.3498Z" fill="url(#paint0_linear_1993_4840)"/>
<path d="M73.1374 61.9038C68.3654 54.1447 63.1093 59.3137 61.1172 62.7821C63.2669 55.4736 63.1431 53.7168 67.3412 51.4871C70.999 49.5389 71.4042 52.3993 71.6518 53.0862C71.8881 53.7281 72.9686 58.5704 73.1374 61.9038Z" fill="#FF9100"/>
<path d="M47.865 112.76L52.2207 115.845C52.7497 116.228 53.0761 116.78 53.0986 117.366L53.2899 121.757C53.3349 122.692 52.6034 123.492 51.5567 123.649L35.2258 126.228C34.1453 126.397 33.0423 125.845 32.6371 124.933L32.232 124.032C31.6917 122.827 32.0856 121.498 33.1999 120.744L45.0738 112.681C45.8842 112.14 47.0322 112.163 47.865 112.76Z" fill="#35373A"/>
<path fill-rule="evenodd" clip-rule="evenodd" d="M119.069 96.5206C130.246 89.8539 147.95 76.9936 153.611 68.5476C154.14 67.7593 154.005 66.7458 153.386 66.0363L153.206 65.8336C151.461 63.8404 148.704 63.0408 146.16 63.8291C136.031 66.9823 122.187 71.7458 106.768 81.0701C102.198 77.6805 96.7397 75.1242 90.662 73.7616C69.9642 69.1107 49.8629 80.1017 45.7886 98.3111C41.7143 116.521 55.1977 135.045 75.9068 139.685C96.6158 144.325 116.717 133.334 120.791 115.124C122.221 108.762 121.5 102.354 119.069 96.5206Z" fill="white"/>
<path d="M153.572 68.5141C150.916 72.0163 146.178 77.6469 137.343 84.2573C137.343 84.2573 142.171 74.8316 140.258 72.2753C138.345 69.7078 127.18 70.665 127.18 70.665C131.941 68.7843 140.854 64.8091 147.033 63.6154C149.116 63.21 151.186 63.987 152.852 65.3271L153.201 65.6086C154.079 66.3068 154.259 67.6019 153.572 68.5141Z" fill="#FF9100"/>
<path d="M153.695 68.4242C147.887 77.4332 129.969 90.4625 119.131 96.5323L117.375 92.7935L153.256 68.0188C153.548 67.8161 153.886 68.1201 153.695 68.4242Z" fill="#E9E6E6"/>
<path d="M97.876 111.891C95.2424 123.637 82.8957 133.175 68.1855 129.876C53.4754 126.576 44.1788 112.184 46.8012 100.439C49.4348 88.6931 62.3893 81.5985 77.0994 84.8981C91.8096 88.2089 100.51 100.146 97.876 111.891Z" fill="#35373A"/>
<mask id="mask0_1993_4840" style="mask-type:luminance" maskUnits="userSpaceOnUse" x="71" y="99" width="15" height="12">
<path d="M76.2802 110.44C80.1969 111.476 84.44 108.323 85.7456 103.401L71.5419 99.6289C70.2363 104.561 72.3522 109.404 76.2802 110.44Z" fill="white"/>
</mask>
<g mask="url(#mask0_1993_4840)">
<path d="M72.8609 99.7907C72.966 99.394 72.798 99.0051 72.4855 98.9222C72.1731 98.8393 71.8346 99.0938 71.7294 99.4906C71.6243 99.8873 71.7923 100.276 72.1048 100.359C72.4172 100.442 72.7557 100.188 72.8609 99.7907Z" fill="#F29111"/>
<path d="M72.3921 101.576C72.4973 101.179 72.3292 100.79 72.0168 100.707C71.7044 100.624 71.3658 100.879 71.2607 101.276C71.1556 101.672 71.3236 102.061 71.636 102.144C71.9485 102.227 72.287 101.973 72.3921 101.576Z" fill="#F29111"/>
<path d="M71.9156 103.359C72.0207 102.962 71.8527 102.573 71.5402 102.491C71.2278 102.408 70.8893 102.662 70.7841 103.059C70.679 103.456 70.847 103.845 71.1595 103.927C71.4719 104.01 71.8104 103.756 71.9156 103.359Z" fill="#F29111"/>
<path d="M71.439 105.158C71.5441 104.761 71.3761 104.372 71.0637 104.289C70.7512 104.207 70.4127 104.461 70.3076 104.858C70.2024 105.255 70.3705 105.643 70.6829 105.726C70.9953 105.809 71.3338 105.555 71.439 105.158Z" fill="#F29111"/>
<path d="M77.5952 99.1423C77.7004 98.7455 77.5323 98.3567 77.2199 98.2738C76.9075 98.1909 76.569 98.4454 76.4638 98.8421C76.3587 99.2389 76.5267 99.6277 76.8391 99.7106C77.1516 99.7935 77.4901 99.5391 77.5952 99.1423Z" fill="#F29111"/>
<path d="M77.1109 100.926C77.216 100.529 77.048 100.14 76.7355 100.057C76.4231 99.9741 76.0846 100.229 75.9794 100.625C75.8743 101.022 76.0423 101.411 76.3548 101.494C76.6672 101.577 77.0057 101.322 77.1109 100.926Z" fill="#F29111"/>
<path d="M76.6421 102.711C76.7473 102.314 76.5792 101.925 76.2668 101.842C75.9544 101.759 75.6158 102.014 75.5107 102.41C75.4056 102.807 75.5736 103.196 75.886 103.279C76.1985 103.362 76.537 103.107 76.6421 102.711Z" fill="#F29111"/>
<path d="M76.1656 104.494C76.2707 104.097 76.1027 103.708 75.7902 103.625C75.4778 103.542 75.1393 103.797 75.0341 104.194C74.929 104.59 75.097 104.979 75.4095 105.062C75.7219 105.145 76.0604 104.891 76.1656 104.494Z" fill="#F29111"/>
<path d="M75.6968 106.281C75.8019 105.884 75.6339 105.495 75.3215 105.412C75.009 105.33 74.6705 105.584 74.5654 105.981C74.4602 106.378 74.6283 106.766 74.9407 106.849C75.2531 106.932 75.5916 106.678 75.6968 106.281Z" fill="#F29111"/>
<path d="M81.853 100.265C81.9582 99.8686 81.7902 99.4797 81.4777 99.3968C81.1653 99.3139 80.8268 99.5684 80.7216 99.9652C80.6165 100.362 80.7845 100.751 81.097 100.834C81.4094 100.917 81.7479 100.662 81.853 100.265Z" fill="#F29111"/>
<path d="M81.3843 102.052C81.4895 101.656 81.3214 101.267 81.009 101.184C80.6965 101.101 80.358 101.356 80.2529 101.752C80.1477 102.149 80.3158 102.538 80.6282 102.621C80.9406 102.704 81.2792 102.449 81.3843 102.052Z" fill="#F29111"/>
<path d="M80.8999 103.836C81.0051 103.439 80.837 103.05 80.5246 102.967C80.2122 102.884 79.8737 103.139 79.7685 103.535C79.6634 103.932 79.8314 104.321 80.1438 104.404C80.4563 104.487 80.7948 104.232 80.8999 103.836Z" fill="#F29111"/>
<path d="M80.4312 105.623C80.5363 105.226 80.3683 104.837 80.0558 104.754C79.7434 104.671 79.4049 104.926 79.2998 105.323C79.1946 105.719 79.3626 106.108 79.6751 106.191C79.9875 106.274 80.326 106.02 80.4312 105.623Z" fill="#F29111"/>
<path d="M79.9546 107.406C80.0598 107.009 79.8917 106.62 79.5793 106.537C79.2669 106.455 78.9283 106.709 78.8232 107.106C78.7181 107.503 78.8861 107.891 79.1985 107.974C79.5109 108.057 79.8495 107.803 79.9546 107.406Z" fill="#F29111"/>
<path d="M86.5874 99.6169C86.6926 99.2201 86.5245 98.8313 86.2121 98.7484C85.8997 98.6655 85.5612 98.92 85.456 99.3167C85.3509 99.7135 85.5189 100.102 85.8313 100.185C86.1438 100.268 86.4823 100.014 86.5874 99.6169Z" fill="#F29111"/>
<path d="M86.1187 101.404C86.2238 101.007 86.0558 100.618 85.7434 100.536C85.4309 100.453 85.0924 100.707 84.9873 101.104C84.8821 101.501 85.0502 101.889 85.3626 101.972C85.675 102.055 86.0135 101.801 86.1187 101.404Z" fill="#F29111"/>
<path d="M85.6343 103.187C85.7395 102.79 85.5714 102.402 85.259 102.319C84.9466 102.236 84.608 102.49 84.5029 102.887C84.3977 103.284 84.5658 103.673 84.8782 103.756C85.1906 103.838 85.5292 103.584 85.6343 103.187Z" fill="#F29111"/>
<path d="M85.1655 104.972C85.2707 104.576 85.1027 104.187 84.7902 104.104C84.4778 104.021 84.1393 104.275 84.0341 104.672C83.929 105.069 84.097 105.458 84.4095 105.541C84.7219 105.624 85.0604 105.369 85.1655 104.972Z" fill="#F29111"/>
<path d="M84.689 106.756C84.7941 106.359 84.6261 105.97 84.3137 105.887C84.0012 105.804 83.6627 106.059 83.5576 106.455C83.4524 106.852 83.6205 107.241 83.9329 107.324C84.2453 107.407 84.5838 107.152 84.689 106.756Z" fill="#F29111"/>
<path d="M84.2202 108.543C84.3254 108.146 84.1573 107.757 83.8449 107.674C83.5325 107.591 83.194 107.846 83.0888 108.243C82.9837 108.639 83.1517 109.028 83.4641 109.111C83.7766 109.194 84.1151 108.939 84.2202 108.543Z" fill="#F29111"/>
<path d="M74.2749 100.168C74.3801 99.7709 74.212 99.3821 73.8996 99.2992C73.5872 99.2163 73.2487 99.4707 73.1435 99.8675C73.0384 100.264 73.2064 100.653 73.5188 100.736C73.8313 100.819 74.1698 100.564 74.2749 100.168Z" fill="#F29111"/>
<path d="M73.8062 101.953C73.9113 101.556 73.7433 101.167 73.4309 101.084C73.1184 101.001 72.7799 101.256 72.6748 101.653C72.5696 102.049 72.7376 102.438 73.0501 102.521C73.3625 102.604 73.701 102.35 73.8062 101.953Z" fill="#F29111"/>
<path d="M73.3374 103.74C73.4426 103.343 73.2745 102.954 72.9621 102.871C72.6497 102.789 72.3112 103.043 72.206 103.44C72.1009 103.837 72.2689 104.225 72.5813 104.308C72.8938 104.391 73.2323 104.137 73.3374 103.74Z" fill="#F29111"/>
<path d="M72.8609 105.523C72.966 105.126 72.798 104.738 72.4855 104.655C72.1731 104.572 71.8346 104.826 71.7294 105.223C71.6243 105.62 71.7923 106.009 72.1048 106.091C72.4172 106.174 72.7557 105.92 72.8609 105.523Z" fill="#F29111"/>
<path d="M79.0093 99.5192C79.1144 99.1225 78.9464 98.7336 78.634 98.6507C78.3216 98.5679 77.983 98.8223 77.8779 99.2191C77.7727 99.6158 77.9408 100.005 78.2532 100.088C78.5656 100.17 78.9042 99.916 79.0093 99.5192Z" fill="#F29111"/>
<path d="M78.5406 101.306C78.6457 100.91 78.4777 100.521 78.1652 100.438C77.8528 100.355 77.5143 100.609 77.4091 101.006C77.304 101.403 77.472 101.792 77.7845 101.875C78.0969 101.958 78.4354 101.703 78.5406 101.306Z" fill="#F29111"/>
<path d="M78.0562 103.09C78.1613 102.693 77.9933 102.304 77.6808 102.221C77.3684 102.138 77.0299 102.393 76.9248 102.789C76.8196 103.186 76.9876 103.575 77.3001 103.658C77.6125 103.741 77.951 103.486 78.0562 103.09Z" fill="#F29111"/>
<path d="M77.5952 104.875C77.7004 104.478 77.5324 104.089 77.2199 104.006C76.9075 103.923 76.569 104.178 76.4638 104.575C76.3587 104.971 76.5267 105.36 76.8391 105.443C77.1516 105.526 77.4901 105.271 77.5952 104.875Z" fill="#F29111"/>
<path d="M77.1109 106.658C77.216 106.261 77.048 105.872 76.7356 105.789C76.4231 105.707 76.0846 105.961 75.9794 106.358C75.8743 106.755 76.0423 107.143 76.3548 107.226C76.6672 107.309 77.0057 107.055 77.1109 106.658Z" fill="#F29111"/>
<path d="M83.2749 100.646C83.3801 100.249 83.212 99.8606 82.8996 99.7777C82.5872 99.6948 82.2487 99.9493 82.1435 100.346C82.0384 100.743 82.2064 101.132 82.5188 101.215C82.8313 101.297 83.1698 101.043 83.2749 100.646Z" fill="#F29111"/>
<path d="M82.7984 102.429C82.9035 102.033 82.7355 101.644 82.423 101.561C82.1106 101.478 81.7721 101.732 81.6669 102.129C81.5618 102.526 81.7298 102.915 82.0423 102.998C82.3547 103.081 82.6932 102.826 82.7984 102.429Z" fill="#F29111"/>
<path d="M82.3296 104.217C82.4348 103.82 82.2667 103.431 81.9543 103.348C81.6419 103.265 81.3033 103.52 81.1982 103.916C81.0931 104.313 81.2611 104.702 81.5735 104.785C81.886 104.868 82.2245 104.613 82.3296 104.217Z" fill="#F29111"/>
<path d="M81.8452 106C81.9504 105.603 81.7824 105.214 81.4699 105.131C81.1575 105.048 80.819 105.303 80.7138 105.7C80.6087 106.096 80.7767 106.485 81.0891 106.568C81.4016 106.651 81.7401 106.396 81.8452 106Z" fill="#F29111"/>
<path d="M81.3843 107.785C81.4895 107.388 81.3214 106.999 81.009 106.916C80.6966 106.833 80.358 107.088 80.2529 107.485C80.1477 107.881 80.3158 108.27 80.6282 108.353C80.9406 108.436 81.2792 108.182 81.3843 107.785Z" fill="#F29111"/>
<path d="M75.6968 100.549C75.8019 100.152 75.6339 99.7629 75.3215 99.68C75.009 99.5972 74.6705 99.8516 74.5654 100.248C74.4602 100.645 74.6283 101.034 74.9407 101.117C75.2531 101.2 75.5917 100.945 75.6968 100.549Z" fill="#F29111"/>
<path d="M75.2202 102.332C75.3254 101.935 75.1574 101.546 74.8449 101.463C74.5325 101.38 74.194 101.635 74.0888 102.032C73.9837 102.428 74.1517 102.817 74.4641 102.9C74.7766 102.983 75.1151 102.729 75.2202 102.332Z" fill="#F29111"/>
<path d="M74.7515 104.117C74.8566 103.72 74.6886 103.331 74.3762 103.248C74.0637 103.166 73.7252 103.42 73.6201 103.817C73.5149 104.214 73.683 104.602 73.9954 104.685C74.3078 104.768 74.6463 104.514 74.7515 104.117Z" fill="#F29111"/>
<path d="M74.2827 105.904C74.3879 105.507 74.2198 105.118 73.9074 105.036C73.595 104.953 73.2565 105.207 73.1513 105.604C73.0462 106.001 73.2142 106.389 73.5266 106.472C73.8391 106.555 74.1776 106.301 74.2827 105.904Z" fill="#F29111"/>
<path d="M80.439 99.8884C80.5441 99.4916 80.3761 99.1028 80.0637 99.0199C79.7512 98.937 79.4127 99.1915 79.3076 99.5882C79.2024 99.985 79.3705 100.374 79.6829 100.457C79.9953 100.54 80.3338 100.285 80.439 99.8884Z" fill="#F29111"/>
<path d="M79.9546 101.683C80.0598 101.287 79.8917 100.898 79.5793 100.815C79.2669 100.732 78.9283 100.986 78.8232 101.383C78.7181 101.78 78.8861 102.169 79.1985 102.252C79.5109 102.335 79.8495 102.08 79.9546 101.683Z" fill="#F29111"/>
<path d="M79.4859 103.468C79.591 103.072 79.423 102.683 79.1105 102.6C78.7981 102.517 78.4596 102.772 78.3544 103.168C78.2493 103.565 78.4173 103.954 78.7298 104.037C79.0422 104.12 79.3807 103.865 79.4859 103.468Z" fill="#F29111"/>
<path d="M79.0093 105.252C79.1145 104.855 78.9464 104.466 78.634 104.383C78.3216 104.3 77.983 104.555 77.8779 104.951C77.7727 105.348 77.9408 105.737 78.2532 105.82C78.5656 105.903 78.9042 105.648 79.0093 105.252Z" fill="#F29111"/>
<path d="M78.5406 107.039C78.6457 106.642 78.4777 106.253 78.1652 106.17C77.8528 106.087 77.5143 106.342 77.4091 106.739C77.304 107.135 77.472 107.524 77.7845 107.607C78.0969 107.69 78.4354 107.436 78.5406 107.039Z" fill="#F29111"/>
<path d="M85.1656 99.24C85.2707 98.8432 85.1027 98.4543 84.7902 98.3715C84.4778 98.2886 84.1393 98.543 84.0341 98.9398C83.929 99.3366 84.097 99.7254 84.4095 99.8083C84.7219 99.8912 85.0604 99.6367 85.1656 99.24Z" fill="#F29111"/>
<path d="M84.689 101.023C84.7941 100.626 84.6261 100.238 84.3137 100.155C84.0012 100.072 83.6627 100.326 83.5576 100.723C83.4524 101.12 83.6205 101.509 83.9329 101.591C84.2453 101.674 84.5838 101.42 84.689 101.023Z" fill="#F29111"/>
<path d="M84.2202 102.81C84.3254 102.413 84.1574 102.025 83.8449 101.942C83.5325 101.859 83.194 102.113 83.0888 102.51C82.9837 102.907 83.1517 103.296 83.4641 103.379C83.7766 103.461 84.1151 103.207 84.2202 102.81Z" fill="#F29111"/>
<path d="M83.7437 104.593C83.8488 104.197 83.6808 103.808 83.3684 103.725C83.0559 103.642 82.7174 103.897 82.6123 104.293C82.5071 104.69 82.6752 105.079 82.9876 105.162C83.3 105.245 83.6385 104.99 83.7437 104.593Z" fill="#F29111"/>
<path d="M83.2749 106.379C83.3801 105.982 83.212 105.593 82.8996 105.51C82.5872 105.427 82.2487 105.682 82.1435 106.078C82.0384 106.475 82.2064 106.864 82.5188 106.947C82.8313 107.03 83.1698 106.775 83.2749 106.379Z" fill="#F29111"/>
<path d="M82.7984 108.162C82.9035 107.765 82.7355 107.376 82.423 107.293C82.1106 107.21 81.7721 107.465 81.6669 107.862C81.5618 108.258 81.7298 108.647 82.0423 108.73C82.3547 108.813 82.6932 108.559 82.7984 108.162Z" fill="#F29111"/>
<path d="M75.2281 108.066C75.3332 107.669 75.1652 107.281 74.8527 107.198C74.5403 107.115 74.2018 107.369 74.0966 107.766C73.9915 108.163 74.1595 108.552 74.472 108.634C74.7844 108.717 75.1229 108.463 75.2281 108.066Z" fill="#F29111"/>
<path d="M74.7515 109.851C74.8566 109.455 74.6886 109.066 74.3762 108.983C74.0637 108.9 73.7252 109.154 73.6201 109.551C73.5149 109.948 73.683 110.337 73.9954 110.42C74.3078 110.503 74.6463 110.248 74.7515 109.851Z" fill="#F29111"/>
<path d="M79.4859 109.203C79.591 108.806 79.423 108.417 79.1105 108.334C78.7981 108.251 78.4596 108.506 78.3544 108.903C78.2493 109.299 78.4173 109.688 78.7298 109.771C79.0422 109.854 79.3807 109.6 79.4859 109.203Z" fill="#F29111"/>
<path d="M79.0171 110.988C79.1223 110.591 78.9542 110.202 78.6418 110.119C78.3294 110.037 77.9908 110.291 77.8857 110.688C77.7806 111.085 77.9486 111.473 78.261 111.556C78.5735 111.639 78.912 111.385 79.0171 110.988Z" fill="#F29111"/>
<path d="M83.7437 110.326C83.8488 109.929 83.6808 109.54 83.3684 109.457C83.0559 109.375 82.7174 109.629 82.6123 110.026C82.5071 110.422 82.6752 110.811 82.9876 110.894C83.3 110.977 83.6385 110.723 83.7437 110.326Z" fill="#F29111"/>
<path d="M72.3921 107.308C72.4973 106.912 72.3292 106.523 72.0168 106.44C71.7044 106.357 71.3658 106.611 71.2607 107.008C71.1556 107.405 71.3236 107.794 71.636 107.877C71.9484 107.96 72.287 107.705 72.3921 107.308Z" fill="#F29111"/>
<path d="M71.9077 109.103C72.0129 108.706 71.8448 108.318 71.5324 108.235C71.22 108.152 70.8815 108.406 70.7763 108.803C70.6712 109.2 70.8392 109.589 71.1516 109.672C71.4641 109.754 71.8026 109.5 71.9077 109.103Z" fill="#F29111"/>
<path d="M76.6421 108.445C76.7473 108.048 76.5792 107.659 76.2668 107.577C75.9544 107.494 75.6158 107.748 75.5107 108.145C75.4056 108.542 75.5736 108.93 75.886 109.013C76.1984 109.096 76.537 108.842 76.6421 108.445Z" fill="#F29111"/>
<path d="M76.1734 110.23C76.2785 109.833 76.1105 109.445 75.798 109.362C75.4856 109.279 75.1471 109.533 75.0419 109.93C74.9368 110.327 75.1048 110.716 75.4173 110.799C75.7297 110.881 76.0682 110.627 76.1734 110.23Z" fill="#F29111"/>
<path d="M80.8999 109.568C81.0051 109.171 80.837 108.782 80.5246 108.7C80.2122 108.617 79.8737 108.871 79.7685 109.268C79.6634 109.665 79.8314 110.054 80.1438 110.136C80.4563 110.219 80.7948 109.965 80.8999 109.568Z" fill="#F29111"/>
<path d="M80.4312 111.355C80.5363 110.958 80.3683 110.57 80.0558 110.487C79.7434 110.404 79.4049 110.658 79.2998 111.055C79.1946 111.452 79.3626 111.841 79.6751 111.924C79.9875 112.006 80.326 111.752 80.4312 111.355Z" fill="#F29111"/>
<path d="M73.8062 107.687C73.9113 107.29 73.7433 106.902 73.4309 106.819C73.1184 106.736 72.7799 106.99 72.6748 107.387C72.5696 107.784 72.7376 108.173 73.0501 108.256C73.3625 108.338 73.701 108.084 73.8062 107.687Z" fill="#F29111"/>
<path d="M73.3374 109.474C73.4426 109.078 73.2745 108.689 72.9621 108.606C72.6497 108.523 72.3112 108.777 72.206 109.174C72.1009 109.571 72.2689 109.96 72.5813 110.043C72.8938 110.126 73.2323 109.871 73.3374 109.474Z" fill="#F29111"/>
<path d="M78.0718 108.826C78.177 108.429 78.0089 108.04 77.6965 107.957C77.384 107.875 77.0455 108.129 76.9404 108.526C76.8352 108.922 77.0033 109.311 77.3157 109.394C77.6281 109.477 77.9667 109.223 78.0718 108.826Z" fill="#F29111"/>
<path d="M77.5874 110.607C77.6926 110.21 77.5245 109.822 77.2121 109.739C76.8997 109.656 76.5612 109.91 76.456 110.307C76.3509 110.704 76.5189 111.093 76.8313 111.175C77.1438 111.258 77.4823 111.004 77.5874 110.607Z" fill="#F29111"/>
<path d="M82.3296 109.949C82.4348 109.552 82.2667 109.163 81.9543 109.08C81.6419 108.998 81.3033 109.252 81.1982 109.649C81.0931 110.046 81.2611 110.434 81.5735 110.517C81.8859 110.6 82.2245 110.346 82.3296 109.949Z" fill="#F29111"/>
</g>
<mask id="mask1_1993_4840" style="mask-type:luminance" maskUnits="userSpaceOnUse" x="52" y="94" width="14" height="12">
<path d="M56.6828 105.226C59.9805 106.104 63.7058 102.816 65.0114 97.8832L53.0925 94.7188C51.7756 99.6512 53.3851 104.347 56.6828 105.226Z" fill="white"/>
</mask>
<g mask="url(#mask1_1993_4840)">
<path d="M54.1946 94.8246C54.2998 94.4279 54.1707 94.0494 53.9063 93.9792C53.642 93.9091 53.3424 94.1739 53.2373 94.5706C53.1321 94.9674 53.2612 95.3459 53.5256 95.4161C53.7899 95.4862 54.0895 95.2214 54.1946 94.8246Z" fill="#F29111"/>
<path d="M53.7259 96.6215C53.831 96.2247 53.7019 95.8462 53.4376 95.7761C53.1732 95.706 52.8737 95.9707 52.7685 96.3675C52.6634 96.7643 52.7924 97.1428 53.0568 97.2129C53.3212 97.2831 53.6207 97.0183 53.7259 96.6215Z" fill="#F29111"/>
<path d="M53.2415 98.4047C53.3466 98.0079 53.2176 97.6294 52.9532 97.5593C52.6888 97.4892 52.3893 97.754 52.2841 98.1507C52.179 98.5475 52.3081 98.926 52.5724 98.9961C52.8368 99.0663 53.1363 98.8015 53.2415 98.4047Z" fill="#F29111"/>
<path d="M52.7727 100.192C52.8779 99.7951 52.7488 99.4165 52.4844 99.3464C52.2201 99.2763 51.9205 99.5411 51.8154 99.9378C51.7102 100.335 51.8393 100.713 52.1037 100.783C52.368 100.853 52.6676 100.589 52.7727 100.192Z" fill="#F29111"/>
<path d="M57.7649 95.7817C57.8701 95.3849 57.741 95.0064 57.4766 94.9363C57.2123 94.8661 56.9127 95.1309 56.8076 95.5277C56.7024 95.9244 56.8315 96.303 57.0959 96.3731C57.3602 96.4432 57.6598 96.1784 57.7649 95.7817Z" fill="#F29111"/>
<path d="M57.2962 97.5668C57.4013 97.1701 57.2722 96.7915 57.0079 96.7214C56.7435 96.6513 56.444 96.9161 56.3388 97.3128C56.2337 97.7096 56.3627 98.0881 56.6271 98.1582C56.8915 98.2284 57.191 97.9636 57.2962 97.5668Z" fill="#F29111"/>
<path d="M56.8196 99.35C56.9248 98.9533 56.7957 98.5747 56.5313 98.5046C56.267 98.4345 55.9674 98.6993 55.8623 99.096C55.7571 99.4928 55.8862 99.8713 56.1505 99.9414C56.4149 100.012 56.7145 99.7468 56.8196 99.35Z" fill="#F29111"/>
<path d="M56.3509 101.137C56.456 100.74 56.3269 100.362 56.0626 100.292C55.7982 100.222 55.4987 100.486 55.3935 100.883C55.2884 101.28 55.4174 101.658 55.6818 101.729C55.9462 101.799 56.2457 101.534 56.3509 101.137Z" fill="#F29111"/>
<path d="M61.8196 94.9438C61.9248 94.547 61.7957 94.1685 61.5313 94.0984C61.267 94.0282 60.9674 94.293 60.8623 94.6898C60.7571 95.0866 60.8862 95.4651 61.1506 95.5352C61.4149 95.6053 61.7145 95.3406 61.8196 94.9438Z" fill="#F29111"/>
<path d="M61.3509 96.7309C61.456 96.3341 61.3269 95.9556 61.0626 95.8855C60.7982 95.8153 60.4987 96.0801 60.3935 96.4769C60.2884 96.8737 60.4174 97.2522 60.6818 97.3223C60.9462 97.3924 61.2457 97.1277 61.3509 96.7309Z" fill="#F29111"/>
<path d="M60.8743 98.5141C60.9794 98.1173 60.8504 97.7388 60.586 97.6687C60.3216 97.5985 60.0221 97.8633 59.9169 98.2601C59.8118 98.6569 59.9409 99.0354 60.2052 99.1055C60.4696 99.1756 60.7692 98.9109 60.8743 98.5141Z" fill="#F29111"/>
<path d="M60.4056 100.299C60.5107 99.9025 60.3816 99.524 60.1173 99.4538C59.8529 99.3837 59.5533 99.6485 59.4482 100.045C59.3431 100.442 59.4721 100.821 59.7365 100.891C60.0009 100.961 60.3004 100.696 60.4056 100.299Z" fill="#F29111"/>
<path d="M59.9212 102.082C60.0263 101.686 59.8973 101.307 59.6329 101.237C59.3685 101.167 59.069 101.432 58.9638 101.828C58.8587 102.225 58.9878 102.604 59.2521 102.674C59.5165 102.744 59.816 102.479 59.9212 102.082Z" fill="#F29111"/>
<path d="M65.8743 94.1059C65.9794 93.7091 65.8504 93.3306 65.586 93.2605C65.3216 93.1903 65.0221 93.4551 64.9169 93.8519C64.8118 94.2487 64.9409 94.6272 65.2052 94.6973C65.4696 94.7674 65.7692 94.5027 65.8743 94.1059Z" fill="#F29111"/>
<path d="M65.3899 95.8891C65.4951 95.4923 65.366 95.1138 65.1016 95.0437C64.8373 94.9735 64.5377 95.2383 64.4326 95.6351C64.3274 96.0319 64.4565 96.4104 64.7209 96.4805C64.9852 96.5506 65.2848 96.2859 65.3899 95.8891Z" fill="#F29111"/>
<path d="M64.9212 97.6762C65.0263 97.2794 64.8972 96.9009 64.6329 96.8308C64.3685 96.7606 64.069 97.0254 63.9638 97.4222C63.8587 97.819 63.9877 98.1975 64.2521 98.2676C64.5165 98.3378 64.816 98.073 64.9212 97.6762Z" fill="#F29111"/>
<path d="M64.4446 99.4594C64.5498 99.0626 64.4207 98.6841 64.1563 98.614C63.892 98.5438 63.5924 98.8086 63.4873 99.2054C63.3821 99.6022 63.5112 99.9807 63.7755 100.051C64.0399 100.121 64.3395 99.8562 64.4446 99.4594Z" fill="#F29111"/>
<path d="M63.9759 101.245C64.081 100.848 63.9519 100.469 63.6876 100.399C63.4232 100.329 63.1237 100.594 63.0185 100.991C62.9134 101.387 63.0424 101.766 63.3068 101.836C63.5712 101.906 63.8707 101.641 63.9759 101.245Z" fill="#F29111"/>
<path d="M63.5071 103.032C63.6123 102.635 63.4832 102.256 63.2188 102.186C62.9545 102.116 62.6549 102.381 62.5498 102.778C62.4446 103.174 62.5737 103.553 62.8381 103.623C63.1024 103.693 63.402 103.428 63.5071 103.032Z" fill="#F29111"/>
<path d="M55.3821 95.1508C55.4873 94.754 55.3582 94.3755 55.0938 94.3054C54.8295 94.2353 54.5299 94.5 54.4248 94.8968C54.3196 95.2936 54.4487 95.6721 54.713 95.7422C54.9774 95.8124 55.277 95.5476 55.3821 95.1508Z" fill="#F29111"/>
<path d="M54.9134 96.936C55.0185 96.5392 54.8894 96.1607 54.6251 96.0905C54.3607 96.0204 54.0612 96.2852 53.956 96.682C53.8509 97.0787 53.9799 97.4572 54.2443 97.5274C54.5087 97.5975 54.8082 97.3327 54.9134 96.936Z" fill="#F29111"/>
<path d="M54.4368 98.7192C54.542 98.3224 54.4129 97.9439 54.1485 97.8738C53.8841 97.8036 53.5846 98.0684 53.4794 98.4652C53.3743 98.8619 53.5034 99.2405 53.7677 99.3106C54.0321 99.3807 54.3317 99.1159 54.4368 98.7192Z" fill="#F29111"/>
<path d="M53.9681 100.506C54.0732 100.109 53.9441 99.731 53.6798 99.6609C53.4154 99.5907 53.1158 99.8555 53.0107 100.252C52.9056 100.649 53.0346 101.028 53.299 101.098C53.5634 101.168 53.8629 100.903 53.9681 100.506Z" fill="#F29111"/>
<path d="M59.4368 94.3129C59.5419 93.9161 59.4129 93.5376 59.1485 93.4675C58.8841 93.3974 58.5846 93.6622 58.4794 94.0589C58.3743 94.4557 58.5034 94.8342 58.7677 94.9043C59.0321 94.9745 59.3317 94.7097 59.4368 94.3129Z" fill="#F29111"/>
<path d="M58.9524 96.0961C59.0576 95.6993 58.9285 95.3208 58.6641 95.2507C58.3998 95.1806 58.1002 95.4454 57.9951 95.8421C57.8899 96.2389 58.019 96.6174 58.2834 96.6875C58.5477 96.7577 58.8473 96.4929 58.9524 96.0961Z" fill="#F29111"/>
<path d="M58.4915 97.8832C58.5966 97.4865 58.4676 97.1079 58.2032 97.0378C57.9388 96.9677 57.6393 97.2325 57.5341 97.6292C57.429 98.026 57.5581 98.4045 57.8224 98.4747C58.0868 98.5448 58.3863 98.28 58.4915 97.8832Z" fill="#F29111"/>
<path d="M58.0227 99.6684C58.1279 99.2716 57.9988 98.8931 57.7345 98.823C57.4701 98.7528 57.1705 99.0176 57.0654 99.4144C56.9602 99.8112 57.0893 100.19 57.3537 100.26C57.618 100.33 57.9176 100.065 58.0227 99.6684Z" fill="#F29111"/>
<path d="M57.5384 101.452C57.6435 101.055 57.5144 100.676 57.2501 100.606C56.9857 100.536 56.6862 100.801 56.581 101.198C56.4759 101.594 56.6049 101.973 56.8693 102.043C57.1337 102.113 57.4332 101.848 57.5384 101.452Z" fill="#F29111"/>
<path d="M63.0071 95.2582C63.1123 94.8615 62.9832 94.4829 62.7188 94.4128C62.4545 94.3427 62.1549 94.6075 62.0498 95.0042C61.9446 95.401 62.0737 95.7795 62.338 95.8497C62.6024 95.9198 62.902 95.655 63.0071 95.2582Z" fill="#F29111"/>
<path d="M62.5384 97.0453C62.6435 96.6486 62.5144 96.2701 62.2501 96.1999C61.9857 96.1298 61.6862 96.3946 61.581 96.7913C61.4759 97.1881 61.6049 97.5666 61.8693 97.6368C62.1337 97.7069 62.4332 97.4421 62.5384 97.0453Z" fill="#F29111"/>
<path d="M62.0618 98.8285C62.167 98.4318 62.0379 98.0533 61.7735 97.9831C61.5091 97.913 61.2096 98.1778 61.1044 98.5745C60.9993 98.9713 61.1284 99.3498 61.3927 99.42C61.6571 99.4901 61.9567 99.2253 62.0618 98.8285Z" fill="#F29111"/>
<path d="M61.593 100.616C61.6982 100.219 61.5691 99.8404 61.3048 99.7702C61.0404 99.7001 60.7408 99.9649 60.6357 100.362C60.5306 100.758 60.6596 101.137 60.924 101.207C61.1884 101.277 61.4879 101.012 61.593 100.616Z" fill="#F29111"/>
<path d="M61.1165 102.399C61.2216 102.002 61.0926 101.624 60.8282 101.553C60.5638 101.483 60.2643 101.748 60.1591 102.145C60.054 102.542 60.1831 102.92 60.4474 102.99C60.7118 103.06 61.0113 102.796 61.1165 102.399Z" fill="#F29111"/>
<path d="M56.5696 95.4653C56.6748 95.0685 56.5457 94.69 56.2813 94.6198C56.017 94.5497 55.7174 94.8145 55.6123 95.2113C55.5071 95.608 55.6362 95.9865 55.9005 96.0567C56.1649 96.1268 56.4645 95.862 56.5696 95.4653Z" fill="#F29111"/>
<path d="M56.1087 97.2524C56.2138 96.8556 56.0848 96.4771 55.8204 96.407C55.556 96.3368 55.2565 96.6016 55.1513 96.9984C55.0462 97.3951 55.1753 97.7737 55.4396 97.8438C55.704 97.9139 56.0035 97.6491 56.1087 97.2524Z" fill="#F29111"/>
<path d="M55.6243 99.0356C55.7294 98.6388 55.6004 98.2603 55.336 98.1902C55.0716 98.12 54.7721 98.3848 54.6669 98.7816C54.5618 99.1784 54.6909 99.5569 54.9552 99.627C55.2196 99.6971 55.5192 99.4323 55.6243 99.0356Z" fill="#F29111"/>
<path d="M55.1555 100.823C55.2607 100.426 55.1316 100.047 54.8673 99.9773C54.6029 99.9071 54.3033 100.172 54.1982 100.569C54.0931 100.965 54.2221 101.344 54.4865 101.414C54.7509 101.484 55.0504 101.219 55.1555 100.823Z" fill="#F29111"/>
<path d="M60.6243 94.6293C60.7294 94.2325 60.6004 93.854 60.336 93.7839C60.0716 93.7138 59.7721 93.9786 59.6669 94.3753C59.5618 94.7721 59.6909 95.1506 59.9552 95.2207C60.2196 95.2909 60.5192 95.0261 60.6243 94.6293Z" fill="#F29111"/>
<path d="M60.1556 96.4145C60.2607 96.0177 60.1316 95.6392 59.8673 95.5691C59.6029 95.4989 59.3033 95.7637 59.1982 96.1605C59.0931 96.5573 59.2221 96.9358 59.4865 97.0059C59.7509 97.076 60.0504 96.8112 60.1556 96.4145Z" fill="#F29111"/>
<path d="M59.679 98.1977C59.7841 97.8009 59.6551 97.4224 59.3907 97.3523C59.1263 97.2821 58.8268 97.5469 58.7216 97.9437C58.6165 98.3405 58.7456 98.719 59.0099 98.7891C59.2743 98.8592 59.5738 98.5945 59.679 98.1977Z" fill="#F29111"/>
<path d="M59.2102 99.9848C59.3154 99.588 59.1863 99.2095 58.9219 99.1394C58.6576 99.0692 58.358 99.334 58.2529 99.7308C58.1477 100.128 58.2768 100.506 58.5412 100.576C58.8055 100.646 59.1051 100.382 59.2102 99.9848Z" fill="#F29111"/>
<path d="M58.7337 101.768C58.8388 101.371 58.7097 100.993 58.4454 100.923C58.181 100.852 57.8815 101.117 57.7763 101.514C57.6712 101.911 57.8002 102.289 58.0646 102.359C58.329 102.43 58.6285 102.165 58.7337 101.768Z" fill="#F29111"/>
<path d="M64.2024 95.5746C64.3076 95.1779 64.1785 94.7994 63.9141 94.7292C63.6498 94.6591 63.3502 94.9239 63.2451 95.3206C63.1399 95.7174 63.269 96.0959 63.5334 96.1661C63.7977 96.2362 64.0973 95.9714 64.2024 95.5746Z" fill="#F29111"/>
<path d="M63.7337 97.3598C63.8388 96.963 63.7098 96.5845 63.4454 96.5144C63.181 96.4442 62.8815 96.709 62.7763 97.1058C62.6712 97.5026 62.8003 97.8811 63.0646 97.9512C63.329 98.0214 63.6285 97.7566 63.7337 97.3598Z" fill="#F29111"/>
<path d="M63.2493 99.143C63.3544 98.7462 63.2254 98.3677 62.961 98.2976C62.6966 98.2274 62.3971 98.4922 62.2919 98.889C62.1868 99.2858 62.3159 99.6643 62.5802 99.7344C62.8446 99.8046 63.1442 99.5398 63.2493 99.143Z" fill="#F29111"/>
<path d="M62.7884 100.93C62.8935 100.533 62.7644 100.155 62.5001 100.085C62.2357 100.015 61.9362 100.279 61.831 100.676C61.7259 101.073 61.8549 101.451 62.1193 101.522C62.3837 101.592 62.6832 101.327 62.7884 100.93Z" fill="#F29111"/>
<path d="M62.304 102.713C62.4091 102.317 62.2801 101.938 62.0157 101.868C61.7513 101.798 61.4518 102.063 61.3466 102.459C61.2415 102.856 61.3706 103.235 61.6349 103.305C61.8993 103.375 62.1988 103.11 62.304 102.713Z" fill="#F29111"/>
<path d="M55.8821 102.922C55.9873 102.526 55.8582 102.147 55.5938 102.077C55.3295 102.007 55.0299 102.272 54.9248 102.668C54.8196 103.065 54.9487 103.444 55.2131 103.514C55.4774 103.584 55.777 103.319 55.8821 102.922Z" fill="#F29111"/>
<path d="M55.4055 104.705C55.5107 104.309 55.3816 103.93 55.1173 103.86C54.8529 103.79 54.5533 104.055 54.4482 104.452C54.3431 104.848 54.4721 105.227 54.7365 105.297C55.0009 105.367 55.3004 105.102 55.4055 104.705Z" fill="#F29111"/>
<path d="M59.4524 103.87C59.5576 103.473 59.4285 103.094 59.1641 103.024C58.8998 102.954 58.6002 103.219 58.4951 103.616C58.3899 104.012 58.519 104.391 58.7834 104.461C59.0477 104.531 59.3473 104.266 59.4524 103.87Z" fill="#F29111"/>
<path d="M58.9759 105.653C59.081 105.256 58.9519 104.877 58.6876 104.807C58.4232 104.737 58.1237 105.002 58.0185 105.399C57.9134 105.796 58.0424 106.174 58.3068 106.244C58.5712 106.314 58.8707 106.05 58.9759 105.653Z" fill="#F29111"/>
<path d="M63.0305 104.815C63.1357 104.418 63.0066 104.04 62.7423 103.969C62.4779 103.899 62.1783 104.164 62.0732 104.561C61.9681 104.958 62.0971 105.336 62.3615 105.406C62.6259 105.476 62.9254 105.212 63.0305 104.815Z" fill="#F29111"/>
<path d="M53.4837 102.289C53.5888 101.893 53.4598 101.514 53.1954 101.444C52.931 101.374 52.6315 101.639 52.5263 102.035C52.4212 102.432 52.5503 102.811 52.8146 102.881C53.079 102.951 53.3785 102.686 53.4837 102.289Z" fill="#F29111"/>
<path d="M53.0227 104.075C53.1279 103.678 52.9988 103.299 52.7344 103.229C52.4701 103.159 52.1705 103.424 52.0654 103.821C51.9602 104.217 52.0893 104.596 52.3537 104.666C52.618 104.736 52.9176 104.471 53.0227 104.075Z" fill="#F29111"/>
<path d="M57.0696 103.239C57.1748 102.842 57.0457 102.463 56.7813 102.393C56.517 102.323 56.2174 102.588 56.1123 102.985C56.0071 103.381 56.1362 103.76 56.4006 103.83C56.6649 103.9 56.9645 103.635 57.0696 103.239Z" fill="#F29111"/>
<path d="M56.5931 105.022C56.6982 104.625 56.5691 104.247 56.3048 104.176C56.0404 104.106 55.7408 104.371 55.6357 104.768C55.5306 105.165 55.6596 105.543 55.924 105.613C56.1884 105.683 56.4879 105.419 56.5931 105.022Z" fill="#F29111"/>
<path d="M60.6477 104.184C60.7529 103.787 60.6238 103.409 60.3594 103.339C60.0951 103.268 59.7955 103.533 59.6904 103.93C59.5852 104.327 59.7143 104.705 59.9787 104.775C60.243 104.846 60.5426 104.581 60.6477 104.184Z" fill="#F29111"/>
<path d="M60.179 105.971C60.2841 105.574 60.1551 105.196 59.8907 105.126C59.6263 105.056 59.3268 105.32 59.2216 105.717C59.1165 106.114 59.2456 106.492 59.5099 106.563C59.7743 106.633 60.0738 106.368 60.179 105.971Z" fill="#F29111"/>
<path d="M54.679 102.606C54.7841 102.209 54.6551 101.831 54.3907 101.76C54.1263 101.69 53.8268 101.955 53.7216 102.352C53.6165 102.749 53.7456 103.127 54.0099 103.197C54.2743 103.267 54.5738 103.003 54.679 102.606Z" fill="#F29111"/>
<path d="M54.2102 104.391C54.3154 103.994 54.1863 103.616 53.922 103.546C53.6576 103.475 53.358 103.74 53.2529 104.137C53.1477 104.534 53.2768 104.912 53.5412 104.982C53.8055 105.053 54.1051 104.788 54.2102 104.391Z" fill="#F29111"/>
<path d="M58.2649 103.553C58.3701 103.156 58.241 102.778 57.9766 102.708C57.7123 102.638 57.4127 102.902 57.3076 103.299C57.2024 103.696 57.3315 104.074 57.5959 104.145C57.8602 104.215 58.1598 103.95 58.2649 103.553Z" fill="#F29111"/>
<path d="M57.7884 105.336C57.8935 104.94 57.7644 104.561 57.5001 104.491C57.2357 104.421 56.9362 104.686 56.831 105.082C56.7259 105.479 56.8549 105.858 57.1193 105.928C57.3837 105.998 57.6832 105.733 57.7884 105.336Z" fill="#F29111"/>
<path d="M61.8352 104.5C61.9404 104.104 61.8113 103.725 61.547 103.655C61.2826 103.585 60.983 103.85 60.8779 104.246C60.7727 104.643 60.9018 105.022 61.1662 105.092C61.4305 105.162 61.7301 104.897 61.8352 104.5Z" fill="#F29111"/>
<path d="M61.3665 106.286C61.4716 105.889 61.3426 105.51 61.0782 105.44C60.8138 105.37 60.5143 105.635 60.4091 106.032C60.304 106.428 60.4331 106.807 60.6974 106.877C60.9618 106.947 61.2613 106.682 61.3665 106.286Z" fill="#F29111"/>
</g>
<path fill-rule="evenodd" clip-rule="evenodd" d="M57.8231 111.86C57.4832 113.147 58.3881 114.592 59.978 115.005C61.5687 115.418 63.0615 114.598 63.3921 113.312L64.2617 113.535C63.7819 115.402 61.7182 116.384 59.7523 115.874C57.7857 115.363 56.4621 113.497 56.955 111.631L57.8231 111.86Z" fill="#FF9100"/>
<path fill-rule="evenodd" clip-rule="evenodd" d="M64.2606 113.526C63.9207 114.813 64.8256 116.258 66.4155 116.671C68.0062 117.084 69.499 116.264 69.8296 114.978L70.6992 115.201C70.2194 117.068 68.1557 118.05 66.1898 117.54C64.2232 117.029 62.8996 115.163 63.3925 113.297L64.2606 113.526Z" fill="#FF9100"/>
<path d="M20.6732 108.119L20.4143 109.639L19.8516 109.538L20.1104 108.018L20.6732 108.119Z" fill="#D83030"/>
<path d="M20.1474 107.298C19.8097 107.241 19.4946 107.467 19.4383 107.804C19.382 108.142 19.6071 108.458 19.9335 108.514L20.6764 108.638C21.014 108.694 21.3291 108.469 21.3742 108.142C21.4304 107.804 21.2053 107.489 20.8789 107.433L20.1474 107.298Z" fill="white"/>
<path d="M18.0872 107.679L17.8284 109.2L17.2656 109.098L17.5245 107.578L18.0872 107.679Z" fill="#D83030"/>
<path d="M17.5693 106.847C17.2316 106.79 16.9165 107.015 16.8602 107.342C16.8039 107.68 17.029 107.995 17.3554 108.051L18.0982 108.175C18.4359 108.232 18.751 108.006 18.8073 107.68C18.8636 107.342 18.6385 107.027 18.3008 106.97L17.5693 106.847Z" fill="white"/>
<path d="M15.4935 107.242L15.2346 108.762L14.6719 108.661L14.9307 107.141L15.4935 107.242Z" fill="#D83030"/>
<path d="M14.9877 106.407C14.65 106.351 14.3349 106.576 14.2899 106.903C14.2336 107.24 14.4587 107.556 14.7851 107.612L15.5279 107.736C15.8656 107.792 16.1807 107.567 16.237 107.24C16.2933 106.903 16.0682 106.587 15.7418 106.542L14.9877 106.407Z" fill="white"/>
<path d="M12.9154 106.803L12.6565 108.323L12.0938 108.221L12.3526 106.701L12.9154 106.803Z" fill="#D83030"/>
<path d="M12.4096 105.97C12.0719 105.913 11.7568 106.138 11.7118 106.465C11.6555 106.803 11.8806 107.118 12.207 107.175L12.9498 107.298C13.2874 107.355 13.6026 107.129 13.6476 106.803C13.7039 106.465 13.4788 106.15 13.1524 106.105L12.4096 105.97Z" fill="white"/>
<path d="M10.3372 106.363L10.0784 107.883L9.51562 107.782L9.77449 106.262L10.3372 106.363Z" fill="#D83030"/>
<path d="M9.81925 105.53C9.4816 105.474 9.16647 105.699 9.11019 106.037C9.05392 106.375 9.27902 106.69 9.60541 106.735L10.3482 106.859C10.6859 106.915 11.001 106.69 11.046 106.363C11.1023 106.026 10.8772 105.71 10.5396 105.654L9.81925 105.53Z" fill="white"/>
<path d="M7.77474 105.912L7.51587 107.432L6.95312 107.331L7.21199 105.811L7.77474 105.912Z" fill="#D83030"/>
<path d="M7.24894 105.079C6.91129 105.023 6.59616 105.248 6.53988 105.574C6.48361 105.912 6.7087 106.228 7.0351 106.284L7.77792 106.408C8.11557 106.464 8.43071 106.239 8.48698 105.912C8.54326 105.574 8.31816 105.259 7.99177 105.214L7.24894 105.079Z" fill="white"/>
<path d="M61.5176 121.869C62.8119 119.324 68.5069 118.592 73.7405 122.725C78.6589 126.61 78.7377 129.471 84.7028 132.77C90.6679 136.07 94.7084 132.951 101.641 135.698C108.833 138.547 113.099 146.633 105.603 160.192C98.1074 173.75 87.2576 175.372 80.3809 167.647C76.723 163.536 76.6555 157.388 69.6662 156.622C64.2638 156.025 61.5852 155.338 59.4692 153.502C57.3533 151.656 56.8694 150.248 57.6009 148.942C58.839 146.689 63.9825 151.442 66.3347 147.207C68.0567 144.099 67.0663 142.128 65.0179 140.946L64.6803 134.966L65.0629 134.279C65.0629 134.279 67.0663 134.279 68.552 131.599C70.0376 128.919 67.2464 126.239 64.8153 125.417C62.3843 124.572 60.6735 123.547 61.5176 121.869Z" fill="#D83030"/>
<path d="M69.9391 137.422C69.7028 135.947 70.243 134.224 70.9971 134.19C71.7512 134.145 72.6516 134.753 74.3736 136.251C76.0956 137.748 79.0669 139.347 82.826 139.73C86.5852 140.113 88.0708 140.158 90.3781 141.363C92.6853 142.568 95.0376 144.516 92.5728 148.987C90.108 153.447 86.799 156.487 86.8666 160.699C86.9341 164.911 86.9341 165.327 86.8553 166.859C86.7427 169.1 84.5705 169.438 82.4884 167.681C80.2487 165.778 78.9769 162.478 77.7951 160.552C76.6246 158.627 74.261 155.778 69.1288 155.023C63.9965 154.269 63.7039 154.449 61.8131 153.323C59.9223 152.197 59.4496 151.172 59.6409 150.845C59.821 150.519 64.6043 152.636 67.2605 149.697C71.0196 145.519 70.3893 140.181 69.9391 137.422Z" fill="white"/>
<path d="M73.8616 150.226C74.3793 150.35 74.9083 150.046 75.0321 149.517L77.3844 140.08C77.5082 139.562 77.2043 139.032 76.6753 138.908C76.1576 138.785 75.6286 139.089 75.5048 139.618L73.1525 149.066C73.0287 149.573 73.3326 150.102 73.8616 150.226Z" fill="#2E2E2E"/>
<path d="M81.6272 153.671C82.1449 153.795 82.6739 153.491 82.7977 152.962L85.15 143.525C85.2738 143.007 84.9699 142.478 84.4409 142.354C83.9232 142.23 83.3942 142.534 83.2704 143.063L80.9182 152.5C80.7943 153.018 81.0982 153.547 81.6272 153.671Z" fill="#2E2E2E"/>
<path d="M69.8319 144.415C71.9704 143.075 73.2422 140.778 73.2422 138.255C55.6057 128.965 38.7346 120.102 22.6513 111.656C21.9197 112.985 21.1769 114.314 20.4453 115.643C36.1234 124.809 52.5894 134.404 69.8319 144.415Z" fill="#9D6240"/>
<path d="M22.6422 111.655C22.3383 111.486 21.9444 111.002 21.8543 110.236C21.7643 109.47 21.7305 109.301 21.2128 109.132C20.6951 108.963 7.98827 106.734 6.77274 106.576C5.54595 106.407 4.71308 107.026 4.13908 108.389C3.57633 109.752 3.97026 110.923 5.02822 111.306C6.08619 111.689 7.05411 110.315 8.89992 111.756C10.757 113.198 14.4711 116.407 16.3169 116.767C16.9359 116.891 19.2319 114.988 20.425 115.653L22.6422 111.655Z" fill="#2E2E2E"/>
<path d="M90.4192 158.119C91.2071 158.547 92.1862 158.266 92.6252 157.489L96.1592 151.104C96.5982 150.315 96.3055 149.336 95.529 148.896L93.8745 147.984C93.0866 147.545 92.1075 147.838 91.6685 148.615L88.1345 155C87.6955 155.788 87.9881 156.768 88.7647 157.207L90.4192 158.119Z" fill="#B22222"/>
<path d="M89.6067 157.668C90.3946 158.096 91.3737 157.815 91.8127 157.038L95.3467 150.652C95.7857 149.864 95.493 148.884 94.7164 148.445L93.062 147.533C92.2741 147.094 91.295 147.387 90.856 148.164L87.322 154.549C86.883 155.337 87.1756 156.317 87.9522 156.756L89.6067 157.668Z" fill="#2E2E2E"/>
<path d="M23.5175 112.129L23.7539 112.264L21.5254 116.296L21.2891 116.16L23.5175 112.129Z" fill="#240909"/>
<path d="M27.256 114.076L27.4924 114.211L25.1739 118.4L24.9375 118.265L27.256 114.076Z" fill="#240909"/>
<path d="M30.9945 116.047L31.2308 116.182L28.8223 120.54L28.5859 120.405L30.9945 116.047Z" fill="#240909"/>
<path d="M32.4785 122.659L34.9771 118.143L34.7408 118.008L32.2422 122.524L32.4785 122.659Z" fill="#240909"/>
<path d="M38.4636 119.967L38.7 120.102L36.1114 124.775L35.875 124.64L38.4636 119.967Z" fill="#240909"/>
<path d="M42.2021 121.926L42.4385 122.061L39.7598 126.892L39.5234 126.757L42.2021 121.926Z" fill="#240909"/>
<path d="M45.9371 123.908L46.1735 124.043L43.416 129.043L43.1797 128.908L45.9371 123.908Z" fill="#240909"/>
<path d="M49.6756 125.867L49.912 126.002L47.0645 131.16L46.8281 131.025L49.6756 125.867Z" fill="#240909"/>
<path d="M53.4141 127.838L53.6505 127.973L50.7129 133.288L50.4766 133.153L53.4141 127.838Z" fill="#240909"/>
<path d="M57.1526 129.797L57.3889 129.932L54.3614 135.405L54.125 135.27L57.1526 129.797Z" fill="#240909"/>
<path d="M60.8832 131.758L61.1196 131.893L58.002 137.535L57.7656 137.4L60.8832 131.758Z" fill="#240909"/>
<path d="M61.6617 139.651L64.8581 133.852L64.6217 133.717L61.4141 139.516L61.6617 139.651Z" fill="#240909"/>
<path d="M68.3602 135.699L68.5965 135.834L65.2989 141.792L65.0625 141.656L68.3602 135.699Z" fill="#240909"/>
<path d="M68.9551 143.908L72.3428 137.793L72.1065 137.658L68.7188 143.773L68.9551 143.908Z" fill="#240909"/>
<path d="M90.8237 148.232L90.88 148.109L22.3488 112.174L22.2812 112.286L90.8237 148.232Z" fill="white"/>
<path d="M21.9816 112.883L90.3102 149.167L90.2427 149.29L21.9141 113.007L21.9816 112.883Z" fill="white"/>
<path d="M89.545 150.529L89.6125 150.405L21.7003 113.355L21.6328 113.468L89.545 150.529Z" fill="white"/>
<path d="M88.9771 151.566L21.38 113.953L21.3125 114.066L88.9096 151.678L88.9771 151.566Z" fill="white"/>
<path d="M88.3373 152.713L21.0441 114.549L20.9766 114.673L88.2698 152.848L88.3373 152.713Z" fill="white"/>
<path d="M87.7097 153.862L20.7316 115.135L20.6641 115.247L87.6421 153.975L87.7097 153.862Z" fill="white"/>
<path d="M29.2487 119.2C29.0123 118.761 29.1811 118.142 29.5863 117.995L33.6831 116.43C34.4259 116.148 35.2025 116.689 35.4276 117.635L37.2397 125.349C37.4647 126.295 37.0371 127.297 36.3055 127.579L34.1558 128.401L29.2487 119.2Z" fill="#F29111"/>
<path d="M107.593 129.73L111.87 133.311C112.388 133.75 112.68 134.414 112.669 135.135L112.568 140.664C112.545 141.768 111.814 142.77 110.801 143.085L89.8442 149.583C88.6962 149.944 87.537 149.324 87.1656 148.176L86.8729 147.263C86.389 145.777 86.918 144.065 88.1673 143.063L104.813 129.752C105.657 129.076 106.805 129.065 107.593 129.73Z" fill="#35373A"/>
<path d="M88.1594 143.075L98.6265 134.719L98.03 147.05L89.8364 149.595C88.6884 149.955 87.5292 149.336 87.1578 148.187L86.8651 147.275C86.3812 145.777 86.9102 144.066 88.1594 143.075Z" fill="#F29111"/>
<path d="M24.8541 80.8326C24.5839 80.6074 24.2463 80.4948 23.9086 80.4948C23.5147 80.506 23.1208 80.3371 22.8507 80.0443L22.8057 79.9092C22.7944 79.8641 22.7381 79.8303 22.6931 79.8529C22.6481 79.8641 22.6143 79.9204 22.6368 79.9655L24.2238 85.2583C24.1 85.1907 23.9649 85.1457 23.8299 85.1231C23.481 85.0894 23.1321 85.1569 22.8169 85.3033C22.1079 85.6299 21.7027 86.2718 21.9165 86.7335C22.0966 87.1277 22.6931 87.2628 23.3009 87.0826C23.4022 87.0488 23.5035 87.015 23.5935 86.97C23.9086 86.8349 24.19 86.6096 24.3813 86.3281C24.5502 86.1029 24.5952 85.8213 24.4939 85.5623L23.3797 81.8461C23.6498 82.0713 23.9874 82.1952 24.3476 82.1952C24.7753 82.1952 25.1692 82.3754 25.4393 82.702C25.4506 82.7132 25.4843 82.7245 25.5068 82.7132H25.5181C25.5519 82.702 25.5631 82.6682 25.5519 82.6344L25.1579 81.3281C25.1242 81.1367 25.0229 80.9565 24.8541 80.8326Z" fill="#263238"/>
<path d="M35.5719 101.508C35.3918 101.351 35.1667 101.261 34.9416 101.261C34.6715 101.261 34.4127 101.137 34.2326 100.923L34.2101 100.821C34.1988 100.788 34.165 100.765 34.1313 100.776C34.0975 100.788 34.0863 100.821 34.0863 100.855L35.1442 104.763C35.0654 104.718 34.9754 104.684 34.8741 104.673C34.6378 104.65 34.4127 104.695 34.1988 104.808C33.7261 105.056 33.456 105.529 33.6023 105.866C33.7261 106.159 34.12 106.261 34.5252 106.125C34.5927 106.103 34.6603 106.08 34.7165 106.047C34.9304 105.945 35.1105 105.776 35.2455 105.574C35.3581 105.416 35.3918 105.202 35.3243 105.011L34.5815 102.274C34.7616 102.443 34.9867 102.533 35.2343 102.533C35.5156 102.533 35.7858 102.668 35.9658 102.905C35.9771 102.916 35.9996 102.916 36.0109 102.916H36.0221C36.0221 102.916 36.0446 102.882 36.0446 102.86L35.7745 101.891C35.7407 101.745 35.662 101.621 35.5607 101.52L35.5719 101.508Z" fill="#263238"/>
<path d="M34.3075 58.2545L34.7577 54.5158L34.9266 53.1194V53.0518L31.325 53.0293L31.3137 53.1081L31.1449 54.5045L30.7397 57.9167C30.5484 57.6689 30.1432 57.5338 29.6593 57.6014C29.0065 57.7027 28.5 58.1306 28.5 58.5698C28.5113 58.9415 28.9052 59.2005 29.4229 59.2117C29.5129 59.2117 29.5917 59.2117 29.6818 59.1892C30.3233 59.0991 30.8298 58.6824 30.8298 58.232L31.28 54.4933L34.5889 54.5158L34.1837 57.9167C33.9924 57.6689 33.5872 57.5338 33.1033 57.6014C32.8106 57.6351 32.5293 57.759 32.2929 57.9392C31.989 58.1194 31.8652 58.5135 32.0115 58.8176C32.0678 58.9527 32.1804 59.0428 32.3267 59.0879C32.4955 59.1667 32.6868 59.2005 32.8782 59.2005C32.9682 59.2005 33.0582 59.2005 33.1483 59.1892C33.8011 59.0991 34.3075 58.6712 34.3075 58.2433V58.2545Z" fill="#263238"/>
<path d="M41.8243 81.2844L42.0382 79.4488L42.117 78.7618V78.7281L40.4062 78.7168V78.7506L40.3274 79.4375L40.1361 81.1267C40.046 81.0028 39.8547 80.9353 39.6296 80.969C39.3257 81.0141 39.0781 81.2281 39.0781 81.442C39.0781 81.6335 39.2695 81.7573 39.5171 81.7573C39.5621 81.7573 39.5959 81.7573 39.6409 81.7461C39.9448 81.701 40.1811 81.4983 40.1811 81.2731L40.395 79.4375L41.9594 79.4488L41.768 81.1267C41.678 81.0028 41.4867 80.9353 41.2616 80.969C41.1265 80.9803 40.9915 81.0479 40.8789 81.138C40.7326 81.2281 40.6763 81.4195 40.7439 81.5659C40.7776 81.6335 40.8226 81.6785 40.8902 81.701C40.9689 81.7461 41.059 81.7573 41.149 81.7573C41.194 81.7573 41.2278 81.7573 41.2728 81.7461C41.588 81.701 41.8243 81.4871 41.8243 81.2844Z" fill="#263238"/>
<defs>
<linearGradient id="paint0_linear_1993_4840" x1="70.9431" y1="50.3461" x2="63.7389" y2="82.4864" gradientUnits="userSpaceOnUse">
<stop stop-color="white"/>
<stop offset="1" stop-color="#F4F4F4"/>
</linearGradient>
</defs>
</svg>
