<svg width="200" height="200" viewBox="0 0 200 200" fill="none" xmlns="http://www.w3.org/2000/svg">
<path d="M97.4998 172C135.884 172 167 168.195 167 163.5C167 158.806 135.884 155 97.4998 155C59.1161 155 28 158.806 28 163.5C28 168.195 59.1161 172 97.4998 172Z" fill="#A4AFBF" fill-opacity="0.7"/>
<path d="M89.5492 133.105L93.4837 134.329C93.9939 134.465 94.358 134.805 94.5038 135.28L95.8884 138.611C96.1796 139.29 95.8884 140.106 95.1598 140.514L84.3031 146.767C83.5745 147.175 82.6273 147.039 82.1174 146.427L81.6071 145.815C80.8785 145 80.8057 143.912 81.3888 143.029L87.5093 133.717C87.9463 133.105 88.8207 132.833 89.5492 133.105Z" fill="#35373A"/>
<path d="M88.2736 147.836L84.8133 143.208L81.1272 138.16C80.9767 137.95 80.9014 137.879 80.7509 138.02L80.5255 137.669L79.7733 136.547C79.9987 136.267 79.9987 135.776 79.6981 135.355L79.3218 134.794C82.1052 130.237 81.5784 122.874 77.7421 117.265C73.3791 110.884 66.3832 109.061 62.0954 113.268C57.8825 117.475 57.9578 126.1 62.3961 132.48C66.2327 138.09 72.1754 140.193 76.3879 137.739L76.7642 138.3C76.9899 138.651 77.4411 138.791 77.6669 138.58L78.4191 139.703L78.2686 139.843C78.1181 139.983 78.1933 140.193 78.3438 140.403L85.716 150.57C86.0167 151.061 86.4682 151.132 86.8441 150.781L88.5743 149.238C88.8753 148.888 89.1763 149.098 88.8753 148.607L88.2736 147.836Z" fill="#2D6982"/>
<path d="M79.4737 137L78.0527 138.891L78 138.956L78.5263 140L80 138.044L79.4737 137Z" fill="#CCCCCC"/>
<path d="M88.876 148.657L81.0911 137.119C81.0176 136.975 80.7975 136.975 80.6506 137.047L80.5036 137.119L78.3002 139.125L78.1536 139.197C78.0066 139.269 77.9332 139.484 78.0801 139.627L85.6446 150.664C85.865 151.022 86.379 151.094 86.7464 150.879L88.6556 149.732C89.023 149.446 89.0964 149.016 88.876 148.657Z" fill="#4D3216"/>
<path d="M87.4746 149.778C87.1075 149.985 86.5938 149.916 86.3736 149.571L78.8874 139L78.1535 139.622C78.0066 139.691 77.9332 139.898 78.08 140.037L85.6397 150.676C85.8599 151.022 86.3736 151.091 86.7407 150.884L88.6487 149.778C88.9424 149.571 89.0892 149.225 88.9424 148.949L87.4746 149.778Z" fill="#301F0D"/>
<path d="M79.416 131.218C81.2683 125.348 78.567 117.616 73.396 113.965C68.225 110.243 62.4364 111.961 60.584 117.831C58.7317 123.701 61.433 131.433 66.6043 135.084C71.7753 138.735 77.564 137.017 79.416 131.218Z" fill="#383838"/>
<path d="M78.4748 130.678C80.1395 125.314 77.7182 118.233 73.027 114.8C68.3354 111.367 63.19 113.012 61.5253 118.305C59.8603 123.669 62.2819 130.749 66.9732 134.182C71.6647 137.615 76.8102 136.042 78.4748 130.678Z" fill="#9ED3EF"/>
<path d="M76.3157 130.691C72.8528 134.183 67.2069 132.686 63.5934 127.413C62.2382 125.418 61.4101 123.209 61.0339 121C60.808 124.207 61.7113 127.77 63.744 130.833C67.2823 136.106 73.0034 137.603 76.4663 134.111C78.6497 131.974 79.4024 128.34 78.7999 124.706C78.6497 127.057 77.8216 129.266 76.3157 130.691Z" fill="#59BEE9"/>
<path d="M76 120.688C76 118.102 73.3601 115.228 70.0798 114.294C66.8 113.36 64.08 114.725 64 117.312C64 119.898 66.6399 122.772 69.9198 123.706C73.2 124.64 75.92 123.275 76 120.688Z" fill="#C2E0F2"/>
<path d="M87.8868 148.918C87.6815 149.068 87.4762 148.993 87.4077 148.843L81.045 138.574C80.9765 138.424 80.9765 138.274 81.1134 138.124L81.1818 138.049C81.3187 137.974 81.5241 137.974 81.5922 138.124L87.9553 148.393C88.0234 148.618 88.0234 148.843 87.8868 148.918Z" fill="#A07649"/>
<path d="M77.1755 142.747C76.8911 142.469 76.9622 141.982 77.3177 141.774L81.0839 140.106C81.7945 139.829 82.5762 140.106 82.9317 140.801L85.8451 146.29C86.2006 146.985 85.9162 147.749 85.2767 148.097L83.2868 149L77.1755 142.747Z" fill="#F29111"/>
<path d="M75.1011 68.3227C76.5895 76.5737 81.5252 88.4518 84.1104 94L95 79.9876C90.1427 70.0298 84.1104 64.0552 80.5067 61.4234C79.4882 60.712 78.0782 60.9256 77.2945 61.8502L76.8246 62.3481C75.4926 64.0552 74.7092 66.1888 75.1011 68.3227Z" fill="url(#paint0_linear_2190_22948)"/>
<path d="M88 68.9013C79.0971 64.7544 77.1019 71.9236 77.1787 76C75.0297 68.5498 73.8784 67.1442 76.5645 62.9973C78.8671 59.4128 80.939 61.6619 81.5532 62.0836C82.1671 62.5053 85.9277 66.0898 88 68.9013Z" fill="#FF9100"/>
<path fill-rule="evenodd" clip-rule="evenodd" d="M149.782 74.5776C156.373 62.7411 165.54 41.938 165.995 31.4647C166.071 30.4604 165.313 29.6713 164.404 29.3843L164.101 29.3126C161.373 28.5235 158.343 29.2409 156.449 31.3212C148.797 39.499 138.645 51.1203 129.629 67.5474C123.492 67.0453 116.977 67.6912 110.537 69.7713C88.6419 76.8014 76.217 97.2458 82.7326 115.395C89.2483 133.544 112.28 142.654 134.099 135.624C155.918 128.594 168.419 108.15 161.903 90.0006C159.631 83.6879 155.312 78.4511 149.782 74.5776Z" fill="white"/>
<path d="M143.532 129.479L143.011 124.014C142.937 123.322 143.235 122.699 143.755 122.215L147.699 118.618C148.518 117.926 149.708 117.788 150.601 118.341L169.873 129.409C170.915 130.032 171.287 131.277 170.766 132.315L170.32 133.145C169.576 134.459 168.013 135.22 166.451 134.944L145.467 131.554C144.425 131.346 143.606 130.516 143.532 129.479Z" fill="#35373A"/>
<path d="M166.378 134.963L153 132.788L162.221 125L169.855 129.35C170.914 129.982 171.292 131.245 170.762 132.297L170.309 133.139C169.553 134.472 167.966 135.174 166.378 134.963Z" fill="#F29111"/>
<path d="M165.984 31.5584C165.535 36.061 164.337 43.4939 159.92 54C159.92 54 159.096 43.208 155.877 41.9215C152.658 40.7065 143 47.4961 143 47.4961C146.294 43.2795 152.283 35.0604 157.299 30.7008C159.021 29.1999 161.342 28.8426 163.588 29.057L164.037 29.1284C165.235 29.3429 166.133 30.3434 165.984 31.5584Z" fill="#FF9100"/>
<path d="M138.728 99.5199C142.869 111.296 136.846 126.469 121.411 131.454C105.975 136.439 89.3353 128.78 85.1189 116.932C80.9025 105.083 88.8837 91.8616 104.319 86.8043C119.754 81.747 134.512 87.7435 138.728 99.5199Z" fill="#35373A"/>
<path d="M166 31.3769C165.696 42.5363 156.418 63.7681 149.726 75L146 72.6088L165.391 31.232C165.544 30.8697 166 30.9421 166 31.3769Z" fill="#E9E6E6"/>
<g opacity="0.2">
<mask id="mask0_2190_22948" style="mask-type:luminance" maskUnits="userSpaceOnUse" x="111" y="99" width="17" height="14">
<g opacity="0.2">
<path d="M127.369 107.33C127.369 107.33 122.78 104.827 118.793 106.114C114.731 107.401 113.001 112.695 112.7 112.051C110.744 106.686 112.474 101.25 116.537 99.9625C120.599 98.6035 125.413 101.894 127.369 107.33Z" fill="white"/>
</g>
</mask>
<g mask="url(#mask0_2190_22948)">
<path d="M111.876 105.495C112.191 105.393 112.338 105.008 112.205 104.633C112.071 104.259 111.708 104.038 111.393 104.14C111.079 104.241 110.931 104.627 111.065 105.001C111.198 105.375 111.562 105.596 111.876 105.495Z" fill="#F29111"/>
<path d="M112.486 107.213C112.801 107.112 112.947 106.726 112.814 106.352C112.681 105.978 112.317 105.757 112.002 105.859C111.688 105.96 111.541 106.346 111.674 106.72C111.808 107.094 112.171 107.315 112.486 107.213Z" fill="#F29111"/>
<path d="M113.087 108.93C113.402 108.829 113.549 108.443 113.416 108.069C113.282 107.695 112.919 107.474 112.604 107.576C112.289 107.677 112.142 108.062 112.276 108.437C112.409 108.811 112.772 109.032 113.087 108.93Z" fill="#F29111"/>
<path d="M112.115 101.647C112.429 101.545 112.576 101.16 112.443 100.786C112.309 100.412 111.946 100.191 111.631 100.292C111.317 100.394 111.17 100.779 111.303 101.153C111.437 101.528 111.8 101.748 112.115 101.647Z" fill="#F29111"/>
<path d="M112.724 103.366C113.039 103.264 113.186 102.879 113.052 102.505C112.919 102.131 112.556 101.91 112.241 102.011C111.926 102.113 111.779 102.498 111.912 102.872C112.046 103.246 112.409 103.467 112.724 103.366Z" fill="#F29111"/>
<path d="M113.396 105.061C113.711 104.959 113.858 104.574 113.724 104.2C113.591 103.826 113.227 103.605 112.913 103.706C112.598 103.808 112.451 104.193 112.584 104.567C112.718 104.942 113.081 105.163 113.396 105.061Z" fill="#F29111"/>
<path d="M114.005 106.778C114.32 106.676 114.467 106.291 114.334 105.917C114.2 105.543 113.837 105.322 113.522 105.423C113.207 105.524 113.06 105.91 113.194 106.284C113.327 106.658 113.69 106.879 114.005 106.778Z" fill="#F29111"/>
<path d="M114.587 108.43C114.902 108.329 115.049 107.943 114.916 107.569C114.782 107.195 114.419 106.974 114.104 107.076C113.789 107.177 113.642 107.562 113.776 107.937C113.909 108.311 114.273 108.532 114.587 108.43Z" fill="#F29111"/>
<path d="M111.591 109.432C111.906 109.331 112.053 108.945 111.919 108.571C111.786 108.197 111.423 107.976 111.108 108.077C110.793 108.179 110.646 108.564 110.78 108.939C110.913 109.312 111.277 109.533 111.591 109.432Z" fill="#F29111"/>
<path d="M113.611 101.143C113.926 101.042 114.072 100.656 113.939 100.282C113.806 99.9079 113.442 99.6869 113.127 99.7883C112.813 99.89 112.666 100.276 112.799 100.65C112.933 101.024 113.296 101.245 113.611 101.143Z" fill="#F29111"/>
<path d="M114.22 102.862C114.535 102.761 114.682 102.375 114.549 102.001C114.415 101.627 114.052 101.406 113.737 101.507C113.422 101.609 113.275 101.994 113.409 102.369C113.542 102.742 113.905 102.963 114.22 102.862Z" fill="#F29111"/>
<path d="M114.826 104.581C115.14 104.479 115.288 104.093 115.154 103.72C115.021 103.345 114.657 103.124 114.343 103.226C114.028 103.327 113.881 103.713 114.014 104.087C114.148 104.461 114.511 104.682 114.826 104.581Z" fill="#F29111"/>
<path d="M115.505 106.276C115.82 106.174 115.967 105.789 115.834 105.415C115.7 105.041 115.337 104.82 115.022 104.921C114.707 105.022 114.56 105.408 114.694 105.782C114.827 106.156 115.191 106.377 115.505 106.276Z" fill="#F29111"/>
<path d="M116.107 107.995C116.422 107.893 116.569 107.508 116.435 107.133C116.302 106.759 115.938 106.538 115.624 106.64C115.309 106.741 115.162 107.127 115.295 107.501C115.429 107.875 115.792 108.096 116.107 107.995Z" fill="#F29111"/>
<path d="M116.63 100.207C116.945 100.106 117.092 99.7205 116.959 99.3463C116.825 98.9724 116.462 98.7511 116.147 98.8529C115.832 98.9542 115.685 99.3398 115.819 99.714C115.952 100.088 116.316 100.309 116.63 100.207Z" fill="#F29111"/>
<path d="M117.24 101.926C117.554 101.825 117.701 101.439 117.568 101.065C117.434 100.691 117.071 100.47 116.756 100.572C116.442 100.673 116.295 101.059 116.428 101.433C116.562 101.807 116.925 102.028 117.24 101.926Z" fill="#F29111"/>
<path d="M117.822 103.577C118.137 103.475 118.283 103.09 118.15 102.715C118.017 102.341 117.653 102.12 117.338 102.222C117.024 102.323 116.877 102.709 117.01 103.083C117.144 103.457 117.507 103.678 117.822 103.577Z" fill="#F29111"/>
<path d="M118.427 105.295C118.742 105.194 118.889 104.808 118.756 104.434C118.622 104.06 118.259 103.839 117.944 103.941C117.629 104.042 117.482 104.428 117.616 104.802C117.749 105.176 118.112 105.397 118.427 105.295Z" fill="#F29111"/>
<path d="M119.033 107.014C119.347 106.913 119.495 106.527 119.361 106.153C119.228 105.779 118.864 105.558 118.55 105.66C118.235 105.761 118.088 106.146 118.221 106.521C118.355 106.895 118.718 107.116 119.033 107.014Z" fill="#F29111"/>
<path d="M121.732 100.419C122.047 100.317 122.194 99.9313 122.06 99.5571C121.927 99.1833 121.563 98.9623 121.249 99.0637C120.934 99.165 120.787 99.5509 120.92 99.9248C121.054 100.299 121.417 100.52 121.732 100.419Z" fill="#F29111"/>
<path d="M122.341 102.137C122.656 102.036 122.803 101.65 122.669 101.276C122.536 100.902 122.173 100.681 121.858 100.782C121.543 100.884 121.396 101.27 121.53 101.644C121.663 102.018 122.027 102.239 122.341 102.137Z" fill="#F29111"/>
<path d="M122.943 103.856C123.258 103.754 123.405 103.369 123.271 102.995C123.138 102.621 122.774 102.4 122.46 102.501C122.145 102.603 121.998 102.988 122.131 103.362C122.265 103.737 122.628 103.957 122.943 103.856Z" fill="#F29111"/>
<path d="M123.552 105.573C123.867 105.471 124.014 105.086 123.881 104.711C123.747 104.338 123.384 104.117 123.069 104.218C122.754 104.319 122.607 104.705 122.741 105.079C122.874 105.453 123.238 105.674 123.552 105.573Z" fill="#F29111"/>
<path d="M118.13 99.7055C118.445 99.6041 118.592 99.2186 118.459 98.8444C118.325 98.4705 117.962 98.2492 117.647 98.3509C117.332 98.4523 117.185 98.8378 117.319 99.212C117.452 99.5862 117.816 99.8072 118.13 99.7055Z" fill="#F29111"/>
<path d="M118.74 101.424C119.055 101.323 119.201 100.937 119.068 100.563C118.935 100.189 118.571 99.9679 118.256 100.07C117.942 100.171 117.795 100.557 117.928 100.931C118.061 101.305 118.425 101.526 118.74 101.424Z" fill="#F29111"/>
<path d="M119.341 103.143C119.656 103.042 119.803 102.656 119.67 102.282C119.536 101.908 119.173 101.687 118.858 101.788C118.543 101.89 118.396 102.275 118.53 102.65C118.663 103.024 119.026 103.245 119.341 103.143Z" fill="#F29111"/>
<path d="M119.947 104.86C120.262 104.758 120.409 104.373 120.275 103.999C120.142 103.625 119.778 103.403 119.464 103.505C119.149 103.607 119.002 103.992 119.135 104.366C119.269 104.741 119.632 104.962 119.947 104.86Z" fill="#F29111"/>
<path d="M120.533 106.51C120.847 106.409 120.994 106.023 120.861 105.649C120.727 105.275 120.364 105.054 120.049 105.156C119.735 105.257 119.588 105.643 119.721 106.017C119.855 106.391 120.218 106.612 120.533 106.51Z" fill="#F29111"/>
<path d="M123.255 99.985C123.57 99.8836 123.717 99.4977 123.584 99.1239C123.45 98.7497 123.087 98.5287 122.772 98.6301C122.457 98.7318 122.31 99.1173 122.444 99.4916C122.577 99.8654 122.941 100.086 123.255 99.985Z" fill="#F29111"/>
<path d="M123.841 101.635C124.156 101.534 124.303 101.148 124.17 100.774C124.036 100.4 123.673 100.179 123.358 100.28C123.043 100.382 122.896 100.768 123.03 101.142C123.163 101.516 123.526 101.737 123.841 101.635Z" fill="#F29111"/>
<path d="M124.443 103.354C124.757 103.252 124.905 102.867 124.771 102.493C124.638 102.119 124.274 101.898 123.96 101.999C123.645 102.101 123.498 102.486 123.631 102.86C123.765 103.235 124.128 103.456 124.443 103.354Z" fill="#F29111"/>
<path d="M125.048 105.073C125.363 104.971 125.51 104.586 125.376 104.212C125.243 103.838 124.88 103.617 124.565 103.718C124.25 103.82 124.103 104.205 124.237 104.579C124.37 104.953 124.734 105.174 125.048 105.073Z" fill="#F29111"/>
<path d="M115.111 100.643C115.426 100.542 115.573 100.156 115.439 99.7821C115.306 99.4079 114.942 99.1869 114.628 99.2883C114.313 99.39 114.166 99.7755 114.299 100.15C114.433 100.524 114.796 100.745 115.111 100.643Z" fill="#F29111"/>
<path d="M115.72 102.36C116.035 102.259 116.182 101.873 116.048 101.499C115.915 101.125 115.552 100.904 115.237 101.005C114.922 101.107 114.775 101.492 114.909 101.867C115.042 102.24 115.405 102.461 115.72 102.36Z" fill="#F29111"/>
<path d="M116.322 104.079C116.636 103.977 116.783 103.592 116.65 103.218C116.516 102.843 116.153 102.622 115.838 102.724C115.524 102.826 115.377 103.211 115.51 103.585C115.644 103.959 116.007 104.18 116.322 104.079Z" fill="#F29111"/>
<path d="M116.927 105.798C117.242 105.696 117.389 105.311 117.255 104.936C117.122 104.562 116.759 104.341 116.444 104.443C116.129 104.544 115.982 104.93 116.116 105.304C116.249 105.678 116.612 105.899 116.927 105.798Z" fill="#F29111"/>
<path d="M117.607 107.491C117.922 107.389 118.068 107.004 117.935 106.629C117.802 106.256 117.438 106.035 117.123 106.136C116.809 106.238 116.662 106.623 116.795 106.997C116.929 107.371 117.292 107.592 117.607 107.491Z" fill="#F29111"/>
<path d="M120.236 100.923C120.551 100.821 120.698 100.435 120.564 100.061C120.431 99.6872 120.067 99.4662 119.753 99.5676C119.438 99.669 119.291 100.055 119.424 100.429C119.558 100.803 119.921 101.024 120.236 100.923Z" fill="#F29111"/>
<path d="M120.841 102.641C121.156 102.54 121.303 102.154 121.17 101.78C121.036 101.406 120.673 101.185 120.358 101.286C120.043 101.388 119.896 101.773 120.03 102.147C120.163 102.522 120.527 102.743 120.841 102.641Z" fill="#F29111"/>
<path d="M121.447 104.358C121.761 104.256 121.908 103.871 121.775 103.497C121.642 103.123 121.278 102.902 120.963 103.003C120.649 103.104 120.502 103.49 120.635 103.864C120.769 104.238 121.132 104.459 121.447 104.358Z" fill="#F29111"/>
<path d="M122.056 106.077C122.371 105.975 122.518 105.59 122.384 105.215C122.251 104.841 121.888 104.621 121.573 104.722C121.258 104.823 121.111 105.209 121.244 105.583C121.378 105.957 121.741 106.178 122.056 106.077Z" fill="#F29111"/>
<path d="M125.361 101.202C125.676 101.1 125.823 100.715 125.689 100.341C125.556 99.9665 125.192 99.7455 124.878 99.8469C124.563 99.9486 124.416 100.334 124.549 100.708C124.683 101.082 125.046 101.303 125.361 101.202Z" fill="#F29111"/>
<path d="M125.962 102.919C126.277 102.817 126.424 102.432 126.291 102.057C126.157 101.683 125.794 101.462 125.479 101.564C125.164 101.665 125.017 102.051 125.151 102.425C125.284 102.799 125.648 103.02 125.962 102.919Z" fill="#F29111"/>
<path d="M126.548 104.571C126.863 104.469 127.01 104.084 126.877 103.71C126.743 103.336 126.38 103.115 126.065 103.216C125.75 103.318 125.603 103.703 125.737 104.077C125.87 104.451 126.233 104.672 126.548 104.571Z" fill="#F29111"/>
<path d="M113.693 110.649C114.008 110.547 114.155 110.162 114.021 109.788C113.888 109.414 113.524 109.193 113.21 109.294C112.895 109.396 112.748 109.781 112.881 110.155C113.015 110.529 113.378 110.751 113.693 110.649Z" fill="#F29111"/>
<path d="M114.298 112.368C114.613 112.266 114.76 111.881 114.627 111.506C114.493 111.132 114.13 110.911 113.815 111.013C113.5 111.114 113.353 111.5 113.487 111.874C113.62 112.248 113.984 112.469 114.298 112.368Z" fill="#F29111"/>
<path d="M115.193 110.147C115.507 110.046 115.655 109.66 115.521 109.286C115.388 108.912 115.024 108.691 114.71 108.792C114.395 108.894 114.248 109.279 114.381 109.653C114.515 110.028 114.878 110.249 115.193 110.147Z" fill="#F29111"/>
<path d="M115.798 111.866C116.113 111.764 116.26 111.379 116.126 111.005C115.993 110.63 115.63 110.409 115.315 110.511C115 110.612 114.853 110.998 114.987 111.372C115.12 111.746 115.484 111.967 115.798 111.866Z" fill="#F29111"/>
<path d="M112.197 111.151C112.512 111.049 112.658 110.664 112.525 110.29C112.392 109.915 112.028 109.695 111.713 109.796C111.399 109.898 111.252 110.283 111.385 110.657C111.519 111.031 111.882 111.252 112.197 111.151Z" fill="#F29111"/>
<path d="M112.802 112.87C113.117 112.768 113.264 112.383 113.131 112.008C112.997 111.634 112.634 111.413 112.319 111.515C112.004 111.616 111.857 112.002 111.991 112.376C112.124 112.75 112.487 112.971 112.802 112.87Z" fill="#F29111"/>
<path d="M116.689 109.645C117.004 109.544 117.151 109.158 117.017 108.784C116.884 108.41 116.52 108.189 116.206 108.29C115.891 108.392 115.744 108.777 115.877 109.152C116.011 109.526 116.374 109.747 116.689 109.645Z" fill="#F29111"/>
<path d="M117.294 111.362C117.609 111.26 117.756 110.875 117.623 110.501C117.489 110.126 117.126 109.905 116.811 110.007C116.496 110.109 116.349 110.494 116.483 110.868C116.616 111.243 116.98 111.463 117.294 111.362Z" fill="#F29111"/>
<path d="M119.708 108.708C120.023 108.606 120.17 108.22 120.037 107.847C119.903 107.472 119.54 107.251 119.225 107.353C118.911 107.454 118.764 107.84 118.897 108.214C119.03 108.588 119.394 108.809 119.708 108.708Z" fill="#F29111"/>
<path d="M120.318 110.426C120.632 110.325 120.78 109.939 120.646 109.565C120.513 109.191 120.149 108.97 119.835 109.071C119.52 109.173 119.373 109.559 119.506 109.933C119.64 110.307 120.003 110.528 120.318 110.426Z" fill="#F29111"/>
<path d="M124.158 107.292C124.472 107.19 124.62 106.804 124.486 106.43C124.353 106.056 123.989 105.835 123.675 105.937C123.36 106.038 123.213 106.424 123.346 106.798C123.48 107.172 123.843 107.393 124.158 107.292Z" fill="#F29111"/>
<path d="M124.763 109.01C125.078 108.909 125.225 108.523 125.091 108.149C124.958 107.775 124.595 107.554 124.28 107.655C123.965 107.757 123.818 108.143 123.952 108.517C124.085 108.891 124.448 109.112 124.763 109.01Z" fill="#F29111"/>
<path d="M121.138 108.227C121.453 108.126 121.6 107.74 121.466 107.366C121.333 106.992 120.97 106.771 120.655 106.872C120.34 106.974 120.193 107.359 120.327 107.734C120.46 108.107 120.823 108.329 121.138 108.227Z" fill="#F29111"/>
<path d="M121.744 109.946C122.058 109.844 122.205 109.459 122.072 109.085C121.938 108.71 121.575 108.489 121.261 108.591C120.946 108.693 120.799 109.078 120.932 109.452C121.066 109.826 121.429 110.047 121.744 109.946Z" fill="#F29111"/>
<path d="M125.654 106.79C125.968 106.688 126.115 106.302 125.982 105.929C125.849 105.554 125.485 105.333 125.171 105.435C124.856 105.536 124.709 105.922 124.842 106.296C124.976 106.67 125.339 106.891 125.654 106.79Z" fill="#F29111"/>
<path d="M126.259 108.508C126.574 108.407 126.721 108.021 126.588 107.647C126.454 107.273 126.091 107.052 125.776 107.154C125.461 107.255 125.314 107.641 125.448 108.015C125.581 108.389 125.944 108.61 126.259 108.508Z" fill="#F29111"/>
<path d="M118.212 109.21C118.527 109.108 118.674 108.722 118.541 108.348C118.407 107.974 118.044 107.753 117.729 107.855C117.414 107.956 117.267 108.342 117.401 108.716C117.534 109.09 117.897 109.311 118.212 109.21Z" fill="#F29111"/>
<path d="M118.818 110.928C119.133 110.827 119.28 110.441 119.146 110.067C119.013 109.693 118.649 109.472 118.335 109.573C118.02 109.675 117.873 110.061 118.006 110.435C118.14 110.809 118.503 111.03 118.818 110.928Z" fill="#F29111"/>
<path d="M122.634 107.727C122.949 107.626 123.096 107.24 122.963 106.866C122.829 106.492 122.466 106.271 122.151 106.372C121.836 106.474 121.689 106.859 121.823 107.234C121.956 107.608 122.319 107.829 122.634 107.727Z" fill="#F29111"/>
<path d="M123.24 109.444C123.554 109.342 123.701 108.957 123.568 108.583C123.434 108.208 123.071 107.987 122.756 108.089C122.442 108.191 122.295 108.576 122.428 108.95C122.562 109.325 122.925 109.546 123.24 109.444Z" fill="#F29111"/>
<path d="M127.154 106.288C127.469 106.186 127.616 105.8 127.482 105.427C127.349 105.052 126.985 104.831 126.671 104.933C126.356 105.035 126.209 105.42 126.342 105.794C126.476 106.168 126.839 106.389 127.154 106.288Z" fill="#F29111"/>
<path d="M127.759 108.006C128.074 107.905 128.221 107.519 128.087 107.145C127.954 106.771 127.591 106.55 127.276 106.652C126.961 106.753 126.814 107.139 126.948 107.513C127.081 107.887 127.445 108.108 127.759 108.006Z" fill="#F29111"/>
</g>
</g>
<mask id="mask1_2190_22948" style="mask-type:luminance" maskUnits="userSpaceOnUse" x="111" y="98" width="17" height="14">
<path d="M127.143 106.613C127.143 106.613 122.554 104.11 118.567 105.397C114.505 106.685 112.774 111.978 112.474 111.334C110.518 105.969 112.248 100.533 116.31 99.2457C120.372 97.9584 125.187 101.249 127.143 106.613Z" fill="white"/>
</mask>
<g mask="url(#mask1_2190_22948)">
<path d="M111.587 104.866C111.902 104.764 112.049 104.379 111.916 104.005C111.782 103.631 111.419 103.41 111.104 103.511C110.789 103.613 110.642 103.998 110.776 104.372C110.909 104.746 111.273 104.967 111.587 104.866Z" fill="#F29111"/>
<path d="M112.267 106.563C112.582 106.461 112.729 106.076 112.595 105.702C112.462 105.328 112.098 105.107 111.784 105.208C111.469 105.31 111.322 105.695 111.455 106.069C111.589 106.444 111.952 106.665 112.267 106.563Z" fill="#F29111"/>
<path d="M112.872 108.282C113.187 108.18 113.334 107.795 113.201 107.42C113.067 107.047 112.704 106.826 112.389 106.927C112.075 107.028 111.927 107.414 112.061 107.788C112.194 108.162 112.558 108.383 112.872 108.282Z" fill="#F29111"/>
<path d="M111.9 100.997C112.215 100.895 112.362 100.51 112.228 100.135C112.095 99.7612 111.731 99.5402 111.417 99.6419C111.102 99.7433 110.955 100.129 111.088 100.503C111.222 100.877 111.585 101.098 111.9 100.997Z" fill="#F29111"/>
<path d="M112.482 102.647C112.797 102.546 112.943 102.16 112.81 101.786C112.677 101.412 112.313 101.191 111.998 101.292C111.684 101.394 111.537 101.779 111.67 102.154C111.804 102.528 112.167 102.748 112.482 102.647Z" fill="#F29111"/>
<path d="M113.087 104.366C113.402 104.264 113.549 103.879 113.416 103.505C113.282 103.131 112.919 102.91 112.604 103.011C112.289 103.113 112.142 103.498 112.276 103.872C112.409 104.246 112.772 104.467 113.087 104.366Z" fill="#F29111"/>
<path d="M113.693 106.083C114.008 105.981 114.155 105.596 114.021 105.222C113.888 104.847 113.524 104.626 113.21 104.728C112.895 104.829 112.748 105.215 112.881 105.589C113.015 105.963 113.378 106.184 113.693 106.083Z" fill="#F29111"/>
<path d="M114.369 107.778C114.683 107.676 114.83 107.291 114.697 106.917C114.564 106.543 114.2 106.322 113.885 106.423C113.57 106.524 113.424 106.91 113.557 107.284C113.69 107.658 114.054 107.879 114.369 107.778Z" fill="#F29111"/>
<path d="M111.349 108.713C111.664 108.612 111.811 108.226 111.677 107.852C111.544 107.478 111.18 107.257 110.866 107.359C110.551 107.46 110.404 107.846 110.538 108.22C110.671 108.594 111.034 108.815 111.349 108.713Z" fill="#F29111"/>
<path d="M113.396 100.495C113.711 100.393 113.858 100.008 113.724 99.6334C113.591 99.2592 113.227 99.0383 112.913 99.14C112.598 99.2414 112.451 99.6269 112.584 100.001C112.718 100.375 113.081 100.596 113.396 100.495Z" fill="#F29111"/>
<path d="M114.005 102.211C114.32 102.11 114.467 101.724 114.334 101.35C114.2 100.976 113.837 100.755 113.522 100.857C113.207 100.958 113.06 101.344 113.194 101.718C113.327 102.092 113.69 102.313 114.005 102.211Z" fill="#F29111"/>
<path d="M114.584 103.864C114.898 103.762 115.045 103.377 114.912 103.003C114.778 102.628 114.415 102.407 114.1 102.509C113.785 102.611 113.639 102.996 113.772 103.37C113.905 103.744 114.269 103.965 114.584 103.864Z" fill="#F29111"/>
<path d="M115.193 105.581C115.507 105.479 115.655 105.094 115.521 104.719C115.388 104.345 115.024 104.124 114.71 104.226C114.395 104.327 114.248 104.713 114.381 105.087C114.515 105.461 114.878 105.682 115.193 105.581Z" fill="#F29111"/>
<path d="M115.798 107.299C116.113 107.198 116.26 106.812 116.126 106.438C115.993 106.064 115.63 105.843 115.315 105.945C115 106.046 114.853 106.432 114.987 106.806C115.12 107.18 115.484 107.401 115.798 107.299Z" fill="#F29111"/>
<path d="M116.392 99.4889C116.707 99.3872 116.854 99.0017 116.72 98.6274C116.587 98.2536 116.224 98.0326 115.909 98.134C115.594 98.2354 115.447 98.6209 115.581 98.9951C115.714 99.3693 116.077 99.5903 116.392 99.4889Z" fill="#F29111"/>
<path d="M117.001 101.208C117.316 101.106 117.463 100.72 117.33 100.346C117.196 99.9723 116.833 99.7514 116.518 99.8527C116.204 99.9541 116.056 100.34 116.19 100.714C116.323 101.088 116.687 101.309 117.001 101.208Z" fill="#F29111"/>
<path d="M117.603 102.924C117.918 102.823 118.065 102.437 117.931 102.063C117.798 101.689 117.434 101.468 117.12 101.57C116.805 101.671 116.658 102.056 116.791 102.431C116.925 102.805 117.288 103.026 117.603 102.924Z" fill="#F29111"/>
<path d="M118.212 104.643C118.527 104.541 118.674 104.156 118.541 103.782C118.407 103.408 118.044 103.187 117.729 103.288C117.414 103.39 117.267 103.775 117.401 104.149C117.534 104.524 117.897 104.745 118.212 104.643Z" fill="#F29111"/>
<path d="M118.818 106.362C119.133 106.26 119.28 105.875 119.146 105.5C119.013 105.127 118.649 104.906 118.335 105.007C118.02 105.108 117.873 105.494 118.006 105.868C118.14 106.242 118.503 106.463 118.818 106.362Z" fill="#F29111"/>
<path d="M121.517 99.7702C121.832 99.6688 121.979 99.2832 121.845 98.909C121.712 98.5348 121.348 98.3139 121.034 98.4152C120.719 98.517 120.572 98.9025 120.705 99.2767C120.839 99.6506 121.202 99.8715 121.517 99.7702Z" fill="#F29111"/>
<path d="M122.122 101.487C122.437 101.386 122.584 101 122.451 100.626C122.317 100.252 121.954 100.031 121.639 100.132C121.325 100.234 121.177 100.619 121.311 100.994C121.444 101.367 121.808 101.588 122.122 101.487Z" fill="#F29111"/>
<path d="M122.728 103.206C123.043 103.104 123.19 102.719 123.056 102.345C122.923 101.97 122.559 101.749 122.245 101.851C121.93 101.952 121.783 102.338 121.916 102.712C122.05 103.086 122.413 103.307 122.728 103.206Z" fill="#F29111"/>
<path d="M123.31 104.854C123.625 104.752 123.772 104.367 123.638 103.993C123.505 103.619 123.142 103.398 122.827 103.499C122.512 103.601 122.365 103.986 122.499 104.36C122.632 104.735 122.995 104.956 123.31 104.854Z" fill="#F29111"/>
<path d="M117.916 99.0553C118.23 98.9536 118.377 98.5681 118.244 98.1942C118.11 97.82 117.747 97.599 117.432 97.7004C117.118 97.8021 116.971 98.1877 117.104 98.5615C117.238 98.9357 117.601 99.1567 117.916 99.0553Z" fill="#F29111"/>
<path d="M118.497 100.706C118.812 100.604 118.959 100.218 118.826 99.8442C118.692 99.4704 118.329 99.2494 118.014 99.3508C117.7 99.4522 117.552 99.8381 117.686 100.212C117.819 100.586 118.183 100.807 118.497 100.706Z" fill="#F29111"/>
<path d="M119.099 102.424C119.414 102.323 119.561 101.937 119.427 101.563C119.294 101.189 118.931 100.968 118.616 101.07C118.301 101.171 118.154 101.557 118.288 101.931C118.421 102.305 118.784 102.526 119.099 102.424Z" fill="#F29111"/>
<path d="M119.708 104.141C120.023 104.04 120.17 103.654 120.037 103.28C119.903 102.906 119.54 102.685 119.225 102.786C118.911 102.888 118.764 103.273 118.897 103.647C119.03 104.022 119.394 104.243 119.708 104.141Z" fill="#F29111"/>
<path d="M120.314 105.86C120.629 105.758 120.776 105.373 120.642 104.999C120.509 104.625 120.145 104.404 119.831 104.505C119.516 104.606 119.369 104.992 119.503 105.366C119.636 105.74 119.999 105.961 120.314 105.86Z" fill="#F29111"/>
<path d="M123.013 99.268C123.328 99.1666 123.475 98.7811 123.341 98.4069C123.208 98.0327 122.845 97.8117 122.53 97.9134C122.215 98.0148 122.068 98.4003 122.202 98.7746C122.335 99.1484 122.698 99.3697 123.013 99.268Z" fill="#F29111"/>
<path d="M123.623 100.985C123.937 100.883 124.084 100.498 123.951 100.124C123.817 99.7495 123.454 99.5285 123.139 99.6302C122.824 99.7316 122.678 100.117 122.811 100.491C122.944 100.865 123.308 101.087 123.623 100.985Z" fill="#F29111"/>
<path d="M124.228 102.704C124.543 102.602 124.69 102.217 124.556 101.842C124.423 101.468 124.06 101.247 123.745 101.349C123.43 101.45 123.283 101.836 123.417 102.21C123.55 102.584 123.913 102.805 124.228 102.704Z" fill="#F29111"/>
<path d="M124.833 104.422C125.148 104.321 125.295 103.935 125.162 103.561C125.028 103.187 124.665 102.966 124.35 103.068C124.036 103.169 123.889 103.555 124.022 103.929C124.156 104.303 124.519 104.524 124.833 104.422Z" fill="#F29111"/>
<path d="M114.896 99.9925C115.211 99.8911 115.358 99.5056 115.224 99.1313C115.091 98.7575 114.728 98.5365 114.413 98.6379C114.098 98.7393 113.951 99.1248 114.084 99.499C114.218 99.8732 114.581 100.094 114.896 99.9925Z" fill="#F29111"/>
<path d="M115.505 101.711C115.82 101.61 115.967 101.224 115.834 100.85C115.7 100.476 115.337 100.255 115.022 100.357C114.707 100.458 114.56 100.844 114.694 101.218C114.827 101.592 115.191 101.813 115.505 101.711Z" fill="#F29111"/>
<path d="M116.107 103.428C116.422 103.327 116.569 102.941 116.435 102.567C116.302 102.193 115.938 101.972 115.624 102.073C115.309 102.175 115.162 102.56 115.295 102.935C115.429 103.309 115.792 103.53 116.107 103.428Z" fill="#F29111"/>
<path d="M116.712 105.147C117.027 105.045 117.174 104.66 117.041 104.286C116.907 103.912 116.544 103.691 116.229 103.792C115.914 103.894 115.767 104.279 115.901 104.653C116.034 105.028 116.398 105.248 116.712 105.147Z" fill="#F29111"/>
<path d="M117.294 106.795C117.609 106.694 117.756 106.308 117.623 105.934C117.489 105.56 117.126 105.339 116.811 105.441C116.496 105.542 116.349 105.928 116.483 106.302C116.616 106.676 116.98 106.897 117.294 106.795Z" fill="#F29111"/>
<path d="M120.021 100.27C120.336 100.169 120.483 99.7832 120.349 99.409C120.216 99.0348 119.853 98.8139 119.538 98.9152C119.223 99.017 119.076 99.4025 119.209 99.7767C119.343 100.151 119.706 100.372 120.021 100.27Z" fill="#F29111"/>
<path d="M120.599 101.923C120.914 101.821 121.061 101.435 120.927 101.061C120.794 100.687 120.43 100.466 120.116 100.568C119.801 100.669 119.654 101.055 119.788 101.429C119.921 101.803 120.284 102.024 120.599 101.923Z" fill="#F29111"/>
<path d="M121.208 103.639C121.523 103.538 121.67 103.152 121.537 102.778C121.403 102.404 121.04 102.183 120.725 102.284C120.41 102.386 120.263 102.772 120.397 103.146C120.53 103.52 120.894 103.741 121.208 103.639Z" fill="#F29111"/>
<path d="M121.814 105.358C122.129 105.256 122.275 104.871 122.142 104.497C122.009 104.123 121.645 103.902 121.331 104.003C121.016 104.105 120.869 104.49 121.002 104.864C121.136 105.238 121.499 105.459 121.814 105.358Z" fill="#F29111"/>
<path d="M125.119 100.483C125.433 100.381 125.58 99.9959 125.447 99.6217C125.313 99.2475 124.95 99.0266 124.636 99.1283C124.321 99.2296 124.174 99.6152 124.307 99.9894C124.441 100.363 124.804 100.585 125.119 100.483Z" fill="#F29111"/>
<path d="M125.724 102.2C126.039 102.098 126.186 101.713 126.052 101.339C125.919 100.964 125.555 100.743 125.241 100.845C124.926 100.946 124.779 101.332 124.913 101.706C125.046 102.08 125.409 102.301 125.724 102.2Z" fill="#F29111"/>
<path d="M126.329 103.918C126.644 103.817 126.791 103.431 126.658 103.057C126.524 102.683 126.161 102.462 125.846 102.564C125.532 102.665 125.384 103.051 125.518 103.425C125.651 103.799 126.015 104.02 126.329 103.918Z" fill="#F29111"/>
<path d="M113.455 109.93C113.769 109.829 113.916 109.443 113.783 109.069C113.649 108.695 113.286 108.474 112.971 108.576C112.656 108.677 112.51 109.062 112.643 109.437C112.776 109.811 113.14 110.032 113.455 109.93Z" fill="#F29111"/>
<path d="M114.06 111.649C114.375 111.547 114.522 111.162 114.388 110.788C114.255 110.414 113.892 110.193 113.577 110.294C113.262 110.396 113.115 110.781 113.249 111.155C113.382 111.53 113.745 111.751 114.06 111.649Z" fill="#F29111"/>
<path d="M114.978 109.497C115.293 109.395 115.44 109.009 115.306 108.635C115.173 108.261 114.81 108.04 114.495 108.142C114.18 108.243 114.033 108.629 114.167 109.003C114.3 109.377 114.663 109.598 114.978 109.497Z" fill="#F29111"/>
<path d="M115.583 111.214C115.898 111.112 116.045 110.726 115.912 110.352C115.778 109.978 115.415 109.757 115.1 109.859C114.786 109.96 114.639 110.346 114.772 110.72C114.906 111.094 115.269 111.315 115.583 111.214Z" fill="#F29111"/>
<path d="M111.954 110.432C112.269 110.331 112.416 109.945 112.283 109.571C112.149 109.197 111.786 108.976 111.471 109.077C111.157 109.179 111.009 109.564 111.143 109.939C111.276 110.313 111.64 110.534 111.954 110.432Z" fill="#F29111"/>
<path d="M112.564 112.151C112.879 112.049 113.026 111.664 112.892 111.29C112.759 110.915 112.396 110.695 112.081 110.796C111.766 110.898 111.619 111.283 111.752 111.657C111.886 112.032 112.249 112.253 112.564 112.151Z" fill="#F29111"/>
<path d="M116.474 108.995C116.789 108.893 116.936 108.508 116.802 108.134C116.669 107.759 116.305 107.538 115.991 107.64C115.676 107.742 115.529 108.127 115.663 108.501C115.796 108.875 116.159 109.096 116.474 108.995Z" fill="#F29111"/>
<path d="M117.076 110.712C117.39 110.61 117.537 110.224 117.404 109.85C117.271 109.476 116.907 109.255 116.592 109.357C116.277 109.458 116.131 109.844 116.264 110.218C116.397 110.592 116.761 110.813 117.076 110.712Z" fill="#F29111"/>
<path d="M119.423 108.081C119.738 107.979 119.885 107.593 119.751 107.219C119.618 106.845 119.255 106.624 118.94 106.726C118.625 106.827 118.478 107.213 118.612 107.587C118.745 107.961 119.109 108.182 119.423 108.081Z" fill="#F29111"/>
<path d="M120.005 109.731C120.32 109.63 120.467 109.244 120.334 108.87C120.2 108.496 119.837 108.275 119.522 108.376C119.207 108.478 119.06 108.863 119.194 109.237C119.327 109.612 119.69 109.833 120.005 109.731Z" fill="#F29111"/>
<path d="M123.916 106.573C124.23 106.471 124.377 106.086 124.244 105.712C124.11 105.338 123.747 105.117 123.432 105.218C123.118 105.32 122.971 105.705 123.104 106.079C123.238 106.453 123.601 106.674 123.916 106.573Z" fill="#F29111"/>
<path d="M124.525 108.292C124.84 108.19 124.986 107.804 124.853 107.431C124.72 107.056 124.356 106.835 124.041 106.937C123.727 107.038 123.58 107.424 123.713 107.798C123.847 108.172 124.21 108.393 124.525 108.292Z" fill="#F29111"/>
<path d="M120.919 107.579C121.234 107.477 121.381 107.091 121.248 106.717C121.114 106.343 120.751 106.122 120.436 106.224C120.121 106.325 119.974 106.711 120.108 107.085C120.241 107.459 120.605 107.68 120.919 107.579Z" fill="#F29111"/>
<path d="M121.529 109.296C121.844 109.194 121.991 108.808 121.857 108.434C121.724 108.06 121.36 107.839 121.046 107.941C120.731 108.042 120.584 108.428 120.717 108.802C120.851 109.176 121.214 109.397 121.529 109.296Z" fill="#F29111"/>
<path d="M125.435 106.139C125.75 106.038 125.897 105.652 125.763 105.278C125.63 104.904 125.266 104.683 124.952 104.785C124.637 104.886 124.49 105.271 124.623 105.646C124.757 106.02 125.12 106.241 125.435 106.139Z" fill="#F29111"/>
<path d="M126.021 107.79C126.336 107.688 126.483 107.302 126.349 106.929C126.216 106.554 125.853 106.333 125.538 106.435C125.223 106.536 125.076 106.922 125.209 107.296C125.343 107.67 125.706 107.891 126.021 107.79Z" fill="#F29111"/>
<path d="M117.9 108.516C118.215 108.415 118.362 108.029 118.228 107.655C118.095 107.281 117.731 107.06 117.417 107.161C117.102 107.263 116.955 107.648 117.088 108.023C117.222 108.396 117.585 108.618 117.9 108.516Z" fill="#F29111"/>
<path d="M118.576 110.212C118.89 110.11 119.038 109.724 118.904 109.35C118.771 108.976 118.407 108.755 118.093 108.857C117.778 108.958 117.631 109.344 117.764 109.718C117.898 110.092 118.261 110.313 118.576 110.212Z" fill="#F29111"/>
<path d="M122.416 107.077C122.73 106.975 122.877 106.59 122.744 106.216C122.61 105.841 122.247 105.621 121.932 105.722C121.617 105.824 121.471 106.209 121.604 106.583C121.737 106.957 122.101 107.178 122.416 107.077Z" fill="#F29111"/>
<path d="M123.025 108.796C123.34 108.694 123.487 108.308 123.353 107.934C123.22 107.56 122.856 107.339 122.542 107.441C122.227 107.542 122.08 107.928 122.213 108.302C122.347 108.676 122.71 108.897 123.025 108.796Z" fill="#F29111"/>
<path d="M126.935 105.637C127.25 105.536 127.397 105.15 127.263 104.776C127.13 104.402 126.767 104.181 126.452 104.283C126.137 104.384 125.99 104.769 126.123 105.144C126.257 105.518 126.62 105.739 126.935 105.637Z" fill="#F29111"/>
<path d="M127.544 107.354C127.859 107.253 128.006 106.867 127.873 106.493C127.739 106.119 127.376 105.898 127.061 105.999C126.746 106.101 126.6 106.486 126.733 106.861C126.866 107.235 127.23 107.456 127.544 107.354Z" fill="#F29111"/>
</g>
<g opacity="0.2">
<mask id="mask2_2190_22948" style="mask-type:luminance" maskUnits="userSpaceOnUse" x="91" y="104" width="13" height="17">
<g opacity="0.2">
<path d="M100.429 120.419C103.459 119.442 104.67 115.162 103.136 110.86C101.601 106.558 97.9011 103.862 94.8717 104.839C91.8423 105.816 90.6303 110.096 92.1649 114.398C93.6996 118.7 97.3994 121.396 100.429 120.419Z" fill="white"/>
</g>
</mask>
<g mask="url(#mask2_2190_22948)">
<path d="M91.3654 111.017C91.6015 110.941 91.6847 110.576 91.5513 110.202C91.418 109.828 91.1184 109.586 90.8823 109.663C90.6462 109.738 90.5631 110.104 90.6964 110.478C90.8301 110.852 91.1294 111.093 91.3654 111.017Z" fill="#F29111"/>
<path d="M91.9514 112.586C92.1874 112.509 92.2706 112.144 92.1373 111.77C92.0039 111.396 91.7043 111.155 91.4682 111.231C91.2322 111.307 91.149 111.672 91.2823 112.046C91.416 112.42 91.7153 112.662 91.9514 112.586Z" fill="#F29111"/>
<path d="M92.5609 114.22C92.797 114.144 92.8801 113.779 92.7468 113.405C92.6131 113.031 92.3135 112.789 92.0778 112.866C91.8417 112.942 91.7582 113.307 91.8919 113.681C92.0252 114.055 92.3248 114.297 92.5609 114.22Z" fill="#F29111"/>
<path d="M93.1037 115.881C93.3398 115.804 93.4229 115.439 93.2896 115.065C93.1559 114.691 92.8566 114.45 92.6206 114.526C92.3845 114.602 92.3013 114.967 92.4347 115.341C92.568 115.715 92.8676 115.957 93.1037 115.881Z" fill="#F29111"/>
<path d="M93.6857 117.449C93.9218 117.373 94.005 117.008 93.8716 116.634C93.7383 116.259 93.4387 116.018 93.2026 116.094C92.9665 116.17 92.8834 116.535 93.0167 116.909C93.1504 117.283 93.4497 117.525 93.6857 117.449Z" fill="#F29111"/>
<path d="M94.2954 119.086C94.5314 119.009 94.6146 118.644 94.4809 118.27C94.3476 117.896 94.0479 117.655 93.8119 117.731C93.5758 117.807 93.4926 118.172 93.6263 118.546C93.7596 118.92 94.0593 119.162 94.2954 119.086Z" fill="#F29111"/>
<path d="M94.225 108.291C94.4611 108.214 94.5443 107.85 94.4106 107.475C94.2773 107.101 93.9776 106.86 93.7416 106.936C93.5055 107.012 93.4223 107.377 93.556 107.751C93.6893 108.125 93.989 108.367 94.225 108.291Z" fill="#F29111"/>
<path d="M94.811 109.859C95.0471 109.783 95.1302 109.418 94.9965 109.044C94.8632 108.67 94.5636 108.428 94.3275 108.504C94.0914 108.58 94.0083 108.945 94.1419 109.319C94.2753 109.694 94.5749 109.935 94.811 109.859Z" fill="#F29111"/>
<path d="M95.3459 111.517C95.582 111.441 95.6651 111.076 95.5318 110.702C95.3985 110.328 95.0988 110.086 94.8628 110.163C94.6267 110.238 94.5435 110.604 94.6769 110.978C94.8102 111.352 95.1098 111.593 95.3459 111.517Z" fill="#F29111"/>
<path d="M95.9594 113.154C96.1955 113.078 96.2787 112.713 96.145 112.339C96.0117 111.965 95.712 111.723 95.4759 111.799C95.2399 111.875 95.1567 112.24 95.2904 112.614C95.4237 112.989 95.7233 113.23 95.9594 113.154Z" fill="#F29111"/>
<path d="M96.5415 114.722C96.7775 114.646 96.8607 114.281 96.727 113.907C96.5937 113.533 96.294 113.291 96.058 113.368C95.8219 113.444 95.7387 113.809 95.8724 114.183C96.0057 114.557 96.3054 114.798 96.5415 114.722Z" fill="#F29111"/>
<path d="M97.0803 116.383C97.3164 116.306 97.3995 115.941 97.2662 115.567C97.1329 115.193 96.8332 114.951 96.5971 115.028C96.3611 115.104 96.2779 115.469 96.4112 115.843C96.5449 116.217 96.8442 116.459 97.0803 116.383Z" fill="#F29111"/>
<path d="M97.6662 117.951C97.9023 117.874 97.9854 117.509 97.8521 117.136C97.7188 116.761 97.4191 116.52 97.1831 116.596C96.947 116.672 96.8638 117.037 96.9972 117.411C97.1308 117.785 97.4301 118.027 97.6662 117.951Z" fill="#F29111"/>
<path d="M97.5959 107.156C97.832 107.08 97.9151 106.715 97.7818 106.341C97.6485 105.967 97.3488 105.725 97.1128 105.801C96.8767 105.877 96.7935 106.242 96.9269 106.616C97.0605 106.991 97.3598 107.232 97.5959 107.156Z" fill="#F29111"/>
<path d="M98.2055 108.791C98.4416 108.714 98.5247 108.35 98.3911 107.975C98.2577 107.601 97.9581 107.36 97.722 107.436C97.486 107.512 97.4028 107.877 97.5365 108.251C97.6698 108.625 97.9694 108.867 98.2055 108.791Z" fill="#F29111"/>
<path d="M98.8147 110.427C99.0507 110.351 99.1339 109.986 99.0006 109.612C98.8669 109.238 98.5676 108.996 98.3315 109.073C98.0954 109.149 98.0123 109.514 98.1456 109.888C98.2789 110.262 98.5786 110.504 98.8147 110.427Z" fill="#F29111"/>
<path d="M99.3303 112.019C99.5664 111.943 99.6495 111.578 99.5162 111.204C99.3829 110.83 99.0832 110.588 98.8471 110.664C98.6111 110.74 98.5279 111.105 98.6612 111.48C98.7946 111.854 99.0942 112.095 99.3303 112.019Z" fill="#F29111"/>
<path d="M99.9399 113.656C100.176 113.58 100.259 113.215 100.125 112.841C99.9921 112.467 99.6925 112.225 99.4564 112.301C99.2203 112.377 99.1372 112.742 99.2708 113.116C99.4042 113.491 99.7038 113.732 99.9399 113.656Z" fill="#F29111"/>
<path d="M100.526 115.224C100.762 115.148 100.845 114.783 100.711 114.409C100.578 114.035 100.278 113.793 100.042 113.87C99.8063 113.945 99.7231 114.311 99.8568 114.685C99.9901 115.059 100.29 115.3 100.526 115.224Z" fill="#F29111"/>
<path d="M101.061 116.885C101.297 116.808 101.38 116.443 101.247 116.069C101.113 115.695 100.814 115.453 100.578 115.53C100.342 115.606 100.258 115.971 100.392 116.345C100.525 116.719 100.825 116.961 101.061 116.885Z" fill="#F29111"/>
<path d="M101.065 106.064C101.301 105.988 101.384 105.623 101.251 105.249C101.117 104.875 100.818 104.633 100.582 104.709C100.345 104.785 100.262 105.15 100.396 105.524C100.529 105.899 100.829 106.14 101.065 106.064Z" fill="#F29111"/>
<path d="M101.604 107.724C101.84 107.648 101.923 107.283 101.79 106.909C101.656 106.535 101.357 106.293 101.121 106.37C100.885 106.445 100.801 106.81 100.935 107.185C101.068 107.559 101.368 107.8 101.604 107.724Z" fill="#F29111"/>
<path d="M102.186 109.293C102.422 109.216 102.505 108.851 102.372 108.477C102.238 108.103 101.939 107.862 101.702 107.938C101.466 108.014 101.383 108.379 101.517 108.753C101.65 109.127 101.95 109.369 102.186 109.293Z" fill="#F29111"/>
<path d="M102.795 110.929C103.031 110.853 103.114 110.488 102.981 110.114C102.847 109.74 102.548 109.498 102.312 109.575C102.076 109.651 101.993 110.016 102.126 110.39C102.259 110.764 102.559 111.005 102.795 110.929Z" fill="#F29111"/>
<path d="M103.311 112.521C103.547 112.445 103.63 112.08 103.497 111.706C103.363 111.332 103.064 111.09 102.828 111.166C102.592 111.242 102.508 111.607 102.642 111.981C102.775 112.356 103.075 112.597 103.311 112.521Z" fill="#F29111"/>
<path d="M103.916 114.158C104.153 114.082 104.236 113.717 104.102 113.343C103.969 112.969 103.669 112.727 103.433 112.803C103.197 112.879 103.114 113.244 103.247 113.618C103.381 113.993 103.68 114.234 103.916 114.158Z" fill="#F29111"/>
<path d="M104.529 115.793C104.766 115.716 104.849 115.351 104.715 114.977C104.582 114.603 104.282 114.362 104.046 114.438C103.81 114.514 103.727 114.879 103.86 115.253C103.994 115.627 104.293 115.869 104.529 115.793Z" fill="#F29111"/>
<path d="M91.9633 109.001C92.1994 108.926 92.2826 108.56 92.1489 108.186C92.0156 107.812 91.7159 107.571 91.4798 107.647C91.2438 107.723 91.1606 108.088 91.2943 108.462C91.4276 108.836 91.7273 109.078 91.9633 109.001Z" fill="#F29111"/>
<path d="M92.5686 110.636C92.8046 110.56 92.8878 110.195 92.7545 109.821C92.6211 109.447 92.3215 109.206 92.0854 109.282C91.8493 109.358 91.7662 109.723 91.8995 110.097C92.0332 110.471 92.3325 110.712 92.5686 110.636Z" fill="#F29111"/>
<path d="M93.0842 112.23C93.3203 112.154 93.4034 111.789 93.2701 111.415C93.1368 111.041 92.8371 110.799 92.601 110.875C92.365 110.952 92.2818 111.316 92.4151 111.691C92.5488 112.065 92.8481 112.306 93.0842 112.23Z" fill="#F29111"/>
<path d="M93.6977 113.865C93.9338 113.789 94.0169 113.424 93.8833 113.05C93.7499 112.675 93.4503 112.434 93.2142 112.51C92.9781 112.586 92.895 112.951 93.0287 113.325C93.162 113.699 93.4616 113.941 93.6977 113.865Z" fill="#F29111"/>
<path d="M94.2797 115.435C94.5157 115.359 94.5989 114.994 94.4656 114.62C94.3319 114.246 94.0323 114.004 93.7962 114.08C93.5605 114.157 93.4769 114.522 93.6106 114.896C93.7439 115.27 94.0436 115.511 94.2797 115.435Z" fill="#F29111"/>
<path d="M94.8186 117.093C95.0546 117.017 95.1378 116.652 95.0045 116.278C94.8711 115.904 94.5715 115.663 94.3354 115.739C94.0993 115.815 94.0162 116.18 94.1495 116.554C94.2832 116.928 94.5825 117.169 94.8186 117.093Z" fill="#F29111"/>
<path d="M95.4282 118.73C95.6642 118.654 95.7474 118.289 95.6137 117.915C95.4804 117.541 95.1808 117.299 94.9447 117.375C94.7086 117.452 94.6255 117.817 94.7591 118.191C94.8925 118.565 95.1921 118.806 95.4282 118.73Z" fill="#F29111"/>
<path d="M95.3579 107.933C95.5939 107.857 95.6771 107.492 95.5434 107.118C95.4101 106.744 95.1104 106.502 94.8744 106.578C94.6383 106.655 94.5551 107.02 94.6888 107.394C94.8221 107.768 95.1218 108.009 95.3579 107.933Z" fill="#F29111"/>
<path d="M95.9399 109.503C96.176 109.427 96.2591 109.062 96.1255 108.688C95.9921 108.314 95.6925 108.073 95.4564 108.149C95.2203 108.225 95.1372 108.59 95.2708 108.964C95.4042 109.338 95.7038 109.58 95.9399 109.503Z" fill="#F29111"/>
<path d="M96.5529 111.138C96.789 111.062 96.8722 110.697 96.7388 110.323C96.6055 109.949 96.3059 109.708 96.0698 109.783C95.8337 109.86 95.7506 110.225 95.8839 110.599C96.0172 110.973 96.3169 111.214 96.5529 111.138Z" fill="#F29111"/>
<path d="M97.0647 112.732C97.3007 112.656 97.3839 112.291 97.2506 111.917C97.1172 111.543 96.8176 111.301 96.5815 111.377C96.3454 111.454 96.2623 111.819 96.3956 112.192C96.5289 112.567 96.8286 112.808 97.0647 112.732Z" fill="#F29111"/>
<path d="M97.6743 114.367C97.9103 114.291 97.9935 113.926 97.8598 113.552C97.7265 113.177 97.4269 112.936 97.1908 113.012C96.9547 113.088 96.8716 113.453 97.0052 113.827C97.1386 114.201 97.4382 114.443 97.6743 114.367Z" fill="#F29111"/>
<path d="M98.2873 116.004C98.5234 115.927 98.6065 115.562 98.4732 115.189C98.3395 114.814 98.0402 114.573 97.8042 114.649C97.5681 114.725 97.4849 115.09 97.6183 115.464C97.7516 115.838 98.0512 116.08 98.2873 116.004Z" fill="#F29111"/>
<path d="M98.7951 117.595C99.0312 117.519 99.1144 117.154 98.981 116.78C98.8477 116.406 98.5481 116.165 98.312 116.241C98.0759 116.317 97.9928 116.682 98.1261 117.056C98.2598 117.43 98.559 117.671 98.7951 117.595Z" fill="#F29111"/>
<path d="M98.799 106.777C99.0351 106.701 99.1183 106.336 98.9849 105.962C98.8513 105.588 98.552 105.346 98.3159 105.422C98.0798 105.498 97.9967 105.863 98.13 106.237C98.2633 106.612 98.563 106.853 98.799 106.777Z" fill="#F29111"/>
<path d="M99.3383 108.435C99.5744 108.359 99.6576 107.994 99.5239 107.62C99.3906 107.246 99.0909 107.004 98.8548 107.08C98.6188 107.157 98.5356 107.522 98.6693 107.896C98.8026 108.27 99.1023 108.511 99.3383 108.435Z" fill="#F29111"/>
<path d="M99.9243 110.006C100.16 109.929 100.243 109.564 100.11 109.191C99.9765 108.816 99.6769 108.575 99.4408 108.651C99.2047 108.727 99.1216 109.092 99.2552 109.466C99.3886 109.84 99.6882 110.082 99.9243 110.006Z" fill="#F29111"/>
<path d="M100.533 111.64C100.769 111.564 100.853 111.199 100.719 110.825C100.586 110.451 100.286 110.209 100.05 110.285C99.8142 110.362 99.731 110.727 99.8644 111.101C99.9977 111.475 100.297 111.716 100.533 111.64Z" fill="#F29111"/>
<path d="M101.069 113.301C101.305 113.224 101.388 112.859 101.254 112.485C101.121 112.111 100.821 111.87 100.585 111.946C100.349 112.022 100.266 112.387 100.4 112.761C100.533 113.135 100.833 113.376 101.069 113.301Z" fill="#F29111"/>
<path d="M101.655 114.869C101.891 114.793 101.974 114.428 101.84 114.054C101.707 113.679 101.407 113.438 101.171 113.514C100.935 113.59 100.852 113.955 100.986 114.329C101.119 114.703 101.419 114.945 101.655 114.869Z" fill="#F29111"/>
<path d="M102.264 116.506C102.5 116.429 102.583 116.064 102.45 115.691C102.316 115.316 102.017 115.075 101.781 115.151C101.545 115.227 101.462 115.592 101.595 115.966C101.728 116.34 102.028 116.582 102.264 116.506Z" fill="#F29111"/>
<path d="M93.0922 108.646C93.3283 108.57 93.4115 108.205 93.2778 107.831C93.1445 107.457 92.8448 107.215 92.6087 107.291C92.3727 107.368 92.2895 107.733 92.4232 108.107C92.5565 108.481 92.8562 108.722 93.0922 108.646Z" fill="#F29111"/>
<path d="M93.6781 110.214C93.9142 110.138 93.9973 109.773 93.864 109.399C93.7303 109.025 93.4307 108.783 93.1949 108.86C92.9589 108.936 92.8754 109.301 93.009 109.675C93.1424 110.049 93.442 110.291 93.6781 110.214Z" fill="#F29111"/>
<path d="M94.217 111.875C94.4531 111.799 94.5362 111.434 94.4029 111.059C94.2696 110.685 93.9699 110.444 93.7339 110.52C93.4978 110.596 93.4146 110.961 93.548 111.335C93.6816 111.709 93.9809 111.951 94.217 111.875Z" fill="#F29111"/>
<path d="M94.8227 113.509C95.0588 113.433 95.1419 113.068 95.0083 112.694C94.8749 112.32 94.5753 112.078 94.3392 112.155C94.1031 112.231 94.02 112.596 94.1537 112.97C94.287 113.344 94.5866 113.586 94.8227 113.509Z" fill="#F29111"/>
<path d="M95.4125 115.078C95.6485 115.002 95.7317 114.637 95.5984 114.262C95.4647 113.888 95.1654 113.647 94.9293 113.723C94.6933 113.799 94.6097 114.164 94.7434 114.538C94.8767 114.912 95.1764 115.154 95.4125 115.078Z" fill="#F29111"/>
<path d="M95.9514 116.738C96.1874 116.662 96.2706 116.297 96.1373 115.923C96.0039 115.549 95.7043 115.307 95.4682 115.383C95.2322 115.459 95.149 115.824 95.2823 116.199C95.4157 116.572 95.7153 116.814 95.9514 116.738Z" fill="#F29111"/>
<path d="M96.5571 118.375C96.7932 118.299 96.8763 117.934 96.7426 117.559C96.6093 117.185 96.3097 116.944 96.0736 117.02C95.8375 117.096 95.7544 117.461 95.888 117.835C96.0214 118.209 96.321 118.451 96.5571 118.375Z" fill="#F29111"/>
<path d="M96.4631 107.511C96.6992 107.435 96.7823 107.07 96.649 106.696C96.5157 106.322 96.216 106.08 95.98 106.157C95.7439 106.233 95.6607 106.598 95.794 106.972C95.9274 107.346 96.227 107.588 96.4631 107.511Z" fill="#F29111"/>
<path d="M97.0766 109.148C97.3127 109.072 97.3958 108.707 97.2622 108.333C97.1288 107.959 96.8292 107.717 96.5931 107.793C96.3571 107.87 96.2739 108.234 96.4076 108.609C96.5409 108.983 96.8405 109.224 97.0766 109.148Z" fill="#F29111"/>
<path d="M97.6818 110.783C97.9179 110.707 98.0011 110.342 97.8677 109.968C97.7341 109.593 97.4348 109.352 97.1987 109.428C96.9626 109.504 96.8795 109.869 97.0128 110.243C97.1461 110.617 97.4458 110.859 97.6818 110.783Z" fill="#F29111"/>
<path d="M98.1975 112.375C98.4335 112.299 98.5167 111.934 98.3834 111.559C98.25 111.185 97.9504 110.944 97.7143 111.02C97.4783 111.096 97.3951 111.461 97.5284 111.835C97.6621 112.209 97.9614 112.451 98.1975 112.375Z" fill="#F29111"/>
<path d="M98.8071 114.011C99.0432 113.935 99.1263 113.57 98.9926 113.196C98.8593 112.822 98.5597 112.58 98.3236 112.657C98.0875 112.733 98.0044 113.098 98.138 113.472C98.2714 113.846 98.571 114.088 98.8071 114.011Z" fill="#F29111"/>
<path d="M99.4123 115.648C99.6484 115.572 99.7315 115.207 99.5982 114.833C99.4645 114.459 99.1652 114.217 98.9292 114.293C98.6931 114.37 98.6099 114.734 98.7433 115.109C98.8766 115.483 99.1762 115.724 99.4123 115.648Z" fill="#F29111"/>
<path d="M99.9318 117.24C100.168 117.164 100.251 116.799 100.118 116.425C99.9841 116.051 99.6848 115.809 99.4487 115.885C99.2126 115.961 99.1295 116.326 99.2628 116.7C99.3961 117.074 99.6958 117.316 99.9318 117.24Z" fill="#F29111"/>
<path d="M99.9318 106.421C100.168 106.345 100.251 105.981 100.118 105.606C99.9841 105.232 99.6848 104.991 99.4487 105.067C99.2126 105.143 99.1295 105.508 99.2628 105.882C99.3961 106.256 99.6958 106.498 99.9318 106.421Z" fill="#F29111"/>
<path d="M100.471 108.08C100.707 108.004 100.79 107.639 100.657 107.265C100.523 106.89 100.224 106.649 99.9878 106.725C99.7517 106.801 99.6685 107.166 99.8019 107.54C99.9355 107.914 100.235 108.156 100.471 108.08Z" fill="#F29111"/>
<path d="M101.057 109.648C101.293 109.572 101.376 109.207 101.243 108.833C101.109 108.459 100.81 108.217 100.574 108.293C100.338 108.37 100.254 108.734 100.388 109.109C100.521 109.483 100.821 109.724 101.057 109.648Z" fill="#F29111"/>
<path d="M101.662 111.285C101.898 111.209 101.982 110.844 101.848 110.47C101.715 110.095 101.415 109.854 101.179 109.93C100.943 110.006 100.86 110.371 100.993 110.745C101.127 111.119 101.426 111.361 101.662 111.285Z" fill="#F29111"/>
<path d="M102.201 112.945C102.437 112.869 102.521 112.504 102.387 112.13C102.254 111.756 101.954 111.514 101.718 111.59C101.482 111.666 101.399 112.031 101.532 112.406C101.666 112.779 101.966 113.021 102.201 112.945Z" fill="#F29111"/>
<path d="M102.788 114.513C103.024 114.437 103.107 114.072 102.973 113.698C102.84 113.324 102.54 113.082 102.304 113.159C102.068 113.235 101.985 113.599 102.119 113.974C102.252 114.348 102.551 114.589 102.788 114.513Z" fill="#F29111"/>
<path d="M103.397 116.15C103.633 116.074 103.716 115.709 103.583 115.335C103.449 114.961 103.15 114.719 102.914 114.795C102.677 114.871 102.594 115.236 102.728 115.611C102.861 115.985 103.161 116.226 103.397 116.15Z" fill="#F29111"/>
<path d="M93.6154 106.654C93.8515 106.578 93.9347 106.213 93.8013 105.839C93.668 105.465 93.3684 105.223 93.1323 105.299C92.8962 105.375 92.8131 105.74 92.9464 106.114C93.0797 106.489 93.3794 106.73 93.6154 106.654Z" fill="#F29111"/>
<path d="M97.0803 105.564C97.3164 105.488 97.3995 105.123 97.2662 104.749C97.1325 104.375 96.8332 104.133 96.5971 104.209C96.3611 104.285 96.2779 104.65 96.4112 105.024C96.5446 105.399 96.8442 105.64 97.0803 105.564Z" fill="#F29111"/>
<path d="M91.3537 107.365C91.5898 107.289 91.6729 106.924 91.5396 106.55C91.4063 106.175 91.1066 105.934 90.8706 106.01C90.6345 106.086 90.5513 106.451 90.6847 106.825C90.818 107.199 91.1176 107.441 91.3537 107.365Z" fill="#F29111"/>
<path d="M94.8186 106.275C95.0546 106.199 95.1378 105.834 95.0045 105.46C94.8711 105.086 94.5715 104.844 94.3354 104.92C94.0993 104.997 94.0162 105.362 94.1495 105.735C94.2828 106.11 94.5825 106.351 94.8186 106.275Z" fill="#F29111"/>
<path d="M98.217 105.207C98.4531 105.13 98.5362 104.766 98.4029 104.392C98.2692 104.017 97.9699 103.776 97.7339 103.852C97.4978 103.928 97.4146 104.293 97.548 104.667C97.6813 105.041 97.9809 105.283 98.217 105.207Z" fill="#F29111"/>
<path d="M92.4865 107.009C92.7226 106.933 92.8058 106.568 92.6724 106.194C92.5391 105.82 92.2395 105.578 92.0034 105.655C91.7673 105.731 91.6842 106.096 91.8175 106.47C91.9512 106.844 92.2505 107.086 92.4865 107.009Z" fill="#F29111"/>
<path d="M95.9514 105.919C96.1874 105.843 96.2706 105.479 96.1373 105.104C96.0039 104.73 95.7043 104.489 95.4682 104.565C95.2322 104.641 95.149 105.006 95.2823 105.38C95.4157 105.754 95.7153 105.996 95.9514 105.919Z" fill="#F29111"/>
<path d="M99.3188 104.785C99.5549 104.709 99.638 104.344 99.5044 103.97C99.371 103.595 99.0714 103.354 98.8353 103.43C98.5992 103.506 98.5161 103.871 98.6498 104.245C98.7831 104.619 99.0827 104.861 99.3188 104.785Z" fill="#F29111"/>
<path d="M94.8109 120.678C95.047 120.601 95.1301 120.236 94.9968 119.862C94.8631 119.488 94.5638 119.246 94.3278 119.323C94.0917 119.399 94.0082 119.764 94.1419 120.138C94.2752 120.512 94.5748 120.754 94.8109 120.678Z" fill="#F29111"/>
<path d="M98.2719 119.588C98.5079 119.511 98.5911 119.146 98.4578 118.772C98.3241 118.398 98.0244 118.157 97.7884 118.233C97.5526 118.309 97.4691 118.674 97.6028 119.048C97.7361 119.422 98.0358 119.664 98.2719 119.588Z" fill="#F29111"/>
<path d="M98.8147 121.246C99.0507 121.17 99.1339 120.805 99.0006 120.43C98.8669 120.057 98.5676 119.815 98.3315 119.891C98.0954 119.967 98.0123 120.332 98.1456 120.706C98.2789 121.08 98.5786 121.322 98.8147 121.246Z" fill="#F29111"/>
<path d="M101.67 118.519C101.906 118.443 101.99 118.078 101.856 117.704C101.723 117.33 101.423 117.088 101.187 117.164C100.951 117.24 100.868 117.605 101.001 117.98C101.135 118.354 101.434 118.595 101.67 118.519Z" fill="#F29111"/>
<path d="M102.256 120.09C102.492 120.013 102.576 119.648 102.442 119.274C102.309 118.9 102.009 118.659 101.773 118.735C101.537 118.811 101.454 119.176 101.587 119.55C101.721 119.924 102.02 120.166 102.256 120.09Z" fill="#F29111"/>
<path d="M96.0101 120.298C96.2462 120.222 96.3294 119.857 96.196 119.483C96.0624 119.109 95.7631 118.867 95.527 118.944C95.2909 119.02 95.2074 119.385 95.3411 119.759C95.4744 120.133 95.7741 120.375 96.0101 120.298Z" fill="#F29111"/>
<path d="M96.5529 121.959C96.789 121.883 96.8722 121.517 96.7388 121.143C96.6055 120.769 96.3059 120.528 96.0698 120.604C95.8337 120.68 95.7506 121.045 95.8839 121.419C96.0172 121.793 96.3169 122.035 96.5529 121.959Z" fill="#F29111"/>
<path d="M99.4086 119.232C99.6447 119.156 99.7279 118.791 99.5942 118.417C99.4609 118.043 99.1612 117.801 98.9252 117.877C98.6891 117.954 98.6059 118.319 98.7396 118.692C98.8729 119.067 99.1726 119.308 99.4086 119.232Z" fill="#F29111"/>
<path d="M100.018 120.869C100.254 120.793 100.337 120.428 100.204 120.054C100.07 119.679 99.7707 119.438 99.5346 119.514C99.2986 119.59 99.2154 119.955 99.3487 120.329C99.4821 120.703 99.7817 120.945 100.018 120.869Z" fill="#F29111"/>
<path d="M102.803 118.166C103.039 118.09 103.123 117.724 102.989 117.35C102.856 116.976 102.556 116.735 102.32 116.811C102.084 116.887 102.001 117.252 102.134 117.626C102.268 118 102.567 118.242 102.803 118.166Z" fill="#F29111"/>
<path d="M103.389 119.732C103.625 119.656 103.708 119.291 103.575 118.917C103.441 118.543 103.142 118.301 102.906 118.377C102.67 118.454 102.586 118.819 102.72 119.192C102.853 119.567 103.153 119.808 103.389 119.732Z" fill="#F29111"/>
<path d="M97.1469 119.943C97.383 119.867 97.4662 119.502 97.3325 119.128C97.1992 118.754 96.8995 118.512 96.6634 118.588C96.4274 118.664 96.3442 119.029 96.4779 119.404C96.6112 119.778 96.9109 120.019 97.1469 119.943Z" fill="#F29111"/>
<path d="M97.6818 121.601C97.9179 121.525 98.0011 121.16 97.8677 120.786C97.7344 120.412 97.4348 120.17 97.1987 120.246C96.9626 120.323 96.8795 120.688 97.0128 121.062C97.1465 121.436 97.4458 121.678 97.6818 121.601Z" fill="#F29111"/>
<path d="M100.541 118.875C100.778 118.799 100.861 118.434 100.727 118.059C100.594 117.685 100.294 117.444 100.058 117.52C99.8219 117.596 99.7387 117.961 99.8724 118.335C100.006 118.709 100.305 118.951 100.541 118.875Z" fill="#F29111"/>
<path d="M101.147 120.513C101.383 120.437 101.466 120.072 101.333 119.698C101.199 119.324 100.9 119.082 100.664 119.159C100.427 119.235 100.344 119.599 100.478 119.974C100.611 120.348 100.911 120.589 101.147 120.513Z" fill="#F29111"/>
<path d="M103.912 117.742C104.148 117.666 104.232 117.301 104.098 116.927C103.965 116.553 103.665 116.311 103.429 116.387C103.193 116.463 103.11 116.828 103.243 117.202C103.377 117.576 103.676 117.818 103.912 117.742Z" fill="#F29111"/>
<path d="M104.518 119.376C104.754 119.301 104.837 118.936 104.704 118.561C104.57 118.187 104.271 117.946 104.035 118.022C103.798 118.098 103.715 118.463 103.849 118.837C103.982 119.211 104.282 119.453 104.518 119.376Z" fill="#F29111"/>
</g>
</g>
<mask id="mask3_2190_22948" style="mask-type:luminance" maskUnits="userSpaceOnUse" x="91" y="103" width="13" height="17">
<path d="M100.214 119.77C103.244 118.793 104.455 114.514 102.921 110.211C101.386 105.909 97.6863 103.213 94.6569 104.19C91.6274 105.167 90.4155 109.447 91.9501 113.749C93.4847 118.052 97.1846 120.747 100.214 119.77Z" fill="white"/>
</mask>
<g mask="url(#mask3_2190_22948)">
<path d="M91.1233 110.299C91.3593 110.222 91.4425 109.857 91.3092 109.483C91.1755 109.109 90.8762 108.867 90.6401 108.944C90.404 109.02 90.3209 109.385 90.4542 109.759C90.5875 110.133 90.8872 110.375 91.1233 110.299Z" fill="#F29111"/>
<path d="M91.7326 111.935C91.9687 111.859 92.0519 111.494 91.9185 111.12C91.7852 110.746 91.4856 110.504 91.2495 110.58C91.0134 110.656 90.9303 111.021 91.0636 111.396C91.1973 111.77 91.4965 112.011 91.7326 111.935Z" fill="#F29111"/>
<path d="M92.3186 113.504C92.5546 113.427 92.6381 113.062 92.5045 112.688C92.3711 112.314 92.0715 112.073 91.8354 112.149C91.5993 112.225 91.5162 112.59 91.6495 112.964C91.7832 113.338 92.0828 113.58 92.3186 113.504Z" fill="#F29111"/>
<path d="M92.8578 115.164C93.0939 115.088 93.177 114.723 93.0437 114.348C92.91 113.975 92.6104 113.733 92.3743 113.809C92.1386 113.885 92.0551 114.25 92.1887 114.624C92.3221 114.998 92.6217 115.24 92.8578 115.164Z" fill="#F29111"/>
<path d="M93.467 116.798C93.7031 116.722 93.7862 116.357 93.6529 115.983C93.5196 115.609 93.2199 115.367 92.9839 115.444C92.7478 115.52 92.6646 115.885 92.798 116.259C92.9316 116.633 93.2309 116.875 93.467 116.798Z" fill="#F29111"/>
<path d="M94.0529 118.369C94.289 118.293 94.3722 117.928 94.2388 117.554C94.1055 117.18 93.8059 116.938 93.5698 117.014C93.3337 117.09 93.2506 117.455 93.3839 117.829C93.5176 118.204 93.8169 118.445 94.0529 118.369Z" fill="#F29111"/>
<path d="M93.9826 107.572C94.2187 107.496 94.3019 107.131 94.1685 106.757C94.0352 106.383 93.7356 106.141 93.4995 106.217C93.2634 106.293 93.1803 106.658 93.3136 107.033C93.4473 107.407 93.7465 107.648 93.9826 107.572Z" fill="#F29111"/>
<path d="M94.5922 109.209C94.8283 109.132 94.9115 108.768 94.7778 108.393C94.6445 108.019 94.3448 107.778 94.1087 107.854C93.8727 107.93 93.7895 108.295 93.9232 108.669C94.0565 109.043 94.3562 109.285 94.5922 109.209Z" fill="#F29111"/>
<path d="M95.1039 110.799C95.3399 110.722 95.4231 110.357 95.2898 109.983C95.1561 109.609 94.8568 109.367 94.6207 109.444C94.3847 109.52 94.3012 109.885 94.4348 110.259C94.5682 110.633 94.8678 110.875 95.1039 110.799Z" fill="#F29111"/>
<path d="M95.7131 112.437C95.9492 112.361 96.0323 111.996 95.899 111.622C95.7657 111.248 95.466 111.006 95.23 111.082C94.9939 111.158 94.9107 111.523 95.044 111.898C95.1777 112.272 95.477 112.513 95.7131 112.437Z" fill="#F29111"/>
<path d="M96.3266 114.072C96.5627 113.996 96.6458 113.631 96.5122 113.257C96.3788 112.883 96.0792 112.641 95.8431 112.717C95.6071 112.793 95.5239 113.158 95.6576 113.533C95.7909 113.906 96.0905 114.148 96.3266 114.072Z" fill="#F29111"/>
<path d="M96.8342 115.666C97.0703 115.589 97.1534 115.225 97.0201 114.85C96.8864 114.476 96.5871 114.235 96.351 114.311C96.115 114.387 96.0318 114.752 96.1651 115.126C96.2985 115.5 96.5981 115.742 96.8342 115.666Z" fill="#F29111"/>
<path d="M97.4436 117.3C97.6796 117.224 97.7628 116.859 97.6295 116.485C97.4961 116.111 97.1965 115.869 96.9604 115.946C96.7243 116.022 96.6412 116.387 96.7745 116.761C96.9082 117.135 97.2075 117.377 97.4436 117.3Z" fill="#F29111"/>
<path d="M97.3732 106.505C97.6093 106.429 97.6925 106.064 97.5591 105.69C97.4258 105.316 97.1262 105.075 96.8901 105.151C96.654 105.227 96.5709 105.592 96.7042 105.966C96.8379 106.34 97.1372 106.582 97.3732 106.505Z" fill="#F29111"/>
<path d="M97.9631 108.074C98.1992 107.998 98.2823 107.633 98.149 107.259C98.0157 106.885 97.716 106.643 97.4799 106.719C97.2439 106.795 97.1607 107.16 97.294 107.534C97.4277 107.909 97.727 108.15 97.9631 108.074Z" fill="#F29111"/>
<path d="M98.5687 109.711C98.8048 109.634 98.8879 109.269 98.7546 108.895C98.6209 108.521 98.3213 108.28 98.0856 108.356C97.8495 108.432 97.766 108.797 97.8997 109.171C98.033 109.545 98.3326 109.787 98.5687 109.711Z" fill="#F29111"/>
<path d="M99.1115 111.369C99.3476 111.293 99.4308 110.928 99.2974 110.553C99.1638 110.18 98.8645 109.938 98.6284 110.014C98.3923 110.09 98.3092 110.455 98.4425 110.829C98.5758 111.203 98.8755 111.445 99.1115 111.369Z" fill="#F29111"/>
<path d="M99.6936 112.939C99.9296 112.863 100.013 112.498 99.8795 112.124C99.7461 111.75 99.4465 111.508 99.2104 111.584C98.9743 111.66 98.8912 112.025 99.0245 112.399C99.1582 112.774 99.4575 113.015 99.6936 112.939Z" fill="#F29111"/>
<path d="M100.303 114.574C100.539 114.498 100.622 114.133 100.489 113.759C100.355 113.385 100.056 113.143 99.8197 113.219C99.5836 113.295 99.5005 113.66 99.6341 114.034C99.7675 114.408 100.067 114.65 100.303 114.574Z" fill="#F29111"/>
<path d="M100.842 116.234C101.078 116.158 101.161 115.793 101.028 115.419C100.895 115.045 100.595 114.803 100.359 114.879C100.123 114.955 100.04 115.32 100.173 115.695C100.306 116.069 100.606 116.31 100.842 116.234Z" fill="#F29111"/>
<path d="M100.748 105.369C100.985 105.293 101.068 104.928 100.934 104.553C100.801 104.18 100.501 103.938 100.265 104.014C100.029 104.09 99.9458 104.455 100.079 104.829C100.213 105.203 100.512 105.445 100.748 105.369Z" fill="#F29111"/>
<path d="M101.358 107.007C101.594 106.931 101.677 106.566 101.544 106.192C101.41 105.818 101.111 105.576 100.874 105.653C100.638 105.729 100.555 106.094 100.689 106.468C100.822 106.842 101.122 107.084 101.358 107.007Z" fill="#F29111"/>
<path d="M101.967 108.642C102.203 108.566 102.286 108.201 102.153 107.827C102.019 107.453 101.72 107.211 101.484 107.288C101.248 107.363 101.165 107.728 101.298 108.103C101.432 108.477 101.731 108.718 101.967 108.642Z" fill="#F29111"/>
<path d="M102.553 110.213C102.789 110.136 102.872 109.772 102.739 109.397C102.605 109.023 102.306 108.782 102.07 108.858C101.834 108.934 101.75 109.299 101.884 109.673C102.017 110.047 102.317 110.289 102.553 110.213Z" fill="#F29111"/>
<path d="M103.088 111.871C103.324 111.795 103.407 111.43 103.274 111.055C103.141 110.682 102.841 110.44 102.605 110.516C102.369 110.592 102.286 110.957 102.419 111.331C102.553 111.705 102.852 111.947 103.088 111.871Z" fill="#F29111"/>
<path d="M103.698 113.507C103.934 113.431 104.017 113.066 103.883 112.692C103.75 112.318 103.45 112.076 103.214 112.153C102.978 112.229 102.895 112.594 103.029 112.968C103.162 113.342 103.462 113.584 103.698 113.507Z" fill="#F29111"/>
<path d="M104.284 115.076C104.52 115 104.603 114.635 104.469 114.26C104.336 113.887 104.036 113.645 103.8 113.721C103.564 113.797 103.481 114.162 103.615 114.536C103.748 114.91 104.047 115.152 104.284 115.076Z" fill="#F29111"/>
<path d="M91.7209 108.283C91.957 108.207 92.0401 107.842 91.9068 107.468C91.7735 107.093 91.4738 106.852 91.2378 106.928C91.0017 107.004 90.9185 107.369 91.0519 107.743C91.1855 108.117 91.4848 108.359 91.7209 108.283Z" fill="#F29111"/>
<path d="M92.2562 109.943C92.4923 109.867 92.5755 109.502 92.4421 109.128C92.3085 108.754 92.0088 108.512 91.7727 108.588C91.537 108.664 91.4535 109.03 91.5872 109.403C91.7205 109.778 92.0202 110.019 92.2562 109.943Z" fill="#F29111"/>
<path d="M92.8654 111.58C93.1015 111.504 93.1847 111.138 93.0513 110.765C92.918 110.39 92.6184 110.149 92.3823 110.225C92.1462 110.301 92.0631 110.666 92.1964 111.04C92.3301 111.414 92.6294 111.656 92.8654 111.58Z" fill="#F29111"/>
<path d="M93.4514 113.148C93.6874 113.072 93.7706 112.707 93.6373 112.333C93.5039 111.959 93.2043 111.717 92.9682 111.793C92.7322 111.87 92.649 112.235 92.7823 112.608C92.916 112.983 93.2153 113.224 93.4514 113.148Z" fill="#F29111"/>
<path d="M93.9906 114.808C94.2267 114.732 94.3098 114.367 94.1765 113.993C94.0428 113.619 93.7435 113.377 93.5074 113.453C93.2714 113.53 93.1879 113.895 93.3215 114.269C93.4549 114.643 93.7545 114.884 93.9906 114.808Z" fill="#F29111"/>
<path d="M94.5959 116.443C94.832 116.367 94.9151 116.002 94.7818 115.628C94.6485 115.254 94.3488 115.012 94.1128 115.088C93.8767 115.164 93.7935 115.53 93.9269 115.903C94.0605 116.278 94.3598 116.519 94.5959 116.443Z" fill="#F29111"/>
<path d="M95.1818 118.011C95.4179 117.935 95.5011 117.57 95.3677 117.196C95.2344 116.822 94.9348 116.581 94.6987 116.657C94.4626 116.733 94.3795 117.098 94.5128 117.472C94.6465 117.846 94.9458 118.087 95.1818 118.011Z" fill="#F29111"/>
<path d="M95.1115 107.217C95.3476 107.14 95.4308 106.775 95.2974 106.401C95.1641 106.027 94.8645 105.786 94.6284 105.862C94.3923 105.938 94.3092 106.303 94.4425 106.677C94.5762 107.051 94.8755 107.292 95.1115 107.217Z" fill="#F29111"/>
<path d="M95.7211 108.853C95.9572 108.777 96.0404 108.412 95.9067 108.038C95.7734 107.664 95.4737 107.422 95.2377 107.498C95.0016 107.575 94.9184 107.94 95.0521 108.314C95.1854 108.688 95.4851 108.929 95.7211 108.853Z" fill="#F29111"/>
<path d="M96.2368 110.445C96.4728 110.369 96.556 110.004 96.4223 109.63C96.289 109.256 95.9894 109.014 95.7533 109.09C95.5172 109.166 95.4341 109.531 95.5677 109.905C95.7011 110.28 96.0007 110.521 96.2368 110.445Z" fill="#F29111"/>
<path d="M96.8498 112.082C97.0859 112.005 97.169 111.641 97.0357 111.267C96.9024 110.892 96.6027 110.651 96.3667 110.727C96.1306 110.803 96.0474 111.168 96.1808 111.542C96.3141 111.916 96.6137 112.158 96.8498 112.082Z" fill="#F29111"/>
<path d="M97.4555 113.717C97.6916 113.64 97.7747 113.275 97.6411 112.901C97.5077 112.527 97.2081 112.286 96.972 112.362C96.736 112.438 96.6528 112.803 96.7865 113.177C96.9198 113.551 97.2194 113.792 97.4555 113.717Z" fill="#F29111"/>
<path d="M97.9711 115.308C98.2071 115.232 98.2903 114.867 98.157 114.493C98.0233 114.119 97.7237 113.877 97.4876 113.954C97.2519 114.03 97.1684 114.395 97.302 114.769C97.4354 115.143 97.735 115.384 97.9711 115.308Z" fill="#F29111"/>
<path d="M98.5803 116.945C98.8164 116.869 98.8995 116.504 98.7662 116.13C98.6329 115.756 98.3332 115.514 98.0971 115.59C97.8611 115.666 97.7779 116.031 97.9112 116.405C98.0449 116.78 98.3442 117.021 98.5803 116.945Z" fill="#F29111"/>
<path d="M98.51 106.15C98.746 106.074 98.8292 105.709 98.6959 105.335C98.5625 104.961 98.2629 104.719 98.0268 104.795C97.7908 104.871 97.7076 105.236 97.8409 105.61C97.9743 105.985 98.2739 106.226 98.51 106.15Z" fill="#F29111"/>
<path d="M99.092 107.718C99.3281 107.642 99.4112 107.277 99.2779 106.903C99.1446 106.529 98.8449 106.288 98.6089 106.364C98.3728 106.44 98.2896 106.805 98.423 107.179C98.5566 107.553 98.8559 107.794 99.092 107.718Z" fill="#F29111"/>
<path d="M99.7055 109.355C99.9416 109.279 100.025 108.914 99.8911 108.54C99.7577 108.166 99.4581 107.924 99.222 108C98.986 108.076 98.9028 108.442 99.0365 108.815C99.1698 109.19 99.4694 109.431 99.7055 109.355Z" fill="#F29111"/>
<path d="M100.24 111.014C100.477 110.937 100.56 110.572 100.426 110.198C100.293 109.824 99.9934 109.582 99.7573 109.659C99.5212 109.735 99.4381 110.1 99.5714 110.474C99.7047 110.848 100.004 111.089 100.24 111.014Z" fill="#F29111"/>
<path d="M100.826 112.582C101.062 112.505 101.146 112.141 101.012 111.767C100.879 111.392 100.579 111.151 100.343 111.227C100.107 111.303 100.024 111.668 100.157 112.042C100.291 112.416 100.59 112.658 100.826 112.582Z" fill="#F29111"/>
<path d="M101.436 114.218C101.672 114.142 101.755 113.777 101.622 113.403C101.488 113.029 101.189 112.788 100.953 112.864C100.716 112.94 100.633 113.305 100.767 113.679C100.9 114.053 101.2 114.294 101.436 114.218Z" fill="#F29111"/>
<path d="M101.975 115.879C102.211 115.802 102.294 115.437 102.161 115.063C102.027 114.689 101.728 114.448 101.492 114.524C101.256 114.6 101.172 114.965 101.306 115.339C101.439 115.713 101.739 115.955 101.975 115.879Z" fill="#F29111"/>
<path d="M92.8498 107.927C93.0859 107.851 93.169 107.486 93.0357 107.112C92.9024 106.738 92.6027 106.496 92.3667 106.573C92.1306 106.649 92.0474 107.014 92.1808 107.388C92.3144 107.762 92.6137 108.004 92.8498 107.927Z" fill="#F29111"/>
<path d="M93.3891 109.587C93.6252 109.511 93.7083 109.146 93.5747 108.772C93.4413 108.398 93.1417 108.157 92.9056 108.233C92.6696 108.309 92.5864 108.674 92.7201 109.048C92.8534 109.422 93.153 109.664 93.3891 109.587Z" fill="#F29111"/>
<path d="M93.9943 111.224C94.2304 111.148 94.3136 110.783 94.1802 110.409C94.0469 110.035 93.7473 109.793 93.5112 109.869C93.2751 109.946 93.192 110.311 93.3253 110.685C93.459 111.059 93.7583 111.3 93.9943 111.224Z" fill="#F29111"/>
<path d="M94.5803 112.792C94.8164 112.717 94.8995 112.352 94.7662 111.977C94.6329 111.603 94.3332 111.362 94.0971 111.438C93.8611 111.514 93.7779 111.879 93.9112 112.253C94.0449 112.627 94.3442 112.869 94.5803 112.792Z" fill="#F29111"/>
<path d="M95.1196 114.451C95.3557 114.375 95.4388 114.01 95.3051 113.636C95.1718 113.261 94.8722 113.02 94.6361 113.096C94.4 113.172 94.3169 113.537 94.4505 113.911C94.5839 114.285 94.8835 114.527 95.1196 114.451Z" fill="#F29111"/>
<path d="M95.7054 116.021C95.9415 115.945 96.0247 115.58 95.8913 115.206C95.7577 114.832 95.4584 114.59 95.2223 114.666C94.9862 114.743 94.9027 115.108 95.0364 115.482C95.1697 115.856 95.4694 116.097 95.7054 116.021Z" fill="#F29111"/>
<path d="M96.3147 117.656C96.5507 117.58 96.6339 117.215 96.5006 116.841C96.3672 116.466 96.0676 116.225 95.8315 116.301C95.5954 116.377 95.5123 116.742 95.6456 117.117C95.7793 117.49 96.0786 117.732 96.3147 117.656Z" fill="#F29111"/>
<path d="M96.2443 106.861C96.4804 106.785 96.5636 106.42 96.4302 106.046C96.2969 105.671 95.9973 105.43 95.7612 105.506C95.5251 105.582 95.442 105.947 95.5753 106.322C95.7086 106.695 96.0083 106.937 96.2443 106.861Z" fill="#F29111"/>
<path d="M96.854 108.498C97.09 108.422 97.1732 108.057 97.0395 107.682C96.9062 107.308 96.6065 107.067 96.3705 107.143C96.1344 107.219 96.0512 107.584 96.1849 107.958C96.3182 108.332 96.6179 108.574 96.854 108.498Z" fill="#F29111"/>
<path d="M97.3695 110.089C97.6056 110.013 97.6887 109.648 97.5554 109.274C97.4217 108.9 97.1221 108.658 96.886 108.735C96.6503 108.811 96.5668 109.176 96.7005 109.55C96.8338 109.924 97.1334 110.166 97.3695 110.089Z" fill="#F29111"/>
<path d="M97.9748 111.724C98.2109 111.648 98.294 111.283 98.1607 110.909C98.0274 110.535 97.7277 110.293 97.4917 110.369C97.2556 110.446 97.1724 110.811 97.3058 111.185C97.4394 111.559 97.7387 111.8 97.9748 111.724Z" fill="#F29111"/>
<path d="M98.5647 113.294C98.8007 113.218 98.8839 112.854 98.7506 112.479C98.6172 112.105 98.3176 111.864 98.0815 111.94C97.8454 112.016 97.7623 112.381 97.8956 112.755C98.0293 113.129 98.3286 113.371 98.5647 113.294Z" fill="#F29111"/>
<path d="M99.104 114.953C99.34 114.877 99.4232 114.512 99.2895 114.138C99.1562 113.763 98.8565 113.522 98.6205 113.598C98.3844 113.674 98.3012 114.039 98.4349 114.413C98.5682 114.787 98.8679 115.029 99.104 114.953Z" fill="#F29111"/>
<path d="M99.7092 116.589C99.9453 116.513 100.028 116.148 99.8951 115.774C99.7618 115.4 99.4621 115.158 99.226 115.235C98.99 115.311 98.9068 115.676 99.0401 116.05C99.1735 116.424 99.4731 116.666 99.7092 116.589Z" fill="#F29111"/>
<path d="M99.6389 105.794C99.8749 105.718 99.9581 105.353 99.8248 104.979C99.6911 104.605 99.3918 104.364 99.1557 104.44C98.9197 104.516 98.8365 104.881 98.9698 105.255C99.1032 105.629 99.4028 105.871 99.6389 105.794Z" fill="#F29111"/>
<path d="M100.229 107.363C100.465 107.287 100.548 106.922 100.415 106.548C100.281 106.173 99.9816 105.932 99.7456 106.008C99.5095 106.084 99.4263 106.449 99.5597 106.823C99.693 107.198 99.9926 107.439 100.229 107.363Z" fill="#F29111"/>
<path d="M100.834 108.998C101.07 108.922 101.154 108.557 101.02 108.182C100.887 107.808 100.587 107.567 100.351 107.643C100.115 107.719 100.032 108.084 100.165 108.458C100.299 108.832 100.598 109.074 100.834 108.998Z" fill="#F29111"/>
<path d="M101.35 110.591C101.586 110.515 101.669 110.15 101.536 109.776C101.402 109.402 101.103 109.16 100.867 109.237C100.63 109.313 100.547 109.678 100.681 110.052C100.814 110.426 101.114 110.668 101.35 110.591Z" fill="#F29111"/>
<path d="M101.959 112.226C102.195 112.15 102.278 111.785 102.145 111.411C102.012 111.037 101.712 110.795 101.476 110.871C101.24 110.948 101.157 111.313 101.29 111.687C101.423 112.061 101.723 112.302 101.959 112.226Z" fill="#F29111"/>
<path d="M102.565 113.863C102.801 113.787 102.884 113.422 102.75 113.048C102.617 112.673 102.317 112.432 102.081 112.508C101.845 112.584 101.762 112.949 101.896 113.323C102.029 113.698 102.329 113.939 102.565 113.863Z" fill="#F29111"/>
<path d="M103.08 115.455C103.317 115.379 103.4 115.014 103.266 114.64C103.133 114.265 102.833 114.024 102.597 114.1C102.361 114.176 102.278 114.541 102.411 114.915C102.545 115.289 102.844 115.531 103.08 115.455Z" fill="#F29111"/>
<path d="M93.3967 106.003C93.6328 105.927 93.7159 105.563 93.5826 105.188C93.4489 104.814 93.1496 104.573 92.9135 104.649C92.6775 104.725 92.5943 105.09 92.7276 105.464C92.861 105.838 93.1606 106.08 93.3967 106.003Z" fill="#F29111"/>
<path d="M96.8383 104.845C97.0744 104.769 97.1576 104.404 97.0239 104.03C96.8906 103.656 96.5909 103.414 96.3548 103.491C96.1188 103.567 96.0356 103.932 96.1693 104.306C96.3026 104.68 96.6023 104.921 96.8383 104.845Z" fill="#F29111"/>
<path d="M91.135 106.715C91.371 106.638 91.4542 106.273 91.3209 105.899C91.1875 105.525 90.8879 105.284 90.6518 105.36C90.4158 105.436 90.3326 105.801 90.4659 106.175C90.5993 106.549 90.8989 106.791 91.135 106.715Z" fill="#F29111"/>
<path d="M94.5023 105.582C94.7384 105.505 94.8215 105.14 94.6882 104.766C94.5545 104.392 94.2552 104.151 94.0192 104.227C93.7831 104.303 93.6996 104.668 93.8333 105.042C93.9666 105.416 94.2662 105.658 94.5023 105.582Z" fill="#F29111"/>
<path d="M97.9711 104.49C98.2072 104.414 98.2904 104.049 98.1567 103.675C98.0234 103.3 97.7237 103.059 97.4877 103.135C97.2516 103.211 97.1684 103.576 97.3021 103.95C97.4354 104.324 97.7351 104.566 97.9711 104.49Z" fill="#F29111"/>
<path d="M92.2639 106.359C92.4999 106.283 92.5831 105.918 92.4498 105.544C92.3164 105.169 92.0168 104.928 91.7807 105.004C91.5447 105.08 91.4615 105.445 91.5948 105.82C91.7285 106.193 92.0278 106.435 92.2639 106.359Z" fill="#F29111"/>
<path d="M95.6352 105.224C95.8713 105.148 95.9544 104.783 95.8208 104.409C95.6874 104.035 95.3878 103.793 95.1517 103.869C94.9156 103.946 94.8325 104.311 94.9662 104.685C95.0995 105.059 95.3991 105.3 95.6352 105.224Z" fill="#F29111"/>
<path d="M99.104 104.135C99.34 104.058 99.4232 103.693 99.2895 103.319C99.1562 102.945 98.8565 102.704 98.6205 102.78C98.3844 102.856 98.3012 103.221 98.4349 103.595C98.5682 103.969 98.8679 104.211 99.104 104.135Z" fill="#F29111"/>
<path d="M94.5882 120.027C94.8243 119.951 94.9075 119.586 94.7742 119.212C94.6405 118.838 94.3412 118.596 94.1051 118.672C93.869 118.748 93.7855 119.113 93.9192 119.488C94.0525 119.862 94.3522 120.103 94.5882 120.027Z" fill="#F29111"/>
<path d="M98.057 118.939C98.2931 118.863 98.3762 118.498 98.2429 118.124C98.1092 117.75 97.8096 117.508 97.5735 117.584C97.3378 117.66 97.2543 118.025 97.388 118.399C97.5213 118.774 97.8209 119.015 98.057 118.939Z" fill="#F29111"/>
<path d="M98.5687 120.529C98.8048 120.453 98.8879 120.088 98.7546 119.714C98.6209 119.34 98.3213 119.098 98.0856 119.174C97.8495 119.25 97.766 119.615 97.8997 119.99C98.033 120.364 98.3326 120.605 98.5687 120.529Z" fill="#F29111"/>
<path d="M101.424 117.802C101.66 117.726 101.743 117.361 101.61 116.987C101.477 116.613 101.177 116.371 100.941 116.448C100.705 116.524 100.622 116.889 100.755 117.263C100.889 117.637 101.188 117.879 101.424 117.802Z" fill="#F29111"/>
<path d="M102.038 119.439C102.274 119.363 102.357 118.998 102.223 118.624C102.09 118.25 101.79 118.008 101.554 118.084C101.318 118.16 101.235 118.525 101.369 118.899C101.502 119.274 101.801 119.515 102.038 119.439Z" fill="#F29111"/>
<path d="M95.7211 119.672C95.9572 119.595 96.0404 119.23 95.9067 118.856C95.7734 118.482 95.4737 118.241 95.2377 118.317C95.0016 118.393 94.9184 118.758 95.0521 119.132C95.1854 119.506 95.4851 119.748 95.7211 119.672Z" fill="#F29111"/>
<path d="M96.3303 121.308C96.5664 121.232 96.6495 120.867 96.5162 120.493C96.3829 120.119 96.0832 119.877 95.8471 119.954C95.6111 120.03 95.5279 120.395 95.6612 120.769C95.7946 121.143 96.0942 121.384 96.3303 121.308Z" fill="#F29111"/>
<path d="M99.186 118.582C99.4221 118.505 99.5052 118.141 99.3715 117.767C99.2382 117.392 98.9386 117.151 98.7025 117.227C98.4664 117.303 98.3833 117.668 98.5169 118.042C98.6503 118.416 98.9499 118.658 99.186 118.582Z" fill="#F29111"/>
<path d="M99.7015 120.174C99.9376 120.097 100.021 119.732 99.8874 119.358C99.7538 118.984 99.4545 118.743 99.2184 118.819C98.9823 118.895 98.8988 119.26 99.0325 119.634C99.1658 120.008 99.4655 120.25 99.7015 120.174Z" fill="#F29111"/>
<path d="M102.561 117.447C102.797 117.371 102.88 117.006 102.747 116.632C102.613 116.257 102.314 116.016 102.078 116.092C101.842 116.168 101.758 116.533 101.892 116.907C102.025 117.281 102.325 117.523 102.561 117.447Z" fill="#F29111"/>
<path d="M103.17 119.082C103.406 119.005 103.49 118.641 103.356 118.267C103.223 117.892 102.923 117.651 102.687 117.727C102.451 117.803 102.368 118.168 102.501 118.542C102.635 118.916 102.934 119.158 103.17 119.082Z" fill="#F29111"/>
<path d="M96.85 119.316C97.0861 119.24 97.1692 118.875 97.0359 118.501C96.9022 118.127 96.6026 117.885 96.3665 117.961C96.1308 118.038 96.0473 118.402 96.1809 118.777C96.3143 119.151 96.6139 119.392 96.85 119.316Z" fill="#F29111"/>
<path d="M97.4397 120.884C97.6757 120.808 97.7589 120.443 97.6256 120.069C97.4919 119.695 97.1926 119.453 96.9565 119.53C96.7204 119.606 96.6373 119.971 96.7706 120.345C96.9039 120.719 97.2036 120.961 97.4397 120.884Z" fill="#F29111"/>
<path d="M100.299 118.158C100.535 118.082 100.618 117.717 100.485 117.343C100.352 116.968 100.052 116.727 99.8159 116.803C99.5798 116.879 99.4967 117.244 99.63 117.618C99.7637 117.992 100.063 118.234 100.299 118.158Z" fill="#F29111"/>
<path d="M100.834 119.818C101.07 119.742 101.154 119.377 101.02 119.003C100.887 118.629 100.587 118.387 100.351 118.463C100.115 118.539 100.032 118.904 100.165 119.279C100.299 119.652 100.598 119.894 100.834 119.818Z" fill="#F29111"/>
<path d="M103.69 117.091C103.926 117.015 104.009 116.65 103.876 116.276C103.742 115.902 103.443 115.66 103.207 115.737C102.97 115.813 102.887 116.178 103.021 116.552C103.154 116.926 103.454 117.168 103.69 117.091Z" fill="#F29111"/>
<path d="M104.299 118.726C104.535 118.65 104.618 118.285 104.485 117.911C104.351 117.537 104.052 117.295 103.816 117.371C103.58 117.448 103.497 117.813 103.63 118.187C103.764 118.561 104.063 118.802 104.299 118.726Z" fill="#F29111"/>
</g>
<path d="M49.886 147C57.6276 147 60.5399 154.008 61 157.477C56.7078 162.008 39.9218 162.008 39.1553 158.398C38.3889 154.787 40.2284 147 49.886 147Z" fill="white"/>
<path d="M40 159.148L39.9328 158.27C39.9328 158.135 39.8656 158.068 39.7311 158.068L38.9246 158C38.7902 158 38.5214 158.135 38.3869 158.338L35.1609 162.324C34.9593 162.527 34.9593 162.797 35.0937 162.865L35.2281 162.932C35.4297 163.068 35.6986 163 35.9674 162.73L39.7311 159.689C39.8656 159.554 40 159.351 40 159.148Z" fill="white"/>
<path d="M35.0265 162.795L38 161.186L35.8375 161L34.2155 162.362C34.0353 162.547 33.9452 162.795 34.0353 162.857L34.1254 162.919C34.3056 163.042 34.6661 163.042 35.0265 162.795Z" fill="#65CBFE"/>
<path d="M61 157.479C56.7086 161.968 39.9273 162.04 39.1611 158.405C38.5481 155.554 39.5442 150.138 44.6016 148C41.4599 156.837 48.3564 158.405 53.8735 158.405C59.2376 158.405 59.2376 154.557 59.2376 152.561C60.2334 154.272 60.77 156.124 61 157.479Z" fill="#EFEFEF"/>
<path d="M40.4362 147.166C35.279 149.549 34.6633 154.792 35.1251 157.855C35.2021 158.332 35.5099 158.74 35.9718 158.945C39.0507 160.511 42.6684 160.034 44.8237 159.421C45.5164 159.217 45.9783 158.672 45.9783 158.06C46.1322 155.472 45.5164 151.115 42.5914 147.575C42.0526 147.03 41.129 146.826 40.4362 147.166Z" fill="#595959"/>
<path d="M58.0196 158.922L58.2411 158.123C58.2411 158 58.3149 158 58.4625 158L59.3479 158.062C59.4952 158.062 59.7905 158.246 59.9381 158.43L62.8893 162.425C63.0369 162.671 63.0369 162.855 62.8893 162.916L62.742 162.978C62.5206 163.039 62.2253 162.978 61.9304 162.732L58.2411 159.536C58.0934 159.291 57.9458 159.045 58.0196 158.922Z" fill="white"/>
<path d="M62.0884 162.751L60 161L61.8002 161.058L62.8806 162.46C63.0247 162.635 63.0247 162.868 62.9527 162.926L62.8806 162.985C62.6645 163.043 62.3766 162.926 62.0884 162.751Z" fill="#65CBFE"/>
<path d="M53.0196 160.106L53.241 159.147C53.241 159 53.3148 159 53.4623 159L54.3478 159.074C54.4953 159.074 54.7904 159.295 54.938 159.516L57.8895 164.31C58.0368 164.605 58.0368 164.826 57.8895 164.9L57.7419 164.973C57.5205 165.047 57.2252 164.974 56.9303 164.678L53.241 160.844C53.0934 160.549 52.9458 160.327 53.0196 160.106Z" fill="white"/>
<path d="M57.0884 164.62L55 162L56.8006 162.087L57.8806 164.183C58.0247 164.445 58.0247 164.794 57.9527 164.881L57.8806 164.969C57.6648 165.056 57.3766 164.969 57.0884 164.62Z" fill="#65CBFE"/>
<path d="M46 160.106L46.2222 159.147C46.2222 159 46.2963 159 46.4444 159L47.3333 159.074C47.4815 159.074 47.7778 159.295 47.9259 159.516L50.8889 164.31C51.037 164.605 51.037 164.826 50.8889 164.899L50.7407 164.973C50.5185 165.047 50.2222 164.973 49.9259 164.678L46.2222 160.844C46.0741 160.549 46 160.253 46 160.106Z" fill="white"/>
<path d="M50.0885 164.725L48 163L49.8004 163.057L50.8807 164.437C51.0247 164.61 51.0247 164.84 50.9527 164.897L50.8807 164.955C50.5926 165.07 50.3046 164.955 50.0885 164.725Z" fill="#65CBFE"/>
<path d="M42.5 139C42.7761 139 43 138.776 43 138.5C43 138.224 42.7761 138 42.5 138C42.2239 138 42 138.224 42 138.5C42 138.776 42.2239 139 42.5 139Z" fill="#65CBFE"/>
<path d="M39 139H38V151H39V139Z" fill="#595959"/>
<path d="M38.5 139C38.7762 139 39 138.776 39 138.5C39 138.224 38.7762 138 38.5 138C38.2239 138 38 138.224 38 138.5C38 138.776 38.2239 139 38.5 139Z" fill="#65CBFE"/>
<path d="M40.8659 148.068C36.1414 150.026 35.6767 154.854 36.1414 157.442C36.2189 157.652 36.3738 157.862 36.5287 158.002C39.3169 159.541 42.6473 158.982 44.3513 158.422C44.661 158.282 44.8934 158.002 44.9709 157.722C45.1258 155.553 44.7385 151.496 41.9502 148.347C41.6405 147.998 41.2532 147.928 40.8659 148.068Z" fill="#35373A"/>
<path d="M40 154H45V155H40V154Z" fill="#65CBFE"/>
<path d="M34 154H39V155H34V154Z" fill="#65CBFE"/>
<path d="M48.4054 153.469C48.1622 153.414 48 153.248 48 153.083V152.973C48 152.807 48.1622 152.642 48.4054 152.586L50.3513 152.035C50.6757 151.925 51 152.09 51 152.311C51 152.421 50.8378 152.586 50.6757 152.586L49.1351 152.973V153.028L50.6757 153.414C50.8378 153.469 51 153.579 51 153.689C51 153.91 50.6757 154.075 50.3513 153.965L48.4054 153.469Z" fill="#65CBFE"/>
<path d="M56 153.041C56 153.218 55.8919 153.395 55.7297 153.454L54.4324 153.985C54.2162 154.044 54 153.926 54 153.69C54 153.572 54.1081 153.454 54.2162 153.395L55.2432 153.041V152.982L54.2162 152.628C54.1081 152.569 54 152.451 54 152.333C54 152.097 54.2162 151.92 54.4324 152.038L55.7297 152.569C55.8919 152.628 56 152.805 56 152.982V153.041Z" fill="#65CBFE"/>
<path d="M52.5305 151C52.8337 151 53.0611 151.262 52.9853 151.459L51.9242 154.738C51.8484 154.869 51.6968 155 51.4694 155C51.1663 155 50.9389 154.738 51.0147 154.541L52.0758 151.262C52.1516 151.066 52.3032 151 52.5305 151Z" fill="#65CBFE"/>
<defs>
<linearGradient id="paint0_linear_2190_22948" x1="79.2545" y1="60.0296" x2="89.2367" y2="92.4457" gradientUnits="userSpaceOnUse">
<stop stop-color="white"/>
<stop offset="1" stop-color="#F4F4F4"/>
</linearGradient>
</defs>
</svg>
