<svg width="200" height="200" viewBox="0 0 200 200" fill="none" xmlns="http://www.w3.org/2000/svg">
<path d="M119.797 175.322C146.099 175.322 167.422 171.341 167.422 166.431C167.422 161.52 146.099 157.539 119.797 157.539C93.4942 157.539 72.1719 161.52 72.1719 166.431C72.1719 171.341 93.4942 175.322 119.797 175.322Z" fill="#A4AFBF" fill-opacity="0.7"/>
<path d="M96.0804 48.6609C92.7551 56.8338 90.246 70.1225 89.3203 76.4562L106.044 69.2212C107.53 57.7595 105.885 49.3308 104.375 45.1286C103.961 43.9593 102.646 43.4721 101.501 43.9349L100.843 44.1907C98.7235 45.019 96.933 46.5537 96.0804 48.6609Z" fill="url(#paint0_linear_1993_5787)"/>
<path d="M106.43 55.7498C101.266 47.3576 95.5778 52.9484 93.4219 56.6999C95.7483 48.7949 95.6143 46.8948 100.158 44.4831C104.116 42.3759 104.555 45.4697 104.823 46.2127C105.078 46.9069 106.248 52.1445 106.43 55.7498Z" fill="#FF9100"/>
<path fill-rule="evenodd" clip-rule="evenodd" d="M156.138 93.1914C168.233 85.9807 187.393 72.0709 193.52 62.9357C194.092 62.083 193.946 60.9868 193.276 60.2195L193.081 60.0002C191.193 57.8443 188.209 56.9795 185.456 57.8321C174.494 61.2426 159.512 66.3949 142.825 76.4801C137.88 72.8139 131.973 70.0489 125.395 68.5751C102.996 63.5447 81.2419 75.4326 76.8327 95.1281C72.4234 114.824 87.0154 134.86 109.427 139.878C131.839 144.897 153.593 133.009 158.002 113.313C159.549 106.431 158.769 99.5008 156.138 93.1914Z" fill="white"/>
<path d="M193.485 62.8992C190.61 66.6872 185.482 72.7774 175.921 79.9272C175.921 79.9272 181.146 69.7323 179.075 66.9674C177.005 64.1903 164.922 65.2256 164.922 65.2256C170.074 63.1915 179.721 58.8919 186.408 57.6008C188.661 57.1623 190.902 58.0027 192.705 59.4521L193.083 59.7567C194.033 60.5118 194.228 61.9126 193.485 62.8992Z" fill="#FF9100"/>
<path d="M193.618 62.8024C187.333 72.5467 167.942 86.6392 156.213 93.2044L154.312 89.1605L193.143 62.364C193.46 62.1447 193.825 62.4736 193.618 62.8024Z" fill="#E9E6E6"/>
<path d="M133.205 109.817C130.355 122.521 116.993 132.837 101.074 129.268C85.1542 125.7 75.0933 110.133 77.9313 97.4292C80.7814 84.7252 94.8009 77.0516 110.721 80.6204C126.64 84.2014 136.055 97.1125 133.205 109.817Z" fill="#35373A"/>
<path fill-rule="evenodd" clip-rule="evenodd" d="M94.8165 112.569C94.4431 112.553 93.9964 112.749 93.5892 113.271C93.1823 113.793 92.8713 114.583 92.8269 115.516L92.8267 115.519L92.8266 115.522C92.7711 116.455 92.9951 117.265 93.3494 117.828C93.7075 118.396 94.128 118.632 94.4925 118.648C94.8658 118.664 95.3125 118.468 95.7198 117.946C96.1267 117.424 96.4376 116.634 96.4821 115.701C96.5266 114.766 96.3027 113.952 95.9579 113.387C95.6001 112.82 95.1804 112.585 94.8165 112.569ZM92.8209 112.672C93.3637 111.976 94.0863 111.563 94.8579 111.596C95.6384 111.629 96.3141 112.124 96.7842 112.87L96.7859 112.873L96.7876 112.876C97.2457 113.625 97.5082 114.638 97.4554 115.747C97.4024 116.861 97.0312 117.849 96.4881 118.545C95.9453 119.241 95.2227 119.654 94.4511 119.621C93.6706 119.588 92.9949 119.093 92.5248 118.347C92.0511 117.595 91.7881 116.579 91.8537 115.467C91.9072 114.355 92.2782 113.368 92.8209 112.672Z" fill="#FF9100"/>
<mask id="mask0_1993_5787" style="mask-type:luminance" maskUnits="userSpaceOnUse" x="86" y="88" width="12" height="18">
<path d="M97.6892 98.6851C98.7332 94.0245 97.0573 89.6813 93.9459 88.9843C90.8345 88.2872 87.4658 91.5003 86.4217 96.1609C85.3776 100.821 87.0536 105.165 90.165 105.862C93.2764 106.559 96.6451 103.346 97.6892 98.6851Z" fill="white"/>
</mask>
<g mask="url(#mask0_1993_5787)">
<path d="M88.6076 90.2369C88.6944 89.8496 88.5572 89.4892 88.3012 89.4318C88.0452 89.3745 87.7673 89.6419 87.6805 90.0292C87.5938 90.4165 87.731 90.777 87.987 90.8343C88.243 90.8917 88.5208 90.6242 88.6076 90.2369Z" fill="#F29111"/>
<path d="M88.2014 92.0025C88.2881 91.6152 88.1509 91.2548 87.8949 91.1974C87.6389 91.1401 87.361 91.4076 87.2743 91.7948C87.1875 92.1821 87.3247 92.5426 87.5807 92.5999C87.8367 92.6573 88.1146 92.3898 88.2014 92.0025Z" fill="#F29111"/>
<path d="M87.8185 93.7584C87.9053 93.3711 87.7681 93.0107 87.5121 92.9533C87.2561 92.896 86.9782 93.1634 86.8915 93.5507C86.8047 93.938 86.9419 94.2984 87.1979 94.3558C87.4539 94.4131 87.7318 94.1457 87.8185 93.7584Z" fill="#F29111"/>
<path d="M87.4201 95.5123C87.5069 95.125 87.3697 94.7646 87.1137 94.7072C86.8577 94.6499 86.5798 94.9173 86.493 95.3046C86.4063 95.6919 86.5435 96.0524 86.7995 96.1097C87.0555 96.1671 87.3333 95.8996 87.4201 95.5123Z" fill="#F29111"/>
<path d="M87.0217 97.276C87.1084 96.8887 86.9712 96.5282 86.7152 96.4709C86.4592 96.4135 86.1814 96.681 86.0946 97.0683C86.0078 97.4556 86.145 97.816 86.401 97.8734C86.657 97.9307 86.9349 97.6633 87.0217 97.276Z" fill="#F29111"/>
<path d="M86.6388 99.0338C86.7256 98.6465 86.5884 98.286 86.3324 98.2287C86.0764 98.1713 85.7985 98.4388 85.7118 98.8261C85.625 99.2134 85.7622 99.5738 86.0182 99.6312C86.2742 99.6885 86.5521 99.4211 86.6388 99.0338Z" fill="#F29111"/>
<path d="M86.2404 100.786C86.3272 100.398 86.19 100.038 85.934 99.9807C85.678 99.9233 85.4001 100.191 85.3133 100.578C85.2266 100.965 85.3638 101.326 85.6198 101.383C85.8758 101.44 86.1537 101.173 86.2404 100.786Z" fill="#F29111"/>
<path d="M92.131 91.0279C92.2178 90.6406 92.0806 90.2802 91.8246 90.2228C91.5686 90.1655 91.2907 90.433 91.204 90.8202C91.1172 91.2075 91.2544 91.568 91.5104 91.6253C91.7664 91.6827 92.0443 91.4152 92.131 91.0279Z" fill="#F29111"/>
<path d="M91.7248 92.7916C91.8116 92.4043 91.6744 92.0439 91.4183 91.9865C91.1623 91.9292 90.8845 92.1966 90.7977 92.5839C90.711 92.9712 90.8482 93.3316 91.1042 93.389C91.3602 93.4463 91.638 93.1789 91.7248 92.7916Z" fill="#F29111"/>
<path d="M91.3263 94.5455C91.4131 94.1582 91.2759 93.7978 91.0199 93.7404C90.7639 93.6831 90.486 93.9505 90.3993 94.3378C90.3125 94.7251 90.4497 95.0856 90.7057 95.1429C90.9617 95.2003 91.2396 94.9328 91.3263 94.5455Z" fill="#F29111"/>
<path d="M90.9435 96.3014C91.0303 95.9141 90.8931 95.5536 90.6371 95.4963C90.3811 95.4389 90.1032 95.7064 90.0165 96.0937C89.9297 96.481 90.0669 96.8414 90.3229 96.8988C90.5789 96.9561 90.8568 96.6886 90.9435 96.3014Z" fill="#F29111"/>
<path d="M90.5451 98.067C90.6319 97.6797 90.4947 97.3192 90.2387 97.2619C89.9827 97.2045 89.7048 97.472 89.618 97.8593C89.5313 98.2466 89.6685 98.607 89.9245 98.6644C90.1805 98.7217 90.4583 98.4543 90.5451 98.067Z" fill="#F29111"/>
<path d="M90.1467 99.8209C90.2334 99.4336 90.0962 99.0732 89.8402 99.0158C89.5842 98.9585 89.3064 99.2259 89.2196 99.6132C89.1328 100 89.27 100.361 89.526 100.418C89.782 100.476 90.0599 100.208 90.1467 99.8209Z" fill="#F29111"/>
<path d="M89.7638 101.577C89.8506 101.189 89.7134 100.829 89.4574 100.772C89.2014 100.714 88.9235 100.982 88.8368 101.369C88.75 101.756 88.8872 102.117 89.1432 102.174C89.3992 102.232 89.6771 101.964 89.7638 101.577Z" fill="#F29111"/>
<path d="M95.6389 91.815C95.7256 91.4277 95.5884 91.0673 95.3324 91.0099C95.0764 90.9526 94.7985 91.2201 94.7118 91.6073C94.625 91.9946 94.7622 92.3551 95.0182 92.4124C95.2742 92.4698 95.5521 92.2023 95.6389 91.815Z" fill="#F29111"/>
<path d="M95.2482 93.5826C95.335 93.1953 95.1978 92.8349 94.9418 92.7775C94.6858 92.7202 94.4079 92.9876 94.3212 93.3749C94.2344 93.7622 94.3716 94.1227 94.6276 94.18C94.8836 94.2374 95.1615 93.9699 95.2482 93.5826Z" fill="#F29111"/>
<path d="M94.8498 95.3365C94.9365 94.9492 94.7994 94.5888 94.5434 94.5314C94.2873 94.4741 94.0095 94.7415 93.9227 95.1288C93.836 95.5161 93.9732 95.8766 94.2292 95.9339C94.4852 95.9913 94.763 95.7238 94.8498 95.3365Z" fill="#F29111"/>
<path d="M94.4513 97.0904C94.5381 96.7031 94.4009 96.3427 94.1449 96.2853C93.8889 96.228 93.611 96.4955 93.5243 96.8827C93.4375 97.27 93.5747 97.6305 93.8307 97.6878C94.0867 97.7452 94.3646 97.4777 94.4513 97.0904Z" fill="#F29111"/>
<path d="M94.0685 98.858C94.1553 98.4707 94.0181 98.1103 93.7621 98.0529C93.5061 97.9956 93.2282 98.263 93.1415 98.6503C93.0547 99.0376 93.1919 99.3981 93.4479 99.4554C93.7039 99.5128 93.9818 99.2453 94.0685 98.858Z" fill="#F29111"/>
<path d="M93.6701 100.61C93.7569 100.223 93.6197 99.8622 93.3637 99.8049C93.1077 99.7475 92.8298 100.015 92.743 100.402C92.6563 100.79 92.7935 101.15 93.0495 101.207C93.3055 101.265 93.5833 100.997 93.6701 100.61Z" fill="#F29111"/>
<path d="M93.2873 102.368C93.374 101.98 93.2369 101.62 92.9808 101.563C92.7248 101.505 92.447 101.773 92.3602 102.16C92.2735 102.547 92.4107 102.908 92.6667 102.965C92.9227 103.023 93.2005 102.755 93.2873 102.368Z" fill="#F29111"/>
<path d="M98.7638 94.3697C98.8506 93.9824 98.7134 93.622 98.4574 93.5646C98.2014 93.5073 97.9235 93.7748 97.8368 94.162C97.75 94.5493 97.8872 94.9098 98.1432 94.9671C98.3992 95.0245 98.6771 94.757 98.7638 94.3697Z" fill="#F29111"/>
<path d="M98.3732 96.1256C98.46 95.7383 98.3228 95.3778 98.0668 95.3205C97.8108 95.2631 97.5329 95.5306 97.4462 95.9179C97.3594 96.3052 97.4966 96.6656 97.7526 96.723C98.0086 96.7803 98.2865 96.5129 98.3732 96.1256Z" fill="#F29111"/>
<path d="M97.9826 97.8795C98.0694 97.4922 97.9322 97.1317 97.6762 97.0744C97.4202 97.017 97.1423 97.2845 97.0555 97.6718C96.9688 98.0591 97.106 98.4195 97.362 98.4769C97.618 98.5342 97.8958 98.2668 97.9826 97.8795Z" fill="#F29111"/>
<path d="M97.592 99.6471C97.6787 99.2598 97.5415 98.8993 97.2855 98.842C97.0295 98.7846 96.7517 99.0521 96.6649 99.4394C96.5781 99.8267 96.7153 100.187 96.9713 100.244C97.2273 100.302 97.5052 100.034 97.592 99.6471Z" fill="#F29111"/>
<path d="M97.1935 101.401C97.2803 101.014 97.1431 100.653 96.8871 100.596C96.6311 100.539 96.3532 100.806 96.2665 101.193C96.1797 101.581 96.3169 101.941 96.5729 101.998C96.8289 102.056 97.1068 101.788 97.1935 101.401Z" fill="#F29111"/>
<path d="M96.7951 103.155C96.8819 102.768 96.7447 102.407 96.4887 102.35C96.2327 102.292 95.9548 102.56 95.868 102.947C95.7813 103.334 95.9185 103.695 96.1745 103.752C96.4305 103.81 96.7083 103.542 96.7951 103.155Z" fill="#F29111"/>
<path d="M89.7717 90.5025C89.8584 90.1152 89.7212 89.7548 89.4652 89.6974C89.2092 89.6401 88.9314 89.9076 88.8446 90.2949C88.7578 90.6821 88.895 91.0426 89.151 91.0999C89.407 91.1573 89.6849 90.8898 89.7717 90.5025Z" fill="#F29111"/>
<path d="M89.381 92.2584C89.4678 91.8711 89.3306 91.5107 89.0746 91.4533C88.8186 91.396 88.5407 91.6634 88.454 92.0507C88.3672 92.438 88.5044 92.7984 88.7604 92.8558C89.0164 92.9131 89.2943 92.6457 89.381 92.2584Z" fill="#F29111"/>
<path d="M88.9826 94.024C89.0694 93.6367 88.9322 93.2763 88.6762 93.2189C88.4202 93.1616 88.1423 93.4291 88.0555 93.8163C87.9688 94.2036 88.106 94.5641 88.362 94.6214C88.618 94.6788 88.8958 94.4113 88.9826 94.024Z" fill="#F29111"/>
<path d="M88.5998 95.7799C88.6865 95.3926 88.5493 95.0321 88.2933 94.9748C88.0373 94.9174 87.7595 95.1849 87.6727 95.5722C87.586 95.9595 87.7232 96.3199 87.9792 96.3773C88.2352 96.4346 88.513 96.1672 88.5998 95.7799Z" fill="#F29111"/>
<path d="M88.2014 97.5338C88.2881 97.1465 88.1509 96.786 87.8949 96.7287C87.6389 96.6713 87.361 96.9388 87.2743 97.3261C87.1875 97.7134 87.3247 98.0738 87.5807 98.1312C87.8367 98.1885 88.1146 97.9211 88.2014 97.5338Z" fill="#F29111"/>
<path d="M87.8029 99.2975C87.8897 98.9102 87.7525 98.5497 87.4965 98.4924C87.2405 98.435 86.9626 98.7025 86.8758 99.0898C86.7891 99.4771 86.9263 99.8375 87.1823 99.8949C87.4383 99.9522 87.7162 99.6847 87.8029 99.2975Z" fill="#F29111"/>
<path d="M87.4123 101.053C87.499 100.666 87.3619 100.306 87.1058 100.248C86.8498 100.191 86.572 100.458 86.4852 100.846C86.3985 101.233 86.5357 101.593 86.7917 101.651C87.0477 101.708 87.3255 101.441 87.4123 101.053Z" fill="#F29111"/>
<path d="M93.2951 91.2935C93.3819 90.9063 93.2447 90.5458 92.9887 90.4885C92.7327 90.4311 92.4548 90.6986 92.368 91.0859C92.2813 91.4731 92.4185 91.8336 92.6745 91.891C92.9305 91.9483 93.2083 91.6808 93.2951 91.2935Z" fill="#F29111"/>
<path d="M92.9045 93.0494C92.9912 92.6621 92.854 92.3017 92.598 92.2443C92.342 92.187 92.0642 92.4544 91.9774 92.8417C91.8906 93.229 92.0278 93.5895 92.2839 93.6468C92.5399 93.7042 92.8177 93.4367 92.9045 93.0494Z" fill="#F29111"/>
<path d="M92.506 94.815C92.5928 94.4277 92.4556 94.0673 92.1996 94.0099C91.9436 93.9526 91.6657 94.2201 91.579 94.6073C91.4922 94.9946 91.6294 95.3551 91.8854 95.4124C92.1414 95.4698 92.4193 95.2023 92.506 94.815Z" fill="#F29111"/>
<path d="M92.1076 96.567C92.1944 96.1797 92.0572 95.8192 91.8012 95.7619C91.5452 95.7045 91.2673 95.972 91.1805 96.3593C91.0938 96.7466 91.231 97.107 91.487 97.1644C91.743 97.2217 92.0208 96.9543 92.1076 96.567Z" fill="#F29111"/>
<path d="M91.7248 98.3229C91.8116 97.9356 91.6744 97.5751 91.4183 97.5178C91.1623 97.4604 90.8845 97.7279 90.7977 98.1152C90.711 98.5025 90.8482 98.8629 91.1042 98.9202C91.3602 98.9776 91.638 98.7101 91.7248 98.3229Z" fill="#F29111"/>
<path d="M91.3263 100.088C91.4131 99.7012 91.2759 99.3407 91.0199 99.2834C90.7639 99.226 90.486 99.4935 90.3993 99.8808C90.3125 100.268 90.4497 100.629 90.7057 100.686C90.9617 100.743 91.2396 100.476 91.3263 100.088Z" fill="#F29111"/>
<path d="M90.9279 101.842C91.0147 101.455 90.8775 101.095 90.6215 101.037C90.3655 100.98 90.0876 101.247 90.0008 101.635C89.9141 102.022 90.0513 102.382 90.3073 102.44C90.5633 102.497 90.8412 102.23 90.9279 101.842Z" fill="#F29111"/>
<path d="M96.8185 92.0826C96.9053 91.6953 96.7681 91.3349 96.5121 91.2775C96.2561 91.2202 95.9782 91.4876 95.8915 91.8749C95.8047 92.2622 95.9419 92.6227 96.1979 92.68C96.4539 92.7374 96.7318 92.4699 96.8185 92.0826Z" fill="#F29111"/>
<path d="M96.4201 93.8365C96.5069 93.4492 96.3697 93.0888 96.1137 93.0314C95.8577 92.9741 95.5798 93.2415 95.493 93.6288C95.4063 94.0161 95.5435 94.3766 95.7995 94.4339C96.0555 94.4913 96.3333 94.2238 96.4201 93.8365Z" fill="#F29111"/>
<path d="M96.0295 95.6041C96.1162 95.2168 95.979 94.8564 95.723 94.799C95.467 94.7417 95.1892 95.0091 95.1024 95.3964C95.0156 95.7837 95.1528 96.1441 95.4088 96.2015C95.6648 96.2588 95.9427 95.9914 96.0295 95.6041Z" fill="#F29111"/>
<path d="M95.631 97.358C95.7178 96.9707 95.5806 96.6103 95.3246 96.5529C95.0686 96.4956 94.7907 96.763 94.704 97.1503C94.6172 97.5376 94.7544 97.8981 95.0104 97.9554C95.2664 98.0128 95.5443 97.7453 95.631 97.358Z" fill="#F29111"/>
<path d="M95.2326 99.1119C95.3194 98.7246 95.1822 98.3642 94.9262 98.3068C94.6702 98.2495 94.3923 98.5169 94.3055 98.9042C94.2188 99.2915 94.356 99.652 94.612 99.7093C94.868 99.7667 95.1458 99.4992 95.2326 99.1119Z" fill="#F29111"/>
<path d="M94.8498 100.879C94.9365 100.492 94.7994 100.132 94.5433 100.074C94.2873 100.017 94.0095 100.285 93.9227 100.672C93.836 101.059 93.9732 101.42 94.2292 101.477C94.4852 101.534 94.763 101.267 94.8498 100.879Z" fill="#F29111"/>
<path d="M94.4513 102.633C94.5381 102.246 94.4009 101.886 94.1449 101.828C93.8889 101.771 93.611 102.038 93.5243 102.426C93.4375 102.813 93.5747 103.173 93.8307 103.231C94.0867 103.288 94.3646 103.021 94.4513 102.633Z" fill="#F29111"/>
<path d="M90.9513 90.7701C91.0381 90.3828 90.9009 90.0224 90.6449 89.965C90.3889 89.9077 90.111 90.1751 90.0243 90.5624C89.9375 90.9497 90.0747 91.3102 90.3307 91.3675C90.5867 91.4249 90.8646 91.1574 90.9513 90.7701Z" fill="#F29111"/>
<path d="M90.5529 92.524C90.6397 92.1367 90.5025 91.7763 90.2465 91.7189C89.9905 91.6616 89.7126 91.929 89.6258 92.3163C89.5391 92.7036 89.6763 93.0641 89.9323 93.1214C90.1883 93.1788 90.4662 92.9113 90.5529 92.524Z" fill="#F29111"/>
<path d="M90.1623 94.2799C90.249 93.8926 90.1118 93.5321 89.8558 93.4748C89.5998 93.4174 89.322 93.6849 89.2352 94.0722C89.1485 94.4595 89.2857 94.8199 89.5417 94.8773C89.7977 94.9346 90.0755 94.6672 90.1623 94.2799Z" fill="#F29111"/>
<path d="M89.7638 96.0455C89.8506 95.6582 89.7134 95.2978 89.4574 95.2404C89.2014 95.1831 88.9235 95.4505 88.8368 95.8378C88.75 96.2251 88.8872 96.5856 89.1432 96.6429C89.3992 96.7003 89.6771 96.4328 89.7638 96.0455Z" fill="#F29111"/>
<path d="M89.3654 97.7975C89.4522 97.4102 89.315 97.0497 89.059 96.9924C88.803 96.935 88.5251 97.2025 88.4383 97.5898C88.3516 97.9771 88.4888 98.3375 88.7448 98.3949C89.0008 98.4522 89.2787 98.1847 89.3654 97.7975Z" fill="#F29111"/>
<path d="M88.9826 99.5553C89.0694 99.168 88.9322 98.8075 88.6762 98.7502C88.4202 98.6928 88.1423 98.9603 88.0555 99.3476C87.9688 99.7349 88.106 100.095 88.362 100.153C88.618 100.21 88.8958 99.9426 88.9826 99.5553Z" fill="#F29111"/>
<path d="M88.5764 101.321C88.6631 100.934 88.5259 100.573 88.2699 100.516C88.0139 100.458 87.736 100.726 87.6493 101.113C87.5625 101.5 87.6997 101.861 87.9557 101.918C88.2117 101.976 88.4896 101.708 88.5764 101.321Z" fill="#F29111"/>
<path d="M94.4748 91.5611C94.5615 91.1738 94.4244 90.8134 94.1683 90.756C93.9123 90.6987 93.6345 90.9662 93.5477 91.3534C93.461 91.7407 93.5982 92.1012 93.8542 92.1585C94.1102 92.2159 94.388 91.9484 94.4748 91.5611Z" fill="#F29111"/>
<path d="M94.0763 93.315C94.1631 92.9277 94.0259 92.5673 93.7699 92.5099C93.5139 92.4526 93.236 92.7201 93.1493 93.1074C93.0625 93.4946 93.1997 93.8551 93.4557 93.9124C93.7117 93.9698 93.9896 93.7023 94.0763 93.315Z" fill="#F29111"/>
<path d="M93.6779 95.0689C93.7647 94.6816 93.6275 94.3212 93.3715 94.2639C93.1155 94.2065 92.8376 94.474 92.7508 94.8613C92.6641 95.2485 92.8013 95.609 93.0573 95.6663C93.3133 95.7237 93.5912 95.4562 93.6779 95.0689Z" fill="#F29111"/>
<path d="M93.2873 96.8365C93.374 96.4492 93.2369 96.0888 92.9808 96.0314C92.7248 95.9741 92.447 96.2416 92.3602 96.6288C92.2735 97.0161 92.4107 97.3766 92.6667 97.4339C92.9227 97.4913 93.2005 97.2238 93.2873 96.8365Z" fill="#F29111"/>
<path d="M92.8888 98.5885C92.9756 98.2012 92.8384 97.8407 92.5824 97.7834C92.3264 97.726 92.0485 97.9935 91.9618 98.3808C91.875 98.7681 92.0122 99.1285 92.2682 99.1859C92.5242 99.2432 92.8021 98.9758 92.8888 98.5885Z" fill="#F29111"/>
<path d="M92.506 100.344C92.5928 99.957 92.4556 99.5966 92.1996 99.5392C91.9436 99.4819 91.6657 99.7494 91.579 100.137C91.4922 100.524 91.6294 100.884 91.8854 100.942C92.1414 100.999 92.4193 100.732 92.506 100.344Z" fill="#F29111"/>
<path d="M92.0998 102.11C92.1866 101.723 92.0494 101.362 91.7933 101.305C91.5373 101.248 91.2595 101.515 91.1727 101.902C91.086 102.29 91.2232 102.65 91.4792 102.707C91.7352 102.765 92.013 102.497 92.0998 102.11Z" fill="#F29111"/>
<path d="M97.9826 92.3365C98.0694 91.9492 97.9322 91.5888 97.6762 91.5314C97.4202 91.4741 97.1423 91.7416 97.0555 92.1288C96.9688 92.5161 97.106 92.8766 97.362 92.9339C97.618 92.9913 97.8958 92.7238 97.9826 92.3365Z" fill="#F29111"/>
<path d="M97.5998 94.1041C97.6865 93.7168 97.5493 93.3564 97.2933 93.299C97.0373 93.2417 96.7595 93.5091 96.6727 93.8964C96.586 94.2837 96.7232 94.6441 96.9792 94.7015C97.2352 94.7588 97.513 94.4914 97.5998 94.1041Z" fill="#F29111"/>
<path d="M97.2013 95.858C97.2881 95.4707 97.1509 95.1103 96.8949 95.0529C96.6389 94.9956 96.361 95.263 96.2743 95.6503C96.1875 96.0376 96.3247 96.3981 96.5807 96.4554C96.8367 96.5128 97.1146 96.2453 97.2013 95.858Z" fill="#F29111"/>
<path d="M96.8107 97.6256C96.8975 97.2383 96.7603 96.8778 96.5043 96.8205C96.2483 96.7631 95.9704 97.0306 95.8837 97.4179C95.7969 97.8052 95.9341 98.1656 96.1901 98.223C96.4461 98.2803 96.724 98.0129 96.8107 97.6256Z" fill="#F29111"/>
<path d="M96.4123 99.3795C96.499 98.9922 96.3618 98.6317 96.1058 98.5744C95.8498 98.517 95.572 98.7845 95.4852 99.1718C95.3985 99.5591 95.5357 99.9195 95.7917 99.9769C96.0477 100.034 96.3255 99.7668 96.4123 99.3795Z" fill="#F29111"/>
<path d="M96.0139 101.133C96.1006 100.746 95.9634 100.386 95.7074 100.328C95.4514 100.271 95.1735 100.538 95.0868 100.926C95 101.313 95.1372 101.673 95.3932 101.731C95.6492 101.788 95.9271 101.521 96.0139 101.133Z" fill="#F29111"/>
<path d="M95.6232 102.901C95.71 102.514 95.5728 102.153 95.3168 102.096C95.0608 102.039 94.7829 102.306 94.6962 102.693C94.6094 103.081 94.7466 103.441 95.0026 103.498C95.2586 103.556 95.5365 103.288 95.6232 102.901Z" fill="#F29111"/>
<path d="M88.9904 88.481C89.0772 88.0938 88.94 87.7333 88.684 87.676C88.428 87.6186 88.1501 87.8861 88.0633 88.2734C87.9766 88.6606 88.1138 89.0211 88.3698 89.0785C88.6258 89.1358 88.9037 88.8683 88.9904 88.481Z" fill="#F29111"/>
<path d="M92.5138 89.2721C92.6006 88.8848 92.4634 88.5243 92.2074 88.467C91.9514 88.4096 91.6735 88.6771 91.5868 89.0644C91.5 89.4517 91.6372 89.8121 91.8932 89.8695C92.1492 89.9268 92.4271 89.6594 92.5138 89.2721Z" fill="#F29111"/>
<path d="M96.0373 90.0611C96.124 89.6738 95.9868 89.3134 95.7308 89.256C95.4748 89.1987 95.197 89.4662 95.1102 89.8534C95.0235 90.2407 95.1607 90.6012 95.4167 90.6585C95.6727 90.7159 95.9505 90.4484 96.0373 90.0611Z" fill="#F29111"/>
<path d="M90.1701 88.7486C90.2569 88.3613 90.1197 88.0009 89.8637 87.9435C89.6077 87.8862 89.3298 88.1537 89.243 88.5409C89.1563 88.9282 89.2935 89.2887 89.5495 89.346C89.8055 89.4034 90.0833 89.1359 90.1701 88.7486Z" fill="#F29111"/>
<path d="M93.6935 89.5396C93.7803 89.1524 93.6431 88.7919 93.3871 88.7346C93.1311 88.6772 92.8532 88.9447 92.7665 89.332C92.6797 89.7192 92.8169 90.0797 93.0729 90.137C93.3289 90.1944 93.6068 89.9269 93.6935 89.5396Z" fill="#F29111"/>
<path d="M97.217 90.3189C97.3037 89.9316 97.1665 89.5712 96.9105 89.5139C96.6545 89.4565 96.3767 89.724 96.2899 90.1113C96.2031 90.4985 96.3403 90.859 96.5963 90.9163C96.8523 90.9737 97.1302 90.7062 97.217 90.3189Z" fill="#F29111"/>
<path d="M91.3498 89.0064C91.4366 88.6191 91.2994 88.2587 91.0433 88.2014C90.7873 88.144 90.5095 88.4115 90.4227 88.7988C90.336 89.186 90.4732 89.5465 90.7292 89.6038C90.9852 89.6612 91.263 89.3937 91.3498 89.0064Z" fill="#F29111"/>
<path d="M94.8576 89.7936C94.9444 89.4063 94.8072 89.0458 94.5512 88.9885C94.2952 88.9311 94.0173 89.1986 93.9305 89.5859C93.8438 89.9732 93.981 90.3336 94.237 90.391C94.493 90.4483 94.7708 90.1808 94.8576 89.7936Z" fill="#F29111"/>
<path d="M98.381 90.5846C98.4678 90.1973 98.3306 89.8368 98.0746 89.7795C97.8186 89.7221 97.5407 89.9896 97.454 90.3769C97.3672 90.7642 97.5044 91.1246 97.7604 91.182C98.0164 91.2393 98.2943 90.9718 98.381 90.5846Z" fill="#F29111"/>
<path d="M89.3576 103.342C89.4444 102.955 89.3072 102.595 89.0512 102.537C88.7952 102.48 88.5173 102.747 88.4305 103.135C88.3438 103.522 88.481 103.882 88.737 103.94C88.993 103.997 89.2708 103.73 89.3576 103.342Z" fill="#F29111"/>
<path d="M88.9748 105.098C89.0616 104.711 88.9244 104.351 88.6683 104.293C88.4123 104.236 88.1345 104.503 88.0477 104.891C87.961 105.278 88.0982 105.638 88.3542 105.696C88.6102 105.753 88.888 105.486 88.9748 105.098Z" fill="#F29111"/>
<path d="M92.881 104.131C92.9678 103.744 92.8306 103.384 92.5746 103.326C92.3186 103.269 92.0407 103.536 91.954 103.924C91.8672 104.311 92.0044 104.671 92.2604 104.729C92.5164 104.786 92.7943 104.519 92.881 104.131Z" fill="#F29111"/>
<path d="M92.4826 105.885C92.5694 105.498 92.4322 105.138 92.1762 105.08C91.9202 105.023 91.6423 105.29 91.5555 105.678C91.4688 106.065 91.606 106.425 91.862 106.483C92.118 106.54 92.3958 106.273 92.4826 105.885Z" fill="#F29111"/>
<path d="M96.4045 104.922C96.4912 104.535 96.354 104.175 96.098 104.117C95.842 104.06 95.5642 104.327 95.4774 104.715C95.3906 105.102 95.5278 105.463 95.7839 105.52C96.0399 105.577 96.3177 105.31 96.4045 104.922Z" fill="#F29111"/>
<path d="M96.006 106.674C96.0928 106.287 95.9556 105.927 95.6996 105.869C95.4436 105.812 95.1657 106.079 95.079 106.467C94.9922 106.854 95.1294 107.214 95.3854 107.272C95.6414 107.329 95.9193 107.062 96.006 106.674Z" fill="#F29111"/>
<path d="M87.0138 102.807C87.1006 102.42 86.9634 102.059 86.7074 102.002C86.4514 101.945 86.1735 102.212 86.0868 102.6C86 102.987 86.1372 103.347 86.3932 103.405C86.6492 103.462 86.9271 103.195 87.0138 102.807Z" fill="#F29111"/>
<path d="M86.6154 104.573C86.7022 104.186 86.565 103.825 86.309 103.768C86.053 103.71 85.7751 103.978 85.6883 104.365C85.6016 104.752 85.7388 105.113 85.9948 105.17C86.2508 105.228 86.5286 104.96 86.6154 104.573Z" fill="#F29111"/>
<path d="M90.5373 103.598C90.624 103.211 90.4869 102.851 90.2308 102.793C89.9748 102.736 89.697 103.003 89.6102 103.391C89.5235 103.778 89.6607 104.138 89.9167 104.196C90.1727 104.253 90.4505 103.986 90.5373 103.598Z" fill="#F29111"/>
<path d="M90.1388 105.364C90.2256 104.977 90.0884 104.616 89.8324 104.559C89.5764 104.501 89.2985 104.769 89.2118 105.156C89.125 105.543 89.2622 105.904 89.5182 105.961C89.7742 106.019 90.0521 105.751 90.1388 105.364Z" fill="#F29111"/>
<path d="M94.0607 104.389C94.1475 104.002 94.0103 103.642 93.7543 103.584C93.4983 103.527 93.2204 103.794 93.1337 104.182C93.0469 104.569 93.1841 104.929 93.4401 104.987C93.6961 105.044 93.974 104.777 94.0607 104.389Z" fill="#F29111"/>
<path d="M93.6623 106.153C93.749 105.766 93.6118 105.405 93.3558 105.348C93.0998 105.29 92.822 105.558 92.7352 105.945C92.6485 106.333 92.7856 106.693 93.0416 106.75C93.2977 106.808 93.5755 106.54 93.6623 106.153Z" fill="#F29111"/>
<path d="M88.1935 103.077C88.2803 102.689 88.1431 102.329 87.8871 102.272C87.6311 102.214 87.3532 102.482 87.2665 102.869C87.1797 103.256 87.3169 103.617 87.5729 103.674C87.8289 103.732 88.1068 103.464 88.1935 103.077Z" fill="#F29111"/>
<path d="M87.7951 104.829C87.8819 104.441 87.7447 104.081 87.4887 104.024C87.2327 103.966 86.9548 104.234 86.868 104.621C86.7813 105.008 86.9185 105.369 87.1745 105.426C87.4305 105.483 87.7083 105.216 87.7951 104.829Z" fill="#F29111"/>
<path d="M91.7092 103.864C91.7959 103.477 91.6587 103.116 91.4027 103.059C91.1467 103.001 90.8689 103.269 90.7821 103.656C90.6953 104.043 90.8325 104.404 91.0885 104.461C91.3445 104.519 91.6224 104.251 91.7092 103.864Z" fill="#F29111"/>
<path d="M91.3185 105.62C91.4053 105.232 91.2681 104.872 91.0121 104.815C90.7561 104.757 90.4782 105.025 90.3915 105.412C90.3047 105.799 90.4419 106.16 90.6979 106.217C90.9539 106.274 91.2318 106.007 91.3185 105.62Z" fill="#F29111"/>
<path d="M95.2326 104.655C95.3194 104.268 95.1822 103.907 94.9262 103.85C94.6702 103.792 94.3923 104.06 94.3055 104.447C94.2188 104.834 94.356 105.195 94.612 105.252C94.868 105.31 95.1458 105.042 95.2326 104.655Z" fill="#F29111"/>
<path d="M94.842 106.411C94.9287 106.023 94.7915 105.663 94.5355 105.606C94.2795 105.548 94.0017 105.816 93.9149 106.203C93.8281 106.59 93.9653 106.951 94.2214 107.008C94.4774 107.065 94.7552 106.798 94.842 106.411Z" fill="#F29111"/>
</g>
<mask id="mask1_1993_5787" style="mask-type:luminance" maskUnits="userSpaceOnUse" x="105" y="93" width="13" height="18">
<path d="M116.963 103.001C118.007 98.3409 116.331 93.9977 113.219 93.3007C110.108 92.6036 106.739 95.8167 105.695 100.477C104.651 105.138 106.327 109.481 109.438 110.178C112.55 110.875 115.919 107.662 116.963 103.001Z" fill="white"/>
</mask>
<g mask="url(#mask1_1993_5787)">
<path d="M107.881 94.5553C107.968 94.168 107.831 93.8075 107.575 93.7502C107.319 93.6928 107.041 93.9603 106.954 94.3476C106.867 94.7349 107.004 95.0953 107.26 95.1527C107.516 95.21 107.794 94.9426 107.881 94.5553Z" fill="#F29111"/>
<path d="M107.49 96.3228C107.577 95.9356 107.44 95.5751 107.184 95.5178C106.928 95.4604 106.65 95.7279 106.563 96.1152C106.477 96.5024 106.614 96.8629 106.87 96.9202C107.126 96.9776 107.404 96.7101 107.49 96.3228Z" fill="#F29111"/>
<path d="M107.092 98.0767C107.179 97.6895 107.042 97.329 106.786 97.2717C106.53 97.2143 106.252 97.4818 106.165 97.8691C106.078 98.2564 106.215 98.6168 106.471 98.6742C106.727 98.7315 107.005 98.464 107.092 98.0767Z" fill="#F29111"/>
<path d="M106.709 99.8326C106.796 99.4453 106.659 99.0849 106.403 99.0275C106.147 98.9702 105.869 99.2376 105.782 99.6249C105.695 100.012 105.833 100.373 106.089 100.43C106.345 100.487 106.622 100.22 106.709 99.8326Z" fill="#F29111"/>
<path d="M106.303 101.596C106.39 101.209 106.252 100.849 105.996 100.791C105.74 100.734 105.463 101.001 105.376 101.389C105.289 101.776 105.426 102.136 105.682 102.194C105.938 102.251 106.216 101.984 106.303 101.596Z" fill="#F29111"/>
<path d="M105.912 103.35C105.999 102.963 105.862 102.602 105.606 102.545C105.35 102.488 105.072 102.755 104.985 103.143C104.898 103.53 105.036 103.89 105.292 103.948C105.548 104.005 105.826 103.737 105.912 103.35Z" fill="#F29111"/>
<path d="M105.522 105.118C105.608 104.73 105.471 104.37 105.215 104.313C104.959 104.255 104.681 104.523 104.595 104.91C104.508 105.297 104.645 105.658 104.901 105.715C105.157 105.773 105.435 105.505 105.522 105.118Z" fill="#F29111"/>
<path d="M111.404 95.3443C111.491 94.957 111.354 94.5966 111.098 94.5392C110.842 94.4819 110.564 94.7494 110.477 95.1366C110.391 95.5239 110.528 95.8844 110.784 95.9417C111.04 95.9991 111.318 95.7316 111.404 95.3443Z" fill="#F29111"/>
<path d="M111.014 97.1119C111.101 96.7246 110.963 96.3642 110.707 96.3068C110.451 96.2495 110.174 96.5169 110.087 96.9042C110 97.2915 110.137 97.652 110.393 97.7093C110.649 97.7667 110.927 97.4992 111.014 97.1119Z" fill="#F29111"/>
<path d="M110.615 98.8658C110.702 98.4785 110.565 98.1181 110.309 98.0607C110.053 98.0034 109.775 98.2708 109.688 98.6581C109.602 99.0454 109.739 99.4059 109.995 99.4632C110.251 99.5206 110.529 99.2531 110.615 98.8658Z" fill="#F29111"/>
<path d="M110.217 100.62C110.304 100.232 110.167 99.872 109.911 99.8146C109.655 99.7573 109.377 100.025 109.29 100.412C109.203 100.799 109.34 101.16 109.596 101.217C109.852 101.274 110.13 101.007 110.217 100.62Z" fill="#F29111"/>
<path d="M109.826 102.387C109.913 102 109.776 101.64 109.52 101.582C109.264 101.525 108.986 101.792 108.899 102.18C108.813 102.567 108.95 102.927 109.206 102.985C109.462 103.042 109.74 102.775 109.826 102.387Z" fill="#F29111"/>
<path d="M109.428 104.141C109.515 103.754 109.377 103.393 109.121 103.336C108.865 103.279 108.588 103.546 108.501 103.934C108.414 104.321 108.551 104.681 108.807 104.739C109.063 104.796 109.341 104.528 109.428 104.141Z" fill="#F29111"/>
<path d="M109.045 105.897C109.132 105.51 108.995 105.149 108.739 105.092C108.483 105.035 108.205 105.302 108.118 105.689C108.031 106.077 108.168 106.437 108.424 106.494C108.68 106.552 108.958 106.284 109.045 105.897Z" fill="#F29111"/>
<path d="M114.928 96.1353C115.015 95.7481 114.877 95.3876 114.621 95.3303C114.365 95.2729 114.088 95.5404 114.001 95.9277C113.914 96.3149 114.051 96.6754 114.307 96.7327C114.563 96.7901 114.841 96.5226 114.928 96.1353Z" fill="#F29111"/>
<path d="M114.522 97.901C114.608 97.5137 114.471 97.1532 114.215 97.0959C113.959 97.0385 113.681 97.306 113.595 97.6933C113.508 98.0806 113.645 98.441 113.901 98.4984C114.157 98.5557 114.435 98.2883 114.522 97.901Z" fill="#F29111"/>
<path d="M114.139 99.6568C114.226 99.2695 114.088 98.9091 113.832 98.8518C113.576 98.7944 113.299 99.0619 113.212 99.4491C113.125 99.8364 113.262 100.197 113.518 100.254C113.774 100.312 114.052 100.044 114.139 99.6568Z" fill="#F29111"/>
<path d="M113.74 101.411C113.827 101.023 113.69 100.663 113.434 100.606C113.178 100.548 112.9 100.816 112.813 101.203C112.727 101.59 112.864 101.951 113.12 102.008C113.376 102.065 113.654 101.798 113.74 101.411Z" fill="#F29111"/>
<path d="M113.35 103.178C113.437 102.791 113.299 102.431 113.043 102.373C112.787 102.316 112.509 102.583 112.423 102.971C112.336 103.358 112.473 103.718 112.729 103.776C112.985 103.833 113.263 103.566 113.35 103.178Z" fill="#F29111"/>
<path d="M112.951 104.93C113.038 104.543 112.901 104.183 112.645 104.125C112.389 104.068 112.111 104.335 112.024 104.723C111.938 105.11 112.075 105.47 112.331 105.528C112.587 105.585 112.865 105.318 112.951 104.93Z" fill="#F29111"/>
<path d="M112.561 106.684C112.647 106.297 112.51 105.936 112.254 105.879C111.998 105.822 111.72 106.089 111.634 106.476C111.547 106.864 111.684 107.224 111.94 107.282C112.196 107.339 112.474 107.071 112.561 106.684Z" fill="#F29111"/>
<path d="M118.045 98.69C118.132 98.3027 117.995 97.9423 117.739 97.8849C117.483 97.8276 117.205 98.0951 117.118 98.4823C117.031 98.8696 117.168 99.2301 117.424 99.2874C117.68 99.3448 117.958 99.0773 118.045 98.69Z" fill="#F29111"/>
<path d="M117.662 100.446C117.749 100.059 117.612 99.6982 117.356 99.6408C117.1 99.5835 116.822 99.8509 116.735 100.238C116.648 100.626 116.786 100.986 117.042 101.043C117.298 101.101 117.576 100.833 117.662 100.446Z" fill="#F29111"/>
<path d="M117.264 102.2C117.351 101.813 117.213 101.452 116.957 101.395C116.701 101.337 116.424 101.605 116.337 101.992C116.25 102.379 116.387 102.74 116.643 102.797C116.899 102.855 117.177 102.587 117.264 102.2Z" fill="#F29111"/>
<path d="M116.865 103.965C116.952 103.578 116.815 103.218 116.559 103.16C116.303 103.103 116.025 103.37 115.938 103.758C115.852 104.145 115.989 104.505 116.245 104.563C116.501 104.62 116.779 104.353 116.865 103.965Z" fill="#F29111"/>
<path d="M116.475 105.721C116.562 105.334 116.424 104.974 116.168 104.916C115.912 104.859 115.634 105.126 115.548 105.514C115.461 105.901 115.598 106.261 115.854 106.319C116.11 106.376 116.388 106.109 116.475 105.721Z" fill="#F29111"/>
<path d="M116.076 107.475C116.163 107.088 116.026 106.727 115.77 106.67C115.514 106.613 115.236 106.88 115.149 107.268C115.063 107.655 115.2 108.015 115.456 108.073C115.712 108.13 115.99 107.862 116.076 107.475Z" fill="#F29111"/>
<path d="M109.053 94.8228C109.14 94.4356 109.002 94.0751 108.746 94.0178C108.49 93.9604 108.213 94.2279 108.126 94.6152C108.039 95.0025 108.176 95.3629 108.432 95.4202C108.688 95.4776 108.966 95.2101 109.053 94.8228Z" fill="#F29111"/>
<path d="M108.654 96.5767C108.741 96.1895 108.604 95.829 108.348 95.7717C108.092 95.7143 107.814 95.9818 107.727 96.3691C107.641 96.7564 107.778 97.1168 108.034 97.1742C108.29 97.2315 108.568 96.964 108.654 96.5767Z" fill="#F29111"/>
<path d="M108.272 98.3443C108.358 97.957 108.221 97.5966 107.965 97.5392C107.709 97.4819 107.431 97.7494 107.345 98.1367C107.258 98.5239 107.395 98.8844 107.651 98.9417C107.907 98.9991 108.185 98.7316 108.272 98.3443Z" fill="#F29111"/>
<path d="M107.873 100.098C107.96 99.7109 107.823 99.3505 107.567 99.2932C107.311 99.2358 107.033 99.5033 106.946 99.8905C106.859 100.278 106.997 100.638 107.253 100.696C107.509 100.753 107.786 100.486 107.873 100.098Z" fill="#F29111"/>
<path d="M107.483 101.854C107.569 101.467 107.432 101.106 107.176 101.049C106.92 100.992 106.642 101.259 106.556 101.646C106.469 102.034 106.606 102.394 106.862 102.451C107.118 102.509 107.396 102.241 107.483 101.854Z" fill="#F29111"/>
<path d="M107.084 103.618C107.171 103.23 107.034 102.87 106.778 102.813C106.522 102.755 106.244 103.023 106.157 103.41C106.07 103.797 106.208 104.158 106.464 104.215C106.72 104.273 106.997 104.005 107.084 103.618Z" fill="#F29111"/>
<path d="M106.686 105.372C106.772 104.984 106.635 104.624 106.379 104.567C106.123 104.509 105.845 104.777 105.759 105.164C105.672 105.551 105.809 105.912 106.065 105.969C106.321 106.026 106.599 105.759 106.686 105.372Z" fill="#F29111"/>
<path d="M112.576 95.6139C112.663 95.2266 112.526 94.8661 112.27 94.8088C112.014 94.7514 111.736 95.0189 111.649 95.4062C111.563 95.7935 111.7 96.1539 111.956 96.2113C112.212 96.2686 112.49 96.0011 112.576 95.6139Z" fill="#F29111"/>
<path d="M112.178 97.3658C112.265 96.9785 112.127 96.6181 111.871 96.5607C111.615 96.5034 111.338 96.7708 111.251 97.1581C111.164 97.5454 111.301 97.9059 111.557 97.9632C111.813 98.0206 112.091 97.7531 112.178 97.3658Z" fill="#F29111"/>
<path d="M111.795 99.1353C111.882 98.7481 111.745 98.3876 111.489 98.3303C111.233 98.2729 110.955 98.5404 110.868 98.9277C110.781 99.3149 110.918 99.6754 111.174 99.7327C111.43 99.7901 111.708 99.5226 111.795 99.1353Z" fill="#F29111"/>
<path d="M111.397 100.887C111.483 100.5 111.346 100.14 111.09 100.082C110.834 100.025 110.556 100.292 110.47 100.68C110.383 101.067 110.52 101.427 110.776 101.485C111.032 101.542 111.31 101.275 111.397 100.887Z" fill="#F29111"/>
<path d="M110.998 102.641C111.085 102.254 110.948 101.893 110.692 101.836C110.436 101.779 110.158 102.046 110.071 102.434C109.984 102.821 110.122 103.181 110.378 103.239C110.634 103.296 110.911 103.028 110.998 102.641Z" fill="#F29111"/>
<path d="M110.608 104.409C110.694 104.022 110.557 103.661 110.301 103.604C110.045 103.546 109.767 103.814 109.681 104.201C109.594 104.588 109.731 104.949 109.987 105.006C110.243 105.064 110.521 104.796 110.608 104.409Z" fill="#F29111"/>
<path d="M110.209 106.163C110.296 105.775 110.159 105.415 109.903 105.358C109.647 105.3 109.369 105.568 109.282 105.955C109.195 106.342 109.333 106.703 109.589 106.76C109.845 106.817 110.122 106.55 110.209 106.163Z" fill="#F29111"/>
<path d="M116.1 96.4029C116.187 96.0156 116.049 95.6552 115.793 95.5978C115.537 95.5405 115.259 95.8079 115.173 96.1952C115.086 96.5825 115.223 96.943 115.479 97.0003C115.735 97.0577 116.013 96.7902 116.1 96.4029Z" fill="#F29111"/>
<path d="M115.701 98.1568C115.788 97.7696 115.651 97.4091 115.395 97.3518C115.139 97.2944 114.861 97.5619 114.774 97.9492C114.688 98.3364 114.825 98.6969 115.081 98.7542C115.337 98.8116 115.615 98.5441 115.701 98.1568Z" fill="#F29111"/>
<path d="M115.303 99.9225C115.39 99.5352 115.252 99.1747 114.996 99.1174C114.74 99.06 114.463 99.3275 114.376 99.7148C114.289 100.102 114.426 100.463 114.682 100.52C114.938 100.577 115.216 100.31 115.303 99.9225Z" fill="#F29111"/>
<path d="M114.92 101.678C115.007 101.291 114.87 100.931 114.614 100.873C114.358 100.816 114.08 101.083 113.993 101.471C113.906 101.858 114.043 102.218 114.299 102.276C114.555 102.333 114.833 102.066 114.92 101.678Z" fill="#F29111"/>
<path d="M114.522 103.432C114.608 103.045 114.471 102.684 114.215 102.627C113.959 102.57 113.681 102.837 113.595 103.225C113.508 103.612 113.645 103.972 113.901 104.03C114.157 104.087 114.435 103.82 114.522 103.432Z" fill="#F29111"/>
<path d="M114.123 105.196C114.21 104.809 114.073 104.448 113.817 104.391C113.561 104.333 113.283 104.601 113.196 104.988C113.109 105.375 113.247 105.736 113.503 105.793C113.759 105.851 114.036 105.583 114.123 105.196Z" fill="#F29111"/>
<path d="M113.733 106.954C113.819 106.566 113.682 106.206 113.426 106.149C113.17 106.091 112.892 106.359 112.806 106.746C112.719 107.133 112.856 107.494 113.112 107.551C113.368 107.608 113.646 107.341 113.733 106.954Z" fill="#F29111"/>
<path d="M110.233 95.0904C110.319 94.7031 110.182 94.3427 109.926 94.2853C109.67 94.228 109.392 94.4954 109.306 94.8827C109.219 95.27 109.356 95.6305 109.612 95.6878C109.868 95.7452 110.146 95.4777 110.233 95.0904Z" fill="#F29111"/>
<path d="M109.834 96.8443C109.921 96.457 109.784 96.0966 109.528 96.0392C109.272 95.9819 108.994 96.2494 108.907 96.6366C108.82 97.0239 108.958 97.3844 109.214 97.4417C109.47 97.4991 109.747 97.2316 109.834 96.8443Z" fill="#F29111"/>
<path d="M109.436 98.5982C109.522 98.211 109.385 97.8505 109.129 97.7932C108.873 97.7358 108.595 98.0033 108.509 98.3906C108.422 98.7778 108.559 99.1383 108.815 99.1956C109.071 99.253 109.349 98.9855 109.436 98.5982Z" fill="#F29111"/>
<path d="M109.045 100.366C109.132 99.9785 108.995 99.6181 108.739 99.5607C108.483 99.5034 108.205 99.7708 108.118 100.158C108.031 100.545 108.168 100.906 108.424 100.963C108.68 101.021 108.958 100.753 109.045 100.366Z" fill="#F29111"/>
<path d="M108.654 102.118C108.741 101.73 108.604 101.37 108.348 101.313C108.092 101.255 107.814 101.523 107.727 101.91C107.641 102.297 107.778 102.658 108.034 102.715C108.29 102.773 108.568 102.505 108.654 102.118Z" fill="#F29111"/>
<path d="M108.264 103.876C108.351 103.488 108.213 103.128 107.957 103.07C107.701 103.013 107.424 103.281 107.337 103.668C107.25 104.055 107.387 104.416 107.643 104.473C107.899 104.53 108.177 104.263 108.264 103.876Z" fill="#F29111"/>
<path d="M107.865 105.641C107.952 105.254 107.815 104.893 107.559 104.836C107.303 104.779 107.025 105.046 106.938 105.434C106.852 105.821 106.989 106.181 107.245 106.239C107.501 106.296 107.779 106.028 107.865 105.641Z" fill="#F29111"/>
<path d="M113.748 95.8795C113.835 95.4922 113.698 95.1317 113.442 95.0744C113.186 95.017 112.908 95.2845 112.821 95.6718C112.734 96.0591 112.872 96.4195 113.128 96.4769C113.384 96.5342 113.661 96.2668 113.748 95.8795Z" fill="#F29111"/>
<path d="M113.358 97.6353C113.444 97.2481 113.307 96.8876 113.051 96.8303C112.795 96.7729 112.517 97.0404 112.431 97.4277C112.344 97.8149 112.481 98.1754 112.737 98.2327C112.993 98.2901 113.271 98.0226 113.358 97.6353Z" fill="#F29111"/>
<path d="M112.959 99.3892C113.046 99.002 112.909 98.6415 112.653 98.5842C112.397 98.5268 112.119 98.7943 112.032 99.1816C111.945 99.5689 112.083 99.9293 112.339 99.9867C112.595 100.044 112.872 99.7765 112.959 99.3892Z" fill="#F29111"/>
<path d="M112.576 101.157C112.663 100.77 112.526 100.409 112.27 100.352C112.014 100.294 111.736 100.562 111.649 100.949C111.563 101.336 111.7 101.697 111.956 101.754C112.212 101.812 112.49 101.544 112.576 101.157Z" fill="#F29111"/>
<path d="M112.178 102.909C112.265 102.521 112.127 102.161 111.871 102.104C111.615 102.046 111.338 102.314 111.251 102.701C111.164 103.088 111.301 103.449 111.557 103.506C111.813 103.564 112.091 103.296 112.178 102.909Z" fill="#F29111"/>
<path d="M111.779 104.663C111.866 104.275 111.729 103.915 111.473 103.858C111.217 103.8 110.939 104.068 110.852 104.455C110.766 104.842 110.903 105.203 111.159 105.26C111.415 105.317 111.693 105.05 111.779 104.663Z" fill="#F29111"/>
<path d="M111.389 106.43C111.476 106.043 111.338 105.683 111.082 105.625C110.826 105.568 110.549 105.835 110.462 106.223C110.375 106.61 110.512 106.97 110.768 107.028C111.024 107.085 111.302 106.818 111.389 106.43Z" fill="#F29111"/>
<path d="M117.264 96.6685C117.351 96.2813 117.213 95.9208 116.957 95.8635C116.701 95.8061 116.424 96.0736 116.337 96.4609C116.25 96.8481 116.387 97.2086 116.643 97.266C116.899 97.3233 117.177 97.0558 117.264 96.6685Z" fill="#F29111"/>
<path d="M116.881 98.4244C116.968 98.0371 116.831 97.6767 116.575 97.6193C116.319 97.562 116.041 97.8294 115.954 98.2167C115.867 98.604 116.004 98.9645 116.26 99.0218C116.516 99.0792 116.794 98.8117 116.881 98.4244Z" fill="#F29111"/>
<path d="M116.483 100.178C116.569 99.791 116.432 99.4306 116.176 99.3732C115.92 99.3159 115.642 99.5833 115.556 99.9706C115.469 100.358 115.606 100.718 115.862 100.776C116.118 100.833 116.396 100.566 116.483 100.178Z" fill="#F29111"/>
<path d="M116.084 101.944C116.171 101.557 116.034 101.196 115.778 101.139C115.522 101.082 115.244 101.349 115.157 101.736C115.07 102.124 115.208 102.484 115.464 102.541C115.72 102.599 115.997 102.331 116.084 101.944Z" fill="#F29111"/>
<path d="M115.701 103.7C115.788 103.313 115.651 102.952 115.395 102.895C115.139 102.837 114.861 103.105 114.774 103.492C114.688 103.879 114.825 104.24 115.081 104.297C115.337 104.355 115.615 104.087 115.701 103.7Z" fill="#F29111"/>
<path d="M115.303 105.454C115.39 105.066 115.252 104.706 114.996 104.649C114.74 104.591 114.463 104.859 114.376 105.246C114.289 105.633 114.426 105.994 114.682 106.051C114.938 106.108 115.216 105.841 115.303 105.454Z" fill="#F29111"/>
<path d="M114.897 107.219C114.983 106.832 114.846 106.472 114.59 106.414C114.334 106.357 114.056 106.624 113.97 107.012C113.883 107.399 114.02 107.759 114.276 107.817C114.532 107.874 114.81 107.607 114.897 107.219Z" fill="#F29111"/>
<path d="M108.272 92.8014C108.358 92.4141 108.221 92.0536 107.965 91.9963C107.709 91.9389 107.431 92.2064 107.345 92.5937C107.258 92.981 107.395 93.3414 107.651 93.3988C107.907 93.4561 108.185 93.1886 108.272 92.8014Z" fill="#F29111"/>
<path d="M111.795 93.5924C111.882 93.2051 111.745 92.8446 111.489 92.7873C111.233 92.7299 110.955 92.9974 110.868 93.3847C110.781 93.772 110.918 94.1324 111.174 94.1898C111.43 94.2471 111.708 93.9797 111.795 93.5924Z" fill="#F29111"/>
<path d="M115.326 94.3814C115.413 93.9941 115.276 93.6337 115.02 93.5763C114.764 93.519 114.486 93.7865 114.399 94.1738C114.313 94.561 114.45 94.9215 114.706 94.9788C114.962 95.0362 115.24 94.7687 115.326 94.3814Z" fill="#F29111"/>
<path d="M109.451 93.0689C109.538 92.6817 109.401 92.3212 109.145 92.2639C108.889 92.2065 108.611 92.474 108.524 92.8613C108.438 93.2485 108.575 93.609 108.831 93.6663C109.087 93.7237 109.365 93.4562 109.451 93.0689Z" fill="#F29111"/>
<path d="M112.967 93.858C113.054 93.4707 112.917 93.1103 112.661 93.0529C112.405 92.9956 112.127 93.263 112.04 93.6503C111.953 94.0376 112.09 94.3981 112.346 94.4554C112.602 94.5128 112.88 94.2453 112.967 93.858Z" fill="#F29111"/>
<path d="M116.49 94.6471C116.577 94.2598 116.44 93.8993 116.184 93.842C115.928 93.7846 115.65 94.0521 115.563 94.4394C115.477 94.8267 115.614 95.1871 115.87 95.2445C116.126 95.3018 116.404 95.0343 116.49 94.6471Z" fill="#F29111"/>
<path d="M110.623 93.3228C110.71 92.9356 110.573 92.5751 110.317 92.5178C110.061 92.4604 109.783 92.7279 109.696 93.1152C109.609 93.5024 109.747 93.8629 110.003 93.9202C110.259 93.9776 110.536 93.7101 110.623 93.3228Z" fill="#F29111"/>
<path d="M114.147 94.1139C114.233 93.7266 114.096 93.3661 113.84 93.3088C113.584 93.2514 113.306 93.5189 113.22 93.9062C113.133 94.2935 113.27 94.6539 113.526 94.7113C113.782 94.7686 114.06 94.5011 114.147 94.1139Z" fill="#F29111"/>
<path d="M117.67 94.9049C117.757 94.5176 117.62 94.1571 117.364 94.0998C117.108 94.0424 116.83 94.3099 116.743 94.6972C116.656 95.0845 116.793 95.4449 117.049 95.5023C117.305 95.5596 117.583 95.2922 117.67 94.9049Z" fill="#F29111"/>
<path d="M108.647 107.663C108.733 107.275 108.596 106.915 108.34 106.858C108.084 106.8 107.806 107.068 107.72 107.455C107.633 107.842 107.77 108.203 108.026 108.26C108.282 108.317 108.56 108.05 108.647 107.663Z" fill="#F29111"/>
<path d="M108.248 109.415C108.335 109.027 108.198 108.667 107.942 108.61C107.686 108.552 107.408 108.82 107.321 109.207C107.234 109.594 107.372 109.955 107.628 110.012C107.884 110.069 108.161 109.802 108.248 109.415Z" fill="#F29111"/>
<path d="M112.17 108.452C112.257 108.064 112.12 107.704 111.864 107.647C111.608 107.589 111.33 107.857 111.243 108.244C111.156 108.631 111.293 108.992 111.549 109.049C111.805 109.107 112.083 108.839 112.17 108.452Z" fill="#F29111"/>
<path d="M111.772 110.206C111.858 109.818 111.721 109.458 111.465 109.401C111.209 109.343 110.931 109.611 110.845 109.998C110.758 110.385 110.895 110.746 111.151 110.803C111.407 110.86 111.685 110.593 111.772 110.206Z" fill="#F29111"/>
<path d="M115.678 109.239C115.765 108.852 115.627 108.491 115.371 108.434C115.115 108.376 114.838 108.644 114.751 109.031C114.664 109.418 114.801 109.779 115.057 109.836C115.313 109.894 115.591 109.626 115.678 109.239Z" fill="#F29111"/>
<path d="M115.295 110.995C115.382 110.607 115.245 110.247 114.989 110.19C114.733 110.132 114.455 110.4 114.368 110.787C114.281 111.174 114.418 111.535 114.674 111.592C114.93 111.649 115.208 111.382 115.295 110.995Z" fill="#F29111"/>
<path d="M106.303 107.139C106.39 106.752 106.252 106.392 105.996 106.334C105.74 106.277 105.463 106.544 105.376 106.932C105.289 107.319 105.426 107.679 105.682 107.737C105.938 107.794 106.216 107.527 106.303 107.139Z" fill="#F29111"/>
<path d="M105.904 108.893C105.991 108.506 105.854 108.145 105.598 108.088C105.342 108.031 105.064 108.298 104.977 108.685C104.891 109.073 105.028 109.433 105.284 109.491C105.54 109.548 105.818 109.28 105.904 108.893Z" fill="#F29111"/>
<path d="M109.811 107.917C109.897 107.529 109.76 107.169 109.504 107.112C109.248 107.054 108.97 107.322 108.884 107.709C108.797 108.096 108.934 108.457 109.19 108.514C109.446 108.571 109.724 108.304 109.811 107.917Z" fill="#F29111"/>
<path d="M109.428 109.684C109.515 109.297 109.377 108.936 109.121 108.879C108.865 108.822 108.588 109.089 108.501 109.476C108.414 109.864 108.551 110.224 108.807 110.282C109.063 110.339 109.341 110.071 109.428 109.684Z" fill="#F29111"/>
<path d="M113.334 108.706C113.421 108.318 113.284 107.958 113.028 107.901C112.772 107.843 112.494 108.111 112.407 108.498C112.32 108.885 112.458 109.246 112.714 109.303C112.97 109.36 113.247 109.093 113.334 108.706Z" fill="#F29111"/>
<path d="M112.951 110.473C113.038 110.086 112.901 109.725 112.645 109.668C112.389 109.611 112.111 109.878 112.024 110.266C111.938 110.653 112.075 111.013 112.331 111.071C112.587 111.128 112.865 110.861 112.951 110.473Z" fill="#F29111"/>
<path d="M107.467 107.393C107.554 107.006 107.417 106.645 107.161 106.588C106.905 106.531 106.627 106.798 106.54 107.185C106.453 107.573 106.59 107.933 106.846 107.991C107.102 108.048 107.38 107.78 107.467 107.393Z" fill="#F29111"/>
<path d="M107.076 109.161C107.163 108.773 107.026 108.413 106.77 108.356C106.514 108.298 106.236 108.566 106.149 108.953C106.063 109.34 106.2 109.701 106.456 109.758C106.712 109.815 106.99 109.548 107.076 109.161Z" fill="#F29111"/>
<path d="M110.99 108.184C111.077 107.797 110.94 107.436 110.684 107.379C110.428 107.322 110.15 107.589 110.063 107.976C109.977 108.364 110.114 108.724 110.37 108.782C110.626 108.839 110.904 108.571 110.99 108.184Z" fill="#F29111"/>
<path d="M110.592 109.938C110.679 109.551 110.542 109.19 110.286 109.133C110.03 109.076 109.752 109.343 109.665 109.73C109.578 110.118 109.715 110.478 109.971 110.535C110.227 110.593 110.505 110.325 110.592 109.938Z" fill="#F29111"/>
<path d="M114.514 108.975C114.601 108.588 114.463 108.227 114.207 108.17C113.951 108.113 113.674 108.38 113.587 108.768C113.5 109.155 113.637 109.515 113.893 109.573C114.149 109.63 114.427 109.362 114.514 108.975Z" fill="#F29111"/>
<path d="M114.115 110.727C114.202 110.34 114.065 109.979 113.809 109.922C113.553 109.865 113.275 110.132 113.188 110.519C113.102 110.907 113.239 111.267 113.495 111.325C113.751 111.382 114.029 111.114 114.115 110.727Z" fill="#F29111"/>
</g>
<path d="M139.003 136.431L140.464 130.608C140.635 129.902 141.122 129.317 141.78 129.001L146.822 126.601C147.833 126.126 149.039 126.382 149.746 127.247L164.362 144.908C165.166 145.87 165.093 147.295 164.204 148.185L163.497 148.891C162.352 150.036 160.586 150.292 159.161 149.512L140.196 139.171C139.222 138.623 138.735 137.503 139.003 136.431Z" fill="white"/>
<path d="M159.162 149.488L147.25 142.984L158.639 137.99L164.351 144.896C165.155 145.859 165.082 147.284 164.193 148.173L163.498 148.867C162.354 150.012 160.587 150.268 159.162 149.488Z" fill="#F29111"/>
<path d="M80.0708 123.959L82.044 128.929C82.2876 129.538 82.2389 130.22 81.9222 130.793L79.5471 135.104C79.0355 136.018 77.9515 136.456 76.9527 136.128L61.3376 131.085C60.3023 130.756 59.6689 129.721 59.8516 128.649L60.0221 127.589C60.2535 126.188 61.3619 125.092 62.7627 124.873L77.6835 122.595C78.7188 122.449 79.6933 123.009 80.0708 123.959Z" fill="white"/>
<path d="M62.7516 122.948L62.7882 122.619C62.6055 122.619 62.4349 122.619 62.2522 122.619L61.3509 125.384C61.2413 125.713 61.4362 126.066 61.7772 126.176L62.2279 126.322L63.4581 126.7C63.7991 126.809 64.1645 126.626 64.2742 126.298L64.3716 126.005C63.2876 125.396 62.6055 124.227 62.7516 122.948Z" fill="#001133"/>
<path d="M73.4444 116.784C73.4444 116.784 68.3652 133.155 65.6368 134.58C65.6368 134.58 62.9084 136.224 59.2422 134.312C59.2422 134.312 65.0887 119.269 65.308 115.98L73.4444 116.784Z" fill="#2C4D6D"/>
<path d="M61.2388 134.847C62.1036 132.606 66.8052 120.28 67.6091 116.004L65.3314 115.785C65.1122 119.062 59.2656 134.116 59.2656 134.116C59.9721 134.47 60.6298 134.701 61.2388 134.847Z" fill="#76B4CF"/>
<path d="M62.9017 114.494L62.6337 116.967C62.4632 118.514 63.6325 119.902 65.2281 120.073L71.3791 120.73C72.9748 120.901 74.412 119.793 74.5825 118.246L74.8505 115.773L62.9017 114.494Z" fill="#002C51"/>
<path d="M72.183 118.647L64.8992 117.868C63.9979 117.77 63.2062 117.344 62.6581 116.723L62.6337 116.978C62.4632 118.525 63.6325 119.914 65.2281 120.084L71.3791 120.742C72.9748 120.913 74.412 119.804 74.5825 118.257L74.6069 118.002C73.9492 118.489 73.0844 118.745 72.183 118.647Z" fill="#001537"/>
<path d="M74.9715 102.545L73.3516 117.624C77.5538 117.88 81.2322 114.932 81.6585 110.888C82.1092 106.845 79.1372 103.178 74.9715 102.545Z" fill="#2C4D6D"/>
<path d="M68.2684 101.814L74.9676 102.533L73.3476 117.624L66.6484 116.906L68.2684 101.814Z" fill="#AED2E4"/>
<path d="M39.114 85.7734C39.7839 88.1608 39.589 96.4677 38.5415 106.273C37.494 116.078 35.9349 124.227 34.7656 126.419C38.4684 122.984 50.6 115.189 66.6536 116.906L68.2735 101.803C52.2078 100.097 42.0007 89.9025 39.114 85.7734Z" fill="#2C4D6D"/>
<path d="M39.0464 106.321C37.8406 117.551 35.9283 126.54 34.759 126.419C33.5897 126.297 33.614 117.088 34.8199 105.87C36.0257 94.6402 37.9502 85.639 39.1073 85.773C39.3631 85.7973 40.2523 95.103 39.0464 106.321Z" fill="#002447"/>
<path d="M32.2656 106.224C32.2778 106.188 32.2778 106.163 32.2778 106.127C32.2778 106.163 32.2656 106.188 32.2656 106.224Z" fill="#AED2E4"/>
<path d="M39.0984 101.034C35.6027 100.839 32.5454 103.312 32.1922 106.71C31.8268 110.108 34.2872 113.166 37.7464 113.726L39.0984 101.034Z" fill="#2C4D6D"/>
<path d="M39.114 85.7734C39.7839 88.1608 39.589 96.4677 38.5415 106.273C37.494 116.078 35.9349 124.227 34.7656 126.419C35.6061 125.639 36.8972 124.628 38.5537 123.557C40.4173 118.185 41.6718 112.655 42.3052 107.04C42.9629 101.181 42.9386 95.2497 42.2078 89.3666C40.8192 87.9659 39.7717 86.7113 39.114 85.7734Z" fill="#AED2E4"/>
<path d="M36.3236 106.906C36.153 108.538 35.2273 109.781 34.2529 109.683C33.2907 109.586 32.6451 108.173 32.8278 106.529C32.9983 104.896 33.924 103.654 34.8985 103.751C35.8607 103.861 36.5063 105.262 36.3236 106.906Z" fill="#B9E5FB"/>
<path d="M60.2221 120.134C60.2709 119.574 60.8312 119.233 61.3184 119.452L66.2757 121.73C67.1771 122.144 67.579 123.24 67.1893 124.19L64.0224 131.9C63.6326 132.85 62.5973 133.277 61.696 132.875L59.1016 131.681L60.2221 120.134Z" fill="#F29111"/>
<path d="M12.6643 85.0056L26.16 91.7291C26.4036 91.8509 26.5011 92.1432 26.3793 92.3868L25.9408 93.2638C25.819 93.5074 25.5266 93.6048 25.283 93.483L11.7873 86.7595C11.5437 86.6377 11.4463 86.3454 11.5681 86.1018L12.0066 85.2248C12.1284 84.9812 12.4207 84.8838 12.6643 85.0056Z" fill="white"/>
<path d="M9.69704 122.179L25.2269 117.611C25.4827 117.538 25.6288 117.27 25.5557 117.002L25.2756 116.064C25.2025 115.809 24.9346 115.663 24.6666 115.736L9.13674 120.303C8.88096 120.376 8.73479 120.644 8.80788 120.912L9.08802 121.85C9.17328 122.106 9.44125 122.252 9.69704 122.179Z" fill="white"/>
<path d="M8.36822 103.677L24.3853 105.687C24.6532 105.724 24.8968 105.529 24.9334 105.261L25.0552 104.299C25.0917 104.031 24.8968 103.787 24.6289 103.75L8.61182 101.741C8.34386 101.704 8.10025 101.899 8.06371 102.167L7.94191 103.129C7.90537 103.397 8.10025 103.641 8.36822 103.677Z" fill="white"/>
<defs>
<linearGradient id="paint0_linear_1993_5787" x1="104.063" y1="43.2488" x2="96.275" y2="78.0138" gradientUnits="userSpaceOnUse">
<stop stop-color="white"/>
<stop offset="1" stop-color="#F4F4F4"/>
</linearGradient>
</defs>
</svg>
