<svg width="200" height="200" viewBox="0 0 200 200" fill="none" xmlns="http://www.w3.org/2000/svg">
<path d="M108.804 181.401C134.596 181.401 155.506 177.495 155.506 172.676C155.506 167.858 134.596 163.951 108.804 163.951C83.0108 163.951 62.1016 167.858 62.1016 172.676C62.1016 177.495 83.0108 181.401 108.804 181.401Z" fill="#A4AFBF" fill-opacity="0.7"/>
<path d="M87.5181 48.8285C84.1021 56.7886 81.3788 69.7687 80.3516 75.9599L96.8944 69.1831C98.5666 57.9719 97.1213 49.6651 95.7238 45.5177C95.3416 44.3703 94.0636 43.8683 92.9289 44.2866L92.2839 44.5257C90.1817 45.3026 88.402 46.7727 87.5181 48.8285Z" fill="url(#paint0_linear_1993_4147)"/>
<path d="M97.5419 55.9753C92.6447 47.6446 86.9592 53.0111 84.7734 56.6566C87.2101 48.9474 87.1145 47.0829 91.6056 44.8C95.5233 42.804 95.8935 45.8518 96.1444 46.5928C96.3833 47.2741 97.4224 52.4374 97.5419 55.9753Z" fill="#FF9100"/>
<path fill-rule="evenodd" clip-rule="evenodd" d="M145.555 93.6603C157.547 86.8237 176.61 73.5448 182.785 64.7002C183.359 63.8755 183.239 62.7998 182.606 62.0348L182.415 61.8077C180.6 59.6563 177.697 58.748 174.986 59.5368C164.164 62.6683 149.389 67.4492 132.822 77.0109C128.045 73.3177 122.312 70.485 115.886 68.9193C94.0036 63.5647 72.4562 74.8117 67.7501 94.0428C63.0441 113.274 76.9711 133.21 98.853 138.577C120.735 143.931 142.282 132.684 146.988 113.453C148.637 106.724 148.004 99.9113 145.555 93.6603Z" fill="white"/>
<path d="M109.757 137.859L112.504 132.648C112.839 132.015 113.436 131.572 114.129 131.417L119.492 130.306C120.567 130.078 121.654 130.616 122.132 131.608L131.938 151.843C132.475 152.955 132.081 154.294 131.03 154.927L130.194 155.429C128.832 156.254 127.1 156.086 125.918 155.011L110.259 140.74C109.459 140.011 109.256 138.827 109.757 137.859Z" fill="white"/>
<path d="M125.916 155.011L116.086 146.035L128.102 143.932L131.936 151.844C132.473 152.956 132.079 154.294 131.028 154.928L130.204 155.43C128.83 156.254 127.087 156.087 125.916 155.011Z" fill="#F29111"/>
<path d="M182.74 64.665C179.85 68.3344 174.714 74.2029 165.194 81.0276C165.194 81.0276 170.51 71.1312 168.539 68.3702C166.556 65.6093 154.695 66.3862 154.695 66.3862C159.784 64.4977 169.327 60.4579 175.908 59.3224C178.13 58.9399 180.304 59.8125 182.048 61.2587L182.406 61.5575C183.338 62.3344 183.493 63.7089 182.74 64.665Z" fill="#FF9100"/>
<path d="M182.886 64.5689C176.532 74.0111 157.253 87.4573 145.62 93.6725L143.828 89.6685L182.42 64.1386C182.743 63.9234 183.101 64.2581 182.886 64.5689Z" fill="#E9E6E6"/>
<path d="M122.739 109.545C119.705 121.951 106.399 131.812 90.8595 128.011C75.32 124.21 65.7527 108.744 68.7865 96.3377C71.8204 83.9313 85.7115 76.6763 101.251 80.4771C116.802 84.2779 125.773 97.1265 122.739 109.545Z" fill="#35373A"/>
<mask id="mask0_1993_4147" style="mask-type:luminance" maskUnits="userSpaceOnUse" x="73" y="91" width="16" height="14">
<path d="M87.972 104.214C87.972 104.214 85.5831 99.624 81.4982 98.6319C77.4132 97.628 73.0058 101.309 73.185 100.604C74.5825 94.8909 79.0257 91.0662 83.1107 92.0702C87.1956 93.0503 89.3694 98.5005 87.972 104.214Z" fill="white"/>
</mask>
<g mask="url(#mask0_1993_4147)">
<path d="M77.3435 92.0991C77.4407 91.7016 77.2494 91.3132 76.9163 91.2316C76.5831 91.15 76.2342 91.4062 76.137 91.8037C76.0397 92.2012 76.231 92.5896 76.5642 92.6712C76.8974 92.7528 77.2463 92.4967 77.3435 92.0991Z" fill="#F29111"/>
<path d="M76.906 93.9097C77.0032 93.5122 76.8119 93.1238 76.4788 93.0422C76.1456 92.9606 75.7967 93.2167 75.6995 93.6142C75.6022 94.0117 75.7935 94.4001 76.1267 94.4817C76.4599 94.5633 76.8088 94.3072 76.906 93.9097Z" fill="#F29111"/>
<path d="M76.4607 95.7163C76.5579 95.3188 76.3666 94.9304 76.0335 94.8488C75.7003 94.7672 75.3514 95.0233 75.2542 95.4209C75.1569 95.8184 75.3482 96.2068 75.6814 96.2884C76.0146 96.37 76.3635 96.1138 76.4607 95.7163Z" fill="#F29111"/>
<path d="M76.0076 97.5249C76.1048 97.1274 75.9135 96.739 75.5803 96.6574C75.2472 96.5758 74.8982 96.8319 74.801 97.2294C74.7038 97.627 74.8951 98.0154 75.2283 98.097C75.5615 98.1785 75.9104 97.9224 76.0076 97.5249Z" fill="#F29111"/>
<path d="M78.8513 92.4722C78.9485 92.0747 78.7573 91.6863 78.4241 91.6047C78.0909 91.5231 77.742 91.7792 77.6448 92.1767C77.5476 92.5742 77.7388 92.9626 78.072 93.0442C78.4052 93.1258 78.7541 92.8697 78.8513 92.4722Z" fill="#F29111"/>
<path d="M78.4138 94.2827C78.511 93.8852 78.3198 93.4968 77.9866 93.4152C77.6534 93.3336 77.3045 93.5897 77.2073 93.9873C77.1101 94.3848 77.3013 94.7732 77.6345 94.8548C77.9677 94.9364 78.3166 94.6802 78.4138 94.2827Z" fill="#F29111"/>
<path d="M77.9685 96.0913C78.0657 95.6938 77.8745 95.3054 77.5413 95.2238C77.2081 95.1422 76.8592 95.3983 76.762 95.7959C76.6647 96.1934 76.856 96.5818 77.1892 96.6634C77.5224 96.745 77.8713 96.4888 77.9685 96.0913Z" fill="#F29111"/>
<path d="M77.5232 97.898C77.6204 97.5005 77.4291 97.1121 77.096 97.0305C76.7628 96.9489 76.4139 97.205 76.3167 97.6025C76.2194 98 76.4107 98.3884 76.7439 98.47C77.0771 98.5516 77.426 98.2955 77.5232 97.898Z" fill="#F29111"/>
<path d="M75.8357 91.7261C75.9329 91.3286 75.7416 90.9402 75.4085 90.8586C75.0753 90.777 74.7264 91.0331 74.6292 91.4306C74.5319 91.8281 74.7232 92.2165 75.0564 92.2981C75.3896 92.3797 75.7385 92.1236 75.8357 91.7261Z" fill="#F29111"/>
<path d="M75.3982 93.5366C75.4954 93.1391 75.3041 92.7507 74.971 92.6691C74.6378 92.5875 74.2889 92.8437 74.1917 93.2412C74.0944 93.6387 74.2857 94.0271 74.6189 94.1087C74.9521 94.1903 75.301 93.9342 75.3982 93.5366Z" fill="#F29111"/>
<path d="M74.9529 95.3433C75.0501 94.9458 74.8588 94.5574 74.5256 94.4758C74.1925 94.3942 73.8436 94.6503 73.7463 95.0478C73.6491 95.4453 73.8404 95.8337 74.1736 95.9153C74.5068 95.9969 74.8557 95.7408 74.9529 95.3433Z" fill="#F29111"/>
<path d="M74.5154 97.1655C74.6126 96.768 74.4213 96.3796 74.0881 96.298C73.755 96.2164 73.4061 96.4726 73.3088 96.8701C73.2116 97.2676 73.4029 97.656 73.7361 97.7376C74.0693 97.8192 74.4182 97.5631 74.5154 97.1655Z" fill="#F29111"/>
<path d="M80.3591 92.8335C80.4564 92.436 80.2651 92.0476 79.9319 91.966C79.5987 91.8844 79.2498 92.1405 79.1526 92.538C79.0554 92.9356 79.2467 93.324 79.5798 93.4055C79.913 93.4871 80.2619 93.231 80.3591 92.8335Z" fill="#F29111"/>
<path d="M79.9138 94.6421C80.011 94.2446 79.8198 93.8562 79.4866 93.7746C79.1534 93.693 78.8045 93.9491 78.7073 94.3466C78.6101 94.7442 78.8013 95.1325 79.1345 95.2141C79.4677 95.2957 79.8166 95.0396 79.9138 94.6421Z" fill="#F29111"/>
<path d="M79.4763 96.4644C79.5735 96.0669 79.3823 95.6785 79.0491 95.5969C78.7159 95.5153 78.367 95.7714 78.2698 96.1689C78.1726 96.5664 78.3638 96.9548 78.697 97.0364C79.0302 97.118 79.3791 96.8619 79.4763 96.4644Z" fill="#F29111"/>
<path d="M79.031 98.271C79.1282 97.8735 78.9369 97.4851 78.6038 97.4035C78.2706 97.3219 77.9217 97.578 77.8245 97.9755C77.7272 98.3731 77.9185 98.7615 78.2517 98.843C78.5849 98.9246 78.9338 98.6685 79.031 98.271Z" fill="#F29111"/>
<path d="M83.8123 91.7691C83.9095 91.3715 83.7182 90.9831 83.385 90.9016C83.0518 90.82 82.7029 91.0761 82.6057 91.4736C82.5085 91.8711 82.6998 92.2595 83.033 92.3411C83.3661 92.4227 83.7151 92.1666 83.8123 91.7691Z" fill="#F29111"/>
<path d="M83.3826 93.5796C83.4798 93.1821 83.2885 92.7937 82.9553 92.7121C82.6222 92.6305 82.2732 92.8866 82.176 93.2841C82.0788 93.6817 82.2701 94.07 82.6033 94.1516C82.9365 94.2332 83.2854 93.9771 83.3826 93.5796Z" fill="#F29111"/>
<path d="M82.9295 95.3882C83.0267 94.9907 82.8354 94.6023 82.5022 94.5207C82.169 94.4391 81.8201 94.6952 81.7229 95.0927C81.6257 95.4902 81.817 95.8786 82.1502 95.9602C82.4833 96.0418 82.8322 95.7857 82.9295 95.3882Z" fill="#F29111"/>
<path d="M82.4998 97.1987C82.597 96.8012 82.4057 96.4128 82.0725 96.3312C81.7393 96.2497 81.3904 96.5058 81.2932 96.9033C81.196 97.3008 81.3873 97.6892 81.7205 97.7708C82.0536 97.8524 82.4026 97.5963 82.4998 97.1987Z" fill="#F29111"/>
<path d="M82.0466 99.0073C82.1439 98.6098 81.9526 98.2214 81.6194 98.1398C81.2862 98.0582 80.9373 98.3144 80.8401 98.7119C80.7429 99.1094 80.9342 99.4978 81.2673 99.5794C81.6005 99.661 81.9494 99.4049 82.0466 99.0073Z" fill="#F29111"/>
<path d="M88.3435 92.8784C88.4407 92.4809 88.2495 92.0925 87.9163 92.0109C87.5831 91.9293 87.2342 92.1854 87.137 92.583C87.0397 92.9805 87.231 93.3689 87.5642 93.4505C87.8974 93.5321 88.2463 93.276 88.3435 92.8784Z" fill="#F29111"/>
<path d="M87.906 94.689C88.0032 94.2915 87.812 93.9031 87.4788 93.8215C87.1456 93.7399 86.7967 93.996 86.6995 94.3935C86.6022 94.791 86.7935 95.1794 87.1267 95.261C87.4599 95.3426 87.8088 95.0865 87.906 94.689Z" fill="#F29111"/>
<path d="M87.4607 96.4956C87.5579 96.0981 87.3666 95.7097 87.0335 95.6281C86.7003 95.5465 86.3514 95.8026 86.2542 96.2002C86.1569 96.5977 86.3482 96.9861 86.6814 97.0677C87.0146 97.1492 87.3635 96.8931 87.4607 96.4956Z" fill="#F29111"/>
<path d="M87.0154 98.3042C87.1126 97.9067 86.9213 97.5183 86.5881 97.4367C86.255 97.3551 85.9061 97.6112 85.8088 98.0088C85.7116 98.4063 85.9029 98.7947 86.2361 98.8762C86.5693 98.9578 86.9182 98.7017 87.0154 98.3042Z" fill="#F29111"/>
<path d="M86.5779 100.115C86.6751 99.7172 86.4838 99.3289 86.1506 99.2473C85.8175 99.1657 85.4686 99.4218 85.3713 99.8193C85.2741 100.217 85.4654 100.605 85.7986 100.687C86.1318 100.768 86.4807 100.512 86.5779 100.115Z" fill="#F29111"/>
<path d="M85.3279 92.1304C85.4251 91.7329 85.2338 91.3445 84.9006 91.2629C84.5675 91.1813 84.2186 91.4374 84.1213 91.8349C84.0241 92.2324 84.2154 92.6208 84.5486 92.7024C84.8818 92.784 85.2307 92.5279 85.3279 92.1304Z" fill="#F29111"/>
<path d="M84.8904 93.9527C84.9876 93.5551 84.7963 93.1667 84.4631 93.0851C84.13 93.0036 83.7811 93.2597 83.6838 93.6572C83.5866 94.0547 83.7779 94.4431 84.1111 94.5247C84.4443 94.6063 84.7932 94.3502 84.8904 93.9527Z" fill="#F29111"/>
<path d="M84.4373 95.7612C84.5345 95.3637 84.3432 94.9753 84.01 94.8937C83.6768 94.8121 83.3279 95.0683 83.2307 95.4658C83.1335 95.8633 83.3248 96.2517 83.658 96.3333C83.9911 96.4149 84.34 96.1588 84.4373 95.7612Z" fill="#F29111"/>
<path d="M84.0076 97.5718C84.1048 97.1743 83.9135 96.7859 83.5803 96.7043C83.2472 96.6227 82.8982 96.8788 82.801 97.2763C82.7038 97.6738 82.8951 98.0622 83.2283 98.1438C83.5615 98.2254 83.9104 97.9693 84.0076 97.5718Z" fill="#F29111"/>
<path d="M83.5544 99.3804C83.6517 98.9829 83.4604 98.5945 83.1272 98.5129C82.794 98.4313 82.4451 98.6874 82.3479 99.0849C82.2507 99.4824 82.442 99.8708 82.7752 99.9524C83.1083 100.034 83.4572 99.7779 83.5544 99.3804Z" fill="#F29111"/>
<path d="M89.4138 95.062C89.511 94.6645 89.3198 94.2761 88.9866 94.1945C88.6534 94.1129 88.3045 94.369 88.2073 94.7666C88.1101 95.1641 88.3013 95.5525 88.6345 95.6341C88.9677 95.7157 89.3166 95.4596 89.4138 95.062Z" fill="#F29111"/>
<path d="M88.9685 96.8706C89.0657 96.4731 88.8744 96.0847 88.5413 96.0031C88.2081 95.9215 87.8592 96.1776 87.762 96.5752C87.6647 96.9727 87.856 97.3611 88.1892 97.4427C88.5224 97.5242 88.8713 97.2681 88.9685 96.8706Z" fill="#F29111"/>
<path d="M88.5232 98.6773C88.6204 98.2797 88.4291 97.8913 88.096 97.8098C87.7628 97.7282 87.4139 97.9843 87.3167 98.3818C87.2194 98.7793 87.4107 99.1677 87.7439 99.2493C88.0771 99.3309 88.426 99.0748 88.5232 98.6773Z" fill="#F29111"/>
<path d="M88.0857 100.488C88.1829 100.09 87.9916 99.7019 87.6585 99.6203C87.3253 99.5387 86.9764 99.7948 86.8792 100.192C86.7819 100.59 86.9732 100.978 87.3064 101.06C87.6396 101.141 87.9885 100.885 88.0857 100.488Z" fill="#F29111"/>
<path d="M82.3201 91.3999C82.4173 91.0024 82.226 90.614 81.8928 90.5324C81.5597 90.4508 81.2107 90.7069 81.1135 91.1044C81.0163 91.502 81.2076 91.8904 81.5408 91.972C81.874 92.0535 82.2229 91.7974 82.3201 91.3999Z" fill="#F29111"/>
<path d="M81.867 93.2066C81.9642 92.809 81.7729 92.4206 81.4397 92.3391C81.1065 92.2575 80.7576 92.5136 80.6604 92.9111C80.5632 93.3086 80.7545 93.697 81.0877 93.7786C81.4208 93.8602 81.7697 93.6041 81.867 93.2066Z" fill="#F29111"/>
<path d="M81.4216 95.0152C81.5189 94.6176 81.3276 94.2292 80.9944 94.1476C80.6612 94.0661 80.3123 94.3222 80.2151 94.7197C80.1179 95.1172 80.3092 95.5056 80.6423 95.5872C80.9755 95.6688 81.3244 95.4127 81.4216 95.0152Z" fill="#F29111"/>
<path d="M80.9841 96.8257C81.0814 96.4282 80.8901 96.0398 80.5569 95.9582C80.2237 95.8766 79.8748 96.1327 79.7776 96.5302C79.6804 96.9278 79.8717 97.3161 80.2048 97.3977C80.538 97.4793 80.8869 97.2232 80.9841 96.8257Z" fill="#F29111"/>
<path d="M80.5388 98.6343C80.636 98.2368 80.4448 97.8484 80.1116 97.7668C79.7784 97.6852 79.4295 97.9413 79.3323 98.3388C79.2351 98.7363 79.4263 99.1247 79.7595 99.2063C80.0927 99.2879 80.4416 99.0318 80.5388 98.6343Z" fill="#F29111"/>
<path d="M86.8357 92.5054C86.9329 92.1079 86.7416 91.7195 86.4085 91.6379C86.0753 91.5563 85.7264 91.8124 85.6292 92.2099C85.5319 92.6074 85.7232 92.9958 86.0564 93.0774C86.3896 93.159 86.7385 92.9029 86.8357 92.5054Z" fill="#F29111"/>
<path d="M86.3982 94.3159C86.4954 93.9184 86.3041 93.53 85.9709 93.4484C85.6378 93.3668 85.2889 93.6229 85.1917 94.0205C85.0944 94.418 85.2857 94.8064 85.6189 94.888C85.9521 94.9696 86.301 94.7134 86.3982 94.3159Z" fill="#F29111"/>
<path d="M85.9529 96.1226C86.0501 95.7251 85.8588 95.3367 85.5256 95.2551C85.1925 95.1735 84.8436 95.4296 84.7463 95.8271C84.6491 96.2246 84.8404 96.613 85.1736 96.6946C85.5068 96.7762 85.8557 96.5201 85.9529 96.1226Z" fill="#F29111"/>
<path d="M85.5154 97.9331C85.6126 97.5356 85.4213 97.1472 85.0881 97.0656C84.755 96.984 84.4061 97.2401 84.3088 97.6377C84.2116 98.0352 84.4029 98.4236 84.7361 98.5052C85.0693 98.5867 85.4182 98.3306 85.5154 97.9331Z" fill="#F29111"/>
<path d="M85.0701 99.7417C85.1673 99.3442 84.976 98.9558 84.6428 98.8742C84.3097 98.7926 83.9607 99.0487 83.8635 99.4462C83.7663 99.8438 83.9576 100.232 84.2908 100.314C84.624 100.395 84.9729 100.139 85.0701 99.7417Z" fill="#F29111"/>
<path d="M89.5935 100.861C89.6907 100.463 89.4994 100.075 89.1663 99.9934C88.8331 99.9118 88.4842 100.168 88.387 100.565C88.2897 100.963 88.481 101.351 88.8142 101.433C89.1474 101.514 89.4963 101.258 89.5935 100.861Z" fill="#F29111"/>
<path d="M75.5779 99.3355C75.6751 98.9379 75.4838 98.5496 75.1506 98.468C74.8175 98.3864 74.4686 98.6425 74.3713 99.04C74.2741 99.4375 74.4654 99.8259 74.7986 99.9075C75.1318 99.9891 75.4807 99.733 75.5779 99.3355Z" fill="#F29111"/>
<path d="M75.1248 101.144C75.222 100.747 75.0307 100.358 74.6975 100.277C74.3643 100.195 74.0154 100.451 73.9182 100.849C73.821 101.246 74.0123 101.635 74.3455 101.716C74.6786 101.798 75.0276 101.542 75.1248 101.144Z" fill="#F29111"/>
<path d="M77.0857 99.7085C77.1829 99.311 76.9916 98.9226 76.6585 98.841C76.3253 98.7594 75.9764 99.0155 75.8792 99.413C75.7819 99.8106 75.9732 100.199 76.3064 100.281C76.6396 100.362 76.9885 100.106 77.0857 99.7085Z" fill="#F29111"/>
<path d="M76.6404 101.517C76.7376 101.12 76.5463 100.731 76.2131 100.65C75.88 100.568 75.5311 100.824 75.4338 101.222C75.3366 101.619 75.5279 102.008 75.8611 102.089C76.1943 102.171 76.5432 101.915 76.6404 101.517Z" fill="#F29111"/>
<path d="M74.0623 98.9741C74.1595 98.5766 73.9682 98.1882 73.635 98.1066C73.3018 98.025 72.9529 98.2812 72.8557 98.6787C72.7585 99.0762 72.9498 99.4646 73.283 99.5462C73.6161 99.6278 73.9651 99.3717 74.0623 98.9741Z" fill="#F29111"/>
<path d="M73.617 100.781C73.7142 100.383 73.5229 99.9949 73.1897 99.9133C72.8565 99.8317 72.5076 100.088 72.4104 100.485C72.3132 100.883 72.5045 101.271 72.8376 101.353C73.1708 101.434 73.5197 101.178 73.617 100.781Z" fill="#F29111"/>
<path d="M78.5935 100.082C78.6907 99.684 78.4995 99.2956 78.1663 99.2141C77.8331 99.1325 77.4842 99.3886 77.387 99.7861C77.2897 100.184 77.481 100.572 77.8142 100.654C78.1474 100.735 78.4963 100.479 78.5935 100.082Z" fill="#F29111"/>
<path d="M78.1482 101.89C78.2454 101.493 78.0541 101.104 77.721 101.023C77.3878 100.941 77.0389 101.197 76.9417 101.595C76.8444 101.992 77.0357 102.381 77.3689 102.462C77.7021 102.544 78.051 102.288 78.1482 101.89Z" fill="#F29111"/>
<path d="M81.617 100.818C81.7142 100.42 81.5229 100.032 81.1897 99.9504C80.8565 99.8688 80.5076 100.125 80.4104 100.522C80.3132 100.92 80.5045 101.308 80.8377 101.39C81.1708 101.472 81.5197 101.215 81.617 100.818Z" fill="#F29111"/>
<path d="M81.1638 102.625C81.261 102.227 81.0698 101.839 80.7366 101.757C80.4034 101.675 80.0545 101.932 79.9573 102.329C79.8601 102.727 80.0513 103.115 80.3845 103.197C80.7177 103.278 81.0666 103.022 81.1638 102.625Z" fill="#F29111"/>
<path d="M86.1326 101.923C86.2298 101.526 86.0385 101.137 85.7053 101.056C85.3722 100.974 85.0232 101.23 84.926 101.628C84.8288 102.025 85.0201 102.414 85.3533 102.495C85.6865 102.577 86.0354 102.321 86.1326 101.923Z" fill="#F29111"/>
<path d="M85.6951 103.734C85.7923 103.336 85.601 102.948 85.2678 102.866C84.9347 102.785 84.5857 103.041 84.4885 103.438C84.3913 103.836 84.5826 104.224 84.9158 104.306C85.249 104.388 85.5979 104.131 85.6951 103.734Z" fill="#F29111"/>
<path d="M83.1091 101.187C83.2064 100.79 83.0151 100.401 82.6819 100.32C82.3487 100.238 81.9998 100.494 81.9026 100.892C81.8054 101.289 81.9967 101.677 82.3298 101.759C82.663 101.841 83.0119 101.585 83.1091 101.187Z" fill="#F29111"/>
<path d="M82.6716 102.998C82.7689 102.6 82.5776 102.212 82.2444 102.13C81.9112 102.048 81.5623 102.305 81.4651 102.702C81.3679 103.1 81.5592 103.488 81.8923 103.57C82.2255 103.651 82.5744 103.395 82.6716 102.998Z" fill="#F29111"/>
<path d="M87.6404 102.296C87.7376 101.899 87.5463 101.51 87.2131 101.429C86.88 101.347 86.5311 101.603 86.4338 102.001C86.3366 102.398 86.5279 102.787 86.8611 102.868C87.1943 102.95 87.5432 102.694 87.6404 102.296Z" fill="#F29111"/>
<path d="M87.2029 104.107C87.3001 103.709 87.1088 103.321 86.7756 103.239C86.4425 103.158 86.0936 103.414 85.9963 103.811C85.8991 104.209 86.0904 104.597 86.4236 104.679C86.7568 104.761 87.1057 104.504 87.2029 104.107Z" fill="#F29111"/>
<path d="M80.1013 100.445C80.1985 100.047 80.0073 99.6589 79.6741 99.5773C79.3409 99.4957 78.992 99.7519 78.8948 100.149C78.7976 100.547 78.9888 100.935 79.322 101.017C79.6552 101.098 80.0041 100.842 80.1013 100.445Z" fill="#F29111"/>
<path d="M79.656 102.251C79.7532 101.854 79.562 101.466 79.2288 101.384C78.8956 101.302 78.5467 101.558 78.4495 101.956C78.3522 102.354 78.5435 102.742 78.8767 102.824C79.2099 102.905 79.5588 102.649 79.656 102.251Z" fill="#F29111"/>
<path d="M84.6248 101.548C84.722 101.151 84.5307 100.762 84.1975 100.681C83.8643 100.599 83.5154 100.855 83.4182 101.253C83.321 101.65 83.5123 102.039 83.8455 102.12C84.1786 102.202 84.5275 101.946 84.6248 101.548Z" fill="#F29111"/>
<path d="M84.1873 103.371C84.2845 102.973 84.0932 102.585 83.76 102.503C83.4268 102.422 83.0779 102.678 82.9807 103.075C82.8835 103.473 83.0748 103.861 83.408 103.943C83.7411 104.024 84.0901 103.768 84.1873 103.371Z" fill="#F29111"/>
<path d="M89.1482 102.669C89.2454 102.272 89.0541 101.884 88.721 101.802C88.3878 101.72 88.0389 101.976 87.9417 102.374C87.8444 102.771 88.0357 103.16 88.3689 103.241C88.7021 103.323 89.051 103.067 89.1482 102.669Z" fill="#F29111"/>
<path d="M88.7107 104.48C88.8079 104.082 88.6166 103.694 88.2835 103.612C87.9503 103.531 87.6014 103.787 87.5042 104.185C87.4069 104.582 87.5982 104.97 87.9314 105.052C88.2646 105.134 88.6135 104.878 88.7107 104.48Z" fill="#F29111"/>
</g>
<mask id="mask1_1993_4147" style="mask-type:luminance" maskUnits="userSpaceOnUse" x="94" y="97" width="16" height="13">
<path d="M109.159 109.401C109.159 109.401 106.771 104.811 102.686 103.819C98.6007 102.827 94.1933 106.497 94.3725 105.792C95.77 100.078 100.213 96.2537 104.298 97.2577C108.371 98.2378 110.557 103.688 109.159 109.401Z" fill="white"/>
</mask>
<g mask="url(#mask1_1993_4147)">
<path d="M98.5154 97.2905C98.6126 96.893 98.4213 96.5046 98.0881 96.423C97.755 96.3415 97.4061 96.5976 97.3088 96.9951C97.2116 97.3926 97.4029 97.781 97.7361 97.8626C98.0693 97.9442 98.4182 97.6881 98.5154 97.2905Z" fill="#F29111"/>
<path d="M98.0857 99.1011C98.1829 98.7036 97.9916 98.3152 97.6585 98.2336C97.3253 98.152 96.9764 98.4081 96.8792 98.8056C96.7819 99.2031 96.9732 99.5915 97.3064 99.6731C97.6396 99.7547 97.9885 99.4986 98.0857 99.1011Z" fill="#F29111"/>
<path d="M97.6326 100.908C97.7298 100.51 97.5385 100.122 97.2053 100.04C96.8722 99.9586 96.5232 100.215 96.426 100.612C96.3288 101.01 96.5201 101.398 96.8533 101.48C97.1865 101.561 97.5354 101.305 97.6326 100.908Z" fill="#F29111"/>
<path d="M97.1873 102.716C97.2845 102.319 97.0932 101.93 96.76 101.849C96.4268 101.767 96.0779 102.023 95.9807 102.421C95.8835 102.818 96.0748 103.207 96.408 103.288C96.7411 103.37 97.0901 103.114 97.1873 102.716Z" fill="#F29111"/>
<path d="M100.031 97.6519C100.128 97.2544 99.9369 96.866 99.6038 96.7844C99.2706 96.7028 98.9217 96.9589 98.8245 97.3564C98.7272 97.7539 98.9185 98.1423 99.2517 98.2239C99.5849 98.3055 99.9338 98.0494 100.031 97.6519Z" fill="#F29111"/>
<path d="M99.5935 99.4741C99.6907 99.0766 99.4995 98.6882 99.1663 98.6066C98.8331 98.525 98.4842 98.7812 98.387 99.1787C98.2897 99.5762 98.481 99.9646 98.8142 100.046C99.1474 100.128 99.4963 99.8717 99.5935 99.4741Z" fill="#F29111"/>
<path d="M99.1404 101.283C99.2376 100.885 99.0463 100.497 98.7131 100.415C98.38 100.334 98.0311 100.59 97.9338 100.987C97.8366 101.385 98.0279 101.773 98.3611 101.855C98.6943 101.936 99.0432 101.68 99.1404 101.283Z" fill="#F29111"/>
<path d="M98.6951 103.089C98.7923 102.692 98.601 102.303 98.2678 102.222C97.9347 102.14 97.5857 102.396 97.4885 102.794C97.3913 103.191 97.5826 103.58 97.9158 103.661C98.249 103.743 98.5979 103.487 98.6951 103.089Z" fill="#F29111"/>
<path d="M97.0076 96.9175C97.1048 96.52 96.9135 96.1316 96.5803 96.05C96.2472 95.9684 95.8982 96.2245 95.801 96.622C95.7038 97.0195 95.8951 97.4079 96.2283 97.4895C96.5615 97.5711 96.9104 97.315 97.0076 96.9175Z" fill="#F29111"/>
<path d="M96.5779 98.728C96.6751 98.3305 96.4838 97.9421 96.1506 97.8605C95.8175 97.779 95.4686 98.0351 95.3713 98.4326C95.2741 98.8301 95.4654 99.2185 95.7986 99.3001C96.1318 99.3817 96.4807 99.1256 96.5779 98.728Z" fill="#F29111"/>
<path d="M96.1248 100.535C96.222 100.137 96.0307 99.7488 95.6975 99.6672C95.3643 99.5856 95.0154 99.8417 94.9182 100.239C94.821 100.637 95.0123 101.025 95.3455 101.107C95.6786 101.188 96.0275 100.932 96.1248 100.535Z" fill="#F29111"/>
<path d="M95.6951 102.345C95.7923 101.948 95.601 101.559 95.2678 101.478C94.9347 101.396 94.5857 101.652 94.4885 102.05C94.3913 102.447 94.5826 102.836 94.9158 102.917C95.249 102.999 95.5979 102.743 95.6951 102.345Z" fill="#F29111"/>
<path d="M101.539 98.0249C101.636 97.6274 101.445 97.239 101.112 97.1574C100.778 97.0758 100.429 97.3319 100.332 97.7294C100.235 98.127 100.426 98.5154 100.76 98.597C101.093 98.6785 101.442 98.4224 101.539 98.0249Z" fill="#F29111"/>
<path d="M101.094 99.8335C101.191 99.436 100.999 99.0476 100.666 98.966C100.333 98.8844 99.9842 99.1405 99.887 99.538C99.7897 99.9356 99.981 100.324 100.314 100.406C100.647 100.487 100.996 100.231 101.094 99.8335Z" fill="#F29111"/>
<path d="M100.656 101.644C100.753 101.247 100.562 100.858 100.229 100.777C99.8956 100.695 99.5467 100.951 99.4495 101.349C99.3522 101.746 99.5435 102.135 99.8767 102.216C100.21 102.298 100.559 102.042 100.656 101.644Z" fill="#F29111"/>
<path d="M100.211 103.451C100.308 103.053 100.117 102.665 99.7835 102.583C99.4503 102.502 99.1014 102.758 99.0042 103.155C98.9069 103.553 99.0982 103.941 99.4314 104.023C99.7646 104.104 100.113 103.848 100.211 103.451Z" fill="#F29111"/>
<path d="M104.992 96.9488C105.089 96.5512 104.898 96.1628 104.565 96.0812C104.232 95.9996 103.883 96.2558 103.785 96.6533C103.688 97.0508 103.879 97.4392 104.213 97.5208C104.546 97.6024 104.895 97.3463 104.992 96.9488Z" fill="#F29111"/>
<path d="M104.554 98.771C104.652 98.3735 104.46 97.9851 104.127 97.9035C103.794 97.8219 103.445 98.078 103.348 98.4755C103.251 98.8731 103.442 99.2615 103.775 99.343C104.108 99.4246 104.457 99.1685 104.554 98.771Z" fill="#F29111"/>
<path d="M104.109 100.58C104.206 100.182 104.015 99.7937 103.682 99.7121C103.349 99.6305 103 99.8866 102.903 100.284C102.805 100.682 102.997 101.07 103.33 101.152C103.663 101.233 104.012 100.977 104.109 100.58Z" fill="#F29111"/>
<path d="M103.672 102.39C103.769 101.993 103.578 101.604 103.244 101.523C102.911 101.441 102.562 101.697 102.465 102.095C102.368 102.492 102.559 102.881 102.892 102.962C103.226 103.044 103.574 102.788 103.672 102.39Z" fill="#F29111"/>
<path d="M103.226 104.199C103.324 103.801 103.132 103.413 102.799 103.331C102.466 103.25 102.117 103.506 102.02 103.903C101.923 104.301 102.114 104.689 102.447 104.771C102.78 104.852 103.129 104.596 103.226 104.199Z" fill="#F29111"/>
<path d="M109.523 98.0698C109.62 97.6723 109.429 97.2839 109.096 97.2023C108.763 97.1208 108.414 97.3769 108.317 97.7744C108.219 98.1719 108.411 98.5603 108.744 98.6419C109.077 98.7235 109.426 98.4674 109.523 98.0698Z" fill="#F29111"/>
<path d="M109.086 99.8804C109.183 99.4829 108.992 99.0945 108.658 99.0129C108.325 98.9313 107.976 99.1874 107.879 99.5849C107.782 99.9824 107.973 100.371 108.306 100.452C108.64 100.534 108.988 100.278 109.086 99.8804Z" fill="#F29111"/>
<path d="M108.64 101.687C108.738 101.29 108.546 100.901 108.213 100.82C107.88 100.738 107.531 100.994 107.434 101.392C107.337 101.789 107.528 102.177 107.861 102.259C108.194 102.341 108.543 102.085 108.64 101.687Z" fill="#F29111"/>
<path d="M108.187 103.496C108.284 103.098 108.093 102.71 107.76 102.628C107.427 102.547 107.078 102.803 106.981 103.2C106.883 103.598 107.075 103.986 107.408 104.068C107.741 104.149 108.09 103.893 108.187 103.496Z" fill="#F29111"/>
<path d="M107.758 105.306C107.855 104.909 107.664 104.52 107.33 104.439C106.997 104.357 106.648 104.613 106.551 105.011C106.454 105.408 106.645 105.797 106.978 105.878C107.311 105.96 107.66 105.704 107.758 105.306Z" fill="#F29111"/>
<path d="M106.508 97.3218C106.605 96.9243 106.414 96.5359 106.08 96.4543C105.747 96.3727 105.398 96.6288 105.301 97.0263C105.204 97.4238 105.395 97.8122 105.728 97.8938C106.061 97.9754 106.41 97.7193 106.508 97.3218Z" fill="#F29111"/>
<path d="M106.07 99.1323C106.167 98.7348 105.976 98.3464 105.643 98.2648C105.31 98.1832 104.961 98.4394 104.864 98.8369C104.766 99.2344 104.958 99.6228 105.291 99.7044C105.624 99.786 105.973 99.5299 106.07 99.1323Z" fill="#F29111"/>
<path d="M105.617 100.941C105.714 100.543 105.523 100.155 105.19 100.073C104.857 99.9918 104.508 100.248 104.41 100.645C104.313 101.043 104.504 101.431 104.838 101.513C105.171 101.595 105.52 101.338 105.617 100.941Z" fill="#F29111"/>
<path d="M105.187 102.751C105.284 102.354 105.093 101.966 104.76 101.884C104.427 101.802 104.078 102.059 103.981 102.456C103.883 102.854 104.075 103.242 104.408 103.324C104.741 103.405 105.09 103.149 105.187 102.751Z" fill="#F29111"/>
<path d="M104.734 104.56C104.831 104.163 104.64 103.774 104.307 103.693C103.974 103.611 103.625 103.867 103.528 104.265C103.43 104.662 103.622 105.051 103.955 105.132C104.288 105.214 104.637 104.958 104.734 104.56Z" fill="#F29111"/>
<path d="M110.594 100.242C110.691 99.8442 110.499 99.4558 110.166 99.3742C109.833 99.2926 109.484 99.5487 109.387 99.9463C109.29 100.344 109.481 100.732 109.814 100.814C110.147 100.895 110.496 100.639 110.594 100.242Z" fill="#F29111"/>
<path d="M110.148 102.05C110.245 101.653 110.054 101.264 109.721 101.183C109.388 101.101 109.039 101.357 108.942 101.755C108.844 102.152 109.036 102.541 109.369 102.622C109.702 102.704 110.051 102.448 110.148 102.05Z" fill="#F29111"/>
<path d="M109.703 103.857C109.8 103.459 109.609 103.071 109.276 102.989C108.942 102.908 108.594 103.164 108.496 103.561C108.399 103.959 108.59 104.347 108.924 104.429C109.257 104.511 109.606 104.254 109.703 103.857Z" fill="#F29111"/>
<path d="M109.265 105.679C109.363 105.282 109.171 104.893 108.838 104.812C108.505 104.73 108.156 104.986 108.059 105.384C107.962 105.781 108.153 106.17 108.486 106.251C108.819 106.333 109.168 106.077 109.265 105.679Z" fill="#F29111"/>
<path d="M103.492 96.5913C103.589 96.1938 103.398 95.8054 103.065 95.7238C102.732 95.6422 102.383 95.8983 102.285 96.2959C102.188 96.6934 102.379 97.0818 102.713 97.1634C103.046 97.2449 103.395 96.9888 103.492 96.5913Z" fill="#F29111"/>
<path d="M103.047 98.398C103.144 98.0004 102.953 97.6121 102.619 97.5305C102.286 97.4489 101.937 97.705 101.84 98.1025C101.743 98.5 101.934 98.8884 102.267 98.97C102.601 99.0516 102.949 98.7955 103.047 98.398Z" fill="#F29111"/>
<path d="M102.601 100.207C102.699 99.809 102.507 99.4206 102.174 99.3391C101.841 99.2575 101.492 99.5136 101.395 99.9111C101.298 100.309 101.489 100.697 101.822 100.779C102.155 100.86 102.504 100.604 102.601 100.207Z" fill="#F29111"/>
<path d="M102.164 102.017C102.261 101.62 102.07 101.231 101.737 101.15C101.403 101.068 101.054 101.324 100.957 101.722C100.86 102.119 101.051 102.508 101.385 102.589C101.718 102.671 102.067 102.415 102.164 102.017Z" fill="#F29111"/>
<path d="M101.719 103.826C101.816 103.428 101.624 103.04 101.291 102.958C100.958 102.877 100.609 103.133 100.512 103.53C100.415 103.928 100.606 104.316 100.939 104.398C101.272 104.479 101.621 104.223 101.719 103.826Z" fill="#F29111"/>
<path d="M108.015 97.6968C108.113 97.2993 107.921 96.9109 107.588 96.8293C107.255 96.7477 106.906 97.0038 106.809 97.4013C106.712 97.7988 106.903 98.1872 107.236 98.2688C107.569 98.3504 107.918 98.0943 108.015 97.6968Z" fill="#F29111"/>
<path d="M107.578 99.5073C107.675 99.1098 107.484 98.7214 107.151 98.6398C106.817 98.5582 106.469 98.8144 106.371 99.2119C106.274 99.6094 106.465 99.9978 106.799 100.079C107.132 100.161 107.481 99.9049 107.578 99.5073Z" fill="#F29111"/>
<path d="M107.133 101.314C107.23 100.916 107.039 100.528 106.705 100.446C106.372 100.365 106.023 100.621 105.926 101.019C105.829 101.416 106.02 101.804 106.353 101.886C106.686 101.968 107.035 101.712 107.133 101.314Z" fill="#F29111"/>
<path d="M106.695 103.125C106.792 102.727 106.601 102.339 106.268 102.257C105.935 102.175 105.586 102.432 105.489 102.829C105.391 103.227 105.583 103.615 105.916 103.697C106.249 103.778 106.598 103.522 106.695 103.125Z" fill="#F29111"/>
<path d="M106.25 104.933C106.347 104.536 106.156 104.147 105.823 104.066C105.489 103.984 105.14 104.24 105.043 104.638C104.946 105.035 105.137 105.424 105.47 105.505C105.804 105.587 106.153 105.331 106.25 104.933Z" fill="#F29111"/>
<path d="M110.773 106.041C110.87 105.643 110.679 105.255 110.346 105.173C110.013 105.091 109.664 105.348 109.567 105.745C109.469 106.143 109.661 106.531 109.994 106.613C110.327 106.694 110.676 106.438 110.773 106.041Z" fill="#F29111"/>
<path d="M96.7498 104.527C96.847 104.129 96.6557 103.741 96.3225 103.659C95.9893 103.578 95.6404 103.834 95.5432 104.231C95.446 104.629 95.6373 105.017 95.9705 105.099C96.3036 105.18 96.6526 104.924 96.7498 104.527Z" fill="#F29111"/>
<path d="M96.3045 106.335C96.4017 105.938 96.2104 105.55 95.8772 105.468C95.544 105.386 95.1951 105.642 95.0979 106.04C95.0007 106.438 95.192 106.826 95.5251 106.907C95.8583 106.989 96.2072 106.733 96.3045 106.335Z" fill="#F29111"/>
<path d="M98.2576 104.9C98.3548 104.502 98.1635 104.114 97.8303 104.032C97.4971 103.951 97.1482 104.207 97.051 104.604C96.9538 105.002 97.1451 105.39 97.4783 105.472C97.8115 105.554 98.1604 105.297 98.2576 104.9Z" fill="#F29111"/>
<path d="M97.8123 106.709C97.9095 106.311 97.7182 105.923 97.385 105.841C97.0518 105.759 96.7029 106.016 96.6057 106.413C96.5085 106.811 96.6998 107.199 97.033 107.281C97.3661 107.362 97.7151 107.106 97.8123 106.709Z" fill="#F29111"/>
<path d="M95.242 104.154C95.3392 103.756 95.1479 103.368 94.8147 103.286C94.4815 103.205 94.1326 103.461 94.0354 103.858C93.9382 104.256 94.1295 104.644 94.4627 104.726C94.7958 104.807 95.1447 104.551 95.242 104.154Z" fill="#F29111"/>
<path d="M94.7966 105.96C94.8939 105.563 94.7026 105.175 94.3694 105.093C94.0362 105.011 93.6873 105.267 93.5901 105.665C93.4929 106.063 93.6842 106.451 94.0173 106.532C94.3505 106.614 94.6994 106.358 94.7966 105.96Z" fill="#F29111"/>
<path d="M99.7732 105.261C99.8704 104.864 99.6791 104.475 99.346 104.394C99.0128 104.312 98.6639 104.568 98.5667 104.966C98.4694 105.363 98.6607 105.752 98.9939 105.833C99.3271 105.915 99.676 105.659 99.7732 105.261Z" fill="#F29111"/>
<path d="M99.3279 107.07C99.4251 106.672 99.2338 106.284 98.9006 106.202C98.5675 106.121 98.2186 106.377 98.1213 106.774C98.0241 107.172 98.2154 107.56 98.5486 107.642C98.8818 107.723 99.2307 107.467 99.3279 107.07Z" fill="#F29111"/>
<path d="M102.789 106.009C102.886 105.612 102.695 105.223 102.362 105.142C102.028 105.06 101.679 105.316 101.582 105.714C101.485 106.111 101.676 106.5 102.01 106.581C102.343 106.663 102.692 106.407 102.789 106.009Z" fill="#F29111"/>
<path d="M102.344 107.816C102.441 107.418 102.249 107.03 101.916 106.948C101.583 106.867 101.234 107.123 101.137 107.52C101.04 107.918 101.231 108.306 101.564 108.388C101.897 108.47 102.246 108.213 102.344 107.816Z" fill="#F29111"/>
<path d="M107.304 107.115C107.402 106.717 107.21 106.329 106.877 106.247C106.544 106.166 106.195 106.422 106.098 106.819C106.001 107.217 106.192 107.605 106.525 107.687C106.858 107.768 107.207 107.512 107.304 107.115Z" fill="#F29111"/>
<path d="M106.875 108.925C106.972 108.528 106.781 108.139 106.448 108.058C106.114 107.976 105.765 108.232 105.668 108.63C105.571 109.027 105.762 109.416 106.095 109.497C106.429 109.579 106.778 109.323 106.875 108.925Z" fill="#F29111"/>
<path d="M104.289 106.367C104.386 105.969 104.195 105.581 103.862 105.499C103.528 105.418 103.179 105.674 103.082 106.071C102.985 106.469 103.176 106.857 103.51 106.939C103.843 107.02 104.192 106.764 104.289 106.367Z" fill="#F29111"/>
<path d="M103.851 108.189C103.949 107.791 103.757 107.403 103.424 107.321C103.091 107.24 102.742 107.496 102.645 107.894C102.548 108.291 102.739 108.679 103.072 108.761C103.405 108.843 103.754 108.586 103.851 108.189Z" fill="#F29111"/>
<path d="M108.82 107.488C108.917 107.09 108.726 106.702 108.393 106.62C108.06 106.539 107.711 106.795 107.614 107.192C107.516 107.59 107.708 107.978 108.041 108.06C108.374 108.141 108.723 107.885 108.82 107.488Z" fill="#F29111"/>
<path d="M108.383 109.298C108.48 108.901 108.289 108.512 107.955 108.431C107.622 108.349 107.273 108.605 107.176 109.003C107.079 109.4 107.27 109.789 107.603 109.87C107.936 109.952 108.285 109.696 108.383 109.298Z" fill="#F29111"/>
<path d="M101.281 105.636C101.378 105.239 101.187 104.85 100.854 104.769C100.521 104.687 100.172 104.943 100.074 105.341C99.9772 105.738 100.169 106.127 100.502 106.208C100.835 106.29 101.184 106.034 101.281 105.636Z" fill="#F29111"/>
<path d="M100.836 107.443C100.933 107.045 100.742 106.657 100.408 106.575C100.075 106.494 99.7264 106.75 99.6292 107.147C99.5319 107.545 99.7232 107.933 100.056 108.015C100.39 108.097 100.738 107.84 100.836 107.443Z" fill="#F29111"/>
<path d="M105.797 106.74C105.894 106.342 105.703 105.954 105.369 105.872C105.036 105.791 104.687 106.047 104.59 106.444C104.493 106.842 104.684 107.23 105.017 107.312C105.351 107.393 105.699 107.137 105.797 106.74Z" fill="#F29111"/>
<path d="M105.367 108.55C105.464 108.153 105.273 107.764 104.94 107.683C104.607 107.601 104.258 107.857 104.16 108.255C104.063 108.652 104.254 109.041 104.588 109.122C104.921 109.204 105.27 108.948 105.367 108.55Z" fill="#F29111"/>
<path d="M110.328 107.849C110.425 107.452 110.234 107.063 109.901 106.982C109.567 106.9 109.219 107.156 109.121 107.554C109.024 107.951 109.215 108.34 109.549 108.421C109.882 108.503 110.231 108.247 110.328 107.849Z" fill="#F29111"/>
<path d="M109.89 109.66C109.988 109.262 109.796 108.874 109.463 108.792C109.13 108.711 108.781 108.967 108.684 109.364C108.587 109.762 108.778 110.15 109.111 110.232C109.444 110.313 109.793 110.057 109.89 109.66Z" fill="#F29111"/>
</g>
<path d="M59.5218 107.967L63.4395 106.162C63.9531 105.923 64.0009 105.206 63.5231 104.907L45.3081 93.3257C44.8781 93.0508 44.3645 92.9671 43.8748 93.0747L40.1721 93.8755C39.6465 93.995 39.4315 94.6285 39.7779 95.0468L48.6406 105.314C48.9153 105.624 49.2736 105.84 49.6678 105.935L59.056 108.015C59.2112 108.051 59.3785 108.039 59.5218 107.967Z" fill="white"/>
<path d="M64.7188 86.1796C69.8071 81.5182 72.9723 74.0361 74.1787 67.3309C74.2503 66.9126 65.8535 63.064 56.8475 60.3628C44.4852 56.6576 37.5695 55.9047 37.4023 56.2991C34.7268 62.562 33.2576 70.5461 34.9418 77.2513C36.1362 82.0321 39.0386 85.4863 42.825 88.5939C42.7653 88.9644 42.6817 89.311 42.5742 89.6696C41.2722 90.0999 40.1256 90.829 39.8628 92.2991C39.5761 93.9007 40.4122 95.3349 41.2603 96.6138L40.7467 98.311C38.1548 102.781 34.1773 106.235 29.3638 108.112C28.6352 107.837 27.823 107.825 27.4049 108.662C26.6644 110.156 28.9099 111.674 29.9013 112.319C32.7321 114.172 46.2769 118.235 49.6571 118.247C50.8396 118.247 53.5509 118.211 53.754 116.562C53.8615 115.642 53.1807 115.199 52.4162 115.032C49.4302 110.813 48.0088 105.745 48.3074 100.582L48.821 98.8847C50.2304 98.2871 51.7235 97.5461 52.3565 96.0521C52.9418 94.6776 52.3804 93.4345 51.5323 92.3588C51.6279 92.0003 51.7593 91.6537 51.9146 91.319C56.7759 90.8051 61.0997 89.5142 64.7188 86.1796Z" fill="#79613E"/>
<path d="M67.2056 79.2815C65.3901 76.8433 61.9501 76.3293 59.5135 78.1461C57.8413 79.3891 53.6369 85.7357 51.1764 89.6082C50.6867 90.3851 50.7703 91.0544 51.487 91.3771C51.5825 91.401 51.702 91.3652 51.905 91.3293C56.7783 90.8154 61.1021 89.5245 64.7331 86.1899C66.047 84.9947 67.2175 83.5963 68.2686 82.0903C68.185 81.0983 67.8387 80.1301 67.2056 79.2815Z" fill="#FFA531"/>
<path d="M43.7659 73.4254C42.7267 70.5688 39.5735 69.0987 36.7188 70.1385C35.6916 70.5091 34.8435 71.1664 34.2344 71.9792C34.2941 73.784 34.5091 75.5648 34.9391 77.2501C35.5482 79.6883 36.6113 81.78 37.9968 83.6565C38.4626 84.2302 38.9404 84.8158 39.4182 85.3776C40.4454 86.5011 41.5801 87.5648 42.8342 88.5927C42.9776 88.7361 43.1806 88.8437 43.3837 88.8796C44.172 89.0589 44.4467 88.533 44.4587 87.5887C44.5064 82.9991 44.4825 75.3855 43.7659 73.4254Z" fill="#FFA531"/>
<path d="M56.8471 60.3628C44.4848 56.6576 37.5691 55.9047 37.4018 56.2991C36.5657 58.2712 35.873 60.315 35.3594 62.3947C39.504 65.2991 45.8584 68.1676 53.216 70.3788C60.5737 72.5899 67.4655 73.6895 72.518 73.5461C73.2466 71.5262 73.796 69.4345 74.1663 67.3309C74.2499 66.9126 65.8531 63.064 56.8471 60.3628Z" fill="#FFCD34"/>
<path d="M56.6459 78.1347C56.0487 80.1307 51.5099 86.2502 48.7269 89.8957C47.9505 90.8996 46.35 90.4215 46.2664 89.1546C45.9439 84.5769 45.5139 76.9753 46.1111 74.9793C46.983 72.063 50.0527 70.4136 52.9551 71.2861C55.8576 72.1586 57.5059 75.2303 56.6459 78.1347Z" fill="#FFCD34"/>
<path d="M45.3357 96.7087C47.3663 97.3182 49.3371 96.6848 49.7551 95.3103C50.1732 93.9238 48.8593 92.3103 46.8407 91.7127C44.8102 91.1031 42.8394 91.7366 42.4213 93.1111C42.0033 94.4856 43.3172 96.0991 45.3357 96.7087Z" fill="#FFCD34"/>
<path d="M40.1233 93.9823C40.8161 94.1855 41.5805 93.7074 41.8194 92.9066C42.0583 92.1059 41.688 91.2812 40.9952 91.078C40.3025 90.8748 39.538 91.3529 39.2991 92.1537C39.0603 92.9545 39.4305 93.7792 40.1233 93.9823Z" fill="#FFCD34"/>
<path d="M51.1858 97.3066C51.8786 97.5098 52.643 97.0317 52.8819 96.2309C53.1208 95.4301 52.7505 94.6054 52.0577 94.4022C51.365 94.199 50.6005 94.6771 50.3616 95.4779C50.1228 96.2787 50.493 97.0914 51.1858 97.3066Z" fill="#FFCD34"/>
<path d="M36.1699 80.6561C36.0624 80.429 35.9549 80.2019 35.8594 79.9629C35.9549 80.19 36.0624 80.429 36.1699 80.6561Z" fill="#E9B126"/>
<path d="M35.8018 79.8432C35.7063 79.628 35.6227 79.4009 35.5391 79.1738C35.6227 79.389 35.7063 79.6161 35.8018 79.8432Z" fill="#E9B126"/>
<path d="M51.7734 91.6052C51.8093 91.5096 51.8451 91.414 51.8929 91.3184C51.857 91.414 51.8212 91.5096 51.7734 91.6052Z" fill="#E9B126"/>
<path d="M65.6759 85.2461C65.5445 85.3895 65.4011 85.5329 65.2578 85.6644C65.4011 85.5329 65.5325 85.3895 65.6759 85.2461Z" fill="#E9B126"/>
<path d="M52.532 115.055C49.7131 115.27 45.2938 114.649 40.4922 113.202C35.6906 111.768 31.6056 109.832 29.384 108.099C29.3721 108.099 29.3601 108.111 29.3482 108.111C28.6196 107.836 27.8074 107.824 27.3893 108.661C26.6488 110.155 28.8943 111.673 29.8857 112.318C32.7165 114.171 46.2613 118.234 49.6415 118.246C50.824 118.246 53.5353 118.21 53.7384 116.561C53.8459 115.689 53.2367 115.246 52.532 115.055Z" fill="#E9B126"/>
<path d="M34.9287 77.2507C34.8809 77.0355 34.8212 76.8323 34.7734 76.6172C34.8332 76.8204 34.8809 77.0355 34.9287 77.2507Z" fill="#E9B126"/>
<path d="M37.9872 83.6571C37.6409 83.191 37.3184 82.7129 37.0078 82.2109C38.0709 83.9679 39.4206 85.5217 40.9733 86.9799C40.4239 86.454 39.8983 85.9281 39.3967 85.3783C38.9428 84.8165 38.465 84.2309 37.9872 83.6571Z" fill="#E9B126"/>
<path d="M37.936 83.5853C37.8166 83.4299 37.7091 83.2745 37.6016 83.1191C37.7091 83.2745 37.8285 83.4299 37.936 83.5853Z" fill="#FFCD34"/>
<path d="M37.4617 82.9042C37.3064 82.6771 37.1631 82.438 37.0078 82.2109C37.1631 82.45 37.3184 82.6771 37.4617 82.9042Z" fill="#FFCD34"/>
<path d="M39.4007 85.3664C38.9468 84.8166 38.4929 84.2668 38.0391 83.7051C38.4691 84.2788 38.9229 84.8286 39.4007 85.3664Z" fill="#FFCD34"/>
<path d="M34.5478 75.3745C34.5358 75.2789 34.5239 75.1952 34.5 75.0996C34.5239 75.1833 34.5358 75.2789 34.5478 75.3745Z" fill="#FFCD34"/>
<path d="M66.3934 84.4688C67.0503 83.7158 67.6834 82.915 68.2686 82.0783C68.185 81.0983 67.8387 80.1301 67.2056 79.2815C65.3901 76.8433 61.9501 76.3293 59.5135 78.1461C57.8413 79.3891 53.6369 85.7357 51.1764 89.6082C50.6867 90.3851 50.7703 91.0544 51.487 91.3771C51.5825 91.401 51.702 91.3652 51.905 91.3293C56.7783 90.8154 61.1021 89.5245 64.7331 86.1899C64.9004 86.0345 65.0556 85.8911 65.2109 85.7357C65.2348 85.7118 65.2467 85.6998 65.2706 85.6759C65.414 85.5325 65.5454 85.401 65.6887 85.2576C65.9037 85.0305 66.1187 84.7915 66.3337 84.5524C66.3456 84.5166 66.3695 84.4927 66.3934 84.4688Z" fill="#FFCD34"/>
<path d="M43.3754 88.8796C44.1637 89.0589 44.4385 88.533 44.4504 87.5887C44.5101 82.9991 44.4982 75.3855 43.7815 73.4254C42.7424 70.5688 39.5891 69.0987 36.7344 70.1385C35.7072 70.5091 34.8592 71.1664 34.25 71.9792C34.25 71.9911 34.25 72.015 34.25 72.027C34.25 72.1465 34.2619 72.266 34.2619 72.3855C34.2619 72.4692 34.2739 72.5529 34.2739 72.6365C34.2739 72.7561 34.2858 72.8636 34.2978 72.9832C34.2978 73.0788 34.3097 73.1624 34.3217 73.2581C34.3336 73.3656 34.3456 73.4732 34.3456 73.5927C34.3575 73.6883 34.3575 73.784 34.3694 73.8796C34.3814 73.9871 34.3933 74.0947 34.4053 74.2023C34.4172 74.2979 34.4292 74.4055 34.4411 74.5011C34.4531 74.5967 34.465 74.7043 34.4769 74.7999C34.4889 74.9075 34.5008 75.015 34.5247 75.1106C34.5367 75.2063 34.5486 75.3019 34.5725 75.3855C34.5964 75.5051 34.6083 75.6246 34.6322 75.7441C34.6442 75.8278 34.6561 75.8995 34.68 75.9832C34.7158 76.1744 34.7517 76.3776 34.7994 76.5688C34.7994 76.5927 34.8114 76.6047 34.8114 76.6286C34.8592 76.8437 34.9069 77.0589 34.9667 77.262C35.0383 77.5608 35.1219 77.8596 35.2175 78.1585C35.2414 78.2182 35.2533 78.278 35.2772 78.3377C35.3489 78.5648 35.4205 78.7919 35.5041 79.019C35.528 79.0788 35.5519 79.1266 35.5639 79.1863C35.6475 79.4134 35.7311 79.6405 35.8266 79.8557C35.8386 79.8915 35.8625 79.9393 35.8744 79.9752C35.97 80.2142 36.0775 80.4413 36.185 80.6684C36.1969 80.6923 36.2089 80.7162 36.2208 80.7401C36.3402 80.9792 36.4597 81.2182 36.5911 81.4573C36.603 81.4692 36.603 81.4812 36.615 81.4931C36.7464 81.7441 36.8897 81.9832 37.033 82.2222C37.033 82.2222 37.033 82.2222 37.033 82.2342C37.1763 82.4732 37.3316 82.7003 37.4869 82.9274C37.5347 82.9991 37.5825 83.0589 37.6302 83.1306C37.7377 83.2859 37.8452 83.4413 37.9647 83.5967C38.0005 83.6326 38.0244 83.6804 38.0602 83.7162C38.5141 84.278 38.968 84.8278 39.4219 85.3776C39.4458 85.4134 39.4816 85.4373 39.5055 85.4732C39.7085 85.6883 39.9116 85.9035 40.1146 86.1186C40.1624 86.1784 40.2221 86.2262 40.2819 86.2859C40.5207 86.525 40.7596 86.764 41.0105 87.0031C41.0582 87.0389 41.0941 87.0867 41.1418 87.1226C41.3688 87.3258 41.5957 87.529 41.8227 87.7322C41.8824 87.7919 41.9421 87.8397 42.0138 87.8995C42.2885 88.1385 42.5632 88.3776 42.8499 88.6047C42.9693 88.7361 43.1724 88.8437 43.3754 88.8796Z" fill="#FFCD34"/>
<path d="M39.4104 85.3772C39.4343 85.4011 39.4582 85.425 39.482 85.4608C39.4582 85.425 39.4223 85.4011 39.3984 85.3652C39.3984 85.3772 39.4104 85.3772 39.4104 85.3772Z" fill="#FFCD34"/>
<path d="M40.2532 86.2746C40.1934 86.2149 40.1457 86.1671 40.0859 86.1074C40.1457 86.1552 40.1934 86.2149 40.2532 86.2746Z" fill="#FFCD34"/>
<path d="M37.9853 83.6556C37.9972 83.6795 38.0092 83.6915 38.0331 83.7034C37.9972 83.6676 37.9733 83.6198 37.9375 83.584C37.9614 83.6079 37.9733 83.6318 37.9853 83.6556Z" fill="#FFCD34"/>
<path d="M34.2619 72.6377C34.2619 72.5541 34.25 72.4704 34.25 72.3867C34.2619 72.4704 34.2619 72.5541 34.2619 72.6377Z" fill="#FFCD34"/>
<path d="M34.3598 73.8689C34.3479 73.7733 34.3479 73.6776 34.3359 73.582C34.3359 73.6776 34.3479 73.7733 34.3598 73.8689Z" fill="#FFCD34"/>
<path d="M34.3051 73.2456C34.2932 73.15 34.2932 73.0663 34.2812 72.9707C34.2812 73.0663 34.2932 73.1619 34.3051 73.2456Z" fill="#FFCD34"/>
<path d="M34.4265 74.4765C34.4145 74.3809 34.4026 74.2734 34.3906 74.1777C34.4026 74.2853 34.4145 74.3809 34.4265 74.4765Z" fill="#FFCD34"/>
<path d="M34.7757 76.5446C34.7279 76.3534 34.6921 76.1502 34.6562 75.959C34.6921 76.1622 34.7279 76.3534 34.7757 76.5446Z" fill="#FFCD34"/>
<path d="M32.4556 106.617C31.8106 106.988 31.1537 107.334 30.4609 107.645C30.6401 108.422 31.2254 109.091 32.0495 109.33C32.8737 109.581 33.7934 109.318 34.3667 108.721C34.1995 109.832 34.8803 110.932 35.9911 111.267C36.9944 111.565 38.0575 111.147 38.595 110.31C38.5114 111.374 39.1683 112.39 40.2313 112.713C41.2944 113.036 42.4052 112.545 42.9188 111.613C42.9069 112.617 43.5518 113.549 44.5671 113.86C45.7257 114.207 46.944 113.597 47.374 112.498C47.4218 113.454 48.0548 114.302 49.0223 114.601C49.9898 114.888 51.0051 114.518 51.5545 113.741C51.1962 113.155 50.8617 112.545 50.5631 111.924C47.9354 112.055 44.5313 111.601 40.9361 110.526C37.5319 109.486 34.5698 108.087 32.4556 106.617Z" fill="#FFCD34"/>
<path d="M54.5878 65.5259C63.0443 68.0598 70.5215 69.4104 73.8061 69.1355C73.9375 68.5379 74.0689 67.9403 74.1764 67.3427C74.2481 66.9243 65.8513 63.0757 56.8453 60.3745C44.483 56.6694 37.5672 55.9164 37.4 56.3108C37.1492 56.8965 36.9223 57.4821 36.6953 58.0797C39.3947 60.0996 46.2746 63.0279 54.5878 65.5259Z" fill="#F3BD27"/>
<path d="M72.4475 67.8329C72.2683 68.4425 64.3493 67.2711 54.9969 64.4743C45.6446 61.6775 38.3944 58.2831 38.5736 57.6735C38.7527 57.064 46.5762 58.5341 55.9405 61.3429C65.3048 64.1516 72.6266 67.2233 72.4475 67.8329Z" fill="#42340B"/>
<path d="M31.1703 38.6328L32.9858 42.9117L37.4171 44.3221L33.1411 46.1388L31.7078 50.5731L29.8923 46.2942L25.4609 44.8838L29.737 43.0671L31.1703 38.6328Z" fill="#FFDF7E"/>
<path d="M23.8215 83.3574L26.0073 88.5447L31.3703 90.2538L26.1865 92.4411L24.4785 97.8076L22.2927 92.6204L16.9297 90.9112L22.1135 88.724L23.8215 83.3574Z" fill="#FFDF7E"/>
<path d="M61.0262 45.875L62.2565 48.7913L65.2664 49.7475L62.352 50.9786L61.3965 53.9905L60.1662 51.0742L57.1562 50.118L60.0707 48.887L61.0262 45.875Z" fill="#FFDF7E"/>
<path d="M37.6399 87.3382C37.7713 86.7167 38.4521 86.394 39.0135 86.6928L44.902 89.7406C45.9531 90.2904 46.3712 91.5812 45.8217 92.645L40.3274 103.259C39.7779 104.31 38.488 104.729 37.4249 104.179L34.3672 102.589L37.6399 87.3382Z" fill="#F29111"/>
<defs>
<linearGradient id="paint0_linear_1993_4147" x1="95.4501" y1="43.6716" x2="87.1352" y2="77.6258" gradientUnits="userSpaceOnUse">
<stop stop-color="white"/>
<stop offset="1" stop-color="#F4F4F4"/>
</linearGradient>
</defs>
</svg>
