<svg width="200" height="200" viewBox="0 0 200 200" fill="none" xmlns="http://www.w3.org/2000/svg">
<path d="M88.8016 184C114.869 184 136.002 180.06 136.002 175.2C136.002 170.34 114.869 166.4 88.8016 166.4C62.7337 166.4 41.6016 170.34 41.6016 175.2C41.6016 180.06 62.7337 184 88.8016 184Z" fill="#A4AFBF" fill-opacity="0.7"/>
<path d="M84.8891 123.845C83.2144 125.725 81.636 127.739 80.7082 130.077C79.7805 132.416 79.5997 135.153 80.6962 137.407C81.7926 139.674 84.371 141.277 86.841 140.807C88.3471 140.517 89.817 139.131 89.4556 137.636C89.2387 136.732 88.3712 136.081 87.4555 135.912C86.5398 135.756 85.5879 136.009 84.7566 136.455C82.0336 137.889 80.5636 141.12 80.6359 144.194C80.7082 147.269 82.142 150.186 84.0096 152.633C88.9013 159.011 97.1668 162.639 105.167 161.892C108.264 161.603 111.264 160.71 114.336 160.228C117.409 159.746 120.674 159.71 123.481 161.036C126.289 162.362 128.493 165.352 128.096 168.438C127.951 169.547 127.337 170.753 126.24 170.994C124.903 171.283 123.662 169.776 123.867 168.426C124.072 167.076 125.325 166.063 126.65 165.713C127.975 165.364 131.096 164.327 134.084 165.292" stroke="#6C747E" stroke-width="1.75" stroke-linecap="round" stroke-linejoin="round"/>
<path d="M172.41 137.588H138.927C136.228 137.588 134.047 139.77 134.047 142.47V178.878C134.047 181.578 136.24 183.76 138.927 183.76H172.41C175.109 183.76 177.29 181.578 177.29 178.878V142.47C177.302 139.77 175.109 137.588 172.41 137.588Z" fill="#35373A"/>
<path d="M170.121 145.425H141.216C138.517 145.425 136.324 147.607 136.324 150.307V177.071C136.324 179.771 138.517 181.953 141.216 181.953H170.121C172.82 181.953 175.013 179.771 175.013 177.071V150.307C175.013 147.607 172.82 145.425 170.121 145.425Z" fill="#AAC9D2"/>
<path opacity="0.3" d="M155.738 175.804C162.654 175.804 168.268 170.186 168.268 163.266C168.268 156.346 162.654 150.729 155.738 150.729C148.822 150.729 143.207 156.346 143.207 163.266C143.207 170.186 148.81 175.804 155.738 175.804Z" fill="#242020"/>
<path d="M155.676 165.678C157.17 165.678 158.387 164.46 158.387 162.965C158.387 161.471 157.17 160.253 155.676 160.253C154.182 160.253 152.965 161.471 152.965 162.965C152.965 164.46 154.17 165.678 155.676 165.678Z" fill="#35373A"/>
<path d="M151.4 139.518H140.074V141.808H151.4V139.518Z" fill="#AAC9D2"/>
<path d="M155.617 140.723C155.617 141.386 155.075 141.929 154.412 141.929C153.749 141.929 153.207 141.386 153.207 140.723C153.207 140.06 153.749 139.518 154.412 139.518C155.075 139.518 155.617 140.048 155.617 140.723Z" fill="#AAC9D2"/>
<path d="M159.589 140.723C159.589 141.386 159.047 141.929 158.385 141.929C157.722 141.929 157.18 141.386 157.18 140.723C157.18 140.06 157.722 139.518 158.385 139.518C159.047 139.518 159.589 140.048 159.589 140.723Z" fill="#AAC9D2"/>
<path d="M171.761 140.723C171.761 141.386 171.219 141.929 170.556 141.929C169.894 141.929 169.352 141.386 169.352 140.723C169.352 140.06 169.894 139.518 170.556 139.518C171.219 139.518 171.761 140.048 171.761 140.723Z" fill="#AAC9D2"/>
<path d="M167.542 151.331C159.084 159.854 150.192 167.944 140.914 175.563" stroke="#AAC9D2" stroke-miterlimit="10"/>
<path d="M169.588 153.381C161.094 161.904 152.154 169.993 142.84 177.612" stroke="#AAC9D2" stroke-miterlimit="10"/>
<path d="M171.518 155.31C163.06 163.869 154.168 172.006 144.891 179.662" stroke="#AAC9D2" stroke-miterlimit="10"/>
<path d="M173.568 157.358C165.074 165.882 156.134 173.971 146.82 181.59" stroke="#AAC9D2" stroke-miterlimit="10"/>
<path d="M174.17 160.614C165.712 169.162 160.543 173.948 151.277 181.591" stroke="#AAC9D2" stroke-miterlimit="10"/>
<path d="M174.529 164.23C166.082 172.778 166.191 173.947 156.938 181.59" stroke="#AAC9D2" stroke-miterlimit="10"/>
<path d="M165.494 149.281C157 157.804 148.06 165.894 138.746 173.513" stroke="#AAC9D2" stroke-miterlimit="10"/>
<path d="M163.327 147.112C154.869 155.672 145.977 163.809 136.699 171.464" stroke="#AAC9D2" stroke-miterlimit="10"/>
<path d="M159.954 146.269C151.472 154.816 146.243 159.843 136.941 167.486" stroke="#AAC9D2" stroke-miterlimit="10"/>
<path d="M155.615 146.269C147.181 154.792 146.554 156.009 137.301 163.628" stroke="#AAC9D2" stroke-miterlimit="10"/>
<path d="M141.977 151.681C149.929 160.228 157.435 169.149 164.472 178.42" stroke="#AAC9D2" stroke-miterlimit="10"/>
<path d="M144.051 149.896C152.003 158.444 159.509 167.365 166.546 176.624" stroke="#AAC9D2" stroke-miterlimit="10"/>
<path d="M146.121 148.101C154.073 156.648 161.58 165.569 168.616 174.84" stroke="#AAC9D2" stroke-miterlimit="10"/>
<path d="M148.195 146.316C156.147 154.864 163.654 163.785 170.69 173.043" stroke="#AAC9D2" stroke-miterlimit="10"/>
<path d="M151.508 145.858C159.46 154.406 163.894 159.578 170.93 168.848" stroke="#AAC9D2" stroke-miterlimit="10"/>
<path d="M139.844 153.525C147.796 162.073 155.302 170.994 162.339 180.265" stroke="#AAC9D2" stroke-miterlimit="10"/>
<path d="M137.625 155.442C145.577 163.99 152.602 171.91 159.626 181.181" stroke="#AAC9D2" stroke-miterlimit="10"/>
<path d="M136.59 158.648C144.542 167.196 149.217 172.452 156.241 181.723" stroke="#AAC9D2" stroke-miterlimit="10"/>
<path d="M136.918 163.266C144.87 171.813 145.497 171.921 152.521 181.192" stroke="#AAC9D2" stroke-miterlimit="10"/>
<path d="M160.073 148.679H152.229C151.639 148.679 151.145 148.197 151.145 147.594C151.145 146.991 151.626 146.509 152.229 146.509H160.073C160.663 146.509 161.157 146.991 161.157 147.594C161.157 148.197 160.663 148.679 160.073 148.679Z" fill="#FF9100"/>
<g filter="url(#filter0_d_3036_4271)">
<path d="M67.7769 54.8509C64.4876 62.9402 62.0055 76.0927 61.0898 82.3616L77.6327 75.2006C79.1027 63.8564 77.4761 55.514 75.9821 51.3548C75.5724 50.1975 74.2711 49.7153 73.1386 50.1734L72.4879 50.4265C70.3915 51.2463 68.6203 52.7653 67.7769 54.8509Z" fill="white"/>
<path d="M78.0204 61.8672C72.9117 53.561 67.285 59.0945 65.1523 62.8076C67.4536 54.9835 67.3211 53.1029 71.8153 50.7159C75.7311 48.6303 76.1649 51.6924 76.4299 52.4278C76.683 53.1149 77.8396 58.2988 78.0204 61.8672Z" fill="#FF9100"/>
</g>
<g filter="url(#filter1_d_3036_4271)">
<path d="M50.9689 116.309L55.6318 119.612C56.1981 120.022 56.5475 120.613 56.5716 121.24L56.7764 125.942C56.8246 126.942 56.0414 127.798 54.9209 127.967L37.4382 130.728C36.2815 130.908 35.1007 130.318 34.667 129.341L34.2332 128.377C33.6549 127.087 34.0766 125.664 35.2694 124.857L47.9808 116.225C48.8483 115.646 50.0773 115.67 50.9689 116.309Z" fill="white"/>
</g>
<g filter="url(#filter2_d_3036_4271)">
<g filter="url(#filter3_d_3036_4271)">
<path fill-rule="evenodd" clip-rule="evenodd" d="M127.187 98.9255C139.152 91.7887 158.104 78.0213 164.165 68.9797C164.731 68.1358 164.587 67.0508 163.924 66.2913L163.731 66.0743C161.864 63.9405 158.912 63.0845 156.189 63.9284C145.345 67.3039 130.525 72.4034 114.018 82.3854C109.126 78.7567 103.283 76.0201 96.7765 74.5614C74.6189 69.5824 53.0999 81.3486 48.7383 100.842C44.3766 120.336 58.811 140.167 80.9806 145.134C103.15 150.101 124.669 138.335 129.031 118.841C130.561 112.03 129.79 105.17 127.187 98.9255Z" fill="white"/>
</g>
</g>
<path d="M163.956 68.9076C161.143 72.6209 156.124 78.5909 146.765 85.5996C146.765 85.5996 151.88 75.6059 149.853 72.8955C147.826 70.1732 136 71.1881 136 71.1881C141.043 69.1941 150.485 64.9793 157.03 63.7137C159.235 63.2839 161.429 64.1077 163.193 65.5286L163.563 65.8271C164.493 66.5673 164.683 67.9404 163.956 68.9076Z" fill="#FF9100"/>
<path d="M164.339 68.9014C158.08 78.4844 138.771 92.3438 127.091 98.8004L125.199 94.8234L163.866 68.4702C164.181 68.2546 164.545 68.578 164.339 68.9014Z" fill="#E9E6E6"/>
<path d="M104.695 115.29C101.858 127.832 88.5579 138.018 72.7114 134.494C56.8649 130.971 46.8502 115.602 49.6752 103.06C52.5123 90.5173 66.4674 82.9413 82.3139 86.4648C98.1604 90.0002 107.532 102.747 104.695 115.29Z" fill="#35373A"/>
<mask id="mask0_3036_4271" style="mask-type:luminance" maskUnits="userSpaceOnUse" x="75" y="102" width="17" height="13">
<path d="M81.3838 113.828C85.5767 114.937 90.1191 111.562 91.5168 106.293L76.3113 102.255C74.9136 107.535 77.1788 112.719 81.3838 113.828Z" fill="white"/>
</mask>
<g mask="url(#mask0_3036_4271)">
<path d="M77.7158 102.427C77.8284 102.002 77.6485 101.586 77.314 101.497C76.9796 101.409 76.6172 101.681 76.5046 102.106C76.392 102.531 76.5719 102.947 76.9064 103.036C77.2409 103.124 77.6032 102.852 77.7158 102.427Z" fill="#F29111"/>
<path d="M77.2158 104.338C77.3284 103.914 77.1485 103.497 76.814 103.409C76.4796 103.32 76.1172 103.592 76.0046 104.017C75.892 104.442 76.0719 104.858 76.4064 104.947C76.7409 105.036 77.1032 104.763 77.2158 104.338Z" fill="#F29111"/>
<path d="M76.7041 106.248C76.8167 105.823 76.6368 105.407 76.3023 105.318C75.9678 105.229 75.6054 105.501 75.4929 105.926C75.3803 106.351 75.5602 106.767 75.8947 106.856C76.2291 106.945 76.5915 106.672 76.7041 106.248Z" fill="#F29111"/>
<path d="M76.1963 108.172C76.3088 107.748 76.129 107.331 75.7945 107.243C75.46 107.154 75.0976 107.426 74.9851 107.851C74.8725 108.276 75.0524 108.692 75.3869 108.781C75.7213 108.87 76.0837 108.597 76.1963 108.172Z" fill="#F29111"/>
<path d="M82.7861 101.733C82.8987 101.308 82.7188 100.892 82.3843 100.803C82.0499 100.714 81.6875 100.987 81.5749 101.412C81.4623 101.836 81.6422 102.253 81.9767 102.341C82.3112 102.43 82.6736 102.158 82.7861 101.733Z" fill="#F29111"/>
<path d="M82.2705 103.642C82.3831 103.217 82.2032 102.801 81.8687 102.712C81.5342 102.624 81.1718 102.896 81.0593 103.321C80.9467 103.746 81.1266 104.162 81.4611 104.251C81.7955 104.339 82.1579 104.067 82.2705 103.642Z" fill="#F29111"/>
<path d="M81.7705 105.554C81.8831 105.129 81.7032 104.713 81.3687 104.624C81.0342 104.536 80.6718 104.808 80.5593 105.233C80.4467 105.658 80.6266 106.074 80.9611 106.163C81.2955 106.251 81.6579 105.979 81.7705 105.554Z" fill="#F29111"/>
<path d="M81.2549 107.462C81.3674 107.038 81.1875 106.621 80.8531 106.533C80.5186 106.444 80.1562 106.716 80.0437 107.141C79.9311 107.566 80.111 107.982 80.4454 108.071C80.7799 108.16 81.1423 107.887 81.2549 107.462Z" fill="#F29111"/>
<path d="M80.7549 109.375C80.8674 108.951 80.6875 108.534 80.3531 108.446C80.0186 108.357 79.6562 108.629 79.5437 109.054C79.4311 109.479 79.611 109.895 79.9454 109.984C80.2799 110.073 80.6423 109.8 80.7549 109.375Z" fill="#F29111"/>
<path d="M87.3408 102.936C87.4534 102.511 87.2735 102.095 86.939 102.006C86.6045 101.918 86.2422 102.19 86.1296 102.615C86.017 103.039 86.1969 103.456 86.5314 103.544C86.8659 103.633 87.2282 103.361 87.3408 102.936Z" fill="#F29111"/>
<path d="M86.8408 104.848C86.9534 104.423 86.7735 104.007 86.439 103.918C86.1045 103.83 85.7422 104.102 85.6296 104.527C85.517 104.952 85.6969 105.368 86.0314 105.457C86.3659 105.545 86.7282 105.273 86.8408 104.848Z" fill="#F29111"/>
<path d="M86.3291 106.757C86.4417 106.333 86.2618 105.916 85.9273 105.828C85.5928 105.739 85.2304 106.011 85.1179 106.436C85.0053 106.861 85.1852 107.277 85.5197 107.366C85.8541 107.454 86.2165 107.182 86.3291 106.757Z" fill="#F29111"/>
<path d="M85.8252 108.669C85.9377 108.245 85.7579 107.828 85.4234 107.74C85.0889 107.651 84.7265 107.923 84.614 108.348C84.5014 108.773 84.6813 109.189 85.0158 109.278C85.3502 109.367 85.7126 109.094 85.8252 108.669Z" fill="#F29111"/>
<path d="M85.3174 110.58C85.4299 110.155 85.25 109.739 84.9156 109.65C84.5811 109.561 84.2187 109.833 84.1062 110.258C83.9936 110.683 84.1735 111.099 84.5079 111.188C84.8424 111.277 85.2048 111.004 85.3174 110.58Z" fill="#F29111"/>
<path d="M92.4111 102.243C92.5237 101.818 92.3438 101.402 92.0093 101.313C91.6749 101.224 91.3125 101.497 91.1999 101.921C91.0873 102.346 91.2672 102.762 91.6017 102.851C91.9362 102.94 92.2986 102.667 92.4111 102.243Z" fill="#F29111"/>
<path d="M91.9111 104.154C92.0237 103.729 91.8438 103.313 91.5093 103.224C91.1749 103.135 90.8125 103.408 90.6999 103.832C90.5873 104.257 90.7672 104.673 91.1017 104.762C91.4362 104.851 91.7986 104.579 91.9111 104.154Z" fill="#F29111"/>
<path d="M91.3955 106.064C91.5081 105.639 91.3282 105.223 90.9937 105.134C90.6592 105.045 90.2968 105.318 90.1843 105.743C90.0717 106.167 90.2516 106.584 90.5861 106.672C90.9205 106.761 91.2829 106.489 91.3955 106.064Z" fill="#F29111"/>
<path d="M90.8955 107.975C91.0081 107.55 90.8282 107.134 90.4937 107.045C90.1592 106.957 89.7968 107.229 89.6843 107.654C89.5717 108.079 89.7516 108.495 90.0861 108.584C90.4205 108.672 90.7829 108.4 90.8955 107.975Z" fill="#F29111"/>
<path d="M90.3799 109.884C90.4924 109.46 90.3125 109.043 89.9781 108.955C89.6436 108.866 89.2812 109.138 89.1687 109.563C89.0561 109.988 89.236 110.404 89.5704 110.493C89.9049 110.581 90.2673 110.309 90.3799 109.884Z" fill="#F29111"/>
<path d="M89.8799 111.796C89.9924 111.372 89.8125 110.955 89.4781 110.867C89.1436 110.778 88.7812 111.05 88.6687 111.475C88.5561 111.9 88.736 112.316 89.0704 112.405C89.4049 112.494 89.7673 112.221 89.8799 111.796Z" fill="#F29111"/>
<path d="M79.2314 102.83C79.344 102.405 79.1641 101.989 78.8296 101.9C78.4952 101.811 78.1328 102.083 78.0202 102.508C77.9077 102.933 78.0875 103.349 78.422 103.438C78.7565 103.527 79.1189 103.254 79.2314 102.83Z" fill="#F29111"/>
<path d="M78.7314 104.744C78.844 104.319 78.6641 103.903 78.3296 103.814C77.9952 103.725 77.6328 103.998 77.5202 104.422C77.4077 104.847 77.5875 105.263 77.922 105.352C78.2565 105.441 78.6189 105.168 78.7314 104.744Z" fill="#F29111"/>
<path d="M78.2275 106.655C78.3401 106.23 78.1602 105.814 77.8257 105.725C77.4913 105.636 77.1289 105.909 77.0163 106.333C76.9037 106.758 77.0836 107.174 77.4181 107.263C77.7526 107.352 78.115 107.08 78.2275 106.655Z" fill="#F29111"/>
<path d="M77.7158 108.564C77.8284 108.139 77.6485 107.723 77.314 107.634C76.9796 107.545 76.6172 107.818 76.5046 108.243C76.392 108.667 76.5719 109.084 76.9064 109.172C77.2409 109.261 77.6032 108.989 77.7158 108.564Z" fill="#F29111"/>
<path d="M84.3017 102.137C84.4143 101.712 84.2344 101.296 83.9 101.207C83.5655 101.119 83.2031 101.391 83.0905 101.816C82.978 102.241 83.1579 102.657 83.4923 102.746C83.8268 102.834 84.1892 102.562 84.3017 102.137Z" fill="#F29111"/>
<path d="M83.8018 104.048C83.9143 103.624 83.7344 103.207 83.4 103.119C83.0655 103.03 82.7031 103.302 82.5905 103.727C82.478 104.152 82.6579 104.568 82.9923 104.657C83.3268 104.746 83.6892 104.473 83.8018 104.048Z" fill="#F29111"/>
<path d="M83.2861 105.959C83.3987 105.534 83.2188 105.117 82.8843 105.029C82.5499 104.94 82.1875 105.212 82.0749 105.637C81.9623 106.062 82.1422 106.478 82.4767 106.567C82.8112 106.656 83.1736 106.383 83.2861 105.959Z" fill="#F29111"/>
<path d="M82.7861 107.87C82.8987 107.445 82.7188 107.029 82.3843 106.94C82.0499 106.851 81.6875 107.124 81.5749 107.548C81.4623 107.973 81.6422 108.389 81.9767 108.478C82.3112 108.567 82.6736 108.294 82.7861 107.87Z" fill="#F29111"/>
<path d="M82.2705 109.779C82.3831 109.354 82.2032 108.938 81.8687 108.849C81.5342 108.76 81.1718 109.033 81.0593 109.457C80.9467 109.882 81.1266 110.298 81.4611 110.387C81.7956 110.476 82.1579 110.204 82.2705 109.779Z" fill="#F29111"/>
<path d="M88.8643 103.342C88.9768 102.918 88.7969 102.501 88.4625 102.413C88.128 102.324 87.7656 102.596 87.653 103.021C87.5405 103.446 87.7204 103.862 88.0548 103.951C88.3893 104.039 88.7517 103.767 88.8643 103.342Z" fill="#F29111"/>
<path d="M88.3564 105.251C88.469 104.827 88.2891 104.41 87.9546 104.322C87.6202 104.233 87.2578 104.505 87.1452 104.93C87.0327 105.355 87.2125 105.771 87.547 105.86C87.8815 105.949 88.2439 105.676 88.3564 105.251Z" fill="#F29111"/>
<path d="M87.8525 107.166C87.9651 106.741 87.7852 106.325 87.4507 106.236C87.1163 106.147 86.7539 106.419 86.6413 106.844C86.5287 107.269 86.7086 107.685 87.0431 107.774C87.3776 107.863 87.74 107.59 87.8525 107.166Z" fill="#F29111"/>
<path d="M87.3408 109.074C87.4534 108.649 87.2735 108.233 86.939 108.144C86.6046 108.055 86.2422 108.328 86.1296 108.752C86.017 109.177 86.1969 109.593 86.5314 109.682C86.8659 109.771 87.2282 109.498 87.3408 109.074Z" fill="#F29111"/>
<path d="M86.8408 110.986C86.9534 110.561 86.7735 110.145 86.439 110.056C86.1046 109.967 85.7422 110.24 85.6296 110.665C85.517 111.089 85.6969 111.506 86.0314 111.594C86.3659 111.683 86.7282 111.411 86.8408 110.986Z" fill="#F29111"/>
<path d="M80.7588 103.239C80.8713 102.814 80.6914 102.398 80.357 102.309C80.0225 102.22 79.6601 102.493 79.5476 102.917C79.435 103.342 79.6149 103.758 79.9494 103.847C80.2838 103.936 80.6462 103.664 80.7588 103.239Z" fill="#F29111"/>
<path d="M80.2471 105.148C80.3596 104.723 80.1797 104.307 79.8453 104.218C79.5108 104.129 79.1484 104.402 79.0358 104.827C78.9233 105.251 79.1032 105.668 79.4376 105.756C79.7721 105.845 80.1345 105.573 80.2471 105.148Z" fill="#F29111"/>
<path d="M79.7432 107.06C79.8557 106.635 79.6758 106.219 79.3414 106.13C79.0069 106.042 78.6445 106.314 78.5319 106.739C78.4194 107.163 78.5993 107.58 78.9337 107.668C79.2682 107.757 79.6306 107.485 79.7432 107.06Z" fill="#F29111"/>
<path d="M79.2432 108.972C79.3557 108.547 79.1758 108.131 78.8414 108.042C78.5069 107.954 78.1445 108.226 78.0319 108.651C77.9194 109.076 78.0993 109.492 78.4337 109.581C78.7682 109.669 79.1306 109.397 79.2432 108.972Z" fill="#F29111"/>
<path d="M85.8252 102.533C85.9377 102.108 85.7579 101.692 85.4234 101.603C85.0889 101.514 84.7265 101.787 84.614 102.211C84.5014 102.636 84.6813 103.052 85.0158 103.141C85.3502 103.23 85.7126 102.957 85.8252 102.533Z" fill="#F29111"/>
<path d="M85.3096 104.453C85.4221 104.028 85.2422 103.612 84.9078 103.523C84.5733 103.434 84.2109 103.707 84.0983 104.131C83.9858 104.556 84.1657 104.972 84.5001 105.061C84.8346 105.15 85.197 104.877 85.3096 104.453Z" fill="#F29111"/>
<path d="M84.8096 106.365C84.9221 105.94 84.7422 105.524 84.4078 105.435C84.0733 105.346 83.7109 105.619 83.5983 106.043C83.4858 106.468 83.6657 106.884 84.0001 106.973C84.3346 107.062 84.697 106.79 84.8096 106.365Z" fill="#F29111"/>
<path d="M84.2978 108.274C84.4104 107.849 84.2305 107.433 83.896 107.344C83.5616 107.255 83.1992 107.528 83.0866 107.953C82.9741 108.377 83.154 108.794 83.4884 108.882C83.8229 108.971 84.1853 108.699 84.2978 108.274Z" fill="#F29111"/>
<path d="M83.7978 110.187C83.9104 109.762 83.7305 109.346 83.396 109.257C83.0616 109.169 82.6992 109.441 82.5866 109.866C82.4741 110.29 82.6539 110.707 82.9884 110.795C83.3229 110.884 83.6853 110.612 83.7978 110.187Z" fill="#F29111"/>
<path d="M90.8955 101.837C91.0081 101.413 90.8282 100.996 90.4937 100.908C90.1592 100.819 89.7968 101.091 89.6843 101.516C89.5717 101.941 89.7516 102.357 90.0861 102.446C90.4205 102.535 90.7829 102.262 90.8955 101.837Z" fill="#F29111"/>
<path d="M90.3799 103.748C90.4924 103.323 90.3125 102.907 89.9781 102.818C89.6436 102.729 89.2812 103.001 89.1687 103.426C89.0561 103.851 89.236 104.267 89.5705 104.356C89.9049 104.445 90.2673 104.172 90.3799 103.748Z" fill="#F29111"/>
<path d="M89.8799 105.659C89.9924 105.234 89.8125 104.818 89.4781 104.729C89.1436 104.64 88.7812 104.913 88.6687 105.337C88.5561 105.762 88.736 106.178 89.0705 106.267C89.4049 106.356 89.7673 106.083 89.8799 105.659Z" fill="#F29111"/>
<path d="M89.3682 107.568C89.4807 107.143 89.3008 106.727 88.9664 106.638C88.6319 106.549 88.2695 106.822 88.1569 107.247C88.0444 107.671 88.2243 108.088 88.5587 108.176C88.8932 108.265 89.2556 107.993 89.3682 107.568Z" fill="#F29111"/>
<path d="M88.8643 109.48C88.9768 109.055 88.7969 108.639 88.4625 108.55C88.128 108.461 87.7656 108.734 87.653 109.159C87.5405 109.583 87.7204 110 88.0548 110.088C88.3893 110.177 88.7517 109.905 88.8643 109.48Z" fill="#F29111"/>
<path d="M88.3525 111.389C88.4651 110.964 88.2852 110.548 87.9507 110.459C87.6163 110.371 87.2539 110.643 87.1413 111.068C87.0287 111.493 87.2086 111.909 87.5431 111.998C87.8776 112.086 88.24 111.814 88.3525 111.389Z" fill="#F29111"/>
<path d="M80.2549 111.287C80.3674 110.862 80.1876 110.446 79.8531 110.357C79.5186 110.268 79.1562 110.541 79.0437 110.965C78.9311 111.39 79.111 111.806 79.4455 111.895C79.7799 111.984 80.1423 111.711 80.2549 111.287Z" fill="#F29111"/>
<path d="M79.7392 113.197C79.8518 112.772 79.6719 112.356 79.3374 112.267C79.003 112.178 78.6406 112.451 78.528 112.875C78.4155 113.3 78.5954 113.716 78.9298 113.805C79.2643 113.894 79.6267 113.622 79.7392 113.197Z" fill="#F29111"/>
<path d="M84.8096 112.502C84.9221 112.078 84.7422 111.661 84.4078 111.573C84.0733 111.484 83.7109 111.756 83.5983 112.181C83.4858 112.606 83.6657 113.022 84.0001 113.111C84.3346 113.2 84.697 112.927 84.8096 112.502Z" fill="#F29111"/>
<path d="M84.3057 114.416C84.4182 113.991 84.2383 113.575 83.9039 113.486C83.5694 113.397 83.207 113.669 83.0944 114.094C82.9819 114.519 83.1618 114.935 83.4962 115.024C83.8307 115.113 84.1931 114.84 84.3057 114.416Z" fill="#F29111"/>
<path d="M89.3642 113.706C89.4768 113.281 89.2969 112.865 88.9625 112.776C88.628 112.687 88.2656 112.959 88.153 113.384C88.0405 113.809 88.2204 114.225 88.5548 114.314C88.8893 114.403 89.2517 114.13 89.3642 113.706Z" fill="#F29111"/>
<path d="M77.2158 110.476C77.3284 110.051 77.1485 109.635 76.814 109.546C76.4795 109.458 76.1172 109.73 76.0046 110.155C75.892 110.579 76.0719 110.996 76.4064 111.084C76.7409 111.173 77.1032 110.901 77.2158 110.476Z" fill="#F29111"/>
<path d="M76.6963 112.397C76.8088 111.972 76.6289 111.556 76.2945 111.467C75.96 111.378 75.5976 111.651 75.4851 112.076C75.3725 112.5 75.5524 112.917 75.8869 113.005C76.2213 113.094 76.5837 112.822 76.6963 112.397Z" fill="#F29111"/>
<path d="M81.7705 111.691C81.8831 111.266 81.7032 110.85 81.3687 110.761C81.0342 110.672 80.6718 110.945 80.5593 111.37C80.4467 111.794 80.6266 112.211 80.9611 112.299C81.2955 112.388 81.6579 112.116 81.7705 111.691Z" fill="#F29111"/>
<path d="M81.2705 113.604C81.3831 113.179 81.2032 112.763 80.8687 112.674C80.5342 112.586 80.1718 112.858 80.0593 113.283C79.9467 113.707 80.1266 114.124 80.4611 114.212C80.7955 114.301 81.1579 114.029 81.2705 113.604Z" fill="#F29111"/>
<path d="M86.3291 112.895C86.4417 112.47 86.2618 112.054 85.9273 111.965C85.5928 111.877 85.2304 112.149 85.1179 112.574C85.0053 112.998 85.1852 113.415 85.5197 113.503C85.8541 113.592 86.2165 113.32 86.3291 112.895Z" fill="#F29111"/>
<path d="M85.8252 114.806C85.9377 114.381 85.7579 113.965 85.4234 113.876C85.0889 113.788 84.7265 114.06 84.614 114.485C84.5014 114.91 84.6813 115.326 85.0158 115.415C85.3502 115.503 85.7126 115.231 85.8252 114.806Z" fill="#F29111"/>
<path d="M78.7314 110.88C78.844 110.456 78.6641 110.039 78.3296 109.951C77.9952 109.862 77.6328 110.134 77.5202 110.559C77.4077 110.984 77.5875 111.4 77.922 111.489C78.2565 111.578 78.6189 111.305 78.7314 110.88Z" fill="#F29111"/>
<path d="M78.2275 112.793C78.3401 112.369 78.1602 111.952 77.8257 111.864C77.4913 111.775 77.1289 112.047 77.0163 112.472C76.9037 112.897 77.0836 113.313 77.4181 113.402C77.7526 113.491 78.115 113.218 78.2275 112.793Z" fill="#F29111"/>
<path d="M83.2939 112.099C83.4065 111.674 83.2266 111.258 82.8921 111.169C82.5577 111.081 82.1953 111.353 82.0827 111.778C81.9702 112.203 82.15 112.619 82.4845 112.708C82.819 112.796 83.1814 112.524 83.2939 112.099Z" fill="#F29111"/>
<path d="M82.7822 114.008C82.8948 113.584 82.7149 113.167 82.3804 113.079C82.046 112.99 81.6836 113.262 81.571 113.687C81.4584 114.112 81.6383 114.528 81.9728 114.617C82.3073 114.705 82.6697 114.433 82.7822 114.008Z" fill="#F29111"/>
<path d="M87.8525 113.302C87.9651 112.878 87.7852 112.461 87.4507 112.372C87.1163 112.284 86.7539 112.556 86.6413 112.981C86.5287 113.406 86.7086 113.822 87.0431 113.911C87.3776 113.999 87.74 113.727 87.8525 113.302Z" fill="#F29111"/>
</g>
<mask id="mask1_3036_4271" style="mask-type:luminance" maskUnits="userSpaceOnUse" x="56" y="96" width="14" height="13">
<path d="M60.4059 108.246C63.9362 109.186 67.9243 105.666 69.322 100.386L56.5624 96.998C55.1527 102.278 56.8756 107.306 60.4059 108.246Z" fill="white"/>
</mask>
<g mask="url(#mask1_3036_4271)">
<path d="M57.7404 97.1102C57.853 96.6855 57.7148 96.2803 57.4318 96.2052C57.1488 96.1301 56.8281 96.4136 56.7155 96.8383C56.603 97.2631 56.7411 97.6683 57.0242 97.7434C57.3072 97.8185 57.6278 97.535 57.7404 97.1102Z" fill="#F29111"/>
<path d="M57.2365 99.0331C57.3491 98.6083 57.2109 98.2031 56.9279 98.1281C56.6449 98.053 56.3242 98.3364 56.2116 98.7612C56.0991 99.1859 56.2372 99.5911 56.5203 99.6662C56.8033 99.7413 57.1239 99.4578 57.2365 99.0331Z" fill="#F29111"/>
<path d="M56.7248 100.942C56.8373 100.518 56.6992 100.112 56.4162 100.037C56.1332 99.9621 55.8125 100.246 55.6999 100.67C55.5873 101.095 55.7255 101.5 56.0085 101.575C56.2915 101.65 56.6122 101.367 56.7248 100.942Z" fill="#F29111"/>
<path d="M56.2209 102.855C56.3334 102.431 56.1953 102.025 55.9122 101.95C55.6292 101.875 55.3086 102.159 55.196 102.583C55.0834 103.008 55.2216 103.413 55.5046 103.488C55.7876 103.564 56.1083 103.28 56.2209 102.855Z" fill="#F29111"/>
<path d="M61.5646 98.1347C61.6772 97.7099 61.539 97.3047 61.256 97.2296C60.973 97.1545 60.6523 97.438 60.5398 97.8628C60.4272 98.2875 60.5654 98.6927 60.8484 98.7678C61.1314 98.8429 61.4521 98.5594 61.5646 98.1347Z" fill="#F29111"/>
<path d="M61.0607 100.047C61.1733 99.622 61.0351 99.2168 60.7521 99.1417C60.4691 99.0666 60.1484 99.3501 60.0358 99.7749C59.9233 100.2 60.0615 100.605 60.3445 100.68C60.6275 100.755 60.9482 100.472 61.0607 100.047Z" fill="#F29111"/>
<path d="M60.5529 101.955C60.6655 101.53 60.5273 101.125 60.2443 101.05C59.9613 100.975 59.6406 101.258 59.528 101.683C59.4155 102.108 59.5536 102.513 59.8367 102.588C60.1197 102.663 60.4403 102.38 60.5529 101.955Z" fill="#F29111"/>
<path d="M60.049 103.868C60.1616 103.443 60.0234 103.038 59.7404 102.963C59.4574 102.888 59.1367 103.171 59.0241 103.596C58.9116 104.021 59.0497 104.426 59.3328 104.501C59.6158 104.576 59.9364 104.293 60.049 103.868Z" fill="#F29111"/>
<path d="M65.9045 97.2382C66.017 96.8134 65.8789 96.4082 65.5958 96.3331C65.3128 96.258 64.9922 96.5415 64.8796 96.9663C64.767 97.391 64.9052 97.7962 65.1882 97.8713C65.4712 97.9464 65.7919 97.6629 65.9045 97.2382Z" fill="#F29111"/>
<path d="M65.4045 99.1503C65.517 98.7255 65.3789 98.3203 65.0958 98.2452C64.8128 98.1702 64.4922 98.4536 64.3796 98.8784C64.267 99.3031 64.4052 99.7083 64.6882 99.7834C64.9712 99.8585 65.2919 99.575 65.4045 99.1503Z" fill="#F29111"/>
<path d="M64.8888 101.059C65.0014 100.635 64.8632 100.23 64.5802 100.154C64.2972 100.079 63.9765 100.363 63.864 100.788C63.7514 101.212 63.8896 101.618 64.1726 101.693C64.4556 101.768 64.7763 101.484 64.8888 101.059Z" fill="#F29111"/>
<path d="M64.3888 102.973C64.5014 102.548 64.3632 102.143 64.0802 102.068C63.7972 101.992 63.4765 102.276 63.364 102.701C63.2514 103.125 63.3896 103.531 63.6726 103.606C63.9556 103.681 64.2763 103.397 64.3888 102.973Z" fill="#F29111"/>
<path d="M63.8771 104.881C63.9897 104.456 63.8515 104.051 63.5685 103.976C63.2855 103.901 62.9648 104.184 62.8523 104.609C62.7397 105.034 62.8779 105.439 63.1609 105.514C63.4439 105.589 63.7646 105.305 63.8771 104.881Z" fill="#F29111"/>
<path d="M70.2443 96.3407C70.3569 95.916 70.2187 95.5108 69.9357 95.4357C69.6527 95.3606 69.332 95.644 69.2194 96.0688C69.1069 96.4936 69.245 96.8988 69.5281 96.9738C69.8111 97.0489 70.1317 96.7655 70.2443 96.3407Z" fill="#F29111"/>
<path d="M69.7326 98.2509C69.8452 97.8261 69.707 97.4209 69.424 97.3458C69.141 97.2707 68.8203 97.5542 68.7077 97.979C68.5952 98.4037 68.7333 98.8089 69.0163 98.884C69.2994 98.9591 69.62 98.6756 69.7326 98.2509Z" fill="#F29111"/>
<path d="M69.2326 100.163C69.3452 99.7382 69.207 99.333 68.924 99.2579C68.641 99.1828 68.3203 99.4663 68.2077 99.8911C68.0952 100.316 68.2333 100.721 68.5163 100.796C68.7993 100.871 69.12 100.588 69.2326 100.163Z" fill="#F29111"/>
<path d="M68.717 102.072C68.8295 101.647 68.6914 101.242 68.4083 101.167C68.1253 101.092 67.8047 101.375 67.6921 101.8C67.5795 102.225 67.7177 102.63 68.0007 102.705C68.2837 102.78 68.6044 102.497 68.717 102.072Z" fill="#F29111"/>
<path d="M68.217 103.984C68.3295 103.56 68.1914 103.154 67.9083 103.079C67.6253 103.004 67.3047 103.288 67.1921 103.712C67.0795 104.137 67.2177 104.542 67.5007 104.617C67.7837 104.692 68.1044 104.409 68.217 103.984Z" fill="#F29111"/>
<path d="M67.717 105.895C67.8295 105.471 67.6914 105.065 67.4083 104.99C67.1253 104.915 66.8047 105.199 66.6921 105.623C66.5795 106.048 66.7177 106.453 67.0007 106.529C67.2837 106.604 67.6044 106.32 67.717 105.895Z" fill="#F29111"/>
<path d="M59.0138 97.4589C59.1264 97.0341 58.9882 96.6289 58.7052 96.5538C58.4222 96.4787 58.1015 96.7622 57.989 97.187C57.8764 97.6117 58.0146 98.0169 58.2976 98.092C58.5806 98.1671 58.9013 97.8836 59.0138 97.4589Z" fill="#F29111"/>
<path d="M58.5138 99.371C58.6264 98.9462 58.4882 98.541 58.2052 98.4659C57.9222 98.3909 57.6015 98.6743 57.489 99.0991C57.3764 99.5238 57.5146 99.929 57.7976 100.004C58.0806 100.079 58.4013 99.7957 58.5138 99.371Z" fill="#F29111"/>
<path d="M57.9982 101.28C58.1108 100.855 57.9726 100.45 57.6896 100.375C57.4066 100.3 57.0859 100.583 56.9733 101.008C56.8608 101.433 56.999 101.838 57.282 101.913C57.565 101.988 57.8857 101.705 57.9982 101.28Z" fill="#F29111"/>
<path d="M57.4982 103.192C57.6108 102.768 57.4726 102.362 57.1896 102.287C56.9066 102.212 56.5859 102.496 56.4733 102.92C56.3608 103.345 56.499 103.75 56.782 103.825C57.065 103.9 57.3857 103.617 57.4982 103.192Z" fill="#F29111"/>
<path d="M63.3537 96.5634C63.4662 96.1386 63.3281 95.7334 63.0451 95.6583C62.7621 95.5832 62.4414 95.8667 62.3288 96.2915C62.2162 96.7162 62.3544 97.1214 62.6374 97.1965C62.9205 97.2716 63.2411 96.9881 63.3537 96.5634Z" fill="#F29111"/>
<path d="M62.842 98.4716C62.9545 98.0468 62.8164 97.6416 62.5333 97.5665C62.2503 97.4914 61.9297 97.7749 61.8171 98.1997C61.7045 98.6244 61.8427 99.0296 62.1257 99.1047C62.4087 99.1798 62.7294 98.8963 62.842 98.4716Z" fill="#F29111"/>
<path d="M62.3381 100.384C62.4506 99.9589 62.3124 99.5537 62.0294 99.4786C61.7464 99.4035 61.4258 99.687 61.3132 100.112C61.2006 100.537 61.3388 100.942 61.6218 101.017C61.9048 101.092 62.2255 100.808 62.3381 100.384Z" fill="#F29111"/>
<path d="M61.8381 102.297C61.9506 101.872 61.8125 101.467 61.5294 101.392C61.2464 101.317 60.9258 101.6 60.8132 102.025C60.7006 102.45 60.8388 102.855 61.1218 102.93C61.4048 103.005 61.7255 102.722 61.8381 102.297Z" fill="#F29111"/>
<path d="M61.3263 104.206C61.4389 103.781 61.3007 103.376 61.0177 103.301C60.7347 103.226 60.414 103.509 60.3015 103.934C60.1889 104.359 60.3271 104.764 60.6101 104.839C60.8931 104.914 61.2138 104.631 61.3263 104.206Z" fill="#F29111"/>
<path d="M67.1779 97.5761C67.2905 97.1513 67.1523 96.7461 66.8693 96.671C66.5863 96.5959 66.2656 96.8794 66.153 97.3042C66.0405 97.7289 66.1786 98.1341 66.4617 98.2092C66.7447 98.2843 67.0653 98.0008 67.1779 97.5761Z" fill="#F29111"/>
<path d="M66.6779 99.4882C66.7905 99.0634 66.6523 98.6582 66.3693 98.5831C66.0863 98.508 65.7656 98.7915 65.653 99.2163C65.5405 99.641 65.6786 100.046 65.9617 100.121C66.2447 100.196 66.5653 99.9129 66.6779 99.4882Z" fill="#F29111"/>
<path d="M66.1662 101.397C66.2788 100.973 66.1406 100.567 65.8576 100.492C65.5746 100.417 65.2539 100.701 65.1413 101.125C65.0288 101.55 65.1669 101.955 65.4499 102.03C65.733 102.106 66.0536 101.822 66.1662 101.397Z" fill="#F29111"/>
<path d="M65.6623 103.309C65.7748 102.885 65.6367 102.48 65.3537 102.404C65.0706 102.329 64.75 102.613 64.6374 103.038C64.5248 103.462 64.663 103.868 64.946 103.943C65.229 104.018 65.5497 103.734 65.6623 103.309Z" fill="#F29111"/>
<path d="M65.1545 105.219C65.267 104.794 65.1289 104.389 64.8458 104.314C64.5628 104.239 64.2422 104.522 64.1296 104.947C64.017 105.371 64.1552 105.777 64.4382 105.852C64.7212 105.927 65.0419 105.643 65.1545 105.219Z" fill="#F29111"/>
<path d="M60.2912 97.7977C60.4038 97.373 60.2656 96.9678 59.9826 96.8927C59.6995 96.8176 59.3789 97.1011 59.2663 97.5258C59.1538 97.9506 59.2919 98.3558 59.5749 98.4309C59.8579 98.506 60.1786 98.2225 60.2912 97.7977Z" fill="#F29111"/>
<path d="M59.7912 99.7089C59.9038 99.2841 59.7656 98.8789 59.4826 98.8038C59.1996 98.7287 58.8789 99.0122 58.7663 99.437C58.6538 99.8617 58.7919 100.267 59.0749 100.342C59.358 100.417 59.6786 100.134 59.7912 99.7089Z" fill="#F29111"/>
<path d="M59.2795 101.618C59.392 101.193 59.2539 100.788 58.9708 100.713C58.6878 100.638 58.3672 100.921 58.2546 101.346C58.142 101.771 58.2802 102.176 58.5632 102.251C58.8462 102.326 59.1669 102.043 59.2795 101.618Z" fill="#F29111"/>
<path d="M58.7756 103.531C58.8881 103.106 58.75 102.701 58.4669 102.626C58.1839 102.551 57.8633 102.834 57.7507 103.259C57.6381 103.684 57.7763 104.089 58.0593 104.164C58.3423 104.239 58.663 103.956 58.7756 103.531Z" fill="#F29111"/>
<path d="M64.631 96.9012C64.7436 96.4765 64.6054 96.0713 64.3224 95.9962C64.0394 95.9211 63.7187 96.2046 63.6062 96.6293C63.4936 97.0541 63.6318 97.4593 63.9148 97.5344C64.1978 97.6095 64.5185 97.326 64.631 96.9012Z" fill="#F29111"/>
<path d="M64.1271 98.8134C64.2397 98.3886 64.1015 97.9834 63.8185 97.9083C63.5355 97.8332 63.2148 98.1167 63.1023 98.5415C62.9897 98.9662 63.1279 99.3714 63.4109 99.4465C63.6939 99.5216 64.0146 99.2381 64.1271 98.8134Z" fill="#F29111"/>
<path d="M63.6154 100.723C63.728 100.298 63.5898 99.8926 63.3068 99.8175C63.0238 99.7424 62.7031 100.026 62.5905 100.451C62.478 100.875 62.6161 101.281 62.8992 101.356C63.1822 101.431 63.5028 101.147 63.6154 100.723Z" fill="#F29111"/>
<path d="M63.1154 102.634C63.228 102.209 63.0898 101.804 62.8068 101.729C62.5238 101.654 62.2031 101.937 62.0905 102.362C61.978 102.787 62.1161 103.192 62.3992 103.267C62.6822 103.342 63.0028 103.058 63.1154 102.634Z" fill="#F29111"/>
<path d="M62.5998 104.543C62.7123 104.118 62.5742 103.713 62.2912 103.638C62.0081 103.563 61.6875 103.846 61.5749 104.271C61.4623 104.696 61.6005 105.101 61.8835 105.176C62.1665 105.251 62.4872 104.968 62.5998 104.543Z" fill="#F29111"/>
<path d="M68.4513 97.913C68.5639 97.4882 68.4257 97.083 68.1427 97.0079C67.8597 96.9328 67.539 97.2163 67.4265 97.6411C67.3139 98.0658 67.4521 98.471 67.7351 98.5461C68.0181 98.6212 68.3388 98.3377 68.4513 97.913Z" fill="#F29111"/>
<path d="M67.9553 99.8251C68.0678 99.4003 67.9296 98.9951 67.6466 98.92C67.3636 98.845 67.0429 99.1284 66.9304 99.5532C66.8178 99.9779 66.956 100.383 67.239 100.458C67.522 100.533 67.8427 100.25 67.9553 99.8251Z" fill="#F29111"/>
<path d="M67.4396 101.734C67.5522 101.31 67.414 100.904 67.131 100.829C66.848 100.754 66.5273 101.038 66.4148 101.462C66.3022 101.887 66.4404 102.292 66.7234 102.367C67.0064 102.442 67.3271 102.159 67.4396 101.734Z" fill="#F29111"/>
<path d="M66.9357 103.645C67.0483 103.221 66.9101 102.815 66.6271 102.74C66.3441 102.665 66.0234 102.949 65.9108 103.373C65.7983 103.798 65.9365 104.203 66.2195 104.279C66.5025 104.354 66.8232 104.07 66.9357 103.645Z" fill="#F29111"/>
<path d="M66.424 105.556C66.5366 105.131 66.3984 104.726 66.1154 104.651C65.8324 104.575 65.5117 104.859 65.3991 105.284C65.2866 105.708 65.4247 106.114 65.7078 106.189C65.9908 106.264 66.3114 105.98 66.424 105.556Z" fill="#F29111"/>
<path d="M59.5451 105.779C59.6577 105.354 59.5195 104.949 59.2365 104.874C58.9535 104.799 58.6328 105.083 58.5202 105.507C58.4077 105.932 58.5458 106.337 58.8288 106.412C59.1119 106.487 59.4325 106.204 59.5451 105.779Z" fill="#F29111"/>
<path d="M59.0373 107.688C59.1498 107.264 59.0117 106.858 58.7287 106.783C58.4456 106.708 58.125 106.992 58.0124 107.416C57.8998 107.841 58.038 108.246 58.321 108.321C58.604 108.397 58.9247 108.113 59.0373 107.688Z" fill="#F29111"/>
<path d="M63.3732 106.794C63.4858 106.369 63.3476 105.964 63.0646 105.889C62.7816 105.814 62.4609 106.097 62.3483 106.522C62.2358 106.947 62.374 107.352 62.657 107.427C62.94 107.502 63.2607 107.219 63.3732 106.794Z" fill="#F29111"/>
<path d="M62.8615 108.702C62.9741 108.277 62.8359 107.872 62.5529 107.797C62.2699 107.722 61.9492 108.005 61.8366 108.43C61.7241 108.855 61.8622 109.26 62.1452 109.335C62.4283 109.41 62.7489 109.127 62.8615 108.702Z" fill="#F29111"/>
<path d="M67.2013 107.806C67.3139 107.381 67.1757 106.976 66.8927 106.901C66.6097 106.825 66.289 107.109 66.1765 107.534C66.0639 107.958 66.2021 108.364 66.4851 108.439C66.7681 108.514 67.0888 108.23 67.2013 107.806Z" fill="#F29111"/>
<path d="M56.9826 105.101C57.0952 104.677 56.957 104.271 56.674 104.196C56.391 104.121 56.0703 104.405 55.9577 104.83C55.8452 105.254 55.9833 105.66 56.2663 105.735C56.5494 105.81 56.87 105.526 56.9826 105.101Z" fill="#F29111"/>
<path d="M56.4826 107.013C56.5952 106.588 56.457 106.183 56.174 106.108C55.891 106.032 55.5703 106.316 55.4577 106.741C55.3452 107.165 55.4833 107.571 55.7663 107.646C56.0493 107.721 56.37 107.437 56.4826 107.013Z" fill="#F29111"/>
<path d="M60.8224 106.118C60.935 105.693 60.7968 105.288 60.5138 105.213C60.2308 105.138 59.9101 105.421 59.7976 105.846C59.685 106.271 59.8232 106.676 60.1062 106.751C60.3892 106.826 60.7099 106.543 60.8224 106.118Z" fill="#F29111"/>
<path d="M60.3107 108.027C60.4233 107.602 60.2851 107.197 60.0021 107.122C59.7191 107.047 59.3984 107.331 59.2858 107.755C59.1733 108.18 59.3115 108.585 59.5945 108.66C59.8775 108.735 60.1982 108.452 60.3107 108.027Z" fill="#F29111"/>
<path d="M64.6506 107.13C64.7631 106.705 64.6249 106.3 64.3419 106.225C64.0589 106.15 63.7383 106.433 63.6257 106.858C63.5131 107.283 63.6513 107.688 63.9343 107.763C64.2173 107.838 64.538 107.555 64.6506 107.13Z" fill="#F29111"/>
<path d="M64.1467 109.042C64.2592 108.617 64.121 108.212 63.838 108.137C63.555 108.062 63.2343 108.345 63.1218 108.77C63.0092 109.195 63.1474 109.6 63.4304 109.675C63.7134 109.75 64.0341 109.467 64.1467 109.042Z" fill="#F29111"/>
<path d="M58.2599 105.44C58.3725 105.016 58.2343 104.61 57.9513 104.535C57.6683 104.46 57.3476 104.744 57.2351 105.168C57.1225 105.593 57.2607 105.998 57.5437 106.073C57.8267 106.149 58.1474 105.865 58.2599 105.44Z" fill="#F29111"/>
<path d="M57.7638 107.352C57.8764 106.928 57.7382 106.522 57.4552 106.447C57.1722 106.372 56.8515 106.656 56.739 107.081C56.6264 107.505 56.7646 107.91 57.0476 107.986C57.3306 108.061 57.6513 107.777 57.7638 107.352Z" fill="#F29111"/>
<path d="M62.0959 106.455C62.2084 106.03 62.0703 105.625 61.7873 105.55C61.5042 105.475 61.1836 105.758 61.071 106.183C60.9584 106.608 61.0966 107.013 61.3796 107.088C61.6626 107.163 61.9833 106.88 62.0959 106.455Z" fill="#F29111"/>
<path d="M61.5841 108.364C61.6967 107.939 61.5585 107.534 61.2755 107.459C60.9925 107.384 60.6718 107.667 60.5593 108.092C60.4467 108.517 60.5849 108.922 60.8679 108.997C61.1509 109.072 61.4716 108.789 61.5841 108.364Z" fill="#F29111"/>
<path d="M65.924 107.468C66.0366 107.043 65.8984 106.638 65.6154 106.563C65.3324 106.488 65.0117 106.771 64.8991 107.196C64.7866 107.621 64.9247 108.026 65.2078 108.101C65.4908 108.176 65.8114 107.892 65.924 107.468Z" fill="#F29111"/>
<path d="M65.4201 109.38C65.5326 108.955 65.3945 108.55 65.1115 108.475C64.8285 108.4 64.5078 108.683 64.3952 109.108C64.2827 109.533 64.4208 109.938 64.7038 110.013C64.9869 110.088 65.3075 109.805 65.4201 109.38Z" fill="#F29111"/>
</g>
<path fill-rule="evenodd" clip-rule="evenodd" d="M61.626 115.348C61.2621 116.726 62.2308 118.272 63.9329 118.714C65.6357 119.156 67.2338 118.279 67.5877 116.902L68.5187 117.141C68.0051 119.14 65.7958 120.191 63.6913 119.645C61.586 119.098 60.169 117.1 60.6967 115.103L61.626 115.348Z" fill="#FF9100"/>
<path fill-rule="evenodd" clip-rule="evenodd" d="M68.5166 117.131C68.1527 118.509 69.1214 120.056 70.8235 120.498C72.5264 120.94 74.1245 120.062 74.4784 118.685L75.4093 118.924C74.8957 120.923 72.6864 121.974 70.5819 121.428C68.4766 120.881 67.0596 118.884 67.5873 116.886L68.5166 117.131Z" fill="#FF9100"/>
<path d="M21.8561 111.343L21.579 112.97L20.9766 112.862L21.2537 111.234L21.8561 111.343Z" fill="#D83030"/>
<path d="M21.2917 110.463C20.9303 110.403 20.5929 110.644 20.5327 111.006C20.4724 111.367 20.7134 111.705 21.0628 111.765L21.858 111.898C22.2195 111.958 22.5569 111.717 22.6051 111.367C22.6653 111.006 22.4243 110.668 22.0749 110.608L21.2917 110.463Z" fill="white"/>
<path d="M19.0827 110.873L18.8056 112.501L18.2031 112.392L18.4802 110.765L19.0827 110.873Z" fill="#D83030"/>
<path d="M18.5339 109.981C18.1725 109.921 17.8351 110.162 17.7749 110.511C17.7146 110.873 17.9556 111.211 18.305 111.271L19.1002 111.403C19.4617 111.464 19.7991 111.223 19.8593 110.873C19.9195 110.511 19.6786 110.174 19.3171 110.114L18.5339 109.981Z" fill="white"/>
<path d="M16.3171 110.403L16.0399 112.031L15.4375 111.922L15.7146 110.295L16.3171 110.403Z" fill="#D83030"/>
<path d="M15.7719 109.511C15.4104 109.451 15.0731 109.692 15.0249 110.042C14.9646 110.403 15.2056 110.741 15.555 110.801L16.3502 110.934C16.7117 110.994 17.049 110.753 17.1093 110.403C17.1695 110.042 16.9286 109.704 16.5791 109.656L15.7719 109.511Z" fill="white"/>
<path d="M13.5514 109.933L13.2743 111.56L12.6719 111.452L12.949 109.824L13.5514 109.933Z" fill="#D83030"/>
<path d="M13.0141 109.04C12.6526 108.98 12.3152 109.221 12.2671 109.571C12.2068 109.933 12.4478 110.27 12.7972 110.33L13.5924 110.463C13.9539 110.523 14.2912 110.282 14.3394 109.933C14.3997 109.571 14.1587 109.233 13.8093 109.185L13.0141 109.04Z" fill="white"/>
<path d="M10.7975 109.462L10.5204 111.09L9.91797 110.981L10.1951 109.354L10.7975 109.462Z" fill="#D83030"/>
<path d="M10.241 108.571C9.8795 108.51 9.54214 108.752 9.4819 109.113C9.42165 109.475 9.66263 109.812 10.012 109.861L10.8073 109.993C11.1687 110.054 11.5061 109.812 11.5543 109.463C11.6145 109.101 11.3735 108.764 11.0121 108.703L10.241 108.571Z" fill="white"/>
<path d="M8.04753 108.981L7.7704 110.608L7.16797 110.5L7.44509 108.872L8.04753 108.981Z" fill="#D83030"/>
<path d="M7.48315 108.088C7.12169 108.028 6.78433 108.269 6.72408 108.619C6.66384 108.98 6.90481 109.318 7.25423 109.378L8.04944 109.511C8.4109 109.571 8.74827 109.33 8.80851 108.98C8.86875 108.619 8.62778 108.281 8.27837 108.233L7.48315 108.088Z" fill="white"/>
<path d="M65.582 126.063C66.9676 123.338 73.0643 122.555 78.667 126.979C83.9322 131.138 84.0166 134.2 90.4024 137.733C96.7882 141.265 101.114 137.925 108.536 140.867C116.235 143.917 120.801 152.573 112.777 167.088C104.752 181.603 93.1375 183.338 85.7757 175.068C81.8599 170.668 81.7876 164.086 74.3053 163.266C68.5219 162.627 65.6543 161.892 63.3892 159.927C61.124 157.95 60.6059 156.443 61.3891 155.044C62.7145 152.633 68.2207 157.721 70.7389 153.188C72.5824 149.86 71.5221 147.751 69.3292 146.485L68.9677 140.083L69.3774 139.348C69.3774 139.348 71.5221 139.348 73.1125 136.479C74.7029 133.61 71.7148 130.74 69.1123 129.86C66.5098 128.956 64.6784 127.859 65.582 126.063Z" fill="#D83030"/>
<path d="M74.594 142.711C74.341 141.132 74.9193 139.288 75.7266 139.252C76.5339 139.203 77.4978 139.854 79.3412 141.458C81.1847 143.061 84.3655 144.773 88.3898 145.183C92.4141 145.593 94.0045 145.641 96.4745 146.931C98.9445 148.221 101.463 150.306 98.824 155.092C96.1853 159.866 92.643 163.121 92.7153 167.63C92.7876 172.139 92.7876 172.585 92.7032 174.225C92.5828 176.624 90.2574 176.985 88.0284 175.105C85.6307 173.067 84.2691 169.535 83.004 167.473C81.751 165.412 79.2207 162.362 73.7265 161.554C68.2323 160.746 67.919 160.939 65.8949 159.734C63.8707 158.528 63.3646 157.431 63.5694 157.082C63.7622 156.732 68.8829 158.998 71.7264 155.852C75.7507 151.379 75.076 145.665 74.594 142.711Z" fill="white"/>
<path d="M78.8003 156.419C79.3545 156.551 79.9208 156.226 80.0533 155.659L82.5715 145.557C82.704 145.002 82.3787 144.436 81.8124 144.303C81.2582 144.17 80.6919 144.496 80.5594 145.062L78.0412 155.177C77.9087 155.719 78.234 156.286 78.8003 156.419Z" fill="#2E2E2E"/>
<path d="M87.1128 160.108C87.667 160.241 88.2333 159.915 88.3658 159.349L90.884 149.246C91.0165 148.692 90.6912 148.125 90.1249 147.992C89.5707 147.86 89.0044 148.185 88.8719 148.752L86.3537 158.854C86.2212 159.409 86.5465 159.976 87.1128 160.108Z" fill="#2E2E2E"/>
<path d="M74.487 150.197C76.7762 148.763 78.1377 146.303 78.1377 143.603C59.2574 133.657 41.1964 124.17 23.9787 115.128C23.1956 116.55 22.4004 117.973 21.6172 119.396C38.4011 129.209 56.0283 139.48 74.487 150.197Z" fill="#9D6240"/>
<path d="M23.9653 115.129C23.6399 114.948 23.2182 114.43 23.1218 113.61C23.0255 112.79 22.9893 112.61 22.4351 112.429C21.8808 112.248 8.27782 109.861 6.97656 109.692C5.66325 109.511 4.77164 110.174 4.15715 111.633C3.55472 113.092 3.97643 114.346 5.10901 114.756C6.24159 115.165 7.27778 113.695 9.25377 115.238C11.2418 116.781 15.2179 120.217 17.1939 120.602C17.8566 120.735 20.3145 118.698 21.5917 119.409L23.9653 115.129Z" fill="#2E2E2E"/>
<path d="M96.5245 164.87C97.3679 165.328 98.4161 165.027 98.886 164.195L102.669 157.36C103.139 156.516 102.826 155.467 101.995 154.997L100.223 154.02C99.38 153.55 98.3318 153.863 97.8619 154.695L94.0786 161.531C93.6087 162.375 93.922 163.423 94.7533 163.894L96.5245 164.87Z" fill="#B22222"/>
<path d="M95.6573 164.388C96.5007 164.846 97.5489 164.544 98.0188 163.713L101.802 156.877C102.272 156.033 101.959 154.984 101.127 154.514L99.3563 153.538C98.5128 153.068 97.4646 153.381 96.9947 154.213L93.2114 161.048C92.7415 161.892 93.0548 162.941 93.8861 163.411L95.6573 164.388Z" fill="#2E2E2E"/>
<path d="M24.9052 115.635L25.1582 115.779L22.7726 120.095L22.5195 119.951L24.9052 115.635Z" fill="#240909"/>
<path d="M28.9039 117.721L29.1569 117.865L26.6749 122.35L26.4219 122.205L28.9039 117.721Z" fill="#240909"/>
<path d="M32.9066 119.831L33.1596 119.976L30.5811 124.641L30.3281 124.497L32.9066 119.831Z" fill="#240909"/>
<path d="M34.4952 126.908L37.17 122.073L36.917 121.929L34.2422 126.763L34.4952 126.908Z" fill="#240909"/>
<path d="M40.904 124.026L41.157 124.171L38.3858 129.174L38.1328 129.029L40.904 124.026Z" fill="#240909"/>
<path d="M44.9028 126.124L45.1558 126.269L42.2882 131.441L42.0352 131.296L44.9028 126.124Z" fill="#240909"/>
<path d="M48.9051 128.245L49.1581 128.39L46.2061 133.742L45.9531 133.598L48.9051 128.245Z" fill="#240909"/>
<path d="M52.9077 130.343L53.1607 130.487L50.1124 136.009L49.8594 135.864L52.9077 130.343Z" fill="#240909"/>
<path d="M56.9103 132.452L57.1634 132.597L54.0186 138.287L53.7656 138.142L56.9103 132.452Z" fill="#240909"/>
<path d="M60.9091 134.55L61.1621 134.694L57.921 140.553L57.668 140.409L60.9091 134.55Z" fill="#240909"/>
<path d="M64.9039 136.647L65.1569 136.792L61.8194 142.832L61.5664 142.687L64.9039 136.647Z" fill="#240909"/>
<path d="M65.7416 145.098L69.1635 138.89L68.9104 138.745L65.4766 144.954L65.7416 145.098Z" fill="#240909"/>
<path d="M72.9053 140.867L73.1583 141.012L69.628 147.389L69.375 147.245L72.9053 140.867Z" fill="#240909"/>
<path d="M73.546 149.656L77.1727 143.11L76.9196 142.965L73.293 149.511L73.546 149.656Z" fill="#240909"/>
<path d="M96.9548 154.284L97.0151 154.152L23.6504 115.683L23.5781 115.803L96.9548 154.284Z" fill="white"/>
<path d="M23.2559 116.442L96.4037 155.285L96.3314 155.418L23.1836 116.575L23.2559 116.442Z" fill="white"/>
<path d="M95.5848 156.744L95.6571 156.612L22.9551 116.949L22.8828 117.07L95.5848 156.744Z" fill="white"/>
<path d="M94.9799 157.854L22.6153 117.589L22.543 117.709L94.9076 157.975L94.9799 157.854Z" fill="white"/>
<path d="M94.2952 159.083L22.2559 118.227L22.1836 118.359L94.2229 159.227L94.2952 159.083Z" fill="white"/>
<path d="M93.618 160.313L21.916 118.854L21.8438 118.975L93.5457 160.434L93.618 160.313Z" fill="white"/>
<path d="M30.9173 123.118C30.6624 122.636 30.8445 121.958 31.2815 121.797L35.7 120.082C36.5012 119.773 37.3388 120.366 37.5816 121.402L39.5359 129.856C39.7787 130.892 39.3174 131.991 38.5284 132.299L36.2099 133.2L30.9173 123.118Z" fill="#F29111"/>
<g filter="url(#filter4_d_3036_4271)">
<path d="M114.911 134.477L119.489 138.311C120.044 138.781 120.357 139.492 120.345 140.264L120.236 146.183C120.212 147.365 119.429 148.437 118.345 148.775L95.9101 155.731C94.6811 156.117 93.4401 155.454 93.0425 154.224L92.7292 153.248C92.2111 151.656 92.7774 149.824 94.1148 148.751L111.935 134.501C112.839 133.778 114.068 133.766 114.911 134.477Z" fill="white"/>
<path d="M94.1031 148.764L105.308 139.818L104.67 153.019L95.8984 155.744C94.6694 156.129 93.4284 155.466 93.0308 154.237L92.7175 153.26C92.1994 151.657 92.7657 149.824 94.1031 148.764Z" fill="#F29111"/>
</g>
<path d="M26.3309 82.1337C26.0417 81.8925 25.6803 81.772 25.3188 81.772C24.8971 81.784 24.4754 81.6032 24.1862 81.2898L24.138 81.1451C24.126 81.0969 24.0657 81.0607 24.0175 81.0848C23.9693 81.0969 23.9332 81.1572 23.9573 81.2054L25.6562 86.8715C25.5236 86.7991 25.379 86.7509 25.2345 86.7268C24.8609 86.6906 24.4874 86.763 24.1501 86.9197C23.391 87.2693 22.9573 87.9565 23.1862 88.4507C23.379 88.8727 24.0175 89.0173 24.6682 88.8245C24.7766 88.7883 24.885 88.7521 24.9814 88.7039C25.3188 88.5592 25.62 88.3181 25.8248 88.0167C26.0056 87.7756 26.0538 87.4742 25.9453 87.197L24.7525 83.2186C25.0417 83.4598 25.4031 83.5924 25.7887 83.5924C26.2465 83.5924 26.6683 83.7853 26.9574 84.1349C26.9695 84.1469 27.0056 84.159 27.0297 84.1469H27.0418C27.0779 84.1349 27.09 84.0987 27.0779 84.0625L26.6562 82.6641C26.6201 82.4592 26.5116 82.2663 26.3309 82.1337Z" fill="#263238"/>
<path d="M37.7996 104.266C37.6068 104.097 37.3658 104.001 37.1248 104.001C36.8357 104.001 36.5586 103.868 36.3658 103.639L36.3417 103.531C36.3296 103.495 36.2935 103.471 36.2573 103.483C36.2212 103.495 36.2091 103.531 36.2091 103.567L37.3417 107.75C37.2574 107.702 37.161 107.666 37.0525 107.654C36.7995 107.63 36.5586 107.678 36.3296 107.798C35.8236 108.064 35.5344 108.57 35.691 108.932C35.8236 109.245 36.2453 109.354 36.679 109.209C36.7513 109.185 36.8236 109.161 36.8839 109.125C37.1128 109.016 37.3056 108.835 37.4502 108.618C37.5706 108.449 37.6068 108.22 37.5345 108.015L36.7393 105.086C36.9321 105.267 37.173 105.363 37.4381 105.363C37.7393 105.363 38.0285 105.508 38.2213 105.761C38.2333 105.773 38.2574 105.773 38.2695 105.773H38.2815C38.2815 105.773 38.3056 105.737 38.3056 105.713L38.0164 104.676C37.9803 104.519 37.896 104.387 37.7875 104.278L37.7996 104.266Z" fill="#263238"/>
<path d="M36.4515 57.9619L36.9335 53.9595L37.1142 52.4646V52.3923L33.2586 52.3682L33.2466 52.4525L33.0658 53.9474L32.6321 57.6002C32.4272 57.335 31.9935 57.1904 31.4754 57.2627C30.7766 57.3712 30.2344 57.8293 30.2344 58.2995C30.2464 58.6973 30.6681 58.9746 31.2224 58.9866C31.3188 58.9866 31.4031 58.9866 31.4995 58.9625C32.1863 58.8661 32.7285 58.42 32.7285 57.9378L33.2104 53.9354L36.7527 53.9595L36.319 57.6002C36.1141 57.335 35.6804 57.1904 35.1623 57.2627C34.849 57.2989 34.5478 57.4315 34.2948 57.6244C33.9695 57.8172 33.8369 58.2392 33.9936 58.5647C34.0538 58.7094 34.1743 58.8058 34.3309 58.854C34.5117 58.9384 34.7165 58.9746 34.9213 58.9746C35.0177 58.9746 35.1141 58.9746 35.2105 58.9625C35.9093 58.8661 36.4515 58.408 36.4515 57.9499V57.9619Z" fill="#263238"/>
<path d="M44.5024 82.6149L44.7313 80.6498L44.8157 79.9144V79.8783L42.9842 79.8662V79.9024L42.8999 80.6378L42.6951 82.4461C42.5987 82.3135 42.3939 82.2411 42.1529 82.2773C41.8276 82.3255 41.5625 82.5546 41.5625 82.7836C41.5625 82.9886 41.7673 83.1212 42.0324 83.1212C42.0806 83.1212 42.1167 83.1212 42.1649 83.1091C42.4903 83.0609 42.7433 82.8439 42.7433 82.6028L42.9722 80.6378L44.647 80.6498L44.4421 82.4461C44.3457 82.3135 44.1409 82.2411 43.8999 82.2773C43.7554 82.2894 43.6108 82.3617 43.4903 82.4581C43.3337 82.5546 43.2734 82.7595 43.3457 82.9163C43.3819 82.9886 43.43 83.0368 43.5023 83.0609C43.5867 83.1091 43.6831 83.1212 43.7795 83.1212C43.8277 83.1212 43.8638 83.1212 43.912 83.1091C44.2494 83.0609 44.5024 82.8319 44.5024 82.6149Z" fill="#263238"/>
<defs>
<filter id="filter0_d_3036_4271" x="57.0898" y="50" width="25.1211" height="40.3613" filterUnits="userSpaceOnUse" color-interpolation-filters="sRGB">
<feFlood flood-opacity="0" result="BackgroundImageFix"/>
<feColorMatrix in="SourceAlpha" type="matrix" values="0 0 0 0 0 0 0 0 0 0 0 0 0 0 0 0 0 0 127 0" result="hardAlpha"/>
<feOffset dy="4"/>
<feGaussianBlur stdDeviation="2"/>
<feComposite in2="hardAlpha" operator="out"/>
<feColorMatrix type="matrix" values="0 0 0 0 0 0 0 0 0 0 0 0 0 0 0 0 0 0 0.45 0"/>
<feBlend mode="normal" in2="BackgroundImageFix" result="effect1_dropShadow_3036_4271"/>
<feBlend mode="normal" in="SourceGraphic" in2="effect1_dropShadow_3036_4271" result="shape"/>
</filter>
<filter id="filter1_d_3036_4271" x="25.9766" y="107.81" width="38.8008" height="30.9502" filterUnits="userSpaceOnUse" color-interpolation-filters="sRGB">
<feFlood flood-opacity="0" result="BackgroundImageFix"/>
<feColorMatrix in="SourceAlpha" type="matrix" values="0 0 0 0 0 0 0 0 0 0 0 0 0 0 0 0 0 0 127 0" result="hardAlpha"/>
<feOffset/>
<feGaussianBlur stdDeviation="4"/>
<feComposite in2="hardAlpha" operator="out"/>
<feColorMatrix type="matrix" values="0 0 0 0 0 0 0 0 0 0 0 0 0 0 0 0 0 0 0.25 0"/>
<feBlend mode="normal" in2="BackgroundImageFix" result="effect1_dropShadow_3036_4271"/>
<feBlend mode="normal" in="SourceGraphic" in2="effect1_dropShadow_3036_4271" result="shape"/>
</filter>
<filter id="filter2_d_3036_4271" x="43.9609" y="63.6074" width="124.555" height="90.6641" filterUnits="userSpaceOnUse" color-interpolation-filters="sRGB">
<feFlood flood-opacity="0" result="BackgroundImageFix"/>
<feColorMatrix in="SourceAlpha" type="matrix" values="0 0 0 0 0 0 0 0 0 0 0 0 0 0 0 0 0 0 127 0" result="hardAlpha"/>
<feOffset dy="4"/>
<feGaussianBlur stdDeviation="2"/>
<feComposite in2="hardAlpha" operator="out"/>
<feColorMatrix type="matrix" values="0 0 0 0 0 0 0 0 0 0 0 0 0 0 0 0 0 0 0.15 0"/>
<feBlend mode="normal" in2="BackgroundImageFix" result="effect1_dropShadow_3036_4271"/>
<feBlend mode="normal" in="SourceGraphic" in2="effect1_dropShadow_3036_4271" result="shape"/>
</filter>
<filter id="filter3_d_3036_4271" x="43.9609" y="59.6074" width="124.555" height="90.6641" filterUnits="userSpaceOnUse" color-interpolation-filters="sRGB">
<feFlood flood-opacity="0" result="BackgroundImageFix"/>
<feColorMatrix in="SourceAlpha" type="matrix" values="0 0 0 0 0 0 0 0 0 0 0 0 0 0 0 0 0 0 127 0" result="hardAlpha"/>
<feOffset/>
<feGaussianBlur stdDeviation="2"/>
<feComposite in2="hardAlpha" operator="out"/>
<feColorMatrix type="matrix" values="0 0 0 0 0 0 0 0 0 0 0 0 0 0 0 0 0 0 0.2 0"/>
<feBlend mode="normal" in2="BackgroundImageFix" result="effect1_dropShadow_3036_4271"/>
<feBlend mode="normal" in="SourceGraphic" in2="effect1_dropShadow_3036_4271" result="shape"/>
</filter>
<filter id="filter4_d_3036_4271" x="84.5273" y="125.951" width="43.8164" height="37.9023" filterUnits="userSpaceOnUse" color-interpolation-filters="sRGB">
<feFlood flood-opacity="0" result="BackgroundImageFix"/>
<feColorMatrix in="SourceAlpha" type="matrix" values="0 0 0 0 0 0 0 0 0 0 0 0 0 0 0 0 0 0 127 0" result="hardAlpha"/>
<feOffset/>
<feGaussianBlur stdDeviation="4"/>
<feComposite in2="hardAlpha" operator="out"/>
<feColorMatrix type="matrix" values="0 0 0 0 0 0 0 0 0 0 0 0 0 0 0 0 0 0 0.25 0"/>
<feBlend mode="normal" in2="BackgroundImageFix" result="effect1_dropShadow_3036_4271"/>
<feBlend mode="normal" in="SourceGraphic" in2="effect1_dropShadow_3036_4271" result="shape"/>
</filter>
</defs>
</svg>
