<svg width="200" height="200" viewBox="0 0 200 200" fill="none" xmlns="http://www.w3.org/2000/svg">
<path d="M97.1312 181.76C128.108 181.76 153.219 177.076 153.219 171.299C153.219 165.522 128.108 160.839 97.1312 160.839C66.1545 160.839 41.043 165.522 41.043 171.299C41.043 177.076 66.1545 181.76 97.1312 181.76Z" fill="#A4AFBF" fill-opacity="0.7"/>
<g filter="url(#filter0_d_3035_2614)">
<path d="M160.988 21.4455C159.468 35.3449 145.055 63.3585 136.393 76.5271L112.027 68.7893C124.891 46.1061 139.276 30.9028 149.788 20.4854C152.183 18.1211 155.754 17.3903 158.894 18.6083L159.253 18.7516C160.371 19.1815 161.117 20.2561 160.988 21.4455Z" fill="white"/>
<path d="M160.983 21.3158C160.151 27.1908 158.058 35.8027 151.819 48.742C151.819 48.742 151.704 35.2725 148.019 33.51C144.333 31.7475 132.258 39.4137 132.258 39.4137C136.546 34.4844 144.29 24.7262 150.586 19.7253C152.694 18.0488 155.49 17.7049 158.144 18.2207L158.846 18.3497C160.223 18.6506 161.17 19.9259 160.983 21.3158Z" fill="#FF9100"/>
</g>
<g filter="url(#filter1_d_3035_2614)">
<path d="M38.0496 21.4455C39.5698 35.3448 53.9827 63.3585 62.6447 76.5271L87.0103 68.7893C74.1463 46.1061 59.7621 30.9028 49.2501 20.4854C46.8551 18.1211 43.2842 17.3903 40.1435 18.6083L39.7849 18.7516C38.6663 19.1815 37.9206 20.2561 38.0496 21.4455Z" fill="white"/>
<path d="M38.0265 21.3152C38.844 27.0182 40.9951 35.8737 47.1905 48.7557C47.1905 48.7557 47.3052 35.2862 50.9909 33.5237C54.6766 31.7612 66.7662 39.4274 66.7662 39.4274C62.4782 34.4981 54.734 24.7399 48.4382 19.739C46.33 18.0624 43.5335 17.7185 40.8804 18.2344L40.1777 18.3777C38.7866 18.6499 37.8257 19.9253 38.0265 21.3152Z" fill="#FF9100"/>
</g>
<g filter="url(#filter2_d_3035_2614)">
<g filter="url(#filter3_d_3035_2614)">
<path d="M146.473 100.741C146.473 124.471 124.459 143.7 97.2969 143.7C70.1348 143.7 48.1211 124.471 48.1211 100.741C48.1211 77.0121 70.1348 57.7822 97.2969 57.7822C124.459 57.7822 146.473 77.0121 146.473 100.741Z" fill="white"/>
</g>
</g>
<path d="M97.206 135.192C119.383 135.192 137.361 121.366 137.361 104.312C137.361 87.2579 119.383 73.4326 97.206 73.4326C75.0289 73.4326 57.0508 87.2579 57.0508 104.312C57.0508 121.366 75.0289 135.192 97.206 135.192Z" fill="#35373A"/>
<mask id="mask0_3035_2614" style="mask-type:alpha" maskUnits="userSpaceOnUse" x="67" y="88" width="27" height="26">
<g clip-path="url(#clip0_3035_2614)">
<path d="M73.1629 88.4055C73.5886 88.365 73.9865 88.3447 74.3602 88.3447C77.3517 88.3447 78.7865 89.6147 80.4292 91.5369C82.0719 89.6147 83.5067 88.3447 86.4982 88.3447C86.8719 88.3447 87.2698 88.3641 87.6946 88.4055C90.2837 88.6536 93.277 90.9815 93.6418 95.442V96.9267C93.3021 101.196 90.0202 106.462 80.4283 113.069C70.8364 106.462 67.5545 101.196 67.2148 96.9267V95.442C67.5805 90.9815 70.5738 88.6536 73.1629 88.4055Z" fill="#FF213D"/>
<path d="M86.4982 88.6088C86.8648 88.6088 87.2582 88.629 87.6686 88.6677C88.9735 88.7927 90.299 89.4695 91.3063 90.5239C92.4946 91.7684 93.2089 93.4723 93.3729 95.4516V96.9153C93.191 99.1719 92.1541 101.543 90.2909 103.961C88.1463 106.744 84.8286 109.699 80.4292 112.745C76.0298 109.699 72.7121 106.744 70.5675 103.961C68.7043 101.542 67.6665 99.1719 67.4846 96.9153V95.4516C67.6486 93.4723 68.3638 91.7684 69.5521 90.5239C70.5594 89.4695 71.8849 88.7927 73.1898 88.6677C73.6002 88.6281 73.9945 88.6088 74.3602 88.6088C77.3391 88.6088 78.7228 89.9518 80.2231 91.7068L80.4292 91.9479L80.6353 91.7068C82.1355 89.9518 83.5193 88.6088 86.4982 88.6088ZM86.4982 88.3447C83.5067 88.3447 82.0719 89.6147 80.4292 91.5369C78.7865 89.6147 77.3526 88.3447 74.3602 88.3447C73.9865 88.3447 73.5886 88.3641 73.1629 88.4055C70.5747 88.6536 67.5805 90.9815 67.2148 95.442V96.9267C67.5545 101.196 70.8373 106.462 80.4283 113.069C90.0202 106.462 93.3021 101.196 93.6418 96.9267V95.442C93.277 90.9815 90.2837 88.6536 87.6946 88.4055C87.2689 88.365 86.871 88.3447 86.4982 88.3447Z" fill="#FF213D"/>
</g>
</mask>
<g mask="url(#mask0_3035_2614)">
<path d="M77.6388 100.163C77.6388 101.019 76.9449 101.713 76.0889 101.713C75.233 101.713 74.5391 101.019 74.5391 100.163C74.5391 99.3072 75.233 98.6133 76.0889 98.6133C76.9449 98.6133 77.6388 99.3072 77.6388 100.163Z" fill="#F29111"/>
<path d="M77.6388 104.039C77.6388 104.895 76.9449 105.589 76.0889 105.589C75.233 105.589 74.5391 104.895 74.5391 104.039C74.5391 103.183 75.233 102.489 76.0889 102.489C76.9449 102.489 77.6388 103.183 77.6388 104.039Z" fill="#F29111"/>
<path d="M77.6388 107.912C77.6388 108.768 76.9449 109.462 76.0889 109.462C75.233 109.462 74.5391 108.768 74.5391 107.912C74.5391 107.056 75.233 106.362 76.0889 106.362C76.9449 106.362 77.6388 107.056 77.6388 107.912Z" fill="#F29111"/>
<path d="M77.6388 111.788C77.6388 112.644 76.9449 113.338 76.0889 113.338C75.233 113.338 74.5391 112.644 74.5391 111.788C74.5391 110.932 75.233 110.238 76.0889 110.238C76.9449 110.238 77.6388 110.932 77.6388 111.788Z" fill="#F29111"/>
<path d="M89.2599 100.163C89.2599 101.019 88.566 101.713 87.71 101.713C86.8541 101.713 86.1602 101.019 86.1602 100.163C86.1602 99.3072 86.8541 98.6133 87.71 98.6133C88.566 98.6133 89.2599 99.3072 89.2599 100.163Z" fill="#F29111"/>
<path d="M89.2599 104.039C89.2599 104.895 88.566 105.589 87.71 105.589C86.8541 105.589 86.1602 104.895 86.1602 104.039C86.1602 103.183 86.8541 102.489 87.71 102.489C88.566 102.489 89.2599 103.183 89.2599 104.039Z" fill="#F29111"/>
<path d="M89.2599 107.912C89.2599 108.768 88.566 109.462 87.71 109.462C86.8541 109.462 86.1602 108.768 86.1602 107.912C86.1602 107.056 86.8541 106.362 87.71 106.362C88.566 106.362 89.2599 107.056 89.2599 107.912Z" fill="#F29111"/>
<path d="M89.2599 111.788C89.2599 112.644 88.566 113.338 87.71 113.338C86.8541 113.338 86.1602 112.644 86.1602 111.788C86.1602 110.932 86.8541 110.238 87.71 110.238C88.566 110.238 89.2599 110.932 89.2599 111.788Z" fill="#F29111"/>
<path d="M69.8888 100.163C69.8888 101.019 69.1949 101.713 68.3389 101.713C67.483 101.713 66.7891 101.019 66.7891 100.163C66.7891 99.3072 67.483 98.6133 68.3389 98.6133C69.1949 98.6133 69.8888 99.3072 69.8888 100.163Z" fill="#F29111"/>
<path d="M69.8888 104.039C69.8888 104.895 69.1949 105.589 68.3389 105.589C67.483 105.589 66.7891 104.895 66.7891 104.039C66.7891 103.183 67.483 102.489 68.3389 102.489C69.1949 102.489 69.8888 103.183 69.8888 104.039Z" fill="#F29111"/>
<path d="M69.8888 107.912C69.8888 108.768 69.1949 109.462 68.3389 109.462C67.483 109.462 66.7891 108.768 66.7891 107.912C66.7891 107.056 67.483 106.362 68.3389 106.362C69.1949 106.362 69.8888 107.056 69.8888 107.912Z" fill="#F29111"/>
<path d="M69.8888 111.788C69.8888 112.644 69.1949 113.338 68.3389 113.338C67.483 113.338 66.7891 112.644 66.7891 111.788C66.7891 110.932 67.483 110.238 68.3389 110.238C69.1949 110.238 69.8888 110.932 69.8888 111.788Z" fill="#F29111"/>
<path d="M81.5138 100.163C81.5138 101.019 80.8199 101.713 79.9639 101.713C79.108 101.713 78.4141 101.019 78.4141 100.163C78.4141 99.3072 79.108 98.6133 79.9639 98.6133C80.8199 98.6133 81.5138 99.3072 81.5138 100.163Z" fill="#F29111"/>
<path d="M81.5138 104.039C81.5138 104.895 80.8199 105.589 79.9639 105.589C79.108 105.589 78.4141 104.895 78.4141 104.039C78.4141 103.183 79.108 102.489 79.9639 102.489C80.8199 102.489 81.5138 103.183 81.5138 104.039Z" fill="#F29111"/>
<path d="M81.5138 107.912C81.5138 108.768 80.8199 109.462 79.9639 109.462C79.108 109.462 78.4141 108.768 78.4141 107.912C78.4141 107.056 79.108 106.362 79.9639 106.362C80.8199 106.362 81.5138 107.056 81.5138 107.912Z" fill="#F29111"/>
<path d="M81.5138 111.788C81.5138 112.644 80.8199 113.338 79.9639 113.338C79.108 113.338 78.4141 112.644 78.4141 111.788C78.4141 110.932 79.108 110.238 79.9639 110.238C80.8199 110.238 81.5138 110.932 81.5138 111.788Z" fill="#F29111"/>
<path d="M93.1388 100.163C93.1388 101.019 92.4449 101.713 91.5889 101.713C90.733 101.713 90.0391 101.019 90.0391 100.163C90.0391 99.3072 90.733 98.6133 91.5889 98.6133C92.4449 98.6133 93.1388 99.3072 93.1388 100.163Z" fill="#F29111"/>
<path d="M93.1388 104.039C93.1388 104.895 92.4449 105.589 91.5889 105.589C90.733 105.589 90.0391 104.895 90.0391 104.039C90.0391 103.183 90.733 102.489 91.5889 102.489C92.4449 102.489 93.1388 103.183 93.1388 104.039Z" fill="#F29111"/>
<path d="M93.1388 107.912C93.1388 108.768 92.4449 109.462 91.5889 109.462C90.733 109.462 90.0391 108.768 90.0391 107.912C90.0391 107.056 90.733 106.362 91.5889 106.362C92.4449 106.362 93.1388 107.056 93.1388 107.912Z" fill="#F29111"/>
<path d="M93.1388 111.788C93.1388 112.644 92.4449 113.338 91.5889 113.338C90.733 113.338 90.0391 112.644 90.0391 111.788C90.0391 110.932 90.733 110.238 91.5889 110.238C92.4449 110.238 93.1388 110.932 93.1388 111.788Z" fill="#F29111"/>
<path d="M73.7599 100.163C73.7599 101.019 73.066 101.713 72.21 101.713C71.3541 101.713 70.6602 101.019 70.6602 100.163C70.6602 99.3072 71.3541 98.6133 72.21 98.6133C73.066 98.6133 73.7599 99.3072 73.7599 100.163Z" fill="#F29111"/>
<path d="M73.7599 104.039C73.7599 104.895 73.066 105.589 72.21 105.589C71.3541 105.589 70.6602 104.895 70.6602 104.039C70.6602 103.183 71.3541 102.489 72.21 102.489C73.066 102.489 73.7599 103.183 73.7599 104.039Z" fill="#F29111"/>
<path d="M73.7599 107.912C73.7599 108.768 73.066 109.462 72.21 109.462C71.3541 109.462 70.6602 108.768 70.6602 107.912C70.6602 107.056 71.3541 106.362 72.21 106.362C73.066 106.362 73.7599 107.056 73.7599 107.912Z" fill="#F29111"/>
<path d="M73.7599 111.788C73.7599 112.644 73.066 113.338 72.21 113.338C71.3541 113.338 70.6602 112.644 70.6602 111.788C70.6602 110.932 71.3541 110.238 72.21 110.238C73.066 110.238 73.7599 110.932 73.7599 111.788Z" fill="#F29111"/>
<path d="M85.3888 100.163C85.3888 101.019 84.6949 101.713 83.8389 101.713C82.983 101.713 82.2891 101.019 82.2891 100.163C82.2891 99.3072 82.983 98.6133 83.8389 98.6133C84.6949 98.6133 85.3888 99.3072 85.3888 100.163Z" fill="#F29111"/>
<path d="M85.3888 104.039C85.3888 104.895 84.6949 105.589 83.8389 105.589C82.983 105.589 82.2891 104.895 82.2891 104.039C82.2891 103.183 82.983 102.489 83.8389 102.489C84.6949 102.489 85.3888 103.183 85.3888 104.039Z" fill="#F29111"/>
<path d="M85.3888 107.912C85.3888 108.768 84.6949 109.462 83.8389 109.462C82.983 109.462 82.2891 108.768 82.2891 107.912C82.2891 107.056 82.983 106.362 83.8389 106.362C84.6949 106.362 85.3888 107.056 85.3888 107.912Z" fill="#F29111"/>
<path d="M85.3888 111.788C85.3888 112.644 84.6949 113.338 83.8389 113.338C82.983 113.338 82.2891 112.644 82.2891 111.788C82.2891 110.932 82.983 110.238 83.8389 110.238C84.6949 110.238 85.3888 110.932 85.3888 111.788Z" fill="#F29111"/>
<path d="M77.6388 88.5401C77.6388 89.3961 76.9449 90.09 76.0889 90.09C75.233 90.09 74.5391 89.3961 74.5391 88.5401C74.5391 87.6841 75.233 86.9902 76.0889 86.9902C76.9449 86.9902 77.6388 87.6841 77.6388 88.5401Z" fill="#F29111"/>
<path d="M77.6388 92.4132C77.6388 93.2691 76.9449 93.9631 76.0889 93.9631C75.233 93.9631 74.5391 93.2691 74.5391 92.4132C74.5391 91.5572 75.233 90.8633 76.0889 90.8633C76.9449 90.8633 77.6388 91.5572 77.6388 92.4132Z" fill="#F29111"/>
<path d="M77.6388 96.2891C77.6388 97.1451 76.9449 97.839 76.0889 97.839C75.233 97.839 74.5391 97.1451 74.5391 96.2891C74.5391 95.4332 75.233 94.7393 76.0889 94.7393C76.9449 94.7393 77.6388 95.4332 77.6388 96.2891Z" fill="#F29111"/>
<path d="M89.2599 88.5401C89.2599 89.3961 88.566 90.09 87.71 90.09C86.8541 90.09 86.1602 89.3961 86.1602 88.5401C86.1602 87.6841 86.8541 86.9902 87.71 86.9902C88.566 86.9902 89.2599 87.6841 89.2599 88.5401Z" fill="#F29111"/>
<path d="M89.2599 92.4132C89.2599 93.2691 88.566 93.9631 87.71 93.9631C86.8541 93.9631 86.1602 93.2691 86.1602 92.4132C86.1602 91.5572 86.8541 90.8633 87.71 90.8633C88.566 90.8633 89.2599 91.5572 89.2599 92.4132Z" fill="#F29111"/>
<path d="M89.2599 96.2891C89.2599 97.1451 88.566 97.839 87.71 97.839C86.8541 97.839 86.1602 97.1451 86.1602 96.2891C86.1602 95.4332 86.8541 94.7393 87.71 94.7393C88.566 94.7393 89.2599 95.4332 89.2599 96.2891Z" fill="#F29111"/>
<path d="M69.8888 88.5401C69.8888 89.3961 69.1949 90.09 68.3389 90.09C67.483 90.09 66.7891 89.3961 66.7891 88.5401C66.7891 87.6841 67.483 86.9902 68.3389 86.9902C69.1949 86.9902 69.8888 87.6841 69.8888 88.5401Z" fill="#F29111"/>
<path d="M69.8888 92.4132C69.8888 93.2691 69.1949 93.9631 68.3389 93.9631C67.483 93.9631 66.7891 93.2691 66.7891 92.4132C66.7891 91.5572 67.483 90.8633 68.3389 90.8633C69.1949 90.8633 69.8888 91.5572 69.8888 92.4132Z" fill="#F29111"/>
<path d="M69.8888 96.2891C69.8888 97.1451 69.1949 97.839 68.3389 97.839C67.483 97.839 66.7891 97.1451 66.7891 96.2891C66.7891 95.4332 67.483 94.7393 68.3389 94.7393C69.1949 94.7393 69.8888 95.4332 69.8888 96.2891Z" fill="#F29111"/>
<path d="M81.5138 88.5401C81.5138 89.3961 80.8199 90.09 79.9639 90.09C79.108 90.09 78.4141 89.3961 78.4141 88.5401C78.4141 87.6841 79.108 86.9902 79.9639 86.9902C80.8199 86.9902 81.5138 87.6841 81.5138 88.5401Z" fill="#F29111"/>
<path d="M81.5138 92.4132C81.5138 93.2691 80.8199 93.9631 79.9639 93.9631C79.108 93.9631 78.4141 93.2691 78.4141 92.4132C78.4141 91.5572 79.108 90.8633 79.9639 90.8633C80.8199 90.8633 81.5138 91.5572 81.5138 92.4132Z" fill="#F29111"/>
<path d="M81.5138 96.2891C81.5138 97.1451 80.8199 97.839 79.9639 97.839C79.108 97.839 78.4141 97.1451 78.4141 96.2891C78.4141 95.4332 79.108 94.7393 79.9639 94.7393C80.8199 94.7393 81.5138 95.4332 81.5138 96.2891Z" fill="#F29111"/>
<path d="M93.1388 88.5401C93.1388 89.3961 92.4449 90.09 91.5889 90.09C90.733 90.09 90.0391 89.3961 90.0391 88.5401C90.0391 87.6841 90.733 86.9902 91.5889 86.9902C92.4449 86.9902 93.1388 87.6841 93.1388 88.5401Z" fill="#F29111"/>
<path d="M93.1388 92.4132C93.1388 93.2691 92.4449 93.9631 91.5889 93.9631C90.733 93.9631 90.0391 93.2691 90.0391 92.4132C90.0391 91.5572 90.733 90.8633 91.5889 90.8633C92.4449 90.8633 93.1388 91.5572 93.1388 92.4132Z" fill="#F29111"/>
<path d="M93.1388 96.2891C93.1388 97.1451 92.4449 97.839 91.5889 97.839C90.733 97.839 90.0391 97.1451 90.0391 96.2891C90.0391 95.4332 90.733 94.7393 91.5889 94.7393C92.4449 94.7393 93.1388 95.4332 93.1388 96.2891Z" fill="#F29111"/>
<path d="M73.7599 88.5401C73.7599 89.3961 73.066 90.09 72.21 90.09C71.3541 90.09 70.6602 89.3961 70.6602 88.5401C70.6602 87.6841 71.3541 86.9902 72.21 86.9902C73.066 86.9902 73.7599 87.6841 73.7599 88.5401Z" fill="#F29111"/>
<path d="M73.7599 92.4132C73.7599 93.2691 73.066 93.9631 72.21 93.9631C71.3541 93.9631 70.6602 93.2691 70.6602 92.4132C70.6602 91.5572 71.3541 90.8633 72.21 90.8633C73.066 90.8633 73.7599 91.5572 73.7599 92.4132Z" fill="#F29111"/>
<path d="M73.7599 96.2891C73.7599 97.1451 73.066 97.839 72.21 97.839C71.3541 97.839 70.6602 97.1451 70.6602 96.2891C70.6602 95.4332 71.3541 94.7393 72.21 94.7393C73.066 94.7393 73.7599 95.4332 73.7599 96.2891Z" fill="#F29111"/>
<path d="M85.3888 88.5401C85.3888 89.3961 84.6949 90.09 83.8389 90.09C82.983 90.09 82.2891 89.3961 82.2891 88.5401C82.2891 87.6841 82.983 86.9902 83.8389 86.9902C84.6949 86.9902 85.3888 87.6841 85.3888 88.5401Z" fill="#F29111"/>
<path d="M85.3888 92.4132C85.3888 93.2691 84.6949 93.9631 83.8389 93.9631C82.983 93.9631 82.2891 93.2691 82.2891 92.4132C82.2891 91.5572 82.983 90.8633 83.8389 90.8633C84.6949 90.8633 85.3888 91.5572 85.3888 92.4132Z" fill="#F29111"/>
<path d="M85.3888 96.2891C85.3888 97.1451 84.6949 97.839 83.8389 97.839C82.983 97.839 82.2891 97.1451 82.2891 96.2891C82.2891 95.4332 82.983 94.7393 83.8389 94.7393C84.6949 94.7393 85.3888 95.4332 85.3888 96.2891Z" fill="#F29111"/>
</g>
<mask id="mask1_3035_2614" style="mask-type:alpha" maskUnits="userSpaceOnUse" x="100" y="88" width="27" height="26">
<g clip-path="url(#clip1_3035_2614)">
<path d="M106.421 88.4055C106.846 88.365 107.244 88.3447 107.618 88.3447C110.609 88.3447 112.044 89.6147 113.687 91.5369C115.33 89.6147 116.765 88.3447 119.756 88.3447C120.13 88.3447 120.528 88.3641 120.952 88.4055C123.542 88.6536 126.535 90.9815 126.9 95.442V96.9267C126.56 101.196 123.278 106.462 113.686 113.069C104.094 106.462 100.812 101.196 100.473 96.9267V95.442C100.838 90.9815 103.832 88.6536 106.421 88.4055Z" fill="#FF213D"/>
<path d="M119.756 88.6088C120.123 88.6088 120.516 88.629 120.926 88.6677C122.231 88.7927 123.557 89.4695 124.564 90.5239C125.752 91.7684 126.467 93.4723 126.631 95.4516V96.9153C126.449 99.1719 125.412 101.543 123.549 103.961C121.404 106.744 118.086 109.699 113.687 112.745C109.288 109.699 105.97 106.744 103.825 103.961C101.962 101.542 100.924 99.1719 100.742 96.9153V95.4516C100.906 93.4723 101.622 91.7684 102.81 90.5239C103.817 89.4695 105.143 88.7927 106.448 88.6677C106.858 88.6281 107.252 88.6088 107.618 88.6088C110.597 88.6088 111.981 89.9518 113.481 91.7068L113.687 91.9479L113.893 91.7068C115.393 89.9518 116.777 88.6088 119.756 88.6088ZM119.756 88.3447C116.765 88.3447 115.33 89.6147 113.687 91.5369C112.044 89.6147 110.61 88.3447 107.618 88.3447C107.244 88.3447 106.846 88.3641 106.421 88.4055C103.832 88.6536 100.838 90.9815 100.473 95.442V96.9267C100.812 101.196 104.095 106.462 113.686 113.069C123.278 106.462 126.56 101.196 126.9 96.9267V95.442C126.535 90.9815 123.542 88.6536 120.952 88.4055C120.527 88.365 120.129 88.3447 119.756 88.3447Z" fill="#FF213D"/>
</g>
</mask>
<g mask="url(#mask1_3035_2614)">
<path d="M110.901 100.163C110.901 101.019 110.207 101.713 109.351 101.713C108.495 101.713 107.801 101.019 107.801 100.163C107.801 99.3072 108.495 98.6133 109.351 98.6133C110.207 98.6133 110.901 99.3072 110.901 100.163Z" fill="#F29111"/>
<path d="M110.901 104.039C110.901 104.895 110.207 105.589 109.351 105.589C108.495 105.589 107.801 104.895 107.801 104.039C107.801 103.183 108.495 102.489 109.351 102.489C110.207 102.489 110.901 103.183 110.901 104.039Z" fill="#F29111"/>
<path d="M110.901 107.912C110.901 108.768 110.207 109.462 109.351 109.462C108.495 109.462 107.801 108.768 107.801 107.912C107.801 107.056 108.495 106.362 109.351 106.362C110.207 106.362 110.901 107.056 110.901 107.912Z" fill="#F29111"/>
<path d="M110.901 111.788C110.901 112.644 110.207 113.338 109.351 113.338C108.495 113.338 107.801 112.644 107.801 111.788C107.801 110.932 108.495 110.238 109.351 110.238C110.207 110.238 110.901 110.932 110.901 111.788Z" fill="#F29111"/>
<path d="M122.522 100.163C122.522 101.019 121.828 101.713 120.972 101.713C120.116 101.713 119.422 101.019 119.422 100.163C119.422 99.3072 120.116 98.6133 120.972 98.6133C121.828 98.6133 122.522 99.3072 122.522 100.163Z" fill="#F29111"/>
<path d="M122.522 104.039C122.522 104.895 121.828 105.589 120.972 105.589C120.116 105.589 119.422 104.895 119.422 104.039C119.422 103.183 120.116 102.489 120.972 102.489C121.828 102.489 122.522 103.183 122.522 104.039Z" fill="#F29111"/>
<path d="M122.522 107.912C122.522 108.768 121.828 109.462 120.972 109.462C120.116 109.462 119.422 108.768 119.422 107.912C119.422 107.056 120.116 106.362 120.972 106.362C121.828 106.362 122.522 107.056 122.522 107.912Z" fill="#F29111"/>
<path d="M122.522 111.788C122.522 112.644 121.828 113.338 120.972 113.338C120.116 113.338 119.422 112.644 119.422 111.788C119.422 110.932 120.116 110.238 120.972 110.238C121.828 110.238 122.522 110.932 122.522 111.788Z" fill="#F29111"/>
<path d="M103.147 100.163C103.147 101.019 102.453 101.713 101.597 101.713C100.741 101.713 100.047 101.019 100.047 100.163C100.047 99.3072 100.741 98.6133 101.597 98.6133C102.453 98.6133 103.147 99.3072 103.147 100.163Z" fill="#F29111"/>
<path d="M103.147 104.039C103.147 104.895 102.453 105.589 101.597 105.589C100.741 105.589 100.047 104.895 100.047 104.039C100.047 103.183 100.741 102.489 101.597 102.489C102.453 102.489 103.147 103.183 103.147 104.039Z" fill="#F29111"/>
<path d="M103.147 107.912C103.147 108.768 102.453 109.462 101.597 109.462C100.741 109.462 100.047 108.768 100.047 107.912C100.047 107.056 100.741 106.362 101.597 106.362C102.453 106.362 103.147 107.056 103.147 107.912Z" fill="#F29111"/>
<path d="M103.147 111.788C103.147 112.644 102.453 113.338 101.597 113.338C100.741 113.338 100.047 112.644 100.047 111.788C100.047 110.932 100.741 110.238 101.597 110.238C102.453 110.238 103.147 110.932 103.147 111.788Z" fill="#F29111"/>
<path d="M114.772 100.163C114.772 101.019 114.078 101.713 113.222 101.713C112.366 101.713 111.672 101.019 111.672 100.163C111.672 99.3072 112.366 98.6133 113.222 98.6133C114.078 98.6133 114.772 99.3072 114.772 100.163Z" fill="#F29111"/>
<path d="M114.772 104.039C114.772 104.895 114.078 105.589 113.222 105.589C112.366 105.589 111.672 104.895 111.672 104.039C111.672 103.183 112.366 102.489 113.222 102.489C114.078 102.489 114.772 103.183 114.772 104.039Z" fill="#F29111"/>
<path d="M114.772 107.912C114.772 108.768 114.078 109.462 113.222 109.462C112.366 109.462 111.672 108.768 111.672 107.912C111.672 107.056 112.366 106.362 113.222 106.362C114.078 106.362 114.772 107.056 114.772 107.912Z" fill="#F29111"/>
<path d="M114.772 111.788C114.772 112.644 114.078 113.338 113.222 113.338C112.366 113.338 111.672 112.644 111.672 111.788C111.672 110.932 112.366 110.238 113.222 110.238C114.078 110.238 114.772 110.932 114.772 111.788Z" fill="#F29111"/>
<path d="M126.397 100.163C126.397 101.019 125.703 101.713 124.847 101.713C123.991 101.713 123.297 101.019 123.297 100.163C123.297 99.3072 123.991 98.6133 124.847 98.6133C125.703 98.6133 126.397 99.3072 126.397 100.163Z" fill="#F29111"/>
<path d="M126.397 104.039C126.397 104.895 125.703 105.589 124.847 105.589C123.991 105.589 123.297 104.895 123.297 104.039C123.297 103.183 123.991 102.489 124.847 102.489C125.703 102.489 126.397 103.183 126.397 104.039Z" fill="#F29111"/>
<path d="M126.397 107.912C126.397 108.768 125.703 109.462 124.847 109.462C123.991 109.462 123.297 108.768 123.297 107.912C123.297 107.056 123.991 106.362 124.847 106.362C125.703 106.362 126.397 107.056 126.397 107.912Z" fill="#F29111"/>
<path d="M126.397 111.788C126.397 112.644 125.703 113.338 124.847 113.338C123.991 113.338 123.297 112.644 123.297 111.788C123.297 110.932 123.991 110.238 124.847 110.238C125.703 110.238 126.397 110.932 126.397 111.788Z" fill="#F29111"/>
<path d="M107.022 100.163C107.022 101.019 106.328 101.713 105.472 101.713C104.616 101.713 103.922 101.019 103.922 100.163C103.922 99.3072 104.616 98.6133 105.472 98.6133C106.328 98.6133 107.022 99.3072 107.022 100.163Z" fill="#F29111"/>
<path d="M107.022 104.039C107.022 104.895 106.328 105.589 105.472 105.589C104.616 105.589 103.922 104.895 103.922 104.039C103.922 103.183 104.616 102.489 105.472 102.489C106.328 102.489 107.022 103.183 107.022 104.039Z" fill="#F29111"/>
<path d="M107.022 107.912C107.022 108.768 106.328 109.462 105.472 109.462C104.616 109.462 103.922 108.768 103.922 107.912C103.922 107.056 104.616 106.362 105.472 106.362C106.328 106.362 107.022 107.056 107.022 107.912Z" fill="#F29111"/>
<path d="M107.022 111.788C107.022 112.644 106.328 113.338 105.472 113.338C104.616 113.338 103.922 112.644 103.922 111.788C103.922 110.932 104.616 110.238 105.472 110.238C106.328 110.238 107.022 110.932 107.022 111.788Z" fill="#F29111"/>
<path d="M118.643 100.163C118.643 101.019 117.949 101.713 117.093 101.713C116.237 101.713 115.543 101.019 115.543 100.163C115.543 99.3072 116.237 98.6133 117.093 98.6133C117.949 98.6133 118.643 99.3072 118.643 100.163Z" fill="#F29111"/>
<path d="M118.643 104.039C118.643 104.895 117.949 105.589 117.093 105.589C116.237 105.589 115.543 104.895 115.543 104.039C115.543 103.183 116.237 102.489 117.093 102.489C117.949 102.489 118.643 103.183 118.643 104.039Z" fill="#F29111"/>
<path d="M118.643 107.912C118.643 108.768 117.949 109.462 117.093 109.462C116.237 109.462 115.543 108.768 115.543 107.912C115.543 107.056 116.237 106.362 117.093 106.362C117.949 106.362 118.643 107.056 118.643 107.912Z" fill="#F29111"/>
<path d="M118.643 111.788C118.643 112.644 117.949 113.338 117.093 113.338C116.237 113.338 115.543 112.644 115.543 111.788C115.543 110.932 116.237 110.238 117.093 110.238C117.949 110.238 118.643 110.932 118.643 111.788Z" fill="#F29111"/>
<path d="M110.901 88.5401C110.901 89.3961 110.207 90.09 109.351 90.09C108.495 90.09 107.801 89.3961 107.801 88.5401C107.801 87.6841 108.495 86.9902 109.351 86.9902C110.207 86.9902 110.901 87.6841 110.901 88.5401Z" fill="#F29111"/>
<path d="M110.901 92.4132C110.901 93.2691 110.207 93.9631 109.351 93.9631C108.495 93.9631 107.801 93.2691 107.801 92.4132C107.801 91.5572 108.495 90.8633 109.351 90.8633C110.207 90.8633 110.901 91.5572 110.901 92.4132Z" fill="#F29111"/>
<path d="M110.901 96.2891C110.901 97.1451 110.207 97.839 109.351 97.839C108.495 97.839 107.801 97.1451 107.801 96.2891C107.801 95.4332 108.495 94.7393 109.351 94.7393C110.207 94.7393 110.901 95.4332 110.901 96.2891Z" fill="#F29111"/>
<path d="M122.522 88.5401C122.522 89.3961 121.828 90.09 120.972 90.09C120.116 90.09 119.422 89.3961 119.422 88.5401C119.422 87.6841 120.116 86.9902 120.972 86.9902C121.828 86.9902 122.522 87.6841 122.522 88.5401Z" fill="#F29111"/>
<path d="M122.522 92.4132C122.522 93.2691 121.828 93.9631 120.972 93.9631C120.116 93.9631 119.422 93.2691 119.422 92.4132C119.422 91.5572 120.116 90.8633 120.972 90.8633C121.828 90.8633 122.522 91.5572 122.522 92.4132Z" fill="#F29111"/>
<path d="M122.522 96.2891C122.522 97.1451 121.828 97.839 120.972 97.839C120.116 97.839 119.422 97.1451 119.422 96.2891C119.422 95.4332 120.116 94.7393 120.972 94.7393C121.828 94.7393 122.522 95.4332 122.522 96.2891Z" fill="#F29111"/>
<path d="M103.147 88.5401C103.147 89.3961 102.453 90.09 101.597 90.09C100.741 90.09 100.047 89.3961 100.047 88.5401C100.047 87.6841 100.741 86.9902 101.597 86.9902C102.453 86.9902 103.147 87.6841 103.147 88.5401Z" fill="#F29111"/>
<path d="M103.147 92.4132C103.147 93.2691 102.453 93.9631 101.597 93.9631C100.741 93.9631 100.047 93.2691 100.047 92.4132C100.047 91.5572 100.741 90.8633 101.597 90.8633C102.453 90.8633 103.147 91.5572 103.147 92.4132Z" fill="#F29111"/>
<path d="M103.147 96.2891C103.147 97.1451 102.453 97.839 101.597 97.839C100.741 97.839 100.047 97.1451 100.047 96.2891C100.047 95.4332 100.741 94.7393 101.597 94.7393C102.453 94.7393 103.147 95.4332 103.147 96.2891Z" fill="#F29111"/>
<path d="M114.772 88.5401C114.772 89.3961 114.078 90.09 113.222 90.09C112.366 90.09 111.672 89.3961 111.672 88.5401C111.672 87.6841 112.366 86.9902 113.222 86.9902C114.078 86.9902 114.772 87.6841 114.772 88.5401Z" fill="#F29111"/>
<path d="M114.772 92.4132C114.772 93.2691 114.078 93.9631 113.222 93.9631C112.366 93.9631 111.672 93.2691 111.672 92.4132C111.672 91.5572 112.366 90.8633 113.222 90.8633C114.078 90.8633 114.772 91.5572 114.772 92.4132Z" fill="#F29111"/>
<path d="M114.772 96.2891C114.772 97.1451 114.078 97.839 113.222 97.839C112.366 97.839 111.672 97.1451 111.672 96.2891C111.672 95.4332 112.366 94.7393 113.222 94.7393C114.078 94.7393 114.772 95.4332 114.772 96.2891Z" fill="#F29111"/>
<path d="M126.397 88.5401C126.397 89.3961 125.703 90.09 124.847 90.09C123.991 90.09 123.297 89.3961 123.297 88.5401C123.297 87.6841 123.991 86.9902 124.847 86.9902C125.703 86.9902 126.397 87.6841 126.397 88.5401Z" fill="#F29111"/>
<path d="M126.397 92.4132C126.397 93.2691 125.703 93.9631 124.847 93.9631C123.991 93.9631 123.297 93.2691 123.297 92.4132C123.297 91.5572 123.991 90.8633 124.847 90.8633C125.703 90.8633 126.397 91.5572 126.397 92.4132Z" fill="#F29111"/>
<path d="M126.397 96.2891C126.397 97.1451 125.703 97.839 124.847 97.839C123.991 97.839 123.297 97.1451 123.297 96.2891C123.297 95.4332 123.991 94.7393 124.847 94.7393C125.703 94.7393 126.397 95.4332 126.397 96.2891Z" fill="#F29111"/>
<path d="M107.022 88.5401C107.022 89.3961 106.328 90.09 105.472 90.09C104.616 90.09 103.922 89.3961 103.922 88.5401C103.922 87.6841 104.616 86.9902 105.472 86.9902C106.328 86.9902 107.022 87.6841 107.022 88.5401Z" fill="#F29111"/>
<path d="M107.022 92.4132C107.022 93.2691 106.328 93.9631 105.472 93.9631C104.616 93.9631 103.922 93.2691 103.922 92.4132C103.922 91.5572 104.616 90.8633 105.472 90.8633C106.328 90.8633 107.022 91.5572 107.022 92.4132Z" fill="#F29111"/>
<path d="M107.022 96.2891C107.022 97.1451 106.328 97.839 105.472 97.839C104.616 97.839 103.922 97.1451 103.922 96.2891C103.922 95.4332 104.616 94.7393 105.472 94.7393C106.328 94.7393 107.022 95.4332 107.022 96.2891Z" fill="#F29111"/>
<path d="M118.643 88.5401C118.643 89.3961 117.949 90.09 117.093 90.09C116.237 90.09 115.543 89.3961 115.543 88.5401C115.543 87.6841 116.237 86.9902 117.093 86.9902C117.949 86.9902 118.643 87.6841 118.643 88.5401Z" fill="#F29111"/>
<path d="M118.643 92.4132C118.643 93.2691 117.949 93.9631 117.093 93.9631C116.237 93.9631 115.543 93.2691 115.543 92.4132C115.543 91.5572 116.237 90.8633 117.093 90.8633C117.949 90.8633 118.643 91.5572 118.643 92.4132Z" fill="#F29111"/>
<path d="M118.643 96.2891C118.643 97.1451 117.949 97.839 117.093 97.839C116.237 97.839 115.543 97.1451 115.543 96.2891C115.543 95.4332 116.237 94.7393 117.093 94.7393C117.949 94.7393 118.643 95.4332 118.643 96.2891Z" fill="#F29111"/>
</g>
<g filter="url(#filter4_d_3035_2614)">
<path d="M47.045 137.158L48.766 144.036C48.9667 144.867 49.5404 145.555 50.3148 145.927L56.2807 148.764C57.471 149.323 58.8908 149.022 59.7226 148.005L76.975 127.17C77.9215 126.038 77.8355 124.362 76.7886 123.316L75.9424 122.47C74.5944 121.123 72.5149 120.822 70.837 121.739L48.4361 133.934C47.3032 134.578 46.7152 135.897 47.045 137.158Z" fill="white"/>
<path d="M70.8227 121.754L56.6823 129.478L70.1916 135.396L76.975 127.199C77.9215 126.067 77.8355 124.391 76.7886 123.345L75.9281 122.485C74.58 121.138 72.5006 120.837 70.8227 121.754Z" fill="#F29111"/>
</g>
<g filter="url(#filter5_d_3035_2614)">
<path d="M147.084 137.158L145.363 144.036C145.162 144.867 144.589 145.555 143.814 145.927L137.848 148.764C136.658 149.323 135.238 149.022 134.406 148.005L117.154 127.17C116.207 126.038 116.293 124.362 117.34 123.316L118.186 122.47C119.535 121.123 121.614 120.822 123.292 121.739L145.693 133.934C146.826 134.578 147.414 135.897 147.084 137.158Z" fill="white"/>
<path d="M123.306 121.754L137.447 129.478L123.937 135.396L117.154 127.199C116.207 126.067 116.293 124.391 117.34 123.345L118.201 122.485C119.549 121.138 121.628 120.837 123.306 121.754Z" fill="#F29111"/>
</g>
<path fill-rule="evenodd" clip-rule="evenodd" d="M104.41 122.188C104.402 122.362 104.319 122.528 104.182 122.637C98.6577 127.044 93.0872 124.576 90.7664 122.619C90.6422 122.514 90.5723 122.361 90.5668 122.199V122.199C90.5488 121.671 91.2043 121.342 91.6568 121.615C94.1889 123.14 98.9515 124.44 103.339 121.615C103.794 121.322 104.435 121.648 104.41 122.188V122.188Z" fill="#F29111"/>
<defs>
<filter id="filter0_d_3035_2614" x="104.027" y="14" width="64.9805" height="74.5273" filterUnits="userSpaceOnUse" color-interpolation-filters="sRGB">
<feFlood flood-opacity="0" result="BackgroundImageFix"/>
<feColorMatrix in="SourceAlpha" type="matrix" values="0 0 0 0 0 0 0 0 0 0 0 0 0 0 0 0 0 0 127 0" result="hardAlpha"/>
<feOffset dy="4"/>
<feGaussianBlur stdDeviation="4"/>
<feComposite in2="hardAlpha" operator="out"/>
<feColorMatrix type="matrix" values="0 0 0 0 0 0 0 0 0 0 0 0 0 0 0 0 0 0 0.25 0"/>
<feBlend mode="normal" in2="BackgroundImageFix" result="effect1_dropShadow_3035_2614"/>
<feBlend mode="normal" in="SourceGraphic" in2="effect1_dropShadow_3035_2614" result="shape"/>
</filter>
<filter id="filter1_d_3035_2614" x="30" y="14.0137" width="65.0117" height="74.5137" filterUnits="userSpaceOnUse" color-interpolation-filters="sRGB">
<feFlood flood-opacity="0" result="BackgroundImageFix"/>
<feColorMatrix in="SourceAlpha" type="matrix" values="0 0 0 0 0 0 0 0 0 0 0 0 0 0 0 0 0 0 127 0" result="hardAlpha"/>
<feOffset dy="4"/>
<feGaussianBlur stdDeviation="4"/>
<feComposite in2="hardAlpha" operator="out"/>
<feColorMatrix type="matrix" values="0 0 0 0 0 0 0 0 0 0 0 0 0 0 0 0 0 0 0.35 0"/>
<feBlend mode="normal" in2="BackgroundImageFix" result="effect1_dropShadow_3035_2614"/>
<feBlend mode="normal" in="SourceGraphic" in2="effect1_dropShadow_3035_2614" result="shape"/>
</filter>
<filter id="filter2_d_3035_2614" x="44.1211" y="57.7822" width="106.352" height="93.918" filterUnits="userSpaceOnUse" color-interpolation-filters="sRGB">
<feFlood flood-opacity="0" result="BackgroundImageFix"/>
<feColorMatrix in="SourceAlpha" type="matrix" values="0 0 0 0 0 0 0 0 0 0 0 0 0 0 0 0 0 0 127 0" result="hardAlpha"/>
<feOffset dy="4"/>
<feGaussianBlur stdDeviation="2"/>
<feComposite in2="hardAlpha" operator="out"/>
<feColorMatrix type="matrix" values="0 0 0 0 0 0 0 0 0 0 0 0 0 0 0 0 0 0 0.25 0"/>
<feBlend mode="normal" in2="BackgroundImageFix" result="effect1_dropShadow_3035_2614"/>
<feBlend mode="normal" in="SourceGraphic" in2="effect1_dropShadow_3035_2614" result="shape"/>
</filter>
<filter id="filter3_d_3035_2614" x="47.1211" y="55.7822" width="100.352" height="87.918" filterUnits="userSpaceOnUse" color-interpolation-filters="sRGB">
<feFlood flood-opacity="0" result="BackgroundImageFix"/>
<feColorMatrix in="SourceAlpha" type="matrix" values="0 0 0 0 0 0 0 0 0 0 0 0 0 0 0 0 0 0 127 0" result="hardAlpha"/>
<feOffset dy="-1"/>
<feGaussianBlur stdDeviation="0.5"/>
<feComposite in2="hardAlpha" operator="out"/>
<feColorMatrix type="matrix" values="0 0 0 0 0 0 0 0 0 0 0 0 0 0 0 0 0 0 0.1 0"/>
<feBlend mode="normal" in2="BackgroundImageFix" result="effect1_dropShadow_3035_2614"/>
<feBlend mode="normal" in="SourceGraphic" in2="effect1_dropShadow_3035_2614" result="shape"/>
</filter>
<filter id="filter4_d_3035_2614" x="38.9531" y="117.212" width="46.6797" height="43.8301" filterUnits="userSpaceOnUse" color-interpolation-filters="sRGB">
<feFlood flood-opacity="0" result="BackgroundImageFix"/>
<feColorMatrix in="SourceAlpha" type="matrix" values="0 0 0 0 0 0 0 0 0 0 0 0 0 0 0 0 0 0 127 0" result="hardAlpha"/>
<feOffset dy="4"/>
<feGaussianBlur stdDeviation="4"/>
<feComposite in2="hardAlpha" operator="out"/>
<feColorMatrix type="matrix" values="0 0 0 0 0 0 0 0 0 0 0 0 0 0 0 0 0 0 0.25 0"/>
<feBlend mode="normal" in2="BackgroundImageFix" result="effect1_dropShadow_3035_2614"/>
<feBlend mode="normal" in="SourceGraphic" in2="effect1_dropShadow_3035_2614" result="shape"/>
</filter>
<filter id="filter5_d_3035_2614" x="108.496" y="117.212" width="46.6797" height="43.8301" filterUnits="userSpaceOnUse" color-interpolation-filters="sRGB">
<feFlood flood-opacity="0" result="BackgroundImageFix"/>
<feColorMatrix in="SourceAlpha" type="matrix" values="0 0 0 0 0 0 0 0 0 0 0 0 0 0 0 0 0 0 127 0" result="hardAlpha"/>
<feOffset dy="4"/>
<feGaussianBlur stdDeviation="4"/>
<feComposite in2="hardAlpha" operator="out"/>
<feColorMatrix type="matrix" values="0 0 0 0 0 0 0 0 0 0 0 0 0 0 0 0 0 0 0.25 0"/>
<feBlend mode="normal" in2="BackgroundImageFix" result="effect1_dropShadow_3035_2614"/>
<feBlend mode="normal" in="SourceGraphic" in2="effect1_dropShadow_3035_2614" result="shape"/>
</filter>
<clipPath id="clip0_3035_2614">
<rect width="26.3481" height="24.6432" fill="white" transform="translate(67.2539 88.3848)"/>
</clipPath>
<clipPath id="clip1_3035_2614">
<rect width="26.3481" height="24.6432" fill="white" transform="translate(100.512 88.3848)"/>
</clipPath>
</defs>
</svg>
