<svg width="813" height="700" viewBox="0 0 813 700" fill="none" xmlns="http://www.w3.org/2000/svg">
<mask id="path-1-inside-1_1988_1029" fill="white">
<path fill-rule="evenodd" clip-rule="evenodd" d="M306.141 0C295.095 0 286.141 8.95431 286.141 20V175.338C286.141 186.384 295.095 195.338 306.141 195.338H321V242.477C321 248.083 328.005 250.627 331.602 246.327L353 220.75L375.128 195.338H793.005C804.05 195.338 813.005 186.384 813.005 175.338V20C813.005 8.95431 804.05 0 793.004 0H306.141Z"/>
</mask>
<path fill-rule="evenodd" clip-rule="evenodd" d="M306.141 0C295.095 0 286.141 8.95431 286.141 20V175.338C286.141 186.384 295.095 195.338 306.141 195.338H321V242.477C321 248.083 328.005 250.627 331.602 246.327L353 220.75L375.128 195.338H793.005C804.05 195.338 813.005 186.384 813.005 175.338V20C813.005 8.95431 804.05 0 793.004 0H306.141Z" fill="#BEE0F1"/>
<path d="M321 195.338H323V193.338H321V195.338ZM331.602 246.327L330.068 245.044L330.068 245.044L331.602 246.327ZM353 220.75L351.492 219.437L351.479 219.452L351.466 219.467L353 220.75ZM375.128 195.338V193.338H374.217L373.619 194.025L375.128 195.338ZM288.141 20C288.141 10.0589 296.2 2 306.141 2V-2C293.99 -2 284.141 7.84974 284.141 20H288.141ZM288.141 175.338V20H284.141V175.338H288.141ZM306.141 193.338C296.2 193.338 288.141 185.279 288.141 175.338H284.141C284.141 187.488 293.99 197.338 306.141 197.338V193.338ZM321 193.338H306.141V197.338H321V193.338ZM323 242.477V195.338H319V242.477H323ZM330.068 245.044C327.67 247.911 323 246.215 323 242.477H319C319 249.952 328.34 253.344 333.136 247.611L330.068 245.044ZM351.466 219.467L330.068 245.044L333.136 247.611L354.534 222.033L351.466 219.467ZM373.619 194.025L351.492 219.437L354.508 222.063L376.636 196.651L373.619 194.025ZM793.005 193.338H375.128V197.338H793.005V193.338ZM811.005 175.338C811.005 185.279 802.946 193.338 793.005 193.338V197.338C805.155 197.338 815.005 187.488 815.005 175.338H811.005ZM811.005 20V175.338H815.005V20H811.005ZM793.004 2C802.946 2 811.005 10.0589 811.005 20H815.005C815.005 7.84973 805.155 -2 793.004 -2V2ZM306.141 2H793.004V-2H306.141V2Z" fill="white" mask="url(#path-1-inside-1_1988_1029)"/>
<path d="M501.852 171.148C496.694 217.163 449.427 309.368 421.026 352.798L340.906 327.241C382.894 252.815 429.85 202.779 464.344 168.385C472.611 160.143 484.978 157.613 495.872 161.823C499.739 163.317 502.313 167.03 501.852 171.148Z" fill="white"/>
<path d="M501.555 171.511C498.448 189.798 491.675 219.712 471.875 261.001C471.875 261.001 471.504 216.534 459.373 210.73C447.243 204.927 407.51 230.234 407.51 230.234C421.404 214.205 446.327 182.718 466.867 166.016C474.377 159.908 484.362 158.678 493.865 160.539C498.975 161.54 502.427 166.38 501.555 171.511Z" fill="#FF9100"/>
<path d="M97.7812 171.148C102.939 217.163 150.206 309.368 178.607 352.798L258.727 327.241C216.738 252.815 169.783 202.779 135.288 168.385C127.022 160.143 114.654 157.613 103.761 161.823C99.8935 163.317 97.3195 167.03 97.7812 171.148Z" fill="white"/>
<path d="M98.0701 171.511C101.177 189.798 107.95 219.712 127.75 261.001C127.75 261.001 128.121 216.534 140.252 210.73C152.382 204.927 192.115 230.234 192.115 230.234C178.221 214.205 153.298 182.718 132.758 166.016C125.248 159.908 115.263 158.678 105.76 160.539C100.65 161.54 97.1982 166.38 98.0701 171.511Z" fill="#FF9100"/>
<path d="M454.189 432.769C454.189 511.134 381.812 574.661 292.532 574.661C203.251 574.661 130.875 511.134 130.875 432.769C130.875 354.404 203.251 290.877 292.532 290.877C381.812 290.877 454.189 354.404 454.189 432.769Z" fill="white"/>
<ellipse cx="292.763" cy="444.357" rx="132.544" ry="101.926" fill="#35373A"/>
<g filter="url(#filter0_d_1988_1029)">
<mask id="mask0_1988_1029" style="mask-type:alpha" maskUnits="userSpaceOnUse" x="185" y="397" width="94" height="60">
<ellipse cx="197.286" cy="400.947" rx="3.47305" ry="3.47011" fill="#F29111"/>
<ellipse cx="197.286" cy="409.622" rx="3.47305" ry="3.47011" fill="#F29111"/>
<ellipse cx="197.286" cy="418.298" rx="3.47305" ry="3.47011" fill="#F29111"/>
<ellipse cx="197.286" cy="426.974" rx="3.47305" ry="3.47011" fill="#F29111"/>
<ellipse cx="197.286" cy="435.648" rx="3.47305" ry="3.47011" fill="#F29111"/>
<ellipse cx="205.973" cy="400.947" rx="3.47305" ry="3.47011" fill="#F29111"/>
<ellipse cx="205.973" cy="409.622" rx="3.47305" ry="3.47011" fill="#F29111"/>
<ellipse cx="205.973" cy="418.298" rx="3.47305" ry="3.47011" fill="#F29111"/>
<ellipse cx="205.973" cy="426.974" rx="3.47305" ry="3.47011" fill="#F29111"/>
<ellipse cx="205.973" cy="435.648" rx="3.47305" ry="3.47011" fill="#F29111"/>
<ellipse cx="188.606" cy="400.947" rx="3.47305" ry="3.47011" fill="#F29111"/>
<ellipse cx="188.606" cy="409.622" rx="3.47305" ry="3.47011" fill="#F29111"/>
<ellipse cx="188.606" cy="418.298" rx="3.47305" ry="3.47011" fill="#F29111"/>
<ellipse cx="188.606" cy="426.974" rx="3.47305" ry="3.47011" fill="#F29111"/>
<ellipse cx="188.606" cy="435.648" rx="3.47305" ry="3.47011" fill="#F29111"/>
<ellipse cx="214.653" cy="400.947" rx="3.47305" ry="3.47011" fill="#F29111"/>
<ellipse cx="214.653" cy="409.622" rx="3.47305" ry="3.47011" fill="#F29111"/>
<ellipse cx="214.653" cy="418.298" rx="3.47305" ry="3.47011" fill="#F29111"/>
<ellipse cx="214.653" cy="426.974" rx="3.47305" ry="3.47011" fill="#F29111"/>
<ellipse cx="214.653" cy="435.648" rx="3.47305" ry="3.47011" fill="#F29111"/>
<ellipse cx="232.02" cy="400.947" rx="3.47305" ry="3.47011" fill="#F29111"/>
<ellipse cx="232.02" cy="409.622" rx="3.47305" ry="3.47011" fill="#F29111"/>
<ellipse cx="232.02" cy="418.298" rx="3.47305" ry="3.47011" fill="#F29111"/>
<ellipse cx="232.02" cy="426.974" rx="3.47305" ry="3.47011" fill="#F29111"/>
<ellipse cx="232.02" cy="435.648" rx="3.47305" ry="3.47011" fill="#F29111"/>
<ellipse cx="258.067" cy="400.947" rx="3.47305" ry="3.47011" fill="#F29111"/>
<ellipse cx="258.067" cy="409.622" rx="3.47305" ry="3.47011" fill="#F29111"/>
<ellipse cx="258.067" cy="418.298" rx="3.47305" ry="3.47011" fill="#F29111"/>
<ellipse cx="258.067" cy="426.974" rx="3.47305" ry="3.47011" fill="#F29111"/>
<ellipse cx="258.067" cy="435.648" rx="3.47305" ry="3.47011" fill="#F29111"/>
<ellipse cx="240.7" cy="400.947" rx="3.47305" ry="3.47011" fill="#F29111"/>
<ellipse cx="240.7" cy="409.622" rx="3.47305" ry="3.47011" fill="#F29111"/>
<ellipse cx="240.7" cy="418.298" rx="3.47305" ry="3.47011" fill="#F29111"/>
<ellipse cx="240.7" cy="426.974" rx="3.47305" ry="3.47011" fill="#F29111"/>
<ellipse cx="240.7" cy="435.648" rx="3.47305" ry="3.47011" fill="#F29111"/>
<ellipse cx="266.746" cy="400.947" rx="3.47305" ry="3.47011" fill="#F29111"/>
<ellipse cx="266.746" cy="409.622" rx="3.47305" ry="3.47011" fill="#F29111"/>
<ellipse cx="266.746" cy="418.298" rx="3.47305" ry="3.47011" fill="#F29111"/>
<ellipse cx="266.746" cy="426.974" rx="3.47305" ry="3.47011" fill="#F29111"/>
<ellipse cx="266.746" cy="435.648" rx="3.47305" ry="3.47011" fill="#F29111"/>
<ellipse cx="223.332" cy="400.947" rx="3.47305" ry="3.47011" fill="#F29111"/>
<ellipse cx="223.332" cy="409.622" rx="3.47305" ry="3.47011" fill="#F29111"/>
<ellipse cx="223.332" cy="418.298" rx="3.47305" ry="3.47011" fill="#F29111"/>
<ellipse cx="223.332" cy="426.974" rx="3.47305" ry="3.47011" fill="#F29111"/>
<ellipse cx="223.332" cy="435.648" rx="3.47305" ry="3.47011" fill="#F29111"/>
<ellipse cx="249.379" cy="400.947" rx="3.47305" ry="3.47011" fill="#F29111"/>
<ellipse cx="249.379" cy="409.622" rx="3.47305" ry="3.47011" fill="#F29111"/>
<ellipse cx="249.379" cy="418.298" rx="3.47305" ry="3.47011" fill="#F29111"/>
<ellipse cx="249.379" cy="426.974" rx="3.47305" ry="3.47011" fill="#F29111"/>
<ellipse cx="249.379" cy="435.648" rx="3.47305" ry="3.47011" fill="#F29111"/>
<ellipse cx="275.434" cy="400.947" rx="3.47305" ry="3.47011" fill="#F29111"/>
<ellipse cx="275.434" cy="409.622" rx="3.47305" ry="3.47011" fill="#F29111"/>
<ellipse cx="275.434" cy="418.298" rx="3.47305" ry="3.47011" fill="#F29111"/>
<ellipse cx="275.434" cy="426.974" rx="3.47305" ry="3.47011" fill="#F29111"/>
<ellipse cx="275.434" cy="435.648" rx="3.47305" ry="3.47011" fill="#F29111"/>
<ellipse cx="197.286" cy="444.324" rx="3.47305" ry="3.47011" fill="#F29111"/>
<ellipse cx="197.286" cy="452.999" rx="3.47305" ry="3.47011" fill="#F29111"/>
<ellipse cx="205.973" cy="444.324" rx="3.47305" ry="3.47011" fill="#F29111"/>
<ellipse cx="205.973" cy="452.999" rx="3.47305" ry="3.47011" fill="#F29111"/>
<ellipse cx="188.606" cy="444.324" rx="3.47305" ry="3.47011" fill="#F29111"/>
<ellipse cx="188.606" cy="452.999" rx="3.47305" ry="3.47011" fill="#F29111"/>
<ellipse cx="214.653" cy="444.324" rx="3.47305" ry="3.47011" fill="#F29111"/>
<ellipse cx="214.653" cy="452.999" rx="3.47305" ry="3.47011" fill="#F29111"/>
<ellipse cx="232.02" cy="444.324" rx="3.47305" ry="3.47011" fill="#F29111"/>
<ellipse cx="232.02" cy="452.999" rx="3.47305" ry="3.47011" fill="#F29111"/>
<ellipse cx="258.067" cy="444.324" rx="3.47305" ry="3.47011" fill="#F29111"/>
<ellipse cx="258.067" cy="452.999" rx="3.47305" ry="3.47011" fill="#F29111"/>
<ellipse cx="240.7" cy="444.324" rx="3.47305" ry="3.47011" fill="#F29111"/>
<ellipse cx="240.7" cy="452.999" rx="3.47305" ry="3.47011" fill="#F29111"/>
<ellipse cx="266.746" cy="444.324" rx="3.47305" ry="3.47011" fill="#F29111"/>
<ellipse cx="266.746" cy="452.999" rx="3.47305" ry="3.47011" fill="#F29111"/>
<ellipse cx="223.332" cy="444.324" rx="3.47305" ry="3.47011" fill="#F29111"/>
<ellipse cx="223.332" cy="452.999" rx="3.47305" ry="3.47011" fill="#F29111"/>
<ellipse cx="249.379" cy="444.324" rx="3.47305" ry="3.47011" fill="#F29111"/>
<ellipse cx="249.379" cy="452.999" rx="3.47305" ry="3.47011" fill="#F29111"/>
<ellipse cx="275.434" cy="444.324" rx="3.47305" ry="3.47011" fill="#F29111"/>
<ellipse cx="275.434" cy="452.999" rx="3.47305" ry="3.47011" fill="#F29111"/>
</mask>
<g mask="url(#mask0_1988_1029)">
<path d="M274.394 452.637C274.394 452.637 255.346 434.531 231.85 434.531C208.353 434.531 189.305 456.023 189.305 452.637C189.305 425.239 208.353 403.029 231.85 403.029C255.346 403.029 274.394 425.239 274.394 452.637Z" fill="#F29111"/>
</g>
</g>
<g filter="url(#filter1_d_1988_1029)">
<mask id="mask1_1988_1029" style="mask-type:alpha" maskUnits="userSpaceOnUse" x="307" y="397" width="94" height="60">
<ellipse cx="319.161" cy="400.947" rx="3.47305" ry="3.47011" fill="#F29111"/>
<ellipse cx="319.161" cy="409.622" rx="3.47305" ry="3.47011" fill="#F29111"/>
<ellipse cx="319.161" cy="418.298" rx="3.47305" ry="3.47011" fill="#F29111"/>
<ellipse cx="319.161" cy="426.974" rx="3.47305" ry="3.47011" fill="#F29111"/>
<ellipse cx="319.161" cy="435.648" rx="3.47305" ry="3.47011" fill="#F29111"/>
<ellipse cx="327.848" cy="400.947" rx="3.47305" ry="3.47011" fill="#F29111"/>
<ellipse cx="327.848" cy="409.622" rx="3.47305" ry="3.47011" fill="#F29111"/>
<ellipse cx="327.848" cy="418.298" rx="3.47305" ry="3.47011" fill="#F29111"/>
<ellipse cx="327.848" cy="426.974" rx="3.47305" ry="3.47011" fill="#F29111"/>
<ellipse cx="327.848" cy="435.648" rx="3.47305" ry="3.47011" fill="#F29111"/>
<ellipse cx="310.481" cy="400.947" rx="3.47305" ry="3.47011" fill="#F29111"/>
<ellipse cx="310.481" cy="409.622" rx="3.47305" ry="3.47011" fill="#F29111"/>
<ellipse cx="310.481" cy="418.298" rx="3.47305" ry="3.47011" fill="#F29111"/>
<ellipse cx="310.481" cy="426.974" rx="3.47305" ry="3.47011" fill="#F29111"/>
<ellipse cx="310.481" cy="435.648" rx="3.47305" ry="3.47011" fill="#F29111"/>
<ellipse cx="336.528" cy="400.947" rx="3.47305" ry="3.47011" fill="#F29111"/>
<ellipse cx="336.528" cy="409.622" rx="3.47305" ry="3.47011" fill="#F29111"/>
<ellipse cx="336.528" cy="418.298" rx="3.47305" ry="3.47011" fill="#F29111"/>
<ellipse cx="336.528" cy="426.974" rx="3.47305" ry="3.47011" fill="#F29111"/>
<ellipse cx="336.528" cy="435.648" rx="3.47305" ry="3.47011" fill="#F29111"/>
<ellipse cx="353.895" cy="400.947" rx="3.47305" ry="3.47011" fill="#F29111"/>
<ellipse cx="353.895" cy="409.622" rx="3.47305" ry="3.47011" fill="#F29111"/>
<ellipse cx="353.895" cy="418.298" rx="3.47305" ry="3.47011" fill="#F29111"/>
<ellipse cx="353.895" cy="426.974" rx="3.47305" ry="3.47011" fill="#F29111"/>
<ellipse cx="353.895" cy="435.648" rx="3.47305" ry="3.47011" fill="#F29111"/>
<ellipse cx="379.942" cy="400.947" rx="3.47305" ry="3.47011" fill="#F29111"/>
<ellipse cx="379.942" cy="409.622" rx="3.47305" ry="3.47011" fill="#F29111"/>
<ellipse cx="379.942" cy="418.298" rx="3.47305" ry="3.47011" fill="#F29111"/>
<ellipse cx="379.942" cy="426.974" rx="3.47305" ry="3.47011" fill="#F29111"/>
<ellipse cx="379.942" cy="435.648" rx="3.47305" ry="3.47011" fill="#F29111"/>
<ellipse cx="362.575" cy="400.947" rx="3.47305" ry="3.47011" fill="#F29111"/>
<ellipse cx="362.575" cy="409.622" rx="3.47305" ry="3.47011" fill="#F29111"/>
<ellipse cx="362.575" cy="418.298" rx="3.47305" ry="3.47011" fill="#F29111"/>
<ellipse cx="362.575" cy="426.974" rx="3.47305" ry="3.47011" fill="#F29111"/>
<ellipse cx="362.575" cy="435.648" rx="3.47305" ry="3.47011" fill="#F29111"/>
<ellipse cx="388.621" cy="400.947" rx="3.47305" ry="3.47011" fill="#F29111"/>
<ellipse cx="388.621" cy="409.622" rx="3.47305" ry="3.47011" fill="#F29111"/>
<ellipse cx="388.621" cy="418.298" rx="3.47305" ry="3.47011" fill="#F29111"/>
<ellipse cx="388.621" cy="426.974" rx="3.47305" ry="3.47011" fill="#F29111"/>
<ellipse cx="388.621" cy="435.648" rx="3.47305" ry="3.47011" fill="#F29111"/>
<ellipse cx="345.207" cy="400.947" rx="3.47305" ry="3.47011" fill="#F29111"/>
<ellipse cx="345.207" cy="409.622" rx="3.47305" ry="3.47011" fill="#F29111"/>
<ellipse cx="345.207" cy="418.298" rx="3.47305" ry="3.47011" fill="#F29111"/>
<ellipse cx="345.207" cy="426.974" rx="3.47305" ry="3.47011" fill="#F29111"/>
<ellipse cx="345.207" cy="435.648" rx="3.47305" ry="3.47011" fill="#F29111"/>
<ellipse cx="371.254" cy="400.947" rx="3.47305" ry="3.47011" fill="#F29111"/>
<ellipse cx="371.254" cy="409.622" rx="3.47305" ry="3.47011" fill="#F29111"/>
<ellipse cx="371.254" cy="418.298" rx="3.47305" ry="3.47011" fill="#F29111"/>
<ellipse cx="371.254" cy="426.974" rx="3.47305" ry="3.47011" fill="#F29111"/>
<ellipse cx="371.254" cy="435.648" rx="3.47305" ry="3.47011" fill="#F29111"/>
<ellipse cx="397.309" cy="400.947" rx="3.47305" ry="3.47011" fill="#F29111"/>
<ellipse cx="397.309" cy="409.622" rx="3.47305" ry="3.47011" fill="#F29111"/>
<ellipse cx="397.309" cy="418.298" rx="3.47305" ry="3.47011" fill="#F29111"/>
<ellipse cx="397.309" cy="426.974" rx="3.47305" ry="3.47011" fill="#F29111"/>
<ellipse cx="397.309" cy="435.648" rx="3.47305" ry="3.47011" fill="#F29111"/>
<ellipse cx="319.161" cy="444.324" rx="3.47305" ry="3.47011" fill="#F29111"/>
<ellipse cx="319.161" cy="452.999" rx="3.47305" ry="3.47011" fill="#F29111"/>
<ellipse cx="327.848" cy="444.324" rx="3.47305" ry="3.47011" fill="#F29111"/>
<ellipse cx="327.848" cy="452.999" rx="3.47305" ry="3.47011" fill="#F29111"/>
<ellipse cx="310.481" cy="444.324" rx="3.47305" ry="3.47011" fill="#F29111"/>
<ellipse cx="310.481" cy="452.999" rx="3.47305" ry="3.47011" fill="#F29111"/>
<ellipse cx="336.528" cy="444.324" rx="3.47305" ry="3.47011" fill="#F29111"/>
<ellipse cx="336.528" cy="452.999" rx="3.47305" ry="3.47011" fill="#F29111"/>
<ellipse cx="353.895" cy="444.324" rx="3.47305" ry="3.47011" fill="#F29111"/>
<ellipse cx="353.895" cy="452.999" rx="3.47305" ry="3.47011" fill="#F29111"/>
<ellipse cx="379.942" cy="444.324" rx="3.47305" ry="3.47011" fill="#F29111"/>
<ellipse cx="379.942" cy="452.999" rx="3.47305" ry="3.47011" fill="#F29111"/>
<ellipse cx="362.575" cy="444.324" rx="3.47305" ry="3.47011" fill="#F29111"/>
<ellipse cx="362.575" cy="452.999" rx="3.47305" ry="3.47011" fill="#F29111"/>
<ellipse cx="388.621" cy="444.324" rx="3.47305" ry="3.47011" fill="#F29111"/>
<ellipse cx="388.621" cy="452.999" rx="3.47305" ry="3.47011" fill="#F29111"/>
<ellipse cx="345.207" cy="444.324" rx="3.47305" ry="3.47011" fill="#F29111"/>
<ellipse cx="345.207" cy="452.999" rx="3.47305" ry="3.47011" fill="#F29111"/>
<ellipse cx="371.254" cy="444.324" rx="3.47305" ry="3.47011" fill="#F29111"/>
<ellipse cx="371.254" cy="452.999" rx="3.47305" ry="3.47011" fill="#F29111"/>
<ellipse cx="397.309" cy="444.324" rx="3.47305" ry="3.47011" fill="#F29111"/>
<ellipse cx="397.309" cy="452.999" rx="3.47305" ry="3.47011" fill="#F29111"/>
</mask>
<g mask="url(#mask1_1988_1029)">
<path d="M396.262 452.637C396.262 452.637 377.214 434.531 353.717 434.531C330.22 434.531 311.172 456.023 311.172 452.637C311.172 425.239 330.22 403.029 353.717 403.029C377.214 403.029 396.262 425.239 396.262 452.637Z" fill="#F29111"/>
</g>
</g>
<g filter="url(#filter2_d_1988_1029)">
<path d="M410.132 559.41L412.607 549.521C414.056 543.728 418.019 538.886 423.41 536.319L431.126 532.645C439.397 528.707 449.285 530.89 455.128 537.945L505.573 598.855C509.314 603.372 509.002 609.995 504.853 614.14C499.51 619.479 491.29 620.664 484.656 617.052L419.97 581.83C411.965 577.471 407.92 568.252 410.132 559.41Z" fill="white"/>
</g>
<path d="M484.655 617.037L440.219 592.781L484.479 573.389L505.574 598.859C509.313 603.374 509.001 609.992 504.855 614.135C499.51 619.475 491.286 620.657 484.655 617.037Z" fill="#F29111"/>
<g filter="url(#filter3_d_1988_1029)">
<path d="M93.1911 459.012L102.558 454.879C108.019 452.468 112.118 447.744 113.733 441.998L116.035 433.807C118.516 424.979 114.675 415.594 106.715 411.037L38.0611 371.731C32.9772 368.821 26.5145 370.251 23.1363 375.035C18.775 381.211 19.0064 389.524 23.7048 395.45L69.4387 453.137C75.0966 460.273 84.8607 462.689 93.1911 459.012Z" fill="white"/>
</g>
<path d="M23.7202 395.447L55.1871 435.053L66.7832 388.176L38.0569 371.728C32.9761 368.819 26.5172 370.249 23.141 375.03C18.7785 381.208 19.0144 389.524 23.7202 395.447Z" fill="#F29111"/>
<ellipse cx="291.347" cy="665.474" rx="185.089" ry="34.527" fill="#35373A" fill-opacity="0.63"/>
<path d="M742.602 120.318L739.997 80.9114V54.6406H756.74V80.9114L754.136 120.318H742.602ZM739.625 144.73V129.24H757.112V144.73H739.625Z" fill="#273F4B"/>
<path d="M681.871 146.34C668.642 146.34 658.472 142.292 651.361 134.196C644.251 126.1 640.695 114.576 640.695 99.6228C640.695 84.7525 644.251 73.2694 651.361 65.1734C658.555 57.0773 668.725 53.0293 681.871 53.0293C695.018 53.0293 705.146 57.0773 712.257 65.1734C719.45 73.2694 723.047 84.7525 723.047 99.6228C723.047 114.576 719.492 126.1 712.381 134.196C705.27 142.292 695.1 146.34 681.871 146.34ZM681.871 133.081C698.821 133.081 707.296 121.928 707.296 99.6228C707.296 88.6353 705.146 80.3328 700.847 74.7151C696.547 69.0975 690.222 66.2886 681.871 66.2886C673.52 66.2886 667.195 69.0975 662.896 74.7151C658.596 80.3328 656.446 88.6353 656.446 99.6228C656.446 121.928 664.921 133.081 681.871 133.081Z" fill="#273F4B"/>
<path d="M576.82 144.73V54.6406H592.323V130.851H634.243V144.73H576.82Z" fill="#273F4B"/>
<path d="M506.211 144.73V54.6406H521.714V130.851H563.634V144.73H506.211Z" fill="#273F4B"/>
<path d="M433.055 144.73V54.6406H490.23V67.776H448.558V92.5598H486.633V105.695H448.558V131.594H491.47V144.73H433.055Z" fill="#273F4B"/>
<path d="M341.008 144.73V54.6406H356.511V92.1881H398.679V54.6406H414.182V144.73H398.679V105.323H356.511V144.73H341.008Z" fill="#273F4B"/>
<defs>
<filter id="filter0_d_1988_1029" x="173.305" y="391.029" width="117.086" height="81.9688" filterUnits="userSpaceOnUse" color-interpolation-filters="sRGB">
<feFlood flood-opacity="0" result="BackgroundImageFix"/>
<feColorMatrix in="SourceAlpha" type="matrix" values="0 0 0 0 0 0 0 0 0 0 0 0 0 0 0 0 0 0 127 0" result="hardAlpha"/>
<feOffset dy="4"/>
<feGaussianBlur stdDeviation="8"/>
<feComposite in2="hardAlpha" operator="out"/>
<feColorMatrix type="matrix" values="0 0 0 0 1 0 0 0 0 0.748624 0 0 0 0 0.416911 0 0 0 0.48 0"/>
<feBlend mode="normal" in2="BackgroundImageFix" result="effect1_dropShadow_1988_1029"/>
<feBlend mode="normal" in="SourceGraphic" in2="effect1_dropShadow_1988_1029" result="shape"/>
</filter>
<filter id="filter1_d_1988_1029" x="295.172" y="391.029" width="117.086" height="81.9688" filterUnits="userSpaceOnUse" color-interpolation-filters="sRGB">
<feFlood flood-opacity="0" result="BackgroundImageFix"/>
<feColorMatrix in="SourceAlpha" type="matrix" values="0 0 0 0 0 0 0 0 0 0 0 0 0 0 0 0 0 0 127 0" result="hardAlpha"/>
<feOffset dy="4"/>
<feGaussianBlur stdDeviation="8"/>
<feComposite in2="hardAlpha" operator="out"/>
<feColorMatrix type="matrix" values="0 0 0 0 1 0 0 0 0 0.748624 0 0 0 0 0.416911 0 0 0 0.48 0"/>
<feBlend mode="normal" in2="BackgroundImageFix" result="effect1_dropShadow_1988_1029"/>
<feBlend mode="normal" in="SourceGraphic" in2="effect1_dropShadow_1988_1029" result="shape"/>
</filter>
<filter id="filter2_d_1988_1029" x="389.531" y="530.701" width="130.656" height="124.426" filterUnits="userSpaceOnUse" color-interpolation-filters="sRGB">
<feFlood flood-opacity="0" result="BackgroundImageFix"/>
<feColorMatrix in="SourceAlpha" type="matrix" values="0 0 0 0 0 0 0 0 0 0 0 0 0 0 0 0 0 0 127 0" result="hardAlpha"/>
<feOffset dx="-4" dy="20"/>
<feGaussianBlur stdDeviation="8"/>
<feComposite in2="hardAlpha" operator="out"/>
<feColorMatrix type="matrix" values="0 0 0 0 0 0 0 0 0 0 0 0 0 0 0 0 0 0 0.25 0"/>
<feBlend mode="normal" in2="BackgroundImageFix" result="effect1_dropShadow_1988_1029"/>
<feBlend mode="normal" in="SourceGraphic" in2="effect1_dropShadow_1988_1029" result="shape"/>
</filter>
<filter id="filter3_d_1988_1029" x="0.015625" y="370.229" width="128.766" height="126.488" filterUnits="userSpaceOnUse" color-interpolation-filters="sRGB">
<feFlood flood-opacity="0" result="BackgroundImageFix"/>
<feColorMatrix in="SourceAlpha" type="matrix" values="0 0 0 0 0 0 0 0 0 0 0 0 0 0 0 0 0 0 127 0" result="hardAlpha"/>
<feOffset dx="-4" dy="20"/>
<feGaussianBlur stdDeviation="8"/>
<feComposite in2="hardAlpha" operator="out"/>
<feColorMatrix type="matrix" values="0 0 0 0 0 0 0 0 0 0 0 0 0 0 0 0 0 0 0.25 0"/>
<feBlend mode="normal" in2="BackgroundImageFix" result="effect1_dropShadow_1988_1029"/>
<feBlend mode="normal" in="SourceGraphic" in2="effect1_dropShadow_1988_1029" result="shape"/>
</filter>
</defs>
</svg>
