<svg width="800" height="497" viewBox="0 0 800 497" fill="none" xmlns="http://www.w3.org/2000/svg">
<path fill-rule="evenodd" clip-rule="evenodd" d="M431.118 0C442.164 0 451.118 8.95432 451.118 20V147.423C451.118 158.469 442.164 167.423 431.118 167.423H421.532V212.354C421.532 215.937 417.184 217.713 414.676 215.155L394.174 194.239L366.815 167.423H20.0039C8.95822 167.423 0.00390625 158.469 0.00390625 147.423V20C0.00390625 8.95431 8.95822 0 20.0039 0H431.118Z" fill="#BEE0F1"/>
<mask id="mask0_1992_118" style="mask-type:luminance" maskUnits="userSpaceOnUse" x="0" y="0" width="452" height="217">
<path fill-rule="evenodd" clip-rule="evenodd" d="M431.118 0C442.164 0 451.118 8.95432 451.118 20V147.423C451.118 158.469 442.164 167.423 431.118 167.423H421.532V212.354C421.532 215.937 417.184 217.713 414.676 215.155L394.174 194.239L366.815 167.423H20.0039C8.95822 167.423 0.00390625 158.469 0.00390625 147.423V20C0.00390625 8.95431 8.95822 0 20.0039 0H431.118Z" fill="white"/>
</mask>
<g mask="url(#mask0_1992_118)">
<path d="M421.532 167.423H419.532V165.423H421.532V167.423ZM394.174 194.239L395.574 192.81L395.588 192.824L395.602 192.839L394.174 194.239ZM366.815 167.423V165.423H367.632L368.215 165.995L366.815 167.423ZM449.118 20C449.118 10.0589 441.059 2 431.118 2V-2C443.268 -2 453.118 7.84975 453.118 20H449.118ZM449.118 147.423V20H453.118V147.423H449.118ZM431.118 165.423C441.059 165.423 449.118 157.364 449.118 147.423H453.118C453.118 159.573 443.268 169.423 431.118 169.423V165.423ZM421.532 165.423H431.118V169.423H421.532V165.423ZM419.532 212.354V167.423H423.532V212.354H419.532ZM416.104 213.754C417.358 215.034 419.532 214.146 419.532 212.354H423.532C423.532 217.729 417.01 220.393 413.247 216.555L416.104 213.754ZM395.602 192.839L416.104 213.754L413.247 216.555L392.745 195.639L395.602 192.839ZM368.215 165.995L395.574 192.81L392.774 195.667L365.415 168.851L368.215 165.995ZM20.0039 165.423H366.815V169.423H20.0039V165.423ZM2.00391 147.423C2.00391 157.364 10.0628 165.423 20.0039 165.423V169.423C7.85366 169.423 -1.99609 159.573 -1.99609 147.423H2.00391ZM2.00391 20V147.423H-1.99609V20H2.00391ZM20.0039 2C10.0628 2 2.00391 10.0589 2.00391 20H-1.99609C-1.99609 7.84974 7.85366 -2 20.0039 -2V2ZM431.118 2H20.0039V-2H431.118V2Z" fill="white"/>
</g>
<path d="M763.884 43.7167C759.474 83.1522 718.997 162.191 694.678 199.418L626.078 177.513C662.027 113.727 702.228 70.8426 731.763 41.3641C738.843 34.2967 749.44 32.127 758.77 35.7356C762.078 37.0151 764.279 40.1918 763.884 43.7167Z" fill="white"/>
<path d="M763.642 44.0235C760.983 59.6957 755.185 85.3386 738.227 120.736C738.227 120.736 737.91 82.6242 727.523 77.6497C717.137 72.6752 683.117 94.3661 683.117 94.3661C695.012 80.629 716.348 53.6471 733.933 39.3301C740.366 34.092 748.922 33.0368 757.063 34.6325C761.435 35.4895 764.388 39.6309 763.642 44.0235Z" fill="#FF9100"/>
<path d="M417.909 43.7167C422.319 83.1522 462.795 162.191 487.115 199.418L555.715 177.513C519.766 113.727 479.565 70.8426 450.03 41.3641C442.949 34.2967 432.353 32.127 423.023 35.7356C419.715 37.0151 417.514 40.1918 417.909 43.7167Z" fill="white"/>
<path d="M418.158 44.0235C420.817 59.6957 426.615 85.3386 443.573 120.736C443.573 120.736 443.89 82.6242 454.277 77.6497C464.663 72.6752 498.683 94.3661 498.683 94.3661C486.788 80.629 465.452 53.6471 447.867 39.3301C441.433 34.092 432.878 33.0368 424.737 34.6325C420.365 35.4895 417.412 39.6309 418.158 44.0235Z" fill="#FF9100"/>
<path d="M723.08 267.958C723.08 335.124 661.109 389.573 584.665 389.573C508.22 389.573 446.25 335.124 446.25 267.958C446.25 200.793 508.22 146.344 584.665 146.344C661.109 146.344 723.08 200.793 723.08 267.958Z" fill="white"/>
<path d="M584.863 365.253C647.541 365.253 698.351 326.141 698.351 277.893C698.351 229.646 647.541 190.533 584.863 190.533C522.185 190.533 471.375 229.646 471.375 277.893C471.375 326.141 522.185 365.253 584.863 365.253Z" fill="#35373A"/>
<g filter="url(#filter0_d_1992_118)">
<mask id="mask1_1992_118" style="mask-type:alpha" maskUnits="userSpaceOnUse" x="492" y="237" width="81" height="52">
<path d="M503.122 243.659C504.764 243.659 506.096 242.328 506.096 240.685C506.096 239.043 504.764 237.711 503.122 237.711C501.48 237.711 500.148 239.043 500.148 240.685C500.148 242.328 501.48 243.659 503.122 243.659Z" fill="#F29111"/>
<path d="M503.122 251.097C504.764 251.097 506.096 249.765 506.096 248.123C506.096 246.48 504.764 245.148 503.122 245.148C501.48 245.148 500.148 246.48 500.148 248.123C500.148 249.765 501.48 251.097 503.122 251.097Z" fill="#F29111"/>
<path d="M503.122 258.53C504.764 258.53 506.096 257.199 506.096 255.556C506.096 253.914 504.764 252.582 503.122 252.582C501.48 252.582 500.148 253.914 500.148 255.556C500.148 257.199 501.48 258.53 503.122 258.53Z" fill="#F29111"/>
<path d="M503.122 265.966C504.764 265.966 506.096 264.634 506.096 262.992C506.096 261.349 504.764 260.018 503.122 260.018C501.48 260.018 500.148 261.349 500.148 262.992C500.148 264.634 501.48 265.966 503.122 265.966Z" fill="#F29111"/>
<path d="M503.122 273.402C504.764 273.402 506.096 272.07 506.096 270.427C506.096 268.785 504.764 267.453 503.122 267.453C501.48 267.453 500.148 268.785 500.148 270.427C500.148 272.07 501.48 273.402 503.122 273.402Z" fill="#F29111"/>
<path d="M510.552 243.659C512.194 243.659 513.526 242.328 513.526 240.685C513.526 239.043 512.194 237.711 510.552 237.711C508.91 237.711 507.578 239.043 507.578 240.685C507.578 242.328 508.91 243.659 510.552 243.659Z" fill="#F29111"/>
<path d="M510.552 251.097C512.194 251.097 513.526 249.765 513.526 248.123C513.526 246.48 512.194 245.148 510.552 245.148C508.91 245.148 507.578 246.48 507.578 248.123C507.578 249.765 508.91 251.097 510.552 251.097Z" fill="#F29111"/>
<path d="M510.552 258.53C512.194 258.53 513.526 257.199 513.526 255.556C513.526 253.914 512.194 252.582 510.552 252.582C508.91 252.582 507.578 253.914 507.578 255.556C507.578 257.199 508.91 258.53 510.552 258.53Z" fill="#F29111"/>
<path d="M510.552 265.966C512.194 265.966 513.526 264.634 513.526 262.992C513.526 261.349 512.194 260.018 510.552 260.018C508.91 260.018 507.578 261.349 507.578 262.992C507.578 264.634 508.91 265.966 510.552 265.966Z" fill="#F29111"/>
<path d="M510.552 273.402C512.194 273.402 513.526 272.07 513.526 270.427C513.526 268.785 512.194 267.453 510.552 267.453C508.91 267.453 507.578 268.785 507.578 270.427C507.578 272.07 508.91 273.402 510.552 273.402Z" fill="#F29111"/>
<path d="M495.685 243.659C497.327 243.659 498.658 242.328 498.658 240.685C498.658 239.043 497.327 237.711 495.685 237.711C494.042 237.711 492.711 239.043 492.711 240.685C492.711 242.328 494.042 243.659 495.685 243.659Z" fill="#F29111"/>
<path d="M495.685 251.097C497.327 251.097 498.658 249.765 498.658 248.123C498.658 246.48 497.327 245.148 495.685 245.148C494.042 245.148 492.711 246.48 492.711 248.123C492.711 249.765 494.042 251.097 495.685 251.097Z" fill="#F29111"/>
<path d="M495.685 258.53C497.327 258.53 498.658 257.199 498.658 255.556C498.658 253.914 497.327 252.582 495.685 252.582C494.042 252.582 492.711 253.914 492.711 255.556C492.711 257.199 494.042 258.53 495.685 258.53Z" fill="#F29111"/>
<path d="M495.685 265.966C497.327 265.966 498.658 264.634 498.658 262.992C498.658 261.349 497.327 260.018 495.685 260.018C494.042 260.018 492.711 261.349 492.711 262.992C492.711 264.634 494.042 265.966 495.685 265.966Z" fill="#F29111"/>
<path d="M495.685 273.402C497.327 273.402 498.658 272.07 498.658 270.427C498.658 268.785 497.327 267.453 495.685 267.453C494.042 267.453 492.711 268.785 492.711 270.427C492.711 272.07 494.042 273.402 495.685 273.402Z" fill="#F29111"/>
<path d="M517.989 243.659C519.632 243.659 520.963 242.328 520.963 240.685C520.963 239.043 519.632 237.711 517.989 237.711C516.347 237.711 515.016 239.043 515.016 240.685C515.016 242.328 516.347 243.659 517.989 243.659Z" fill="#F29111"/>
<path d="M517.989 251.097C519.632 251.097 520.963 249.765 520.963 248.123C520.963 246.48 519.632 245.148 517.989 245.148C516.347 245.148 515.016 246.48 515.016 248.123C515.016 249.765 516.347 251.097 517.989 251.097Z" fill="#F29111"/>
<path d="M517.989 258.53C519.632 258.53 520.963 257.199 520.963 255.556C520.963 253.914 519.632 252.582 517.989 252.582C516.347 252.582 515.016 253.914 515.016 255.556C515.016 257.199 516.347 258.53 517.989 258.53Z" fill="#F29111"/>
<path d="M517.989 265.966C519.632 265.966 520.963 264.634 520.963 262.992C520.963 261.349 519.632 260.018 517.989 260.018C516.347 260.018 515.016 261.349 515.016 262.992C515.016 264.634 516.347 265.966 517.989 265.966Z" fill="#F29111"/>
<path d="M517.989 273.402C519.632 273.402 520.963 272.07 520.963 270.427C520.963 268.785 519.632 267.453 517.989 267.453C516.347 267.453 515.016 268.785 515.016 270.427C515.016 272.07 516.347 273.402 517.989 273.402Z" fill="#F29111"/>
<path d="M532.857 243.659C534.499 243.659 535.83 242.328 535.83 240.685C535.83 239.043 534.499 237.711 532.857 237.711C531.214 237.711 529.883 239.043 529.883 240.685C529.883 242.328 531.214 243.659 532.857 243.659Z" fill="#F29111"/>
<path d="M532.857 251.097C534.499 251.097 535.83 249.765 535.83 248.123C535.83 246.48 534.499 245.148 532.857 245.148C531.214 245.148 529.883 246.48 529.883 248.123C529.883 249.765 531.214 251.097 532.857 251.097Z" fill="#F29111"/>
<path d="M532.857 258.53C534.499 258.53 535.83 257.199 535.83 255.556C535.83 253.914 534.499 252.582 532.857 252.582C531.214 252.582 529.883 253.914 529.883 255.556C529.883 257.199 531.214 258.53 532.857 258.53Z" fill="#F29111"/>
<path d="M532.857 265.966C534.499 265.966 535.83 264.634 535.83 262.992C535.83 261.349 534.499 260.018 532.857 260.018C531.214 260.018 529.883 261.349 529.883 262.992C529.883 264.634 531.214 265.966 532.857 265.966Z" fill="#F29111"/>
<path d="M532.857 273.402C534.499 273.402 535.83 272.07 535.83 270.427C535.83 268.785 534.499 267.453 532.857 267.453C531.214 267.453 529.883 268.785 529.883 270.427C529.883 272.07 531.214 273.402 532.857 273.402Z" fill="#F29111"/>
<path d="M555.161 243.659C556.804 243.659 558.135 242.328 558.135 240.685C558.135 239.043 556.804 237.711 555.161 237.711C553.519 237.711 552.188 239.043 552.188 240.685C552.188 242.328 553.519 243.659 555.161 243.659Z" fill="#F29111"/>
<path d="M555.161 251.097C556.804 251.097 558.135 249.765 558.135 248.123C558.135 246.48 556.804 245.148 555.161 245.148C553.519 245.148 552.188 246.48 552.188 248.123C552.188 249.765 553.519 251.097 555.161 251.097Z" fill="#F29111"/>
<path d="M555.161 258.53C556.804 258.53 558.135 257.199 558.135 255.556C558.135 253.914 556.804 252.582 555.161 252.582C553.519 252.582 552.188 253.914 552.188 255.556C552.188 257.199 553.519 258.53 555.161 258.53Z" fill="#F29111"/>
<path d="M555.161 265.966C556.804 265.966 558.135 264.634 558.135 262.992C558.135 261.349 556.804 260.018 555.161 260.018C553.519 260.018 552.188 261.349 552.188 262.992C552.188 264.634 553.519 265.966 555.161 265.966Z" fill="#F29111"/>
<path d="M555.161 273.402C556.804 273.402 558.135 272.07 558.135 270.427C558.135 268.785 556.804 267.453 555.161 267.453C553.519 267.453 552.188 268.785 552.188 270.427C552.188 272.07 553.519 273.402 555.161 273.402Z" fill="#F29111"/>
<path d="M540.294 243.659C541.936 243.659 543.268 242.328 543.268 240.685C543.268 239.043 541.936 237.711 540.294 237.711C538.652 237.711 537.32 239.043 537.32 240.685C537.32 242.328 538.652 243.659 540.294 243.659Z" fill="#F29111"/>
<path d="M540.294 251.097C541.936 251.097 543.268 249.765 543.268 248.123C543.268 246.48 541.936 245.148 540.294 245.148C538.652 245.148 537.32 246.48 537.32 248.123C537.32 249.765 538.652 251.097 540.294 251.097Z" fill="#F29111"/>
<path d="M540.294 258.53C541.936 258.53 543.268 257.199 543.268 255.556C543.268 253.914 541.936 252.582 540.294 252.582C538.652 252.582 537.32 253.914 537.32 255.556C537.32 257.199 538.652 258.53 540.294 258.53Z" fill="#F29111"/>
<path d="M540.294 265.966C541.936 265.966 543.268 264.634 543.268 262.992C543.268 261.349 541.936 260.018 540.294 260.018C538.652 260.018 537.32 261.349 537.32 262.992C537.32 264.634 538.652 265.966 540.294 265.966Z" fill="#F29111"/>
<path d="M540.294 273.402C541.936 273.402 543.268 272.07 543.268 270.427C543.268 268.785 541.936 267.453 540.294 267.453C538.652 267.453 537.32 268.785 537.32 270.427C537.32 272.07 538.652 273.402 540.294 273.402Z" fill="#F29111"/>
<path d="M562.591 243.659C564.233 243.659 565.565 242.328 565.565 240.685C565.565 239.043 564.233 237.711 562.591 237.711C560.949 237.711 559.617 239.043 559.617 240.685C559.617 242.328 560.949 243.659 562.591 243.659Z" fill="#F29111"/>
<path d="M562.591 251.097C564.233 251.097 565.565 249.765 565.565 248.123C565.565 246.48 564.233 245.148 562.591 245.148C560.949 245.148 559.617 246.48 559.617 248.123C559.617 249.765 560.949 251.097 562.591 251.097Z" fill="#F29111"/>
<path d="M562.591 258.53C564.233 258.53 565.565 257.199 565.565 255.556C565.565 253.914 564.233 252.582 562.591 252.582C560.949 252.582 559.617 253.914 559.617 255.556C559.617 257.199 560.949 258.53 562.591 258.53Z" fill="#F29111"/>
<path d="M562.591 265.966C564.233 265.966 565.565 264.634 565.565 262.992C565.565 261.349 564.233 260.018 562.591 260.018C560.949 260.018 559.617 261.349 559.617 262.992C559.617 264.634 560.949 265.966 562.591 265.966Z" fill="#F29111"/>
<path d="M562.591 273.402C564.233 273.402 565.565 272.07 565.565 270.427C565.565 268.785 564.233 267.453 562.591 267.453C560.949 267.453 559.617 268.785 559.617 270.427C559.617 272.07 560.949 273.402 562.591 273.402Z" fill="#F29111"/>
<path d="M525.419 243.659C527.061 243.659 528.393 242.328 528.393 240.685C528.393 239.043 527.061 237.711 525.419 237.711C523.777 237.711 522.445 239.043 522.445 240.685C522.445 242.328 523.777 243.659 525.419 243.659Z" fill="#F29111"/>
<path d="M525.419 251.097C527.061 251.097 528.393 249.765 528.393 248.123C528.393 246.48 527.061 245.148 525.419 245.148C523.777 245.148 522.445 246.48 522.445 248.123C522.445 249.765 523.777 251.097 525.419 251.097Z" fill="#F29111"/>
<path d="M525.419 258.53C527.061 258.53 528.393 257.199 528.393 255.556C528.393 253.914 527.061 252.582 525.419 252.582C523.777 252.582 522.445 253.914 522.445 255.556C522.445 257.199 523.777 258.53 525.419 258.53Z" fill="#F29111"/>
<path d="M525.419 265.966C527.061 265.966 528.393 264.634 528.393 262.992C528.393 261.349 527.061 260.018 525.419 260.018C523.777 260.018 522.445 261.349 522.445 262.992C522.445 264.634 523.777 265.966 525.419 265.966Z" fill="#F29111"/>
<path d="M525.419 273.402C527.061 273.402 528.393 272.07 528.393 270.427C528.393 268.785 527.061 267.453 525.419 267.453C523.777 267.453 522.445 268.785 522.445 270.427C522.445 272.07 523.777 273.402 525.419 273.402Z" fill="#F29111"/>
<path d="M547.724 243.659C549.366 243.659 550.697 242.328 550.697 240.685C550.697 239.043 549.366 237.711 547.724 237.711C546.081 237.711 544.75 239.043 544.75 240.685C544.75 242.328 546.081 243.659 547.724 243.659Z" fill="#F29111"/>
<path d="M547.724 251.097C549.366 251.097 550.697 249.765 550.697 248.123C550.697 246.48 549.366 245.148 547.724 245.148C546.081 245.148 544.75 246.48 544.75 248.123C544.75 249.765 546.081 251.097 547.724 251.097Z" fill="#F29111"/>
<path d="M547.724 258.53C549.366 258.53 550.697 257.199 550.697 255.556C550.697 253.914 549.366 252.582 547.724 252.582C546.081 252.582 544.75 253.914 544.75 255.556C544.75 257.199 546.081 258.53 547.724 258.53Z" fill="#F29111"/>
<path d="M547.724 265.966C549.366 265.966 550.697 264.634 550.697 262.992C550.697 261.349 549.366 260.018 547.724 260.018C546.081 260.018 544.75 261.349 544.75 262.992C544.75 264.634 546.081 265.966 547.724 265.966Z" fill="#F29111"/>
<path d="M547.724 273.402C549.366 273.402 550.697 272.07 550.697 270.427C550.697 268.785 549.366 267.453 547.724 267.453C546.081 267.453 544.75 268.785 544.75 270.427C544.75 272.07 546.081 273.402 547.724 273.402Z" fill="#F29111"/>
<path d="M570.028 243.659C571.671 243.659 573.002 242.328 573.002 240.685C573.002 239.043 571.671 237.711 570.028 237.711C568.386 237.711 567.055 239.043 567.055 240.685C567.055 242.328 568.386 243.659 570.028 243.659Z" fill="#F29111"/>
<path d="M570.028 251.097C571.671 251.097 573.002 249.765 573.002 248.123C573.002 246.48 571.671 245.148 570.028 245.148C568.386 245.148 567.055 246.48 567.055 248.123C567.055 249.765 568.386 251.097 570.028 251.097Z" fill="#F29111"/>
<path d="M570.028 258.53C571.671 258.53 573.002 257.199 573.002 255.556C573.002 253.914 571.671 252.582 570.028 252.582C568.386 252.582 567.055 253.914 567.055 255.556C567.055 257.199 568.386 258.53 570.028 258.53Z" fill="#F29111"/>
<path d="M570.028 265.966C571.671 265.966 573.002 264.634 573.002 262.992C573.002 261.349 571.671 260.018 570.028 260.018C568.386 260.018 567.055 261.349 567.055 262.992C567.055 264.634 568.386 265.966 570.028 265.966Z" fill="#F29111"/>
<path d="M570.028 273.402C571.671 273.402 573.002 272.07 573.002 270.427C573.002 268.785 571.671 267.453 570.028 267.453C568.386 267.453 567.055 268.785 567.055 270.427C567.055 272.07 568.386 273.402 570.028 273.402Z" fill="#F29111"/>
<path d="M503.122 280.837C504.764 280.837 506.096 279.505 506.096 277.863C506.096 276.22 504.764 274.889 503.122 274.889C501.48 274.889 500.148 276.22 500.148 277.863C500.148 279.505 501.48 280.837 503.122 280.837Z" fill="#F29111"/>
<path d="M503.122 288.275C504.764 288.275 506.096 286.943 506.096 285.3C506.096 283.658 504.764 282.326 503.122 282.326C501.48 282.326 500.148 283.658 500.148 285.3C500.148 286.943 501.48 288.275 503.122 288.275Z" fill="#F29111"/>
<path d="M510.552 280.837C512.194 280.837 513.526 279.505 513.526 277.863C513.526 276.22 512.194 274.889 510.552 274.889C508.91 274.889 507.578 276.22 507.578 277.863C507.578 279.505 508.91 280.837 510.552 280.837Z" fill="#F29111"/>
<path d="M510.552 288.275C512.194 288.275 513.526 286.943 513.526 285.3C513.526 283.658 512.194 282.326 510.552 282.326C508.91 282.326 507.578 283.658 507.578 285.3C507.578 286.943 508.91 288.275 510.552 288.275Z" fill="#F29111"/>
<path d="M495.685 280.837C497.327 280.837 498.658 279.505 498.658 277.863C498.658 276.22 497.327 274.889 495.685 274.889C494.042 274.889 492.711 276.22 492.711 277.863C492.711 279.505 494.042 280.837 495.685 280.837Z" fill="#F29111"/>
<path d="M495.685 288.275C497.327 288.275 498.658 286.943 498.658 285.3C498.658 283.658 497.327 282.326 495.685 282.326C494.042 282.326 492.711 283.658 492.711 285.3C492.711 286.943 494.042 288.275 495.685 288.275Z" fill="#F29111"/>
<path d="M517.989 280.837C519.632 280.837 520.963 279.505 520.963 277.863C520.963 276.22 519.632 274.889 517.989 274.889C516.347 274.889 515.016 276.22 515.016 277.863C515.016 279.505 516.347 280.837 517.989 280.837Z" fill="#F29111"/>
<path d="M517.989 288.275C519.632 288.275 520.963 286.943 520.963 285.3C520.963 283.658 519.632 282.326 517.989 282.326C516.347 282.326 515.016 283.658 515.016 285.3C515.016 286.943 516.347 288.275 517.989 288.275Z" fill="#F29111"/>
<path d="M532.857 280.837C534.499 280.837 535.83 279.505 535.83 277.863C535.83 276.22 534.499 274.889 532.857 274.889C531.214 274.889 529.883 276.22 529.883 277.863C529.883 279.505 531.214 280.837 532.857 280.837Z" fill="#F29111"/>
<path d="M532.857 288.275C534.499 288.275 535.83 286.943 535.83 285.3C535.83 283.658 534.499 282.326 532.857 282.326C531.214 282.326 529.883 283.658 529.883 285.3C529.883 286.943 531.214 288.275 532.857 288.275Z" fill="#F29111"/>
<path d="M555.161 280.837C556.804 280.837 558.135 279.505 558.135 277.863C558.135 276.22 556.804 274.889 555.161 274.889C553.519 274.889 552.188 276.22 552.188 277.863C552.188 279.505 553.519 280.837 555.161 280.837Z" fill="#F29111"/>
<path d="M555.161 288.275C556.804 288.275 558.135 286.943 558.135 285.3C558.135 283.658 556.804 282.326 555.161 282.326C553.519 282.326 552.188 283.658 552.188 285.3C552.188 286.943 553.519 288.275 555.161 288.275Z" fill="#F29111"/>
<path d="M540.294 280.837C541.936 280.837 543.268 279.505 543.268 277.863C543.268 276.22 541.936 274.889 540.294 274.889C538.652 274.889 537.32 276.22 537.32 277.863C537.32 279.505 538.652 280.837 540.294 280.837Z" fill="#F29111"/>
<path d="M540.294 288.275C541.936 288.275 543.268 286.943 543.268 285.3C543.268 283.658 541.936 282.326 540.294 282.326C538.652 282.326 537.32 283.658 537.32 285.3C537.32 286.943 538.652 288.275 540.294 288.275Z" fill="#F29111"/>
<path d="M562.591 280.837C564.233 280.837 565.565 279.505 565.565 277.863C565.565 276.22 564.233 274.889 562.591 274.889C560.949 274.889 559.617 276.22 559.617 277.863C559.617 279.505 560.949 280.837 562.591 280.837Z" fill="#F29111"/>
<path d="M562.591 288.275C564.233 288.275 565.565 286.943 565.565 285.3C565.565 283.658 564.233 282.326 562.591 282.326C560.949 282.326 559.617 283.658 559.617 285.3C559.617 286.943 560.949 288.275 562.591 288.275Z" fill="#F29111"/>
<path d="M525.419 280.837C527.061 280.837 528.393 279.505 528.393 277.863C528.393 276.22 527.061 274.889 525.419 274.889C523.777 274.889 522.445 276.22 522.445 277.863C522.445 279.505 523.777 280.837 525.419 280.837Z" fill="#F29111"/>
<path d="M525.419 288.275C527.061 288.275 528.393 286.943 528.393 285.3C528.393 283.658 527.061 282.326 525.419 282.326C523.777 282.326 522.445 283.658 522.445 285.3C522.445 286.943 523.777 288.275 525.419 288.275Z" fill="#F29111"/>
<path d="M547.724 280.837C549.366 280.837 550.697 279.505 550.697 277.863C550.697 276.22 549.366 274.889 547.724 274.889C546.081 274.889 544.75 276.22 544.75 277.863C544.75 279.505 546.081 280.837 547.724 280.837Z" fill="#F29111"/>
<path d="M547.724 288.275C549.366 288.275 550.697 286.943 550.697 285.3C550.697 283.658 549.366 282.326 547.724 282.326C546.081 282.326 544.75 283.658 544.75 285.3C544.75 286.943 546.081 288.275 547.724 288.275Z" fill="#F29111"/>
<path d="M570.028 280.837C571.671 280.837 573.002 279.505 573.002 277.863C573.002 276.22 571.671 274.889 570.028 274.889C568.386 274.889 567.055 276.22 567.055 277.863C567.055 279.505 568.386 280.837 570.028 280.837Z" fill="#F29111"/>
<path d="M570.028 288.275C571.671 288.275 573.002 286.943 573.002 285.3C573.002 283.658 571.671 282.326 570.028 282.326C568.386 282.326 567.055 283.658 567.055 285.3C567.055 286.943 568.386 288.275 570.028 288.275Z" fill="#F29111"/>
</mask>
<g mask="url(#mask1_1992_118)">
<path d="M569.137 284.987C569.137 284.987 552.828 269.469 532.709 269.469C512.591 269.469 496.281 287.889 496.281 284.987C496.281 261.505 512.591 242.469 532.709 242.469C552.828 242.469 569.137 261.505 569.137 284.987Z" fill="#F29111"/>
</g>
</g>
<g filter="url(#filter1_d_1992_118)">
<mask id="mask2_1992_118" style="mask-type:alpha" maskUnits="userSpaceOnUse" x="597" y="237" width="81" height="52">
<path d="M607.482 243.659C609.124 243.659 610.455 242.328 610.455 240.685C610.455 239.043 609.124 237.711 607.482 237.711C605.839 237.711 604.508 239.043 604.508 240.685C604.508 242.328 605.839 243.659 607.482 243.659Z" fill="#F29111"/>
<path d="M607.482 251.097C609.124 251.097 610.455 249.765 610.455 248.123C610.455 246.48 609.124 245.148 607.482 245.148C605.839 245.148 604.508 246.48 604.508 248.123C604.508 249.765 605.839 251.097 607.482 251.097Z" fill="#F29111"/>
<path d="M607.482 258.53C609.124 258.53 610.455 257.199 610.455 255.556C610.455 253.914 609.124 252.582 607.482 252.582C605.839 252.582 604.508 253.914 604.508 255.556C604.508 257.199 605.839 258.53 607.482 258.53Z" fill="#F29111"/>
<path d="M607.482 265.966C609.124 265.966 610.455 264.634 610.455 262.992C610.455 261.349 609.124 260.018 607.482 260.018C605.839 260.018 604.508 261.349 604.508 262.992C604.508 264.634 605.839 265.966 607.482 265.966Z" fill="#F29111"/>
<path d="M607.482 273.402C609.124 273.402 610.455 272.07 610.455 270.427C610.455 268.785 609.124 267.453 607.482 267.453C605.839 267.453 604.508 268.785 604.508 270.427C604.508 272.07 605.839 273.402 607.482 273.402Z" fill="#F29111"/>
<path d="M614.911 243.659C616.554 243.659 617.885 242.328 617.885 240.685C617.885 239.043 616.554 237.711 614.911 237.711C613.269 237.711 611.938 239.043 611.938 240.685C611.938 242.328 613.269 243.659 614.911 243.659Z" fill="#F29111"/>
<path d="M614.911 251.097C616.554 251.097 617.885 249.765 617.885 248.123C617.885 246.48 616.554 245.148 614.911 245.148C613.269 245.148 611.938 246.48 611.938 248.123C611.938 249.765 613.269 251.097 614.911 251.097Z" fill="#F29111"/>
<path d="M614.911 258.53C616.554 258.53 617.885 257.199 617.885 255.556C617.885 253.914 616.554 252.582 614.911 252.582C613.269 252.582 611.938 253.914 611.938 255.556C611.938 257.199 613.269 258.53 614.911 258.53Z" fill="#F29111"/>
<path d="M614.911 265.966C616.554 265.966 617.885 264.634 617.885 262.992C617.885 261.349 616.554 260.018 614.911 260.018C613.269 260.018 611.938 261.349 611.938 262.992C611.938 264.634 613.269 265.966 614.911 265.966Z" fill="#F29111"/>
<path d="M614.911 273.402C616.554 273.402 617.885 272.07 617.885 270.427C617.885 268.785 616.554 267.453 614.911 267.453C613.269 267.453 611.938 268.785 611.938 270.427C611.938 272.07 613.269 273.402 614.911 273.402Z" fill="#F29111"/>
<path d="M600.044 243.659C601.686 243.659 603.018 242.328 603.018 240.685C603.018 239.043 601.686 237.711 600.044 237.711C598.402 237.711 597.07 239.043 597.07 240.685C597.07 242.328 598.402 243.659 600.044 243.659Z" fill="#F29111"/>
<path d="M600.044 251.097C601.686 251.097 603.018 249.765 603.018 248.123C603.018 246.48 601.686 245.148 600.044 245.148C598.402 245.148 597.07 246.48 597.07 248.123C597.07 249.765 598.402 251.097 600.044 251.097Z" fill="#F29111"/>
<path d="M600.044 258.53C601.686 258.53 603.018 257.199 603.018 255.556C603.018 253.914 601.686 252.582 600.044 252.582C598.402 252.582 597.07 253.914 597.07 255.556C597.07 257.199 598.402 258.53 600.044 258.53Z" fill="#F29111"/>
<path d="M600.044 265.966C601.686 265.966 603.018 264.634 603.018 262.992C603.018 261.349 601.686 260.018 600.044 260.018C598.402 260.018 597.07 261.349 597.07 262.992C597.07 264.634 598.402 265.966 600.044 265.966Z" fill="#F29111"/>
<path d="M600.044 273.402C601.686 273.402 603.018 272.07 603.018 270.427C603.018 268.785 601.686 267.453 600.044 267.453C598.402 267.453 597.07 268.785 597.07 270.427C597.07 272.07 598.402 273.402 600.044 273.402Z" fill="#F29111"/>
<path d="M622.349 243.659C623.991 243.659 625.322 242.328 625.322 240.685C625.322 239.043 623.991 237.711 622.349 237.711C620.706 237.711 619.375 239.043 619.375 240.685C619.375 242.328 620.706 243.659 622.349 243.659Z" fill="#F29111"/>
<path d="M622.349 251.097C623.991 251.097 625.322 249.765 625.322 248.123C625.322 246.48 623.991 245.148 622.349 245.148C620.706 245.148 619.375 246.48 619.375 248.123C619.375 249.765 620.706 251.097 622.349 251.097Z" fill="#F29111"/>
<path d="M622.349 258.53C623.991 258.53 625.322 257.199 625.322 255.556C625.322 253.914 623.991 252.582 622.349 252.582C620.706 252.582 619.375 253.914 619.375 255.556C619.375 257.199 620.706 258.53 622.349 258.53Z" fill="#F29111"/>
<path d="M622.349 265.966C623.991 265.966 625.322 264.634 625.322 262.992C625.322 261.349 623.991 260.018 622.349 260.018C620.706 260.018 619.375 261.349 619.375 262.992C619.375 264.634 620.706 265.966 622.349 265.966Z" fill="#F29111"/>
<path d="M622.349 273.402C623.991 273.402 625.322 272.07 625.322 270.427C625.322 268.785 623.991 267.453 622.349 267.453C620.706 267.453 619.375 268.785 619.375 270.427C619.375 272.07 620.706 273.402 622.349 273.402Z" fill="#F29111"/>
<path d="M637.216 243.659C638.858 243.659 640.19 242.328 640.19 240.685C640.19 239.043 638.858 237.711 637.216 237.711C635.574 237.711 634.242 239.043 634.242 240.685C634.242 242.328 635.574 243.659 637.216 243.659Z" fill="#F29111"/>
<path d="M637.216 251.097C638.858 251.097 640.19 249.765 640.19 248.123C640.19 246.48 638.858 245.148 637.216 245.148C635.574 245.148 634.242 246.48 634.242 248.123C634.242 249.765 635.574 251.097 637.216 251.097Z" fill="#F29111"/>
<path d="M637.216 258.53C638.858 258.53 640.19 257.199 640.19 255.556C640.19 253.914 638.858 252.582 637.216 252.582C635.574 252.582 634.242 253.914 634.242 255.556C634.242 257.199 635.574 258.53 637.216 258.53Z" fill="#F29111"/>
<path d="M637.216 265.966C638.858 265.966 640.19 264.634 640.19 262.992C640.19 261.349 638.858 260.018 637.216 260.018C635.574 260.018 634.242 261.349 634.242 262.992C634.242 264.634 635.574 265.966 637.216 265.966Z" fill="#F29111"/>
<path d="M637.216 273.402C638.858 273.402 640.19 272.07 640.19 270.427C640.19 268.785 638.858 267.453 637.216 267.453C635.574 267.453 634.242 268.785 634.242 270.427C634.242 272.07 635.574 273.402 637.216 273.402Z" fill="#F29111"/>
<path d="M659.521 243.659C661.163 243.659 662.494 242.328 662.494 240.685C662.494 239.043 661.163 237.711 659.521 237.711C657.878 237.711 656.547 239.043 656.547 240.685C656.547 242.328 657.878 243.659 659.521 243.659Z" fill="#F29111"/>
<path d="M659.521 251.097C661.163 251.097 662.494 249.765 662.494 248.123C662.494 246.48 661.163 245.148 659.521 245.148C657.878 245.148 656.547 246.48 656.547 248.123C656.547 249.765 657.878 251.097 659.521 251.097Z" fill="#F29111"/>
<path d="M659.521 258.53C661.163 258.53 662.494 257.199 662.494 255.556C662.494 253.914 661.163 252.582 659.521 252.582C657.878 252.582 656.547 253.914 656.547 255.556C656.547 257.199 657.878 258.53 659.521 258.53Z" fill="#F29111"/>
<path d="M659.521 265.966C661.163 265.966 662.494 264.634 662.494 262.992C662.494 261.349 661.163 260.018 659.521 260.018C657.878 260.018 656.547 261.349 656.547 262.992C656.547 264.634 657.878 265.966 659.521 265.966Z" fill="#F29111"/>
<path d="M659.521 273.402C661.163 273.402 662.494 272.07 662.494 270.427C662.494 268.785 661.163 267.453 659.521 267.453C657.878 267.453 656.547 268.785 656.547 270.427C656.547 272.07 657.878 273.402 659.521 273.402Z" fill="#F29111"/>
<path d="M644.646 243.659C646.288 243.659 647.619 242.328 647.619 240.685C647.619 239.043 646.288 237.711 644.646 237.711C643.003 237.711 641.672 239.043 641.672 240.685C641.672 242.328 643.003 243.659 644.646 243.659Z" fill="#F29111"/>
<path d="M644.646 251.097C646.288 251.097 647.619 249.765 647.619 248.123C647.619 246.48 646.288 245.148 644.646 245.148C643.003 245.148 641.672 246.48 641.672 248.123C641.672 249.765 643.003 251.097 644.646 251.097Z" fill="#F29111"/>
<path d="M644.646 258.53C646.288 258.53 647.619 257.199 647.619 255.556C647.619 253.914 646.288 252.582 644.646 252.582C643.003 252.582 641.672 253.914 641.672 255.556C641.672 257.199 643.003 258.53 644.646 258.53Z" fill="#F29111"/>
<path d="M644.646 265.966C646.288 265.966 647.619 264.634 647.619 262.992C647.619 261.349 646.288 260.018 644.646 260.018C643.003 260.018 641.672 261.349 641.672 262.992C641.672 264.634 643.003 265.966 644.646 265.966Z" fill="#F29111"/>
<path d="M644.646 273.402C646.288 273.402 647.619 272.07 647.619 270.427C647.619 268.785 646.288 267.453 644.646 267.453C643.003 267.453 641.672 268.785 641.672 270.427C641.672 272.07 643.003 273.402 644.646 273.402Z" fill="#F29111"/>
<path d="M666.95 243.659C668.593 243.659 669.924 242.328 669.924 240.685C669.924 239.043 668.593 237.711 666.95 237.711C665.308 237.711 663.977 239.043 663.977 240.685C663.977 242.328 665.308 243.659 666.95 243.659Z" fill="#F29111"/>
<path d="M666.95 251.097C668.593 251.097 669.924 249.765 669.924 248.123C669.924 246.48 668.593 245.148 666.95 245.148C665.308 245.148 663.977 246.48 663.977 248.123C663.977 249.765 665.308 251.097 666.95 251.097Z" fill="#F29111"/>
<path d="M666.95 258.53C668.593 258.53 669.924 257.199 669.924 255.556C669.924 253.914 668.593 252.582 666.95 252.582C665.308 252.582 663.977 253.914 663.977 255.556C663.977 257.199 665.308 258.53 666.95 258.53Z" fill="#F29111"/>
<path d="M666.95 265.966C668.593 265.966 669.924 264.634 669.924 262.992C669.924 261.349 668.593 260.018 666.95 260.018C665.308 260.018 663.977 261.349 663.977 262.992C663.977 264.634 665.308 265.966 666.95 265.966Z" fill="#F29111"/>
<path d="M666.95 273.402C668.593 273.402 669.924 272.07 669.924 270.427C669.924 268.785 668.593 267.453 666.95 267.453C665.308 267.453 663.977 268.785 663.977 270.427C663.977 272.07 665.308 273.402 666.95 273.402Z" fill="#F29111"/>
<path d="M629.778 243.659C631.421 243.659 632.752 242.328 632.752 240.685C632.752 239.043 631.421 237.711 629.778 237.711C628.136 237.711 626.805 239.043 626.805 240.685C626.805 242.328 628.136 243.659 629.778 243.659Z" fill="#F29111"/>
<path d="M629.778 251.097C631.421 251.097 632.752 249.765 632.752 248.123C632.752 246.48 631.421 245.148 629.778 245.148C628.136 245.148 626.805 246.48 626.805 248.123C626.805 249.765 628.136 251.097 629.778 251.097Z" fill="#F29111"/>
<path d="M629.778 258.53C631.421 258.53 632.752 257.199 632.752 255.556C632.752 253.914 631.421 252.582 629.778 252.582C628.136 252.582 626.805 253.914 626.805 255.556C626.805 257.199 628.136 258.53 629.778 258.53Z" fill="#F29111"/>
<path d="M629.778 265.966C631.421 265.966 632.752 264.634 632.752 262.992C632.752 261.349 631.421 260.018 629.778 260.018C628.136 260.018 626.805 261.349 626.805 262.992C626.805 264.634 628.136 265.966 629.778 265.966Z" fill="#F29111"/>
<path d="M629.778 273.402C631.421 273.402 632.752 272.07 632.752 270.427C632.752 268.785 631.421 267.453 629.778 267.453C628.136 267.453 626.805 268.785 626.805 270.427C626.805 272.07 628.136 273.402 629.778 273.402Z" fill="#F29111"/>
<path d="M652.083 243.659C653.725 243.659 655.057 242.328 655.057 240.685C655.057 239.043 653.725 237.711 652.083 237.711C650.441 237.711 649.109 239.043 649.109 240.685C649.109 242.328 650.441 243.659 652.083 243.659Z" fill="#F29111"/>
<path d="M652.083 251.097C653.725 251.097 655.057 249.765 655.057 248.123C655.057 246.48 653.725 245.148 652.083 245.148C650.441 245.148 649.109 246.48 649.109 248.123C649.109 249.765 650.441 251.097 652.083 251.097Z" fill="#F29111"/>
<path d="M652.083 258.53C653.725 258.53 655.057 257.199 655.057 255.556C655.057 253.914 653.725 252.582 652.083 252.582C650.441 252.582 649.109 253.914 649.109 255.556C649.109 257.199 650.441 258.53 652.083 258.53Z" fill="#F29111"/>
<path d="M652.083 265.966C653.725 265.966 655.057 264.634 655.057 262.992C655.057 261.349 653.725 260.018 652.083 260.018C650.441 260.018 649.109 261.349 649.109 262.992C649.109 264.634 650.441 265.966 652.083 265.966Z" fill="#F29111"/>
<path d="M652.083 273.402C653.725 273.402 655.057 272.07 655.057 270.427C655.057 268.785 653.725 267.453 652.083 267.453C650.441 267.453 649.109 268.785 649.109 270.427C649.109 272.07 650.441 273.402 652.083 273.402Z" fill="#F29111"/>
<path d="M674.388 243.659C676.03 243.659 677.361 242.328 677.361 240.685C677.361 239.043 676.03 237.711 674.388 237.711C672.745 237.711 671.414 239.043 671.414 240.685C671.414 242.328 672.745 243.659 674.388 243.659Z" fill="#F29111"/>
<path d="M674.388 251.097C676.03 251.097 677.361 249.765 677.361 248.123C677.361 246.48 676.03 245.148 674.388 245.148C672.745 245.148 671.414 246.48 671.414 248.123C671.414 249.765 672.745 251.097 674.388 251.097Z" fill="#F29111"/>
<path d="M674.388 258.53C676.03 258.53 677.361 257.199 677.361 255.556C677.361 253.914 676.03 252.582 674.388 252.582C672.745 252.582 671.414 253.914 671.414 255.556C671.414 257.199 672.745 258.53 674.388 258.53Z" fill="#F29111"/>
<path d="M674.388 265.966C676.03 265.966 677.361 264.634 677.361 262.992C677.361 261.349 676.03 260.018 674.388 260.018C672.745 260.018 671.414 261.349 671.414 262.992C671.414 264.634 672.745 265.966 674.388 265.966Z" fill="#F29111"/>
<path d="M674.388 273.402C676.03 273.402 677.361 272.07 677.361 270.427C677.361 268.785 676.03 267.453 674.388 267.453C672.745 267.453 671.414 268.785 671.414 270.427C671.414 272.07 672.745 273.402 674.388 273.402Z" fill="#F29111"/>
<path d="M607.482 280.837C609.124 280.837 610.455 279.505 610.455 277.863C610.455 276.22 609.124 274.889 607.482 274.889C605.839 274.889 604.508 276.22 604.508 277.863C604.508 279.505 605.839 280.837 607.482 280.837Z" fill="#F29111"/>
<path d="M607.482 288.275C609.124 288.275 610.455 286.943 610.455 285.3C610.455 283.658 609.124 282.326 607.482 282.326C605.839 282.326 604.508 283.658 604.508 285.3C604.508 286.943 605.839 288.275 607.482 288.275Z" fill="#F29111"/>
<path d="M614.911 280.837C616.554 280.837 617.885 279.505 617.885 277.863C617.885 276.22 616.554 274.889 614.911 274.889C613.269 274.889 611.938 276.22 611.938 277.863C611.938 279.505 613.269 280.837 614.911 280.837Z" fill="#F29111"/>
<path d="M614.911 288.275C616.554 288.275 617.885 286.943 617.885 285.3C617.885 283.658 616.554 282.326 614.911 282.326C613.269 282.326 611.938 283.658 611.938 285.3C611.938 286.943 613.269 288.275 614.911 288.275Z" fill="#F29111"/>
<path d="M600.044 280.837C601.686 280.837 603.018 279.505 603.018 277.863C603.018 276.22 601.686 274.889 600.044 274.889C598.402 274.889 597.07 276.22 597.07 277.863C597.07 279.505 598.402 280.837 600.044 280.837Z" fill="#F29111"/>
<path d="M600.044 288.275C601.686 288.275 603.018 286.943 603.018 285.3C603.018 283.658 601.686 282.326 600.044 282.326C598.402 282.326 597.07 283.658 597.07 285.3C597.07 286.943 598.402 288.275 600.044 288.275Z" fill="#F29111"/>
<path d="M622.349 280.837C623.991 280.837 625.322 279.505 625.322 277.863C625.322 276.22 623.991 274.889 622.349 274.889C620.706 274.889 619.375 276.22 619.375 277.863C619.375 279.505 620.706 280.837 622.349 280.837Z" fill="#F29111"/>
<path d="M622.349 288.275C623.991 288.275 625.322 286.943 625.322 285.3C625.322 283.658 623.991 282.326 622.349 282.326C620.706 282.326 619.375 283.658 619.375 285.3C619.375 286.943 620.706 288.275 622.349 288.275Z" fill="#F29111"/>
<path d="M637.216 280.837C638.858 280.837 640.19 279.505 640.19 277.863C640.19 276.22 638.858 274.889 637.216 274.889C635.574 274.889 634.242 276.22 634.242 277.863C634.242 279.505 635.574 280.837 637.216 280.837Z" fill="#F29111"/>
<path d="M637.216 288.275C638.858 288.275 640.19 286.943 640.19 285.3C640.19 283.658 638.858 282.326 637.216 282.326C635.574 282.326 634.242 283.658 634.242 285.3C634.242 286.943 635.574 288.275 637.216 288.275Z" fill="#F29111"/>
<path d="M659.521 280.837C661.163 280.837 662.494 279.505 662.494 277.863C662.494 276.22 661.163 274.889 659.521 274.889C657.878 274.889 656.547 276.22 656.547 277.863C656.547 279.505 657.878 280.837 659.521 280.837Z" fill="#F29111"/>
<path d="M659.521 288.275C661.163 288.275 662.494 286.943 662.494 285.3C662.494 283.658 661.163 282.326 659.521 282.326C657.878 282.326 656.547 283.658 656.547 285.3C656.547 286.943 657.878 288.275 659.521 288.275Z" fill="#F29111"/>
<path d="M644.646 280.837C646.288 280.837 647.619 279.505 647.619 277.863C647.619 276.22 646.288 274.889 644.646 274.889C643.003 274.889 641.672 276.22 641.672 277.863C641.672 279.505 643.003 280.837 644.646 280.837Z" fill="#F29111"/>
<path d="M644.646 288.275C646.288 288.275 647.619 286.943 647.619 285.3C647.619 283.658 646.288 282.326 644.646 282.326C643.003 282.326 641.672 283.658 641.672 285.3C641.672 286.943 643.003 288.275 644.646 288.275Z" fill="#F29111"/>
<path d="M666.95 280.837C668.593 280.837 669.924 279.505 669.924 277.863C669.924 276.22 668.593 274.889 666.95 274.889C665.308 274.889 663.977 276.22 663.977 277.863C663.977 279.505 665.308 280.837 666.95 280.837Z" fill="#F29111"/>
<path d="M666.95 288.275C668.593 288.275 669.924 286.943 669.924 285.3C669.924 283.658 668.593 282.326 666.95 282.326C665.308 282.326 663.977 283.658 663.977 285.3C663.977 286.943 665.308 288.275 666.95 288.275Z" fill="#F29111"/>
<path d="M629.778 280.837C631.421 280.837 632.752 279.505 632.752 277.863C632.752 276.22 631.421 274.889 629.778 274.889C628.136 274.889 626.805 276.22 626.805 277.863C626.805 279.505 628.136 280.837 629.778 280.837Z" fill="#F29111"/>
<path d="M629.778 288.275C631.421 288.275 632.752 286.943 632.752 285.3C632.752 283.658 631.421 282.326 629.778 282.326C628.136 282.326 626.805 283.658 626.805 285.3C626.805 286.943 628.136 288.275 629.778 288.275Z" fill="#F29111"/>
<path d="M652.083 280.837C653.725 280.837 655.057 279.505 655.057 277.863C655.057 276.22 653.725 274.889 652.083 274.889C650.441 274.889 649.109 276.22 649.109 277.863C649.109 279.505 650.441 280.837 652.083 280.837Z" fill="#F29111"/>
<path d="M652.083 288.275C653.725 288.275 655.057 286.943 655.057 285.3C655.057 283.658 653.725 282.326 652.083 282.326C650.441 282.326 649.109 283.658 649.109 285.3C649.109 286.943 650.441 288.275 652.083 288.275Z" fill="#F29111"/>
<path d="M674.388 280.837C676.03 280.837 677.361 279.505 677.361 277.863C677.361 276.22 676.03 274.889 674.388 274.889C672.745 274.889 671.414 276.22 671.414 277.863C671.414 279.505 672.745 280.837 674.388 280.837Z" fill="#F29111"/>
<path d="M674.388 288.275C676.03 288.275 677.361 286.943 677.361 285.3C677.361 283.658 676.03 282.326 674.388 282.326C672.745 282.326 671.414 283.658 671.414 285.3C671.414 286.943 672.745 288.275 674.388 288.275Z" fill="#F29111"/>
</mask>
<g mask="url(#mask2_1992_118)">
<path d="M673.489 284.987C673.489 284.987 657.179 269.469 637.061 269.469C616.942 269.469 600.633 287.889 600.633 284.987C600.633 261.505 616.942 242.469 637.061 242.469C657.179 242.469 673.489 261.505 673.489 284.987Z" fill="#F29111"/>
</g>
</g>
<g filter="url(#filter2_d_1992_118)">
<path d="M685.896 374.365L687.154 369.332C688.602 363.539 692.562 358.697 697.952 356.128L701.305 354.529C709.58 350.585 719.477 352.771 725.32 359.834L767.087 410.317C770.287 414.185 770.02 419.853 766.471 423.403C761.893 427.982 754.845 428.999 749.16 425.9L695.727 396.775C687.729 392.416 683.687 383.202 685.896 374.365Z" fill="white"/>
</g>
<path d="M749.153 425.887L711.117 405.103L749.014 388.482L767.083 410.321C770.281 414.187 770.015 419.851 766.467 423.399C761.888 427.979 754.837 428.992 749.153 425.887Z" fill="#F29111"/>
<g filter="url(#filter3_d_1992_118)">
<path d="M416.028 289.549L420.765 287.456C426.227 285.043 430.325 280.316 431.94 274.567L432.946 270.983C435.423 262.16 431.587 252.782 423.636 248.225L366.791 215.647C362.434 213.15 356.893 214.378 353.998 218.482C350.266 223.772 350.463 230.887 354.482 235.962L392.268 283.672C397.925 290.814 407.693 293.23 416.028 289.549Z" fill="white"/>
</g>
<path d="M354.487 235.961L381.437 269.916L391.366 229.738L366.778 215.646C362.424 213.151 356.886 214.378 353.993 218.479C350.26 223.77 350.461 230.889 354.487 235.961Z" fill="#F29111"/>
<path d="M583.642 497C671.167 497 742.12 483.751 742.12 467.407C742.12 451.064 671.167 437.814 583.642 437.814C496.117 437.814 425.164 451.064 425.164 467.407C425.164 483.751 496.117 497 583.642 497Z" fill="#29455E"/>
<path d="M390.83 103.123L388.6 69.3486V46.832H402.936V69.3486L400.706 103.123H390.83ZM388.281 124.047V110.771H403.254V124.047H388.281Z" fill="#273F4B"/>
<path d="M338.834 125.427C327.507 125.427 318.799 121.958 312.711 115.019C306.622 108.08 303.578 98.2022 303.578 85.3862C303.578 72.641 306.622 62.7988 312.711 55.8598C318.87 48.9207 327.578 45.4512 338.834 45.4512C350.09 45.4512 358.763 48.9207 364.851 55.8598C371.01 62.7988 374.09 72.641 374.09 85.3862C374.09 98.2022 371.046 108.08 364.957 115.019C358.869 121.958 350.161 125.427 338.834 125.427ZM338.834 114.063C353.347 114.063 360.603 104.504 360.603 85.3862C360.603 75.9689 358.763 68.8528 355.081 64.038C351.4 59.2231 345.984 56.8157 338.834 56.8157C331.684 56.8157 326.268 59.2231 322.587 64.038C318.905 68.8528 317.065 75.9689 317.065 85.3862C317.065 104.504 324.321 114.063 338.834 114.063Z" fill="#273F4B"/>
<path d="M248.891 124.047V46.832H262.165V112.151H298.058V124.047H248.891Z" fill="#273F4B"/>
<path d="M188.43 124.047V46.832H201.704V112.151H237.597V124.047H188.43Z" fill="#273F4B"/>
<path d="M125.789 124.047V46.832H174.744V58.0903H139.063V79.3324H171.664V90.5906H139.063V112.789H175.806V124.047H125.789Z" fill="#273F4B"/>
<path d="M46.9766 124.047V46.832H60.2506V79.0137H96.356V46.832H109.63V124.047H96.356V90.272H60.2506V124.047H46.9766Z" fill="#273F4B"/>
<defs>
<filter id="filter0_d_1992_118" x="480.281" y="230.469" width="104.859" height="74.8281" filterUnits="userSpaceOnUse" color-interpolation-filters="sRGB">
<feFlood flood-opacity="0" result="BackgroundImageFix"/>
<feColorMatrix in="SourceAlpha" type="matrix" values="0 0 0 0 0 0 0 0 0 0 0 0 0 0 0 0 0 0 127 0" result="hardAlpha"/>
<feOffset dy="4"/>
<feGaussianBlur stdDeviation="8"/>
<feComposite in2="hardAlpha" operator="out"/>
<feColorMatrix type="matrix" values="0 0 0 0 1 0 0 0 0 0.748624 0 0 0 0 0.416911 0 0 0 0.48 0"/>
<feBlend mode="normal" in2="BackgroundImageFix" result="effect1_dropShadow_1992_118"/>
<feBlend mode="normal" in="SourceGraphic" in2="effect1_dropShadow_1992_118" result="shape"/>
</filter>
<filter id="filter1_d_1992_118" x="584.633" y="230.469" width="104.859" height="74.8281" filterUnits="userSpaceOnUse" color-interpolation-filters="sRGB">
<feFlood flood-opacity="0" result="BackgroundImageFix"/>
<feColorMatrix in="SourceAlpha" type="matrix" values="0 0 0 0 0 0 0 0 0 0 0 0 0 0 0 0 0 0 127 0" result="hardAlpha"/>
<feOffset dy="4"/>
<feGaussianBlur stdDeviation="8"/>
<feComposite in2="hardAlpha" operator="out"/>
<feColorMatrix type="matrix" values="0 0 0 0 1 0 0 0 0 0.748624 0 0 0 0 0.416911 0 0 0 0.48 0"/>
<feBlend mode="normal" in2="BackgroundImageFix" result="effect1_dropShadow_1992_118"/>
<feBlend mode="normal" in="SourceGraphic" in2="effect1_dropShadow_1992_118" result="shape"/>
</filter>
<filter id="filter2_d_1992_118" x="665.297" y="352.582" width="116.023" height="111.1" filterUnits="userSpaceOnUse" color-interpolation-filters="sRGB">
<feFlood flood-opacity="0" result="BackgroundImageFix"/>
<feColorMatrix in="SourceAlpha" type="matrix" values="0 0 0 0 0 0 0 0 0 0 0 0 0 0 0 0 0 0 127 0" result="hardAlpha"/>
<feOffset dx="-4" dy="20"/>
<feGaussianBlur stdDeviation="8"/>
<feComposite in2="hardAlpha" operator="out"/>
<feColorMatrix type="matrix" values="0 0 0 0 0 0 0 0 0 0 0 0 0 0 0 0 0 0 0.25 0"/>
<feBlend mode="normal" in2="BackgroundImageFix" result="effect1_dropShadow_1992_118"/>
<feBlend mode="normal" in="SourceGraphic" in2="effect1_dropShadow_1992_118" result="shape"/>
</filter>
<filter id="filter3_d_1992_118" x="331.328" y="214.357" width="114.363" height="112.898" filterUnits="userSpaceOnUse" color-interpolation-filters="sRGB">
<feFlood flood-opacity="0" result="BackgroundImageFix"/>
<feColorMatrix in="SourceAlpha" type="matrix" values="0 0 0 0 0 0 0 0 0 0 0 0 0 0 0 0 0 0 127 0" result="hardAlpha"/>
<feOffset dx="-4" dy="20"/>
<feGaussianBlur stdDeviation="8"/>
<feComposite in2="hardAlpha" operator="out"/>
<feColorMatrix type="matrix" values="0 0 0 0 0 0 0 0 0 0 0 0 0 0 0 0 0 0 0.25 0"/>
<feBlend mode="normal" in2="BackgroundImageFix" result="effect1_dropShadow_1992_118"/>
<feBlend mode="normal" in="SourceGraphic" in2="effect1_dropShadow_1992_118" result="shape"/>
</filter>
</defs>
</svg>
