<svg width="1783" height="1402" viewBox="0 0 1783 1402" fill="none" xmlns="http://www.w3.org/2000/svg">
<g clip-path="url(#clip0_661_5658)">
<path d="M30.2111 118.594C49.1429 104.045 77.0471 103.962 99.2014 114.054C120.898 124.155 137.267 142.595 150.91 162.001C185.726 211.649 206.049 268.896 234.076 322.335C262.102 375.773 301.078 427.627 358.71 450.756C448.162 486.993 548.867 442.953 639.241 408.721C662.852 399.571 687.853 391.31 713.076 394.48C745.184 398.89 771.72 422.622 787.343 449.768C802.966 476.913 809.065 508.36 816.061 538.876C838.097 637.262 869.78 737.75 939.855 812.79C1009.92 887.372 1162.64 953.948 1327.45 889.452" stroke="#8EC9E6" stroke-opacity="0.4" stroke-width="0.3121" stroke-miterlimit="10"/>
<path opacity="0.5829" d="M1324.82 895.451C1232.16 929.728 1143.68 920.006 1071.75 891.207C1020.58 870.698 977.435 839.968 948.453 808.049C921.345 778.382 899.662 745.406 882.059 710.522C874.934 696.936 868.714 682.875 862.952 668.805C849.043 635.679 837.86 601.586 828.058 567.923C825.12 557.915 822.638 547.899 820.166 538.34C814.727 517.402 809.747 496.454 801.583 476.484C798.222 468.314 794.413 460.611 789.689 452.926C782.124 440.263 771.833 428.568 759.748 418.738C746.731 408.011 731.481 400.072 715.413 397.181C708.984 395.934 703.039 396.049 696.637 396.173C678.811 396.976 661.083 402.809 644.269 408.625C627.455 414.44 610.193 420.722 592.931 427.004C548.848 442.04 502.908 455.74 457.636 456.617C428.368 457.184 399.47 453.17 370.878 441.372C352.435 433.953 335.76 423.297 320.42 410.785C288.353 384.873 263.433 350.13 243.544 315.291C223.646 279.993 207.371 242.796 187.007 207.05C177.999 190.756 168.077 174.479 156.8 159.144C142.709 140.203 125.882 121.773 104.185 111.672C82.0312 101.579 54.1092 100.748 35.1685 114.839" stroke="#8EC9E6" stroke-opacity="0.4" stroke-width="0.7063" stroke-miterlimit="10"/>
<path opacity="0.5659" d="M1324.45 900.031C1235.37 930.579 1150.5 918.042 1080.37 887.379C1030.54 865.471 988.302 834.266 959.303 801.433C932.643 771.299 910.502 738.333 892.433 703C885.308 689.414 878.631 675.362 872.42 661.758C857.606 629.107 845.535 596.403 835.302 564.121C832.372 554.571 829.442 545.02 826.512 535.47C820.635 515.455 815.215 495.432 806.62 476.842C803.268 469.13 799.002 461.436 794.287 454.207C786.282 442.468 775.991 430.773 763.915 421.401C750.441 410.682 736.096 402.268 720.02 398.92C714.048 397.664 708.094 397.322 701.692 397.446C684.315 397.782 667.483 402.683 651.118 408.033C634.752 413.382 618.387 418.732 601.564 424.09C558.818 437.27 515.121 448.639 470.278 448.136C441.451 447.78 412.534 442.85 384.4 431.044C365.948 423.167 348.815 412.52 333.485 400.465C300.96 374.562 275.161 341.667 254.833 307.75C234.047 273.843 216.884 238.035 196.08 203.213C186.624 187.385 176.253 171.574 164.519 156.248C149.97 137.316 133.153 119.343 110.998 109.25C88.8353 98.7007 60.9134 97.8695 41.4977 111.055" stroke="#8EC9E6" stroke-opacity="0.4" stroke-width="0.7005" stroke-miterlimit="10"/>
<path opacity="0.5488" d="M1325.9 904.119C1240.42 931.394 1159.15 916.043 1090.81 883.057C1042.32 859.751 1001.44 827.606 972.432 794.315C945.763 763.724 923.614 730.3 904.64 695.442C897.057 681.865 890.389 668.27 883.721 654.675C868.001 622.499 855.042 591.185 843.921 560.292C840.543 551.208 837.622 542.116 834.243 533.032C827.926 513.94 821.609 494.849 813.032 477.174C809.232 469.928 805.432 462.682 800.268 455.92C792.273 444.638 781.542 433.867 769 424.045C755.525 413.327 741.172 404.456 726.001 400.633C720.03 399.376 714.067 398.577 708.57 398.226C692.099 398.088 675.707 402.065 660.247 406.939C644.779 411.357 628.862 416.24 612.936 420.666C571.992 432.439 530.08 441.486 486.126 439.593C458.195 438.304 429.261 432.46 400.66 420.206C382.208 412.329 365.075 401.681 349.288 389.636C316.314 364.199 290.076 332.227 268.402 299.709C246.719 266.734 228.668 232.316 206.968 198.426C197.063 183.064 186.235 167.262 174.51 152.393C159.513 133.927 142.238 115.963 120.075 105.413C97.9116 94.8635 69.5235 93.5839 50.0901 105.855" stroke="#8EC9E6" stroke-opacity="0.4" stroke-width="0.6947" stroke-miterlimit="10"/>
<path opacity="0.5317" d="M1329.18 907.719C1247.29 931.265 1169.62 913.099 1103.08 878.706C1056.4 853.992 1015.96 821.381 986.937 787.175C960.716 756.118 938.101 722.246 918.669 687.397C911.086 673.82 903.961 660.234 896.835 646.648C880.667 614.938 866.363 585.022 854.345 555.062C850.976 546.435 847.606 537.808 844.237 529.182C837.48 511.014 830.723 492.846 821.706 476.094C817.915 469.306 813.666 462.526 808.503 455.764C800.059 444.948 788.88 434.643 776.795 424.813C763.321 414.095 749.415 404.757 734.693 400.468C729.17 398.745 723.208 397.946 717.711 397.595C701.688 396.99 686.202 400.493 671.173 403.987C656.153 407.937 641.133 411.888 625.655 415.848C586.505 425.756 545.929 432.948 502.854 429.208C475.363 426.996 446.877 420.686 418.268 407.974C399.807 399.639 382.674 388.992 366.438 377.413C333.016 352.442 305.881 321.402 283.319 290.274C260.748 258.688 241.809 225.66 219.212 192.703C208.85 177.349 198.039 162.462 185.4 147.611C170.412 129.602 152.68 111.647 130.059 101.106C107.439 90.5653 79.499 88.8195 60.0478 100.176" stroke="#8EC9E6" stroke-opacity="0.4" stroke-width="0.6889" stroke-miterlimit="10"/>
<path opacity="0.5146" d="M1334.25 910.364C1255.5 930.189 1181.44 909.666 1117.14 872.942C1071.81 847.287 1032.27 813.286 1003.24 778.623C977.006 747.109 954.391 713.236 934.502 678.397C926.919 664.819 919.336 651.242 912.22 638.113C895.145 606.879 879.945 577.895 867.048 549.782C863.23 541.621 859.869 533.452 856.051 525.291C848.855 508.047 841.659 490.803 832.202 474.974C828.42 468.643 823.714 461.872 818.568 456.025C809.676 445.675 798.506 435.827 785.964 426.006C772.032 415.297 758.575 405.493 744.758 400.729C739.235 399.006 733.721 397.74 728.682 397.381C713.556 395.844 698.518 398.88 684.395 401.899C670.272 404.917 655.7 408.402 641.12 411.43C603.763 419.473 564.981 424.8 522.794 419.67C495.742 416.535 467.239 409.31 438.62 396.141C420.16 387.807 402.57 377.168 386.334 365.589C352.006 341.093 324.431 310.977 300.981 281.238C277.522 251.042 257.686 218.946 234.192 186.921C223.382 172.034 212.114 157.156 199.483 142.761C184.038 124.762 165.857 107.273 143.237 96.7319C120.616 86.191 92.659 83.5306 72.7505 94.8958" stroke="#8EC9E6" stroke-opacity="0.4" stroke-width="0.6831" stroke-miterlimit="10"/>
<path opacity="0.4976" d="M1340.71 912.985C1265.55 929.539 1195.1 906.2 1132.59 867.155C1089.06 840.092 1049.97 805.625 1021.37 770.039C995.589 738.058 972.508 703.737 951.713 669.373C943.673 655.804 936.091 642.227 928.526 629.564C910.545 598.805 894.456 571.211 880.672 544.487C876.863 536.784 872.587 528.632 869.236 520.92C861.6 504.599 853.964 488.278 844.068 473.374C839.828 467.051 835.597 461.186 829.994 455.347C821.119 445.912 809.501 436.531 796.95 426.252C783.018 415.543 770.01 405.273 756.184 400.051C751.11 397.862 745.596 396.597 740.556 396.237C725.878 394.234 711.738 396.338 698.063 398.891C684.379 400.986 670.713 403.995 656.573 406.099C621.01 412.278 584.021 415.74 542.722 409.221C516.11 405.162 488.047 397.014 459.428 383.845C440.959 375.053 423.369 364.415 406.675 352.844C371.89 328.357 343.436 300.088 319.547 271.273C295.191 242.009 274.476 211.76 250.542 180.659C239.283 166.238 227.567 151.826 214.936 137.431C199.042 119.898 180.862 102.409 157.775 91.4196C135.146 80.4214 106.731 77.7698 86.8049 88.2204" stroke="#8EC9E6" stroke-opacity="0.4" stroke-width="0.6774" stroke-miterlimit="10"/>
<path opacity="0.4805" d="M1348.99 915.111C1277.41 927.935 1210.57 901.783 1149.86 861.329C1107.68 832.869 1069.48 797.469 1040.87 761.425C1015.08 728.987 992.002 694.667 970.741 659.853C962.701 646.285 954.67 633.174 946.638 620.063C927.752 589.778 910.776 563.574 896.551 537.774C892.285 530.08 888.027 522.842 884.227 515.597C875.694 500.208 867.619 484.81 857.741 470.82C853.51 464.955 848.83 459.556 843.236 454.175C833.913 445.206 822.303 436.282 809.304 426.469C795.372 415.76 782.355 405.033 769.435 399.336C764.361 397.147 759.304 395.873 754.704 394.59C740.932 392.112 727.231 393.292 714.453 394.912C701.675 396.532 688.44 398.161 675.205 399.79C641.435 404.105 606.241 405.702 565.364 397.345C539.64 391.896 511.567 383.291 482.483 369.673C464.013 360.881 445.966 350.252 429.272 338.681C394.039 314.661 364.688 287.324 339.902 259.441C315.115 231.558 293.055 202.707 268.215 172.08C256.508 158.126 244.335 143.723 231.255 129.794C214.904 112.27 196.275 95.2471 173.189 84.2578C150.102 73.2684 122.136 70.1507 102.192 79.6868" stroke="#8EC9E6" stroke-opacity="0.4" stroke-width="0.6716" stroke-miterlimit="10"/>
<path opacity="0.4634" d="M1358.63 917.21C1290.66 926.762 1227.42 897.794 1168.49 855.019C1128.12 825.608 1090.36 789.285 1061.74 752.327C1036.4 719.422 1012.85 684.654 991.142 650.306C982.645 636.747 974.614 623.636 966.134 610.991C946.8 581.173 928.469 555.909 913.365 531.956C908.65 524.728 904.402 517.948 900.153 511.168C891.181 496.703 882.666 482.229 872.348 469.162C868.126 463.755 863.446 458.356 857.404 453.441C848.09 444.929 836.031 436.471 823.032 426.658C808.634 415.501 796.531 404.756 784.06 398.593C779.443 396.395 774.377 394.664 769.778 393.38C756.454 390.436 743.649 390.684 731.32 391.838C718.982 392.535 706.652 393.689 693.866 394.852C661.433 397.31 628.489 397.034 588.5 387.287C563.216 380.915 535.134 371.852 506.498 357.768C487.563 348.528 469.972 337.89 452.831 326.785C417.149 303.231 386.901 276.826 361.227 250.333C335.552 223.84 312.595 195.922 286.867 166.685C274.712 153.196 262.547 139.25 249.01 125.331C232.211 108.273 213.116 90.8012 190.486 79.803C167.4 68.8137 139.425 65.2387 119.006 73.869" stroke="#8EC9E6" stroke-opacity="0.4" stroke-width="0.6658" stroke-miterlimit="10"/>
<path opacity="0.4463" d="M1369.19 918.834C1304.8 924.657 1245.18 893.332 1188.04 848.692C1149.02 817.883 1112.62 781.075 1083.98 743.203C1058.63 709.841 1035.08 675.072 1012.45 640.286C1003.95 626.726 995.007 613.633 986.536 601.445C966.296 572.102 947.077 548.228 931.085 525.665C926.379 518.894 921.682 512.58 917.434 505.8C908.022 492.259 899.067 478.708 888.31 466.565C884.096 461.614 878.969 456.681 872.926 451.766C863.163 443.721 850.657 435.729 837.657 425.917C823.259 414.759 811.148 403.557 799.125 396.928C794.499 394.273 789.89 392.532 785.748 391.24C773.321 387.364 760.974 387.603 749.533 387.367C738.1 387.589 726.21 387.819 714.321 388.05C683.681 388.644 652.066 386.054 613.422 374.909C588.577 367.613 560.935 357.627 531.833 343.095C512.897 333.855 494.85 323.225 477.708 312.121C441.569 288.575 410.891 263.551 384.328 238.448C357.766 213.344 334.378 186.807 307.287 158.053C295.14 145.022 282.061 131.094 268.076 117.641C250.819 100.591 231.733 83.5774 208.646 72.5881C185.559 61.5988 157.575 57.5665 136.681 65.291" stroke="#8EC9E6" stroke-opacity="0.4" stroke-width="0.66" stroke-miterlimit="10"/>
<path opacity="0.4293" d="M1380.66 920.9C1319.86 922.993 1263.85 889.311 1208.5 842.349C1171.29 810.59 1135.33 772.402 1106.69 734.529C1081.33 700.711 1057.77 665.484 1034.69 631.164C1025.73 617.613 1016.79 604.52 1007.86 592.341C986.715 563.473 967.065 540.98 949.719 519.357C944.565 513.053 939.868 506.739 935.179 500.883C925.328 488.265 915.943 476.095 904.746 464.875C900.084 460.391 894.965 455.915 888.931 451.457C878.729 444.335 866.231 436.801 853.223 426.531C838.825 415.373 827.162 403.705 815.588 396.61C811.419 393.946 806.802 391.748 802.659 390.456C790.681 386.113 779.231 385.42 768.238 384.718C757.245 384.016 746.261 383.772 734.81 383.079C705.965 381.808 676.143 377.354 637.93 364.828C613.524 356.609 585.865 345.708 557.22 331.167C538.275 321.47 520.228 310.84 502.629 299.745C465.584 276.674 434.475 253.031 407.016 228.86C379.556 204.688 355.28 179.54 327.301 152.177C314.706 139.612 301.178 126.15 287.193 112.697C269.488 96.1134 249.945 79.1083 226.858 68.119C203.305 56.6812 175.321 52.6488 154.876 59.9072" stroke="#8EC9E6" stroke-opacity="0.4" stroke-width="0.6542" stroke-miterlimit="10"/>
<path opacity="0.4122" d="M1393.51 922.938C1335.85 921.769 1283.91 885.263 1230.8 835.97C1194.93 802.812 1159.87 764.149 1131.21 725.362C1106.3 691.077 1082.29 655.86 1058.74 621.091C1049.8 607.997 1040.38 594.456 1031.46 582.734C1009.41 554.341 988.875 533.238 971.098 512.996C965.953 507.149 960.807 501.301 956.128 495.902C945.837 484.207 936.012 472.961 924.375 462.665C919.723 458.638 914.604 454.162 908.122 450.171C897.928 443.506 884.982 436.437 871.516 426.177C856.661 415.028 845.447 402.893 834.778 395.323C830.6 392.202 826.44 389.995 822.746 388.237C811.674 383.419 800.663 381.803 790.576 380.626C780.488 379.449 769.944 378.281 758.942 377.122C731.891 373.986 703.862 367.667 666.528 353.294C643.02 344.143 615.343 332.328 586.231 317.338C567.287 307.641 548.773 296.563 531.183 285.925C493.69 263.32 461.684 240.609 433.336 217.828C404.989 195.046 379.825 171.288 351.398 144.39C338.345 131.834 324.826 118.83 309.936 105.852C291.782 89.7344 272.239 72.7292 248.686 61.2915C225.133 49.8537 197.14 45.3641 176.219 51.7167" stroke="#8EC9E6" stroke-opacity="0.4" stroke-width="0.6484" stroke-miterlimit="10"/>
<path opacity="0.3951" d="M1407.28 924.96C1353.2 920.061 1304.87 881.198 1253.56 830.041C1219.04 795.942 1184.87 755.889 1156.66 716.636C1131.74 681.893 1107.72 646.219 1083.27 611.925C1073.86 598.84 1064.46 585.756 1055.07 573.586C1032.57 545.659 1010.68 525.497 992.026 507.102C986.432 501.721 981.296 496.331 976.159 490.941C965.428 480.169 955.164 469.847 943.088 460.474C938.444 456.904 932.876 452.895 926.403 449.36C915.761 443.162 902.824 436.551 889.367 426.747C874.512 415.598 863.746 402.998 853.069 394.97C848.891 391.849 845.188 389.633 841.485 387.417C830.861 382.134 820.747 379.585 811.1 377.485C801.452 375.384 791.813 373.741 781.708 371.65C756.45 366.65 730.216 358.466 693.313 342.712C670.244 332.638 643.015 320.356 613.895 304.909C594.941 294.755 576.437 284.134 558.389 273.504C520.438 250.909 487.545 229.588 458.309 208.196C429.074 186.804 403.022 164.435 373.698 138.47C360.197 126.38 346.23 113.841 331.339 100.863C313.185 84.7462 292.736 68.2161 269.183 56.7783C245.63 45.3406 217.629 40.3937 196.233 45.8406" stroke="#8EC9E6" stroke-opacity="0.4" stroke-width="0.6426" stroke-miterlimit="10"/>
<path opacity="0.378" d="M1421.98 928.335C1371.5 920.164 1326.78 878.486 1277.25 825.007C1244.54 789.501 1210.81 748.982 1182.59 708.814C1158.12 673.605 1133.64 637.939 1108.72 603.654C1099.32 590.57 1089.46 577.494 1079.63 565.791C1056.22 538.338 1033.44 519.566 1013.9 502.561C1008.31 497.637 1002.73 492.713 997.143 487.789C985.973 477.941 974.812 468.551 962.753 460.092C957.652 456.532 952.103 453.437 945.629 449.903C934.539 444.17 921.61 438.016 907.696 428.222C892.384 417.082 882.066 404.015 872.286 395.055C868.565 391.925 864.854 389.252 861.608 387.027C851.881 380.811 842.215 377.796 833.474 375.221C824.732 372.646 815.532 370.079 805.867 367.064C781.946 360.208 757.962 350.151 721.938 332.551C699.309 321.552 672.062 308.356 642.942 292.909C623.989 282.755 605.475 271.677 586.979 261.513C548.58 239.384 514.789 218.995 485.123 198.984C455 178.982 428.051 157.545 397.83 132.513C383.881 120.889 369.465 108.816 354.574 95.8383C335.972 80.1873 315.523 63.6572 291.513 52.2283C267.503 40.7994 239.949 35.3863 218.536 39.9186" stroke="#8EC9E6" stroke-opacity="0.4" stroke-width="0.6368" stroke-miterlimit="10"/>
<path opacity="0.361" d="M1436.69 932.165C1389.8 920.265 1348.23 876.239 1300.95 820.428C1269.59 783.981 1236.76 742.53 1208.52 701.447C1184.04 665.781 1159.55 629.658 1134.18 595.382C1124.32 582.306 1114.46 569.231 1104.18 557.993C1079.87 531.016 1056.2 513.634 1035.76 497.561C1029.73 493.103 1024.15 488.636 1018.57 484.17C1006.96 475.245 995.362 466.778 982.864 459.243C977.772 456.14 972.222 453.045 965.31 450.434C954.237 445.617 940.403 439.938 926.937 429.677C911.625 418.537 901.755 405.004 892.423 395.578C888.694 391.99 885.44 389.309 882.194 387.084C872.915 380.402 864.156 376.912 855.853 373.413C847.551 369.914 839.249 366.415 830.489 362.925C808.361 354.205 785.714 342.292 751.035 323.293C728.846 311.371 702.039 297.252 672.91 281.347C653.956 271.193 634.985 260.124 616.49 249.96C577.642 228.297 543.412 208.832 512.4 190.219C481.837 171.14 453.552 151.56 422.434 127.459C408.036 116.301 393.163 104.238 377.824 91.726C358.765 76.0839 337.867 60.02 313.848 48.1338C289.829 36.2476 261.81 30.386 240.396 34.9183" stroke="#8EC9E6" stroke-opacity="0.4" stroke-width="0.631" stroke-miterlimit="10"/>
<path opacity="0.3439" d="M1452.33 936.439C1409.03 920.809 1371.07 874.425 1325.58 816.751C1296.03 779.353 1263.64 736.521 1235.84 694.972C1211.81 658.84 1186.86 622.726 1160.58 588.468C1150.72 575.392 1140.4 562.325 1129.66 551.097C1104.45 524.595 1079.88 508.144 1059.02 493.909C1052.99 489.452 1046.96 485.451 1040.95 481.908C1028.44 473.916 1016.86 466.363 1003.92 459.752C998.835 457.106 992.837 454.477 986.382 451.857C974.861 447.506 961.036 442.284 947.113 432.032C931.8 420.892 921.922 406.902 913.038 397.01C909.766 393.414 906.503 390.275 903.706 387.584C895.333 380.427 887.013 376.013 879.607 371.582C872.202 367.151 864.348 363.186 856.037 359.23C835.703 348.644 814.85 334.867 780.593 314.03C759.3 301.176 732.475 286.142 702.889 270.246C683.927 259.634 664.956 248.565 646.003 238.411C606.24 216.765 571.588 199.138 539.671 181C508.22 163.311 479.038 144.663 447.023 121.495C432.177 110.803 417.313 99.197 401.516 86.6939C382.008 71.518 361.111 55.454 336.634 43.5767C312.615 31.6905 284.587 25.3717 262.699 28.9982" stroke="#8EC9E6" stroke-opacity="0.4" stroke-width="0.6252" stroke-miterlimit="10"/>
<path opacity="0.3268" d="M1468.45 942.073C1428.74 923.171 1394.39 873.973 1350.69 813.976C1322.49 775.18 1291 731.873 1263.18 689.41C1239.14 652.82 1214.19 616.249 1187.45 581.999C1177.13 568.932 1166.81 555.866 1155.62 545.103C1129.96 519.067 1104.05 504.015 1082.3 491.17C1075.82 487.179 1069.8 483.635 1063.78 480.092C1050.84 473.024 1038.81 466.395 1025.44 460.707C1019.91 458.527 1013.92 456.355 1007.47 454.193C995.958 450.299 981.684 445.543 967.761 435.291C951.991 424.16 943.019 409.695 934.584 399.337C931.303 395.283 928.497 392.135 925.7 389.444C917.766 381.364 910.352 376.475 903.395 371.578C896.438 366.68 889.481 361.783 882.067 356.895C863.526 344.445 844.467 328.803 811.098 306.576C790.245 292.798 763.411 277.307 734.264 260.488C715.302 249.876 695.874 238.816 676.921 228.661C636.71 207.482 601.161 190.787 568.813 174.03C536.474 157.73 506.404 140.472 473.95 118.227C458.655 108.002 443.334 96.4046 427.089 84.3677C407.124 69.2006 385.769 53.1455 361.75 41.2593C337.273 29.382 309.693 22.597 287.787 25.3089" stroke="#8EC9E6" stroke-opacity="0.4" stroke-width="0.6195" stroke-miterlimit="10"/>
<path opacity="0.3098" d="M1485.05 948.615C1448.93 925.984 1418.19 874.428 1376.28 812.567C1349.43 772.83 1319.29 728.124 1291.46 685.203C1267.87 648.148 1242.46 611.585 1215.26 577.345C1204.95 564.278 1194.18 551.677 1182.99 540.915C1156.42 515.354 1129.62 501.692 1106.97 489.779C1100.5 486.245 1094.04 483.168 1087.57 480.091C1074.18 473.488 1061.72 468.24 1047.91 463.475C1042.39 461.753 1036.4 459.581 1029.5 457.885C1017.54 454.457 1003.28 450.616 988.904 440.373C973.134 429.242 964.153 414.319 956.624 403.486C953.8 399.423 950.985 395.818 948.645 393.119C941.618 384.563 934.643 378.751 928.583 372.921C922.065 367.1 916.014 361.728 909.039 355.916C892.293 341.602 875.027 324.095 842.537 300.021C822.115 284.863 795.729 268.905 766.583 252.086C747.612 241.017 728.184 229.957 708.782 220.269C668.123 199.555 631.677 183.793 598.441 168.426C565.205 153.058 534.256 137.647 500.896 115.877C485.153 106.118 469.383 94.9866 453.138 82.9497C432.724 68.2488 411.369 52.1937 386.893 40.3164C362.417 28.4391 334.371 21.2056 312.447 23.003" stroke="#8EC9E6" stroke-opacity="0.4" stroke-width="0.6137" stroke-miterlimit="10"/>
<path opacity="0.2927" d="M1501.21 956.537C1468.23 930.642 1441.11 876.729 1401.43 812.079C1376.39 771.392 1346.69 725.763 1318.85 681.928C1295.25 644.415 1269.83 607.395 1242.17 573.163C1231.4 560.105 1220.63 547.505 1208.99 536.751C1181.51 511.665 1153.82 499.393 1130.29 488.87C1123.37 485.802 1116.45 483.191 1110 480.571C1096.16 474.892 1083.27 470.567 1069.02 467.184C1063.51 465.918 1057.07 464.213 1050.19 462.974C1037.78 460.469 1023.53 456.629 1009.15 446.385C993.379 435.254 984.389 419.874 977.308 408.575C974.484 404.512 972.127 400.898 969.778 397.741C963.199 388.72 957.121 381.975 951.509 375.679C945.897 369.384 940.286 363.088 934.208 356.343C919.255 340.164 903.326 320.802 871.724 295.338C851.741 279.257 825.338 262.384 796.182 245.108C777.211 234.039 757.326 222.988 737.924 213.299C696.817 193.052 659.474 178.222 625.35 164.244C591.226 150.267 559.38 135.787 525.132 115.407C508.931 105.657 493.17 94.9832 476.477 83.4124C455.615 69.1777 433.803 53.1315 409.326 41.2541C384.841 28.9195 356.795 21.6861 334.396 22.5777" stroke="#8EC9E6" stroke-opacity="0.4" stroke-width="0.6079" stroke-miterlimit="10"/>
<path opacity="0.2756" d="M1517.86 965.819C1488.47 936.196 1464.96 879.925 1427.06 812.954C1403.38 771.325 1374.57 724.306 1346.72 680.014C1323.11 642.044 1297.69 605.024 1269.12 570.81C1258.34 557.752 1247.12 545.16 1235.02 534.873C1206.64 510.262 1178.06 498.922 1154.1 490.236C1146.73 487.634 1139.82 485.024 1133.37 482.861C1119.1 478.106 1105.31 474.713 1091.08 472.244C1085.57 471.436 1078.69 470.197 1071.8 468.958C1059.41 466.911 1044.25 463.545 1029.87 453.302C1013.63 441.722 1005.56 426.325 998.924 414.559C996.549 410.03 994.192 406.416 992.291 402.793C986.618 393.296 980.979 385.629 976.273 378.858C971.101 371.638 965.938 364.876 960.766 357.657C947.15 339.622 933.471 318.386 902.749 291.076C883.663 274.062 857.251 256.732 828.086 238.999C809.107 227.472 789.221 216.421 769.362 206.741C727.797 186.503 690.024 173.054 654.555 160.474C620 147.878 587.266 134.788 551.655 114.892C535.463 105.599 518.796 95.3999 501.646 83.8381C480.326 69.6122 458.066 54.0321 433.581 41.6975C408.638 29.3717 381.041 21.6721 358.633 22.1064" stroke="#8EC9E6" stroke-opacity="0.4" stroke-width="0.6021" stroke-miterlimit="10"/>
<path opacity="0.2585" d="M1534.54 976.475C1508.73 943.122 1488.84 884.494 1452.74 815.658C1430.4 772.631 1402.49 725.137 1375.08 679.921C1351.92 641.485 1326.03 604.017 1297.01 570.269C1285.78 557.22 1274.56 544.628 1262.02 534.807C1233.18 510.662 1203.71 500.711 1178.4 492.968C1171.04 490.823 1163.68 488.678 1156.79 486.982C1142.07 483.15 1127.84 480.681 1113.17 479.135C1107.21 478.336 1100.8 478.003 1093.46 476.773C1080.62 475.192 1065.46 472.283 1051.08 462.04C1034.85 450.46 1026.76 434.605 1021.04 422.365C1018.66 417.836 1016.75 413.756 1014.85 410.133C1009.62 399.712 1004.89 392.027 1000.62 383.875C996.352 376.181 991.62 368.038 987.353 360.344C975.531 340.444 963.646 317.343 933.812 288.643C915.165 270.706 889.193 252.453 859.562 234.271C840.582 222.745 820.697 211.693 800.38 202.023C758.367 182.251 719.706 170.191 683.797 158.535C648.346 146.87 614.723 135.17 578.682 116.655C562.041 107.828 544.917 97.6382 527.776 86.5337C506.008 72.774 483.747 57.1939 458.805 44.8681C433.862 32.5423 406.256 24.3855 383.373 23.9141" stroke="#8EC9E6" stroke-opacity="0.4" stroke-width="0.5963" stroke-miterlimit="10"/>
<path opacity="0.2415" d="M1550.78 988.511C1528.57 951.886 1511.83 890.909 1477.97 819.285C1456.98 775.317 1429.97 726.891 1402.54 680.76C1379.37 641.867 1353.49 604.398 1324 570.202C1312.77 557.153 1301.1 545.027 1288.09 534.758C1258.35 511.088 1227.99 502.527 1201.79 496.173C1193.98 494.494 1186.63 492.807 1179.29 491.577C1164.14 488.668 1149.47 487.123 1134.36 486.5C1128.4 486.158 1121.54 485.834 1114.21 485.519C1100.93 484.861 1085.79 482.41 1070.94 471.718C1054.7 460.139 1047.08 444.275 1041.33 431.12C1039.41 426.125 1037.5 422.044 1036.05 418.413C1031.73 407.517 1027.44 398.908 1024.07 390.282C1020.25 381.664 1016.42 373.046 1012.59 364.428C1002.56 342.664 992.472 317.698 963.059 287.16C944.852 268.299 918.862 249.132 889.689 230.941C870.7 218.957 850.357 207.915 830.05 198.701C787.131 179.404 748.03 168.268 711.233 158.002C674.894 147.727 640.384 137.417 603.436 119.376C586.348 111.016 568.775 101.292 551.176 90.1961C529.408 76.4364 506.242 61.3314 481.299 49.0056C456.357 36.6798 428.284 28.0745 405.384 26.6885" stroke="#8EC9E6" stroke-opacity="0.4" stroke-width="0.5905" stroke-miterlimit="10"/>
<path opacity="0.2244" d="M1567.06 1002.38C1548.44 962.024 1535.32 898.689 1503.23 824.743C1483.61 779.834 1457.48 730.018 1430.04 683.43C1407.32 644.071 1380.97 606.154 1350.58 572.432C1338.89 559.392 1326.76 547.276 1314.22 537.454C1283.58 514.26 1252.32 506.631 1225.24 502.124C1217.44 500.902 1209.64 499.681 1202.3 498.451C1186.7 496.466 1171.6 495.844 1156.05 496.145C1150.1 496.261 1142.79 496.402 1135.46 496.087C1122.19 495.887 1106.6 493.902 1091.76 483.667C1075.07 472.097 1067.89 455.767 1063.05 442.136C1061.12 437.141 1059.66 432.595 1058.22 428.963C1054.34 417.602 1051.41 408.051 1048.03 398.967C1045.1 389.417 1041.72 380.333 1038.8 371.241C1030.57 347.612 1022.27 320.782 993.744 288.854C975.976 269.069 950.426 248.978 920.787 230.339C901.341 218.364 881.446 206.856 860.69 198.108C817.314 178.82 777.325 169.074 739.64 160.197C702.413 151.312 667.015 142.391 629.17 125.283C611.633 117.388 594.061 107.665 576.013 97.0351C553.797 83.7416 530.631 68.6366 505.222 55.8624C479.822 43.5454 452.198 34.474 429.28 32.1733" stroke="#8EC9E6" stroke-opacity="0.4" stroke-width="0.5847" stroke-miterlimit="10"/>
<path opacity="0.2073" d="M1582.45 1017.63C1567.43 974.007 1557.45 907.866 1527.62 832.047C1509.35 786.196 1484.12 735.448 1457.12 687.937C1434.39 648.12 1408.03 609.746 1377.18 576.033C1365.49 562.993 1352.91 550.885 1339.92 541.53C1308.37 518.811 1276.22 512.571 1248.7 508.988C1240.45 507.775 1232.66 507.469 1224.87 506.705C1208.38 505.652 1193.29 505.944 1177.3 507.169C1170.91 507.751 1164.06 508.341 1156.29 508.492C1142.57 508.757 1126.98 507.23 1111.69 497.004C1094.99 485.434 1088.26 468.637 1083.87 454.541C1082.4 449.537 1080.94 444.534 1079.94 440.436C1076.96 428.142 1074.48 418.125 1071.99 408.109C1069.51 398.093 1067.03 388.076 1064.55 378.06C1058.11 352.567 1051.15 323.881 1023.5 290.106C1006.63 269.389 981.073 248.841 951.425 229.744C931.97 217.312 911.627 206.27 890.871 197.522C847.047 178.701 806.618 169.877 768.036 161.933C729.912 153.98 693.626 146.449 654.884 130.273C636.899 122.845 618.878 113.587 600.831 102.958C578.157 89.6731 554.533 74.577 529.134 62.2601C503.725 49.4859 476.092 39.9571 452.708 37.208" stroke="#8EC9E6" stroke-opacity="0.4" stroke-width="0.5789" stroke-miterlimit="10"/>
<path opacity="0.1902" d="M1597.89 1035.18C1586 987.831 1579.65 919.79 1552.05 841.183C1535.58 794.382 1510.79 742.253 1483.78 694.285C1461.04 654.01 1434.68 615.636 1403.37 581.933C1391.23 568.901 1378.64 556.793 1365.19 547.447C1333.2 525.194 1299.71 520.353 1271.3 518.159C1263.05 517.404 1254.81 517.106 1247.04 517.257C1230.11 517.127 1214.58 518.343 1198.15 520.492C1191.77 521.53 1184.46 522.13 1176.69 522.738C1162.53 523.927 1146.5 522.865 1131.66 512.174C1114.96 500.603 1108.22 483.35 1104.28 468.787C1102.8 463.326 1101.8 458.771 1100.8 454.215C1098.26 441.455 1096.68 430.507 1094.64 420.024C1093.06 409.075 1091.03 398.593 1089.44 387.644C1084.34 360.295 1079.63 329.736 1052.87 294.571C1036.44 272.931 1010.86 251.468 981.205 231.914C961.75 219.482 941.399 207.982 920.186 199.244C875.912 180.888 834.587 172.997 795.117 166.443C756.105 159.879 718.931 153.738 679.292 138.495C660.859 131.532 642.38 122.284 623.885 112.12C600.762 99.3018 577.139 84.2056 551.73 71.4314C526.322 58.6572 498.222 48.68 474.829 45.4736" stroke="#8EC9E6" stroke-opacity="0.4" stroke-width="0.5731" stroke-miterlimit="10"/>
<path opacity="0.1732" d="M1612.44 1054.11C1604.13 1003.03 1601.39 932.633 1575.59 852.161C1560.48 804.419 1536.58 751.358 1509.55 702.475C1487.26 661.734 1460.43 622.912 1428.22 589.683C1416.08 576.652 1403.03 564.553 1389.14 555.673C1356.24 534.352 1321.86 530.443 1292.56 529.639C1283.87 529.35 1275.63 529.509 1267.41 530.126C1250.04 530.92 1234.07 533.06 1217.21 536.589C1210.84 538.085 1203.08 539.15 1195.33 540.216C1181.18 541.862 1164.7 541.267 1149.39 530.584C1132.24 519.022 1126.41 501.294 1122.92 486.265C1121.89 480.795 1120.88 475.782 1120.34 471.218C1118.71 457.983 1117.56 446.111 1116.43 434.696C1115.29 423.281 1114.15 411.867 1113.01 399.995C1109.7 370.781 1106.78 338.356 1080.9 301.345C1064.91 278.782 1039.77 256.395 1010.12 236.841C990.653 223.952 969.853 212.918 948.64 204.18C903.91 185.833 861.705 179.789 821.338 174.167C781.895 168.984 743.367 163.784 703.289 149.464C684.407 142.968 665.938 134.177 646.984 124.022C623.414 111.67 599.333 96.5824 573.924 83.8082C548.058 71.0428 520.408 60.5995 496.997 56.4785" stroke="#8EC9E6" stroke-opacity="0.4" stroke-width="0.5674" stroke-miterlimit="10"/>
<path opacity="0.1561" d="M1626.13 1075.8C1621.42 1021.45 1621.83 948.249 1598.26 865.446C1584.5 816.306 1561.5 762.77 1534.92 712.963C1512.62 671.765 1485.79 632.943 1453.12 599.266C1440.51 586.243 1427.48 574.602 1413.12 565.73C1379.32 544.884 1344.04 541.908 1313.87 542.951C1305.18 543.119 1296.5 543.745 1287.82 544.37C1270.01 546.088 1253.15 549.16 1236.3 553.603C1229.47 555.108 1222.19 557.079 1213.98 558.154C1199.38 560.266 1182.91 560.128 1167.6 549.445C1150.45 537.884 1144.61 519.698 1142.02 504.194C1140.99 498.267 1140.44 493.245 1139.89 488.681C1138.7 474.523 1138.47 462.633 1137.78 450.295C1137.54 437.947 1136.85 426.066 1136.61 413.719C1135.09 382.641 1133.51 348.361 1108.52 309.96C1092.97 286.473 1067.82 263.172 1038.16 243.618C1018.69 230.729 997.885 219.238 976.224 210.965C930.587 193.094 887.943 187.973 846.689 183.74C806.349 179.49 766.941 176.137 725.967 162.749C706.627 156.262 687.709 147.937 668.308 138.248C644.28 125.905 620.208 111.275 594.342 98.5096C568.476 85.7443 540.816 74.8436 516.93 69.8169" stroke="#8EC9E6" stroke-opacity="0.4" stroke-width="0.5616" stroke-miterlimit="10"/>
<path opacity="0.139" d="M1638.48 1099.35C1637.35 1041.27 1640.93 966.178 1619.6 880.587C1607.19 830.506 1585.08 775.58 1558.49 725.316C1536.64 683.652 1509.35 644.381 1476.22 611.17C1463.62 598.148 1450.12 586.515 1435.31 577.653C1400.61 557.281 1364.44 555.695 1333.82 557.661C1324.69 558.296 1316.02 559.379 1307.35 560.462C1289.1 563.103 1271.79 567.098 1254.51 572.465C1247.69 574.427 1239.95 576.407 1231.75 578.396C1216.72 581.432 1200.24 581.294 1184.49 571.077C1167.34 559.515 1161.49 540.873 1159.35 524.902C1158.78 518.966 1158.21 513.488 1158.13 508.915C1157.84 494.281 1158.05 481.468 1158.26 468.654C1158.47 455.841 1158.67 442.571 1158.88 429.757C1159.16 396.814 1159.37 360.669 1135.27 320.879C1120.15 296.468 1095.45 272.701 1065.77 252.233C1046.31 239.343 1025.5 227.852 1003.38 219.589C957.297 202.183 913.756 197.995 872.071 195.143C830.843 192.283 790.547 190.319 748.667 177.406C728.879 171.385 709.513 163.526 690.111 153.838C665.635 141.961 641.105 127.339 615.23 114.117C589.356 100.894 561.696 89.9935 537.335 84.061" stroke="#8EC9E6" stroke-opacity="0.4" stroke-width="0.5558" stroke-miterlimit="10"/>
<path opacity="0.122" d="M1648.13 1125.24C1650.6 1063.89 1657.32 985.989 1638.24 898.524C1627.19 847.502 1605.98 791.644 1579.37 740.465C1557.52 698.801 1530.21 659.073 1496.17 625.422C1483.57 612.857 1469.61 600.776 1454.81 592.371C1419.66 572.466 1382.14 572.278 1350.64 575.634C1341.51 576.725 1332.38 577.817 1323.27 579.824C1304.59 583.388 1286.84 588.307 1269.12 594.598C1262.3 597.017 1254.12 599.463 1245.92 601.452C1230.89 604.945 1213.98 605.731 1198.22 595.057C1180.61 583.504 1175.67 564.386 1173.97 547.492C1173.39 541.556 1173.28 535.611 1173.18 530.581C1173.8 515.472 1174.45 501.736 1175.1 487.999C1176.21 474.253 1176.86 460.517 1177.5 446.78C1179.58 411.972 1181.58 373.963 1158.36 332.325C1144.14 306.982 1119.42 282.301 1089.29 261.841C1069.82 248.494 1048.55 237.012 1026.43 228.749C979.897 211.809 935.917 208.545 892.886 207.091C850.77 205.62 809.577 204.589 766.809 193.066C746.573 187.511 726.749 179.661 706.899 170.439C681.966 158.57 657.445 144.406 631.113 131.193C604.781 117.979 577.112 106.621 553.2 100.222" stroke="#8EC9E6" stroke-opacity="0.4" stroke-width="0.55" stroke-miterlimit="10"/>
<path opacity="0.1049" d="M1656 1153.91C1662.06 1088.83 1672.4 1008.57 1655.11 918.785C1645.41 866.821 1625.08 809.573 1598.92 757.928C1577.06 715.807 1549.75 675.622 1515.25 642.437C1502.2 629.881 1488.24 617.8 1472.99 609.861C1436.93 590.431 1398.52 591.176 1366.14 596.378C1356.56 597.936 1347.44 599.485 1338.33 601.492C1319.21 605.98 1301.02 611.822 1282.86 619.036C1276.06 621.913 1267.88 624.816 1259.22 626.814C1243.75 630.773 1226.39 632.025 1210.63 621.351C1193.02 609.798 1188.06 590.223 1187.27 572.854C1186.69 566.461 1187.03 560.507 1187.39 555.468C1188.45 539.436 1190.01 525.224 1191.56 511.012C1193.11 496.343 1194.66 482.131 1196.21 467.919C1200.08 431.247 1203.88 391.373 1181.09 348.355C1167.31 322.088 1142.57 296.492 1112.89 275.566C1093.41 262.219 1072.15 250.737 1049.57 242.483C1002.58 225.552 957.712 223.677 913.794 223.614C870.781 223.075 829.167 223.881 785.493 212.834C765.265 207.736 744.993 200.352 724.686 191.139C699.761 179.728 674.326 165.581 647.994 152.368C621.662 139.154 593.984 127.339 569.597 120.034" stroke="#8EC9E6" stroke-opacity="0.4" stroke-width="0.5442" stroke-miterlimit="10"/>
<path opacity="0.0878" d="M1662.09 1184.9C1671.75 1116.55 1685.24 1033.94 1670.18 941.365C1661.83 888.002 1642.87 830.271 1616.23 777.72C1594.82 735.133 1567.05 694.956 1532.09 661.323C1519.03 648.767 1504.63 637.152 1488.91 628.765C1451.95 609.81 1412.64 611.944 1379.37 618.079C1369.34 620.103 1359.77 622.118 1350.67 624.582C1331.11 629.993 1312.48 636.759 1293.88 644.897C1286.63 648.239 1278.46 651.6 1269.81 654.055C1253.9 658.938 1236.54 660.19 1220.32 649.525C1202.25 637.523 1198.21 617.93 1197.4 600.104C1197.28 593.702 1197.62 587.748 1197.97 582.252C1199.94 565.745 1201.93 550.61 1203.94 535.932C1206.39 520.787 1208.38 505.652 1210.38 490.517C1215.58 451.989 1221.17 410.25 1199.72 365.376C1186.38 338.186 1162.08 311.666 1131.94 290.749C1112.45 276.945 1090.73 265.472 1068.16 257.675C1020.72 241.211 974.959 240.268 930.609 241.585C887.166 242.427 844.206 244.632 799.635 234.517C778.959 229.885 758.23 222.51 737.931 213.754C712.549 202.352 686.666 188.672 660.325 175.001C633.993 161.787 606.307 149.514 581.444 141.304" stroke="#8EC9E6" stroke-opacity="0.4" stroke-width="0.5384" stroke-miterlimit="10"/>
<path opacity="0.0707" d="M1666.4 1218.21C1679.19 1146.14 1696.3 1061.17 1683.49 966.726C1676.49 912.423 1658.42 853.759 1631.77 800.294C1610.35 757.249 1582.57 716.615 1546.7 683.457C1533.19 670.91 1518.78 659.295 1502.62 651.374C1464.75 632.894 1425.02 636.409 1390.39 643.942C1380.37 645.966 1370.36 648.905 1360.81 651.835C1340.81 658.17 1321.74 665.859 1302.7 674.92C1295.45 678.263 1287.29 682.081 1278.19 685.002C1262.29 690.342 1244.48 692.06 1228.27 681.852C1210.19 669.851 1206.15 649.801 1206.25 631.5C1206.12 625.098 1206.92 618.678 1207.72 613.172C1210.14 596.199 1213.04 580.589 1215.93 564.521C1218.82 548.453 1221.72 532.843 1224.61 516.776C1231.61 476.383 1238.99 432.779 1217.97 386.525C1205.06 357.954 1181.22 331.425 1151.06 309.594C1131.58 295.79 1109.85 283.859 1086.83 276.528C1038.94 260.53 992.29 260.977 947.035 262.769C902.703 265.001 858.846 268.138 813.387 259.412C792.263 255.247 771.085 248.338 750.329 239.591C724.499 228.655 698.607 214.517 671.817 201.312C645.019 187.65 617.333 175.378 592.91 166.244" stroke="#8EC9E6" stroke-opacity="0.4" stroke-width="0.5326" stroke-miterlimit="10"/>
<path opacity="0.0537" d="M1669.39 1254.75C1685.77 1178.95 1706.03 1091.63 1695.47 994.855C1689.36 939.619 1672.64 879.557 1646.44 825.626C1625.47 782.115 1597.23 741.489 1560.9 708.341C1547.39 695.793 1532.53 684.187 1515.91 676.275C1477.13 658.27 1436.51 663.175 1401.46 672.089C1390.99 674.579 1380.98 677.518 1371.44 680.905C1350.53 688.172 1331.03 696.785 1312.01 706.76C1304.76 710.561 1296.15 714.845 1287.07 718.223C1270.71 724.03 1252.92 726.662 1236.25 716.006C1218.17 704.004 1214.57 683.488 1215.12 664.721C1215.45 657.852 1216.24 651.433 1217.04 645.47C1220.36 628.022 1223.7 611.488 1227.04 594.954C1230.84 578.411 1234.18 561.878 1237.51 544.887C1246.29 502.629 1255.47 456.704 1235.33 409.06C1222.86 379.565 1199 352.122 1168.84 330.291C1149.35 316.029 1127.17 304.565 1104.16 297.234C1055.35 281.253 1008.27 283.081 962.127 286.263C916.898 289.427 872.162 294.411 825.798 286.16C804.225 282.461 783.047 275.552 761.843 267.271C735.555 256.344 709.214 242.673 682.873 229.002C656.075 215.339 628.371 202.152 603.482 192.57" stroke="#8EC9E6" stroke-opacity="0.4" stroke-width="0.5268" stroke-miterlimit="10"/>
<path opacity="0.0366" d="M1670.62 1294.07C1690.59 1215 1714 1124.88 1705.68 1026.22C1700.94 970.048 1685.11 909.053 1658.89 854.207C1637.91 810.239 1609.66 769.157 1572.88 736.017C1558.91 723.478 1544.05 711.872 1526.98 704.426C1487.75 686.887 1445.78 692.733 1409.84 703.037C1399.38 705.984 1388.92 709.389 1378.93 713.243C1357.59 721.433 1337.64 730.969 1318.19 742.326C1310.5 746.592 1301.9 751.333 1292.81 754.712C1276.47 761.433 1258.23 764.074 1241.55 753.418C1223.02 741.426 1219.87 720.443 1220.87 701.21C1221.19 694.341 1222.43 687.455 1223.69 681.484C1227.45 663.112 1231.69 646.103 1235.94 629.094C1240.18 611.628 1244.42 594.619 1248.66 577.153C1259.24 533.031 1269.75 485.25 1250.96 436.207C1239.39 405.781 1215.51 377.423 1185.34 355.134C1165.85 340.873 1143.66 328.951 1120.19 321.629C1070.94 306.115 1023.41 308.866 975.924 313.446C929.807 318 884.184 324.374 836.922 317.055C814.901 313.822 793.275 307.379 771.613 299.107C744.877 288.646 718.536 274.975 691.738 261.313C664.94 247.65 637.227 234.006 611.872 223.976" stroke="#8EC9E6" stroke-opacity="0.4" stroke-width="0.521" stroke-miterlimit="10"/>
<path opacity="0.0195" d="M1669.61 1336.63C1693.17 1253.83 1719.74 1161.36 1713.66 1060.38C1710.26 1002.8 1695.34 941.334 1669.1 885.574C1648.11 841.149 1619.87 800.066 1582.17 766.944C1568.2 754.405 1552.88 742.808 1535.82 735.819C1495.69 718.755 1452.83 725.991 1416 737.684C1405.09 741.098 1394.64 744.96 1384.66 749.271C1362.88 758.385 1342.49 768.844 1322.6 781.124C1314.92 785.848 1306.32 790.589 1296.79 794.891C1280 802.079 1261.31 805.186 1244.63 794.53C1226.1 782.537 1222.94 761.097 1224.85 741.389C1225.62 734.055 1226.86 727.168 1228.12 721.197C1232.78 702.35 1237.47 684.418 1242.15 666.486C1247.29 648.545 1251.97 630.155 1256.65 612.223C1269.03 566.236 1281.33 516.59 1262.96 465.709C1251.83 434.359 1227.94 405.087 1197.77 382.798C1178.27 368.079 1155.63 356.624 1132.16 349.302C1082.46 334.254 1034.04 337.937 986.119 343.898C939.114 349.841 892.594 357.148 844.893 350.753C822.423 347.986 800.339 341.552 778.687 333.737C751.502 323.742 724.704 310.08 697.906 296.418C670.65 282.764 643.386 268.654 618.013 257.708" stroke="#8EC9E6" stroke-opacity="0.4" stroke-width="0.5153" stroke-miterlimit="10"/>
<path opacity="0.0024" d="M1666.84 1382.43C1693.99 1296.36 1723.72 1201.54 1719.88 1097.77C1717.83 1039.26 1703.8 976.397 1678.01 920.17C1657.47 875.279 1628.76 833.748 1590.6 800.634C1576.18 788.104 1560.41 776.973 1543.34 769.527C1502.3 752.939 1458.55 761.564 1420.83 774.646C1409.93 778.518 1399.03 782.846 1388.6 787.623C1366.38 797.661 1345.56 809.043 1325.23 822.247C1317.55 827.428 1308.5 832.635 1298.98 836.937C1281.75 844.591 1263.07 848.613 1246.38 837.499C1227.85 825.507 1225.14 803.601 1227.49 783.426C1228.27 776.092 1229.95 768.739 1231.67 762.759C1236.78 743.446 1242.36 724.581 1247.95 706.174C1253.54 687.31 1259.12 668.445 1264.7 649.58C1278.87 601.729 1292.97 550.218 1275.48 497.948C1264.79 465.675 1241.34 435.936 1211.16 412.732C1191.66 398.014 1169.01 386.101 1145.09 379.245C1094.93 364.206 1045.63 369.279 996.819 376.629C948.917 383.505 901.518 392.658 852.92 387.196C829.993 384.438 807.47 378.927 785.808 370.655C758.166 360.669 731.377 347.464 704.112 333.353C676.848 319.243 649.126 305.141 623.735 293.281" stroke="#8EC9E6" stroke-opacity="0.4" stroke-width="0.5095" stroke-miterlimit="10"/>
<path opacity="0.0054" d="M1661.83 1431.02C1692.57 1341.22 1725.46 1244.06 1723.87 1138.41C1723.17 1078.95 1710.04 1015.16 1684.23 958.021C1663.68 912.672 1634.97 871.141 1596.36 838.037C1581.93 825.507 1565.71 814.385 1548.19 807.405C1506.24 791.291 1461.6 800.849 1423.46 815.77C1412.11 820.107 1401.22 824.893 1390.33 829.678C1367.67 840.64 1346.41 852.946 1325.64 867.073C1317.51 872.72 1308.47 878.385 1298.96 883.144C1281.74 891.712 1262.61 895.743 1245.47 885.096C1226.48 873.112 1224.22 850.74 1227.02 830.099C1228.25 822.756 1229.94 815.403 1231.64 808.508C1237.66 788.72 1243.68 768.932 1249.71 749.602C1256.19 729.805 1262.22 710.474 1268.25 691.143C1283.75 641.436 1300.1 588.052 1283.5 533.935C1273.25 500.738 1250.24 470.076 1219.6 446.881C1200.09 431.705 1177.45 420.249 1153.07 413.402C1102.47 398.829 1052.26 404.835 1002.57 413.575C954.233 421.831 905.48 431.926 855.985 427.395C832.609 425.104 810.086 419.593 787.519 411.796C759.429 402.276 732.182 389.08 704.917 374.969C677.653 360.859 649.923 346.3 624.057 333.534" stroke="#8EC9E6" stroke-opacity="0.4" stroke-width="0.5037" stroke-miterlimit="10"/>
<path opacity="0.0083" d="M1655.07 1483.31C1688.94 1389.78 1725.44 1290.26 1726.09 1182.29C1726.74 1121.43 1714.52 1057.16 1689.14 999.097C1668.59 953.291 1639.87 911.303 1600.8 878.207C1585.91 865.686 1569.69 854.564 1551.72 848.05C1509.33 832.403 1463.34 843.358 1424.3 859.212C1412.96 864.006 1401.61 868.801 1390.74 874.501C1367.63 885.928 1345.48 899.625 1324.73 914.666C1316.61 920.313 1307.59 926.893 1297.61 931.661C1279.95 940.695 1260.82 945.183 1243.69 934.536C1224.7 922.552 1222.88 899.714 1226.13 878.607C1227.36 870.806 1229.5 863.445 1231.65 856.541C1238.11 835.83 1245.05 816.024 1251.98 795.761C1258.9 775.498 1265.83 755.235 1272.76 734.972C1290.06 683.399 1307.74 628.16 1292.03 572.653C1282.22 538.533 1259.19 506.956 1228.99 483.295C1209.03 468.128 1186.38 456.215 1162.01 449.825C1110.5 435.727 1059.86 442.656 1009.73 452.777C960.51 462.423 910.868 473.907 860.476 470.309C836.652 468.484 813.681 463.439 791.114 455.642C763.023 446.122 735.328 433.392 707.607 419.29C679.885 405.189 652.603 390.163 626.719 376.483" stroke="#8EC9E6" stroke-opacity="0.4" stroke-width="0.4979" stroke-miterlimit="10"/>
<path opacity="0.0012" d="M1645.62 1538.84C1683.09 1442.05 1722.28 1339.73 1725.63 1229.41C1727.64 1167.62 1716.3 1101.96 1690.92 1043.44C1670.81 997.166 1641.63 955.186 1601.65 922.108C1586.77 909.587 1570.08 898.474 1551.66 891.969C1508.36 876.797 1461.48 889.142 1421.56 906.385C1409.76 911.646 1398.43 916.898 1387.11 923.064C1363.56 935.415 1340.97 950.034 1319.78 965.999C1311.66 972.104 1302.18 978.692 1292.22 983.917C1274.11 993.418 1254.99 998.363 1237.4 987.725C1218.41 975.741 1216.59 952.445 1220.74 930.864C1221.96 923.063 1224.56 915.236 1226.71 908.332C1234.08 887.145 1241.45 866.416 1248.83 845.687C1256.19 824.5 1264.03 803.762 1271.39 782.576C1290.49 729.139 1309.96 672.035 1295.13 614.681C1285.76 579.637 1263.17 547.137 1232.52 523.485C1212.54 507.86 1189.91 496.405 1165.07 489.567C1113.11 475.935 1062.03 484.244 1010.55 495.306C960.438 505.885 909.917 519.216 858.619 516.093C834.347 514.733 810.918 509.698 787.902 502.367C759.364 493.313 731.202 480.135 703.481 466.033C675.759 451.931 648.468 436.449 622.118 422.32" stroke="#8EC9E6" stroke-opacity="0.4" stroke-width="0.4921" stroke-miterlimit="10"/>
<path opacity="0.0041" d="M1633.97 1598.54C1675.03 1498.02 1717.37 1393.35 1723.43 1281.15C1726.78 1217.96 1716.35 1151.82 1690.95 1092.39C1670.83 1045.66 1641.19 1003.23 1601.21 970.609C1585.88 958.097 1569.19 946.984 1550.77 940.936C1506.57 926.239 1458.8 939.974 1417.99 958.606C1406.2 963.867 1394.43 970.043 1382.65 976.218C1358.66 989.492 1335.63 1005.03 1314 1021.92C1305.44 1028.49 1295.97 1035.54 1286.01 1041.22C1267.92 1051.64 1247.89 1057.06 1230.75 1045.95C1211.3 1033.98 1209.93 1010.22 1214.53 988.168C1216.2 979.902 1218.8 972.074 1221.41 965.162C1229.68 943.5 1237.49 921.847 1245.77 900.186C1254.04 878.524 1262.31 856.863 1270.57 834.744C1291.46 779.442 1312.73 720.473 1298.33 661.739C1289.85 625.763 1267.26 592.805 1236.6 568.696C1216.62 553.072 1193.52 541.168 1168.69 534.787C1116.27 521.164 1064.31 530.863 1011.93 542.857C960.929 554.825 909.968 569.08 857.782 567.346C833.519 566.444 809.642 561.875 786.169 554.553C757.173 545.508 729.02 532.787 701.298 518.685C673.568 504.126 645.82 488.652 619.452 473.609" stroke="#8EC9E6" stroke-opacity="0.4" stroke-width="0.4863" stroke-miterlimit="10"/>
<path opacity="0.0071" d="M1619.64 1661.49C1664.29 1557.69 1709.78 1450.22 1718.08 1335.69C1722.33 1271.56 1713.24 1204.03 1688.29 1144.13C1668.62 1096.94 1638.52 1054.52 1598.08 1021.45C1582.74 1008.94 1565.61 998.288 1546.74 992.249C1501.63 978.027 1452.96 992.694 1411.72 1012.71C1399.48 1018.43 1387.71 1025.07 1375.95 1031.7C1351.06 1045.91 1328.05 1062.36 1305.98 1080.18C1297.42 1087.2 1287.96 1094.71 1277.55 1100.4C1259.01 1111.28 1238.99 1117.16 1221.39 1106.06C1201.95 1094.09 1201.02 1069.86 1206.07 1047.34C1207.74 1039.08 1210.78 1030.78 1213.38 1023.41C1222.1 1000.83 1230.82 978.701 1239.54 956.574C1248.25 933.988 1257.42 911.395 1266.14 889.267C1288.82 832.101 1311.43 771.276 1298.36 710.686C1290.33 673.786 1267.71 639.914 1237.04 615.347C1217.07 599.723 1193.96 587.819 1168.68 581.447C1115.81 568.29 1062.95 578.922 1009.69 592.306C957.795 605.663 905.946 621.308 852.855 620.049C828.143 619.613 803.809 615.053 780.345 608.188C750.9 599.609 722.29 586.897 694.569 572.795C666.381 558.245 639.072 541.848 612.696 526.348" stroke="#8EC9E6" stroke-opacity="0.4" stroke-width="0.4805" stroke-miterlimit="10"/>
<path opacity="0.001" d="M1603.09 1728.15C1651.33 1620.62 1699.98 1510.8 1710.53 1394.4C1721.08 1277.99 1686.15 1151.49 1591.84 1076.92C1576.04 1064.42 1558.91 1053.77 1539.58 1047.74C1494.02 1033.99 1444.47 1050.04 1401.88 1071.46C1362.92 1090.97 1326.79 1115 1294.39 1143.08C1270.1 1164.13 1236.26 1188.58 1208.93 1171.27C1182.07 1154.4 1190.92 1115.35 1202.73 1087.21C1221.96 1041.09 1240.74 994.98 1259.98 948.86C1283.99 889.838 1308.85 827.139 1296.67 765.159C1284.48 702.722 1231.75 649.305 1167.4 633.625C1061.69 608.226 956.024 679.352 847.133 678.718C758.372 678.151 678.768 630.745 604.229 585.07" stroke="#8EC9E6" stroke-opacity="0.4" stroke-width="0.4747" stroke-miterlimit="10"/>
</g>
<defs>
<clipPath id="clip0_661_5658">
<rect width="1783" height="1402" fill="white"/>
</clipPath>
</defs>
</svg>
