<svg width="24" height="24" viewBox="0 0 24 24" fill="none" xmlns="http://www.w3.org/2000/svg">
<g clip-path="url(#clip0_2115_2957)">
<path d="M0 4.41379C0 1.97612 1.97612 0 4.41379 0H19.5862C22.0239 0 24 1.97612 24 4.41379V19.5862C24 22.0239 22.0239 24 19.5862 24H4.41379C1.97612 24 0 22.0239 0 19.5862V4.41379Z" fill="#8EC9E6"/>
<path d="M16.4785 16.4096V9.13965H18.0385V12.1996L20.5485 9.13965H22.3885L19.6285 12.3596L22.6785 16.4096H20.7385L18.4885 13.3596H18.0385V16.4096H16.4785Z" fill="#182027"/>
<path d="M9.33008 16.4096V9.13965H11.7701C12.9567 9.13965 13.8534 9.44632 14.4601 10.0596C15.0667 10.673 15.3701 11.5796 15.3701 12.7796C15.3701 13.9663 15.0667 14.8696 14.4601 15.4896C13.8601 16.103 12.9634 16.4096 11.7701 16.4096H9.33008ZM11.7501 10.4096H10.8901V15.1396H11.7501C12.4234 15.1396 12.9234 14.9496 13.2501 14.5696C13.5834 14.183 13.7501 13.5863 13.7501 12.7796C13.7501 11.973 13.5867 11.3763 13.2601 10.9896C12.9334 10.603 12.4301 10.4096 11.7501 10.4096Z" fill="#182027"/>
<path d="M5.46 13.32V12.48H8.15V16.05C7.43 16.3833 6.62333 16.55 5.73 16.55C4.50333 16.55 3.57333 16.2233 2.94 15.57C2.31333 14.9167 2 13.9567 2 12.69C2 11.91 2.15333 11.2467 2.46 10.7C2.77333 10.1467 3.22 9.72667 3.8 9.44C4.38667 9.14667 5.09333 9 5.92 9C6.22667 9 6.53 9.02667 6.83 9.08C7.13667 9.13333 7.42333 9.21333 7.69 9.32V10.64C7.35 10.5333 7.04667 10.46 6.78 10.42C6.51333 10.3733 6.24667 10.35 5.98 10.35C5.21333 10.35 4.62333 10.5533 4.21 10.96C3.80333 11.36 3.6 11.9367 3.6 12.69C3.6 13.53 3.77667 14.16 4.13 14.58C4.49 14.9933 5.03667 15.2 5.77 15.2C6.08333 15.2 6.39 15.18 6.69 15.14V13.73L5.46 13.32Z" fill="#182027"/>
</g>
<defs>
<clipPath id="clip0_2115_2957">
<rect width="24" height="24" fill="white"/>
</clipPath>
</defs>
</svg>
