<svg width="24" height="24" viewBox="0 0 24 24" fill="none" xmlns="http://www.w3.org/2000/svg">
<g clip-path="url(#clip0_1381_2488)">
<path d="M0 4.41379C0 1.97612 1.97612 0 4.41379 0H19.5862C22.0239 0 24 1.97612 24 4.41379V19.5862C24 22.0239 22.0239 24 19.5862 24H4.41379C1.97612 24 0 22.0239 0 19.5862V4.41379Z" fill="#8EC9E6"/>
<path d="M15.543 15.7241V8.30371H17.0128L20.2177 13.1316V8.30371H21.7896V15.7241H20.3198L17.1148 10.8861V15.7241H15.543Z" fill="#182027"/>
<path d="M14.5045 14.1015V15.4284C14.2391 15.5509 13.9295 15.653 13.5757 15.7346C13.2286 15.8231 12.8442 15.8673 12.4223 15.8673C11.2315 15.8673 10.3299 15.5305 9.71745 14.8569C9.10504 14.1764 8.79883 13.1999 8.79883 11.9275C8.79883 11.1449 8.94854 10.4747 9.24793 9.91672C9.54735 9.35195 9.97262 8.91984 10.5238 8.62044C11.075 8.31424 11.7316 8.16113 12.4937 8.16113C12.8544 8.16113 13.1878 8.19857 13.494 8.27341C13.8002 8.34825 14.069 8.44353 14.3003 8.5592V9.90651C13.9397 9.77043 13.6267 9.67515 13.3613 9.62072C13.1027 9.56629 12.851 9.53906 12.606 9.53906C11.9051 9.53906 11.3676 9.74659 10.9933 10.1617C10.6191 10.5768 10.4319 11.1654 10.4319 11.9275C10.4319 12.7508 10.6157 13.3871 10.9831 13.8362C11.3506 14.2785 11.8915 14.4996 12.606 14.4996C12.8918 14.4996 13.181 14.469 13.4736 14.4078C13.773 14.3397 14.1166 14.2376 14.5045 14.1015Z" fill="#182027"/>
<path d="M5.10579 12.5705V11.7131H7.85145V15.357C7.11655 15.6972 6.29321 15.8673 5.38138 15.8673C4.12935 15.8673 3.18011 15.5339 2.53367 14.8671C1.89403 14.2002 1.57422 13.2204 1.57422 11.9275C1.57422 11.1313 1.73072 10.4543 2.04374 9.89631C2.36355 9.33153 2.81945 8.90284 3.41145 8.61024C4.01026 8.31084 4.73156 8.16113 5.57534 8.16113C5.88833 8.16113 6.19796 8.18836 6.50416 8.24279C6.81716 8.29722 7.10976 8.37887 7.38193 8.48775V9.83506C7.03489 9.72618 6.72529 9.65134 6.45313 9.61051C6.18094 9.56287 5.90874 9.53906 5.63658 9.53906C4.85404 9.53906 4.25183 9.74659 3.82993 10.1617C3.41487 10.57 3.20731 11.1586 3.20731 11.9275C3.20731 12.7849 3.38764 13.4279 3.74827 13.8566C4.11572 14.2785 4.67371 14.4894 5.4222 14.4894C5.74204 14.4894 6.05506 14.469 6.36127 14.4282V12.989L5.10579 12.5705Z" fill="#182027"/>
</g>
<defs>
<clipPath id="clip0_1381_2488">
<rect width="24" height="24" fill="white"/>
</clipPath>
</defs>
</svg>
