<svg width="24" height="24" viewBox="0 0 24 24" fill="none" xmlns="http://www.w3.org/2000/svg">
<path d="M22 2H2V22H22V2Z" fill="#F7DF1E"/>
<path d="M15.4345 17.6254C15.8374 18.2832 16.3615 18.7666 17.2885 18.7666C18.0672 18.7666 18.5647 18.3774 18.5647 17.8397C18.5647 17.1952 18.0536 16.967 17.1964 16.592L16.7266 16.3905C15.3704 15.8127 14.4694 15.0889 14.4694 13.5587C14.4694 12.1492 15.5434 11.0762 17.2218 11.0762C18.4167 11.0762 19.2758 11.492 19.8948 12.5809L18.4313 13.5206C18.1091 12.9428 17.7615 12.7152 17.2218 12.7152C16.6713 12.7152 16.3224 13.0644 16.3224 13.5206C16.3224 14.0844 16.6717 14.3127 17.478 14.6619L17.9478 14.8632C19.5447 15.5479 20.4463 16.246 20.4463 17.8155C20.4463 19.5076 19.1171 20.4346 17.332 20.4346C15.5866 20.4346 14.459 19.6028 13.9072 18.5127L15.4345 17.6254ZM8.79547 17.7882C9.0907 18.312 9.35928 18.7549 10.005 18.7549C10.6224 18.7549 11.012 18.5133 11.012 17.574V11.1835H12.8913V17.5993C12.8913 19.5454 11.7504 20.4311 10.085 20.4311C8.58023 20.4311 7.7088 19.6524 7.26562 18.7144L8.79547 17.7882Z" fill="black"/>
</svg>
