<svg width="24" height="24" viewBox="0 0 24 24" fill="none" xmlns="http://www.w3.org/2000/svg">
<path fill-rule="evenodd" clip-rule="evenodd" d="M10.8516 3.01861C10.8516 3.02996 10.7359 3.03672 10.5406 3.03672C10.3682 3.03672 10.2219 3.04435 10.2124 3.05384C10.203 3.06327 10.1043 3.07236 9.99303 3.07405C9.88179 3.07568 9.79076 3.08424 9.79076 3.09303C9.79076 3.10177 9.71846 3.10899 9.63004 3.10899C9.54162 3.10899 9.46428 3.11714 9.45813 3.12704C9.45205 3.137 9.39695 3.14515 9.33577 3.14521C9.27221 3.14533 9.20233 3.15692 9.1729 3.17235C9.14294 3.18807 9.07347 3.19931 9.00661 3.19931C8.94207 3.19931 8.89178 3.20723 8.89178 3.21742C8.89178 3.22761 8.84085 3.23548 8.77491 3.23548C8.70904 3.23548 8.65805 3.24334 8.65805 3.25353C8.65805 3.26349 8.61761 3.27164 8.56819 3.27164C8.51871 3.27164 8.47826 3.27974 8.47826 3.28969C8.47826 3.29971 8.43069 3.30775 8.37148 3.30775C8.31273 3.30775 8.25966 3.3159 8.25352 3.32586C8.24743 3.33576 8.20693 3.34391 8.16365 3.34391C8.12031 3.34391 8.07982 3.35206 8.07373 3.36196C8.06759 3.37192 8.0312 3.38008 7.99285 3.38008C7.95443 3.38008 7.91805 3.38817 7.91191 3.39813C7.90582 3.40809 7.86532 3.41618 7.82204 3.41618C7.7787 3.41618 7.7382 3.42433 7.73212 3.43429C7.72598 3.44419 7.68913 3.45235 7.65014 3.45235C7.6112 3.45235 7.57928 3.4605 7.57928 3.4704C7.57928 3.48036 7.55094 3.48851 7.51635 3.48851C7.48176 3.48851 7.45343 3.49661 7.45343 3.50656C7.45343 3.51652 7.42104 3.52462 7.38153 3.52462C7.34196 3.52462 7.30957 3.53277 7.30957 3.54267C7.30957 3.55263 7.27724 3.56078 7.23767 3.56078C7.19809 3.56078 7.16576 3.56888 7.16576 3.57883C7.16576 3.58879 7.14207 3.59689 7.1131 3.59689C7.08413 3.59689 7.04832 3.60912 7.03349 3.62402C7.01865 3.63893 6.98163 3.6511 6.95127 3.6511C6.92091 3.6511 6.89606 3.65838 6.89606 3.66724C6.89606 3.67609 6.86569 3.68849 6.82861 3.69484C6.66453 3.72297 6.64437 3.72827 6.64437 3.74347C6.64437 3.75232 6.62055 3.75954 6.59147 3.75954C6.56238 3.75954 6.53359 3.76769 6.5275 3.77765C6.52136 3.78755 6.49257 3.7957 6.46348 3.7957C6.43439 3.7957 6.41064 3.80386 6.41064 3.81376C6.41064 3.82372 6.38636 3.83187 6.3567 3.83187C6.32703 3.83187 6.30276 3.83996 6.30276 3.84992C6.30276 3.85988 6.27848 3.86797 6.24881 3.86797C6.21915 3.86797 6.19487 3.87613 6.19487 3.88609C6.19487 3.89599 6.1706 3.90414 6.14093 3.90414C6.11127 3.90414 6.08699 3.91229 6.08699 3.92219C6.08699 3.93215 6.06723 3.94024 6.04307 3.94024C6.01897 3.94024 5.99423 3.9484 5.98809 3.95836C5.982 3.96826 5.95721 3.97641 5.9331 3.97641C5.90894 3.97641 5.88918 3.98276 5.88918 3.99056C5.88918 3.99831 5.8521 4.01566 5.8068 4.02911C5.76149 4.04257 5.72018 4.06469 5.71496 4.07826C5.70952 4.09247 5.67933 4.1029 5.64352 4.1029C5.60667 4.1029 5.58593 4.11029 5.59254 4.12101C5.59885 4.13126 5.58373 4.13906 5.55766 4.13906C5.53234 4.13906 5.51165 4.14721 5.51165 4.15711C5.51165 4.16707 5.4919 4.17523 5.46773 4.17523C5.44363 4.17523 5.41883 4.18332 5.41275 4.19328C5.40661 4.20324 5.38592 4.21133 5.36675 4.21133C5.34757 4.21133 5.33181 4.21949 5.33181 4.22944C5.33181 4.23934 5.31611 4.2475 5.29693 4.2475C5.27775 4.2475 5.25707 4.25565 5.25093 4.26555C5.24484 4.27551 5.22056 4.28366 5.19698 4.28366C5.17346 4.28366 5.14918 4.29176 5.14304 4.30171C5.13696 4.31167 5.11622 4.31977 5.09704 4.31977C5.07786 4.31977 5.06216 4.32792 5.06216 4.33782C5.06216 4.34778 5.04594 4.35593 5.02618 4.35593C5.00642 4.35593 4.9902 4.36403 4.9902 4.37398C4.9902 4.38394 4.97403 4.39204 4.95428 4.39204C4.93446 4.39204 4.91829 4.40019 4.91829 4.41015C4.91829 4.42005 4.90213 4.4282 4.88237 4.4282C4.86256 4.4282 4.84639 4.43636 4.84639 4.44626C4.84639 4.45621 4.8355 4.46437 4.82217 4.46437C4.79703 4.46437 4.68231 4.51678 4.66661 4.53547C4.66162 4.54135 4.61713 4.5664 4.5677 4.59109C4.51828 4.61584 4.47512 4.6421 4.47181 4.64956C4.46851 4.65701 4.45032 4.66312 4.43137 4.66312C4.41243 4.66312 4.3969 4.67128 4.3969 4.68124C4.3969 4.69114 4.38073 4.69929 4.36092 4.69929C4.34116 4.69929 4.325 4.70738 4.325 4.71734C4.325 4.7273 4.31399 4.7354 4.30055 4.7354C4.26607 4.7354 4.05529 4.84674 4.05529 4.86497C4.05529 4.87324 4.03912 4.87999 4.01931 4.87999C3.99955 4.87999 3.98339 4.88815 3.98339 4.89805C3.98339 4.90801 3.97209 4.91616 3.9583 4.91616C3.94451 4.91616 3.91415 4.93631 3.89086 4.961C3.86756 4.98569 3.83437 5.00602 3.81704 5.00619C3.79972 5.00637 3.78558 5.01464 3.78558 5.02459C3.78558 5.03449 3.77121 5.04265 3.7536 5.04265C3.73598 5.04265 3.70997 5.05889 3.69572 5.07881C3.68141 5.09867 3.65539 5.11492 3.63778 5.11492C3.62016 5.11492 3.60579 5.12249 3.60579 5.13181C3.60579 5.14107 3.58963 5.15376 3.56993 5.16005C3.55023 5.16634 3.52277 5.18288 3.50892 5.1968C3.49513 5.21072 3.47311 5.2244 3.46008 5.22725C3.44704 5.23005 3.42178 5.24531 3.40393 5.26115C3.38609 5.27693 3.34947 5.30133 3.32253 5.31536C3.27073 5.34233 3.2136 5.38705 3.14547 5.45379C3.12264 5.47615 3.09448 5.49444 3.08283 5.49444C3.07119 5.49444 3.04853 5.50871 3.03254 5.52618C3.01655 5.54365 2.98069 5.56968 2.95288 5.58406C2.92501 5.59845 2.8786 5.63298 2.84963 5.66076C2.82072 5.68854 2.78885 5.71131 2.77888 5.71131C2.76892 5.71131 2.76075 5.7194 2.76075 5.72936C2.76075 5.73932 2.75241 5.74742 2.74215 5.74742C2.73195 5.74742 2.69557 5.77385 2.66138 5.80618C2.49585 5.96236 2.47331 5.98234 2.46282 5.98234C2.45663 5.98234 2.42887 6.00674 2.40118 6.03656C2.37342 6.06637 2.34341 6.09077 2.33437 6.09077C2.31572 6.09077 2.07753 6.31702 2.07753 6.33478C2.07753 6.34928 2.02984 6.39803 2.01565 6.39803C2.00238 6.39803 1.66401 6.73742 1.66401 6.75076C1.66401 6.75623 1.63771 6.78762 1.60555 6.82058C1.52247 6.90572 1.38828 7.06389 1.36876 7.09965C1.35966 7.1163 1.33741 7.14304 1.31933 7.15917C1.3012 7.17524 1.28642 7.19457 1.28642 7.2022C1.28642 7.20983 1.26968 7.23062 1.24928 7.24838C1.22883 7.2662 1.2147 7.28624 1.21782 7.29293C1.22333 7.30481 1.19558 7.34063 1.07518 7.47731C1.04302 7.51376 1.01672 7.55418 1.01672 7.56717C1.01672 7.58015 1.01017 7.59075 1.00212 7.59075C0.994062 7.59075 0.97639 7.61917 0.962775 7.65399C0.949217 7.68876 0.932472 7.71724 0.925636 7.71724C0.918799 7.71724 0.903155 7.74164 0.890872 7.77146C0.878589 7.80127 0.861439 7.82567 0.852748 7.82567C0.844057 7.82567 0.83693 7.84192 0.83693 7.86184C0.83693 7.8817 0.828819 7.89794 0.818969 7.89794C0.809062 7.89794 0.80095 7.91017 0.80095 7.92508C0.80095 7.93999 0.792897 7.95216 0.782989 7.95216C0.773081 7.95216 0.765028 7.96439 0.765028 7.9793C0.765028 7.99421 0.756916 8.00638 0.747009 8.00638C0.737159 8.00638 0.729047 8.02263 0.729047 8.04254C0.729047 8.0624 0.720936 8.07865 0.711086 8.07865C0.701179 8.07865 0.693067 8.09897 0.693067 8.12384C0.693067 8.15197 0.682928 8.16903 0.666125 8.16903C0.651119 8.16903 0.639125 8.1851 0.639125 8.2052C0.639125 8.22505 0.631072 8.2413 0.621164 8.2413C0.611257 8.2413 0.603203 8.25755 0.603203 8.27747C0.603203 8.29732 0.595091 8.31357 0.585184 8.31357C0.575334 8.31357 0.567223 8.32988 0.567223 8.34974C0.567223 8.3696 0.559169 8.3859 0.549261 8.3859C0.539354 8.3859 0.5313 8.40215 0.5313 8.42201C0.5313 8.44192 0.523189 8.45817 0.513281 8.45817C0.503431 8.45817 0.49532 8.47395 0.49532 8.49323C0.49532 8.51256 0.487208 8.53335 0.477359 8.53947C0.467451 8.54564 0.45934 8.56643 0.45934 8.58577C0.45934 8.60504 0.452735 8.62082 0.444623 8.62082C0.436511 8.62082 0.418898 8.66147 0.405398 8.71115C0.391956 8.76088 0.374285 8.80153 0.366231 8.80153C0.35812 8.80153 0.351456 8.82185 0.351456 8.84672C0.351456 8.87159 0.343403 8.89191 0.333495 8.89191C0.323588 8.89191 0.315534 8.91631 0.315534 8.94613C0.315534 8.97595 0.307423 9.00035 0.297515 9.00035C0.287665 9.00035 0.279554 9.02469 0.279554 9.05456C0.279554 9.08438 0.271442 9.10872 0.261593 9.10872C0.251685 9.10872 0.243573 9.13767 0.243573 9.17307C0.243573 9.21052 0.236215 9.23282 0.22596 9.22642C0.21611 9.2203 0.20319 9.24791 0.196643 9.28902C0.190211 9.32944 0.177928 9.36694 0.169295 9.37224C0.16072 9.3776 0.153709 9.41399 0.153709 9.45319C0.153709 9.49232 0.145598 9.52441 0.135748 9.52441C0.125841 9.52441 0.117729 9.55691 0.117729 9.59668C0.117729 9.63646 0.109676 9.66895 0.0997679 9.66895C0.0898603 9.66895 0.0818067 9.70913 0.0818067 9.75828C0.0818067 9.80738 0.0736952 9.85257 0.0637876 9.85874C0.0539379 9.86486 0.0458264 9.92181 0.0458264 9.98523C0.0458264 10.0486 0.0386419 10.105 0.0298351 10.1105C-0.0282201 10.1465 0.00648554 11.7653 0.0653519 11.7653C0.0743905 11.7653 0.0818067 11.81 0.0818067 11.8647C0.0818067 11.9194 0.0890491 11.9641 0.0979718 11.9641C0.106837 11.9641 0.118598 11.9986 0.124102 12.0409C0.143222 12.1881 0.157765 12.2536 0.173641 12.2635C0.182447 12.2689 0.189632 12.2963 0.189632 12.3243C0.189632 12.3523 0.201799 12.3854 0.216632 12.3978C0.231464 12.4102 0.243573 12.4437 0.243573 12.4723C0.243573 12.5009 0.251685 12.5243 0.261593 12.5243C0.271442 12.5243 0.279554 12.5487 0.279554 12.5785C0.279554 12.6083 0.287665 12.6327 0.297515 12.6327C0.307423 12.6327 0.315534 12.6571 0.315534 12.6869C0.315534 12.7167 0.323588 12.7411 0.333495 12.7411C0.343403 12.7411 0.351456 12.7615 0.351456 12.7863C0.351456 12.8112 0.359568 12.8315 0.369476 12.8315C0.379325 12.8315 0.387437 12.8514 0.387437 12.8756C0.387437 12.8999 0.395548 12.9247 0.405398 12.9309C0.415306 12.937 0.423417 12.9579 0.423417 12.9771C0.423417 12.9964 0.431471 13.0122 0.441378 13.0122C0.451286 13.0122 0.45934 13.028 0.45934 13.0473C0.45934 13.0666 0.467451 13.0874 0.477359 13.0936C0.487208 13.0997 0.49532 13.1245 0.49532 13.1488C0.49532 13.1731 0.503431 13.1929 0.513281 13.1929C0.523189 13.1929 0.5313 13.2018 0.5313 13.2125C0.5313 13.2418 0.64405 13.464 0.658883 13.464C0.665951 13.464 0.709869 13.5413 0.756511 13.6357C0.803094 13.7301 0.848344 13.8074 0.857093 13.8074C0.865784 13.8074 0.872911 13.8236 0.872911 13.8435C0.872911 13.8634 0.879632 13.8796 0.887801 13.8796C0.896029 13.8796 0.914221 13.902 0.928243 13.9294C0.942264 13.9567 0.958313 13.9831 0.963933 13.9881C0.969554 13.9931 1.00594 14.0459 1.04487 14.1055C1.08375 14.1652 1.13781 14.2375 1.16504 14.2664C1.19221 14.2951 1.21452 14.3268 1.21452 14.3365C1.21452 14.3463 1.23051 14.3683 1.25015 14.3854C1.26974 14.4025 1.29616 14.4366 1.30885 14.4612C1.33811 14.5178 1.48307 14.6898 1.60555 14.8131C1.65747 14.8654 1.69994 14.9132 1.69994 14.9194C1.69994 14.9256 1.73076 14.9605 1.76836 14.997C1.80602 15.0335 1.84218 15.0776 1.84873 15.0949C1.85527 15.1124 1.87352 15.1266 1.88923 15.1266C1.90498 15.1266 1.91315 15.1342 1.90742 15.1435C1.90168 15.1528 1.93361 15.1859 1.97839 15.2168C2.05887 15.2725 2.14943 15.3547 2.14943 15.3722C2.14943 15.3876 2.34955 15.5784 2.36578 15.5784C2.37424 15.5784 2.39243 15.5946 2.40622 15.6144C2.42007 15.6342 2.43519 15.6466 2.43982 15.6419C2.44452 15.6372 2.48971 15.6718 2.54035 15.7188C2.59099 15.7658 2.65901 15.8246 2.69145 15.8495C2.72396 15.8743 2.76498 15.9089 2.78259 15.9263C2.80026 15.9437 2.82101 15.9579 2.82871 15.9579C2.83642 15.9579 2.85438 15.9741 2.86863 15.994C2.88289 16.0139 2.9049 16.0302 2.91753 16.0302C2.93022 16.0302 2.94053 16.0378 2.94053 16.047C2.94053 16.0563 2.95571 16.0687 2.97431 16.0746C2.99285 16.0806 3.03133 16.1055 3.05972 16.1301C3.08811 16.1546 3.11968 16.1747 3.12988 16.1747C3.14002 16.1748 3.16001 16.191 3.17426 16.2109C3.18852 16.2308 3.20914 16.247 3.22009 16.247C3.23098 16.247 3.25868 16.2671 3.28162 16.2916C3.30457 16.3162 3.32942 16.3325 3.33684 16.3279C3.34426 16.3233 3.35497 16.3317 3.36059 16.3465C3.36627 16.3614 3.38331 16.3735 3.39849 16.3735C3.41361 16.3735 3.42601 16.3807 3.42601 16.3894C3.42601 16.3981 3.45029 16.4154 3.47995 16.4277C3.50962 16.4401 3.53389 16.4574 3.53389 16.4661C3.53389 16.4748 3.54826 16.4819 3.56587 16.4819C3.58343 16.4819 3.6095 16.4983 3.62376 16.5181C3.63801 16.538 3.66408 16.5543 3.68169 16.5543C3.69925 16.5543 3.71368 16.5609 3.71368 16.569C3.71368 16.5849 3.85001 16.6627 3.87799 16.6627C3.88738 16.6627 3.91531 16.683 3.94005 16.7078C3.96479 16.7327 3.99526 16.753 4.00778 16.753C4.02029 16.753 4.04654 16.7672 4.06607 16.7847C4.08565 16.8021 4.11346 16.819 4.12789 16.8222C4.14237 16.8254 4.15686 16.8356 4.16016 16.8448C4.16346 16.854 4.17725 16.8615 4.19081 16.8615C4.20442 16.8615 4.25431 16.8844 4.3017 16.9124C4.3491 16.9403 4.41422 16.9749 4.44632 16.9891C4.47848 17.0032 4.50478 17.021 4.50478 17.0285C4.50478 17.0361 4.51527 17.0422 4.52813 17.0422C4.56121 17.0422 4.6483 17.0847 4.64847 17.1009C4.64853 17.1084 4.66429 17.1144 4.68352 17.1144C4.7027 17.1144 4.72339 17.1226 4.72953 17.1326C4.73561 17.1425 4.75195 17.1506 4.76574 17.1506C4.77953 17.1506 4.82067 17.1709 4.85711 17.1958C4.8935 17.2206 4.93492 17.241 4.94906 17.241C4.9632 17.241 4.98701 17.2532 5.00196 17.2682C5.01685 17.2833 5.03649 17.2909 5.04559 17.2853C5.05468 17.2796 5.06216 17.2836 5.06216 17.2941C5.06216 17.3046 5.07786 17.3133 5.09704 17.3133C5.11622 17.3133 5.13696 17.3214 5.14304 17.3313C5.14918 17.3413 5.16987 17.3494 5.18905 17.3494C5.20828 17.3494 5.22398 17.3575 5.22398 17.3675C5.22398 17.3774 5.23968 17.3855 5.25886 17.3855C5.27804 17.3855 5.29878 17.3937 5.30487 17.4036C5.31095 17.4135 5.33575 17.4217 5.35985 17.4217C5.38401 17.4217 5.40377 17.4298 5.40377 17.4398C5.40377 17.4497 5.41947 17.4578 5.43865 17.4578C5.45783 17.4578 5.47857 17.466 5.48465 17.4759C5.49079 17.4858 5.51507 17.494 5.53859 17.494C5.56218 17.494 5.58645 17.5021 5.59254 17.512C5.59868 17.522 5.61936 17.5301 5.63854 17.5301C5.65772 17.5301 5.67348 17.5382 5.67348 17.5482C5.67348 17.5581 5.6977 17.5662 5.72736 17.5662C5.75703 17.5662 5.7813 17.5744 5.7813 17.5844C5.7813 17.5943 5.79683 17.6024 5.81578 17.6024C5.83472 17.6024 5.85309 17.611 5.85656 17.6214C5.86004 17.6319 5.87487 17.6423 5.88953 17.6444C5.91456 17.6482 5.99626 17.6772 6.07801 17.7115C6.16301 17.7471 6.33451 17.8012 6.36238 17.8012C6.379 17.8012 6.39262 17.8093 6.39262 17.8193C6.39262 17.8292 6.41238 17.8373 6.43654 17.8373C6.46064 17.8373 6.48486 17.8445 6.49031 17.8534C6.49575 17.8623 6.52855 17.8744 6.56325 17.8805C6.59796 17.8866 6.65468 17.8965 6.68927 17.9025C6.72392 17.9086 6.75225 17.9208 6.75225 17.9297C6.75225 17.9385 6.77653 17.9458 6.80619 17.9458C6.83586 17.9458 6.86013 17.9539 6.86013 17.9638C6.86013 17.9738 6.88841 17.9819 6.92305 17.9819C6.95764 17.9819 6.98598 17.99 6.98598 18C6.98598 18.0099 7.01767 18.018 7.05637 18.018C7.09514 18.018 7.12949 18.0258 7.1328 18.0353C7.1361 18.0448 7.16889 18.0546 7.20568 18.057C7.24247 18.0595 7.27625 18.0711 7.28071 18.0828C7.28518 18.0946 7.31577 18.1086 7.34868 18.114C7.38159 18.1194 7.44491 18.1332 7.48941 18.1447C7.53391 18.1562 7.60268 18.1698 7.6422 18.175C7.68177 18.1802 7.72181 18.1917 7.73119 18.2006C7.74064 18.2095 7.77905 18.2168 7.8166 18.2168C7.8542 18.2168 7.88496 18.2249 7.88496 18.2349C7.88496 18.2449 7.91729 18.253 7.95687 18.253C7.99644 18.253 8.02877 18.2596 8.02877 18.2677C8.02877 18.2758 8.06655 18.2843 8.11272 18.2867C8.1589 18.2891 8.21093 18.2988 8.22837 18.3082C8.24587 18.3176 8.30114 18.3253 8.35126 18.3253C8.40132 18.3253 8.44228 18.3334 8.44228 18.3433C8.44228 18.3533 8.48226 18.3614 8.53116 18.3614C8.58 18.3614 8.62497 18.3695 8.63111 18.3795C8.63719 18.3894 8.69026 18.3976 8.74901 18.3976C8.80823 18.3976 8.85585 18.4056 8.85585 18.4156C8.85585 18.4257 8.90377 18.4337 8.96374 18.4337C9.02307 18.4337 9.07162 18.4407 9.07162 18.4492C9.07162 18.4578 9.13808 18.4663 9.21931 18.4683C9.3006 18.4703 9.37696 18.4801 9.38907 18.4903C9.40112 18.5003 9.4338 18.506 9.46155 18.5028L9.51208 18.497L9.52111 17.3585C9.53044 16.175 9.52853 16.1386 9.45773 16.1386C9.44313 16.1386 9.43119 16.1305 9.43119 16.1205C9.43119 16.1106 9.40691 16.1025 9.37725 16.1025C9.34758 16.1025 9.32331 16.0957 9.32331 16.0874C9.32331 16.0791 9.31132 16.0723 9.29671 16.0723C9.26375 16.0723 9.12753 16.0324 9.08535 16.0104C9.06814 16.0014 9.03784 15.994 9.01791 15.994C8.99798 15.994 8.9817 15.9859 8.9817 15.9759C8.9817 15.966 8.95742 15.9579 8.92776 15.9579C8.89809 15.9579 8.87382 15.9497 8.87382 15.9398C8.87382 15.9299 8.84954 15.9217 8.81987 15.9217C8.79021 15.9217 8.76593 15.9136 8.76593 15.9037C8.76593 15.8937 8.74965 15.8856 8.72972 15.8856C8.69357 15.8856 8.6807 15.8805 8.57438 15.8249C8.54321 15.8086 8.50474 15.7952 8.48898 15.7952C8.47322 15.7952 8.4603 15.7871 8.4603 15.7772C8.4603 15.7672 8.44414 15.7591 8.42432 15.7591C8.40456 15.7591 8.3884 15.7505 8.3884 15.74C8.3884 15.7294 8.38174 15.7249 8.37362 15.73C8.36546 15.7351 8.33625 15.7274 8.30862 15.713C8.28098 15.6986 8.2472 15.6868 8.23347 15.6868C8.2198 15.6868 8.20856 15.6787 8.20856 15.6687C8.20856 15.6588 8.19633 15.6507 8.18138 15.6507C8.16637 15.6507 8.14013 15.6427 8.12292 15.6329C8.05305 15.5931 7.84632 15.5061 7.82158 15.5061C7.80698 15.5061 7.79504 15.4979 7.79504 15.488C7.79504 15.4781 7.77888 15.4699 7.75906 15.4699C7.7393 15.4699 7.72314 15.4618 7.72314 15.4519C7.72314 15.4419 7.71062 15.4338 7.69539 15.4338C7.68015 15.4338 7.65222 15.4196 7.63339 15.4022C7.6145 15.3848 7.55216 15.3465 7.4948 15.317C7.43744 15.2876 7.38645 15.2589 7.38153 15.2533C7.37655 15.2478 7.33408 15.2231 7.28715 15.1985C7.24016 15.1739 7.20174 15.1477 7.20174 15.1402C7.20174 15.1327 7.1905 15.1266 7.17683 15.1266C7.13952 15.1266 7.05666 15.0796 7.07016 15.0661C7.07659 15.0596 7.06431 15.0543 7.04287 15.0543C7.02149 15.0543 7.00394 15.0461 7.00394 15.0362C7.00394 15.0263 6.98957 15.0181 6.97196 15.0181C6.95434 15.0181 6.92827 15.0019 6.91402 14.982C6.89976 14.9621 6.87694 14.9459 6.8632 14.9459C6.84953 14.9459 6.82241 14.9255 6.80295 14.9007C6.78348 14.8759 6.75804 14.8552 6.7464 14.8548C6.73481 14.8544 6.69727 14.83 6.66302 14.8006C6.62878 14.7712 6.59326 14.7471 6.58405 14.7471C6.57484 14.7471 6.54413 14.7227 6.5158 14.6929C6.48741 14.6631 6.45577 14.6387 6.44546 14.6387C6.43509 14.6387 6.40079 14.6143 6.36921 14.5845C6.33758 14.5548 6.30635 14.5304 6.2998 14.5303C6.2932 14.5303 6.22657 14.4693 6.15165 14.3947C6.07679 14.3201 6.00924 14.2591 6.00165 14.2591C5.994 14.2591 5.97766 14.2429 5.96532 14.223C5.95292 14.2031 5.93502 14.1869 5.92551 14.1869C5.90321 14.1869 5.74538 14.0287 5.74538 14.0065C5.74538 13.9972 5.71705 13.9669 5.68246 13.9391C5.64781 13.9114 5.61953 13.8824 5.61953 13.8747C5.61953 13.8669 5.58309 13.824 5.53859 13.7793C5.4941 13.7346 5.45771 13.6904 5.45771 13.6812C5.45771 13.672 5.43749 13.6441 5.41275 13.6193C5.38801 13.5944 5.36779 13.5651 5.36779 13.5541C5.36779 13.5431 5.35968 13.5392 5.34983 13.5454C5.33992 13.5515 5.33181 13.5435 5.33181 13.5275C5.33181 13.5116 5.31159 13.4766 5.28691 13.4498C5.26217 13.4231 5.24194 13.3927 5.24194 13.3824C5.24194 13.372 5.22578 13.3518 5.20596 13.3375C5.18621 13.3232 5.17004 13.3007 5.17004 13.2876C5.17004 13.2744 5.15382 13.2463 5.13406 13.2249C5.1143 13.2036 5.09808 13.1754 5.09808 13.1624C5.09808 13.1494 5.09003 13.1387 5.08012 13.1387C5.07021 13.1387 5.06216 13.1268 5.06216 13.1121C5.06216 13.0976 5.04675 13.058 5.02786 13.0243C4.9953 12.966 4.97722 12.9315 4.93626 12.8498C4.92641 12.83 4.91829 12.8016 4.91829 12.7865C4.91829 12.7715 4.91024 12.7592 4.90033 12.7592C4.89043 12.7592 4.88237 12.7429 4.88237 12.7231C4.88237 12.7032 4.87426 12.6869 4.86435 12.6869C4.8545 12.6869 4.84639 12.6704 4.84639 12.65C4.84639 12.6298 4.83023 12.5813 4.81041 12.5424C4.79065 12.5034 4.77449 12.4547 4.77449 12.4341C4.77449 12.4135 4.76232 12.3919 4.74749 12.3862C4.72993 12.3795 4.72055 12.3513 4.72055 12.3055C4.72055 12.2668 4.71244 12.2351 4.70253 12.2351C4.69268 12.2351 4.68457 12.1985 4.68457 12.1538C4.68457 12.1091 4.67646 12.0725 4.66661 12.0725C4.6567 12.0725 4.64859 12.0318 4.64859 11.9821C4.64859 11.9325 4.64053 11.8918 4.63063 11.8918C4.61991 11.8918 4.61266 11.8225 4.61266 11.7201C4.61266 11.6177 4.60542 11.5484 4.59465 11.5484C4.57101 11.5484 4.57101 11.283 4.59465 11.2683C4.60473 11.262 4.61266 11.1778 4.61266 11.0775C4.61266 10.9698 4.61985 10.8978 4.63063 10.8978C4.64053 10.8978 4.64859 10.8572 4.64859 10.8075C4.64859 10.7578 4.6567 10.7171 4.66661 10.7171C4.67646 10.7171 4.68457 10.6846 4.68457 10.6449C4.68457 10.6051 4.69268 10.5725 4.70253 10.5725C4.71244 10.5725 4.72055 10.5476 4.72055 10.517C4.72055 10.4865 4.73266 10.4494 4.74749 10.4345C4.76232 10.4195 4.77449 10.3835 4.77449 10.3544C4.77449 10.3253 4.78254 10.3014 4.79245 10.3014C4.80236 10.3014 4.81041 10.2857 4.81041 10.2664C4.81041 10.2471 4.81852 10.2263 4.82843 10.2202C4.83828 10.214 4.84639 10.1896 4.84639 10.1659C4.84639 10.1423 4.8545 10.1179 4.86435 10.1117C4.87426 10.1056 4.88237 10.0848 4.88237 10.0655C4.88237 10.0462 4.89043 10.0304 4.90033 10.0304C4.91024 10.0304 4.91829 10.0141 4.91829 9.99426C4.91829 9.9744 4.92641 9.95809 4.93626 9.95809C4.94616 9.95809 4.95428 9.94668 4.95428 9.9327C4.95428 9.90259 5.02925 9.75293 5.04866 9.74425C5.05608 9.74093 5.06216 9.72264 5.06216 9.7036C5.06216 9.68456 5.07021 9.66895 5.08012 9.66895C5.09003 9.66895 5.09808 9.65678 5.09808 9.64187C5.09808 9.62696 5.10416 9.61468 5.11158 9.61462C5.12665 9.61444 5.17004 9.52785 5.17004 9.49797C5.17004 9.48743 5.19026 9.46349 5.21494 9.44486C5.23968 9.42617 5.25991 9.40386 5.25991 9.39518C5.25991 9.38657 5.28418 9.35395 5.31385 9.32274C5.34351 9.29158 5.36779 9.25874 5.36779 9.24983C5.36779 9.24092 5.38598 9.21465 5.40823 9.19153C5.4755 9.12153 5.51165 9.0732 5.51165 9.05322C5.51165 9.023 6.21504 8.32871 6.2633 8.31124C6.28433 8.30367 6.41858 8.18947 6.51024 8.10124C6.54378 8.06898 6.58365 8.04254 6.59883 8.04254C6.61395 8.04254 6.62635 8.03439 6.62635 8.02443C6.62635 8.01453 6.63851 8.00638 6.65335 8.00638C6.66818 8.00638 6.68029 7.99823 6.68029 7.98833C6.68029 7.97837 6.69246 7.97021 6.70729 7.97021C6.72212 7.97021 6.73423 7.96212 6.73423 7.95216C6.73423 7.9422 6.74269 7.93411 6.753 7.93411C6.76326 7.93411 6.7891 7.91786 6.81031 7.89794C6.83151 7.87809 6.8595 7.86184 6.87247 7.86184C6.88545 7.86184 6.89606 7.85368 6.89606 7.84373C6.89606 7.83383 6.90666 7.82567 6.91964 7.82567C6.93262 7.82567 6.9606 7.80943 6.98181 7.78951C7.00307 7.76965 7.02769 7.7534 7.0365 7.7534C7.04536 7.7534 7.07445 7.73308 7.1011 7.70821C7.12781 7.68335 7.16136 7.66302 7.17567 7.66302C7.18998 7.66302 7.20174 7.65487 7.20174 7.64497C7.20174 7.63501 7.21611 7.62686 7.23373 7.62686C7.25128 7.62686 7.27735 7.61061 7.29161 7.59075C7.30586 7.57083 7.33193 7.55459 7.34955 7.55459C7.3671 7.55459 7.38153 7.54643 7.38153 7.53653C7.38153 7.52658 7.39769 7.51842 7.41745 7.51842C7.43727 7.51842 7.45343 7.51033 7.45343 7.50037C7.45343 7.49041 7.4696 7.48232 7.48941 7.48232C7.50917 7.48232 7.52533 7.47416 7.52533 7.46426C7.52533 7.4543 7.53588 7.44615 7.54874 7.44615C7.58183 7.44615 7.66885 7.40364 7.66902 7.38745C7.66914 7.38 7.67737 7.37388 7.68739 7.37388C7.72007 7.37388 7.97483 7.24413 7.97483 7.22748C7.97483 7.21851 7.99053 7.21123 8.00977 7.21123C8.02894 7.21123 8.04963 7.20308 8.05577 7.19318C8.06185 7.18322 8.08254 7.17506 8.10177 7.17506C8.12095 7.17506 8.13665 7.16697 8.13665 7.15701C8.13665 7.14705 8.15282 7.13896 8.17263 7.13896C8.19239 7.13896 8.20856 7.13081 8.20856 7.12085C8.20856 7.11095 8.22831 7.10279 8.25247 7.10279C8.27658 7.10279 8.30137 7.0947 8.30746 7.08474C8.3136 7.07478 8.33428 7.06669 8.35346 7.06669C8.37264 7.06669 8.3884 7.05853 8.3884 7.04858C8.3884 7.03868 8.41262 7.03052 8.44228 7.03052C8.47201 7.03052 8.49622 7.02237 8.49622 7.01247C8.49622 7.00251 8.51193 6.99436 8.53116 6.99436C8.55034 6.99436 8.57102 6.98626 8.57717 6.97631C8.58325 6.96635 8.61205 6.95825 8.64113 6.95825C8.67022 6.95825 8.69403 6.9501 8.69403 6.94014C8.69403 6.93024 8.71019 6.92209 8.73001 6.92209C8.74977 6.92209 8.76593 6.91394 8.76593 6.90404C8.76593 6.89408 8.78013 6.88575 8.79739 6.88546C8.84386 6.88482 9.06965 6.80474 9.09387 6.7804C9.10534 6.76887 9.13738 6.75944 9.16508 6.75944C9.19277 6.75944 9.21543 6.75128 9.21543 6.74138C9.21543 6.73142 9.23924 6.72327 9.26832 6.72327C9.29741 6.72327 9.32621 6.71518 9.33229 6.70522C9.33843 6.69526 9.36271 6.68717 9.38623 6.68717C9.40981 6.68717 9.43409 6.67901 9.44017 6.66911C9.44631 6.65915 9.48369 6.651 9.5232 6.651C9.5666 6.651 9.5907 6.64384 9.58404 6.63295C9.57743 6.62223 9.59846 6.61489 9.63583 6.61489C9.67042 6.61489 9.70374 6.60674 9.70988 6.59678C9.71596 6.58688 9.74835 6.57873 9.78178 6.57873C9.81521 6.57873 9.8476 6.57058 9.85369 6.56068C9.85983 6.55072 9.89673 6.54257 9.93567 6.54257C9.97466 6.54257 10.0065 6.53447 10.0065 6.52451C10.0065 6.51455 10.0389 6.50646 10.0784 6.50646C10.118 6.50646 10.1504 6.49831 10.1504 6.48835C10.1504 6.47845 10.1827 6.4703 10.2223 6.4703C10.2619 6.4703 10.2942 6.46214 10.2942 6.45224C10.2942 6.44228 10.3331 6.43413 10.3805 6.43413C10.428 6.43413 10.4745 6.42644 10.4839 6.41707C10.4933 6.40763 10.5359 6.39791 10.5786 6.3954C10.6212 6.39284 10.6601 6.38428 10.665 6.37636C10.6699 6.36838 10.7119 6.36163 10.7582 6.36128C10.8046 6.36099 10.8583 6.34876 10.8775 6.3342C10.8969 6.31941 10.9507 6.30764 10.9989 6.30764C11.0464 6.30764 11.0853 6.29955 11.0853 6.28959C11.0853 6.27917 11.1419 6.27154 11.2191 6.27154C11.2927 6.27154 11.3579 6.26338 11.364 6.25343C11.3701 6.24353 11.4349 6.23537 11.5079 6.23537C11.5809 6.23537 11.6456 6.22722 11.6517 6.21732C11.6578 6.20736 11.7352 6.19921 11.8236 6.19921C11.9187 6.19921 11.9843 6.19187 11.9843 6.18116C11.9843 6.16992 12.0832 6.1631 12.245 6.1631C12.4099 6.1631 12.5057 6.15635 12.5057 6.1447C12.5057 6.10865 14.8506 6.14546 14.8871 6.18209C14.8965 6.19152 14.9916 6.19921 15.0984 6.19921C15.2159 6.19921 15.2926 6.20637 15.2926 6.21732C15.2926 6.22792 15.3555 6.23537 15.4454 6.23537C15.5353 6.23537 15.5982 6.24283 15.5982 6.25343C15.5982 6.26408 15.6611 6.27154 15.751 6.27154C15.8409 6.27154 15.9038 6.27893 15.9038 6.28959C15.9038 6.29955 15.949 6.30764 16.004 6.30764C16.0691 6.30764 16.1136 6.31714 16.1312 6.33478C16.1484 6.35214 16.1928 6.36186 16.2547 6.36186C16.3078 6.36186 16.3562 6.37001 16.3624 6.37991C16.3684 6.38987 16.4175 6.39803 16.4713 6.39803C16.5251 6.39803 16.5691 6.40612 16.5691 6.41608C16.5691 6.42604 16.6095 6.43413 16.659 6.43413C16.7084 6.43413 16.7489 6.44147 16.7489 6.45038C16.7489 6.45935 16.7833 6.47129 16.8253 6.47693C17.0283 6.50425 17.0648 6.51129 17.0806 6.52638C17.09 6.53529 17.1199 6.54257 17.147 6.54257C17.1741 6.54257 17.2013 6.55072 17.2074 6.56068C17.2135 6.57058 17.2459 6.57873 17.2793 6.57873C17.3127 6.57873 17.3451 6.58688 17.3512 6.59678C17.3574 6.60674 17.3897 6.61489 17.4231 6.61489C17.4566 6.61489 17.4889 6.62299 17.4951 6.63295C17.5012 6.64291 17.53 6.651 17.559 6.651C17.5881 6.651 17.6119 6.65915 17.6119 6.66911C17.6119 6.67901 17.6402 6.68717 17.6749 6.68717C17.7095 6.68717 17.7378 6.69526 17.7378 6.70522C17.7378 6.71518 17.7616 6.72327 17.7907 6.72327C17.8198 6.72327 17.8486 6.73142 17.8546 6.74138C17.8607 6.75128 17.8927 6.75944 17.9257 6.75944C17.9624 6.75944 17.9896 6.76998 17.996 6.78657C18.0017 6.80148 18.0213 6.81365 18.0395 6.81365C18.0577 6.81365 18.1061 6.8299 18.1471 6.84982C18.188 6.86968 18.2381 6.88592 18.2583 6.88592C18.2786 6.88592 18.2952 6.89408 18.2952 6.90404C18.2952 6.91394 18.3109 6.92209 18.33 6.92209C18.3492 6.92209 18.37 6.93024 18.376 6.94014C18.3822 6.9501 18.4069 6.95825 18.4311 6.95825C18.4552 6.95825 18.4749 6.96635 18.4749 6.97631C18.4749 6.98626 18.4911 6.99436 18.5109 6.99436C18.5307 6.99436 18.5468 7.00251 18.5468 7.01247C18.5468 7.02237 18.5711 7.03052 18.6008 7.03052C18.6305 7.03052 18.6547 7.03868 18.6547 7.04858C18.6547 7.05853 18.6666 7.06669 18.6812 7.06669C18.6957 7.06669 18.7364 7.08294 18.7716 7.10279C18.8068 7.12271 18.8475 7.13896 18.862 7.13896C18.8766 7.13896 18.8885 7.14705 18.8885 7.15701C18.8885 7.16697 18.9047 7.17506 18.9244 7.17506C18.9442 7.17506 18.9604 7.18322 18.9604 7.19318C18.9604 7.20308 18.9759 7.21123 18.9948 7.21123C19.0138 7.21123 19.032 7.21804 19.0353 7.22631C19.0386 7.23464 19.102 7.27307 19.1761 7.31174C19.2503 7.35041 19.3137 7.38832 19.317 7.39601C19.3203 7.40376 19.3344 7.41005 19.3484 7.41005C19.3625 7.41005 19.3739 7.41814 19.3739 7.4281C19.3739 7.43806 19.3901 7.44615 19.4099 7.44615C19.4297 7.44615 19.4458 7.4543 19.4458 7.46426C19.4458 7.47416 19.4564 7.48232 19.4694 7.48232C19.4824 7.48232 19.5104 7.49856 19.5316 7.51842C19.5528 7.53834 19.5827 7.55459 19.5979 7.55459C19.6132 7.55459 19.6256 7.56274 19.6256 7.57264C19.6256 7.5826 19.6383 7.59075 19.6537 7.59075C19.6691 7.59075 19.6775 7.59751 19.6725 7.60578C19.6674 7.61405 19.6912 7.63181 19.7253 7.64526C19.7595 7.65877 19.7874 7.6763 19.7874 7.68422C19.7874 7.69715 19.8797 7.76505 19.9697 7.81822C19.988 7.82905 19.9976 7.84332 19.9911 7.84984C19.9846 7.85642 19.9886 7.86184 19.9999 7.86184C20.0191 7.86184 20.0712 7.90301 20.1771 8.00184C20.201 8.02426 20.2303 8.04283 20.2423 8.04318C20.2541 8.04353 20.2963 8.08063 20.3358 8.12559C20.3754 8.17055 20.4704 8.27112 20.5471 8.3491C20.6237 8.42707 20.6864 8.49608 20.6864 8.50243C20.6864 8.50884 20.7046 8.5326 20.7269 8.55525C20.7491 8.5779 20.7876 8.62356 20.8123 8.6567C20.837 8.68983 20.8674 8.72722 20.8797 8.73986C20.8921 8.7525 20.9022 8.77154 20.9022 8.7822C20.9022 8.79279 20.9103 8.80153 20.9202 8.80153C20.9301 8.80153 20.9382 8.81376 20.9382 8.82867C20.9382 8.84358 20.9462 8.85575 20.9561 8.85575C20.966 8.85575 20.9741 8.86792 20.9741 8.88283C20.9741 8.89779 20.9822 8.90996 20.9921 8.90996C21.002 8.90996 21.0101 8.92091 21.0101 8.93425C21.0101 8.94764 21.0262 8.97327 21.046 8.99126C21.0658 9.00926 21.082 9.03436 21.082 9.04699C21.082 9.05969 21.0921 9.081 21.1045 9.09446C21.1353 9.128 21.19 9.21949 21.202 9.25786C21.2075 9.27522 21.2192 9.28949 21.2279 9.28949C21.2367 9.28949 21.2438 9.30573 21.2438 9.32559C21.2438 9.34551 21.2519 9.36176 21.2618 9.36176C21.2717 9.36176 21.2798 9.37754 21.2798 9.39682C21.2798 9.41615 21.2878 9.43694 21.2978 9.44305C21.3077 9.44923 21.3157 9.47002 21.3157 9.48929C21.3157 9.50863 21.3238 9.52441 21.3337 9.52441C21.3436 9.52441 21.3517 9.54473 21.3517 9.5696C21.3517 9.59441 21.3598 9.61473 21.3697 9.61473C21.3796 9.61473 21.3877 9.63052 21.3877 9.64985C21.3877 9.66913 21.3957 9.68992 21.4056 9.69609C21.4155 9.7022 21.4236 9.7255 21.4236 9.74774C21.4236 9.76999 21.4317 9.79631 21.4415 9.80621C21.4513 9.81611 21.4611 9.84616 21.4634 9.87307C21.4656 9.89997 21.4737 9.92198 21.4815 9.92198C21.4892 9.92198 21.4955 9.94184 21.4955 9.96607C21.4955 9.99035 21.5036 10.0152 21.5135 10.0214C21.5234 10.0275 21.5315 10.0559 21.5315 10.0844C21.5315 10.1129 21.5436 10.1485 21.5585 10.1634C21.5736 10.1786 21.5854 10.2227 21.5854 10.2641C21.5854 10.3045 21.5935 10.3376 21.6034 10.3376C21.6133 10.3376 21.6214 10.3737 21.6214 10.4179C21.6214 10.462 21.6295 10.5032 21.6394 10.5093C21.6493 10.5155 21.6573 10.5683 21.6573 10.6268C21.6573 10.6852 21.6654 10.7381 21.6753 10.7442C21.6858 10.7507 21.6933 10.8525 21.6933 10.9882C21.6933 11.1239 21.7008 11.2257 21.7113 11.2322C21.7329 11.2456 21.7357 11.5303 21.7142 11.5303C21.7059 11.5303 21.6974 11.6416 21.6951 11.7776C21.6928 11.9136 21.6835 12.0391 21.6742 12.0566C21.6649 12.074 21.6573 12.1289 21.6573 12.1787C21.6573 12.2284 21.6493 12.2742 21.6394 12.2803C21.6295 12.2865 21.6214 12.3276 21.6214 12.3717C21.6214 12.4159 21.6149 12.452 21.6069 12.452C21.599 12.452 21.5905 12.4863 21.588 12.5283C21.5855 12.5703 21.575 12.61 21.5646 12.6164C21.5542 12.6229 21.539 12.6638 21.5309 12.7072C21.5228 12.7507 21.5062 12.8107 21.4941 12.8405C21.4819 12.8703 21.4698 12.9061 21.467 12.92C21.4518 12.9967 21.4139 13.1026 21.4017 13.1026C21.394 13.1026 21.3877 13.1188 21.3877 13.1387C21.3877 13.1586 21.3813 13.1749 21.3736 13.1749C21.3658 13.1749 21.3577 13.1972 21.3555 13.2245C21.3532 13.2519 21.3434 13.2769 21.3336 13.2803C21.3238 13.2836 21.3157 13.297 21.3157 13.3102C21.3157 13.3392 21.2402 13.4887 21.2213 13.4971C21.2139 13.5005 21.2078 13.521 21.2078 13.5428C21.2078 13.5647 21.1917 13.5943 21.1719 13.6086C21.1521 13.6229 21.1358 13.6471 21.1356 13.6623C21.1355 13.6775 21.1112 13.7174 21.0817 13.7511C21.0522 13.7848 21.028 13.8236 21.028 13.8375C21.028 13.8514 21.0159 13.8674 21.0011 13.8731C20.9863 13.8788 20.9741 13.8972 20.9741 13.9139C20.9741 13.9306 20.9418 13.9803 20.9022 14.0242C20.8626 14.0681 20.8303 14.1146 20.8303 14.1274C20.8303 14.1402 20.8236 14.1507 20.8153 14.1507C20.8071 14.1507 20.7889 14.1729 20.7749 14.2C20.7448 14.2582 20.2242 14.7861 20.12 14.8641C20.0805 14.8937 20.0296 14.9364 20.0069 14.959C19.9842 14.9816 19.9583 15.0001 19.9493 15.0001C19.9403 15.0001 19.9127 15.0204 19.888 15.0453C19.8632 15.0701 19.8343 15.0905 19.8235 15.0905C19.8127 15.0905 19.788 15.1054 19.7684 15.1237C19.7489 15.142 19.7108 15.1684 19.6838 15.1824C19.6567 15.1965 19.6239 15.2223 19.6109 15.2398C19.5979 15.2574 19.5797 15.2671 19.5705 15.2614C19.5613 15.2556 19.5537 15.2588 19.5537 15.2683C19.5537 15.2779 19.5315 15.2936 19.5043 15.3034C19.4771 15.3132 19.4346 15.3382 19.4099 15.359C19.3852 15.38 19.3552 15.4053 19.3432 15.4154C19.3313 15.4256 19.305 15.4338 19.2848 15.4338C19.2646 15.4338 19.2481 15.4414 19.2481 15.4507C19.2481 15.46 19.2198 15.4779 19.1852 15.4905C19.1505 15.5031 19.1222 15.5198 19.1222 15.5278C19.1222 15.5357 19.102 15.5423 19.0773 15.5423C19.0525 15.5423 19.0323 15.5494 19.0323 15.5582C19.0323 15.567 19.0162 15.5784 18.9963 15.5836C18.9314 15.6007 18.9585 15.6472 19.0925 15.7486C19.2199 15.845 19.3881 16.0277 19.4463 16.1329C19.6234 16.4532 19.6405 16.4596 19.8523 16.2842C19.9528 16.201 19.9761 16.1841 20.0259 16.1582C20.053 16.144 20.0751 16.1257 20.0751 16.1175C20.0751 16.1092 20.0855 16.1025 20.0982 16.1025C20.111 16.1025 20.1575 16.0702 20.2017 16.0307C20.2458 15.9912 20.2871 15.9587 20.2935 15.9584C20.3039 15.9579 20.379 15.8945 20.4542 15.8225C20.4699 15.8075 20.4889 15.7952 20.4965 15.7952C20.504 15.7952 20.5316 15.7723 20.5579 15.7442C20.5841 15.7161 20.646 15.6625 20.6954 15.625C20.8052 15.5419 21.082 15.2745 21.082 15.2516C21.082 15.2425 21.0925 15.235 21.1053 15.235C21.1181 15.235 21.1848 15.1733 21.2536 15.0979C21.3224 15.0224 21.4272 14.9103 21.4865 14.8488C21.5458 14.7873 21.6266 14.6966 21.6658 14.6471C21.7051 14.5977 21.7516 14.5467 21.7692 14.5337C21.7868 14.5207 21.8012 14.4984 21.8012 14.4841C21.8012 14.4697 21.8335 14.4235 21.8731 14.3813C21.9127 14.339 21.945 14.2961 21.945 14.2858C21.945 14.2756 21.9612 14.2554 21.981 14.2411C22.0007 14.2268 22.017 14.2041 22.017 14.1908C22.017 14.1774 22.0375 14.1447 22.0627 14.1179C22.1157 14.0617 22.2507 13.8532 22.2507 13.8277C22.2507 13.8182 22.257 13.8076 22.2648 13.8043C22.2862 13.7952 22.3586 13.6643 22.3586 13.6346C22.3586 13.6203 22.3666 13.6086 22.3765 13.6086C22.3864 13.6086 22.3945 13.5953 22.3945 13.5791C22.3945 13.5628 22.4087 13.5364 22.4259 13.5203C22.4433 13.5042 22.4598 13.4769 22.4627 13.4596C22.4656 13.4423 22.4878 13.4065 22.5122 13.3801C22.5364 13.3538 22.5564 13.3192 22.5564 13.3033C22.5564 13.2873 22.5726 13.2477 22.5924 13.2151C22.6121 13.1825 22.6282 13.1399 22.6282 13.1202C22.6282 13.1005 22.6363 13.0845 22.6462 13.0845C22.6561 13.0845 22.6642 13.0682 22.6642 13.0484C22.6642 13.0285 22.6723 13.0122 22.6822 13.0122C22.6921 13.0122 22.7002 12.9914 22.7002 12.966C22.7002 12.9405 22.7065 12.9237 22.7144 12.9286C22.7222 12.9335 22.7298 12.9225 22.7311 12.9042C22.7325 12.886 22.7503 12.8363 22.7708 12.7937C22.7913 12.7511 22.8081 12.698 22.8081 12.6755C22.8081 12.6532 22.8161 12.6298 22.826 12.6237C22.8359 12.6175 22.844 12.5927 22.844 12.5684C22.844 12.5441 22.8521 12.5243 22.862 12.5243C22.8718 12.5243 22.88 12.4999 22.88 12.4701C22.88 12.4403 22.8881 12.4159 22.8979 12.4159C22.9078 12.4159 22.9159 12.3831 22.9159 12.343C22.9159 12.3014 22.9256 12.2664 22.9384 12.2614C22.9508 12.2567 22.963 12.2226 22.9657 12.1858C22.9683 12.149 22.9784 12.1109 22.9881 12.1011C22.9979 12.0913 23.0058 12.057 23.0058 12.0248C23.0058 11.9926 23.0139 11.9612 23.0238 11.9551C23.0337 11.9489 23.0418 11.9037 23.0418 11.8545C23.0418 11.8054 23.0498 11.7653 23.0597 11.7653C23.0699 11.7653 23.0777 11.7141 23.0777 11.6478C23.0777 11.5832 23.0848 11.5303 23.0936 11.5303C23.1023 11.5303 23.1108 11.4432 23.1125 11.3366C23.1142 11.23 23.123 11.1381 23.1322 11.1325C23.1611 11.1145 23.1253 10.144 23.0946 10.1126C23.0853 10.1032 23.0777 10.057 23.0777 10.0099C23.0777 9.96281 23.0701 9.90399 23.0606 9.87912C23.0512 9.85431 23.0416 9.79684 23.0393 9.75147C23.037 9.70611 23.0285 9.66895 23.0204 9.66895C23.0124 9.66895 23.0058 9.64903 23.0058 9.62469C23.0058 9.55813 22.9541 9.37166 22.9337 9.36479C22.9239 9.36147 22.9159 9.33142 22.9159 9.29805C22.9159 9.26468 22.9078 9.23236 22.8979 9.22624C22.8881 9.22007 22.88 9.19113 22.88 9.16189C22.88 9.13266 22.8718 9.10872 22.862 9.10872C22.8521 9.10872 22.844 9.09236 22.844 9.07238C22.844 9.05235 22.8364 9.02184 22.8272 9.0046C22.818 8.98736 22.8 8.9346 22.7873 8.88737C22.7746 8.84014 22.7579 8.80153 22.7502 8.80153C22.7425 8.80153 22.7361 8.78575 22.7361 8.76647C22.7361 8.74714 22.728 8.72635 22.7181 8.72023C22.7082 8.71406 22.7002 8.68919 22.7002 8.66491C22.7002 8.64068 22.6921 8.62082 22.6822 8.62082C22.6723 8.62082 22.6642 8.60947 22.6642 8.59555C22.6642 8.58163 22.6399 8.52392 22.6103 8.4672C22.5806 8.41054 22.5563 8.35626 22.5563 8.34659C22.5563 8.33698 22.5441 8.31683 22.5292 8.30181C22.5142 8.28684 22.5067 8.26704 22.5123 8.2579C22.5179 8.24881 22.5098 8.2413 22.4944 8.2413C22.4784 8.2413 22.4664 8.22587 22.4664 8.2052C22.4664 8.18528 22.4583 8.16903 22.4484 8.16903C22.4386 8.16903 22.4305 8.14871 22.4305 8.12384C22.4305 8.09897 22.4224 8.07865 22.4125 8.07865C22.4026 8.07865 22.3945 8.0624 22.3945 8.04254C22.3945 8.02263 22.3864 8.00638 22.3765 8.00638C22.3666 8.00638 22.3586 7.9931 22.3586 7.97685C22.3586 7.96066 22.3438 7.93422 22.3257 7.91815C22.3077 7.90208 22.2814 7.86248 22.2674 7.83016C22.2533 7.7979 22.2358 7.77146 22.2283 7.77146C22.2208 7.77146 22.2147 7.75993 22.2147 7.74583C22.2147 7.7318 22.2082 7.71753 22.2002 7.71421C22.1922 7.71089 22.1593 7.66157 22.127 7.60449C22.0948 7.54748 22.0576 7.49466 22.0442 7.48703C22.0308 7.47946 22.0172 7.46118 22.0139 7.44633C22.0106 7.43153 21.9857 7.39776 21.9585 7.37132C21.9313 7.34488 21.9091 7.31431 21.9091 7.30336C21.9091 7.29247 21.901 7.2835 21.8911 7.2835C21.8812 7.2835 21.8731 7.27133 21.8731 7.25642C21.8731 7.24151 21.865 7.22928 21.8551 7.22928C21.8452 7.22928 21.8371 7.21711 21.8371 7.2022C21.8371 7.18729 21.8298 7.17506 21.8208 7.17506C21.8119 7.17506 21.7764 7.13645 21.742 7.08922C21.6534 6.96786 21.6226 6.93065 21.536 6.84056C21.4939 6.79688 21.4596 6.75635 21.4596 6.75053C21.4596 6.73766 21.1194 6.39803 21.1065 6.39803C21.0931 6.39803 21.046 6.34835 21.046 6.33426C21.046 6.32762 21.0198 6.29774 20.9876 6.26787C20.9554 6.23799 20.8913 6.17784 20.8451 6.1341C20.7988 6.09042 20.754 6.05467 20.7456 6.05467C20.7372 6.05467 20.7186 6.03836 20.7044 6.0185C20.6901 5.99864 20.6725 5.98234 20.6651 5.98234C20.6577 5.98234 20.6251 5.95835 20.5926 5.92905C20.5602 5.8997 20.4972 5.84281 20.4527 5.80256C20.4082 5.76232 20.367 5.72936 20.361 5.72936C20.3551 5.72936 20.3336 5.71515 20.3131 5.69774C20.2146 5.61394 20.1993 5.60287 20.1828 5.60287C20.173 5.60287 20.165 5.59472 20.165 5.58476C20.165 5.57486 20.1547 5.56671 20.142 5.56671C20.1294 5.56671 20.1074 5.55046 20.0931 5.53055C20.0789 5.51069 20.0565 5.49444 20.0434 5.49444C20.0303 5.49444 19.9998 5.47452 19.9756 5.45024C19.9238 5.39812 19.7786 5.29562 19.7567 5.29562C19.7483 5.29562 19.7298 5.27938 19.7155 5.25952C19.7013 5.2396 19.6752 5.22335 19.6576 5.22335C19.64 5.22335 19.6256 5.2152 19.6256 5.2053C19.6256 5.19534 19.6124 5.18719 19.5963 5.18719C19.5801 5.18719 19.5538 5.1724 19.5378 5.15423C19.5219 5.13606 19.4831 5.10997 19.4516 5.09617C19.4202 5.08236 19.3984 5.06472 19.4032 5.05686C19.4081 5.04905 19.3909 5.04265 19.365 5.04265C19.3381 5.04265 19.3227 5.03484 19.329 5.02459C19.3351 5.01464 19.3287 5.00648 19.3148 5.00648C19.301 5.00648 19.2661 4.98616 19.2374 4.96135C19.2086 4.93648 19.175 4.91616 19.1627 4.91616C19.1503 4.91616 19.1402 4.90754 19.1402 4.897C19.1402 4.88646 19.1327 4.8825 19.1236 4.88815C19.1146 4.8938 19.0949 4.88611 19.08 4.87114C19.0651 4.85612 19.0449 4.84383 19.0351 4.84383C19.0253 4.84383 19.0147 4.83777 19.0113 4.83032C19.0027 4.81075 18.8538 4.7354 18.8239 4.7354C18.81 4.7354 18.7986 4.7273 18.7986 4.71734C18.7986 4.70738 18.7824 4.69929 18.7626 4.69929C18.7429 4.69929 18.7266 4.69114 18.7266 4.68124C18.7266 4.67128 18.7105 4.66312 18.6907 4.66312C18.6709 4.66312 18.6547 4.65701 18.6546 4.64956C18.6544 4.63337 18.5674 4.59085 18.5343 4.59085C18.5214 4.59085 18.5109 4.58369 18.5109 4.5749C18.5109 4.5661 18.4967 4.55399 18.4795 4.54799C18.4621 4.54199 18.4237 4.52132 18.3941 4.50204C18.3644 4.48277 18.3259 4.4664 18.3087 4.46565C18.2913 4.46495 18.2771 4.45621 18.2771 4.44626C18.2771 4.43636 18.2667 4.4282 18.2538 4.4282C18.2207 4.4282 18.1336 4.38569 18.1335 4.3695C18.1334 4.36205 18.1172 4.35593 18.0974 4.35593C18.0776 4.35593 18.0614 4.34778 18.0614 4.33782C18.0614 4.32792 18.0412 4.31977 18.0165 4.31977C17.9917 4.31977 17.9715 4.31167 17.9715 4.30171C17.9715 4.29176 17.9518 4.28366 17.9277 4.28366C17.9035 4.28366 17.8787 4.27551 17.8726 4.26555C17.8665 4.25565 17.8458 4.2475 17.8266 4.2475C17.8074 4.2475 17.7917 4.23934 17.7917 4.22944C17.7917 4.21949 17.776 4.21133 17.7568 4.21133C17.7376 4.21133 17.7169 4.20324 17.7108 4.19328C17.7047 4.18332 17.68 4.17523 17.6558 4.17523C17.6317 4.17523 17.6119 4.16707 17.6119 4.15711C17.6119 4.14721 17.5917 4.13906 17.567 4.13906C17.5422 4.13906 17.522 4.13091 17.522 4.12101C17.522 4.11105 17.5028 4.1029 17.4793 4.1029C17.4558 4.1029 17.4271 4.09154 17.4156 4.07756C17.4041 4.06365 17.3586 4.04158 17.3145 4.02847C17.2704 4.01537 17.2343 3.99831 17.2343 3.99056C17.2343 3.98276 17.2101 3.97641 17.1804 3.97641C17.1507 3.97641 17.1265 3.96826 17.1265 3.95836C17.1265 3.9484 17.1062 3.94024 17.0815 3.94024C17.0568 3.94024 17.0366 3.93215 17.0366 3.92219C17.0366 3.91229 17.0123 3.90414 16.9827 3.90414C16.953 3.90414 16.9287 3.89599 16.9287 3.88609C16.9287 3.87613 16.9044 3.86797 16.8748 3.86797C16.8451 3.86797 16.8208 3.85988 16.8208 3.84992C16.8208 3.83996 16.7966 3.83187 16.7669 3.83187C16.7372 3.83187 16.713 3.82372 16.713 3.81376C16.713 3.80386 16.6846 3.7957 16.65 3.7957C16.6154 3.7957 16.5871 3.78755 16.5871 3.77765C16.5871 3.76769 16.5633 3.75954 16.5342 3.75954C16.5051 3.75954 16.4763 3.75144 16.4702 3.74149C16.4641 3.73153 16.4313 3.72343 16.3972 3.72343C16.3632 3.72343 16.3354 3.71528 16.3354 3.70532C16.3354 3.69542 16.3115 3.68727 16.2825 3.68727C16.2534 3.68727 16.2246 3.67912 16.2185 3.66922C16.2124 3.65926 16.187 3.6511 16.1622 3.6511C16.1374 3.6511 16.1049 3.63893 16.0901 3.62402C16.0752 3.60912 16.0394 3.59689 16.0104 3.59689C15.9815 3.59689 15.9578 3.58961 15.9578 3.58076C15.9578 3.57185 15.9254 3.55967 15.8859 3.55362C15.8463 3.54762 15.7815 3.53778 15.7419 3.53178C15.7023 3.52572 15.6654 3.51355 15.66 3.50464C15.6545 3.49573 15.6262 3.48851 15.5972 3.48851C15.5681 3.48851 15.5443 3.48036 15.5443 3.4704C15.5443 3.4605 15.5079 3.45235 15.4634 3.45235C15.4189 3.45235 15.3824 3.44419 15.3824 3.43429C15.3824 3.42433 15.342 3.41618 15.2926 3.41618C15.2431 3.41618 15.2026 3.4089 15.2026 3.39993C15.2026 3.39102 15.1683 3.37909 15.1262 3.37344C14.9232 3.34612 14.8868 3.33902 14.8709 3.32399C14.8616 3.31508 14.8069 3.30775 14.7496 3.30775C14.692 3.30775 14.6453 3.29965 14.6453 3.28969C14.6453 3.27974 14.6048 3.27164 14.5554 3.27164C14.5059 3.27164 14.4655 3.26349 14.4655 3.25353C14.4655 3.24334 14.4146 3.23548 14.3486 3.23548C14.2827 3.23548 14.2318 3.22761 14.2318 3.21742C14.2318 3.20712 14.179 3.19931 14.1095 3.19931C14.0397 3.19931 13.9782 3.19023 13.9661 3.17806C13.9439 3.15575 13.7547 3.13094 13.4901 3.11557C13.4036 3.1105 13.3328 3.09979 13.3328 3.09175C13.3328 3.08366 13.2417 3.07568 13.1305 3.07405C13.0193 3.07236 12.9205 3.06327 12.9111 3.05384C12.9018 3.0444 12.7591 3.03672 12.5931 3.03672C12.4118 3.03672 12.2877 3.0295 12.2809 3.01861C12.2657 2.9938 10.8516 2.9938 10.8516 3.01861ZM15.1757 16.589C15.0669 16.5948 14.9697 16.6048 14.9597 16.6114C14.9496 16.618 14.8344 16.6261 14.7034 16.6295C14.5726 16.6328 14.4655 16.6417 14.4655 16.6491C14.4655 16.6566 14.248 16.6627 13.9822 16.6627H13.4988L13.4879 16.7034C13.482 16.7257 13.477 17.1404 13.4769 17.625L13.4766 18.506H13.6014C13.67 18.506 13.7312 18.4978 13.7373 18.4879C13.7434 18.478 13.8127 18.4698 13.8912 18.4698C13.9744 18.4698 14.034 18.4623 14.034 18.4518C14.034 18.4418 14.0819 18.4337 14.1418 18.4337C14.2018 18.4337 14.2497 18.4257 14.2497 18.4156C14.2497 18.4053 14.3037 18.3976 14.3756 18.3976C14.4475 18.3976 14.5015 18.3898 14.5015 18.3795C14.5015 18.3695 14.5419 18.3614 14.5913 18.3614C14.6408 18.3614 14.6813 18.354 14.6813 18.345C14.6813 18.3359 14.7278 18.3243 14.7846 18.3192C14.8415 18.3142 14.9325 18.3008 14.9869 18.2896C15.0413 18.2784 15.1162 18.2647 15.1533 18.2592C15.1905 18.2537 15.2253 18.2419 15.2308 18.233C15.2363 18.2241 15.2721 18.2168 15.3105 18.2168C15.3489 18.2168 15.3853 18.2087 15.3914 18.1987C15.3976 18.1888 15.4284 18.1805 15.4599 18.1803C15.4915 18.18 15.5659 18.1633 15.6252 18.1431C15.6845 18.123 15.756 18.1056 15.7841 18.1046C15.8122 18.1036 15.8394 18.0919 15.8445 18.0785C15.8501 18.0639 15.8817 18.0542 15.9238 18.0542C15.9622 18.0542 15.9938 18.046 15.9938 18.0361C15.9938 18.0262 16.0216 18.018 16.0556 18.018C16.0896 18.018 16.1225 18.0099 16.1286 18C16.1347 17.99 16.1554 17.9819 16.1746 17.9819C16.2276 17.9819 16.2179 17.9407 16.122 17.7592C16.0739 17.668 15.9918 17.512 15.9397 17.4127C15.7628 17.0755 15.6891 16.9454 15.5948 16.8037C15.5571 16.7471 15.5263 16.6929 15.5263 16.6833C15.5263 16.6588 15.42 16.5717 15.3945 16.5754C15.383 16.5772 15.2845 16.5833 15.1757 16.589Z" fill="#B2B4B8"/>
<path fill-rule="evenodd" clip-rule="evenodd" d="M9.48537 11.988C9.48537 14.9556 9.49099 16.1556 9.50489 16.1695C9.53027 16.1951 9.52807 18.4708 9.50263 18.4964C9.49192 18.5071 9.48537 18.9872 9.48537 19.757V21.0004H11.4931H13.5007L13.4885 19.0844C13.4818 18.0305 13.4818 16.8798 13.4885 16.5272L13.5006 15.8861H14.0823C14.4086 15.8861 14.6777 15.8935 14.6952 15.903C14.7124 15.9123 14.7528 15.9305 14.7849 15.9435C14.817 15.9566 14.8433 15.9733 14.8433 15.9809C14.8433 15.9884 14.8551 15.9945 14.8695 15.9945C14.8992 15.9945 15.2568 16.3443 15.2568 16.3733C15.2568 16.3836 15.2649 16.3921 15.2748 16.3921C15.2847 16.3921 15.2928 16.4013 15.2928 16.4126C15.2928 16.4238 15.31 16.448 15.3309 16.4663C15.3564 16.4886 15.3664 16.5139 15.3609 16.5428C15.3545 16.5763 15.3594 16.5842 15.3827 16.5781C15.4137 16.5699 15.5265 16.6529 15.5265 16.6838C15.5265 16.6934 15.5574 16.7476 15.595 16.8042C15.689 16.9454 15.7633 17.0766 15.9376 17.4086C15.9884 17.5055 16.0697 17.66 16.1182 17.752C16.1667 17.8439 16.2121 17.9496 16.2191 17.9869C16.226 18.0242 16.2389 18.0547 16.2477 18.0547C16.2565 18.0547 16.2637 18.075 16.2637 18.0999C16.2637 18.1247 16.2718 18.1451 16.2817 18.1451C16.2916 18.1451 16.2996 18.1613 16.2996 18.1812C16.2996 18.201 16.3077 18.2173 16.3176 18.2173C16.3275 18.2173 16.3356 18.2336 16.3356 18.2535C16.3356 18.2734 16.3437 18.2896 16.3536 18.2896C16.3635 18.2896 16.3716 18.3059 16.3716 18.3258C16.3716 18.3456 16.3778 18.3619 16.3854 18.3619C16.393 18.3619 16.4391 18.4392 16.488 18.5336C16.5368 18.628 16.5832 18.7052 16.5911 18.7052C16.5989 18.7052 16.6053 18.7215 16.6053 18.7414C16.6053 18.7613 16.6134 18.7776 16.6233 18.7776C16.6332 18.7776 16.6413 18.7938 16.6413 18.8137C16.6413 18.8336 16.6493 18.8498 16.6592 18.8498C16.6692 18.8498 16.6772 18.8661 16.6772 18.886C16.6772 18.9059 16.6853 18.9221 16.6952 18.9221C16.7051 18.9221 16.7132 18.9384 16.7132 18.9583C16.7132 18.9781 16.7197 18.9944 16.7278 18.9944C16.7358 18.9944 16.7535 19.0229 16.7671 19.0577C16.7807 19.0925 16.7984 19.1209 16.8064 19.1209C16.8145 19.1209 16.8211 19.1372 16.8211 19.157C16.8211 19.177 16.8291 19.1932 16.839 19.1932C16.8489 19.1932 16.857 19.2094 16.857 19.2294C16.857 19.2492 16.8651 19.2655 16.875 19.2655C16.8849 19.2655 16.893 19.2818 16.893 19.3016C16.893 19.3215 16.9011 19.3377 16.9109 19.3377C16.9208 19.3377 16.929 19.354 16.929 19.3739C16.929 19.3938 16.935 19.4101 16.9424 19.4102C16.9498 19.4103 16.9646 19.4286 16.9752 19.4508C17.0269 19.5595 17.0994 19.6812 17.1123 19.6812C17.1202 19.6812 17.1267 19.6974 17.1267 19.7173C17.1267 19.7372 17.1348 19.7534 17.1447 19.7534C17.1546 19.7534 17.1627 19.7697 17.1627 19.7895C17.1627 19.8095 17.1707 19.8257 17.1806 19.8257C17.1905 19.8257 17.1986 19.8415 17.1986 19.8608C17.1986 19.8801 17.2067 19.9009 17.2166 19.9071C17.2265 19.9132 17.2346 19.934 17.2346 19.9533C17.2346 19.9726 17.2427 19.9884 17.2525 19.9884C17.2625 19.9884 17.2706 20.004 17.2706 20.023C17.2706 20.042 17.2766 20.0603 17.284 20.0637C17.297 20.0694 17.3658 20.1887 17.4046 20.2728C17.4149 20.2951 17.4294 20.3134 17.4368 20.3135C17.4443 20.3136 17.4503 20.3301 17.4503 20.3503C17.4503 20.3706 17.4625 20.3918 17.4773 20.3975C17.4921 20.4032 17.5043 20.4233 17.5043 20.4421C17.5043 20.4609 17.5123 20.4763 17.5223 20.4763C17.5322 20.4763 17.5402 20.4926 17.5402 20.5124C17.5402 20.5323 17.5483 20.5486 17.5582 20.5486C17.5681 20.5486 17.5762 20.5648 17.5762 20.5847C17.5762 20.6046 17.5843 20.6208 17.5942 20.6208C17.6041 20.6208 17.6122 20.6371 17.6122 20.657C17.6122 20.6769 17.6202 20.6931 17.6301 20.6931C17.64 20.6931 17.6481 20.7094 17.6481 20.7293C17.6481 20.7491 17.6547 20.7654 17.6628 20.7654C17.6708 20.7654 17.6885 20.7939 17.702 20.8287C17.7157 20.8635 17.7333 20.8919 17.7414 20.8919C17.7494 20.8919 17.756 20.9047 17.756 20.9203C17.756 21.0038 17.6637 21.0008 20.0517 20.9959L22.2959 20.9913L22.2896 20.928C22.2862 20.8933 22.2775 20.8608 22.2702 20.8558C22.263 20.8508 22.2456 20.8203 22.2316 20.788C22.2176 20.7557 22.2 20.7293 22.1926 20.7293C22.1851 20.7293 22.179 20.713 22.179 20.6931C22.179 20.6733 22.1709 20.657 22.161 20.657C22.1511 20.657 22.143 20.6464 22.143 20.6333C22.143 20.6203 22.1284 20.5938 22.1106 20.5746C22.0929 20.5553 22.0729 20.5253 22.0663 20.5079C22.0597 20.4905 22.0459 20.4763 22.0357 20.4763C22.0255 20.4763 22.0172 20.4618 22.0172 20.4441C22.0172 20.4265 22.001 20.4003 21.9812 20.3859C21.9615 20.3716 21.9452 20.3413 21.9452 20.3187C21.9452 20.296 21.9372 20.2775 21.9273 20.2775C21.9174 20.2775 21.9093 20.265 21.9093 20.2497C21.9093 20.2343 21.8931 20.2043 21.8733 20.183C21.8536 20.1617 21.8373 20.1335 21.8373 20.1205C21.8373 20.1074 21.8293 20.0968 21.8194 20.0968C21.8095 20.0968 21.8014 20.0805 21.8014 20.0606C21.8014 20.0408 21.7943 20.0245 21.7856 20.0245C21.7769 20.0245 21.7598 20.0001 21.7475 19.9703C21.7352 19.9405 21.718 19.9161 21.7094 19.9161C21.7007 19.9161 21.6935 19.9037 21.6935 19.8886C21.6935 19.8549 21.6049 19.7173 21.5833 19.7173C21.5747 19.7173 21.5677 19.701 21.5677 19.6812C21.5677 19.6612 21.5596 19.645 21.5497 19.645C21.5398 19.645 21.5317 19.6305 21.5317 19.6128C21.5317 19.5951 21.5156 19.5689 21.4957 19.5546C21.476 19.5403 21.4598 19.5141 21.4598 19.4964C21.4598 19.4787 21.4517 19.4643 21.4418 19.4643C21.4319 19.4643 21.4238 19.448 21.4238 19.4281C21.4238 19.4083 21.4158 19.392 21.4059 19.392C21.396 19.392 21.3879 19.3798 21.3879 19.3649C21.3879 19.35 21.3798 19.3377 21.3699 19.3377C21.36 19.3377 21.3519 19.3215 21.3519 19.3016C21.3519 19.2818 21.3438 19.2655 21.334 19.2655C21.3241 19.2655 21.3159 19.253 21.3159 19.2376C21.3159 19.2223 21.2998 19.1923 21.28 19.171C21.2602 19.1496 21.244 19.1215 21.244 19.1085C21.244 19.0954 21.2359 19.0848 21.2261 19.0848C21.2162 19.0848 21.2081 19.0685 21.2081 19.0486C21.2081 19.0287 21.2015 19.0125 21.1934 19.0125C21.1854 19.0125 21.1653 18.984 21.1488 18.9493C21.1323 18.9144 21.1106 18.886 21.1005 18.886C21.0904 18.886 21.0822 18.8697 21.0822 18.8498C21.0822 18.83 21.0741 18.8137 21.0643 18.8137C21.0544 18.8137 21.0462 18.803 21.0462 18.79C21.0462 18.7769 21.0301 18.7489 21.0103 18.7275C20.9905 18.7062 20.9743 18.6762 20.9743 18.6609C20.9743 18.6455 20.9663 18.633 20.9564 18.633C20.9465 18.633 20.9384 18.6205 20.9384 18.6051C20.9384 18.5898 20.9222 18.5598 20.9024 18.5385C20.8827 18.5171 20.8665 18.4849 20.8665 18.4669C20.8665 18.4489 20.8584 18.4342 20.8485 18.4342C20.8386 18.4342 20.8305 18.4235 20.8305 18.4105C20.8305 18.3975 20.8143 18.3693 20.7946 18.348C20.7748 18.3267 20.7586 18.2967 20.7586 18.2813C20.7586 18.266 20.7505 18.2535 20.7406 18.2535C20.7307 18.2535 20.7226 18.2428 20.7226 18.2297C20.7226 18.2168 20.7045 18.1865 20.6822 18.1625C20.6391 18.1162 20.5968 18.0435 20.5968 18.0157C20.5968 18.0065 20.5806 17.9815 20.5608 17.9602C20.5411 17.9388 20.5248 17.9107 20.5248 17.8977C20.5248 17.8846 20.5168 17.874 20.5069 17.874C20.497 17.874 20.4889 17.8577 20.4889 17.8378C20.4889 17.818 20.4808 17.8017 20.4709 17.8017C20.4611 17.8017 20.4529 17.791 20.4529 17.778C20.4529 17.765 20.4368 17.7368 20.417 17.7155C20.3972 17.6942 20.381 17.6642 20.381 17.6488C20.381 17.6335 20.3744 17.621 20.3664 17.621C20.3583 17.621 20.3407 17.5925 20.3271 17.5577C20.3135 17.5229 20.2978 17.4945 20.2922 17.4945C20.2865 17.4945 20.271 17.4695 20.2575 17.439C20.2441 17.4085 20.2138 17.3641 20.1902 17.3404C20.1666 17.3167 20.1473 17.2848 20.1473 17.2694C20.1473 17.254 20.1392 17.2415 20.1293 17.2415C20.1194 17.2415 20.1113 17.2252 20.1113 17.2053C20.1113 17.1855 20.1032 17.1692 20.0934 17.1692C20.0835 17.1692 20.0753 17.157 20.0753 17.1421C20.0753 17.1272 20.0673 17.1149 20.0574 17.1149C20.0475 17.1149 20.0394 17.0987 20.0394 17.0788C20.0394 17.0589 20.0313 17.0427 20.0214 17.0427C20.0116 17.0427 20.0034 17.0302 20.0034 17.0148C20.0034 16.9995 19.9873 16.9695 19.9675 16.9482C19.9477 16.9268 19.9315 16.8987 19.9315 16.8857C19.9315 16.8726 19.9234 16.862 19.9135 16.862C19.9037 16.862 19.8956 16.8457 19.8956 16.8258C19.8956 16.8059 19.8895 16.7896 19.8821 16.7896C19.8746 16.7896 19.8446 16.7449 19.8153 16.6902C19.786 16.6356 19.7556 16.5909 19.7479 16.5909C19.7401 16.5909 19.7337 16.5764 19.7337 16.5587C19.7337 16.541 19.7176 16.5149 19.6978 16.5006C19.678 16.4862 19.6618 16.4605 19.6618 16.4435C19.6618 16.4265 19.6462 16.4076 19.6271 16.4016C19.5967 16.3918 19.5559 16.3311 19.4465 16.1334C19.3881 16.0278 19.2199 15.8453 19.0912 15.7479C18.9898 15.6712 18.9597 15.6386 18.9664 15.6129C18.9732 15.5865 18.9655 15.5789 18.932 15.5789C18.9082 15.5789 18.8887 15.5708 18.8887 15.5608C18.8887 15.5508 18.8766 15.5428 18.8618 15.5428C18.8469 15.5428 18.8348 15.5346 18.8348 15.5246C18.8348 15.5147 18.8186 15.5066 18.7988 15.5066C18.779 15.5066 18.7628 15.4984 18.7628 15.4885C18.7628 15.4786 18.7467 15.4704 18.7269 15.4704C18.7071 15.4704 18.6909 15.4623 18.6909 15.4524C18.6909 15.4424 18.6712 15.4343 18.647 15.4343C18.6229 15.4343 18.5982 15.4262 18.592 15.4162C18.586 15.4063 18.5661 15.3982 18.548 15.3982C18.5298 15.3982 18.5104 15.386 18.5046 15.3711C18.4989 15.3562 18.4783 15.3439 18.4588 15.3439C18.4393 15.3439 18.4183 15.3358 18.4123 15.3259C18.4061 15.3159 18.3814 15.3078 18.3573 15.3078C18.3331 15.3078 18.3134 15.3011 18.3134 15.293C18.3134 15.2849 18.2724 15.267 18.2223 15.2533C18.1723 15.2396 18.1273 15.2218 18.1224 15.2139C18.1175 15.2059 18.0937 15.1994 18.0696 15.1994C18.0454 15.1994 18.0257 15.1912 18.0257 15.1813C18.0257 15.1714 17.9974 15.1632 17.9628 15.1632C17.9282 15.1632 17.8998 15.1551 17.8998 15.1452C17.8998 15.1352 17.8756 15.1271 17.8459 15.1271C17.8162 15.1271 17.792 15.119 17.792 15.109C17.792 15.0991 17.8319 15.091 17.8808 15.091C17.9296 15.091 17.9746 15.0828 17.9807 15.0728C17.9869 15.0629 18.0318 15.0548 18.0807 15.0548C18.1296 15.0548 18.1695 15.0476 18.1695 15.0387C18.1695 15.0299 18.1978 15.0176 18.2325 15.0116C18.2671 15.0055 18.3238 14.9956 18.3585 14.9896C18.3932 14.9835 18.4261 14.9713 18.4314 14.9624C18.4369 14.9536 18.4613 14.9464 18.4858 14.9464C18.5102 14.9464 18.5349 14.9342 18.5406 14.9193C18.5465 14.9038 18.5733 14.8921 18.6029 14.8921C18.6316 14.8921 18.655 14.884 18.655 14.8741C18.655 14.8641 18.6792 14.856 18.7089 14.856C18.7386 14.856 18.7628 14.8479 18.7628 14.8379C18.7628 14.828 18.7826 14.8199 18.8068 14.8199C18.8309 14.8199 18.8556 14.8117 18.8618 14.8018C18.8678 14.7919 18.8926 14.7837 18.9167 14.7837C18.9409 14.7837 18.9607 14.7756 18.9607 14.7657C18.9607 14.7557 18.9768 14.7476 18.9966 14.7476C19.0164 14.7476 19.0326 14.7394 19.0326 14.7295C19.0326 14.7196 19.0487 14.7114 19.0685 14.7114C19.0883 14.7114 19.1045 14.7033 19.1045 14.6934C19.1045 14.6834 19.1206 14.6753 19.1404 14.6753C19.1602 14.6753 19.1764 14.6672 19.1764 14.6572C19.1764 14.6473 19.1926 14.6392 19.2123 14.6392C19.2321 14.6392 19.2483 14.631 19.2483 14.6211C19.2483 14.6112 19.2645 14.603 19.2842 14.603C19.3041 14.603 19.3202 14.5949 19.3202 14.585C19.3202 14.575 19.3349 14.5669 19.3528 14.5669C19.3707 14.5669 19.4027 14.5506 19.4239 14.5307C19.4452 14.5109 19.4698 14.4946 19.4787 14.4946C19.4877 14.4946 19.5102 14.4742 19.5288 14.4494C19.5473 14.4246 19.575 14.4042 19.5902 14.4042C19.6055 14.4042 19.6296 14.3879 19.6439 14.3681C19.6581 14.3482 19.68 14.3319 19.6925 14.3319C19.7161 14.3319 19.7612 14.2988 19.8341 14.228C19.8571 14.2057 19.8831 14.1874 19.8919 14.1874C19.9113 14.1874 20.0753 14.0335 20.0753 14.0153C20.0753 14.0082 20.128 13.9531 20.1922 13.8928C20.2565 13.8326 20.3091 13.7758 20.3091 13.7667C20.3091 13.7575 20.3313 13.7285 20.3586 13.7022C20.3857 13.6758 20.4201 13.6299 20.4349 13.6001C20.4496 13.5702 20.4759 13.5327 20.4933 13.5166C20.5107 13.5005 20.5248 13.4741 20.5248 13.4579C20.5248 13.4416 20.533 13.4283 20.5429 13.4283C20.5527 13.4283 20.5608 13.4139 20.5608 13.3962C20.5608 13.3785 20.577 13.3523 20.5968 13.338C20.6166 13.3237 20.6327 13.2975 20.6327 13.2798C20.6327 13.2621 20.6388 13.2476 20.6462 13.2475C20.6643 13.2474 20.7226 13.1429 20.7226 13.1107C20.7226 13.0966 20.7307 13.085 20.7406 13.085C20.7505 13.085 20.7586 13.0692 20.7586 13.0499C20.7586 13.0306 20.7667 13.0098 20.7766 13.0037C20.7864 12.9976 20.7946 12.9726 20.7946 12.9484C20.7946 12.9241 20.8027 12.9043 20.8125 12.9043C20.8224 12.9043 20.8305 12.8885 20.8305 12.8692C20.8305 12.8499 20.8386 12.8291 20.8485 12.823C20.8584 12.8168 20.8665 12.7879 20.8665 12.7586C20.8665 12.7294 20.8746 12.7055 20.8845 12.7055C20.8943 12.7055 20.9024 12.6816 20.9024 12.6523C20.9024 12.6231 20.9105 12.5942 20.9204 12.588C20.9303 12.5819 20.9384 12.5494 20.9384 12.5157C20.9384 12.4821 20.9465 12.4496 20.9564 12.4434C20.9663 12.4373 20.9743 12.3966 20.9743 12.3531C20.9743 12.3096 20.9824 12.2689 20.9924 12.2627C21.0022 12.2566 21.0103 12.2033 21.0103 12.1442C21.0103 12.0847 21.0183 12.0368 21.0283 12.0368C21.0393 12.0368 21.0462 11.9469 21.0462 11.803C21.0462 11.6666 21.0538 11.5644 21.0643 11.558C21.0741 11.5518 21.0822 11.4741 21.0822 11.3852C21.0822 11.2895 21.0749 11.2236 21.0643 11.2236C21.0531 11.2236 21.0462 11.1302 21.0462 10.9796C21.0462 10.829 21.0394 10.7357 21.0283 10.7357C21.0184 10.7357 21.0103 10.691 21.0103 10.6363C21.0103 10.5817 21.0022 10.5369 20.9924 10.5369C20.9824 10.5369 20.9743 10.4962 20.9743 10.4465C20.9743 10.3969 20.9663 10.3562 20.9564 10.3562C20.9465 10.3562 20.9384 10.3282 20.9384 10.294C20.9384 10.2598 20.9303 10.2268 20.9204 10.2206C20.9105 10.2145 20.9024 10.1896 20.9024 10.1654C20.9024 10.1411 20.8943 10.1212 20.8845 10.1212C20.8746 10.1212 20.8665 10.0968 20.8665 10.067C20.8665 10.0372 20.8584 10.0128 20.8485 10.0128C20.8386 10.0128 20.8305 9.98841 20.8305 9.95859C20.8305 9.92877 20.8224 9.90437 20.8125 9.90437C20.8027 9.90437 20.7946 9.88405 20.7946 9.85924C20.7946 9.83437 20.7864 9.81405 20.7766 9.81405C20.7667 9.81405 20.7586 9.7978 20.7586 9.77788C20.7586 9.75803 20.7505 9.74178 20.7406 9.74178C20.7307 9.74178 20.7226 9.72547 20.7226 9.70561C20.7226 9.68575 20.7145 9.66945 20.7046 9.66945C20.6948 9.66945 20.6867 9.65699 20.6867 9.64179C20.6867 9.62659 20.6746 9.60947 20.6597 9.6037C20.6449 9.59799 20.6327 9.5779 20.6327 9.55909C20.6327 9.54028 20.6247 9.52491 20.6148 9.52491C20.6049 9.52491 20.5968 9.51268 20.5968 9.49777C20.5968 9.48286 20.5887 9.47069 20.5788 9.47069C20.5689 9.47069 20.5608 9.45444 20.5608 9.43453C20.5608 9.41467 20.5527 9.39842 20.5429 9.39842C20.533 9.39842 20.5248 9.38619 20.5248 9.37128C20.5248 9.35637 20.5168 9.3442 20.5069 9.3442C20.497 9.3442 20.4889 9.33378 20.4889 9.32108C20.4889 9.30833 20.4727 9.2862 20.4529 9.27187C20.4332 9.25755 20.417 9.23553 20.417 9.2229C20.417 9.19226 19.9218 8.69359 19.8913 8.69359C19.8782 8.69359 19.8559 8.67734 19.8416 8.65749C19.8274 8.63757 19.8091 8.62132 19.801 8.62132C19.7928 8.62132 19.7764 8.61299 19.7644 8.60286C19.6651 8.51859 19.6321 8.49483 19.6139 8.49483C19.6023 8.49483 19.5902 8.48872 19.5869 8.48127C19.5794 8.46432 19.4837 8.40562 19.4416 8.39222C19.4243 8.38669 19.4101 8.37498 19.4101 8.36619C19.4101 8.3574 19.3944 8.35024 19.3752 8.35024C19.356 8.35024 19.3353 8.34208 19.3292 8.33218C19.3231 8.32222 19.3024 8.31407 19.2832 8.31407C19.264 8.31407 19.2483 8.30598 19.2483 8.29602C19.2483 8.28606 19.2321 8.27796 19.2123 8.27796C19.1926 8.27796 19.1764 8.26981 19.1764 8.25991C19.1764 8.24995 19.1602 8.2418 19.1404 8.2418C19.1206 8.2418 19.1045 8.23371 19.1045 8.22375C19.1045 8.21379 19.0802 8.20569 19.0505 8.20569C19.0209 8.20569 18.9966 8.19754 18.9966 8.18758C18.9966 8.17768 18.9824 8.16924 18.9651 8.16895C18.9478 8.16866 18.918 8.15643 18.8988 8.14187C18.8795 8.12725 18.8492 8.11531 18.8313 8.11531C18.8134 8.11531 18.7988 8.10716 18.7988 8.09726C18.7988 8.0873 18.7746 8.07915 18.7449 8.07915C18.7152 8.07915 18.6909 8.07105 18.6909 8.06109C18.6909 8.05114 18.6671 8.04304 18.638 8.04304C18.609 8.04304 18.5802 8.03489 18.5741 8.02493C18.5679 8.01503 18.5356 8.00688 18.5021 8.00688C18.4687 8.00688 18.4369 7.99966 18.4314 7.9908C18.4206 7.9731 18.3369 7.95569 18.192 7.9409C18.1401 7.9356 18.0976 7.92389 18.0976 7.91486C18.0976 7.90584 18.045 7.89844 17.9807 7.89844C17.9148 7.89844 17.8639 7.89058 17.8639 7.88039C17.8639 7.86967 17.7983 7.86234 17.7031 7.86234C17.6147 7.86234 17.5374 7.85418 17.5312 7.84422C17.5239 7.83229 16.1616 7.82617 13.5028 7.82617H9.48537V11.988ZM16.1558 10.7719C16.1558 10.7818 16.1882 10.7899 16.2277 10.7899C16.2673 10.7899 16.2996 10.7981 16.2996 10.808C16.2996 10.8179 16.3151 10.8261 16.3341 10.8261C16.353 10.8261 16.3713 10.8325 16.3745 10.8405C16.3778 10.8485 16.4367 10.8863 16.5052 10.9246C16.635 10.997 16.7491 11.0968 16.7491 11.1377C16.7491 11.1507 16.7653 11.1732 16.7851 11.1875C16.8048 11.2018 16.8211 11.228 16.8211 11.2457C16.8211 11.2634 16.8291 11.2779 16.839 11.2779C16.8489 11.2779 16.857 11.2936 16.857 11.3129C16.857 11.3322 16.8651 11.353 16.875 11.3592C16.8849 11.3653 16.893 11.3937 16.893 11.4224C16.893 11.4511 16.9011 11.4795 16.9109 11.4856C16.9218 11.4924 16.929 11.6184 16.929 11.803C16.929 11.995 16.9222 12.1091 16.9109 12.1091C16.9011 12.1091 16.893 12.1376 16.893 12.1724C16.893 12.2072 16.8849 12.2356 16.875 12.2356C16.8651 12.2356 16.857 12.2519 16.857 12.2718C16.857 12.2916 16.8489 12.3079 16.839 12.3079C16.8291 12.3079 16.8211 12.3242 16.8211 12.344C16.8211 12.364 16.813 12.3802 16.8031 12.3802C16.7932 12.3802 16.7851 12.3927 16.7851 12.4079C16.7851 12.462 16.4952 12.7245 16.403 12.7539C16.3857 12.7594 16.3716 12.7711 16.3716 12.7799C16.3716 12.7887 16.3473 12.7958 16.3176 12.7958C16.288 12.7958 16.2637 12.804 16.2637 12.8139C16.2637 12.8238 16.2394 12.832 16.2098 12.832C16.1801 12.832 16.1558 12.8402 16.1558 12.8501C16.1558 12.86 16.1158 12.8682 16.067 12.8682C16.0181 12.8682 15.9731 12.8763 15.967 12.8862C15.9598 12.898 15.5323 12.9043 14.7434 12.9043H13.5308V11.829V10.7537H14.8433C15.7063 10.7537 16.1558 10.76 16.1558 10.7719ZM21.253 15.097C21.1755 15.1831 21.1686 15.2048 21.2404 15.137C21.2819 15.0977 21.3159 15.0631 21.3159 15.0602C21.3159 15.0437 21.2844 15.0622 21.253 15.097ZM2.00586 15.2491C2.00586 15.2567 2.02202 15.2731 2.04178 15.2855C2.0616 15.2979 2.07776 15.3019 2.07776 15.2943C2.07776 15.2866 2.0616 15.2702 2.04178 15.2578C2.02202 15.2453 2.00586 15.2414 2.00586 15.2491ZM21.0752 15.2641C21.0583 15.3083 21.0619 15.3127 21.0912 15.2833C21.1218 15.2526 21.1257 15.2355 21.1022 15.2355C21.0933 15.2355 21.0812 15.2484 21.0752 15.2641ZM21.0014 15.3438C20.9835 15.3638 20.9746 15.3801 20.9818 15.3801C21.0008 15.3801 21.052 15.3257 21.0423 15.3159C21.0378 15.3113 21.0194 15.3239 21.0014 15.3438Z" fill="#2066B8"/>
</svg>
