<svg width="24" height="24" viewBox="0 0 24 24" fill="none" xmlns="http://www.w3.org/2000/svg">
<g clip-path="url(#clip0_3314_3462)">
<path d="M0 4.41379C0 1.97612 1.97612 0 4.41379 0H19.5862C22.0239 0 24 1.97612 24 4.41379V19.5862C24 22.0239 22.0239 24 19.5862 24H4.41379C1.97612 24 0 22.0239 0 19.5862V4.41379Z" fill="#8EC9E6"/>
<path d="M16.7637 15.45V8H18.3623V15.45H16.7637Z" fill="black"/>
<path d="M7.64986 15.45L6 8H7.61912L8.67462 13.0213L10.0068 8.4099H11.3287L12.7224 12.9598L13.7677 8H15.3458L13.6959 15.45H12.1588L10.6319 10.4389L9.187 15.45H7.64986Z" fill="black"/>
</g>
<defs>
<clipPath id="clip0_3314_3462">
<rect width="24" height="24" fill="white"/>
</clipPath>
</defs>
</svg>
