<?xml version="1.0" encoding="UTF-8"?>
<svg width="14px" height="16px" viewBox="0 0 14 16" version="1.1" xmlns="http://www.w3.org/2000/svg" xmlns:xlink="http://www.w3.org/1999/xlink">
    <!-- Generator: Sketch 49 (51002) - http://www.bohemiancoding.com/sketch -->
    <title>Mask</title>
    <desc>Created with Sketch.</desc>
    <defs>
        <path d="M2.29230769,11.1076923 L2.29230769,3.47692308 C1.49230769,3.47692308 0.846153846,4.12307692 0.846153846,4.89230769 L0.846153846,13.9384615 C0.846153846,14.7384615 1.49230769,15.3846154 2.29230769,15.3846154 L9.46153846,15.3846154 C10.2615385,15.3846154 10.9076923,14.7384615 10.9076923,13.9692308 L5.15384615,13.9692308 C3.58461538,13.9692308 2.29230769,13.9692308 2.29230769,11.1076923 L2.29230769,11.1076923 Z M13.2769231,4.89230769 L10.8769231,4.89230769 C10.0769231,4.89230769 9.43076923,4.24615385 9.43076923,3.47692308 L9.43076923,1.07692308 C9.46153846,0.830769231 9.24615385,0.615384615 8.96923077,0.615384615 L5.15384615,0.615384615 C4.35384615,0.615384615 3.70769231,1.26153846 3.70769231,2.03076923 L3.70769231,11.0769231 C3.70769231,11.8769231 4.35384615,12.4923077 5.15384615,12.4923077 L12.3230769,12.4923077 C13.1230769,12.4923077 13.7692308,11.8461538 13.7692308,11.0769231 L13.7692308,5.38461538 C13.7692308,5.10769231 13.5538462,4.89230769 13.2769231,4.89230769 L13.2769231,4.89230769 Z M13.6769231,2.89230769 L11.4615385,0.707692308 C11.4,0.646153846 11.3384615,0.615384615 11.2461538,0.615384615 C11.0615385,0.615384615 10.9076923,0.769230769 10.9076923,0.953846154 L10.9076923,2.52307692 C10.9076923,3.04615385 11.3384615,3.47692308 11.8615385,3.47692308 L13.4307692,3.47692308 C13.6153846,3.47692308 13.7692308,3.32307692 13.7692308,3.13846154 C13.7692308,3.04615385 13.7384615,2.98461538 13.6769231,2.89230769 Z" id="path-1"></path>
    </defs>
    <g id="UI" stroke="none" stroke-width="1" fill="none" fill-rule="evenodd">
        <g id="home" transform="translate(-680.000000, -1893.000000)">
            <g id="icons/utility/file-copy" transform="translate(680.000000, 1893.000000)">
                <mask id="mask-2" fill="white">
                    <use xlink:href="#path-1"></use>
                </mask>
                <use id="Mask" fill="#D3D3D3" xlink:href="#path-1"></use>
            </g>
        </g>
    </g>
</svg>