<svg width="40" height="40" viewBox="0 0 40 40" fill="none" xmlns="http://www.w3.org/2000/svg">
<g clip-path="url(#clip0_904_5425)">
<path d="M23.75 35H16.25C15.56 35 15 34.44 15 33.75C15 33.06 15.56 32.5 16.25 32.5H23.75C24.44 32.5 25 33.06 25 33.75C25 34.44 24.44 35 23.75 35Z" fill="#ffffff"/>
<path d="M20 5.76167C19.31 5.76167 18.75 5.20167 18.75 4.51167V1.25C18.75 0.56 19.31 0 20 0C20.69 0 21.25 0.56 21.25 1.25V4.51167C21.25 5.20167 20.69 5.76167 20 5.76167Z" fill="#ffffff"/>
<path d="M30.9517 10.2983C30.6317 10.2983 30.3117 10.1767 30.0684 9.93167C29.5801 9.44333 29.5801 8.65167 30.0684 8.16333L32.3751 5.85667C32.8634 5.36833 33.6551 5.36833 34.1434 5.85667C34.6317 6.345 34.6317 7.13667 34.1434 7.625L31.8367 9.93167C31.5917 10.175 31.2717 10.2983 30.9517 10.2983V10.2983Z" fill="#ffffff"/>
<path d="M38.7499 21.25H35.4883C34.7983 21.25 34.2383 20.69 34.2383 20C34.2383 19.31 34.7983 18.75 35.4883 18.75H38.7499C39.4399 18.75 39.9999 19.31 39.9999 20C39.9999 20.69 39.4399 21.25 38.7499 21.25Z" fill="#ffffff"/>
<path d="M33.2584 34.5083C32.9384 34.5083 32.6184 34.3867 32.3751 34.1417L30.0684 31.835C29.5801 31.3467 29.5801 30.555 30.0684 30.0667C30.5567 29.5783 31.3484 29.5783 31.8367 30.0667L34.1434 32.3733C34.6317 32.8617 34.6317 33.6533 34.1434 34.1417C33.8984 34.3867 33.5784 34.5083 33.2584 34.5083Z" fill="#ffffff"/>
<path d="M6.74177 34.5083C6.42177 34.5083 6.10177 34.3867 5.85844 34.1417C5.3701 33.6533 5.3701 32.8617 5.85844 32.3733L8.1651 30.0667C8.65344 29.5783 9.4451 29.5783 9.93344 30.0667C10.4218 30.555 10.4218 31.3467 9.93344 31.835L7.62677 34.1417C7.38177 34.3867 7.06177 34.5083 6.74177 34.5083V34.5083Z" fill="#ffffff"/>
<path d="M4.51167 21.25H1.25C0.56 21.25 0 20.69 0 20C0 19.31 0.56 18.75 1.25 18.75H4.51167C5.20167 18.75 5.76167 19.31 5.76167 20C5.76167 20.69 5.20167 21.25 4.51167 21.25Z" fill="#ffffff"/>
<path d="M9.04844 10.2983C8.72844 10.2983 8.40844 10.1767 8.1651 9.93167L5.85844 7.625C5.3701 7.13667 5.3701 6.345 5.85844 5.85667C6.34677 5.36833 7.13844 5.36833 7.62677 5.85667L9.93344 8.16333C10.4218 8.65167 10.4218 9.44333 9.93344 9.93167C9.68677 10.175 9.36844 10.2983 9.04844 10.2983V10.2983Z" fill="#ffffff"/>
<path d="M26.2501 20.8333C25.5601 20.8333 25.0001 20.2733 25.0001 19.5833C25.0001 17.055 22.9451 15 20.4167 15C19.7267 15 19.1667 14.44 19.1667 13.75C19.1667 13.06 19.7267 12.5 20.4167 12.5C24.3217 12.5 27.5001 15.6783 27.5001 19.5833C27.5001 20.2733 26.9401 20.8333 26.2501 20.8333Z" fill="#ffffff"/>
<path d="M22.0833 40H17.9166C16.5116 40 14.9999 38.9333 14.9999 36.5933V33.6533C14.9999 31.885 14.2466 30.2617 12.9849 29.3117C9.34325 26.57 7.65825 22.06 8.58659 17.5417C9.49492 13.115 13.0766 9.52 17.4983 8.595C21.0149 7.855 24.6116 8.71167 27.3549 10.9417C30.0949 13.1683 31.6666 16.47 31.6666 20C31.6666 23.5967 30.0416 26.935 27.2083 29.1633C25.8049 30.2667 24.9999 31.8033 24.9999 33.3783V37.0833C24.9999 38.6917 23.6916 40 22.0833 40V40ZM19.9766 10.8367C19.3233 10.8367 18.6649 10.905 18.0066 11.0417C14.5466 11.765 11.7449 14.5783 11.0333 18.0433C10.3016 21.605 11.6249 25.1583 14.4866 27.3133C16.3716 28.7333 17.4983 31.1033 17.4983 33.6533V36.5933C17.4983 36.745 17.5183 37.5 17.9149 37.5H22.0816C22.3116 37.5 22.4983 37.3133 22.4983 37.0833V33.3783C22.4983 31.03 23.6516 28.7783 25.6616 27.1967C27.8899 25.4467 29.1666 22.8233 29.1666 20C29.1666 17.2267 27.9299 14.6317 25.7766 12.8817C24.1299 11.545 22.0883 10.8367 19.9766 10.8367V10.8367Z" fill="#ffffff"/>
</g>
<defs>
<clipPath id="clip0_904_5425">
<rect width="40" height="40" fill="white"/>
</clipPath>
</defs>
</svg>
