<svg width="64" height="64" viewBox="0 0 64 64" fill="none" xmlns="http://www.w3.org/2000/svg">
<path fill-rule="evenodd" clip-rule="evenodd" d="M16 4C9.37258 4 4 9.37258 4 16V48C4 54.6274 9.37258 60 16 60H48C54.6274 60 60 54.6274 60 48V16C60 9.37258 54.6274 4 48 4H16ZM21.4894 42.2498C21.7859 42.513 22.1672 42.658 22.5618 42.6576C22.8935 42.6577 23.2173 42.5556 23.49 42.3648C23.7628 42.174 23.9714 41.9037 24.088 41.59C24.2047 41.2762 24.2238 40.9339 24.1429 40.6089C24.062 40.2839 23.8848 39.9915 23.6351 39.7709L15.1034 32.2276L23.6359 24.6843C23.9612 24.3966 24.1601 23.9902 24.1888 23.5543C24.2175 23.1185 24.0738 22.689 23.7891 22.3603C23.5045 22.0315 23.1023 21.8305 22.671 21.8015C22.2397 21.7725 21.8147 21.9177 21.4894 22.2054L11.5562 30.9885C11.3815 31.1431 11.2415 31.3336 11.1455 31.5473C11.0496 31.761 11 31.9929 11 32.2276C11 32.4622 11.0496 32.6942 11.1455 32.9079C11.2415 33.1216 11.3815 33.3121 11.5562 33.4666L21.4894 42.2498ZM41.4372 42.6576C41.1055 42.6579 40.7816 42.5559 40.5087 42.3651C40.2359 42.1744 40.0272 41.9041 39.9104 41.5903C39.7937 41.2765 39.7745 40.9342 39.8554 40.6091C39.9363 40.284 40.1134 39.9916 40.3632 39.7709L48.8957 32.2276L40.364 24.6843C40.0387 24.3966 39.8398 23.9902 39.811 23.5543C39.7823 23.1185 39.9261 22.689 40.2107 22.3603C40.4954 22.0315 40.8976 21.8305 41.3288 21.8015C41.7601 21.7725 42.1852 21.9177 42.5105 22.2054L52.4437 30.9885C52.6184 31.1431 52.7584 31.3336 52.8543 31.5473C52.9502 31.761 52.9998 31.9929 52.9998 32.2276C52.9998 32.4622 52.9502 32.6942 52.8543 32.9079C52.7584 33.1216 52.6184 33.3121 52.4437 33.4666L42.5105 42.2498C42.2138 42.5133 41.8322 42.6583 41.4372 42.6576ZM35.7629 22.0096C34.9897 21.7282 34.1346 22.1269 33.8532 22.9001L27.3982 40.635C27.1168 41.4083 27.5155 42.2633 28.2887 42.5448C29.062 42.8262 29.917 42.4275 30.1985 41.6542L36.6534 23.9193C36.9349 23.1461 36.5362 22.291 35.7629 22.0096Z" fill="#8EC9E6"/>
</svg>
