<svg width="56" height="56" viewBox="0 0 56 56" fill="none" xmlns="http://www.w3.org/2000/svg">
<path fill-rule="evenodd" clip-rule="evenodd" d="M0 12C0 5.37305 5.37305 0 12 0H44C50.627 0 56 5.37305 56 12V44C56 50.627 50.627 56 44 56H12C5.37305 56 0 50.627 0 44V12ZM8 28V44.1436C8 44.6953 8.44727 45.1436 9 45.1436H24.1426C24.6953 45.1436 25.1426 44.6953 25.1426 44.1436V29C25.1426 28.4482 24.6953 28 24.1426 28H14.7148C14.1621 28 13.709 27.5508 13.7578 27.001C14.2363 21.4951 18.6367 17.0947 24.1426 16.6152C24.6934 16.5674 25.1426 16.124 25.1426 15.5723V11.8574C25.1426 11.3057 24.6934 10.8545 24.1426 10.8867C15.1543 11.4062 8 18.8828 8 28ZM48 15.5723C48 16.124 47.5508 16.5674 47 16.6152C41.4941 17.0947 37.0938 21.4951 36.6152 27.001C36.5664 27.5508 37.0195 28 37.5723 28H47C47.5527 28 48 28.4482 48 29V44.1436C48 44.6953 47.5527 45.1436 47 45.1436H31.8574C31.3047 45.1436 30.8574 44.6953 30.8574 44.1436V28C30.8574 18.8828 38.0117 11.4062 47 10.8867C47.5508 10.8545 48 11.3057 48 11.8574V15.5723Z" fill="#8EC9E6"/>
</svg>
