<svg width="457" height="385" viewBox="0 0 457 385" fill="none" xmlns="http://www.w3.org/2000/svg">
<path d="M154.345 109.082V96.5322L150.414 97.8582V95.6798L155.434 92.1043H158.062V109.082H154.345Z" fill="white"/>
<path d="M173.648 109.39C171.485 109.39 169.844 108.632 168.723 107.116C167.602 105.601 167.042 103.391 167.042 100.486C167.042 94.6932 169.244 91.7965 173.648 91.7965C178.052 91.7965 180.254 94.6932 180.254 100.486C180.254 103.391 179.694 105.601 178.573 107.116C177.452 108.632 175.811 109.39 173.648 109.39ZM173.648 106.382C174.642 106.382 175.376 105.901 175.85 104.938C176.324 103.975 176.56 102.491 176.56 100.486C176.56 98.5133 176.324 97.0768 175.85 96.177C175.392 95.2615 174.658 94.8037 173.648 94.8037C172.638 94.8037 171.896 95.2615 171.422 96.177C170.964 97.0768 170.736 98.5133 170.736 100.486C170.736 102.491 170.972 103.975 171.446 104.938C171.919 105.901 172.653 106.382 173.648 106.382Z" fill="white"/>
<path d="M195.233 109.39C193.071 109.39 191.429 108.632 190.308 107.116C189.187 105.601 188.627 103.391 188.627 100.486C188.627 94.6932 190.829 91.7965 195.233 91.7965C199.637 91.7965 201.84 94.6932 201.84 100.486C201.84 103.391 201.279 105.601 200.158 107.116C199.038 108.632 197.396 109.39 195.233 109.39ZM195.233 106.382C196.228 106.382 196.962 105.901 197.435 104.938C197.909 103.975 198.146 102.491 198.146 100.486C198.146 98.5133 197.909 97.0768 197.435 96.177C196.978 95.2615 196.244 94.8037 195.233 94.8037C194.223 94.8037 193.481 95.2615 193.007 96.177C192.55 97.0768 192.321 98.5133 192.321 100.486C192.321 102.491 192.558 103.975 193.031 104.938C193.505 105.901 194.239 106.382 195.233 106.382Z" fill="white"/>
<path d="M213.551 109.082V96.5322L209.62 97.8582V95.6798L214.64 92.1043H217.268V109.082H213.551Z" fill="white"/>
<path d="M229.587 109.082V96.5322L225.656 97.8582V95.6798L230.676 92.1043H233.304V109.082H229.587Z" fill="white"/>
<path d="M248.89 109.39C246.727 109.39 245.086 108.632 243.965 107.116C242.844 105.601 242.284 103.391 242.284 100.486C242.284 94.6932 244.486 91.7965 248.89 91.7965C253.294 91.7965 255.496 94.6932 255.496 100.486C255.496 103.391 254.936 105.601 253.815 107.116C252.694 108.632 251.053 109.39 248.89 109.39ZM248.89 106.382C249.884 106.382 250.618 105.901 251.092 104.938C251.566 103.975 251.802 102.491 251.802 100.486C251.802 98.5133 251.566 97.0768 251.092 96.177C250.634 95.2615 249.9 94.8037 248.89 94.8037C247.88 94.8037 247.138 95.2615 246.664 96.177C246.206 97.0768 245.977 98.5133 245.977 100.486C245.977 102.491 246.214 103.975 246.688 104.938C247.161 105.901 247.895 106.382 248.89 106.382Z" fill="white"/>
<path d="M270.475 109.39C268.313 109.39 266.671 108.632 265.55 107.116C264.429 105.601 263.869 103.391 263.869 100.486C263.869 94.6932 266.071 91.7965 270.475 91.7965C274.879 91.7965 277.081 94.6932 277.081 100.486C277.081 103.391 276.521 105.601 275.4 107.116C274.28 108.632 272.638 109.39 270.475 109.39ZM270.475 106.382C271.47 106.382 272.204 105.901 272.677 104.938C273.151 103.975 273.388 102.491 273.388 100.486C273.388 98.5133 273.151 97.0768 272.677 96.177C272.219 95.2615 271.485 94.8037 270.475 94.8037C269.465 94.8037 268.723 95.2615 268.249 96.177C267.792 97.0768 267.563 98.5133 267.563 100.486C267.563 102.491 267.8 103.975 268.273 104.938C268.747 105.901 269.481 106.382 270.475 106.382Z" fill="white"/>
<path d="M288.793 109.082V96.5322L284.862 97.8582V95.6798L289.882 92.1043H292.51V109.082H288.793Z" fill="white"/>
<path d="M308.096 109.39C305.934 109.39 304.292 108.632 303.171 107.116C302.05 105.601 301.49 103.391 301.49 100.486C301.49 94.6932 303.692 91.7965 308.096 91.7965C312.5 91.7965 314.702 94.6932 314.702 100.486C314.702 103.391 314.142 105.601 313.021 107.116C311.9 108.632 310.259 109.39 308.096 109.39ZM308.096 106.382C309.091 106.382 309.825 105.901 310.298 104.938C310.772 103.975 311.009 102.491 311.009 100.486C311.009 98.5133 310.772 97.0768 310.298 96.177C309.84 95.2615 309.106 94.8037 308.096 94.8037C307.086 94.8037 306.344 95.2615 305.87 96.177C305.413 97.0768 305.184 98.5133 305.184 100.486C305.184 102.491 305.42 103.975 305.894 104.938C306.368 105.901 307.102 106.382 308.096 106.382Z" fill="white"/>
<path d="M155.132 138.285V125.735L151.201 127.061V124.883L156.221 121.307H158.849V138.285H155.132Z" fill="white"/>
<path d="M171.167 138.285V125.735L167.237 127.061V124.883L172.257 121.307H174.885V138.285H171.167Z" fill="white"/>
<path d="M190.471 138.593C188.308 138.593 186.666 137.835 185.546 136.32C184.425 134.804 183.864 132.594 183.864 129.69C183.864 123.896 186.067 121 190.471 121C194.875 121 197.077 123.896 197.077 129.69C197.077 132.594 196.517 134.804 195.396 136.32C194.275 137.835 192.633 138.593 190.471 138.593ZM190.471 135.586C191.465 135.586 192.199 135.104 192.673 134.141C193.146 133.178 193.383 131.694 193.383 129.69C193.383 127.716 193.146 126.28 192.673 125.38C192.215 124.465 191.481 124.007 190.471 124.007C189.46 124.007 188.719 124.465 188.245 125.38C187.787 126.28 187.558 127.716 187.558 129.69C187.558 131.694 187.795 133.178 188.269 134.141C188.742 135.104 189.476 135.586 190.471 135.586Z" fill="white"/>
<path d="M212.056 138.593C209.893 138.593 208.252 137.835 207.131 136.32C206.01 134.804 205.45 132.594 205.45 129.69C205.45 123.896 207.652 121 212.056 121C216.46 121 218.662 123.896 218.662 129.69C218.662 132.594 218.102 134.804 216.981 136.32C215.86 137.835 214.219 138.593 212.056 138.593ZM212.056 135.586C213.051 135.586 213.785 135.104 214.258 134.141C214.732 133.178 214.968 131.694 214.968 129.69C214.968 127.716 214.732 126.28 214.258 125.38C213.8 124.465 213.066 124.007 212.056 124.007C211.046 124.007 210.304 124.465 209.83 125.38C209.372 126.28 209.144 127.716 209.144 129.69C209.144 131.694 209.38 133.178 209.854 134.141C210.328 135.104 211.062 135.586 212.056 135.586Z" fill="white"/>
<path d="M230.374 138.285V125.735L226.443 127.061V124.883L231.463 121.307H234.091V138.285H230.374Z" fill="white"/>
<path d="M249.677 138.593C247.514 138.593 245.873 137.835 244.752 136.32C243.631 134.804 243.071 132.594 243.071 129.69C243.071 123.896 245.273 121 249.677 121C254.081 121 256.283 123.896 256.283 129.69C256.283 132.594 255.723 134.804 254.602 136.32C253.481 137.835 251.84 138.593 249.677 138.593ZM249.677 135.586C250.671 135.586 251.406 135.104 251.879 134.141C252.353 133.178 252.589 131.694 252.589 129.69C252.589 127.716 252.353 126.28 251.879 125.38C251.421 124.465 250.687 124.007 249.677 124.007C248.667 124.007 247.925 124.465 247.451 125.38C246.993 126.28 246.765 127.716 246.765 129.69C246.765 131.694 247.001 133.178 247.475 134.141C247.948 135.104 248.683 135.586 249.677 135.586Z" fill="white"/>
<path d="M267.995 138.285V125.735L264.064 127.061V124.883L269.084 121.307H271.712V138.285H267.995Z" fill="white"/>
<path d="M287.298 138.593C285.135 138.593 283.494 137.835 282.373 136.32C281.252 134.804 280.692 132.594 280.692 129.69C280.692 123.896 282.894 121 287.298 121C291.702 121 293.904 123.896 293.904 129.69C293.904 132.594 293.344 134.804 292.223 136.32C291.102 137.835 289.461 138.593 287.298 138.593ZM287.298 135.586C288.292 135.586 289.026 135.104 289.5 134.141C289.974 133.178 290.21 131.694 290.21 129.69C290.21 127.716 289.974 126.28 289.5 125.38C289.042 124.465 288.308 124.007 287.298 124.007C286.288 124.007 285.546 124.465 285.072 125.38C284.614 126.28 284.385 127.716 284.385 129.69C284.385 131.694 284.622 133.178 285.096 134.141C285.569 135.104 286.303 135.586 287.298 135.586Z" fill="white"/>
<path d="M308.883 138.593C306.721 138.593 305.079 137.835 303.958 136.32C302.837 134.804 302.277 132.594 302.277 129.69C302.277 123.896 304.479 121 308.883 121C313.287 121 315.49 123.896 315.49 129.69C315.49 132.594 314.929 134.804 313.808 136.32C312.688 137.835 311.046 138.593 308.883 138.593ZM308.883 135.586C309.878 135.586 310.612 135.104 311.085 134.141C311.559 133.178 311.796 131.694 311.796 129.69C311.796 127.716 311.559 126.28 311.085 125.38C310.628 124.465 309.894 124.007 308.883 124.007C307.873 124.007 307.131 124.465 306.657 125.38C306.2 126.28 305.971 127.716 305.971 129.69C305.971 131.694 306.208 133.178 306.681 134.141C307.155 135.104 307.889 135.586 308.883 135.586Z" fill="white"/>
<path d="M159.19 167.796C157.028 167.796 155.386 167.039 154.265 165.523C153.144 164.008 152.584 161.798 152.584 158.893C152.584 153.1 154.786 150.203 159.19 150.203C163.594 150.203 165.797 153.1 165.797 158.893C165.797 161.798 165.236 164.008 164.115 165.523C162.995 167.039 161.353 167.796 159.19 167.796ZM159.19 164.789C160.185 164.789 160.919 164.308 161.392 163.345C161.866 162.382 162.103 160.898 162.103 158.893C162.103 156.92 161.866 155.484 161.392 154.584C160.935 153.668 160.201 153.21 159.19 153.21C158.18 153.21 157.438 153.668 156.964 154.584C156.507 155.484 156.278 156.92 156.278 158.893C156.278 160.898 156.515 162.382 156.988 163.345C157.462 164.308 158.196 164.789 159.19 164.789Z" fill="white"/>
<path d="M177.508 167.489V154.939L173.577 156.265V154.087L178.597 150.511H181.225V167.489H177.508Z" fill="white"/>
<path d="M193.544 167.489V154.939L189.613 156.265V154.087L194.633 150.511H197.261V167.489H193.544Z" fill="white"/>
<path d="M212.847 167.796C210.684 167.796 209.043 167.039 207.922 165.523C206.801 164.008 206.241 161.798 206.241 158.893C206.241 153.1 208.443 150.203 212.847 150.203C217.251 150.203 219.453 153.1 219.453 158.893C219.453 161.798 218.893 164.008 217.772 165.523C216.651 167.039 215.01 167.796 212.847 167.796ZM212.847 164.789C213.841 164.789 214.575 164.308 215.049 163.345C215.523 162.382 215.759 160.898 215.759 158.893C215.759 156.92 215.523 155.484 215.049 154.584C214.591 153.668 213.857 153.21 212.847 153.21C211.837 153.21 211.095 153.668 210.621 154.584C210.163 155.484 209.934 156.92 209.934 158.893C209.934 160.898 210.171 162.382 210.645 163.345C211.118 164.308 211.852 164.789 212.847 164.789Z" fill="white"/>
<path d="M234.432 167.796C232.27 167.796 230.628 167.039 229.507 165.523C228.386 164.008 227.826 161.798 227.826 158.893C227.826 153.1 230.028 150.203 234.432 150.203C238.836 150.203 241.038 153.1 241.038 158.893C241.038 161.798 240.478 164.008 239.357 165.523C238.237 167.039 236.595 167.796 234.432 167.796ZM234.432 164.789C235.427 164.789 236.161 164.308 236.634 163.345C237.108 162.382 237.345 160.898 237.345 158.893C237.345 156.92 237.108 155.484 236.634 154.584C236.177 153.668 235.442 153.21 234.432 153.21C233.422 153.21 232.68 153.668 232.206 154.584C231.749 155.484 231.52 156.92 231.52 158.893C231.52 160.898 231.757 162.382 232.23 163.345C232.704 164.308 233.438 164.789 234.432 164.789Z" fill="white"/>
<path d="M252.75 167.489V154.939L248.819 156.265V154.087L253.839 150.511H256.467V167.489H252.75Z" fill="white"/>
<path d="M268.786 167.489V154.939L264.855 156.265V154.087L269.875 150.511H272.503V167.489H268.786Z" fill="white"/>
<path d="M288.089 167.796C285.926 167.796 284.284 167.039 283.164 165.523C282.043 164.008 281.483 161.798 281.483 158.893C281.483 153.1 283.685 150.203 288.089 150.203C292.493 150.203 294.695 153.1 294.695 158.893C294.695 161.798 294.135 164.008 293.014 165.523C291.893 167.039 290.251 167.796 288.089 167.796ZM288.089 164.789C289.083 164.789 289.817 164.308 290.291 163.345C290.764 162.382 291.001 160.898 291.001 158.893C291.001 156.92 290.764 155.484 290.291 154.584C289.833 153.668 289.099 153.21 288.089 153.21C287.079 153.21 286.337 153.668 285.863 154.584C285.405 155.484 285.176 156.92 285.176 158.893C285.176 160.898 285.413 162.382 285.887 163.345C286.36 164.308 287.094 164.789 288.089 164.789Z" fill="white"/>
<path d="M309.674 167.796C307.511 167.796 305.87 167.039 304.749 165.523C303.628 164.008 303.068 161.798 303.068 158.893C303.068 153.1 305.27 150.203 309.674 150.203C314.078 150.203 316.28 153.1 316.28 158.893C316.28 161.798 315.72 164.008 314.599 165.523C313.478 167.039 311.837 167.796 309.674 167.796ZM309.674 164.789C310.669 164.789 311.403 164.308 311.876 163.345C312.35 162.382 312.587 160.898 312.587 158.893C312.587 156.92 312.35 155.484 311.876 154.584C311.418 153.668 310.684 153.21 309.674 153.21C308.664 153.21 307.922 153.668 307.448 154.584C306.991 155.484 306.762 156.92 306.762 158.893C306.762 160.898 306.998 162.382 307.472 163.345C307.946 164.308 308.68 164.789 309.674 164.789Z" fill="white"/>
<path d="M159.19 197C157.028 197 155.386 196.242 154.265 194.727C153.144 193.211 152.584 191.001 152.584 188.097C152.584 182.304 154.786 179.407 159.19 179.407C163.594 179.407 165.797 182.304 165.797 188.097C165.797 191.001 165.236 193.211 164.115 194.727C162.995 196.242 161.353 197 159.19 197ZM159.19 193.993C160.185 193.993 160.919 193.511 161.392 192.548C161.866 191.585 162.103 190.102 162.103 188.097C162.103 186.124 161.866 184.687 161.392 183.787C160.935 182.872 160.201 182.414 159.19 182.414C158.18 182.414 157.438 182.872 156.964 183.787C156.507 184.687 156.278 186.124 156.278 188.097C156.278 190.102 156.515 191.585 156.988 192.548C157.462 193.511 158.196 193.993 159.19 193.993Z" fill="white"/>
<path d="M177.508 196.692V184.143L173.577 185.469V183.29L178.597 179.715H181.225V196.692H177.508Z" fill="white"/>
<path d="M193.544 196.692V184.143L189.613 185.469V183.29L194.633 179.715H197.261V196.692H193.544Z" fill="white"/>
<path d="M212.847 197C210.684 197 209.043 196.242 207.922 194.727C206.801 193.211 206.241 191.001 206.241 188.097C206.241 182.304 208.443 179.407 212.847 179.407C217.251 179.407 219.453 182.304 219.453 188.097C219.453 191.001 218.893 193.211 217.772 194.727C216.651 196.242 215.01 197 212.847 197ZM212.847 193.993C213.841 193.993 214.575 193.511 215.049 192.548C215.523 191.585 215.759 190.102 215.759 188.097C215.759 186.124 215.523 184.687 215.049 183.787C214.591 182.872 213.857 182.414 212.847 182.414C211.837 182.414 211.095 182.872 210.621 183.787C210.163 184.687 209.934 186.124 209.934 188.097C209.934 190.102 210.171 191.585 210.645 192.548C211.118 193.511 211.852 193.993 212.847 193.993Z" fill="white"/>
<path d="M234.432 197C232.27 197 230.628 196.242 229.507 194.727C228.386 193.211 227.826 191.001 227.826 188.097C227.826 182.304 230.028 179.407 234.432 179.407C238.836 179.407 241.038 182.304 241.038 188.097C241.038 191.001 240.478 193.211 239.357 194.727C238.237 196.242 236.595 197 234.432 197ZM234.432 193.993C235.427 193.993 236.161 193.511 236.634 192.548C237.108 191.585 237.345 190.102 237.345 188.097C237.345 186.124 237.108 184.687 236.634 183.787C236.177 182.872 235.442 182.414 234.432 182.414C233.422 182.414 232.68 182.872 232.206 183.787C231.749 184.687 231.52 186.124 231.52 188.097C231.52 190.102 231.757 191.585 232.23 192.548C232.704 193.511 233.438 193.993 234.432 193.993Z" fill="white"/>
<path d="M252.75 196.692V184.143L248.819 185.469V183.29L253.839 179.715H256.467V196.692H252.75Z" fill="white"/>
<path d="M268.786 196.692V184.143L264.855 185.469V183.29L269.875 179.715H272.503V196.692H268.786Z" fill="white"/>
<path d="M288.089 197C285.926 197 284.284 196.242 283.164 194.727C282.043 193.211 281.483 191.001 281.483 188.097C281.483 182.304 283.685 179.407 288.089 179.407C292.493 179.407 294.695 182.304 294.695 188.097C294.695 191.001 294.135 193.211 293.014 194.727C291.893 196.242 290.251 197 288.089 197ZM288.089 193.993C289.083 193.993 289.817 193.511 290.291 192.548C290.764 191.585 291.001 190.102 291.001 188.097C291.001 186.124 290.764 184.687 290.291 183.787C289.833 182.872 289.099 182.414 288.089 182.414C287.079 182.414 286.337 182.872 285.863 183.787C285.405 184.687 285.176 186.124 285.176 188.097C285.176 190.102 285.413 191.585 285.887 192.548C286.36 193.511 287.094 193.993 288.089 193.993Z" fill="white"/>
<path d="M309.674 197C307.511 197 305.87 196.242 304.749 194.727C303.628 193.211 303.068 191.001 303.068 188.097C303.068 182.304 305.27 179.407 309.674 179.407C314.078 179.407 316.28 182.304 316.28 188.097C316.28 191.001 315.72 193.211 314.599 194.727C313.478 196.242 311.837 197 309.674 197ZM309.674 193.993C310.669 193.993 311.403 193.511 311.876 192.548C312.35 191.585 312.587 190.102 312.587 188.097C312.587 186.124 312.35 184.687 311.876 183.787C311.418 182.872 310.684 182.414 309.674 182.414C308.664 182.414 307.922 182.872 307.448 183.787C306.991 184.687 306.762 186.124 306.762 188.097C306.762 190.102 306.998 191.585 307.472 192.548C307.946 193.511 308.68 193.993 309.674 193.993Z" fill="white"/>
<path d="M159.19 226.203C157.028 226.203 155.386 225.445 154.265 223.93C153.144 222.414 152.584 220.204 152.584 217.3C152.584 211.507 154.786 208.61 159.19 208.61C163.594 208.61 165.797 211.507 165.797 217.3C165.797 220.204 165.236 222.414 164.115 223.93C162.995 225.445 161.353 226.203 159.19 226.203ZM159.19 223.196C160.185 223.196 160.919 222.714 161.392 221.751C161.866 220.788 162.103 219.305 162.103 217.3C162.103 215.327 161.866 213.89 161.392 212.99C160.935 212.075 160.201 211.617 159.19 211.617C158.18 211.617 157.438 212.075 156.964 212.99C156.507 213.89 156.278 215.327 156.278 217.3C156.278 219.305 156.515 220.788 156.988 221.751C157.462 222.714 158.196 223.196 159.19 223.196Z" fill="white"/>
<path d="M177.508 225.895V213.346L173.577 214.672V212.493L178.597 208.918H181.225V225.895H177.508Z" fill="white"/>
<path d="M196.811 226.203C194.649 226.203 193.007 225.445 191.886 223.93C190.765 222.414 190.205 220.204 190.205 217.3C190.205 211.507 192.407 208.61 196.811 208.61C201.215 208.61 203.418 211.507 203.418 217.3C203.418 220.204 202.857 222.414 201.736 223.93C200.616 225.445 198.974 226.203 196.811 226.203ZM196.811 223.196C197.806 223.196 198.54 222.714 199.013 221.751C199.487 220.788 199.724 219.305 199.724 217.3C199.724 215.327 199.487 213.89 199.013 212.99C198.556 212.075 197.822 211.617 196.811 211.617C195.801 211.617 195.059 212.075 194.585 212.99C194.128 213.89 193.899 215.327 193.899 217.3C193.899 219.305 194.136 220.788 194.609 221.751C195.083 222.714 195.817 223.196 196.811 223.196Z" fill="white"/>
<path d="M215.129 225.895V213.346L211.198 214.672V212.493L216.218 208.918H218.846V225.895H215.129Z" fill="white"/>
<path d="M234.432 226.203C232.27 226.203 230.628 225.445 229.507 223.93C228.386 222.414 227.826 220.204 227.826 217.3C227.826 211.507 230.028 208.61 234.432 208.61C238.836 208.61 241.038 211.507 241.038 217.3C241.038 220.204 240.478 222.414 239.357 223.93C238.237 225.445 236.595 226.203 234.432 226.203ZM234.432 223.196C235.427 223.196 236.161 222.714 236.634 221.751C237.108 220.788 237.345 219.305 237.345 217.3C237.345 215.327 237.108 213.89 236.634 212.99C236.177 212.075 235.442 211.617 234.432 211.617C233.422 211.617 232.68 212.075 232.206 212.99C231.749 213.89 231.52 215.327 231.52 217.3C231.52 219.305 231.757 220.788 232.23 221.751C232.704 222.714 233.438 223.196 234.432 223.196Z" fill="white"/>
<path d="M256.017 226.203C253.855 226.203 252.213 225.445 251.092 223.93C249.972 222.414 249.411 220.204 249.411 217.3C249.411 211.507 251.613 208.61 256.017 208.61C260.422 208.61 262.624 211.507 262.624 217.3C262.624 220.204 262.063 222.414 260.943 223.93C259.822 225.445 258.18 226.203 256.017 226.203ZM256.017 223.196C257.012 223.196 257.746 222.714 258.22 221.751C258.693 220.788 258.93 219.305 258.93 217.3C258.93 215.327 258.693 213.89 258.22 212.99C257.762 212.075 257.028 211.617 256.017 211.617C255.007 211.617 254.265 212.075 253.792 212.99C253.334 213.89 253.105 215.327 253.105 217.3C253.105 219.305 253.342 220.788 253.815 221.751C254.289 222.714 255.023 223.196 256.017 223.196Z" fill="white"/>
<path d="M277.603 226.203C275.44 226.203 273.798 225.445 272.678 223.93C271.557 222.414 270.996 220.204 270.996 217.3C270.996 211.507 273.199 208.61 277.603 208.61C282.007 208.61 284.209 211.507 284.209 217.3C284.209 220.204 283.649 222.414 282.528 223.93C281.407 225.445 279.765 226.203 277.603 226.203ZM277.603 223.196C278.597 223.196 279.331 222.714 279.805 221.751C280.278 220.788 280.515 219.305 280.515 217.3C280.515 215.327 280.278 213.89 279.805 212.99C279.347 212.075 278.613 211.617 277.603 211.617C276.592 211.617 275.851 212.075 275.377 212.99C274.919 213.89 274.69 215.327 274.69 217.3C274.69 219.305 274.927 220.788 275.401 221.751C275.874 222.714 276.608 223.196 277.603 223.196Z" fill="white"/>
<path d="M295.92 225.895V213.346L291.99 214.672V212.493L297.01 208.918H299.638V225.895H295.92Z" fill="white"/>
<path d="M311.956 225.895V213.346L308.025 214.672V212.493L313.045 208.918H315.674V225.895H311.956Z" fill="white"/>
<g opacity="0.8" filter="url(#filter0_d)">
<g filter="url(#filter1_i)">
<path d="M149.15 269.539H321.429C326.985 269.539 331.489 265.035 331.489 259.479V63.9362L273.329 12.3782H149.15C143.594 12.3782 139.09 16.8822 139.09 22.4383V259.479C139.09 265.035 143.594 269.539 149.15 269.539Z" fill="url(#paint0_linear)"/>
</g>
<path d="M321.429 269.039H149.15C143.87 269.039 139.59 264.759 139.59 259.479V22.4383C139.59 17.1584 143.87 12.8782 149.15 12.8782H273.14L330.989 64.1611V259.479C330.989 264.759 326.709 269.039 321.429 269.039Z" stroke="white" stroke-opacity="0.3"/>
<g filter="url(#filter2_d)">
<path d="M273.016 53.8761V12.3782L331.49 63.9362H283.076C277.52 63.9362 273.016 59.4321 273.016 53.8761Z" fill="#50A3AE"/>
</g>
<path d="M331.496 171.656L171.534 12.0001H148.978C143.417 12.0001 138.908 16.4947 138.908 22.0391V64.4809L331.496 256.7V171.656Z" fill="white" fill-opacity="0.05"/>
<path d="M319.412 269.539L138.908 89.0354V134.953L273.494 269.539H319.412Z" fill="white" fill-opacity="0.05"/>
</g>
<path d="M185.937 163.738C227.202 156.77 268.812 176.479 292.26 210.417L289.294 372.955H70.1501C41.2526 372.962 15.3075 355.628 4.79963 329.29C-5.70441 302.952 1.3805 273.009 22.6466 253.863C43.9128 234.72 75.0036 230.302 100.956 242.732C111.419 203.066 144.673 170.711 185.937 163.738Z" fill="#2C8498"/>
<path d="M132.491 166.871C109.155 166.886 88.8766 182.901 83.4578 205.597C71.3537 200.219 57.1957 202.723 47.6728 211.93C38.15 221.137 35.1676 235.198 40.1333 247.477C45.099 259.756 57.0174 267.793 70.2617 267.793H132.491C160.361 267.793 182.95 245.2 182.95 217.334C182.95 189.463 160.361 166.871 132.491 166.871V166.871Z" fill="#94CFDC"/>
<path d="M182.954 217.333C182.954 199.12 173.131 182.325 157.257 173.392C131.407 187.116 112.502 211.06 105.152 239.391C83.9077 228.895 58.7375 230.192 38.6816 242.816C42.1617 257.449 55.2315 267.785 70.2734 267.793H132.495C160.365 267.793 182.954 245.2 182.954 217.333Z" fill="#7BB6C4"/>
<path d="M70.2664 202.782C69.7241 202.782 69.1967 202.834 68.6582 202.86C69.1039 212.929 74.6935 222.058 83.4587 227.031C81.8245 219.978 81.8245 212.647 83.4587 205.597C79.3064 203.74 74.8124 202.782 70.2664 202.782Z" fill="#7BB6C4"/>
<path d="M412.896 281.134C416.257 254.753 403.265 228.974 380.06 215.982C356.854 202.99 328.081 205.389 307.35 222.047C284.4 188.097 243.676 170.748 203.289 177.72C162.903 184.695 130.356 214.693 120.117 254.374C94.7161 241.939 64.2869 246.359 43.4733 265.509C22.6597 284.662 15.7256 314.616 26.0061 340.963C36.2903 367.311 61.6833 384.652 89.9659 384.645H404.87C432.086 384.671 454.731 363.734 456.833 336.599C458.931 309.468 439.782 285.293 412.885 281.13L412.896 281.134Z" fill="#02677E"/>
<path d="M412.898 281.133C415.627 259.595 407.471 238.11 391.133 223.811C374.795 209.511 352.418 204.275 331.43 209.835C363.281 217.909 384.032 248.565 379.686 281.133C406.58 285.297 425.733 309.472 423.631 336.603C421.529 363.738 398.884 384.674 371.668 384.648H404.879C432.096 384.674 454.74 363.738 456.842 336.603C458.944 309.472 439.791 285.297 412.898 281.133V281.133Z" fill="#2C8498"/>
<defs>
<filter id="filter0_d" x="126.908" y="0.00012207" width="224.588" height="289.539" filterUnits="userSpaceOnUse" color-interpolation-filters="sRGB">
<feFlood flood-opacity="0" result="BackgroundImageFix"/>
<feColorMatrix in="SourceAlpha" type="matrix" values="0 0 0 0 0 0 0 0 0 0 0 0 0 0 0 0 0 0 127 0" result="hardAlpha"/>
<feOffset dx="4" dy="4"/>
<feGaussianBlur stdDeviation="8"/>
<feColorMatrix type="matrix" values="0 0 0 0 0.0364584 0 0 0 0 0.722538 0 0 0 0 0.875 0 0 0 0.4 0"/>
<feBlend mode="normal" in2="BackgroundImageFix" result="effect1_dropShadow"/>
<feBlend mode="normal" in="SourceGraphic" in2="effect1_dropShadow" result="shape"/>
</filter>
<filter id="filter1_i" x="139.09" y="12.3782" width="194.399" height="261.161" filterUnits="userSpaceOnUse" color-interpolation-filters="sRGB">
<feFlood flood-opacity="0" result="BackgroundImageFix"/>
<feBlend mode="normal" in="SourceGraphic" in2="BackgroundImageFix" result="shape"/>
<feColorMatrix in="SourceAlpha" type="matrix" values="0 0 0 0 0 0 0 0 0 0 0 0 0 0 0 0 0 0 127 0" result="hardAlpha"/>
<feOffset dx="2" dy="4"/>
<feGaussianBlur stdDeviation="2"/>
<feComposite in2="hardAlpha" operator="arithmetic" k2="-1" k3="1"/>
<feColorMatrix type="matrix" values="0 0 0 0 0 0 0 0 0 0 0 0 0 0 0 0 0 0 0.25 0"/>
<feBlend mode="normal" in2="shape" result="effect1_innerShadow"/>
</filter>
<filter id="filter2_d" x="265.016" y="8.37817" width="74.4743" height="67.558" filterUnits="userSpaceOnUse" color-interpolation-filters="sRGB">
<feFlood flood-opacity="0" result="BackgroundImageFix"/>
<feColorMatrix in="SourceAlpha" type="matrix" values="0 0 0 0 0 0 0 0 0 0 0 0 0 0 0 0 0 0 127 0" result="hardAlpha"/>
<feOffset dy="4"/>
<feGaussianBlur stdDeviation="4"/>
<feColorMatrix type="matrix" values="0 0 0 0 0.0399306 0 0 0 0 0.347347 0 0 0 0 0.416667 0 0 0 0.3 0"/>
<feBlend mode="normal" in2="BackgroundImageFix" result="effect1_dropShadow"/>
<feBlend mode="normal" in="SourceGraphic" in2="effect1_dropShadow" result="shape"/>
</filter>
<linearGradient id="paint0_linear" x1="235.29" y1="12.3782" x2="235.29" y2="269.917" gradientUnits="userSpaceOnUse">
<stop offset="0.1875" stop-color="#02677E"/>
<stop offset="1" stop-color="#7CC8D2"/>
</linearGradient>
</defs>
</svg>
