<svg width="64" height="64" viewBox="0 0 64 64" fill="none" xmlns="http://www.w3.org/2000/svg">
<path d="M8.17578 7.504V49.2165C8.17578 53.3542 11.542 56.7205 15.6798 56.7205H18.8673V64L25.7459 60.9046L32.6245 64V56.7206H55.8254V0H15.6798C11.542 0 8.17578 3.36625 8.17578 7.504ZM28.8749 58.2006L25.746 56.7928L22.6173 58.2006V52.9679H28.8749V58.2006ZM52.0757 52.9707H32.6247V49.218H18.8673V52.9707H15.6798C13.6097 52.9707 11.9255 51.2866 11.9255 49.2165C11.9255 47.1464 13.6098 45.4622 15.6798 45.4622H52.0757V52.9707ZM52.0757 41.7125H15.6798C14.3125 41.7125 13.0307 42.0819 11.9255 42.7234V7.504C11.9255 5.43388 13.6098 3.74975 15.6798 3.74975H52.0757V41.7125Z" fill="#00758F"/>
<path d="M44.5026 24.6066V20.8569H41.6658C41.4095 19.533 40.8891 18.3021 40.1588 17.2238L42.1662 15.2164L39.5147 12.5649L37.5073 14.5723C36.4288 13.8419 35.1981 13.3215 33.8742 13.0653V10.2285H30.1245V13.0653C28.8006 13.3216 27.5697 13.842 26.4913 14.5723L24.484 12.5649L21.8325 15.2164L23.8398 17.2238C23.1095 18.3021 22.5891 19.533 22.3328 20.8569H19.4961V24.6066H22.3328C22.5891 25.9305 23.1096 27.1614 23.8398 28.2398L21.8325 30.2471L24.484 32.8986L26.4913 30.8913C27.5698 31.6216 28.8006 32.142 30.1245 32.3983V35.235H33.8742V32.3983C35.1981 32.1419 36.429 31.6215 37.5073 30.8913L39.5147 32.8986L42.1662 30.2471L40.1588 28.2398C40.8892 27.1613 41.4096 25.9305 41.6658 24.6066H44.5026V24.6066ZM31.9992 28.8298C28.6368 28.8298 25.9012 26.0941 25.9012 22.7318C25.9012 19.3694 28.6368 16.6338 31.9992 16.6338C35.3616 16.6338 38.0972 19.3694 38.0972 22.7318C38.0972 26.0941 35.3616 28.8298 31.9992 28.8298Z" fill="#00758F"/>
</svg>
