<svg width="84" height="82" viewBox="0 0 84 82" fill="none" xmlns="http://www.w3.org/2000/svg">
<path d="M23.6094 76.5141V75.0021C24.0654 75.2181 24.5454 75.3921 25.0494 75.5241C25.5534 75.6561 26.0034 75.7221 26.3994 75.7221C27.9234 75.7221 28.6854 74.9541 28.6854 73.4181V65.4441L26.0754 64.9041V63.9141H30.3594V73.5081C30.3594 74.6601 30.0234 75.5661 29.3514 76.2261C28.6914 76.8861 27.7614 77.2161 26.5614 77.2161C26.0214 77.2161 25.4814 77.1501 24.9414 77.0181C24.4014 76.8861 23.9574 76.7181 23.6094 76.5141ZM38.8638 77.0001L38.5938 75.4881C37.8258 76.6281 36.7818 77.1981 35.4618 77.1981C34.5138 77.1981 33.7518 76.9341 33.1758 76.4061C32.6118 75.8661 32.3298 75.1521 32.3298 74.2641C32.3298 73.2801 32.6658 72.5181 33.3378 71.9781C34.0218 71.4261 34.9698 71.1501 36.1818 71.1501H38.3418V70.5561C38.3418 69.8841 38.1918 69.4101 37.8918 69.1341C37.6038 68.8581 37.1058 68.7201 36.3978 68.7201C35.9418 68.7201 35.4558 68.7741 34.9398 68.8821C34.4238 68.9781 33.8418 69.1401 33.1938 69.3681V68.0541C33.6498 67.8501 34.1718 67.6941 34.7598 67.5861C35.3478 67.4661 35.8998 67.4061 36.4158 67.4061C38.7798 67.4061 39.9618 68.4561 39.9618 70.5561V77.0001H38.8638ZM35.6598 75.9021C36.2118 75.9021 36.7278 75.7461 37.2078 75.4341C37.6878 75.1101 38.0718 74.6721 38.3598 74.1201V72.3381H36.3438C35.5278 72.3381 34.9218 72.4881 34.5258 72.7881C34.1418 73.0761 33.9498 73.5261 33.9498 74.1381C33.9498 74.6781 34.0998 75.1101 34.3998 75.4341C34.7118 75.7461 35.1318 75.9021 35.6598 75.9021ZM44.8164 77.0001L41.1264 67.6041H42.8184L45.5364 75.0561L48.2364 67.6041H49.8924L46.1844 77.0001H44.8164ZM57.1802 77.0001L56.9102 75.4881C56.1422 76.6281 55.0982 77.1981 53.7782 77.1981C52.8302 77.1981 52.0682 76.9341 51.4922 76.4061C50.9282 75.8661 50.6462 75.1521 50.6462 74.2641C50.6462 73.2801 50.9822 72.5181 51.6542 71.9781C52.3382 71.4261 53.2862 71.1501 54.4982 71.1501H56.6582V70.5561C56.6582 69.8841 56.5082 69.4101 56.2082 69.1341C55.9202 68.8581 55.4222 68.7201 54.7142 68.7201C54.2582 68.7201 53.7722 68.7741 53.2562 68.8821C52.7402 68.9781 52.1582 69.1401 51.5102 69.3681V68.0541C51.9662 67.8501 52.4882 67.6941 53.0762 67.5861C53.6642 67.4661 54.2162 67.4061 54.7322 67.4061C57.0962 67.4061 58.2782 68.4561 58.2782 70.5561V77.0001H57.1802ZM53.9762 75.9021C54.5282 75.9021 55.0442 75.7461 55.5242 75.4341C56.0042 75.1101 56.3882 74.6721 56.6762 74.1201V72.3381H54.6602C53.8442 72.3381 53.2382 72.4881 52.8422 72.7881C52.4582 73.0761 52.2662 73.5261 52.2662 74.1381C52.2662 74.6781 52.4162 75.1101 52.7162 75.4341C53.0282 75.7461 53.4482 75.9021 53.9762 75.9021Z" fill="#003C4A"/>
<path d="M36.7527 54.8425C45.7917 55.4194 59.671 54.5229 59.9993 50.2627C59.9993 50.2627 59.3677 51.8759 52.5295 53.1594C44.8165 54.6053 35.3012 54.438 29.6562 53.5115C29.6562 53.5115 30.8119 54.4629 36.7527 54.8425Z" fill="#003C4A"/>
<path d="M34.9066 43.6675C34.9066 43.6675 32.989 44.7787 36.2727 45.1533C40.2482 45.6053 42.2887 45.5429 46.6653 44.7163C47.5443 45.2409 48.4668 45.6895 49.4226 46.0573C39.599 50.2525 27.1886 45.8076 34.9041 43.6675" fill="#003C4A"/>
<path d="M33.7007 38.191C33.7007 38.191 31.5525 39.7867 34.8363 40.1164C39.0825 40.5509 42.439 40.5883 48.2444 39.4746C48.8394 40.0278 49.5425 40.4528 50.3099 40.7232C38.4308 44.1843 25.2007 40.9954 33.7007 38.186" fill="#003C4A"/>
<path d="M43.8427 28.9052C46.2641 31.6821 43.206 34.1818 43.206 34.1818C43.206 34.1818 49.3398 31.0203 46.5173 27.0523C43.8803 23.359 41.8599 21.526 52.804 15.2007C52.804 15.2007 35.6234 19.4759 43.8302 28.8952" fill="#003C4A"/>
<path d="M56.8225 47.7146C56.8225 47.7146 58.2412 48.8807 55.2583 49.7822C49.5882 51.4928 31.6556 52.0097 26.6824 49.8497C24.8927 49.073 28.2516 47.9967 29.3069 47.7695C29.8736 47.6318 30.4557 47.5672 31.039 47.5772C29.0337 46.1788 18.1673 50.3241 25.5243 51.5078C45.555 54.7541 62.0413 50.0494 56.8575 47.7146" fill="#003C4A"/>
<path d="M35.8128 32.5215C35.8128 32.5215 26.691 34.6791 32.5817 35.4632C35.0708 35.7953 40.029 35.7129 44.6487 35.3334C48.4238 35.0162 52.2138 34.3345 52.2138 34.3345C51.4169 34.679 50.6498 35.0883 49.9202 35.5581C40.6456 37.9854 22.7631 36.8541 27.9143 34.3719C32.2809 32.2818 35.8128 32.5215 35.8128 32.5215Z" fill="#003C4A"/>
<path d="M52.1905 41.6331C61.6055 36.7586 57.254 32.0739 54.2134 32.7057C53.8477 32.7732 53.4881 32.8701 53.138 32.9953C53.3371 32.7125 53.6177 32.4965 53.9427 32.376C59.9586 30.2709 64.5759 38.5865 52 41.8803C52.0795 41.8105 52.1443 41.7256 52.1905 41.6306" fill="#003C4A"/>
<path d="M46.5167 5C46.5167 5 51.733 10.1966 41.571 18.1876C33.4219 24.5979 39.7136 28.2538 41.571 32.4216C36.8234 28.1539 33.3141 24.3906 35.6628 20.8871C39.0995 15.7479 48.6223 13.2532 46.5167 5Z" fill="#003C4A"/>
</svg>
