<svg width="84" height="82" viewBox="0 0 84 82" fill="none" xmlns="http://www.w3.org/2000/svg">
<path d="M23.612 76.514V75.002C24.068 75.218 24.548 75.392 25.052 75.524C25.556 75.656 26.006 75.722 26.402 75.722C27.926 75.722 28.688 74.954 28.688 73.418V65.444L26.078 64.904V63.914H30.362V73.508C30.362 74.66 30.026 75.566 29.354 76.226C28.694 76.886 27.764 77.216 26.564 77.216C26.024 77.216 25.484 77.15 24.944 77.018C24.404 76.886 23.96 76.718 23.612 76.514ZM38.8664 77L38.5964 75.488C37.8284 76.628 36.7844 77.198 35.4644 77.198C34.5164 77.198 33.7544 76.934 33.1784 76.406C32.6144 75.866 32.3324 75.152 32.3324 74.264C32.3324 73.28 32.6684 72.518 33.3404 71.978C34.0244 71.426 34.9724 71.15 36.1844 71.15H38.3444V70.556C38.3444 69.884 38.1944 69.41 37.8944 69.134C37.6064 68.858 37.1084 68.72 36.4004 68.72C35.9444 68.72 35.4584 68.774 34.9424 68.882C34.4264 68.978 33.8444 69.14 33.1964 69.368V68.054C33.6524 67.85 34.1744 67.694 34.7624 67.586C35.3504 67.466 35.9024 67.406 36.4184 67.406C38.7824 67.406 39.9644 68.456 39.9644 70.556V77H38.8664ZM35.6624 75.902C36.2144 75.902 36.7304 75.746 37.2104 75.434C37.6904 75.11 38.0744 74.672 38.3624 74.12V72.338H36.3464C35.5304 72.338 34.9244 72.488 34.5284 72.788C34.1444 73.076 33.9524 73.526 33.9524 74.138C33.9524 74.678 34.1024 75.11 34.4024 75.434C34.7144 75.746 35.1344 75.902 35.6624 75.902ZM44.819 77L41.129 67.604H42.821L45.539 75.056L48.239 67.604H49.895L46.187 77H44.819ZM57.1828 77L56.9128 75.488C56.1448 76.628 55.1008 77.198 53.7808 77.198C52.8328 77.198 52.0708 76.934 51.4948 76.406C50.9308 75.866 50.6488 75.152 50.6488 74.264C50.6488 73.28 50.9848 72.518 51.6568 71.978C52.3408 71.426 53.2888 71.15 54.5008 71.15H56.6608V70.556C56.6608 69.884 56.5108 69.41 56.2108 69.134C55.9228 68.858 55.4248 68.72 54.7168 68.72C54.2608 68.72 53.7748 68.774 53.2588 68.882C52.7428 68.978 52.1608 69.14 51.5128 69.368V68.054C51.9688 67.85 52.4908 67.694 53.0788 67.586C53.6668 67.466 54.2188 67.406 54.7348 67.406C57.0988 67.406 58.2808 68.456 58.2808 70.556V77H57.1828ZM53.9788 75.902C54.5308 75.902 55.0468 75.746 55.5268 75.434C56.0068 75.11 56.3908 74.672 56.6788 74.12V72.338H54.6628C53.8468 72.338 53.2408 72.488 52.8448 72.788C52.4608 73.076 52.2688 73.526 52.2688 74.138C52.2688 74.678 52.4188 75.11 52.7188 75.434C53.0308 75.746 53.4508 75.902 53.9788 75.902Z" fill="white"/>
<path d="M36.7526 54.8425C45.7916 55.4194 59.671 54.5229 59.9993 50.2627C59.9993 50.2627 59.3677 51.8759 52.5295 53.1594C44.8165 54.6053 35.3012 54.438 29.6562 53.5115C29.6562 53.5115 30.8118 54.4629 36.7526 54.8425" fill="white"/>
<path d="M34.9066 43.6675C34.9066 43.6675 32.989 44.7787 36.2727 45.1533C40.2482 45.6053 42.2887 45.5429 46.6653 44.7163C47.5443 45.2409 48.4668 45.6895 49.4226 46.0573C39.599 50.2525 27.1886 45.8076 34.9041 43.6675" fill="white"/>
<path d="M33.7046 38.191C33.7046 38.191 31.5564 39.7867 34.8402 40.1164C39.0864 40.5509 42.4429 40.5883 48.2483 39.4746C48.8433 40.0278 49.5464 40.4528 50.3138 40.7232C38.4347 44.1843 25.2046 40.9954 33.7046 38.186" fill="white"/>
<path d="M43.8388 28.9052C46.2602 31.6821 43.2021 34.1818 43.2021 34.1818C43.2021 34.1818 49.3359 31.0203 46.5134 27.0523C43.8764 23.359 41.856 21.526 52.8001 15.2007C52.8001 15.2007 35.6195 19.4759 43.8263 28.8952" fill="white"/>
<path d="M56.8225 47.7146C56.8225 47.7146 58.2412 48.8807 55.2583 49.7822C49.5882 51.4928 31.6556 52.0097 26.6824 49.8497C24.8927 49.073 28.2516 47.9967 29.3069 47.7695C29.8736 47.6318 30.4557 47.5672 31.039 47.5772C29.0337 46.1788 18.1673 50.3241 25.5243 51.5078C45.555 54.7541 62.0413 50.0494 56.8575 47.7146" fill="white"/>
<path d="M35.8167 32.5215C35.8167 32.5215 26.6949 34.6791 32.5856 35.4632C35.0747 35.7953 40.0329 35.7129 44.6526 35.3334C48.4277 35.0162 52.2177 34.3345 52.2177 34.3345C51.4208 34.679 50.6537 35.0883 49.9241 35.5581C40.6495 37.9854 22.767 36.8541 27.9182 34.3719C32.2848 32.2818 35.8167 32.5215 35.8167 32.5215Z" fill="white"/>
<path d="M52.1905 41.6331C61.6055 36.7586 57.254 32.0739 54.2134 32.7057C53.8477 32.7732 53.4881 32.8701 53.138 32.9953C53.3371 32.7125 53.6177 32.4965 53.9427 32.376C59.9586 30.2709 64.5759 38.5865 52 41.8803C52.0795 41.8105 52.1443 41.7256 52.1905 41.6306" fill="white"/>
<path d="M46.5167 5C46.5167 5 51.733 10.1966 41.571 18.1876C33.4219 24.5979 39.7136 28.2538 41.571 32.4216C36.8234 28.1539 33.3141 24.3906 35.6628 20.8871C39.0995 15.7479 48.6223 13.2532 46.5167 5" fill="white"/>
</svg>
