<svg width="60" height="82" viewBox="0 0 60 82" fill="none" xmlns="http://www.w3.org/2000/svg">
<path d="M11.612 76.514V75.002C12.068 75.218 12.548 75.392 13.052 75.524C13.556 75.656 14.006 75.722 14.402 75.722C15.926 75.722 16.688 74.954 16.688 73.418V65.444L14.078 64.904V63.914H18.362V73.508C18.362 74.66 18.026 75.566 17.354 76.226C16.694 76.886 15.764 77.216 14.564 77.216C14.024 77.216 13.484 77.15 12.944 77.018C12.404 76.886 11.96 76.718 11.612 76.514ZM26.8664 77L26.5964 75.488C25.8284 76.628 24.7844 77.198 23.4644 77.198C22.5164 77.198 21.7544 76.934 21.1784 76.406C20.6144 75.866 20.3324 75.152 20.3324 74.264C20.3324 73.28 20.6684 72.518 21.3404 71.978C22.0244 71.426 22.9724 71.15 24.1844 71.15H26.3444V70.556C26.3444 69.884 26.1944 69.41 25.8944 69.134C25.6064 68.858 25.1084 68.72 24.4004 68.72C23.9444 68.72 23.4584 68.774 22.9424 68.882C22.4264 68.978 21.8444 69.14 21.1964 69.368V68.054C21.6524 67.85 22.1744 67.694 22.7624 67.586C23.3504 67.466 23.9024 67.406 24.4184 67.406C26.7824 67.406 27.9644 68.456 27.9644 70.556V77H26.8664ZM23.6624 75.902C24.2144 75.902 24.7304 75.746 25.2104 75.434C25.6904 75.11 26.0744 74.672 26.3624 74.12V72.338H24.3464C23.5304 72.338 22.9244 72.488 22.5284 72.788C22.1444 73.076 21.9524 73.526 21.9524 74.138C21.9524 74.678 22.1024 75.11 22.4024 75.434C22.7144 75.746 23.1344 75.902 23.6624 75.902ZM32.819 77L29.129 67.604H30.821L33.539 75.056L36.239 67.604H37.895L34.187 77H32.819ZM45.1828 77L44.9128 75.488C44.1448 76.628 43.1008 77.198 41.7808 77.198C40.8328 77.198 40.0708 76.934 39.4948 76.406C38.9308 75.866 38.6488 75.152 38.6488 74.264C38.6488 73.28 38.9848 72.518 39.6568 71.978C40.3408 71.426 41.2888 71.15 42.5008 71.15H44.6608V70.556C44.6608 69.884 44.5108 69.41 44.2108 69.134C43.9228 68.858 43.4248 68.72 42.7168 68.72C42.2608 68.72 41.7748 68.774 41.2588 68.882C40.7428 68.978 40.1608 69.14 39.5128 69.368V68.054C39.9688 67.85 40.4908 67.694 41.0788 67.586C41.6668 67.466 42.2188 67.406 42.7348 67.406C45.0988 67.406 46.2808 68.456 46.2808 70.556V77H45.1828ZM41.9788 75.902C42.5308 75.902 43.0468 75.746 43.5268 75.434C44.0068 75.11 44.3908 74.672 44.6788 74.12V72.338H42.6628C41.8468 72.338 41.2408 72.488 40.8448 72.788C40.4608 73.076 40.2688 73.526 40.2688 74.138C40.2688 74.678 40.4188 75.11 40.7188 75.434C41.0308 75.746 41.4508 75.902 41.9788 75.902Z" fill="white"/>
<g filter="url(#filter0_i)">
<path d="M24.8165 54.8425C33.897 55.4194 47.8402 54.5229 48.17 50.2627C48.17 50.2627 47.5355 51.8759 40.6659 53.1594C32.9174 54.6053 23.3584 54.438 17.6875 53.5115C17.6875 53.5115 18.8484 54.4629 24.8165 54.8425" fill="white"/>
<path d="M22.9606 43.6675C22.9606 43.6675 21.0342 44.7787 24.333 45.1533C28.3269 45.6053 30.3767 45.5429 34.7734 44.7163C35.6564 45.2409 36.5832 45.6895 37.5434 46.0573C27.6747 50.2525 15.2072 45.8076 22.9581 43.6675" fill="white"/>
<path d="M21.7522 38.191C21.7522 38.191 19.5941 39.7867 22.8929 40.1164C27.1587 40.5509 30.5306 40.5883 36.3627 39.4746C36.9604 40.0278 37.6668 40.4528 38.4377 40.7232C26.504 44.1843 13.2131 40.9954 21.7522 38.186" fill="white"/>
<path d="M31.935 28.9052C34.3676 31.6821 31.2954 34.1818 31.2954 34.1818C31.2954 34.1818 37.4574 31.0203 34.6219 27.0523C31.9728 23.359 29.9431 21.526 40.9375 15.2007C40.9375 15.2007 23.6779 19.4759 31.9224 28.8952" fill="white"/>
<path d="M44.9779 47.7146C44.9779 47.7146 46.4032 48.8807 43.4066 49.7822C37.7104 51.4928 19.6954 52.0097 14.6993 49.8497C12.9014 49.073 16.2757 47.9967 17.3359 47.7695C17.9052 47.6318 18.49 47.5672 19.0759 47.5772C17.0614 46.1788 6.14509 50.3241 13.5359 51.5078C33.6587 54.7541 50.2207 50.0494 45.0131 47.7146" fill="white"/>
<path d="M23.8767 32.5215C23.8767 32.5215 14.7131 34.6791 20.6308 35.4632C23.1313 35.7953 28.1123 35.7129 32.7533 35.3334C36.5457 35.0162 40.3531 34.3345 40.3531 34.3345C39.5526 34.679 38.7819 35.0883 38.049 35.5581C28.7318 37.9854 10.7671 36.8541 15.9419 34.3719C20.3286 32.2818 23.8767 32.5215 23.8767 32.5215Z" fill="white"/>
<path d="M40.3242 41.6331C49.7825 36.7586 45.4109 32.0739 42.3564 32.7057C41.989 32.7732 41.6277 32.8701 41.2761 32.9953C41.4761 32.7125 41.7579 32.4965 42.0844 32.376C48.128 30.2709 52.7665 38.5865 40.1328 41.8803C40.2127 41.8105 40.2778 41.7256 40.3242 41.6306" fill="white"/>
<path d="M34.6247 5C34.6247 5 39.865 10.1966 29.6563 18.1876C21.4697 24.5979 27.7903 28.2538 29.6563 32.4216C24.8869 28.1539 21.3614 24.3906 23.721 20.8871C27.1734 15.7479 36.7399 13.2532 34.6247 5" fill="white"/>
</g>
<defs>
<filter id="filter0_i" x="11" y="5" width="38.17" height="51.9999" filterUnits="userSpaceOnUse" color-interpolation-filters="sRGB">
<feFlood flood-opacity="0" result="BackgroundImageFix"/>
<feBlend mode="normal" in="SourceGraphic" in2="BackgroundImageFix" result="shape"/>
<feColorMatrix in="SourceAlpha" type="matrix" values="0 0 0 0 0 0 0 0 0 0 0 0 0 0 0 0 0 0 127 0" result="hardAlpha"/>
<feOffset dx="1" dy="2"/>
<feGaussianBlur stdDeviation="2"/>
<feComposite in2="hardAlpha" operator="arithmetic" k2="-1" k3="1"/>
<feColorMatrix type="matrix" values="0 0 0 0 0 0 0 0 0 0 0 0 0 0 0 0 0 0 0.1 0"/>
<feBlend mode="normal" in2="shape" result="effect1_innerShadow"/>
</filter>
</defs>
</svg>
