<svg width="84" height="82" viewBox="0 0 84 82" fill="none" xmlns="http://www.w3.org/2000/svg">
<g filter="url(#filter0_i)">
<path fill-rule="evenodd" clip-rule="evenodd" d="M19 7H64V52H19V7ZM53.4004 44.7235C51.3147 44.7235 50.1354 43.6356 49.229 42.1556L45.7925 44.1521C47.034 46.6049 49.5711 48.4763 53.4982 48.4763C57.5147 48.4763 60.5054 46.3906 60.5054 42.5835C60.5054 39.0521 58.4768 37.4813 54.884 35.9406L53.8268 35.4878C52.0125 34.7021 51.2268 34.1885 51.2268 32.9199C51.2268 31.8935 52.0118 31.1078 53.2504 31.1078C54.4647 31.1078 55.2468 31.6199 55.9718 32.9199L59.2647 30.8056C57.8718 28.3556 55.939 27.4199 53.2504 27.4199C49.474 27.4199 47.0575 29.8342 47.0575 33.0056C47.0575 36.4485 49.0847 38.0771 52.1361 39.3771L53.1932 39.8306C55.1218 40.6742 56.2718 41.1878 56.2718 42.6378C56.2718 43.8478 55.1525 44.7235 53.4004 44.7235ZM37.0125 44.6971C35.5597 44.6971 34.9554 43.7006 34.2911 42.5221L30.849 44.606C31.8461 46.7163 33.8068 48.4685 37.1925 48.4685C40.9397 48.4685 43.5068 46.4756 43.5068 42.0971V27.6613H39.2782V42.0399C39.2782 44.1535 38.4018 44.6971 37.0125 44.6971Z" fill="white"/>
</g>
<path d="M0.612 76.514V75.002C1.068 75.218 1.548 75.392 2.052 75.524C2.556 75.656 3.006 75.722 3.402 75.722C4.926 75.722 5.688 74.954 5.688 73.418V65.444L3.078 64.904V63.914H7.362V73.508C7.362 74.66 7.026 75.566 6.354 76.226C5.694 76.886 4.764 77.216 3.564 77.216C3.024 77.216 2.484 77.15 1.944 77.018C1.404 76.886 0.96 76.718 0.612 76.514ZM15.8664 77L15.5964 75.488C14.8284 76.628 13.7844 77.198 12.4644 77.198C11.5164 77.198 10.7544 76.934 10.1784 76.406C9.61444 75.866 9.33244 75.152 9.33244 74.264C9.33244 73.28 9.66844 72.518 10.3404 71.978C11.0244 71.426 11.9724 71.15 13.1844 71.15H15.3444V70.556C15.3444 69.884 15.1944 69.41 14.8944 69.134C14.6064 68.858 14.1084 68.72 13.4004 68.72C12.9444 68.72 12.4584 68.774 11.9424 68.882C11.4264 68.978 10.8444 69.14 10.1964 69.368V68.054C10.6524 67.85 11.1744 67.694 11.7624 67.586C12.3504 67.466 12.9024 67.406 13.4184 67.406C15.7824 67.406 16.9644 68.456 16.9644 70.556V77H15.8664ZM12.6624 75.902C13.2144 75.902 13.7304 75.746 14.2104 75.434C14.6904 75.11 15.0744 74.672 15.3624 74.12V72.338H13.3464C12.5304 72.338 11.9244 72.488 11.5284 72.788C11.1444 73.076 10.9524 73.526 10.9524 74.138C10.9524 74.678 11.1024 75.11 11.4024 75.434C11.7144 75.746 12.1344 75.902 12.6624 75.902ZM21.819 77L18.129 67.604H19.821L22.539 75.056L25.239 67.604H26.895L23.187 77H21.819ZM34.1828 77L33.9128 75.488C33.1448 76.628 32.1008 77.198 30.7808 77.198C29.8328 77.198 29.0708 76.934 28.4948 76.406C27.9308 75.866 27.6488 75.152 27.6488 74.264C27.6488 73.28 27.9848 72.518 28.6568 71.978C29.3408 71.426 30.2888 71.15 31.5008 71.15H33.6608V70.556C33.6608 69.884 33.5108 69.41 33.2108 69.134C32.9228 68.858 32.4248 68.72 31.7168 68.72C31.2608 68.72 30.7748 68.774 30.2588 68.882C29.7428 68.978 29.1608 69.14 28.5128 69.368V68.054C28.9688 67.85 29.4908 67.694 30.0788 67.586C30.6668 67.466 31.2188 67.406 31.7348 67.406C34.0988 67.406 35.2808 68.456 35.2808 70.556V77H34.1828ZM30.9788 75.902C31.5308 75.902 32.0468 75.746 32.5268 75.434C33.0068 75.11 33.3908 74.672 33.6788 74.12V72.338H31.6628C30.8468 72.338 30.2408 72.488 29.8448 72.788C29.4608 73.076 29.2688 73.526 29.2688 74.138C29.2688 74.678 29.4188 75.11 29.7188 75.434C30.0308 75.746 30.4508 75.902 30.9788 75.902ZM37.4449 76.424V74.948C38.7649 75.488 40.0249 75.758 41.2249 75.758C42.2329 75.758 43.0189 75.56 43.5829 75.164C44.1589 74.768 44.4469 74.222 44.4469 73.526C44.4469 73.01 44.2729 72.584 43.9249 72.248C43.5769 71.912 42.9469 71.57 42.0349 71.222L40.6489 70.682C39.4849 70.226 38.6449 69.722 38.1289 69.17C37.6249 68.606 37.3729 67.946 37.3729 67.19C37.3729 66.11 37.7809 65.258 38.5969 64.634C39.4129 64.01 40.5289 63.698 41.9449 63.698C42.5329 63.698 43.1389 63.77 43.7629 63.914C44.3869 64.046 44.9209 64.232 45.3649 64.472V65.948C44.1409 65.42 43.0129 65.156 41.9809 65.156C40.0249 65.156 39.0469 65.822 39.0469 67.154C39.0469 67.598 39.2209 67.976 39.5689 68.288C39.9169 68.6 40.5289 68.93 41.4049 69.278L42.7909 69.818C43.9909 70.286 44.8429 70.814 45.3469 71.402C45.8629 71.978 46.1209 72.674 46.1209 73.49C46.1209 74.666 45.7009 75.584 44.8609 76.244C44.0329 76.892 42.8689 77.216 41.3689 77.216C40.9129 77.216 40.4329 77.18 39.9289 77.108C39.4369 77.036 38.9749 76.94 38.5429 76.82C38.1109 76.7 37.7449 76.568 37.4449 76.424ZM54.7845 75.2V76.532C54.0405 76.976 53.0985 77.198 51.9585 77.198C50.5065 77.198 49.4085 76.778 48.6645 75.938C47.9325 75.086 47.5665 73.838 47.5665 72.194C47.5665 70.67 47.9565 69.494 48.7365 68.666C49.5165 67.826 50.6205 67.406 52.0485 67.406C52.9365 67.406 53.7585 67.604 54.5145 68V69.332C53.7225 68.936 52.9845 68.738 52.3005 68.738C50.2485 68.738 49.2225 69.89 49.2225 72.194C49.2225 73.442 49.4565 74.366 49.9245 74.966C50.4045 75.566 51.1545 75.866 52.1745 75.866C52.5825 75.866 52.9965 75.812 53.4165 75.704C53.8365 75.596 54.2925 75.428 54.7845 75.2ZM56.7563 77V67.604H57.8543L58.1783 69.368C58.7903 68.18 59.6663 67.586 60.8063 67.586C61.0463 67.586 61.2563 67.604 61.4363 67.64V69.062H61.0223C60.3383 69.062 59.7683 69.254 59.3123 69.638C58.8563 70.022 58.5443 70.58 58.3763 71.312V77H56.7563ZM63.3601 65.426V63.968H65.3401V65.426H63.3601ZM63.7381 77V68.864L62.8021 68.27V67.604H65.3581V77H63.7381ZM68.059 80.618V67.604H69.157L69.427 69.116C69.787 68.576 70.243 68.156 70.795 67.856C71.359 67.556 71.965 67.406 72.613 67.406C73.861 67.406 74.833 67.838 75.529 68.702C76.225 69.554 76.573 70.748 76.573 72.284C76.573 73.832 76.219 75.038 75.511 75.902C74.815 76.766 73.837 77.198 72.577 77.198C72.049 77.198 71.533 77.096 71.029 76.892C70.525 76.688 70.075 76.4 69.679 76.028V80.618H68.059ZM72.361 68.72C71.797 68.72 71.275 68.876 70.795 69.188C70.327 69.488 69.955 69.902 69.679 70.43V74.606C70.411 75.458 71.281 75.884 72.289 75.884C73.141 75.884 73.789 75.578 74.233 74.966C74.689 74.354 74.917 73.466 74.917 72.302C74.917 71.162 74.695 70.28 74.251 69.656C73.807 69.032 73.177 68.72 72.361 68.72ZM78.9822 74.138V68.936H77.3622V68.108L78.9822 67.568L79.6302 65.012H80.6022V67.604H82.6362V68.936H80.6022V74.12C80.6022 75.152 81.0462 75.668 81.9342 75.668C82.0782 75.668 82.2162 75.662 82.3482 75.65C82.4922 75.626 82.6242 75.608 82.7442 75.596V77C82.5762 77.036 82.4022 77.06 82.2222 77.072C82.0542 77.084 81.8742 77.09 81.6822 77.09C80.7582 77.09 80.0742 76.85 79.6302 76.37C79.1982 75.89 78.9822 75.146 78.9822 74.138Z" fill="white"/>
<defs>
<filter id="filter0_i" x="12" y="0" width="61" height="62" filterUnits="userSpaceOnUse" color-interpolation-filters="sRGB">
<feFlood flood-opacity="0" result="BackgroundImageFix"/>
<feBlend mode="normal" in="SourceGraphic" in2="BackgroundImageFix" result="shape"/>
<feColorMatrix in="SourceAlpha" type="matrix" values="0 0 0 0 0 0 0 0 0 0 0 0 0 0 0 0 0 0 127 0" result="hardAlpha"/>
<feOffset dx="1" dy="2"/>
<feGaussianBlur stdDeviation="2"/>
<feComposite in2="hardAlpha" operator="arithmetic" k2="-1" k3="1"/>
<feColorMatrix type="matrix" values="0 0 0 0 0 0 0 0 0 0.235294 0 0 0 0 0.290196 0 0 0 0.15 0"/>
<feBlend mode="normal" in2="shape" result="effect1_innerShadow"/>
</filter>
</defs>
</svg>
