<svg width="84" height="82" viewBox="0 0 84 82" fill="none" xmlns="http://www.w3.org/2000/svg">
<path d="M20.458 77V63.914H22.132V75.506H28.54V77H20.458ZM30.5654 77V63.914H32.2394V75.506H38.6474V77H30.5654ZM42.6737 77L37.7597 63.914H39.5957L43.5377 74.84L47.4617 63.914H49.2437L44.3477 77H42.6737ZM50.8682 77V63.914H52.5782L57.5102 73.994L62.3342 63.914H64.0442V77H62.4242V66.956L58.1582 75.74H56.7542L52.4882 67.064V77H50.8682Z" fill="white"/>
<g clip-path="url(#clip0)">
<path fill-rule="evenodd" clip-rule="evenodd" d="M65.5515 7.42771C64.2453 8.1934 62.428 9.87419 60.7463 11.8716C59.9758 12.7867 59.8203 12.9239 59.726 12.7712C59.6715 12.683 59.3899 12.6884 59.2171 12.7809C58.7863 13.0114 58.6946 13.6457 59.036 14.0345C59.3356 14.3757 59.3626 14.6379 59.4047 17.6151C59.4475 20.6533 59.3729 22.0881 59.11 23.2772C59.0702 23.4572 59.0216 23.6928 59.002 23.8009C58.8026 24.896 58.4466 26.0132 58.2366 26.2014C58.1293 26.2976 58.008 26.4337 57.9673 26.5041C57.3213 27.6207 57.3388 27.5781 57.3378 28.0401C57.3373 28.2836 57.3108 28.534 57.2789 28.5965C57.247 28.659 57.0169 29.1218 56.7677 29.6248C56.3504 30.4664 56.2977 30.5427 56.1063 30.5818C55.9919 30.6052 55.8022 30.7194 55.6849 30.8355C55.2743 31.2415 54.5079 31.6894 54.0518 31.7895L53.8484 31.8342L53.898 31.5813C53.9252 31.4422 53.9713 31.1665 54.0003 30.9685C54.0292 30.7705 54.086 30.4023 54.1264 30.1503C54.9053 25.2856 54.2806 21.5625 52.2824 19.1623C51.7056 18.4695 51.4597 18.3053 51.6955 18.7706C51.883 19.1404 52.2315 20.1897 52.2315 20.3841C52.2315 20.4766 52.2589 20.624 52.2922 20.7119C52.5881 21.49 52.4693 24.7173 52.0749 26.6155C51.9301 27.3128 51.65 28.3521 51.5104 28.7102C51.4822 28.7822 51.4219 28.9442 51.3762 29.0702C51.2666 29.3728 51.1923 29.463 51.0524 29.463C50.9035 29.463 50.8274 29.6521 50.9563 29.7016C51.1787 29.787 50.8774 30.4448 50.6158 30.4448C50.4373 30.4448 50.4266 30.491 50.569 30.6484C50.7446 30.8425 50.4628 31.2735 50.1228 31.331C49.9326 31.363 49.8758 31.3994 49.9033 31.4714C49.9239 31.5247 49.9406 31.5807 49.9406 31.5957C49.9406 31.6108 49.9848 31.6231 50.0388 31.6231C50.3698 31.6231 49.9578 32.1917 49.5865 32.2475C49.1779 32.3087 49.0851 32.4344 49.3479 32.5704C49.5281 32.6635 49.5419 32.6907 49.4751 32.82C49.3128 33.134 49.2126 33.1941 48.8505 33.1941C48.4576 33.1941 48.4223 33.2527 48.6675 33.498C48.8333 33.6637 48.8515 33.7863 48.7168 33.8311C48.6783 33.8439 48.6065 33.8149 48.5573 33.7667C47.9803 33.1996 47.4958 33.063 46.9672 33.3178C46.1227 33.7253 44.3232 33.7059 42.6588 33.2718C42.5111 33.2333 42.3157 33.2306 42.1679 33.2649C42.0329 33.2962 41.8881 33.3225 41.8461 33.3233C41.784 33.3247 41.0858 32.874 40.2287 32.2795C39.1521 31.5326 37.4343 29.965 37.5575 29.8418C37.7951 29.6042 37.4421 29.162 36.4117 28.4063C35.7845 27.9463 35.4142 27.4066 34.6216 25.7973C33.5502 23.622 33.0367 21.8641 32.9456 20.0599C32.9099 19.3525 32.914 19.3226 33.0793 19.0794C33.7355 18.1135 32.7828 17.0546 31.7324 17.5822L31.4069 17.7457L30.9141 17.3695C28.2334 15.3227 25.1556 13.4389 23.3989 12.7697C23.3269 12.7422 23.1095 12.6578 22.9157 12.5819C22.7218 12.5059 22.4912 12.4439 22.403 12.4439H22.2428L22.379 12.6643C22.5574 12.9528 22.5538 13.096 22.368 13.1078C22.287 13.1129 22.1177 13.1247 21.9917 13.1338C21.8657 13.1432 21.4386 13.1695 21.0426 13.1926C19.5882 13.2775 18.2688 13.6166 16.9772 14.2378C15.378 15.0067 13.3571 16.6177 12.3632 17.9155C11.9461 18.4605 12.0714 18.4223 12.6481 17.829C13.4268 17.0278 15.1908 15.6513 15.4389 15.6513C15.479 15.6513 15.5117 15.6219 15.5117 15.5859C15.5117 15.5499 15.5398 15.5204 15.5742 15.5204C15.6086 15.5204 15.8221 15.4353 16.0487 15.3314C16.2754 15.2273 16.5639 15.1066 16.6899 15.0629C16.8159 15.0193 16.9779 14.9604 17.0499 14.9321C17.9564 14.5759 19.9446 14.6495 21.2389 15.0871C22.3412 15.4597 23.997 16.3432 23.9366 16.5264C23.9209 16.5736 23.5945 16.616 23.0337 16.6435C20.4811 16.7685 19.03 17.5437 17.6897 19.4985C17.4833 19.7992 16.9317 20.9695 16.7568 21.4771C16.5038 22.2114 16.3037 22.9402 16.3392 22.9975C16.3579 23.028 16.3988 23.2211 16.43 23.4268C16.4614 23.6325 16.5208 23.9776 16.5622 24.1936C16.6036 24.4096 16.6601 24.7189 16.6874 24.8809C16.7665 25.3463 16.9517 26.2071 17.0117 26.3864C17.0417 26.4764 17.1017 26.7121 17.1449 26.9101C17.3681 27.9339 18.3958 31.3446 18.6535 31.9176C18.6859 31.9896 18.7553 32.1811 18.8076 32.3431C18.9024 32.6357 19.0744 33.1072 19.178 33.3577C19.2077 33.4297 19.4134 33.9599 19.6351 34.536C19.8569 35.112 20.0899 35.7011 20.1529 35.8451C20.2161 35.9891 20.3648 36.3573 20.4833 36.6633C20.7382 37.321 20.8521 37.5969 20.9966 37.907L21.1035 38.1361L21.1473 37.7434C21.253 36.7993 21.3754 35.9732 21.5305 35.1578C21.5682 34.9598 21.6281 34.6358 21.6637 34.4378C21.6992 34.2398 21.759 33.9452 21.7966 33.7832C21.8342 33.6212 21.8827 33.3628 21.9043 33.209C21.9259 33.0551 21.9691 32.9134 22.0003 32.8941C22.0316 32.8748 22.0571 32.7886 22.0571 32.7025C22.0571 32.6164 22.1041 32.375 22.1617 32.1664C22.3252 31.5722 22.3677 31.3899 22.5714 30.4121C23.3032 26.897 24.3969 24.4787 25.9834 22.8681C26.6278 22.214 26.6712 22.2052 26.4651 22.7699C26.3764 23.0129 26.2884 23.2706 26.2696 23.3426C26.2508 23.4147 26.2117 23.5325 26.1829 23.6045C26.0727 23.8789 25.7229 25.068 25.5952 25.6009C24.6237 29.6587 25.7422 31.7897 31.188 36.2573C31.3919 36.4246 32.9026 37.6267 33.5597 38.1445C34.2616 38.6976 34.2694 38.6953 34.3198 37.9398C34.4627 35.7981 35.0647 34.2232 36.028 33.4719C36.3474 33.2229 36.3626 33.2312 36.4165 33.6894C36.4981 34.3852 36.9111 35.0307 37.5996 35.5386C37.952 35.7985 38.7206 36.2051 38.8596 36.2051C38.9072 36.2051 38.9972 36.2323 39.0597 36.2655C39.1222 36.2987 39.5156 36.4905 39.9338 36.6918C41.2452 37.3228 42.1645 38.1152 42.6988 39.0748C42.8611 39.3666 42.8122 39.3954 42.0861 39.436C41.7441 39.4551 41.3584 39.4898 41.2288 39.513C40.9961 39.5549 40.7181 39.2123 40.7095 38.8732C40.7065 38.7563 40.5877 38.6238 40.2861 38.4008C40.1421 38.2942 39.9463 38.1248 39.8509 38.0244C39.4652 37.6182 37.8512 37.9856 37.4233 38.577C36.9892 39.1769 36.9321 39.8812 37.2916 40.2025C37.4475 40.3417 37.5043 40.4484 37.5043 40.6016C37.5043 40.7165 37.5313 40.9011 37.5642 41.0117C37.8216 41.8739 37.9312 42.185 38.1135 42.5703C38.347 43.0632 38.4521 43.1358 38.3991 42.7673C38.2703 41.8736 38.2111 41.2434 38.2471 41.1497C38.307 40.9935 38.4205 41.0906 38.4213 41.2984C38.4228 41.6499 39.4482 43.4323 39.5218 43.2113C39.5493 43.1286 39.4488 42.7332 39.3217 42.4236C39.197 42.1202 39.1759 40.5862 39.2994 40.8111C39.3562 40.9142 39.4025 41.0359 39.4025 41.0816C39.4025 41.2348 39.9173 42.1919 40.1243 42.4236C40.257 42.5722 40.313 42.6068 40.2837 42.5218C40.1328 42.0859 40.0976 41.8509 40.0747 41.1241C40.0457 40.2015 40.0703 40.1735 40.4586 40.6851C40.7451 41.0628 40.913 41.5237 40.9726 42.0963C40.997 42.3304 41.0389 42.5711 41.0657 42.6315C41.1374 42.7925 38.833 44.4679 37.6352 45.1256C37.4732 45.2146 37.1491 45.4047 36.9149 45.5484C34.4888 47.0356 30.9995 48.2494 29.1501 48.2494C26.7445 48.2494 25.5759 46.4005 27.0118 44.8664C27.8163 44.0069 30.052 43.9306 31.4326 44.7155C31.4951 44.751 31.5765 44.7801 31.6133 44.7801C31.6769 44.7801 31.8409 44.8488 32.6537 45.2167C33.0925 45.4152 35.279 45.655 35.5839 45.538C35.7263 45.4833 34.653 44.8583 33.1516 44.1218C30.1263 42.6374 27.9804 42.4269 26.2945 43.449C25.6744 43.8251 24.8717 44.733 24.8717 45.0585C24.8717 45.1069 24.8483 45.1747 24.8196 45.2089C24.4426 45.6589 24.509 47.0675 24.9502 47.9764C25.6654 49.4505 28.201 50.4403 30.3698 50.092C30.6038 50.0544 31.0014 49.9912 31.2534 49.9515C31.5054 49.9119 31.8 49.8534 31.908 49.8215C32.016 49.7898 32.2369 49.7284 32.3989 49.6852C33.4146 49.414 35.0986 48.7835 36.228 48.2512C37.4575 47.6717 39.6615 46.5413 40.3382 46.1429C40.5106 46.0415 40.6602 45.9584 40.6703 45.9584C40.6851 45.9584 41.8313 45.3349 42.2087 45.1218C42.2671 45.0886 42.3697 45.1416 42.5032 45.2738C42.6158 45.3853 42.8586 45.5254 43.0427 45.5849L43.3775 45.6934L43.9591 45.4601C44.6513 45.1822 44.7254 45.1496 45.6534 44.7155C46.0494 44.5301 46.5184 44.3509 46.6954 44.317C46.9026 44.2776 47.1873 44.1403 47.4938 43.9323C47.7559 43.7546 48.0768 43.5891 48.2071 43.5647L48.4437 43.5202L48.3413 43.7654C48.2269 44.0393 48.2033 44.5183 48.3043 44.5183C48.3403 44.5183 48.3697 44.4584 48.3697 44.3852C48.3697 44.1385 48.6873 43.6227 49.0277 43.3166C49.4903 42.9007 49.8123 42.8887 50.247 43.2713C50.4086 43.4135 50.6448 43.5642 50.7717 43.6061C51.1578 43.7334 51.0041 44.4779 50.4184 45.3195C50.0195 45.8926 50.1735 45.8769 50.8347 45.2766C51.0565 45.0755 51.3216 44.7783 51.4238 44.6165C51.5261 44.4546 51.6318 44.3221 51.6588 44.3221C51.7704 44.3217 51.6812 44.9714 51.5107 45.402C51.4822 45.474 51.3922 45.7096 51.3109 45.9256C51.2294 46.1416 51.134 46.3559 51.0988 46.4018C51.0635 46.4477 51.054 46.5044 51.0774 46.528C51.1419 46.5923 51.44 46.2812 51.8061 45.7679C51.9861 45.5154 52.1581 45.3077 52.1883 45.3062C52.2487 45.3036 52.2101 46.5463 52.1417 46.8093C52.1183 46.8993 52.1186 46.9288 52.1425 46.8748C52.1662 46.8208 52.2071 46.7619 52.2333 46.7439C52.6051 46.4881 52.9353 44.5275 52.7244 43.8269C52.6398 43.5457 52.6398 43.4896 52.7244 43.3605C52.9977 42.9435 52.6449 42.268 52.0352 42.04C51.9092 41.9931 51.7549 41.9275 51.6924 41.8946C51.6298 41.8615 51.4945 41.8345 51.3916 41.8345C51.2877 41.8345 51.1519 41.7764 51.0861 41.7036C51.021 41.6316 50.9133 41.5727 50.8468 41.5727C50.6523 41.5727 50.704 41.4488 51.0758 41.0235C51.7578 40.2431 52.2926 39.3121 52.3975 38.7225C52.4369 38.5006 52.754 37.8766 52.8782 37.7761C52.9006 37.7581 52.9911 37.6403 53.0795 37.5143C53.7321 36.5841 54.3118 36.068 55.1971 35.6296C56.2426 35.1117 56.4597 35.0187 57.2388 34.7564C57.9203 34.5268 57.9265 34.5222 58.417 33.8729C58.777 33.3963 59.3497 32.2549 59.5622 31.5903C59.6084 31.4463 59.6689 31.2696 59.6971 31.1976C59.8227 30.8752 60.0207 29.8557 60.0207 29.5317C60.0206 29.317 60.0441 29.1997 60.0797 29.2371C60.2997 29.4685 60.2991 34.7382 60.0788 35.8793C60.0404 36.0781 60.019 36.3228 60.0312 36.4229L60.0533 36.6051L60.3983 36.2989C61.2642 35.5301 62.902 32.7894 63.6227 30.903C63.7395 30.597 63.8585 30.2877 63.8868 30.2157C64.0033 29.9202 64.2799 28.9458 64.3978 28.4156C64.4338 28.2536 64.4811 28.0474 64.5027 27.9574C64.6205 27.4665 64.694 26.4738 64.6943 25.3718C64.6947 23.6955 64.6503 23.3587 64.2116 21.7062C63.9272 20.635 63.0346 18.8879 62.335 18.0338C61.9878 17.6097 62.0932 17.5552 62.6388 17.8769C62.8219 17.9849 62.9875 18.0733 63.0064 18.0733C63.1684 18.0733 64.5517 19.1275 65.0624 19.6402C66.1684 20.7504 67.0644 22.4418 67.5612 24.3572C67.594 24.4833 67.6485 24.6821 67.6825 24.7991C67.7164 24.9161 67.7717 25.1076 67.8051 25.2246C67.8988 25.5517 68.1407 26.4576 68.2027 26.7137C68.4753 27.8388 68.5458 28.1582 68.5748 28.3993C68.6285 28.845 68.7915 28.7678 68.7915 28.2967C68.7915 28.0872 68.8314 27.7706 68.8803 27.593C68.9291 27.4154 69.0196 26.9756 69.0813 26.6155C69.1431 26.2555 69.2226 25.8489 69.258 25.7121C69.3293 25.4365 69.4863 24.604 69.5812 23.9972C69.615 23.7812 69.6725 23.4277 69.7088 23.2117C69.9549 21.7491 70.1346 20.0666 70.2434 18.2042C70.3342 16.6519 70.3498 15.0698 70.2778 14.7246C70.1406 14.0678 68.6237 12.879 67.4496 12.5084C67.3056 12.4629 67.1289 12.4023 67.0569 12.3739C66.5542 12.1745 65.4319 12.0505 64.1115 12.0482L62.7369 12.0458L63.0082 11.8001C63.47 11.3822 65.1259 10.6212 66.1406 10.3607C68.4948 9.75637 70.0091 10.1966 71.2787 11.8541C71.9994 12.7949 72.0815 12.8008 71.4914 11.8694C71.0342 11.1477 70.923 11.0001 70.2969 10.2843C68.9425 8.73588 67.9023 8.1628 66.2878 8.07525C65.6351 8.0399 65.4803 7.93844 65.7077 7.69494C65.9349 7.45192 65.8264 7.26652 65.5515 7.42771ZM43.1498 16.1148C43.0688 16.2976 43.0025 16.499 43.0025 16.5627C43.0025 17.0073 42.6117 16.9294 42.5911 16.4809C42.5829 16.3051 42.5454 16.1757 42.5026 16.1755C42.427 16.175 42.1265 16.8466 42.0572 17.1713C41.9986 17.4455 41.7589 17.5477 41.7589 17.2983C41.7589 17.1935 41.7399 17.0129 41.7166 16.8967L41.6744 16.6857L41.5867 16.9376C41.5386 17.0762 41.4799 17.3316 41.4563 17.5051C41.4259 17.7298 41.3476 17.8995 41.1848 18.0942C40.4818 18.9354 40.0799 19.7443 39.8618 20.7571C39.7581 21.2385 39.7841 22.8797 39.9052 23.5063C40.0287 24.1443 40.0304 24.2808 39.9225 24.9235C39.7285 26.0801 39.9006 26.4329 41.0004 27.1341C41.7458 27.6092 41.8212 27.7079 41.9616 28.3926C42.0367 28.7591 42.0308 28.8454 41.8937 29.3641C41.6641 30.2334 41.8497 30.4448 42.8429 30.4448C43.7102 30.4448 43.8441 30.2512 43.5152 29.4725C43.4446 29.3052 43.3625 29.1095 43.333 29.0375C42.9797 28.1774 43.0319 27.041 43.4248 27.041C43.5179 27.041 43.9417 27.4791 44.047 27.6841C44.09 27.7679 44.2849 28.0249 44.4801 28.2549C44.8938 28.7426 44.8948 28.7467 44.6424 28.9589C44.3512 29.2041 44.6163 29.2322 45.0453 29.0017C45.125 28.9588 45.1734 28.9706 45.214 29.0429C45.4053 29.3847 46.0381 29.1674 46.715 28.5271C47.1647 28.1019 47.1559 28.0334 46.581 27.4745C45.9856 26.8955 45.8064 26.4558 45.9451 25.9145C46.2276 24.8127 44.7581 22.8588 42.6827 21.5761L42.3956 21.3987L42.4399 20.8107C42.4644 20.4874 42.5093 20.1737 42.5399 20.1136C42.5705 20.0534 42.662 19.8647 42.7434 19.694C43.0377 19.0774 43.6035 18.6398 44.4953 18.3394C45.1435 18.1211 47.2287 18.1685 47.4828 18.4076C47.517 18.4397 47.5934 18.466 47.6528 18.466C47.7586 18.466 47.9219 18.5343 48.4905 18.8161C49.435 19.2839 50.7798 20.9181 51.0489 21.925C51.1134 22.166 51.2662 22.1962 51.2167 21.9581C50.5188 18.6064 48.0678 16.5486 44.6776 16.4676C43.6127 16.4421 43.5752 16.429 43.4788 16.0485C43.3964 15.7232 43.3162 15.7394 43.1498 16.1148ZM39.179 48.4734C39.4177 48.6405 41.6999 49.7268 42.217 49.9192C42.5108 50.0287 42.6746 50.093 42.9534 50.2089C43.0344 50.2424 43.2774 50.328 43.4934 50.3989C44.4115 50.7003 44.7738 50.8022 44.9268 50.8022C45.0162 50.8022 45.1052 50.8279 45.1245 50.8592C45.1438 50.8906 45.3003 50.9325 45.4721 50.9523C45.6437 50.9721 45.9757 51.0274 46.2097 51.0754C47.5012 51.3393 50.0652 51.1515 51.7406 50.6703C51.8846 50.6289 52.0834 50.5795 52.1824 50.5604C52.2814 50.5412 52.3624 50.4995 52.3624 50.4676C52.3624 50.4357 52.4343 50.4095 52.5221 50.4095C52.61 50.4095 52.7002 50.38 52.7224 50.344C52.7447 50.308 52.8218 50.2786 52.8938 50.2786C52.9658 50.2786 53.009 50.2532 52.9898 50.2223C52.9707 50.1912 52.7997 50.2095 52.6097 50.263C52.4197 50.3164 52.1612 50.373 52.0352 50.3889C51.9092 50.4046 51.7472 50.4424 51.6752 50.4727C51.6032 50.5031 51.2939 50.5596 50.9879 50.5983C50.6819 50.6371 50.2021 50.699 49.9216 50.7356C49.2828 50.8191 48.2364 50.8214 47.6623 50.7405C47.4215 50.7067 46.9739 50.6465 46.6679 50.6067C46.3619 50.5669 46.0085 50.5082 45.8825 50.4761C45.7565 50.444 45.5061 50.383 45.3261 50.3406C44.9756 50.2581 44.6217 50.1585 44.4097 50.0827C44.3377 50.057 44.1316 49.9843 43.9516 49.9213C43.7716 49.8583 43.4679 49.75 43.2766 49.6806C42.8691 49.5329 41.4067 48.83 40.9541 48.5644C40.5874 48.3492 38.8764 48.2615 39.179 48.4734Z" fill="white"/>
</g>
<defs>
<clipPath id="clip0">
<rect width="84" height="60" fill="white"/>
</clipPath>
</defs>
</svg>
