<svg width="60" height="82" viewBox="0 0 60 82" fill="none" xmlns="http://www.w3.org/2000/svg">
<path d="M7.458 77V63.914H9.132V75.506H15.54V77H7.458ZM17.5654 77V63.914H19.2394V75.506H25.6474V77H17.5654ZM29.6737 77L24.7597 63.914H26.5957L30.5377 74.84L34.4617 63.914H36.2437L31.3477 77H29.6737ZM37.8682 77V63.914H39.5782L44.5102 73.994L49.3342 63.914H51.0442V77H49.4242V66.956L45.1582 75.74H43.7542L39.4882 67.064V77H37.8682Z" fill="white"/>
<g clip-path="url(#clip0)">
<g filter="url(#filter0_i)">
<path fill-rule="evenodd" clip-rule="evenodd" d="M53.5515 7.42771C52.2453 8.1934 50.428 9.87419 48.7463 11.8716C47.9758 12.7867 47.8203 12.9239 47.726 12.7712C47.6715 12.683 47.3899 12.6884 47.2171 12.7809C46.7863 13.0114 46.6946 13.6457 47.036 14.0345C47.3356 14.3757 47.3626 14.6379 47.4047 17.6151C47.4475 20.6533 47.3729 22.0881 47.11 23.2772C47.0702 23.4572 47.0216 23.6928 47.002 23.8009C46.8026 24.896 46.4466 26.0132 46.2366 26.2014C46.1293 26.2976 46.008 26.4337 45.9673 26.5041C45.3213 27.6207 45.3388 27.5781 45.3378 28.0401C45.3373 28.2836 45.3108 28.534 45.2789 28.5965C45.247 28.659 45.0169 29.1218 44.7677 29.6248C44.3504 30.4664 44.2977 30.5427 44.1063 30.5818C43.9919 30.6052 43.8022 30.7194 43.6849 30.8355C43.2743 31.2415 42.5079 31.6894 42.0518 31.7895L41.8484 31.8342L41.898 31.5813C41.9252 31.4422 41.9713 31.1665 42.0003 30.9685C42.0292 30.7705 42.086 30.4023 42.1264 30.1503C42.9053 25.2856 42.2806 21.5625 40.2824 19.1623C39.7056 18.4695 39.4597 18.3053 39.6955 18.7706C39.883 19.1404 40.2315 20.1897 40.2315 20.3841C40.2315 20.4766 40.2589 20.624 40.2922 20.7119C40.5881 21.49 40.4693 24.7173 40.0749 26.6155C39.9301 27.3128 39.65 28.3521 39.5104 28.7102C39.4822 28.7822 39.4219 28.9442 39.3762 29.0702C39.2666 29.3728 39.1923 29.463 39.0524 29.463C38.9035 29.463 38.8274 29.6521 38.9563 29.7016C39.1787 29.787 38.8774 30.4448 38.6158 30.4448C38.4373 30.4448 38.4266 30.491 38.569 30.6484C38.7446 30.8425 38.4628 31.2735 38.1228 31.331C37.9326 31.363 37.8758 31.3994 37.9033 31.4714C37.9239 31.5247 37.9406 31.5807 37.9406 31.5957C37.9406 31.6108 37.9848 31.6231 38.0388 31.6231C38.3698 31.6231 37.9578 32.1917 37.5865 32.2475C37.1779 32.3087 37.0851 32.4344 37.3479 32.5704C37.5281 32.6635 37.5419 32.6907 37.4751 32.82C37.3128 33.134 37.2126 33.1941 36.8505 33.1941C36.4576 33.1941 36.4223 33.2527 36.6675 33.498C36.8333 33.6637 36.8515 33.7863 36.7168 33.8311C36.6783 33.8439 36.6065 33.8149 36.5573 33.7667C35.9803 33.1996 35.4958 33.063 34.9672 33.3178C34.1227 33.7253 32.3232 33.7059 30.6588 33.2718C30.5111 33.2333 30.3157 33.2306 30.1679 33.2649C30.0329 33.2962 29.8881 33.3225 29.8461 33.3233C29.784 33.3247 29.0858 32.874 28.2287 32.2795C27.1521 31.5326 25.4343 29.965 25.5575 29.8418C25.7951 29.6042 25.4421 29.162 24.4117 28.4063C23.7845 27.9463 23.4142 27.4066 22.6216 25.7973C21.5502 23.622 21.0367 21.8641 20.9456 20.0599C20.9099 19.3525 20.914 19.3226 21.0793 19.0794C21.7355 18.1135 20.7828 17.0546 19.7324 17.5822L19.4069 17.7457L18.9141 17.3695C16.2334 15.3227 13.1556 13.4389 11.3989 12.7697C11.3269 12.7422 11.1095 12.6578 10.9157 12.5819C10.7218 12.5059 10.4912 12.4439 10.403 12.4439H10.2428L10.379 12.6643C10.5574 12.9528 10.5538 13.096 10.368 13.1078C10.287 13.1129 10.1177 13.1247 9.99167 13.1338C9.86567 13.1432 9.43858 13.1695 9.04258 13.1926C7.58818 13.2775 6.26879 13.6166 4.97721 14.2378C3.378 15.0067 1.3571 16.6177 0.36318 17.9155C-0.0539272 18.4605 0.0714178 18.4223 0.64807 17.829C1.42681 17.0278 3.1908 15.6513 3.43888 15.6513C3.47897 15.6513 3.51169 15.6219 3.51169 15.5859C3.51169 15.5499 3.53984 15.5204 3.5742 15.5204C3.60857 15.5204 3.82211 15.4353 4.04875 15.3314C4.27538 15.2273 4.56387 15.1066 4.68987 15.0629C4.81587 15.0193 4.97787 14.9604 5.04987 14.9321C5.95641 14.5759 7.94458 14.6495 9.23894 15.0871C10.3412 15.4597 11.997 16.3432 11.9366 16.5264C11.9209 16.5736 11.5945 16.616 11.0337 16.6435C8.48114 16.7685 7.03002 17.5437 5.68968 19.4985C5.48334 19.7992 4.93172 20.9695 4.7568 21.4771C4.50382 22.2114 4.30369 22.9402 4.3392 22.9975C4.35785 23.028 4.39876 23.2211 4.43002 23.4268C4.46143 23.6325 4.52083 23.9776 4.56223 24.1936C4.60363 24.4096 4.66009 24.7189 4.68742 24.8809C4.76645 25.3463 4.95169 26.2071 5.01174 26.3864C5.04169 26.4764 5.10174 26.7121 5.14494 26.9101C5.36814 27.9339 6.39577 31.3446 6.6535 31.9176C6.6859 31.9896 6.75528 32.1811 6.80764 32.3431C6.90239 32.6357 7.07437 33.1072 7.17795 33.3577C7.20773 33.4297 7.41342 33.9599 7.63515 34.536C7.85687 35.112 8.08989 35.7011 8.15289 35.8451C8.21605 35.9891 8.3648 36.3573 8.48327 36.6633C8.73822 37.321 8.85211 37.5969 8.9966 37.907L9.10345 38.1361L9.14731 37.7434C9.25301 36.7993 9.37541 35.9732 9.53054 35.1578C9.56818 34.9598 9.62807 34.6358 9.66374 34.4378C9.69925 34.2398 9.75898 33.9452 9.79661 33.7832C9.83425 33.6212 9.88268 33.3628 9.90428 33.209C9.92588 33.0551 9.96908 32.9134 10.0003 32.8941C10.0316 32.8748 10.0571 32.7886 10.0571 32.7025C10.0571 32.6164 10.1041 32.375 10.1617 32.1664C10.3252 31.5722 10.3677 31.3899 10.5714 30.4121C11.3032 26.897 12.3969 24.4787 13.9834 22.8681C14.6278 22.214 14.6712 22.2052 14.4651 22.7699C14.3764 23.0129 14.2884 23.2706 14.2696 23.3426C14.2508 23.4147 14.2117 23.5325 14.1829 23.6045C14.0727 23.8789 13.7229 25.068 13.5952 25.6009C12.6237 29.6587 13.7422 31.7897 19.188 36.2573C19.3919 36.4246 20.9026 37.6267 21.5597 38.1445C22.2616 38.6976 22.2694 38.6953 22.3198 37.9398C22.4627 35.7981 23.0647 34.2232 24.028 33.4719C24.3474 33.2229 24.3626 33.2312 24.4165 33.6894C24.4981 34.3852 24.9111 35.0307 25.5996 35.5386C25.952 35.7985 26.7206 36.2051 26.8596 36.2051C26.9072 36.2051 26.9972 36.2323 27.0597 36.2655C27.1222 36.2987 27.5156 36.4905 27.9338 36.6918C29.2452 37.3228 30.1645 38.1152 30.6988 39.0748C30.8611 39.3666 30.8122 39.3954 30.0861 39.436C29.7441 39.4551 29.3584 39.4898 29.2288 39.513C28.9961 39.5549 28.7181 39.2123 28.7095 38.8732C28.7065 38.7563 28.5877 38.6238 28.2861 38.4008C28.1421 38.2942 27.9463 38.1248 27.8509 38.0244C27.4652 37.6182 25.8512 37.9856 25.4233 38.577C24.9892 39.1769 24.9321 39.8812 25.2916 40.2025C25.4475 40.3417 25.5043 40.4484 25.5043 40.6016C25.5043 40.7165 25.5313 40.9011 25.5642 41.0117C25.8216 41.8739 25.9312 42.185 26.1135 42.5703C26.347 43.0632 26.4521 43.1358 26.3991 42.7673C26.2703 41.8736 26.2111 41.2434 26.2471 41.1497C26.307 40.9935 26.4205 41.0906 26.4213 41.2984C26.4228 41.6499 27.4482 43.4323 27.5218 43.2113C27.5493 43.1286 27.4488 42.7332 27.3217 42.4236C27.197 42.1202 27.1759 40.5862 27.2994 40.8111C27.3562 40.9142 27.4025 41.0359 27.4025 41.0816C27.4025 41.2348 27.9173 42.1919 28.1243 42.4236C28.257 42.5722 28.313 42.6068 28.2837 42.5218C28.1328 42.0859 28.0976 41.8509 28.0747 41.1241C28.0457 40.2015 28.0703 40.1735 28.4586 40.6851C28.7451 41.0628 28.913 41.5237 28.9726 42.0963C28.997 42.3304 29.0389 42.5711 29.0657 42.6315C29.1374 42.7925 26.833 44.4679 25.6352 45.1256C25.4732 45.2146 25.1491 45.4047 24.9149 45.5484C22.4888 47.0356 18.9995 48.2494 17.1501 48.2494C14.7445 48.2494 13.5759 46.4005 15.0118 44.8664C15.8163 44.0069 18.052 43.9306 19.4326 44.7155C19.4951 44.751 19.5765 44.7801 19.6133 44.7801C19.6769 44.7801 19.8409 44.8488 20.6537 45.2167C21.0925 45.4152 23.279 45.655 23.5839 45.538C23.7263 45.4833 22.653 44.8583 21.1516 44.1218C18.1263 42.6374 15.9804 42.4269 14.2945 43.449C13.6744 43.8251 12.8717 44.733 12.8717 45.0585C12.8717 45.1069 12.8483 45.1747 12.8196 45.2089C12.4426 45.6589 12.509 47.0675 12.9502 47.9764C13.6654 49.4505 16.201 50.4403 18.3698 50.092C18.6038 50.0544 19.0014 49.9912 19.2534 49.9515C19.5054 49.9119 19.8 49.8534 19.908 49.8215C20.016 49.7898 20.2369 49.7284 20.3989 49.6852C21.4146 49.414 23.0986 48.7835 24.228 48.2512C25.4575 47.6717 27.6615 46.5413 28.3382 46.1429C28.5106 46.0415 28.6602 45.9584 28.6703 45.9584C28.6851 45.9584 29.8313 45.3349 30.2087 45.1218C30.2671 45.0886 30.3697 45.1416 30.5032 45.2738C30.6158 45.3853 30.8586 45.5254 31.0427 45.5849L31.3775 45.6934L31.9591 45.4601C32.6513 45.1822 32.7254 45.1496 33.6534 44.7155C34.0494 44.5301 34.5184 44.3509 34.6954 44.317C34.9026 44.2776 35.1873 44.1403 35.4938 43.9323C35.7559 43.7546 36.0768 43.5891 36.2071 43.5647L36.4437 43.5202L36.3413 43.7654C36.2269 44.0393 36.2033 44.5183 36.3043 44.5183C36.3403 44.5183 36.3697 44.4584 36.3697 44.3852C36.3697 44.1385 36.6873 43.6227 37.0277 43.3166C37.4903 42.9007 37.8123 42.8887 38.247 43.2713C38.4086 43.4135 38.6448 43.5642 38.7717 43.6061C39.1578 43.7334 39.0041 44.4779 38.4184 45.3195C38.0195 45.8926 38.1735 45.8769 38.8347 45.2766C39.0565 45.0755 39.3216 44.7783 39.4238 44.6165C39.5261 44.4546 39.6318 44.3221 39.6588 44.3221C39.7704 44.3217 39.6812 44.9714 39.5107 45.402C39.4822 45.474 39.3922 45.7096 39.3109 45.9256C39.2294 46.1416 39.134 46.3559 39.0988 46.4018C39.0635 46.4477 39.054 46.5044 39.0774 46.528C39.1419 46.5923 39.44 46.2812 39.8061 45.7679C39.9861 45.5154 40.1581 45.3077 40.1883 45.3062C40.2487 45.3036 40.2101 46.5463 40.1417 46.8093C40.1183 46.8993 40.1186 46.9288 40.1425 46.8748C40.1662 46.8208 40.2071 46.7619 40.2333 46.7439C40.6051 46.4881 40.9353 44.5275 40.7244 43.8269C40.6398 43.5457 40.6398 43.4896 40.7244 43.3605C40.9977 42.9435 40.6449 42.268 40.0352 42.04C39.9092 41.9931 39.7549 41.9275 39.6924 41.8946C39.6298 41.8615 39.4945 41.8345 39.3916 41.8345C39.2877 41.8345 39.1519 41.7764 39.0861 41.7036C39.021 41.6316 38.9133 41.5727 38.8468 41.5727C38.6523 41.5727 38.704 41.4488 39.0758 41.0235C39.7578 40.2431 40.2926 39.3121 40.3975 38.7225C40.4369 38.5006 40.754 37.8766 40.8782 37.7761C40.9006 37.7581 40.9911 37.6403 41.0795 37.5143C41.7321 36.5841 42.3118 36.068 43.1971 35.6296C44.2426 35.1117 44.4597 35.0187 45.2388 34.7564C45.9203 34.5268 45.9265 34.5222 46.417 33.8729C46.777 33.3963 47.3497 32.2549 47.5622 31.5903C47.6084 31.4463 47.6689 31.2696 47.6971 31.1976C47.8227 30.8752 48.0207 29.8557 48.0207 29.5317C48.0206 29.317 48.0441 29.1997 48.0797 29.2371C48.2997 29.4685 48.2991 34.7382 48.0788 35.8793C48.0404 36.0781 48.019 36.3228 48.0312 36.4229L48.0533 36.6051L48.3983 36.2989C49.2642 35.5301 50.902 32.7894 51.6227 30.903C51.7395 30.597 51.8585 30.2877 51.8868 30.2157C52.0033 29.9202 52.2799 28.9458 52.3978 28.4156C52.4338 28.2536 52.4811 28.0474 52.5027 27.9574C52.6205 27.4665 52.694 26.4738 52.6943 25.3718C52.6947 23.6955 52.6503 23.3587 52.2116 21.7062C51.9272 20.635 51.0346 18.8879 50.335 18.0338C49.9878 17.6097 50.0932 17.5552 50.6388 17.8769C50.8219 17.9849 50.9875 18.0733 51.0064 18.0733C51.1684 18.0733 52.5517 19.1275 53.0624 19.6402C54.1684 20.7504 55.0644 22.4418 55.5612 24.3572C55.594 24.4833 55.6485 24.6821 55.6825 24.7991C55.7164 24.9161 55.7717 25.1076 55.8051 25.2246C55.8988 25.5517 56.1407 26.4576 56.2027 26.7137C56.4753 27.8388 56.5458 28.1582 56.5748 28.3993C56.6285 28.845 56.7915 28.7678 56.7915 28.2967C56.7915 28.0872 56.8314 27.7706 56.8803 27.593C56.9291 27.4154 57.0196 26.9756 57.0813 26.6155C57.1431 26.2555 57.2226 25.8489 57.258 25.7121C57.3293 25.4365 57.4863 24.604 57.5812 23.9972C57.615 23.7812 57.6725 23.4277 57.7088 23.2117C57.9549 21.7491 58.1346 20.0666 58.2434 18.2042C58.3342 16.6519 58.3498 15.0698 58.2778 14.7246C58.1406 14.0678 56.6237 12.879 55.4496 12.5084C55.3056 12.4629 55.1289 12.4023 55.0569 12.3739C54.5542 12.1745 53.4319 12.0505 52.1115 12.0482L50.7369 12.0458L51.0082 11.8001C51.47 11.3822 53.1259 10.6212 54.1406 10.3607C56.4948 9.75637 58.0091 10.1966 59.2787 11.8541C59.9994 12.7949 60.0815 12.8008 59.4914 11.8694C59.0342 11.1477 58.923 11.0001 58.2969 10.2843C56.9425 8.73588 55.9023 8.1628 54.2878 8.07525C53.6351 8.0399 53.4803 7.93844 53.7077 7.69494C53.9349 7.45192 53.8264 7.26652 53.5515 7.42771ZM31.1498 16.1148C31.0688 16.2976 31.0025 16.499 31.0025 16.5627C31.0025 17.0073 30.6117 16.9294 30.5911 16.4809C30.5829 16.3051 30.5454 16.1757 30.5026 16.1755C30.427 16.175 30.1265 16.8466 30.0572 17.1713C29.9986 17.4455 29.7589 17.5477 29.7589 17.2983C29.7589 17.1935 29.7399 17.0129 29.7166 16.8967L29.6744 16.6857L29.5867 16.9376C29.5386 17.0762 29.4799 17.3316 29.4563 17.5051C29.4259 17.7298 29.3476 17.8995 29.1848 18.0942C28.4818 18.9354 28.0799 19.7443 27.8618 20.7571C27.7581 21.2385 27.7841 22.8797 27.9052 23.5063C28.0287 24.1443 28.0304 24.2808 27.9225 24.9235C27.7285 26.0801 27.9006 26.4329 29.0004 27.1341C29.7458 27.6092 29.8212 27.7079 29.9616 28.3926C30.0367 28.7591 30.0308 28.8454 29.8937 29.3641C29.6641 30.2334 29.8497 30.4448 30.8429 30.4448C31.7102 30.4448 31.8441 30.2512 31.5152 29.4725C31.4446 29.3052 31.3625 29.1095 31.333 29.0375C30.9797 28.1774 31.0319 27.041 31.4248 27.041C31.5179 27.041 31.9417 27.4791 32.047 27.6841C32.09 27.7679 32.2849 28.0249 32.4801 28.2549C32.8938 28.7426 32.8948 28.7467 32.6424 28.9589C32.3512 29.2041 32.6163 29.2322 33.0453 29.0017C33.125 28.9588 33.1734 28.9706 33.214 29.0429C33.4053 29.3847 34.0381 29.1674 34.715 28.5271C35.1647 28.1019 35.1559 28.0334 34.581 27.4745C33.9856 26.8955 33.8064 26.4558 33.9451 25.9145C34.2276 24.8127 32.7581 22.8588 30.6827 21.5761L30.3956 21.3987L30.4399 20.8107C30.4644 20.4874 30.5093 20.1737 30.5399 20.1136C30.5705 20.0534 30.662 19.8647 30.7434 19.694C31.0377 19.0774 31.6035 18.6398 32.4953 18.3394C33.1435 18.1211 35.2287 18.1685 35.4828 18.4076C35.517 18.4397 35.5934 18.466 35.6528 18.466C35.7586 18.466 35.9219 18.5343 36.4905 18.8161C37.435 19.2839 38.7798 20.9181 39.0489 21.925C39.1134 22.166 39.2662 22.1962 39.2167 21.9581C38.5188 18.6064 36.0678 16.5486 32.6776 16.4676C31.6127 16.4421 31.5752 16.429 31.4788 16.0485C31.3964 15.7232 31.3162 15.7394 31.1498 16.1148ZM27.179 48.4734C27.4177 48.6405 29.6999 49.7268 30.217 49.9192C30.5108 50.0287 30.6746 50.093 30.9534 50.2089C31.0344 50.2424 31.2774 50.328 31.4934 50.3989C32.4115 50.7003 32.7738 50.8022 32.9268 50.8022C33.0162 50.8022 33.1052 50.8279 33.1245 50.8592C33.1438 50.8906 33.3003 50.9325 33.4721 50.9523C33.6437 50.9721 33.9757 51.0274 34.2097 51.0754C35.5012 51.3393 38.0652 51.1515 39.7406 50.6703C39.8846 50.6289 40.0834 50.5795 40.1824 50.5604C40.2814 50.5412 40.3624 50.4995 40.3624 50.4676C40.3624 50.4357 40.4343 50.4095 40.5221 50.4095C40.61 50.4095 40.7002 50.38 40.7224 50.344C40.7447 50.308 40.8218 50.2786 40.8938 50.2786C40.9658 50.2786 41.009 50.2532 40.9898 50.2223C40.9707 50.1912 40.7997 50.2095 40.6097 50.263C40.4197 50.3164 40.1612 50.373 40.0352 50.3889C39.9092 50.4046 39.7472 50.4424 39.6752 50.4727C39.6032 50.5031 39.2939 50.5596 38.9879 50.5983C38.6819 50.6371 38.2021 50.699 37.9216 50.7356C37.2828 50.8191 36.2364 50.8214 35.6623 50.7405C35.4215 50.7067 34.9739 50.6465 34.6679 50.6067C34.3619 50.5669 34.0085 50.5082 33.8825 50.4761C33.7565 50.444 33.5061 50.383 33.3261 50.3406C32.9756 50.2581 32.6217 50.1585 32.4097 50.0827C32.3377 50.057 32.1316 49.9843 31.9516 49.9213C31.7716 49.8583 31.4679 49.75 31.2766 49.6806C30.8691 49.5329 29.4067 48.83 28.9541 48.5644C28.5874 48.3492 26.8764 48.2615 27.179 48.4734Z" fill="white"/>
</g>
</g>
<defs>
<filter id="filter0_i" x="0.117188" y="7.36719" width="60.7656" height="45.8281" filterUnits="userSpaceOnUse" color-interpolation-filters="sRGB">
<feFlood flood-opacity="0" result="BackgroundImageFix"/>
<feBlend mode="normal" in="SourceGraphic" in2="BackgroundImageFix" result="shape"/>
<feColorMatrix in="SourceAlpha" type="matrix" values="0 0 0 0 0 0 0 0 0 0 0 0 0 0 0 0 0 0 127 0" result="hardAlpha"/>
<feOffset dx="1" dy="2"/>
<feGaussianBlur stdDeviation="2"/>
<feComposite in2="hardAlpha" operator="arithmetic" k2="-1" k3="1"/>
<feColorMatrix type="matrix" values="0 0 0 0 0 0 0 0 0 0 0 0 0 0 0 0 0 0 0.1 0"/>
<feBlend mode="normal" in2="shape" result="effect1_innerShadow"/>
</filter>
<clipPath id="clip0">
<rect width="60" height="60" fill="white"/>
</clipPath>
</defs>
</svg>
