<svg width="60" height="82" viewBox="0 0 60 82" fill="none" xmlns="http://www.w3.org/2000/svg">
<path d="M29.6906 5.00218C27.6296 5.01166 25.6618 5.18572 23.9313 5.48931C18.8284 6.38208 17.9022 8.25001 17.9022 11.6964V16.2471H29.9558V17.7637H17.9022H13.3793C9.87611 17.7637 6.80628 19.8494 5.84865 23.815C4.74175 28.3613 4.69275 31.2021 5.84865 35.9487C6.70558 39.4833 8.75212 42 12.2554 42H16.4002V36.5454C16.4002 32.6047 19.8427 29.1271 23.9308 29.1271H35.971C39.3227 29.1271 42 26.394 42 23.0625V11.6946C42 8.45929 39.244 6.03076 35.971 5.48753C33.9001 5.14614 31.7515 4.99105 29.6901 5.0004L29.6906 5.00218ZM23.1715 8.66189C24.4169 8.66189 25.4334 9.68557 25.4334 10.9439C25.4334 12.1978 24.4164 13.2121 23.1715 13.2121C21.9221 13.2121 20.9096 12.1983 20.9096 10.9439C20.9096 9.68557 21.9221 8.66189 23.1715 8.66189V8.66189Z" fill="white"/>
<path d="M43.5445 18V23.2633C43.5445 27.3427 40.0336 30.7761 36.0301 30.7761H24.016C20.7249 30.7761 18 33.5505 18 36.7951V48.0774C18 51.2884 20.8348 53.1772 24.016 54.0964C27.8235 55.1995 31.4766 55.3988 36.0301 54.0964C39.0583 53.2329 42.0461 51.4944 42.0461 48.0774V43.5609H30.032V42.0557H42.0461H48.0621C51.5578 42.0557 52.8624 39.6539 54.0781 36.05C55.3338 32.3383 55.2804 28.7671 54.0781 24.0075C53.2141 20.5795 51.5641 18.0018 48.0621 18.0018H43.549L43.5445 18ZM36.7883 46.5749C38.035 46.5749 39.0453 47.5811 39.0453 48.826C39.0453 50.0749 38.035 51.0909 36.7883 51.0909C35.5456 51.0909 34.5313 50.0749 34.5313 48.826C34.5313 47.5816 35.546 46.5749 36.7883 46.5749Z" fill="white"/>
<path d="M1.458 77V63.914H5.742C8.778 63.914 10.296 65.3 10.296 68.072C10.296 70.844 8.778 72.23 5.742 72.23H3.114V77H1.458ZM5.4 65.246H3.114V70.898H5.4C6.528 70.898 7.344 70.67 7.848 70.214C8.364 69.758 8.622 69.044 8.622 68.072C8.622 67.1 8.364 66.386 7.848 65.93C7.344 65.474 6.528 65.246 5.4 65.246ZM14.4997 76.91L11.0977 67.604H12.7897L15.7417 76.01L18.3157 67.604H19.9537L16.9477 76.802C16.6597 77.69 16.3417 78.41 15.9937 78.962C15.6577 79.514 15.2497 79.94 14.7697 80.24C14.2897 80.54 13.6897 80.774 12.9697 80.942L12.5737 79.592C13.0537 79.46 13.4617 79.292 13.7977 79.088C14.1337 78.896 14.4217 78.638 14.6617 78.314C14.9137 77.99 15.1357 77.564 15.3277 77.036L15.3817 76.91H14.4997ZM22.2048 74.138V68.936H20.5848V68.108L22.2048 67.568L22.8528 65.012H23.8248V67.604H25.8588V68.936H23.8248V74.12C23.8248 75.152 24.2688 75.668 25.1568 75.668C25.3008 75.668 25.4388 75.662 25.5708 75.65C25.7148 75.626 25.8468 75.608 25.9668 75.596V77C25.7988 77.036 25.6248 77.06 25.4448 77.072C25.2768 77.084 25.0968 77.09 24.9048 77.09C23.9808 77.09 23.2968 76.85 22.8528 76.37C22.4208 75.89 22.2048 75.146 22.2048 74.138ZM27.9809 77V63.482H29.6009V68.972C29.9729 68.48 30.4229 68.096 30.9509 67.82C31.4909 67.544 32.0969 67.406 32.7689 67.406C33.8489 67.406 34.6769 67.73 35.2529 68.378C35.8289 69.026 36.1169 69.962 36.1169 71.186V77H34.4969V71.24C34.4969 69.608 33.7889 68.792 32.3729 68.792C31.7729 68.792 31.2209 68.978 30.7169 69.35C30.2249 69.71 29.8529 70.202 29.6009 70.826V77H27.9809ZM42.5911 77.198C41.1751 77.198 40.0771 76.766 39.2971 75.902C38.5171 75.026 38.1271 73.826 38.1271 72.302C38.1271 70.766 38.5171 69.566 39.2971 68.702C40.0771 67.838 41.1751 67.406 42.5911 67.406C44.0191 67.406 45.1231 67.838 45.9031 68.702C46.6831 69.566 47.0731 70.766 47.0731 72.302C47.0731 73.826 46.6831 75.026 45.9031 75.902C45.1231 76.766 44.0191 77.198 42.5911 77.198ZM42.5911 75.866C43.5151 75.866 44.2171 75.566 44.6971 74.966C45.1771 74.354 45.4171 73.466 45.4171 72.302C45.4171 71.138 45.1771 70.256 44.6971 69.656C44.2171 69.044 43.5151 68.738 42.5911 68.738C41.6791 68.738 40.9831 69.044 40.5031 69.656C40.0231 70.256 39.7831 71.138 39.7831 72.302C39.7831 73.466 40.0231 74.354 40.5031 74.966C40.9831 75.566 41.6791 75.866 42.5911 75.866ZM49.1801 77V67.604H50.2781L50.5661 69.206C50.9621 68.63 51.4481 68.186 52.0241 67.874C52.6001 67.562 53.2481 67.406 53.9681 67.406C55.0481 67.406 55.8761 67.73 56.4521 68.378C57.0281 69.026 57.3161 69.962 57.3161 71.186V77H55.6961V71.24C55.6961 69.608 54.9881 68.792 53.5721 68.792C52.9721 68.792 52.4201 68.978 51.9161 69.35C51.4241 69.71 51.0521 70.202 50.8001 70.826V77H49.1801Z" fill="white"/>
</svg>
