<svg width="84" height="82" viewBox="0 0 84 82" fill="none" xmlns="http://www.w3.org/2000/svg">
<path d="M41.6906 5.00218C39.6296 5.01166 37.6618 5.18572 35.9313 5.48931C30.8284 6.38208 29.9022 8.25001 29.9022 11.6964V16.2471H41.9558V17.7637H29.9022H25.3793C21.8761 17.7637 18.8063 19.8494 17.8487 23.815C16.7418 28.3613 16.6927 31.2021 17.8487 35.9487C18.7056 39.4833 20.7521 42 24.2554 42H28.4002V36.5454C28.4002 32.6047 31.8427 29.1271 35.9308 29.1271H47.971C51.3227 29.1271 54 26.394 54 23.0625V11.6946C54 8.45929 51.244 6.03076 47.971 5.48753C45.9001 5.14614 43.7515 4.99105 41.6901 5.0004L41.6906 5.00218ZM35.1715 8.66189C36.4169 8.66189 37.4334 9.68557 37.4334 10.9439C37.4334 12.1978 36.4164 13.2121 35.1715 13.2121C33.9221 13.2121 32.9096 12.1983 32.9096 10.9439C32.9096 9.68557 33.9221 8.66189 35.1715 8.66189V8.66189Z" fill="white"/>
<path d="M55.5445 18V23.2633C55.5445 27.3427 52.0336 30.7761 48.0301 30.7761H36.016C32.7249 30.7761 30 33.5505 30 36.7951V48.0774C30 51.2884 32.8348 53.1772 36.016 54.0964C39.8235 55.1995 43.4766 55.3988 48.0301 54.0964C51.0583 53.2329 54.0461 51.4944 54.0461 48.0774V43.5609H42.032V42.0557H54.0461H60.0621C63.5578 42.0557 64.8624 39.6539 66.0781 36.05C67.3338 32.3383 67.2804 28.7671 66.0781 24.0075C65.2141 20.5795 63.5641 18.0018 60.0621 18.0018H55.549L55.5445 18ZM48.7883 46.5749C50.035 46.5749 51.0453 47.5811 51.0453 48.826C51.0453 50.0749 50.035 51.0909 48.7883 51.0909C47.5456 51.0909 46.5313 50.0749 46.5313 48.826C46.5313 47.5816 47.546 46.5749 48.7883 46.5749Z" fill="white"/>
<path d="M14.458 77V63.914H18.742C21.778 63.914 23.296 65.3 23.296 68.072C23.296 70.844 21.778 72.23 18.742 72.23H16.114V77H14.458ZM18.4 65.246H16.114V70.898H18.4C19.528 70.898 20.344 70.67 20.848 70.214C21.364 69.758 21.622 69.044 21.622 68.072C21.622 67.1 21.364 66.386 20.848 65.93C20.344 65.474 19.528 65.246 18.4 65.246ZM27.4997 76.91L24.0977 67.604H25.7897L28.7417 76.01L31.3157 67.604H32.9537L29.9477 76.802C29.6597 77.69 29.3417 78.41 28.9937 78.962C28.6577 79.514 28.2497 79.94 27.7697 80.24C27.2897 80.54 26.6897 80.774 25.9697 80.942L25.5737 79.592C26.0537 79.46 26.4617 79.292 26.7977 79.088C27.1337 78.896 27.4217 78.638 27.6617 78.314C27.9137 77.99 28.1357 77.564 28.3277 77.036L28.3817 76.91H27.4997ZM35.2048 74.138V68.936H33.5848V68.108L35.2048 67.568L35.8528 65.012H36.8248V67.604H38.8588V68.936H36.8248V74.12C36.8248 75.152 37.2688 75.668 38.1568 75.668C38.3008 75.668 38.4388 75.662 38.5708 75.65C38.7148 75.626 38.8468 75.608 38.9668 75.596V77C38.7988 77.036 38.6248 77.06 38.4448 77.072C38.2768 77.084 38.0968 77.09 37.9048 77.09C36.9808 77.09 36.2968 76.85 35.8528 76.37C35.4208 75.89 35.2048 75.146 35.2048 74.138ZM40.9809 77V63.482H42.6009V68.972C42.9729 68.48 43.4229 68.096 43.9509 67.82C44.4909 67.544 45.0969 67.406 45.7689 67.406C46.8489 67.406 47.6769 67.73 48.2529 68.378C48.8289 69.026 49.1169 69.962 49.1169 71.186V77H47.4969V71.24C47.4969 69.608 46.7889 68.792 45.3729 68.792C44.7729 68.792 44.2209 68.978 43.7169 69.35C43.2249 69.71 42.8529 70.202 42.6009 70.826V77H40.9809ZM55.5911 77.198C54.1751 77.198 53.0771 76.766 52.2971 75.902C51.5171 75.026 51.1271 73.826 51.1271 72.302C51.1271 70.766 51.5171 69.566 52.2971 68.702C53.0771 67.838 54.1751 67.406 55.5911 67.406C57.0191 67.406 58.1231 67.838 58.9031 68.702C59.6831 69.566 60.0731 70.766 60.0731 72.302C60.0731 73.826 59.6831 75.026 58.9031 75.902C58.1231 76.766 57.0191 77.198 55.5911 77.198ZM55.5911 75.866C56.5151 75.866 57.2171 75.566 57.6971 74.966C58.1771 74.354 58.4171 73.466 58.4171 72.302C58.4171 71.138 58.1771 70.256 57.6971 69.656C57.2171 69.044 56.5151 68.738 55.5911 68.738C54.6791 68.738 53.9831 69.044 53.5031 69.656C53.0231 70.256 52.7831 71.138 52.7831 72.302C52.7831 73.466 53.0231 74.354 53.5031 74.966C53.9831 75.566 54.6791 75.866 55.5911 75.866ZM62.1801 77V67.604H63.2781L63.5661 69.206C63.9621 68.63 64.4481 68.186 65.0241 67.874C65.6001 67.562 66.2481 67.406 66.9681 67.406C68.0481 67.406 68.8761 67.73 69.4521 68.378C70.0281 69.026 70.3161 69.962 70.3161 71.186V77H68.6961V71.24C68.6961 69.608 67.9881 68.792 66.5721 68.792C65.9721 68.792 65.4201 68.978 64.9161 69.35C64.4241 69.71 64.0521 70.202 63.8001 70.826V77H62.1801Z" fill="white"/>
</svg>
