<svg width="60" height="82" viewBox="0 0 60 82" fill="none" xmlns="http://www.w3.org/2000/svg">
<path d="M1.458 77V63.914H5.742C8.778 63.914 10.296 65.3 10.296 68.072C10.296 70.844 8.778 72.23 5.742 72.23H3.114V77H1.458ZM5.4 65.246H3.114V70.898H5.4C6.528 70.898 7.344 70.67 7.848 70.214C8.364 69.758 8.622 69.044 8.622 68.072C8.622 67.1 8.364 66.386 7.848 65.93C7.344 65.474 6.528 65.246 5.4 65.246ZM14.4997 76.91L11.0977 67.604H12.7897L15.7417 76.01L18.3157 67.604H19.9537L16.9477 76.802C16.6597 77.69 16.3417 78.41 15.9937 78.962C15.6577 79.514 15.2497 79.94 14.7697 80.24C14.2897 80.54 13.6897 80.774 12.9697 80.942L12.5737 79.592C13.0537 79.46 13.4617 79.292 13.7977 79.088C14.1337 78.896 14.4217 78.638 14.6617 78.314C14.9137 77.99 15.1357 77.564 15.3277 77.036L15.3817 76.91H14.4997ZM22.2048 74.138V68.936H20.5848V68.108L22.2048 67.568L22.8528 65.012H23.8248V67.604H25.8588V68.936H23.8248V74.12C23.8248 75.152 24.2688 75.668 25.1568 75.668C25.3008 75.668 25.4388 75.662 25.5708 75.65C25.7148 75.626 25.8468 75.608 25.9668 75.596V77C25.7988 77.036 25.6248 77.06 25.4448 77.072C25.2768 77.084 25.0968 77.09 24.9048 77.09C23.9808 77.09 23.2968 76.85 22.8528 76.37C22.4208 75.89 22.2048 75.146 22.2048 74.138ZM27.9809 77V63.482H29.6009V68.972C29.9729 68.48 30.4229 68.096 30.9509 67.82C31.4909 67.544 32.0969 67.406 32.7689 67.406C33.8489 67.406 34.6769 67.73 35.2529 68.378C35.8289 69.026 36.1169 69.962 36.1169 71.186V77H34.4969V71.24C34.4969 69.608 33.7889 68.792 32.3729 68.792C31.7729 68.792 31.2209 68.978 30.7169 69.35C30.2249 69.71 29.8529 70.202 29.6009 70.826V77H27.9809ZM42.5911 77.198C41.1751 77.198 40.0771 76.766 39.2971 75.902C38.5171 75.026 38.1271 73.826 38.1271 72.302C38.1271 70.766 38.5171 69.566 39.2971 68.702C40.0771 67.838 41.1751 67.406 42.5911 67.406C44.0191 67.406 45.1231 67.838 45.9031 68.702C46.6831 69.566 47.0731 70.766 47.0731 72.302C47.0731 73.826 46.6831 75.026 45.9031 75.902C45.1231 76.766 44.0191 77.198 42.5911 77.198ZM42.5911 75.866C43.5151 75.866 44.2171 75.566 44.6971 74.966C45.1771 74.354 45.4171 73.466 45.4171 72.302C45.4171 71.138 45.1771 70.256 44.6971 69.656C44.2171 69.044 43.5151 68.738 42.5911 68.738C41.6791 68.738 40.9831 69.044 40.5031 69.656C40.0231 70.256 39.7831 71.138 39.7831 72.302C39.7831 73.466 40.0231 74.354 40.5031 74.966C40.9831 75.566 41.6791 75.866 42.5911 75.866ZM49.1801 77V67.604H50.2781L50.5661 69.206C50.9621 68.63 51.4481 68.186 52.0241 67.874C52.6001 67.562 53.2481 67.406 53.9681 67.406C55.0481 67.406 55.8761 67.73 56.4521 68.378C57.0281 69.026 57.3161 69.962 57.3161 71.186V77H55.6961V71.24C55.6961 69.608 54.9881 68.792 53.5721 68.792C52.9721 68.792 52.4201 68.978 51.9161 69.35C51.4241 69.71 51.0521 70.202 50.8001 70.826V77H49.1801Z" fill="white"/>
<g filter="url(#filter0_i)">
<g filter="url(#filter1_b)">
<path d="M30.0226 7.00037C28.1845 7.00882 26.4292 7.16407 24.8847 7.43473C20.3349 8.2308 19.5088 9.89702 19.5088 12.9698V17.0281H30.2607V18.3808H19.5088H15.4737C12.3489 18.3808 9.61274 20.2409 8.75691 23.7794C7.76971 27.8354 7.72592 30.3663 8.75691 34.6014C9.52119 37.7538 11.3464 40 14.4712 40H18.1679V35.1351C18.1679 31.6204 21.2385 28.5202 24.8847 28.5202H35.6241C38.6135 28.5202 41 26.0825 41 23.1092V12.9698C41 10.0841 38.5419 7.91635 35.6241 7.43473C33.777 7.13024 31.8606 6.99191 30.0226 7.00037ZM24.208 10.2643C25.3186 10.2643 26.2256 11.1772 26.2256 12.2997C26.2256 13.4181 25.3186 14.3226 24.208 14.3226C23.0934 14.3226 22.1905 13.4181 22.1905 12.2997C22.1905 11.1772 23.0934 10.2643 24.208 10.2643Z" fill="white"/>
</g>
<g filter="url(#filter2_b)">
<path d="M42.7857 18V22.8346C42.7857 26.5829 39.6539 29.7376 36.0825 29.7376H25.365C22.4293 29.7376 20 32.2871 20 35.2702V45.6373C20 48.5879 22.5286 50.3234 25.365 51.1699C28.7615 52.1832 32.0186 52.3664 36.0825 51.1699C38.7839 50.3763 41.4476 48.7792 41.4476 45.6373V41.4879H30.73V40.1048H41.4476H46.8126C49.931 40.1048 51.0931 37.8977 52.1776 34.5849C53.2978 31.1745 53.2502 27.8948 52.1776 23.5199C51.4069 20.3699 49.935 18 46.8126 18H42.7857ZM36.7579 44.2542C37.8702 44.2542 38.7713 45.179 38.7713 46.3226C38.7713 47.4702 37.8702 48.4036 36.7579 48.4036C35.6495 48.4036 34.7444 47.4702 34.7444 46.3226C34.7444 45.179 35.6495 44.2542 36.7579 44.2542Z" fill="white"/>
</g>
</g>
<defs>
<filter id="filter0_i" x="8" y="7" width="46" height="47" filterUnits="userSpaceOnUse" color-interpolation-filters="sRGB">
<feFlood flood-opacity="0" result="BackgroundImageFix"/>
<feBlend mode="normal" in="SourceGraphic" in2="BackgroundImageFix" result="shape"/>
<feColorMatrix in="SourceAlpha" type="matrix" values="0 0 0 0 0 0 0 0 0 0 0 0 0 0 0 0 0 0 127 0" result="hardAlpha"/>
<feOffset dx="1" dy="2"/>
<feGaussianBlur stdDeviation="2"/>
<feComposite in2="hardAlpha" operator="arithmetic" k2="-1" k3="1"/>
<feColorMatrix type="matrix" values="0 0 0 0 0 0 0 0 0 0 0 0 0 0 0 0 0 0 0.15 0"/>
<feBlend mode="normal" in2="shape" result="effect1_innerShadow"/>
</filter>
<filter id="filter1_b" x="0" y="-1" width="49" height="49" filterUnits="userSpaceOnUse" color-interpolation-filters="sRGB">
<feFlood flood-opacity="0" result="BackgroundImageFix"/>
<feGaussianBlur in="BackgroundImage" stdDeviation="4"/>
<feComposite in2="SourceAlpha" operator="in" result="effect1_backgroundBlur"/>
<feBlend mode="normal" in="SourceGraphic" in2="effect1_backgroundBlur" result="shape"/>
</filter>
<filter id="filter2_b" x="12" y="10" width="49" height="50" filterUnits="userSpaceOnUse" color-interpolation-filters="sRGB">
<feFlood flood-opacity="0" result="BackgroundImageFix"/>
<feGaussianBlur in="BackgroundImage" stdDeviation="4"/>
<feComposite in2="SourceAlpha" operator="in" result="effect1_backgroundBlur"/>
<feBlend mode="normal" in="SourceGraphic" in2="effect1_backgroundBlur" result="shape"/>
</filter>
</defs>
</svg>
