<svg width="60" height="82" viewBox="0 0 60 82" fill="none" xmlns="http://www.w3.org/2000/svg">
<path d="M25.458 77V63.914H29.904C32.94 63.914 34.458 65.198 34.458 67.766C34.458 69.77 33.438 71.006 31.398 71.474L35.034 77H33.126L29.814 71.816L27.114 71.384V77H25.458ZM27.114 70.268H29.112C30.456 70.268 31.404 70.082 31.956 69.71C32.508 69.326 32.784 68.678 32.784 67.766C32.784 67.142 32.67 66.65 32.442 66.29C32.214 65.918 31.83 65.654 31.29 65.498C30.762 65.33 30.036 65.246 29.112 65.246H27.114V70.268Z" fill="white"/>
<g filter="url(#filter0_i)">
<path fill-rule="evenodd" clip-rule="evenodd" d="M28.1993 8.18379C28.1993 8.21208 27.91 8.22891 27.4213 8.22891C26.9903 8.22891 26.6242 8.24791 26.6004 8.27155C26.577 8.29505 26.3301 8.31768 26.0517 8.32188C25.7734 8.32594 25.5458 8.34727 25.5458 8.36917C25.5458 8.39093 25.3649 8.40891 25.1437 8.40891C24.9226 8.40891 24.7291 8.42922 24.7137 8.45388C24.6985 8.47868 24.5607 8.49899 24.4076 8.49913C24.2486 8.49942 24.0738 8.52829 24.0002 8.56673C23.9253 8.60589 23.7515 8.63388 23.5842 8.63388C23.4228 8.63388 23.297 8.65361 23.297 8.679C23.297 8.70438 23.1696 8.72396 23.0047 8.72396C22.8399 8.72396 22.7123 8.74354 22.7123 8.76893C22.7123 8.79373 22.6112 8.81404 22.4875 8.81404C22.3638 8.81404 22.2626 8.8342 22.2626 8.859C22.2626 8.88395 22.1436 8.90397 21.9955 8.90397C21.8485 8.90397 21.7158 8.92428 21.7004 8.94908C21.6852 8.97374 21.5839 8.99404 21.4756 8.99404C21.3672 8.99404 21.2659 9.01435 21.2507 9.03901C21.2353 9.06381 21.1443 9.08412 21.0484 9.08412C20.9523 9.08412 20.8613 9.10428 20.8459 9.12909C20.8307 9.15389 20.7294 9.17405 20.6211 9.17405C20.5127 9.17405 20.4114 9.19436 20.3962 9.21916C20.3808 9.24382 20.2886 9.26413 20.1911 9.26413C20.0937 9.26413 20.0138 9.28443 20.0138 9.30909C20.0138 9.3339 19.943 9.3542 19.8564 9.3542C19.7699 9.3542 19.6991 9.37437 19.6991 9.39917C19.6991 9.42397 19.618 9.44413 19.5192 9.44413C19.4202 9.44413 19.3392 9.46444 19.3392 9.4891C19.3392 9.5139 19.2583 9.53421 19.1593 9.53421C19.0603 9.53421 18.9795 9.55437 18.9795 9.57918C18.9795 9.60398 18.9202 9.62414 18.8477 9.62414C18.7753 9.62414 18.6857 9.6546 18.6486 9.69173C18.6115 9.72887 18.5189 9.75918 18.4429 9.75918C18.367 9.75918 18.3048 9.77731 18.3048 9.79936C18.3048 9.82141 18.2289 9.85231 18.1361 9.86812C17.7257 9.93817 17.6752 9.95137 17.6752 9.98923C17.6752 10.0113 17.6157 10.0293 17.5429 10.0293C17.4701 10.0293 17.3981 10.0496 17.3829 10.0744C17.3675 10.099 17.2955 10.1193 17.2227 10.1193C17.15 10.1193 17.0906 10.1396 17.0906 10.1643C17.0906 10.1891 17.0298 10.2094 16.9556 10.2094C16.8814 10.2094 16.8207 10.2296 16.8207 10.2544C16.8207 10.2792 16.76 10.2993 16.6858 10.2993C16.6116 10.2993 16.5508 10.3197 16.5508 10.3445C16.5508 10.3691 16.4901 10.3894 16.4159 10.3894C16.3417 10.3894 16.281 10.4097 16.281 10.4344C16.281 10.4592 16.2315 10.4794 16.1711 10.4794C16.1108 10.4794 16.0489 10.4997 16.0336 10.5245C16.0184 10.5491 15.9563 10.5694 15.896 10.5694C15.8356 10.5694 15.7862 10.5852 15.7862 10.6047C15.7862 10.624 15.6934 10.6672 15.5801 10.7007C15.4667 10.7342 15.3634 10.7893 15.3504 10.8231C15.3367 10.8585 15.2612 10.8845 15.1717 10.8845C15.0795 10.8845 15.0276 10.9029 15.0441 10.9296C15.0599 10.9551 15.0221 10.9746 14.9569 10.9746C14.8935 10.9746 14.8418 10.9949 14.8418 11.0195C14.8418 11.0443 14.7924 11.0646 14.7319 11.0646C14.6716 11.0646 14.6096 11.0848 14.5944 11.1096C14.579 11.1344 14.5273 11.1546 14.4793 11.1546C14.4313 11.1546 14.3919 11.1749 14.3919 11.1997C14.3919 11.2243 14.3526 11.2446 14.3047 11.2446C14.2567 11.2446 14.205 11.2649 14.1896 11.2896C14.1744 11.3144 14.1137 11.3347 14.0547 11.3347C13.9958 11.3347 13.9351 11.3549 13.9197 11.3797C13.9045 11.4045 13.8526 11.4246 13.8047 11.4246C13.7567 11.4246 13.7174 11.445 13.7174 11.4696C13.7174 11.4944 13.6768 11.5147 13.6274 11.5147C13.578 11.5147 13.5374 11.5349 13.5374 11.5597C13.5374 11.5845 13.497 11.6047 13.4475 11.6047C13.398 11.6047 13.3575 11.625 13.3575 11.6498C13.3575 11.6744 13.3171 11.6947 13.2677 11.6947C13.2181 11.6947 13.1777 11.715 13.1777 11.7397C13.1777 11.7645 13.1504 11.7848 13.1171 11.7848C13.0542 11.7848 12.7672 11.9154 12.728 11.9619C12.7155 11.9766 12.6042 12.0389 12.4806 12.1004C12.3569 12.1621 12.249 12.2275 12.2407 12.2461C12.2324 12.2646 12.1869 12.2799 12.1395 12.2799C12.0921 12.2799 12.0533 12.3002 12.0533 12.325C12.0533 12.3496 12.0129 12.3699 11.9633 12.3699C11.9139 12.3699 11.8734 12.3901 11.8734 12.4149C11.8734 12.4397 11.8459 12.4599 11.8123 12.4599C11.726 12.4599 11.1988 12.7372 11.1988 12.7826C11.1988 12.8032 11.1583 12.82 11.1088 12.82C11.0594 12.82 11.0189 12.8403 11.0189 12.865C11.0189 12.8898 10.9907 12.9101 10.9562 12.9101C10.9217 12.9101 10.8457 12.9603 10.7875 13.0218C10.7292 13.0833 10.6461 13.1339 10.6028 13.1344C10.5595 13.1348 10.5241 13.1554 10.5241 13.1802C10.5241 13.2048 10.4882 13.2252 10.4441 13.2252C10.4001 13.2252 10.335 13.2656 10.2993 13.3152C10.2635 13.3647 10.1985 13.4052 10.1544 13.4052C10.1103 13.4052 10.0744 13.424 10.0744 13.4472C10.0744 13.4703 10.034 13.5019 9.98468 13.5176C9.9354 13.5332 9.8667 13.5744 9.83206 13.6091C9.79757 13.6438 9.7425 13.6779 9.70989 13.685C9.67728 13.6919 9.61409 13.7299 9.56945 13.7694C9.52481 13.8087 9.43321 13.8695 9.36582 13.9044C9.23625 13.9716 9.09334 14.083 8.9229 14.2492C8.8658 14.3049 8.79536 14.3505 8.76623 14.3505C8.7371 14.3505 8.68043 14.386 8.64043 14.4295C8.60043 14.473 8.51072 14.5379 8.44115 14.5737C8.37144 14.6095 8.25535 14.6955 8.18288 14.7647C8.11056 14.8339 8.03085 14.8906 8.00592 14.8906C7.98099 14.8906 7.96055 14.9108 7.96055 14.9356C7.96055 14.9604 7.93968 14.9805 7.91403 14.9805C7.88852 14.9805 7.79751 15.0464 7.712 15.1269C7.29792 15.5159 7.24154 15.5657 7.21531 15.5657C7.1998 15.5657 7.13038 15.6265 7.0611 15.7007C6.99168 15.775 6.91661 15.8358 6.894 15.8358C6.84733 15.8358 6.25151 16.3993 6.25151 16.4435C6.25151 16.4796 6.13223 16.601 6.09673 16.601C6.06354 16.601 5.21713 17.4464 5.21713 17.4796C5.21713 17.4933 5.15133 17.5714 5.0709 17.6535C4.86306 17.8656 4.5274 18.2596 4.47856 18.3486C4.4558 18.3901 4.40015 18.4567 4.35493 18.4969C4.30957 18.5369 4.27261 18.585 4.27261 18.604C4.27261 18.623 4.23072 18.6748 4.17971 18.7191C4.12855 18.7635 4.09318 18.8134 4.10101 18.83C4.11478 18.8596 4.04535 18.9488 3.74419 19.2893C3.66375 19.3801 3.59795 19.4807 3.59795 19.5131C3.59795 19.5454 3.58157 19.5718 3.56143 19.5718C3.54128 19.5718 3.49708 19.6426 3.46302 19.7293C3.4291 19.8159 3.38722 19.8869 3.37012 19.8869C3.35301 19.8869 3.31388 19.9476 3.28316 20.0219C3.25243 20.0962 3.20953 20.157 3.18779 20.157C3.16605 20.157 3.14822 20.1974 3.14822 20.247C3.14822 20.2965 3.12793 20.337 3.1033 20.337C3.07851 20.337 3.05822 20.3674 3.05822 20.4045C3.05822 20.4417 3.03808 20.472 3.01329 20.472C2.98851 20.472 2.96836 20.5025 2.96836 20.5396C2.96836 20.5767 2.94807 20.607 2.92329 20.607C2.89865 20.607 2.87836 20.6475 2.87836 20.6971C2.87836 20.7466 2.85807 20.787 2.83343 20.787C2.80865 20.787 2.78836 20.8377 2.78836 20.8996C2.78836 20.9697 2.76299 21.0122 2.72096 21.0122C2.68343 21.0122 2.65343 21.0522 2.65343 21.1022C2.65343 21.1517 2.63328 21.1922 2.6085 21.1922C2.58371 21.1922 2.56357 21.2326 2.56357 21.2822C2.56357 21.3317 2.54328 21.3722 2.51849 21.3722C2.49386 21.3722 2.47356 21.4128 2.47356 21.4623C2.47356 21.5117 2.45342 21.5523 2.42864 21.5523C2.40385 21.5523 2.38371 21.5928 2.38371 21.6423C2.38371 21.6919 2.36342 21.7323 2.33863 21.7323C2.31399 21.7323 2.2937 21.7716 2.2937 21.8197C2.2937 21.8678 2.27341 21.9196 2.24877 21.9348C2.22399 21.9502 2.2037 22.002 2.2037 22.0501C2.2037 22.0982 2.18718 22.1375 2.16689 22.1375C2.1466 22.1375 2.10254 22.2387 2.06877 22.3624C2.03514 22.4863 1.99094 22.5876 1.97079 22.5876C1.9505 22.5876 1.93384 22.6382 1.93384 22.7001C1.93384 22.762 1.91369 22.8127 1.88891 22.8127C1.86412 22.8127 1.84398 22.8734 1.84398 22.9477C1.84398 23.022 1.82369 23.0828 1.79891 23.0828C1.77427 23.0828 1.75398 23.1434 1.75398 23.2178C1.75398 23.2921 1.73369 23.3527 1.70905 23.3527C1.68426 23.3527 1.66397 23.4248 1.66397 23.513C1.66397 23.6062 1.64557 23.6618 1.61991 23.6458C1.59528 23.6306 1.56296 23.6994 1.54658 23.8018C1.53049 23.9024 1.49977 23.9958 1.47817 24.009C1.45672 24.0224 1.43918 24.113 1.43918 24.2107C1.43918 24.3081 1.41889 24.3881 1.39425 24.3881C1.36947 24.3881 1.34918 24.469 1.34918 24.5681C1.34918 24.6671 1.32904 24.7481 1.30425 24.7481C1.27947 24.7481 1.25932 24.8482 1.25932 24.9706C1.25932 25.0929 1.23903 25.2054 1.21425 25.2208C1.18961 25.236 1.16932 25.3779 1.16932 25.5358C1.16932 25.6938 1.15135 25.8342 1.12932 25.8478C0.984096 25.9376 1.07091 29.9694 1.21816 29.9694C1.24077 29.9694 1.25932 30.0808 1.25932 30.217C1.25932 30.3532 1.27744 30.4646 1.29976 30.4646C1.32193 30.4646 1.35135 30.5507 1.36512 30.656C1.41295 31.0226 1.44933 31.1858 1.48904 31.2103C1.51107 31.224 1.52904 31.2922 1.52904 31.3619C1.52904 31.4317 1.55948 31.5141 1.59658 31.5448C1.63368 31.5757 1.66397 31.6591 1.66397 31.7305C1.66397 31.8017 1.68426 31.86 1.70905 31.86C1.73369 31.86 1.75398 31.9208 1.75398 31.9951C1.75398 32.0693 1.77427 32.13 1.79891 32.13C1.82369 32.13 1.84398 32.1907 1.84398 32.265C1.84398 32.3393 1.86412 32.4 1.88891 32.4C1.91369 32.4 1.93384 32.4508 1.93384 32.5126C1.93384 32.5745 1.95413 32.6252 1.97891 32.6252C2.00355 32.6252 2.02384 32.6746 2.02384 32.735C2.02384 32.7955 2.04413 32.8574 2.06877 32.8728C2.09355 32.888 2.11384 32.9399 2.11384 32.9879C2.11384 33.0359 2.13399 33.0753 2.15877 33.0753C2.18356 33.0753 2.2037 33.1146 2.2037 33.1626C2.2037 33.2107 2.22399 33.2625 2.24877 33.2779C2.27341 33.2931 2.2937 33.3551 2.2937 33.4155C2.2937 33.4759 2.31399 33.5253 2.33863 33.5253C2.36342 33.5253 2.38371 33.5474 2.38371 33.5742C2.38371 33.6472 2.66575 34.2005 2.70285 34.2005C2.72053 34.2005 2.83039 34.393 2.94706 34.6282C3.06358 34.8634 3.17678 35.0558 3.19866 35.0558C3.2204 35.0558 3.23823 35.0962 3.23823 35.1458C3.23823 35.1953 3.25504 35.2358 3.27547 35.2358C3.29606 35.2358 3.34156 35.2915 3.37664 35.3596C3.41171 35.4277 3.45186 35.4935 3.46592 35.5059C3.47997 35.5183 3.57099 35.6499 3.66839 35.7984C3.76564 35.947 3.90086 36.1272 3.96898 36.199C4.03695 36.2707 4.09275 36.3495 4.09275 36.3738C4.09275 36.3982 4.13275 36.4529 4.18188 36.4955C4.23087 36.538 4.29696 36.623 4.3287 36.6842C4.40189 36.8254 4.76451 37.2537 5.0709 37.5608C5.20075 37.691 5.30699 37.8101 5.30699 37.8256C5.30699 37.841 5.38409 37.9279 5.47815 38.0188C5.57236 38.1098 5.6628 38.2196 5.67918 38.2628C5.69555 38.3062 5.74121 38.3416 5.78048 38.3416C5.81991 38.3416 5.84034 38.3606 5.82599 38.3838C5.81164 38.407 5.8915 38.4892 6.00353 38.5663C6.20484 38.7049 6.43137 38.9099 6.43137 38.9533C6.43137 38.9918 6.93197 39.4669 6.97255 39.4669C6.99371 39.4669 7.03922 39.5074 7.07371 39.5567C7.10835 39.606 7.14618 39.6369 7.15777 39.6251C7.16951 39.6135 7.28256 39.6997 7.40923 39.8167C7.5359 39.9338 7.70605 40.0802 7.78721 40.1421C7.86852 40.204 7.97113 40.29 8.01519 40.3334C8.0594 40.3768 8.11128 40.4122 8.13056 40.4122C8.14984 40.4122 8.19476 40.4526 8.23042 40.5023C8.26607 40.5517 8.32115 40.5922 8.35274 40.5922C8.38448 40.5922 8.41028 40.6112 8.41028 40.6342C8.41028 40.6573 8.44825 40.6882 8.49477 40.703C8.54115 40.7178 8.63739 40.7799 8.7084 40.8411C8.77942 40.9022 8.85841 40.9522 8.88392 40.9522C8.90928 40.9523 8.95928 40.9928 8.99493 41.0423C9.03059 41.0919 9.08218 41.1323 9.10958 41.1323C9.13682 41.1323 9.2061 41.1824 9.26349 41.2435C9.32089 41.3047 9.38306 41.3453 9.40161 41.3338C9.42017 41.3224 9.44698 41.3432 9.46104 41.3802C9.47524 41.4172 9.51785 41.4474 9.55582 41.4474C9.59365 41.4474 9.62467 41.4652 9.62467 41.487C9.62467 41.5088 9.68539 41.5517 9.7596 41.5824C9.8338 41.6132 9.89453 41.6563 9.89453 41.678C9.89453 41.6998 9.93047 41.7175 9.97453 41.7175C10.0184 41.7175 10.0837 41.7581 10.1193 41.8076C10.155 41.857 10.2202 41.8976 10.2643 41.8976C10.3082 41.8976 10.3443 41.914 10.3443 41.9342C10.3443 41.9739 10.6853 42.1676 10.7553 42.1676C10.7788 42.1676 10.8486 42.2183 10.9105 42.2801C10.9724 42.3421 11.0486 42.3927 11.0799 42.3927C11.1112 42.3927 11.1769 42.4281 11.2257 42.4715C11.2747 42.5148 11.3443 42.5569 11.3804 42.5649C11.4166 42.5728 11.4528 42.5982 11.4611 42.6211C11.4694 42.6441 11.5039 42.6628 11.5378 42.6628C11.5718 42.6628 11.6966 42.7198 11.8152 42.7895C11.9337 42.8592 12.0966 42.9452 12.1769 42.9806C12.2574 43.0158 12.3232 43.0602 12.3232 43.0789C12.3232 43.0976 12.3494 43.1129 12.3816 43.1129C12.4643 43.1129 12.6822 43.2187 12.6826 43.2592C12.6827 43.2778 12.7222 43.2929 12.7703 43.2929C12.8182 43.2929 12.87 43.3132 12.8854 43.338C12.9006 43.3626 12.9414 43.3829 12.9759 43.3829C13.0104 43.3829 13.1133 43.4336 13.2045 43.4955C13.2955 43.5573 13.3991 43.6081 13.4345 43.6081C13.4699 43.6081 13.5294 43.6385 13.5668 43.6759C13.6041 43.7134 13.6532 43.7324 13.676 43.7183C13.6987 43.7042 13.7174 43.7141 13.7174 43.7403C13.7174 43.7666 13.7567 43.7881 13.8047 43.7881C13.8526 43.7881 13.9045 43.8084 13.9197 43.833C13.9351 43.8578 13.9868 43.8781 14.0348 43.8781C14.0829 43.8781 14.1222 43.8983 14.1222 43.9231C14.1222 43.9478 14.1615 43.9681 14.2095 43.9681C14.2574 43.9681 14.3093 43.9884 14.3245 44.013C14.3397 44.0378 14.4018 44.0581 14.4621 44.0581C14.5225 44.0581 14.5719 44.0783 14.5719 44.1031C14.5719 44.1279 14.6112 44.1481 14.6592 44.1481C14.7072 44.1481 14.759 44.1684 14.7743 44.1932C14.7896 44.2178 14.8503 44.2382 14.9092 44.2382C14.9682 44.2382 15.0289 44.2585 15.0441 44.2831C15.0595 44.3079 15.1112 44.3282 15.1592 44.3282C15.2072 44.3282 15.2466 44.3484 15.2466 44.3732C15.2466 44.398 15.3072 44.4182 15.3814 44.4182C15.4556 44.4182 15.5163 44.4385 15.5163 44.4633C15.5163 44.4879 15.5551 44.5082 15.6025 44.5082C15.6499 44.5082 15.6959 44.5296 15.7046 44.5557C15.7133 44.5818 15.7504 44.6076 15.787 44.613C15.8497 44.6222 16.054 44.6946 16.2585 44.7799C16.4711 44.8685 16.9001 45.0033 16.9698 45.0033C17.0114 45.0033 17.0455 45.0236 17.0455 45.0484C17.0455 45.0731 17.0949 45.0934 17.1553 45.0934C17.2156 45.0934 17.2762 45.1114 17.2898 45.1334C17.3035 45.1555 17.3855 45.1858 17.4723 45.201C17.5591 45.2161 17.701 45.2407 17.7875 45.2558C17.8742 45.2709 17.9451 45.3014 17.9451 45.3234C17.9451 45.3455 18.0058 45.3635 18.08 45.3635C18.1542 45.3635 18.2149 45.3838 18.2149 45.4084C18.2149 45.4332 18.2857 45.4535 18.3723 45.4535C18.4589 45.4535 18.5297 45.4737 18.5297 45.4985C18.5297 45.5233 18.609 45.5435 18.7058 45.5435C18.8028 45.5435 18.8887 45.5629 18.897 45.5865C18.9053 45.6102 18.9873 45.6346 19.0793 45.6406C19.1714 45.6467 19.2558 45.6756 19.267 45.7048C19.2782 45.7341 19.3547 45.769 19.437 45.7825C19.5193 45.796 19.6777 45.8304 19.7891 45.8589C19.9004 45.8875 20.0724 45.9215 20.1712 45.9344C20.2702 45.9473 20.3704 45.976 20.3939 45.9982C20.4175 46.0204 20.5136 46.0387 20.6075 46.0387C20.7015 46.0387 20.7785 46.0588 20.7785 46.0836C20.7785 46.1084 20.8594 46.1286 20.9584 46.1286C21.0574 46.1286 21.1382 46.1451 21.1382 46.1653C21.1382 46.1855 21.2327 46.2068 21.3482 46.2127C21.4637 46.2187 21.5939 46.2427 21.6375 46.2661C21.6813 46.2896 21.8196 46.3087 21.9449 46.3087C22.0701 46.3087 22.1726 46.3289 22.1726 46.3537C22.1726 46.3785 22.2726 46.3987 22.3949 46.3987C22.5171 46.3987 22.6296 46.419 22.6449 46.4438C22.6602 46.4684 22.7929 46.4888 22.9399 46.4888C23.088 46.4888 23.2071 46.5088 23.2071 46.5337C23.2071 46.5588 23.327 46.5788 23.477 46.5788C23.6254 46.5788 23.7469 46.5962 23.7469 46.6174C23.7469 46.6387 23.9131 46.6601 24.1163 46.665C24.3196 46.6699 24.5107 46.6944 24.5409 46.7197C24.5711 46.7448 24.6528 46.7588 24.7223 46.7509L24.8486 46.7364L24.8712 43.9006C24.8946 40.9531 24.8898 40.8623 24.7127 40.8623C24.6762 40.8623 24.6463 40.8421 24.6463 40.8173C24.6463 40.7925 24.5856 40.7723 24.5114 40.7723C24.4372 40.7723 24.3764 40.7554 24.3764 40.7348C24.3764 40.7142 24.3464 40.6972 24.3099 40.6972C24.2275 40.6972 23.8867 40.5977 23.7812 40.5429C23.7382 40.5205 23.6624 40.5023 23.6125 40.5023C23.5627 40.5023 23.5219 40.4819 23.5219 40.4571C23.5219 40.4325 23.4612 40.4122 23.387 40.4122C23.3128 40.4122 23.2521 40.3919 23.2521 40.3672C23.2521 40.3424 23.1913 40.3221 23.1171 40.3221C23.0429 40.3221 22.9822 40.3019 22.9822 40.2771C22.9822 40.2523 22.9415 40.2322 22.8916 40.2322C22.8012 40.2322 22.769 40.2195 22.5031 40.081C22.4251 40.0404 22.3288 40.007 22.2894 40.007C22.25 40.007 22.2177 39.9869 22.2177 39.9621C22.2177 39.9373 22.1772 39.9171 22.1277 39.9171C22.0783 39.9171 22.0378 39.8956 22.0378 39.8694C22.0378 39.8431 22.0212 39.832 22.0009 39.8446C21.9804 39.8572 21.9074 39.8381 21.8383 39.8022C21.7691 39.7664 21.6846 39.737 21.6503 39.737C21.6161 39.737 21.588 39.7168 21.588 39.692C21.588 39.6672 21.5574 39.647 21.52 39.647C21.4824 39.647 21.4168 39.627 21.3737 39.6026C21.199 39.5036 20.6818 39.2869 20.6199 39.2869C20.5834 39.2869 20.5536 39.2666 20.5536 39.2419C20.5536 39.2171 20.5131 39.1968 20.4636 39.1968C20.4141 39.1968 20.3737 39.1766 20.3737 39.1518C20.3737 39.127 20.3424 39.1069 20.3043 39.1069C20.2662 39.1069 20.1963 39.0713 20.1492 39.0281C20.102 38.9847 19.946 38.8893 19.8025 38.8159C19.6591 38.7426 19.5315 38.6713 19.5192 38.6574C19.5067 38.6434 19.4005 38.5819 19.2831 38.5207C19.1656 38.4594 19.0695 38.3941 19.0695 38.3755C19.0695 38.3568 19.0413 38.3416 19.0071 38.3416C18.9138 38.3416 18.7066 38.2247 18.7403 38.1909C18.7564 38.1748 18.7257 38.1616 18.6721 38.1616C18.6186 38.1616 18.5747 38.1413 18.5747 38.1166C18.5747 38.0918 18.5387 38.0715 18.4947 38.0715C18.4506 38.0715 18.3854 38.031 18.3497 37.9816C18.3141 37.932 18.257 37.8915 18.2226 37.8915C18.1884 37.8915 18.1206 37.8409 18.0719 37.7789C18.0232 37.7171 17.9596 37.6657 17.9304 37.6646C17.9015 37.6636 17.8075 37.6028 17.7219 37.5296C17.6362 37.4563 17.5474 37.3964 17.5243 37.3964C17.5013 37.3964 17.4245 37.3357 17.3536 37.2614C17.2826 37.1871 17.2035 37.1264 17.1777 37.1264C17.1517 37.1264 17.0659 37.0657 16.9869 36.9915C16.9078 36.9173 16.8297 36.8566 16.8133 36.8564C16.7968 36.8564 16.6301 36.7044 16.4427 36.5187C16.2555 36.3329 16.0865 36.1811 16.0675 36.1811C16.0484 36.1811 16.0075 36.1406 15.9766 36.091C15.9456 36.0415 15.9008 36.0011 15.877 36.0011C15.8212 36.0011 15.4264 35.6071 15.4264 35.5517C15.4264 35.5286 15.3556 35.4532 15.2691 35.384C15.1824 35.315 15.1117 35.2426 15.1117 35.2234C15.1117 35.2042 15.0205 35.0972 14.9092 34.9859C14.7979 34.8745 14.7069 34.7645 14.7069 34.7416C14.7069 34.7185 14.6563 34.6492 14.5944 34.5873C14.5325 34.5253 14.4819 34.4524 14.4819 34.4251C14.4819 34.3977 14.4616 34.3878 14.437 34.4032C14.4122 34.4184 14.3919 34.3985 14.3919 34.3588C14.3919 34.3191 14.3413 34.232 14.2796 34.1653C14.2177 34.0986 14.1671 34.0229 14.1671 33.9972C14.1671 33.9714 14.1267 33.9212 14.0771 33.8855C14.0277 33.8498 13.9873 33.7938 13.9873 33.7612C13.9873 33.7284 13.9467 33.6582 13.8973 33.605C13.8478 33.5519 13.8073 33.4818 13.8073 33.4493C13.8073 33.417 13.7871 33.3903 13.7623 33.3903C13.7376 33.3903 13.7174 33.3606 13.7174 33.3242C13.7174 33.2879 13.6789 33.1893 13.6316 33.1053C13.5502 32.9602 13.5049 32.8742 13.4025 32.6709C13.3778 32.6215 13.3575 32.5508 13.3575 32.5132C13.3575 32.4758 13.3374 32.4452 13.3126 32.4452C13.2878 32.4452 13.2677 32.4045 13.2677 32.3551C13.2677 32.3056 13.2474 32.265 13.2226 32.265C13.198 32.265 13.1777 32.2238 13.1777 32.1732C13.1777 32.1227 13.1372 32.002 13.0877 31.905C13.0383 31.808 12.9978 31.6865 12.9978 31.6353C12.9978 31.584 12.9674 31.5303 12.9303 31.5161C12.8864 31.4993 12.8629 31.4292 12.8629 31.3151C12.8629 31.2186 12.8426 31.1397 12.8178 31.1397C12.7932 31.1397 12.7729 31.0486 12.7729 30.9372C12.7729 30.8258 12.7526 30.7347 12.728 30.7347C12.7032 30.7347 12.6829 30.6333 12.6829 30.5096C12.6829 30.3859 12.6627 30.2845 12.638 30.2845C12.6111 30.2845 12.593 30.112 12.593 29.8569C12.593 29.6019 12.5749 29.4293 12.5479 29.4293C12.4888 29.4293 12.4888 28.7683 12.5479 28.7316C12.5732 28.7161 12.593 28.5062 12.593 28.2564C12.593 27.9881 12.611 27.8089 12.638 27.8089C12.6627 27.8089 12.6829 27.7077 12.6829 27.5838C12.6829 27.4601 12.7032 27.3588 12.728 27.3588C12.7526 27.3588 12.7729 27.2777 12.7729 27.1788C12.7729 27.0798 12.7932 26.9987 12.8178 26.9987C12.8426 26.9987 12.8629 26.9364 12.8629 26.8604C12.8629 26.7844 12.8932 26.6919 12.9303 26.6548C12.9674 26.6175 12.9978 26.5278 12.9978 26.4553C12.9978 26.3828 13.018 26.3235 13.0427 26.3235C13.0675 26.3235 13.0877 26.2842 13.0877 26.2361C13.0877 26.1881 13.108 26.1363 13.1328 26.121C13.1574 26.1057 13.1777 26.045 13.1777 25.9859C13.1777 25.927 13.198 25.8663 13.2226 25.8509C13.2474 25.8357 13.2677 25.7837 13.2677 25.7357C13.2677 25.6877 13.2878 25.6484 13.3126 25.6484C13.3374 25.6484 13.3575 25.6078 13.3575 25.5583C13.3575 25.5089 13.3778 25.4682 13.4025 25.4682C13.4273 25.4682 13.4475 25.4398 13.4475 25.405C13.4475 25.33 13.6351 24.9572 13.6836 24.9356C13.7022 24.9274 13.7174 24.8818 13.7174 24.8344C13.7174 24.7869 13.7376 24.7481 13.7623 24.7481C13.7871 24.7481 13.8073 24.7178 13.8073 24.6806C13.8073 24.6435 13.8225 24.6129 13.841 24.6127C13.8787 24.6123 13.9873 24.3966 13.9873 24.3222C13.9873 24.296 14.0379 24.2363 14.0996 24.1899C14.1615 24.1434 14.2121 24.0878 14.2121 24.0662C14.2121 24.0447 14.2728 23.9635 14.347 23.8858C14.4212 23.8081 14.4819 23.7263 14.4819 23.7041C14.4819 23.682 14.5274 23.6165 14.5831 23.559C14.7514 23.3846 14.8418 23.2642 14.8418 23.2145C14.8418 23.1392 16.6013 21.4099 16.722 21.3664C16.7746 21.3475 17.1104 21.0631 17.3397 20.8433C17.4236 20.763 17.5233 20.6971 17.5613 20.6971C17.5991 20.6971 17.6301 20.6768 17.6301 20.652C17.6301 20.6273 17.6606 20.607 17.6977 20.607C17.7348 20.607 17.7651 20.5867 17.7651 20.5621C17.7651 20.5373 17.7955 20.517 17.8326 20.517C17.8697 20.517 17.9 20.4968 17.9 20.472C17.9 20.4472 17.9212 20.427 17.947 20.427C17.9726 20.427 18.0373 20.3866 18.0903 20.337C18.1433 20.2875 18.2134 20.247 18.2458 20.247C18.2783 20.247 18.3048 20.2267 18.3048 20.2019C18.3048 20.1773 18.3313 20.157 18.3638 20.157C18.3963 20.157 18.4663 20.1165 18.5193 20.0669C18.5725 20.0174 18.6341 19.9769 18.6561 19.9769C18.6783 19.9769 18.751 19.9263 18.8177 19.8644C18.8845 19.8024 18.9684 19.7518 19.0042 19.7518C19.04 19.7518 19.0695 19.7315 19.0695 19.7069C19.0695 19.6821 19.1054 19.6617 19.1495 19.6617C19.1934 19.6617 19.2586 19.6213 19.2943 19.5718C19.3299 19.5222 19.3951 19.4817 19.4392 19.4817C19.4831 19.4817 19.5192 19.4614 19.5192 19.4368C19.5192 19.412 19.5596 19.3917 19.609 19.3917C19.6586 19.3917 19.6991 19.3715 19.6991 19.3467C19.6991 19.3219 19.7395 19.3017 19.7891 19.3017C19.8385 19.3017 19.8789 19.2814 19.8789 19.2568C19.8789 19.232 19.9053 19.2117 19.9375 19.2117C20.0202 19.2117 20.2379 19.1058 20.2383 19.0654C20.2386 19.0469 20.2592 19.0317 20.2843 19.0317C20.366 19.0317 21.0033 18.7085 21.0033 18.667C21.0033 18.6447 21.0426 18.6265 21.0907 18.6265C21.1387 18.6265 21.1904 18.6062 21.2058 18.5816C21.221 18.5568 21.2727 18.5365 21.3208 18.5365C21.3688 18.5365 21.4081 18.5163 21.4081 18.4915C21.4081 18.4667 21.4485 18.4465 21.4981 18.4465C21.5475 18.4465 21.588 18.4262 21.588 18.4014C21.588 18.3768 21.6374 18.3564 21.6978 18.3564C21.7581 18.3564 21.8201 18.3363 21.8354 18.3115C21.8507 18.2867 21.9025 18.2665 21.9504 18.2665C21.9984 18.2665 22.0378 18.2462 22.0378 18.2214C22.0378 18.1967 22.0984 18.1764 22.1726 18.1764C22.247 18.1764 22.3075 18.1561 22.3075 18.1315C22.3075 18.1067 22.3468 18.0864 22.3949 18.0864C22.4429 18.0864 22.4946 18.0662 22.51 18.0414C22.5252 18.0166 22.5973 17.9964 22.67 17.9964C22.7428 17.9964 22.8023 17.9761 22.8023 17.9513C22.8023 17.9267 22.8428 17.9064 22.8923 17.9064C22.9418 17.9064 22.9822 17.886 22.9822 17.8614C22.9822 17.8366 23.0177 17.8158 23.0609 17.8151C23.1771 17.8135 23.7419 17.6141 23.8025 17.5534C23.8312 17.5247 23.9114 17.5012 23.9806 17.5012C24.0499 17.5012 24.1066 17.4809 24.1066 17.4563C24.1066 17.4315 24.1662 17.4112 24.2389 17.4112C24.3117 17.4112 24.3837 17.391 24.3989 17.3662C24.4143 17.3414 24.475 17.3212 24.5338 17.3212C24.5928 17.3212 24.6536 17.3009 24.6688 17.2763C24.6841 17.2515 24.7776 17.2311 24.8765 17.2311C24.985 17.2311 25.0453 17.2133 25.0286 17.1862C25.0121 17.1595 25.0647 17.1412 25.1582 17.1412C25.2447 17.1412 25.3281 17.1209 25.3434 17.0961C25.3587 17.0714 25.4397 17.0511 25.5233 17.0511C25.6069 17.0511 25.6879 17.0308 25.7032 17.0062C25.7185 16.9814 25.8108 16.9611 25.9082 16.9611C26.0058 16.9611 26.0855 16.9409 26.0855 16.9161C26.0855 16.8913 26.1665 16.8711 26.2653 16.8711C26.3643 16.8711 26.4454 16.8508 26.4454 16.826C26.4454 16.8014 26.5262 16.7811 26.6252 16.7811C26.7242 16.7811 26.8051 16.7607 26.8051 16.7361C26.8051 16.7113 26.9023 16.691 27.021 16.691C27.1397 16.691 27.2561 16.6718 27.2796 16.6485C27.3031 16.625 27.4096 16.6008 27.5164 16.5945C27.6231 16.5881 27.7205 16.5668 27.7326 16.5471C27.7448 16.5272 27.8499 16.5104 27.9658 16.5095C28.0819 16.5088 28.2161 16.4783 28.2641 16.4421C28.3128 16.4052 28.4472 16.3759 28.5677 16.3759C28.6867 16.3759 28.784 16.3558 28.784 16.331C28.784 16.305 28.9256 16.286 29.1186 16.286C29.3027 16.286 29.4659 16.2657 29.4811 16.2409C29.4965 16.2162 29.6584 16.1959 29.841 16.1959C30.0236 16.1959 30.1855 16.1756 30.2007 16.151C30.2161 16.1262 30.4095 16.1058 30.6307 16.1058C30.8687 16.1058 31.0327 16.0876 31.0327 16.0609C31.0327 16.0329 31.2801 16.0159 31.6849 16.0159C32.0973 16.0159 32.337 15.9991 32.337 15.9701C32.337 15.8803 38.2025 15.972 38.294 16.0632C38.3175 16.0867 38.5553 16.1058 38.8224 16.1058C39.1163 16.1058 39.3082 16.1237 39.3082 16.151C39.3082 16.1774 39.4656 16.1959 39.6904 16.1959C39.9154 16.1959 40.0728 16.2145 40.0728 16.2409C40.0728 16.2674 40.2301 16.286 40.4551 16.286C40.6799 16.286 40.8373 16.3044 40.8373 16.331C40.8373 16.3558 40.9502 16.3759 41.0879 16.3759C41.2506 16.3759 41.3621 16.3996 41.406 16.4435C41.4492 16.4867 41.5602 16.511 41.715 16.511C41.8477 16.511 41.9689 16.5313 41.9843 16.5559C41.9995 16.5807 42.1221 16.601 42.2567 16.601C42.3912 16.601 42.5014 16.6212 42.5014 16.646C42.5014 16.6708 42.6025 16.691 42.7263 16.691C42.8499 16.691 42.9511 16.7093 42.9511 16.7314C42.9511 16.7538 43.0372 16.7835 43.1423 16.7976C43.6501 16.8656 43.7413 16.8832 43.781 16.9207C43.8045 16.9429 43.8791 16.9611 43.9469 16.9611C44.0148 16.9611 44.0827 16.9814 44.0981 17.0062C44.1133 17.0308 44.1943 17.0511 44.278 17.0511C44.3616 17.0511 44.4426 17.0714 44.4578 17.0961C44.4732 17.1209 44.5541 17.1412 44.6377 17.1412C44.7215 17.1412 44.8023 17.1614 44.8177 17.1862C44.8329 17.211 44.9049 17.2311 44.9777 17.2311C45.0505 17.2311 45.11 17.2515 45.11 17.2763C45.11 17.3009 45.1807 17.3212 45.2674 17.3212C45.3539 17.3212 45.4248 17.3414 45.4248 17.3662C45.4248 17.391 45.4844 17.4112 45.5571 17.4112C45.6299 17.4112 45.7019 17.4315 45.7171 17.4563C45.7324 17.4809 45.8124 17.5012 45.8948 17.5012C45.9867 17.5012 46.0548 17.5275 46.0708 17.5688C46.085 17.606 46.134 17.6363 46.1795 17.6363C46.2251 17.6363 46.3461 17.6767 46.4486 17.7263C46.5509 17.7758 46.6763 17.8163 46.7269 17.8163C46.7776 17.8163 46.8191 17.8366 46.8191 17.8614C46.8191 17.886 46.8583 17.9064 46.9063 17.9064C46.9543 17.9064 47.0062 17.9267 47.0214 17.9513C47.0367 17.9761 47.0986 17.9964 47.1591 17.9964C47.2194 17.9964 47.2688 18.0166 47.2688 18.0414C47.2688 18.0662 47.3092 18.0864 47.3588 18.0864C47.4082 18.0864 47.4486 18.1067 47.4486 18.1315C47.4486 18.1561 47.5094 18.1764 47.5836 18.1764C47.6578 18.1764 47.7185 18.1967 47.7185 18.2214C47.7185 18.2462 47.7482 18.2665 47.7846 18.2665C47.821 18.2665 47.9227 18.307 48.0108 18.3564C48.099 18.4061 48.2007 18.4465 48.2371 18.4465C48.2735 18.4465 48.3032 18.4667 48.3032 18.4915C48.3032 18.5163 48.3437 18.5365 48.3932 18.5365C48.4426 18.5365 48.4832 18.5568 48.4832 18.5816C48.4832 18.6062 48.5219 18.6265 48.5693 18.6265C48.6167 18.6265 48.6623 18.6435 48.6706 18.6641C48.6787 18.6848 48.8372 18.7806 49.0228 18.8769C49.2083 18.9732 49.3668 19.0676 49.3751 19.0868C49.3833 19.1061 49.4187 19.1217 49.4538 19.1217C49.4889 19.1217 49.5175 19.1419 49.5175 19.1667C49.5175 19.1915 49.558 19.2117 49.6076 19.2117C49.657 19.2117 49.6974 19.232 49.6974 19.2568C49.6974 19.2814 49.7239 19.3017 49.7564 19.3017C49.7889 19.3017 49.8589 19.3422 49.9119 19.3917C49.9651 19.4413 50.0397 19.4817 50.0779 19.4817C50.116 19.4817 50.1471 19.502 50.1471 19.5267C50.1471 19.5515 50.1787 19.5718 50.2173 19.5718C50.2558 19.5718 50.277 19.5886 50.2644 19.6092C50.2516 19.6298 50.3112 19.6741 50.3966 19.7076C50.4821 19.7412 50.5519 19.7849 50.5519 19.8046C50.5519 19.8368 50.7828 20.006 51.0079 20.1384C51.0537 20.1654 51.0777 20.2009 51.0614 20.2171C51.0451 20.2335 51.055 20.247 51.0834 20.247C51.1315 20.247 51.2618 20.3496 51.5266 20.5957C51.5865 20.6516 51.6598 20.6978 51.6897 20.6987C51.7194 20.6996 51.8247 20.792 51.9237 20.904C52.0227 21.0159 52.2604 21.2664 52.4521 21.4607C52.6439 21.6549 52.8007 21.8268 52.8007 21.8426C52.8007 21.8585 52.8462 21.9177 52.9019 21.9741C52.9575 22.0306 53.0538 22.1443 53.1155 22.2268C53.1774 22.3093 53.2533 22.4025 53.2842 22.4339C53.3151 22.4654 53.3404 22.5129 53.3404 22.5394C53.3404 22.5658 53.3607 22.5876 53.3854 22.5876C53.4101 22.5876 53.4304 22.618 53.4304 22.6551C53.4304 22.6923 53.4506 22.7226 53.4754 22.7226C53.5001 22.7226 53.5203 22.7529 53.5203 22.79C53.5203 22.8273 53.5406 22.8576 53.5654 22.8576C53.59 22.8576 53.6103 22.8849 53.6103 22.9181C53.6103 22.9515 53.6507 23.0153 53.7001 23.0601C53.7497 23.1049 53.7901 23.1675 53.7901 23.1989C53.7901 23.2306 53.8155 23.2836 53.8464 23.3172C53.9235 23.4007 54.0603 23.6286 54.0905 23.7242C54.1042 23.7674 54.1334 23.8029 54.1552 23.8029C54.1771 23.8029 54.1949 23.8434 54.1949 23.8929C54.1949 23.9425 54.2152 23.9829 54.2399 23.9829C54.2647 23.9829 54.2849 24.0222 54.2849 24.0703C54.2849 24.1184 54.3051 24.1702 54.3299 24.1854C54.3547 24.2008 54.3748 24.2526 54.3748 24.3006C54.3748 24.3487 54.3951 24.3881 54.4199 24.3881C54.4445 24.3881 54.4648 24.4387 54.4648 24.5006C54.4648 24.5624 54.4851 24.613 54.5097 24.613C54.5345 24.613 54.5548 24.6523 54.5548 24.7005C54.5548 24.7485 54.575 24.8003 54.5997 24.8157C54.6245 24.8309 54.6447 24.8889 54.6447 24.9443C54.6447 24.9997 54.6648 25.0653 54.6895 25.09C54.714 25.1146 54.7386 25.1895 54.7442 25.2565C54.7497 25.3235 54.77 25.3783 54.7895 25.3783C54.8087 25.3783 54.8245 25.4278 54.8245 25.4881C54.8245 25.5486 54.8448 25.6105 54.8696 25.6259C54.8942 25.6411 54.9145 25.7118 54.9145 25.7829C54.9145 25.8539 54.945 25.9424 54.9821 25.9795C55.0199 26.0174 55.0495 26.1274 55.0495 26.2303C55.0495 26.3311 55.0698 26.4135 55.0944 26.4135C55.1192 26.4135 55.1395 26.5035 55.1395 26.6134C55.1395 26.7234 55.1596 26.8259 55.1844 26.8411C55.2092 26.8565 55.2293 26.9881 55.2293 27.1337C55.2293 27.2793 55.2496 27.411 55.2744 27.4263C55.3005 27.4425 55.3193 27.6959 55.3193 28.034C55.3193 28.372 55.338 28.6254 55.3643 28.6417C55.4183 28.6752 55.4254 29.3843 55.3717 29.3843C55.3509 29.3843 55.3295 29.6615 55.3238 30.0002C55.3182 30.339 55.2947 30.6516 55.2715 30.695C55.2483 30.7384 55.2293 30.8751 55.2293 30.9992C55.2293 31.123 55.2092 31.237 55.1844 31.2523C55.1596 31.2676 55.1395 31.37 55.1395 31.48C55.1395 31.5899 55.1231 31.6799 55.1032 31.6799C55.0834 31.6799 55.0621 31.7655 55.0558 31.87C55.0496 31.9746 55.0234 32.0734 54.9973 32.0895C54.9713 32.1056 54.9334 32.2074 54.9131 32.3156C54.8928 32.424 54.8513 32.5734 54.8211 32.6476C54.7906 32.7219 54.7602 32.811 54.7532 32.8456C54.7151 33.0365 54.6203 33.3004 54.5899 33.3004C54.5706 33.3004 54.5548 33.3408 54.5548 33.3903C54.5548 33.4399 54.5389 33.4804 54.5196 33.4804C54.5002 33.4804 54.4799 33.5361 54.4742 33.6041C54.4686 33.6723 54.4439 33.7346 54.4194 33.7429C54.395 33.7512 54.3748 33.7847 54.3748 33.8175C54.3748 33.8897 54.186 34.2621 54.1387 34.2831C54.1202 34.2914 54.1049 34.3426 54.1049 34.3969C54.1049 34.4513 54.0645 34.525 54.0151 34.5607C53.9655 34.5964 53.9248 34.6566 53.9244 34.6944C53.9239 34.7323 53.8632 34.8318 53.7894 34.9156C53.7157 34.9995 53.6552 35.0962 53.6552 35.1308C53.6552 35.1654 53.6249 35.2053 53.5878 35.2195C53.5507 35.2337 53.5203 35.2796 53.5203 35.3212C53.5203 35.3628 53.4394 35.4866 53.3404 35.5959C53.2414 35.7053 53.1606 35.821 53.1606 35.853C53.1606 35.8849 53.1438 35.911 53.1232 35.911C53.1026 35.911 53.0571 35.9662 53.022 36.0338C52.9468 36.1786 51.6444 37.4936 51.3837 37.6878C51.285 37.7615 51.1576 37.8679 51.1008 37.9241C51.0441 37.9804 50.9792 38.0265 50.9567 38.0265C50.9343 38.0265 50.8653 38.0772 50.8034 38.1391C50.7415 38.201 50.669 38.2517 50.6421 38.2517C50.6151 38.2517 50.5532 38.2889 50.5044 38.3345C50.4556 38.38 50.3602 38.4459 50.2926 38.4807C50.225 38.5156 50.1429 38.58 50.1103 38.6237C50.0777 38.6675 50.0322 38.6916 50.0092 38.6774C49.9861 38.663 49.9673 38.6708 49.9673 38.6946C49.9673 38.7184 49.9116 38.7577 49.8436 38.7821C49.7755 38.8063 49.6693 38.8687 49.6076 38.9206C49.5457 38.9727 49.4706 39.0358 49.4407 39.061C49.4109 39.0863 49.3451 39.1069 49.2945 39.1069C49.2441 39.1069 49.2028 39.1257 49.2028 39.1489C49.2028 39.1721 49.1319 39.2167 49.0454 39.248C48.9587 39.2793 48.8878 39.3211 48.8878 39.341C48.8878 39.3607 48.8372 39.377 48.7755 39.377C48.7136 39.377 48.663 39.3948 48.663 39.4167C48.663 39.4386 48.6226 39.467 48.573 39.4799C48.4106 39.5226 48.4782 39.6383 48.8135 39.8909C49.1323 40.1309 49.5531 40.5861 49.6986 40.8482C50.1415 41.646 50.1844 41.6619 50.7143 41.225C50.9656 41.0178 51.0238 40.9757 51.1485 40.911C51.2162 40.8758 51.2715 40.8302 51.2715 40.8096C51.2715 40.7892 51.2976 40.7723 51.3293 40.7723C51.3612 40.7723 51.4776 40.6918 51.5881 40.5935C51.6985 40.4951 51.8018 40.4142 51.8178 40.4135C51.8439 40.4123 52.0317 40.2542 52.2198 40.0749C52.2589 40.0377 52.3065 40.007 52.3255 40.007C52.3443 40.007 52.4134 39.9499 52.4791 39.8798C52.5446 39.8099 52.6995 39.6765 52.8232 39.5831C53.0978 39.3761 53.7901 38.71 53.7901 38.653C53.7901 38.6302 53.8164 38.6117 53.8484 38.6117C53.8804 38.6117 54.0474 38.4579 54.2194 38.2701C54.3915 38.0821 54.6537 37.803 54.8021 37.6497C54.9505 37.4965 55.1524 37.2705 55.2506 37.1474C55.3489 37.0244 55.4653 36.8973 55.5092 36.865C55.5533 36.8326 55.5892 36.7769 55.5892 36.7412C55.5892 36.7056 55.6701 36.5904 55.7691 36.4852C55.868 36.3801 55.9489 36.2732 55.9489 36.2475C55.9489 36.222 55.9895 36.1718 56.0389 36.1361C56.0883 36.1004 56.1289 36.044 56.1289 36.0108C56.1289 35.9774 56.1804 35.8959 56.2433 35.8293C56.3759 35.6892 56.7136 35.1701 56.7136 35.1065C56.7136 35.0827 56.7294 35.0565 56.7488 35.0482C56.8024 35.0254 56.9834 34.6994 56.9834 34.6255C56.9834 34.5899 57.0036 34.5607 57.0284 34.5607C57.0532 34.5607 57.0733 34.5276 57.0733 34.4872C57.0733 34.4467 57.1088 34.381 57.152 34.3408C57.1953 34.3008 57.2366 34.2328 57.2439 34.1895C57.2511 34.1464 57.3068 34.0574 57.3677 33.9917C57.4284 33.9261 57.4782 33.8398 57.4782 33.8002C57.4784 33.7605 57.5188 33.6617 57.5682 33.5806C57.6177 33.4995 57.658 33.3932 57.658 33.3443C57.658 33.2953 57.6782 33.2553 57.703 33.2553C57.7277 33.2553 57.748 33.2148 57.748 33.1653C57.748 33.1157 57.7683 33.0753 57.7929 33.0753C57.8177 33.0753 57.838 33.0235 57.838 32.9601C57.838 32.8967 57.8539 32.8548 57.8736 32.867C57.8932 32.8791 57.912 32.8519 57.9154 32.8063C57.9188 32.7609 57.9635 32.6371 58.0146 32.531C58.0659 32.425 58.1078 32.2926 58.1078 32.2367C58.1078 32.181 58.128 32.1229 58.1528 32.1075C58.1775 32.0922 58.1977 32.0303 58.1977 31.9698C58.1977 31.9093 58.218 31.86 58.2428 31.86C58.2674 31.86 58.2877 31.7992 58.2877 31.725C58.2877 31.6507 58.308 31.5899 58.3326 31.5899C58.3574 31.5899 58.3777 31.5083 58.3777 31.4085C58.3777 31.3048 58.4018 31.2176 58.4338 31.2053C58.4648 31.1934 58.4955 31.1085 58.502 31.0168C58.5086 30.9252 58.5339 30.8303 58.5583 30.8059C58.5826 30.7816 58.6025 30.696 58.6025 30.6158C58.6025 30.5356 58.6228 30.4574 58.6474 30.4422C58.6722 30.4268 58.6925 30.3142 58.6925 30.1918C58.6925 30.0695 58.7126 29.9694 58.7374 29.9694C58.7628 29.9694 58.7823 29.8419 58.7823 29.6769C58.7823 29.516 58.8002 29.3843 58.8221 29.3843C58.8438 29.3843 58.8651 29.1672 58.8693 28.9017C58.8735 28.6361 58.8957 28.4074 58.9186 28.3933C58.991 28.3485 58.9015 25.9314 58.8245 25.8532C58.8013 25.8296 58.7823 25.7145 58.7823 25.5973C58.7823 25.48 58.7632 25.3335 58.7396 25.2716C58.7161 25.2098 58.6921 25.0666 58.6863 24.9536C58.6805 24.8406 58.6592 24.7481 58.639 24.7481C58.619 24.7481 58.6025 24.6985 58.6025 24.6378C58.6025 24.472 58.4731 24.0076 58.4222 23.9905C58.3977 23.9822 58.3777 23.9074 58.3777 23.8243C58.3777 23.7411 58.3574 23.6606 58.3326 23.6454C58.308 23.63 58.2877 23.5579 58.2877 23.4851C58.2877 23.4123 58.2674 23.3527 58.2428 23.3527C58.218 23.3527 58.1977 23.3119 58.1977 23.2622C58.1977 23.2123 58.1788 23.1363 58.1558 23.0933C58.1326 23.0504 58.0877 22.919 58.0559 22.8014C58.0242 22.6837 57.9823 22.5876 57.963 22.5876C57.9438 22.5876 57.9278 22.5482 57.9278 22.5002C57.9278 22.4521 57.9077 22.4003 57.8829 22.3851C57.8581 22.3697 57.838 22.3078 57.838 22.2473C57.838 22.1869 57.8177 22.1375 57.7929 22.1375C57.7683 22.1375 57.748 22.1092 57.748 22.0745C57.748 22.0398 57.6872 21.8961 57.613 21.7548C57.5388 21.6137 57.4781 21.4785 57.4781 21.4544C57.4781 21.4305 57.4475 21.3803 57.4103 21.3429C57.3729 21.3056 57.3539 21.2563 57.368 21.2335C57.382 21.2109 57.3619 21.1922 57.3233 21.1922C57.2832 21.1922 57.2533 21.1537 57.2533 21.1022C57.2533 21.0526 57.233 21.0122 57.2082 21.0122C57.1836 21.0122 57.1633 20.9615 57.1633 20.8996C57.1633 20.8377 57.143 20.787 57.1184 20.787C57.0936 20.787 57.0733 20.7466 57.0733 20.6971C57.0733 20.6475 57.0532 20.607 57.0284 20.607C57.0036 20.607 56.9834 20.574 56.9834 20.5335C56.9834 20.4932 56.9465 20.4273 56.9013 20.3873C56.8562 20.3473 56.7905 20.2486 56.7553 20.1681C56.7202 20.0878 56.6763 20.0219 56.6576 20.0219C56.6389 20.0219 56.6236 19.9932 56.6236 19.9581C56.6236 19.9231 56.6072 19.8876 56.5872 19.8793C56.5672 19.8711 56.4849 19.7482 56.4043 19.606C56.3237 19.464 56.2305 19.3325 56.197 19.3135C56.1636 19.2946 56.1295 19.2491 56.1212 19.2121C56.1131 19.1753 56.0507 19.0911 55.9827 19.0253C55.9147 18.9594 55.8591 18.8833 55.8591 18.856C55.8591 18.8289 55.8388 18.8065 55.814 18.8065C55.7893 18.8065 55.7691 18.7762 55.7691 18.7391C55.7691 18.702 55.7488 18.6715 55.7241 18.6715C55.6993 18.6715 55.6791 18.6412 55.6791 18.604C55.6791 18.5669 55.6608 18.5365 55.6383 18.5365C55.616 18.5365 55.5272 18.4403 55.4411 18.3226C55.2196 18.0204 55.1425 17.9277 54.9258 17.7033C54.8206 17.5945 54.7347 17.4935 54.7347 17.479C54.7347 17.447 53.8836 16.601 53.8515 16.601C53.818 16.601 53.7001 16.4773 53.7001 16.4422C53.7001 16.4257 53.6345 16.3513 53.5541 16.2769C53.4736 16.2025 53.3132 16.0526 53.1975 15.9437C53.0817 15.8349 52.9698 15.7458 52.9488 15.7458C52.9278 15.7458 52.8813 15.7052 52.8456 15.6558C52.81 15.6063 52.7658 15.5657 52.7474 15.5657C52.7288 15.5657 52.6474 15.5059 52.5661 15.433C52.4849 15.3599 52.3273 15.2181 52.216 15.1179C52.1047 15.0177 52.0015 14.9356 51.9868 14.9356C51.972 14.9356 51.9181 14.9002 51.8669 14.8568C51.6204 14.6481 51.5823 14.6205 51.5409 14.6205C51.5165 14.6205 51.4965 14.6002 51.4965 14.5754C51.4965 14.5508 51.4705 14.5305 51.4389 14.5305C51.4073 14.5305 51.3522 14.49 51.3166 14.4404C51.2809 14.3909 51.2249 14.3505 51.1921 14.3505C51.1593 14.3505 51.0831 14.3008 51.0225 14.2404C50.893 14.1105 50.5299 13.8553 50.4751 13.8553C50.4541 13.8553 50.4077 13.8148 50.3721 13.7653C50.3364 13.7157 50.2712 13.6752 50.2271 13.6752C50.1832 13.6752 50.1471 13.6549 50.1471 13.6303C50.1471 13.6055 50.1141 13.5852 50.0738 13.5852C50.0334 13.5852 49.9676 13.5483 49.9276 13.5031C49.8876 13.4578 49.7906 13.3928 49.7119 13.3585C49.6334 13.3241 49.5789 13.2801 49.5909 13.2605C49.6029 13.2411 49.5599 13.2252 49.4951 13.2252C49.428 13.2252 49.3893 13.2057 49.4051 13.1802C49.4204 13.1554 49.4045 13.1351 49.3697 13.1351C49.3351 13.1351 49.2478 13.0845 49.1759 13.0227C49.1041 12.9607 49.02 12.9101 48.9891 12.9101C48.9581 12.9101 48.9329 12.8886 48.9329 12.8624C48.9329 12.8361 48.9142 12.8263 48.8914 12.8403C48.8688 12.8544 48.8196 12.8353 48.7823 12.798C48.7449 12.7606 48.6945 12.73 48.67 12.73C48.6455 12.73 48.6188 12.7149 48.6106 12.6963C48.589 12.6476 48.2165 12.4599 48.1416 12.4599C48.1068 12.4599 48.0784 12.4397 48.0784 12.4149C48.0784 12.3901 48.0378 12.3699 47.9884 12.3699C47.9389 12.3699 47.8984 12.3496 47.8984 12.325C47.8984 12.3002 47.8579 12.2799 47.8085 12.2799C47.7589 12.2799 47.7184 12.2646 47.7182 12.2461C47.7178 12.2057 47.4999 12.0999 47.4172 12.0999C47.385 12.0999 47.3588 12.082 47.3588 12.0601C47.3588 12.0382 47.3233 12.008 47.2801 11.9931C47.2368 11.9782 47.1407 11.9267 47.0665 11.8787C46.9922 11.8306 46.896 11.7899 46.8528 11.788C46.8095 11.7863 46.774 11.7645 46.774 11.7397C46.774 11.715 46.7477 11.6947 46.7156 11.6947C46.6328 11.6947 46.415 11.5888 46.4146 11.5485C46.4144 11.53 46.3738 11.5147 46.3243 11.5147C46.2748 11.5147 46.2344 11.4944 46.2344 11.4696C46.2344 11.445 46.1838 11.4246 46.1219 11.4246C46.06 11.4246 46.0095 11.4045 46.0095 11.3797C46.0095 11.3549 45.96 11.3347 45.8998 11.3347C45.8393 11.3347 45.7774 11.3144 45.7621 11.2896C45.7468 11.2649 45.695 11.2446 45.647 11.2446C45.599 11.2446 45.5597 11.2243 45.5597 11.1997C45.5597 11.1749 45.5205 11.1546 45.4725 11.1546C45.4244 11.1546 45.3726 11.1344 45.3573 11.1096C45.3421 11.0848 45.2802 11.0646 45.2197 11.0646C45.1594 11.0646 45.11 11.0443 45.11 11.0195C45.11 10.9949 45.0594 10.9746 44.9975 10.9746C44.9357 10.9746 44.8851 10.9543 44.8851 10.9296C44.8851 10.9048 44.837 10.8845 44.7781 10.8845C44.7194 10.8845 44.6477 10.8562 44.619 10.8214C44.5901 10.7867 44.4764 10.7317 44.3661 10.6991C44.2558 10.6665 44.1655 10.624 44.1655 10.6047C44.1655 10.5852 44.1048 10.5694 44.0306 10.5694C43.9564 10.5694 43.8956 10.5491 43.8956 10.5245C43.8956 10.4997 43.845 10.4794 43.7832 10.4794C43.7214 10.4794 43.6708 10.4592 43.6708 10.4344C43.6708 10.4097 43.6101 10.3894 43.5359 10.3894C43.4617 10.3894 43.401 10.3691 43.401 10.3445C43.401 10.3197 43.3402 10.2993 43.266 10.2993C43.1918 10.2993 43.1311 10.2792 43.1311 10.2544C43.1311 10.2296 43.0704 10.2094 42.9962 10.2094C42.922 10.2094 42.8612 10.1891 42.8612 10.1643C42.8612 10.1396 42.7904 10.1193 42.7039 10.1193C42.6172 10.1193 42.5465 10.099 42.5465 10.0744C42.5465 10.0496 42.4869 10.0293 42.4141 10.0293C42.3414 10.0293 42.2693 10.0091 42.2541 9.9843C42.2388 9.9595 42.1566 9.93934 42.0715 9.93934C41.9864 9.93934 41.9167 9.91903 41.9167 9.89422C41.9167 9.86957 41.8572 9.84926 41.7844 9.84926C41.7118 9.84926 41.6398 9.82895 41.6244 9.80429C41.6092 9.77949 41.5457 9.75918 41.4837 9.75918C41.4215 9.75918 41.3403 9.72887 41.3032 9.69173C41.266 9.6546 41.1764 9.62414 41.1039 9.62414C41.0315 9.62414 40.9722 9.60601 40.9722 9.58396C40.9722 9.56177 40.8913 9.53145 40.7923 9.51637C40.6934 9.50143 40.5313 9.47692 40.4323 9.46198C40.3332 9.44689 40.2409 9.41657 40.2272 9.39438C40.2136 9.37219 40.1429 9.3542 40.0701 9.3542C39.9974 9.3542 39.9378 9.3339 39.9378 9.30909C39.9378 9.28443 39.8468 9.26413 39.7355 9.26413C39.6242 9.26413 39.533 9.24382 39.533 9.21916C39.533 9.19436 39.4319 9.17405 39.3082 9.17405C39.1845 9.17405 39.0833 9.15592 39.0833 9.13358C39.0833 9.11139 38.9974 9.08165 38.8921 9.06758C38.3843 8.99956 38.2931 8.98186 38.2536 8.94444C38.2301 8.92224 38.0934 8.90397 37.9499 8.90397C37.806 8.90397 37.6891 8.88381 37.6891 8.859C37.6891 8.8342 37.5879 8.81404 37.4643 8.81404C37.3405 8.81404 37.2393 8.79373 37.2393 8.76893C37.2393 8.74354 37.1119 8.72396 36.947 8.72396C36.7821 8.72396 36.6547 8.70438 36.6547 8.679C36.6547 8.65332 36.5228 8.63388 36.3489 8.63388C36.1744 8.63388 36.0203 8.61126 35.9902 8.58094C35.9345 8.52539 35.4614 8.4636 34.7994 8.4253C34.583 8.41268 34.4059 8.38599 34.4059 8.36598C34.4059 8.34582 34.1782 8.32594 33.8999 8.32188C33.6217 8.31768 33.3747 8.29505 33.3512 8.27155C33.3278 8.24805 32.9708 8.22891 32.5556 8.22891C32.1022 8.22891 31.7916 8.21092 31.7748 8.18379C31.7367 8.122 28.1993 8.122 28.1993 8.18379ZM39.0159 41.9841C38.7437 41.9984 38.5007 42.0235 38.4756 42.0399C38.4504 42.0563 38.1621 42.0766 37.8346 42.0849C37.5072 42.0933 37.2393 42.1154 37.2393 42.1339C37.2393 42.1525 36.6953 42.1676 36.0303 42.1676H34.8211L34.794 42.269C34.7791 42.3247 34.7666 43.3576 34.7663 44.5645L34.7658 46.7588H35.0778C35.2496 46.7588 35.4026 46.7385 35.4178 46.7139C35.4332 46.6891 35.6064 46.6688 35.8028 46.6688C36.0109 46.6688 36.1599 46.65 36.1599 46.6238C36.1599 46.5988 36.2799 46.5788 36.4297 46.5788C36.5797 46.5788 36.6996 46.5588 36.6996 46.5337C36.6996 46.508 36.8345 46.4888 37.0144 46.4888C37.1944 46.4888 37.3293 46.4695 37.3293 46.4438C37.3293 46.419 37.4305 46.3987 37.5541 46.3987C37.6779 46.3987 37.7791 46.3803 37.7791 46.3578C37.7791 46.3351 37.8954 46.3063 38.0376 46.2937C38.1799 46.281 38.4076 46.2478 38.5436 46.2198C38.6797 46.192 38.8671 46.1579 38.96 46.1441C39.0529 46.1303 39.14 46.101 39.1537 46.0788C39.1674 46.0568 39.2571 46.0387 39.3532 46.0387C39.4493 46.0387 39.5403 46.0184 39.5555 45.9935C39.5708 45.9689 39.648 45.9482 39.7268 45.9476C39.8058 45.9468 39.9919 45.9054 40.1403 45.855C40.2887 45.8048 40.4675 45.7616 40.5378 45.7591C40.6081 45.7567 40.6761 45.7274 40.6889 45.694C40.7028 45.6578 40.7819 45.6335 40.8871 45.6335C40.9834 45.6335 41.0622 45.6132 41.0622 45.5886C41.0622 45.5638 41.1319 45.5435 41.217 45.5435C41.3021 45.5435 41.3842 45.5233 41.3995 45.4985C41.4148 45.4737 41.4666 45.4535 41.5147 45.4535C41.6471 45.4535 41.6228 45.3508 41.3829 44.8987C41.2626 44.6716 41.0574 44.2831 40.927 44.0357C40.4845 43.196 40.3001 42.8718 40.0642 42.5189C39.97 42.3779 39.8929 42.243 39.8929 42.2191C39.8929 42.1579 39.6269 41.941 39.5633 41.9503C39.5343 41.9546 39.2879 41.9699 39.0159 41.9841Z" fill="white"/>
<path fill-rule="evenodd" clip-rule="evenodd" d="M24.7988 30.4936C24.7988 37.8976 24.8129 40.8915 24.8477 40.9264C24.9111 40.99 24.9056 46.6679 24.842 46.7317C24.8152 46.7586 24.7988 47.9562 24.7988 49.8771V52.9791H29.8198H34.8407L34.8101 48.1987C34.7933 45.5694 34.7933 42.6985 34.8099 41.8188L34.8404 40.2192H36.295C37.1112 40.2192 37.784 40.2376 37.8279 40.2613C37.8708 40.2844 37.9717 40.3301 38.052 40.3625C38.1324 40.395 38.1982 40.4368 38.1982 40.4556C38.1982 40.4743 38.2276 40.4897 38.2637 40.4897C38.3379 40.4897 39.2324 41.3622 39.2324 41.4346C39.2324 41.4605 39.2526 41.4817 39.2773 41.4817C39.302 41.4817 39.3223 41.5046 39.3223 41.5327C39.3223 41.5607 39.3652 41.6212 39.4177 41.6668C39.4814 41.7223 39.5064 41.7855 39.4926 41.8576C39.4767 41.9413 39.4888 41.9609 39.5471 41.9456C39.6247 41.9253 39.9069 42.1323 39.9069 42.2095C39.9069 42.2334 39.9839 42.3686 40.0781 42.5098C40.3131 42.862 40.4991 43.1893 40.9348 44.0178C41.0618 44.2596 41.2651 44.6451 41.3865 44.8745C41.5078 45.1039 41.6214 45.3676 41.6388 45.4606C41.6562 45.5536 41.6884 45.6297 41.7104 45.6297C41.7324 45.6297 41.7504 45.6805 41.7504 45.7425C41.7504 45.8044 41.7707 45.8552 41.7953 45.8552C41.8201 45.8552 41.8402 45.8958 41.8402 45.9453C41.8402 45.9949 41.8605 46.0356 41.8853 46.0356C41.9099 46.0356 41.9302 46.0761 41.9302 46.1256C41.9302 46.1753 41.9505 46.2159 41.9751 46.2159C41.9999 46.2159 42.0202 46.2564 42.0202 46.3061C42.0202 46.3556 42.0357 46.3962 42.0547 46.3962C42.0736 46.3962 42.1891 46.589 42.3113 46.8245C42.4334 47.0602 42.5493 47.2529 42.5691 47.2529C42.5886 47.2529 42.6047 47.2935 42.6047 47.3431C42.6047 47.3926 42.625 47.4333 42.6496 47.4333C42.6744 47.4333 42.6947 47.4739 42.6947 47.5234C42.6947 47.5731 42.7148 47.6136 42.7396 47.6136C42.7644 47.6136 42.7845 47.6542 42.7845 47.7039C42.7845 47.7534 42.8048 47.7939 42.8294 47.7939C42.8542 47.7939 42.8745 47.8345 42.8745 47.8842C42.8745 47.9337 42.8909 47.9743 42.911 47.9743C42.9312 47.9743 42.9753 48.0453 43.0094 48.1322C43.0433 48.2189 43.0876 48.29 43.1076 48.29C43.1278 48.29 43.1443 48.3305 43.1443 48.3801C43.1443 48.4298 43.1644 48.4703 43.1892 48.4703C43.214 48.4703 43.2341 48.5108 43.2341 48.5605C43.2341 48.6101 43.2544 48.6506 43.2792 48.6506C43.3038 48.6506 43.3241 48.6913 43.3241 48.7408C43.3241 48.7904 43.3444 48.8309 43.369 48.8309C43.3938 48.8309 43.4141 48.8716 43.4141 48.9212C43.4141 48.9707 43.4292 49.0115 43.4477 49.0117C43.4663 49.012 43.5032 49.0576 43.5297 49.1131C43.6591 49.3842 43.8402 49.6877 43.8725 49.6877C43.8924 49.6877 43.9086 49.7283 43.9086 49.7778C43.9086 49.8275 43.9289 49.868 43.9535 49.868C43.9783 49.868 43.9986 49.9086 43.9986 49.9581C43.9986 50.0078 44.0188 50.0484 44.0435 50.0484C44.0683 50.0484 44.0884 50.0877 44.0884 50.1358C44.0884 50.1841 44.1087 50.2359 44.1335 50.2513C44.1581 50.2666 44.1784 50.3185 44.1784 50.3667C44.1784 50.4148 44.1987 50.4542 44.2233 50.4542C44.2481 50.4542 44.2684 50.4931 44.2684 50.5406C44.2684 50.5881 44.2835 50.6338 44.302 50.642C44.3345 50.6564 44.5065 50.954 44.6037 51.164C44.6295 51.2196 44.6657 51.2652 44.6843 51.2654C44.7028 51.2657 44.718 51.3069 44.718 51.3573C44.718 51.4078 44.7483 51.4606 44.7854 51.4749C44.8225 51.4891 44.8529 51.5392 44.8529 51.5862C44.8529 51.6331 44.8731 51.6716 44.8978 51.6716C44.9226 51.6716 44.9428 51.7122 44.9428 51.7617C44.9428 51.8114 44.963 51.8519 44.9878 51.8519C45.0125 51.8519 45.0327 51.8925 45.0327 51.942C45.0327 51.9917 45.053 52.0322 45.0777 52.0322C45.1024 52.0322 45.1227 52.0728 45.1227 52.1225C45.1227 52.172 45.1429 52.2126 45.1676 52.2126C45.1924 52.2126 45.2126 52.2532 45.2126 52.3028C45.2126 52.3523 45.2291 52.393 45.2492 52.393C45.2694 52.393 45.3136 52.4639 45.3475 52.5508C45.3815 52.6375 45.4257 52.7086 45.4458 52.7086C45.466 52.7086 45.4824 52.7404 45.4824 52.7794C45.4824 52.9877 45.2517 52.9802 51.2235 52.968L56.8359 52.9566L56.8203 52.7987C56.8117 52.7119 56.7899 52.6309 56.7717 52.6184C56.7536 52.606 56.7102 52.5299 56.6751 52.4494C56.6402 52.3687 56.5963 52.3028 56.5776 52.3028C56.5589 52.3028 56.5437 52.2622 56.5437 52.2126C56.5437 52.163 56.5234 52.1225 56.4986 52.1225C56.474 52.1225 56.4537 52.0959 56.4537 52.0633C56.4537 52.0308 56.4172 51.9648 56.3727 51.9167C56.3282 51.8686 56.2782 51.7938 56.2617 51.7505C56.2452 51.7071 56.2108 51.6716 56.1853 51.6716C56.1598 51.6716 56.139 51.6354 56.139 51.5913C56.139 51.5472 56.0984 51.4819 56.049 51.4461C55.9996 51.4104 55.959 51.3348 55.959 51.2783C55.959 51.2218 55.9389 51.1756 55.9141 51.1756C55.8893 51.1756 55.8692 51.1443 55.8692 51.1061C55.8692 51.0678 55.8286 50.9929 55.7792 50.9398C55.7298 50.8866 55.6892 50.8164 55.6892 50.7838C55.6892 50.7513 55.6691 50.7247 55.6443 50.7247C55.6195 50.7247 55.5994 50.6842 55.5994 50.6345C55.5994 50.5849 55.5816 50.5444 55.5598 50.5444C55.5381 50.5444 55.4952 50.4835 55.4645 50.4091C55.4338 50.3347 55.3909 50.2739 55.3691 50.2739C55.3474 50.2739 55.3296 50.2429 55.3296 50.2053C55.3296 50.1213 55.1079 49.7778 55.0538 49.7778C55.0324 49.7778 55.0149 49.7373 55.0149 49.6877C55.0149 49.638 54.9946 49.5975 54.9698 49.5975C54.9452 49.5975 54.9249 49.5613 54.9249 49.5173C54.9249 49.4731 54.8845 49.4078 54.8349 49.372C54.7855 49.3363 54.7451 49.271 54.7451 49.2269C54.7451 49.1827 54.7248 49.1467 54.7 49.1467C54.6754 49.1467 54.6551 49.106 54.6551 49.0564C54.6551 49.0069 54.6349 48.9662 54.6102 48.9662C54.5854 48.9662 54.5652 48.9358 54.5652 48.8986C54.5652 48.8614 54.545 48.8309 54.5202 48.8309C54.4956 48.8309 54.4753 48.7904 54.4753 48.7408C54.4753 48.6913 54.455 48.6506 54.4303 48.6506C54.4056 48.6506 54.3853 48.6194 54.3853 48.5812C54.3853 48.5429 54.3449 48.4681 54.2954 48.4148C54.2459 48.3616 54.2055 48.2914 54.2055 48.2589C54.2055 48.2263 54.1852 48.1998 54.1605 48.1998C54.1358 48.1998 54.1155 48.1592 54.1155 48.1095C54.1155 48.06 54.0991 48.0194 54.0788 48.0194C54.0587 48.0194 54.0086 47.9484 53.9673 47.8616C53.926 47.7748 53.8716 47.7039 53.8464 47.7039C53.8213 47.7039 53.8008 47.6632 53.8008 47.6136C53.8008 47.5641 53.7805 47.5234 53.7558 47.5234C53.7311 47.5234 53.7108 47.4968 53.7108 47.4643C53.7108 47.4317 53.6704 47.3617 53.621 47.3084C53.5714 47.2552 53.531 47.1804 53.531 47.1421C53.531 47.1038 53.5108 47.0725 53.4861 47.0725C53.4613 47.0725 53.4411 47.0413 53.4411 47.0031C53.4411 46.9647 53.4006 46.8899 53.3512 46.8367C53.3017 46.7835 53.2612 46.7032 53.2612 46.6583C53.2612 46.6134 53.241 46.5766 53.2163 46.5766C53.1915 46.5766 53.1713 46.5499 53.1713 46.5175C53.1713 46.485 53.1308 46.4148 53.0814 46.3615C53.0319 46.3083 52.9914 46.2335 52.9914 46.1952C52.9914 46.157 52.9712 46.1256 52.9465 46.1256C52.9217 46.1256 52.9015 46.0991 52.9015 46.0665C52.9015 46.0341 52.856 45.9586 52.8004 45.8988C52.6926 45.7833 52.5868 45.6017 52.5868 45.5325C52.5868 45.5096 52.5462 45.4471 52.4968 45.3939C52.4474 45.3406 52.4069 45.2706 52.4069 45.238C52.4069 45.2055 52.3867 45.1789 52.3619 45.1789C52.3372 45.1789 52.317 45.1382 52.317 45.0887C52.317 45.0391 52.2967 44.9984 52.272 44.9984C52.2473 44.9984 52.227 44.9718 52.227 44.9393C52.227 44.9069 52.1866 44.8367 52.1371 44.7834C52.0876 44.7302 52.0472 44.6554 52.0472 44.6172C52.0472 44.579 52.0307 44.5476 52.0106 44.5476C51.9904 44.5476 51.9462 44.4767 51.9123 44.3898C51.8783 44.303 51.839 44.232 51.8249 44.232C51.8109 44.232 51.7719 44.1698 51.7383 44.0937C51.7047 44.0175 51.6289 43.9068 51.5699 43.8477C51.511 43.7886 51.4627 43.7088 51.4627 43.6704C51.4627 43.6321 51.4424 43.6008 51.4176 43.6008C51.393 43.6008 51.3727 43.5601 51.3727 43.5106C51.3727 43.4611 51.3524 43.4204 51.3278 43.4204C51.303 43.4204 51.2827 43.39 51.2827 43.3528C51.2827 43.3156 51.2626 43.2851 51.2378 43.2851C51.213 43.2851 51.1929 43.2446 51.1929 43.195C51.1929 43.1453 51.1726 43.1048 51.1478 43.1048C51.1232 43.1048 51.1029 43.0735 51.1029 43.0353C51.1029 42.997 51.0625 42.9221 51.0129 42.869C50.9635 42.8158 50.9231 42.7456 50.9231 42.7131C50.9231 42.6805 50.9028 42.6539 50.878 42.6539C50.8534 42.6539 50.8331 42.6134 50.8331 42.5637C50.8331 42.5142 50.8179 42.4735 50.7994 42.4735C50.7808 42.4733 50.7058 42.3617 50.6324 42.2255C50.5591 42.0892 50.4832 41.9776 50.4638 41.9776C50.4444 41.9776 50.4284 41.9415 50.4284 41.8974C50.4284 41.8532 50.388 41.788 50.3386 41.7522C50.289 41.7165 50.2486 41.6524 50.2486 41.61C50.2486 41.5675 50.2095 41.5203 50.1618 41.5052C50.0857 41.4809 49.9836 41.3296 49.7102 40.8363C49.5641 40.5727 49.1435 40.1173 48.8215 39.8744C48.5679 39.6831 48.4927 39.6017 48.5094 39.5375C48.5265 39.4718 48.5071 39.4526 48.4233 39.4526C48.3638 39.4526 48.3151 39.4324 48.3151 39.4076C48.3151 39.3827 48.2848 39.3625 48.2477 39.3625C48.2106 39.3625 48.1802 39.3422 48.1802 39.3173C48.1802 39.2926 48.1398 39.2723 48.0904 39.2723C48.0408 39.2723 48.0004 39.252 48.0004 39.2273C48.0004 39.2024 47.96 39.1821 47.9104 39.1821C47.861 39.1821 47.8206 39.1619 47.8206 39.137C47.8206 39.1122 47.7712 39.092 47.7107 39.092C47.6505 39.092 47.5886 39.0716 47.5732 39.0468C47.558 39.0221 47.5083 39.0018 47.463 39.0018C47.4176 39.0018 47.3689 38.9714 47.3546 38.9342C47.3404 38.897 47.2888 38.8665 47.2401 38.8665C47.1913 38.8665 47.1388 38.8463 47.1236 38.8214C47.1082 38.7966 47.0464 38.7764 46.9861 38.7764C46.9257 38.7764 46.8763 38.7597 46.8763 38.7394C46.8763 38.7192 46.7738 38.6745 46.6486 38.6403C46.5234 38.6061 46.4109 38.5618 46.3987 38.542C46.3864 38.5221 46.327 38.5059 46.2667 38.5059C46.2063 38.5059 46.1569 38.4855 46.1569 38.4607C46.1569 38.436 46.086 38.4156 45.9995 38.4156C45.913 38.4156 45.8421 38.3953 45.8421 38.3706C45.8421 38.3457 45.7814 38.3254 45.7072 38.3254C45.6331 38.3254 45.5723 38.3052 45.5723 38.2804C45.5723 38.2555 45.6723 38.2353 45.7945 38.2353C45.9166 38.2353 46.0292 38.215 46.0444 38.1901C46.0598 38.1654 46.1722 38.1451 46.2944 38.1451C46.4167 38.1451 46.5166 38.1271 46.5166 38.105C46.5166 38.0829 46.5873 38.0524 46.674 38.0373C46.7605 38.0222 46.9024 37.9975 46.9891 37.9824C47.0759 37.9672 47.1581 37.9367 47.1716 37.9146C47.1852 37.8926 47.2463 37.8745 47.3075 37.8745C47.3686 37.8745 47.4304 37.8442 47.4446 37.807C47.4593 37.7683 47.5264 37.7393 47.6005 37.7393C47.672 37.7393 47.7306 37.7191 47.7306 37.6942C47.7306 37.6694 47.7913 37.6492 47.8655 37.6492C47.9397 37.6492 48.0004 37.6288 48.0004 37.604C48.0004 37.5793 48.0498 37.559 48.1102 37.559C48.1705 37.559 48.2324 37.5386 48.2477 37.5139C48.2629 37.4891 48.3248 37.4687 48.3852 37.4687C48.4457 37.4687 48.4951 37.4485 48.4951 37.4237C48.4951 37.3988 48.5355 37.3786 48.5849 37.3786C48.6345 37.3786 48.6749 37.3583 48.6749 37.3335C48.6749 37.3088 48.7153 37.2884 48.7647 37.2884C48.8143 37.2884 48.8547 37.2681 48.8547 37.2434C48.8547 37.2185 48.8951 37.1982 48.9447 37.1982C48.9941 37.1982 49.0345 37.178 49.0345 37.1531C49.0345 37.1283 49.0751 37.1081 49.1245 37.1081C49.1739 37.1081 49.2145 37.0878 49.2145 37.0629C49.2145 37.0382 49.2549 37.0179 49.3043 37.0179C49.3539 37.0179 49.3943 36.9977 49.3943 36.9728C49.3943 36.948 49.431 36.9278 49.4757 36.9278C49.5205 36.9278 49.6006 36.8871 49.6537 36.8376C49.7068 36.788 49.7684 36.7473 49.7907 36.7473C49.8131 36.7473 49.8693 36.6966 49.9158 36.6346C49.9621 36.5727 50.0314 36.522 50.0695 36.522C50.1076 36.522 50.168 36.4813 50.2037 36.4318C50.2393 36.3822 50.2941 36.3415 50.3254 36.3415C50.3842 36.3415 50.4971 36.2588 50.6794 36.0823C50.7369 36.0265 50.802 35.9809 50.824 35.9809C50.8724 35.9809 51.2827 35.597 51.2827 35.5517C51.2827 35.534 51.4143 35.3964 51.575 35.246C51.7358 35.0958 51.8673 34.9541 51.8673 34.9313C51.8673 34.9085 51.9229 34.8361 51.991 34.7703C52.059 34.7046 52.1449 34.59 52.1818 34.5156C52.2186 34.441 52.2844 34.3475 52.3279 34.3074C52.3714 34.2673 52.4069 34.2013 52.4069 34.1608C52.4069 34.1202 52.4271 34.0871 52.4519 34.0871C52.4766 34.0871 52.4968 34.0511 52.4968 34.0069C52.4968 33.9629 52.5373 33.8975 52.5868 33.8617C52.6362 33.826 52.6767 33.7606 52.6767 33.7164C52.6767 33.6724 52.6919 33.6361 52.7104 33.636C52.7556 33.6357 52.9015 33.375 52.9015 33.2945C52.9015 33.2593 52.9217 33.2304 52.9465 33.2304C52.9712 33.2304 52.9914 33.1911 52.9914 33.143C52.9914 33.0949 53.0117 33.0429 53.0364 33.0276C53.0611 33.0123 53.0814 32.9502 53.0814 32.8897C53.0814 32.8291 53.1016 32.7796 53.1263 32.7796C53.151 32.7796 53.1713 32.7402 53.1713 32.6921C53.1713 32.644 53.1915 32.592 53.2163 32.5767C53.241 32.5613 53.2612 32.4891 53.2612 32.4162C53.2612 32.3433 53.2815 32.2837 53.3062 32.2837C53.3309 32.2837 53.3512 32.224 53.3512 32.151C53.3512 32.0781 53.3714 32.0059 53.3961 31.9906C53.4208 31.9752 53.4411 31.8941 53.4411 31.8102C53.4411 31.7263 53.4613 31.6452 53.4861 31.6298C53.5108 31.6146 53.531 31.513 53.531 31.4045C53.531 31.2958 53.5513 31.1942 53.576 31.179C53.6007 31.1636 53.621 31.0306 53.621 30.8833C53.621 30.7347 53.6409 30.6154 53.6659 30.6154C53.6935 30.6154 53.7108 30.3909 53.7108 30.0319C53.7108 29.6916 53.7296 29.4367 53.7558 29.4206C53.7805 29.4052 53.8008 29.2112 53.8008 28.9895C53.8008 28.7508 53.7825 28.5865 53.7558 28.5865C53.728 28.5865 53.7108 28.3534 53.7108 27.9777C53.7108 27.6019 53.6937 27.369 53.6659 27.369C53.6411 27.369 53.621 27.2574 53.621 27.121C53.621 26.9847 53.6007 26.8731 53.576 26.8731C53.5513 26.8731 53.531 26.7716 53.531 26.6476C53.531 26.5237 53.5108 26.4221 53.4861 26.4221C53.4613 26.4221 53.4411 26.3524 53.4411 26.2671C53.4411 26.1817 53.4208 26.0994 53.3961 26.084C53.3714 26.0688 53.3512 26.0066 53.3512 25.9461C53.3512 25.8855 53.3309 25.836 53.3062 25.836C53.2815 25.836 53.2612 25.7751 53.2612 25.7007C53.2612 25.6263 53.241 25.5655 53.2163 25.5655C53.1915 25.5655 53.1713 25.5046 53.1713 25.4302C53.1713 25.3558 53.151 25.2949 53.1263 25.2949C53.1016 25.2949 53.0814 25.2442 53.0814 25.1823C53.0814 25.1203 53.0611 25.0696 53.0364 25.0696C53.0117 25.0696 52.9914 25.029 52.9914 24.9793C52.9914 24.9298 52.9712 24.8892 52.9465 24.8892C52.9217 24.8892 52.9015 24.8486 52.9015 24.799C52.9015 24.7495 52.8813 24.7088 52.8565 24.7088C52.8318 24.7088 52.8116 24.6777 52.8116 24.6398C52.8116 24.6019 52.7813 24.5591 52.7442 24.5447C52.7071 24.5305 52.6767 24.4804 52.6767 24.4335C52.6767 24.3865 52.6565 24.3482 52.6317 24.3482C52.607 24.3482 52.5868 24.3177 52.5868 24.2805C52.5868 24.2433 52.5665 24.2129 52.5418 24.2129C52.5171 24.2129 52.4968 24.1724 52.4968 24.1227C52.4968 24.0731 52.4766 24.0326 52.4519 24.0326C52.4271 24.0326 52.4069 24.0021 52.4069 23.9649C52.4069 23.9277 52.3867 23.8973 52.3619 23.8973C52.3372 23.8973 52.317 23.8713 52.317 23.8396C52.317 23.8078 52.2764 23.7526 52.227 23.7168C52.1776 23.6811 52.1371 23.6262 52.1371 23.5947C52.1371 23.5182 50.8986 22.2741 50.8226 22.2741C50.7898 22.2741 50.7339 22.2335 50.6982 22.184C50.6626 22.1343 50.6168 22.0937 50.5965 22.0937C50.5762 22.0937 50.5351 22.073 50.5052 22.0477C50.2567 21.8374 50.1741 21.7782 50.1286 21.7782C50.0998 21.7782 50.0695 21.7629 50.0613 21.7443C50.0424 21.702 49.8031 21.5556 49.6979 21.5221C49.6545 21.5083 49.6192 21.4791 49.6192 21.4572C49.6192 21.4353 49.5798 21.4174 49.5318 21.4174C49.4838 21.4174 49.4321 21.397 49.4168 21.3723C49.4015 21.3475 49.3497 21.3272 49.3017 21.3272C49.2537 21.3272 49.2145 21.307 49.2145 21.2821C49.2145 21.2573 49.1739 21.2371 49.1245 21.2371C49.0751 21.2371 49.0345 21.2167 49.0345 21.192C49.0345 21.1672 48.9941 21.1468 48.9447 21.1468C48.8951 21.1468 48.8547 21.1266 48.8547 21.1018C48.8547 21.077 48.794 21.0568 48.7198 21.0568C48.6456 21.0568 48.5849 21.0364 48.5849 21.0116C48.5849 20.9869 48.5495 20.9658 48.5062 20.9651C48.4629 20.9644 48.3883 20.9338 48.3403 20.8975C48.2922 20.861 48.2164 20.8313 48.1717 20.8313C48.1269 20.8313 48.0904 20.8109 48.0904 20.7862C48.0904 20.7614 48.0296 20.741 47.9555 20.741C47.8813 20.741 47.8206 20.7208 47.8206 20.696C47.8206 20.6711 47.761 20.6509 47.6883 20.6509C47.6155 20.6509 47.5435 20.6306 47.5283 20.6058C47.5129 20.5811 47.4321 20.5607 47.3483 20.5607C47.2647 20.5607 47.1852 20.5427 47.1716 20.5206C47.1445 20.4764 46.9352 20.433 46.5727 20.3961C46.4429 20.3829 46.3367 20.3537 46.3367 20.3311C46.3367 20.3086 46.2052 20.2902 46.0444 20.2902C45.8795 20.2902 45.7522 20.2706 45.7522 20.2451C45.7522 20.2184 45.5881 20.2001 45.3502 20.2001C45.1291 20.2001 44.9357 20.1798 44.9203 20.1549C44.9019 20.1251 41.4951 20.1099 34.8457 20.1099H24.7988V30.4936ZM41.4806 27.4593C41.4806 27.484 41.5616 27.5043 41.6604 27.5043C41.7594 27.5043 41.8402 27.5246 41.8402 27.5493C41.8402 27.5742 41.8791 27.5945 41.9264 27.5945C41.9738 27.5945 42.0195 27.6107 42.0276 27.6306C42.0358 27.6505 42.183 27.7448 42.3545 27.8404C42.6789 28.0211 42.9643 28.27 42.9643 28.372C42.9643 28.4046 43.0049 28.4605 43.0543 28.4962C43.1037 28.532 43.1443 28.5974 43.1443 28.6415C43.1443 28.6856 43.1644 28.7217 43.1892 28.7217C43.214 28.7217 43.2341 28.7611 43.2341 28.8092C43.2341 28.8573 43.2544 28.9093 43.2792 28.9246C43.3038 28.94 43.3241 29.0109 43.3241 29.0824C43.3241 29.1538 43.3444 29.2249 43.369 29.2402C43.3961 29.257 43.4141 29.5713 43.4141 30.0319C43.4141 30.5111 43.3973 30.7957 43.369 30.7957C43.3444 30.7957 43.3241 30.8667 43.3241 30.9535C43.3241 31.0404 43.3038 31.1113 43.2792 31.1113C43.2544 31.1113 43.2341 31.152 43.2341 31.2015C43.2341 31.2511 43.214 31.2917 43.1892 31.2917C43.1644 31.2917 43.1443 31.3323 43.1443 31.3818C43.1443 31.4315 43.124 31.4721 43.0992 31.4721C43.0746 31.4721 43.0543 31.5031 43.0543 31.5412C43.0543 31.6762 42.3292 32.331 42.0989 32.4044C42.0555 32.4182 42.0202 32.4473 42.0202 32.4692C42.0202 32.4912 41.9595 32.509 41.8853 32.509C41.8111 32.509 41.7504 32.5294 41.7504 32.5542C41.7504 32.5789 41.6897 32.5993 41.6155 32.5993C41.5413 32.5993 41.4806 32.6196 41.4806 32.6443C41.4806 32.6692 41.3806 32.6895 41.2585 32.6895C41.1362 32.6895 41.0237 32.7097 41.0085 32.7345C40.9904 32.7639 39.9213 32.7796 37.9483 32.7796H34.9159V30.0968V27.4141H38.1982C40.3565 27.4141 41.4806 27.4296 41.4806 27.4593ZM54.2279 38.2503C54.0341 38.4653 54.0168 38.5194 54.1963 38.3501C54.3002 38.252 54.3853 38.1659 54.3853 38.1585C54.3853 38.1173 54.3063 38.1635 54.2279 38.2503ZM6.09375 38.6298C6.09375 38.6488 6.13418 38.6898 6.18359 38.7208C6.23314 38.7517 6.27357 38.7616 6.27357 38.7425C6.27357 38.7234 6.23314 38.6825 6.18359 38.6516C6.13418 38.6205 6.09375 38.6108 6.09375 38.6298ZM53.7831 38.6673C53.7409 38.7776 53.7501 38.7886 53.8232 38.7151C53.8997 38.6385 53.9094 38.5959 53.8506 38.5959C53.8284 38.5959 53.7982 38.6281 53.7831 38.6673ZM53.5986 38.8662C53.5539 38.916 53.5317 38.9567 53.5497 38.9567C53.5972 38.9567 53.7253 38.8209 53.7009 38.7965C53.6896 38.7851 53.6436 38.8165 53.5986 38.8662Z" fill="white"/>
</g>
<defs>
<filter id="filter0_i" x="1.05469" y="8.13745" width="58.8906" height="46.8417" filterUnits="userSpaceOnUse" color-interpolation-filters="sRGB">
<feFlood flood-opacity="0" result="BackgroundImageFix"/>
<feBlend mode="normal" in="SourceGraphic" in2="BackgroundImageFix" result="shape"/>
<feColorMatrix in="SourceAlpha" type="matrix" values="0 0 0 0 0 0 0 0 0 0 0 0 0 0 0 0 0 0 127 0" result="hardAlpha"/>
<feOffset dx="1" dy="2"/>
<feGaussianBlur stdDeviation="2"/>
<feComposite in2="hardAlpha" operator="arithmetic" k2="-1" k3="1"/>
<feColorMatrix type="matrix" values="0 0 0 0 0 0 0 0 0 0 0 0 0 0 0 0 0 0 0.1 0"/>
<feBlend mode="normal" in2="shape" result="effect1_innerShadow"/>
</filter>
</defs>
</svg>
