<svg width="84" height="82" viewBox="0 0 84 82" fill="none" xmlns="http://www.w3.org/2000/svg">
<path d="M37.4609 77.0001V63.9141H41.9069C44.9429 63.9141 46.4609 65.1981 46.4609 67.7661C46.4609 69.7701 45.4409 71.0061 43.4009 71.4741L47.0369 77.0001H45.1289L41.8169 71.8161L39.1169 71.3841V77.0001H37.4609ZM39.1169 70.2681H41.1149C42.4589 70.2681 43.4069 70.0821 43.9589 69.7101C44.5109 69.3261 44.7869 68.6781 44.7869 67.7661C44.7869 67.1421 44.6729 66.6501 44.4449 66.2901C44.2169 65.9181 43.8329 65.6541 43.2929 65.4981C42.7649 65.3301 42.0389 65.2461 41.1149 65.2461H39.1169V70.2681Z" fill="#003C4A"/>
<path fill-rule="evenodd" clip-rule="evenodd" d="M40.1993 8.18404C40.1993 8.21232 39.91 8.22915 39.4213 8.22915C38.9903 8.22915 38.6242 8.24815 38.6004 8.27179C38.577 8.29529 38.3301 8.31792 38.0517 8.32213C37.7734 8.32619 37.5458 8.34751 37.5458 8.36941C37.5458 8.39117 37.3649 8.40916 37.1437 8.40916C36.9226 8.40916 36.7291 8.42946 36.7137 8.45412C36.6985 8.47893 36.5607 8.49923 36.4076 8.49938C36.2486 8.49967 36.0738 8.52853 36.0002 8.56697C35.9253 8.60613 35.7515 8.63413 35.5842 8.63413C35.4228 8.63413 35.297 8.65386 35.297 8.67924C35.297 8.70462 35.1696 8.72421 35.0047 8.72421C34.8399 8.72421 34.7123 8.74379 34.7123 8.76917C34.7123 8.79397 34.6112 8.81428 34.4875 8.81428C34.3638 8.81428 34.2626 8.83444 34.2626 8.85925C34.2626 8.8842 34.1436 8.90421 33.9955 8.90421C33.8485 8.90421 33.7158 8.92452 33.7004 8.94932C33.6852 8.97398 33.5839 8.99429 33.4756 8.99429C33.3672 8.99429 33.2659 9.0146 33.2507 9.03925C33.2353 9.06406 33.1443 9.08436 33.0484 9.08436C32.9523 9.08436 32.8613 9.10453 32.8459 9.12933C32.8307 9.15413 32.7294 9.1743 32.6211 9.1743C32.5127 9.1743 32.4114 9.1946 32.3962 9.21941C32.3808 9.24406 32.2886 9.26437 32.1911 9.26437C32.0937 9.26437 32.0138 9.28468 32.0138 9.30934C32.0138 9.33414 31.943 9.35445 31.8564 9.35445C31.7699 9.35445 31.6991 9.37461 31.6991 9.39941C31.6991 9.42422 31.618 9.44438 31.5192 9.44438C31.4202 9.44438 31.3392 9.46469 31.3392 9.48934C31.3392 9.51415 31.2583 9.53445 31.1593 9.53445C31.0603 9.53445 30.9795 9.55462 30.9795 9.57942C30.9795 9.60422 30.9202 9.62439 30.8477 9.62439C30.7753 9.62439 30.6857 9.65485 30.6486 9.69198C30.6115 9.72911 30.5189 9.75943 30.4429 9.75943C30.367 9.75943 30.3048 9.77756 30.3048 9.79961C30.3048 9.82165 30.2289 9.85255 30.1361 9.86836C29.7257 9.93842 29.6752 9.95162 29.6752 9.98948C29.6752 10.0115 29.6157 10.0295 29.5429 10.0295C29.4701 10.0295 29.3981 10.0498 29.3829 10.0746C29.3675 10.0993 29.2955 10.1196 29.2227 10.1196C29.15 10.1196 29.0906 10.1399 29.0906 10.1646C29.0906 10.1894 29.0298 10.2097 28.9556 10.2097C28.8814 10.2097 28.8207 10.2298 28.8207 10.2546C28.8207 10.2794 28.76 10.2996 28.6858 10.2996C28.6116 10.2996 28.5508 10.3199 28.5508 10.3447C28.5508 10.3694 28.4901 10.3897 28.4159 10.3897C28.3417 10.3897 28.281 10.41 28.281 10.4346C28.281 10.4594 28.2315 10.4796 28.1711 10.4796C28.1108 10.4796 28.0489 10.4999 28.0336 10.5247C28.0184 10.5494 27.9563 10.5697 27.896 10.5697C27.8356 10.5697 27.7862 10.5855 27.7862 10.6049C27.7862 10.6242 27.6934 10.6674 27.5801 10.7009C27.4667 10.7345 27.3634 10.7896 27.3504 10.8234C27.3367 10.8588 27.2612 10.8847 27.1717 10.8847C27.0795 10.8847 27.0276 10.9031 27.0441 10.9298C27.0599 10.9554 27.0221 10.9748 26.9569 10.9748C26.8935 10.9748 26.8418 10.9951 26.8418 11.0198C26.8418 11.0446 26.7924 11.0649 26.7319 11.0649C26.6716 11.0649 26.6096 11.085 26.5944 11.1098C26.579 11.1346 26.5273 11.1548 26.4793 11.1548C26.4313 11.1548 26.3919 11.1751 26.3919 11.1999C26.3919 11.2246 26.3526 11.2449 26.3047 11.2449C26.2567 11.2449 26.205 11.2652 26.1896 11.2899C26.1744 11.3147 26.1137 11.335 26.0547 11.335C25.9958 11.335 25.9351 11.3551 25.9197 11.3799C25.9045 11.4047 25.8526 11.4249 25.8047 11.4249C25.7567 11.4249 25.7174 11.4452 25.7174 11.4699C25.7174 11.4947 25.6768 11.515 25.6274 11.515C25.578 11.515 25.5374 11.5351 25.5374 11.5599C25.5374 11.5847 25.497 11.6049 25.4475 11.6049C25.398 11.6049 25.3575 11.6252 25.3575 11.65C25.3575 11.6747 25.3171 11.695 25.2677 11.695C25.2181 11.695 25.1777 11.7153 25.1777 11.7399C25.1777 11.7647 25.1504 11.7851 25.1171 11.7851C25.0542 11.7851 24.7672 11.9156 24.728 11.9622C24.7155 11.9768 24.6042 12.0392 24.4806 12.1007C24.3569 12.1623 24.249 12.2277 24.2407 12.2463C24.2324 12.2649 24.1869 12.2801 24.1395 12.2801C24.0921 12.2801 24.0533 12.3004 24.0533 12.3252C24.0533 12.3499 24.0129 12.3702 23.9633 12.3702C23.9139 12.3702 23.8734 12.3903 23.8734 12.4151C23.8734 12.44 23.8459 12.4601 23.8123 12.4601C23.726 12.4601 23.1988 12.7374 23.1988 12.7828C23.1988 12.8034 23.1583 12.8203 23.1088 12.8203C23.0594 12.8203 23.0189 12.8406 23.0189 12.8652C23.0189 12.89 22.9907 12.9103 22.9562 12.9103C22.9217 12.9103 22.8457 12.9605 22.7875 13.022C22.7292 13.0835 22.6461 13.1342 22.6028 13.1346C22.5595 13.135 22.5241 13.1556 22.5241 13.1804C22.5241 13.2051 22.4882 13.2254 22.4441 13.2254C22.4001 13.2254 22.335 13.2659 22.2993 13.3155C22.2635 13.3649 22.1985 13.4054 22.1544 13.4054C22.1103 13.4054 22.0744 13.4243 22.0744 13.4475C22.0744 13.4705 22.034 13.5022 21.9847 13.5178C21.9354 13.5335 21.8667 13.5747 21.8321 13.6093C21.7976 13.644 21.7425 13.6781 21.7099 13.6852C21.6773 13.6922 21.6141 13.7302 21.5694 13.7696C21.5248 13.8089 21.4332 13.8697 21.3658 13.9047C21.2362 13.9718 21.0933 14.0832 20.9229 14.2495C20.8658 14.3052 20.7954 14.3507 20.7662 14.3507C20.7371 14.3507 20.6804 14.3862 20.6404 14.4297C20.6004 14.4733 20.5107 14.5381 20.4411 14.5739C20.3714 14.6098 20.2553 14.6958 20.1829 14.765C20.1106 14.8341 20.0308 14.8909 20.0059 14.8909C19.981 14.8909 19.9606 14.911 19.9606 14.9358C19.9606 14.9606 19.9397 14.9808 19.914 14.9808C19.8885 14.9808 19.7975 15.0466 19.712 15.1271C19.2979 15.5162 19.2415 15.5659 19.2153 15.5659C19.1998 15.5659 19.1304 15.6267 19.0611 15.701C18.9917 15.7752 18.9166 15.836 18.894 15.836C18.8473 15.836 18.2515 16.3995 18.2515 16.4438C18.2515 16.4799 18.1322 16.6013 18.0967 16.6013C18.0635 16.6013 17.2171 17.4466 17.2171 17.4799C17.2171 17.4935 17.1513 17.5717 17.0709 17.6538C16.8631 17.8658 16.5274 18.2598 16.4786 18.3489C16.4558 18.3903 16.4001 18.4569 16.3549 18.4971C16.3096 18.5371 16.2726 18.5853 16.2726 18.6043C16.2726 18.6233 16.2307 18.6751 16.1797 18.7193C16.1285 18.7637 16.0932 18.8136 16.101 18.8303C16.1148 18.8599 16.0454 18.9491 15.7442 19.2895C15.6637 19.3803 15.5979 19.481 15.5979 19.5133C15.5979 19.5457 15.5816 19.5721 15.5614 19.5721C15.5413 19.5721 15.4971 19.6428 15.463 19.7296C15.4291 19.8162 15.3872 19.8871 15.3701 19.8871C15.353 19.8871 15.3139 19.9479 15.2832 20.0222C15.2524 20.0964 15.2095 20.1572 15.1878 20.1572C15.1661 20.1572 15.1482 20.1977 15.1482 20.2473C15.1482 20.2967 15.1279 20.3372 15.1033 20.3372C15.0785 20.3372 15.0582 20.3677 15.0582 20.4048C15.0582 20.4419 15.0381 20.4722 15.0133 20.4722C14.9885 20.4722 14.9684 20.5027 14.9684 20.5398C14.9684 20.577 14.9481 20.6073 14.9233 20.6073C14.8987 20.6073 14.8784 20.6478 14.8784 20.6974C14.8784 20.7468 14.8581 20.7873 14.8334 20.7873C14.8086 20.7873 14.7884 20.8379 14.7884 20.8998C14.7884 20.9699 14.763 21.0124 14.721 21.0124C14.6834 21.0124 14.6534 21.0524 14.6534 21.1025C14.6534 21.1519 14.6333 21.1924 14.6085 21.1924C14.5837 21.1924 14.5636 21.2329 14.5636 21.2825C14.5636 21.332 14.5433 21.3724 14.5185 21.3724C14.4939 21.3724 14.4736 21.413 14.4736 21.4625C14.4736 21.512 14.4534 21.5526 14.4286 21.5526C14.4039 21.5526 14.3837 21.593 14.3837 21.6425C14.3837 21.6921 14.3634 21.7326 14.3386 21.7326C14.314 21.7326 14.2937 21.7719 14.2937 21.8199C14.2937 21.8681 14.2734 21.9198 14.2488 21.9351C14.224 21.9504 14.2037 22.0022 14.2037 22.0504C14.2037 22.0984 14.1872 22.1377 14.1669 22.1377C14.1466 22.1377 14.1025 22.239 14.0688 22.3627C14.0351 22.4866 13.9909 22.5878 13.9708 22.5878C13.9505 22.5878 13.9338 22.6384 13.9338 22.7004C13.9338 22.7623 13.9137 22.8129 13.8889 22.8129C13.8641 22.8129 13.844 22.8737 13.844 22.948C13.844 23.0222 13.8237 23.083 13.7989 23.083C13.7743 23.083 13.754 23.1436 13.754 23.218C13.754 23.2923 13.7337 23.3529 13.709 23.3529C13.6843 23.3529 13.664 23.425 13.664 23.5132C13.664 23.6065 13.6456 23.662 13.6199 23.6461C13.5953 23.6309 13.563 23.6996 13.5466 23.802C13.5305 23.9027 13.4998 23.9961 13.4782 24.0093C13.4567 24.0226 13.4392 24.1133 13.4392 24.2109C13.4392 24.3084 13.4189 24.3883 13.3943 24.3883C13.3695 24.3883 13.3492 24.4692 13.3492 24.5683C13.3492 24.6674 13.329 24.7483 13.3043 24.7483C13.2795 24.7483 13.2593 24.8484 13.2593 24.9708C13.2593 25.0931 13.239 25.2057 13.2142 25.221C13.1896 25.2363 13.1693 25.3781 13.1693 25.5361C13.1693 25.694 13.1513 25.8345 13.1293 25.8481C12.9841 25.9379 13.0709 29.9697 13.2182 29.9697C13.2408 29.9697 13.2593 30.0811 13.2593 30.2173C13.2593 30.3535 13.2774 30.4649 13.2998 30.4649C13.3219 30.4649 13.3514 30.5509 13.3651 30.6562C13.413 31.0229 13.4493 31.1861 13.489 31.2106C13.5111 31.2242 13.529 31.2924 13.529 31.3622C13.529 31.4319 13.5595 31.5143 13.5966 31.5451C13.6337 31.576 13.664 31.6594 13.664 31.7307C13.664 31.802 13.6843 31.8603 13.709 31.8603C13.7337 31.8603 13.754 31.921 13.754 31.9953C13.754 32.0696 13.7743 32.1302 13.7989 32.1302C13.8237 32.1302 13.844 32.191 13.844 32.2652C13.844 32.3395 13.8641 32.4003 13.8889 32.4003C13.9137 32.4003 13.9338 32.4511 13.9338 32.5128C13.9338 32.5748 13.9541 32.6254 13.9789 32.6254C14.0035 32.6254 14.0238 32.6749 14.0238 32.7352C14.0238 32.7957 14.0441 32.8576 14.0688 32.873C14.0936 32.8882 14.1138 32.9402 14.1138 32.9882C14.1138 33.0362 14.134 33.0755 14.1588 33.0755C14.1836 33.0755 14.2037 33.1148 14.2037 33.1628C14.2037 33.211 14.224 33.2628 14.2488 33.2781C14.2734 33.2934 14.2937 33.3553 14.2937 33.4158C14.2937 33.4761 14.314 33.5256 14.3386 33.5256C14.3634 33.5256 14.3837 33.5476 14.3837 33.5745C14.3837 33.6474 14.6657 34.2008 14.7028 34.2008C14.7205 34.2008 14.8304 34.3933 14.9471 34.6284C15.0636 34.8637 15.1768 35.056 15.1987 35.056C15.2204 35.056 15.2382 35.0965 15.2382 35.1461C15.2382 35.1955 15.255 35.236 15.2755 35.236C15.2961 35.236 15.3416 35.2917 15.3766 35.3599C15.4117 35.4279 15.4519 35.4938 15.4659 35.5061C15.48 35.5186 15.571 35.6501 15.6684 35.7987C15.7656 35.9472 15.9009 36.1275 15.969 36.1993C16.0369 36.2709 16.0927 36.3497 16.0927 36.3741C16.0927 36.3984 16.1327 36.4531 16.1819 36.4958C16.2309 36.5383 16.297 36.6233 16.3287 36.6845C16.4019 36.8256 16.7645 37.254 17.0709 37.561C17.2008 37.6913 17.307 37.8104 17.307 37.8259C17.307 37.8413 17.3841 37.9281 17.4782 38.0191C17.5724 38.11 17.6628 38.2198 17.6792 38.2631C17.6956 38.3064 17.7412 38.3418 17.7805 38.3418C17.8199 38.3418 17.8403 38.3608 17.826 38.384C17.8116 38.4072 17.8915 38.4895 18.0035 38.5665C18.2048 38.7052 18.4314 38.9101 18.4314 38.9535C18.4314 38.9921 18.932 39.4671 18.9726 39.4671C18.9937 39.4671 19.0392 39.5076 19.0737 39.5569C19.1084 39.6062 19.1462 39.6371 19.1578 39.6254C19.1695 39.6138 19.2826 39.6999 19.4092 39.817C19.5359 39.934 19.7061 40.0804 19.7872 40.1423C19.8685 40.2043 19.9711 40.2903 20.0152 40.3337C20.0594 40.377 20.1113 40.4124 20.1306 40.4124C20.1498 40.4124 20.1948 40.4529 20.2304 40.5025C20.2661 40.552 20.3211 40.5924 20.3527 40.5924C20.3845 40.5924 20.4103 40.6114 20.4103 40.6345C20.4103 40.6576 20.4483 40.6884 20.4948 40.7032C20.5412 40.718 20.6374 40.7801 20.7084 40.8413C20.7794 40.9024 20.8584 40.9524 20.8839 40.9524C20.9093 40.9526 20.9593 40.9931 20.9949 41.0425C21.0306 41.0921 21.0822 41.1326 21.1096 41.1326C21.1368 41.1326 21.2061 41.1826 21.2635 41.2437C21.3209 41.3049 21.3831 41.3455 21.4016 41.3341C21.4202 41.3226 21.447 41.3435 21.461 41.3805C21.4752 41.4175 21.5179 41.4476 21.5558 41.4476C21.5937 41.4476 21.6247 41.4655 21.6247 41.4872C21.6247 41.509 21.6854 41.5519 21.7596 41.5827C21.8338 41.6134 21.8945 41.6565 21.8945 41.6783C21.8945 41.7 21.9305 41.7177 21.9745 41.7177C22.0184 41.7177 22.0837 41.7583 22.1193 41.8078C22.155 41.8573 22.2202 41.8979 22.2643 41.8979C22.3082 41.8979 22.3443 41.9143 22.3443 41.9344C22.3443 41.9742 22.6853 42.1678 22.7553 42.1678C22.7788 42.1678 22.8486 42.2186 22.9105 42.2804C22.9724 42.3423 23.0486 42.3929 23.0799 42.3929C23.1112 42.3929 23.1769 42.4283 23.2257 42.4717C23.2747 42.5151 23.3443 42.5571 23.3804 42.5651C23.4166 42.5731 23.4528 42.5985 23.4611 42.6214C23.4694 42.6443 23.5039 42.663 23.5378 42.663C23.5718 42.663 23.6966 42.72 23.8152 42.7898C23.9337 42.8594 24.0966 42.9454 24.1769 42.9808C24.2574 43.0161 24.3232 43.0605 24.3232 43.0792C24.3232 43.0979 24.3494 43.1131 24.3816 43.1131C24.4643 43.1131 24.6822 43.219 24.6826 43.2595C24.6827 43.278 24.7222 43.2931 24.7703 43.2931C24.8182 43.2931 24.87 43.3134 24.8854 43.3382C24.9006 43.3629 24.9414 43.3832 24.9759 43.3832C25.0104 43.3832 25.1133 43.4338 25.2045 43.4957C25.2955 43.5575 25.3991 43.6083 25.4345 43.6083C25.4699 43.6083 25.5294 43.6388 25.5668 43.6762C25.6041 43.7136 25.6532 43.7326 25.676 43.7185C25.6987 43.7045 25.7174 43.7143 25.7174 43.7406C25.7174 43.7668 25.7567 43.7883 25.8047 43.7883C25.8526 43.7883 25.9045 43.8086 25.9197 43.8333C25.9351 43.8581 25.9868 43.8784 26.0348 43.8784C26.0829 43.8784 26.1222 43.8985 26.1222 43.9234C26.1222 43.948 26.1615 43.9683 26.2095 43.9683C26.2574 43.9683 26.3093 43.9886 26.3245 44.0133C26.3397 44.0381 26.4018 44.0584 26.4621 44.0584C26.5225 44.0584 26.5719 44.0786 26.5719 44.1034C26.5719 44.1282 26.6112 44.1483 26.6592 44.1483C26.7072 44.1483 26.759 44.1686 26.7743 44.1934C26.7896 44.2181 26.8503 44.2384 26.9092 44.2384C26.9682 44.2384 27.0289 44.2587 27.0441 44.2834C27.0595 44.3082 27.1112 44.3285 27.1592 44.3285C27.2072 44.3285 27.2466 44.3486 27.2466 44.3734C27.2466 44.3982 27.3072 44.4184 27.3814 44.4184C27.4556 44.4184 27.5163 44.4387 27.5163 44.4635C27.5163 44.4882 27.5551 44.5085 27.6025 44.5085C27.6499 44.5085 27.6959 44.5298 27.7046 44.5559C27.7133 44.582 27.7504 44.6078 27.787 44.6132C27.8497 44.6225 28.054 44.6949 28.2585 44.7802C28.4711 44.8688 28.9001 45.0035 28.9698 45.0035C29.0114 45.0035 29.0455 45.0238 29.0455 45.0487C29.0455 45.0733 29.0949 45.0936 29.1553 45.0936C29.2156 45.0936 29.2762 45.1116 29.2898 45.1337C29.3035 45.1557 29.3855 45.186 29.4723 45.2012C29.5591 45.2163 29.701 45.241 29.7875 45.2561C29.8742 45.2712 29.9451 45.3016 29.9451 45.3237C29.9451 45.3457 30.0058 45.3637 30.08 45.3637C30.1542 45.3637 30.2149 45.384 30.2149 45.4087C30.2149 45.4335 30.2857 45.4538 30.3723 45.4538C30.4589 45.4538 30.5297 45.4739 30.5297 45.4987C30.5297 45.5235 30.609 45.5437 30.7058 45.5437C30.8028 45.5437 30.8887 45.5631 30.897 45.5868C30.9053 45.6104 30.9873 45.6348 31.0793 45.6409C31.1714 45.647 31.2558 45.6758 31.267 45.705C31.2782 45.7343 31.3547 45.7693 31.437 45.7827C31.5193 45.7962 31.6777 45.8306 31.7891 45.8592C31.9004 45.8878 32.0724 45.9217 32.1712 45.9346C32.2702 45.9475 32.3704 45.9762 32.3939 45.9984C32.4175 46.0206 32.5136 46.0389 32.6075 46.0389C32.7015 46.0389 32.7785 46.0591 32.7785 46.0839C32.7785 46.1087 32.8594 46.1288 32.9584 46.1288C33.0574 46.1288 33.1382 46.1454 33.1382 46.1655C33.1382 46.1857 33.2327 46.207 33.3482 46.213C33.4637 46.2189 33.5939 46.243 33.6375 46.2663C33.6813 46.2898 33.8196 46.309 33.9449 46.309C34.0701 46.309 34.1726 46.3292 34.1726 46.354C34.1726 46.3788 34.2726 46.3989 34.3949 46.3989C34.5171 46.3989 34.6296 46.4192 34.6449 46.444C34.6602 46.4687 34.7929 46.489 34.9399 46.489C35.088 46.489 35.2071 46.509 35.2071 46.534C35.2071 46.5591 35.327 46.5791 35.477 46.5791C35.6254 46.5791 35.7469 46.5965 35.7469 46.6177C35.7469 46.639 35.9131 46.6603 36.1163 46.6652C36.3196 46.6702 36.5107 46.6947 36.5409 46.7199C36.5711 46.745 36.6528 46.7591 36.7223 46.7511L36.8486 46.7366L36.8712 43.9009C36.8946 40.9533 36.8898 40.8625 36.7127 40.8625C36.6762 40.8625 36.6463 40.8423 36.6463 40.8175C36.6463 40.7927 36.5856 40.7726 36.5114 40.7726C36.4372 40.7726 36.3764 40.7556 36.3764 40.735C36.3764 40.7144 36.3464 40.6974 36.3099 40.6974C36.2275 40.6974 35.8867 40.5979 35.7812 40.5431C35.7382 40.5208 35.6624 40.5025 35.6125 40.5025C35.5627 40.5025 35.5219 40.4822 35.5219 40.4574C35.5219 40.4327 35.4612 40.4124 35.387 40.4124C35.3128 40.4124 35.2521 40.3921 35.2521 40.3675C35.2521 40.3426 35.1913 40.3223 35.1171 40.3223C35.0429 40.3223 34.9822 40.3022 34.9822 40.2774C34.9822 40.2526 34.9415 40.2324 34.8916 40.2324C34.8012 40.2324 34.769 40.2198 34.5031 40.0813C34.4251 40.0407 34.3288 40.0073 34.2894 40.0073C34.25 40.0073 34.2177 39.9871 34.2177 39.9623C34.2177 39.9375 34.1772 39.9174 34.1277 39.9174C34.0783 39.9174 34.0378 39.8959 34.0378 39.8696C34.0378 39.8434 34.0212 39.8322 34.0009 39.8448C33.9804 39.8575 33.9074 39.8383 33.8383 39.8025C33.7691 39.7667 33.6846 39.7372 33.6503 39.7372C33.6161 39.7372 33.588 39.717 33.588 39.6922C33.588 39.6674 33.5574 39.6473 33.52 39.6473C33.4824 39.6473 33.4168 39.6273 33.3737 39.6029C33.199 39.5038 32.6818 39.2871 32.6199 39.2871C32.5834 39.2871 32.5536 39.2668 32.5536 39.2422C32.5536 39.2173 32.5131 39.197 32.4636 39.197C32.4141 39.197 32.3737 39.1769 32.3737 39.1521C32.3737 39.1273 32.3424 39.1071 32.3043 39.1071C32.2662 39.1071 32.1963 39.0716 32.1492 39.0283C32.102 38.985 31.946 38.8895 31.8025 38.8161C31.6591 38.7429 31.5315 38.6715 31.5192 38.6576C31.5067 38.6437 31.4005 38.5822 31.2831 38.521C31.1656 38.4596 31.0695 38.3943 31.0695 38.3758C31.0695 38.3571 31.0413 38.3418 31.0071 38.3418C30.9138 38.3418 30.7066 38.2249 30.7403 38.1911C30.7564 38.175 30.7257 38.1618 30.6721 38.1618C30.6186 38.1618 30.5747 38.1415 30.5747 38.1169C30.5747 38.092 30.5387 38.0717 30.4947 38.0717C30.4506 38.0717 30.3854 38.0313 30.3497 37.9818C30.3141 37.9322 30.257 37.8917 30.2226 37.8917C30.1884 37.8917 30.1206 37.8411 30.0719 37.7792C30.0232 37.7174 29.9596 37.6659 29.9304 37.6649C29.9015 37.6639 29.8075 37.6031 29.7219 37.5298C29.6362 37.4566 29.5474 37.3967 29.5243 37.3967C29.5013 37.3967 29.4245 37.3359 29.3536 37.2616C29.2826 37.1874 29.2035 37.1266 29.1777 37.1266C29.1517 37.1266 29.0659 37.066 28.9869 36.9917C28.9078 36.9176 28.8297 36.8568 28.8133 36.8567C28.7968 36.8567 28.6301 36.7046 28.4427 36.519C28.2555 36.3332 28.0865 36.1813 28.0675 36.1813C28.0484 36.1813 28.0075 36.1408 27.9766 36.0912C27.9456 36.0418 27.9008 36.0013 27.877 36.0013C27.8212 36.0013 27.4264 35.6073 27.4264 35.5519C27.4264 35.5289 27.3556 35.4534 27.2691 35.3843C27.1824 35.3152 27.1117 35.2428 27.1117 35.2237C27.1117 35.2044 27.0205 35.0975 26.9092 34.9861C26.7979 34.8747 26.7069 34.7647 26.7069 34.7418C26.7069 34.7188 26.6563 34.6494 26.5944 34.5875C26.5325 34.5256 26.4819 34.4526 26.4819 34.4253C26.4819 34.3979 26.4616 34.3881 26.437 34.4034C26.4122 34.4187 26.3919 34.3988 26.3919 34.359C26.3919 34.3193 26.3413 34.2323 26.2796 34.1655C26.2177 34.0988 26.1671 34.0231 26.1671 33.9974C26.1671 33.9716 26.1267 33.9214 26.0771 33.8857C26.0277 33.8501 25.9873 33.7941 25.9873 33.7614C25.9873 33.7287 25.9467 33.6585 25.8973 33.6052C25.8478 33.5521 25.8073 33.4821 25.8073 33.4496C25.8073 33.4172 25.7871 33.3905 25.7623 33.3905C25.7376 33.3905 25.7174 33.3608 25.7174 33.3244C25.7174 33.2881 25.6789 33.1895 25.6316 33.1055C25.5502 32.9605 25.5049 32.8745 25.4025 32.6711C25.3778 32.6218 25.3575 32.551 25.3575 32.5134C25.3575 32.476 25.3374 32.4454 25.3126 32.4454C25.2878 32.4454 25.2677 32.4048 25.2677 32.3553C25.2677 32.3059 25.2474 32.2652 25.2226 32.2652C25.198 32.2652 25.1777 32.2241 25.1777 32.1734C25.1777 32.123 25.1372 32.0023 25.0877 31.9052C25.0383 31.8082 24.9978 31.6868 24.9978 31.6356C24.9978 31.5842 24.9674 31.5306 24.9303 31.5164C24.8864 31.4995 24.8629 31.4295 24.8629 31.3153C24.8629 31.2189 24.8426 31.1399 24.8178 31.1399C24.7932 31.1399 24.7729 31.0489 24.7729 30.9375C24.7729 30.8261 24.7526 30.735 24.728 30.735C24.7032 30.735 24.6829 30.6336 24.6829 30.5099C24.6829 30.3861 24.6627 30.2847 24.638 30.2847C24.6111 30.2847 24.593 30.1123 24.593 29.8571C24.593 29.6021 24.5749 29.4295 24.5479 29.4295C24.4888 29.4295 24.4888 28.7685 24.5479 28.7318C24.5732 28.7163 24.593 28.5064 24.593 28.2566C24.593 27.9883 24.611 27.8092 24.638 27.8092C24.6627 27.8092 24.6829 27.7079 24.6829 27.584C24.6829 27.4603 24.7032 27.3591 24.728 27.3591C24.7526 27.3591 24.7729 27.278 24.7729 27.1791C24.7729 27.08 24.7932 26.9989 24.8178 26.9989C24.8426 26.9989 24.8629 26.9367 24.8629 26.8607C24.8629 26.7847 24.8932 26.6921 24.9303 26.655C24.9674 26.6177 24.9978 26.5281 24.9978 26.4556C24.9978 26.383 25.018 26.3237 25.0427 26.3237C25.0675 26.3237 25.0877 26.2844 25.0877 26.2364C25.0877 26.1884 25.108 26.1366 25.1328 26.1212C25.1574 26.106 25.1777 26.0452 25.1777 25.9862C25.1777 25.9273 25.198 25.8665 25.2226 25.8511C25.2474 25.8359 25.2677 25.784 25.2677 25.736C25.2677 25.688 25.2878 25.6486 25.3126 25.6486C25.3374 25.6486 25.3575 25.608 25.3575 25.5586C25.3575 25.5091 25.3778 25.4685 25.4025 25.4685C25.4273 25.4685 25.4475 25.4401 25.4475 25.4052C25.4475 25.3303 25.6351 24.9575 25.6836 24.9359C25.7022 24.9276 25.7174 24.8821 25.7174 24.8346C25.7174 24.7872 25.7376 24.7483 25.7623 24.7483C25.7871 24.7483 25.8073 24.718 25.8073 24.6809C25.8073 24.6437 25.8225 24.6131 25.841 24.613C25.8787 24.6126 25.9873 24.3969 25.9873 24.3224C25.9873 24.2962 26.0379 24.2366 26.0996 24.1902C26.1615 24.1436 26.2121 24.088 26.2121 24.0664C26.2121 24.045 26.2728 23.9637 26.347 23.886C26.4212 23.8084 26.4819 23.7266 26.4819 23.7044C26.4819 23.6822 26.5274 23.6168 26.5831 23.5592C26.7514 23.3848 26.8418 23.2645 26.8418 23.2147C26.8418 23.1394 28.6013 21.4101 28.722 21.3666C28.7746 21.3478 29.1104 21.0633 29.3397 20.8436C29.4236 20.7632 29.5233 20.6974 29.5613 20.6974C29.5991 20.6974 29.6301 20.6771 29.6301 20.6522C29.6301 20.6276 29.6606 20.6073 29.6977 20.6073C29.7348 20.6073 29.7651 20.587 29.7651 20.5623C29.7651 20.5375 29.7955 20.5172 29.8326 20.5172C29.8697 20.5172 29.9 20.497 29.9 20.4722C29.9 20.4474 29.9212 20.4273 29.947 20.4273C29.9726 20.4273 30.0373 20.3868 30.0903 20.3372C30.1433 20.2877 30.2134 20.2473 30.2458 20.2473C30.2783 20.2473 30.3048 20.227 30.3048 20.2022C30.3048 20.1775 30.3313 20.1572 30.3638 20.1572C30.3963 20.1572 30.4663 20.1167 30.5193 20.0671C30.5725 20.0177 30.6341 19.9772 30.6561 19.9772C30.6783 19.9772 30.751 19.9266 30.8177 19.8646C30.8845 19.8027 30.9684 19.7521 31.0042 19.7521C31.04 19.7521 31.0695 19.7318 31.0695 19.7071C31.0695 19.6823 31.1054 19.662 31.1495 19.662C31.1934 19.662 31.2586 19.6215 31.2943 19.5721C31.3299 19.5225 31.3951 19.482 31.4392 19.482C31.4831 19.482 31.5192 19.4617 31.5192 19.437C31.5192 19.4122 31.5596 19.3919 31.609 19.3919C31.6586 19.3919 31.6991 19.3717 31.6991 19.3469C31.6991 19.3221 31.7395 19.302 31.7891 19.302C31.8385 19.302 31.8789 19.2817 31.8789 19.257C31.8789 19.2322 31.9053 19.2119 31.9375 19.2119C32.0202 19.2119 32.2379 19.106 32.2383 19.0657C32.2386 19.0471 32.2592 19.0319 32.2843 19.0319C32.366 19.0319 33.0033 18.7087 33.0033 18.6672C33.0033 18.6449 33.0426 18.6268 33.0907 18.6268C33.1387 18.6268 33.1904 18.6065 33.2058 18.5818C33.221 18.557 33.2727 18.5367 33.3208 18.5367C33.3688 18.5367 33.4081 18.5165 33.4081 18.4917C33.4081 18.4669 33.4485 18.4468 33.4981 18.4468C33.5475 18.4468 33.588 18.4265 33.588 18.4017C33.588 18.377 33.6374 18.3567 33.6978 18.3567C33.7581 18.3567 33.8201 18.3365 33.8354 18.3117C33.8507 18.2869 33.9025 18.2668 33.9504 18.2668C33.9984 18.2668 34.0378 18.2464 34.0378 18.2216C34.0378 18.197 34.0984 18.1767 34.1726 18.1767C34.247 18.1767 34.3075 18.1564 34.3075 18.1317C34.3075 18.1069 34.3468 18.0866 34.3949 18.0866C34.4429 18.0866 34.4946 18.0664 34.51 18.0416C34.5252 18.0168 34.5973 17.9967 34.67 17.9967C34.7428 17.9967 34.8023 17.9764 34.8023 17.9516C34.8023 17.9269 34.8428 17.9066 34.8923 17.9066C34.9418 17.9066 34.9822 17.8863 34.9822 17.8616C34.9822 17.8368 35.0177 17.8161 35.0609 17.8154C35.1771 17.8138 35.7419 17.6143 35.8025 17.5537C35.8312 17.525 35.9114 17.5015 35.9806 17.5015C36.0499 17.5015 36.1066 17.4812 36.1066 17.4565C36.1066 17.4317 36.1662 17.4114 36.2389 17.4114C36.3117 17.4114 36.3837 17.3912 36.3989 17.3664C36.4143 17.3416 36.475 17.3215 36.5338 17.3215C36.5928 17.3215 36.6536 17.3012 36.6688 17.2765C36.6841 17.2517 36.7776 17.2314 36.8765 17.2314C36.985 17.2314 37.0453 17.2135 37.0286 17.1864C37.0121 17.1597 37.0647 17.1415 37.1582 17.1415C37.2447 17.1415 37.3281 17.1212 37.3434 17.0963C37.3587 17.0717 37.4397 17.0514 37.5233 17.0514C37.6069 17.0514 37.6879 17.0311 37.7032 17.0064C37.7185 16.9816 37.8108 16.9613 37.9082 16.9613C38.0058 16.9613 38.0855 16.9411 38.0855 16.9163C38.0855 16.8915 38.1665 16.8714 38.2653 16.8714C38.3643 16.8714 38.4454 16.8511 38.4454 16.8263C38.4454 16.8016 38.5262 16.7813 38.6252 16.7813C38.7242 16.7813 38.8051 16.761 38.8051 16.7363C38.8051 16.7115 38.9023 16.6912 39.021 16.6912C39.1397 16.6912 39.2561 16.6721 39.2796 16.6487C39.3031 16.6252 39.4096 16.601 39.5164 16.5948C39.6231 16.5884 39.7205 16.5671 39.7326 16.5473C39.7448 16.5275 39.8499 16.5106 39.9658 16.5098C40.0819 16.509 40.2161 16.4786 40.2641 16.4423C40.3128 16.4055 40.4472 16.3762 40.5677 16.3762C40.6867 16.3762 40.784 16.356 40.784 16.3312C40.784 16.3052 40.9256 16.2862 41.1186 16.2862C41.3027 16.2862 41.4659 16.2659 41.4811 16.2411C41.4965 16.2165 41.6584 16.1962 41.841 16.1962C42.0236 16.1962 42.1855 16.1759 42.2007 16.1512C42.2161 16.1264 42.4095 16.1061 42.6307 16.1061C42.8687 16.1061 43.0327 16.0878 43.0327 16.0611C43.0327 16.0331 43.2801 16.0162 43.6849 16.0162C44.0973 16.0162 44.337 15.9993 44.337 15.9703C44.337 15.8805 50.2025 15.9722 50.294 16.0634C50.3175 16.0869 50.5553 16.1061 50.8224 16.1061C51.1163 16.1061 51.3082 16.1239 51.3082 16.1512C51.3082 16.1776 51.4656 16.1962 51.6904 16.1962C51.9154 16.1962 52.0728 16.2147 52.0728 16.2411C52.0728 16.2677 52.2301 16.2862 52.4551 16.2862C52.6799 16.2862 52.8373 16.3047 52.8373 16.3312C52.8373 16.356 52.9502 16.3762 53.0879 16.3762C53.2506 16.3762 53.3621 16.3998 53.406 16.4438C53.4492 16.487 53.5602 16.5112 53.715 16.5112C53.8477 16.5112 53.9689 16.5315 53.9843 16.5562C53.9995 16.581 54.1221 16.6013 54.2567 16.6013C54.3912 16.6013 54.5014 16.6215 54.5014 16.6463C54.5014 16.6711 54.6025 16.6912 54.7263 16.6912C54.8499 16.6912 54.9511 16.7095 54.9511 16.7317C54.9511 16.754 55.0372 16.7838 55.1423 16.7978C55.6501 16.8659 55.7413 16.8834 55.781 16.921C55.8045 16.9432 55.8791 16.9613 55.9469 16.9613C56.0148 16.9613 56.0827 16.9816 56.0981 17.0064C56.1133 17.0311 56.1943 17.0514 56.278 17.0514C56.3616 17.0514 56.4426 17.0717 56.4578 17.0963C56.4732 17.1212 56.5541 17.1415 56.6377 17.1415C56.7215 17.1415 56.8023 17.1616 56.8177 17.1864C56.8329 17.2112 56.9049 17.2314 56.9777 17.2314C57.0505 17.2314 57.11 17.2517 57.11 17.2765C57.11 17.3012 57.1807 17.3215 57.2674 17.3215C57.3539 17.3215 57.4248 17.3416 57.4248 17.3664C57.4248 17.3912 57.4844 17.4114 57.5571 17.4114C57.6299 17.4114 57.7019 17.4317 57.7171 17.4565C57.7324 17.4812 57.8124 17.5015 57.8948 17.5015C57.9867 17.5015 58.0548 17.5277 58.0708 17.5691C58.085 17.6062 58.134 17.6365 58.1795 17.6365C58.2251 17.6365 58.3461 17.677 58.4486 17.7266C58.5509 17.7761 58.6763 17.8165 58.7269 17.8165C58.7776 17.8165 58.8191 17.8368 58.8191 17.8616C58.8191 17.8863 58.8583 17.9066 58.9063 17.9066C58.9543 17.9066 59.0062 17.9269 59.0214 17.9516C59.0367 17.9764 59.0986 17.9967 59.1591 17.9967C59.2194 17.9967 59.2688 18.0168 59.2688 18.0416C59.2688 18.0664 59.3092 18.0866 59.3588 18.0866C59.4082 18.0866 59.4486 18.1069 59.4486 18.1317C59.4486 18.1564 59.5094 18.1767 59.5836 18.1767C59.6578 18.1767 59.7185 18.197 59.7185 18.2216C59.7185 18.2464 59.7482 18.2668 59.7846 18.2668C59.821 18.2668 59.9227 18.3072 60.0108 18.3567C60.099 18.4063 60.2007 18.4468 60.2371 18.4468C60.2735 18.4468 60.3032 18.4669 60.3032 18.4917C60.3032 18.5165 60.3437 18.5367 60.3932 18.5367C60.4426 18.5367 60.4832 18.557 60.4832 18.5818C60.4832 18.6065 60.5219 18.6268 60.5693 18.6268C60.6167 18.6268 60.6623 18.6437 60.6706 18.6643C60.6787 18.6851 60.8372 18.7808 61.0228 18.8771C61.2083 18.9734 61.3668 19.0679 61.3751 19.087C61.3833 19.1063 61.4187 19.122 61.4538 19.122C61.4889 19.122 61.5175 19.1421 61.5175 19.1669C61.5175 19.1917 61.558 19.2119 61.6076 19.2119C61.657 19.2119 61.6974 19.2322 61.6974 19.257C61.6974 19.2817 61.7239 19.302 61.7564 19.302C61.7889 19.302 61.8589 19.3424 61.9119 19.3919C61.9651 19.4415 62.0397 19.482 62.0779 19.482C62.116 19.482 62.1471 19.5023 62.1471 19.527C62.1471 19.5518 62.1787 19.5721 62.2173 19.5721C62.2558 19.5721 62.277 19.5889 62.2644 19.6095C62.2516 19.6301 62.3112 19.6743 62.3966 19.7078C62.4821 19.7415 62.5519 19.7851 62.5519 19.8049C62.5519 19.8371 62.7828 20.0062 63.0079 20.1386C63.0537 20.1656 63.0777 20.2011 63.0614 20.2174C63.0451 20.2338 63.055 20.2473 63.0834 20.2473C63.1315 20.2473 63.2618 20.3498 63.5266 20.596C63.5865 20.6518 63.6598 20.6981 63.6897 20.699C63.7194 20.6998 63.8247 20.7922 63.9237 20.9042C64.0227 21.0162 64.2604 21.2667 64.4521 21.4609C64.6439 21.6551 64.8007 21.827 64.8007 21.8428C64.8007 21.8588 64.8462 21.918 64.9019 21.9744C64.9575 22.0308 65.0538 22.1445 65.1155 22.2271C65.1774 22.3096 65.2533 22.4027 65.2842 22.4342C65.3151 22.4657 65.3404 22.5131 65.3404 22.5396C65.3404 22.566 65.3607 22.5878 65.3854 22.5878C65.4101 22.5878 65.4304 22.6183 65.4304 22.6554C65.4304 22.6925 65.4506 22.7228 65.4754 22.7228C65.5001 22.7228 65.5203 22.7532 65.5203 22.7903C65.5203 22.8276 65.5406 22.8579 65.5654 22.8579C65.59 22.8579 65.6103 22.8851 65.6103 22.9184C65.6103 22.9517 65.6507 23.0156 65.7001 23.0604C65.7497 23.1052 65.7901 23.1677 65.7901 23.1992C65.7901 23.2308 65.8155 23.2839 65.8464 23.3174C65.9235 23.4009 66.0603 23.6288 66.0905 23.7244C66.1042 23.7676 66.1334 23.8032 66.1552 23.8032C66.1771 23.8032 66.1949 23.8436 66.1949 23.8931C66.1949 23.9427 66.2152 23.9832 66.2399 23.9832C66.2647 23.9832 66.2849 24.0225 66.2849 24.0705C66.2849 24.1187 66.3051 24.1704 66.3299 24.1857C66.3547 24.201 66.3748 24.2528 66.3748 24.3008C66.3748 24.349 66.3951 24.3883 66.4199 24.3883C66.4445 24.3883 66.4648 24.4389 66.4648 24.5009C66.4648 24.5627 66.4851 24.6133 66.5097 24.6133C66.5345 24.6133 66.5548 24.6526 66.5548 24.7007C66.5548 24.7488 66.575 24.8005 66.5997 24.8159C66.6245 24.8311 66.6447 24.8892 66.6447 24.9446C66.6447 25 66.6648 25.0655 66.6895 25.0902C66.714 25.1149 66.7386 25.1897 66.7442 25.2567C66.7497 25.3237 66.77 25.3786 66.7895 25.3786C66.8087 25.3786 66.8245 25.428 66.8245 25.4884C66.8245 25.5488 66.8448 25.6108 66.8696 25.6262C66.8942 25.6414 66.9145 25.712 66.9145 25.7831C66.9145 25.8542 66.945 25.9427 66.9821 25.9798C67.0199 26.0177 67.0495 26.1276 67.0495 26.2306C67.0495 26.3314 67.0698 26.4138 67.0944 26.4138C67.1192 26.4138 67.1395 26.5037 67.1395 26.6137C67.1395 26.7236 67.1596 26.8262 67.1844 26.8414C67.2092 26.8568 67.2293 26.9883 67.2293 27.134C67.2293 27.2796 67.2496 27.4113 67.2744 27.4265C67.3005 27.4428 67.3193 27.6962 67.3193 28.0343C67.3193 28.3722 67.338 28.6257 67.3643 28.6419C67.4183 28.6754 67.4254 29.3846 67.3717 29.3846C67.3509 29.3846 67.3295 29.6617 67.3238 30.0004C67.3182 30.3393 67.2947 30.6519 67.2715 30.6952C67.2483 30.7386 67.2293 30.8754 67.2293 30.9994C67.2293 31.1233 67.2092 31.2373 67.1844 31.2525C67.1596 31.2679 67.1395 31.3703 67.1395 31.4802C67.1395 31.5902 67.1231 31.6801 67.1032 31.6801C67.0834 31.6801 67.0621 31.7657 67.0558 31.8703C67.0496 31.9749 67.0234 32.0736 66.9973 32.0897C66.9713 32.1058 66.9334 32.2077 66.9131 32.3159C66.8928 32.4242 66.8513 32.5736 66.8211 32.6479C66.7906 32.7222 66.7602 32.8112 66.7532 32.8459C66.7151 33.0368 66.6203 33.3006 66.5899 33.3006C66.5706 33.3006 66.5548 33.3411 66.5548 33.3905C66.5548 33.4402 66.5389 33.4806 66.5196 33.4806C66.5002 33.4806 66.4799 33.5363 66.4742 33.6043C66.4686 33.6725 66.4439 33.7349 66.4194 33.7432C66.395 33.7514 66.3748 33.7849 66.3748 33.8177C66.3748 33.89 66.186 34.2623 66.1387 34.2833C66.1202 34.2916 66.1049 34.3428 66.1049 34.3972C66.1049 34.4516 66.0645 34.5253 66.0151 34.561C65.9655 34.5966 65.9248 34.6568 65.9244 34.6947C65.9239 34.7325 65.8632 34.8321 65.7894 34.9159C65.7157 34.9997 65.6552 35.0965 65.6552 35.131C65.6552 35.1657 65.6249 35.2056 65.5878 35.2198C65.5507 35.234 65.5203 35.2798 65.5203 35.3215C65.5203 35.3631 65.4394 35.4868 65.3404 35.5962C65.2414 35.7055 65.1606 35.8213 65.1606 35.8532C65.1606 35.8851 65.1438 35.9112 65.1232 35.9112C65.1026 35.9112 65.0571 35.9665 65.022 36.0341C64.9468 36.1788 63.6444 37.4939 63.3837 37.6881C63.285 37.7618 63.1576 37.8681 63.1008 37.9244C63.0441 37.9807 62.9792 38.0268 62.9567 38.0268C62.9343 38.0268 62.8653 38.0774 62.8034 38.1393C62.7415 38.2013 62.669 38.2519 62.6421 38.2519C62.6151 38.2519 62.5532 38.2892 62.5044 38.3347C62.4556 38.3803 62.3602 38.4461 62.2926 38.4809C62.225 38.5159 62.1429 38.5803 62.1103 38.6239C62.0777 38.6678 62.0322 38.6918 62.0092 38.6776C61.9861 38.6633 61.9673 38.6711 61.9673 38.6949C61.9673 38.7187 61.9116 38.758 61.8436 38.7823C61.7755 38.8066 61.6693 38.8689 61.6076 38.9209C61.5457 38.9729 61.4706 39.036 61.4407 39.0613C61.4109 39.0865 61.3451 39.1071 61.2945 39.1071C61.2441 39.1071 61.2028 39.126 61.2028 39.1492C61.2028 39.1724 61.1319 39.2169 61.0454 39.2482C60.9587 39.2796 60.8878 39.3214 60.8878 39.3412C60.8878 39.361 60.8372 39.3772 60.7755 39.3772C60.7136 39.3772 60.663 39.395 60.663 39.4169C60.663 39.4388 60.6226 39.4673 60.573 39.4802C60.4106 39.5228 60.4782 39.6386 60.8135 39.8911C61.1323 40.1312 61.5531 40.5863 61.6986 40.8484C62.1415 41.6462 62.1844 41.6622 62.7143 41.2253C62.9656 41.018 63.0238 40.9759 63.1485 40.9112C63.2162 40.876 63.2715 40.8305 63.2715 40.8099C63.2715 40.7894 63.2976 40.7726 63.3293 40.7726C63.3612 40.7726 63.4776 40.6921 63.5881 40.5937C63.6985 40.4954 63.8018 40.4144 63.8178 40.4137C63.8439 40.4126 64.0317 40.2545 64.2198 40.0752C64.2589 40.0379 64.3065 40.0073 64.3255 40.0073C64.3443 40.0073 64.4134 39.9501 64.4791 39.8801C64.5446 39.8102 64.6995 39.6767 64.8232 39.5833C65.0978 39.3763 65.7901 38.7103 65.7901 38.6533C65.7901 38.6305 65.8164 38.6119 65.8484 38.6119C65.8804 38.6119 66.0474 38.4582 66.2194 38.2703C66.3915 38.0823 66.6537 37.8033 66.8021 37.6499C66.9505 37.4968 67.1524 37.2708 67.2506 37.1476C67.3489 37.0246 67.4653 36.8976 67.5092 36.8652C67.5533 36.8329 67.5892 36.7772 67.5892 36.7415C67.5892 36.7058 67.6701 36.5906 67.7691 36.4855C67.868 36.3803 67.9489 36.2734 67.9489 36.2477C67.9489 36.2222 67.9895 36.172 68.0389 36.1363C68.0883 36.1007 68.1289 36.0442 68.1289 36.011C68.1289 35.9777 68.1804 35.8961 68.2433 35.8296C68.3759 35.6894 68.7136 35.1703 68.7136 35.1068C68.7136 35.083 68.7294 35.0567 68.7488 35.0485C68.8024 35.0257 68.9834 34.6996 68.9834 34.6258C68.9834 34.5901 69.0036 34.561 69.0284 34.561C69.0532 34.561 69.0733 34.5279 69.0733 34.4874C69.0733 34.4469 69.1088 34.3812 69.152 34.3411C69.1953 34.301 69.2366 34.233 69.2439 34.1898C69.2511 34.1467 69.3068 34.0576 69.3677 33.9919C69.4284 33.9264 69.4782 33.8401 69.4782 33.8005C69.4784 33.7607 69.5188 33.6619 69.5682 33.5808C69.6177 33.4998 69.658 33.3934 69.658 33.3446C69.658 33.2955 69.6782 33.2555 69.703 33.2555C69.7277 33.2555 69.748 33.215 69.748 33.1656C69.748 33.116 69.7683 33.0755 69.7929 33.0755C69.8177 33.0755 69.838 33.0237 69.838 32.9603C69.838 32.8969 69.8539 32.855 69.8736 32.8672C69.8932 32.8794 69.912 32.8521 69.9154 32.8066C69.9188 32.7612 69.9635 32.6373 70.0146 32.5313C70.0659 32.4252 70.1078 32.2928 70.1078 32.237C70.1078 32.1813 70.128 32.1231 70.1528 32.1077C70.1775 32.0925 70.1977 32.0306 70.1977 31.9701C70.1977 31.9096 70.218 31.8603 70.2428 31.8603C70.2674 31.8603 70.2877 31.7995 70.2877 31.7252C70.2877 31.651 70.308 31.5902 70.3326 31.5902C70.3574 31.5902 70.3777 31.5085 70.3777 31.4087C70.3777 31.305 70.4018 31.2178 70.4338 31.2055C70.4648 31.1936 70.4955 31.1088 70.502 31.0171C70.5086 30.9254 70.5339 30.8306 70.5583 30.8062C70.5826 30.7818 70.6025 30.6962 70.6025 30.616C70.6025 30.5358 70.6228 30.4576 70.6474 30.4424C70.6722 30.427 70.6925 30.3145 70.6925 30.192C70.6925 30.0698 70.7126 29.9697 70.7374 29.9697C70.7628 29.9697 70.7823 29.8422 70.7823 29.6771C70.7823 29.5163 70.8002 29.3846 70.8221 29.3846C70.8438 29.3846 70.8651 29.1674 70.8693 28.902C70.8735 28.6364 70.8957 28.4076 70.9186 28.3936C70.991 28.3488 70.9015 25.9316 70.8245 25.8535C70.8013 25.8298 70.7823 25.7148 70.7823 25.5976C70.7823 25.4802 70.7632 25.3337 70.7396 25.2718C70.7161 25.21 70.6921 25.0668 70.6863 24.9539C70.6805 24.8409 70.6592 24.7483 70.639 24.7483C70.619 24.7483 70.6025 24.6987 70.6025 24.6381C70.6025 24.4723 70.4731 24.0078 70.4222 23.9907C70.3977 23.9825 70.3777 23.9076 70.3777 23.8245C70.3777 23.7414 70.3574 23.6609 70.3326 23.6456C70.308 23.6303 70.2877 23.5582 70.2877 23.4854C70.2877 23.4126 70.2674 23.3529 70.2428 23.3529C70.218 23.3529 70.1977 23.3122 70.1977 23.2624C70.1977 23.2125 70.1788 23.1365 70.1558 23.0936C70.1326 23.0507 70.0877 22.9192 70.0559 22.8016C70.0242 22.684 69.9823 22.5878 69.963 22.5878C69.9438 22.5878 69.9278 22.5485 69.9278 22.5005C69.9278 22.4523 69.9077 22.4005 69.8829 22.3853C69.8581 22.3699 69.838 22.308 69.838 22.2475C69.838 22.1872 69.8177 22.1377 69.7929 22.1377C69.7683 22.1377 69.748 22.1094 69.748 22.0748C69.748 22.0401 69.6872 21.8963 69.613 21.7551C69.5388 21.6139 69.4781 21.4787 69.4781 21.4547C69.4781 21.4307 69.4475 21.3805 69.4103 21.3431C69.3729 21.3058 69.3539 21.2565 69.368 21.2338C69.382 21.2111 69.3619 21.1924 69.3233 21.1924C69.2832 21.1924 69.2533 21.154 69.2533 21.1025C69.2533 21.0529 69.233 21.0124 69.2082 21.0124C69.1836 21.0124 69.1633 20.9618 69.1633 20.8998C69.1633 20.8379 69.143 20.7873 69.1184 20.7873C69.0936 20.7873 69.0733 20.7468 69.0733 20.6974C69.0733 20.6478 69.0532 20.6073 69.0284 20.6073C69.0036 20.6073 68.9834 20.5742 68.9834 20.5337C68.9834 20.4934 68.9465 20.4276 68.9013 20.3875C68.8562 20.3475 68.7905 20.2489 68.7553 20.1684C68.7202 20.088 68.6763 20.0222 68.6576 20.0222C68.6389 20.0222 68.6236 19.9934 68.6236 19.9583C68.6236 19.9234 68.6072 19.8878 68.5872 19.8796C68.5672 19.8713 68.4849 19.7484 68.4043 19.6063C68.3237 19.4643 68.2305 19.3327 68.197 19.3137C68.1636 19.2949 68.1295 19.2493 68.1212 19.2123C68.1131 19.1755 68.0507 19.0914 67.9827 19.0255C67.9147 18.9597 67.8591 18.8835 67.8591 18.8562C67.8591 18.8291 67.8388 18.8068 67.814 18.8068C67.7893 18.8068 67.7691 18.7765 67.7691 18.7393C67.7691 18.7022 67.7488 18.6717 67.7241 18.6717C67.6993 18.6717 67.6791 18.6414 67.6791 18.6043C67.6791 18.5672 67.6608 18.5367 67.6383 18.5367C67.616 18.5367 67.5272 18.4405 67.4411 18.3229C67.2196 18.0206 67.1425 17.9279 66.9258 17.7035C66.8206 17.5947 66.7347 17.4938 66.7347 17.4793C66.7347 17.4472 65.8836 16.6013 65.8515 16.6013C65.818 16.6013 65.7001 16.4776 65.7001 16.4425C65.7001 16.4259 65.6345 16.3515 65.5541 16.2771C65.4736 16.2027 65.3132 16.0529 65.1975 15.9439C65.0817 15.8351 64.9698 15.7461 64.9488 15.7461C64.9278 15.7461 64.8813 15.7055 64.8456 15.656C64.81 15.6065 64.7658 15.5659 64.7474 15.5659C64.7288 15.5659 64.6474 15.5062 64.5661 15.4332C64.4849 15.3601 64.3273 15.2184 64.216 15.1182C64.1047 15.0179 64.0015 14.9358 63.9868 14.9358C63.972 14.9358 63.9181 14.9004 63.8669 14.8571C63.6204 14.6483 63.5823 14.6208 63.5409 14.6208C63.5165 14.6208 63.4965 14.6005 63.4965 14.5757C63.4965 14.551 63.4705 14.5307 63.4389 14.5307C63.4073 14.5307 63.3522 14.4902 63.3166 14.4406C63.2809 14.3912 63.2249 14.3507 63.1921 14.3507C63.1593 14.3507 63.0831 14.3011 63.0225 14.2406C62.893 14.1108 62.5299 13.8555 62.4751 13.8555C62.4541 13.8555 62.4077 13.815 62.3721 13.7656C62.3364 13.716 62.2712 13.6755 62.2271 13.6755C62.1832 13.6755 62.1471 13.6552 62.1471 13.6305C62.1471 13.6057 62.1141 13.5854 62.0738 13.5854C62.0334 13.5854 61.9676 13.5486 61.9276 13.5033C61.8876 13.4581 61.7906 13.3931 61.7119 13.3587C61.6334 13.3243 61.5789 13.2804 61.5909 13.2608C61.6029 13.2414 61.5599 13.2254 61.4951 13.2254C61.428 13.2254 61.3893 13.206 61.4051 13.1804C61.4204 13.1556 61.4045 13.1353 61.3697 13.1353C61.3351 13.1353 61.2478 13.0847 61.1759 13.0229C61.1041 12.961 61.02 12.9103 60.9891 12.9103C60.9581 12.9103 60.9329 12.8889 60.9329 12.8626C60.9329 12.8364 60.9142 12.8265 60.8914 12.8406C60.8688 12.8547 60.8196 12.8355 60.7823 12.7982C60.7449 12.7608 60.6945 12.7302 60.67 12.7302C60.6455 12.7302 60.6188 12.7151 60.6106 12.6965C60.589 12.6478 60.2165 12.4601 60.1416 12.4601C60.1068 12.4601 60.0784 12.44 60.0784 12.4151C60.0784 12.3903 60.0378 12.3702 59.9884 12.3702C59.9389 12.3702 59.8984 12.3499 59.8984 12.3252C59.8984 12.3004 59.8579 12.2801 59.8085 12.2801C59.7589 12.2801 59.7184 12.2649 59.7182 12.2463C59.7178 12.206 59.4999 12.1001 59.4172 12.1001C59.385 12.1001 59.3588 12.0823 59.3588 12.0604C59.3588 12.0385 59.3233 12.0083 59.2801 11.9933C59.2368 11.9784 59.1407 11.9269 59.0665 11.8789C58.9922 11.8309 58.896 11.7901 58.8528 11.7882C58.8095 11.7865 58.774 11.7647 58.774 11.7399C58.774 11.7153 58.7477 11.695 58.7156 11.695C58.6328 11.695 58.415 11.5891 58.4146 11.5488C58.4144 11.5302 58.3738 11.515 58.3243 11.515C58.2748 11.515 58.2344 11.4947 58.2344 11.4699C58.2344 11.4452 58.1838 11.4249 58.1219 11.4249C58.06 11.4249 58.0095 11.4047 58.0095 11.3799C58.0095 11.3551 57.96 11.335 57.8998 11.335C57.8393 11.335 57.7774 11.3147 57.7621 11.2899C57.7468 11.2652 57.695 11.2449 57.647 11.2449C57.599 11.2449 57.5597 11.2246 57.5597 11.1999C57.5597 11.1751 57.5205 11.1548 57.4725 11.1548C57.4244 11.1548 57.3726 11.1346 57.3573 11.1098C57.3421 11.085 57.2802 11.0649 57.2197 11.0649C57.1594 11.0649 57.11 11.0446 57.11 11.0198C57.11 10.9951 57.0594 10.9748 56.9975 10.9748C56.9357 10.9748 56.8851 10.9545 56.8851 10.9298C56.8851 10.905 56.837 10.8847 56.7781 10.8847C56.7194 10.8847 56.6477 10.8564 56.619 10.8216C56.5901 10.787 56.4764 10.732 56.3661 10.6994C56.2558 10.6667 56.1655 10.6242 56.1655 10.6049C56.1655 10.5855 56.1048 10.5697 56.0306 10.5697C55.9564 10.5697 55.8956 10.5494 55.8956 10.5247C55.8956 10.4999 55.845 10.4796 55.7832 10.4796C55.7214 10.4796 55.6708 10.4594 55.6708 10.4346C55.6708 10.41 55.6101 10.3897 55.5359 10.3897C55.4617 10.3897 55.401 10.3694 55.401 10.3447C55.401 10.3199 55.3402 10.2996 55.266 10.2996C55.1918 10.2996 55.1311 10.2794 55.1311 10.2546C55.1311 10.2298 55.0704 10.2097 54.9962 10.2097C54.922 10.2097 54.8612 10.1894 54.8612 10.1646C54.8612 10.1399 54.7904 10.1196 54.7039 10.1196C54.6172 10.1196 54.5465 10.0993 54.5465 10.0746C54.5465 10.0498 54.4869 10.0295 54.4141 10.0295C54.3414 10.0295 54.2693 10.0093 54.2541 9.98454C54.2388 9.95974 54.1566 9.93958 54.0715 9.93958C53.9864 9.93958 53.9167 9.91927 53.9167 9.89447C53.9167 9.86981 53.8572 9.8495 53.7844 9.8495C53.7118 9.8495 53.6398 9.8292 53.6244 9.80454C53.6092 9.77973 53.5457 9.75943 53.4837 9.75943C53.4215 9.75943 53.3403 9.72911 53.3032 9.69198C53.266 9.65485 53.1764 9.62439 53.1039 9.62439C53.0315 9.62439 52.9722 9.60625 52.9722 9.58421C52.9722 9.56201 52.8913 9.5317 52.7923 9.51661C52.6934 9.50167 52.5313 9.47716 52.4323 9.46222C52.3332 9.44713 52.2409 9.41682 52.2272 9.39463C52.2136 9.37243 52.1429 9.35445 52.0701 9.35445C51.9974 9.35445 51.9378 9.33414 51.9378 9.30934C51.9378 9.28468 51.8468 9.26437 51.7355 9.26437C51.6242 9.26437 51.533 9.24406 51.533 9.21941C51.533 9.1946 51.4319 9.1743 51.3082 9.1743C51.1845 9.1743 51.0833 9.15616 51.0833 9.13383C51.0833 9.11163 50.9974 9.0819 50.8921 9.06783C50.3843 8.9998 50.2931 8.9821 50.2536 8.94468C50.2301 8.92249 50.0934 8.90421 49.9499 8.90421C49.806 8.90421 49.6891 8.88405 49.6891 8.85925C49.6891 8.83444 49.5879 8.81428 49.4643 8.81428C49.3405 8.81428 49.2393 8.79397 49.2393 8.76917C49.2393 8.74379 49.1119 8.72421 48.947 8.72421C48.7821 8.72421 48.6547 8.70462 48.6547 8.67924C48.6547 8.65357 48.5228 8.63413 48.3489 8.63413C48.1744 8.63413 48.0203 8.6115 47.9902 8.58119C47.9345 8.52563 47.4614 8.46384 46.7994 8.42555C46.583 8.41293 46.4059 8.38624 46.4059 8.36622C46.4059 8.34606 46.1782 8.32619 45.8999 8.32213C45.6217 8.31792 45.3747 8.29529 45.3512 8.27179C45.3278 8.2483 44.9708 8.22915 44.5556 8.22915C44.1022 8.22915 43.7916 8.21116 43.7748 8.18404C43.7367 8.12225 40.1993 8.12225 40.1993 8.18404ZM51.0159 41.9843C50.7437 41.9987 50.5007 42.0238 50.4756 42.0402C50.4504 42.0566 50.1621 42.0769 49.8346 42.0851C49.5072 42.0935 49.2393 42.1156 49.2393 42.1342C49.2393 42.1527 48.6953 42.1678 48.0303 42.1678H46.8211L46.794 42.2692C46.7791 42.3249 46.7666 43.3578 46.7663 44.5648L46.7658 46.7591H47.0778C47.2496 46.7591 47.4026 46.7388 47.4178 46.7141C47.4332 46.6893 47.6064 46.669 47.8028 46.669C48.0109 46.669 48.1599 46.6503 48.1599 46.624C48.1599 46.5991 48.2799 46.5791 48.4297 46.5791C48.5797 46.5791 48.6996 46.5591 48.6996 46.534C48.6996 46.5083 48.8345 46.489 49.0144 46.489C49.1944 46.489 49.3293 46.4697 49.3293 46.444C49.3293 46.4192 49.4305 46.3989 49.5541 46.3989C49.6779 46.3989 49.7791 46.3805 49.7791 46.358C49.7791 46.3354 49.8954 46.3065 50.0376 46.2939C50.1799 46.2813 50.4076 46.2481 50.5436 46.2201C50.6797 46.1922 50.8671 46.1581 50.96 46.1444C51.0529 46.1306 51.14 46.1013 51.1537 46.0791C51.1674 46.057 51.2571 46.0389 51.3532 46.0389C51.4493 46.0389 51.5403 46.0186 51.5555 45.9938C51.5708 45.9691 51.648 45.9484 51.7268 45.9478C51.8058 45.9471 51.9919 45.9056 52.1403 45.8553C52.2887 45.8051 52.4675 45.7619 52.5378 45.7594C52.6081 45.7569 52.6761 45.7276 52.6889 45.6943C52.7028 45.658 52.7819 45.6338 52.8871 45.6338C52.9834 45.6338 53.0622 45.6135 53.0622 45.5888C53.0622 45.564 53.1319 45.5437 53.217 45.5437C53.3021 45.5437 53.3842 45.5235 53.3995 45.4987C53.4148 45.4739 53.4666 45.4538 53.5147 45.4538C53.6471 45.4538 53.6228 45.3511 53.3829 44.899C53.2626 44.6718 53.0574 44.2834 52.927 44.0359C52.4845 43.1962 52.3001 42.872 52.0642 42.5191C51.97 42.3781 51.8929 42.2432 51.8929 42.2193C51.8929 42.1581 51.6269 41.9412 51.5633 41.9505C51.5343 41.9549 51.2879 41.9701 51.0159 41.9843Z" fill="#003C4A"/>
<path fill-rule="evenodd" clip-rule="evenodd" d="M36.7988 30.4941C36.7988 37.8981 36.8128 40.892 36.8476 40.9268C36.911 40.9905 36.9055 46.6684 36.8419 46.7322C36.8151 46.759 36.7988 47.9567 36.7988 49.8775V52.9796H41.8198H46.8406L46.8101 48.1992C46.7933 45.5699 46.7932 42.699 46.8098 41.8193L46.8404 40.2197H48.2949C49.1111 40.2197 49.784 40.2381 49.8279 40.2618C49.8708 40.2849 49.9716 40.3305 50.0519 40.3629C50.1323 40.3955 50.1982 40.4373 50.1982 40.4561C50.1982 40.4748 50.2275 40.4902 50.2636 40.4902C50.3378 40.4902 51.2323 41.3627 51.2323 41.4351C51.2323 41.461 51.2526 41.4822 51.2773 41.4822C51.302 41.4822 51.3223 41.5051 51.3223 41.5332C51.3223 41.5612 51.3652 41.6217 51.4177 41.6673C51.4814 41.7228 51.5063 41.786 51.4925 41.8581C51.4766 41.9417 51.4888 41.9614 51.5471 41.9461C51.6247 41.9258 51.9068 42.1328 51.9068 42.21C51.9068 42.2339 51.9838 42.3691 52.078 42.5103C52.313 42.8625 52.499 43.1898 52.9347 44.0183C53.0617 44.2601 53.2651 44.6456 53.3865 44.875C53.5078 45.1044 53.6214 45.3681 53.6388 45.4611C53.6562 45.5541 53.6884 45.6302 53.7104 45.6302C53.7324 45.6302 53.7504 45.6809 53.7504 45.743C53.7504 45.8049 53.7706 45.8557 53.7952 45.8557C53.82 45.8557 53.8401 45.8963 53.8401 45.9458C53.8401 45.9954 53.8605 46.036 53.8853 46.036C53.9099 46.036 53.9301 46.0766 53.9301 46.1261C53.9301 46.1758 53.9505 46.2164 53.9751 46.2164C53.9999 46.2164 54.0201 46.2569 54.0201 46.3066C54.0201 46.3561 54.0356 46.3967 54.0546 46.3967C54.0735 46.3967 54.189 46.5895 54.3112 46.825C54.4333 47.0607 54.5492 47.2533 54.569 47.2533C54.5885 47.2533 54.6046 47.294 54.6046 47.3436C54.6046 47.3931 54.625 47.4338 54.6496 47.4338C54.6744 47.4338 54.6946 47.4743 54.6946 47.5239C54.6946 47.5736 54.7148 47.6141 54.7396 47.6141C54.7644 47.6141 54.7845 47.6547 54.7845 47.7043C54.7845 47.7539 54.8047 47.7944 54.8293 47.7944C54.8541 47.7944 54.8745 47.835 54.8745 47.8847C54.8745 47.9342 54.8908 47.9747 54.9109 47.9747C54.9311 47.9747 54.9752 48.0458 55.0093 48.1327C55.0432 48.2194 55.0876 48.2905 55.1076 48.2905C55.1278 48.2905 55.1442 48.331 55.1442 48.3806C55.1442 48.4302 55.1644 48.4708 55.1892 48.4708C55.214 48.4708 55.2341 48.5113 55.2341 48.561C55.2341 48.6106 55.2544 48.6511 55.2792 48.6511C55.3038 48.6511 55.3241 48.6918 55.3241 48.7413C55.3241 48.7909 55.3443 48.8314 55.3689 48.8314C55.3937 48.8314 55.4141 48.8721 55.4141 48.9216C55.4141 48.9712 55.4292 49.012 55.4477 49.0122C55.4663 49.0124 55.5032 49.0581 55.5297 49.1136C55.6591 49.3847 55.8402 49.6882 55.8725 49.6882C55.8924 49.6882 55.9086 49.7288 55.9086 49.7783C55.9086 49.828 55.9288 49.8685 55.9534 49.8685C55.9782 49.8685 55.9986 49.9091 55.9986 49.9586C55.9986 50.0083 56.0187 50.0489 56.0434 50.0489C56.0682 50.0489 56.0884 50.0882 56.0884 50.1363C56.0884 50.1846 56.1086 50.2364 56.1334 50.2518C56.158 50.2671 56.1783 50.319 56.1783 50.3672C56.1783 50.4153 56.1987 50.4547 56.2233 50.4547C56.2481 50.4547 56.2683 50.4936 56.2683 50.5411C56.2683 50.5886 56.2834 50.6342 56.3019 50.6425C56.3344 50.6569 56.5064 50.9545 56.6036 51.1644C56.6294 51.2201 56.6656 51.2657 56.6842 51.2659C56.7027 51.2661 56.7179 51.3074 56.7179 51.3578C56.7179 51.4082 56.7483 51.4611 56.7854 51.4754C56.8225 51.4896 56.8529 51.5397 56.8529 51.5867C56.8529 51.6336 56.8731 51.6721 56.8978 51.6721C56.9226 51.6721 56.9427 51.7126 56.9427 51.7622C56.9427 51.8119 56.963 51.8524 56.9878 51.8524C57.0125 51.8524 57.0326 51.893 57.0326 51.9425C57.0326 51.9922 57.053 52.0327 57.0777 52.0327C57.1024 52.0327 57.1227 52.0733 57.1227 52.123C57.1227 52.1725 57.1428 52.213 57.1675 52.213C57.1923 52.213 57.2126 52.2537 57.2126 52.3033C57.2126 52.3528 57.229 52.3935 57.2491 52.3935C57.2693 52.3935 57.3136 52.4644 57.3475 52.5513C57.3815 52.638 57.4257 52.7091 57.4458 52.7091C57.466 52.7091 57.4823 52.7409 57.4823 52.7798C57.4823 52.9882 57.2516 52.9806 63.2234 52.9684L68.8358 52.9571L68.8202 52.7991C68.8116 52.7123 68.7898 52.6313 68.7716 52.6189C68.7535 52.6065 68.7102 52.5304 68.6751 52.4499C68.6402 52.3692 68.5962 52.3033 68.5775 52.3033C68.5588 52.3033 68.5437 52.2627 68.5437 52.213C68.5437 52.1635 68.5233 52.123 68.4985 52.123C68.4739 52.123 68.4536 52.0964 68.4536 52.0638C68.4536 52.0313 68.4172 51.9653 68.3727 51.9172C68.3282 51.8691 68.2782 51.7943 68.2617 51.751C68.2452 51.7076 68.2108 51.6721 68.1853 51.6721C68.1598 51.6721 68.139 51.6359 68.139 51.5918C68.139 51.5477 68.0984 51.4823 68.049 51.4466C67.9996 51.4109 67.959 51.3353 67.959 51.2788C67.959 51.2223 67.9389 51.1761 67.9141 51.1761C67.8893 51.1761 67.8692 51.1448 67.8692 51.1066C67.8692 51.0683 67.8285 50.9934 67.7791 50.9402C67.7297 50.8871 67.6892 50.8169 67.6892 50.7843C67.6892 50.7518 67.6691 50.7252 67.6443 50.7252C67.6195 50.7252 67.5994 50.6847 67.5994 50.635C67.5994 50.5854 67.5815 50.5449 67.5597 50.5449C67.538 50.5449 67.4952 50.484 67.4645 50.4096C67.4338 50.3352 67.3909 50.2744 67.3691 50.2744C67.3474 50.2744 67.3295 50.2434 67.3295 50.2058C67.3295 50.1218 67.1079 49.7783 67.0538 49.7783C67.0324 49.7783 67.0149 49.7378 67.0149 49.6882C67.0149 49.6385 66.9946 49.598 66.9698 49.598C66.9452 49.598 66.9248 49.5618 66.9248 49.5178C66.9248 49.4736 66.8845 49.4082 66.8349 49.3725C66.7855 49.3368 66.7451 49.2715 66.7451 49.2273C66.7451 49.1832 66.7247 49.1471 66.6999 49.1471C66.6753 49.1471 66.655 49.1065 66.655 49.0569C66.655 49.0074 66.6348 48.9667 66.6101 48.9667C66.5853 48.9667 66.5652 48.9363 66.5652 48.8991C66.5652 48.8619 66.545 48.8314 66.5202 48.8314C66.4956 48.8314 66.4753 48.7909 66.4753 48.7413C66.4753 48.6918 66.4549 48.6511 66.4302 48.6511C66.4055 48.6511 66.3853 48.6199 66.3853 48.5816C66.3853 48.5434 66.3449 48.4686 66.2954 48.4153C66.2459 48.3621 66.2054 48.2919 66.2054 48.2594C66.2054 48.2268 66.1851 48.2002 66.1604 48.2002C66.1357 48.2002 66.1155 48.1597 66.1155 48.11C66.1155 48.0605 66.099 48.0199 66.0787 48.0199C66.0586 48.0199 66.0086 47.9489 65.9673 47.8621C65.926 47.7752 65.8715 47.7043 65.8463 47.7043C65.8212 47.7043 65.8007 47.6637 65.8007 47.6141C65.8007 47.5646 65.7804 47.5239 65.7557 47.5239C65.731 47.5239 65.7108 47.4973 65.7108 47.4648C65.7108 47.4322 65.6704 47.3622 65.621 47.3088C65.5714 47.2557 65.5309 47.1808 65.5309 47.1426C65.5309 47.1043 65.5107 47.073 65.486 47.073C65.4612 47.073 65.4411 47.0418 65.4411 47.0036C65.4411 46.9652 65.4005 46.8904 65.3511 46.8372C65.3016 46.784 65.2612 46.7037 65.2612 46.6588C65.2612 46.6139 65.241 46.5771 65.2163 46.5771C65.1915 46.5771 65.1713 46.5504 65.1713 46.518C65.1713 46.4855 65.1307 46.4153 65.0813 46.3619C65.0318 46.3088 64.9914 46.2339 64.9914 46.1957C64.9914 46.1575 64.9712 46.1261 64.9465 46.1261C64.9217 46.1261 64.9014 46.0995 64.9014 46.067C64.9014 46.0346 64.856 45.959 64.8004 45.8993C64.6926 45.7838 64.5868 45.6022 64.5868 45.533C64.5868 45.5101 64.5462 45.4476 64.4968 45.3944C64.4474 45.3411 64.4068 45.2711 64.4068 45.2385C64.4068 45.206 64.3867 45.1794 64.3619 45.1794C64.3372 45.1794 64.317 45.1387 64.317 45.0892C64.317 45.0396 64.2967 44.9989 64.272 44.9989C64.2473 44.9989 64.2269 44.9723 64.2269 44.9398C64.2269 44.9074 64.1866 44.8372 64.1371 44.7839C64.0876 44.7307 64.0472 44.6559 64.0472 44.6177C64.0472 44.5795 64.0306 44.5481 64.0105 44.5481C63.9903 44.5481 63.9462 44.4772 63.9123 44.3903C63.8783 44.3035 63.839 44.2325 63.8249 44.2325C63.8109 44.2325 63.7719 44.1703 63.7383 44.0942C63.7047 44.018 63.6289 43.9073 63.5699 43.8482C63.511 43.789 63.4627 43.7093 63.4627 43.6709C63.4627 43.6326 63.4423 43.6013 63.4175 43.6013C63.3929 43.6013 63.3727 43.5606 63.3727 43.5111C63.3727 43.4615 63.3524 43.4209 63.3278 43.4209C63.303 43.4209 63.2826 43.3905 63.2826 43.3533C63.2826 43.3161 63.2626 43.2856 63.2378 43.2856C63.213 43.2856 63.1929 43.245 63.1929 43.1955C63.1929 43.1458 63.1726 43.1053 63.1478 43.1053C63.1232 43.1053 63.1029 43.074 63.1029 43.0358C63.1029 42.9975 63.0625 42.9226 63.0129 42.8695C62.9635 42.8163 62.923 42.7461 62.923 42.7136C62.923 42.681 62.9027 42.6544 62.8779 42.6544C62.8533 42.6544 62.833 42.6139 62.833 42.5642C62.833 42.5146 62.8179 42.474 62.7994 42.474C62.7808 42.4738 62.7058 42.3622 62.6324 42.2259C62.5591 42.0897 62.4831 41.9781 62.4637 41.9781C62.4443 41.9781 62.4283 41.942 62.4283 41.8979C62.4283 41.8537 62.388 41.7885 62.3386 41.7527C62.289 41.717 62.2486 41.6529 62.2486 41.6105C62.2486 41.568 62.2095 41.5208 62.1618 41.5057C62.0857 41.4814 61.9836 41.33 61.7102 40.8368C61.5641 40.5732 61.1434 40.1178 60.8214 39.8749C60.5678 39.6835 60.4926 39.6022 60.5093 39.538C60.5264 39.4723 60.5071 39.4531 60.4233 39.4531C60.3638 39.4531 60.3151 39.4329 60.3151 39.4081C60.3151 39.3832 60.2848 39.363 60.2477 39.363C60.2106 39.363 60.1801 39.3427 60.1801 39.3178C60.1801 39.2931 60.1398 39.2728 60.0904 39.2728C60.0408 39.2728 60.0004 39.2524 60.0004 39.2277C60.0004 39.2029 59.96 39.1826 59.9104 39.1826C59.861 39.1826 59.8205 39.1624 59.8205 39.1375C59.8205 39.1127 59.7712 39.0925 59.7107 39.0925C59.6505 39.0925 59.5886 39.0721 59.5732 39.0473C59.558 39.0226 59.5083 39.0022 59.463 39.0022C59.4176 39.0022 59.3688 38.9719 59.3545 38.9347C59.3403 38.8975 59.2888 38.867 59.2401 38.867C59.1913 38.867 59.1388 38.8468 59.1236 38.8219C59.1082 38.7971 59.0463 38.7769 58.986 38.7769C58.9256 38.7769 58.8763 38.7602 58.8763 38.7398C58.8763 38.7196 58.7738 38.675 58.6486 38.6407C58.5234 38.6066 58.4109 38.5623 58.3987 38.5425C58.3864 38.5226 58.327 38.5063 58.2667 38.5063C58.2063 38.5063 58.1568 38.486 58.1568 38.4612C58.1568 38.4365 58.086 38.4161 57.9995 38.4161C57.913 38.4161 57.842 38.3958 57.842 38.3711C57.842 38.3462 57.7813 38.3259 57.7071 38.3259C57.633 38.3259 57.5723 38.3057 57.5723 38.2808C57.5723 38.256 57.6722 38.2358 57.7944 38.2358C57.9165 38.2358 58.0291 38.2155 58.0443 38.1906C58.0597 38.1659 58.1721 38.1456 58.2943 38.1456C58.4166 38.1456 58.5166 38.1276 58.5166 38.1055C58.5166 38.0834 58.5873 38.0529 58.674 38.0378C58.7605 38.0227 58.9024 37.998 58.9891 37.9828C59.0759 37.9677 59.1581 37.9372 59.1716 37.9151C59.1852 37.893 59.2462 37.875 59.3074 37.875C59.3685 37.875 59.4303 37.8447 59.4445 37.8075C59.4592 37.7688 59.5263 37.7398 59.6004 37.7398C59.6719 37.7398 59.7305 37.7196 59.7305 37.6947C59.7305 37.6699 59.7913 37.6497 59.8655 37.6497C59.9397 37.6497 60.0004 37.6293 60.0004 37.6045C60.0004 37.5798 60.0497 37.5595 60.1101 37.5595C60.1704 37.5595 60.2324 37.5391 60.2477 37.5144C60.2629 37.4896 60.3248 37.4692 60.3852 37.4692C60.4457 37.4692 60.495 37.449 60.495 37.4242C60.495 37.3993 60.5355 37.3791 60.5849 37.3791C60.6345 37.3791 60.6749 37.3588 60.6749 37.3339C60.6749 37.3092 60.7153 37.2889 60.7647 37.2889C60.8143 37.2889 60.8546 37.2686 60.8546 37.2439C60.8546 37.219 60.895 37.1987 60.9446 37.1987C60.994 37.1987 61.0345 37.1785 61.0345 37.1536C61.0345 37.1288 61.0751 37.1086 61.1245 37.1086C61.1739 37.1086 61.2145 37.0883 61.2145 37.0634C61.2145 37.0387 61.2548 37.0184 61.3042 37.0184C61.3538 37.0184 61.3942 36.9982 61.3942 36.9733C61.3942 36.9485 61.431 36.9283 61.4757 36.9283C61.5205 36.9283 61.6006 36.8876 61.6537 36.8381C61.7068 36.7885 61.7683 36.7478 61.7906 36.7478C61.813 36.7478 61.8692 36.6971 61.9157 36.6351C61.962 36.5732 62.0314 36.5225 62.0695 36.5225C62.1076 36.5225 62.168 36.4818 62.2037 36.4322C62.2393 36.3827 62.2941 36.342 62.3254 36.342C62.3842 36.342 62.4971 36.2593 62.6794 36.0828C62.7369 36.027 62.802 35.9814 62.824 35.9814C62.8724 35.9814 63.2826 35.5975 63.2826 35.5522C63.2826 35.5345 63.4143 35.3969 63.575 35.2465C63.7358 35.0962 63.8672 34.9546 63.8672 34.9318C63.8672 34.909 63.9229 34.8366 63.991 34.7708C64.059 34.7051 64.1449 34.5905 64.1818 34.5161C64.2186 34.4415 64.2844 34.348 64.3279 34.3079C64.3714 34.2678 64.4068 34.2018 64.4068 34.1613C64.4068 34.1207 64.427 34.0876 64.4518 34.0876C64.4765 34.0876 64.4968 34.0516 64.4968 34.0074C64.4968 33.9634 64.5373 33.898 64.5868 33.8622C64.6362 33.8265 64.6766 33.7611 64.6766 33.7169C64.6766 33.6729 64.6919 33.6366 64.7104 33.6364C64.7556 33.6362 64.9014 33.3755 64.9014 33.295C64.9014 33.2598 64.9217 33.2309 64.9465 33.2309C64.9712 33.2309 64.9914 33.1915 64.9914 33.1435C64.9914 33.0954 65.0117 33.0433 65.0364 33.0281C65.0611 33.0128 65.0813 32.9506 65.0813 32.8902C65.0813 32.8296 65.1015 32.7801 65.1262 32.7801C65.1509 32.7801 65.1713 32.7407 65.1713 32.6926C65.1713 32.6445 65.1915 32.5925 65.2163 32.5772C65.241 32.5618 65.2612 32.4896 65.2612 32.4167C65.2612 32.3437 65.2814 32.2842 65.3061 32.2842C65.3308 32.2842 65.3511 32.2245 65.3511 32.1515C65.3511 32.0786 65.3714 32.0064 65.3961 31.9911C65.4208 31.9757 65.4411 31.8946 65.4411 31.8106C65.4411 31.7268 65.4612 31.6457 65.486 31.6303C65.5107 31.6151 65.5309 31.5135 65.5309 31.405C65.5309 31.2963 65.5512 31.1947 65.5759 31.1795C65.6006 31.1641 65.621 31.0311 65.621 30.8838C65.621 30.7352 65.6409 30.6159 65.6659 30.6159C65.6935 30.6159 65.7108 30.3914 65.7108 30.0324C65.7108 29.6921 65.7295 29.4372 65.7557 29.4211C65.7804 29.4057 65.8007 29.2117 65.8007 28.99C65.8007 28.7513 65.7824 28.587 65.7557 28.587C65.7279 28.587 65.7108 28.3539 65.7108 27.9782C65.7108 27.6024 65.6937 27.3695 65.6659 27.3695C65.6411 27.3695 65.621 27.2579 65.621 27.1215C65.621 26.9852 65.6006 26.8736 65.5759 26.8736C65.5512 26.8736 65.5309 26.7721 65.5309 26.6481C65.5309 26.5242 65.5107 26.4226 65.486 26.4226C65.4612 26.4226 65.4411 26.3529 65.4411 26.2676C65.4411 26.1821 65.4208 26.0999 65.3961 26.0845C65.3714 26.0693 65.3511 26.0071 65.3511 25.9466C65.3511 25.886 65.3308 25.8365 65.3061 25.8365C65.2814 25.8365 65.2612 25.7756 65.2612 25.7012C65.2612 25.6268 65.241 25.5659 65.2163 25.5659C65.1915 25.5659 65.1713 25.5051 65.1713 25.4307C65.1713 25.3563 65.1509 25.2954 65.1262 25.2954C65.1015 25.2954 65.0813 25.2447 65.0813 25.1828C65.0813 25.1208 65.0611 25.07 65.0364 25.07C65.0117 25.07 64.9914 25.0295 64.9914 24.9798C64.9914 24.9303 64.9712 24.8897 64.9465 24.8897C64.9217 24.8897 64.9014 24.8491 64.9014 24.7995C64.9014 24.75 64.8812 24.7093 64.8564 24.7093C64.8317 24.7093 64.8116 24.6782 64.8116 24.6403C64.8116 24.6023 64.7813 24.5596 64.7442 24.5452C64.7071 24.531 64.6766 24.4809 64.6766 24.4339C64.6766 24.387 64.6564 24.3487 64.6316 24.3487C64.6069 24.3487 64.5868 24.3181 64.5868 24.2809C64.5868 24.2437 64.5665 24.2134 64.5418 24.2134C64.5171 24.2134 64.4968 24.1728 64.4968 24.1232C64.4968 24.0736 64.4765 24.0331 64.4518 24.0331C64.427 24.0331 64.4068 24.0026 64.4068 23.9654C64.4068 23.9282 64.3867 23.8978 64.3619 23.8978C64.3372 23.8978 64.317 23.8718 64.317 23.8401C64.317 23.8083 64.2763 23.7531 64.2269 23.7173C64.1775 23.6816 64.1371 23.6267 64.1371 23.5951C64.1371 23.5187 62.8986 22.2745 62.8226 22.2745C62.7898 22.2745 62.7339 22.234 62.6982 22.1845C62.6626 22.1348 62.6168 22.0942 62.5965 22.0942C62.5762 22.0942 62.535 22.0735 62.5051 22.0482C62.2566 21.8379 62.1741 21.7786 62.1286 21.7786C62.0998 21.7786 62.0694 21.7634 62.0612 21.7448C62.0423 21.7025 61.803 21.5561 61.6978 21.5226C61.6544 21.5088 61.6192 21.4796 61.6192 21.4577C61.6192 21.4357 61.5797 21.4179 61.5317 21.4179C61.4837 21.4179 61.4321 21.3975 61.4168 21.3728C61.4015 21.348 61.3497 21.3276 61.3017 21.3276C61.2537 21.3276 61.2145 21.3074 61.2145 21.2826C61.2145 21.2578 61.1739 21.2376 61.1245 21.2376C61.0751 21.2376 61.0345 21.2172 61.0345 21.1925C61.0345 21.1677 60.994 21.1473 60.9446 21.1473C60.895 21.1473 60.8546 21.1271 60.8546 21.1023C60.8546 21.0774 60.7939 21.0572 60.7197 21.0572C60.6455 21.0572 60.5849 21.0369 60.5849 21.0121C60.5849 20.9874 60.5494 20.9663 60.5061 20.9656C60.4628 20.9648 60.3883 20.9343 60.3403 20.898C60.2922 20.8615 60.2163 20.8317 60.1716 20.8317C60.1268 20.8317 60.0904 20.8114 60.0904 20.7867C60.0904 20.7619 60.0296 20.7415 59.9555 20.7415C59.8813 20.7415 59.8205 20.7213 59.8205 20.6965C59.8205 20.6716 59.761 20.6514 59.6883 20.6514C59.6155 20.6514 59.5435 20.6311 59.5283 20.6062C59.5129 20.5815 59.4321 20.5612 59.3483 20.5612C59.2647 20.5612 59.1852 20.5432 59.1716 20.5211C59.1445 20.4769 58.9352 20.4335 58.5727 20.3966C58.4429 20.3834 58.3367 20.3542 58.3367 20.3316C58.3367 20.3091 58.2051 20.2907 58.0443 20.2907C57.8794 20.2907 57.7522 20.271 57.7522 20.2456C57.7522 20.2189 57.5881 20.2006 57.3502 20.2006C57.1291 20.2006 56.9356 20.1802 56.9202 20.1554C56.9018 20.1256 53.495 20.1104 46.8456 20.1104H36.7988V30.4941ZM53.4805 27.4597C53.4805 27.4844 53.5616 27.5048 53.6604 27.5048C53.7594 27.5048 53.8401 27.5251 53.8401 27.5498C53.8401 27.5747 53.879 27.595 53.9263 27.595C53.9737 27.595 54.0194 27.6111 54.0275 27.631C54.0357 27.651 54.183 27.7452 54.3545 27.8409C54.6789 28.0216 54.9642 28.2705 54.9642 28.3725C54.9642 28.405 55.0048 28.461 55.0542 28.4967C55.1036 28.5325 55.1442 28.5978 55.1442 28.642C55.1442 28.686 55.1644 28.7222 55.1892 28.7222C55.214 28.7222 55.2341 28.7616 55.2341 28.8097C55.2341 28.8578 55.2544 28.9098 55.2792 28.9251C55.3038 28.9405 55.3241 29.0114 55.3241 29.0828C55.3241 29.1543 55.3443 29.2254 55.3689 29.2406C55.396 29.2575 55.4141 29.5718 55.4141 30.0324C55.4141 30.5116 55.3972 30.7962 55.3689 30.7962C55.3443 30.7962 55.3241 30.8672 55.3241 30.954C55.3241 31.0409 55.3038 31.1118 55.2792 31.1118C55.2544 31.1118 55.2341 31.1525 55.2341 31.202C55.2341 31.2515 55.214 31.2922 55.1892 31.2922C55.1644 31.2922 55.1442 31.3328 55.1442 31.3823C55.1442 31.432 55.124 31.4725 55.0992 31.4725C55.0746 31.4725 55.0542 31.5036 55.0542 31.5417C55.0542 31.6767 54.3292 32.3315 54.0989 32.4049C54.0555 32.4187 54.0201 32.4478 54.0201 32.4697C54.0201 32.4917 53.9595 32.5095 53.8853 32.5095C53.8111 32.5095 53.7504 32.5299 53.7504 32.5547C53.7504 32.5794 53.6897 32.5998 53.6155 32.5998C53.5413 32.5998 53.4805 32.6201 53.4805 32.6448C53.4805 32.6696 53.3805 32.69 53.2584 32.69C53.1361 32.69 53.0236 32.7102 53.0084 32.735C52.9903 32.7644 51.9212 32.7801 49.9482 32.7801H46.9159V30.0973V27.4146H50.1982C52.3565 27.4146 53.4805 27.4301 53.4805 27.4597ZM66.2278 38.2508C66.034 38.4658 66.0167 38.5199 66.1962 38.3506C66.3001 38.2525 66.3853 38.1664 66.3853 38.1589C66.3853 38.1178 66.3062 38.164 66.2278 38.2508ZM18.0938 38.6303C18.0938 38.6493 18.1341 38.6903 18.1835 38.7212C18.233 38.7522 18.2736 38.7621 18.2736 38.743C18.2736 38.7239 18.233 38.683 18.1835 38.6521C18.1341 38.621 18.0938 38.6113 18.0938 38.6303ZM65.783 38.6678C65.7408 38.7781 65.75 38.7891 65.8231 38.7156C65.8996 38.639 65.9094 38.5964 65.8506 38.5964C65.8284 38.5964 65.7981 38.6285 65.783 38.6678ZM65.5986 38.8667C65.5539 38.9165 65.5316 38.9572 65.5496 38.9572C65.5971 38.9572 65.7252 38.8213 65.7008 38.7969C65.6895 38.7856 65.6436 38.817 65.5986 38.8667Z" fill="#003C4A"/>
</svg>
