<svg width="60" height="82" viewBox="0 0 60 82" fill="none" xmlns="http://www.w3.org/2000/svg">
<path d="M10.458 77V63.914H14.904C17.94 63.914 19.458 65.198 19.458 67.766C19.458 69.77 18.438 71.006 16.398 71.474L20.034 77H18.126L14.814 71.816L12.114 71.384V77H10.458ZM12.114 70.268H14.112C15.456 70.268 16.404 70.082 16.956 69.71C17.508 69.326 17.784 68.678 17.784 67.766C17.784 67.142 17.67 66.65 17.442 66.29C17.214 65.918 16.83 65.654 16.29 65.498C15.762 65.33 15.036 65.246 14.112 65.246H12.114V70.268ZM21.3694 73.418V67.604H22.9894V73.364C22.9894 74.168 23.1634 74.786 23.5114 75.218C23.8594 75.65 24.3694 75.866 25.0414 75.866C25.6054 75.866 26.1334 75.674 26.6254 75.29C27.1294 74.894 27.5074 74.372 27.7594 73.724V67.604H29.3794V77H28.2814L27.9934 75.398C27.6094 75.974 27.1234 76.418 26.5354 76.73C25.9594 77.042 25.3294 77.198 24.6454 77.198C23.6014 77.198 22.7914 76.874 22.2154 76.226C21.6514 75.578 21.3694 74.642 21.3694 73.418ZM32.0226 76.568V63.482H33.6426V68.594C34.4346 67.802 35.3646 67.406 36.4326 67.406C37.6806 67.406 38.6406 67.82 39.3126 68.648C39.9846 69.476 40.3206 70.664 40.3206 72.212C40.3206 73.772 39.8946 74.996 39.0426 75.884C38.1906 76.76 37.0026 77.198 35.4786 77.198C34.8906 77.198 34.2726 77.138 33.6246 77.018C32.9766 76.91 32.4426 76.76 32.0226 76.568ZM36.1266 68.702C35.6946 68.702 35.2566 68.81 34.8126 69.026C34.3806 69.242 33.9906 69.548 33.6426 69.944V75.632C33.8826 75.704 34.1526 75.764 34.4526 75.812C34.7526 75.848 35.0826 75.866 35.4426 75.866C37.5906 75.866 38.6646 74.642 38.6646 72.194C38.6646 71.054 38.4486 70.19 38.0166 69.602C37.5966 69.002 36.9666 68.702 36.1266 68.702ZM44.5583 76.91L41.1563 67.604H42.8483L45.8003 76.01L48.3743 67.604H50.0123L47.0063 76.802C46.7183 77.69 46.4003 78.41 46.0523 78.962C45.7163 79.514 45.3083 79.94 44.8283 80.24C44.3483 80.54 43.7483 80.774 43.0283 80.942L42.6323 79.592C43.1123 79.46 43.5203 79.292 43.8563 79.088C44.1923 78.896 44.4803 78.638 44.7203 78.314C44.9723 77.99 45.1943 77.564 45.3863 77.036L45.4403 76.91H44.5583Z" fill="white"/>
<g filter="url(#filter0_i)">
<path fill-rule="evenodd" clip-rule="evenodd" d="M32.8415 7.07834C32.793 7.13665 32.8193 7.16937 32.9898 7.26286C33.331 7.44996 33.3791 7.4812 33.4961 7.59093C33.5577 7.64887 33.6344 7.69623 33.6665 7.69623C33.6986 7.69623 33.7248 7.71886 33.7248 7.74666C33.7248 7.77434 33.7746 7.81616 33.8355 7.83954C33.8964 7.86291 34.0773 7.9842 34.2378 8.10893C34.398 8.23379 34.5466 8.33589 34.5679 8.33589C34.5892 8.33589 34.7289 8.43553 34.8785 8.55731C35.028 8.67909 35.1672 8.78021 35.1879 8.78205C35.2086 8.78378 35.3252 8.86152 35.447 8.95488C35.5687 9.04813 35.7661 9.18504 35.8854 9.25909C36.0047 9.33315 36.1737 9.45468 36.2609 9.5291C36.3481 9.60353 36.4335 9.66442 36.4506 9.66442C36.4758 9.66442 37.0434 10.061 37.2429 10.218C37.6747 10.5576 37.8854 10.6095 38.1532 10.442C38.3352 10.3282 38.8728 10.0346 39.2234 9.85755C39.3384 9.79948 39.4325 9.73404 39.4325 9.71215C39.4325 9.69013 39.4987 9.65765 39.5795 9.63994C39.6605 9.62222 39.7407 9.58495 39.7578 9.55715C39.775 9.52947 39.8583 9.47387 39.9429 9.43365C40.0276 9.39354 40.2075 9.29698 40.3428 9.21936C40.4781 9.14162 40.6616 9.04468 40.7505 9.00397C40.8394 8.96325 40.9462 8.89596 40.9878 8.85438C41.0294 8.81281 41.0973 8.77873 41.1388 8.77873C41.1803 8.77873 41.2801 8.72338 41.3605 8.65572C41.441 8.58806 41.542 8.53271 41.5851 8.53271C41.6283 8.53271 41.6999 8.49986 41.7442 8.45976C41.8415 8.37169 42.2103 8.16023 42.3971 8.08531C42.4716 8.05542 42.5324 8.01348 42.5324 7.99195C42.5324 7.97054 42.5933 7.93782 42.6678 7.91937C42.7422 7.90092 42.8474 7.84569 42.9015 7.79661C42.9556 7.74765 43.0552 7.69118 43.1229 7.67126C43.1906 7.65133 43.2765 7.61 43.3139 7.57949C43.3831 7.52327 43.656 7.3732 43.9471 7.23149C44.1347 7.14021 44.1501 7.07957 43.9963 7.03836C43.7273 6.96628 32.9023 7.00502 32.8415 7.07834ZM29.8732 7.86931C29.7438 7.90424 29.5841 7.96808 29.5182 8.01126C29.4522 8.05456 29.3523 8.08987 29.2961 8.08987C29.24 8.08987 29.1119 8.13144 29.0115 8.18225C28.9111 8.23305 28.7514 8.29087 28.6567 8.31055C28.562 8.33035 28.4181 8.38608 28.3369 8.43442C28.2557 8.48277 28.0964 8.53751 27.983 8.55596C27.8696 8.57441 27.7511 8.62054 27.7197 8.6583C27.6884 8.69607 27.582 8.74183 27.4832 8.76003C27.3844 8.77824 27.2265 8.83421 27.1321 8.8844C27.0378 8.93446 26.916 8.97567 26.8615 8.97567C26.807 8.9758 26.6899 9.02008 26.6012 9.07408C26.5126 9.12821 26.3907 9.17237 26.3302 9.17237C26.2698 9.17237 26.1163 9.22772 25.9892 9.29538C25.8621 9.36304 25.7073 9.41852 25.6451 9.41876C25.583 9.41889 25.4658 9.46305 25.3846 9.5168C25.3034 9.57056 25.1923 9.61472 25.1378 9.61484C25.0833 9.61509 24.9616 9.65654 24.8672 9.7071C24.7729 9.75754 24.6182 9.81511 24.5235 9.83491C24.4288 9.85472 24.3028 9.90158 24.2437 9.93898C24.1845 9.97638 24.0299 10.0309 23.9001 10.0599C23.7702 10.0891 23.6304 10.1429 23.5894 10.1797C23.5484 10.2165 23.4262 10.2621 23.318 10.2813C23.2097 10.3004 23.0548 10.355 22.9736 10.4025C22.8924 10.45 22.7429 10.5037 22.6414 10.5217C22.5399 10.5398 22.4569 10.572 22.4569 10.5933C22.4569 10.6144 22.396 10.6633 22.3216 10.7017C22.2472 10.7402 22.0945 10.8601 21.9823 10.9683C21.1195 11.8013 20.1514 12.705 19.2094 13.5569C18.9252 13.8137 18.5464 14.1668 18.3675 14.3413C17.9503 14.7486 16.9092 15.7284 16.7492 15.8646C16.5742 16.0134 15.7274 16.7985 15.2103 17.2912C14.9688 17.5212 14.666 17.809 14.5372 17.9308C14.166 18.2818 13.2947 19.0847 13.2558 19.1117C13.2362 19.1253 13.1833 19.2083 13.1383 19.2962C13.0931 19.3842 13.038 19.4562 13.0158 19.4562C12.9935 19.4562 12.9392 19.5392 12.8952 19.6407C12.851 19.7422 12.7482 19.9359 12.6667 20.0712C12.5851 20.2065 12.4944 20.3615 12.4653 20.4157C12.4003 20.5362 12.2195 20.849 11.9271 21.3467C11.8053 21.554 11.6699 21.7888 11.6261 21.8687C11.5823 21.9484 11.5213 22.044 11.4905 22.081C11.4598 22.1181 11.354 22.3011 11.2555 22.4875C11.1569 22.674 11.0617 22.8378 11.0438 22.8513C11.0259 22.8648 10.9821 22.9479 10.9466 23.0358C10.911 23.1238 10.8645 23.1957 10.8435 23.1957C10.8223 23.1957 10.7804 23.2662 10.7504 23.3524C10.7204 23.4387 10.6636 23.5446 10.6245 23.5879C10.5853 23.6312 10.4834 23.7987 10.3981 23.9601C10.3128 24.1215 10.2149 24.2868 10.1806 24.3274C10.1463 24.368 10.1039 24.4481 10.0865 24.5054C10.069 24.5627 10.0111 24.6492 9.95768 24.6976C9.90417 24.7459 9.8605 24.8196 9.8605 24.8613C9.8605 24.9031 9.81019 25.0159 9.74856 25.112C9.56392 25.4006 9.51816 25.478 9.45616 25.6068C9.42357 25.6744 9.34619 25.7924 9.28432 25.8689C9.22232 25.9454 9.17164 26.0321 9.17164 26.0618C9.17164 26.0914 9.14162 26.1506 9.10497 26.1934C9.06819 26.2361 8.96067 26.4149 8.86583 26.5908C8.54944 27.178 8.50774 27.2502 8.4455 27.3183C8.25852 27.5227 8.12087 27.9169 8.20427 28.009C8.24917 28.0587 8.28595 28.1305 8.28595 28.1686C8.28595 28.2066 8.34365 28.3599 8.41413 28.5091C8.48449 28.6583 8.5952 28.8934 8.66016 29.0314C8.72498 29.1694 8.778 29.3272 8.778 29.3821C8.778 29.437 8.80974 29.5083 8.84861 29.5405C8.88748 29.5728 8.93459 29.6696 8.95317 29.7557C8.97187 29.8417 9.02784 29.9897 9.07753 30.0844C9.24963 30.4122 9.41766 30.8168 9.41877 30.9055C9.41938 30.9546 9.46318 31.05 9.51607 31.1177C9.56897 31.1853 9.61276 31.274 9.61337 31.3149C9.61399 31.3557 9.66713 31.4886 9.73147 31.6101C9.7958 31.7316 9.86358 31.9016 9.88228 31.9876C9.90085 32.0737 9.94784 32.1705 9.98672 32.2028C10.0256 32.235 10.0574 32.3086 10.0574 32.3661C10.0576 32.4237 10.0985 32.5377 10.1485 32.6197C10.1983 32.7015 10.2678 32.8565 10.3029 32.9641C10.3379 33.0716 10.3966 33.2033 10.4334 33.2567C10.4702 33.3101 10.5002 33.4013 10.5002 33.4592C10.5002 33.5172 10.5431 33.6193 10.5955 33.6859C10.648 33.7526 10.706 33.8718 10.7244 33.9509C10.7429 34.0299 10.7851 34.1389 10.8184 34.193C10.8516 34.2471 10.9076 34.38 10.9425 34.4882C10.9776 34.5965 11.0363 34.7287 11.073 34.7821C11.1098 34.8355 11.1398 34.9221 11.1398 34.9746C11.1398 35.0271 11.1921 35.1606 11.2558 35.2712C11.3197 35.3818 11.3865 35.5329 11.4043 35.607C11.4658 35.8632 11.6354 35.9192 11.9896 35.8C12.1582 35.7432 12.429 35.6819 12.5914 35.6638C12.7537 35.6457 12.9428 35.6026 13.0117 35.5679C13.0805 35.5333 13.3058 35.4815 13.5126 35.4527C13.7193 35.424 13.973 35.3686 14.0764 35.3297C14.1797 35.2909 14.375 35.2458 14.5104 35.2296C14.6457 35.2135 14.8967 35.1564 15.0683 35.1027C15.2398 35.0489 15.453 35.0049 15.5421 35.0049C15.631 35.0049 15.7834 34.9716 15.8807 34.9309C15.978 34.8903 16.2298 34.832 16.4403 34.8014C16.6508 34.7706 16.8783 34.7182 16.946 34.6847C17.0136 34.6512 17.2019 34.6085 17.3642 34.5901C17.5266 34.5715 17.7869 34.5133 17.9426 34.4608C18.0982 34.4082 18.2927 34.3652 18.3746 34.3652C18.4566 34.3652 18.653 34.3216 18.8111 34.2684C18.9693 34.2151 19.2509 34.1508 19.437 34.1254C19.623 34.1001 19.8749 34.0451 19.9967 34.0032C20.1185 33.9613 20.351 33.9056 20.5133 33.8794C20.9591 33.8072 21.3897 33.6756 21.4766 33.5851C21.5193 33.5405 21.7267 33.3491 21.9376 33.1597C22.3688 32.7722 22.3575 32.7824 23.0209 32.1756C23.2872 31.932 23.6097 31.6331 23.7373 31.5113C24.3626 30.9152 25.3096 30.0284 25.5034 29.8575C25.6229 29.7522 25.8023 29.5886 25.9024 29.4939C26.0024 29.3992 26.2982 29.1245 26.5599 28.8835C26.8214 28.6427 27.1955 28.2914 27.3909 28.103C27.5865 27.9147 27.9554 27.5693 28.2109 27.3356C28.4664 27.1018 28.8207 26.7759 28.9982 26.611C29.1757 26.4462 29.4408 26.2026 29.5873 26.0698C29.7337 25.9369 30.088 25.6047 30.3746 25.3315C30.9746 24.7593 31.2268 24.5261 32.2045 23.6386C33.1336 22.7951 33.4788 22.4434 33.4793 22.3392C33.4795 22.2826 33.5349 22.1178 33.6023 21.973C33.6697 21.8282 33.7248 21.6566 33.7248 21.5915C33.7248 21.5264 33.7691 21.3905 33.8232 21.2895C33.8773 21.1887 33.9221 21.0503 33.9227 20.9822C33.9233 20.9142 33.9676 20.7619 34.0211 20.644C34.0746 20.526 34.1184 20.387 34.1184 20.335C34.1184 20.283 34.1738 20.109 34.2414 19.9482C34.3091 19.7874 34.3645 19.5989 34.3645 19.529C34.3645 19.4592 34.4015 19.3312 34.4469 19.2446C34.4921 19.158 34.5572 18.9764 34.5914 18.8411C34.6578 18.5792 34.7624 18.2578 34.9121 17.856C34.9627 17.7202 35.0041 17.5644 35.0041 17.5097C35.0041 17.4551 35.0474 17.3253 35.1004 17.2214C35.1535 17.1175 35.2114 16.9301 35.2292 16.805C35.2472 16.68 35.3034 16.5087 35.3543 16.4243C35.4053 16.3399 35.447 16.2114 35.447 16.1387C35.447 16.066 35.492 15.9075 35.5471 15.7867C35.6021 15.6659 35.6668 15.4734 35.6909 15.3589C35.7335 15.157 35.8075 14.9232 35.9909 14.4127C36.0395 14.2774 36.0947 14.0892 36.1136 13.9944C36.1324 13.8997 36.1895 13.74 36.2403 13.6397C36.2911 13.5393 36.3326 13.3869 36.3326 13.301C36.3326 13.2152 36.3746 13.0759 36.4259 12.9915C36.6756 12.5808 36.6169 12.1976 36.2703 11.9741C36.1287 11.8828 35.8876 11.7132 35.7346 11.5973C35.5814 11.4814 35.4407 11.3866 35.4217 11.3866C35.4028 11.3866 35.3178 11.3302 35.2327 11.2615C34.9913 11.0664 34.8993 11 34.6353 10.8307C34.5001 10.7441 34.3562 10.6438 34.3155 10.6079C34.2748 10.5721 34.1307 10.4731 33.9954 10.388C33.8601 10.303 33.7205 10.1939 33.6851 10.1456C33.6498 10.0974 33.5922 10.0581 33.5574 10.0581C33.5224 10.0581 33.4427 10.0138 33.3804 9.95965C33.318 9.90552 33.2523 9.86124 33.2345 9.86124C33.2166 9.86124 33.1592 9.82212 33.1067 9.77427C33.0543 9.72642 32.8814 9.5991 32.7226 9.49134C32.5639 9.38358 32.3728 9.2511 32.2979 9.19697C32.2229 9.14285 32.0318 9.01122 31.8731 8.90457C31.7143 8.79792 31.5512 8.68081 31.5106 8.6444C31.47 8.60799 31.3261 8.50823 31.1908 8.42274C30.9784 8.28865 30.8154 8.17179 30.5972 7.99736C30.3906 7.83228 30.161 7.79168 29.8732 7.86931ZM46.5426 8.06994C46.3803 8.16367 46.181 8.27463 46.0998 8.31658C46.0186 8.35852 45.8415 8.45644 45.7062 8.53431C45.5708 8.61217 45.3826 8.71267 45.2879 8.75745C45.1932 8.80235 45.1046 8.85611 45.0911 8.87714C45.0776 8.89818 44.989 8.95083 44.8943 8.99413C44.7996 9.03755 44.6113 9.13965 44.476 9.22096C44.3407 9.30227 44.1968 9.38149 44.1562 9.39711C44.1156 9.41273 44.0492 9.44656 44.0086 9.4724C43.968 9.49811 43.8462 9.56416 43.738 9.61903C43.6297 9.67389 43.4415 9.78374 43.3197 9.86308C43.1979 9.9423 43.0651 10.0203 43.0245 10.0363C42.9839 10.0523 42.8953 10.0982 42.8277 10.1381C42.76 10.1782 42.6382 10.2448 42.557 10.286C42.4759 10.3272 42.2987 10.4246 42.1634 10.5025C42.0281 10.5804 41.8399 10.6809 41.7452 10.7256C41.6504 10.7705 41.5619 10.8243 41.5483 10.8453C41.5348 10.8664 41.4463 10.9191 41.3515 10.9628C41.2568 11.0065 41.0797 11.1002 40.9579 11.1711C40.7277 11.3051 40.067 11.6682 39.7893 11.8133C39.592 11.9164 39.5904 11.9484 39.777 12.0587C39.8582 12.1067 39.9246 12.1618 39.9246 12.1811C39.9246 12.2006 39.9696 12.2307 40.0246 12.2482C40.0796 12.2656 40.1764 12.328 40.2397 12.3868C40.3031 12.4456 40.4297 12.5446 40.5211 12.6069C40.7516 12.7639 41.5716 13.3613 41.8658 13.5865C41.9998 13.6891 42.2111 13.8394 42.3355 13.9206C42.4597 14.0018 42.5937 14.0955 42.6331 14.129C42.7824 14.2557 43.0076 14.4204 43.2213 14.5591C43.3431 14.6382 43.4649 14.7278 43.4919 14.7586C43.552 14.8265 44.1255 15.2303 44.2577 15.2977C44.3101 15.3244 44.353 15.3624 44.353 15.3821C44.353 15.4018 44.5106 15.5238 44.7031 15.6534C44.8958 15.7829 45.1024 15.922 45.1624 15.9626C45.2225 16.0032 45.3101 16.0752 45.357 16.1225C45.404 16.1699 45.4622 16.2086 45.4863 16.2086C45.5104 16.2086 45.6472 16.3028 45.7903 16.4178C45.9335 16.5328 46.1502 16.6926 46.272 16.7729C46.3938 16.8532 46.5266 16.9472 46.5672 16.9818C46.708 17.1016 46.9374 17.27 47.1577 17.4154C47.2795 17.4957 47.3925 17.5799 47.409 17.6024C47.4254 17.6248 47.4951 17.6802 47.5639 17.7255C47.9738 17.9951 48.2669 18.2044 48.2813 18.2375C48.2903 18.2584 48.4231 18.3573 48.5765 18.4573C48.8362 18.6268 49.0501 18.7825 49.2226 18.9279C49.2622 18.9614 49.3883 19.0483 49.5027 19.1211C49.6171 19.1939 49.8321 19.3525 49.9806 19.4734C50.129 19.5943 50.2944 19.7072 50.3479 19.7242C50.4015 19.7412 50.4577 19.7876 50.4729 19.827C50.4881 19.8666 50.5331 19.899 50.5731 19.899C50.613 19.899 50.6746 19.9384 50.7099 19.9865C50.7453 20.0346 50.896 20.1499 51.0449 20.2431C51.1937 20.3362 51.3553 20.4565 51.4042 20.5105C51.5872 20.7133 51.7395 20.4141 51.8355 19.6628C51.8607 19.4653 51.9256 19.1345 51.9798 18.9277C52.0339 18.721 52.0782 18.4368 52.0782 18.296C52.0782 18.1553 52.1162 17.8549 52.1627 17.6287C52.2787 17.0644 52.2776 15.5686 52.1606 14.9854C52.1153 14.7592 52.0782 14.468 52.0782 14.3386C52.0782 14.2091 52.0335 13.9588 51.979 13.7822C51.9245 13.6057 51.8591 13.3654 51.8336 13.2481C51.776 12.9827 51.5509 12.3244 51.493 12.2522C51.4693 12.2227 51.4349 12.1283 51.4166 12.0426C51.3983 11.9569 51.3403 11.8372 51.2878 11.7768C51.2354 11.7163 51.1925 11.6301 51.1925 11.5855C51.1925 11.5407 51.1371 11.429 51.0695 11.3374C51.0018 11.2457 50.9465 11.1505 50.9465 11.1258C50.9465 11.1012 50.8901 11.0114 50.8214 10.9263C50.7526 10.8411 50.6639 10.7272 50.6243 10.6731C50.4893 10.4886 50.0857 9.97674 49.9615 9.8327C49.7112 9.54227 49.1929 9.12981 48.5354 8.69742C48.3866 8.5995 48.2091 8.48129 48.1408 8.43454C48.0727 8.38792 47.9637 8.33281 47.8986 8.31215C47.8335 8.29148 47.7357 8.23305 47.6811 8.18225C47.6266 8.13144 47.5363 8.08974 47.4806 8.0895C47.4247 8.08937 47.3127 8.04521 47.2315 7.99146C47.0271 7.85602 46.885 7.87226 46.5426 8.06994ZM38.3334 13.5906C38.3226 13.6098 38.2983 13.7114 38.2792 13.8166C38.2602 13.9217 38.2019 14.0874 38.1498 14.1849C38.0975 14.2823 38.0548 14.4241 38.0548 14.5C38.0548 14.5759 38.0132 14.7202 37.9623 14.8206C37.9114 14.921 37.8543 15.0959 37.8355 15.2094C37.8165 15.3228 37.7586 15.4991 37.7066 15.6011C37.6545 15.7032 37.6118 15.8428 37.6117 15.9116C37.6115 15.9802 37.5769 16.1024 37.535 16.1831C37.4929 16.2636 37.4354 16.4408 37.4073 16.5767C37.3792 16.7125 37.327 16.87 37.2913 16.9265C37.2556 16.9831 37.1996 17.1654 37.1669 17.3316C37.1342 17.4978 37.077 17.6591 37.0398 17.69C37.0027 17.7208 36.9723 17.8267 36.9723 17.9253C36.9723 18.0238 36.9284 18.1864 36.8748 18.2864C36.8211 18.3866 36.7632 18.5633 36.746 18.6793C36.7287 18.7953 36.6866 18.9355 36.6524 18.9907C36.618 19.0459 36.5638 19.2171 36.5318 19.3712C36.4998 19.5252 36.4544 19.6631 36.4311 19.6776C36.4077 19.6921 36.3629 19.8273 36.3315 19.9782C36.3002 20.129 36.2328 20.3446 36.1817 20.4571C36.1305 20.5695 36.0882 20.717 36.0874 20.7847C36.0866 20.8523 36.0501 20.9741 36.0062 21.0553C35.9623 21.1365 35.8947 21.3358 35.8561 21.4982C35.8174 21.6605 35.7727 21.8464 35.7568 21.9112L35.728 22.0291L36.0918 22.0008C36.2919 21.9853 37.9503 21.9485 39.777 21.9192C41.6037 21.8899 43.8511 21.8415 44.7713 21.8115C45.6914 21.7815 47.0863 21.7461 47.8712 21.733C49.6381 21.7033 49.6919 21.6859 49.1438 21.3216C48.9644 21.2022 48.7619 21.0675 48.694 21.0222C48.6261 20.977 48.5571 20.9194 48.5407 20.8943C48.5242 20.8692 48.4568 20.8201 48.3909 20.7854C48.3249 20.7506 48.2475 20.7031 48.2187 20.68C48.1899 20.6568 48.0667 20.5599 47.945 20.4649C47.8232 20.3698 47.6997 20.2727 47.6707 20.2491C47.6415 20.2256 47.562 20.1759 47.4941 20.1388C47.4261 20.1016 47.2618 19.987 47.1288 19.8839C46.8491 19.6671 46.1617 19.1675 45.8046 18.9213C45.6692 18.8281 45.5408 18.722 45.5192 18.6857C45.4975 18.6494 45.4564 18.6197 45.4279 18.6197C45.3994 18.6197 45.3134 18.5699 45.2369 18.509C45.1605 18.4481 45.0167 18.3429 44.9175 18.2752C44.8184 18.2076 44.6911 18.1024 44.6346 18.0415C44.5783 17.9806 44.5123 17.9308 44.4882 17.9308C44.4641 17.9308 44.2552 17.7924 44.0242 17.6233C43.7932 17.4541 43.4461 17.2007 43.2528 17.0603C43.0596 16.9197 42.878 16.7842 42.8492 16.7594C42.8204 16.7344 42.7429 16.6858 42.677 16.6515C42.6111 16.617 42.5199 16.5532 42.4745 16.5095C42.4292 16.4659 42.3114 16.3747 42.2129 16.3071C42.1142 16.2394 41.971 16.1342 41.8946 16.0733C41.8181 16.0124 41.7321 15.9626 41.7036 15.9626C41.6751 15.9626 41.634 15.9337 41.6123 15.8985C41.5907 15.8632 41.4622 15.7583 41.3269 15.6653C41.1916 15.5723 40.9813 15.4178 40.8595 15.322C40.7377 15.2262 40.5384 15.0824 40.4166 15.0024C40.2949 14.9226 40.0803 14.7682 39.94 14.6596C39.7996 14.5508 39.6114 14.4106 39.5217 14.3477C39.4321 14.285 39.1705 14.0951 38.9405 13.9255C38.5107 13.6089 38.3679 13.5301 38.3334 13.5906ZM50.2822 23.6744C50.0928 23.6805 49.4617 23.7097 48.8799 23.7392C48.298 23.7688 46.1945 23.8145 44.2054 23.8408C42.2163 23.867 40.1903 23.9084 39.7032 23.9329C39.216 23.9574 38.1693 23.9932 37.3771 24.0125C36.4531 24.035 35.9099 24.0673 35.862 24.1023C35.7727 24.1676 35.8688 24.6779 36.0077 24.8763C36.0511 24.9383 36.0866 25.0514 36.0866 25.1276C36.0866 25.2039 36.1291 25.3494 36.181 25.4511C36.2328 25.5527 36.2906 25.7235 36.3095 25.8305C36.3283 25.9374 36.3719 26.0701 36.4063 26.1254C36.4408 26.1806 36.4947 26.3493 36.526 26.5002C36.5573 26.6512 36.6145 26.8163 36.6531 26.8673C36.6916 26.9182 36.7238 27.0103 36.7247 27.0721C36.7255 27.1338 36.7816 27.3158 36.8493 27.4765C36.917 27.6373 36.9723 27.8146 36.9723 27.8707C36.9723 27.9266 37.0136 28.0547 37.0641 28.1551C37.1145 28.2554 37.1715 28.4262 37.1908 28.5344C37.21 28.6427 37.2556 28.7779 37.2921 28.8348C37.3288 28.8917 37.3744 29.0245 37.3936 29.1301C37.4128 29.2355 37.4698 29.4039 37.5202 29.5043C37.5706 29.6046 37.612 29.7383 37.612 29.8013C37.612 29.8644 37.6545 29.9994 37.7066 30.1015C37.7586 30.2035 37.816 30.3797 37.8343 30.4932C37.8525 30.6067 37.906 30.7666 37.9531 30.8487C38.0002 30.9306 38.054 31.0927 38.0725 31.2088C38.0911 31.3248 38.1374 31.4681 38.1754 31.5271C38.2133 31.5861 38.2605 31.7227 38.2803 31.8307C38.3001 31.9387 38.3566 32.1158 38.4059 32.2243C38.4552 32.3328 38.4959 32.4668 38.4965 32.5219C38.4972 32.5771 38.5389 32.7032 38.5893 32.8021C38.6397 32.9009 38.6962 33.0773 38.7148 33.1938C38.7335 33.3104 38.7814 33.4559 38.8215 33.5171C38.8618 33.5784 38.9149 33.7223 38.9398 33.837C38.9955 34.0933 39.1704 34.6336 39.2621 34.8326C39.2994 34.9138 39.3447 35.0688 39.3627 35.1771C39.3806 35.2853 39.4369 35.4429 39.4878 35.5273C39.5386 35.6117 39.5802 35.7582 39.5802 35.8528C39.5802 35.9476 39.6224 36.0785 39.674 36.1442C39.7256 36.2098 39.7836 36.3734 39.8031 36.5076C39.8224 36.6418 39.8706 36.7886 39.9102 36.8339C39.9498 36.8792 39.9941 37.012 40.0087 37.1291C40.0234 37.2463 40.0745 37.4085 40.1223 37.4897C40.1701 37.5709 40.2244 37.7148 40.2428 37.8095C40.2613 37.9042 40.3172 38.0925 40.3671 38.2278C40.417 38.3631 40.4829 38.5691 40.5138 38.6855C40.6261 39.1101 40.8487 39.0084 41.4843 38.2415C41.6778 38.0081 42.1426 37.4705 42.9619 36.5327C43.0222 36.4637 43.2436 36.1959 43.4539 35.9377C43.6643 35.6795 43.8647 35.4359 43.8992 35.3964C43.9338 35.3569 44.0623 35.1918 44.1847 35.0295C44.3071 34.8671 44.4994 34.6267 44.612 34.4953C44.7245 34.364 44.8395 34.2177 44.8677 34.1702C45.0263 33.9032 45.1969 33.6763 45.2393 33.6763C45.266 33.6763 45.2879 33.6521 45.2879 33.6226C45.2879 33.593 45.3329 33.51 45.388 33.4381C45.4432 33.3661 45.5824 33.1855 45.6974 33.0367C45.8126 32.8878 45.9827 32.6443 46.0754 32.4954C46.1683 32.3466 46.257 32.2137 46.2727 32.2002C46.3191 32.1603 46.5378 31.8417 46.6 31.7235C46.6316 31.6635 46.6818 31.5857 46.7116 31.5506C46.828 31.4135 47.0576 31.0409 47.0584 30.9877C47.0589 30.9567 47.0918 30.9189 47.1315 30.9036C47.1712 30.8884 47.2373 30.803 47.2782 30.7138C47.3866 30.478 47.541 30.2197 47.5933 30.1867C47.6182 30.171 47.6742 30.0807 47.7176 29.986C47.7612 29.8913 47.8523 29.7252 47.9204 29.6169C47.9883 29.5087 48.0878 29.3386 48.1414 29.2389C48.1949 29.1393 48.2595 29.0449 48.285 29.0293C48.3103 29.0136 48.3451 28.9364 48.3625 28.8578C48.3797 28.7792 48.4236 28.7035 48.46 28.6894C48.4964 28.6755 48.5406 28.5985 48.5582 28.5183C48.5758 28.438 48.6332 28.3334 48.6859 28.2858C48.7384 28.2383 48.7814 28.1615 48.7814 28.1152C48.7814 28.069 48.8227 27.9783 48.8731 27.9137C48.9235 27.8491 48.9817 27.741 49.0025 27.6733C49.0234 27.6057 49.0817 27.4915 49.1323 27.4197C49.183 27.3479 49.2243 27.269 49.2243 27.2445C49.2243 27.2201 49.335 26.9813 49.4703 26.7139C49.6056 26.4464 49.7163 26.2014 49.7163 26.1693C49.7163 26.1372 49.7495 26.0833 49.7901 26.0496C49.8307 26.0159 49.8639 25.9522 49.8639 25.9079C49.8639 25.8636 49.9193 25.7234 49.987 25.5963C50.0546 25.4692 50.1101 25.3365 50.1102 25.3014C50.1103 25.2664 50.1657 25.1287 50.2332 24.9956C50.3008 24.8625 50.356 24.7158 50.356 24.6695C50.356 24.6233 50.3875 24.5594 50.426 24.5274C50.4645 24.4955 50.5104 24.3841 50.528 24.2799C50.5456 24.1758 50.5908 24.0497 50.6286 23.9998C50.822 23.7447 50.7314 23.6597 50.2822 23.6744ZM33.429 25.2263C33.2527 25.3949 32.8784 25.7433 32.5971 26.0004C31.9353 26.6055 31.5117 27.0018 31.0574 27.4413C30.8555 27.6366 30.5178 27.9514 30.3068 28.1408C30.0958 28.3302 29.8622 28.5406 29.7878 28.6082C29.039 29.2879 28.7359 29.5688 28.4341 29.863C27.9826 30.3029 27.5839 30.6775 27.1806 31.0408C26.8732 31.3177 26.0801 32.0427 25.8047 32.2986C25.7319 32.3663 25.337 32.7401 24.9272 33.1294C24.5174 33.5187 24.137 33.8687 24.0819 33.9073C23.7571 34.1348 23.821 34.3028 24.2652 34.3907C24.3531 34.408 24.4251 34.4417 24.4251 34.4656C24.4251 34.4894 24.5192 34.5324 24.6342 34.5609C24.7492 34.5894 24.9098 34.6439 24.991 34.6821C25.0721 34.7202 25.2271 34.778 25.3354 34.8105C25.4436 34.8431 25.5654 34.8973 25.606 34.9313C25.6466 34.9651 25.7463 35.004 25.8274 35.0175C25.9715 35.0415 26.3109 35.1703 26.7185 35.3557C26.8297 35.4064 26.9519 35.4477 26.9899 35.4477C27.0279 35.4477 27.1417 35.492 27.2426 35.5461C27.3436 35.6002 27.454 35.6448 27.488 35.645C27.5218 35.6453 27.6603 35.6999 27.7956 35.7664C27.9309 35.833 28.0885 35.8882 28.1457 35.8889C28.2029 35.8898 28.3026 35.9316 28.3671 35.9818C28.4317 36.032 28.5691 36.0887 28.6726 36.1078C28.776 36.1267 28.931 36.1853 29.017 36.2377C29.103 36.2901 29.2151 36.3331 29.266 36.3333C29.3169 36.3333 29.4276 36.3753 29.512 36.4265C29.5964 36.4777 29.7429 36.5356 29.8376 36.5552C29.9323 36.5747 30.0343 36.6104 30.0643 36.6345C30.0943 36.6585 30.2383 36.7199 30.3842 36.7708C30.9333 36.9625 31.0001 36.9882 31.2449 37.1022C31.3829 37.1665 31.5421 37.2191 31.5987 37.2191C31.6552 37.2191 31.7152 37.241 31.7316 37.2677C31.7481 37.2944 31.8788 37.3502 32.0221 37.3919C32.1653 37.4335 32.3247 37.4995 32.3763 37.5387C32.4279 37.5776 32.5166 37.6102 32.5734 37.6111C32.6304 37.612 32.7809 37.6681 32.9082 37.7357C33.0354 37.8034 33.1856 37.8587 33.2419 37.8587C33.2981 37.8587 33.4132 37.9007 33.4976 37.9519C33.582 38.003 33.7285 38.0613 33.8232 38.0813C33.9179 38.1012 34.0482 38.159 34.1128 38.2096C34.1774 38.2601 34.2854 38.3016 34.353 38.3016C34.4206 38.3016 34.5449 38.3435 34.6293 38.3947C34.7137 38.4459 34.8602 38.5037 34.9549 38.5231C35.0496 38.5427 35.1603 38.5868 35.2009 38.6214C35.2415 38.656 35.3522 38.6999 35.447 38.7191C35.5417 38.7383 35.6924 38.7961 35.7819 38.8476C35.8714 38.899 35.9821 38.942 36.0279 38.9428C36.0737 38.9436 36.2219 38.9988 36.3573 39.0654C36.4926 39.1319 36.6504 39.1865 36.708 39.1868C36.7655 39.187 36.8397 39.2199 36.8728 39.2597C36.9059 39.2997 37.0138 39.3466 37.1125 39.3641C37.2113 39.3817 37.3586 39.435 37.4398 39.4825C37.5209 39.53 37.6682 39.5832 37.767 39.6008C37.8657 39.6184 37.9724 39.6639 38.004 39.7021C38.0357 39.7402 38.1321 39.7852 38.2182 39.8022C38.3042 39.8192 38.4376 39.8573 38.5145 39.8871C38.7427 39.9751 38.8072 39.6562 38.6214 39.3584C38.5872 39.3036 38.543 39.1597 38.5232 39.0385C38.5034 38.9174 38.4481 38.7518 38.4002 38.6706C38.3524 38.5894 38.3012 38.4272 38.2866 38.3101C38.2719 38.193 38.2269 38.0601 38.1863 38.0148C38.1458 37.9696 38.0965 37.8226 38.0766 37.6882C38.0568 37.5538 37.9995 37.3766 37.9494 37.2946C37.8993 37.2124 37.8581 37.0788 37.8579 36.9976C37.8576 36.9165 37.8138 36.784 37.7606 36.7032C37.7073 36.6225 37.6489 36.4564 37.6308 36.3341C37.6127 36.212 37.5569 36.0348 37.5066 35.9405C37.4562 35.8461 37.415 35.7133 37.4148 35.6453C37.4147 35.5772 37.3705 35.4551 37.3167 35.3739C37.263 35.2927 37.2186 35.1598 37.2182 35.0787C37.2178 34.9975 37.163 34.8203 37.0964 34.685C37.0299 34.5497 36.9746 34.3883 36.9739 34.3263C36.973 34.2643 36.928 34.1268 36.8739 34.0208C36.8198 33.9147 36.7755 33.7813 36.7755 33.7243C36.7755 33.6673 36.7323 33.517 36.6794 33.3902C36.6266 33.2634 36.5599 33.0674 36.5311 32.9546C36.5023 32.8419 36.4459 32.6869 36.406 32.6102C36.366 32.5335 36.3331 32.4201 36.3329 32.3581C36.3328 32.2961 36.2902 32.1623 36.2383 32.0606C36.1865 31.959 36.1277 31.7885 36.1077 31.6817C36.0876 31.575 36.0309 31.3989 35.9816 31.2904C35.9322 31.1819 35.8914 31.0488 35.8905 30.9947C35.8898 30.9405 35.8552 30.8312 35.8138 30.7517C35.7725 30.6723 35.7165 30.5089 35.6895 30.3888C35.6626 30.2687 35.597 30.0748 35.5438 29.9578C35.4905 29.8409 35.447 29.699 35.447 29.6423C35.447 29.5856 35.4056 29.457 35.3552 29.3566C35.3048 29.2563 35.2476 29.0865 35.2281 28.9796C35.2087 28.8726 35.1503 28.7019 35.0985 28.6002C35.0466 28.4985 35.0041 28.369 35.0041 28.3123C35.0041 28.2556 34.9618 28.1163 34.9101 28.0028C34.8585 27.8892 34.8007 27.7078 34.7816 27.5995C34.7626 27.4913 34.718 27.3561 34.6823 27.2991C34.6468 27.2423 34.602 27.1095 34.5828 27.0039C34.5636 26.8985 34.5067 26.7301 34.4562 26.6297C34.4058 26.5293 34.3645 26.3908 34.3645 26.3219C34.3645 26.2532 34.3202 26.1143 34.2662 26.0134C34.212 25.9126 34.155 25.752 34.1392 25.6568C34.1021 25.432 33.8659 24.9176 33.8003 24.9187C33.7723 24.9192 33.6052 25.0576 33.429 25.2263ZM51.2224 27.6036C51.2059 27.6464 51.1925 27.7208 51.1925 27.7692C51.1925 27.8174 51.1495 27.9115 51.0971 27.9782C51.0446 28.0448 50.9873 28.1569 50.9697 28.2271C50.952 28.2975 50.8953 28.3932 50.8436 28.4401C50.792 28.4868 50.7496 28.5737 50.7496 28.633C50.7496 28.6923 50.7038 28.7937 50.6477 28.8583C50.5916 28.923 50.5335 29.0372 50.5185 29.112C50.5035 29.1868 50.4711 29.2479 50.4465 29.2479C50.4218 29.2479 50.3585 29.342 50.3057 29.457C50.2528 29.572 50.1886 29.6994 50.1627 29.7399C50.1369 29.7805 49.991 30.0352 49.8384 30.3058C49.4364 31.0187 49.211 31.39 49.1174 31.4939C49.0721 31.544 49.0198 31.6466 49.001 31.7218C48.9823 31.7968 48.9252 31.8807 48.8742 31.908C48.8231 31.9353 48.7814 31.9855 48.7814 32.0197C48.7814 32.0538 48.7479 32.125 48.7069 32.1779C48.6659 32.2307 48.5122 32.4622 48.3653 32.6922C48.2184 32.9223 48.0227 33.2101 47.9306 33.3319C47.8383 33.4537 47.7341 33.6087 47.6991 33.6763C47.664 33.744 47.5555 33.8991 47.4581 34.021C47.3605 34.1429 47.2586 34.2781 47.2315 34.3216C47.1187 34.5027 46.9856 34.6903 46.9141 34.769C46.8722 34.8153 46.777 34.9371 46.7027 35.0397C46.6282 35.1423 46.4268 35.4054 46.2549 35.6243C46.0829 35.8433 45.8511 36.1459 45.7397 36.2967C45.6283 36.4475 45.4866 36.6262 45.4248 36.6937C45.3631 36.7612 45.2629 36.8794 45.2024 36.9563C44.8346 37.423 44.3089 38.0531 44.1764 38.1859C44.0913 38.2712 43.8602 38.5369 43.6629 38.7764C43.4656 39.0159 43.2578 39.2602 43.2013 39.3192C43.1447 39.3783 42.9101 39.6318 42.6801 39.8828C42.45 40.1337 42.1238 40.4839 41.9552 40.6611C41.6185 41.0146 41.564 41.1903 41.7503 41.3208C41.8542 41.3936 42.2947 41.7839 42.7539 42.2103C43.0604 42.4948 43.0967 42.5264 43.6396 42.9838C43.8831 43.189 44.2305 43.4981 44.4116 43.6708C44.5926 43.8434 44.8452 44.0733 44.9726 44.1815C45.1002 44.2898 45.2538 44.4226 45.314 44.4768C45.3743 44.5309 45.5529 44.6859 45.7109 44.8212C46.0398 45.1027 46.4354 45.4569 46.6193 45.6346C46.7562 45.7667 46.9464 45.9346 47.4788 46.3933C47.8841 46.7424 48.1259 46.9612 48.4059 47.2321C48.5177 47.3402 48.7421 47.5371 48.9045 47.6695C49.0668 47.802 49.3292 48.0424 49.4874 48.2038C49.8487 48.5721 49.8376 48.5905 49.9057 47.5029C49.9369 47.0022 49.9954 46.349 50.0358 46.0513C50.0761 45.7536 50.1099 45.2444 50.1106 44.9196C50.1114 44.5949 50.144 44.0967 50.183 43.8125C50.2222 43.5283 50.2776 42.8419 50.3063 42.2872C50.3351 41.7324 50.3906 41.0349 50.4297 40.7372C50.4688 40.4395 50.5248 39.6978 50.5539 39.0888C50.5831 38.4799 50.629 37.8981 50.6559 37.7959C50.6828 37.6936 50.7256 37.129 50.751 36.5411C50.7763 35.9533 50.8202 35.3062 50.8488 35.1033C50.9364 34.4782 50.9912 33.7735 50.9936 33.2454C50.9947 32.9678 51.0381 32.4253 51.0899 32.0399C51.1418 31.6545 51.1967 30.9627 51.212 30.5026C51.2274 30.0426 51.2716 29.4336 51.3103 29.1495C51.4257 28.3024 51.4568 27.6809 51.3879 27.5979C51.3107 27.5048 51.2596 27.5065 51.2224 27.6036ZM7.03763 30.6871C6.96764 30.9482 7.00405 41.4776 7.07527 41.575C7.14047 41.6641 7.14809 41.6603 7.22596 41.4983C7.40347 41.1291 7.51836 40.9324 7.57716 40.8969C7.61099 40.8763 7.65281 40.7949 7.67016 40.7157C7.68762 40.6366 7.73486 40.5443 7.77533 40.5107C7.81568 40.4773 7.88149 40.3816 7.92147 40.2983C7.96145 40.2149 8.04829 40.0582 8.11447 39.9499C8.18066 39.8417 8.26172 39.6978 8.29444 39.6301C8.32729 39.5624 8.38412 39.4709 8.42077 39.4269C8.45743 39.3827 8.52706 39.272 8.57552 39.1809C8.85255 38.66 9.04531 38.323 9.07963 38.2998C9.10103 38.2853 9.15233 38.1928 9.19353 38.0941C9.23487 37.9954 9.29133 37.9006 9.31925 37.8833C9.34718 37.8661 9.40241 37.7816 9.44202 37.6955C9.51742 37.5316 9.57376 37.4346 9.72765 37.2027C9.82815 37.0515 9.75656 36.7455 9.5114 36.2775C9.45986 36.1791 9.41766 36.0608 9.41766 36.0147C9.41766 35.9684 9.37338 35.8744 9.31925 35.8055C9.26513 35.7368 9.2206 35.6446 9.22035 35.601C9.2201 35.5573 9.16549 35.4108 9.09894 35.2755C9.03239 35.1402 8.97716 34.9937 8.97642 34.95C8.97556 34.9063 8.93054 34.8142 8.87641 34.7454C8.82228 34.6765 8.778 34.5862 8.778 34.5445C8.778 34.5028 8.72265 34.3647 8.65499 34.2375C8.58733 34.1102 8.53198 33.9767 8.53198 33.9408C8.53198 33.9049 8.48782 33.803 8.43369 33.7145C8.37969 33.6258 8.3354 33.5064 8.33528 33.4492C8.33528 33.392 8.29087 33.2888 8.23675 33.2201C8.18262 33.1512 8.13834 33.063 8.13834 33.0239C8.13834 32.9849 8.08298 32.8488 8.01533 32.7215C7.94767 32.5943 7.89219 32.4526 7.89195 32.4067C7.89182 32.3607 7.84766 32.2568 7.79391 32.1756C7.74015 32.0944 7.69599 31.997 7.69587 31.9591C7.6955 31.893 7.54198 31.5413 7.34565 31.1572C7.29448 31.057 7.25265 30.9282 7.25265 30.8709C7.25265 30.6296 7.09028 30.4907 7.03763 30.6871ZM20.35 35.9685C20.2872 36.0126 20.0731 36.0688 19.874 36.0935C19.6751 36.1181 19.4369 36.1699 19.3445 36.2085C19.2522 36.247 19.0567 36.2924 18.9101 36.3093C18.7635 36.3261 18.555 36.3709 18.4467 36.4087C18.3385 36.4464 18.1033 36.5003 17.9242 36.5282C17.7451 36.5563 17.5042 36.6125 17.3891 36.6531C17.2739 36.6938 17.0994 36.7271 17.0013 36.7274C16.9032 36.7275 16.6604 36.7829 16.4616 36.8504C16.2628 36.9178 16.024 36.973 15.931 36.973C15.838 36.973 15.6866 37.0045 15.5945 37.043C15.5024 37.0814 15.2581 37.1386 15.0516 37.1699C14.8451 37.2011 14.6056 37.2559 14.5195 37.2913C14.4332 37.3267 14.241 37.3709 14.0921 37.3893C13.9433 37.4078 13.694 37.4656 13.5383 37.5179C13.3827 37.57 13.1688 37.6127 13.063 37.6127C12.5489 37.6127 12.1756 37.8934 12.3665 38.1362C12.4226 38.2073 12.4685 38.3236 12.4686 38.3943C12.4688 38.4651 12.5046 38.5894 12.5482 38.6706C12.5919 38.7518 12.6574 38.9179 12.6938 39.0396C12.8295 39.4921 13.0144 39.999 13.0604 40.045C13.0866 40.0712 13.1083 40.1491 13.1085 40.2181C13.1088 40.2871 13.1634 40.4543 13.2299 40.5896C13.2965 40.7249 13.3518 40.891 13.3528 40.9586C13.3538 41.0263 13.3987 41.1481 13.4525 41.2293C13.5062 41.3104 13.5504 41.4323 13.5505 41.5003C13.5507 41.5682 13.6062 41.7277 13.6739 41.8548C13.7415 41.9818 13.7969 42.1484 13.7969 42.2248C13.7969 42.3012 13.8326 42.4146 13.8761 42.4768C13.9198 42.5391 13.9851 42.6935 14.0213 42.8199C14.0574 42.9464 14.1558 43.238 14.2398 43.4681C14.324 43.6981 14.4124 43.9527 14.4365 44.0339C14.5198 44.3143 14.7018 44.8218 14.7904 45.0212C14.8394 45.1313 14.8795 45.2642 14.8796 45.3164C14.8799 45.3688 14.9159 45.4781 14.9598 45.5593C15.0038 45.6405 15.059 45.8048 15.0826 45.9246C15.1063 46.0443 15.1607 46.181 15.2035 46.2282C15.2463 46.2756 15.2937 46.4101 15.3088 46.5273C15.324 46.6444 15.3744 46.7955 15.4209 46.8632C15.4674 46.9309 15.5211 47.0722 15.5403 47.1774C15.5595 47.2825 15.618 47.4482 15.6701 47.5457C15.7224 47.6431 15.7651 47.7632 15.7651 47.8124C15.7651 47.8616 15.8069 47.9948 15.8579 48.1083C15.909 48.2219 15.9664 48.3922 15.9858 48.487C16.0049 48.5817 16.0489 48.7038 16.0833 48.7583C16.1176 48.8128 16.1625 48.9346 16.1828 49.0289C16.2032 49.1233 16.2615 49.2826 16.3124 49.383C16.3632 49.4833 16.4047 49.6118 16.4047 49.6684C16.4047 49.7249 16.4419 49.8421 16.4874 49.9287C16.5328 50.0153 16.5954 50.1968 16.6264 50.3321C16.7284 50.7772 16.984 50.4773 17.0951 49.7819C17.1242 49.5995 17.171 49.4225 17.1991 49.3886C17.2273 49.3547 17.268 49.1837 17.2898 49.0085C17.3116 48.8334 17.3663 48.6166 17.4115 48.5269C17.4566 48.4373 17.5051 48.2532 17.5191 48.1179C17.5331 47.9826 17.5853 47.7612 17.6349 47.6259C17.6844 47.4906 17.7376 47.2743 17.7529 47.1453C17.7682 47.0162 17.8143 46.846 17.8553 46.7668C17.8961 46.6877 17.95 46.4832 17.975 46.3125C17.9998 46.1417 18.0525 45.9246 18.0918 45.8299C18.1312 45.7352 18.1786 45.538 18.197 45.3916C18.2156 45.2453 18.2627 45.0638 18.3018 44.9881C18.3409 44.9126 18.3729 44.7951 18.3729 44.7271C18.3729 44.6592 18.428 44.4311 18.4953 44.2203C18.5626 44.0096 18.618 43.7771 18.6183 43.7036C18.6187 43.6302 18.6605 43.4641 18.7115 43.3346C18.7623 43.2051 18.8202 42.9773 18.8401 42.8284C18.8602 42.6796 18.9043 42.5024 18.9383 42.4348C18.9722 42.3671 19.0254 42.1643 19.0563 41.9839C19.0871 41.8036 19.1452 41.5932 19.1852 41.5165C19.2253 41.4397 19.2581 41.3077 19.2584 41.2232C19.2585 41.1387 19.314 40.9001 19.3816 40.6928C19.4493 40.4855 19.5046 40.2527 19.5046 40.1752C19.5046 40.0978 19.5484 39.938 19.6019 39.82C19.6554 39.7021 19.6997 39.5364 19.7003 39.4519C19.701 39.3673 19.7568 39.1287 19.8245 38.9214C19.8921 38.7142 19.9476 38.4844 19.9477 38.4108C19.948 38.3371 19.9784 38.2189 20.0155 38.1478C20.0525 38.0768 20.1087 37.8699 20.1404 37.6881C20.1721 37.5063 20.2283 37.2765 20.2653 37.1776C20.3024 37.0786 20.3468 36.898 20.364 36.7762C20.3812 36.6544 20.4318 36.4518 20.4763 36.3261C20.5853 36.0188 20.5244 35.8464 20.35 35.9685ZM22.609 36.0534C22.5794 36.0829 22.5552 36.1746 22.5551 36.2571C22.5547 36.4351 22.4783 36.7401 22.3799 36.9558C22.341 37.0412 22.3093 37.1888 22.3093 37.2839C22.3093 37.3791 22.2685 37.5529 22.2184 37.6702C22.1685 37.7874 22.1119 38.003 22.0927 38.1494C22.0735 38.2957 22.026 38.477 21.987 38.5524C21.948 38.6278 21.8936 38.8479 21.8662 39.0414C21.8388 39.235 21.7833 39.4405 21.743 39.4981C21.7026 39.5557 21.6696 39.6859 21.6696 39.7876C21.6696 39.8892 21.6143 40.1193 21.5466 40.299C21.479 40.4789 21.4236 40.7021 21.4236 40.7954C21.4236 40.8886 21.3812 41.0687 21.3294 41.1955C21.2775 41.3224 21.2237 41.5368 21.2098 41.6721C21.1959 41.8074 21.1392 42.0178 21.0837 42.1395C21.0283 42.2613 20.9818 42.4495 20.9802 42.5578C20.9787 42.666 20.9346 42.8432 20.8824 42.9514C20.8301 43.0597 20.7858 43.2257 20.7841 43.3205C20.7822 43.4152 20.7379 43.6145 20.6855 43.7633C20.6331 43.9121 20.5891 44.0893 20.5878 44.1569C20.5863 44.2246 20.5303 44.4349 20.4633 44.6244C20.3963 44.8138 20.3415 45.0269 20.3414 45.098C20.3412 45.169 20.3067 45.324 20.2645 45.4424C20.2224 45.5607 20.1571 45.8016 20.1194 45.9775C20.0368 46.3641 19.921 46.8262 19.7989 47.2568C19.7489 47.4327 19.6867 47.6874 19.6605 47.8227C19.6344 47.958 19.5784 48.1573 19.5364 48.2655C19.4942 48.3738 19.4587 48.5462 19.4576 48.6488C19.4564 48.7514 19.4142 48.9175 19.3639 49.0179C19.3136 49.1182 19.2585 49.3238 19.2415 49.4746C19.2245 49.6254 19.1773 49.8155 19.1366 49.897C19.0959 49.9786 19.042 50.1763 19.0169 50.3363C18.9917 50.4965 18.9385 50.727 18.8988 50.8488C18.8259 51.0728 18.722 51.5293 18.7031 51.7099C18.6877 51.8564 19.1493 51.8706 19.5823 51.7369C19.7617 51.6814 20.0004 51.6351 20.1126 51.6338C20.2247 51.6327 20.4051 51.5994 20.5133 51.5599C20.6216 51.5203 20.8961 51.4547 21.1236 51.4143C21.3509 51.3737 21.5613 51.3205 21.591 51.2961C21.6207 51.2716 21.7557 51.236 21.8911 51.217C22.0264 51.1979 22.234 51.1404 22.3525 51.0894C22.4709 51.0382 22.621 50.9964 22.6861 50.9964C22.7512 50.9964 22.9358 50.941 23.0966 50.8734C23.2574 50.8057 23.4333 50.7504 23.4874 50.7504C23.5416 50.7504 23.6806 50.7092 23.7964 50.6587C24.05 50.5481 24.4126 50.4213 24.7417 50.3279C24.8753 50.2902 24.9971 50.2391 25.0124 50.2147C25.0276 50.1902 25.1287 50.1463 25.237 50.117C25.3452 50.0878 25.4781 50.033 25.5322 49.9952C25.5863 49.9574 25.7081 49.9098 25.8028 49.8894C25.8976 49.8691 26.0304 49.8136 26.0981 49.7663C26.1657 49.7189 26.2916 49.6649 26.3775 49.6462C26.4637 49.6276 26.5605 49.5805 26.5927 49.5417C26.6249 49.5028 26.6746 49.471 26.7029 49.471C26.7552 49.471 27.3399 49.2078 27.4758 49.1232C27.5164 49.0978 27.605 49.055 27.6726 49.0281C27.7403 49.001 27.8288 48.9603 27.8694 48.9374C28.005 48.8612 28.139 48.7933 28.2631 48.7378C28.3307 48.7075 28.5632 48.5824 28.7797 48.4599C28.9962 48.3374 29.2675 48.1944 29.3825 48.1424C29.4975 48.0902 29.5916 48.0271 29.5916 48.002C29.5916 47.9769 29.6525 47.9411 29.7269 47.9226C29.8013 47.904 29.8995 47.8553 29.9449 47.8143C30.0327 47.7352 30.2508 47.6072 30.5142 47.4802C30.6021 47.4378 30.6741 47.3854 30.6741 47.3637C30.6741 47.342 30.7461 47.286 30.834 47.2394C31.0351 47.1325 31.154 47.0615 31.3396 46.937C31.4203 46.8829 31.522 46.8165 31.5656 46.7894C31.7979 46.645 32.2827 46.3171 32.3452 46.2623C32.3848 46.2275 32.4537 46.1768 32.4981 46.1497C32.5427 46.1227 32.6743 46.0341 32.7908 45.9529C32.9071 45.8717 33.0504 45.7721 33.1091 45.7315C33.4278 45.5112 34.0578 45.0391 34.143 44.9568C34.1972 44.9045 34.4075 44.7427 34.6105 44.5972C34.8135 44.4518 34.9906 44.3177 35.0041 44.2993C35.0256 44.2699 35.8144 43.6222 36.0763 43.4189C36.1286 43.3783 36.335 43.1984 36.5349 43.0192C37.1706 42.4495 37.6367 42.0577 37.7521 41.996C37.8136 41.963 37.8558 41.9114 37.8457 41.8811C37.8178 41.7973 37.3577 41.5561 37.2183 41.552C37.1507 41.5501 37.0289 41.5044 36.9477 41.4507C36.8665 41.3969 36.7669 41.3525 36.7263 41.3521C36.6857 41.3518 36.5418 41.2969 36.4065 41.2304C36.2711 41.1638 36.1269 41.1086 36.0859 41.1078C36.0449 41.107 35.9287 41.062 35.8278 41.0078C35.7268 40.9537 35.6053 40.9093 35.5578 40.9093C35.5104 40.9092 35.4012 40.8661 35.3152 40.8137C35.2292 40.7613 35.0747 40.7026 34.9718 40.6833C34.8689 40.664 34.7179 40.6074 34.6361 40.5576C34.5544 40.5078 34.4539 40.4668 34.4129 40.4667C34.372 40.4667 34.2557 40.4223 34.1548 40.3682C34.0539 40.314 33.9323 40.2696 33.8848 40.2695C33.8375 40.2694 33.71 40.2147 33.6018 40.148C33.4935 40.0813 33.3522 40.0261 33.2877 40.0252C33.2233 40.0245 33.1015 39.9818 33.0171 39.9306C32.9327 39.8794 32.7866 39.8211 32.6922 39.8012C32.5979 39.7812 32.4711 39.7323 32.4104 39.6925C32.3498 39.6527 32.2276 39.6024 32.1391 39.5807C31.9775 39.5409 31.5178 39.3642 31.3439 39.2748C31.2927 39.2485 31.138 39.1935 31.0001 39.1526C30.8621 39.1116 30.7052 39.0473 30.6515 39.0096C30.5977 38.972 30.5083 38.9412 30.4527 38.9412C30.3971 38.9412 30.3077 38.9105 30.2539 38.8728C30.2001 38.8352 30.04 38.7699 29.8981 38.7277C29.7562 38.6856 29.5911 38.6167 29.5311 38.5748C29.4712 38.5327 29.3768 38.4984 29.3216 38.4984C29.2664 38.4984 29.1384 38.4541 29.0376 38.4C28.9366 38.3459 28.8261 38.3013 28.7921 38.3011C28.7583 38.3008 28.6198 38.2462 28.4845 38.1797C28.3492 38.1131 28.1968 38.0579 28.1458 38.0571C28.0949 38.0563 27.9842 38.0136 27.8998 37.9624C27.8154 37.9113 27.6708 37.8533 27.5783 37.8338C27.4859 37.8141 27.342 37.7565 27.2584 37.7056C27.175 37.6547 27.0651 37.613 27.0141 37.6128C26.9632 37.6128 26.8525 37.5708 26.7681 37.5196C26.6837 37.4684 26.5372 37.4101 26.4425 37.3901C26.3478 37.37 26.1932 37.3122 26.0988 37.2618C26.0045 37.2112 25.8937 37.1697 25.8528 37.1697C25.8118 37.1696 25.7058 37.1253 25.6171 37.0713C25.5285 37.0172 25.4178 36.9728 25.3711 36.9726C25.3244 36.9723 25.1755 36.9177 25.0402 36.8511C24.9049 36.7846 24.7457 36.7294 24.6864 36.7286C24.6271 36.7278 24.565 36.7051 24.5485 36.6784C24.532 36.6517 24.3934 36.5936 24.2405 36.5491C24.0876 36.5046 23.9348 36.4406 23.901 36.4067C23.8671 36.3729 23.7553 36.3298 23.6526 36.3111C23.5498 36.2923 23.4164 36.2452 23.3563 36.2064C23.1816 36.094 22.6726 35.9898 22.609 36.0534ZM10.5497 39.7347C10.5136 39.8259 10.455 39.935 10.4196 39.977C10.3842 40.0189 10.2738 40.2072 10.1746 40.3952C10.0752 40.5833 9.97823 40.7483 9.95904 40.7618C9.93997 40.7753 9.88523 40.8694 9.83762 40.9709C9.7899 41.0724 9.73306 41.1554 9.71117 41.1554C9.6894 41.1554 9.65729 41.2204 9.63982 41.2996C9.62235 41.379 9.57512 41.4713 9.53465 41.5049C9.4943 41.5384 9.42996 41.6341 9.39195 41.7174C9.35382 41.8008 9.26636 41.9575 9.19759 42.0657C9.12883 42.174 9.04075 42.3307 9.00201 42.4141C8.96313 42.4974 8.89818 42.5931 8.85784 42.6265C8.81736 42.6601 8.77013 42.7523 8.75278 42.8312C8.73544 42.9102 8.7021 42.9867 8.67861 43.0012C8.65511 43.0158 8.54059 43.1956 8.4241 43.401C8.30748 43.6065 8.16306 43.8549 8.10316 43.9534C8.04325 44.0518 7.95936 44.1988 7.91679 44.2799C7.87423 44.3611 7.77386 44.5272 7.69377 44.649C7.38268 45.1221 7.34184 45.5285 7.56203 45.9587C7.60201 46.0367 7.65097 46.1983 7.67077 46.3179C7.6907 46.4373 7.74851 46.6034 7.79944 46.6869C7.85037 46.7703 7.89207 46.8773 7.89219 46.9247C7.89232 46.9972 7.97842 47.1897 8.19492 47.6013C8.21621 47.6419 8.27919 47.7636 8.33479 47.8719C8.45989 48.1157 8.52595 48.2249 8.66729 48.4218C8.72818 48.5065 8.778 48.5916 8.778 48.6107C8.778 48.7728 10.1194 50.1151 10.6112 50.4451C11.0264 50.7237 11.7386 51.1156 11.9763 51.1964C12.071 51.2285 12.1817 51.2825 12.2223 51.3162C12.2629 51.3499 12.3847 51.3934 12.493 51.4125C12.6012 51.4317 12.7588 51.4899 12.8432 51.5418C12.9276 51.5936 13.0652 51.6361 13.1489 51.6361C13.2326 51.6361 13.4072 51.6775 13.5367 51.7281C13.6662 51.7787 13.9273 51.8362 14.1167 51.8556C14.3062 51.8752 14.5818 51.9223 14.7294 51.9603C15.0518 52.0435 15.1184 52.0013 15.0094 51.7829C14.9664 51.6967 14.9168 51.5454 14.8993 51.4466C14.8817 51.3478 14.8259 51.198 14.775 51.1136C14.7241 51.0292 14.6823 50.9075 14.6821 50.843C14.6818 50.7785 14.6272 50.6151 14.5607 50.4797C14.4941 50.3444 14.4383 50.1784 14.4365 50.1107C14.4348 50.0431 14.4027 49.9471 14.3651 49.8975C14.3276 49.8481 14.2697 49.6931 14.2367 49.5531C14.2036 49.4132 14.1465 49.2552 14.1097 49.2018C14.0729 49.1484 14.0429 49.059 14.0429 49.0031C14.0429 48.9471 13.9989 48.8149 13.945 48.7092C13.8911 48.6036 13.8333 48.4384 13.8164 48.342C13.7997 48.2458 13.7441 48.0939 13.6931 48.0044C13.6419 47.9149 13.5993 47.7932 13.5985 47.7338C13.5977 47.6745 13.5425 47.5152 13.4759 47.3798C13.4094 47.2445 13.3548 47.0779 13.3545 47.0095C13.3543 46.9411 13.3211 46.8381 13.2808 46.7807C13.2406 46.7232 13.1764 46.5578 13.138 46.413C13.0998 46.2682 13.0331 46.0833 12.99 46.0021C12.947 45.9209 12.9117 45.8146 12.9114 45.7659C12.9113 45.7172 12.876 45.6095 12.8331 45.5263C12.7902 45.4433 12.7257 45.2728 12.69 45.1474C12.6064 44.8543 12.4729 44.4678 12.3902 44.2799C12.3546 44.1988 12.3001 44.0333 12.2691 43.9124C12.2381 43.7913 12.1816 43.648 12.1437 43.5939C12.1057 43.5397 12.074 43.4394 12.0731 43.371C12.0724 43.3026 12.0171 43.1359 11.9506 43.0006C11.884 42.8653 11.8294 42.7018 11.8292 42.6374C11.8289 42.5729 11.7863 42.4511 11.7345 42.3667C11.6826 42.2824 11.6238 42.1253 11.6038 42.0175C11.5838 41.9099 11.5267 41.7549 11.4769 41.6731C11.4271 41.5914 11.3861 41.4691 11.3859 41.4015C11.3856 41.3338 11.3446 41.2115 11.2948 41.1299C11.245 41.0481 11.188 40.8931 11.1684 40.7854C11.1487 40.6777 11.1043 40.5453 11.0698 40.4912C11.0354 40.4371 10.9805 40.2821 10.9479 40.1467C10.9153 40.0114 10.8273 39.8259 10.7521 39.7347L10.6157 39.5686L10.5497 39.7347ZM40.0362 42.6242C39.9456 42.6507 39.3705 43.1513 38.9212 43.595C38.8641 43.6514 38.6071 43.8714 38.35 44.0842C38.0929 44.2969 37.8472 44.5054 37.8039 44.5476C37.4712 44.8715 37.124 45.168 36.8493 45.3625C36.7152 45.4575 36.4888 45.6493 36.3296 45.8027C36.2874 45.8434 36.0881 45.9984 35.8867 46.147C35.6855 46.2956 35.4278 46.4971 35.3141 46.5949C35.2006 46.6927 35.0013 46.8415 34.8713 46.9259C34.7414 47.0102 34.5354 47.159 34.4137 47.2567C34.2919 47.3545 34.0622 47.5218 33.9032 47.6286C33.7442 47.7353 33.4785 47.9172 33.3127 48.0325C32.8793 48.3343 32.6359 48.4972 32.4891 48.5835C32.2031 48.7518 31.8839 48.9618 31.7198 49.0897C31.6244 49.1641 31.5205 49.225 31.4892 49.225C31.4578 49.225 31.3889 49.2582 31.336 49.2988C31.145 49.4456 30.8923 49.599 30.7356 49.6633C30.6477 49.6995 30.5757 49.7451 30.5757 49.7648C30.5757 49.7845 30.4927 49.8377 30.3912 49.8834C30.2897 49.9289 30.096 50.029 29.9606 50.106C29.8253 50.1829 29.5596 50.3265 29.3702 50.4249C29.1807 50.5233 28.9704 50.6342 28.9027 50.6714C28.6859 50.7907 27.9498 51.1399 27.7464 51.22C27.3026 51.3951 28.3662 51.4507 29.1811 51.2951C29.3207 51.2685 29.8743 51.2325 30.4112 51.215C30.9482 51.1975 31.6865 51.1507 32.0518 51.1109C32.4172 51.0711 33.1811 51.019 33.7494 50.9954C34.3177 50.9718 35.0927 50.9174 35.4716 50.8747C35.8504 50.832 36.5479 50.7853 37.0215 50.7709C37.4951 50.7565 38.1483 50.7132 38.4731 50.6747C38.7978 50.6361 39.5728 50.5822 40.1952 50.5548C40.8177 50.5274 41.6369 50.4722 42.0158 50.4321C42.3947 50.3922 43.225 50.3361 43.861 50.3075C44.4969 50.279 45.1059 50.2346 45.2141 50.2087C45.3224 50.183 45.8316 50.1498 46.3458 50.1349C46.86 50.1201 47.5485 50.0838 47.8758 50.0541L48.471 50.0004L48.2669 49.7972C48.1546 49.6855 47.9099 49.4612 47.7232 49.2988C47.5363 49.1365 47.2797 48.904 47.1529 48.7822C47.0259 48.6604 46.8152 48.4722 46.6843 48.3639C46.5536 48.2557 46.4004 48.1228 46.3441 48.0687C46.2878 48.0146 46.0989 47.8489 45.9246 47.7005C45.7503 47.5521 45.5294 47.3528 45.4337 47.2577C45.338 47.1625 45.1166 46.963 44.9416 46.8142C44.7667 46.6656 44.6126 46.53 44.599 46.5127C44.5855 46.4955 44.4194 46.3509 44.23 46.1911C43.8169 45.8429 43.5215 45.5785 43.2491 45.3132C43.072 45.1407 42.66 44.7805 42.2926 44.4768C42.1425 44.3526 41.7678 44.0231 41.5936 43.8617C41.1417 43.4433 40.6138 42.9685 40.4658 42.8472C40.3711 42.7696 40.2644 42.6782 40.2286 42.6443C40.1929 42.6102 40.1597 42.5846 40.1548 42.5873C40.15 42.59 40.0966 42.6066 40.0362 42.6242Z" fill="white"/>
</g>
<defs>
<filter id="filter0_i" x="0" y="0" width="61" height="62" filterUnits="userSpaceOnUse" color-interpolation-filters="sRGB">
<feFlood flood-opacity="0" result="BackgroundImageFix"/>
<feBlend mode="normal" in="SourceGraphic" in2="BackgroundImageFix" result="shape"/>
<feColorMatrix in="SourceAlpha" type="matrix" values="0 0 0 0 0 0 0 0 0 0 0 0 0 0 0 0 0 0 127 0" result="hardAlpha"/>
<feOffset dx="1" dy="2"/>
<feGaussianBlur stdDeviation="2"/>
<feComposite in2="hardAlpha" operator="arithmetic" k2="-1" k3="1"/>
<feColorMatrix type="matrix" values="0 0 0 0 0 0 0 0 0 0 0 0 0 0 0 0 0 0 0.1 0"/>
<feBlend mode="normal" in2="shape" result="effect1_innerShadow"/>
</filter>
</defs>
</svg>
