<svg width="84" height="82" viewBox="0 0 84 82" fill="none" xmlns="http://www.w3.org/2000/svg">
<path d="M22.458 77V63.914H26.904C29.94 63.914 31.458 65.198 31.458 67.766C31.458 69.77 30.438 71.006 28.398 71.474L32.034 77H30.126L26.814 71.816L24.114 71.384V77H22.458ZM24.114 70.268H26.112C27.456 70.268 28.404 70.082 28.956 69.71C29.508 69.326 29.784 68.678 29.784 67.766C29.784 67.142 29.67 66.65 29.442 66.29C29.214 65.918 28.83 65.654 28.29 65.498C27.762 65.33 27.036 65.246 26.112 65.246H24.114V70.268ZM33.3694 73.418V67.604H34.9894V73.364C34.9894 74.168 35.1634 74.786 35.5114 75.218C35.8594 75.65 36.3694 75.866 37.0414 75.866C37.6054 75.866 38.1334 75.674 38.6254 75.29C39.1294 74.894 39.5074 74.372 39.7594 73.724V67.604H41.3794V77H40.2814L39.9934 75.398C39.6094 75.974 39.1234 76.418 38.5354 76.73C37.9594 77.042 37.3294 77.198 36.6454 77.198C35.6014 77.198 34.7914 76.874 34.2154 76.226C33.6514 75.578 33.3694 74.642 33.3694 73.418ZM44.0226 76.568V63.482H45.6426V68.594C46.4346 67.802 47.3646 67.406 48.4326 67.406C49.6806 67.406 50.6406 67.82 51.3126 68.648C51.9846 69.476 52.3206 70.664 52.3206 72.212C52.3206 73.772 51.8946 74.996 51.0426 75.884C50.1906 76.76 49.0026 77.198 47.4786 77.198C46.8906 77.198 46.2726 77.138 45.6246 77.018C44.9766 76.91 44.4426 76.76 44.0226 76.568ZM48.1266 68.702C47.6946 68.702 47.2566 68.81 46.8126 69.026C46.3806 69.242 45.9906 69.548 45.6426 69.944V75.632C45.8826 75.704 46.1526 75.764 46.4526 75.812C46.7526 75.848 47.0826 75.866 47.4426 75.866C49.5906 75.866 50.6646 74.642 50.6646 72.194C50.6646 71.054 50.4486 70.19 50.0166 69.602C49.5966 69.002 48.9666 68.702 48.1266 68.702ZM56.5583 76.91L53.1563 67.604H54.8483L57.8003 76.01L60.3743 67.604H62.0123L59.0063 76.802C58.7183 77.69 58.4003 78.41 58.0523 78.962C57.7163 79.514 57.3083 79.94 56.8283 80.24C56.3483 80.54 55.7483 80.774 55.0283 80.942L54.6323 79.592C55.1123 79.46 55.5203 79.292 55.8563 79.088C56.1923 78.896 56.4803 78.638 56.7203 78.314C56.9723 77.99 57.1943 77.564 57.3863 77.036L57.4403 76.91H56.5583Z" fill="white"/>
<path fill-rule="evenodd" clip-rule="evenodd" d="M44.8415 7.07834C44.793 7.13665 44.8193 7.16937 44.9898 7.26286C45.331 7.44996 45.3791 7.4812 45.4961 7.59093C45.5577 7.64887 45.6344 7.69623 45.6665 7.69623C45.6986 7.69623 45.7248 7.71886 45.7248 7.74666C45.7248 7.77434 45.7746 7.81616 45.8355 7.83954C45.8964 7.86291 46.0773 7.9842 46.2378 8.10893C46.398 8.23379 46.5466 8.33589 46.5679 8.33589C46.5892 8.33589 46.7289 8.43553 46.8785 8.55731C47.028 8.67909 47.1672 8.78021 47.1879 8.78205C47.2086 8.78378 47.3252 8.86152 47.447 8.95488C47.5687 9.04813 47.7661 9.18504 47.8854 9.25909C48.0047 9.33315 48.1737 9.45468 48.2609 9.5291C48.3481 9.60353 48.4335 9.66442 48.4506 9.66442C48.4758 9.66442 49.0434 10.061 49.2429 10.218C49.6747 10.5576 49.8854 10.6095 50.1532 10.442C50.3352 10.3282 50.8728 10.0346 51.2234 9.85755C51.3384 9.79948 51.4325 9.73404 51.4325 9.71215C51.4325 9.69013 51.4987 9.65765 51.5795 9.63994C51.6605 9.62222 51.7407 9.58495 51.7578 9.55715C51.775 9.52947 51.8583 9.47387 51.9429 9.43365C52.0276 9.39354 52.2075 9.29698 52.3428 9.21936C52.4781 9.14162 52.6616 9.04468 52.7505 9.00397C52.8394 8.96325 52.9462 8.89596 52.9878 8.85438C53.0294 8.81281 53.0973 8.77873 53.1388 8.77873C53.1803 8.77873 53.2801 8.72338 53.3605 8.65572C53.441 8.58806 53.542 8.53271 53.5851 8.53271C53.6283 8.53271 53.6999 8.49986 53.7442 8.45976C53.8415 8.37169 54.2103 8.16023 54.3971 8.08531C54.4716 8.05542 54.5324 8.01348 54.5324 7.99195C54.5324 7.97054 54.5933 7.93782 54.6678 7.91937C54.7422 7.90092 54.8474 7.84569 54.9015 7.79661C54.9556 7.74765 55.0552 7.69118 55.1229 7.67126C55.1906 7.65133 55.2765 7.61 55.3139 7.57949C55.3831 7.52327 55.656 7.3732 55.9471 7.23149C56.1347 7.14021 56.1501 7.07957 55.9963 7.03836C55.7273 6.96628 44.9023 7.00502 44.8415 7.07834ZM41.8732 7.86931C41.7438 7.90424 41.5841 7.96808 41.5182 8.01126C41.4522 8.05456 41.3523 8.08987 41.2961 8.08987C41.24 8.08987 41.1119 8.13144 41.0115 8.18225C40.9111 8.23305 40.7514 8.29087 40.6567 8.31055C40.562 8.33035 40.4181 8.38608 40.3369 8.43442C40.2557 8.48277 40.0964 8.53751 39.983 8.55596C39.8696 8.57441 39.7511 8.62054 39.7197 8.6583C39.6884 8.69607 39.582 8.74183 39.4832 8.76003C39.3844 8.77824 39.2265 8.83421 39.1321 8.8844C39.0378 8.93446 38.916 8.97567 38.8615 8.97567C38.807 8.9758 38.6899 9.02008 38.6012 9.07408C38.5126 9.12821 38.3907 9.17237 38.3302 9.17237C38.2698 9.17237 38.1163 9.22772 37.9892 9.29538C37.8621 9.36304 37.7073 9.41852 37.6451 9.41876C37.583 9.41889 37.4658 9.46305 37.3846 9.5168C37.3034 9.57056 37.1923 9.61472 37.1378 9.61484C37.0833 9.61509 36.9616 9.65654 36.8672 9.7071C36.7729 9.75754 36.6182 9.81511 36.5235 9.83491C36.4288 9.85472 36.3028 9.90158 36.2437 9.93898C36.1845 9.97638 36.0299 10.0309 35.9001 10.0599C35.7702 10.0891 35.6304 10.1429 35.5894 10.1797C35.5484 10.2165 35.4262 10.2621 35.318 10.2813C35.2097 10.3004 35.0548 10.355 34.9736 10.4025C34.8924 10.45 34.7429 10.5037 34.6414 10.5217C34.5399 10.5398 34.4569 10.572 34.4569 10.5933C34.4569 10.6144 34.396 10.6633 34.3216 10.7017C34.2472 10.7402 34.0945 10.8601 33.9823 10.9683C33.1195 11.8013 32.1514 12.705 31.2094 13.5569C30.9252 13.8137 30.5464 14.1668 30.3675 14.3413C29.9503 14.7486 28.9092 15.7284 28.7492 15.8646C28.5742 16.0134 27.7274 16.7985 27.2103 17.2912C26.9688 17.5212 26.666 17.809 26.5372 17.9308C26.166 18.2818 25.2947 19.0847 25.2558 19.1117C25.2362 19.1253 25.1833 19.2083 25.1383 19.2962C25.0931 19.3842 25.038 19.4562 25.0158 19.4562C24.9935 19.4562 24.9392 19.5392 24.8952 19.6407C24.851 19.7422 24.7482 19.9359 24.6667 20.0712C24.5851 20.2065 24.4944 20.3615 24.4653 20.4157C24.4003 20.5362 24.2195 20.849 23.9271 21.3467C23.8053 21.554 23.6699 21.7888 23.6261 21.8687C23.5823 21.9484 23.5213 22.044 23.4905 22.081C23.4598 22.1181 23.354 22.3011 23.2555 22.4875C23.1569 22.674 23.0617 22.8378 23.0438 22.8513C23.0259 22.8648 22.9821 22.9479 22.9466 23.0358C22.911 23.1238 22.8645 23.1957 22.8435 23.1957C22.8223 23.1957 22.7804 23.2662 22.7504 23.3524C22.7204 23.4387 22.6636 23.5446 22.6245 23.5879C22.5853 23.6312 22.4834 23.7987 22.3981 23.9601C22.3128 24.1215 22.2149 24.2868 22.1806 24.3274C22.1463 24.368 22.1039 24.4481 22.0865 24.5054C22.069 24.5627 22.0111 24.6492 21.9577 24.6976C21.9042 24.7459 21.8605 24.8196 21.8605 24.8613C21.8605 24.9031 21.8102 25.0159 21.7486 25.112C21.5639 25.4006 21.5182 25.478 21.4562 25.6068C21.4236 25.6744 21.3462 25.7924 21.2843 25.8689C21.2223 25.9454 21.1716 26.0321 21.1716 26.0618C21.1716 26.0914 21.1416 26.1506 21.105 26.1934C21.0682 26.2361 20.9607 26.4149 20.8658 26.5908C20.5494 27.178 20.5077 27.2502 20.4455 27.3183C20.2585 27.5227 20.1209 27.9169 20.2043 28.009C20.2492 28.0587 20.286 28.1305 20.286 28.1686C20.286 28.2066 20.3436 28.3599 20.4141 28.5091C20.4845 28.6583 20.5952 28.8934 20.6602 29.0314C20.725 29.1694 20.778 29.3272 20.778 29.3821C20.778 29.437 20.8097 29.5083 20.8486 29.5405C20.8875 29.5728 20.9346 29.6696 20.9532 29.7557C20.9719 29.8417 21.0278 29.9897 21.0775 30.0844C21.2496 30.4122 21.4177 30.8168 21.4188 30.9055C21.4194 30.9546 21.4632 31.05 21.5161 31.1177C21.569 31.1853 21.6128 31.274 21.6134 31.3149C21.614 31.3557 21.6671 31.4886 21.7315 31.6101C21.7958 31.7316 21.8636 31.9016 21.8823 31.9876C21.9009 32.0737 21.9478 32.1705 21.9867 32.2028C22.0256 32.235 22.0574 32.3086 22.0574 32.3661C22.0576 32.4237 22.0985 32.5377 22.1485 32.6197C22.1983 32.7015 22.2678 32.8565 22.3029 32.9641C22.3379 33.0716 22.3966 33.2033 22.4334 33.2567C22.4702 33.3101 22.5002 33.4013 22.5002 33.4592C22.5002 33.5172 22.5431 33.6193 22.5955 33.6859C22.648 33.7526 22.706 33.8718 22.7244 33.9509C22.7429 34.0299 22.7851 34.1389 22.8184 34.193C22.8516 34.2471 22.9076 34.38 22.9425 34.4882C22.9776 34.5965 23.0363 34.7287 23.073 34.7821C23.1098 34.8355 23.1398 34.9221 23.1398 34.9746C23.1398 35.0271 23.1921 35.1606 23.2558 35.2712C23.3197 35.3818 23.3865 35.5329 23.4043 35.607C23.4658 35.8632 23.6354 35.9192 23.9896 35.8C24.1582 35.7432 24.429 35.6819 24.5914 35.6638C24.7537 35.6457 24.9428 35.6026 25.0117 35.5679C25.0805 35.5333 25.3058 35.4815 25.5126 35.4527C25.7193 35.424 25.973 35.3686 26.0764 35.3297C26.1797 35.2909 26.375 35.2458 26.5104 35.2296C26.6457 35.2135 26.8967 35.1564 27.0683 35.1027C27.2398 35.0489 27.453 35.0049 27.5421 35.0049C27.631 35.0049 27.7834 34.9716 27.8807 34.9309C27.978 34.8903 28.2298 34.832 28.4403 34.8014C28.6508 34.7706 28.8783 34.7182 28.946 34.6847C29.0136 34.6512 29.2019 34.6085 29.3642 34.5901C29.5266 34.5715 29.7869 34.5133 29.9426 34.4608C30.0982 34.4082 30.2927 34.3652 30.3746 34.3652C30.4566 34.3652 30.653 34.3216 30.8111 34.2684C30.9693 34.2151 31.2509 34.1508 31.437 34.1254C31.623 34.1001 31.8749 34.0451 31.9967 34.0032C32.1185 33.9613 32.351 33.9056 32.5133 33.8794C32.9591 33.8072 33.3897 33.6756 33.4766 33.5851C33.5193 33.5405 33.7267 33.3491 33.9376 33.1597C34.3688 32.7722 34.3575 32.7824 35.0209 32.1756C35.2872 31.932 35.6097 31.6331 35.7373 31.5113C36.3626 30.9152 37.3096 30.0284 37.5034 29.8575C37.6229 29.7522 37.8023 29.5886 37.9024 29.4939C38.0024 29.3992 38.2982 29.1245 38.5599 28.8835C38.8214 28.6427 39.1955 28.2914 39.3909 28.103C39.5865 27.9147 39.9554 27.5693 40.2109 27.3356C40.4664 27.1018 40.8207 26.7759 40.9982 26.611C41.1757 26.4462 41.4408 26.2026 41.5873 26.0698C41.7337 25.9369 42.088 25.6047 42.3746 25.3315C42.9746 24.7593 43.2268 24.5261 44.2045 23.6386C45.1336 22.7951 45.4788 22.4434 45.4793 22.3392C45.4795 22.2826 45.5349 22.1178 45.6023 21.973C45.6697 21.8282 45.7248 21.6566 45.7248 21.5915C45.7248 21.5264 45.7691 21.3905 45.8232 21.2895C45.8773 21.1887 45.9221 21.0503 45.9227 20.9822C45.9233 20.9142 45.9676 20.7619 46.0211 20.644C46.0746 20.526 46.1184 20.387 46.1184 20.335C46.1184 20.283 46.1738 20.109 46.2414 19.9482C46.3091 19.7874 46.3645 19.5989 46.3645 19.529C46.3645 19.4592 46.4015 19.3312 46.4469 19.2446C46.4921 19.158 46.5572 18.9764 46.5914 18.8411C46.6578 18.5792 46.7624 18.2578 46.9121 17.856C46.9627 17.7202 47.0041 17.5644 47.0041 17.5097C47.0041 17.4551 47.0474 17.3253 47.1004 17.2214C47.1535 17.1175 47.2114 16.9301 47.2292 16.805C47.2472 16.68 47.3034 16.5087 47.3543 16.4243C47.4053 16.3399 47.447 16.2114 47.447 16.1387C47.447 16.066 47.492 15.9075 47.5471 15.7867C47.6021 15.6659 47.6668 15.4734 47.6909 15.3589C47.7335 15.157 47.8075 14.9232 47.9909 14.4127C48.0395 14.2774 48.0947 14.0892 48.1136 13.9944C48.1324 13.8997 48.1895 13.74 48.2403 13.6397C48.2911 13.5393 48.3326 13.3869 48.3326 13.301C48.3326 13.2152 48.3746 13.0759 48.4259 12.9915C48.6756 12.5808 48.6169 12.1976 48.2703 11.9741C48.1287 11.8828 47.8876 11.7132 47.7346 11.5973C47.5814 11.4814 47.4407 11.3866 47.4217 11.3866C47.4028 11.3866 47.3178 11.3302 47.2327 11.2615C46.9913 11.0664 46.8993 11 46.6353 10.8307C46.5001 10.7441 46.3562 10.6438 46.3155 10.6079C46.2748 10.5721 46.1307 10.4731 45.9954 10.388C45.8601 10.303 45.7205 10.1939 45.6851 10.1456C45.6498 10.0974 45.5922 10.0581 45.5574 10.0581C45.5224 10.0581 45.4427 10.0138 45.3804 9.95965C45.318 9.90552 45.2523 9.86124 45.2345 9.86124C45.2166 9.86124 45.1592 9.82212 45.1067 9.77427C45.0543 9.72642 44.8814 9.5991 44.7226 9.49134C44.5639 9.38358 44.3728 9.2511 44.2979 9.19697C44.2229 9.14285 44.0318 9.01122 43.8731 8.90457C43.7143 8.79792 43.5512 8.68081 43.5106 8.6444C43.47 8.60799 43.3261 8.50823 43.1908 8.42274C42.9784 8.28865 42.8154 8.17179 42.5972 7.99736C42.3906 7.83228 42.161 7.79168 41.8732 7.86931ZM58.5426 8.06994C58.3803 8.16367 58.181 8.27463 58.0998 8.31658C58.0186 8.35852 57.8415 8.45644 57.7062 8.53431C57.5708 8.61217 57.3826 8.71267 57.2879 8.75745C57.1932 8.80235 57.1046 8.85611 57.0911 8.87714C57.0776 8.89818 56.989 8.95083 56.8943 8.99413C56.7996 9.03755 56.6113 9.13965 56.476 9.22096C56.3407 9.30227 56.1968 9.38149 56.1562 9.39711C56.1156 9.41273 56.0492 9.44656 56.0086 9.4724C55.968 9.49811 55.8462 9.56416 55.738 9.61903C55.6297 9.67389 55.4415 9.78374 55.3197 9.86308C55.1979 9.9423 55.0651 10.0203 55.0245 10.0363C54.9839 10.0523 54.8953 10.0982 54.8277 10.1381C54.76 10.1782 54.6382 10.2448 54.557 10.286C54.4759 10.3272 54.2987 10.4246 54.1634 10.5025C54.0281 10.5804 53.8399 10.6809 53.7452 10.7256C53.6504 10.7705 53.5619 10.8243 53.5483 10.8453C53.5348 10.8664 53.4463 10.9191 53.3515 10.9628C53.2568 11.0065 53.0797 11.1002 52.9579 11.1711C52.7277 11.3051 52.067 11.6682 51.7893 11.8133C51.592 11.9164 51.5904 11.9484 51.777 12.0587C51.8582 12.1067 51.9246 12.1618 51.9246 12.1811C51.9246 12.2006 51.9696 12.2307 52.0246 12.2482C52.0796 12.2656 52.1764 12.328 52.2397 12.3868C52.3031 12.4456 52.4297 12.5446 52.5211 12.6069C52.7516 12.7639 53.5716 13.3613 53.8658 13.5865C53.9998 13.6891 54.2111 13.8394 54.3355 13.9206C54.4597 14.0018 54.5937 14.0955 54.6331 14.129C54.7824 14.2557 55.0076 14.4204 55.2213 14.5591C55.3431 14.6382 55.4649 14.7278 55.4919 14.7586C55.552 14.8265 56.1255 15.2303 56.2577 15.2977C56.3101 15.3244 56.353 15.3624 56.353 15.3821C56.353 15.4018 56.5106 15.5238 56.7031 15.6534C56.8958 15.7829 57.1024 15.922 57.1624 15.9626C57.2225 16.0032 57.3101 16.0752 57.357 16.1225C57.404 16.1699 57.4622 16.2086 57.4863 16.2086C57.5104 16.2086 57.6472 16.3028 57.7903 16.4178C57.9335 16.5328 58.1502 16.6926 58.272 16.7729C58.3938 16.8532 58.5266 16.9472 58.5672 16.9818C58.708 17.1016 58.9374 17.27 59.1577 17.4154C59.2795 17.4957 59.3925 17.5799 59.409 17.6024C59.4254 17.6248 59.4951 17.6802 59.5639 17.7255C59.9738 17.9951 60.2669 18.2044 60.2813 18.2375C60.2903 18.2584 60.4231 18.3573 60.5765 18.4573C60.8362 18.6268 61.0501 18.7825 61.2226 18.9279C61.2622 18.9614 61.3883 19.0483 61.5027 19.1211C61.6171 19.1939 61.8321 19.3525 61.9806 19.4734C62.129 19.5943 62.2944 19.7072 62.3479 19.7242C62.4015 19.7412 62.4577 19.7876 62.4729 19.827C62.4881 19.8666 62.5331 19.899 62.5731 19.899C62.613 19.899 62.6746 19.9384 62.7099 19.9865C62.7453 20.0346 62.896 20.1499 63.0449 20.2431C63.1937 20.3362 63.3553 20.4565 63.4042 20.5105C63.5872 20.7133 63.7395 20.4141 63.8355 19.6628C63.8607 19.4653 63.9256 19.1345 63.9798 18.9277C64.0339 18.721 64.0782 18.4368 64.0782 18.296C64.0782 18.1553 64.1162 17.8549 64.1627 17.6287C64.2787 17.0644 64.2776 15.5686 64.1606 14.9854C64.1153 14.7592 64.0782 14.468 64.0782 14.3386C64.0782 14.2091 64.0335 13.9588 63.979 13.7822C63.9245 13.6057 63.8591 13.3654 63.8336 13.2481C63.776 12.9827 63.5509 12.3244 63.493 12.2522C63.4693 12.2227 63.4349 12.1283 63.4166 12.0426C63.3983 11.9569 63.3403 11.8372 63.2878 11.7768C63.2354 11.7163 63.1925 11.6301 63.1925 11.5855C63.1925 11.5407 63.1371 11.429 63.0695 11.3374C63.0018 11.2457 62.9465 11.1505 62.9465 11.1258C62.9465 11.1012 62.8901 11.0114 62.8214 10.9263C62.7526 10.8411 62.6639 10.7272 62.6243 10.6731C62.4893 10.4886 62.0857 9.97674 61.9615 9.8327C61.7112 9.54227 61.1929 9.12981 60.5354 8.69742C60.3866 8.5995 60.2091 8.48129 60.1408 8.43454C60.0727 8.38792 59.9637 8.33281 59.8986 8.31215C59.8335 8.29148 59.7357 8.23305 59.6811 8.18225C59.6266 8.13144 59.5363 8.08974 59.4806 8.0895C59.4247 8.08937 59.3127 8.04521 59.2315 7.99146C59.0271 7.85602 58.885 7.87226 58.5426 8.06994ZM50.3334 13.5906C50.3226 13.6098 50.2983 13.7114 50.2792 13.8166C50.2602 13.9217 50.2019 14.0874 50.1498 14.1849C50.0975 14.2823 50.0548 14.4241 50.0548 14.5C50.0548 14.5759 50.0132 14.7202 49.9623 14.8206C49.9114 14.921 49.8543 15.0959 49.8355 15.2094C49.8165 15.3228 49.7586 15.4991 49.7066 15.6011C49.6545 15.7032 49.6118 15.8428 49.6117 15.9116C49.6115 15.9802 49.5769 16.1024 49.535 16.1831C49.4929 16.2636 49.4354 16.4408 49.4073 16.5767C49.3792 16.7125 49.327 16.87 49.2913 16.9265C49.2556 16.9831 49.1996 17.1654 49.1669 17.3316C49.1342 17.4978 49.077 17.6591 49.0398 17.69C49.0027 17.7208 48.9723 17.8267 48.9723 17.9253C48.9723 18.0238 48.9284 18.1864 48.8748 18.2864C48.8211 18.3866 48.7632 18.5633 48.746 18.6793C48.7287 18.7953 48.6866 18.9355 48.6524 18.9907C48.618 19.0459 48.5638 19.2171 48.5318 19.3712C48.4998 19.5252 48.4544 19.6631 48.4311 19.6776C48.4077 19.6921 48.3629 19.8273 48.3315 19.9782C48.3002 20.129 48.2328 20.3446 48.1817 20.4571C48.1305 20.5695 48.0882 20.717 48.0874 20.7847C48.0866 20.8523 48.0501 20.9741 48.0062 21.0553C47.9623 21.1365 47.8947 21.3358 47.8561 21.4982C47.8174 21.6605 47.7727 21.8464 47.7568 21.9112L47.728 22.0291L48.0918 22.0008C48.2919 21.9853 49.9503 21.9485 51.777 21.9192C53.6037 21.8899 55.8511 21.8415 56.7713 21.8115C57.6914 21.7815 59.0863 21.7461 59.8712 21.733C61.6381 21.7033 61.6919 21.6859 61.1438 21.3216C60.9644 21.2022 60.7619 21.0675 60.694 21.0222C60.6261 20.977 60.5571 20.9194 60.5407 20.8943C60.5242 20.8692 60.4568 20.8201 60.3909 20.7854C60.3249 20.7506 60.2475 20.7031 60.2187 20.68C60.1899 20.6568 60.0667 20.5599 59.945 20.4649C59.8232 20.3698 59.6997 20.2727 59.6707 20.2491C59.6415 20.2256 59.562 20.1759 59.4941 20.1388C59.4261 20.1016 59.2618 19.987 59.1288 19.8839C58.8491 19.6671 58.1617 19.1675 57.8046 18.9213C57.6692 18.8281 57.5408 18.722 57.5192 18.6857C57.4975 18.6494 57.4564 18.6197 57.4279 18.6197C57.3994 18.6197 57.3134 18.5699 57.2369 18.509C57.1605 18.4481 57.0167 18.3429 56.9175 18.2752C56.8184 18.2076 56.6911 18.1024 56.6346 18.0415C56.5783 17.9806 56.5123 17.9308 56.4882 17.9308C56.4641 17.9308 56.2552 17.7924 56.0242 17.6233C55.7932 17.4541 55.4461 17.2007 55.2528 17.0603C55.0596 16.9197 54.878 16.7842 54.8492 16.7594C54.8204 16.7344 54.7429 16.6858 54.677 16.6515C54.6111 16.617 54.5199 16.5532 54.4745 16.5095C54.4292 16.4659 54.3114 16.3747 54.2129 16.3071C54.1142 16.2394 53.971 16.1342 53.8946 16.0733C53.8181 16.0124 53.7321 15.9626 53.7036 15.9626C53.6751 15.9626 53.634 15.9337 53.6123 15.8985C53.5907 15.8632 53.4622 15.7583 53.3269 15.6653C53.1916 15.5723 52.9813 15.4178 52.8595 15.322C52.7377 15.2262 52.5384 15.0824 52.4166 15.0024C52.2949 14.9226 52.0803 14.7682 51.94 14.6596C51.7996 14.5508 51.6114 14.4106 51.5217 14.3477C51.4321 14.285 51.1705 14.0951 50.9405 13.9255C50.5107 13.6089 50.3679 13.5301 50.3334 13.5906ZM62.2822 23.6744C62.0928 23.6805 61.4617 23.7097 60.8799 23.7392C60.298 23.7688 58.1945 23.8145 56.2054 23.8408C54.2163 23.867 52.1903 23.9084 51.7032 23.9329C51.216 23.9574 50.1693 23.9932 49.3771 24.0125C48.4531 24.035 47.9099 24.0673 47.862 24.1023C47.7727 24.1676 47.8688 24.6779 48.0077 24.8763C48.0511 24.9383 48.0866 25.0514 48.0866 25.1276C48.0866 25.2039 48.1291 25.3494 48.181 25.4511C48.2328 25.5527 48.2906 25.7235 48.3095 25.8305C48.3283 25.9374 48.3719 26.0701 48.4063 26.1254C48.4408 26.1806 48.4947 26.3493 48.526 26.5002C48.5573 26.6512 48.6145 26.8163 48.6531 26.8673C48.6916 26.9182 48.7238 27.0103 48.7247 27.0721C48.7255 27.1338 48.7816 27.3158 48.8493 27.4765C48.917 27.6373 48.9723 27.8146 48.9723 27.8707C48.9723 27.9266 49.0136 28.0547 49.0641 28.1551C49.1145 28.2554 49.1715 28.4262 49.1908 28.5344C49.21 28.6427 49.2556 28.7779 49.2921 28.8348C49.3288 28.8917 49.3744 29.0245 49.3936 29.1301C49.4128 29.2355 49.4698 29.4039 49.5202 29.5043C49.5706 29.6046 49.612 29.7383 49.612 29.8013C49.612 29.8644 49.6545 29.9994 49.7066 30.1015C49.7586 30.2035 49.816 30.3797 49.8343 30.4932C49.8525 30.6067 49.906 30.7666 49.9531 30.8487C50.0002 30.9306 50.054 31.0927 50.0725 31.2088C50.0911 31.3248 50.1374 31.4681 50.1754 31.5271C50.2133 31.5861 50.2605 31.7227 50.2803 31.8307C50.3001 31.9387 50.3566 32.1158 50.4059 32.2243C50.4552 32.3328 50.4959 32.4668 50.4965 32.5219C50.4972 32.5771 50.5389 32.7032 50.5893 32.8021C50.6397 32.9009 50.6962 33.0773 50.7148 33.1938C50.7335 33.3104 50.7814 33.4559 50.8215 33.5171C50.8618 33.5784 50.9149 33.7223 50.9398 33.837C50.9955 34.0933 51.1704 34.6336 51.2621 34.8326C51.2994 34.9138 51.3447 35.0688 51.3627 35.1771C51.3806 35.2853 51.4369 35.4429 51.4878 35.5273C51.5386 35.6117 51.5802 35.7582 51.5802 35.8528C51.5802 35.9476 51.6224 36.0785 51.674 36.1442C51.7256 36.2098 51.7836 36.3734 51.8031 36.5076C51.8224 36.6418 51.8706 36.7886 51.9102 36.8339C51.9498 36.8792 51.9941 37.012 52.0087 37.1291C52.0234 37.2463 52.0745 37.4085 52.1223 37.4897C52.1701 37.5709 52.2244 37.7148 52.2428 37.8095C52.2613 37.9042 52.3172 38.0925 52.3671 38.2278C52.417 38.3631 52.4829 38.5691 52.5138 38.6855C52.6261 39.1101 52.8487 39.0084 53.4843 38.2415C53.6778 38.0081 54.1426 37.4705 54.9619 36.5327C55.0222 36.4637 55.2436 36.1959 55.4539 35.9377C55.6643 35.6795 55.8647 35.4359 55.8992 35.3964C55.9338 35.3569 56.0623 35.1918 56.1847 35.0295C56.3071 34.8671 56.4994 34.6267 56.612 34.4953C56.7245 34.364 56.8395 34.2177 56.8677 34.1702C57.0263 33.9032 57.1969 33.6763 57.2393 33.6763C57.266 33.6763 57.2879 33.6521 57.2879 33.6226C57.2879 33.593 57.3329 33.51 57.388 33.4381C57.4432 33.3661 57.5824 33.1855 57.6974 33.0367C57.8126 32.8878 57.9827 32.6443 58.0754 32.4954C58.1683 32.3466 58.257 32.2137 58.2727 32.2002C58.3191 32.1603 58.5378 31.8417 58.6 31.7235C58.6316 31.6635 58.6818 31.5857 58.7116 31.5506C58.828 31.4135 59.0576 31.0409 59.0584 30.9877C59.0589 30.9567 59.0918 30.9189 59.1315 30.9036C59.1712 30.8884 59.2373 30.803 59.2782 30.7138C59.3866 30.478 59.541 30.2197 59.5933 30.1867C59.6182 30.171 59.6742 30.0807 59.7176 29.986C59.7612 29.8913 59.8523 29.7252 59.9204 29.6169C59.9883 29.5087 60.0878 29.3386 60.1414 29.2389C60.1949 29.1393 60.2595 29.0449 60.285 29.0293C60.3103 29.0136 60.3451 28.9364 60.3625 28.8578C60.3797 28.7792 60.4236 28.7035 60.46 28.6894C60.4964 28.6755 60.5406 28.5985 60.5582 28.5183C60.5758 28.438 60.6332 28.3334 60.6859 28.2858C60.7384 28.2383 60.7814 28.1615 60.7814 28.1152C60.7814 28.069 60.8227 27.9783 60.8731 27.9137C60.9235 27.8491 60.9817 27.741 61.0025 27.6733C61.0234 27.6057 61.0817 27.4915 61.1323 27.4197C61.183 27.3479 61.2243 27.269 61.2243 27.2445C61.2243 27.2201 61.335 26.9813 61.4703 26.7139C61.6056 26.4464 61.7163 26.2014 61.7163 26.1693C61.7163 26.1372 61.7495 26.0833 61.7901 26.0496C61.8307 26.0159 61.8639 25.9522 61.8639 25.9079C61.8639 25.8636 61.9193 25.7234 61.987 25.5963C62.0546 25.4692 62.1101 25.3365 62.1102 25.3014C62.1103 25.2664 62.1657 25.1287 62.2332 24.9956C62.3008 24.8625 62.356 24.7158 62.356 24.6695C62.356 24.6233 62.3875 24.5594 62.426 24.5274C62.4645 24.4955 62.5104 24.3841 62.528 24.2799C62.5456 24.1758 62.5908 24.0497 62.6286 23.9998C62.822 23.7447 62.7314 23.6597 62.2822 23.6744ZM45.429 25.2263C45.2527 25.3949 44.8784 25.7433 44.5971 26.0004C43.9353 26.6055 43.5117 27.0018 43.0574 27.4413C42.8555 27.6366 42.5178 27.9514 42.3068 28.1408C42.0958 28.3302 41.8622 28.5406 41.7878 28.6082C41.039 29.2879 40.7359 29.5688 40.4341 29.863C39.9826 30.3029 39.5839 30.6775 39.1806 31.0408C38.8732 31.3177 38.0801 32.0427 37.8047 32.2986C37.7319 32.3663 37.337 32.7401 36.9272 33.1294C36.5174 33.5187 36.137 33.8687 36.0819 33.9073C35.7571 34.1348 35.821 34.3028 36.2652 34.3907C36.3531 34.408 36.4251 34.4417 36.4251 34.4656C36.4251 34.4894 36.5192 34.5324 36.6342 34.5609C36.7492 34.5894 36.9098 34.6439 36.991 34.6821C37.0721 34.7202 37.2271 34.778 37.3354 34.8105C37.4436 34.8431 37.5654 34.8973 37.606 34.9313C37.6466 34.9651 37.7463 35.004 37.8274 35.0175C37.9715 35.0415 38.3109 35.1703 38.7185 35.3557C38.8297 35.4064 38.9519 35.4477 38.9899 35.4477C39.0279 35.4477 39.1417 35.492 39.2426 35.5461C39.3436 35.6002 39.454 35.6448 39.488 35.645C39.5218 35.6453 39.6603 35.6999 39.7956 35.7664C39.9309 35.833 40.0885 35.8882 40.1457 35.8889C40.2029 35.8898 40.3026 35.9316 40.3671 35.9818C40.4317 36.032 40.5691 36.0887 40.6726 36.1078C40.776 36.1267 40.931 36.1853 41.017 36.2377C41.103 36.2901 41.2151 36.3331 41.266 36.3333C41.3169 36.3333 41.4276 36.3753 41.512 36.4265C41.5964 36.4777 41.7429 36.5356 41.8376 36.5552C41.9323 36.5747 42.0343 36.6104 42.0643 36.6345C42.0943 36.6585 42.2383 36.7199 42.3842 36.7708C42.9333 36.9625 43.0001 36.9882 43.2449 37.1022C43.3829 37.1665 43.5421 37.2191 43.5987 37.2191C43.6552 37.2191 43.7152 37.241 43.7316 37.2677C43.7481 37.2944 43.8788 37.3502 44.0221 37.3919C44.1653 37.4335 44.3247 37.4995 44.3763 37.5387C44.4279 37.5776 44.5166 37.6102 44.5734 37.6111C44.6304 37.612 44.7809 37.6681 44.9082 37.7357C45.0354 37.8034 45.1856 37.8587 45.2419 37.8587C45.2981 37.8587 45.4132 37.9007 45.4976 37.9519C45.582 38.003 45.7285 38.0613 45.8232 38.0813C45.9179 38.1012 46.0482 38.159 46.1128 38.2096C46.1774 38.2601 46.2854 38.3016 46.353 38.3016C46.4206 38.3016 46.5449 38.3435 46.6293 38.3947C46.7137 38.4459 46.8602 38.5037 46.9549 38.5231C47.0496 38.5427 47.1603 38.5868 47.2009 38.6214C47.2415 38.656 47.3522 38.6999 47.447 38.7191C47.5417 38.7383 47.6924 38.7961 47.7819 38.8476C47.8714 38.899 47.9821 38.942 48.0279 38.9428C48.0737 38.9436 48.2219 38.9988 48.3573 39.0654C48.4926 39.1319 48.6504 39.1865 48.708 39.1868C48.7655 39.187 48.8397 39.2199 48.8728 39.2597C48.9059 39.2997 49.0138 39.3466 49.1125 39.3641C49.2113 39.3817 49.3586 39.435 49.4398 39.4825C49.5209 39.53 49.6682 39.5832 49.767 39.6008C49.8657 39.6184 49.9724 39.6639 50.004 39.7021C50.0357 39.7402 50.1321 39.7852 50.2182 39.8022C50.3042 39.8192 50.4376 39.8573 50.5145 39.8871C50.7427 39.9751 50.8072 39.6562 50.6214 39.3584C50.5872 39.3036 50.543 39.1597 50.5232 39.0385C50.5034 38.9174 50.4481 38.7518 50.4002 38.6706C50.3524 38.5894 50.3012 38.4272 50.2866 38.3101C50.2719 38.193 50.2269 38.0601 50.1863 38.0148C50.1458 37.9696 50.0965 37.8226 50.0766 37.6882C50.0568 37.5538 49.9995 37.3766 49.9494 37.2946C49.8993 37.2124 49.8581 37.0788 49.8579 36.9976C49.8576 36.9165 49.8138 36.784 49.7606 36.7032C49.7073 36.6225 49.6489 36.4564 49.6308 36.3341C49.6127 36.212 49.5569 36.0348 49.5066 35.9405C49.4562 35.8461 49.415 35.7133 49.4148 35.6453C49.4147 35.5772 49.3705 35.4551 49.3167 35.3739C49.263 35.2927 49.2186 35.1598 49.2182 35.0787C49.2178 34.9975 49.163 34.8203 49.0964 34.685C49.0299 34.5497 48.9746 34.3883 48.9739 34.3263C48.973 34.2643 48.928 34.1268 48.8739 34.0208C48.8198 33.9147 48.7755 33.7813 48.7755 33.7243C48.7755 33.6673 48.7323 33.517 48.6794 33.3902C48.6266 33.2634 48.5599 33.0674 48.5311 32.9546C48.5023 32.8419 48.4459 32.6869 48.406 32.6102C48.366 32.5335 48.3331 32.4201 48.3329 32.3581C48.3328 32.2961 48.2902 32.1623 48.2383 32.0606C48.1865 31.959 48.1277 31.7885 48.1077 31.6817C48.0876 31.575 48.0309 31.3989 47.9816 31.2904C47.9322 31.1819 47.8914 31.0488 47.8905 30.9947C47.8898 30.9405 47.8552 30.8312 47.8138 30.7517C47.7725 30.6723 47.7165 30.5089 47.6895 30.3888C47.6626 30.2687 47.597 30.0748 47.5438 29.9578C47.4905 29.8409 47.447 29.699 47.447 29.6423C47.447 29.5856 47.4056 29.457 47.3552 29.3566C47.3048 29.2563 47.2476 29.0865 47.2281 28.9796C47.2087 28.8726 47.1503 28.7019 47.0985 28.6002C47.0466 28.4985 47.0041 28.369 47.0041 28.3123C47.0041 28.2556 46.9618 28.1163 46.9101 28.0028C46.8585 27.8892 46.8007 27.7078 46.7816 27.5995C46.7626 27.4913 46.718 27.3561 46.6823 27.2991C46.6468 27.2423 46.602 27.1095 46.5828 27.0039C46.5636 26.8985 46.5067 26.7301 46.4562 26.6297C46.4058 26.5293 46.3645 26.3908 46.3645 26.3219C46.3645 26.2532 46.3202 26.1143 46.2662 26.0134C46.212 25.9126 46.155 25.752 46.1392 25.6568C46.1021 25.432 45.8659 24.9176 45.8003 24.9187C45.7723 24.9192 45.6052 25.0576 45.429 25.2263ZM63.2224 27.6036C63.2059 27.6464 63.1925 27.7208 63.1925 27.7692C63.1925 27.8174 63.1495 27.9115 63.0971 27.9782C63.0446 28.0448 62.9873 28.1569 62.9697 28.2271C62.952 28.2975 62.8953 28.3932 62.8436 28.4401C62.792 28.4868 62.7496 28.5737 62.7496 28.633C62.7496 28.6923 62.7038 28.7937 62.6477 28.8583C62.5916 28.923 62.5335 29.0372 62.5185 29.112C62.5035 29.1868 62.4711 29.2479 62.4465 29.2479C62.4218 29.2479 62.3585 29.342 62.3057 29.457C62.2528 29.572 62.1886 29.6994 62.1627 29.7399C62.1369 29.7805 61.991 30.0352 61.8384 30.3058C61.4364 31.0187 61.211 31.39 61.1174 31.4939C61.0721 31.544 61.0198 31.6466 61.001 31.7218C60.9823 31.7968 60.9252 31.8807 60.8742 31.908C60.8231 31.9353 60.7814 31.9855 60.7814 32.0197C60.7814 32.0538 60.7479 32.125 60.7069 32.1779C60.6659 32.2307 60.5122 32.4622 60.3653 32.6922C60.2184 32.9223 60.0227 33.2101 59.9306 33.3319C59.8383 33.4537 59.7341 33.6087 59.6991 33.6763C59.664 33.744 59.5555 33.8991 59.4581 34.021C59.3605 34.1429 59.2586 34.2781 59.2315 34.3216C59.1187 34.5027 58.9856 34.6903 58.9141 34.769C58.8722 34.8153 58.777 34.9371 58.7027 35.0397C58.6282 35.1423 58.4268 35.4054 58.2549 35.6243C58.0829 35.8433 57.8511 36.1459 57.7397 36.2967C57.6283 36.4475 57.4866 36.6262 57.4248 36.6937C57.3631 36.7612 57.2629 36.8794 57.2024 36.9563C56.8346 37.423 56.3089 38.0531 56.1764 38.1859C56.0913 38.2712 55.8602 38.5369 55.6629 38.7764C55.4656 39.0159 55.2578 39.2602 55.2013 39.3192C55.1447 39.3783 54.9101 39.6318 54.6801 39.8828C54.45 40.1337 54.1238 40.4839 53.9552 40.6611C53.6185 41.0146 53.564 41.1903 53.7503 41.3208C53.8542 41.3936 54.2947 41.7839 54.7539 42.2103C55.0604 42.4948 55.0967 42.5264 55.6396 42.9838C55.8831 43.189 56.2305 43.4981 56.4116 43.6708C56.5926 43.8434 56.8452 44.0733 56.9726 44.1815C57.1002 44.2898 57.2538 44.4226 57.314 44.4768C57.3743 44.5309 57.5529 44.6859 57.7109 44.8212C58.0398 45.1027 58.4354 45.4569 58.6193 45.6346C58.7562 45.7667 58.9464 45.9346 59.4788 46.3933C59.8841 46.7424 60.1259 46.9612 60.4059 47.2321C60.5177 47.3402 60.7421 47.5371 60.9045 47.6695C61.0668 47.802 61.3292 48.0424 61.4874 48.2038C61.8487 48.5721 61.8376 48.5905 61.9057 47.5029C61.9369 47.0022 61.9954 46.349 62.0358 46.0513C62.0761 45.7536 62.1099 45.2444 62.1106 44.9196C62.1114 44.5949 62.144 44.0967 62.183 43.8125C62.2222 43.5283 62.2776 42.8419 62.3063 42.2872C62.3351 41.7324 62.3906 41.0349 62.4297 40.7372C62.4688 40.4395 62.5248 39.6978 62.5539 39.0888C62.5831 38.4799 62.629 37.8981 62.6559 37.7959C62.6828 37.6936 62.7256 37.129 62.751 36.5411C62.7763 35.9533 62.8202 35.3062 62.8488 35.1033C62.9364 34.4782 62.9912 33.7735 62.9936 33.2454C62.9947 32.9678 63.0381 32.4253 63.0899 32.0399C63.1418 31.6545 63.1967 30.9627 63.212 30.5026C63.2274 30.0426 63.2716 29.4336 63.3103 29.1495C63.4257 28.3024 63.4568 27.6809 63.3879 27.5979C63.3107 27.5048 63.2596 27.5065 63.2224 27.6036ZM19.0376 30.6871C18.9676 30.9482 19.004 41.4776 19.0753 41.575C19.1405 41.6641 19.1481 41.6603 19.226 41.4983C19.4035 41.1291 19.5184 40.9324 19.5772 40.8969C19.611 40.8763 19.6528 40.7949 19.6702 40.7157C19.6876 40.6366 19.7349 40.5443 19.7753 40.5107C19.8157 40.4773 19.8815 40.3816 19.9215 40.2983C19.9614 40.2149 20.0483 40.0582 20.1145 39.9499C20.1807 39.8417 20.2617 39.6978 20.2944 39.6301C20.3273 39.5624 20.3841 39.4709 20.4208 39.4269C20.4574 39.3827 20.5271 39.272 20.5755 39.1809C20.8525 38.66 21.0453 38.323 21.0796 38.2998C21.101 38.2853 21.1523 38.1928 21.1935 38.0941C21.2349 37.9954 21.2913 37.9006 21.3193 37.8833C21.3472 37.8661 21.4024 37.7816 21.442 37.6955C21.5174 37.5316 21.5738 37.4346 21.7277 37.2027C21.8282 37.0515 21.7566 36.7455 21.5114 36.2775C21.4599 36.1791 21.4177 36.0608 21.4177 36.0147C21.4177 35.9684 21.3734 35.8744 21.3193 35.8055C21.2651 35.7368 21.2206 35.6446 21.2204 35.601C21.2201 35.5573 21.1655 35.4108 21.0989 35.2755C21.0324 35.1402 20.9772 34.9937 20.9764 34.95C20.9756 34.9063 20.9305 34.8142 20.8764 34.7454C20.8223 34.6765 20.778 34.5862 20.778 34.5445C20.778 34.5028 20.7226 34.3647 20.655 34.2375C20.5873 34.1102 20.532 33.9767 20.532 33.9408C20.532 33.9049 20.4878 33.803 20.4337 33.7145C20.3797 33.6258 20.3354 33.5064 20.3353 33.4492C20.3353 33.392 20.2909 33.2888 20.2367 33.2201C20.1826 33.1512 20.1383 33.063 20.1383 33.0239C20.1383 32.9849 20.083 32.8488 20.0153 32.7215C19.9477 32.5943 19.8922 32.4526 19.8919 32.4067C19.8918 32.3607 19.8477 32.2568 19.7939 32.1756C19.7401 32.0944 19.696 31.997 19.6959 31.9591C19.6955 31.893 19.542 31.5413 19.3457 31.1572C19.2945 31.057 19.2527 30.9282 19.2527 30.8709C19.2527 30.6296 19.0903 30.4907 19.0376 30.6871ZM32.35 35.9685C32.2872 36.0126 32.0731 36.0688 31.874 36.0935C31.6751 36.1181 31.4369 36.1699 31.3445 36.2085C31.2522 36.247 31.0567 36.2924 30.9101 36.3093C30.7635 36.3261 30.555 36.3709 30.4467 36.4087C30.3385 36.4464 30.1033 36.5003 29.9242 36.5282C29.7451 36.5563 29.5042 36.6125 29.3891 36.6531C29.2739 36.6938 29.0994 36.7271 29.0013 36.7274C28.9032 36.7275 28.6604 36.7829 28.4616 36.8504C28.2628 36.9178 28.024 36.973 27.931 36.973C27.838 36.973 27.6866 37.0045 27.5945 37.043C27.5024 37.0814 27.2581 37.1386 27.0516 37.1699C26.8451 37.2011 26.6056 37.2559 26.5195 37.2913C26.4332 37.3267 26.241 37.3709 26.0921 37.3893C25.9433 37.4078 25.694 37.4656 25.5383 37.5179C25.3827 37.57 25.1688 37.6127 25.063 37.6127C24.5489 37.6127 24.1756 37.8934 24.3665 38.1362C24.4226 38.2073 24.4685 38.3236 24.4686 38.3943C24.4688 38.4651 24.5046 38.5894 24.5482 38.6706C24.5919 38.7518 24.6574 38.9179 24.6938 39.0396C24.8295 39.4921 25.0144 39.999 25.0604 40.045C25.0866 40.0712 25.1083 40.1491 25.1085 40.2181C25.1088 40.2871 25.1634 40.4543 25.2299 40.5896C25.2965 40.7249 25.3518 40.891 25.3528 40.9586C25.3538 41.0263 25.3987 41.1481 25.4525 41.2293C25.5062 41.3104 25.5504 41.4323 25.5505 41.5003C25.5507 41.5682 25.6062 41.7277 25.6739 41.8548C25.7415 41.9818 25.7969 42.1484 25.7969 42.2248C25.7969 42.3012 25.8326 42.4146 25.8761 42.4768C25.9198 42.5391 25.9851 42.6935 26.0213 42.8199C26.0574 42.9464 26.1558 43.238 26.2398 43.4681C26.324 43.6981 26.4124 43.9527 26.4365 44.0339C26.5198 44.3143 26.7018 44.8218 26.7904 45.0212C26.8394 45.1313 26.8795 45.2642 26.8796 45.3164C26.8799 45.3688 26.9159 45.4781 26.9598 45.5593C27.0038 45.6405 27.059 45.8048 27.0826 45.9246C27.1063 46.0443 27.1607 46.181 27.2035 46.2282C27.2463 46.2756 27.2937 46.4101 27.3088 46.5273C27.324 46.6444 27.3744 46.7955 27.4209 46.8632C27.4674 46.9309 27.5211 47.0722 27.5403 47.1774C27.5595 47.2825 27.618 47.4482 27.6701 47.5457C27.7224 47.6431 27.7651 47.7632 27.7651 47.8124C27.7651 47.8616 27.8069 47.9948 27.8579 48.1083C27.909 48.2219 27.9664 48.3922 27.9858 48.487C28.0049 48.5817 28.0489 48.7038 28.0833 48.7583C28.1176 48.8128 28.1625 48.9346 28.1828 49.0289C28.2032 49.1233 28.2615 49.2826 28.3124 49.383C28.3632 49.4833 28.4047 49.6118 28.4047 49.6684C28.4047 49.7249 28.4419 49.8421 28.4874 49.9287C28.5328 50.0153 28.5954 50.1968 28.6264 50.3321C28.7284 50.7772 28.984 50.4773 29.0951 49.7819C29.1242 49.5995 29.171 49.4225 29.1991 49.3886C29.2273 49.3547 29.268 49.1837 29.2898 49.0085C29.3116 48.8334 29.3663 48.6166 29.4115 48.5269C29.4566 48.4373 29.5051 48.2532 29.5191 48.1179C29.5331 47.9826 29.5853 47.7612 29.6349 47.6259C29.6844 47.4906 29.7376 47.2743 29.7529 47.1453C29.7682 47.0162 29.8143 46.846 29.8553 46.7668C29.8961 46.6877 29.95 46.4832 29.975 46.3125C29.9998 46.1417 30.0525 45.9246 30.0918 45.8299C30.1312 45.7352 30.1786 45.538 30.197 45.3916C30.2156 45.2453 30.2627 45.0638 30.3018 44.9881C30.3409 44.9126 30.3729 44.7951 30.3729 44.7271C30.3729 44.6592 30.428 44.4311 30.4953 44.2203C30.5626 44.0096 30.618 43.7771 30.6183 43.7036C30.6187 43.6302 30.6605 43.4641 30.7115 43.3346C30.7623 43.2051 30.8202 42.9773 30.8401 42.8284C30.8602 42.6796 30.9043 42.5024 30.9383 42.4348C30.9722 42.3671 31.0254 42.1643 31.0563 41.9839C31.0871 41.8036 31.1452 41.5932 31.1852 41.5165C31.2253 41.4397 31.2581 41.3077 31.2584 41.2232C31.2585 41.1387 31.314 40.9001 31.3816 40.6928C31.4493 40.4855 31.5046 40.2527 31.5046 40.1752C31.5046 40.0978 31.5484 39.938 31.6019 39.82C31.6554 39.7021 31.6997 39.5364 31.7003 39.4519C31.701 39.3673 31.7568 39.1287 31.8245 38.9214C31.8921 38.7142 31.9476 38.4844 31.9477 38.4108C31.948 38.3371 31.9784 38.2189 32.0155 38.1478C32.0525 38.0768 32.1087 37.8699 32.1404 37.6881C32.1721 37.5063 32.2283 37.2765 32.2653 37.1776C32.3024 37.0786 32.3468 36.898 32.364 36.7762C32.3812 36.6544 32.4318 36.4518 32.4763 36.3261C32.5853 36.0188 32.5244 35.8464 32.35 35.9685ZM34.609 36.0534C34.5794 36.0829 34.5552 36.1746 34.5551 36.2571C34.5547 36.4351 34.4783 36.7401 34.3799 36.9558C34.341 37.0412 34.3093 37.1888 34.3093 37.2839C34.3093 37.3791 34.2685 37.5529 34.2184 37.6702C34.1685 37.7874 34.1119 38.003 34.0927 38.1494C34.0735 38.2957 34.026 38.477 33.987 38.5524C33.948 38.6278 33.8936 38.8479 33.8662 39.0414C33.8388 39.235 33.7833 39.4405 33.743 39.4981C33.7026 39.5557 33.6696 39.6859 33.6696 39.7876C33.6696 39.8892 33.6143 40.1193 33.5466 40.299C33.479 40.4789 33.4236 40.7021 33.4236 40.7954C33.4236 40.8886 33.3812 41.0687 33.3294 41.1955C33.2775 41.3224 33.2237 41.5368 33.2098 41.6721C33.1959 41.8074 33.1392 42.0178 33.0837 42.1395C33.0283 42.2613 32.9818 42.4495 32.9802 42.5578C32.9787 42.666 32.9346 42.8432 32.8824 42.9514C32.8301 43.0597 32.7858 43.2257 32.7841 43.3205C32.7822 43.4152 32.7379 43.6145 32.6855 43.7633C32.6331 43.9121 32.5891 44.0893 32.5878 44.1569C32.5863 44.2246 32.5303 44.4349 32.4633 44.6244C32.3963 44.8138 32.3415 45.0269 32.3414 45.098C32.3412 45.169 32.3067 45.324 32.2645 45.4424C32.2224 45.5607 32.1571 45.8016 32.1194 45.9775C32.0368 46.3641 31.921 46.8262 31.7989 47.2568C31.7489 47.4327 31.6867 47.6874 31.6605 47.8227C31.6344 47.958 31.5784 48.1573 31.5364 48.2655C31.4942 48.3738 31.4587 48.5462 31.4576 48.6488C31.4564 48.7514 31.4142 48.9175 31.3639 49.0179C31.3136 49.1182 31.2585 49.3238 31.2415 49.4746C31.2245 49.6254 31.1773 49.8155 31.1366 49.897C31.0959 49.9786 31.042 50.1763 31.0169 50.3363C30.9917 50.4965 30.9385 50.727 30.8988 50.8488C30.8259 51.0728 30.722 51.5293 30.7031 51.7099C30.6877 51.8564 31.1493 51.8706 31.5823 51.7369C31.7617 51.6814 32.0004 51.6351 32.1126 51.6338C32.2247 51.6327 32.4051 51.5994 32.5133 51.5599C32.6216 51.5203 32.8961 51.4547 33.1236 51.4143C33.3509 51.3737 33.5613 51.3205 33.591 51.2961C33.6207 51.2716 33.7557 51.236 33.8911 51.217C34.0264 51.1979 34.234 51.1404 34.3525 51.0894C34.4709 51.0382 34.621 50.9964 34.6861 50.9964C34.7512 50.9964 34.9358 50.941 35.0966 50.8734C35.2574 50.8057 35.4333 50.7504 35.4874 50.7504C35.5416 50.7504 35.6806 50.7092 35.7964 50.6587C36.05 50.5481 36.4126 50.4213 36.7417 50.3279C36.8753 50.2902 36.9971 50.2391 37.0124 50.2147C37.0276 50.1902 37.1287 50.1463 37.237 50.117C37.3452 50.0878 37.4781 50.033 37.5322 49.9952C37.5863 49.9574 37.7081 49.9098 37.8028 49.8894C37.8976 49.8691 38.0304 49.8136 38.0981 49.7663C38.1657 49.7189 38.2916 49.6649 38.3775 49.6462C38.4637 49.6276 38.5605 49.5805 38.5927 49.5417C38.6249 49.5028 38.6746 49.471 38.7029 49.471C38.7552 49.471 39.3399 49.2078 39.4758 49.1232C39.5164 49.0978 39.605 49.055 39.6726 49.0281C39.7403 49.001 39.8288 48.9603 39.8694 48.9374C40.005 48.8612 40.139 48.7933 40.2631 48.7378C40.3307 48.7075 40.5632 48.5824 40.7797 48.4599C40.9962 48.3374 41.2675 48.1944 41.3825 48.1424C41.4975 48.0902 41.5916 48.0271 41.5916 48.002C41.5916 47.9769 41.6525 47.9411 41.7269 47.9226C41.8013 47.904 41.8995 47.8553 41.9449 47.8143C42.0327 47.7352 42.2508 47.6072 42.5142 47.4802C42.6021 47.4378 42.6741 47.3854 42.6741 47.3637C42.6741 47.342 42.7461 47.286 42.834 47.2394C43.0351 47.1325 43.154 47.0615 43.3396 46.937C43.4203 46.8829 43.522 46.8165 43.5656 46.7894C43.7979 46.645 44.2827 46.3171 44.3452 46.2623C44.3848 46.2275 44.4537 46.1768 44.4981 46.1497C44.5427 46.1227 44.6743 46.0341 44.7908 45.9529C44.9071 45.8717 45.0504 45.7721 45.1091 45.7315C45.4278 45.5112 46.0578 45.0391 46.143 44.9568C46.1972 44.9045 46.4075 44.7427 46.6105 44.5972C46.8135 44.4518 46.9906 44.3177 47.0041 44.2993C47.0256 44.2699 47.8144 43.6222 48.0763 43.4189C48.1286 43.3783 48.335 43.1984 48.5349 43.0192C49.1706 42.4495 49.6367 42.0577 49.7521 41.996C49.8136 41.963 49.8558 41.9114 49.8457 41.8811C49.8178 41.7973 49.3577 41.5561 49.2183 41.552C49.1507 41.5501 49.0289 41.5044 48.9477 41.4507C48.8665 41.3969 48.7669 41.3525 48.7263 41.3521C48.6857 41.3518 48.5418 41.2969 48.4065 41.2304C48.2711 41.1638 48.1269 41.1086 48.0859 41.1078C48.0449 41.107 47.9287 41.062 47.8278 41.0078C47.7268 40.9537 47.6053 40.9093 47.5578 40.9093C47.5104 40.9092 47.4012 40.8661 47.3152 40.8137C47.2292 40.7613 47.0747 40.7026 46.9718 40.6833C46.8689 40.664 46.7179 40.6074 46.6361 40.5576C46.5544 40.5078 46.4539 40.4668 46.4129 40.4667C46.372 40.4667 46.2557 40.4223 46.1548 40.3682C46.0539 40.314 45.9323 40.2696 45.8848 40.2695C45.8375 40.2694 45.71 40.2147 45.6018 40.148C45.4935 40.0813 45.3522 40.0261 45.2877 40.0252C45.2233 40.0245 45.1015 39.9818 45.0171 39.9306C44.9327 39.8794 44.7866 39.8211 44.6922 39.8012C44.5979 39.7812 44.4711 39.7323 44.4104 39.6925C44.3498 39.6527 44.2276 39.6024 44.1391 39.5807C43.9775 39.5409 43.5178 39.3642 43.3439 39.2748C43.2927 39.2485 43.138 39.1935 43.0001 39.1526C42.8621 39.1116 42.7052 39.0473 42.6515 39.0096C42.5977 38.972 42.5083 38.9412 42.4527 38.9412C42.3971 38.9412 42.3077 38.9105 42.2539 38.8728C42.2001 38.8352 42.04 38.7699 41.8981 38.7277C41.7562 38.6856 41.5911 38.6167 41.5311 38.5748C41.4712 38.5327 41.3768 38.4984 41.3216 38.4984C41.2664 38.4984 41.1384 38.4541 41.0376 38.4C40.9366 38.3459 40.8261 38.3013 40.7921 38.3011C40.7583 38.3008 40.6198 38.2462 40.4845 38.1797C40.3492 38.1131 40.1968 38.0579 40.1458 38.0571C40.0949 38.0563 39.9842 38.0136 39.8998 37.9624C39.8154 37.9113 39.6708 37.8533 39.5783 37.8338C39.4859 37.8141 39.342 37.7565 39.2584 37.7056C39.175 37.6547 39.0651 37.613 39.0141 37.6128C38.9632 37.6128 38.8525 37.5708 38.7681 37.5196C38.6837 37.4684 38.5372 37.4101 38.4425 37.3901C38.3478 37.37 38.1932 37.3122 38.0988 37.2618C38.0045 37.2112 37.8937 37.1697 37.8528 37.1697C37.8118 37.1696 37.7058 37.1253 37.6171 37.0713C37.5285 37.0172 37.4178 36.9728 37.3711 36.9726C37.3244 36.9723 37.1755 36.9177 37.0402 36.8511C36.9049 36.7846 36.7457 36.7294 36.6864 36.7286C36.6271 36.7278 36.565 36.7051 36.5485 36.6784C36.532 36.6517 36.3934 36.5936 36.2405 36.5491C36.0876 36.5046 35.9348 36.4406 35.901 36.4067C35.8671 36.3729 35.7553 36.3298 35.6526 36.3111C35.5498 36.2923 35.4164 36.2452 35.3563 36.2064C35.1816 36.094 34.6726 35.9898 34.609 36.0534ZM22.5497 39.7347C22.5136 39.8259 22.455 39.935 22.4196 39.977C22.3842 40.0189 22.2738 40.2072 22.1746 40.3952C22.0752 40.5833 21.9782 40.7483 21.959 40.7618C21.94 40.7753 21.8852 40.8694 21.8376 40.9709C21.7899 41.0724 21.7331 41.1554 21.7112 41.1554C21.6894 41.1554 21.6573 41.2204 21.6398 41.2996C21.6224 41.379 21.5751 41.4713 21.5346 41.5049C21.4943 41.5384 21.43 41.6341 21.392 41.7174C21.3538 41.8008 21.2664 41.9575 21.1976 42.0657C21.1288 42.174 21.0408 42.3307 21.002 42.4141C20.9631 42.4974 20.8982 42.5931 20.8578 42.6265C20.8174 42.6601 20.7701 42.7523 20.7528 42.8312C20.7354 42.9102 20.7021 42.9867 20.6786 43.0012C20.6551 43.0158 20.5406 43.1956 20.4241 43.401C20.3075 43.6065 20.1631 43.8549 20.1032 43.9534C20.0433 44.0518 19.9594 44.1988 19.9168 44.2799C19.8742 44.3611 19.7739 44.5272 19.6938 44.649C19.3827 45.1221 19.3418 45.5285 19.562 45.9587C19.602 46.0367 19.651 46.1983 19.6708 46.3179C19.6907 46.4373 19.7485 46.6034 19.7994 46.6869C19.8504 46.7703 19.8921 46.8773 19.8922 46.9247C19.8923 46.9972 19.9784 47.1897 20.1949 47.6013C20.2162 47.6419 20.2792 47.7636 20.3348 47.8719C20.4599 48.1157 20.5259 48.2249 20.6673 48.4218C20.7282 48.5065 20.778 48.5916 20.778 48.6107C20.778 48.7728 22.1194 50.1151 22.6112 50.4451C23.0264 50.7237 23.7386 51.1156 23.9763 51.1964C24.071 51.2285 24.1817 51.2825 24.2223 51.3162C24.2629 51.3499 24.3847 51.3934 24.493 51.4125C24.6012 51.4317 24.7588 51.4899 24.8432 51.5418C24.9276 51.5936 25.0652 51.6361 25.1489 51.6361C25.2326 51.6361 25.4072 51.6775 25.5367 51.7281C25.6662 51.7787 25.9273 51.8362 26.1167 51.8556C26.3062 51.8752 26.5818 51.9223 26.7294 51.9603C27.0518 52.0435 27.1184 52.0013 27.0094 51.7829C26.9664 51.6967 26.9168 51.5454 26.8993 51.4466C26.8817 51.3478 26.8259 51.198 26.775 51.1136C26.7241 51.0292 26.6823 50.9075 26.6821 50.843C26.6818 50.7785 26.6272 50.6151 26.5607 50.4797C26.4941 50.3444 26.4383 50.1784 26.4365 50.1107C26.4348 50.0431 26.4027 49.9471 26.3651 49.8975C26.3276 49.8481 26.2697 49.6931 26.2367 49.5531C26.2036 49.4132 26.1465 49.2552 26.1097 49.2018C26.0729 49.1484 26.0429 49.059 26.0429 49.0031C26.0429 48.9471 25.9989 48.8149 25.945 48.7092C25.8911 48.6036 25.8333 48.4384 25.8164 48.342C25.7997 48.2458 25.7441 48.0939 25.6931 48.0044C25.6419 47.9149 25.5993 47.7932 25.5985 47.7338C25.5977 47.6745 25.5425 47.5152 25.4759 47.3798C25.4094 47.2445 25.3548 47.0779 25.3545 47.0095C25.3543 46.9411 25.3211 46.8381 25.2808 46.7807C25.2406 46.7232 25.1764 46.5578 25.138 46.413C25.0998 46.2682 25.0331 46.0833 24.99 46.0021C24.947 45.9209 24.9117 45.8146 24.9114 45.7659C24.9113 45.7172 24.876 45.6095 24.8331 45.5263C24.7902 45.4433 24.7257 45.2728 24.69 45.1474C24.6064 44.8543 24.4729 44.4678 24.3902 44.2799C24.3546 44.1988 24.3001 44.0333 24.2691 43.9124C24.2381 43.7913 24.1816 43.648 24.1437 43.5939C24.1057 43.5397 24.074 43.4394 24.0731 43.371C24.0724 43.3026 24.0171 43.1359 23.9506 43.0006C23.884 42.8653 23.8294 42.7018 23.8292 42.6374C23.8289 42.5729 23.7863 42.4511 23.7345 42.3667C23.6826 42.2824 23.6238 42.1253 23.6038 42.0175C23.5838 41.9099 23.5267 41.7549 23.4769 41.6731C23.4271 41.5914 23.3861 41.4691 23.3859 41.4015C23.3856 41.3338 23.3446 41.2115 23.2948 41.1299C23.245 41.0481 23.188 40.8931 23.1684 40.7854C23.1487 40.6777 23.1043 40.5453 23.0698 40.4912C23.0354 40.4371 22.9805 40.2821 22.9479 40.1467C22.9153 40.0114 22.8273 39.8259 22.7521 39.7347L22.6157 39.5686L22.5497 39.7347ZM52.0362 42.6242C51.9456 42.6507 51.3705 43.1513 50.9212 43.595C50.8641 43.6514 50.6071 43.8714 50.35 44.0842C50.0929 44.2969 49.8472 44.5054 49.8039 44.5476C49.4712 44.8715 49.124 45.168 48.8493 45.3625C48.7152 45.4575 48.4888 45.6493 48.3296 45.8027C48.2874 45.8434 48.0881 45.9984 47.8867 46.147C47.6855 46.2956 47.4278 46.4971 47.3141 46.5949C47.2006 46.6927 47.0013 46.8415 46.8713 46.9259C46.7414 47.0102 46.5354 47.159 46.4137 47.2567C46.2919 47.3545 46.0622 47.5218 45.9032 47.6286C45.7442 47.7353 45.4785 47.9172 45.3127 48.0325C44.8793 48.3343 44.6359 48.4972 44.4891 48.5835C44.2031 48.7518 43.8839 48.9618 43.7198 49.0897C43.6244 49.1641 43.5205 49.225 43.4892 49.225C43.4578 49.225 43.3889 49.2582 43.336 49.2988C43.145 49.4456 42.8923 49.599 42.7356 49.6633C42.6477 49.6995 42.5757 49.7451 42.5757 49.7648C42.5757 49.7845 42.4927 49.8377 42.3912 49.8834C42.2897 49.9289 42.096 50.029 41.9606 50.106C41.8253 50.1829 41.5596 50.3265 41.3702 50.4249C41.1807 50.5233 40.9704 50.6342 40.9027 50.6714C40.6859 50.7907 39.9498 51.1399 39.7464 51.22C39.3026 51.3951 40.3662 51.4507 41.1811 51.2951C41.3207 51.2685 41.8743 51.2325 42.4112 51.215C42.9482 51.1975 43.6865 51.1507 44.0518 51.1109C44.4172 51.0711 45.1811 51.019 45.7494 50.9954C46.3177 50.9718 47.0927 50.9174 47.4716 50.8747C47.8504 50.832 48.5479 50.7853 49.0215 50.7709C49.4951 50.7565 50.1483 50.7132 50.4731 50.6747C50.7978 50.6361 51.5728 50.5822 52.1952 50.5548C52.8177 50.5274 53.6369 50.4722 54.0158 50.4321C54.3947 50.3922 55.225 50.3361 55.861 50.3075C56.4969 50.279 57.1059 50.2346 57.2141 50.2087C57.3224 50.183 57.8316 50.1498 58.3458 50.1349C58.86 50.1201 59.5485 50.0838 59.8758 50.0541L60.471 50.0004L60.2669 49.7972C60.1546 49.6855 59.9099 49.4612 59.7232 49.2988C59.5363 49.1365 59.2797 48.904 59.1529 48.7822C59.0259 48.6604 58.8152 48.4722 58.6843 48.3639C58.5536 48.2557 58.4004 48.1228 58.3441 48.0687C58.2878 48.0146 58.0989 47.8489 57.9246 47.7005C57.7503 47.5521 57.5294 47.3528 57.4337 47.2577C57.338 47.1625 57.1166 46.963 56.9416 46.8142C56.7667 46.6656 56.6126 46.53 56.599 46.5127C56.5855 46.4955 56.4194 46.3509 56.23 46.1911C55.8169 45.8429 55.5215 45.5785 55.2491 45.3132C55.072 45.1407 54.66 44.7805 54.2926 44.4768C54.1425 44.3526 53.7678 44.0231 53.5936 43.8617C53.1417 43.4433 52.6138 42.9685 52.4658 42.8472C52.3711 42.7696 52.2644 42.6782 52.2286 42.6443C52.1929 42.6102 52.1597 42.5846 52.1548 42.5873C52.15 42.59 52.0966 42.6066 52.0362 42.6242Z" fill="white"/>
</svg>
