<svg width="84" height="82" viewBox="0 0 84 82" fill="none" xmlns="http://www.w3.org/2000/svg">
<path fill-rule="evenodd" clip-rule="evenodd" d="M46.6471 7.24265V7H64V52H19V7H36.3279V7.24265C36.3279 10.0919 38.6375 12.4022 41.4875 12.4022C44.3368 12.4022 46.6471 10.0926 46.6471 7.24265ZM32.4355 31.2509H29.4531L32.8737 47.1839H35.8884L38.2347 36.3406H38.2921L40.484 47.1839H43.4436L47.2443 31.2509H44.3193L41.9987 42.2273H41.9553L39.745 31.2509H36.9553L34.5083 42.0942H34.4715L32.4355 31.2509ZM55.3083 31.2509H50.6068L46.7495 47.1839H49.7458L50.5296 43.6384H55.8855L56.9009 47.1839H59.9774L55.3083 31.2509ZM51.0958 41.0237L52.3965 35.1781H53.6509L55.1443 41.0237H51.0958Z" fill="white"/>
<path d="M18.528 77L15.378 63.914H17.07L19.536 74.282L22.362 64.634H23.874L26.736 74.39L29.238 63.914H30.858L27.708 77H26.088L23.118 67.118L20.148 77H18.528ZM30.6835 77L35.7415 63.914H37.4155L42.4915 77H40.6375L39.4855 73.778H33.6355L32.4835 77H30.6835ZM34.1575 72.338H38.9635L36.5515 65.66L34.1575 72.338ZM43.5504 76.424V74.948C44.8704 75.488 46.1304 75.758 47.3304 75.758C48.3384 75.758 49.1244 75.56 49.6884 75.164C50.2644 74.768 50.5524 74.222 50.5524 73.526C50.5524 73.01 50.3784 72.584 50.0304 72.248C49.6824 71.912 49.0524 71.57 48.1404 71.222L46.7544 70.682C45.5904 70.226 44.7504 69.722 44.2344 69.17C43.7304 68.606 43.4784 67.946 43.4784 67.19C43.4784 66.11 43.8864 65.258 44.7024 64.634C45.5184 64.01 46.6344 63.698 48.0504 63.698C48.6384 63.698 49.2444 63.77 49.8684 63.914C50.4924 64.046 51.0264 64.232 51.4704 64.472V65.948C50.2464 65.42 49.1184 65.156 48.0864 65.156C46.1304 65.156 45.1524 65.822 45.1524 67.154C45.1524 67.598 45.3264 67.976 45.6744 68.288C46.0224 68.6 46.6344 68.93 47.5104 69.278L48.8964 69.818C50.0964 70.286 50.9484 70.814 51.4524 71.402C51.9684 71.978 52.2264 72.674 52.2264 73.49C52.2264 74.666 51.8064 75.584 50.9664 76.244C50.1384 76.892 48.9744 77.216 47.4744 77.216C47.0184 77.216 46.5384 77.18 46.0344 77.108C45.5424 77.036 45.0804 76.94 44.6484 76.82C44.2164 76.7 43.8504 76.568 43.5504 76.424ZM54.374 77V63.914H56.084L61.016 73.994L65.84 63.914H67.55V77H65.93V66.956L61.664 75.74H60.26L55.994 67.064V77H54.374Z" fill="white"/>
</svg>
