<svg width="60" height="82" viewBox="0 0 60 82" fill="none" xmlns="http://www.w3.org/2000/svg">
<g filter="url(#filter0_i)">
<path fill-rule="evenodd" clip-rule="evenodd" d="M34.6471 7.24265V7H52V52H7V7H24.3279V7.24265C24.3279 10.0919 26.6375 12.4022 29.4875 12.4022C32.3368 12.4022 34.6471 10.0926 34.6471 7.24265ZM20.4355 31.2509H17.4531L20.8737 47.1839H23.8884L26.2347 36.3406H26.2921L28.484 47.1839H31.4436L35.2443 31.2509H32.3193L29.9987 42.2273H29.9553L27.745 31.2509H24.9553L22.5083 42.0942H22.4715L20.4355 31.2509ZM43.3083 31.2509H38.6068L34.7495 47.1839H37.7458L38.5296 43.6384H43.8855L44.9009 47.1839H47.9774L43.3083 31.2509ZM39.0958 41.0237L40.3965 35.1781H41.6509L43.1443 41.0237H39.0958Z" fill="white"/>
</g>
<path d="M6.528 77L3.378 63.914H5.07L7.536 74.282L10.362 64.634H11.874L14.736 74.39L17.238 63.914H18.858L15.708 77H14.088L11.118 67.118L8.148 77H6.528ZM18.6835 77L23.7415 63.914H25.4155L30.4915 77H28.6375L27.4855 73.778H21.6355L20.4835 77H18.6835ZM22.1575 72.338H26.9635L24.5515 65.66L22.1575 72.338ZM31.5504 76.424V74.948C32.8704 75.488 34.1304 75.758 35.3304 75.758C36.3384 75.758 37.1244 75.56 37.6884 75.164C38.2644 74.768 38.5524 74.222 38.5524 73.526C38.5524 73.01 38.3784 72.584 38.0304 72.248C37.6824 71.912 37.0524 71.57 36.1404 71.222L34.7544 70.682C33.5904 70.226 32.7504 69.722 32.2344 69.17C31.7304 68.606 31.4784 67.946 31.4784 67.19C31.4784 66.11 31.8864 65.258 32.7024 64.634C33.5184 64.01 34.6344 63.698 36.0504 63.698C36.6384 63.698 37.2444 63.77 37.8684 63.914C38.4924 64.046 39.0264 64.232 39.4704 64.472V65.948C38.2464 65.42 37.1184 65.156 36.0864 65.156C34.1304 65.156 33.1524 65.822 33.1524 67.154C33.1524 67.598 33.3264 67.976 33.6744 68.288C34.0224 68.6 34.6344 68.93 35.5104 69.278L36.8964 69.818C38.0964 70.286 38.9484 70.814 39.4524 71.402C39.9684 71.978 40.2264 72.674 40.2264 73.49C40.2264 74.666 39.8064 75.584 38.9664 76.244C38.1384 76.892 36.9744 77.216 35.4744 77.216C35.0184 77.216 34.5384 77.18 34.0344 77.108C33.5424 77.036 33.0804 76.94 32.6484 76.82C32.2164 76.7 31.8504 76.568 31.5504 76.424ZM42.374 77V63.914H44.084L49.016 73.994L53.84 63.914H55.55V77H53.93V66.956L49.664 75.74H48.26L43.994 67.064V77H42.374Z" fill="white"/>
<defs>
<filter id="filter0_i" x="0" y="0" width="61" height="62" filterUnits="userSpaceOnUse" color-interpolation-filters="sRGB">
<feFlood flood-opacity="0" result="BackgroundImageFix"/>
<feBlend mode="normal" in="SourceGraphic" in2="BackgroundImageFix" result="shape"/>
<feColorMatrix in="SourceAlpha" type="matrix" values="0 0 0 0 0 0 0 0 0 0 0 0 0 0 0 0 0 0 127 0" result="hardAlpha"/>
<feOffset dx="1" dy="2"/>
<feGaussianBlur stdDeviation="2"/>
<feComposite in2="hardAlpha" operator="arithmetic" k2="-1" k3="1"/>
<feColorMatrix type="matrix" values="0 0 0 0 0 0 0 0 0 0.458824 0 0 0 0 0.560784 0 0 0 0.15 0"/>
<feBlend mode="normal" in2="shape" result="effect1_innerShadow"/>
</filter>
</defs>
</svg>
