<svg width="24" height="24" viewBox="0 0 24 24" fill="none" xmlns="http://www.w3.org/2000/svg">
<g clip-path="url(#clip0_2504_3116)">
<path d="M0 4.41379C0 1.97612 1.97612 0 4.41379 0H19.5862C22.0239 0 24 1.97612 24 4.41379V19.5862C24 22.0239 22.0239 24 19.5862 24H4.41379C1.97612 24 0 22.0239 0 19.5862V4.41379Z" fill="#8EC9E6"/>
<path d="M15.1074 15.7241V8.30371H16.7711L19.1289 13.1928L21.4561 8.30371H23.1198V15.7241H21.548V10.9167L19.5882 15.0096H18.6084L16.6487 10.9779V15.7241H15.1074Z" fill="black"/>
<path d="M10.0343 15.7241L7.29883 8.30371H9.09524L10.8304 13.7644L12.586 8.30371H14.311L11.5755 15.7241H10.0343Z" fill="black"/>
<path d="M4.00034 12.5705V11.7131H6.746V15.357C6.0111 15.6972 5.18774 15.8673 4.27593 15.8673C3.02388 15.8673 2.07464 15.5339 1.4282 14.8671C0.788565 14.2002 0.46875 13.2204 0.46875 11.9275C0.46875 11.1313 0.625258 10.4543 0.938267 9.89631C1.25809 9.33153 1.71399 8.90284 2.30599 8.61024C2.90479 8.31084 3.62608 8.16113 4.46986 8.16113C4.78285 8.16113 5.09248 8.18836 5.39869 8.24279C5.71168 8.29722 6.00429 8.37887 6.27648 8.48775V9.83506C5.92945 9.72618 5.61982 9.65134 5.34765 9.61051C5.07546 9.56287 4.80327 9.53906 4.5311 9.53906C3.74857 9.53906 3.14636 9.74659 2.72447 10.1617C2.3094 10.57 2.10185 11.1586 2.10185 11.9275C2.10185 12.7849 2.28218 13.4279 2.64282 13.8566C3.01028 14.2785 3.56823 14.4894 4.31676 14.4894C4.63657 14.4894 4.94959 14.469 5.25579 14.4282V12.989L4.00034 12.5705Z" fill="black"/>
</g>
<defs>
<clipPath id="clip0_2504_3116">
<rect width="24" height="24" fill="white"/>
</clipPath>
</defs>
</svg>
