<svg xmlns="http://www.w3.org/2000/svg" xmlns:xlink="http://www.w3.org/1999/xlink" width="266" height="53" viewBox="0 0 266 53"><defs><path id="7owha" d="M281.76 313.44c-.94.83-1.98 1.65-3.12 2.43a23.76 23.76 0 0 1-8.22 3.58c-1.63.37-3.41.55-5.34.55-5.63 0-10.05-2.01-13.26-6.04-3.21-4.03-4.82-10.1-4.82-18.21 0-4.47.47-8.4 1.4-11.76a23.83 23.83 0 0 1 4.05-8.4 16.67 16.67 0 0 1 6.3-5.01 19.65 19.65 0 0 1 8.18-1.66c3.02 0 5.72.66 8.12 1.99a18.95 18.95 0 0 1 6.26 5.75l-3.7 4.27a20.56 20.56 0 0 0-4.56-2.36c-1.6-.59-3.35-.88-5.23-.88a9 9 0 0 0-3.92.88 8.63 8.63 0 0 0-3.26 2.84 15.23 15.23 0 0 0-2.23 5.01 28.78 28.78 0 0 0-.81 7.34c0 3.44.24 6.29.74 8.55.5 2.26 1.18 4.07 2.07 5.42a7.55 7.55 0 0 0 3.26 2.87c1.29.57 2.72.85 4.3.85.64 0 1.32-.1 2.04-.3.72-.2 1.32-.44 1.82-.73v-12.17h-5.2v-6.7h15.13zm25.8-22.63c-.79-.25-1.47-.43-2.04-.55a7.56 7.56 0 0 0-1.59-.19c-.99 0-1.98.5-2.96 1.48a37.4 37.4 0 0 0-3.41 4.05v23.66H288v-37h7.19l1.4 6.49a39.92 39.92 0 0 1 4.56-5.39 6.2 6.2 0 0 1 5.86-1.7c.52.1 1.1.23 1.74.38zm24.25 11.94H329c-1.73 0-3.15.15-4.26.44a7.5 7.5 0 0 0-2.6 1.15 3.75 3.75 0 0 0-1.3 1.7 5.97 5.97 0 0 0-.37 2.1c0 1.47.41 2.58 1.23 3.35a4.74 4.74 0 0 0 3.37 1.14c1.23 0 2.42-.21 3.56-.63 1.13-.42 2.2-.97 3.18-1.66zm2.45 16.51l-1.04-4.2a20.7 20.7 0 0 1-4.96 3.47 13.35 13.35 0 0 1-6.16 1.47c-3.8 0-6.64-.93-8.52-2.8-1.87-1.87-2.81-4.5-2.81-7.89a12 12 0 0 1 1-4.86 10.36 10.36 0 0 1 3.22-4.02 17.12 17.12 0 0 1 5.7-2.77 30.36 30.36 0 0 1 8.53-1.03h2.6v-2.5c0-1.97-.7-3.35-2.08-4.13a9.89 9.89 0 0 0-4.97-1.18c-1.83 0-3.68.18-5.56.55-1.87.37-3.6.8-5.18 1.3l-1.04-5.76a70.9 70.9 0 0 1 6.82-2.32 29.92 29.92 0 0 1 8.3-1.07c4.7 0 8.06 1.02 10.11 3.06 2.05 2.04 3.08 5.03 3.08 8.96v25.72zm33.73-16.5h-2.81c-1.73 0-3.15.14-4.26.43a7.5 7.5 0 0 0-2.6 1.15 3.75 3.75 0 0 0-1.3 1.7 5.97 5.97 0 0 0-.36 2.1c0 1.47.4 2.58 1.22 3.35a4.74 4.74 0 0 0 3.37 1.14c1.24 0 2.42-.21 3.56-.63 1.13-.42 2.2-.97 3.18-1.66zm2.45 16.5l-1.04-4.2a20.7 20.7 0 0 1-4.96 3.47 13.35 13.35 0 0 1-6.15 1.47c-3.8 0-6.65-.93-8.53-2.8-1.87-1.87-2.81-4.5-2.81-7.89a12 12 0 0 1 1-4.86 10.36 10.36 0 0 1 3.22-4.02 17.12 17.12 0 0 1 5.7-2.77 30.36 30.36 0 0 1 8.53-1.03h2.6v-2.5c0-1.97-.7-3.35-2.08-4.13a9.89 9.89 0 0 0-4.97-1.18c-1.82 0-3.68.18-5.55.55-1.88.37-3.61.8-5.2 1.3l-1.03-5.76a70.9 70.9 0 0 1 6.82-2.32 29.92 29.92 0 0 1 8.3-1.07c4.7 0 8.06 1.02 10.11 3.06 2.05 2.04 3.08 5.03 3.08 8.96v25.72zm29.8-.37c-1.13.35-2.28.62-3.44.82-1.16.2-2.38.29-3.67.29-2.61 0-4.55-.57-5.81-1.7-1.26-1.13-1.9-3.26-1.9-6.4V267h9.5v41.57c0 2.02.19 3.32.59 3.91.39.6 1.03.89 1.92.89h1.04c.4 0 .81-.03 1.26-.08zm40.86-49.38a435.8 435.8 0 0 1-6.41 25.13 562.23 562.23 0 0 1-7.67 24.62h-12.75a621.4 621.4 0 0 1-7.7-24.84 485.23 485.23 0 0 1-6.45-24.91h11.34c.54 2.94 1.18 6.04 1.92 9.28a563 563 0 0 0 5.04 20.24c.94 3.46 1.9 6.84 2.9 10.13.83-2.8 1.68-5.8 2.55-9.03.86-3.21 1.73-6.53 2.6-9.95.86-3.41 1.67-6.88 2.44-10.4a425.2 425.2 0 0 0 2.11-10.27zm46.26 49.75c-.1-6.53-.27-13.02-.52-19.46-.25-6.44-.64-13.02-1.19-19.75h-.15l-11.26 39.21h-7.48l-10.9-39.21h-.15c-.54 6.73-.93 13.31-1.18 19.75-.25 6.44-.42 12.93-.52 19.46h-9.49a689.61 689.61 0 0 1 3.27-49.75h14.74l8.97 32.14h.15l9.26-32.14h13.78a711.12 711.12 0 0 1 3.26 49.75zm16.41-4.8v4.48h-1.73v-4.48h-1.12v-1.47h3.97v1.47zm7.68 4.48l-.05-2.2-.06-2.07-1.37 4.27h-1.55l-1.4-4.23c-.03.7-.04 1.38-.04 2.06v2.17h-1.44c0-1 .02-2 .07-3 .05-.99.1-1.97.18-2.95h2.23l1.23 3.9 1.26-3.9h2.2a64.25 64.25 0 0 1 .29 5.95z"/></defs><g><g transform="translate(-247 -267)"><use fill="#193e47" xlink:href="#7owha"/></g></g></svg>
