<svg xmlns="http://www.w3.org/2000/svg" width="500" height="500" viewBox="0 0 500 500">
  <g id="Group_1079" data-name="Group 1079" transform="translate(-6878 -1982)">
    <g id="Group_1072" data-name="Group 1072" transform="translate(5763 -415)">
      <g id="Group_1005" data-name="Group 1005" transform="translate(0 -77)">
        <g id="Group_956" data-name="Group 956" transform="translate(1115 2473.7)">
          <g id="Group_953" data-name="Group 953">
            <g id="Group_582" data-name="Group 582">
              <g id="Path_590" data-name="Path 590" transform="translate(0 0.3)" fill="none">
                <path d="M250,0C388.071,0,500,111.929,500,250S388.071,500,250,500,0,388.071,0,250,111.929,0,250,0Z" stroke="none"/>
                <path d="M 250 28 C 127.5888061523438 28 28 127.5888061523438 28 250 C 28 372.4111938476563 127.5888061523438 472 250 472 C 372.4111938476563 472 472 372.4111938476563 472 250 C 472 127.5888061523438 372.4111938476563 28 250 28 M 250 0 C 388.0711669921875 0 500 111.9288330078125 500 250 C 500 388.0711669921875 388.0711669921875 500 250 500 C 111.9288330078125 500 0 388.0711669921875 0 250 C 0 111.9288330078125 111.9288330078125 0 250 0 Z" stroke="none" fill="#00758f"/>
              </g>
              <path id="Path_504" data-name="Path 504" d="M350.4.3a249.439,249.439,0,0,1,215.238,123c13.4,22.7,22.809,47.9,28.5,74.6.065.3.233,1.105.233,1.105L350,250.15S350.158.3,350.4.3Z" transform="translate(-99.552 0)" fill="#f29111"/>
            </g>
          </g>
        </g>
        <g id="Group_1003" data-name="Group 1003" transform="translate(1318.343 2735.673)">
          <text id="_" data-name="~" transform="translate(75 41)" fill="#00758f" font-size="50" font-family="OracleSans-SemiBold, Oracle Sans" font-weight="600"><tspan x="-30" y="0">~</tspan></text>
          <text id="reduced" transform="translate(137.657 100.023)" fill="#00758f" font-size="50" font-family="OracleSans-SemiBold, Oracle Sans" font-weight="600"><tspan x="-94.6" y="0">reduced</tspan></text>
          <text id="_5x" data-name="5x" transform="translate(136 40)" fill="#f29111" font-size="50" font-family="OracleSans-Bold, Oracle Sans" font-weight="700"><tspan x="-56.3" y="0">5x</tspan></text>
        </g>
      </g>
    </g>
  </g>
</svg>
