<svg width="24" height="24" viewBox="0 0 24 24" fill="none" xmlns="http://www.w3.org/2000/svg">
<g clip-path="url(#clip0)">
<path fill-rule="evenodd" clip-rule="evenodd" d="M0.00378127 0.563183C-0.0764005 0.771819 1.11187 2.07409 4.21224 5.17664L8.53224 9.49936L5.24315 11.8407C3.1486 13.3315 1.95215 14.2975 1.94942 14.5001C1.94151 15.0477 11.8715 14.9801 12.5741 14.4275L13.0704 14.0373L18.1232 19.0876C21.0935 22.0565 23.2595 24.0865 23.3787 24.0128C23.5208 23.925 23.5811 22.1165 23.5811 17.9474V12.0068L21.9477 10.3666L20.3143 8.72618L20.8562 8.36318C21.3829 8.01027 21.3984 7.95846 21.3987 6.53182C21.3992 5.20091 21.4418 5.02336 21.8539 4.63636C22.104 4.40155 22.3085 4.06009 22.3085 3.87736C22.3085 3.34146 17.0348 3.37664 16.3481 3.91718L15.8754 4.28864L13.8619 2.28082L11.8481 0.272728H5.98169C0.775327 0.272728 0.102509 0.305455 0.00378127 0.563183ZM11.3994 6.18191C11.3994 8.93182 11.3784 11.1818 11.3525 11.1818C11.3269 11.1818 9.05696 8.93182 6.30842 6.18191L1.31096 1.18173H6.35505H11.3994V6.18191ZM15.0357 4.54555L17.8494 7.36364H14.988H12.1265V4.54555C12.1265 2.99536 12.1481 1.72718 12.1742 1.72718C12.2004 1.72718 13.4882 2.99536 15.0357 4.54555ZM20.6721 4.41436C20.6721 4.49236 20.1581 5.06536 19.5302 5.68773L18.3883 6.81955L17.4221 5.84127L16.4558 4.863L16.8771 4.56791C17.3211 4.25673 20.6721 4.12118 20.6721 4.41436ZM20.6721 6.63627V7.36364H19.908H19.1438L19.854 6.63627C20.2445 6.23646 20.5884 5.90918 20.6181 5.90918C20.6479 5.90918 20.6721 6.23646 20.6721 6.63627ZM16.0715 10.8183C14.0203 12.3183 12.2934 13.5455 12.2342 13.5455C12.1751 13.5455 12.1265 12.3183 12.1265 10.8183V8.091H15.9638H19.8013L16.0715 10.8183ZM20.7684 11.8707C19.9153 11.8996 18.5231 11.8996 17.6743 11.8707L16.1312 11.8181L17.9015 10.5134L19.6721 9.20864L20.9956 10.5134L22.3194 11.8181L20.7684 11.8707ZM11.3994 13.2221V14.091H7.54469C5.12396 14.091 3.7546 14.0269 3.86287 13.9192C3.95805 13.8245 5.18124 12.9295 6.58115 11.9299L9.12651 10.1125L10.263 11.2328C11.3421 12.2967 11.3994 12.3968 11.3994 13.2221ZM22.854 17.6804V22.7245L18.3011 18.1805L13.7481 13.6364L14.3394 13.1365L14.931 12.6363H18.8923H22.854V17.6804Z" fill="white"/>
</g>
<defs>
<clipPath id="clip0">
<rect width="24" height="24" fill="white"/>
</clipPath>
</defs>
</svg>
