<svg width="544" height="177" viewBox="0 0 544 177" fill="none" xmlns="http://www.w3.org/2000/svg">
<path d="M544 169C544 173.418 540.418 177 536 177L8.00001 177C3.58173 177 3.7542e-07 173.418 8.38523e-07 169L1.77138e-05 8C1.81769e-05 3.58172 3.58174 6.37111e-06 8.00002 6.69328e-06L536 4.5193e-05C540.418 4.55152e-05 544 3.58177 544 8.00005L544 169Z" fill="#012E39"/>
<path d="M29.994 64.92C30.99 64.92 31.776 65.25 32.352 65.91C32.928 66.57 33.216 67.464 33.216 68.592V71.49C33.216 72.63 32.928 73.53 32.352 74.19C31.776 74.85 30.99 75.18 29.994 75.18C29.25 75.18 28.632 74.994 28.14 74.622C27.66 74.25 27.378 73.746 27.294 73.11H27.24L27.276 75.36V78.24H25.656V65.1H27.276V66.99H27.294C27.378 66.342 27.66 65.838 28.14 65.478C28.632 65.106 29.25 64.92 29.994 64.92ZM31.596 68.7C31.596 67.932 31.41 67.344 31.038 66.936C30.666 66.528 30.138 66.324 29.454 66.324C28.782 66.324 28.248 66.534 27.852 66.954C27.468 67.374 27.276 67.956 27.276 68.7V71.4C27.276 72.144 27.468 72.726 27.852 73.146C28.248 73.566 28.782 73.776 29.454 73.776C30.138 73.776 30.666 73.572 31.038 73.164C31.41 72.756 31.596 72.168 31.596 71.4V68.7ZM41.363 75C40.487 75 39.785 74.748 39.257 74.244C38.741 73.728 38.483 73.05 38.483 72.21V63.336H35.513V61.86H40.103V72.21C40.103 72.618 40.217 72.942 40.445 73.182C40.673 73.41 40.979 73.524 41.363 73.524H44.693V75H41.363ZM50.9679 75.18C49.8279 75.18 48.9159 74.838 48.2319 74.154C47.5479 73.47 47.2059 72.552 47.2059 71.4V65.1H48.8259V71.4C48.8259 72.144 49.0119 72.726 49.3839 73.146C49.7679 73.554 50.2959 73.758 50.9679 73.758C51.6519 73.758 52.1859 73.554 52.5699 73.146C52.9539 72.726 53.1459 72.144 53.1459 71.4V65.1H54.7659V71.4C54.7659 72.552 54.4179 73.47 53.7219 74.154C53.0379 74.838 52.1199 75.18 50.9679 75.18ZM63.9389 65.1H65.5049V75.36C65.5049 76.26 65.2289 76.962 64.6769 77.466C64.1369 77.982 63.3809 78.24 62.4089 78.24H59.2769V76.764H62.4269C62.9309 76.764 63.2969 76.65 63.5249 76.422C63.7649 76.194 63.8849 75.84 63.8849 75.36V74.1L63.9389 72.84H63.7049C63.5489 73.332 63.2549 73.71 62.8229 73.974C62.3909 74.238 61.8509 74.37 61.2029 74.37C60.2069 74.37 59.4149 74.04 58.8269 73.38C58.2509 72.72 57.9629 71.82 57.9629 70.68V68.592C57.9629 67.464 58.2509 66.57 58.8269 65.91C59.4149 65.25 60.2069 64.92 61.2029 64.92C61.8509 64.92 62.3909 65.052 62.8229 65.316C63.2549 65.58 63.5489 65.958 63.7049 66.45H63.9389V65.1ZM63.9029 68.7C63.9029 67.956 63.7109 67.374 63.3269 66.954C62.9429 66.534 62.4149 66.324 61.7429 66.324C61.0589 66.324 60.5249 66.534 60.1409 66.954C59.7689 67.362 59.5829 67.944 59.5829 68.7V70.59C59.5829 71.346 59.7689 71.934 60.1409 72.354C60.5249 72.762 61.0589 72.966 61.7429 72.966C62.4149 72.966 62.9429 72.756 63.3269 72.336C63.7109 71.916 63.9029 71.334 63.9029 70.59V68.7ZM72.5719 63.39C72.2119 63.39 71.9239 63.294 71.7079 63.102C71.5039 62.91 71.4019 62.652 71.4019 62.328C71.4019 62.004 71.5099 61.74 71.7259 61.536C71.9419 61.332 72.2239 61.23 72.5719 61.23H72.9319C73.2799 61.23 73.5619 61.332 73.7779 61.536C73.9939 61.74 74.1019 62.004 74.1019 62.328C74.1019 62.652 73.9939 62.91 73.7779 63.102C73.5619 63.294 73.2799 63.39 72.9319 63.39H72.5719ZM77.0719 75H68.6119V73.524H72.1219V66.576H69.0619V65.1H73.7419V73.524H77.0719V75ZM83.8868 64.92C84.8828 64.92 85.6748 65.232 86.2628 65.856C86.8508 66.468 87.1448 67.296 87.1448 68.34V75H85.5248V68.52C85.5248 67.824 85.3328 67.278 84.9488 66.882C84.5768 66.486 84.0668 66.288 83.4188 66.288C82.7348 66.288 82.2008 66.504 81.8168 66.936C81.4328 67.356 81.2408 67.944 81.2408 68.7V75H79.6208V65.1H81.2408V66.99H81.2588C81.3428 66.33 81.6128 65.82 82.0688 65.46C82.5248 65.1 83.1308 64.92 83.8868 64.92ZM93.7618 75.18C92.7538 75.18 91.9438 74.946 91.3318 74.478C90.7318 74.01 90.3838 73.374 90.2878 72.57H91.9078C91.9798 72.93 92.1778 73.218 92.5018 73.434C92.8258 73.638 93.2458 73.74 93.7618 73.74H94.5178C95.1418 73.74 95.6098 73.608 95.9218 73.344C96.2458 73.08 96.4078 72.726 96.4078 72.282C96.4078 71.466 95.8498 70.968 94.7338 70.788L93.4018 70.572C92.4178 70.416 91.6918 70.116 91.2238 69.672C90.7558 69.216 90.5218 68.574 90.5218 67.746C90.5218 66.846 90.8098 66.15 91.3858 65.658C91.9618 65.166 92.8018 64.92 93.9058 64.92H94.5898C95.5258 64.92 96.2818 65.148 96.8578 65.604C97.4458 66.048 97.7998 66.654 97.9198 67.422H96.2998C96.2278 67.098 96.0418 66.84 95.7418 66.648C95.4418 66.456 95.0578 66.36 94.5898 66.36H93.9058C92.7298 66.36 92.1418 66.828 92.1418 67.764C92.1418 68.16 92.2558 68.46 92.4838 68.664C92.7238 68.856 93.1078 68.994 93.6358 69.078L94.9678 69.294C96.0358 69.462 96.8098 69.774 97.2898 70.23C97.7818 70.686 98.0278 71.346 98.0278 72.21C98.0278 73.146 97.7278 73.878 97.1278 74.406C96.5398 74.922 95.6698 75.18 94.5178 75.18H93.7618Z" fill="#B787B8"/>
<path d="M118.804 61.5C118.228 61.5 117.79 61.632 117.49 61.896C117.202 62.16 117.07 62.544 117.094 63.048L117.274 66C117.31 66.684 117.166 67.248 116.842 67.692C116.53 68.136 116.074 68.412 115.474 68.52C116.074 68.628 116.53 68.91 116.842 69.366C117.166 69.81 117.31 70.368 117.274 71.04L117.094 73.992C117.07 74.496 117.202 74.88 117.49 75.144C117.79 75.408 118.228 75.54 118.804 75.54H119.614V76.98H118.804C117.736 76.98 116.902 76.716 116.302 76.188C115.702 75.66 115.426 74.928 115.474 73.992L115.654 71.04C115.678 70.596 115.642 70.248 115.546 69.996C115.462 69.732 115.288 69.54 115.024 69.42C114.76 69.3 114.37 69.24 113.854 69.24H111.874V67.8H113.854C114.37 67.8 114.76 67.74 115.024 67.62C115.288 67.5 115.462 67.314 115.546 67.062C115.642 66.81 115.678 66.456 115.654 66L115.474 63.048C115.426 62.112 115.702 61.38 116.302 60.852C116.902 60.324 117.736 60.06 118.804 60.06H119.614V61.5H118.804ZM83.9408 91.26H82.6088L82.3928 88.56V85.86H84.1388V88.56L83.9408 91.26ZM94.1578 99.18C92.9818 99.18 92.0518 98.844 91.3678 98.172C90.6838 97.5 90.3418 96.576 90.3418 95.4V92.7C90.3418 91.524 90.6838 90.6 91.3678 89.928C92.0518 89.256 92.9818 88.92 94.1578 88.92C95.3338 88.92 96.2638 89.256 96.9478 89.928C97.6318 90.6 97.9738 91.518 97.9738 92.682V95.4C97.9738 96.576 97.6318 97.5 96.9478 98.172C96.2638 98.844 95.3338 99.18 94.1578 99.18ZM94.1578 97.74C94.8658 97.74 95.4058 97.542 95.7778 97.146C96.1618 96.738 96.3538 96.156 96.3538 95.4V92.7C96.3538 91.944 96.1618 91.368 95.7778 90.972C95.4058 90.564 94.8658 90.36 94.1578 90.36C93.4498 90.36 92.9038 90.564 92.5198 90.972C92.1478 91.368 91.9618 91.944 91.9618 92.7V95.4C91.9618 96.156 92.1478 96.738 92.5198 97.146C92.9038 97.542 93.4498 97.74 94.1578 97.74ZM105.743 88.92C106.787 88.92 107.615 89.25 108.227 89.91C108.851 90.558 109.163 91.44 109.163 92.556V93.15H107.543V92.7C107.543 91.932 107.351 91.338 106.967 90.918C106.595 90.498 106.061 90.288 105.365 90.288C104.681 90.288 104.141 90.504 103.745 90.936C103.361 91.356 103.169 91.944 103.169 92.7V99H101.549V89.1H103.133V90.864C103.457 89.568 104.327 88.92 105.743 88.92ZM117.904 89.1H119.47V99.36C119.47 100.26 119.194 100.962 118.642 101.466C118.102 101.982 117.346 102.24 116.374 102.24H113.242V100.764H116.392C116.896 100.764 117.262 100.65 117.49 100.422C117.73 100.194 117.85 99.84 117.85 99.36V98.1L117.904 96.84H117.67C117.514 97.332 117.22 97.71 116.788 97.974C116.356 98.238 115.816 98.37 115.168 98.37C114.172 98.37 113.38 98.04 112.792 97.38C112.216 96.72 111.928 95.82 111.928 94.68V92.592C111.928 91.464 112.216 90.57 112.792 89.91C113.38 89.25 114.172 88.92 115.168 88.92C115.816 88.92 116.356 89.052 116.788 89.316C117.22 89.58 117.514 89.958 117.67 90.45H117.904V89.1ZM117.868 92.7C117.868 91.956 117.676 91.374 117.292 90.954C116.908 90.534 116.38 90.324 115.708 90.324C115.024 90.324 114.49 90.534 114.106 90.954C113.734 91.362 113.548 91.944 113.548 92.7V94.59C113.548 95.346 113.734 95.934 114.106 96.354C114.49 96.762 115.024 96.966 115.708 96.966C116.38 96.966 116.908 96.756 117.292 96.336C117.676 95.916 117.868 95.334 117.868 94.59V92.7ZM126.357 99.18C125.973 99.18 125.649 99.042 125.385 98.766C125.133 98.49 125.007 98.148 125.007 97.74C125.007 97.332 125.133 96.99 125.385 96.714C125.649 96.438 125.973 96.3 126.357 96.3H126.717C127.101 96.3 127.419 96.438 127.671 96.714C127.935 96.99 128.067 97.332 128.067 97.74C128.067 98.148 127.935 98.49 127.671 98.766C127.419 99.042 127.101 99.18 126.717 99.18H126.357ZM139.49 89.1H141.056V99.36C141.056 100.26 140.78 100.962 140.228 101.466C139.688 101.982 138.932 102.24 137.96 102.24H134.828V100.764H137.978C138.482 100.764 138.848 100.65 139.076 100.422C139.316 100.194 139.436 99.84 139.436 99.36V98.1L139.49 96.84H139.256C139.1 97.332 138.806 97.71 138.374 97.974C137.942 98.238 137.402 98.37 136.754 98.37C135.758 98.37 134.966 98.04 134.378 97.38C133.802 96.72 133.514 95.82 133.514 94.68V92.592C133.514 91.464 133.802 90.57 134.378 89.91C134.966 89.25 135.758 88.92 136.754 88.92C137.402 88.92 137.942 89.052 138.374 89.316C138.806 89.58 139.1 89.958 139.256 90.45H139.49V89.1ZM139.454 92.7C139.454 91.956 139.262 91.374 138.878 90.954C138.494 90.534 137.966 90.324 137.294 90.324C136.61 90.324 136.076 90.534 135.692 90.954C135.32 91.362 135.134 91.944 135.134 92.7V94.59C135.134 95.346 135.32 95.934 135.692 96.354C136.076 96.762 136.61 96.966 137.294 96.966C137.966 96.966 138.494 96.756 138.878 96.336C139.262 95.916 139.454 95.334 139.454 94.59V92.7ZM148.915 88.92C149.959 88.92 150.787 89.25 151.399 89.91C152.023 90.558 152.335 91.44 152.335 92.556V93.15H150.715V92.7C150.715 91.932 150.523 91.338 150.139 90.918C149.767 90.498 149.233 90.288 148.537 90.288C147.853 90.288 147.313 90.504 146.917 90.936C146.533 91.356 146.341 91.944 146.341 92.7V99H144.721V89.1H146.305V90.864C146.629 89.568 147.499 88.92 148.915 88.92ZM158.952 88.938C160.104 88.938 161.016 89.232 161.688 89.82C162.36 90.396 162.696 91.188 162.696 92.196V99H161.112V97.11H161.094C161.046 97.734 160.734 98.238 160.158 98.622C159.582 98.994 158.862 99.18 157.998 99.18C156.99 99.18 156.186 98.916 155.586 98.388C154.986 97.86 154.686 97.146 154.686 96.246C154.686 95.298 154.98 94.554 155.568 94.014C156.168 93.474 156.984 93.204 158.016 93.204H161.076V92.25C161.076 91.65 160.884 91.188 160.5 90.864C160.128 90.528 159.606 90.36 158.934 90.36C158.346 90.36 157.86 90.48 157.476 90.72C157.092 90.96 156.87 91.29 156.81 91.71H155.19C155.298 90.87 155.694 90.198 156.378 89.694C157.062 89.19 157.92 88.938 158.952 88.938ZM158.376 97.902C159.168 97.902 159.816 97.716 160.32 97.344C160.824 96.96 161.076 96.462 161.076 95.85V94.446H158.052C157.512 94.446 157.086 94.596 156.774 94.896C156.462 95.196 156.306 95.61 156.306 96.138C156.306 96.69 156.492 97.122 156.864 97.434C157.236 97.746 157.74 97.902 158.376 97.902ZM169.745 88.938C170.897 88.938 171.809 89.232 172.481 89.82C173.153 90.396 173.489 91.188 173.489 92.196V99H171.905V97.11H171.887C171.839 97.734 171.527 98.238 170.951 98.622C170.375 98.994 169.655 99.18 168.791 99.18C167.783 99.18 166.979 98.916 166.379 98.388C165.779 97.86 165.479 97.146 165.479 96.246C165.479 95.298 165.773 94.554 166.361 94.014C166.961 93.474 167.777 93.204 168.809 93.204H171.869V92.25C171.869 91.65 171.677 91.188 171.293 90.864C170.921 90.528 170.399 90.36 169.727 90.36C169.139 90.36 168.653 90.48 168.269 90.72C167.885 90.96 167.663 91.29 167.603 91.71H165.983C166.091 90.87 166.487 90.198 167.171 89.694C167.855 89.19 168.713 88.938 169.745 88.938ZM169.169 97.902C169.961 97.902 170.609 97.716 171.113 97.344C171.617 96.96 171.869 96.462 171.869 95.85V94.446H168.845C168.305 94.446 167.879 94.596 167.567 94.896C167.255 95.196 167.099 95.61 167.099 96.138C167.099 96.69 167.285 97.122 167.657 97.434C168.029 97.746 168.533 97.902 169.169 97.902ZM181.672 99C180.796 99 180.094 98.748 179.566 98.244C179.05 97.728 178.792 97.05 178.792 96.21V87.336H175.822V85.86H180.412V96.21C180.412 96.618 180.526 96.942 180.754 97.182C180.982 97.41 181.288 97.524 181.672 97.524H185.002V99H181.672ZM190.197 99L186.975 89.1H188.631L190.737 95.76C190.953 96.444 191.151 97.11 191.331 97.758C191.511 97.11 191.709 96.444 191.925 95.76L193.977 89.1H195.615L192.393 99H190.197ZM204.338 88.92C204.95 88.92 205.43 89.154 205.777 89.622C206.126 90.078 206.3 90.696 206.3 91.476V99H204.806V91.458C204.806 91.05 204.716 90.732 204.536 90.504C204.368 90.276 204.116 90.162 203.78 90.162C203.456 90.162 203.198 90.276 203.006 90.504C202.826 90.72 202.736 91.032 202.736 91.44V99H201.439V91.458C201.439 91.05 201.344 90.732 201.152 90.504C200.972 90.276 200.714 90.162 200.378 90.162C200.054 90.162 199.802 90.276 199.622 90.504C199.454 90.72 199.37 91.032 199.37 91.44V99H197.875V89.1H199.298V90.288H199.406C199.478 89.868 199.652 89.538 199.928 89.298C200.216 89.046 200.576 88.92 201.008 88.92C201.416 88.92 201.758 89.04 202.034 89.28C202.31 89.508 202.508 89.844 202.628 90.288H202.7C202.784 89.868 202.97 89.538 203.258 89.298C203.546 89.046 203.906 88.92 204.338 88.92ZM212.7 99.18C212.316 99.18 211.992 99.042 211.728 98.766C211.476 98.49 211.35 98.148 211.35 97.74C211.35 97.332 211.476 96.99 211.728 96.714C211.992 96.438 212.316 96.3 212.7 96.3H213.06C213.444 96.3 213.762 96.438 214.014 96.714C214.278 96.99 214.41 97.332 214.41 97.74C214.41 98.148 214.278 98.49 214.014 98.766C213.762 99.042 213.444 99.18 213.06 99.18H212.7ZM224.249 88.92C225.245 88.92 226.031 89.25 226.607 89.91C227.195 90.57 227.489 91.47 227.489 92.61V95.508C227.489 96.636 227.195 97.53 226.607 98.19C226.031 98.85 225.245 99.18 224.249 99.18C223.505 99.18 222.893 99 222.413 98.64C221.933 98.268 221.651 97.758 221.567 97.11H221.549V99H219.929V85.86H221.549V88.74L221.513 90.99H221.567C221.663 90.354 221.951 89.85 222.431 89.478C222.911 89.106 223.517 88.92 224.249 88.92ZM225.869 92.7C225.869 91.944 225.677 91.362 225.293 90.954C224.921 90.534 224.393 90.324 223.709 90.324C223.037 90.324 222.509 90.534 222.125 90.954C221.741 91.374 221.549 91.956 221.549 92.7V95.4C221.549 96.144 221.741 96.726 222.125 97.146C222.509 97.566 223.037 97.776 223.709 97.776C224.393 97.776 224.921 97.572 225.293 97.164C225.677 96.744 225.869 96.156 225.869 95.4V92.7ZM234.448 99.18C233.308 99.18 232.396 98.838 231.712 98.154C231.028 97.47 230.686 96.552 230.686 95.4V89.1H232.306V95.4C232.306 96.144 232.492 96.726 232.864 97.146C233.248 97.554 233.776 97.758 234.448 97.758C235.132 97.758 235.666 97.554 236.05 97.146C236.434 96.726 236.626 96.144 236.626 95.4V89.1H238.246V95.4C238.246 96.552 237.898 97.47 237.202 98.154C236.518 98.838 235.6 99.18 234.448 99.18ZM245.259 87.39C244.899 87.39 244.611 87.294 244.395 87.102C244.191 86.91 244.089 86.652 244.089 86.328C244.089 86.004 244.197 85.74 244.413 85.536C244.629 85.332 244.911 85.23 245.259 85.23H245.619C245.967 85.23 246.249 85.332 246.465 85.536C246.681 85.74 246.789 86.004 246.789 86.328C246.789 86.652 246.681 86.91 246.465 87.102C246.249 87.294 245.967 87.39 245.619 87.39H245.259ZM249.759 99H241.299V97.524H244.809V90.576H241.749V89.1H246.429V97.524H249.759V99ZM257.222 99C256.346 99 255.644 98.748 255.116 98.244C254.6 97.728 254.342 97.05 254.342 96.21V87.336H251.372V85.86H255.962V96.21C255.962 96.618 256.076 96.942 256.304 97.182C256.532 97.41 256.838 97.524 257.222 97.524H260.552V99H257.222ZM268.969 85.86H270.589V99H268.969V97.11H268.951C268.867 97.758 268.585 98.268 268.105 98.64C267.625 99 267.013 99.18 266.269 99.18C265.273 99.18 264.481 98.85 263.893 98.19C263.317 97.53 263.029 96.636 263.029 95.508V92.61C263.029 91.47 263.317 90.57 263.893 89.91C264.481 89.25 265.273 88.92 266.269 88.92C267.001 88.92 267.607 89.106 268.087 89.478C268.567 89.85 268.855 90.354 268.951 90.99H269.005L268.969 88.74V85.86ZM268.969 92.7C268.969 91.956 268.777 91.374 268.393 90.954C268.009 90.534 267.481 90.324 266.809 90.324C266.125 90.324 265.591 90.534 265.207 90.954C264.835 91.362 264.649 91.944 264.649 92.7V95.4C264.649 96.156 264.835 96.744 265.207 97.164C265.591 97.572 266.125 97.776 266.809 97.776C267.481 97.776 268.009 97.566 268.393 97.146C268.777 96.726 268.969 96.144 268.969 95.4V92.7ZM278.718 99C277.866 99 277.2 98.772 276.72 98.316C276.252 97.86 276.018 97.218 276.018 96.39V90.576H273.228V89.1H276.018V86.4H277.638V89.1H281.598V90.576H277.638V96.39C277.638 96.774 277.722 97.062 277.89 97.254C278.07 97.434 278.346 97.524 278.718 97.524H281.418V99H278.718ZM288.431 99.18C287.255 99.18 286.325 98.844 285.641 98.172C284.957 97.5 284.615 96.576 284.615 95.4V92.7C284.615 91.524 284.957 90.6 285.641 89.928C286.325 89.256 287.255 88.92 288.431 88.92C289.607 88.92 290.537 89.256 291.221 89.928C291.905 90.6 292.247 91.518 292.247 92.682V95.4C292.247 96.576 291.905 97.5 291.221 98.172C290.537 98.844 289.607 99.18 288.431 99.18ZM288.431 97.74C289.139 97.74 289.679 97.542 290.051 97.146C290.435 96.738 290.627 96.156 290.627 95.4V92.7C290.627 91.944 290.435 91.368 290.051 90.972C289.679 90.564 289.139 90.36 288.431 90.36C287.723 90.36 287.177 90.564 286.793 90.972C286.421 91.368 286.235 91.944 286.235 92.7V95.4C286.235 96.156 286.421 96.738 286.793 97.146C287.177 97.542 287.723 97.74 288.431 97.74ZM299.224 99.18C298.048 99.18 297.118 98.844 296.434 98.172C295.75 97.5 295.408 96.576 295.408 95.4V92.7C295.408 91.524 295.75 90.6 296.434 89.928C297.118 89.256 298.048 88.92 299.224 88.92C300.4 88.92 301.33 89.256 302.014 89.928C302.698 90.6 303.04 91.518 303.04 92.682V95.4C303.04 96.576 302.698 97.5 302.014 98.172C301.33 98.844 300.4 99.18 299.224 99.18ZM299.224 97.74C299.932 97.74 300.472 97.542 300.844 97.146C301.228 96.738 301.42 96.156 301.42 95.4V92.7C301.42 91.944 301.228 91.368 300.844 90.972C300.472 90.564 299.932 90.36 299.224 90.36C298.516 90.36 297.97 90.564 297.586 90.972C297.214 91.368 297.028 91.944 297.028 92.7V95.4C297.028 96.156 297.214 96.738 297.586 97.146C297.97 97.542 298.516 97.74 299.224 97.74ZM311.187 99C310.311 99 309.609 98.748 309.081 98.244C308.565 97.728 308.307 97.05 308.307 96.21V87.336H305.337V85.86H309.927V96.21C309.927 96.618 310.041 96.942 310.269 97.182C310.497 97.41 310.803 97.524 311.187 97.524H314.517V99H311.187ZM320.414 99.18C319.406 99.18 318.596 98.946 317.984 98.478C317.384 98.01 317.036 97.374 316.94 96.57H318.56C318.632 96.93 318.83 97.218 319.154 97.434C319.478 97.638 319.898 97.74 320.414 97.74H321.17C321.794 97.74 322.262 97.608 322.574 97.344C322.898 97.08 323.06 96.726 323.06 96.282C323.06 95.466 322.502 94.968 321.386 94.788L320.054 94.572C319.07 94.416 318.344 94.116 317.876 93.672C317.408 93.216 317.174 92.574 317.174 91.746C317.174 90.846 317.462 90.15 318.038 89.658C318.614 89.166 319.454 88.92 320.558 88.92H321.242C322.178 88.92 322.934 89.148 323.51 89.604C324.098 90.048 324.452 90.654 324.572 91.422H322.952C322.88 91.098 322.694 90.84 322.394 90.648C322.094 90.456 321.71 90.36 321.242 90.36H320.558C319.382 90.36 318.794 90.828 318.794 91.764C318.794 92.16 318.908 92.46 319.136 92.664C319.376 92.856 319.76 92.994 320.288 93.078L321.62 93.294C322.688 93.462 323.462 93.774 323.942 94.23C324.434 94.686 324.68 95.346 324.68 96.21C324.68 97.146 324.38 97.878 323.78 98.406C323.192 98.922 322.322 99.18 321.17 99.18H320.414ZM331.423 99.18C331.039 99.18 330.715 99.042 330.451 98.766C330.199 98.49 330.073 98.148 330.073 97.74C330.073 97.332 330.199 96.99 330.451 96.714C330.715 96.438 331.039 96.3 331.423 96.3H331.783C332.167 96.3 332.485 96.438 332.737 96.714C333.001 96.99 333.133 97.332 333.133 97.74C333.133 98.148 333.001 98.49 332.737 98.766C332.485 99.042 332.167 99.18 331.783 99.18H331.423ZM342.918 88.92C343.914 88.92 344.706 89.232 345.294 89.856C345.882 90.468 346.176 91.296 346.176 92.34V99H344.556V92.52C344.556 91.824 344.364 91.278 343.98 90.882C343.608 90.486 343.098 90.288 342.45 90.288C341.766 90.288 341.232 90.504 340.848 90.936C340.464 91.356 340.272 91.944 340.272 92.7V99H338.652V89.1H340.272V90.99H340.29C340.374 90.33 340.644 89.82 341.1 89.46C341.556 89.1 342.162 88.92 342.918 88.92ZM353.225 88.938C354.377 88.938 355.289 89.232 355.961 89.82C356.633 90.396 356.969 91.188 356.969 92.196V99H355.385V97.11H355.367C355.319 97.734 355.007 98.238 354.431 98.622C353.855 98.994 353.135 99.18 352.271 99.18C351.263 99.18 350.459 98.916 349.859 98.388C349.259 97.86 348.959 97.146 348.959 96.246C348.959 95.298 349.253 94.554 349.841 94.014C350.441 93.474 351.257 93.204 352.289 93.204H355.349V92.25C355.349 91.65 355.157 91.188 354.773 90.864C354.401 90.528 353.879 90.36 353.207 90.36C352.619 90.36 352.133 90.48 351.749 90.72C351.365 90.96 351.143 91.29 351.083 91.71H349.463C349.571 90.87 349.967 90.198 350.651 89.694C351.335 89.19 352.193 88.938 353.225 88.938ZM352.649 97.902C353.441 97.902 354.089 97.716 354.593 97.344C355.097 96.96 355.349 96.462 355.349 95.85V94.446H352.325C351.785 94.446 351.359 94.596 351.047 94.896C350.735 95.196 350.579 95.61 350.579 96.138C350.579 96.69 350.765 97.122 351.137 97.434C351.509 97.746 352.013 97.902 352.649 97.902ZM365.062 99C364.21 99 363.544 98.772 363.064 98.316C362.596 97.86 362.362 97.218 362.362 96.39V90.576H359.572V89.1H362.362V86.4H363.982V89.1H367.942V90.576H363.982V96.39C363.982 96.774 364.066 97.062 364.234 97.254C364.414 97.434 364.69 97.524 365.062 97.524H367.762V99H365.062ZM374.775 87.39C374.415 87.39 374.127 87.294 373.911 87.102C373.707 86.91 373.605 86.652 373.605 86.328C373.605 86.004 373.713 85.74 373.929 85.536C374.145 85.332 374.427 85.23 374.775 85.23H375.135C375.483 85.23 375.765 85.332 375.981 85.536C376.197 85.74 376.305 86.004 376.305 86.328C376.305 86.652 376.197 86.91 375.981 87.102C375.765 87.294 375.483 87.39 375.135 87.39H374.775ZM379.275 99H370.815V97.524H374.325V90.576H371.265V89.1H375.945V97.524H379.275V99ZM384.47 99L381.248 89.1H382.904L385.01 95.76C385.226 96.444 385.424 97.11 385.604 97.758C385.784 97.11 385.982 96.444 386.198 95.76L388.25 89.1H389.888L386.666 99H384.47ZM400.177 94.446H394.129V95.4C394.129 96.192 394.315 96.792 394.687 97.2C395.071 97.608 395.629 97.812 396.361 97.812C397.621 97.812 398.341 97.368 398.521 96.48H400.141C400.033 97.308 399.637 97.968 398.953 98.46C398.269 98.94 397.405 99.18 396.361 99.18C395.197 99.18 394.267 98.838 393.571 98.154C392.887 97.47 392.545 96.552 392.545 95.4V92.7C392.545 91.548 392.887 90.63 393.571 89.946C394.267 89.262 395.197 88.92 396.361 88.92C397.525 88.92 398.449 89.262 399.133 89.946C399.829 90.63 400.177 91.548 400.177 92.7V94.446ZM394.129 93.222H398.593V92.7C398.593 91.908 398.401 91.308 398.017 90.9C397.645 90.48 397.093 90.27 396.361 90.27C395.629 90.27 395.071 90.48 394.687 90.9C394.315 91.308 394.129 91.908 394.129 92.7V93.222ZM407.73 91.26H406.398L406.182 88.56V85.86H407.928V88.56L407.73 91.26ZM427.642 99L424.42 89.1H426.076L428.182 95.76C428.398 96.444 428.596 97.11 428.776 97.758C428.956 97.11 429.154 96.444 429.37 95.76L431.422 89.1H433.06L429.838 99H427.642ZM443.349 94.446H437.301V95.4C437.301 96.192 437.487 96.792 437.859 97.2C438.243 97.608 438.801 97.812 439.533 97.812C440.793 97.812 441.513 97.368 441.693 96.48H443.313C443.205 97.308 442.809 97.968 442.125 98.46C441.441 98.94 440.577 99.18 439.533 99.18C438.369 99.18 437.439 98.838 436.743 98.154C436.059 97.47 435.717 96.552 435.717 95.4V92.7C435.717 91.548 436.059 90.63 436.743 89.946C437.439 89.262 438.369 88.92 439.533 88.92C440.697 88.92 441.621 89.262 442.305 89.946C443.001 90.63 443.349 91.548 443.349 92.7V94.446ZM437.301 93.222H441.765V92.7C441.765 91.908 441.573 91.308 441.189 90.9C440.817 90.48 440.265 90.27 439.533 90.27C438.801 90.27 438.243 90.48 437.859 90.9C437.487 91.308 437.301 91.908 437.301 92.7V93.222ZM451.118 88.92C452.162 88.92 452.99 89.25 453.602 89.91C454.226 90.558 454.538 91.44 454.538 92.556V93.15H452.918V92.7C452.918 91.932 452.726 91.338 452.342 90.918C451.97 90.498 451.436 90.288 450.74 90.288C450.056 90.288 449.516 90.504 449.12 90.936C448.736 91.356 448.544 91.944 448.544 92.7V99H446.924V89.1H448.508V90.864C448.832 89.568 449.702 88.92 451.118 88.92ZM460.723 99.18C459.715 99.18 458.905 98.946 458.293 98.478C457.693 98.01 457.345 97.374 457.249 96.57H458.869C458.941 96.93 459.139 97.218 459.463 97.434C459.787 97.638 460.207 97.74 460.723 97.74H461.479C462.103 97.74 462.571 97.608 462.883 97.344C463.207 97.08 463.369 96.726 463.369 96.282C463.369 95.466 462.811 94.968 461.695 94.788L460.363 94.572C459.379 94.416 458.653 94.116 458.185 93.672C457.717 93.216 457.483 92.574 457.483 91.746C457.483 90.846 457.771 90.15 458.347 89.658C458.923 89.166 459.763 88.92 460.867 88.92H461.551C462.487 88.92 463.243 89.148 463.819 89.604C464.407 90.048 464.761 90.654 464.881 91.422H463.261C463.189 91.098 463.003 90.84 462.703 90.648C462.403 90.456 462.019 90.36 461.551 90.36H460.867C459.691 90.36 459.103 90.828 459.103 91.764C459.103 92.16 459.217 92.46 459.445 92.664C459.685 92.856 460.069 92.994 460.597 93.078L461.929 93.294C462.997 93.462 463.771 93.774 464.251 94.23C464.743 94.686 464.989 95.346 464.989 96.21C464.989 97.146 464.689 97.878 464.089 98.406C463.501 98.922 462.631 99.18 461.479 99.18H460.723ZM471.912 87.39C471.552 87.39 471.264 87.294 471.048 87.102C470.844 86.91 470.742 86.652 470.742 86.328C470.742 86.004 470.85 85.74 471.066 85.536C471.282 85.332 471.564 85.23 471.912 85.23H472.272C472.62 85.23 472.902 85.332 473.118 85.536C473.334 85.74 473.442 86.004 473.442 86.328C473.442 86.652 473.334 86.91 473.118 87.102C472.902 87.294 472.62 87.39 472.272 87.39H471.912ZM476.412 99H467.952V97.524H471.462V90.576H468.402V89.1H473.082V97.524H476.412V99ZM482.705 99.18C481.529 99.18 480.599 98.844 479.915 98.172C479.231 97.5 478.889 96.576 478.889 95.4V92.7C478.889 91.524 479.231 90.6 479.915 89.928C480.599 89.256 481.529 88.92 482.705 88.92C483.881 88.92 484.811 89.256 485.495 89.928C486.179 90.6 486.521 91.518 486.521 92.682V95.4C486.521 96.576 486.179 97.5 485.495 98.172C484.811 98.844 483.881 99.18 482.705 99.18ZM482.705 97.74C483.413 97.74 483.953 97.542 484.325 97.146C484.709 96.738 484.901 96.156 484.901 95.4V92.7C484.901 91.944 484.709 91.368 484.325 90.972C483.953 90.564 483.413 90.36 482.705 90.36C481.997 90.36 481.451 90.564 481.067 90.972C480.695 91.368 480.509 91.944 480.509 92.7V95.4C480.509 96.156 480.695 96.738 481.067 97.146C481.451 97.542 481.997 97.74 482.705 97.74ZM494.02 88.92C495.016 88.92 495.808 89.232 496.396 89.856C496.984 90.468 497.278 91.296 497.278 92.34V99H495.658V92.52C495.658 91.824 495.466 91.278 495.082 90.882C494.71 90.486 494.2 90.288 493.552 90.288C492.868 90.288 492.334 90.504 491.95 90.936C491.566 91.356 491.374 91.944 491.374 92.7V99H489.754V89.1H491.374V90.99H491.392C491.476 90.33 491.746 89.82 492.202 89.46C492.658 89.1 493.264 88.92 494.02 88.92ZM29.976 115.26H28.644L28.428 112.56V109.86H30.174V112.56L29.976 115.26ZM40.193 123.18C38.981 123.18 38.015 122.832 37.295 122.136C36.587 121.428 36.233 120.486 36.233 119.31V113.55C36.233 112.374 36.587 111.438 37.295 110.742C38.015 110.034 38.981 109.68 40.193 109.68C41.405 109.68 42.365 110.034 43.073 110.742C43.793 111.438 44.153 112.374 44.153 113.55V119.31C44.153 120.486 43.793 121.428 43.073 122.136C42.353 122.832 41.393 123.18 40.193 123.18ZM40.193 121.794C40.913 121.794 41.489 121.566 41.921 121.11C42.365 120.642 42.587 120.042 42.587 119.31V113.55C42.587 112.818 42.365 112.224 41.921 111.768C41.489 111.3 40.913 111.066 40.193 111.066C39.473 111.066 38.891 111.3 38.447 111.768C38.015 112.224 37.799 112.818 37.799 113.55V119.31C37.799 120.042 38.015 120.642 38.447 121.11C38.891 121.566 39.473 121.794 40.193 121.794ZM40.193 117.51C39.929 117.51 39.713 117.42 39.545 117.24C39.377 117.06 39.293 116.82 39.293 116.52V116.25C39.293 115.95 39.377 115.71 39.545 115.53C39.713 115.35 39.929 115.26 40.193 115.26C40.469 115.26 40.685 115.35 40.841 115.53C41.009 115.71 41.093 115.95 41.093 116.25V116.52C41.093 116.82 41.009 117.06 40.841 117.24C40.685 117.42 40.469 117.51 40.193 117.51ZM50.8059 123.18C50.4219 123.18 50.0979 123.042 49.8339 122.766C49.5819 122.49 49.4559 122.148 49.4559 121.74C49.4559 121.332 49.5819 120.99 49.8339 120.714C50.0979 120.438 50.4219 120.3 50.8059 120.3H51.1659C51.5499 120.3 51.8679 120.438 52.1199 120.714C52.3839 120.99 52.5159 121.332 52.5159 121.74C52.5159 122.148 52.3839 122.49 52.1199 122.766C51.8679 123.042 51.5499 123.18 51.1659 123.18H50.8059ZM59.7449 123L63.4709 117.024L63.3989 116.97C63.1709 117.306 62.8589 117.564 62.4629 117.744C62.0669 117.924 61.6229 118.014 61.1309 118.014C60.0629 118.014 59.2049 117.642 58.5569 116.898C57.9209 116.154 57.6029 115.158 57.6029 113.91C57.6029 113.07 57.7709 112.332 58.1069 111.696C58.4549 111.06 58.9409 110.568 59.5649 110.22C60.2009 109.86 60.9329 109.68 61.7609 109.68C62.5889 109.68 63.3209 109.86 63.9569 110.22C64.5929 110.568 65.0849 111.06 65.4329 111.696C65.7809 112.332 65.9549 113.07 65.9549 113.91C65.9549 115.254 65.5829 116.514 64.8389 117.69L61.5449 123H59.7449ZM61.7789 116.7C62.5469 116.7 63.1649 116.448 63.6329 115.944C64.1009 115.428 64.3349 114.75 64.3349 113.91C64.3349 113.07 64.1009 112.398 63.6329 111.894C63.1649 111.378 62.5469 111.12 61.7789 111.12C61.0109 111.12 60.3929 111.378 59.9249 111.894C59.4569 112.398 59.2229 113.07 59.2229 113.91C59.2229 114.75 59.4569 115.428 59.9249 115.944C60.3929 116.448 61.0109 116.7 61.7789 116.7ZM72.3919 123.18C72.0079 123.18 71.6839 123.042 71.4199 122.766C71.1679 122.49 71.0419 122.148 71.0419 121.74C71.0419 121.332 71.1679 120.99 71.4199 120.714C71.6839 120.438 72.0079 120.3 72.3919 120.3H72.7519C73.1359 120.3 73.4539 120.438 73.7059 120.714C73.9699 120.99 74.1019 121.332 74.1019 121.74C74.1019 122.148 73.9699 122.49 73.7059 122.766C73.4539 123.042 73.1359 123.18 72.7519 123.18H72.3919ZM86.9648 123H85.3448V120.12H79.4048V117.582L84.6068 109.86H86.3708L81.0248 117.924V118.644H85.3448V115.44H86.9648V123ZM94.7338 115.26H93.4018L93.1858 112.56V109.86H94.9318V112.56L94.7338 115.26ZM33.27 139.8V141.24H31.29C30.774 141.24 30.384 141.3 30.12 141.42C29.856 141.54 29.676 141.732 29.58 141.996C29.496 142.248 29.466 142.596 29.49 143.04L29.67 145.992C29.718 146.928 29.442 147.66 28.842 148.188C28.242 148.716 27.408 148.98 26.34 148.98H25.53V147.54H26.34C26.916 147.54 27.348 147.408 27.636 147.144C27.936 146.88 28.074 146.496 28.05 145.992L27.87 143.04C27.834 142.368 27.972 141.81 28.284 141.366C28.608 140.91 29.07 140.628 29.67 140.52C29.07 140.412 28.608 140.136 28.284 139.692C27.972 139.248 27.834 138.684 27.87 138L28.05 135.048C28.074 134.544 27.936 134.16 27.636 133.896C27.348 133.632 26.916 133.5 26.34 133.5H25.53V132.06H26.34C27.408 132.06 28.242 132.324 28.842 132.852C29.442 133.38 29.718 134.112 29.67 135.048L29.49 138C29.466 138.456 29.496 138.81 29.58 139.062C29.676 139.314 29.856 139.5 30.12 139.62C30.384 139.74 30.774 139.8 31.29 139.8H33.27Z" fill="white"/>
<path d="M50.9859 87.39C50.6259 87.39 50.3379 87.294 50.1219 87.102C49.9179 86.91 49.8159 86.652 49.8159 86.328C49.8159 86.004 49.9239 85.74 50.1399 85.536C50.3559 85.332 50.6379 85.23 50.9859 85.23H51.3459C51.6939 85.23 51.9759 85.332 52.1919 85.536C52.4079 85.74 52.5159 86.004 52.5159 86.328C52.5159 86.652 52.4079 86.91 52.1919 87.102C51.9759 87.294 51.6939 87.39 51.3459 87.39H50.9859ZM55.4859 99H47.0259V97.524H50.5359V90.576H47.4759V89.1H52.1559V97.524H55.4859V99ZM63.9029 85.86H65.5229V99H63.9029V97.11H63.8849C63.8009 97.758 63.5189 98.268 63.0389 98.64C62.5589 99 61.9469 99.18 61.2029 99.18C60.2069 99.18 59.4149 98.85 58.8269 98.19C58.2509 97.53 57.9629 96.636 57.9629 95.508V92.61C57.9629 91.47 58.2509 90.57 58.8269 89.91C59.4149 89.25 60.2069 88.92 61.2029 88.92C61.9349 88.92 62.5409 89.106 63.0209 89.478C63.5009 89.85 63.7889 90.354 63.8849 90.99H63.9389L63.9029 88.74V85.86ZM63.9029 92.7C63.9029 91.956 63.7109 91.374 63.3269 90.954C62.9429 90.534 62.4149 90.324 61.7429 90.324C61.0589 90.324 60.5249 90.534 60.1409 90.954C59.7689 91.362 59.5829 91.944 59.5829 92.7V95.4C59.5829 96.156 59.7689 96.744 60.1409 97.164C60.5249 97.572 61.0589 97.776 61.7429 97.776C62.4149 97.776 62.9429 97.566 63.3269 97.146C63.7109 96.726 63.9029 96.144 63.9029 95.4V92.7Z" fill="#EB8178"/>
<path d="M25.62 42V28.86H27.78L31.794 40.11C31.674 38.67 31.614 37.38 31.614 36.24V28.86H33.18V42H31.02L27.024 30.75C27.132 32.19 27.186 33.48 27.186 34.62V42H25.62ZM43.703 42H36.683V40.542H39.365V30.318H36.683V28.86H43.703V30.318H41.021V40.542H43.703V42ZM62.3729 31.92C63.3689 31.92 64.1549 32.25 64.7309 32.91C65.3069 33.57 65.5949 34.464 65.5949 35.592V38.49C65.5949 39.63 65.3069 40.53 64.7309 41.19C64.1549 41.85 63.3689 42.18 62.3729 42.18C61.6289 42.18 61.0109 41.994 60.5189 41.622C60.0389 41.25 59.7569 40.746 59.6729 40.11H59.6189L59.6549 42.36V45.24H58.0349V32.1H59.6549V33.99H59.6729C59.7569 33.342 60.0389 32.838 60.5189 32.478C61.0109 32.106 61.6289 31.92 62.3729 31.92ZM63.9749 35.7C63.9749 34.932 63.7889 34.344 63.4169 33.936C63.0449 33.528 62.5169 33.324 61.8329 33.324C61.1609 33.324 60.6269 33.534 60.2309 33.954C59.8469 34.374 59.6549 34.956 59.6549 35.7V38.4C59.6549 39.144 59.8469 39.726 60.2309 40.146C60.6269 40.566 61.1609 40.776 61.8329 40.776C62.5169 40.776 63.0449 40.572 63.4169 40.164C63.7889 39.756 63.9749 39.168 63.9749 38.4V35.7ZM73.7419 42C72.8659 42 72.1639 41.748 71.6359 41.244C71.1199 40.728 70.8619 40.05 70.8619 39.21V30.336H67.8919V28.86H72.4819V39.21C72.4819 39.618 72.5959 39.942 72.8239 40.182C73.0519 40.41 73.3579 40.524 73.7419 40.524H77.0719V42H73.7419ZM83.3468 42.18C82.2068 42.18 81.2948 41.838 80.6108 41.154C79.9268 40.47 79.5848 39.552 79.5848 38.4V32.1H81.2048V38.4C81.2048 39.144 81.3908 39.726 81.7628 40.146C82.1468 40.554 82.6748 40.758 83.3468 40.758C84.0308 40.758 84.5648 40.554 84.9488 40.146C85.3328 39.726 85.5248 39.144 85.5248 38.4V32.1H87.1448V38.4C87.1448 39.552 86.7968 40.47 86.1008 41.154C85.4168 41.838 84.4988 42.18 83.3468 42.18ZM96.3178 32.1H97.8838V42.36C97.8838 43.26 97.6078 43.962 97.0558 44.466C96.5158 44.982 95.7598 45.24 94.7878 45.24H91.6558V43.764H94.8058C95.3098 43.764 95.6758 43.65 95.9038 43.422C96.1438 43.194 96.2638 42.84 96.2638 42.36V41.1L96.3178 39.84H96.0838C95.9278 40.332 95.6338 40.71 95.2018 40.974C94.7698 41.238 94.2298 41.37 93.5818 41.37C92.5858 41.37 91.7938 41.04 91.2058 40.38C90.6298 39.72 90.3418 38.82 90.3418 37.68V35.592C90.3418 34.464 90.6298 33.57 91.2058 32.91C91.7938 32.25 92.5858 31.92 93.5818 31.92C94.2298 31.92 94.7698 32.052 95.2018 32.316C95.6338 32.58 95.9278 32.958 96.0838 33.45H96.3178V32.1ZM96.2818 35.7C96.2818 34.956 96.0898 34.374 95.7058 33.954C95.3218 33.534 94.7938 33.324 94.1218 33.324C93.4378 33.324 92.9038 33.534 92.5198 33.954C92.1478 34.362 91.9618 34.944 91.9618 35.7V37.59C91.9618 38.346 92.1478 38.934 92.5198 39.354C92.9038 39.762 93.4378 39.966 94.1218 39.966C94.7938 39.966 95.3218 39.756 95.7058 39.336C96.0898 38.916 96.2818 38.334 96.2818 37.59V35.7ZM104.951 30.39C104.591 30.39 104.303 30.294 104.087 30.102C103.883 29.91 103.781 29.652 103.781 29.328C103.781 29.004 103.889 28.74 104.105 28.536C104.321 28.332 104.603 28.23 104.951 28.23H105.311C105.659 28.23 105.941 28.332 106.157 28.536C106.373 28.74 106.481 29.004 106.481 29.328C106.481 29.652 106.373 29.91 106.157 30.102C105.941 30.294 105.659 30.39 105.311 30.39H104.951ZM109.451 42H100.991V40.524H104.501V33.576H101.441V32.1H106.121V40.524H109.451V42ZM116.266 31.92C117.262 31.92 118.054 32.232 118.642 32.856C119.23 33.468 119.524 34.296 119.524 35.34V42H117.904V35.52C117.904 34.824 117.712 34.278 117.328 33.882C116.956 33.486 116.446 33.288 115.798 33.288C115.114 33.288 114.58 33.504 114.196 33.936C113.812 34.356 113.62 34.944 113.62 35.7V42H112V32.1H113.62V33.99H113.638C113.722 33.33 113.992 32.82 114.448 32.46C114.904 32.1 115.51 31.92 116.266 31.92ZM137.33 30.39C136.97 30.39 136.682 30.294 136.466 30.102C136.262 29.91 136.16 29.652 136.16 29.328C136.16 29.004 136.268 28.74 136.484 28.536C136.7 28.332 136.982 28.23 137.33 28.23H137.69C138.038 28.23 138.32 28.332 138.536 28.536C138.752 28.74 138.86 29.004 138.86 29.328C138.86 29.652 138.752 29.91 138.536 30.102C138.32 30.294 138.038 30.39 137.69 30.39H137.33ZM141.83 42H133.37V40.524H136.88V33.576H133.82V32.1H138.5V40.524H141.83V42ZM148.645 31.92C149.641 31.92 150.433 32.232 151.021 32.856C151.609 33.468 151.903 34.296 151.903 35.34V42H150.283V35.52C150.283 34.824 150.091 34.278 149.707 33.882C149.335 33.486 148.825 33.288 148.177 33.288C147.493 33.288 146.959 33.504 146.575 33.936C146.191 34.356 145.999 34.944 145.999 35.7V42H144.379V32.1H145.999V33.99H146.017C146.101 33.33 146.371 32.82 146.827 32.46C147.283 32.1 147.889 31.92 148.645 31.92ZM170.285 31.92C171.281 31.92 172.067 32.25 172.643 32.91C173.231 33.57 173.525 34.47 173.525 35.61V38.508C173.525 39.636 173.231 40.53 172.643 41.19C172.067 41.85 171.281 42.18 170.285 42.18C169.541 42.18 168.929 42 168.449 41.64C167.969 41.268 167.687 40.758 167.603 40.11H167.585V42H165.965V28.86H167.585V31.74L167.549 33.99H167.603C167.699 33.354 167.987 32.85 168.467 32.478C168.947 32.106 169.553 31.92 170.285 31.92ZM171.905 35.7C171.905 34.944 171.713 34.362 171.329 33.954C170.957 33.534 170.429 33.324 169.745 33.324C169.073 33.324 168.545 33.534 168.161 33.954C167.777 34.374 167.585 34.956 167.585 35.7V38.4C167.585 39.144 167.777 39.726 168.161 40.146C168.545 40.566 169.073 40.776 169.745 40.776C170.429 40.776 170.957 40.572 171.329 40.164C171.713 39.744 171.905 39.156 171.905 38.4V35.7ZM180.484 42.18C179.344 42.18 178.432 41.838 177.748 41.154C177.064 40.47 176.722 39.552 176.722 38.4V32.1H178.342V38.4C178.342 39.144 178.528 39.726 178.9 40.146C179.284 40.554 179.812 40.758 180.484 40.758C181.168 40.758 181.702 40.554 182.086 40.146C182.47 39.726 182.662 39.144 182.662 38.4V32.1H184.282V38.4C184.282 39.552 183.934 40.47 183.238 41.154C182.554 41.838 181.636 42.18 180.484 42.18ZM191.295 30.39C190.935 30.39 190.647 30.294 190.431 30.102C190.227 29.91 190.125 29.652 190.125 29.328C190.125 29.004 190.233 28.74 190.449 28.536C190.665 28.332 190.947 28.23 191.295 28.23H191.655C192.003 28.23 192.285 28.332 192.501 28.536C192.717 28.74 192.825 29.004 192.825 29.328C192.825 29.652 192.717 29.91 192.501 30.102C192.285 30.294 192.003 30.39 191.655 30.39H191.295ZM195.795 42H187.335V40.524H190.845V33.576H187.785V32.1H192.465V40.524H195.795V42ZM203.258 42C202.382 42 201.68 41.748 201.152 41.244C200.636 40.728 200.378 40.05 200.378 39.21V30.336H197.408V28.86H201.998V39.21C201.998 39.618 202.112 39.942 202.34 40.182C202.568 40.41 202.874 40.524 203.258 40.524H206.588V42H203.258ZM215.004 28.86H216.624V42H215.004V40.11H214.986C214.902 40.758 214.62 41.268 214.14 41.64C213.66 42 213.048 42.18 212.304 42.18C211.308 42.18 210.516 41.85 209.928 41.19C209.352 40.53 209.064 39.636 209.064 38.508V35.61C209.064 34.47 209.352 33.57 209.928 32.91C210.516 32.25 211.308 31.92 212.304 31.92C213.036 31.92 213.642 32.106 214.122 32.478C214.602 32.85 214.89 33.354 214.986 33.99H215.04L215.004 31.74V28.86ZM215.004 35.7C215.004 34.956 214.812 34.374 214.428 33.954C214.044 33.534 213.516 33.324 212.844 33.324C212.16 33.324 211.626 33.534 211.242 33.954C210.87 34.362 210.684 34.944 210.684 35.7V38.4C210.684 39.156 210.87 39.744 211.242 40.164C211.626 40.572 212.16 40.776 212.844 40.776C213.516 40.776 214.044 40.566 214.428 40.146C214.812 39.726 215.004 39.144 215.004 38.4V35.7ZM223.493 42.18C223.109 42.18 222.785 42.042 222.521 41.766C222.269 41.49 222.143 41.148 222.143 40.74C222.143 40.332 222.269 39.99 222.521 39.714C222.785 39.438 223.109 39.3 223.493 39.3H223.853C224.237 39.3 224.555 39.438 224.807 39.714C225.071 39.99 225.203 40.332 225.203 40.74C225.203 41.148 225.071 41.49 224.807 41.766C224.555 42.042 224.237 42.18 223.853 42.18H223.493ZM236.626 32.1H238.192V42.36C238.192 43.26 237.916 43.962 237.364 44.466C236.824 44.982 236.068 45.24 235.096 45.24H231.964V43.764H235.114C235.618 43.764 235.984 43.65 236.212 43.422C236.452 43.194 236.572 42.84 236.572 42.36V41.1L236.626 39.84H236.392C236.236 40.332 235.942 40.71 235.51 40.974C235.078 41.238 234.538 41.37 233.89 41.37C232.894 41.37 232.102 41.04 231.514 40.38C230.938 39.72 230.65 38.82 230.65 37.68V35.592C230.65 34.464 230.938 33.57 231.514 32.91C232.102 32.25 232.894 31.92 233.89 31.92C234.538 31.92 235.078 32.052 235.51 32.316C235.942 32.58 236.236 32.958 236.392 33.45H236.626V32.1ZM236.59 35.7C236.59 34.956 236.398 34.374 236.014 33.954C235.63 33.534 235.102 33.324 234.43 33.324C233.746 33.324 233.212 33.534 232.828 33.954C232.456 34.362 232.27 34.944 232.27 35.7V37.59C232.27 38.346 232.456 38.934 232.828 39.354C233.212 39.762 233.746 39.966 234.43 39.966C235.102 39.966 235.63 39.756 236.014 39.336C236.398 38.916 236.59 38.334 236.59 37.59V35.7ZM246.051 31.92C247.095 31.92 247.923 32.25 248.535 32.91C249.159 33.558 249.471 34.44 249.471 35.556V36.15H247.851V35.7C247.851 34.932 247.659 34.338 247.275 33.918C246.903 33.498 246.369 33.288 245.673 33.288C244.989 33.288 244.449 33.504 244.053 33.936C243.669 34.356 243.477 34.944 243.477 35.7V42H241.857V32.1H243.441V33.864C243.765 32.568 244.635 31.92 246.051 31.92ZM256.088 31.938C257.24 31.938 258.152 32.232 258.824 32.82C259.496 33.396 259.832 34.188 259.832 35.196V42H258.248V40.11H258.23C258.182 40.734 257.87 41.238 257.294 41.622C256.718 41.994 255.998 42.18 255.134 42.18C254.126 42.18 253.322 41.916 252.722 41.388C252.122 40.86 251.822 40.146 251.822 39.246C251.822 38.298 252.116 37.554 252.704 37.014C253.304 36.474 254.12 36.204 255.152 36.204H258.212V35.25C258.212 34.65 258.02 34.188 257.636 33.864C257.264 33.528 256.742 33.36 256.07 33.36C255.482 33.36 254.996 33.48 254.612 33.72C254.228 33.96 254.006 34.29 253.946 34.71H252.326C252.434 33.87 252.83 33.198 253.514 32.694C254.198 32.19 255.056 31.938 256.088 31.938ZM255.512 40.902C256.304 40.902 256.952 40.716 257.456 40.344C257.96 39.96 258.212 39.462 258.212 38.85V37.446H255.188C254.648 37.446 254.222 37.596 253.91 37.896C253.598 38.196 253.442 38.61 253.442 39.138C253.442 39.69 253.628 40.122 254 40.434C254.372 40.746 254.876 40.902 255.512 40.902ZM268.969 28.86H270.589V42H268.969V40.11H268.951C268.867 40.758 268.585 41.268 268.105 41.64C267.625 42 267.013 42.18 266.269 42.18C265.273 42.18 264.481 41.85 263.893 41.19C263.317 40.53 263.029 39.636 263.029 38.508V35.61C263.029 34.47 263.317 33.57 263.893 32.91C264.481 32.25 265.273 31.92 266.269 31.92C267.001 31.92 267.607 32.106 268.087 32.478C268.567 32.85 268.855 33.354 268.951 33.99H269.005L268.969 31.74V28.86ZM268.969 35.7C268.969 34.956 268.777 34.374 268.393 33.954C268.009 33.534 267.481 33.324 266.809 33.324C266.125 33.324 265.591 33.534 265.207 33.954C264.835 34.362 264.649 34.944 264.649 35.7V38.4C264.649 39.156 264.835 39.744 265.207 40.164C265.591 40.572 266.125 40.776 266.809 40.776C267.481 40.776 268.009 40.566 268.393 40.146C268.777 39.726 268.969 39.144 268.969 38.4V35.7ZM278.808 42C277.932 42 277.23 41.748 276.702 41.244C276.186 40.728 275.928 40.05 275.928 39.21V30.336H272.958V28.86H277.548V39.21C277.548 39.618 277.662 39.942 277.89 40.182C278.118 40.41 278.424 40.524 278.808 40.524H282.138V42H278.808ZM292.247 37.446H286.199V38.4C286.199 39.192 286.385 39.792 286.757 40.2C287.141 40.608 287.699 40.812 288.431 40.812C289.691 40.812 290.411 40.368 290.591 39.48H292.211C292.103 40.308 291.707 40.968 291.023 41.46C290.339 41.94 289.475 42.18 288.431 42.18C287.267 42.18 286.337 41.838 285.641 41.154C284.957 40.47 284.615 39.552 284.615 38.4V35.7C284.615 34.548 284.957 33.63 285.641 32.946C286.337 32.262 287.267 31.92 288.431 31.92C289.595 31.92 290.519 32.262 291.203 32.946C291.899 33.63 292.247 34.548 292.247 35.7V37.446ZM286.199 36.222H290.663V35.7C290.663 34.908 290.471 34.308 290.087 33.9C289.715 33.48 289.163 33.27 288.431 33.27C287.699 33.27 287.141 33.48 286.757 33.9C286.385 34.308 286.199 34.908 286.199 35.7V36.222ZM299.044 34.62C298.648 34.62 298.324 34.494 298.072 34.242C297.82 33.99 297.694 33.666 297.694 33.27C297.694 32.886 297.82 32.568 298.072 32.316C298.336 32.052 298.66 31.92 299.044 31.92H299.404C299.788 31.92 300.106 32.052 300.358 32.316C300.622 32.568 300.754 32.886 300.754 33.27C300.754 33.666 300.628 33.99 300.376 34.242C300.124 34.494 299.8 34.62 299.404 34.62H299.044ZM299.044 42.18C298.648 42.18 298.324 42.054 298.072 41.802C297.82 41.55 297.694 41.226 297.694 40.83C297.694 40.446 297.82 40.128 298.072 39.876C298.336 39.612 298.66 39.48 299.044 39.48H299.404C299.788 39.48 300.106 39.612 300.358 39.876C300.622 40.128 300.754 40.446 300.754 40.83C300.754 41.226 300.628 41.55 300.376 41.802C300.124 42.054 299.8 42.18 299.404 42.18H299.044Z" fill="white"/>
</svg>
