<svg width="544" height="216" viewBox="0 0 544 216" fill="none" xmlns="http://www.w3.org/2000/svg">
<g clip-path="url(#clip0_1542:33281)">
<rect width="544" height="216" rx="8" fill="white"/>
<path d="M544 208C544 212.418 540.418 216 536 216L8.00001 216C3.58173 216 4.04491e-07 212.418 9.03456e-07 208L2.34898e-05 7.99999C2.39888e-05 3.58171 3.58175 -6.05557e-06 8.00002 -5.75656e-06L536 2.99762e-05C540.418 3.02752e-05 544 3.58175 544 8.00003L544 208Z" fill="#012E39"/>
<path d="M26.775 41H25.425V30.035H31.875V31.265H26.745V34.925H31.485V36.155H26.775V41ZM34.3741 41V30.05H37.7641C38.4041 30.05 38.9691 30.185 39.4591 30.455C39.9591 30.715 40.3441 31.085 40.6141 31.565C40.8841 32.035 41.0191 32.58 41.0191 33.2C41.0191 33.94 40.8241 34.575 40.4341 35.105C40.0541 35.635 39.5341 36 38.8741 36.2L41.1691 41H39.5791L37.4791 36.35H35.7241V41H34.3741ZM37.7641 35.15C38.3241 35.15 38.7741 34.975 39.1141 34.625C39.4541 34.265 39.6241 33.79 39.6241 33.2C39.6241 32.62 39.4541 32.15 39.1141 31.79C38.7741 31.43 38.3241 31.25 37.7641 31.25H35.7241V35.15H37.7641ZM46.4883 41.15C45.5083 41.15 44.7333 40.87 44.1633 40.31C43.5933 39.75 43.3083 38.98 43.3083 38V33.05C43.3083 32.07 43.5933 31.3 44.1633 30.74C44.7333 30.18 45.5083 29.9 46.4883 29.9C47.4683 29.9 48.2433 30.18 48.8133 30.74C49.3833 31.3 49.6683 32.065 49.6683 33.035V38C49.6683 38.98 49.3833 39.75 48.8133 40.31C48.2433 40.87 47.4683 41.15 46.4883 41.15ZM46.4883 39.95C47.0783 39.95 47.5283 39.785 47.8383 39.455C48.1583 39.115 48.3183 38.63 48.3183 38V33.05C48.3183 32.42 48.1583 31.94 47.8383 31.61C47.5283 31.27 47.0783 31.1 46.4883 31.1C45.8983 31.1 45.4433 31.27 45.1233 31.61C44.8133 31.94 44.6583 32.42 44.6583 33.05V38C44.6583 38.63 44.8133 39.115 45.1233 39.455C45.4433 39.785 45.8983 39.95 46.4883 39.95ZM52.1224 41V30.05H53.8924L55.0324 33.59C55.2124 34.15 55.3774 34.71 55.5274 35.27C55.6674 34.71 55.8224 34.145 55.9924 33.575L57.0724 30.05H58.8424V41H57.5224V37.025C57.5224 36.195 57.5674 35.21 57.6574 34.07C57.7474 32.92 57.8574 31.805 57.9874 30.725L56.2174 36.2H54.7924L53.0074 30.725C53.1274 31.765 53.2274 32.855 53.3074 33.995C53.3974 35.135 53.4424 36.145 53.4424 37.025V41H52.1224ZM75.2707 32.75H76.5757V41.3C76.5757 42.05 76.3457 42.635 75.8857 43.055C75.4357 43.485 74.8057 43.7 73.9957 43.7H71.3857V42.47H74.0107C74.4307 42.47 74.7357 42.375 74.9257 42.185C75.1257 41.995 75.2257 41.7 75.2257 41.3V40.25L75.2707 39.2H75.0757C74.9457 39.61 74.7007 39.925 74.3407 40.145C73.9807 40.365 73.5307 40.475 72.9907 40.475C72.1607 40.475 71.5007 40.2 71.0107 39.65C70.5307 39.1 70.2907 38.35 70.2907 37.4V35.66C70.2907 34.72 70.5307 33.975 71.0107 33.425C71.5007 32.875 72.1607 32.6 72.9907 32.6C73.5307 32.6 73.9807 32.71 74.3407 32.93C74.7007 33.15 74.9457 33.465 75.0757 33.875H75.2707V32.75ZM75.2407 35.75C75.2407 35.13 75.0807 34.645 74.7607 34.295C74.4407 33.945 74.0007 33.77 73.4407 33.77C72.8707 33.77 72.4257 33.945 72.1057 34.295C71.7957 34.635 71.6407 35.12 71.6407 35.75V37.325C71.6407 37.955 71.7957 38.445 72.1057 38.795C72.4257 39.135 72.8707 39.305 73.4407 39.305C74.0007 39.305 74.4407 39.13 74.7607 38.78C75.0807 38.43 75.2407 37.945 75.2407 37.325V35.75ZM82.5248 41.15C81.5248 41.15 80.7348 40.87 80.1548 40.31C79.5748 39.75 79.2848 38.98 79.2848 38V35.75C79.2848 34.77 79.5748 34 80.1548 33.44C80.7348 32.88 81.5248 32.6 82.5248 32.6C83.4748 32.6 84.2398 32.855 84.8198 33.365C85.3998 33.875 85.7048 34.57 85.7348 35.45H84.3848C84.3548 34.93 84.1748 34.525 83.8448 34.235C83.5248 33.945 83.0848 33.8 82.5248 33.8C81.9348 33.8 81.4698 33.97 81.1298 34.31C80.7998 34.65 80.6348 35.125 80.6348 35.735V38C80.6348 38.62 80.7998 39.1 81.1298 39.44C81.4598 39.78 81.9248 39.95 82.5248 39.95C83.0848 39.95 83.5248 39.805 83.8448 39.515C84.1748 39.225 84.3548 38.82 84.3848 38.3H85.7348C85.7048 39.18 85.3998 39.875 84.8198 40.385C84.2398 40.895 83.4748 41.15 82.5248 41.15ZM92.119 32.6C92.989 32.6 93.679 32.875 94.189 33.425C94.709 33.965 94.969 34.7 94.969 35.63V36.125H93.619V35.75C93.619 35.11 93.459 34.615 93.139 34.265C92.829 33.915 92.384 33.74 91.804 33.74C91.234 33.74 90.784 33.92 90.454 34.28C90.134 34.63 89.974 35.12 89.974 35.75V41H88.624V32.75H89.944V34.22C90.214 33.14 90.939 32.6 92.119 32.6ZM100.303 41.15C99.9831 41.15 99.7131 41.035 99.4931 40.805C99.2831 40.575 99.1781 40.29 99.1781 39.95C99.1781 39.61 99.2831 39.325 99.4931 39.095C99.7131 38.865 99.9831 38.75 100.303 38.75H100.603C100.923 38.75 101.188 38.865 101.398 39.095C101.618 39.325 101.728 39.61 101.728 39.95C101.728 40.29 101.618 40.575 101.398 40.805C101.188 41.035 100.923 41.15 100.603 41.15H100.303ZM109.447 31.325C109.147 31.325 108.907 31.245 108.727 31.085C108.557 30.925 108.472 30.71 108.472 30.44C108.472 30.17 108.562 29.95 108.742 29.78C108.922 29.61 109.157 29.525 109.447 29.525H109.747C110.037 29.525 110.272 29.61 110.452 29.78C110.632 29.95 110.722 30.17 110.722 30.44C110.722 30.71 110.632 30.925 110.452 31.085C110.272 31.245 110.037 31.325 109.747 31.325H109.447ZM113.197 41H106.147V39.77H109.072V33.98H106.522V32.75H110.422V39.77H113.197V41ZM118.441 41.15C117.461 41.15 116.686 40.87 116.116 40.31C115.546 39.75 115.261 38.98 115.261 38V35.75C115.261 34.77 115.546 34 116.116 33.44C116.686 32.88 117.461 32.6 118.441 32.6C119.421 32.6 120.196 32.88 120.766 33.44C121.336 34 121.621 34.765 121.621 35.735V38C121.621 38.98 121.336 39.75 120.766 40.31C120.196 40.87 119.421 41.15 118.441 41.15ZM118.441 39.95C119.031 39.95 119.481 39.785 119.791 39.455C120.111 39.115 120.271 38.63 120.271 38V35.75C120.271 35.12 120.111 34.64 119.791 34.31C119.481 33.97 119.031 33.8 118.441 33.8C117.851 33.8 117.396 33.97 117.076 34.31C116.766 34.64 116.611 35.12 116.611 35.75V38C116.611 38.63 116.766 39.115 117.076 39.455C117.396 39.785 117.851 39.95 118.441 39.95ZM125.486 42.65H124.061L129.386 28.55H130.811L125.486 42.65ZM138.2 30.05H139.55V41H138.2V39.425H138.185C138.115 39.965 137.88 40.39 137.48 40.7C137.08 41 136.57 41.15 135.95 41.15C135.12 41.15 134.46 40.875 133.97 40.325C133.49 39.775 133.25 39.03 133.25 38.09V35.675C133.25 34.725 133.49 33.975 133.97 33.425C134.46 32.875 135.12 32.6 135.95 32.6C136.56 32.6 137.065 32.755 137.465 33.065C137.865 33.375 138.105 33.795 138.185 34.325H138.23L138.2 32.45V30.05ZM138.2 35.75C138.2 35.13 138.04 34.645 137.72 34.295C137.4 33.945 136.96 33.77 136.4 33.77C135.83 33.77 135.385 33.945 135.065 34.295C134.755 34.635 134.6 35.12 134.6 35.75V38C134.6 38.63 134.755 39.12 135.065 39.47C135.385 39.81 135.83 39.98 136.4 39.98C136.96 39.98 137.4 39.805 137.72 39.455C138.04 39.105 138.2 38.62 138.2 38V35.75ZM145.424 31.325C145.124 31.325 144.884 31.245 144.704 31.085C144.534 30.925 144.449 30.71 144.449 30.44C144.449 30.17 144.539 29.95 144.719 29.78C144.899 29.61 145.134 29.525 145.424 29.525H145.724C146.014 29.525 146.249 29.61 146.429 29.78C146.609 29.95 146.699 30.17 146.699 30.44C146.699 30.71 146.609 30.925 146.429 31.085C146.249 31.245 146.014 31.325 145.724 31.325H145.424ZM149.174 41H142.124V39.77H145.049V33.98H142.499V32.75H146.399V39.77H149.174V41ZM154.088 41.15C153.248 41.15 152.573 40.955 152.063 40.565C151.563 40.175 151.273 39.645 151.193 38.975H152.543C152.603 39.275 152.768 39.515 153.038 39.695C153.308 39.865 153.658 39.95 154.088 39.95H154.718C155.238 39.95 155.628 39.84 155.888 39.62C156.158 39.4 156.293 39.105 156.293 38.735C156.293 38.055 155.828 37.64 154.898 37.49L153.788 37.31C152.968 37.18 152.363 36.93 151.973 36.56C151.583 36.18 151.388 35.645 151.388 34.955C151.388 34.205 151.628 33.625 152.108 33.215C152.588 32.805 153.288 32.6 154.208 32.6H154.778C155.558 32.6 156.188 32.79 156.668 33.17C157.158 33.54 157.453 34.045 157.553 34.685H156.203C156.143 34.415 155.988 34.2 155.738 34.04C155.488 33.88 155.168 33.8 154.778 33.8H154.208C153.228 33.8 152.738 34.19 152.738 34.97C152.738 35.3 152.833 35.55 153.023 35.72C153.223 35.88 153.543 35.995 153.983 36.065L155.093 36.245C155.983 36.385 156.628 36.645 157.028 37.025C157.438 37.405 157.643 37.955 157.643 38.675C157.643 39.455 157.393 40.065 156.893 40.505C156.403 40.935 155.678 41.15 154.718 41.15H154.088ZM164.312 41C163.602 41 163.047 40.81 162.647 40.43C162.257 40.05 162.062 39.515 162.062 38.825V33.98H159.737V32.75H162.062V30.5H163.412V32.75H166.712V33.98H163.412V38.825C163.412 39.145 163.482 39.385 163.622 39.545C163.772 39.695 164.002 39.77 164.312 39.77H166.562V41H164.312ZM173.066 32.6C173.936 32.6 174.626 32.875 175.136 33.425C175.656 33.965 175.916 34.7 175.916 35.63V36.125H174.566V35.75C174.566 35.11 174.406 34.615 174.086 34.265C173.776 33.915 173.331 33.74 172.751 33.74C172.181 33.74 171.731 33.92 171.401 34.28C171.081 34.63 170.921 35.12 170.921 35.75V41H169.571V32.75H170.891V34.22C171.161 33.14 171.886 32.6 173.066 32.6ZM181.4 41.15C180.42 41.15 179.645 40.87 179.075 40.31C178.505 39.75 178.22 38.98 178.22 38V35.75C178.22 34.77 178.505 34 179.075 33.44C179.645 32.88 180.42 32.6 181.4 32.6C182.38 32.6 183.155 32.88 183.725 33.44C184.295 34 184.58 34.765 184.58 35.735V38C184.58 38.98 184.295 39.75 183.725 40.31C183.155 40.87 182.38 41.15 181.4 41.15ZM181.4 39.95C181.99 39.95 182.44 39.785 182.75 39.455C183.07 39.115 183.23 38.63 183.23 38V35.75C183.23 35.12 183.07 34.64 182.75 34.31C182.44 33.97 181.99 33.8 181.4 33.8C180.81 33.8 180.355 33.97 180.035 34.31C179.725 34.64 179.57 35.12 179.57 35.75V38C179.57 38.63 179.725 39.115 180.035 39.455C180.355 39.785 180.81 39.95 181.4 39.95ZM191.37 41C190.64 41 190.055 40.79 189.615 40.37C189.185 39.94 188.97 39.375 188.97 38.675V31.28H186.495V30.05H190.32V38.675C190.32 39.015 190.415 39.285 190.605 39.485C190.795 39.675 191.05 39.77 191.37 39.77H194.145V41H191.37ZM202.569 37.205H197.529V38C197.529 38.66 197.684 39.16 197.994 39.5C198.314 39.84 198.779 40.01 199.389 40.01C200.439 40.01 201.039 39.64 201.189 38.9H202.539C202.449 39.59 202.119 40.14 201.549 40.55C200.979 40.95 200.259 41.15 199.389 41.15C198.419 41.15 197.644 40.865 197.064 40.295C196.494 39.725 196.209 38.96 196.209 38V35.75C196.209 34.79 196.494 34.025 197.064 33.455C197.644 32.885 198.419 32.6 199.389 32.6C200.359 32.6 201.129 32.885 201.699 33.455C202.279 34.025 202.569 34.79 202.569 35.75V37.205ZM197.529 36.185H201.249V35.75C201.249 35.09 201.089 34.59 200.769 34.25C200.459 33.9 199.999 33.725 199.389 33.725C198.779 33.725 198.314 33.9 197.994 34.25C197.684 34.59 197.529 35.09 197.529 35.75V36.185ZM208.053 41.15C207.213 41.15 206.538 40.955 206.028 40.565C205.528 40.175 205.238 39.645 205.158 38.975H206.508C206.568 39.275 206.733 39.515 207.003 39.695C207.273 39.865 207.623 39.95 208.053 39.95H208.683C209.203 39.95 209.593 39.84 209.853 39.62C210.123 39.4 210.258 39.105 210.258 38.735C210.258 38.055 209.793 37.64 208.863 37.49L207.753 37.31C206.933 37.18 206.328 36.93 205.938 36.56C205.548 36.18 205.353 35.645 205.353 34.955C205.353 34.205 205.593 33.625 206.073 33.215C206.553 32.805 207.253 32.6 208.173 32.6H208.743C209.523 32.6 210.153 32.79 210.633 33.17C211.123 33.54 211.418 34.045 211.518 34.685H210.168C210.108 34.415 209.953 34.2 209.703 34.04C209.453 33.88 209.133 33.8 208.743 33.8H208.173C207.193 33.8 206.703 34.19 206.703 34.97C206.703 35.3 206.798 35.55 206.988 35.72C207.188 35.88 207.508 35.995 207.948 36.065L209.058 36.245C209.948 36.385 210.593 36.645 210.993 37.025C211.403 37.405 211.608 37.955 211.608 38.675C211.608 39.455 211.358 40.065 210.858 40.505C210.368 40.935 209.643 41.15 208.683 41.15H208.053ZM217.047 41.15C216.207 41.15 215.532 40.955 215.022 40.565C214.522 40.175 214.232 39.645 214.152 38.975H215.502C215.562 39.275 215.727 39.515 215.997 39.695C216.267 39.865 216.617 39.95 217.047 39.95H217.677C218.197 39.95 218.587 39.84 218.847 39.62C219.117 39.4 219.252 39.105 219.252 38.735C219.252 38.055 218.787 37.64 217.857 37.49L216.747 37.31C215.927 37.18 215.322 36.93 214.932 36.56C214.542 36.18 214.347 35.645 214.347 34.955C214.347 34.205 214.587 33.625 215.067 33.215C215.547 32.805 216.247 32.6 217.167 32.6H217.737C218.517 32.6 219.147 32.79 219.627 33.17C220.117 33.54 220.412 34.045 220.512 34.685H219.162C219.102 34.415 218.947 34.2 218.697 34.04C218.447 33.88 218.127 33.8 217.737 33.8H217.167C216.187 33.8 215.697 34.19 215.697 34.97C215.697 35.3 215.792 35.55 215.982 35.72C216.182 35.88 216.502 35.995 216.942 36.065L218.052 36.245C218.942 36.385 219.587 36.645 219.987 37.025C220.397 37.405 220.602 37.955 220.602 38.675C220.602 39.455 220.352 40.065 219.852 40.505C219.362 40.935 218.637 41.15 217.677 41.15H217.047ZM224.421 42.65H222.996L228.321 28.55H229.746L224.421 42.65ZM235.845 32.6C236.675 32.6 237.33 32.875 237.81 33.425C238.3 33.975 238.545 34.725 238.545 35.675V38.09C238.545 39.03 238.3 39.775 237.81 40.325C237.33 40.875 236.675 41.15 235.845 41.15C235.225 41.15 234.715 41 234.315 40.7C233.915 40.39 233.68 39.965 233.61 39.425H233.595V41H232.245V30.05H233.595V32.45L233.565 34.325H233.61C233.69 33.795 233.93 33.375 234.33 33.065C234.73 32.755 235.235 32.6 235.845 32.6ZM237.195 35.75C237.195 35.12 237.035 34.635 236.715 34.295C236.405 33.945 235.965 33.77 235.395 33.77C234.835 33.77 234.395 33.945 234.075 34.295C233.755 34.645 233.595 35.13 233.595 35.75V38C233.595 38.62 233.755 39.105 234.075 39.455C234.395 39.805 234.835 39.98 235.395 39.98C235.965 39.98 236.405 39.81 236.715 39.47C237.035 39.12 237.195 38.63 237.195 38V35.75ZM244.389 32.615C245.349 32.615 246.109 32.86 246.669 33.35C247.229 33.83 247.509 34.49 247.509 35.33V41H246.189V39.425H246.174C246.134 39.945 245.874 40.365 245.394 40.685C244.914 40.995 244.314 41.15 243.594 41.15C242.754 41.15 242.084 40.93 241.584 40.49C241.084 40.05 240.834 39.455 240.834 38.705C240.834 37.915 241.079 37.295 241.569 36.845C242.069 36.395 242.749 36.17 243.609 36.17H246.159V35.375C246.159 34.875 245.999 34.49 245.679 34.22C245.369 33.94 244.934 33.8 244.374 33.8C243.884 33.8 243.479 33.9 243.159 34.1C242.839 34.3 242.654 34.575 242.604 34.925H241.254C241.344 34.225 241.674 33.665 242.244 33.245C242.814 32.825 243.529 32.615 244.389 32.615ZM243.909 40.085C244.569 40.085 245.109 39.93 245.529 39.62C245.949 39.3 246.159 38.885 246.159 38.375V37.205H243.639C243.189 37.205 242.834 37.33 242.574 37.58C242.314 37.83 242.184 38.175 242.184 38.615C242.184 39.075 242.339 39.435 242.649 39.695C242.959 39.955 243.379 40.085 243.909 40.085ZM253.024 41.15C252.184 41.15 251.509 40.955 250.999 40.565C250.499 40.175 250.209 39.645 250.129 38.975H251.479C251.539 39.275 251.704 39.515 251.974 39.695C252.244 39.865 252.594 39.95 253.024 39.95H253.654C254.174 39.95 254.564 39.84 254.824 39.62C255.094 39.4 255.229 39.105 255.229 38.735C255.229 38.055 254.764 37.64 253.834 37.49L252.724 37.31C251.904 37.18 251.299 36.93 250.909 36.56C250.519 36.18 250.324 35.645 250.324 34.955C250.324 34.205 250.564 33.625 251.044 33.215C251.524 32.805 252.224 32.6 253.144 32.6H253.714C254.494 32.6 255.124 32.79 255.604 33.17C256.094 33.54 256.389 34.045 256.489 34.685H255.139C255.079 34.415 254.924 34.2 254.674 34.04C254.424 33.88 254.104 33.8 253.714 33.8H253.144C252.164 33.8 251.674 34.19 251.674 34.97C251.674 35.3 251.769 35.55 251.959 35.72C252.159 35.88 252.479 35.995 252.919 36.065L254.029 36.245C254.919 36.385 255.564 36.645 255.964 37.025C256.374 37.405 256.579 37.955 256.579 38.675C256.579 39.455 256.329 40.065 255.829 40.505C255.339 40.935 254.614 41.15 253.654 41.15H253.024ZM265.528 37.205H260.488V38C260.488 38.66 260.643 39.16 260.953 39.5C261.273 39.84 261.738 40.01 262.348 40.01C263.398 40.01 263.998 39.64 264.148 38.9H265.498C265.408 39.59 265.078 40.14 264.508 40.55C263.938 40.95 263.218 41.15 262.348 41.15C261.378 41.15 260.603 40.865 260.023 40.295C259.453 39.725 259.168 38.96 259.168 38V35.75C259.168 34.79 259.453 34.025 260.023 33.455C260.603 32.885 261.378 32.6 262.348 32.6C263.318 32.6 264.088 32.885 264.658 33.455C265.238 34.025 265.528 34.79 265.528 35.75V37.205ZM260.488 36.185H264.208V35.75C264.208 35.09 264.048 34.59 263.728 34.25C263.418 33.9 262.958 33.725 262.348 33.725C261.738 33.725 261.273 33.9 260.953 34.25C260.643 34.59 260.488 35.09 260.488 35.75V36.185ZM26.295 89H25.245L25.8 86H24.525V85.025H25.98L26.52 82.025H25.05V81.05H26.7L27.255 78.05H28.305L27.75 81.05H30.15L30.705 78.05H31.755L31.2 81.05H32.475V82.025H31.02L30.48 85.025H31.95V86H30.3L29.745 89H28.695L29.25 86H26.85L26.295 89ZM27.57 82.025L27.03 85.025H29.43L29.97 82.025H27.57ZM46.5483 89.15C45.5483 89.15 44.7583 88.87 44.1783 88.31C43.5983 87.75 43.3083 86.98 43.3083 86V81.05C43.3083 80.07 43.5983 79.3 44.1783 78.74C44.7583 78.18 45.5483 77.9 46.5483 77.9C47.5283 77.9 48.3083 78.185 48.8883 78.755C49.4683 79.315 49.7583 80.08 49.7583 81.05H48.4083C48.4083 80.43 48.2433 79.95 47.9133 79.61C47.5933 79.27 47.1383 79.1 46.5483 79.1C45.9583 79.1 45.4933 79.27 45.1533 79.61C44.8233 79.95 44.6583 80.425 44.6583 81.035V86C44.6583 86.62 44.8233 87.1 45.1533 87.44C45.4833 87.78 45.9483 87.95 46.5483 87.95C47.1383 87.95 47.5933 87.78 47.9133 87.44C48.2433 87.1 48.4083 86.62 48.4083 86H49.7583C49.7583 86.97 49.4683 87.74 48.8883 88.31C48.3083 88.87 47.5283 89.15 46.5483 89.15ZM55.4824 89.15C54.5024 89.15 53.7274 88.87 53.1574 88.31C52.5874 87.75 52.3024 86.98 52.3024 86V83.75C52.3024 82.77 52.5874 82 53.1574 81.44C53.7274 80.88 54.5024 80.6 55.4824 80.6C56.4624 80.6 57.2374 80.88 57.8074 81.44C58.3774 82 58.6624 82.765 58.6624 83.735V86C58.6624 86.98 58.3774 87.75 57.8074 88.31C57.2374 88.87 56.4624 89.15 55.4824 89.15ZM55.4824 87.95C56.0724 87.95 56.5224 87.785 56.8324 87.455C57.1524 87.115 57.3124 86.63 57.3124 86V83.75C57.3124 83.12 57.1524 82.64 56.8324 82.31C56.5224 81.97 56.0724 81.8 55.4824 81.8C54.8924 81.8 54.4374 81.97 54.1174 82.31C53.8074 82.64 53.6524 83.12 53.6524 83.75V86C53.6524 86.63 53.8074 87.115 54.1174 87.455C54.4374 87.785 54.8924 87.95 55.4824 87.95ZM64.9716 80.6C65.8016 80.6 66.4566 80.875 66.9366 81.425C67.4166 81.975 67.6566 82.72 67.6566 83.66V86.075C67.6566 87.025 67.4166 87.775 66.9366 88.325C66.4566 88.875 65.8016 89.15 64.9716 89.15C64.3516 89.15 63.8366 88.995 63.4266 88.685C63.0266 88.375 62.7916 87.955 62.7216 87.425H62.6766L62.7066 89.3V91.7H61.3566V80.75H62.7066V82.325H62.7216C62.7916 81.785 63.0266 81.365 63.4266 81.065C63.8366 80.755 64.3516 80.6 64.9716 80.6ZM66.3066 83.75C66.3066 83.11 66.1516 82.62 65.8416 82.28C65.5316 81.94 65.0916 81.77 64.5216 81.77C63.9616 81.77 63.5166 81.945 63.1866 82.295C62.8666 82.645 62.7066 83.13 62.7066 83.75V86C62.7066 86.62 62.8666 87.105 63.1866 87.455C63.5166 87.805 63.9616 87.98 64.5216 87.98C65.0916 87.98 65.5316 87.81 65.8416 87.47C66.1516 87.13 66.3066 86.64 66.3066 86V83.75ZM71.6857 91.7L72.9007 88.49L69.8707 80.75H71.3707L73.2157 85.85C73.3157 86.14 73.4307 86.54 73.5607 87.05C73.6807 86.54 73.7907 86.14 73.8907 85.85L75.6157 80.75H77.0707L73.1257 91.7H71.6857ZM88.309 89V78.05H90.109L93.454 87.425C93.354 86.225 93.304 85.15 93.304 84.2V78.05H94.609V89H92.809L89.479 79.625C89.569 80.825 89.614 81.9 89.614 82.85V89H88.309ZM100.483 80.615C101.443 80.615 102.203 80.86 102.763 81.35C103.323 81.83 103.603 82.49 103.603 83.33V89H102.283V87.425H102.268C102.228 87.945 101.968 88.365 101.488 88.685C101.008 88.995 100.408 89.15 99.6881 89.15C98.8481 89.15 98.1781 88.93 97.6781 88.49C97.1781 88.05 96.9281 87.455 96.9281 86.705C96.9281 85.915 97.1731 85.295 97.6631 84.845C98.1631 84.395 98.8431 84.17 99.7031 84.17H102.253V83.375C102.253 82.875 102.093 82.49 101.773 82.22C101.463 81.94 101.028 81.8 100.468 81.8C99.9781 81.8 99.5731 81.9 99.2531 82.1C98.9331 82.3 98.7481 82.575 98.6981 82.925H97.3481C97.4381 82.225 97.7681 81.665 98.3381 81.245C98.9081 80.825 99.6231 80.615 100.483 80.615ZM100.003 88.085C100.663 88.085 101.203 87.93 101.623 87.62C102.043 87.3 102.253 86.885 102.253 86.375V85.205H99.7331C99.2831 85.205 98.9281 85.33 98.6681 85.58C98.4081 85.83 98.2781 86.175 98.2781 86.615C98.2781 87.075 98.4331 87.435 98.7431 87.695C99.0531 87.955 99.4731 88.085 100.003 88.085ZM110.347 89C109.637 89 109.082 88.81 108.682 88.43C108.292 88.05 108.097 87.515 108.097 86.825V81.98H105.772V80.75H108.097V78.5H109.447V80.75H112.747V81.98H109.447V86.825C109.447 87.145 109.517 87.385 109.657 87.545C109.807 87.695 110.037 87.77 110.347 87.77H112.597V89H110.347ZM118.441 79.325C118.141 79.325 117.901 79.245 117.721 79.085C117.551 78.925 117.466 78.71 117.466 78.44C117.466 78.17 117.556 77.95 117.736 77.78C117.916 77.61 118.151 77.525 118.441 77.525H118.741C119.031 77.525 119.266 77.61 119.446 77.78C119.626 77.95 119.716 78.17 119.716 78.44C119.716 78.71 119.626 78.925 119.446 79.085C119.266 79.245 119.031 79.325 118.741 79.325H118.441ZM122.191 89H115.141V87.77H118.066V81.98H115.516V80.75H119.416V87.77H122.191V89ZM126.521 89L123.836 80.75H125.216L126.971 86.3C127.151 86.87 127.316 87.425 127.466 87.965C127.616 87.425 127.781 86.87 127.961 86.3L129.671 80.75H131.036L128.351 89H126.521ZM139.61 85.205H134.57V86C134.57 86.66 134.725 87.16 135.035 87.5C135.355 87.84 135.82 88.01 136.43 88.01C137.48 88.01 138.08 87.64 138.23 86.9H139.58C139.49 87.59 139.16 88.14 138.59 88.55C138.02 88.95 137.3 89.15 136.43 89.15C135.46 89.15 134.685 88.865 134.105 88.295C133.535 87.725 133.25 86.96 133.25 86V83.75C133.25 82.79 133.535 82.025 134.105 81.455C134.685 80.885 135.46 80.6 136.43 80.6C137.4 80.6 138.17 80.885 138.74 81.455C139.32 82.025 139.61 82.79 139.61 83.75V85.205ZM134.57 84.185H138.29V83.75C138.29 83.09 138.13 82.59 137.81 82.25C137.5 81.9 137.04 81.725 136.43 81.725C135.82 81.725 135.355 81.9 135.035 82.25C134.725 82.59 134.57 83.09 134.57 83.75V84.185ZM157.343 89H151.493V87.785H153.728V79.265H151.493V78.05H157.343V79.265H155.108V87.785H157.343V89ZM165.287 80.6C165.797 80.6 166.197 80.795 166.487 81.185C166.777 81.565 166.922 82.08 166.922 82.73V89H165.677V82.715C165.677 82.375 165.602 82.11 165.452 81.92C165.312 81.73 165.102 81.635 164.822 81.635C164.552 81.635 164.337 81.73 164.177 81.92C164.027 82.1 163.952 82.36 163.952 82.7V89H162.872V82.715C162.872 82.375 162.792 82.11 162.632 81.92C162.482 81.73 162.267 81.635 161.987 81.635C161.717 81.635 161.507 81.73 161.357 81.92C161.217 82.1 161.147 82.36 161.147 82.7V89H159.902V80.75H161.087V81.74H161.177C161.237 81.39 161.382 81.115 161.612 80.915C161.852 80.705 162.152 80.6 162.512 80.6C162.852 80.6 163.137 80.7 163.367 80.9C163.597 81.09 163.762 81.37 163.862 81.74H163.922C163.992 81.39 164.147 81.115 164.387 80.915C164.627 80.705 164.927 80.6 165.287 80.6ZM172.436 80.615C173.396 80.615 174.156 80.86 174.716 81.35C175.276 81.83 175.556 82.49 175.556 83.33V89H174.236V87.425H174.221C174.181 87.945 173.921 88.365 173.441 88.685C172.961 88.995 172.361 89.15 171.641 89.15C170.801 89.15 170.131 88.93 169.631 88.49C169.131 88.05 168.881 87.455 168.881 86.705C168.881 85.915 169.126 85.295 169.616 84.845C170.116 84.395 170.796 84.17 171.656 84.17H174.206V83.375C174.206 82.875 174.046 82.49 173.726 82.22C173.416 81.94 172.981 81.8 172.421 81.8C171.931 81.8 171.526 81.9 171.206 82.1C170.886 82.3 170.701 82.575 170.651 82.925H169.301C169.391 82.225 169.721 81.665 170.291 81.245C170.861 80.825 171.576 80.615 172.436 80.615ZM171.956 88.085C172.616 88.085 173.156 87.93 173.576 87.62C173.996 87.3 174.206 86.885 174.206 86.375V85.205H171.686C171.236 85.205 170.881 85.33 170.621 85.58C170.361 85.83 170.231 86.175 170.231 86.615C170.231 87.075 170.386 87.435 170.696 87.695C171.006 87.955 171.426 88.085 171.956 88.085ZM183.2 80.75H184.505V89.3C184.505 90.05 184.275 90.635 183.815 91.055C183.365 91.485 182.735 91.7 181.925 91.7H179.315V90.47H181.94C182.36 90.47 182.665 90.375 182.855 90.185C183.055 89.995 183.155 89.7 183.155 89.3V88.25L183.2 87.2H183.005C182.875 87.61 182.63 87.925 182.27 88.145C181.91 88.365 181.46 88.475 180.92 88.475C180.09 88.475 179.43 88.2 178.94 87.65C178.46 87.1 178.22 86.35 178.22 85.4V83.66C178.22 82.72 178.46 81.975 178.94 81.425C179.43 80.875 180.09 80.6 180.92 80.6C181.46 80.6 181.91 80.71 182.27 80.93C182.63 81.15 182.875 81.465 183.005 81.875H183.2V80.75ZM183.17 83.75C183.17 83.13 183.01 82.645 182.69 82.295C182.37 81.945 181.93 81.77 181.37 81.77C180.8 81.77 180.355 81.945 180.035 82.295C179.725 82.635 179.57 83.12 179.57 83.75V85.325C179.57 85.955 179.725 86.445 180.035 86.795C180.355 87.135 180.8 87.305 181.37 87.305C181.93 87.305 182.37 87.13 182.69 86.78C183.01 86.43 183.17 85.945 183.17 85.325V83.75ZM193.575 85.205H188.535V86C188.535 86.66 188.69 87.16 189 87.5C189.32 87.84 189.785 88.01 190.395 88.01C191.445 88.01 192.045 87.64 192.195 86.9H193.545C193.455 87.59 193.125 88.14 192.555 88.55C191.985 88.95 191.265 89.15 190.395 89.15C189.425 89.15 188.65 88.865 188.07 88.295C187.5 87.725 187.215 86.96 187.215 86V83.75C187.215 82.79 187.5 82.025 188.07 81.455C188.65 80.885 189.425 80.6 190.395 80.6C191.365 80.6 192.135 80.885 192.705 81.455C193.285 82.025 193.575 82.79 193.575 83.75V85.205ZM188.535 84.185H192.255V83.75C192.255 83.09 192.095 82.59 191.775 82.25C191.465 81.9 191.005 81.725 190.395 81.725C189.785 81.725 189.32 81.9 189 82.25C188.69 82.59 188.535 83.09 188.535 83.75V84.185ZM205.023 89V78.05H206.793L207.933 81.59C208.113 82.15 208.278 82.71 208.428 83.27C208.568 82.71 208.723 82.145 208.893 81.575L209.973 78.05H211.743V89H210.423V85.025C210.423 84.195 210.468 83.21 210.558 82.07C210.648 80.92 210.758 79.805 210.888 78.725L209.118 84.2H207.693L205.908 78.725C206.028 79.765 206.128 80.855 206.208 81.995C206.298 83.135 206.343 84.145 206.343 85.025V89H205.023ZM217.377 89.15C216.397 89.15 215.622 88.87 215.052 88.31C214.482 87.75 214.197 86.98 214.197 86V83.75C214.197 82.77 214.482 82 215.052 81.44C215.622 80.88 216.397 80.6 217.377 80.6C218.357 80.6 219.132 80.88 219.702 81.44C220.272 82 220.557 82.765 220.557 83.735V86C220.557 86.98 220.272 87.75 219.702 88.31C219.132 88.87 218.357 89.15 217.377 89.15ZM217.377 87.95C217.967 87.95 218.417 87.785 218.727 87.455C219.047 87.115 219.207 86.63 219.207 86V83.75C219.207 83.12 219.047 82.64 218.727 82.31C218.417 81.97 217.967 81.8 217.377 81.8C216.787 81.8 216.332 81.97 216.012 82.31C215.702 82.64 215.547 83.12 215.547 83.75V86C215.547 86.63 215.702 87.115 216.012 87.455C216.332 87.785 216.787 87.95 217.377 87.95ZM226.041 89.15C225.201 89.15 224.526 88.955 224.016 88.565C223.516 88.175 223.226 87.645 223.146 86.975H224.496C224.556 87.275 224.721 87.515 224.991 87.695C225.261 87.865 225.611 87.95 226.041 87.95H226.671C227.191 87.95 227.581 87.84 227.841 87.62C228.111 87.4 228.246 87.105 228.246 86.735C228.246 86.055 227.781 85.64 226.851 85.49L225.741 85.31C224.921 85.18 224.316 84.93 223.926 84.56C223.536 84.18 223.341 83.645 223.341 82.955C223.341 82.205 223.581 81.625 224.061 81.215C224.541 80.805 225.241 80.6 226.161 80.6H226.731C227.511 80.6 228.141 80.79 228.621 81.17C229.111 81.54 229.406 82.045 229.506 82.685H228.156C228.096 82.415 227.941 82.2 227.691 82.04C227.441 81.88 227.121 81.8 226.731 81.8H226.161C225.181 81.8 224.691 82.19 224.691 82.97C224.691 83.3 224.786 83.55 224.976 83.72C225.176 83.88 225.496 83.995 225.936 84.065L227.046 84.245C227.936 84.385 228.581 84.645 228.981 85.025C229.391 85.405 229.596 85.955 229.596 86.675C229.596 87.455 229.346 88.065 228.846 88.505C228.356 88.935 227.631 89.15 226.671 89.15H226.041ZM236.265 89C235.555 89 235 88.81 234.6 88.43C234.21 88.05 234.015 87.515 234.015 86.825V81.98H231.69V80.75H234.015V78.5H235.365V80.75H238.665V81.98H235.365V86.825C235.365 87.145 235.435 87.385 235.575 87.545C235.725 87.695 235.955 87.77 236.265 87.77H238.515V89H236.265ZM245.334 89C244.604 89 244.019 88.79 243.579 88.37C243.149 87.94 242.934 87.375 242.934 86.675V79.28H240.459V78.05H244.284V86.675C244.284 87.015 244.379 87.285 244.569 87.485C244.759 87.675 245.014 87.77 245.334 87.77H248.109V89H245.334ZM251.569 91.7L252.784 88.49L249.754 80.75H251.254L253.099 85.85C253.199 86.14 253.314 86.54 253.444 87.05C253.564 86.54 253.674 86.14 253.774 85.85L255.499 80.75H256.954L253.009 91.7H251.569ZM271.402 89.15C270.332 89.15 269.487 88.885 268.867 88.355C268.257 87.815 267.942 87.08 267.922 86.15H269.272C269.272 86.71 269.457 87.15 269.827 87.47C270.207 87.79 270.732 87.95 271.402 87.95C272.032 87.95 272.522 87.795 272.872 87.485C273.232 87.165 273.412 86.73 273.412 86.18C273.412 85.74 273.292 85.355 273.052 85.025C272.812 84.695 272.477 84.465 272.047 84.335L270.562 83.87C269.812 83.64 269.232 83.26 268.822 82.73C268.422 82.19 268.222 81.55 268.222 80.81C268.222 80.23 268.352 79.72 268.612 79.28C268.882 78.84 269.257 78.5 269.737 78.26C270.227 78.01 270.792 77.885 271.432 77.885C272.392 77.885 273.157 78.155 273.727 78.695C274.307 79.225 274.607 79.935 274.627 80.825H273.277C273.277 80.285 273.112 79.86 272.782 79.55C272.462 79.24 272.007 79.085 271.417 79.085C270.837 79.085 270.382 79.23 270.052 79.52C269.732 79.8 269.572 80.19 269.572 80.69C269.572 81.14 269.692 81.53 269.932 81.86C270.172 82.19 270.517 82.425 270.967 82.565L272.467 83.045C273.197 83.275 273.762 83.665 274.162 84.215C274.562 84.765 274.762 85.41 274.762 86.15C274.762 86.74 274.622 87.265 274.342 87.725C274.062 88.175 273.667 88.525 273.157 88.775C272.647 89.025 272.062 89.15 271.402 89.15ZM281.236 89C280.526 89 279.971 88.81 279.571 88.43C279.181 88.05 278.986 87.515 278.986 86.825V81.98H276.661V80.75H278.986V78.5H280.336V80.75H283.636V81.98H280.336V86.825C280.336 87.145 280.406 87.385 280.546 87.545C280.696 87.695 280.926 87.77 281.236 87.77H283.486V89H281.236ZM289.36 80.615C290.32 80.615 291.08 80.86 291.64 81.35C292.2 81.83 292.48 82.49 292.48 83.33V89H291.16V87.425H291.145C291.105 87.945 290.845 88.365 290.365 88.685C289.885 88.995 289.285 89.15 288.565 89.15C287.725 89.15 287.055 88.93 286.555 88.49C286.055 88.05 285.805 87.455 285.805 86.705C285.805 85.915 286.05 85.295 286.54 84.845C287.04 84.395 287.72 84.17 288.58 84.17H291.13V83.375C291.13 82.875 290.97 82.49 290.65 82.22C290.34 81.94 289.905 81.8 289.345 81.8C288.855 81.8 288.45 81.9 288.13 82.1C287.81 82.3 287.625 82.575 287.575 82.925H286.225C286.315 82.225 286.645 81.665 287.215 81.245C287.785 80.825 288.5 80.615 289.36 80.615ZM288.88 88.085C289.54 88.085 290.08 87.93 290.5 87.62C290.92 87.3 291.13 86.885 291.13 86.375V85.205H288.61C288.16 85.205 287.805 85.33 287.545 85.58C287.285 85.83 287.155 86.175 287.155 86.615C287.155 87.075 287.31 87.435 287.62 87.695C287.93 87.955 288.35 88.085 288.88 88.085ZM299.224 89C298.514 89 297.959 88.81 297.559 88.43C297.169 88.05 296.974 87.515 296.974 86.825V81.98H294.649V80.75H296.974V78.5H298.324V80.75H301.624V81.98H298.324V86.825C298.324 87.145 298.394 87.385 298.534 87.545C298.684 87.695 298.914 87.77 299.224 87.77H301.474V89H299.224ZM307.318 79.325C307.018 79.325 306.778 79.245 306.598 79.085C306.428 78.925 306.343 78.71 306.343 78.44C306.343 78.17 306.433 77.95 306.613 77.78C306.793 77.61 307.028 77.525 307.318 77.525H307.618C307.908 77.525 308.143 77.61 308.323 77.78C308.503 77.95 308.593 78.17 308.593 78.44C308.593 78.71 308.503 78.925 308.323 79.085C308.143 79.245 307.908 79.325 307.618 79.325H307.318ZM311.068 89H304.018V87.77H306.943V81.98H304.393V80.75H308.293V87.77H311.068V89ZM316.373 89.15C315.373 89.15 314.583 88.87 314.003 88.31C313.423 87.75 313.133 86.98 313.133 86V83.75C313.133 82.77 313.423 82 314.003 81.44C314.583 80.88 315.373 80.6 316.373 80.6C317.323 80.6 318.088 80.855 318.668 81.365C319.248 81.875 319.553 82.57 319.583 83.45H318.233C318.203 82.93 318.023 82.525 317.693 82.235C317.373 81.945 316.933 81.8 316.373 81.8C315.783 81.8 315.318 81.97 314.978 82.31C314.648 82.65 314.483 83.125 314.483 83.735V86C314.483 86.62 314.648 87.1 314.978 87.44C315.308 87.78 315.773 87.95 316.373 87.95C316.933 87.95 317.373 87.805 317.693 87.515C318.023 87.225 318.203 86.82 318.233 86.3H319.583C319.553 87.18 319.248 87.875 318.668 88.385C318.088 88.895 317.323 89.15 316.373 89.15ZM334.781 80.6C335.611 80.6 336.266 80.875 336.746 81.425C337.236 81.975 337.481 82.725 337.481 83.675V86.09C337.481 87.03 337.236 87.775 336.746 88.325C336.266 88.875 335.611 89.15 334.781 89.15C334.161 89.15 333.651 89 333.251 88.7C332.851 88.39 332.616 87.965 332.546 87.425H332.531V89H331.181V78.05H332.531V80.45L332.501 82.325H332.546C332.626 81.795 332.866 81.375 333.266 81.065C333.666 80.755 334.171 80.6 334.781 80.6ZM336.131 83.75C336.131 83.12 335.971 82.635 335.651 82.295C335.341 81.945 334.901 81.77 334.331 81.77C333.771 81.77 333.331 81.945 333.011 82.295C332.691 82.645 332.531 83.13 332.531 83.75V86C332.531 86.62 332.691 87.105 333.011 87.455C333.331 87.805 333.771 87.98 334.331 87.98C334.901 87.98 335.341 87.81 335.651 87.47C335.971 87.12 336.131 86.63 336.131 86V83.75ZM343.295 79.325C342.995 79.325 342.755 79.245 342.575 79.085C342.405 78.925 342.32 78.71 342.32 78.44C342.32 78.17 342.41 77.95 342.59 77.78C342.77 77.61 343.005 77.525 343.295 77.525H343.595C343.885 77.525 344.12 77.61 344.3 77.78C344.48 77.95 344.57 78.17 344.57 78.44C344.57 78.71 344.48 78.925 344.3 79.085C344.12 79.245 343.885 79.325 343.595 79.325H343.295ZM347.045 89H339.995V87.77H342.92V81.98H340.37V80.75H344.27V87.77H347.045V89ZM352.724 80.6C353.554 80.6 354.214 80.86 354.704 81.38C355.194 81.89 355.439 82.58 355.439 83.45V89H354.089V83.6C354.089 83.02 353.929 82.565 353.609 82.235C353.299 81.905 352.874 81.74 352.334 81.74C351.764 81.74 351.319 81.92 350.999 82.28C350.679 82.63 350.519 83.12 350.519 83.75V89H349.169V80.75H350.519V82.325H350.534C350.604 81.775 350.829 81.35 351.209 81.05C351.589 80.75 352.094 80.6 352.724 80.6ZM361.313 80.615C362.273 80.615 363.033 80.86 363.593 81.35C364.153 81.83 364.433 82.49 364.433 83.33V89H363.113V87.425H363.098C363.058 87.945 362.798 88.365 362.318 88.685C361.838 88.995 361.238 89.15 360.518 89.15C359.678 89.15 359.008 88.93 358.508 88.49C358.008 88.05 357.758 87.455 357.758 86.705C357.758 85.915 358.003 85.295 358.493 84.845C358.993 84.395 359.673 84.17 360.533 84.17H363.083V83.375C363.083 82.875 362.923 82.49 362.603 82.22C362.293 81.94 361.858 81.8 361.298 81.8C360.808 81.8 360.403 81.9 360.083 82.1C359.763 82.3 359.578 82.575 359.528 82.925H358.178C358.268 82.225 358.598 81.665 359.168 81.245C359.738 80.825 360.453 80.615 361.313 80.615ZM360.833 88.085C361.493 88.085 362.033 87.93 362.453 87.62C362.873 87.3 363.083 86.885 363.083 86.375V85.205H360.563C360.113 85.205 359.758 85.33 359.498 85.58C359.238 85.83 359.108 86.175 359.108 86.615C359.108 87.075 359.263 87.435 359.573 87.695C359.883 87.955 360.303 88.085 360.833 88.085ZM370.937 80.6C371.807 80.6 372.497 80.875 373.007 81.425C373.527 81.965 373.787 82.7 373.787 83.63V84.125H372.437V83.75C372.437 83.11 372.277 82.615 371.957 82.265C371.647 81.915 371.202 81.74 370.622 81.74C370.052 81.74 369.602 81.92 369.272 82.28C368.952 82.63 368.792 83.12 368.792 83.75V89H367.442V80.75H368.762V82.22C369.032 81.14 369.757 80.6 370.937 80.6ZM377.486 91.7L378.701 88.49L375.671 80.75H377.171L379.016 85.85C379.116 86.14 379.231 86.54 379.361 87.05C379.481 86.54 379.591 86.14 379.691 85.85L381.416 80.75H382.871L378.926 91.7H377.486ZM397.26 79.325C396.96 79.325 396.72 79.245 396.54 79.085C396.37 78.925 396.285 78.71 396.285 78.44C396.285 78.17 396.375 77.95 396.555 77.78C396.735 77.61 396.97 77.525 397.26 77.525H397.56C397.85 77.525 398.085 77.61 398.265 77.78C398.445 77.95 398.535 78.17 398.535 78.44C398.535 78.71 398.445 78.925 398.265 79.085C398.085 79.245 397.85 79.325 397.56 79.325H397.26ZM401.01 89H393.96V87.77H396.885V81.98H394.335V80.75H398.235V87.77H401.01V89ZM406.689 80.6C407.519 80.6 408.179 80.86 408.669 81.38C409.159 81.89 409.404 82.58 409.404 83.45V89H408.054V83.6C408.054 83.02 407.894 82.565 407.574 82.235C407.264 81.905 406.839 81.74 406.299 81.74C405.729 81.74 405.284 81.92 404.964 82.28C404.644 82.63 404.484 83.12 404.484 83.75V89H403.134V80.75H404.484V82.325H404.499C404.569 81.775 404.794 81.35 405.174 81.05C405.554 80.75 406.059 80.6 406.689 80.6ZM416.148 89C415.438 89 414.883 88.81 414.483 88.43C414.093 88.05 413.898 87.515 413.898 86.825V81.98H411.573V80.75H413.898V78.5H415.248V80.75H418.548V81.98H415.248V86.825C415.248 87.145 415.318 87.385 415.458 87.545C415.608 87.695 415.838 87.77 416.148 87.77H418.398V89H416.148ZM424.242 89.15C423.262 89.15 422.487 88.87 421.917 88.31C421.347 87.75 421.062 86.98 421.062 86V83.75C421.062 82.77 421.347 82 421.917 81.44C422.487 80.88 423.262 80.6 424.242 80.6C425.222 80.6 425.997 80.88 426.567 81.44C427.137 82 427.422 82.765 427.422 83.735V86C427.422 86.98 427.137 87.75 426.567 88.31C425.997 88.87 425.222 89.15 424.242 89.15ZM424.242 87.95C424.832 87.95 425.282 87.785 425.592 87.455C425.912 87.115 426.072 86.63 426.072 86V83.75C426.072 83.12 425.912 82.64 425.592 82.31C425.282 81.97 424.832 81.8 424.242 81.8C423.652 81.8 423.197 81.97 422.877 82.31C422.567 82.64 422.412 83.12 422.412 83.75V86C422.412 86.63 422.567 87.115 422.877 87.455C423.197 87.785 423.652 87.95 424.242 87.95ZM439.11 89V78.05H441.945C442.645 78.05 443.255 78.185 443.775 78.455C444.295 78.725 444.695 79.11 444.975 79.61C445.265 80.1 445.41 80.675 445.41 81.335V85.7C445.41 86.71 445.095 87.515 444.465 88.115C443.845 88.705 443.005 89 441.945 89H439.11ZM441.945 87.8C442.605 87.8 443.12 87.615 443.49 87.245C443.87 86.875 444.06 86.36 444.06 85.7V81.335C444.06 80.685 443.87 80.175 443.49 79.805C443.12 79.435 442.605 79.25 441.945 79.25H440.46V87.8H441.945ZM451.225 89.15C450.245 89.15 449.47 88.87 448.9 88.31C448.33 87.75 448.045 86.98 448.045 86V83.75C448.045 82.77 448.33 82 448.9 81.44C449.47 80.88 450.245 80.6 451.225 80.6C452.205 80.6 452.98 80.88 453.55 81.44C454.12 82 454.405 82.765 454.405 83.735V86C454.405 86.98 454.12 87.75 453.55 88.31C452.98 88.87 452.205 89.15 451.225 89.15ZM451.225 87.95C451.815 87.95 452.265 87.785 452.575 87.455C452.895 87.115 453.055 86.63 453.055 86V83.75C453.055 83.12 452.895 82.64 452.575 82.31C452.265 81.97 451.815 81.8 451.225 81.8C450.635 81.8 450.18 81.97 449.86 82.31C449.55 82.64 449.395 83.12 449.395 83.75V86C449.395 86.63 449.55 87.115 449.86 87.455C450.18 87.785 450.635 87.95 451.225 87.95ZM460.279 89.15C459.279 89.15 458.489 88.87 457.909 88.31C457.329 87.75 457.039 86.98 457.039 86V83.75C457.039 82.77 457.329 82 457.909 81.44C458.489 80.88 459.279 80.6 460.279 80.6C461.229 80.6 461.994 80.855 462.574 81.365C463.154 81.875 463.459 82.57 463.489 83.45H462.139C462.109 82.93 461.929 82.525 461.599 82.235C461.279 81.945 460.839 81.8 460.279 81.8C459.689 81.8 459.224 81.97 458.884 82.31C458.554 82.65 458.389 83.125 458.389 83.735V86C458.389 86.62 458.554 87.1 458.884 87.44C459.214 87.78 459.679 87.95 460.279 87.95C460.839 87.95 461.279 87.805 461.599 87.515C461.929 87.225 462.109 86.82 462.139 86.3H463.489C463.459 87.18 463.154 87.875 462.574 88.385C461.994 88.895 461.229 89.15 460.279 89.15ZM467.488 89H466.138V78.05H467.488V84.155H468.928L471.328 80.75H472.873L470.098 84.68L472.918 89H471.343L468.943 85.325H467.488V89ZM481.387 85.205H476.347V86C476.347 86.66 476.502 87.16 476.812 87.5C477.132 87.84 477.597 88.01 478.207 88.01C479.257 88.01 479.857 87.64 480.007 86.9H481.357C481.267 87.59 480.937 88.14 480.367 88.55C479.797 88.95 479.077 89.15 478.207 89.15C477.237 89.15 476.462 88.865 475.882 88.295C475.312 87.725 475.027 86.96 475.027 86V83.75C475.027 82.79 475.312 82.025 475.882 81.455C476.462 80.885 477.237 80.6 478.207 80.6C479.177 80.6 479.947 80.885 480.517 81.455C481.097 82.025 481.387 82.79 481.387 83.75V85.205ZM476.347 84.185H480.067V83.75C480.067 83.09 479.907 82.59 479.587 82.25C479.277 81.9 478.817 81.725 478.207 81.725C477.597 81.725 477.132 81.9 476.812 82.25C476.502 82.59 476.347 83.09 476.347 83.75V84.185ZM487.861 80.6C488.731 80.6 489.421 80.875 489.931 81.425C490.451 81.965 490.711 82.7 490.711 83.63V84.125H489.361V83.75C489.361 83.11 489.201 82.615 488.881 82.265C488.571 81.915 488.126 81.74 487.546 81.74C486.976 81.74 486.526 81.92 486.196 82.28C485.876 82.63 485.716 83.12 485.716 83.75V89H484.366V80.75H485.686V82.22C485.956 81.14 486.681 80.6 487.861 80.6ZM28.5 103.325C28.2 103.325 27.96 103.245 27.78 103.085C27.61 102.925 27.525 102.71 27.525 102.44C27.525 102.17 27.615 101.95 27.795 101.78C27.975 101.61 28.21 101.525 28.5 101.525H28.8C29.09 101.525 29.325 101.61 29.505 101.78C29.685 101.95 29.775 102.17 29.775 102.44C29.775 102.71 29.685 102.925 29.505 103.085C29.325 103.245 29.09 103.325 28.8 103.325H28.5ZM32.25 113H25.2V111.77H28.125V105.98H25.575V104.75H29.475V111.77H32.25V113ZM39.3691 104.6C39.8791 104.6 40.2791 104.795 40.5691 105.185C40.8591 105.565 41.0041 106.08 41.0041 106.73V113H39.7591V106.715C39.7591 106.375 39.6841 106.11 39.5341 105.92C39.3941 105.73 39.1841 105.635 38.9041 105.635C38.6341 105.635 38.4191 105.73 38.2591 105.92C38.1091 106.1 38.0341 106.36 38.0341 106.7V113H36.9541V106.715C36.9541 106.375 36.8741 106.11 36.7141 105.92C36.5641 105.73 36.3491 105.635 36.0691 105.635C35.7991 105.635 35.5891 105.73 35.4391 105.92C35.2991 106.1 35.2291 106.36 35.2291 106.7V113H33.9841V104.75H35.1691V105.74H35.2591C35.3191 105.39 35.4641 105.115 35.6941 104.915C35.9341 104.705 36.2341 104.6 36.5941 104.6C36.9341 104.6 37.2191 104.7 37.4491 104.9C37.6791 105.09 37.8441 105.37 37.9441 105.74H38.0041C38.0741 105.39 38.2291 105.115 38.4691 104.915C38.7091 104.705 39.0091 104.6 39.3691 104.6ZM46.5183 104.615C47.4783 104.615 48.2383 104.86 48.7983 105.35C49.3583 105.83 49.6383 106.49 49.6383 107.33V113H48.3183V111.425H48.3033C48.2633 111.945 48.0033 112.365 47.5233 112.685C47.0433 112.995 46.4433 113.15 45.7233 113.15C44.8833 113.15 44.2133 112.93 43.7133 112.49C43.2133 112.05 42.9633 111.455 42.9633 110.705C42.9633 109.915 43.2083 109.295 43.6983 108.845C44.1983 108.395 44.8783 108.17 45.7383 108.17H48.2883V107.375C48.2883 106.875 48.1283 106.49 47.8083 106.22C47.4983 105.94 47.0633 105.8 46.5033 105.8C46.0133 105.8 45.6083 105.9 45.2883 106.1C44.9683 106.3 44.7833 106.575 44.7333 106.925H43.3833C43.4733 106.225 43.8033 105.665 44.3733 105.245C44.9433 104.825 45.6583 104.615 46.5183 104.615ZM46.0383 112.085C46.6983 112.085 47.2383 111.93 47.6583 111.62C48.0783 111.3 48.2883 110.885 48.2883 110.375V109.205H45.7683C45.3183 109.205 44.9633 109.33 44.7033 109.58C44.4433 109.83 44.3133 110.175 44.3133 110.615C44.3133 111.075 44.4683 111.435 44.7783 111.695C45.0883 111.955 45.5083 112.085 46.0383 112.085ZM57.2824 104.75H58.5874V113.3C58.5874 114.05 58.3574 114.635 57.8974 115.055C57.4474 115.485 56.8174 115.7 56.0074 115.7H53.3974V114.47H56.0224C56.4424 114.47 56.7474 114.375 56.9374 114.185C57.1374 113.995 57.2374 113.7 57.2374 113.3V112.25L57.2824 111.2H57.0874C56.9574 111.61 56.7124 111.925 56.3524 112.145C55.9924 112.365 55.5424 112.475 55.0024 112.475C54.1724 112.475 53.5124 112.2 53.0224 111.65C52.5424 111.1 52.3024 110.35 52.3024 109.4V107.66C52.3024 106.72 52.5424 105.975 53.0224 105.425C53.5124 104.875 54.1724 104.6 55.0024 104.6C55.5424 104.6 55.9924 104.71 56.3524 104.93C56.7124 105.15 56.9574 105.465 57.0874 105.875H57.2824V104.75ZM57.2524 107.75C57.2524 107.13 57.0924 106.645 56.7724 106.295C56.4524 105.945 56.0124 105.77 55.4524 105.77C54.8824 105.77 54.4374 105.945 54.1174 106.295C53.8074 106.635 53.6524 107.12 53.6524 107.75V109.325C53.6524 109.955 53.8074 110.445 54.1174 110.795C54.4374 111.135 54.8824 111.305 55.4524 111.305C56.0124 111.305 56.4524 111.13 56.7724 110.78C57.0924 110.43 57.2524 109.945 57.2524 109.325V107.75ZM67.6566 109.205H62.6166V110C62.6166 110.66 62.7716 111.16 63.0816 111.5C63.4016 111.84 63.8666 112.01 64.4766 112.01C65.5266 112.01 66.1266 111.64 66.2766 110.9H67.6266C67.5366 111.59 67.2066 112.14 66.6366 112.55C66.0666 112.95 65.3466 113.15 64.4766 113.15C63.5066 113.15 62.7316 112.865 62.1516 112.295C61.5816 111.725 61.2966 110.96 61.2966 110V107.75C61.2966 106.79 61.5816 106.025 62.1516 105.455C62.7316 104.885 63.5066 104.6 64.4766 104.6C65.4466 104.6 66.2166 104.885 66.7866 105.455C67.3666 106.025 67.6566 106.79 67.6566 107.75V109.205ZM62.6166 108.185H66.3366V107.75C66.3366 107.09 66.1766 106.59 65.8566 106.25C65.5466 105.9 65.0866 105.725 64.4766 105.725C63.8666 105.725 63.4016 105.9 63.0816 106.25C62.7716 106.59 62.6166 107.09 62.6166 107.75V108.185ZM28.56 137.15C27.56 137.15 26.77 136.87 26.19 136.31C25.61 135.75 25.32 134.98 25.32 134V129.05C25.32 128.07 25.61 127.3 26.19 126.74C26.77 126.18 27.56 125.9 28.56 125.9C29.54 125.9 30.32 126.185 30.9 126.755C31.48 127.315 31.77 128.08 31.77 129.05H30.42C30.42 128.43 30.255 127.95 29.925 127.61C29.605 127.27 29.15 127.1 28.56 127.1C27.97 127.1 27.505 127.27 27.165 127.61C26.835 127.95 26.67 128.425 26.67 129.035V134C26.67 134.62 26.835 135.1 27.165 135.44C27.495 135.78 27.96 135.95 28.56 135.95C29.15 135.95 29.605 135.78 29.925 135.44C30.255 135.1 30.42 134.62 30.42 134H31.77C31.77 134.97 31.48 135.74 30.9 136.31C30.32 136.87 29.54 137.15 28.56 137.15ZM37.4941 137.15C36.5141 137.15 35.7391 136.87 35.1691 136.31C34.5991 135.75 34.3141 134.98 34.3141 134V129.05C34.3141 128.07 34.5991 127.3 35.1691 126.74C35.7391 126.18 36.5141 125.9 37.4941 125.9C38.4741 125.9 39.2491 126.18 39.8191 126.74C40.3891 127.3 40.6741 128.065 40.6741 129.035V134C40.6741 134.98 40.3891 135.75 39.8191 136.31C39.2491 136.87 38.4741 137.15 37.4941 137.15ZM37.4941 135.95C38.0841 135.95 38.5341 135.785 38.8441 135.455C39.1641 135.115 39.3241 134.63 39.3241 134V129.05C39.3241 128.42 39.1641 127.94 38.8441 127.61C38.5341 127.27 38.0841 127.1 37.4941 127.1C36.9041 127.1 36.4491 127.27 36.1291 127.61C35.8191 127.94 35.6641 128.42 35.6641 129.05V134C35.6641 134.63 35.8191 135.115 36.1291 135.455C36.4491 135.785 36.9041 135.95 37.4941 135.95ZM43.3683 137V126.05H46.8933C47.9133 126.05 48.7233 126.345 49.3233 126.935C49.9333 127.515 50.2383 128.295 50.2383 129.275C50.2383 130.255 49.9333 131.04 49.3233 131.63C48.7233 132.21 47.9133 132.5 46.8933 132.5H44.7183V137H43.3683ZM46.8933 131.3C47.4833 131.3 47.9533 131.12 48.3033 130.76C48.6633 130.39 48.8433 129.895 48.8433 129.275C48.8433 128.655 48.6633 128.165 48.3033 127.805C47.9533 127.435 47.4833 127.25 46.8933 127.25H44.7183V131.3H46.8933ZM54.8074 137V132.905L51.5074 126.05H52.9024L55.0774 130.55C55.2774 130.98 55.4174 131.32 55.4974 131.57C55.5774 131.32 55.7224 130.98 55.9324 130.55L58.0624 126.05H59.4574L56.1574 132.905V137H54.8074ZM73.9507 128.6C74.7807 128.6 75.4357 128.875 75.9157 129.425C76.4057 129.975 76.6507 130.725 76.6507 131.675V134.09C76.6507 135.03 76.4057 135.775 75.9157 136.325C75.4357 136.875 74.7807 137.15 73.9507 137.15C73.3307 137.15 72.8207 137 72.4207 136.7C72.0207 136.39 71.7857 135.965 71.7157 135.425H71.7007V137H70.3507V126.05H71.7007V128.45L71.6707 130.325H71.7157C71.7957 129.795 72.0357 129.375 72.4357 129.065C72.8357 128.755 73.3407 128.6 73.9507 128.6ZM75.3007 131.75C75.3007 131.12 75.1407 130.635 74.8207 130.295C74.5107 129.945 74.0707 129.77 73.5007 129.77C72.9407 129.77 72.5007 129.945 72.1807 130.295C71.8607 130.645 71.7007 131.13 71.7007 131.75V134C71.7007 134.62 71.8607 135.105 72.1807 135.455C72.5007 135.805 72.9407 135.98 73.5007 135.98C74.0707 135.98 74.5107 135.81 74.8207 135.47C75.1407 135.12 75.3007 134.63 75.3007 134V131.75ZM82.4498 137.15C81.4998 137.15 80.7398 136.865 80.1698 136.295C79.5998 135.725 79.3148 134.96 79.3148 134V128.75H80.6648V134C80.6648 134.62 80.8198 135.105 81.1298 135.455C81.4498 135.795 81.8898 135.965 82.4498 135.965C83.0198 135.965 83.4648 135.795 83.7848 135.455C84.1048 135.105 84.2648 134.62 84.2648 134V128.75H85.6148V134C85.6148 134.96 85.3248 135.725 84.7448 136.295C84.1748 136.865 83.4098 137.15 82.4498 137.15ZM91.459 127.325C91.159 127.325 90.919 127.245 90.739 127.085C90.569 126.925 90.484 126.71 90.484 126.44C90.484 126.17 90.574 125.95 90.754 125.78C90.934 125.61 91.169 125.525 91.459 125.525H91.759C92.049 125.525 92.284 125.61 92.464 125.78C92.644 125.95 92.734 126.17 92.734 126.44C92.734 126.71 92.644 126.925 92.464 127.085C92.284 127.245 92.049 127.325 91.759 127.325H91.459ZM95.209 137H88.159V135.77H91.084V129.98H88.534V128.75H92.434V135.77H95.209V137ZM101.428 137C100.698 137 100.113 136.79 99.6731 136.37C99.2431 135.94 99.0281 135.375 99.0281 134.675V127.28H96.5531V126.05H100.378V134.675C100.378 135.015 100.473 135.285 100.663 135.485C100.853 135.675 101.108 135.77 101.428 135.77H104.203V137H101.428ZM111.217 126.05H112.567V137H111.217V135.425H111.202C111.132 135.965 110.897 136.39 110.497 136.7C110.097 137 109.587 137.15 108.967 137.15C108.137 137.15 107.477 136.875 106.987 136.325C106.507 135.775 106.267 135.03 106.267 134.09V131.675C106.267 130.725 106.507 129.975 106.987 129.425C107.477 128.875 108.137 128.6 108.967 128.6C109.577 128.6 110.082 128.755 110.482 129.065C110.882 129.375 111.122 129.795 111.202 130.325H111.247L111.217 128.45V126.05ZM111.217 131.75C111.217 131.13 111.057 130.645 110.737 130.295C110.417 129.945 109.977 129.77 109.417 129.77C108.847 129.77 108.402 129.945 108.082 130.295C107.772 130.635 107.617 131.12 107.617 131.75V134C107.617 134.63 107.772 135.12 108.082 135.47C108.402 135.81 108.847 135.98 109.417 135.98C109.977 135.98 110.417 135.805 110.737 135.455C111.057 135.105 111.217 134.62 111.217 134V131.75ZM118.111 137.15C117.271 137.15 116.596 136.955 116.086 136.565C115.586 136.175 115.296 135.645 115.216 134.975H116.566C116.626 135.275 116.791 135.515 117.061 135.695C117.331 135.865 117.681 135.95 118.111 135.95H118.741C119.261 135.95 119.651 135.84 119.911 135.62C120.181 135.4 120.316 135.105 120.316 134.735C120.316 134.055 119.851 133.64 118.921 133.49L117.811 133.31C116.991 133.18 116.386 132.93 115.996 132.56C115.606 132.18 115.411 131.645 115.411 130.955C115.411 130.205 115.651 129.625 116.131 129.215C116.611 128.805 117.311 128.6 118.231 128.6H118.801C119.581 128.6 120.211 128.79 120.691 129.17C121.181 129.54 121.476 130.045 121.576 130.685H120.226C120.166 130.415 120.011 130.2 119.761 130.04C119.511 129.88 119.191 129.8 118.801 129.8H118.231C117.251 129.8 116.761 130.19 116.761 130.97C116.761 131.3 116.856 131.55 117.046 131.72C117.246 131.88 117.566 131.995 118.006 132.065L119.116 132.245C120.006 132.385 120.651 132.645 121.051 133.025C121.461 133.405 121.666 133.955 121.666 134.675C121.666 135.455 121.416 136.065 120.916 136.505C120.426 136.935 119.701 137.15 118.741 137.15H118.111ZM125.486 138.65H124.061L129.386 124.55H130.811L125.486 138.65ZM137.33 137C136.62 137 136.065 136.81 135.665 136.43C135.275 136.05 135.08 135.515 135.08 134.825V129.98H132.755V128.75H135.08V126.5H136.43V128.75H139.73V129.98H136.43V134.825C136.43 135.145 136.5 135.385 136.64 135.545C136.79 135.695 137.02 135.77 137.33 135.77H139.58V137H137.33ZM145.454 128.615C146.414 128.615 147.174 128.86 147.734 129.35C148.294 129.83 148.574 130.49 148.574 131.33V137H147.254V135.425H147.239C147.199 135.945 146.939 136.365 146.459 136.685C145.979 136.995 145.379 137.15 144.659 137.15C143.819 137.15 143.149 136.93 142.649 136.49C142.149 136.05 141.899 135.455 141.899 134.705C141.899 133.915 142.144 133.295 142.634 132.845C143.134 132.395 143.814 132.17 144.674 132.17H147.224V131.375C147.224 130.875 147.064 130.49 146.744 130.22C146.434 129.94 145.999 129.8 145.439 129.8C144.949 129.8 144.544 129.9 144.224 130.1C143.904 130.3 143.719 130.575 143.669 130.925H142.319C142.409 130.225 142.739 129.665 143.309 129.245C143.879 128.825 144.594 128.615 145.454 128.615ZM144.974 136.085C145.634 136.085 146.174 135.93 146.594 135.62C147.014 135.3 147.224 134.885 147.224 134.375V133.205H144.704C144.254 133.205 143.899 133.33 143.639 133.58C143.379 133.83 143.249 134.175 143.249 134.615C143.249 135.075 143.404 135.435 143.714 135.695C144.024 135.955 144.444 136.085 144.974 136.085ZM155.078 128.6C155.948 128.6 156.638 128.875 157.148 129.425C157.668 129.965 157.928 130.7 157.928 131.63V132.125H156.578V131.75C156.578 131.11 156.418 130.615 156.098 130.265C155.788 129.915 155.343 129.74 154.763 129.74C154.193 129.74 153.743 129.92 153.413 130.28C153.093 130.63 152.933 131.12 152.933 131.75V137H151.583V128.75H152.903V130.22C153.173 129.14 153.898 128.6 155.078 128.6ZM165.212 128.75H166.517V137.3C166.517 138.05 166.287 138.635 165.827 139.055C165.377 139.485 164.747 139.7 163.937 139.7H161.327V138.47H163.952C164.372 138.47 164.677 138.375 164.867 138.185C165.067 137.995 165.167 137.7 165.167 137.3V136.25L165.212 135.2H165.017C164.887 135.61 164.642 135.925 164.282 136.145C163.922 136.365 163.472 136.475 162.932 136.475C162.102 136.475 161.442 136.2 160.952 135.65C160.472 135.1 160.232 134.35 160.232 133.4V131.66C160.232 130.72 160.472 129.975 160.952 129.425C161.442 128.875 162.102 128.6 162.932 128.6C163.472 128.6 163.922 128.71 164.282 128.93C164.642 129.15 164.887 129.465 165.017 129.875H165.212V128.75ZM165.182 131.75C165.182 131.13 165.022 130.645 164.702 130.295C164.382 129.945 163.942 129.77 163.382 129.77C162.812 129.77 162.367 129.945 162.047 130.295C161.737 130.635 161.582 131.12 161.582 131.75V133.325C161.582 133.955 161.737 134.445 162.047 134.795C162.367 135.135 162.812 135.305 163.382 135.305C163.942 135.305 164.382 135.13 164.702 134.78C165.022 134.43 165.182 133.945 165.182 133.325V131.75ZM175.586 133.205H170.546V134C170.546 134.66 170.701 135.16 171.011 135.5C171.331 135.84 171.796 136.01 172.406 136.01C173.456 136.01 174.056 135.64 174.206 134.9H175.556C175.466 135.59 175.136 136.14 174.566 136.55C173.996 136.95 173.276 137.15 172.406 137.15C171.436 137.15 170.661 136.865 170.081 136.295C169.511 135.725 169.226 134.96 169.226 134V131.75C169.226 130.79 169.511 130.025 170.081 129.455C170.661 128.885 171.436 128.6 172.406 128.6C173.376 128.6 174.146 128.885 174.716 129.455C175.296 130.025 175.586 130.79 175.586 131.75V133.205ZM170.546 132.185H174.266V131.75C174.266 131.09 174.106 130.59 173.786 130.25C173.476 129.9 173.016 129.725 172.406 129.725C171.796 129.725 171.331 129.9 171.011 130.25C170.701 130.59 170.546 131.09 170.546 131.75V132.185ZM182.3 137C181.59 137 181.035 136.81 180.635 136.43C180.245 136.05 180.05 135.515 180.05 134.825V129.98H177.725V128.75H180.05V126.5H181.4V128.75H184.7V129.98H181.4V134.825C181.4 135.145 181.47 135.385 181.61 135.545C181.76 135.695 181.99 135.77 182.3 135.77H184.55V137H182.3ZM188.445 138.65H187.02L192.345 124.55H193.77L188.445 138.65ZM199.884 128.6C200.714 128.6 201.369 128.875 201.849 129.425C202.329 129.975 202.569 130.72 202.569 131.66V134.075C202.569 135.025 202.329 135.775 201.849 136.325C201.369 136.875 200.714 137.15 199.884 137.15C199.264 137.15 198.749 136.995 198.339 136.685C197.939 136.375 197.704 135.955 197.634 135.425H197.589L197.619 137.3V139.7H196.269V128.75H197.619V130.325H197.634C197.704 129.785 197.939 129.365 198.339 129.065C198.749 128.755 199.264 128.6 199.884 128.6ZM201.219 131.75C201.219 131.11 201.064 130.62 200.754 130.28C200.444 129.94 200.004 129.77 199.434 129.77C198.874 129.77 198.429 129.945 198.099 130.295C197.779 130.645 197.619 131.13 197.619 131.75V134C197.619 134.62 197.779 135.105 198.099 135.455C198.429 135.805 198.874 135.98 199.434 135.98C200.004 135.98 200.444 135.81 200.754 135.47C201.064 135.13 201.219 134.64 201.219 134V131.75ZM211.563 133.205H206.523V134C206.523 134.66 206.678 135.16 206.988 135.5C207.308 135.84 207.773 136.01 208.383 136.01C209.433 136.01 210.033 135.64 210.183 134.9H211.533C211.443 135.59 211.113 136.14 210.543 136.55C209.973 136.95 209.253 137.15 208.383 137.15C207.413 137.15 206.638 136.865 206.058 136.295C205.488 135.725 205.203 134.96 205.203 134V131.75C205.203 130.79 205.488 130.025 206.058 129.455C206.638 128.885 207.413 128.6 208.383 128.6C209.353 128.6 210.123 128.885 210.693 129.455C211.273 130.025 211.563 130.79 211.563 131.75V133.205ZM206.523 132.185H210.243V131.75C210.243 131.09 210.083 130.59 209.763 130.25C209.453 129.9 208.993 129.725 208.383 129.725C207.773 129.725 207.308 129.9 206.988 130.25C206.678 130.59 206.523 131.09 206.523 131.75V132.185ZM218.277 137C217.567 137 217.012 136.81 216.612 136.43C216.222 136.05 216.027 135.515 216.027 134.825V129.98H213.702V128.75H216.027V126.5H217.377V128.75H220.677V129.98H217.377V134.825C217.377 135.145 217.447 135.385 217.587 135.545C217.737 135.695 217.967 135.77 218.277 135.77H220.527V137H218.277ZM226.431 137.15C225.431 137.15 224.641 136.87 224.061 136.31C223.481 135.75 223.191 134.98 223.191 134V131.75C223.191 130.77 223.481 130 224.061 129.44C224.641 128.88 225.431 128.6 226.431 128.6C227.381 128.6 228.146 128.855 228.726 129.365C229.306 129.875 229.611 130.57 229.641 131.45H228.291C228.261 130.93 228.081 130.525 227.751 130.235C227.431 129.945 226.991 129.8 226.431 129.8C225.841 129.8 225.376 129.97 225.036 130.31C224.706 130.65 224.541 131.125 224.541 131.735V134C224.541 134.62 224.706 135.1 225.036 135.44C225.366 135.78 225.831 135.95 226.431 135.95C226.991 135.95 227.431 135.805 227.751 135.515C228.081 135.225 228.261 134.82 228.291 134.3H229.641C229.611 135.18 229.306 135.875 228.726 136.385C228.146 136.895 227.381 137.15 226.431 137.15ZM236.34 137C235.61 137 235.025 136.79 234.585 136.37C234.155 135.94 233.94 135.375 233.94 134.675V127.28H231.465V126.05H235.29V134.675C235.29 135.015 235.385 135.285 235.575 135.485C235.765 135.675 236.02 135.77 236.34 135.77H239.115V137H236.34ZM244.359 127.325C244.059 127.325 243.819 127.245 243.639 127.085C243.469 126.925 243.384 126.71 243.384 126.44C243.384 126.17 243.474 125.95 243.654 125.78C243.834 125.61 244.069 125.525 244.359 125.525H244.659C244.949 125.525 245.184 125.61 245.364 125.78C245.544 125.95 245.634 126.17 245.634 126.44C245.634 126.71 245.544 126.925 245.364 127.085C245.184 127.245 244.949 127.325 244.659 127.325H244.359ZM248.109 137H241.059V135.77H243.984V129.98H241.434V128.75H245.334V135.77H248.109V137ZM253.789 128.6C254.619 128.6 255.279 128.86 255.769 129.38C256.259 129.89 256.504 130.58 256.504 131.45V137H255.154V131.6C255.154 131.02 254.994 130.565 254.674 130.235C254.364 129.905 253.939 129.74 253.399 129.74C252.829 129.74 252.384 129.92 252.064 130.28C251.744 130.63 251.584 131.12 251.584 131.75V137H250.234V128.75H251.584V130.325H251.599C251.669 129.775 251.894 129.35 252.274 129.05C252.654 128.75 253.159 128.6 253.789 128.6ZM262.348 127.325C262.048 127.325 261.808 127.245 261.628 127.085C261.458 126.925 261.373 126.71 261.373 126.44C261.373 126.17 261.463 125.95 261.643 125.78C261.823 125.61 262.058 125.525 262.348 125.525H262.648C262.938 125.525 263.173 125.61 263.353 125.78C263.533 125.95 263.623 126.17 263.623 126.44C263.623 126.71 263.533 126.925 263.353 127.085C263.173 127.245 262.938 127.325 262.648 127.325H262.348ZM266.098 137H259.048V135.77H261.973V129.98H259.423V128.75H263.323V135.77H266.098V137ZM271.402 137.15C270.402 137.15 269.612 136.87 269.032 136.31C268.452 135.75 268.162 134.98 268.162 134V131.75C268.162 130.77 268.452 130 269.032 129.44C269.612 128.88 270.402 128.6 271.402 128.6C272.352 128.6 273.117 128.855 273.697 129.365C274.277 129.875 274.582 130.57 274.612 131.45H273.262C273.232 130.93 273.052 130.525 272.722 130.235C272.402 129.945 271.962 129.8 271.402 129.8C270.812 129.8 270.347 129.97 270.007 130.31C269.677 130.65 269.512 131.125 269.512 131.735V134C269.512 134.62 269.677 135.1 270.007 135.44C270.337 135.78 270.802 135.95 271.402 135.95C271.962 135.95 272.402 135.805 272.722 135.515C273.052 135.225 273.232 134.82 273.262 134.3H274.612C274.582 135.18 274.277 135.875 273.697 136.385C273.117 136.895 272.352 137.15 271.402 137.15ZM283.561 132.65H277.111V131.45H283.561V132.65ZM290.455 127.325C290.155 127.325 289.915 127.245 289.735 127.085C289.565 126.925 289.48 126.71 289.48 126.44C289.48 126.17 289.57 125.95 289.75 125.78C289.93 125.61 290.165 125.525 290.455 125.525H290.755C291.045 125.525 291.28 125.61 291.46 125.78C291.64 125.95 291.73 126.17 291.73 126.44C291.73 126.71 291.64 126.925 291.46 127.085C291.28 127.245 291.045 127.325 290.755 127.325H290.455ZM286.105 139.7V138.455H288.04C288.66 138.455 289.14 138.285 289.48 137.945C289.83 137.615 290.005 137.145 290.005 136.535V129.98H286.555V128.75H291.355V136.535C291.355 137.505 291.055 138.275 290.455 138.845C289.855 139.415 289.05 139.7 288.04 139.7H286.105ZM298.819 128.6C299.649 128.6 300.304 128.875 300.784 129.425C301.264 129.975 301.504 130.72 301.504 131.66V134.075C301.504 135.025 301.264 135.775 300.784 136.325C300.304 136.875 299.649 137.15 298.819 137.15C298.199 137.15 297.684 136.995 297.274 136.685C296.874 136.375 296.639 135.955 296.569 135.425H296.524L296.554 137.3V139.7H295.204V128.75H296.554V130.325H296.569C296.639 129.785 296.874 129.365 297.274 129.065C297.684 128.755 298.199 128.6 298.819 128.6ZM300.154 131.75C300.154 131.11 299.999 130.62 299.689 130.28C299.379 129.94 298.939 129.77 298.369 129.77C297.809 129.77 297.364 129.945 297.034 130.295C296.714 130.645 296.554 131.13 296.554 131.75V134C296.554 134.62 296.714 135.105 297.034 135.455C297.364 135.805 297.809 135.98 298.369 135.98C298.939 135.98 299.379 135.81 299.689 135.47C299.999 135.13 300.154 134.64 300.154 134V131.75ZM307.348 128.615C308.308 128.615 309.068 128.86 309.628 129.35C310.188 129.83 310.468 130.49 310.468 131.33V137H309.148V135.425H309.133C309.093 135.945 308.833 136.365 308.353 136.685C307.873 136.995 307.273 137.15 306.553 137.15C305.713 137.15 305.043 136.93 304.543 136.49C304.043 136.05 303.793 135.455 303.793 134.705C303.793 133.915 304.038 133.295 304.528 132.845C305.028 132.395 305.708 132.17 306.568 132.17H309.118V131.375C309.118 130.875 308.958 130.49 308.638 130.22C308.328 129.94 307.893 129.8 307.333 129.8C306.843 129.8 306.438 129.9 306.118 130.1C305.798 130.3 305.613 130.575 305.563 130.925H304.213C304.303 130.225 304.633 129.665 305.203 129.245C305.773 128.825 306.488 128.615 307.348 128.615ZM306.868 136.085C307.528 136.085 308.068 135.93 308.488 135.62C308.908 135.3 309.118 134.885 309.118 134.375V133.205H306.598C306.148 133.205 305.793 133.33 305.533 133.58C305.273 133.83 305.143 134.175 305.143 134.615C305.143 135.075 305.298 135.435 305.608 135.695C305.918 135.955 306.338 136.085 306.868 136.085ZM319.538 132.65H313.088V131.45H319.538V132.65ZM325.292 137.15C324.342 137.15 323.582 136.865 323.012 136.295C322.442 135.725 322.157 134.96 322.157 134V128.75H323.507V134C323.507 134.62 323.662 135.105 323.972 135.455C324.292 135.795 324.732 135.965 325.292 135.965C325.862 135.965 326.307 135.795 326.627 135.455C326.947 135.105 327.107 134.62 327.107 134V128.75H328.457V134C328.457 134.96 328.167 135.725 327.587 136.295C327.017 136.865 326.252 137.15 325.292 137.15ZM334.736 128.6C335.566 128.6 336.226 128.86 336.716 129.38C337.206 129.89 337.451 130.58 337.451 131.45V137H336.101V131.6C336.101 131.02 335.941 130.565 335.621 130.235C335.311 129.905 334.886 129.74 334.346 129.74C333.776 129.74 333.331 129.92 333.011 130.28C332.691 130.63 332.531 131.12 332.531 131.75V137H331.181V128.75H332.531V130.325H332.546C332.616 129.775 332.841 129.35 333.221 129.05C333.601 128.75 334.106 128.6 334.736 128.6ZM343.355 137.15C342.355 137.15 341.565 136.87 340.985 136.31C340.405 135.75 340.115 134.98 340.115 134V131.75C340.115 130.77 340.405 130 340.985 129.44C341.565 128.88 342.355 128.6 343.355 128.6C344.305 128.6 345.07 128.855 345.65 129.365C346.23 129.875 346.535 130.57 346.565 131.45H345.215C345.185 130.93 345.005 130.525 344.675 130.235C344.355 129.945 343.915 129.8 343.355 129.8C342.765 129.8 342.3 129.97 341.96 130.31C341.63 130.65 341.465 131.125 341.465 131.735V134C341.465 134.62 341.63 135.1 341.96 135.44C342.29 135.78 342.755 135.95 343.355 135.95C343.915 135.95 344.355 135.805 344.675 135.515C345.005 135.225 345.185 134.82 345.215 134.3H346.565C346.535 135.18 346.23 135.875 345.65 136.385C345.07 136.895 344.305 137.15 343.355 137.15ZM352.289 137.15C351.309 137.15 350.534 136.87 349.964 136.31C349.394 135.75 349.109 134.98 349.109 134V131.75C349.109 130.77 349.394 130 349.964 129.44C350.534 128.88 351.309 128.6 352.289 128.6C353.269 128.6 354.044 128.88 354.614 129.44C355.184 130 355.469 130.765 355.469 131.735V134C355.469 134.98 355.184 135.75 354.614 136.31C354.044 136.87 353.269 137.15 352.289 137.15ZM352.289 135.95C352.879 135.95 353.329 135.785 353.639 135.455C353.959 135.115 354.119 134.63 354.119 134V131.75C354.119 131.12 353.959 130.64 353.639 130.31C353.329 129.97 352.879 129.8 352.289 129.8C351.699 129.8 351.244 129.97 350.924 130.31C350.614 130.64 350.459 131.12 350.459 131.75V134C350.459 134.63 350.614 135.115 350.924 135.455C351.244 135.785 351.699 135.95 352.289 135.95ZM361.718 128.6C362.548 128.6 363.208 128.86 363.698 129.38C364.188 129.89 364.433 130.58 364.433 131.45V137H363.083V131.6C363.083 131.02 362.923 130.565 362.603 130.235C362.293 129.905 361.868 129.74 361.328 129.74C360.758 129.74 360.313 129.92 359.993 130.28C359.673 130.63 359.513 131.12 359.513 131.75V137H358.163V128.75H359.513V130.325H359.528C359.598 129.775 359.823 129.35 360.203 129.05C360.583 128.75 361.088 128.6 361.718 128.6ZM369.947 137.15C369.107 137.15 368.432 136.955 367.922 136.565C367.422 136.175 367.132 135.645 367.052 134.975H368.402C368.462 135.275 368.627 135.515 368.897 135.695C369.167 135.865 369.517 135.95 369.947 135.95H370.577C371.097 135.95 371.487 135.84 371.747 135.62C372.017 135.4 372.152 135.105 372.152 134.735C372.152 134.055 371.687 133.64 370.757 133.49L369.647 133.31C368.827 133.18 368.222 132.93 367.832 132.56C367.442 132.18 367.247 131.645 367.247 130.955C367.247 130.205 367.487 129.625 367.967 129.215C368.447 128.805 369.147 128.6 370.067 128.6H370.637C371.417 128.6 372.047 128.79 372.527 129.17C373.017 129.54 373.312 130.045 373.412 130.685H372.062C372.002 130.415 371.847 130.2 371.597 130.04C371.347 129.88 371.027 129.8 370.637 129.8H370.067C369.087 129.8 368.597 130.19 368.597 130.97C368.597 131.3 368.692 131.55 368.882 131.72C369.082 131.88 369.402 131.995 369.842 132.065L370.952 132.245C371.842 132.385 372.487 132.645 372.887 133.025C373.297 133.405 373.502 133.955 373.502 134.675C373.502 135.455 373.252 136.065 372.752 136.505C372.262 136.935 371.537 137.15 370.577 137.15H369.947ZM380.171 137C379.461 137 378.906 136.81 378.506 136.43C378.116 136.05 377.921 135.515 377.921 134.825V129.98H375.596V128.75H377.921V126.5H379.271V128.75H382.571V129.98H379.271V134.825C379.271 135.145 379.341 135.385 379.481 135.545C379.631 135.695 379.861 135.77 380.171 135.77H382.421V137H380.171ZM388.926 128.6C389.796 128.6 390.486 128.875 390.996 129.425C391.516 129.965 391.776 130.7 391.776 131.63V132.125H390.426V131.75C390.426 131.11 390.266 130.615 389.946 130.265C389.636 129.915 389.191 129.74 388.611 129.74C388.041 129.74 387.591 129.92 387.261 130.28C386.941 130.63 386.781 131.12 386.781 131.75V137H385.431V128.75H386.751V130.22C387.021 129.14 387.746 128.6 388.926 128.6ZM397.29 128.615C398.25 128.615 399.01 128.86 399.57 129.35C400.13 129.83 400.41 130.49 400.41 131.33V137H399.09V135.425H399.075C399.035 135.945 398.775 136.365 398.295 136.685C397.815 136.995 397.215 137.15 396.495 137.15C395.655 137.15 394.985 136.93 394.485 136.49C393.985 136.05 393.735 135.455 393.735 134.705C393.735 133.915 393.98 133.295 394.47 132.845C394.97 132.395 395.65 132.17 396.51 132.17H399.06V131.375C399.06 130.875 398.9 130.49 398.58 130.22C398.27 129.94 397.835 129.8 397.275 129.8C396.785 129.8 396.38 129.9 396.06 130.1C395.74 130.3 395.555 130.575 395.505 130.925H394.155C394.245 130.225 394.575 129.665 395.145 129.245C395.715 128.825 396.43 128.615 397.29 128.615ZM396.81 136.085C397.47 136.085 398.01 135.93 398.43 135.62C398.85 135.3 399.06 134.885 399.06 134.375V133.205H396.54C396.09 133.205 395.735 133.33 395.475 133.58C395.215 133.83 395.085 134.175 395.085 134.615C395.085 135.075 395.24 135.435 395.55 135.695C395.86 135.955 396.28 136.085 396.81 136.085ZM406.254 127.325C405.954 127.325 405.714 127.245 405.534 127.085C405.364 126.925 405.279 126.71 405.279 126.44C405.279 126.17 405.369 125.95 405.549 125.78C405.729 125.61 405.964 125.525 406.254 125.525H406.554C406.844 125.525 407.079 125.61 407.259 125.78C407.439 125.95 407.529 126.17 407.529 126.44C407.529 126.71 407.439 126.925 407.259 127.085C407.079 127.245 406.844 127.325 406.554 127.325H406.254ZM410.004 137H402.954V135.77H405.879V129.98H403.329V128.75H407.229V135.77H410.004V137ZM415.683 128.6C416.513 128.6 417.173 128.86 417.663 129.38C418.153 129.89 418.398 130.58 418.398 131.45V137H417.048V131.6C417.048 131.02 416.888 130.565 416.568 130.235C416.258 129.905 415.833 129.74 415.293 129.74C414.723 129.74 414.278 129.92 413.958 130.28C413.638 130.63 413.478 131.12 413.478 131.75V137H412.128V128.75H413.478V130.325H413.493C413.563 129.775 413.788 129.35 414.168 129.05C414.548 128.75 415.053 128.6 415.683 128.6ZM427.422 133.205H422.382V134C422.382 134.66 422.537 135.16 422.847 135.5C423.167 135.84 423.632 136.01 424.242 136.01C425.292 136.01 425.892 135.64 426.042 134.9H427.392C427.302 135.59 426.972 136.14 426.402 136.55C425.832 136.95 425.112 137.15 424.242 137.15C423.272 137.15 422.497 136.865 421.917 136.295C421.347 135.725 421.062 134.96 421.062 134V131.75C421.062 130.79 421.347 130.025 421.917 129.455C422.497 128.885 423.272 128.6 424.242 128.6C425.212 128.6 425.982 128.885 426.552 129.455C427.132 130.025 427.422 130.79 427.422 131.75V133.205ZM422.382 132.185H426.102V131.75C426.102 131.09 425.942 130.59 425.622 130.25C425.312 129.9 424.852 129.725 424.242 129.725C423.632 129.725 423.167 129.9 422.847 130.25C422.537 130.59 422.382 131.09 422.382 131.75V132.185ZM435.006 126.05H436.356V137H435.006V135.425H434.991C434.921 135.965 434.686 136.39 434.286 136.7C433.886 137 433.376 137.15 432.756 137.15C431.926 137.15 431.266 136.875 430.776 136.325C430.296 135.775 430.056 135.03 430.056 134.09V131.675C430.056 130.725 430.296 129.975 430.776 129.425C431.266 128.875 431.926 128.6 432.756 128.6C433.366 128.6 433.871 128.755 434.271 129.065C434.671 129.375 434.911 129.795 434.991 130.325H435.036L435.006 128.45V126.05ZM435.006 131.75C435.006 131.13 434.846 130.645 434.526 130.295C434.206 129.945 433.766 129.77 433.206 129.77C432.636 129.77 432.191 129.945 431.871 130.295C431.561 130.635 431.406 131.12 431.406 131.75V134C431.406 134.63 431.561 135.12 431.871 135.47C432.191 135.81 432.636 135.98 433.206 135.98C433.766 135.98 434.206 135.805 434.526 135.455C434.846 135.105 435.006 134.62 435.006 134V131.75ZM451.255 128.615C452.215 128.615 452.975 128.86 453.535 129.35C454.095 129.83 454.375 130.49 454.375 131.33V137H453.055V135.425H453.04C453 135.945 452.74 136.365 452.26 136.685C451.78 136.995 451.18 137.15 450.46 137.15C449.62 137.15 448.95 136.93 448.45 136.49C447.95 136.05 447.7 135.455 447.7 134.705C447.7 133.915 447.945 133.295 448.435 132.845C448.935 132.395 449.615 132.17 450.475 132.17H453.025V131.375C453.025 130.875 452.865 130.49 452.545 130.22C452.235 129.94 451.8 129.8 451.24 129.8C450.75 129.8 450.345 129.9 450.025 130.1C449.705 130.3 449.52 130.575 449.47 130.925H448.12C448.21 130.225 448.54 129.665 449.11 129.245C449.68 128.825 450.395 128.615 451.255 128.615ZM450.775 136.085C451.435 136.085 451.975 135.93 452.395 135.62C452.815 135.3 453.025 134.885 453.025 134.375V133.205H450.505C450.055 133.205 449.7 133.33 449.44 133.58C449.18 133.83 449.05 134.175 449.05 134.615C449.05 135.075 449.205 135.435 449.515 135.695C449.825 135.955 450.245 136.085 450.775 136.085ZM460.714 128.6C461.544 128.6 462.199 128.875 462.679 129.425C463.159 129.975 463.399 130.72 463.399 131.66V134.075C463.399 135.025 463.159 135.775 462.679 136.325C462.199 136.875 461.544 137.15 460.714 137.15C460.094 137.15 459.579 136.995 459.169 136.685C458.769 136.375 458.534 135.955 458.464 135.425H458.419L458.449 137.3V139.7H457.099V128.75H458.449V130.325H458.464C458.534 129.785 458.769 129.365 459.169 129.065C459.579 128.755 460.094 128.6 460.714 128.6ZM462.049 131.75C462.049 131.11 461.894 130.62 461.584 130.28C461.274 129.94 460.834 129.77 460.264 129.77C459.704 129.77 459.259 129.945 458.929 130.295C458.609 130.645 458.449 131.13 458.449 131.75V134C458.449 134.62 458.609 135.105 458.929 135.455C459.259 135.805 459.704 135.98 460.264 135.98C460.834 135.98 461.274 135.81 461.584 135.47C461.894 135.13 462.049 134.64 462.049 134V131.75ZM469.708 128.6C470.538 128.6 471.193 128.875 471.673 129.425C472.153 129.975 472.393 130.72 472.393 131.66V134.075C472.393 135.025 472.153 135.775 471.673 136.325C471.193 136.875 470.538 137.15 469.708 137.15C469.088 137.15 468.573 136.995 468.163 136.685C467.763 136.375 467.528 135.955 467.458 135.425H467.413L467.443 137.3V139.7H466.093V128.75H467.443V130.325H467.458C467.528 129.785 467.763 129.365 468.163 129.065C468.573 128.755 469.088 128.6 469.708 128.6ZM471.043 131.75C471.043 131.11 470.888 130.62 470.578 130.28C470.268 129.94 469.828 129.77 469.258 129.77C468.698 129.77 468.253 129.945 467.923 130.295C467.603 130.645 467.443 131.13 467.443 131.75V134C467.443 134.62 467.603 135.105 467.923 135.455C468.253 135.805 468.698 135.98 469.258 135.98C469.828 135.98 470.268 135.81 470.578 135.47C470.888 135.13 471.043 134.64 471.043 134V131.75ZM129.761 186.65H126.086V172.55H129.761V173.75H127.436V185.45H129.761V186.65ZM135.47 178.55H134.36L134.18 176.3V174.05H135.635V176.3L135.47 178.55ZM138.515 178.55H137.405L137.225 176.3V174.05H138.68V176.3L138.515 178.55ZM143.474 186.65H142.049L147.374 172.55H148.799L143.474 186.65ZM154.448 176.615C155.408 176.615 156.168 176.86 156.728 177.35C157.288 177.83 157.568 178.49 157.568 179.33V185H156.248V183.425H156.233C156.193 183.945 155.933 184.365 155.453 184.685C154.973 184.995 154.373 185.15 153.653 185.15C152.813 185.15 152.143 184.93 151.643 184.49C151.143 184.05 150.893 183.455 150.893 182.705C150.893 181.915 151.138 181.295 151.628 180.845C152.128 180.395 152.808 180.17 153.668 180.17H156.218V179.375C156.218 178.875 156.058 178.49 155.738 178.22C155.428 177.94 154.993 177.8 154.433 177.8C153.943 177.8 153.538 177.9 153.218 178.1C152.898 178.3 152.713 178.575 152.663 178.925H151.313C151.403 178.225 151.733 177.665 152.303 177.245C152.873 176.825 153.588 176.615 154.448 176.615ZM153.968 184.085C154.628 184.085 155.168 183.93 155.588 183.62C156.008 183.3 156.218 182.885 156.218 182.375V181.205H153.698C153.248 181.205 152.893 181.33 152.633 181.58C152.373 181.83 152.243 182.175 152.243 182.615C152.243 183.075 152.398 183.435 152.708 183.695C153.018 183.955 153.438 184.085 153.968 184.085ZM163.907 176.6C164.737 176.6 165.392 176.875 165.872 177.425C166.352 177.975 166.592 178.72 166.592 179.66V182.075C166.592 183.025 166.352 183.775 165.872 184.325C165.392 184.875 164.737 185.15 163.907 185.15C163.287 185.15 162.772 184.995 162.362 184.685C161.962 184.375 161.727 183.955 161.657 183.425H161.612L161.642 185.3V187.7H160.292V176.75H161.642V178.325H161.657C161.727 177.785 161.962 177.365 162.362 177.065C162.772 176.755 163.287 176.6 163.907 176.6ZM165.242 179.75C165.242 179.11 165.087 178.62 164.777 178.28C164.467 177.94 164.027 177.77 163.457 177.77C162.897 177.77 162.452 177.945 162.122 178.295C161.802 178.645 161.642 179.13 161.642 179.75V182C161.642 182.62 161.802 183.105 162.122 183.455C162.452 183.805 162.897 183.98 163.457 183.98C164.027 183.98 164.467 183.81 164.777 183.47C165.087 183.13 165.242 182.64 165.242 182V179.75ZM172.901 176.6C173.731 176.6 174.386 176.875 174.866 177.425C175.346 177.975 175.586 178.72 175.586 179.66V182.075C175.586 183.025 175.346 183.775 174.866 184.325C174.386 184.875 173.731 185.15 172.901 185.15C172.281 185.15 171.766 184.995 171.356 184.685C170.956 184.375 170.721 183.955 170.651 183.425H170.606L170.636 185.3V187.7H169.286V176.75H170.636V178.325H170.651C170.721 177.785 170.956 177.365 171.356 177.065C171.766 176.755 172.281 176.6 172.901 176.6ZM174.236 179.75C174.236 179.11 174.081 178.62 173.771 178.28C173.461 177.94 173.021 177.77 172.451 177.77C171.891 177.77 171.446 177.945 171.116 178.295C170.796 178.645 170.636 179.13 170.636 179.75V182C170.636 182.62 170.796 183.105 171.116 183.455C171.446 183.805 171.891 183.98 172.451 183.98C173.021 183.98 173.461 183.81 173.771 183.47C174.081 183.13 174.236 182.64 174.236 182V179.75ZM180.44 178.55H179.33L179.15 176.3V174.05H180.605V176.3L180.44 178.55ZM183.485 178.55H182.375L182.195 176.3V174.05H183.65V176.3L183.485 178.55ZM191.82 186.65H188.145V185.45H190.47V173.75H188.145V172.55H191.82V186.65Z" fill="white"/>
<path d="M31.8 185H25.5V174.05H31.8V175.265H26.835V178.67H31.275V179.885H26.835V183.785H31.8V185ZM34.3441 185V174.05H36.1441L39.4891 183.425C39.3891 182.225 39.3391 181.15 39.3391 180.2V174.05H40.6441V185H38.8441L35.5141 175.625C35.6041 176.825 35.6491 177.9 35.6491 178.85V185H34.3441ZM47.1633 185H45.8133V175.265H42.8133V174.035H50.1633V175.265H47.1633V185ZM52.3624 185V174.05H55.7524C56.3924 174.05 56.9574 174.185 57.4474 174.455C57.9474 174.715 58.3324 175.085 58.6024 175.565C58.8724 176.035 59.0074 176.58 59.0074 177.2C59.0074 177.94 58.8124 178.575 58.4224 179.105C58.0424 179.635 57.5224 180 56.8624 180.2L59.1574 185H57.5674L55.4674 180.35H53.7124V185H52.3624ZM55.7524 179.15C56.3124 179.15 56.7624 178.975 57.1024 178.625C57.4424 178.265 57.6124 177.79 57.6124 177.2C57.6124 176.62 57.4424 176.15 57.1024 175.79C56.7624 175.43 56.3124 175.25 55.7524 175.25H53.7124V179.15H55.7524ZM63.8016 185V180.905L60.5016 174.05H61.8966L64.0716 178.55C64.2716 178.98 64.4116 179.32 64.4916 179.57C64.5716 179.32 64.7166 178.98 64.9266 178.55L67.0566 174.05H68.4516L65.1516 180.905V185H63.8016ZM70.3507 185V174.05H73.8757C74.8957 174.05 75.7057 174.345 76.3057 174.935C76.9157 175.515 77.2207 176.295 77.2207 177.275C77.2207 178.255 76.9157 179.04 76.3057 179.63C75.7057 180.21 74.8957 180.5 73.8757 180.5H71.7007V185H70.3507ZM73.8757 179.3C74.4657 179.3 74.9357 179.12 75.2857 178.76C75.6457 178.39 75.8257 177.895 75.8257 177.275C75.8257 176.655 75.6457 176.165 75.2857 175.805C74.9357 175.435 74.4657 175.25 73.8757 175.25H71.7007V179.3H73.8757ZM82.4648 185.15C81.4848 185.15 80.7098 184.87 80.1398 184.31C79.5698 183.75 79.2848 182.98 79.2848 182V177.05C79.2848 176.07 79.5698 175.3 80.1398 174.74C80.7098 174.18 81.4848 173.9 82.4648 173.9C83.4448 173.9 84.2198 174.18 84.7898 174.74C85.3598 175.3 85.6448 176.065 85.6448 177.035V182C85.6448 182.98 85.3598 183.75 84.7898 184.31C84.2198 184.87 83.4448 185.15 82.4648 185.15ZM82.4648 183.95C83.0548 183.95 83.5048 183.785 83.8148 183.455C84.1348 183.115 84.2948 182.63 84.2948 182V177.05C84.2948 176.42 84.1348 175.94 83.8148 175.61C83.5048 175.27 83.0548 175.1 82.4648 175.1C81.8748 175.1 81.4198 175.27 81.0998 175.61C80.7898 175.94 80.6348 176.42 80.6348 177.05V182C80.6348 182.63 80.7898 183.115 81.0998 183.455C81.4198 183.785 81.8748 183.95 82.4648 183.95ZM94.384 185H88.534V183.785H90.769V175.265H88.534V174.05H94.384V175.265H92.149V183.785H94.384V185ZM97.3031 185V174.05H99.1031L102.448 183.425C102.348 182.225 102.298 181.15 102.298 180.2V174.05H103.603V185H101.803L98.4731 175.625C98.5631 176.825 98.6081 177.9 98.6081 178.85V185H97.3031ZM110.122 185H108.772V175.265H105.772V174.035H113.122V175.265H110.122V185Z" fill="#EB8178"/>
</g>
<defs>
<clipPath id="clip0_1542:33281">
<rect width="544" height="216" rx="8" fill="white"/>
</clipPath>
</defs>
</svg>
