<svg width="153" height="48" viewBox="0 0 153 48" fill="none" xmlns="http://www.w3.org/2000/svg">
<g clip-path="url(#clip0)">
<path d="M8.02711 10H14.0535C14.5595 10 15.0195 10 15.5256 10C16.0316 10 16.3996 10.0919 16.6296 10.3216C16.8137 10.4595 16.9057 10.6892 16.9517 11.0108C16.9977 11.2865 17.0437 11.5622 17.0897 11.8379C17.1357 12.3433 17.2277 12.8487 17.2737 13.3541C17.3657 13.8595 17.4577 14.3649 17.5037 14.8703C17.8257 16.8001 18.1017 18.7758 18.3318 20.7515C18.5618 22.7272 18.8838 24.7029 19.2058 26.6786C19.3438 27.2759 19.4358 27.9192 19.4818 28.5624C19.5278 29.2057 19.6198 29.8489 19.7578 30.4462C19.8038 30.5841 19.8038 30.7679 19.8499 30.9057C19.8959 31.0435 19.9419 31.1814 20.0799 31.2733C20.1259 31.3192 20.1719 31.3192 20.2179 31.3652C20.2639 31.4111 20.3559 31.3652 20.4479 31.3192C20.6779 31.2733 20.9079 31.0895 21.0459 30.7679C21.1839 30.4462 21.3679 30.1706 21.506 29.9408C21.874 29.2516 22.242 28.5624 22.564 27.8732C22.886 27.184 23.2541 26.4489 23.6681 25.7597C24.6342 23.8759 25.6462 22.038 26.6123 20.1542C27.6243 18.2704 28.6364 16.3406 29.6025 14.4568C29.8325 13.9514 30.1085 13.4919 30.3385 13.0325C30.6145 12.5271 30.8905 12.0676 31.1206 11.5622C31.2586 11.3325 31.3966 11.0568 31.5346 10.827C31.6726 10.5973 31.9026 10.3676 32.1786 10.2297C32.4086 10.0919 32.6387 10 32.9147 10C33.2367 10 33.5127 10 33.8347 10H36.8249H39.9991C40.2751 10 40.5512 10 40.8272 10C41.1492 10 41.3332 10.0459 41.4712 10.1838C41.7932 10.3676 41.8852 10.7351 41.7472 11.2406C41.6552 11.746 41.5632 12.2514 41.4712 12.7568L40.0911 19.6488L36.6409 36.7409L35.8589 40.7383C35.8129 41.0599 35.7209 41.4275 35.6288 41.7491C35.5368 42.0707 35.3988 42.3005 35.1688 42.4383C34.9388 42.5761 34.7088 42.668 34.4328 42.714C34.1568 42.714 33.8347 42.714 33.5127 42.714H31.3046H30.0625C29.8325 42.668 29.6485 42.6221 29.4645 42.5761C29.3264 42.5302 29.1884 42.4383 29.0964 42.2545C29.0044 42.1167 28.9584 41.8869 29.0044 41.6572C29.0504 41.4275 29.1424 41.1518 29.1884 40.8761L29.6485 38.5328L32.0406 26.7246C32.0866 26.311 32.1786 25.8975 32.2246 25.5299C32.3166 25.1164 32.4086 24.7489 32.4546 24.3353C32.5007 24.1056 32.5927 23.8299 32.6387 23.6002C32.6847 23.3245 32.7307 23.0488 32.7307 22.8191C32.6847 22.5894 32.6847 22.3596 32.7307 22.1299C32.7767 21.9002 32.7307 21.7164 32.5927 21.6704C32.5007 21.6245 32.4086 21.6704 32.3626 21.7164C32.3166 21.7623 32.2706 21.8083 32.2246 21.8542C32.0866 21.9921 31.9486 22.1299 31.8106 22.3137C31.7186 22.4515 31.6266 22.6353 31.5346 22.7732C31.2586 23.2326 30.9826 23.6921 30.7065 24.1975C30.4765 24.7029 30.2005 25.1624 29.8785 25.6678C29.7865 25.8516 29.6945 26.0354 29.6025 26.2191C29.5565 26.4029 29.4645 26.5867 29.3265 26.7705C29.0964 27.184 28.8664 27.5516 28.6364 27.9651C28.4524 28.3786 28.2224 28.7462 27.9924 29.1597C27.9464 29.2516 27.9004 29.3435 27.8544 29.4814C27.8084 29.5732 27.7624 29.6651 27.7164 29.757C27.5323 30.0327 27.3483 30.3084 27.2103 30.63C27.0723 30.9516 26.9343 31.2273 26.7043 31.549C26.5203 31.8246 26.3363 32.1003 26.1983 32.4219C26.0602 32.7436 25.9222 33.0192 25.7382 33.3409C25.1862 34.2139 24.6802 35.1328 24.2201 36.0517C23.7601 36.9247 23.3001 37.8436 22.794 38.7166C22.702 38.8085 22.656 38.9004 22.61 38.9923C22.61 39.0842 22.564 39.1761 22.472 39.268C22.242 39.5896 22.058 39.9572 21.874 40.3248C21.736 40.6464 21.552 41.014 21.3219 41.3356C21.1839 41.5653 21.0919 41.7491 20.9539 41.9329C20.8159 42.1167 20.6779 42.2545 20.5399 42.3923C20.3559 42.5302 20.1719 42.5761 20.0339 42.6221C19.8959 42.6221 19.6658 42.668 19.4358 42.714H18.3778C18.1477 42.714 17.9177 42.714 17.5957 42.7599C17.3197 42.7599 17.0437 42.7599 16.7217 42.7599C16.4456 42.7599 16.1696 42.7599 15.9396 42.714C15.7096 42.668 15.5256 42.6221 15.4336 42.5302C15.2036 42.3923 15.0656 42.2086 15.0195 42.0248C14.9735 41.795 14.9275 41.5653 14.8355 41.2896C14.7895 40.9221 14.7435 40.5545 14.6975 40.1869C14.6515 39.7734 14.6055 39.4058 14.5135 39.0382L14.4675 38.6247C14.3755 38.2572 14.3295 37.8896 14.2835 37.4761C14.2375 37.0625 14.1915 36.649 14.0995 36.2815C14.0995 36.1896 14.0995 36.0977 14.0995 36.0517C14.0995 35.9598 14.0995 35.8679 14.0535 35.776C13.9615 35.5004 13.9155 35.2247 13.8695 34.9031C13.8235 34.5814 13.7775 34.3057 13.7315 33.9841C13.7315 33.9382 13.7315 33.8463 13.7315 33.7544C13.7315 33.6625 13.7315 33.5706 13.6855 33.5247C13.6395 33.203 13.5935 32.9273 13.5475 32.6057C13.5475 32.2841 13.5015 32.0084 13.4094 31.6868C13.2714 31.0895 13.1794 30.4462 13.0874 29.757C13.0414 29.0678 12.9494 28.4246 12.8114 27.7813C12.6734 27.0002 12.5814 26.2191 12.4894 25.4381C12.4434 24.657 12.3054 23.8759 12.0754 23.1407C12.0294 22.7272 11.9374 22.3596 11.7993 22.084C11.7533 22.038 11.6613 21.9921 11.6153 21.9461C11.5693 21.9002 11.5233 21.9002 11.4313 21.9461C11.2473 22.038 11.1093 22.1758 11.0633 22.4056C11.0173 22.6353 10.9713 22.8191 10.8793 23.0488C10.7413 23.2786 10.6953 23.5083 10.6493 23.738C10.6033 23.9678 10.6033 24.1975 10.5573 24.4272C10.5113 24.7489 10.4193 25.1164 10.3273 25.4381C10.2812 25.7597 10.1892 26.1273 10.0972 26.4489L7.65908 38.6707L7.19906 40.9221C7.15305 41.1518 7.06105 41.4275 7.01504 41.6572C6.96904 41.8869 6.87703 42.1167 6.73903 42.2545C6.60102 42.4842 6.325 42.6221 5.95698 42.668C5.72696 42.714 5.49695 42.7599 5.26693 42.7599C5.03692 42.714 4.7609 42.714 4.53089 42.714H2.13874C1.81671 42.714 1.49469 42.714 1.21868 42.714C0.94266 42.668 0.712645 42.5761 0.574637 42.4383C0.436628 42.3005 0.390625 42.0707 0.390625 41.7491C0.436628 41.4275 0.528634 41.0599 0.574637 40.7383L1.35669 36.695L4.8069 19.6028L6.09498 13.1703C6.14099 12.9865 6.14099 12.7568 6.18699 12.5271C6.23299 12.2514 6.325 11.9757 6.371 11.746C6.41701 11.5162 6.50901 11.2865 6.55501 11.0568C6.64702 10.827 6.73903 10.6433 6.78503 10.5054C6.96904 10.2757 7.24506 10.1378 7.61308 10.0459C7.70509 10 7.75109 10 7.79709 10.0459C7.8891 10.0459 7.9351 10.0459 8.02711 10Z" fill="black"/>
<path d="M63.0489 40.9221C63.0489 41.2437 63.0029 41.6113 62.9568 41.9329C62.9108 42.2545 62.6808 42.4843 62.3588 42.6221C62.1288 42.714 61.8988 42.76 61.6688 42.76C61.4388 42.76 61.1627 42.76 60.9327 42.76H58.4486C58.1726 42.76 57.8965 42.76 57.6205 42.76C57.3905 42.714 57.2065 42.6681 57.0685 42.5302C56.8845 42.3924 56.7465 42.2545 56.7005 42.0248C56.6545 41.7951 56.5164 41.5653 56.3784 41.4275C56.3324 41.3816 56.2404 41.3356 56.1484 41.2897C56.1024 41.2437 55.9644 41.1978 55.8264 41.2437C55.6424 41.2897 55.4584 41.3816 55.3204 41.4735C55.1824 41.5653 54.9984 41.6572 54.8603 41.7032C54.6763 41.841 54.4923 41.9329 54.2623 42.0248C54.0783 42.1167 53.8943 42.2086 53.6643 42.3005C53.2502 42.4843 52.7902 42.6221 52.3302 42.76C51.8702 42.8519 51.4101 42.9437 50.9501 43.0816C50.7201 43.1275 50.4901 43.1735 50.2601 43.1735C50.076 43.2194 49.892 43.2194 49.662 43.2654C49.57 43.2654 49.478 43.2654 49.386 43.2654C49.294 43.3113 49.202 43.3113 49.11 43.3113H48.6039C48.2819 43.3573 47.9599 43.3573 47.6839 43.3113H47.2699C47.0399 43.2654 46.8558 43.2194 46.6258 43.2194C46.4418 43.2654 46.2578 43.2194 46.0738 43.1735C45.7978 43.1275 45.5218 43.0356 45.2457 42.9897C44.9697 42.9437 44.7397 42.8978 44.5097 42.76C43.6816 42.4383 42.9916 41.9789 42.4856 41.4735C41.9795 40.9221 41.6115 40.187 41.4275 39.314C41.3815 39.0842 41.3355 38.8545 41.2895 38.6248C41.2895 38.395 41.2895 38.1194 41.2435 37.8437C41.1975 37.7058 41.1975 37.522 41.2435 37.3842C41.2895 37.2464 41.3355 37.0626 41.3355 36.9247C41.3355 36.8328 41.3355 36.6491 41.3815 36.3734C41.4275 36.0518 41.5195 35.868 41.5655 35.7301C41.7035 35.4085 41.7495 35.1788 41.7955 34.949C41.9335 34.6274 42.1175 34.2598 42.2556 33.9382C42.4396 33.5706 42.6236 33.249 42.8536 32.9733C43.5436 32.1004 44.2337 31.4112 45.0157 30.9517C45.7978 30.4922 46.7178 30.0787 47.8679 29.7571C48.2819 29.6192 48.742 29.4814 49.156 29.4354C49.57 29.3895 50.03 29.2976 50.4901 29.2057C50.7201 29.1598 50.9961 29.1138 51.2721 29.1138C51.5941 29.0679 51.8702 29.0219 52.1462 28.976C52.3762 28.93 52.5602 28.8841 52.7902 28.93C53.0202 28.93 53.2502 28.8841 53.5263 28.8381C53.7563 28.7922 53.9403 28.7462 54.1703 28.7462C54.4003 28.7462 54.6303 28.7003 54.8603 28.6544C55.5504 28.5165 56.1484 28.3787 56.7005 28.2868C57.2985 28.1489 57.8505 27.8733 58.3566 27.4597C58.6786 27.1841 58.9086 26.8624 59.0926 26.5408C59.1386 26.4489 59.1386 26.357 59.1386 26.3111C59.1386 26.2651 59.1386 26.1732 59.1846 26.1273C59.2306 26.0813 59.2766 25.9895 59.2766 25.8516C59.3226 25.7138 59.3226 25.6219 59.3686 25.5759C59.3686 25.4381 59.3686 25.3462 59.3686 25.2084C59.3686 25.0705 59.3686 24.9786 59.3686 24.8867C59.2306 23.9678 58.7246 23.3246 57.8045 23.0029C57.5745 22.911 57.2525 22.8651 56.8385 22.8191C56.4704 22.7732 56.1024 22.7272 55.6884 22.7732C55.2744 22.7732 54.9063 22.8191 54.4923 22.8651C54.1243 22.911 53.8023 23.0029 53.5263 23.0948C53.2962 23.1408 53.1122 23.2327 52.9282 23.3705C52.7442 23.4624 52.5602 23.5543 52.3762 23.6921C52.1922 23.83 52.0082 23.9678 51.7781 24.1975C51.5481 24.4273 51.4101 24.6111 51.3181 24.7948C51.0881 25.1165 50.9041 25.3921 50.7661 25.6678C50.6281 25.9435 50.3521 26.1273 49.984 26.2192C49.754 26.2651 49.478 26.3111 49.202 26.3111C48.926 26.3111 48.65 26.3111 48.3739 26.3111H46.6258C46.4878 26.3111 46.3038 26.3111 46.1198 26.357C45.9818 26.357 45.8438 26.357 45.7518 26.3111H45.3377C45.2917 26.2651 45.1997 26.2651 45.1077 26.2651C45.0157 26.2651 44.9237 26.2192 44.8777 26.1732C44.6477 26.1273 44.5557 25.8976 44.5097 25.5759C44.5097 25.4381 44.5557 25.2543 44.6017 25.1165C44.6477 24.9786 44.7397 24.8408 44.7857 24.7029C44.9237 24.3813 45.1077 24.0597 45.2457 23.784C45.4298 23.4624 45.6138 23.1867 45.7978 22.957C45.9358 22.8191 46.0278 22.6354 46.1658 22.4975C46.3038 22.3597 46.3958 22.1759 46.5338 22.038C46.8558 21.7164 47.2239 21.3948 47.6379 21.0732C47.7299 21.0272 47.8219 20.9813 47.9599 20.8434C48.1439 20.7056 48.2819 20.6137 48.4199 20.5218C48.5579 20.4299 48.742 20.338 48.926 20.2461C49.524 19.9245 50.122 19.6488 50.7201 19.465C51.3641 19.2353 52.0082 19.0515 52.6522 18.8677C53.0662 18.7758 53.4343 18.7299 53.8483 18.6839C54.2623 18.638 54.6763 18.5921 55.0904 18.5002C55.2284 18.4542 55.4124 18.4542 55.6424 18.5002C55.8724 18.5461 56.0564 18.5002 56.1484 18.4542C57.3905 18.4083 58.5866 18.4542 59.6906 18.5921C60.8407 18.7299 61.8068 18.9596 62.6808 19.2812C63.5549 19.6029 64.2909 20.0623 64.843 20.6596C65.441 21.211 65.809 21.9462 65.993 22.8191C66.085 23.3246 66.085 23.9219 65.993 24.6111C65.901 25.3003 65.763 25.9895 65.625 26.6787L63.5549 36.9247C63.4629 37.522 63.3709 38.1194 63.2329 38.7167C63.0949 39.314 63.0489 39.8194 63.0949 40.3248C63.0949 40.4167 63.0949 40.5086 63.0489 40.6464C63.0489 40.7383 63.0489 40.8302 63.0489 40.9221ZM57.7125 33.8463C57.7585 33.7085 57.8045 33.5247 57.8505 33.3409C57.8965 33.1112 57.8965 32.9274 57.8965 32.7895C57.8965 32.6058 57.8965 32.422 57.9425 32.2841C57.9885 32.1463 57.9425 32.0085 57.8045 31.9166C57.6665 31.7787 57.4825 31.7328 57.1605 31.7328C57.0225 31.7787 56.9305 31.7787 56.8385 31.8247C56.7465 31.8247 56.6085 31.8247 56.4704 31.8706C56.2404 31.9166 56.0104 31.9625 55.7804 32.0085C55.5504 32.0544 55.2744 32.1004 54.9984 32.1463C54.9063 32.1922 54.7683 32.1922 54.5843 32.1922C54.1703 32.2841 53.7563 32.3301 53.3422 32.376C52.9282 32.422 52.5602 32.4679 52.1462 32.6058C51.9162 32.6517 51.6401 32.7436 51.4101 32.7895C51.1801 32.8355 50.9961 32.8814 50.7661 32.9733C50.076 33.249 49.432 33.6625 48.88 34.2139C48.3279 34.7653 48.0059 35.5463 47.9139 36.5112C47.8679 37.0166 47.9599 37.4761 48.1899 37.7977C48.3279 38.1194 48.5579 38.395 48.972 38.6248C49.386 38.8086 49.8 38.9464 50.3061 39.0383C50.8121 39.1302 51.3181 39.1761 51.8702 39.1302C52.4682 39.0842 53.0202 38.9464 53.5263 38.8086C54.4003 38.5788 55.0904 38.1653 55.6424 37.6599C56.2404 37.1085 56.7005 36.4193 57.1145 35.6382C57.2065 35.4085 57.2985 35.2247 57.3445 34.995C57.3905 34.7653 57.4825 34.4896 57.6205 34.2598L57.7125 33.8463Z" fill="black"/>
<path d="M116.361 30.6759C116.361 30.9057 116.315 31.1813 116.177 31.503C116.039 31.8246 115.901 32.0084 115.717 32.1003C115.579 32.2381 115.349 32.33 115.027 32.376C114.705 32.4219 114.383 32.4219 114.015 32.4679C113.693 32.4679 113.325 32.4679 112.957 32.4679C112.635 32.4219 112.313 32.4219 112.037 32.4219H100.812C100.582 32.4219 100.398 32.4219 100.168 32.4219C99.9841 32.4219 99.8001 32.4679 99.6621 32.5138C99.3861 32.6516 99.2021 32.7435 99.1101 32.8814C99.0641 32.9273 98.9721 33.0652 98.8341 33.2489C98.7421 33.3868 98.6961 33.5706 98.6961 33.7084C98.7421 33.8922 98.7421 34.076 98.6961 34.2598C98.6961 34.3976 98.696 34.5814 98.7421 34.7652C98.8341 35.5003 99.0181 36.0976 99.2481 36.603C99.5241 37.0625 99.9381 37.476 100.444 37.8436C100.674 37.9814 100.904 38.1193 101.134 38.1652C101.41 38.2112 101.686 38.2571 101.916 38.349C102.146 38.395 102.468 38.4409 102.882 38.4869C103.296 38.5328 103.71 38.4869 104.032 38.4409H104.446C104.768 38.395 105.044 38.3031 105.32 38.2571C105.596 38.1652 105.872 38.0733 106.149 37.9814C106.471 37.8436 106.885 37.6139 107.299 37.3841C107.713 37.1544 108.081 36.8787 108.311 36.649C108.495 36.4193 108.679 36.2355 108.909 36.0517C109.139 35.822 109.369 35.6841 109.599 35.5922C109.921 35.4544 110.335 35.3625 110.795 35.4084C111.301 35.4084 111.715 35.4084 112.129 35.4084C112.313 35.4084 112.497 35.4084 112.681 35.4084C112.911 35.3625 113.095 35.4084 113.233 35.4544H113.693C113.969 35.5003 114.153 35.5922 114.291 35.6841C114.383 35.7301 114.429 35.8679 114.383 36.0976C114.383 36.3274 114.337 36.5112 114.245 36.649C114.015 37.0625 113.739 37.476 113.463 37.7977C113.233 38.1193 112.957 38.4869 112.635 38.8085C111.761 39.8193 110.841 40.6463 109.875 41.2437C108.909 41.841 107.713 42.3923 106.333 42.8058C105.965 42.9437 105.596 42.9896 105.274 43.0356C104.952 43.0815 104.584 43.1275 104.17 43.2194C104.032 43.2653 103.894 43.2653 103.756 43.2194C103.618 43.2194 103.526 43.2194 103.388 43.2653H102.882C102.698 43.3112 102.514 43.3572 102.33 43.3112C102.146 43.3112 101.962 43.3112 101.824 43.2653C101.594 43.2194 101.364 43.2194 101.18 43.2653C100.996 43.3112 100.812 43.2653 100.582 43.2194C100.444 43.1734 100.26 43.1275 100.076 43.1275C99.8921 43.1275 99.7541 43.0815 99.6161 43.0356C99.2941 42.9896 98.9261 42.8977 98.604 42.8058C98.282 42.7599 98.006 42.6221 97.776 42.4842C97.454 42.3464 97.178 42.2545 96.9019 42.1626C96.6259 42.0247 96.3959 41.8869 96.1659 41.7491C95.2918 41.1518 94.5558 40.4166 93.9578 39.6355C93.3597 38.8085 92.9457 37.8436 92.6697 36.7868C92.5777 36.4652 92.5317 36.0976 92.4857 35.776C92.4857 35.4084 92.4397 35.0409 92.3477 34.6733C92.3477 34.5355 92.3477 34.4436 92.3477 34.3517C92.3937 34.2138 92.3937 34.1219 92.3937 33.9841C92.3477 33.6165 92.3477 33.203 92.3937 32.7895C92.4397 32.376 92.5317 31.9165 92.5777 31.503C92.6237 31.3651 92.6237 31.1814 92.6237 30.9976C92.6697 30.8138 92.7157 30.63 92.7617 30.4922L92.8997 29.9408L93.2677 28.8381C93.4977 28.3327 93.6817 27.8272 93.8658 27.3218C94.0498 26.8164 94.2798 26.357 94.5558 25.9434C96.5339 22.7731 99.2021 20.5217 102.652 19.1893C103.112 19.0055 103.572 18.8677 104.032 18.8217C104.492 18.7298 104.998 18.6379 105.504 18.5001C105.734 18.4541 105.965 18.4541 106.195 18.4541C106.425 18.4541 106.655 18.4541 106.885 18.4082C108.449 18.3623 109.737 18.546 110.795 18.9596C111.853 19.3271 112.727 19.8325 113.509 20.4298C113.739 20.6136 113.969 20.8434 114.199 21.0731C114.429 21.3028 114.659 21.5326 114.797 21.7623C114.843 21.9001 114.981 22.038 115.119 22.1299C115.303 22.4515 115.441 22.8191 115.579 23.1866C115.717 23.5083 115.901 23.8758 116.085 24.2434C116.177 24.5191 116.223 24.7948 116.269 25.1164C116.315 25.3921 116.407 25.7137 116.453 26.0353C116.499 26.4489 116.545 26.8624 116.545 27.2759C116.591 27.6894 116.591 28.1489 116.637 28.5624C116.637 28.7921 116.591 29.0678 116.499 29.3894C116.453 29.6651 116.407 29.9408 116.453 30.1705L116.361 30.6759ZM109.967 27.9651C110.243 27.6435 110.335 27.2759 110.243 26.8624C110.197 26.4029 110.151 26.0813 110.105 25.8515C109.829 25.0245 109.369 24.3813 108.771 23.9677C108.173 23.5083 107.207 23.2785 105.965 23.2326C105.872 23.2785 105.78 23.3245 105.642 23.2785C105.504 23.2326 105.412 23.2326 105.32 23.2785C105.136 23.3245 104.952 23.3704 104.768 23.4164C104.584 23.4164 104.4 23.4623 104.262 23.5083C102.836 23.9218 101.64 24.7948 100.766 26.0353C100.674 26.1732 100.582 26.311 100.444 26.5407C100.306 26.7245 100.214 26.9083 100.168 27.138C100.122 27.3218 100.076 27.5056 100.076 27.6894C100.076 27.8732 100.168 28.011 100.306 28.1489C100.536 28.2867 100.858 28.3786 101.272 28.3786C101.686 28.3786 102.1 28.3786 102.514 28.3786H107.621C108.035 28.3786 108.495 28.3786 108.955 28.3786C109.461 28.3327 109.783 28.1948 109.967 27.9651Z" fill="black"/>
<path d="M136.236 18.4541C138.077 18.4082 139.549 18.6379 140.653 19.2352C141.803 19.8325 142.585 20.6596 143.045 21.8082C143.183 22.1299 143.275 22.4974 143.321 22.911C143.367 23.2785 143.413 23.6461 143.459 24.0596C143.505 24.2894 143.505 24.5191 143.459 24.7488C143.413 24.9786 143.413 25.1623 143.459 25.3921C143.413 25.5759 143.367 25.7137 143.413 25.7597C143.367 26.1732 143.321 26.6326 143.229 27.0921C143.137 27.5516 143.045 28.011 142.953 28.4246L142.171 32.5138L140.653 39.9572C140.515 40.5545 140.423 41.1058 140.285 41.6572C140.147 42.1626 139.871 42.5302 139.411 42.668C139.227 42.7139 138.997 42.7599 138.767 42.7599C138.537 42.7599 138.261 42.7599 138.031 42.7599H135.546C135.178 42.7599 134.856 42.7599 134.58 42.7139C134.304 42.668 134.12 42.5302 133.982 42.3004C133.89 42.1166 133.844 41.8869 133.89 41.6112C133.936 41.2896 134.028 40.968 134.074 40.6464L134.718 37.4301L136.098 30.584C136.328 29.4354 136.466 28.4246 136.558 27.4597C136.696 26.4948 136.558 25.6678 136.236 24.9786C135.914 24.3813 135.408 23.9218 134.626 23.6921C134.488 23.6461 134.304 23.6002 134.12 23.6002C133.982 23.6002 133.798 23.5542 133.66 23.5083C133.522 23.4623 133.292 23.4623 133.062 23.5083C132.832 23.5083 132.694 23.5083 132.556 23.5542C132.418 23.6002 132.28 23.6002 132.188 23.6002C132.096 23.6002 132.004 23.6002 131.912 23.6461C131.176 23.8299 130.578 24.0596 130.072 24.3813C128.922 25.0705 128.14 26.1272 127.68 27.4597C127.266 28.7921 126.852 30.3084 126.53 32.0084L125.38 37.7517L124.828 40.5545C124.782 40.8301 124.69 41.1058 124.644 41.3815C124.598 41.6572 124.506 41.8869 124.368 42.0707C124.138 42.3923 123.862 42.6221 123.494 42.668C123.172 42.7139 122.758 42.7599 122.252 42.7599H119.951C119.629 42.7599 119.261 42.7599 118.939 42.7139C118.617 42.668 118.387 42.5761 118.295 42.3923C118.111 42.1166 118.065 41.7031 118.203 41.1977C118.341 40.6923 118.433 40.1869 118.525 39.7274L119.767 33.4787L121.792 23.3704L122.298 21.0272C122.344 20.7055 122.436 20.3839 122.482 20.1082C122.528 19.8325 122.666 19.6028 122.896 19.419C122.942 19.3271 123.08 19.2812 123.218 19.2352C123.356 19.1893 123.54 19.1433 123.678 19.0974H123.908C124.046 19.0515 124.23 19.0515 124.368 19.0515C124.552 19.0515 124.736 19.0515 124.874 19.0515H126.806C127.036 19.0515 127.266 19.0515 127.496 19.0974C127.726 19.0974 127.956 19.1433 128.14 19.1893C128.324 19.2812 128.416 19.419 128.462 19.6028C128.508 19.7866 128.554 20.0163 128.554 20.2461C128.554 20.3839 128.554 20.4758 128.508 20.5677C128.462 20.6596 128.462 20.7515 128.508 20.8434C128.554 20.9812 128.554 21.0731 128.6 21.119C128.646 21.165 128.738 21.2109 128.83 21.2569C129.152 21.3028 129.428 21.165 129.704 20.9353C129.98 20.6596 130.256 20.4299 130.532 20.292C131.498 19.6947 132.51 19.1893 133.568 18.8217C133.89 18.7298 134.166 18.6839 134.442 18.6379C134.764 18.592 135.086 18.546 135.454 18.5001C135.546 18.4541 135.684 18.4541 135.868 18.5001C136.052 18.5001 136.144 18.5001 136.236 18.4541Z" fill="black"/>
<path d="M147.598 18.4082C147.644 18.4541 147.644 18.5001 147.644 18.546C147.644 18.5919 147.644 18.6838 147.598 18.7757V18.8676C147.552 18.9136 147.552 18.9595 147.506 19.0055C147.46 19.0514 147.46 19.0514 147.368 19.0974C147.322 19.0974 147.23 19.0974 147.138 19.0974C147.046 19.0974 146.954 19.0974 146.908 19.0974H146.77C146.724 19.0974 146.724 19.0974 146.678 19.0974C146.632 19.0974 146.632 19.0974 146.586 19.0974C146.54 19.1433 146.448 19.1893 146.402 19.2811C146.402 19.3271 146.356 19.3271 146.356 19.373C146.356 19.419 146.356 19.4649 146.356 19.5109L145.896 21.6704C145.896 21.7163 145.896 21.7163 145.896 21.7623C145.896 21.8082 145.896 21.8082 145.896 21.8542V21.946V21.992C145.896 21.992 145.896 22.0379 145.85 22.0379C145.804 22.0839 145.804 22.1298 145.712 22.1298C145.666 22.1298 145.666 22.1298 145.62 22.1298C145.574 22.1298 145.528 22.1298 145.482 22.1298C145.39 22.1298 145.298 22.1298 145.206 22.1298C145.114 22.1298 145.022 22.0839 144.976 22.0379C144.976 21.992 144.93 21.946 144.976 21.9001C144.976 21.8542 145.022 21.8082 145.022 21.7163L145.436 19.5568C145.436 19.5109 145.436 19.5109 145.436 19.4649C145.436 19.419 145.436 19.419 145.436 19.373V19.2352C145.436 19.1433 145.39 19.0974 145.344 19.0514C145.298 19.0055 145.206 19.0055 145.114 19.0055C145.022 19.0055 144.93 19.0055 144.838 19.0055C144.792 19.0055 144.792 19.0055 144.746 19.0055C144.7 19.0055 144.7 19.0055 144.7 19.0055C144.654 19.0055 144.654 19.0055 144.654 19.0055H144.608C144.562 18.9595 144.516 18.9136 144.516 18.8676C144.516 18.8217 144.516 18.7298 144.562 18.6379C144.562 18.5919 144.562 18.546 144.562 18.546C144.562 18.5001 144.608 18.5001 144.608 18.4541C144.608 18.4082 144.654 18.4082 144.7 18.4082C144.746 18.4082 144.746 18.3622 144.792 18.3622H144.838H144.884H147.322C147.368 18.3622 147.414 18.3622 147.46 18.3622C147.552 18.4082 147.598 18.4082 147.598 18.4082ZM152.52 18.4541C152.566 18.5001 152.566 18.546 152.52 18.5919C152.52 18.6379 152.52 18.7298 152.474 18.7757L151.876 21.7623C151.876 21.8082 151.83 21.9001 151.83 21.946C151.83 21.992 151.784 22.0379 151.784 22.0839C151.738 22.1298 151.692 22.1758 151.6 22.1758C151.508 22.1758 151.416 22.1758 151.324 22.1758C151.278 22.1758 151.232 22.1758 151.186 22.1758C151.14 22.1758 151.14 22.1758 151.094 22.1758C151.048 22.1758 151.002 22.1298 151.002 22.0839C151.002 22.0379 151.002 21.992 151.002 21.946L151.048 21.8082V21.7623C151.048 21.7163 151.048 21.7163 151.048 21.6704L151.278 20.5217C151.278 20.4298 151.324 20.3839 151.324 20.292C151.324 20.2001 151.37 20.1541 151.37 20.1082C151.37 20.0622 151.37 20.0622 151.37 20.0163C151.37 19.9703 151.37 19.9703 151.324 19.9703C151.324 19.9703 151.324 19.9703 151.278 19.9703L151.232 20.0163C151.186 20.1082 151.094 20.1541 151.048 20.246C151.002 20.3379 150.956 20.4298 150.91 20.5217C150.818 20.7055 150.68 20.8893 150.588 21.119C150.496 21.3028 150.358 21.4866 150.266 21.6704C150.22 21.7623 150.174 21.8542 150.128 21.946C150.082 22.0379 149.99 22.1298 149.944 22.1758C149.898 22.2217 149.852 22.2217 149.806 22.2217C149.76 22.2217 149.714 22.2217 149.668 22.2217H149.484C149.438 22.2217 149.438 22.2217 149.392 22.1758C149.346 22.1758 149.346 22.1298 149.346 22.1298C149.346 22.1298 149.3 22.0839 149.3 22.0379C149.3 21.992 149.3 21.992 149.3 21.946C149.3 21.9001 149.254 21.8542 149.254 21.7623C149.254 21.7163 149.254 21.6244 149.208 21.5785C149.162 21.3947 149.162 21.2109 149.116 21.0271C149.07 20.8433 149.07 20.6595 149.024 20.4758C149.024 20.3839 148.978 20.246 148.978 20.1541C148.978 20.0622 148.932 19.9703 148.886 19.8785C148.886 19.8785 148.886 19.8785 148.84 19.8785C148.794 19.9244 148.794 19.9244 148.794 19.9703C148.794 20.0163 148.748 20.0163 148.748 20.0622C148.748 20.1082 148.748 20.1082 148.748 20.1541L148.702 20.292C148.702 20.3379 148.702 20.3379 148.656 20.3839C148.61 20.4298 148.656 20.4298 148.656 20.4298L148.426 21.4866C148.426 21.5785 148.38 21.6704 148.38 21.7623C148.38 21.8542 148.334 21.946 148.288 21.992L148.242 22.0379C148.242 22.0379 148.196 22.0379 148.196 22.0839C148.15 22.0839 148.15 22.0839 148.104 22.1298C148.058 22.1298 148.012 22.1298 147.966 22.1298C147.874 22.1298 147.828 22.1298 147.736 22.1298C147.644 22.1298 147.598 22.1298 147.552 22.0839C147.506 22.0379 147.506 22.0379 147.506 21.946C147.506 21.9001 147.506 21.8082 147.552 21.7623L148.15 18.7298C148.15 18.6838 148.196 18.6379 148.196 18.5919C148.196 18.546 148.242 18.5001 148.242 18.4541C148.288 18.4082 148.334 18.3622 148.38 18.3622H148.426H148.472H149.07C149.116 18.3622 149.208 18.3622 149.254 18.3622C149.3 18.3622 149.346 18.3622 149.392 18.4082C149.438 18.4541 149.484 18.5001 149.484 18.5919C149.484 18.6838 149.53 18.7298 149.53 18.8217C149.576 19.0055 149.576 19.1893 149.622 19.3271C149.668 19.5109 149.668 19.6947 149.714 19.8325C149.76 19.9244 149.76 20.0163 149.76 20.1082C149.76 20.2001 149.806 20.292 149.806 20.3839C149.806 20.4298 149.806 20.4758 149.852 20.5217C149.852 20.5676 149.898 20.5676 149.944 20.6136C149.99 20.6136 149.99 20.6136 150.036 20.6136C150.082 20.5676 150.082 20.5677 150.082 20.5677C150.128 20.5217 150.174 20.4298 150.22 20.3379C150.266 20.246 150.312 20.2001 150.358 20.1082C150.496 19.9244 150.588 19.6947 150.726 19.5109C150.864 19.2811 150.956 19.0974 151.094 18.8676C151.14 18.7757 151.186 18.6838 151.232 18.5919C151.278 18.5001 151.37 18.4082 151.462 18.4082C151.508 18.4082 151.554 18.4082 151.6 18.4082C151.646 18.4082 151.692 18.4082 151.738 18.4082H152.152C152.198 18.4082 152.244 18.4082 152.244 18.4082C152.29 18.4082 152.336 18.4082 152.336 18.4082H152.382C152.428 18.4082 152.428 18.4082 152.474 18.4541C152.474 18.4082 152.52 18.4082 152.52 18.4541Z" fill="black"/>
<path d="M70.5944 17.9597C70.3951 18.4468 70.2467 19.5024 70.1909 20.9132L71.7872 21.6604C71.7481 20.6515 71.7738 19.7017 71.8645 18.8378C71.8697 18.7732 71.875 18.7355 71.875 18.7355C71.874 18.77 71.8654 18.8034 71.8645 18.8378C71.836 19.1222 71.78 20.0139 71.8928 21.6214C72.5427 21.0784 73.4762 20.1601 74.2139 19.3756C73.4036 17.7739 72.4175 17.5046 72.4175 17.5046C72.4175 17.5046 71.0049 16.9562 70.5944 17.9597Z" fill="url(#paint0_linear)"/>
<path d="M76.2451 30.0598C76.1718 30.1419 76.0953 30.2198 76.0188 30.2976C76.0587 30.2608 76.0997 30.2165 76.1363 30.1754C76.1762 30.1387 76.2128 30.0976 76.2451 30.0598Z" fill="#BE202E"/>
<path opacity="0.35" d="M76.2451 30.0598C76.1718 30.1419 76.0953 30.2198 76.0188 30.2976C76.0587 30.2608 76.0997 30.2165 76.1363 30.1754C76.1762 30.1387 76.2128 30.0976 76.2451 30.0598Z" fill="#BE202E"/>
<path d="M75.6484 28.8038C75.6441 28.807 75.6441 28.807 75.6484 28.8038C75.6613 28.7941 75.671 28.78 75.6839 28.7703C75.7335 28.7195 75.7831 28.6686 75.8251 28.6168C75.7701 28.6784 75.7076 28.7389 75.6484 28.8038V28.8038Z" fill="#BE202E"/>
<path opacity="0.35" d="M75.6484 28.8038C75.6441 28.807 75.6441 28.807 75.6484 28.8038C75.6613 28.7941 75.671 28.78 75.6839 28.7703C75.7335 28.7195 75.7831 28.6686 75.8251 28.6168C75.7701 28.6784 75.7076 28.7389 75.6484 28.8038V28.8038Z" fill="#BE202E"/>
<path d="M72.2607 26.3328C72.1807 25.8065 72.1072 25.2887 72.0402 24.7795C71.9721 24.2509 71.918 23.732 71.8747 23.2185C71.8714 23.1873 71.8681 23.156 71.868 23.1291C71.8269 22.6274 71.7955 22.1386 71.7782 21.6595L70.1852 20.9166C70.1832 21.0125 70.177 21.1115 70.174 21.2149C70.1631 21.594 70.1565 21.9967 70.1586 22.4199C70.1609 22.8969 70.1718 23.3944 70.1871 23.9155C70.2044 24.3946 70.2304 24.8942 70.2629 25.4024C70.2942 25.8373 70.3287 26.2766 70.3696 26.7245C70.3708 26.7439 70.373 26.7557 70.3741 26.7751L72.5058 27.8205C72.4259 27.321 72.3417 26.8248 72.2607 26.3328V26.3328Z" fill="url(#paint1_linear)"/>
<path d="M75.5494 38.8042C75.6711 39.1981 75.795 39.6038 75.9297 40.0149C75.9329 40.0192 75.9319 40.0267 75.9351 40.031C75.9536 40.0913 75.9688 40.1472 75.9916 40.2043C76.0796 40.4819 76.1643 40.7283 76.3468 41.2922C76.6884 41.2172 77.1178 41.366 77.5668 41.5675C77.276 41.2267 76.8765 41.0014 76.402 40.954C77.6882 40.0736 78.5275 38.9498 78.3906 37.6234C78.3763 37.5061 78.3587 37.3844 78.3336 37.2617C78.3198 37.7711 78.1137 38.142 77.498 38.5514L77.4937 38.5546L77.498 38.5514C78.0712 37.5132 78.2236 36.8118 78.1427 35.9085C78.1228 35.6943 78.0932 35.4671 78.0505 35.2228C77.8802 36.5713 77.1676 37.4515 76.1155 37.9803L75.4809 38.5793C75.5048 38.6557 75.5255 38.7278 75.5494 38.8042Z" fill="url(#paint2_linear)"/>
<path d="M74.7024 37.0092C74.561 36.5088 74.4207 36.0009 74.2771 35.4886C74.1423 34.9968 74.0117 34.5018 73.8822 33.9992C73.7527 33.4966 73.6275 32.9908 73.5023 32.485C73.3749 31.9673 73.255 31.4507 73.1395 30.9309C73.0229 30.4186 72.9149 29.8998 72.8059 29.3886C72.7666 29.2024 72.7306 29.0205 72.6956 28.831C72.6323 28.5146 72.5733 28.1949 72.5143 27.8752C72.5089 27.8591 72.5078 27.8397 72.5023 27.8236L70.3825 26.776C70.3858 26.8073 70.3924 26.8428 70.3914 26.8772C70.44 27.3531 70.4875 27.8364 70.5502 28.3219C70.6117 28.815 70.6809 29.3091 70.7608 29.8085C70.8286 30.2294 70.9008 30.647 70.9762 31.069C70.9915 31.1518 71.01 31.239 71.0253 31.3219C71.129 31.8439 71.2391 32.3476 71.3578 32.8179C71.4906 33.3517 71.632 33.8521 71.7743 34.3181C71.8699 34.6237 71.9634 34.9174 72.0589 35.1961C72.1414 35.4307 72.2315 35.6663 72.3183 35.8976C72.5266 36.442 72.7564 36.9702 73.0035 37.4855L75.1459 38.5362C75.0275 38.1467 74.9176 37.7507 74.797 37.3493C74.7665 37.2374 74.7361 37.1254 74.7024 37.0092V37.0092Z" fill="url(#paint3_linear)"/>
<path d="M73.0331 37.5553C73.3343 38.1781 73.6656 38.7783 74.0357 39.3492C74.0486 39.3664 74.0606 39.3912 74.0735 39.4084C73.4822 39.1792 72.4412 39.302 72.4487 39.303C73.5298 39.6626 74.4795 40.1074 75.0838 40.792C74.8505 41.0552 74.4101 41.2586 73.8553 41.4267C74.6263 41.5004 75.0539 41.3606 75.21 41.2903C74.812 41.6303 74.5947 42.2456 74.4055 42.9071C74.8489 42.1622 75.2918 41.667 75.7268 41.4744C76.3928 43.5824 77.1918 45.8666 78.0751 48.2627C78.2169 48.075 78.2305 47.8693 78.1674 47.6606C78.0047 47.2302 76.9542 44.3801 75.7471 40.5085C75.7124 40.3998 75.6819 40.2879 75.6439 40.1749C75.633 40.1427 75.6254 40.1147 75.6146 40.0824C75.4907 39.6767 75.3646 39.2592 75.2364 38.8299C75.2081 38.7298 75.1788 38.6373 75.1505 38.5372L75.1473 38.5329L73.0049 37.4822C73.0125 37.5102 73.0211 37.5306 73.0331 37.5553V37.5553Z" fill="url(#paint4_linear)"/>
<path d="M72.7527 27.8622C72.7658 27.9332 72.78 27.9967 72.7931 28.0677C72.8367 28.2776 72.8761 28.4908 72.9229 28.7049C72.9709 28.9385 73.0222 29.1764 73.0724 29.4218C73.0975 29.5445 73.1226 29.6672 73.1509 29.7942C73.2327 30.1709 73.3209 30.5562 73.4114 30.9534C73.5236 31.442 73.6456 31.9436 73.7762 32.4655C73.8993 32.9595 74.031 33.474 74.1692 33.997C74.303 34.4964 74.439 35.0076 74.588 35.536C74.7185 36.0041 74.8587 36.4852 75.0011 36.978C75.0055 37.0017 75.0174 37.0265 75.0218 37.0502C75.1653 37.5355 75.3142 38.037 75.4696 38.5471C75.4718 38.5589 75.474 38.5707 75.4805 38.5793L76.1151 37.9804C76.0989 37.9858 76.086 37.9955 76.0656 38.0042C76.8184 37.2757 77.4531 35.8272 77.5858 34.5272C77.6469 33.9283 77.6324 33.292 77.5412 32.5987C77.4753 32.0819 77.3629 31.5395 77.2106 30.9529C77.0778 30.446 76.9148 29.908 76.7172 29.342C76.6024 29.5834 76.4381 29.8217 76.2359 30.0548C76.1994 30.0957 76.1628 30.1367 76.1263 30.1777C76.0897 30.2187 76.0499 30.2554 76.0091 30.2997C76.56 29.4198 76.6148 28.4818 76.4357 27.5109C76.3372 27.8008 76.142 28.2308 75.8141 28.6192C75.7722 28.6709 75.7228 28.7217 75.6733 28.7724C75.6604 28.7821 75.6507 28.7961 75.6335 28.8091C75.816 28.4964 75.95 28.2 76.0345 27.9005C76.0548 27.838 76.0676 27.7744 76.0804 27.7109C76.1017 27.6139 76.1155 27.5159 76.1293 27.4179C76.1345 27.3532 76.143 27.2929 76.1482 27.2283C76.1575 27.0797 76.1561 26.9257 76.1395 26.7696C76.1351 26.719 76.1339 26.6727 76.1252 26.6253C76.1121 26.5543 76.1022 26.4875 76.088 26.424C76.0334 26.128 75.9735 25.8697 75.9126 25.6459C75.8821 25.534 75.8538 25.4339 75.8245 25.3413C75.8104 25.3047 75.8038 25.2692 75.7897 25.2326C75.7539 25.1315 75.7246 25.0389 75.6931 24.9615C75.6476 24.8474 75.6064 24.7571 75.5728 24.6947C75.5632 24.7356 75.5493 24.7798 75.5278 24.8229C75.3992 25.1355 75.0963 25.5658 74.8188 25.8689L75.404 25.3207L74.8188 25.8689C74.8145 25.8722 74.8102 25.8754 74.8092 25.8829C74.7823 25.9099 74.7511 25.9401 74.7232 25.9747C74.7242 25.9671 74.7328 25.9606 74.7339 25.9531L72.7343 27.8288C72.7516 27.8428 72.7538 27.8546 72.7527 27.8622V27.8622Z" fill="url(#paint5_linear)"/>
<path d="M71.8944 21.621C71.9245 22.0636 71.97 22.562 72.0274 23.1122C72.0307 23.1434 72.0307 23.1703 72.0384 23.1983C72.0902 23.6785 72.1561 24.1952 72.2384 24.7604C72.3086 25.247 72.3864 25.7615 72.4815 26.317C72.5603 26.7971 72.6553 27.2987 72.7536 27.8315L74.7533 25.9558C75.1654 25.1871 75.2516 24.711 75.2383 24.1209C75.2336 23.9626 75.2224 23.7957 75.208 23.6245C75.169 23.1077 75.0997 22.5598 75.0046 22.0312C74.915 21.5188 74.8071 21.0269 74.6853 20.6062C74.6081 20.3339 74.5266 20.0918 74.4442 19.8841C74.3694 19.7044 74.2924 19.5398 74.2144 19.3828C73.4778 20.1597 72.5442 21.078 71.8944 21.621Z" fill="url(#paint6_linear)"/>
<path d="M76.1396 30.1798C76.1029 30.2209 76.0631 30.2576 76.0221 30.302C76.0587 30.2609 76.0954 30.2198 76.1396 30.1798Z" fill="#BE202E"/>
<path opacity="0.35" d="M76.1396 30.1798C76.1029 30.2209 76.0631 30.2576 76.0221 30.302C76.0587 30.2609 76.0954 30.2198 76.1396 30.1798Z" fill="#BE202E"/>
<path d="M76.1396 30.1798C76.1029 30.2209 76.0631 30.2576 76.0221 30.302C76.0587 30.2609 76.0954 30.2198 76.1396 30.1798Z" fill="url(#paint7_linear)"/>
<path d="M75.6458 28.8071C75.6588 28.7974 75.6684 28.7834 75.6857 28.7704C75.6728 28.7801 75.6631 28.7942 75.6458 28.8071Z" fill="#BE202E"/>
<path opacity="0.35" d="M75.6458 28.8071C75.6588 28.7974 75.6684 28.7834 75.6857 28.7704C75.6728 28.7801 75.6631 28.7942 75.6458 28.8071Z" fill="#BE202E"/>
<path d="M75.6458 28.8071C75.6588 28.7974 75.6684 28.7834 75.6857 28.7704C75.6728 28.7801 75.6631 28.7942 75.6458 28.8071Z" fill="url(#paint8_linear)"/>
<path d="M91.8129 17.8476C91.2552 18.0774 90.275 18.8062 89.0795 19.896L89.7544 21.7954C90.5457 20.9518 91.341 20.2084 92.1184 19.587C92.1753 19.5393 92.2103 19.5133 92.2103 19.5133C92.1814 19.5402 92.1473 19.5601 92.1184 19.587C91.8636 19.7927 91.0913 20.4647 89.8711 21.8499C90.8367 21.9414 92.3367 21.9617 93.5699 21.9304C94.2242 19.9826 93.6506 18.964 93.6506 18.964C93.6506 18.964 92.9614 17.374 91.8129 17.8476Z" fill="url(#paint9_linear)"/>
<path d="M86.4958 32.1815C86.3699 32.1881 86.2449 32.1885 86.1199 32.1889C86.182 32.1918 86.251 32.1894 86.314 32.1861C86.376 32.189 86.4389 32.1857 86.4958 32.1815Z" fill="#BE202E"/>
<path opacity="0.35" d="M86.4958 32.1815C86.3699 32.1881 86.2449 32.1885 86.1199 32.1889C86.182 32.1918 86.251 32.1894 86.314 32.1861C86.376 32.189 86.4389 32.1857 86.4958 32.1815Z" fill="#BE202E"/>
<path d="M87.0384 30.6853C87.0323 30.6844 87.0323 30.6844 87.0384 30.6853C87.0568 30.688 87.076 30.6846 87.0943 30.6873C87.1756 30.6867 87.2569 30.6861 87.333 30.6785C87.2386 30.6834 87.1389 30.6813 87.0384 30.6853V30.6853Z" fill="#BE202E"/>
<path opacity="0.35" d="M87.0384 30.6853C87.0323 30.6844 87.0323 30.6844 87.0384 30.6853C87.0568 30.688 87.076 30.6846 87.0943 30.6873C87.1756 30.6867 87.2569 30.6861 87.333 30.6785C87.2386 30.6834 87.1389 30.6813 87.0384 30.6853V30.6853Z" fill="#BE202E"/>
<path d="M86.3263 25.94C86.6912 25.4514 87.0544 24.975 87.4157 24.5108C87.7919 24.0301 88.1716 23.5686 88.5555 23.1202C88.5783 23.0924 88.6011 23.0645 88.623 23.0428C88.9991 22.6057 89.3725 22.1869 89.7492 21.7873L89.0735 19.894C88.9938 19.9696 88.908 20.0442 88.8213 20.125C88.5034 20.4211 88.1697 20.7398 87.8263 21.082C87.4391 21.4677 87.0422 21.8768 86.6295 22.3086C86.2527 22.7082 85.8663 23.1314 85.478 23.5667C85.1484 23.9421 84.818 24.3236 84.4857 24.7173C84.4708 24.7338 84.4629 24.7451 84.448 24.7616L85.3103 27.3363C85.6534 26.8694 85.9903 26.4017 86.3263 25.94V25.94Z" fill="url(#paint10_linear)"/>
<path d="M78.7996 38.6481C78.5763 39.064 78.3451 39.4913 78.1182 39.9316C78.1173 39.9377 78.1103 39.9429 78.1094 39.949C78.0752 40.0125 78.0418 40.0699 78.0136 40.1343C77.858 40.4293 77.7251 40.6964 77.4121 41.2986C77.7481 41.516 77.9722 41.985 78.1691 42.5122C78.213 42.0015 78.0754 41.4954 77.7324 41.0713C79.485 41.409 81.0767 41.1872 82.0483 40.0086C82.1325 39.9025 82.2175 39.7903 82.2974 39.6712C81.8709 40.0698 81.4026 40.2006 80.5734 40.0294L80.5673 40.0285L80.5734 40.0294C81.8812 39.6601 82.5758 39.2198 83.2474 38.4271C83.4061 38.2385 83.5675 38.0316 83.7325 37.8003C82.4957 38.747 81.2046 38.8757 79.927 38.4456L78.928 38.4115C78.8849 38.4924 78.8427 38.5672 78.7996 38.6481Z" fill="url(#paint11_linear)"/>
<path d="M79.582 36.5143C79.8764 35.9967 80.1777 35.4739 80.4799 34.945C80.7725 34.4396 81.0711 33.9351 81.3768 33.4253C81.6824 32.9156 81.9942 32.4068 82.306 31.898C82.6256 31.3779 82.9505 30.8647 83.2814 30.3525C83.6054 29.8454 83.9416 29.3402 84.2707 28.8402C84.391 28.6584 84.5104 28.4828 84.6367 28.3019C84.8438 27.9958 85.0571 27.6906 85.2703 27.3854C85.2791 27.368 85.294 27.3515 85.3028 27.3341L84.4518 24.7673C84.429 24.7951 84.4053 24.829 84.3764 24.856C84.0275 25.2783 83.6715 25.7059 83.326 26.1475C82.9735 26.5943 82.6262 27.0481 82.2832 27.5149C81.9946 27.9088 81.7121 28.3035 81.4287 28.7043C81.3734 28.7835 81.3172 28.8687 81.2619 28.9478C80.9196 29.4522 80.5975 29.947 80.3094 30.4219C79.981 30.9594 79.6866 31.4771 79.4212 31.9677C79.2489 32.2914 79.0845 32.6037 78.9341 32.9057C78.8092 33.1615 78.6895 33.4243 78.5707 33.6811C78.2943 34.2885 78.0485 34.9004 77.827 35.5159L78.6936 38.1037C78.916 37.6939 79.1506 37.2859 79.3808 36.8649C79.4476 36.75 79.5144 36.6352 79.582 36.5143V36.5143Z" fill="url(#paint12_linear)"/>
<path d="M77.7965 35.5974C77.5309 36.3434 77.3081 37.0958 77.1402 37.8561C77.1366 37.8805 77.126 37.9101 77.1224 37.9345C76.8337 37.2693 75.8962 36.5214 75.9014 36.5284C76.4778 37.6968 76.879 38.8271 76.8068 39.8694C76.4045 39.8915 75.8845 39.697 75.3012 39.3811C75.8612 40.0674 76.3191 40.3026 76.5021 40.373C75.9047 40.3229 75.2281 40.6413 74.5366 41.0197C75.5007 40.7808 76.2607 40.7426 76.7677 40.9415C75.5845 43.1792 74.3646 45.6669 73.1214 48.3132C73.3885 48.2776 73.5671 48.1231 73.6866 47.9038C73.9066 47.4252 75.3856 44.2777 77.5715 40.1808C77.6322 40.0651 77.699 39.9502 77.7605 39.8284C77.7781 39.7936 77.7948 39.7649 77.8124 39.7301C78.0435 39.3029 78.2826 38.8645 78.5295 38.4147C78.5884 38.3112 78.6402 38.2129 78.6991 38.1094L78.7 38.1033L77.8334 35.5156C77.8168 35.5443 77.8071 35.5678 77.7965 35.5974V35.5974Z" fill="url(#paint13_linear)"/>
<path d="M85.4776 27.5711C85.4302 27.6389 85.3898 27.7016 85.3424 27.7694C85.2064 27.9738 85.0642 28.1772 84.9272 28.3877C84.7754 28.6147 84.6226 28.8477 84.4629 29.086C84.383 29.2052 84.3031 29.3243 84.2223 29.4495C83.9809 29.8192 83.7377 30.201 83.4866 30.5941C83.1784 31.0786 82.8675 31.5813 82.5469 32.1076C82.243 32.6051 81.9294 33.1261 81.614 33.6594C81.3145 34.17 81.007 34.692 80.6959 35.2383C80.4191 35.7211 80.1397 36.2222 79.8523 36.7346C79.8365 36.7573 79.8259 36.7869 79.8101 36.8095C79.5298 37.3167 79.2406 37.8413 78.9496 38.3781C78.9417 38.3894 78.9338 38.4007 78.932 38.4129L79.931 38.4471C79.9136 38.4383 79.8953 38.4356 79.8718 38.4259C81.0715 38.4521 82.7634 37.8026 83.9303 36.8645C84.4678 36.4323 84.9751 35.9085 85.4671 35.2765C85.8355 34.8071 86.1875 34.2792 86.5432 33.6833C86.8498 33.1675 87.1575 32.602 87.4601 31.9859C87.1708 32.0868 86.8443 32.1449 86.4916 32.168C86.4288 32.1713 86.366 32.1746 86.3031 32.1778C86.2403 32.1811 86.1783 32.1782 86.1094 32.1806C87.2701 31.9207 88.0792 31.2105 88.7268 30.2836C88.4112 30.4367 87.9035 30.6241 87.3231 30.6699C87.2471 30.6775 87.166 30.678 87.0848 30.6786C87.0665 30.6759 87.0473 30.6794 87.0229 30.6758C87.4247 30.5726 87.7742 30.4431 88.0864 30.2708C88.1537 30.237 88.2158 30.1963 88.278 30.1555C88.3742 30.0949 88.4652 30.0272 88.5562 29.9595C88.6131 29.9118 88.6691 29.8701 88.7261 29.8224C88.8548 29.7104 88.9792 29.5853 89.0932 29.4463C89.1309 29.4019 89.1677 29.3637 89.1992 29.3185C89.2466 29.2507 89.2931 29.1889 89.3335 29.1263C89.531 28.8437 89.6934 28.5871 89.827 28.3575C89.8937 28.2427 89.9526 28.1391 90.0045 28.0408C90.023 27.9999 90.0467 27.966 90.0652 27.9251C90.1188 27.8146 90.1707 27.7162 90.2086 27.6283C90.2649 27.4995 90.3055 27.3933 90.3293 27.3158C90.2882 27.341 90.241 27.3652 90.1886 27.3824C89.8302 27.5293 89.2356 27.6292 88.7652 27.6475L89.683 27.6822L88.7652 27.6475C88.7591 27.6466 88.753 27.6457 88.746 27.6509C88.7024 27.6508 88.6526 27.6497 88.602 27.6548C88.609 27.6496 88.6212 27.6514 88.6282 27.6462L85.49 27.5293C85.4925 27.5546 85.4846 27.5659 85.4776 27.5711V27.5711Z" fill="url(#paint14_linear)"/>
<path d="M89.8726 21.849C89.536 22.2296 89.166 22.6676 88.7635 23.157C88.7407 23.1848 88.7188 23.2065 88.7021 23.2352C88.3522 23.6637 87.9839 24.1332 87.5891 24.6548C87.2487 25.1034 86.8917 25.5808 86.5153 26.1051C86.1871 26.5555 85.8545 27.0364 85.499 27.5451L88.6374 27.6619C89.5958 27.3786 90.0535 27.0655 90.524 26.5799C90.6493 26.4487 90.7764 26.3053 90.9044 26.1558C91.2945 25.7083 91.6857 25.211 92.0402 24.7084C92.3859 24.2232 92.7003 23.7396 92.9455 23.302C93.1054 23.0201 93.2373 22.7591 93.3404 22.5249C93.4267 22.3195 93.499 22.1245 93.5643 21.9347C92.3382 21.9608 90.8382 21.9405 89.8726 21.849Z" fill="url(#paint15_linear)"/>
<path d="M86.3126 32.1922C86.2496 32.1954 86.1876 32.1926 86.1186 32.195C86.1815 32.1917 86.2444 32.1884 86.3126 32.1922Z" fill="#BE202E"/>
<path opacity="0.35" d="M86.3126 32.1922C86.2496 32.1954 86.1876 32.1926 86.1186 32.195C86.1815 32.1917 86.2444 32.1884 86.3126 32.1922Z" fill="#BE202E"/>
<path d="M86.3126 32.1922C86.2496 32.1954 86.1876 32.1926 86.1186 32.195C86.1815 32.1917 86.2444 32.1884 86.3126 32.1922Z" fill="url(#paint16_linear)"/>
<path d="M87.0323 30.6843C87.0506 30.687 87.0699 30.6836 87.0943 30.6872C87.076 30.6845 87.0568 30.6879 87.0323 30.6843Z" fill="#BE202E"/>
<path opacity="0.35" d="M87.0323 30.6843C87.0506 30.687 87.0699 30.6836 87.0943 30.6872C87.076 30.6845 87.0568 30.6879 87.0323 30.6843Z" fill="#BE202E"/>
<path d="M87.0323 30.6843C87.0506 30.687 87.0699 30.6836 87.0943 30.6872C87.076 30.6845 87.0568 30.6879 87.0323 30.6843Z" fill="url(#paint17_linear)"/>
</g>
<defs>
<linearGradient id="paint0_linear" x1="70.866" y1="20.6404" x2="74.6759" y2="15.663" gradientUnits="userSpaceOnUse">
<stop stop-color="#F69923"/>
<stop offset="0.3123" stop-color="#F79A23"/>
<stop offset="0.8383" stop-color="#E97826"/>
</linearGradient>
<linearGradient id="paint1_linear" x1="76.6291" y1="50.2333" x2="70.598" y2="21.8069" gradientUnits="userSpaceOnUse">
<stop offset="0.3233" stop-color="#9E2064"/>
<stop offset="0.6302" stop-color="#C92037"/>
<stop offset="0.7514" stop-color="#CD2335"/>
<stop offset="1" stop-color="#E97826"/>
</linearGradient>
<linearGradient id="paint2_linear" x1="78.7517" y1="46.1966" x2="75.1576" y2="29.2564" gradientUnits="userSpaceOnUse">
<stop stop-color="#282662"/>
<stop offset="0.0954839" stop-color="#662E8D"/>
<stop offset="0.7882" stop-color="#9F2064"/>
<stop offset="0.9487" stop-color="#CD2032"/>
</linearGradient>
<linearGradient id="paint3_linear" x1="76.0247" y1="48.6927" x2="69.9937" y2="20.2669" gradientUnits="userSpaceOnUse">
<stop offset="0.3233" stop-color="#9E2064"/>
<stop offset="0.6302" stop-color="#C92037"/>
<stop offset="0.7514" stop-color="#CD2335"/>
<stop offset="1" stop-color="#E97826"/>
</linearGradient>
<linearGradient id="paint4_linear" x1="75.9652" y1="46.5379" x2="72.7958" y2="31.5997" gradientUnits="userSpaceOnUse">
<stop stop-color="#282662"/>
<stop offset="0.0954839" stop-color="#662E8D"/>
<stop offset="0.7882" stop-color="#9F2064"/>
<stop offset="0.9487" stop-color="#CD2032"/>
</linearGradient>
<linearGradient id="paint5_linear" x1="78.9677" y1="48.068" x2="72.9365" y2="19.641" gradientUnits="userSpaceOnUse">
<stop offset="0.3233" stop-color="#9E2064"/>
<stop offset="0.6302" stop-color="#C92037"/>
<stop offset="0.7514" stop-color="#CD2335"/>
<stop offset="1" stop-color="#E97826"/>
</linearGradient>
<linearGradient id="paint6_linear" x1="79.2014" y1="49.8633" x2="73.1701" y2="21.4356" gradientUnits="userSpaceOnUse">
<stop offset="0.3233" stop-color="#9E2064"/>
<stop offset="0.6302" stop-color="#C92037"/>
<stop offset="0.7514" stop-color="#CD2335"/>
<stop offset="1" stop-color="#E97826"/>
</linearGradient>
<linearGradient id="paint7_linear" x1="79.8493" y1="47.9175" x2="73.8063" y2="19.4336" gradientUnits="userSpaceOnUse">
<stop offset="0.3233" stop-color="#9E2064"/>
<stop offset="0.6302" stop-color="#C92037"/>
<stop offset="0.7514" stop-color="#CD2335"/>
<stop offset="1" stop-color="#E97826"/>
</linearGradient>
<linearGradient id="paint8_linear" x1="79.7496" y1="47.9396" x2="73.7043" y2="19.4604" gradientUnits="userSpaceOnUse">
<stop offset="0.3233" stop-color="#9E2064"/>
<stop offset="0.6302" stop-color="#C92037"/>
<stop offset="0.7514" stop-color="#CD2335"/>
<stop offset="1" stop-color="#E97826"/>
</linearGradient>
<linearGradient id="paint9_linear" x1="89.8451" y1="20.2254" x2="96.9703" y2="19.3269" gradientUnits="userSpaceOnUse">
<stop stop-color="#F69923"/>
<stop offset="0.3123" stop-color="#F79A23"/>
<stop offset="0.8383" stop-color="#E97826"/>
</linearGradient>
<linearGradient id="paint10_linear" x1="70.3498" y1="48.7237" x2="88.6301" y2="20.9135" gradientUnits="userSpaceOnUse">
<stop offset="0.3233" stop-color="#9E2064"/>
<stop offset="0.6302" stop-color="#C92037"/>
<stop offset="0.7514" stop-color="#CD2335"/>
<stop offset="1" stop-color="#E97826"/>
</linearGradient>
<linearGradient id="paint11_linear" x1="75.3471" y1="47.2006" x2="86.241" y2="30.6272" gradientUnits="userSpaceOnUse">
<stop stop-color="#282662"/>
<stop offset="0.0954839" stop-color="#662E8D"/>
<stop offset="0.7882" stop-color="#9F2064"/>
<stop offset="0.9487" stop-color="#CD2032"/>
</linearGradient>
<linearGradient id="paint12_linear" x1="71.1184" y1="46.9906" x2="89.3985" y2="19.1818" gradientUnits="userSpaceOnUse">
<stop offset="0.3233" stop-color="#9E2064"/>
<stop offset="0.6302" stop-color="#C92037"/>
<stop offset="0.7514" stop-color="#CD2335"/>
<stop offset="1" stop-color="#E97826"/>
</linearGradient>
<linearGradient id="paint13_linear" x1="72.8306" y1="45.2096" x2="82.4374" y2="30.5962" gradientUnits="userSpaceOnUse">
<stop stop-color="#282662"/>
<stop offset="0.0954839" stop-color="#662E8D"/>
<stop offset="0.7882" stop-color="#9F2064"/>
<stop offset="0.9487" stop-color="#CD2032"/>
</linearGradient>
<linearGradient id="paint14_linear" x1="73.9993" y1="48.8838" x2="92.2799" y2="21.0727" gradientUnits="userSpaceOnUse">
<stop offset="0.3233" stop-color="#9E2064"/>
<stop offset="0.6302" stop-color="#C92037"/>
<stop offset="0.7514" stop-color="#CD2335"/>
<stop offset="1" stop-color="#E97826"/>
</linearGradient>
<linearGradient id="paint15_linear" x1="72.7187" y1="50.5166" x2="91" y2="22.7043" gradientUnits="userSpaceOnUse">
<stop offset="0.3233" stop-color="#9E2064"/>
<stop offset="0.6302" stop-color="#C92037"/>
<stop offset="0.7514" stop-color="#CD2335"/>
<stop offset="1" stop-color="#E97826"/>
</linearGradient>
<linearGradient id="paint16_linear" x1="74.8348" y1="49.489" x2="93.1651" y2="21.6221" gradientUnits="userSpaceOnUse">
<stop offset="0.3233" stop-color="#9E2064"/>
<stop offset="0.6302" stop-color="#C92037"/>
<stop offset="0.7514" stop-color="#CD2335"/>
<stop offset="1" stop-color="#E97826"/>
</linearGradient>
<linearGradient id="paint17_linear" x1="74.7381" y1="49.4304" x2="93.0734" y2="21.5673" gradientUnits="userSpaceOnUse">
<stop offset="0.3233" stop-color="#9E2064"/>
<stop offset="0.6302" stop-color="#C92037"/>
<stop offset="0.7514" stop-color="#CD2335"/>
<stop offset="1" stop-color="#E97826"/>
</linearGradient>
<clipPath id="clip0">
<rect width="153" height="48" fill="white"/>
</clipPath>
</defs>
</svg>
