<svg width="202" height="48" viewBox="0 0 202 48" fill="none" xmlns="http://www.w3.org/2000/svg">
<g clip-path="url(#clip0)">
<path d="M93.8739 13.9355C92.8825 13.9045 92.077 14.6787 92.046 15.6387C92.046 15.6697 92.046 15.7316 92.046 15.7626V24.5574C87.8015 21.1509 81.5742 21.8322 78.1663 26.0748C76.7721 27.84 75.9976 30.0077 75.9976 32.2684C75.9046 37.7187 80.242 42.209 85.6948 42.3019C91.1476 42.3948 95.6399 38.0593 95.7328 32.609C95.7328 32.4851 95.7328 32.3922 95.7328 32.2684V15.7626C95.7328 15.2671 95.5469 14.8026 95.2061 14.4619C94.8344 14.1213 94.3696 13.9355 93.8739 13.9355ZM91.5503 34.6529C90.9307 36.1393 89.7534 37.3161 88.2663 37.9664C86.7172 38.6168 84.9822 38.6168 83.4331 37.9664C81.946 37.3471 80.7997 36.1393 80.1801 34.6839C79.5295 33.1664 79.5295 31.4322 80.1801 29.8839C80.7997 28.3974 81.977 27.2206 83.4331 26.6013C84.9822 25.951 86.7172 25.951 88.2663 26.6013C89.7534 27.2516 90.9307 28.4284 91.5503 29.9148C92.2009 31.4013 92.2009 33.1355 91.5503 34.6529Z" fill="#0091E2"/>
<path d="M114.477 25.3007C110.635 21.4607 104.377 21.4607 100.535 25.3007C98.6762 27.1587 97.6538 29.6671 97.6538 32.2684C97.5609 37.7187 101.898 42.209 107.351 42.3019C112.804 42.3948 117.296 38.0594 117.389 32.609C117.389 32.4852 117.389 32.3923 117.389 32.2684C117.389 30.9677 117.141 29.6981 116.646 28.4903C116.15 27.2826 115.406 26.1987 114.477 25.3007ZM113.207 34.6219C112.897 35.3652 112.432 36.0155 111.874 36.5729C111.317 37.1303 110.635 37.5948 109.923 37.9045C108.373 38.5548 106.638 38.5548 105.089 37.9045C103.602 37.2852 102.425 36.0774 101.805 34.6219C101.155 33.1045 101.155 31.3703 101.805 29.8219C102.425 28.3355 103.602 27.1897 105.089 26.5394C106.638 25.889 108.373 25.889 109.923 26.5394C110.666 26.849 111.317 27.3136 111.874 27.871C112.432 28.4284 112.897 29.1097 113.207 29.8219C113.857 31.4013 113.857 33.1355 113.207 34.6219Z" fill="#0091E2"/>
<path d="M155.28 24.2167C155.28 23.969 155.218 23.7212 155.125 23.5045C155.032 23.2877 154.877 23.1019 154.722 22.9161C154.567 22.7612 154.35 22.6064 154.134 22.5135C153.917 22.4206 153.669 22.3587 153.421 22.3587C153.08 22.3587 152.739 22.4516 152.43 22.6374L141.896 29.4812V15.7935C141.896 15.298 141.71 14.8335 141.369 14.4928C141.028 14.1522 140.564 13.9354 140.068 13.9354C139.045 13.9354 138.24 14.7406 138.209 15.7625C138.209 15.7625 138.209 15.7625 138.209 15.7935V40.258C138.209 40.7535 138.395 41.218 138.736 41.5587C139.076 41.9303 139.541 42.1161 140.037 42.1161C140.533 42.1161 140.997 41.9303 141.338 41.5587C141.679 41.218 141.896 40.7535 141.865 40.258V33.9096L144.003 32.5161L152.151 41.6516C152.492 41.9612 152.925 42.147 153.39 42.1161C153.638 42.1161 153.886 42.0851 154.103 41.9612C154.319 41.8683 154.505 41.7445 154.691 41.5587C154.846 41.3728 155.001 41.187 155.094 40.9703C155.187 40.7535 155.249 40.5057 155.249 40.258C155.249 39.7935 155.063 39.329 154.753 38.9883L147.194 30.4722L154.567 25.6722C155.063 25.3625 155.311 24.8051 155.28 24.2167Z" fill="#0091E2"/>
<path d="M124.701 27.8709C125.258 27.3135 125.94 26.849 126.683 26.5393C127.458 26.2296 128.263 26.0438 129.1 26.0438C129.843 26.0438 130.556 26.1677 131.238 26.4154C131.919 26.6941 132.57 27.0658 133.128 27.5612C133.468 27.8399 133.902 27.9638 134.336 27.9638C134.832 27.9948 135.327 27.809 135.668 27.4374C136.009 27.0967 136.195 26.6012 136.195 26.1057C136.195 25.5793 135.978 25.0528 135.544 24.7122C133.778 23.1328 131.486 22.2658 129.1 22.3277C123.647 22.3277 119.217 26.7561 119.217 32.2064C119.217 37.6567 123.616 42.0541 129.038 42.0851C131.424 42.0851 133.716 41.249 135.513 39.7006C135.885 39.3599 136.102 38.8645 136.102 38.338C136.133 37.347 135.358 36.5419 134.398 36.5109C134.367 36.5109 134.305 36.5109 134.274 36.5109C133.84 36.5109 133.437 36.6348 133.097 36.8825C132.539 37.378 131.919 37.7496 131.238 38.0283C130.556 38.2761 129.813 38.3999 129.1 38.3999C128.263 38.3999 127.458 38.2451 126.683 37.9045C125.94 37.5948 125.289 37.1303 124.701 36.5729C122.284 34.1574 122.284 30.2554 124.67 27.8399C124.701 27.9019 124.701 27.9019 124.701 27.8709Z" fill="#0091E2"/>
<path d="M191.869 23.6284C191.497 23.2877 191.095 23.04 190.63 22.8852C190.103 22.6994 189.545 22.5755 188.988 22.5136C188.43 22.4516 187.872 22.4207 187.315 22.4207C186.199 22.4207 185.053 22.6065 184 23.009C182.946 23.3807 181.986 23.9381 181.118 24.6194V24.2477C181.087 23.2258 180.22 22.4516 179.198 22.4826C178.237 22.5136 177.463 23.2877 177.432 24.2477V40.32C177.463 41.3419 178.33 42.1161 179.353 42.0852C180.313 42.0542 181.087 41.28 181.118 40.32V32.2994C181.118 31.4632 181.273 30.6581 181.614 29.8839C181.924 29.1407 182.358 28.4903 182.946 27.9329C183.504 27.3755 184.186 26.911 184.898 26.6013C185.673 26.2916 186.478 26.1058 187.315 26.1058C188.151 26.1058 188.957 26.2607 189.731 26.5394C189.979 26.6632 190.227 26.7252 190.506 26.7252C190.754 26.7252 191.002 26.6942 191.218 26.5703C191.435 26.4774 191.621 26.3536 191.807 26.1678C191.962 26.0129 192.117 25.7961 192.21 25.5794C192.303 25.3626 192.365 25.1148 192.365 24.8671C192.396 24.4026 192.21 23.969 191.869 23.6284Z" fill="#0091E2"/>
<path d="M174.767 28.4903C173.187 24.8361 169.593 22.4516 165.627 22.4207C160.174 22.4207 155.775 26.8181 155.744 32.2684C155.744 37.7187 160.174 42.1471 165.627 42.1471C167.982 42.1471 170.275 41.311 172.071 39.7626C172.102 39.7316 172.133 39.7007 172.133 39.7007C172.288 39.5768 172.443 39.422 172.536 39.2361C173.125 38.369 172.908 37.2232 172.071 36.6348C171.359 36.1703 170.429 36.2632 169.81 36.8516C169.748 36.9136 169.562 37.0684 169.562 37.0994L169.531 37.1303C169.004 37.5639 168.416 37.9355 167.765 38.1523C167.083 38.4 166.371 38.5239 165.627 38.4929C164.946 38.4929 164.295 38.4 163.644 38.1832C163.025 37.9665 162.436 37.6878 161.909 37.2852C161.383 36.9136 160.918 36.449 160.546 35.9226C160.144 35.3961 159.865 34.7768 159.679 34.1574H173.621C174.116 34.1574 174.581 33.9716 174.922 33.631C175.294 33.2903 175.479 32.8258 175.448 32.3303C175.479 30.9987 175.232 29.6981 174.767 28.4903ZM159.679 30.4723C159.865 29.8219 160.144 29.2336 160.546 28.7071C160.918 28.1807 161.383 27.7161 161.909 27.3445C162.436 26.9729 163.025 26.6632 163.644 26.4465C164.264 26.2297 164.946 26.1368 165.596 26.1368C166.247 26.1368 166.928 26.2297 167.548 26.4465C168.787 26.849 169.872 27.6542 170.646 28.7071C171.049 29.2336 171.328 29.8529 171.545 30.4723H159.679V30.4723Z" fill="#0091E2"/>
<path d="M185.579 39.4528C184.866 39.4528 184.309 40.0411 184.309 40.7534C184.309 41.4657 184.897 42.0231 185.61 42.0231C186.322 42.0231 186.88 41.4347 186.88 40.7534C186.88 40.0102 186.291 39.4528 185.579 39.4528ZM185.579 41.7444C185.021 41.7753 184.556 41.3418 184.525 40.7844C184.494 40.227 184.928 39.7624 185.486 39.7315C186.044 39.7005 186.508 40.134 186.539 40.6915C186.539 40.7224 186.539 40.7224 186.539 40.7534C186.57 41.2799 186.136 41.7444 185.61 41.7444C185.61 41.7444 185.61 41.7444 185.579 41.7444Z" fill="#0091E2"/>
<path d="M185.889 40.7534C186.044 40.7225 186.137 40.5986 186.137 40.4438C186.137 40.3199 186.106 40.227 186.013 40.1651C185.889 40.1031 185.734 40.0721 185.579 40.0721C185.425 40.0721 185.239 40.0721 185.084 40.1031V41.3728H185.363V40.8773H185.487C185.641 40.8773 185.734 40.9392 185.765 41.0631C185.796 41.156 185.827 41.2799 185.858 41.3728H186.168C186.106 41.2799 186.075 41.156 186.075 41.0631C186.106 40.9392 186.013 40.8154 185.889 40.7534ZM185.518 40.6605H185.363V40.2889C185.425 40.2889 185.487 40.2889 185.518 40.2889C185.703 40.2889 185.796 40.3818 185.796 40.4747C185.827 40.5986 185.672 40.6915 185.518 40.6605Z" fill="#0091E2"/>
<path d="M72.6205 18.0851C72.4346 17.9303 70.7616 16.6606 67.1677 16.6606C66.2382 16.6606 65.2778 16.7535 64.3484 16.9084C63.6668 12.1703 59.7321 9.87867 59.5772 9.7548L58.6168 9.19739L57.9971 10.0955C57.2226 11.3032 56.634 12.6658 56.2932 14.0593C55.6425 16.7535 56.0453 19.2929 57.4085 21.4606C55.7665 22.3896 53.1021 22.6064 52.5444 22.6374H8.55051C7.40419 22.6374 6.47475 23.5664 6.47475 24.7122C6.41278 28.5522 7.0634 32.3922 8.39561 36.0154C9.9137 39.9793 12.1754 42.9213 15.0876 44.7174C18.3717 46.7303 23.7315 47.8761 29.7729 47.8761C32.4993 47.8761 35.2257 47.6284 37.9211 47.1329C41.6698 46.4516 45.2637 45.1509 48.5787 43.2619C51.3051 41.6826 53.7527 39.6696 55.8284 37.3161C59.3294 33.3832 61.4051 28.9858 62.9232 25.0838C63.1401 25.0838 63.326 25.0838 63.5429 25.0838C67.3536 25.0838 69.7082 23.5664 71.0094 22.2658C71.8769 21.4606 72.5275 20.4696 72.9922 19.3548L73.2711 18.5496L72.6205 18.0851Z" fill="#0091E2"/>
<path d="M12.64 21.3677H18.5265C18.8053 21.3677 19.0532 21.1509 19.0532 20.8413V15.5767C19.0532 15.298 18.8363 15.0503 18.5265 15.0503H12.64C12.3611 15.0503 12.1133 15.2671 12.1133 15.5767V20.8413C12.1443 21.1509 12.3611 21.3677 12.64 21.3677Z" fill="#0091E2"/>
<path d="M20.7572 21.3677H26.6437C26.9225 21.3677 27.1703 21.1509 27.1703 20.8413V15.5767C27.1703 15.298 26.9535 15.0503 26.6437 15.0503H20.7572C20.4783 15.0503 20.2305 15.2671 20.2305 15.5767V20.8413C20.2615 21.1509 20.4783 21.3677 20.7572 21.3677Z" fill="#0091E2"/>
<path d="M29.0286 21.3677H34.9151C35.194 21.3677 35.4418 21.1509 35.4418 20.8413V15.5767C35.4418 15.298 35.225 15.0503 34.9151 15.0503H29.0286C28.7498 15.0503 28.502 15.2671 28.502 15.5767V20.8413C28.502 21.1509 28.7188 21.3677 29.0286 21.3677Z" fill="#0091E2"/>
<path d="M37.179 21.3677H43.0655C43.3444 21.3677 43.5922 21.1509 43.5922 20.8413V15.5767C43.5922 15.298 43.3753 15.0503 43.0655 15.0503H37.179C36.9002 15.0503 36.6523 15.2671 36.6523 15.5767V20.8413C36.6523 21.1509 36.9002 21.3677 37.179 21.3677Z" fill="#0091E2"/>
<path d="M20.7572 13.8427H26.6437C26.9225 13.8427 27.1703 13.5949 27.1703 13.3162V8.05172C27.1703 7.77301 26.9535 7.52527 26.6437 7.52527H20.7572C20.4783 7.52527 20.2305 7.74205 20.2305 8.05172V13.3162C20.2615 13.5949 20.4783 13.8427 20.7572 13.8427Z" fill="#0091E2"/>
<path d="M29.0286 13.8427H34.9151C35.194 13.8427 35.4418 13.5949 35.4418 13.3162V8.05172C35.4418 7.77301 35.225 7.52527 34.9151 7.52527H29.0286C28.7498 7.52527 28.502 7.74205 28.502 8.05172V13.3162C28.502 13.5949 28.7188 13.8427 29.0286 13.8427Z" fill="#0091E2"/>
<path d="M37.179 13.8427H43.0655C43.3444 13.8427 43.5922 13.5949 43.5922 13.3162V8.05172C43.5922 7.77301 43.3444 7.52527 43.0655 7.52527H37.179C36.9002 7.52527 36.6523 7.74205 36.6523 8.05172V13.3162C36.6523 13.5949 36.9002 13.8427 37.179 13.8427Z" fill="#0091E2"/>
<path d="M37.179 6.28653H43.0655C43.3444 6.28653 43.5922 6.06977 43.5922 5.76009V0.495572C43.5922 0.216862 43.3444 -0.0308838 43.0655 -0.0308838H37.179C36.9002 -0.0308838 36.6523 0.185894 36.6523 0.495572V5.76009C36.6523 6.0388 36.9002 6.28653 37.179 6.28653Z" fill="#0091E2"/>
<path d="M45.388 21.3677H51.2745C51.5534 21.3677 51.8012 21.1509 51.8012 20.8413V15.5767C51.8012 15.298 51.5843 15.0503 51.2745 15.0503H45.388C45.1092 15.0503 44.8613 15.2671 44.8613 15.5767V20.8413C44.8923 21.1509 45.1092 21.3677 45.388 21.3677Z" fill="#0091E2"/>
</g>
<defs>
<clipPath id="clip0">
<rect width="202" height="48" fill="white"/>
</clipPath>
</defs>
</svg>
