<svg width="157" height="48" viewBox="0 0 157 48" fill="none" xmlns="http://www.w3.org/2000/svg">
<g clip-path="url(#clip0)">
<path fill-rule="evenodd" clip-rule="evenodd" d="M141.331 6.60665C141.331 9.50282 141.339 10.6877 141.349 9.23985C141.359 7.79157 141.359 5.42212 141.349 3.97385C141.339 2.52557 141.331 3.71049 141.331 6.60665ZM79.5232 6.70477C79.4695 6.75894 79.3765 6.8029 79.3168 6.8029C79.1837 6.8029 78.7618 7.19067 78.7618 7.31274C78.7618 7.36141 78.7175 7.4454 78.6637 7.49917C78.6095 7.55333 78.5656 7.71307 78.5656 7.85437C78.5656 7.99567 78.5361 8.11145 78.5 8.11145C78.46 8.11145 78.4345 8.42622 78.4345 8.92508C78.4345 9.39724 78.4619 9.75597 78.5 9.77952C78.5361 9.8015 78.5656 9.90826 78.5656 10.0158C78.5656 10.4291 79.0833 11.1128 79.3996 11.1179C79.4805 11.1195 79.5468 11.1497 79.5468 11.1858C79.5468 11.2231 79.743 11.2513 80.0045 11.2513C80.2662 11.2513 80.4625 11.2231 80.4625 11.1858C80.4625 11.1497 80.5363 11.1203 80.6262 11.1203C80.7278 11.1203 80.7895 11.0834 80.7895 11.0221C80.7895 10.9684 80.8212 10.924 80.8597 10.924C80.9468 10.924 81.1168 10.7592 81.1168 10.674C81.1168 10.6395 81.1608 10.5939 81.2149 10.5735C81.2687 10.5527 81.3131 10.4758 81.3131 10.4028C81.3131 10.3298 81.3425 10.2701 81.3782 10.2701C81.4143 10.2701 81.4445 10.1744 81.4457 10.0574C81.4469 9.94044 81.4912 9.78776 81.5438 9.7179C81.684 9.53265 81.6824 8.18877 81.5419 8.135C81.4779 8.11027 81.4438 8.00862 81.4438 7.8426C81.4438 7.70248 81.4143 7.58787 81.3782 7.58787C81.3425 7.58787 81.3131 7.54077 81.3131 7.48268C81.3131 7.3461 80.7628 6.8029 80.6246 6.8029C80.5661 6.8029 80.4743 6.75894 80.4205 6.70477C80.3577 6.64198 80.196 6.60665 79.9719 6.60665C79.7478 6.60665 79.586 6.64198 79.5232 6.70477ZM8.56945 23.9927C8.56945 36.588 8.55061 40.8767 8.49449 40.9328C8.45327 40.974 8.40539 41.2303 8.38773 41.5019C8.37046 41.7739 8.33042 41.9961 8.29941 41.9961C8.26801 41.9961 8.2425 42.0966 8.2425 42.2198C8.2425 42.3426 8.19344 42.5412 8.13339 42.6613C7.93439 43.0581 7.91555 43.1056 7.91555 43.2053C7.91555 43.2599 7.88611 43.3042 7.85 43.3042C7.81389 43.3042 7.78445 43.36 7.78445 43.4283C7.78445 43.4962 7.74049 43.5692 7.68633 43.5896C7.63256 43.6104 7.5882 43.6736 7.5882 43.7301C7.5882 43.7862 7.45593 43.9613 7.29383 44.1186C7.13212 44.276 6.99945 44.437 6.99945 44.4758C6.99945 44.5151 6.95785 44.5472 6.90682 44.5472C6.8558 44.5472 6.80438 44.5692 6.79261 44.5963C6.75728 44.6756 6.29492 45.0053 6.21877 45.0053C6.1807 45.0053 6.1493 45.0347 6.1493 45.0704C6.1493 45.1065 6.07472 45.136 5.98366 45.136C5.8926 45.136 5.80115 45.1799 5.78035 45.2341C5.75876 45.2902 5.66142 45.3322 5.55348 45.3322C5.44947 45.3322 5.3643 45.3617 5.3643 45.3978C5.3643 45.4335 5.23085 45.4629 5.06757 45.4629C4.86465 45.4629 4.75946 45.4939 4.73355 45.561C4.67742 45.7074 1.73995 45.7074 1.59355 45.561C1.5284 45.4959 1.36512 45.4629 1.10724 45.4629C0.892545 45.4629 0.719453 45.4339 0.719453 45.3978C0.719453 45.3617 0.557743 45.3322 0.359923 45.3322H0V46.4441C0 47.5129 0.0051025 47.5564 0.130703 47.5564C0.202923 47.5564 0.261798 47.5859 0.261798 47.6216C0.261798 47.6577 0.354035 47.6871 0.467075 47.6871C0.586788 47.6871 0.707285 47.7346 0.755955 47.801C0.918058 48.0227 5.89025 48.0023 6.11358 47.779C6.16382 47.7284 6.2957 47.6871 6.40599 47.6871C6.51668 47.6871 6.60695 47.6577 6.60695 47.6216C6.60695 47.5859 6.69173 47.5564 6.79535 47.5564C6.89897 47.5564 7.02026 47.5121 7.065 47.4583C7.10975 47.4042 7.20002 47.3602 7.26557 47.3602C7.33072 47.3602 7.40255 47.3308 7.42492 47.2947C7.4469 47.2585 7.52226 47.2291 7.59213 47.2291C7.66199 47.2291 7.7193 47.2028 7.7193 47.171C7.7193 47.1388 7.7927 47.0941 7.88258 47.0717C7.97285 47.049 8.04625 47.0015 8.04625 46.9661C8.04625 46.9312 8.07765 46.9022 8.11651 46.9022C8.15497 46.9022 8.22759 46.8653 8.27743 46.8205C8.46976 46.6482 8.56514 46.5752 8.5985 46.5752C8.66326 46.5752 9.48555 45.7318 9.48555 45.6654C9.48555 45.6293 9.55895 45.5261 9.64883 45.4362C9.7391 45.3463 9.8125 45.2286 9.8125 45.1748C9.8125 45.1215 9.88629 44.9978 9.97617 44.9009C10.0661 44.8039 10.1395 44.6823 10.1395 44.6312C10.1395 44.5798 10.1838 44.4939 10.2376 44.4397C10.2917 44.3859 10.3357 44.2701 10.3357 44.1826C10.3357 44.0955 10.3651 44.0241 10.4013 44.0241C10.4374 44.0241 10.4676 43.9577 10.4688 43.8769C10.4699 43.7956 10.5139 43.6724 10.5669 43.6025C10.6199 43.5327 10.663 43.378 10.663 43.2591C10.663 43.1402 10.6925 43.0428 10.7282 43.0428C10.7643 43.0428 10.7938 42.8957 10.7938 42.7155C10.7938 42.5357 10.8232 42.3886 10.8593 42.3886C10.8978 42.3886 10.9245 42.1621 10.9245 41.8406C10.9245 41.4329 10.9496 41.2715 11.023 41.2111C11.1097 41.1389 11.1191 39.1855 11.1046 24.1461L11.0881 7.16281L9.82899 7.14515L8.56945 7.12709V23.9927ZM19.4723 7.1738C19.3985 7.24758 19.4205 29.8816 19.4943 29.9271C19.53 29.9495 19.5595 30.214 19.5595 30.515C19.5595 30.9146 19.5861 31.0888 19.6576 31.1607C19.7212 31.2243 19.7557 31.386 19.7557 31.6195C19.7557 31.8177 19.7851 31.9982 19.8213 32.0202C19.8574 32.0426 19.8868 32.1599 19.8868 32.2812C19.8868 32.4025 19.9308 32.5458 19.9849 32.5999C20.0387 32.6537 20.083 32.8028 20.083 32.9316C20.083 33.0599 20.1125 33.1651 20.1482 33.1651C20.1843 33.1651 20.2138 33.2365 20.2138 33.3241C20.2138 33.4112 20.2581 33.527 20.3119 33.5811C20.3656 33.6349 20.41 33.7401 20.41 33.8147C20.41 33.8892 20.4394 33.9501 20.4755 33.9501C20.5113 33.9501 20.5407 34.0199 20.5407 34.1055C20.5407 34.1911 20.5851 34.2978 20.6388 34.3426C20.693 34.3873 20.737 34.4587 20.737 34.5011C20.737 34.615 20.8928 34.9301 20.9497 34.9309C20.9768 34.9309 20.9988 34.991 20.9988 35.0644C20.9988 35.1374 21.0427 35.2139 21.0969 35.2347C21.1506 35.2555 21.195 35.3175 21.195 35.3725C21.195 35.4274 21.2688 35.5404 21.3587 35.624C21.4486 35.7072 21.5231 35.8136 21.5243 35.8603C21.5271 35.9773 21.6841 36.1743 21.7747 36.1743C21.8155 36.1743 21.8493 36.2057 21.8493 36.2442C21.8493 36.2826 21.8858 36.3552 21.9309 36.4055C22.1029 36.5974 22.1763 36.6932 22.1763 36.7261C22.1763 36.7721 23.0193 37.6132 23.0653 37.6132C23.0853 37.6132 23.1426 37.6501 23.1924 37.6952C23.4091 37.8891 23.4829 37.9405 23.5473 37.9405C23.5849 37.9405 23.6155 37.9739 23.6155 38.0151C23.6155 38.1053 23.8122 38.2623 23.9292 38.2655C23.9759 38.2667 24.0822 38.3412 24.1658 38.4311C24.249 38.521 24.3656 38.5944 24.4241 38.5944C24.483 38.5944 24.5313 38.6219 24.5313 38.6556C24.5313 38.689 24.5976 38.7373 24.6784 38.7624C24.7593 38.7879 24.8405 38.8263 24.8582 38.8487C24.919 38.9233 25.1828 39.0524 25.2746 39.0524C25.3249 39.0524 25.4022 39.0964 25.447 39.1505C25.4917 39.2047 25.5985 39.2487 25.684 39.2487C25.7696 39.2487 25.8395 39.2781 25.8395 39.3142C25.8395 39.3499 25.9007 39.3794 25.9753 39.3794C26.0494 39.3794 26.1546 39.4237 26.2088 39.4775C26.2626 39.5316 26.3768 39.5756 26.462 39.5756C26.5471 39.5756 26.6351 39.605 26.6574 39.6412C26.6794 39.6773 26.7767 39.7075 26.8737 39.7087C26.9706 39.7098 27.1068 39.7538 27.1767 39.8068C27.2466 39.8598 27.3992 39.9029 27.5162 39.9029C27.6332 39.9029 27.747 39.9324 27.7694 39.9681C27.7917 40.0042 27.9849 40.0336 28.1984 40.0336C28.4139 40.0336 28.587 40.0627 28.587 40.0992C28.587 40.1376 28.8177 40.1643 29.1478 40.1643C29.5592 40.1643 29.7346 40.1906 29.8065 40.2625C29.9529 40.4089 33.2412 40.4089 33.3625 40.2625C33.4237 40.1887 33.5882 40.1643 34.0246 40.1643C34.3681 40.1643 34.6055 40.1376 34.6055 40.0992C34.6055 40.0627 34.7798 40.0336 34.998 40.0336C35.2159 40.0336 35.3905 40.0046 35.3905 39.9681C35.3905 39.9324 35.5059 39.9029 35.6472 39.9029C35.7889 39.9029 35.9487 39.8586 36.0025 39.8048C36.0566 39.7507 36.1893 39.7067 36.2976 39.7067C36.4059 39.7067 36.5131 39.6773 36.5351 39.6412C36.5575 39.605 36.663 39.5756 36.7702 39.5756C36.8824 39.5756 36.9806 39.5344 37.0022 39.4775C37.0253 39.417 37.125 39.3794 37.2616 39.3794C37.3841 39.3794 37.4838 39.3499 37.4838 39.3142C37.4838 39.2781 37.5575 39.2487 37.6474 39.2487C37.7491 39.2487 37.8107 39.2118 37.8107 39.1505C37.8107 39.0893 37.8727 39.0524 37.9744 39.0524C38.0643 39.0524 38.138 39.023 38.138 38.9869C38.138 38.9512 38.1722 38.9217 38.2142 38.9217C38.3363 38.9217 38.792 38.7051 38.792 38.6474C38.792 38.6183 38.832 38.5944 38.8807 38.5944C38.9293 38.5944 39.0486 38.521 39.1456 38.4311C39.2429 38.3408 39.3646 38.2674 39.4168 38.2674C39.469 38.2674 39.5118 38.238 39.5118 38.2019C39.5118 38.1662 39.5558 38.1367 39.6099 38.1367C39.6637 38.1367 39.708 38.0924 39.708 38.0386C39.708 37.9845 39.7387 37.9405 39.7763 37.9405C39.8136 37.9405 39.9239 37.8667 40.0209 37.7768C40.1178 37.687 40.221 37.6132 40.2501 37.6132C40.3553 37.6132 41.4743 36.4047 41.4743 36.2913C41.4743 36.2269 41.5057 36.1743 41.5442 36.1743C41.5826 36.1743 41.6564 36.1323 41.7078 36.0809C41.7593 36.0295 41.8013 35.9557 41.8013 35.9172C41.8013 35.8788 41.824 35.847 41.8519 35.847C41.8798 35.847 41.9579 35.7441 42.0258 35.6182C42.0933 35.4922 42.1737 35.3893 42.204 35.3893C42.2342 35.3893 42.2593 35.3155 42.2593 35.2257C42.2593 35.124 42.2962 35.062 42.3574 35.062C42.4183 35.062 42.4555 35.0004 42.4555 34.8987C42.4555 34.8088 42.4815 34.7351 42.5132 34.7351C42.545 34.7351 42.5882 34.6836 42.6094 34.6205C42.6306 34.5577 42.6738 34.4619 42.7052 34.4081C42.8469 34.1648 42.9132 34.0105 42.9132 33.9254C42.9132 33.8747 42.9576 33.8162 43.0113 33.7954C43.0655 33.775 43.1095 33.7075 43.1095 33.6459C43.1095 33.503 43.2311 33.1172 43.3469 32.8935C43.3964 32.7977 43.4368 32.6451 43.4368 32.5536C43.4368 32.4626 43.4662 32.3695 43.502 32.3476C43.5381 32.3252 43.5675 32.1764 43.5675 32.0163C43.5675 31.8566 43.5969 31.7259 43.633 31.7259C43.6696 31.7259 43.6982 31.5433 43.6982 31.3086C43.6982 31.0178 43.728 30.8671 43.7963 30.8102C43.874 30.7458 43.8945 30.5594 43.8945 29.9228C43.8945 29.4561 43.9219 29.1001 43.96 29.0766C44.0844 28.9996 44.0467 7.21776 43.9219 7.16987C43.5914 7.0431 41.5469 7.13023 41.4453 7.27545C41.3538 7.40576 41.3432 8.62521 41.3412 18.9684C41.3393 29.0181 41.3267 30.5323 41.2431 30.643C41.1897 30.7136 41.147 30.9091 41.147 31.0845C41.147 31.2572 41.1175 31.3989 41.0818 31.3989C41.0457 31.3989 41.0163 31.4986 41.0163 31.6203C41.0163 31.7423 40.9723 31.926 40.9185 32.0292C40.8647 32.1325 40.8208 32.2687 40.8204 32.3319C40.82 32.3954 40.7906 32.5057 40.7545 32.5772C40.7187 32.6486 40.6599 32.7656 40.6238 32.837C40.5876 32.9084 40.5582 33.0262 40.5582 33.0988C40.5582 33.1714 40.5347 33.2307 40.5056 33.2307C40.4766 33.2307 40.3981 33.3555 40.3317 33.5085C40.265 33.6616 40.1712 33.81 40.1229 33.839C40.0746 33.8677 40.035 33.9485 40.035 34.0188C40.035 34.089 40.0056 34.1463 39.9695 34.1463C39.9337 34.1463 39.9043 34.1836 39.9043 34.2287C39.9043 34.2743 39.8305 34.3905 39.7406 34.4874C39.6507 34.5847 39.577 34.6813 39.577 34.7025C39.577 34.7237 39.5036 34.8202 39.4137 34.9172C39.3238 35.0141 39.25 35.1181 39.25 35.148C39.25 35.2257 39.0757 35.3893 38.9929 35.3893C38.9544 35.3893 38.923 35.4211 38.923 35.4596C38.923 35.5538 38.3944 36.0432 38.2927 36.0432C38.2487 36.0432 38.1549 36.117 38.0843 36.2069C38.0136 36.2968 37.923 36.3706 37.8833 36.3706C37.8433 36.3706 37.8107 36.4 37.8107 36.4357C37.8107 36.4718 37.7687 36.5013 37.7173 36.5013C37.6659 36.5013 37.585 36.5381 37.5375 36.5829C37.49 36.628 37.3629 36.7089 37.2549 36.7626C37.147 36.8168 37.0351 36.8977 37.0061 36.9428C36.9774 36.9875 36.8981 37.0244 36.8302 37.0244C36.7623 37.0244 36.6882 37.0539 36.6662 37.09C36.6438 37.1261 36.5704 37.1555 36.5033 37.1555C36.4362 37.1555 36.3369 37.1995 36.2827 37.2536C36.2289 37.3074 36.1237 37.3518 36.0492 37.3518C35.9746 37.3518 35.9138 37.3812 35.9138 37.4169C35.9138 37.453 35.8125 37.4825 35.6888 37.4825C35.5648 37.4825 35.4455 37.5119 35.4231 37.548C35.4008 37.5837 35.2834 37.6132 35.1621 37.6132C35.0412 37.6132 34.8976 37.6575 34.8438 37.7113C34.7798 37.7753 34.6177 37.8094 34.381 37.8094C34.1809 37.8094 34.0168 37.8353 34.0168 37.8667C34.0168 37.8981 33.6039 37.9366 33.0995 37.9531C32.5186 37.9715 32.154 38.0104 32.1053 38.0594C32.0056 38.1591 31.5495 38.1599 31.5162 38.0602C31.4993 38.0092 31.1924 37.9746 30.5785 37.955C30.0769 37.9389 29.6385 37.8997 29.6043 37.8679C29.5702 37.8357 29.3884 37.8094 29.2008 37.8094C29.0112 37.8094 28.8491 37.7776 28.8358 37.7376C28.8225 37.6983 28.6721 37.6501 28.5018 37.6308C28.331 37.6116 28.1756 37.5704 28.1564 37.5394C28.1371 37.508 28.0347 37.4825 27.9291 37.4825C27.8231 37.4825 27.7368 37.453 27.7368 37.4169C27.7368 37.3812 27.6367 37.3518 27.5146 37.3518C27.3777 37.3518 27.2784 37.3141 27.2552 37.2536C27.2344 37.1995 27.1594 37.1555 27.0884 37.1555C27.0173 37.1555 26.9412 37.1261 26.9188 37.09C26.8968 37.0539 26.8246 37.0244 26.7587 37.0244C26.6927 37.0244 26.6217 36.9805 26.6009 36.9263C26.5801 36.8725 26.5036 36.8282 26.4306 36.8282C26.3572 36.8282 26.2975 36.7988 26.2975 36.763C26.2975 36.7269 26.2241 36.6975 26.1338 36.6975C26.0439 36.6975 25.9705 36.6641 25.9705 36.6229C25.9705 36.533 25.7739 36.3753 25.6585 36.3725C25.613 36.3713 25.4756 36.2673 25.3531 36.1413C25.2311 36.0157 25.1106 35.9125 25.0859 35.9125C25.0325 35.9125 24.2043 35.0797 24.2043 35.0255C24.2043 35.0047 24.1011 34.8909 23.9751 34.772C23.8491 34.6534 23.7463 34.5121 23.7463 34.4584C23.7463 34.405 23.6729 34.3057 23.5826 34.2382C23.4927 34.1703 23.4193 34.0486 23.4193 33.9674C23.4193 33.8857 23.3903 33.8194 23.3549 33.8194C23.3196 33.8194 23.2725 33.7456 23.2497 33.6557C23.2274 33.5658 23.1826 33.492 23.1504 33.492C23.1183 33.492 23.092 33.4351 23.092 33.3653C23.092 33.2954 23.0625 33.2201 23.0268 33.1977C22.9907 33.1757 22.9613 33.0992 22.9613 33.0285C22.9613 32.9575 22.9169 32.8825 22.8631 32.8617C22.807 32.8401 22.765 32.7428 22.765 32.6349C22.765 32.5308 22.7356 32.4457 22.6995 32.4457C22.6637 32.4457 22.6343 32.3609 22.6343 32.2573C22.6343 32.1537 22.5899 32.0324 22.5362 31.9876C22.482 31.9429 22.438 31.8087 22.438 31.689C22.438 31.5696 22.4086 31.4539 22.3725 31.4315C22.3364 31.4095 22.307 31.2301 22.307 31.0331C22.307 30.7753 22.2795 30.6646 22.2088 30.6375C22.1315 30.6077 22.1107 30.4715 22.1107 29.9856C22.1107 29.6194 22.0844 29.3709 22.0455 29.3709C22.002 29.3709 21.98 25.6207 21.98 18.2506V7.13023H20.7479C20.0705 7.13023 19.4963 7.14985 19.4723 7.1738ZM90.275 9.84742C90.275 9.94083 90.2307 10.0617 90.1769 10.1159C90.1164 10.1763 90.0788 10.3365 90.0788 10.5323C90.0788 10.7078 90.0493 10.8691 90.0132 10.8914C89.9775 10.9138 89.9481 11.0896 89.9481 11.2824C89.9481 11.4884 89.917 11.6431 89.8727 11.658C89.8311 11.6717 89.7832 11.8515 89.7663 12.0571C89.7491 12.2628 89.7094 12.4469 89.678 12.4665C89.6466 12.4857 89.6207 12.6596 89.6207 12.8523C89.6207 13.0584 89.5897 13.213 89.5453 13.2279C89.5041 13.2417 89.4562 13.4214 89.4394 13.6271C89.4221 13.8327 89.3825 14.0168 89.3511 14.0364C89.3197 14.0557 89.2938 14.2303 89.2938 14.4238C89.2938 14.6173 89.2643 14.7939 89.2282 14.8163C89.1925 14.8387 89.1627 14.9066 89.1623 14.9674C89.1619 15.0907 88.8879 15.2414 88.6638 15.2414C88.5837 15.2414 88.4777 15.2822 88.4279 15.3316C88.3784 15.3811 88.2218 15.4388 88.0801 15.46C87.4777 15.5491 87.3316 15.5872 87.2602 15.6735C87.2166 15.7261 87.0632 15.765 86.8979 15.765C86.7405 15.765 86.6118 15.7944 86.6118 15.8301C86.6118 15.8662 86.5078 15.8957 86.3806 15.8957C86.2358 15.8957 86.1357 15.9322 86.1121 15.9938C86.0886 16.0542 85.9893 16.0919 85.8523 16.0919H85.6306V16.8769V17.6618H87.3968H89.1631V26.1619C89.1631 31.758 89.1854 34.6758 89.2282 34.7025C89.2643 34.7245 89.2938 34.96 89.2938 35.2257C89.2938 35.4914 89.3232 35.7269 89.3593 35.7489C89.395 35.7712 89.4245 35.9 89.4245 36.0346C89.4245 36.1696 89.4676 36.3372 89.5206 36.4071C89.5736 36.4769 89.6176 36.6131 89.6187 36.7101C89.6199 36.807 89.6501 36.9043 89.6863 36.9263C89.7224 36.9487 89.7518 37.0205 89.7518 37.0857C89.7518 37.1512 89.7958 37.2415 89.8499 37.2862C89.9037 37.331 89.9481 37.4228 89.9481 37.4903C89.9481 37.5582 89.9775 37.6132 90.0132 37.6132C90.0493 37.6132 90.0788 37.6732 90.0788 37.7462C90.0788 37.8192 90.1227 37.8962 90.1769 37.9166C90.2307 37.9374 90.275 38.0076 90.275 38.0724C90.275 38.1988 91.2625 39.2487 91.3815 39.2487C91.4207 39.2487 91.4525 39.2781 91.4525 39.3142C91.4525 39.3499 91.5082 39.3794 91.5765 39.3794C91.6444 39.3794 91.7171 39.4237 91.7379 39.4775C91.7587 39.5316 91.8352 39.5756 91.9082 39.5756C91.9816 39.5756 92.0413 39.605 92.0413 39.6412C92.0413 39.6773 92.1115 39.7067 92.1979 39.7067C92.2838 39.7067 92.3713 39.7507 92.3921 39.8048C92.4126 39.8586 92.5024 39.9029 92.5915 39.9029C92.6802 39.9029 92.7713 39.9324 92.7937 39.9681C92.8157 40.0042 92.9334 40.0336 93.0551 40.0336C93.1768 40.0336 93.2945 40.0631 93.3169 40.0992C93.3393 40.1349 93.5284 40.1643 93.738 40.1643C93.9963 40.1643 94.1447 40.1961 94.2 40.2625C94.2675 40.3441 94.5132 40.3606 95.6491 40.3606C96.8046 40.3606 97.0229 40.3457 97.0547 40.2625C97.0837 40.1871 97.2097 40.1643 97.6049 40.1643C97.8868 40.1643 98.1356 40.1349 98.1576 40.0992C98.18 40.0631 98.3436 40.0336 98.5214 40.0336C98.6992 40.0336 98.8445 40.0042 98.8445 39.9681C98.8445 39.9324 98.9159 39.9029 99.0026 39.9029C99.368 39.9029 99.3681 39.9037 99.3681 38.8165V37.8094H98.91C98.658 37.8094 98.452 37.8357 98.452 37.8675C98.452 37.8993 98.138 37.9374 97.7537 37.9515C97.2827 37.9688 97.0464 38.0033 97.0288 38.0571C96.993 38.1638 94.8767 38.1717 94.841 38.0649C94.828 38.0253 94.6777 37.977 94.5069 37.9582C94.3366 37.9389 94.1812 37.8973 94.1619 37.8663C94.1427 37.8349 94.0403 37.8094 93.9343 37.8094C93.8287 37.8094 93.742 37.7815 93.742 37.747C93.742 37.7129 93.6391 37.6359 93.5131 37.5763C93.3871 37.5166 93.2843 37.4417 93.2843 37.4095C93.2843 37.3777 93.24 37.3518 93.1862 37.3518C93.132 37.3518 93.0881 37.3286 93.0881 37.3004C93.0881 37.2717 92.9554 37.1084 92.7937 36.9369C92.6316 36.7658 92.4993 36.5817 92.4993 36.5287C92.4993 36.4753 92.455 36.4149 92.4012 36.3941C92.347 36.3733 92.3031 36.3023 92.3031 36.2363C92.3031 36.1704 92.2736 36.0982 92.2375 36.0762C92.2014 36.0538 92.172 35.9639 92.172 35.876C92.172 35.7881 92.1425 35.7163 92.1068 35.7163C92.0707 35.7163 92.0413 35.6154 92.0413 35.4922C92.0413 35.3685 91.9969 35.2237 91.9431 35.1695C91.876 35.1024 91.845 34.9368 91.845 34.6456C91.845 34.4113 91.8156 34.2013 91.7795 34.1789C91.7367 34.1526 91.7143 31.322 91.7143 25.9002V17.6618H95.2138H98.7138V16.5499V15.4376H95.2146H91.7155L91.6986 12.576L91.6813 9.71398L90.9784 9.69553L90.275 9.67669V9.84742ZM129.038 11.9217C129.008 12.0171 128.944 12.6706 128.904 13.2789C128.88 13.6542 128.888 13.6349 128.966 13.1157C129.016 12.7919 129.058 12.3872 129.061 12.2165L129.067 11.906L135.167 11.8891L141.267 11.8719L135.165 11.8558C130.329 11.8432 129.058 11.857 129.038 11.9217ZM128.782 14.5435C128.752 14.7892 128.744 15.0051 128.762 15.0235C128.812 15.0738 128.886 14.5114 128.858 14.2892C128.843 14.1664 128.815 14.2578 128.782 14.5435ZM62.342 15.0451C62.342 15.0856 61.9946 15.1107 61.4302 15.1107C60.8928 15.1107 60.5015 15.1374 60.4776 15.1762C60.4556 15.2119 60.2794 15.2414 60.0859 15.2414C59.861 15.2414 59.6996 15.2767 59.6365 15.3395C59.578 15.3984 59.4182 15.4376 59.2396 15.4376C59.0752 15.4376 58.9406 15.4671 58.9406 15.5032C58.9406 15.5393 58.8558 15.5687 58.7521 15.5687C58.6485 15.5687 58.5272 15.6127 58.4825 15.6668C58.4378 15.7206 58.318 15.765 58.2168 15.765C58.1151 15.765 58.0142 15.7944 57.9919 15.8301C57.9695 15.8662 57.8934 15.8957 57.8223 15.8957C57.7513 15.8957 57.6763 15.9396 57.6559 15.9938C57.6351 16.0475 57.5476 16.0919 57.4616 16.0919C57.3753 16.0919 57.305 16.1213 57.305 16.1574C57.305 16.1932 57.2497 16.2226 57.1821 16.2226C57.1146 16.2226 57.0228 16.2669 56.9781 16.3207C56.9333 16.3749 56.856 16.4188 56.8065 16.4188C56.7567 16.4188 56.7163 16.4483 56.7163 16.4844C56.7163 16.5205 56.6719 16.5499 56.6181 16.5499C56.564 16.5499 56.52 16.5727 56.52 16.6002C56.52 16.628 56.4168 16.7065 56.2912 16.774C56.1652 16.8419 56.062 16.9224 56.062 16.9526C56.062 16.9828 56.018 17.0076 55.9638 17.0076C55.9101 17.0076 55.8657 17.0519 55.8657 17.1057C55.8657 17.1599 55.839 17.2038 55.806 17.2038C55.7334 17.2038 55.0807 17.8157 55.0807 17.8836C55.0807 17.9103 54.9779 18.0296 54.8519 18.1481C54.7259 18.2671 54.6231 18.4268 54.6231 18.5037C54.6231 18.5838 54.5814 18.6431 54.5249 18.6431C54.4456 18.6431 54.4268 18.5418 54.4268 18.1238C54.4268 17.8381 54.3974 17.5861 54.3613 17.5637C54.3251 17.5414 54.2957 17.2768 54.2957 16.9758C54.2957 16.5762 54.2694 16.402 54.1976 16.3301C54.132 16.2646 54.0995 16.1005 54.0995 15.8348V15.4376H53.0554C52.0895 15.4376 52.0059 15.4474 51.9431 15.5644C51.8971 15.6503 51.8756 19.5662 51.8756 27.7629V39.835L52.0227 39.8711C52.1036 39.8912 52.6704 39.899 53.2819 39.8888L54.3938 39.87L54.4107 32.3538C54.4233 26.6997 54.4464 24.8145 54.5045 24.7447C54.5469 24.6937 54.594 24.3961 54.6093 24.0841C54.6246 23.7717 54.6635 23.4883 54.6953 23.4542C54.7275 23.42 54.7545 23.2583 54.7557 23.0947C54.7569 22.931 54.8012 22.7399 54.8538 22.67C54.9068 22.6001 54.95 22.4455 54.95 22.3266C54.95 22.2072 54.9794 22.1099 55.0156 22.1099C55.0513 22.1099 55.0807 22.0071 55.0807 21.8811C55.0807 21.7551 55.1101 21.6523 55.1463 21.6523C55.1824 21.6523 55.2118 21.582 55.2118 21.4965C55.2118 21.4109 55.2558 21.3045 55.3099 21.2598C55.3637 21.215 55.4081 21.1083 55.4081 21.0227C55.4081 20.9372 55.4375 20.8673 55.4732 20.8673C55.5093 20.8673 55.5388 20.7935 55.5388 20.7036C55.5388 20.602 55.5756 20.54 55.6369 20.54C55.6906 20.54 55.735 20.496 55.735 20.4418C55.735 20.3881 55.7644 20.3437 55.8006 20.3437C55.8363 20.3437 55.8657 20.2982 55.8657 20.2425C55.8657 20.1867 55.9395 20.0733 56.0294 19.9897C56.1193 19.9065 56.1931 19.8174 56.1931 19.7919C56.1931 19.7668 56.2296 19.7047 56.2747 19.6545C56.4623 19.4457 56.52 19.3652 56.52 19.3142C56.52 19.2844 56.6134 19.2047 56.7276 19.1372C56.9239 19.0214 56.9894 18.9724 57.3207 18.6921C57.3949 18.6293 57.4954 18.5775 57.544 18.5775C57.5923 18.5775 57.632 18.5536 57.632 18.5245C57.632 18.4951 57.7352 18.4307 57.8612 18.3813C57.9868 18.3318 58.09 18.2529 58.09 18.2058C58.09 18.154 58.1673 18.1199 58.2823 18.1199C58.3883 18.1199 58.4931 18.0904 58.5151 18.0543C58.5374 18.0182 58.6242 17.9888 58.7082 17.9888C58.7922 17.9888 58.8781 17.9448 58.8986 17.8907C58.9221 17.829 59.0222 17.7925 59.1674 17.7925C59.2942 17.7925 59.3982 17.7631 59.3982 17.7274C59.3982 17.6913 59.5289 17.6618 59.6887 17.6618C59.8488 17.6618 59.9976 17.6324 60.0199 17.5963C60.0419 17.5606 60.213 17.5308 60.3999 17.5308C60.5867 17.5304 60.8238 17.4864 60.9266 17.4326C61.2029 17.2886 63.941 17.2886 64.085 17.433C64.1455 17.4935 64.306 17.5311 64.5054 17.5311C64.6828 17.5311 64.8281 17.5606 64.8281 17.5963C64.8281 17.6324 64.9458 17.6618 65.0895 17.6618C65.2335 17.6618 65.3513 17.6913 65.3513 17.7274C65.3513 17.7631 65.4211 17.7925 65.5067 17.7925C65.5922 17.7925 65.699 17.8369 65.7438 17.8907C65.7885 17.9448 65.8662 17.9888 65.9168 17.9888C66.1551 17.9888 67.3793 18.9806 67.3793 19.1737C67.3793 19.2055 67.4233 19.2318 67.4774 19.2318C67.5312 19.2318 67.5756 19.2758 67.5756 19.3299C67.5756 19.3837 67.605 19.428 67.6407 19.428C67.6768 19.428 67.7063 19.4877 67.7063 19.5611C67.7063 19.6341 67.7502 19.7106 67.8044 19.7314C67.8581 19.7522 67.9025 19.8248 67.9025 19.8927C67.9025 19.961 67.9319 20.0168 67.9681 20.0168C68.0038 20.0168 68.0332 20.0741 68.0332 20.1435C68.0332 20.2134 68.0626 20.2888 68.0988 20.3111C68.1349 20.3335 68.1643 20.4199 68.1643 20.5031C68.1643 20.5867 68.2083 20.6915 68.2624 20.7362C68.3162 20.7809 68.3606 20.9156 68.3606 21.0349C68.3606 21.1542 68.39 21.27 68.4257 21.2924C68.4618 21.3147 68.4913 21.4368 68.4913 21.5644C68.4913 21.6915 68.5344 21.8885 68.587 22.002C68.7354 22.3215 68.7566 23.2697 68.8056 31.8895L68.8512 39.87H70.0287H71.2062L71.2227 31.0932C71.2372 23.3545 71.2278 22.3046 71.141 22.2178C71.0708 22.1476 71.0425 21.978 71.0425 21.6279C71.0425 21.3575 71.0131 21.1185 70.977 21.0961C70.9412 21.0737 70.9118 20.9242 70.9118 20.7633C70.9118 20.5635 70.8804 20.4587 70.8137 20.4328C70.7497 20.4085 70.7156 20.3064 70.7156 20.1408C70.7156 20.0007 70.6861 19.8861 70.65 19.8861C70.6139 19.8861 70.5845 19.7829 70.5845 19.6569C70.5845 19.5309 70.555 19.428 70.5193 19.428C70.4832 19.428 70.4538 19.3727 70.4538 19.3052C70.4538 19.2377 70.4094 19.1458 70.3556 19.1011C70.3015 19.0564 70.2575 18.9834 70.2575 18.9394C70.2575 18.8146 70.0585 18.4468 69.991 18.4468C69.9576 18.4468 69.9306 18.3982 69.9306 18.3385C69.9306 18.2788 69.8568 18.1336 69.7669 18.0159C69.677 17.8977 69.6032 17.7827 69.6032 17.7596C69.6032 17.6921 69.4223 17.5311 69.3465 17.5311C69.3077 17.5311 69.2763 17.4986 69.2763 17.4589C69.2763 17.3757 68.3134 16.4188 68.2298 16.4188C68.1988 16.4188 68.1333 16.3823 68.0846 16.3372C67.9488 16.2124 67.7188 16.0919 67.616 16.0919C67.5653 16.0919 67.5069 16.0475 67.4865 15.9938C67.4657 15.9396 67.3887 15.8957 67.3157 15.8957C67.2427 15.8957 67.1831 15.8662 67.1831 15.8301C67.1831 15.7944 67.0979 15.765 66.9935 15.765C66.8859 15.765 66.7882 15.7226 66.7666 15.6668C66.7462 15.6127 66.6563 15.5687 66.5672 15.5687C66.4785 15.5687 66.3874 15.5393 66.3651 15.5032C66.3431 15.4671 66.2214 15.4376 66.095 15.4376C65.9687 15.4376 65.8211 15.3937 65.7673 15.3395C65.7069 15.2794 65.5463 15.2414 65.3505 15.2414C65.1754 15.2414 65.0137 15.2119 64.9913 15.1762C64.9678 15.1378 64.5874 15.1107 64.0717 15.1107C63.5293 15.1107 63.1925 15.0856 63.1925 15.0451C63.1925 15.0082 63.0072 14.98 62.7674 14.98C62.5276 14.98 62.342 15.0082 62.342 15.0451ZM128.651 15.8466C128.628 16.1433 128.596 16.6218 128.581 16.9094L128.554 17.433L128.609 17.0076C128.691 16.3651 128.764 15.3069 128.726 15.3069C128.708 15.3069 128.674 15.5499 128.651 15.8466ZM78.792 15.5197C78.7748 15.5644 78.7685 21.0616 78.7775 27.7358L78.7944 39.87L79.9063 39.8888C80.5182 39.899 81.0846 39.8912 81.1659 39.8711L81.3131 39.835V27.7629C81.3131 19.5662 81.2911 15.6503 81.2451 15.5644C81.1608 15.4066 78.8509 15.3646 78.792 15.5197ZM128.449 18.1391C128.421 18.3836 128.413 18.5995 128.432 18.6187C128.48 18.6666 128.564 17.9719 128.529 17.8177C128.513 17.7498 128.477 17.8946 128.449 18.1391ZM128.368 19.428C128.368 19.662 128.38 19.7577 128.395 19.6408C128.41 19.5238 128.41 19.3323 128.395 19.2153C128.38 19.0984 128.368 19.1941 128.368 19.428ZM131.128 19.4222C130.948 19.4433 131.684 19.4606 132.763 19.4606C133.843 19.4606 134.578 19.4414 134.399 19.4174C134.001 19.3649 131.582 19.368 131.128 19.4222ZM130.016 19.5623C129.928 19.6023 129.992 19.6086 130.212 19.5819C130.392 19.5599 130.551 19.5313 130.566 19.5179C130.624 19.4665 130.14 19.5058 130.016 19.5623ZM134.895 19.5171C134.91 19.5305 135.084 19.5587 135.282 19.5803C135.517 19.6058 135.596 19.5992 135.511 19.5611C135.387 19.5058 134.837 19.4665 134.895 19.5171ZM129.034 19.7263L128.707 19.8158L129.002 19.7762C129.164 19.7542 129.428 19.7153 129.591 19.689L129.885 19.6419L129.623 19.6392C129.479 19.638 129.214 19.6773 129.034 19.7263ZM135.756 19.6694C135.819 19.6859 135.922 19.6859 135.985 19.6694C136.048 19.6529 135.997 19.6396 135.871 19.6396C135.745 19.6396 135.693 19.6529 135.756 19.6694ZM136.23 19.755C136.302 19.786 136.405 19.8115 136.459 19.8115C136.521 19.8115 136.509 19.7907 136.426 19.755C136.355 19.7244 136.251 19.6989 136.198 19.6989C136.135 19.6989 136.148 19.7197 136.23 19.755ZM137.301 20.0521C137.589 20.1769 137.723 20.1749 137.482 20.049C137.379 19.9952 137.247 19.9524 137.188 19.954C137.129 19.9552 137.18 19.9995 137.301 20.0521ZM138.319 20.445C138.496 20.5329 138.653 20.5922 138.668 20.5769C138.703 20.5423 138.161 20.277 138.066 20.2817C138.028 20.2837 138.142 20.3571 138.319 20.445ZM138.814 20.6742C139.026 20.8186 139.284 20.9399 139.245 20.8767C139.204 20.8108 138.83 20.6047 138.755 20.6067C138.733 20.6071 138.76 20.6377 138.814 20.6742ZM139.861 21.277C139.861 21.2916 139.978 21.3979 140.123 21.5133C140.267 21.6291 140.384 21.7002 140.383 21.6715C140.382 21.6201 139.861 21.2268 139.861 21.277ZM140.973 22.27C141.279 22.5899 141.571 22.8984 141.623 22.9553C141.996 23.367 142.724 24.6921 143.009 25.479C143.074 25.6588 143.128 25.753 143.129 25.6886C143.143 25.0147 141.69 22.7924 140.641 21.8823C140.518 21.7751 140.667 21.9498 140.973 22.27ZM143.305 26.4928C143.327 26.6188 143.367 26.8543 143.393 27.016L143.441 27.3104L143.445 27.049C143.447 26.9049 143.407 26.6694 143.357 26.5254C143.266 26.2679 143.266 26.2675 143.305 26.4928ZM143.505 27.8665C143.526 28.1723 143.553 28.4348 143.566 28.4498C143.616 28.5078 143.577 27.5651 143.525 27.4415C143.491 27.3637 143.484 27.536 143.505 27.8665ZM143.537 30.0978C143.53 30.2277 143.509 30.4781 143.49 30.654C143.461 30.9189 143.467 30.9464 143.525 30.8133C143.564 30.725 143.585 30.475 143.572 30.2572C143.56 30.0397 143.544 29.9679 143.537 30.0978ZM143.378 31.3663C143.352 31.5461 143.315 31.7961 143.297 31.9221C143.273 32.0866 143.292 32.0591 143.362 31.824C143.416 31.6442 143.452 31.3938 143.442 31.2682C143.427 31.0618 143.421 31.0712 143.378 31.3663ZM143.205 32.293C143.2 32.335 143.178 32.4233 143.155 32.4892C143.122 32.5823 143.131 32.5925 143.193 32.5344C143.238 32.4932 143.261 32.4049 143.244 32.3381C143.226 32.2714 143.209 32.251 143.205 32.293ZM143.069 32.7726C143.065 32.8264 142.961 33.1349 142.839 33.4575C142.716 33.7805 142.625 34.0545 142.638 34.067C142.683 34.1122 143.143 32.8389 143.11 32.7581C143.086 32.6984 143.074 32.7024 143.069 32.7726ZM141.904 35.3289C141.787 35.5059 141.714 35.6499 141.741 35.6488C141.795 35.6464 142.168 35.0581 142.136 35.0263C142.126 35.0161 142.021 35.1523 141.904 35.3289ZM141.313 36.1319C140.894 36.6476 140.117 37.3902 139.59 37.778C139.372 37.9393 139.215 38.0712 139.244 38.0712C139.456 38.0712 141.061 36.5943 141.5 35.9942C141.804 35.5801 141.697 35.6582 141.313 36.1319ZM138.797 38.2879C138.626 38.3954 138.498 38.4963 138.513 38.5112C138.534 38.5328 138.876 38.3373 139.136 38.1556C139.315 38.0304 139.029 38.1415 138.797 38.2879ZM122.526 41.6954C122.526 43.8698 122.502 45.0771 122.46 45.1034C122.363 45.1634 122.381 45.3322 122.485 45.3322C122.641 45.3322 122.656 45.0006 122.656 41.7315C122.656 39.24 122.674 38.5339 122.738 38.5127C122.788 38.4959 122.763 38.4554 122.672 38.4068L122.526 38.3283V41.6954ZM123.104 38.6933C123.261 38.7828 123.423 38.855 123.464 38.853C123.551 38.8499 122.984 38.5363 122.885 38.5328C122.849 38.5316 122.948 38.6038 123.104 38.6933ZM138.079 38.6772C137.944 38.7522 137.843 38.8228 137.855 38.8342C137.882 38.8617 138.422 38.6011 138.422 38.5602C138.422 38.5057 138.33 38.5367 138.079 38.6772ZM123.866 39.021C124.046 39.1058 124.238 39.1757 124.292 39.1764C124.346 39.1772 124.216 39.1054 124.003 39.0171C123.515 38.8146 123.434 38.8173 123.866 39.021ZM137.342 39.0183C137.162 39.1031 137.035 39.1749 137.059 39.1776C137.127 39.1863 137.702 38.9304 137.702 38.8911C137.702 38.8464 137.723 38.8389 137.342 39.0183ZM124.423 39.2102C124.423 39.2487 125.25 39.5112 125.352 39.505C125.399 39.5022 125.23 39.4296 124.979 39.3436C124.511 39.1839 124.423 39.1627 124.423 39.2102ZM136.43 39.3374C136.201 39.4194 136.09 39.4865 136.159 39.4999C136.224 39.5124 136.309 39.4904 136.348 39.4512C136.388 39.4115 136.466 39.3782 136.521 39.3766C136.577 39.375 136.711 39.333 136.819 39.2836C137.12 39.1458 136.866 39.1808 136.43 39.3374ZM125.633 39.5756C125.705 39.6066 125.823 39.6321 125.894 39.6321H126.025L125.894 39.5756C125.823 39.545 125.705 39.5195 125.633 39.5195H125.502L125.633 39.5756ZM135.641 39.5756L135.511 39.6321L135.641 39.6357C135.714 39.6376 135.816 39.6105 135.871 39.5756C136 39.4916 135.837 39.4916 135.641 39.5756ZM126.352 39.7353C126.532 39.7883 126.782 39.8292 126.908 39.8264L127.137 39.8209L126.876 39.7726C126.732 39.7459 126.482 39.7051 126.319 39.6816L126.025 39.6388L126.352 39.7353ZM134.922 39.7408C134.719 39.793 134.657 39.8268 134.758 39.8299C134.848 39.8331 135.054 39.7938 135.216 39.7428C135.581 39.6278 135.367 39.6262 134.922 39.7408ZM127.334 39.9029C127.406 39.9336 127.567 39.9575 127.693 39.9559L127.922 39.9528L127.726 39.9029C127.432 39.828 127.159 39.828 127.334 39.9029ZM134.071 39.9029L133.875 39.9528L134.071 39.9595C134.179 39.9634 134.312 39.9379 134.366 39.9029C134.487 39.8244 134.38 39.8244 134.071 39.9029ZM128.544 40.0372C128.705 40.0658 128.985 40.0874 129.165 40.0854L129.492 40.0815L129.165 40.0305C128.985 40.0026 128.705 39.9807 128.544 39.9822L128.249 39.9846L128.544 40.0372ZM133.03 40.0172C133.003 40.0442 132.211 40.0827 131.27 40.1031L129.558 40.1396L131.128 40.149C132.478 40.1569 134.336 40.0101 133.314 39.9759C133.185 39.9716 133.057 39.9905 133.03 40.0172Z" fill="#747473"/>
<path fill-rule="evenodd" clip-rule="evenodd" d="M129.916 0.0458865C129.326 0.0698282 129.113 0.113002 129.165 0.198172C129.189 0.237028 129.024 0.261755 128.739 0.261755C128.445 0.261755 128.288 0.285696 128.314 0.326908C128.339 0.366941 128.232 0.393238 128.04 0.394415C127.866 0.395593 127.668 0.439944 127.598 0.492537C127.528 0.545523 127.361 0.588697 127.226 0.588697C127.091 0.588697 126.962 0.618133 126.94 0.654242C126.918 0.689959 126.784 0.719395 126.642 0.719395C126.5 0.719395 126.384 0.748832 126.384 0.78494C126.384 0.821049 126.283 0.850486 126.16 0.850486C126.036 0.850486 125.891 0.894445 125.837 0.948608C125.783 1.00238 125.65 1.04673 125.542 1.04673C125.434 1.04673 125.327 1.07617 125.305 1.11188C125.282 1.14799 125.196 1.17743 125.113 1.17743C125.029 1.17743 124.924 1.22139 124.88 1.27555C124.835 1.32932 124.728 1.37367 124.642 1.37367C124.557 1.37367 124.487 1.40311 124.487 1.43922C124.487 1.47493 124.416 1.50437 124.328 1.50437C124.241 1.50437 124.125 1.54872 124.071 1.60249C124.017 1.65666 123.914 1.70061 123.841 1.70061C123.769 1.70061 123.691 1.73005 123.669 1.76616C123.647 1.80227 123.572 1.8317 123.502 1.8317C123.432 1.8317 123.375 1.87566 123.375 1.92983C123.375 1.98948 123.314 2.02795 123.219 2.02795C123.133 2.02795 122.981 2.07034 122.88 2.12254C122.78 2.17474 122.673 2.20261 122.643 2.18416C122.614 2.16571 122.59 2.17906 122.59 2.2132C122.59 2.24735 122.516 2.29366 122.426 2.31643C122.337 2.3388 122.263 2.38629 122.263 2.42161C122.263 2.45694 122.218 2.48559 122.165 2.48559C122.11 2.48559 122.066 2.50875 122.066 2.5374C122.066 2.56566 122.004 2.59352 121.928 2.59902C121.852 2.60491 121.74 2.65514 121.678 2.71127C121.616 2.767 121.531 2.81292 121.489 2.81292C121.447 2.81292 121.412 2.83922 121.412 2.87101C121.412 2.9032 121.339 2.94794 121.249 2.97031C121.159 2.99308 121.085 3.04057 121.085 3.07589C121.085 3.11082 121.026 3.13987 120.955 3.13987C120.882 3.13987 120.823 3.1693 120.823 3.20541C120.823 3.24113 120.779 3.27056 120.725 3.27056C120.672 3.27056 120.627 3.31492 120.627 3.36869C120.627 3.42991 120.566 3.46681 120.464 3.46681C120.374 3.46681 120.3 3.4931 120.3 3.5249C120.3 3.55669 120.197 3.63165 120.071 3.69131C119.945 3.75136 119.842 3.82829 119.842 3.86244C119.842 3.89697 119.788 3.92484 119.722 3.92484C119.655 3.92484 119.495 4.02767 119.365 4.15366C119.235 4.27965 119.1 4.38287 119.063 4.38287C119.027 4.38287 118.924 4.45627 118.834 4.54615C118.744 4.63642 118.64 4.70982 118.602 4.70982C118.565 4.70982 118.534 4.75377 118.534 4.80794C118.534 4.86249 118.476 4.90606 118.403 4.90606C118.331 4.90606 118.272 4.9355 118.272 4.9716C118.272 5.00732 118.24 5.03676 118.202 5.03676C118.163 5.03676 118.017 5.14744 117.878 5.28206C117.557 5.59331 117.438 5.69103 117.383 5.69103C117.359 5.69103 117.242 5.79387 117.123 5.91985C117.004 6.04584 116.876 6.14907 116.838 6.14907C116.799 6.14907 116.768 6.18243 116.768 6.22325C116.768 6.30135 116.442 6.60671 116.359 6.60671C116.332 6.60671 116.31 6.6385 116.31 6.67696C116.31 6.76763 116.143 6.93404 116.053 6.93404C116.014 6.93404 115.983 6.96544 115.983 7.00391C115.983 7.09457 115.816 7.26098 115.726 7.26098C115.687 7.26098 115.656 7.29003 115.656 7.32535C115.656 7.36107 115.516 7.53573 115.345 7.71392C114.942 8.13388 114.871 8.22219 114.871 8.305C114.871 8.34229 114.841 8.3729 114.805 8.3729C114.769 8.3729 114.74 8.41725 114.74 8.47102C114.74 8.52519 114.708 8.56915 114.67 8.56915C114.579 8.56915 114.413 8.73556 114.413 8.82623C114.413 8.86469 114.385 8.89648 114.35 8.89648C114.316 8.89648 114.239 8.99931 114.179 9.1253C114.12 9.25129 114.041 9.35412 114.004 9.35412C113.919 9.35412 113.764 9.55547 113.761 9.66811C113.76 9.71482 113.685 9.82118 113.595 9.90439C113.505 9.98799 113.431 10.0896 113.431 10.1305C113.431 10.1713 113.402 10.2046 113.366 10.2046C113.33 10.2046 113.301 10.2635 113.301 10.3353C113.301 10.4083 113.257 10.4664 113.203 10.4664C113.148 10.4664 113.105 10.521 113.105 10.5881C113.105 10.6552 113.037 10.7804 112.956 10.8664C112.874 10.9519 112.764 11.1105 112.71 11.2184C112.657 11.3264 112.577 11.4382 112.532 11.4673C112.487 11.4959 112.45 11.5768 112.45 11.647C112.45 11.7173 112.421 11.7746 112.385 11.7746C112.349 11.7746 112.32 11.8284 112.32 11.8939C112.32 11.9598 112.246 12.0827 112.156 12.1671C112.066 12.2515 111.992 12.3743 111.992 12.4402C111.992 12.5058 111.963 12.5596 111.927 12.5596C111.891 12.5596 111.861 12.6298 111.861 12.7162C111.861 12.8021 111.817 12.8896 111.763 12.9105C111.709 12.9309 111.665 13.0078 111.665 13.0808C111.665 13.1538 111.636 13.2138 111.6 13.2138C111.564 13.2138 111.535 13.2841 111.535 13.3704C111.535 13.4564 111.49 13.5439 111.436 13.5643C111.382 13.5851 111.338 13.675 111.338 13.7637C111.338 13.8528 111.309 13.9439 111.273 13.9658C111.237 13.9882 111.207 14.0781 111.207 14.166C111.207 14.2645 111.169 14.3258 111.109 14.3258C111.049 14.3258 111.011 14.387 111.011 14.4855C111.011 14.5734 110.981 14.6633 110.946 14.6857C110.91 14.7077 110.88 14.7999 110.88 14.8902C110.88 14.9808 110.836 15.099 110.781 15.1535C110.727 15.2077 110.7 15.2795 110.72 15.3129C110.741 15.3462 110.712 15.391 110.655 15.4126C110.591 15.4377 110.553 15.5327 110.553 15.6736C110.553 15.796 110.524 15.8957 110.488 15.8957C110.452 15.8957 110.422 16.0135 110.422 16.1575C110.422 16.3463 110.395 16.4189 110.324 16.4189C110.256 16.4189 110.226 16.4876 110.226 16.6442C110.226 16.7678 110.196 16.8875 110.161 16.9095C110.125 16.9319 110.095 17.0806 110.095 17.2408C110.095 17.4551 110.07 17.5312 109.997 17.5312C109.924 17.5312 109.899 17.607 109.899 17.8216C109.899 17.9814 109.87 18.1301 109.833 18.1525C109.798 18.1749 109.768 18.3213 109.768 18.4779C109.768 18.6349 109.735 18.7742 109.695 18.7876C109.654 18.8009 109.607 19.0227 109.588 19.2837C109.57 19.5431 109.529 19.755 109.498 19.755C109.466 19.755 109.441 19.9846 109.441 20.2653C109.441 20.5808 109.41 20.8061 109.361 20.856C109.307 20.9093 109.273 21.2461 109.258 21.8666C109.246 22.378 109.209 22.8251 109.175 22.8592C109.096 22.9393 109.095 24.8397 109.174 24.8684C109.207 24.8805 109.247 25.3303 109.262 25.8684C109.282 26.5203 109.316 26.8547 109.366 26.8712C109.413 26.8869 109.441 27.0687 109.441 27.3532C109.441 27.6044 109.469 27.8615 109.503 27.9251C109.537 27.9883 109.572 28.1959 109.58 28.3858C109.589 28.5762 109.635 28.7705 109.682 28.8176C109.729 28.8651 109.768 29.0385 109.768 29.203C109.768 29.3675 109.798 29.5021 109.833 29.5021C109.87 29.5021 109.899 29.6312 109.899 29.7894C109.899 29.9844 109.93 30.0888 109.997 30.1144C110.061 30.1391 110.095 30.2411 110.095 30.4119C110.095 30.5547 110.125 30.6897 110.161 30.7121C110.196 30.7345 110.226 30.8546 110.226 30.9798C110.226 31.1211 110.263 31.2212 110.324 31.2443C110.385 31.2679 110.422 31.3672 110.422 31.5042C110.422 31.6262 110.452 31.7259 110.488 31.7259C110.524 31.7259 110.553 31.826 110.553 31.9481C110.553 32.0839 110.591 32.1843 110.65 32.2071C110.704 32.2275 110.731 32.2848 110.713 32.3347C110.693 32.3841 110.724 32.4622 110.779 32.5085C110.835 32.5548 110.88 32.6773 110.88 32.7805C110.88 32.8841 110.91 32.9689 110.946 32.9689C110.981 32.9689 111.011 33.0427 111.011 33.1326C111.011 33.2342 111.048 33.2959 111.109 33.2959C111.174 33.2959 111.207 33.361 111.207 33.4882C111.207 33.5941 111.237 33.6989 111.273 33.7213C111.309 33.7433 111.338 33.8151 111.338 33.8807C111.338 33.9458 111.382 34.0361 111.436 34.0808C111.49 34.1256 111.535 34.2178 111.535 34.2853C111.535 34.3528 111.564 34.4082 111.6 34.4082C111.636 34.4082 111.665 34.4816 111.665 34.5714C111.665 34.6735 111.702 34.7351 111.763 34.7351C111.825 34.7351 111.861 34.7967 111.861 34.8988C111.861 34.9887 111.891 35.0621 111.927 35.0621C111.963 35.0621 111.992 35.1092 111.992 35.1665C111.992 35.2242 112.059 35.3635 112.139 35.4765C112.337 35.7517 112.45 35.9734 112.45 36.0837C112.45 36.1335 112.494 36.1744 112.548 36.1744C112.602 36.1744 112.646 36.2289 112.646 36.2956C112.646 36.3624 112.72 36.4962 112.81 36.5931C112.9 36.6905 112.973 36.8122 112.973 36.8644C112.973 36.9166 113.003 36.9593 113.039 36.9593C113.075 36.9593 113.105 37.0033 113.105 37.0575C113.105 37.1112 113.148 37.1556 113.203 37.1556C113.257 37.1556 113.301 37.2137 113.301 37.2863C113.301 37.3581 113.33 37.417 113.366 37.417C113.402 37.417 113.431 37.4613 113.431 37.5151C113.431 37.5693 113.454 37.6132 113.482 37.6132C113.51 37.6132 113.591 37.7239 113.662 37.8585C113.813 38.1458 113.918 38.2675 114.016 38.2675C114.054 38.2675 114.086 38.3264 114.086 38.3982C114.086 38.4704 114.115 38.5293 114.151 38.5293C114.187 38.5293 114.216 38.5575 114.216 38.5925C114.216 38.6776 114.587 39.0525 114.672 39.0525C114.709 39.0525 114.74 39.1074 114.74 39.1741C114.74 39.2413 114.872 39.4383 115.034 39.6122C115.196 39.786 115.328 39.9521 115.328 39.9811C115.328 40.0101 115.358 40.0337 115.394 40.0337C115.479 40.0337 115.983 40.5373 115.983 40.6224C115.983 40.6585 116.014 40.688 116.053 40.688C116.138 40.688 116.31 40.852 116.31 40.9337C116.31 40.9662 116.383 41.0322 116.473 41.0805C116.563 41.1283 116.637 41.2068 116.637 41.2547C116.637 41.303 116.659 41.3419 116.686 41.3422C116.77 41.3422 117.095 41.6476 117.095 41.7257C117.095 41.7665 117.124 41.7999 117.16 41.7999C117.196 41.7999 117.334 41.9027 117.468 42.0287C117.601 42.1547 117.732 42.2579 117.758 42.2579C117.784 42.2579 117.942 42.389 118.109 42.5495C118.277 42.7097 118.476 42.8608 118.553 42.8851C118.716 42.9369 118.861 43.0704 118.861 43.1689C118.861 43.2073 118.915 43.2391 118.982 43.2391C119.048 43.2391 119.209 43.342 119.339 43.468C119.468 43.5939 119.635 43.6968 119.708 43.6968C119.782 43.6968 119.842 43.7305 119.842 43.7714C119.842 43.8699 120.043 44.0194 120.179 44.0218C120.238 44.0229 120.303 44.0681 120.324 44.1222C120.345 44.176 120.421 44.2204 120.495 44.2204C120.568 44.2204 120.627 44.2498 120.627 44.2855C120.627 44.3216 120.672 44.3511 120.725 44.3511C120.779 44.3511 120.823 44.3805 120.823 44.4166C120.823 44.4523 120.882 44.4818 120.955 44.4818C121.027 44.4818 121.085 44.5253 121.085 44.5799C121.085 44.6411 121.147 44.678 121.249 44.678C121.339 44.678 121.412 44.7074 121.412 44.7435C121.412 44.7797 121.457 44.8091 121.51 44.8091C121.564 44.8091 121.608 44.8377 121.608 44.8731C121.608 44.9084 121.682 44.9559 121.772 44.9783C121.862 45.001 121.936 45.0458 121.936 45.0775C121.936 45.1097 122.006 45.136 122.092 45.136C122.179 45.136 122.268 45.1855 122.291 45.2467C122.327 45.3393 122.35 45.3272 122.429 45.1741C122.51 45.0171 122.525 44.1646 122.525 39.372C122.525 32.9634 122.45 33.6024 123.153 33.9427C124.867 34.7728 126.655 35.2952 128.87 35.6123C133.504 36.276 137.058 34.7818 137.88 31.824C138.079 31.105 138.111 30.9241 138.155 30.267C138.263 28.626 138.019 27.3881 137.387 26.3622C135.875 23.9111 132.023 23.1834 126.384 24.284C126.006 24.3573 125.652 24.4201 125.597 24.4229C125.542 24.4252 124.991 24.1254 124.371 23.7561L123.244 23.0845V22.6543C123.244 22.4181 123.286 21.7497 123.337 21.1696C123.433 20.0745 123.505 19.1714 123.67 17.0076C123.793 15.389 123.885 14.2331 123.968 13.279C124.035 12.5113 124.122 11.3778 124.223 9.97582C124.37 7.93135 124.438 7.2916 124.509 7.24568C124.551 7.21938 128.346 7.19701 132.942 7.19662L141.299 7.19544V4.28985C141.299 1.12248 141.304 1.17743 141.034 1.17743C140.932 1.17743 140.831 1.14799 140.808 1.11188C140.786 1.07617 140.704 1.04555 140.625 1.04437C140.546 1.0432 140.424 0.999239 140.354 0.946253C140.284 0.89366 140.13 0.850486 140.011 0.850486C139.892 0.850486 139.795 0.821049 139.795 0.78494C139.795 0.748832 139.677 0.719395 139.533 0.719395C139.389 0.719395 139.271 0.689959 139.271 0.654242C139.271 0.618133 139.127 0.588697 138.951 0.588697C138.727 0.588697 138.62 0.55926 138.593 0.490575C138.567 0.421497 138.459 0.392453 138.226 0.392453C138.046 0.392453 137.897 0.363016 137.897 0.326908C137.897 0.290406 137.714 0.261755 137.478 0.261755C137.2 0.261755 137.049 0.233888 137.031 0.179725C136.983 0.0360743 132.319 -0.0514504 129.916 0.0458865Z" fill="#DC544C"/>
<path fill-rule="evenodd" clip-rule="evenodd" d="M124.509 7.24567C124.438 7.29159 124.371 7.93135 124.223 9.97582C124.122 11.3778 124.035 12.5113 123.968 13.279C123.885 14.2331 123.793 15.389 123.67 17.0076C123.505 19.1714 123.433 20.0745 123.337 21.1696C123.286 21.7497 123.244 22.4181 123.244 22.6543V23.0845L124.371 23.756C124.991 24.1254 125.543 24.4252 125.597 24.4229C125.652 24.4201 126.006 24.3573 126.384 24.2839C131.482 23.289 135.003 23.7608 136.861 25.6867C137.86 26.7229 138.289 28.2406 138.155 30.267C138.112 30.924 138.079 31.105 137.88 31.824C137.058 34.7818 133.504 36.276 128.87 35.6123C126.655 35.2952 124.867 34.7728 123.153 33.9427C122.468 33.611 122.525 33.423 122.525 36.0358V38.3177L122.672 38.4104C123.144 38.7067 124.87 39.361 125.566 39.5077C125.71 39.538 125.99 39.5972 126.188 39.6392C130.039 40.4552 134.49 40.1887 137.472 38.9642C140.394 37.7639 142.736 34.9612 143.267 32.0297C144.043 27.7492 143.269 24.5245 140.914 22.2285C139.437 20.7885 137.815 20.0211 135.313 19.58C133.908 19.3323 130.726 19.4261 129.217 19.7597C129.066 19.7931 128.809 19.8206 128.645 19.8206H128.347L128.349 19.5427C128.351 19.3896 128.381 18.9555 128.417 18.5776C128.453 18.2 128.509 17.5524 128.543 17.1387C128.577 16.7246 128.651 15.9153 128.708 15.3395C128.765 14.7642 128.84 13.9545 128.874 13.5408C128.909 13.1271 128.959 12.5823 128.986 12.3307L129.033 11.8727L135.166 11.8558L141.299 11.8393V9.51739V7.19543L132.942 7.19661C128.346 7.197 124.551 7.21938 124.509 7.24567Z" fill="#FBFAFA"/>
<path fill-rule="evenodd" clip-rule="evenodd" d="M141.366 6.60008C141.366 11.3052 141.355 11.83 141.262 11.8657C141.206 11.8877 138.438 11.9053 135.113 11.9053H129.067L129.066 12.1836C129.065 12.3363 129.034 12.6675 128.998 12.9195C128.935 13.345 128.87 14.042 128.744 15.6669C128.642 16.9731 128.54 18.0301 128.477 18.4218C128.442 18.6416 128.414 19.0466 128.414 19.3214C128.414 19.8772 128.419 19.8819 128.884 19.7527C130.006 19.4411 133.046 19.2688 134.55 19.4313C135.429 19.5263 136.697 19.7724 136.933 19.8932C136.996 19.9254 137.115 19.9513 137.198 19.9513C137.281 19.9513 137.377 19.9761 137.412 20.0059C137.446 20.0361 137.621 20.1119 137.801 20.1743C138.242 20.3277 139.062 20.7292 139.311 20.9137C139.423 20.9961 139.535 21.0636 139.56 21.0636C139.702 21.0636 140.589 21.798 141.218 22.4373C141.952 23.1835 142.923 24.8213 143.137 25.6734C143.164 25.7825 143.236 26.0482 143.296 26.2641C143.356 26.48 143.438 26.8477 143.478 27.0817C143.577 27.6594 143.571 30.6466 143.47 31.2683C143.358 31.9556 143.237 32.4937 143.18 32.5502C143.154 32.5765 143.132 32.664 143.132 32.7441C143.132 32.8971 142.668 34.1013 142.479 34.4396C142.418 34.5483 142.29 34.7779 142.195 34.9499C141.996 35.3058 141.811 35.603 141.758 35.6508C141.738 35.6689 141.614 35.831 141.483 36.0107C141.027 36.6375 139.46 38.069 139.229 38.0709C139.187 38.0709 139.143 38.0933 139.131 38.1204C139.057 38.2868 137.663 38.9858 136.819 39.2794C136.64 39.3422 136.434 39.4175 136.362 39.447C136.289 39.4764 136.157 39.5153 136.067 39.5329C135.977 39.551 135.727 39.613 135.511 39.6711C135.062 39.792 134.547 39.883 133.843 39.9662C133.573 39.9984 133.194 40.0557 133 40.0946C132.557 40.1825 130.046 40.1821 129.133 40.0938C127.695 39.9545 126.559 39.8132 126.386 39.7523C126.331 39.7335 126.052 39.6676 125.764 39.6055C124.897 39.4195 123.816 39.0443 123.07 38.6698C122.883 38.5764 122.715 38.5144 122.697 38.5325C122.679 38.5505 122.655 40.1173 122.644 42.0142L122.624 45.463H122.763C122.84 45.463 122.939 45.5074 122.984 45.5611C123.028 45.6153 123.135 45.6593 123.221 45.6593C123.306 45.6593 123.376 45.6887 123.376 45.7248C123.376 45.7609 123.435 45.7904 123.507 45.7904C123.579 45.7904 123.638 45.8198 123.638 45.8555C123.638 45.8916 123.713 45.9211 123.804 45.9211C123.895 45.9211 123.986 45.965 124.007 46.0192C124.03 46.0796 124.129 46.1173 124.266 46.1173C124.388 46.1173 124.489 46.1467 124.489 46.1828C124.489 46.2186 124.559 46.248 124.645 46.248C124.731 46.248 124.819 46.2923 124.839 46.3461C124.861 46.4034 124.959 46.4442 125.075 46.4442C125.184 46.4442 125.274 46.4737 125.274 46.5098C125.274 46.5459 125.373 46.5753 125.495 46.5753C125.616 46.5753 125.752 46.6193 125.797 46.6735C125.842 46.7272 125.961 46.7716 126.062 46.7716C126.164 46.7716 126.265 46.801 126.287 46.8367C126.31 46.8728 126.437 46.9031 126.569 46.9042C126.702 46.9054 126.868 46.9498 126.938 47.0024C127.008 47.0553 127.162 47.0985 127.281 47.0985C127.4 47.0985 127.497 47.128 127.497 47.1641C127.497 47.2002 127.672 47.2292 127.89 47.2292C128.108 47.2292 128.282 47.2583 128.282 47.2948C128.282 47.3317 128.468 47.3603 128.708 47.3603C129.042 47.3603 129.133 47.3811 129.133 47.4584C129.133 47.5373 129.234 47.5566 129.652 47.5566C129.938 47.5566 130.19 47.586 130.212 47.6217C130.237 47.6613 130.693 47.6872 131.361 47.6872C132.302 47.6872 132.469 47.7022 132.469 47.7854C132.469 47.931 133.96 47.931 134.016 47.7854C134.047 47.7037 134.229 47.6872 135.093 47.6872C135.742 47.6872 136.132 47.6625 136.132 47.6217C136.132 47.5832 136.362 47.5566 136.689 47.5566C137.139 47.5566 137.245 47.5377 137.245 47.4584C137.245 47.3803 137.339 47.3603 137.699 47.3603C137.949 47.3603 138.171 47.3309 138.193 47.2948C138.215 47.2587 138.364 47.2292 138.524 47.2292C138.684 47.2292 138.815 47.1998 138.815 47.1641C138.815 47.128 138.948 47.0985 139.111 47.0985C139.314 47.0985 139.419 47.0675 139.445 47.0004C139.471 46.9341 139.575 46.9023 139.766 46.9023C139.922 46.9023 140.068 46.8728 140.09 46.8367C140.112 46.801 140.218 46.7716 140.325 46.7716C140.438 46.7716 140.536 46.73 140.557 46.6735C140.582 46.6095 140.684 46.5753 140.85 46.5753C140.99 46.5753 141.104 46.5459 141.104 46.5098C141.104 46.4737 141.193 46.4442 141.302 46.4442C141.419 46.4442 141.516 46.4034 141.538 46.3461C141.559 46.2923 141.647 46.248 141.733 46.248C141.819 46.248 141.889 46.2186 141.889 46.1828C141.889 46.1467 141.992 46.1173 142.118 46.1173C142.278 46.1173 142.347 46.0879 142.347 46.0192C142.347 45.9579 142.409 45.9211 142.511 45.9211C142.601 45.9211 142.674 45.8916 142.674 45.8555C142.674 45.8198 142.746 45.7904 142.834 45.7904C142.922 45.7904 143.012 45.7609 143.034 45.7248C143.056 45.6887 143.13 45.6593 143.197 45.6593C143.264 45.6593 143.363 45.6153 143.417 45.5611C143.471 45.5074 143.576 45.463 143.651 45.463C143.725 45.463 143.786 45.4367 143.786 45.4049C143.786 45.3727 143.86 45.328 143.95 45.3056C144.04 45.2829 144.114 45.2354 144.114 45.2001C144.114 45.1651 144.187 45.1361 144.277 45.1361C144.367 45.1361 144.441 45.1066 144.441 45.0705C144.441 45.0348 144.478 45.0054 144.523 45.0054C144.568 45.0054 144.685 44.9316 144.782 44.8417C144.879 44.7518 145.018 44.678 145.092 44.678C145.167 44.678 145.226 44.6353 145.226 44.5799C145.226 44.5191 145.287 44.4818 145.389 44.4818C145.479 44.4818 145.552 44.4524 145.552 44.4167C145.552 44.3805 145.597 44.3511 145.651 44.3511C145.705 44.3511 145.749 44.3217 145.749 44.2856C145.749 44.2498 145.809 44.2204 145.882 44.2204C145.955 44.2204 146.032 44.1761 146.052 44.1223C146.073 44.0681 146.146 44.0242 146.214 44.0242C146.282 44.0242 146.337 43.9947 146.337 43.9586C146.337 43.9225 146.382 43.8931 146.436 43.8931C146.49 43.8931 146.534 43.8491 146.534 43.795C146.534 43.7404 146.592 43.6968 146.665 43.6968C146.737 43.6968 146.796 43.6674 146.796 43.6317C146.796 43.5956 146.84 43.5661 146.894 43.5661C146.947 43.5661 146.992 43.5222 146.992 43.468C146.992 43.4138 147.036 43.3699 147.09 43.3699C147.144 43.3699 147.188 43.3405 147.188 43.3043C147.188 43.2686 147.233 43.2392 147.287 43.2392C147.342 43.2392 147.483 43.1399 147.6 43.019C147.718 42.8981 147.879 42.778 147.959 42.7529C148.039 42.7278 148.104 42.6795 148.104 42.6457C148.104 42.6124 148.135 42.5849 148.174 42.5849C148.265 42.5849 148.431 42.4185 148.431 42.3278C148.431 42.2894 148.462 42.258 148.501 42.258C148.539 42.258 148.612 42.2211 148.662 42.1759C148.86 41.9985 148.95 41.9306 148.989 41.9306C149.055 41.9306 149.216 41.7489 149.216 41.6739C149.216 41.6351 149.248 41.6037 149.287 41.6037C149.326 41.6037 149.487 41.471 149.645 41.3093C149.802 41.1476 149.961 41.015 149.998 41.015C150.036 41.015 150.066 40.9843 150.066 40.9471C150.066 40.9098 150.199 40.7504 150.361 40.593C150.523 40.4357 150.655 40.2751 150.655 40.2359C150.655 40.1966 150.686 40.1644 150.723 40.1644C150.804 40.1644 151.309 39.6754 151.309 39.5965C151.309 39.5663 151.383 39.4623 151.473 39.3653C151.563 39.2684 151.636 39.1585 151.636 39.1208C151.636 39.0831 151.668 39.0525 151.706 39.0525C151.797 39.0525 151.964 38.8861 151.964 38.7954C151.964 38.757 151.993 38.7256 152.029 38.7256C152.065 38.7256 152.094 38.6667 152.094 38.5945C152.094 38.5219 152.138 38.4638 152.192 38.4638C152.246 38.4638 152.291 38.4265 152.291 38.3814C152.291 38.3358 152.364 38.2432 152.454 38.1757C152.544 38.1082 152.617 37.9983 152.617 37.9312C152.617 37.8645 152.647 37.8095 152.683 37.8095C152.719 37.8095 152.749 37.7656 152.749 37.7114C152.749 37.6576 152.787 37.6133 152.835 37.6133C152.882 37.6133 152.961 37.5104 153.01 37.3845C153.059 37.2585 153.123 37.1556 153.15 37.1556C153.178 37.1556 153.249 37.0524 153.309 36.9264C153.369 36.8008 153.444 36.6976 153.475 36.6976C153.507 36.6976 153.534 36.6242 153.534 36.5339C153.534 36.4323 153.57 36.3707 153.632 36.3707C153.685 36.3707 153.73 36.3263 153.73 36.2725C153.73 36.2184 153.759 36.1744 153.795 36.1744C153.831 36.1744 153.861 36.1144 153.861 36.0414C153.861 35.9684 153.905 35.8914 153.959 35.871C154.012 35.8502 154.057 35.7776 154.057 35.7093C154.057 35.6414 154.086 35.5857 154.122 35.5857C154.158 35.5857 154.187 35.5256 154.187 35.4526C154.187 35.3796 154.232 35.3027 154.286 35.2823C154.34 35.2615 154.384 35.203 154.384 35.1524C154.384 35.0499 154.504 34.8199 154.629 34.6841C154.674 34.6351 154.711 34.553 154.711 34.5016C154.711 34.4502 154.74 34.4082 154.776 34.4082C154.812 34.4082 154.842 34.3215 154.842 34.2159C154.842 34.1099 154.871 34.0051 154.907 33.9828C154.943 33.9608 154.972 33.8705 154.972 33.7826C154.972 33.6845 155.01 33.6232 155.071 33.6232C155.132 33.6232 155.169 33.5612 155.169 33.4596C155.169 33.3697 155.198 33.2959 155.234 33.2959C155.27 33.2959 155.3 33.2351 155.3 33.1605C155.3 33.0859 155.344 32.9807 155.398 32.927C155.452 32.8728 155.496 32.7574 155.496 32.6699C155.496 32.5824 155.525 32.5109 155.561 32.5109C155.597 32.5109 155.627 32.4218 155.627 32.3127C155.627 32.1969 155.668 32.0988 155.725 32.0768C155.78 32.0556 155.823 31.9583 155.823 31.8539C155.823 31.7519 155.852 31.6502 155.889 31.6278C155.924 31.6059 155.954 31.5136 155.954 31.4233C155.954 31.3327 155.998 31.2145 156.052 31.1608C156.106 31.1066 156.15 30.9618 156.15 30.8382C156.15 30.7149 156.179 30.614 156.216 30.614C156.252 30.614 156.281 30.4963 156.281 30.3523C156.281 30.2086 156.31 30.0909 156.346 30.0909C156.382 30.0909 156.412 29.9562 156.412 29.7918C156.412 29.6132 156.451 29.4531 156.51 29.3946C156.567 29.3373 156.608 29.1775 156.608 29.0107C156.608 28.8533 156.637 28.7066 156.674 28.6842C156.709 28.6622 156.739 28.4785 156.739 28.2768C156.739 28.0189 156.773 27.8721 156.853 27.783C156.96 27.6657 156.968 27.3827 156.968 23.8315C156.968 20.2641 156.96 20.0008 156.853 19.9227C156.764 19.8575 156.739 19.7429 156.739 19.4046C156.739 19.1585 156.71 18.9701 156.674 18.9701C156.637 18.9701 156.608 18.8229 156.608 18.6432C156.608 18.3959 156.584 18.3162 156.51 18.3162C156.436 18.3162 156.412 18.2362 156.412 17.9889C156.412 17.8091 156.382 17.662 156.346 17.662C156.31 17.662 156.281 17.5313 156.281 17.3715C156.281 17.2118 156.252 17.0626 156.216 17.0406C156.179 17.0183 156.15 16.9127 156.15 16.8055C156.15 16.6933 156.109 16.5952 156.052 16.5736C155.991 16.5504 155.954 16.4507 155.954 16.3142C155.954 16.1917 155.924 16.092 155.889 16.092C155.852 16.092 155.823 15.988 155.823 15.8608C155.823 15.716 155.787 15.6159 155.725 15.5924C155.664 15.5692 155.627 15.4695 155.627 15.3329C155.627 15.2105 155.597 15.1108 155.561 15.1108C155.525 15.1108 155.496 15.0374 155.496 14.9471C155.496 14.8455 155.459 14.7838 155.398 14.7838C155.329 14.7838 155.3 14.7148 155.3 14.5546C155.3 14.4286 155.27 14.3258 155.234 14.3258C155.198 14.3258 155.169 14.2524 155.169 14.1621C155.169 14.0605 155.132 13.9989 155.071 13.9989C155.01 13.9989 154.972 13.9369 154.972 13.8352C154.972 13.7453 154.943 13.6715 154.907 13.6715C154.871 13.6715 154.842 13.5981 154.842 13.5083C154.842 13.4184 154.812 13.3446 154.776 13.3446C154.74 13.3446 154.711 13.2849 154.711 13.2115C154.711 13.1385 154.667 13.062 154.613 13.0412C154.559 13.0204 154.515 12.9333 154.515 12.8469C154.515 12.761 154.485 12.6903 154.449 12.6903C154.413 12.6903 154.384 12.6307 154.384 12.5577C154.384 12.4846 154.34 12.4077 154.286 12.3869C154.232 12.3665 154.187 12.2935 154.187 12.2256C154.187 12.1573 154.158 12.1016 154.122 12.1016C154.086 12.1016 154.057 12.0419 154.057 11.9689C154.057 11.8959 154.012 11.819 153.959 11.7982C153.905 11.7778 153.861 11.7197 153.861 11.6695C153.861 11.6192 153.831 11.5784 153.795 11.5784C153.759 11.5784 153.73 11.505 153.73 11.4147C153.73 11.3131 153.693 11.2515 153.632 11.2515C153.577 11.2515 153.534 11.1934 153.534 11.1204C153.534 11.0485 153.504 10.9897 153.468 10.9897C153.432 10.9897 153.402 10.9453 153.402 10.8915C153.402 10.8378 153.375 10.7934 153.342 10.7934C153.308 10.7934 153.26 10.7271 153.234 10.6462C153.209 10.5654 153.137 10.4547 153.076 10.4009C153.014 10.3472 152.942 10.2365 152.917 10.1556C152.891 10.0748 152.843 10.0084 152.809 10.0084C152.776 10.0084 152.749 9.97116 152.749 9.92602C152.749 9.88049 152.675 9.78787 152.585 9.72036C152.495 9.65285 152.421 9.55551 152.421 9.5041C152.421 9.3942 152.265 9.22347 152.165 9.22347C152.126 9.22347 152.094 9.17912 152.094 9.12535C152.094 9.07158 152.065 9.02723 152.029 9.02723C151.993 9.02723 151.964 8.97032 151.964 8.90124C151.964 8.83177 151.89 8.71716 151.8 8.64651C151.71 8.57587 151.636 8.49776 151.636 8.47343C151.636 8.40356 151.457 8.24225 151.38 8.24225C151.341 8.24225 151.309 8.21085 151.309 8.17199C151.309 8.13353 151.272 8.06092 151.228 8.01108C151.05 7.81287 150.982 7.7226 150.982 7.68413C150.982 7.6178 150.8 7.45728 150.725 7.45728C150.687 7.45728 150.655 7.42862 150.655 7.3933C150.655 7.30617 149.698 6.34536 149.612 6.34536C149.574 6.34536 149.543 6.31357 149.543 6.2751C149.543 6.19229 149.38 6.01802 149.302 6.01802C149.272 6.01802 149.168 5.94463 149.071 5.85475C148.974 5.76448 148.864 5.69108 148.826 5.69108C148.789 5.69108 148.758 5.65968 148.758 5.62083C148.758 5.54351 148.597 5.36414 148.527 5.36414C148.502 5.36414 148.424 5.29035 148.354 5.20047C148.283 5.11059 148.168 5.0368 148.099 5.0368C148.03 5.0368 147.973 5.00737 147.973 4.97165C147.973 4.93554 147.929 4.90611 147.875 4.90611C147.821 4.90611 147.777 4.87471 147.777 4.83585C147.777 4.72046 147.599 4.57916 147.455 4.57916C147.38 4.57916 147.319 4.54737 147.319 4.50891C147.319 4.41824 147.152 4.25183 147.062 4.25183C147.023 4.25183 146.992 4.22436 146.992 4.19099C146.992 4.15724 146.925 4.10896 146.845 4.08345C146.764 4.05794 146.653 3.98651 146.599 3.92489C146.545 3.86327 146.435 3.79183 146.354 3.76632C146.273 3.74081 146.207 3.69253 146.207 3.65878C146.207 3.62542 146.162 3.59795 146.109 3.59795C146.055 3.59795 146.011 3.56851 146.011 3.5324C146.011 3.49629 145.955 3.46685 145.886 3.46685C145.819 3.46685 145.746 3.4229 145.725 3.36873C145.704 3.31496 145.628 3.27061 145.555 3.27061C145.481 3.27061 145.422 3.24117 145.422 3.20546C145.422 3.16935 145.377 3.13991 145.324 3.13991C145.27 3.13991 145.226 3.11087 145.226 3.07594C145.226 3.04061 145.152 2.99312 145.062 2.97036C144.972 2.94799 144.899 2.90324 144.899 2.87106C144.899 2.83927 144.839 2.81297 144.765 2.81297C144.692 2.81297 144.616 2.76862 144.595 2.71485C144.574 2.66068 144.502 2.61673 144.433 2.61673C144.366 2.61673 144.31 2.58729 144.31 2.55118C144.31 2.51507 144.239 2.48564 144.153 2.48564C144.067 2.48564 143.98 2.44168 143.959 2.38751C143.938 2.33374 143.862 2.28939 143.789 2.28939C143.715 2.28939 143.656 2.25996 143.656 2.22424C143.656 2.18813 143.582 2.15869 143.492 2.15869C143.402 2.15869 143.329 2.12926 143.329 2.09315C143.329 2.05743 143.258 2.02799 143.172 2.02799C143.086 2.02799 142.998 1.98364 142.978 1.92987C142.957 1.87571 142.867 1.83175 142.778 1.83175C142.689 1.83175 142.599 1.80231 142.576 1.76621C142.554 1.7301 142.467 1.70066 142.383 1.70066C142.299 1.70066 142.213 1.6567 142.193 1.60254C142.171 1.54524 142.073 1.50442 141.957 1.50442C141.848 1.50442 141.759 1.47498 141.759 1.43926C141.759 1.40315 141.67 1.37372 141.562 1.37372H141.366V6.60008ZM41.3665 7.2312C41.3076 7.38467 41.3712 7.40272 41.4615 7.25789C41.5117 7.17704 41.5164 7.13033 41.4732 7.13033C41.436 7.13033 41.3877 7.17547 41.3665 7.2312ZM56.6233 19.204C56.5539 19.2547 56.5099 19.3084 56.5252 19.3241C56.5409 19.3394 56.61 19.3104 56.6795 19.2598C56.7486 19.2091 56.7929 19.1554 56.7772 19.1397C56.7619 19.1244 56.6924 19.1534 56.6233 19.204ZM21.9538 36.5339C22.0127 36.6242 22.0892 36.6976 22.1234 36.6976C22.1579 36.6976 22.1399 36.6513 22.0834 36.5948C22.0268 36.5382 21.9805 36.4649 21.9805 36.4311C21.9805 36.3977 21.9503 36.3707 21.9134 36.3707C21.8769 36.3707 21.895 36.4441 21.9538 36.5339ZM23.0925 37.6667C23.0925 37.7012 23.1663 37.7773 23.2561 37.8362C23.346 37.8951 23.4198 37.9135 23.4198 37.8766C23.4198 37.8397 23.3923 37.8095 23.359 37.8095C23.3256 37.8095 23.2518 37.7632 23.1953 37.7067C23.1388 37.6502 23.0925 37.6321 23.0925 37.6667Z" fill="#24A464"/>
</g>
<defs>
<clipPath id="clip0">
<rect width="157" height="47.9618" fill="white"/>
</clipPath>
</defs>
</svg>
