<svg width="190" height="48" viewBox="0 0 190 48" fill="none" xmlns="http://www.w3.org/2000/svg">
<g clip-path="url(#clip0)">
<path d="M13.1319 1.50693H20.4525C21.0672 1.50693 21.6261 1.50693 22.2408 1.50693C22.8555 1.50693 23.3025 1.61856 23.5819 1.89763C23.8055 2.06507 23.9172 2.34414 23.9731 2.73483C24.029 3.06972 24.0849 3.4046 24.1408 3.73949C24.1966 4.35344 24.3084 4.96739 24.3643 5.58135C24.4761 6.1953 24.5878 6.80925 24.6437 7.42321C25.0349 9.76739 25.3702 12.1674 25.6496 14.5674C25.929 16.9674 26.3202 19.3674 26.7114 21.7674C26.879 22.493 26.9908 23.2744 27.0466 24.0558C27.1025 24.8372 27.2143 25.6186 27.3819 26.3441C27.4378 26.5116 27.4378 26.7348 27.4937 26.9023C27.5496 27.0697 27.6055 27.2372 27.7731 27.3488C27.829 27.4046 27.8849 27.4046 27.9408 27.4604C27.9966 27.5162 28.1084 27.4604 28.2202 27.4046C28.4996 27.3488 28.779 27.1255 28.9466 26.7348C29.1143 26.3441 29.3378 26.0093 29.5055 25.7302C29.9525 24.893 30.3996 24.0558 30.7908 23.2186C31.1819 22.3813 31.629 21.4883 32.1319 20.6511C33.3055 18.3627 34.5349 16.1302 35.7084 13.8418C36.9378 11.5534 38.1672 9.20925 39.3408 6.92088C39.6202 6.30693 39.9555 5.74879 40.2349 5.19065C40.5702 4.57669 40.9055 4.01856 41.1849 3.4046C41.3525 3.12553 41.5202 2.79065 41.6878 2.51158C41.8555 2.23251 42.1349 1.95344 42.4702 1.786C42.7496 1.61856 43.029 1.50693 43.3643 1.50693C43.7555 1.50693 44.0908 1.50693 44.4819 1.50693H48.1143H51.9702C52.3055 1.50693 52.6408 1.50693 52.9761 1.50693C53.3672 1.50693 53.5908 1.56274 53.7584 1.73018C54.1496 1.95344 54.2614 2.39995 54.0937 3.0139C53.9819 3.62786 53.8702 4.24181 53.7584 4.85576L52.0819 13.2279L47.8908 33.9906L46.9408 38.8465C46.8849 39.2372 46.7731 39.6837 46.6614 40.0744C46.5496 40.4651 46.3819 40.7441 46.1025 40.9116C45.8231 41.079 45.5437 41.1906 45.2084 41.2465C44.8731 41.2465 44.4819 41.2465 44.0908 41.2465H41.4084H39.8996C39.6202 41.1906 39.3966 41.1348 39.1731 41.079C39.0055 41.0232 38.8378 40.9116 38.7261 40.6883C38.6143 40.5209 38.5584 40.2418 38.6143 39.9627C38.6702 39.6837 38.7819 39.3488 38.8378 39.0139L39.3966 36.1674L42.3025 21.8232C42.3584 21.3209 42.4702 20.8186 42.5261 20.372C42.6378 19.8697 42.7496 19.4232 42.8055 18.9209C42.8614 18.6418 42.9731 18.3069 43.029 18.0279C43.0849 17.693 43.1408 17.3581 43.1408 17.079C43.0849 16.7999 43.0849 16.5209 43.1408 16.2418C43.1966 15.9627 43.1408 15.7395 42.9731 15.6837C42.8614 15.6279 42.7496 15.6837 42.6937 15.7395C42.6378 15.7953 42.5819 15.8511 42.5261 15.9069C42.3584 16.0744 42.1908 16.2418 42.0231 16.4651C41.9114 16.6325 41.7996 16.8558 41.6878 17.0232C41.3525 17.5813 41.0172 18.1395 40.6819 18.7534C40.4025 19.3674 40.0672 19.9255 39.6761 20.5395C39.5643 20.7627 39.4525 20.986 39.3408 21.2093C39.2849 21.4325 39.1731 21.6558 39.0055 21.879C38.7261 22.3813 38.4466 22.8279 38.1672 23.3302C37.9437 23.8325 37.6643 24.279 37.3849 24.7813C37.329 24.893 37.2731 25.0046 37.2172 25.172C37.1614 25.2837 37.1055 25.3953 37.0496 25.5069C36.8261 25.8418 36.6025 26.1767 36.4349 26.5674C36.2672 26.9581 36.0996 27.293 35.8202 27.6837C35.5966 28.0186 35.3731 28.3534 35.2055 28.7441C35.0378 29.1348 34.8702 29.4697 34.6466 29.8604C33.9761 30.9209 33.3614 32.0372 32.8025 33.1534C32.2437 34.2139 31.6849 35.3302 31.0702 36.3906C30.9584 36.5023 30.9025 36.6139 30.8466 36.7255C30.8466 36.8372 30.7908 36.9488 30.679 37.0604C30.3996 37.4511 30.1761 37.8976 29.9525 38.3441C29.7849 38.7348 29.5614 39.1813 29.2819 39.572C29.1143 39.8511 29.0025 40.0744 28.8349 40.2976C28.6672 40.5209 28.4996 40.6883 28.3319 40.8558C28.1084 41.0232 27.8849 41.079 27.7172 41.1348C27.5496 41.1348 27.2702 41.1906 26.9908 41.2465H25.7055C25.4261 41.2465 25.1466 41.2465 24.7555 41.3023C24.4202 41.3023 24.0849 41.3023 23.6937 41.3023C23.3584 41.3023 23.0231 41.3023 22.7437 41.2465C22.4643 41.1906 22.2408 41.1348 22.129 41.0232C21.8496 40.8558 21.6819 40.6325 21.6261 40.4093C21.5702 40.1302 21.5143 39.8511 21.4025 39.5162C21.3466 39.0697 21.2908 38.6232 21.2349 38.1767C21.179 37.6744 21.1231 37.2279 21.0114 36.7813L20.9555 36.279C20.8437 35.8325 20.7878 35.386 20.7319 34.8837C20.6761 34.3813 20.6202 33.879 20.5084 33.4325C20.5084 33.3209 20.5084 33.2093 20.5084 33.1534C20.5084 33.0418 20.5084 32.9302 20.4525 32.8186C20.3408 32.4837 20.2849 32.1488 20.229 31.7581C20.1731 31.3674 20.1172 31.0325 20.0614 30.6418C20.0614 30.586 20.0614 30.4744 20.0614 30.3627C20.0614 30.2511 20.0614 30.1395 20.0055 30.0837C19.9496 29.693 19.8937 29.3581 19.8378 28.9674C19.8378 28.5767 19.7819 28.2418 19.6702 27.8511C19.5025 27.1255 19.3908 26.3441 19.279 25.5069C19.2231 24.6697 19.1114 23.8883 18.9437 23.1069C18.7761 22.1581 18.6643 21.2093 18.5525 20.2604C18.4966 19.3116 18.329 18.3627 18.0496 17.4697C17.9937 16.9674 17.8819 16.5209 17.7143 16.186C17.6584 16.1302 17.5466 16.0744 17.4908 16.0186C17.4349 15.9627 17.379 15.9627 17.2672 16.0186C17.0437 16.1302 16.8761 16.2976 16.8202 16.5767C16.7643 16.8558 16.7084 17.079 16.5966 17.3581C16.429 17.6372 16.3731 17.9162 16.3172 18.1953C16.2614 18.4744 16.2614 18.7534 16.2055 19.0325C16.1496 19.4232 16.0378 19.8697 15.9261 20.2604C15.8702 20.6511 15.7584 21.0976 15.6466 21.4883L12.6849 36.3348L12.1261 39.0697C12.0702 39.3488 11.9584 39.6837 11.9025 39.9627C11.8466 40.2418 11.7349 40.5209 11.5672 40.6883C11.3996 40.9674 11.0643 41.1348 10.6172 41.1906C10.3378 41.2465 10.0584 41.3023 9.779 41.3023C9.49959 41.2465 9.16429 41.2465 8.88488 41.2465H5.979C5.58782 41.2465 5.19665 41.2465 4.86135 41.2465C4.52606 41.1906 4.24665 41.079 4.079 40.9116C3.91135 40.7441 3.85547 40.4651 3.85547 40.0744C3.91135 39.6837 4.02312 39.2372 4.079 38.8465L5.029 33.9348L9.22018 13.172L10.7849 5.35809C10.8408 5.13483 10.8408 4.85576 10.8966 4.57669C10.9525 4.24181 11.0643 3.90693 11.1202 3.62786C11.1761 3.34879 11.2878 3.06972 11.3437 2.79065C11.4555 2.51158 11.5672 2.28832 11.6231 2.12088C11.8466 1.84181 12.1819 1.67437 12.629 1.56274C12.7408 1.50693 12.7966 1.50693 12.8525 1.56274C12.9643 1.56274 13.0202 1.56274 13.1319 1.50693Z" fill="black"/>
<path d="M79.9676 39.0698C79.9676 39.4605 79.9118 39.907 79.8559 40.2977C79.8 40.6884 79.5206 40.9675 79.1294 41.1349C78.85 41.2465 78.5706 41.3023 78.2912 41.3023C78.0118 41.3023 77.6765 41.3023 77.3971 41.3023H74.3794C74.0441 41.3023 73.7088 41.3023 73.3735 41.3023C73.0941 41.2465 72.8706 41.1907 72.7029 41.0233C72.4794 40.8558 72.3118 40.6884 72.2559 40.4093C72.2 40.1302 72.0324 39.8512 71.8647 39.6837C71.8088 39.6279 71.6971 39.5721 71.5853 39.5163C71.5294 39.4605 71.3618 39.4047 71.1941 39.4605C70.9706 39.5163 70.7471 39.6279 70.5794 39.7395C70.4118 39.8512 70.1882 39.9628 70.0206 40.0186C69.7971 40.1861 69.5735 40.2977 69.2941 40.4093C69.0706 40.5209 68.8471 40.6326 68.5676 40.7442C68.0647 40.9675 67.5059 41.1349 66.9471 41.3023C66.3882 41.414 65.8294 41.5256 65.2706 41.693C64.9912 41.7488 64.7118 41.8047 64.4324 41.8047C64.2088 41.8605 63.9853 41.8605 63.7059 41.9163C63.5941 41.9163 63.4824 41.9163 63.3706 41.9163C63.2588 41.9721 63.1471 41.9721 63.0353 41.9721H62.4206C62.0294 42.0279 61.6382 42.0279 61.3029 41.9721H60.8C60.5206 41.9163 60.2971 41.8605 60.0176 41.8605C59.7941 41.9163 59.5706 41.8605 59.3471 41.8047C59.0118 41.7489 58.6765 41.6372 58.3412 41.5814C58.0059 41.5256 57.7265 41.4698 57.4471 41.3023C56.4412 40.9116 55.6029 40.3535 54.9882 39.7395C54.3735 39.0698 53.9265 38.1768 53.7029 37.1163C53.6471 36.8372 53.5912 36.5582 53.5353 36.2791C53.5353 36 53.5353 35.6651 53.4794 35.3302C53.4235 35.1628 53.4235 34.9395 53.4794 34.7721C53.5353 34.6047 53.5912 34.3814 53.5912 34.214C53.5912 34.1023 53.5912 33.8791 53.6471 33.5442C53.7029 33.1535 53.8147 32.9302 53.8706 32.7628C54.0382 32.3721 54.0941 32.093 54.15 31.814C54.3176 31.4233 54.5412 30.9768 54.7088 30.5861C54.9324 30.1395 55.1559 29.7489 55.4353 29.414C56.2735 28.3535 57.1118 27.5163 58.0618 26.9582C59.0118 26.4 60.1294 25.8977 61.5265 25.507C62.0294 25.3395 62.5882 25.1721 63.0912 25.1163C63.5941 25.0605 64.1529 24.9489 64.7118 24.8372C64.9912 24.7814 65.3265 24.7256 65.6618 24.7256C66.0529 24.6698 66.3882 24.614 66.7235 24.5582C67.0029 24.5023 67.2265 24.4465 67.5059 24.5023C67.7853 24.5023 68.0647 24.4465 68.4 24.3907C68.6794 24.3349 68.9029 24.2791 69.1823 24.2791C69.4618 24.2791 69.7412 24.2233 70.0206 24.1675C70.8588 24 71.5853 23.8326 72.2559 23.7209C72.9823 23.5535 73.6529 23.2186 74.2676 22.7163C74.6588 22.3814 74.9382 21.9907 75.1618 21.6C75.2176 21.4884 75.2176 21.3768 75.2176 21.3209C75.2176 21.2651 75.2176 21.1535 75.2735 21.0977C75.3294 21.0419 75.3853 20.9302 75.3853 20.7628C75.4412 20.5954 75.4412 20.4837 75.4971 20.4279C75.4971 20.2605 75.4971 20.1489 75.4971 19.9814C75.4971 19.814 75.4971 19.7023 75.4971 19.5907C75.3294 18.4744 74.7147 17.693 73.5971 17.3023C73.3176 17.1907 72.9265 17.1349 72.4235 17.0791C71.9765 17.0233 71.5294 16.9675 71.0265 17.0233C70.5235 17.0233 70.0765 17.0791 69.5735 17.1349C69.1265 17.1907 68.7353 17.3023 68.4 17.414C68.1206 17.4698 67.8971 17.5814 67.6735 17.7489C67.45 17.8605 67.2265 17.9721 67.0029 18.1395C66.7794 18.307 66.5559 18.4744 66.2765 18.7535C65.9971 19.0326 65.8294 19.2558 65.7176 19.4791C65.4382 19.8698 65.2147 20.2047 65.0471 20.5395C64.8794 20.8744 64.5441 21.0977 64.0971 21.2093C63.8176 21.2651 63.4824 21.3209 63.1471 21.3209C62.8118 21.3209 62.4765 21.3209 62.1412 21.3209H60.0176C59.85 21.3209 59.6265 21.3209 59.4029 21.3768C59.2353 21.3768 59.0676 21.3768 58.9559 21.3209H58.4529C58.3971 21.2651 58.2853 21.2651 58.1735 21.2651C58.0618 21.2651 57.95 21.2093 57.8941 21.1535C57.6147 21.0977 57.5029 20.8186 57.4471 20.4279C57.4471 20.2605 57.5029 20.0372 57.5588 19.8698C57.6147 19.7023 57.7265 19.5349 57.7824 19.3675C57.95 18.9768 58.1735 18.5861 58.3412 18.2512C58.5647 17.8605 58.7882 17.5256 59.0118 17.2465C59.1794 17.0791 59.2912 16.8558 59.4588 16.6884C59.6265 16.5209 59.7382 16.2977 59.9059 16.1302C60.2971 15.7395 60.7441 15.3489 61.2471 14.9582C61.3588 14.9023 61.4706 14.8465 61.6382 14.6791C61.8618 14.5116 62.0294 14.4 62.1971 14.2884C62.3647 14.1768 62.5882 14.0651 62.8118 13.9535C63.5382 13.5628 64.2647 13.2279 64.9912 13.0047C65.7735 12.7256 66.5559 12.5023 67.3382 12.2791C67.8412 12.1675 68.2882 12.1116 68.7912 12.0558C69.2941 12 69.7971 11.9442 70.3 11.8326C70.4676 11.7768 70.6912 11.7768 70.9706 11.8326C71.25 11.8884 71.4735 11.8326 71.5853 11.7768C73.0941 11.7209 74.5471 11.7768 75.8882 11.9442C77.2853 12.1116 78.4588 12.3907 79.5206 12.7814C80.5823 13.1721 81.4765 13.7302 82.147 14.4558C82.8735 15.1256 83.3206 16.0186 83.5441 17.0791C83.6559 17.693 83.6559 18.4186 83.5441 19.2558C83.4323 20.093 83.2647 20.9302 83.097 21.7675L80.5823 34.214C80.4706 34.9395 80.3588 35.6651 80.1912 36.3907C80.0235 37.1163 79.9676 37.7302 80.0235 38.3442C80.0235 38.4558 80.0235 38.5675 79.9676 38.7349C79.9676 38.8465 79.9676 38.9582 79.9676 39.0698ZM73.4853 30.4744C73.5412 30.307 73.5971 30.0837 73.6529 29.8605C73.7088 29.5814 73.7088 29.3582 73.7088 29.1907C73.7088 28.9675 73.7088 28.7442 73.7647 28.5768C73.8206 28.4093 73.7647 28.2419 73.5971 28.1302C73.4294 27.9628 73.2059 27.907 72.8147 27.907C72.6471 27.9628 72.5353 27.9628 72.4235 28.0186C72.3118 28.0186 72.1441 28.0186 71.9765 28.0744C71.6971 28.1302 71.4176 28.1861 71.1382 28.2419C70.8588 28.2977 70.5235 28.3535 70.1882 28.4093C70.0765 28.4651 69.9088 28.4651 69.6853 28.4651C69.1823 28.5768 68.6794 28.6326 68.1765 28.6884C67.6735 28.7442 67.2265 28.8 66.7235 28.9675C66.4441 29.0233 66.1088 29.1349 65.8294 29.1907C65.55 29.2465 65.3265 29.3023 65.0471 29.414C64.2088 29.7489 63.4265 30.2512 62.7559 30.9209C62.0853 31.5907 61.6941 32.5395 61.5823 33.7116C61.5265 34.3256 61.6382 34.8837 61.9176 35.2744C62.0853 35.6651 62.3647 36 62.8676 36.2791C63.3706 36.5023 63.8735 36.6698 64.4882 36.7814C65.1029 36.893 65.7176 36.9488 66.3882 36.893C67.1147 36.8372 67.7853 36.6698 68.4 36.5023C69.4618 36.2233 70.3 35.7209 70.9706 35.107C71.6971 34.4372 72.2559 33.6 72.7588 32.6512C72.8706 32.3721 72.9823 32.1489 73.0382 31.8698C73.0941 31.5907 73.2059 31.2558 73.3735 30.9768L73.4853 30.4744Z" fill="black"/>
<path d="M144.735 26.6232C144.735 26.9022 144.679 27.2371 144.511 27.6278C144.344 28.0185 144.176 28.2418 143.953 28.3534C143.785 28.5208 143.506 28.6325 143.114 28.6883C142.723 28.7441 142.332 28.7441 141.885 28.7999C141.494 28.7999 141.047 28.7999 140.6 28.7999C140.209 28.7441 139.817 28.7441 139.482 28.7441H125.847C125.567 28.7441 125.344 28.7441 125.064 28.7441C124.841 28.7441 124.617 28.7999 124.45 28.8557C124.114 29.0232 123.891 29.1348 123.779 29.3022C123.723 29.358 123.611 29.5255 123.444 29.7487C123.332 29.9162 123.276 30.1394 123.276 30.3069C123.332 30.5301 123.332 30.7534 123.276 30.9766C123.276 31.1441 123.276 31.3673 123.332 31.5906C123.444 32.4836 123.667 33.2092 123.947 33.8232C124.282 34.3813 124.785 34.8836 125.4 35.3301C125.679 35.4976 125.959 35.665 126.238 35.7208C126.573 35.7766 126.909 35.8325 127.188 35.9441C127.467 35.9999 127.859 36.0557 128.361 36.1115C128.864 36.1673 129.367 36.1115 129.759 36.0557H130.262C130.653 35.9999 130.988 35.8883 131.323 35.8325C131.659 35.7208 131.994 35.6092 132.329 35.4976C132.72 35.3301 133.223 35.0511 133.726 34.772C134.229 34.4929 134.676 34.158 134.956 33.879C135.179 33.5999 135.403 33.3766 135.682 33.1534C135.961 32.8743 136.241 32.7069 136.52 32.5952C136.911 32.4278 137.414 32.3162 137.973 32.372C138.588 32.372 139.091 32.372 139.594 32.372C139.817 32.372 140.041 32.372 140.264 32.372C140.544 32.3162 140.767 32.372 140.935 32.4278H141.494C141.829 32.4836 142.053 32.5952 142.22 32.7069C142.332 32.7627 142.388 32.9301 142.332 33.2092C142.332 33.4883 142.276 33.7115 142.164 33.879C141.885 34.3813 141.55 34.8836 141.214 35.2743C140.935 35.665 140.6 36.1115 140.209 36.5022C139.147 37.7301 138.029 38.7348 136.856 39.4604C135.682 40.1859 134.229 40.8557 132.553 41.358C132.106 41.5255 131.659 41.5813 131.267 41.6371C130.876 41.6929 130.429 41.7487 129.926 41.8604C129.759 41.9162 129.591 41.9162 129.423 41.8604C129.256 41.8604 129.144 41.8604 128.976 41.9162H128.361C128.138 41.972 127.914 42.0278 127.691 41.972C127.467 41.972 127.244 41.972 127.076 41.9162C126.797 41.8604 126.517 41.8604 126.294 41.9162C126.07 41.972 125.847 41.9162 125.567 41.8604C125.4 41.8045 125.176 41.7487 124.953 41.7487C124.729 41.7487 124.562 41.6929 124.394 41.6371C124.003 41.5813 123.556 41.4697 123.164 41.358C122.773 41.3022 122.438 41.1348 122.159 40.9673C121.767 40.7999 121.432 40.6883 121.097 40.5766C120.762 40.4092 120.482 40.2418 120.203 40.0743C119.141 39.3487 118.247 38.4557 117.52 37.5069C116.794 36.5022 116.291 35.3301 115.956 34.0464C115.844 33.6557 115.788 33.2092 115.732 32.8185C115.732 32.372 115.676 31.9255 115.564 31.479C115.564 31.3115 115.564 31.1999 115.564 31.0883C115.62 30.9208 115.62 30.8092 115.62 30.6418C115.564 30.1952 115.564 29.6929 115.62 29.1906C115.676 28.6883 115.788 28.1301 115.844 27.6278C115.9 27.4604 115.9 27.2371 115.9 27.0139C115.956 26.7906 116.012 26.5673 116.067 26.3999L116.235 25.7301L116.682 24.3906C116.962 23.7766 117.185 23.1627 117.409 22.5487C117.632 21.9348 117.912 21.3766 118.247 20.8743C120.65 17.0232 123.891 14.2883 128.082 12.6697C128.641 12.4464 129.2 12.279 129.759 12.2232C130.317 12.1115 130.932 11.9999 131.547 11.8325C131.826 11.7766 132.106 11.7766 132.385 11.7766C132.664 11.7766 132.944 11.7766 133.223 11.7208C135.123 11.665 136.688 11.8883 137.973 12.3906C139.259 12.8371 140.32 13.4511 141.27 14.1766C141.55 14.3999 141.829 14.679 142.109 14.958C142.388 15.2371 142.667 15.5162 142.835 15.7953C142.891 15.9627 143.059 16.1301 143.226 16.2418C143.45 16.6325 143.617 17.079 143.785 17.5255C143.953 17.9162 144.176 18.3627 144.4 18.8092C144.511 19.1441 144.567 19.479 144.623 19.8697C144.679 20.2046 144.791 20.5953 144.847 20.9859C144.903 21.4883 144.959 21.9906 144.959 22.4929C145.014 22.9953 145.014 23.5534 145.07 24.0557C145.07 24.3348 145.014 24.6697 144.903 25.0604C144.847 25.3953 144.791 25.7301 144.847 26.0092L144.735 26.6232ZM136.967 23.3301C137.303 22.9394 137.414 22.4929 137.303 21.9906C137.247 21.4325 137.191 21.0418 137.135 20.7627C136.8 19.758 136.241 18.9766 135.514 18.4743C134.788 17.9162 133.614 17.6371 132.106 17.5813C131.994 17.6371 131.882 17.6929 131.714 17.6371C131.547 17.5813 131.435 17.5813 131.323 17.6371C131.1 17.6929 130.876 17.7487 130.653 17.8046C130.429 17.8046 130.206 17.8604 130.038 17.9162C128.306 18.4185 126.853 19.479 125.791 20.9859C125.679 21.1534 125.567 21.3208 125.4 21.5999C125.232 21.8232 125.12 22.0464 125.064 22.3255C125.009 22.5487 124.953 22.772 124.953 22.9953C124.953 23.2185 125.064 23.3859 125.232 23.5534C125.512 23.7208 125.903 23.8325 126.406 23.8325C126.909 23.8325 127.411 23.8325 127.914 23.8325H134.117C134.62 23.8325 135.179 23.8325 135.738 23.8325C136.353 23.7766 136.744 23.6092 136.967 23.3301Z" fill="black"/>
<path d="M168.876 11.7767C171.112 11.7209 172.9 11.9999 174.241 12.7255C175.638 13.4511 176.588 14.4558 177.147 15.8511C177.315 16.2418 177.426 16.6883 177.482 17.1906C177.538 17.6372 177.594 18.0837 177.65 18.586C177.706 18.8651 177.706 19.1441 177.65 19.4232C177.594 19.7023 177.594 19.9255 177.65 20.2046C177.594 20.4279 177.538 20.5953 177.594 20.6511C177.538 21.1534 177.482 21.7116 177.371 22.2697C177.259 22.8279 177.147 23.386 177.035 23.8883L176.085 28.8558L174.241 37.8976C174.073 38.6232 173.962 39.293 173.794 39.9627C173.626 40.5767 173.291 41.0232 172.732 41.1906C172.509 41.2465 172.229 41.3023 171.95 41.3023C171.671 41.3023 171.335 41.3023 171.056 41.3023H168.038C167.591 41.3023 167.2 41.3023 166.865 41.2465C166.529 41.1906 166.306 41.0232 166.138 40.7441C166.026 40.5209 165.971 40.2418 166.026 39.9069C166.082 39.5162 166.194 39.1255 166.25 38.7348L167.032 34.8279L168.709 26.5116C168.988 25.1162 169.156 23.8883 169.268 22.7162C169.435 21.5441 169.268 20.5395 168.876 19.7023C168.485 18.9767 167.871 18.4185 166.921 18.1395C166.753 18.0837 166.529 18.0279 166.306 18.0279C166.138 18.0279 165.915 17.972 165.747 17.9162C165.579 17.8604 165.3 17.8604 165.021 17.9162C164.741 17.9162 164.573 17.9162 164.406 17.972C164.238 18.0279 164.071 18.0279 163.959 18.0279C163.847 18.0279 163.735 18.0279 163.623 18.0837C162.729 18.3069 162.003 18.586 161.388 18.9767C159.991 19.8139 159.041 21.0976 158.482 22.7162C157.979 24.3348 157.476 26.1767 157.085 28.2418L155.688 35.2185L155.018 38.6232C154.962 38.9581 154.85 39.293 154.794 39.6279C154.738 39.9627 154.626 40.2418 154.459 40.4651C154.179 40.8558 153.844 41.1348 153.397 41.1906C153.006 41.2465 152.503 41.3023 151.888 41.3023H149.094C148.703 41.3023 148.256 41.3023 147.865 41.2465C147.473 41.1906 147.194 41.079 147.082 40.8558C146.859 40.5209 146.803 40.0185 146.971 39.4046C147.138 38.7906 147.25 38.1767 147.362 37.6185L148.871 30.0279L151.329 17.7488L151.944 14.9023C152 14.5116 152.112 14.1209 152.168 13.786C152.223 13.4511 152.391 13.172 152.671 12.9488C152.726 12.8372 152.894 12.7813 153.062 12.7255C153.229 12.6697 153.453 12.6139 153.621 12.5581H153.9C154.068 12.5023 154.291 12.5023 154.459 12.5023C154.682 12.5023 154.906 12.5023 155.073 12.5023H157.421C157.7 12.5023 157.979 12.5023 158.259 12.5581C158.538 12.5581 158.818 12.6139 159.041 12.6697C159.265 12.7813 159.376 12.9488 159.432 13.172C159.488 13.3953 159.544 13.6744 159.544 13.9534C159.544 14.1209 159.544 14.2325 159.488 14.3441C159.432 14.4558 159.432 14.5674 159.488 14.679C159.544 14.8465 159.544 14.9581 159.6 15.0139C159.656 15.0697 159.768 15.1255 159.879 15.1813C160.271 15.2372 160.606 15.0697 160.941 14.7906C161.276 14.4558 161.612 14.1767 161.947 14.0092C163.121 13.2837 164.35 12.6697 165.635 12.2232C166.026 12.1116 166.362 12.0558 166.697 11.9999C167.088 11.9441 167.479 11.8883 167.926 11.8325C168.038 11.7767 168.206 11.7767 168.429 11.8325C168.653 11.8325 168.765 11.8325 168.876 11.7767Z" fill="black"/>
<path d="M182.678 11.7208C182.734 11.7766 182.734 11.8325 182.734 11.8883C182.734 11.9441 182.734 12.0557 182.678 12.1673V12.279C182.622 12.3348 182.622 12.3906 182.566 12.4464C182.51 12.5022 182.51 12.5022 182.398 12.558C182.342 12.558 182.231 12.558 182.119 12.558C182.007 12.558 181.895 12.558 181.839 12.558H181.672C181.616 12.558 181.616 12.558 181.56 12.558C181.504 12.558 181.504 12.558 181.448 12.558C181.392 12.6138 181.281 12.6697 181.225 12.7813C181.225 12.8371 181.169 12.8371 181.169 12.8929C181.169 12.9487 181.169 13.0045 181.169 13.0604L180.61 15.6836C180.61 15.7394 180.61 15.7394 180.61 15.7952C180.61 15.8511 180.61 15.8511 180.61 15.9069V16.0185V16.0743C180.61 16.0743 180.61 16.1301 180.554 16.1301C180.498 16.1859 180.498 16.2418 180.387 16.2418C180.331 16.2418 180.331 16.2418 180.275 16.2418C180.219 16.2418 180.163 16.2418 180.107 16.2418C179.995 16.2418 179.884 16.2418 179.772 16.2418C179.66 16.2418 179.548 16.1859 179.492 16.1301C179.492 16.0743 179.437 16.0185 179.492 15.9627C179.492 15.9069 179.548 15.8511 179.548 15.7394L180.051 13.1162C180.051 13.0604 180.051 13.0604 180.051 13.0045C180.051 12.9487 180.051 12.9487 180.051 12.8929V12.7255C180.051 12.6138 179.995 12.558 179.939 12.5022C179.884 12.4464 179.772 12.4464 179.66 12.4464C179.548 12.4464 179.437 12.4464 179.325 12.4464C179.269 12.4464 179.269 12.4464 179.213 12.4464C179.157 12.4464 179.157 12.4464 179.157 12.4464C179.101 12.4464 179.101 12.4464 179.101 12.4464H179.045C178.989 12.3906 178.934 12.3348 178.934 12.279C178.934 12.2231 178.934 12.1115 178.989 11.9999C178.989 11.9441 178.989 11.8883 178.989 11.8883C178.989 11.8325 179.045 11.8325 179.045 11.7766C179.045 11.7208 179.101 11.7208 179.157 11.7208C179.213 11.7208 179.213 11.665 179.269 11.665H179.325H179.381H182.342C182.398 11.665 182.454 11.665 182.51 11.665C182.622 11.7208 182.678 11.7208 182.678 11.7208ZM188.657 11.7766C188.713 11.8325 188.713 11.8883 188.657 11.9441C188.657 11.9999 188.657 12.1115 188.601 12.1673L187.875 15.7952C187.875 15.8511 187.819 15.9627 187.819 16.0185C187.819 16.0743 187.763 16.1301 187.763 16.1859C187.707 16.2418 187.651 16.2976 187.539 16.2976C187.428 16.2976 187.316 16.2976 187.204 16.2976C187.148 16.2976 187.092 16.2976 187.037 16.2976C186.981 16.2976 186.981 16.2976 186.925 16.2976C186.869 16.2976 186.813 16.2418 186.813 16.1859C186.813 16.1301 186.813 16.0743 186.813 16.0185L186.869 15.8511V15.7952C186.869 15.7394 186.869 15.7394 186.869 15.6836L187.148 14.2883C187.148 14.1766 187.204 14.1208 187.204 14.0092C187.204 13.8976 187.26 13.8418 187.26 13.7859C187.26 13.7301 187.26 13.7301 187.26 13.6743C187.26 13.6185 187.26 13.6185 187.204 13.6185C187.204 13.6185 187.204 13.6185 187.148 13.6185L187.092 13.6743C187.037 13.7859 186.925 13.8418 186.869 13.9534C186.813 14.065 186.757 14.1766 186.701 14.2883C186.589 14.5115 186.422 14.7348 186.31 15.0138C186.198 15.2371 186.031 15.4604 185.919 15.6836C185.863 15.7952 185.807 15.9069 185.751 16.0185C185.695 16.1301 185.584 16.2418 185.528 16.2976C185.472 16.3534 185.416 16.3534 185.36 16.3534C185.304 16.3534 185.248 16.3534 185.192 16.3534H184.969C184.913 16.3534 184.913 16.3534 184.857 16.2976C184.801 16.2976 184.801 16.2418 184.801 16.2418C184.801 16.2418 184.745 16.1859 184.745 16.1301C184.745 16.0743 184.745 16.0743 184.745 16.0185C184.745 15.9627 184.689 15.9069 184.689 15.7952C184.689 15.7394 184.689 15.6278 184.634 15.572C184.578 15.3487 184.578 15.1255 184.522 14.9022C184.466 14.679 184.466 14.4557 184.41 14.2325C184.41 14.1208 184.354 13.9534 184.354 13.8418C184.354 13.7301 184.298 13.6185 184.242 13.5069C184.242 13.5069 184.242 13.5069 184.187 13.5069C184.131 13.5627 184.131 13.5627 184.131 13.6185C184.131 13.6743 184.075 13.6743 184.075 13.7301C184.075 13.7859 184.075 13.7859 184.075 13.8418L184.019 14.0092C184.019 14.065 184.019 14.065 183.963 14.1208C183.907 14.1766 183.963 14.1766 183.963 14.1766L183.684 15.4604C183.684 15.572 183.628 15.6836 183.628 15.7952C183.628 15.9069 183.572 16.0185 183.516 16.0743L183.46 16.1301C183.46 16.1301 183.404 16.1301 183.404 16.1859C183.348 16.1859 183.348 16.1859 183.292 16.2418C183.237 16.2418 183.181 16.2418 183.125 16.2418C183.013 16.2418 182.957 16.2418 182.845 16.2418C182.734 16.2418 182.678 16.2418 182.622 16.1859C182.566 16.1301 182.566 16.1301 182.566 16.0185C182.566 15.9627 182.566 15.8511 182.622 15.7952L183.348 12.1115C183.348 12.0557 183.404 11.9999 183.404 11.9441C183.404 11.8883 183.46 11.8325 183.46 11.7766C183.516 11.7208 183.572 11.665 183.628 11.665H183.684H183.739H184.466C184.522 11.665 184.634 11.665 184.689 11.665C184.745 11.665 184.801 11.665 184.857 11.7208C184.913 11.7766 184.969 11.8325 184.969 11.9441C184.969 12.0557 185.025 12.1115 185.025 12.2231C185.081 12.4464 185.081 12.6697 185.137 12.8371C185.192 13.0604 185.192 13.2836 185.248 13.4511C185.304 13.5627 185.304 13.6743 185.304 13.7859C185.304 13.8976 185.36 14.0092 185.36 14.1208C185.36 14.1766 185.36 14.2325 185.416 14.2883C185.416 14.3441 185.472 14.3441 185.528 14.3999C185.584 14.3999 185.584 14.3999 185.639 14.3999C185.695 14.3441 185.695 14.3441 185.695 14.3441C185.751 14.2883 185.807 14.1766 185.863 14.065C185.919 13.9534 185.975 13.8976 186.031 13.7859C186.198 13.5627 186.31 13.2836 186.478 13.0604C186.645 12.7813 186.757 12.558 186.925 12.279C186.981 12.1673 187.037 12.0557 187.092 11.9441C187.148 11.8325 187.26 11.7208 187.372 11.7208C187.428 11.7208 187.484 11.7208 187.539 11.7208C187.595 11.7208 187.651 11.7208 187.707 11.7208H188.21C188.266 11.7208 188.322 11.7208 188.322 11.7208C188.378 11.7208 188.434 11.7208 188.434 11.7208H188.489C188.545 11.7208 188.545 11.7208 188.601 11.7766C188.601 11.7208 188.657 11.7208 188.657 11.7766Z" fill="black"/>
<path d="M89.137 11.1765C88.8948 11.7683 88.7146 13.0506 88.6468 14.7643L90.586 15.672C90.5384 14.4464 90.5697 13.2926 90.6798 12.2433C90.6861 12.1648 90.6925 12.119 90.6925 12.119C90.6913 12.1608 90.681 12.2014 90.6798 12.2433C90.6452 12.5887 90.5771 13.6719 90.7142 15.6247C91.5036 14.965 92.6377 13.8494 93.5338 12.8965C92.5494 10.9508 91.3516 10.6237 91.3516 10.6237C91.3516 10.6237 89.6356 9.95758 89.137 11.1765Z" fill="url(#paint0_linear)"/>
<path d="M96.003 25.8758C95.9142 25.9753 95.8215 26.0696 95.7288 26.164C95.7772 26.1194 95.8268 26.0657 95.8711 26.0159C95.9195 25.9714 95.9638 25.9216 96.003 25.8758Z" fill="#BE202E"/>
<path opacity="0.35" d="M96.003 25.8758C95.9142 25.9753 95.8215 26.0696 95.7288 26.164C95.7772 26.1194 95.8268 26.0657 95.8711 26.0159C95.9195 25.9714 95.9638 25.9216 96.003 25.8758Z" fill="#BE202E"/>
<path d="M95.2796 24.3494C95.2743 24.3533 95.2743 24.3533 95.2796 24.3494C95.2952 24.3376 95.307 24.3206 95.3227 24.3088C95.3827 24.2472 95.4428 24.1856 95.4937 24.1228C95.4271 24.1974 95.3514 24.2708 95.2796 24.3494V24.3494Z" fill="#BE202E"/>
<path opacity="0.35" d="M95.2796 24.3494C95.2743 24.3533 95.2743 24.3533 95.2796 24.3494C95.2952 24.3376 95.307 24.3206 95.3227 24.3088C95.3827 24.2472 95.4428 24.1856 95.4937 24.1228C95.4271 24.1974 95.3514 24.2708 95.2796 24.3494V24.3494Z" fill="#BE202E"/>
<path d="M91.161 21.3479C91.0639 20.7084 90.9746 20.0795 90.8932 19.4609C90.8104 18.8188 90.7447 18.1885 90.6921 17.5647C90.6881 17.5268 90.6841 17.4888 90.684 17.4561C90.6341 16.8467 90.596 16.2529 90.5749 15.6709L88.6398 14.7685C88.6374 14.8849 88.6299 15.0052 88.6262 15.1308C88.613 15.5913 88.605 16.0805 88.6075 16.5946C88.6103 17.174 88.6235 17.7783 88.6421 18.4114C88.6631 18.9934 88.6947 19.6003 88.7342 20.2176C88.7722 20.746 88.8141 21.2796 88.8639 21.8236C88.8652 21.8471 88.8679 21.8615 88.8692 21.8851L91.4588 23.155C91.3617 22.5482 91.2594 21.9454 91.161 21.3479V21.3479Z" fill="url(#paint1_linear)"/>
<path d="M95.1561 36.4976C95.304 36.976 95.4545 37.4689 95.6181 37.9682C95.622 37.9735 95.6207 37.9826 95.6247 37.9878C95.6471 38.061 95.6656 38.129 95.6933 38.1983C95.8002 38.5356 95.9031 38.8349 96.1247 39.5199C96.5397 39.4287 97.0614 39.6095 97.6068 39.8543C97.2535 39.4403 96.7682 39.1666 96.1918 39.109C97.7543 38.0396 98.7738 36.6744 98.6075 35.0632C98.5901 34.9206 98.5688 34.7729 98.5383 34.6238C98.5215 35.2426 98.2711 35.6931 97.5232 36.1904L97.518 36.1944L97.5232 36.1904C98.2195 34.9293 98.4047 34.0773 98.3064 32.98C98.2822 32.7197 98.2462 32.4438 98.1944 32.147C97.9875 33.7852 97.1218 34.8544 95.8439 35.4967L95.0729 36.2244C95.102 36.3172 95.1271 36.4048 95.1561 36.4976Z" fill="url(#paint2_linear)"/>
<path d="M94.1259 34.3171C93.9542 33.7092 93.7838 33.0922 93.6094 32.4699C93.4456 31.8725 93.2869 31.2712 93.1296 30.6607C92.9723 30.0501 92.8202 29.4357 92.6681 28.8212C92.5134 28.1924 92.3678 27.5649 92.2274 26.9334C92.0858 26.3111 91.9546 25.6809 91.8221 25.0599C91.7744 24.8337 91.7307 24.6127 91.6882 24.3826C91.6113 23.9982 91.5397 23.6099 91.468 23.2215C91.4614 23.2019 91.4601 23.1784 91.4535 23.1588L88.8784 21.8863C88.8824 21.9242 88.8904 21.9673 88.8892 22.0092C88.9482 22.5872 89.0059 23.1744 89.082 23.7641C89.1568 24.3631 89.2408 24.9633 89.3379 25.57C89.4203 26.0812 89.508 26.5886 89.5996 27.1011C89.6181 27.2018 89.6407 27.3077 89.6592 27.4084C89.7852 28.0425 89.919 28.6544 90.0631 29.2257C90.2244 29.8741 90.3962 30.482 90.5691 31.048C90.6852 31.4192 90.7987 31.7761 90.9148 32.1146C91.015 32.3995 91.1244 32.6858 91.2298 32.9668C91.4829 33.6281 91.7621 34.2697 92.0622 34.8957L94.6647 36.172C94.5209 35.6988 94.3874 35.2178 94.2409 34.7302C94.2039 34.5942 94.1669 34.4583 94.1259 34.3171V34.3171Z" fill="url(#paint3_linear)"/>
<path d="M92.0994 34.9805C92.4653 35.737 92.8678 36.4661 93.3173 37.1597C93.3331 37.1805 93.3476 37.2106 93.3633 37.2315C92.645 36.9531 91.3804 37.1023 91.3896 37.1035C92.7028 37.5403 93.8565 38.0806 94.5905 38.9123C94.3071 39.232 93.7721 39.4791 93.0982 39.6832C94.0347 39.7728 94.5542 39.603 94.7439 39.5176C94.2604 39.9306 93.9964 40.678 93.7665 41.4816C94.3052 40.5767 94.8432 39.9752 95.3717 39.7412C96.1807 42.3019 97.1512 45.0767 98.2243 47.9873C98.3966 47.7594 98.413 47.5095 98.3364 47.2559C98.1387 46.7331 96.8627 43.271 95.3963 38.5679C95.3541 38.4359 95.3171 38.2999 95.2709 38.1627C95.2577 38.1235 95.2485 38.0895 95.2353 38.0503C95.0848 37.5575 94.9317 37.0503 94.7759 36.5287C94.7415 36.4072 94.7059 36.2948 94.6716 36.1732L94.6676 36.168L92.0651 34.8916C92.0744 34.9256 92.0849 34.9504 92.0994 34.9805V34.9805Z" fill="url(#paint4_linear)"/>
<path d="M91.7587 23.2056C91.7747 23.2919 91.7919 23.3691 91.8078 23.4554C91.8608 23.7103 91.9086 23.9692 91.9655 24.2294C92.0239 24.5131 92.0861 24.8021 92.1471 25.1002C92.1776 25.2493 92.208 25.3983 92.2425 25.5526C92.3418 26.0102 92.449 26.4783 92.5589 26.9607C92.6952 27.5543 92.8434 28.1635 93.0021 28.7976C93.1515 29.3977 93.3115 30.0226 93.4794 30.658C93.642 31.2646 93.8072 31.8856 93.9882 32.5275C94.1467 33.0961 94.3171 33.6805 94.4901 34.2792C94.4954 34.308 94.5099 34.338 94.5152 34.3668C94.6895 34.9564 94.8704 35.5656 95.0592 36.1852C95.0618 36.1996 95.0645 36.214 95.0723 36.2244L95.8432 35.4968C95.8236 35.5034 95.8079 35.5152 95.7831 35.5257C96.6976 34.6408 97.4687 32.8812 97.6298 31.302C97.704 30.5745 97.6864 29.8015 97.5757 28.9593C97.4955 28.3316 97.3591 27.6727 97.174 26.9602C97.0127 26.3444 96.8147 25.6908 96.5746 25.0032C96.4352 25.2965 96.2356 25.586 95.99 25.8691C95.9456 25.9189 95.9012 25.9687 95.8568 26.0185C95.8124 26.0683 95.7641 26.1129 95.7144 26.1666C96.3837 25.0978 96.4503 23.9584 96.2327 22.7789C96.113 23.1311 95.8759 23.6535 95.4777 24.1252C95.4267 24.1881 95.3667 24.2497 95.3066 24.3113C95.2909 24.3231 95.2791 24.3402 95.2582 24.3559C95.4799 23.9761 95.6427 23.616 95.7453 23.2522C95.77 23.1763 95.7855 23.099 95.8011 23.0218C95.827 22.9041 95.8437 22.785 95.8604 22.6659C95.8668 22.5874 95.8771 22.5141 95.8835 22.4356C95.8948 22.2551 95.893 22.0681 95.8729 21.8784C95.8675 21.817 95.8661 21.7607 95.8555 21.7032C95.8396 21.6169 95.8276 21.5358 95.8104 21.4587C95.744 21.0991 95.6712 20.7853 95.5972 20.5134C95.5602 20.3774 95.5259 20.2558 95.4902 20.1434C95.4731 20.099 95.4651 20.0558 95.448 20.0114C95.4045 19.8885 95.3689 19.7761 95.3306 19.682C95.2753 19.5435 95.2253 19.4337 95.1845 19.3579C95.1728 19.4077 95.1559 19.4613 95.1299 19.5137C94.9736 19.8934 94.6056 20.4161 94.2686 20.7843L94.9794 20.1183L94.2686 20.7843C94.2634 20.7883 94.2582 20.7922 94.2569 20.8014C94.2242 20.8341 94.1863 20.8708 94.1524 20.9128C94.1537 20.9036 94.1641 20.8957 94.1654 20.8866L91.7364 23.1651C91.7574 23.1821 91.76 23.1965 91.7587 23.2056V23.2056Z" fill="url(#paint5_linear)"/>
<path d="M90.7135 15.6242C90.7502 16.1617 90.8054 16.7673 90.8751 17.4356C90.8791 17.4735 90.8792 17.5062 90.8884 17.5402C90.9514 18.1235 91.0315 18.7512 91.1314 19.4377C91.2167 20.0288 91.3112 20.6539 91.4268 21.3286C91.5225 21.9118 91.6379 22.5212 91.7574 23.1684L94.1864 20.8898C94.6871 19.9561 94.7917 19.3777 94.7756 18.6609C94.7699 18.4686 94.7563 18.2659 94.7388 18.0579C94.6914 17.4301 94.6073 16.7645 94.4918 16.1225C94.3829 15.5 94.2517 14.9025 94.1038 14.3913C94.01 14.0606 93.9111 13.7665 93.8109 13.5142C93.72 13.296 93.6266 13.096 93.5318 12.9052C92.637 13.849 91.5029 14.9645 90.7135 15.6242Z" fill="url(#paint6_linear)"/>
<path d="M95.8749 26.0213C95.8305 26.0711 95.7822 26.1156 95.7326 26.1693C95.777 26.1196 95.8213 26.0698 95.8749 26.0213Z" fill="#BE202E"/>
<path opacity="0.35" d="M95.8749 26.0213C95.8305 26.0711 95.7822 26.1156 95.7326 26.1693C95.777 26.1196 95.8213 26.0698 95.8749 26.0213Z" fill="#BE202E"/>
<path d="M95.8749 26.0213C95.8305 26.0711 95.7822 26.1156 95.7326 26.1693C95.777 26.1196 95.8213 26.0698 95.8749 26.0213Z" fill="url(#paint7_linear)"/>
<path d="M95.2735 24.3535C95.2891 24.3417 95.3009 24.3247 95.3218 24.309C95.3061 24.3208 95.2944 24.3378 95.2735 24.3535Z" fill="#BE202E"/>
<path opacity="0.35" d="M95.2735 24.3535C95.2891 24.3417 95.3009 24.3247 95.3218 24.309C95.3061 24.3208 95.2944 24.3378 95.2735 24.3535Z" fill="#BE202E"/>
<path d="M95.2735 24.3535C95.2891 24.3417 95.3009 24.3247 95.3218 24.309C95.3061 24.3208 95.2944 24.3378 95.2735 24.3535Z" fill="url(#paint8_linear)"/>
<path d="M114.911 11.0398C114.234 11.319 113.043 12.2043 111.591 13.5281L112.41 15.8355C113.372 14.8107 114.338 13.9076 115.282 13.1528C115.351 13.0948 115.394 13.0632 115.394 13.0632C115.359 13.0959 115.317 13.1201 115.282 13.1528C114.973 13.4027 114.034 14.2189 112.552 15.9016C113.725 16.0129 115.547 16.0375 117.045 15.9995C117.84 13.6333 117.143 12.396 117.143 12.396C117.143 12.396 116.306 10.4645 114.911 11.0398Z" fill="url(#paint9_linear)"/>
<path d="M108.45 28.4519C108.298 28.4598 108.146 28.4604 107.995 28.4609C108.07 28.4643 108.154 28.4614 108.23 28.4575C108.305 28.4609 108.382 28.457 108.45 28.4519Z" fill="#BE202E"/>
<path opacity="0.35" d="M108.45 28.4519C108.298 28.4598 108.146 28.4604 107.995 28.4609C108.07 28.4643 108.154 28.4614 108.23 28.4575C108.305 28.4609 108.382 28.457 108.45 28.4519Z" fill="#BE202E"/>
<path d="M109.112 26.6344C109.105 26.6333 109.105 26.6333 109.112 26.6344C109.134 26.6376 109.158 26.6335 109.18 26.6367C109.278 26.636 109.377 26.6353 109.469 26.6261C109.355 26.6321 109.234 26.6295 109.112 26.6344V26.6344Z" fill="#BE202E"/>
<path opacity="0.35" d="M109.112 26.6344C109.105 26.6333 109.105 26.6333 109.112 26.6344C109.134 26.6376 109.158 26.6335 109.18 26.6367C109.278 26.636 109.377 26.6353 109.469 26.6261C109.355 26.6321 109.234 26.6295 109.112 26.6344V26.6344Z" fill="#BE202E"/>
<path d="M108.246 20.8701C108.689 20.2766 109.13 19.6979 109.569 19.134C110.026 18.55 110.487 17.9894 110.954 17.4447C110.981 17.4109 111.009 17.3771 111.036 17.3507C111.493 16.8197 111.946 16.311 112.404 15.8255L111.583 13.5257C111.486 13.6175 111.382 13.7082 111.277 13.8063C110.89 14.166 110.485 14.5531 110.068 14.9688C109.598 15.4373 109.115 15.9343 108.614 16.4588C108.156 16.9443 107.687 17.4583 107.215 17.9871C106.815 18.4431 106.414 18.9065 106.01 19.3848C105.992 19.4048 105.982 19.4186 105.964 19.4386L107.012 22.5663C107.428 21.9991 107.838 21.4309 108.246 20.8701V20.8701Z" fill="url(#paint10_linear)"/>
<path d="M99.1054 36.3074C98.8341 36.8127 98.5533 37.3316 98.2777 37.8665C98.2766 37.8739 98.2681 37.8802 98.267 37.8876C98.2253 37.9648 98.1848 38.0345 98.1505 38.1128C97.9615 38.4711 97.8001 38.7956 97.4199 39.5271C97.828 39.7912 98.1003 40.3609 98.3394 41.0014C98.3928 40.381 98.2256 39.7661 97.8089 39.251C99.938 39.6611 101.872 39.3917 103.052 37.96C103.154 37.8312 103.257 37.6949 103.354 37.5502C102.836 38.0344 102.267 38.1933 101.26 37.9853L101.253 37.9842L101.26 37.9853C102.849 37.5367 103.693 37.0018 104.508 36.0389C104.701 35.8098 104.897 35.5585 105.098 35.2775C103.595 36.4275 102.027 36.5838 100.475 36.0614L99.2613 36.0199C99.209 36.1182 99.1577 36.2091 99.1054 36.3074Z" fill="url(#paint11_linear)"/>
<path d="M100.054 33.7153C100.411 33.0866 100.777 32.4515 101.144 31.809C101.5 31.1951 101.863 30.5822 102.234 29.963C102.605 29.3438 102.984 28.7257 103.363 28.1076C103.751 27.4758 104.146 26.8525 104.548 26.2302C104.941 25.6143 105.35 25.0006 105.749 24.3931C105.895 24.1723 106.04 23.959 106.194 23.7393C106.446 23.3674 106.705 22.9967 106.964 22.626C106.974 22.6048 106.992 22.5848 107.003 22.5636L105.969 19.4456C105.942 19.4794 105.913 19.5206 105.878 19.5533C105.454 20.0664 105.022 20.5858 104.602 21.1222C104.174 21.665 103.752 22.2162 103.335 22.7833C102.984 23.2617 102.641 23.7412 102.297 24.2281C102.23 24.3243 102.162 24.4278 102.094 24.5239C101.679 25.1366 101.287 25.7377 100.937 26.3146C100.538 26.9676 100.181 27.5963 99.8584 28.1924C99.6491 28.5855 99.4494 28.965 99.2667 29.3317C99.1149 29.6425 98.9695 29.9618 98.8252 30.2736C98.4895 31.0115 98.1908 31.7549 97.9218 32.5026L98.9745 35.6461C99.2447 35.1483 99.5296 34.6527 99.8093 34.1412C99.8904 34.0017 99.9715 33.8622 100.054 33.7153V33.7153Z" fill="url(#paint12_linear)"/>
<path d="M97.8856 32.6015C97.563 33.5078 97.2923 34.4217 97.0883 35.3454C97.084 35.375 97.0711 35.411 97.0668 35.4406C96.716 34.6324 95.5772 33.724 95.5835 33.7325C96.2837 35.1519 96.771 36.5249 96.6834 37.791C96.1947 37.8178 95.5629 37.5815 94.8544 37.1978C95.5347 38.0315 96.091 38.3172 96.3132 38.4028C95.5875 38.3419 94.7657 38.7286 93.9256 39.1883C95.0967 38.8982 96.02 38.8517 96.6358 39.0933C95.1986 41.8115 93.7167 44.8336 92.2064 48.0482C92.5309 48.0049 92.7478 47.8172 92.893 47.5509C93.1603 46.9694 94.9569 43.1459 97.6123 38.1692C97.686 38.0287 97.7671 37.8892 97.8419 37.7412C97.8633 37.6989 97.8835 37.664 97.9049 37.6218C98.1857 37.1029 98.476 36.5702 98.776 36.0239C98.8475 35.8981 98.9105 35.7787 98.982 35.653L98.9831 35.6455L97.9305 32.5021C97.9102 32.537 97.8984 32.5655 97.8856 32.6015V32.6015Z" fill="url(#paint13_linear)"/>
<path d="M107.213 22.8515C107.156 22.9339 107.107 23.01 107.049 23.0924C106.884 23.3406 106.711 23.5878 106.545 23.8435C106.36 24.1192 106.175 24.4023 105.981 24.6918C105.884 24.8365 105.787 24.9812 105.688 25.1334C105.395 25.5824 105.1 26.0462 104.795 26.5237C104.42 27.1122 104.043 27.723 103.653 28.3622C103.284 28.9666 102.903 29.5995 102.52 30.2473C102.156 30.8676 101.783 31.5016 101.405 32.1653C101.069 32.7518 100.729 33.3605 100.38 33.983C100.361 34.0105 100.348 34.0464 100.329 34.0739C99.9881 34.69 99.6368 35.3273 99.2834 35.9794C99.2738 35.9932 99.2642 36.0069 99.262 36.0217L100.476 36.0632C100.454 36.0525 100.432 36.0492 100.404 36.0375C101.861 36.0692 103.916 35.2803 105.334 34.1407C105.987 33.6157 106.603 32.9794 107.201 32.2117C107.648 31.6415 108.076 31.0002 108.508 30.2764C108.88 29.6498 109.254 28.9628 109.622 28.2144C109.27 28.337 108.873 28.4076 108.445 28.4357C108.369 28.4396 108.292 28.4436 108.216 28.4476C108.14 28.4515 108.065 28.4481 107.981 28.451C109.391 28.1352 110.374 27.2725 111.16 26.1465C110.777 26.3326 110.16 26.5601 109.455 26.6158C109.363 26.625 109.264 26.6257 109.166 26.6264C109.143 26.6231 109.12 26.6273 109.09 26.623C109.579 26.4976 110.003 26.3403 110.382 26.131C110.464 26.09 110.54 26.0405 110.615 25.991C110.732 25.9173 110.843 25.8351 110.953 25.7529C111.022 25.6949 111.09 25.6443 111.159 25.5863C111.316 25.4503 111.467 25.2983 111.605 25.1294C111.651 25.0755 111.696 25.0291 111.734 24.9742C111.792 24.8918 111.848 24.8168 111.897 24.7407C112.137 24.3975 112.334 24.0858 112.497 23.8068C112.578 23.6673 112.649 23.5415 112.712 23.4221C112.735 23.3724 112.764 23.3312 112.786 23.2815C112.851 23.1473 112.914 23.0278 112.96 22.9211C113.029 22.7646 113.078 22.6356 113.107 22.5414C113.057 22.5719 113 22.6014 112.936 22.6223C112.501 22.8008 111.778 22.9221 111.207 22.9444L112.322 22.9865L111.207 22.9444C111.2 22.9433 111.192 22.9422 111.184 22.9485C111.131 22.9483 111.07 22.947 111.009 22.9532C111.017 22.9468 111.032 22.949 111.041 22.9427L107.228 22.8008C107.231 22.8315 107.222 22.8452 107.213 22.8515V22.8515Z" fill="url(#paint14_linear)"/>
<path d="M112.553 15.9005C112.144 16.3628 111.695 16.895 111.206 17.4894C111.178 17.5232 111.152 17.5496 111.131 17.5844C110.706 18.105 110.259 18.6752 109.779 19.3089C109.366 19.8539 108.932 20.4337 108.475 21.0706C108.076 21.6177 107.672 22.2019 107.24 22.8199L111.053 22.9618C112.217 22.6176 112.773 22.2373 113.344 21.6474C113.497 21.488 113.651 21.3139 113.806 21.1323C114.28 20.5886 114.756 19.9846 115.186 19.374C115.606 18.7846 115.988 18.1972 116.286 17.6656C116.48 17.3232 116.64 17.0061 116.766 16.7216C116.87 16.4721 116.958 16.2352 117.038 16.0046C115.548 16.0363 113.726 16.0117 112.553 15.9005Z" fill="url(#paint15_linear)"/>
<path d="M108.228 28.4649C108.151 28.4689 108.076 28.4655 107.993 28.4683C108.069 28.4644 108.145 28.4604 108.228 28.4649Z" fill="#BE202E"/>
<path opacity="0.35" d="M108.228 28.4649C108.151 28.4689 108.076 28.4655 107.993 28.4683C108.069 28.4644 108.145 28.4604 108.228 28.4649Z" fill="#BE202E"/>
<path d="M108.228 28.4649C108.151 28.4689 108.076 28.4655 107.993 28.4683C108.069 28.4644 108.145 28.4604 108.228 28.4649Z" fill="url(#paint16_linear)"/>
<path d="M109.102 26.6333C109.125 26.6366 109.148 26.6324 109.178 26.6368C109.155 26.6335 109.132 26.6377 109.102 26.6333Z" fill="#BE202E"/>
<path opacity="0.35" d="M109.102 26.6333C109.125 26.6366 109.148 26.6324 109.178 26.6368C109.155 26.6335 109.132 26.6377 109.102 26.6333Z" fill="#BE202E"/>
<path d="M109.102 26.6333C109.125 26.6366 109.148 26.6324 109.178 26.6368C109.155 26.6335 109.132 26.6377 109.102 26.6333Z" fill="url(#paint17_linear)"/>
</g>
<defs>
<linearGradient id="paint0_linear" x1="89.4668" y1="14.4329" x2="94.095" y2="8.38658" gradientUnits="userSpaceOnUse">
<stop stop-color="#F69923"/>
<stop offset="0.3123" stop-color="#F79A23"/>
<stop offset="0.8383" stop-color="#E97826"/>
</linearGradient>
<linearGradient id="paint1_linear" x1="96.4675" y1="50.3811" x2="89.1412" y2="15.8499" gradientUnits="userSpaceOnUse">
<stop offset="0.3233" stop-color="#9E2064"/>
<stop offset="0.6302" stop-color="#C92037"/>
<stop offset="0.7514" stop-color="#CD2335"/>
<stop offset="1" stop-color="#E97826"/>
</linearGradient>
<linearGradient id="paint2_linear" x1="99.0461" y1="45.4775" x2="94.6801" y2="24.8993" gradientUnits="userSpaceOnUse">
<stop stop-color="#282662"/>
<stop offset="0.0954839" stop-color="#662E8D"/>
<stop offset="0.7882" stop-color="#9F2064"/>
<stop offset="0.9487" stop-color="#CD2032"/>
</linearGradient>
<linearGradient id="paint3_linear" x1="95.7323" y1="48.5097" x2="88.4061" y2="13.9792" gradientUnits="userSpaceOnUse">
<stop offset="0.3233" stop-color="#9E2064"/>
<stop offset="0.6302" stop-color="#C92037"/>
<stop offset="0.7514" stop-color="#CD2335"/>
<stop offset="1" stop-color="#E97826"/>
</linearGradient>
<linearGradient id="paint4_linear" x1="95.6613" y1="45.8922" x2="91.8112" y2="27.7458" gradientUnits="userSpaceOnUse">
<stop stop-color="#282662"/>
<stop offset="0.0954839" stop-color="#662E8D"/>
<stop offset="0.7882" stop-color="#9F2064"/>
<stop offset="0.9487" stop-color="#CD2032"/>
</linearGradient>
<linearGradient id="paint5_linear" x1="99.3085" y1="47.7508" x2="91.9821" y2="13.2189" gradientUnits="userSpaceOnUse">
<stop offset="0.3233" stop-color="#9E2064"/>
<stop offset="0.6302" stop-color="#C92037"/>
<stop offset="0.7514" stop-color="#CD2335"/>
<stop offset="1" stop-color="#E97826"/>
</linearGradient>
<linearGradient id="paint6_linear" x1="99.5899" y1="49.9317" x2="92.2632" y2="15.3989" gradientUnits="userSpaceOnUse">
<stop offset="0.3233" stop-color="#9E2064"/>
<stop offset="0.6302" stop-color="#C92037"/>
<stop offset="0.7514" stop-color="#CD2335"/>
<stop offset="1" stop-color="#E97826"/>
</linearGradient>
<linearGradient id="paint7_linear" x1="100.37" y1="47.5131" x2="93.0478" y2="13.0007" gradientUnits="userSpaceOnUse">
<stop offset="0.3233" stop-color="#9E2064"/>
<stop offset="0.6302" stop-color="#C92037"/>
<stop offset="0.7514" stop-color="#CD2335"/>
<stop offset="1" stop-color="#E97826"/>
</linearGradient>
<linearGradient id="paint8_linear" x1="100.246" y1="47.5353" x2="92.921" y2="13.0286" gradientUnits="userSpaceOnUse">
<stop offset="0.3233" stop-color="#9E2064"/>
<stop offset="0.6302" stop-color="#C92037"/>
<stop offset="0.7514" stop-color="#CD2335"/>
<stop offset="1" stop-color="#E97826"/>
</linearGradient>
<linearGradient id="paint9_linear" x1="112.521" y1="13.9283" x2="121.176" y2="12.8368" gradientUnits="userSpaceOnUse">
<stop stop-color="#F69923"/>
<stop offset="0.3123" stop-color="#F79A23"/>
<stop offset="0.8383" stop-color="#E97826"/>
</linearGradient>
<linearGradient id="paint10_linear" x1="88.8383" y1="48.5468" x2="111.044" y2="14.7641" gradientUnits="userSpaceOnUse">
<stop offset="0.3233" stop-color="#9E2064"/>
<stop offset="0.6302" stop-color="#C92037"/>
<stop offset="0.7514" stop-color="#CD2335"/>
<stop offset="1" stop-color="#E97826"/>
</linearGradient>
<linearGradient id="paint11_linear" x1="94.9115" y1="46.6966" x2="108.145" y2="26.564" gradientUnits="userSpaceOnUse">
<stop stop-color="#282662"/>
<stop offset="0.0954839" stop-color="#662E8D"/>
<stop offset="0.7882" stop-color="#9F2064"/>
<stop offset="0.9487" stop-color="#CD2032"/>
</linearGradient>
<linearGradient id="paint12_linear" x1="89.7725" y1="46.4415" x2="111.978" y2="12.6605" gradientUnits="userSpaceOnUse">
<stop offset="0.3233" stop-color="#9E2064"/>
<stop offset="0.6302" stop-color="#C92037"/>
<stop offset="0.7514" stop-color="#CD2335"/>
<stop offset="1" stop-color="#E97826"/>
</linearGradient>
<linearGradient id="paint13_linear" x1="91.8533" y1="44.278" x2="103.523" y2="26.5263" gradientUnits="userSpaceOnUse">
<stop stop-color="#282662"/>
<stop offset="0.0954839" stop-color="#662E8D"/>
<stop offset="0.7882" stop-color="#9F2064"/>
<stop offset="0.9487" stop-color="#CD2032"/>
</linearGradient>
<linearGradient id="paint14_linear" x1="93.27" y1="48.7413" x2="115.476" y2="14.9575" gradientUnits="userSpaceOnUse">
<stop offset="0.3233" stop-color="#9E2064"/>
<stop offset="0.6302" stop-color="#C92037"/>
<stop offset="0.7514" stop-color="#CD2335"/>
<stop offset="1" stop-color="#E97826"/>
</linearGradient>
<linearGradient id="paint15_linear" x1="91.7153" y1="50.7247" x2="113.923" y2="16.9395" gradientUnits="userSpaceOnUse">
<stop offset="0.3233" stop-color="#9E2064"/>
<stop offset="0.6302" stop-color="#C92037"/>
<stop offset="0.7514" stop-color="#CD2335"/>
<stop offset="1" stop-color="#E97826"/>
</linearGradient>
<linearGradient id="paint16_linear" x1="94.3207" y1="49.4226" x2="116.531" y2="15.6578" gradientUnits="userSpaceOnUse">
<stop offset="0.3233" stop-color="#9E2064"/>
<stop offset="0.6302" stop-color="#C92037"/>
<stop offset="0.7514" stop-color="#CD2335"/>
<stop offset="1" stop-color="#E97826"/>
</linearGradient>
<linearGradient id="paint17_linear" x1="94.2062" y1="49.347" x2="116.422" y2="15.5867" gradientUnits="userSpaceOnUse">
<stop offset="0.3233" stop-color="#9E2064"/>
<stop offset="0.6302" stop-color="#C92037"/>
<stop offset="0.7514" stop-color="#CD2335"/>
<stop offset="1" stop-color="#E97826"/>
</linearGradient>
<clipPath id="clip0">
<rect width="190" height="48" fill="white"/>
</clipPath>
</defs>
</svg>
