<svg width="24" height="24" viewBox="0 0 24 24" fill="none" xmlns="http://www.w3.org/2000/svg">
<g clip-path="url(#clip0)">
<path d="M23.4561 4.44249C23.0791 4.60972 22.6915 4.75085 22.2954 4.86543C22.7643 4.33511 23.1218 3.71111 23.3401 3.02827C23.389 2.87522 23.3383 2.70768 23.2125 2.60758C23.0869 2.5074 22.9123 2.4954 22.7739 2.57739C21.9328 3.07627 21.0253 3.4348 20.0737 3.64446C19.1152 2.70784 17.8133 2.1748 16.4674 2.1748C13.6265 2.1748 11.3152 4.486 11.3152 7.32683C11.3152 7.55057 11.3294 7.77307 11.3574 7.99248C7.83215 7.68295 4.55475 5.95023 2.30417 3.18954C2.22397 3.09114 2.1004 3.03811 1.9739 3.04825C1.84732 3.05816 1.73359 3.12954 1.66964 3.23924C1.21318 4.02249 0.971862 4.91831 0.971862 5.82977C0.971862 7.07119 1.41509 8.24904 2.19803 9.1694C1.95996 9.08695 1.72895 8.98391 1.50846 8.86151C1.39008 8.79563 1.24562 8.79663 1.12802 8.86406C1.01034 8.9315 0.936558 9.05552 0.933462 9.19108C0.93292 9.21392 0.93292 9.23676 0.93292 9.25991C0.93292 11.1129 1.93024 12.7812 3.45501 13.6905C3.32402 13.6775 3.1931 13.6585 3.06304 13.6336C2.92895 13.608 2.79106 13.655 2.70064 13.7573C2.61006 13.8595 2.58009 14.0019 2.62182 14.132C3.18621 15.894 4.63929 17.1901 6.39594 17.5853C4.93898 18.4978 3.27284 18.9758 1.52378 18.9758C1.15883 18.9758 0.791784 18.9544 0.432558 18.9118C0.254107 18.8906 0.0834745 18.996 0.0227003 19.1657C-0.0380739 19.3355 0.026339 19.5248 0.178158 19.6221C2.4251 21.0628 5.02322 21.8243 7.69148 21.8243C12.9369 21.8243 16.2184 19.3507 18.0474 17.2757C20.3282 14.6882 21.6362 11.2634 21.6362 7.87952C21.6362 7.73815 21.6341 7.59539 21.6297 7.4531C22.5296 6.77514 23.3043 5.95465 23.9348 5.0116C24.0305 4.86838 24.0201 4.67909 23.9092 4.54724C23.7984 4.41532 23.6138 4.37266 23.4561 4.44249Z" fill="white"/>
</g>
<defs>
<clipPath id="clip0">
<rect width="24" height="24" fill="white"/>
</clipPath>
</defs>
</svg>
