<svg width="35" height="24" viewBox="0 0 35 24" fill="none" xmlns="http://www.w3.org/2000/svg">
<path d="M18.1713 23.9692L11.0316 23.839C8.71989 23.7937 6.40246 23.8843 4.13616 23.4143C0.688425 22.7121 0.444187 19.2692 0.188588 16.3812C-0.163569 12.321 -0.0272501 8.18716 0.637305 4.16095C1.01218 1.90151 2.48897 0.553774 4.77232 0.406542C12.48 -0.125756 20.2388 -0.0634659 27.9295 0.185695C28.7417 0.208346 29.5597 0.332927 30.3605 0.474496C34.3138 1.16535 34.4103 5.06699 34.6659 8.35138C34.9215 11.6698 34.8136 15.0051 34.3251 18.3008C33.9332 21.0303 33.1835 23.318 30.0197 23.5389C26.0551 23.8277 22.1814 24.0599 18.2054 23.9862C18.2054 23.9692 18.1827 23.9692 18.1713 23.9692ZM13.9738 17.0607C16.9615 15.3505 19.8924 13.6687 22.863 11.9699C19.8696 10.2597 16.9445 8.57789 13.9738 6.87907V17.0607Z" fill="white"/>
</svg>
