<svg width="44" height="44" viewBox="0 0 44 44" fill="none" xmlns="http://www.w3.org/2000/svg">
<path fill-rule="evenodd" clip-rule="evenodd" d="M26.1913 3.86373V3.66602H40.3307V40.3327H3.66406V3.66602H17.7831V3.86373C17.7831 6.18535 19.665 8.06781 21.9872 8.06781C24.3088 8.06781 26.1913 6.18595 26.1913 3.86373ZM14.6098 23.4258H12.1797L14.9668 36.4083H17.4233L19.3351 27.5729H19.3818L21.1678 36.4083H23.5793L26.6762 23.4258H24.2929L22.402 32.3696H22.3667L20.5657 23.4258H18.2926L16.2987 32.2611H16.2687L14.6098 23.4258ZM33.2468 23.4258H29.416L26.273 36.4083H28.7144L29.3531 33.5193H33.7172L34.5446 36.4083H37.0513L33.2468 23.4258ZM29.8144 31.3888L30.8743 26.6257H31.8964L33.1132 31.3888H29.8144Z" fill="#F19011"/>
</svg>
