<svg width="20" height="20" viewBox="0 0 20 20" fill="none" xmlns="http://www.w3.org/2000/svg">
<g clip-path="url(#clip0_355_960)">
<path fill-rule="evenodd" clip-rule="evenodd" d="M5.625 0.625C2.86344 0.625 0.625 2.86344 0.625 5.625V14.375C0.625 17.1366 2.86344 19.375 5.625 19.375H14.375C17.1366 19.375 19.375 17.1366 19.375 14.375V5.625C19.375 2.86344 17.1366 0.625 14.375 0.625H5.625ZM8.75 10C8.75002 10.0876 8.73161 10.1743 8.69597 10.2543C8.66033 10.3344 8.60826 10.4061 8.54312 10.4647L5.41812 13.2772C5.3571 13.3321 5.28586 13.3744 5.20847 13.4018C5.13108 13.4292 5.04905 13.4411 4.96708 13.4367C4.8851 13.4324 4.80478 13.412 4.73069 13.3766C4.65661 13.3413 4.59022 13.2916 4.53531 13.2306C4.4804 13.1696 4.43805 13.0984 4.41068 13.021C4.3833 12.9436 4.37143 12.8616 4.37576 12.7796C4.38008 12.6976 4.40051 12.6173 4.43587 12.5432C4.47124 12.4691 4.52085 12.4027 4.58187 12.3478L7.19063 10L4.58187 7.65219C4.45863 7.54129 4.38449 7.38598 4.37576 7.22042C4.36703 7.05486 4.42442 6.89262 4.53531 6.76938C4.64621 6.64613 4.80152 6.57199 4.96708 6.56326C5.13263 6.55453 5.29488 6.61192 5.41812 6.72281L8.54312 9.53531C8.60826 9.59394 8.66033 9.6656 8.69597 9.74566C8.73161 9.82571 8.75002 9.91237 8.75 10ZM15 13.4375C15.1658 13.4375 15.3247 13.3717 15.4419 13.2544C15.5592 13.1372 15.625 12.9783 15.625 12.8125C15.625 12.6467 15.5592 12.4878 15.4419 12.3706C15.3247 12.2533 15.1658 12.1875 15 12.1875H10C9.83424 12.1875 9.67527 12.2533 9.55806 12.3706C9.44085 12.4878 9.375 12.6467 9.375 12.8125C9.375 12.9783 9.44085 13.1372 9.55806 13.2544C9.67527 13.3717 9.83424 13.4375 10 13.4375H15Z" fill="white"/>
</g>
<defs>
<clipPath id="clip0_355_960">
<rect width="20" height="20" fill="white"/>
</clipPath>
</defs>
</svg>
