<svg width="24" height="24" viewBox="0 0 24 24" fill="none" xmlns="http://www.w3.org/2000/svg">
<g clip-path="url(#clip0_1381_2493)">
<path d="M0 4.41379C0 1.97612 1.97612 0 4.41379 0H19.5862C22.0239 0 24 1.97612 24 4.41379V19.5862C24 22.0239 22.0239 24 19.5862 24H4.41379C1.97612 24 0 22.0239 0 19.5862V4.41379Z" fill="#8EC9E6"/>
<path d="M16.6422 15.8673C15.5331 15.8673 14.6757 15.5339 14.0701 14.8671C13.4713 14.1934 13.1719 13.2408 13.1719 12.0091C13.1719 10.7911 13.4747 9.84527 14.0803 9.17162C14.6859 8.49796 15.5399 8.16113 16.6422 8.16113C17.7446 8.16113 18.5986 8.49796 19.2042 9.17162C19.8098 9.84527 20.1126 10.7911 20.1126 12.0091C20.1126 13.2408 19.8132 14.1934 19.2144 14.8671C18.6156 15.5339 17.7582 15.8673 16.6422 15.8673ZM16.6422 14.5098C17.2614 14.5098 17.7208 14.2955 18.0202 13.8668C18.3264 13.4381 18.4795 12.8189 18.4795 12.0091C18.4795 11.1994 18.3264 10.5836 18.0202 10.1617C17.7208 9.73299 17.2614 9.51865 16.6422 9.51865C16.023 9.51865 15.5603 9.73299 15.2541 10.1617C14.9547 10.5836 14.805 11.1994 14.805 12.0091C14.805 12.8189 14.9547 13.4381 15.2541 13.8668C15.5603 14.2955 16.023 14.5098 16.6422 14.5098Z" fill="#182128"/>
<path d="M8.96713 12.5705V11.7131H11.7128V15.357C10.9779 15.6972 10.1546 15.8673 9.24272 15.8673C7.99069 15.8673 7.04145 15.5339 6.39499 14.8671C5.75538 14.2002 5.43555 13.2204 5.43555 11.9275C5.43555 11.1313 5.59207 10.4543 5.90506 9.89631C6.2249 9.33153 6.68079 8.90284 7.27279 8.61024C7.8716 8.31084 8.5929 8.16113 9.43668 8.16113C9.74967 8.16113 10.0593 8.18836 10.3655 8.24279C10.6785 8.29722 10.9711 8.37887 11.2433 8.48775V9.83506C10.8962 9.72618 10.5866 9.65134 10.3145 9.61051C10.0423 9.56287 9.77008 9.53906 9.49792 9.53906C8.71538 9.53906 8.11317 9.74659 7.69127 10.1617C7.27621 10.57 7.06865 11.1586 7.06865 11.9275C7.06865 12.7849 7.24898 13.4279 7.60962 13.8566C7.97706 14.2785 8.53505 14.4894 9.28355 14.4894C9.60338 14.4894 9.9164 14.469 10.2226 14.4282V12.989L8.96713 12.5705Z" fill="#182128"/>
</g>
<defs>
<clipPath id="clip0_1381_2493">
<rect width="24" height="24" fill="white"/>
</clipPath>
</defs>
</svg>
