<svg width="24" height="24" viewBox="0 0 24 24" fill="none" xmlns="http://www.w3.org/2000/svg">
<g clip-path="url(#clip0_1381_2484)">
<path d="M0 4.41379C0 1.97612 1.97612 0 4.41379 0H19.5862C22.0239 0 24 1.97612 24 4.41379V19.5862C24 22.0239 22.0239 24 19.5862 24H4.41379C1.97612 24 0 22.0239 0 19.5862V4.41379Z" fill="#8EC9E6"/>
<path d="M13.1919 15.4591V14.0403C13.9745 14.3329 14.7264 14.4792 15.4476 14.4792C15.8763 14.4792 16.2132 14.4078 16.4581 14.2649C16.7031 14.122 16.8256 13.9246 16.8256 13.6729C16.8256 13.4959 16.7473 13.3496 16.5908 13.234C16.4343 13.1115 16.1315 12.9754 15.6824 12.8257L14.9067 12.5603C14.2738 12.3426 13.8111 12.0636 13.5185 11.7233C13.2327 11.3763 13.0898 10.934 13.0898 10.3964C13.0898 9.93374 13.2055 9.53567 13.4369 9.20224C13.6751 8.8688 14.0085 8.61363 14.4372 8.43672C14.8658 8.253 15.3762 8.16113 15.9682 8.16113C16.3425 8.16113 16.7099 8.19857 17.0705 8.27341C17.438 8.34146 17.7578 8.43672 18.03 8.5592V9.97796C17.6829 9.84188 17.3291 9.73981 16.9685 9.67175C16.6078 9.59691 16.2744 9.55948 15.9682 9.55948C15.1244 9.55948 14.7025 9.80784 14.7025 10.3046C14.7025 10.4951 14.7808 10.6516 14.9373 10.7741C15.1006 10.8898 15.4034 11.0225 15.8457 11.1722L16.6214 11.4375C17.2883 11.6689 17.7612 11.9513 18.0402 12.2847C18.3192 12.6113 18.4587 13.057 18.4587 13.6218C18.4587 14.3159 18.2103 14.8637 17.7136 15.2651C17.2236 15.6666 16.5296 15.8673 15.6314 15.8673C15.3388 15.8673 15.0326 15.8503 14.7127 15.8163C14.3997 15.7823 14.1071 15.7346 13.8349 15.6734C13.5696 15.6122 13.3552 15.5407 13.1919 15.4591Z" fill="#182027"/>
<path d="M8.96713 12.5705V11.7131H11.7128V15.357C10.9779 15.6972 10.1546 15.8673 9.24272 15.8673C7.99069 15.8673 7.04145 15.5339 6.39499 14.8671C5.75538 14.2002 5.43555 13.2204 5.43555 11.9275C5.43555 11.1313 5.59207 10.4543 5.90506 9.89631C6.2249 9.33153 6.68079 8.90284 7.27279 8.61024C7.8716 8.31084 8.5929 8.16113 9.43668 8.16113C9.74967 8.16113 10.0593 8.18836 10.3655 8.24279C10.6785 8.29722 10.9711 8.37887 11.2433 8.48775V9.83506C10.8962 9.72618 10.5866 9.65134 10.3145 9.61051C10.0423 9.56287 9.77008 9.53906 9.49792 9.53906C8.71538 9.53906 8.11317 9.74659 7.69127 10.1617C7.27621 10.57 7.06865 11.1586 7.06865 11.9275C7.06865 12.7849 7.24898 13.4279 7.60962 13.8566C7.97706 14.2785 8.53505 14.4894 9.28355 14.4894C9.60338 14.4894 9.9164 14.469 10.2226 14.4282V12.989L8.96713 12.5705Z" fill="#182027"/>
</g>
<defs>
<clipPath id="clip0_1381_2484">
<rect width="24" height="24" fill="white"/>
</clipPath>
</defs>
</svg>
