<svg width="24" height="24" viewBox="0 0 24 24" fill="none" xmlns="http://www.w3.org/2000/svg">
<g clip-path="url(#clip0_1385_11180)">
<path d="M9.63293 23.9249C13.9917 24.2018 20.6846 23.7715 20.8429 21.7266C20.8429 21.7266 20.5383 22.5009 17.2408 23.117C13.5215 23.8111 8.93306 23.7307 6.21094 23.286C6.21094 23.286 6.76817 23.7427 9.63293 23.9249" fill="white"/>
<path d="M8.74238 18.5605C8.74238 18.5605 7.81768 19.094 9.40115 19.2738C11.3182 19.4907 12.3022 19.4608 14.4127 19.064C14.8365 19.3158 15.2814 19.5311 15.7423 19.7077C11.0052 21.7215 5.02062 19.5878 8.74117 18.5605" fill="white"/>
<path d="M8.16172 15.9331C8.16172 15.9331 7.12581 16.699 8.70928 16.8572C10.7569 17.0658 12.3754 17.0838 15.1749 16.5492C15.4619 16.8147 15.8009 17.0188 16.1709 17.1485C10.4426 18.8099 4.06283 17.2792 8.16172 15.9307" fill="white"/>
<path d="M13.0496 11.4748C14.2173 12.8078 12.7426 14.0076 12.7426 14.0076C12.7426 14.0076 15.7004 12.4901 14.3393 10.5854C13.0677 8.81256 12.0935 7.93273 17.3709 4.89648C17.3709 4.89648 9.0861 6.94862 13.0436 11.47" fill="#F29111"/>
<path d="M19.3098 20.5034C19.3098 20.5034 19.994 21.0632 18.5555 21.4959C15.8213 22.317 7.1739 22.5651 4.77573 21.5283C3.91267 21.1555 5.53241 20.6388 6.04129 20.5298C6.31458 20.4637 6.59529 20.4326 6.87654 20.4375C5.90954 19.7662 0.669584 21.756 4.21728 22.3242C13.8764 23.8825 21.8264 21.6241 19.3267 20.5034" fill="white"/>
<path d="M9.18132 13.211C9.18132 13.211 4.78265 14.2467 7.62323 14.6231C8.82352 14.7825 11.2144 14.7429 13.4422 14.5607C15.2626 14.4085 17.0902 14.0813 17.0902 14.0813C16.7059 14.2467 16.336 14.4431 15.9842 14.6686C11.5118 15.8337 2.88853 15.2907 5.37253 14.0993C7.47818 13.096 9.18132 13.211 9.18132 13.211Z" fill="white"/>
<path d="M17.0762 17.5828C21.6163 15.243 19.5179 12.9942 18.0517 13.2975C17.8754 13.33 17.7019 13.3765 17.5332 13.4366C17.6291 13.3008 17.7645 13.1971 17.9212 13.1393C20.8222 12.1288 23.0487 16.1204 16.9844 17.7015C17.0227 17.668 17.054 17.6272 17.0762 17.5816" fill="white"/>
<path d="M14.3391 0C14.3391 0 16.8545 2.49445 11.9542 6.33022C8.02459 9.40722 11.0586 11.1621 11.9542 13.1627C9.66487 11.1141 7.97261 9.30773 9.10521 7.62599C10.7624 5.15911 15.3545 3.96163 14.3391 0" fill="#F29111"/>
</g>
<defs>
<clipPath id="clip0_1385_11180">
<rect width="24" height="24" fill="white"/>
</clipPath>
</defs>
</svg>
