<svg width="24" height="24" viewBox="0 0 24 24" fill="none" xmlns="http://www.w3.org/2000/svg">
<path fill-rule="evenodd" clip-rule="evenodd" d="M17.4949 15.2007L6.07617 22L20.8613 20.9939L22.0001 6.04395L17.4949 15.2007Z" fill="url(#paint0_linear_1385_11198)"/>
<path fill-rule="evenodd" clip-rule="evenodd" d="M20.8865 20.9839L19.6158 12.1885L16.1543 16.7719L20.8865 20.9839Z" fill="url(#paint1_linear_1385_11198)"/>
<path fill-rule="evenodd" clip-rule="evenodd" d="M20.9021 20.9838L11.5921 20.251L6.125 21.981L20.9021 20.9838Z" fill="url(#paint2_linear_1385_11198)"/>
<path fill-rule="evenodd" clip-rule="evenodd" d="M6.13781 21.9832L8.46356 14.3428L3.3457 15.4402L6.13781 21.9832Z" fill="url(#paint3_linear_1385_11198)"/>
<path fill-rule="evenodd" clip-rule="evenodd" d="M16.1529 16.7973L14.0129 8.3916L7.88867 14.1483L16.1529 16.7973Z" fill="url(#paint4_linear_1385_11198)"/>
<path fill-rule="evenodd" clip-rule="evenodd" d="M21.5145 8.50992L15.7254 3.76855L14.1133 8.99479L21.5145 8.50992Z" fill="url(#paint5_linear_1385_11198)"/>
<path fill-rule="evenodd" clip-rule="evenodd" d="M18.8068 2.07804L15.402 3.96487L13.2539 2.05273L18.8068 2.07804Z" fill="url(#paint6_linear_1385_11198)"/>
<path fill-rule="evenodd" clip-rule="evenodd" d="M2 18.0023L3.42634 15.3937L2.27255 12.2861L2 18.0023Z" fill="url(#paint7_linear_1385_11198)"/>
<path fill-rule="evenodd" clip-rule="evenodd" d="M2.19531 12.1883L3.35617 15.4902L8.40033 14.3554L14.1592 8.98846L15.7844 3.81192L13.2253 2L8.87466 3.63276C7.50395 4.91123 4.84408 7.44083 4.74818 7.48841C4.65329 7.537 2.99176 10.6861 2.19531 12.1883Z" fill="white"/>
<path fill-rule="evenodd" clip-rule="evenodd" d="M6.2715 6.25661C9.24227 3.30287 13.0721 1.55776 14.5418 3.04475C16.0107 4.53174 14.453 8.14547 11.4822 11.0982C8.51144 14.0509 4.72908 15.8922 3.26034 14.4052C1.7906 12.9192 3.30072 9.20934 6.2715 6.25661V6.25661Z" fill="url(#paint8_linear_1385_11198)"/>
<path fill-rule="evenodd" clip-rule="evenodd" d="M6.13867 21.9802L8.44625 14.3154L16.1099 16.7843C13.339 19.3898 10.2572 21.5925 6.13867 21.9802Z" fill="url(#paint9_linear_1385_11198)"/>
<path fill-rule="evenodd" clip-rule="evenodd" d="M14.1699 8.9735L16.1373 16.7881C18.452 14.3475 20.5294 11.7238 21.5468 8.47852L14.1699 8.9735V8.9735Z" fill="url(#paint10_linear_1385_11198)"/>
<path fill-rule="evenodd" clip-rule="evenodd" d="M21.5266 8.51791C22.3139 6.13507 22.4956 2.71671 18.7828 2.08203L15.7363 3.76945L21.5266 8.51791V8.51791Z" fill="url(#paint11_linear_1385_11198)"/>
<path fill-rule="evenodd" clip-rule="evenodd" d="M2 17.9678C2.10902 21.9005 4.93847 21.9591 6.14374 21.9936L3.35971 15.4736L2 17.9678Z" fill="#9E1209"/>
<path fill-rule="evenodd" clip-rule="evenodd" d="M14.1797 8.98501C15.9583 10.0813 19.5429 12.2829 19.6156 12.3234C19.7286 12.3872 21.1611 9.90109 21.4861 8.49609L14.1797 8.98501V8.98501Z" fill="url(#paint12_radial_1385_11198)"/>
<path fill-rule="evenodd" clip-rule="evenodd" d="M8.44336 14.3154L11.5282 20.2836C13.3523 19.2916 14.7806 18.083 16.0888 16.7884L8.44336 14.3154Z" fill="url(#paint13_radial_1385_11198)"/>
<path fill-rule="evenodd" clip-rule="evenodd" d="M3.34724 15.4818L2.91016 20.7009C3.73487 21.8306 4.86948 21.9288 6.0596 21.8407C5.19855 19.6917 3.47847 15.3947 3.34724 15.4818V15.4818Z" fill="url(#paint14_linear_1385_11198)"/>
<path fill-rule="evenodd" clip-rule="evenodd" d="M15.7188 3.78275L21.8471 4.64519C21.52 3.25537 20.5156 2.35852 18.8036 2.07812L15.7188 3.78275Z" fill="url(#paint15_linear_1385_11198)"/>
<defs>
<linearGradient id="paint0_linear_1385_11198" x1="19.5717" y1="23.8189" x2="15.3348" y2="16.3591" gradientUnits="userSpaceOnUse">
<stop stop-color="#FB7655"/>
<stop offset="0.41" stop-color="#E42B1E"/>
<stop offset="0.99" stop-color="#990000"/>
<stop offset="1" stop-color="#990000"/>
</linearGradient>
<linearGradient id="paint1_linear_1385_11198" x1="21.6745" y1="17.544" x2="16.2276" y2="13.8989" gradientUnits="userSpaceOnUse">
<stop stop-color="#871101"/>
<stop offset="0.99" stop-color="#911209"/>
<stop offset="1" stop-color="#911209"/>
</linearGradient>
<linearGradient id="paint2_linear_1385_11198" x1="17.3222" y1="24.0454" x2="11.8754" y2="20.4004" gradientUnits="userSpaceOnUse">
<stop stop-color="#871101"/>
<stop offset="0.99" stop-color="#911209"/>
<stop offset="1" stop-color="#911209"/>
</linearGradient>
<linearGradient id="paint3_linear_1385_11198" x1="5.90527" y1="14.8955" x2="6.7528" y2="20.3884" gradientUnits="userSpaceOnUse">
<stop stop-color="white"/>
<stop offset="0.23" stop-color="#E57252"/>
<stop offset="0.46" stop-color="#DE3B20"/>
<stop offset="0.99" stop-color="#A60003"/>
<stop offset="1" stop-color="#A60003"/>
</linearGradient>
<linearGradient id="paint4_linear_1385_11198" x1="11.7046" y1="9.76576" x2="12.0169" y2="15.3722" gradientUnits="userSpaceOnUse">
<stop stop-color="white"/>
<stop offset="0.23" stop-color="#E4714E"/>
<stop offset="0.56" stop-color="#BE1A0D"/>
<stop offset="0.99" stop-color="#A80D00"/>
<stop offset="1" stop-color="#A80D00"/>
</linearGradient>
<linearGradient id="paint5_linear_1385_11198" x1="16.8492" y1="4.58352" x2="17.7839" y2="8.60051" gradientUnits="userSpaceOnUse">
<stop stop-color="white"/>
<stop offset="0.18" stop-color="#E46342"/>
<stop offset="0.4" stop-color="#C82410"/>
<stop offset="0.99" stop-color="#A80D00"/>
<stop offset="1" stop-color="#A80D00"/>
</linearGradient>
<linearGradient id="paint6_linear_1385_11198" x1="14.0096" y1="3.16838" x2="18.0207" y2="1.16837" gradientUnits="userSpaceOnUse">
<stop stop-color="white"/>
<stop offset="0.54" stop-color="#C81F11"/>
<stop offset="0.99" stop-color="#BF0905"/>
<stop offset="1" stop-color="#BF0905"/>
</linearGradient>
<linearGradient id="paint7_linear_1385_11198" x1="2.39401" y1="13.4942" x2="2.72561" y2="16.8049" gradientUnits="userSpaceOnUse">
<stop stop-color="white"/>
<stop offset="0.31" stop-color="#DE4024"/>
<stop offset="0.99" stop-color="#BF190B"/>
<stop offset="1" stop-color="#BF190B"/>
</linearGradient>
<linearGradient id="paint8_linear_1385_11198" x1="0.126472" y1="17.7005" x2="15.6728" y2="1.75894" gradientUnits="userSpaceOnUse">
<stop stop-color="#BD0012"/>
<stop offset="0.07" stop-color="white"/>
<stop offset="0.17" stop-color="white"/>
<stop offset="0.27" stop-color="#C82F1C"/>
<stop offset="0.33" stop-color="#820C01"/>
<stop offset="0.46" stop-color="#A31601"/>
<stop offset="0.72" stop-color="#B31301"/>
<stop offset="0.99" stop-color="#E82609"/>
<stop offset="1" stop-color="#E82609"/>
</linearGradient>
<linearGradient id="paint9_linear_1385_11198" x1="12.001" y1="19.3132" x2="7.33011" y2="18.1636" gradientUnits="userSpaceOnUse">
<stop stop-color="#8C0C01"/>
<stop offset="0.54" stop-color="#990C00"/>
<stop offset="0.99" stop-color="#A80D0E"/>
<stop offset="1" stop-color="#A80D0E"/>
</linearGradient>
<linearGradient id="paint10_linear_1385_11198" x1="20.0212" y1="13.6931" x2="15.8628" y2="9.97639" gradientUnits="userSpaceOnUse">
<stop stop-color="#7E110B"/>
<stop offset="0.99" stop-color="#9E0C00"/>
<stop offset="1" stop-color="#9E0C00"/>
</linearGradient>
<linearGradient id="paint11_linear_1385_11198" x1="21.5451" y1="6.85245" x2="19.4727" y2="4.64308" gradientUnits="userSpaceOnUse">
<stop stop-color="#79130D"/>
<stop offset="0.99" stop-color="#9E120B"/>
<stop offset="1" stop-color="#9E120B"/>
</linearGradient>
<radialGradient id="paint12_radial_1385_11198" cx="0" cy="0" r="1" gradientUnits="userSpaceOnUse" gradientTransform="translate(16.5178 10.0355) scale(5.08329 5.09744)">
<stop stop-color="#A80D00"/>
<stop offset="0.99" stop-color="#7E0E08"/>
<stop offset="1" stop-color="#7E0E08"/>
</radialGradient>
<radialGradient id="paint13_radial_1385_11198" cx="0" cy="0" r="1" gradientUnits="userSpaceOnUse" gradientTransform="translate(9.47928 16.754) scale(6.75755 6.77636)">
<stop stop-color="#A30C00"/>
<stop offset="0.99" stop-color="#800E08"/>
<stop offset="1" stop-color="#800E08"/>
</radialGradient>
<linearGradient id="paint14_linear_1385_11198" x1="4.6918" y1="21.9749" x2="2.99931" y2="16.2488" gradientUnits="userSpaceOnUse">
<stop stop-color="#8B2114"/>
<stop offset="0.43" stop-color="#9E100A"/>
<stop offset="0.99" stop-color="#B3100C"/>
<stop offset="1" stop-color="#B3100C"/>
</linearGradient>
<linearGradient id="paint15_linear_1385_11198" x1="17.6105" y1="2.99197" x2="21.3891" y2="4.65523" gradientUnits="userSpaceOnUse">
<stop stop-color="#B31000"/>
<stop offset="0.44" stop-color="#910F08"/>
<stop offset="0.99" stop-color="#791C12"/>
<stop offset="1" stop-color="#791C12"/>
</linearGradient>
</defs>
</svg>
