<svg width="358" height="152" viewBox="0 0 358 152" fill="none" xmlns="http://www.w3.org/2000/svg">
<rect width="88" height="88" rx="4" fill="#2C7493"/>
<path d="M26.368 51V37.914H30.76C32.38 37.914 33.568 38.196 34.324 38.76C35.092 39.324 35.476 40.212 35.476 41.424C35.476 42.012 35.314 42.54 34.99 43.008C34.678 43.464 34.24 43.824 33.676 44.088C35.248 44.556 36.034 45.6 36.034 47.22C36.034 49.74 34.324 51 30.904 51H26.368ZM28.528 43.458H30.346C31.39 43.458 32.134 43.314 32.578 43.026C33.022 42.738 33.244 42.252 33.244 41.568C33.244 40.86 33.028 40.368 32.596 40.092C32.164 39.804 31.414 39.66 30.346 39.66H28.528V43.458ZM28.528 49.236H30.688C31.78 49.236 32.566 49.074 33.046 48.75C33.526 48.426 33.766 47.904 33.766 47.184C33.766 46.476 33.52 45.96 33.028 45.636C32.548 45.312 31.768 45.15 30.688 45.15H28.528V49.236ZM37.8088 51V39.084L36.8548 38.382V37.482H40.0048V51H37.8088ZM42.4478 47.364V41.532H44.6438V47.292C44.6438 48.684 45.1958 49.38 46.2998 49.38C46.7918 49.38 47.2478 49.224 47.6678 48.912C48.0998 48.6 48.4238 48.18 48.6398 47.652V41.532H50.8358V51H49.3778L49.0358 49.47C48.6398 50.022 48.1538 50.448 47.5778 50.748C47.0138 51.048 46.3958 51.198 45.7238 51.198C44.6678 51.198 43.8578 50.868 43.2938 50.208C42.7298 49.548 42.4478 48.6 42.4478 47.364ZM60.8539 50.55C60.4579 50.754 59.9779 50.916 59.4139 51.036C58.8499 51.156 58.2499 51.216 57.6139 51.216C56.0539 51.216 54.8599 50.79 54.0319 49.938C53.2159 49.086 52.8079 47.844 52.8079 46.212C52.8079 44.652 53.1979 43.452 53.9779 42.612C54.7699 41.76 55.8799 41.334 57.3079 41.334C58.6279 41.334 59.6239 41.712 60.2959 42.468C60.9679 43.212 61.3039 44.28 61.3039 45.672V46.896H54.9859C55.0699 47.796 55.3399 48.45 55.7959 48.858C56.2639 49.266 56.9419 49.47 57.8299 49.47C58.3579 49.47 58.8559 49.422 59.3239 49.326C59.7919 49.218 60.3019 49.05 60.8539 48.822V50.55ZM57.2899 42.99C55.8499 42.99 55.0759 43.776 54.9679 45.348H59.2879C59.2759 43.776 58.6099 42.99 57.2899 42.99Z" fill="white"/>
<path d="M121.296 18V6.368H125.104C127.803 6.368 129.152 7.6 129.152 10.064C129.152 12.528 127.803 13.76 125.104 13.76H122.768V18H121.296ZM124.8 7.552H122.768V12.576H124.8C125.803 12.576 126.528 12.3733 126.976 11.968C127.435 11.5627 127.664 10.928 127.664 10.064C127.664 9.2 127.435 8.56533 126.976 8.16C126.528 7.75467 125.803 7.552 124.8 7.552ZM135.9 18L135.66 16.656C134.978 17.6693 134.05 18.176 132.876 18.176C132.034 18.176 131.356 17.9413 130.844 17.472C130.343 16.992 130.092 16.3573 130.092 15.568C130.092 14.6933 130.391 14.016 130.988 13.536C131.596 13.0453 132.439 12.8 133.516 12.8H135.436V12.272C135.436 11.6747 135.303 11.2533 135.036 11.008C134.78 10.7627 134.338 10.64 133.708 10.64C133.303 10.64 132.871 10.688 132.412 10.784C131.954 10.8693 131.436 11.0133 130.86 11.216V10.048C131.266 9.86667 131.73 9.728 132.252 9.632C132.775 9.52533 133.266 9.472 133.724 9.472C135.826 9.472 136.876 10.4053 136.876 12.272V18H135.9ZM133.052 17.024C133.543 17.024 134.002 16.8853 134.428 16.608C134.855 16.32 135.196 15.9307 135.452 15.44V13.856H133.66C132.935 13.856 132.396 13.9893 132.044 14.256C131.703 14.512 131.532 14.912 131.532 15.456C131.532 15.936 131.666 16.32 131.932 16.608C132.21 16.8853 132.583 17.024 133.052 17.024ZM139.2 18V9.648H140.176L140.432 11.072C140.784 10.56 141.216 10.1653 141.728 9.888C142.24 9.61067 142.816 9.472 143.456 9.472C144.416 9.472 145.152 9.76 145.664 10.336C146.176 10.912 146.432 11.744 146.432 12.832V18H144.992V12.88C144.992 11.4293 144.363 10.704 143.104 10.704C142.571 10.704 142.08 10.8693 141.632 11.2C141.195 11.52 140.864 11.9573 140.64 12.512V18H139.2ZM149.019 15.456V10.832H147.579V10.096L149.019 9.616L149.595 7.344H150.459V9.648H152.267V10.832H150.459V15.44C150.459 16.3573 150.854 16.816 151.643 16.816C151.771 16.816 151.894 16.8107 152.011 16.8C152.139 16.7787 152.256 16.7627 152.363 16.752V18C152.214 18.032 152.059 18.0533 151.899 18.064C151.75 18.0747 151.59 18.08 151.419 18.08C150.598 18.08 149.99 17.8667 149.595 17.44C149.211 17.0133 149.019 16.352 149.019 15.456ZM157.437 18.176C156.178 18.176 155.202 17.792 154.509 17.024C153.816 16.2453 153.469 15.1787 153.469 13.824C153.469 12.4587 153.816 11.392 154.509 10.624C155.202 9.856 156.178 9.472 157.437 9.472C158.706 9.472 159.688 9.856 160.381 10.624C161.074 11.392 161.421 12.4587 161.421 13.824C161.421 15.1787 161.074 16.2453 160.381 17.024C159.688 17.792 158.706 18.176 157.437 18.176ZM157.437 16.992C158.258 16.992 158.882 16.7253 159.309 16.192C159.736 15.648 159.949 14.8587 159.949 13.824C159.949 12.7893 159.736 12.0053 159.309 11.472C158.882 10.928 158.258 10.656 157.437 10.656C156.626 10.656 156.008 10.928 155.581 11.472C155.154 12.0053 154.941 12.7893 154.941 13.824C154.941 14.8587 155.154 15.648 155.581 16.192C156.008 16.7253 156.626 16.992 157.437 16.992ZM163.294 18V9.648H164.27L164.526 11.072C164.878 10.56 165.31 10.1653 165.822 9.888C166.334 9.61067 166.91 9.472 167.55 9.472C168.51 9.472 169.246 9.76 169.758 10.336C170.27 10.912 170.526 11.744 170.526 12.832V18H169.086V12.88C169.086 11.4293 168.456 10.704 167.198 10.704C166.664 10.704 166.174 10.8693 165.726 11.2C165.288 11.52 164.958 11.9573 164.734 12.512V18H163.294ZM179.145 17.584C178.846 17.7653 178.446 17.9093 177.945 18.016C177.454 18.1227 176.915 18.176 176.329 18.176C175.006 18.176 174.003 17.8027 173.321 17.056C172.649 16.2987 172.313 15.1947 172.313 13.744C172.313 12.3467 172.633 11.2853 173.273 10.56C173.923 9.83467 174.851 9.472 176.057 9.472C178.382 9.472 179.545 10.7573 179.545 13.328V14.256H173.769C173.833 15.1947 174.083 15.8827 174.521 16.32C174.958 16.7467 175.609 16.96 176.473 16.96C176.953 16.96 177.406 16.912 177.833 16.816C178.259 16.72 178.697 16.5707 179.145 16.368V17.584ZM176.057 10.656C175.353 10.656 174.803 10.8693 174.409 11.296C174.025 11.712 173.811 12.32 173.769 13.12H178.153C178.153 12.2453 177.987 11.616 177.657 11.232C177.337 10.848 176.803 10.656 176.057 10.656ZM193.63 16.16V17.44C193.203 17.6747 192.696 17.8613 192.11 18C191.534 18.128 190.947 18.192 190.35 18.192C188.622 18.192 187.283 17.664 186.334 16.608C185.395 15.5413 184.926 14.0267 184.926 12.064C184.926 10.8373 185.144 9.78667 185.582 8.912C186.03 8.03733 186.664 7.36533 187.486 6.896C188.307 6.416 189.283 6.176 190.414 6.176C190.915 6.176 191.422 6.24 191.934 6.368C192.456 6.496 192.883 6.672 193.214 6.896V8.176C192.659 7.93067 192.174 7.75467 191.758 7.648C191.342 7.54133 190.926 7.488 190.51 7.488C189.23 7.488 188.232 7.888 187.518 8.688C186.803 9.47733 186.446 10.6027 186.446 12.064C186.446 13.6107 186.798 14.8 187.502 15.632C188.216 16.464 189.219 16.88 190.51 16.88C191.47 16.88 192.51 16.64 193.63 16.16Z" fill="#003C4A"/>
<path d="M215.368 19V5.914H219.85C222.994 5.914 224.566 7.348 224.566 10.216C224.566 13.084 222.994 14.518 219.85 14.518H217.6V19H215.368ZM219.382 7.732H217.6V12.7H219.382C220.414 12.7 221.158 12.508 221.614 12.124C222.082 11.728 222.316 11.092 222.316 10.216C222.316 9.328 222.082 8.692 221.614 8.308C221.158 7.924 220.414 7.732 219.382 7.732ZM226.442 19V5.914H228.782L233.318 15.274L237.782 5.914H240.104V19H237.908V9.802L234.056 17.74H232.472L228.638 9.928V19H226.442ZM242.393 18.478V16.48C243.737 17.008 245.033 17.272 246.281 17.272C247.157 17.272 247.841 17.11 248.333 16.786C248.837 16.462 249.089 16.018 249.089 15.454C249.089 15.034 248.933 14.692 248.621 14.428C248.309 14.152 247.727 13.864 246.875 13.564L245.507 13.06C244.343 12.628 243.509 12.124 243.005 11.548C242.513 10.96 242.267 10.246 242.267 9.406C242.267 8.254 242.699 7.348 243.563 6.688C244.427 6.016 245.603 5.68 247.091 5.68C247.715 5.68 248.339 5.746 248.963 5.878C249.599 6.01 250.151 6.19 250.619 6.418V8.416C249.383 7.9 248.213 7.642 247.109 7.642C245.393 7.642 244.535 8.194 244.535 9.298C244.535 9.694 244.691 10.018 245.003 10.27C245.315 10.522 245.885 10.804 246.713 11.116L248.099 11.62C249.311 12.064 250.157 12.574 250.637 13.15C251.129 13.726 251.375 14.47 251.375 15.382C251.375 16.582 250.949 17.524 250.097 18.208C249.245 18.892 248.051 19.234 246.515 19.234C246.023 19.234 245.513 19.198 244.985 19.126C244.469 19.066 243.983 18.982 243.527 18.874C243.071 18.754 242.693 18.622 242.393 18.478ZM266.37 14.644C266.37 15.556 266.178 16.36 265.794 17.056C265.41 17.74 264.87 18.274 264.174 18.658C263.49 19.042 262.68 19.234 261.744 19.234C260.316 19.234 259.194 18.82 258.378 17.992C257.562 17.164 257.154 16.018 257.154 14.554C257.154 12.97 257.862 11.194 259.278 9.226L261.528 6.094H263.922L261.42 9.55C261.048 10.066 260.742 10.516 260.502 10.9C261.09 10.504 261.762 10.306 262.518 10.306C263.298 10.306 263.976 10.486 264.552 10.846C265.128 11.194 265.572 11.692 265.884 12.34C266.208 12.988 266.37 13.756 266.37 14.644ZM259.242 14.644C259.242 15.52 259.464 16.204 259.908 16.696C260.352 17.176 260.964 17.416 261.744 17.416C262.524 17.416 263.136 17.17 263.58 16.678C264.036 16.186 264.264 15.52 264.264 14.68C264.264 13.864 264.054 13.21 263.634 12.718C263.226 12.214 262.68 11.962 261.996 11.962C260.784 11.962 259.884 12.556 259.296 13.744C259.26 14.02 259.242 14.32 259.242 14.644ZM267.642 18.424V16.516C268.146 16.78 268.704 16.984 269.316 17.128C269.928 17.272 270.54 17.344 271.152 17.344C272.1 17.344 272.832 17.128 273.348 16.696C273.864 16.264 274.122 15.664 274.122 14.896C274.122 14.224 273.918 13.69 273.51 13.294C273.102 12.898 272.52 12.7 271.764 12.7C271.416 12.7 271.086 12.73 270.774 12.79C270.462 12.85 270.144 12.94 269.82 13.06L269.082 11.836L272.79 7.93H267.822V6.094H275.634V7.534L272.142 11.17C273.414 11.206 274.404 11.566 275.112 12.25C275.82 12.922 276.174 13.81 276.174 14.914C276.174 16.258 275.736 17.314 274.86 18.082C273.996 18.85 272.796 19.234 271.26 19.234C270.576 19.234 269.922 19.162 269.298 19.018C268.674 18.886 268.122 18.688 267.642 18.424ZM277.345 18.424V16.516C277.849 16.78 278.407 16.984 279.019 17.128C279.631 17.272 280.243 17.344 280.855 17.344C281.803 17.344 282.535 17.128 283.051 16.696C283.567 16.264 283.825 15.664 283.825 14.896C283.825 14.224 283.621 13.69 283.213 13.294C282.805 12.898 282.223 12.7 281.467 12.7C281.119 12.7 280.789 12.73 280.477 12.79C280.165 12.85 279.847 12.94 279.523 13.06L278.785 11.836L282.493 7.93H277.525V6.094H285.337V7.534L281.845 11.17C283.117 11.206 284.107 11.566 284.815 12.25C285.523 12.922 285.877 13.81 285.877 14.914C285.877 16.258 285.439 17.314 284.563 18.082C283.699 18.85 282.499 19.234 280.963 19.234C280.279 19.234 279.625 19.162 279.001 19.018C278.377 18.886 277.825 18.688 277.345 18.424ZM301.634 16.516V18.424C301.13 18.688 300.566 18.886 299.942 19.018C299.318 19.162 298.652 19.234 297.944 19.234C295.928 19.234 294.38 18.64 293.3 17.452C292.232 16.264 291.698 14.548 291.698 12.304C291.698 10.924 291.95 9.742 292.454 8.758C292.97 7.774 293.702 7.018 294.65 6.49C295.61 5.95 296.744 5.68 298.052 5.68C298.628 5.68 299.198 5.746 299.762 5.878C300.326 6.01 300.812 6.196 301.22 6.436V8.326C300.596 8.074 300.05 7.894 299.582 7.786C299.114 7.678 298.652 7.624 298.196 7.624C296.852 7.624 295.814 8.038 295.082 8.866C294.35 9.682 293.984 10.828 293.984 12.304C293.984 13.9 294.344 15.13 295.064 15.994C295.796 16.846 296.84 17.272 298.196 17.272C298.724 17.272 299.258 17.212 299.798 17.092C300.35 16.972 300.962 16.78 301.634 16.516Z" fill="#003C4A"/>
<path d="M215.368 51V37.914H219.85C222.994 37.914 224.566 39.348 224.566 42.216C224.566 45.084 222.994 46.518 219.85 46.518H217.6V51H215.368ZM219.382 39.732H217.6V44.7H219.382C220.414 44.7 221.158 44.508 221.614 44.124C222.082 43.728 222.316 43.092 222.316 42.216C222.316 41.328 222.082 40.692 221.614 40.308C221.158 39.924 220.414 39.732 219.382 39.732ZM226.442 51V37.914H228.782L233.318 47.274L237.782 37.914H240.104V51H237.908V41.802L234.056 49.74H232.472L228.638 41.928V51H226.442ZM242.393 50.478V48.48C243.737 49.008 245.033 49.272 246.281 49.272C247.157 49.272 247.841 49.11 248.333 48.786C248.837 48.462 249.089 48.018 249.089 47.454C249.089 47.034 248.933 46.692 248.621 46.428C248.309 46.152 247.727 45.864 246.875 45.564L245.507 45.06C244.343 44.628 243.509 44.124 243.005 43.548C242.513 42.96 242.267 42.246 242.267 41.406C242.267 40.254 242.699 39.348 243.563 38.688C244.427 38.016 245.603 37.68 247.091 37.68C247.715 37.68 248.339 37.746 248.963 37.878C249.599 38.01 250.151 38.19 250.619 38.418V40.416C249.383 39.9 248.213 39.642 247.109 39.642C245.393 39.642 244.535 40.194 244.535 41.298C244.535 41.694 244.691 42.018 245.003 42.27C245.315 42.522 245.885 42.804 246.713 43.116L248.099 43.62C249.311 44.064 250.157 44.574 250.637 45.15C251.129 45.726 251.375 46.47 251.375 47.382C251.375 48.582 250.949 49.524 250.097 50.208C249.245 50.892 248.051 51.234 246.515 51.234C246.023 51.234 245.513 51.198 244.985 51.126C244.469 51.066 243.983 50.982 243.527 50.874C243.071 50.754 242.693 50.622 242.393 50.478ZM256.866 50.424V48.516C257.37 48.78 257.928 48.984 258.54 49.128C259.152 49.272 259.764 49.344 260.376 49.344C261.324 49.344 262.056 49.128 262.572 48.696C263.088 48.264 263.346 47.664 263.346 46.896C263.346 46.224 263.142 45.69 262.734 45.294C262.326 44.898 261.744 44.7 260.988 44.7C260.64 44.7 260.31 44.73 259.998 44.79C259.686 44.85 259.368 44.94 259.044 45.06L258.306 43.836L262.014 39.93H257.046V38.094H264.858V39.534L261.366 43.17C262.638 43.206 263.628 43.566 264.336 44.25C265.044 44.922 265.398 45.81 265.398 46.914C265.398 48.258 264.96 49.314 264.084 50.082C263.22 50.85 262.02 51.234 260.484 51.234C259.8 51.234 259.146 51.162 258.522 51.018C257.898 50.886 257.346 50.688 256.866 50.424ZM269.364 51V40.83L266.358 42.018V40.686L269.994 38.094H271.596V51H269.364ZM273.461 48.282V46.59L279.923 38.094H281.903V46.41H283.667V48.282H281.903V51H279.761V48.282H273.461ZM279.815 46.194V41.154L275.855 46.41H279.797L279.815 46.194ZM289.684 44.952V37.914H291.934V44.916C291.934 46.428 292.168 47.532 292.636 48.228C293.116 48.924 293.884 49.272 294.94 49.272C295.996 49.272 296.758 48.924 297.226 48.228C297.706 47.532 297.946 46.428 297.946 44.916V37.914H300.196V44.952C300.196 47.1 299.764 48.684 298.9 49.704C298.048 50.724 296.728 51.234 294.94 51.234C293.164 51.234 291.844 50.724 290.98 49.704C290.116 48.684 289.684 47.1 289.684 44.952Z" fill="#003C4A"/>
<path d="M224.818 80.516V82.424C224.314 82.688 223.75 82.886 223.126 83.018C222.502 83.162 221.836 83.234 221.128 83.234C219.112 83.234 217.564 82.64 216.484 81.452C215.416 80.264 214.882 78.548 214.882 76.304C214.882 74.924 215.134 73.742 215.638 72.758C216.154 71.774 216.886 71.018 217.834 70.49C218.794 69.95 219.928 69.68 221.236 69.68C221.812 69.68 222.382 69.746 222.946 69.878C223.51 70.01 223.996 70.196 224.404 70.436V72.326C223.78 72.074 223.234 71.894 222.766 71.786C222.298 71.678 221.836 71.624 221.38 71.624C220.036 71.624 218.998 72.038 218.266 72.866C217.534 73.682 217.168 74.828 217.168 76.304C217.168 77.9 217.528 79.13 218.248 79.994C218.98 80.846 220.024 81.272 221.38 81.272C221.908 81.272 222.442 81.212 222.982 81.092C223.534 80.972 224.146 80.78 224.818 80.516ZM228.846 83V72.83L225.84 74.018V72.686L229.476 70.094H231.078V83H228.846ZM238.199 83.234C236.591 83.234 235.367 82.664 234.527 81.524C233.699 80.384 233.285 78.71 233.285 76.502C233.285 72.074 234.923 69.86 238.199 69.86C241.475 69.86 243.113 72.074 243.113 76.502C243.113 78.71 242.693 80.384 241.853 81.524C241.025 82.664 239.807 83.234 238.199 83.234ZM238.199 81.38C239.111 81.38 239.783 80.978 240.215 80.174C240.659 79.37 240.881 78.146 240.881 76.502C240.881 74.858 240.665 73.652 240.233 72.884C239.801 72.104 239.123 71.714 238.199 71.714C237.287 71.714 236.609 72.104 236.165 72.884C235.733 73.652 235.517 74.858 235.517 76.502C235.517 78.146 235.733 79.37 236.165 80.174C236.609 80.978 237.287 81.38 238.199 81.38ZM249.713 83.234C248.105 83.234 246.881 82.664 246.041 81.524C245.213 80.384 244.799 78.71 244.799 76.502C244.799 72.074 246.437 69.86 249.713 69.86C252.989 69.86 254.627 72.074 254.627 76.502C254.627 78.71 254.207 80.384 253.367 81.524C252.539 82.664 251.321 83.234 249.713 83.234ZM249.713 81.38C250.625 81.38 251.297 80.978 251.729 80.174C252.173 79.37 252.395 78.146 252.395 76.502C252.395 74.858 252.179 73.652 251.747 72.884C251.315 72.104 250.637 71.714 249.713 71.714C248.801 71.714 248.123 72.104 247.679 72.884C247.247 73.652 247.031 74.858 247.031 76.502C247.031 78.146 247.247 79.37 247.679 80.174C248.123 80.978 248.801 81.38 249.713 81.38ZM261.247 83V69.914H263.587L268.123 79.274L272.587 69.914H274.909V83H272.713V73.802L268.861 81.74H267.277L263.443 73.928V83H261.247ZM277.125 82.424V80.516C277.653 80.78 278.223 80.984 278.835 81.128C279.459 81.272 280.077 81.344 280.689 81.344C281.565 81.344 282.249 81.128 282.741 80.696C283.245 80.252 283.497 79.652 283.497 78.896C283.497 78.176 283.281 77.618 282.849 77.222C282.417 76.826 281.829 76.628 281.085 76.628C280.641 76.628 280.185 76.682 279.717 76.79C279.261 76.898 278.853 77.048 278.493 77.24L277.197 76.232L277.953 70.094H284.793V71.93H279.555L279.141 75.332C279.837 75.044 280.563 74.9 281.319 74.9C282.627 74.9 283.659 75.26 284.415 75.98C285.171 76.688 285.549 77.666 285.549 78.914C285.549 79.79 285.351 80.552 284.955 81.2C284.571 81.848 284.025 82.352 283.317 82.712C282.621 83.06 281.793 83.234 280.833 83.234C280.125 83.234 279.447 83.156 278.799 83C278.151 82.856 277.593 82.664 277.125 82.424ZM295.463 83V77.888L290.801 69.914H293.339L296.633 75.872L299.909 69.914H302.357L297.713 77.888V83H295.463ZM305.874 83V72.83L302.868 74.018V72.686L306.504 70.094H308.106V83H305.874ZM315.227 83.234C313.619 83.234 312.395 82.664 311.555 81.524C310.727 80.384 310.313 78.71 310.313 76.502C310.313 72.074 311.951 69.86 315.227 69.86C318.503 69.86 320.141 72.074 320.141 76.502C320.141 78.71 319.721 80.384 318.881 81.524C318.053 82.664 316.835 83.234 315.227 83.234ZM315.227 81.38C316.139 81.38 316.811 80.978 317.243 80.174C317.687 79.37 317.909 78.146 317.909 76.502C317.909 74.858 317.693 73.652 317.261 72.884C316.829 72.104 316.151 71.714 315.227 71.714C314.315 71.714 313.637 72.104 313.193 72.884C312.761 73.652 312.545 74.858 312.545 76.502C312.545 78.146 312.761 79.37 313.193 80.174C313.637 80.978 314.315 81.38 315.227 81.38ZM326.761 83V69.914H329.011V75.674L334.195 69.914H336.859L331.405 75.8L337.309 83H334.645L329.983 77.258H329.011V83H326.761ZM337.849 82.424V80.516C338.353 80.78 338.911 80.984 339.523 81.128C340.135 81.272 340.747 81.344 341.359 81.344C342.307 81.344 343.039 81.128 343.555 80.696C344.071 80.264 344.329 79.664 344.329 78.896C344.329 78.224 344.125 77.69 343.717 77.294C343.309 76.898 342.727 76.7 341.971 76.7C341.623 76.7 341.293 76.73 340.981 76.79C340.669 76.85 340.351 76.94 340.027 77.06L339.289 75.836L342.997 71.93H338.029V70.094H345.841V71.534L342.349 75.17C343.621 75.206 344.611 75.566 345.319 76.25C346.027 76.922 346.381 77.81 346.381 78.914C346.381 80.258 345.943 81.314 345.067 82.082C344.203 82.85 343.003 83.234 341.467 83.234C340.783 83.234 340.129 83.162 339.505 83.018C338.881 82.886 338.329 82.688 337.849 82.424ZM356.88 78.644C356.88 79.556 356.688 80.36 356.304 81.056C355.92 81.74 355.38 82.274 354.684 82.658C354 83.042 353.19 83.234 352.254 83.234C350.826 83.234 349.704 82.82 348.888 81.992C348.072 81.164 347.664 80.018 347.664 78.554C347.664 76.97 348.372 75.194 349.788 73.226L352.038 70.094H354.432L351.93 73.55C351.558 74.066 351.252 74.516 351.012 74.9C351.6 74.504 352.272 74.306 353.028 74.306C353.808 74.306 354.486 74.486 355.062 74.846C355.638 75.194 356.082 75.692 356.394 76.34C356.718 76.988 356.88 77.756 356.88 78.644ZM349.752 78.644C349.752 79.52 349.974 80.204 350.418 80.696C350.862 81.176 351.474 81.416 352.254 81.416C353.034 81.416 353.646 81.17 354.09 80.678C354.546 80.186 354.774 79.52 354.774 78.68C354.774 77.864 354.564 77.21 354.144 76.718C353.736 76.214 353.19 75.962 352.506 75.962C351.294 75.962 350.394 76.556 349.806 77.744C349.77 78.02 349.752 78.32 349.752 78.644Z" fill="#003C4A"/>
<path d="M215.368 115V101.914H220.102C221.638 101.914 222.808 102.256 223.612 102.94C224.416 103.624 224.818 104.614 224.818 105.91C224.818 106.87 224.566 107.668 224.062 108.304C223.57 108.94 222.856 109.384 221.92 109.636L225.376 115H222.874L219.814 110.068L217.6 109.618V115H215.368ZM217.6 108.142H219.274C220.102 108.142 220.756 108.07 221.236 107.926C221.716 107.782 222.058 107.554 222.262 107.242C222.466 106.918 222.568 106.486 222.568 105.946C222.568 105.394 222.466 104.956 222.262 104.632C222.058 104.308 221.716 104.08 221.236 103.948C220.756 103.804 220.102 103.732 219.274 103.732H217.6V108.142ZM231.326 115.234C229.718 115.234 228.494 114.664 227.654 113.524C226.826 112.384 226.412 110.71 226.412 108.502C226.412 104.074 228.05 101.86 231.326 101.86C234.602 101.86 236.24 104.074 236.24 108.502C236.24 110.71 235.82 112.384 234.98 113.524C234.152 114.664 232.934 115.234 231.326 115.234ZM231.326 113.38C232.238 113.38 232.91 112.978 233.342 112.174C233.786 111.37 234.008 110.146 234.008 108.502C234.008 106.858 233.792 105.652 233.36 104.884C232.928 104.104 232.25 103.714 231.326 103.714C230.414 103.714 229.736 104.104 229.292 104.884C228.86 105.652 228.644 106.858 228.644 108.502C228.644 110.146 228.86 111.37 229.292 112.174C229.736 112.978 230.414 113.38 231.326 113.38ZM248.602 109.384V108.088H253.21V114.352C252.622 114.64 251.956 114.856 251.212 115C250.468 115.156 249.706 115.234 248.926 115.234C246.778 115.234 245.146 114.652 244.03 113.488C242.926 112.312 242.374 110.584 242.374 108.304C242.374 106.912 242.644 105.724 243.184 104.74C243.724 103.756 244.498 103 245.506 102.472C246.526 101.944 247.75 101.68 249.178 101.68C249.766 101.68 250.33 101.734 250.87 101.842C251.422 101.938 251.926 102.088 252.382 102.292V104.2C251.782 103.996 251.236 103.852 250.744 103.768C250.252 103.672 249.76 103.624 249.268 103.624C247.792 103.624 246.652 104.032 245.848 104.848C245.056 105.652 244.66 106.804 244.66 108.304C244.66 111.616 246.1 113.272 248.98 113.272C249.676 113.272 250.378 113.2 251.086 113.056V110.05L248.602 109.384ZM257.534 115V104.83L254.528 106.018V104.686L258.164 102.094H259.766V115H257.534ZM264.565 115V104.83L261.559 106.018V104.686L265.195 102.094H266.797V115H264.565ZM270.642 115L275.412 103.948H270.714L270.066 105.982H268.752V102.094H277.716V103.57L273.054 115H270.642ZM283.905 115V101.914H288.297C289.917 101.914 291.105 102.196 291.861 102.76C292.629 103.324 293.013 104.212 293.013 105.424C293.013 106.012 292.851 106.54 292.527 107.008C292.215 107.464 291.777 107.824 291.213 108.088C292.785 108.556 293.571 109.6 293.571 111.22C293.571 113.74 291.861 115 288.441 115H283.905ZM286.065 107.458H287.883C288.927 107.458 289.671 107.314 290.115 107.026C290.559 106.738 290.781 106.252 290.781 105.568C290.781 104.86 290.565 104.368 290.133 104.092C289.701 103.804 288.951 103.66 287.883 103.66H286.065V107.458ZM286.065 113.236H288.225C289.317 113.236 290.103 113.074 290.583 112.75C291.063 112.426 291.303 111.904 291.303 111.184C291.303 110.476 291.057 109.96 290.565 109.636C290.085 109.312 289.305 109.15 288.225 109.15H286.065V113.236ZM297.524 115V104.83L294.518 106.018V104.686L298.154 102.094H299.756V115H297.524ZM301.621 112.282V110.59L308.083 102.094H310.063V110.41H311.827V112.282H310.063V115H307.921V112.282H301.621ZM307.975 110.194V105.154L304.015 110.41H307.957L307.975 110.194ZM312.712 114.424V112.516C313.216 112.78 313.774 112.984 314.386 113.128C314.998 113.272 315.61 113.344 316.222 113.344C317.17 113.344 317.902 113.128 318.418 112.696C318.934 112.264 319.192 111.664 319.192 110.896C319.192 110.224 318.988 109.69 318.58 109.294C318.172 108.898 317.59 108.7 316.834 108.7C316.486 108.7 316.156 108.73 315.844 108.79C315.532 108.85 315.214 108.94 314.89 109.06L314.152 107.836L317.86 103.93H312.892V102.094H320.704V103.534L317.212 107.17C318.484 107.206 319.474 107.566 320.182 108.25C320.89 108.922 321.244 109.81 321.244 110.914C321.244 112.258 320.806 113.314 319.93 114.082C319.066 114.85 317.866 115.234 316.33 115.234C315.646 115.234 314.992 115.162 314.368 115.018C313.744 114.886 313.192 114.688 312.712 114.424Z" fill="#003C4A"/>
<path d="M219.76 147.234C218.152 147.234 216.928 146.664 216.088 145.524C215.26 144.384 214.846 142.71 214.846 140.502C214.846 136.074 216.484 133.86 219.76 133.86C223.036 133.86 224.674 136.074 224.674 140.502C224.674 142.71 224.254 144.384 223.414 145.524C222.586 146.664 221.368 147.234 219.76 147.234ZM219.76 145.38C220.672 145.38 221.344 144.978 221.776 144.174C222.22 143.37 222.442 142.146 222.442 140.502C222.442 138.858 222.226 137.652 221.794 136.884C221.362 136.104 220.684 135.714 219.76 135.714C218.848 135.714 218.17 136.104 217.726 136.884C217.294 137.652 217.078 138.858 217.078 140.502C217.078 142.146 217.294 143.37 217.726 144.174C218.17 144.978 218.848 145.38 219.76 145.38ZM231.274 147.234C229.666 147.234 228.442 146.664 227.602 145.524C226.774 144.384 226.36 142.71 226.36 140.502C226.36 136.074 227.998 133.86 231.274 133.86C234.55 133.86 236.188 136.074 236.188 140.502C236.188 142.71 235.768 144.384 234.928 145.524C234.1 146.664 232.882 147.234 231.274 147.234ZM231.274 145.38C232.186 145.38 232.858 144.978 233.29 144.174C233.734 143.37 233.956 142.146 233.956 140.502C233.956 138.858 233.74 137.652 233.308 136.884C232.876 136.104 232.198 135.714 231.274 135.714C230.362 135.714 229.684 136.104 229.24 136.884C228.808 137.652 228.592 138.858 228.592 140.502C228.592 142.146 228.808 143.37 229.24 144.174C229.684 144.978 230.362 145.38 231.274 145.38ZM239.336 147L244.106 135.948H239.408L238.76 137.982H237.446V134.094H246.41V135.57L241.748 147H239.336ZM247.664 146.424V144.516C248.192 144.78 248.762 144.984 249.374 145.128C249.998 145.272 250.616 145.344 251.228 145.344C252.104 145.344 252.788 145.128 253.28 144.696C253.784 144.252 254.036 143.652 254.036 142.896C254.036 142.176 253.82 141.618 253.388 141.222C252.956 140.826 252.368 140.628 251.624 140.628C251.18 140.628 250.724 140.682 250.256 140.79C249.8 140.898 249.392 141.048 249.032 141.24L247.736 140.232L248.492 134.094H255.332V135.93H250.094L249.68 139.332C250.376 139.044 251.102 138.9 251.858 138.9C253.166 138.9 254.198 139.26 254.954 139.98C255.71 140.688 256.088 141.666 256.088 142.914C256.088 143.79 255.89 144.552 255.494 145.2C255.11 145.848 254.564 146.352 253.856 146.712C253.16 147.06 252.332 147.234 251.372 147.234C250.664 147.234 249.986 147.156 249.338 147C248.69 146.856 248.132 146.664 247.664 146.424ZM266.971 143.4C266.971 144.6 266.551 145.542 265.711 146.226C264.883 146.898 263.725 147.234 262.237 147.234C260.749 147.234 259.585 146.898 258.745 146.226C257.917 145.542 257.503 144.6 257.503 143.4C257.503 142.644 257.719 141.978 258.151 141.402C258.583 140.826 259.165 140.4 259.897 140.124C258.529 139.476 257.845 138.522 257.845 137.262C257.845 136.182 258.229 135.348 258.997 134.76C259.765 134.16 260.845 133.86 262.237 133.86C263.629 133.86 264.709 134.16 265.477 134.76C266.245 135.348 266.629 136.182 266.629 137.262C266.629 138.522 265.945 139.476 264.577 140.124C265.309 140.4 265.891 140.826 266.323 141.402C266.755 141.978 266.971 142.644 266.971 143.4ZM262.237 139.404C263.761 139.068 264.523 138.396 264.523 137.388C264.523 136.212 263.761 135.624 262.237 135.624C260.713 135.624 259.951 136.212 259.951 137.388C259.951 138.396 260.713 139.068 262.237 139.404ZM262.237 140.862C260.497 141.15 259.627 141.954 259.627 143.274C259.627 143.97 259.855 144.51 260.311 144.894C260.767 145.278 261.409 145.47 262.237 145.47C263.065 145.47 263.707 145.278 264.163 144.894C264.619 144.51 264.847 143.97 264.847 143.274C264.847 141.954 263.977 141.15 262.237 140.862ZM268.981 147V133.914H277.117V135.822H271.231V139.746H276.487V141.654H271.231V147H268.981Z" fill="#003C4A"/>
<path d="M121.296 50V38.368H125.104C127.803 38.368 129.152 39.6 129.152 42.064C129.152 44.528 127.803 45.76 125.104 45.76H122.768V50H121.296ZM124.8 39.552H122.768V44.576H124.8C125.803 44.576 126.528 44.3733 126.976 43.968C127.435 43.5627 127.664 42.928 127.664 42.064C127.664 41.2 127.435 40.5653 126.976 40.16C126.528 39.7547 125.803 39.552 124.8 39.552ZM135.9 50L135.66 48.656C134.978 49.6693 134.05 50.176 132.876 50.176C132.034 50.176 131.356 49.9413 130.844 49.472C130.343 48.992 130.092 48.3573 130.092 47.568C130.092 46.6933 130.391 46.016 130.988 45.536C131.596 45.0453 132.439 44.8 133.516 44.8H135.436V44.272C135.436 43.6747 135.303 43.2533 135.036 43.008C134.78 42.7627 134.338 42.64 133.708 42.64C133.303 42.64 132.871 42.688 132.412 42.784C131.954 42.8693 131.436 43.0133 130.86 43.216V42.048C131.266 41.8667 131.73 41.728 132.252 41.632C132.775 41.5253 133.266 41.472 133.724 41.472C135.826 41.472 136.876 42.4053 136.876 44.272V50H135.9ZM133.052 49.024C133.543 49.024 134.002 48.8853 134.428 48.608C134.855 48.32 135.196 47.9307 135.452 47.44V45.856H133.66C132.935 45.856 132.396 45.9893 132.044 46.256C131.703 46.512 131.532 46.912 131.532 47.456C131.532 47.936 131.666 48.32 131.932 48.608C132.21 48.8853 132.583 49.024 133.052 49.024ZM139.2 50V41.648H140.176L140.432 43.072C140.784 42.56 141.216 42.1653 141.728 41.888C142.24 41.6107 142.816 41.472 143.456 41.472C144.416 41.472 145.152 41.76 145.664 42.336C146.176 42.912 146.432 43.744 146.432 44.832V50H144.992V44.88C144.992 43.4293 144.363 42.704 143.104 42.704C142.571 42.704 142.08 42.8693 141.632 43.2C141.195 43.52 140.864 43.9573 140.64 44.512V50H139.2ZM149.019 47.456V42.832H147.579V42.096L149.019 41.616L149.595 39.344H150.459V41.648H152.267V42.832H150.459V47.44C150.459 48.3573 150.854 48.816 151.643 48.816C151.771 48.816 151.894 48.8107 152.011 48.8C152.139 48.7787 152.256 48.7627 152.363 48.752V50C152.214 50.032 152.059 50.0533 151.899 50.064C151.75 50.0747 151.59 50.08 151.419 50.08C150.598 50.08 149.99 49.8667 149.595 49.44C149.211 49.0133 149.019 48.352 149.019 47.456ZM157.437 50.176C156.178 50.176 155.202 49.792 154.509 49.024C153.816 48.2453 153.469 47.1787 153.469 45.824C153.469 44.4587 153.816 43.392 154.509 42.624C155.202 41.856 156.178 41.472 157.437 41.472C158.706 41.472 159.688 41.856 160.381 42.624C161.074 43.392 161.421 44.4587 161.421 45.824C161.421 47.1787 161.074 48.2453 160.381 49.024C159.688 49.792 158.706 50.176 157.437 50.176ZM157.437 48.992C158.258 48.992 158.882 48.7253 159.309 48.192C159.736 47.648 159.949 46.8587 159.949 45.824C159.949 44.7893 159.736 44.0053 159.309 43.472C158.882 42.928 158.258 42.656 157.437 42.656C156.626 42.656 156.008 42.928 155.581 43.472C155.154 44.0053 154.941 44.7893 154.941 45.824C154.941 46.8587 155.154 47.648 155.581 48.192C156.008 48.7253 156.626 48.992 157.437 48.992ZM163.294 50V41.648H164.27L164.526 43.072C164.878 42.56 165.31 42.1653 165.822 41.888C166.334 41.6107 166.91 41.472 167.55 41.472C168.51 41.472 169.246 41.76 169.758 42.336C170.27 42.912 170.526 43.744 170.526 44.832V50H169.086V44.88C169.086 43.4293 168.456 42.704 167.198 42.704C166.664 42.704 166.174 42.8693 165.726 43.2C165.288 43.52 164.958 43.9573 164.734 44.512V50H163.294ZM179.145 49.584C178.846 49.7653 178.446 49.9093 177.945 50.016C177.454 50.1227 176.915 50.176 176.329 50.176C175.006 50.176 174.003 49.8027 173.321 49.056C172.649 48.2987 172.313 47.1947 172.313 45.744C172.313 44.3467 172.633 43.2853 173.273 42.56C173.923 41.8347 174.851 41.472 176.057 41.472C178.382 41.472 179.545 42.7573 179.545 45.328V46.256H173.769C173.833 47.1947 174.083 47.8827 174.521 48.32C174.958 48.7467 175.609 48.96 176.473 48.96C176.953 48.96 177.406 48.912 177.833 48.816C178.259 48.72 178.697 48.5707 179.145 48.368V49.584ZM176.057 42.656C175.353 42.656 174.803 42.8693 174.409 43.296C174.025 43.712 173.811 44.32 173.769 45.12H178.153C178.153 44.2453 177.987 43.616 177.657 43.232C177.337 42.848 176.803 42.656 176.057 42.656ZM185.23 44.752V38.368H186.718V44.736C186.718 46.1547 186.958 47.2053 187.438 47.888C187.918 48.56 188.686 48.896 189.742 48.896C190.787 48.896 191.55 48.56 192.03 47.888C192.52 47.2053 192.766 46.1547 192.766 44.736V38.368H194.254V44.752C194.254 46.6187 193.875 47.9947 193.118 48.88C192.371 49.7547 191.246 50.192 189.742 50.192C188.227 50.192 187.096 49.7547 186.35 48.88C185.603 47.9947 185.23 46.6187 185.23 44.752Z" fill="#003C4A"/>
<path d="M121.296 82V70.368H125.104C127.803 70.368 129.152 71.6 129.152 74.064C129.152 76.528 127.803 77.76 125.104 77.76H122.768V82H121.296ZM124.8 71.552H122.768V76.576H124.8C125.803 76.576 126.528 76.3733 126.976 75.968C127.435 75.5627 127.664 74.928 127.664 74.064C127.664 73.2 127.435 72.5653 126.976 72.16C126.528 71.7547 125.803 71.552 124.8 71.552ZM130.841 82V73.648H131.817L132.105 75.216C132.649 74.16 133.427 73.632 134.441 73.632C134.654 73.632 134.841 73.648 135.001 73.68V74.944H134.633C134.025 74.944 133.518 75.1147 133.113 75.456C132.707 75.7973 132.43 76.2933 132.281 76.944V82H130.841ZM139.89 82.176C138.631 82.176 137.655 81.792 136.962 81.024C136.269 80.2453 135.922 79.1787 135.922 77.824C135.922 76.4587 136.269 75.392 136.962 74.624C137.655 73.856 138.631 73.472 139.89 73.472C141.159 73.472 142.141 73.856 142.834 74.624C143.527 75.392 143.874 76.4587 143.874 77.824C143.874 79.1787 143.527 80.2453 142.834 81.024C142.141 81.792 141.159 82.176 139.89 82.176ZM139.89 80.992C140.711 80.992 141.335 80.7253 141.762 80.192C142.189 79.648 142.402 78.8587 142.402 77.824C142.402 76.7893 142.189 76.0053 141.762 75.472C141.335 74.928 140.711 74.656 139.89 74.656C139.079 74.656 138.461 74.928 138.034 75.472C137.607 76.0053 137.394 76.7893 137.394 77.824C137.394 78.8587 137.607 79.648 138.034 80.192C138.461 80.7253 139.079 80.992 139.89 80.992ZM151.635 80.4V81.584C150.974 81.9787 150.136 82.176 149.123 82.176C147.832 82.176 146.856 81.8027 146.195 81.056C145.544 80.2987 145.219 79.1893 145.219 77.728C145.219 76.3733 145.566 75.328 146.259 74.592C146.952 73.8453 147.934 73.472 149.203 73.472C149.992 73.472 150.723 73.648 151.395 74V75.184C150.691 74.832 150.035 74.656 149.427 74.656C147.603 74.656 146.691 75.68 146.691 77.728C146.691 78.8373 146.899 79.6587 147.315 80.192C147.742 80.7253 148.408 80.992 149.315 80.992C149.678 80.992 150.046 80.944 150.419 80.848C150.792 80.752 151.198 80.6027 151.635 80.4ZM159.692 81.584C159.393 81.7653 158.993 81.9093 158.492 82.016C158.001 82.1227 157.462 82.176 156.876 82.176C155.553 82.176 154.55 81.8027 153.868 81.056C153.196 80.2987 152.86 79.1947 152.86 77.744C152.86 76.3467 153.18 75.2853 153.82 74.56C154.47 73.8347 155.398 73.472 156.604 73.472C158.929 73.472 160.092 74.7573 160.092 77.328V78.256H154.316C154.38 79.1947 154.63 79.8827 155.068 80.32C155.505 80.7467 156.156 80.96 157.02 80.96C157.5 80.96 157.953 80.912 158.38 80.816C158.806 80.72 159.244 80.5707 159.692 80.368V81.584ZM156.604 74.656C155.9 74.656 155.35 74.8693 154.956 75.296C154.572 75.712 154.358 76.32 154.316 77.12H158.7C158.7 76.2453 158.534 75.616 158.204 75.232C157.884 74.848 157.35 74.656 156.604 74.656ZM161.627 81.584V80.368C162.128 80.5813 162.582 80.736 162.987 80.832C163.403 80.928 163.84 80.976 164.299 80.976C165.686 80.976 166.379 80.56 166.379 79.728C166.379 79.3973 166.278 79.1413 166.075 78.96C165.872 78.768 165.515 78.6027 165.003 78.464L163.691 78.112C162.923 77.8987 162.363 77.6107 162.011 77.248C161.659 76.8747 161.483 76.4 161.483 75.824C161.483 75.0987 161.766 74.528 162.331 74.112C162.907 73.6853 163.68 73.472 164.651 73.472C165.184 73.472 165.67 73.5147 166.107 73.6C166.544 73.6853 166.923 73.8027 167.243 73.952V75.168C166.422 74.8373 165.59 74.672 164.747 74.672C163.531 74.672 162.923 75.024 162.923 75.728C162.923 76.0267 163.014 76.2667 163.195 76.448C163.387 76.6187 163.718 76.768 164.187 76.896L165.515 77.248C166.326 77.4613 166.912 77.76 167.275 78.144C167.638 78.5173 167.819 79.024 167.819 79.664C167.819 80.4427 167.515 81.056 166.907 81.504C166.299 81.952 165.456 82.176 164.379 82.176C163.867 82.176 163.366 82.1227 162.875 82.016C162.384 81.9093 161.968 81.7653 161.627 81.584ZM169.08 81.584V80.368C169.581 80.5813 170.035 80.736 170.44 80.832C170.856 80.928 171.293 80.976 171.752 80.976C173.139 80.976 173.832 80.56 173.832 79.728C173.832 79.3973 173.731 79.1413 173.528 78.96C173.325 78.768 172.968 78.6027 172.456 78.464L171.144 78.112C170.376 77.8987 169.816 77.6107 169.464 77.248C169.112 76.8747 168.936 76.4 168.936 75.824C168.936 75.0987 169.219 74.528 169.784 74.112C170.36 73.6853 171.133 73.472 172.104 73.472C172.637 73.472 173.123 73.5147 173.56 73.6C173.997 73.6853 174.376 73.8027 174.696 73.952V75.168C173.875 74.8373 173.043 74.672 172.2 74.672C170.984 74.672 170.376 75.024 170.376 75.728C170.376 76.0267 170.467 76.2667 170.648 76.448C170.84 76.6187 171.171 76.768 171.64 76.896L172.968 77.248C173.779 77.4613 174.365 77.76 174.728 78.144C175.091 78.5173 175.272 79.024 175.272 79.664C175.272 80.4427 174.968 81.056 174.36 81.504C173.752 81.952 172.909 82.176 171.832 82.176C171.32 82.176 170.819 82.1227 170.328 82.016C169.837 81.9093 169.421 81.7653 169.08 81.584Z" fill="#003C4A"/>
<path d="M121.296 114V102.368H125.248C127.947 102.368 129.296 103.509 129.296 105.792C129.296 107.573 128.389 108.672 126.576 109.088L129.808 114H128.112L125.168 109.392L122.768 109.008V114H121.296ZM122.768 108.016H124.544C125.739 108.016 126.581 107.851 127.072 107.52C127.563 107.179 127.808 106.603 127.808 105.792C127.808 105.237 127.707 104.8 127.504 104.48C127.301 104.149 126.96 103.915 126.48 103.776C126.011 103.627 125.365 103.552 124.544 103.552H122.768V108.016ZM136.415 108.944V108.016H140.271V113.44C139.813 113.675 139.247 113.861 138.575 114C137.914 114.128 137.237 114.192 136.543 114.192C134.687 114.192 133.274 113.68 132.303 112.656C131.343 111.621 130.863 110.091 130.863 108.064C130.863 106.837 131.093 105.787 131.551 104.912C132.021 104.027 132.687 103.349 133.551 102.88C134.426 102.411 135.471 102.176 136.687 102.176C137.231 102.176 137.743 102.224 138.223 102.32C138.703 102.416 139.141 102.565 139.535 102.768V104.048C139.013 103.845 138.527 103.701 138.079 103.616C137.631 103.531 137.183 103.488 136.735 103.488C135.349 103.488 134.277 103.888 133.519 104.688C132.762 105.477 132.383 106.603 132.383 108.064C132.383 111.275 133.781 112.88 136.575 112.88C136.949 112.88 137.327 112.853 137.711 112.8C138.095 112.736 138.479 112.656 138.863 112.56V109.424L136.415 108.944ZM142.405 114V102.368H146.133C147.531 102.368 148.555 102.624 149.205 103.136C149.856 103.637 150.181 104.432 150.181 105.52C150.181 106.053 150.037 106.523 149.749 106.928C149.461 107.323 149.056 107.637 148.533 107.872C149.963 108.277 150.677 109.221 150.677 110.704C150.677 112.901 149.211 114 146.277 114H142.405ZM143.829 107.408H145.861C146.875 107.408 147.6 107.264 148.037 106.976C148.485 106.688 148.709 106.203 148.709 105.52C148.709 104.805 148.491 104.304 148.053 104.016C147.616 103.717 146.885 103.568 145.861 103.568H143.829V107.408ZM143.829 112.784H146.085C147.216 112.784 148.016 112.629 148.485 112.32C148.955 112 149.189 111.467 149.189 110.72C149.189 109.963 148.949 109.424 148.469 109.104C147.989 108.784 147.195 108.624 146.085 108.624H143.829V112.784Z" fill="#003C4A"/>
<path d="M121.296 146V134.368H122.784V139.376H128.912V134.368H130.4V146H128.912V140.656H122.784V146H121.296ZM139.207 145.584C138.908 145.765 138.508 145.909 138.007 146.016C137.516 146.123 136.978 146.176 136.391 146.176C135.068 146.176 134.066 145.803 133.383 145.056C132.711 144.299 132.375 143.195 132.375 141.744C132.375 140.347 132.695 139.285 133.335 138.56C133.986 137.835 134.914 137.472 136.119 137.472C138.444 137.472 139.607 138.757 139.607 141.328V142.256H133.831C133.895 143.195 134.146 143.883 134.583 144.32C135.02 144.747 135.671 144.96 136.535 144.96C137.015 144.96 137.468 144.912 137.895 144.816C138.322 144.72 138.759 144.571 139.207 144.368V145.584ZM136.119 138.656C135.415 138.656 134.866 138.869 134.471 139.296C134.087 139.712 133.874 140.32 133.831 141.12H138.215C138.215 140.245 138.05 139.616 137.719 139.232C137.399 138.848 136.866 138.656 136.119 138.656ZM140.426 146L143.45 141.696L140.586 137.648H142.234L144.394 140.816L146.618 137.648H148.09L145.21 141.68L148.25 146H146.602L144.266 142.56L141.898 146H140.426Z" fill="#003C4A"/>
</svg>
