<svg width="356" height="115" viewBox="0 0 356 115" fill="none" xmlns="http://www.w3.org/2000/svg">
<path d="M149.395 77.6743C145.983 77.6743 144.305 76.6713 144.305 72.1539V37.7396H150.066V69.9221C150.066 73.1562 150.46 73.6581 152.081 73.6581C152.585 73.6581 153.199 73.6022 153.592 73.6022L153.87 77.0613C152.696 77.4514 151.131 77.6743 149.395 77.6743ZM131.829 64.3437H129.423C122.99 64.3437 121.313 66.4629 121.313 69.3635C121.313 71.9854 122.824 73.6581 125.62 73.6581C127.578 73.6581 129.76 72.6543 131.829 70.8698V64.3437ZM133.06 77.2842L132.612 74.273C130.15 76.3924 127.522 77.8428 123.998 77.8428C118.515 77.8428 115.607 75.0524 115.607 70.145C115.607 64.4561 120.025 60.6636 129.815 60.6636H131.829V58.153C131.829 54.8063 130.094 53.1888 126.067 53.1888C123.158 53.1888 120.194 53.9703 117.9 54.8063L117.061 51.2926C119.97 50.0099 123.494 49.0069 127.578 49.0069C134.514 49.0069 137.534 52.3535 137.534 57.4275V77.2842H133.06ZM104.642 64.3437H102.237C95.8036 64.3437 94.1254 66.4629 94.1254 69.3635C94.1254 71.9854 95.6361 73.6581 98.4331 73.6581C100.39 73.6581 102.572 72.6543 104.642 70.8698V64.3437ZM105.872 77.2842L105.425 74.273C102.964 76.3924 100.335 77.8428 96.8102 77.8428C91.3285 77.8428 88.4207 75.0524 88.4207 70.145C88.4207 64.4561 92.8399 60.6636 102.629 60.6636H104.642V58.153C104.642 54.8063 102.907 53.1888 98.8804 53.1888C95.9711 53.1888 93.0067 53.9703 90.713 54.8063L89.8739 51.2926C92.783 50.0099 96.3076 49.0069 100.39 49.0069C107.327 49.0069 110.347 52.3535 110.347 57.4275V77.2842H105.872ZM85.567 54.7517C84.5042 54.4729 83.7766 54.3603 83.2173 54.3603C81.5951 54.3603 80.0852 55.5878 77.3443 58.9903V77.2842H71.5828V49.5081H76.337L76.841 54.1932C79.8609 50.2896 81.7634 49.0069 83.7766 49.0069C84.5042 49.0069 85.3433 49.1732 86.2379 49.6192L85.567 54.7517ZM52.7856 77.8428C44.3961 77.8428 39.4175 71.8742 39.4175 59.0462C39.4175 45.8833 45.8498 39.0788 54.2401 39.0788C58.6592 39.0788 62.2393 41.3659 64.4775 44.21L61.848 46.7751C59.6665 45.1018 57.3174 43.8752 54.5752 43.8752C49.2055 43.8752 45.7385 48.6162 45.7385 57.9859C45.7385 68.8072 48.9266 72.9891 53.849 72.9891C56.1981 72.9891 57.9316 72.1539 58.8829 71.3724V60.7202H53.9043V56.2567H64.8126V73.4917C62.0156 75.9464 58.0438 77.8428 52.7856 77.8428Z" fill="#00758F"/>
<path d="M234.127 72.6884H235.739L236.714 76.0317L237.766 72.6884H239.335V77.2842H238.353V73.3437L237.098 77.2842H236.282L235.051 73.3437V77.2842H234.127V72.6884ZM230.793 73.4508H229.423V72.6884H233.16V73.4508H231.79V77.2842H230.793V73.4508ZM220.158 77.2842C219.934 66.3524 219.151 55.0306 218.369 47.277H218.313L208.803 77.2842H203.826L194.315 47.277H194.26C193.534 55.5878 193.03 66.3524 192.862 77.2842H187.1C187.434 65.0692 188.329 51.9075 189.84 39.636H197.784L206.846 67.3002H206.902L215.963 39.636H223.572C225.025 51.9075 226.144 65.0692 226.48 77.2842H220.158ZM174.008 77.2842H166.848C162.263 64.4003 158.738 52.3535 155.998 39.636H162.598C164.555 49.6758 167.745 60.3281 170.932 71.0936C174.065 60.9424 176.47 50.5685 178.429 39.636H184.413C181.951 52.1851 178.651 64.6792 174.008 77.2842Z" fill="#F29111"/>
<path d="M253.179 84.5953C253.179 84.5953 257.074 84.6042 257.081 84.5995C260.128 84.5995 260.469 83.0017 261.784 81.3572C263.098 79.7125 263.792 78.9331 264.597 79.544C267.431 81.8072 269.789 83.5282 271.854 81.979C275.591 79.124 277.242 72.1266 280.74 68.1035C281.558 67.0623 283.38 65.5185 284.247 64.5202C284.654 64.0927 284.42 63.6877 284.001 63.9386C282.237 65.121 278.261 67.7052 275.316 73.1644C272.596 78.1121 270.63 79.8005 268.436 78.4892C267.311 77.8618 266.619 76.9604 265.089 75.8926C263.559 74.8241 262.067 77.0143 261.281 77.7991C260.493 78.5832 258.893 80.8565 257.516 81.1184C256.139 81.3795 254.597 80.9875 253.647 82.8832C253.09 83.9618 253.179 84.5953 253.179 84.5953Z" fill="#00758F"/>
<path d="M289.212 46.5236C290.815 48.6763 290.696 50.5139 289.399 52.2567C288.476 53.6484 287.914 54.8117 287.734 56.6978C287.5 59.8099 289.865 62.6779 292.697 62.9601C294.117 63.0181 295.346 62.5489 296.356 61.5527C299.709 58.2498 299.693 50.2037 299.67 48.9893L301.13 48.9708C301.281 49.3574 301.782 50.5303 302.799 52.0338C306.547 57.5671 309.661 58.9248 312.156 58.4209C313.865 58.0309 308.914 54.4081 308.511 54.0222C308.11 53.6362 308.371 53.3157 309.089 53.7193C309.318 53.8483 318.847 58.7878 316.001 60.8633C313.613 62.4883 309.562 62.0519 306.5 59.4511C303.404 56.7319 300.787 51.465 300.761 51.4127L300.593 51.0697C300.593 51.0697 300.568 51.0225 300.567 51.0744C300.572 51.2475 300.584 51.7487 300.586 51.8667C300.735 60.0649 298.149 64.4629 293.222 64.9369C289.481 65.2273 285.171 62.4883 284.618 57.9211C283.995 51.3273 288.31 47.2887 289.212 46.5236Z" fill="#00758F"/>
<path d="M254.004 31.4772C254.004 31.4772 254.616 30.3058 256.211 31.0389C257.465 31.6431 260.031 34.2533 262.761 39.7989C267.585 49.8109 266.43 44.782 264.201 39.5173C263.277 37.3318 262.204 35.1758 261.019 33.4492C259.819 31.701 257.871 29.5967 256.199 28.6509C253.664 27.2436 253.106 28.623 253.282 29.9343C253.382 30.7532 254.004 31.4772 254.004 31.4772Z" fill="#00758F"/>
<path d="M273.505 45.2791C275.742 41.6734 280.413 37.674 286.472 37.674C286.855 37.674 287.246 37.6904 287.641 37.7239C287.647 37.7245 287.652 37.7252 287.655 37.7259C288.534 36.3369 289.835 34.5244 290.92 34.0043C292.183 33.4001 293.867 33.8754 294.422 35.6046C294.8 36.7836 294.502 39.0071 294.168 38.7685C293.743 38.4651 293.79 34.5519 291.684 35.8719C290.87 36.3847 290.253 37.7594 290.054 38.2482C292.303 38.9445 294.003 40.1453 295.129 41.8362C295.85 42.9751 297.027 45.5531 296.253 48.6755C295.912 50.0569 295.71 48.3454 295.337 46.5479C294.991 45.0356 294.548 43.3528 292.792 41.9071C291.038 40.4623 288.443 39.5574 285.369 39.895C282.393 40.2291 279.723 41.6945 277.75 44.021C277.262 44.5965 276.087 46.3325 275.866 46.6701C274.553 48.6931 273.801 49.8463 271.206 49.8202C271.621 48.7231 272.323 47.1828 273.505 45.2791Z" fill="#00758F"/>
<path d="M249.254 29.4337C250.656 30.2902 252.379 31.6853 254.223 33.838C256.236 36.191 258.541 39.4859 261.073 43.633C262.549 46.0469 262.976 47.4475 262.897 47.6125C262.895 47.6125 262.895 47.6125 262.895 47.6125C262.855 47.6125 262.319 47.5435 259.935 44.2257C254.681 36.6152 250.068 31.5741 248.949 32.2123L248.946 32.2144C248.813 32.2977 248.741 32.4687 248.738 32.7252C248.823 35.7084 255.192 46.9313 264.298 52.2711C262.967 55.6375 263.459 58.4448 264.996 61.2152C266.048 63.1136 269.917 67.0097 273.492 65.9917C277.065 64.9737 275.938 55.1014 270.063 53.1186C268.382 52.6058 267.321 53.6552 266.945 55.0709C266.589 56.4087 266.756 58.0513 266.869 58.8327C266.911 59.1177 266.778 59.0372 266.701 58.9117C264.557 55.4029 266.19 52.2854 268.191 51.6553C270.528 50.9195 273.715 52.5888 275.64 55.7506C278.735 61.2758 277.277 65.9542 274.798 67.4332C270.343 70.1485 263.058 65.4101 261.533 59.8432C260.961 57.5284 261.314 55.1329 262.176 53.1841C249.258 44.2276 246.358 35.8257 245.784 31.5987C245.474 28.8269 247.384 28.2915 249.254 29.4337Z" fill="#00758F"/>
<path d="M260.742 71.7139C260.084 71.1555 259.709 70.5159 259.494 69.9228C259.263 69.0615 259.132 67.6922 259.422 65.5239C260.068 60.7058 258.657 64.2414 258.657 64.2414C258.202 65.3296 257.77 66.5325 257.4 67.5606L257.376 67.6268C257.043 68.5535 256.754 69.3533 256.532 69.843C255.497 72.3828 253.383 73.4494 251.884 74.288C250.242 75.3559 248.386 76.5635 246.448 80.2162C244.696 83.5213 244.018 84.0464 241.923 84.0464C239.85 84.0464 239.027 84.45 238.127 85.5424C237.595 86.1923 237.516 87.1686 237.504 87.4714L242.71 87.4707C244.589 87.4707 245.533 86.1104 247.246 83.64L247.572 83.1701C248.801 81.6005 250.736 77.9258 254.377 76.0657C255.774 75.3524 256.949 74.3569 257.854 73.4208C258.225 73.1104 258.587 72.8568 258.946 72.7143C260.499 72.0999 261.653 72.4872 260.742 71.7139Z" fill="#00758F"/>
</svg>
