<svg width="352" height="152" viewBox="0 0 352 152" fill="none" xmlns="http://www.w3.org/2000/svg">
<rect width="88" height="88" rx="4" fill="#F29111"/>
<path d="M19.858 51.234C17.938 51.234 16.462 50.646 15.43 49.47C14.398 48.294 13.882 46.62 13.882 44.448C13.882 42.288 14.398 40.62 15.43 39.444C16.474 38.268 17.95 37.68 19.858 37.68C21.766 37.68 23.236 38.268 24.268 39.444C25.312 40.62 25.834 42.288 25.834 44.448C25.834 46.62 25.318 48.294 24.286 49.47C23.254 50.646 21.778 51.234 19.858 51.234ZM19.858 49.308C22.318 49.308 23.548 47.688 23.548 44.448C23.548 42.852 23.236 41.646 22.612 40.83C21.988 40.014 21.07 39.606 19.858 39.606C18.646 39.606 17.728 40.014 17.104 40.83C16.48 41.646 16.168 42.852 16.168 44.448C16.168 47.688 17.398 49.308 19.858 49.308ZM27.9709 51V41.532H29.4289L29.7709 43.098C30.0709 42.594 30.4489 42.204 30.9049 41.928C31.3609 41.64 31.8949 41.496 32.5069 41.496C32.7349 41.496 32.9449 41.514 33.1369 41.55V43.512H32.6149C31.9549 43.512 31.4149 43.698 30.9949 44.07C30.5749 44.43 30.2989 44.91 30.1669 45.51V51H27.9709ZM40.555 51L40.249 49.596C39.901 50.112 39.463 50.514 38.935 50.802C38.407 51.078 37.825 51.216 37.189 51.216C36.217 51.216 35.443 50.946 34.867 50.406C34.303 49.866 34.021 49.134 34.021 48.21C34.021 47.226 34.381 46.452 35.101 45.888C35.821 45.324 36.805 45.042 38.053 45.042H39.835V44.592C39.835 43.992 39.709 43.584 39.457 43.368C39.205 43.152 38.761 43.044 38.125 43.044C37.177 43.044 36.097 43.266 34.885 43.71V42C35.365 41.796 35.911 41.634 36.523 41.514C37.135 41.394 37.735 41.334 38.323 41.334C40.783 41.334 42.013 42.414 42.013 44.574V51H40.555ZM37.639 49.56C38.083 49.56 38.503 49.446 38.899 49.218C39.295 48.978 39.619 48.648 39.871 48.228V46.446H38.305C36.853 46.446 36.127 46.974 36.127 48.03C36.127 48.51 36.259 48.888 36.523 49.164C36.787 49.428 37.159 49.56 37.639 49.56ZM44.4592 51V41.532H45.9172L46.2412 43.062C46.6612 42.51 47.1532 42.084 47.7172 41.784C48.2932 41.484 48.9352 41.334 49.6432 41.334C50.7352 41.334 51.5692 41.664 52.1452 42.324C52.7212 42.972 53.0092 43.92 53.0092 45.168V51H50.8132V45.24C50.8132 43.848 50.2192 43.152 49.0312 43.152C48.5152 43.152 48.0412 43.308 47.6092 43.62C47.1892 43.932 46.8712 44.352 46.6552 44.88V51H44.4592ZM55.3191 49.956L54.9951 48.858L56.4891 46.662C55.9011 46.11 55.6071 45.396 55.6071 44.52C55.6071 43.524 55.9551 42.744 56.6511 42.18C57.3591 41.616 58.3431 41.334 59.6031 41.334C60.2391 41.334 60.8271 41.424 61.3671 41.604L64.5351 41.586V42.684L63.4191 43.08C63.8031 43.5 63.9951 44.034 63.9951 44.682C63.9951 45.63 63.6231 46.374 62.8791 46.914C62.1351 47.454 61.1091 47.724 59.8011 47.724C59.0811 47.724 58.4391 47.634 57.8751 47.454L57.1371 48.552L61.5651 49.128C62.5851 49.248 63.3351 49.53 63.8151 49.974C64.3071 50.406 64.5531 51.012 64.5531 51.792C64.5531 52.728 64.1271 53.466 63.2751 54.006C62.4231 54.558 61.2651 54.834 59.8011 54.834C58.3011 54.834 57.1491 54.6 56.3451 54.132C55.5531 53.676 55.1571 53.016 55.1571 52.152C55.1571 51.372 55.5171 50.688 56.2371 50.1L55.3191 49.956ZM57.6411 44.52C57.6411 45.624 58.3611 46.176 59.8011 46.176C61.2411 46.176 61.9611 45.624 61.9611 44.52C61.9611 43.428 61.2411 42.882 59.8011 42.882C58.3611 42.882 57.6411 43.428 57.6411 44.52ZM57.2451 51.72C57.2451 52.692 58.0971 53.178 59.8011 53.178C60.6291 53.178 61.2711 53.064 61.7271 52.836C62.1951 52.608 62.4291 52.29 62.4291 51.882C62.4291 51.57 62.3331 51.336 62.1411 51.18C61.9611 51.036 61.6311 50.928 61.1511 50.856L57.8571 50.352C57.4491 50.748 57.2451 51.204 57.2451 51.72ZM73.7094 50.55C73.3134 50.754 72.8334 50.916 72.2694 51.036C71.7054 51.156 71.1054 51.216 70.4694 51.216C68.9094 51.216 67.7154 50.79 66.8874 49.938C66.0714 49.086 65.6634 47.844 65.6634 46.212C65.6634 44.652 66.0534 43.452 66.8334 42.612C67.6254 41.76 68.7354 41.334 70.1634 41.334C71.4834 41.334 72.4794 41.712 73.1514 42.468C73.8234 43.212 74.1594 44.28 74.1594 45.672V46.896H67.8414C67.9254 47.796 68.1954 48.45 68.6514 48.858C69.1194 49.266 69.7974 49.47 70.6854 49.47C71.2134 49.47 71.7114 49.422 72.1794 49.326C72.6474 49.218 73.1574 49.05 73.7094 48.822V50.55ZM70.1454 42.99C68.7054 42.99 67.9314 43.776 67.8234 45.348H72.1434C72.1314 43.776 71.4654 42.99 70.1454 42.99Z" fill="white"/>
<path d="M121.296 18V6.368H125.104C127.803 6.368 129.152 7.6 129.152 10.064C129.152 12.528 127.803 13.76 125.104 13.76H122.768V18H121.296ZM124.8 7.552H122.768V12.576H124.8C125.803 12.576 126.528 12.3733 126.976 11.968C127.435 11.5627 127.664 10.928 127.664 10.064C127.664 9.2 127.435 8.56533 126.976 8.16C126.528 7.75467 125.803 7.552 124.8 7.552ZM135.9 18L135.66 16.656C134.978 17.6693 134.05 18.176 132.876 18.176C132.034 18.176 131.356 17.9413 130.844 17.472C130.343 16.992 130.092 16.3573 130.092 15.568C130.092 14.6933 130.391 14.016 130.988 13.536C131.596 13.0453 132.439 12.8 133.516 12.8H135.436V12.272C135.436 11.6747 135.303 11.2533 135.036 11.008C134.78 10.7627 134.338 10.64 133.708 10.64C133.303 10.64 132.871 10.688 132.412 10.784C131.954 10.8693 131.436 11.0133 130.86 11.216V10.048C131.266 9.86667 131.73 9.728 132.252 9.632C132.775 9.52533 133.266 9.472 133.724 9.472C135.826 9.472 136.876 10.4053 136.876 12.272V18H135.9ZM133.052 17.024C133.543 17.024 134.002 16.8853 134.428 16.608C134.855 16.32 135.196 15.9307 135.452 15.44V13.856H133.66C132.935 13.856 132.396 13.9893 132.044 14.256C131.703 14.512 131.532 14.912 131.532 15.456C131.532 15.936 131.666 16.32 131.932 16.608C132.21 16.8853 132.583 17.024 133.052 17.024ZM139.2 18V9.648H140.176L140.432 11.072C140.784 10.56 141.216 10.1653 141.728 9.888C142.24 9.61067 142.816 9.472 143.456 9.472C144.416 9.472 145.152 9.76 145.664 10.336C146.176 10.912 146.432 11.744 146.432 12.832V18H144.992V12.88C144.992 11.4293 144.363 10.704 143.104 10.704C142.571 10.704 142.08 10.8693 141.632 11.2C141.195 11.52 140.864 11.9573 140.64 12.512V18H139.2ZM149.019 15.456V10.832H147.579V10.096L149.019 9.616L149.595 7.344H150.459V9.648H152.267V10.832H150.459V15.44C150.459 16.3573 150.854 16.816 151.643 16.816C151.771 16.816 151.894 16.8107 152.011 16.8C152.139 16.7787 152.256 16.7627 152.363 16.752V18C152.214 18.032 152.059 18.0533 151.899 18.064C151.75 18.0747 151.59 18.08 151.419 18.08C150.598 18.08 149.99 17.8667 149.595 17.44C149.211 17.0133 149.019 16.352 149.019 15.456ZM157.437 18.176C156.178 18.176 155.202 17.792 154.509 17.024C153.816 16.2453 153.469 15.1787 153.469 13.824C153.469 12.4587 153.816 11.392 154.509 10.624C155.202 9.856 156.178 9.472 157.437 9.472C158.706 9.472 159.688 9.856 160.381 10.624C161.074 11.392 161.421 12.4587 161.421 13.824C161.421 15.1787 161.074 16.2453 160.381 17.024C159.688 17.792 158.706 18.176 157.437 18.176ZM157.437 16.992C158.258 16.992 158.882 16.7253 159.309 16.192C159.736 15.648 159.949 14.8587 159.949 13.824C159.949 12.7893 159.736 12.0053 159.309 11.472C158.882 10.928 158.258 10.656 157.437 10.656C156.626 10.656 156.008 10.928 155.581 11.472C155.154 12.0053 154.941 12.7893 154.941 13.824C154.941 14.8587 155.154 15.648 155.581 16.192C156.008 16.7253 156.626 16.992 157.437 16.992ZM163.294 18V9.648H164.27L164.526 11.072C164.878 10.56 165.31 10.1653 165.822 9.888C166.334 9.61067 166.91 9.472 167.55 9.472C168.51 9.472 169.246 9.76 169.758 10.336C170.27 10.912 170.526 11.744 170.526 12.832V18H169.086V12.88C169.086 11.4293 168.456 10.704 167.198 10.704C166.664 10.704 166.174 10.8693 165.726 11.2C165.288 11.52 164.958 11.9573 164.734 12.512V18H163.294ZM179.145 17.584C178.846 17.7653 178.446 17.9093 177.945 18.016C177.454 18.1227 176.915 18.176 176.329 18.176C175.006 18.176 174.003 17.8027 173.321 17.056C172.649 16.2987 172.313 15.1947 172.313 13.744C172.313 12.3467 172.633 11.2853 173.273 10.56C173.923 9.83467 174.851 9.472 176.057 9.472C178.382 9.472 179.545 10.7573 179.545 13.328V14.256H173.769C173.833 15.1947 174.083 15.8827 174.521 16.32C174.958 16.7467 175.609 16.96 176.473 16.96C176.953 16.96 177.406 16.912 177.833 16.816C178.259 16.72 178.697 16.5707 179.145 16.368V17.584ZM176.057 10.656C175.353 10.656 174.803 10.8693 174.409 11.296C174.025 11.712 173.811 12.32 173.769 13.12H178.153C178.153 12.2453 177.987 11.616 177.657 11.232C177.337 10.848 176.803 10.656 176.057 10.656ZM193.63 16.16V17.44C193.203 17.6747 192.696 17.8613 192.11 18C191.534 18.128 190.947 18.192 190.35 18.192C188.622 18.192 187.283 17.664 186.334 16.608C185.395 15.5413 184.926 14.0267 184.926 12.064C184.926 10.8373 185.144 9.78667 185.582 8.912C186.03 8.03733 186.664 7.36533 187.486 6.896C188.307 6.416 189.283 6.176 190.414 6.176C190.915 6.176 191.422 6.24 191.934 6.368C192.456 6.496 192.883 6.672 193.214 6.896V8.176C192.659 7.93067 192.174 7.75467 191.758 7.648C191.342 7.54133 190.926 7.488 190.51 7.488C189.23 7.488 188.232 7.888 187.518 8.688C186.803 9.47733 186.446 10.6027 186.446 12.064C186.446 13.6107 186.798 14.8 187.502 15.632C188.216 16.464 189.219 16.88 190.51 16.88C191.47 16.88 192.51 16.64 193.63 16.16Z" fill="#003C4A"/>
<path d="M215.368 19V5.914H219.85C222.994 5.914 224.566 7.348 224.566 10.216C224.566 13.084 222.994 14.518 219.85 14.518H217.6V19H215.368ZM219.382 7.732H217.6V12.7H219.382C220.414 12.7 221.158 12.508 221.614 12.124C222.082 11.728 222.316 11.092 222.316 10.216C222.316 9.328 222.082 8.692 221.614 8.308C221.158 7.924 220.414 7.732 219.382 7.732ZM226.442 19V5.914H228.782L233.318 15.274L237.782 5.914H240.104V19H237.908V9.802L234.056 17.74H232.472L228.638 9.928V19H226.442ZM242.393 18.478V16.48C243.737 17.008 245.033 17.272 246.281 17.272C247.157 17.272 247.841 17.11 248.333 16.786C248.837 16.462 249.089 16.018 249.089 15.454C249.089 15.034 248.933 14.692 248.621 14.428C248.309 14.152 247.727 13.864 246.875 13.564L245.507 13.06C244.343 12.628 243.509 12.124 243.005 11.548C242.513 10.96 242.267 10.246 242.267 9.406C242.267 8.254 242.699 7.348 243.563 6.688C244.427 6.016 245.603 5.68 247.091 5.68C247.715 5.68 248.339 5.746 248.963 5.878C249.599 6.01 250.151 6.19 250.619 6.418V8.416C249.383 7.9 248.213 7.642 247.109 7.642C245.393 7.642 244.535 8.194 244.535 9.298C244.535 9.694 244.691 10.018 245.003 10.27C245.315 10.522 245.885 10.804 246.713 11.116L248.099 11.62C249.311 12.064 250.157 12.574 250.637 13.15C251.129 13.726 251.375 14.47 251.375 15.382C251.375 16.582 250.949 17.524 250.097 18.208C249.245 18.892 248.051 19.234 246.515 19.234C246.023 19.234 245.513 19.198 244.985 19.126C244.469 19.066 243.983 18.982 243.527 18.874C243.071 18.754 242.693 18.622 242.393 18.478ZM259.836 19V8.83L256.83 10.018V8.686L260.466 6.094H262.068V19H259.836ZM263.934 16.282V14.59L270.396 6.094H272.376V14.41H274.14V16.282H272.376V19H270.234V16.282H263.934ZM270.288 14.194V9.154L266.328 14.41H270.27L270.288 14.194ZM275.236 16.282V14.59L281.698 6.094H283.678V14.41H285.442V16.282H283.678V19H281.536V16.282H275.236ZM281.59 14.194V9.154L277.63 14.41H281.572L281.59 14.194ZM301.089 16.516V18.424C300.585 18.688 300.021 18.886 299.397 19.018C298.773 19.162 298.107 19.234 297.399 19.234C295.383 19.234 293.835 18.64 292.755 17.452C291.687 16.264 291.153 14.548 291.153 12.304C291.153 10.924 291.405 9.742 291.909 8.758C292.425 7.774 293.157 7.018 294.105 6.49C295.065 5.95 296.199 5.68 297.507 5.68C298.083 5.68 298.653 5.746 299.217 5.878C299.781 6.01 300.267 6.196 300.675 6.436V8.326C300.051 8.074 299.505 7.894 299.037 7.786C298.569 7.678 298.107 7.624 297.651 7.624C296.307 7.624 295.269 8.038 294.537 8.866C293.805 9.682 293.439 10.828 293.439 12.304C293.439 13.9 293.799 15.13 294.519 15.994C295.251 16.846 296.295 17.272 297.651 17.272C298.179 17.272 298.713 17.212 299.253 17.092C299.805 16.972 300.417 16.78 301.089 16.516Z" fill="#003C4A"/>
<path d="M215.368 51V37.914H219.85C222.994 37.914 224.566 39.348 224.566 42.216C224.566 45.084 222.994 46.518 219.85 46.518H217.6V51H215.368ZM219.382 39.732H217.6V44.7H219.382C220.414 44.7 221.158 44.508 221.614 44.124C222.082 43.728 222.316 43.092 222.316 42.216C222.316 41.328 222.082 40.692 221.614 40.308C221.158 39.924 220.414 39.732 219.382 39.732ZM226.442 51V37.914H228.782L233.318 47.274L237.782 37.914H240.104V51H237.908V41.802L234.056 49.74H232.472L228.638 41.928V51H226.442ZM242.393 50.478V48.48C243.737 49.008 245.033 49.272 246.281 49.272C247.157 49.272 247.841 49.11 248.333 48.786C248.837 48.462 249.089 48.018 249.089 47.454C249.089 47.034 248.933 46.692 248.621 46.428C248.309 46.152 247.727 45.864 246.875 45.564L245.507 45.06C244.343 44.628 243.509 44.124 243.005 43.548C242.513 42.96 242.267 42.246 242.267 41.406C242.267 40.254 242.699 39.348 243.563 38.688C244.427 38.016 245.603 37.68 247.091 37.68C247.715 37.68 248.339 37.746 248.963 37.878C249.599 38.01 250.151 38.19 250.619 38.418V40.416C249.383 39.9 248.213 39.642 247.109 39.642C245.393 39.642 244.535 40.194 244.535 41.298C244.535 41.694 244.691 42.018 245.003 42.27C245.315 42.522 245.885 42.804 246.713 43.116L248.099 43.62C249.311 44.064 250.157 44.574 250.637 45.15C251.129 45.726 251.375 46.47 251.375 47.382C251.375 48.582 250.949 49.524 250.097 50.208C249.245 50.892 248.051 51.234 246.515 51.234C246.023 51.234 245.513 51.198 244.985 51.126C244.469 51.066 243.983 50.982 243.527 50.874C243.071 50.754 242.693 50.622 242.393 50.478ZM259.836 51V40.83L256.83 42.018V40.686L260.466 38.094H262.068V51H259.836ZM263.898 50.424V48.516C264.402 48.78 264.96 48.984 265.572 49.128C266.184 49.272 266.796 49.344 267.408 49.344C268.356 49.344 269.088 49.128 269.604 48.696C270.12 48.264 270.378 47.664 270.378 46.896C270.378 46.224 270.174 45.69 269.766 45.294C269.358 44.898 268.776 44.7 268.02 44.7C267.672 44.7 267.342 44.73 267.03 44.79C266.718 44.85 266.4 44.94 266.076 45.06L265.338 43.836L269.046 39.93H264.078V38.094H271.89V39.534L268.398 43.17C269.67 43.206 270.66 43.566 271.368 44.25C272.076 44.922 272.43 45.81 272.43 46.914C272.43 48.258 271.992 49.314 271.116 50.082C270.252 50.85 269.052 51.234 267.516 51.234C266.832 51.234 266.178 51.162 265.554 51.018C264.93 50.886 264.378 50.688 263.898 50.424ZM278.717 51.234C277.109 51.234 275.885 50.664 275.045 49.524C274.217 48.384 273.803 46.71 273.803 44.502C273.803 40.074 275.441 37.86 278.717 37.86C281.993 37.86 283.631 40.074 283.631 44.502C283.631 46.71 283.211 48.384 282.371 49.524C281.543 50.664 280.325 51.234 278.717 51.234ZM278.717 49.38C279.629 49.38 280.301 48.978 280.733 48.174C281.177 47.37 281.399 46.146 281.399 44.502C281.399 42.858 281.183 41.652 280.751 40.884C280.319 40.104 279.641 39.714 278.717 39.714C277.805 39.714 277.127 40.104 276.683 40.884C276.251 41.652 276.035 42.858 276.035 44.502C276.035 46.146 276.251 47.37 276.683 48.174C277.127 48.978 277.805 49.38 278.717 49.38ZM290.071 44.952V37.914H292.321V44.916C292.321 46.428 292.555 47.532 293.023 48.228C293.503 48.924 294.271 49.272 295.327 49.272C296.383 49.272 297.145 48.924 297.613 48.228C298.093 47.532 298.333 46.428 298.333 44.916V37.914H300.583V44.952C300.583 47.1 300.151 48.684 299.287 49.704C298.435 50.724 297.115 51.234 295.327 51.234C293.551 51.234 292.231 50.724 291.367 49.704C290.503 48.684 290.071 47.1 290.071 44.952Z" fill="#003C4A"/>
<path d="M224.818 80.516V82.424C224.314 82.688 223.75 82.886 223.126 83.018C222.502 83.162 221.836 83.234 221.128 83.234C219.112 83.234 217.564 82.64 216.484 81.452C215.416 80.264 214.882 78.548 214.882 76.304C214.882 74.924 215.134 73.742 215.638 72.758C216.154 71.774 216.886 71.018 217.834 70.49C218.794 69.95 219.928 69.68 221.236 69.68C221.812 69.68 222.382 69.746 222.946 69.878C223.51 70.01 223.996 70.196 224.404 70.436V72.326C223.78 72.074 223.234 71.894 222.766 71.786C222.298 71.678 221.836 71.624 221.38 71.624C220.036 71.624 218.998 72.038 218.266 72.866C217.534 73.682 217.168 74.828 217.168 76.304C217.168 77.9 217.528 79.13 218.248 79.994C218.98 80.846 220.024 81.272 221.38 81.272C221.908 81.272 222.442 81.212 222.982 81.092C223.534 80.972 224.146 80.78 224.818 80.516ZM231.168 83.234C229.56 83.234 228.336 82.664 227.496 81.524C226.668 80.384 226.254 78.71 226.254 76.502C226.254 72.074 227.892 69.86 231.168 69.86C234.444 69.86 236.082 72.074 236.082 76.502C236.082 78.71 235.662 80.384 234.822 81.524C233.994 82.664 232.776 83.234 231.168 83.234ZM231.168 81.38C232.08 81.38 232.752 80.978 233.184 80.174C233.628 79.37 233.85 78.146 233.85 76.502C233.85 74.858 233.634 73.652 233.202 72.884C232.77 72.104 232.092 71.714 231.168 71.714C230.256 71.714 229.578 72.104 229.134 72.884C228.702 73.652 228.486 74.858 228.486 76.502C228.486 78.146 228.702 79.37 229.134 80.174C229.578 80.978 230.256 81.38 231.168 81.38ZM242.702 83V69.914H245.042L249.578 79.274L254.042 69.914H256.364V83H254.168V73.802L250.316 81.74H248.732L244.898 73.928V83H242.702ZM258.58 82.424V80.516C259.108 80.78 259.678 80.984 260.29 81.128C260.914 81.272 261.532 81.344 262.144 81.344C263.02 81.344 263.704 81.128 264.196 80.696C264.7 80.252 264.952 79.652 264.952 78.896C264.952 78.176 264.736 77.618 264.304 77.222C263.872 76.826 263.284 76.628 262.54 76.628C262.096 76.628 261.64 76.682 261.172 76.79C260.716 76.898 260.308 77.048 259.948 77.24L258.652 76.232L259.408 70.094H266.248V71.93H261.01L260.596 75.332C261.292 75.044 262.018 74.9 262.774 74.9C264.082 74.9 265.114 75.26 265.87 75.98C266.626 76.688 267.004 77.666 267.004 78.914C267.004 79.79 266.806 80.552 266.41 81.2C266.026 81.848 265.48 82.352 264.772 82.712C264.076 83.06 263.248 83.234 262.288 83.234C261.58 83.234 260.902 83.156 260.254 83C259.606 82.856 259.048 82.664 258.58 82.424ZM268.077 83V81.488L271.515 77.744C272.175 77.024 272.697 76.418 273.081 75.926C273.477 75.434 273.759 75.014 273.927 74.666C274.095 74.306 274.179 73.97 274.179 73.658C274.179 72.386 273.417 71.75 271.893 71.75C270.837 71.75 269.697 72.086 268.473 72.758V70.832C268.989 70.532 269.577 70.298 270.237 70.13C270.897 69.95 271.539 69.86 272.163 69.86C273.495 69.86 274.527 70.178 275.259 70.814C276.003 71.438 276.375 72.326 276.375 73.478C276.375 73.946 276.267 74.426 276.051 74.918C275.847 75.41 275.517 75.962 275.061 76.574C274.605 77.186 273.999 77.906 273.243 78.734L271.011 81.164H276.411V83H268.077ZM286.322 83V77.888L281.66 69.914H284.198L287.492 75.872L290.768 69.914H293.216L288.572 77.888V83H286.322ZM296.733 83V72.83L293.727 74.018V72.686L297.363 70.094H298.965V83H296.733ZM306.086 83.234C304.478 83.234 303.254 82.664 302.414 81.524C301.586 80.384 301.172 78.71 301.172 76.502C301.172 72.074 302.81 69.86 306.086 69.86C309.362 69.86 311 72.074 311 76.502C311 78.71 310.58 80.384 309.74 81.524C308.912 82.664 307.694 83.234 306.086 83.234ZM306.086 81.38C306.998 81.38 307.67 80.978 308.102 80.174C308.546 79.37 308.768 78.146 308.768 76.502C308.768 74.858 308.552 73.652 308.12 72.884C307.688 72.104 307.01 71.714 306.086 71.714C305.174 71.714 304.496 72.104 304.052 72.884C303.62 73.652 303.404 74.858 303.404 76.502C303.404 78.146 303.62 79.37 304.052 80.174C304.496 80.978 305.174 81.38 306.086 81.38ZM317.6 83.234C315.992 83.234 314.768 82.664 313.928 81.524C313.1 80.384 312.686 78.71 312.686 76.502C312.686 72.074 314.324 69.86 317.6 69.86C320.876 69.86 322.514 72.074 322.514 76.502C322.514 78.71 322.094 80.384 321.254 81.524C320.426 82.664 319.208 83.234 317.6 83.234ZM317.6 81.38C318.512 81.38 319.184 80.978 319.616 80.174C320.06 79.37 320.282 78.146 320.282 76.502C320.282 74.858 320.066 73.652 319.634 72.884C319.202 72.104 318.524 71.714 317.6 71.714C316.688 71.714 316.01 72.104 315.566 72.884C315.134 73.652 314.918 74.858 314.918 76.502C314.918 78.146 315.134 79.37 315.566 80.174C316.01 80.978 316.688 81.38 317.6 81.38ZM329.134 83V69.914H331.384V75.674L336.568 69.914H339.232L333.778 75.8L339.682 83H337.018L332.356 77.258H331.384V83H329.134ZM345.514 83.234C343.906 83.234 342.682 82.664 341.842 81.524C341.014 80.384 340.6 78.71 340.6 76.502C340.6 72.074 342.238 69.86 345.514 69.86C348.79 69.86 350.428 72.074 350.428 76.502C350.428 78.71 350.008 80.384 349.168 81.524C348.34 82.664 347.122 83.234 345.514 83.234ZM345.514 81.38C346.426 81.38 347.098 80.978 347.53 80.174C347.974 79.37 348.196 78.146 348.196 76.502C348.196 74.858 347.98 73.652 347.548 72.884C347.116 72.104 346.438 71.714 345.514 71.714C344.602 71.714 343.924 72.104 343.48 72.884C343.048 73.652 342.832 74.858 342.832 76.502C342.832 78.146 343.048 79.37 343.48 80.174C343.924 80.978 344.602 81.38 345.514 81.38Z" fill="#003C4A"/>
<path d="M215.368 115V101.914H220.102C221.638 101.914 222.808 102.256 223.612 102.94C224.416 103.624 224.818 104.614 224.818 105.91C224.818 106.87 224.566 107.668 224.062 108.304C223.57 108.94 222.856 109.384 221.92 109.636L225.376 115H222.874L219.814 110.068L217.6 109.618V115H215.368ZM217.6 108.142H219.274C220.102 108.142 220.756 108.07 221.236 107.926C221.716 107.782 222.058 107.554 222.262 107.242C222.466 106.918 222.568 106.486 222.568 105.946C222.568 105.394 222.466 104.956 222.262 104.632C222.058 104.308 221.716 104.08 221.236 103.948C220.756 103.804 220.102 103.732 219.274 103.732H217.6V108.142ZM225.872 115V113.488L229.31 109.744C229.97 109.024 230.492 108.418 230.876 107.926C231.272 107.434 231.554 107.014 231.722 106.666C231.89 106.306 231.974 105.97 231.974 105.658C231.974 104.386 231.212 103.75 229.688 103.75C228.632 103.75 227.492 104.086 226.268 104.758V102.832C226.784 102.532 227.372 102.298 228.032 102.13C228.692 101.95 229.334 101.86 229.958 101.86C231.29 101.86 232.322 102.178 233.054 102.814C233.798 103.438 234.17 104.326 234.17 105.478C234.17 105.946 234.062 106.426 233.846 106.918C233.642 107.41 233.312 107.962 232.856 108.574C232.4 109.186 231.794 109.906 231.038 110.734L228.806 113.164H234.206V115H225.872ZM235.053 112.282V110.59L241.515 102.094H243.495V110.41H245.259V112.282H243.495V115H241.353V112.282H235.053ZM241.407 110.194V105.154L237.447 110.41H241.389L241.407 110.194ZM246.527 115V113.488L249.965 109.744C250.625 109.024 251.147 108.418 251.531 107.926C251.927 107.434 252.209 107.014 252.377 106.666C252.545 106.306 252.629 105.97 252.629 105.658C252.629 104.386 251.867 103.75 250.343 103.75C249.287 103.75 248.147 104.086 246.923 104.758V102.832C247.439 102.532 248.027 102.298 248.687 102.13C249.347 101.95 249.989 101.86 250.613 101.86C251.945 101.86 252.977 102.178 253.709 102.814C254.453 103.438 254.825 104.326 254.825 105.478C254.825 105.946 254.717 106.426 254.501 106.918C254.297 107.41 253.967 107.962 253.511 108.574C253.055 109.186 252.449 109.906 251.693 110.734L249.461 113.164H254.861V115H246.527ZM267.147 109.384V108.088H271.755V114.352C271.167 114.64 270.501 114.856 269.757 115C269.013 115.156 268.251 115.234 267.471 115.234C265.323 115.234 263.691 114.652 262.575 113.488C261.471 112.312 260.919 110.584 260.919 108.304C260.919 106.912 261.189 105.724 261.729 104.74C262.269 103.756 263.043 103 264.051 102.472C265.071 101.944 266.295 101.68 267.723 101.68C268.311 101.68 268.875 101.734 269.415 101.842C269.967 101.938 270.471 102.088 270.927 102.292V104.2C270.327 103.996 269.781 103.852 269.289 103.768C268.797 103.672 268.305 103.624 267.813 103.624C266.337 103.624 265.197 104.032 264.393 104.848C263.601 105.652 263.205 106.804 263.205 108.304C263.205 111.616 264.645 113.272 267.525 113.272C268.221 113.272 268.923 113.2 269.631 113.056V110.05L267.147 109.384ZM276.079 115V104.83L273.073 106.018V104.686L276.709 102.094H278.311V115H276.079ZM280.176 112.282V110.59L286.638 102.094H288.618V110.41H290.382V112.282H288.618V115H286.476V112.282H280.176ZM286.53 110.194V105.154L282.57 110.41H286.512L286.53 110.194ZM291.645 114.424V112.516C292.173 112.78 292.743 112.984 293.355 113.128C293.979 113.272 294.597 113.344 295.209 113.344C296.085 113.344 296.769 113.128 297.261 112.696C297.765 112.252 298.017 111.652 298.017 110.896C298.017 110.176 297.801 109.618 297.369 109.222C296.937 108.826 296.349 108.628 295.605 108.628C295.161 108.628 294.705 108.682 294.237 108.79C293.781 108.898 293.373 109.048 293.013 109.24L291.717 108.232L292.473 102.094H299.313V103.93H294.075L293.661 107.332C294.357 107.044 295.083 106.9 295.839 106.9C297.147 106.9 298.179 107.26 298.935 107.98C299.691 108.688 300.069 109.666 300.069 110.914C300.069 111.79 299.871 112.552 299.475 113.2C299.091 113.848 298.545 114.352 297.837 114.712C297.141 115.06 296.313 115.234 295.353 115.234C294.645 115.234 293.967 115.156 293.319 115C292.671 114.856 292.113 114.664 291.645 114.424ZM306.616 115V101.914H311.008C312.628 101.914 313.816 102.196 314.572 102.76C315.34 103.324 315.724 104.212 315.724 105.424C315.724 106.012 315.562 106.54 315.238 107.008C314.926 107.464 314.488 107.824 313.924 108.088C315.496 108.556 316.282 109.6 316.282 111.22C316.282 113.74 314.572 115 311.152 115H306.616ZM308.776 107.458H310.594C311.638 107.458 312.382 107.314 312.826 107.026C313.27 106.738 313.492 106.252 313.492 105.568C313.492 104.86 313.276 104.368 312.844 104.092C312.412 103.804 311.662 103.66 310.594 103.66H308.776V107.458ZM308.776 113.236H310.936C312.028 113.236 312.814 113.074 313.294 112.75C313.774 112.426 314.014 111.904 314.014 111.184C314.014 110.476 313.768 109.96 313.276 109.636C312.796 109.312 312.016 109.15 310.936 109.15H308.776V113.236ZM320.235 115V104.83L317.229 106.018V104.686L320.865 102.094H322.467V115H320.235ZM326.312 115L331.082 103.948H326.384L325.736 105.982H324.422V102.094H333.386V103.57L328.724 115H326.312Z" fill="#003C4A"/>
<path d="M215.368 147V133.914H223.504V135.822H217.618V139.746H222.874V141.654H217.618V147H215.368ZM224.501 147V145.488L227.939 141.744C228.599 141.024 229.121 140.418 229.505 139.926C229.901 139.434 230.183 139.014 230.351 138.666C230.519 138.306 230.603 137.97 230.603 137.658C230.603 136.386 229.841 135.75 228.317 135.75C227.261 135.75 226.121 136.086 224.897 136.758V134.832C225.413 134.532 226.001 134.298 226.661 134.13C227.321 133.95 227.963 133.86 228.587 133.86C229.919 133.86 230.951 134.178 231.683 134.814C232.427 135.438 232.799 136.326 232.799 137.478C232.799 137.946 232.691 138.426 232.475 138.918C232.271 139.41 231.941 139.962 231.485 140.574C231.029 141.186 230.423 141.906 229.667 142.734L227.435 145.164H232.835V147H224.501ZM236.858 147L239.36 143.544C239.732 143.028 240.038 142.578 240.278 142.194C239.69 142.59 239.018 142.788 238.262 142.788C237.494 142.788 236.816 142.614 236.228 142.266C235.652 141.906 235.202 141.402 234.878 140.754C234.566 140.106 234.41 139.338 234.41 138.45C234.41 137.526 234.602 136.722 234.986 136.038C235.37 135.354 235.91 134.82 236.606 134.436C237.302 134.052 238.112 133.86 239.036 133.86C240.464 133.86 241.586 134.274 242.402 135.102C243.218 135.93 243.626 137.076 243.626 138.54C243.626 140.124 242.918 141.9 241.502 143.868L239.252 147H236.858ZM236.516 138.414C236.516 139.23 236.72 139.89 237.128 140.394C237.548 140.886 238.1 141.132 238.784 141.132C239.996 141.132 240.896 140.538 241.484 139.35C241.52 139.074 241.538 138.774 241.538 138.45C241.538 137.574 241.316 136.896 240.872 136.416C240.428 135.924 239.816 135.678 239.036 135.678C238.268 135.678 237.656 135.924 237.2 136.416C236.744 136.896 236.516 137.562 236.516 138.414ZM247.989 147V136.83L244.983 138.018V136.686L248.619 134.094H250.221V147H247.989ZM255.02 147V136.83L252.014 138.018V136.686L255.65 134.094H257.252V147H255.02ZM262.051 147V136.83L259.045 138.018V136.686L262.681 134.094H264.283V147H262.051Z" fill="#003C4A"/>
<path d="M121.296 50V38.368H125.104C127.803 38.368 129.152 39.6 129.152 42.064C129.152 44.528 127.803 45.76 125.104 45.76H122.768V50H121.296ZM124.8 39.552H122.768V44.576H124.8C125.803 44.576 126.528 44.3733 126.976 43.968C127.435 43.5627 127.664 42.928 127.664 42.064C127.664 41.2 127.435 40.5653 126.976 40.16C126.528 39.7547 125.803 39.552 124.8 39.552ZM135.9 50L135.66 48.656C134.978 49.6693 134.05 50.176 132.876 50.176C132.034 50.176 131.356 49.9413 130.844 49.472C130.343 48.992 130.092 48.3573 130.092 47.568C130.092 46.6933 130.391 46.016 130.988 45.536C131.596 45.0453 132.439 44.8 133.516 44.8H135.436V44.272C135.436 43.6747 135.303 43.2533 135.036 43.008C134.78 42.7627 134.338 42.64 133.708 42.64C133.303 42.64 132.871 42.688 132.412 42.784C131.954 42.8693 131.436 43.0133 130.86 43.216V42.048C131.266 41.8667 131.73 41.728 132.252 41.632C132.775 41.5253 133.266 41.472 133.724 41.472C135.826 41.472 136.876 42.4053 136.876 44.272V50H135.9ZM133.052 49.024C133.543 49.024 134.002 48.8853 134.428 48.608C134.855 48.32 135.196 47.9307 135.452 47.44V45.856H133.66C132.935 45.856 132.396 45.9893 132.044 46.256C131.703 46.512 131.532 46.912 131.532 47.456C131.532 47.936 131.666 48.32 131.932 48.608C132.21 48.8853 132.583 49.024 133.052 49.024ZM139.2 50V41.648H140.176L140.432 43.072C140.784 42.56 141.216 42.1653 141.728 41.888C142.24 41.6107 142.816 41.472 143.456 41.472C144.416 41.472 145.152 41.76 145.664 42.336C146.176 42.912 146.432 43.744 146.432 44.832V50H144.992V44.88C144.992 43.4293 144.363 42.704 143.104 42.704C142.571 42.704 142.08 42.8693 141.632 43.2C141.195 43.52 140.864 43.9573 140.64 44.512V50H139.2ZM149.019 47.456V42.832H147.579V42.096L149.019 41.616L149.595 39.344H150.459V41.648H152.267V42.832H150.459V47.44C150.459 48.3573 150.854 48.816 151.643 48.816C151.771 48.816 151.894 48.8107 152.011 48.8C152.139 48.7787 152.256 48.7627 152.363 48.752V50C152.214 50.032 152.059 50.0533 151.899 50.064C151.75 50.0747 151.59 50.08 151.419 50.08C150.598 50.08 149.99 49.8667 149.595 49.44C149.211 49.0133 149.019 48.352 149.019 47.456ZM157.437 50.176C156.178 50.176 155.202 49.792 154.509 49.024C153.816 48.2453 153.469 47.1787 153.469 45.824C153.469 44.4587 153.816 43.392 154.509 42.624C155.202 41.856 156.178 41.472 157.437 41.472C158.706 41.472 159.688 41.856 160.381 42.624C161.074 43.392 161.421 44.4587 161.421 45.824C161.421 47.1787 161.074 48.2453 160.381 49.024C159.688 49.792 158.706 50.176 157.437 50.176ZM157.437 48.992C158.258 48.992 158.882 48.7253 159.309 48.192C159.736 47.648 159.949 46.8587 159.949 45.824C159.949 44.7893 159.736 44.0053 159.309 43.472C158.882 42.928 158.258 42.656 157.437 42.656C156.626 42.656 156.008 42.928 155.581 43.472C155.154 44.0053 154.941 44.7893 154.941 45.824C154.941 46.8587 155.154 47.648 155.581 48.192C156.008 48.7253 156.626 48.992 157.437 48.992ZM163.294 50V41.648H164.27L164.526 43.072C164.878 42.56 165.31 42.1653 165.822 41.888C166.334 41.6107 166.91 41.472 167.55 41.472C168.51 41.472 169.246 41.76 169.758 42.336C170.27 42.912 170.526 43.744 170.526 44.832V50H169.086V44.88C169.086 43.4293 168.456 42.704 167.198 42.704C166.664 42.704 166.174 42.8693 165.726 43.2C165.288 43.52 164.958 43.9573 164.734 44.512V50H163.294ZM179.145 49.584C178.846 49.7653 178.446 49.9093 177.945 50.016C177.454 50.1227 176.915 50.176 176.329 50.176C175.006 50.176 174.003 49.8027 173.321 49.056C172.649 48.2987 172.313 47.1947 172.313 45.744C172.313 44.3467 172.633 43.2853 173.273 42.56C173.923 41.8347 174.851 41.472 176.057 41.472C178.382 41.472 179.545 42.7573 179.545 45.328V46.256H173.769C173.833 47.1947 174.083 47.8827 174.521 48.32C174.958 48.7467 175.609 48.96 176.473 48.96C176.953 48.96 177.406 48.912 177.833 48.816C178.259 48.72 178.697 48.5707 179.145 48.368V49.584ZM176.057 42.656C175.353 42.656 174.803 42.8693 174.409 43.296C174.025 43.712 173.811 44.32 173.769 45.12H178.153C178.153 44.2453 177.987 43.616 177.657 43.232C177.337 42.848 176.803 42.656 176.057 42.656ZM185.23 44.752V38.368H186.718V44.736C186.718 46.1547 186.958 47.2053 187.438 47.888C187.918 48.56 188.686 48.896 189.742 48.896C190.787 48.896 191.55 48.56 192.03 47.888C192.52 47.2053 192.766 46.1547 192.766 44.736V38.368H194.254V44.752C194.254 46.6187 193.875 47.9947 193.118 48.88C192.371 49.7547 191.246 50.192 189.742 50.192C188.227 50.192 187.096 49.7547 186.35 48.88C185.603 47.9947 185.23 46.6187 185.23 44.752Z" fill="#003C4A"/>
<path d="M121.296 82V70.368H125.104C127.803 70.368 129.152 71.6 129.152 74.064C129.152 76.528 127.803 77.76 125.104 77.76H122.768V82H121.296ZM124.8 71.552H122.768V76.576H124.8C125.803 76.576 126.528 76.3733 126.976 75.968C127.435 75.5627 127.664 74.928 127.664 74.064C127.664 73.2 127.435 72.5653 126.976 72.16C126.528 71.7547 125.803 71.552 124.8 71.552ZM130.841 82V73.648H131.817L132.105 75.216C132.649 74.16 133.427 73.632 134.441 73.632C134.654 73.632 134.841 73.648 135.001 73.68V74.944H134.633C134.025 74.944 133.518 75.1147 133.113 75.456C132.707 75.7973 132.43 76.2933 132.281 76.944V82H130.841ZM139.89 82.176C138.631 82.176 137.655 81.792 136.962 81.024C136.269 80.2453 135.922 79.1787 135.922 77.824C135.922 76.4587 136.269 75.392 136.962 74.624C137.655 73.856 138.631 73.472 139.89 73.472C141.159 73.472 142.141 73.856 142.834 74.624C143.527 75.392 143.874 76.4587 143.874 77.824C143.874 79.1787 143.527 80.2453 142.834 81.024C142.141 81.792 141.159 82.176 139.89 82.176ZM139.89 80.992C140.711 80.992 141.335 80.7253 141.762 80.192C142.189 79.648 142.402 78.8587 142.402 77.824C142.402 76.7893 142.189 76.0053 141.762 75.472C141.335 74.928 140.711 74.656 139.89 74.656C139.079 74.656 138.461 74.928 138.034 75.472C137.607 76.0053 137.394 76.7893 137.394 77.824C137.394 78.8587 137.607 79.648 138.034 80.192C138.461 80.7253 139.079 80.992 139.89 80.992ZM151.635 80.4V81.584C150.974 81.9787 150.136 82.176 149.123 82.176C147.832 82.176 146.856 81.8027 146.195 81.056C145.544 80.2987 145.219 79.1893 145.219 77.728C145.219 76.3733 145.566 75.328 146.259 74.592C146.952 73.8453 147.934 73.472 149.203 73.472C149.992 73.472 150.723 73.648 151.395 74V75.184C150.691 74.832 150.035 74.656 149.427 74.656C147.603 74.656 146.691 75.68 146.691 77.728C146.691 78.8373 146.899 79.6587 147.315 80.192C147.742 80.7253 148.408 80.992 149.315 80.992C149.678 80.992 150.046 80.944 150.419 80.848C150.792 80.752 151.198 80.6027 151.635 80.4ZM159.692 81.584C159.393 81.7653 158.993 81.9093 158.492 82.016C158.001 82.1227 157.462 82.176 156.876 82.176C155.553 82.176 154.55 81.8027 153.868 81.056C153.196 80.2987 152.86 79.1947 152.86 77.744C152.86 76.3467 153.18 75.2853 153.82 74.56C154.47 73.8347 155.398 73.472 156.604 73.472C158.929 73.472 160.092 74.7573 160.092 77.328V78.256H154.316C154.38 79.1947 154.63 79.8827 155.068 80.32C155.505 80.7467 156.156 80.96 157.02 80.96C157.5 80.96 157.953 80.912 158.38 80.816C158.806 80.72 159.244 80.5707 159.692 80.368V81.584ZM156.604 74.656C155.9 74.656 155.35 74.8693 154.956 75.296C154.572 75.712 154.358 76.32 154.316 77.12H158.7C158.7 76.2453 158.534 75.616 158.204 75.232C157.884 74.848 157.35 74.656 156.604 74.656ZM161.627 81.584V80.368C162.128 80.5813 162.582 80.736 162.987 80.832C163.403 80.928 163.84 80.976 164.299 80.976C165.686 80.976 166.379 80.56 166.379 79.728C166.379 79.3973 166.278 79.1413 166.075 78.96C165.872 78.768 165.515 78.6027 165.003 78.464L163.691 78.112C162.923 77.8987 162.363 77.6107 162.011 77.248C161.659 76.8747 161.483 76.4 161.483 75.824C161.483 75.0987 161.766 74.528 162.331 74.112C162.907 73.6853 163.68 73.472 164.651 73.472C165.184 73.472 165.67 73.5147 166.107 73.6C166.544 73.6853 166.923 73.8027 167.243 73.952V75.168C166.422 74.8373 165.59 74.672 164.747 74.672C163.531 74.672 162.923 75.024 162.923 75.728C162.923 76.0267 163.014 76.2667 163.195 76.448C163.387 76.6187 163.718 76.768 164.187 76.896L165.515 77.248C166.326 77.4613 166.912 77.76 167.275 78.144C167.638 78.5173 167.819 79.024 167.819 79.664C167.819 80.4427 167.515 81.056 166.907 81.504C166.299 81.952 165.456 82.176 164.379 82.176C163.867 82.176 163.366 82.1227 162.875 82.016C162.384 81.9093 161.968 81.7653 161.627 81.584ZM169.08 81.584V80.368C169.581 80.5813 170.035 80.736 170.44 80.832C170.856 80.928 171.293 80.976 171.752 80.976C173.139 80.976 173.832 80.56 173.832 79.728C173.832 79.3973 173.731 79.1413 173.528 78.96C173.325 78.768 172.968 78.6027 172.456 78.464L171.144 78.112C170.376 77.8987 169.816 77.6107 169.464 77.248C169.112 76.8747 168.936 76.4 168.936 75.824C168.936 75.0987 169.219 74.528 169.784 74.112C170.36 73.6853 171.133 73.472 172.104 73.472C172.637 73.472 173.123 73.5147 173.56 73.6C173.997 73.6853 174.376 73.8027 174.696 73.952V75.168C173.875 74.8373 173.043 74.672 172.2 74.672C170.984 74.672 170.376 75.024 170.376 75.728C170.376 76.0267 170.467 76.2667 170.648 76.448C170.84 76.6187 171.171 76.768 171.64 76.896L172.968 77.248C173.779 77.4613 174.365 77.76 174.728 78.144C175.091 78.5173 175.272 79.024 175.272 79.664C175.272 80.4427 174.968 81.056 174.36 81.504C173.752 81.952 172.909 82.176 171.832 82.176C171.32 82.176 170.819 82.1227 170.328 82.016C169.837 81.9093 169.421 81.7653 169.08 81.584Z" fill="#003C4A"/>
<path d="M121.296 114V102.368H125.248C127.947 102.368 129.296 103.509 129.296 105.792C129.296 107.573 128.389 108.672 126.576 109.088L129.808 114H128.112L125.168 109.392L122.768 109.008V114H121.296ZM122.768 108.016H124.544C125.739 108.016 126.581 107.851 127.072 107.52C127.563 107.179 127.808 106.603 127.808 105.792C127.808 105.237 127.707 104.8 127.504 104.48C127.301 104.149 126.96 103.915 126.48 103.776C126.011 103.627 125.365 103.552 124.544 103.552H122.768V108.016ZM136.415 108.944V108.016H140.271V113.44C139.813 113.675 139.247 113.861 138.575 114C137.914 114.128 137.237 114.192 136.543 114.192C134.687 114.192 133.274 113.68 132.303 112.656C131.343 111.621 130.863 110.091 130.863 108.064C130.863 106.837 131.093 105.787 131.551 104.912C132.021 104.027 132.687 103.349 133.551 102.88C134.426 102.411 135.471 102.176 136.687 102.176C137.231 102.176 137.743 102.224 138.223 102.32C138.703 102.416 139.141 102.565 139.535 102.768V104.048C139.013 103.845 138.527 103.701 138.079 103.616C137.631 103.531 137.183 103.488 136.735 103.488C135.349 103.488 134.277 103.888 133.519 104.688C132.762 105.477 132.383 106.603 132.383 108.064C132.383 111.275 133.781 112.88 136.575 112.88C136.949 112.88 137.327 112.853 137.711 112.8C138.095 112.736 138.479 112.656 138.863 112.56V109.424L136.415 108.944ZM142.405 114V102.368H146.133C147.531 102.368 148.555 102.624 149.205 103.136C149.856 103.637 150.181 104.432 150.181 105.52C150.181 106.053 150.037 106.523 149.749 106.928C149.461 107.323 149.056 107.637 148.533 107.872C149.963 108.277 150.677 109.221 150.677 110.704C150.677 112.901 149.211 114 146.277 114H142.405ZM143.829 107.408H145.861C146.875 107.408 147.6 107.264 148.037 106.976C148.485 106.688 148.709 106.203 148.709 105.52C148.709 104.805 148.491 104.304 148.053 104.016C147.616 103.717 146.885 103.568 145.861 103.568H143.829V107.408ZM143.829 112.784H146.085C147.216 112.784 148.016 112.629 148.485 112.32C148.955 112 149.189 111.467 149.189 110.72C149.189 109.963 148.949 109.424 148.469 109.104C147.989 108.784 147.195 108.624 146.085 108.624H143.829V112.784Z" fill="#003C4A"/>
<path d="M121.296 146V134.368H122.784V139.376H128.912V134.368H130.4V146H128.912V140.656H122.784V146H121.296ZM139.207 145.584C138.908 145.765 138.508 145.909 138.007 146.016C137.516 146.123 136.978 146.176 136.391 146.176C135.068 146.176 134.066 145.803 133.383 145.056C132.711 144.299 132.375 143.195 132.375 141.744C132.375 140.347 132.695 139.285 133.335 138.56C133.986 137.835 134.914 137.472 136.119 137.472C138.444 137.472 139.607 138.757 139.607 141.328V142.256H133.831C133.895 143.195 134.146 143.883 134.583 144.32C135.02 144.747 135.671 144.96 136.535 144.96C137.015 144.96 137.468 144.912 137.895 144.816C138.322 144.72 138.759 144.571 139.207 144.368V145.584ZM136.119 138.656C135.415 138.656 134.866 138.869 134.471 139.296C134.087 139.712 133.874 140.32 133.831 141.12H138.215C138.215 140.245 138.05 139.616 137.719 139.232C137.399 138.848 136.866 138.656 136.119 138.656ZM140.426 146L143.45 141.696L140.586 137.648H142.234L144.394 140.816L146.618 137.648H148.09L145.21 141.68L148.25 146H146.602L144.266 142.56L141.898 146H140.426Z" fill="#003C4A"/>
</svg>
