<svg width="356" height="140" viewBox="0 0 356 140" fill="none" xmlns="http://www.w3.org/2000/svg">
<path d="M141.681 110.173C141.681 110.173 147.557 110.186 147.565 110.179C152.16 110.179 152.674 107.771 154.658 105.293C156.639 102.816 157.686 101.642 158.902 102.562C163.175 105.972 166.732 108.564 169.844 106.23C175.482 101.929 177.971 91.3878 183.248 85.3272C184.48 83.7591 187.23 81.4324 188.537 79.9296C189.151 79.2855 188.798 78.6748 188.166 79.0534C185.505 80.8333 179.508 84.7267 175.067 92.9516C170.964 100.405 168 102.949 164.69 100.973C162.993 100.029 161.95 98.6698 159.643 97.0611C157.335 95.4524 155.085 98.7511 153.899 99.9333C152.712 101.116 150.298 104.54 148.221 104.934C146.144 105.328 143.819 104.738 142.386 107.594C141.546 109.219 141.681 110.173 141.681 110.173Z" fill="#2C7493"/>
<path d="M196.023 52.8165C198.443 56.0601 198.263 58.8278 196.307 61.4534C194.915 63.5509 194.066 65.3033 193.797 68.1435C193.441 72.8333 197.008 77.1532 201.281 77.5782C203.424 77.6667 205.278 76.9588 206.801 75.4589C211.855 70.4819 211.831 58.3607 211.796 56.5315L214 56.5039C214.227 57.0856 214.98 58.8525 216.515 61.1168C222.169 69.4549 226.866 71.4988 230.628 70.7401C233.204 70.1526 225.739 64.694 225.133 64.1138C224.526 63.5321 224.919 63.049 226.002 63.6568C226.349 63.8512 240.721 71.2928 236.428 74.4203C232.826 76.8674 226.715 76.2103 222.096 72.2922C217.43 68.1958 213.482 60.261 213.444 60.1812L213.187 59.6648C213.187 59.6648 213.152 59.5937 213.15 59.672C213.157 59.9346 213.176 60.6875 213.18 60.8659C213.404 73.2177 209.504 79.8426 202.072 80.5563C196.431 80.9944 189.93 76.8674 189.095 69.9872C188.156 60.0536 194.666 53.9683 196.023 52.8165Z" fill="#2C7493"/>
<path d="M142.925 30.1495C142.925 30.1495 143.85 28.3841 146.253 29.488C148.144 30.399 152.015 34.3316 156.131 42.6855C163.408 57.7689 161.666 50.1924 158.305 42.262C156.91 38.9691 155.292 35.7212 153.505 33.1189C151.696 30.486 148.758 27.315 146.234 25.892C142.411 23.7698 141.571 25.8485 141.837 27.8242C141.986 29.0572 142.925 30.1495 142.925 30.1495Z" fill="#2C7493"/>
<path d="M118.939 111.679C120.298 110.032 121.538 109.423 124.663 109.423C127.825 109.423 128.846 108.547 131.489 103.569C134.411 98.065 137.21 96.246 139.686 94.6373C141.948 93.3738 145.138 91.7665 146.697 87.9399C147.032 87.203 147.468 85.9975 147.97 84.602L148.007 84.5019C148.565 82.9527 149.218 81.1409 149.904 79.5017L149.912 79.5351C149.912 79.5351 152.031 74.1751 151.056 81.4339C150.618 84.7007 150.816 86.7634 151.166 88.0603C151.489 88.9538 152.054 89.9185 153.047 90.7598C154.421 91.9246 152.68 91.3415 150.34 92.267C149.797 92.4802 149.25 92.8632 148.691 93.3303C147.325 94.7417 145.554 96.2402 143.447 97.3165C137.954 100.118 135.037 105.653 133.185 108.019L132.692 108.727C130.107 112.449 128.684 114.497 125.852 114.497C125.852 114.497 118.006 114.505 118 114.497C118.017 114.042 118.135 112.657 118.939 111.679Z" fill="#2C7493"/>
<path d="M172.335 50.9423C175.711 45.5098 182.752 39.4841 191.892 39.4841C192.47 39.4841 193.06 39.5087 193.655 39.5595C193.664 39.5595 193.671 39.5624 193.677 39.5624C195.002 37.4706 196.964 34.7392 198.601 33.9558C200.505 33.0463 203.043 33.7615 203.881 36.3667C204.452 38.1423 204.005 41.4931 203.501 41.1334C202.858 40.675 202.93 34.7798 199.752 36.77C198.524 37.5417 197.595 39.6132 197.295 40.3501C200.687 41.3974 203.252 43.2077 204.948 45.755C206.036 47.471 207.81 51.3543 206.644 56.0586C206.128 58.1387 205.824 55.561 205.263 52.8542C204.742 50.5753 204.07 48.0397 201.424 45.8623C198.778 43.685 194.866 42.3214 190.23 42.8306C185.74 43.3339 181.714 45.5403 178.737 49.0464C178 49.9124 176.229 52.5293 175.899 53.037C173.916 56.0847 172.782 57.8225 168.868 57.7833C169.493 56.1297 170.552 53.8102 172.335 50.9423Z" fill="#2C7493"/>
<path d="M135.761 27.0698C137.876 28.3609 140.474 30.4628 143.254 33.7049C146.291 37.2501 149.768 42.2141 153.586 48.4618C155.81 52.0984 156.457 54.2076 156.338 54.4571C156.335 54.4571 156.335 54.4571 156.335 54.4571C156.273 54.4571 155.465 54.3541 151.871 49.3553C143.945 37.8884 136.989 30.2945 135.301 31.2562L135.295 31.2591C135.094 31.3839 134.988 31.6421 134.982 32.028C135.112 36.5234 144.718 53.4315 158.448 61.4751C156.442 66.5464 157.184 70.7749 159.502 74.9497C161.091 77.8102 166.926 83.6794 172.314 82.1461C177.705 80.6113 176.007 65.7398 167.144 62.7516C164.61 61.9784 163.009 63.5596 162.443 65.6934C161.907 67.7083 162.156 70.183 162.328 71.3609C162.39 71.7903 162.191 71.6684 162.074 71.4798C158.841 66.1939 161.302 61.4968 164.322 60.5467C167.846 59.4384 172.651 61.9538 175.555 66.7175C180.224 75.0411 178.025 82.0895 174.285 84.3176C167.567 88.4083 156.579 81.2699 154.28 72.8826C153.417 69.3953 153.949 65.7862 155.248 62.8502C135.766 49.3568 131.393 36.7003 130.528 30.3322C130.059 26.1559 132.942 25.3494 135.761 27.0698Z" fill="#2C7493"/>
</svg>
