<svg width="356" height="153" viewBox="0 0 356 153" fill="none" xmlns="http://www.w3.org/2000/svg">
<path d="M66.9555 103.05C56.1961 103.05 49.8301 95.1342 49.8301 78.1483C49.8301 60.724 58.079 51.7233 68.8384 51.7233C71.3699 51.7637 73.8595 52.3953 76.1194 53.5707C78.3793 54.7461 80.3504 56.4344 81.8841 58.5084L78.5218 61.901C75.922 59.578 72.6359 58.2279 69.197 58.0699C62.3155 58.0699 57.8548 64.3473 57.8548 76.7405C57.8548 91.0723 61.9568 96.6112 68.2556 96.6112C70.5828 96.6789 72.8619 95.9211 74.7112 94.4649V80.3639H68.4349V74.4557H82.4221V97.1882C78.1582 101.062 72.641 103.153 66.9555 103.05ZM109.007 72.471C108.023 72.167 107.007 71.9888 105.981 71.9402C103.896 71.9402 101.968 73.5788 98.4492 78.0791V102.312H91.0745V65.5243H97.1715L97.7991 71.8017C101.677 66.6321 104.12 64.8781 106.765 64.8781C107.868 64.893 108.951 65.1777 109.926 65.709L109.007 72.471ZM135.031 102.312L134.448 98.319C131.47 101.236 127.53 102.885 123.42 102.935C116.382 102.935 112.661 99.2422 112.661 92.734C112.661 85.2104 118.332 80.1792 130.862 80.1792H133.44V76.9713C133.44 72.5402 131.198 70.3939 126.043 70.3939C122.46 70.4932 118.92 71.219 115.575 72.5402L114.499 67.9245C118.728 65.9622 123.309 64.9324 127.948 64.9012C136.914 64.9012 140.725 69.3323 140.725 76.0482V102.358L135.031 102.312ZM133.44 85.1642H130.369C122.232 85.1642 119.99 87.9567 119.99 91.8108C119.914 92.5769 120.003 93.3509 120.253 94.0769C120.503 94.8029 120.906 95.4626 121.434 96.0082C121.962 96.5539 122.601 96.9718 123.305 97.2318C124.009 97.4917 124.76 97.5872 125.505 97.5113C128.485 97.2636 131.29 95.9585 133.44 93.8187V85.1642ZM169.865 102.312L169.304 98.319C166.316 101.234 162.37 102.882 158.254 102.935C151.215 102.935 147.494 99.2422 147.494 92.734C147.494 85.2104 153.165 80.1792 165.718 80.1792H168.296V76.9713C168.296 72.5402 166.054 70.3939 160.899 70.3939C157.316 70.4932 153.776 71.219 150.431 72.5402L149.355 67.9245C153.585 65.9655 158.165 64.9358 162.804 64.9012C171.77 64.9012 175.558 69.3323 175.558 76.0482V102.358L169.865 102.312ZM168.296 85.1642H165.225C156.976 85.1642 154.824 87.9798 154.824 91.8108C154.751 92.576 154.844 93.3482 155.095 94.0722C155.346 94.7962 155.75 95.4541 156.276 95.9988C156.803 96.5435 157.441 96.9616 158.143 97.2231C158.845 97.4845 159.595 97.5829 160.338 97.5113C163.328 97.2745 166.143 95.9682 168.296 93.8187V85.1642ZM190.711 102.819C186.228 102.819 184.188 101.481 184.188 95.5034V49.9463H191.72V92.5724C191.72 96.8651 192.235 97.5343 194.298 97.5343C194.948 97.5343 195.732 97.5343 196.248 97.5343L196.606 102.15C194.73 102.674 192.788 102.9 190.846 102.819H190.711Z" fill="#00758F"/>
<path d="M222.404 102.308H213.213C207.524 86.0215 202.874 69.3694 199.293 52.4585H207.767C210.277 65.7518 214.357 79.8528 218.459 93.9999C222.474 80.3666 225.678 66.4937 228.052 52.4585H235.741C232.583 69.4121 228.123 86.0809 222.404 102.308ZM281.581 102.308C281.289 87.8149 280.28 72.8369 279.339 62.5669L267.145 102.308H260.757L248.428 62.5669C247.509 73.5754 246.859 87.8149 246.635 102.308H239.26C239.686 86.1532 240.829 68.7058 242.757 52.4585H252.956L264.567 89.0842L276.201 52.4585H285.862C287.722 68.6135 289.157 86.1301 289.583 102.308H281.581ZM295.209 97.2309H293.461V96.2155H298.235V97.1848H296.487V102.262H295.209V97.2309ZM299.491 96.2155H301.553L302.808 100.647L304.153 96.2155H306.17V102.308H304.893V97.1848L303.301 102.401H302.248L300.679 97.1848V102.401H299.491V96.2155Z" fill="#F29111"/>
</svg>
