<svg width="24" height="24" viewBox="0 0 24 24" fill="none" xmlns="http://www.w3.org/2000/svg">
<path d="M7 19H17C17.553 19 18 18.552 18 18C18 17.448 17.553 17 17 17H7C6.447 17 6 17.448 6 18C6 18.552 6.447 19 7 19Z" fill="white"/>
<path d="M11.4693 14.78C11.6153 14.927 11.8073 15 11.9993 15C12.1913 15 12.3833 14.927 12.5293 14.78L15.7793 11.53C16.2513 11.06 15.9183 10.25 15.2493 10.25H12.9993V5.75C12.9993 5.198 12.5523 4.75 11.9993 4.75C11.4463 4.75 10.9993 5.198 10.9993 5.75V10.25H8.74927C8.08027 10.25 7.74727 11.06 8.21927 11.53L11.4693 14.78Z" fill="white"/>
</svg>
