<svg width="88" height="88" viewBox="0 0 88 88" fill="none" xmlns="http://www.w3.org/2000/svg">
<g clip-path="url(#clip0)">
<path d="M52.5159 50.0678C51.8446 49.3967 50.7566 49.3967 50.0853 50.0678L50.0659 50.0873C49.3947 50.7584 49.3947 51.8467 50.0659 52.5181C50.4015 52.8536 50.8414 53.0215 51.2812 53.0215C51.721 53.0215 52.1608 52.8536 52.4965 52.5181L52.5159 52.4987C53.1871 51.8275 53.1871 50.7392 52.5159 50.0678Z" fill="#003C4A"/>
<path d="M52.5067 35.4929C47.8154 30.8019 40.1823 30.8021 35.491 35.4929C30.7999 40.1842 30.7999 47.8171 35.491 52.5084C37.7594 54.7768 40.8451 56.03 44.0136 56.0298C44.6414 56.0298 45.2731 55.9806 45.9018 55.8803C46.8392 55.7307 47.4777 54.8495 47.3282 53.9121C47.1786 52.9747 46.2947 52.3366 45.36 52.4858C42.6427 52.9194 39.8632 52.0189 37.9218 50.0776C36.2986 48.4544 35.4046 46.2962 35.4046 44.0007C35.4046 41.7051 36.2985 39.5469 37.9218 37.9237C41.2725 34.5728 46.7251 34.5725 50.0761 37.9237C52.1125 39.9599 52.9902 42.8647 52.4244 45.6941C52.2383 46.625 52.8419 47.5304 53.7728 47.7166C54.7031 47.9032 55.6091 47.2991 55.7952 46.3682C56.5867 42.4091 55.3574 38.3438 52.5067 35.4929Z" fill="#003C4A"/>
<path d="M44 0C40.4934 0 37.6406 2.85277 37.6406 6.35935C37.6406 9.27038 39.6072 11.7289 42.2812 12.4808V25.4352C42.2812 26.3843 43.0509 27.1539 44 27.1539C44.9491 27.1539 45.7187 26.3843 45.7187 25.4352V12.4808C48.3927 11.729 50.3593 9.27038 50.3593 6.35935C50.3593 2.85277 47.5066 0 44 0ZM44.0232 9.28001C44.0154 9.28001 44.0077 9.27881 44 9.27881C43.9922 9.27881 43.9845 9.27984 43.9768 9.28001C42.3764 9.26729 41.0781 7.96259 41.0781 6.35935C41.0781 4.7482 42.3888 3.43749 44 3.43749C45.6111 3.43749 46.9218 4.7482 46.9218 6.35935C46.9218 7.96259 45.6235 9.26729 44.0232 9.28001Z" fill="#003C4A"/>
<path d="M45.7187 75.5192V62.5626C45.7187 61.6135 44.9491 60.8439 44 60.8439C43.0509 60.8439 42.2812 61.6135 42.2812 62.5626V75.5192C39.6072 76.271 37.6406 78.7296 37.6406 81.6407C37.6406 85.1472 40.4934 88 44 88C47.5066 88 50.3593 85.1472 50.3593 81.6407C50.3593 78.7296 48.3927 76.271 45.7187 75.5192ZM44 84.5625C42.3888 84.5625 41.0781 83.2518 41.0781 81.6407C41.0781 80.0295 42.3888 78.7188 44 78.7188C45.6111 78.7188 46.9218 80.0295 46.9218 81.6407C46.9218 83.2518 45.6111 84.5625 44 84.5625Z" fill="#003C4A"/>
<path d="M25.4374 42.2812H12.4808C11.7289 39.6072 9.27039 37.6406 6.35935 37.6406C2.85277 37.6406 0 40.4934 0 44C0 47.5066 2.85277 50.3593 6.35935 50.3593C9.27039 50.3593 11.7289 48.3927 12.4808 45.7187H25.4374C26.3865 45.7187 27.1561 44.9491 27.1561 44C27.1561 43.0509 26.3865 42.2812 25.4374 42.2812ZM6.35935 46.9218C4.7482 46.9218 3.43749 45.6111 3.43749 44C3.43749 42.3888 4.7482 41.0781 6.35935 41.0781C7.9705 41.0781 9.28121 42.3888 9.28121 44C9.28121 45.6111 7.9705 46.9218 6.35935 46.9218Z" fill="#003C4A"/>
<path d="M81.6383 37.6406C78.7273 37.6406 76.2688 39.6072 75.5168 42.2812H62.5625C61.6134 42.2812 60.8438 43.0509 60.8438 44C60.8438 44.9491 61.6134 45.7187 62.5625 45.7187H75.5168C76.2688 48.3927 78.7273 50.3593 81.6383 50.3593C85.1449 50.3593 87.9977 47.5066 87.9977 44C87.9977 40.4934 85.1449 37.6406 81.6383 37.6406ZM81.6383 46.9218C80.0349 46.9218 78.7304 45.6237 78.7176 44.0232C78.7176 44.0153 78.7188 44.0077 78.7188 44C78.7188 43.9922 78.7178 43.9845 78.7176 43.9768C78.7304 42.3764 80.0351 41.0781 81.6383 41.0781C83.2495 41.0781 84.5602 42.3888 84.5602 44C84.5602 45.6111 83.2495 46.9218 81.6383 46.9218Z" fill="#003C4A"/>
<path d="M32.0894 55.9105C31.4179 55.2395 30.3299 55.2395 29.6586 55.9105L20.4984 65.0707C19.5579 64.5405 18.4929 64.2569 17.3837 64.2569C15.685 64.2569 14.0881 64.9184 12.8869 66.1195C10.4075 68.5989 10.4075 72.6332 12.8871 75.113C14.1268 76.3527 15.7553 76.9725 17.3837 76.9725C19.0123 76.9725 20.6407 76.3527 21.8804 75.113C23.0815 73.9117 23.7432 72.3148 23.7432 70.6162C23.7432 69.5069 23.4594 68.442 22.9292 67.5015L32.0894 58.3413C32.7606 57.6701 32.7606 56.5818 32.0894 55.9105ZM19.4496 72.6821C18.3102 73.8215 16.4566 73.821 15.3176 72.6823C14.1784 71.543 14.1784 69.6893 15.3176 68.5501C15.8695 67.9981 16.6032 67.6943 17.3837 67.6943C18.1638 67.6943 18.897 67.9979 19.4489 68.5494C19.4491 68.5496 19.4494 68.5499 19.4496 68.5503C19.4499 68.5506 19.4503 68.5508 19.4505 68.5511C20.0018 69.1029 20.3055 69.8362 20.3055 70.6164C20.3057 71.3963 20.0017 72.1302 19.4496 72.6821Z" fill="#003C4A"/>
<path d="M75.1102 12.8869C72.6307 10.4074 68.5962 10.4076 66.1171 12.8869C64.9158 14.0879 64.2541 15.685 64.2541 17.3836C64.2541 18.4927 64.5379 19.5578 65.0681 20.4983L55.9096 29.6568C55.2385 30.328 55.2385 31.4163 55.9096 32.0876C56.2455 32.4231 56.6851 32.5911 57.1251 32.5911C57.5651 32.5911 58.0048 32.4231 58.3404 32.0876L67.4989 22.9291C68.4394 23.4594 69.5044 23.743 70.6136 23.743C72.3123 23.743 73.9091 23.0814 75.1104 21.8804C76.3114 20.6793 76.973 19.0823 76.973 17.3836C76.973 15.685 76.3114 14.0879 75.1102 12.8869ZM72.6797 19.4497C72.1278 20.0018 71.3941 20.3055 70.6136 20.3055C69.8416 20.3055 69.1161 20.0073 68.5661 19.4666C68.5603 19.4605 68.5553 19.4538 68.5493 19.448C68.5432 19.442 68.5367 19.437 68.5307 19.4312C67.99 18.8813 67.6916 18.1558 67.6916 17.3836C67.6916 16.6033 67.9956 15.8696 68.5475 15.3177C69.1171 14.7481 69.8655 14.4633 70.6136 14.4633C71.3618 14.4633 72.11 14.7479 72.6797 15.3177C73.8191 16.4569 73.8191 18.3105 72.6797 19.4497Z" fill="#003C4A"/>
<path d="M75.1104 66.1197C73.9092 64.9186 72.3123 64.2571 70.6136 64.2571C69.5044 64.2571 68.4394 64.5409 67.4989 65.0709L58.3404 55.9124C57.6691 55.2414 56.5811 55.2414 55.9096 55.9124C55.2385 56.5836 55.2385 57.6719 55.9096 58.3432L65.0681 67.5017C64.5379 68.4422 64.2541 69.5072 64.2541 70.6164C64.2541 72.3151 64.9158 73.912 66.1169 75.1132C67.3566 76.3529 68.9851 76.9727 70.6135 76.9727C72.2422 76.9727 73.8705 76.3529 75.1104 75.113C77.5899 72.6334 77.5899 68.5992 75.1104 66.1197ZM72.6799 72.6825C71.5402 73.8219 69.6867 73.8216 68.5477 72.6825C67.9957 72.1307 67.6918 71.3969 67.6918 70.6164C67.6918 69.8444 67.9902 69.1189 68.5309 68.5689C68.5369 68.5631 68.5436 68.5581 68.5494 68.5521C68.5555 68.546 68.5604 68.5395 68.5663 68.5333C69.1161 67.9928 69.8416 67.6946 70.6138 67.6946C71.3941 67.6946 72.128 67.9985 72.6799 68.5503C73.8189 69.6897 73.8189 71.5434 72.6799 72.6825Z" fill="#003C4A"/>
<path d="M32.0885 29.6593L22.9283 20.4991C23.4585 19.5586 23.7423 18.4935 23.7423 17.3844C23.7423 15.6858 23.0806 14.0887 21.8795 12.8877C19.4001 10.4084 15.3658 10.408 12.886 12.8877C11.685 14.0887 11.0234 15.6858 11.0234 17.3844C11.0234 19.0831 11.685 20.6801 12.886 21.8812C14.0874 23.0822 15.6843 23.7438 17.383 23.7438C18.4922 23.7438 19.5572 23.46 20.4977 22.9299L29.6579 32.0902C29.9935 32.4257 30.4334 32.5936 30.8732 32.5936C31.313 32.5936 31.7529 32.4257 32.0885 32.0902C32.7597 31.419 32.7597 30.3307 32.0885 29.6593ZM19.4496 19.4497C19.4494 19.4498 19.4491 19.4502 19.4487 19.4503C19.4484 19.4507 19.4482 19.451 19.4479 19.4512C18.8961 20.0026 18.1628 20.3061 17.3826 20.3061C16.6023 20.3061 15.8684 20.0022 15.3165 19.4503C14.1775 18.3112 14.1775 16.4575 15.3167 15.3183C15.8864 14.7487 16.6346 14.4639 17.3828 14.4639C18.131 14.4639 18.8793 14.7487 19.4489 15.3183C19.4489 15.3183 19.4489 15.3183 19.4491 15.3183C20.0009 15.8702 20.3048 16.6038 20.3048 17.3844C20.3048 18.1646 20.0011 18.8978 19.4496 19.4497Z" fill="#003C4A"/>
</g>
<defs>
<clipPath id="clip0">
<rect width="88" height="88" fill="white"/>
</clipPath>
</defs>
</svg>
