<svg width="260" height="260" viewBox="0 0 260 260" fill="none" xmlns="http://www.w3.org/2000/svg">
<g filter="url(#filter0_i)">
<path fill-rule="evenodd" clip-rule="evenodd" d="M0 0H260V260H0V0ZM198.756 217.963C186.705 217.963 179.892 211.677 174.654 203.126L154.799 214.661C161.972 228.833 176.631 239.646 199.321 239.646C222.527 239.646 239.807 227.595 239.807 205.598C239.807 185.194 228.086 176.119 207.328 167.217L201.22 164.601C190.737 160.061 186.198 157.094 186.198 149.764C186.198 143.834 190.733 139.294 197.889 139.294C204.905 139.294 209.424 142.253 213.613 149.764L232.639 137.548C224.591 123.393 213.423 117.986 197.889 117.986C176.07 117.986 162.108 131.936 162.108 150.259C162.108 170.151 173.821 179.561 191.451 187.072L197.559 189.693C208.702 194.567 215.346 197.534 215.346 205.912C215.346 212.903 208.88 217.963 198.756 217.963ZM104.071 217.81C95.6763 217.81 92.1849 212.053 88.3468 205.243L68.4588 217.284C74.2201 229.477 85.5487 239.6 105.111 239.6C126.761 239.6 141.593 228.086 141.593 202.788V119.381H117.161V202.458C117.161 214.669 112.098 217.81 104.071 217.81Z" fill="#94CFDC"/>
</g>
<defs>
<filter id="filter0_i" x="0" y="0" width="262" height="264" filterUnits="userSpaceOnUse" color-interpolation-filters="sRGB">
<feFlood flood-opacity="0" result="BackgroundImageFix"/>
<feBlend mode="normal" in="SourceGraphic" in2="BackgroundImageFix" result="shape"/>
<feColorMatrix in="SourceAlpha" type="matrix" values="0 0 0 0 0 0 0 0 0 0 0 0 0 0 0 0 0 0 127 0" result="hardAlpha"/>
<feOffset dx="2" dy="4"/>
<feGaussianBlur stdDeviation="2"/>
<feComposite in2="hardAlpha" operator="arithmetic" k2="-1" k3="1"/>
<feColorMatrix type="matrix" values="0 0 0 0 0 0 0 0 0 0.235294 0 0 0 0 0.290196 0 0 0 0.3 0"/>
<feBlend mode="normal" in2="shape" result="effect1_innerShadow"/>
</filter>
</defs>
</svg>
