<svg width="300" height="267" viewBox="0 0 300 267" fill="none" xmlns="http://www.w3.org/2000/svg">
<g opacity="0.7" clip-path="url(#clip0)" filter="url(#filter0_i)">
<path d="M300.029 132.798C300.029 112.958 275.141 94.1548 236.984 82.4947C245.79 43.6684 241.876 12.7783 224.632 2.88859C220.657 0.568778 216.01 -0.530079 210.935 -0.530079V13.0835C213.748 13.0835 216.01 13.633 217.906 14.6708C226.222 19.4325 229.83 37.5637 227.017 60.8839C226.344 66.6223 225.244 72.6661 223.898 78.8319C211.913 75.9016 198.827 73.6428 185.069 72.1777C176.813 60.8839 168.253 50.6278 159.631 41.6538C179.565 23.1564 198.277 13.0225 210.996 13.0225V-0.591125C194.18 -0.591125 172.166 11.3742 149.908 32.1304C127.65 11.4963 105.636 -0.346934 88.8198 -0.346934V13.2667C101.478 13.2667 120.251 23.3396 140.185 41.7149C131.624 50.6889 123.063 60.8839 114.931 72.1777C101.111 73.6428 88.0249 75.9016 76.0397 78.8929C74.6332 72.7881 73.5937 66.8665 72.8599 61.1891C69.9859 37.8689 73.5325 19.7377 81.7877 14.915C83.6222 13.8161 86.007 13.3277 88.8198 13.3277V-0.285887C83.6833 -0.285887 79.036 0.81297 75.0001 3.13278C57.8172 13.0225 53.9648 43.8516 62.8314 82.5558C24.7967 94.2769 0.03125 113.019 0.03125 132.798C0.03125 152.638 24.919 171.441 63.076 183.101C54.2706 221.928 58.1841 252.818 75.4282 262.707C79.4029 265.027 84.0502 266.126 89.1867 266.126C106.003 266.126 128.016 254.161 150.275 233.405C172.533 254.039 194.547 265.882 211.363 265.882C216.499 265.882 221.147 264.783 225.182 262.463C242.365 252.573 246.218 221.744 237.351 183.04C275.264 171.38 300.029 152.577 300.029 132.798ZM220.413 92.0792C218.15 99.9544 215.337 108.074 212.158 116.193C209.651 111.309 207.021 106.425 204.147 101.542C201.334 96.6578 198.338 91.8961 195.342 87.2564C204.025 88.5384 212.402 90.1257 220.413 92.0792ZM192.407 157.095C187.637 165.336 182.745 173.15 177.67 180.415C168.558 181.209 159.325 181.636 150.03 181.636C140.797 181.636 131.563 181.209 122.513 180.476C117.438 173.212 112.485 165.458 107.715 157.278C103.068 149.281 98.8483 141.162 94.9959 132.981C98.7872 124.801 103.068 116.62 107.654 108.623C112.423 100.382 117.315 92.5676 122.391 85.3029C131.502 84.5093 140.735 84.082 150.03 84.082C159.264 84.082 168.497 84.5093 177.547 85.2419C182.623 92.5065 187.576 100.26 192.345 108.44C196.993 116.437 201.212 124.557 205.064 132.737C201.212 140.917 196.993 149.098 192.407 157.095ZM212.158 149.159C215.46 157.339 218.273 165.52 220.596 173.456C212.586 175.409 204.147 177.058 195.403 178.34C198.399 173.639 201.395 168.816 204.208 163.871C207.021 158.987 209.651 154.043 212.158 149.159ZM150.152 214.297C144.466 208.436 138.779 201.904 133.153 194.761C138.656 195.006 144.282 195.189 149.969 195.189C155.717 195.189 161.404 195.067 166.968 194.761C161.465 201.904 155.778 208.436 150.152 214.297ZM104.657 178.34C95.9743 177.058 87.5969 175.47 79.5863 173.517C81.8488 165.642 84.6617 157.522 87.8414 149.403C90.3486 154.287 92.978 159.171 95.852 164.054C98.726 168.938 101.661 173.7 104.657 178.34ZM149.847 51.2994C155.534 57.16 161.22 63.692 166.846 70.8346C161.343 70.5904 155.717 70.4073 150.03 70.4073C144.282 70.4073 138.595 70.5294 133.031 70.8346C138.534 63.692 144.221 57.16 149.847 51.2994ZM104.596 87.2564C101.6 91.9571 98.6037 96.7799 95.7908 101.725C92.978 106.609 90.3486 111.492 87.8414 116.376C84.5394 108.196 81.7265 100.015 79.4029 92.0792C87.4134 90.1867 95.852 88.5384 104.596 87.2564ZM49.2563 163.688C27.6095 154.47 13.6064 142.382 13.6064 132.798C13.6064 123.214 27.6095 111.065 49.2563 101.908C54.5152 99.6491 60.2632 97.6345 66.1946 95.7421C69.6802 107.707 74.2663 120.161 79.9532 132.92C74.3275 145.618 69.8025 158.011 66.3781 169.915C60.3243 168.022 54.5763 165.947 49.2563 163.688ZM82.1546 250.925C73.8383 246.163 70.2305 228.032 73.0434 204.712C73.716 198.974 74.8167 192.93 76.162 186.764C88.1472 189.694 101.233 191.953 114.992 193.418C123.247 204.712 131.808 214.968 140.43 223.942C120.495 242.44 101.783 252.573 89.0644 252.573C86.3127 252.512 83.9891 251.963 82.1546 250.925ZM227.2 204.407C230.074 227.727 226.528 245.858 218.273 250.681C216.438 251.78 214.053 252.268 211.24 252.268C198.583 252.268 179.81 242.195 159.875 223.82C168.436 214.846 176.997 204.651 185.13 193.357C198.95 191.892 212.035 189.633 224.021 186.642C225.427 192.808 226.528 198.729 227.2 204.407ZM250.743 163.688C245.484 165.947 239.736 167.961 233.805 169.854C230.319 157.889 225.733 145.435 220.046 132.676C225.672 119.978 230.197 107.585 233.621 95.681C239.675 97.5735 245.423 99.6491 250.804 101.908C272.451 111.126 286.454 123.214 286.454 132.798C286.393 142.382 272.39 154.531 250.743 163.688Z" fill="#4395A7"/>
<path d="M149.971 160.697C165.404 160.697 177.916 148.206 177.916 132.798C177.916 117.39 165.404 104.899 149.971 104.899C134.537 104.899 122.025 117.39 122.025 132.798C122.025 148.206 134.537 160.697 149.971 160.697Z" fill="#4395A7"/>
</g>
<defs>
<filter id="filter0_i" x="0" y="0" width="302" height="271" filterUnits="userSpaceOnUse" color-interpolation-filters="sRGB">
<feFlood flood-opacity="0" result="BackgroundImageFix"/>
<feBlend mode="normal" in="SourceGraphic" in2="BackgroundImageFix" result="shape"/>
<feColorMatrix in="SourceAlpha" type="matrix" values="0 0 0 0 0 0 0 0 0 0 0 0 0 0 0 0 0 0 127 0" result="hardAlpha"/>
<feOffset dx="2" dy="4"/>
<feGaussianBlur stdDeviation="4"/>
<feComposite in2="hardAlpha" operator="arithmetic" k2="-1" k3="1"/>
<feColorMatrix type="matrix" values="0 0 0 0 0 0 0 0 0 0 0 0 0 0 0 0 0 0 0.25 0"/>
<feBlend mode="normal" in2="shape" result="effect1_innerShadow"/>
</filter>
<clipPath id="clip0">
<rect width="300" height="267" fill="white"/>
</clipPath>
</defs>
</svg>
