<svg width="88" height="88" viewBox="0 0 88 88" fill="none" xmlns="http://www.w3.org/2000/svg">
<path d="M60.718 31.7026L44.3783 14.4834C43.9473 14.0293 43.1199 14.0293 42.6889 14.4834L26.3493 31.7026C25.3268 32.973 26.3728 33.7576 27.2783 33.7576H33.9148L33.9139 62.3952C33.9139 62.9195 34.7597 63.6428 35.3639 63.6428H51.7035C52.3077 63.6428 52.7976 63.2176 52.7976 62.6933V58.705C52.7976 58.1806 52.262 57.6876 51.4812 57.6876C50.7004 57.6876 50.31 58.1806 50.31 58.705V61.2183H36.4582V32.5807C36.4582 32.0563 35.9682 31.3568 35.364 31.3568H29.5128L43.5256 17.2295L57.5549 31.3568H51.7036C51.0994 31.3568 50.31 32.0563 50.31 32.5807V54.2103C50.31 54.7347 50.877 55.3339 51.4812 55.3339C52.0854 55.3339 52.7978 54.7347 52.7978 54.2103V33.7576H60.4601C61.3652 33.7576 61.6312 32.5807 60.718 31.7026Z" fill="#003C4A" stroke="#003C4A"/>
<path d="M51.5289 66.7856H34.8987C34.2838 66.7856 33.7852 67.3134 33.7852 67.9642C33.7852 68.6151 34.2838 69.1428 34.8987 69.1428H51.5287C52.1437 69.1428 52.6423 68.6151 52.6423 67.9642C52.6423 67.3134 52.1438 66.7856 51.5289 66.7856Z" fill="#003C4A" stroke="#003C4A"/>
<path d="M51.5289 72.2856H34.8987C34.2838 72.2856 33.7852 72.8134 33.7852 73.4642C33.7852 74.1151 34.2838 74.6428 34.8987 74.6428H51.5287C52.1437 74.6428 52.6423 74.1151 52.6423 73.4642C52.6423 72.8134 52.1438 72.2856 51.5289 72.2856Z" fill="#003C4A" stroke="#003C4A"/>
<path fill-rule="evenodd" clip-rule="evenodd" d="M44 84.0714C66.1308 84.0714 84.0714 66.1308 84.0714 44C84.0714 21.8692 66.1308 3.92857 44 3.92857C21.8692 3.92857 3.92857 21.8692 3.92857 44C3.92857 66.1308 21.8692 84.0714 44 84.0714ZM44 88C68.3005 88 88 68.3005 88 44C88 19.6995 68.3005 0 44 0C19.6995 0 0 19.6995 0 44C0 68.3005 19.6995 88 44 88Z" fill="#003C4A"/>
</svg>
