<svg width="28" height="28" viewBox="0 0 28 28" fill="none" xmlns="http://www.w3.org/2000/svg">
<g clip-path="url(#clip0_1540_3922)">
<path d="M13.0026 0.314974C10.3798 0.503974 7.88278 1.44897 5.70102 3.07521C5.00242 3.59629 3.59934 4.99937 3.07826 5.69797C0.787579 8.77909 -0.145941 12.5185 0.461099 16.2352C1.17118 20.5646 4.0003 24.3673 7.96314 26.3141C10.5114 27.5626 13.4607 28.0036 16.2383 27.5397C20.6191 26.8125 24.4045 23.9834 26.346 19.9861C28.1786 16.2179 28.1786 11.7855 26.346 8.01721C25.0115 5.26845 22.7838 3.03489 20.0465 1.68921C17.876 0.624093 15.3907 0.137454 13.0026 0.314974ZM21.9189 6.74041C22.3714 6.94649 22.732 7.30153 22.9555 7.75401C23.1271 8.10345 23.1389 8.17205 23.1389 8.70461C23.1389 9.70673 23.5969 9.17417 17.2174 15.5652C12.8881 19.9001 11.5651 21.1946 11.3475 21.3032C11.1529 21.4007 10.9639 21.4463 10.7749 21.4463C10.1219 21.4463 10.3053 21.6009 6.77202 18.079C3.26138 14.5745 3.29582 14.6087 3.16394 13.8701C2.92342 12.4614 4.3321 11.1555 5.74666 11.4819C6.3481 11.625 6.45674 11.711 8.62142 13.8642L10.7116 15.9488L15.0928 11.5623C17.5036 9.15121 19.5941 7.08985 19.7427 6.98093C20.1779 6.66033 20.5388 6.55141 21.1058 6.57437C21.4838 6.58557 21.6669 6.62561 21.9189 6.74041Z" fill="#8EC9E6"/>
</g>
<defs>
<clipPath id="clip0_1540_3922">
<rect width="28" height="28" fill="white"/>
</clipPath>
</defs>
</svg>
