<svg width="88" height="88" viewBox="0 0 88 88" fill="none" xmlns="http://www.w3.org/2000/svg">
<path d="M74.7656 6.875H72.3506C72.1707 3.05347 69.0058 0 65.1406 0H59.6406C58.6913 0 57.9219 0.769409 57.9219 1.71875V6.875H11.6016C11.5069 6.875 11.4142 6.8844 11.3236 6.89917C7.59003 7.19122 4.64062 10.3199 4.64062 14.1273V79.4062C4.64062 84.1449 8.49573 88 13.2344 88H74.7656C79.5043 88 83.3594 84.1449 83.3594 79.4062V55.2947C83.3594 54.3454 82.59 53.576 81.6406 53.576C80.6913 53.576 79.9219 54.3454 79.9219 55.2947V79.4062C79.9219 82.2496 77.6089 84.5625 74.7656 84.5625H13.2344C10.3911 84.5625 8.07812 82.2496 8.07812 79.4062C8.07812 76.5629 10.3911 74.25 13.2344 74.25H65.1406C69.1213 74.25 72.3594 71.0119 72.3594 67.0312V10.3125H74.7656C77.6089 10.3125 79.9219 12.6254 79.9219 15.4688V41.5447C79.9219 42.4934 80.6913 43.2635 81.6406 43.2635C82.59 43.2635 83.3594 42.4934 83.3594 41.5447V15.4688C83.3594 10.7301 79.5043 6.875 74.7656 6.875ZM65.1406 3.4375C67.226 3.4375 68.9219 5.13342 68.9219 7.21875V60.8854C67.8215 60.2059 66.5264 59.8125 65.1406 59.8125H61.3594V3.4375H65.1406ZM65.1406 70.8125H13.2344C11.3015 70.8125 9.51556 71.4543 8.07812 72.5359V14.1273C8.07812 12.0239 9.78949 10.3125 11.8929 10.3125H57.9219V61.5312C57.9219 62.4806 58.6913 63.25 59.6406 63.25H65.1406C67.226 63.25 68.9219 64.9459 68.9219 67.0312C68.9219 69.1166 67.226 70.8125 65.1406 70.8125Z" fill="#003C4A"/>
<path d="M13.2344 77.6875C12.285 77.6875 11.5156 78.4569 11.5156 79.4062C11.5156 80.3556 12.285 81.125 13.2344 81.125H70.6406C71.59 81.125 72.3594 80.3556 72.3594 79.4062C72.3594 78.4569 71.59 77.6875 70.6406 77.6875H13.2344Z" fill="#003C4A"/>
<path d="M45.2266 21.6562H20.7734C17.4695 21.6562 14.7812 24.3445 14.7812 27.6484V51.3994C14.7812 54.7039 17.4695 57.3922 20.7734 57.3922H33.6949L38.7061 62.4027C39.0351 62.7317 39.4742 62.9062 39.922 62.9062C40.1429 62.9062 40.3665 62.8633 40.5793 62.7753C41.2211 62.5095 41.6401 61.8831 41.6401 61.1875V57.3922H45.226C48.5305 57.3922 51.2188 54.7039 51.2188 51.3994V27.6484C51.2188 24.3445 48.5305 21.6562 45.2266 21.6562ZM47.7812 51.3994C47.7812 52.8079 46.6352 53.9547 45.2266 53.9547H39.9213C38.972 53.9547 38.2026 54.7241 38.2026 55.6734V57.0383L35.6224 54.4575C35.3002 54.1353 34.8631 53.954 34.4072 53.954H20.7734C19.3648 53.954 18.2188 52.8079 18.2188 51.3994V27.6484C18.2188 26.2398 19.3648 25.0938 20.7734 25.0938H45.2266C46.6352 25.0938 47.7812 26.2398 47.7812 27.6484V51.3994Z" fill="#003C4A"/>
<path d="M81.6406 46.7003C81.1888 46.7003 80.745 46.8843 80.4254 47.2039C80.1058 47.5241 79.9219 47.9672 79.9219 48.4191C79.9219 48.8716 80.1058 49.3147 80.4254 49.6343C80.745 49.9539 81.1888 50.1378 81.6406 50.1378C82.0925 50.1378 82.5363 49.9539 82.8558 49.6343C83.1754 49.3147 83.3594 48.8716 83.3594 48.4191C83.3594 47.9672 83.1754 47.5241 82.8558 47.2039C82.5363 46.8843 82.0925 46.7003 81.6406 46.7003Z" fill="#003C4A"/>
<path d="M28 45.5469V33H33.362C34.7104 33 35.6887 33.1141 36.2969 33.3423C36.9109 33.5649 37.4015 33.9643 37.7687 34.5405C38.1359 35.1168 38.3195 35.7758 38.3195 36.5176C38.3195 37.459 38.0413 38.2378 37.4847 38.8541C36.9281 39.4646 36.0961 39.8497 34.9887 40.0095C35.5395 40.329 35.9928 40.6799 36.3486 41.0622C36.7101 41.4445 37.1949 42.1234 37.8031 43.0991L39.3438 45.5469H36.2969L34.4551 42.8167C33.801 41.841 33.3534 41.2276 33.1124 40.9766C32.8714 40.7198 32.6161 40.5458 32.3464 40.4545C32.0767 40.3575 31.6493 40.309 31.064 40.309H30.5476V45.5469H28ZM30.5476 38.3063H32.4325C33.6547 38.3063 34.4178 38.255 34.7219 38.1523C35.026 38.0496 35.2641 37.8727 35.4363 37.6216C35.6084 37.3706 35.6945 37.0568 35.6945 36.6802C35.6945 36.258 35.5797 35.9185 35.3502 35.6617C35.1264 35.3993 34.808 35.2338 34.3948 35.1653C34.1883 35.1368 33.5686 35.1225 32.5358 35.1225H30.5476V38.3063Z" fill="#003C4A"/>
</svg>
