<svg width="172" height="172" viewBox="0 0 172 172" fill="none" xmlns="http://www.w3.org/2000/svg">
<g clip-path="url(#clip0)">
<path d="M168.989 7.39835C167.302 6.1294 165.119 5.72522 163.091 6.30787C155.308 8.54264 145.389 7.91144 132.831 7.11359C124.968 6.61362 116.056 6.04673 105.821 6.04673C97.8 6.04673 90.5931 9.58326 85.6643 15.1735C80.7354 9.58326 73.5298 6.04673 65.508 6.04673C55.2737 6.04673 46.3608 6.61362 38.4978 7.11359C25.9395 7.91276 16.0201 8.54395 8.23713 6.30787C6.2097 5.72522 4.0261 6.1294 2.34116 7.39835C0.654908 8.66862 -0.335847 10.6554 -0.335847 12.7655V124.229C-0.354219 131.42 2.43302 138.185 7.51145 143.276C12.5899 148.368 19.348 151.172 26.5392 151.172H75.2502C78.9613 151.172 81.969 148.164 81.969 144.453C81.969 140.742 78.9613 137.734 75.2502 137.734H26.5392C22.9436 137.734 19.5645 136.333 17.0253 133.787C14.4861 131.241 13.0925 127.858 13.1017 124.246V120.682C17.0581 122.975 21.6458 124.297 26.5392 124.297H76.594C78.0873 124.297 79.1096 125.225 79.5688 126.092C80.7748 128.369 83.1028 129.668 85.5121 129.668C86.5724 129.668 87.6484 129.417 88.6497 128.886C90.6732 127.815 91.9211 125.857 92.1744 123.746C92.3056 123.222 92.383 122.678 92.383 122.113V32.9218C92.383 25.5128 98.4102 19.4842 105.821 19.4842C115.628 19.4842 124.314 20.0367 131.978 20.5236C142 21.1613 150.499 21.702 158.227 20.8634V69.2031C158.227 72.9141 161.235 75.9218 164.946 75.9218C168.657 75.9218 171.664 72.9141 171.664 69.2031V12.7655C171.664 10.6554 170.674 8.66862 168.989 7.39835ZM26.5392 110.859C19.1302 110.859 13.1017 104.831 13.1017 97.4219V20.8634C20.8296 21.702 29.3277 21.1613 39.3495 20.5236C47.0144 20.0367 55.7002 19.4842 65.508 19.4842C72.917 19.4842 78.9455 25.5128 78.9455 32.9218V111.025C78.1739 110.916 77.3892 110.859 76.594 110.859H26.5392ZM67.5236 44.0077C67.5236 47.7188 64.5159 50.7265 60.8049 50.7265H31.5783C27.8672 50.7265 24.8595 47.7188 24.8595 44.0077C24.8595 40.2967 27.8672 37.289 31.5783 37.289H60.8049C64.5159 37.289 67.5236 40.2967 67.5236 44.0077ZM57.4455 70.8828C57.4455 74.5938 54.4378 77.6015 50.7267 77.6015H31.5783C27.8672 77.6015 24.8595 74.5938 24.8595 70.8828C24.8595 67.1717 27.8672 64.164 31.5783 64.164H50.7267C54.4378 64.164 57.4455 67.1717 57.4455 70.8828ZM137.261 91.5626L100.375 128.368C99.5913 129.15 99.0126 130.113 98.6911 131.172L90.6574 157.618C89.9462 159.963 90.5669 162.51 92.2767 164.263C93.5588 165.577 95.3002 166.29 97.0875 166.29C97.6846 166.29 98.2882 166.21 98.88 166.045L125.999 158.534C127.115 158.224 128.132 157.632 128.952 156.813L165.762 120.074C173.62 112.215 173.62 99.427 165.762 91.5679C157.903 83.7088 145.115 83.7088 137.261 91.5626ZM120.708 146.054L107.066 149.833L111.058 136.69L135.947 111.855L145.451 121.359L120.708 146.054ZM156.264 110.567L154.962 111.866L145.46 102.364L146.758 101.07C149.377 98.4494 153.639 98.4494 156.259 101.07C158.879 103.689 158.879 107.951 156.264 110.567Z" fill="url(#paint0_linear)" fill-opacity="0.5"/>
</g>
<defs>
<linearGradient id="paint0_linear" x1="85.6642" y1="6.04663" x2="85.6642" y2="166.29" gradientUnits="userSpaceOnUse">
<stop stop-color="#D2F0F7"/>
<stop offset="0.453125" stop-color="#94CFDC"/>
<stop offset="0.979167" stop-color="#D1EDF3"/>
</linearGradient>
<clipPath id="clip0">
<rect width="172" height="172" fill="white"/>
</clipPath>
</defs>
</svg>
