<svg width="335" height="260" viewBox="0 0 335 260" fill="none" xmlns="http://www.w3.org/2000/svg">
<g clip-path="url(#clip0)">
<g filter="url(#filter0_di)">
<path fill-rule="evenodd" clip-rule="evenodd" d="M157.444 5.49754C157.444 5.65533 155.829 5.74919 153.1 5.74919C150.694 5.74919 148.65 5.8552 148.517 5.98709C148.386 6.11817 147.008 6.24441 145.453 6.26787C143.9 6.29053 142.629 6.40948 142.629 6.53166C142.629 6.65303 141.619 6.75337 140.384 6.75337C139.149 6.75337 138.069 6.86666 137.983 7.00421C137.898 7.14258 137.128 7.25587 136.274 7.25667C135.386 7.25829 134.41 7.41932 133.999 7.63375C133.581 7.85222 132.611 8.00839 131.677 8.00839C130.775 8.00839 130.073 8.11844 130.073 8.26004C130.073 8.40165 129.362 8.51088 128.441 8.51088C127.521 8.51088 126.809 8.62012 126.809 8.76173C126.809 8.90009 126.244 9.01338 125.554 9.01338C124.862 9.01338 124.298 9.12585 124.298 9.26422C124.298 9.4034 123.633 9.51506 122.806 9.51506C121.986 9.51506 121.244 9.62835 121.159 9.76671C121.074 9.90427 120.508 10.0176 119.904 10.0176C119.298 10.0176 118.733 10.1308 118.648 10.2684C118.562 10.4068 118.054 10.52 117.518 10.52C116.982 10.52 116.473 10.6325 116.388 10.7709C116.303 10.9093 115.737 11.0217 115.133 11.0217C114.527 11.0217 113.962 11.135 113.877 11.2734C113.791 11.4109 113.276 11.5242 112.732 11.5242C112.188 11.5242 111.742 11.6375 111.742 11.7751C111.742 11.9134 111.346 12.0267 110.863 12.0267C110.38 12.0267 109.984 12.1392 109.984 12.2776C109.984 12.4159 109.532 12.5284 108.98 12.5284C108.427 12.5284 107.975 12.6417 107.975 12.7792C107.975 12.9176 107.524 13.0309 106.971 13.0309C106.418 13.0309 105.967 13.1434 105.967 13.2817C105.967 13.4201 105.636 13.5326 105.231 13.5326C104.827 13.5326 104.326 13.7025 104.119 13.9097C103.912 14.1168 103.395 14.2859 102.971 14.2859C102.547 14.2859 102.2 14.3871 102.2 14.5101C102.2 14.633 101.776 14.8054 101.258 14.8936C98.9663 15.2844 98.6847 15.3581 98.6847 15.5693C98.6847 15.6923 98.3521 15.7926 97.9459 15.7926C97.5396 15.7926 97.1375 15.9059 97.0525 16.0442C96.9667 16.1818 96.5646 16.2951 96.1583 16.2951C95.7521 16.2951 95.4203 16.4084 95.4203 16.5459C95.4203 16.6843 95.0813 16.7976 94.667 16.7976C94.2527 16.7976 93.9136 16.91 93.9136 17.0484C93.9136 17.1868 93.5745 17.2993 93.1602 17.2993C92.7459 17.2993 92.4069 17.4125 92.4069 17.5509C92.4069 17.6885 92.0678 17.8018 91.6535 17.8018C91.2392 17.8018 90.9001 17.915 90.9001 18.0526C90.9001 18.191 90.6242 18.3034 90.2867 18.3034C89.9501 18.3034 89.6046 18.4167 89.5188 18.5551C89.4338 18.6926 89.0875 18.8059 88.7509 18.8059C88.4134 18.8059 88.1375 18.8941 88.1375 19.0026C88.1375 19.1102 87.6196 19.3513 86.9868 19.5382C86.354 19.7251 85.777 20.0326 85.7042 20.2212C85.6282 20.4186 85.2066 20.5634 84.7065 20.5634C84.1918 20.5634 83.9021 20.6662 83.9944 20.8151C84.0826 20.9575 83.8714 21.0659 83.5072 21.0659C83.1536 21.0659 82.8647 21.1792 82.8647 21.3168C82.8647 21.4551 82.5888 21.5684 82.2513 21.5684C81.9147 21.5684 81.5684 21.6809 81.4834 21.8193C81.3976 21.9576 81.1087 22.0701 80.8409 22.0701C80.573 22.0701 80.3529 22.1834 80.3529 22.3218C80.3529 22.4593 80.1336 22.5726 79.8658 22.5726C79.598 22.5726 79.3091 22.6859 79.2233 22.8235C79.1383 22.9618 78.7993 23.0751 78.4699 23.0751C78.1414 23.0751 77.8023 23.1876 77.7166 23.3259C77.6316 23.4643 77.3419 23.5768 77.074 23.5768C76.8062 23.5768 76.5869 23.6901 76.5869 23.8276C76.5869 23.966 76.3603 24.0793 76.0844 24.0793C75.8084 24.0793 75.5819 24.1918 75.5819 24.3301C75.5819 24.4685 75.3561 24.581 75.0802 24.581C74.8034 24.581 74.5777 24.6942 74.5777 24.8326C74.5777 24.9702 74.3519 25.0835 74.0759 25.0835C73.7992 25.0835 73.5734 25.1967 73.5734 25.3343C73.5734 25.4727 73.4213 25.586 73.2352 25.586C72.884 25.586 71.2818 26.3142 71.0625 26.5739C70.9929 26.6557 70.3714 27.0036 69.6811 27.3467C68.9909 27.6906 68.388 28.0555 68.3419 28.1591C68.2958 28.2627 68.0417 28.3476 67.7771 28.3476C67.5125 28.3476 67.2956 28.4609 67.2956 28.5993C67.2956 28.7369 67.0698 28.8501 66.7931 28.8501C66.5172 28.8501 66.2914 28.9626 66.2914 29.101C66.2914 29.2393 66.1376 29.3518 65.9499 29.3518C65.4684 29.3518 62.5245 30.8989 62.5245 31.1522C62.5245 31.2671 62.2988 31.361 62.022 31.361C61.7461 31.361 61.5203 31.4743 61.5203 31.6118C61.5203 31.7502 61.3625 31.8635 61.1699 31.8635C60.9773 31.8635 60.5533 32.1434 60.228 32.4865C59.9027 32.8296 59.439 33.112 59.1971 33.1144C58.9551 33.1169 58.7577 33.2318 58.7577 33.3701C58.7577 33.5077 58.557 33.621 58.311 33.621C58.065 33.621 57.7017 33.8467 57.5026 34.1235C57.3027 34.3994 56.9394 34.6252 56.6934 34.6252C56.4474 34.6252 56.2467 34.7304 56.2467 34.8598C56.2467 34.9885 56.021 35.1649 55.7458 35.2523C55.4707 35.3397 55.0871 35.5695 54.8937 35.7629C54.7011 35.9562 54.3937 36.1464 54.2116 36.1861C54.0295 36.2249 53.6767 36.4369 53.4275 36.657C53.1782 36.8763 52.6668 37.2153 52.2905 37.4103C51.5671 37.785 50.7692 38.4064 49.8176 39.3337C49.4988 39.6444 49.1055 39.8985 48.9428 39.8985C48.7802 39.8985 48.4638 40.0968 48.2405 40.3395C48.0171 40.5823 47.5162 40.944 47.1278 41.1438C46.7386 41.3437 46.0904 41.8235 45.6858 42.2095C45.282 42.5955 44.8369 42.9119 44.6978 42.9119C44.5586 42.9119 44.4445 43.0243 44.4445 43.1627C44.4445 43.3011 44.3279 43.4135 44.1847 43.4135C44.0423 43.4135 43.5341 43.7809 43.0567 44.23C40.7448 46.4002 40.43 46.6777 40.2835 46.6777C40.197 46.6777 39.8093 47.0168 39.4225 47.4311C39.0349 47.8454 38.6158 48.1844 38.4895 48.1844C38.229 48.1844 34.9023 51.328 34.9023 51.5748C34.9023 51.7763 34.2364 52.4536 34.0381 52.4536C33.8528 52.4536 29.127 57.1694 29.127 57.3547C29.127 57.4308 28.7597 57.8669 28.3105 58.3249C27.1501 59.5079 25.276 61.7056 25.0033 62.2024C24.8763 62.4338 24.5655 62.8053 24.3131 63.0294C24.0598 63.2527 23.8534 63.5214 23.8534 63.6274C23.8534 63.7334 23.6196 64.0222 23.3347 64.269C23.0491 64.5166 22.8516 64.795 22.8953 64.8881C22.9722 65.0531 22.5846 65.5508 20.9031 67.4499C20.454 67.9564 20.0866 68.518 20.0866 68.6984C20.0866 68.8789 19.9952 69.0261 19.8827 69.0261C19.7702 69.0261 19.5234 69.421 19.3332 69.9049C19.1439 70.388 18.91 70.7837 18.8145 70.7837C18.719 70.7837 18.5006 71.1227 18.329 71.537C18.1575 71.9513 17.9179 72.2903 17.7965 72.2903C17.6752 72.2903 17.5756 72.5161 17.5756 72.7928C17.5756 73.0687 17.4623 73.2945 17.3248 73.2945C17.1864 73.2945 17.0731 73.4644 17.0731 73.6716C17.0731 73.8787 16.9606 74.0478 16.8223 74.0478C16.6839 74.0478 16.5714 74.2178 16.5714 74.4249C16.5714 74.6321 16.4581 74.8012 16.3197 74.8012C16.1822 74.8012 16.0689 75.0269 16.0689 75.3037C16.0689 75.5796 15.9556 75.8053 15.818 75.8053C15.6797 75.8053 15.5664 76.0877 15.5664 76.4333C15.5664 76.8241 15.4248 77.0612 15.1901 77.0612C14.9805 77.0612 14.813 77.2845 14.813 77.5637C14.813 77.8396 14.7005 78.0654 14.5622 78.0654C14.4238 78.0654 14.3113 78.2911 14.3113 78.5678C14.3113 78.8438 14.198 79.0695 14.0596 79.0695C13.9221 79.0695 13.8088 79.2961 13.8088 79.572C13.8088 79.848 13.6963 80.0745 13.5579 80.0745C13.4196 80.0745 13.3071 80.3003 13.3071 80.5762C13.3071 80.8529 13.1938 81.0787 13.0554 81.0787C12.9178 81.0787 12.8046 81.298 12.8046 81.5658C12.8046 81.8345 12.6913 82.1233 12.5537 82.2083C12.4153 82.2941 12.302 82.5829 12.302 82.8516C12.302 83.1194 12.2098 83.3387 12.0965 83.3387C11.9832 83.3387 11.7372 83.9035 11.5487 84.5937C11.3609 85.2848 11.1141 85.8495 11.0017 85.8495C10.8884 85.8495 10.7953 86.1319 10.7953 86.4775C10.7953 86.823 10.6828 87.1054 10.5445 87.1054C10.4061 87.1054 10.2936 87.4444 10.2936 87.8587C10.2936 88.273 10.1803 88.6121 10.0419 88.6121C9.90437 88.6121 9.79108 88.9503 9.79108 89.3654C9.79108 89.7797 9.67779 90.1179 9.54023 90.1179C9.40185 90.1179 9.28856 90.5201 9.28856 91.012C9.28856 91.5323 9.1858 91.8422 9.04257 91.7532C8.905 91.6683 8.72455 92.0518 8.63311 92.6231C8.54329 93.1847 8.37174 93.7058 8.25116 93.7794C8.1314 93.8538 8.03349 94.3596 8.03349 94.9041C8.03349 95.4479 7.9202 95.8938 7.78263 95.8938C7.64426 95.8938 7.53097 96.3453 7.53097 96.8979C7.53097 97.4506 7.41849 97.9021 7.28012 97.9021C7.14174 97.9021 7.02926 98.4604 7.02926 99.1434C7.02926 99.8255 6.91598 100.453 6.7776 100.539C6.64004 100.624 6.52675 101.416 6.52675 102.297C6.52675 103.178 6.42641 103.961 6.30341 104.037C5.49258 104.538 5.9773 127.03 6.79945 127.03C6.92569 127.03 7.02926 127.651 7.02926 128.411C7.02926 129.171 7.13042 129.792 7.25503 129.792C7.37884 129.792 7.54311 130.272 7.61998 130.86C7.88702 132.905 8.09013 133.815 8.31185 133.952C8.43485 134.028 8.5352 134.409 8.5352 134.798C8.5352 135.187 8.70513 135.647 8.91228 135.818C9.11944 135.99 9.28856 136.456 9.28856 136.854C9.28856 137.251 9.40185 137.576 9.54023 137.576C9.67779 137.576 9.79108 137.915 9.79108 138.33C9.79108 138.744 9.90437 139.082 10.0419 139.082C10.1803 139.082 10.2936 139.421 10.2936 139.836C10.2936 140.25 10.4061 140.589 10.5445 140.589C10.6828 140.589 10.7953 140.872 10.7953 141.217C10.7953 141.562 10.9086 141.845 11.047 141.845C11.1845 141.845 11.2978 142.121 11.2978 142.457C11.2978 142.795 11.4111 143.14 11.5487 143.226C11.687 143.311 11.8003 143.601 11.8003 143.869C11.8003 144.136 11.9128 144.356 12.0512 144.356C12.1896 144.356 12.302 144.575 12.302 144.843C12.302 145.111 12.4153 145.4 12.5537 145.486C12.6913 145.571 12.8046 145.917 12.8046 146.254C12.8046 146.591 12.9178 146.867 13.0554 146.867C13.1938 146.867 13.3071 146.989 13.3071 147.139C13.3071 147.546 14.8818 150.633 15.0889 150.633C15.1877 150.633 15.801 151.707 16.4525 153.019C17.1031 154.331 17.735 155.404 17.8572 155.404C17.9786 155.404 18.0781 155.63 18.0781 155.907C18.0781 156.182 18.172 156.408 18.2861 156.408C18.401 156.408 18.6551 156.719 18.8509 157.099C19.0468 157.479 19.2709 157.846 19.3494 157.915C19.4279 157.984 19.9361 158.718 20.4799 159.547C21.0228 160.376 21.7778 161.381 22.1582 161.782C22.5377 162.182 22.8492 162.621 22.8492 162.757C22.8492 162.893 23.0726 163.198 23.3469 163.436C23.6204 163.673 23.9894 164.147 24.1666 164.489C24.5753 165.276 26.5999 167.665 28.3105 169.378C29.0356 170.105 29.6287 170.769 29.6287 170.856C29.6287 170.942 30.0592 171.426 30.5844 171.934C31.1104 172.441 31.6153 173.054 31.7068 173.295C31.7982 173.537 32.0531 173.734 32.2724 173.734C32.4925 173.734 32.6066 173.84 32.5265 173.97C32.4464 174.099 32.8923 174.558 33.5178 174.988C34.6418 175.761 35.9065 176.904 35.9065 177.146C35.9065 177.362 38.7015 180.012 38.9281 180.012C39.0463 180.012 39.3004 180.237 39.4929 180.513C39.6863 180.788 39.8975 180.96 39.9623 180.894C40.0278 180.83 40.659 181.31 41.3663 181.963C42.0735 182.616 43.0235 183.433 43.4767 183.778C43.9306 184.124 44.5035 184.604 44.7495 184.846C44.9963 185.088 45.286 185.285 45.3937 185.285C45.5013 185.285 45.7521 185.511 45.9512 185.787C46.1503 186.063 46.4578 186.289 46.6342 186.289C46.8114 186.289 46.9554 186.395 46.9554 186.524C46.9554 186.652 47.1674 186.825 47.4272 186.907C47.6861 186.99 48.2235 187.336 48.62 187.678C49.0165 188.018 49.4575 188.298 49.5999 188.298C49.7415 188.298 50.0207 188.524 50.2198 188.8C50.4188 189.077 50.7069 189.303 50.8598 189.303C51.012 189.303 51.3988 189.582 51.7192 189.922C52.0397 190.264 52.3868 190.49 52.4904 190.426C52.594 190.363 52.7437 190.479 52.8222 190.685C52.9015 190.892 53.1394 191.06 53.3514 191.06C53.5626 191.06 53.7358 191.16 53.7358 191.281C53.7358 191.402 54.0748 191.642 54.4891 191.813C54.9034 191.985 55.2425 192.225 55.2425 192.347C55.2425 192.468 55.4432 192.567 55.6892 192.567C55.9344 192.567 56.2985 192.793 56.4976 193.069C56.6966 193.345 57.0608 193.572 57.3068 193.572C57.552 193.572 57.7535 193.663 57.7535 193.776C57.7535 193.997 59.6575 195.078 60.0484 195.078C60.1795 195.078 60.5695 195.361 60.915 195.705C61.2606 196.051 61.6862 196.333 61.861 196.333C62.0358 196.333 62.4024 196.531 62.6751 196.773C62.9486 197.015 63.337 197.249 63.5385 197.294C63.7408 197.338 63.9431 197.48 63.9892 197.608C64.0353 197.736 64.2279 197.84 64.4173 197.84C64.6074 197.84 65.3042 198.158 65.9661 198.547C66.628 198.936 67.5376 199.415 67.9859 199.613C68.435 199.81 68.8024 200.057 68.8024 200.162C68.8024 200.266 68.9488 200.351 69.1285 200.351C69.5905 200.351 70.8068 200.942 70.8092 201.167C70.81 201.271 71.0301 201.355 71.2988 201.355C71.5666 201.355 71.8555 201.468 71.9413 201.607C72.0262 201.744 72.2544 201.858 72.447 201.858C72.6396 201.858 73.2141 202.14 73.7231 202.485C74.2313 202.83 74.8099 203.113 75.0073 203.113C75.2048 203.113 75.5374 203.283 75.7461 203.492C75.9541 203.701 76.2284 203.807 76.3555 203.728C76.4825 203.65 76.5869 203.705 76.5869 203.851C76.5869 203.998 76.8062 204.118 77.074 204.118C77.3419 204.118 77.6316 204.231 77.7166 204.368C77.8023 204.507 78.0912 204.62 78.3591 204.62C78.6277 204.62 78.847 204.733 78.847 204.871C78.847 205.008 79.0663 205.122 79.3342 205.122C79.602 205.122 79.8917 205.235 79.9767 205.373C80.0616 205.511 80.408 205.624 80.7446 205.624C81.082 205.624 81.358 205.737 81.358 205.875C81.358 206.013 81.5773 206.126 81.8451 206.126C82.113 206.126 82.4027 206.239 82.4876 206.378C82.5734 206.515 82.9125 206.628 83.241 206.628C83.5703 206.628 83.9094 206.742 83.9944 206.879C84.0801 207.018 84.369 207.131 84.6369 207.131C84.9047 207.131 85.1248 207.243 85.1248 207.382C85.1248 207.52 85.4631 207.633 85.8774 207.633C86.2917 207.633 86.6308 207.746 86.6308 207.884C86.6308 208.022 86.8476 208.135 87.1122 208.135C87.3768 208.135 87.6334 208.254 87.6819 208.4C87.7305 208.545 87.9376 208.689 88.1423 208.719C88.4919 208.771 89.6329 209.175 90.7747 209.651C91.9618 210.145 94.357 210.897 94.7463 210.897C94.9785 210.897 95.1687 211.01 95.1687 211.148C95.1687 211.286 95.4446 211.399 95.7821 211.399C96.1187 211.399 96.4569 211.5 96.533 211.623C96.6091 211.746 97.0671 211.915 97.5518 212C98.0365 212.084 98.8287 212.221 99.3118 212.306C99.7957 212.39 100.191 212.56 100.191 212.683C100.191 212.806 100.53 212.906 100.945 212.906C101.359 212.906 101.698 213.019 101.698 213.157C101.698 213.295 102.093 213.408 102.577 213.408C103.06 213.408 103.456 213.521 103.456 213.659C103.456 213.798 103.898 213.91 104.439 213.91C104.98 213.91 105.46 214.019 105.506 214.15C105.552 214.282 106.01 214.418 106.524 214.452C107.038 214.486 107.51 214.647 107.572 214.81C107.634 214.973 108.062 215.168 108.521 215.244C108.981 215.319 109.865 215.511 110.487 215.67C111.108 215.829 112.069 216.019 112.621 216.091C113.173 216.163 113.733 216.323 113.864 216.447C113.996 216.571 114.532 216.673 115.057 216.673C115.582 216.673 116.011 216.785 116.011 216.923C116.011 217.062 116.463 217.174 117.016 217.174C117.568 217.174 118.02 217.267 118.02 217.379C118.02 217.492 118.547 217.61 119.192 217.644C119.837 217.677 120.564 217.811 120.808 217.941C121.052 218.072 121.824 218.179 122.524 218.179C123.223 218.179 123.795 218.292 123.795 218.43C123.795 218.568 124.353 218.681 125.036 218.681C125.719 218.681 126.347 218.794 126.432 218.933C126.517 219.07 127.259 219.183 128.079 219.183C128.906 219.183 129.571 219.295 129.571 219.434C129.571 219.574 130.24 219.686 131.078 219.686C131.907 219.686 132.585 219.783 132.585 219.901C132.585 220.02 133.513 220.139 134.647 220.167C135.783 220.194 136.849 220.331 137.018 220.472C137.187 220.612 137.643 220.69 138.031 220.646L138.736 220.565L138.863 204.745C138.993 188.302 138.966 187.796 137.977 187.796C137.773 187.796 137.607 187.683 137.607 187.545C137.607 187.407 137.268 187.294 136.853 187.294C136.439 187.294 136.1 187.199 136.1 187.085C136.1 186.97 135.932 186.875 135.728 186.875C135.268 186.875 133.366 186.32 132.776 186.014C132.536 185.889 132.113 185.787 131.835 185.787C131.556 185.787 131.329 185.674 131.329 185.536C131.329 185.398 130.99 185.285 130.575 185.285C130.161 185.285 129.822 185.172 129.822 185.034C129.822 184.896 129.483 184.782 129.069 184.782C128.654 184.782 128.315 184.67 128.315 184.532C128.315 184.393 128.088 184.281 127.81 184.281C127.305 184.281 127.125 184.21 125.64 183.438C125.205 183.211 124.667 183.025 124.447 183.025C124.227 183.025 124.047 182.913 124.047 182.774C124.047 182.636 123.821 182.523 123.544 182.523C123.268 182.523 123.043 182.404 123.043 182.257C123.043 182.111 122.949 182.048 122.836 182.119C122.722 182.189 122.314 182.082 121.928 181.882C121.542 181.683 121.071 181.518 120.879 181.518C120.688 181.518 120.531 181.406 120.531 181.267C120.531 181.129 120.36 181.017 120.151 181.017C119.942 181.017 119.575 180.905 119.335 180.769C118.359 180.216 115.472 179.007 115.126 179.007C114.922 179.007 114.755 178.894 114.755 178.757C114.755 178.618 114.53 178.505 114.253 178.505C113.977 178.505 113.751 178.392 113.751 178.254C113.751 178.116 113.576 178.003 113.364 178.003C113.151 178.003 112.761 177.805 112.498 177.564C112.234 177.322 111.363 176.79 110.562 176.38C109.761 175.971 109.049 175.573 108.98 175.496C108.911 175.418 108.317 175.075 107.662 174.733C107.006 174.391 106.469 174.027 106.469 173.923C106.469 173.819 106.312 173.734 106.121 173.734C105.6 173.734 104.443 173.082 104.632 172.893C104.721 172.804 104.55 172.73 104.25 172.73C103.952 172.73 103.707 172.617 103.707 172.479C103.707 172.341 103.506 172.227 103.26 172.227C103.014 172.227 102.65 172.002 102.451 171.726C102.252 171.449 101.933 171.223 101.741 171.223C101.55 171.223 101.171 170.941 100.899 170.595C100.628 170.251 100.272 169.963 100.11 169.958C99.9478 169.952 99.4235 169.613 98.9452 169.204C98.467 168.796 97.971 168.462 97.8423 168.462C97.7136 168.462 97.2847 168.123 96.889 167.708C96.4925 167.294 96.0507 166.955 95.9067 166.955C95.7618 166.955 95.2828 166.617 94.8418 166.202C94.3999 165.789 93.9638 165.45 93.8723 165.449C93.7801 165.449 92.8495 164.601 91.8032 163.565C90.7577 162.529 89.8142 161.682 89.7082 161.682C89.6013 161.682 89.3732 161.456 89.2008 161.179C89.0276 160.903 88.7776 160.677 88.6449 160.677C88.3333 160.677 86.1291 158.48 86.1291 158.171C86.1291 158.042 85.7333 157.621 85.2503 157.235C84.7663 156.85 84.3715 156.446 84.3715 156.339C84.3715 156.232 83.8625 155.635 83.241 155.014C82.6195 154.393 82.1113 153.779 82.1113 153.651C82.1113 153.523 81.8289 153.136 81.4834 152.79C81.1379 152.445 80.8555 152.038 80.8555 151.886C80.8555 151.733 80.7422 151.678 80.6046 151.764C80.4662 151.849 80.3529 151.738 80.3529 151.516C80.3529 151.294 80.0705 150.809 79.7258 150.437C79.3803 150.064 79.0979 149.642 79.0979 149.499C79.0979 149.355 78.8721 149.075 78.5953 148.876C78.3194 148.677 78.0936 148.364 78.0936 148.182C78.0936 147.999 77.8671 147.608 77.5911 147.311C77.3152 147.015 77.0886 146.624 77.0886 146.442C77.0886 146.262 76.9761 146.113 76.8378 146.113C76.6994 146.113 76.5869 145.947 76.5869 145.744C76.5869 145.542 76.3717 144.992 76.1079 144.523C75.6531 143.714 75.4006 143.234 74.8285 142.1C74.6909 141.825 74.5777 141.43 74.5777 141.22C74.5777 141.011 74.4652 140.841 74.3268 140.841C74.1884 140.841 74.0759 140.614 74.0759 140.338C74.0759 140.062 73.9627 139.836 73.8243 139.836C73.6867 139.836 73.5734 139.606 73.5734 139.323C73.5734 139.042 73.3477 138.369 73.0709 137.827C72.795 137.286 72.5692 136.609 72.5692 136.323C72.5692 136.037 72.3993 135.737 72.1921 135.658C71.9469 135.564 71.8158 135.173 71.8158 134.536C71.8158 133.998 71.7025 133.558 71.5642 133.558C71.4266 133.558 71.3133 133.05 71.3133 132.428C71.3133 131.807 71.2 131.299 71.0625 131.299C70.9241 131.299 70.8108 130.733 70.8108 130.043C70.8108 129.353 70.6983 128.787 70.5599 128.787C70.4102 128.787 70.3091 127.825 70.3091 126.402C70.3091 124.979 70.2079 124.016 70.0574 124.016C69.7273 124.016 69.7273 120.329 70.0574 120.124C70.1982 120.038 70.3091 118.867 70.3091 117.473C70.3091 115.977 70.4094 114.977 70.5599 114.977C70.6983 114.977 70.8108 114.412 70.8108 113.721C70.8108 113.031 70.9241 112.466 71.0625 112.466C71.2 112.466 71.3133 112.014 71.3133 111.462C71.3133 110.909 71.4266 110.457 71.5642 110.457C71.7025 110.457 71.8158 110.11 71.8158 109.686C71.8158 109.262 71.985 108.746 72.1921 108.539C72.3993 108.331 72.5692 107.831 72.5692 107.426C72.5692 107.021 72.6817 106.69 72.8201 106.69C72.9584 106.69 73.0709 106.471 73.0709 106.203C73.0709 105.936 73.1842 105.647 73.3226 105.561C73.4601 105.476 73.5734 105.137 73.5734 104.808C73.5734 104.479 73.6867 104.14 73.8243 104.054C73.9627 103.969 74.0759 103.68 74.0759 103.412C74.0759 103.144 74.1884 102.925 74.3268 102.925C74.4652 102.925 74.5777 102.698 74.5777 102.422C74.5777 102.146 74.6909 101.92 74.8285 101.92C74.9669 101.92 75.0802 101.761 75.0802 101.567C75.0802 101.148 76.1273 99.0689 76.3984 98.9484C76.5019 98.9022 76.5869 98.6482 76.5869 98.3836C76.5869 98.119 76.6994 97.9021 76.8378 97.9021C76.9761 97.9021 77.0886 97.733 77.0886 97.5258C77.0886 97.3187 77.1736 97.148 77.2772 97.1472C77.4875 97.1447 78.0936 95.9415 78.0936 95.5264C78.0936 95.3799 78.3761 95.0474 78.7208 94.7884C79.0663 94.5287 79.3487 94.2188 79.3487 94.0982C79.3487 93.9784 79.6878 93.5253 80.1021 93.0916C80.5164 92.6587 80.8555 92.2023 80.8555 92.0785C80.8555 91.9547 81.1096 91.5898 81.4203 91.2685C82.3598 90.2959 82.8647 89.6243 82.8647 89.3468C82.8647 88.9268 92.6885 79.2799 93.3625 79.0372C93.6563 78.932 95.5312 77.3452 96.8114 76.1193C97.2799 75.671 97.8366 75.3037 98.0486 75.3037C98.2598 75.3037 98.433 75.1904 98.433 75.052C98.433 74.9145 98.6029 74.8012 98.8101 74.8012C99.0173 74.8012 99.1864 74.6879 99.1864 74.5503C99.1864 74.412 99.3563 74.2987 99.5635 74.2987C99.7706 74.2987 99.9398 74.1862 99.9398 74.0478C99.9398 73.9095 100.058 73.797 100.202 73.797C100.345 73.797 100.706 73.5712 101.002 73.2945C101.298 73.0186 101.689 72.7928 101.871 72.7928C102.052 72.7928 102.2 72.6795 102.2 72.5412C102.2 72.4036 102.348 72.2903 102.529 72.2903C102.71 72.2903 103.101 72.0646 103.397 71.7878C103.694 71.5119 104.038 71.2861 104.161 71.2861C104.285 71.2861 104.691 71.0037 105.064 70.6582C105.437 70.3127 105.905 70.0303 106.105 70.0303C106.305 70.0303 106.469 69.917 106.469 69.7795C106.469 69.6411 106.67 69.5278 106.916 69.5278C107.161 69.5278 107.525 69.3021 107.724 69.0261C107.923 68.7494 108.288 68.5236 108.534 68.5236C108.779 68.5236 108.98 68.4104 108.98 68.2728C108.98 68.1344 109.206 68.0212 109.482 68.0212C109.759 68.0212 109.984 67.9087 109.984 67.7703C109.984 67.6319 110.21 67.5195 110.487 67.5195C110.763 67.5195 110.989 67.4062 110.989 67.2686C110.989 67.1303 111.136 67.017 111.316 67.017C111.778 67.017 112.993 66.4263 112.995 66.2013C112.997 66.0978 113.112 66.0128 113.252 66.0128C113.708 66.0128 117.266 64.21 117.266 63.9785C117.266 63.8539 117.486 63.7528 117.754 63.7528C118.022 63.7528 118.311 63.6395 118.397 63.5019C118.482 63.3636 118.771 63.2503 119.039 63.2503C119.307 63.2503 119.527 63.1378 119.527 62.9995C119.527 62.8611 119.752 62.7486 120.029 62.7486C120.305 62.7486 120.531 62.6353 120.531 62.497C120.531 62.3594 120.807 62.2461 121.144 62.2461C121.481 62.2461 121.827 62.1336 121.912 61.9953C121.998 61.8569 122.287 61.7444 122.555 61.7444C122.822 61.7444 123.043 61.6311 123.043 61.4928C123.043 61.3552 123.381 61.2419 123.795 61.2419C124.21 61.2419 124.548 61.1287 124.548 60.9911C124.548 60.8527 124.768 60.7394 125.036 60.7394C125.304 60.7394 125.593 60.627 125.679 60.4886C125.764 60.3502 126.166 60.2378 126.572 60.2378C126.979 60.2378 127.311 60.1245 127.311 59.9861C127.311 59.8486 127.537 59.7353 127.814 59.7353C128.09 59.7353 128.315 59.622 128.315 59.4844C128.315 59.3461 128.514 59.2303 128.755 59.2263C129.404 59.2174 132.557 58.1048 132.895 57.7666C133.056 57.6063 133.503 57.4753 133.89 57.4753C134.277 57.4753 134.593 57.362 134.593 57.2244C134.593 57.0861 134.926 56.9728 135.332 56.9728C135.738 56.9728 136.14 56.8603 136.225 56.7219C136.311 56.5836 136.65 56.4711 136.979 56.4711C137.308 56.4711 137.647 56.3578 137.732 56.2202C137.818 56.0819 138.34 55.9686 138.892 55.9686C139.498 55.9686 139.834 55.8691 139.741 55.7178C139.649 55.5689 139.943 55.4669 140.465 55.4669C140.948 55.4669 141.413 55.3536 141.499 55.2153C141.584 55.0777 142.036 54.9644 142.503 54.9644C142.97 54.9644 143.422 54.8511 143.507 54.7136C143.593 54.5752 144.109 54.4619 144.652 54.4619C145.197 54.4619 145.642 54.3494 145.642 54.2111C145.642 54.0727 146.094 53.9602 146.646 53.9602C147.199 53.9602 147.651 53.847 147.651 53.7086C147.651 53.571 148.103 53.4577 148.656 53.4577C149.208 53.4577 149.66 53.3445 149.66 53.2069C149.66 53.0685 150.203 52.9552 150.865 52.9552C151.528 52.9552 152.178 52.8484 152.309 52.7182C152.44 52.5871 153.035 52.452 153.631 52.4172C154.227 52.3815 154.771 52.2626 154.839 52.1526C154.907 52.0417 155.493 51.9478 156.141 51.943C156.789 51.9389 157.538 51.769 157.806 51.5667C158.078 51.3612 158.828 51.1977 159.501 51.1977C160.166 51.1977 160.709 51.0853 160.709 50.9469C160.709 50.8021 161.499 50.6961 162.577 50.6961C163.605 50.6961 164.516 50.5828 164.601 50.4444C164.687 50.3068 165.591 50.1936 166.61 50.1936C167.63 50.1936 168.534 50.0803 168.619 49.9427C168.704 49.8043 169.785 49.6911 171.019 49.6911C172.348 49.6911 173.264 49.5891 173.264 49.4402C173.264 49.2841 174.646 49.1894 176.906 49.1894C179.208 49.1894 180.546 49.0955 180.546 48.9337C180.546 48.4328 213.296 48.9442 213.806 49.4532C213.937 49.5843 215.265 49.6911 216.757 49.6911C218.398 49.6911 219.469 49.7906 219.469 49.9427C219.469 50.09 220.348 50.1936 221.603 50.1936C222.859 50.1936 223.738 50.2971 223.738 50.4444C223.738 50.5925 224.616 50.6961 225.872 50.6961C227.127 50.6961 228.006 50.7988 228.006 50.9469C228.006 51.0853 228.636 51.1977 229.405 51.1977C230.314 51.1977 230.936 51.3296 231.181 51.5748C231.423 51.8159 232.042 51.9511 232.907 51.9511C233.648 51.9511 234.324 52.0644 234.41 52.2019C234.495 52.3403 235.18 52.4536 235.931 52.4536C236.682 52.4536 237.297 52.566 237.297 52.7044C237.297 52.8428 237.862 52.9552 238.553 52.9552C239.244 52.9552 239.808 53.0572 239.808 53.181C239.808 53.3056 240.289 53.4715 240.876 53.55C243.711 53.9295 244.22 54.0274 244.442 54.237C244.573 54.3608 244.99 54.4619 245.368 54.4619C245.747 54.4619 246.127 54.5752 246.212 54.7136C246.297 54.8511 246.75 54.9644 247.217 54.9644C247.684 54.9644 248.136 55.0777 248.221 55.2153C248.307 55.3536 248.758 55.4669 249.225 55.4669C249.693 55.4669 250.144 55.5794 250.23 55.7178C250.315 55.8561 250.717 55.9686 251.124 55.9686C251.53 55.9686 251.862 56.0819 251.862 56.2202C251.862 56.3578 252.257 56.4711 252.741 56.4711C253.224 56.4711 253.62 56.5836 253.62 56.7219C253.62 56.8603 253.952 56.9728 254.359 56.9728C254.765 56.9728 255.167 57.0861 255.252 57.2244C255.337 57.362 255.784 57.4753 256.244 57.4753C256.757 57.4753 257.138 57.6217 257.227 57.8523C257.306 58.0595 257.579 58.2286 257.833 58.2286C258.088 58.2286 258.764 58.4544 259.336 58.7311C259.907 59.007 260.607 59.2328 260.89 59.2328C261.173 59.2328 261.404 59.3461 261.404 59.4844C261.404 59.622 261.624 59.7353 261.892 59.7353C262.159 59.7353 262.449 59.8486 262.534 59.9861C262.62 60.1245 262.965 60.2378 263.303 60.2378C263.639 60.2378 263.915 60.3502 263.915 60.4886C263.915 60.627 264.141 60.7394 264.418 60.7394C264.694 60.7394 264.92 60.8527 264.92 60.9911C264.92 61.1287 265.259 61.2419 265.673 61.2419C266.087 61.2419 266.426 61.3552 266.426 61.4928C266.426 61.6311 266.592 61.7444 266.795 61.7444C266.999 61.7444 267.567 61.9702 268.059 62.2461C268.551 62.5229 269.119 62.7486 269.322 62.7486C269.525 62.7486 269.691 62.8611 269.691 62.9995C269.691 63.1378 269.917 63.2503 270.193 63.2503C270.469 63.2503 270.696 63.3636 270.696 63.5019C270.696 63.6395 270.912 63.7528 271.176 63.7528C271.441 63.7528 271.696 63.8475 271.742 63.9624C271.787 64.0781 272.673 64.6121 273.708 65.1494C274.744 65.6867 275.629 66.2135 275.676 66.3203C275.722 66.4279 275.919 66.5153 276.115 66.5153C276.311 66.5153 276.471 66.6278 276.471 66.7661C276.471 66.9045 276.697 67.017 276.974 67.017C277.249 67.017 277.475 67.1303 277.475 67.2686C277.475 67.4062 277.623 67.5195 277.805 67.5195C277.986 67.5195 278.377 67.7452 278.673 68.0212C278.97 68.2979 279.387 68.5236 279.599 68.5236C279.812 68.5236 279.986 68.6369 279.986 68.7745C279.986 68.9129 280.163 69.0261 280.378 69.0261C280.593 69.0261 280.711 69.12 280.641 69.2349C280.57 69.3498 280.902 69.5966 281.379 69.7835C281.856 69.9712 282.246 70.2148 282.246 70.3249C282.246 70.5045 283.535 71.448 284.792 72.1867C285.048 72.3372 285.182 72.5355 285.091 72.6261C285 72.7176 285.055 72.7928 285.214 72.7928C285.482 72.7928 286.21 73.3649 287.688 74.7381C288.022 75.0496 288.432 75.3077 288.599 75.3126C288.764 75.3174 289.353 75.8329 289.905 76.4575C290.458 77.0822 291.785 78.4796 292.856 79.5631C293.926 80.6466 294.802 81.6055 294.802 81.6937C294.802 81.7827 295.056 82.1128 295.367 82.4276C295.678 82.7423 296.215 83.3767 296.56 83.8372C296.905 84.2976 297.329 84.8171 297.501 84.9926C297.674 85.1682 297.815 85.4328 297.815 85.5809C297.815 85.7282 297.929 85.8495 298.066 85.8495C298.205 85.8495 298.318 86.0195 298.318 86.2266C298.318 86.4338 298.43 86.6029 298.569 86.6029C298.707 86.6029 298.82 86.772 298.82 86.9791C298.82 87.1871 298.933 87.3562 299.071 87.3562C299.209 87.3562 299.322 87.5083 299.322 87.6936C299.322 87.8798 299.548 88.2358 299.824 88.4858C300.101 88.7359 300.326 89.0846 300.326 89.2602C300.326 89.4366 300.468 89.7327 300.64 89.9197C301.071 90.3857 301.835 91.6569 302.003 92.1902C302.08 92.4313 302.243 92.6296 302.365 92.6296C302.487 92.6296 302.586 92.8553 302.586 93.1313C302.586 93.408 302.7 93.6338 302.837 93.6338C302.976 93.6338 303.089 93.853 303.089 94.1209C303.089 94.3895 303.201 94.6784 303.34 94.7633C303.478 94.8491 303.591 95.138 303.591 95.4058C303.591 95.6745 303.704 95.8938 303.842 95.8938C303.98 95.8938 304.093 96.1762 304.093 96.5217C304.093 96.8664 304.207 97.1488 304.344 97.1488C304.482 97.1488 304.596 97.3681 304.596 97.6367C304.596 97.9045 304.708 98.1934 304.847 98.2792C304.985 98.3641 305.097 98.6878 305.097 98.9969C305.097 99.306 305.21 99.6718 305.348 99.8093C305.484 99.9469 305.622 100.364 305.653 100.738C305.684 101.112 305.797 101.418 305.906 101.418C306.013 101.418 306.102 101.694 306.102 102.03C306.102 102.368 306.215 102.713 306.353 102.799C306.491 102.884 306.604 103.278 306.604 103.675C306.604 104.071 306.774 104.565 306.981 104.772C307.192 104.983 307.358 105.596 307.358 106.171C307.358 106.733 307.471 107.193 307.608 107.193C307.747 107.193 307.86 107.695 307.86 108.308C307.86 108.921 307.973 109.493 308.111 109.578C308.249 109.664 308.362 110.398 308.362 111.21C308.362 112.023 308.475 112.758 308.613 112.843C308.759 112.933 308.864 114.347 308.864 116.233C308.864 118.118 308.969 119.532 309.115 119.623C309.417 119.81 309.457 123.766 309.156 123.766C309.041 123.766 308.921 125.312 308.889 127.201C308.858 129.091 308.727 130.835 308.597 131.077C308.468 131.319 308.362 132.082 308.362 132.774C308.362 133.465 308.249 134.101 308.111 134.186C307.973 134.272 307.86 134.843 307.86 135.456C307.86 136.07 307.769 136.571 307.658 136.571C307.547 136.571 307.428 137.049 307.393 137.632C307.358 138.216 307.212 138.767 307.066 138.857C306.921 138.946 306.709 139.514 306.596 140.118C306.483 140.722 306.251 141.556 306.082 141.97C305.912 142.385 305.742 142.881 305.704 143.075C305.491 144.14 304.962 145.611 304.792 145.611C304.684 145.611 304.596 145.837 304.596 146.113C304.596 146.39 304.507 146.616 304.399 146.616C304.291 146.616 304.177 146.926 304.146 147.306C304.114 147.686 303.977 148.034 303.84 148.08C303.703 148.126 303.591 148.313 303.591 148.496C303.591 148.899 302.536 150.976 302.273 151.094C302.169 151.14 302.084 151.425 302.084 151.729C302.084 152.032 301.858 152.443 301.582 152.642C301.306 152.841 301.078 153.177 301.076 153.388C301.073 153.6 300.734 154.155 300.322 154.622C299.91 155.09 299.573 155.63 299.573 155.822C299.573 156.016 299.404 156.238 299.197 156.318C298.99 156.397 298.82 156.653 298.82 156.885C298.82 157.117 298.368 157.807 297.815 158.417C297.263 159.027 296.811 159.673 296.811 159.851C296.811 160.029 296.717 160.175 296.602 160.175C296.488 160.175 296.233 160.483 296.038 160.86C295.618 161.668 288.346 169.004 286.89 170.087C286.339 170.498 285.628 171.091 285.311 171.405C284.994 171.719 284.632 171.977 284.506 171.977C284.381 171.977 283.996 172.259 283.65 172.604C283.305 172.95 282.9 173.232 282.75 173.232C282.599 173.232 282.254 173.44 281.981 173.694C281.708 173.949 281.176 174.316 280.799 174.51C280.421 174.705 279.963 175.064 279.781 175.308C279.599 175.552 279.345 175.687 279.216 175.607C279.087 175.527 278.982 175.571 278.982 175.704C278.982 175.836 278.671 176.056 278.292 176.192C277.911 176.327 277.318 176.675 276.974 176.964C276.628 177.255 276.209 177.607 276.042 177.748C275.875 177.888 275.508 178.003 275.226 178.003C274.944 178.003 274.713 178.108 274.713 178.238C274.713 178.367 274.318 178.616 273.835 178.791C273.351 178.965 272.955 179.198 272.955 179.309C272.955 179.419 272.673 179.51 272.328 179.51C271.982 179.51 271.7 179.609 271.7 179.732C271.7 179.854 271.474 180.012 271.197 180.084C270.29 180.322 270.668 180.968 272.54 182.377C274.32 183.716 276.669 186.255 277.482 187.717C279.955 192.168 280.194 192.257 283.153 189.82C284.556 188.663 284.881 188.429 285.577 188.068C285.955 187.871 286.264 187.617 286.264 187.502C286.264 187.388 286.41 187.294 286.587 187.294C286.765 187.294 287.415 186.845 288.031 186.296C288.648 185.748 289.225 185.296 289.314 185.292C289.46 185.286 290.508 184.404 291.559 183.404C291.777 183.196 292.043 183.025 292.149 183.025C292.254 183.025 292.64 182.706 293.006 182.315C293.372 181.925 294.237 181.181 294.927 180.66C296.461 179.505 300.326 175.789 300.326 175.471C300.326 175.344 300.473 175.241 300.652 175.241C300.831 175.241 301.763 174.383 302.723 173.335C303.684 172.286 305.148 170.73 305.976 169.874C306.805 169.02 307.932 167.759 308.481 167.072C309.029 166.386 309.679 165.677 309.924 165.497C310.17 165.316 310.371 165.006 310.371 164.807C310.371 164.607 310.823 163.965 311.375 163.378C311.928 162.792 312.38 162.195 312.38 162.052C312.38 161.91 312.606 161.63 312.882 161.431C313.158 161.232 313.385 160.917 313.385 160.732C313.385 160.545 313.672 160.091 314.023 159.719C314.763 158.938 316.649 156.042 316.649 155.687C316.649 155.555 316.737 155.408 316.845 155.362C317.145 155.235 318.156 153.416 318.156 153.004C318.156 152.805 318.268 152.642 318.406 152.642C318.545 152.642 318.657 152.458 318.657 152.232C318.657 152.006 318.856 151.64 319.097 151.416C319.339 151.192 319.569 150.813 319.61 150.572C319.65 150.331 319.961 149.835 320.301 149.468C320.64 149.102 320.918 148.621 320.918 148.4C320.919 148.178 321.145 147.627 321.421 147.175C321.697 146.722 321.922 146.129 321.922 145.857C321.922 145.583 322.035 145.36 322.173 145.36C322.311 145.36 322.424 145.134 322.424 144.858C322.424 144.581 322.537 144.356 322.675 144.356C322.813 144.356 322.927 144.067 322.927 143.713C322.927 143.36 323.016 143.126 323.126 143.194C323.235 143.262 323.34 143.11 323.359 142.855C323.378 142.602 323.627 141.911 323.913 141.32C324.2 140.728 324.433 139.989 324.433 139.678C324.433 139.367 324.546 139.043 324.684 138.957C324.823 138.872 324.935 138.526 324.935 138.189C324.935 137.852 325.048 137.576 325.187 137.576C325.324 137.576 325.438 137.237 325.438 136.823C325.438 136.409 325.551 136.07 325.689 136.07C325.827 136.07 325.94 135.614 325.94 135.057C325.94 134.479 326.074 133.993 326.253 133.924C326.426 133.857 326.598 133.384 326.634 132.873C326.671 132.361 326.812 131.832 326.948 131.696C327.084 131.56 327.195 131.083 327.195 130.635C327.195 130.188 327.309 129.752 327.446 129.667C327.584 129.581 327.698 128.953 327.698 128.27C327.698 127.588 327.81 127.03 327.949 127.03C328.09 127.03 328.199 126.318 328.199 125.398C328.199 124.5 328.299 123.766 328.421 123.766C328.543 123.766 328.662 122.554 328.685 121.073C328.708 119.592 328.832 118.316 328.96 118.237C329.365 117.987 328.865 104.503 328.435 104.067C328.305 103.935 328.199 103.294 328.199 102.64C328.199 101.985 328.093 101.168 327.961 100.822C327.83 100.478 327.695 99.679 327.663 99.0487C327.631 98.4184 327.512 97.9021 327.399 97.9021C327.288 97.9021 327.195 97.6254 327.195 97.2871C327.195 96.3623 326.473 93.7713 326.189 93.6758C326.052 93.6297 325.94 93.2122 325.94 92.7485C325.94 92.2849 325.827 91.8358 325.689 91.7508C325.551 91.665 325.438 91.2629 325.438 90.8567C325.438 90.4505 325.324 90.1179 325.187 90.1179C325.048 90.1179 324.935 89.8905 324.935 89.613C324.935 89.3346 324.83 88.9106 324.701 88.6711C324.572 88.4316 324.321 87.6985 324.144 87.0423C323.967 86.386 323.733 85.8495 323.625 85.8495C323.517 85.8495 323.428 85.6303 323.428 85.3624C323.428 85.0938 323.316 84.8049 323.178 84.72C323.039 84.6342 322.927 84.2887 322.927 83.9512C322.927 83.6146 322.813 83.3387 322.675 83.3387C322.537 83.3387 322.424 83.1809 322.424 82.9875C322.424 82.7941 322.085 81.9922 321.671 81.2041C321.257 80.4168 320.917 79.6627 320.917 79.5283C320.917 79.3948 320.747 79.1148 320.539 78.9061C320.33 78.6981 320.224 78.423 320.302 78.296C320.381 78.1697 320.268 78.0654 320.053 78.0654C319.829 78.0654 319.662 77.8509 319.662 77.5637C319.662 77.2869 319.549 77.0612 319.411 77.0612C319.273 77.0612 319.16 76.7788 319.16 76.4333C319.16 76.0877 319.047 75.8053 318.909 75.8053C318.771 75.8053 318.657 75.5796 318.657 75.3037C318.657 75.0269 318.545 74.8012 318.406 74.8012C318.268 74.8012 318.156 74.6167 318.156 74.3909C318.156 74.166 317.949 73.7986 317.697 73.5753C317.445 73.352 317.079 72.8017 316.882 72.3526C316.686 71.9044 316.441 71.537 316.337 71.537C316.232 71.537 316.146 71.3768 316.146 71.181C316.146 70.9859 316.055 70.7877 315.943 70.7416C315.832 70.6954 315.372 70.0101 314.922 69.2171C314.472 68.4249 313.952 67.691 313.765 67.585C313.578 67.4798 313.388 67.2257 313.342 67.0194C313.296 66.8139 312.948 66.3446 312.568 65.9772C312.189 65.6098 311.878 65.185 311.878 65.0329C311.878 64.8816 311.764 64.757 311.626 64.757C311.489 64.757 311.375 64.5878 311.375 64.3807C311.375 64.1736 311.262 64.0036 311.124 64.0036C310.986 64.0036 310.873 63.8345 310.873 63.6274C310.873 63.4202 310.771 63.2503 310.645 63.2503C310.521 63.2503 310.025 62.7138 309.544 62.0576C308.308 60.3713 307.877 59.8542 306.667 58.6024C306.08 57.9956 305.6 57.4324 305.6 57.3515C305.6 57.1726 300.848 52.4536 300.669 52.4536C300.482 52.4536 299.824 51.7633 299.824 51.5675C299.824 51.4753 299.457 51.0602 299.008 50.6451C298.559 50.23 297.663 49.3941 297.018 48.7864C296.371 48.1795 295.746 47.6827 295.629 47.6827C295.512 47.6827 295.252 47.4561 295.053 47.1802C294.854 46.9043 294.607 46.6777 294.504 46.6777C294.401 46.6777 293.946 46.3443 293.492 45.9373C293.039 45.5295 292.159 44.739 291.538 44.1798C290.916 43.6207 290.34 43.1627 290.257 43.1627C290.175 43.1627 289.874 42.9653 289.588 42.7233C288.212 41.5589 287.999 41.4052 287.768 41.4052C287.632 41.4052 287.52 41.2919 287.52 41.1535C287.52 41.016 287.375 40.9027 287.199 40.9027C287.022 40.9027 286.715 40.6769 286.516 40.4002C286.317 40.1243 286.003 39.8985 285.821 39.8985C285.638 39.8985 285.212 39.6218 284.874 39.2844C284.15 38.5601 282.123 37.136 281.817 37.136C281.7 37.136 281.441 36.9103 281.242 36.6343C281.043 36.3576 280.679 36.1318 280.433 36.1318C280.188 36.1318 279.986 36.0186 279.986 35.881C279.986 35.7426 279.802 35.6293 279.577 35.6293C279.351 35.6293 278.984 35.4238 278.76 35.1714C278.537 34.9189 277.996 34.5564 277.556 34.3646C277.118 34.1728 276.813 33.9277 276.88 33.8184C276.948 33.71 276.707 33.621 276.346 33.621C275.971 33.621 275.755 33.5126 275.843 33.3701C275.929 33.2318 275.84 33.1185 275.646 33.1185C275.452 33.1185 274.965 32.8361 274.564 32.4914C274.162 32.1459 273.693 31.8635 273.521 31.8635C273.348 31.8635 273.207 31.7437 273.207 31.5973C273.207 31.4508 273.102 31.3958 272.975 31.4743C272.849 31.5528 272.574 31.4459 272.366 31.238C272.157 31.0292 271.876 30.8585 271.739 30.8585C271.602 30.8585 271.453 30.7743 271.407 30.6708C271.286 30.3989 269.207 29.3518 268.788 29.3518C268.594 29.3518 268.436 29.2393 268.436 29.101C268.436 28.9626 268.209 28.8501 267.933 28.8501C267.657 28.8501 267.431 28.7369 267.431 28.5993C267.431 28.4609 267.205 28.3476 266.929 28.3476C266.652 28.3476 266.426 28.2627 266.425 28.1591C266.422 27.9342 265.206 27.3435 264.744 27.3435C264.564 27.3435 264.418 27.2439 264.418 27.1218C264.418 26.9996 264.22 26.8313 263.979 26.7479C263.737 26.6646 263.2 26.3773 262.786 26.1095C262.371 25.8416 261.834 25.6143 261.593 25.6038C261.351 25.594 261.153 25.4727 261.153 25.3343C261.153 25.1967 261.006 25.0835 260.827 25.0835C260.365 25.0835 259.148 24.4928 259.146 24.2678C259.145 24.1642 258.919 24.0793 258.642 24.0793C258.366 24.0793 258.14 23.966 258.14 23.8276C258.14 23.6901 257.858 23.5768 257.512 23.5768C257.167 23.5768 256.884 23.4643 256.884 23.3259C256.884 23.1876 256.608 23.0751 256.272 23.0751C255.934 23.0751 255.589 22.9618 255.503 22.8235C255.418 22.6859 255.128 22.5726 254.86 22.5726C254.593 22.5726 254.373 22.4593 254.373 22.3218C254.373 22.1834 254.154 22.0701 253.886 22.0701C253.617 22.0701 253.329 21.9576 253.243 21.8193C253.158 21.6809 252.812 21.5684 252.475 21.5684C252.138 21.5684 251.862 21.4551 251.862 21.3168C251.862 21.1792 251.58 21.0659 251.234 21.0659C250.889 21.0659 250.606 20.9527 250.606 20.8151C250.606 20.6767 250.338 20.5634 250.009 20.5634C249.681 20.5634 249.281 20.4057 249.121 20.2115C248.96 20.0181 248.324 19.7114 247.709 19.5293C247.093 19.3473 246.589 19.1102 246.589 19.0026C246.589 18.8941 246.25 18.8059 245.835 18.8059C245.421 18.8059 245.082 18.6926 245.082 18.5551C245.082 18.4167 244.8 18.3034 244.454 18.3034C244.109 18.3034 243.827 18.191 243.827 18.0526C243.827 17.915 243.488 17.8018 243.074 17.8018C242.659 17.8018 242.32 17.6885 242.32 17.5509C242.32 17.4125 241.981 17.2993 241.567 17.2993C241.152 17.2993 240.813 17.1868 240.813 17.0484C240.813 16.91 240.474 16.7976 240.06 16.7976C239.646 16.7976 239.307 16.6843 239.307 16.5459C239.307 16.4084 238.911 16.2951 238.428 16.2951C237.944 16.2951 237.549 16.1818 237.549 16.0442C237.549 15.9059 237.216 15.7926 236.81 15.7926C236.404 15.7926 236.002 15.6801 235.917 15.5417C235.831 15.4034 235.372 15.2909 234.897 15.2909C234.422 15.2909 234.033 15.1776 234.033 15.0393C234.033 14.9017 233.701 14.7884 233.294 14.7884C232.889 14.7884 232.487 14.6751 232.401 14.5376C232.316 14.3992 231.962 14.2859 231.615 14.2859C231.268 14.2859 230.815 14.1168 230.608 13.9097C230.4 13.7025 229.9 13.5326 229.495 13.5326C229.09 13.5326 228.76 13.4314 228.76 13.3084C228.76 13.1846 228.308 13.0155 227.755 12.9314C227.203 12.848 226.298 12.7113 225.745 12.6279C225.192 12.5438 224.676 12.3747 224.6 12.2509C224.524 12.1271 224.129 12.0267 223.723 12.0267C223.317 12.0267 222.984 11.9134 222.984 11.7751C222.984 11.6375 222.476 11.5242 221.855 11.5242C221.233 11.5242 220.724 11.4109 220.724 11.2734C220.724 11.135 220.159 11.0217 219.469 11.0217C218.778 11.0217 218.213 10.9206 218.213 10.796C218.213 10.6722 217.733 10.5063 217.146 10.4278C214.31 10.0483 213.801 9.94959 213.58 9.74082C213.449 9.61702 212.686 9.51506 211.885 9.51506C211.082 9.51506 210.429 9.40259 210.429 9.26422C210.429 9.12585 209.864 9.01338 209.174 9.01338C208.482 9.01338 207.918 8.90009 207.918 8.76173C207.918 8.62012 207.206 8.51088 206.285 8.51088C205.365 8.51088 204.653 8.40165 204.653 8.26004C204.653 8.11682 203.917 8.00839 202.946 8.00839C201.972 8.00839 201.111 7.88216 200.943 7.71305C200.632 7.40313 197.991 7.05843 194.295 6.84481C193.087 6.77441 192.098 6.62552 192.098 6.51386C192.098 6.40138 190.826 6.29053 189.273 6.26787C187.719 6.24441 186.34 6.11817 186.209 5.98709C186.078 5.856 184.085 5.74919 181.767 5.74919C179.235 5.74919 177.501 5.64886 177.407 5.49754C177.195 5.15284 157.444 5.15284 157.444 5.49754ZM217.837 194.054C216.317 194.134 214.96 194.274 214.82 194.365C214.679 194.457 213.07 194.57 211.241 194.616C209.413 194.663 207.918 194.786 207.918 194.89C207.918 194.993 204.88 195.078 201.167 195.078H194.416L194.265 195.643C194.181 195.954 194.112 201.716 194.11 208.449L194.107 220.69H195.849C196.808 220.69 197.663 220.577 197.748 220.439C197.833 220.301 198.8 220.188 199.897 220.188C201.059 220.188 201.891 220.083 201.891 219.937C201.891 219.798 202.561 219.686 203.397 219.686C204.235 219.686 204.904 219.574 204.904 219.434C204.904 219.291 205.658 219.183 206.662 219.183C207.667 219.183 208.42 219.076 208.42 218.933C208.42 218.794 208.985 218.681 209.675 218.681C210.366 218.681 210.931 218.578 210.931 218.453C210.931 218.327 211.581 218.165 212.375 218.095C213.169 218.025 214.441 217.839 215.2 217.683C215.959 217.528 217.006 217.338 217.525 217.261C218.043 217.184 218.53 217.021 218.606 216.897C218.682 216.774 219.183 216.673 219.72 216.673C220.256 216.673 220.765 216.559 220.85 216.421C220.935 216.283 221.366 216.168 221.806 216.164C222.247 216.16 223.286 215.929 224.115 215.648C224.943 215.368 225.942 215.127 226.334 215.113C226.727 215.1 227.106 214.936 227.178 214.75C227.255 214.548 227.697 214.413 228.285 214.413C228.822 214.413 229.262 214.299 229.262 214.162C229.262 214.023 229.651 213.91 230.126 213.91C230.601 213.91 231.06 213.798 231.145 213.659C231.231 213.521 231.52 213.408 231.788 213.408C232.528 213.408 232.392 212.836 231.053 210.313C230.381 209.046 229.235 206.879 228.507 205.499C226.037 200.815 225.007 199.006 223.69 197.037C223.164 196.251 222.733 195.498 222.733 195.365C222.733 195.023 221.248 193.814 220.893 193.865C220.731 193.89 219.356 193.975 217.837 194.054Z" fill="#A2CDD7"/>
</g>
<g filter="url(#filter1_di)">
<path fill-rule="evenodd" clip-rule="evenodd" d="M138.46 129.962C138.46 171.265 138.539 187.967 138.733 188.161C139.087 188.516 139.056 220.191 138.701 220.546C138.552 220.696 138.46 227.378 138.46 238.093V255.398H166.494H194.527L194.356 228.73C194.263 214.063 194.263 198.047 194.356 193.139L194.525 184.216H202.647C207.204 184.216 210.96 184.319 211.206 184.451C211.445 184.58 212.009 184.835 212.457 185.015C212.906 185.197 213.273 185.43 213.273 185.535C213.273 185.639 213.438 185.725 213.639 185.725C214.053 185.725 219.047 190.593 219.047 190.996C219.047 191.141 219.161 191.259 219.298 191.259C219.436 191.259 219.55 191.387 219.55 191.543C219.55 191.7 219.789 192.037 220.082 192.292C220.438 192.601 220.577 192.954 220.5 193.356C220.411 193.823 220.479 193.932 220.805 193.847C221.238 193.734 222.813 194.889 222.813 195.319C222.813 195.453 223.244 196.207 223.77 196.994C225.082 198.959 226.12 200.785 228.552 205.407C229.262 206.756 230.397 208.906 231.075 210.186C231.752 211.466 232.386 212.937 232.483 213.456C232.58 213.974 232.76 214.399 232.883 214.399C233.006 214.399 233.106 214.682 233.106 215.028C233.106 215.373 233.22 215.657 233.357 215.657C233.495 215.657 233.608 215.883 233.608 216.16C233.608 216.436 233.721 216.663 233.86 216.663C233.997 216.663 234.11 216.889 234.11 217.166C234.11 217.443 234.224 217.669 234.361 217.669C234.499 217.669 234.613 217.895 234.613 218.172C234.613 218.449 234.699 218.675 234.805 218.675C234.911 218.675 235.556 219.75 236.238 221.064C236.92 222.379 237.567 223.454 237.677 223.454C237.786 223.454 237.876 223.681 237.876 223.957C237.876 224.233 237.99 224.46 238.127 224.46C238.265 224.46 238.379 224.687 238.379 224.963C238.379 225.24 238.491 225.466 238.629 225.466C238.768 225.466 238.88 225.692 238.88 225.97C238.88 226.246 238.993 226.472 239.131 226.472C239.269 226.472 239.383 226.698 239.383 226.976C239.383 227.252 239.474 227.478 239.587 227.478C239.699 227.478 239.946 227.874 240.136 228.359C240.325 228.843 240.573 229.239 240.684 229.239C240.797 229.239 240.889 229.466 240.889 229.742C240.889 230.019 241.001 230.245 241.14 230.245C241.278 230.245 241.391 230.471 241.391 230.749C241.391 231.025 241.504 231.251 241.642 231.251C241.78 231.251 241.893 231.478 241.893 231.755C241.893 232.031 242.006 232.257 242.144 232.257C242.282 232.257 242.395 232.484 242.395 232.76C242.395 233.037 242.48 233.265 242.583 233.265C242.687 233.267 242.893 233.522 243.041 233.831C243.763 235.344 244.775 237.037 244.955 237.037C245.066 237.037 245.157 237.263 245.157 237.539C245.157 237.817 245.27 238.043 245.407 238.043C245.546 238.043 245.659 238.269 245.659 238.545C245.659 238.822 245.771 239.049 245.91 239.049C246.048 239.049 246.161 239.268 246.161 239.537C246.161 239.806 246.274 240.095 246.412 240.181C246.55 240.266 246.663 240.555 246.663 240.825C246.663 241.093 246.776 241.312 246.914 241.312C247.052 241.312 247.165 241.53 247.165 241.795C247.165 242.06 247.249 242.314 247.353 242.36C247.534 242.441 248.495 244.101 249.037 245.272C249.181 245.582 249.384 245.837 249.487 245.838C249.591 245.839 249.676 246.07 249.676 246.351C249.676 246.632 249.845 246.927 250.052 247.007C250.259 247.086 250.429 247.366 250.429 247.627C250.429 247.889 250.541 248.104 250.68 248.104C250.818 248.104 250.93 248.33 250.93 248.607C250.93 248.884 251.044 249.11 251.182 249.11C251.32 249.11 251.433 249.336 251.433 249.612C251.433 249.89 251.546 250.116 251.684 250.116C251.822 250.116 251.935 250.342 251.935 250.619C251.935 250.896 252.048 251.122 252.186 251.122C252.324 251.122 252.437 251.349 252.437 251.625C252.437 251.901 252.529 252.128 252.641 252.128C252.754 252.128 253.001 252.524 253.19 253.009C253.38 253.492 253.627 253.889 253.739 253.889C253.852 253.889 253.943 254.066 253.943 254.284C253.943 255.446 252.655 255.404 285.998 255.336L317.334 255.272L317.247 254.391C317.199 253.907 317.077 253.455 316.976 253.385C316.874 253.317 316.632 252.892 316.436 252.443C316.241 251.993 315.996 251.625 315.892 251.625C315.787 251.625 315.702 251.399 315.702 251.122C315.702 250.845 315.589 250.619 315.451 250.619C315.313 250.619 315.2 250.471 315.2 250.289C315.2 250.108 314.996 249.74 314.748 249.471C314.499 249.203 314.22 248.786 314.128 248.544C314.036 248.302 313.844 248.104 313.702 248.104C313.559 248.104 313.443 247.902 313.443 247.656C313.443 247.41 313.216 247.045 312.94 246.846C312.664 246.647 312.438 246.225 312.438 245.91C312.438 245.595 312.325 245.337 312.187 245.337C312.049 245.337 311.936 245.163 311.936 244.949C311.936 244.735 311.71 244.318 311.434 244.021C311.158 243.725 310.932 243.333 310.932 243.152C310.932 242.97 310.819 242.822 310.681 242.822C310.542 242.822 310.43 242.596 310.43 242.318C310.43 242.042 310.33 241.816 310.209 241.816C310.088 241.816 309.848 241.476 309.677 241.061C309.505 240.646 309.266 240.307 309.144 240.307C309.023 240.307 308.924 240.134 308.924 239.924C308.924 239.456 307.686 237.539 307.384 237.539C307.264 237.539 307.166 237.313 307.166 237.037C307.166 236.76 307.053 236.534 306.915 236.534C306.777 236.534 306.664 236.332 306.664 236.086C306.664 235.84 306.438 235.475 306.162 235.276C305.886 235.076 305.66 234.712 305.66 234.466C305.66 234.219 305.547 234.018 305.408 234.018C305.271 234.018 305.158 233.791 305.158 233.515C305.158 233.239 305.045 233.012 304.907 233.012C304.768 233.012 304.656 232.842 304.656 232.635C304.656 232.427 304.543 232.257 304.404 232.257C304.267 232.257 304.154 232.031 304.154 231.755C304.154 231.478 304.04 231.251 303.903 231.251C303.764 231.251 303.651 231.077 303.651 230.864C303.651 230.651 303.426 230.233 303.15 229.936C302.873 229.639 302.647 229.248 302.647 229.066C302.647 228.884 302.534 228.736 302.396 228.736C302.258 228.736 302.145 228.51 302.145 228.233C302.145 227.956 302.053 227.73 301.94 227.73C301.828 227.73 301.548 227.334 301.317 226.85C301.087 226.365 300.783 225.97 300.643 225.97C300.503 225.97 300.388 225.743 300.388 225.466C300.388 225.19 300.274 224.963 300.137 224.963C299.999 224.963 299.885 224.815 299.885 224.633C299.885 224.452 299.66 224.061 299.384 223.763C299.107 223.467 298.881 223.049 298.881 222.836C298.881 222.622 298.769 222.448 298.63 222.448C298.492 222.448 298.38 222.274 298.38 222.06C298.38 221.846 298.153 221.429 297.877 221.132C297.601 220.836 297.375 220.387 297.375 220.137C297.375 219.887 297.262 219.681 297.124 219.681C296.986 219.681 296.873 219.532 296.873 219.352C296.873 219.17 296.647 218.779 296.371 218.481C296.095 218.184 295.869 217.767 295.869 217.554C295.869 217.341 295.756 217.166 295.618 217.166C295.479 217.166 295.367 217.017 295.367 216.836C295.367 216.655 295.113 216.233 294.802 215.9C294.2 215.256 293.61 214.243 293.61 213.857C293.61 213.729 293.383 213.38 293.107 213.084C292.832 212.786 292.605 212.396 292.605 212.214C292.605 212.032 292.493 211.884 292.354 211.884C292.216 211.884 292.103 211.657 292.103 211.381C292.103 211.104 291.99 210.877 291.852 210.877C291.714 210.877 291.601 210.729 291.601 210.548C291.601 210.367 291.375 209.975 291.099 209.678C290.823 209.381 290.597 208.964 290.597 208.751C290.597 208.537 290.505 208.362 290.392 208.362C290.28 208.362 290.033 207.967 289.844 207.482C289.654 206.998 289.434 206.602 289.356 206.602C289.278 206.602 289.06 206.255 288.872 205.83C288.685 205.405 288.261 204.788 287.932 204.458C287.603 204.128 287.333 203.683 287.333 203.469C287.333 203.255 287.22 203.081 287.082 203.081C286.944 203.081 286.831 202.854 286.831 202.577C286.831 202.301 286.718 202.074 286.58 202.074C286.442 202.074 286.329 201.905 286.329 201.697C286.329 201.49 286.216 201.319 286.078 201.319C285.94 201.319 285.827 201.093 285.827 200.817C285.827 200.54 285.714 200.314 285.576 200.314C285.438 200.314 285.325 200.139 285.325 199.926C285.325 199.712 285.099 199.295 284.822 198.998C284.546 198.701 284.321 198.31 284.321 198.128C284.321 197.947 284.207 197.798 284.069 197.798C283.932 197.798 283.818 197.572 283.818 197.295C283.818 197.019 283.733 196.792 283.63 196.792C283.526 196.791 283.107 196.168 282.698 195.408C282.288 194.648 281.865 194.025 281.756 194.025C281.648 194.025 281.559 193.824 281.559 193.578C281.559 193.332 281.333 192.968 281.057 192.768C280.781 192.569 280.555 192.211 280.555 191.975C280.555 191.738 280.336 191.475 280.07 191.39C279.645 191.255 279.075 190.41 277.549 187.659C276.733 186.188 274.384 183.648 272.587 182.293C271.171 181.225 270.751 180.771 270.844 180.413C270.94 180.047 270.831 179.94 270.364 179.94C270.031 179.94 269.759 179.827 269.759 179.688C269.759 179.55 269.59 179.437 269.383 179.437C269.176 179.437 269.006 179.324 269.006 179.185C269.006 179.047 268.78 178.934 268.505 178.934C268.228 178.934 268.002 178.82 268.002 178.683C268.002 178.544 267.776 178.431 267.5 178.431C267.224 178.431 266.998 178.318 266.998 178.179C266.998 178.041 266.722 177.928 266.385 177.928C266.048 177.928 265.703 177.815 265.617 177.676C265.532 177.538 265.255 177.425 265.002 177.425C264.748 177.425 264.477 177.255 264.396 177.048C264.317 176.84 264.029 176.67 263.757 176.67C263.485 176.67 263.192 176.557 263.107 176.419C263.021 176.28 262.676 176.167 262.339 176.167C262.002 176.167 261.726 176.074 261.726 175.961C261.726 175.848 261.154 175.599 260.455 175.408C259.756 175.218 259.127 174.97 259.059 174.86C258.991 174.749 258.659 174.658 258.322 174.658C257.985 174.658 257.709 174.545 257.709 174.406C257.709 174.268 257.314 174.155 256.831 174.155C256.348 174.155 255.952 174.041 255.952 173.904C255.952 173.765 255.613 173.652 255.199 173.652C254.785 173.652 254.446 173.539 254.446 173.4C254.446 173.262 255.004 173.149 255.686 173.149C256.368 173.149 256.996 173.036 257.081 172.897C257.167 172.759 257.795 172.646 258.477 172.646C259.16 172.646 259.718 172.545 259.718 172.422C259.718 172.299 260.113 172.129 260.596 172.044C261.079 171.96 261.872 171.822 262.356 171.738C262.841 171.654 263.299 171.483 263.375 171.36C263.451 171.237 263.792 171.136 264.133 171.136C264.475 171.136 264.82 170.967 264.899 170.76C264.981 170.544 265.356 170.382 265.769 170.382C266.169 170.382 266.496 170.269 266.496 170.131C266.496 169.992 266.835 169.879 267.249 169.879C267.663 169.879 268.002 169.766 268.002 169.627C268.002 169.489 268.278 169.376 268.615 169.376C268.952 169.376 269.297 169.262 269.383 169.125C269.468 168.986 269.814 168.873 270.151 168.873C270.488 168.873 270.764 168.76 270.764 168.621C270.764 168.483 270.99 168.37 271.266 168.37C271.542 168.37 271.768 168.257 271.768 168.118C271.768 167.98 271.994 167.867 272.27 167.867C272.546 167.867 272.772 167.753 272.772 167.615C272.772 167.477 272.998 167.363 273.275 167.363C273.55 167.363 273.776 167.251 273.776 167.112C273.776 166.974 274.003 166.861 274.278 166.861C274.554 166.861 274.781 166.747 274.781 166.609C274.781 166.471 275.007 166.357 275.282 166.357C275.559 166.357 275.785 166.245 275.785 166.106C275.785 165.968 275.99 165.855 276.24 165.855C276.49 165.855 276.937 165.628 277.233 165.352C277.53 165.075 277.874 164.848 277.998 164.848C278.123 164.848 278.437 164.565 278.696 164.219C278.955 163.874 279.342 163.591 279.555 163.591C279.768 163.591 280.105 163.364 280.304 163.088C280.503 162.811 280.809 162.584 280.984 162.584C281.312 162.584 281.942 162.123 282.96 161.138C283.281 160.827 283.644 160.573 283.767 160.573C284.038 160.573 286.329 158.431 286.329 158.178C286.329 158.079 287.063 157.312 287.96 156.473C288.858 155.635 289.592 154.845 289.592 154.717C289.592 154.59 289.903 154.186 290.283 153.819C290.663 153.453 291.142 152.813 291.349 152.398C291.554 151.983 291.921 151.461 292.164 151.237C292.407 151.013 292.605 150.645 292.605 150.419C292.605 150.193 292.718 150.008 292.857 150.008C292.994 150.008 293.107 149.807 293.107 149.561C293.107 149.315 293.333 148.95 293.61 148.751C293.886 148.551 294.111 148.187 294.111 147.94C294.111 147.695 294.196 147.492 294.3 147.491C294.552 147.49 295.367 146.036 295.367 145.587C295.367 145.39 295.479 145.229 295.618 145.229C295.756 145.229 295.869 145.009 295.869 144.741C295.869 144.473 295.982 144.183 296.12 144.098C296.258 144.012 296.371 143.666 296.371 143.328C296.371 142.99 296.484 142.714 296.622 142.714C296.76 142.714 296.873 142.494 296.873 142.226C296.873 141.958 296.986 141.668 297.124 141.582C297.262 141.497 297.375 141.094 297.375 140.687C297.375 140.28 297.488 139.948 297.627 139.948C297.764 139.948 297.877 139.614 297.877 139.208C297.877 138.801 297.991 138.398 298.128 138.313C298.266 138.227 298.38 137.774 298.38 137.306C298.38 136.838 298.492 136.386 298.63 136.3C298.769 136.215 298.881 135.648 298.881 135.043C298.881 134.437 298.995 133.87 299.133 133.785C299.27 133.699 299.384 132.957 299.384 132.136C299.384 131.306 299.495 130.641 299.634 130.641C299.789 130.641 299.885 129.389 299.885 127.386C299.885 125.487 299.99 124.066 300.137 123.976C300.274 123.89 300.388 122.808 300.388 121.571C300.388 120.239 300.286 119.322 300.137 119.322C299.982 119.322 299.885 118.022 299.885 115.926C299.885 113.83 299.79 112.531 299.634 112.531C299.496 112.531 299.384 111.908 299.384 111.147C299.384 110.387 299.27 109.765 299.133 109.765C298.995 109.765 298.881 109.198 298.881 108.507C298.881 107.815 298.769 107.249 298.63 107.249C298.492 107.249 298.38 106.86 298.38 106.384C298.38 105.907 298.266 105.448 298.128 105.362C297.991 105.277 297.877 104.93 297.877 104.593C297.877 104.255 297.764 103.979 297.627 103.979C297.488 103.979 297.375 103.639 297.375 103.224C297.375 102.809 297.262 102.47 297.124 102.47C296.986 102.47 296.873 102.13 296.873 101.715C296.873 101.3 296.76 100.96 296.622 100.96C296.484 100.96 296.371 100.678 296.371 100.332C296.371 99.9862 296.258 99.7033 296.12 99.7033C295.982 99.7033 295.869 99.4771 295.869 99.1999C295.869 98.9235 295.756 98.6974 295.618 98.6974C295.479 98.6974 295.367 98.4704 295.367 98.1941C295.367 97.9177 295.254 97.6907 295.115 97.6907C294.978 97.6907 294.865 97.5173 294.865 97.3057C294.865 97.0941 294.695 96.8558 294.488 96.7756C294.281 96.6962 294.111 96.4165 294.111 96.1547C294.111 95.8929 293.999 95.6789 293.861 95.6789C293.722 95.6789 293.61 95.5087 293.61 95.3012C293.61 95.0937 293.497 94.9243 293.358 94.9243C293.221 94.9243 293.107 94.6982 293.107 94.421C293.107 94.1446 292.994 93.9184 292.857 93.9184C292.718 93.9184 292.605 93.7482 292.605 93.5407C292.605 93.3332 292.493 93.1638 292.354 93.1638C292.216 93.1638 292.103 93.0187 292.103 92.842C292.103 92.6645 291.877 92.3565 291.601 92.1571C291.325 91.9577 291.099 91.6514 291.099 91.4755C291.099 91.0491 284.184 84.1084 283.759 84.1084C283.576 84.1084 283.264 83.8823 283.065 83.6059C282.866 83.3287 282.61 83.1026 282.497 83.1026C282.384 83.1026 282.154 82.9866 281.988 82.8456C280.6 81.6728 280.139 81.3421 279.885 81.3421C279.724 81.3421 279.555 81.257 279.509 81.1532C279.404 80.9173 278.067 80.1003 277.48 79.9139C277.238 79.8369 277.04 79.674 277.04 79.5516C277.04 79.4292 276.82 79.3295 276.553 79.3295C276.285 79.3295 275.996 79.216 275.91 79.0782C275.825 78.9396 275.536 78.8261 275.268 78.8261C275 78.8261 274.781 78.7135 274.781 78.5749C274.781 78.4363 274.554 78.3236 274.278 78.3236C274.003 78.3236 273.776 78.2101 273.776 78.0723C273.776 77.9337 273.55 77.8202 273.275 77.8202C272.998 77.8202 272.772 77.7076 272.772 77.569C272.772 77.4304 272.433 77.3177 272.019 77.3177C271.605 77.3177 271.266 77.2042 271.266 77.0656C271.266 76.9278 271.068 76.8103 270.826 76.8063C270.585 76.8022 270.168 76.632 269.9 76.4294C269.632 76.2259 269.208 76.0597 268.958 76.0597C268.708 76.0597 268.505 75.9463 268.505 75.8085C268.505 75.6699 268.166 75.5564 267.751 75.5564C267.337 75.5564 266.998 75.4437 266.998 75.3051C266.998 75.1665 266.666 75.0539 266.26 75.0539C265.853 75.0539 265.451 74.9404 265.366 74.8018C265.281 74.664 264.829 74.5505 264.362 74.5505C263.895 74.5505 263.451 74.45 263.375 74.3268C263.223 74.0804 262.055 73.838 260.031 73.6322C259.306 73.5584 258.713 73.3955 258.713 73.2699C258.713 73.1442 257.979 73.0413 257.081 73.0413C256.161 73.0413 255.45 72.9319 255.45 72.79C255.45 72.6409 254.534 72.5387 253.205 72.5387C251.971 72.5387 250.891 72.4253 250.805 72.2867C250.702 72.1205 231.681 72.0354 194.555 72.0354H138.46V129.962ZM231.6 113.034C231.6 113.172 232.052 113.286 232.604 113.286C233.156 113.286 233.608 113.399 233.608 113.537C233.608 113.675 233.825 113.789 234.089 113.789C234.354 113.789 234.609 113.879 234.654 113.99C234.7 114.101 235.522 114.627 236.479 115.16C238.29 116.169 239.884 117.557 239.884 118.126C239.884 118.308 240.111 118.62 240.387 118.819C240.662 119.019 240.889 119.383 240.889 119.63C240.889 119.875 241.001 120.077 241.14 120.077C241.278 120.077 241.391 120.297 241.391 120.565C241.391 120.833 241.504 121.124 241.642 121.209C241.78 121.295 241.893 121.69 241.893 122.089C241.893 122.488 242.006 122.884 242.144 122.969C242.295 123.063 242.395 124.816 242.395 127.386C242.395 130.059 242.302 131.647 242.144 131.647C242.006 131.647 241.893 132.043 241.893 132.527C241.893 133.012 241.78 133.407 241.642 133.407C241.504 133.407 241.391 133.634 241.391 133.911C241.391 134.187 241.278 134.414 241.14 134.414C241.001 134.414 240.889 134.64 240.889 134.917C240.889 135.194 240.776 135.42 240.637 135.42C240.5 135.42 240.387 135.593 240.387 135.806C240.387 136.559 236.338 140.212 235.052 140.621C234.81 140.698 234.613 140.86 234.613 140.983C234.613 141.105 234.274 141.205 233.86 141.205C233.445 141.205 233.106 141.318 233.106 141.457C233.106 141.595 232.767 141.708 232.353 141.708C231.939 141.708 231.6 141.822 231.6 141.959C231.6 142.098 231.042 142.211 230.36 142.211C229.677 142.211 229.049 142.324 228.964 142.463C228.863 142.626 222.894 142.714 211.878 142.714H194.947V127.748V112.782H213.273C225.324 112.782 231.6 112.869 231.6 113.034ZM302.773 173.233C301.69 174.432 301.594 174.734 302.596 173.789C303.176 173.242 303.651 172.762 303.651 172.72C303.651 172.491 303.21 172.749 302.773 173.233ZM34.0234 175.35C34.0234 175.456 34.2492 175.684 34.525 175.857C34.8017 176.03 35.0274 176.085 35.0274 175.979C35.0274 175.872 34.8017 175.644 34.525 175.471C34.2492 175.298 34.0234 175.243 34.0234 175.35ZM300.289 175.559C300.054 176.174 300.105 176.236 300.513 175.825C300.94 175.398 300.994 175.161 300.666 175.161C300.542 175.161 300.373 175.34 300.289 175.559ZM299.259 176.668C299.009 176.946 298.885 177.173 298.986 177.173C299.251 177.173 299.966 176.416 299.83 176.279C299.767 176.216 299.51 176.391 299.259 176.668Z" fill="#A2CDD7"/>
</g>
</g>
<defs>
<filter id="filter0_di" x="-8.11328" y="-2.76099" width="355.223" height="247.451" filterUnits="userSpaceOnUse" color-interpolation-filters="sRGB">
<feFlood flood-opacity="0" result="BackgroundImageFix"/>
<feColorMatrix in="SourceAlpha" type="matrix" values="0 0 0 0 0 0 0 0 0 0 0 0 0 0 0 0 0 0 127 0"/>
<feOffset dx="2" dy="8"/>
<feGaussianBlur stdDeviation="8"/>
<feColorMatrix type="matrix" values="0 0 0 0 0 0 0 0 0 0.235294 0 0 0 0 0.290196 0 0 0 0.25 0"/>
<feBlend mode="normal" in2="BackgroundImageFix" result="effect1_dropShadow"/>
<feBlend mode="normal" in="SourceGraphic" in2="effect1_dropShadow" result="shape"/>
<feColorMatrix in="SourceAlpha" type="matrix" values="0 0 0 0 0 0 0 0 0 0 0 0 0 0 0 0 0 0 127 0" result="hardAlpha"/>
<feOffset dx="2" dy="4"/>
<feGaussianBlur stdDeviation="2"/>
<feComposite in2="hardAlpha" operator="arithmetic" k2="-1" k3="1"/>
<feColorMatrix type="matrix" values="0 0 0 0 0 0 0 0 0 0 0 0 0 0 0 0 0 0 0.25 0"/>
<feBlend mode="normal" in2="shape" result="effect2_innerShadow"/>
</filter>
<filter id="filter1_di" x="20.0234" y="64.0354" width="315.311" height="215.363" filterUnits="userSpaceOnUse" color-interpolation-filters="sRGB">
<feFlood flood-opacity="0" result="BackgroundImageFix"/>
<feColorMatrix in="SourceAlpha" type="matrix" values="0 0 0 0 0 0 0 0 0 0 0 0 0 0 0 0 0 0 127 0"/>
<feOffset dx="2" dy="8"/>
<feGaussianBlur stdDeviation="8"/>
<feColorMatrix type="matrix" values="0 0 0 0 0 0 0 0 0 0.235294 0 0 0 0 0.290196 0 0 0 0.25 0"/>
<feBlend mode="normal" in2="BackgroundImageFix" result="effect1_dropShadow"/>
<feBlend mode="normal" in="SourceGraphic" in2="effect1_dropShadow" result="shape"/>
<feColorMatrix in="SourceAlpha" type="matrix" values="0 0 0 0 0 0 0 0 0 0 0 0 0 0 0 0 0 0 127 0" result="hardAlpha"/>
<feOffset dx="2" dy="4"/>
<feGaussianBlur stdDeviation="2"/>
<feComposite in2="hardAlpha" operator="arithmetic" k2="-1" k3="1"/>
<feColorMatrix type="matrix" values="0 0 0 0 0 0 0 0 0 0 0 0 0 0 0 0 0 0 0.25 0"/>
<feBlend mode="normal" in2="shape" result="effect2_innerShadow"/>
</filter>
<clipPath id="clip0">
<rect width="335" height="260" fill="white"/>
</clipPath>
</defs>
</svg>
