<svg width="219" height="313" viewBox="0 0 219 313" fill="none" xmlns="http://www.w3.org/2000/svg">
<g opacity="0.5">
<path fill-rule="evenodd" clip-rule="evenodd" d="M204.051 2.76666C204.024 3.01125 203.876 3.19081 203.701 3.19081C203.516 3.19081 203.438 3.29543 203.501 3.4599C203.614 3.75256 203.243 4.69511 203.014 4.69747C202.936 4.69841 202.872 4.82613 202.872 4.98165C202.872 5.13717 202.797 5.26441 202.704 5.26441C202.612 5.26441 202.483 5.47649 202.418 5.73569C202.353 5.99489 202.177 6.20696 202.026 6.20696C201.876 6.20696 201.796 6.3196 201.849 6.45674C201.964 6.75553 198.651 10.1657 198.247 10.1657C198.095 10.1657 197.97 10.2467 197.97 10.3457C197.97 10.5168 194.344 13.1818 194.112 13.1818C194.051 13.1818 193.669 13.4019 193.263 13.671C192.856 13.9401 192.433 14.1046 192.323 14.0367C192.214 13.9689 192.124 14.0245 192.123 14.1602C192.122 14.2959 191.931 14.4995 191.698 14.6126C191.3 14.8058 187.797 16.5496 186.213 17.3432C185.815 17.5425 185.411 17.6589 185.318 17.601C185.224 17.5425 185.147 17.5948 185.147 17.7169C185.147 17.8456 184.989 17.8974 184.77 17.8399C184.549 17.7824 184.393 17.8343 184.393 17.9653C184.393 18.2202 183.29 18.6882 183.045 18.5374C182.957 18.4827 182.884 18.5374 182.884 18.6595C182.884 18.7881 182.726 18.84 182.507 18.7825C182.262 18.7184 182.13 18.7768 182.13 18.9488C182.13 19.0949 181.965 19.2141 181.764 19.2141C181.563 19.2141 181.348 19.2952 181.287 19.3946C181.225 19.4936 181.05 19.5271 180.898 19.4686C180.746 19.4102 180.621 19.4479 180.621 19.5525C180.621 19.7971 179.558 20.1713 179.226 20.0436C179.087 19.9903 178.919 20.0874 178.853 20.2599C178.783 20.4409 178.614 20.5276 178.451 20.4649C178.296 20.4055 178.17 20.4324 178.17 20.5252C178.17 20.7411 176.912 21.16 176.685 21.0196C176.59 20.9607 176.46 21.0493 176.396 21.2161C176.329 21.3919 176.14 21.4824 175.946 21.432C175.763 21.3839 175.501 21.465 175.364 21.612C175.226 21.7586 174.995 21.8335 174.851 21.7779C174.706 21.7223 174.587 21.7586 174.587 21.8594C174.587 21.9598 174.423 22.0418 174.221 22.0418C174.02 22.0418 173.798 22.1346 173.728 22.2482C173.658 22.3613 173.401 22.416 173.156 22.3693C172.913 22.3231 172.754 22.3514 172.804 22.4325C172.924 22.6252 172.196 22.8552 171.949 22.7025C171.844 22.638 171.759 22.6846 171.759 22.8067C171.759 22.9415 171.574 22.9928 171.287 22.9382C170.956 22.875 170.816 22.9311 170.816 23.1267C170.816 23.3208 170.675 23.3783 170.354 23.3171C170.058 23.2605 169.854 23.3284 169.786 23.5051C169.722 23.6724 169.532 23.7426 169.305 23.6832C169.099 23.629 168.93 23.662 168.93 23.7558C168.93 23.8501 168.723 23.9269 168.47 23.9269C168.217 23.9269 167.952 24.0197 167.882 24.1333C167.812 24.2464 167.555 24.3011 167.311 24.2544C167.067 24.2082 166.907 24.2337 166.955 24.3115C167.078 24.5117 166.534 24.6904 166.196 24.5608C166.04 24.5009 165.913 24.5348 165.913 24.6362C165.913 24.7375 165.51 24.9227 165.017 25.0476C164.525 25.1729 163.968 25.3577 163.78 25.4581C163.592 25.5589 163.274 25.5891 163.073 25.5255C162.872 25.4618 162.707 25.4967 162.707 25.6037C162.707 25.8374 161.261 26.2531 160.912 26.1193C160.775 26.067 160.614 26.1556 160.552 26.3163C160.475 26.518 160.267 26.583 159.881 26.526C159.574 26.4812 159.292 26.5335 159.256 26.6433C159.219 26.7527 158.963 26.8234 158.686 26.8003C158.408 26.7776 158.182 26.8521 158.182 26.9666C158.182 27.0901 157.953 27.1405 157.616 27.0915C157.211 27.0317 157.05 27.0854 157.05 27.2805C157.05 27.4737 156.904 27.5246 156.545 27.4563C156.244 27.3983 155.933 27.4681 155.771 27.6292C155.621 27.7791 155.344 27.8484 155.145 27.7852C154.932 27.7178 154.788 27.7617 154.788 27.8936C154.788 28.0359 154.551 28.0878 154.128 28.0383C153.649 27.9822 153.468 28.0341 153.468 28.2278C153.468 28.4125 153.305 28.47 152.935 28.4158C152.63 28.371 152.297 28.4497 152.157 28.6005C152.022 28.7447 151.71 28.8244 151.464 28.7773C151.217 28.7306 151.016 28.7754 151.016 28.8776C151.016 28.9827 150.777 29.0157 150.467 28.954C150.07 28.8748 149.888 28.9262 149.805 29.1406C149.727 29.3451 149.536 29.4069 149.189 29.3409C148.89 29.2834 148.578 29.3536 148.417 29.5143C148.258 29.6731 147.992 29.7339 147.767 29.6628C147.546 29.5926 147.325 29.6402 147.241 29.7764C147.161 29.9055 146.833 30.021 146.511 30.0323C146.189 30.044 145.925 30.1265 145.925 30.2156C145.925 30.3047 145.63 30.3433 145.27 30.3009C144.824 30.249 144.583 30.3098 144.513 30.4918C144.442 30.6765 144.24 30.725 143.861 30.6492C143.531 30.5832 143.283 30.6237 143.241 30.7505C143.202 30.8664 142.899 30.9536 142.568 30.9442C142.236 30.9347 141.965 31.0158 141.965 31.1242C141.965 31.2392 141.712 31.2844 141.359 31.2326C140.978 31.1765 140.651 31.2449 140.479 31.4173C140.308 31.5879 140.01 31.6516 139.685 31.5865C139.386 31.5267 139.133 31.5696 139.094 31.6869C139.057 31.7995 138.775 31.89 138.468 31.8886C138.162 31.8872 137.805 31.9711 137.677 32.0752C137.548 32.1794 137.191 32.2275 136.882 32.1822C136.509 32.1276 136.288 32.1912 136.218 32.3721C136.144 32.5654 135.946 32.6111 135.536 32.5286C135.137 32.449 134.865 32.5055 134.659 32.7115C134.462 32.9089 134.179 32.974 133.826 32.9033C133.531 32.8444 133.291 32.8788 133.291 32.9801C133.291 33.0809 132.999 33.1639 132.642 33.1639C132.285 33.1639 131.935 33.2567 131.865 33.3703C131.795 33.4843 131.475 33.5385 131.154 33.4914C130.796 33.4391 130.465 33.5107 130.299 33.6776C130.114 33.8623 129.826 33.9113 129.396 33.8307C129.048 33.7657 128.765 33.7911 128.765 33.8873C128.765 34.1201 127.842 34.2898 127.712 34.081C127.525 33.778 127.074 33.9024 127.197 34.2233C127.296 34.4797 127.193 34.5169 126.557 34.4566C126.077 34.4109 125.713 34.4787 125.559 34.6427C125.405 34.8082 125.094 34.8647 124.696 34.8001C124.345 34.7436 124.045 34.7841 124.008 34.893C123.973 34.9995 123.628 35.0867 123.243 35.0867C122.858 35.0867 122.542 35.1739 122.542 35.2808C122.542 35.3982 122.222 35.4392 121.736 35.3841C121.18 35.3214 120.85 35.3779 120.676 35.565C120.503 35.7493 120.223 35.7993 119.802 35.7201C119.388 35.6423 119.157 35.6814 119.105 35.8393C119.056 35.984 118.724 36.0622 118.239 36.0429C117.782 36.0245 117.451 36.0971 117.451 36.2144C117.451 36.3431 117.145 36.3832 116.613 36.3233C115.981 36.2517 115.749 36.2979 115.667 36.5109C115.585 36.7244 115.381 36.7644 114.823 36.6754C114.321 36.5948 114.064 36.6306 114.011 36.7885C113.967 36.9218 113.6 37.0199 113.147 37.0199C112.714 37.0199 112.36 37.0971 112.36 37.1919C112.36 37.2866 111.946 37.3144 111.433 37.2541C110.695 37.1664 110.483 37.2046 110.392 37.4407C110.306 37.666 110.101 37.7131 109.537 37.6372C109.066 37.5741 108.769 37.617 108.723 37.7546C108.68 37.8828 108.293 37.9577 107.771 37.9384C107.259 37.919 106.891 37.9888 106.891 38.1043C106.891 38.2277 106.573 38.2668 106.046 38.2075C105.439 38.1391 105.136 38.1905 104.97 38.3908C104.807 38.5868 104.518 38.6401 103.996 38.5703C103.478 38.5006 103.167 38.5567 102.969 38.7546C102.767 38.9563 102.493 39.003 102.026 38.9153C101.607 38.8366 101.318 38.871 101.233 39.0096C101.159 39.1297 100.704 39.2278 100.223 39.2278C99.7349 39.2278 99.3484 39.3154 99.3484 39.4267C99.3484 39.5553 99.0075 39.5855 98.3857 39.512C97.6484 39.4243 97.3533 39.4672 97.1261 39.6943C96.9191 39.9012 96.6146 39.962 96.1182 39.8956C95.6901 39.8381 95.3799 39.8819 95.3384 40.0058C95.2998 40.1223 94.8439 40.2052 94.2919 40.1972C93.7413 40.1887 93.3142 40.2665 93.3142 40.3753C93.3142 40.4964 92.9568 40.5261 92.3515 40.4545C91.6232 40.3683 91.3182 40.4107 91.0999 40.6289C90.8873 40.8414 90.6139 40.8838 90.0595 40.7901C89.5352 40.7019 89.2623 40.7363 89.1581 40.9046C89.0652 41.0554 88.6471 41.1383 88.0503 41.1247C87.4742 41.1115 87.0914 41.184 87.0914 41.307C87.0914 41.4404 86.7487 41.4762 86.1014 41.4102C85.3599 41.3348 85.045 41.381 84.847 41.595C84.6509 41.8075 84.3501 41.8537 83.6807 41.7741C83.0768 41.7029 82.7548 41.7401 82.7058 41.8872C82.6605 42.0224 82.2216 42.1011 81.5621 42.0912C80.9634 42.0828 80.4915 42.1591 80.4915 42.2647C80.4915 42.3801 80.0701 42.415 79.4072 42.3552C78.5921 42.2812 78.2579 42.3269 78.0604 42.538C77.8643 42.7487 77.571 42.7892 76.8988 42.7001C76.2525 42.6144 75.9776 42.6483 75.9197 42.8208C75.8654 42.9829 75.4789 43.0522 74.7241 43.0338C74.1108 43.0192 73.5663 43.0743 73.5145 43.1563C73.3778 43.3726 72.3633 43.4367 71.8367 43.2619C71.4977 43.1493 71.3393 43.1936 71.2026 43.4381C71.047 43.7153 70.849 43.7449 69.8817 43.6356C69.0322 43.5395 68.7046 43.5696 68.59 43.7548C68.4849 43.924 68.0738 43.99 67.2978 43.9613C66.6572 43.9372 66.1603 43.999 66.1603 44.1026C66.1603 44.2035 65.6139 44.286 64.9459 44.286C64.2501 44.286 63.675 44.3764 63.6 44.498C63.5123 44.6399 63.08 44.6701 62.2862 44.5885C61.4103 44.499 61.0817 44.5296 61.0223 44.7068C60.9671 44.8718 60.5678 44.9349 59.7358 44.9113C59.0531 44.8916 58.4766 44.9632 58.4068 45.0763C58.3389 45.1861 57.7011 45.2742 56.9888 45.2728C56.2769 45.2714 55.5868 45.3576 55.4548 45.4642C55.3119 45.5801 54.766 45.6117 54.1023 45.5419C53.3037 45.4585 52.9671 45.491 52.9115 45.6569C52.8587 45.8143 52.3863 45.8822 51.4354 45.8699C50.6666 45.8596 49.9825 45.9359 49.9146 46.0396C49.8472 46.1433 49.1472 46.221 48.359 46.213C47.4538 46.2036 46.9263 46.2729 46.9263 46.4006C46.9263 46.5382 46.4657 46.5646 45.4974 46.4826C44.325 46.3836 44.0143 46.4161 43.7659 46.6645C43.5184 46.9119 43.2242 46.9435 42.1503 46.8379C41.1665 46.7408 40.7997 46.7696 40.6866 46.9524C40.5796 47.1259 40.0718 47.1857 38.9225 47.1598C37.8345 47.1353 37.3093 47.1923 37.3093 47.3351C37.3093 47.4836 36.8549 47.5114 35.7828 47.4289C34.5265 47.3318 34.2031 47.3643 33.9551 47.6122C33.7039 47.8634 33.3871 47.8922 32.0586 47.7842C30.8339 47.6848 30.428 47.7121 30.3101 47.9025C30.1984 48.0826 29.6761 48.1419 28.407 48.1193C27.4448 48.1019 26.6146 48.1542 26.5623 48.2352C26.427 48.4436 24.3023 48.5929 24.1845 48.4021C24.0176 48.1316 22.799 48.2301 22.304 48.5538C21.9084 48.813 21.5275 48.8423 19.9539 48.7339C18.8056 48.6547 18.0753 48.674 18.0753 48.7829C18.0753 48.8814 17.5662 49.0209 16.9439 49.093L15.8125 49.2245V84.3415V119.459L16.4253 119.595C16.7624 119.67 18.0527 119.766 19.2925 119.809C20.5324 119.852 21.5931 119.96 21.6496 120.051C21.7062 120.141 22.6283 120.208 23.6989 120.199C25.0868 120.187 25.6878 120.252 25.7934 120.423C25.9052 120.603 26.3148 120.631 27.4425 120.532C28.6997 120.423 28.993 120.452 29.2518 120.711C29.5101 120.969 29.809 120.999 31.0634 120.895C31.8894 120.826 32.7205 120.841 32.91 120.929C33.1 121.017 33.9599 121.094 34.8207 121.101C35.9007 121.11 36.4344 121.191 36.5399 121.362C36.6559 121.549 36.9958 121.578 37.9226 121.479C39.1978 121.342 40.0346 121.473 39.8456 121.779C39.7781 121.888 40.3594 121.908 41.3513 121.832C42.4549 121.747 42.9664 121.772 42.9664 121.911C42.9664 122.039 43.4986 122.108 44.4183 122.099C45.3928 122.088 45.8948 122.158 45.9457 122.31C46 122.473 46.3743 122.502 47.2879 122.412C48.3099 122.311 48.6121 122.345 48.853 122.585C49.0915 122.824 49.4013 122.861 50.3917 122.768C51.1253 122.7 51.7296 122.73 51.8715 122.842C52.004 122.947 52.6531 123.035 53.3145 123.038C53.9759 123.042 54.5713 123.132 54.6378 123.24C54.7048 123.348 55.2969 123.42 55.9644 123.4C56.7965 123.377 57.1957 123.44 57.2509 123.605C57.3108 123.782 57.6417 123.813 58.5369 123.721C59.2469 123.648 59.8409 123.674 59.9814 123.784C60.1129 123.886 60.7229 123.98 61.3377 123.993C61.9519 124.005 62.5049 124.097 62.5666 124.196C62.6279 124.296 63.221 124.362 63.8843 124.343C64.7258 124.319 65.1151 124.382 65.1722 124.552C65.2325 124.732 65.5338 124.763 66.3427 124.671C67.0645 124.59 67.4751 124.619 67.5614 124.758C67.6349 124.877 68.2162 124.968 68.9058 124.968C69.5739 124.968 70.1202 125.035 70.1202 125.116C70.1202 125.198 70.602 125.265 71.1908 125.265C71.8518 125.265 72.2907 125.35 72.3369 125.489C72.3892 125.647 72.7418 125.679 73.5244 125.597C74.4262 125.503 74.6586 125.536 74.7486 125.771C74.8382 126.004 75.081 126.041 75.9786 125.96C76.6942 125.895 77.0973 125.929 77.0973 126.055C77.0973 126.173 77.5621 126.241 78.2607 126.225C79.0103 126.208 79.4511 126.277 79.4987 126.421C79.5496 126.573 79.8683 126.609 80.5 126.534C81.2543 126.445 81.4485 126.483 81.5461 126.737C81.6446 126.993 81.8308 127.027 82.586 126.927C83.1333 126.854 83.6019 126.884 83.7429 127.001C83.8735 127.11 84.3996 127.192 84.9125 127.184C85.4513 127.176 85.8756 127.26 85.9166 127.383C85.9628 127.521 86.2702 127.558 86.7878 127.487C87.3771 127.406 87.667 127.456 87.8857 127.674C88.1134 127.902 88.4076 127.945 89.1459 127.857C89.7512 127.785 90.1085 127.815 90.1085 127.936C90.1085 128.043 90.5408 128.13 91.074 128.13C91.6048 128.13 92.0927 128.212 92.1582 128.314C92.2238 128.415 92.6942 128.489 93.2043 128.477C93.7941 128.463 94.1599 128.541 94.2099 128.691C94.2641 128.854 94.5158 128.89 95.0259 128.809C95.4337 128.743 95.8693 128.776 96.0003 128.881C96.1304 128.986 96.6603 129.079 97.1779 129.088C97.6951 129.097 98.1476 129.191 98.1835 129.298C98.2221 129.413 98.5375 129.446 98.9608 129.378C99.461 129.298 99.75 129.346 99.9301 129.539C100.106 129.727 100.434 129.786 100.969 129.726C101.433 129.673 101.804 129.723 101.88 129.848C101.952 129.963 102.43 130.058 102.942 130.058C103.455 130.058 103.874 130.13 103.874 130.217C103.874 130.305 104.259 130.369 104.729 130.359C105.248 130.348 105.645 130.438 105.737 130.587C105.835 130.746 106.065 130.79 106.377 130.712C106.958 130.566 107.697 130.764 107.537 131.023C107.466 131.139 107.777 131.16 108.383 131.079C108.982 131 109.342 131.023 109.342 131.141C109.342 131.244 109.686 131.32 110.105 131.309C110.55 131.297 110.932 131.392 111.021 131.535C111.125 131.705 111.38 131.743 111.838 131.657C112.304 131.57 112.578 131.614 112.756 131.804C112.93 131.991 113.26 132.048 113.816 131.985C114.383 131.921 114.622 131.964 114.622 132.129C114.622 132.283 114.799 132.33 115.132 132.267C115.73 132.152 116.508 132.406 116.508 132.716C116.508 132.863 116.27 132.896 115.769 132.816C115.274 132.737 115.006 132.772 114.956 132.922C114.915 133.045 114.547 133.16 114.139 133.177C113.731 133.195 113.248 133.273 113.065 133.351C112.883 133.429 112.447 133.439 112.097 133.373C111.605 133.281 111.433 133.324 111.341 133.565C111.248 133.808 111.057 133.855 110.48 133.777C110.009 133.714 109.712 133.757 109.666 133.895C109.623 134.023 109.235 134.098 108.714 134.078C108.202 134.059 107.834 134.129 107.834 134.244C107.834 134.368 107.517 134.407 106.996 134.348C106.363 134.277 106.132 134.323 106.05 134.537C105.968 134.75 105.737 134.796 105.104 134.725C104.583 134.666 104.24 134.709 104.197 134.838C104.159 134.952 103.753 135.043 103.294 135.039C102.835 135.037 102.412 135.102 102.354 135.185C102.297 135.268 101.872 135.348 101.411 135.363C100.951 135.377 100.467 135.473 100.336 135.576C100.206 135.678 99.7481 135.715 99.3187 135.658C98.7605 135.583 98.4569 135.635 98.2514 135.841C98.0472 136.045 97.7587 136.095 97.2571 136.015C96.7947 135.941 96.5255 135.979 96.4774 136.124C96.4321 136.259 96.0244 136.336 95.4247 136.323C94.8359 136.309 94.4456 136.381 94.4456 136.504C94.4456 136.637 94.1472 136.666 93.5819 136.589C92.9252 136.499 92.6462 136.543 92.417 136.771C92.187 137.002 91.9065 137.045 91.2239 136.954C90.6007 136.872 90.3084 136.905 90.2546 137.065C90.207 137.209 89.8124 137.289 89.2005 137.28C88.6509 137.271 88.2228 137.349 88.2228 137.457C88.2228 137.58 87.8509 137.606 87.2055 137.531C86.3668 137.432 86.1679 137.465 86.0703 137.719C85.9722 137.974 85.7738 138.006 84.9059 137.903C84.3039 137.833 83.9036 137.852 83.964 137.949C84.1082 138.183 83.0645 138.367 82.3772 138.23C81.9873 138.152 81.8115 138.191 81.8115 138.355C81.8115 138.532 81.522 138.567 80.6928 138.492C79.7962 138.41 79.5524 138.448 79.4633 138.68C79.3747 138.91 79.1428 138.948 78.3296 138.864C77.6328 138.793 77.2839 138.829 77.2335 138.98C77.1864 139.12 76.7503 139.191 76.0441 139.174C75.4308 139.159 74.8863 139.21 74.8344 139.286C74.6826 139.51 73.3433 139.664 73.2241 139.471C73.1642 139.374 72.9455 139.295 72.738 139.295C72.5306 139.295 72.4118 139.377 72.474 139.478C72.64 139.747 71.7311 139.922 70.94 139.773C70.4592 139.683 70.2074 139.719 70.0995 139.894C69.9981 140.057 69.5687 140.138 68.854 140.129C68.2539 140.12 67.7117 140.19 67.6495 140.283C67.5868 140.377 67.0367 140.453 66.4266 140.453C65.8171 140.453 65.209 140.543 65.076 140.654C64.9271 140.777 64.4339 140.807 63.7895 140.731C62.9575 140.634 62.6821 140.672 62.4361 140.918C62.1914 141.162 61.9034 141.203 61.0468 141.113C60.3467 141.04 59.9422 141.072 59.8984 141.203C59.8593 141.321 59.3153 141.406 58.6114 141.405C57.9406 141.405 57.2844 141.493 57.1528 141.601C57.0109 141.717 56.4429 141.755 55.757 141.692C54.866 141.612 54.5341 141.654 54.3121 141.876C54.0858 142.102 53.7817 142.136 52.8983 142.036C52.0601 141.942 51.7334 141.972 51.6188 142.157C51.5132 142.328 51.0527 142.398 50.1386 142.383C49.3513 142.37 48.812 142.438 48.812 142.552C48.812 142.677 48.2463 142.7 47.1969 142.62C46.1569 142.54 45.6224 142.561 45.6959 142.681C45.8779 142.975 44.9275 143.122 43.7282 142.987C42.9192 142.895 42.6043 142.925 42.5463 143.099C42.4902 143.267 42.0202 143.326 40.9256 143.303C39.905 143.281 39.3836 143.341 39.3836 143.479C39.3836 143.625 38.8707 143.651 37.6761 143.566C36.5975 143.489 36.0101 143.512 36.0808 143.626C36.2665 143.927 35.2935 144.062 33.9226 143.927C32.9421 143.831 32.6135 143.859 32.5513 144.045C32.4904 144.226 32.0035 144.283 30.6934 144.262C29.7171 144.247 28.8756 144.299 28.8237 144.379C28.6889 144.585 26.5642 144.731 26.4473 144.542C26.2842 144.278 24.6686 144.351 24.7224 144.62C24.7582 144.799 24.292 144.846 22.7971 144.815C21.4097 144.785 20.7827 144.841 20.6828 145.003C20.5823 145.165 19.9153 145.224 18.4289 145.203C16.8826 145.181 16.25 145.24 16.0652 145.425C15.8559 145.634 15.8125 151.71 15.8125 180.848V216.018H17.321C18.1507 216.018 18.8296 216.093 18.8296 216.185C18.8296 216.277 19.7074 216.34 20.7803 216.327C22.1847 216.308 22.8188 216.373 23.0422 216.559C23.2784 216.755 23.6918 216.785 24.7648 216.685C26.2649 216.544 27.3925 216.683 27.2053 216.986C27.1332 217.103 27.7791 217.122 28.9953 217.038C30.2545 216.952 30.898 216.972 30.898 217.101C30.898 217.22 31.5599 217.287 32.6286 217.275C33.8467 217.262 34.3823 217.325 34.4369 217.489C34.494 217.66 34.8937 217.69 35.9686 217.6C37.1641 217.5 37.4767 217.532 37.7251 217.781C37.9745 218.03 38.296 218.062 39.5542 217.965C40.5781 217.887 41.0807 217.913 41.0807 218.048C41.0807 218.173 41.6464 218.242 42.6048 218.231C43.5057 218.221 44.1803 218.298 44.2548 218.417C44.3288 218.537 44.9553 218.608 45.7784 218.592C46.7278 218.572 47.2007 218.637 47.253 218.792C47.3096 218.959 47.7348 218.989 48.8252 218.906C49.8548 218.826 50.3205 218.855 50.3205 218.997C50.3205 219.13 50.7971 219.195 51.6551 219.179C52.4165 219.165 53.0444 219.24 53.1165 219.354C53.1868 219.464 53.7732 219.543 54.428 219.529C55.2261 219.513 55.6632 219.587 55.7669 219.754C55.8824 219.94 56.2114 219.97 57.0793 219.871C57.801 219.79 58.3272 219.814 58.4747 219.937C58.6053 220.045 59.2988 220.137 60.0167 220.143C60.7342 220.148 61.3707 220.219 61.431 220.301C61.4909 220.383 62.0424 220.45 62.6562 220.449C63.3996 220.449 63.7989 220.53 63.8527 220.692C63.913 220.872 64.2138 220.903 65.0228 220.811C65.7445 220.73 66.1551 220.759 66.2414 220.898C66.3149 221.017 66.8962 221.108 67.5859 221.108C68.2539 221.108 68.8003 221.185 68.8003 221.279C68.8003 221.372 69.324 221.437 69.9637 221.422C70.7599 221.404 71.1526 221.472 71.2078 221.636C71.2672 221.815 71.5746 221.844 72.3981 221.752C73.3136 221.648 73.5281 221.678 73.6224 221.924C73.7167 222.17 73.9477 222.202 74.9457 222.109C75.6462 222.044 76.1544 222.07 76.1544 222.171C76.1544 222.268 76.6362 222.347 77.225 222.347C77.8968 222.347 78.3244 222.432 78.3725 222.576C78.4262 222.738 78.7454 222.77 79.4662 222.685C80.3105 222.586 80.5042 222.619 80.6037 222.877C80.7018 223.133 80.888 223.167 81.6432 223.067C82.1905 222.994 82.6591 223.024 82.8 223.141C82.9306 223.25 83.4483 223.332 83.9503 223.324C84.4882 223.316 84.9229 223.406 85.0082 223.544C85.1086 223.707 85.4103 223.74 85.9977 223.652C86.6252 223.558 86.9141 223.597 87.1225 223.805C87.3219 224.005 87.6496 224.058 88.2596 223.989C88.7871 223.929 89.1666 223.973 89.2463 224.103C89.3179 224.218 89.8384 224.313 90.4027 224.313C90.9669 224.313 91.4285 224.383 91.4285 224.468C91.4285 224.553 91.8556 224.617 92.3779 224.609C92.9625 224.601 93.3853 224.689 93.4777 224.838C93.5824 225.008 93.861 225.044 94.3904 224.96C94.8708 224.883 95.2003 224.915 95.2814 225.047C95.3526 225.162 95.8726 225.255 96.4369 225.255C97.003 225.255 97.4627 225.341 97.4627 225.446C97.4627 225.562 97.7474 225.592 98.1844 225.522C98.7016 225.439 98.9882 225.488 99.1942 225.694C99.3974 225.897 99.7033 225.951 100.239 225.879C100.699 225.818 101.048 225.861 101.127 225.988C101.198 226.103 101.676 226.198 102.188 226.198C102.701 226.198 103.12 226.276 103.12 226.372C103.12 226.468 103.505 226.532 103.975 226.513C104.501 226.494 104.888 226.574 104.981 226.724C105.086 226.894 105.365 226.929 105.913 226.841C106.53 226.743 106.72 226.779 106.81 227.012C106.9 227.247 107.113 227.285 107.85 227.198C108.417 227.131 108.777 227.161 108.777 227.277C108.777 227.381 109.134 227.466 109.57 227.466C110.006 227.466 110.395 227.562 110.434 227.68C110.48 227.817 110.761 227.853 111.218 227.78C111.706 227.702 112.007 227.749 112.175 227.928C112.322 228.085 112.669 228.16 113.052 228.115C113.4 228.075 113.806 228.142 113.954 228.265C114.102 228.387 114.376 228.466 114.564 228.439C115.101 228.364 116.493 228.661 116.629 228.88C116.711 229.012 116.53 229.037 116.081 228.952C115.62 228.865 115.387 228.9 115.333 229.062C115.285 229.207 114.953 229.285 114.467 229.266C114.007 229.247 113.68 229.319 113.68 229.439C113.68 229.574 113.357 229.605 112.731 229.531C112.197 229.468 111.827 229.492 111.885 229.586C112.035 229.829 111.338 230.003 110.778 229.863C110.451 229.781 110.195 229.843 109.979 230.059C109.748 230.29 109.489 230.344 109.03 230.258C108.682 230.193 108.4 230.218 108.4 230.315C108.4 230.574 107.214 230.71 106.932 230.484C106.758 230.343 106.621 230.384 106.442 230.628C106.251 230.891 106.027 230.946 105.457 230.869C104.952 230.801 104.64 230.856 104.466 231.042C104.284 231.237 104.003 231.279 103.477 231.19C102.998 231.109 102.743 231.137 102.743 231.271C102.743 231.391 102.356 231.476 101.811 231.476C101.299 231.476 100.821 231.571 100.749 231.687C100.671 231.814 100.322 231.857 99.8617 231.795C99.3323 231.724 99.0198 231.778 98.8237 231.974C98.6186 232.179 98.339 232.22 97.7908 232.128C97.2783 232.041 96.9931 232.075 96.8951 232.233C96.8163 232.361 96.3812 232.483 95.9287 232.505C95.4761 232.526 94.9533 232.611 94.7675 232.693C94.5813 232.775 94.1259 232.794 93.7554 232.733C93.2868 232.657 92.995 232.711 92.7951 232.911C92.5844 233.122 92.3096 233.164 91.7566 233.07C91.2281 232.981 90.9594 233.016 90.8529 233.188C90.7586 233.341 90.3404 233.428 89.745 233.419C89.2185 233.411 88.7885 233.491 88.7885 233.595C88.7885 233.709 88.3892 233.752 87.7872 233.702C87.0806 233.644 86.7129 233.697 86.5375 233.885C86.356 234.079 86.0595 234.117 85.4381 234.024C84.821 233.931 84.5443 233.965 84.4316 234.147C84.3312 234.31 83.9404 234.388 83.3266 234.37C82.777 234.353 82.3772 234.424 82.3772 234.537C82.3772 234.663 81.9722 234.697 81.2585 234.632C80.3623 234.551 80.1181 234.588 80.029 234.82C79.9399 235.052 79.7174 235.085 78.9005 234.99C78.1665 234.903 77.861 234.935 77.8039 235.105C77.7521 235.26 77.3759 235.33 76.7046 235.311C76.1436 235.294 75.6415 235.349 75.5892 235.434C75.4567 235.648 74.2636 235.72 73.7365 235.545C73.4178 235.44 73.2326 235.491 73.0581 235.729C72.8587 236.002 72.6503 236.034 71.8169 235.924C71.0796 235.826 70.775 235.856 70.6628 236.037C70.5638 236.197 70.1443 236.275 69.4668 236.259C68.8926 236.245 68.4231 236.309 68.4231 236.4C68.4231 236.492 67.8767 236.566 67.2087 236.566C66.5106 236.566 65.9383 236.657 65.8624 236.779C65.7751 236.92 65.3565 236.952 64.6107 236.874C63.7263 236.782 63.4279 236.82 63.1913 237.057C62.9551 237.293 62.6755 237.329 61.8605 237.227C61.1425 237.137 60.787 237.166 60.6899 237.323C60.6065 237.458 60.0705 237.55 59.3487 237.553C58.6873 237.557 58.0386 237.644 57.9071 237.748C57.7652 237.861 57.1816 237.887 56.4674 237.814C55.4515 237.71 55.2474 237.739 55.1465 238.003C55.0451 238.266 54.8415 238.295 53.8223 238.191C52.9614 238.102 52.5956 238.132 52.5419 238.292C52.4947 238.434 51.9842 238.527 51.1583 238.544C50.4379 238.558 49.6945 238.639 49.5055 238.725C49.3164 238.809 48.6522 238.826 48.0294 238.761C47.1238 238.666 46.8353 238.704 46.5907 238.948C46.3408 239.198 46.0344 239.233 44.9228 239.139C43.9479 239.057 43.5396 239.088 43.4859 239.249C43.4354 239.4 42.9386 239.465 41.9632 239.446C41.0326 239.428 40.515 239.491 40.515 239.623C40.515 239.762 40.0308 239.789 38.9885 239.709C37.7322 239.612 37.4088 239.644 37.1608 239.892C36.911 240.142 36.5937 240.172 35.3114 240.068C34.1244 239.972 33.7444 239.999 33.6817 240.186C33.6223 240.365 33.1452 240.423 31.9191 240.405C30.9946 240.39 30.1937 240.449 30.1395 240.535C30.0277 240.712 28.6988 240.741 27.0323 240.602C26.2616 240.537 25.9881 240.566 26.1739 240.692C26.6311 241 25.5643 241.154 23.9695 241.01C22.8862 240.912 22.5053 240.94 22.3893 241.127C22.2757 241.31 21.6793 241.364 20.0619 241.337C18.7994 241.316 17.8868 241.375 17.8868 241.478C17.8868 241.576 17.5544 241.656 17.148 241.656C16.7417 241.656 16.275 241.707 16.1109 241.77C15.8403 241.874 15.8125 245.182 15.8125 277.325V312.766L16.5196 312.608C16.9086 312.521 17.6298 312.463 18.1225 312.479C18.6151 312.496 19.0182 312.43 19.0182 312.334C19.0182 312.237 19.5221 312.159 20.1383 312.159C20.7638 312.159 21.3163 312.065 21.3894 311.947C21.4729 311.812 21.8495 311.774 22.4256 311.842C23.0432 311.915 23.3548 311.878 23.4062 311.724C23.4533 311.583 23.8639 311.505 24.5027 311.517C25.0641 311.527 25.5728 311.46 25.6331 311.369C25.693 311.278 26.1597 311.197 26.6703 311.188C27.1804 311.18 27.7046 311.087 27.8352 310.982C27.9657 310.876 28.4683 310.835 28.9524 310.889C29.5851 310.961 29.9113 310.91 30.1126 310.708C30.321 310.5 30.6099 310.461 31.2374 310.555C31.8088 310.641 32.127 310.609 32.2208 310.458C32.3023 310.325 32.7917 310.239 33.4201 310.247C34.0683 310.254 34.4808 310.179 34.4808 310.053C34.4808 309.913 34.8461 309.889 35.6306 309.978C36.3651 310.061 36.7389 310.041 36.6658 309.923C36.5098 309.67 37.521 309.471 38.1541 309.63C38.4897 309.714 38.7212 309.675 38.8174 309.52C38.9098 309.371 39.3633 309.285 40.0228 309.29C40.6484 309.296 41.0807 309.218 41.0807 309.1C41.0807 308.969 41.4621 308.94 42.1937 309.017C43.1116 309.112 43.327 309.08 43.4227 308.831C43.5165 308.586 43.7136 308.552 44.4612 308.651C45.1193 308.739 45.406 308.707 45.4616 308.54C45.5125 308.387 45.9127 308.311 46.61 308.321C47.2115 308.329 47.6806 308.253 47.6806 308.147C47.6806 308.028 48.1044 308.002 48.8219 308.077C49.4993 308.148 49.9198 308.126 49.8562 308.023C49.6902 307.754 50.4191 307.6 51.1814 307.743C51.6759 307.836 51.9158 307.799 52.0313 307.612C52.1331 307.447 52.507 307.358 53.0482 307.369C53.5187 307.379 53.9033 307.316 53.9033 307.228C53.9033 307.14 54.3649 307.069 54.9291 307.069C55.4934 307.069 56.0125 306.976 56.0827 306.862C56.1558 306.745 56.5438 306.69 56.9897 306.735C57.4701 306.784 57.9316 306.71 58.1923 306.543C58.4738 306.363 58.8372 306.314 59.2766 306.396C59.6896 306.474 59.9375 306.446 59.9375 306.323C59.9375 306.21 60.3788 306.126 60.9747 306.126C61.6191 306.126 62.0118 306.046 62.0118 305.913C62.0118 305.768 62.3022 305.739 62.9329 305.823C63.6877 305.923 63.8758 305.889 63.9734 305.635C64.0672 305.39 64.2473 305.35 64.8281 305.442C65.2999 305.518 65.5885 305.485 65.6337 305.349C65.6724 305.233 66.0825 305.12 66.545 305.098C67.0074 305.076 67.5354 304.992 67.7183 304.912C67.9012 304.831 68.3222 304.804 68.6541 304.853C69.0355 304.909 69.3598 304.84 69.5343 304.665C69.7205 304.479 70.0424 304.42 70.5219 304.484C70.916 304.537 71.2611 304.496 71.296 304.391C71.3304 304.288 71.6953 304.204 72.1063 304.204C72.5179 304.205 72.962 304.117 73.093 304.01C73.2302 303.897 73.6889 303.863 74.1759 303.929C74.7925 304.014 75.0079 303.982 74.9745 303.813C74.9438 303.657 75.1762 303.59 75.683 303.608C76.0979 303.622 76.4967 303.539 76.5693 303.423C76.6419 303.308 77.0449 303.213 77.465 303.213C77.885 303.213 78.2287 303.147 78.2287 303.067C78.2287 302.987 78.6053 302.922 79.0659 302.922C79.5265 302.922 79.9607 302.829 80.0309 302.715C80.1012 302.602 80.4873 302.54 80.8889 302.579C81.291 302.617 81.6479 302.563 81.6828 302.459C81.7172 302.356 82.1 302.27 82.5328 302.27C82.966 302.27 83.32 302.205 83.32 302.125C83.32 302.045 83.6967 301.979 84.1573 301.979C84.6179 301.979 85.053 301.885 85.1242 301.77C85.2015 301.645 85.5201 301.604 85.9114 301.667C86.3692 301.742 86.6586 301.684 86.8632 301.48C87.0612 301.282 87.3578 301.219 87.7731 301.286C88.112 301.341 88.4166 301.304 88.45 301.203C88.4835 301.103 88.8069 300.995 89.1685 300.964C89.5301 300.932 89.977 300.841 90.1613 300.761C90.3461 300.68 90.7416 300.664 91.04 300.723C91.4327 300.802 91.6147 300.749 91.6977 300.533C91.7835 300.309 91.9749 300.261 92.4576 300.339C92.8432 300.402 93.1308 300.362 93.1713 300.24C93.2086 300.127 93.532 300.019 93.8898 299.999C94.2471 299.979 94.6893 299.897 94.8722 299.819C95.0551 299.74 95.4549 299.712 95.7608 299.757C96.1281 299.81 96.352 299.747 96.4204 299.568C96.4901 299.387 96.7287 299.323 97.152 299.372C97.5216 299.416 97.8775 299.342 98.0166 299.193C98.1684 299.031 98.4484 298.984 98.8006 299.061C99.1697 299.142 99.3484 299.107 99.3484 298.953C99.3484 298.796 99.5803 298.756 100.09 298.824C100.643 298.898 100.859 298.851 100.94 298.64C101.016 298.444 101.242 298.379 101.678 298.43C102.047 298.473 102.403 298.399 102.542 298.251C102.694 298.088 102.974 298.041 103.326 298.118C103.667 298.193 103.874 298.162 103.874 298.035C103.874 297.923 104.166 297.832 104.523 297.832C104.88 297.832 105.229 297.739 105.3 297.625C105.37 297.512 105.701 297.451 106.035 297.49C106.389 297.531 106.744 297.454 106.883 297.304C107.033 297.144 107.302 297.093 107.602 297.168C107.886 297.239 108.136 297.199 108.216 297.07C108.29 296.95 108.659 296.852 109.035 296.852C109.412 296.852 109.72 296.766 109.72 296.661C109.72 296.553 109.984 296.508 110.325 296.558C110.706 296.614 111.033 296.546 111.204 296.375C111.361 296.218 111.678 296.141 111.951 296.193C112.227 296.246 112.542 296.168 112.703 296.008C112.871 295.839 113.153 295.775 113.424 295.843C113.697 295.911 113.868 295.871 113.868 295.737C113.868 295.59 114.113 295.561 114.636 295.644C115.127 295.723 115.363 295.699 115.289 295.58C115.151 295.357 116.021 295.103 116.31 295.281C116.421 295.35 116.65 295.267 116.82 295.097C117.016 294.9 117.289 294.829 117.573 294.9C117.846 294.968 118.017 294.928 118.017 294.795C118.017 294.648 118.259 294.618 118.772 294.7C119.329 294.789 119.514 294.758 119.479 294.582C119.449 294.433 119.642 294.344 119.997 294.344C120.308 294.344 120.62 294.264 120.691 294.165C120.762 294.067 121.122 293.986 121.492 293.986C121.862 293.986 122.165 293.907 122.165 293.811C122.165 293.714 122.46 293.683 122.821 293.742C123.271 293.815 123.463 293.778 123.434 293.625C123.408 293.493 123.622 293.402 123.957 293.402C124.268 293.402 124.578 293.324 124.647 293.229C124.716 293.134 125.034 293.056 125.354 293.056C125.674 293.056 125.937 292.986 125.937 292.899C125.937 292.813 126.228 292.742 126.585 292.742C126.942 292.742 127.292 292.649 127.362 292.536C127.432 292.423 127.706 292.371 127.972 292.422C128.248 292.474 128.567 292.401 128.717 292.251C128.878 292.091 129.16 292.033 129.439 292.103C129.717 292.172 129.896 292.136 129.896 292.008C129.896 291.894 130.193 291.799 130.556 291.799C130.919 291.799 131.216 291.704 131.216 291.587C131.216 291.454 131.419 291.416 131.765 291.485C132.162 291.564 132.345 291.513 132.428 291.299C132.506 291.094 132.696 291.032 133.044 291.098C133.345 291.156 133.655 291.085 133.82 290.921C133.97 290.77 134.221 290.695 134.376 290.755C134.531 290.815 134.775 290.767 134.916 290.65C135.058 290.532 135.382 290.475 135.637 290.524C135.934 290.581 136.139 290.513 136.206 290.336C136.274 290.159 136.479 290.092 136.775 290.148C137.03 290.197 137.265 290.153 137.3 290.051C137.334 289.948 137.633 289.854 137.966 289.842C138.298 289.83 138.57 289.746 138.57 289.655C138.571 289.564 138.818 289.54 139.119 289.6C139.516 289.679 139.699 289.628 139.782 289.413C139.854 289.224 140.051 289.147 140.327 289.2C140.565 289.245 140.87 289.163 141.006 289.018C141.153 288.861 141.431 288.798 141.688 288.862C141.929 288.923 142.153 288.879 142.191 288.765C142.228 288.653 142.49 288.547 142.772 288.53C143.054 288.514 143.285 288.426 143.285 288.336C143.285 288.245 143.532 288.22 143.834 288.28C144.23 288.36 144.413 288.308 144.496 288.094C144.572 287.896 144.765 287.828 145.079 287.887C145.336 287.936 145.548 287.904 145.548 287.815C145.548 287.725 145.802 287.652 146.113 287.652C146.424 287.652 146.679 287.558 146.679 287.443C146.679 287.317 146.904 287.265 147.238 287.314C147.607 287.369 147.831 287.305 147.899 287.127C147.968 286.949 148.155 286.896 148.457 286.972C148.721 287.039 148.94 286.998 148.981 286.874C149.02 286.758 149.282 286.663 149.563 286.663C149.844 286.663 150.073 286.579 150.073 286.475C150.073 286.373 150.281 286.328 150.535 286.377C150.797 286.427 151.035 286.367 151.085 286.237C151.169 286.019 152.552 285.673 153.043 285.748C153.173 285.768 153.279 285.685 153.279 285.564C153.279 285.419 153.474 285.382 153.845 285.456C154.251 285.538 154.41 285.497 154.41 285.312C154.41 285.063 155.205 284.813 156.06 284.794C156.294 284.789 156.485 284.698 156.485 284.593C156.485 284.48 156.718 284.447 157.05 284.514C157.457 284.595 157.616 284.555 157.616 284.37C157.616 284.141 158.237 283.927 159.172 283.834C159.353 283.816 159.502 283.735 159.502 283.653C159.502 283.572 159.756 283.505 160.067 283.505C160.379 283.505 160.633 283.41 160.633 283.294C160.633 283.173 160.828 283.121 161.095 283.172C161.36 283.223 161.595 283.162 161.646 283.03C161.729 282.812 162.899 282.464 163.415 282.503C163.544 282.513 163.65 282.445 163.65 282.353C163.65 282.261 163.857 282.185 164.11 282.185C164.363 282.185 164.617 282.111 164.672 282.021C164.758 281.883 165.45 281.657 166.196 281.523C166.398 281.487 166.905 281.306 167.516 281.052C168.782 280.526 169.721 280.266 170.049 280.352C170.256 280.406 170.408 280.371 170.385 280.273C170.331 280.036 172.329 279.323 172.749 279.428C172.93 279.474 173.08 279.413 173.081 279.293C173.083 279.072 175.308 278.209 176.001 278.159C176.209 278.145 176.472 278.013 176.587 277.866C176.702 277.719 176.934 277.653 177.106 277.719C177.276 277.784 177.416 277.763 177.416 277.67C177.416 277.454 178.673 277.035 178.901 277.175C178.996 277.234 179.114 277.176 179.164 277.046C179.279 276.746 181.106 276.081 181.368 276.243C181.476 276.309 181.564 276.27 181.564 276.155C181.564 275.95 182.652 275.466 182.931 275.547C183.009 275.569 183.073 275.513 183.073 275.421C183.073 275.33 183.581 275.097 184.203 274.903C184.824 274.709 185.333 274.487 185.334 274.409C185.335 274.332 185.42 274.268 185.523 274.268C185.626 274.268 186.354 273.971 187.14 273.608C187.926 273.245 188.685 272.948 188.827 272.948C188.969 272.948 189.141 272.858 189.209 272.747C189.278 272.637 189.453 272.591 189.597 272.647C189.742 272.703 189.861 272.676 189.861 272.587C189.861 272.499 190.01 272.38 190.191 272.322C190.373 272.265 190.733 272.091 190.993 271.936C191.252 271.781 192.567 271.108 193.915 270.44C196.311 269.253 197.078 268.847 198.646 267.932C199.07 267.685 199.473 267.539 199.541 267.608C199.61 267.677 199.667 267.64 199.667 267.527C199.667 267.413 200.197 266.999 200.845 266.605C201.494 266.211 202.151 265.784 202.307 265.655C202.462 265.526 202.95 265.163 203.391 264.848L204.192 264.275V228.801C204.192 190.514 204.226 191.909 203.261 190.682C202.53 189.753 200.897 188.106 200.312 187.708C199.959 187.468 199.669 187.168 199.668 187.041C199.667 186.914 199.548 186.857 199.404 186.912C199.259 186.968 199.025 186.858 198.885 186.668C198.745 186.478 198.418 186.221 198.158 186.096C197.219 185.646 195.61 184.682 195.497 184.501C195.434 184.4 195.328 184.324 195.262 184.332C195.028 184.363 193.633 183.692 193.633 183.551C193.633 183.471 193.505 183.406 193.35 183.406C193.194 183.406 193.067 183.316 193.067 183.206C193.067 183.097 192.99 183.054 192.896 183.113C192.802 183.171 192.399 183.052 192.001 182.85C191.602 182.647 190.872 182.305 190.38 182.091C189.887 181.876 189.484 181.62 189.484 181.523C189.484 181.425 189.367 181.389 189.224 181.444C189.081 181.499 188.526 181.333 187.991 181.074C187.455 180.817 186.76 180.549 186.446 180.48C186.133 180.411 185.833 180.245 185.782 180.11C185.731 179.976 185.534 179.907 185.345 179.956C185.156 180.006 184.944 179.954 184.875 179.841C184.805 179.728 184.583 179.636 184.381 179.636C184.18 179.636 184.016 179.551 184.016 179.448C184.016 179.344 183.952 179.269 183.874 179.281C183.485 179.343 183.261 179.231 183.261 178.976C183.261 178.821 183.426 178.694 183.627 178.694C183.828 178.694 184.043 178.612 184.105 178.513C184.166 178.414 184.341 178.381 184.493 178.439C184.645 178.497 184.77 178.462 184.77 178.359C184.77 178.257 185.003 178.087 185.288 177.98C185.574 177.874 185.977 177.723 186.184 177.644C186.392 177.567 186.667 177.52 186.797 177.541C186.927 177.562 187.033 177.501 187.033 177.405C187.033 177.172 188.094 176.743 188.322 176.883C188.421 176.945 188.553 176.863 188.614 176.701C188.677 176.54 188.813 176.46 188.917 176.525C189.022 176.589 189.107 176.57 189.107 176.482C189.107 176.24 192.261 174.869 192.49 175.011C192.6 175.079 192.691 175.023 192.692 174.888C192.694 174.577 194.091 173.892 194.369 174.064C194.483 174.134 194.575 174.08 194.575 173.944C194.575 173.807 194.979 173.504 195.471 173.27C195.964 173.036 196.814 172.587 197.361 172.273C197.907 171.959 198.438 171.753 198.54 171.815C198.641 171.878 198.724 171.807 198.724 171.657C198.724 171.508 198.872 171.336 199.054 171.275C199.413 171.155 199.812 170.913 200.738 170.258C201.069 170.024 201.422 169.834 201.524 169.834C201.626 169.834 201.738 169.766 201.773 169.684C201.807 169.602 202.366 169.165 203.015 168.713L204.195 167.892L204.122 132.056C204.051 97.7191 204.032 95.3722 203.814 95.3722C203.762 95.3722 203.611 95.1389 203.48 94.8538C203.049 93.9183 201.093 91.9578 199.389 90.7537C199.095 90.5463 198.699 90.2282 198.507 90.0468C198.315 89.8653 198.119 89.7381 198.07 89.764C198.022 89.7899 197.827 89.6839 197.637 89.5284C197.448 89.3728 196.683 88.9487 195.937 88.5858C195.192 88.2229 194.58 87.8148 194.578 87.6791C194.577 87.5433 194.502 87.4774 194.413 87.5325C194.224 87.6498 193.259 87.2356 193.257 87.0367C193.256 86.9618 193.128 86.95 192.973 87.0094C192.798 87.0768 192.69 87.0089 192.69 86.8327C192.69 86.6404 192.567 86.5796 192.313 86.646C192.102 86.7012 191.935 86.6517 191.935 86.5343C191.935 86.4184 191.811 86.3237 191.658 86.3237C191.291 86.3237 189.861 85.5729 189.861 85.3797C189.861 85.2963 189.692 85.2723 189.484 85.3265C189.265 85.384 189.107 85.3321 189.107 85.2035C189.107 85.0814 189.032 85.0281 188.941 85.0842C188.756 85.1988 187.599 84.6714 187.598 84.472C187.598 84.4018 187.329 84.3344 187.001 84.3227C186.673 84.3109 186.308 84.169 186.19 84.0074C186.072 83.8462 185.81 83.7288 185.609 83.7463C185.392 83.7656 185.263 83.6761 185.293 83.529C185.323 83.3862 185.255 83.3353 185.134 83.4098C185.017 83.4819 184.74 83.4531 184.516 83.3466C184.293 83.2401 183.961 83.1058 183.78 83.0479C183.241 82.8754 183.399 82.668 184.346 82.3042C184.839 82.1157 185.393 81.8796 185.579 81.7796C185.765 81.6797 185.998 81.6486 186.097 81.7099C186.197 81.7712 186.278 81.7297 186.278 81.6175C186.278 81.437 186.982 81.0676 187.504 80.9742C187.608 80.9559 187.799 80.8743 187.928 80.7933C188.058 80.7122 188.249 80.6985 188.353 80.7626C188.456 80.8267 188.541 80.7871 188.541 80.675C188.541 80.5623 188.775 80.3823 189.06 80.2749C189.345 80.1669 190.168 79.7847 190.888 79.4252C191.609 79.0656 192.309 78.8139 192.444 78.8658C192.579 78.9176 192.691 78.8568 192.692 78.73C192.695 78.4331 194.1 77.7578 194.369 77.9241C194.483 77.9944 194.575 77.9293 194.575 77.7795C194.575 77.6301 194.724 77.4599 194.905 77.402C195.087 77.3435 195.999 76.8666 196.933 76.3411C197.866 75.8161 198.842 75.2817 199.101 75.154C199.36 75.0263 199.74 74.769 199.946 74.5828C200.151 74.3967 200.512 74.1959 200.747 74.137C200.983 74.0781 201.175 73.9753 201.176 73.9089C201.176 73.842 201.579 73.5361 202.072 73.2284C202.564 72.9206 203.243 72.4116 203.581 72.0973L204.194 71.5257L204.146 36.9341C204.119 17.9087 204.076 2.53338 204.051 2.76666ZM184.463 90.9087C184.865 91.0826 185.268 91.2249 185.359 91.2249C185.45 91.2249 185.524 91.3239 185.524 91.445C185.524 91.5657 185.575 91.6142 185.637 91.5525C185.769 91.4201 187.984 92.324 188.258 92.6227C188.362 92.7349 188.574 92.8273 188.73 92.8273C188.885 92.8273 188.994 92.9248 188.972 93.0436C188.948 93.1718 189.082 93.2203 189.302 93.1628C189.515 93.1072 189.673 93.16 189.673 93.2877C189.673 93.4098 189.758 93.4564 189.863 93.3919C189.967 93.3273 190.103 93.4069 190.165 93.5681C190.227 93.7298 190.351 93.817 190.439 93.7623C190.581 93.6746 191.299 93.9819 191.558 94.2411C191.61 94.2929 192.141 94.5677 192.737 94.8519C193.333 95.1356 193.821 95.4589 193.821 95.5696C193.821 95.6808 193.893 95.727 193.981 95.6724C194.069 95.6182 194.32 95.7402 194.539 95.9443C194.758 96.1479 195.004 96.3161 195.086 96.3175C195.168 96.3194 195.6 96.6399 196.046 97.0306L196.857 97.7408L196.314 98.4887C195.74 99.2781 193.675 101.24 192.878 101.753C192.619 101.919 192.364 102.108 192.313 102.173C191.985 102.579 188.3 104.699 185.807 105.914C182.834 107.362 182.053 107.702 181.8 107.654C181.67 107.629 181.564 107.69 181.564 107.79C181.564 107.934 180.074 108.628 179.679 108.668C179.627 108.673 179.301 108.829 178.954 109.014C178.608 109.198 178.212 109.306 178.074 109.253C177.937 109.2 177.78 109.271 177.727 109.41C177.674 109.55 177.351 109.724 177.01 109.799C176.67 109.874 176.261 110.003 176.102 110.086C175.588 110.354 175.064 110.513 174.823 110.475C174.693 110.453 174.587 110.535 174.587 110.655C174.587 110.787 174.4 110.838 174.116 110.784C173.842 110.731 173.644 110.781 173.643 110.903C173.642 111.117 171.888 111.773 171.318 111.773C171.145 111.773 171.004 111.867 171.004 111.983C171.004 112.105 170.81 112.156 170.542 112.105C170.248 112.049 170.042 112.117 169.975 112.291C169.914 112.449 169.744 112.518 169.575 112.453C169.412 112.39 169.156 112.462 169.005 112.613C168.854 112.764 168.606 112.839 168.453 112.781C168.301 112.723 168.176 112.779 168.176 112.905C168.176 113.049 168 113.102 167.714 113.048C167.431 112.994 167.214 113.059 167.154 113.214C167.1 113.355 166.846 113.469 166.59 113.469C166.334 113.469 166.076 113.546 166.018 113.641C165.959 113.736 165.551 113.873 165.111 113.945C164.67 114.018 164.205 114.162 164.075 114.267C163.946 114.371 163.689 114.416 163.504 114.368C163.319 114.32 163.059 114.397 162.926 114.538C162.794 114.681 162.596 114.742 162.486 114.675C162.377 114.607 162.232 114.642 162.164 114.752C162.096 114.863 161.83 114.988 161.573 115.03C161.315 115.073 160.956 115.172 160.775 115.251C160.593 115.33 160.324 115.349 160.177 115.292C160.03 115.235 159.862 115.314 159.804 115.465C159.732 115.654 159.55 115.703 159.223 115.621C158.909 115.542 158.747 115.58 158.747 115.732C158.747 115.881 158.547 115.933 158.182 115.88C157.776 115.82 157.616 115.874 157.616 116.069C157.616 116.251 157.473 116.313 157.182 116.258C156.943 116.212 156.636 116.294 156.5 116.439C156.346 116.604 156.077 116.66 155.787 116.587C155.518 116.52 155.367 116.544 155.431 116.646C155.557 116.851 154.667 117.115 154.402 116.951C154.303 116.89 154.222 116.941 154.222 117.063C154.222 117.209 154.032 117.248 153.673 117.177C153.276 117.097 153.093 117.149 153.011 117.363C152.935 117.56 152.742 117.63 152.435 117.571C152.18 117.523 151.943 117.569 151.908 117.675C151.873 117.781 151.573 117.868 151.241 117.868C150.91 117.868 150.639 117.948 150.639 118.045C150.639 118.143 150.342 118.188 149.979 118.146C149.5 118.09 149.319 118.142 149.319 118.335C149.319 118.52 149.156 118.578 148.786 118.524C148.481 118.479 148.149 118.557 148.008 118.708C147.874 118.852 147.562 118.932 147.315 118.885C147.069 118.838 146.868 118.882 146.868 118.983C146.868 119.083 146.573 119.131 146.213 119.089C145.769 119.037 145.525 119.098 145.457 119.278C145.392 119.448 145.164 119.516 144.824 119.466C144.523 119.422 144.189 119.5 144.051 119.648C143.904 119.805 143.629 119.864 143.357 119.796C143.11 119.734 142.908 119.759 142.908 119.853C142.908 120.091 142.177 120.257 142.048 120.049C141.876 119.771 141.588 119.854 141.588 120.182C141.588 120.418 141.451 120.467 140.982 120.398C140.601 120.342 140.274 120.41 140.104 120.581C139.954 120.731 139.635 120.816 139.396 120.771C139.157 120.725 138.934 120.768 138.901 120.867C138.868 120.966 138.525 121.047 138.14 121.047C137.755 121.047 137.439 121.133 137.439 121.238C137.439 121.346 137.175 121.391 136.833 121.34C136.452 121.284 136.126 121.353 135.954 121.525C135.783 121.696 135.485 121.759 135.159 121.694C134.861 121.634 134.608 121.677 134.569 121.795C134.531 121.907 134.25 121.998 133.943 121.996C133.636 121.995 133.279 122.08 133.149 122.185C133.019 122.29 132.666 122.327 132.364 122.266C131.968 122.187 131.785 122.239 131.703 122.452C131.621 122.664 131.406 122.725 130.935 122.67C130.574 122.628 130.252 122.676 130.219 122.776C130.185 122.876 129.845 122.946 129.461 122.932C129.064 122.917 128.765 122.995 128.765 123.114C128.765 123.245 128.504 123.286 128.056 123.226C127.575 123.162 127.265 123.22 127.089 123.409C126.918 123.592 126.64 123.648 126.274 123.575C125.902 123.5 125.621 123.56 125.426 123.754C125.23 123.951 124.96 124.007 124.593 123.926C124.234 123.848 124.051 123.882 124.051 124.03C124.051 124.177 123.793 124.229 123.3 124.182C122.778 124.133 122.519 124.192 122.448 124.375C122.376 124.562 122.141 124.612 121.642 124.545C121.163 124.481 120.853 124.54 120.677 124.728C120.51 124.908 120.229 124.967 119.877 124.897C119.543 124.831 119.337 124.869 119.337 124.997C119.337 125.133 119.039 125.172 118.485 125.11C118.017 125.057 117.585 125.093 117.525 125.189C117.463 125.29 117.302 125.268 117.143 125.136C116.959 124.983 116.807 124.971 116.679 125.099C116.459 125.319 115.565 125.195 115.565 124.944C115.565 124.851 115.238 124.828 114.837 124.892C114.318 124.975 114.034 124.928 113.848 124.729C113.668 124.537 113.362 124.481 112.856 124.549C112.319 124.621 112.08 124.57 111.962 124.359C111.841 124.143 111.59 124.095 110.949 124.167C110.48 124.22 110.097 124.187 110.097 124.093C110.097 123.999 109.743 123.923 109.309 123.923C108.856 123.923 108.49 123.825 108.445 123.692C108.394 123.536 108.138 123.497 107.662 123.574C107.165 123.653 106.872 123.603 106.674 123.404C106.47 123.2 106.146 123.15 105.51 123.221C104.962 123.283 104.628 123.247 104.628 123.125C104.628 123.016 104.245 122.935 103.762 122.942C103.266 122.949 102.835 122.855 102.753 122.723C102.658 122.568 102.387 122.532 101.951 122.614C101.475 122.703 101.21 122.655 100.995 122.44C100.771 122.216 100.488 122.173 99.8349 122.262C99.2696 122.339 98.9712 122.31 98.9712 122.177C98.9712 122.055 98.5865 121.982 98.0123 121.995C97.4353 122.009 96.9964 121.925 96.9102 121.785C96.8201 121.639 96.5816 121.6 96.2662 121.679C95.6727 121.828 94.7624 121.636 94.9123 121.395C94.9726 121.297 94.5747 121.27 93.977 121.332C93.2906 121.403 92.937 121.37 92.937 121.235C92.937 121.114 92.5424 121.034 91.9697 121.039C91.4374 121.042 90.949 120.96 90.8845 120.856C90.8199 120.752 90.3192 120.68 89.7714 120.697C89.2236 120.713 88.7145 120.634 88.6405 120.52C88.5665 120.407 88.0814 120.322 87.5628 120.332C86.8816 120.345 86.6341 120.282 86.6704 120.104C86.7095 119.913 86.4691 119.887 85.5862 119.987C84.8366 120.072 84.4514 120.049 84.4514 119.917C84.4514 119.799 84.0201 119.729 83.3804 119.744C82.6912 119.76 82.2824 119.688 82.2334 119.541C82.1797 119.38 81.8586 119.348 81.1397 119.433C80.2954 119.532 80.1016 119.499 80.0022 119.24C79.9041 118.984 79.7179 118.951 78.9627 119.05C78.3432 119.133 77.9501 119.096 77.7596 118.938C77.6036 118.808 77.2434 118.748 76.9568 118.804C76.3322 118.925 74.6459 118.567 74.6459 118.314C74.6459 118.21 74.958 118.184 75.3846 118.252C75.873 118.33 76.1478 118.295 76.1964 118.15C76.2383 118.024 76.6485 117.931 77.1548 117.931C77.6418 117.931 78.0401 117.848 78.0401 117.748C78.0401 117.64 78.3819 117.612 78.8708 117.679C79.5289 117.769 79.7254 117.73 79.8169 117.491C79.9055 117.261 80.1059 117.214 80.6744 117.29C81.1416 117.353 81.4419 117.31 81.4871 117.175C81.5267 117.056 81.9081 116.97 82.3451 116.982C82.7774 116.993 83.1315 116.917 83.1315 116.812C83.1315 116.696 83.4544 116.667 83.9621 116.736C84.6202 116.826 84.8168 116.788 84.9082 116.549C84.9955 116.322 85.1968 116.271 85.729 116.342C86.2075 116.407 86.5177 116.348 86.6935 116.16C86.8613 115.98 87.1423 115.921 87.4935 115.991C87.7929 116.051 88.0342 116.017 88.0342 115.915C88.0342 115.814 88.4109 115.731 88.8715 115.731C89.3321 115.731 89.7672 115.637 89.8384 115.522C89.919 115.392 90.2466 115.358 90.7119 115.432C91.1466 115.502 91.412 115.48 91.3493 115.379C91.2102 115.154 92.0597 114.942 92.4698 115.099C92.6438 115.166 92.8498 115.118 92.9271 114.993C93.0049 114.867 93.3571 114.759 93.7097 114.752C94.0628 114.745 94.4564 114.656 94.5851 114.554C94.7138 114.452 95.0928 114.408 95.4271 114.457C95.8099 114.514 96.1356 114.446 96.3082 114.273C96.4793 114.103 96.7772 114.039 97.103 114.104C97.3901 114.161 97.6531 114.123 97.6875 114.02C97.7224 113.915 98.0468 113.805 98.4083 113.774C98.7699 113.742 99.2154 113.651 99.3988 113.571C99.5817 113.492 99.9258 113.463 100.163 113.509C100.4 113.554 100.707 113.471 100.845 113.323C101.002 113.154 101.291 113.094 101.623 113.16C101.913 113.218 102.179 113.179 102.215 113.073C102.25 112.968 102.574 112.875 102.935 112.867C103.296 112.86 103.696 112.771 103.825 112.668C103.954 112.567 104.311 112.52 104.619 112.566C104.993 112.62 105.214 112.557 105.284 112.376C105.358 112.183 105.556 112.137 105.966 112.219C106.361 112.298 106.637 112.242 106.835 112.044C107.032 111.847 107.302 111.791 107.668 111.872C108.033 111.952 108.211 111.916 108.211 111.763C108.211 111.606 108.443 111.566 108.953 111.634C109.508 111.708 109.722 111.661 109.804 111.447C109.882 111.243 110.072 111.192 110.464 111.271C110.802 111.338 111.041 111.297 111.086 111.162C111.126 111.042 111.471 110.943 111.854 110.943C112.236 110.943 112.548 110.875 112.548 110.792C112.548 110.709 112.84 110.641 113.197 110.641C113.554 110.641 113.903 110.549 113.974 110.435C114.044 110.321 114.375 110.26 114.709 110.299C115.064 110.341 115.418 110.263 115.557 110.114C115.701 109.96 115.978 109.903 116.247 109.97C116.501 110.034 116.697 109.999 116.697 109.891C116.697 109.785 116.988 109.699 117.345 109.699C117.702 109.699 118.052 109.606 118.122 109.492C118.192 109.379 118.534 109.319 118.882 109.36C119.307 109.409 119.548 109.346 119.617 109.166C119.688 108.982 119.89 108.933 120.269 109.009C120.599 109.075 120.847 109.034 120.889 108.908C120.928 108.792 121.231 108.705 121.562 108.714C121.894 108.723 122.165 108.641 122.165 108.531C122.165 108.408 122.415 108.37 122.811 108.434C123.285 108.512 123.485 108.463 123.567 108.251C123.646 108.044 123.818 107.998 124.176 108.088C124.485 108.165 124.728 108.127 124.815 107.987C124.891 107.863 125.217 107.752 125.539 107.741C125.861 107.729 126.125 107.647 126.125 107.557C126.125 107.468 126.42 107.43 126.78 107.472C127.224 107.524 127.467 107.463 127.536 107.283C127.603 107.109 127.83 107.046 128.197 107.1C128.504 107.145 128.785 107.094 128.821 106.987C128.856 106.88 129.092 106.779 129.344 106.762C129.596 106.745 129.951 106.669 130.133 106.592C130.314 106.516 130.676 106.507 130.935 106.572C131.264 106.654 131.393 106.618 131.359 106.451C131.329 106.3 131.519 106.211 131.876 106.211C132.188 106.211 132.561 106.098 132.708 105.959C132.854 105.821 133.172 105.745 133.415 105.792C133.657 105.838 133.856 105.803 133.856 105.714C133.856 105.625 134.106 105.552 134.411 105.552C134.716 105.552 135.021 105.462 135.089 105.352C135.158 105.241 135.444 105.203 135.736 105.268C136.123 105.352 136.291 105.301 136.38 105.07C136.465 104.849 136.632 104.791 136.954 104.872C137.224 104.94 137.437 104.897 137.481 104.767C137.521 104.648 137.825 104.557 138.156 104.567C138.488 104.576 138.759 104.495 138.759 104.387C138.759 104.275 139.002 104.225 139.318 104.271C139.66 104.322 139.911 104.261 139.968 104.115C140.019 103.981 140.56 103.819 141.201 103.747C141.829 103.676 142.342 103.533 142.342 103.43C142.342 103.324 142.579 103.29 142.891 103.352C143.288 103.431 143.471 103.38 143.553 103.166C143.628 102.969 143.822 102.899 144.129 102.958C144.384 103.006 144.622 102.954 144.66 102.841C144.698 102.729 144.955 102.655 145.232 102.678C145.509 102.701 145.736 102.625 145.736 102.509C145.736 102.373 145.971 102.336 146.392 102.404C146.819 102.473 147.033 102.438 147.005 102.303C146.963 102.102 147.865 101.79 148.691 101.721C148.915 101.703 149.163 101.624 149.24 101.546C149.318 101.468 149.575 101.404 149.811 101.404C150.046 101.404 150.297 101.312 150.367 101.198C150.437 101.085 150.693 101.03 150.935 101.076C151.208 101.128 151.414 101.056 151.48 100.884C151.549 100.706 151.753 100.639 152.056 100.697C152.313 100.746 152.525 100.714 152.525 100.625C152.525 100.535 152.779 100.462 153.09 100.462C153.402 100.462 153.656 100.368 153.656 100.252C153.656 100.127 153.881 100.075 154.215 100.124C154.585 100.178 154.808 100.115 154.877 99.9355C154.939 99.7734 155.131 99.7041 155.356 99.763C155.562 99.8172 155.73 99.7842 155.73 99.6904C155.73 99.5962 155.985 99.5194 156.296 99.5194C156.607 99.5194 156.862 99.4251 156.862 99.3097C156.862 99.1843 157.086 99.1325 157.416 99.181C157.746 99.2291 157.956 99.1805 157.935 99.0608C157.915 98.9501 158.111 98.8596 158.37 98.8596C158.63 98.8596 158.95 98.7573 159.083 98.632C159.216 98.5066 159.457 98.4557 159.62 98.5179C159.784 98.5806 159.972 98.5542 160.039 98.46C160.223 98.2012 162.687 97.4109 162.9 97.5424C163.001 97.6051 163.085 97.557 163.085 97.4349C163.085 97.3016 163.268 97.2483 163.546 97.3016C163.842 97.3581 164.047 97.2902 164.115 97.1135C164.173 96.9608 164.369 96.8765 164.554 96.9245C164.737 96.9726 164.998 96.8939 165.132 96.7497C165.27 96.6017 165.535 96.5376 165.74 96.6022C165.942 96.6667 166.102 96.6286 166.102 96.5159C166.102 96.4052 166.314 96.3147 166.573 96.3147C166.832 96.3147 167.044 96.2205 167.044 96.1059C167.044 95.9796 167.223 95.9415 167.496 96.0103C167.808 96.0885 167.983 96.0324 168.061 95.8293C168.136 95.6337 168.301 95.5753 168.552 95.6544C168.769 95.7237 168.93 95.6889 168.93 95.5734C168.93 95.4626 169.142 95.3722 169.402 95.3722C169.661 95.3722 169.873 95.2774 169.873 95.1615C169.873 95.0399 170.068 94.9885 170.335 95.0394C170.63 95.0955 170.835 95.0281 170.902 94.8533C170.963 94.6959 171.134 94.6271 171.303 94.6921C171.465 94.7548 171.721 94.6822 171.872 94.5314C172.023 94.3806 172.272 94.3052 172.424 94.3636C172.577 94.4221 172.702 94.366 172.702 94.2392C172.702 94.0959 172.877 94.0422 173.163 94.0969C173.459 94.1534 173.664 94.0856 173.732 93.9089C173.795 93.7444 173.985 93.6713 174.203 93.7283C174.404 93.7811 174.597 93.7416 174.63 93.6407C174.71 93.4018 176.658 92.7434 176.952 92.8565C177.076 92.9041 177.231 92.807 177.295 92.6406C177.358 92.4743 177.518 92.3555 177.649 92.3767C177.903 92.4182 178.248 92.3037 179.301 91.8305C179.664 91.667 180.11 91.5435 180.291 91.5562C180.473 91.5685 180.621 91.4987 180.621 91.4017C180.621 91.3046 180.75 91.2249 180.907 91.2249C181.064 91.2249 181.382 91.1269 181.614 91.0072C182.448 90.5765 182.593 90.5345 183.159 90.5637C183.474 90.5798 184.061 90.7353 184.463 90.9087ZM183.582 186.843C183.873 186.97 184.152 187.123 184.204 187.182C184.256 187.241 184.661 187.395 185.106 187.525C185.549 187.654 185.867 187.833 185.812 187.922C185.757 188.011 185.882 188.039 186.089 187.985C186.301 187.93 186.467 187.98 186.467 188.097C186.467 188.213 186.599 188.308 186.76 188.308C187.232 188.308 188.752 189.061 188.642 189.24C188.586 189.33 188.71 189.359 188.918 189.305C189.129 189.25 189.296 189.299 189.296 189.416C189.296 189.532 189.431 189.627 189.596 189.627C189.929 189.627 191.051 190.205 191.15 190.428C191.185 190.506 191.375 190.57 191.574 190.57C191.773 190.57 191.935 190.654 191.935 190.758C191.935 190.862 191.999 190.928 192.077 190.904C192.352 190.822 194.01 191.771 194.01 192.011C194.01 192.145 194.119 192.213 194.252 192.162C194.385 192.11 194.661 192.219 194.865 192.403C195.069 192.587 195.553 192.95 195.941 193.209C196.719 193.728 196.727 193.748 196.472 194.375C195.867 195.857 188.778 201.214 187.879 200.868C187.721 200.808 187.622 200.861 187.648 200.991C187.672 201.117 187.565 201.22 187.41 201.22C187.254 201.22 187.024 201.348 186.897 201.503C186.771 201.659 186.664 201.701 186.659 201.598C186.653 201.472 186.604 201.472 186.511 201.598C186.277 201.917 185.519 202.276 185.328 202.158C185.229 202.097 185.147 202.188 185.147 202.36C185.147 202.562 185.046 202.636 184.864 202.566C184.709 202.507 184.581 202.54 184.581 202.64C184.581 202.741 184.419 202.823 184.22 202.823C184.021 202.823 183.83 202.89 183.795 202.972C183.684 203.236 181.52 204.166 181.255 204.064C181.114 204.01 180.999 204.053 180.999 204.159C180.999 204.427 179.335 205.138 179.005 205.011C178.857 204.955 178.736 204.984 178.736 205.077C178.736 205.348 177.614 205.831 177.281 205.703C177.078 205.625 177.022 205.66 177.113 205.807C177.204 205.953 177.087 206.027 176.767 206.027C176.502 206.027 176.284 206.122 176.284 206.238C176.284 206.354 176.12 206.405 175.919 206.353C175.699 206.296 175.511 206.37 175.446 206.541C175.379 206.715 175.192 206.786 174.962 206.726C174.756 206.672 174.587 206.702 174.587 206.791C174.587 206.881 174.227 207.058 173.786 207.184C173.345 207.31 172.889 207.485 172.773 207.572C172.656 207.659 172.423 207.677 172.254 207.613C172.084 207.548 171.947 207.589 171.947 207.704C171.947 207.819 171.735 207.913 171.476 207.913C171.217 207.913 171.004 208.007 171.004 208.123C171.004 208.245 170.81 208.296 170.542 208.245C170.247 208.189 170.042 208.257 169.974 208.433C169.916 208.586 169.72 208.67 169.535 208.622C169.352 208.574 169.097 208.647 168.97 208.783C168.843 208.919 168.612 208.982 168.457 208.923C168.302 208.863 168.176 208.918 168.176 209.046C168.176 209.189 168 209.243 167.714 209.188C167.418 209.131 167.214 209.199 167.146 209.376C167.087 209.529 166.891 209.613 166.706 209.565C166.524 209.517 166.269 209.589 166.142 209.726C166.014 209.862 165.775 209.922 165.61 209.858C165.444 209.794 165.251 209.838 165.179 209.954C165.107 210.07 164.882 210.197 164.679 210.236C164.311 210.307 163.932 210.433 163.134 210.751C162.902 210.843 162.583 210.869 162.427 210.809C162.27 210.749 162.142 210.775 162.142 210.867C162.142 211.103 160.508 211.559 160.153 211.423C159.992 211.361 159.906 211.385 159.962 211.477C160.092 211.687 159.533 211.913 159.275 211.753C159.169 211.688 159.02 211.735 158.945 211.857C158.87 211.979 158.603 212.106 158.353 212.139C158.103 212.171 157.75 212.261 157.569 212.338C157.387 212.415 157.119 212.431 156.972 212.375C156.825 212.318 156.654 212.404 156.592 212.565C156.518 212.759 156.322 212.827 156.011 212.767C155.753 212.718 155.542 212.751 155.542 212.84C155.542 212.929 155.245 213.002 154.882 213.002C154.519 213.002 154.222 213.098 154.222 213.214C154.222 213.348 154.019 213.386 153.673 213.317C153.276 213.238 153.093 213.289 153.011 213.503C152.938 213.692 152.741 213.77 152.465 213.717C152.228 213.672 151.922 213.754 151.786 213.899C151.636 214.059 151.362 214.119 151.089 214.05C150.835 213.987 150.639 214.022 150.639 214.13C150.639 214.236 150.39 214.322 150.085 214.322C149.78 214.322 149.472 214.415 149.402 214.528C149.332 214.642 149.045 214.701 148.764 214.66C148.481 214.619 148.145 214.702 148.008 214.848C147.874 214.993 147.562 215.072 147.315 215.025C147.069 214.978 146.868 215.022 146.868 215.123C146.868 215.231 146.594 215.255 146.205 215.182C145.712 215.09 145.554 215.121 145.592 215.303C145.625 215.466 145.423 215.547 144.982 215.547C144.619 215.547 144.229 215.666 144.115 215.811C143.979 215.985 143.739 216.031 143.408 215.948C143.133 215.879 142.908 215.899 142.908 215.993C142.908 216.258 142.209 216.375 141.981 216.148C141.836 216.002 141.705 216.043 141.522 216.294C141.347 216.533 141.132 216.608 140.837 216.53C140.573 216.462 140.296 216.529 140.119 216.706C139.96 216.864 139.636 216.956 139.396 216.911C139.157 216.865 138.937 216.899 138.907 216.987C138.878 217.075 138.599 217.162 138.288 217.182C137.977 217.202 137.616 217.298 137.486 217.396C137.356 217.494 137.003 217.524 136.701 217.464C136.304 217.384 136.122 217.436 136.039 217.653C135.953 217.877 135.761 217.925 135.279 217.847C134.902 217.786 134.605 217.825 134.567 217.941C134.531 218.05 134.25 218.138 133.943 218.136C133.636 218.135 133.279 218.22 133.149 218.325C133.019 218.43 132.666 218.467 132.364 218.406C131.968 218.327 131.785 218.379 131.703 218.592C131.621 218.804 131.406 218.865 130.935 218.81C130.574 218.768 130.251 218.819 130.217 218.923C130.182 219.027 129.841 219.103 129.459 219.092C129.078 219.081 128.765 219.16 128.765 219.267C128.765 219.384 128.472 219.422 128.023 219.362C127.467 219.287 127.254 219.334 127.172 219.55C127.091 219.761 126.89 219.809 126.416 219.732C126.01 219.667 125.743 219.709 125.698 219.845C125.658 219.965 125.271 220.063 124.838 220.063C124.405 220.063 124.051 220.137 124.051 220.228C124.051 220.319 123.713 220.362 123.3 220.322C122.784 220.273 122.519 220.332 122.45 220.511C122.384 220.684 122.137 220.747 121.722 220.699C121.343 220.654 120.996 220.729 120.848 220.887C120.689 221.057 120.383 221.113 119.97 221.046C119.622 220.99 119.337 221.013 119.337 221.098C119.337 221.33 118.327 221.483 118.12 221.282C117.826 220.996 117.452 221.08 117.577 221.405C117.669 221.645 117.569 221.69 117.052 221.64C116.655 221.603 116.433 221.488 116.463 221.337C116.501 221.152 116.288 221.124 115.568 221.22C114.994 221.296 114.622 221.273 114.622 221.162C114.622 221.061 114.226 220.986 113.742 220.996C113.182 221.007 112.833 220.926 112.782 220.773C112.726 220.604 112.5 220.57 112.029 220.658C111.498 220.758 111.303 220.711 111.103 220.438C110.931 220.203 110.788 220.153 110.657 220.284C110.441 220.5 109.342 220.395 109.342 220.159C109.342 220.075 108.946 220.021 108.462 220.039C107.912 220.059 107.554 219.985 107.506 219.841C107.453 219.683 107.171 219.646 106.598 219.725C105.944 219.815 105.743 219.776 105.653 219.542C105.562 219.305 105.351 219.267 104.612 219.355C104.022 219.424 103.685 219.392 103.685 219.267C103.685 219.155 103.306 219.074 102.819 219.082C102.323 219.089 101.892 218.996 101.81 218.863C101.715 218.709 101.444 218.672 101.008 218.754C100.529 218.843 100.267 218.795 100.047 218.575C99.8212 218.349 99.5525 218.304 98.9821 218.395C98.5531 218.463 98.1156 218.434 97.9822 218.327C97.8521 218.222 97.3674 218.138 96.9054 218.14C96.4435 218.142 96.0343 218.05 95.9961 217.935C95.9518 217.802 95.635 217.766 95.1263 217.836C94.537 217.916 94.2471 217.867 94.0284 217.648C93.8007 217.421 93.5065 217.378 92.7682 217.465C92.1526 217.538 91.8056 217.508 91.8056 217.382C91.8056 217.272 91.378 217.183 90.8331 217.178C90.2985 217.174 89.8035 217.078 89.7332 216.964C89.654 216.836 89.3212 216.804 88.8526 216.879C88.3034 216.966 88.021 216.921 87.8113 216.711C87.6052 216.505 87.3021 216.454 86.7378 216.529C86.1448 216.609 85.8615 216.553 85.5857 216.304C85.3467 216.088 85.1029 216.023 84.8828 216.117C84.484 216.288 83.4549 216.23 83.32 216.029C83.2682 215.952 82.7661 215.896 82.2046 215.906C81.5772 215.917 81.1548 215.839 81.1095 215.703C81.0591 215.553 80.7102 215.516 80.0135 215.588C79.1894 215.673 78.9688 215.635 78.8769 215.395C78.7854 215.158 78.5752 215.12 77.8388 215.207C77.2378 215.278 76.8182 215.236 76.6367 215.085C76.4774 214.953 76.1332 214.902 75.832 214.966C75.5425 215.027 75.0603 215.01 74.7604 214.927L74.215 214.777L74.9825 214.524C75.4044 214.385 75.9215 214.316 76.1313 214.37C76.3416 214.426 76.5434 214.381 76.5796 214.271C76.6164 214.162 77.0445 214.079 77.5319 214.086C78.0283 214.093 78.4172 214.013 78.4172 213.903C78.4172 213.782 78.7157 213.747 79.1993 213.812C79.7594 213.887 80.063 213.835 80.269 213.629C80.4613 213.436 80.7621 213.374 81.1732 213.441C81.5508 213.502 81.8171 213.457 81.8615 213.324C81.9025 213.2 82.2702 213.122 82.7208 213.139C83.18 213.158 83.5086 213.086 83.5086 212.967C83.5086 212.834 83.7985 212.803 84.3392 212.877C84.9936 212.966 85.1944 212.927 85.284 212.693C85.3665 212.479 85.5805 212.417 86.0533 212.473C86.4135 212.515 86.7364 212.465 86.7704 212.363C86.8048 212.26 87.1664 212.162 87.5746 212.145C87.9829 212.128 88.4684 212.049 88.6527 211.97C88.8375 211.891 89.2406 211.877 89.5484 211.938C89.9836 212.025 90.1085 211.983 90.1085 211.747C90.1085 211.506 90.2528 211.464 90.817 211.54C91.2988 211.604 91.6086 211.546 91.7849 211.357C91.9503 211.18 92.2341 211.118 92.5717 211.186C92.8616 211.244 93.127 211.208 93.1609 211.106C93.1949 211.004 93.5612 210.911 93.9756 210.899C94.3895 210.886 94.834 210.793 94.9632 210.692C95.0919 210.59 95.4252 210.551 95.7033 210.604C96.0126 210.663 96.3181 210.592 96.4892 210.421C96.6542 210.256 96.9889 210.173 97.3047 210.219C97.5989 210.262 97.8398 210.228 97.8398 210.142C97.8398 210.056 98.174 209.986 98.5828 209.986C98.9915 209.986 99.3837 209.893 99.454 209.78C99.5242 209.666 99.8443 209.612 100.165 209.659C100.525 209.711 100.854 209.639 101.022 209.471C101.199 209.294 101.49 209.236 101.846 209.308C102.211 209.381 102.494 209.32 102.687 209.126C102.848 208.965 103.159 208.852 103.379 208.873C103.6 208.894 103.93 208.847 104.113 208.767C104.295 208.689 104.625 208.671 104.844 208.728C105.075 208.789 105.365 208.711 105.531 208.545C105.702 208.374 106.013 208.294 106.294 208.348C106.566 208.4 106.884 208.323 107.039 208.169C107.192 208.015 107.465 207.95 107.674 208.016C107.876 208.08 108.164 208.03 108.315 207.905C108.471 207.775 108.825 207.724 109.137 207.787C109.533 207.866 109.717 207.815 109.799 207.601C109.879 207.392 110.095 207.328 110.54 207.38C110.914 207.423 111.266 207.349 111.409 207.196C111.552 207.043 111.829 206.985 112.098 207.053C112.352 207.117 112.548 207.082 112.548 206.974C112.548 206.868 112.888 206.782 113.302 206.782C113.729 206.782 114.057 206.691 114.057 206.572C114.057 206.446 114.307 206.392 114.687 206.437C115.058 206.48 115.414 206.407 115.553 206.258C115.705 206.095 115.985 206.048 116.337 206.126C116.678 206.2 116.885 206.169 116.885 206.043C116.885 205.93 117.182 205.839 117.545 205.839C117.908 205.839 118.205 205.745 118.205 205.63C118.205 205.504 118.456 205.45 118.835 205.494C119.211 205.538 119.563 205.464 119.706 205.311C119.849 205.158 120.126 205.1 120.395 205.168C120.649 205.231 120.845 205.197 120.845 205.089C120.845 204.983 121.137 204.896 121.494 204.896C121.851 204.896 122.201 204.803 122.271 204.689C122.343 204.573 122.632 204.528 122.925 204.586C123.298 204.661 123.484 204.606 123.564 204.397C123.646 204.184 123.815 204.137 124.176 204.228C124.485 204.305 124.728 204.267 124.815 204.127C124.891 204.003 125.217 203.892 125.539 203.881C125.861 203.869 126.125 203.787 126.125 203.697C126.125 203.608 126.42 203.57 126.78 203.612C127.224 203.664 127.467 203.603 127.536 203.423C127.601 203.253 127.829 203.186 128.168 203.236C128.469 203.279 128.804 203.201 128.942 203.053C129.088 202.896 129.364 202.837 129.635 202.906C129.911 202.975 130.085 202.936 130.085 202.805C130.085 202.676 130.305 202.624 130.644 202.673C131.014 202.728 131.237 202.664 131.306 202.485C131.373 202.311 131.596 202.243 131.94 202.293C132.243 202.337 132.576 202.258 132.716 202.108C132.85 201.964 133.162 201.884 133.409 201.931C133.655 201.978 133.856 201.943 133.856 201.854C133.856 201.765 134.106 201.692 134.411 201.692C134.716 201.692 135.023 201.599 135.093 201.485C135.164 201.371 135.463 201.314 135.757 201.357C136.105 201.408 136.329 201.341 136.396 201.167C136.465 200.988 136.652 200.936 136.954 201.012C137.224 201.08 137.437 201.037 137.481 200.908C137.521 200.788 137.825 200.697 138.156 200.707C138.488 200.716 138.759 200.635 138.759 200.527C138.759 200.415 139.002 200.365 139.318 200.411C139.651 200.46 139.912 200.4 139.964 200.264C140.013 200.137 140.504 199.973 141.056 199.899C141.607 199.825 142.164 199.679 142.292 199.576C142.421 199.473 142.73 199.439 142.98 199.501C143.298 199.581 143.469 199.525 143.55 199.312C143.628 199.11 143.819 199.038 144.129 199.098C144.384 199.146 144.622 199.094 144.66 198.981C144.698 198.869 144.955 198.795 145.232 198.818C145.509 198.841 145.736 198.767 145.736 198.652C145.736 198.529 145.964 198.478 146.295 198.526C146.623 198.574 146.889 198.515 146.94 198.383C147.021 198.171 147.804 197.941 148.659 197.878C148.866 197.863 149.08 197.787 149.134 197.71C149.188 197.632 149.443 197.534 149.699 197.492C149.957 197.449 150.313 197.35 150.491 197.273C150.67 197.195 150.923 197.168 151.055 197.212C151.188 197.256 151.415 197.173 151.561 197.027C151.707 196.881 151.983 196.802 152.176 196.852C152.368 196.903 152.525 196.867 152.525 196.773C152.525 196.679 152.779 196.602 153.09 196.602C153.402 196.602 153.656 196.527 153.656 196.435C153.656 196.272 154.456 196.051 155.306 195.978C155.539 195.958 155.73 195.879 155.73 195.801C155.73 195.723 155.985 195.659 156.296 195.659C156.607 195.659 156.862 195.575 156.862 195.471C156.862 195.367 157.069 195.282 157.322 195.282C157.575 195.282 157.84 195.19 157.91 195.076C157.98 194.963 158.223 194.905 158.449 194.949C158.676 194.992 158.964 194.918 159.089 194.784C159.214 194.65 159.451 194.593 159.616 194.657C159.782 194.72 159.972 194.691 160.039 194.593C160.204 194.352 162.718 193.57 162.922 193.697C163.011 193.752 163.085 193.697 163.085 193.575C163.085 193.442 163.268 193.388 163.546 193.442C163.842 193.498 164.047 193.43 164.115 193.254C164.173 193.101 164.369 193.017 164.554 193.065C164.737 193.113 164.998 193.034 165.132 192.89C165.27 192.742 165.535 192.678 165.74 192.742C165.938 192.805 166.102 192.784 166.102 192.694C166.102 192.456 167.324 192.052 167.656 192.18C167.812 192.239 167.986 192.165 168.044 192.013C168.102 191.862 168.516 191.678 168.964 191.604C169.412 191.53 169.882 191.386 170.008 191.285C170.134 191.183 170.346 191.136 170.478 191.179C170.61 191.224 170.828 191.15 170.961 191.017C171.094 190.884 171.329 190.822 171.481 190.881C171.634 190.939 171.759 190.893 171.759 190.778C171.759 190.663 171.971 190.57 172.23 190.57C172.489 190.57 172.702 190.475 172.702 190.359C172.702 190.237 172.896 190.186 173.163 190.237C173.459 190.294 173.664 190.226 173.732 190.049C173.79 189.896 173.986 189.812 174.171 189.86C174.354 189.908 174.616 189.827 174.754 189.68C174.891 189.533 175.122 189.458 175.266 189.514C175.411 189.57 175.53 189.533 175.53 189.432C175.53 189.332 175.695 189.25 175.896 189.25C176.097 189.25 176.308 189.176 176.363 189.086C176.476 188.905 177.563 188.615 177.934 188.668C178.064 188.686 178.17 188.612 178.17 188.505C178.17 188.396 178.298 188.308 178.455 188.308C178.612 188.308 178.888 188.229 179.068 188.133C179.606 187.846 180.135 187.68 180.386 187.72C180.515 187.742 180.621 187.67 180.621 187.562C180.621 187.454 180.834 187.365 181.093 187.365C181.352 187.365 181.564 187.28 181.564 187.176C181.564 187.073 181.729 186.988 181.93 186.988C182.131 186.988 182.349 186.903 182.413 186.799C182.568 186.548 182.943 186.562 183.582 186.843Z" fill="url(#paint0_linear)"/>
</g>
<defs>
<linearGradient id="paint0_linear" x1="-3.57589" y1="10.4922" x2="186.579" y2="347.248" gradientUnits="userSpaceOnUse">
<stop stop-color="#D1EDF3"/>
<stop offset="0.567708" stop-color="#94CFDC"/>
<stop offset="0.979167" stop-color="#D1EDF3"/>
</linearGradient>
</defs>
</svg>
