<svg width="80" height="80" viewBox="0 0 80 80" fill="none" xmlns="http://www.w3.org/2000/svg">
<path d="M33.5358 74.2965C46.0033 75.0869 65.1471 73.8586 65.6 68.0215C65.6 68.0215 64.7288 70.2317 55.2968 71.9904C44.6584 73.9715 31.534 73.7422 23.7478 72.4728C23.7478 72.4728 25.3417 73.7764 33.5358 74.2965Z" fill="white"/>
<path d="M30.9857 58.9854C30.9857 58.9854 28.3407 60.508 32.87 61.0212C38.3534 61.6405 41.1678 61.555 47.2045 60.4224C48.4169 61.1412 49.6893 61.7558 51.0077 62.2598C37.458 68.0079 20.3402 61.9177 30.9822 58.9854" fill="white"/>
<path d="M29.3269 51.4854C29.3269 51.4854 26.3639 53.6717 30.8932 54.1234C36.7501 54.7188 41.3795 54.77 49.3869 53.244C50.2077 54.002 51.1775 54.5844 52.2359 54.9548C35.8511 59.6971 17.6028 55.3277 29.3269 51.4785" fill="white"/>
<path d="M43.306 38.7598C46.6459 42.5645 42.4278 45.9895 42.4278 45.9895C42.4278 45.9895 50.8882 41.6578 46.9951 36.221C43.3578 31.1606 40.5712 28.6491 55.6663 19.9824C55.6663 19.9824 31.9691 25.8401 43.2887 38.7461" fill="#F29111"/>
<path d="M61.2135 64.5314C61.2135 64.5314 63.1704 66.1293 59.0561 67.3645C51.2354 69.7082 26.5009 70.4165 19.6414 67.4569C17.1728 66.3927 21.8058 64.9181 23.2613 64.6067C24.043 64.4181 24.8459 64.3295 25.6504 64.3433C22.8845 62.4272 7.89649 68.1069 18.0441 69.7287C45.6724 74.1767 68.4119 67.7305 61.2619 64.5314" fill="white"/>
<path d="M32.2439 43.7155C32.2439 43.7155 19.6623 46.6717 27.7872 47.7461C31.2204 48.2011 38.0592 48.0883 44.4313 47.5682C49.6382 47.1336 54.8658 46.1995 54.8658 46.1995C53.7666 46.6716 52.7085 47.2323 51.7023 47.8761C38.9098 51.2018 14.2444 49.6519 21.3495 46.2509C27.3723 43.3871 32.2439 43.7155 32.2439 43.7155Z" fill="white"/>
<path d="M54.8285 56.1961C67.8146 49.5173 61.8125 43.0985 57.6186 43.9642C57.1142 44.0567 56.6182 44.1894 56.1354 44.361C56.4099 43.9735 56.797 43.6776 57.2452 43.5125C65.543 40.6282 71.9116 52.0218 54.5657 56.5348C54.6754 56.4392 54.7647 56.3229 54.8285 56.1926" fill="white"/>
<path d="M46.9971 6.00586C46.9971 6.00586 54.192 13.1261 40.1756 24.0749C28.9355 32.858 37.6137 37.8671 40.1756 43.5777C33.6273 37.7302 28.7868 32.574 32.0265 27.7736C36.7665 20.7321 49.9013 17.314 46.9971 6.00586Z" fill="#F29111"/>
</svg>
