<svg width="64" height="64" viewBox="0 0 64 64" fill="none" xmlns="http://www.w3.org/2000/svg">
<path d="M47.4859 52.6245C47.1033 52.0501 46.327 51.8949 45.7527 52.2779L45.7064 52.3089C45.1344 52.6955 44.9842 53.4726 45.3708 54.0445C45.6124 54.4019 46.0063 54.5946 46.4075 54.5946C46.6484 54.5946 46.8919 54.5251 47.1064 54.3801L47.1393 54.3579C47.7138 53.975 47.8689 53.1989 47.4859 52.6245Z" fill="#003C4A"/>
<path d="M18.6297 9.95402C18.2431 9.38214 17.4661 9.23164 16.8941 9.61827L16.857 9.64339C16.2842 10.0289 16.1323 10.8056 16.5177 11.3784C16.759 11.7371 17.1537 11.9308 17.5558 11.9308C17.7958 11.9308 18.0385 11.8618 18.2526 11.7178L18.2941 11.6896C18.8661 11.303 19.0164 10.5259 18.6297 9.95402Z" fill="#003C4A"/>
<path d="M64 32C64 23.4525 60.6715 15.4166 54.6275 9.3725C48.5835 3.32863 40.5475 0 32 0C25.2185 0 18.7301 2.102 13.2365 6.0785C12.6772 6.48325 12.5521 7.26475 12.9569 7.824C13.3617 8.38337 14.1433 8.50838 14.7024 8.10363C19.7669 4.43775 25.7483 2.5 32 2.5C48.2664 2.5 61.5 15.7336 61.5 32C61.5 39.4615 58.747 46.4991 53.7239 51.9562L51.9534 50.1856C55.0278 46.8135 57.2 42.7171 58.2626 38.2644C59.9365 31.2492 58.7785 24.0022 55.0018 17.8582C51.225 11.7142 45.2818 7.40875 38.2668 5.73475C32.1618 4.278 25.699 5.003 20.0688 7.7765C19.4494 8.0815 19.1948 8.83087 19.4998 9.45025C19.8049 10.0695 20.5543 10.3244 21.1735 10.0192C26.2826 7.5025 32.1471 6.84475 37.6865 8.1665C50.8268 11.302 58.9662 24.5436 55.8307 37.684C54.8756 41.6866 52.93 45.3704 50.1815 48.4137L43.5079 41.7401C43.6629 41.65 43.8183 41.5607 43.9715 41.467C47.4711 39.3226 50.395 36.2593 52.4271 32.608C52.7629 32.0048 52.546 31.2436 51.9427 30.9077C51.3392 30.5722 50.5784 30.7891 50.2426 31.3921C48.1931 35.0745 45.1845 37.9945 41.66 39.8924L39.2046 37.437C40.3497 35.9234 41.0304 34.0399 41.0304 32C41.0304 27.0205 36.9792 22.9694 31.9999 22.9694C29.96 22.9694 28.0765 23.65 26.5629 24.7952L24.762 22.9944C27.0511 22.118 29.4975 21.6491 31.9999 21.6491C36.8337 21.6491 41.5559 23.3971 45.2966 26.5714C45.8231 27.0181 46.6119 26.9535 47.0585 26.427C47.5051 25.9006 47.4405 25.1119 46.9141 24.6651C42.7221 21.1081 37.4255 19.1491 31.9999 19.1491C28.838 19.1491 25.7204 19.8066 22.8356 21.0681L6.45487 4.687C5.96687 4.19912 5.17538 4.19912 4.68713 4.687C4.199 5.17512 4.199 5.96663 4.68713 6.45487L8.50737 10.275C5.93325 13.0555 3.89225 16.238 2.43587 19.7541C0.8195 23.6563 0 27.7764 0 32C0 40.5475 3.32863 48.5834 9.37263 54.6275C15.4166 60.6714 23.4525 64 32 64C38.7816 64 45.27 61.8981 50.7635 57.9215C51.3228 57.5168 51.4479 56.7352 51.0431 56.176C50.6381 55.6166 49.8569 55.4916 49.2976 55.8964C44.2333 59.5622 38.2519 61.5 32 61.5C15.7336 61.5 2.5 48.2664 2.5 32C2.5 24.5384 5.253 17.5009 10.2761 12.0439L12.046 13.8136C8.972 17.1856 6.79987 21.2819 5.73737 25.7342C4.06337 32.7492 5.2215 39.9963 8.99813 46.1403C12.7747 52.2843 18.718 56.5899 25.733 58.2636C27.7924 58.7551 29.8924 58.9982 31.9876 58.9982C36.1034 58.9982 40.2001 58.0599 43.931 56.222C44.5504 55.917 44.805 55.1676 44.5 54.5482C44.195 53.9289 43.4456 53.6741 42.8262 53.9793C37.7174 56.496 31.853 57.1537 26.3132 55.8319C19.9479 54.313 14.5549 50.4061 11.1279 44.8309C7.70088 39.2558 6.65012 32.6797 8.16912 26.3144C9.12425 22.3119 11.0698 18.6286 13.8177 15.5852L20.4921 22.2596C20.3371 22.3497 20.1817 22.4391 20.0285 22.5329C16.5289 24.6773 13.605 27.7407 11.573 31.3919C11.3626 31.7697 11.3626 32.2297 11.573 32.6077C13.605 36.2589 16.5289 39.3224 20.0285 41.4668C23.6416 43.6806 27.7814 44.8507 32 44.8507C35.162 44.8507 38.2795 44.1933 41.1644 42.9318L52.859 54.6265C52.8593 54.6267 52.8594 54.627 52.8596 54.6273C52.8599 54.6275 52.8601 54.6277 52.8604 54.628L57.5452 59.3129C57.7894 59.5569 58.1093 59.679 58.4291 59.679C58.749 59.679 59.0689 59.5569 59.313 59.3129C59.8011 58.8247 59.8011 58.0332 59.313 57.545L55.4927 53.7246C58.0669 50.9441 60.1078 47.7617 61.5643 44.2456C63.1805 40.3437 64 36.2236 64 32ZM32 25.4694C35.601 25.4694 38.5305 28.3991 38.5305 32C38.5305 33.3496 38.119 34.6049 37.4147 35.647L28.3529 26.5851C29.3951 25.881 30.6504 25.4694 32 25.4694ZM26.5853 28.3529L35.6471 37.4147C34.605 38.1189 33.3498 38.5305 32.0001 38.5305C28.3991 38.5305 25.4696 35.601 25.4696 32C25.4695 30.6504 25.881 29.395 26.5853 28.3529ZM32 42.351C24.7368 42.351 17.9439 38.4025 14.1085 32C16.1431 28.6035 19.0101 25.898 22.3381 24.1059L24.7952 26.563C23.6501 28.0765 22.9695 29.9601 22.9695 32C22.9695 36.9795 27.0206 41.0305 32 41.0305C34.0399 41.0305 35.9235 40.3499 37.4371 39.2046L39.2364 41.004C36.9475 41.8801 34.5021 42.351 32 42.351Z" fill="#003C4A"/>
<path d="M49.7753 27.5427L49.7449 27.5049C49.3117 26.9674 48.5248 26.8824 47.9873 27.3159C47.4496 27.749 47.365 28.536 47.7983 29.0735L47.8286 29.1113C48.0758 29.4179 48.4377 29.577 48.8028 29.577C49.078 29.577 49.3553 29.4865 49.5863 29.3003C50.1239 28.8672 50.2085 28.0802 49.7753 27.5427Z" fill="#003C4A"/>
</svg>
