<svg width="64" height="64" viewBox="0 0 64 64" fill="none" xmlns="http://www.w3.org/2000/svg">
<path d="M38.1948 36.413C37.7066 35.9248 36.9153 35.9248 36.4271 36.413L36.413 36.4271C35.9248 36.9152 35.9248 37.7067 36.413 38.195C36.6571 38.439 36.977 38.5611 37.2968 38.5611C37.6167 38.5611 37.9366 38.439 38.1807 38.195L38.1948 38.1808C38.6829 37.6927 38.6829 36.9012 38.1948 36.413Z" fill="#003C4A"/>
<path d="M38.1878 25.8131C34.7759 22.4014 29.2246 22.4016 25.8127 25.8131C22.401 29.2249 22.401 34.7761 25.8127 38.188C27.4625 39.8377 29.7066 40.7491 32.0109 40.749C32.4676 40.749 32.9269 40.7132 33.3842 40.6402C34.0659 40.5315 34.5303 39.8906 34.4216 39.2089C34.3128 38.5271 33.6699 38.063 32.9902 38.1715C31.0139 38.4869 28.9924 37.832 27.5806 36.4201C26.4001 35.2396 25.7498 33.67 25.7498 32.0005C25.7498 30.331 26.4 28.7614 27.5806 27.5809C30.0174 25.1439 33.9829 25.1437 36.42 27.5809C37.901 29.0618 38.5394 31.1744 38.1279 33.2321C37.9925 33.9091 38.4315 34.5676 39.1085 34.703C39.7852 34.8388 40.444 34.3994 40.5794 33.7224C41.155 30.843 40.261 27.8864 38.1878 25.8131Z" fill="#003C4A"/>
<path d="M32 0C29.4497 0 27.375 2.07474 27.375 4.62498C27.375 6.7421 28.8052 8.53009 30.75 9.07696V18.4983C30.75 19.1885 31.3097 19.7483 32 19.7483C32.6902 19.7483 33.25 19.1885 33.25 18.4983V9.07696C35.1947 8.53022 36.625 6.7421 36.625 4.62498C36.625 2.07474 34.5502 0 32 0ZM32.0169 6.7491C32.0112 6.7491 32.0056 6.74822 32 6.74822C31.9944 6.74822 31.9887 6.74897 31.9831 6.7491C30.8192 6.73985 29.875 5.79098 29.875 4.62498C29.875 3.45324 30.8282 2.49999 32 2.49999C33.1717 2.49999 34.125 3.45324 34.125 4.62498C34.125 5.79098 33.1807 6.73985 32.0169 6.7491Z" fill="#003C4A"/>
<path d="M33.25 54.923V45.5C33.25 44.8097 32.6902 44.25 32 44.25C31.3097 44.25 30.75 44.8097 30.75 45.5V54.923C28.8052 55.4697 27.375 57.2578 27.375 59.3749C27.375 61.9252 29.4497 63.9999 32 63.9999C34.5502 63.9999 36.625 61.9252 36.625 59.3749C36.625 57.2578 35.1947 55.4697 33.25 54.923ZM32 61.4999C30.8282 61.4999 29.875 60.5467 29.875 59.3749C29.875 58.2032 30.8282 57.2499 32 57.2499C33.1717 57.2499 34.125 58.2032 34.125 59.3749C34.125 60.5467 33.1717 61.4999 32 61.4999Z" fill="#003C4A"/>
<path d="M18.4999 30.75H9.07696C8.53009 28.8052 6.7421 27.375 4.62498 27.375C2.07474 27.375 0 29.4497 0 32C0 34.5502 2.07474 36.625 4.62498 36.625C6.7421 36.625 8.53009 35.1947 9.07696 33.25H18.4999C19.1902 33.25 19.7499 32.6902 19.7499 32C19.7499 31.3097 19.1902 30.75 18.4999 30.75ZM4.62498 34.125C3.45324 34.125 2.49999 33.1717 2.49999 32C2.49999 30.8282 3.45324 29.875 4.62498 29.875C5.79673 29.875 6.74997 30.8282 6.74997 32C6.74997 33.1717 5.79673 34.125 4.62498 34.125Z" fill="#003C4A"/>
<path d="M59.3733 27.375C57.2562 27.375 55.4682 28.8052 54.9213 30.75H45.5C44.8097 30.75 44.25 31.3097 44.25 32C44.25 32.6902 44.8097 33.25 45.5 33.25H54.9213C55.4682 35.1947 57.2562 36.625 59.3733 36.625C61.9236 36.625 63.9983 34.5502 63.9983 32C63.9983 29.4497 61.9236 27.375 59.3733 27.375ZM59.3733 34.125C58.2072 34.125 57.2584 33.1808 57.2492 32.0169C57.2492 32.0111 57.2501 32.0056 57.2501 32C57.2501 31.9944 57.2493 31.9887 57.2492 31.9831C57.2584 30.8192 58.2073 29.875 59.3733 29.875C60.5451 29.875 61.4983 30.8282 61.4983 32C61.4983 33.1717 60.5451 34.125 59.3733 34.125Z" fill="#003C4A"/>
<path d="M23.3374 40.6621C22.849 40.1741 22.0578 40.1741 21.5695 40.6621L14.9076 47.3241C14.2236 46.9385 13.4491 46.7322 12.6423 46.7322C11.4069 46.7322 10.2456 47.2134 9.37195 48.0869C7.5687 49.8901 7.5687 52.8241 9.37207 54.6276C10.2737 55.5292 11.4581 55.98 12.6423 55.98C13.8268 55.98 15.0111 55.5292 15.9127 54.6276C16.7862 53.754 17.2674 52.5926 17.2674 51.3572C17.2674 50.5505 17.061 49.776 16.6754 49.092L23.3374 42.43C23.8255 41.9419 23.8255 41.1504 23.3374 40.6621ZM14.1448 52.8597C13.3162 53.6883 11.9681 53.688 11.1397 52.8598C10.3112 52.0312 10.3112 50.6831 11.1397 49.8546C11.5411 49.4531 12.0747 49.2322 12.6423 49.2322C13.2097 49.2322 13.7429 49.453 14.1443 49.8541C14.1444 49.8542 14.1447 49.8545 14.1448 49.8547C14.1451 49.855 14.1453 49.8551 14.1454 49.8554C14.5464 50.2566 14.7673 50.79 14.7673 51.3573C14.7674 51.9246 14.5463 52.4583 14.1448 52.8597Z" fill="#003C4A"/>
<path d="M54.6251 9.37216C52.8218 7.56892 49.8876 7.56904 48.0846 9.37216C47.211 10.2457 46.7297 11.4072 46.7297 12.6425C46.7297 13.4491 46.9361 14.2238 47.3217 14.9078L40.661 21.5685C40.1729 22.0566 40.1729 22.8481 40.661 23.3364C40.9053 23.5803 41.225 23.7025 41.545 23.7025C41.865 23.7025 42.1848 23.5803 42.4289 23.3364L49.0896 16.6756C49.7736 17.0613 50.5481 17.2675 51.3548 17.2675C52.5902 17.2675 53.7516 16.7864 54.6252 15.9129C55.4987 15.0394 55.9798 13.8779 55.9798 12.6425C55.9798 11.4072 55.4987 10.2457 54.6251 9.37216ZM52.8575 14.1451C52.4561 14.5466 51.9225 14.7675 51.3548 14.7675C50.7933 14.7675 50.2657 14.5506 49.8657 14.1574C49.8615 14.153 49.8578 14.1481 49.8535 14.1439C49.8491 14.1395 49.8443 14.1359 49.84 14.1316C49.4467 13.7318 49.2297 13.2041 49.2297 12.6425C49.2297 12.075 49.4508 11.5414 49.8522 11.14C50.2665 10.7258 50.8107 10.5187 51.3548 10.5187C51.899 10.5187 52.4431 10.7257 52.8575 11.14C53.6861 11.9685 53.6861 13.3166 52.8575 14.1451Z" fill="#003C4A"/>
<path d="M54.6252 48.0871C53.7516 47.2136 52.5902 46.7325 51.3548 46.7325C50.5481 46.7325 49.7736 46.9388 49.0896 47.3243L42.4289 40.6636C41.9406 40.1756 41.1494 40.1756 40.661 40.6636C40.1729 41.1517 40.1729 41.9432 40.661 42.4315L47.3217 49.0922C46.9361 49.7762 46.7297 50.5507 46.7297 51.3574C46.7297 52.5928 47.211 53.7542 48.0845 54.6278C48.9861 55.5294 50.1705 55.9802 51.3547 55.9802C52.5392 55.9802 53.7235 55.5294 54.6252 54.6277C56.4284 52.8243 56.4284 49.8903 54.6252 48.0871ZM52.8576 52.8601C52.0287 53.6887 50.6807 53.6884 49.8524 52.8601C49.4509 52.4587 49.2299 51.9251 49.2299 51.3574C49.2299 50.7959 49.4469 50.2683 49.8401 49.8683C49.8445 49.8641 49.8493 49.8604 49.8536 49.8561C49.858 49.8517 49.8616 49.8469 49.8659 49.8424C50.2657 49.4493 50.7933 49.2324 51.355 49.2324C51.9225 49.2324 52.4562 49.4534 52.8576 49.8548C53.686 50.6834 53.686 52.0316 52.8576 52.8601Z" fill="#003C4A"/>
<path d="M23.3376 21.5705L16.6757 14.9085C17.0613 14.2245 17.2677 13.4499 17.2677 12.6433C17.2677 11.4079 16.7864 10.2464 15.9129 9.37294C14.1097 7.56982 11.1757 7.56957 9.3722 9.37294C8.4987 10.2464 8.01758 11.4079 8.01758 12.6433C8.01758 13.8787 8.4987 15.0402 9.3722 15.9137C10.2459 16.7872 11.4073 17.2683 12.6427 17.2683C13.4494 17.2683 14.2239 17.0619 14.9079 16.6764L21.5699 23.3384C21.814 23.5824 22.1339 23.7045 22.4538 23.7045C22.7736 23.7045 23.0935 23.5824 23.3376 23.3384C23.8258 22.8503 23.8258 22.0588 23.3376 21.5705ZM14.1457 14.1453C14.1456 14.1454 14.1453 14.1457 14.1451 14.1458C14.1448 14.146 14.1447 14.1463 14.1444 14.1464C13.7432 14.5474 13.2098 14.7682 12.6424 14.7682C12.0749 14.7682 11.5412 14.5472 11.1398 14.1458C10.3114 13.3173 10.3114 11.9692 11.1399 11.1407C11.5543 10.7264 12.0984 10.5193 12.6426 10.5193C13.1867 10.5193 13.7309 10.7264 14.1452 11.1407C14.1452 11.1407 14.1452 11.1407 14.1453 11.1407C14.5467 11.5421 14.7677 12.0756 14.7677 12.6433C14.7677 13.2107 14.5468 13.7439 14.1457 14.1453Z" fill="#003C4A"/>
</svg>
