<svg width="64" height="64" viewBox="0 0 64 64" fill="none" xmlns="http://www.w3.org/2000/svg">
<g clip-path="url(#clip0)">
<path d="M16.793 46.3301C16.7119 46.3301 16.6294 46.3227 16.5479 46.3061C16.4692 46.29 16.3906 46.2661 16.3145 46.2349C16.2393 46.2036 16.167 46.165 16.0991 46.1201C16.0308 46.0737 15.9668 46.0215 15.9092 45.9639C15.8516 45.9062 15.7993 45.8428 15.7529 45.7739C15.708 45.7065 15.6694 45.6338 15.6382 45.5586C15.6069 45.4824 15.583 45.4038 15.5669 45.3252C15.5503 45.2441 15.543 45.1611 15.543 45.0801C15.543 44.999 15.5503 44.9165 15.5669 44.8364C15.583 44.7563 15.6069 44.6777 15.6382 44.6025C15.6694 44.5264 15.708 44.4541 15.7529 44.3862C15.7993 44.3179 15.8516 44.2539 15.9092 44.1963C15.9668 44.1387 16.0308 44.0864 16.0991 44.0415C16.167 43.9966 16.2393 43.9575 16.3145 43.9263C16.3906 43.895 16.4692 43.8716 16.5479 43.855C16.7095 43.8228 16.8755 43.8228 17.0366 43.855C17.1167 43.8716 17.1953 43.895 17.2705 43.9263C17.3467 43.9575 17.4194 43.9966 17.4868 44.0415C17.5557 44.0864 17.6191 44.1387 17.6768 44.1963C17.7344 44.2539 17.7866 44.3179 17.8315 44.3862C17.8769 44.4541 17.9155 44.5264 17.9468 44.6025C17.978 44.6777 18.0019 44.7563 18.0181 44.8364C18.0342 44.9165 18.043 44.999 18.043 45.0801C18.043 45.1611 18.0342 45.2441 18.0181 45.3252C18.0019 45.4038 17.978 45.4824 17.9468 45.5586C17.9155 45.6338 17.8769 45.7065 17.8315 45.7739C17.7866 45.8428 17.7344 45.9062 17.6768 45.9639C17.6191 46.0215 17.5557 46.0737 17.4868 46.1201C17.4194 46.165 17.3467 46.2036 17.2705 46.2349C17.1953 46.2661 17.1167 46.29 17.0366 46.3061C16.9565 46.3223 16.8745 46.3301 16.793 46.3301Z" fill="#003C4A"/>
<path d="M47.3633 46.3301C47.2822 46.3301 47.1997 46.3227 47.1196 46.3061C47.0395 46.29 46.9609 46.2661 46.8862 46.2349C46.8096 46.2036 46.7373 46.165 46.6699 46.1201C46.6011 46.0737 46.5371 46.0215 46.48 45.9639C46.4224 45.9062 46.3696 45.8428 46.3247 45.7739C46.2798 45.7065 46.2412 45.6338 46.21 45.5586C46.1787 45.4824 46.1548 45.4038 46.1387 45.3252C46.1221 45.2441 46.1133 45.1611 46.1133 45.0801C46.1133 44.999 46.1221 44.9165 46.1387 44.8364C46.1548 44.7563 46.1787 44.6777 46.21 44.6025C46.2412 44.5264 46.2798 44.4541 46.3247 44.3862C46.3696 44.3179 46.4224 44.2539 46.48 44.1963C46.5371 44.1387 46.6011 44.0864 46.6699 44.0415C46.7373 43.9966 46.8096 43.9575 46.8862 43.9263C46.9609 43.895 47.0395 43.8716 47.1196 43.855C47.2812 43.8228 47.4473 43.8228 47.6084 43.855C47.6875 43.8716 47.7661 43.895 47.8423 43.9263C47.9175 43.9575 47.9897 43.9966 48.0571 44.0415C48.126 44.0864 48.1899 44.1387 48.2471 44.1963C48.3047 44.2539 48.3574 44.3179 48.4033 44.3862C48.4487 44.4541 48.4873 44.5264 48.5185 44.6025C48.5498 44.6777 48.5737 44.7563 48.5898 44.8364C48.6059 44.9165 48.6133 44.999 48.6133 45.0801C48.6133 45.1611 48.6059 45.2441 48.5898 45.3252C48.5737 45.4038 48.5498 45.4824 48.5185 45.5586C48.4873 45.6338 48.4487 45.7065 48.4033 45.7739C48.3574 45.8428 48.3047 45.9062 48.2471 45.9639C48.1899 46.0215 48.126 46.0737 48.0571 46.1201C47.9897 46.165 47.9175 46.2036 47.8423 46.2349C47.7661 46.2661 47.6875 46.29 47.6084 46.3061C47.5273 46.3223 47.4448 46.3301 47.3633 46.3301V46.3301Z" fill="#003C4A"/>
<path d="M26.3419 40.7618C26.2984 40.7256 26.252 40.692 26.2042 40.6622L18.8409 36.0728L12.8546 30.0416C11.5914 28.7588 9.73004 28.4219 8.14997 29.0787V19.2168C8.14997 17.0235 6.46979 15.2261 4.32477 15.1255C3.16998 15.0713 1.9942 15.503 1.17975 16.2803C0.49957 16.9288 0.125058 17.7701 0.125058 18.649C0.125058 19.6065 0.126035 20.8374 0.1275 22.2149C0.13043 25.5474 0.134336 29.6949 0.125058 32.9517C0.117734 35.585 0.798887 38.1895 2.0943 40.483L6.42926 48.1568C7.43366 49.9346 9.0069 51.3751 10.8653 52.2193L16.3751 55.3653V56.982C16.3389 57.0982 16.3199 57.2218 16.3199 57.3497V62.6251C16.3199 63.3155 16.8795 63.8751 17.5699 63.8751H28.5699C29.2603 63.8751 29.8199 63.3155 29.8199 62.6251V47.2745C29.8199 44.838 28.6822 42.7076 26.3419 40.7618V40.7618ZM27.3199 61.3751H18.8199V58.5997H27.3199V61.3751ZM27.3199 56.0997H18.8751V54.6397C18.8751 54.191 18.6343 53.7769 18.2447 53.5543L12.0533 50.0191C12.0172 49.9986 11.9805 49.98 11.9429 49.963C10.5445 49.3389 9.35944 48.2608 8.60651 46.9278L4.27106 39.2535C3.18854 37.3365 2.6192 35.1597 2.62555 32.9586C2.63434 29.6973 2.63043 25.5474 2.6275 22.2129C2.62652 20.836 2.62555 19.606 2.62555 18.649C2.62555 18.4546 2.71979 18.2662 2.90582 18.0889C3.22565 17.7837 3.73541 17.6006 4.20758 17.6226C5.00299 17.6602 5.65045 18.375 5.65045 19.2168V31.8868C5.60358 32.0528 5.56696 32.2222 5.53961 32.3951C5.3316 33.7295 5.76959 35.0997 6.711 36.065L12.4986 42.2945C12.9683 42.8004 13.7593 42.8292 14.2652 42.3594C14.7706 41.8897 14.7999 41.0987 14.3301 40.5928L8.53131 34.3511C8.52301 34.3423 8.51471 34.3336 8.50592 34.3248C8.10163 33.9141 7.92096 33.3511 8.00983 32.7798C8.06696 32.4146 8.232 32.0811 8.49225 31.8096C8.5362 31.7696 8.63092 31.6836 8.67633 31.6431C9.39801 31.0728 10.4244 31.1363 11.0767 31.7989L17.169 37.9371C17.2369 38.0054 17.3131 38.066 17.3951 38.1172L24.8077 42.7374C26.5211 44.1807 27.3199 45.6241 27.3199 47.274V56.0997Z" fill="#003C4A"/>
<path d="M64.0283 22.2153C64.0293 20.8374 64.0303 19.6064 64.0303 18.6489C64.0303 17.7705 63.6558 16.9292 62.9761 16.2802C62.1616 15.5029 60.9863 15.0717 59.8311 15.1255C57.6856 15.2265 56.0054 17.0234 56.0054 19.2168V29.0786C54.4258 28.4219 52.5649 28.7583 51.3042 30.0381L45.3149 36.0727L37.9517 40.6621C37.9033 40.6924 37.8574 40.7256 37.8135 40.7617C35.4736 42.7075 34.3359 44.8379 34.3359 47.2744V62.625C34.3359 63.3154 34.8955 63.875 35.5859 63.875H46.5859C47.2764 63.875 47.8359 63.3154 47.8359 62.625V57.3496C47.8359 57.2217 47.8164 57.0981 47.7808 56.9819V55.3657L53.29 52.2197C55.1484 51.375 56.7222 49.9346 57.7261 48.1572L62.061 40.4829C63.3569 38.1894 64.0381 35.5849 64.0303 32.9516C64.0215 29.6948 64.0254 25.5473 64.0283 22.2153V22.2153ZM45.3359 61.375H36.8359V58.5996H45.3359V61.375ZM61.5303 32.9585C61.5366 35.1596 60.9673 37.3364 59.8843 39.2534L55.5493 46.9277C54.7964 48.2607 53.6113 49.3389 52.2129 49.9629C52.1748 49.98 52.1382 49.9985 52.1025 50.019L45.9111 53.5542C45.521 53.7768 45.2808 54.1909 45.2808 54.6396V56.0996H36.8355V47.2744C36.8355 45.6245 37.6343 44.1811 39.3481 42.7378L46.7607 38.1177C46.8428 38.0664 46.9185 38.0058 46.9868 37.9375L53.082 31.7959C53.7315 31.1367 54.7573 31.0732 55.4795 31.6435C55.5254 31.685 55.6206 31.771 55.6641 31.811C55.9224 32.0786 56.0889 32.4136 56.146 32.7803C56.2349 33.3515 56.0542 33.9145 55.6494 34.3252C55.6411 34.334 55.6328 34.3428 55.6245 34.3515L49.8257 40.5932C49.356 41.0991 49.3853 41.8901 49.8906 42.3598C50.3965 42.8301 51.1875 42.8008 51.6572 42.2949L57.4448 36.0654C58.3862 35.0996 58.8242 33.7295 58.6162 32.3955C58.5894 32.2226 58.5523 32.0532 58.5054 31.8872V19.2173C58.5054 18.3755 59.1528 17.6601 59.9483 17.623C60.4194 17.6001 60.9302 17.7837 61.25 18.0893C61.436 18.2666 61.5303 18.455 61.5303 18.6494C61.5303 19.6059 61.5293 20.8359 61.5283 22.2129C61.5254 25.5473 61.5215 29.6972 61.5303 32.9585V32.9585Z" fill="#003C4A"/>
<path d="M45.3433 6.02341C39.8697 5.20407 35.9429 3.37399 32.9863 0.263148L32.9859 0.26266C32.5117 -0.233922 31.7256 -0.256383 31.2236 0.212367C31.1904 0.243617 31.1709 0.261684 31.1699 0.263148C28.2129 3.37399 24.2866 5.20407 18.813 6.02341C18.2007 6.11471 17.748 6.64059 17.748 7.25973V24.1074C17.748 26.1611 18.4614 28.1211 19.7573 29.6264C21.0855 31.1699 22.8901 32.7764 25.1201 34.4023C27.4653 36.1118 29.8565 37.5205 31.4551 38.4043L31.459 38.4062C31.8511 38.5923 32.3057 38.5923 32.6978 38.4058L32.7012 38.4043C34.2998 37.5205 36.6904 36.1118 39.0362 34.4023C41.2661 32.7764 43.0703 31.1699 44.399 29.6264C45.6949 28.1211 46.4082 26.1611 46.4082 24.1074V7.25973C46.4082 6.64059 45.9551 6.11471 45.3433 6.02341V6.02341ZM43.9082 24.1074C43.9082 25.563 43.4097 26.9438 42.5044 27.9956C41.3008 29.3935 39.6387 30.8691 37.5635 32.3818C36.0987 33.4497 34.6113 34.3965 33.3281 35.1616V10.2568C33.3281 9.56686 32.7686 9.00681 32.0781 9.00681C31.3877 9.00681 30.8281 9.56686 30.8281 10.2568V35.1621C29.5444 34.397 28.0571 33.4497 26.5928 32.3823C24.5176 30.8691 22.855 29.3935 21.6519 27.9956C20.7466 26.9438 20.248 25.563 20.248 24.1074V8.32028C25.1836 7.4321 29.0737 5.64206 32.0781 2.87497C35.0825 5.64255 38.9727 7.4321 43.9082 8.32028V24.1074Z" fill="#003C4A"/>
</g>
<defs>
<clipPath id="clip0">
<rect width="64" height="64" fill="white"/>
</clipPath>
</defs>
</svg>
