<svg width="64" height="64" viewBox="0 0 64 64" fill="none" xmlns="http://www.w3.org/2000/svg">
<g clip-path="url(#clip0_1534:32596)">
<path d="M56.8842 23.0767L63.6337 16.3272C63.912 16.0494 64.0429 15.6563 63.9872 15.2671C63.932 14.878 63.6962 14.5372 63.3515 14.3477L55.2372 9.89214C54.6322 9.56011 53.8725 9.7813 53.5399 10.3863C53.2079 10.9918 53.4286 11.7515 54.0341 12.0835L60.6884 15.7374L54.8959 21.5293L34.0624 10.0894L39.8544 4.29741L45.7094 7.51275C46.3144 7.84478 47.0746 7.62407 47.4066 7.01861C47.7392 6.41362 47.518 5.65337 46.9125 5.32134L40.2353 1.65435C39.7479 1.38677 39.1425 1.4732 38.7499 1.86626L31.9999 8.61626L25.2499 1.86626C24.8568 1.4732 24.2514 1.38726 23.7645 1.65435L0.648334 14.3477C0.303608 14.5372 0.0677676 14.8775 0.0125917 15.2671C-0.0430723 15.6563 0.0877871 16.0494 0.366108 16.3272L7.11562 23.0767L0.366108 29.8257C0.0877871 30.1041 -0.0430723 30.4966 0.0125917 30.8863C0.0677676 31.2754 0.303608 31.6163 0.648334 31.8052L7.63369 35.6412V48.4624C7.63369 48.919 7.88222 49.3389 8.28212 49.5586L31.3983 62.2515C31.5858 62.3545 31.7929 62.4058 31.9999 62.4058C32.2069 62.4058 32.414 62.3545 32.6015 62.2515L55.7177 49.5586C56.1176 49.3389 56.3661 48.919 56.3661 48.4624V35.6412L63.3515 31.8057C63.6962 31.6163 63.932 31.2754 63.9872 30.8863C64.0429 30.4971 63.912 30.1041 63.6337 29.8262L56.8842 23.0767ZM31.9999 34.3433L11.4809 23.0762L31.9999 11.8086L52.5189 23.0762L31.9999 34.3433ZM24.1459 4.29741L29.9374 10.0894L9.1039 21.5293L3.31191 15.7374L24.1459 4.29741ZM9.10488 24.6236L29.9384 36.0635L24.1459 41.856L3.31191 30.4161L9.10488 24.6236ZM53.8661 47.7232L33.2499 59.0435V46.2657C33.2499 45.5752 32.6903 45.0157 31.9999 45.0157C31.3095 45.0157 30.7499 45.5752 30.7499 46.2657V59.0435L10.1337 47.7232V37.0142L23.7645 44.4991C23.9535 44.6026 24.1605 44.6534 24.3656 44.6534C24.6894 44.6534 25.0097 44.5274 25.2499 44.2872L31.9999 37.5372L38.7499 44.2872C38.9901 44.5279 39.3104 44.6534 39.6342 44.6534C39.8393 44.6534 40.0463 44.6026 40.2353 44.4991L53.8661 37.0142V47.7232ZM39.8544 41.856L34.0619 36.063L54.8954 24.6236L60.6884 30.4156L39.8544 41.856Z" fill="#003C4A"/>
<path d="M50.6016 10.0221C50.9302 10.0221 51.2515 9.88831 51.4854 9.6554C51.7178 9.42297 51.8516 9.10071 51.8516 8.77209C51.8516 8.44299 51.7178 8.12073 51.4854 7.88831C51.2529 7.6554 50.9302 7.52209 50.6016 7.52209C50.2715 7.52209 49.9502 7.6554 49.7178 7.88831C49.4839 8.12073 49.3516 8.44299 49.3516 8.77209C49.3516 9.10071 49.4839 9.42297 49.7178 9.6554C49.9502 9.88831 50.2729 10.0221 50.6016 10.0221Z" fill="#003C4A"/>
<path d="M32 40.8657C31.6714 40.8657 31.3486 40.999 31.1162 41.2319C30.8838 41.4653 30.75 41.7866 30.75 42.1157C30.75 42.4453 30.8838 42.7666 31.1162 43.0005C31.3486 43.2329 31.6714 43.3657 32 43.3657C32.3286 43.3657 32.6514 43.2329 32.8838 43.0005C33.1162 42.7666 33.25 42.4453 33.25 42.1157C33.25 41.7866 33.1162 41.4653 32.8838 41.2319C32.6514 40.999 32.3286 40.8657 32 40.8657Z" fill="#003C4A"/>
</g>
<defs>
<clipPath id="clip0_1534:32596">
<rect width="64" height="64" fill="white"/>
</clipPath>
</defs>
</svg>
