<svg width="40" height="40" viewBox="0 0 40 40" fill="none" xmlns="http://www.w3.org/2000/svg">
<g clip-path="url(#clip0_411_33752)">
<path d="M23.125 28.5938C23.5565 28.5938 23.9062 28.244 23.9062 27.8125C23.9062 27.381 23.5565 27.0312 23.125 27.0312C22.6935 27.0312 22.3438 27.381 22.3438 27.8125C22.3438 28.244 22.6935 28.5938 23.125 28.5938Z" fill="#003C4A"/>
<path d="M20 20.7812C20.4315 20.7812 20.7812 20.4315 20.7812 20C20.7812 19.5685 20.4315 19.2188 20 19.2188C19.5685 19.2188 19.2188 19.5685 19.2188 20C19.2188 20.4315 19.5685 20.7812 20 20.7812Z" fill="#003C4A"/>
<path d="M20 28.5938C20.4315 28.5938 20.7812 28.244 20.7812 27.8125C20.7812 27.381 20.4315 27.0312 20 27.0312C19.5685 27.0312 19.2188 27.381 19.2188 27.8125C19.2188 28.244 19.5685 28.5938 20 28.5938Z" fill="#003C4A"/>
<path d="M16.875 28.5938C17.3065 28.5938 17.6562 28.244 17.6562 27.8125C17.6562 27.381 17.3065 27.0312 16.875 27.0312C16.4435 27.0312 16.0938 27.381 16.0938 27.8125C16.0938 28.244 16.4435 28.5938 16.875 28.5938Z" fill="#003C4A"/>
<path d="M20 0C9.21563 0 0 9.19617 0 20V21.5625C0 21.994 0.349766 22.3438 0.78125 22.3438H3.76227C3.94625 23.6165 4.285 24.8699 4.7732 26.0851L2.58992 27.3453C2.41047 27.4489 2.27945 27.6195 2.22586 27.8197C2.17219 28.0198 2.20031 28.2331 2.30391 28.4126L3.86641 31.1188C4.08219 31.4925 4.55984 31.6204 4.93359 31.4048L7.12227 30.1415C7.92453 31.1589 8.84125 32.0756 9.85867 32.8779L8.59531 35.0666C8.37961 35.4402 8.50766 35.918 8.88133 36.1338L11.5876 37.6963C11.9611 37.9119 12.4391 37.784 12.6548 37.4102L13.9151 35.227C15.1302 35.7152 16.3837 36.0539 17.6564 36.2379V39.2188C17.6564 39.6502 18.0062 40 18.4377 40H21.5627C21.9941 40 22.3439 39.6502 22.3439 39.2188V36.2377C23.6166 36.0537 24.8701 35.715 26.0852 35.2268L27.3455 37.4101C27.561 37.7836 28.039 37.9117 28.4127 37.6961L31.119 36.1336C31.4927 35.9179 31.6206 35.4402 31.405 35.0664L30.1416 32.8777C31.1591 32.0755 32.0758 31.1587 32.878 30.1413L35.0667 31.4047C35.4404 31.6204 35.9181 31.4923 36.1339 31.1187L37.6964 28.4124C37.912 28.0389 37.7841 27.5608 37.4104 27.3452L35.2271 26.0849C35.7154 24.8698 36.0541 23.6163 36.238 22.3436H39.2188C39.6502 22.3436 40 21.9938 40 21.5623V19.9998C40 9.22617 30.8117 0 20 0V0ZM3.73867 11.5138L6.07734 12.8641C6.44938 13.0788 6.92789 12.9534 7.14453 12.5781C7.36031 12.2045 7.23227 11.7266 6.85859 11.5109L4.53836 10.1713C6.00266 7.9275 7.9357 6.00148 10.1742 4.54352L11.5109 6.85859C11.7277 7.23406 12.2063 7.3593 12.5781 7.14453C12.9518 6.92883 13.0798 6.45102 12.8641 6.07734L11.5175 3.74508C13.8663 2.47695 16.4875 1.70555 19.2188 1.58117V4.375C19.2188 4.80648 19.5685 5.15625 20 5.15625C20.4315 5.15625 20.7812 4.80648 20.7812 4.375V1.58117C23.5125 1.70555 26.1337 2.47695 28.4825 3.74508L27.1359 6.07734C26.9202 6.45102 27.0482 6.92883 27.4219 7.14453C27.7939 7.3593 28.2724 7.23391 28.4891 6.85859L29.8257 4.54352C32.0642 6.00148 33.9972 7.92742 35.4615 10.1713L33.1414 11.5109C32.7677 11.7266 32.6397 12.2045 32.8555 12.5781C33.0723 12.9536 33.5508 13.0788 33.9227 12.8641L36.2612 11.5139C37.2816 13.4027 37.9818 15.4759 38.2779 17.6562H33.0736C31.9732 11.5169 26.6299 6.71875 20 6.71875C13.5454 6.71875 8.04305 11.3743 6.9257 17.6562H1.72203C2.01805 15.4759 2.71812 13.4027 3.73867 11.5138ZM38.4375 20.7812H35.5461C35.1445 20.7812 34.8084 21.0857 34.7687 21.4854C34.6123 23.0609 34.1937 24.6116 33.5246 26.0943C33.3595 26.4602 33.4985 26.8916 33.8462 27.0923L35.9523 28.308L35.171 29.661L33.0609 28.443C32.7136 28.2426 32.2713 28.3373 32.0367 28.6624C31.0983 29.963 29.963 31.0984 28.6623 32.0368C28.3373 32.2713 28.2425 32.7138 28.4429 33.0609L29.6609 35.1711L28.3079 35.9523L27.0922 33.8462C26.8916 33.4986 26.4601 33.3595 26.0942 33.5247C24.6115 34.1938 23.0608 34.6124 21.4853 34.7687C21.0856 34.8084 20.7812 35.1446 20.7812 35.5462V38.4375H19.2187V35.5461C19.2187 35.1445 18.9142 34.8084 18.5145 34.7687C16.9391 34.6123 15.3884 34.1937 13.9056 33.5246C13.5398 33.3595 13.1083 33.4985 12.9077 33.8462L11.692 35.9523L10.3389 35.171L11.557 33.0609C11.7573 32.7137 11.6625 32.2713 11.3375 32.0367C10.0369 31.0983 8.90156 29.963 7.96313 28.6623C7.72859 28.3373 7.28625 28.2424 6.93898 28.4429L4.82883 29.6609L4.04758 28.3079L6.15367 27.0922C6.50133 26.8916 6.64031 26.4601 6.47523 26.0942C5.80609 24.6115 5.3875 23.0608 5.23117 21.4853C5.19164 21.0857 4.85547 20.7812 4.45391 20.7812H1.5625V20C1.5625 19.7396 1.56875 19.4786 1.58047 19.218H6.74219C6.72711 19.4787 6.71875 19.7396 6.71875 20C6.71875 27.3233 12.6767 33.2812 20 33.2812C22.2407 33.2812 24.4559 32.7127 26.4062 31.6369C26.7841 31.4285 26.9214 30.9533 26.713 30.5755C26.5045 30.1977 26.0294 30.0605 25.6516 30.2687C23.9317 31.2173 21.9775 31.7188 20 31.7188C13.5383 31.7188 8.28125 26.4617 8.28125 20C8.28125 13.5224 13.5421 8.28125 20 8.28125C22.8225 8.28125 25.4928 9.27297 27.6137 11.0908L20.7051 16.1575C20.4733 16.1151 20.2373 16.0938 20 16.0938C17.8461 16.0938 16.0938 17.8461 16.0938 20C16.0938 22.1539 17.8461 23.9062 20 23.9062C22.1539 23.9062 23.9062 22.1539 23.9062 20C23.9062 19.7627 23.8849 19.5267 23.8425 19.2949L28.9085 12.3873C30.6501 14.4288 31.7188 17.097 31.7188 20C31.7188 21.9775 31.2173 23.9317 30.2687 25.6515C30.0603 26.0293 30.1976 26.5045 30.5754 26.7129C30.9531 26.9212 31.4284 26.7841 31.6368 26.4062C32.7127 24.4559 33.2812 22.2407 33.2812 20C33.2812 19.7396 33.273 19.4787 33.2578 19.2188H38.4195C38.4313 19.4786 38.4374 19.7396 38.4374 20V20.7812H38.4375ZM22.2501 19.3417C22.3122 19.5545 22.3438 19.7759 22.3438 20C22.3438 21.2923 21.2923 22.3438 20 22.3438C18.7077 22.3438 17.6562 21.2923 17.6562 20C17.6562 18.7077 18.7077 17.6562 20 17.6562C20.2241 17.6562 20.4455 17.6877 20.6583 17.7499C20.8916 17.8182 21.1434 17.7738 21.3394 17.63L25.2051 14.7948L22.3699 18.6605C22.2262 18.8566 22.182 19.1084 22.2501 19.3417Z" fill="#003C4A"/>
<path d="M28.8281 29.6094C29.2596 29.6094 29.6094 29.2596 29.6094 28.8281C29.6094 28.3967 29.2596 28.0469 28.8281 28.0469C28.3967 28.0469 28.0469 28.3967 28.0469 28.8281C28.0469 29.2596 28.3967 29.6094 28.8281 29.6094Z" fill="#003C4A"/>
</g>
<defs>
<clipPath id="clip0_411_33752">
<rect width="40" height="40" fill="white"/>
</clipPath>
</defs>
</svg>
