<svg width="40" height="40" viewBox="0 0 40 40" fill="none" xmlns="http://www.w3.org/2000/svg">
<path d="M24.1688 3.8707L24.1688 3.87069C22.7796 3.01171 21.6009 1.95594 20.6646 0.733119C20.3246 0.28895 19.6361 0.28897 19.2961 0.733118C18.3604 1.95501 17.1816 3.0108 15.7916 3.87085C13.6735 5.18115 11.3904 5.83653 9.62882 6.16397C8.7484 6.32762 7.99927 6.40917 7.46764 6.44976C7.20185 6.47006 6.9905 6.48011 6.84437 6.48507C6.77131 6.48756 6.71457 6.48877 6.67549 6.48935L6.63032 6.48983L6.61806 6.48986L6.61463 6.48986C6.61418 6.48986 6.61386 6.48985 6.61367 6.48985C6.13898 6.48076 5.74375 6.88331 5.74375 7.35168V28.2731L5.74398 28.2935C5.75142 30.3982 6.89236 32.3469 8.72562 33.3829L19.5324 39.4894C19.7932 39.6369 20.1196 39.6369 20.3805 39.4894L31.1872 33.3829C33.0265 32.3435 34.169 30.3857 34.169 28.2731V23.1548C34.1689 22.6788 33.783 22.293 33.3071 22.293C32.8312 22.293 32.4452 22.6788 32.4452 23.1548V28.2731C32.4452 29.7652 31.6381 31.1481 30.3391 31.8823L19.9564 37.7492L9.57358 31.8823C8.27459 31.1482 7.46756 29.7652 7.46756 28.2731L7.46734 28.2546V8.18148C9.17162 8.06913 13.0927 7.56718 16.6984 5.33658L16.6458 5.25154L16.6984 5.33658C17.9462 4.56455 19.0465 3.64899 19.9802 2.60656C20.9144 3.64971 22.0148 4.56528 23.2621 5.33659C26.7016 7.46466 30.7322 8.04724 32.4452 8.20406V16.454C32.4452 16.93 32.8311 17.3159 33.307 17.3159C33.7829 17.3159 34.1688 16.93 34.1688 16.454V7.39891C34.1688 6.93327 33.7985 6.55191 33.3333 6.53743C33.284 6.5359 28.1745 6.34897 24.1688 3.8707Z" fill="#003C4A" stroke="#003C4A" stroke-width="0.2"/>
<path d="M11.2828 20.3031C11.2828 25.1398 15.2176 29.0745 20.0541 29.0745C24.8907 29.0745 28.8254 25.1398 28.8254 20.3031C28.8254 15.4665 24.8907 11.5318 20.0541 11.5318C15.2176 11.5318 11.2828 15.4666 11.2828 20.3031ZM27.1018 20.3031C27.1018 24.1891 23.9401 27.3508 20.0542 27.3508C16.1682 27.3508 13.0066 24.1892 13.0066 20.3031C13.0066 16.4171 16.1682 13.2555 20.0542 13.2555C23.9401 13.2555 27.1018 16.4172 27.1018 20.3031Z" fill="#003C4A" stroke="#003C4A" stroke-width="0.2"/>
<path d="M17.5429 19.657L17.5428 19.657C17.2291 19.299 16.6847 19.2632 16.3267 19.5768L16.3266 19.5768C15.9687 19.8905 15.9328 20.435 16.2464 20.7929L16.2464 20.7929L18.3429 23.1854C18.3429 23.1854 18.3429 23.1854 18.3429 23.1854C18.5 23.3647 18.7245 23.4709 18.9627 23.4787L18.9633 23.4788C18.9722 23.479 18.9816 23.4792 18.9911 23.4792C19.2192 23.4792 19.4385 23.3886 19.6005 23.2268L19.6005 23.2267L24.2303 18.5969C24.5669 18.2603 24.5669 17.7146 24.2304 17.378L24.2303 17.378C23.8937 17.0414 23.3482 17.0415 23.0115 17.378L23.0115 17.378L19.0326 21.3572L17.5429 19.657Z" fill="#003C4A" stroke="#003C4A" stroke-width="0.2"/>
<path d="M32.9774 19.0502L32.9774 19.0502C33.4106 18.8704 33.9245 19.0812 34.1031 19.5165C34.2842 19.9516 34.07 20.4614 33.6369 20.6412L33.6368 20.6412C33.2033 20.8212 32.691 20.6101 32.5112 20.1758L32.9774 19.0502ZM32.9774 19.0502C32.5429 19.2305 32.331 19.7407 32.5112 20.1757L32.9774 19.0502Z" fill="#003C4A" stroke="#003C4A" stroke-width="0.2"/>
</svg>
