<svg width="40" height="40" viewBox="0 0 40 40" fill="none" xmlns="http://www.w3.org/2000/svg">
<g clip-path="url(#clip0_2959_34219)">
<path d="M0 8C0 3.58172 3.58172 0 8 0H32C36.4183 0 40 3.58172 40 8V32C40 36.4183 36.4183 40 32 40H8C3.58172 40 0 36.4183 0 32V8Z" fill="#00758F"/>
<path d="M15.0768 25.258C15.0768 26.708 13.465 27.5767 12.2538 26.7796L6.40317 22.9291C5.52729 22.3527 5 21.3744 5 20.3259V20.3259C5 19.2786 5.52603 18.3013 6.40019 17.7246L12.2643 13.8557C13.4701 13.0601 15.0768 13.9249 15.0768 15.3696V15.3696C15.0768 15.9902 14.7595 16.5677 14.2356 16.9005L8.85475 20.3188L14.2291 23.7186C14.7569 24.0524 15.0768 24.6334 15.0768 25.258V25.258Z" fill="white"/>
<path d="M22.073 12.2163C23.0917 12.2163 23.8225 13.1981 23.5301 14.174L19.4162 27.9066C19.2218 28.5555 18.6247 29 17.9473 29V29C16.9192 29 16.1823 28.0083 16.4791 27.024L20.6165 13.2984C20.8102 12.656 21.402 12.2163 22.073 12.2163V12.2163Z" fill="white"/>
<path d="M24.9232 15.3785C24.9232 13.9279 26.5348 13.058 27.7474 13.8541L33.5879 17.6883C34.4692 18.2669 35 19.2503 35 20.3045V20.3045C35 21.3562 34.4717 22.3376 33.5939 22.9168L27.7357 26.7818C26.5299 27.5774 24.9232 26.7126 24.9232 25.2679V25.2679C24.9232 24.6473 25.2405 24.0698 25.7644 23.737L31.1453 20.3188L25.7718 16.9195C25.2435 16.5853 24.9232 16.0037 24.9232 15.3785V15.3785Z" fill="white"/>
</g>
<defs>
<clipPath id="clip0_2959_34219">
<rect width="40" height="40" fill="white"/>
</clipPath>
</defs>
</svg>
