<svg width="28" height="28" viewBox="0 0 28 28" fill="none" xmlns="http://www.w3.org/2000/svg">
<path d="M20.5625 8.75H14.875V17.1374L17.7565 14.2565C17.9219 14.0993 18.1422 14.013 18.3704 14.0159C18.5985 14.0188 18.8165 14.1108 18.9779 14.2721C19.1392 14.4335 19.2312 14.6515 19.2341 14.8796C19.237 15.1078 19.1507 15.3281 18.9935 15.4935L14.6185 19.8685C14.4544 20.0325 14.232 20.1246 14 20.1246C13.768 20.1246 13.5456 20.0325 13.3815 19.8685L9.00648 15.4935C8.84932 15.3281 8.76299 15.1078 8.76591 14.8796C8.76883 14.6515 8.86077 14.4335 9.02212 14.2721C9.18347 14.1108 9.40147 14.0188 9.62964 14.0159C9.85781 14.013 10.0781 14.0993 10.2435 14.2565L13.125 17.1374V8.75H7.4375C6.62554 8.75087 5.84709 9.0738 5.27294 9.64794C4.6988 10.2221 4.37587 11.0005 4.375 11.8125V23.1875C4.37587 23.9995 4.6988 24.7779 5.27294 25.3521C5.84709 25.9262 6.62554 26.2491 7.4375 26.25H20.5625C21.3745 26.2491 22.1529 25.9262 22.7271 25.3521C23.3012 24.7779 23.6241 23.9995 23.625 23.1875V11.8125C23.6241 11.0005 23.3012 10.2221 22.7271 9.64794C22.1529 9.0738 21.3745 8.75087 20.5625 8.75Z" fill="#FFFFFF"/>
<path d="M14.875 2.625C14.875 2.39294 14.7828 2.17038 14.6187 2.00628C14.4546 1.84219 14.2321 1.75 14 1.75C13.7679 1.75 13.5454 1.84219 13.3813 2.00628C13.2172 2.17038 13.125 2.39294 13.125 2.625V8.75H14.875V2.625Z" fill="#FFFFFF"/>
</svg>
