<svg width="28" height="28" viewBox="0 0 28 28" fill="none" xmlns="http://www.w3.org/2000/svg">
<g clip-path="url(#clip0_2408_24346)">
<path d="M14 0C6.2692 0 0 6.2692 0 14C0 21.7308 6.2692 28 14 28C21.7308 28 28 21.7308 28 14C28 6.2692 21.7308 0 14 0ZM9.93176 21.1641H6.52213V10.9061H9.93176V21.1641ZM8.22705 9.50537H8.20483C7.06067 9.50537 6.32068 8.71774 6.32068 7.73337C6.32068 6.72678 7.08331 5.96094 8.24969 5.96094C9.41608 5.96094 10.1339 6.72678 10.1561 7.73337C10.1561 8.71774 9.41608 9.50537 8.22705 9.50537ZM22.2262 21.1641H18.817V15.6763C18.817 14.2971 18.3233 13.3566 17.0896 13.3566C16.1478 13.3566 15.5868 13.991 15.3403 14.6035C15.2501 14.8227 15.2281 15.129 15.2281 15.4355V21.1641H11.8187C11.8187 21.1641 11.8633 11.8685 11.8187 10.9061H15.2281V12.3585C15.6812 11.6595 16.4919 10.6653 18.3009 10.6653C20.5441 10.6653 22.2262 12.1314 22.2262 15.2822V21.1641Z" fill="white"/>
</g>
<defs>
<clipPath id="clip0_2408_24346">
<rect width="28" height="28" fill="white"/>
</clipPath>
</defs>
</svg>
