<svg width="28" height="28" viewBox="0 0 28 28" fill="none" xmlns="http://www.w3.org/2000/svg">
<path d="M14.532 22.5305L9.60802 22.4407C8.01372 22.4095 6.41549 22.4719 4.85252 22.1478C2.47478 21.6635 2.30634 19.2891 2.13006 17.2974C1.88719 14.4972 1.98121 11.6463 2.43952 8.86962C2.69806 7.31139 3.71653 6.38191 5.29125 6.28037C10.6069 5.91327 15.9578 5.95623 21.2617 6.12807C21.8219 6.14369 22.386 6.2296 22.9383 6.32724C25.6647 6.80369 25.7313 9.49447 25.9075 11.7596C26.0838 14.0481 26.0094 16.3484 25.6725 18.6213C25.4022 20.5036 24.8852 22.0814 22.7033 22.2337C19.9691 22.4329 17.2975 22.593 14.5555 22.5422C14.5555 22.5305 14.5398 22.5305 14.532 22.5305V22.5305ZM11.6371 17.766C13.6976 16.5866 15.7189 15.4267 17.7676 14.2551C15.7032 13.0757 13.6858 11.9158 11.6371 10.7442V17.766Z" fill="#FFFFFF"/>
</svg>
