<svg width="28" height="28" viewBox="0 0 28 28" fill="none" xmlns="http://www.w3.org/2000/svg">
<path d="M12.746 3.49786C7.64573 3.49786 3.49609 7.6475 3.49609 12.7477C3.49609 17.8483 7.64573 21.9976 12.746 21.9976C17.8465 21.9976 21.9959 17.8483 21.9959 12.7477C21.9959 7.6475 17.8465 3.49786 12.746 3.49786ZM12.746 20.29C8.58723 20.29 5.20377 16.9065 5.20377 12.7478C5.20377 8.58904 8.58723 5.20554 12.746 5.20554C16.9047 5.20554 20.2882 8.589 20.2882 12.7477C20.2882 16.9065 16.9047 20.29 12.746 20.29Z" fill="white"/>
<path d="M24.2494 23.0446L19.354 18.1492C19.0204 17.8157 18.4802 17.8157 18.1467 18.1492C17.8131 18.4825 17.8131 19.0233 18.1467 19.3566L23.042 24.2519C23.2088 24.4187 23.4271 24.5021 23.6457 24.5021C23.864 24.5021 24.0825 24.4187 24.2494 24.2519C24.5829 23.9186 24.5829 23.3778 24.2494 23.0446Z" fill="white"/>
</svg>
