<svg width="120" height="120" viewBox="0 0 120 120" fill="none" xmlns="http://www.w3.org/2000/svg">
<g clip-path="url(#clip0_3012_34355)">
<path d="M111.25 20H95C92.24 20 90 22.24 90 25C90 27.76 92.24 30 95 30H110V90H10V30H25C27.76 30 30 27.76 30 25C30 22.24 27.76 20 25 20H8.75C3.92 20 0 23.92 0 28.75V91.25C0 96.08 3.92 100 8.75 100H50V110H40C37.24 110 35 112.24 35 115C35 117.76 37.24 120 40 120H80C82.765 120 85 117.76 85 115C85 112.24 82.765 110 80 110H70V100H111.25C116.08 100 120 96.08 120 91.25V28.75C120 23.92 116.08 20 111.25 20Z" fill="#A2CDD7"/>
<g clip-path="url(#clip1_3012_34355)">
<path d="M82.908 37.9055L65.9353 6.70541C63.2084 2.11459 56.5609 2.10849 53.8303 6.70541L36.8585 37.9055C34.0708 42.5965 37.4458 48.5369 42.9096 48.5369H76.8555C82.3146 48.5369 85.6956 42.6013 82.908 37.9055ZM59.8828 42.9064C58.3308 42.9064 57.0676 41.6431 57.0676 40.0911C57.0676 38.5392 58.3308 37.2759 59.8828 37.2759C61.4348 37.2759 62.698 38.5392 62.698 40.0911C62.698 41.6431 61.4348 42.9064 59.8828 42.9064ZM62.698 31.6454C62.698 33.1974 61.4348 34.4606 59.8828 34.4606C58.3308 34.4606 57.0676 33.1974 57.0676 31.6454V17.5692C57.0676 16.0172 58.3308 14.7539 59.8828 14.7539C61.4348 14.7539 62.698 16.0172 62.698 17.5692V31.6454Z" fill="#A2CDD7"/>
</g>
</g>
<defs>
<clipPath id="clip0_3012_34355">
<rect width="120" height="120" fill="white"/>
</clipPath>
<clipPath id="clip1_3012_34355">
<rect width="48.0469" height="48.0469" fill="white" transform="translate(35.8594 1.875)"/>
</clipPath>
</defs>
</svg>
