<svg xmlns="http://www.w3.org/2000/svg" viewBox="0 0 1440 609"><defs><style>.cls-1{fill:none;stroke:#2c7f96;stroke-miterlimit:10;opacity:0.5;}.cls-2{fill:#02475b;opacity:0.79;}</style></defs><title>back-03-03</title><g id="Layer_3" data-name="Layer 3"><path class="cls-1" d="M761.86,587,799.81,609a10,10,0,0,0,10,0l38-21.91a5,5,0,0,0,0-8.66l-37.95-21.92a10,10,0,0,0-10,0l-38,21.92A5,5,0,0,0,761.86,587Z"/><path class="cls-1" d="M744.5,313.9l38,21.92a10,10,0,0,0,10,0l38-21.92a5,5,0,0,0,0-8.66l-37.95-21.91a10,10,0,0,0-10,0l-38,21.91A5,5,0,0,0,744.5,313.9Z"/><path class="cls-1" d="M422.65,64.43l38,21.91a10,10,0,0,0,10,0l37.95-21.91a5,5,0,0,0,0-8.67L470.6,33.85a10,10,0,0,0-10,0l-38,21.92A5,5,0,0,0,422.65,64.43Z"/><path class="cls-1" d="M51.58,557l38,21.91a10,10,0,0,0,10,0l38-21.91a5,5,0,0,0,0-8.67l-38-21.91a10,10,0,0,0-10,0l-38,21.91A5,5,0,0,0,51.58,557Z"/><path class="cls-1" d="M1327.4,553.71l37.95,21.92a10,10,0,0,0,10,0l38-21.92a5,5,0,0,0,0-8.66l-38-21.91a10,10,0,0,0-10,0l-37.95,21.91A5,5,0,0,0,1327.4,553.71Z"/><path class="cls-1" d="M780.61,9.33l37.95,21.91a10,10,0,0,0,10,0l38-21.91a5,5,0,0,0,0-8.67L828.57-21.25a10,10,0,0,0-10,0L780.61.66A5,5,0,0,0,780.61,9.33Z"/><path class="cls-1" d="M1273.93,50.11l38,21.91a10,10,0,0,0,10,0l37.95-21.91a5,5,0,0,0,0-8.67l-37.95-21.91a10,10,0,0,0-10,0l-38,21.91A5,5,0,0,0,1273.93,50.11Z"/></g></svg>
