<svg xmlns="http://www.w3.org/2000/svg" viewBox="0 0 800 302.1"><defs><style>.cls-1{fill:none;stroke:#2c7f96;stroke-miterlimit:10;opacity:0.5;}.cls-2{fill:#02475b;opacity:0.79;}</style></defs><title>back-03</title><g id="Layer_3" data-name="Layer 3"><path class="cls-1" d="M441.86,293.59l37.95,21.91a10,10,0,0,0,10,0l38-21.91a5,5,0,0,0,0-8.67L489.82,263a10,10,0,0,0-10,0l-38,21.92A5,5,0,0,0,441.86,293.59Z"/><path class="cls-1" d="M344.5,160.45l37.95,21.92a10,10,0,0,0,10,0l38-21.92a5,5,0,0,0,0-8.66l-38-21.91a10,10,0,0,0-10,0l-38,21.91A5,5,0,0,0,344.5,160.45Z"/><path class="cls-1" d="M242.35,41l38,21.91a10,10,0,0,0,10,0L328.25,41a5,5,0,0,0,0-8.67L290.3,10.4a10,10,0,0,0-10,0l-38,21.91A5,5,0,0,0,242.35,41Z"/><path class="cls-1" d="M15.89,263.58l38,21.91a10,10,0,0,0,10,0l38-21.92a5,5,0,0,0,0-8.66L63.85,233a10,10,0,0,0-10,0l-38,21.91A5,5,0,0,0,15.89,263.58Z"/><path class="cls-1" d="M687.4,260.26l38,21.92a10,10,0,0,0,10,0l37.95-21.92a5,5,0,0,0,0-8.66l-37.95-21.91a10,10,0,0,0-10,0l-38,21.91A5,5,0,0,0,687.4,260.26Z"/><path class="cls-1" d="M460.61,15.88l37.95,21.91a10,10,0,0,0,10,0l38-21.92a5,5,0,0,0,0-8.66L508.57-14.7a10,10,0,0,0-10,0l-38,21.91A5,5,0,0,0,460.61,15.88Z"/><path class="cls-1" d="M677.86,46.66l37.95,21.91a10,10,0,0,0,10,0l38-21.91a5,5,0,0,0,0-8.67l-38-21.91a10,10,0,0,0-10,0L677.86,38A5,5,0,0,0,677.86,46.66Z"/></g></svg>