<svg xmlns="http://www.w3.org/2000/svg" viewBox="0 0 800 302.1"><defs><style>.cls-1{opacity:0.5;}.cls-2{fill:#2c7f96;}.cls-3,.cls-5{opacity:0.79;}.cls-4,.cls-5{fill:#02475b;}</style></defs><title>back</title><g id="Layer_3" data-name="Layer 3"><g class="cls-1"><path class="cls-2" d="M484.81,317.34a10.47,10.47,0,0,1-5.25-1.41L441.61,294a5.5,5.5,0,0,1,0-9.53l38-21.91a10.53,10.53,0,0,1,10.5,0L528,284.49a5.5,5.5,0,0,1,0,9.53l-38,21.91A10.44,10.44,0,0,1,484.81,317.34Zm-42.7-24.18,37.95,21.91a9.53,9.53,0,0,0,9.5,0l38-21.92a4.5,4.5,0,0,0,0-7.79l-37.95-21.91a9.49,9.49,0,0,0-9.5,0l-38,21.91a4.5,4.5,0,0,0,0,7.8Z"/></g><g class="cls-1"><path class="cls-2" d="M387.45,184.2a10.56,10.56,0,0,1-5.25-1.4l-37.95-21.91a5.5,5.5,0,0,1,0-9.53l38-21.92a10.51,10.51,0,0,1,10.49,0l38,21.92a5.49,5.49,0,0,1,0,9.52l-38,21.92A10.54,10.54,0,0,1,387.45,184.2Zm0-55.16a9.41,9.41,0,0,0-4.74,1.27l-38,21.91a4.5,4.5,0,0,0,0,7.8l37.95,21.91a9.53,9.53,0,0,0,9.5,0l38-21.91a4.51,4.51,0,0,0,0-7.8l-38-21.91A9.42,9.42,0,0,0,387.45,129Z"/></g><g class="cls-1"><path class="cls-2" d="M285.3,64.72a10.43,10.43,0,0,1-5.25-1.4l-38-21.91a5.5,5.5,0,0,1,0-9.53l38-21.91a10.53,10.53,0,0,1,10.5,0L328.5,31.88a5.5,5.5,0,0,1,0,9.53L290.55,63.32A10.46,10.46,0,0,1,285.3,64.72ZM242.6,40.55l38,21.91a9.53,9.53,0,0,0,9.5,0L328,40.54a4.5,4.5,0,0,0,0-7.79L290.05,10.83a9.53,9.53,0,0,0-9.5,0l-38,21.92a4.51,4.51,0,0,0,0,7.8Z"/></g><g class="cls-1"><path class="cls-2" d="M333.31,34.3a10.46,10.46,0,0,1-5.25-1.4L290.11,11a5.5,5.5,0,0,1,0-9.53l38-21.91a10.51,10.51,0,0,1,10.49,0l38,21.91a5.5,5.5,0,0,1,0,9.53l-38,21.91A10.43,10.43,0,0,1,333.31,34.3Zm-42.7-24.18L328.56,32a9.53,9.53,0,0,0,9.5,0l38-21.92a4.5,4.5,0,0,0,0-7.8l-38-21.91a9.52,9.52,0,0,0-9.49,0l-38,21.92a4.5,4.5,0,0,0,0,7.79Z"/></g><g class="cls-1"><path class="cls-2" d="M13.39,287.32a10.46,10.46,0,0,1-5.25-1.4L-29.81,264a5.46,5.46,0,0,1-2.75-4.77,5.44,5.44,0,0,1,2.75-4.76l38-21.91a10.53,10.53,0,0,1,10.5,0l38,21.91a5.49,5.49,0,0,1,0,9.53L18.64,285.92A10.43,10.43,0,0,1,13.39,287.32Zm-42.7-24.18,38,21.92a9.53,9.53,0,0,0,9.5,0l38-21.92a4.5,4.5,0,0,0,0-7.8L18.14,233.43a9.53,9.53,0,0,0-9.5,0l-37.95,21.91a4.47,4.47,0,0,0-2.25,3.9,4.45,4.45,0,0,0,2.25,3.9Z"/></g><g class="cls-1"><path class="cls-2" d="M730.35,284a10.56,10.56,0,0,1-5.25-1.4l-38-21.91a5.5,5.5,0,0,1,0-9.53l38-21.91a10.53,10.53,0,0,1,10.5,0l37.95,21.91a5.49,5.49,0,0,1,0,9.53L735.6,282.61A10.54,10.54,0,0,1,730.35,284Zm-42.7-24.18,38,21.91a9.53,9.53,0,0,0,9.5,0l37.95-21.91a4.5,4.5,0,0,0,0-7.8L735.1,230.12a9.53,9.53,0,0,0-9.5,0l-38,21.91a4.5,4.5,0,0,0,0,7.8Z"/></g><g class="cls-1"><path class="cls-2" d="M779.41,314a10.46,10.46,0,0,1-5.25-1.4l-37.95-21.91a5.5,5.5,0,0,1,0-9.53l37.95-21.91a10.53,10.53,0,0,1,10.5,0l38,21.91a5.5,5.5,0,0,1,0,9.53l-38,21.91A10.43,10.43,0,0,1,779.41,314Zm-42.7-24.17,37.95,21.91a9.53,9.53,0,0,0,9.5,0l38-21.92a4.5,4.5,0,0,0,0-7.79l-38-21.92a9.53,9.53,0,0,0-9.5,0l-37.95,21.92a4.5,4.5,0,0,0,0,7.8Z"/></g><g class="cls-1"><path class="cls-2" d="M503.56,39.62a10.46,10.46,0,0,1-5.25-1.4L460.36,16.31a5.5,5.5,0,0,1,0-9.53l38-21.91a10.53,10.53,0,0,1,10.5,0L546.77,6.78a5.5,5.5,0,0,1,0,9.53l-38,21.91A10.41,10.41,0,0,1,503.56,39.62Zm0-55.16a9.53,9.53,0,0,0-4.75,1.27l-38,21.92a4.5,4.5,0,0,0,0,7.79l37.95,21.91a9.49,9.49,0,0,0,9.5,0l38-21.91a4.51,4.51,0,0,0,0-7.8L508.32-14.27A9.58,9.58,0,0,0,503.57-15.54Z"/></g><g class="cls-3"><path class="cls-2" d="M720.81,70.4a10.46,10.46,0,0,1-5.25-1.4L677.61,47.09a5.5,5.5,0,0,1,0-9.53l38-21.91a10.51,10.51,0,0,1,10.49,0l38,21.91a5.5,5.5,0,0,1,0,9.53L726.06,69A10.43,10.43,0,0,1,720.81,70.4Zm-42.7-24.18,37.95,21.92a9.53,9.53,0,0,0,9.5,0l38-21.92a4.51,4.51,0,0,0,0-7.8l-38-21.91a9.52,9.52,0,0,0-9.49,0l-38,21.92a4.5,4.5,0,0,0,0,7.79Z"/></g><g class="cls-1"><path class="cls-2" d="M768.24,39.62a10.43,10.43,0,0,1-5.25-1.4L725,16.31a5.5,5.5,0,0,1,0-9.53l38-21.91a10.53,10.53,0,0,1,10.5,0l38,21.91a5.5,5.5,0,0,1,0,9.53l-38,21.91A10.46,10.46,0,0,1,768.24,39.62Zm0-55.16a9.55,9.55,0,0,0-4.75,1.27l-38,21.92a4.5,4.5,0,0,0,0,7.79l38,21.91a9.49,9.49,0,0,0,9.5,0l38-21.91a4.51,4.51,0,0,0,0-7.8L773-14.27A9.58,9.58,0,0,0,768.24-15.54Z"/></g></g></svg>