<svg width="40" height="40" viewBox="0 0 40 40" fill="none" xmlns="http://www.w3.org/2000/svg">
<path d="M6 15H34V10.5556C34 8.59188 32.433 7 30.5 7H9.5C7.567 7 6 8.59188 6 10.5556V15Z" fill="white"/>
<path fill-rule="evenodd" clip-rule="evenodd" d="M33 17H7V29.6316C7 31.4919 8.55208 33 10.4667 33H29.5333C31.4479 33 33 31.4919 33 29.6316V17ZM15.8007 18.7778C15.0428 18.7778 14.4285 19.3747 14.4285 20.1112C14.4285 20.8475 15.0428 21.4445 15.8007 21.4445H24.1991C24.9569 21.4445 25.5713 20.8475 25.5713 20.1112C25.5713 19.3747 24.957 18.7778 24.1991 18.7778H15.8007Z" fill="white"/>
</svg>
