<svg width="766" height="80" viewBox="0 0 766 80" fill="none" xmlns="http://www.w3.org/2000/svg">
<path d="M0 8C0 3.58172 3.58172 0 8 0H758C762.418 0 766 3.58172 766 8V72C766 76.4183 762.418 80 758 80H8C3.58172 80 0 76.4183 0 72V8Z" fill="url(#paint0_linear_15_33839)"/>
<path d="M45.8701 63V49.914H47.5801L52.5121 59.994L57.3361 49.914H59.0461V63H57.4261V52.956L53.1601 61.74H51.7561L47.4901 53.064V63H45.8701ZM65.7161 63.198C64.3001 63.198 63.2021 62.766 62.4221 61.902C61.6421 61.026 61.2521 59.826 61.2521 58.302C61.2521 56.766 61.6421 55.566 62.4221 54.702C63.2021 53.838 64.3001 53.406 65.7161 53.406C67.1441 53.406 68.2481 53.838 69.0281 54.702C69.8081 55.566 70.1981 56.766 70.1981 58.302C70.1981 59.826 69.8081 61.026 69.0281 61.902C68.2481 62.766 67.1441 63.198 65.7161 63.198ZM65.7161 61.866C66.6401 61.866 67.3421 61.566 67.8221 60.966C68.3021 60.354 68.5421 59.466 68.5421 58.302C68.5421 57.138 68.3021 56.256 67.8221 55.656C67.3421 55.044 66.6401 54.738 65.7161 54.738C64.8041 54.738 64.1081 55.044 63.6281 55.656C63.1481 56.256 62.9081 57.138 62.9081 58.302C62.9081 59.466 63.1481 60.354 63.6281 60.966C64.1081 61.566 64.8041 61.866 65.7161 61.866ZM72.3051 63V53.604H73.4031L73.7271 55.368C74.3391 54.18 75.2151 53.586 76.3551 53.586C76.5951 53.586 76.8051 53.604 76.9851 53.64V55.062H76.5711C75.8871 55.062 75.3171 55.254 74.8611 55.638C74.4051 56.022 74.0931 56.58 73.9251 57.312V63H72.3051ZM85.7076 62.532C85.3716 62.736 84.9216 62.898 84.3576 63.018C83.8056 63.138 83.1996 63.198 82.5396 63.198C81.0516 63.198 79.9236 62.778 79.1556 61.938C78.3996 61.086 78.0216 59.844 78.0216 58.212C78.0216 56.64 78.3816 55.446 79.1016 54.63C79.8336 53.814 80.8776 53.406 82.2336 53.406C84.8496 53.406 86.1576 54.852 86.1576 57.744V58.788H79.6596C79.7316 59.844 80.0136 60.618 80.5056 61.11C80.9976 61.59 81.7296 61.83 82.7016 61.83C83.2416 61.83 83.7516 61.776 84.2316 61.668C84.7116 61.56 85.2036 61.392 85.7076 61.164V62.532ZM82.2336 54.738C81.4416 54.738 80.8236 54.978 80.3796 55.458C79.9476 55.926 79.7076 56.61 79.6596 57.51H84.5916C84.5916 56.526 84.4056 55.818 84.0336 55.386C83.6736 54.954 83.0736 54.738 82.2336 54.738ZM92.6254 63V53.604H93.7234L94.0474 55.368C94.6594 54.18 95.5354 53.586 96.6754 53.586C96.9154 53.586 97.1254 53.604 97.3054 53.64V55.062H96.8914C96.2074 55.062 95.6374 55.254 95.1814 55.638C94.7254 56.022 94.4134 56.58 94.2454 57.312V63H92.6254ZM106.028 62.532C105.692 62.736 105.242 62.898 104.678 63.018C104.126 63.138 103.52 63.198 102.86 63.198C101.372 63.198 100.244 62.778 99.4759 61.938C98.7199 61.086 98.3419 59.844 98.3419 58.212C98.3419 56.64 98.7019 55.446 99.4219 54.63C100.154 53.814 101.198 53.406 102.554 53.406C105.17 53.406 106.478 54.852 106.478 57.744V58.788H99.9799C100.052 59.844 100.334 60.618 100.826 61.11C101.318 61.59 102.05 61.83 103.022 61.83C103.562 61.83 104.072 61.776 104.552 61.668C105.032 61.56 105.524 61.392 106.028 61.164V62.532ZM102.554 54.738C101.762 54.738 101.144 54.978 100.7 55.458C100.268 55.926 100.028 56.61 99.9799 57.51H104.912C104.912 56.526 104.726 55.818 104.354 55.386C103.994 54.954 103.394 54.738 102.554 54.738ZM115.333 61.2V62.532C114.589 62.976 113.647 63.198 112.507 63.198C111.055 63.198 109.957 62.778 109.213 61.938C108.481 61.086 108.115 59.838 108.115 58.194C108.115 56.67 108.505 55.494 109.285 54.666C110.065 53.826 111.169 53.406 112.597 53.406C113.485 53.406 114.307 53.604 115.063 54V55.332C114.271 54.936 113.533 54.738 112.849 54.738C110.797 54.738 109.771 55.89 109.771 58.194C109.771 59.442 110.005 60.366 110.473 60.966C110.953 61.566 111.703 61.866 112.723 61.866C113.131 61.866 113.545 61.812 113.965 61.704C114.385 61.596 114.841 61.428 115.333 61.2ZM124.397 62.532C124.061 62.736 123.611 62.898 123.047 63.018C122.495 63.138 121.889 63.198 121.229 63.198C119.741 63.198 118.613 62.778 117.845 61.938C117.089 61.086 116.711 59.844 116.711 58.212C116.711 56.64 117.071 55.446 117.791 54.63C118.523 53.814 119.567 53.406 120.923 53.406C123.539 53.406 124.847 54.852 124.847 57.744V58.788H118.349C118.421 59.844 118.703 60.618 119.195 61.11C119.687 61.59 120.419 61.83 121.391 61.83C121.931 61.83 122.441 61.776 122.921 61.668C123.401 61.56 123.893 61.392 124.397 61.164V62.532ZM120.923 54.738C120.131 54.738 119.513 54.978 119.069 55.458C118.637 55.926 118.397 56.61 118.349 57.51H123.281C123.281 56.526 123.095 55.818 122.723 55.386C122.363 54.954 121.763 54.738 120.923 54.738ZM126.903 63V53.604H128.001L128.289 55.206C128.685 54.63 129.171 54.186 129.747 53.874C130.323 53.562 130.971 53.406 131.691 53.406C132.771 53.406 133.599 53.73 134.175 54.378C134.751 55.026 135.039 55.962 135.039 57.186V63H133.419V57.24C133.419 55.608 132.711 54.792 131.295 54.792C130.695 54.792 130.143 54.978 129.639 55.35C129.147 55.71 128.775 56.202 128.523 56.826V63H126.903ZM137.949 60.138V54.936H136.329V54.108L137.949 53.568L138.597 51.012H139.569V53.604H141.603V54.936H139.569V60.12C139.569 61.152 140.013 61.668 140.901 61.668C141.045 61.668 141.183 61.662 141.315 61.65C141.459 61.626 141.591 61.608 141.711 61.596V63C141.543 63.036 141.369 63.06 141.189 63.072C141.021 63.084 140.841 63.09 140.649 63.09C139.725 63.09 139.041 62.85 138.597 62.37C138.165 61.89 137.949 61.146 137.949 60.138ZM150.729 63L147.039 53.604H148.731L151.449 61.056L154.149 53.604H155.805L152.097 63H150.729ZM164.317 62.532C163.981 62.736 163.531 62.898 162.967 63.018C162.415 63.138 161.809 63.198 161.149 63.198C159.661 63.198 158.533 62.778 157.765 61.938C157.009 61.086 156.631 59.844 156.631 58.212C156.631 56.64 156.991 55.446 157.711 54.63C158.443 53.814 159.487 53.406 160.843 53.406C163.459 53.406 164.767 54.852 164.767 57.744V58.788H158.269C158.341 59.844 158.623 60.618 159.115 61.11C159.607 61.59 160.339 61.83 161.311 61.83C161.851 61.83 162.361 61.776 162.841 61.668C163.321 61.56 163.813 61.392 164.317 61.164V62.532ZM160.843 54.738C160.051 54.738 159.433 54.978 158.989 55.458C158.557 55.926 158.317 56.61 158.269 57.51H163.201C163.201 56.526 163.015 55.818 162.643 55.386C162.283 54.954 161.683 54.738 160.843 54.738ZM166.823 63V53.604H167.921L168.245 55.368C168.857 54.18 169.733 53.586 170.873 53.586C171.113 53.586 171.323 53.604 171.503 53.64V55.062H171.089C170.405 55.062 169.835 55.254 169.379 55.638C168.923 56.022 168.611 56.58 168.443 57.312V63H166.823ZM172.981 62.532V61.164C173.545 61.404 174.055 61.578 174.511 61.686C174.979 61.794 175.471 61.848 175.987 61.848C177.547 61.848 178.327 61.38 178.327 60.444C178.327 60.072 178.213 59.784 177.985 59.58C177.757 59.364 177.355 59.178 176.779 59.022L175.303 58.626C174.439 58.386 173.809 58.062 173.413 57.654C173.017 57.234 172.819 56.7 172.819 56.052C172.819 55.236 173.137 54.594 173.773 54.126C174.421 53.646 175.291 53.406 176.383 53.406C176.983 53.406 177.529 53.454 178.021 53.55C178.513 53.646 178.939 53.778 179.299 53.946V55.314C178.375 54.942 177.439 54.756 176.491 54.756C175.123 54.756 174.439 55.152 174.439 55.944C174.439 56.28 174.541 56.55 174.745 56.754C174.961 56.946 175.333 57.114 175.861 57.258L177.355 57.654C178.267 57.894 178.927 58.23 179.335 58.662C179.743 59.082 179.947 59.652 179.947 60.372C179.947 61.248 179.605 61.938 178.921 62.442C178.237 62.946 177.289 63.198 176.077 63.198C175.501 63.198 174.937 63.138 174.385 63.018C173.833 62.898 173.365 62.736 172.981 62.532ZM181.636 51.426V49.968H183.616V51.426H181.636ZM182.014 63V54.864L181.078 54.27V53.604H183.634V63H182.014ZM190.204 63.198C188.788 63.198 187.69 62.766 186.91 61.902C186.13 61.026 185.74 59.826 185.74 58.302C185.74 56.766 186.13 55.566 186.91 54.702C187.69 53.838 188.788 53.406 190.204 53.406C191.632 53.406 192.736 53.838 193.516 54.702C194.296 55.566 194.686 56.766 194.686 58.302C194.686 59.826 194.296 61.026 193.516 61.902C192.736 62.766 191.632 63.198 190.204 63.198ZM190.204 61.866C191.128 61.866 191.83 61.566 192.31 60.966C192.79 60.354 193.03 59.466 193.03 58.302C193.03 57.138 192.79 56.256 192.31 55.656C191.83 55.044 191.128 54.738 190.204 54.738C189.292 54.738 188.596 55.044 188.116 55.656C187.636 56.256 187.396 57.138 187.396 58.302C187.396 59.466 187.636 60.354 188.116 60.966C188.596 61.566 189.292 61.866 190.204 61.866ZM196.793 63V53.604H197.891L198.179 55.206C198.575 54.63 199.061 54.186 199.637 53.874C200.213 53.562 200.861 53.406 201.581 53.406C202.661 53.406 203.489 53.73 204.065 54.378C204.641 55.026 204.929 55.962 204.929 57.186V63H203.309V57.24C203.309 55.608 202.601 54.792 201.185 54.792C200.585 54.792 200.033 54.978 199.529 55.35C199.037 55.71 198.665 56.202 198.413 56.826V63H196.793ZM215.816 63.198C214.4 63.198 213.302 62.766 212.522 61.902C211.742 61.026 211.352 59.826 211.352 58.302C211.352 56.766 211.742 55.566 212.522 54.702C213.302 53.838 214.4 53.406 215.816 53.406C217.244 53.406 218.348 53.838 219.128 54.702C219.908 55.566 220.298 56.766 220.298 58.302C220.298 59.826 219.908 61.026 219.128 61.902C218.348 62.766 217.244 63.198 215.816 63.198ZM215.816 61.866C216.74 61.866 217.442 61.566 217.922 60.966C218.402 60.354 218.642 59.466 218.642 58.302C218.642 57.138 218.402 56.256 217.922 55.656C217.442 55.044 216.74 54.738 215.816 54.738C214.904 54.738 214.208 55.044 213.728 55.656C213.248 56.256 213.008 57.138 213.008 58.302C213.008 59.466 213.248 60.354 213.728 60.966C214.208 61.566 214.904 61.866 215.816 61.866ZM222.927 63V54.936H221.307V54.108L222.927 53.568V52.524C222.927 50.412 223.935 49.356 225.951 49.356C226.167 49.356 226.401 49.38 226.653 49.428V50.688C226.509 50.664 226.317 50.652 226.077 50.652C225.525 50.652 225.129 50.802 224.889 51.102C224.661 51.39 224.547 51.858 224.547 52.506V53.604H226.725V54.936H224.547V63H222.927ZM233.398 60.138V54.936H231.778V54.108L233.398 53.568L234.046 51.012H235.018V53.604H237.052V54.936H235.018V60.12C235.018 61.152 235.462 61.668 236.35 61.668C236.494 61.668 236.632 61.662 236.764 61.65C236.908 61.626 237.04 61.608 237.16 61.596V63C236.992 63.036 236.818 63.06 236.638 63.072C236.47 63.084 236.29 63.09 236.098 63.09C235.174 63.09 234.49 62.85 234.046 62.37C233.614 61.89 233.398 61.146 233.398 60.138ZM239.174 63V49.482H240.794V54.972C241.166 54.48 241.616 54.096 242.144 53.82C242.684 53.544 243.29 53.406 243.962 53.406C245.042 53.406 245.87 53.73 246.446 54.378C247.022 55.026 247.31 55.962 247.31 57.186V63H245.69V57.24C245.69 55.608 244.982 54.792 243.566 54.792C242.966 54.792 242.414 54.978 241.91 55.35C241.418 55.71 241.046 56.202 240.794 56.826V63H239.174ZM249.68 51.426V49.968H251.66V51.426H249.68ZM250.058 63V54.864L249.122 54.27V53.604H251.678V63H250.058ZM253.875 62.532V61.164C254.439 61.404 254.949 61.578 255.405 61.686C255.873 61.794 256.365 61.848 256.881 61.848C258.441 61.848 259.221 61.38 259.221 60.444C259.221 60.072 259.107 59.784 258.879 59.58C258.651 59.364 258.249 59.178 257.673 59.022L256.197 58.626C255.333 58.386 254.703 58.062 254.307 57.654C253.911 57.234 253.713 56.7 253.713 56.052C253.713 55.236 254.031 54.594 254.667 54.126C255.315 53.646 256.185 53.406 257.277 53.406C257.877 53.406 258.423 53.454 258.915 53.55C259.407 53.646 259.833 53.778 260.193 53.946V55.314C259.269 54.942 258.333 54.756 257.385 54.756C256.017 54.756 255.333 55.152 255.333 55.944C255.333 56.28 255.435 56.55 255.639 56.754C255.855 56.946 256.227 57.114 256.755 57.258L258.249 57.654C259.161 57.894 259.821 58.23 260.229 58.662C260.637 59.082 260.841 59.652 260.841 60.372C260.841 61.248 260.499 61.938 259.815 62.442C259.131 62.946 258.183 63.198 256.971 63.198C256.395 63.198 255.831 63.138 255.279 63.018C254.727 62.898 254.259 62.736 253.875 62.532ZM266.978 61.866L266.654 60.93L268.076 58.734C267.5 58.17 267.212 57.45 267.212 56.574C267.212 55.578 267.554 54.804 268.238 54.252C268.934 53.688 269.894 53.406 271.118 53.406C271.742 53.406 272.306 53.496 272.81 53.676L275.834 53.64V54.45L274.574 54.846C275.042 55.302 275.276 55.896 275.276 56.628C275.276 57.612 274.916 58.38 274.196 58.932C273.488 59.484 272.504 59.76 271.244 59.76C270.464 59.76 269.78 59.646 269.192 59.418L268.382 60.678L272.972 61.308C273.968 61.44 274.694 61.716 275.15 62.136C275.618 62.556 275.852 63.132 275.852 63.864C275.852 64.776 275.438 65.496 274.61 66.024C273.794 66.552 272.672 66.816 271.244 66.816C269.804 66.816 268.694 66.582 267.914 66.114C267.146 65.658 266.762 64.998 266.762 64.134C266.762 63.318 267.14 62.604 267.896 61.992L266.978 61.866ZM268.76 56.574C268.76 57.858 269.588 58.5 271.244 58.5C272.9 58.5 273.728 57.858 273.728 56.574C273.728 55.29 272.9 54.648 271.244 54.648C269.588 54.648 268.76 55.29 268.76 56.574ZM268.346 63.846C268.346 64.974 269.312 65.538 271.244 65.538C272.168 65.538 272.894 65.388 273.422 65.088C273.962 64.8 274.232 64.41 274.232 63.918C274.232 63.546 274.118 63.264 273.89 63.072C273.674 62.88 273.284 62.742 272.72 62.658L269.156 62.172C268.616 62.64 268.346 63.198 268.346 63.846ZM277.545 59.418V53.604H279.165V59.364C279.165 60.168 279.339 60.786 279.687 61.218C280.035 61.65 280.545 61.866 281.217 61.866C281.781 61.866 282.309 61.674 282.801 61.29C283.305 60.894 283.683 60.372 283.935 59.724V53.604H285.555V63H284.457L284.169 61.398C283.785 61.974 283.299 62.418 282.711 62.73C282.135 63.042 281.505 63.198 280.821 63.198C279.777 63.198 278.967 62.874 278.391 62.226C277.827 61.578 277.545 60.642 277.545 59.418ZM288.018 51.426V49.968H289.998V51.426H288.018ZM288.396 63V54.864L287.46 54.27V53.604H290.016V63H288.396ZM299.539 63L299.269 61.488C298.909 62.028 298.447 62.448 297.883 62.748C297.331 63.048 296.731 63.198 296.083 63.198C294.847 63.198 293.875 62.766 293.167 61.902C292.471 61.038 292.123 59.844 292.123 58.32C292.123 56.772 292.471 55.566 293.167 54.702C293.875 53.838 294.859 53.406 296.119 53.406C296.647 53.406 297.163 53.508 297.667 53.712C298.171 53.916 298.621 54.204 299.017 54.576V49.482H300.637V63H299.539ZM293.779 58.302C293.779 59.442 294.001 60.324 294.445 60.948C294.889 61.572 295.519 61.884 296.335 61.884C296.899 61.884 297.415 61.734 297.883 61.434C298.363 61.122 298.741 60.702 299.017 60.174V55.998C298.285 55.146 297.415 54.72 296.407 54.72C295.567 54.72 294.919 55.026 294.463 55.638C294.007 56.25 293.779 57.138 293.779 58.302ZM310.426 62.532C310.09 62.736 309.64 62.898 309.076 63.018C308.524 63.138 307.918 63.198 307.258 63.198C305.77 63.198 304.642 62.778 303.874 61.938C303.118 61.086 302.74 59.844 302.74 58.212C302.74 56.64 303.1 55.446 303.82 54.63C304.552 53.814 305.596 53.406 306.952 53.406C309.568 53.406 310.876 54.852 310.876 57.744V58.788H304.378C304.45 59.844 304.732 60.618 305.224 61.11C305.716 61.59 306.448 61.83 307.42 61.83C307.96 61.83 308.47 61.776 308.95 61.668C309.43 61.56 309.922 61.392 310.426 61.164V62.532ZM306.952 54.738C306.16 54.738 305.542 54.978 305.098 55.458C304.666 55.926 304.426 56.61 304.378 57.51H309.31C309.31 56.526 309.124 55.818 308.752 55.386C308.392 54.954 307.792 54.738 306.952 54.738ZM317.11 51.426V49.968H319.09V51.426H317.11ZM317.488 63V54.864L316.552 54.27V53.604H319.108V63H317.488ZM321.305 62.532V61.164C321.869 61.404 322.379 61.578 322.835 61.686C323.303 61.794 323.795 61.848 324.311 61.848C325.871 61.848 326.651 61.38 326.651 60.444C326.651 60.072 326.537 59.784 326.309 59.58C326.081 59.364 325.679 59.178 325.103 59.022L323.627 58.626C322.763 58.386 322.133 58.062 321.737 57.654C321.341 57.234 321.143 56.7 321.143 56.052C321.143 55.236 321.461 54.594 322.097 54.126C322.745 53.646 323.615 53.406 324.707 53.406C325.307 53.406 325.853 53.454 326.345 53.55C326.837 53.646 327.263 53.778 327.623 53.946V55.314C326.699 54.942 325.763 54.756 324.815 54.756C323.447 54.756 322.763 55.152 322.763 55.944C322.763 56.28 322.865 56.55 323.069 56.754C323.285 56.946 323.657 57.114 324.185 57.258L325.679 57.654C326.591 57.894 327.251 58.23 327.659 58.662C328.067 59.082 328.271 59.652 328.271 60.372C328.271 61.248 327.929 61.938 327.245 62.442C326.561 62.946 325.613 63.198 324.401 63.198C323.825 63.198 323.261 63.138 322.709 63.018C322.157 62.898 321.689 62.736 321.305 62.532ZM340.474 63L340.204 61.488C339.436 62.628 338.392 63.198 337.072 63.198C336.124 63.198 335.362 62.934 334.786 62.406C334.222 61.866 333.94 61.152 333.94 60.264C333.94 59.28 334.276 58.518 334.948 57.978C335.632 57.426 336.58 57.15 337.792 57.15H339.952V56.556C339.952 55.884 339.802 55.41 339.502 55.134C339.214 54.858 338.716 54.72 338.008 54.72C337.552 54.72 337.066 54.774 336.55 54.882C336.034 54.978 335.452 55.14 334.804 55.368V54.054C335.26 53.85 335.782 53.694 336.37 53.586C336.958 53.466 337.51 53.406 338.026 53.406C340.39 53.406 341.572 54.456 341.572 56.556V63H340.474ZM337.27 61.902C337.822 61.902 338.338 61.746 338.818 61.434C339.298 61.11 339.682 60.672 339.97 60.12V58.338H337.954C337.138 58.338 336.532 58.488 336.136 58.788C335.752 59.076 335.56 59.526 335.56 60.138C335.56 60.678 335.71 61.11 336.01 61.434C336.322 61.746 336.742 61.902 337.27 61.902ZM346.426 63L342.736 53.604H344.428L347.146 61.056L349.846 53.604H351.502L347.794 63H346.426ZM358.79 63L358.52 61.488C357.752 62.628 356.708 63.198 355.388 63.198C354.44 63.198 353.678 62.934 353.102 62.406C352.538 61.866 352.256 61.152 352.256 60.264C352.256 59.28 352.592 58.518 353.264 57.978C353.948 57.426 354.896 57.15 356.108 57.15H358.268V56.556C358.268 55.884 358.118 55.41 357.818 55.134C357.53 54.858 357.032 54.72 356.324 54.72C355.868 54.72 355.382 54.774 354.866 54.882C354.35 54.978 353.768 55.14 353.12 55.368V54.054C353.576 53.85 354.098 53.694 354.686 53.586C355.274 53.466 355.826 53.406 356.342 53.406C358.706 53.406 359.888 54.456 359.888 56.556V63H358.79ZM355.586 61.902C356.138 61.902 356.654 61.746 357.134 61.434C357.614 61.11 357.998 60.672 358.286 60.12V58.338H356.27C355.454 58.338 354.848 58.488 354.452 58.788C354.068 59.076 353.876 59.526 353.876 60.138C353.876 60.678 354.026 61.11 354.326 61.434C354.638 61.746 355.058 61.902 355.586 61.902ZM362.268 51.426V49.968H364.248V51.426H362.268ZM362.646 63V54.864L361.71 54.27V53.604H364.266V63H362.646ZM366.967 63V50.742L366.031 50.148V49.482H368.587V63H366.967ZM377.159 63L376.889 61.488C376.121 62.628 375.077 63.198 373.757 63.198C372.809 63.198 372.047 62.934 371.471 62.406C370.907 61.866 370.625 61.152 370.625 60.264C370.625 59.28 370.961 58.518 371.633 57.978C372.317 57.426 373.265 57.15 374.477 57.15H376.637V56.556C376.637 55.884 376.487 55.41 376.187 55.134C375.899 54.858 375.401 54.72 374.693 54.72C374.237 54.72 373.751 54.774 373.235 54.882C372.719 54.978 372.137 55.14 371.489 55.368V54.054C371.945 53.85 372.467 53.694 373.055 53.586C373.643 53.466 374.195 53.406 374.711 53.406C377.075 53.406 378.257 54.456 378.257 56.556V63H377.159ZM373.955 61.902C374.507 61.902 375.023 61.746 375.503 61.434C375.983 61.11 376.367 60.672 376.655 60.12V58.338H374.639C373.823 58.338 373.217 58.488 372.821 58.788C372.437 59.076 372.245 59.526 372.245 60.138C372.245 60.678 372.395 61.11 372.695 61.434C373.007 61.746 373.427 61.902 373.955 61.902ZM380.817 62.568V49.482H382.437V54.594C383.229 53.802 384.159 53.406 385.227 53.406C386.475 53.406 387.435 53.82 388.107 54.648C388.779 55.476 389.115 56.664 389.115 58.212C389.115 59.772 388.689 60.996 387.837 61.884C386.985 62.76 385.797 63.198 384.273 63.198C383.685 63.198 383.067 63.138 382.419 63.018C381.771 62.91 381.237 62.76 380.817 62.568ZM384.921 54.702C384.489 54.702 384.051 54.81 383.607 55.026C383.175 55.242 382.785 55.548 382.437 55.944V61.632C382.677 61.704 382.947 61.764 383.247 61.812C383.547 61.848 383.877 61.866 384.237 61.866C386.385 61.866 387.459 60.642 387.459 58.194C387.459 57.054 387.243 56.19 386.811 55.602C386.391 55.002 385.761 54.702 384.921 54.702ZM391.049 63V50.742L390.113 50.148V49.482H392.669V63H391.049ZM402.465 62.532C402.129 62.736 401.679 62.898 401.115 63.018C400.563 63.138 399.957 63.198 399.297 63.198C397.809 63.198 396.681 62.778 395.913 61.938C395.157 61.086 394.779 59.844 394.779 58.212C394.779 56.64 395.139 55.446 395.859 54.63C396.591 53.814 397.635 53.406 398.991 53.406C401.607 53.406 402.915 54.852 402.915 57.744V58.788H396.417C396.489 59.844 396.771 60.618 397.263 61.11C397.755 61.59 398.487 61.83 399.459 61.83C399.999 61.83 400.509 61.776 400.989 61.668C401.469 61.56 401.961 61.392 402.465 61.164V62.532ZM398.991 54.738C398.199 54.738 397.581 54.978 397.137 55.458C396.705 55.926 396.465 56.61 396.417 57.51H401.349C401.349 56.526 401.163 55.818 400.791 55.386C400.431 54.954 399.831 54.738 398.991 54.738Z" fill="#585858"/>
<path d="M73.278 31V17.914H75.87L81.522 26.428V17.914H84.294V31H81.702L76.05 22.468V31H73.278ZM91.0063 31.216C89.5183 31.216 88.3543 30.778 87.5143 29.902C86.6863 29.026 86.2723 27.802 86.2723 26.23C86.2723 24.658 86.6863 23.44 87.5143 22.576C88.3543 21.7 89.5183 21.262 91.0063 21.262C92.5063 21.262 93.6703 21.7 94.4983 22.576C95.3263 23.44 95.7403 24.658 95.7403 26.23C95.7403 27.802 95.3263 29.026 94.4983 29.902C93.6703 30.778 92.5063 31.216 91.0063 31.216ZM91.0063 29.146C92.3263 29.146 92.9863 28.174 92.9863 26.23C92.9863 24.298 92.3263 23.332 91.0063 23.332C89.6863 23.332 89.0263 24.298 89.0263 26.23C89.0263 28.174 89.6863 29.146 91.0063 29.146ZM98.1076 27.724V23.53H96.4336V22.162L98.2336 21.424L99.0436 18.742H100.844V21.478H102.878V23.53H100.844V27.58C100.844 28.048 100.958 28.384 101.186 28.588C101.426 28.78 101.768 28.876 102.212 28.876C102.332 28.876 102.464 28.876 102.608 28.876C102.752 28.864 102.878 28.852 102.986 28.84V31.018C102.698 31.066 102.434 31.096 102.194 31.108C101.966 31.12 101.708 31.126 101.42 31.126C100.328 31.126 99.4996 30.85 98.9356 30.298C98.3836 29.746 98.1076 28.888 98.1076 27.724ZM112.449 30.55C111.525 30.994 110.421 31.216 109.137 31.216C107.505 31.216 106.251 30.79 105.375 29.938C104.499 29.074 104.061 27.832 104.061 26.212C104.061 24.664 104.481 23.452 105.321 22.576C106.173 21.7 107.343 21.262 108.831 21.262C110.151 21.262 111.159 21.646 111.855 22.414C112.551 23.182 112.899 24.244 112.899 25.6V26.986H106.779C106.887 27.73 107.151 28.27 107.571 28.606C108.003 28.942 108.621 29.11 109.425 29.11C109.929 29.11 110.409 29.068 110.865 28.984C111.333 28.888 111.861 28.726 112.449 28.498V30.55ZM108.795 23.242C107.511 23.242 106.821 23.896 106.725 25.204H110.469C110.445 24.592 110.283 24.112 109.983 23.764C109.683 23.416 109.287 23.242 108.795 23.242Z" fill="#585858"/>
<g clip-path="url(#clip0_15_33839)">
<path d="M54.25 31H49.75C49.336 31 49 30.664 49 30.25C49 29.836 49.336 29.5 49.75 29.5H54.25C54.664 29.5 55 29.836 55 30.25C55 30.664 54.664 31 54.25 31Z" fill="#F29111"/>
<path d="M52 13.457C51.586 13.457 51.25 13.121 51.25 12.707V10.75C51.25 10.336 51.586 10 52 10C52.414 10 52.75 10.336 52.75 10.75V12.707C52.75 13.121 52.414 13.457 52 13.457Z" fill="#F29111"/>
<path d="M58.5701 16.1789C58.3781 16.1789 58.1861 16.1059 58.0401 15.9589C57.7471 15.6659 57.7471 15.1909 58.0401 14.8979L59.4241 13.5139C59.7171 13.2209 60.1921 13.2209 60.4851 13.5139C60.7781 13.8069 60.7781 14.2819 60.4851 14.5749L59.1011 15.9589C58.9541 16.1049 58.7621 16.1789 58.5701 16.1789Z" fill="#F29111"/>
<path d="M63.25 22.75H61.293C60.879 22.75 60.543 22.414 60.543 22C60.543 21.586 60.879 21.25 61.293 21.25H63.25C63.664 21.25 64 21.586 64 22C64 22.414 63.664 22.75 63.25 22.75Z" fill="#F29111"/>
<path d="M59.9541 30.7051C59.7621 30.7051 59.5701 30.6321 59.4241 30.4851L58.0401 29.1011C57.7471 28.8081 57.7471 28.3331 58.0401 28.0401C58.3331 27.7471 58.8081 27.7471 59.1011 28.0401L60.4851 29.4241C60.7781 29.7171 60.7781 30.1921 60.4851 30.4851C60.3381 30.6321 60.1461 30.7051 59.9541 30.7051Z" fill="#F29111"/>
<path d="M44.0447 30.7051C43.8527 30.7051 43.6607 30.6321 43.5147 30.4851C43.2217 30.1921 43.2217 29.7171 43.5147 29.4241L44.8987 28.0401C45.1917 27.7471 45.6667 27.7471 45.9597 28.0401C46.2527 28.3331 46.2527 28.8081 45.9597 29.1011L44.5757 30.4851C44.4287 30.6321 44.2367 30.7051 44.0447 30.7051Z" fill="#F29111"/>
<path d="M42.707 22.75H40.75C40.336 22.75 40 22.414 40 22C40 21.586 40.336 21.25 40.75 21.25H42.707C43.121 21.25 43.457 21.586 43.457 22C43.457 22.414 43.121 22.75 42.707 22.75Z" fill="#F29111"/>
<path d="M45.4287 16.1789C45.2367 16.1789 45.0447 16.1059 44.8987 15.9589L43.5147 14.5749C43.2217 14.2819 43.2217 13.8069 43.5147 13.5139C43.8077 13.2209 44.2827 13.2209 44.5757 13.5139L45.9597 14.8979C46.2527 15.1909 46.2527 15.6659 45.9597 15.9589C45.8117 16.1049 45.6207 16.1789 45.4287 16.1789Z" fill="#F29111"/>
<path d="M55.75 22.5C55.336 22.5 55 22.164 55 21.75C55 20.233 53.767 19 52.25 19C51.836 19 51.5 18.664 51.5 18.25C51.5 17.836 51.836 17.5 52.25 17.5C54.593 17.5 56.5 19.407 56.5 21.75C56.5 22.164 56.164 22.5 55.75 22.5Z" fill="#F29111"/>
<path d="M53.2506 34H50.7506C49.9076 34 49.0006 33.36 49.0006 31.956V30.192C49.0006 29.131 48.5486 28.157 47.7916 27.587C45.6066 25.942 44.5956 23.236 45.1526 20.525C45.6976 17.869 47.8466 15.712 50.4996 15.157C52.6096 14.713 54.7676 15.227 56.4136 16.565C58.0576 17.901 59.0006 19.882 59.0006 22C59.0006 24.158 58.0256 26.161 56.3256 27.498C55.4836 28.16 55.0006 29.082 55.0006 30.027V32.25C55.0006 33.215 54.2156 34 53.2506 34ZM51.9866 16.502C51.5946 16.502 51.1996 16.543 50.8046 16.625C48.7286 17.059 47.0476 18.747 46.6206 20.826C46.1816 22.963 46.9756 25.095 48.6926 26.388C49.8236 27.24 50.4996 28.662 50.4996 30.192V31.956C50.4996 32.047 50.5116 32.5 50.7496 32.5H53.2496C53.3876 32.5 53.4996 32.388 53.4996 32.25V30.027C53.4996 28.618 54.1916 27.267 55.3976 26.318C56.7346 25.268 57.5006 23.694 57.5006 22C57.5006 20.336 56.7586 18.779 55.4666 17.729C54.4786 16.927 53.2536 16.502 51.9866 16.502Z" fill="#F29111"/>
</g>
<path d="M1 8C1 4.13401 4.13401 1 8 1H16V79H8C4.13401 79 1 75.866 1 72V8Z" fill="#4BA0B5"/>
<defs>
<linearGradient id="paint0_linear_15_33839" x1="120" y1="22.6667" x2="690.941" y2="447.799" gradientUnits="userSpaceOnUse">
<stop stop-color="#EBFAFF"/>
<stop offset="1" stop-color="#EBFAFF" stop-opacity="0"/>
</linearGradient>
<clipPath id="clip0_15_33839">
<rect width="24" height="24" fill="white" transform="translate(40 10)"/>
</clipPath>
</defs>
</svg>
