<svg xmlns="http://www.w3.org/2000/svg" xmlns:xlink="http://www.w3.org/1999/xlink" width="88.83" height="89" viewBox="0 0 88.83 89"><defs><path id="3ryya" d="M927.83 822.96v59.7a3.95 3.95 0 0 1-3.95 3.95h-15.8v17.43a3.95 3.95 0 0 1-3.94 3.96h-61.2a3.95 3.95 0 0 1-3.94-3.96v-61.3a3.95 3.95 0 0 1 3.95-3.96h15.79v-15.82a3.95 3.95 0 0 1 3.95-3.96h61.19a3.95 3.95 0 0 1 3.95 3.96zm-23.7 19.77h-61.18v61.31h61.19zm19.75-19.77h-61.2v15.82h41.46a3.95 3.95 0 0 1 3.95 3.95v39.92h15.79z"/><path id="3ryyb" d="M858.6 851.64v-4.33h4.32v4.33z"/><path id="3ryyc" d="M858.6 860.4v-4.33h4.32v4.33z"/><path id="3ryyd" d="M858.6 869.13v-4.33h4.32v4.33z"/><path id="3ryye" d="M858.6 877.82v-4.33h4.32v4.33z"/><path id="3ryyf" d="M858.6 886.55v-4.33h4.32v4.33z"/><path id="3ryyg" d="M867.25 886.55v-4.33h4.32v4.33z"/><path id="3ryyh" d="M875.89 886.55v-4.33h4.32v4.33z"/><path id="3ryyi" d="M884.53 886.55v-4.33h4.32v4.33z"/><path id="3ryyj" d="M893.17 886.55v-4.33h4.32v4.33z"/></defs><g><g transform="translate(-839 -819)"><g><use fill="#e7e8ed" xlink:href="#3ryya"/></g><g><g><use fill="#e7e8ed" xlink:href="#3ryyb"/></g><g><use fill="#e7e8ed" xlink:href="#3ryyc"/></g><g><use fill="#e7e8ed" xlink:href="#3ryyd"/></g><g><use fill="#e7e8ed" xlink:href="#3ryye"/></g><g><use fill="#e7e8ed" xlink:href="#3ryyf"/></g><g><use fill="#e7e8ed" xlink:href="#3ryyg"/></g><g><use fill="#e7e8ed" xlink:href="#3ryyh"/></g><g><use fill="#e7e8ed" xlink:href="#3ryyi"/></g><g><use fill="#e7e8ed" xlink:href="#3ryyj"/></g></g></g></g></svg>