<svg width="176" height="62" viewBox="0 0 176 62" fill="none" xmlns="http://www.w3.org/2000/svg">
<g filter="url(#filter0_d_1842_34469)">
<rect x="17" y="7" width="13" height="48" fill="url(#paint0_linear_1842_34469)" shape-rendering="crispEdges"/>
</g>
<rect x="16.3467" y="4" width="13" height="54" fill="white"/>
<g clip-path="url(#clip0_1842_34469)">
<path d="M11.3467 14H16.3467V22H11.3467V14Z" fill="#F29111"/>
<path d="M11.3467 14.5012C11.3465 14.0412 11.4376 13.5858 11.6146 13.1609C11.7916 12.736 12.0512 12.3499 12.3784 12.0247C12.7056 11.6996 13.0941 11.4417 13.5216 11.2659C13.9492 11.09 14.4074 10.9997 14.8701 11H16.3467V18H14.8701C14.4076 18.0003 13.9496 17.91 13.5222 17.7343C13.0948 17.5587 12.7064 17.301 12.3792 16.9761C12.052 16.6512 11.7924 16.2654 11.6153 15.8407C11.4381 15.4161 11.3468 14.9609 11.3467 14.5012Z" fill="#D07E11"/>
<path d="M11.3467 18V47.5624C11.3467 48.0142 11.4369 48.4616 11.6121 48.8789C11.7873 49.2963 12.0442 49.6754 12.3679 49.9947C12.6916 50.314 13.0759 50.5671 13.4988 50.7396C13.9217 50.9121 14.3748 51.0006 14.8324 51H174.606C174.941 51.0001 175.268 50.9051 175.549 50.7263C175.83 50.5475 176.053 50.2924 176.191 49.9917C176.33 49.691 176.377 49.3573 176.328 49.0307C176.279 48.704 176.136 48.3983 175.915 48.15L166.027 36.9888C165.415 36.3003 165.078 35.4157 165.078 34.5C165.078 33.5843 165.415 32.6997 166.027 32.0112L175.915 20.85C176.136 20.6017 176.279 20.296 176.328 19.9693C176.377 19.6427 176.33 19.309 176.191 19.0083C176.053 18.7076 175.83 18.4525 175.549 18.2737C175.268 18.0949 174.941 17.9999 174.606 18H11.3467Z" fill="#F29111"/>
<path d="M50.9531 30.5234H44.8594V32.9688H50.4531V34.9688H44.8594V37.9297H51.2344V40H42.5078V28.4844H50.9531V30.5234ZM52.0938 40L55 35.6875L52.2188 31.5H54.9453L56.3672 33.9688L57.7578 31.5H60.4062L57.6094 35.6484L60.5156 40H57.7422L56.2734 37.4453L54.7969 40H52.0938ZM67.7031 35.7422C67.7031 35.0859 67.5521 34.5052 67.25 34C66.9531 33.4948 66.4688 33.2422 65.7969 33.2422C64.9896 33.2422 64.4349 33.625 64.1328 34.3906C63.9766 34.7969 63.8984 35.3125 63.8984 35.9375C63.8984 36.9271 64.1615 37.6224 64.6875 38.0234C65 38.2578 65.3698 38.375 65.7969 38.375C66.4167 38.375 66.888 38.1354 67.2109 37.6562C67.5391 37.1771 67.7031 36.5391 67.7031 35.7422ZM66.4375 31.2969C67.4323 31.2969 68.2734 31.6641 68.9609 32.3984C69.6536 33.1328 70 34.2109 70 35.6328C70 37.1328 69.6615 38.276 68.9844 39.0625C68.3125 39.849 67.4453 40.2422 66.3828 40.2422C65.7057 40.2422 65.1432 40.0729 64.6953 39.7344C64.4505 39.5469 64.2109 39.2734 63.9766 38.9141V43.3516H61.7734V31.4844H63.9062V32.7422C64.1458 32.3724 64.401 32.0807 64.6719 31.8672C65.1667 31.487 65.7552 31.2969 66.4375 31.2969ZM74.9766 33.0938C74.4609 33.0938 74.0599 33.2552 73.7734 33.5781C73.4922 33.901 73.3151 34.3385 73.2422 34.8906H76.7031C76.6667 34.3021 76.487 33.8568 76.1641 33.5547C75.8464 33.2474 75.4505 33.0938 74.9766 33.0938ZM74.9766 31.2578C75.6849 31.2578 76.3229 31.3906 76.8906 31.6562C77.4583 31.9219 77.9271 32.3411 78.2969 32.9141C78.6302 33.4193 78.8464 34.0052 78.9453 34.6719C79.0026 35.0625 79.026 35.625 79.0156 36.3594H73.1875C73.2188 37.2135 73.487 37.8125 73.9922 38.1562C74.2995 38.3698 74.6693 38.4766 75.1016 38.4766C75.5599 38.4766 75.9323 38.3464 76.2188 38.0859C76.375 37.9453 76.513 37.75 76.6328 37.5H78.9062C78.849 38.0052 78.5859 38.5182 78.1172 39.0391C77.388 39.8672 76.3672 40.2812 75.0547 40.2812C73.9714 40.2812 73.0156 39.9323 72.1875 39.2344C71.3594 38.5365 70.9453 37.401 70.9453 35.8281C70.9453 34.3542 71.3177 33.224 72.0625 32.4375C72.8125 31.651 73.7839 31.2578 74.9766 31.2578ZM85.1484 31.2812C85.1901 31.2812 85.224 31.2839 85.25 31.2891C85.2812 31.2891 85.3464 31.2917 85.4453 31.2969V33.5781C85.3047 33.5625 85.1797 33.5521 85.0703 33.5469C84.9609 33.5417 84.8724 33.5391 84.8047 33.5391C83.9089 33.5391 83.3073 33.8307 83 34.4141C82.8281 34.7422 82.7422 35.2474 82.7422 35.9297V40H80.5V31.4844H82.625V32.9688C82.9688 32.401 83.2682 32.013 83.5234 31.8047C83.9401 31.4557 84.4818 31.2812 85.1484 31.2812ZM89.0469 30.4688H86.7891V28.4141H89.0469V30.4688ZM86.7891 31.4844H89.0469V40H86.7891V31.4844ZM100.727 31.2969C101.102 31.2969 101.471 31.3698 101.836 31.5156C102.201 31.6615 102.531 31.9167 102.828 32.2812C103.068 32.5781 103.229 32.9427 103.312 33.375C103.365 33.6615 103.391 34.0807 103.391 34.6328L103.375 40H101.094V34.5781C101.094 34.2552 101.042 33.9896 100.938 33.7812C100.74 33.3854 100.375 33.1875 99.8438 33.1875C99.2292 33.1875 98.8047 33.4427 98.5703 33.9531C98.4505 34.224 98.3906 34.5495 98.3906 34.9297V40H96.1484V34.9297C96.1484 34.4245 96.0964 34.0573 95.9922 33.8281C95.8047 33.4167 95.4375 33.2109 94.8906 33.2109C94.2552 33.2109 93.8281 33.4167 93.6094 33.8281C93.4896 34.0625 93.4297 34.4115 93.4297 34.875V40H91.1719V31.5H93.3359V32.7422C93.612 32.2995 93.8724 31.9844 94.1172 31.7969C94.5495 31.4635 95.1094 31.2969 95.7969 31.2969C96.4479 31.2969 96.974 31.4401 97.375 31.7266C97.6979 31.9922 97.9427 32.3333 98.1094 32.75C98.401 32.25 98.763 31.8828 99.1953 31.6484C99.6536 31.4141 100.164 31.2969 100.727 31.2969ZM108.805 33.0938C108.289 33.0938 107.888 33.2552 107.602 33.5781C107.32 33.901 107.143 34.3385 107.07 34.8906H110.531C110.495 34.3021 110.315 33.8568 109.992 33.5547C109.674 33.2474 109.279 33.0938 108.805 33.0938ZM108.805 31.2578C109.513 31.2578 110.151 31.3906 110.719 31.6562C111.286 31.9219 111.755 32.3411 112.125 32.9141C112.458 33.4193 112.674 34.0052 112.773 34.6719C112.831 35.0625 112.854 35.625 112.844 36.3594H107.016C107.047 37.2135 107.315 37.8125 107.82 38.1562C108.128 38.3698 108.497 38.4766 108.93 38.4766C109.388 38.4766 109.76 38.3464 110.047 38.0859C110.203 37.9453 110.341 37.75 110.461 37.5H112.734C112.677 38.0052 112.414 38.5182 111.945 39.0391C111.216 39.8672 110.195 40.2812 108.883 40.2812C107.799 40.2812 106.844 39.9323 106.016 39.2344C105.188 38.5365 104.773 37.401 104.773 35.8281C104.773 34.3542 105.146 33.224 105.891 32.4375C106.641 31.651 107.612 31.2578 108.805 31.2578ZM119.07 31.2812C119.951 31.2812 120.669 31.513 121.227 31.9766C121.789 32.4349 122.07 33.1979 122.07 34.2656V40H119.789V34.8203C119.789 34.3724 119.729 34.0286 119.609 33.7891C119.391 33.3516 118.974 33.1328 118.359 33.1328C117.604 33.1328 117.086 33.4531 116.805 34.0938C116.659 34.4323 116.586 34.8646 116.586 35.3906V40H114.367V31.5H116.516V32.7422C116.802 32.3047 117.073 31.9896 117.328 31.7969C117.786 31.4531 118.367 31.2812 119.07 31.2812ZM123.258 33.1484V31.5625H124.445V29.1875H126.648V31.5625H128.031V33.1484H126.648V37.6484C126.648 37.9974 126.693 38.2161 126.781 38.3047C126.87 38.388 127.141 38.4297 127.594 38.4297C127.661 38.4297 127.732 38.4297 127.805 38.4297C127.883 38.4245 127.958 38.4193 128.031 38.4141V40.0781L126.977 40.1172C125.924 40.1536 125.206 39.9714 124.82 39.5703C124.57 39.3151 124.445 38.9219 124.445 38.3906V33.1484H123.258ZM134.156 35.8594C134.016 35.9479 133.872 36.0208 133.727 36.0781C133.586 36.1302 133.391 36.1797 133.141 36.2266L132.641 36.3203C132.172 36.4036 131.836 36.5052 131.633 36.625C131.289 36.8281 131.117 37.1432 131.117 37.5703C131.117 37.9505 131.221 38.2266 131.43 38.3984C131.643 38.5651 131.901 38.6484 132.203 38.6484C132.682 38.6484 133.122 38.5078 133.523 38.2266C133.93 37.9453 134.141 37.4323 134.156 36.6875V35.8594ZM132.805 34.8203C133.216 34.7682 133.51 34.7031 133.688 34.625C134.005 34.4896 134.164 34.2786 134.164 33.9922C134.164 33.6432 134.042 33.4036 133.797 33.2734C133.557 33.138 133.203 33.0703 132.734 33.0703C132.208 33.0703 131.836 33.2005 131.617 33.4609C131.461 33.6536 131.357 33.9141 131.305 34.2422H129.156C129.203 33.4974 129.411 32.8854 129.781 32.4062C130.37 31.6562 131.38 31.2812 132.812 31.2812C133.745 31.2812 134.573 31.4661 135.297 31.8359C136.021 32.2057 136.383 32.9036 136.383 33.9297V37.8359C136.383 38.1068 136.388 38.4349 136.398 38.8203C136.414 39.112 136.458 39.3099 136.531 39.4141C136.604 39.5182 136.714 39.6042 136.859 39.6719V40H134.438C134.37 39.8281 134.323 39.6667 134.297 39.5156C134.271 39.3646 134.25 39.1927 134.234 39C133.927 39.3333 133.573 39.6172 133.172 39.8516C132.693 40.1276 132.151 40.2656 131.547 40.2656C130.776 40.2656 130.138 40.0469 129.633 39.6094C129.133 39.1667 128.883 38.5417 128.883 37.7344C128.883 36.6875 129.286 35.9297 130.094 35.4609C130.536 35.2057 131.188 35.0234 132.047 34.9141L132.805 34.8203ZM140.641 40H138.414V28.4844H140.641V40Z" fill="white"/>
</g>
<defs>
<filter id="filter0_d_1842_34469" x="3" y="1" width="27" height="60" filterUnits="userSpaceOnUse" color-interpolation-filters="sRGB">
<feFlood flood-opacity="0" result="BackgroundImageFix"/>
<feColorMatrix in="SourceAlpha" type="matrix" values="0 0 0 0 0 0 0 0 0 0 0 0 0 0 0 0 0 0 127 0" result="hardAlpha"/>
<feOffset dx="-8"/>
<feGaussianBlur stdDeviation="3"/>
<feComposite in2="hardAlpha" operator="out"/>
<feColorMatrix type="matrix" values="0 0 0 0 0 0 0 0 0 0 0 0 0 0 0 0 0 0 0.15 0"/>
<feBlend mode="normal" in2="BackgroundImageFix" result="effect1_dropShadow_1842_34469"/>
<feBlend mode="normal" in="SourceGraphic" in2="effect1_dropShadow_1842_34469" result="shape"/>
</filter>
<linearGradient id="paint0_linear_1842_34469" x1="17" y1="31" x2="30" y2="31" gradientUnits="userSpaceOnUse">
<stop stop-color="#C4C4C4" stop-opacity="0.24"/>
<stop offset="1" stop-color="#C4C4C4" stop-opacity="0"/>
</linearGradient>
<clipPath id="clip0_1842_34469">
<rect width="165" height="40" fill="white" transform="matrix(-1 0 0 1 176 11)"/>
</clipPath>
</defs>
</svg>
