<?xml version="1.0" encoding="UTF-8"?>
<svg width="14px" height="16px" viewBox="0 0 14 16" version="1.1" xmlns="http://www.w3.org/2000/svg">
    <path d="M 2.2929688 0.61523438 C 1.4929686 0.61523438 0.84570312 1.2620193 0.84570312 2.03125 L 0.84570312 13.970703 C 0.84570312 14.770703 1.4929687 15.384766 2.2929688 15.384766 L 10.953125 15.384766 C 11.753125 15.384766 12.400391 14.739934 12.400391 13.970703 L 12.400391 11.080078 L 7.1054688 13.607422 C 6.9650178 13.674612 6.8119041 13.711244 6.65625 13.714844 L 4.0996094 13.771484 C 3.1720384 13.791624 2.6376137 12.72512 3.2089844 11.994141 L 4.8164062 9.9453125 C 4.9206701 9.8118202 5.054351 9.704207 5.2070312 9.6308594 L 12.296875 6.2460938 C 12.330735 6.2299048 12.365815 6.2214444 12.400391 6.2089844 L 12.400391 5.3847656 C 12.400391 5.1078425 12.185126 4.8925781 11.908203 4.8925781 L 9.5078125 4.8925781 C 8.7078125 4.8925781 8.0625 4.2457932 8.0625 3.4765625 L 8.0625 1.0761719 C 8.0932693 0.83001798 7.8765325 0.61523438 7.5996094 0.61523438 L 2.2929688 0.61523438 z M 9.8769531 0.61523438 C 9.6923371 0.61523438 9.5390625 0.76850962 9.5390625 0.953125 L 9.5390625 2.5234375 C 9.5390625 3.0465145 9.9691091 3.4765625 10.492188 3.4765625 L 12.0625 3.4765625 C 12.247116 3.4765625 12.400391 3.3232873 12.400391 3.1386719 C 12.400391 3.0463639 12.370134 2.9848858 12.308594 2.8925781 L 10.091797 0.70703125 C 10.030257 0.64549275 9.9692601 0.61523437 9.8769531 0.61523438 z M 12.771484 7.2382812 L 5.6816406 10.623047 L 4.0742188 12.671875 L 6.6328125 12.615234 L 13.722656 9.2285156 L 12.771484 7.2382812 z" fill="#D3D3D3"/>
</svg>
