<svg xmlns="http://www.w3.org/2000/svg" xmlns:xlink="http://www.w3.org/1999/xlink" width="566" height="368.57" viewBox="0 0 566 368.57"><defs><path id="ylkua" d="M814.68 460.57l62.76-36.86-62.76-36.81-62.77 36.8z"/><path id="ylkub" d="M940.27 460.57l62.71-36.86-62.71-36.81-62.77 36.8z"/><path id="ylkuc" d="M814.68 386.85l62.76-36.81-62.76-36.86-62.77 36.86z"/><path id="ylkud" d="M940.27 386.85l62.71-36.81-62.71-36.86-62.77 36.86z"/><path id="ylkue" d="M689.15 313.19l62.71-36.86-62.71-36.81-62.77 36.8z"/><path id="ylkuf" d="M751.9 350.04l62.77-36.86-62.76-36.86-62.77 36.86z"/><path id="ylkug" d="M814.68 313.19l62.76-36.86-62.76-36.81-62.77 36.8z"/><path id="ylkuh" d="M940.27 313.19l62.71-36.86-62.71-36.81-62.77 36.8z"/><path id="ylkui" d="M689.15 239.47l62.71-36.81-62.71-36.86-62.77 36.86z"/><path id="ylkuj" d="M814.67 239.47l62.76-36.81-62.76-36.86-62.77 36.86z"/><path id="ylkuk" d="M814.67 165.67l62.76-36.81L814.67 92l-62.77 36.86z"/><path id="ylkul" d="M940.27 239.47l62.71-36.81-62.71-36.86-62.77 36.86z"/><path id="ylkum" d="M1065.8 386.85l62.76-36.81-62.76-36.86-62.77 36.86z"/><path id="ylkun" d="M1065.8 313.19l62.76-36.86-62.76-36.81-62.77 36.8z"/><path id="ylkuo" d="M1065.8 239.47l62.76-36.81-62.76-36.86-62.77 36.86z"/><path id="ylkup" d="M1128.8 276.46l62.77-36.8-63.03-37.02-62.71 36.85z"/><path id="ylkuq" d="M688.77 386.74l62.76-36.86-62.76-36.86L626 349.88z"/></defs><g><g clip-path="url(#clip-504A404C-A292-4B8A-B58E-75E941E86B17)" transform="translate(-626 -92)"><g><g><use fill="#fff" fill-opacity="0" stroke="#4a8d9c" stroke-miterlimit="50" stroke-width=".54" xlink:href="#ylkua"/></g><g><use fill="#fff" fill-opacity="0" stroke="#4a8d9c" stroke-miterlimit="50" stroke-width=".54" xlink:href="#ylkub"/></g><g><use fill="#fff" fill-opacity="0" stroke="#4a8d9c" stroke-miterlimit="50" stroke-width=".54" xlink:href="#ylkuc"/></g><g><use fill="#fff" fill-opacity="0" stroke="#4a8d9c" stroke-miterlimit="50" stroke-width=".54" xlink:href="#ylkud"/></g><g><use fill="#fff" fill-opacity="0" stroke="#4a8d9c" stroke-miterlimit="50" stroke-width=".54" xlink:href="#ylkue"/></g><g><use fill="#fff" fill-opacity="0" stroke="#4a8d9c" stroke-miterlimit="50" stroke-width=".54" xlink:href="#ylkuf"/></g><g><use fill="#fff" fill-opacity="0" stroke="#4a8d9c" stroke-miterlimit="50" stroke-width=".54" xlink:href="#ylkug"/></g><g><use fill="#fff" fill-opacity="0" stroke="#4a8d9c" stroke-miterlimit="50" stroke-width=".54" xlink:href="#ylkuh"/></g><g><use fill="#fff" fill-opacity="0" stroke="#4a8d9c" stroke-miterlimit="50" stroke-width=".54" xlink:href="#ylkui"/></g><g><use fill="#fff" fill-opacity="0" stroke="#4a8d9c" stroke-miterlimit="50" stroke-width=".54" xlink:href="#ylkuj"/></g><g><use fill="#fff" fill-opacity="0" stroke="#4a8d9c" stroke-miterlimit="50" stroke-width=".54" xlink:href="#ylkuk"/></g><g><use fill="#fff" fill-opacity="0" stroke="#4a8d9c" stroke-miterlimit="50" stroke-width=".54" xlink:href="#ylkul"/></g><g><use fill="#fff" fill-opacity="0" stroke="#4a8d9c" stroke-miterlimit="50" stroke-width=".54" xlink:href="#ylkum"/></g><g><use fill="#fff" fill-opacity="0" stroke="#4a8d9c" stroke-miterlimit="50" stroke-width=".54" xlink:href="#ylkun"/></g><g><use fill="#fff" fill-opacity="0" stroke="#4a8d9c" stroke-miterlimit="50" stroke-width=".54" xlink:href="#ylkuo"/></g><g><use fill="#fff" fill-opacity="0" stroke="#4a8d9c" stroke-miterlimit="50" stroke-width=".54" xlink:href="#ylkup"/></g><g><use fill="#fff" fill-opacity="0" stroke="#4a8d9c" stroke-miterlimit="50" stroke-width=".54" xlink:href="#ylkuq"/></g></g></g></g></svg>