<svg width="24" height="24" viewBox="0 0 24 24" fill="none" xmlns="http://www.w3.org/2000/svg">
<path d="M21.3269 8.566C21.3269 4.227 18.4839 2.956 18.4839 2.956C17.0509 2.298 14.5899 2.021 12.0329 2H11.9699C9.41291 2.021 6.95391 2.298 5.51991 2.956C5.51991 2.956 2.67691 4.228 2.67691 8.566C2.67691 9.559 2.65791 10.747 2.68891 12.007C2.79191 16.25 3.4669 20.432 7.3899 21.47C9.1989 21.949 10.7519 22.049 12.0019 21.98C14.2699 21.854 15.5429 21.171 15.5429 21.171L15.4679 19.525C15.4679 19.525 13.8469 20.036 12.0269 19.974C10.2229 19.912 8.3199 19.78 8.0279 17.565C8.00033 17.3592 7.98697 17.1517 7.98791 16.944C7.98791 16.944 9.75791 17.377 12.0019 17.48C13.3739 17.543 14.6599 17.4 15.9669 17.244C18.4729 16.945 20.6549 15.401 20.9289 13.99C21.3629 11.767 21.3269 8.566 21.3269 8.566V8.566ZM17.9739 14.156H15.8929V9.057C15.8929 7.982 15.4409 7.437 14.5359 7.437C13.5359 7.437 13.0349 8.084 13.0349 9.364V12.155H10.9659V9.364C10.9659 8.084 10.4649 7.437 9.4639 7.437C8.5589 7.437 8.10691 7.983 8.10691 9.057V14.156H6.02591V8.903C6.02591 7.829 6.29891 6.976 6.84891 6.345C7.41491 5.714 8.1559 5.39 9.0769 5.39C10.1419 5.39 10.9489 5.799 11.4819 6.618L11.9999 7.487L12.5189 6.618C13.0519 5.799 13.8589 5.39 14.9239 5.39C15.8439 5.39 16.5859 5.714 17.1519 6.345C17.7009 6.976 17.9739 7.829 17.9739 8.903V14.156Z" fill="white"/>
</svg>
