<svg xmlns="http://www.w3.org/2000/svg" xmlns:xlink="http://www.w3.org/1999/xlink" viewBox="0 0 427.86 330.43"><defs><style>.cls-1{fill:url(#linear-gradient);}.cls-2{fill:url(#linear-gradient-2);}.cls-3{font-size:59.35px;fill:#02475b;font-family:Roboto-Bold, Roboto;font-weight:700;}</style><linearGradient id="linear-gradient" y1="228.23" x2="427.86" y2="228.23" gradientUnits="userSpaceOnUse"><stop offset="0" stop-color="#cedbdd"/><stop offset="0.26" stop-color="#d1dddf"/><stop offset="0.47" stop-color="#dbe5e7"/><stop offset="0.52" stop-color="#dfe8ea"/><stop offset="0.56" stop-color="#d8e3e5"/><stop offset="0.67" stop-color="#c9d9db"/><stop offset="0.8" stop-color="#c1d3d5"/><stop offset="1" stop-color="#bed1d3"/></linearGradient><linearGradient id="linear-gradient-2" x1="0.17" y1="126.22" x2="427.86" y2="126.22" gradientUnits="userSpaceOnUse"><stop offset="0" stop-color="#bed1d3"/><stop offset="0.08" stop-color="#c1d3d5"/><stop offset="0.48" stop-color="#cbd9db"/><stop offset="1" stop-color="#cedbdd"/></linearGradient></defs><title>Asset 6</title><g id="Layer_2" data-name="Layer 2"><g id="Layer_6" data-name="Layer 6"><path class="cls-1" d="M427.68,204.41h0l.17-78L.17,126,0,204H0a10.09,10.09,0,0,0,5.09,8.83L203.62,327.72a20.19,20.19,0,0,0,20.19,0L422.58,213.23a10.09,10.09,0,0,0,5.1-8.81h0Z"/><path class="cls-2" d="M5.26,134.85,203.8,249.73a20.19,20.19,0,0,0,20.19,0L422.75,135.24a10.19,10.19,0,0,0,0-17.65L224.23,2.71a20.19,20.19,0,0,0-20.19,0L5.27,117.2A10.19,10.19,0,0,0,5.26,134.85Z"/><text class="cls-3" transform="matrix(0.72, 0.42, -0.87, 0.5, 123.32, 93.74)">MySQL</text></g></g></svg>