<svg width="40" height="40" viewBox="0 0 40 40" fill="none" xmlns="http://www.w3.org/2000/svg">
<g clip-path="url(#clip0_425_36277)">
<path d="M23.75 35H16.25C15.56 35 15 34.44 15 33.75C15 33.06 15.56 32.5 16.25 32.5H23.75C24.44 32.5 25 33.06 25 33.75C25 34.44 24.44 35 23.75 35Z" fill="white"/>
<path d="M20 5.76167C19.31 5.76167 18.75 5.20167 18.75 4.51167V1.25C18.75 0.56 19.31 0 20 0C20.69 0 21.25 0.56 21.25 1.25V4.51167C21.25 5.20167 20.69 5.76167 20 5.76167Z" fill="white"/>
<path d="M30.9508 10.2984C30.6308 10.2984 30.3108 10.1767 30.0674 9.93173C29.5791 9.4434 29.5791 8.65173 30.0674 8.1634L32.3741 5.85673C32.8624 5.3684 33.6541 5.3684 34.1424 5.85673C34.6308 6.34506 34.6308 7.13673 34.1424 7.62506L31.8358 9.93173C31.5908 10.1751 31.2708 10.2984 30.9508 10.2984V10.2984Z" fill="white"/>
<path d="M38.7499 21.25H35.4883C34.7983 21.25 34.2383 20.69 34.2383 20C34.2383 19.31 34.7983 18.75 35.4883 18.75H38.7499C39.4399 18.75 39.9999 19.31 39.9999 20C39.9999 20.69 39.4399 21.25 38.7499 21.25Z" fill="white"/>
<path d="M33.2574 34.5084C32.9374 34.5084 32.6174 34.3867 32.3741 34.1417L30.0674 31.835C29.5791 31.3467 29.5791 30.555 30.0674 30.0667C30.5558 29.5784 31.3474 29.5784 31.8358 30.0667L34.1424 32.3734C34.6308 32.8617 34.6308 33.6534 34.1424 34.1417C33.8974 34.3867 33.5774 34.5084 33.2574 34.5084Z" fill="white"/>
<path d="M6.74177 34.5084C6.42177 34.5084 6.10177 34.3867 5.85844 34.1417C5.3701 33.6534 5.3701 32.8617 5.85844 32.3734L8.1651 30.0667C8.65344 29.5784 9.4451 29.5784 9.93344 30.0667C10.4218 30.555 10.4218 31.3467 9.93344 31.835L7.62677 34.1417C7.38177 34.3867 7.06177 34.5084 6.74177 34.5084V34.5084Z" fill="white"/>
<path d="M4.51167 21.25H1.25C0.56 21.25 0 20.69 0 20C0 19.31 0.56 18.75 1.25 18.75H4.51167C5.20167 18.75 5.76167 19.31 5.76167 20C5.76167 20.69 5.20167 21.25 4.51167 21.25Z" fill="white"/>
<path d="M9.04844 10.2984C8.72844 10.2984 8.40844 10.1767 8.1651 9.93173L5.85844 7.62506C5.3701 7.13673 5.3701 6.34506 5.85844 5.85673C6.34677 5.3684 7.13844 5.3684 7.62677 5.85673L9.93344 8.1634C10.4218 8.65173 10.4218 9.4434 9.93344 9.93173C9.68677 10.1751 9.36844 10.2984 9.04844 10.2984V10.2984Z" fill="white"/>
<path d="M26.2493 20.8333C25.5593 20.8333 24.9993 20.2733 24.9993 19.5833C24.9993 17.055 22.9443 15 20.416 15C19.726 15 19.166 14.44 19.166 13.75C19.166 13.06 19.726 12.5 20.416 12.5C24.321 12.5 27.4993 15.6783 27.4993 19.5833C27.4993 20.2733 26.9393 20.8333 26.2493 20.8333Z" fill="white"/>
<path d="M22.0837 40H17.9171C16.5121 40 15.0004 38.9334 15.0004 36.5934V33.6534C15.0004 31.885 14.2471 30.2617 12.9854 29.3117C9.34374 26.57 7.65874 22.06 8.58707 17.5417C9.49541 13.115 13.0771 9.52003 17.4987 8.59503C21.0154 7.85503 24.6121 8.7117 27.3554 10.9417C30.0954 13.1684 31.6671 16.47 31.6671 20C31.6671 23.5967 30.0421 26.935 27.2087 29.1634C25.8054 30.2667 25.0004 31.8034 25.0004 33.3784V37.0834C25.0004 38.6917 23.6921 40 22.0837 40V40ZM19.9771 10.8367C19.3237 10.8367 18.6654 10.905 18.0071 11.0417C14.5471 11.765 11.7454 14.5784 11.0337 18.0434C10.3021 21.605 11.6254 25.1584 14.4871 27.3134C16.3721 28.7334 17.4987 31.1034 17.4987 33.6534V36.5934C17.4987 36.745 17.5187 37.5 17.9154 37.5H22.0821C22.3121 37.5 22.4987 37.3134 22.4987 37.0834V33.3784C22.4987 31.03 23.6521 28.7784 25.6621 27.1967C27.8904 25.4467 29.1671 22.8234 29.1671 20C29.1671 17.2267 27.9304 14.6317 25.7771 12.8817C24.1304 11.545 22.0887 10.8367 19.9771 10.8367V10.8367Z" fill="white"/>
</g>
<defs>
<clipPath id="clip0_425_36277">
<rect width="40" height="40" fill="white"/>
</clipPath>
</defs>
</svg>
