<svg xmlns="http://www.w3.org/2000/svg" xmlns:xlink="http://www.w3.org/1999/xlink" width="21" height="20" viewBox="0 0 21 20"><defs><path id="z889a" d="M794.4 1063.2c-.03-3.15 2.57-4.66 2.69-4.73a5.8 5.8 0 0 0-4.55-2.46c-1.93-.2-3.77 1.14-4.75 1.14s-2.5-1.11-4.1-1.08a6.09 6.09 0 0 0-5.14 3.11c-2.19 3.8-.56 9.43 1.57 12.52 1.05 1.5 2.3 3.2 3.93 3.14 1.57-.06 2.16-1.02 4.07-1.02 1.9 0 2.43 1.02 4.1 1 1.69-.04 2.76-1.55 3.8-3.06 1.2-1.75 1.69-3.45 1.72-3.53-.04-.02-3.3-1.27-3.34-5.03z"/></defs><g><g transform="translate(-777 -1055)"><use fill="#44505e" xlink:href="#z889a"/></g></g></svg>