<?xml version="1.0" encoding="UTF-8"?>
<svg width="1650px" height="616px" viewBox="0 0 1650 616" version="1.1" xmlns="http://www.w3.org/2000/svg" xmlns:xlink="http://www.w3.org/1999/xlink">
    <!-- Generator: Sketch 49 (51002) - http://www.bohemiancoding.com/sketch -->
    <title>unite</title>
    <desc>Created with Sketch.</desc>
    <defs>
        <linearGradient x1="0%" y1="65.3785721%" x2="69.4419801%" y2="31.8199995%" id="linearGradient-1">
            <stop stop-color="#036176" offset="0%"></stop>
            <stop stop-color="#01647A" offset="100%"></stop>
        </linearGradient>
        <linearGradient x1="82.3230485%" y1="56.2579782%" x2="8.88026541%" y2="45.4355331%" id="linearGradient-2">
            <stop stop-color="#067A95" offset="0%"></stop>
            <stop stop-color="#0E778F" offset="100%"></stop>
        </linearGradient>
    </defs>
    <g id="UI" stroke="none" stroke-width="1" fill="none" fill-rule="evenodd">
        <g id="Artboard-2" transform="translate(-136.000000, -71.000000)">
            <g id="unite" transform="translate(136.000000, 72.000000)">
                <g id="RIGHT" transform="translate(811.000000, 0.000000)">
                    <g id="Grid" stroke="#4B8D9C">
                        <polygon id="Path-2" points="314.715021 614.280439 419.409979 552.847898 314.715021 491.505302 210.020064 552.847898"></polygon>
                        <polygon id="Path-2-Copy" points="524.194957 614.280439 628.799893 552.847898 524.194957 491.505302 419.5 552.847898"></polygon>
                        <polygon id="Path-2_3_" points="314.715021 491.415356 419.409979 430.072761 314.715021 368.640219 210.020064 430.072761"></polygon>
                        <polygon id="Path-2-Copy_2_" points="524.194957 491.415356 628.799893 430.072761 524.194957 368.640219 419.5 430.072761"></polygon>
                        <polygon id="Path-2-Copy_3_" points="105.325107 368.640219 209.930043 307.207678 105.325107 245.865082 0.630150215 307.207678"></polygon>
                        <polygon id="Path-2-Copy_1_" points="210.020064 430.072761 314.715021 368.640219 210.020064 307.207678 105.325107 368.640219"></polygon>
                        <polygon id="Path-2_5_" points="314.715021 368.640219 419.409979 307.207678 314.715021 245.865082 210.020064 307.207678"></polygon>
                        <polygon id="Path-2-Copy_4_" points="524.194957 368.640219 628.799893 307.207678 524.194957 245.865082 419.5 307.207678"></polygon>
                        <polygon id="Path-2-Copy_5_" points="105.325107 245.775137 209.930043 184.432541 105.325107 123 0.630150215 184.432541"></polygon>
                        <polygon id="Path-2_7_" points="314.694957 245.775137 419.389914 184.432541 314.694957 123 210 184.432541"></polygon>
                        <polygon id="Path-2_7_-Copy" points="314.694957 122.775137 419.389914 61.4325411 314.694957 0 210 61.4325411"></polygon>
                        <polygon id="Path-2-Copy_6_" points="524.194957 245.775137 628.799893 184.432541 524.194957 123 419.5 184.432541"></polygon>
                        <polygon id="Path-2_8_" points="733.584871 491.415356 838.279828 430.072761 733.584871 368.640219 628.889914 430.072761"></polygon>
                        <polygon id="Path-2_9_" points="733.584871 368.640219 838.279828 307.207678 733.584871 245.865082 628.889914 307.207678"></polygon>
                        <polygon id="Path-2_10_" points="733.584871 245.775137 838.279828 184.432541 733.584871 123 628.889914 184.432541"></polygon>
                        <polygon id="Path-2-Copy_16_" stroke-width="0.9" points="104.694957 491.235466 209.389914 429.802925 104.694957 368.370384 0 429.802925"></polygon>
                    </g>
                    <g id="GraalVM" transform="translate(327.000000, 265.000000)" fill-rule="nonzero">
                        <g id="Group-2">
                            <path d="M60.2366323,159.68368 L58.7050262,158.801846 L130.252876,117.848623 C136.250069,114.372519 139.944691,107.972163 139.952937,101.04478 L139.952937,17.7228213 L141.806591,18.790077 L144.61862,13.9329351 L133.125399,7.34500142 C132.22259,6.80705846 131.097255,6.80705846 130.194446,7.34500142 L45.7625062,55.1346805 C43.8180304,56.2563724 42.620759,58.3298845 42.6221985,60.5732686 L43.437641,154.349652 C43.4323396,155.390532 43.993689,156.35203 44.903118,156.85977 L57.616115,164.210029 L60.2366323,159.68368 Z" id="Shape" fill="url(#linearGradient-1)" transform="translate(93.620409, 85.575787) rotate(-120.000000) translate(-93.620409, -85.575787) "></path>
                            <path d="M137.90802,4.54392032 C137.898783,3.50232924 137.336498,2.54403596 136.431341,2.02724178 C135.526185,1.51044761 134.41441,1.51294586 133.511589,2.03380273 L51.0261732,49.447135 C49.0816974,50.5688268 47.8844259,52.6423389 47.8858655,54.8857231 L47.8858655,149.782113 C47.8951021,150.823704 48.4573872,151.781998 49.362544,152.298792 C50.2677007,152.815586 51.3794752,152.813088 52.2822963,152.292231 L134.418789,104.878899 C136.52009,103.802222 137.860194,101.659871 137.90802,99.3008593 L137.90802,4.54392032 Z" id="Shape" fill="url(#linearGradient-2)" transform="translate(92.896942, 77.163017) rotate(-120.000000) translate(-92.896942, -77.163017) "></path>
                            <path d="M57.0213752,88.7561694 C56.2262908,89.188018 55.7203281,89.6918414 55.3589261,90.1956649 C54.9975241,90.6994883 54.9252437,91.2752865 55.0698045,91.9230595 C55.2143653,92.4988577 55.6480477,93.1466306 56.2985712,93.8663784 C56.9490948,94.5141514 57.88874,95.2338991 59.1175068,95.8816721 C61.2859188,97.177218 63.3097699,97.824991 65.2613407,97.9689405 C67.1406311,98.1128901 68.8753606,97.7530162 70.3209686,96.9612937 C70.8269314,96.6733946 71.2606138,96.3854955 71.5497354,96.0975964 C71.838857,95.8096973 72.1279786,95.5217982 72.3448198,95.2338991 C72.561661,94.946 72.6339414,94.6581009 72.7785022,94.3702018 C72.8507826,94.0823027 72.923063,93.7944036 72.923063,93.5065045 L66.9960703,90.1236901 L63.0929287,92.3549081 L64.8999387,93.4345297 L66.2732663,92.6428072 L69.5258842,94.5141514 C69.4536038,94.6581009 69.3813234,94.7300757 69.2367626,94.8740252 C69.0922018,95.0179748 68.947641,95.1619243 68.8030802,95.2338991 C68.3693978,95.4498234 67.9357155,95.6657478 67.5020331,95.7377225 C66.9960703,95.8096973 66.4901075,95.8816721 65.9118643,95.8096973 C65.3336211,95.7377225 64.6830975,95.5217982 63.8880131,95.3058739 C63.1652091,95.0179748 62.2978443,94.5861261 61.4304796,94.0823027 C60.6353952,93.6504541 60.057152,93.2186054 59.69575,92.7867568 C59.2620676,92.3549081 59.0452264,91.9950342 58.9006656,91.7071351 C58.7561048,91.3472613 58.8283852,91.0593622 58.972946,90.7714631 C59.1175068,90.483564 59.4066284,90.2676396 59.7680304,90.0517153 C60.2739932,89.7638162 60.779956,89.5478919 61.3581992,89.4039423 C61.9364424,89.2599928 62.5146855,89.188018 63.1652091,89.1160433 L62.9483679,87.8924721 C61.7918816,87.7485225 60.779956,87.7485225 59.7680304,87.8924721 C58.6838244,87.9644469 57.8164596,88.252346 57.0213752,88.7561694 M116.074461,55 L112.532722,57.0152937 L118.821116,63.4210487 L118.748836,63.4210487 L107.762215,59.7503351 L103.931354,61.9095784 C105.955205,63.3490739 107.979056,64.7165946 110.075188,66.0841153 C112.17132,67.451636 114.267451,68.8191568 116.508143,70.1147027 L118.965677,68.6752072 C117.230947,67.6675604 115.496218,66.5879387 113.833769,65.5802919 C112.17132,64.572645 110.50887,63.4210487 108.846421,62.341427 L108.918702,62.341427 L122.290575,66.8038631 L124.242146,65.7242414 L116.580424,57.9509658 L116.652704,57.9509658 C118.604275,58.8866378 120.483565,59.8942847 122.290575,60.8299568 C124.097585,61.7656288 125.904595,62.7732757 127.639325,63.7809225 L130.38598,62.1974775 C128.073007,60.9019315 125.760035,59.6783604 123.374781,58.526764 C120.917248,57.3751676 118.531995,56.1515964 116.074461,55 M102.196625,62.9892 L99.5945302,64.5006703 C100.317334,65.1484432 101.040138,65.7242414 101.835223,66.4439892 C102.558027,67.0917622 103.28083,67.7395351 104.003634,68.4592829 C104.726438,69.1070559 105.376962,69.7548288 106.027486,70.4026018 C106.678009,71.0503748 107.256252,71.626173 107.762215,72.2019712 C106.605729,71.8420973 105.449242,71.4822234 104.292756,71.0503748 C103.13627,70.6185261 101.979783,70.2586523 100.823297,69.8268036 C99.6668105,69.394955 98.5826046,69.0350811 97.4983986,68.6032324 C96.4141926,68.2433586 95.402267,67.8115099 94.5349022,67.451636 L91.5714059,69.1070559 C94.318061,70.1147027 97.1369966,71.1223496 99.9559321,72.0580216 C102.774868,72.9936937 105.666084,73.9293658 108.62958,74.7930631 L111.954478,72.9217189 C110.50887,71.2662991 108.918702,69.6108793 107.328533,67.9554595 C105.666084,66.1560901 104.003634,64.572645 102.196625,62.9892 M85.5721328,76.2325586 C84.7770484,76.6644072 84.1265248,77.1682306 83.6928424,77.6000793 C83.25916,78.1039027 82.897758,78.5357514 82.536356,78.9676 L84.343366,79.6873478 C84.6324876,79.3994487 84.9216092,79.0395748 85.3552916,78.6797009 C85.7166936,78.319827 86.150376,78.0319279 86.6563388,77.7440288 C87.1623015,77.4561297 87.6682643,77.2402054 88.2465075,77.1682306 C88.8247507,77.0962559 89.3307135,77.1682306 89.9089567,77.5281045 L90.5594803,77.8879784 L89.9089567,78.2478523 C89.0415919,78.7516757 88.3910683,79.2554991 87.9573859,79.6873478 C87.5237035,80.1191964 87.3068623,80.5510451 87.2345819,80.9828937 C87.1623015,81.4147423 87.2345819,81.7746162 87.4514231,82.0625153 C87.6682643,82.4223892 88.0296663,82.7102883 88.5356291,82.9981874 C89.4752743,83.5020108 90.4149195,83.7899099 91.3545647,83.7899099 C92.3664903,83.7899099 93.3061355,83.5020108 94.318061,82.9262126 C94.8963042,82.6383135 95.2577062,82.2064649 95.5468278,81.7746162 C95.763669,81.3427676 95.9082298,80.9109189 95.9082298,80.4790703 L97.2815574,80.9828937 L99.0885674,79.9032721 L92.1496491,75.8726847 C91.0654431,75.2249117 90.0535175,74.9370126 88.9693115,74.9370126 C87.9573859,75.2249117 86.8008996,75.5128108 85.5721328,76.2325586 M76.2479613,81.6306667 C75.4528769,82.0625153 74.8746337,82.5663387 74.368671,82.9981874 C73.9349886,83.5020108 73.5735866,83.9338595 73.2121846,84.3657081 L75.0191945,85.0854559 C75.3083161,84.7975568 75.5974377,84.4376829 76.0311201,84.077809 C76.3925221,83.7179351 76.8262045,83.430036 77.3321673,83.1421369 C77.8381301,82.8542378 78.3440929,82.6383135 78.9223361,82.5663387 C79.5005793,82.494364 80.0065421,82.5663387 80.5847853,82.9262126 L81.2353088,83.2860865 L80.5847853,83.7899099 C79.7174205,84.2937333 79.0668969,84.7975568 78.6332145,85.2294054 C78.1995321,85.6612541 77.9826909,86.0931027 77.9104105,86.5249514 C77.8381301,86.9568 77.9104105,87.3166739 78.1272517,87.604573 C78.3440929,87.9644469 78.7054949,88.252346 79.2114577,88.5402451 C80.1511029,89.0440685 81.090748,89.3319676 82.0303932,89.3319676 C83.0423188,89.3319676 83.981964,89.0440685 84.9938896,88.4682703 C85.5721328,88.1803712 85.9335348,87.7485225 86.2226564,87.3166739 C86.4394976,86.8848252 86.5840584,86.4529766 86.5840584,86.0211279 L87.9573859,86.5249514 L89.7643959,85.4453297 L82.8254776,81.4147423 C81.7412716,80.7669694 80.7293461,80.4790703 79.6451401,80.4790703 C78.6332145,80.5510451 77.4767281,80.9109189 76.2479613,81.6306667 M70.393249,84.9415063 C69.9595666,85.1574306 69.8150058,85.5173045 69.7427254,85.8771784 C69.7427254,86.2370523 69.8150058,86.7408757 70.031847,87.3886487 L67.9357155,86.5969261 L66.0564251,87.6765478 L76.0311201,93.4345297 L78.4886537,91.9950342 L72.1279786,88.3243207 C71.9834178,87.8924721 71.9111374,87.4606234 71.9111374,87.1727243 C71.9111374,86.8848252 72.0556982,86.6689009 72.2725394,86.5249514 C72.4171002,86.4529766 72.561661,86.3810018 72.7062218,86.309027 C72.8507826,86.2370523 73.1399042,86.1650775 73.3567454,86.0931027 L71.3328942,84.5816324 C71.116053,84.6536072 70.9714922,84.725582 70.754651,84.7975568 C70.6823706,84.7975568 70.5378098,84.8695315 70.393249,84.9415063 M132.409831,59.1025622 L131.831588,59.462436 L132.554392,60.2541586 L131.181064,59.8223099 L130.602821,60.1821838 C130.819662,60.3261333 131.108784,60.5420577 131.325625,60.6860072 C131.614747,60.8299568 131.831588,60.9739063 132.12071,61.1898306 L132.482112,60.9739063 L131.903868,60.6140324 C131.687027,60.5420577 131.542466,60.3981081 131.325625,60.2541586 L132.843514,60.6860072 L133.277196,60.4700829 L132.482112,59.6063856 C132.698953,59.6783604 132.843514,59.8223099 133.060355,59.8942847 C133.277196,59.9662595 133.421757,60.110209 133.638598,60.2541586 L134,60.0382342 C133.710878,59.8942847 133.494037,59.7503351 133.204916,59.6063856 C132.988074,59.3904613 132.698953,59.2465117 132.409831,59.1025622 M130.38598,60.2541586 L129.374054,60.8299568 L129.735456,61.0458811 L130.024578,60.9019315 L131.253345,61.6216793 L131.687027,61.3337802 L130.45826,60.6140324 L130.747382,60.4700829 L130.38598,60.2541586 M83.8374032,86.8848252 C83.4760012,87.1007496 83.0423188,87.1727243 82.6809168,87.1727243 C82.2472344,87.1727243 81.8858324,87.0287748 81.45215,86.8128505 C81.2353088,86.6689009 81.090748,86.5969261 80.9461872,86.4529766 C80.8016265,86.309027 80.8016265,86.1650775 80.8016265,86.0211279 C80.8016265,85.8771784 80.9461872,85.6612541 81.1630284,85.4453297 C81.3798696,85.2294054 81.6689912,85.0134811 82.174954,84.725582 L82.897758,84.2937333 L84.9216092,85.4453297 C84.8493288,85.7332288 84.704768,85.9491532 84.5602072,86.1650775 C84.4156464,86.5249514 84.1265248,86.7408757 83.8374032,86.8848252 M93.1615747,81.5586919 C92.8001727,81.7746162 92.3664903,81.846591 92.0050883,81.846591 C91.5714059,81.846591 91.2100039,81.7026414 90.7763215,81.4867171 C90.5594803,81.3427676 90.4149195,81.2707928 90.2703587,81.1268432 C90.1257979,80.9828937 90.1257979,80.8389441 90.1257979,80.6949946 C90.1257979,80.5510451 90.2703587,80.3351207 90.4871999,80.1191964 C90.7040411,79.9032721 90.9931627,79.6873478 91.4991255,79.3994487 L92.2219295,78.9676 L94.2457806,80.1191964 C94.1735002,80.4070955 94.0289394,80.6230198 93.8843786,80.8389441 C93.7398178,81.1268432 93.5229766,81.3427676 93.1615747,81.5586919 M89.6198351,69.394955 L87.1623015,70.8344505 L99.2331282,77.8160036 C100.100493,78.319827 100.823297,78.5357514 101.473821,78.5357514 C102.124344,78.5357514 102.774868,78.319827 103.425391,77.9599532 C103.786793,77.7440288 104.075915,77.6000793 104.292756,77.384155 C104.509597,77.1682306 104.798719,76.9523063 104.94328,76.736382 L103.28083,75.9446595 C103.20855,76.0166342 103.063989,76.088609 102.991709,76.1605838 L102.702587,76.3045333 C102.485746,76.4484829 102.196625,76.5204577 101.979783,76.4484829 C101.690662,76.4484829 101.32926,76.2325586 100.751017,75.9446595 L89.6198351,69.394955" id="Shape" fill="#FFFFFF" opacity="0.55"></path>
                        </g>
                    </g>
                </g>
                <g id="LEFT" transform="translate(0.000000, 246.000000)" stroke="#4B8D9C">
                    <polygon id="Path-2-Copy_3_" points="105.325107 245.640219 209.930043 184.207678 105.325107 122.865082 0.630150215 184.207678"></polygon>
                    <polygon id="Path-2-Copy_1_" points="210.020064 307.072761 314.715021 245.640219 210.020064 184.207678 105.325107 245.640219"></polygon>
                    <polygon id="Path-2_5_" points="314.715021 245.640219 419.409979 184.207678 314.715021 122.865082 210.020064 184.207678"></polygon>
                    <polygon id="Path-2-Copy_5_" points="105.325107 122.775137 209.930043 61.4325411 105.325107 0 0.630150215 61.4325411"></polygon>
                    <polygon id="Path-2-Copy_16_" points="104.694957 368.235466 209.389914 306.802925 104.694957 245.370384 0 306.802925"></polygon>
                </g>
            </g>
        </g>
    </g>
</svg>