<svg width="2424" height="2442" viewBox="0 0 2424 2442" fill="none" xmlns="http://www.w3.org/2000/svg">
<path opacity="0.3" d="M2041.51 2441.66C2120.84 2306.53 2201.04 2168.41 2231.84 2016.09C2262.64 1863.76 2234.79 1691.5 2120.93 1579.29C2101.86 1560.47 2080.75 1543.92 2056.08 1533.15C1997.86 1508.37 1930.03 1522.42 1870.64 1544.56C1816.32 1564.71 1765.08 1591.24 1718.2 1623.66C1683.04 1647.97 1634.78 1675.38 1601.17 1648.54C1568.1 1622.37 1585.46 1572.03 1605.14 1536.55C1637.24 1478.37 1668.73 1420.15 1700.83 1361.97C1741.12 1287.44 1783.06 1208.17 1775.93 1124.48C1768.86 1040.19 1706.9 961.951 1624.11 931.91C1488.07 883.034 1338.1 961.746 1194.27 945.143C1077.03 931.543 978.68 857.358 886.772 786.196" stroke="#8EC9E6" stroke-opacity="0.9" stroke-width="0.5" stroke-miterlimit="10"/>
<path d="M195.604 86.5302C222.734 70.0416 259.628 73.9714 287.449 90.5185C314.665 107.011 333.63 133.753 348.853 161.379C387.682 232.04 406.256 310.649 435.563 385.339C464.87 460.028 508.878 534.209 581.705 573.123C694.691 633.969 834.173 590.34 958.58 558.179C991.113 549.504 1025.35 542.203 1058.23 550.046C1100.03 560.524 1131.67 595.733 1148.39 633.874C1165.11 672.015 1168.62 714.463 1173.45 755.809C1188.33 889.042 1215.66 1026.45 1297.41 1135.78C1379.23 1244.5 1571.44 1354.6 1798.61 1293.22" stroke="#8EC9E6" stroke-opacity="0.9" stroke-width="0.5" stroke-miterlimit="10"/>
<g opacity="0.6">
<path d="M195.604 86.5312C222.733 70.0426 259.628 73.9724 287.449 90.5195C314.664 107.012 333.63 133.754 348.853 161.38C387.681 232.041 406.256 310.65 435.563 385.34C464.87 460.029 508.878 534.21 581.704 573.124C694.691 633.97 834.173 590.341 958.58 558.18C991.112 549.504 1025.35 542.204 1058.23 550.047C1100.03 560.525 1131.67 595.734 1148.39 633.875C1165.11 672.016 1168.62 714.464 1173.45 755.81C1188.33 889.043 1215.66 1026.45 1297.41 1135.78C1379.23 1244.5 1571.43 1354.61 1798.61 1293.22" stroke="#8EC9E6" stroke-opacity="0.9" stroke-width="0.5" stroke-miterlimit="10"/>
<path opacity="0.9829" d="M1794.27 1300.77C1666.83 1332.66 1551.29 1307 1460.39 1258.52C1395.72 1224 1343.15 1177.14 1309.46 1130.76C1277.93 1087.62 1254.04 1040.89 1235.83 992.238C1228.38 973.249 1222.19 953.764 1216.61 934.333C1203.02 888.535 1193.18 841.853 1185.1 795.94C1182.66 782.287 1180.83 768.689 1178.95 755.697C1174.79 727.234 1171.24 698.826 1163.34 671.248C1160.08 659.964 1156.16 649.231 1151.03 638.389C1142.87 620.557 1130.96 603.609 1116.41 588.867C1100.76 572.804 1081.75 560.103 1060.93 553.955C1052.61 551.375 1044.74 550.667 1036.26 549.904C1012.58 548.385 988.304 553.528 965.239 558.78C942.173 564.033 918.448 569.836 894.722 575.64C834.278 589.131 771.575 600.588 711.609 595.193C672.843 591.706 635.228 582.215 599.145 562.483C575.843 550.006 555.345 533.507 536.882 514.748C498.248 475.857 470.341 426.329 449.097 377.4C427.907 327.865 411.781 276.344 390.04 226.149C380.493 203.308 369.735 180.357 357.05 158.455C341.167 131.38 321.596 104.584 294.38 88.0918C266.559 71.5446 229.774 66.4034 202.699 82.2863" stroke="#8EC9E6" stroke-opacity="0.9" stroke-width="0.5" stroke-miterlimit="10"/>
<path opacity="0.9659" d="M1793.11 1306.77C1670.96 1334.25 1560.59 1305.39 1472.34 1254.71C1409.64 1218.54 1358.34 1171.18 1324.76 1123.58C1293.89 1079.89 1269.4 1033.11 1250.63 983.798C1243.18 964.809 1236.39 945.269 1230.15 926.389C1215.29 881.089 1204.07 836.115 1195.22 791.964C1192.73 778.917 1190.24 765.87 1187.75 752.823C1182.88 725.518 1178.62 698.267 1169.95 672.452C1166.63 661.773 1162.11 650.985 1156.92 640.749C1148.04 624.074 1136.13 607.127 1121.53 592.99C1105.27 576.872 1087.53 563.674 1066.77 556.921C1059.06 554.396 1051.24 553.082 1042.76 552.319C1019.74 550.248 996.782 554.289 974.377 558.99C951.971 563.691 929.566 568.393 906.555 573.039C848.147 584.271 788.744 592.972 729.548 585.814C691.496 581.17 653.99 570.468 618.513 550.79C595.265 537.707 574.161 521.154 555.644 503.001C516.404 464.055 487.068 416.841 465.109 369.069C442.544 321.242 425.043 271.429 402.588 222.391C392.381 200.101 380.962 177.702 367.672 155.746C351.183 128.616 331.557 102.426 303.736 85.8788C275.969 68.726 239.184 63.5848 211.613 78.2017" stroke="#8EC9E6" stroke-opacity="0.9" stroke-width="0.5" stroke-miterlimit="10"/>
<path opacity="0.9488" d="M1794.44 1312.38C1677.51 1336.06 1572.32 1304 1486.76 1250.51C1426.05 1212.68 1376.67 1164.27 1343.15 1116.07C1312.32 1071.78 1287.89 1024.39 1267.86 975.574C1259.8 956.531 1252.95 937.597 1246.11 918.662C1229.99 873.858 1217.39 830.592 1207.17 788.15C1204.02 775.654 1201.47 763.213 1198.32 750.717C1192.74 724.569 1187.15 698.42 1178.37 673.817C1174.4 663.689 1170.43 653.562 1164.58 643.877C1155.65 627.807 1143.02 612.017 1127.87 597.22C1111.61 581.102 1093.92 567.299 1074.42 560.049C1066.71 557.523 1058.95 555.604 1051.73 554.344C1029.98 551.777 1007.74 554.661 986.601 558.865C965.517 562.464 943.772 566.614 922.081 570.158C866.259 579.791 809.552 585.68 751.73 576.815C714.999 571.068 677.602 559.155 641.573 538.816C618.326 525.734 597.222 509.18 578.099 490.973C538.199 452.578 508.148 406.521 484.208 360.403C460.323 313.679 441.447 265.574 417.671 217.638C406.804 195.899 394.78 173.446 381.435 152.095C364.286 125.517 344.054 99.2721 316.288 82.1192C288.521 64.9664 251.185 59.1651 223.722 72.5705" stroke="#8EC9E6" stroke-opacity="0.9" stroke-width="0.5" stroke-miterlimit="10"/>
<path opacity="0.9317" d="M1798.25 1317.61C1686.6 1336.88 1586.58 1301.63 1503.61 1246.53C1445.48 1207.11 1396.76 1158.15 1363.35 1108.74C1333.19 1063.89 1308.2 1015.85 1287.56 966.973C1279.51 947.929 1272.06 928.941 1264.61 909.952C1247.83 865.699 1233.25 824.087 1221.7 782.747C1218.5 770.857 1215.29 758.967 1212.09 747.077C1205.79 722.085 1199.49 697.094 1190 673.647C1185.97 664.125 1181.33 654.549 1175.49 644.864C1165.89 629.346 1152.61 614.106 1138.06 599.364C1121.8 583.246 1104.77 568.892 1085.94 561.091C1078.89 558.014 1071.12 556.094 1063.91 554.834C1042.82 551.716 1021.84 554.103 1001.47 556.545C981.045 559.592 960.621 562.64 939.59 565.633C886.409 573.061 831.737 576.691 775.345 565.512C739.329 558.608 702.592 546.143 666.617 525.199C643.424 511.511 622.32 494.957 602.537 477.302C561.977 439.458 530.605 394.503 505.291 350.093C480.031 305.077 459.78 258.68 434.684 211.847C423.211 190.054 411.077 168.812 396.521 147.352C379.318 121.38 358.481 95.0803 330.108 77.8729C301.736 60.6656 265.06 54.313 237.706 66.507" stroke="#8EC9E6" stroke-opacity="0.9" stroke-width="0.5" stroke-miterlimit="10"/>
<path opacity="0.9146" d="M1804.58 1321.85C1697.61 1336.65 1602.71 1298.8 1523.03 1240.95C1466.83 1200.48 1419.49 1149.81 1386.13 1099.79C1356.03 1054.34 1331.04 1006.3 1309.79 957.368C1301.74 938.325 1293.68 919.282 1286.18 900.898C1268.13 857.142 1252.23 816.633 1239.26 777.607C1235.39 766.268 1232.13 754.984 1228.27 743.645C1221.25 719.81 1214.24 695.976 1204.03 673.686C1199.95 664.77 1194.71 655.139 1188.76 646.665C1178.5 631.699 1165.16 617.065 1150.01 602.268C1133.14 586.096 1116.78 571.19 1099.2 562.892C1092.15 559.815 1085.05 557.344 1078.44 556.139C1058.67 551.918 1038.35 553.754 1019.25 555.699C1000.14 557.644 980.38 560.141 960.67 562.031C910.13 567.254 858.099 568.68 803.081 555.792C767.78 547.731 731.152 534.055 695.232 512.505C672.039 498.817 650.329 482.209 630.546 464.553C588.72 427.207 556.634 383.408 529.944 340.707C503.31 297.399 481.738 252.104 455.322 206.374C443.188 185.132 430.449 163.835 415.839 142.981C398.03 116.954 376.532 91.2062 348.16 73.9989C319.787 56.7915 283.22 49.2275 255.261 61.3671" stroke="#8EC9E6" stroke-opacity="0.9" stroke-width="0.5" stroke-miterlimit="10"/>
<path opacity="0.8976" d="M1812.73 1326.24C1710.99 1337.24 1621.26 1296.2 1544.28 1235.54C1490.67 1193.47 1443.99 1142.25 1411.34 1091.07C1381.9 1045.07 1356.36 996.365 1333.85 947.933C1325.19 928.835 1317.13 909.791 1308.96 891.96C1289.65 848.7 1272.38 809.899 1258.03 772.581C1254.11 761.848 1249.64 750.455 1246.33 739.776C1238.6 717.098 1230.87 694.421 1219.95 673.288C1215.26 664.317 1210.51 655.952 1203.95 647.424C1193.59 633.669 1179.59 619.586 1164.49 604.184C1147.63 588.012 1131.92 572.555 1114.4 563.651C1108.01 560.023 1100.91 557.552 1094.3 556.347C1075.19 551.575 1056.19 552.308 1037.75 553.702C1019.36 554.49 1000.86 556.49 981.866 557.223C933.966 560.241 884.576 559.462 830.933 544.866C796.347 535.648 760.433 520.816 724.514 499.266C701.375 484.972 679.665 468.364 659.276 450.653C616.845 413.252 583.329 371.768 555.925 330.223C527.97 288.018 504.969 245.037 477.838 200.464C465.044 179.773 451.645 159.028 437.034 138.173C418.565 112.698 397.067 86.9495 368.144 69.0819C339.826 51.2689 302.653 43.6504 274.803 54.5785" stroke="#8EC9E6" stroke-opacity="0.9" stroke-width="0.5" stroke-miterlimit="10"/>
<path opacity="0.8805" d="M1823.36 1330.25C1726.9 1336.84 1642.34 1292.6 1567.95 1230.34C1516.32 1186.61 1470.96 1134.29 1438.37 1082.51C1408.98 1035.9 1383.44 987.198 1360.38 938.106C1351.71 919.008 1343 900.516 1334.28 882.024C1313.7 839.261 1295.06 802.168 1279.99 766.007C1275.47 755.219 1270.89 745.037 1266.91 734.91C1257.86 713.335 1249.42 691.814 1238.39 671.893C1233.65 663.528 1228.24 655.714 1221.63 647.792C1210.6 634.588 1196.55 621.111 1180.79 606.259C1163.93 590.087 1148.27 574.024 1132.02 564.624C1125.63 560.996 1119.13 558.58 1113.24 556.218C1095.39 550.949 1077.11 550.525 1059.99 550.817C1042.87 551.108 1025.14 551.345 1007.41 551.582C962.148 552.395 915.399 549.411 862.58 532.446C829.368 521.521 793.509 506.082 757.039 483.872C733.9 469.578 711.585 452.916 691.196 435.205C648.104 398.355 613.268 357.973 584.543 317.531C555.819 277.088 530.837 235.761 502.44 191.684C488.986 171.545 474.981 150.745 459.711 130.442C440.636 104.912 418.478 79.7151 389.554 61.8475C360.631 43.98 324.118 35.8103 296.376 45.527" stroke="#8EC9E6" stroke-opacity="0.9" stroke-width="0.5" stroke-miterlimit="10"/>
<path opacity="0.8634" d="M1835.81 1334.42C1744.58 1337.21 1665.19 1289.76 1593.5 1224.69C1544.4 1179.98 1499.75 1126.5 1467.27 1073.51C1438.54 1026.35 1412.45 976.982 1388.73 928.44C1379.46 909.288 1370.74 890.796 1361.36 872.855C1340.12 830.644 1319.55 794.598 1303.06 760.751C1297.87 750.515 1293.24 740.939 1288.61 731.363C1278.84 710.944 1269.68 690.581 1257.94 671.816C1253.14 664.057 1247.74 656.243 1240.46 648.872C1229.38 636.274 1214.67 623.348 1198.91 608.497C1181.49 591.664 1167.05 575.71 1151.46 565.759C1145.67 562.186 1139.23 559.163 1133.34 556.801C1116.15 550.981 1099.19 549.455 1082.73 549.195C1066.32 548.33 1049.86 548.07 1032.79 547.756C989.563 546.31 946.061 541.175 894.617 522.502C862.12 510.42 826.315 494.375 790.504 471.614C766.814 456.66 745.105 440.052 724.056 422.893C680.304 386.594 644.147 347.315 614.048 308.58C583.948 269.846 557.647 229.621 527.874 187.253C513.76 167.664 499.701 147.47 483.825 127.113C464.089 102.134 441.38 76.2767 413.062 58.4636C384.139 40.5961 347.681 31.8206 319.443 40.2714" stroke="#8EC9E6" stroke-opacity="0.9" stroke-width="0.5" stroke-miterlimit="10"/>
<path opacity="0.8463" d="M1849.53 1338.1C1763.57 1336.47 1689.31 1286.44 1620.25 1219.16C1573.13 1172.79 1530.35 1118.87 1497.98 1064.67C1469.31 1016.9 1443.22 967.536 1418.34 918.28C1409.07 899.128 1399.14 880.527 1389.71 863.192C1367.21 821.477 1345.26 787.14 1327.39 755.001C1322.15 745.371 1316.86 736.346 1312.22 726.769C1301.74 707.508 1291.87 688.301 1279.41 670.693C1274.56 663.54 1268.49 656.278 1261.22 648.907C1249.48 636.859 1234.11 624.485 1218.34 609.634C1200.93 592.801 1186.54 576.242 1171.61 565.739C1165.88 561.56 1160.04 558.592 1154.75 556.285C1138.89 549.362 1122.54 547.891 1107.45 545.923C1092.3 544.56 1076.56 543.143 1060.81 541.727C1020.22 538.076 978.812 530.076 929.348 509.75C897.566 496.51 862.476 479.309 826.114 455.887C802.424 440.933 780.109 424.271 759.06 407.111C714.702 370.758 677.776 333.241 646.302 296.215C614.828 259.189 587.757 220.727 556.113 178.801C541.944 159.818 526.674 139.515 510.137 119.709C489.796 94.6755 467.032 69.4241 438.109 51.5565C409.185 33.689 372.782 24.3078 344.047 31.4927" stroke="#8EC9E6" stroke-opacity="0.9" stroke-width="0.5" stroke-miterlimit="10"/>
<path opacity="0.8293" d="M1864.4 1342.49C1783.73 1336.46 1714.58 1283.83 1648.22 1213.74C1603.63 1166.38 1561.62 1110.7 1529.25 1056.49C1500.63 1008.12 1474.59 958.149 1449.05 909.445C1439.18 890.238 1429.25 871.637 1419.21 854.247C1395.44 813.029 1372.73 780.454 1352.93 749.364C1347.03 740.284 1341.74 731.259 1336.39 722.84C1325.2 704.736 1314.55 687.291 1301.38 670.841C1295.86 664.239 1289.75 657.582 1282.42 650.816C1269.96 639.926 1254.54 628.158 1238.83 612.7C1221.41 595.868 1207.69 578.757 1193.42 567.703C1188.29 563.579 1182.51 560.005 1177.22 557.698C1162.02 550.224 1146.98 547.65 1132.55 545.131C1118.13 542.611 1103.64 540.698 1088.61 538.124C1050.67 532.268 1011.89 522.063 963.2 499.975C932.133 485.578 897.152 467.166 861.396 443.798C837.76 428.238 815.445 411.576 793.79 394.362C748.166 358.506 710.471 322.752 677.677 286.828C644.882 250.904 616.436 214.151 583.417 173.932C568.589 155.501 552.658 135.749 536.121 115.943C515.12 91.4607 491.751 66.1548 462.827 48.2872C433.352 29.7595 396.948 20.3783 368.874 27.0119" stroke="#8EC9E6" stroke-opacity="0.9" stroke-width="0.5" stroke-miterlimit="10"/>
<path opacity="0.8122" d="M1881.09 1347.05C1805.04 1337.15 1741.67 1281.38 1678.61 1208.54C1636 1159.52 1595.26 1103.34 1563 1047.92C1535.03 999.002 1508.39 948.977 1482.3 899.612C1472.37 881.011 1461.89 861.75 1451.8 844.966C1426.77 804.244 1402.68 773.378 1382.11 744.05C1376.16 735.576 1370.2 727.102 1364.8 719.289C1352.89 702.341 1341.53 686.054 1327.64 670.76C1322.08 664.764 1315.96 658.107 1307.97 651.893C1295.46 641.609 1279.37 630.391 1263.06 614.88C1245.04 597.993 1231.97 580.331 1218.97 568.78C1213.9 564.05 1208.72 560.531 1204.09 557.672C1190.15 549.701 1175.83 545.971 1162.67 542.955C1149.51 539.939 1135.74 536.868 1121.37 533.743C1086.07 525.682 1049.94 513.273 1002.67 488.87C972.923 473.371 938.052 453.747 901.744 429.72C878.109 414.16 855.242 396.837 833.533 380.229C787.249 344.924 748.234 310.272 714.064 276.057C679.894 241.841 650.074 206.796 616.395 167.129C600.96 148.643 584.975 129.497 567.172 110.187C545.511 86.2561 522.141 60.9501 492.667 42.4224C463.192 23.8947 426.843 13.9077 398.271 19.2754" stroke="#8EC9E6" stroke-opacity="0.9" stroke-width="0.5" stroke-miterlimit="10"/>
<path opacity="0.7951" d="M1898.98 1351.71C1828.22 1337.4 1769.96 1279.04 1709.55 1203.99C1668.86 1153.93 1629.5 1096.04 1597.89 1040.07C1569.99 990.545 1543.4 939.914 1516.04 891.046C1505.51 872.391 1494.98 853.735 1484.33 836.291C1458.64 796.121 1432.62 766.302 1410.63 739.288C1404.01 731.366 1398 723.498 1391.99 715.63C1379.37 699.839 1367.3 684.709 1352.69 670.572C1347.07 665.181 1340.29 659.076 1332.25 653.468C1319.08 643.734 1302.94 633.123 1286.57 618.217C1268.55 601.33 1256.15 583.116 1243.2 570.96C1238.13 566.23 1233.55 562.765 1228.98 559.301C1215.7 550.779 1202.7 545.946 1190.25 541.773C1177.81 537.6 1165.3 534.033 1152.25 529.805C1119.59 519.54 1086.1 504.925 1039.6 478.76C1010.57 462.104 976.361 441.928 940.108 417.295C916.527 401.13 893.606 384.413 871.291 367.75C824.401 332.391 784.011 299.447 748.466 266.94C712.922 234.432 681.726 201.095 646.727 162.53C630.632 144.596 613.987 126.001 596.184 106.691C574.523 82.7604 549.887 57.9512 520.413 39.4234C490.938 20.8957 454.643 10.3031 425.575 14.4048" stroke="#8EC9E6" stroke-opacity="0.9" stroke-width="0.5" stroke-miterlimit="10"/>
<path opacity="0.778" d="M1917.93 1358.3C1852.39 1340.19 1799.31 1278.63 1741.59 1200.77C1703.49 1149.11 1664.79 1090.67 1633.29 1033.49C1606.05 983.411 1578.85 932.725 1550.89 883.803C1540.36 865.147 1529.22 846.437 1517.92 829.544C1490.95 789.871 1463.56 761.761 1440.19 736.455C1433.52 729.138 1426.85 721.821 1420.19 714.504C1406.85 699.871 1393.45 685.843 1378.74 672.917C1372.51 667.472 1365.63 662.578 1357.58 656.97C1343.75 647.788 1327.56 637.782 1310.58 622.821C1291.96 605.88 1280.21 587.115 1268.58 573.857C1264.12 569.181 1259.6 565.11 1255.63 561.7C1243.67 552.076 1231.34 546.692 1220.15 542.022C1208.97 537.352 1197.18 532.628 1184.85 527.244C1154.22 514.719 1123.98 497.954 1078.91 469.475C1050.59 451.662 1016.49 430.275 980.238 405.642C956.656 389.476 933.79 372.154 910.815 356.043C863.265 321.234 821.554 289.393 785.24 258.648C748.321 227.849 715.805 195.614 679.485 158.152C662.73 140.768 645.424 122.725 627.622 103.415C605.3 80.0356 580.665 55.2264 550.584 36.6442C520.504 18.0619 484.869 6.91808 455.91 9.80839" stroke="#8EC9E6" stroke-opacity="0.9" stroke-width="0.5" stroke-miterlimit="10"/>
<path opacity="0.761" d="M1936.82 1365.49C1876.56 1342.97 1828 1278.76 1773.58 1198.15C1737.41 1145.44 1700.02 1085.9 1668.64 1027.51C1641.44 976.822 1614.3 925.531 1585.74 876.554C1574.6 857.843 1563.46 839.133 1551.49 822.792C1523.27 783.615 1494.5 757.213 1469.81 733.01C1462.48 726.244 1455.76 719.533 1449.03 712.822C1434.98 699.345 1420.87 686.474 1405.45 674.706C1399.16 669.866 1392.28 664.972 1383.52 660.521C1369.58 652.55 1352.12 643.041 1335.8 627.529C1317.18 610.588 1306.09 591.272 1295.12 577.462C1290.71 572.181 1286.8 568.165 1282.83 564.755C1271.54 554.579 1260.46 548.698 1250 542.871C1239.53 537.045 1229.06 531.218 1217.99 525.337C1190 510.607 1161.8 491.583 1118.71 461.45C1091.11 442.48 1057.72 419.937 1021.52 394.698C997.94 378.532 974.468 361.155 951.492 345.044C903.282 310.786 860.857 280.102 822.562 251.011C784.928 221.369 750.377 191.393 712.737 155.034C695.322 138.202 677.41 120.103 658.947 101.345C636.02 77.9109 610.725 53.6529 580.699 34.465C550.673 15.277 514.487 3.47294 485.528 6.36326" stroke="#8EC9E6" stroke-opacity="0.9" stroke-width="0.5" stroke-miterlimit="10"/>
<path opacity="0.7439" d="M1956.87 1373.41C1901.9 1346.48 1858.45 1279.68 1806.67 1196.86C1773.03 1143.15 1736.41 1081.85 1705.69 1022.91C1679.16 971.67 1651.41 920.324 1621.63 871.238C1610.49 852.528 1598.75 833.764 1586.18 817.367C1556.69 778.688 1526.6 753.388 1501.09 731.553C1493.76 724.787 1486.37 718.627 1478.93 713.073C1463.56 700.699 1449.34 689.04 1433.2 678.428C1426.87 674.194 1419.32 669.852 1411.16 665.454C1396.57 658.035 1379.05 649.132 1362.13 633.565C1343.5 616.624 1332.47 596.703 1322.16 582.342C1318.36 577.114 1314.5 572.493 1311.19 568.532C1301.16 557.859 1290.81 550.821 1281.66 543.892C1272.51 536.963 1262.71 530.585 1252.29 524.153C1226.95 507.218 1201.38 485.989 1159.12 453.488C1132.84 433.415 1099.56 409.66 1062.75 384.367C1039.23 367.596 1015.75 350.219 992.174 334.053C942.752 299.686 899.503 271.371 859.943 242.777C820.934 214.842 785.062 185.969 746.102 150.712C728.026 134.431 710.06 116.939 690.992 98.1258C667.404 75.2428 642.109 50.9849 611.477 31.7424C581.451 12.5545 545.32 0.144694 515.864 1.76908" stroke="#8EC9E6" stroke-opacity="0.9" stroke-width="0.5" stroke-miterlimit="10"/>
<path opacity="0.7268" d="M1977.36 1383.19C1927.62 1352.45 1889.34 1282.45 1840.25 1196.82C1808.6 1141.46 1773.25 1079.66 1742.63 1019.51C1716.15 967.669 1688.46 915.718 1658.08 866.577C1646.33 847.813 1634.59 829.048 1621.36 813.203C1591.2 775.074 1559.14 751.428 1532.25 731.301C1524.26 725.087 1516.82 719.533 1509.38 713.979C1493.29 702.762 1478.36 692.259 1461.51 682.804C1454.51 679.122 1446.91 675.385 1438.7 671.594C1424.05 664.78 1405.87 656.428 1388.95 640.861C1369.72 623.866 1359.95 603.447 1350.31 588.535C1346.56 582.702 1343.3 578.135 1340 574.174C1330.68 562.345 1321.59 554.81 1313.1 547.33C1304.61 539.849 1296.13 532.369 1287.04 524.834C1264.33 505.695 1241.41 482.26 1200.52 448.051C1174.95 426.822 1141.73 402.461 1105.64 376.011C1082.11 359.239 1058.03 341.808 1034.45 325.642C984.37 291.827 939.8 264.614 899.471 237.782C859.087 211.556 821.841 184.391 782.165 150.291C763.43 134.561 744.858 117.014 725.129 98.7526C700.936 75.815 675.035 51.5026 645.009 32.3147C614.377 13.0722 578.906 0.111198 549.559 0.524155" stroke="#8EC9E6" stroke-opacity="0.9" stroke-width="0.5" stroke-miterlimit="10"/>
<path opacity="0.7098" d="M1998.35 1394.24C1953.89 1359.09 1920.73 1286.5 1874.28 1198.67C1844.55 1142.26 1811.18 1078.8 1780.62 1018.05C1754.8 965.652 1726.51 913.647 1695.52 864.452C1683.77 845.687 1671.37 827.474 1658.14 811.629C1626.72 773.997 1593.28 752.059 1565.07 733.035C1557.02 727.426 1548.92 722.423 1540.83 717.42C1524.08 706.754 1508.38 698.014 1490.8 689.717C1483.75 686.64 1476.15 682.903 1467.28 679.663C1451.97 673.4 1433.68 666.259 1416.16 650.639C1396.93 633.643 1387.22 612.619 1378.83 597.21C1375.69 591.431 1372.49 586.259 1369.79 582.352C1361.74 570.026 1353.36 561.334 1346.2 552.752C1338.43 544.114 1331.21 536.137 1322.83 527.446C1302.77 506.101 1282.48 480.462 1243.02 443.939C1218.22 420.947 1185.66 396.035 1149.57 369.585C1126.1 352.207 1102.02 334.776 1077.78 319.161C1027.04 285.897 981.147 259.787 939.442 234.663C897.738 209.54 859.062 184.689 818.121 151.085C798.725 135.906 779.493 118.911 759.764 100.649C734.911 78.2629 709.01 53.9505 678.378 34.708C647.746 15.4656 611.724 1.8444 582.486 1.04593" stroke="#8EC9E6" stroke-opacity="0.9" stroke-width="0.5" stroke-miterlimit="10"/>
<path opacity="0.6927" d="M2018.57 1407.05C1978.72 1368.05 1950.68 1292.86 1907.59 1201.66C1880.4 1144.26 1847.74 1079.65 1817.29 1017.68C1791.52 964.682 1763.28 912.071 1731.69 862.822C1719.34 844.002 1706.93 825.789 1693.1 809.89C1660.41 772.754 1625.59 752.525 1596.01 735.208C1587.31 730.151 1578.55 725.699 1570.39 721.302C1552.93 711.793 1536.52 704.21 1518.17 697.675C1511.07 695.204 1502.81 692.018 1493.88 689.384C1477.86 684.278 1459.57 677.138 1442.05 661.517C1422.81 644.521 1413.16 622.891 1405.44 606.931C1402.29 601.153 1399.7 596.034 1397.05 591.522C1389.66 578.645 1382.6 568.851 1376.1 559.717C1369.59 550.583 1363.09 541.449 1356.03 531.655C1338.61 508.105 1320.36 480.207 1282.28 441.975C1258.19 417.826 1225.74 391.703 1189.7 364.647C1166.23 347.27 1141.55 329.784 1117.3 314.169C1065.9 281.457 1018.69 256.448 975.613 233.033C932.533 209.618 892.537 185.869 850.221 153.974C830.219 138.741 810.933 122.351 790.544 104.64C765.03 82.8052 738.523 58.4382 707.892 39.1958C677.315 19.3476 641.292 5.72645 611.558 3.66205" stroke="#8EC9E6" stroke-opacity="0.9" stroke-width="0.5" stroke-miterlimit="10"/>
<path opacity="0.6756" d="M2039.23 1421.73C2004.67 1378.31 1981.74 1300.54 1941.35 1206.53C1916.08 1148.08 1884.8 1081.76 1854.4 1019.19C1828.69 965.581 1800.45 912.97 1767.64 863.611C1755.29 844.792 1742.28 826.524 1727.79 811.176C1693.83 774.538 1657.7 755.411 1627.29 740.463C1617.93 735.956 1609.17 731.505 1600.96 727.713C1582.78 719.361 1565.05 712.881 1546.6 707.557C1539.44 705.692 1530.51 703.057 1521.59 700.423C1505.51 695.923 1485.96 689.279 1468.43 673.658C1448.65 656.002 1440.2 634.481 1433.14 617.97C1430.66 611.64 1428.07 606.522 1426.08 601.458C1419.95 588.084 1413.61 577.133 1408.37 567.503C1402.58 557.212 1396.74 547.527 1390.94 537.236C1375.56 511.427 1360.55 481.378 1323.9 440.833C1301.14 415.581 1268.74 388.852 1232.76 361.19C1209.34 343.208 1184.65 325.722 1159.81 310.053C1107.8 277.285 1059.82 254.04 1014.76 232.278C970.912 210.625 929.541 188.585 885.353 157.132C865.297 142.505 844.744 126.611 823.75 108.846C797.63 86.9569 770.463 63.1412 739.886 43.293C708.703 23.3904 673.341 9.21797 643.661 6.54785" stroke="#8EC9E6" stroke-opacity="0.9" stroke-width="0.5" stroke-miterlimit="10"/>
<path opacity="0.6585" d="M2059.73 1438.22C2030.45 1390.4 2012.64 1310.03 1974.89 1213.82C1951.6 1153.72 1921.59 1086.9 1891.9 1023.17C1866.85 969.015 1838.06 915.743 1804.6 866.936C1791.64 848.062 1778.63 829.794 1763.47 814.997C1728.86 778.91 1691.35 761.491 1659.01 747.591C1649.59 743.691 1640.18 739.79 1631.31 736.55C1612.42 729.355 1593.97 724.031 1574.8 719.865C1567.04 717.945 1558.61 716.576 1549.08 713.887C1532.34 709.939 1512.73 703.9 1495.21 688.279C1475.43 670.624 1467.04 648.497 1461.24 631.489C1458.75 625.159 1456.82 619.49 1454.83 614.426C1449.43 599.895 1444.29 589.053 1439.82 577.66C1435.3 566.872 1430.22 555.424 1425.7 544.637C1412.95 516.623 1400.59 484.369 1365.31 442.116C1343.26 415.707 1311.57 387.821 1275.04 359.5C1251.63 341.517 1226.94 324.031 1201.49 308.307C1148.82 276.091 1099.47 254.554 1053.69 233.949C1008.52 213.399 965.777 193.066 920.82 163.376C900.104 149.3 878.946 133.352 857.897 116.193C831.117 94.8547 803.95 71.039 772.767 51.1363C741.584 31.2337 706.277 16.4556 676.1 12.5195" stroke="#8EC9E6" stroke-opacity="0.9" stroke-width="0.5" stroke-miterlimit="10"/>
<path opacity="0.6415" d="M2079.46 1456.48C2055.4 1404.86 2042.11 1321.84 2007.71 1222.27C1986.35 1161.12 1957.65 1093.2 1928.08 1028.25C1903.09 973.493 1874.3 920.221 1840.28 870.754C1827.32 851.88 1813.65 834.163 1797.94 818.706C1762.06 783.116 1723.18 767.405 1689.47 755.213C1679.39 751.864 1669.91 748.569 1660.39 745.88C1640.78 739.842 1621.61 735.675 1601.74 732.666C1593.92 731.351 1584.88 729.928 1575.25 728.451C1557.79 725.659 1538.13 720.226 1520.05 703.945C1500.27 686.29 1492.49 664.218 1486.8 645.998C1484.97 639.117 1483.04 633.448 1481.66 628.438C1477.52 613.411 1473.1 601.412 1469.9 589.522C1466.09 577.577 1462.28 565.633 1458.46 553.688C1448.36 523.469 1438.64 489.011 1404.18 444.389C1382.85 416.823 1351.27 387.726 1315.35 359.459C1291.98 340.87 1266.69 323.33 1241.19 308.212C1187.25 276.492 1137.18 256.112 1090.03 237.215C1043.49 218.373 999.368 199.749 953.145 170.555C931.769 157.031 909.951 141.634 888.296 124.421C861.516 103.082 833.083 79.7632 801.9 59.8605C770.717 39.9579 734.859 24.5195 704.791 19.3721" stroke="#8EC9E6" stroke-opacity="0.9" stroke-width="0.5" stroke-miterlimit="10"/>
<path opacity="0.6244" d="M2098.97 1477.17C2080.2 1421.14 2072.02 1335.52 2040.32 1233.14C2020.88 1170.94 1993.56 1101.32 1964.04 1035.77C1939.71 980.453 1910.37 926.521 1875.08 877.55C1861.52 858.622 1847.24 840.851 1832.09 826.054C1794.94 790.96 1754.74 776.352 1719.6 766.474C1709.46 763.731 1699.33 760.987 1689.8 758.298C1669.48 753.417 1649.6 750.407 1629.01 748.554C1621.13 747.846 1611.44 746.974 1601.8 745.496C1584.29 743.31 1563.97 738.429 1545.84 722.754C1525.45 705.044 1518.33 682.42 1513.91 663.704C1512.08 656.823 1510.81 650.602 1509.43 645.593C1505.95 630.014 1503.46 616.967 1500.31 604.472C1497.82 591.425 1494.66 578.929 1492.12 566.488C1484.66 534.064 1477.57 497.4 1444.49 451.07C1423.88 422.348 1393.01 392.094 1356.54 363.166C1332.57 344.523 1307.94 326.431 1281.77 311.865C1227.23 280.091 1175.79 261.419 1127.26 244.23C1079.34 227.096 1033.85 210.18 986.304 182.089C964.268 169.115 942.45 153.719 920.134 137.057C892.695 116.269 864.262 92.9505 832.528 72.3877C800.739 52.4305 765.54 36.4409 735.581 30.082" stroke="#8EC9E6" stroke-opacity="0.9" stroke-width="0.5" stroke-miterlimit="10"/>
<path opacity="0.6073" d="M2117.11 1499.56C2103.56 1439.72 2099.95 1350.86 2071.5 1246.32C2053.98 1183.08 2027.98 1112.35 1999.18 1045.64C1974.9 989.723 1945.61 935.186 1909.72 886.161C1896.16 867.233 1881.28 849.407 1865.46 835.161C1827.05 800.564 1785.47 787.664 1749.62 778.943C1738.88 776.145 1728.63 774.613 1718.45 772.475C1696.8 768.696 1676.81 766.898 1655.51 766.202C1646.97 766.045 1637.83 765.833 1627.53 764.907C1609.36 763.272 1588.99 758.997 1570.25 743.267C1549.86 725.556 1543.4 702.382 1539.64 683.114C1538.42 676.288 1537.2 669.462 1536.48 663.901C1534.32 647.22 1532.49 633.622 1530.66 620.023C1528.83 606.425 1527 592.827 1525.17 579.229C1520.34 544.6 1515.3 505.677 1483.65 457.033C1464.35 427.209 1433.54 396.349 1397.12 366.815C1373.2 347.567 1347.91 330.026 1321.75 315.459C1266.55 284.237 1214.39 266.722 1164.54 250.636C1115.3 234.604 1068.43 219.396 1019.57 192.407C996.872 179.985 974.394 165.14 952.079 148.477C924.033 127.636 894.995 104.262 863.206 84.3052C831.472 63.7424 796.328 47.1471 765.818 40.1279" stroke="#8EC9E6" stroke-opacity="0.9" stroke-width="0.5" stroke-miterlimit="10"/>
<path opacity="0.5902" d="M2134.97 1524.99C2126.1 1460.68 2127.56 1369.83 2102.46 1261.94C2087.48 1197.7 2062.25 1125.2 2033.5 1057.89C2009.27 1001.37 1979.99 946.83 1943.49 897.75C1929.32 878.768 1914.44 860.942 1898.02 846.642C1858.95 812.596 1815.38 801.35 1778.16 794.337C1767.36 792.144 1756.51 790.558 1746.22 789.632C1723.86 787.01 1703.16 786.368 1681.13 786.829C1672.54 787.278 1662.8 787.012 1652.45 786.691C1633.56 786.213 1612.52 782.489 1594.45 766.208C1574.06 748.498 1567.65 724.718 1564.55 704.899C1563.38 697.467 1562.72 691.3 1562.05 685.134C1560.55 667.902 1560.04 653.201 1558.87 639.052C1558.36 624.351 1557.19 610.201 1556.68 595.501C1553.89 558.613 1552.09 517.539 1521.82 467.187C1503.23 436.206 1472.53 404.134 1436.17 373.995C1412.25 354.747 1387.02 336.6 1360.24 321.979C1304.38 291.308 1250.9 274.895 1199.68 260.517C1149.07 246.194 1100.82 232.694 1050.64 206.808C1027.28 194.937 1004.2 180.037 981.224 163.926C952.518 143.635 923.479 120.262 891.745 99.6991C860.011 79.1362 824.316 61.8807 793.86 54.2559" stroke="#8EC9E6" stroke-opacity="0.9" stroke-width="0.5" stroke-miterlimit="10"/>
<path opacity="0.5732" d="M2151.46 1552.11C2147.87 1483.4 2154.44 1389.96 2131.98 1279.86C2118.93 1214.57 2095.02 1140.97 2066.38 1072.45C2042.81 1015.37 2012.97 960.175 1975.21 911.592C1961.04 892.61 1945.55 874.73 1928.47 860.981C1888.08 828.037 1843.2 817.893 1804.6 812.588C1793.14 810.947 1782.24 809.966 1771.28 809.591C1748.21 808.126 1726.79 808.642 1704 810.866C1695.36 811.92 1684.95 812.205 1674.54 812.49C1655.6 812.618 1633.91 809.445 1615.22 793.109C1594.23 775.345 1589.09 751.068 1586.64 730.698C1586.09 723.32 1585.48 716.548 1585.41 710.437C1585.18 692.707 1585.38 676.85 1585.53 661.598C1585.68 646.346 1585.84 631.094 1586.04 615.236C1585.89 576.144 1586.73 532.865 1557.89 480.199C1540.02 448.061 1510.03 414.832 1473.67 384.693C1449.81 364.839 1423.91 347.244 1397.14 332.623C1340.67 301.897 1285.76 287.798 1233.22 274.523C1181.84 261.962 1131.67 249.51 1080.77 224.781C1056.75 213.461 1033.61 199.167 1010.03 183.001C980.667 163.262 951.022 139.834 919.288 119.271C886.948 98.6537 851.913 80.847 821.567 72.0107" stroke="#8EC9E6" stroke-opacity="0.9" stroke-width="0.5" stroke-miterlimit="10"/>
<path opacity="0.5561" d="M2166.41 1582.77C2168.05 1510.25 2179.19 1413.55 2160.03 1300.7C2148.96 1233.76 2126.31 1159.67 2098.39 1089.98C2074.88 1032.3 2045.04 977.106 2006.73 927.863C1991.95 908.826 1976.41 891.551 1958.72 877.748C1917.06 845.301 1870.86 836.259 1830.83 833.268C1819.32 832.233 1807.76 831.803 1796.19 831.374C1772.41 831.066 1749.67 832.684 1726.77 836.119C1717.52 837.119 1707.61 838.67 1696.6 838.9C1676.99 839.58 1655.24 837.012 1636.56 820.677C1615.57 802.912 1610.48 778.029 1609.3 757.162C1608.8 749.179 1608.79 742.462 1608.73 736.35C1609.21 717.464 1610.63 701.715 1611.49 685.306C1612.96 668.952 1613.78 653.149 1615.25 636.795C1617.74 595.497 1620.62 549.959 1593.15 495.585C1575.99 462.29 1546.12 427.85 1509.75 397.711C1485.89 377.856 1460.05 359.655 1432.61 345.586C1374.88 315.357 1319.26 302.414 1265.34 290.847C1212.64 279.389 1161.04 269.251 1108.82 245.624C1084.2 234.25 1060.4 220.507 1036.16 204.893C1006.18 185.099 976.486 162.277 944.146 141.659C911.806 121.042 876.825 102.63 845.982 92.5273" stroke="#8EC9E6" stroke-opacity="0.9" stroke-width="0.5" stroke-miterlimit="10"/>
<path opacity="0.539" d="M2179.32 1615.68C2186.24 1538.76 2201.84 1440.02 2186.04 1323.8C2176.89 1255.81 2155.62 1180.01 2127.75 1109.72C2104.9 1051.49 2074.51 995.634 2035.54 946.942C2020.77 927.905 2004.62 910.576 1986.32 896.718C1943.4 864.768 1895.82 857.435 1855.08 855.601C1842.91 855.117 1831.29 855.293 1819.67 855.469C1795.17 856.318 1771.72 859.093 1748.1 863.685C1738.8 865.291 1728.28 866.787 1717.16 868.229C1696.85 870.065 1675.09 867.498 1655.75 851.714C1634.76 833.949 1629.72 808.46 1629.21 787.042C1629.31 779.114 1629.36 771.79 1629.9 765.733C1631.65 746.35 1633.78 729.445 1635.91 712.539C1638.04 695.634 1640.23 678.122 1642.36 661.217C1647.49 617.714 1653.01 569.971 1626.91 513.889C1610.47 479.437 1581.26 444.446 1545 413.095C1521.14 393.241 1495.3 375.04 1467.26 360.916C1408.87 331.238 1351.93 319.398 1297.24 309.594C1243.16 299.844 1190.19 291.414 1136.7 268.284C1111.42 257.46 1086.96 244.269 1062.72 228.654C1032.09 209.412 1001.78 186.535 969.496 165.312C937.21 144.089 902.229 125.677 870.889 114.309" stroke="#8EC9E6" stroke-opacity="0.9" stroke-width="0.5" stroke-miterlimit="10"/>
<path opacity="0.522" d="M2188.33 1651.3C2200.48 1570.57 2220.65 1468.58 2208.09 1350.21C2200.87 1281.17 2180.92 1204.27 2153.16 1132.77C2130.31 1074.54 2099.97 1018.07 2059.84 968.667C2045.01 950.236 2028.31 932.247 2009.96 918.994C1966.38 887.596 1916.82 881.916 1874.7 881.79C1862.48 881.912 1850.25 882.033 1837.92 883.366C1812.71 885.372 1788.54 889.304 1764.21 895.053C1754.85 897.264 1743.67 899.312 1732.55 900.754C1712.18 903.196 1689.72 901.785 1670.43 885.396C1648.83 867.576 1645.06 841.591 1645.26 819.016C1645.36 811.087 1646.07 803.213 1646.67 796.55C1649.68 776.67 1652.53 758.608 1655.37 740.545C1658.82 722.537 1661.67 704.475 1664.52 686.412C1672.29 640.705 1680.45 590.757 1655.78 532.361C1640.66 496.806 1611.56 460.604 1574.69 429.199C1550.89 408.739 1524.44 390.483 1496.4 376.359C1437.35 347.232 1379.69 336.55 1323.03 328.399C1267.57 320.357 1213.28 313.03 1158.41 291.608C1132.47 281.336 1107.41 268.09 1082.51 253.026C1051.27 233.729 1020.91 211.458 988.017 190.181C955.126 168.903 920.2 149.885 889.52 137.966" stroke="#8EC9E6" stroke-opacity="0.9" stroke-width="0.5" stroke-miterlimit="10"/>
<path opacity="0.5049" d="M2194.59 1690.33C2212.02 1605.19 2237.31 1500.61 2227.45 1379.43C2222.15 1309.34 2203.58 1230.73 2176.47 1158.68C2153.68 1099.84 2123.4 1042.78 2082.61 993.92C2067.17 975.434 2050.47 957.445 2031.46 944.744C1986.62 913.842 1935.74 909.265 1892.18 911.453C1879.3 912.126 1867.02 912.853 1854.69 914.186C1828.76 917.349 1803.88 922.438 1778.83 929.344C1769.42 932.161 1758.19 934.814 1746.46 936.202C1725.43 939.195 1702.31 938.335 1683.02 921.946C1661.42 904.126 1657.7 877.535 1659.17 854.464C1659.33 845.929 1660.64 838.109 1661.85 831.501C1665.57 810.464 1669.68 791.905 1673.79 773.346C1677.96 754.181 1682.07 735.622 1686.19 717.062C1696.6 669.15 1707.4 616.998 1683.5 556.839C1669.1 520.127 1640.1 482.713 1603.9 450.757C1580.09 430.297 1553.64 412.041 1525 397.863C1465.34 368.682 1406.31 359.707 1348.27 353.264C1291.49 346.325 1236.37 341.366 1180.25 320.441C1154.25 310.774 1128.53 298.08 1103.02 282.962C1071.73 264.271 1040.16 241.891 1007.26 220.613C974.373 199.336 939.501 179.712 908.325 166.526" stroke="#8EC9E6" stroke-opacity="0.9" stroke-width="0.5" stroke-miterlimit="10"/>
<path opacity="0.4878" d="M2198.15 1732.17C2220.81 1643.23 2250.61 1536 2244.1 1411.46C2240.79 1339.72 2224.08 1260.66 2196.48 1187.35C2174.35 1127.96 2143.46 1070.84 2102.12 1021.32C2086.69 1002.83 2069.33 985.396 2049.77 972.035C2003.65 941.63 1951.4 938.761 1906.53 942.051C1892.98 943.275 1880.04 944.554 1867.66 946.493C1841.01 950.812 1815.41 957.058 1789.65 965.121C1779.58 968.489 1768.3 971.749 1756.52 973.742C1734.77 977.892 1711.64 977.032 1691.75 960.588C1669.6 942.108 1667.1 915.627 1668.62 891.949C1669.38 883.469 1670.69 875.649 1671.95 868.435C1676.94 846.902 1681.77 827.186 1686.54 808.075C1691.98 788.414 1696.8 768.697 1701.63 748.981C1714.08 698.809 1727.52 644.452 1705.66 582.034C1691.97 544.165 1663.69 505.594 1626.87 473.584C1603.12 452.518 1576.07 434.208 1547.37 420.635C1487.05 392.005 1426.7 384.133 1367.89 379.453C1310.35 374.276 1253.25 370.971 1195.8 351.148C1169.14 342.033 1142.81 329.284 1117.25 314.772C1085.35 296.026 1053.12 274.197 1020.29 252.314C987.394 231.036 952.577 210.807 920.904 196.355" stroke="#8EC9E6" stroke-opacity="0.9" stroke-width="0.5" stroke-miterlimit="10"/>
<path opacity="0.4707" d="M2199.02 1776.83C2226.35 1683.42 2261.27 1573.59 2258.01 1446.9C2256.62 1374.11 2241.24 1293.96 2213.75 1219.43C2191.67 1159.44 2160.84 1101.71 2118.23 1052.69C2102.19 1034.15 2084.83 1016.71 2064.61 1003.9C2017.23 973.994 1964.21 972.888 1917.35 977.832C1903.81 979.056 1890.16 981.492 1877.11 983.982C1849.75 989.458 1823.44 996.861 1796.96 1006.08C1786.89 1009.45 1775.55 1013.31 1763.11 1015.86C1741.31 1020.61 1717.52 1020.31 1697.58 1004.47C1675.43 985.988 1672.98 958.901 1675.76 934.726C1676.53 926.246 1678.5 917.875 1680.37 910.716C1686.02 888.631 1692.11 868.418 1698.26 847.599C1704.4 826.781 1710.5 806.568 1716.64 785.749C1731.74 733.373 1747.82 676.81 1726.72 612.63C1713.8 572.998 1686.12 534.482 1649.42 501.26C1625.67 480.194 1598.67 461.278 1569.32 448.256C1508.34 420.178 1446.61 414.014 1386.53 409.83C1327.62 406.362 1269.19 404.159 1210.37 386.044C1183.05 377.481 1156.06 365.283 1129.9 350.716C1097.34 332.522 1065.16 310.087 1031.66 288.755C998.222 266.817 963.405 246.588 932.447 230.979" stroke="#8EC9E6" stroke-opacity="0.9" stroke-width="0.5" stroke-miterlimit="10"/>
<path opacity="0.4537" d="M2197.69 1825.55C2230.3 1727.74 2269.73 1615.27 2269.77 1485.82C2269.71 1411.93 2256.3 1330.12 2229.47 1255.04C2208.05 1194.5 2176.61 1136.71 2133.4 1087.64C2117.36 1069.1 2099.4 1051.61 2078.57 1038.74C2029.92 1009.33 1975.52 1009.93 1927.9 1016.64C1913.7 1018.41 1900.05 1020.85 1886.95 1023.94C1858.27 1030.52 1831.24 1039.08 1804.65 1049.51C1794.53 1053.49 1782.53 1057.9 1770.03 1061.05C1747.57 1066.36 1723.68 1067.26 1703.18 1050.77C1681.03 1032.29 1679.24 1004.65 1682.69 979.922C1684.11 970.891 1686.08 962.52 1688 954.755C1694.92 932.173 1701.73 910.803 1708.53 889.434C1715.95 868.118 1722.75 846.748 1729.62 824.773C1747.35 770.191 1766.12 710.818 1746.41 644.929C1734.2 604.141 1706.63 564.413 1669.93 531.191C1646.23 509.519 1618.58 491.155 1589.22 478.133C1527.03 449.946 1464.53 445.544 1403.08 443.069C1342.84 440.703 1282.99 440.814 1222.9 423.196C1194.92 415.184 1167.93 402.986 1141.11 388.97C1107.94 370.721 1075.11 348.838 1042.27 326.955C1008.83 305.017 974.119 283.576 942.609 267.308" stroke="#8EC9E6" stroke-opacity="0.9" stroke-width="0.5" stroke-miterlimit="10"/>
<path opacity="0.4366" d="M2193.61 1877.7C2231.45 1776.08 2275.45 1660.36 2278.74 1528.76C2280.6 1453.82 2268.51 1370.91 2241.79 1294.62C2220.43 1233.47 2189.04 1175.08 2145.22 1125.95C2128.58 1107.36 2110.61 1089.86 2089.13 1077.55C2039.82 1048.69 1983.5 1050.34 1934.5 1058.76C1920.24 1061.14 1905.93 1064.12 1892.17 1067.77C1862.77 1075.51 1835.03 1085.22 1807.68 1097.42C1796.89 1101.94 1784.84 1106.96 1772.34 1110.11C1749.77 1116.63 1725.27 1117.48 1704.77 1100.98C1682.01 1082.45 1680.89 1054.26 1684.99 1028.98C1686.42 1019.95 1689.05 1011.03 1691.58 1003.32C1699.21 979.579 1707.28 957.713 1715.35 935.846C1723.48 913.374 1731.55 891.507 1739.68 869.035C1760.06 812.248 1780.87 750.616 1763.13 683.073C1752.24 641.183 1724.78 600.243 1688.14 566.415C1664.44 544.744 1636.84 525.774 1606.87 512.698C1544.02 485.061 1480.81 481.817 1417.38 480.995C1355.77 480.337 1294.54 482.157 1233.13 465.641C1204.49 458.18 1176.84 446.533 1149.41 432.463C1115.59 414.765 1082.75 392.882 1049.31 370.944C1015.86 349.007 981.211 326.96 949.15 310.031" stroke="#8EC9E6" stroke-opacity="0.9" stroke-width="0.5" stroke-miterlimit="10"/>
<path opacity="0.4195" d="M2186.12 1933.82C2229.24 1827.78 2277.75 1709.41 2284.34 1575.06C2288.18 1498.47 2277.36 1415.06 2250.75 1337.56C2229.44 1275.8 2198.06 1217.41 2153.03 1168.17C2136.38 1149.58 2117.81 1132.03 2096.27 1120.33C2045.7 1091.96 1988 1095.32 1937.62 1105.44C1922.71 1108.37 1908.34 1111.97 1894.52 1116.22C1864.41 1125.11 1835.96 1135.99 1807.89 1149.34C1797.05 1154.47 1784.99 1159.49 1771.78 1163.8C1748.55 1170.87 1723.39 1172.27 1702.89 1155.77C1680.14 1137.23 1679.06 1108.44 1684.43 1082.66C1686.52 1073.08 1689.15 1064.16 1691.68 1056.45C1700.58 1032.21 1709.36 1009.19 1718.15 986.167C1727.55 963.198 1736.39 939.569 1745.18 916.545C1768.19 857.554 1791.64 793.717 1774.73 723.806C1764.56 680.758 1737.21 638.607 1700.56 604.78C1676.92 582.502 1648.65 564.084 1618.69 551.007C1555.18 523.922 1490.65 521.78 1426.45 522.721C1363.46 523.772 1300.91 526.693 1238.79 511.335C1209.49 504.425 1181.23 492.723 1153.75 479.259C1119.26 462.113 1085.82 440.175 1052.38 418.237C1018.33 396.245 984.336 373.647 952.384 355.507" stroke="#8EC9E6" stroke-opacity="0.9" stroke-width="0.5" stroke-miterlimit="10"/>
<path opacity="0.4024" d="M2175.83 1993.95C2224.18 1884.12 2277.2 1763.1 2287.14 1625.38C2292.91 1547.74 2283.47 1462.63 2257.51 1384.58C2236.86 1322.27 2204.93 1263.22 2159.29 1213.92C2142.04 1195.28 2122.81 1178.28 2101.32 1165.97C2049.49 1138.1 1990.41 1143.17 1938.66 1155C1923.69 1158.53 1908.66 1162.68 1894.19 1167.48C1863.36 1177.53 1834.19 1189.56 1805.41 1204.07C1794.51 1209.81 1781.8 1215.38 1768.59 1219.69C1744.7 1227.31 1719.43 1229.92 1698.99 1212.81C1676.23 1194.28 1675.81 1164.93 1681.85 1138.61C1683.93 1129.03 1687.22 1119.55 1690.36 1111.9C1699.91 1087.11 1710.02 1062.98 1720.08 1039.46C1730.18 1015.34 1740.29 991.213 1750.4 967.087C1776.06 905.89 1802.15 839.848 1786.61 768.229C1777.15 724.024 1750.46 681.322 1713.93 646.283C1690.28 624.006 1662.07 604.981 1631.45 592.456C1567.33 565.317 1501.43 564.883 1435.85 567.532C1371.54 569.685 1307.57 574.921 1244.12 560.664C1214.22 553.7 1185.25 543.155 1157.81 529.086C1122.72 511.884 1089.23 490.552 1055.23 467.954C1021.24 445.356 986.642 422.704 954.798 403.353" stroke="#8EC9E6" stroke-opacity="0.9" stroke-width="0.5" stroke-miterlimit="10"/>
<path opacity="0.3854" d="M2162.17 2057.45C2215.8 1943.2 2273.34 1819.54 2286.53 1679.67C2294.22 1600.98 2286.1 1514.77 2260.26 1435.5C2239.66 1372.59 2207.73 1313.54 2161.48 1264.19C2144.23 1245.54 2124.39 1228.49 2102.25 1216.73C2049.15 1189.36 1988.75 1195.53 1936.18 1209.73C1920.55 1213.82 1905.46 1218.57 1890.38 1223.32C1858.84 1234.53 1828.96 1247.71 1799.46 1263.38C1787.9 1269.67 1775.14 1275.84 1761.87 1280.76C1737.87 1289.59 1712 1292.15 1690.89 1275.59C1667.53 1257 1667.78 1227.11 1674.47 1200.23C1677.16 1190.7 1680.45 1181.23 1683.69 1172.36C1694.52 1147.08 1705.34 1121.8 1716.11 1097.12C1727.54 1071.89 1738.31 1047.21 1749.07 1022.54C1776.77 959.079 1806.1 890.887 1791.99 816.954C1783.25 771.592 1757.28 727.733 1720.13 692.64C1696.55 669.757 1668.28 651.338 1637.05 638.758C1572.28 612.17 1505.05 612.839 1438.1 617.196C1373.02 621.111 1307.12 627.395 1242.35 614.241C1211.79 607.828 1182.82 597.283 1154.12 583.71C1118.37 567.061 1084.27 545.674 1050.27 523.076C1016.28 500.478 981.735 477.22 949.395 456.603" stroke="#8EC9E6" stroke-opacity="0.9" stroke-width="0.5" stroke-miterlimit="10"/>
<path opacity="0.3683" d="M2145.66 2125.57C2203.97 2006.86 2266.62 1880.61 2283.12 1737.99C2292.79 1657.64 2285.93 1570.93 2260.81 1490.51C2240.26 1426.99 2208.38 1367.33 2161.53 1317.93C2143.68 1299.23 2123.84 1282.18 2101.03 1270.97C2047.27 1244.15 1984.89 1251.97 1931 1267.27C1915.32 1271.97 1899.63 1276.66 1884.44 1282.62C1852.24 1294.38 1820.98 1309.28 1791.37 1326.15C1779.81 1332.44 1766.94 1339.83 1753.07 1344.69C1728.41 1354.07 1702.48 1357.24 1681.37 1340.68C1658.01 1322.09 1658.92 1291.64 1666.27 1264.22C1669.01 1254.08 1672.91 1244.66 1676.76 1235.85C1688.3 1209.41 1700.33 1184.24 1712.42 1158.46C1724.51 1132.68 1736.6 1106.9 1748.69 1081.12C1779.02 1015.46 1810.39 945.006 1797.66 869.365C1789.63 822.847 1763.77 777.776 1727.28 742.131C1703.09 719.194 1674.88 700.169 1643.59 688.195C1577.55 662.104 1509.61 663.929 1441.89 670.05C1375.44 675.673 1308.16 683.665 1242.08 671.614C1210.85 665.751 1181.22 655.758 1152.52 642.185C1116.77 625.535 1082.01 604.7 1047.41 582.048C1012.81 559.395 978.926 535.586 946.696 513.757" stroke="#8EC9E6" stroke-opacity="0.9" stroke-width="0.5" stroke-miterlimit="10"/>
<path opacity="0.3512" d="M2125.14 2197.61C2188.68 2075.1 2255.29 1945.53 2275.69 1800.21C2287.28 1718.82 2281.81 1630.4 2256.73 1549.37C2236.85 1485.3 2204.36 1425.59 2156.3 1376.08C2138.45 1357.38 2118 1340.27 2094.59 1329.01C2039.56 1302.68 1975.81 1312.22 1920.55 1329.23C1904.2 1334.47 1888.46 1339.77 1872.6 1346.28C1839.69 1359.2 1807.72 1375.25 1777.39 1393.29C1765.78 1400.18 1752.3 1407.51 1738.37 1412.98C1713.06 1422.91 1687.07 1426.68 1665.36 1410.07C1642 1391.49 1642.96 1360.43 1651.58 1332.51C1654.32 1322.37 1658.88 1312.4 1662.73 1303.59C1675.53 1276.65 1688.28 1250.32 1701.03 1223.99C1713.84 1197.05 1727.19 1170.78 1739.99 1143.84C1772.97 1075.98 1806.98 1003.32 1795.68 925.364C1788.36 877.688 1763.21 831.461 1726.12 795.762C1701.98 772.218 1673.72 753.8 1641.88 741.165C1575.18 715.625 1506.47 719.213 1436.82 726.381C1369.05 733.107 1300.35 743.413 1233 731.858C1201.11 726.547 1170.87 716.5 1141.51 703.478C1105.1 687.379 1069.79 665.884 1035.19 643.231C1000.59 620.579 966.761 596.164 933.979 573.675" stroke="#8EC9E6" stroke-opacity="0.9" stroke-width="0.5" stroke-miterlimit="10"/>
<path opacity="0.3341" d="M2101.09 2274.83C2169.91 2147.91 2241.04 2015.69 2265.29 1868.27C2278.87 1785.23 2274.65 1696.31 2249.69 1614.08C2229.86 1549.4 2196.82 1489.03 2148.71 1440.12C2130.25 1421.37 2109.8 1404.26 2086.34 1393.6C2030.04 1367.78 1964.92 1379.01 1908.28 1397.73C1891.93 1402.98 1875.47 1409.44 1859.01 1415.89C1825.38 1429.97 1792.7 1447.17 1761.66 1466.37C1749.39 1473.81 1735.85 1481.75 1721.87 1487.82C1696.44 1498.97 1669.19 1503.23 1648.14 1486.07C1624.17 1467.43 1625.8 1435.82 1635.07 1407.35C1638.48 1396.66 1643.04 1386.69 1647.49 1377.94C1661.56 1350.5 1675.02 1323.01 1689.09 1295.58C1703.16 1268.15 1717.23 1240.71 1731.36 1212.67C1766.97 1142.6 1803.63 1067.74 1793.09 988.025C1787.1 939.247 1762 892.414 1724.97 856.109C1700.83 832.566 1672.01 813.487 1640.12 801.458C1572.81 775.863 1502.73 781.16 1431.76 789.43C1362.61 797.864 1293.19 809.327 1224.47 799.481C1192.53 794.775 1161.63 785.279 1131.67 772.203C1094.65 756.05 1059.28 735.16 1024.68 712.507C990.138 689.249 955.702 664.78 923.029 641.079" stroke="#8EC9E6" stroke-opacity="0.9" stroke-width="0.5" stroke-miterlimit="10"/>
<path opacity="0.3171" d="M2073.03 2355.96C2147.08 2225.23 2222.77 2089.77 2250.32 1939.59C2265.22 1855.45 2262.99 1764.87 2238.68 1682.08C2219.52 1616.86 2185.87 1556.43 2137.21 1506.87C2118.75 1488.11 2097.64 1471.56 2073.57 1460.84C2016.01 1435.51 1949.56 1447.85 1892.15 1468.33C1875.14 1474.13 1858.63 1481.19 1842.12 1488.26C1807.17 1503.43 1774.37 1521.85 1742.62 1542.2C1730.3 1550.25 1716.7 1558.8 1702.12 1564.81C1676.03 1576.51 1648.73 1581.38 1627.07 1564.17C1603.1 1545.53 1605.38 1513.37 1615.32 1484.34C1618.73 1473.66 1623.95 1463.13 1628.45 1453.77C1643.24 1425.18 1657.97 1397.2 1672.7 1369.21C1687.48 1340.62 1702.87 1312.09 1717.6 1284.1C1755.86 1211.83 1794.55 1134.7 1786.05 1052.73C1780.77 1002.79 1755.78 954.748 1718.8 917.837C1694.66 894.294 1665.85 875.215 1633.35 863.132C1565.38 838.088 1493.98 844.487 1421.64 854.466C1351.11 864.608 1280.32 877.779 1210.33 868.429C1177.73 864.275 1146.22 854.724 1116.2 842.254C1078.53 826.652 1042.55 805.707 1007.95 783.055C972.803 759.742 939.082 734.116 906.464 709.81" stroke="#8EC9E6" stroke-opacity="0.9" stroke-width="0.5" stroke-miterlimit="10"/>
<path opacity="0.3" d="M2041.51 2441.67C2120.84 2306.53 2201.04 2168.42 2231.84 2016.09C2262.64 1863.76 2234.79 1691.5 2120.93 1579.29C2101.86 1560.48 2080.75 1543.92 2056.08 1533.15C1997.85 1508.38 1930.03 1522.42 1870.64 1544.56C1816.32 1564.71 1765.08 1591.24 1718.2 1623.66C1683.04 1647.97 1634.78 1675.38 1601.16 1648.55C1568.1 1622.37 1585.46 1572.03 1605.13 1536.55C1637.23 1478.38 1668.73 1420.15 1700.83 1361.97C1741.12 1287.44 1783.06 1208.17 1775.93 1124.48C1768.86 1040.19 1706.9 961.953 1624.11 931.912C1488.07 883.036 1338.1 961.748 1194.27 945.145C1077.03 931.545 978.678 857.36 886.771 786.198" stroke="#8EC9E6" stroke-opacity="0.9" stroke-width="0.5" stroke-miterlimit="10"/>
</g>
</svg>
