<svg width="137" height="32" viewBox="0 0 137 32" fill="none" xmlns="http://www.w3.org/2000/svg">
<rect x="1" y="1" width="135" height="30" rx="7" stroke="#00758F" stroke-width="2"/>
<path d="M24 22.848C24.448 22.912 24.8267 22.944 25.136 22.944C25.648 22.944 25.9947 22.8267 26.176 22.592C26.3573 22.368 26.448 21.9573 26.448 21.36V10.608H28.944V21.328C28.944 22.5973 28.6933 23.5253 28.192 24.112C27.6907 24.7093 26.8373 25.008 25.632 25.008C25.152 25.008 24.608 24.96 24 24.864V22.848ZM34.9418 22.128C34.0778 22.128 33.3204 21.9573 32.6698 21.616C32.0298 21.2747 31.5338 20.784 31.1818 20.144C30.8404 19.504 30.6698 18.7573 30.6698 17.904C30.6698 17.0507 30.8404 16.304 31.1818 15.664C31.5338 15.024 32.0298 14.5333 32.6698 14.192C33.3204 13.8507 34.0778 13.68 34.9418 13.68C35.7951 13.68 36.5418 13.8507 37.1818 14.192C37.8218 14.5333 38.3124 15.024 38.6538 15.664C39.0058 16.304 39.1818 17.0507 39.1818 17.904C39.1818 18.7573 39.0058 19.504 38.6538 20.144C38.3124 20.784 37.8218 21.2747 37.1818 21.616C36.5418 21.9573 35.7951 22.128 34.9418 22.128ZM34.9418 20.288C35.5391 20.288 35.9924 20.0907 36.3018 19.696C36.6218 19.3013 36.7818 18.704 36.7818 17.904C36.7818 17.1147 36.6218 16.5227 36.3018 16.128C35.9924 15.7227 35.5391 15.52 34.9418 15.52C34.3338 15.52 33.8698 15.7227 33.5498 16.128C33.2298 16.5227 33.0698 17.1147 33.0698 17.904C33.0698 19.4933 33.6938 20.288 34.9418 20.288ZM40.726 13.888H43.142V22H40.726V13.888ZM43.222 10.08V12.352H40.646V10.08H43.222ZM50.1246 13.68C52.0446 13.68 53.0046 14.816 53.0046 17.088V22H50.5886V17.2C50.5886 16.6347 50.482 16.224 50.2686 15.968C50.066 15.7013 49.7406 15.568 49.2926 15.568C48.7593 15.568 48.3326 15.7387 48.0126 16.08C47.6926 16.4213 47.5326 16.88 47.5326 17.456V22H45.1166V16.208C45.1166 15.344 45.074 14.5707 44.9886 13.888H47.2606L47.4206 15.168C47.7086 14.688 48.082 14.32 48.5406 14.064C49.01 13.808 49.538 13.68 50.1246 13.68ZM62.5331 22.128C60.9971 22.128 59.7865 21.7973 58.9011 21.136L59.5411 19.456C59.9678 19.7653 60.4425 20.0053 60.9651 20.176C61.4878 20.336 62.0211 20.416 62.5651 20.416C62.9811 20.416 63.3011 20.352 63.5251 20.224C63.7491 20.096 63.8611 19.9093 63.8611 19.664C63.8611 19.4613 63.7811 19.3013 63.6211 19.184C63.4611 19.0667 63.1785 18.9653 62.7731 18.88L61.4451 18.576C60.6665 18.4053 60.0905 18.1333 59.7171 17.76C59.3545 17.3867 59.1731 16.8907 59.1731 16.272C59.1731 15.7707 59.3171 15.3227 59.6051 14.928C59.9038 14.5333 60.3145 14.2293 60.8371 14.016C61.3598 13.792 61.9625 13.68 62.6451 13.68C63.2211 13.68 63.7865 13.7707 64.3411 13.952C64.8958 14.1227 65.3918 14.368 65.8291 14.688L65.1571 16.304C64.7411 16.016 64.3145 15.7973 63.8771 15.648C63.4505 15.4987 63.0345 15.424 62.6291 15.424C62.2345 15.424 61.9251 15.4933 61.7011 15.632C61.4771 15.7707 61.3651 15.9627 61.3651 16.208C61.3651 16.3893 61.4291 16.5387 61.5571 16.656C61.6958 16.7627 61.9358 16.8533 62.2771 16.928L63.6371 17.232C64.4691 17.424 65.0718 17.712 65.4451 18.096C65.8185 18.48 66.0051 18.992 66.0051 19.632C66.0051 20.4 65.6958 21.008 65.0771 21.456C64.4585 21.904 63.6105 22.128 62.5331 22.128ZM70.4379 15.696V18.848C70.4379 19.296 70.5552 19.6267 70.7899 19.84C71.0245 20.0427 71.3285 20.144 71.7019 20.144C71.9365 20.144 72.2032 20.1067 72.5019 20.032V21.904C72.1179 22.0533 71.6539 22.128 71.1099 22.128C70.1072 22.128 69.3392 21.8453 68.8059 21.28C68.2832 20.7147 68.0219 19.92 68.0219 18.896V15.696H66.4859V13.888H68.0219V11.984L70.4379 11.2V13.888H72.5019V15.696H70.4379ZM78.4616 13.696C78.803 13.696 79.091 13.7493 79.3256 13.856L79.3096 16.064C78.915 15.8827 78.5203 15.792 78.1256 15.792C77.4856 15.792 76.995 15.968 76.6536 16.32C76.323 16.6613 76.1576 17.1413 76.1576 17.76V22H73.7416V16.208C73.7416 15.344 73.699 14.5707 73.6136 13.888H75.8856L76.0456 15.28C76.2483 14.768 76.563 14.3787 76.9896 14.112C77.427 13.8347 77.9176 13.696 78.4616 13.696ZM87.4279 18.144H82.0839C82.1265 18.9013 82.3239 19.456 82.6759 19.808C83.0279 20.1493 83.5505 20.32 84.2439 20.32C84.6599 20.32 85.0759 20.2507 85.4919 20.112C85.9079 19.9733 86.2919 19.7707 86.6439 19.504L87.2839 21.136C86.8999 21.4453 86.4199 21.6907 85.8439 21.872C85.2785 22.0427 84.7079 22.128 84.1319 22.128C82.7665 22.128 81.6945 21.7547 80.9159 21.008C80.1372 20.2507 79.7479 19.2213 79.7479 17.92C79.7479 17.0987 79.9132 16.368 80.2439 15.728C80.5852 15.0773 81.0599 14.576 81.6679 14.224C82.2759 13.8613 82.9639 13.68 83.7319 13.68C84.8732 13.68 85.7745 14.0533 86.4359 14.8C87.0972 15.536 87.4279 16.5333 87.4279 17.792V18.144ZM83.7959 15.376C83.3372 15.376 82.9639 15.5093 82.6759 15.776C82.3985 16.0427 82.2172 16.432 82.1319 16.944H85.3479C85.2199 15.8987 84.7025 15.376 83.7959 15.376ZM97.0728 13.888V22H94.6888V20.8C94.4434 21.216 94.0968 21.5413 93.6488 21.776C93.2008 22.0107 92.6941 22.128 92.1288 22.128C91.4248 22.128 90.8008 21.9573 90.2568 21.616C89.7234 21.2747 89.3021 20.7893 88.9928 20.16C88.6941 19.52 88.5448 18.784 88.5448 17.952C88.5448 17.12 88.6941 16.3787 88.9928 15.728C89.3021 15.0773 89.7288 14.576 90.2728 14.224C90.8168 13.8613 91.4354 13.68 92.1288 13.68C92.6941 13.68 93.2008 13.8027 93.6488 14.048C94.0968 14.2933 94.4434 14.624 94.6888 15.04V13.888H97.0728ZM92.8328 20.288C93.4301 20.288 93.8888 20.0853 94.2088 19.68C94.5288 19.2747 94.6888 18.688 94.6888 17.92C94.6888 17.152 94.5288 16.5653 94.2088 16.16C93.8888 15.744 93.4301 15.536 92.8328 15.536C92.2354 15.536 91.7714 15.7493 91.4408 16.176C91.1101 16.6027 90.9448 17.1947 90.9448 17.952C90.9448 18.7093 91.1048 19.2907 91.4248 19.696C91.7554 20.0907 92.2248 20.288 92.8328 20.288ZM108.943 13.68C109.871 13.68 110.559 13.9627 111.007 14.528C111.466 15.0827 111.695 15.936 111.695 17.088V22H109.279V17.168C109.279 16.6027 109.188 16.1973 109.007 15.952C108.826 15.696 108.527 15.568 108.111 15.568C107.62 15.568 107.242 15.7387 106.975 16.08C106.708 16.4213 106.575 16.9013 106.575 17.52V22H104.159V17.168C104.159 16.6133 104.063 16.208 103.871 15.952C103.69 15.696 103.396 15.568 102.991 15.568C102.5 15.568 102.116 15.7387 101.839 16.08C101.572 16.4213 101.439 16.9013 101.439 17.52V22H99.0229V16.208C99.0229 15.344 98.9802 14.5707 98.8949 13.888H101.167L101.311 15.104C101.556 14.6453 101.898 14.2933 102.335 14.048C102.783 13.8027 103.295 13.68 103.871 13.68C105.076 13.68 105.876 14.1813 106.271 15.184C106.538 14.7253 106.906 14.3627 107.375 14.096C107.855 13.8187 108.378 13.68 108.943 13.68Z" fill="#00758F"/>
</svg>
