<svg width="231" height="48" viewBox="0 0 231 48" fill="none" xmlns="http://www.w3.org/2000/svg">
<rect width="231" height="48" rx="8" fill="#F29111"/>
<path d="M80.08 28.42C79.8267 28.6467 79.5467 28.8667 79.24 29.08C78.9333 29.2933 78.5933 29.4867 78.22 29.66C77.86 29.82 77.46 29.9467 77.02 30.04C76.58 30.1467 76.1 30.2 75.58 30.2C74.06 30.2 72.8667 29.6533 72 28.56C71.1333 27.4667 70.7 25.82 70.7 23.62C70.7 22.4067 70.8267 21.3467 71.08 20.44C71.3333 19.52 71.6933 18.76 72.16 18.16C72.64 17.5467 73.2067 17.0933 73.86 16.8C74.5267 16.4933 75.2667 16.34 76.08 16.34C76.8933 16.34 77.62 16.52 78.26 16.88C78.9133 17.24 79.48 17.76 79.96 18.44L78.96 19.6C78.5733 19.3333 78.16 19.12 77.72 18.96C77.2933 18.8 76.8267 18.72 76.32 18.72C75.9467 18.72 75.5933 18.8 75.26 18.96C74.9267 19.12 74.6333 19.38 74.38 19.74C74.1267 20.0867 73.9267 20.54 73.78 21.1C73.6333 21.6467 73.56 22.3067 73.56 23.08C73.56 24.0133 73.6267 24.7867 73.76 25.4C73.8933 26.0133 74.08 26.5067 74.32 26.88C74.56 27.24 74.8533 27.5 75.2 27.66C75.5467 27.8067 75.9333 27.88 76.36 27.88C76.5333 27.88 76.7133 27.8533 76.9 27.8C77.1 27.7467 77.2667 27.68 77.4 27.6V24.3H76V22.48H80.08V28.42ZM87.3222 23.6C87.3222 22.96 87.1889 22.4533 86.9222 22.08C86.6555 21.6933 86.2555 21.5 85.7222 21.5C85.2689 21.5 84.8822 21.7 84.5622 22.1C84.2422 22.5 84.0689 23.0867 84.0422 23.86H87.3222V23.6ZM84.0422 25.54V25.74C84.0422 26.5533 84.2489 27.1467 84.6622 27.52C85.0755 27.8933 85.6022 28.08 86.2422 28.08C86.7355 28.08 87.2755 28.04 87.8622 27.96C88.4489 27.88 88.9955 27.7667 89.5022 27.62L89.8222 29.08C89.1822 29.4 88.4955 29.6667 87.7622 29.88C87.0289 30.0933 86.2822 30.2 85.5222 30.2C84.2155 30.2 83.1889 29.8067 82.4422 29.02C81.7089 28.22 81.3422 26.96 81.3422 25.24C81.3422 23.52 81.7355 22.18 82.5222 21.22C83.3089 20.26 84.4089 19.78 85.8222 19.78C86.4755 19.78 87.0622 19.88 87.5822 20.08C88.1155 20.28 88.5622 20.6067 88.9222 21.06C89.2822 21.5 89.5489 22.0867 89.7222 22.82C89.8955 23.5533 89.9422 24.46 89.8622 25.54H84.0422ZM96.9269 29.6C96.5935 29.7733 96.2069 29.9133 95.7669 30.02C95.3269 30.1267 94.8935 30.18 94.4669 30.18C93.5335 30.18 92.8735 29.9333 92.4869 29.44C92.1002 28.9333 91.9069 28.16 91.9069 27.12V21.7H90.6069V19.96H91.9269C92.1402 19.5333 92.3335 19.0533 92.5069 18.52C92.6935 17.9867 92.8469 17.4467 92.9669 16.9H94.5069V19.96H96.6869V21.7H94.5069V27C94.5069 27.3067 94.5802 27.5867 94.7269 27.84C94.8869 28.08 95.1335 28.2 95.4669 28.2C95.6135 28.2 95.8202 28.1933 96.0869 28.18C96.3669 28.1533 96.6002 28.1267 96.7869 28.1L96.9269 29.6ZM111.252 26.14C111.252 26.6867 111.152 27.2133 110.952 27.72C110.752 28.2133 110.452 28.6467 110.052 29.02C109.652 29.3933 109.145 29.6933 108.532 29.92C107.932 30.1333 107.225 30.24 106.412 30.24C105.025 30.24 103.705 29.8 102.452 28.92L103.232 27.36C103.592 27.5333 104.012 27.7 104.492 27.86C104.985 28.0067 105.512 28.08 106.072 28.08C106.858 28.08 107.418 27.9267 107.752 27.62C108.085 27.3133 108.252 26.94 108.252 26.5C108.252 26.0733 108.112 25.7333 107.832 25.48C107.565 25.2133 107.232 24.9733 106.832 24.76C106.432 24.5467 105.992 24.34 105.512 24.14C105.032 23.9267 104.592 23.6667 104.192 23.36C103.792 23.04 103.452 22.64 103.172 22.16C102.905 21.68 102.772 21.0667 102.772 20.32C102.772 19.7467 102.872 19.22 103.072 18.74C103.272 18.2467 103.552 17.8267 103.912 17.48C104.285 17.12 104.738 16.84 105.272 16.64C105.805 16.44 106.405 16.34 107.072 16.34C107.792 16.34 108.452 16.4533 109.052 16.68C109.652 16.8933 110.192 17.2 110.672 17.6L109.932 19.08C109.585 18.9067 109.185 18.7533 108.732 18.62C108.292 18.4867 107.858 18.42 107.432 18.42C106.832 18.42 106.372 18.58 106.052 18.9C105.732 19.2067 105.572 19.5733 105.572 20C105.572 20.4267 105.712 20.78 105.992 21.06C106.272 21.3267 106.618 21.5733 107.032 21.8C107.458 22.0133 107.918 22.2267 108.412 22.44C108.905 22.6533 109.358 22.92 109.772 23.24C110.198 23.5467 110.552 23.9333 110.832 24.4C111.112 24.8533 111.252 25.4333 111.252 26.14ZM118.157 29.6C117.824 29.7733 117.437 29.9133 116.997 30.02C116.557 30.1267 116.124 30.18 115.697 30.18C114.764 30.18 114.104 29.9333 113.717 29.44C113.331 28.9333 113.137 28.16 113.137 27.12V21.7H111.837V19.96H113.157C113.371 19.5333 113.564 19.0533 113.737 18.52C113.924 17.9867 114.077 17.4467 114.197 16.9H115.737V19.96H117.917V21.7H115.737V27C115.737 27.3067 115.811 27.5867 115.957 27.84C116.117 28.08 116.364 28.2 116.697 28.2C116.844 28.2 117.051 28.1933 117.317 28.18C117.597 28.1533 117.831 28.1267 118.017 28.1L118.157 29.6ZM124.462 25.52H123.702C123.236 25.52 122.849 25.56 122.542 25.64C122.249 25.72 122.016 25.8267 121.842 25.96C121.682 26.08 121.569 26.2333 121.502 26.42C121.436 26.5933 121.402 26.78 121.402 26.98C121.402 27.38 121.509 27.6867 121.722 27.9C121.949 28.1 122.256 28.2 122.642 28.2C122.976 28.2 123.296 28.1467 123.602 28.04C123.909 27.92 124.196 27.7667 124.462 27.58V25.52ZM125.122 30L124.842 28.86C124.469 29.22 124.022 29.5333 123.502 29.8C122.982 30.0667 122.429 30.2 121.842 30.2C120.816 30.2 120.049 29.9467 119.542 29.44C119.036 28.9333 118.782 28.22 118.782 27.3C118.782 26.8333 118.869 26.3933 119.042 25.98C119.229 25.5667 119.522 25.2067 119.922 24.9C120.322 24.58 120.836 24.3267 121.462 24.14C122.089 23.9533 122.856 23.86 123.762 23.86H124.462V23.18C124.462 22.6467 124.276 22.2733 123.902 22.06C123.529 21.8467 123.082 21.74 122.562 21.74C122.069 21.74 121.569 21.7933 121.062 21.9C120.556 21.9933 120.089 22.1067 119.662 22.24L119.382 20.68C119.942 20.4533 120.556 20.2467 121.222 20.06C121.889 19.86 122.636 19.76 123.462 19.76C124.729 19.76 125.636 20.04 126.182 20.6C126.742 21.1467 127.022 21.9533 127.022 23.02V30H125.122ZM134.585 22.28C134.371 22.2133 134.185 22.1667 134.025 22.14C133.878 22.1 133.738 22.08 133.605 22.08C133.338 22.08 133.071 22.2133 132.805 22.48C132.538 22.7467 132.231 23.1133 131.885 23.58V30H129.305V19.96H131.245L131.625 21.72C132.091 21.08 132.498 20.5933 132.845 20.26C133.205 19.9267 133.598 19.76 134.025 19.76C134.158 19.76 134.291 19.7733 134.425 19.8C134.571 19.8267 134.731 19.86 134.905 19.9L134.585 22.28ZM141.419 29.6C141.086 29.7733 140.699 29.9133 140.259 30.02C139.819 30.1267 139.386 30.18 138.959 30.18C138.026 30.18 137.366 29.9333 136.979 29.44C136.592 28.9333 136.399 28.16 136.399 27.12V21.7H135.099V19.96H136.419C136.632 19.5333 136.826 19.0533 136.999 18.52C137.186 17.9867 137.339 17.4467 137.459 16.9H138.999V19.96H141.179V21.7H138.999V27C138.999 27.3067 139.072 27.5867 139.219 27.84C139.379 28.08 139.626 28.2 139.959 28.2C140.106 28.2 140.312 28.1933 140.579 28.18C140.859 28.1533 141.092 28.1267 141.279 28.1L141.419 29.6ZM148.084 23.6C148.084 22.96 147.951 22.4533 147.684 22.08C147.417 21.6933 147.017 21.5 146.484 21.5C146.031 21.5 145.644 21.7 145.324 22.1C145.004 22.5 144.831 23.0867 144.804 23.86H148.084V23.6ZM144.804 25.54V25.74C144.804 26.5533 145.011 27.1467 145.424 27.52C145.837 27.8933 146.364 28.08 147.004 28.08C147.497 28.08 148.037 28.04 148.624 27.96C149.211 27.88 149.757 27.7667 150.264 27.62L150.584 29.08C149.944 29.4 149.257 29.6667 148.524 29.88C147.791 30.0933 147.044 30.2 146.284 30.2C144.977 30.2 143.951 29.8067 143.204 29.02C142.471 28.22 142.104 26.96 142.104 25.24C142.104 23.52 142.497 22.18 143.284 21.22C144.071 20.26 145.171 19.78 146.584 19.78C147.237 19.78 147.824 19.88 148.344 20.08C148.877 20.28 149.324 20.6067 149.684 21.06C150.044 21.5 150.311 22.0867 150.484 22.82C150.657 23.5533 150.704 24.46 150.624 25.54H144.804ZM157.889 21.76C157.729 21.6933 157.549 21.6533 157.349 21.64C157.162 21.6133 156.962 21.6 156.749 21.6C156.135 21.6 155.615 21.86 155.189 22.38C154.775 22.9 154.569 23.7 154.569 24.78C154.569 25.4067 154.615 25.9267 154.709 26.34C154.802 26.7533 154.922 27.0933 155.069 27.36C155.229 27.6133 155.409 27.7933 155.609 27.9C155.822 28.0067 156.049 28.06 156.289 28.06C156.582 28.06 156.855 28.0133 157.109 27.92C157.362 27.8133 157.622 27.7 157.889 27.58V21.76ZM158.469 30L158.189 28.86C157.722 29.26 157.215 29.5867 156.669 29.84C156.135 30.08 155.655 30.2 155.229 30.2C154.202 30.2 153.389 29.7733 152.789 28.92C152.202 28.0667 151.909 26.8933 151.909 25.4C151.909 24.5467 152.009 23.7733 152.209 23.08C152.409 22.3867 152.709 21.8 153.109 21.32C153.522 20.8267 154.042 20.4467 154.669 20.18C155.309 19.9133 156.069 19.78 156.949 19.78C157.095 19.78 157.249 19.7867 157.409 19.8C157.569 19.8 157.729 19.8067 157.889 19.82V15.82H160.469V30H158.469Z" fill="white"/>
</svg>
