<svg width="231" height="48" viewBox="0 0 231 48" fill="none" xmlns="http://www.w3.org/2000/svg">
<rect width="231" height="48" rx="8" fill="#F29111"/>
<path d="M27.08 23.1C27.08 22.42 27.02 21.8133 26.9 21.28C26.78 20.7467 26.5867 20.2933 26.32 19.92C26.0533 19.5333 25.7067 19.24 25.28 19.04C24.8533 18.84 24.3333 18.74 23.72 18.74H23.06V27.74C23.1667 27.7533 23.2867 27.7667 23.42 27.78C23.5533 27.78 23.7 27.78 23.86 27.78C24.3533 27.78 24.8 27.7 25.2 27.54C25.6 27.3667 25.94 27.0933 26.22 26.72C26.5 26.3467 26.7133 25.8667 26.86 25.28C27.0067 24.68 27.08 23.9533 27.08 23.1ZM29.98 22.82C29.98 23.9667 29.8467 24.9933 29.58 25.9C29.3267 26.7933 28.9267 27.5533 28.38 28.18C27.8467 28.7933 27.16 29.2667 26.32 29.6C25.4933 29.92 24.5133 30.08 23.38 30.08C22.8867 30.08 22.3867 30.0667 21.88 30.04C21.3733 30.0267 20.8667 30.0133 20.36 30V16.5C21.04 16.5 21.68 16.4933 22.28 16.48C22.88 16.4667 23.44 16.46 23.96 16.46C25.0133 16.46 25.92 16.6133 26.68 16.92C27.44 17.2267 28.06 17.66 28.54 18.22C29.0333 18.78 29.3933 19.4533 29.62 20.24C29.86 21.0133 29.98 21.8733 29.98 22.82ZM37.8178 25.3C37.8178 24.5933 37.7711 24.0133 37.6778 23.56C37.5978 23.0933 37.4711 22.7267 37.2978 22.46C37.1378 22.18 36.9445 21.9867 36.7178 21.88C36.4911 21.7733 36.2378 21.72 35.9578 21.72C35.3578 21.72 34.8845 21.9533 34.5378 22.42C34.1911 22.8733 34.0178 23.64 34.0178 24.72C34.0178 25.4267 34.0578 26.0067 34.1378 26.46C34.2311 26.9133 34.3645 27.2733 34.5378 27.54C34.7111 27.8067 34.9111 27.9933 35.1378 28.1C35.3778 28.1933 35.6511 28.24 35.9578 28.24C36.5045 28.24 36.9511 28.0267 37.2978 27.6C37.6445 27.16 37.8178 26.3933 37.8178 25.3ZM40.5178 24.72C40.5178 25.64 40.4045 26.44 40.1778 27.12C39.9511 27.8 39.6245 28.3733 39.1978 28.84C38.7845 29.2933 38.2845 29.6333 37.6978 29.86C37.1245 30.0867 36.4778 30.2 35.7578 30.2C35.0645 30.2 34.4445 30.1133 33.8978 29.94C33.3511 29.7533 32.8911 29.46 32.5178 29.06C32.1445 28.66 31.8578 28.1467 31.6578 27.52C31.4578 26.88 31.3578 26.1067 31.3578 25.2C31.3578 24.2933 31.4711 23.5 31.6978 22.82C31.9245 22.14 32.2378 21.5733 32.6378 21.12C33.0511 20.6667 33.5445 20.3267 34.1178 20.1C34.7045 19.8733 35.3511 19.76 36.0578 19.76C36.7511 19.76 37.3711 19.86 37.9178 20.06C38.4645 20.2467 38.9311 20.5467 39.3178 20.96C39.7045 21.36 39.9978 21.8733 40.1978 22.5C40.4111 23.1267 40.5178 23.8667 40.5178 24.72ZM55.7294 19.96C55.196 23.4133 54.416 26.76 53.3894 30H50.1294L48.7694 23.64L48.5494 22.46L48.3694 23.58L47.0294 30H43.6894L41.1494 19.96H43.9094L45.2494 26.2L45.5094 27.64H45.5294L45.7694 26.3L46.9494 19.96H50.4294L51.7494 26.16L51.9894 27.64H52.0094C52.2894 26.1733 52.516 24.8267 52.6894 23.6C52.876 22.3733 53.0427 21.16 53.1894 19.96H55.7294ZM65.0988 24.28C65.0988 24.5867 65.0921 24.9533 65.0788 25.38C65.0788 25.7933 65.0721 26.2533 65.0588 26.76C65.0454 27.2533 65.0321 27.78 65.0188 28.34C65.0188 28.8867 65.0188 29.44 65.0188 30H62.4388C62.4388 29.48 62.4388 28.9733 62.4388 28.48C62.4521 27.9733 62.4588 27.5 62.4588 27.06C62.4721 26.6067 62.4788 26.1933 62.4788 25.82C62.4921 25.4467 62.4988 25.1333 62.4988 24.88C62.4988 24.2533 62.4654 23.7467 62.3988 23.36C62.3454 22.9733 62.2654 22.6733 62.1588 22.46C62.0521 22.2333 61.9188 22.0867 61.7588 22.02C61.5988 21.94 61.4188 21.9 61.2188 21.9C60.9121 21.9 60.6054 21.9467 60.2988 22.04C60.0054 22.12 59.7254 22.2333 59.4588 22.38V30H56.8788V19.96H58.8788L59.1588 21.1C59.6254 20.7 60.1254 20.38 60.6588 20.14C61.1921 19.8867 61.7254 19.76 62.2588 19.76C62.7254 19.76 63.1321 19.84 63.4788 20C63.8388 20.16 64.1388 20.42 64.3788 20.78C64.6188 21.1267 64.7988 21.5867 64.9188 22.16C65.0388 22.7333 65.0988 23.44 65.0988 24.28ZM71.367 29.9C71.0604 29.9933 70.747 30.0667 70.427 30.12C70.1204 30.1733 69.7937 30.2 69.447 30.2C68.7404 30.2 68.2137 30.0467 67.867 29.74C67.5337 29.4333 67.367 28.8533 67.367 28V15.82H69.927V27.1C69.927 27.6467 69.9804 28 70.087 28.16C70.1937 28.32 70.367 28.4 70.607 28.4C70.687 28.4 70.7804 28.4 70.887 28.4C70.9937 28.4 71.107 28.3933 71.227 28.38L71.367 29.9ZM78.5014 25.3C78.5014 24.5933 78.4547 24.0133 78.3614 23.56C78.2814 23.0933 78.1547 22.7267 77.9814 22.46C77.8214 22.18 77.6281 21.9867 77.4014 21.88C77.1747 21.7733 76.9214 21.72 76.6414 21.72C76.0414 21.72 75.5681 21.9533 75.2214 22.42C74.8747 22.8733 74.7014 23.64 74.7014 24.72C74.7014 25.4267 74.7414 26.0067 74.8214 26.46C74.9147 26.9133 75.0481 27.2733 75.2214 27.54C75.3947 27.8067 75.5947 27.9933 75.8214 28.1C76.0614 28.1933 76.3347 28.24 76.6414 28.24C77.1881 28.24 77.6347 28.0267 77.9814 27.6C78.3281 27.16 78.5014 26.3933 78.5014 25.3ZM81.2014 24.72C81.2014 25.64 81.0881 26.44 80.8614 27.12C80.6347 27.8 80.3081 28.3733 79.8814 28.84C79.4681 29.2933 78.9681 29.6333 78.3814 29.86C77.8081 30.0867 77.1614 30.2 76.4414 30.2C75.7481 30.2 75.1281 30.1133 74.5814 29.94C74.0347 29.7533 73.5747 29.46 73.2014 29.06C72.8281 28.66 72.5414 28.1467 72.3414 27.52C72.1414 26.88 72.0414 26.1067 72.0414 25.2C72.0414 24.2933 72.1547 23.5 72.3814 22.82C72.6081 22.14 72.9214 21.5733 73.3214 21.12C73.7347 20.6667 74.2281 20.3267 74.8014 20.1C75.3881 19.8733 76.0347 19.76 76.7414 19.76C77.4347 19.76 78.0547 19.86 78.6014 20.06C79.1481 20.2467 79.6147 20.5467 80.0014 20.96C80.3881 21.36 80.6814 21.8733 80.8814 22.5C81.0947 23.1267 81.2014 23.8667 81.2014 24.72ZM88.013 25.52H87.253C86.7863 25.52 86.3996 25.56 86.093 25.64C85.7996 25.72 85.5663 25.8267 85.393 25.96C85.233 26.08 85.1196 26.2333 85.053 26.42C84.9863 26.5933 84.953 26.78 84.953 26.98C84.953 27.38 85.0596 27.6867 85.273 27.9C85.4996 28.1 85.8063 28.2 86.193 28.2C86.5263 28.2 86.8463 28.1467 87.153 28.04C87.4596 27.92 87.7463 27.7667 88.013 27.58V25.52ZM88.673 30L88.393 28.86C88.0196 29.22 87.573 29.5333 87.053 29.8C86.533 30.0667 85.9796 30.2 85.393 30.2C84.3663 30.2 83.5996 29.9467 83.093 29.44C82.5863 28.9333 82.333 28.22 82.333 27.3C82.333 26.8333 82.4196 26.3933 82.593 25.98C82.7796 25.5667 83.073 25.2067 83.473 24.9C83.873 24.58 84.3863 24.3267 85.013 24.14C85.6396 23.9533 86.4063 23.86 87.313 23.86H88.013V23.18C88.013 22.6467 87.8263 22.2733 87.453 22.06C87.0796 21.8467 86.633 21.74 86.113 21.74C85.6196 21.74 85.1196 21.7933 84.613 21.9C84.1063 21.9933 83.6396 22.1067 83.213 22.24L82.933 20.68C83.493 20.4533 84.1063 20.2467 84.773 20.06C85.4396 19.86 86.1863 19.76 87.013 19.76C88.2796 19.76 89.1863 20.04 89.733 20.6C90.293 21.1467 90.573 21.9533 90.573 23.02V30H88.673ZM98.2753 21.76C98.1153 21.6933 97.9353 21.6533 97.7353 21.64C97.5486 21.6133 97.3486 21.6 97.1353 21.6C96.522 21.6 96.002 21.86 95.5753 22.38C95.162 22.9 94.9553 23.7 94.9553 24.78C94.9553 25.4067 95.002 25.9267 95.0953 26.34C95.1886 26.7533 95.3086 27.0933 95.4553 27.36C95.6153 27.6133 95.7953 27.7933 95.9953 27.9C96.2086 28.0067 96.4353 28.06 96.6753 28.06C96.9686 28.06 97.242 28.0133 97.4953 27.92C97.7486 27.8133 98.0086 27.7 98.2753 27.58V21.76ZM98.8553 30L98.5753 28.86C98.1086 29.26 97.602 29.5867 97.0553 29.84C96.522 30.08 96.042 30.2 95.6153 30.2C94.5886 30.2 93.7753 29.7733 93.1753 28.92C92.5886 28.0667 92.2953 26.8933 92.2953 25.4C92.2953 24.5467 92.3953 23.7733 92.5953 23.08C92.7953 22.3867 93.0953 21.8 93.4953 21.32C93.9086 20.8267 94.4286 20.4467 95.0553 20.18C95.6953 19.9133 96.4553 19.78 97.3353 19.78C97.482 19.78 97.6353 19.7867 97.7953 19.8C97.9553 19.8 98.1153 19.8067 98.2753 19.82V15.82H100.855V30H98.8553ZM117.088 28.42C116.834 28.6467 116.554 28.8667 116.248 29.08C115.941 29.2933 115.601 29.4867 115.228 29.66C114.868 29.82 114.468 29.9467 114.028 30.04C113.588 30.1467 113.108 30.2 112.588 30.2C111.068 30.2 109.874 29.6533 109.008 28.56C108.141 27.4667 107.708 25.82 107.708 23.62C107.708 22.4067 107.834 21.3467 108.088 20.44C108.341 19.52 108.701 18.76 109.168 18.16C109.648 17.5467 110.214 17.0933 110.868 16.8C111.534 16.4933 112.274 16.34 113.088 16.34C113.901 16.34 114.628 16.52 115.268 16.88C115.921 17.24 116.488 17.76 116.968 18.44L115.968 19.6C115.581 19.3333 115.168 19.12 114.728 18.96C114.301 18.8 113.834 18.72 113.328 18.72C112.954 18.72 112.601 18.8 112.268 18.96C111.934 19.12 111.641 19.38 111.388 19.74C111.134 20.0867 110.934 20.54 110.788 21.1C110.641 21.6467 110.568 22.3067 110.568 23.08C110.568 24.0133 110.634 24.7867 110.768 25.4C110.901 26.0133 111.088 26.5067 111.328 26.88C111.568 27.24 111.861 27.5 112.208 27.66C112.554 27.8067 112.941 27.88 113.368 27.88C113.541 27.88 113.721 27.8533 113.908 27.8C114.108 27.7467 114.274 27.68 114.408 27.6V24.3H113.008V22.48H117.088V28.42ZM124.19 22.28C123.977 22.2133 123.79 22.1667 123.63 22.14C123.483 22.1 123.343 22.08 123.21 22.08C122.943 22.08 122.677 22.2133 122.41 22.48C122.143 22.7467 121.837 23.1133 121.49 23.58V30H118.91V19.96H120.85L121.23 21.72C121.697 21.08 122.103 20.5933 122.45 20.26C122.81 19.9267 123.203 19.76 123.63 19.76C123.763 19.76 123.897 19.7733 124.03 19.8C124.177 19.8267 124.337 19.86 124.51 19.9L124.19 22.28ZM130.865 25.52H130.105C129.638 25.52 129.251 25.56 128.945 25.64C128.651 25.72 128.418 25.8267 128.245 25.96C128.085 26.08 127.971 26.2333 127.905 26.42C127.838 26.5933 127.805 26.78 127.805 26.98C127.805 27.38 127.911 27.6867 128.125 27.9C128.351 28.1 128.658 28.2 129.045 28.2C129.378 28.2 129.698 28.1467 130.005 28.04C130.311 27.92 130.598 27.7667 130.865 27.58V25.52ZM131.525 30L131.245 28.86C130.871 29.22 130.425 29.5333 129.905 29.8C129.385 30.0667 128.831 30.2 128.245 30.2C127.218 30.2 126.451 29.9467 125.945 29.44C125.438 28.9333 125.185 28.22 125.185 27.3C125.185 26.8333 125.271 26.3933 125.445 25.98C125.631 25.5667 125.925 25.2067 126.325 24.9C126.725 24.58 127.238 24.3267 127.865 24.14C128.491 23.9533 129.258 23.86 130.165 23.86H130.865V23.18C130.865 22.6467 130.678 22.2733 130.305 22.06C129.931 21.8467 129.485 21.74 128.965 21.74C128.471 21.74 127.971 21.7933 127.465 21.9C126.958 21.9933 126.491 22.1067 126.065 22.24L125.785 20.68C126.345 20.4533 126.958 20.2467 127.625 20.06C128.291 19.86 129.038 19.76 129.865 19.76C131.131 19.76 132.038 20.04 132.585 20.6C133.145 21.1467 133.425 21.9533 133.425 23.02V30H131.525ZM140.767 25.52H140.007C139.54 25.52 139.154 25.56 138.847 25.64C138.554 25.72 138.32 25.8267 138.147 25.96C137.987 26.08 137.874 26.2333 137.807 26.42C137.74 26.5933 137.707 26.78 137.707 26.98C137.707 27.38 137.814 27.6867 138.027 27.9C138.254 28.1 138.56 28.2 138.947 28.2C139.28 28.2 139.6 28.1467 139.907 28.04C140.214 27.92 140.5 27.7667 140.767 27.58V25.52ZM141.427 30L141.147 28.86C140.774 29.22 140.327 29.5333 139.807 29.8C139.287 30.0667 138.734 30.2 138.147 30.2C137.12 30.2 136.354 29.9467 135.847 29.44C135.34 28.9333 135.087 28.22 135.087 27.3C135.087 26.8333 135.174 26.3933 135.347 25.98C135.534 25.5667 135.827 25.2067 136.227 24.9C136.627 24.58 137.14 24.3267 137.767 24.14C138.394 23.9533 139.16 23.86 140.067 23.86H140.767V23.18C140.767 22.6467 140.58 22.2733 140.207 22.06C139.834 21.8467 139.387 21.74 138.867 21.74C138.374 21.74 137.874 21.7933 137.367 21.9C136.86 21.9933 136.394 22.1067 135.967 22.24L135.687 20.68C136.247 20.4533 136.86 20.2467 137.527 20.06C138.194 19.86 138.94 19.76 139.767 19.76C141.034 19.76 141.94 20.04 142.487 20.6C143.047 21.1467 143.327 21.9533 143.327 23.02V30H141.427ZM149.609 29.9C149.303 29.9933 148.989 30.0667 148.669 30.12C148.363 30.1733 148.036 30.2 147.689 30.2C146.983 30.2 146.456 30.0467 146.109 29.74C145.776 29.4333 145.609 28.8533 145.609 28V15.82H148.169V27.1C148.169 27.6467 148.223 28 148.329 28.16C148.436 28.32 148.609 28.4 148.849 28.4C148.929 28.4 149.023 28.4 149.129 28.4C149.236 28.4 149.349 28.3933 149.469 28.38L149.609 29.9ZM160.764 16.5C160.257 18.78 159.677 21.0533 159.024 23.32C158.384 25.5867 157.697 27.8133 156.964 30H153.524C152.777 27.7467 152.084 25.5 151.444 23.26C150.804 21.02 150.224 18.7667 149.704 16.5H152.764C152.91 17.3 153.084 18.14 153.284 19.02C153.484 19.9 153.697 20.8 153.924 21.72C154.15 22.64 154.39 23.5733 154.644 24.52C154.897 25.4533 155.157 26.3667 155.424 27.26C155.65 26.5 155.877 25.6867 156.104 24.82C156.344 23.94 156.577 23.04 156.804 22.12C157.044 21.1867 157.264 20.2467 157.464 19.3C157.677 18.34 157.87 17.4067 158.044 16.5H160.764ZM173.377 30C173.351 28.2267 173.304 26.4667 173.237 24.72C173.171 22.9733 173.064 21.1867 172.917 19.36H172.877L169.837 30H167.817L164.877 19.36H164.837C164.691 21.1867 164.584 22.9733 164.517 24.72C164.451 26.4667 164.404 28.2267 164.377 30H161.817C161.884 27.7333 161.991 25.48 162.137 23.24C162.284 21 162.471 18.7533 162.697 16.5H166.677L169.097 25.22H169.137L171.637 16.5H175.357C175.584 18.7533 175.771 21 175.917 23.24C176.064 25.48 176.171 27.7333 176.237 30H173.377ZM191.061 19.96C190.835 21.7067 190.495 23.4133 190.041 25.08C189.588 26.7467 189.021 28.3867 188.341 30H185.061L182.281 19.96H185.081L186.901 27.64H186.941C187.355 26.3867 187.675 25.1333 187.901 23.88C188.128 22.6133 188.301 21.3067 188.421 19.96H191.061ZM191.79 30V27.86C192.79 27.06 193.624 26.3933 194.29 25.86C194.957 25.3133 195.484 24.8333 195.87 24.42C196.27 24.0067 196.55 23.6267 196.71 23.28C196.884 22.92 196.97 22.5267 196.97 22.1C196.97 21.5133 196.79 21.1067 196.43 20.88C196.07 20.64 195.61 20.52 195.05 20.52C194.517 20.52 193.997 20.5667 193.49 20.66C192.984 20.7533 192.517 20.8733 192.09 21.02L191.79 19.32C192.35 19.0933 192.97 18.8733 193.65 18.66C194.344 18.4333 195.13 18.32 196.01 18.32C197.37 18.32 198.364 18.6467 198.99 19.3C199.617 19.94 199.93 20.8333 199.93 21.98C199.93 22.5133 199.83 23.0067 199.63 23.46C199.444 23.9 199.157 24.3333 198.77 24.76C198.397 25.1867 197.924 25.62 197.35 26.06C196.777 26.5 196.11 26.98 195.35 27.5H200.31V30H191.79ZM202.09 30V27.9H205.01V21.2L202.41 21.94L201.99 20.34L205.69 18.54H207.97V27.9H210.45V30H202.09Z" fill="white"/>
</svg>
