<svg width="40" height="40" viewBox="0 0 40 40" fill="none" xmlns="http://www.w3.org/2000/svg">
<path d="M20 2.75684C8.9425 2.75684 0 11.7183 0 22.7568C0 28.0959 2.08133 33.1175 5.86055 36.8964C6.0893 37.1252 6.3893 37.2396 6.68914 37.2396C6.98906 37.2396 7.28898 37.1252 7.51781 36.8963L11.0673 33.3465C11.5249 32.8889 11.5249 32.1469 11.0673 31.6893C10.064 30.6859 7.38172 27.7018 7.36461 22.7559C7.36508 15.7289 13.0713 10.1214 20 10.1214C27.0234 10.1214 32.6349 15.8229 32.6354 22.7559C32.6252 25.6979 31.6541 28.393 29.9154 30.5859C28.1092 27.7847 24.0772 21.6265 22.6037 20.1533C21.1527 18.7022 18.8212 18.7283 17.3962 20.1533C15.9423 21.6071 15.9742 23.9385 17.3962 25.3603C19.157 27.1215 27.6094 32.5367 29.0252 33.4393L32.4821 36.8963C32.7109 37.1251 33.0109 37.2396 33.3108 37.2396C33.6107 37.2396 33.9105 37.1252 34.1394 36.8964C37.9187 33.1174 40 28.0959 40 22.7568C40 11.6981 31.0366 2.75684 20 2.75684ZM8.61312 32.4862L6.71594 34.3836C4.14516 31.4555 2.63508 27.813 2.3818 23.9287H5.06586C5.31031 27.0979 6.54375 30.072 8.61312 32.4862ZM5.06578 21.585H2.3818C2.635 17.7006 4.14508 14.0581 6.71594 11.13L8.61312 13.0273C6.5418 15.4428 5.30984 18.4151 5.06578 21.585ZM18.8281 7.82254C15.6582 8.0666 12.6855 9.29887 10.2703 11.37L8.37328 9.47277C11.3016 6.90199 14.9441 5.39184 18.8281 5.13863V7.82254ZM19.0536 23.7031C18.5273 23.1768 18.5348 22.3293 19.0535 21.8106C19.5757 21.2884 20.4248 21.2889 20.9465 21.8106C20.9465 21.8106 20.9465 21.8107 20.9466 21.8107C21.787 22.651 23.8702 25.6722 25.7575 28.5143C22.9155 26.6269 19.8941 24.5438 19.0536 23.7031ZM21.1719 7.82254V5.13863C25.0559 5.39184 28.6984 6.90199 31.6267 9.47285L29.7297 11.37C27.3145 9.29887 24.3418 8.0666 21.1719 7.82254ZM31.3869 13.0273L33.2841 11.13C35.8548 14.0581 37.3649 17.7006 37.6182 21.585H34.9343C34.6902 18.4151 33.4582 15.4428 31.3869 13.0273ZM33.2841 34.3836L31.3869 32.4862C33.4563 30.072 34.6897 27.0979 34.9341 23.9286H37.6182C37.3649 27.813 35.8548 31.4555 33.2841 34.3836Z" fill="#003C4A"/>
</svg>
