<svg width="40" height="40" viewBox="0 0 40 40" fill="none" xmlns="http://www.w3.org/2000/svg">
<path d="M32.7066 9.2668C29.5903 6.14414 25.5308 4.31086 21.1718 4.03148V2.34375H22.8905C23.5377 2.34375 24.0624 1.81906 24.0624 1.17188C24.0624 0.524687 23.5377 0 22.8905 0H17.1093C16.4621 0 15.9374 0.524687 15.9374 1.17188C15.9374 1.81906 16.4621 2.34375 17.1093 2.34375H18.828V4.03148C15.8392 4.22305 12.9915 5.14531 10.4919 6.71305L9.37867 5.59758C8.83687 5.05469 8.11617 4.75578 7.34922 4.75578C6.58227 4.75578 5.86156 5.05477 5.31984 5.59758L3.6268 7.2943C2.51234 8.41094 2.51234 10.228 3.6268 11.3447L4.74758 12.4678C2.97859 15.2984 2.03125 18.5743 2.03125 21.9964C2.03125 26.8048 3.9 31.3257 7.29328 34.726C10.6872 38.127 15.1998 40 19.9999 40C24.8 40 29.3127 38.127 32.7066 34.726C36.0998 31.3257 37.9686 26.8048 37.9686 21.9964C37.9686 17.188 36.0998 12.6671 32.7066 9.2668ZM5.28578 8.94992L6.97891 7.25328C7.11234 7.11961 7.2682 7.09961 7.3493 7.09961C7.43039 7.09961 7.58633 7.11953 7.71977 7.25328L8.56898 8.10422C8.12859 8.4693 7.70266 8.85672 7.29336 9.26687C6.88523 9.67586 6.49969 10.1014 6.13633 10.5414L5.28578 9.68914C5.08234 9.48531 5.08234 9.15367 5.28578 8.94992ZM19.9999 37.6562C11.3843 37.6562 4.375 30.6312 4.375 21.9964C4.375 13.3616 11.3843 6.33656 19.9999 6.33656C28.6155 6.33656 35.6248 13.3615 35.6248 21.9964C35.6248 30.6313 28.6155 37.6562 19.9999 37.6562Z" fill="#003C4A"/>
<path d="M20.0001 8.53223C12.5905 8.53223 6.5625 14.5718 6.5625 21.9954C6.5625 29.4189 12.5905 35.4585 20.0001 35.4585C27.4096 35.4585 33.4377 29.4189 33.4377 21.9954C33.4377 14.5718 27.4096 8.53223 20.0001 8.53223ZM21.172 33.0527V31.6829C21.172 31.0357 20.6473 30.5111 20.0001 30.5111C19.3529 30.5111 18.8282 31.0357 18.8282 31.6829V33.0527C13.6441 32.5046 9.51336 28.3636 8.96781 23.1672H10.3126C10.9598 23.1672 11.4845 22.6425 11.4845 21.9954C11.4845 21.3482 10.9598 20.8235 10.3126 20.8235H8.96789C9.51336 15.6271 13.6441 11.4861 18.8282 10.938V12.3078C18.8282 12.955 19.3529 13.4796 20.0001 13.4796C20.6473 13.4796 21.172 12.955 21.172 12.3078V10.938C26.356 11.4861 30.4868 15.6271 31.0323 20.8235H29.6876C29.0404 20.8235 28.5157 21.3482 28.5157 21.9954C28.5157 22.6425 29.0404 23.1672 29.6876 23.1672H31.0323C30.4868 28.3636 26.356 32.5046 21.172 33.0527Z" fill="#003C4A"/>
<path d="M22.8916 21.3216H21.2383V16.582C21.2383 15.9348 20.7136 15.4102 20.0664 15.4102C19.4192 15.4102 18.8945 15.9348 18.8945 16.582V22.4935C18.8945 23.1407 19.4192 23.6654 20.0664 23.6654H22.8916C23.5388 23.6654 24.0634 23.1407 24.0634 22.4935C24.0634 21.8463 23.5388 21.3216 22.8916 21.3216Z" fill="#003C4A"/>
</svg>
