<svg width="40" height="40" viewBox="0 0 40 40" fill="none" xmlns="http://www.w3.org/2000/svg">
<path d="M8.47141 33.1929L6.68841 31.4099L8.27509 26.9716L6.74432 23.2777L2.48501 21.2623V18.74L6.74432 16.7247L8.27509 13.0307L6.68841 8.5925L8.47141 6.8095L12.9121 8.39618L16.6011 6.86914L18.6202 2.60611H21.14L23.1591 6.86914L26.8481 8.39618L31.2888 6.8095L33.0718 8.5925L31.6466 12.5785L33.9875 13.4159L35.9407 7.94764L31.9349 3.94056L26.9139 5.73474L24.9943 4.93953L22.713 0.121094H17.0472L14.7659 4.93953L12.8463 5.73474L7.8253 3.94056L3.81946 7.94764L5.6124 12.9649L4.81471 14.8883L0 17.1683V22.8341L4.81471 25.1141L5.6124 27.0375L3.81946 32.0547L7.8253 36.0618L13.2948 34.1086L12.4586 31.769L8.47141 33.1929Z" fill="#003C4A"/>
<path d="M37.6476 26.7108L39.9997 23.4989L37.3991 18.9924L33.4405 19.4235L32.1446 18.678L30.538 15.0312H25.3393L23.7315 18.6755L22.4344 19.421L18.477 18.9899L15.8789 23.4952L18.2297 26.7108V28.2018L15.8789 31.4174L18.4782 35.9203L22.4356 35.4891L23.7328 36.2346L25.3393 39.8814H30.538L32.1446 36.2371L33.4405 35.4916L37.3991 35.9227L39.9984 31.4199L37.6476 28.2018V26.7108ZM37.0375 31.5814L36.0585 33.2787L32.9025 32.9345L30.1926 34.4914L28.9178 37.3964H26.9621L25.681 34.4914L22.9773 32.9308L19.8226 33.275L18.8435 31.5777L20.7172 29.0181V25.8945L18.8435 23.3349L19.8226 21.6377L22.9773 21.9818L25.681 20.4212L26.9621 17.5163H28.9202L30.2 20.4212L32.9037 21.9818L36.0597 21.6377L37.0388 23.3349L35.1626 25.8945V29.0181L37.0375 31.5814Z" fill="#003C4A"/>
<path d="M27.9388 22.4873C25.1939 22.4873 22.9688 24.7125 22.9688 27.4573C22.9688 30.2022 25.1939 32.4273 27.9388 32.4273C30.6836 32.4273 32.9088 30.2022 32.9088 27.4573C32.9088 24.7125 30.6836 22.4873 27.9388 22.4873ZM27.9388 29.9423C26.5663 29.9423 25.4538 28.8297 25.4538 27.4573C25.4538 26.0849 26.5663 24.9723 27.9388 24.9723C29.3112 24.9723 30.4238 26.0849 30.4238 27.4573C30.4238 28.8297 29.3112 29.9423 27.9388 29.9423Z" fill="#003C4A"/>
<path d="M12.4226 20.0034C12.4181 17.7423 13.444 15.6023 15.2096 14.1897L13.6515 12.2539C9.37219 15.6927 8.69083 21.9493 12.1296 26.2286C12.7229 26.9669 13.4186 27.6166 14.1957 28.158L15.6184 26.1203C13.6178 24.7258 12.4246 22.442 12.4226 20.0034Z" fill="#003C4A"/>
<path d="M21.2188 12.6731C21.8637 12.7885 22.4904 12.989 23.0825 13.2695L24.1461 11.0255C23.3566 10.651 22.521 10.3823 21.6611 10.2266L21.2188 12.6731Z" fill="#003C4A"/>
<path d="M17.0366 13.1052C17.6931 12.834 18.3852 12.659 19.0917 12.5859L18.8358 10.1133C17.8919 10.212 16.9671 10.4459 16.0898 10.8078L17.0366 13.1052Z" fill="#003C4A"/>
</svg>
