<svg width="40" height="40" viewBox="0 0 40 40" fill="none" xmlns="http://www.w3.org/2000/svg">
<path d="M32.356 0H25.1166C23.4283 0 22.0547 1.37359 22.0547 3.06195V10.3014C22.0547 11.9898 23.4283 13.3634 25.1166 13.3634H32.356C34.0445 13.3634 35.418 11.9898 35.418 10.3014V3.06195C35.4181 1.37359 34.0445 0 32.356 0ZM33.0744 10.3014C33.0744 10.6974 32.7521 11.0196 32.3561 11.0196H25.1167C24.7207 11.0196 24.3985 10.6974 24.3985 10.3014V3.06195C24.3985 2.66594 24.7207 2.34375 25.1167 2.34375H32.3561C32.7521 2.34375 33.0744 2.66594 33.0744 3.06195V10.3014Z" fill="#003C4A"/>
<path d="M26.7497 16.289C26.1875 16.289 25.6573 16.4285 25.1919 16.6748C24.5923 15.7765 23.5695 15.1838 22.4108 15.1838C21.8125 15.1838 21.2503 15.3419 20.7639 15.6185C20.1551 14.7917 19.175 14.2544 18.0719 14.2544C17.7247 14.2544 17.3894 14.3077 17.0743 14.4064V13.3633H17.3526C19.041 13.3633 20.4146 11.9897 20.4146 10.3013V3.06195C20.4146 1.37359 19.041 0 17.3526 0H10.1133C8.4249 0 7.05131 1.37359 7.05131 3.06195V10.3014C7.05131 11.9898 8.4249 13.3634 10.1133 13.3634H10.3916V20.6229C10.2104 20.4412 10.0069 20.2792 9.7835 20.1405C9.06365 19.6933 8.21951 19.5377 7.39178 19.697C6.50178 19.7327 5.70303 20.1212 5.1842 20.7752C4.6392 21.462 4.4499 22.3832 4.66467 23.3023L6.20467 29.8931C7.08311 35.392 11.3726 39.5063 11.5553 39.6791C11.7729 39.8852 12.0612 39.9999 12.3609 39.9999H25.5415C25.9361 39.9999 26.304 39.8014 26.5208 39.4718C28.8552 35.9209 30.0895 31.7978 30.0901 27.5485L30.0913 19.6304C30.0913 19.6303 30.0913 19.6303 30.0913 19.6302C30.0912 17.7879 28.5922 16.289 26.7497 16.289ZM12.8533 37.6562C11.9088 36.6516 9.12553 33.4076 8.51318 29.4872C8.50865 29.4584 8.50311 29.4298 8.49647 29.4014L6.94678 22.7691C6.89506 22.5475 6.92107 22.3567 7.02014 22.2318C7.1192 22.1069 7.28865 22.0416 7.51514 22.0201C7.62912 22.0092 7.67639 21.9957 7.78178 21.9893C8.04764 21.9732 8.32022 21.9908 8.54662 22.1314C8.77303 22.272 8.931 22.4923 8.99162 22.7518L10.3283 28.4727C10.4399 28.9503 10.8372 29.308 11.3239 29.3688L11.4178 29.3805C11.7515 29.4223 12.0868 29.3188 12.3388 29.0963C12.5908 28.8739 12.7351 28.5539 12.7351 28.2177V9.59313C12.7351 9.04305 13.1827 8.59547 13.7328 8.59547C14.2829 8.59547 14.7304 9.04305 14.7304 9.59313V17.5958V20.5822C14.7304 21.2294 15.2551 21.7541 15.9023 21.7541C16.5495 21.7541 17.0742 21.2294 17.0742 20.5822V17.5958C17.0742 17.0457 17.5217 16.5982 18.0718 16.5982C18.6219 16.5982 19.0694 17.0457 19.0694 17.5958V18.5252V20.7156C19.0694 21.3628 19.5941 21.8875 20.2413 21.8875C20.8885 21.8875 21.4132 21.3628 21.4132 20.7156V18.5252C21.4132 17.9751 21.8608 17.5275 22.4108 17.5275C22.9609 17.5275 23.4084 17.9751 23.4084 18.5252V19.6303V21.534C23.4084 22.1812 23.9331 22.7059 24.5803 22.7059C25.2275 22.7059 25.7522 22.1812 25.7522 21.534V19.6303C25.7522 19.0802 26.1997 18.6327 26.7498 18.6327C27.2999 18.6327 27.7475 19.0802 27.7475 19.6301L27.7462 27.5483C27.7458 31.1299 26.7626 34.6112 24.8975 37.6562H12.8533ZM9.39506 10.3014V3.06195C9.39506 2.66594 9.71725 2.34375 10.1133 2.34375H17.3526C17.7487 2.34375 18.0708 2.66594 18.0708 3.06195V10.3014C18.0708 10.6974 17.7487 11.0196 17.3526 11.0196H17.0743V9.59305C17.0743 7.75063 15.5753 6.25164 13.7329 6.25164C11.8904 6.25164 10.3915 7.75063 10.3915 9.59305V11.0196H10.1131C9.71725 11.0196 9.39506 10.6974 9.39506 10.3014Z" fill="#003C4A"/>
</svg>
