<svg width="107" height="24" viewBox="0 0 107 24" fill="none" xmlns="http://www.w3.org/2000/svg">
<rect x="0.5" y="0.5" width="106" height="23" rx="3.5" stroke="white"/>
<path d="M0.5 4C0.5 2.067 2.067 0.5 4 0.5H54.5V23.5H4C2.067 23.5 0.5 21.933 0.5 20V4Z" fill="white" stroke="white"/>
<path d="M34.0703 14.6738C34.0703 15.4355 33.7949 16.0332 33.2441 16.4668C32.6934 16.9004 31.9336 17.1172 30.9648 17.1172C29.9961 17.1172 29.2031 16.9668 28.5859 16.666V15.3418C28.9766 15.5254 29.3906 15.6699 29.8281 15.7754C30.2695 15.8809 30.6797 15.9336 31.0586 15.9336C31.6133 15.9336 32.0215 15.8281 32.2832 15.6172C32.5488 15.4062 32.6816 15.123 32.6816 14.7676C32.6816 14.4473 32.5605 14.1758 32.3184 13.9531C32.0762 13.7305 31.5762 13.4668 30.8184 13.1621C30.0371 12.8457 29.4863 12.4844 29.166 12.0781C28.8457 11.6719 28.6855 11.1836 28.6855 10.6133C28.6855 9.89844 28.9395 9.33594 29.4473 8.92578C29.9551 8.51562 30.6367 8.31055 31.4922 8.31055C32.3125 8.31055 33.1289 8.49023 33.9414 8.84961L33.4961 9.99219C32.7344 9.67188 32.0547 9.51172 31.457 9.51172C31.0039 9.51172 30.6602 9.61133 30.4258 9.81055C30.1914 10.0059 30.0742 10.2656 30.0742 10.5898C30.0742 10.8125 30.1211 11.0039 30.2148 11.1641C30.3086 11.3203 30.4629 11.4688 30.6777 11.6094C30.8926 11.75 31.2793 11.9355 31.8379 12.166C32.4668 12.4277 32.9277 12.6719 33.2207 12.8984C33.5137 13.125 33.7285 13.3809 33.8652 13.666C34.002 13.9512 34.0703 14.2871 34.0703 14.6738ZM37.6361 16.0039C37.972 16.0039 38.308 15.9512 38.6439 15.8457V16.8828C38.4916 16.9492 38.2943 17.0039 38.0521 17.0469C37.8138 17.0938 37.5658 17.1172 37.308 17.1172C36.0033 17.1172 35.3509 16.4297 35.3509 15.0547V11.5625H34.4662V10.9531L35.4154 10.4492L35.8841 9.07812H36.7337V10.5195H38.5795V11.5625H36.7337V15.0312C36.7337 15.3633 36.8158 15.6094 36.9798 15.7695C37.1478 15.9258 37.3666 16.0039 37.6361 16.0039ZM43.6394 17L43.364 16.0977H43.3171C43.0046 16.4922 42.6902 16.7617 42.3737 16.9062C42.0573 17.0469 41.6511 17.1172 41.155 17.1172C40.5183 17.1172 40.0202 16.9453 39.6609 16.6016C39.3054 16.2578 39.1277 15.7715 39.1277 15.1426C39.1277 14.4746 39.3757 13.9707 39.8718 13.6309C40.3679 13.291 41.1237 13.1055 42.1394 13.0742L43.2585 13.0391V12.6934C43.2585 12.2793 43.1609 11.9707 42.9655 11.7676C42.7741 11.5605 42.4753 11.457 42.0691 11.457C41.737 11.457 41.4187 11.5059 41.114 11.6035C40.8093 11.7012 40.5163 11.8164 40.2351 11.9492L39.7898 10.9648C40.1413 10.7812 40.5261 10.6426 40.9441 10.5488C41.362 10.4512 41.7566 10.4023 42.1277 10.4023C42.9519 10.4023 43.573 10.582 43.9909 10.9414C44.4128 11.3008 44.6237 11.8652 44.6237 12.6348V17H43.6394ZM41.5886 16.0625C42.0886 16.0625 42.489 15.9238 42.7898 15.6465C43.0945 15.3652 43.2468 14.9727 43.2468 14.4688V13.9062L42.4148 13.9414C41.7663 13.9648 41.2937 14.0742 40.9968 14.2695C40.7038 14.4609 40.5573 14.7559 40.5573 15.1543C40.5573 15.4434 40.6433 15.668 40.8152 15.8281C40.987 15.9844 41.2448 16.0625 41.5886 16.0625ZM49.4727 10.4023C49.7501 10.4023 49.9786 10.4219 50.1583 10.4609L50.0235 11.7441C49.8282 11.6973 49.6251 11.6738 49.4141 11.6738C48.8634 11.6738 48.4161 11.8535 48.0723 12.2129C47.7325 12.5723 47.5626 13.0391 47.5626 13.6133V17H46.1856V10.5195H47.2638L47.4454 11.6621H47.5157C47.7305 11.2754 48.0098 10.9688 48.3536 10.7422C48.7013 10.5156 49.0743 10.4023 49.4727 10.4023Z" fill="#003C4A"/>
</svg>
