<svg width="368" height="319" viewBox="0 0 368 319" fill="none" xmlns="http://www.w3.org/2000/svg">
<g opacity="0.9">
<path d="M178.216 179.886C179.337 179.886 180.251 180.8 180.251 181.923V241.099C180.251 242.609 179.027 243.833 177.519 243.833H88.4854C87.4421 243.833 86.5938 242.985 86.5938 241.94V181.923L86.6045 181.715C86.7018 180.757 87.4646 179.994 88.4209 179.896L88.6289 179.886H178.216Z" fill="white" fill-opacity="0.2" stroke="white"/>
<g opacity="0.7">
<path d="M104.864 188.701H98.1875V190.158H104.864V188.701Z" fill="#769CB2"/>
<path d="M101.525 195.226H98.1875V196.682H101.525V195.226Z" fill="#F29111"/>
<path d="M105.397 198.508H100.695V199.964H105.397V198.508Z" fill="#769CB2"/>
<path d="M108.887 198.508H106.148V199.964H108.887V198.508Z" fill="#769CB2"/>
<path d="M133.436 198.508H127.805V199.964H133.436V198.508Z" fill="#769CB2"/>
<path d="M149.905 201.705H140.391V203.162H149.905V201.705Z" fill="#769CB2"/>
<path d="M164.578 198.508H160.008V199.964H164.578V198.508Z" fill="#769CB2"/>
<path d="M175.173 198.508H165.984V199.964H175.173V198.508Z" fill="#769CB2"/>
<path d="M105.397 201.705H100.695V203.162H105.397V201.705Z" fill="#769CB2"/>
<path d="M102.514 204.897H97.8125V206.354H102.514V204.897Z" fill="#F29111"/>
<path d="M102.508 208.091H100.312V209.547H102.508V208.091Z" fill="#769CB2"/>
<path d="M110.562 214.812H108.367V216.268H110.562V214.812Z" fill="#769CB2"/>
<path d="M142.877 226.959H138.586V228.416H142.877V226.959Z" fill="#769CB2"/>
<path d="M166.849 226.959H156.336V228.416H166.849V226.959Z" fill="#769CB2"/>
<path d="M126.721 223.769H122.43V225.225H126.721V223.769Z" fill="white"/>
<path d="M111.174 221.033H106.883V222.49H111.174V221.033Z" fill="#769CB2"/>
<path d="M137.688 226.959H130.922V228.416H137.688V226.959Z" fill="#769CB2"/>
<path d="M103.877 211.342H100.312V212.798H103.877V211.342Z" fill="#769CB2"/>
<path d="M106.924 214.866H100.312V216.323H106.924V214.866Z" fill="#769CB2"/>
<path d="M109.984 217.566H100.312V219.023H109.984V217.566Z" fill="#769CB2"/>
<path d="M127.515 217.566H117.844V219.023H127.515V217.566Z" fill="#769CB2"/>
<path d="M120.378 223.769H106.797V225.225H120.378V223.769Z" fill="#769CB2"/>
<path d="M129.767 226.959H106.797V228.416H129.767V226.959Z" fill="#769CB2"/>
<path d="M122.822 230.146H99.8516V231.603H122.822V230.146Z" fill="#769CB2"/>
<path d="M116.809 217.566H111.008V219.023H116.809V217.566Z" fill="#769CB2"/>
<path d="M109.354 208.091H103.367V209.547H109.354V208.091Z" fill="#769CB2"/>
<path d="M110.682 211.342H104.695V212.798H110.682V211.342Z" fill="#769CB2"/>
<path d="M133.886 211.342H118.031V212.798H133.886V211.342Z" fill="#769CB2"/>
<path d="M152.624 211.342H134.312V212.798H152.624V211.342Z" fill="#769CB2"/>
<path d="M116.611 211.342H111.656V212.798H116.611V211.342Z" fill="#769CB2"/>
<path d="M118.027 208.091H110.18V209.547H118.027V208.091Z" fill="#769CB2"/>
<path d="M123.268 208.091H118.898V209.547H123.268V208.091Z" fill="white"/>
<path d="M111.048 201.705H106.148V203.162H111.048V201.705Z" fill="#769CB2"/>
<path d="M138.571 201.705H114.375V203.162H138.571V201.705Z" fill="#769CB2"/>
<path d="M165.73 211.342H154.289V212.798H165.73V211.342Z" fill="#769CB2"/>
<path d="M155.433 226.959H143.992V228.416H155.433V226.959Z" fill="#769CB2"/>
<path d="M158.242 198.508H134.406V199.964H158.242V198.508Z" fill="#769CB2"/>
<path d="M126.328 198.508H109.742V199.964H126.328V198.508Z" fill="#769CB2"/>
<path d="M109.354 191.79H98.1875V193.247H109.354V191.79Z" fill="#769CB2"/>
<path d="M125.759 191.79H110.469V193.247H125.759V191.79Z" fill="#769CB2"/>
<path d="M110.822 188.701H105.906V190.158H110.822V188.701Z" fill="white"/>
<path d="M93.083 189.452V189.407C93.083 189.017 92.7671 188.701 92.3775 188.701C91.9878 188.701 91.6719 189.017 91.6719 189.407V189.452C91.6719 189.842 91.9878 190.158 92.3775 190.158C92.7671 190.158 93.083 189.842 93.083 189.452Z" fill="#F29111"/>
<path d="M93.083 192.641V192.595C93.083 192.206 92.7671 191.89 92.3775 191.89C91.9878 191.89 91.6719 192.206 91.6719 192.595V192.641C91.6719 193.03 91.9878 193.346 92.3775 193.346C92.7671 193.346 93.083 193.03 93.083 192.641Z" fill="#F29111"/>
<path d="M93.083 195.828V195.783C93.083 195.393 92.7671 195.077 92.3775 195.077C91.9878 195.077 91.6719 195.393 91.6719 195.783V195.828C91.6719 196.218 91.9878 196.534 92.3775 196.534C92.7671 196.534 93.083 196.218 93.083 195.828Z" fill="#F29111"/>
<path d="M93.083 199.017V198.971C93.083 198.582 92.7671 198.266 92.3775 198.266C91.9878 198.266 91.6719 198.582 91.6719 198.971V199.017C91.6719 199.406 91.9878 199.722 92.3775 199.722C92.7671 199.722 93.083 199.406 93.083 199.017Z" fill="#F29111"/>
<path d="M93.083 202.204V202.159C93.083 201.769 92.7671 201.453 92.3775 201.453C91.9878 201.453 91.6719 201.769 91.6719 202.159V202.204C91.6719 202.594 91.9878 202.91 92.3775 202.91C92.7671 202.91 93.083 202.594 93.083 202.204Z" fill="#F29111"/>
<path d="M93.083 205.392V205.346C93.083 204.957 92.7671 204.641 92.3775 204.641C91.9878 204.641 91.6719 204.957 91.6719 205.346V205.392C91.6719 205.781 91.9878 206.097 92.3775 206.097C92.7671 206.097 93.083 205.781 93.083 205.392Z" fill="#F29111"/>
<path d="M93.083 208.579V208.534C93.083 208.144 92.7671 207.828 92.3775 207.828C91.9878 207.828 91.6719 208.144 91.6719 208.534V208.579C91.6719 208.969 91.9878 209.285 92.3775 209.285C92.7671 209.285 93.083 208.969 93.083 208.579Z" fill="#F29111"/>
<path d="M93.083 211.768V211.722C93.083 211.332 92.7671 211.017 92.3775 211.017C91.9878 211.017 91.6719 211.332 91.6719 211.722V211.768C91.6719 212.157 91.9878 212.473 92.3775 212.473C92.7671 212.473 93.083 212.157 93.083 211.768Z" fill="#F29111"/>
<path d="M93.083 214.956V214.911C93.083 214.521 92.7671 214.205 92.3775 214.205C91.9878 214.205 91.6719 214.521 91.6719 214.911V214.956C91.6719 215.346 91.9878 215.662 92.3775 215.662C92.7671 215.662 93.083 215.346 93.083 214.956Z" fill="#F29111"/>
<path d="M110.031 237.032H107.836V238.489H110.031V237.032Z" fill="white"/>
<path d="M106.502 237.032H99.8906V238.489H106.502V237.032Z" fill="#F29111"/>
<path d="M93.083 237.62V237.575C93.083 237.185 92.7671 236.869 92.3775 236.869C91.9878 236.869 91.6719 237.185 91.6719 237.575V237.62C91.6719 238.01 91.9878 238.326 92.3775 238.326C92.7671 238.326 93.083 238.01 93.083 237.62Z" fill="#F29111"/>
<path d="M93.083 218.143V218.097C93.083 217.707 92.7671 217.392 92.3775 217.392C91.9878 217.392 91.6719 217.707 91.6719 218.097V218.143C91.6719 218.532 91.9878 218.848 92.3775 218.848C92.7671 218.848 93.083 218.532 93.083 218.143Z" fill="#F29111"/>
<path d="M93.083 221.332V221.287C93.083 220.897 92.7671 220.581 92.3775 220.581C91.9878 220.581 91.6719 220.897 91.6719 221.287V221.332C91.6719 221.722 91.9878 222.038 92.3775 222.038C92.7671 222.038 93.083 221.722 93.083 221.332Z" fill="#F29111"/>
<path d="M93.083 224.52V224.474C93.083 224.084 92.7671 223.769 92.3775 223.769C91.9878 223.769 91.6719 224.084 91.6719 224.474V224.52C91.6719 224.909 91.9878 225.225 92.3775 225.225C92.7671 225.225 93.083 224.909 93.083 224.52Z" fill="#F29111"/>
<path d="M93.083 227.71V227.665C93.083 227.275 92.7671 226.959 92.3775 226.959C91.9878 226.959 91.6719 227.275 91.6719 227.665V227.71C91.6719 228.1 91.9878 228.416 92.3775 228.416C92.7671 228.416 93.083 228.1 93.083 227.71Z" fill="#F29111"/>
<path d="M93.083 230.898V230.852C93.083 230.462 92.7671 230.146 92.3775 230.146C91.9878 230.146 91.6719 230.462 91.6719 230.852V230.898C91.6719 231.287 91.9878 231.603 92.3775 231.603C92.7671 231.603 93.083 231.287 93.083 230.898Z" fill="#F29111"/>
<path d="M106.549 233.499H99.8516V234.956H106.549V233.499Z" fill="#769CB2"/>
<path d="M122.985 233.499H107.836V234.956H122.985V233.499Z" fill="#769CB2"/>
<path d="M93.083 234.25V234.205C93.083 233.815 92.7671 233.499 92.3775 233.499C91.9878 233.499 91.6719 233.815 91.6719 234.205V234.25C91.6719 234.64 91.9878 234.956 92.3775 234.956C92.7671 234.956 93.083 234.64 93.083 234.25Z" fill="#F29111"/>
<path d="M132.541 191.779H127.625V193.236H132.541V191.779Z" fill="white"/>
</g>
<path d="M91.376 183.085C91.6522 183.085 91.877 183.31 91.877 183.587C91.8768 183.864 91.6521 184.088 91.376 184.088C91.0998 184.088 90.8752 183.864 90.875 183.587C90.875 183.31 91.0997 183.085 91.376 183.085Z" fill="#8EC9E6" stroke="white"/>
<path d="M94.1494 183.085C94.4256 183.085 94.6504 183.31 94.6504 183.587C94.6502 183.864 94.4255 184.088 94.1494 184.088C93.8732 184.088 93.6486 183.864 93.6484 183.587C93.6484 183.31 93.8731 183.085 94.1494 183.085Z" fill="#F29111" stroke="white"/>
<path d="M96.9385 183.085C97.2147 183.085 97.4395 183.31 97.4395 183.587C97.4393 183.864 97.2146 184.088 96.9385 184.088C96.6623 184.088 96.4377 183.864 96.4375 183.587C96.4375 183.31 96.6622 183.085 96.9385 183.085Z" fill="white" stroke="white"/>
<mask id="path-67-inside-1_3429_3886" fill="white">
<path d="M95.5758 188.286C95.6123 188.286 95.6437 200.828 95.6437 216.295C95.6437 231.761 95.6123 244.306 95.5758 244.306C95.5392 244.306 95.5078 231.766 95.5078 216.295C95.5078 200.823 95.5392 188.286 95.5758 188.286Z"/>
</mask>
<path d="M95.5758 188.286C95.6123 188.286 95.6437 200.828 95.6437 216.295C95.6437 231.761 95.6123 244.306 95.5758 244.306C95.5392 244.306 95.5078 231.766 95.5078 216.295C95.5078 200.823 95.5392 188.286 95.5758 188.286Z" fill="#455A64"/>
<path d="M95.5758 188.286V189.286C95.285 189.243 94.8872 189.011 94.7748 188.885C94.7244 188.811 94.6589 188.685 94.6394 188.637C94.6087 188.554 94.5964 188.487 94.5936 188.472C94.5852 188.427 94.5822 188.392 94.5818 188.388C94.5801 188.37 94.5799 188.361 94.5803 188.369C94.5808 188.381 94.5817 188.408 94.5828 188.454C94.5849 188.544 94.5871 188.681 94.5892 188.867C94.5936 189.237 94.5978 189.785 94.6018 190.493C94.6099 191.909 94.6172 193.959 94.6234 196.493C94.6359 201.561 94.6437 208.562 94.6437 216.295H95.6437H96.6437C96.6437 208.561 96.6359 201.558 96.6234 196.488C96.6172 193.953 96.6099 191.901 96.6018 190.482C96.5977 189.773 96.5935 189.22 96.5891 188.844C96.5869 188.656 96.5847 188.509 96.5823 188.407C96.5811 188.358 96.5798 188.312 96.5781 188.276C96.5773 188.26 96.5759 188.232 96.5731 188.202C96.5722 188.192 96.5686 188.153 96.5596 188.105C96.5565 188.088 96.5439 188.02 96.513 187.937C96.4933 187.888 96.4277 187.762 96.3772 187.688C96.2646 187.561 95.8666 187.329 95.5758 187.286V188.286ZM95.6437 216.295H94.6437C94.6437 224.027 94.6359 231.029 94.6234 236.097C94.6172 238.632 94.6099 240.682 94.6018 242.098C94.5978 242.806 94.5936 243.354 94.5892 243.725C94.5871 243.91 94.5849 244.048 94.5828 244.137C94.5817 244.184 94.5808 244.21 94.5803 244.222C94.5799 244.231 94.5801 244.221 94.5818 244.203C94.5822 244.199 94.5852 244.165 94.5936 244.12C94.5964 244.105 94.6087 244.037 94.6394 243.955C94.6588 243.907 94.7244 243.781 94.7747 243.707C94.8871 243.581 95.285 243.349 95.5758 243.306V244.306V245.306C95.8667 245.262 96.2647 245.03 96.3772 244.904C96.4277 244.829 96.4934 244.703 96.513 244.655C96.544 244.572 96.5566 244.503 96.5596 244.487C96.5686 244.439 96.5722 244.4 96.5731 244.389C96.5759 244.359 96.5773 244.331 96.5781 244.316C96.5798 244.28 96.5811 244.234 96.5823 244.184C96.5847 244.083 96.5869 243.935 96.5891 243.748C96.5935 243.372 96.5977 242.819 96.6018 242.109C96.6099 240.69 96.6172 238.637 96.6234 236.102C96.6359 231.032 96.6437 224.028 96.6437 216.295H95.6437ZM95.5758 244.306V243.306C95.8664 243.349 96.2643 243.58 96.3767 243.707C96.427 243.781 96.4926 243.907 96.5121 243.955C96.5428 244.037 96.5551 244.105 96.5579 244.12C96.5663 244.164 96.5693 244.199 96.5697 244.203C96.5714 244.221 96.5717 244.231 96.5712 244.222C96.5707 244.21 96.5698 244.184 96.5687 244.138C96.5666 244.048 96.5644 243.91 96.5623 243.725C96.5579 243.355 96.5537 242.807 96.5497 242.099C96.5416 240.683 96.5343 238.633 96.5281 236.099C96.5157 231.032 96.5078 224.03 96.5078 216.295H95.5078H94.5078C94.5078 224.031 94.5157 231.034 94.5281 236.104C94.5343 238.639 94.5416 240.691 94.5497 242.11C94.5538 242.819 94.558 243.372 94.5624 243.748C94.5646 243.936 94.5669 244.083 94.5692 244.184C94.5704 244.234 94.5717 244.28 94.5734 244.316C94.5742 244.331 94.5756 244.359 94.5784 244.389C94.5793 244.4 94.5829 244.439 94.5919 244.487C94.595 244.503 94.6076 244.572 94.6386 244.655C94.6582 244.704 94.7239 244.83 94.7744 244.904C94.887 245.031 95.2849 245.262 95.5758 245.306V244.306ZM95.5078 216.295H96.5078C96.5078 208.559 96.5157 201.558 96.5281 196.491C96.5343 193.957 96.5416 191.908 96.5497 190.492C96.5537 189.784 96.5579 189.237 96.5623 188.867C96.5644 188.681 96.5666 188.544 96.5687 188.454C96.5698 188.408 96.5707 188.381 96.5712 188.369C96.5717 188.361 96.5714 188.371 96.5697 188.388C96.5693 188.393 96.5663 188.427 96.5579 188.472C96.5551 188.487 96.5428 188.555 96.5121 188.637C96.4926 188.685 96.427 188.811 96.3766 188.885C96.2642 189.011 95.8664 189.243 95.5758 189.286V188.286V187.286C95.285 187.329 94.887 187.561 94.7745 187.688C94.724 187.762 94.6582 187.888 94.6386 187.937C94.6076 188.02 94.595 188.088 94.5919 188.105C94.583 188.153 94.5793 188.192 94.5784 188.202C94.5756 188.232 94.5742 188.26 94.5734 188.276C94.5717 188.312 94.5704 188.358 94.5692 188.407C94.5669 188.509 94.5646 188.656 94.5624 188.843C94.558 189.219 94.5538 189.772 94.5497 190.481C94.5416 191.9 94.5343 193.952 94.5281 196.486C94.5157 201.555 94.5078 208.558 94.5078 216.295H95.5078Z" fill="white" mask="url(#path-67-inside-1_3429_3886)"/>
</g>
<g opacity="0.9">
<path d="M294.906 165.856C296.595 165.856 297.97 167.231 297.97 168.922V252.098C297.97 254.332 296.158 256.144 293.926 256.145H168.783C167.205 256.145 165.922 254.862 165.922 253.281V168.922C165.922 167.231 167.296 165.857 168.984 165.856H294.906Z" fill="white" fill-opacity="0.2" stroke="white"/>
<g opacity="0.7">
<path d="M191.783 178.449H182.398V180.497H191.783V178.449Z" fill="white" fill-opacity="0.2"/>
<path d="M187.089 187.62H182.398V189.668H187.089V187.62Z" fill="white" fill-opacity="0.2"/>
<path d="M192.538 192.234H185.93V194.282H192.538V192.234Z" fill="white" fill-opacity="0.2"/>
<path d="M197.435 192.234H193.586V194.282H197.435V192.234Z" fill="white" fill-opacity="0.2"/>
<path d="M231.947 192.234H224.031V194.282H231.947V192.234Z" fill="white" fill-opacity="0.2"/>
<path d="M255.1 196.728H241.727V198.775H255.1V196.728Z" fill="white" fill-opacity="0.2"/>
<path d="M275.729 192.234H269.305V194.282H275.729V192.234Z" fill="white" fill-opacity="0.2"/>
<path d="M290.618 192.234H277.703V194.282H290.618V192.234Z" fill="white" fill-opacity="0.2"/>
<path d="M192.538 196.728H185.93V198.775H192.538V196.728Z" fill="white" fill-opacity="0.2"/>
<path d="M188.483 201.214H181.875V203.261H188.483V201.214Z" fill="white" fill-opacity="0.2"/>
<path d="M188.484 205.702H185.398V207.75H188.484V205.702Z" fill="white" fill-opacity="0.2"/>
<path d="M199.804 215.148H196.719V217.196H199.804V215.148Z" fill="white" fill-opacity="0.2"/>
<path d="M245.219 232.223H239.188V234.27H245.219V232.223Z" fill="white" fill-opacity="0.2"/>
<path d="M278.918 232.223H264.141V234.27H278.918V232.223Z" fill="white" fill-opacity="0.2"/>
<path d="M222.508 227.737H216.477V229.785H222.508V227.737Z" fill="white" fill-opacity="0.2"/>
<path d="M200.656 223.894H194.625V225.941H200.656V223.894Z" fill="white" fill-opacity="0.2"/>
<path d="M237.939 232.223H228.43V234.27H237.939V232.223Z" fill="white" fill-opacity="0.2"/>
<path d="M190.409 210.271H185.398V212.318H190.409V210.271Z" fill="white" fill-opacity="0.2"/>
<path d="M194.691 215.227H185.398V217.274H194.691V215.227Z" fill="white" fill-opacity="0.2"/>
<path d="M198.993 219.021H185.398V221.069H198.993V219.021Z" fill="white" fill-opacity="0.2"/>
<path d="M223.618 219.021H210.023V221.069H223.618V219.021Z" fill="white" fill-opacity="0.2"/>
<path d="M213.589 227.737H194.5V229.785H213.589V227.737Z" fill="white" fill-opacity="0.2"/>
<path d="M226.787 232.223H194.5V234.27H226.787V232.223Z" fill="white" fill-opacity="0.2"/>
<path d="M217.021 236.703H184.734V238.751H217.021V236.703Z" fill="white" fill-opacity="0.2"/>
<path d="M208.584 219.021H200.43V221.069H208.584V219.021Z" fill="white" fill-opacity="0.2"/>
<path d="M198.118 205.702H189.703V207.75H198.118V205.702Z" fill="white" fill-opacity="0.2"/>
<path d="M199.962 210.271H191.547V212.318H199.962V210.271Z" fill="white" fill-opacity="0.2"/>
<path d="M232.574 210.271H210.289V212.318H232.574V210.271Z" fill="white" fill-opacity="0.2"/>
<path d="M258.925 210.271H233.188V212.318H258.925V210.271Z" fill="white" fill-opacity="0.2"/>
<path d="M208.316 210.271H201.352V212.318H208.316V210.271Z" fill="white" fill-opacity="0.2"/>
<path d="M210.296 205.702H199.266V207.75H210.296V205.702Z" fill="white" fill-opacity="0.2"/>
<path d="M217.657 205.702H211.516V207.75H217.657V205.702Z" fill="white" fill-opacity="0.2"/>
<path d="M200.473 196.728H193.586V198.775H200.473V196.728Z" fill="white" fill-opacity="0.2"/>
<path d="M239.166 196.728H205.156V198.775H239.166V196.728Z" fill="white" fill-opacity="0.2"/>
<path d="M277.347 210.271H261.266V212.318H277.347V210.271Z" fill="white" fill-opacity="0.2"/>
<path d="M262.87 232.223H246.789V234.27H262.87V232.223Z" fill="white" fill-opacity="0.2"/>
<path d="M266.807 192.235H233.305V194.283H266.807V192.235Z" fill="white" fill-opacity="0.2"/>
<path d="M221.954 192.234H198.641V194.282H221.954V192.234Z" fill="white" fill-opacity="0.2"/>
<path d="M198.094 182.79H182.398V184.837H198.094V182.79Z" fill="white" fill-opacity="0.2"/>
<path d="M221.155 182.79H199.664V184.837H221.155V182.79Z" fill="white" fill-opacity="0.2"/>
<path d="M200.159 178.449H193.25V180.497H200.159V178.449Z" fill="white" fill-opacity="0.2"/>
<path d="M175.241 179.505V179.441C175.241 178.893 174.797 178.449 174.25 178.449C173.702 178.449 173.258 178.893 173.258 179.441V179.505C173.258 180.053 173.702 180.497 174.25 180.497C174.797 180.497 175.241 180.053 175.241 179.505Z" fill="white" fill-opacity="0.2"/>
<path d="M175.241 183.986V183.922C175.241 183.375 174.797 182.931 174.25 182.931C173.702 182.931 173.258 183.375 173.258 183.922V183.986C173.258 184.534 173.702 184.978 174.25 184.978C174.797 184.978 175.241 184.534 175.241 183.986Z" fill="white" fill-opacity="0.2"/>
<path d="M175.241 188.467V188.403C175.241 187.855 174.797 187.411 174.25 187.411C173.702 187.411 173.258 187.855 173.258 188.403V188.467C173.258 189.015 173.702 189.459 174.25 189.459C174.797 189.459 175.241 189.015 175.241 188.467Z" fill="white" fill-opacity="0.2"/>
<path d="M175.241 192.948V192.884C175.241 192.337 174.797 191.893 174.25 191.893C173.702 191.893 173.258 192.337 173.258 192.884V192.948C173.258 193.496 173.702 193.94 174.25 193.94C174.797 193.94 175.241 193.496 175.241 192.948Z" fill="white" fill-opacity="0.2"/>
<path d="M175.241 197.429V197.365C175.241 196.817 174.797 196.373 174.25 196.373C173.702 196.373 173.258 196.817 173.258 197.365V197.429C173.258 197.976 173.702 198.42 174.25 198.42C174.797 198.42 175.241 197.976 175.241 197.429Z" fill="white" fill-opacity="0.2"/>
<path d="M175.241 201.908V201.844C175.241 201.297 174.797 200.853 174.25 200.853C173.702 200.853 173.258 201.297 173.258 201.844V201.908C173.258 202.456 173.702 202.9 174.25 202.9C174.797 202.9 175.241 202.456 175.241 201.908Z" fill="white" fill-opacity="0.2"/>
<path d="M175.241 206.389V206.325C175.241 205.777 174.797 205.333 174.25 205.333C173.702 205.333 173.258 205.777 173.258 206.325V206.389C173.258 206.936 173.702 207.38 174.25 207.38C174.797 207.38 175.241 206.936 175.241 206.389Z" fill="white" fill-opacity="0.2"/>
<path d="M175.241 210.871V210.807C175.241 210.259 174.797 209.815 174.25 209.815C173.702 209.815 173.258 210.259 173.258 210.807V210.871C173.258 211.419 173.702 211.863 174.25 211.863C174.797 211.863 175.241 211.419 175.241 210.871Z" fill="white" fill-opacity="0.2"/>
<path d="M175.241 215.353V215.289C175.241 214.741 174.797 214.297 174.25 214.297C173.702 214.297 173.258 214.741 173.258 215.289V215.353C173.258 215.9 173.702 216.344 174.25 216.344C174.797 216.344 175.241 215.9 175.241 215.353Z" fill="white" fill-opacity="0.2"/>
<path d="M199.046 246.382H195.961V248.429H199.046V246.382Z" fill="white" fill-opacity="0.2"/>
<path d="M194.09 246.382H184.797V248.429H194.09V246.382Z" fill="white" fill-opacity="0.2"/>
<path d="M175.241 247.209V247.145C175.241 246.597 174.797 246.153 174.25 246.153C173.702 246.153 173.258 246.597 173.258 247.145V247.209C173.258 247.757 173.702 248.201 174.25 248.201C174.797 248.201 175.241 247.757 175.241 247.209Z" fill="white" fill-opacity="0.2"/>
<path d="M175.241 219.832V219.768C175.241 219.22 174.797 218.776 174.25 218.776C173.702 218.776 173.258 219.22 173.258 219.768V219.832C173.258 220.38 173.702 220.824 174.25 220.824C174.797 220.824 175.241 220.38 175.241 219.832Z" fill="white" fill-opacity="0.2"/>
<path d="M175.241 224.313V224.249C175.241 223.701 174.797 223.257 174.25 223.257C173.702 223.257 173.258 223.701 173.258 224.249V224.313C173.258 224.86 173.702 225.304 174.25 225.304C174.797 225.304 175.241 224.86 175.241 224.313Z" fill="white" fill-opacity="0.2"/>
<path d="M175.241 228.793V228.729C175.241 228.181 174.797 227.737 174.25 227.737C173.702 227.737 173.258 228.181 173.258 228.729V228.793C173.258 229.341 173.702 229.785 174.25 229.785C174.797 229.785 175.241 229.341 175.241 228.793Z" fill="white" fill-opacity="0.2"/>
<path d="M175.241 233.278V233.214C175.241 232.667 174.797 232.223 174.25 232.223C173.702 232.223 173.258 232.667 173.258 233.214V233.278C173.258 233.826 173.702 234.27 174.25 234.27C174.797 234.27 175.241 233.826 175.241 233.278Z" fill="white" fill-opacity="0.2"/>
<path d="M175.241 237.759V237.695C175.241 237.147 174.797 236.703 174.25 236.703C173.702 236.703 173.258 237.147 173.258 237.695V237.759C173.258 238.307 173.702 238.751 174.25 238.751C174.797 238.751 175.241 238.307 175.241 237.759Z" fill="white" fill-opacity="0.2"/>
<path d="M194.149 241.416H184.734V243.463H194.149V241.416Z" fill="white" fill-opacity="0.2"/>
<path d="M217.254 241.416H195.961V243.463H217.254V241.416Z" fill="white" fill-opacity="0.2"/>
<path d="M175.241 242.472V242.408C175.241 241.86 174.797 241.416 174.25 241.416C173.702 241.416 173.258 241.86 173.258 242.408V242.472C173.258 243.019 173.702 243.463 174.25 243.463C174.797 243.463 175.241 243.019 175.241 242.472Z" fill="white" fill-opacity="0.2"/>
<path d="M230.69 182.775H223.781V184.823H230.69V182.775Z" fill="white" fill-opacity="0.2"/>
</g>
<path d="M172.837 170.353C173.337 170.353 173.743 170.759 173.743 171.261C173.743 171.762 173.337 172.168 172.837 172.168C172.337 172.168 171.93 171.762 171.93 171.261C171.93 170.759 172.336 170.353 172.837 170.353Z" fill="white" fill-opacity="0.2" stroke="white"/>
<path d="M176.743 170.353C177.243 170.353 177.649 170.759 177.649 171.261C177.649 171.762 177.243 172.168 176.743 172.168C176.243 172.168 175.836 171.762 175.836 171.261C175.836 170.759 176.243 170.353 176.743 170.353Z" fill="white" fill-opacity="0.2" stroke="white"/>
<path d="M180.649 170.353C181.15 170.353 181.556 170.759 181.556 171.261C181.555 171.762 181.15 172.168 180.649 172.168C180.149 172.168 179.742 171.762 179.742 171.261C179.742 170.759 180.149 170.353 180.649 170.353Z" fill="white" fill-opacity="0.2" stroke="white"/>
<mask id="path-135-inside-2_3429_3886" fill="white">
<path d="M178.744 177.865C178.795 177.865 178.839 195.494 178.839 217.233C178.839 238.972 178.795 256.604 178.744 256.604C178.693 256.604 178.648 238.979 178.648 217.233C178.648 195.487 178.693 177.865 178.744 177.865Z"/>
</mask>
<path d="M178.744 177.865C178.795 177.865 178.839 195.494 178.839 217.233C178.839 238.972 178.795 256.604 178.744 256.604C178.693 256.604 178.648 238.979 178.648 217.233C178.648 195.487 178.693 177.865 178.744 177.865Z" fill="white" fill-opacity="0.2"/>
<path d="M178.744 177.865V178.865C178.453 178.822 178.055 178.59 177.943 178.464C177.893 178.39 177.827 178.264 177.808 178.216C177.777 178.134 177.765 178.067 177.762 178.052C177.754 178.008 177.751 177.974 177.751 177.971C177.749 177.956 177.749 177.95 177.75 177.963C177.751 177.985 177.752 178.026 177.754 178.092C177.757 178.22 177.76 178.416 177.763 178.677C177.769 179.198 177.775 179.969 177.781 180.965C177.792 182.956 177.802 185.838 177.811 189.4C177.828 196.523 177.839 206.364 177.839 217.233H178.839H179.839C179.839 206.363 179.828 196.52 179.811 189.395C179.802 185.832 179.792 182.948 179.781 180.954C179.775 179.957 179.769 179.181 179.763 178.654C179.76 178.39 179.756 178.186 179.753 178.045C179.752 177.976 179.75 177.916 179.748 177.87C179.747 177.849 179.745 177.818 179.742 177.785C179.741 177.774 179.737 177.733 179.728 177.685C179.725 177.668 179.712 177.599 179.681 177.516C179.662 177.467 179.596 177.341 179.545 177.267C179.433 177.14 179.035 176.908 178.744 176.865V177.865ZM178.839 217.233H177.839C177.839 228.102 177.828 237.944 177.811 245.068C177.802 248.631 177.792 251.513 177.781 253.504C177.775 254.5 177.769 255.271 177.763 255.793C177.76 256.054 177.757 256.249 177.754 256.378C177.752 256.443 177.751 256.485 177.75 256.506C177.749 256.52 177.749 256.514 177.751 256.499C177.751 256.496 177.754 256.462 177.762 256.418C177.765 256.403 177.777 256.336 177.808 256.254C177.827 256.206 177.893 256.08 177.943 256.006C178.055 255.879 178.453 255.648 178.744 255.604V256.604V257.604C179.035 257.561 179.433 257.329 179.545 257.203C179.596 257.128 179.662 257.002 179.681 256.953C179.712 256.87 179.725 256.802 179.728 256.785C179.737 256.736 179.741 256.696 179.742 256.685C179.745 256.652 179.747 256.62 179.748 256.6C179.75 256.554 179.752 256.493 179.753 256.425C179.756 256.284 179.76 256.079 179.763 255.816C179.769 255.288 179.775 254.512 179.781 253.515C179.792 251.521 179.802 248.636 179.811 245.073C179.828 237.947 179.839 228.103 179.839 217.233H178.839ZM178.744 256.604V255.604C179.035 255.648 179.432 255.879 179.545 256.006C179.595 256.08 179.661 256.206 179.68 256.254C179.711 256.336 179.723 256.403 179.726 256.418C179.734 256.462 179.737 256.496 179.737 256.499C179.739 256.514 179.739 256.52 179.738 256.506C179.737 256.485 179.736 256.443 179.734 256.378C179.731 256.249 179.728 256.054 179.725 255.793C179.719 255.272 179.713 254.501 179.707 253.505C179.696 251.514 179.686 248.633 179.677 245.071C179.659 237.947 179.648 228.105 179.648 217.233H178.648H177.648C177.648 228.107 177.659 237.95 177.677 245.076C177.686 248.639 177.696 251.523 177.707 253.516C177.713 254.513 177.719 255.289 177.725 255.816C177.728 256.079 177.731 256.284 177.735 256.425C177.736 256.494 177.738 256.554 177.74 256.6C177.741 256.62 177.743 256.652 177.746 256.685C177.747 256.696 177.751 256.736 177.76 256.785C177.763 256.802 177.776 256.871 177.807 256.954C177.826 257.002 177.892 257.128 177.942 257.203C178.055 257.329 178.453 257.561 178.744 257.604V256.604ZM178.648 217.233H179.648C179.648 206.361 179.659 196.519 179.677 189.397C179.686 185.835 179.696 182.954 179.707 180.964C179.713 179.969 179.719 179.198 179.725 178.677C179.728 178.415 179.731 178.22 179.734 178.092C179.736 178.026 179.737 177.985 179.738 177.963C179.739 177.95 179.739 177.956 179.737 177.971C179.737 177.974 179.734 178.008 179.726 178.052C179.723 178.067 179.711 178.134 179.68 178.216C179.661 178.264 179.595 178.39 179.545 178.464C179.432 178.59 179.035 178.822 178.744 178.865V177.865V176.865C178.453 176.908 178.055 177.14 177.943 177.267C177.892 177.341 177.826 177.467 177.807 177.516C177.776 177.599 177.763 177.668 177.76 177.685C177.751 177.733 177.747 177.774 177.746 177.785C177.743 177.818 177.741 177.849 177.74 177.87C177.738 177.916 177.736 177.976 177.735 178.045C177.731 178.185 177.728 178.39 177.725 178.653C177.719 179.181 177.713 179.956 177.707 180.953C177.696 182.946 177.686 185.83 177.677 189.392C177.659 196.517 177.648 206.359 177.648 217.233H178.648Z" fill="white" mask="url(#path-135-inside-2_3429_3886)"/>
</g>
<g opacity="0.9">
<path d="M192.263 168.146C193.384 168.146 194.298 169.06 194.298 170.184V229.359C194.298 230.87 193.074 232.094 191.565 232.094H102.532C101.489 232.094 100.641 231.246 100.641 230.201V170.184L100.651 169.976C100.749 169.018 101.511 168.255 102.468 168.157L102.676 168.146H192.263Z" fill="white" fill-opacity="0.4" stroke="white"/>
<g opacity="0.7">
<path d="M118.903 176.961H112.227V178.418H118.903V176.961Z" fill="#769CB2"/>
<path d="M115.564 183.486H112.227V184.943H115.564V183.486Z" fill="#F29111"/>
<path d="M119.436 186.769H114.734V188.225H119.436V186.769Z" fill="#769CB2"/>
<path d="M122.918 186.769H120.18V188.225H122.918V186.769Z" fill="#769CB2"/>
<path d="M147.483 186.769H141.852V188.225H147.483V186.769Z" fill="#769CB2"/>
<path d="M163.952 189.966H154.438V191.422H163.952V189.966Z" fill="#769CB2"/>
<path d="M178.625 186.769H174.055V188.225H178.625V186.769Z" fill="#769CB2"/>
<path d="M189.212 186.769H180.023V188.225H189.212V186.769Z" fill="#769CB2"/>
<path d="M119.436 189.966H114.734V191.422H119.436V189.966Z" fill="#769CB2"/>
<path d="M116.545 193.158H111.844V194.615H116.545V193.158Z" fill="#F29111"/>
<path d="M116.547 196.352H114.352V197.808H116.547V196.352Z" fill="#769CB2"/>
<path d="M124.609 203.072H122.414V204.529H124.609V203.072Z" fill="#769CB2"/>
<path d="M156.908 215.22H152.617V216.676H156.908V215.22Z" fill="#769CB2"/>
<path d="M180.888 215.22H170.375V216.676H180.888V215.22Z" fill="#769CB2"/>
<path d="M140.76 212.028H136.469V213.485H140.76V212.028Z" fill="white"/>
<path d="M125.213 209.294H120.922V210.751H125.213V209.294Z" fill="#769CB2"/>
<path d="M151.734 215.22H144.969V216.676H151.734V215.22Z" fill="#769CB2"/>
<path d="M117.916 199.602H114.352V201.058H117.916V199.602Z" fill="#769CB2"/>
<path d="M120.963 203.126H114.352V204.583H120.963V203.126Z" fill="#769CB2"/>
<path d="M124.023 205.827H114.352V207.284H124.023V205.827Z" fill="#769CB2"/>
<path d="M141.547 205.827H131.875V207.284H141.547V205.827Z" fill="#769CB2"/>
<path d="M134.417 212.028H120.836V213.485H134.417V212.028Z" fill="#769CB2"/>
<path d="M143.806 215.22H120.836V216.676H143.806V215.22Z" fill="#769CB2"/>
<path d="M136.861 218.407H113.891V219.864H136.861V218.407Z" fill="#769CB2"/>
<path d="M130.848 205.827H125.047V207.284H130.848V205.827Z" fill="#769CB2"/>
<path d="M123.401 196.352H117.414V197.808H123.401V196.352Z" fill="#769CB2"/>
<path d="M124.721 199.602H118.734V201.058H124.721V199.602Z" fill="#769CB2"/>
<path d="M147.917 199.602H132.062V201.058H147.917V199.602Z" fill="#769CB2"/>
<path d="M166.663 199.602H148.352V201.058H166.663V199.602Z" fill="#769CB2"/>
<path d="M130.658 199.602H125.703V201.058H130.658V199.602Z" fill="#769CB2"/>
<path d="M132.074 196.352H124.227V197.808H132.074V196.352Z" fill="#769CB2"/>
<path d="M137.307 196.352H132.938V197.808H137.307V196.352Z" fill="white"/>
<path d="M125.08 189.966H120.18V191.422H125.08V189.966Z" fill="#769CB2"/>
<path d="M152.61 189.966H128.414V191.422H152.61V189.966Z" fill="#769CB2"/>
<path d="M179.769 199.602H168.328V201.058H179.769V199.602Z" fill="#769CB2"/>
<path d="M169.48 215.22H158.039V216.676H169.48V215.22Z" fill="#769CB2"/>
<path d="M172.273 186.769H148.438V188.225H172.273V186.769Z" fill="#769CB2"/>
<path d="M140.36 186.769H123.773V188.225H140.36V186.769Z" fill="#769CB2"/>
<path d="M123.393 180.051H112.227V181.507H123.393V180.051Z" fill="#769CB2"/>
<path d="M139.79 180.051H124.5V181.507H139.79V180.051Z" fill="#769CB2"/>
<path d="M124.869 176.961H119.953V178.418H124.869V176.961Z" fill="white"/>
<path d="M107.13 177.712V177.667C107.13 177.277 106.814 176.961 106.424 176.961C106.035 176.961 105.719 177.277 105.719 177.667V177.712C105.719 178.102 106.035 178.418 106.424 178.418C106.814 178.418 107.13 178.102 107.13 177.712Z" fill="#F29111"/>
<path d="M107.13 180.901V180.856C107.13 180.466 106.814 180.15 106.424 180.15C106.035 180.15 105.719 180.466 105.719 180.856V180.901C105.719 181.291 106.035 181.607 106.424 181.607C106.814 181.607 107.13 181.291 107.13 180.901Z" fill="#F29111"/>
<path d="M107.13 184.089V184.043C107.13 183.654 106.814 183.338 106.424 183.338C106.035 183.338 105.719 183.654 105.719 184.043V184.089C105.719 184.479 106.035 184.795 106.424 184.795C106.814 184.795 107.13 184.479 107.13 184.089Z" fill="#F29111"/>
<path d="M107.13 187.277V187.232C107.13 186.842 106.814 186.526 106.424 186.526C106.035 186.526 105.719 186.842 105.719 187.232V187.277C105.719 187.667 106.035 187.983 106.424 187.983C106.814 187.983 107.13 187.667 107.13 187.277Z" fill="#F29111"/>
<path d="M107.13 190.465V190.419C107.13 190.03 106.814 189.714 106.424 189.714C106.035 189.714 105.719 190.03 105.719 190.419V190.465C105.719 190.855 106.035 191.171 106.424 191.171C106.814 191.171 107.13 190.855 107.13 190.465Z" fill="#F29111"/>
<path d="M107.13 193.652V193.607C107.13 193.217 106.814 192.901 106.424 192.901C106.035 192.901 105.719 193.217 105.719 193.607V193.652C105.719 194.042 106.035 194.358 106.424 194.358C106.814 194.358 107.13 194.042 107.13 193.652Z" fill="#F29111"/>
<path d="M107.13 196.84V196.794C107.13 196.405 106.814 196.089 106.424 196.089C106.035 196.089 105.719 196.405 105.719 196.794V196.84C105.719 197.23 106.035 197.546 106.424 197.546C106.814 197.546 107.13 197.23 107.13 196.84Z" fill="#F29111"/>
<path d="M107.13 200.028V199.983C107.13 199.593 106.814 199.277 106.424 199.277C106.035 199.277 105.719 199.593 105.719 199.983V200.028C105.719 200.418 106.035 200.734 106.424 200.734C106.814 200.734 107.13 200.418 107.13 200.028Z" fill="#F29111"/>
<path d="M107.13 203.217V203.171C107.13 202.782 106.814 202.466 106.424 202.466C106.035 202.466 105.719 202.782 105.719 203.171V203.217C105.719 203.607 106.035 203.922 106.424 203.922C106.814 203.922 107.13 203.607 107.13 203.217Z" fill="#F29111"/>
<path d="M124.078 225.292H121.883V226.749H124.078V225.292Z" fill="white"/>
<path d="M120.541 225.292H113.93V226.749H120.541V225.292Z" fill="#F29111"/>
<path d="M107.13 225.881V225.835C107.13 225.446 106.814 225.13 106.424 225.13C106.035 225.13 105.719 225.446 105.719 225.835V225.881C105.719 226.271 106.035 226.587 106.424 226.587C106.814 226.587 107.13 226.271 107.13 225.881Z" fill="#F29111"/>
<path d="M107.13 206.403V206.358C107.13 205.968 106.814 205.652 106.424 205.652C106.035 205.652 105.719 205.968 105.719 206.358V206.403C105.719 206.793 106.035 207.109 106.424 207.109C106.814 207.109 107.13 206.793 107.13 206.403Z" fill="#F29111"/>
<path d="M107.13 209.592V209.546C107.13 209.157 106.814 208.841 106.424 208.841C106.035 208.841 105.719 209.157 105.719 209.546V209.592C105.719 209.982 106.035 210.297 106.424 210.297C106.814 210.297 107.13 209.982 107.13 209.592Z" fill="#F29111"/>
<path d="M107.13 212.779V212.734C107.13 212.344 106.814 212.028 106.424 212.028C106.035 212.028 105.719 212.344 105.719 212.734V212.779C105.719 213.169 106.035 213.485 106.424 213.485C106.814 213.485 107.13 213.169 107.13 212.779Z" fill="#F29111"/>
<path d="M107.13 215.971V215.925C107.13 215.536 106.814 215.22 106.424 215.22C106.035 215.22 105.719 215.536 105.719 215.925V215.971C105.719 216.36 106.035 216.676 106.424 216.676C106.814 216.676 107.13 216.36 107.13 215.971Z" fill="#F29111"/>
<path d="M107.13 219.158V219.113C107.13 218.723 106.814 218.407 106.424 218.407C106.035 218.407 105.719 218.723 105.719 219.113V219.158C105.719 219.548 106.035 219.864 106.424 219.864C106.814 219.864 107.13 219.548 107.13 219.158Z" fill="#F29111"/>
<path d="M120.588 221.759H113.891V223.215H120.588V221.759Z" fill="#769CB2"/>
<path d="M137.032 221.759H121.883V223.215H137.032V221.759Z" fill="#769CB2"/>
<path d="M107.13 222.51V222.464C107.13 222.075 106.814 221.759 106.424 221.759C106.035 221.759 105.719 222.075 105.719 222.464V222.51C105.719 222.9 106.035 223.215 106.424 223.215C106.814 223.215 107.13 222.9 107.13 222.51Z" fill="#F29111"/>
<path d="M146.587 180.04H141.672V181.497H146.587V180.04Z" fill="white"/>
</g>
<path d="M105.423 171.346C105.699 171.346 105.924 171.57 105.924 171.848C105.924 172.125 105.699 172.349 105.423 172.349C105.147 172.349 104.922 172.125 104.922 171.848C104.922 171.57 105.147 171.346 105.423 171.346Z" fill="#8EC9E6" stroke="white"/>
<path d="M108.196 171.346C108.473 171.346 108.697 171.57 108.697 171.848C108.697 172.125 108.472 172.349 108.196 172.349C107.92 172.349 107.695 172.125 107.695 171.848C107.695 171.57 107.92 171.346 108.196 171.346Z" fill="#F29111" stroke="white"/>
<path d="M110.978 171.346C111.254 171.346 111.479 171.57 111.479 171.848C111.478 172.125 111.254 172.349 110.978 172.349C110.701 172.349 110.477 172.125 110.477 171.848C110.477 171.57 110.701 171.346 110.978 171.346Z" fill="white" stroke="white"/>
<mask id="path-203-inside-3_3429_3886" fill="white">
<path d="M109.623 176.547C109.659 176.547 109.691 189.089 109.691 204.555C109.691 220.021 109.659 232.566 109.623 232.566C109.586 232.566 109.555 220.027 109.555 204.555C109.555 189.084 109.586 176.547 109.623 176.547Z"/>
</mask>
<path d="M109.623 176.547C109.659 176.547 109.691 189.089 109.691 204.555C109.691 220.021 109.659 232.566 109.623 232.566C109.586 232.566 109.555 220.027 109.555 204.555C109.555 189.084 109.586 176.547 109.623 176.547Z" fill="#455A64"/>
<path d="M109.623 176.547V177.547C109.332 177.504 108.934 177.272 108.822 177.145C108.771 177.071 108.706 176.946 108.686 176.897C108.656 176.815 108.643 176.748 108.64 176.733C108.632 176.688 108.629 176.653 108.629 176.649C108.627 176.631 108.627 176.621 108.627 176.63C108.628 176.642 108.629 176.669 108.63 176.715C108.632 176.804 108.634 176.942 108.636 177.128C108.64 177.498 108.645 178.046 108.649 178.754C108.657 180.17 108.664 182.22 108.67 184.754C108.683 189.822 108.691 196.823 108.691 204.555H109.691H110.691C110.691 196.822 110.683 189.819 110.67 184.749C110.664 182.214 110.657 180.162 110.649 178.743C110.645 178.033 110.64 177.481 110.636 177.104C110.634 176.917 110.632 176.77 110.629 176.668C110.628 176.619 110.627 176.573 110.625 176.537C110.624 176.521 110.623 176.493 110.62 176.463C110.619 176.453 110.615 176.413 110.606 176.366C110.603 176.349 110.591 176.28 110.56 176.198C110.54 176.149 110.475 176.023 110.424 175.949C110.311 175.822 109.914 175.59 109.623 175.547V176.547ZM109.691 204.555H108.691C108.691 212.288 108.683 219.29 108.67 224.358C108.664 226.893 108.657 228.943 108.649 230.359C108.645 231.067 108.64 231.615 108.636 231.985C108.634 232.171 108.632 232.309 108.63 232.398C108.629 232.444 108.628 232.471 108.627 232.483C108.627 232.492 108.627 232.482 108.629 232.464C108.629 232.46 108.632 232.425 108.64 232.38C108.643 232.366 108.656 232.298 108.686 232.216C108.706 232.168 108.771 232.042 108.822 231.968C108.934 231.841 109.332 231.61 109.623 231.566V232.566V233.566C109.914 233.523 110.312 233.291 110.424 233.164C110.475 233.09 110.54 232.964 110.56 232.916C110.591 232.833 110.603 232.764 110.606 232.748C110.615 232.7 110.619 232.66 110.62 232.65C110.623 232.62 110.624 232.592 110.625 232.577C110.627 232.54 110.628 232.495 110.629 232.445C110.632 232.343 110.634 232.196 110.636 232.009C110.64 231.632 110.645 231.08 110.649 230.37C110.657 228.951 110.664 226.898 110.67 224.363C110.683 219.292 110.691 212.289 110.691 204.555H109.691ZM109.623 232.566V231.566C109.913 231.609 110.311 231.841 110.424 231.968C110.474 232.042 110.539 232.167 110.559 232.216C110.59 232.298 110.602 232.365 110.605 232.38C110.613 232.425 110.616 232.46 110.617 232.464C110.618 232.482 110.619 232.492 110.618 232.483C110.618 232.471 110.617 232.444 110.616 232.398C110.613 232.309 110.611 232.171 110.609 231.986C110.605 231.616 110.601 231.068 110.597 230.36C110.588 228.944 110.581 226.894 110.575 224.36C110.563 219.292 110.555 212.29 110.555 204.555H109.555H108.555C108.555 212.291 108.563 219.295 108.575 224.365C108.581 226.9 108.589 228.952 108.597 230.371C108.601 231.08 108.605 231.633 108.609 232.009C108.611 232.196 108.614 232.343 108.616 232.445C108.617 232.495 108.619 232.54 108.62 232.577C108.621 232.592 108.622 232.62 108.625 232.65C108.626 232.66 108.63 232.7 108.639 232.748C108.642 232.764 108.654 232.833 108.685 232.916C108.705 232.964 108.771 233.09 108.821 233.165C108.934 233.291 109.332 233.523 109.623 233.566V232.566ZM109.555 204.555H110.555C110.555 196.82 110.563 189.819 110.575 184.752C110.581 182.218 110.588 180.169 110.597 178.753C110.601 178.045 110.605 177.497 110.609 177.127C110.611 176.942 110.613 176.804 110.616 176.715C110.617 176.669 110.618 176.642 110.618 176.63C110.619 176.621 110.618 176.631 110.617 176.649C110.616 176.653 110.613 176.688 110.605 176.733C110.602 176.748 110.59 176.815 110.559 176.897C110.539 176.946 110.474 177.071 110.423 177.146C110.311 177.272 109.913 177.504 109.623 177.547V176.547V175.547C109.332 175.59 108.934 175.822 108.821 175.948C108.771 176.023 108.705 176.149 108.685 176.197C108.654 176.28 108.642 176.349 108.639 176.365C108.63 176.413 108.626 176.453 108.625 176.463C108.622 176.493 108.621 176.521 108.62 176.537C108.619 176.573 108.617 176.618 108.616 176.668C108.614 176.77 108.611 176.917 108.609 177.104C108.605 177.48 108.601 178.033 108.597 178.742C108.589 180.161 108.581 182.212 108.575 184.747C108.563 189.816 108.555 196.819 108.555 204.555H109.555Z" fill="white" mask="url(#path-203-inside-3_3429_3886)"/>
</g>
<g opacity="0.8">
<path d="M291.398 149.321V156.805C299.285 156.805 305.679 163.199 305.679 171.086H313.164C313.164 159.065 303.421 149.321 291.398 149.321Z" fill="#8EC9E6" fill-opacity="0.9"/>
<path d="M296.438 184.453L300.216 190.988C307.847 187.605 313.172 179.971 313.172 171.087H305.687C305.686 177.2 301.841 182.417 296.438 184.453Z" fill="white"/>
<path d="M291.404 149.321C286.57 149.321 282.105 150.9 278.492 153.566L282.969 159.564C285.333 157.831 288.249 156.805 291.404 156.805V149.321Z" fill="white" fill-opacity="0.7"/>
<path d="M269.633 171.087C269.633 173.791 270.13 176.378 271.031 178.767L277.856 175.617C277.38 174.193 277.117 172.67 277.117 171.087C277.117 166.356 279.42 162.165 282.963 159.565L278.486 153.567C273.117 157.531 269.633 163.901 269.633 171.087Z" fill="white"/>
<path d="M277.865 175.616L271.039 178.767C273.449 185.153 278.774 190.108 285.392 192.007L287.018 184.675C282.712 183.284 279.297 179.905 277.865 175.616Z" fill="#8EC9E6" fill-opacity="0.4"/>
<path d="M300.215 190.986L296.436 184.451C294.871 185.04 293.175 185.366 291.404 185.366C289.873 185.366 288.4 185.121 287.017 184.674L285.391 192.006C287.301 192.555 289.318 192.85 291.404 192.85C294.541 192.85 297.522 192.181 300.215 190.986Z" fill="white" fill-opacity="0.6"/>
</g>
<g opacity="0.7">
<path d="M250.841 116.054L250.913 116.348L251.207 116.42C252.711 116.793 254.178 117.364 255.56 118.136L255.824 118.283L256.078 118.117L259.472 115.889L264.204 120.464L262.1 123.938L261.942 124.197L262.1 124.456C262.92 125.811 263.539 127.257 263.961 128.748L264.044 129.04L264.34 129.102L268.314 129.929L268.43 136.516L264.484 137.482L264.191 137.555L264.118 137.848C263.746 139.353 263.176 140.817 262.404 142.205L262.257 142.469L262.423 142.722L264.648 146.119L260.077 150.854L256.607 148.749L256.348 148.592L256.089 148.749C254.735 149.57 253.29 150.19 251.8 150.612L251.509 150.694L251.446 150.991L250.618 154.969L244.038 155.083L243.072 151.136L243 150.842L242.707 150.77L242.145 150.62C240.838 150.251 239.567 149.729 238.354 149.054L238.089 148.906L237.836 149.072L234.441 151.301L229.708 146.725L231.814 143.252L231.971 142.993L231.814 142.733C230.994 141.378 230.374 139.933 229.952 138.441L229.87 138.15L229.573 138.089L225.598 137.26L225.483 130.674L229.429 129.707L229.723 129.635L229.795 129.342C230.167 127.837 230.738 126.373 231.51 124.985L231.656 124.721L231.491 124.468L229.264 121.069L233.835 116.334L237.307 118.44L237.565 118.598L237.825 118.44C239.179 117.619 240.623 117 242.113 116.578L242.405 116.495L242.467 116.198L243.294 112.22L249.875 112.105L250.841 116.054ZM253.035 127.292C249.689 124.062 244.366 124.154 241.138 127.503C237.91 130.851 238.003 136.178 241.349 139.408C244.695 142.639 250.019 142.546 253.247 139.197C256.475 135.849 256.381 130.523 253.035 127.292Z" stroke="#CBEEFF"/>
</g>
<g opacity="0.7">
<path d="M269.089 85.9189L269.161 86.2129L269.454 86.2852C270.447 86.5313 271.416 86.9077 272.327 87.417L272.592 87.5654L272.846 87.3984L275.007 85.9795L277.984 88.8584L276.644 91.0713L276.487 91.3301L276.644 91.5889C277.185 92.4828 277.594 93.4367 277.872 94.4209L277.955 94.7129L278.251 94.7744L280.782 95.3018L280.854 99.4463L278.343 100.062L278.049 100.134L277.977 100.428C277.731 101.421 277.354 102.387 276.845 103.303L276.697 103.567L276.863 103.82L278.28 105.983L275.404 108.963L273.195 107.622L272.936 107.465L272.676 107.622C271.783 108.164 270.83 108.573 269.847 108.852L269.555 108.935L269.493 109.23L268.966 111.764L264.825 111.836L264.21 109.322L264.139 109.028L263.845 108.955C262.852 108.709 261.887 108.333 260.972 107.823L260.707 107.676L260.454 107.842L258.292 109.261L255.314 106.382L256.655 104.17L256.812 103.911L256.655 103.652C256.114 102.758 255.705 101.804 255.427 100.819L255.345 100.528L255.048 100.466L252.516 99.9385L252.444 95.7939L254.957 95.1787L255.251 95.1064L255.323 94.8135C255.569 93.8201 255.946 92.8533 256.455 91.9375L256.602 91.6738L256.437 91.4209L255.018 89.2559L257.894 86.2764L260.104 87.6182L260.364 87.7754L260.623 87.6182C261.516 87.0765 262.47 86.6683 263.453 86.3896L263.745 86.3066L263.807 86.0098L264.333 83.4766L268.474 83.4043L269.089 85.9189ZM270.833 93.2822C268.528 91.0569 264.86 91.1208 262.636 93.4277C260.412 95.7344 260.476 99.405 262.781 101.631C265.086 103.856 268.754 103.792 270.979 101.485C273.202 99.1787 273.138 95.5081 270.833 93.2822Z" stroke="white"/>
</g>
<path opacity="0.7" d="M97.9922 118.9C88.2991 118.9 80.3374 126.299 79.4395 135.757L79.3789 136.39L78.7783 136.183C77.7219 135.818 76.5962 135.61 75.4199 135.61C69.7396 135.61 65.1358 140.215 65.1357 145.896C65.1357 151.182 69.126 155.535 74.2598 156.11L74.7041 156.16V156.18H120.028C127.659 156.179 133.844 149.994 133.844 142.363C133.844 134.734 127.659 128.548 120.028 128.548C118.352 128.548 116.744 128.849 115.258 129.396L114.84 129.55L114.639 129.152C111.566 123.071 105.268 118.901 97.9922 118.9Z" fill="white" fill-opacity="0.3" stroke="#99CEE8"/>
<path opacity="0.7" d="M68.251 108.593C76.8164 108.593 83.8608 115.209 84.6553 123.676L84.7148 124.312L85.3174 124.101C86.2488 123.775 87.2411 123.592 88.2773 123.592C93.2802 123.592 97.3447 127.696 97.3447 132.771C97.3447 137.495 93.8211 141.376 89.2988 141.889L88.8555 141.939V141.95H48.7012C41.9679 141.95 36.5002 136.428 36.5 129.602C36.5 122.776 41.9678 117.252 48.7012 117.252C50.1806 117.252 51.6001 117.52 52.9121 118.009L53.333 118.166L53.5332 117.764C56.2512 112.321 61.8215 108.593 68.251 108.593Z" stroke="white"/>
<g opacity="0.6">
<path d="M242.168 238.12V270.218H234.641V238.12H242.168Z" stroke="#DCD4BD"/>
<path d="M280.974 238.12V270.218H273.445V238.12H280.974Z" stroke="#9BD0E9"/>
<path d="M255.161 228.844V270.217H247.633V228.844H255.161Z" stroke="#CE9246"/>
<path d="M268.052 245.094V270.219H260.523V245.094H268.052Z" stroke="#A7B2B5"/>
</g>
<g filter="url(#filter0_d_3429_3886)">
<path d="M222.219 169.605C232.562 152.293 235.158 128.693 232.92 108.909C232.77 107.677 206.036 103.934 178.558 103.914C140.841 103.893 120.847 107.577 120.709 108.822C118.463 128.598 121.037 152.183 131.368 169.546C138.716 181.932 149.736 189.172 162.94 194.702C163.083 195.789 163.14 196.83 163.139 197.924C159.854 200.219 157.254 203.221 157.75 207.557C158.288 212.281 161.831 215.597 165.276 218.467L165.26 223.649C161.746 238.336 153.503 251.338 141.597 260.624C139.327 260.464 137.042 261.111 136.573 263.804C135.751 268.607 143.309 270.976 146.625 271.953C156.103 274.769 197.431 274.803 206.905 272.006C210.216 271.015 217.778 268.644 216.965 263.856C216.495 261.189 214.218 260.521 211.938 260.693C200.044 251.381 191.819 238.382 188.331 223.675L188.348 218.493C191.793 215.639 195.353 212.314 195.874 207.601C196.362 203.262 193.749 200.252 190.474 197.951C190.441 196.867 190.518 195.786 190.673 194.719C203.854 189.209 214.879 181.973 222.219 169.605Z" fill="#79613E"/>
<path d="M223.397 148.211C216.272 142.905 206.21 144.347 200.909 151.474C197.268 156.355 190.812 177.646 187.166 190.549C186.445 193.135 187.24 194.939 189.517 195.242C189.804 195.229 190.109 195.029 190.647 194.758C203.861 189.238 214.887 182.002 222.26 169.624C224.938 165.178 227.044 160.282 228.726 155.185C227.661 152.477 225.88 150.057 223.397 148.211Z" fill="#FFA531"/>
<path d="M152.876 151.444C147.574 144.316 137.514 142.841 130.392 148.143C127.826 150.041 126.002 152.592 124.977 155.377C126.656 160.381 128.75 165.187 131.365 169.545C135.113 175.862 139.841 180.828 145.292 184.921C147.077 186.137 148.905 187.377 150.713 188.55C154.53 190.835 158.598 192.863 162.971 194.691C163.492 194.972 164.151 195.103 164.749 195.034C167.107 194.876 167.436 193.173 166.678 190.519C162.968 177.629 156.525 156.332 152.876 151.444Z" fill="#FFA531"/>
<path d="M178.56 103.914C140.844 103.894 120.849 107.578 120.712 108.822C120.022 115.044 119.794 121.347 120.098 127.6C134.135 132.26 154.33 134.97 176.782 134.999C199.235 135.028 219.453 132.334 233.479 127.701C233.827 121.435 233.614 115.119 232.889 108.919C232.773 107.678 206.039 103.935 178.56 103.914Z" fill="#FFCD34"/>
<path d="M192.874 153.845C192.873 159.934 185.29 180.869 180.551 193.407C179.218 196.868 174.336 196.87 173.041 193.393C168.304 180.846 160.734 159.923 160.734 153.834C160.733 144.938 167.946 137.749 176.804 137.761C185.661 137.773 192.849 144.993 192.874 153.845Z" fill="#FFCD34"/>
<path d="M176.795 215.243C182.991 215.249 187.979 211.825 187.998 207.626C188.007 203.394 182.977 199.977 176.825 199.994C170.629 199.988 165.641 203.412 165.622 207.611C165.603 211.809 170.633 215.227 176.795 215.243Z" fill="#FFCD34"/>
<path d="M159.889 212.053C161.999 212.041 163.739 210.063 163.737 207.62C163.735 205.178 162.007 203.179 159.898 203.191C157.788 203.202 156.048 205.181 156.05 207.623C156.051 210.065 157.779 212.064 159.889 212.053Z" fill="#FFCD34"/>
<path d="M193.686 212.015C195.795 212.003 197.535 210.024 197.534 207.582C197.532 205.14 195.804 203.141 193.694 203.152C191.585 203.164 189.845 205.143 189.846 207.585C189.848 210.027 191.566 211.992 193.686 212.015Z" fill="#FFCD34"/>
<path d="M137.661 178.052C137.17 177.506 136.679 176.96 136.211 176.371C136.669 176.927 137.17 177.506 137.661 178.052Z" fill="#E9B126"/>
<path d="M135.953 176.082C135.505 175.559 135.081 174.994 134.656 174.428C135.071 174.96 135.495 175.526 135.953 176.082Z" fill="#E9B126"/>
<path d="M190.553 195.56C190.573 195.262 190.593 194.965 190.647 194.657C190.627 194.955 190.606 195.252 190.553 195.56Z" fill="#E9B126"/>
<path d="M224.124 166.194C223.876 166.705 223.595 167.227 223.303 167.715C223.595 167.227 223.842 166.715 224.124 166.194Z" fill="#E9B126"/>
<path d="M212.328 260.585C204.616 263.548 191.722 265.509 177.066 265.481C162.421 265.487 149.362 263.487 141.69 260.495C141.656 260.505 141.633 260.549 141.599 260.559C139.329 260.399 137.045 261.046 136.575 263.739C135.753 268.542 143.312 270.911 146.628 271.888C156.106 274.704 197.434 274.738 206.908 271.941C210.219 270.95 217.78 268.579 216.967 263.791C216.538 261.258 214.462 260.53 212.328 260.585Z" fill="#E9B126"/>
<path d="M131.332 169.558C131.019 168.995 130.681 168.476 130.367 167.914C130.705 168.433 131.019 168.995 131.332 169.558Z" fill="#E9B126"/>
<path d="M145.258 184.933C143.898 183.918 142.595 182.85 141.305 181.704C145.753 185.733 150.833 188.953 156.402 191.735C154.423 190.723 152.511 189.691 150.646 188.572C148.905 187.379 147.076 186.139 145.258 184.933Z" fill="#E9B126"/>
<path d="M145.053 184.775C144.589 184.44 144.158 184.095 143.727 183.75C144.158 184.095 144.622 184.43 145.053 184.775Z" fill="#FFCD34"/>
<path d="M143.156 183.265C142.531 182.759 141.93 182.21 141.305 181.704C141.94 182.243 142.565 182.749 143.156 183.265Z" fill="#FFCD34"/>
<path d="M150.649 188.534C148.918 187.374 147.187 186.215 145.445 185.022C147.13 186.269 148.861 187.428 150.649 188.534Z" fill="#FFCD34"/>
<path d="M128.684 164.624C128.571 164.366 128.467 164.142 128.32 163.895C128.457 164.109 128.571 164.366 128.684 164.624Z" fill="#FFCD34"/>
<path d="M225.468 163.415C226.676 160.757 227.778 157.984 228.716 155.151C227.661 152.477 225.88 150.057 223.397 148.211C216.272 142.905 206.21 144.347 200.909 151.474C197.268 156.355 190.812 177.646 187.166 190.549C186.445 193.135 187.24 194.939 189.517 195.242C189.804 195.229 190.109 195.029 190.647 194.758C203.861 189.238 214.887 182.002 222.26 169.624C222.599 169.049 222.913 168.518 223.218 167.953C223.265 167.866 223.288 167.822 223.335 167.735C223.616 167.214 223.874 166.735 224.155 166.214C224.567 165.398 224.969 164.549 225.37 163.699C225.374 163.589 225.421 163.502 225.468 163.415Z" fill="#FFCD34"/>
<path d="M164.714 195.042C167.071 194.884 167.4 193.181 166.643 190.528C162.966 177.627 156.556 156.32 152.908 151.432C147.605 144.304 137.545 142.829 130.423 148.131C127.857 150.029 126.034 152.58 125.009 155.366C125.019 155.399 125.039 155.466 125.049 155.5C125.149 155.834 125.282 156.159 125.383 156.493C125.453 156.728 125.556 156.952 125.626 157.186C125.726 157.521 125.85 157.812 125.983 158.137C126.063 158.404 126.167 158.629 126.28 158.886C126.404 159.178 126.528 159.469 126.628 159.803C126.741 160.061 126.821 160.329 126.935 160.587C127.058 160.878 127.182 161.169 127.305 161.46C127.419 161.718 127.542 162.009 127.656 162.267C127.77 162.524 127.893 162.816 128.007 163.073C128.13 163.364 128.254 163.656 128.401 163.903C128.514 164.161 128.628 164.419 128.765 164.633C128.932 164.948 129.065 165.272 129.232 165.587C129.336 165.811 129.429 166.002 129.566 166.216C129.827 166.722 130.097 167.261 130.391 167.756C130.411 167.823 130.455 167.846 130.475 167.913C130.789 168.476 131.102 169.038 131.44 169.557C131.891 170.333 132.375 171.1 132.893 171.857C133.01 172.004 133.093 172.161 133.21 172.309C133.601 172.884 133.992 173.46 134.416 174.026C134.533 174.173 134.64 174.287 134.724 174.445C135.148 175.01 135.572 175.576 136.02 176.098C136.084 176.189 136.19 176.303 136.254 176.393C136.722 176.982 137.213 177.528 137.704 178.074C137.757 178.131 137.811 178.188 137.864 178.245C138.399 178.814 138.934 179.383 139.502 179.942C139.545 179.966 139.555 179.999 139.599 180.023C140.177 180.616 140.778 181.165 141.38 181.714C141.38 181.714 141.38 181.714 141.39 181.748C141.991 182.297 142.616 182.803 143.241 183.308C143.435 183.469 143.619 183.596 143.813 183.757C144.244 184.102 144.675 184.447 145.14 184.782C145.27 184.853 145.377 184.966 145.507 185.037C147.249 186.23 148.98 187.389 150.711 188.548C150.808 188.628 150.928 188.665 151.025 188.746C151.774 189.178 152.523 189.61 153.272 190.043C153.455 190.17 153.663 190.254 153.88 190.371C154.749 190.84 155.618 191.31 156.521 191.769C156.684 191.829 156.825 191.933 156.988 191.993C157.794 192.372 158.6 192.751 159.405 193.13C159.623 193.247 159.83 193.331 160.081 193.438C161.05 193.878 162.019 194.317 163.012 194.713C163.457 194.981 164.115 195.112 164.714 195.042Z" fill="#FFCD34"/>
<path d="M150.684 188.558C150.771 188.605 150.858 188.652 150.956 188.732C150.858 188.652 150.738 188.615 150.641 188.534C150.651 188.568 150.684 188.558 150.684 188.558Z" fill="#FFCD34"/>
<path d="M153.796 190.365C153.579 190.248 153.405 190.154 153.188 190.037C153.395 190.121 153.579 190.248 153.796 190.365Z" fill="#FFCD34"/>
<path d="M145.257 184.932C145.31 184.989 145.354 185.012 145.431 185.026C145.3 184.955 145.193 184.841 145.062 184.771C145.15 184.818 145.203 184.875 145.257 184.932Z" fill="#FFCD34"/>
<path d="M125.603 157.2C125.533 156.965 125.429 156.741 125.359 156.507C125.463 156.731 125.533 156.965 125.603 157.2Z" fill="#FFCD34"/>
<path d="M126.901 160.566C126.787 160.309 126.707 160.041 126.594 159.783C126.674 160.051 126.787 160.309 126.901 160.566Z" fill="#FFCD34"/>
<path d="M126.227 158.867C126.113 158.609 126.043 158.375 125.93 158.117C126.01 158.385 126.123 158.643 126.227 158.867Z" fill="#FFCD34"/>
<path d="M127.616 162.209C127.503 161.951 127.379 161.66 127.266 161.402C127.389 161.694 127.503 161.951 127.616 162.209Z" fill="#FFCD34"/>
<path d="M130.309 167.712C130.015 167.216 129.745 166.677 129.484 166.172C129.755 166.711 130.015 167.216 130.309 167.712Z" fill="#FFCD34"/>
<path d="M149.038 253.772C147.543 255.349 145.993 256.87 144.314 258.32C145.466 260.345 147.666 261.729 150.173 261.708C152.691 261.721 155.046 260.214 156.151 258.061C156.614 261.313 159.441 263.822 162.831 263.829C165.891 263.825 168.517 261.763 169.321 258.971C169.978 262.019 172.668 264.313 175.915 264.326C179.162 264.34 181.861 262.037 182.519 258.997C183.326 261.818 185.913 263.888 189.016 263.908C192.55 263.908 195.451 261.181 195.734 257.742C196.668 260.379 199.151 262.225 202.111 262.251C205.06 262.244 207.592 260.356 208.48 257.721C206.986 256.381 205.539 254.955 204.182 253.465C196.935 256.034 187.023 257.613 176.056 257.612C165.654 257.552 156.189 256.117 149.038 253.772Z" fill="#FFCD34"/>
<path d="M176.558 120.266C202.358 120.278 224.425 117.797 233.391 114.276C233.259 112.493 233.126 110.71 232.927 108.946C232.777 107.715 206.043 103.972 178.565 103.952C140.848 103.931 120.854 107.615 120.716 108.859C120.504 110.709 120.359 112.539 120.224 114.402C129.474 117.797 151.19 120.234 176.558 120.266Z" fill="#F3BD27"/>
<path d="M228.5 111.766C228.509 113.622 205.355 116.975 176.827 116.977C148.299 116.979 125.156 113.548 125.147 111.691C125.138 109.834 148.274 107.398 176.846 107.419C205.418 107.441 228.491 109.909 228.5 111.766Z" fill="#42340B"/>
<path d="M182.548 59.1079L191.215 69.5678L204.804 69.8053L194.353 78.4732L194.054 92.0891L185.387 81.6292L171.798 81.3917L182.249 72.7238L182.548 59.1079Z" fill="#FFD556"/>
<path d="M95.3826 169.385L105.847 182.078L122.295 182.372L109.612 192.838L109.324 209.294L98.8599 196.601L82.4125 196.307L95.0949 185.841L95.3826 169.385Z" fill="#FFD556"/>
<path d="M97.6716 70.8939L108.136 83.587L124.584 83.8808L111.901 94.3464L111.614 110.803L101.149 98.1096L84.7016 97.8157L97.384 87.3501L97.6716 70.8939Z" fill="#FFD556"/>
<path d="M247.257 195.245L253.145 202.38L262.373 202.536L255.244 208.424L255.091 217.658L249.204 210.523L239.976 210.366L247.105 204.479L247.257 195.245Z" fill="#FFD556"/>
<path d="M281.609 109.352L287.496 116.487L296.725 116.643L289.596 122.531L289.443 131.764L283.556 124.629L274.327 124.473L281.456 118.585L281.609 109.352Z" fill="#FFD556"/>
</g>
<defs>
<filter id="filter0_d_3429_3886" x="38.4141" y="15.1084" width="302.312" height="302.977" filterUnits="userSpaceOnUse" color-interpolation-filters="sRGB">
<feFlood flood-opacity="0" result="BackgroundImageFix"/>
<feColorMatrix in="SourceAlpha" type="matrix" values="0 0 0 0 0 0 0 0 0 0 0 0 0 0 0 0 0 0 127 0" result="hardAlpha"/>
<feOffset/>
<feGaussianBlur stdDeviation="22"/>
<feComposite in2="hardAlpha" operator="out"/>
<feColorMatrix type="matrix" values="0 0 0 0 1 0 0 0 0 0.803922 0 0 0 0 0.203922 0 0 0 0.6 0"/>
<feBlend mode="normal" in2="BackgroundImageFix" result="effect1_dropShadow_3429_3886"/>
<feBlend mode="normal" in="SourceGraphic" in2="effect1_dropShadow_3429_3886" result="shape"/>
</filter>
</defs>
</svg>
