<svg width="450" height="311" viewBox="0 0 450 311" fill="none" xmlns="http://www.w3.org/2000/svg">
<rect x="70.5247" y="2.50098" width="344.121" height="288.144" fill="url(#paint0_linear_2582_7457)" fill-opacity="0.3"/>
<path fill-rule="evenodd" clip-rule="evenodd" d="M167.714 183.677C167.808 183.582 167.936 183.528 168.069 183.528H205.825C206.101 183.528 206.325 183.752 206.325 184.029C206.325 184.305 206.101 184.529 205.825 184.529H168.278L157.454 195.472C157.36 195.567 157.232 195.621 157.098 195.621H30.5107C30.2344 195.621 30.0105 195.397 30.0105 195.121C30.0105 194.844 30.2344 194.62 30.5107 194.62H156.889L167.714 183.677Z" fill="url(#paint1_linear_2582_7457)" fill-opacity="0.5"/>
<path fill-rule="evenodd" clip-rule="evenodd" d="M0 164.572C0 164.295 0.223936 164.071 0.500175 164.071H139.914C140.047 164.071 140.175 164.125 140.269 164.22L149.601 173.665H205.825C206.101 173.665 206.325 173.889 206.325 174.165C206.325 174.441 206.101 174.665 205.825 174.665H149.392C149.258 174.665 149.13 174.612 149.036 174.517L139.705 165.072H0.500175C0.223936 165.072 0 164.848 0 164.572Z" fill="url(#paint2_linear_2582_7457)" fill-opacity="0.5"/>
<path fill-rule="evenodd" clip-rule="evenodd" d="M40.0139 182.382C40.0139 182.106 40.2379 181.882 40.5141 181.882H146.151C146.428 181.882 146.652 182.106 146.652 182.382C146.652 182.658 146.428 182.882 146.151 182.882H40.5141C40.2379 182.882 40.0139 182.658 40.0139 182.382Z" fill="url(#paint3_linear_2582_7457)" fill-opacity="0.5"/>
<path fill-rule="evenodd" clip-rule="evenodd" d="M69.2114 147.522C69.2114 147.245 69.4354 147.021 69.7116 147.021H144.052C144.186 147.021 144.314 147.075 144.408 147.17L159.346 162.29H205.825C206.101 162.29 206.325 162.514 206.325 162.79C206.325 163.066 206.101 163.29 205.825 163.29H159.137C159.003 163.29 158.875 163.237 158.781 163.142L143.843 148.022H69.7116C69.4354 148.022 69.2114 147.798 69.2114 147.522Z" fill="url(#paint4_linear_2582_7457)" fill-opacity="0.5"/>
<path fill-rule="evenodd" clip-rule="evenodd" d="M30.0105 133.935C30.0105 133.659 30.2344 133.435 30.5107 133.435H150.411C150.545 133.435 150.673 133.488 150.767 133.583L168.278 151.307H205.618C205.895 151.307 206.119 151.531 206.119 151.807C206.119 152.084 205.895 152.308 205.618 152.308H168.069C167.936 152.308 167.807 152.254 167.713 152.159L150.202 134.435H30.5107C30.2344 134.435 30.0105 134.211 30.0105 133.935Z" fill="url(#paint5_linear_2582_7457)" fill-opacity="0.5"/>
<path fill-rule="evenodd" clip-rule="evenodd" d="M174.474 139.647C174.474 139.371 174.698 139.147 174.975 139.147H205.618C205.894 139.147 206.118 139.371 206.118 139.647C206.118 139.924 205.894 140.147 205.618 140.147H174.975C174.698 140.147 174.474 139.924 174.474 139.647Z" fill="#8EC9E6" fill-opacity="0.5"/>
<path fill-rule="evenodd" clip-rule="evenodd" d="M45.3901 110.51C45.3901 110.234 45.6141 110.01 45.8903 110.01H143.748C143.882 110.01 144.01 110.063 144.104 110.158L162.186 128.46H205.618C205.895 128.46 206.118 128.684 206.118 128.96C206.118 129.236 205.895 129.46 205.618 129.46H161.977C161.843 129.46 161.715 129.407 161.621 129.311L143.539 111.01H45.8903C45.6141 111.01 45.3901 110.786 45.3901 110.51Z" fill="url(#paint6_linear_2582_7457)" fill-opacity="0.5"/>
<path fill-rule="evenodd" clip-rule="evenodd" d="M180.154 117.046C180.154 116.77 180.378 116.546 180.654 116.546H205.618C205.895 116.546 206.119 116.77 206.119 117.046C206.119 117.322 205.895 117.546 205.618 117.546H180.654C180.378 117.546 180.154 117.322 180.154 117.046Z" fill="#8EC9E6" fill-opacity="0.5"/>
<path fill-rule="evenodd" clip-rule="evenodd" d="M144.27 92.4551C144.467 92.2608 144.783 92.2626 144.978 92.4591L167.005 114.741C167.199 114.938 167.197 115.255 167.001 115.449C166.804 115.643 166.488 115.641 166.293 115.445L144.266 93.1625C144.072 92.966 144.074 92.6493 144.27 92.4551Z" fill="#8EC9E6" fill-opacity="0.5"/>
<path fill-rule="evenodd" clip-rule="evenodd" d="M174.474 92.8105C174.474 92.5344 174.698 92.3105 174.975 92.3105H205.824C206.101 92.3105 206.325 92.5344 206.325 92.8105C206.325 93.0867 206.101 93.3105 205.824 93.3105H174.975C174.698 93.3105 174.474 93.0867 174.474 92.8105Z" fill="#8EC9E6" fill-opacity="0.5"/>
<path fill-rule="evenodd" clip-rule="evenodd" d="M198.883 0C199.159 0 199.383 0.22397 199.383 0.50025V35.0168C199.383 35.2931 199.159 35.5171 198.883 35.5171C198.606 35.5171 198.383 35.2931 198.383 35.0168V0.50025C198.383 0.22397 198.606 0 198.883 0Z" fill="#8EC9E6" fill-opacity="0.5"/>
<path fill-rule="evenodd" clip-rule="evenodd" d="M209.854 45.6074C210.13 45.6074 210.354 45.8314 210.354 46.1077V84.3216C210.354 84.5979 210.13 84.8218 209.854 84.8218C209.577 84.8218 209.354 84.5979 209.354 84.3216V46.1077C209.354 45.8314 209.577 45.6074 209.854 45.6074Z" fill="#8EC9E6" fill-opacity="0.5"/>
<path fill-rule="evenodd" clip-rule="evenodd" d="M229.077 0C229.353 0 229.577 0.22397 229.577 0.50025V17.6111C229.577 17.7428 229.525 17.8691 229.433 17.9628L220.099 27.41V84.3227C220.099 84.599 219.875 84.823 219.599 84.823C219.323 84.823 219.099 84.599 219.099 84.3227V27.2045C219.099 27.0729 219.151 26.9466 219.243 26.8529L228.577 17.4057V0.50025C228.577 0.22397 228.801 0 229.077 0Z" fill="#8EC9E6" fill-opacity="0.5"/>
<path fill-rule="evenodd" clip-rule="evenodd" d="M211.48 0C211.756 0 211.98 0.22397 211.98 0.50025V23.9249C211.98 24.2011 211.756 24.4251 211.48 24.4251C211.204 24.4251 210.98 24.2011 210.98 23.9249V0.50025C210.98 0.22397 211.204 0 211.48 0Z" fill="#8EC9E6" fill-opacity="0.5"/>
<path fill-rule="evenodd" clip-rule="evenodd" d="M245.922 0.40625C246.199 0.40625 246.423 0.63022 246.423 0.9065V21.8007C246.423 21.9323 246.371 22.0587 246.278 22.1523L231.338 37.2745V84.3236C231.338 84.5999 231.114 84.8239 230.837 84.8239C230.561 84.8239 230.337 84.5999 230.337 84.3236V37.0691C230.337 36.9374 230.389 36.8111 230.482 36.7175L245.422 21.5952V0.9065C245.422 0.63022 245.646 0.40625 245.922 0.40625Z" fill="#8EC9E6" fill-opacity="0.5"/>
<path fill-rule="evenodd" clip-rule="evenodd" d="M241.686 45.6074C241.962 45.6074 242.186 45.8314 242.186 46.1077V84.1128C242.186 84.389 241.962 84.613 241.686 84.613C241.41 84.613 241.186 84.389 241.186 84.1128V46.1077C241.186 45.8314 241.41 45.6074 241.686 45.6074Z" fill="#8EC9E6" fill-opacity="0.5"/>
<path fill-rule="evenodd" clip-rule="evenodd" d="M266.153 0C266.429 0 266.653 0.22397 266.653 0.50025V23.716C266.653 23.9923 266.429 24.2163 266.153 24.2163C265.877 24.2163 265.653 23.9923 265.653 23.716V0.50025C265.653 0.22397 265.877 0 266.153 0Z" fill="#8EC9E6" fill-opacity="0.5"/>
<path fill-rule="evenodd" clip-rule="evenodd" d="M253.702 0C253.978 0 254.202 0.223969 254.202 0.50025V84.1139C254.202 84.3902 253.978 84.6142 253.702 84.6142C253.426 84.6142 253.202 84.3902 253.202 84.1139V0.50025C253.202 0.223969 253.426 0 253.702 0Z" fill="#8EC9E6" fill-opacity="0.5"/>
<path fill-rule="evenodd" clip-rule="evenodd" d="M282.476 0.40625C282.752 0.40625 282.976 0.63022 282.976 0.9065V21.4936C282.976 21.6252 282.924 21.7516 282.832 21.8452L264.748 40.1489V84.1148C264.748 84.3911 264.524 84.615 264.248 84.615C263.971 84.615 263.748 84.3911 263.748 84.1148V39.9434C263.748 39.8118 263.799 39.6854 263.892 39.5918L281.976 21.2881V0.9065C281.976 0.63022 282.2 0.40625 282.476 0.40625Z" fill="#8EC9E6" fill-opacity="0.5"/>
<path fill-rule="evenodd" clip-rule="evenodd" d="M276.02 58.3467C276.296 58.3467 276.52 58.5706 276.52 58.8469V84.1141C276.52 84.3903 276.296 84.6143 276.02 84.6143C275.743 84.6143 275.52 84.3903 275.52 84.1141V58.8469C275.52 58.5706 275.743 58.3467 276.02 58.3467Z" fill="#8EC9E6" fill-opacity="0.5"/>
<path fill-rule="evenodd" clip-rule="evenodd" d="M299.976 0C300.253 0 300.477 0.22397 300.477 0.50025V22.3771C300.477 22.5088 300.425 22.6351 300.332 22.7287L278.305 45.0233C278.111 45.2198 277.794 45.2217 277.598 45.0275C277.401 44.8333 277.399 44.5166 277.594 44.32L299.476 22.1717V0.50025C299.476 0.22397 299.7 0 299.976 0Z" fill="#8EC9E6" fill-opacity="0.5"/>
<path fill-rule="evenodd" clip-rule="evenodd" d="M312.829 0C313.105 0 313.329 0.223969 313.329 0.50025V26.9466C313.329 27.0782 313.277 27.2046 313.184 27.2982L287.491 53.3036V84.1139C287.491 84.3902 287.267 84.6142 286.991 84.6142C286.715 84.6142 286.491 84.3902 286.491 84.1139V53.0981C286.491 52.9665 286.543 52.8401 286.635 52.7465L312.328 26.7411V0.50025C312.328 0.223969 312.552 0 312.829 0Z" fill="#8EC9E6" fill-opacity="0.5"/>
<path fill-rule="evenodd" clip-rule="evenodd" d="M299.976 52.5977C300.252 52.5977 300.476 52.8216 300.476 53.0979V84.3225C300.476 84.5988 300.252 84.8228 299.976 84.8228C299.7 84.8228 299.476 84.5988 299.476 84.3225V53.0979C299.476 52.8216 299.7 52.5977 299.976 52.5977Z" fill="#8EC9E6" fill-opacity="0.5"/>
<path fill-rule="evenodd" clip-rule="evenodd" d="M302.222 189.189C302.498 189.189 302.722 189.413 302.722 189.69V227.698L313.536 238.656C313.73 238.853 313.728 239.17 313.532 239.364C313.335 239.558 313.019 239.556 312.824 239.359L301.866 228.255C301.773 228.161 301.721 228.035 301.721 227.904V189.69C301.721 189.413 301.945 189.189 302.222 189.189Z" fill="#8EC9E6" fill-opacity="0.5"/>
<path fill-rule="evenodd" clip-rule="evenodd" d="M292.476 189.189C292.753 189.189 292.976 189.413 292.976 189.69V246.808C292.976 246.94 292.925 247.066 292.832 247.16L283.354 256.753C283.16 256.949 282.843 256.951 282.646 256.757C282.45 256.563 282.448 256.246 282.642 256.05L291.976 246.602V189.69C291.976 189.413 292.2 189.189 292.476 189.189Z" fill="#8EC9E6" fill-opacity="0.5"/>
<path fill-rule="evenodd" clip-rule="evenodd" d="M300.595 249.602C300.871 249.602 301.095 249.826 301.095 250.102V310.5C301.095 310.776 300.871 311 300.595 311C300.319 311 300.095 310.776 300.095 310.5V250.102C300.095 249.826 300.319 249.602 300.595 249.602Z" fill="#8EC9E6" fill-opacity="0.5"/>
<path fill-rule="evenodd" clip-rule="evenodd" d="M281.227 189.189C281.503 189.189 281.727 189.413 281.727 189.69V236.944C281.727 237.076 281.675 237.202 281.583 237.296L266.654 252.418V310.498C266.654 310.774 266.43 310.998 266.153 310.998C265.877 310.998 265.653 310.774 265.653 310.498V252.213C265.653 252.081 265.705 251.955 265.798 251.861L280.726 236.739V189.69C280.726 189.413 280.95 189.189 281.227 189.189Z" fill="#8EC9E6" fill-opacity="0.5"/>
<path fill-rule="evenodd" clip-rule="evenodd" d="M270.389 189.4C270.665 189.4 270.889 189.624 270.889 189.901V227.906C270.889 228.037 270.837 228.164 270.745 228.257L253.219 245.996V310.5C253.219 310.776 252.995 311 252.719 311C252.442 311 252.219 310.776 252.219 310.5V245.79C252.219 245.659 252.27 245.532 252.363 245.439L269.889 227.7V189.901C269.889 189.624 270.113 189.4 270.389 189.4Z" fill="#8EC9E6" fill-opacity="0.5"/>
<path fill-rule="evenodd" clip-rule="evenodd" d="M258.374 189.4C258.65 189.4 258.874 189.624 258.874 189.901V220.929C258.874 221.205 258.65 221.429 258.374 221.429C258.097 221.429 257.874 221.205 257.874 220.929V189.901C257.874 189.624 258.097 189.4 258.374 189.4Z" fill="#8EC9E6" fill-opacity="0.5"/>
<path fill-rule="evenodd" clip-rule="evenodd" d="M247.815 189.4C248.092 189.4 248.316 189.624 248.316 189.901V234.072C248.316 234.204 248.264 234.33 248.171 234.424L230.087 252.727V310.5C230.087 310.776 229.863 311 229.587 311C229.311 311 229.087 310.776 229.087 310.5V252.522C229.087 252.39 229.139 252.264 229.231 252.17L247.315 233.867V189.901C247.315 189.624 247.539 189.4 247.815 189.4Z" fill="#8EC9E6" fill-opacity="0.5"/>
<path fill-rule="evenodd" clip-rule="evenodd" d="M236.043 189.4C236.32 189.4 236.543 189.624 236.543 189.901V215.168C236.543 215.444 236.32 215.668 236.043 215.668C235.767 215.668 235.543 215.444 235.543 215.168V189.901C235.543 189.624 235.767 189.4 236.043 189.4Z" fill="#8EC9E6" fill-opacity="0.5"/>
<path fill-rule="evenodd" clip-rule="evenodd" d="M234.465 228.985C234.662 229.179 234.664 229.496 234.47 229.693L212.599 251.841V310.498C212.599 310.774 212.375 310.998 212.099 310.998C211.823 310.998 211.599 310.774 211.599 310.498V251.636C211.599 251.504 211.651 251.378 211.743 251.284L233.758 228.99C233.952 228.793 234.269 228.791 234.465 228.985Z" fill="#8EC9E6" fill-opacity="0.5"/>
<path fill-rule="evenodd" clip-rule="evenodd" d="M225.072 189.4C225.348 189.4 225.572 189.624 225.572 189.901V220.929C225.572 221.06 225.52 221.187 225.428 221.28L199.747 247.286V310.5C199.747 310.776 199.523 311 199.247 311C198.97 311 198.746 310.776 198.746 310.5V247.08C198.746 246.949 198.798 246.822 198.891 246.729L224.572 220.723V189.901C224.572 189.624 224.796 189.4 225.072 189.4Z" fill="#8EC9E6" fill-opacity="0.5"/>
<path fill-rule="evenodd" clip-rule="evenodd" d="M212.099 189.189C212.375 189.189 212.599 189.413 212.599 189.69V220.927C212.599 221.203 212.375 221.427 212.099 221.427C211.823 221.427 211.599 221.203 211.599 220.927V189.69C211.599 189.413 211.823 189.189 212.099 189.189Z" fill="#8EC9E6" fill-opacity="0.5"/>
<path fill-rule="evenodd" clip-rule="evenodd" d="M308.214 185.624C308.214 185.348 308.438 185.124 308.715 185.124H346.47C346.604 185.124 346.732 185.178 346.826 185.273L357.638 196.216H448.9C449.176 196.216 449.4 196.44 449.4 196.716C449.4 196.993 449.176 197.217 448.9 197.217H357.429C357.295 197.217 357.167 197.163 357.073 197.068L346.261 186.125H308.715C308.438 186.125 308.214 185.901 308.214 185.624Z" fill="url(#paint7_linear_2582_7457)" fill-opacity="0.5"/>
<path fill-rule="evenodd" clip-rule="evenodd" d="M374.27 165.816C374.364 165.721 374.492 165.667 374.626 165.667H448.9C449.176 165.667 449.4 165.891 449.4 166.167C449.4 166.444 449.176 166.667 448.9 166.667H374.835L365.503 176.112C365.409 176.207 365.281 176.261 365.147 176.261H308.715C308.438 176.261 308.214 176.037 308.214 175.761C308.214 175.484 308.438 175.26 308.715 175.26H364.938L374.27 165.816Z" fill="url(#paint8_linear_2582_7457)" fill-opacity="0.5"/>
<path fill-rule="evenodd" clip-rule="evenodd" d="M367.864 183.592C367.864 183.316 368.088 183.092 368.364 183.092H440.389C440.666 183.092 440.89 183.316 440.89 183.592C440.89 183.868 440.666 184.092 440.389 184.092H368.364C368.088 184.092 367.864 183.868 367.864 183.592Z" fill="url(#paint9_linear_2582_7457)" fill-opacity="0.5"/>
<path fill-rule="evenodd" clip-rule="evenodd" d="M370.132 148.755C370.225 148.66 370.354 148.606 370.487 148.606H448.5C448.776 148.606 449 148.83 449 149.107C449 149.383 448.776 149.607 448.5 149.607H370.696L355.758 164.727C355.664 164.822 355.536 164.875 355.402 164.875H308.715C308.438 164.875 308.214 164.651 308.214 164.375C308.214 164.099 308.438 163.875 308.715 163.875H355.193L370.132 148.755Z" fill="url(#paint10_linear_2582_7457)" fill-opacity="0.5"/>
<path fill-rule="evenodd" clip-rule="evenodd" d="M363.772 135.168C363.866 135.073 363.994 135.02 364.128 135.02H448.9C449.176 135.02 449.4 135.244 449.4 135.52C449.4 135.796 449.176 136.02 448.9 136.02H364.337L346.826 153.744C346.732 153.839 346.604 153.892 346.47 153.892H308.921C308.645 153.892 308.421 153.669 308.421 153.392C308.421 153.116 308.645 152.892 308.921 152.892H346.261L363.772 135.168Z" fill="url(#paint11_linear_2582_7457)" fill-opacity="0.5"/>
<path fill-rule="evenodd" clip-rule="evenodd" d="M308.421 141.245C308.421 140.969 308.645 140.745 308.921 140.745H339.564C339.841 140.745 340.065 140.969 340.065 141.245C340.065 141.521 339.841 141.745 339.564 141.745H308.921C308.645 141.745 308.421 141.521 308.421 141.245Z" fill="#8EC9E6" fill-opacity="0.5"/>
<path fill-rule="evenodd" clip-rule="evenodd" d="M370.435 111.756C370.529 111.661 370.657 111.607 370.791 111.607H449.5C449.776 111.607 450 111.831 450 112.108C450 112.384 449.776 112.608 449.5 112.608H371L352.918 130.909C352.824 131.004 352.696 131.058 352.562 131.058H308.921C308.645 131.058 308.421 130.834 308.421 130.557C308.421 130.281 308.645 130.057 308.921 130.057H352.353L370.435 111.756Z" fill="url(#paint12_linear_2582_7457)" fill-opacity="0.5"/>
<path fill-rule="evenodd" clip-rule="evenodd" d="M308.421 118.642C308.421 118.365 308.645 118.142 308.921 118.142H333.885C334.161 118.142 334.385 118.365 334.385 118.642C334.385 118.918 334.161 119.142 333.885 119.142H308.921C308.645 119.142 308.421 118.918 308.421 118.642Z" fill="#8EC9E6" fill-opacity="0.5"/>
<path fill-rule="evenodd" clip-rule="evenodd" d="M370.269 94.0399C370.465 94.2341 370.467 94.5509 370.273 94.7474L348.246 117.042C348.052 117.238 347.735 117.24 347.539 117.046C347.342 116.852 347.34 116.535 347.535 116.339L369.562 94.0441C369.756 93.8476 370.072 93.8457 370.269 94.0399Z" fill="#8EC9E6" fill-opacity="0.5"/>
<path fill-rule="evenodd" clip-rule="evenodd" d="M365.047 81.0344C365.14 80.9393 365.269 80.8857 365.402 80.8857H448.9C449.176 80.8857 449.4 81.1097 449.4 81.386C449.4 81.6623 449.176 81.8862 448.9 81.8862H365.611L339.92 107.889C339.826 107.984 339.698 108.038 339.564 108.038H308.921C308.645 108.038 308.421 107.814 308.421 107.538C308.421 107.261 308.645 107.037 308.921 107.037H339.356L365.047 81.0344Z" fill="url(#paint13_linear_2582_7457)" fill-opacity="0.5"/>
<path fill-rule="evenodd" clip-rule="evenodd" d="M308.214 94.3955C308.214 94.1194 308.438 93.8955 308.715 93.8955H339.564C339.841 93.8955 340.065 94.1194 340.065 94.3955C340.065 94.6717 339.841 94.8955 339.564 94.8955H308.715C308.438 94.8955 308.214 94.6717 308.214 94.3955Z" fill="#8EC9E6" fill-opacity="0.5"/>
<path fill-rule="evenodd" clip-rule="evenodd" d="M30.0105 79.801C30.0105 79.5248 30.2344 79.3008 30.5107 79.3008H149.137C149.271 79.3008 149.399 79.3543 149.493 79.4494L175.184 105.452H205.618C205.895 105.452 206.119 105.676 206.119 105.953C206.119 106.229 205.895 106.453 205.618 106.453H174.975C174.841 106.453 174.713 106.399 174.619 106.304L148.928 80.3013H30.5107C30.2344 80.3013 30.0105 80.0773 30.0105 79.801Z" fill="url(#paint14_linear_2582_7457)"/>
<g style="mix-blend-mode:color-dodge">
<path d="M292.78 105.694V169.212C290.777 171.239 289.661 172.369 287.658 174.396H224.902L219.781 169.212V105.694L224.902 100.511H287.658C289.661 102.538 290.777 103.668 292.78 105.694Z" fill="#45596D"/>
</g>
<g style="mix-blend-mode:color-dodge">
<path fill-rule="evenodd" clip-rule="evenodd" d="M224.696 100.307C224.751 100.252 224.825 100.221 224.903 100.221H287.658C287.736 100.221 287.81 100.252 287.865 100.307L292.986 105.491C293.04 105.545 293.07 105.618 293.07 105.694V169.212C293.07 169.289 293.04 169.362 292.986 169.416L287.865 174.6C287.81 174.655 287.736 174.686 287.658 174.686H224.903C224.825 174.686 224.751 174.655 224.696 174.6L219.575 169.416C219.521 169.362 219.491 169.289 219.491 169.212V105.694C219.491 105.618 219.521 105.545 219.575 105.491L224.696 100.307ZM225.024 100.801L220.071 105.814V169.093L225.024 174.106H287.537L292.49 169.093V105.814L287.537 100.801H225.024Z" fill="white"/>
</g>
<path opacity="0.7" d="M319.904 82.11V192.821C316.421 196.346 314.455 198.336 310.972 201.862H201.589L192.657 192.821V82.11C196.14 78.5846 198.106 76.5947 201.589 73.0693H310.972C314.455 76.5947 316.421 78.5846 319.904 82.11Z" fill="#45596D"/>
<g style="mix-blend-mode:color-dodge">
<path d="M304.965 98.0511V176.874C301.154 180.731 299.03 182.881 295.219 186.738H217.342L207.597 176.874V98.0511C211.407 94.1941 213.531 92.0445 217.342 88.1875H295.219L304.965 98.0511Z" fill="#1E3A4D"/>
</g>
<path d="M327.124 202.379C328.352 201.508 329.681 200.815 331.067 200.311L331.607 196.219L338.407 195.598L339.68 199.526C341.132 199.771 342.563 200.209 343.933 200.846L347.209 198.334L352.455 202.7L350.581 206.374C351.452 207.607 352.144 208.931 352.649 210.317L356.739 210.857L357.36 217.659L353.433 218.933C353.189 220.385 352.751 221.817 352.114 223.188L354.625 226.464L350.26 231.712L346.582 229.837C345.354 230.708 344.025 231.401 342.64 231.905L342.1 235.997L335.3 236.618L334.026 232.69C332.574 232.445 331.143 232.007 329.773 231.37L326.498 233.882L321.251 229.516L323.126 225.837C322.255 224.609 321.562 223.279 321.058 221.893L316.967 221.353L316.346 214.551L320.273 213.272C320.518 211.82 320.956 210.389 321.592 209.018L319.081 205.742L323.447 200.494L327.124 202.369V202.379ZM331.423 211.184C328.836 214.297 329.258 218.913 332.371 221.501C335.478 224.089 340.098 223.666 342.685 220.553C345.273 217.445 344.85 212.824 341.738 210.236C338.631 207.648 334.011 208.07 331.423 211.184Z" fill="#F29111"/>
<path d="M366.35 226.758C366.918 226.355 367.535 226.032 368.175 225.798L368.428 223.901L371.579 223.611L372.17 225.429C372.843 225.542 373.506 225.746 374.138 226.039L375.655 224.876L378.087 226.901L377.221 228.603C377.628 229.171 377.948 229.788 378.181 230.428L380.079 230.681L380.368 233.831L378.55 234.422C378.437 235.096 378.234 235.759 377.94 236.391L379.104 237.908L377.082 240.34L375.381 239.474C374.812 239.877 374.195 240.2 373.555 240.434L373.303 242.331L370.152 242.621L369.561 240.803C368.887 240.69 368.224 240.486 367.592 240.193L366.075 241.356L363.643 239.331L364.509 237.629C364.106 237.061 363.782 236.444 363.549 235.804L361.652 235.552L361.362 232.401L363.18 231.81C363.293 231.136 363.496 230.474 363.79 229.841L362.627 228.324L364.652 225.892L366.353 226.762L366.35 226.758ZM368.341 230.835C367.144 232.277 367.34 234.415 368.778 235.616C370.22 236.813 372.358 236.617 373.559 235.179C374.756 233.737 374.56 231.599 373.122 230.398C371.68 229.201 369.542 229.397 368.341 230.835Z" fill="white"/>
<path d="M360.653 147.764H319.455C316.854 147.764 314.745 149.874 314.745 152.477V176.543C314.745 179.146 316.854 181.256 319.455 181.256H360.653C363.254 181.256 365.363 179.146 365.363 176.543V152.477C365.363 149.874 363.254 147.764 360.653 147.764Z" fill="#8EC9E6"/>
<path d="M357.252 147.764H316.054C313.453 147.764 311.344 149.874 311.344 152.477V176.543C311.344 179.146 313.453 181.256 316.054 181.256H357.252C359.853 181.256 361.962 179.146 361.962 176.543V152.477C361.962 149.874 359.853 147.764 357.252 147.764Z" fill="#8EC9E6"/>
<path d="M331.184 162.628L324.287 165.074L331.184 167.521V170.682L320.521 166.745V163.41L331.184 159.473V162.633V162.628Z" fill="white"/>
<path d="M338.777 154.429H342.431L335.293 174.817H331.639L338.777 154.429Z" fill="white"/>
<path d="M353.327 163.409V166.745L342.665 170.682V167.521L349.562 165.074L342.665 162.628V159.467L353.327 163.404V163.409Z" fill="white"/>
<path d="M176.126 106.238C177.658 105.31 179.291 104.61 180.974 104.133L181.973 99.3363L190.082 99.1943L191.248 103.956C192.947 104.377 194.605 105.021 196.167 105.893L200.265 103.205L206.097 108.839L203.556 113.027C204.484 114.559 205.184 116.192 205.661 117.875L210.458 118.874L210.6 126.982L205.838 128.149C205.417 129.847 204.773 131.5 203.901 133.067L206.589 137.164L200.955 142.996L196.766 140.455C195.234 141.383 193.601 142.083 191.918 142.56L190.919 147.357L182.81 147.499L181.644 142.737C179.945 142.316 178.292 141.672 176.725 140.8L172.627 143.488L166.795 137.854L169.336 133.666C168.408 132.134 167.708 130.501 167.231 128.818L162.434 127.819L162.292 119.711L167.054 118.544C167.475 116.846 168.119 115.193 168.991 113.626L166.303 109.529L171.937 103.697L176.126 106.238ZM180.447 117.038C177.11 120.497 177.206 125.999 180.665 129.335C184.123 132.672 189.626 132.575 192.962 129.117C196.299 125.659 196.203 120.157 192.744 116.82C189.286 113.484 183.784 113.58 180.447 117.038Z" fill="#CBEEFF"/>
<path fill-rule="evenodd" clip-rule="evenodd" d="M218.245 87.4234L215.606 85.8227L212.945 88.5762L214.638 91.1562L214.343 91.6853C213.803 92.6554 213.404 93.679 213.144 94.7315L212.998 95.3188L210 96.0532L210.067 99.8821L213.089 100.511L213.254 101.095C213.549 102.138 213.982 103.148 214.556 104.093L214.87 104.612L213.269 107.251L216.023 109.911L218.603 108.219L219.132 108.513C220.102 109.053 221.126 109.452 222.179 109.713L222.766 109.858L223.5 112.857L227.33 112.79L227.959 109.768L228.543 109.603C229.586 109.307 230.596 108.874 231.542 108.301L232.06 107.987L234.699 109.587L237.36 106.834L235.667 104.254L235.962 103.725C236.502 102.755 236.901 101.731 237.161 100.679L237.307 100.091L240.306 99.357L240.238 95.5281L237.216 94.8988L237.051 94.3155C236.756 93.2725 236.323 92.2627 235.75 91.3167L235.435 90.7979L237.036 88.159L234.282 85.4989L231.701 87.1918L231.172 86.8962C230.206 86.3572 229.18 85.9583 228.126 85.6973L227.539 85.5518L226.805 82.5534L222.975 82.6205L222.346 85.6424L221.763 85.8076C220.719 86.1029 219.709 86.5359 218.763 87.1092L218.245 87.4234ZM222.159 81.6341L227.586 81.5391L228.367 84.7261C229.504 85.0078 230.614 85.4389 231.659 86.0226L234.402 84.2238L238.306 87.9946L236.605 90.7981C237.226 91.8231 237.695 92.916 238.014 94.0429L241.225 94.7115L241.32 100.139L238.132 100.919C237.851 102.056 237.42 103.163 236.836 104.212L238.635 106.954L234.864 110.857L232.06 109.157C231.035 109.778 229.942 110.246 228.815 110.565L228.146 113.776L222.719 113.871L221.938 110.684C220.801 110.402 219.694 109.971 218.646 109.388L215.903 111.186L212 107.416L213.7 104.612C213.079 103.587 212.61 102.494 212.291 101.367L209.08 100.699L208.985 95.2715L212.173 94.4909C212.454 93.3539 212.885 92.2474 213.469 91.1986L211.67 88.4562L215.441 84.553L218.245 86.2534C219.27 85.6323 220.363 85.1639 221.49 84.8449L222.159 81.6341ZM220.589 102.434C217.876 99.8163 217.8 95.5002 220.417 92.7881C223.035 90.0754 227.351 90.0003 230.063 92.6168C232.776 95.2341 232.851 99.5502 230.234 102.262C227.617 104.975 223.301 105.05 220.589 102.434ZM221.283 101.714C218.968 99.4802 218.904 95.7976 221.137 93.4828C223.371 91.1681 227.053 91.1036 229.368 93.3369C231.683 95.5702 231.748 99.2528 229.514 101.568C227.281 103.882 223.598 103.947 221.283 101.714Z" fill="white"/>
<path fill-rule="evenodd" clip-rule="evenodd" d="M337.088 106.657H281.288C281.102 106.657 280.95 106.506 280.95 106.319V100.85C280.95 100.664 281.102 100.513 281.288 100.513H337.088C337.274 100.513 337.426 100.664 337.426 100.85V106.319C337.426 106.506 337.274 106.657 337.088 106.657ZM281.288 106.994C280.915 106.994 280.612 106.692 280.612 106.319V100.85C280.612 100.478 280.915 100.175 281.288 100.175H337.088C337.461 100.175 337.764 100.478 337.764 100.85V106.319C337.764 106.692 337.461 106.994 337.088 106.994H281.288Z" fill="white"/>
<path fill-rule="evenodd" clip-rule="evenodd" d="M281.288 106.657H337.088C337.274 106.657 337.426 106.506 337.426 106.319V100.85C337.426 100.664 337.274 100.513 337.088 100.513H281.288C281.102 100.513 280.95 100.664 280.95 100.85V106.319C280.95 106.506 281.102 106.657 281.288 106.657ZM280.612 106.319C280.612 106.692 280.915 106.994 281.288 106.994H337.088C337.461 106.994 337.764 106.692 337.764 106.319V100.85C337.764 100.478 337.461 100.175 337.088 100.175H281.288C280.915 100.175 280.612 100.478 280.612 100.85V106.319Z" fill="white"/>
<g filter="url(#filter0_d_2582_7457)">
<path d="M275.332 97.7867C275.332 99.2777 276.543 100.486 278.037 100.486H340.65C342.144 100.486 343.355 99.2777 343.355 97.7867V88.3088C343.355 86.8179 342.144 85.6092 340.65 85.6092H278.037C276.543 85.6092 275.332 86.8179 275.332 88.3088V97.7867Z" fill="white" fill-opacity="0.6"/>
</g>
<g filter="url(#filter1_d_2582_7457)">
<path fill-rule="evenodd" clip-rule="evenodd" d="M340.65 99.4858H278.037C277.094 99.4858 276.332 98.7229 276.332 97.7867V88.3088C276.332 87.3726 277.094 86.6097 278.037 86.6097H340.65C341.594 86.6097 342.355 87.3726 342.355 88.3088V97.7867C342.355 98.7229 341.594 99.4858 340.65 99.4858ZM278.037 100.486C276.543 100.486 275.332 99.2777 275.332 97.7867V88.3088C275.332 86.8179 276.543 85.6092 278.037 85.6092H340.65C342.144 85.6092 343.355 86.8179 343.355 88.3088V97.7867C343.355 99.2777 342.144 100.486 340.65 100.486H278.037Z" fill="white"/>
</g>
<g filter="url(#filter2_d_2582_7457)">
<path fill-rule="evenodd" clip-rule="evenodd" d="M340.65 100.149H278.037C276.73 100.149 275.67 99.0913 275.67 97.7867V88.3088C275.67 87.0042 276.73 85.9467 278.037 85.9467H340.65C341.957 85.9467 343.017 87.0042 343.017 88.3088V97.7867C343.017 99.0913 341.957 100.149 340.65 100.149ZM278.037 100.486C276.543 100.486 275.332 99.2777 275.332 97.7867V88.3088C275.332 86.8179 276.543 85.6092 278.037 85.6092H340.65C342.144 85.6092 343.355 86.8179 343.355 88.3088V97.7867C343.355 99.2777 342.144 100.486 340.65 100.486H278.037Z" fill="white"/>
</g>
<g filter="url(#filter3_d_2582_7457)">
<path fill-rule="evenodd" clip-rule="evenodd" d="M278.037 100.149H340.65C341.957 100.149 343.017 99.0913 343.017 97.7867V88.3088C343.017 87.0042 341.957 85.9467 340.65 85.9467H278.037C276.73 85.9467 275.67 87.0042 275.67 88.3088V97.7867C275.67 99.0913 276.73 100.149 278.037 100.149ZM275.332 97.7867C275.332 99.2777 276.543 100.486 278.037 100.486H340.65C342.144 100.486 343.355 99.2777 343.355 97.7867V88.3088C343.355 86.8179 342.144 85.6092 340.65 85.6092H278.037C276.543 85.6092 275.332 86.8179 275.332 88.3088V97.7867Z" fill="white"/>
</g>
<path d="M275.332 118.56C275.332 120.218 276.675 121.562 278.333 121.562H340.283C341.94 121.562 343.284 120.218 343.284 118.56V109.606C343.284 107.948 341.94 106.604 340.283 106.604H278.333C276.675 106.604 275.332 107.948 275.332 109.606V118.56Z" fill="#795184"/>
<path fill-rule="evenodd" clip-rule="evenodd" d="M340.283 120.561H278.333C277.228 120.561 276.332 119.665 276.332 118.56V109.606C276.332 108.501 277.228 107.605 278.333 107.605H340.283C341.388 107.605 342.283 108.501 342.283 109.606V118.56C342.283 119.665 341.388 120.561 340.283 120.561ZM278.333 121.562C276.675 121.562 275.332 120.218 275.332 118.56V109.606C275.332 107.948 276.675 106.604 278.333 106.604H340.283C341.94 106.604 343.284 107.948 343.284 109.606V118.56C343.284 120.218 341.94 121.562 340.283 121.562H278.333Z" fill="white"/>
<path d="M275.332 76.5395C275.332 78.1972 276.675 79.541 278.333 79.541H340.354C342.012 79.541 343.355 78.1972 343.355 76.5395V67.535C343.355 65.8773 342.012 64.5335 340.354 64.5335H278.333C276.675 64.5335 275.332 65.8773 275.332 67.535V76.5395Z" fill="#F29111"/>
<path fill-rule="evenodd" clip-rule="evenodd" d="M340.354 78.5405H278.333C277.228 78.5405 276.332 77.6446 276.332 76.5395V67.535C276.332 66.4299 277.228 65.534 278.333 65.534H340.354C341.459 65.534 342.355 66.4299 342.355 67.535V76.5395C342.355 77.6446 341.459 78.5405 340.354 78.5405ZM278.333 79.541C276.675 79.541 275.332 78.1972 275.332 76.5395V67.535C275.332 65.8773 276.675 64.5335 278.333 64.5335H340.354C342.012 64.5335 343.355 65.8773 343.355 67.535V76.5395C343.355 78.1972 342.012 79.541 340.354 79.541H278.333Z" fill="white"/>
<g filter="url(#filter4_d_2582_7457)">
<path fill-rule="evenodd" clip-rule="evenodd" d="M340.649 121.224H278.037C276.73 121.224 275.67 120.167 275.67 118.862V109.384C275.67 108.079 276.73 107.022 278.037 107.022H340.649C341.957 107.022 343.017 108.079 343.017 109.384V118.862C343.017 120.167 341.957 121.224 340.649 121.224ZM278.037 121.562C276.543 121.562 275.332 120.353 275.332 118.862V109.384C275.332 107.893 276.543 106.684 278.037 106.684H340.649C342.144 106.684 343.355 107.893 343.355 109.384V118.862C343.355 120.353 342.144 121.562 340.649 121.562H278.037Z" fill="white"/>
</g>
<g filter="url(#filter5_d_2582_7457)">
<path fill-rule="evenodd" clip-rule="evenodd" d="M278.037 121.224H340.649C341.957 121.224 343.017 120.167 343.017 118.862V109.384C343.017 108.079 341.957 107.022 340.649 107.022H278.037C276.73 107.022 275.67 108.079 275.67 109.384V118.862C275.67 120.167 276.73 121.224 278.037 121.224ZM275.332 118.862C275.332 120.353 276.543 121.562 278.037 121.562H340.649C342.144 121.562 343.355 120.353 343.355 118.862V109.384C343.355 107.893 342.144 106.684 340.649 106.684H278.037C276.543 106.684 275.332 107.893 275.332 109.384V118.862Z" fill="white"/>
</g>
<g filter="url(#filter6_d_2582_7457)">
<path fill-rule="evenodd" clip-rule="evenodd" d="M340.65 79.0717H278.037C276.73 79.0717 275.67 78.0142 275.67 76.7096V67.2317C275.67 65.9271 276.73 64.8695 278.037 64.8695H340.65C341.957 64.8695 343.017 65.9271 343.017 67.2317V76.7096C343.017 78.0142 341.957 79.0717 340.65 79.0717ZM278.037 79.4092C276.543 79.4092 275.332 78.2005 275.332 76.7096V67.2317C275.332 65.7407 276.543 64.5321 278.037 64.5321H340.65C342.144 64.5321 343.355 65.7407 343.355 67.2317V76.7096C343.355 78.2005 342.144 79.4092 340.65 79.4092H278.037Z" fill="white"/>
</g>
<g filter="url(#filter7_d_2582_7457)">
<path fill-rule="evenodd" clip-rule="evenodd" d="M278.037 79.0717H340.65C341.957 79.0717 343.017 78.0142 343.017 76.7096V67.2317C343.017 65.9271 341.957 64.8695 340.65 64.8695H278.037C276.73 64.8695 275.67 65.9271 275.67 67.2317V76.7096C275.67 78.0142 276.73 79.0717 278.037 79.0717ZM275.332 76.7096C275.332 78.2005 276.543 79.4092 278.037 79.4092H340.65C342.144 79.4092 343.355 78.2005 343.355 76.7096V67.2317C343.355 65.7407 342.144 64.5321 340.65 64.5321H278.037C276.543 64.5321 275.332 65.7407 275.332 67.2317V76.7096Z" fill="white"/>
</g>
<path fill-rule="evenodd" clip-rule="evenodd" d="M288.498 116.096H281.216C281.029 116.096 280.878 115.945 280.878 115.759V111.98C280.878 111.794 281.029 111.643 281.216 111.643H288.498C288.684 111.643 288.836 111.794 288.836 111.98V115.759C288.836 115.945 288.684 116.096 288.498 116.096ZM281.216 116.434C280.842 116.434 280.54 116.131 280.54 115.759V111.98C280.54 111.607 280.842 111.305 281.216 111.305H288.498C288.871 111.305 289.174 111.607 289.174 111.98V115.759C289.174 116.131 288.871 116.434 288.498 116.434H281.216Z" fill="white"/>
<path fill-rule="evenodd" clip-rule="evenodd" d="M281.216 116.096H288.498C288.684 116.096 288.836 115.945 288.836 115.759V111.98C288.836 111.794 288.684 111.643 288.498 111.643H281.216C281.029 111.643 280.878 111.794 280.878 111.98V115.759C280.878 115.945 281.029 116.096 281.216 116.096ZM280.54 115.759C280.54 116.131 280.842 116.434 281.216 116.434H288.498C288.871 116.434 289.174 116.131 289.174 115.759V111.98C289.174 111.607 288.871 111.305 288.498 111.305H281.216C280.842 111.305 280.54 111.607 280.54 111.98V115.759Z" fill="white"/>
<path d="M293.903 115.759C293.903 116.131 294.206 116.434 294.579 116.434H301.861C302.234 116.434 302.537 116.131 302.537 115.759V111.98C302.537 111.607 302.234 111.305 301.861 111.305H294.579C294.206 111.305 293.903 111.607 293.903 111.98V115.759Z" fill="#F29111"/>
<path fill-rule="evenodd" clip-rule="evenodd" d="M294.903 115.433V112.306H301.537V115.433H294.903ZM294.579 116.434C294.206 116.434 293.903 116.131 293.903 115.759V111.98C293.903 111.607 294.206 111.305 294.579 111.305H301.861C302.234 111.305 302.537 111.607 302.537 111.98V115.759C302.537 116.131 302.234 116.434 301.861 116.434H294.579Z" fill="white"/>
<path fill-rule="evenodd" clip-rule="evenodd" d="M301.861 116.096H294.579C294.392 116.096 294.241 115.945 294.241 115.759V111.98C294.241 111.794 294.392 111.643 294.579 111.643H301.861C302.048 111.643 302.199 111.794 302.199 111.98V115.759C302.199 115.945 302.048 116.096 301.861 116.096ZM294.579 116.434C294.206 116.434 293.903 116.131 293.903 115.759V111.98C293.903 111.607 294.206 111.305 294.579 111.305H301.861C302.234 111.305 302.537 111.607 302.537 111.98V115.759C302.537 116.131 302.234 116.434 301.861 116.434H294.579Z" fill="white"/>
<path fill-rule="evenodd" clip-rule="evenodd" d="M294.579 116.096H301.861C302.048 116.096 302.199 115.945 302.199 115.759V111.98C302.199 111.794 302.048 111.643 301.861 111.643H294.579C294.392 111.643 294.241 111.794 294.241 111.98V115.759C294.241 115.945 294.392 116.096 294.579 116.096ZM293.903 115.759C293.903 116.131 294.206 116.434 294.579 116.434H301.861C302.234 116.434 302.537 116.131 302.537 115.759V111.98C302.537 111.607 302.234 111.305 301.861 111.305H294.579C294.206 111.305 293.903 111.607 293.903 111.98V115.759Z" fill="white"/>
<path d="M280.54 94.8349C280.54 95.2076 280.842 95.5098 281.216 95.5098H288.498C288.871 95.5098 289.174 95.2076 289.174 94.8349V91.0562C289.174 90.6834 288.871 90.3813 288.498 90.3813H281.216C280.842 90.3813 280.54 90.6834 280.54 91.0562V94.8349Z" fill="#8EC9E6"/>
<path fill-rule="evenodd" clip-rule="evenodd" d="M281.54 94.5093V91.3818H288.174V94.5093H281.54ZM281.216 95.5098C280.842 95.5098 280.54 95.2076 280.54 94.8349V91.0562C280.54 90.6834 280.842 90.3813 281.216 90.3813H288.498C288.871 90.3813 289.174 90.6834 289.174 91.0562V94.8349C289.174 95.2076 288.871 95.5098 288.498 95.5098H281.216Z" fill="white"/>
<path fill-rule="evenodd" clip-rule="evenodd" d="M288.498 95.1723H281.216C281.029 95.1723 280.878 95.0212 280.878 94.8349V91.0562C280.878 90.8698 281.029 90.7187 281.216 90.7187H288.498C288.684 90.7187 288.836 90.8698 288.836 91.0562V94.8349C288.836 95.0212 288.684 95.1723 288.498 95.1723ZM281.216 95.5098C280.842 95.5098 280.54 95.2076 280.54 94.8349V91.0562C280.54 90.6834 280.842 90.3813 281.216 90.3813H288.498C288.871 90.3813 289.174 90.6834 289.174 91.0562V94.8349C289.174 95.2076 288.871 95.5098 288.498 95.5098H281.216Z" fill="white"/>
<path fill-rule="evenodd" clip-rule="evenodd" d="M281.216 95.1723H288.498C288.684 95.1723 288.836 95.0212 288.836 94.8349V91.0562C288.836 90.8698 288.684 90.7187 288.498 90.7187H281.216C281.029 90.7187 280.878 90.8698 280.878 91.0562V94.8349C280.878 95.0212 281.029 95.1723 281.216 95.1723ZM280.54 94.8349C280.54 95.2076 280.842 95.5098 281.216 95.5098H288.498C288.871 95.5098 289.174 95.2076 289.174 94.8349V91.0562C289.174 90.6834 288.871 90.3813 288.498 90.3813H281.216C280.842 90.3813 280.54 90.6834 280.54 91.0562V94.8349Z" fill="white"/>
<path fill-rule="evenodd" clip-rule="evenodd" d="M301.861 95.0036H294.579C294.486 95.0036 294.41 94.9281 294.41 94.8349V91.0562C294.41 90.963 294.486 90.8874 294.579 90.8874H301.861C301.954 90.8874 302.03 90.963 302.03 91.0562V94.8349C302.03 94.9281 301.954 95.0036 301.861 95.0036ZM294.579 95.5098C294.206 95.5098 293.903 95.2076 293.903 94.8349V91.0562C293.903 90.6834 294.206 90.3813 294.579 90.3813H301.861C302.234 90.3813 302.537 90.6834 302.537 91.0562V94.8349C302.537 95.2076 302.234 95.5098 301.861 95.5098H294.579Z" fill="#243647"/>
<path fill-rule="evenodd" clip-rule="evenodd" d="M294.579 95.0036H301.861C301.954 95.0036 302.03 94.9281 302.03 94.8349V91.0562C302.03 90.963 301.954 90.8874 301.861 90.8874H294.579C294.486 90.8874 294.41 90.963 294.41 91.0562V94.8349C294.41 94.9281 294.486 95.0036 294.579 95.0036ZM293.903 94.8349C293.903 95.2076 294.206 95.5098 294.579 95.5098H301.861C302.234 95.5098 302.537 95.2076 302.537 94.8349V91.0562C302.537 90.6834 302.234 90.3813 301.861 90.3813H294.579C294.206 90.3813 293.903 90.6834 293.903 91.0562V94.8349Z" fill="white"/>
<path fill-rule="evenodd" clip-rule="evenodd" d="M288.498 74.2475H281.216C281.029 74.2475 280.878 74.0964 280.878 73.9101V70.1314C280.878 69.945 281.029 69.7939 281.216 69.7939H288.498C288.684 69.7939 288.836 69.945 288.836 70.1314V73.9101C288.836 74.0964 288.684 74.2475 288.498 74.2475ZM281.216 74.585C280.842 74.585 280.54 74.2828 280.54 73.9101V70.1314C280.54 69.7586 280.842 69.4565 281.216 69.4565H288.498C288.871 69.4565 289.174 69.7586 289.174 70.1314V73.9101C289.174 74.2828 288.871 74.585 288.498 74.585H281.216Z" fill="white"/>
<path fill-rule="evenodd" clip-rule="evenodd" d="M281.216 74.2475H288.498C288.684 74.2475 288.836 74.0964 288.836 73.9101V70.1314C288.836 69.945 288.684 69.7939 288.498 69.7939H281.216C281.029 69.7939 280.878 69.945 280.878 70.1314V73.9101C280.878 74.0964 281.029 74.2475 281.216 74.2475ZM280.54 73.9101C280.54 74.2828 280.842 74.585 281.216 74.585H288.498C288.871 74.585 289.174 74.2828 289.174 73.9101V70.1314C289.174 69.7586 288.871 69.4565 288.498 69.4565H281.216C280.842 69.4565 280.54 69.7586 280.54 70.1314V73.9101Z" fill="white"/>
<path d="M293.903 73.9101C293.903 74.2828 294.206 74.585 294.579 74.585H301.861C302.234 74.585 302.537 74.2828 302.537 73.9101V70.1314C302.537 69.7586 302.234 69.4565 301.861 69.4565H294.579C294.206 69.4565 293.903 69.7586 293.903 70.1314V73.9101Z" fill="#8EC9E6"/>
<path fill-rule="evenodd" clip-rule="evenodd" d="M294.903 73.5845V70.457H301.537V73.5845H294.903ZM294.579 74.585C294.206 74.585 293.903 74.2828 293.903 73.9101V70.1314C293.903 69.7586 294.206 69.4565 294.579 69.4565H301.861C302.234 69.4565 302.537 69.7586 302.537 70.1314V73.9101C302.537 74.2828 302.234 74.585 301.861 74.585H294.579Z" fill="white"/>
<path fill-rule="evenodd" clip-rule="evenodd" d="M301.861 74.2475H294.579C294.392 74.2475 294.241 74.0964 294.241 73.9101V70.1314C294.241 69.945 294.392 69.7939 294.579 69.7939H301.861C302.048 69.7939 302.199 69.945 302.199 70.1314V73.9101C302.199 74.0964 302.048 74.2475 301.861 74.2475ZM294.579 74.585C294.206 74.585 293.903 74.2828 293.903 73.9101V70.1314C293.903 69.7586 294.206 69.4565 294.579 69.4565H301.861C302.234 69.4565 302.537 69.7586 302.537 70.1314V73.9101C302.537 74.2828 302.234 74.585 301.861 74.585H294.579Z" fill="white"/>
<path fill-rule="evenodd" clip-rule="evenodd" d="M294.579 74.2475H301.861C302.048 74.2475 302.199 74.0964 302.199 73.9101V70.1314C302.199 69.945 302.048 69.7939 301.861 69.7939H294.579C294.392 69.7939 294.241 69.945 294.241 70.1314V73.9101C294.241 74.0964 294.392 74.2475 294.579 74.2475ZM293.903 73.9101C293.903 74.2828 294.206 74.585 294.579 74.585H301.861C302.234 74.585 302.537 74.2828 302.537 73.9101V70.1314C302.537 69.7586 302.234 69.4565 301.861 69.4565H294.579C294.206 69.4565 293.903 69.7586 293.903 70.1314V73.9101Z" fill="white"/>
<path d="M332.963 114.382C332.963 112.342 331.307 110.689 329.263 110.689C327.219 110.689 325.562 112.342 325.562 114.382C325.562 116.421 327.219 118.074 329.263 118.074C331.307 118.074 332.963 116.421 332.963 114.382Z" fill="#8EC9E6"/>
<path fill-rule="evenodd" clip-rule="evenodd" d="M329.263 111.69C330.756 111.69 331.963 112.897 331.963 114.382C331.963 115.866 330.756 117.074 329.263 117.074C327.77 117.074 326.563 115.866 326.563 114.382C326.563 112.897 327.77 111.69 329.263 111.69ZM329.263 110.689C331.307 110.689 332.963 112.342 332.963 114.382C332.963 116.421 331.307 118.074 329.263 118.074C327.219 118.074 325.562 116.421 325.562 114.382C325.562 112.342 327.219 110.689 329.263 110.689Z" fill="white"/>
<path fill-rule="evenodd" clip-rule="evenodd" d="M329.263 111.027C331.12 111.027 332.625 112.529 332.625 114.382C332.625 116.235 331.12 117.737 329.263 117.737C327.406 117.737 325.901 116.235 325.901 114.382C325.901 112.529 327.406 111.027 329.263 111.027ZM329.263 110.689C331.307 110.689 332.963 112.342 332.963 114.382C332.963 116.421 331.307 118.074 329.263 118.074C327.219 118.074 325.562 116.421 325.562 114.382C325.562 112.342 327.219 110.689 329.263 110.689Z" fill="white"/>
<path fill-rule="evenodd" clip-rule="evenodd" d="M332.625 114.382C332.625 112.529 331.12 111.027 329.263 111.027C327.406 111.027 325.901 112.529 325.901 114.382C325.901 116.235 327.406 117.737 329.263 117.737C331.12 117.737 332.625 116.235 332.625 114.382ZM332.963 114.382C332.963 112.342 331.307 110.689 329.263 110.689C327.219 110.689 325.562 112.342 325.562 114.382C325.562 116.421 327.219 118.074 329.263 118.074C331.307 118.074 332.963 116.421 332.963 114.382Z" fill="white"/>
<path d="M332.963 93.0477C332.963 91.0084 331.307 89.3552 329.263 89.3552C327.219 89.3552 325.562 91.0084 325.562 93.0477C325.562 95.087 327.219 96.7402 329.263 96.7402C331.307 96.7402 332.963 95.087 332.963 93.0477Z" fill="#F29111"/>
<path fill-rule="evenodd" clip-rule="evenodd" d="M329.263 90.3557C330.756 90.3557 331.963 91.5631 331.963 93.0477C331.963 94.5323 330.756 95.7397 329.263 95.7397C327.77 95.7397 326.563 94.5323 326.563 93.0477C326.563 91.5631 327.77 90.3557 329.263 90.3557ZM329.263 89.3552C331.307 89.3552 332.963 91.0084 332.963 93.0477C332.963 95.087 331.307 96.7402 329.263 96.7402C327.219 96.7402 325.562 95.087 325.562 93.0477C325.562 91.0084 327.219 89.3552 329.263 89.3552Z" fill="white"/>
<path fill-rule="evenodd" clip-rule="evenodd" d="M329.263 89.6926C331.12 89.6926 332.625 91.1948 332.625 93.0477C332.625 94.9007 331.12 96.4028 329.263 96.4028C327.406 96.4028 325.901 94.9007 325.901 93.0477C325.901 91.1948 327.406 89.6926 329.263 89.6926ZM329.263 89.3552C331.307 89.3552 332.963 91.0084 332.963 93.0477C332.963 95.087 331.307 96.7402 329.263 96.7402C327.219 96.7402 325.562 95.087 325.562 93.0477C325.562 91.0084 327.219 89.3552 329.263 89.3552Z" fill="white"/>
<path fill-rule="evenodd" clip-rule="evenodd" d="M332.625 93.0477C332.625 91.1948 331.12 89.6926 329.263 89.6926C327.406 89.6926 325.901 91.1948 325.901 93.0477C325.901 94.9007 327.406 96.4028 329.263 96.4028C331.12 96.4028 332.625 94.9007 332.625 93.0477ZM332.963 93.0477C332.963 91.0084 331.307 89.3552 329.263 89.3552C327.219 89.3552 325.562 91.0084 325.562 93.0477C325.562 95.087 327.219 96.7402 329.263 96.7402C331.307 96.7402 332.963 95.087 332.963 93.0477Z" fill="white"/>
<path d="M332.963 71.7118C332.963 69.6725 331.307 68.0193 329.263 68.0193C327.219 68.0193 325.562 69.6725 325.562 71.7118C325.562 73.7511 327.219 75.4043 329.263 75.4043C331.307 75.4043 332.963 73.7511 332.963 71.7118Z" fill="#795184"/>
<path fill-rule="evenodd" clip-rule="evenodd" d="M329.263 69.0198C330.756 69.0198 331.963 70.2272 331.963 71.7118C331.963 73.1964 330.756 74.4038 329.263 74.4038C327.77 74.4038 326.563 73.1964 326.563 71.7118C326.563 70.2272 327.77 69.0198 329.263 69.0198ZM329.263 68.0193C331.307 68.0193 332.963 69.6725 332.963 71.7118C332.963 73.7511 331.307 75.4043 329.263 75.4043C327.219 75.4043 325.562 73.7511 325.562 71.7118C325.562 69.6725 327.219 68.0193 329.263 68.0193Z" fill="white"/>
<path fill-rule="evenodd" clip-rule="evenodd" d="M329.263 68.3567C331.12 68.3567 332.625 69.8588 332.625 71.7118C332.625 73.5647 331.12 75.0668 329.263 75.0668C327.406 75.0668 325.901 73.5647 325.901 71.7118C325.901 69.8588 327.406 68.3567 329.263 68.3567ZM329.263 68.0193C331.307 68.0193 332.963 69.6725 332.963 71.7118C332.963 73.7511 331.307 75.4043 329.263 75.4043C327.219 75.4043 325.562 73.7511 325.562 71.7118C325.562 69.6725 327.219 68.0193 329.263 68.0193Z" fill="white"/>
<path fill-rule="evenodd" clip-rule="evenodd" d="M332.625 71.7118C332.625 69.8588 331.12 68.3567 329.263 68.3567C327.406 68.3567 325.901 69.8588 325.901 71.7118C325.901 73.5647 327.406 75.0668 329.263 75.0668C331.12 75.0668 332.625 73.5647 332.625 71.7118ZM332.963 71.7118C332.963 69.6725 331.307 68.0193 329.263 68.0193C327.219 68.0193 325.562 69.6725 325.562 71.7118C325.562 73.7511 327.219 75.4043 329.263 75.4043C331.307 75.4043 332.963 73.7511 332.963 71.7118Z" fill="white"/>
<path fill-rule="evenodd" clip-rule="evenodd" d="M337.088 85.5815H281.288C281.102 85.5815 280.95 85.4304 280.95 85.244V79.7752C280.95 79.5888 281.102 79.4377 281.288 79.4377H337.088C337.274 79.4377 337.426 79.5888 337.426 79.7752V85.244C337.426 85.4304 337.274 85.5815 337.088 85.5815ZM281.288 85.9189C280.915 85.9189 280.612 85.6168 280.612 85.244V79.7752C280.612 79.4024 280.915 79.1003 281.288 79.1003H337.088C337.461 79.1003 337.764 79.4024 337.764 79.7752V85.244C337.764 85.6168 337.461 85.9189 337.088 85.9189H281.288Z" fill="white"/>
<path fill-rule="evenodd" clip-rule="evenodd" d="M281.288 85.5815H337.088C337.274 85.5815 337.426 85.4304 337.426 85.244V79.7752C337.426 79.5888 337.274 79.4377 337.088 79.4377H281.288C281.102 79.4377 280.95 79.5888 280.95 79.7752V85.244C280.95 85.4304 281.102 85.5815 281.288 85.5815ZM280.612 85.244C280.612 85.6168 280.915 85.9189 281.288 85.9189H337.088C337.461 85.9189 337.764 85.6168 337.764 85.244V79.7752C337.764 79.4024 337.461 79.1003 337.088 79.1003H281.288C280.915 79.1003 280.612 79.4024 280.612 79.7752V85.244Z" fill="white"/>
<path d="M121.203 132.565H260.15C262.319 132.565 264.082 134.328 264.082 136.497V228.207C264.082 230.975 261.836 233.22 259.068 233.22H120.985C118.938 233.22 117.276 231.558 117.276 229.512V136.497C117.276 134.328 119.039 132.565 121.207 132.565H121.203Z" fill="#11181F" fill-opacity="0.9"/>
<path fill-rule="evenodd" clip-rule="evenodd" d="M260.15 133.566H121.207C119.591 133.566 118.276 134.881 118.276 136.497V229.512C118.276 231.006 119.49 232.22 120.985 232.22H259.068C261.284 232.22 263.081 230.422 263.081 228.207V136.497C263.081 134.881 261.766 133.566 260.15 133.566ZM260.15 132.565C262.319 132.565 264.082 134.328 264.082 136.497V228.207C264.082 230.975 261.836 233.22 259.068 233.22H120.985C118.938 233.22 117.276 231.558 117.276 229.512V136.497C117.276 134.33 119.037 132.568 121.203 132.565L260.15 132.565Z" fill="white"/>
<path d="M146.372 147.002H136.016V149.259H146.372V147.002Z" fill="#769CB2"/>
<path d="M141.192 157.113H136.016V159.371H141.192V157.113Z" fill="#F29111"/>
<path d="M147.204 162.201H139.913V164.459H147.204V162.201Z" fill="#769CB2"/>
<path d="M152.61 162.201H148.362V164.459H152.61V162.201Z" fill="#769CB2"/>
<path d="M190.691 162.201H181.957V164.459H190.691V162.201Z" fill="#769CB2"/>
<path d="M216.225 167.157H201.468V169.415H216.225V167.157Z" fill="#769CB2"/>
<path d="M238.993 162.201H231.905V164.459H238.993V162.201Z" fill="#769CB2"/>
<path d="M255.416 162.201H241.166V164.459H255.416V162.201Z" fill="#769CB2"/>
<path d="M147.204 167.157H139.913V169.415H147.204V167.157Z" fill="#769CB2"/>
<path d="M142.725 172.102H135.434V174.359H142.725V172.102Z" fill="#F29111"/>
<path d="M142.72 177.05H139.316V179.307H142.72V177.05Z" fill="#769CB2"/>
<path d="M155.224 187.467H151.82V189.724H155.224V187.467Z" fill="#769CB2"/>
<path d="M205.326 206.292H198.671V208.549H205.326V206.292Z" fill="#769CB2"/>
<path d="M242.509 206.292H226.204V208.549H242.509V206.292Z" fill="#769CB2"/>
<path d="M180.272 201.348H173.617V203.605H180.272V201.348Z" fill="white"/>
<path d="M156.16 197.108H149.505V199.366H156.16V197.108Z" fill="#769CB2"/>
<path d="M197.293 206.292H186.8V208.549H197.293V206.292Z" fill="#769CB2"/>
<path d="M144.844 182.088H139.316V184.345H144.844V182.088Z" fill="#769CB2"/>
<path d="M149.57 187.552H139.316V189.809H149.57V187.552Z" fill="#769CB2"/>
<path d="M154.316 191.738H139.316V193.996H154.316V191.738Z" fill="#769CB2"/>
<path d="M181.496 191.738H166.496V193.996H181.496V191.738Z" fill="#769CB2"/>
<path d="M170.435 201.348H149.372V203.605H170.435V201.348Z" fill="#769CB2"/>
<path d="M184.997 206.292H149.372V208.549H184.997V206.292Z" fill="#769CB2"/>
<path d="M174.221 211.232H138.595V213.49H174.221V211.232Z" fill="#769CB2"/>
<path d="M164.899 191.738H155.901V193.996H164.899V191.738Z" fill="#769CB2"/>
<path d="M153.352 177.05H144.067V179.307H153.352V177.05Z" fill="#769CB2"/>
<path d="M155.398 182.088H146.112V184.345H155.398V182.088Z" fill="#769CB2"/>
<path d="M191.376 182.088H166.787V184.345H191.376V182.088Z" fill="#769CB2"/>
<path d="M220.444 182.088H192.045V184.345H220.444V182.088Z" fill="#769CB2"/>
<path d="M164.61 182.088H156.925V184.345H164.61V182.088Z" fill="#769CB2"/>
<path d="M166.795 177.05H154.624V179.307H166.795V177.05Z" fill="#769CB2"/>
<path d="M174.917 177.05H168.141V179.307H174.917V177.05Z" fill="white"/>
<path d="M155.961 167.157H148.362V169.415H155.961V167.157Z" fill="#769CB2"/>
<path d="M198.652 167.157H161.125V169.415H198.652V167.157Z" fill="#769CB2"/>
<path d="M240.778 182.088H223.034V184.345H240.778V182.088Z" fill="#769CB2"/>
<path d="M224.8 206.292H207.057V208.549H224.8V206.292Z" fill="#769CB2"/>
<path d="M229.145 162.201H192.178V164.459H229.145V162.201Z" fill="#769CB2"/>
<path d="M179.659 162.201H153.935V164.459H179.659V162.201Z" fill="#769CB2"/>
<path d="M153.335 151.789H136.016V154.047H153.335V151.789Z" fill="#769CB2"/>
<path d="M178.776 151.789H155.062V154.047H178.776V151.789Z" fill="#769CB2"/>
<path d="M155.613 147.002H147.99V149.259H155.613V147.002Z" fill="white"/>
<path d="M128.113 148.165V148.096C128.113 147.492 127.623 147.002 127.019 147.002C126.415 147.002 125.925 147.492 125.925 148.096V148.165C125.925 148.769 126.415 149.259 127.019 149.259C127.623 149.259 128.113 148.769 128.113 148.165Z" fill="#F29111"/>
<path d="M128.113 153.105V153.037C128.113 152.432 127.623 151.942 127.019 151.942C126.415 151.942 125.925 152.432 125.925 153.037V153.105C125.925 153.71 126.415 154.2 127.019 154.2C127.623 154.2 128.113 153.71 128.113 153.105Z" fill="#F29111"/>
<path d="M128.113 158.046V157.977C128.113 157.373 127.623 156.883 127.019 156.883C126.415 156.883 125.925 157.373 125.925 157.977V158.046C125.925 158.65 126.415 159.14 127.019 159.14C127.623 159.14 128.113 158.65 128.113 158.046Z" fill="#F29111"/>
<path d="M128.113 162.987V162.919C128.113 162.314 127.623 161.824 127.019 161.824C126.415 161.824 125.925 162.314 125.925 162.919V162.987C125.925 163.592 126.415 164.082 127.019 164.082C127.623 164.082 128.113 163.592 128.113 162.987Z" fill="#F29111"/>
<path d="M128.113 167.927V167.858C128.113 167.254 127.623 166.764 127.019 166.764C126.415 166.764 125.925 167.254 125.925 167.858V167.927C125.925 168.531 126.415 169.021 127.019 169.021C127.623 169.021 128.113 168.531 128.113 167.927Z" fill="#F29111"/>
<path d="M128.113 172.868V172.8C128.113 172.195 127.623 171.705 127.019 171.705C126.415 171.705 125.925 172.195 125.925 172.8V172.868C125.925 173.473 126.415 173.963 127.019 173.963C127.623 173.963 128.113 173.473 128.113 172.868Z" fill="#F29111"/>
<path d="M128.113 177.808V177.739C128.113 177.135 127.623 176.645 127.019 176.645C126.415 176.645 125.925 177.135 125.925 177.739V177.808C125.925 178.412 126.415 178.902 127.019 178.902C127.623 178.902 128.113 178.412 128.113 177.808Z" fill="#F29111"/>
<path d="M128.113 182.749V182.68C128.113 182.076 127.623 181.586 127.019 181.586C126.415 181.586 125.925 182.076 125.925 182.68V182.749C125.925 183.353 126.415 183.843 127.019 183.843C127.623 183.843 128.113 183.353 128.113 182.749Z" fill="#F29111"/>
<path d="M128.113 187.689V187.621C128.113 187.016 127.623 186.526 127.019 186.526C126.415 186.526 125.925 187.016 125.925 187.621V187.689C125.925 188.294 126.415 188.784 127.019 188.784C127.623 188.784 128.113 188.294 128.113 187.689Z" fill="#F29111"/>
<path d="M154.388 221.904H150.984V224.162H154.388V221.904Z" fill="white"/>
<path d="M148.914 221.904H138.66V224.162H148.914V221.904Z" fill="#F29111"/>
<path d="M128.113 222.815V222.747C128.113 222.142 127.623 221.652 127.019 221.652C126.415 221.652 125.925 222.142 125.925 222.747V222.815C125.925 223.42 126.415 223.91 127.019 223.91C127.623 223.91 128.113 223.42 128.113 222.815Z" fill="#F29111"/>
<path d="M128.113 192.63V192.561C128.113 191.957 127.623 191.467 127.019 191.467C126.415 191.467 125.925 191.957 125.925 192.561V192.63C125.925 193.234 126.415 193.724 127.019 193.724C127.623 193.724 128.113 193.234 128.113 192.63Z" fill="#F29111"/>
<path d="M128.113 197.57V197.502C128.113 196.897 127.623 196.407 127.019 196.407C126.415 196.407 125.925 196.897 125.925 197.502V197.57C125.925 198.175 126.415 198.665 127.019 198.665C127.623 198.665 128.113 198.175 128.113 197.57Z" fill="#F29111"/>
<path d="M128.113 202.511V202.442C128.113 201.838 127.623 201.348 127.019 201.348C126.415 201.348 125.925 201.838 125.925 202.442V202.511C125.925 203.115 126.415 203.605 127.019 203.605C127.623 203.605 128.113 203.115 128.113 202.511Z" fill="#F29111"/>
<path d="M128.113 207.455V207.386C128.113 206.782 127.623 206.292 127.019 206.292C126.415 206.292 125.925 206.782 125.925 207.386V207.455C125.925 208.059 126.415 208.549 127.019 208.549C127.623 208.549 128.113 208.059 128.113 207.455Z" fill="#F29111"/>
<path d="M128.113 212.395V212.327C128.113 211.722 127.623 211.232 127.019 211.232C126.415 211.232 125.925 211.722 125.925 212.327V212.395C125.925 213 126.415 213.49 127.019 213.49C127.623 213.49 128.113 213 128.113 212.395Z" fill="#F29111"/>
<path d="M148.983 216.429H138.595V218.686H148.983V216.429Z" fill="#769CB2"/>
<path d="M174.479 216.429H150.984V218.686H174.479V216.429Z" fill="#769CB2"/>
<path d="M128.113 217.592V217.523C128.113 216.919 127.623 216.429 127.019 216.429C126.415 216.429 125.925 216.919 125.925 217.523V217.592C125.925 218.196 126.415 218.686 127.019 218.686C127.623 218.686 128.113 218.196 128.113 217.592Z" fill="#F29111"/>
<path d="M189.297 151.772H181.674V154.03H189.297V151.772Z" fill="white"/>
<path d="M125.467 140.627C126.324 140.627 127.019 139.932 127.019 139.075C127.019 138.217 126.324 137.522 125.467 137.522C124.61 137.522 123.915 138.217 123.915 139.075C123.915 139.932 124.61 140.627 125.467 140.627Z" fill="#8EC9E6"/>
<path d="M129.772 140.627C130.629 140.627 131.324 139.932 131.324 139.075C131.324 138.217 130.629 137.522 129.772 137.522C128.914 137.522 128.219 138.217 128.219 139.075C128.219 139.932 128.914 140.627 129.772 140.627Z" fill="#F29111"/>
<path d="M134.076 140.627C134.933 140.627 135.628 139.932 135.628 139.075C135.628 138.217 134.933 137.522 134.076 137.522C133.219 137.522 132.524 138.217 132.524 139.075C132.524 139.932 133.219 140.627 134.076 140.627Z" fill="white"/>
<path d="M131.977 146.357C132.034 146.357 132.082 165.795 132.082 189.764C132.082 213.733 132.034 233.175 131.977 233.175C131.92 233.175 131.872 213.742 131.872 189.764C131.872 165.787 131.92 146.357 131.977 146.357Z" fill="#455A64"/>
<g filter="url(#filter8_d_2582_7457)">
<path d="M215.311 165.582C215.311 163.372 217.102 161.58 219.312 161.58H296.352C298.562 161.58 300.353 163.372 300.353 165.582V242.621C300.353 244.831 298.562 246.623 296.352 246.623H219.312C217.102 246.623 215.311 244.831 215.311 242.621V165.582Z" fill="#11181F" fill-opacity="0.8"/>
</g>
<g filter="url(#filter9_d_2582_7457)">
<path fill-rule="evenodd" clip-rule="evenodd" d="M296.352 162.581H219.312C217.655 162.581 216.311 163.924 216.311 165.582V242.621C216.311 244.278 217.655 245.622 219.312 245.622H296.352C298.009 245.622 299.353 244.278 299.353 242.621V165.582C299.353 163.924 298.009 162.581 296.352 162.581ZM219.312 161.58C217.102 161.58 215.311 163.372 215.311 165.582V242.621C215.311 244.831 217.102 246.623 219.312 246.623H296.352C298.562 246.623 300.353 244.831 300.353 242.621V165.582C300.353 163.372 298.562 161.58 296.352 161.58H219.312Z" fill="white"/>
</g>
<path d="M251.98 234.714C263.078 235.419 280.118 234.324 280.522 229.117C280.522 229.117 279.746 231.089 271.35 232.657C261.88 234.425 250.198 234.22 243.267 233.088C243.267 233.088 244.686 234.251 251.98 234.714" fill="white"/>
<path d="M249.709 221.056C249.709 221.056 247.355 222.414 251.387 222.872C256.268 223.424 258.773 223.348 264.147 222.337C265.226 222.979 266.358 223.527 267.532 223.976C255.471 229.104 240.233 223.671 249.706 221.056" fill="white"/>
<path d="M248.233 214.366C248.233 214.366 245.596 216.317 249.627 216.72C254.841 217.251 258.962 217.296 266.089 215.935C266.82 216.611 267.683 217.131 268.625 217.461C254.041 221.691 237.797 217.794 248.233 214.36" fill="white"/>
<path d="M260.677 203.015C263.65 206.408 259.895 209.464 259.895 209.464C259.895 209.464 267.426 205.6 263.961 200.75C260.723 196.236 258.243 193.996 271.68 186.266C271.68 186.266 250.586 191.491 260.662 203.003" fill="#F29111"/>
<path d="M276.617 226.003C276.617 226.003 278.359 227.428 274.697 228.53C267.735 230.621 245.718 231.253 239.612 228.613C237.414 227.663 241.538 226.348 242.834 226.07C243.53 225.902 244.245 225.823 244.961 225.835C242.499 224.126 229.157 229.192 238.19 230.639C262.783 234.607 283.025 228.857 276.66 226.003" fill="white"/>
<path d="M250.83 207.435C250.83 207.435 239.63 210.072 246.863 211.03C249.919 211.436 256.006 211.335 261.678 210.872C266.313 210.484 270.966 209.651 270.966 209.651C269.988 210.072 269.046 210.572 268.15 211.146C256.763 214.113 234.808 212.73 241.132 209.696C246.493 207.142 250.83 207.435 250.83 207.435Z" fill="white"/>
<path d="M270.933 218.569C282.493 212.612 277.15 206.886 273.417 207.658C272.968 207.741 272.526 207.859 272.096 208.012C272.341 207.667 272.685 207.403 273.084 207.256C280.471 204.683 286.14 214.846 270.699 218.871C270.797 218.786 270.876 218.682 270.933 218.566" fill="white"/>
<path d="M263.962 173.799C263.962 173.799 270.366 180.15 257.89 189.916C247.884 197.751 255.609 202.219 257.89 207.312C252.061 202.097 247.752 197.497 250.636 193.215C254.855 186.934 266.547 183.886 263.962 173.799" fill="#F29111"/>
<defs>
<filter id="filter0_d_2582_7457" x="261.332" y="73.6094" width="100.023" height="46.877" filterUnits="userSpaceOnUse" color-interpolation-filters="sRGB">
<feFlood flood-opacity="0" result="BackgroundImageFix"/>
<feColorMatrix in="SourceAlpha" type="matrix" values="0 0 0 0 0 0 0 0 0 0 0 0 0 0 0 0 0 0 127 0" result="hardAlpha"/>
<feOffset dx="2" dy="4"/>
<feGaussianBlur stdDeviation="8"/>
<feColorMatrix type="matrix" values="0 0 0 0 0 0 0 0 0 0 0 0 0 0 0 0 0 0 0.25 0"/>
<feBlend mode="normal" in2="BackgroundImageFix" result="effect1_dropShadow_2582_7457"/>
<feBlend mode="normal" in="SourceGraphic" in2="effect1_dropShadow_2582_7457" result="shape"/>
</filter>
<filter id="filter1_d_2582_7457" x="261.332" y="73.6094" width="100.023" height="46.877" filterUnits="userSpaceOnUse" color-interpolation-filters="sRGB">
<feFlood flood-opacity="0" result="BackgroundImageFix"/>
<feColorMatrix in="SourceAlpha" type="matrix" values="0 0 0 0 0 0 0 0 0 0 0 0 0 0 0 0 0 0 127 0" result="hardAlpha"/>
<feOffset dx="2" dy="4"/>
<feGaussianBlur stdDeviation="8"/>
<feColorMatrix type="matrix" values="0 0 0 0 0 0 0 0 0 0 0 0 0 0 0 0 0 0 0.25 0"/>
<feBlend mode="normal" in2="BackgroundImageFix" result="effect1_dropShadow_2582_7457"/>
<feBlend mode="normal" in="SourceGraphic" in2="effect1_dropShadow_2582_7457" result="shape"/>
</filter>
<filter id="filter2_d_2582_7457" x="261.332" y="73.6094" width="100.023" height="46.877" filterUnits="userSpaceOnUse" color-interpolation-filters="sRGB">
<feFlood flood-opacity="0" result="BackgroundImageFix"/>
<feColorMatrix in="SourceAlpha" type="matrix" values="0 0 0 0 0 0 0 0 0 0 0 0 0 0 0 0 0 0 127 0" result="hardAlpha"/>
<feOffset dx="2" dy="4"/>
<feGaussianBlur stdDeviation="8"/>
<feColorMatrix type="matrix" values="0 0 0 0 0 0 0 0 0 0 0 0 0 0 0 0 0 0 0.25 0"/>
<feBlend mode="normal" in2="BackgroundImageFix" result="effect1_dropShadow_2582_7457"/>
<feBlend mode="normal" in="SourceGraphic" in2="effect1_dropShadow_2582_7457" result="shape"/>
</filter>
<filter id="filter3_d_2582_7457" x="261.332" y="73.6094" width="100.023" height="46.877" filterUnits="userSpaceOnUse" color-interpolation-filters="sRGB">
<feFlood flood-opacity="0" result="BackgroundImageFix"/>
<feColorMatrix in="SourceAlpha" type="matrix" values="0 0 0 0 0 0 0 0 0 0 0 0 0 0 0 0 0 0 127 0" result="hardAlpha"/>
<feOffset dx="2" dy="4"/>
<feGaussianBlur stdDeviation="8"/>
<feColorMatrix type="matrix" values="0 0 0 0 0 0 0 0 0 0 0 0 0 0 0 0 0 0 0.25 0"/>
<feBlend mode="normal" in2="BackgroundImageFix" result="effect1_dropShadow_2582_7457"/>
<feBlend mode="normal" in="SourceGraphic" in2="effect1_dropShadow_2582_7457" result="shape"/>
</filter>
<filter id="filter4_d_2582_7457" x="261.332" y="94.6846" width="100.023" height="46.877" filterUnits="userSpaceOnUse" color-interpolation-filters="sRGB">
<feFlood flood-opacity="0" result="BackgroundImageFix"/>
<feColorMatrix in="SourceAlpha" type="matrix" values="0 0 0 0 0 0 0 0 0 0 0 0 0 0 0 0 0 0 127 0" result="hardAlpha"/>
<feOffset dx="2" dy="4"/>
<feGaussianBlur stdDeviation="8"/>
<feColorMatrix type="matrix" values="0 0 0 0 0 0 0 0 0 0 0 0 0 0 0 0 0 0 0.25 0"/>
<feBlend mode="normal" in2="BackgroundImageFix" result="effect1_dropShadow_2582_7457"/>
<feBlend mode="normal" in="SourceGraphic" in2="effect1_dropShadow_2582_7457" result="shape"/>
</filter>
<filter id="filter5_d_2582_7457" x="261.332" y="94.6846" width="100.023" height="46.877" filterUnits="userSpaceOnUse" color-interpolation-filters="sRGB">
<feFlood flood-opacity="0" result="BackgroundImageFix"/>
<feColorMatrix in="SourceAlpha" type="matrix" values="0 0 0 0 0 0 0 0 0 0 0 0 0 0 0 0 0 0 127 0" result="hardAlpha"/>
<feOffset dx="2" dy="4"/>
<feGaussianBlur stdDeviation="8"/>
<feColorMatrix type="matrix" values="0 0 0 0 0 0 0 0 0 0 0 0 0 0 0 0 0 0 0.25 0"/>
<feBlend mode="normal" in2="BackgroundImageFix" result="effect1_dropShadow_2582_7457"/>
<feBlend mode="normal" in="SourceGraphic" in2="effect1_dropShadow_2582_7457" result="shape"/>
</filter>
<filter id="filter6_d_2582_7457" x="261.332" y="52.5322" width="100.023" height="46.877" filterUnits="userSpaceOnUse" color-interpolation-filters="sRGB">
<feFlood flood-opacity="0" result="BackgroundImageFix"/>
<feColorMatrix in="SourceAlpha" type="matrix" values="0 0 0 0 0 0 0 0 0 0 0 0 0 0 0 0 0 0 127 0" result="hardAlpha"/>
<feOffset dx="2" dy="4"/>
<feGaussianBlur stdDeviation="8"/>
<feColorMatrix type="matrix" values="0 0 0 0 0 0 0 0 0 0 0 0 0 0 0 0 0 0 0.25 0"/>
<feBlend mode="normal" in2="BackgroundImageFix" result="effect1_dropShadow_2582_7457"/>
<feBlend mode="normal" in="SourceGraphic" in2="effect1_dropShadow_2582_7457" result="shape"/>
</filter>
<filter id="filter7_d_2582_7457" x="261.332" y="52.5322" width="100.023" height="46.877" filterUnits="userSpaceOnUse" color-interpolation-filters="sRGB">
<feFlood flood-opacity="0" result="BackgroundImageFix"/>
<feColorMatrix in="SourceAlpha" type="matrix" values="0 0 0 0 0 0 0 0 0 0 0 0 0 0 0 0 0 0 127 0" result="hardAlpha"/>
<feOffset dx="2" dy="4"/>
<feGaussianBlur stdDeviation="8"/>
<feColorMatrix type="matrix" values="0 0 0 0 0 0 0 0 0 0 0 0 0 0 0 0 0 0 0.25 0"/>
<feBlend mode="normal" in2="BackgroundImageFix" result="effect1_dropShadow_2582_7457"/>
<feBlend mode="normal" in="SourceGraphic" in2="effect1_dropShadow_2582_7457" result="shape"/>
</filter>
<filter id="filter8_d_2582_7457" x="201.311" y="149.58" width="117.042" height="117.043" filterUnits="userSpaceOnUse" color-interpolation-filters="sRGB">
<feFlood flood-opacity="0" result="BackgroundImageFix"/>
<feColorMatrix in="SourceAlpha" type="matrix" values="0 0 0 0 0 0 0 0 0 0 0 0 0 0 0 0 0 0 127 0" result="hardAlpha"/>
<feOffset dx="2" dy="4"/>
<feGaussianBlur stdDeviation="8"/>
<feColorMatrix type="matrix" values="0 0 0 0 0 0 0 0 0 0 0 0 0 0 0 0 0 0 0.25 0"/>
<feBlend mode="normal" in2="BackgroundImageFix" result="effect1_dropShadow_2582_7457"/>
<feBlend mode="normal" in="SourceGraphic" in2="effect1_dropShadow_2582_7457" result="shape"/>
</filter>
<filter id="filter9_d_2582_7457" x="201.311" y="149.58" width="117.042" height="117.043" filterUnits="userSpaceOnUse" color-interpolation-filters="sRGB">
<feFlood flood-opacity="0" result="BackgroundImageFix"/>
<feColorMatrix in="SourceAlpha" type="matrix" values="0 0 0 0 0 0 0 0 0 0 0 0 0 0 0 0 0 0 127 0" result="hardAlpha"/>
<feOffset dx="2" dy="4"/>
<feGaussianBlur stdDeviation="8"/>
<feColorMatrix type="matrix" values="0 0 0 0 0 0 0 0 0 0 0 0 0 0 0 0 0 0 0.25 0"/>
<feBlend mode="normal" in2="BackgroundImageFix" result="effect1_dropShadow_2582_7457"/>
<feBlend mode="normal" in="SourceGraphic" in2="effect1_dropShadow_2582_7457" result="shape"/>
</filter>
<linearGradient id="paint0_linear_2582_7457" x1="242.585" y1="384.192" x2="242.585" y2="2.50098" gradientUnits="userSpaceOnUse">
<stop offset="0.114787" stop-color="white" stop-opacity="0.3"/>
<stop offset="0.959726" stop-color="white" stop-opacity="0"/>
</linearGradient>
<linearGradient id="paint1_linear_2582_7457" x1="30.5107" y1="195.598" x2="118.168" y2="195.121" gradientUnits="userSpaceOnUse">
<stop stop-color="#8EC9E6" stop-opacity="0"/>
<stop offset="1" stop-color="#8EC9E6"/>
</linearGradient>
<linearGradient id="paint2_linear_2582_7457" x1="103.162" y1="164.572" x2="0.235193" y2="164.582" gradientUnits="userSpaceOnUse">
<stop stop-color="#8EC9E6"/>
<stop offset="1" stop-color="#8EC9E6" stop-opacity="0"/>
</linearGradient>
<linearGradient id="paint3_linear_2582_7457" x1="93.3327" y1="182.382" x2="40.5141" y2="182.591" gradientUnits="userSpaceOnUse">
<stop stop-color="#8EC9E6"/>
<stop offset="1" stop-color="#8EC9E6" stop-opacity="0"/>
</linearGradient>
<linearGradient id="paint4_linear_2582_7457" x1="69.7116" y1="155.156" x2="205.825" y2="155.156" gradientUnits="userSpaceOnUse">
<stop stop-color="#8EC9E6" stop-opacity="0"/>
<stop offset="0.382665" stop-color="#8EC9E6"/>
</linearGradient>
<linearGradient id="paint5_linear_2582_7457" x1="118.065" y1="133.935" x2="30.5107" y2="133.567" gradientUnits="userSpaceOnUse">
<stop stop-color="#8EC9E6"/>
<stop offset="1" stop-color="#8EC9E6" stop-opacity="0"/>
</linearGradient>
<linearGradient id="paint6_linear_2582_7457" x1="145.051" y1="110.555" x2="45.5159" y2="110.555" gradientUnits="userSpaceOnUse">
<stop stop-color="#8EC9E6"/>
<stop offset="1" stop-color="#8EC9E6" stop-opacity="0"/>
</linearGradient>
<linearGradient id="paint7_linear_2582_7457" x1="308.715" y1="191.17" x2="448.9" y2="191.17" gradientUnits="userSpaceOnUse">
<stop stop-color="#8EC9E6"/>
<stop offset="1" stop-color="#8EC9E6" stop-opacity="0"/>
</linearGradient>
<linearGradient id="paint8_linear_2582_7457" x1="308.715" y1="170.964" x2="448.9" y2="170.964" gradientUnits="userSpaceOnUse">
<stop stop-color="#8EC9E6"/>
<stop offset="1" stop-color="#8EC9E6" stop-opacity="0"/>
</linearGradient>
<linearGradient id="paint9_linear_2582_7457" x1="368.364" y1="184.092" x2="440.389" y2="184.092" gradientUnits="userSpaceOnUse">
<stop stop-color="#8EC9E6"/>
<stop offset="1" stop-color="#8EC9E6" stop-opacity="0"/>
</linearGradient>
<linearGradient id="paint10_linear_2582_7457" x1="308.715" y1="156.741" x2="448.5" y2="156.741" gradientUnits="userSpaceOnUse">
<stop stop-color="#8EC9E6"/>
<stop offset="1" stop-color="#8EC9E6" stop-opacity="0"/>
</linearGradient>
<linearGradient id="paint11_linear_2582_7457" x1="308.921" y1="144.456" x2="448.9" y2="144.456" gradientUnits="userSpaceOnUse">
<stop stop-color="#8EC9E6"/>
<stop offset="1" stop-color="#8EC9E6" stop-opacity="0"/>
</linearGradient>
<linearGradient id="paint12_linear_2582_7457" x1="308.921" y1="121.333" x2="449.5" y2="121.333" gradientUnits="userSpaceOnUse">
<stop stop-color="#8EC9E6"/>
<stop offset="1" stop-color="#8EC9E6" stop-opacity="0"/>
</linearGradient>
<linearGradient id="paint13_linear_2582_7457" x1="308.921" y1="94.4618" x2="448.9" y2="94.4618" gradientUnits="userSpaceOnUse">
<stop stop-color="#8EC9E6"/>
<stop offset="1" stop-color="#8EC9E6" stop-opacity="0"/>
</linearGradient>
<linearGradient id="paint14_linear_2582_7457" x1="30.2457" y1="79.5392" x2="146.286" y2="79.5392" gradientUnits="userSpaceOnUse">
<stop stop-color="#8EC9E6" stop-opacity="0"/>
<stop offset="1" stop-color="#8EC9E6" stop-opacity="0.7"/>
</linearGradient>
</defs>
</svg>
