<svg width="243" height="181" viewBox="0 0 243 181" fill="none" xmlns="http://www.w3.org/2000/svg">
<g clip-path="url(#clip0_2197_2233)">
<path d="M131.139 136.751C131.911 136.205 132.747 135.77 133.618 135.453L133.957 132.887L138.231 132.497L139.032 134.961C139.944 135.115 140.844 135.39 141.705 135.789L143.764 134.213L147.062 136.952L145.884 139.257C146.431 140.03 146.867 140.861 147.184 141.731L149.755 142.069L150.146 146.336L147.677 147.135C147.523 148.046 147.248 148.944 146.848 149.804L148.426 151.859L145.682 155.151L143.37 153.975C142.599 154.521 141.763 154.956 140.892 155.273L140.553 157.839L136.278 158.229L135.478 155.765C134.565 155.611 133.666 155.336 132.804 154.937L130.746 156.513L127.448 153.774L128.626 151.466C128.078 150.696 127.643 149.862 127.326 148.992L124.755 148.653L124.364 144.387L126.833 143.584C126.987 142.673 127.262 141.775 127.662 140.916L126.084 138.861L128.828 135.569L131.139 136.745V136.751ZM133.842 142.274C132.215 144.227 132.481 147.122 134.437 148.746C136.39 150.37 139.294 150.104 140.921 148.152C142.548 146.202 142.282 143.303 140.325 141.679C138.372 140.056 135.468 140.321 133.842 142.274Z" fill="#F29111"/>
<path d="M156.153 152.411C156.512 152.158 156.901 151.954 157.304 151.807L157.463 150.614L159.449 150.432L159.821 151.575C160.246 151.646 160.664 151.774 161.062 151.959L162.018 151.227L163.551 152.501L163.005 153.571C163.262 153.929 163.463 154.317 163.61 154.719L164.806 154.878L164.989 156.86L163.843 157.231C163.772 157.655 163.644 158.072 163.459 158.47L164.192 159.424L162.918 160.953L161.845 160.409C161.487 160.662 161.098 160.866 160.695 161.012L160.536 162.206L158.55 162.388L158.177 161.244C157.753 161.173 157.335 161.045 156.936 160.861L155.98 161.592L154.448 160.319L154.993 159.248C154.739 158.891 154.535 158.503 154.388 158.1L153.192 157.942L153.01 155.96L154.156 155.588C154.227 155.164 154.355 154.748 154.54 154.35L153.807 153.396L155.083 151.866L156.156 152.413L156.153 152.411ZM157.409 154.975C156.654 155.882 156.777 157.227 157.684 157.982C158.592 158.735 159.94 158.612 160.697 157.707C161.451 156.8 161.328 155.456 160.422 154.7C159.513 153.947 158.165 154.071 157.409 154.975Z" fill="white"/>
<path d="M58.721 29.148C59.4895 28.6032 60.3149 28.1718 61.1795 27.8581L61.5157 25.3087L65.7603 24.9209L66.555 27.3656C67.4633 27.5181 68.3542 27.7927 69.2057 28.1892L71.2494 26.6248L74.5245 29.3441L73.3542 31.6319C73.9 32.3989 74.3323 33.2225 74.6467 34.0853L77.2013 34.4209L77.59 38.6567L75.1402 39.4498C74.9874 40.3562 74.7123 41.2452 74.3149 42.095L75.8826 44.1344L73.1577 47.4028L70.8651 46.2349C70.0965 46.7796 69.2712 47.211 68.4066 47.5248L68.0703 50.0741L63.8258 50.462L63.031 48.0172C62.1227 47.8647 61.2319 47.5902 60.3804 47.1936L58.3367 48.7581L55.0616 46.0388L56.2319 43.7509C55.686 42.984 55.2537 42.1603 54.9393 41.2975L52.3847 40.962L51.9961 36.7262L54.4459 35.9331C54.5987 35.0266 54.8738 34.1376 55.2712 33.2879L53.7035 31.2484L56.4284 27.9801L58.721 29.148ZM61.4022 34.6301C59.7865 36.5649 60.0529 39.4411 61.9917 41.0535C63.9306 42.6659 66.8127 42.4 68.4284 40.4652C70.0441 38.5303 69.7778 35.6542 67.8389 34.0418C65.9 32.4294 63.0179 32.6952 61.4022 34.6301Z" fill="white"/>
<path d="M26.7229 59.8459L26.9918 59.9825L27.238 59.8083C27.6149 59.5417 28.0226 59.3306 28.4463 59.1752L28.7301 59.0711L28.7698 58.7715L28.8995 57.7927L30.392 57.6555L30.6967 58.5934L30.7903 58.8815L31.089 58.9319C31.5359 59.0074 31.973 59.1407 32.3924 59.3361L32.6668 59.464L32.9073 59.2801L33.6931 58.6791L34.844 59.6355L34.3961 60.5146L34.2587 60.7842L34.4339 61.031C34.7009 61.4071 34.9123 61.814 35.0679 62.2368L35.1722 62.5202L35.4717 62.5598L36.4528 62.6894L36.59 64.1772L35.6504 64.4814L35.3621 64.5748L35.3115 64.8736C35.236 65.3196 35.1024 65.7554 34.9072 66.1709L34.7777 66.4465L34.963 66.688L35.5641 67.4712L34.6063 68.6198L33.7242 68.1719L33.4553 68.0354L33.2091 68.2095C32.8322 68.4761 32.4245 68.6873 32.0008 68.8426L31.717 68.9467L31.6773 69.2464L31.5476 70.2252L30.0551 70.3623L29.7504 69.4244L29.6568 69.1363L29.3581 69.0859C28.9112 69.0105 28.4741 68.8771 28.0547 68.6817L27.7803 68.5539L27.5398 68.7378L26.754 69.3387L25.6031 68.3823L26.051 67.5033L26.1884 67.2337L26.0132 66.9869C25.7454 66.6095 25.5323 66.2031 25.38 65.7832L25.2764 65.4978L24.9754 65.4581L23.9943 65.3285L23.8571 63.8406L24.7967 63.5364L25.085 63.443L25.1356 63.1442C25.2111 62.6983 25.3447 62.2625 25.5399 61.8469L25.6694 61.5714L25.4841 61.3298L24.883 60.5467L25.8408 59.3981L26.7229 59.8459ZM28.0132 62.0367C26.9654 63.293 27.1364 65.1603 28.3946 66.206C29.6522 67.2513 31.5214 67.0811 32.5688 65.8253C33.6166 64.569 33.4456 62.7017 32.1874 61.6559C30.9297 60.6107 29.0605 60.7809 28.0132 62.0367Z" stroke="#F29111"/>
<path d="M35.9167 75.0404C36.6241 74.5393 37.3883 74.1427 38.1831 73.8507L38.4931 71.5019L42.4058 71.1445L43.1394 73.3975C43.9735 73.537 44.7988 73.7897 45.5848 74.1558L47.4669 72.7133L50.4888 75.2234L49.4102 77.3326C49.9124 78.0386 50.3097 78.8012 50.6023 79.5943L52.956 79.9037L53.3141 83.8083L51.0565 84.5404C50.9167 85.3727 50.6635 86.1964 50.2966 86.9808L51.7421 88.859L49.2311 91.8746L47.1176 90.7982C46.4102 91.2994 45.646 91.6959 44.8512 91.9879L44.5412 94.3367L40.6285 94.6941L39.8949 92.4411C39.0608 92.3016 38.2355 92.0489 37.4495 91.6828L35.5674 93.1253L32.5455 90.6152L33.6241 88.506C33.122 87.8 32.7246 87.0374 32.432 86.2443L30.0783 85.9349L29.7202 82.0303L31.9779 81.2982C32.1176 80.4659 32.3709 79.6422 32.7377 78.8578L31.2923 76.9796L33.8032 73.964L35.9167 75.0404ZM38.3927 80.0955C36.9036 81.8822 37.1482 84.5317 38.9386 86.0177C40.7289 87.5037 43.384 87.2597 44.8731 85.473C46.3621 83.6863 46.1176 81.0367 44.3272 79.5507C42.5368 78.0647 39.8818 78.3088 38.3927 80.0955Z" fill="#CBEEFF"/>
<path d="M45.8828 38.7949H195.586C197.647 38.7949 199.322 40.4677 199.322 42.522V141.13C199.322 143.829 197.127 146.021 194.42 146.021H45.6426C43.7125 146.021 42.147 144.457 42.147 142.533V42.522C42.147 40.4677 43.8217 38.7949 45.8828 38.7949Z" fill="#11181F" fill-opacity="0.9" stroke="white"/>
<path d="M72.9956 53.8174H61.8384V56.2447H72.9956V53.8174Z" fill="#769CB2"/>
<path d="M67.4148 64.6904H61.8384V67.1177H67.4148V64.6904Z" fill="#F29111"/>
<path d="M73.8923 70.1592H66.0364V72.5865H73.8923V70.1592Z" fill="#769CB2"/>
<path d="M79.7166 70.1592H75.1401V72.5865H79.7166V70.1592Z" fill="#769CB2"/>
<path d="M120.747 70.1592H111.337V72.5865H120.747V70.1592Z" fill="#769CB2"/>
<path d="M148.259 75.4883H132.359V77.9156H148.259V75.4883Z" fill="#769CB2"/>
<path d="M172.79 70.1592H165.153V72.5865H172.79V70.1592Z" fill="#769CB2"/>
<path d="M190.486 70.1592H175.132V72.5865H190.486V70.1592Z" fill="#769CB2"/>
<path d="M73.8923 75.4883H66.0364V77.9156H73.8923V75.4883Z" fill="#769CB2"/>
<path d="M69.0666 80.8057H61.2107V83.233H69.0666V80.8057Z" fill="#F29111"/>
<path d="M69.0614 86.126H65.3933V88.5533H69.0614V86.126Z" fill="#769CB2"/>
<path d="M82.5338 97.3252H78.8657V99.7525H82.5338V97.3252Z" fill="#769CB2"/>
<path d="M136.515 117.567H129.345V119.995H136.515V117.567Z" fill="#769CB2"/>
<path d="M176.578 117.567H159.01V119.995H176.578V117.567Z" fill="#769CB2"/>
<path d="M109.521 112.251H102.351V114.678H109.521V112.251Z" fill="white"/>
<path d="M83.5421 107.692H76.3718V110.12H83.5421V107.692Z" fill="#769CB2"/>
<path d="M127.861 117.567H116.555V119.995H127.861V117.567Z" fill="#769CB2"/>
<path d="M71.3496 91.543H65.3933V93.9703H71.3496V91.543Z" fill="#769CB2"/>
<path d="M76.4413 97.417H65.3933V99.8443H76.4413V97.417Z" fill="#769CB2"/>
<path d="M81.5549 101.919H65.3933V104.346H81.5549V101.919Z" fill="#769CB2"/>
<path d="M110.84 101.919H94.6782V104.346H110.84V101.919Z" fill="#769CB2"/>
<path d="M98.9228 112.251H76.2285V114.678H98.9228V112.251Z" fill="#769CB2"/>
<path d="M114.613 117.567H76.2285V119.995H114.613V117.567Z" fill="#769CB2"/>
<path d="M103.001 122.88H64.6172V125.307H103.001V122.88Z" fill="#769CB2"/>
<path d="M92.9575 101.919H83.2632V104.346H92.9575V101.919Z" fill="#769CB2"/>
<path d="M80.5168 86.126H70.5125V88.5533H80.5168V86.126Z" fill="#769CB2"/>
<path d="M82.7207 91.543H72.7163V93.9703H82.7207V91.543Z" fill="#769CB2"/>
<path d="M121.486 91.543H94.9922V93.9703H121.486V91.543Z" fill="#769CB2"/>
<path d="M152.805 91.543H122.206V93.9703H152.805V91.543Z" fill="#769CB2"/>
<path d="M92.6462 91.543H84.3667V93.9703H92.6462V91.543Z" fill="#769CB2"/>
<path d="M95.0003 86.126H81.8867V88.5533H95.0003V86.126Z" fill="#769CB2"/>
<path d="M103.752 86.126H96.4504V88.5533H103.752V86.126Z" fill="white"/>
<path d="M83.3279 75.4883H75.1401V77.9156H83.3279V75.4883Z" fill="#769CB2"/>
<path d="M129.325 75.4883H88.8923V77.9156H129.325V75.4883Z" fill="#769CB2"/>
<path d="M174.713 91.543H155.595V93.9703H174.713V91.543Z" fill="#769CB2"/>
<path d="M157.499 117.567H138.381V119.995H157.499V117.567Z" fill="#769CB2"/>
<path d="M162.179 70.1592H122.35V72.5865H162.179V70.1592Z" fill="#769CB2"/>
<path d="M108.861 70.1592H81.1445V72.5865H108.861V70.1592Z" fill="#769CB2"/>
<path d="M80.4978 58.9639H61.8384V61.3912H80.4978V58.9639Z" fill="#769CB2"/>
<path d="M107.909 58.9639H82.3591V61.3912H107.909V58.9639Z" fill="#769CB2"/>
<path d="M82.9532 53.8174H74.7393V56.2447H82.9532V53.8174Z" fill="white"/>
<path d="M53.3239 55.0656V54.9964C53.3239 54.3453 52.796 53.8174 52.1449 53.8174C51.4937 53.8174 50.9658 54.3453 50.9658 54.9964V55.0656C50.9658 55.7168 51.4937 56.2447 52.1449 56.2447C52.796 56.2447 53.3239 55.7168 53.3239 55.0656Z" fill="#F29111"/>
<path d="M53.3239 60.3781V60.3089C53.3239 59.6578 52.796 59.1299 52.1449 59.1299C51.4937 59.1299 50.9658 59.6578 50.9658 60.3089V60.3781C50.9658 61.0293 51.4937 61.5572 52.1449 61.5572C52.796 61.5572 53.3239 61.0293 53.3239 60.3781Z" fill="#F29111"/>
<path d="M53.3239 65.6897V65.6204C53.3239 64.9693 52.796 64.4414 52.1449 64.4414C51.4937 64.4414 50.9658 64.9693 50.9658 65.6204V65.6897C50.9658 66.3408 51.4937 66.8687 52.1449 66.8687C52.796 66.8687 53.3239 66.3408 53.3239 65.6897Z" fill="#F29111"/>
<path d="M53.3239 71.0022V70.9329C53.3239 70.2818 52.796 69.7539 52.1449 69.7539C51.4937 69.7539 50.9658 70.2818 50.9658 70.9329V71.0022C50.9658 71.6533 51.4937 72.1812 52.1449 72.1812C52.796 72.1812 53.3239 71.6533 53.3239 71.0022Z" fill="#F29111"/>
<path d="M53.3239 76.3147V76.2454C53.3239 75.5943 52.796 75.0664 52.1449 75.0664C51.4937 75.0664 50.9658 75.5943 50.9658 76.2454V76.3147C50.9658 76.9658 51.4937 77.4937 52.1449 77.4937C52.796 77.4937 53.3239 76.9658 53.3239 76.3147Z" fill="#F29111"/>
<path d="M53.3239 81.6262V81.557C53.3239 80.9058 52.796 80.3779 52.1449 80.3779C51.4937 80.3779 50.9658 80.9058 50.9658 81.557V81.6262C50.9658 82.2774 51.4937 82.8052 52.1449 82.8052C52.796 82.8052 53.3239 82.2774 53.3239 81.6262Z" fill="#F29111"/>
<path d="M53.3239 86.9387V86.8695C53.3239 86.2183 52.796 85.6904 52.1449 85.6904C51.4937 85.6904 50.9658 86.2183 50.9658 86.8695V86.9387C50.9658 87.5898 51.4937 88.1177 52.1449 88.1177C52.796 88.1177 53.3239 87.5898 53.3239 86.9387Z" fill="#F29111"/>
<path d="M53.3239 92.2512V92.182C53.3239 91.5308 52.796 91.0029 52.1449 91.0029C51.4937 91.0029 50.9658 91.5308 50.9658 92.182V92.2512C50.9658 92.9023 51.4937 93.4302 52.1449 93.4302C52.796 93.4302 53.3239 92.9023 53.3239 92.2512Z" fill="#F29111"/>
<path d="M53.3239 97.5627V97.4935C53.3239 96.8423 52.796 96.3145 52.1449 96.3145C51.4937 96.3145 50.9658 96.8423 50.9658 97.4935V97.5627C50.9658 98.2139 51.4937 98.7417 52.1449 98.7417C52.796 98.7417 53.3239 98.2139 53.3239 97.5627Z" fill="#F29111"/>
<path d="M81.6332 134.354H77.9651V136.781H81.6332V134.354Z" fill="white"/>
<path d="M75.7353 134.354H64.6873V136.781H75.7353V134.354Z" fill="#F29111"/>
<path d="M53.3239 135.332V135.263C53.3239 134.612 52.796 134.084 52.1449 134.084C51.4937 134.084 50.9658 134.612 50.9658 135.263V135.332C50.9658 135.983 51.4937 136.511 52.1449 136.511C52.796 136.511 53.3239 135.983 53.3239 135.332Z" fill="#F29111"/>
<path d="M53.3239 102.875V102.806C53.3239 102.155 52.796 101.627 52.1449 101.627C51.4937 101.627 50.9658 102.155 50.9658 102.806V102.875C50.9658 103.526 51.4937 104.054 52.1449 104.054C52.796 104.054 53.3239 103.526 53.3239 102.875Z" fill="#F29111"/>
<path d="M53.3239 108.187V108.118C53.3239 107.466 52.796 106.938 52.1449 106.938C51.4937 106.938 50.9658 107.466 50.9658 108.118V108.187C50.9658 108.838 51.4937 109.366 52.1449 109.366C52.796 109.366 53.3239 108.838 53.3239 108.187Z" fill="#F29111"/>
<path d="M53.3239 113.499V113.43C53.3239 112.779 52.796 112.251 52.1449 112.251C51.4937 112.251 50.9658 112.779 50.9658 113.43V113.499C50.9658 114.15 51.4937 114.678 52.1449 114.678C52.796 114.678 53.3239 114.15 53.3239 113.499Z" fill="#F29111"/>
<path d="M53.3239 118.816V118.746C53.3239 118.095 52.796 117.567 52.1449 117.567C51.4937 117.567 50.9658 118.095 50.9658 118.746V118.816C50.9658 119.467 51.4937 119.995 52.1449 119.995C52.796 119.995 53.3239 119.467 53.3239 118.816Z" fill="#F29111"/>
<path d="M53.3239 124.128V124.059C53.3239 123.408 52.796 122.88 52.1449 122.88C51.4937 122.88 50.9658 123.408 50.9658 124.059V124.128C50.9658 124.779 51.4937 125.307 52.1449 125.307C52.796 125.307 53.3239 124.779 53.3239 124.128Z" fill="#F29111"/>
<path d="M75.8093 128.467H64.6172V130.894H75.8093V128.467Z" fill="#769CB2"/>
<path d="M103.279 128.467H77.9651V130.894H103.279V128.467Z" fill="#769CB2"/>
<path d="M53.3239 129.715V129.646C53.3239 128.995 52.796 128.467 52.1449 128.467C51.4937 128.467 50.9658 128.995 50.9658 129.646V129.715C50.9658 130.366 51.4937 130.894 52.1449 130.894C52.796 130.894 53.3239 130.366 53.3239 129.715Z" fill="#F29111"/>
<path d="M119.246 58.9463H111.032V61.3736H119.246V58.9463Z" fill="white"/>
<path d="M50.4718 46.9621C51.3955 46.9621 52.1443 46.2148 52.1443 45.2931C52.1443 44.3713 51.3955 43.624 50.4718 43.624C49.5481 43.624 48.7993 44.3713 48.7993 45.2931C48.7993 46.2148 49.5481 46.9621 50.4718 46.9621Z" fill="#8EC9E6"/>
<path d="M55.1097 46.9621C56.0334 46.9621 56.7822 46.2148 56.7822 45.2931C56.7822 44.3713 56.0334 43.624 55.1097 43.624C54.1861 43.624 53.4373 44.3713 53.4373 45.2931C53.4373 46.2148 54.1861 46.9621 55.1097 46.9621Z" fill="#F29111"/>
<path d="M59.7479 46.9621C60.6716 46.9621 61.4204 46.2148 61.4204 45.2931C61.4204 44.3713 60.6716 43.624 59.7479 43.624C58.8242 43.624 58.0754 44.3713 58.0754 45.2931C58.0754 46.2148 58.8242 46.9621 59.7479 46.9621Z" fill="white"/>
<path d="M57.4861 53.125C57.5472 53.125 57.5996 74.025 57.5996 99.797C57.5996 125.569 57.5472 146.473 57.4861 146.473C57.425 146.473 57.3726 125.578 57.3726 99.797C57.3726 74.0163 57.425 53.125 57.4861 53.125Z" fill="#455A64"/>
<path d="M120.603 18.1094H88.5942C86.5732 18.1094 84.9348 19.7444 84.9348 21.7612V40.4082C84.9348 42.4251 86.5732 44.0601 88.5942 44.0601H120.603C122.624 44.0601 124.262 42.4251 124.262 40.4082V21.7612C124.262 19.7444 122.624 18.1094 120.603 18.1094Z" fill="#F29111"/>
<path d="M117.961 18.1094H85.9519C83.9308 18.1094 82.2925 19.7444 82.2925 21.7612V40.4082C82.2925 42.4251 83.9308 44.0601 85.9519 44.0601H117.961C119.982 44.0601 121.62 42.4251 121.62 40.4082V21.7612C121.62 19.7444 119.982 18.1094 117.961 18.1094Z" fill="#F29111"/>
<path d="M97.7065 29.6273L92.3484 31.523L97.7065 33.4186V35.8677L89.4226 32.8173V30.2331L97.7065 27.1826V29.6317V29.6273Z" fill="white"/>
<path d="M103.607 23.2734H106.445L100.899 39.0705H98.0608L103.607 23.2734Z" fill="white"/>
<path d="M114.911 30.2326V32.8167L106.627 35.8672V33.4181L111.985 31.5225L106.627 29.6268V27.1777L114.911 30.2282V30.2326Z" fill="white"/>
<path d="M165.879 28.2633C166.727 27.7505 167.631 27.3638 168.563 27.1004L169.116 24.4496L173.606 24.3711L174.252 27.0023C175.193 27.2349 176.111 27.5908 176.976 28.0728L179.245 26.5876L182.474 29.7008L181.067 32.0154C181.581 32.8617 181.969 33.764 182.232 34.6943L184.889 35.2463L184.967 39.727L182.331 40.3715C182.098 41.3102 181.741 42.2237 181.258 43.0896L182.746 45.3537L179.627 48.5762L177.307 47.1723C176.459 47.6851 175.555 48.0718 174.623 48.3352L174.07 50.9861L169.58 51.0645L168.934 48.4333C167.993 48.2007 167.078 47.8448 166.21 47.3629L163.941 48.848L160.712 45.7348L162.119 43.4202C161.605 42.574 161.218 41.6717 160.954 40.7414L158.297 40.1893L158.219 35.7087L160.855 35.0642C161.088 34.1254 161.445 33.2119 161.928 32.3461L160.44 30.0819L163.559 26.8594L165.879 28.2633ZM168.271 34.2319C166.424 36.143 166.477 39.1833 168.392 41.0272C170.307 42.871 173.354 42.8178 175.201 40.9067C177.049 38.9956 176.996 35.9553 175.081 34.1114C173.166 32.2676 170.119 32.3208 168.271 34.2319Z" fill="#CBEEFF"/>
<path d="M179.493 9.98901L179.752 10.1456L180.011 9.98912C180.539 9.66976 181.103 9.42854 181.685 9.26405L181.977 9.18166L182.038 8.88503L182.327 7.50152L184.534 7.46295L184.871 8.83643L184.943 9.13006L185.237 9.20263C185.825 9.34799 186.398 9.57018 186.937 9.87048L187.201 10.0177L187.454 9.85207L188.639 9.07645L190.225 10.6057L189.491 11.813L189.333 12.0726L189.491 12.3322C189.811 12.8591 190.053 13.4215 190.217 14.0022L190.3 14.2937L190.597 14.3553L191.983 14.6435L192.022 16.8435L190.645 17.18L190.352 17.2518L190.279 17.5453C190.133 18.1313 189.911 18.7013 189.609 19.2415L189.462 19.5063L189.628 19.7597L190.404 20.9405L188.872 22.5234L187.661 21.7901L187.402 21.6334L187.143 21.79C186.615 22.1093 186.051 22.3505 185.469 22.515L185.177 22.5974L185.115 22.8941L184.827 24.2776L182.62 24.3161L182.283 22.9427L182.211 22.649L181.917 22.5765C181.33 22.4312 180.758 22.209 180.217 21.9083L179.953 21.7616L179.7 21.927L178.515 22.7026L176.929 21.1734L177.663 19.9661L177.821 19.7065L177.663 19.4469C177.343 18.92 177.101 18.3576 176.937 17.7768L176.854 17.4854L176.557 17.4238L175.171 17.1356L175.132 14.9355L176.509 14.599L176.802 14.5273L176.875 14.2338C177.021 13.6478 177.243 13.0778 177.544 12.5376L177.692 12.2728L177.526 12.0194L176.749 10.8386L178.282 9.2557L179.493 9.98901ZM180.994 13.2088C179.565 14.6866 179.606 17.0387 181.088 18.4648C182.568 19.89 184.923 19.8491 186.352 18.3715C187.78 16.8937 187.739 14.5415 186.258 13.1155C184.778 11.6902 182.423 11.7312 180.994 13.2088Z" stroke="white"/>
<g filter="url(#filter0_d_2197_2233)">
<rect x="12" y="88.2969" width="79" height="78.8369" rx="6" fill="#11181F" fill-opacity="0.8"/>
<rect x="12.5" y="88.7969" width="78" height="77.8369" rx="5.5" stroke="white"/>
</g>
<path d="M46.0639 156.091C56.3732 156.745 72.2032 155.729 72.5777 150.902C72.5777 150.902 71.8572 152.73 64.058 154.184C55.2611 155.822 44.4085 155.633 37.9702 154.583C37.9702 154.583 39.2882 155.661 46.0639 156.091" fill="white"/>
<path d="M43.9551 143.431C43.9551 143.431 41.768 144.69 45.5132 145.114C50.0475 145.626 52.3747 145.555 57.3664 144.619C58.3689 145.213 59.421 145.722 60.5112 146.138C49.307 150.891 35.1524 145.855 43.9522 143.431" fill="white"/>
<path d="M42.5835 137.229C42.5835 137.229 40.1334 139.037 43.8786 139.411C48.7216 139.903 52.5497 139.945 59.171 138.684C59.8497 139.31 60.6516 139.792 61.5268 140.098C47.9783 144.019 32.8888 140.407 42.5835 137.224" fill="white"/>
<path d="M54.1429 126.707C56.9046 129.853 53.4167 132.685 53.4167 132.685C53.4167 132.685 60.4126 129.103 57.1934 124.607C54.1858 120.423 51.8815 118.346 64.3636 111.18C64.3636 111.18 44.7684 116.023 54.1286 126.695" fill="#F29111"/>
<path d="M68.9506 148.017C68.9506 148.017 70.5687 149.339 67.1666 150.36C60.6997 152.298 40.2468 152.884 34.5747 150.436C32.5334 149.556 36.3644 148.337 37.568 148.08C38.2144 147.923 38.8783 147.85 39.5435 147.862C37.2564 146.277 24.8629 150.974 33.2539 152.315C56.0996 155.993 74.9029 150.663 68.9906 148.017" fill="white"/>
<path d="M44.9954 130.804C44.9954 130.804 34.5917 133.249 41.3102 134.137C44.1491 134.514 49.8041 134.42 55.0732 133.99C59.3787 133.631 63.7014 132.858 63.7014 132.858C62.7925 133.249 61.9176 133.712 61.0855 134.245C50.5074 136.995 30.1118 135.713 35.9869 132.901C40.9671 130.533 44.9954 130.804 44.9954 130.804Z" fill="white"/>
<path d="M63.6707 141.125C74.4088 135.602 69.4457 130.294 65.9778 131.01C65.5607 131.087 65.1506 131.196 64.7513 131.338C64.9784 131.018 65.2984 130.773 65.669 130.637C72.5305 128.252 77.7967 137.673 63.4534 141.405C63.5441 141.326 63.618 141.23 63.6707 141.122" fill="white"/>
<path d="M57.1951 99.6221C57.1951 99.6221 63.1446 105.51 51.5544 114.563C42.26 121.826 49.436 125.968 51.5544 130.69C46.1396 125.855 42.1371 121.591 44.8159 117.622C48.7355 111.799 59.5966 108.973 57.1951 99.6221" fill="#F29111"/>
<g filter="url(#filter1_d_2197_2233)">
<rect x="150" y="16" width="65.2679" height="65.1332" rx="6" fill="#11181F" fill-opacity="0.8"/>
<rect x="150.5" y="16.5" width="64.2679" height="64.1332" rx="5.5" stroke="white"/>
</g>
<path fill-rule="evenodd" clip-rule="evenodd" d="M186.815 27.9952V27.7754H202.533V68.5353H161.773V27.7754H177.468V27.9952C177.468 30.576 179.56 32.6686 182.141 32.6686C184.722 32.6686 186.815 30.5766 186.815 27.9952ZM173.94 49.7411H171.239L174.337 64.1728H177.068L179.193 54.3511H179.245L181.23 64.1728H183.911L187.354 49.7411H184.704L182.602 59.6833H182.563L180.561 49.7411H178.034L175.818 59.5627H175.784L173.94 49.7411ZM194.658 49.7411H190.399L186.906 64.1728H189.62L190.33 60.9613H195.181L196.101 64.1728H198.887L194.658 49.7411ZM190.842 58.593L192.021 53.2982H193.157L194.509 58.593H190.842Z" fill="white"/>
<g filter="url(#filter2_d_2197_2233)">
<rect x="175" y="109" width="56.2493" height="56.1332" rx="6" fill="#11181F" fill-opacity="0.8"/>
<rect x="175.5" y="109.5" width="55.2493" height="55.1332" rx="5.5" stroke="white"/>
</g>
<path d="M202.514 116.373C200.772 116.381 199.107 116.529 197.643 116.785C193.33 117.54 192.547 119.12 192.547 122.033V125.88H202.74V127.162H192.547H188.721C185.759 127.162 183.165 128.926 182.353 132.281C181.417 136.126 181.376 138.525 182.353 142.54C183.078 145.529 184.808 147.658 187.771 147.658H191.275V143.046C191.275 139.714 194.186 136.775 197.643 136.775H207.824C210.659 136.775 212.921 134.464 212.921 131.645V122.033C212.921 119.297 210.591 117.242 207.824 116.785C206.073 116.497 204.257 116.365 202.514 116.373ZM197.002 119.468C198.054 119.468 198.914 120.333 198.914 121.397C198.914 122.458 198.054 123.315 197.002 123.315C195.945 123.315 195.089 122.458 195.089 121.397C195.089 120.333 195.945 119.468 197.002 119.468Z" fill="white"/>
<path d="M214.613 126.802V131.385C214.613 134.939 211.644 137.93 208.259 137.93H198.098C195.315 137.93 193.012 140.346 193.012 143.175V153.003C193.012 155.8 195.409 157.446 198.098 158.248C201.318 159.209 204.406 159.382 208.259 158.248C210.82 157.496 213.345 155.982 213.345 153.003V149.069H203.184V147.758H213.345H218.431C221.387 147.758 222.489 145.666 223.517 142.525C224.579 139.292 224.534 136.182 223.517 132.035C222.787 129.048 221.391 126.802 218.431 126.802H214.613ZM208.899 151.692C209.953 151.692 210.808 152.568 210.808 153.653C210.808 154.741 209.953 155.626 208.899 155.626C207.848 155.626 206.99 154.741 206.99 153.653C206.99 152.568 207.848 151.692 208.899 151.692Z" fill="white"/>
</g>
<defs>
<filter id="filter0_d_2197_2233" x="-2" y="76.2969" width="111" height="110.837" filterUnits="userSpaceOnUse" color-interpolation-filters="sRGB">
<feFlood flood-opacity="0" result="BackgroundImageFix"/>
<feColorMatrix in="SourceAlpha" type="matrix" values="0 0 0 0 0 0 0 0 0 0 0 0 0 0 0 0 0 0 127 0" result="hardAlpha"/>
<feOffset dx="2" dy="4"/>
<feGaussianBlur stdDeviation="8"/>
<feColorMatrix type="matrix" values="0 0 0 0 0 0 0 0 0 0 0 0 0 0 0 0 0 0 0.25 0"/>
<feBlend mode="normal" in2="BackgroundImageFix" result="effect1_dropShadow_2197_2233"/>
<feBlend mode="normal" in="SourceGraphic" in2="effect1_dropShadow_2197_2233" result="shape"/>
</filter>
<filter id="filter1_d_2197_2233" x="136" y="4" width="97.2678" height="97.1328" filterUnits="userSpaceOnUse" color-interpolation-filters="sRGB">
<feFlood flood-opacity="0" result="BackgroundImageFix"/>
<feColorMatrix in="SourceAlpha" type="matrix" values="0 0 0 0 0 0 0 0 0 0 0 0 0 0 0 0 0 0 127 0" result="hardAlpha"/>
<feOffset dx="2" dy="4"/>
<feGaussianBlur stdDeviation="8"/>
<feColorMatrix type="matrix" values="0 0 0 0 0 0 0 0 0 0 0 0 0 0 0 0 0 0 0.25 0"/>
<feBlend mode="normal" in2="BackgroundImageFix" result="effect1_dropShadow_2197_2233"/>
<feBlend mode="normal" in="SourceGraphic" in2="effect1_dropShadow_2197_2233" result="shape"/>
</filter>
<filter id="filter2_d_2197_2233" x="161" y="97" width="88.2493" height="88.1328" filterUnits="userSpaceOnUse" color-interpolation-filters="sRGB">
<feFlood flood-opacity="0" result="BackgroundImageFix"/>
<feColorMatrix in="SourceAlpha" type="matrix" values="0 0 0 0 0 0 0 0 0 0 0 0 0 0 0 0 0 0 127 0" result="hardAlpha"/>
<feOffset dx="2" dy="4"/>
<feGaussianBlur stdDeviation="8"/>
<feColorMatrix type="matrix" values="0 0 0 0 0 0 0 0 0 0 0 0 0 0 0 0 0 0 0.25 0"/>
<feBlend mode="normal" in2="BackgroundImageFix" result="effect1_dropShadow_2197_2233"/>
<feBlend mode="normal" in="SourceGraphic" in2="effect1_dropShadow_2197_2233" result="shape"/>
</filter>
<clipPath id="clip0_2197_2233">
<rect width="243" height="181" fill="white"/>
</clipPath>
</defs>
</svg>
