<svg width="426" height="88" viewBox="0 0 426 88" fill="none" xmlns="http://www.w3.org/2000/svg">
<path d="M28.4599 87.994C10.5793 87.994 0 74.8771 0 46.7313C0 17.8588 13.7084 2.9446 31.589 2.9446C35.7961 3.01143 39.9334 4.05812 43.689 6.00572C47.4446 7.95331 50.7203 10.751 53.2692 14.1876L47.6815 19.8092C43.361 15.9599 37.9 13.7228 32.185 13.4611C20.7489 13.4611 13.3359 23.8628 13.3359 44.3985C13.3359 68.1466 20.1529 77.3246 30.6205 77.3246C34.488 77.4368 38.2756 76.1812 41.3488 73.7681V50.4025H30.9185V40.6126H54.1632V78.2806C47.0772 84.6991 37.9085 88.164 28.4599 87.994ZM98.3431 37.3238C96.7083 36.8202 95.0193 36.5248 93.3142 36.4443C89.8498 36.4443 86.6462 39.1594 80.7978 46.6166V86.7703H68.5422V25.8131H78.6745L79.7175 36.2148C86.162 27.6487 90.2224 24.7423 94.618 24.7423C96.4504 24.7669 98.2508 25.2388 99.8704 26.119L98.3431 37.3238ZM141.592 86.7703L140.623 80.1545C135.674 84.9887 129.126 87.7212 122.296 87.8028C110.599 87.8028 104.415 81.6842 104.415 70.9C104.415 58.4332 113.84 50.0966 134.663 50.0966H138.947V44.781C138.947 37.4386 135.222 33.8821 126.654 33.8821C120.701 34.0466 114.818 35.2492 109.258 37.4386L107.47 29.7902C114.498 26.5387 122.111 24.8323 129.82 24.7806C144.721 24.7806 151.054 32.123 151.054 43.2513V86.8468L141.592 86.7703ZM138.947 58.3568H133.843C120.321 58.3568 116.596 62.984 116.596 69.3703C116.469 70.6397 116.618 71.9223 117.032 73.1252C117.447 74.3282 118.118 75.4213 118.995 76.3255C119.872 77.2296 120.934 77.9222 122.104 78.3529C123.274 78.7837 124.523 78.9419 125.76 78.816C130.713 78.4056 135.374 76.243 138.947 72.6974V58.3568ZM199.48 86.7703L198.549 80.1545C193.582 84.9847 187.025 87.7157 180.184 87.8028C168.487 87.8028 162.303 81.6842 162.303 70.9C162.303 58.4332 171.728 50.0966 192.589 50.0966H196.872V44.781C196.872 37.4386 193.147 33.8821 184.58 33.8821C178.626 34.0466 172.744 35.2492 167.183 37.4386L165.395 29.7902C172.425 26.5441 180.038 24.8379 187.746 24.7806C202.646 24.7806 208.942 32.123 208.942 43.2513V86.8468L199.48 86.7703ZM196.872 58.3568H191.769C178.061 58.3568 174.485 63.0222 174.485 69.3703C174.364 70.6382 174.518 71.9177 174.935 73.1174C175.352 74.3171 176.023 75.4073 176.898 76.3099C177.774 77.2125 178.833 77.9052 180 78.3385C181.167 78.7717 182.413 78.9348 183.648 78.816C188.617 78.4238 193.295 76.2591 196.872 72.6974V58.3568ZM234.124 87.6116C226.673 87.6116 223.284 85.3936 223.284 75.489V0H235.8V70.6323C235.8 77.7453 236.657 78.8543 240.084 78.8543C241.164 78.8543 242.468 78.8543 243.325 78.8543L243.921 86.5026C240.803 87.3708 237.575 87.7448 234.347 87.6116H234.124Z" fill="#00758F"/>
<path d="M286.792 86.765H271.519C262.064 59.7776 254.337 32.1848 248.386 4.16309H262.467C266.64 26.1903 273.419 49.5559 280.236 72.998C286.91 50.4073 292.234 27.4196 296.18 4.16309H308.957C303.708 32.2555 296.297 59.8761 286.792 86.765ZM385.136 86.765C384.651 62.7492 382.975 37.9304 381.41 20.9129L361.146 86.765H350.529L330.041 20.9129C328.514 39.1542 327.433 62.7492 327.061 86.765H314.805C315.513 59.9958 317.413 31.0852 320.617 4.16309H337.566L356.862 64.8525L376.195 4.16309H392.251C395.342 30.9322 397.727 59.9576 398.434 86.765H385.136ZM407.784 78.3518H404.879V76.6692H412.813V78.2753H409.908V86.6885H407.784V78.3518ZM414.899 76.6692H418.326L420.412 84.0116L422.648 76.6692H426V86.765H423.877V78.2753L421.232 86.9179H419.481L416.874 78.2753V86.9179H414.899V76.6692Z" fill="#F29111"/>
</svg>
