<svg xmlns="http://www.w3.org/2000/svg" width="32" height="32" viewBox="0 0 32 32">
  <g id="Group_1076" data-name="Group 1076" transform="translate(-841 -2881)">
    <path id="Path_578" data-name="Path 578" d="M-132.313-689.026l-5.7-.015v-.551l-1.578-1.656.02-10.208,1.578-1.608v-.535H-143.4l-3.191,8.064-3.8-8.064h-5.881v.557l2.127,1.643v9.625l-2.127,2.187v.531h5.365v-1.063l-2.124-2.165v-6.99l4.826,10.217h.541l4.286-10.208v8.019l-1.6,1.656v.531l6.745.019h.215l5.715.015v7.578h-29.7v-29.7h29.7v22.118" transform="translate(1004.311 3593.444)" fill="#d2d9db"/>
    <g id="Rectangle_209" data-name="Rectangle 209" transform="translate(841 2881)" fill="none" stroke="#d2d9db" stroke-width="1.5">
      <rect width="32" height="32" rx="3" stroke="none"/>
      <rect x="0.75" y="0.75" width="30.5" height="30.5" rx="2.25" fill="none"/>
    </g>
  </g>
</svg>
