<svg width="938" height="910" viewBox="0 0 938 910" fill="none" xmlns="http://www.w3.org/2000/svg">
<g clip-path="url(#clip0_661_5608)">
<path opacity="0.3" d="M-1.89166e-05 71.3814C56.8754 44.5303 114.971 17.4351 176.973 10.6003C238.975 3.76551 306.835 21.0966 347.599 70.649C354.434 78.9485 360.293 87.9802 363.71 98.2325C371.521 122.398 363.466 149.005 352.481 171.951C342.473 192.943 330.024 212.472 315.378 230.047C304.394 243.228 291.7 261.536 301.22 275.938C310.496 290.096 331.245 284.969 346.135 278.379C370.545 267.638 394.955 257.142 419.365 246.402C450.61 232.976 483.807 219.062 517.005 224.921C550.447 230.779 579.495 258.363 588.527 292.537C603.173 348.68 566.314 405.799 567.778 463.895C568.999 511.251 595.117 553.236 620.26 592.536" stroke="white" stroke-opacity="0.4" stroke-width="0.4747" stroke-miterlimit="10"/>
<path d="M875.1 894C882.668 883.748 882.423 868.858 876.809 857.141C871.195 845.668 861.187 837.125 850.69 830.046C823.839 811.982 793.083 801.73 764.279 787.328C735.475 772.926 707.403 752.666 694.466 722.153C674.206 674.798 696.663 620.608 713.994 572.031C718.632 559.338 722.782 545.913 720.829 532.487C718.144 515.4 705.206 501.486 690.56 493.431C675.914 485.376 659.071 482.447 642.717 479.029C589.991 468.289 536.045 452.422 495.28 415.807C454.759 379.192 417.656 298.395 450.365 209.786" stroke="white" stroke-opacity="0.4" stroke-width="0.3121" stroke-miterlimit="10"/>
<g opacity="0.6">
<path d="M875.1 894C882.668 883.748 882.423 868.858 876.809 857.141C871.195 845.668 861.187 837.125 850.69 830.046C823.839 811.982 793.083 801.73 764.279 787.328C735.475 772.926 707.403 752.666 694.466 722.153C674.206 674.798 696.663 620.608 713.994 572.031C718.632 559.338 722.782 545.913 720.829 532.487C718.144 515.4 705.206 501.486 690.56 493.431C675.914 485.376 659.071 482.447 642.717 479.029C589.991 468.289 536.045 452.422 495.28 415.807C454.759 379.192 417.656 298.395 450.365 209.786" stroke="white" stroke-opacity="0.4" stroke-width="0.3121" stroke-miterlimit="10"/>
<path opacity="0.6829" d="M447.193 211.251C429.862 261.048 435.965 308.159 452.075 346.239C463.548 373.334 480.391 396.036 497.722 411.17C513.833 425.328 531.652 436.556 550.448 445.588C557.771 449.25 565.338 452.423 572.905 455.352C590.724 462.431 609.032 468.045 627.095 472.927C632.466 474.392 637.836 475.612 642.962 476.833C654.19 479.518 665.419 481.959 676.16 486.109C680.553 487.817 684.703 489.77 688.853 492.211C695.688 496.117 702.034 501.487 707.404 507.834C713.263 514.669 717.657 522.724 719.365 531.267C720.098 534.685 720.098 537.858 720.098 541.276C719.854 550.795 716.924 560.315 713.995 569.347C711.066 578.379 707.893 587.655 704.719 596.93C697.152 620.608 690.317 645.262 690.317 669.428C690.317 685.051 692.758 700.429 699.349 715.563C703.499 725.327 709.357 734.115 716.192 742.17C730.35 759.013 749.146 771.951 767.941 782.203C786.981 792.455 806.998 800.755 826.281 811.251C835.069 815.889 843.857 821.015 852.156 826.873C862.408 834.196 872.416 842.984 878.031 854.457C883.645 866.174 884.377 881.064 877.054 891.316" stroke="white" stroke-opacity="0.4" stroke-width="0.7063" stroke-miterlimit="10"/>
<path opacity="0.6659" d="M444.753 211.497C429.374 259.341 436.941 304.499 454.029 341.603C466.234 367.966 483.321 390.179 501.14 405.313C517.495 419.227 535.314 430.7 554.354 439.975C561.677 443.637 569.244 447.054 576.567 450.228C594.142 457.795 611.718 463.897 629.049 469.023C634.175 470.488 639.301 471.953 644.427 473.417C655.168 476.346 665.908 479.031 675.916 483.425C680.066 485.134 684.215 487.331 688.121 489.772C694.468 493.922 700.814 499.292 705.94 505.638C711.799 512.717 716.437 520.284 718.39 528.828C719.122 532.001 719.366 535.175 719.366 538.592C719.366 547.868 716.925 556.9 714.24 565.687C711.555 574.475 708.87 583.262 706.185 592.294C699.594 615.24 693.98 638.673 694.712 662.595C695.2 677.974 698.129 693.352 704.72 708.242C709.114 718.006 714.972 727.038 721.563 735.093C735.721 752.18 753.54 765.606 771.848 776.102C790.155 786.842 809.439 795.63 828.235 806.371C836.778 811.253 845.322 816.623 853.621 822.725C863.874 830.292 873.638 839.08 879.252 850.797C885.11 862.514 885.843 877.404 879.008 887.9" stroke="white" stroke-opacity="0.4" stroke-width="0.7005" stroke-miterlimit="10"/>
<path opacity="0.6488" d="M442.557 210.764C428.887 256.654 437.919 299.86 456.226 335.987C469.164 361.618 486.739 383.099 504.802 398.233C521.401 412.147 539.465 423.619 558.26 433.383C565.583 437.289 572.906 440.706 580.229 444.124C597.561 452.179 614.404 458.77 631.002 464.384C635.884 466.093 640.766 467.558 645.648 469.266C655.901 472.44 666.153 475.613 675.673 480.007C679.578 481.959 683.484 483.912 687.146 486.597C693.248 490.747 699.107 496.361 704.477 502.952C710.335 510.031 715.217 517.598 717.414 525.653C718.146 528.827 718.635 532 718.879 534.929C719.123 543.717 717.17 552.505 714.729 560.804C712.532 569.103 710.091 577.647 707.894 586.19C702.036 608.16 697.642 630.617 699.106 654.05C700.083 668.941 703.5 684.319 710.335 699.453C714.729 709.217 720.587 718.249 727.178 726.548C741.092 743.879 758.423 757.549 775.998 768.778C793.818 780.006 812.369 789.282 830.677 800.511C838.976 805.637 847.52 811.251 855.575 817.354C865.583 825.165 875.347 834.197 881.206 845.914C887.064 857.63 888.04 872.765 881.694 883.261" stroke="white" stroke-opacity="0.4" stroke-width="0.6947" stroke-miterlimit="10"/>
<path opacity="0.6317" d="M440.601 209.054C428.884 252.992 439.381 294.245 458.42 329.395C472.09 354.049 489.909 375.286 508.461 390.42C525.304 404.09 543.612 415.807 562.407 425.815C569.73 429.721 577.053 433.382 584.376 437.044C601.463 445.343 617.574 452.666 633.685 458.769C638.323 460.477 642.961 462.186 647.599 463.895C657.363 467.312 667.127 470.729 676.158 475.367C679.82 477.32 683.481 479.517 687.143 482.202C693.001 486.596 698.616 492.454 703.986 498.801C709.844 505.88 714.97 513.203 717.411 521.014C718.388 523.943 718.876 527.117 719.12 530.046C719.608 538.589 717.9 546.889 716.191 554.944C714.238 563 712.285 571.055 710.332 579.354C705.45 600.347 702.033 622.072 704.474 645.017C705.939 659.663 709.6 674.798 716.679 689.932C721.317 699.696 727.175 708.728 733.522 717.271C747.192 734.846 764.035 749.004 780.877 760.721C797.965 772.438 815.784 782.202 833.603 793.919C841.903 799.289 849.958 804.903 858.013 811.494C867.777 819.305 877.541 828.581 883.4 840.542C889.258 852.503 890.479 867.393 884.62 877.889" stroke="white" stroke-opacity="0.4" stroke-width="0.6889" stroke-miterlimit="10"/>
<path opacity="0.6146" d="M439.137 206.371C429.373 248.6 441.09 287.9 461.35 321.83C475.508 345.752 494.06 366.501 512.855 381.635C529.942 395.305 548.25 407.021 567.046 417.274C574.369 421.179 581.692 425.085 588.771 428.746C605.614 437.534 621.236 445.345 636.37 451.936C640.764 453.889 645.158 455.598 649.552 457.55C658.828 461.212 668.103 464.873 676.647 469.755C680.064 471.708 683.726 474.149 686.899 476.834C692.514 481.472 697.884 487.331 703.254 493.921C709.112 501.244 714.483 508.323 717.168 515.646C718.144 518.576 718.876 521.505 719.121 524.19C720.097 532.245 718.632 540.3 717.168 547.868C715.703 555.435 713.994 563.246 712.53 571.057C708.624 591.073 706.183 611.822 709.357 634.279C711.309 648.681 715.459 663.815 722.782 678.95C727.42 688.714 733.278 697.99 739.625 706.533C753.051 724.596 769.405 738.998 785.516 751.203C801.871 763.408 819.202 773.661 836.533 785.866C844.588 791.48 852.644 797.338 860.455 803.929C870.219 811.985 879.739 821.504 885.597 833.465C891.456 845.426 893.164 860.316 887.306 871.057" stroke="white" stroke-opacity="0.4" stroke-width="0.6831" stroke-miterlimit="10"/>
<path opacity="0.5976" d="M437.673 202.953C429.618 243.229 442.799 280.577 464.28 313.53C479.17 336.476 497.966 356.98 517.25 371.87C534.581 385.296 553.133 397.257 571.684 407.997C579.007 412.147 586.33 416.052 593.165 419.958C609.764 429.234 624.654 437.533 639.056 444.612C643.206 446.565 647.6 448.762 651.749 450.471C660.537 454.376 669.324 458.282 677.38 463.408C680.797 465.605 683.971 467.802 687.144 470.731C692.27 475.369 697.396 481.471 703.01 488.062C708.869 495.385 714.483 502.22 717.412 509.543C718.633 512.228 719.365 515.157 719.609 517.842C720.83 525.654 719.853 533.221 718.633 540.544C717.656 547.867 716.192 555.19 715.215 562.757C712.286 581.797 710.822 601.569 714.727 623.538C717.168 637.696 721.806 652.586 729.129 667.72C734.011 677.484 739.87 686.76 746.216 695.548C759.642 713.855 775.02 728.745 790.642 741.195C806.509 753.888 822.864 764.628 839.707 777.077C847.518 782.936 855.329 789.038 863.14 795.629C872.66 803.928 882.18 813.448 888.283 825.653C894.385 837.614 896.094 852.749 890.724 863.489" stroke="white" stroke-opacity="0.4" stroke-width="0.6774" stroke-miterlimit="10"/>
<path opacity="0.5805" d="M436.452 198.559C430.35 236.883 444.996 272.278 467.209 304.255C482.831 326.468 502.115 346.484 521.643 361.374C539.219 374.8 557.77 386.761 576.566 397.745C583.889 401.895 590.968 406.045 598.047 410.195C614.402 419.959 628.559 428.746 642.473 436.069C646.623 438.266 650.529 440.463 654.434 442.416C662.734 446.81 671.033 450.959 678.6 456.086C681.773 458.282 684.703 460.723 687.632 463.653C692.514 468.535 697.396 474.637 702.766 481.472C708.624 488.795 714.483 495.63 717.656 502.465C718.877 505.15 719.609 507.835 720.341 510.276C721.806 517.599 721.318 524.922 720.585 531.757C719.853 538.592 719.121 545.671 718.389 552.749C716.436 570.813 715.948 589.609 720.83 611.334C724.003 625.003 728.885 639.893 736.452 655.272C741.334 665.036 747.192 674.556 753.539 683.343C766.72 701.895 781.611 717.273 796.745 730.211C811.879 743.148 827.502 754.621 844.1 767.558C851.667 773.661 859.479 780.007 867.046 786.842C876.566 795.386 885.842 805.15 891.944 817.355C898.047 829.56 899.999 844.45 895.117 855.19" stroke="white" stroke-opacity="0.4" stroke-width="0.6716" stroke-miterlimit="10"/>
<path opacity="0.5634" d="M435.232 193.433C430.839 229.804 446.949 263.246 470.383 294.246C486.494 315.483 506.266 335.255 526.282 350.145C544.101 363.327 562.897 375.532 581.449 386.76C588.772 391.154 595.851 395.304 602.686 399.698C618.796 409.706 632.466 419.226 645.403 427.037C649.309 429.478 652.97 431.675 656.632 433.872C664.443 438.51 672.254 442.904 679.333 448.274C682.262 450.471 685.192 452.912 687.877 456.085C692.515 460.967 697.152 467.314 702.523 474.149C708.625 481.716 714.484 488.062 717.901 494.653C719.122 497.094 720.098 499.779 720.83 502.22C722.539 509.299 722.539 516.134 722.051 522.725C721.807 529.315 721.318 535.906 720.83 542.741C719.854 560.072 720.342 577.647 725.956 598.884C729.618 612.31 734.744 627.2 742.555 642.334C747.681 652.342 753.54 661.618 759.642 670.65C772.58 689.445 786.982 705.312 801.383 718.737C815.785 732.163 830.92 744.124 846.786 757.549C854.109 763.896 861.676 770.243 869.243 777.322C878.519 786.109 888.039 796.117 894.142 808.078C900.244 820.283 902.441 835.173 898.047 846.158" stroke="white" stroke-opacity="0.4" stroke-width="0.6658" stroke-miterlimit="10"/>
<path opacity="0.5463" d="M434.256 187.818C431.815 222.236 449.147 253.725 473.557 283.749C490.4 304.254 510.416 323.294 530.92 338.184C548.984 351.365 567.779 363.57 586.575 375.287C593.898 379.681 600.977 384.319 607.568 388.713C623.434 399.209 636.372 409.217 648.577 417.517C652.238 419.958 655.656 422.399 659.317 424.595C666.64 429.477 673.963 434.115 680.554 439.73C683.239 441.927 685.924 444.612 688.609 447.785C693.003 452.911 697.397 459.502 702.767 466.337C708.87 473.904 714.972 480.25 718.634 486.597C720.098 489.038 721.075 491.479 721.807 493.676C724.004 500.267 724.004 506.857 724.248 512.96C724.248 519.062 724.248 525.409 724.248 531.756C724.248 548.11 725.957 564.953 732.303 585.458C736.453 598.639 742.067 613.285 750.123 628.664C755.249 638.672 761.107 648.192 767.21 657.223C780.147 676.263 793.817 692.374 807.486 706.288C821.156 720.201 835.558 732.406 851.18 746.564C858.259 752.911 865.826 759.746 873.149 767.069C882.425 776.1 891.701 786.109 897.804 798.314C903.906 810.519 906.347 825.409 902.441 836.637" stroke="white" stroke-opacity="0.4" stroke-width="0.66" stroke-miterlimit="10"/>
<path opacity="0.5293" d="M433.037 181.716C432.549 214.181 451.1 243.717 476.731 272.765C494.062 292.293 514.81 311.089 535.315 325.979C553.622 339.161 572.662 351.366 591.214 363.327C598.537 367.964 605.616 372.602 612.207 377.24C627.829 388.225 640.034 398.477 651.751 407.509C655.168 410.194 658.586 412.635 661.759 415.076C668.594 420.202 675.185 425.084 681.287 430.942C683.728 433.383 686.169 436.069 688.61 439.242C692.516 444.612 696.665 451.203 702.28 458.038C708.382 465.605 714.729 471.707 718.635 477.81C720.099 480.007 721.32 482.448 722.052 484.645C724.493 490.991 724.981 497.094 725.469 502.952C725.958 508.811 726.202 514.669 726.69 520.772C727.666 536.15 730.351 552.016 737.43 572.277C742.068 585.214 748.171 599.86 756.226 614.994C761.596 625.003 767.455 634.522 773.557 643.798C786.25 663.326 799.188 679.681 812.369 694.083C825.551 708.485 839.22 721.178 854.11 735.824C860.945 742.415 868.268 749.494 875.591 756.817C884.623 766.093 893.899 776.345 900.001 788.55C906.348 800.999 908.789 815.889 905.127 826.874" stroke="white" stroke-opacity="0.4" stroke-width="0.6542" stroke-miterlimit="10"/>
<path opacity="0.5122" d="M431.815 174.88C433.035 205.637 453.052 232.976 479.903 260.804C497.966 279.599 518.959 297.907 539.952 312.797C558.503 325.734 577.543 338.184 596.339 350.389C603.418 355.027 610.741 359.909 617.087 364.546C632.466 376.019 643.938 386.76 654.923 396.035C658.096 398.721 661.27 401.406 664.199 403.847C670.545 409.217 676.648 414.343 682.262 420.446C684.459 422.887 686.9 425.572 689.097 428.989C692.759 434.359 696.664 441.194 702.278 448.273C708.381 456.084 714.972 461.943 719.121 467.557C720.83 469.754 722.051 471.951 723.027 473.904C725.712 479.762 726.689 485.62 727.421 490.991C728.153 496.361 728.885 501.975 729.618 507.834C731.571 522.235 735.232 537.126 743.287 556.898C748.413 569.347 755.004 583.993 763.304 599.371C768.674 609.379 774.776 619.143 780.635 628.419C793.084 648.191 805.533 665.034 817.982 679.924C830.431 694.815 843.369 707.996 858.015 722.886C864.849 729.721 871.928 736.8 879.007 744.611C887.795 754.131 897.071 764.383 903.417 776.832C909.764 789.282 912.449 804.172 909.276 815.4" stroke="white" stroke-opacity="0.4" stroke-width="0.6484" stroke-miterlimit="10"/>
<path opacity="0.4951" d="M430.594 167.558C433.767 196.361 455.004 221.748 482.832 248.599C501.383 266.662 523.108 284.482 544.345 299.128C563.141 312.065 582.425 324.514 600.976 337.208C608.055 342.09 615.134 346.972 621.725 351.854C636.859 363.57 647.844 375.043 657.852 384.807C660.781 387.736 663.71 390.422 666.639 393.107C672.498 398.721 678.112 404.091 683.238 410.438C685.191 412.879 687.388 415.808 689.341 419.225C692.758 424.84 696.42 431.675 701.79 438.753C707.892 446.565 714.727 452.179 719.121 457.793C720.83 459.99 722.05 461.943 723.271 463.896C726.2 469.51 727.665 474.88 728.885 480.006C730.106 485.133 731.082 490.259 732.303 495.629C735.232 509.054 739.87 522.968 748.657 542.496C754.272 554.701 761.106 569.103 769.65 584.482C775.264 594.49 781.123 604.254 786.981 613.774C799.43 633.79 811.147 651.121 822.864 666.499C834.581 681.878 846.786 695.547 860.944 710.926C867.534 718.005 874.369 725.328 881.448 733.139C890.236 742.659 899.267 753.399 905.614 765.848C911.961 778.298 914.89 793.188 912.205 804.66" stroke="white" stroke-opacity="0.4" stroke-width="0.6426" stroke-miterlimit="10"/>
<path opacity="0.478" d="M428.64 159.747C433.522 186.598 456.224 210.031 485.272 235.906C504.556 252.993 526.525 270.568 548.25 285.214C567.29 297.908 586.573 310.601 605.125 323.538C612.204 328.42 619.283 333.546 625.63 338.672C640.52 350.877 650.772 362.838 660.048 373.091C662.733 376.02 665.418 378.949 668.103 381.878C673.473 387.737 678.599 393.595 683.237 399.942C685.19 402.627 686.899 405.556 688.852 408.973C692.025 414.832 695.442 421.667 700.813 428.99C706.915 437.045 713.994 442.415 718.876 447.541C720.585 449.494 722.049 451.447 723.27 453.156C726.687 458.282 728.396 463.408 729.861 468.046C731.325 472.684 732.79 477.566 734.498 482.692C738.404 495.385 744.018 508.078 753.782 527.118C759.885 539.079 767.208 553.481 775.752 568.859C781.366 578.867 787.468 588.632 793.083 598.396C805.288 618.656 816.516 636.475 827.501 652.098C838.485 667.964 850.202 682.122 863.872 697.989C870.218 705.312 876.809 712.879 883.888 720.69C892.432 730.454 901.463 741.194 907.81 753.888C914.157 766.581 917.33 781.227 915.133 792.7" stroke="white" stroke-opacity="0.4" stroke-width="0.6368" stroke-miterlimit="10"/>
<path opacity="0.461" d="M426.445 151.935C433.28 176.833 457.202 198.558 487.471 223.213C507.243 239.567 529.7 256.654 551.913 271.3C571.197 283.994 590.725 296.687 609.277 309.868C616.356 314.994 623.435 320.121 629.537 325.491C644.183 338.184 653.703 350.633 662.491 361.374C664.932 364.547 667.373 367.476 669.814 370.405C674.696 376.508 679.334 382.61 683.483 389.201C685.192 391.886 686.901 394.815 688.365 398.477C691.051 404.335 694.224 411.658 699.838 418.737C705.941 426.793 713.264 431.919 718.39 436.801C720.343 438.754 721.807 440.462 723.028 442.171C726.689 447.053 728.642 451.691 730.595 456.085C732.548 460.478 734.5 464.872 736.453 469.51C741.335 481.227 747.926 493.188 758.422 511.496C765.013 523.212 772.824 537.37 781.612 552.749C787.226 562.757 793.329 572.765 798.943 582.529C810.904 603.033 821.644 621.097 831.897 637.451C842.393 653.562 853.133 668.452 866.315 684.807C872.417 692.374 879.008 700.185 885.843 708.241C894.386 718.249 903.174 729.233 909.765 741.927C916.355 754.62 919.773 769.51 917.576 780.983" stroke="white" stroke-opacity="0.4" stroke-width="0.631" stroke-miterlimit="10"/>
<path opacity="0.4439" d="M424.003 143.635C432.791 166.581 457.933 186.353 489.178 210.031C509.438 225.409 532.628 242.252 555.085 256.654C574.613 269.103 594.141 282.04 612.693 295.71C619.772 300.836 626.851 306.206 632.953 311.821C647.355 325.002 656.387 337.939 664.198 348.924C666.639 352.097 668.836 355.271 670.789 358.444C675.183 365.035 679.332 371.137 682.994 377.972C684.458 380.657 685.923 383.83 687.388 387.248C689.829 393.35 692.758 400.673 698.372 407.996C704.475 416.052 712.042 421.178 717.412 425.816C719.365 427.524 721.073 429.233 722.538 430.698C726.444 435.092 728.885 439.485 731.326 443.391C733.767 447.297 735.964 451.446 738.16 455.84C744.019 466.581 751.586 477.565 763.059 495.628C770.138 506.857 778.437 521.015 787.225 536.637C793.083 546.646 799.186 556.654 804.8 566.662C816.761 587.654 826.525 605.962 836.533 622.805C846.297 639.404 856.549 654.782 869.243 671.625C875.101 679.436 881.448 687.248 888.282 695.547C896.582 705.799 905.369 716.784 911.96 729.721C918.551 742.414 922.212 757.304 920.504 769.021" stroke="white" stroke-opacity="0.4" stroke-width="0.6252" stroke-miterlimit="10"/>
<path opacity="0.4268" d="M420.83 135.092C431.327 156.085 457.934 173.904 490.399 196.606C511.392 211.252 534.826 227.606 557.771 242.008C577.543 254.457 597.315 267.395 615.867 281.309C622.946 286.679 630.025 292.049 635.883 297.907C650.041 311.333 658.34 325.003 665.419 336.475C667.616 339.893 669.569 343.066 671.522 346.239C675.428 353.074 679.089 359.421 682.262 366.5C683.483 369.429 684.703 372.602 685.924 376.02C688.121 382.122 690.806 389.689 696.42 397.012C702.523 405.312 710.334 409.95 715.948 414.343C718.145 416.052 719.854 417.517 721.318 418.981C725.712 423.131 728.397 427.037 731.082 430.698C733.768 434.36 736.453 438.021 739.138 441.927C745.973 451.691 754.516 461.699 766.721 479.274C774.288 490.259 782.832 504.417 792.108 519.795C797.966 529.803 804.069 540.055 809.683 550.063C821.4 571.3 830.676 590.096 839.951 607.183C848.983 624.27 858.503 640.137 870.708 657.224C876.322 665.279 882.669 673.334 889.26 681.878C897.559 692.374 906.347 703.603 912.937 716.296C919.528 729.233 923.434 743.879 922.213 755.596" stroke="white" stroke-opacity="0.4" stroke-width="0.6195" stroke-miterlimit="10"/>
<path opacity="0.4098" d="M417.167 126.304C429.616 145.344 457.444 161.211 490.886 182.936C512.367 196.849 536.533 212.472 559.722 226.874C579.738 239.079 599.511 252.26 618.062 266.418C625.141 271.788 631.976 277.403 637.834 283.261C651.748 297.175 659.315 311.333 665.906 323.294C667.859 326.711 669.567 330.128 671.276 333.546C674.938 340.625 677.867 347.216 680.552 354.539C681.528 357.468 682.749 360.641 683.725 364.303C685.678 370.649 687.875 378.216 693.489 385.783C699.592 394.083 707.647 398.721 713.506 402.626C715.702 404.091 717.655 405.556 719.12 406.776C723.758 410.438 726.931 414.099 730.104 417.272C733.278 420.69 736.207 423.863 739.38 427.525C747.191 436.312 756.711 445.344 769.893 462.431C778.192 473.171 786.98 487.085 796.256 502.464C802.358 512.472 808.461 522.724 813.831 532.976C825.304 554.457 834.091 573.741 842.635 591.316C851.178 608.891 859.722 625.246 871.683 642.821C877.053 651.121 883.156 659.42 889.746 667.964C897.802 678.704 906.589 689.933 913.18 702.87C919.771 715.808 923.92 730.698 923.188 742.415" stroke="white" stroke-opacity="0.4" stroke-width="0.6137" stroke-miterlimit="10"/>
<path opacity="0.3927" d="M412.774 117.762C426.931 135.093 455.979 149.007 490.886 169.511C512.855 182.448 537.509 197.827 561.187 212.229C581.447 224.434 601.463 237.615 620.015 252.017C627.094 257.631 633.929 263.246 639.787 269.348C653.457 283.75 660.292 298.396 666.15 310.845C667.859 314.507 669.323 318.168 670.788 321.586C673.961 328.909 676.402 335.744 678.355 343.311C679.087 346.24 680.064 349.657 680.796 353.319C682.261 359.91 684.458 367.477 690.072 375.044C696.174 383.343 704.474 387.981 710.576 391.643C712.773 393.107 714.726 394.328 716.435 395.548C721.317 398.966 724.978 402.139 728.396 405.068C731.813 407.997 735.231 410.927 738.892 414.1C747.68 421.911 758.176 430.211 772.09 446.809C780.877 457.306 790.153 471.219 799.673 486.598C805.776 496.606 811.878 507.102 817.248 517.354C828.477 539.079 836.776 558.852 844.588 576.915C852.399 594.978 860.454 611.821 871.683 629.885C877.053 638.428 882.911 646.728 889.258 655.515C897.069 666.5 905.857 677.973 912.448 690.91C919.282 703.847 923.432 718.738 923.188 730.698" stroke="white" stroke-opacity="0.4" stroke-width="0.6079" stroke-miterlimit="10"/>
<path opacity="0.3756" d="M407.65 108.974C423.761 124.353 454.029 136.314 490.156 155.842C512.613 168.047 538 182.937 561.921 197.339C582.426 209.544 602.442 222.725 620.994 237.615C628.073 243.23 634.908 249.088 640.522 255.435C653.947 270.325 660.294 285.459 665.176 298.152C666.641 302.058 668.105 305.72 669.326 309.137C672.011 316.704 673.964 324.027 675.428 331.594C675.916 334.523 676.649 338.185 677.381 341.846C678.602 348.437 680.554 356.492 686.169 364.06C692.515 372.603 700.815 376.753 707.161 380.17C709.602 381.391 711.555 382.611 713.508 383.588C718.634 386.517 722.784 389.446 726.445 391.887C730.351 394.572 734.012 397.257 737.918 399.942C747.682 407.021 759.155 414.1 774.045 430.211C783.321 440.219 792.841 454.133 802.605 469.511C808.951 479.519 815.054 490.016 820.424 500.512C831.653 522.481 839.22 542.497 846.299 561.293C853.378 579.601 860.701 596.932 871.685 615.727C876.811 624.271 882.426 633.059 888.772 642.09C896.583 653.319 905.127 665.036 911.962 677.973C918.797 691.155 923.19 705.801 923.19 717.761" stroke="white" stroke-opacity="0.4" stroke-width="0.6021" stroke-miterlimit="10"/>
<path opacity="0.3585" d="M401.79 100.186C419.854 113.611 451.343 123.619 488.446 142.171C511.636 153.644 537.266 168.046 561.676 182.204C582.425 194.165 602.685 207.59 620.993 222.724C628.072 228.583 634.906 234.441 640.277 241.032C653.458 256.166 659.072 271.789 663.466 285.214C664.687 289.12 665.907 293.025 666.884 296.687C669.08 304.498 670.545 312.065 671.521 319.876C672.01 323.05 672.254 326.467 672.986 330.373C673.962 337.208 675.671 345.263 681.286 352.83C687.632 361.374 696.176 365.523 702.766 368.452C705.207 369.673 707.404 370.649 709.357 371.626C714.971 374.311 719.121 376.752 723.515 378.949C727.665 381.146 732.058 383.587 736.208 385.784C746.949 391.886 759.398 397.989 775.02 413.611C784.784 423.375 794.792 437.045 804.8 452.667C811.147 462.675 817.25 473.172 822.62 483.912C833.604 506.125 840.439 526.63 847.03 545.67C853.621 564.465 860.211 582.285 870.464 601.325C875.346 610.112 880.96 619.144 887.062 628.176C894.629 639.648 903.173 651.365 910.008 664.547C916.843 677.728 921.481 692.374 921.969 704.579" stroke="white" stroke-opacity="0.4" stroke-width="0.5963" stroke-miterlimit="10"/>
<path opacity="0.3415" d="M395.2 91.6431C414.972 103.116 447.682 111.415 486.25 128.746C509.928 139.487 536.046 153.401 560.945 167.558C581.937 179.519 602.198 192.945 620.749 208.323C627.828 214.182 634.419 220.284 640.033 227.119C652.971 242.741 657.853 258.852 661.514 272.766C662.49 276.916 663.467 280.821 664.199 284.727C665.908 292.782 666.884 300.593 667.372 308.649C667.617 311.822 667.861 315.483 668.105 319.389C668.593 326.468 670.058 334.523 675.916 342.334C682.263 350.878 690.806 354.784 697.885 357.713C700.57 358.689 702.767 359.666 704.72 360.398C710.578 362.595 715.216 364.792 719.854 366.5C724.492 368.453 729.13 370.406 733.768 372.359C745.485 377.485 758.91 382.611 775.509 397.989C785.761 407.509 796.258 421.179 806.266 436.557C812.856 446.565 818.959 457.306 824.085 468.046C834.826 490.748 841.172 511.496 847.031 531.024C852.889 550.308 858.747 568.616 868.756 588.144C873.393 597.176 878.764 606.451 884.866 615.727C892.433 627.2 900.733 639.405 907.568 652.586C914.402 665.768 919.284 680.658 920.261 692.863" stroke="white" stroke-opacity="0.4" stroke-width="0.5905" stroke-miterlimit="10"/>
<path opacity="0.3244" d="M387.633 83.0986C409.358 92.6185 443.288 98.9652 483.077 115.32C507.243 125.328 534.094 138.754 559.236 152.911C580.473 164.628 600.978 178.298 619.285 194.164C626.364 200.267 632.955 206.614 638.325 213.204C651.018 229.315 655.412 245.914 658.097 260.316C658.829 264.465 659.562 268.615 660.294 272.521C661.514 280.82 662.003 288.876 662.003 297.175C662.003 300.348 662.003 304.254 662.247 308.159C662.491 315.238 663.711 323.538 669.326 331.349C675.672 340.137 684.46 343.798 691.783 346.239C694.468 347.216 696.909 347.948 698.862 348.68C704.964 350.633 710.091 352.098 714.973 353.806C720.099 355.271 724.981 356.98 729.863 358.444C742.556 362.594 756.958 366.744 774.289 381.634C785.029 390.91 796.014 404.335 806.266 419.958C812.857 430.21 819.204 440.706 824.086 451.691C834.826 474.636 840.44 495.873 845.566 515.889C850.693 535.661 855.819 554.457 865.339 574.473C869.732 583.749 875.103 593.025 880.961 602.545C888.284 614.262 896.583 626.467 903.662 639.892C910.497 653.318 915.623 667.964 917.088 680.169" stroke="white" stroke-opacity="0.4" stroke-width="0.5847" stroke-miterlimit="10"/>
<path opacity="0.3073" d="M379.334 75.0435C402.767 82.6106 438.162 87.2485 478.927 102.383C503.581 111.659 530.92 124.596 556.551 138.51C578.032 150.227 598.78 163.896 617.088 180.007C624.167 186.109 630.757 192.7 635.883 199.535C648.333 216.134 651.994 233.221 654.191 247.867C654.923 252.261 655.167 256.41 655.656 260.56C656.388 269.348 656.388 277.403 655.9 285.946C655.656 289.364 655.411 293.025 655.411 297.175C655.411 304.498 656.388 312.798 662.002 320.853C668.349 329.64 677.381 333.058 684.948 335.255C687.633 335.987 690.318 336.719 692.515 337.208C699.106 338.672 704.476 339.893 709.846 341.113C715.216 342.334 720.586 343.554 725.957 344.775C739.626 347.948 755.005 351.366 773.312 365.767C784.541 374.555 795.769 387.981 806.266 403.603C813.101 413.855 819.203 424.596 824.085 435.58C834.581 458.77 839.707 480.251 844.345 500.755C848.983 521.015 853.377 540.299 862.409 560.804C866.559 570.324 871.685 579.844 877.543 589.364C884.866 601.325 893.166 613.774 900 627.199C907.079 640.625 912.449 655.271 914.158 667.72" stroke="white" stroke-opacity="0.4" stroke-width="0.5789" stroke-miterlimit="10"/>
<path opacity="0.2902" d="M369.812 66.9876C395.198 72.846 431.569 75.5312 473.799 89.4449C498.941 97.7443 527.013 110.438 552.887 124.351C574.612 136.068 595.361 149.738 613.669 166.093C620.747 172.439 627.338 179.03 632.464 186.109C644.669 202.952 647.599 220.771 649.063 235.905C649.551 240.299 649.795 244.693 649.795 248.843C650.04 257.874 649.551 266.174 648.575 274.961C648.087 278.379 647.843 282.284 647.599 286.434C647.11 294.001 647.843 302.545 653.701 310.356C660.048 319.144 669.324 322.561 677.135 324.514C680.064 325.246 682.505 325.734 684.946 326.223C691.781 327.443 697.639 328.175 703.254 329.152C709.112 329.884 714.726 330.861 720.585 331.593C735.231 334.034 751.585 336.231 770.625 350.144C782.342 358.688 794.059 372.114 804.799 387.736C811.634 397.988 817.981 408.729 822.863 419.957C833.115 443.391 837.753 465.36 841.659 486.353C845.564 507.101 849.226 526.873 857.769 547.866C861.675 557.63 866.801 567.394 872.415 577.158C879.494 589.363 887.794 601.812 894.873 615.238C901.951 628.663 907.566 643.554 909.519 656.003" stroke="white" stroke-opacity="0.4" stroke-width="0.5731" stroke-miterlimit="10"/>
<path opacity="0.2732" d="M359.561 59.4226C386.9 63.3283 424.491 64.0605 467.697 76.9979C493.328 84.565 521.888 96.7701 548.251 110.684C570.22 122.157 591.212 136.07 609.276 152.913C616.355 159.26 622.945 166.095 627.827 173.418C639.544 190.749 641.985 209.056 642.717 224.679C642.962 229.317 642.962 233.71 642.717 238.104C642.473 247.38 641.497 255.924 639.788 264.955C639.056 268.373 638.568 272.523 638.08 276.672C637.347 284.239 637.835 293.027 643.694 301.082C650.04 310.114 659.56 313.043 667.616 314.752C670.545 315.24 673.23 315.728 675.671 315.972C682.75 316.705 689.097 317.193 695.199 317.681C701.302 318.169 707.404 318.658 713.751 319.146C729.373 320.61 746.704 321.831 766.721 335.256C778.926 343.556 791.131 356.737 801.871 372.36C808.95 382.612 815.053 393.596 819.935 404.825C830.187 428.503 833.848 450.96 837.266 472.441C840.439 493.434 843.612 513.938 851.668 535.175C855.329 545.183 860.211 554.947 865.825 564.955C872.66 577.404 880.96 590.098 888.039 603.523C895.118 617.193 900.976 631.839 903.417 644.288" stroke="white" stroke-opacity="0.4" stroke-width="0.5674" stroke-miterlimit="10"/>
<path opacity="0.2561" d="M347.843 52.3405C376.891 54.2933 415.947 53.3169 460.373 65.0338C486.736 71.8686 515.54 83.5854 542.391 97.2551C564.604 108.728 585.597 122.642 603.904 139.729C610.983 146.319 617.33 153.154 622.212 160.721C633.685 178.541 635.637 197.336 635.393 213.447C635.393 218.085 635.149 222.723 634.905 227.361C634.173 236.881 632.708 245.912 630.511 254.944C629.779 258.606 628.803 262.511 628.314 266.905C627.338 274.716 627.582 283.504 633.44 291.559C639.787 300.591 649.551 303.52 657.851 304.741C661.024 305.229 663.709 305.473 666.15 305.717C673.717 306.205 680.064 306.205 686.654 306.449C693.245 306.449 699.592 306.693 706.182 306.693C722.781 307.182 741.089 307.67 761.837 320.607C774.531 328.663 787.224 341.844 797.964 357.466C805.043 367.719 811.39 378.703 816.028 390.176C826.036 414.342 829.209 437.043 831.894 459.012C834.579 480.493 836.776 501.486 844.343 523.211C848.005 533.463 852.643 543.471 858.013 553.723C864.848 566.417 872.903 579.11 879.982 592.779C887.061 606.449 893.164 621.095 896.093 633.788" stroke="white" stroke-opacity="0.4" stroke-width="0.5616" stroke-miterlimit="10"/>
<path opacity="0.239" d="M335.152 45.995C366.153 45.995 406.185 43.3099 452.076 53.8062C478.927 59.9087 508.464 71.1374 535.559 84.807C558.016 96.0357 579.253 110.194 597.316 127.525C604.395 134.115 610.742 141.194 615.624 149.005C626.852 167.313 628.073 186.597 627.341 202.952C627.096 207.834 626.608 212.472 626.12 217.11C624.9 226.874 622.947 236.149 620.262 245.425C619.285 249.087 618.309 253.236 617.332 257.63C615.868 265.686 616.112 274.473 621.726 282.773C628.073 291.804 638.081 294.734 646.625 295.71C649.798 295.954 652.727 296.198 655.168 296.198C662.979 296.198 669.814 295.954 676.649 295.71C683.484 295.466 690.563 295.222 697.397 294.978C714.973 294.49 734.257 294.001 755.738 306.45C768.919 314.262 781.856 327.199 793.085 342.821C800.164 353.074 806.51 364.058 811.148 375.775C820.912 400.185 823.598 423.375 825.55 445.588C827.503 467.557 828.968 489.038 836.291 511.251C839.708 521.747 844.102 531.999 849.472 542.252C856.063 555.189 864.118 568.126 871.441 581.796C878.764 595.466 884.867 610.112 888.284 623.049" stroke="white" stroke-opacity="0.4" stroke-width="0.5558" stroke-miterlimit="10"/>
<path opacity="0.222" d="M321.239 41.1139C353.948 39.1611 395.445 34.7672 442.313 44.043C469.652 49.4133 499.676 60.1537 527.26 73.8234C549.717 85.052 571.198 99.2098 589.505 117.029C596.34 123.62 602.931 130.943 607.569 138.754C618.553 157.306 619.042 177.322 617.577 194.165C617.089 199.047 616.601 203.929 615.624 208.811C613.915 218.819 611.474 228.339 608.301 237.859C607.081 241.52 605.86 245.914 604.884 250.308C603.175 258.363 602.931 267.395 608.789 275.695C615.136 284.97 625.388 287.411 634.42 288.144C637.593 288.388 640.767 288.388 643.452 288.388C651.507 287.9 658.83 287.411 666.153 286.923C673.476 286.191 680.799 285.703 688.122 285.215C706.674 283.75 726.934 282.285 749.391 294.246C763.061 301.569 776.487 314.507 787.715 330.373C795.038 340.625 801.385 351.854 806.023 363.571C815.543 388.225 817.74 411.659 818.96 434.604C820.181 457.061 821.157 479.03 827.748 501.732C830.921 512.472 835.315 522.969 840.441 533.465C847.032 546.646 854.843 559.584 862.166 573.497C869.489 587.411 875.836 602.057 879.497 614.75" stroke="white" stroke-opacity="0.4" stroke-width="0.55" stroke-miterlimit="10"/>
<path opacity="0.2049" d="M305.859 37.2091C340.521 33.3034 383.239 26.9568 431.327 35.2562C459.154 39.8941 489.911 50.1464 517.738 63.5719C540.44 74.8005 562.164 88.9584 580.228 107.022C587.063 113.857 593.653 121.18 598.047 129.235C608.788 148.275 608.788 168.779 606.347 186.11C605.614 191.237 604.882 196.119 603.906 201.001C601.709 211.253 598.78 221.017 595.118 230.781C593.653 234.442 592.189 238.836 591.212 243.474C589.26 251.774 588.771 261.049 594.63 269.349C600.976 278.625 611.473 281.066 620.749 281.31C624.166 281.554 627.339 281.31 630.024 281.066C638.568 280.333 646.135 279.357 653.702 278.381C661.513 277.404 669.081 276.428 676.648 275.451C696.176 273.01 717.412 270.569 740.602 282.286C754.76 289.365 768.674 302.302 780.146 317.925C787.469 328.177 793.816 339.406 798.454 351.367C807.974 376.265 809.438 400.187 809.927 423.62C810.659 446.566 810.659 468.779 817.006 491.969C819.935 502.709 824.084 513.45 829.211 524.19C835.557 537.371 843.368 550.797 850.691 564.711C858.014 578.624 864.605 593.27 868.755 606.208" stroke="white" stroke-opacity="0.4" stroke-width="0.5442" stroke-miterlimit="10"/>
<path opacity="0.1878" d="M289.261 34.2798C325.632 28.4214 369.57 20.3661 419.123 27.4451C447.682 31.3507 478.683 40.8706 506.999 54.5403C529.944 65.5248 551.669 79.9267 569.977 98.2343C576.812 105.069 583.158 112.636 587.796 120.936C598.292 140.464 597.56 161.456 594.631 179.276C593.654 184.646 592.678 189.772 591.458 194.654C588.772 205.15 585.355 215.158 581.205 225.167C579.497 229.072 577.788 233.466 576.567 238.104C574.126 246.647 573.638 255.923 579.497 264.467C586.087 273.987 596.584 275.94 606.104 276.184C609.521 276.184 612.694 275.94 615.624 275.695C624.411 274.475 632.466 273.254 640.278 272.034C648.333 270.569 656.388 269.349 664.444 268.128C684.948 264.955 707.161 261.538 731.327 272.522C745.973 279.357 760.375 292.05 771.848 307.917C779.415 318.169 785.762 329.642 790.156 341.603C799.431 366.745 800.408 391.155 800.164 414.833C800.164 438.022 799.431 460.968 805.29 484.646C807.975 495.63 812.125 506.615 817.007 517.355C823.353 530.781 830.92 544.45 838.487 558.364C845.81 572.278 852.645 586.924 857.283 600.105" stroke="white" stroke-opacity="0.4" stroke-width="0.5384" stroke-miterlimit="10"/>
<path opacity="0.1707" d="M271.439 32.3251C309.763 24.758 354.922 14.7498 405.451 20.6083C434.499 23.7816 465.988 32.8133 494.792 46.4829C517.981 57.4675 539.95 71.8694 558.014 90.6652C564.848 97.7441 571.195 105.311 575.589 113.855C585.841 133.871 584.376 155.108 580.715 173.659C579.739 179.03 578.274 184.4 576.809 189.526C573.636 200.266 569.73 210.519 565.093 220.771C563.384 224.676 561.431 229.07 559.966 233.952C557.281 242.496 556.549 252.016 562.163 260.559C568.754 270.079 579.494 272.032 589.258 271.788C592.676 271.788 596.093 271.3 599.022 270.811C608.054 269.347 616.354 267.638 624.897 265.929C633.441 264.221 641.74 262.512 650.284 260.803C671.764 256.654 694.954 252.26 719.852 263C735.231 269.591 749.633 282.04 761.594 297.907C769.161 308.159 775.751 319.632 779.901 331.837C788.933 357.223 789.177 382.121 788.689 406.287C787.956 429.965 786.736 453.399 791.862 477.565C794.303 488.793 798.209 500.022 803.091 511.007C809.193 524.676 817.004 538.346 824.327 552.504C831.895 566.661 838.729 581.308 843.855 594.245" stroke="white" stroke-opacity="0.4" stroke-width="0.5326" stroke-miterlimit="10"/>
<path opacity="0.1537" d="M251.914 31.1059C292.191 21.5859 338.57 9.86907 390.319 14.507C419.855 17.1921 452.077 25.4915 481.124 38.9171C504.558 49.6575 526.527 64.3036 544.591 83.3434C551.425 90.4223 557.772 98.2336 562.166 107.021C572.174 127.526 569.977 149.251 565.583 168.046C564.363 173.661 562.898 179.031 561.189 184.157C557.528 195.386 553.134 205.882 548.008 216.134C546.055 220.04 543.858 224.678 542.15 229.56C539.22 238.347 538 247.867 543.858 256.655C550.449 266.175 561.434 267.884 571.442 267.395C575.103 267.151 578.521 266.663 581.694 266.175C590.97 264.222 599.757 262.269 608.545 260.316C617.333 258.12 626.12 256.167 635.152 254.214C657.609 249.088 682.019 243.718 707.65 253.97C723.516 260.316 738.407 272.766 750.367 288.632C758.179 298.884 764.525 310.601 768.675 322.806C777.707 348.681 777.219 373.823 775.998 398.477C774.778 422.643 772.581 446.565 777.463 471.219C779.66 482.692 783.565 493.921 788.203 505.149C794.306 519.063 801.873 532.977 809.44 546.891C817.007 561.048 824.33 575.695 829.7 588.876" stroke="white" stroke-opacity="0.4" stroke-width="0.5268" stroke-miterlimit="10"/>
<path opacity="0.1366" d="M230.92 30.8599C272.905 19.3872 320.749 5.96165 373.474 9.37906C403.499 11.3319 436.208 19.1431 465.744 32.5686C489.422 43.3091 511.635 57.9551 529.699 77.239C536.534 84.5621 542.88 92.3733 547.03 101.405C556.794 122.154 554.109 144.611 548.983 163.895C547.518 169.509 545.809 175.123 543.857 180.494C539.707 191.966 534.825 202.707 528.966 213.203C526.77 217.353 524.329 221.991 522.62 226.873C519.202 235.66 517.982 245.424 523.84 254.212C530.431 263.976 541.66 265.441 551.912 264.708C555.573 264.464 559.235 263.732 562.408 263C572.172 260.803 581.204 258.362 590.236 255.921C599.512 253.48 608.543 251.039 617.819 248.598C641.253 242.495 666.639 236.393 693.002 245.913C709.357 251.771 724.735 264.22 736.94 280.087C744.751 290.339 751.342 302.056 755.492 314.505C764.279 340.624 763.303 366.01 761.35 391.397C759.397 416.051 756.468 440.461 760.862 465.603C762.815 477.32 766.476 488.793 771.114 500.266C776.973 514.423 784.54 528.337 792.107 542.495C799.674 556.653 807.241 571.299 812.855 584.724" stroke="white" stroke-opacity="0.4" stroke-width="0.521" stroke-miterlimit="10"/>
<path opacity="0.1195" d="M208.219 31.8373C252.157 18.4118 301.221 3.27756 355.168 5.47447C385.924 6.69498 418.878 14.018 448.902 27.4435C472.824 38.184 495.037 52.83 513.101 72.6022C519.936 79.9252 526.282 87.9805 530.188 97.0122C539.708 118.249 536.29 141.194 530.432 160.967C528.723 166.825 526.77 172.439 524.573 177.81C519.936 189.526 514.565 200.511 508.219 211.251C505.778 215.401 503.337 220.039 501.14 225.165C497.478 234.197 496.014 244.205 501.872 252.993C508.463 262.757 519.936 264.221 530.432 263.001C534.338 262.512 537.999 261.78 541.172 261.048C551.181 258.363 560.7 255.678 570.22 252.993C579.74 250.063 589.504 247.378 599.024 244.693C623.434 237.614 649.797 230.535 677.136 239.811C693.979 245.425 709.846 257.875 722.051 273.741C730.106 283.993 736.453 295.954 740.603 308.403C749.146 334.766 747.682 360.641 744.996 386.272C742.311 411.414 738.894 436.312 742.8 461.699C744.508 473.66 748.17 485.376 752.564 496.849C758.178 511.251 765.745 525.409 773.312 539.567C780.879 553.969 788.69 568.371 794.793 581.796" stroke="white" stroke-opacity="0.4" stroke-width="0.5153" stroke-miterlimit="10"/>
<path opacity="0.1024" d="M183.808 33.7907C229.455 18.4124 279.739 1.5694 335.15 2.54581C366.395 3.03401 400.081 9.86881 430.349 23.0502C454.515 33.5466 476.973 48.4367 495.036 68.453C501.871 76.0201 507.973 84.3196 512.123 93.3513C521.399 115.076 517.249 138.51 510.659 158.77C508.706 164.629 506.509 170.487 504.068 176.101C498.942 188.062 493.083 199.291 486.249 210.275C483.563 214.425 480.878 219.307 478.681 224.433C474.776 233.709 472.823 243.717 478.926 252.505C485.516 262.269 497.233 263.489 507.973 262.025C511.879 261.537 515.785 260.56 518.958 259.584C529.21 256.655 539.218 253.481 548.982 250.308C558.991 247.135 568.999 243.961 579.007 240.788C604.393 232.733 631.733 224.677 659.804 233.465C677.135 238.835 693.246 251.04 705.939 266.907C713.994 277.159 720.585 289.12 724.491 301.813C733.034 328.42 730.837 354.783 727.42 380.902C724.247 406.532 719.853 431.919 723.27 457.794C724.979 469.999 728.152 481.96 732.79 493.432C738.405 508.078 745.728 522.236 753.539 536.638C761.35 551.04 769.161 565.686 775.752 579.112" stroke="white" stroke-opacity="0.4" stroke-width="0.5095" stroke-miterlimit="10"/>
<path opacity="0.0854" d="M157.932 36.964C205.531 19.6328 257.036 1.08119 313.424 0.837096C345.157 0.592997 379.331 6.9396 410.088 20.121C434.498 30.6174 456.955 45.5075 475.018 65.7678C481.853 73.3349 487.956 81.8785 491.861 91.1544C500.893 113.368 496.255 137.289 488.688 157.794C486.491 163.896 484.05 169.755 481.609 175.613C475.995 187.818 469.648 199.291 462.325 210.52C459.396 214.913 456.467 219.795 454.026 224.922C449.632 234.197 447.679 244.45 453.537 253.481C460.128 263.489 472.089 264.466 483.074 262.757C486.979 262.025 490.885 261.048 494.546 260.072C505.043 256.655 515.539 253.237 525.791 249.82C536.288 246.158 546.54 242.741 556.792 239.323C583.155 230.536 611.471 221.26 640.519 229.559C658.338 234.686 674.937 246.646 687.63 262.757C695.929 273.009 702.276 284.97 706.182 297.908C714.481 324.759 711.796 351.61 707.646 378.217C703.741 404.091 698.859 430.21 701.788 456.573C703.252 469.022 706.426 480.983 710.82 492.944C716.19 507.834 723.513 522.236 731.324 536.638C739.135 551.04 747.191 565.686 754.27 579.356" stroke="white" stroke-opacity="0.4" stroke-width="0.5037" stroke-miterlimit="10"/>
<path opacity="0.0683" d="M130.107 41.1135C179.66 22.0737 232.385 1.56918 289.993 0.104574C322.458 -0.871827 356.877 4.98664 388.122 17.924C412.776 28.4203 435.477 43.3104 453.541 63.8149C460.375 71.6261 466.478 80.1696 470.139 89.6896C478.927 112.147 473.557 136.801 465.502 157.794C463.061 163.896 460.619 169.999 457.69 175.857C451.832 188.306 444.753 200.267 436.942 211.496C434.013 215.89 430.595 220.772 428.154 226.142C423.516 235.662 421.319 245.914 427.178 254.946C433.768 264.954 445.973 265.686 457.202 263.733C461.352 263.001 465.257 261.781 468.919 260.56C479.903 256.899 490.4 252.993 501.14 249.087C511.881 245.182 522.621 241.276 533.361 237.37C560.701 227.606 589.993 217.598 619.773 225.41C638.081 230.292 655.168 242.253 668.105 258.119C676.404 268.615 682.995 280.576 686.657 293.514C694.712 320.853 691.539 347.948 686.657 374.799C682.019 401.162 676.404 427.769 678.846 454.62C680.066 467.313 682.995 479.518 687.389 491.479C692.759 506.369 699.838 521.015 707.649 535.662C715.461 550.308 723.76 564.71 731.327 578.379" stroke="white" stroke-opacity="0.4" stroke-width="0.4979" stroke-miterlimit="10"/>
<path opacity="0.0512" d="M100.57 46.7281C151.831 25.7355 206.021 3.76641 264.85 0.8372C297.803 -0.871503 332.954 4.49868 364.443 17.436C389.341 27.6882 412.042 42.8225 430.106 63.8152C436.941 71.6264 443.043 80.414 446.705 90.178C455.248 113.123 449.146 138.266 440.358 159.747C437.673 166.093 434.988 172.196 431.815 178.298C425.468 190.992 417.901 203.197 409.601 214.669C406.428 219.063 403.011 224.189 400.326 229.559C395.444 239.324 393.002 249.576 398.861 258.852C405.452 268.86 417.901 269.592 429.374 267.151C433.523 266.419 437.673 264.954 441.334 263.734C452.563 259.584 463.548 255.434 474.532 251.284C485.761 247.135 496.745 242.741 507.974 238.591C536.29 227.851 566.558 216.866 597.315 224.189C616.111 228.827 633.686 240.544 646.623 256.655C655.167 267.151 661.513 279.112 665.419 292.293C673.23 319.877 669.325 347.216 663.954 374.799C658.828 401.65 652.237 428.746 654.434 456.085C655.411 469.022 658.34 481.471 662.49 493.676C667.616 508.811 674.939 523.701 682.75 538.347C690.561 552.993 699.105 567.395 706.916 581.309" stroke="white" stroke-opacity="0.4" stroke-width="0.4921" stroke-miterlimit="10"/>
<path opacity="0.0341" d="M68.8363 53.5629C122.05 30.6175 177.461 6.9397 237.266 2.54589C270.952 0.104886 306.346 4.98695 338.323 17.9243C363.466 28.1765 386.411 43.5548 404.231 64.5475C411.065 72.6028 417.168 81.3905 420.585 91.1545C428.885 114.588 422.05 140.219 412.53 162.188C409.845 168.534 406.672 174.881 403.498 181.228C396.663 194.165 388.608 206.614 379.821 218.331C376.403 222.969 372.742 228.095 369.812 233.465C364.442 243.229 361.757 253.97 367.86 263.001C374.45 273.254 387.144 273.742 398.86 271.057C403.254 270.08 407.404 268.616 411.065 267.151C422.538 262.513 434.011 258.119 445.484 253.481C456.956 248.844 468.429 244.206 480.146 239.568C509.438 227.851 540.683 215.89 572.172 222.969C591.456 227.119 609.275 238.835 622.457 254.946C631 265.442 637.591 277.647 641.252 290.829C649.064 318.656 644.426 346.484 638.567 374.555C632.709 401.895 625.63 429.234 627.095 457.061C627.827 469.999 630.512 482.692 634.662 495.141C639.788 510.519 646.867 525.41 654.678 540.056C662.733 554.702 671.277 569.348 679.576 583.261" stroke="white" stroke-opacity="0.4" stroke-width="0.4863" stroke-miterlimit="10"/>
<path opacity="0.0171" d="M35.3938 61.8621C90.3165 36.9638 147.192 11.5773 208.217 5.963C242.391 3.03379 278.518 7.18353 310.739 19.8768C336.126 29.8849 359.071 45.5074 377.135 66.7441C383.97 74.7995 389.828 83.8311 393.245 93.8393C401.301 117.761 393.978 143.88 383.726 166.093C380.796 172.684 377.379 179.03 373.961 185.377C366.638 198.803 358.095 211.252 348.819 223.213C345.158 227.851 341.252 232.977 338.323 238.591C332.708 248.599 329.779 259.34 335.882 268.615C342.472 278.868 355.41 279.112 367.371 276.182C371.765 275.206 376.158 273.497 380.064 272.033C392.025 267.151 403.742 262.269 415.459 257.387C427.42 252.505 439.38 247.379 451.097 242.497C481.366 229.803 513.587 217.11 546.052 223.457C565.825 227.362 584.132 239.079 597.558 255.19C606.101 265.686 612.692 277.891 616.353 291.317C623.921 319.388 618.794 347.704 612.204 376.264C605.613 404.091 597.802 431.919 599.022 460.234C599.51 473.416 602.196 486.353 606.101 498.802C610.983 514.425 618.062 529.559 625.873 544.205C633.929 559.095 642.96 573.497 651.504 587.411" stroke="white" stroke-opacity="0.4" stroke-width="0.4805" stroke-miterlimit="10"/>
<path opacity="0.01" d="M-1.89166e-05 71.3814C56.8754 44.5303 114.971 17.4351 176.973 10.6003C238.975 3.76551 306.835 21.0966 347.599 70.649C354.434 78.9485 360.293 87.9802 363.71 98.2325C371.521 122.398 363.466 149.005 352.481 171.951C342.473 192.943 330.024 212.472 315.378 230.047C304.394 243.228 291.7 261.536 301.22 275.938C310.496 290.096 331.245 284.969 346.135 278.379C370.545 267.638 394.955 257.142 419.365 246.402C450.61 232.976 483.807 219.062 517.005 224.921C550.447 230.779 579.495 258.363 588.527 292.537C603.173 348.68 566.314 405.799 567.778 463.895C568.999 511.251 595.117 553.236 620.26 592.536" stroke="white" stroke-opacity="0.4" stroke-width="0.4747" stroke-miterlimit="10"/>
</g>
</g>
<defs>
<clipPath id="clip0_661_5608">
<rect width="938" height="910" fill="white"/>
</clipPath>
</defs>
</svg>
