<svg width="1440" height="396" viewBox="0 0 1440 396" fill="none" xmlns="http://www.w3.org/2000/svg">
<g clip-path="url(#clip0)">
<rect width="1440" height="396" fill="white"/>
<path d="M452.67 -30L452.67 123.333L606.003 123.333L606.003 -30L452.67 -30Z" fill="url(#paint0_linear)"/>
<path d="M452.669 123.333C537.352 123.333 606.002 54.6839 606.002 -29.9998V-29.9998L452.669 -29.9998L452.669 123.333V123.333Z" fill="#A9CBD3"/>
<path d="M146.005 123.333L299.338 123.333L299.338 -29.9998L146.005 -29.9998L146.005 123.333Z" fill="url(#paint1_linear)"/>
<path d="M299.334 123.333C299.334 38.6496 230.684 -30 146.001 -30V-30L146.001 123.333L299.334 123.333V123.333Z" fill="#A9CBD3"/>
<path d="M914.029 123L914.029 277L760.029 277L760.029 123L914.029 123Z" fill="url(#paint2_linear)"/>
<path d="M760.029 277L914.029 277L760.029 123L760.029 277Z" fill="#00758F"/>
<path d="M914.029 123L914.029 277L1068.03 277L1068.03 123L914.029 123Z" fill="url(#paint3_linear)"/>
<path d="M1068.03 277L912.029 277L1068.03 121L1068.03 277Z" fill="url(#paint4_linear)"/>
<path d="M759.334 430L912.667 430L912.667 276.667L759.334 276.667L759.334 430Z" fill="#A9CBD3"/>
<path d="M912.67 430C912.67 345.316 844.02 276.667 759.337 276.667V276.667L759.337 430L912.67 430V430Z" fill="url(#paint5_linear)"/>
<path d="M1219.37 276.333L1372.7 276.333L1372.7 123L1219.37 123L1219.37 276.333Z" fill="url(#paint6_linear)"/>
<path d="M1066.03 276.333L1219.36 276.333L1219.36 123L1066.03 123L1066.03 276.333Z" fill="url(#paint7_linear)"/>
<path d="M1372.67 276.667L1526 276.666L1526 123.333L1372.67 123.333L1372.67 276.667Z" fill="#A9CBD3"/>
<path d="M759.334 123.333H452.667V430H759.334V123.333Z" fill="url(#paint8_linear)"/>
<path d="M452.67 123.333H146.003V430H452.67V123.333Z" fill="url(#paint9_linear)"/>
<path d="M1372.67 123.333L1526 123.333L1526 -29.9998L1372.67 -29.9998L1372.67 123.333Z" fill="url(#paint10_linear)"/>
<path d="M1219.33 123.333L1372.67 123.333L1372.67 -29.9998L1219.33 -29.9998L1219.33 123.333Z" fill="#A9CBD3"/>
<path d="M1066 123.333L1219.33 123.333L1219.33 -29.9998L1066 -29.9998L1066 123.333Z" fill="#00758F"/>
<path d="M1372.67 -29.9998L1372.67 123.333L1219.33 -29.9998L1372.67 -29.9998Z" fill="url(#paint11_linear)"/>
<path d="M1066 123.333L912.668 123.333L912.668 -29.9998L1066 -29.9998L1066 123.333Z" fill="url(#paint12_linear)"/>
<path d="M912.668 -29.9998L912.668 123.333L1066 -29.9998L912.668 -29.9998Z" fill="url(#paint13_linear)"/>
<path d="M912.67 123.333L759.337 123.333L759.337 -29.9998L912.67 -29.9998L912.67 123.333Z" fill="#A9CBD3"/>
<path d="M759.337 -29.9998L759.337 123.333L912.67 -29.9998L759.337 -29.9998Z" fill="url(#paint14_linear)"/>
<path d="M299.334 123.333L299.334 -29.9998L452.667 -29.9998L452.667 123.334L299.334 123.333Z" fill="url(#paint15_linear)"/>
<path d="M452.667 -29.9998L299.334 -29.9998L452.667 123.334L452.667 -29.9998Z" fill="url(#paint16_linear)"/>
<path d="M1525.36 430.333L1372.03 430.333L1372.03 277L1525.36 277L1525.36 430.333Z" fill="url(#paint17_linear)"/>
<path d="M1372.03 277L1372.03 430.333L1525.36 277L1372.03 277Z" fill="url(#paint18_linear)"/>
<path d="M1219.37 276.333H1066.03V429.667H1219.37V276.333Z" fill="url(#paint19_linear)"/>
<path fill-rule="evenodd" clip-rule="evenodd" d="M1143.44 46.6667L1219.33 123.333H1066L1141.9 46.6666L1066 -30L1219.33 -30L1143.44 46.6667Z" fill="url(#paint20_linear)"/>
<path d="M1219.37 123C1219.37 207.684 1288.02 276.333 1372.7 276.333V276.333L1372.7 123L1219.37 123V123Z" fill="url(#paint21_linear)"/>
<path fill-rule="evenodd" clip-rule="evenodd" d="M1526 276.667C1441.32 276.667 1372.67 208.017 1372.67 123.333C1372.67 38.6496 1441.32 -30 1526 -30C1610.68 -30 1679.33 38.6496 1679.33 123.333C1679.33 208.017 1610.68 276.667 1526 276.667ZM1526 208.518C1478.95 208.518 1440.82 170.38 1440.82 123.333C1440.82 76.2868 1478.95 38.1481 1526 38.1481C1573.05 38.1481 1611.19 76.2868 1611.19 123.333C1611.19 170.38 1573.05 208.518 1526 208.518Z" fill="url(#paint22_linear)"/>
<path d="M759.334 -30H606.001V123.333H759.334V-30Z" fill="#00758F"/>
<path d="M1066 276.667H912.668V430H1066V276.667Z" fill="#A9CBD3"/>
<path d="M1372.7 276.333H1219.36V429.667H1372.7V276.333Z" fill="#00758F"/>
<path d="M1066.03 353C1066.03 395.342 1100.36 429.667 1142.7 429.667C1185.04 429.667 1219.37 395.342 1219.37 353C1219.37 310.658 1185.04 276.333 1142.7 276.333C1100.36 276.333 1066.03 310.658 1066.03 353Z" fill="url(#paint23_linear)"/>
<path d="M333.836 46.6665C333.836 70.4838 352.715 89.7915 376.003 89.7915C399.291 89.7915 418.169 70.4838 418.169 46.6665C418.169 22.8492 399.291 3.5415 376.003 3.5415C352.715 3.5415 333.836 22.8492 333.836 46.6665Z" fill="url(#paint24_linear)"/>
<path d="M146.003 430C146.003 389.728 153.936 349.85 169.347 312.644C184.758 275.437 207.347 241.631 235.824 213.154C264.301 184.677 298.107 162.089 335.314 146.677C372.52 131.266 412.398 123.333 452.67 123.333L452.67 430H146.003Z" fill="#00758F"/>
<path d="M759.336 430C759.336 389.728 751.404 349.85 735.993 312.644C720.581 275.437 697.993 241.631 669.516 213.154C641.039 184.677 607.233 162.089 570.026 146.677C532.82 131.266 492.942 123.333 452.67 123.333L452.67 430H759.336Z" fill="url(#paint25_linear)"/>
<path d="M299.337 430C299.337 409.864 303.303 389.925 311.008 371.322C318.714 352.718 330.009 335.815 344.247 321.577C358.485 307.338 375.389 296.044 393.992 288.338C412.595 280.633 432.534 276.667 452.67 276.667L452.67 430H299.337Z" fill="url(#paint26_linear)"/>
<path d="M606.003 430C606.003 409.864 602.037 389.925 594.331 371.322C586.626 352.718 575.331 335.815 561.093 321.577C546.855 307.338 529.951 296.044 511.348 288.338C492.745 280.633 472.806 276.667 452.67 276.667L452.67 430H606.003Z" fill="url(#paint27_linear)"/>
<rect y="-64" width="1440" height="460" fill="url(#paint28_linear)"/>
</g>
<defs>
<linearGradient id="paint0_linear" x1="452.67" y1="46.6666" x2="606.228" y2="46.6666" gradientUnits="userSpaceOnUse">
<stop offset="0.203125" stop-color="#002E38"/>
<stop offset="1" stop-color="#00758F"/>
</linearGradient>
<linearGradient id="paint1_linear" x1="222.672" y1="123.333" x2="222.672" y2="-30.2247" gradientUnits="userSpaceOnUse">
<stop offset="0.203125" stop-color="#002E38"/>
<stop offset="1" stop-color="#00758F"/>
</linearGradient>
<linearGradient id="paint2_linear" x1="914.029" y1="200" x2="759.803" y2="200" gradientUnits="userSpaceOnUse">
<stop offset="0.203125" stop-color="#002E38"/>
<stop offset="1" stop-color="#00758F"/>
</linearGradient>
<linearGradient id="paint3_linear" x1="914.029" y1="200" x2="1068.26" y2="200" gradientUnits="userSpaceOnUse">
<stop offset="0.203125" stop-color="#002E38"/>
<stop offset="1" stop-color="#00758F"/>
</linearGradient>
<linearGradient id="paint4_linear" x1="912.029" y1="199" x2="1068.03" y2="199" gradientUnits="userSpaceOnUse">
<stop stop-color="#00758F"/>
<stop offset="1" stop-color="#003C4A"/>
</linearGradient>
<linearGradient id="paint5_linear" x1="836.003" y1="276.667" x2="836.003" y2="430.225" gradientUnits="userSpaceOnUse">
<stop offset="0.203125" stop-color="#002E38"/>
<stop offset="1" stop-color="#00758F"/>
</linearGradient>
<linearGradient id="paint6_linear" x1="1296.03" y1="276.333" x2="1296.03" y2="122.775" gradientUnits="userSpaceOnUse">
<stop offset="0.203125" stop-color="#002E38"/>
<stop offset="1" stop-color="#00758F"/>
</linearGradient>
<linearGradient id="paint7_linear" x1="1142.7" y1="276.333" x2="1142.7" y2="122.775" gradientUnits="userSpaceOnUse">
<stop offset="0.203125" stop-color="#002E38"/>
<stop offset="1" stop-color="#00758F"/>
</linearGradient>
<linearGradient id="paint8_linear" x1="632.994" y1="305.108" x2="452.667" y2="305.149" gradientUnits="userSpaceOnUse">
<stop stop-color="#D3EFF5"/>
<stop offset="1" stop-color="#D3EFF5" stop-opacity="0.6"/>
</linearGradient>
<linearGradient id="paint9_linear" x1="299.337" y1="123.333" x2="299.337" y2="430" gradientUnits="userSpaceOnUse">
<stop stop-color="#00758F"/>
<stop offset="1" stop-color="#003C4A"/>
</linearGradient>
<linearGradient id="paint10_linear" x1="1449.34" y1="123.333" x2="1449.34" y2="-29.9998" gradientUnits="userSpaceOnUse">
<stop stop-color="#00758F"/>
<stop offset="1" stop-color="#003C4A"/>
</linearGradient>
<linearGradient id="paint11_linear" x1="1296" y1="123.333" x2="1296" y2="-29.9998" gradientUnits="userSpaceOnUse">
<stop stop-color="#00758F"/>
<stop offset="1" stop-color="#003C4A"/>
</linearGradient>
<linearGradient id="paint12_linear" x1="989.334" y1="123.333" x2="989.334" y2="-30.2247" gradientUnits="userSpaceOnUse">
<stop offset="0.203125" stop-color="#002E38"/>
<stop offset="1" stop-color="#00758F"/>
</linearGradient>
<linearGradient id="paint13_linear" x1="989.334" y1="123.333" x2="989.334" y2="-29.9998" gradientUnits="userSpaceOnUse">
<stop stop-color="#00758F"/>
<stop offset="1" stop-color="#003C4A"/>
</linearGradient>
<linearGradient id="paint14_linear" x1="849.5" y1="32.4464" x2="759.337" y2="32.4258" gradientUnits="userSpaceOnUse">
<stop stop-color="#D3EFF5"/>
<stop offset="1" stop-color="#D3EFF5" stop-opacity="0.6"/>
</linearGradient>
<linearGradient id="paint15_linear" x1="299.334" y1="46.6669" x2="452.892" y2="46.6669" gradientUnits="userSpaceOnUse">
<stop offset="0.203125" stop-color="#002E38"/>
<stop offset="1" stop-color="#00758F"/>
</linearGradient>
<linearGradient id="paint16_linear" x1="390.221" y1="60.1634" x2="390.242" y2="-29.9999" gradientUnits="userSpaceOnUse">
<stop stop-color="#D3EFF5"/>
<stop offset="1" stop-color="#D3EFF5" stop-opacity="0.6"/>
</linearGradient>
<linearGradient id="paint17_linear" x1="1448.7" y1="430.333" x2="1448.7" y2="276.775" gradientUnits="userSpaceOnUse">
<stop offset="0.203125" stop-color="#002E38"/>
<stop offset="1" stop-color="#00758F"/>
</linearGradient>
<linearGradient id="paint18_linear" x1="1448.7" y1="430.333" x2="1448.7" y2="277" gradientUnits="userSpaceOnUse">
<stop stop-color="#00758F"/>
<stop offset="1" stop-color="#003C4A"/>
</linearGradient>
<linearGradient id="paint19_linear" x1="1142.7" y1="276.333" x2="1142.7" y2="429.667" gradientUnits="userSpaceOnUse">
<stop stop-color="#00758F"/>
<stop offset="1" stop-color="#003C4A"/>
</linearGradient>
<linearGradient id="paint20_linear" x1="1142.67" y1="-30" x2="1142.67" y2="123.333" gradientUnits="userSpaceOnUse">
<stop stop-color="#00758F"/>
<stop offset="1" stop-color="#003C4A"/>
</linearGradient>
<linearGradient id="paint21_linear" x1="1296.03" y1="276.333" x2="1296.03" y2="123" gradientUnits="userSpaceOnUse">
<stop stop-color="#00758F"/>
<stop offset="1" stop-color="#003C4A"/>
</linearGradient>
<linearGradient id="paint22_linear" x1="1552.99" y1="151.774" x2="1372.67" y2="151.815" gradientUnits="userSpaceOnUse">
<stop stop-color="#D3EFF5"/>
<stop offset="1" stop-color="#D3EFF5" stop-opacity="0.6"/>
</linearGradient>
<linearGradient id="paint23_linear" x1="1142.7" y1="276.333" x2="1142.7" y2="429.892" gradientUnits="userSpaceOnUse">
<stop offset="0.203125" stop-color="#002E38"/>
<stop offset="1" stop-color="#00758F"/>
</linearGradient>
<linearGradient id="paint24_linear" x1="376.003" y1="3.5415" x2="376.003" y2="89.7915" gradientUnits="userSpaceOnUse">
<stop stop-color="#00758F"/>
<stop offset="1" stop-color="#003C4A"/>
</linearGradient>
<linearGradient id="paint25_linear" x1="606.003" y1="123.333" x2="606.003" y2="430" gradientUnits="userSpaceOnUse">
<stop stop-color="#00758F"/>
<stop offset="1" stop-color="#003C4A"/>
</linearGradient>
<linearGradient id="paint26_linear" x1="389.5" y1="367.554" x2="299.337" y2="367.574" gradientUnits="userSpaceOnUse">
<stop stop-color="#D3EFF5"/>
<stop offset="1" stop-color="#D3EFF5" stop-opacity="0.6"/>
</linearGradient>
<linearGradient id="paint27_linear" x1="529.337" y1="276.667" x2="529.337" y2="430.225" gradientUnits="userSpaceOnUse">
<stop offset="0.203125" stop-color="#002E38"/>
<stop offset="1" stop-color="#00758F"/>
</linearGradient>
<linearGradient id="paint28_linear" x1="-1.07288e-05" y1="166" x2="1440" y2="166" gradientUnits="userSpaceOnUse">
<stop offset="0.268064" stop-color="#D3EFF5"/>
<stop offset="1" stop-color="#D3EFF5" stop-opacity="0.9"/>
</linearGradient>
<clipPath id="clip0">
<rect width="1440" height="396" fill="white"/>
</clipPath>
</defs>
</svg>
