<svg width="340" height="340" viewBox="0 0 340 340" fill="none" xmlns="http://www.w3.org/2000/svg">
<g clip-path="url(#clip0_39_249)">
<path opacity="0.3" d="M167.418 1.00278C153.612 1.06718 140.427 2.24928 128.826 4.31015C94.6509 10.3715 88.4459 23.0585 88.4459 46.4555V77.3557H169.207V87.6558H88.4459H58.1372C34.6659 87.6558 14.1138 101.819 7.68535 128.762C0.270226 159.644 -0.0586758 178.916 7.68535 211.162C13.4261 235.166 27.1358 252.268 50.6071 252.268H78.3744V215.226C78.3744 188.465 101.438 164.859 128.826 164.859H209.493C231.947 164.859 249.873 146.298 249.873 123.659V46.4555C249.873 24.4829 231.409 7.97728 209.493 4.31015C195.619 1.99166 181.224 0.938376 167.418 1.00278ZM123.743 25.8553C132.085 25.8553 138.898 32.8061 138.898 41.3527C138.898 49.8689 132.085 56.7556 123.743 56.7556C115.371 56.7556 108.589 49.8689 108.589 41.3527C108.589 32.8061 115.371 25.8553 123.743 25.8553Z" fill="url(#paint0_linear_39_249)"/>
<path opacity="0.3" d="M261.021 88.0732V124.038C261.021 151.921 237.418 175.39 210.503 175.39H129.731C107.606 175.39 89.2981 194.355 89.2981 216.546V293.668C89.2981 315.617 108.355 328.528 129.731 334.825C155.329 342.363 179.876 343.726 210.503 334.825C230.861 328.921 250.936 317.04 250.936 293.668V262.801H170.164V252.511H250.936H291.369C314.871 252.511 323.629 236.093 331.802 211.449C340.245 186.079 339.885 161.681 331.802 129.136C325.994 105.703 314.901 88.0732 291.369 88.0732H261.021ZM215.592 283.379C223.975 283.379 230.767 290.258 230.767 298.765C230.767 307.303 223.975 314.246 215.592 314.246C207.239 314.246 200.418 307.303 200.418 298.765C200.418 290.258 207.239 283.379 215.592 283.379Z" fill="url(#paint1_linear_39_249)"/>
</g>
<defs>
<linearGradient id="paint0_linear_39_249" x1="32.6016" y1="5.59638" x2="235.502" y2="247.712" gradientUnits="userSpaceOnUse">
<stop offset="0.19459" stop-color="#CBEEFF"/>
<stop offset="0.753437" stop-color="#CBEEFF" stop-opacity="0"/>
</linearGradient>
<linearGradient id="paint1_linear_39_249" x1="120.002" y1="92.7" x2="324.357" y2="335.762" gradientUnits="userSpaceOnUse">
<stop offset="0.19459" stop-color="#CBEEFF"/>
<stop offset="0.753437" stop-color="#CBEEFF" stop-opacity="0"/>
</linearGradient>
<clipPath id="clip0_39_249">
<rect width="340" height="340" fill="white"/>
</clipPath>
</defs>
</svg>
