<svg width="104" height="48" viewBox="0 0 104 48" fill="none" xmlns="http://www.w3.org/2000/svg">
<path fill-rule="evenodd" clip-rule="evenodd" d="M55.1101 3.68367C55.0761 3.71506 54.8735 3.83337 54.6598 3.9465C53.4945 4.56194 53.5059 4.53962 54.0613 5.09798C54.3013 5.33954 54.4976 5.55463 54.4976 5.5759C54.4976 5.68306 53.9674 5.80682 52.9079 5.94719C52.6932 5.97573 52.4545 6.03255 52.3778 6.07355C52.3011 6.11454 52.1357 6.14801 52.0104 6.14801C51.8848 6.14801 51.7153 6.17396 51.6334 6.20561C51.5515 6.23726 51.2075 6.31329 50.869 6.374C50.2591 6.48375 49.808 6.58598 49.1195 6.7702C48.6621 6.8924 48.4817 6.93884 47.4997 7.18585C46.6274 7.40535 46.5507 7.42689 45.8149 7.65858C45.5476 7.74265 45.1685 7.85889 44.9725 7.91675C44.7764 7.97487 44.0765 8.20008 43.4174 8.41776C42.7581 8.63545 42.1312 8.83705 42.0241 8.86559C41.2592 9.07108 37.5856 10.3788 37.5856 10.4457C37.5856 10.4659 37.7473 10.8922 37.9449 11.393C38.4829 12.7567 38.5806 12.463 37.0989 13.9331C35.6668 15.3542 35.7695 15.3015 35.0618 14.9774C34.7963 14.856 34.5558 14.7709 34.5272 14.7885C34.4986 14.8059 34.4747 15.728 34.4742 16.8372C34.4732 19.1589 34.5402 18.9165 33.7948 19.2889C30.5945 20.8884 29.1348 22.7083 29.7456 24.3372C29.8704 24.67 30.5136 25.4736 30.5196 25.3044C30.5214 25.2598 30.4996 25.2235 30.4712 25.2235C30.3511 25.2235 30.1665 24.471 30.178 24.0274C30.2112 22.7376 31.8126 21.1359 34.2813 19.9235C34.7204 19.7079 35.1185 19.4993 35.1663 19.4598C35.2342 19.4035 35.2529 19.0551 35.2529 17.852C35.2529 16.1336 35.2669 16.0744 35.6338 16.2636C35.7414 16.3193 35.8982 16.3647 35.9819 16.3647C36.0657 16.3647 36.1619 16.3899 36.1957 16.4205C36.3735 16.5824 38.5858 16.8824 39.5944 16.8816C42.1198 16.8795 44.7294 16.0845 46.9045 14.6546C47.5304 14.2429 47.6245 14.2922 47.7217 15.0822C47.7706 15.4802 47.8374 15.5438 48.1429 15.4831C48.8101 15.3497 48.0405 13.5374 47.119 13.0722C46.4867 12.7528 46.2842 12.8615 46.722 13.2855C46.8645 13.4235 46.9812 13.5769 46.9812 13.6264C46.9812 13.8078 45.1722 14.8464 44.2598 15.1889C42.6912 15.7776 41.7734 15.9374 39.9506 15.939C38.5364 15.9403 38.4787 15.9346 37.1595 15.6642C36.5656 15.5428 36.5399 15.5882 38.0149 14.1461C39.4912 12.7027 39.4116 12.8999 38.979 11.7526C38.6048 10.7594 38.5809 10.8224 39.4405 10.5318C39.8279 10.4008 40.5241 10.165 40.9875 10.008C41.7935 9.73504 43.9491 9.04124 44.3568 8.92345C44.7179 8.81941 45.3908 8.6204 45.8796 8.47303C46.1469 8.39234 46.4532 8.30438 46.56 8.27739C46.6669 8.25067 47.2064 8.1116 47.7586 7.9689C48.3111 7.82594 49.0111 7.64743 49.314 7.57192C49.6169 7.49668 49.9788 7.40457 50.1179 7.36773C50.2572 7.33089 50.7094 7.23333 51.1223 7.15134C51.9228 6.99229 52.3983 6.88462 52.7205 6.78888C52.8299 6.75644 52.9857 6.72998 53.0668 6.72998C53.1479 6.72998 53.3645 6.68976 53.5481 6.64072C53.7319 6.59169 54.0863 6.51774 54.3356 6.47675C55.7183 6.24842 56.1335 6.15657 56.1039 6.08522C56.0838 6.03774 55.424 5.47912 54.9643 5.12055C54.6245 4.85564 54.6351 4.76717 55.0394 4.48929C55.3876 4.24981 55.6096 4.22152 56.0183 4.36397C56.1621 4.41404 56.4546 4.50382 56.6683 4.56323C57.6025 4.82295 58.5837 5.12652 58.8716 5.24509C58.9428 5.27441 59.2928 5.4044 59.6492 5.53387C60.9417 6.00349 61.9905 6.6908 62.4302 7.35683C62.7302 7.81141 62.7918 7.84721 62.7918 7.56699C62.7918 6.50503 61.2363 5.34628 58.9363 4.69478C58.7226 4.63407 58.3144 4.5142 58.0292 4.42805C57.4358 4.24877 57.0882 4.14447 56.3121 3.91251C56.0092 3.82196 55.6944 3.72051 55.6125 3.68704C55.425 3.61024 55.1902 3.60868 55.1101 3.68367Z" fill="white"/>
<path fill-rule="evenodd" clip-rule="evenodd" d="M54.1082 2.14715C53.8053 2.1775 53.3388 2.23588 53.0716 2.27688C52.8043 2.31761 52.3958 2.37469 52.1642 2.40375C51.3618 2.50364 49.9009 2.80021 48.8273 3.0812C48.6133 3.13725 48.3364 3.20678 48.2116 3.2361C47.8019 3.33184 45.4972 4.05885 45.1663 4.19662C45.0771 4.23372 44.6689 4.3868 44.2591 4.53729C40.5736 5.88855 36.8379 7.99121 33.8976 10.3689C32.315 11.6488 30.1427 13.8054 29.3889 14.8448C29.2857 14.987 29.1097 15.2055 28.9976 15.3298C28.2777 16.1292 26.525 18.8042 26.0526 19.8239C23.4269 25.4941 26.5191 29.1914 33.5911 28.838C34.793 28.7781 36.8777 28.5155 37.5524 28.3393C37.6949 28.302 37.9866 28.2355 38.2003 28.1917C38.6127 28.1074 39.2645 27.9478 39.8526 27.7875C40.2546 27.678 42.0837 27.0677 42.2826 26.9766C42.3538 26.9442 42.8205 26.7494 43.3195 26.5436C44.5438 26.0392 46.0692 25.3208 46.1964 25.1882C46.311 25.0691 46.1602 25.0745 45.5875 25.211C43.4154 25.7273 41.3679 26.1196 39.9499 26.2909C39.7718 26.3124 39.3199 26.3705 38.9455 26.4204C35.0933 26.932 31.8103 26.4728 30.6629 25.2619C30.43 25.0159 30.333 24.9453 30.3639 25.0444C30.3892 25.1249 30.4414 25.2113 30.4802 25.2359C30.5189 25.2606 30.5329 25.2985 30.5116 25.3197C30.4354 25.3958 29.8694 24.6685 29.7436 24.333C29.1339 22.7088 30.5972 20.8866 33.7941 19.2886C34.5395 18.9163 34.4725 19.1586 34.4735 16.837C34.474 15.7278 34.4979 14.8057 34.5265 14.7883C34.5551 14.7706 34.7956 14.8557 35.0611 14.9772C35.7688 15.3012 35.6661 15.3539 37.0982 13.9328C38.5799 12.4627 38.4822 12.7564 37.9442 11.3927C37.7466 10.892 37.5849 10.4657 37.5849 10.4454C37.5849 10.3785 41.2585 9.07082 42.0234 8.86533C42.1305 8.83679 42.7574 8.63519 43.4167 8.4175C44.0758 8.19982 44.7757 7.97461 44.9718 7.91649C45.1678 7.85863 45.5469 7.74239 45.8142 7.65833C46.55 7.42663 46.6267 7.40509 47.499 7.18559C48.481 6.93859 48.6614 6.89214 49.1188 6.76994C49.8073 6.58572 50.2584 6.48349 50.8683 6.37374C51.2068 6.31303 51.5508 6.23701 51.6327 6.20535C51.7146 6.1737 51.8841 6.14775 52.0097 6.14775C52.135 6.14775 52.3004 6.11428 52.3771 6.07329C52.4538 6.03229 52.6925 5.97547 52.9072 5.94693C53.9667 5.80656 54.4969 5.6828 54.4969 5.57565C54.4969 5.55437 54.3006 5.33928 54.0606 5.09772C53.5052 4.53936 53.4938 4.56168 54.6591 3.94624C54.8728 3.83312 55.0754 3.7148 55.1094 3.68341C55.1895 3.60842 55.4243 3.60998 55.6118 3.68678C55.6937 3.72025 56.0085 3.8217 56.3114 3.91225C57.0875 4.14421 57.4351 4.24851 58.0285 4.4278C58.3137 4.51394 58.7219 4.63381 58.9356 4.69452C61.2356 5.34602 62.7911 6.50477 62.7911 7.56674C62.7911 7.84695 62.7295 7.81115 62.4295 7.35657C62.1708 6.96479 61.5647 6.43964 61.1388 6.23779C61.0273 6.18512 60.9961 6.1807 61.0658 6.22767C63.1393 7.62434 63.3067 8.68319 61.8302 11.0622C61.4306 11.7056 59.7354 14.0138 59.4078 14.3599C59.3238 14.4489 59.2044 14.5942 59.1431 14.6832C59.0815 14.7722 58.8295 15.0776 58.5836 15.3622C57.3964 16.7345 56.2724 18.0198 56.2087 18.078C56.1359 18.1444 55.3541 19.0444 54.5047 20.0395C51.6426 23.3927 50.8829 25.4731 51.9252 27.1043C52.7583 28.4083 55.7652 28.5983 59.5188 27.5843C59.7328 27.5267 60.0097 27.4553 60.1345 27.4258C60.5494 27.3277 61.9786 26.905 62.1432 26.8319C62.2321 26.7922 62.4802 26.7068 62.6939 26.6417C63.1203 26.5122 64.4962 26.0317 64.7027 25.9404C64.7739 25.9087 64.9343 25.8464 65.0591 25.8021C65.1837 25.7574 65.3732 25.684 65.4801 25.6383C65.5872 25.5929 66.0224 25.4204 66.4473 25.2549C66.8724 25.0893 67.4358 24.8545 67.6994 24.7328C67.9631 24.6114 68.2017 24.512 68.2298 24.512C68.2579 24.512 68.54 24.394 68.8567 24.2497C69.1736 24.1055 69.5202 23.9482 69.6273 23.9005C69.7342 23.8527 70.0797 23.6942 70.3951 23.5484C70.7105 23.4026 70.9806 23.2835 70.9954 23.2835C71.2102 23.2835 76.8811 20.3347 78.1623 19.5569C78.8521 19.1381 78.3943 19.1713 77.4354 19.6098C77.275 19.6832 76.6335 19.9448 76.0098 20.191C75.3861 20.4375 74.7883 20.6783 74.6815 20.7263C74.5746 20.7743 74.3528 20.8581 74.1888 20.9128C74.025 20.9673 73.4709 21.1705 72.9577 21.3638C72.4447 21.5573 71.7039 21.8222 71.3119 21.9527C70.92 22.0832 70.541 22.2156 70.4695 22.2467C70.3395 22.3033 69.2709 22.6356 68.3637 22.9013C68.0964 22.9797 67.7174 23.0949 67.5213 23.1577C67.1958 23.2617 66.2876 23.4887 64.5729 23.8943C63.9344 24.0453 63.7175 24.0896 62.6939 24.2772C61.4677 24.5022 61.2527 24.5331 58.835 24.8314C55.0112 25.3036 55.0338 24.2814 58.9502 19.6524C59.239 19.3109 59.9571 18.4479 60.5557 17.7228C60.6981 17.5502 61.0637 17.1084 61.3682 16.7412C61.8947 16.1058 62.326 15.5552 62.6442 15.1113C62.7241 15.0005 62.9061 14.7496 63.0488 14.554C64.4609 12.6195 65.3384 10.9047 65.6457 9.47792C65.7531 8.97949 65.7156 7.51433 65.5815 6.96972C65.0677 4.88107 63.3566 3.40812 60.5879 2.67152C58.686 2.16531 56.0532 1.95229 54.1082 2.14715ZM55.1612 4.40107C55.0452 4.47165 54.9506 4.54326 54.9506 4.56038C54.9506 4.5775 55.053 4.53132 55.1781 4.45763C55.4032 4.32505 55.6305 4.31779 56.0522 4.43039C56.1526 4.45712 56.1315 4.43558 55.996 4.37305C55.7017 4.23735 55.4147 4.24695 55.1612 4.40107ZM54.7691 4.6735C54.6375 4.80479 54.6804 4.90001 54.9667 5.11355L55.2423 5.31878L54.9852 5.08397C54.7597 4.8777 54.7379 4.83359 54.8076 4.72254C54.8978 4.57854 54.883 4.55986 54.7691 4.6735ZM57.0566 4.72514C57.1278 4.75575 57.2297 4.78066 57.2833 4.78066C57.3447 4.78066 57.3327 4.76016 57.2508 4.72514C57.1796 4.69452 57.0776 4.66961 57.0241 4.66961C56.9627 4.66961 56.9749 4.69011 57.0566 4.72514ZM57.6073 4.88678C57.9031 5.00042 58.0196 4.99887 57.7692 4.88444C57.6624 4.83567 57.5311 4.79649 57.4778 4.79779C57.4242 4.79882 57.4825 4.83878 57.6073 4.88678ZM58.2466 5.08345C58.3665 5.13534 58.4975 5.1766 58.5381 5.1753C58.5786 5.174 58.5136 5.13015 58.3935 5.07826C58.2736 5.02637 58.1426 4.98486 58.102 4.98641C58.0615 4.98771 58.1265 5.0313 58.2466 5.08345ZM55.2935 5.34966C55.3492 5.44021 55.9875 5.97859 55.9875 5.93526C55.9875 5.91865 55.8208 5.76298 55.6175 5.58992C55.4139 5.4166 55.2683 5.3084 55.2935 5.34966ZM60.0749 5.71965C60.141 5.7801 60.9119 6.1462 60.9119 6.1174C60.9119 6.08107 60.1633 5.695 60.0931 5.695C60.0682 5.695 60.0601 5.70615 60.0749 5.71965ZM56.0837 6.02425C56.1123 6.09898 56.0642 6.14749 55.9095 6.20094C55.7033 6.27203 55.7025 6.27333 55.8902 6.23882C56.1445 6.19212 56.2306 6.10598 56.126 6.0022C56.0608 5.93759 56.0522 5.94174 56.0837 6.02425ZM55.3557 6.32159C55.4181 6.33794 55.52 6.33794 55.5824 6.32159C55.6448 6.30525 55.5938 6.29201 55.469 6.29201C55.3442 6.29201 55.2933 6.30525 55.3557 6.32159ZM54.6113 6.4521C54.6919 6.46767 54.8084 6.46689 54.8702 6.4508C54.9324 6.43471 54.8663 6.422 54.7239 6.42278C54.5811 6.4233 54.5304 6.43653 54.6113 6.4521ZM53.6547 6.60362C53.5453 6.64073 53.5981 6.64643 53.8167 6.62127C53.9948 6.60051 54.1526 6.57301 54.1677 6.55977C54.2187 6.51437 53.8165 6.54862 53.6547 6.60362ZM53.058 6.72479C52.8901 6.74814 52.7356 6.78447 52.7146 6.80574C52.6579 6.8623 53.2819 6.7868 53.3955 6.72323C53.5024 6.66356 53.4972 6.66356 53.058 6.72479ZM52.1319 6.92535C52.0453 6.96349 52.0992 6.96998 52.2939 6.94429C52.4543 6.92302 52.5976 6.89526 52.6124 6.88228C52.6688 6.83376 52.2557 6.87061 52.1319 6.92535ZM50.6416 7.24708C50.4669 7.29145 50.4638 7.29638 50.6091 7.29768C50.6983 7.2982 50.8441 7.27536 50.9331 7.24708C51.1509 7.17729 50.9156 7.17729 50.6416 7.24708ZM48.8921 7.67C48.5712 7.75588 48.2821 7.82698 48.2493 7.82749C48.2168 7.82827 48.2062 7.84514 48.2259 7.8646C48.2623 7.90118 49.5005 7.59891 49.5608 7.53897C49.6156 7.48397 49.5028 7.50602 48.8921 7.67ZM47.7904 7.95826C47.6253 8.02909 47.7956 8.02909 48.0172 7.95826C48.1474 7.91675 48.1539 7.90611 48.0497 7.90455C47.9784 7.90352 47.8617 7.92764 47.7904 7.95826ZM47.272 8.08773C47.1904 8.12276 47.1784 8.14326 47.2398 8.14326C47.2931 8.14326 47.3952 8.11809 47.4665 8.08773C47.5481 8.0527 47.5601 8.03195 47.499 8.03195C47.4454 8.03195 47.3432 8.05712 47.272 8.08773ZM46.7538 8.2159C46.6823 8.246 46.4847 8.3062 46.3144 8.34953C46.1441 8.39312 46.0162 8.44008 46.0297 8.45383C46.0539 8.4777 46.5362 8.35783 46.948 8.22576C47.0778 8.18425 47.0994 8.16297 47.0128 8.1622C46.9415 8.16168 46.8251 8.18555 46.7538 8.2159ZM45.6522 8.53789C45.581 8.56747 45.3402 8.64297 45.1171 8.7055C44.8943 8.76829 44.724 8.83186 44.7388 8.84665C44.7679 8.87571 45.3766 8.70758 45.7494 8.56747C45.874 8.52051 45.9325 8.48263 45.8789 8.48341C45.8254 8.48393 45.7234 8.50857 45.6522 8.53789ZM44.3239 8.93123C44.2529 8.97923 44.2791 8.9852 44.4211 8.95355C44.6593 8.90036 44.711 8.86326 44.5451 8.86455C44.477 8.86507 44.3772 8.89517 44.3239 8.93123ZM43.007 9.33028C42.7992 9.40034 42.6414 9.46935 42.656 9.48388C42.682 9.51009 43.489 9.26282 43.5407 9.21301C43.5979 9.15774 43.3686 9.20834 43.007 9.33028ZM41.8058 9.71376C41.6862 9.74801 41.6006 9.78875 41.616 9.80406C41.6313 9.81936 41.773 9.7916 41.9308 9.74204C42.2532 9.64137 42.1443 9.61647 41.8058 9.71376ZM40.695 10.0858C40.6417 10.1157 40.3581 10.222 40.0648 10.3225C39.7718 10.4226 39.5435 10.5165 39.5578 10.5308C39.5721 10.5451 39.8121 10.4763 40.0908 10.378C40.7468 10.1471 41.0109 10.0326 40.8895 10.0321C40.836 10.0316 40.7486 10.056 40.695 10.0858ZM39.0105 10.673C38.7898 10.7596 38.7151 10.825 38.7037 10.941C38.6902 11.078 38.6943 11.0809 38.7422 10.9667C38.7716 10.8964 38.9533 10.7742 39.146 10.6948C39.3386 10.6156 39.4528 10.5526 39.3992 10.5544C39.3456 10.5565 39.1707 10.6099 39.0105 10.673ZM39.2861 12.6669C39.289 12.8447 39.2185 12.9555 38.8745 13.3135L38.4596 13.7455L38.8919 13.3322C39.3464 12.8976 39.4093 12.7897 39.3311 12.5805C39.2942 12.483 39.2835 12.5035 39.2861 12.6669ZM46.2676 12.8589C46.2676 12.887 46.4135 13.0533 46.5916 13.2284C46.9681 13.5981 46.9746 13.6254 46.7374 13.8293L46.5593 13.9826L46.7699 13.8436C47.0419 13.664 47.0354 13.5891 46.7213 13.2852C46.4527 13.0252 46.4041 12.9067 46.5432 12.8509C46.5877 12.833 46.544 12.8159 46.446 12.813C46.348 12.8104 46.2676 12.8309 46.2676 12.8589ZM46.7972 12.936C46.8924 12.9645 47.0091 13.0079 47.0565 13.0323C47.1038 13.0564 47.0858 13.0304 47.0167 12.9744C46.9475 12.9183 46.8308 12.8753 46.7575 12.8781C46.6503 12.8828 46.6584 12.8942 46.7972 12.936ZM47.5065 13.3345C47.6352 13.4539 47.832 13.6796 47.9438 13.8361C48.0554 13.9925 48.1469 14.0984 48.1469 14.0711C48.1469 13.9637 47.6721 13.3841 47.4779 13.2546C47.2803 13.1231 47.2816 13.1262 47.5065 13.3345ZM37.9299 14.232C37.7453 14.4089 37.6153 14.554 37.6408 14.554C37.666 14.554 37.8306 14.4084 38.0061 14.2307C38.418 13.8132 38.3652 13.814 37.9299 14.232ZM45.7331 14.4289C45.5994 14.4995 45.4902 14.5714 45.4902 14.589C45.4902 14.6067 45.6067 14.5618 45.7494 14.4891C45.8919 14.4167 46.0084 14.3433 46.0084 14.3262C46.0084 14.2839 46.0081 14.2841 45.7331 14.4289ZM46.8508 14.685C46.5835 14.8617 46.3877 15.0062 46.4156 15.0065C46.4434 15.0065 46.6659 14.8752 46.9103 14.7146C47.3271 14.4406 47.5637 14.3887 47.5637 14.5716C47.5637 14.6092 47.5824 14.6214 47.6053 14.5986C47.6589 14.5452 47.5057 14.3594 47.4101 14.3617C47.3698 14.3628 47.1181 14.5083 46.8508 14.685ZM45.0851 14.7522C44.9515 14.8228 44.8423 14.8946 44.8423 14.9123C44.8423 14.9411 45.354 14.7027 45.42 14.643C45.4946 14.5755 45.2999 14.6391 45.0851 14.7522ZM47.6441 14.8773C47.6438 15.2252 47.7156 15.4782 47.8229 15.5072C47.8892 15.5254 47.896 15.5166 47.8443 15.4797C47.8027 15.4499 47.7405 15.2514 47.7062 15.0384C47.6659 14.7862 47.6441 14.7299 47.6441 14.8773ZM36.9167 15.1878C36.6533 15.4621 36.7813 15.7052 37.1507 15.6336C37.2745 15.6097 37.2708 15.605 37.1229 15.5973C36.8208 15.5817 36.7592 15.4193 36.9716 15.1982C37.0727 15.0929 37.1408 15.0065 37.1232 15.0065C37.1052 15.0065 37.0124 15.0882 36.9167 15.1878ZM43.9999 15.233C43.9107 15.2836 43.867 15.3254 43.9027 15.3254C43.9383 15.3254 44.0402 15.2836 44.1294 15.233C44.2186 15.1821 44.2622 15.1404 44.2266 15.1404C44.191 15.1404 44.0888 15.1821 43.9999 15.233ZM45.6036 15.3988C45.3987 15.5041 45.231 15.605 45.231 15.6227C45.231 15.6406 45.406 15.5669 45.6197 15.4592C45.8337 15.3516 46.0084 15.2491 46.0084 15.2319C46.0084 15.1889 46.0206 15.1839 45.6036 15.3988ZM42.2826 15.7179C42.1035 15.7633 42.1009 15.7677 42.2504 15.774C42.3393 15.7776 42.456 15.7524 42.5096 15.7179C42.6198 15.6468 42.5629 15.6468 42.2826 15.7179ZM38.4109 15.8928C38.4913 15.9081 38.6223 15.9081 38.7027 15.8928C38.7827 15.8775 38.7172 15.8648 38.5568 15.8648C38.3964 15.8648 38.3309 15.8775 38.4109 15.8928ZM41.1974 15.8928C41.2774 15.9081 41.4087 15.9081 41.4888 15.8928C41.5692 15.8775 41.5034 15.8648 41.3432 15.8648C41.1828 15.8648 41.117 15.8775 41.1974 15.8928ZM38.9949 15.9577C39.0755 15.973 39.1922 15.9724 39.2541 15.9564C39.316 15.94 39.2502 15.9273 39.1075 15.9281C38.965 15.9289 38.9143 15.9421 38.9949 15.9577ZM40.6797 15.9577C40.7603 15.973 40.877 15.9724 40.9389 15.9564C41.0008 15.94 40.9348 15.9273 40.7923 15.9281C40.6498 15.9289 40.5991 15.9421 40.6797 15.9577ZM35.3299 16.248C35.2738 16.304 35.2522 16.7521 35.2522 17.8566C35.2522 19.0473 35.233 19.4035 35.1664 19.4588C35.1193 19.4977 34.7039 19.7167 34.2431 19.945C33.7824 20.1736 33.3472 20.4063 33.2759 20.4624C33.2044 20.5184 33.6126 20.3283 34.1831 20.04C34.7533 19.7517 35.2413 19.4832 35.2673 19.4435C35.2935 19.4038 35.3154 18.6817 35.3159 17.8387C35.3169 16.448 35.3273 16.3001 35.4303 16.2402C35.4927 16.2041 35.5132 16.1735 35.4758 16.1725C35.4384 16.1715 35.3726 16.2054 35.3299 16.248ZM36.7748 16.6201C36.8993 16.6764 37.2464 16.7129 37.1908 16.6639C37.1759 16.6509 37.047 16.6227 36.9045 16.6009C36.7238 16.5734 36.6845 16.5793 36.7748 16.6201ZM37.763 16.798C37.8431 16.8136 37.9744 16.8136 38.0547 16.798C38.1348 16.7827 38.0693 16.77 37.9089 16.77C37.7485 16.77 37.6829 16.7827 37.763 16.798ZM41.1326 16.798C41.2127 16.8136 41.344 16.8136 41.4241 16.798C41.5042 16.7827 41.4386 16.77 41.2782 16.77C41.1181 16.77 41.0523 16.7827 41.1326 16.798ZM39.1561 16.9296C39.3969 16.942 39.7905 16.942 40.031 16.9296C40.2715 16.9174 40.0747 16.907 39.5937 16.907C39.1124 16.907 38.9156 16.9174 39.1561 16.9296ZM32.7832 20.7699C32.4775 20.9868 32.297 21.1437 32.4671 21.0451C32.6603 20.9328 33.1137 20.6147 33.1137 20.5913C33.1137 20.5439 33.0635 20.5711 32.7832 20.7699ZM31.762 21.5397C31.4637 21.7882 31.1 22.1442 30.9536 22.3305C30.7378 22.6045 30.7857 22.5695 31.204 22.1465C31.4882 21.8591 31.8665 21.5036 32.0446 21.3565C32.2229 21.2096 32.354 21.089 32.3363 21.0882C32.3184 21.0877 32.0599 21.2908 31.762 21.5397ZM30.5192 22.8992C30.4417 23.0079 30.3889 23.1076 30.4022 23.1208C30.4154 23.134 30.4919 23.0451 30.5719 22.9231C30.7524 22.6481 30.7116 22.6297 30.5192 22.8992ZM30.1494 24.1563C30.1502 24.2985 30.1635 24.3491 30.1791 24.2687C30.1944 24.1882 30.1939 24.072 30.1778 24.01C30.1614 23.9482 30.1487 24.0141 30.1494 24.1563ZM74.012 25.1975C73.2044 25.5992 72.9389 26.4697 73.3705 27.3017C73.9433 28.4055 75.5088 28.3884 76.0842 27.2719C76.763 25.9541 75.345 24.5346 74.012 25.1975ZM75.1229 25.3571C75.4888 25.4585 75.8517 25.8516 75.9334 26.2348C76.2053 27.5111 74.7696 28.3821 73.8502 27.4984C72.844 26.5311 73.7655 24.9809 75.1229 25.3571ZM74.1144 25.7118C74.0406 25.7883 74.0549 27.357 74.1295 27.357C74.1929 27.357 74.2402 27.2094 74.2746 26.9045C74.3167 26.528 75.1027 26.8609 75.1027 27.2556C75.1027 27.3383 75.2353 27.4219 75.3671 27.4219C75.4713 27.4219 75.4316 27.2649 75.2646 27.02C75.0689 26.7325 75.0655 26.6801 75.2321 26.5016C75.3978 26.3244 75.4009 25.9899 75.2384 25.8431C75.106 25.7235 74.2049 25.6184 74.1144 25.7118ZM74.9841 25.9769C75.2225 26.1923 75.0439 26.4518 74.6573 26.4518C74.3812 26.4518 74.2603 26.3602 74.2603 26.151C74.2603 25.883 74.7498 25.7652 74.9841 25.9769ZM71.152 33.0859C70.8145 33.1398 70.4354 33.2296 70.3096 33.2851C70.1837 33.3407 69.9788 33.4302 69.854 33.4839C67.3528 34.5632 66.6386 39.0854 68.6357 41.1992C69.1188 41.7106 69.436 41.9236 70.2752 42.2993C71.7747 42.9705 74.1456 42.5969 75.7345 41.4389L76.0745 41.1909V39.514C76.0745 37.9222 76.0683 37.8337 75.9492 37.7702C75.7618 37.67 72.3009 37.6799 72.1998 37.7808C72.0981 37.882 72.0981 38.6235 72.1998 38.725C72.2544 38.7794 72.6262 38.8025 73.4579 38.8025C74.9833 38.8025 74.8434 38.711 74.8434 39.7088V40.5368L74.6443 40.7041C73.3211 41.8151 70.8483 41.7645 69.7149 40.6032C68.7054 39.569 68.4415 37.424 69.132 35.866C70.1252 33.625 73.5697 33.3868 74.5704 35.4898C74.8328 36.0406 74.8697 36.0652 75.2831 35.9591C75.9851 35.7788 76.0108 35.6825 75.5852 34.823C74.8941 33.4276 73.1885 32.7592 71.152 33.0859ZM5.7955 33.1616C5.7565 33.1878 5.51366 33.6165 5.25626 34.1144C4.9986 34.6123 4.47964 35.6161 4.10316 36.3452C3.72642 37.0743 3.26648 37.9619 3.08084 38.3174C1.82972 40.715 1.03906 42.2892 1.03906 42.3823C1.03906 42.4812 1.17218 42.4892 2.5455 42.4734L4.0522 42.456L4.27892 42.0032C4.40372 41.7544 4.5787 41.3907 4.66788 41.195L4.8296 40.8393H7.25722H9.68458L9.76726 41.0009C9.8125 41.0899 9.95758 41.4099 10.0891 41.7124C10.4591 42.5619 10.2626 42.4882 12.1619 42.4882C13.731 42.4882 13.8043 42.4827 13.8043 42.3657C13.8043 42.1771 9.3822 33.2504 9.24466 33.1616C9.20436 33.1354 8.42748 33.1142 7.51878 33.1142C6.61008 33.1142 5.8345 33.1354 5.7955 33.1616ZM14.3622 33.2133C14.271 33.4509 14.3186 42.3398 14.4116 42.4168C14.474 42.4684 14.9272 42.4856 15.9183 42.4734L17.3356 42.456V37.8003V33.1445L15.8689 33.1271C14.5739 33.1118 14.3973 33.1219 14.3622 33.2133ZM19.2255 33.1551C19.2019 33.179 19.1824 33.6014 19.1824 34.0941V34.9898L20.6888 34.9724L22.1955 34.955L22.2142 34.179C22.2428 32.9901 22.4144 33.1121 20.7146 33.1121C19.9195 33.1121 19.2492 33.1315 19.2255 33.1551ZM23.9516 33.166C23.9331 33.1959 23.9144 35.2983 23.9094 37.8381L23.9009 42.456L25.3254 42.4734L26.7502 42.4908L26.8217 42.2858C26.861 42.1732 26.8932 42.0162 26.8932 41.9368C26.8932 41.6841 27.0476 41.6234 27.2585 41.7931C29.1157 43.2873 32.0251 42.7058 32.7676 40.6922C33.0999 39.7908 33.0271 38.4061 32.5994 37.4995C31.7341 35.6649 29.0114 35.1854 27.2224 36.5525C26.9743 36.7419 26.9613 36.662 26.9559 34.9231C26.9525 33.8627 26.926 33.2486 26.8815 33.1951C26.8019 33.0994 24.0101 33.0719 23.9516 33.166ZM44.2331 33.166C44.2149 33.1959 44.1959 35.2983 44.1913 37.8381L44.1824 42.456L45.6111 42.4734L47.0396 42.4908L47.1022 42.2469C47.1368 42.113 47.1748 41.9454 47.187 41.8748C47.2231 41.662 47.4028 41.6906 47.7681 41.9669C48.5442 42.5541 49.8117 42.7801 50.8837 42.5224C52.3716 42.1646 53.2658 40.9784 53.2658 39.3622C53.2658 36.2884 50.3377 34.7482 47.695 36.4324C47.2177 36.7367 47.2398 36.8091 47.2398 34.9319C47.2398 33.7234 47.2184 33.246 47.162 33.1897C47.071 33.0988 44.2888 33.0765 44.2331 33.166ZM7.42804 35.6187C7.4673 35.6449 7.58092 35.8553 7.68076 36.0865C7.7806 36.3177 8.03098 36.8851 8.23742 37.3475C8.92148 38.8804 9.00884 38.7377 7.38748 38.7377C5.58204 38.7377 5.67174 38.9512 6.62724 36.9272C6.76998 36.6249 6.9694 36.1958 7.07054 35.9734C7.2541 35.5694 7.2944 35.5297 7.42804 35.6187ZM79.6527 35.7064C79.5 35.7819 79.2707 35.9705 79.1431 36.126C78.8836 36.4422 78.796 36.4407 78.796 36.1197C78.796 35.8156 78.6543 35.6986 78.2853 35.6986C77.7157 35.6986 77.7557 35.4288 77.7747 39.158L77.7916 42.456L78.2721 42.4752C78.8974 42.5001 78.8586 42.6314 78.8599 40.4836C78.8612 37.9684 78.9917 37.326 79.5767 36.9575C79.9407 36.7284 80.1571 36.7009 80.5731 36.8314C81.0166 36.9708 81.0702 36.9362 81.2543 36.3919C81.4144 35.9189 81.3746 35.8496 80.8419 35.6745C80.4038 35.5302 79.9865 35.5414 79.6527 35.7064ZM84.0742 35.6888C81.2665 36.4555 81.0135 41.3333 83.7274 42.3826C85.4826 43.0613 87.4498 42.237 87.9495 40.6131C88.9061 37.5047 86.8749 34.9239 84.0742 35.6888ZM99.499 35.6325C99.1511 35.7217 98.9839 35.8089 98.6376 36.0821C98.2684 36.3732 98.1706 36.3745 98.1706 36.0873C98.1706 35.8071 98.0191 35.6986 97.628 35.6986C97.095 35.6986 97.1338 35.326 97.1338 40.4644V45.0747H97.6844H98.2354V43.6251C98.2354 41.811 98.2359 41.8094 98.6795 42.1651C99.9826 43.2102 102.133 42.3852 102.733 40.6099C103.695 37.7621 101.91 35.0139 99.499 35.6325ZM89.7464 35.8289C89.5969 36.1078 89.6923 41.0505 89.8538 41.3956C90.4572 42.6838 92.305 43.0312 93.5504 42.0904C94.0504 41.7126 94.0884 41.708 94.0884 42.0232C94.0884 42.423 94.1856 42.4983 94.6731 42.4754L95.0928 42.456L95.1097 39.158C95.1289 35.4241 95.17 35.6986 94.5899 35.6986C93.9878 35.6986 94.0234 35.5699 94.0234 37.7406C94.0234 40.9319 93.7135 41.5834 92.1951 41.5827C90.9689 41.5821 90.8514 41.2949 90.8035 38.1881C90.782 36.7899 90.7419 35.8281 90.7029 35.7796C90.5867 35.6345 89.8296 35.6737 89.7464 35.8289ZM36.9045 35.8961C35.4137 36.1942 34.8105 36.565 34.5679 37.3332C34.3835 37.9162 34.3401 37.8973 35.858 37.8973H37.1806L37.3538 37.6708C37.9453 36.8968 39.5937 37.1703 39.5937 38.0423C39.5937 38.2971 39.4769 38.3404 38.6839 38.3807C36.275 38.5021 35.0767 38.823 34.455 39.5132C33.9161 40.1113 33.8331 40.9021 34.2348 41.6153C34.896 42.7902 38.0064 42.9894 39.2593 41.9373C39.5287 41.7111 39.6784 41.7466 39.7276 42.0492C39.8004 42.4959 39.7897 42.4928 41.2065 42.4734L42.4771 42.456L42.4768 40.0957C42.4766 37.4072 42.4568 37.2886 41.9173 36.7393C41.0952 35.9026 38.8025 35.5167 36.9045 35.8961ZM57.2186 35.8904C55.6809 36.1462 54.6758 36.8805 54.7675 37.6814L54.7886 37.8649L56.1245 37.8822L57.4604 37.8996L57.6343 37.6721C58.2471 36.8703 59.8752 37.1654 59.8752 38.0781C59.8752 38.3251 59.8295 38.3402 58.9491 38.384C55.885 38.5361 54.6656 39.0298 54.3339 40.2529C53.9423 41.6966 55.0013 42.5821 57.1213 42.5836C58.4185 42.5844 58.8485 42.4666 59.5346 41.9223C59.8321 41.6864 59.94 41.6929 59.94 41.9467C59.94 42.1234 60.0474 42.3636 60.1602 42.4389C60.2933 42.5273 62.7909 42.4978 62.7927 42.4075C62.8689 38.6007 62.769 37.4399 62.3148 36.8488C61.6274 35.9542 59.3784 35.5313 57.2186 35.8904ZM19.198 39.2055L19.2149 42.456L20.6475 42.4734C21.8042 42.4874 22.0946 42.4734 22.1547 42.4012C22.209 42.3361 22.2246 41.456 22.2122 39.1507L22.1955 35.9897L20.6883 35.9724L19.1811 35.955L19.198 39.2055ZM100.454 36.5515C101.518 36.8696 102.129 38.6842 101.668 40.1535C100.921 42.5315 98.3711 42.0505 98.1972 39.4989C98.062 37.5107 99.1048 36.1483 100.454 36.5515ZM85.5495 36.6067C86.4324 36.8517 86.9605 37.7842 86.9605 39.0988C86.9605 41.1883 85.4551 42.3411 83.9967 41.3683C82.4903 40.3637 82.8579 36.8958 84.5037 36.5862C84.8017 36.5302 85.3092 36.5403 85.5495 36.6067ZM28.8695 37.4523C30.301 37.8477 30.2755 40.6188 28.8372 41.002C27.7182 41.2998 26.9356 40.5648 26.9325 39.213C26.9293 37.856 27.7223 37.1353 28.8695 37.4523ZM49.19 37.4531C50.2935 37.8195 50.5992 39.7239 49.6988 40.6224C48.8845 41.4348 47.4964 41.029 47.2572 39.9086C46.9072 38.2696 47.8898 37.0211 49.19 37.4531ZM39.491 39.6824C39.7258 39.7721 39.5695 40.3816 39.2136 40.7643C38.5404 41.4879 36.8897 41.1955 37.0927 40.3886C37.2204 39.8803 38.7963 39.4162 39.491 39.6824ZM59.8035 39.7021C59.9231 39.7776 59.8531 40.2288 59.6722 40.55C59.0981 41.5689 56.9099 41.2581 57.4411 40.2332C57.6551 39.8201 59.3779 39.433 59.8035 39.7021Z" fill="white"/>
</svg>
