<svg width="88" height="48" viewBox="0 0 88 48" fill="none" xmlns="http://www.w3.org/2000/svg">
<g clip-path="url(#clip0_230_33969)">
<path d="M62.1999 31.0687C60.9827 31.349 57.7788 31.5104 57.7788 31.5104L57.3731 32.7848C57.3731 32.7848 58.9707 32.6488 60.1373 32.7678C60.1373 32.7678 60.5177 32.7253 60.56 33.201C60.5769 33.6428 60.5262 34.1186 60.5262 34.1186C60.5262 34.1186 60.5008 34.4074 60.0951 34.4754C59.6555 34.5518 56.6461 34.6623 56.6461 34.6623L56.1558 36.3189C56.1558 36.3189 55.9782 36.7012 56.384 36.5908C56.7644 36.4888 59.9175 35.8941 60.3317 35.9791C60.7713 36.0895 61.2616 36.6757 61.1179 37.2195C60.9488 37.8821 57.8042 39.9041 55.8852 39.7596C55.8852 39.7596 54.8793 39.8276 54.0255 38.4598C53.2309 37.16 54.3298 34.6878 54.3298 34.6878C54.3298 34.6878 53.8311 33.5324 54.1946 33.1501C54.1946 33.1501 54.4144 32.9547 55.0399 32.9037L55.8092 31.298C55.8092 31.298 54.93 31.3575 54.4059 30.7118C53.9156 30.0917 53.8818 29.8113 54.2537 29.6414C54.6511 29.446 58.3114 28.7749 60.8305 28.8598C60.8305 28.8598 61.7097 28.7749 62.462 30.3041C62.4536 30.3041 62.8255 30.9242 62.1999 31.0687ZM52.7237 37.2364C52.4024 38.001 51.5487 38.8166 50.492 38.3069C49.4438 37.7972 47.7784 34.3734 47.7784 34.3734C47.7784 34.3734 47.1444 33.0991 47.0261 33.1246C47.0261 33.1246 46.8908 32.8782 46.8063 34.2715C46.7218 35.6648 46.8232 38.3749 46.2737 38.7996C45.7496 39.2244 45.1156 39.0545 44.7859 38.5533C44.4901 38.0605 44.3633 36.8881 44.5239 34.8322C44.7183 32.7763 45.1917 30.5844 45.8003 29.8963C46.409 29.2166 46.8993 29.7094 47.0853 29.8878C47.0853 29.8878 47.8968 30.6269 49.2409 32.8018L49.4776 33.201C49.4776 33.201 50.6949 35.257 50.8217 35.2485C50.8217 35.2485 50.9231 35.3419 51.0076 35.274C51.1344 35.24 51.0837 34.5773 51.0837 34.5773C51.0837 34.5773 50.8301 32.343 49.7227 28.554C49.7227 28.554 49.5536 28.0782 49.672 27.6364C49.7819 27.1862 50.2299 27.3986 50.2299 27.3986C50.2299 27.3986 51.9544 28.2651 52.7829 31.0856C53.6028 33.9317 53.0449 36.4718 52.7237 37.2364ZM44.2534 29.9897C44.1097 30.2786 44.0251 30.6949 43.2981 30.8053C43.2981 30.8053 36.341 31.281 36.0113 31.7738C36.0113 31.7738 35.7661 32.0626 36.1465 32.1476C36.5269 32.2241 38.0993 32.4364 38.8601 32.4789C39.6716 32.4874 42.4105 32.5129 43.3911 33.7448C43.3911 33.7448 43.9744 34.331 43.949 35.6563C43.9237 37.0156 43.687 37.4913 43.1629 37.9841C42.6134 38.4428 37.8964 40.5667 34.8532 37.3044C34.8532 37.3044 33.4499 35.7327 35.335 34.5433C35.335 34.5433 36.696 33.7193 40.1535 34.6878C40.1535 34.6878 41.2017 35.0701 41.151 35.4524C41.0918 35.8602 40.2887 36.2934 39.1221 36.2679C37.9894 36.234 37.1609 35.6903 37.3216 35.7752C37.4737 35.8347 36.1043 35.1126 35.6816 35.6053C35.2589 36.0556 35.3604 36.3359 35.7746 36.6163C36.8313 37.2195 40.9143 37.0071 42.1316 35.6478C42.1316 35.6478 42.6134 35.0956 41.878 34.6453C41.1425 34.2205 39.0376 33.9656 38.2176 33.9232C37.4315 33.8807 34.5066 33.9317 34.0839 33.1501C34.0839 33.1501 33.6612 32.6233 34.1262 31.1281C34.6165 29.5649 38.0232 28.9618 39.4941 28.8258C39.4941 28.8258 43.5433 28.6814 44.2872 29.514C44.2787 29.514 44.3802 29.7094 44.2534 29.9897ZM32.7567 39.1564C32.2664 39.5218 31.2267 39.3603 30.9308 38.9526C30.6349 38.5872 30.5335 37.1345 30.5926 34.8577C30.6518 32.5554 30.7025 29.7009 31.1928 29.2506C31.717 28.7918 32.0382 29.1911 32.2411 29.5055C32.4609 29.8113 32.7229 30.1511 32.7821 30.8733C32.8328 31.5954 33.0019 35.3844 33.0019 35.3844C33.0019 35.3844 33.2217 38.7996 32.7567 39.1564ZM33.8134 26.9398C32.3848 27.4156 31.4042 27.2541 30.5757 26.8973C30.2122 27.5345 30.0009 27.7299 29.7219 27.7724C29.3162 27.8149 28.9527 27.1607 28.8851 26.9483C28.8174 26.7869 28.623 26.515 28.8597 25.8694C28.0482 25.1387 27.989 24.1533 28.1243 23.4906C28.3271 22.726 29.6966 19.8205 33.8641 19.4807C33.8641 19.4807 35.9014 19.3278 36.248 20.4237H36.3072C36.3072 20.4237 38.2853 20.4322 38.243 22.1993C38.2176 23.9749 36.0451 26.1837 33.8134 26.9398ZM29.9248 23.0064C29.5022 23.686 29.4853 24.0938 29.6797 24.3741C30.1615 23.635 31.0407 22.4711 32.3341 21.5876C31.3365 21.6726 30.4997 22.1058 29.9248 23.0064ZM35.6816 21.8679C34.3713 22.0633 32.3425 23.8304 31.3788 25.2747C32.8582 25.5465 35.4703 25.4446 36.6284 23.0743C36.6199 23.0743 37.1779 21.6046 35.6816 21.8679ZM71.2536 35.5543C70.4674 36.9306 68.261 39.8021 65.3193 39.131C64.3471 41.5012 63.5356 43.8885 63.0706 47.4736C63.0706 47.4736 62.9692 48.1702 62.3944 47.9239C61.828 47.72 60.8812 46.7685 60.6952 45.4517C60.4924 43.7186 61.2616 40.7876 62.8255 37.4318C62.369 36.6842 62.0562 35.6138 62.3267 34.0931C62.3267 34.0931 62.7241 31.2726 65.539 28.7239C65.539 28.7239 65.8772 28.4265 66.0716 28.52C66.2914 28.6134 66.19 29.531 66.0124 29.9727C65.8349 30.4145 64.5754 32.6064 64.5754 32.6064C64.5754 32.6064 63.7892 34.0846 64.009 35.2485C65.4883 32.9632 68.8528 28.3501 70.9408 29.8028C71.6424 30.3041 71.9636 31.4 71.9636 32.5809C71.9552 33.6258 71.71 34.7303 71.2536 35.5543ZM70.6449 31.9352C70.6449 31.9352 70.5266 31.0262 69.6474 32.0287C68.8866 32.8697 67.5171 34.4584 66.4097 36.6078C67.5679 36.4803 68.6837 35.8432 69.0219 35.5203C69.5713 35.0276 70.8478 33.7023 70.6449 31.9352ZM29.6036 33.0906C29.443 35.1465 28.6568 38.6042 23.086 40.3118C19.4088 41.4248 15.9344 40.8895 14.0409 40.4053C13.9986 41.1614 13.9141 41.4842 13.7957 41.6117C13.6351 41.7731 12.4347 42.4697 11.7754 41.4842C11.4795 41.017 11.3273 40.1674 11.2428 39.4113C6.98227 37.4403 5.02108 34.6028 4.945 34.4754C4.85201 34.3819 3.87987 33.3625 4.85201 32.1136C5.76498 30.9837 8.74904 29.8538 11.4372 29.395C11.5302 27.0842 11.8007 25.3426 12.1219 24.5441C12.5108 23.618 13.0011 24.4506 13.4238 25.0793C13.7788 25.5465 13.9902 27.56 14.0071 29.1656C15.7654 29.0807 16.8051 29.2081 18.7663 29.5649C21.3193 30.0322 23.0268 31.3405 22.8747 32.8272C22.7648 34.2885 21.4292 34.8917 20.9219 34.9341C20.3894 34.9766 19.5609 34.5943 19.5609 34.5943C18.9946 34.3225 19.5187 34.0846 20.2034 33.7872C20.9473 33.4219 20.7782 33.0481 20.7782 33.0481C20.4993 32.2326 17.1855 31.6633 13.8887 31.6633C13.8718 33.4899 13.9648 36.5228 14.0071 38.2899C16.3148 38.7317 18.0393 38.6467 18.0393 38.6467C18.0393 38.6467 26.4589 38.4088 26.7125 33.0056C26.9746 27.594 18.3183 22.4032 11.9191 20.755C5.52829 19.0729 1.91023 20.2453 1.59745 20.4067C1.25932 20.5766 1.57209 20.6276 1.57209 20.6276C1.57209 20.6276 1.91868 20.6786 2.51887 20.8825C3.15288 21.0864 2.66258 21.4177 2.66258 21.4177C1.57209 21.766 0.346347 21.5451 0.109651 21.0439C-0.127044 20.5426 0.270266 20.0924 0.72675 19.4467C1.18323 18.7671 1.68199 18.7926 1.68199 18.7926C9.58592 16.04 19.2144 21.0184 19.2144 21.0184C28.2341 25.6145 29.7727 31.0007 29.6036 33.0906ZM5.74808 32.8103C4.85201 33.252 5.46911 33.8892 5.46911 33.8892C7.15134 35.7072 9.22243 36.8456 11.1921 37.5508C11.4203 34.4159 11.3865 33.3115 11.4119 31.7313C8.33482 31.9437 6.5596 32.4364 5.74808 32.8103Z" fill="white"/>
<path d="M87.9911 32.1639V33.2853C87.9911 33.5317 87.7966 33.7271 87.5515 33.7271H82.2343C82.2343 34.0074 82.2427 34.2538 82.2427 34.4832C82.2427 36.1398 82.1751 37.4906 82.0145 39.0113C81.9891 39.2407 81.8032 39.4106 81.5834 39.4106H80.4337C80.3154 39.4106 80.2055 39.3596 80.1294 39.2747C80.0533 39.1897 80.011 39.0708 80.028 38.9518C80.1886 37.4396 80.2646 36.1058 80.2646 34.4832C80.2646 34.2453 80.2646 33.9989 80.2562 33.7271H74.9982C74.753 33.7271 74.5586 33.5317 74.5586 33.2853V32.1639C74.5586 31.9175 74.753 31.7221 74.9982 31.7221H80.1801C80.0702 29.8956 79.8504 28.137 79.4954 26.3529C79.4785 26.2425 79.5038 26.132 79.5715 26.0471C79.6391 25.9621 79.7405 25.9111 79.8504 25.9111H81.0931C81.2875 25.9111 81.4481 26.0471 81.4904 26.2425C81.837 28.086 82.0568 29.8786 82.1667 31.7221H87.5515C87.7882 31.7221 87.9911 31.926 87.9911 32.1639Z" fill="white"/>
<path d="M80.7549 23.2693C78.0076 16.4813 73.3666 10.6958 67.3309 6.533C61.1515 2.27672 53.9069 0.0253906 46.3834 0.0253906C33.9399 0.0253906 22.3926 6.23566 15.5031 16.6427C15.427 16.7532 15.4101 16.8976 15.4523 17.025C15.4946 17.161 15.596 17.2544 15.7228 17.2969L16.6865 17.6282C16.7457 17.6452 16.8049 17.6537 16.8556 17.6537C17.0331 17.6537 17.2022 17.5603 17.3036 17.4158C20.4652 12.7433 24.7426 8.86079 29.6794 6.17619C34.7768 3.40663 40.5505 1.9369 46.3749 1.9369C53.4166 1.9369 60.2047 4.02681 66.0206 7.96875C71.6929 11.8172 76.0971 17.1949 78.7599 23.5072C78.836 23.6941 79.022 23.8215 79.2248 23.8215H80.3745C80.5098 23.8215 80.6366 23.7535 80.7042 23.6431C80.7887 23.5326 80.8056 23.3967 80.7549 23.2693ZM16.8556 17.3649H16.8725C16.8725 17.3649 16.864 17.3649 16.8556 17.3649ZM78.9882 23.6686C79.0135 23.6856 79.0389 23.7026 79.0642 23.7111C79.0389 23.6941 79.0135 23.6856 78.9882 23.6686Z" fill="url(#paint0_linear_230_33969)"/>
</g>
<defs>
<linearGradient id="paint0_linear_230_33969" x1="15.4185" y1="23.7787" x2="143.931" y2="23.7787" gradientUnits="userSpaceOnUse">
<stop offset="0.007" stop-color="white" stop-opacity="0"/>
<stop offset="0.260417" stop-color="white"/>
</linearGradient>
<clipPath id="clip0_230_33969">
<rect width="88" height="48" fill="white"/>
</clipPath>
</defs>
</svg>
