<svg width="48" height="48" viewBox="0 0 48 48" fill="none" xmlns="http://www.w3.org/2000/svg">
<path fill-rule="evenodd" clip-rule="evenodd" d="M0 48H48V0H0V48Z" fill="white"/>
<path fill-rule="evenodd" clip-rule="evenodd" d="M42.6323 11.013H40.944V4.80223H42.534V5.49748C42.732 5.07973 43.2285 4.70998 43.8743 4.66273C44.9678 4.61623 45.7118 5.21923 45.7118 6.51673V11.013H43.974V6.33148C43.974 5.77573 43.974 5.31148 43.5765 5.21923C43.4273 5.17273 43.179 5.21923 42.9803 5.35798C42.732 5.59048 42.6323 5.86798 42.6323 6.33148V11.013V11.013ZM13.275 7.90723C13.275 9.06598 13.275 9.99298 13.0763 10.4572C12.927 10.6882 12.7778 10.8277 12.4298 10.8277C12.132 10.8277 11.9333 10.6882 11.8343 10.4565C11.586 9.99298 11.586 9.06598 11.586 7.90723C11.586 6.79498 11.586 5.82223 11.8335 5.35798C11.9333 5.12623 12.132 4.98748 12.4298 4.98748C12.7778 4.98748 12.927 5.12623 13.0763 5.35798C13.3245 5.82148 13.275 6.79498 13.275 7.90798V7.90723ZM13.92 5.21923C13.5225 4.89448 13.026 4.66273 12.4298 4.66273C11.8343 4.66273 11.3873 4.89523 10.9403 5.21923C10.2443 5.77573 9.79726 6.79498 9.79726 7.90723C9.79726 9.06598 10.2443 10.0395 10.9403 10.596C11.3873 10.92 11.8343 11.1517 12.4298 11.1517C13.026 11.1517 13.5233 10.92 13.9208 10.596C14.6655 10.0395 15.063 9.06598 15.063 7.90723C15.063 6.79498 14.6655 5.77573 13.9208 5.21923H13.92ZM31.257 13.377V15.045H30.9098C30.711 14.3497 30.4125 13.7475 29.6175 13.701C29.121 13.6552 28.674 13.9335 28.6245 14.3497C28.575 14.7675 28.7235 15.1372 29.6175 15.6022C30.7605 16.2037 31.6545 16.482 31.6545 17.7337C31.6545 19.0777 30.4125 19.7272 29.3693 19.7272H27.3818V17.4097H27.7298C27.9788 18.6142 28.3755 19.356 29.3198 19.4025C29.916 19.4025 30.3623 19.0777 30.3623 18.4755C30.3623 17.8725 29.9655 17.502 29.022 16.992C27.9788 16.3897 27.333 16.0185 27.333 15.1845C27.333 14.0722 28.1775 13.377 29.5185 13.377H31.257V13.377ZM33.4425 11.013V6.51673C33.4425 5.21923 32.6978 4.61623 31.605 4.66273C30.8595 4.70923 30.4125 5.17273 30.2138 5.54323C29.9655 4.89448 29.4188 4.61623 28.6238 4.66273C27.9788 4.70923 27.4815 5.07973 27.2828 5.49748V4.80223H25.743V11.0122H27.432V6.33223C27.432 5.86873 27.4815 5.59048 27.78 5.35873C27.9788 5.21998 28.1775 5.17348 28.326 5.21998C28.7235 5.31223 28.7235 5.77648 28.7235 6.33223V11.0137H30.4125V6.28498C30.4125 5.86723 30.5115 5.58898 30.7605 5.35723C30.9593 5.21848 31.158 5.17198 31.3065 5.21848C31.704 5.31073 31.7535 5.77498 31.7535 6.33073V11.0122H33.4425V11.013ZM16.2053 11.013H17.9438V3.50398H16.2053V11.013ZM22.0665 5.31223C22.4145 5.77573 22.4145 6.88723 22.4145 7.76848C22.4145 8.69548 22.4648 9.90073 22.0673 10.41C21.918 10.596 21.7688 10.6882 21.5205 10.6882C21.1733 10.6882 20.9745 10.3177 20.8755 9.71473C20.8253 9.15898 20.8253 8.46373 20.8253 7.72198C20.8253 6.47098 20.9243 5.07973 21.5708 5.07973C21.8183 5.07973 21.918 5.17273 22.0673 5.31223H22.0665ZM24.1043 11.013V3.50398H22.365V5.26573C22.2165 4.94098 21.8685 4.70923 21.372 4.70923C20.13 4.70923 19.137 5.91448 19.0868 7.76848C19.0373 9.02023 19.4843 11.106 21.2228 11.106C21.918 11.106 22.3155 10.7347 22.4648 10.41V11.013H24.1043V11.013ZM37.6155 7.30498L37.0688 7.62898C36.5228 7.95373 36.4238 8.37148 36.3735 8.83423C36.324 9.20548 36.324 9.52948 36.3735 10.086C36.423 10.596 36.771 10.6882 37.0688 10.596C37.4168 10.4565 37.6155 9.85423 37.6155 9.20548V7.30498ZM38.6085 4.98748C39.0563 5.21998 39.354 5.58973 39.354 6.42448V11.013H37.7145V10.3177C37.5165 10.8277 36.9698 11.1517 36.2243 11.1517C35.6288 11.1517 34.5855 10.8742 34.5855 9.43723C34.5855 8.09248 35.529 7.81498 36.573 7.39723C37.5165 7.02673 37.6155 6.98023 37.6155 6.60973V5.58973C37.6155 5.17273 37.3673 4.98748 36.87 4.98748C36.672 5.03398 36.324 5.12623 36.324 5.35798C36.2738 5.63623 36.6218 5.63623 36.672 6.05323C36.7215 6.70273 36.1748 6.93373 35.6783 6.88798C35.3303 6.88798 34.9328 6.70273 34.8833 6.19273C34.8338 5.35798 35.8268 4.66273 37.218 4.66273C37.8638 4.66273 38.2613 4.80223 38.6085 4.98748V4.98748ZM13.026 15.972L12.48 16.2967C11.9333 16.6215 11.8343 17.0385 11.784 17.502C11.7353 17.8725 11.7353 18.2437 11.784 18.753C11.784 19.3095 12.132 19.4025 12.4298 19.263C12.8273 19.1242 13.026 18.5685 13.026 17.8725V15.972ZM14.0198 13.6545C14.4668 13.9327 14.715 14.2575 14.715 15.0915V19.7265H13.1265V19.0312C12.9278 19.4947 12.3818 19.8187 11.6363 19.8187C10.9905 19.8187 9.99676 19.5877 9.99676 18.1507C9.99676 16.8067 10.941 16.5285 11.934 16.1107C12.9278 15.6945 13.0268 15.648 13.0268 15.3232V14.3032C13.0268 13.8405 12.7785 13.6552 12.282 13.701C12.0833 13.701 11.736 13.794 11.736 14.0257C11.6858 14.3505 12.0338 14.3505 12.0833 14.7675C12.1328 15.3697 11.5868 15.6015 11.0895 15.6015C10.7423 15.555 10.3448 15.3697 10.2945 14.8597C10.245 14.0722 11.2388 13.3762 12.6293 13.3762C13.2758 13.3762 13.6725 13.4692 14.0205 13.6552L14.0198 13.6545ZM26.0415 15.231C26.0415 13.9335 25.296 13.284 24.2033 13.377C23.6573 13.4227 23.2095 13.6545 22.9613 13.9792V12.1717H21.2715V16.4362C21.2715 18.0112 20.079 19.4947 18.8865 19.4482C18.0428 19.4482 17.844 18.846 17.7443 18.1972C17.5958 17.2702 17.5958 16.2045 17.6948 15.045C17.7945 14.304 17.9933 13.701 18.5895 13.701C19.0365 13.701 19.086 13.9792 18.8873 14.1645C18.6885 14.397 18.3908 14.628 18.5393 15.138C18.6885 15.6945 19.632 15.7867 20.0798 15.3705C20.427 14.9992 20.3775 14.3962 20.1293 14.0257C19.8308 13.5622 19.3343 13.377 18.5895 13.377C17.6453 13.377 15.8573 14.1645 15.8573 16.6672C15.8573 19.356 17.6948 19.8195 18.738 19.8195C19.9305 19.8195 20.973 18.846 21.2715 18.0577V19.7265H22.9605V15.045C22.9605 14.5822 23.0595 14.304 23.3085 14.0715C23.5073 13.9327 23.7555 13.8862 23.9048 13.9327C24.3023 14.0257 24.3023 14.4892 24.3023 15.045V19.7265H26.0408V15.231H26.0415ZM8.65501 3.36523V6.00748H8.30701C8.00926 4.70998 7.36351 3.73573 6.46951 3.68998C5.87326 3.64348 5.52526 3.96748 5.22751 4.43098C4.92976 4.98748 4.78051 6.14623 4.78051 7.53598C4.78051 8.83423 4.83001 9.80773 4.97926 10.503C5.07826 10.8277 5.32651 11.337 5.97226 11.337C6.32026 11.337 6.56851 11.2447 6.71776 11.0595C6.96526 10.7812 7.01551 10.2247 7.01551 9.85423V8.60248C7.01551 8.13898 6.86701 7.86148 6.61801 7.72198C6.42001 7.62898 6.12151 7.62898 5.97301 7.58248V7.25848H8.75401V13.887H8.40676C8.25751 13.377 8.15851 13.0057 7.90951 12.5887C7.66201 12.1717 7.21426 11.7082 6.46951 11.7082C5.67451 11.6617 5.07826 12.1252 5.07826 12.8205C5.07826 13.7475 5.67451 13.9792 6.76726 14.5357C7.81051 15.0915 9.15226 15.5557 9.15226 17.1772C9.15226 18.753 7.71076 19.7272 6.07201 19.7272H3.43951V16.5285H3.78676C4.23376 18.939 5.32651 19.356 6.07201 19.356C7.01551 19.356 7.46251 18.7995 7.46251 18.012C7.41301 16.992 6.66751 16.6215 5.62501 16.1115C4.13476 15.324 3.43951 14.9527 3.43951 13.6552C3.48901 12.5422 4.43251 11.8477 5.47576 11.5695C3.29026 11.337 2.64451 9.48373 2.69401 7.49023C2.69401 5.49748 3.93601 3.36523 6.36976 3.36523H8.65501V3.36523Z" fill="#01657B"/>
</svg>
