<svg width="114" height="48" viewBox="0 0 114 48" fill="none" xmlns="http://www.w3.org/2000/svg">
<g clip-path="url(#clip0)">
<path d="M85.7183 12.1796C85.8059 12.1796 85.8935 12.1796 85.9436 12.0908C85.9561 12.0528 85.9686 12.0147 85.9686 11.9767C85.9686 11.9006 85.931 11.8371 85.8685 11.7991C85.8059 11.7737 85.7434 11.7737 85.6057 11.7737H85.5432V12.1669H85.7183V12.1796ZM85.6057 11.5581C85.7934 11.5581 85.881 11.5581 85.9561 11.5961C86.2063 11.6723 86.2313 11.9006 86.2313 11.9767C86.2313 11.9894 86.2313 12.0401 86.2188 12.0908C86.2063 12.1416 86.1813 12.243 86.0437 12.3318C86.0186 12.3445 86.0186 12.3445 85.9811 12.3572L86.2939 12.9406H85.9936L85.7183 12.4079H85.5432V12.9406H85.2679V11.5581H85.6057ZM85.7183 13.5114C86.394 13.5114 86.932 12.9533 86.932 12.2811C86.932 11.5961 86.394 11.0507 85.7183 11.0507C85.0552 11.0507 84.5172 11.5961 84.5172 12.2811C84.5172 12.9533 85.0552 13.5114 85.7183 13.5114ZM84.7674 12.2811C84.7674 11.7484 85.1928 11.3044 85.7183 11.3044C86.2563 11.3044 86.6817 11.7484 86.6817 12.2811C86.6817 12.8011 86.2438 13.2451 85.7183 13.2451C85.2054 13.2451 84.7674 12.8011 84.7674 12.2811ZM76.3345 20.1071C74.733 20.1071 73.3942 19.0163 72.9813 17.5322H81.8397L83.0658 15.6043H72.9688C73.3692 14.1203 74.733 13.0168 76.322 13.0168H82.4277L83.6414 11.0888H76.1844C73.194 11.0888 70.7793 13.5368 70.7793 16.5556C70.7793 19.5744 73.194 22.0224 76.1844 22.0224H82.5904L83.804 20.0944H76.322L76.3345 20.1071ZM50.9481 22.0351C47.9702 22.0351 45.5555 19.587 45.5555 16.5683C45.5555 13.5495 47.9702 11.1015 50.9481 11.1015H58.4051L57.1789 13.0294H51.0732C49.1464 13.0294 47.5824 14.6149 47.5824 16.5683C47.5824 18.5216 49.1464 20.1071 51.0732 20.1071H58.5552L57.3291 22.0351H50.923H50.9481ZM11.5359 20.1071C13.4627 20.1071 15.0392 18.5216 15.0392 16.5683C15.0392 14.6149 13.4752 13.0294 11.5359 13.0294H5.54273C3.61591 13.0294 2.05194 14.6149 2.05194 16.5683C2.05194 18.5216 3.61591 20.1071 5.54273 20.1071H11.5359ZM5.4051 22.0351C2.41478 22.0351 0 19.587 0 16.5683C0 13.5495 2.41478 11.1015 5.4051 11.1015H11.6735C14.6513 11.1015 17.0661 13.5495 17.0661 16.5683C17.0661 19.587 14.6513 22.0351 11.6735 22.0351H5.4051ZM27.2507 18.4962C29.2776 18.4962 30.9041 16.8346 30.9041 14.7925C30.9041 12.7504 29.2776 11.0888 27.2507 11.0888H18.1671V22.0351H20.2441V13.0168H27.1131C28.064 13.0168 28.8522 13.8158 28.8522 14.7925C28.8522 15.7692 28.064 16.5556 27.1131 16.5556H21.2575L27.4384 22.0351H30.4537L26.2873 18.4962H27.2257H27.2507ZM61.5831 20.1071V11.1015H59.5186V20.995C59.5186 21.274 59.6187 21.5277 59.8189 21.7306C60.0191 21.9209 60.2944 22.0477 60.5821 22.0477H70.0536L71.2797 20.1198H61.5956L61.5831 20.1071ZM36.1841 18.1791H41.7268L38.7991 13.3973L33.419 22.0477H30.9792L37.5104 11.6723C37.7981 11.2537 38.2736 11 38.7991 11C39.2996 11 39.775 11.241 40.0628 11.6469L46.619 22.0477H44.1667L43.0156 20.1198H37.4103L36.1841 18.1918V18.1791Z" fill="#FEFEFE"/>
<path d="M7.00016 36.4986V37.444C6.68919 37.6174 6.3199 37.7552 5.89231 37.8577C5.47249 37.9522 5.0449 37.9995 4.60954 37.9995C3.35008 37.9995 2.37439 37.6095 1.68247 36.8295C0.998324 36.0417 0.65625 34.9229 0.65625 33.4733C0.65625 32.5673 0.815625 31.7913 1.13438 31.1452C1.4609 30.4992 1.92348 30.0029 2.52211 29.6562C3.12074 29.3017 3.83209 29.1244 4.65618 29.1244C5.02158 29.1244 5.39086 29.1717 5.76403 29.2662C6.14498 29.3608 6.45596 29.4908 6.69696 29.6562V30.6016C6.29269 30.4204 5.93896 30.2904 5.63576 30.2117C5.33255 30.1329 5.02935 30.0935 4.72615 30.0935C3.79322 30.0935 3.06632 30.3889 2.54543 30.9798C2.02455 31.5628 1.7641 32.394 1.7641 33.4733C1.7641 34.6157 2.02066 35.4941 2.53377 36.1086C3.05465 36.7232 3.78545 37.0304 4.72615 37.0304C5.42585 37.0304 6.18385 36.8532 7.00016 36.4986Z" fill="white"/>
<path d="M8.85026 37.8577V29.8099L8.24386 29.4199V28.9826H9.89981V37.8577H8.85026Z" fill="white"/>
<path d="M14.6255 37.9877C13.7081 37.9877 12.9968 37.704 12.4914 37.1368C11.9861 36.5617 11.7334 35.7738 11.7334 34.7733C11.7334 33.7648 11.9861 32.977 12.4914 32.4097C12.9968 31.8425 13.7081 31.5589 14.6255 31.5589C15.5506 31.5589 16.2659 31.8425 16.7712 32.4097C17.2766 32.977 17.5292 33.7648 17.5292 34.7733C17.5292 35.7738 17.2766 36.5617 16.7712 37.1368C16.2659 37.704 15.5506 37.9877 14.6255 37.9877ZM14.6255 37.1131C15.2241 37.1131 15.6789 36.9162 15.9899 36.5223C16.3009 36.1205 16.4564 35.5375 16.4564 34.7733C16.4564 34.0091 16.3009 33.43 15.9899 33.0361C15.6789 32.6343 15.2241 32.4334 14.6255 32.4334C14.0346 32.4334 13.5837 32.6343 13.2727 33.0361C12.9618 33.43 12.8063 34.0091 12.8063 34.7733C12.8063 35.5375 12.9618 36.1205 13.2727 36.5223C13.5837 36.9162 14.0346 37.1131 14.6255 37.1131Z" fill="white"/>
<path d="M19.3024 35.506V31.6889H20.352V35.4705C20.352 35.9984 20.4647 36.4041 20.6902 36.6877C20.9156 36.9713 21.246 37.1131 21.6814 37.1131C22.0468 37.1131 22.3889 36.9871 22.7076 36.735C23.0341 36.475 23.279 36.1323 23.4423 35.7069V31.6889H24.4918V37.8577H23.7805L23.5939 36.8059C23.3451 37.1841 23.0303 37.4756 22.6493 37.6804C22.2761 37.8852 21.868 37.9877 21.4248 37.9877C20.7485 37.9877 20.2237 37.7749 19.8505 37.3495C19.4851 36.9241 19.3024 36.3095 19.3024 35.506Z" fill="white"/>
<path d="M31.1255 37.8577L30.9506 36.865C30.7173 37.2195 30.418 37.4952 30.0526 37.6922C29.695 37.8892 29.3063 37.9877 28.8864 37.9877C28.0857 37.9877 27.456 37.704 26.9973 37.1368C26.5464 36.5695 26.3209 35.7856 26.3209 34.7851C26.3209 33.7688 26.5464 32.977 26.9973 32.4097C27.456 31.8425 28.0935 31.5589 28.9098 31.5589C29.2518 31.5589 29.5861 31.6258 29.9127 31.7598C30.2392 31.8937 30.5307 32.0828 30.7873 32.327V28.9826H31.8368V37.8577H31.1255ZM27.3938 34.7733C27.3938 35.5217 27.5376 36.1008 27.8252 36.5104C28.1129 36.9201 28.5211 37.125 29.0497 37.125C29.4151 37.125 29.7494 37.0265 30.0526 36.8295C30.3636 36.6247 30.6085 36.3489 30.7873 36.0023V33.2606C30.3131 32.7012 29.7494 32.4216 29.0964 32.4216C28.5521 32.4216 28.1323 32.6225 27.8369 33.0243C27.5415 33.4261 27.3938 34.0091 27.3938 34.7733Z" fill="white"/>
<path d="M37.4456 37.8577V29.2662H38.5301V37.8577H37.4456Z" fill="white"/>
<path d="M40.8145 37.8577V31.6889H41.5258L41.7124 32.7406C41.969 32.3625 42.2838 32.071 42.657 31.8661C43.0302 31.6613 43.45 31.5589 43.9164 31.5589C44.6161 31.5589 45.1526 31.7716 45.5257 32.197C45.8989 32.6225 46.0855 33.237 46.0855 34.0406V37.8577H45.036V34.076C45.036 33.0046 44.5773 32.4688 43.6599 32.4688C43.2712 32.4688 42.9135 32.5909 42.587 32.8352C42.2683 33.0715 42.0273 33.3945 41.864 33.8042V37.8577H40.8145Z" fill="white"/>
<path d="M48.5773 37.8577V32.5634H47.5278V32.0198L48.5773 31.6652V30.9798C48.5773 29.5932 49.2304 28.8999 50.5365 28.8999C50.6764 28.8999 50.828 28.9157 50.9913 28.9472V29.7744C50.898 29.7586 50.7736 29.7508 50.6181 29.7508C50.2605 29.7508 50.004 29.8493 49.8485 30.0462C49.7007 30.2353 49.6269 30.5426 49.6269 30.968V31.6889H51.0379V32.5634H49.6269V37.8577H48.5773Z" fill="white"/>
<path d="M52.7712 37.8577V31.6889H53.4826L53.6925 32.847C54.089 32.067 54.6565 31.677 55.3951 31.677C55.5506 31.677 55.6866 31.6889 55.8033 31.7125V32.6461H55.535C55.0919 32.6461 54.7226 32.7721 54.4272 33.0243C54.1318 33.2764 53.9296 33.6427 53.8208 34.1233V37.8577H52.7712Z" fill="white"/>
<path d="M61.1278 37.8577L60.9529 36.865C60.4553 37.6134 59.7789 37.9877 58.9237 37.9877C58.3096 37.9877 57.8159 37.8143 57.4427 37.4677C57.0773 37.1131 56.8946 36.6444 56.8946 36.0614C56.8946 35.4153 57.1123 34.9151 57.5477 34.5605C57.9908 34.1981 58.605 34.0169 59.3902 34.0169H60.7896V33.6269C60.7896 33.1858 60.6924 32.8746 60.4981 32.6934C60.3115 32.5122 59.9888 32.4216 59.5301 32.4216C59.2347 32.4216 58.9199 32.457 58.5856 32.5279C58.2513 32.5909 57.8742 32.6973 57.4544 32.847V31.9843C57.7498 31.8504 58.088 31.7479 58.4689 31.677C58.8499 31.5983 59.2075 31.5589 59.5418 31.5589C61.0734 31.5589 61.8391 32.2482 61.8391 33.6269V37.8577H61.1278ZM59.052 37.1368C59.4096 37.1368 59.7439 37.0344 60.0549 36.8295C60.3659 36.6168 60.6147 36.3292 60.8013 35.9668V34.7969H59.4952C58.9665 34.7969 58.5739 34.8954 58.3173 35.0923C58.0686 35.2814 57.9442 35.5769 57.9442 35.9787C57.9442 36.3332 58.0413 36.6168 58.2357 36.8295C58.4378 37.0344 58.7099 37.1368 59.052 37.1368Z" fill="white"/>
<path d="M63.6727 37.5504V36.6523C64.0381 36.8098 64.3685 36.9241 64.6639 36.995C64.9671 37.0659 65.2858 37.1013 65.6201 37.1013C66.6308 37.1013 67.1362 36.7941 67.1362 36.1796C67.1362 35.9353 67.0623 35.7462 66.9146 35.6123C66.7669 35.4705 66.5064 35.3484 66.1333 35.246L65.177 34.986C64.6173 34.8284 64.2091 34.6157 63.9525 34.3478C63.696 34.0721 63.5677 33.7215 63.5677 33.2961C63.5677 32.7603 63.7737 32.3388 64.1858 32.0316C64.6056 31.7164 65.1692 31.5589 65.8767 31.5589C66.2654 31.5589 66.6192 31.5904 66.9379 31.6534C67.2567 31.7164 67.5327 31.8031 67.7659 31.9134V32.8115C67.1673 32.5673 66.5609 32.4452 65.9467 32.4452C65.0604 32.4452 64.6173 32.7052 64.6173 33.2252C64.6173 33.4457 64.6833 33.623 64.8155 33.7569C64.9554 33.883 65.1964 33.9933 65.5385 34.0878L66.5064 34.3478C67.0973 34.5054 67.5249 34.726 67.7892 35.0096C68.0535 35.2854 68.1857 35.6596 68.1857 36.1323C68.1857 36.7074 67.9641 37.1604 67.521 37.4913C67.0778 37.8222 66.4637 37.9877 65.6785 37.9877C65.3053 37.9877 64.9399 37.9483 64.5823 37.8695C64.2246 37.7907 63.9214 37.6843 63.6727 37.5504Z" fill="white"/>
<path d="M70.21 35.9787V32.5634H69.1605V32.0198L70.21 31.6652L70.6298 29.9871H71.2595V31.6889H72.5773V32.5634H71.2595V35.9668C71.2595 36.6444 71.5472 36.9832 72.1225 36.9832C72.2158 36.9832 72.3052 36.9792 72.3907 36.9713C72.484 36.9556 72.5695 36.9438 72.6473 36.9359V37.8577C72.5384 37.8813 72.4257 37.897 72.3091 37.9049C72.2002 37.9128 72.0836 37.9167 71.9592 37.9167C71.3606 37.9167 70.9175 37.7592 70.6298 37.444C70.3499 37.1289 70.21 36.6404 70.21 35.9787Z" fill="white"/>
<path d="M74.4186 37.8577V31.6889H75.1299L75.3398 32.847C75.7363 32.067 76.3039 31.677 77.0424 31.677C77.1979 31.677 77.334 31.6889 77.4506 31.7125V32.6461H77.1824C76.7392 32.6461 76.3699 32.7721 76.0745 33.0243C75.7791 33.2764 75.5769 33.6427 75.4681 34.1233V37.8577H74.4186Z" fill="white"/>
<path d="M79.1429 35.506V31.6889H80.1924V35.4705C80.1924 35.9984 80.3052 36.4041 80.5306 36.6877C80.7561 36.9713 81.0865 37.1131 81.5218 37.1131C81.8872 37.1131 82.2293 36.9871 82.5481 36.735C82.8746 36.475 83.1195 36.1323 83.2828 35.7069V31.6889H84.3323V37.8577H83.6209L83.4344 36.8059C83.1856 37.1841 82.8707 37.4756 82.4898 37.6804C82.1166 37.8852 81.7084 37.9877 81.2653 37.9877C80.5889 37.9877 80.0641 37.7749 79.691 37.3495C79.3256 36.9241 79.1429 36.3095 79.1429 35.506Z" fill="white"/>
<path d="M90.8376 36.6759V37.5504C90.3556 37.8419 89.7453 37.9877 89.0068 37.9877C88.0661 37.9877 87.3547 37.7119 86.8727 37.1604C86.3985 36.6011 86.1613 35.7817 86.1613 34.7024C86.1613 33.7018 86.414 32.9297 86.9193 32.3861C87.4247 31.8346 88.1399 31.5589 89.0651 31.5589C89.6404 31.5589 90.1729 31.6889 90.6627 31.9488V32.8234C90.1496 32.5634 89.6715 32.4334 89.2283 32.4334C87.8989 32.4334 87.2342 33.1897 87.2342 34.7024C87.2342 35.5217 87.3858 36.1283 87.689 36.5223C88 36.9162 88.4859 37.1131 89.1467 37.1131C89.411 37.1131 89.6793 37.0777 89.9514 37.0068C90.2235 36.9359 90.5189 36.8256 90.8376 36.6759Z" fill="white"/>
<path d="M93.0075 35.9787V32.5634H91.958V32.0198L93.0075 31.6652L93.4273 29.9871H94.0571V31.6889H95.3748V32.5634H94.0571V35.9668C94.0571 36.6444 94.3447 36.9832 94.92 36.9832C95.0133 36.9832 95.1027 36.9792 95.1882 36.9713C95.2815 36.9556 95.3671 36.9438 95.4448 36.9359V37.8577C95.336 37.8813 95.2232 37.897 95.1066 37.9049C94.9978 37.9128 94.8812 37.9167 94.7568 37.9167C94.1581 37.9167 93.715 37.7592 93.4273 37.444C93.1475 37.1289 93.0075 36.6404 93.0075 35.9787Z" fill="white"/>
<path d="M97.1578 35.506V31.6889H98.2073V35.4705C98.2073 35.9984 98.3201 36.4041 98.5455 36.6877C98.771 36.9713 99.1014 37.1131 99.5368 37.1131C99.9021 37.1131 100.244 36.9871 100.563 36.735C100.89 36.475 101.134 36.1323 101.298 35.7069V31.6889H102.347V37.8577H101.636L101.449 36.8059C101.2 37.1841 100.886 37.4756 100.505 37.6804C100.131 37.8852 99.7233 37.9877 99.2802 37.9877C98.6038 37.9877 98.0791 37.7749 97.7059 37.3495C97.3405 36.9241 97.1578 36.3095 97.1578 35.506Z" fill="white"/>
<path d="M104.561 37.8577V31.6889H105.272L105.482 32.847C105.879 32.067 106.446 31.677 107.185 31.677C107.34 31.677 107.476 31.6889 107.593 31.7125V32.6461H107.325C106.882 32.6461 106.512 32.7721 106.217 33.0243C105.922 33.2764 105.719 33.6427 105.611 34.1233V37.8577H104.561Z" fill="white"/>
<path d="M113.711 37.5504C113.493 37.6843 113.201 37.7907 112.836 37.8695C112.478 37.9483 112.086 37.9877 111.658 37.9877C110.694 37.9877 109.963 37.7119 109.466 37.1604C108.976 36.6011 108.731 35.7856 108.731 34.7142C108.731 33.6821 108.964 32.8982 109.431 32.3625C109.905 31.8267 110.581 31.5589 111.46 31.5589C113.155 31.5589 114.002 32.5082 114.002 34.4069V35.0923H109.792C109.839 35.7856 110.022 36.2938 110.34 36.6168C110.659 36.9319 111.133 37.0895 111.763 37.0895C112.113 37.0895 112.443 37.0541 112.754 36.9832C113.065 36.9122 113.384 36.802 113.711 36.6523V37.5504ZM111.46 32.4334C110.947 32.4334 110.546 32.5909 110.259 32.9061C109.979 33.2133 109.823 33.6624 109.792 34.2533H112.988C112.988 33.6073 112.867 33.1424 112.626 32.8588C112.393 32.5752 112.004 32.4334 111.46 32.4334Z" fill="white"/>
</g>
<defs>
<clipPath id="clip0">
<rect width="114" height="48" fill="white"/>
</clipPath>
</defs>
</svg>
