<svg width="88" height="48" viewBox="0 0 88 48" fill="none" xmlns="http://www.w3.org/2000/svg">
<path fill-rule="evenodd" clip-rule="evenodd" d="M27.0618 33.4589C27.0618 31.7335 26.6108 30.6355 25.6621 29.4434L23.2669 31.4668C23.7801 32.0942 23.889 32.502 23.9046 33.4746C23.9512 35.3725 22.3959 36.8783 20.5296 36.8783C18.6632 36.8783 17.1545 35.3411 17.1545 33.4746C17.1545 33.1765 17.2168 32.753 17.3101 32.3923L14.8216 30.2747C14.4328 30.9335 14.075 31.5923 14.0439 33.4589C13.9817 37.0195 16.9523 39.9998 20.5296 39.9998C24.1223 39.9998 27.0618 37.0666 27.0618 33.4589Z" fill="white"/>
<path fill-rule="evenodd" clip-rule="evenodd" d="M30.3197 25.5055V24.2192L20.5834 32.4699V31.1836L30.3197 22.9487V21.8194L24.9694 18.243C25.0938 18.6352 25.1405 19.4979 24.6428 20.5802C24.0051 21.9605 22.3876 23.0428 21.8899 23.3722C21.2833 23.7644 20.9567 24.1408 20.8634 24.4859C20.8012 24.6741 20.7234 24.9565 20.8012 25.2702C21.3455 25.3643 21.9677 25.8662 21.9677 26.7133C21.9521 27.5446 21.2989 28.2191 20.4746 28.2191C19.6503 28.2191 18.9659 27.5446 18.9815 26.7133C18.997 26.1015 19.3547 25.427 20.1635 25.2231C19.9769 24.5957 19.8836 24.3604 19.8836 23.5605C19.8991 22.0389 21.5166 20.737 21.5166 20.737C22.652 19.7489 23.383 18.8705 23.523 17.9607C23.6629 17.098 23.2897 16 23.2897 16C23.6941 16.1255 23.8807 16.2823 24.0984 16.5176C24.2851 16.7059 24.4717 17.0352 24.4717 17.0352C24.705 16.298 24.6428 15.702 24.5339 15.2157C24.4095 14.6667 24.1762 14.1177 23.6163 13.6158C22.9786 13.0511 22.4343 12.9256 22.4343 12.9256C22.5742 13.2236 22.6831 13.6315 22.6053 14.4785C22.5276 15.3412 22.3098 15.8275 21.7344 16.5961C21.2056 17.3333 20.1168 18.2117 19.4792 19.0901C18.8882 19.9057 18.6393 20.6429 18.5926 21.286C18.5304 22.2585 18.9348 23.3095 18.9348 23.3095C18.546 23.0899 18.1105 22.6821 17.815 22.1174C17.4884 21.49 17.3329 20.9566 17.3017 19.9214C17.2862 19.0116 17.6284 17.7254 18.3438 16.8313C18.8415 16.2039 20.0702 14.9961 20.5212 14.055C20.9723 13.1138 20.9101 12.5962 20.9101 12.2041C20.9101 11.8119 20.7234 11.2473 20.7234 11.2473C20.9878 11.2943 21.3455 11.5296 21.4544 11.6237C21.6411 11.7963 21.8121 11.9688 21.8121 11.9688C21.8588 11.6865 21.8899 11.2002 21.7499 10.5414C21.5633 9.56891 21.1122 8.98854 20.4901 8.50229C19.8058 7.96898 19.1681 8.00035 19.1681 8.00035C19.4481 8.36112 19.6503 8.75326 19.7436 9.31794C19.8369 9.86693 19.8369 10.51 19.5414 11.1845C19.1992 11.9845 18.2816 12.6903 17.5973 13.3805C16.8974 14.0707 16.2752 14.7922 15.8087 15.7804C15.2487 16.9568 15.1865 17.8352 15.4043 19.0116C15.6531 20.3763 16.3841 21.239 16.3841 21.239C15.8398 21.0351 15.3576 20.69 15.0466 20.3449C14.7355 19.9998 14.5177 19.6077 14.3933 19.2626L10.7539 21.7566V25.5212L20.5368 33.8188L23.2897 31.4817L25.6848 29.4582L30.3197 25.5055Z" fill="white"/>
<path fill-rule="evenodd" clip-rule="evenodd" d="M83.3332 31.0722V28.39H87.6103V26.1626H83.3332V23.7157H87.9525V21.4727H80.207V33.3153H87.9991V31.0722H83.3332Z" fill="white"/>
<path fill-rule="evenodd" clip-rule="evenodd" d="M72.8957 21.4727H69.7695V33.2996H72.8957V21.4727Z" fill="white"/>
<path fill-rule="evenodd" clip-rule="evenodd" d="M41.1213 30.9635H36.6887V21.458H33.5625V33.3006H41.1213V30.9635Z" fill="white"/>
<path fill-rule="evenodd" clip-rule="evenodd" d="M58.0101 33.3153H61.1362V23.8098H64.0291V21.4727H55.1172V23.8098H58.0101V33.3153Z" fill="white"/>
<path fill-rule="evenodd" clip-rule="evenodd" d="M49.3566 21.4727H46.2305V33.2996H49.3566V21.4727Z" fill="white"/>
<path fill-rule="evenodd" clip-rule="evenodd" d="M3.73274 21.458H0V33.3006H3.12616V30.6498H4.0749C7.21662 30.7282 9.05188 28.4381 9.00522 25.9911C8.94301 23.3403 7.30994 21.458 3.73274 21.458ZM3.93493 28.2499H3.12616V23.6854H3.93493C5.02364 23.6854 5.95682 24.7206 5.95682 25.9441C5.97238 27.1989 5.02364 28.2499 3.93493 28.2499Z" fill="white"/>
</svg>
