<svg width="80" height="48" viewBox="0 0 80 48" fill="none" xmlns="http://www.w3.org/2000/svg">
<g clip-path="url(#clip0)">
<mask id="mask0" style="mask-type:alpha" maskUnits="userSpaceOnUse" x="0" y="23" width="20" height="17">
<path d="M19.7039 39.9999H0.0195312V23.3325H19.7039V39.9999Z" fill="white"/>
</mask>
<g mask="url(#mask0)">
<path fill-rule="evenodd" clip-rule="evenodd" d="M15.3066 39.5296L2.14801 30.7986C2.14801 30.7986 0.497585 29.8319 0.119709 28.0303C-0.410828 25.5009 1.33869 23.3325 1.33869 23.3325L18.4166 34.6678C19.7339 35.5431 20.0936 37.3332 19.2467 38.6835C18.3769 40.0706 16.5892 40.3767 15.3066 39.5296Z" fill="white"/>
</g>
<mask id="mask1" style="mask-type:alpha" maskUnits="userSpaceOnUse" x="0" y="8" width="20" height="24">
<path d="M19.7285 31.7988H0.828125V8H19.7285V31.7988Z" fill="white"/>
</mask>
<g mask="url(#mask1)">
<path fill-rule="evenodd" clip-rule="evenodd" d="M2.84381 21.4615C2.84381 21.4615 0.828125 20.2211 0.828125 17.3521C0.828125 14.4927 2.84301 13.268 2.84301 13.268L10.0368 8.46919C11.3553 7.59571 13.1188 7.97698 13.9758 9.3207C14.8329 10.6644 14.4589 12.4618 13.1404 13.3353L7.07734 17.3592L17.408 24.2161C17.408 24.2161 19.2675 25.3022 19.6339 27.135C20.1452 29.6922 18.4182 31.7988 18.4182 31.7988L2.84381 21.4615Z" fill="white"/>
</g>
<path fill-rule="evenodd" clip-rule="evenodd" d="M16.3833 14.4995C15.7077 14.4996 15.227 14.7167 14.7581 15.0278L11.2461 17.359L14.7581 19.69C15.2316 20.0008 15.7284 20.2183 16.3833 20.2183C17.9327 20.2183 19.1888 18.9382 19.1888 17.3589C19.1888 15.7797 17.9327 14.4992 16.3833 14.4995" fill="white"/>
<path fill-rule="evenodd" clip-rule="evenodd" d="M2.80561 39.9927C3.48118 39.9926 3.96184 39.7756 4.43073 39.4645L7.94273 37.1333L4.43073 34.8022C3.95729 34.4915 3.46045 34.2739 2.80561 34.2739C1.2561 34.2739 0 35.5541 0 37.1333C0 38.7126 1.2561 39.9931 2.80561 39.9927Z" fill="white"/>
<path fill-rule="evenodd" clip-rule="evenodd" d="M78.9693 23.4606L80.0015 24.1032V31.7881H78.9693V30.7024C78.4659 31.4593 77.6603 31.9212 76.691 31.9212C74.8783 31.9212 73.5818 30.5484 73.5818 28.6754C73.5818 26.7639 74.8783 25.3655 76.691 25.3655C77.6603 25.3655 78.4659 25.8402 78.9693 26.6099V23.4606ZM52.665 23.4577L53.6846 24.0999V29.6861C53.6846 30.5713 54.2133 30.9177 54.8805 30.9177C55.384 30.9177 55.8874 30.7765 56.3281 30.4558V31.4693C55.9002 31.7901 55.3084 31.9183 54.7923 31.9183C53.4706 31.9183 52.665 31.3153 52.665 29.6091V23.4577ZM69.9283 25.3483C71.7157 25.3483 72.8864 26.6953 72.8864 28.5043C72.8864 28.6839 72.8738 28.8635 72.8486 29.0303H67.952C68.103 30.1721 68.9843 30.929 70.2178 30.929C71.0108 30.929 71.7786 30.6981 72.4333 30.2234V31.224C71.7661 31.6859 71.0108 31.904 70.2178 31.904C68.2667 31.904 66.8695 30.6211 66.8695 28.6839C66.8695 26.7851 68.0527 25.3483 69.9283 25.3483H69.9283ZM43.7211 25.3483C44.6904 25.3483 45.4833 25.8102 45.9994 26.5671V25.4637H47.0316V31.7885H45.9994V30.7109C45.4833 31.455 44.6904 31.904 43.7211 31.904C41.9084 31.904 40.612 30.5313 40.612 28.6582C40.612 26.7467 41.9084 25.3483 43.7211 25.3483V25.3483ZM30.9194 25.3483C31.6621 25.3483 32.3544 25.5664 32.9084 25.9897V27.1572C32.4173 26.6184 31.7377 26.3361 30.9823 26.3361C29.6607 26.3361 28.7292 27.2727 28.7292 28.6197C28.7292 29.9668 29.6733 30.9161 30.9951 30.9161C31.7377 30.9161 32.43 30.7109 32.9713 30.2362V31.301C32.367 31.7244 31.6495 31.904 30.8943 31.904C28.9936 31.904 27.6719 30.5569 27.6719 28.6197C27.6719 26.6954 29.0313 25.3483 30.9194 25.3483V25.3483ZM59.4303 25.3483C61.2177 25.3483 62.3883 26.6953 62.3883 28.5043C62.3883 28.6839 62.3758 28.8635 62.3506 29.0303H57.454C57.605 30.1721 58.4862 30.929 59.7198 30.929C60.5128 30.929 61.2806 30.6981 61.9353 30.2234V31.224C61.2681 31.6859 60.5128 31.904 59.7198 31.904C57.7687 31.904 56.3715 30.6211 56.3715 28.6839C56.3715 26.7851 57.5546 25.3483 59.4303 25.3483V25.3483ZM34.1041 23.4589L35.1236 24.1012L35.1237 26.5414C35.5894 25.8102 36.3321 25.3483 37.2761 25.3483C38.837 25.3483 39.6678 26.5157 39.6678 28.0681V31.7885H38.6357V28.2477C38.6357 27.0161 38.107 26.3618 37.0244 26.3618C35.8789 26.3618 35.1237 27.3625 35.1237 28.6197V31.7885H34.1041V23.4589ZM51.903 25.3483V26.5414C50.6694 26.3618 49.6372 27.2085 49.6372 28.7737V31.7885H48.6176V25.4637H49.6372V26.8108C50.1281 25.8743 50.9211 25.3483 51.903 25.3483V25.3483ZM66.7939 25.3483V26.5414C65.5604 26.3618 64.5282 27.2085 64.5282 28.7737V31.7885H63.5086V25.4637H64.5282V26.8108C65.019 25.8743 65.8121 25.3483 66.7939 25.3483ZM76.7917 26.3533C75.533 26.3533 74.6392 27.3283 74.6392 28.6626C74.6392 29.9711 75.533 30.9333 76.7917 30.9333C78.0631 30.9333 78.9693 29.9711 78.9693 28.6626C78.9693 27.3283 78.0631 26.3533 76.7917 26.3533V26.3533ZM43.8219 26.3361C42.5631 26.3361 41.6693 27.3112 41.6693 28.6454C41.6693 29.9539 42.5631 30.9161 43.8219 30.9161C45.0932 30.9161 45.9994 29.9539 45.9994 28.6454C45.9994 27.3112 45.0932 26.3361 43.8219 26.3361V26.3361ZM59.4428 26.3105C58.31 26.3105 57.6303 27.1187 57.4666 28.1835H61.3059C61.2051 27.1059 60.5379 26.3105 59.4428 26.3105V26.3105ZM69.9409 26.3105C68.8081 26.3105 68.1283 27.1187 67.9646 28.1835H71.8039C71.7032 27.1059 71.036 26.3105 69.9409 26.3105V26.3105ZM54.4767 25.3737C54.7385 25.2041 55.0737 25.2071 55.3327 25.3812L56.3597 26.0778L55.3457 26.7406C55.0873 26.9095 54.7561 26.9099 54.4973 26.7417L54.4755 26.7276C53.9897 26.4118 53.9903 25.6886 54.4767 25.3736L54.4767 25.3737ZM40.0959 16.0994C41.0652 16.0994 41.8582 16.5612 42.3742 17.3182V16.2149H43.4064V22.5396H42.3742V21.462C41.8582 22.2061 41.0652 22.6551 40.0959 22.6551C38.2832 22.6551 36.9867 21.2824 36.9867 19.4093C36.9867 17.4978 38.2832 16.0994 40.0959 16.0994V16.0994ZM34.0287 14.1885V20.4228C34.0287 21.308 34.5574 21.6544 35.2246 21.6544C35.7281 21.6544 36.2315 21.5133 36.6721 21.1926V22.2061C36.2442 22.5268 35.6525 22.6551 35.1364 22.6551C33.8147 22.6551 33.0091 22.0521 33.0091 20.3458V14.8314L34.0287 14.1885ZM76.8016 14.1889V22.5396H75.7694V21.4363C75.266 22.1932 74.4604 22.6551 73.4911 22.6551C71.6785 22.6551 70.382 21.2824 70.382 19.4093C70.382 17.4978 71.6785 16.0994 73.4911 16.0994C74.4604 16.0994 75.266 16.5741 75.7694 17.3439V14.8311L76.8016 14.1889ZM62.1368 16.0994C63.1061 16.0994 63.8991 16.5612 64.4152 17.3182V16.2149H65.4474V22.5396H64.4152V21.462C63.8991 22.2061 63.1061 22.6551 62.1368 22.6551C60.3242 22.6551 59.0277 21.2824 59.0277 19.4093C59.0277 17.4978 60.3242 16.0994 62.1368 16.0994ZM29.8999 16.0994C30.6299 16.0994 31.3097 16.3047 31.788 16.6767V17.7672C31.2216 17.2541 30.5292 16.959 29.9125 16.959C29.2578 16.959 28.7921 17.2669 28.7921 17.7801C28.7921 18.1649 28.9684 18.3959 29.4593 18.5882L30.9321 19.1913C31.725 19.5376 32.0902 20.0251 32.0902 20.705C32.0902 21.911 31.1335 22.6551 29.7866 22.6551C28.9684 22.6551 28.2256 22.4242 27.6844 22.0136V20.8847C28.339 21.5133 29.0691 21.7956 29.7992 21.7956C30.5292 21.7956 31.058 21.4748 31.058 20.8975C31.058 20.5511 30.8818 20.2817 30.416 20.0892L28.9432 19.4863C28.188 19.1528 27.7726 18.7166 27.7726 17.8955C27.7726 16.7922 28.6412 16.0994 29.8999 16.0994V16.0994ZM57.9199 14.1889V22.5396H56.8877V21.4363C56.3843 22.1932 55.5787 22.6551 54.6094 22.6551C52.7967 22.6551 51.5003 21.2824 51.5003 19.4093C51.5003 17.4978 52.7967 16.0994 54.6094 16.0994C55.5787 16.0994 56.3843 16.5741 56.8877 17.3439V14.8311L57.9199 14.1889ZM70.3187 16.0994V17.2925C69.0852 17.1129 68.053 17.9597 68.053 19.5248V22.5396H67.0333V16.2149H68.053V17.5619C68.5438 16.6254 69.3369 16.0994 70.3187 16.0994V16.0994ZM48.1644 16.0994C49.7253 16.0994 50.5561 17.2669 50.5561 18.8192V22.5396H49.5239V18.9988C49.5239 17.7672 48.9953 17.1129 47.9127 17.1129C46.7672 17.1129 46.012 18.1136 46.012 19.3709V22.5396H44.9923V16.2149H46.012V17.2925C46.4777 16.5612 47.2204 16.0994 48.1644 16.0994V16.0994ZM40.1966 17.0872C38.9378 17.0872 38.0441 18.0623 38.0441 19.3965C38.0441 20.705 38.9378 21.6672 40.1966 21.6672C41.468 21.6672 42.3742 20.705 42.3742 19.3965C42.3742 18.0623 41.468 17.0872 40.1966 17.0872ZM54.7101 17.0872C53.4514 17.0872 52.5576 18.0623 52.5576 19.3965C52.5576 20.705 53.4514 21.6672 54.7101 21.6672C55.9815 21.6672 56.8877 20.705 56.8877 19.3965C56.8877 18.0623 55.9815 17.0872 54.7101 17.0872ZM73.5919 17.0872C72.3331 17.0872 71.4393 18.0623 71.4393 19.3965C71.4393 20.705 72.3331 21.6672 73.5919 21.6672C74.8632 21.6672 75.7694 20.705 75.7694 19.3965C75.7694 18.0623 74.8632 17.0872 73.5919 17.0872ZM62.2376 17.0872C60.9788 17.0872 60.085 18.0623 60.085 19.3965C60.085 20.705 60.9788 21.6672 62.2376 21.6672C63.5089 21.6672 64.4152 20.705 64.4152 19.3965C64.4152 18.0623 63.5089 17.0872 62.2376 17.0872ZM35.45 16.2034C35.7079 16.0339 36.0391 16.0326 36.2983 16.2002L36.3201 16.2143C36.8067 16.5289 36.8078 17.2522 36.3221 17.5683C36.0606 17.7385 35.7255 17.7363 35.4661 17.5627L34.4375 16.8687L35.45 16.2034Z" fill="white"/>
</g>
<defs>
<clipPath id="clip0">
<rect width="80" height="48" fill="white"/>
</clipPath>
</defs>
</svg>
