<svg width="56" height="48" viewBox="0 0 56 48" fill="none" xmlns="http://www.w3.org/2000/svg">
<g clip-path="url(#clip0)">
<path fill-rule="evenodd" clip-rule="evenodd" d="M36.3261 3.50769C36.2764 3.5457 36.1515 3.57821 36.0489 3.57976C35.9463 3.58146 35.8214 3.61396 35.7717 3.65197C35.7219 3.68999 35.6155 3.72108 35.5353 3.72108C35.455 3.72108 35.2662 3.78467 35.1155 3.86239C34.965 3.94011 34.8068 4.00371 34.764 4.00371C34.68 4.00371 34.3304 4.18077 34.1235 4.32817C34.0532 4.37833 33.8012 4.53717 33.5636 4.68117C32.929 5.06569 31.8681 6.02663 31.6624 6.40324C31.6367 6.45043 31.5451 6.57098 31.459 6.67131C31.0275 7.1734 30.193 8.89575 30.192 9.28578C30.1917 9.34711 30.1602 9.45804 30.122 9.53223C30.0837 9.60642 30.0523 9.76597 30.0523 9.88679C30.0523 10.0079 30.0201 10.1527 29.9808 10.2096C29.8797 10.3553 29.9007 12.6597 30.0053 12.896C30.1128 13.1386 30.038 13.2098 29.6582 13.2268C29.4611 13.2355 29.3184 13.2196 29.2757 13.1837C29.2355 13.15 29.002 13.1184 28.7082 13.1065C28.3922 13.0938 28.1833 13.0641 28.1389 13.0253C28.0944 12.9864 27.9177 12.9615 27.654 12.957C27.3761 12.9521 27.2069 12.927 27.142 12.8811C27.0885 12.8432 26.9393 12.8116 26.8102 12.8107C26.6811 12.8098 26.523 12.7788 26.4589 12.7418C26.3948 12.7048 26.2647 12.6737 26.17 12.6727C26.0753 12.6718 25.9856 12.6511 25.9706 12.6267C25.9556 12.6023 25.8442 12.5687 25.7228 12.552C25.6016 12.5355 25.4361 12.4918 25.3552 12.4552C25.2744 12.4185 25.1653 12.3885 25.113 12.3885C25.0606 12.3885 25.0066 12.37 24.9927 12.3475C24.979 12.325 24.8674 12.2925 24.7449 12.2753C24.6225 12.2581 24.4814 12.213 24.4317 12.175C24.3819 12.137 24.2923 12.1059 24.2326 12.1059C24.1731 12.1059 24.0879 12.0859 24.0432 12.0618C23.8258 11.9435 23.635 11.8703 23.544 11.8703C23.4887 11.8703 23.4027 11.8392 23.3529 11.8012C23.303 11.763 23.2281 11.7312 23.1866 11.7305C23.0872 11.7286 22.6907 11.5508 22.6547 11.4921C22.6393 11.467 22.5757 11.4463 22.5136 11.4463C22.4082 11.4463 22.2722 11.3861 21.6055 11.0437C21.4644 10.9712 21.0759 10.7755 20.7423 10.6089C20.4085 10.4424 20.0935 10.2682 20.0423 10.2219C19.9909 10.1755 19.8334 10.0784 19.6923 10.0059C19.551 9.93357 19.3762 9.82518 19.3037 9.76526C19.2311 9.70534 19.1501 9.65631 19.1238 9.65631C19.0973 9.65631 18.9961 9.59272 18.8989 9.51499C18.8018 9.43727 18.7029 9.37368 18.6793 9.37368C18.6557 9.37368 18.5747 9.30825 18.4994 9.22826C18.4239 9.14814 18.2993 9.04978 18.2223 9.00965C18.1453 8.96952 18.0133 8.87611 17.929 8.80192C17.8447 8.72787 17.7491 8.6671 17.7168 8.6671C17.6844 8.6671 17.5748 8.58104 17.4734 8.47576C17.3719 8.37048 17.2154 8.23906 17.1255 8.18366C17.0358 8.12841 16.8468 7.9724 16.7055 7.83716C16.5644 7.70192 16.3693 7.52754 16.2718 7.44953C15.8655 7.12479 15.2656 6.53748 14.8221 6.03059C13.8319 4.89851 13.7676 4.84495 13.6206 5.02824C13.5239 5.14892 13.3923 5.39933 13.3923 5.46264C13.3923 5.49288 13.3 5.7122 13.1873 5.95004C12.9416 6.46895 12.8803 6.65661 12.8456 6.99591C12.831 7.13751 12.7907 7.27727 12.7557 7.30652C12.7126 7.3427 12.6917 7.47497 12.6908 7.71902C12.6898 7.9601 12.6667 8.10848 12.6208 8.16981C12.5225 8.30095 12.5219 9.61292 12.6199 9.76399C12.6609 9.82716 12.6916 10.0078 12.6976 10.2216C12.7029 10.4159 12.7356 10.6321 12.7699 10.702C12.8042 10.7721 12.8323 10.8725 12.8323 10.9252C12.8323 11.0364 13.0882 11.8321 13.1809 12.0092C13.2155 12.0753 13.2881 12.2404 13.3425 12.3762C13.3968 12.512 13.5029 12.724 13.5784 12.8473C13.6538 12.9706 13.745 13.1351 13.7808 13.2128C13.8166 13.2905 13.891 13.3945 13.9459 13.4438C14.0007 13.4932 14.0455 13.5603 14.0455 13.5931C14.0455 13.7272 15.1084 14.9031 15.5272 15.2322C15.6876 15.3584 15.8189 15.4789 15.8189 15.5002C15.8189 15.5839 15.7159 15.5961 15.6085 15.525C15.5332 15.4751 15.3891 15.4502 15.1762 15.4502C14.9676 15.4502 14.8253 15.4263 14.7661 15.3811C14.7164 15.3431 14.5889 15.3113 14.4829 15.3105C14.3702 15.3096 14.2662 15.2797 14.2323 15.2383C14.2002 15.1994 14.1074 15.1676 14.0259 15.1676C13.9443 15.1676 13.853 15.1429 13.8231 15.1126C13.7599 15.0489 13.4729 14.9341 13.2887 14.899C13.219 14.8857 13.1376 14.8453 13.1081 14.8092C13.0784 14.7732 13.0245 14.7436 12.9883 14.7436C12.952 14.7436 12.8704 14.7095 12.8071 14.6675C12.7136 14.6057 12.6784 14.6025 12.6213 14.6502C12.5271 14.7292 12.5272 15.9393 12.6215 16.0888C12.6551 16.1421 12.6922 16.3011 12.7038 16.4421C12.7155 16.5831 12.7802 16.847 12.8477 17.0283C12.9152 17.2096 12.9708 17.4151 12.9713 17.4847C12.9719 17.5545 12.9915 17.6235 13.0149 17.6382C13.0384 17.6528 13.1028 17.7652 13.1582 17.8882C13.2135 18.0111 13.2769 18.1435 13.2991 18.1824C13.3213 18.2213 13.4298 18.4332 13.5406 18.6534C13.6512 18.8736 13.8087 19.1545 13.8904 19.2776C13.9723 19.4007 14.0514 19.5397 14.0661 19.5865C14.1087 19.722 15.5603 21.1844 15.7328 21.2656C15.8861 21.3378 16.0989 21.4777 16.3351 21.6616C16.5025 21.792 17.5483 22.3276 17.6364 22.3279C17.6763 22.328 17.7634 22.3569 17.8299 22.3919C17.8965 22.4269 18.0249 22.4696 18.1152 22.4867C18.3025 22.5222 18.489 22.6885 18.3802 22.7231C18.3447 22.7344 18.1083 22.7566 17.8551 22.7726C17.6017 22.7884 17.3564 22.8219 17.3098 22.8471C17.1911 22.9112 16.6735 22.9042 16.5508 22.8368C16.3992 22.7534 15.4884 22.7298 15.4377 22.8078C15.3761 22.903 15.438 23.1821 15.5885 23.4869C15.6637 23.6396 15.7253 23.7998 15.7254 23.8431C15.7255 23.8864 15.775 23.9818 15.8353 24.055C15.8956 24.1284 16.0328 24.3575 16.1401 24.5642C16.2475 24.7709 16.3858 24.9935 16.4475 25.0588C16.5093 25.1241 16.5914 25.2395 16.6304 25.3156C16.7345 25.5192 17.4986 26.3337 17.7365 26.4947C17.8496 26.5712 18.0507 26.7248 18.183 26.836C18.3154 26.9472 18.4435 27.0381 18.4674 27.0381C18.4915 27.0381 18.551 27.0827 18.5999 27.1371C18.6487 27.1917 18.8148 27.2969 18.9688 27.3713C19.1229 27.4456 19.2804 27.5267 19.3189 27.5515C19.3574 27.5763 19.4204 27.6085 19.4589 27.6232C19.4974 27.6379 19.5604 27.6695 19.5989 27.6933C19.7441 27.7832 20.2237 27.9863 20.3531 28.0123C20.427 28.0273 20.4988 28.0579 20.5127 28.0805C20.5264 28.103 20.5844 28.1215 20.6414 28.1215C20.6982 28.1215 20.7878 28.1519 20.8403 28.1891C20.8932 28.2265 21.1168 28.2715 21.3421 28.2898C21.5654 28.3082 21.7593 28.3414 21.773 28.3636C21.7866 28.3859 21.9422 28.4041 22.1189 28.4041C22.2956 28.4041 22.4539 28.4266 22.4707 28.4542C22.5074 28.5141 22.3634 28.6868 22.2767 28.6868C22.243 28.6868 22.1437 28.7504 22.0561 28.8281C21.9684 28.9058 21.8739 28.9694 21.8461 28.9694C21.8182 28.9694 21.7237 29.033 21.6361 29.1107C21.5484 29.1884 21.4557 29.252 21.4301 29.252C21.4046 29.252 21.3548 29.2872 21.3197 29.3302C21.2593 29.4037 20.9289 29.5796 19.8469 30.1142C19.595 30.2387 19.2682 30.403 19.1207 30.4794C18.9731 30.5557 18.8025 30.6181 18.7414 30.6181C18.6804 30.6181 18.6042 30.6499 18.5723 30.6888C18.5402 30.7277 18.4695 30.7602 18.4149 30.761C18.3602 30.762 18.263 30.7931 18.1989 30.8301C18.1348 30.8671 18.0298 30.8988 17.9655 30.9005C17.9014 30.9023 17.8082 30.9348 17.7583 30.9728C17.7085 31.0108 17.6179 31.0421 17.5569 31.0421C17.496 31.0421 17.4002 31.0671 17.3442 31.0978C17.2881 31.1286 17.1583 31.1693 17.0555 31.1883C16.9529 31.2074 16.7324 31.2576 16.5655 31.2997C16.3988 31.3418 16.1285 31.3959 15.9651 31.42C15.8017 31.444 15.642 31.4854 15.6102 31.5121C15.5784 31.5387 15.3026 31.5635 14.9973 31.5675C14.625 31.5721 14.4083 31.5955 14.3388 31.638C14.1703 31.7416 11.767 31.7289 11.585 31.6234C11.3902 31.5105 11.1986 31.5672 11.1996 31.7378C11.2006 31.9044 11.2308 31.9417 11.4555 32.0533C11.5583 32.1043 11.704 32.1965 11.7796 32.2581C11.8552 32.3198 11.9602 32.3892 12.013 32.4125C12.0658 32.4359 12.1404 32.4737 12.1789 32.4968C12.2174 32.5198 12.4064 32.6167 12.5989 32.7123C12.968 32.8954 13.0613 32.9438 13.1939 33.0208C13.2389 33.0468 13.307 33.0801 13.3455 33.0948C13.384 33.1095 13.447 33.1413 13.4855 33.1655C13.524 33.1896 13.587 33.2224 13.6255 33.2384C13.7151 33.2754 14.0475 33.4371 14.1389 33.4881C14.2816 33.5678 14.564 33.6799 14.6218 33.6799C14.6545 33.6799 14.7903 33.7329 14.9233 33.7977C15.0563 33.8624 15.1927 33.9154 15.2264 33.9154C15.2602 33.9154 15.3285 33.9465 15.3783 33.9845C15.4282 34.0227 15.5182 34.0545 15.5785 34.0552C15.6389 34.056 15.7544 34.085 15.8352 34.1196C16.0562 34.2142 16.2906 34.296 16.4663 34.3398C16.5528 34.3614 16.6463 34.402 16.6739 34.43C16.7016 34.4578 16.779 34.4807 16.846 34.4807C16.913 34.4807 17.0085 34.5118 17.0583 34.5498C17.1082 34.588 17.2329 34.6205 17.3355 34.6222C17.4383 34.624 17.5748 34.6556 17.6389 34.6927C17.703 34.7297 17.829 34.7615 17.9189 34.7633C18.0088 34.7652 18.1348 34.797 18.1989 34.834C18.263 34.871 18.4232 34.9021 18.5549 34.9029C18.7089 34.9041 18.8148 34.9298 18.8523 34.9753C18.8921 35.0236 19.0006 35.0464 19.1963 35.0475C19.3734 35.0484 19.5167 35.0752 19.5729 35.1182C19.6353 35.1658 19.7818 35.1873 20.0455 35.1873C20.3265 35.1873 20.4427 35.2058 20.4851 35.2572C20.57 35.3605 26.0543 35.3583 26.2122 35.255C26.2772 35.2124 26.4551 35.1847 26.6913 35.1801C26.9195 35.1758 27.099 35.1486 27.148 35.111C27.1939 35.0758 27.3528 35.0484 27.5149 35.0475C27.7107 35.0464 27.8192 35.0236 27.8589 34.9753C27.8992 34.9263 28.0063 34.9046 28.2089 34.9046C28.4115 34.9046 28.5186 34.883 28.5589 34.834C28.5936 34.7917 28.6957 34.7633 28.8123 34.7633C28.9198 34.7633 29.0485 34.7322 29.0983 34.6942C29.1482 34.6561 29.2624 34.6236 29.3523 34.6219C29.442 34.62 29.568 34.5884 29.6323 34.5514C29.6964 34.5143 29.8224 34.4825 29.9123 34.4807C30.002 34.4789 30.128 34.4471 30.1923 34.41C30.2564 34.373 30.3614 34.3414 30.4255 34.3395C30.4898 34.3378 30.583 34.3053 30.6329 34.2672C30.6827 34.2292 30.7772 34.1974 30.8429 34.1965C30.9085 34.1958 31.003 34.164 31.0529 34.1259C31.1027 34.0878 31.1782 34.0567 31.2206 34.0567C31.2916 34.0567 31.4954 33.9748 31.6966 33.8653C31.7411 33.8411 31.8114 33.8212 31.8527 33.8212C31.894 33.8212 31.9836 33.7931 32.0518 33.7587C32.1198 33.7244 32.2455 33.6608 32.3311 33.6174C32.4165 33.574 32.511 33.5384 32.5411 33.538C32.5883 33.5376 33.2481 33.2115 34.1123 32.7619C34.2534 32.6884 34.4357 32.5787 34.5175 32.5181C34.5992 32.4576 34.6964 32.408 34.7335 32.408C34.7704 32.408 34.827 32.3762 34.8589 32.3374C34.8908 32.2985 34.9349 32.2667 34.9569 32.2667C34.9788 32.2667 35.1377 32.1713 35.3099 32.0547C35.4821 31.9382 35.6445 31.8428 35.6706 31.8428C35.6968 31.8428 35.7947 31.7676 35.8879 31.6756C35.9812 31.5837 36.1217 31.4724 36.2001 31.4283C36.4482 31.289 36.7429 31.0811 36.9241 30.9174C37.0204 30.8305 37.118 30.7594 37.1411 30.7594C37.164 30.7594 37.3207 30.6375 37.489 30.4885C37.6574 30.3396 37.9232 30.1117 38.0798 29.9822C38.434 29.689 40.2757 27.8099 40.392 27.6231C40.439 27.5475 40.5627 27.3885 40.6665 27.27C40.7706 27.1514 40.971 26.89 41.1123 26.6891C41.2534 26.4883 41.4686 26.2057 41.5905 26.0613C41.7125 25.9169 41.8123 25.782 41.8123 25.7617C41.8123 25.7413 41.9253 25.5582 42.0633 25.3547C42.2014 25.1512 42.3677 24.8783 42.4331 24.7483C42.4983 24.6185 42.5843 24.4848 42.624 24.4514C42.6638 24.4181 42.7504 24.2717 42.8165 24.126C42.8826 23.9803 42.9645 23.8286 42.9987 23.7891C43.0727 23.7032 43.6225 22.6286 43.7464 22.3276C43.7944 22.211 43.9229 21.9249 44.032 21.6917C44.1412 21.4585 44.2531 21.183 44.2808 21.0794C44.3085 20.9756 44.3733 20.8215 44.425 20.7367C44.4766 20.6519 44.5189 20.5424 44.5189 20.4932C44.5189 20.4442 44.5745 20.2922 44.6425 20.1557C44.7642 19.9111 44.7914 19.8276 44.9168 19.3129C44.9956 18.9893 45.1184 18.6439 45.1755 18.5852C45.1995 18.5604 45.2189 18.4478 45.2189 18.3347C45.2189 18.2216 45.244 18.0828 45.2746 18.0261C45.3052 17.9696 45.3465 17.8278 45.3663 17.7113C45.4578 17.1745 45.5348 16.8306 45.5846 16.7365C45.6144 16.6802 45.6389 16.5359 45.6389 16.416C45.6389 16.296 45.6623 16.1535 45.6909 16.0997C45.7196 16.0457 45.7522 15.8199 45.7635 15.598C45.7749 15.376 45.802 15.1725 45.8237 15.1457C45.8454 15.1188 45.8783 14.8108 45.8967 14.461C45.9151 14.1113 45.9539 13.7954 45.9829 13.7591C46.0183 13.7147 46.0388 13.3073 46.0452 12.5201C46.0554 11.2854 46.077 11.1745 46.3087 11.1653C46.4382 11.1602 48.3069 9.41098 48.6253 8.99693C48.7149 8.88035 48.9039 8.64421 49.0453 8.47237C49.4604 7.96745 49.7507 7.52542 49.7359 7.42085C49.7182 7.29649 49.4627 7.26483 49.3156 7.36884C49.2583 7.40926 49.1654 7.44247 49.109 7.44247C49.0525 7.44247 48.947 7.47186 48.8743 7.5079C48.7167 7.5859 48.4745 7.67154 48.2582 7.72552C48.1717 7.74714 48.0781 7.7877 48.0506 7.81554C48.0228 7.84352 47.9362 7.86698 47.8579 7.86782C47.7797 7.86867 47.6748 7.90047 47.625 7.93848C47.5751 7.9765 47.4586 8.00773 47.366 8.00773C47.2734 8.00773 47.174 8.03147 47.1453 8.06044C47.1165 8.08955 46.9601 8.13067 46.7976 8.15201C46.6352 8.17321 46.3872 8.21249 46.2468 8.23934C45.7586 8.33233 45.8017 8.24514 46.5402 7.64737C46.705 7.51397 46.9699 7.24901 47.1289 7.05851C47.7043 6.36932 47.7587 6.30205 47.8067 6.21882C47.8336 6.17233 47.95 5.98042 48.0655 5.79233C48.3814 5.27809 48.4718 5.1061 48.5803 4.81344C48.6348 4.66662 48.7 4.52148 48.7252 4.49068C48.9218 4.25157 48.6661 3.90436 48.4459 4.11139C48.276 4.27136 46.9049 4.94585 46.75 4.94585C46.6809 4.94585 46.6128 4.96479 46.5986 4.98811C46.5486 5.0695 46.1947 5.22848 46.0633 5.22848C45.9902 5.22848 45.9042 5.26028 45.8723 5.29914C45.8402 5.338 45.759 5.37051 45.6916 5.37135C45.6241 5.37206 45.5282 5.40386 45.4783 5.44201C45.4285 5.48002 45.3117 5.51111 45.2189 5.51111C45.1261 5.51111 45.0093 5.5422 44.9595 5.58022C44.9097 5.61837 44.8159 5.65017 44.751 5.65087C44.6861 5.65172 44.591 5.6821 44.5398 5.71842C44.4884 5.7546 44.3211 5.79304 44.1677 5.80364C44.0144 5.81423 43.8542 5.83911 43.8118 5.85875C43.7537 5.88574 43.6319 5.79247 43.3218 5.48412C43.0947 5.25844 42.8351 5.02669 42.7448 4.96917C42.6547 4.91151 42.5523 4.82983 42.5175 4.78744C42.4826 4.74505 42.4269 4.71028 42.3934 4.71028C42.3601 4.71028 42.2733 4.66054 42.2008 4.59977C42.03 4.45662 41.1638 4.00371 41.0609 4.00371C41.0174 4.00371 40.8548 3.94011 40.6997 3.86239C40.5445 3.78467 40.3783 3.72108 40.3304 3.72108C40.2825 3.72108 40.2027 3.68999 40.1529 3.65197C40.0988 3.61071 39.9562 3.58216 39.7997 3.58132C39.6247 3.58033 39.5177 3.5563 39.4789 3.5091C39.3931 3.40481 36.4628 3.4034 36.3261 3.50769ZM1.55446 36.7841C1.17604 36.8822 0.852919 37.1565 0.697239 37.5118C0.599379 37.7352 0.597699 37.7859 0.594479 40.5731C0.590839 43.8862 0.589859 43.8716 0.876019 44.5847C1.20488 45.4042 2.33202 46.4333 3.18672 46.6944C3.93376 46.9226 3.86096 46.9164 5.77056 46.9164H7.5907L7.8665 46.7745C8.79274 46.2977 8.8003 45.0157 7.8798 44.5121L7.5823 44.3491L5.9023 44.323C3.84276 44.2911 3.77668 44.2735 3.46112 43.6758L3.3123 43.3939V42.6594C3.3123 41.9365 3.31384 41.9247 3.4173 41.901C3.47498 41.8877 4.4358 41.8715 5.5523 41.8648L7.5823 41.8527L7.8336 41.7381C8.7954 41.2997 8.80226 39.9393 7.84508 39.4392L7.5508 39.2854H5.50526C4.38036 39.2854 3.42668 39.2725 3.38608 39.2569C3.32322 39.2324 3.3123 39.1215 3.3123 38.5107C3.3123 37.1918 2.61692 36.5088 1.55446 36.7841ZM23.1901 36.7862C21.5278 37.2957 22.2932 39.7012 23.9741 39.2501C24.9464 38.9891 25.2611 37.7639 24.5303 37.084C24.2164 36.792 23.6106 36.6574 23.1901 36.7862ZM26.9023 36.7652C26.8765 36.774 26.7777 36.7943 26.6826 36.8103C26.4689 36.8463 26.0798 37.1491 25.9209 37.4034C25.6282 37.8714 25.6143 41.3658 25.8986 43.0303C26.323 45.5146 27.0123 46.4147 28.8155 46.8401C29.302 46.9549 31.1331 46.9506 31.4627 46.834C32.1915 46.576 32.5416 45.5697 32.1135 44.9632C31.7604 44.4629 31.363 44.3257 30.2683 44.3257C29.1748 44.3257 28.8441 44.177 28.6775 43.6109C28.4858 42.9596 28.4611 42.9715 30.0523 42.9514C31.2479 42.9361 31.3988 42.9255 31.5455 42.8456C32.5157 42.3173 32.5691 41.116 31.6466 40.5687L31.4289 40.4395L29.9689 40.4159C28.7394 40.3961 28.5018 40.3812 28.4646 40.3217C28.4396 40.2818 28.4193 39.6763 28.4179 38.9321L28.4156 37.6132L28.2656 37.3925C27.9428 36.9178 27.3087 36.626 26.9023 36.7652ZM33.8011 36.787C32.9248 36.9977 32.7956 37.3549 32.7694 39.6387C32.7047 45.27 33.7305 46.9095 37.3219 46.9149L38.3616 46.9164L38.634 46.7776C39.4508 46.3613 39.6157 45.2986 38.9524 44.7256C38.5423 44.3712 38.4873 44.3571 37.4023 44.3267C36.0145 44.2878 35.7359 44.1294 35.6649 43.3385C35.6305 42.9559 35.5757 42.9705 37.1223 42.9514C38.6493 42.9325 38.5985 42.9435 38.9723 42.5511C39.6 41.8921 39.4396 40.9478 38.6288 40.5295C38.4109 40.4171 38.3948 40.4159 37.0338 40.4159C35.8462 40.4159 35.6489 40.4059 35.5855 40.3419C35.5227 40.2784 35.5123 40.0949 35.5123 39.0551C35.5123 37.5711 35.4921 37.4742 35.1123 37.1239C34.7462 36.786 34.2912 36.6691 33.8011 36.787ZM9.85044 39.858C9.5885 39.934 9.1601 40.4035 9.12286 40.6555C9.05482 41.1147 9.12426 44.1464 9.20798 44.3727C9.63148 45.5187 10.721 46.5961 11.6189 46.757C11.7088 46.7731 11.897 46.8155 12.0371 46.8514C12.8618 47.062 13.9729 46.8682 14.7894 46.3715C15.3032 46.0588 15.2732 46.0588 15.7661 46.3691C18.025 47.7909 21.2138 46.3471 21.4756 43.7839C21.5514 43.0417 21.5028 40.656 21.4083 40.4805C20.9179 39.5692 19.5593 39.5727 19.0699 40.4866C18.974 40.6655 18.9678 40.7507 18.9455 42.1824C18.9194 43.881 18.9108 43.9236 18.539 44.2206C18.0075 44.6452 17.3675 44.6052 16.885 44.1172C16.5987 43.8277 16.591 43.7804 16.5655 42.1353L16.5423 40.6279L16.3659 40.3539C15.9386 39.6903 14.7552 39.599 14.3142 40.1956C14.0489 40.5544 14.0455 40.5777 14.0455 42.0826C14.0455 43.272 14.0342 43.5052 13.9677 43.6771C13.5764 44.6872 12.278 44.7982 11.7305 43.8683L11.5976 43.6426L11.5715 42.1353C11.5422 40.4522 11.5472 40.4805 11.2055 40.1354C10.8916 39.8187 10.3607 39.7099 9.85044 39.858ZM42.6989 39.9297C41.7216 40.124 41.0546 40.4972 40.5026 41.1585C40.2664 41.4416 39.9964 41.9421 39.9938 42.1014C39.993 42.1606 39.9608 42.2851 39.9223 42.3781C39.8246 42.6141 39.8232 43.931 39.9203 44.2314C39.958 44.348 39.9993 44.4964 40.012 44.5611C40.1326 45.1761 41.3021 46.3225 42.1263 46.6338C42.8615 46.9115 44.2857 47.0162 45.0697 46.8503C45.2416 46.814 45.5045 46.759 45.654 46.7283C46.0269 46.6519 46.732 46.2862 47.0066 46.027C48.0695 45.0234 47.2804 43.9015 45.8955 44.4472C44.7244 44.9086 44.3662 44.968 43.6203 44.824C42.9315 44.6908 42.4606 44.3373 42.6789 44.117C42.7436 44.0518 43.0163 44.0431 44.9721 44.0431C47.7074 44.0431 47.7438 44.0325 47.8742 43.2062C48.0686 41.9725 46.959 40.5218 45.4755 40.0703C44.823 39.8717 43.3621 39.7977 42.6989 39.9297ZM51.2623 39.9226C51.1595 39.9568 51.0177 39.9863 50.947 39.9883C50.185 40.0098 48.8918 41.2341 48.5191 42.2868L48.3727 42.7006L48.3558 44.2764C48.3362 46.0907 48.3458 46.1601 48.6656 46.5053C49.245 47.1312 50.2715 47.0398 50.6627 46.3276L50.8178 46.0449L50.8184 44.6241L50.8189 43.2034L50.9719 42.9048C51.108 42.6392 51.1608 42.5855 51.4489 42.4179L51.773 42.2294L53.0074 42.2125C54.0827 42.1978 54.2663 42.1843 54.432 42.1089C55.3562 41.6878 55.3124 40.2811 54.364 39.9292C54.0862 39.8261 51.5685 39.8208 51.2623 39.9226ZM23.1923 40.2906C23.1024 40.3265 22.9764 40.3781 22.9123 40.405C22.7423 40.4768 22.4188 40.8348 22.333 41.0458C22.2096 41.3493 22.2227 45.8342 22.3478 46.1286C22.7636 47.108 24.2195 47.1896 24.7889 46.2654L24.8955 46.0921V43.5719V41.0518L24.791 40.882C24.4709 40.3625 23.7137 40.0824 23.1923 40.2906ZM44.4243 41.7624C44.8929 41.9028 45.2532 42.2156 45.1254 42.371C45.041 42.4736 42.7856 42.4763 42.7014 42.3738C42.3964 42.0028 43.6921 41.5429 44.4243 41.7624Z" fill="white"/>
</g>
<defs>
<clipPath id="clip0">
<rect width="56" height="48" fill="white"/>
</clipPath>
</defs>
</svg>
