<svg width="64" height="64" viewBox="0 0 64 64" fill="none" xmlns="http://www.w3.org/2000/svg">
<path fill-rule="evenodd" clip-rule="evenodd" d="M14 4C8.47705 4 4 8.47754 4 14V50C4 55.5225 8.47705 60 14 60H50C55.5229 60 60 55.5225 60 50V14C60 8.47754 55.5229 4 50 4H14ZM29.9917 17.1787C30.9019 15.6768 32.6541 13.9043 33.886 13.2412C35.1189 12.5771 36.5862 12.0186 37.1475 12C37.7095 11.9814 38.5732 13.457 39.0681 15.2803C39.5627 17.1016 39.7178 19.6406 39.4136 20.9229C39.1094 22.2041 38.1274 24.4629 37.2317 25.9414L35.6035 28.6299L31.4834 26.3594C27.8857 24.377 27.4248 23.8232 27.8496 21.999C27.9368 21.627 28.0967 21.1475 28.3042 20.6182C28.7368 19.5137 29.3765 18.1934 29.9917 17.1787ZM41.6316 21.9062C42.0784 20.3623 42.0942 17.8945 41.6704 16.0244C41.5325 15.415 41.4238 14.8438 41.3491 14.3564C41.2068 13.4268 41.1885 12.8027 41.3284 12.8027C41.5415 12.8027 42.4475 13.1914 43.3423 13.666C44.012 14.0215 45.009 15.1436 45.8523 16.4316C46.1372 16.8672 46.4045 17.3213 46.6357 17.7705C47.5518 19.5518 48.5505 22.5508 48.8538 24.4346C49.1689 26.3906 48.96 29.4404 48.365 31.5459C47.793 33.5732 46.313 36.4365 45.0759 37.9062L42.8257 40.5781L40.1106 35.3555L37.3953 30.1318L39.1287 27.3496C40.0818 25.8184 41.2085 23.3691 41.6316 21.9062ZM20.4722 28.249C19.5671 27.9639 19.0708 27.3389 19.3691 26.8584C19.6836 26.3555 21.637 26.1514 23.9958 26.376C26.4768 26.6133 29.4077 27.6377 31.4641 28.9873C33.3257 30.209 35.8455 32.7041 37.064 34.5312C38.2827 36.3574 39.4666 39.498 39.6951 41.5078C39.9233 43.5176 39.6748 45.9697 39.1421 46.957C38.7751 47.6377 38.1716 48.2334 37.5955 48.5371C37.3367 48.6738 37.0833 48.751 36.8591 48.751C36.1362 48.751 34.4373 47.9697 33.0837 47.0137C31.7312 46.0576 30.1116 44.2705 29.4854 43.042C28.8584 41.8145 28.0872 39.3906 27.7703 37.6562C27.4543 35.9219 26.053 33.2119 24.6565 31.6348C23.26 30.0586 21.3774 28.5342 20.4722 28.249ZM14.1055 36.9014C13.8594 35.373 14.0591 33.0859 14.5479 31.8223C15.1328 30.3125 16.053 29.5234 17.2285 29.5234C18.2139 29.5234 20.2556 30.749 21.7659 32.248C23.458 33.9268 25.0322 36.7334 25.8667 39.5625C26.6116 42.0879 27.8472 45.0322 28.6123 46.1064C29.1011 46.792 30.0095 47.6865 30.9739 48.4668C31.5188 48.9082 32.0815 49.3125 32.5967 49.623C34.7896 50.9473 34.9639 51.2734 33.7251 51.7451C32.9204 52.0508 30.9214 52.0869 29.2839 51.8232C27.6472 51.5596 24.6396 50.374 22.6018 49.1895C20.3745 47.8945 18.0293 45.5684 16.7239 43.3584C15.5295 41.3369 14.3506 38.4307 14.1055 36.9014Z" fill="#8EC9E6"/>
</svg>
