<svg width="64" height="64" viewBox="0 0 64 64" fill="none" xmlns="http://www.w3.org/2000/svg">
<path fill-rule="evenodd" clip-rule="evenodd" d="M16 4C9.37258 4 4 9.37258 4 16V48C4 54.6274 9.37258 60 16 60H48C54.6274 60 60 54.6274 60 48V16C60 9.37258 54.6274 4 48 4H16ZM13 38.9903C13 35.8006 13.803 32.6622 15.3351 29.8645C16.8671 27.0668 19.0788 24.6999 21.7663 22.9818C24.4538 21.2638 27.5306 20.25 30.713 20.034C33.8954 19.8179 37.6049 20.6512 40.5 21.9902L37.8818 26.2735C35.7469 25.286 33.3977 24.852 31.0509 25.0113C28.7041 25.1706 26.4352 25.9182 24.4534 27.1852C22.4715 28.4521 20.8405 30.1976 19.7107 32.2607C18.581 34.3238 17.9888 36.6381 17.9888 38.9903H13ZM48 28.9902C49.6086 31.8486 51.0079 35.7564 50.9999 39.0363L46.0112 39.0242C46.017 36.6055 45.3967 34.2265 44.2104 32.1187L48 28.9902ZM31 33.9893C31.7105 33.9893 32.3864 34.1375 32.9984 34.4046L43.9453 24.3298L45.3927 25.71L35.677 37.2175C35.8857 37.7682 36 38.3654 36 38.9893C36 41.7507 33.7614 43.9893 31 43.9893C28.2386 43.9893 26 41.7507 26 38.9893C26 36.2278 28.2386 33.9893 31 33.9893Z" fill="#8EC9E6"/>
</svg>
