<svg width="64" height="64" viewBox="0 0 64 64" fill="none" xmlns="http://www.w3.org/2000/svg">
<path fill-rule="evenodd" clip-rule="evenodd" d="M16 4C9.37305 4 4 9.37305 4 16V48C4 54.627 9.37305 60 16 60H48C54.627 60 60 54.627 60 48V16C60 9.37305 54.627 4 48 4H16ZM15.4014 34.5303C14.3828 35.9824 15.4209 37.9795 17.1943 37.9795H23.1416C24.3516 37.9795 25.333 38.96 25.333 40.1699V49.8096C25.333 51.0195 26.3135 52 27.5234 52H37.1631C38.373 52 39.3535 51.0195 39.3535 49.8096V40.1699C39.3535 38.96 40.334 37.9795 41.5439 37.9795H47.4912C49.2646 37.9795 50.3037 35.9824 49.2852 34.5303L34.1367 12.9326C33.2646 11.6895 31.4219 11.6895 30.5498 12.9326L15.4014 34.5303Z" fill="#8EC9E6"/>
</svg>
