<svg width="64" height="64" viewBox="0 0 64 64" fill="none" xmlns="http://www.w3.org/2000/svg">
<path fill-rule="evenodd" clip-rule="evenodd" d="M4 14C4 8.47715 8.47715 4 14 4H50C55.5229 4 60 8.47715 60 14V50C60 55.5229 55.5228 60 50 60H14C8.47715 60 4 55.5228 4 50V38.2075H19.5L19.5 46.6857C19.5 48.7174 21.9326 49.7594 23.3946 48.3567L40.2874 32.171C40.742 31.7363 41 31.132 41 30.5C41 29.868 40.742 29.2637 40.2874 28.829L23.3946 12.6433C21.9326 11.2406 19.5 12.2826 19.5 14.3143L19.5 22.7925H4V14ZM32 44H34.3449L35.9458 52.1667H35.9747L37.8987 44H40.0921L41.83 52.2669H41.8641L43.6887 44H45.9885L43.0001 56H40.6731L38.9497 47.8333H38.9046L37.0598 56H34.6895L32 44ZM48.6323 44H52.3289L56 56H53.5811L52.7827 53.3296H48.5716L47.9553 56H45.5994L48.6323 44ZM50.0395 46.9578L49.0167 51.3604H52.1999L51.0258 46.9578H50.0395Z" fill="#8EC9E6"/>
</svg>
