<?xml version="1.0" encoding="utf-8"?>
<!-- Generator: Adobe Illustrator 17.0.0, SVG Export Plug-In . SVG Version: 6.00 Build 0)  -->
<!DOCTYPE svg PUBLIC "-//W3C//DTD SVG 1.1//EN" "http://www.w3.org/Graphics/SVG/1.1/DTD/svg11.dtd">
<svg version="1.1" id="Tip" xmlns="http://www.w3.org/2000/svg" xmlns:xlink="http://www.w3.org/1999/xlink" x="0px" y="0px"
	 width="512px" height="512px" viewBox="0 0 512 512" enable-background="new 0 0 512 512" xml:space="preserve">
<g>
	<path fill="#76B417" d="M208,508c-5.899,0-12,0-12-12v-2.17l-1.819-1.184c-6.976-4.538-13.701-10.577-14.181-12.724v-33.489
		l-2.441-2.633C169.983,435.66,164,429.23,164,416c0-49.367-19.557-81.633-40.691-109.146c-3.686-4.8-7.494-9.445-11.525-14.362
		C90.258,266.232,68,239.08,68,192c0-44.943,20.091-91.729,55.121-128.359C159.901,25.181,206.934,4,255.557,4
		c0.186,0,0.368,0.02,0.55,0.036c0.406,0.034,0.812,0.064,1.226,0.064L257.34,4c46.78,0.005,94.483,21.745,130.882,59.647
		C423.67,100.558,444,147.341,444,192c0,46.812-22.288,73.881-43.842,100.06c-4.171,5.065-8.11,9.851-11.905,14.795
		C368.349,332.767,348,365.999,348,416c0,9.854-5.799,17.335-11.407,24.57c-1.364,1.76-2.653,3.423-3.854,5.114l-0.738,1.04v33.198
		c-0.48,2.146-7.205,8.186-14.181,12.724l-1.818,1.184L316,496c0,12-6.101,12-12,12H208z"/>
	<path fill="#70AF12" d="M257.34,8c23.566,0.001,46.99,5.407,69.621,16.066c21.147,9.96,41.333,24.605,58.376,42.352
		c16.728,17.419,30.548,37.922,39.966,59.294C435.055,147.843,440,170.146,440,192c0,45.378-21.825,71.885-42.931,97.519
		c-4.008,4.868-8.153,9.902-11.987,14.897c-13.533,17.619-22.86,33.282-29.353,49.294C347.836,373.174,344,393.549,344,416
		c0,8.485-5.373,15.416-10.569,22.12c-1.33,1.715-2.705,3.489-3.954,5.249l-1.477,2.08V448v30.954
		c-1.51,2.21-7.099,6.911-12.359,10.338L312,491.658V496c0,1.781-0.199,6.043-2.04,7.16C308.575,504,305.931,504,304,504h-96
		c-1.931,0-4.575,0-5.96-0.84c-1.841-1.117-2.04-5.379-2.04-7.16l-0.004-4.339l-3.633-2.367c-5.264-3.429-10.854-8.13-12.363-10.34
		V448v-3.133l-2.127-2.3c-0.464-0.502-0.927-0.999-1.386-1.493C172.967,432.995,168,427.657,168,416
		c0-22.393-3.913-42.781-11.964-62.33c-6.527-15.85-15.918-31.5-29.554-49.252c-3.725-4.85-7.73-9.736-11.603-14.461
		C93.798,264.241,72,237.65,72,192c0-21.941,4.858-44.257,14.439-66.329c9.3-21.425,22.985-41.919,39.573-59.266
		c17.226-18.014,36.91-32.254,58.504-42.327C207.374,13.417,231.257,8.007,255.507,8c0.088,0.005,0.175,0.014,0.262,0.021
		c0.39,0.033,0.925,0.078,1.563,0.078L257.34,8 M257.332,0c-0.598,0,0,0.1,0,0.1c-0.598,0-1.176-0.1-1.775-0.1
		C150.095,0,64,98.337,64,192c0,57.421,32.633,86.682,56.136,117.29C142.991,339.043,160,370.436,160,416
		c0,15.671,7.714,23.042,16,32v32c0,5.601,16,16,16,16c0,16,10.376,16,16,16h96c5.624,0,16,0,16-16c0,0,16-10.399,16-16v-32
		c6.162-8.68,16-18.196,16-32c0-45.564,16.571-76.957,39.426-106.71C414.918,278.682,448,249.421,448,192
		C448,98.337,359.842,0,257.332,0L257.332,0z"/>
</g>
<g>
	<path fill="#FFFFFF" d="M358.979,284.581C335.087,315.705,304,356.672,304,416h-96c0-59.328-31.526-100.295-55.428-131.419
		C130.177,255.424,112,235.657,112,192c0-85.903,59.079-151.323,145.332-151.323C339.017,40.677,400,106.097,400,192
		C400,235.657,381.374,255.424,358.979,284.581z"/>
</g>
<g opacity="0.3">
	<g>
		<path fill="#76B417" d="M257.332,40.677c-8.526,0-16.712,0.756-24.689,1.887c2.663,6.833,4.268,14.201,4.268,21.987
			c0,33.686-27.431,61.016-61.264,61.016c-17.181,0-30.822-5.285-41.95-16.646C120.275,131.247,112,161.77,112,192
			c0,43.657,18.177,63.424,40.572,92.581C176.474,315.705,208,356.672,208,416h96c0-59.328,31.087-100.295,54.979-131.419
			C381.374,255.424,400,235.657,400,192C400,106.097,339.017,40.677,257.332,40.677z"/>
	</g>
</g>
</svg>
