<?xml version="1.0" encoding="utf-8"?>
<!-- Generator: Adobe Illustrator 17.0.0, SVG Export Plug-In . SVG Version: 6.00 Build 0)  -->
<!DOCTYPE svg PUBLIC "-//W3C//DTD SVG 1.1//EN" "http://www.w3.org/Graphics/SVG/1.1/DTD/svg11.dtd">
<svg version="1.1" id="Restriction" xmlns="http://www.w3.org/2000/svg" xmlns:xlink="http://www.w3.org/1999/xlink" x="0px"
	 y="0px" width="512px" height="512px" viewBox="0 0 512 512" enable-background="new 0 0 512 512" xml:space="preserve">
<g>
	<g>
		<path fill="#E4001E" d="M96,504c-27.738,0-56-28.262-56-56V288c0-27.738,28.262-56,56-56h8V96c0-43.589,44.411-88,88-88h128
			c43.589,0,88,44.411,88,88v136h8c27.738,0,56,28.262,56,56v160c0,27.738-28.262,56-56,56H96z M224,72
			c-18.124,0-32.14,4.826-41.657,14.343C172.826,95.86,168,109.876,168,128v104h176V128c0-18.124-4.826-32.14-14.343-41.657
			C320.14,76.826,306.124,72,288,72H224z"/>
	</g>
	<g>
		<path fill="#D9001D" d="M320,16c18.667,0,38.599,9.226,54.686,25.314S400,77.333,400,96v128v16h16
			c10.878,0,23.097,5.725,32.686,15.314C458.275,264.903,464,277.122,464,288v160c0,10.878-5.725,23.097-15.314,32.686
			C439.097,490.275,426.878,496,416,496H96c-10.878,0-23.097-5.725-32.686-15.314C53.725,471.097,48,458.878,48,448V288
			c0-10.878,5.725-23.097,15.314-32.686C72.903,245.725,85.122,240,96,240h16v-16V96c0-18.667,9.226-38.599,25.314-54.686
			C153.401,25.226,173.333,16,192,16H320 M160,240h16h160h16v-16v-96c0-20.323-5.614-36.241-16.686-47.314
			C324.241,69.614,308.323,64,288,64h-64c-20.323,0-36.241,5.614-47.314,16.686C165.614,91.759,160,107.677,160,128v96V240 M320,0
			H192c-48,0-96,48-96,96v128c-32,0-64,32-64,64v160c0,32,32,64,64,64h320c32,0,64-32,64-64V288c0-32-32-64-64-64V96
			C416,48,368,0,320,0L320,0z M176,224v-96c0-32,16-48,48-48h64c32,0,48,16,48,48v96H176L176,224z"/>
	</g>
</g>
<g>
	<path fill="#FFFFFF" d="M280,395.33V448c0,8.837-7.163,16-16,16h-16c-8.837,0-16-7.163-16-16v-52.67
		c-23.451-9.496-40-32.474-40-59.33c0-35.346,28.654-64,64-64s64,28.654,64,64C320,362.856,303.451,385.834,280,395.33z"/>
</g>
</svg>
