<?xml version="1.0" encoding="utf-8"?>
<!-- Generator: Adobe Illustrator 17.0.0, SVG Export Plug-In . SVG Version: 6.00 Build 0)  -->
<!DOCTYPE svg PUBLIC "-//W3C//DTD SVG 1.1//EN" "http://www.w3.org/Graphics/SVG/1.1/DTD/svg11.dtd">
<svg version="1.1" id="Important" xmlns="http://www.w3.org/2000/svg" xmlns:xlink="http://www.w3.org/1999/xlink" x="0px" y="0px"
	 width="512px" height="512px" viewBox="0 0 512 512" enable-background="new 0 0 512 512" xml:space="preserve">
<g>
	<path fill="#9500D1" d="M256,506c-66.775,0-129.554-26.004-176.774-73.223C32.006,385.559,6,322.777,6,256
		S32.006,126.442,79.226,79.223C126.446,32.004,189.225,6,256,6c66.774,0,129.555,26.004,176.773,73.223
		C479.994,126.442,506,189.223,506,256s-26.006,129.559-73.227,176.777C385.555,479.996,322.774,506,256,506z"/>
	<path fill="#8F00C7" d="M256,12c32.943,0,64.895,6.45,94.969,19.169c29.054,12.289,55.15,29.884,77.562,52.296
		c22.413,22.413,40.009,48.508,52.298,77.562C493.55,191.101,500,223.055,500,256s-6.45,64.899-19.171,94.973
		c-12.289,29.054-29.885,55.149-52.298,77.562c-22.413,22.412-48.509,40.007-77.562,52.296C320.895,493.55,288.943,500,256,500
		c-32.943,0-64.895-6.45-94.969-19.169c-29.054-12.289-55.15-29.884-77.562-52.296c-22.413-22.412-40.009-48.508-52.298-77.562
		C18.45,320.899,12,288.945,12,256s6.45-64.899,19.171-94.973c12.289-29.054,29.885-55.149,52.298-77.562
		c22.413-22.412,48.509-40.007,77.562-52.296C191.105,18.45,223.057,12,256,12 M256,0C114.623,0,0,114.613,0,256
		s114.623,256,256,256c141.377,0,256-114.613,256-256S397.377,0,256,0L256,0z"/>
</g>
<g>
	<path fill="#FFFFFF" d="M297.796,412.735c0,5.755-4.694,10.449-10.449,10.449h-62.694c-5.755,0-10.449-4.694-10.449-10.449v-62.694
		c0-5.755,4.693-10.449,10.449-10.449h62.694c5.755,0,10.449,4.694,10.449,10.449V412.735z"/>
</g>
<g>
	<path fill="#FFFFFF" d="M297.796,182.857c0,5.755-0.918,15.061-2.042,20.693l-18.814,99.675
		c-1.104,5.632-6.736,15.469-12.491,15.469H248.04c-5.753,0-11.387-9.837-12.53-15.469l-19.224-97.063
		c-1.143-5.632-2.081-17.55-2.081-23.305V99.265c0-5.755,4.693-10.449,10.449-10.449h62.694c5.755,0,10.449,4.694,10.449,10.449
		V182.857z"/>
</g>
</svg>
