<?xml version="1.0" encoding="utf-8"?>
<!-- Generator: Adobe Illustrator 17.0.0, SVG Export Plug-In . SVG Version: 6.00 Build 0)  -->
<!DOCTYPE svg PUBLIC "-//W3C//DTD SVG 1.1//EN" "http://www.w3.org/Graphics/SVG/1.1/DTD/svg11.dtd">
<svg version="1.1" id="Caution_1_" xmlns="http://www.w3.org/2000/svg" xmlns:xlink="http://www.w3.org/1999/xlink" x="0px" y="0px"
	 width="512px" height="512px" viewBox="0 0 512 512" enable-background="new 0 0 512 512" xml:space="preserve">
<g>
	<path fill="#F5A700" d="M72.124,474L197.715,65.83c3.796-11.392,6.731-21.137,9.09-28.969C215.413,8.285,217.287,6,223.955,6H288
		c7.25,0,9.259,4.723,17.293,31.256c2.343,7.739,5.258,17.368,8.992,28.573L439.876,474H72.124z"/>
	<path fill="#E99E00" d="M288,12c0.932,0,1.338,0.107,1.437,0.138c0.178,0.142,1.312,1.179,3.199,5.771
		c2.011,4.892,4.174,12.038,6.914,21.085c2.349,7.76,5.271,17.41,9.021,28.666L431.752,468H80.248L203.429,67.661
		c3.813-11.447,6.756-21.215,9.121-29.07c2.682-8.904,4.801-15.938,6.776-20.762c1.849-4.515,2.963-5.543,3.14-5.685
		c0.101-0.033,0.52-0.145,1.488-0.145H288 M288,0h-64.045C207.833,0,208,16,192,64L64,480h384L320,64C304,16,304,0,288,0L288,0z"/>
</g>
<g>
	<path fill="#F5A700" d="M38,506v-42c0-12.636,13.364-26,26-26h384c12.636,0,26,13.364,26,26v42H38z"/>
	<path fill="#E99E00" d="M448,444c9.346,0,20,10.654,20,20v36H44v-36c0-9.346,10.654-20,20-20H448 M448,432H64c-16,0-32,16-32,32v48
		h448v-48C480,448,464,432,448,432L448,432z"/>
</g>
</svg>
