<?xml version="1.0" encoding="utf-8"?>
<!-- Generator: Adobe Illustrator 17.0.0, SVG Export Plug-In . SVG Version: 6.00 Build 0)  -->
<!DOCTYPE svg PUBLIC "-//W3C//DTD SVG 1.1//EN" "http://www.w3.org/Graphics/SVG/1.1/DTD/svg11.dtd">
<svg version="1.1" id="Pen" xmlns="http://www.w3.org/2000/svg" xmlns:xlink="http://www.w3.org/1999/xlink" x="0px" y="0px"
	 width="512px" height="512px" viewBox="0 0 512 512" enable-background="new 0 0 512 512" xml:space="preserve">
<g id="pencil_1_">
	<g>
		<path fill="#0089D1" d="M376.905,48.42l47.741-39.496l0.201-0.202C426.6,6.967,428.948,6,431.46,6
			c2.519,0,4.879,0.974,6.645,2.743l65.156,65.155c1.771,1.774,2.745,4.143,2.739,6.666c-0.005,2.499-0.973,4.833-2.725,6.572
			l-0.209,0.207l-39.487,47.751L376.905,48.42z"/>
		<path fill="#0083C7" d="M431.461,12c0.529,0,1.545,0.128,2.405,0.989l65.145,65.144c0.864,0.866,0.991,1.886,0.99,2.417
			c-0.001,0.517-0.126,1.507-0.953,2.328l-0.417,0.414l-0.375,0.453l-35.097,42.442L385.81,48.84l42.441-35.111l0.44-0.364
			l0.404-0.404C429.929,12.125,430.935,12,431.461,12 M431.461,0c-3.942,0-7.879,1.498-10.859,4.483L368,48l96,96l43.503-52.607
			c5.991-5.949,6.002-15.725,0-21.738L442.35,4.503C439.35,1.498,435.402,0,431.461,0L431.461,0z"/>
	</g>
	<g>
		
			<rect x="80.981" y="194.118" transform="matrix(-0.7071 0.7071 -0.7071 -0.7071 618.0387 256)" fill="#0089D1" width="350.039" height="123.764"/>
		<path fill="#0083C7" d="M336,96.971L415.029,176L176,415.029L96.971,336L336,96.971 M336,80L80,336l96,96l256-256L336,80L336,80z"
			/>
	</g>
	<g>
		<polygon fill="#0089D1" points="50.543,379.028 132.972,461.457 7.136,504.864 		"/>
		<path fill="#0083C7" d="M53.086,390.056l68.858,68.858l-105.118,36.26L53.086,390.056 M48,368L0.722,505.058
			C-0.931,509.358,0.35,512,3.581,512c0.958,0,2.086-0.232,3.361-0.722L144,464L48,368L48,368z"/>
	</g>
</g>
</svg>
