<?xml version="1.0" encoding="utf-8"?>
<!-- Generator: Adobe Illustrator 17.0.0, SVG Export Plug-In . SVG Version: 6.00 Build 0)  -->
<!DOCTYPE svg PUBLIC "-//W3C//DTD SVG 1.1//EN" "http://www.w3.org/Graphics/SVG/1.1/DTD/svg11.dtd">
<svg version="1.1" id="Warning" xmlns="http://www.w3.org/2000/svg" xmlns:xlink="http://www.w3.org/1999/xlink" x="0px" y="0px"
	 width="512px" height="512px" viewBox="0 0 512 512" enable-background="new 0 0 512 512" xml:space="preserve">
<g>
	<path fill="#F3C900" d="M256,506c-9.551,0-18.5-3.689-25.198-10.387L16.387,281.197c-13.894-13.894-13.894-36.501,0-50.395
		L230.802,16.387C237.5,9.689,246.449,6,256,6s18.5,3.689,25.198,10.387l214.415,214.416c13.894,13.894,13.894,36.501,0,50.395
		L281.197,495.613C274.5,502.311,265.551,506,256,506z"/>
	<path fill="#E8BF00" d="M256,12c7.948,0,15.39,3.065,20.955,8.629l214.415,214.415c11.555,11.555,11.555,30.355,0,41.91
		L276.955,491.371C271.39,496.935,263.948,500,256,500c-7.948,0-15.39-3.065-20.955-8.629L20.629,276.955
		c-11.555-11.555-11.555-30.355,0-41.91L235.045,20.629C240.61,15.065,248.052,12,256,12 M256,0
		c-10.672,0-21.344,4.048-29.44,12.144L12.144,226.56c-16.192,16.192-16.192,42.689,0,58.881L226.56,499.856
		C234.656,507.952,245.328,512,256,512c10.672,0,21.344-4.048,29.44-12.144L499.856,285.44c16.192-16.192,16.192-42.689,0-58.881
		L285.44,12.144C277.344,4.048,266.672,0,256,0L256,0z"/>
</g>
<g>
	<path fill="#FFFFFF" d="M298,350.449c0-5.771-4.678-10.449-10.449-10.449h-63.102c-5.771,0-10.449,4.678-10.449,10.449v63.102
		c0,5.771,4.678,10.449,10.449,10.449h63.102c5.771,0,10.449-4.678,10.449-10.449V350.449z"/>
</g>
<g>
	<path fill="#FFFFFF" d="M298,99.265C298,93.51,293.102,89,287.347,89h-62.694C218.898,89,214,93.51,214,99.265v83.592
		c0,5.755,1.04,17.673,2.183,23.305l19.275,97.216C236.601,309.01,242.287,319,248.04,319h16.409c5.755,0,11.387-9.99,12.491-15.622
		l18.916-99.751c1.124-5.632,2.144-15.014,2.144-20.77V99.265z"/>
</g>
</svg>
