<svg width="190" height="48" viewBox="0 0 190 48" fill="none" xmlns="http://www.w3.org/2000/svg">
<g clip-path="url(#clip0_2200_3606)">
<path d="M13.1319 1.50684H20.4525C21.0672 1.50684 21.6261 1.50684 22.2408 1.50684C22.8555 1.50684 23.3025 1.61846 23.5819 1.89753C23.8055 2.06498 23.9172 2.34405 23.9731 2.73474C24.029 3.06963 24.0849 3.40451 24.1408 3.73939C24.1966 4.35335 24.3084 4.9673 24.3643 5.58125C24.4761 6.19521 24.5878 6.80916 24.6437 7.42311C25.0349 9.7673 25.3702 12.1673 25.6496 14.5673C25.929 16.9673 26.3202 19.3673 26.7114 21.7673C26.879 22.4929 26.9908 23.2743 27.0466 24.0557C27.1025 24.8371 27.2143 25.6185 27.3819 26.344C27.4378 26.5115 27.4378 26.7347 27.4937 26.9022C27.5496 27.0696 27.6055 27.2371 27.7731 27.3487C27.829 27.4045 27.8849 27.4045 27.9408 27.4603C27.9966 27.5161 28.1084 27.4603 28.2202 27.4045C28.4996 27.3487 28.779 27.1254 28.9466 26.7347C29.1143 26.344 29.3378 26.0092 29.5055 25.7301C29.9525 24.8929 30.3996 24.0557 30.7908 23.2185C31.1819 22.3813 31.629 21.4882 32.1319 20.651C33.3055 18.3626 34.5349 16.1301 35.7084 13.8417C36.9378 11.5533 38.1672 9.20916 39.3408 6.92079C39.6202 6.30684 39.9555 5.7487 40.2349 5.19056C40.5702 4.5766 40.9055 4.01846 41.1849 3.40451C41.3525 3.12544 41.5202 2.79056 41.6878 2.51149C41.8555 2.23242 42.1349 1.95335 42.4702 1.78591C42.7496 1.61846 43.029 1.50684 43.3643 1.50684C43.7555 1.50684 44.0908 1.50684 44.4819 1.50684H48.1143H51.9702C52.3055 1.50684 52.6408 1.50684 52.9761 1.50684C53.3672 1.50684 53.5908 1.56265 53.7584 1.73009C54.1496 1.95335 54.2614 2.39986 54.0937 3.01381C53.9819 3.62777 53.8702 4.24172 53.7584 4.85567L52.0819 13.2278L47.8908 33.9906L46.9408 38.8464C46.8849 39.2371 46.7731 39.6836 46.6614 40.0743C46.5496 40.465 46.3819 40.744 46.1025 40.9115C45.8231 41.0789 45.5437 41.1906 45.2084 41.2464C44.8731 41.2464 44.4819 41.2464 44.0908 41.2464H41.4084H39.8996C39.6202 41.1906 39.3966 41.1347 39.1731 41.0789C39.0055 41.0231 38.8378 40.9115 38.7261 40.6882C38.6143 40.5208 38.5584 40.2417 38.6143 39.9626C38.6702 39.6836 38.7819 39.3487 38.8378 39.0138L39.3966 36.1673L42.3025 21.8231C42.3584 21.3208 42.4702 20.8185 42.5261 20.372C42.6378 19.8696 42.7496 19.4231 42.8055 18.9208C42.8614 18.6417 42.9731 18.3068 43.029 18.0278C43.0849 17.6929 43.1408 17.358 43.1408 17.0789C43.0849 16.7999 43.0849 16.5208 43.1408 16.2417C43.1966 15.9626 43.1408 15.7394 42.9731 15.6836C42.8614 15.6278 42.7496 15.6836 42.6937 15.7394C42.6378 15.7952 42.5819 15.851 42.5261 15.9068C42.3584 16.0743 42.1908 16.2417 42.0231 16.465C41.9114 16.6324 41.7996 16.8557 41.6878 17.0231C41.3525 17.5813 41.0172 18.1394 40.6819 18.7533C40.4025 19.3673 40.0672 19.9254 39.6761 20.5394C39.5643 20.7626 39.4525 20.9859 39.3408 21.2092C39.2849 21.4324 39.1731 21.6557 39.0055 21.8789C38.7261 22.3813 38.4466 22.8278 38.1672 23.3301C37.9437 23.8324 37.6643 24.2789 37.3849 24.7813C37.329 24.8929 37.2731 25.0045 37.2172 25.1719C37.1614 25.2836 37.1055 25.3952 37.0496 25.5068C36.8261 25.8417 36.6025 26.1766 36.4349 26.5673C36.2672 26.958 36.0996 27.2929 35.8202 27.6836C35.5966 28.0185 35.3731 28.3533 35.2055 28.744C35.0378 29.1347 34.8702 29.4696 34.6466 29.8603C33.9761 30.9208 33.3614 32.0371 32.8025 33.1533C32.2437 34.2138 31.6849 35.3301 31.0702 36.3906C30.9584 36.5022 30.9025 36.6138 30.8466 36.7254C30.8466 36.8371 30.7908 36.9487 30.679 37.0603C30.3996 37.451 30.1761 37.8975 29.9525 38.344C29.7849 38.7347 29.5614 39.1813 29.2819 39.572C29.1143 39.851 29.0025 40.0743 28.8349 40.2975C28.6672 40.5208 28.4996 40.6882 28.3319 40.8557C28.1084 41.0231 27.8849 41.0789 27.7172 41.1347C27.5496 41.1347 27.2702 41.1906 26.9908 41.2464H25.7055C25.4261 41.2464 25.1466 41.2464 24.7555 41.3022C24.4202 41.3022 24.0849 41.3022 23.6937 41.3022C23.3584 41.3022 23.0231 41.3022 22.7437 41.2464C22.4643 41.1906 22.2408 41.1347 22.129 41.0231C21.8496 40.8557 21.6819 40.6324 21.6261 40.4092C21.5702 40.1301 21.5143 39.851 21.4025 39.5161C21.3466 39.0696 21.2908 38.6231 21.2349 38.1766C21.179 37.6743 21.1231 37.2278 21.0114 36.7813L20.9555 36.2789C20.8437 35.8324 20.7878 35.3859 20.7319 34.8836C20.6761 34.3813 20.6202 33.8789 20.5084 33.4324C20.5084 33.3208 20.5084 33.2092 20.5084 33.1533C20.5084 33.0417 20.5084 32.9301 20.4525 32.8185C20.3408 32.4836 20.2849 32.1487 20.229 31.758C20.1731 31.3673 20.1172 31.0324 20.0614 30.6417C20.0614 30.5859 20.0614 30.4743 20.0614 30.3626C20.0614 30.251 20.0614 30.1394 20.0055 30.0836C19.9496 29.6929 19.8937 29.358 19.8378 28.9673C19.8378 28.5766 19.7819 28.2417 19.6702 27.851C19.5025 27.1254 19.3908 26.344 19.279 25.5068C19.2231 24.6696 19.1114 23.8882 18.9437 23.1068C18.7761 22.158 18.6643 21.2092 18.5525 20.2603C18.4966 19.3115 18.329 18.3626 18.0496 17.4696C17.9937 16.9673 17.8819 16.5208 17.7143 16.1859C17.6584 16.1301 17.5466 16.0743 17.4908 16.0185C17.4349 15.9626 17.379 15.9626 17.2672 16.0185C17.0437 16.1301 16.8761 16.2975 16.8202 16.5766C16.7643 16.8557 16.7084 17.0789 16.5966 17.358C16.429 17.6371 16.3731 17.9161 16.3172 18.1952C16.2614 18.4743 16.2614 18.7533 16.2055 19.0324C16.1496 19.4231 16.0378 19.8696 15.9261 20.2603C15.8702 20.651 15.7584 21.0975 15.6466 21.4882L12.6849 36.3347L12.1261 39.0696C12.0702 39.3487 11.9584 39.6836 11.9025 39.9626C11.8466 40.2417 11.7349 40.5208 11.5672 40.6882C11.3996 40.9673 11.0643 41.1347 10.6172 41.1906C10.3378 41.2464 10.0584 41.3022 9.779 41.3022C9.49959 41.2464 9.16429 41.2464 8.88488 41.2464H5.979C5.58782 41.2464 5.19665 41.2464 4.86135 41.2464C4.52606 41.1906 4.24665 41.0789 4.079 40.9115C3.91135 40.744 3.85547 40.465 3.85547 40.0743C3.91135 39.6836 4.02312 39.2371 4.079 38.8464L5.029 33.9347L9.22018 13.172L10.7849 5.358C10.8408 5.13474 10.8408 4.85567 10.8966 4.5766C10.9525 4.24172 11.0643 3.90684 11.1202 3.62777C11.1761 3.3487 11.2878 3.06963 11.3437 2.79056C11.4555 2.51149 11.5672 2.28823 11.6231 2.12079C11.8466 1.84172 12.1819 1.67428 12.629 1.56265C12.7408 1.50684 12.7966 1.50684 12.8525 1.56265C12.9643 1.56265 13.0202 1.56265 13.1319 1.50684Z" fill="white"/>
<path d="M79.9676 39.0698C79.9676 39.4605 79.9118 39.907 79.8559 40.2977C79.8 40.6884 79.5206 40.9675 79.1294 41.1349C78.85 41.2466 78.5706 41.3024 78.2912 41.3024C78.0118 41.3024 77.6765 41.3024 77.3971 41.3024H74.3794C74.0441 41.3024 73.7088 41.3024 73.3735 41.3024C73.0941 41.2466 72.8706 41.1907 72.7029 41.0233C72.4794 40.8559 72.3118 40.6884 72.2559 40.4093C72.2 40.1303 72.0324 39.8512 71.8647 39.6838C71.8088 39.6279 71.6971 39.5721 71.5853 39.5163C71.5294 39.4605 71.3618 39.4047 71.1941 39.4605C70.9706 39.5163 70.7471 39.6279 70.5794 39.7396C70.4118 39.8512 70.1882 39.9628 70.0206 40.0186C69.7971 40.1861 69.5735 40.2977 69.2941 40.4093C69.0706 40.521 68.8471 40.6326 68.5676 40.7442C68.0647 40.9675 67.5059 41.1349 66.9471 41.3024C66.3882 41.414 65.8294 41.5256 65.2706 41.6931C64.9912 41.7489 64.7118 41.8047 64.4324 41.8047C64.2088 41.8605 63.9853 41.8605 63.7059 41.9163C63.5941 41.9163 63.4824 41.9163 63.3706 41.9163C63.2588 41.9721 63.1471 41.9721 63.0353 41.9721H62.4206C62.0294 42.0279 61.6382 42.0279 61.3029 41.9721H60.8C60.5206 41.9163 60.2971 41.8605 60.0176 41.8605C59.7941 41.9163 59.5706 41.8605 59.3471 41.8047C59.0118 41.7489 58.6765 41.6373 58.3412 41.5814C58.0059 41.5256 57.7265 41.4698 57.4471 41.3024C56.4412 40.9117 55.6029 40.3535 54.9882 39.7396C54.3735 39.0698 53.9265 38.1768 53.7029 37.1163C53.6471 36.8373 53.5912 36.5582 53.5353 36.2791C53.5353 36 53.5353 35.6652 53.4794 35.3303C53.4235 35.1628 53.4235 34.9396 53.4794 34.7721C53.5353 34.6047 53.5912 34.3814 53.5912 34.214C53.5912 34.1024 53.5912 33.8791 53.6471 33.5442C53.7029 33.1535 53.8147 32.9303 53.8706 32.7628C54.0382 32.3721 54.0941 32.0931 54.15 31.814C54.3176 31.4233 54.5412 30.9768 54.7088 30.5861C54.9324 30.1396 55.1559 29.7489 55.4353 29.414C56.2735 28.3535 57.1118 27.5163 58.0618 26.9582C59.0118 26.4 60.1294 25.8977 61.5265 25.507C62.0294 25.3396 62.5882 25.1721 63.0912 25.1163C63.5941 25.0605 64.1529 24.9489 64.7118 24.8373C64.9912 24.7814 65.3265 24.7256 65.6618 24.7256C66.0529 24.6698 66.3882 24.614 66.7235 24.5582C67.0029 24.5024 67.2265 24.4466 67.5059 24.5024C67.7853 24.5024 68.0647 24.4466 68.4 24.3907C68.6794 24.3349 68.9029 24.2791 69.1823 24.2791C69.4618 24.2791 69.7412 24.2233 70.0206 24.1675C70.8588 24 71.5853 23.8326 72.2559 23.721C72.9823 23.5535 73.6529 23.2186 74.2676 22.7163C74.6588 22.3814 74.9382 21.9907 75.1618 21.6C75.2176 21.4884 75.2176 21.3768 75.2176 21.321C75.2176 21.2652 75.2176 21.1535 75.2735 21.0977C75.3294 21.0419 75.3853 20.9303 75.3853 20.7628C75.4412 20.5954 75.4412 20.4838 75.4971 20.428C75.4971 20.2605 75.4971 20.1489 75.4971 19.9814C75.4971 19.814 75.4971 19.7024 75.4971 19.5907C75.3294 18.4745 74.7147 17.6931 73.5971 17.3024C73.3176 17.1907 72.9265 17.1349 72.4235 17.0791C71.9765 17.0233 71.5294 16.9675 71.0265 17.0233C70.5235 17.0233 70.0765 17.0791 69.5735 17.1349C69.1265 17.1907 68.7353 17.3024 68.4 17.414C68.1206 17.4698 67.8971 17.5814 67.6735 17.7489C67.45 17.8605 67.2265 17.9721 67.0029 18.1396C66.7794 18.307 66.5559 18.4745 66.2765 18.7535C65.9971 19.0326 65.8294 19.2559 65.7176 19.4791C65.4382 19.8698 65.2147 20.2047 65.0471 20.5396C64.8794 20.8745 64.5441 21.0977 64.0971 21.2093C63.8176 21.2652 63.4824 21.321 63.1471 21.321C62.8118 21.321 62.4765 21.321 62.1412 21.321H60.0176C59.85 21.321 59.6265 21.321 59.4029 21.3768C59.2353 21.3768 59.0676 21.3768 58.9559 21.321H58.4529C58.3971 21.2652 58.2853 21.2652 58.1735 21.2652C58.0618 21.2652 57.95 21.2093 57.8941 21.1535C57.6147 21.0977 57.5029 20.8186 57.4471 20.428C57.4471 20.2605 57.5029 20.0373 57.5588 19.8698C57.6147 19.7024 57.7265 19.5349 57.7824 19.3675C57.95 18.9768 58.1735 18.5861 58.3412 18.2512C58.5647 17.8605 58.7882 17.5256 59.0118 17.2466C59.1794 17.0791 59.2912 16.8559 59.4588 16.6884C59.6265 16.521 59.7382 16.2977 59.9059 16.1303C60.2971 15.7396 60.7441 15.3489 61.2471 14.9582C61.3588 14.9024 61.4706 14.8466 61.6382 14.6791C61.8618 14.5117 62.0294 14.4 62.1971 14.2884C62.3647 14.1768 62.5882 14.0652 62.8118 13.9535C63.5382 13.5628 64.2647 13.228 64.9912 13.0047C65.7735 12.7256 66.5559 12.5024 67.3382 12.2791C67.8412 12.1675 68.2882 12.1117 68.7912 12.0559C69.2941 12 69.7971 11.9442 70.3 11.8326C70.4676 11.7768 70.6912 11.7768 70.9706 11.8326C71.25 11.8884 71.4735 11.8326 71.5853 11.7768C73.0941 11.721 74.5471 11.7768 75.8882 11.9442C77.2853 12.1117 78.4588 12.3907 79.5206 12.7814C80.5823 13.1721 81.4765 13.7303 82.147 14.4559C82.8735 15.1256 83.3206 16.0187 83.5441 17.0791C83.6559 17.6931 83.6559 18.4186 83.5441 19.2559C83.4323 20.0931 83.2647 20.9303 83.097 21.7675L80.5823 34.214C80.4706 34.9396 80.3588 35.6652 80.1912 36.3907C80.0235 37.1163 79.9676 37.7303 80.0235 38.3442C80.0235 38.4559 80.0235 38.5675 79.9676 38.7349C79.9676 38.8466 79.9676 38.9582 79.9676 39.0698ZM73.4853 30.4745C73.5412 30.307 73.5971 30.0838 73.6529 29.8605C73.7088 29.5814 73.7088 29.3582 73.7088 29.1907C73.7088 28.9675 73.7088 28.7442 73.7647 28.5768C73.8206 28.4093 73.7647 28.2419 73.5971 28.1303C73.4294 27.9628 73.2059 27.907 72.8147 27.907C72.6471 27.9628 72.5353 27.9628 72.4235 28.0186C72.3118 28.0186 72.1441 28.0186 71.9765 28.0745C71.6971 28.1303 71.4176 28.1861 71.1382 28.2419C70.8588 28.2977 70.5235 28.3535 70.1882 28.4093C70.0765 28.4652 69.9088 28.4652 69.6853 28.4652C69.1823 28.5768 68.6794 28.6326 68.1765 28.6884C67.6735 28.7442 67.2265 28.8 66.7235 28.9675C66.4441 29.0233 66.1088 29.1349 65.8294 29.1907C65.55 29.2466 65.3265 29.3024 65.0471 29.414C64.2088 29.7489 63.4265 30.2512 62.7559 30.921C62.0853 31.5907 61.6941 32.5396 61.5823 33.7117C61.5265 34.3256 61.6382 34.8838 61.9176 35.2745C62.0853 35.6652 62.3647 36 62.8676 36.2791C63.3706 36.5024 63.8735 36.6698 64.4882 36.7814C65.1029 36.8931 65.7176 36.9489 66.3882 36.8931C67.1147 36.8373 67.7853 36.6698 68.4 36.5024C69.4618 36.2233 70.3 35.721 70.9706 35.107C71.6971 34.4373 72.2559 33.6 72.7588 32.6512C72.8706 32.3721 72.9823 32.1489 73.0382 31.8698C73.0941 31.5907 73.2059 31.2559 73.3735 30.9768L73.4853 30.4745Z" fill="white"/>
<path d="M144.733 26.6226C144.733 26.9017 144.677 27.2366 144.51 27.6273C144.342 28.018 144.174 28.2412 143.951 28.3528C143.783 28.5203 143.504 28.6319 143.112 28.6877C142.721 28.7435 142.33 28.7435 141.883 28.7994C141.492 28.7994 141.045 28.7994 140.598 28.7994C140.207 28.7435 139.815 28.7435 139.48 28.7435H125.845C125.565 28.7435 125.342 28.7435 125.062 28.7435C124.839 28.7435 124.615 28.7994 124.448 28.8552C124.112 29.0226 123.889 29.1342 123.777 29.3017C123.721 29.3575 123.61 29.5249 123.442 29.7482C123.33 29.9156 123.274 30.1389 123.274 30.3063C123.33 30.5296 123.33 30.7528 123.274 30.9761C123.274 31.1435 123.274 31.3668 123.33 31.59C123.442 32.4831 123.665 33.2087 123.945 33.8226C124.28 34.3807 124.783 34.8831 125.398 35.3296C125.677 35.497 125.957 35.6645 126.236 35.7203C126.571 35.7761 126.907 35.8319 127.186 35.9435C127.465 35.9993 127.857 36.0552 128.36 36.111C128.862 36.1668 129.365 36.111 129.757 36.0552H130.26C130.651 35.9993 130.986 35.8877 131.321 35.8319C131.657 35.7203 131.992 35.6087 132.327 35.497C132.718 35.3296 133.221 35.0505 133.724 34.7714C134.227 34.4924 134.674 34.1575 134.954 33.8784C135.177 33.5994 135.401 33.3761 135.68 33.1528C135.96 32.8738 136.239 32.7063 136.518 32.5947C136.91 32.4273 137.412 32.3156 137.971 32.3714C138.586 32.3714 139.089 32.3714 139.592 32.3714C139.815 32.3714 140.039 32.3714 140.262 32.3714C140.542 32.3156 140.765 32.3714 140.933 32.4273H141.492C141.827 32.4831 142.051 32.5947 142.218 32.7063C142.33 32.7621 142.386 32.9296 142.33 33.2087C142.33 33.4877 142.274 33.711 142.162 33.8784C141.883 34.3807 141.548 34.8831 141.212 35.2738C140.933 35.6645 140.598 36.111 140.207 36.5017C139.145 37.7296 138.027 38.7342 136.854 39.4598C135.68 40.1854 134.227 40.8552 132.551 41.3575C132.104 41.5249 131.657 41.5807 131.265 41.6366C130.874 41.6924 130.427 41.7482 129.924 41.8598C129.757 41.9156 129.589 41.9156 129.421 41.8598C129.254 41.8598 129.142 41.8598 128.974 41.9156H128.36C128.136 41.9714 127.912 42.0273 127.689 41.9714C127.465 41.9714 127.242 41.9714 127.074 41.9156C126.795 41.8598 126.515 41.8598 126.292 41.9156C126.068 41.9714 125.845 41.9156 125.565 41.8598C125.398 41.804 125.174 41.7482 124.951 41.7482C124.727 41.7482 124.56 41.6924 124.392 41.6366C124.001 41.5807 123.554 41.4691 123.162 41.3575C122.771 41.3017 122.436 41.1342 122.157 40.9668C121.765 40.7993 121.43 40.6877 121.095 40.5761C120.76 40.4086 120.48 40.2412 120.201 40.0738C119.139 39.3482 118.245 38.4552 117.518 37.5063C116.792 36.5017 116.289 35.3296 115.954 34.0459C115.842 33.6552 115.786 33.2087 115.73 32.818C115.73 32.3714 115.674 31.9249 115.562 31.4784C115.562 31.311 115.562 31.1994 115.562 31.0877C115.618 30.9203 115.618 30.8087 115.618 30.6412C115.562 30.1947 115.562 29.6924 115.618 29.19C115.674 28.6877 115.786 28.1296 115.842 27.6273C115.898 27.4598 115.898 27.2366 115.898 27.0133C115.954 26.7901 116.01 26.5668 116.065 26.3994L116.233 25.7296L116.68 24.3901C116.96 23.7761 117.183 23.1621 117.407 22.5482C117.63 21.9342 117.91 21.3761 118.245 20.8738C120.648 17.0226 123.889 14.2877 128.08 12.6691C128.639 12.4459 129.198 12.2784 129.757 12.2226C130.315 12.111 130.93 11.9994 131.545 11.8319C131.824 11.7761 132.104 11.7761 132.383 11.7761C132.662 11.7761 132.942 11.7761 133.221 11.7203C135.121 11.6645 136.686 11.8877 137.971 12.3901C139.257 12.8366 140.318 13.4505 141.268 14.1761C141.548 14.3994 141.827 14.6784 142.107 14.9575C142.386 15.2366 142.665 15.5156 142.833 15.7947C142.889 15.9621 143.057 16.1296 143.224 16.2412C143.448 16.6319 143.615 17.0784 143.783 17.5249C143.951 17.9156 144.174 18.3621 144.398 18.8087C144.51 19.1435 144.565 19.4784 144.621 19.8691C144.677 20.204 144.789 20.5947 144.845 20.9854C144.901 21.4877 144.957 21.9901 144.957 22.4924C145.012 22.9947 145.012 23.5528 145.068 24.0552C145.068 24.3342 145.012 24.6691 144.901 25.0598C144.845 25.3947 144.789 25.7296 144.845 26.0087L144.733 26.6226ZM136.965 23.3296C137.301 22.9389 137.412 22.4924 137.301 21.9901C137.245 21.4319 137.189 21.0412 137.133 20.7621C136.798 19.7575 136.239 18.9761 135.512 18.4738C134.786 17.9156 133.612 17.6366 132.104 17.5807C131.992 17.6366 131.88 17.6924 131.712 17.6366C131.545 17.5808 131.433 17.5808 131.321 17.6366C131.098 17.6924 130.874 17.7482 130.651 17.804C130.427 17.804 130.204 17.8598 130.036 17.9156C128.304 18.418 126.851 19.4784 125.789 20.9854C125.677 21.1528 125.565 21.3203 125.398 21.5994C125.23 21.8226 125.118 22.0459 125.062 22.3249C125.007 22.5482 124.951 22.7714 124.951 22.9947C124.951 23.218 125.062 23.3854 125.23 23.5528C125.51 23.7203 125.901 23.8319 126.404 23.8319C126.907 23.8319 127.41 23.8319 127.912 23.8319H134.115C134.618 23.8319 135.177 23.8319 135.736 23.8319C136.351 23.7761 136.742 23.6087 136.965 23.3296Z" fill="white"/>
<path d="M168.874 11.7764C171.11 11.7206 172.898 11.9997 174.239 12.7253C175.636 13.4509 176.586 14.4555 177.145 15.8509C177.313 16.2416 177.424 16.6881 177.48 17.1904C177.536 17.6369 177.592 18.0834 177.648 18.5857C177.704 18.8648 177.704 19.1439 177.648 19.423C177.592 19.702 177.592 19.9253 177.648 20.2044C177.592 20.4276 177.536 20.595 177.592 20.6509C177.536 21.1532 177.48 21.7113 177.369 22.2695C177.257 22.8276 177.145 23.3857 177.033 23.8881L176.083 28.8555L174.239 37.8974C174.072 38.623 173.96 39.2927 173.792 39.9625C173.624 40.5764 173.289 41.023 172.73 41.1904C172.507 41.2462 172.227 41.302 171.948 41.302C171.669 41.302 171.333 41.302 171.054 41.302H168.036C167.589 41.302 167.198 41.302 166.863 41.2462C166.527 41.1904 166.304 41.023 166.136 40.7439C166.024 40.5206 165.969 40.2416 166.024 39.9067C166.08 39.516 166.192 39.1253 166.248 38.7346L167.03 34.8276L168.707 26.5113C168.986 25.116 169.154 23.8881 169.266 22.716C169.433 21.5439 169.266 20.5392 168.874 19.702C168.483 18.9764 167.869 18.4183 166.919 18.1392C166.751 18.0834 166.527 18.0276 166.304 18.0276C166.136 18.0276 165.913 17.9718 165.745 17.916C165.577 17.8602 165.298 17.8602 165.019 17.916C164.739 17.916 164.572 17.916 164.404 17.9718C164.236 18.0276 164.069 18.0276 163.957 18.0276C163.845 18.0276 163.733 18.0276 163.622 18.0834C162.727 18.3067 162.001 18.5857 161.386 18.9764C159.989 19.8137 159.039 21.0974 158.48 22.716C157.977 24.3346 157.474 26.1764 157.083 28.2416L155.686 35.2183L155.016 38.623C154.96 38.9578 154.848 39.2927 154.792 39.6276C154.736 39.9625 154.624 40.2416 154.457 40.4648C154.177 40.8555 153.842 41.1346 153.395 41.1904C153.004 41.2462 152.501 41.302 151.886 41.302H149.092C148.701 41.302 148.254 41.302 147.863 41.2462C147.472 41.1904 147.192 41.0788 147.08 40.8555C146.857 40.5206 146.801 40.0183 146.969 39.4043C147.136 38.7904 147.248 38.1764 147.36 37.6183L148.869 30.0276L151.327 17.7485L151.942 14.902C151.998 14.5113 152.11 14.1206 152.166 13.7857C152.222 13.4509 152.389 13.1718 152.669 12.9485C152.724 12.8369 152.892 12.7811 153.06 12.7253C153.227 12.6695 153.451 12.6137 153.619 12.5578H153.898C154.066 12.502 154.289 12.502 154.457 12.502C154.68 12.502 154.904 12.502 155.072 12.502H157.419C157.698 12.502 157.977 12.502 158.257 12.5578C158.536 12.5578 158.816 12.6137 159.039 12.6695C159.263 12.7811 159.374 12.9485 159.43 13.1718C159.486 13.395 159.542 13.6741 159.542 13.9532C159.542 14.1206 159.542 14.2323 159.486 14.3439C159.43 14.4555 159.43 14.5671 159.486 14.6788C159.542 14.8462 159.542 14.9578 159.598 15.0137C159.654 15.0695 159.766 15.1253 159.877 15.1811C160.269 15.2369 160.604 15.0695 160.939 14.7904C161.274 14.4555 161.61 14.1764 161.945 14.009C163.119 13.2834 164.348 12.6695 165.633 12.223C166.024 12.1113 166.36 12.0555 166.695 11.9997C167.086 11.9439 167.477 11.8881 167.924 11.8323C168.036 11.7764 168.204 11.7764 168.427 11.8323C168.651 11.8323 168.763 11.8323 168.874 11.7764Z" fill="white"/>
<path d="M182.678 11.7209C182.734 11.7767 182.734 11.8325 182.734 11.8883C182.734 11.9441 182.734 12.0557 182.678 12.1674V12.279C182.622 12.3348 182.622 12.3906 182.566 12.4464C182.51 12.5022 182.51 12.5022 182.398 12.5581C182.342 12.5581 182.231 12.5581 182.119 12.5581C182.007 12.5581 181.895 12.5581 181.839 12.5581H181.672C181.616 12.5581 181.616 12.5581 181.56 12.5581C181.504 12.5581 181.504 12.5581 181.448 12.5581C181.392 12.6139 181.281 12.6697 181.225 12.7813C181.225 12.8371 181.169 12.8371 181.169 12.8929C181.169 12.9488 181.169 13.0046 181.169 13.0604L180.61 15.6836C180.61 15.7395 180.61 15.7395 180.61 15.7953C180.61 15.8511 180.61 15.8511 180.61 15.9069V16.0185V16.0743C180.61 16.0743 180.61 16.1302 180.554 16.1302C180.498 16.186 180.498 16.2418 180.387 16.2418C180.331 16.2418 180.331 16.2418 180.275 16.2418C180.219 16.2418 180.163 16.2418 180.107 16.2418C179.995 16.2418 179.884 16.2418 179.772 16.2418C179.66 16.2418 179.548 16.186 179.492 16.1302C179.492 16.0743 179.437 16.0185 179.492 15.9627C179.492 15.9069 179.548 15.8511 179.548 15.7395L180.051 13.1162C180.051 13.0604 180.051 13.0604 180.051 13.0046C180.051 12.9488 180.051 12.9488 180.051 12.8929V12.7255C180.051 12.6139 179.995 12.5581 179.939 12.5022C179.884 12.4464 179.772 12.4464 179.66 12.4464C179.548 12.4464 179.437 12.4464 179.325 12.4464C179.269 12.4464 179.269 12.4464 179.213 12.4464C179.157 12.4464 179.157 12.4464 179.157 12.4464C179.101 12.4464 179.101 12.4464 179.101 12.4464H179.045C178.989 12.3906 178.934 12.3348 178.934 12.279C178.934 12.2232 178.934 12.1116 178.989 11.9999C178.989 11.9441 178.989 11.8883 178.989 11.8883C178.989 11.8325 179.045 11.8325 179.045 11.7767C179.045 11.7209 179.101 11.7209 179.157 11.7209C179.213 11.7209 179.213 11.665 179.269 11.665H179.325H179.381H182.342C182.398 11.665 182.454 11.665 182.51 11.665C182.622 11.7209 182.678 11.7209 182.678 11.7209ZM188.657 11.7767C188.713 11.8325 188.713 11.8883 188.657 11.9441C188.657 11.9999 188.657 12.1116 188.601 12.1674L187.875 15.7953C187.875 15.8511 187.819 15.9627 187.819 16.0185C187.819 16.0743 187.763 16.1302 187.763 16.186C187.707 16.2418 187.651 16.2976 187.539 16.2976C187.428 16.2976 187.316 16.2976 187.204 16.2976C187.148 16.2976 187.092 16.2976 187.037 16.2976C186.981 16.2976 186.981 16.2976 186.925 16.2976C186.869 16.2976 186.813 16.2418 186.813 16.186C186.813 16.1302 186.813 16.0743 186.813 16.0185L186.869 15.8511V15.7953C186.869 15.7395 186.869 15.7395 186.869 15.6836L187.148 14.2883C187.148 14.1767 187.204 14.1209 187.204 14.0092C187.204 13.8976 187.26 13.8418 187.26 13.786C187.26 13.7302 187.26 13.7302 187.26 13.6743C187.26 13.6185 187.26 13.6185 187.204 13.6185C187.204 13.6185 187.204 13.6185 187.148 13.6185L187.092 13.6743C187.037 13.786 186.925 13.8418 186.869 13.9534C186.813 14.065 186.757 14.1767 186.701 14.2883C186.589 14.5116 186.422 14.7348 186.31 15.0139C186.198 15.2371 186.031 15.4604 185.919 15.6836C185.863 15.7953 185.807 15.9069 185.751 16.0185C185.695 16.1302 185.584 16.2418 185.528 16.2976C185.472 16.3534 185.416 16.3534 185.36 16.3534C185.304 16.3534 185.248 16.3534 185.192 16.3534H184.969C184.913 16.3534 184.913 16.3534 184.857 16.2976C184.801 16.2976 184.801 16.2418 184.801 16.2418C184.801 16.2418 184.745 16.186 184.745 16.1302C184.745 16.0743 184.745 16.0743 184.745 16.0185C184.745 15.9627 184.689 15.9069 184.689 15.7953C184.689 15.7395 184.689 15.6278 184.634 15.572C184.578 15.3488 184.578 15.1255 184.522 14.9022C184.466 14.679 184.466 14.4557 184.41 14.2325C184.41 14.1209 184.354 13.9534 184.354 13.8418C184.354 13.7302 184.298 13.6185 184.242 13.5069C184.242 13.5069 184.242 13.5069 184.187 13.5069C184.131 13.5627 184.131 13.5627 184.131 13.6185C184.131 13.6743 184.075 13.6743 184.075 13.7302C184.075 13.786 184.075 13.786 184.075 13.8418L184.019 14.0092C184.019 14.065 184.019 14.065 183.963 14.1209C183.907 14.1767 183.963 14.1767 183.963 14.1767L183.684 15.4604C183.684 15.572 183.628 15.6836 183.628 15.7953C183.628 15.9069 183.572 16.0185 183.516 16.0743L183.46 16.1302C183.46 16.1302 183.404 16.1302 183.404 16.186C183.348 16.186 183.348 16.186 183.292 16.2418C183.237 16.2418 183.181 16.2418 183.125 16.2418C183.013 16.2418 182.957 16.2418 182.845 16.2418C182.734 16.2418 182.678 16.2418 182.622 16.186C182.566 16.1302 182.566 16.1302 182.566 16.0185C182.566 15.9627 182.566 15.8511 182.622 15.7953L183.348 12.1116C183.348 12.0557 183.404 11.9999 183.404 11.9441C183.404 11.8883 183.46 11.8325 183.46 11.7767C183.516 11.7209 183.572 11.665 183.628 11.665H183.684H183.739H184.466C184.522 11.665 184.634 11.665 184.689 11.665C184.745 11.665 184.801 11.665 184.857 11.7209C184.913 11.7767 184.969 11.8325 184.969 11.9441C184.969 12.0557 185.025 12.1116 185.025 12.2232C185.081 12.4464 185.081 12.6697 185.137 12.8371C185.192 13.0604 185.192 13.2836 185.248 13.4511C185.304 13.5627 185.304 13.6743 185.304 13.786C185.304 13.8976 185.36 14.0092 185.36 14.1209C185.36 14.1767 185.36 14.2325 185.416 14.2883C185.416 14.3441 185.472 14.3441 185.528 14.3999C185.584 14.3999 185.584 14.3999 185.639 14.3999C185.695 14.3441 185.695 14.3441 185.695 14.3441C185.751 14.2883 185.807 14.1767 185.863 14.065C185.919 13.9534 185.975 13.8976 186.031 13.786C186.198 13.5627 186.31 13.2836 186.478 13.0604C186.645 12.7813 186.757 12.5581 186.925 12.279C186.981 12.1674 187.037 12.0557 187.092 11.9441C187.148 11.8325 187.26 11.7209 187.372 11.7209C187.428 11.7209 187.484 11.7209 187.539 11.7209C187.595 11.7209 187.651 11.7209 187.707 11.7209H188.21C188.266 11.7209 188.322 11.7209 188.322 11.7209C188.378 11.7209 188.434 11.7209 188.434 11.7209H188.489C188.545 11.7209 188.545 11.7209 188.601 11.7767C188.601 11.7209 188.657 11.7209 188.657 11.7767Z" fill="white"/>
<path d="M89.137 11.176C88.8948 11.7678 88.7146 13.0501 88.6468 14.7639L90.586 15.6716C90.5384 14.446 90.5697 13.2921 90.6798 12.2428C90.6861 12.1643 90.6925 12.1185 90.6925 12.1185C90.6913 12.1604 90.681 12.2009 90.6798 12.2428C90.6452 12.5882 90.5771 13.6715 90.7142 15.6242C91.5036 14.9646 92.6377 13.849 93.5338 12.8961C92.5494 10.9504 91.3516 10.6233 91.3516 10.6233C91.3516 10.6233 89.6356 9.95712 89.137 11.176Z" fill="url(#paint0_linear_2200_3606)"/>
<path d="M96.0049 25.8754C95.9162 25.9749 95.8235 26.0692 95.7308 26.1635C95.7791 26.119 95.8287 26.0653 95.8731 26.0155C95.9214 25.971 95.9658 25.9212 96.0049 25.8754Z" fill="#BE202E"/>
<path opacity="0.35" d="M96.0049 25.8754C95.9162 25.9749 95.8235 26.0692 95.7308 26.1635C95.7791 26.119 95.8287 26.0653 95.8731 26.0155C95.9214 25.971 95.9658 25.9212 96.0049 25.8754Z" fill="#BE202E"/>
<path d="M95.2815 24.3494C95.2763 24.3533 95.2763 24.3533 95.2815 24.3494C95.2972 24.3376 95.3089 24.3205 95.3246 24.3087C95.3847 24.2472 95.4447 24.1856 95.4956 24.1228C95.429 24.1974 95.3533 24.2708 95.2815 24.3494V24.3494Z" fill="#BE202E"/>
<path opacity="0.35" d="M95.2815 24.3494C95.2763 24.3533 95.2763 24.3533 95.2815 24.3494C95.2972 24.3376 95.3089 24.3205 95.3246 24.3087C95.3847 24.2472 95.4447 24.1856 95.4956 24.1228C95.429 24.1974 95.3533 24.2708 95.2815 24.3494V24.3494Z" fill="#BE202E"/>
<path d="M91.163 21.3474C91.0658 20.708 90.9765 20.079 90.8952 19.4605C90.8124 18.8184 90.7467 18.188 90.6941 17.5642C90.6901 17.5263 90.6861 17.4884 90.686 17.4557C90.636 16.8462 90.5979 16.2524 90.5769 15.6704L88.6417 14.768C88.6394 14.8844 88.6318 15.0048 88.6282 15.1304C88.6149 15.5908 88.6069 16.0801 88.6095 16.5941C88.6122 17.1736 88.6255 17.7779 88.644 18.4109C88.6651 18.993 88.6967 19.5998 88.7362 20.2171C88.7741 20.7455 88.816 21.2791 88.8658 21.8231C88.8672 21.8467 88.8698 21.8611 88.8712 21.8846L91.4607 23.1545C91.3636 22.5478 91.2613 21.945 91.163 21.3474V21.3474Z" fill="url(#paint1_linear_2200_3606)"/>
<path d="M95.1542 36.4974C95.302 36.9758 95.4525 37.4687 95.6161 37.968C95.6201 37.9732 95.6188 37.9824 95.6227 37.9876C95.6452 38.0608 95.6637 38.1288 95.6913 38.1981C95.7982 38.5353 95.9011 38.8347 96.1228 39.5197C96.5377 39.4285 97.0594 39.6093 97.6048 39.854C97.2515 39.4401 96.7663 39.1664 96.1899 39.1088C97.7523 38.0394 98.7718 36.6742 98.6055 35.063C98.5881 34.9204 98.5668 34.7726 98.5363 34.6236C98.5195 35.2424 98.2691 35.6929 97.5212 36.1902L97.516 36.1942L97.5212 36.1902C98.2175 34.929 98.4027 34.0771 98.3044 32.9798C98.2802 32.7195 98.2442 32.4436 98.1924 32.1468C97.9855 33.7849 97.1199 34.8542 95.8419 35.4965L95.071 36.2242C95.1 36.317 95.1251 36.4046 95.1542 36.4974Z" fill="url(#paint2_linear_2200_3606)"/>
<path d="M94.1259 34.3167C93.9542 33.7088 93.7838 33.0918 93.6094 32.4695C93.4456 31.8721 93.2869 31.2708 93.1296 30.6603C92.9723 30.0497 92.8202 29.4353 92.6681 28.8208C92.5134 28.192 92.3678 27.5645 92.2274 26.933C92.0858 26.3107 91.9546 25.6805 91.8221 25.0595C91.7744 24.8333 91.7307 24.6123 91.6882 24.3822C91.6113 23.9978 91.5397 23.6095 91.468 23.2211C91.4614 23.2015 91.4601 23.178 91.4535 23.1584L88.8784 21.8859C88.8824 21.9238 88.8904 21.9669 88.8892 22.0088C88.9482 22.5868 89.0059 23.174 89.082 23.7638C89.1568 24.3627 89.2408 24.9629 89.3379 25.5696C89.4203 26.0808 89.508 26.5882 89.5996 27.1007C89.6181 27.2014 89.6407 27.3073 89.6592 27.408C89.7852 28.0421 89.919 28.654 90.0631 29.2253C90.2244 29.8737 90.3962 30.4816 90.5691 31.0476C90.6852 31.4188 90.7987 31.7757 90.9148 32.1142C91.015 32.3991 91.1244 32.6854 91.2298 32.9664C91.4829 33.6277 91.7621 34.2693 92.0622 34.8953L94.6647 36.1716C94.5209 35.6984 94.3874 35.2174 94.2409 34.7298C94.2039 34.5938 94.1669 34.4579 94.1259 34.3167V34.3167Z" fill="url(#paint3_linear_2200_3606)"/>
<path d="M92.0994 34.9801C92.4653 35.7367 92.8678 36.4657 93.3173 37.1593C93.3331 37.1802 93.3476 37.2102 93.3633 37.2311C92.645 36.9527 91.3804 37.1019 91.3896 37.1032C92.7028 37.5399 93.8565 38.0803 94.5905 38.9119C94.3071 39.2317 93.7721 39.4787 93.0982 39.6829C94.0347 39.7724 94.5542 39.6026 94.7439 39.5172C94.2604 39.9302 93.9964 40.6777 93.7665 41.4812C94.3052 40.5763 94.8432 39.9748 95.3717 39.7409C96.1807 42.3015 97.1512 45.0763 98.2243 47.987C98.3966 47.759 98.413 47.5091 98.3364 47.2556C98.1387 46.7328 96.8627 43.2706 95.3963 38.5675C95.3541 38.4355 95.3171 38.2996 95.2709 38.1623C95.2577 38.1231 95.2485 38.0891 95.2353 38.0499C95.0848 37.5571 94.9317 37.0499 94.7759 36.5284C94.7415 36.4068 94.7059 36.2944 94.6716 36.1728L94.6676 36.1676L92.0651 34.8913C92.0744 34.9252 92.0849 34.9501 92.0994 34.9801V34.9801Z" fill="url(#paint4_linear_2200_3606)"/>
<path d="M91.7587 23.2057C91.7747 23.292 91.7919 23.3691 91.8078 23.4554C91.8608 23.7104 91.9086 23.9693 91.9655 24.2294C92.0239 24.5132 92.0861 24.8021 92.1471 25.1002C92.1776 25.2493 92.208 25.3983 92.2425 25.5526C92.3418 26.0102 92.449 26.4783 92.5589 26.9607C92.6952 27.5543 92.8434 28.1636 93.0021 28.7977C93.1515 29.3977 93.3115 30.0227 93.4794 30.658C93.642 31.2646 93.8072 31.8856 93.9882 32.5275C94.1467 33.0962 94.3171 33.6805 94.4901 34.2793C94.4954 34.308 94.5099 34.3381 94.5152 34.3668C94.6895 34.9564 94.8704 35.5656 95.0592 36.1852C95.0618 36.1996 95.0645 36.214 95.0723 36.2244L95.8432 35.4968C95.8236 35.5034 95.8079 35.5152 95.7831 35.5257C96.6976 34.6409 97.4687 32.8812 97.6298 31.302C97.704 30.5746 97.6864 29.8015 97.5757 28.9594C97.4955 28.3317 97.3591 27.6727 97.174 26.9602C97.0127 26.3444 96.8147 25.6908 96.5746 25.0033C96.4352 25.2966 96.2356 25.5861 95.99 25.8691C95.9456 25.9189 95.9012 25.9687 95.8568 26.0185C95.8124 26.0683 95.7641 26.1129 95.7144 26.1666C96.3837 25.0979 96.4503 23.9584 96.2327 22.779C96.113 23.1311 95.8759 23.6535 95.4777 24.1252C95.4267 24.1881 95.3667 24.2497 95.3066 24.3114C95.2909 24.3232 95.2791 24.3402 95.2582 24.3559C95.4799 23.9761 95.6427 23.6161 95.7453 23.2522C95.77 23.1763 95.7855 23.0991 95.8011 23.0219C95.827 22.9041 95.8437 22.785 95.8604 22.6659C95.8668 22.5874 95.8771 22.5142 95.8835 22.4357C95.8948 22.2551 95.893 22.0681 95.8729 21.8785C95.8675 21.817 95.8661 21.7607 95.8555 21.7032C95.8396 21.6169 95.8276 21.5358 95.8104 21.4587C95.744 21.0991 95.6712 20.7853 95.5972 20.5134C95.5602 20.3775 95.5259 20.2559 95.4902 20.1435C95.4731 20.099 95.4651 20.0559 95.448 20.0114C95.4045 19.8886 95.3689 19.7761 95.3306 19.682C95.2753 19.5435 95.2253 19.4337 95.1845 19.358C95.1728 19.4077 95.1559 19.4614 95.1299 19.5137C94.9736 19.8934 94.6056 20.4161 94.2686 20.7844L94.9794 20.1184L94.2686 20.7844C94.2634 20.7883 94.2582 20.7922 94.2569 20.8014C94.2242 20.8342 94.1863 20.8709 94.1524 20.9128C94.1537 20.9036 94.1641 20.8958 94.1654 20.8866L91.7364 23.1652C91.7574 23.1821 91.76 23.1965 91.7587 23.2057V23.2057Z" fill="url(#paint5_linear_2200_3606)"/>
<path d="M90.7135 15.6237C90.7502 16.1612 90.8054 16.7668 90.8751 17.435C90.8791 17.473 90.8792 17.5057 90.8884 17.5397C90.9514 18.123 91.0315 18.7507 91.1314 19.4372C91.2167 20.0283 91.3112 20.6534 91.4268 21.3281C91.5225 21.9113 91.6379 22.5207 91.7574 23.1679L94.1864 20.8893C94.6871 19.9556 94.7917 19.3772 94.7756 18.6604C94.7699 18.4681 94.7563 18.2654 94.7388 18.0574C94.6914 17.4296 94.6073 16.764 94.4918 16.1219C94.3829 15.4995 94.2517 14.902 94.1038 14.3908C94.01 14.0601 93.9111 13.766 93.8109 13.5137C93.72 13.2954 93.6266 13.0955 93.5318 12.9047C92.637 13.8484 91.5029 14.964 90.7135 15.6237Z" fill="url(#paint6_linear_2200_3606)"/>
<path d="M95.8768 26.0216C95.8325 26.0714 95.7841 26.116 95.7345 26.1697C95.7789 26.1199 95.8233 26.0701 95.8768 26.0216Z" fill="#BE202E"/>
<path opacity="0.35" d="M95.8768 26.0216C95.8325 26.0714 95.7841 26.116 95.7345 26.1697C95.7789 26.1199 95.8233 26.0701 95.8768 26.0216Z" fill="#BE202E"/>
<path d="M95.8768 26.0216C95.8325 26.0714 95.7841 26.116 95.7345 26.1697C95.7789 26.1199 95.8233 26.0701 95.8768 26.0216Z" fill="url(#paint7_linear_2200_3606)"/>
<path d="M95.2735 24.3539C95.2891 24.3421 95.3009 24.325 95.3218 24.3093C95.3061 24.3211 95.2944 24.3381 95.2735 24.3539Z" fill="#BE202E"/>
<path opacity="0.35" d="M95.2735 24.3539C95.2891 24.3421 95.3009 24.325 95.3218 24.3093C95.3061 24.3211 95.2944 24.3381 95.2735 24.3539Z" fill="#BE202E"/>
<path d="M95.2735 24.3539C95.2891 24.3421 95.3009 24.325 95.3218 24.3093C95.3061 24.3211 95.2944 24.3381 95.2735 24.3539Z" fill="url(#paint8_linear_2200_3606)"/>
<path d="M114.911 11.0402C114.234 11.3195 113.043 12.2047 111.591 13.5285L112.41 15.8359C113.372 14.8111 114.338 13.9081 115.282 13.1532C115.351 13.0952 115.394 13.0636 115.394 13.0636C115.359 13.0963 115.317 13.1205 115.282 13.1532C114.973 13.4031 114.034 14.2194 112.552 15.9021C113.725 16.0133 115.547 16.0379 117.045 15.9999C117.84 13.6337 117.143 12.3964 117.143 12.3964C117.143 12.3964 116.306 10.4649 114.911 11.0402Z" fill="url(#paint9_linear_2200_3606)"/>
<path d="M108.448 28.4518C108.296 28.4597 108.144 28.4603 107.993 28.4608C108.068 28.4642 108.152 28.4614 108.228 28.4574C108.303 28.4608 108.38 28.4569 108.448 28.4518Z" fill="#BE202E"/>
<path opacity="0.35" d="M108.448 28.4518C108.296 28.4597 108.144 28.4603 107.993 28.4608C108.068 28.4642 108.152 28.4614 108.228 28.4574C108.303 28.4608 108.38 28.4569 108.448 28.4518Z" fill="#BE202E"/>
<path d="M109.11 26.6343C109.103 26.6332 109.103 26.6332 109.11 26.6343C109.132 26.6375 109.156 26.6334 109.178 26.6367C109.276 26.6359 109.375 26.6352 109.467 26.626C109.353 26.632 109.232 26.6294 109.11 26.6343V26.6343Z" fill="#BE202E"/>
<path opacity="0.35" d="M109.11 26.6343C109.103 26.6332 109.103 26.6332 109.11 26.6343C109.132 26.6375 109.156 26.6334 109.178 26.6367C109.276 26.6359 109.375 26.6352 109.467 26.626C109.353 26.632 109.232 26.6294 109.11 26.6343V26.6343Z" fill="#BE202E"/>
<path d="M108.246 20.8699C108.689 20.2764 109.13 19.6977 109.569 19.1338C110.026 18.5499 110.487 17.9892 110.954 17.4445C110.981 17.4107 111.009 17.3769 111.036 17.3506C111.493 16.8196 111.946 16.3108 112.404 15.8253L111.583 13.5255C111.486 13.6173 111.382 13.708 111.277 13.8061C110.89 14.1658 110.485 14.553 110.068 14.9687C109.598 15.4371 109.115 15.9341 108.614 16.4586C108.156 16.9441 107.687 17.4581 107.215 17.9869C106.815 18.4429 106.414 18.9064 106.01 19.3846C105.992 19.4046 105.982 19.4184 105.964 19.4384L107.012 22.5661C107.428 21.999 107.838 21.4307 108.246 20.8699V20.8699Z" fill="url(#paint10_linear_2200_3606)"/>
<path d="M99.1073 36.3074C98.8361 36.8127 98.5552 37.3316 98.2796 37.8665C98.2785 37.8739 98.27 37.8802 98.2689 37.8876C98.2273 37.9648 98.1867 38.0345 98.1525 38.1128C97.9635 38.4711 97.8021 38.7956 97.4218 39.5271C97.83 39.7912 98.1022 40.3609 98.3414 41.0014C98.3947 40.381 98.2276 39.7661 97.8109 39.251C99.9399 39.6611 101.873 39.3917 103.054 37.96C103.156 37.8312 103.259 37.6949 103.356 37.5502C102.838 38.0344 102.269 38.1933 101.262 37.9853L101.255 37.9842L101.262 37.9853C102.851 37.5367 103.695 37.0018 104.51 36.0389C104.703 35.8098 104.899 35.5585 105.1 35.2775C103.597 36.4275 102.029 36.5838 100.477 36.0614L99.2632 36.0199C99.2109 36.1182 99.1597 36.2091 99.1073 36.3074Z" fill="url(#paint11_linear_2200_3606)"/>
<path d="M100.056 33.7155C100.413 33.0867 100.779 32.4516 101.146 31.8091C101.502 31.1952 101.865 30.5823 102.236 29.9632C102.607 29.344 102.986 28.7259 103.365 28.1078C103.753 27.476 104.148 26.8526 104.55 26.2304C104.943 25.6145 105.351 25.0007 105.751 24.3933C105.897 24.1725 106.042 23.9591 106.196 23.7394C106.448 23.3676 106.707 22.9969 106.966 22.6261C106.976 22.605 106.994 22.5849 107.005 22.5638L105.971 19.4458C105.944 19.4795 105.915 19.5207 105.88 19.5534C105.456 20.0665 105.023 20.586 104.604 21.1224C104.176 21.6651 103.754 22.2163 103.337 22.7835C102.986 23.2619 102.643 23.7414 102.299 24.2283C102.232 24.3244 102.164 24.4279 102.096 24.5241C101.681 25.1367 101.289 25.7378 100.939 26.3147C100.54 26.9677 100.183 27.5965 99.8603 28.1925C99.651 28.5857 99.4513 28.9651 99.2686 29.3319C99.1169 29.6427 98.9715 29.9619 98.8272 30.2738C98.4914 31.0117 98.1928 31.755 97.9238 32.5027L98.9765 35.6462C99.2466 35.1484 99.5316 34.6528 99.8113 34.1413C99.8924 34.0019 99.9735 33.8624 100.056 33.7155V33.7155Z" fill="url(#paint12_linear_2200_3606)"/>
<path d="M97.8836 32.6021C97.561 33.5084 97.2904 34.4223 97.0864 35.3459C97.082 35.3756 97.0692 35.4115 97.0648 35.4412C96.7141 34.633 95.5752 33.7246 95.5815 33.7331C96.2817 35.1524 96.7691 36.5255 96.6814 37.7916C96.1927 37.8184 95.561 37.5821 94.8524 37.1983C95.5327 38.032 96.089 38.3178 96.3112 38.4033C95.5855 38.3425 94.7637 38.7292 93.9236 39.1889C95.0948 38.8987 96.018 38.8523 96.6338 39.0939C95.1966 41.8121 93.7147 44.8341 92.2045 48.0488C92.529 48.0055 92.7459 47.8178 92.8911 47.5515C93.1583 46.97 94.955 43.1465 97.6104 38.1698C97.6841 38.0292 97.7652 37.8898 97.8399 37.7418C97.8613 37.6995 97.8816 37.6646 97.9029 37.6223C98.1837 37.1034 98.4741 36.5708 98.7741 36.0245C98.8456 35.8987 98.9086 35.7793 98.9801 35.6535L98.9811 35.6461L97.9285 32.5027C97.9083 32.5376 97.8965 32.5661 97.8836 32.6021V32.6021Z" fill="url(#paint13_linear_2200_3606)"/>
<path d="M107.211 22.8513C107.154 22.9337 107.105 23.0098 107.047 23.0922C106.882 23.3404 106.709 23.5876 106.543 23.8433C106.358 24.119 106.173 24.4021 105.979 24.6916C105.882 24.8363 105.785 24.981 105.687 25.1332C105.393 25.5822 105.098 26.046 104.793 26.5235C104.418 27.112 104.041 27.7227 103.651 28.362C103.282 28.9664 102.901 29.5993 102.518 30.2471C102.154 30.8674 101.781 31.5014 101.403 32.1651C101.067 32.7516 100.727 33.3603 100.378 33.9828C100.359 34.0103 100.346 34.0462 100.327 34.0737C99.9862 34.6898 99.6349 35.3271 99.2815 35.9792C99.2719 35.9929 99.2623 36.0067 99.2601 36.0215L100.474 36.0629C100.452 36.0523 100.43 36.049 100.402 36.0373C101.859 36.069 103.914 35.2801 105.332 34.1405C105.985 33.6155 106.601 32.9792 107.199 32.2115C107.646 31.6413 108.074 31 108.506 30.2762C108.878 29.6496 109.252 28.9626 109.62 28.2142C109.268 28.3368 108.872 28.4074 108.443 28.4355C108.367 28.4394 108.29 28.4434 108.214 28.4474C108.138 28.4513 108.063 28.4479 107.979 28.4507C109.389 28.135 110.372 27.2723 111.158 26.1463C110.775 26.3323 110.158 26.5599 109.453 26.6156C109.361 26.6248 109.262 26.6255 109.164 26.6262C109.141 26.6229 109.118 26.6271 109.088 26.6227C109.577 26.4974 110.001 26.3401 110.38 26.1308C110.462 26.0898 110.538 26.0403 110.613 25.9908C110.73 25.9171 110.841 25.8349 110.951 25.7527C111.02 25.6947 111.088 25.6441 111.157 25.5861C111.314 25.4501 111.465 25.2981 111.603 25.1292C111.649 25.0753 111.694 25.0289 111.732 24.974C111.79 24.8916 111.846 24.8166 111.895 24.7405C112.135 24.3972 112.333 24.0856 112.495 23.8066C112.576 23.6671 112.647 23.5413 112.71 23.4219C112.733 23.3722 112.762 23.331 112.784 23.2813C112.849 23.1471 112.912 23.0276 112.958 22.9208C113.027 22.7644 113.076 22.6353 113.105 22.5412C113.055 22.5717 112.998 22.6012 112.934 22.6221C112.499 22.8006 111.776 22.9219 111.205 22.9441L112.32 22.9863L111.205 22.9441C111.198 22.9431 111.19 22.942 111.182 22.9483C111.129 22.9481 111.068 22.9468 111.007 22.953C111.015 22.9466 111.03 22.9488 111.039 22.9425L107.226 22.8005C107.229 22.8313 107.22 22.845 107.211 22.8513V22.8513Z" fill="url(#paint14_linear_2200_3606)"/>
<path d="M112.551 15.9007C112.142 16.3631 111.693 16.8952 111.204 17.4896C111.176 17.5234 111.15 17.5498 111.129 17.5847C110.704 18.1052 110.257 18.6755 109.777 19.3091C109.364 19.8541 108.93 20.4339 108.473 21.0708C108.074 21.618 107.67 22.2021 107.238 22.8201L111.051 22.962C112.215 22.6178 112.771 22.2375 113.342 21.6476C113.495 21.4883 113.649 21.3141 113.805 21.1325C114.278 20.5888 114.754 19.9848 115.184 19.3742C115.604 18.7848 115.986 18.1974 116.284 17.6658C116.478 17.3234 116.638 17.0063 116.764 16.7218C116.868 16.4723 116.956 16.2354 117.036 16.0048C115.546 16.0365 113.724 16.0119 112.551 15.9007Z" fill="url(#paint15_linear_2200_3606)"/>
<path d="M108.23 28.4653C108.153 28.4692 108.078 28.4658 107.995 28.4687C108.071 28.4647 108.147 28.4607 108.23 28.4653Z" fill="#BE202E"/>
<path opacity="0.35" d="M108.23 28.4653C108.153 28.4692 108.078 28.4658 107.995 28.4687C108.071 28.4647 108.147 28.4607 108.23 28.4653Z" fill="#BE202E"/>
<path d="M108.23 28.4653C108.153 28.4692 108.078 28.4658 107.995 28.4687C108.071 28.4647 108.147 28.4607 108.23 28.4653Z" fill="url(#paint16_linear_2200_3606)"/>
<path d="M109.104 26.6334C109.127 26.6366 109.15 26.6325 109.18 26.6368C109.157 26.6336 109.134 26.6377 109.104 26.6334Z" fill="#BE202E"/>
<path opacity="0.35" d="M109.104 26.6334C109.127 26.6366 109.15 26.6325 109.18 26.6368C109.157 26.6336 109.134 26.6377 109.104 26.6334Z" fill="#BE202E"/>
<path d="M109.104 26.6334C109.127 26.6366 109.15 26.6325 109.18 26.6368C109.157 26.6336 109.134 26.6377 109.104 26.6334Z" fill="url(#paint17_linear_2200_3606)"/>
</g>
<defs>
<linearGradient id="paint0_linear_2200_3606" x1="89.4668" y1="14.4325" x2="94.095" y2="8.38612" gradientUnits="userSpaceOnUse">
<stop stop-color="#F69923"/>
<stop offset="0.3123" stop-color="#F79A23"/>
<stop offset="0.8383" stop-color="#E97826"/>
</linearGradient>
<linearGradient id="paint1_linear_2200_3606" x1="96.4695" y1="50.3807" x2="89.1432" y2="15.8495" gradientUnits="userSpaceOnUse">
<stop offset="0.3233" stop-color="#9E2064"/>
<stop offset="0.6302" stop-color="#C92037"/>
<stop offset="0.7514" stop-color="#CD2335"/>
<stop offset="1" stop-color="#E97826"/>
</linearGradient>
<linearGradient id="paint2_linear_2200_3606" x1="99.0442" y1="45.4773" x2="94.6782" y2="24.8991" gradientUnits="userSpaceOnUse">
<stop stop-color="#282662"/>
<stop offset="0.0954839" stop-color="#662E8D"/>
<stop offset="0.7882" stop-color="#9F2064"/>
<stop offset="0.9487" stop-color="#CD2032"/>
</linearGradient>
<linearGradient id="paint3_linear_2200_3606" x1="95.7323" y1="48.5093" x2="88.4061" y2="13.9788" gradientUnits="userSpaceOnUse">
<stop offset="0.3233" stop-color="#9E2064"/>
<stop offset="0.6302" stop-color="#C92037"/>
<stop offset="0.7514" stop-color="#CD2335"/>
<stop offset="1" stop-color="#E97826"/>
</linearGradient>
<linearGradient id="paint4_linear_2200_3606" x1="95.6613" y1="45.8918" x2="91.8112" y2="27.7455" gradientUnits="userSpaceOnUse">
<stop stop-color="#282662"/>
<stop offset="0.0954839" stop-color="#662E8D"/>
<stop offset="0.7882" stop-color="#9F2064"/>
<stop offset="0.9487" stop-color="#CD2032"/>
</linearGradient>
<linearGradient id="paint5_linear_2200_3606" x1="99.3085" y1="47.7508" x2="91.9821" y2="13.219" gradientUnits="userSpaceOnUse">
<stop offset="0.3233" stop-color="#9E2064"/>
<stop offset="0.6302" stop-color="#C92037"/>
<stop offset="0.7514" stop-color="#CD2335"/>
<stop offset="1" stop-color="#E97826"/>
</linearGradient>
<linearGradient id="paint6_linear_2200_3606" x1="99.5899" y1="49.9312" x2="92.2632" y2="15.3984" gradientUnits="userSpaceOnUse">
<stop offset="0.3233" stop-color="#9E2064"/>
<stop offset="0.6302" stop-color="#C92037"/>
<stop offset="0.7514" stop-color="#CD2335"/>
<stop offset="1" stop-color="#E97826"/>
</linearGradient>
<linearGradient id="paint7_linear_2200_3606" x1="100.372" y1="47.5135" x2="93.0498" y2="13.001" gradientUnits="userSpaceOnUse">
<stop offset="0.3233" stop-color="#9E2064"/>
<stop offset="0.6302" stop-color="#C92037"/>
<stop offset="0.7514" stop-color="#CD2335"/>
<stop offset="1" stop-color="#E97826"/>
</linearGradient>
<linearGradient id="paint8_linear_2200_3606" x1="100.246" y1="47.5356" x2="92.921" y2="13.0289" gradientUnits="userSpaceOnUse">
<stop offset="0.3233" stop-color="#9E2064"/>
<stop offset="0.6302" stop-color="#C92037"/>
<stop offset="0.7514" stop-color="#CD2335"/>
<stop offset="1" stop-color="#E97826"/>
</linearGradient>
<linearGradient id="paint9_linear_2200_3606" x1="112.521" y1="13.9288" x2="121.176" y2="12.8372" gradientUnits="userSpaceOnUse">
<stop stop-color="#F69923"/>
<stop offset="0.3123" stop-color="#F79A23"/>
<stop offset="0.8383" stop-color="#E97826"/>
</linearGradient>
<linearGradient id="paint10_linear_2200_3606" x1="88.8383" y1="48.5466" x2="111.044" y2="14.764" gradientUnits="userSpaceOnUse">
<stop offset="0.3233" stop-color="#9E2064"/>
<stop offset="0.6302" stop-color="#C92037"/>
<stop offset="0.7514" stop-color="#CD2335"/>
<stop offset="1" stop-color="#E97826"/>
</linearGradient>
<linearGradient id="paint11_linear_2200_3606" x1="94.9134" y1="46.6966" x2="108.147" y2="26.564" gradientUnits="userSpaceOnUse">
<stop stop-color="#282662"/>
<stop offset="0.0954839" stop-color="#662E8D"/>
<stop offset="0.7882" stop-color="#9F2064"/>
<stop offset="0.9487" stop-color="#CD2032"/>
</linearGradient>
<linearGradient id="paint12_linear_2200_3606" x1="89.7744" y1="46.4417" x2="111.98" y2="12.6607" gradientUnits="userSpaceOnUse">
<stop offset="0.3233" stop-color="#9E2064"/>
<stop offset="0.6302" stop-color="#C92037"/>
<stop offset="0.7514" stop-color="#CD2335"/>
<stop offset="1" stop-color="#E97826"/>
</linearGradient>
<linearGradient id="paint13_linear_2200_3606" x1="91.8513" y1="44.2786" x2="103.521" y2="26.5269" gradientUnits="userSpaceOnUse">
<stop stop-color="#282662"/>
<stop offset="0.0954839" stop-color="#662E8D"/>
<stop offset="0.7882" stop-color="#9F2064"/>
<stop offset="0.9487" stop-color="#CD2032"/>
</linearGradient>
<linearGradient id="paint14_linear_2200_3606" x1="93.268" y1="48.7411" x2="115.475" y2="14.9573" gradientUnits="userSpaceOnUse">
<stop offset="0.3233" stop-color="#9E2064"/>
<stop offset="0.6302" stop-color="#C92037"/>
<stop offset="0.7514" stop-color="#CD2335"/>
<stop offset="1" stop-color="#E97826"/>
</linearGradient>
<linearGradient id="paint15_linear_2200_3606" x1="91.7133" y1="50.7249" x2="113.921" y2="16.9397" gradientUnits="userSpaceOnUse">
<stop offset="0.3233" stop-color="#9E2064"/>
<stop offset="0.6302" stop-color="#C92037"/>
<stop offset="0.7514" stop-color="#CD2335"/>
<stop offset="1" stop-color="#E97826"/>
</linearGradient>
<linearGradient id="paint16_linear_2200_3606" x1="94.3226" y1="49.4229" x2="116.533" y2="15.6581" gradientUnits="userSpaceOnUse">
<stop offset="0.3233" stop-color="#9E2064"/>
<stop offset="0.6302" stop-color="#C92037"/>
<stop offset="0.7514" stop-color="#CD2335"/>
<stop offset="1" stop-color="#E97826"/>
</linearGradient>
<linearGradient id="paint17_linear_2200_3606" x1="94.2082" y1="49.3471" x2="116.424" y2="15.5868" gradientUnits="userSpaceOnUse">
<stop offset="0.3233" stop-color="#9E2064"/>
<stop offset="0.6302" stop-color="#C92037"/>
<stop offset="0.7514" stop-color="#CD2335"/>
<stop offset="1" stop-color="#E97826"/>
</linearGradient>
<clipPath id="clip0_2200_3606">
<rect width="190" height="48" fill="white"/>
</clipPath>
</defs>
</svg>
