<svg width="80" height="80" viewBox="0 0 80 80" fill="none" xmlns="http://www.w3.org/2000/svg">
<g clip-path="url(#clip0_2203_3679)">
<path d="M49.1503 0C49.1503 0.141176 49.1503 0.282353 49.1503 0.431373C49.1503 5.49804 45.0431 9.60392 39.9778 9.60392C34.9111 9.60392 30.8052 5.49673 30.8052 0.431373C30.8052 0.282353 30.8052 0.141176 30.8052 0L0 0V80H80V0H49.1503Z" fill="#654FF0"/>
<path d="M18.583 43.1123H23.885L27.5046 62.3894H27.5699L31.9203 43.1123H36.8797L40.8092 62.626H40.8863L45.0118 43.1123H50.2118L43.4549 71.4378H38.1935L34.2967 52.1607H34.1948L30.0235 71.4378H24.6641L18.583 43.1123ZM56.1895 43.1123H64.5477L72.8484 71.4378H67.3791L65.5739 65.1345H56.0523L54.6588 71.4378H49.332L56.1895 43.1123ZM59.3712 50.094L57.0588 60.4862H64.2562L61.6013 50.094H59.3712Z" fill="white"/>
</g>
<defs>
<clipPath id="clip0_2203_3679">
<rect width="80" height="80" fill="white"/>
</clipPath>
</defs>
</svg>
