<svg width="88" height="88" viewBox="0 0 88 88" fill="none" xmlns="http://www.w3.org/2000/svg">
<path d="M22.315 29.3906H6.9037C3.09702 29.3906 0 32.4876 0 36.2943V51.7057C0 55.5124 3.09702 58.6094 6.9037 58.6094H22.315C26.1217 58.6094 29.2188 55.5124 29.2188 51.7057V36.2943C29.2188 32.4876 26.1217 29.3906 22.315 29.3906ZM25.7814 51.7057H25.7812C25.7812 53.6169 24.2263 55.1719 22.315 55.1719H6.9037C4.99245 55.1719 3.4375 53.6169 3.4375 51.7057V36.2943C3.4375 34.3831 4.99245 32.8281 6.9037 32.8281H7.5625V44.1427C7.56422 45.6414 8.03516 47.0662 8.92547 48.2625C9.35344 48.8383 9.86734 49.3419 10.4517 49.7612C11.043 50.1841 11.6944 50.5091 12.3853 50.7272C12.5538 50.7806 12.7291 50.808 12.9027 50.808C13.6574 50.808 14.3156 50.325 14.5423 49.6067C14.68 49.1683 14.6403 48.7025 14.4291 48.2953C14.216 47.888 13.8585 47.5872 13.4202 47.4495C11.9695 46.9906 10.9966 45.6622 11.0002 44.1428V32.8281H22.3152C24.2265 32.8281 25.7814 34.3831 25.7814 36.2943V51.7057Z" fill="#003C4A"/>
<path d="M51.7057 0H36.2943C32.4876 0 29.3906 3.09702 29.3906 6.9037V22.315C29.3906 26.1217 32.4876 29.2188 36.2943 29.2188H51.7057C55.5124 29.2188 58.6094 26.1217 58.6094 22.315V6.9037C58.6094 3.09702 55.5124 0 51.7057 0ZM55.1719 22.315C55.1719 24.2263 53.6169 25.7812 51.7057 25.7812H36.2943C34.3831 25.7812 32.8281 24.2263 32.8281 22.315V6.9037C32.8281 4.99245 34.3831 3.4375 36.2943 3.4375H36.9531V14.752C36.9548 16.2508 37.4258 17.6756 38.3161 18.8719C38.7441 19.4477 39.258 19.9513 39.8423 20.3706C40.4336 20.7934 41.085 21.1185 41.7759 21.3366C41.9444 21.39 42.1197 21.4173 42.2933 21.4173C43.048 21.4173 43.7063 20.9344 43.933 20.2161C44.2183 19.3119 43.7147 18.3442 42.8108 18.0589C41.3602 17.6 40.3872 16.2716 40.3908 14.7522V3.4375H51.7058C53.6169 3.4375 55.1719 4.99245 55.1719 6.9037V22.315Z" fill="#003C4A"/>
<path d="M81.0963 29.5625H65.685C61.8783 29.5625 58.7812 32.6595 58.7812 36.4662V51.8775C58.7812 55.6842 61.8783 58.7812 65.685 58.7812H81.0963C84.903 58.7812 88 55.6842 88 51.8775V36.4662C88 32.6595 84.903 29.5625 81.0963 29.5625ZM84.5627 51.8775H84.5625C84.5625 53.7888 83.0075 55.3438 81.0963 55.3438H65.685C63.7737 55.3438 62.2188 53.7888 62.2188 51.8775V36.4662C62.2188 34.555 63.7737 33 65.685 33H66.3438V44.3145C66.3455 45.8133 66.8164 47.2381 67.7067 48.4344C68.1347 49.0102 68.6486 49.5137 69.233 49.9331C69.8242 50.3559 70.4756 50.681 71.1666 50.8991C71.335 50.9525 71.5103 50.9798 71.6858 50.9798C72.4386 50.9798 73.0969 50.4969 73.3236 49.7767C73.4613 49.3402 73.4216 48.8744 73.2103 48.4672C72.9972 48.0599 72.6397 47.7591 72.2014 47.6214C70.7508 47.1625 69.7778 45.8341 69.7814 44.3147V33H81.0965C83.0077 33 84.5627 34.555 84.5627 36.4662V51.8775Z" fill="#003C4A"/>
<path d="M51.7057 58.7812H36.2943C32.4876 58.7812 29.3906 61.8783 29.3906 65.685V81.0963C29.3906 84.903 32.4876 88 36.2943 88H51.7057C55.5124 88 58.6094 84.903 58.6094 81.0963V65.685C58.6094 61.8783 55.5124 58.7812 51.7057 58.7812ZM55.172 81.0963H55.1719C55.1719 83.0075 53.6169 84.5625 51.7057 84.5625H36.2943C34.3831 84.5625 32.8281 83.0075 32.8281 81.0963V65.685C32.8281 63.7737 34.3831 62.2188 36.2943 62.2188H36.9531V73.5333C36.9548 75.032 37.4258 76.4569 38.3161 77.6531C38.7441 78.2289 39.258 78.7342 39.8423 79.1519C40.4336 79.5747 41.085 79.9332 41.7759 80.1513C41.9444 80.2048 42.1197 80.2656 42.2933 80.2656H42.2952C43.048 80.2656 43.7063 79.7491 43.933 79.029C44.0706 78.5924 44.0309 78.1098 43.8178 77.7026C43.6066 77.2953 43.2489 76.9777 42.8108 76.84C41.3602 76.3811 40.3872 75.0527 40.3908 73.5333V62.2188H51.7058C53.6171 62.2188 55.172 63.7737 55.172 65.685V81.0963Z" fill="#003C4A"/>
<path d="M9.28125 25.6094C10.2303 25.6094 11 24.8397 11 23.8906V18.5561C11 14.8304 14.031 11.8594 17.7566 11.8594H19.7412L18.1801 13.3906C17.5089 14.0618 17.5089 15.1351 18.1801 15.8063C18.5157 16.1418 18.9556 16.3022 19.3954 16.3022C19.8352 16.3022 20.2751 16.1306 20.6107 15.7951L25.106 11.298C25.4282 10.9756 25.6094 10.5377 25.6094 10.0817C25.6094 9.62569 25.4282 9.1881 25.106 8.86583L20.6107 4.37027C19.9394 3.69927 18.8514 3.69927 18.1799 4.37027C17.5087 5.04144 17.5087 6.15983 18.1799 6.831L19.741 8.42188H17.7566C12.1354 8.42188 7.5625 12.9351 7.5625 18.5561V23.8906C7.5625 24.8397 8.33216 25.6094 9.28125 25.6094Z" fill="#003C4A"/>
<path d="M64.1523 11H69.4868C73.2126 11 76.3127 14.0738 76.3127 17.7994V19.784L74.717 18.2229C74.0456 17.5519 72.9403 17.5519 72.269 18.2229C71.5978 18.894 71.589 19.9824 72.2604 20.6537L76.7513 25.1489C77.0737 25.4712 77.5086 25.6523 77.9646 25.6523C78.4206 25.6523 78.8566 25.4712 79.1789 25.1489L83.6734 20.6537C84.3446 19.9825 84.3441 18.8942 83.6729 18.2229C83.0015 17.5519 81.9481 17.5519 81.2768 18.2229L79.7502 19.7838V17.7994C79.7502 12.1782 75.1078 7.5625 69.4868 7.5625H64.1523C63.2033 7.5625 62.4336 8.33216 62.4336 9.28125C62.4336 10.2303 63.2033 11 64.1523 11Z" fill="#003C4A"/>
<path d="M78.7186 62.6907C77.7695 62.6907 76.9998 63.4604 76.9998 64.4095V69.7441C76.9998 73.4697 73.926 76.4844 70.2005 76.4844H68.216L69.7771 74.9315C70.4483 74.2603 70.4483 73.176 69.7771 72.5048C69.1061 71.8341 68.0182 71.8358 67.3463 72.5068L62.8511 77.0029C62.5288 77.3252 62.3477 77.763 62.3477 78.2188C62.3477 78.6746 62.5288 79.112 62.8511 79.4344L67.3463 83.9298C67.682 84.2653 68.1218 84.4333 68.5616 84.4333C69.0015 84.4333 69.4413 84.2655 69.777 83.93C70.4481 83.2588 70.4481 82.1624 69.777 81.4911L68.2158 79.9219H70.2005C75.8214 79.9219 80.4373 75.3651 80.4373 69.7441V64.4095C80.4373 63.4604 79.6677 62.6907 78.7186 62.6907Z" fill="#003C4A"/>
<path d="M23.8053 77.1719H18.4708C14.7453 77.1719 11.6878 74.2265 11.6878 70.5009V68.5163L13.262 70.0774C13.5977 70.4129 14.044 70.5808 14.484 70.5808C14.924 70.5808 15.3669 70.4129 15.7028 70.0774C16.3739 69.4062 16.3757 68.3179 15.7045 67.6466L11.2101 63.1515C10.539 62.4807 9.45134 62.4803 8.77982 63.1515L4.28461 67.6466C3.61344 68.3177 3.61344 69.406 4.28478 70.0774C4.95612 70.7484 6.03103 70.7487 6.70237 70.0774L8.25028 68.5163V70.5009C8.25028 76.1219 12.8498 80.6094 18.4708 80.6094H23.8053C24.7544 80.6094 25.5241 79.8397 25.5241 78.8906C25.5241 77.9415 24.7544 77.1719 23.8053 77.1719Z" fill="#003C4A"/>
<path d="M19.7534 47.6094C18.8047 47.6094 18.0347 48.3811 18.0347 49.3281C18.0347 50.2752 18.8047 51.0469 19.7534 51.0469C20.7004 51.0469 21.4722 50.2752 21.4722 49.3281C21.4722 48.3811 20.7003 47.6094 19.7534 47.6094Z" fill="#003C4A"/>
<path d="M49.144 18.2188C48.1953 18.2188 47.4253 18.9905 47.4253 19.9375C47.4253 20.8845 48.1953 21.6562 49.144 21.6562C50.0911 21.6562 50.8628 20.8845 50.8628 19.9375C50.8628 18.9905 50.0909 18.2188 49.144 18.2188Z" fill="#003C4A"/>
<path d="M78.5347 47.7812C77.5859 47.7812 76.8159 48.553 76.8159 49.5C76.8159 50.447 77.5859 51.2188 78.5347 51.2188C79.4817 51.2188 80.2534 50.447 80.2534 49.5C80.2534 48.553 79.4815 47.7812 78.5347 47.7812Z" fill="#003C4A"/>
<path d="M49.144 77C48.1953 77 47.4253 77.7717 47.4253 78.7188C47.4253 79.6658 48.1953 80.4375 49.144 80.4375C50.0911 80.4375 50.8628 79.6658 50.8628 78.7188C50.8628 77.7717 50.0909 77 49.144 77Z" fill="#003C4A"/>
</svg>
