<svg width="88" height="88" viewBox="0 0 88 88" fill="none" xmlns="http://www.w3.org/2000/svg">
<path d="M10.3125 13.0625H15.4688V18.2188H10.3125V13.0625Z" fill="#003C4A"/>
<path d="M20.625 13.0625H25.7812V18.2188H20.625V13.0625Z" fill="#003C4A"/>
<path d="M30.9375 13.0625H36.0938V18.2188H30.9375V13.0625Z" fill="#003C4A"/>
<path d="M10.3125 33.6875H15.4688V38.8438H10.3125V33.6875Z" fill="#003C4A"/>
<path d="M20.625 33.6875H25.7812V38.8438H20.625V33.6875Z" fill="#003C4A"/>
<path d="M30.9375 33.6875H36.0938V38.8438H30.9375V33.6875Z" fill="#003C4A"/>
<path d="M10.3125 54.3125H15.4688V59.4688H10.3125V54.3125Z" fill="#003C4A"/>
<path d="M20.625 54.3125H25.7812V59.4688H20.625V54.3125Z" fill="#003C4A"/>
<path d="M21.0002 75C21.0002 80.6863 25.4631 85 31.1494 85H72.5002C81.0804 85 87.2119 78.3009 87.2119 69.7812C87.2119 61.27 81.7119 55.5 71.7119 55H71.2119C71.0002 52.5 70.0002 49.5 67.2066 48C67.2066 46.6695 67.415 4.64922 67.415 2.75H0.211914V69.7795H22.2243C21.3438 71.2977 21.0002 73.1223 21.0002 75ZM73.0002 59.4688C78.7814 59.4688 83.0557 64.0949 83.0557 69.7812C83.0557 75.4676 78.3525 80.0938 72.5713 80.0938H31.1494C28.3063 80.0938 25.3752 77.8432 25.3752 75C25.3752 72.1522 28.3063 69.7812 31.1494 69.7812H36.3057V67.2031C36.3057 62.9384 39.7753 59.4688 44.04 59.4688H46.4073L46.8265 57.4037C47.7967 52.6247 52.1185 49.1562 57.1025 49.1562C61.9871 49.1562 66.2365 52.6247 67.2066 57.4037L67.6259 59.4688H73.0002ZM4.21191 7H63.2119V24H4.21191V7ZM4.21191 28H63.2119V45H4.21191V28ZM4.21191 49.1545H46.4073C45.0347 50.6657 43.8979 53.0219 43.2119 55C37.7728 55.7344 32.2966 59.6784 31.2119 65H4.21191V49.1545Z" fill="#003C4A"/>
</svg>
