<svg width="813" height="833" viewBox="0 0 813 833" fill="none" xmlns="http://www.w3.org/2000/svg">
<path d="M811.998 36.9195C802.752 30.0303 785.891 38.7325 775.558 43.8087C765.224 48.885 757.428 57.9497 751.083 67.1957C734.766 91.3079 725.52 119.046 712.648 144.971C699.776 170.896 681.284 196.278 653.909 207.88C611.123 226.01 562.536 205.886 518.663 190.295C507.241 186.125 495.095 182.318 482.948 184.131C467.538 186.488 455.029 198.091 447.777 211.506C440.525 224.922 437.805 239.97 434.723 254.654C424.934 302.154 410.793 350.922 377.797 387.362C344.801 423.984 272.102 457.342 192.151 427.791" stroke="#476272" stroke-width="0.7121" stroke-miterlimit="10"/>
<path d="M806.196 44.3519C796.95 37.4627 783.534 37.8253 773.019 42.9015C762.685 47.9778 754.889 57.0425 748.544 66.2886C732.227 90.4008 722.981 118.139 710.109 144.064C697.237 169.989 678.745 195.37 651.37 206.973C608.584 225.103 559.997 204.979 516.124 189.388C504.702 185.218 492.556 181.411 480.409 183.224C464.999 185.58 452.49 197.183 445.238 210.599C437.986 224.015 435.267 239.062 432.185 253.747C422.395 301.247 408.254 350.015 375.258 386.455C342.262 423.077 269.563 456.435 189.612 426.884" stroke="#476272" stroke-width="0.7121" stroke-miterlimit="10"/>
<path opacity="0.9756" d="M190.881 429.966C235.66 445.558 278.083 440.119 312.529 425.434C337.004 415.1 357.309 400.053 371.088 384.28C383.778 369.776 393.931 353.641 402.089 336.599C405.352 330.073 408.253 323.184 410.973 316.476C417.318 300.34 422.394 284.024 426.745 267.707C428.014 262.994 429.102 258.099 430.371 253.385C432.728 243.414 435.085 233.08 438.711 223.472C440.161 219.483 441.974 215.676 444.149 212.05C447.775 205.886 452.489 200.266 458.109 195.371C464.273 190.113 471.525 186.125 479.321 184.674C482.403 184.131 485.303 183.949 488.385 183.949C497.087 184.131 505.608 186.85 513.767 189.569C521.925 192.289 530.264 195.19 538.604 197.909C559.997 204.798 582.115 210.781 604.051 210.781C618.011 210.781 631.971 208.605 645.568 202.623C654.451 198.815 662.247 193.558 669.499 187.575C684.727 174.703 696.33 158.024 705.576 140.982C714.822 123.759 722.437 105.811 731.683 88.407C735.853 80.43 740.566 72.6343 745.824 65.2012C752.35 55.9552 760.327 47.0718 770.661 41.8142C781.176 36.738 794.592 36.0128 803.838 42.7207" stroke="#476272" stroke-width="0.7063" stroke-miterlimit="10"/>
<path opacity="0.9512" d="M191.244 432.323C234.392 446.283 275.002 439.394 308.36 423.984C332.11 412.925 352.052 397.514 365.649 381.561C378.34 366.876 388.492 350.74 397.013 333.699C400.277 327.172 403.359 320.464 406.259 313.756C412.967 297.802 418.587 282.03 423.301 266.438C424.751 261.906 426.02 257.192 427.289 252.66C430.009 243.051 432.366 233.261 436.354 224.197C437.986 220.39 439.799 216.764 441.974 213.319C445.6 207.518 450.677 201.897 456.297 197.184C462.642 191.926 469.531 187.756 477.146 185.944C480.046 185.218 482.947 185.037 485.848 185.037C494.187 185.037 502.345 187.213 510.141 189.569C517.937 191.926 525.914 194.464 534.072 196.821C554.74 202.804 575.951 207.88 597.344 207.336C611.122 206.974 624.901 204.254 638.498 198.272C647.381 194.283 655.358 189.207 662.61 183.224C678.02 170.533 689.986 154.398 699.594 137.9C709.203 121.221 717.361 103.998 726.97 86.9566C731.502 79.1609 736.216 71.5466 741.655 64.1135C748.362 55.0487 756.521 46.1653 767.036 40.9078C777.551 35.6502 791.148 34.925 800.394 41.089" stroke="#476272" stroke-width="0.7005" stroke-miterlimit="10"/>
<path opacity="0.9268" d="M190.519 434.317C231.854 446.463 270.833 438.487 303.284 421.989C326.309 410.386 345.707 394.613 359.486 378.297C371.995 363.431 382.329 347.114 391.031 330.072C394.476 323.546 397.558 316.838 400.64 310.13C407.892 294.539 413.874 279.31 418.95 264.262C420.401 259.911 421.851 255.379 423.302 251.028C426.202 241.782 428.922 232.536 433.091 223.834C434.723 220.208 436.717 216.763 439.074 213.5C442.881 207.88 447.958 202.622 453.759 197.908C460.104 192.651 466.812 188.3 474.245 186.306C477.146 185.58 479.866 185.218 482.585 185.036C490.562 184.855 498.358 186.668 505.972 188.662C513.405 190.657 521.201 192.832 528.996 194.826C548.757 200.084 569.062 204.072 590.274 202.803C603.69 201.897 617.468 198.996 631.065 192.651C639.949 188.662 647.926 183.405 655.359 177.422C670.95 164.913 683.46 149.321 693.431 133.368C703.583 117.414 711.923 100.553 722.075 84.0553C726.789 76.441 731.684 69.0079 737.304 61.7561C744.193 52.6914 752.351 43.9892 763.048 38.7317C773.744 33.4741 787.16 32.5676 796.587 38.3691" stroke="#476272" stroke-width="0.6947" stroke-miterlimit="10"/>
<path opacity="0.9024" d="M188.887 435.95C228.59 446.465 265.756 437.219 297.301 419.814C319.6 407.486 338.636 391.351 352.233 374.853C364.561 359.806 375.076 343.308 384.141 326.266C387.586 319.74 391.03 313.032 394.112 306.505C401.727 291.095 408.254 276.41 413.692 262.088C415.324 257.918 416.774 253.748 418.406 249.579C421.488 240.876 424.57 231.993 428.74 223.835C430.553 220.39 432.547 217.127 434.904 214.045C438.892 208.787 443.969 203.711 449.951 198.816C456.478 193.559 463.004 188.845 470.075 186.669C472.794 185.763 475.514 185.4 478.052 185.219C485.666 184.675 493.281 186.307 500.351 187.938C507.603 189.57 514.855 191.383 522.288 193.196C541.142 197.547 560.722 200.629 581.39 198.635C594.624 197.366 608.222 193.921 621.819 187.576C630.702 183.406 638.86 178.148 646.475 172.347C662.429 160.019 675.119 144.972 685.634 129.561C696.149 114.151 705.033 98.0162 715.548 82.0623C720.443 74.6292 725.519 67.3774 731.321 60.1256C738.391 51.2422 746.731 42.54 757.427 37.2825C768.124 32.0249 781.539 30.7559 791.148 36.1947" stroke="#476272" stroke-width="0.6889" stroke-miterlimit="10"/>
<path opacity="0.878" d="M186.53 437.398C224.42 446.282 259.954 435.586 290.593 417.456C312.167 404.584 330.84 388.086 344.437 371.045C356.765 355.635 367.281 339.137 376.708 322.276C380.334 315.75 383.778 309.042 387.223 302.696C395.2 287.468 402.089 273.508 408.072 259.73C409.885 255.741 411.516 251.753 413.148 247.764C416.593 239.425 419.856 231.085 424.207 223.289C426.02 220.026 428.014 216.944 430.552 214.043C434.722 209.148 439.98 204.253 445.963 199.358C452.489 194.101 458.834 189.206 465.724 186.849C468.262 185.943 470.981 185.399 473.519 185.036C480.771 184.13 488.023 185.399 494.912 186.849C501.801 188.118 508.69 189.569 515.942 191.019C534.072 194.463 552.564 196.639 572.869 193.92C585.741 192.107 599.338 188.481 612.935 181.954C621.818 177.784 630.158 172.527 637.772 166.725C653.908 154.579 667.142 139.894 677.838 125.209C688.716 110.343 698.143 94.9327 709.021 79.3413C714.097 72.0895 719.355 64.8378 725.338 57.7673C732.589 49.0651 741.11 40.363 751.988 34.9241C762.684 29.4853 776.282 28.2162 785.89 33.2925" stroke="#476272" stroke-width="0.6831" stroke-miterlimit="10"/>
<path opacity="0.8537" d="M183.45 438.669C219.709 445.921 253.43 433.955 282.981 414.738C303.648 401.322 322.141 384.28 335.556 367.057C347.703 351.466 358.4 334.787 368.008 317.926C371.815 311.4 375.26 304.873 378.886 298.528C387.225 283.48 394.658 270.065 401.004 257.193C402.817 253.386 404.63 249.578 406.443 245.771C410.069 237.794 413.513 229.999 418.227 222.747C420.04 219.665 422.215 216.764 424.753 214.045C428.923 209.331 434.362 204.617 440.345 199.904C446.871 194.465 453.217 189.57 459.743 186.85C462.281 185.763 464.638 185.219 467.176 184.856C474.066 183.768 480.955 184.675 487.663 185.581C494.189 186.488 500.897 187.757 507.605 188.663C524.828 191.201 542.595 192.652 562.356 189.026C575.047 186.669 588.644 182.681 602.241 175.973C611.124 171.622 619.464 166.364 627.26 160.563C643.757 148.597 657.173 134.456 668.413 120.497C679.835 106.356 689.444 91.4894 700.865 76.2606C706.123 69.1901 711.562 62.1196 717.726 55.2304C725.34 46.5283 733.861 38.0074 744.739 32.5686C755.616 27.1297 769.032 25.6794 778.822 30.393" stroke="#476272" stroke-width="0.6774" stroke-miterlimit="10"/>
<path opacity="0.8293" d="M179.64 439.756C214.086 445.195 245.994 432.142 274.82 412.018C294.762 398.058 312.892 380.654 326.308 363.069C338.455 347.296 349.151 330.435 359.122 313.575C362.929 307.048 366.737 300.522 370.362 294.358C379.065 279.673 387.042 266.801 393.749 254.473C395.744 250.847 397.557 247.221 399.37 243.777C403.177 236.344 406.984 228.91 411.698 222.021C413.692 219.302 415.867 216.401 418.405 213.863C422.757 209.512 428.377 204.98 434.359 200.085C441.067 194.646 447.05 189.569 453.395 186.669C455.752 185.581 458.109 184.856 460.466 184.312C467.174 182.862 473.7 183.405 479.864 184.131C486.028 184.856 492.374 185.581 498.9 186.125C515.217 187.757 532.077 188.3 551.657 183.949C563.985 181.23 577.582 176.698 591.179 169.99C600.063 165.457 608.584 160.2 616.379 154.58C633.058 142.614 646.837 129.198 658.621 115.783C670.224 101.823 680.376 87.6818 692.161 72.8157C697.599 65.9265 703.22 59.0373 709.565 52.1481C717.361 43.6272 726.063 35.1064 736.94 29.6675C747.818 24.2287 761.234 22.4157 771.024 26.7668" stroke="#476272" stroke-width="0.6716" stroke-miterlimit="10"/>
<path opacity="0.8049" d="M175.109 440.662C207.923 444.469 238.018 430.147 265.938 408.935C285.155 394.432 302.74 376.665 316.156 358.717C328.122 342.763 338.999 325.721 349.152 308.861C353.14 302.334 356.947 295.808 360.755 289.644C369.819 275.14 378.34 262.812 385.411 251.209C387.586 247.765 389.58 244.32 391.393 241.057C395.563 233.986 399.552 227.097 404.447 220.752C406.441 218.213 408.798 215.494 411.336 213.137C415.868 208.967 421.488 204.798 427.652 199.903C434.36 194.464 440.343 189.206 446.144 185.943C448.501 184.674 450.677 183.949 452.852 183.405C459.198 181.773 465.362 181.955 471.344 182.317C477.146 182.68 483.31 183.042 489.293 183.405C504.884 184.13 520.838 183.767 539.874 178.691C552.021 175.428 565.436 170.714 579.033 163.644C587.917 159.111 596.438 153.854 604.415 148.234C621.456 136.45 635.597 123.578 647.744 110.706C659.891 97.6525 670.587 84.0554 682.734 69.7331C688.354 63.0252 694.156 56.3173 700.682 49.6094C708.659 41.2698 717.543 32.749 728.42 27.3101C739.479 21.8713 752.895 19.8771 762.685 23.8655" stroke="#476272" stroke-width="0.6658" stroke-miterlimit="10"/>
<path opacity="0.7805" d="M170.032 441.75C201.033 443.926 229.497 428.334 256.328 406.216C274.82 390.987 292.043 372.858 305.459 354.547C317.425 338.231 328.302 321.37 338.817 304.51C342.806 297.983 346.794 291.457 350.783 285.474C360.21 271.152 369.094 259.549 376.708 248.49C378.883 245.227 381.059 241.963 383.053 238.881C387.404 232.173 391.574 225.828 396.65 219.845C398.826 217.488 401.001 214.95 403.902 212.775C408.435 208.968 414.417 204.979 420.581 200.084C427.47 194.645 433.091 189.025 438.711 185.762C440.886 184.493 443.062 183.586 445.056 182.861C451.039 180.867 456.84 180.867 462.46 180.686C468.08 180.686 473.701 180.686 479.502 180.686C494.187 180.686 509.416 179.235 527.908 173.434C539.692 169.808 553.108 164.55 566.705 157.48C575.588 152.766 584.29 147.509 592.449 142.07C609.672 130.467 624.175 118.139 636.685 105.811C649.194 93.4828 660.253 80.4296 672.944 66.4699C678.745 59.9433 684.909 53.4167 691.436 46.7088C699.594 38.3692 708.659 30.0297 719.718 24.5908C730.777 18.9707 744.192 16.9764 754.164 20.6023" stroke="#476272" stroke-width="0.66" stroke-miterlimit="10"/>
<path opacity="0.7561" d="M164.232 442.656C193.602 443.2 220.071 426.34 246.177 403.316C263.944 387.543 280.805 369.051 294.039 350.377C305.823 333.88 316.882 316.838 327.76 299.978C331.93 293.451 336.1 287.106 340.269 281.123C350.059 266.982 359.487 256.104 367.464 245.589C369.82 242.507 371.996 239.606 374.171 236.524C378.704 230.36 383.236 224.378 388.494 218.757C390.669 216.582 393.026 214.225 395.927 212.05C400.64 208.424 406.623 204.798 412.969 199.722C419.858 194.283 425.297 188.481 430.735 184.855C432.73 183.405 434.905 182.499 436.899 181.773C442.52 179.598 448.14 179.054 453.397 178.691C458.655 178.329 463.912 177.966 469.533 177.604C483.311 176.697 497.633 174.34 515.944 167.814C527.547 163.644 540.781 158.205 554.378 150.953C563.262 146.24 571.964 140.801 580.304 135.362C597.889 123.94 612.755 112.156 625.627 100.372C638.68 88.5879 650.102 76.2598 663.155 62.6627C669.138 56.4987 675.483 49.9721 682.01 43.2642C690.349 35.1059 699.596 26.7664 710.654 21.1462C721.713 15.5261 735.129 13.1693 745.282 16.4326" stroke="#476272" stroke-width="0.6542" stroke-miterlimit="10"/>
<path opacity="0.7317" d="M158.247 443.745C185.804 442.657 210.641 424.528 235.841 400.416C252.701 384.099 269.38 365.244 282.615 346.208C294.218 329.529 305.458 312.306 316.517 295.446C320.687 288.919 325.038 282.574 329.389 276.773C339.723 262.994 349.513 252.479 357.852 242.689C360.39 239.788 362.747 237.069 364.923 234.35C369.818 228.548 374.531 223.109 379.97 218.033C382.146 216.039 384.684 213.863 387.585 211.869C392.479 208.606 398.643 204.98 404.989 200.085C412.059 194.646 417.317 188.663 422.393 184.856C424.387 183.406 426.382 182.318 428.195 181.412C433.452 178.873 438.71 178.148 443.605 177.423C448.5 176.698 453.576 176.154 458.652 175.247C471.705 173.435 485.121 170.171 502.888 162.919C514.128 158.387 527.363 152.404 541.141 144.971C550.025 140.076 558.908 134.819 567.248 129.38C585.015 118.14 600.243 106.899 613.659 95.6591C627.075 84.4188 639.04 72.816 652.456 59.5815C658.62 53.5987 665.147 47.0721 671.855 40.7268C680.375 32.7499 689.622 24.4103 700.862 18.7902C712.102 13.17 725.518 10.6319 735.67 13.5326" stroke="#476272" stroke-width="0.6484" stroke-miterlimit="10"/>
<path opacity="0.7073" d="M151.541 445.014C177.467 442.113 200.491 422.896 224.603 397.877C240.738 381.017 256.874 361.618 270.108 342.401C281.711 325.541 292.951 308.137 304.373 291.457C308.724 284.931 313.075 278.585 317.607 272.784C328.304 259.187 338.638 249.397 347.34 240.151C349.878 237.432 352.416 234.893 354.773 232.355C359.849 227.098 364.744 222.021 370.364 217.308C372.721 215.495 375.259 213.501 378.16 211.688C383.236 208.606 389.4 205.342 395.745 200.447C402.816 195.009 407.892 188.845 412.787 184.675C414.6 183.043 416.413 181.955 418.226 181.049C423.302 178.329 428.016 177.06 432.73 175.973C437.262 174.885 441.976 173.978 446.871 172.891C459.017 170.171 471.527 166.183 488.931 158.024C499.99 152.948 513.043 146.784 526.821 139.17C535.886 134.275 544.588 128.836 553.109 123.578C571.057 112.519 586.649 101.823 600.427 91.1267C614.206 80.6116 626.715 69.5526 640.493 56.6807C646.839 50.8793 653.546 44.5339 660.436 38.1886C669.138 30.393 678.565 22.0534 689.805 16.4333C701.046 10.6318 714.462 8.0937 724.614 10.4505" stroke="#476272" stroke-width="0.6426" stroke-miterlimit="10"/>
<path opacity="0.6829" d="M144.651 446.645C168.763 442.113 189.975 421.808 213.362 395.702C228.772 378.479 244.544 358.536 257.779 338.775C269.2 321.733 280.622 304.148 292.225 287.469C296.757 280.942 301.29 274.597 305.822 268.976C316.881 255.561 327.577 246.315 336.823 237.794C339.543 235.256 342.081 232.899 344.619 230.542C350.058 225.647 355.134 221.115 360.936 216.945C363.292 215.313 365.831 213.5 368.913 211.869C374.17 209.149 380.515 206.067 386.861 200.991C393.931 195.552 399.007 189.207 403.54 184.856C405.353 183.224 406.984 181.955 408.616 180.867C413.33 177.785 417.862 176.335 422.032 174.885C426.383 173.434 430.734 172.165 435.085 170.715C446.507 167.089 458.109 162.194 475.151 153.31C485.848 147.69 498.901 141.164 512.679 133.368C521.744 128.292 530.627 122.853 539.148 117.777C557.459 106.718 573.413 96.7465 587.554 86.7753C601.695 76.8041 614.567 66.289 628.889 54.1423C635.416 48.5221 642.305 42.3581 649.375 36.1941C658.259 28.3984 667.868 20.2402 679.289 14.62C690.711 8.81858 703.945 5.91787 714.279 8.09341" stroke="#476272" stroke-width="0.6368" stroke-miterlimit="10"/>
<path opacity="0.6585" d="M137.398 448.64C159.879 442.476 179.277 420.902 201.758 393.708C216.443 375.941 231.853 355.454 244.906 335.512C256.327 318.108 267.749 300.522 279.714 283.843C284.247 277.316 288.96 271.152 293.674 265.532C305.096 252.298 316.336 243.777 325.945 235.8C328.845 233.443 331.565 231.267 334.103 229.092C339.723 224.56 344.981 220.39 351.145 216.764C353.501 215.314 356.221 213.863 359.484 212.232C364.742 209.693 371.268 206.974 377.795 201.898C385.047 196.459 389.76 189.751 394.111 185.219C395.743 183.406 397.375 182.137 398.825 181.049C403.176 177.786 407.346 175.973 411.334 174.16C415.323 172.347 419.311 170.715 423.481 168.902C433.996 164.37 444.693 158.568 461.372 148.96C471.887 142.977 484.759 136.088 498.537 128.111C507.602 123.035 516.485 117.596 525.369 112.338C543.861 101.46 560.177 92.0331 574.862 82.6058C589.366 73.1785 602.782 63.3885 617.466 51.6044C624.356 46.1655 631.245 40.1828 638.497 34.0188C647.561 26.4044 657.351 18.2462 668.773 12.4447C680.376 7.00589 693.61 3.92387 703.944 5.73682" stroke="#476272" stroke-width="0.631" stroke-miterlimit="10"/>
<path opacity="0.6341" d="M129.968 450.996C150.635 443.2 168.402 420.357 189.795 392.257C203.755 373.946 218.802 353.097 231.855 332.792C243.096 315.206 254.699 297.621 267.027 280.76C271.74 274.415 276.454 268.07 281.53 262.631C293.314 249.759 305.098 241.601 315.07 234.53C317.97 232.355 320.871 230.36 323.591 228.547C329.392 224.559 335.012 220.752 341.176 217.67C343.714 216.401 346.434 215.132 349.697 213.681C355.136 211.506 361.662 208.786 368.37 203.891C375.622 198.271 380.154 191.563 384.324 186.85C385.956 185.037 387.406 183.586 388.675 182.317C392.664 178.691 396.471 176.516 400.097 174.522C403.723 172.346 407.349 170.352 411.156 168.358C420.764 163.1 430.736 156.211 446.871 146.058C457.023 139.532 469.895 132.28 483.674 124.122C492.738 118.864 501.803 113.425 510.687 108.349C529.541 97.6526 546.22 88.7692 561.268 79.8857C576.315 71.0023 590.094 61.9375 605.141 50.516C612.212 45.2584 619.282 39.457 626.715 33.293C635.961 25.8599 645.933 17.7016 657.354 11.9002C668.957 6.09875 682.191 2.65415 692.707 4.10451" stroke="#476272" stroke-width="0.6252" stroke-miterlimit="10"/>
<path opacity="0.6098" d="M122.353 453.897C141.389 444.47 157.343 420.539 177.829 391.169C191.064 372.314 205.749 351.103 218.621 330.435C229.861 312.668 241.464 294.902 253.973 278.222C258.687 271.877 263.582 265.532 268.839 260.274C280.986 247.584 293.133 240.151 303.648 233.624C306.73 231.63 309.631 229.817 312.531 228.185C318.695 224.559 324.497 221.296 330.842 218.576C333.38 217.489 336.281 216.401 339.544 215.132C345.164 213.138 351.872 210.781 358.58 205.705C366.013 200.084 370.364 193.195 374.171 188.119C375.622 186.306 377.072 184.674 378.341 183.405C381.967 179.598 385.593 177.06 388.856 174.522C392.12 172.165 395.564 169.627 399.009 167.27C407.892 161.106 416.776 153.31 432.73 142.433C442.701 135.543 455.392 127.929 469.17 119.59C478.235 114.151 487.299 108.712 496.364 103.817C515.4 93.3018 532.442 84.781 547.852 76.6227C563.262 68.4644 577.403 59.9436 592.994 48.8846C600.246 43.8084 607.498 38.1882 615.112 32.2055C624.54 24.7724 634.692 16.9767 646.295 10.994C657.898 5.0113 671.132 1.5667 681.829 2.65447" stroke="#476272" stroke-width="0.6195" stroke-miterlimit="10"/>
<path opacity="0.5854" d="M114.555 457.161C131.778 445.92 146.1 420.902 165.68 390.626C178.19 371.227 192.331 349.472 205.384 328.623C216.443 310.675 228.227 292.726 241.099 276.047C245.994 269.702 251.07 263.357 256.328 258.099C268.837 245.59 281.528 238.701 292.405 232.899C295.487 231.267 298.751 229.636 301.651 228.004C307.997 224.741 313.979 222.021 320.506 219.665C323.044 218.758 326.126 217.852 329.389 216.764C335.191 215.132 341.899 212.957 348.788 207.88C356.221 202.26 360.391 195.19 364.017 189.932C365.286 187.938 366.736 186.306 367.824 184.856C371.268 180.686 374.35 177.786 377.251 175.066C380.152 172.347 383.234 169.627 386.497 166.727C394.474 159.656 402.632 151.135 418.042 139.351C427.651 131.918 440.342 123.941 454.301 115.601C463.366 110.163 472.612 104.724 481.677 99.8288C501.076 89.495 518.298 81.518 534.252 73.9036C550.025 66.2893 564.71 58.4936 580.664 47.7972C588.097 42.9022 595.53 37.2821 603.326 31.4807C612.934 24.2289 623.268 16.4332 634.871 10.4505C646.474 4.46776 659.89 0.841867 670.405 1.38575" stroke="#476272" stroke-width="0.6137" stroke-miterlimit="10"/>
<path opacity="0.561" d="M106.761 461.149C122.352 448.277 134.862 422.17 153.354 390.806C165.138 371.045 178.916 348.746 191.788 327.353C202.847 309.224 214.631 291.094 227.684 274.415C232.761 268.07 237.837 261.906 243.276 256.648C256.329 244.32 269.382 238.156 280.622 232.899C283.886 231.448 287.149 229.998 290.231 228.729C296.758 226.01 303.103 223.653 309.811 221.84C312.53 221.115 315.431 220.389 318.876 219.483C324.677 218.033 331.748 216.22 338.456 211.143C346.07 205.523 350.058 198.271 353.322 192.651C354.591 190.657 355.679 188.844 356.766 187.394C359.848 183.043 362.568 179.779 365.287 176.697C368.007 173.615 370.726 170.533 373.445 167.27C380.516 159.293 387.949 149.866 402.815 137.356C412.243 129.561 424.752 121.221 438.712 112.519C447.776 106.899 457.022 101.46 466.268 96.5652C485.848 86.4126 503.615 78.9796 519.932 71.9091C536.611 64.8386 551.658 57.5868 567.975 47.4343C575.589 42.7206 583.203 37.2818 591.18 31.6616C600.97 24.5911 611.485 16.7955 623.088 10.6315C634.872 4.64873 648.107 0.660246 658.803 1.02284" stroke="#476272" stroke-width="0.6079" stroke-miterlimit="10"/>
<path opacity="0.5366" d="M98.7839 465.681C112.562 451.178 123.44 423.802 141.026 391.35C152.084 371.045 165.5 348.384 178.372 326.628C189.25 308.136 201.215 290.007 214.631 273.328C219.707 266.982 224.965 260.818 230.766 255.742C244.182 243.777 257.779 237.975 269.382 233.443C272.827 232.174 276.09 230.905 279.353 229.817C286.243 227.46 292.588 225.647 299.658 224.197C302.378 223.653 305.46 223.109 308.904 222.384C314.887 221.296 321.958 219.483 328.847 214.407C336.461 208.787 340.268 201.354 343.35 195.552C344.438 193.377 345.526 191.564 346.432 189.932C349.152 185.218 351.69 181.592 353.866 178.148C356.222 174.703 358.579 171.259 361.117 167.814C367.463 158.931 373.808 148.597 388.493 135.362C397.558 127.023 410.067 118.321 424.027 109.618C433.091 103.998 442.519 98.3782 451.946 93.6645C471.707 83.6933 489.837 76.8041 506.697 70.2775C523.376 63.7509 538.967 57.2243 555.647 47.4344C563.442 42.902 571.238 37.6445 579.396 32.0243C589.367 24.9539 599.882 17.3395 611.667 11.1755C623.451 5.01143 636.867 1.02295 647.563 1.02295" stroke="#476272" stroke-width="0.6021" stroke-miterlimit="10"/>
<path opacity="0.5122" d="M90.9879 470.939C103.135 454.804 112.199 426.341 128.878 392.801C139.212 371.952 152.265 348.746 164.956 326.81C175.834 308.136 187.799 289.826 201.578 273.328C206.835 266.982 212.274 260.818 218.075 255.923C231.854 244.139 245.814 239.063 257.96 235.075C261.405 233.987 264.85 232.899 268.294 231.993C275.365 229.998 282.073 228.729 289.143 227.823C291.862 227.46 295.126 227.098 298.752 226.554C304.916 225.647 312.167 224.197 319.057 219.121C326.671 213.5 330.478 205.886 333.198 199.722C334.285 197.547 335.192 195.552 335.917 193.921C338.274 188.844 340.449 185.037 342.444 181.23C344.438 177.423 346.613 173.616 348.608 169.808C354.047 160.2 359.667 148.778 373.808 134.819C382.691 126.116 395.019 116.87 408.979 107.987C418.044 102.186 427.471 96.7467 437.079 92.033C457.203 82.0618 475.514 75.8978 492.737 69.9151C509.779 64.1136 525.733 58.1309 542.956 48.7036C550.933 44.3525 558.91 39.2763 567.249 33.6561C577.402 26.7669 588.098 19.1525 600.063 12.9885C612.029 6.8245 625.263 2.65472 636.141 2.11084" stroke="#476272" stroke-width="0.5963" stroke-miterlimit="10"/>
<path opacity="0.4878" d="M83.1905 476.921C93.5243 459.154 100.957 429.603 116.73 394.976C126.339 373.764 139.029 350.015 151.72 327.716C162.416 308.861 174.563 290.369 188.523 273.871C193.78 267.526 199.401 261.543 205.383 256.648C219.524 245.045 234.028 240.513 246.537 237.249C250.163 236.343 253.789 235.437 257.233 234.711C264.485 233.261 271.556 232.355 278.808 231.811C281.708 231.629 284.972 231.448 288.598 231.085C294.943 230.542 302.195 229.273 309.265 224.196C317.061 218.576 320.505 210.599 323.044 204.435C323.95 202.078 324.856 200.084 325.582 198.271C327.576 193.014 329.389 188.844 331.202 184.674C332.833 180.504 334.646 176.334 336.459 172.165C340.992 161.65 345.705 149.503 359.484 134.637C368.005 125.391 380.333 115.963 394.292 106.899C403.357 101.097 412.966 95.477 422.574 90.7634C442.879 80.9735 461.734 75.3533 479.32 70.0958C496.724 64.8382 513.222 59.5807 530.807 50.5159C538.966 46.3462 547.124 41.4512 555.645 36.0124C565.979 29.3045 576.856 21.6901 588.822 15.5261C600.787 9.36204 614.022 4.82967 625.081 4.10449" stroke="#476272" stroke-width="0.5905" stroke-miterlimit="10"/>
<path opacity="0.4634" d="M75.577 483.629C84.2791 464.049 89.8993 433.411 104.584 397.696C113.468 375.94 125.614 351.828 138.305 328.985C149.001 309.949 161.148 291.457 175.47 274.778C180.909 268.432 186.529 262.45 192.693 257.555C207.197 246.133 222.244 242.326 235.116 239.607C238.924 238.881 242.549 238.156 246.175 237.794C253.79 236.706 260.86 236.343 268.474 236.343C271.375 236.343 274.82 236.343 278.446 236.162C284.972 235.981 292.405 234.893 299.476 229.635C307.272 224.015 310.716 215.857 312.892 209.33C313.798 206.974 314.523 204.798 315.067 202.985C316.699 197.365 318.331 192.833 319.6 188.3C321.05 183.768 322.319 179.235 323.769 174.884C327.577 163.463 331.384 150.41 344.8 134.818C353.139 125.21 365.286 115.238 379.246 106.174C388.31 100.191 398.1 94.5708 407.709 90.0384C428.376 80.4298 447.412 75.3536 465.542 70.6399C483.309 65.9262 500.35 61.3939 518.299 52.873C526.638 48.8845 535.159 44.1709 543.68 38.732C554.376 32.0241 565.254 24.591 577.219 18.2457C589.185 11.9004 602.601 7.36804 613.66 6.28027" stroke="#476272" stroke-width="0.5847" stroke-miterlimit="10"/>
<path opacity="0.439" d="M68.1441 491.243C75.0333 470.032 79.2032 438.305 92.8003 401.502C101.14 379.203 112.743 354.547 125.433 331.523C135.948 312.305 148.276 293.632 162.78 277.134C168.219 270.789 174.202 264.806 180.366 260.092C195.232 249.034 210.823 245.589 224.058 243.776C227.865 243.232 231.672 242.869 235.479 242.507C243.275 241.963 250.708 241.782 258.322 242.326C261.404 242.507 264.849 242.688 268.475 242.688C275.183 242.688 282.616 241.782 289.868 236.705C297.845 231.085 300.927 222.746 302.921 216.038C303.646 213.5 304.19 211.324 304.734 209.33C306.184 203.529 307.272 198.634 308.36 193.739C309.447 188.844 310.535 184.13 311.623 179.235C314.524 166.907 317.424 152.947 330.478 136.631C338.455 126.478 350.601 116.326 364.742 106.898C373.807 100.734 383.597 95.2956 393.568 90.7632C414.417 81.3359 433.997 76.8035 452.308 72.6337C470.437 68.464 488.023 64.4755 506.334 56.4985C514.854 52.6913 523.557 47.9777 532.259 42.9014C543.136 36.3748 554.195 28.9417 566.161 22.5964C578.308 16.2511 591.542 11.5374 602.601 9.90576" stroke="#476272" stroke-width="0.5789" stroke-miterlimit="10"/>
<path opacity="0.4146" d="M61.0729 499.583C66.3304 476.74 68.6872 443.926 81.3778 405.854C88.9922 383.192 100.233 357.992 112.742 334.605C123.257 315.206 135.585 296.352 150.451 279.854C156.071 273.509 162.054 267.526 168.581 262.993C183.809 252.116 199.763 249.396 213.542 248.127C217.53 247.765 221.519 247.583 225.326 247.402C233.303 247.221 241.098 247.583 248.894 248.671C251.976 249.034 255.421 249.396 259.228 249.578C265.936 249.94 273.731 249.215 280.802 244.139C288.779 238.337 291.861 229.998 293.493 222.927C294.037 220.389 294.58 218.032 294.943 215.857C296.031 209.693 296.756 204.435 297.481 199.359C298.206 194.101 298.931 189.025 299.838 183.768C302.013 170.533 304.008 155.848 316.517 138.625C324.313 128.11 336.278 117.414 350.419 107.986C359.665 101.822 369.455 96.2023 379.426 91.8513C400.638 82.6052 420.399 78.6168 439.254 74.9909C457.927 71.5463 475.694 68.1017 494.549 60.4873C503.251 56.8614 512.134 52.329 520.836 47.2528C531.895 40.9074 543.136 33.4744 555.282 27.129C567.429 20.7837 580.664 15.7075 591.904 13.8945" stroke="#476272" stroke-width="0.5731" stroke-miterlimit="10"/>
<path opacity="0.3902" d="M54.3665 509.011C57.8111 484.536 58.5363 450.452 70.1391 411.474C77.0283 388.268 87.9059 362.706 100.415 338.956C110.749 319.195 123.258 300.34 138.487 283.843C144.289 277.497 150.271 271.696 156.979 267.163C172.571 256.467 189.068 254.292 203.209 253.748C207.379 253.566 211.368 253.566 215.356 253.566C223.696 253.748 231.491 254.654 239.468 256.104C242.55 256.648 246.176 257.192 249.983 257.555C256.873 258.099 264.668 257.736 271.92 252.479C280.078 246.677 282.798 238.156 284.248 230.905C284.792 228.185 285.155 225.828 285.336 223.653C286.061 217.126 286.605 211.687 286.968 206.248C287.33 200.628 287.874 195.189 288.237 189.569C289.506 175.428 290.775 159.837 302.74 141.889C310.173 130.83 322.139 119.952 336.28 110.162C345.526 103.817 355.316 98.1968 365.468 93.8457C386.861 84.781 406.985 81.1551 426.383 78.2544C445.419 75.3537 463.73 72.6342 482.947 65.3824C492.012 61.9378 500.895 57.5868 509.779 52.5105C521.019 46.1652 532.441 38.9134 544.587 32.5681C556.915 26.2228 570.15 20.9652 581.39 18.6084" stroke="#476272" stroke-width="0.5674" stroke-miterlimit="10"/>
<path opacity="0.3659" d="M47.8399 519.526C49.4716 493.238 48.7465 458.248 59.2616 418.182C65.4256 394.433 75.9406 368.326 88.45 344.214C98.7838 324.271 111.293 305.236 126.703 288.738C132.505 282.392 138.85 276.591 145.558 272.059C161.693 261.544 178.553 260.093 193.057 260.093C197.227 260.093 201.397 260.274 205.566 260.637C214.087 261.362 222.245 262.631 230.404 264.444C233.667 265.169 237.293 265.895 241.281 266.438C248.352 267.345 256.329 267.164 263.581 261.906C271.739 256.105 274.277 247.403 275.546 239.788C275.909 237.069 276.271 234.531 276.453 232.174C276.815 225.466 276.997 219.483 276.997 213.682C276.997 207.699 277.178 201.898 277.359 196.096C277.722 181.23 278.084 164.551 289.868 145.877C297.12 134.456 308.904 123.034 323.045 113.244C332.291 106.899 342.263 101.279 352.415 96.9279C374.17 87.8632 394.657 84.9624 414.418 82.6056C433.816 80.2488 452.671 78.2545 472.251 71.3653C481.497 68.102 490.562 63.9323 499.626 59.0373C511.048 52.8733 522.651 45.6215 534.798 39.0949C547.126 32.5683 560.36 27.3107 571.782 24.5913" stroke="#476272" stroke-width="0.5616" stroke-miterlimit="10"/>
<path opacity="0.3415" d="M42.0382 530.948C42.0382 503.029 39.5 466.951 49.1087 425.616C54.7288 401.504 64.7 374.853 77.0281 350.378C87.1806 330.255 99.8712 311.037 115.644 294.721C121.627 288.376 127.972 282.574 134.861 278.223C151.359 268.071 168.763 266.983 183.629 267.708C187.98 267.889 192.331 268.252 196.501 268.796C205.203 269.884 213.543 271.697 222.064 274.053C225.327 274.96 229.134 275.866 233.123 276.591C240.375 277.861 248.352 277.679 255.785 272.603C263.943 266.802 266.481 257.918 267.388 250.122C267.75 247.222 267.931 244.684 267.931 242.327C267.931 235.256 267.75 229.092 267.569 222.928C267.387 216.764 267.025 210.419 266.844 204.255C266.481 188.482 265.937 170.897 277.177 151.498C284.067 139.533 295.851 127.93 309.992 117.777C319.238 111.251 329.209 105.631 339.543 101.461C361.479 92.5773 382.328 90.2205 402.452 88.4076C422.213 86.5946 441.612 85.3256 461.554 78.7989C470.981 75.7169 480.228 71.7284 489.474 66.8335C501.076 60.8508 512.679 53.599 525.189 47.0724C537.517 40.5458 550.751 34.9256 562.354 32.0249" stroke="#476272" stroke-width="0.5558" stroke-miterlimit="10"/>
<path opacity="0.3171" d="M37.6889 543.456C35.8759 513.905 31.8875 476.559 40.227 434.317C45.122 409.661 54.7306 382.648 67.0586 357.811C77.2111 337.506 89.9017 318.107 105.856 301.791C111.838 295.445 118.365 289.644 125.436 285.474C142.296 275.503 160.063 275.14 175.473 276.409C180.005 276.772 184.356 277.316 188.707 278.041C197.772 279.491 206.293 281.848 214.814 284.568C218.077 285.655 221.884 286.743 226.054 287.65C233.306 289.1 241.464 289.281 249.078 284.024C257.418 278.222 259.594 268.976 260.319 260.999C260.5 258.099 260.5 255.379 260.5 252.841C260.138 245.589 259.594 239.063 259.05 232.536C258.506 226.009 257.962 219.483 257.418 212.775C256.149 196.096 254.88 177.785 265.576 157.661C272.284 145.333 283.887 133.186 298.028 123.034C307.274 116.507 317.427 110.706 327.942 106.717C350.06 98.0153 371.271 96.2023 391.939 94.9333C412.063 93.8455 431.824 92.939 452.31 86.9563C461.919 84.0556 471.346 80.2484 480.773 75.3534C492.557 69.3707 504.341 62.3002 516.851 55.7736C529.36 49.247 542.595 43.4456 554.016 40.001" stroke="#476272" stroke-width="0.55" stroke-miterlimit="10"/>
<path opacity="0.2927" d="M34.2446 557.235C30.8 526.053 25.1798 487.618 32.4316 444.107C36.6014 418.907 45.6662 391.351 57.9943 366.332C67.9655 345.846 81.0186 326.447 97.1539 309.949C103.318 303.785 109.845 297.984 117.278 293.814C134.501 284.024 152.811 284.205 168.584 286.2C173.116 286.744 177.649 287.469 182.181 288.557C191.427 290.551 200.311 293.27 209.013 296.533C212.457 297.803 216.265 299.072 220.434 300.159C227.867 301.972 236.207 302.335 243.821 297.077C252.161 291.276 254.336 281.849 254.699 273.69C254.88 270.608 254.699 267.889 254.518 265.351C253.792 257.736 253.067 250.847 252.161 243.958C251.254 237.069 250.348 230.18 249.441 223.109C247.266 205.524 245.09 186.306 255.605 165.457C261.951 152.585 273.554 140.257 287.876 129.924C297.122 123.216 307.274 117.596 317.971 113.426C340.451 104.905 362.025 103.636 383.056 103.092C403.723 102.548 423.847 102.367 444.696 96.7467C454.486 94.2086 464.094 90.2201 473.703 85.6877C485.668 79.8863 497.634 72.8158 510.143 66.2892C522.653 59.5813 535.887 53.7798 547.49 49.9727" stroke="#476272" stroke-width="0.5442" stroke-miterlimit="10"/>
<path opacity="0.2683" d="M31.5247 572.283C26.2672 539.469 19.0155 499.765 25.3608 455.348C28.9867 429.785 37.5075 401.685 49.8356 376.122C59.8068 355.273 72.86 335.875 89.3578 319.377C95.5218 313.213 102.411 307.412 109.844 303.423C127.43 293.814 146.284 294.721 162.42 297.259C167.133 297.984 171.847 299.072 176.198 300.16C185.807 302.517 194.69 305.599 203.573 309.406C207.018 310.856 211.007 312.488 215.176 313.576C222.791 315.751 231.13 316.295 238.745 311.037C247.266 305.236 249.078 295.627 249.26 287.107C249.26 284.025 249.078 281.124 248.716 278.404C247.628 270.609 246.54 263.357 245.271 256.105C244.002 248.853 242.914 241.602 241.645 234.35C238.745 215.858 235.663 195.734 245.634 174.16C251.798 160.925 263.219 148.053 277.542 137.538C286.788 130.83 297.122 125.029 307.818 121.041C330.48 112.701 352.416 111.976 373.809 111.976C394.839 111.976 415.507 112.52 436.718 107.443C446.69 105.087 456.48 101.279 466.27 96.7471C478.416 91.1269 490.563 84.0565 503.072 77.5298C515.763 70.8219 528.816 64.6579 540.6 60.6694" stroke="#476272" stroke-width="0.5384" stroke-miterlimit="10"/>
<path opacity="0.2439" d="M29.7111 588.418C22.8219 553.79 13.9385 513.18 19.0148 467.675C21.9155 441.569 30.0738 413.106 42.2205 387.18C52.0104 366.15 65.245 346.57 81.9241 330.254C88.2694 324.09 95.1586 318.288 102.773 314.3C120.721 305.054 140.12 306.323 156.617 309.768C161.512 310.674 166.226 311.943 170.759 313.212C180.548 315.932 189.794 319.558 198.859 323.909C202.304 325.54 206.474 327.353 210.643 328.622C218.439 330.979 226.96 331.886 234.574 326.447C243.095 320.645 244.908 310.855 244.727 302.153C244.727 298.89 244.364 295.989 243.82 293.27C242.551 285.112 240.92 277.497 239.469 270.064C237.838 262.45 236.387 254.835 234.937 247.221C231.13 227.822 227.141 206.792 236.75 184.493C242.551 170.715 253.973 157.48 268.295 146.965C277.541 140.076 287.875 134.274 298.753 130.467C321.777 122.309 344.076 121.946 365.832 122.671C387.224 123.215 408.436 124.484 430.01 119.771C440.163 117.595 450.134 113.969 460.105 109.618C472.433 104.179 484.761 97.1089 497.452 90.401C510.142 83.6931 523.377 77.3478 535.161 72.8154" stroke="#476272" stroke-width="0.5326" stroke-miterlimit="10"/>
<path opacity="0.2195" d="M28.6252 606.004C19.923 569.745 9.58926 527.866 13.5777 481.273C15.9346 454.623 23.549 425.616 35.6957 399.509C45.4856 378.298 58.7201 358.537 75.7618 342.22C82.2884 336.056 89.1777 330.255 96.9733 326.448C115.284 317.383 135.045 319.377 152.087 323.366C156.982 324.453 161.877 325.904 166.59 327.354C176.562 330.617 186.17 334.606 195.416 339.319C199.042 341.132 203.212 343.127 207.563 344.577C215.54 347.296 224.061 348.203 231.857 342.945C240.559 337.144 242.009 327.173 241.647 318.108C241.465 314.845 241.103 311.763 240.559 308.862C238.927 300.341 237.114 292.545 235.12 284.568C233.307 276.591 231.313 268.615 229.5 260.638C224.786 240.514 220.072 218.577 229.318 195.371C234.939 181.23 246.179 167.633 260.501 156.756C269.747 149.685 280.262 144.065 291.14 140.258C314.346 132.281 337.008 132.462 359.307 133.731C381.062 135 402.636 136.813 424.754 132.462C435.088 130.468 445.241 127.023 455.393 122.672C467.902 117.233 480.412 110.344 493.102 103.636C505.793 96.7471 519.027 90.2205 530.993 85.5068" stroke="#476272" stroke-width="0.5268" stroke-miterlimit="10"/>
<path opacity="0.1951" d="M28.6245 625.04C18.2907 587.149 6.32519 544.182 9.2259 496.502C10.8576 469.308 18.1093 439.938 30.0748 413.469C39.6834 392.076 53.0993 372.134 70.3223 355.817C76.8489 349.653 84.1007 344.033 92.0776 340.226C110.751 331.342 131.056 333.881 148.46 338.594C153.536 340.045 158.613 341.495 163.326 343.308C173.66 346.934 183.269 351.466 192.696 356.542C196.322 358.537 200.492 360.712 205.024 362.344C213.001 365.245 221.885 366.514 229.68 361.256C238.383 355.273 239.833 345.302 239.108 336.056C238.745 332.793 238.201 329.529 237.657 326.629C235.663 317.927 233.487 309.587 231.312 301.429C229.136 293.089 226.961 284.75 224.785 276.591C219.347 255.561 213.726 232.718 222.429 208.787C227.867 194.102 238.926 180.143 253.249 169.265C262.495 162.194 273.01 156.393 284.25 152.586C307.818 144.609 330.662 145.515 353.505 147.328C375.623 149.141 397.741 151.679 420.221 147.691C430.736 145.878 441.07 142.615 451.404 138.263C464.094 133.006 476.785 126.117 489.476 119.409C502.348 112.52 515.401 105.812 527.548 100.554" stroke="#476272" stroke-width="0.521" stroke-miterlimit="10"/>
<path opacity="0.1707" d="M29.3488 645.344C17.202 605.822 3.60486 561.586 5.5991 512.999C6.68687 485.261 13.3948 455.529 25.3603 428.516C34.9689 406.942 48.3846 386.818 65.9702 370.683C72.6781 364.519 79.9299 358.899 88.0882 355.273C107.305 346.571 127.973 349.834 145.74 355.091C150.997 356.723 156.074 358.355 160.969 360.349C171.484 364.519 181.455 369.414 191.064 375.034C194.871 377.209 199.041 379.566 203.573 381.379C211.731 384.642 220.615 386.093 228.592 380.835C237.294 374.852 238.563 364.519 237.656 355.091C237.294 351.647 236.569 348.383 235.843 345.301C233.487 336.237 230.948 327.716 228.41 319.195C225.872 310.493 223.334 301.972 220.796 293.27C214.451 271.333 207.924 247.584 216.264 222.928C221.34 207.88 232.399 193.558 246.902 182.499C256.148 175.247 266.845 169.446 278.085 165.82C301.835 158.024 325.222 159.474 348.246 161.831C370.908 164.188 393.388 167.451 416.232 163.825C426.928 162.194 437.443 159.112 447.958 154.942C460.83 149.866 473.702 142.977 486.393 136.269C499.265 129.379 512.499 122.49 524.465 116.87" stroke="#476272" stroke-width="0.5153" stroke-miterlimit="10"/>
<path opacity="0.1463" d="M31.1635 667.281C17.3851 626.127 2.1563 580.804 2.88147 530.948C3.24406 502.847 9.5894 472.571 21.3736 445.195C30.8009 423.44 44.398 403.135 62.1649 387C68.8728 380.836 76.3059 375.215 84.6455 371.771C104.225 363.431 125.437 367.057 143.566 373.04C148.824 374.853 154.081 376.666 159.158 378.841C169.854 383.374 180.188 388.812 189.978 394.795C193.785 397.152 198.136 399.69 202.668 401.684C211.008 405.31 220.073 406.942 228.05 401.503C236.933 395.52 238.021 385.005 236.752 375.397C236.208 371.952 235.483 368.507 234.576 365.425C231.857 356.179 229.137 347.296 226.237 338.231C223.336 329.167 220.616 320.283 217.716 311.218C210.645 288.375 203.212 263.719 211.189 238.338C216.084 222.747 226.962 208.062 241.465 196.821C250.711 189.57 261.408 183.768 272.829 180.142C296.76 172.528 320.51 174.522 344.078 177.423C367.103 180.324 389.946 184.131 413.333 181.049C424.392 179.598 435.088 176.698 445.603 172.528C458.656 167.452 471.528 160.744 484.582 153.855C497.635 146.965 510.688 139.714 522.835 133.912" stroke="#476272" stroke-width="0.5095" stroke-miterlimit="10"/>
<path opacity="0.122" d="M33.8831 690.668C18.2917 647.701 1.6126 601.29 1.25001 550.527C1.06871 521.883 6.8701 491.062 18.6543 463.506C28.0816 441.388 41.6787 421.264 59.8082 404.947C66.6974 398.783 74.3117 393.163 82.6513 389.719C102.594 381.56 124.168 385.911 142.841 392.438C148.28 394.432 153.538 396.608 158.795 398.783C169.854 403.678 180.188 409.48 190.159 416.188C193.966 418.726 198.499 421.445 203.031 423.621C211.552 427.428 220.617 429.241 228.594 423.983C237.477 418.001 238.384 407.304 236.933 397.333C236.389 393.707 235.483 390.263 234.395 386.999C231.313 377.391 228.231 368.145 225.149 358.899C221.886 349.471 218.804 340.225 215.722 330.798C207.745 307.048 199.586 281.667 207.02 255.379C211.552 239.425 222.43 224.378 236.933 212.956C246.36 205.523 257.057 199.722 268.478 196.096C292.772 188.663 316.884 191.02 340.815 194.827C364.202 198.271 387.589 202.804 411.339 200.084C422.579 198.815 433.457 195.915 444.153 192.107C457.388 187.212 470.441 180.686 483.494 173.615C496.547 166.545 509.6 159.293 521.928 152.948" stroke="#476272" stroke-width="0.5037" stroke-miterlimit="10"/>
<path opacity="0.073171" d="M42.7644 742.337C23.7285 696.107 3.96743 647.339 1.24801 594.401C-0.202346 564.668 4.69259 533.123 16.2955 504.66C25.5415 482.179 39.3199 461.693 57.9932 445.558C65.0637 439.394 72.8594 433.955 81.7428 430.692C102.41 422.896 125.072 428.516 144.471 436.312C150.091 438.669 155.711 441.207 161.15 443.926C172.571 449.728 183.63 456.435 193.783 464.05C197.771 466.951 202.304 470.033 207.199 472.571C215.901 477.103 225.328 479.279 233.486 473.84C242.551 467.857 243.095 456.798 241.101 446.283C240.376 442.476 239.107 438.85 238.019 435.405C234.212 425.253 230.586 415.282 226.779 405.492C222.971 395.52 219.164 385.368 215.357 375.397C205.748 350.015 195.777 322.64 202.485 294.902C206.474 278.041 217.17 262.269 231.674 250.485C241.101 242.87 251.979 237.069 263.763 233.624C288.6 226.554 313.256 229.998 338.094 234.893C362.387 239.607 386.681 245.408 411.155 243.414C422.758 242.508 433.998 239.97 444.876 236.162C458.654 231.449 471.889 225.103 485.124 218.033C498.358 210.962 511.411 203.167 523.921 196.096" stroke="#476272" stroke-width="0.4921" stroke-miterlimit="10"/>
<path opacity="0.04878" d="M48.9288 770.8C28.2612 722.938 6.86843 672.9 3.06124 619.056C0.8857 588.78 5.23673 556.691 16.8396 528.046C26.0856 505.384 39.864 484.717 58.9 468.581C66.1518 462.417 74.1287 456.978 83.0122 453.896C104.042 446.463 127.067 452.446 147.009 461.148C152.811 463.686 158.431 466.406 164.051 469.307C175.835 475.471 186.894 482.722 197.409 490.699C201.398 493.781 206.111 497.045 211.006 499.764C219.89 504.478 229.498 507.016 237.657 501.577C246.903 495.594 247.265 484.354 244.908 473.658C244.002 469.85 242.733 466.043 241.464 462.599C237.294 452.265 233.305 441.931 229.136 431.597C224.966 421.263 220.796 410.93 216.626 400.415C206.111 374.127 195.415 345.845 201.579 317.382C205.386 299.977 215.901 283.842 230.405 272.058C239.832 264.443 250.71 258.461 262.675 255.197C287.694 248.127 312.894 252.297 338.094 257.736C362.75 262.993 387.406 269.52 412.425 268.069C424.209 267.344 435.63 264.987 446.689 261.361C460.649 256.829 474.065 250.484 487.299 243.232C500.534 235.98 513.587 228.185 526.096 220.751" stroke="#476272" stroke-width="0.4863" stroke-miterlimit="10"/>
<path opacity="0.02439" d="M56.3616 801.077C33.881 751.583 11.0379 700.277 6.1429 645.344C3.42348 614.524 7.23067 582.073 18.8335 553.065C27.8983 530.222 41.858 509.373 61.0753 493.238C68.3271 487.074 76.4853 481.635 85.5501 478.735C106.943 471.483 130.511 478.191 150.816 487.437C156.799 490.156 162.6 493.057 168.22 496.32C180.186 503.028 191.607 510.642 202.304 519.163C206.474 522.427 211.187 525.871 216.082 528.772C224.966 533.848 234.756 536.386 243.095 531.129C252.341 525.146 252.522 513.543 249.803 502.665C248.897 498.677 247.446 494.87 245.996 491.244C241.645 480.547 237.112 470.032 232.761 459.336C228.229 448.64 223.878 437.943 219.346 427.247C207.924 400.053 196.321 371.045 202.123 341.676C205.567 323.909 216.082 307.411 230.767 295.264C240.194 287.469 251.253 281.486 263.219 278.223C288.6 271.333 313.981 276.047 339.725 282.03C364.744 287.831 389.944 295.083 415.325 293.995C427.291 293.451 438.893 291.276 450.134 287.65C464.275 283.299 477.872 276.953 491.106 269.702C504.522 262.45 517.575 254.473 530.085 246.677" stroke="#476272" stroke-width="0.4805" stroke-miterlimit="10"/>
</svg>
