<svg width="24" height="24" viewBox="0 0 24 24" fill="none" xmlns="http://www.w3.org/2000/svg">
<path d="M10.9265 2.99817C6.55488 2.99817 2.99805 6.555 2.99805 10.9266C2.99805 15.2985 6.55488 18.8551 10.9265 18.8551C15.2984 18.8551 18.855 15.2985 18.855 10.9266C18.855 6.555 15.2984 2.99817 10.9265 2.99817ZM10.9265 17.3914C7.36188 17.3914 4.46177 14.4913 4.46177 10.9267C4.46177 7.36204 7.36188 4.46189 10.9265 4.46189C14.4912 4.46189 17.3913 7.362 17.3913 10.9266C17.3913 14.4913 14.4912 17.3914 10.9265 17.3914Z" fill="white"/>
<path d="M20.7861 19.7525L16.5901 15.5565C16.3042 15.2706 15.8412 15.2706 15.5553 15.5565C15.2693 15.8421 15.2693 16.3057 15.5553 16.5913L19.7513 20.7873C19.8942 20.9303 20.0814 21.0018 20.2687 21.0018C20.4558 21.0018 20.6432 20.9303 20.7861 20.7873C21.0721 20.5017 21.0721 20.0381 20.7861 19.7525Z" fill="white"/>
</svg>
