<svg width="48" height="48" viewBox="0 0 48 48" fill="none" xmlns="http://www.w3.org/2000/svg">
  <defs>
    <mask id="download-badge-cutout">
      <rect width="48" height="48" fill="black"/>
      <circle cx="24" cy="24" r="24" fill="white"/>
      <path d="M24 11C25.1046 11 26 11.8954 26 13V24.1716L30.5858 19.5858C31.3668 18.8047 32.6332 18.8047 33.4142 19.5858C34.1953 20.3668 34.1953 21.6332 33.4142 22.4142L25.4142 30.4142C24.6332 31.1953 23.3668 31.1953 22.5858 30.4142L14.5858 22.4142C13.8047 21.6332 13.8047 20.3668 14.5858 19.5858C15.3668 18.8047 16.6332 18.8047 17.4142 19.5858L22 24.1716V13C22 11.8954 22.8954 11 24 11Z" fill="black"/>
      <rect x="13" y="34" width="22" height="4" rx="2" fill="black"/>
    </mask>
  </defs>
  <rect width="48" height="48" fill="white" mask="url(#download-badge-cutout)"/>
</svg>
